<?xml version="1.0" encoding="UTF-8" standalone="no"?>
<!DOCTYPE svg PUBLIC "-//W3C//DTD SVG 1.1//EN"
 "http://www.w3.org/Graphics/SVG/1.1/DTD/svg11.dtd">
<!-- Generated by graphviz version 2.43.0 (0)
 -->
<!-- Title: unilink/builder/auto_initializer.cc Pages: 1 -->
<svg width="514pt" height="236pt"
 viewBox="0.00 0.00 514.00 236.00" xmlns="http://www.w3.org/2000/svg" xmlns:xlink="http://www.w3.org/1999/xlink">
<g id="graph0" class="graph" transform="scale(1 1) rotate(0) translate(4 232)">
<title>unilink/builder/auto_initializer.cc</title>
<!-- Node1 -->
<g id="Node000001" class="node">
<title>Node1</title>
<g id="a_Node000001"><a xlink:title=" ">
<polygon fill="#999999" stroke="#666666" points="148.5,-228 37.5,-228 37.5,-198 148.5,-198 148.5,-228"/>
<text text-anchor="start" x="45.5" y="-216" font-family="Helvetica,sans-Serif" font-size="10.00">unilink/builder/auto</text>
<text text-anchor="middle" x="93" y="-205" font-family="Helvetica,sans-Serif" font-size="10.00">_initializer.cc</text>
</a>
</g>
</g>
<!-- Node2 -->
<g id="Node000002" class="node">
<title>Node2</title>
<g id="a_Node000002"><a xlink:href="auto__initializer_8hpp.html" target="_top" xlink:title=" ">
<polygon fill="white" stroke="#666666" points="148.5,-162 37.5,-162 37.5,-132 148.5,-132 148.5,-162"/>
<text text-anchor="start" x="45.5" y="-150" font-family="Helvetica,sans-Serif" font-size="10.00">unilink/builder/auto</text>
<text text-anchor="middle" x="93" y="-139" font-family="Helvetica,sans-Serif" font-size="10.00">_initializer.hpp</text>
</a>
</g>
</g>
<!-- Node1&#45;&gt;Node2 -->
<g id="edge1_Node000001_Node000002" class="edge">
<title>Node1&#45;&gt;Node2</title>
<g id="a_edge1_Node000001_Node000002"><a xlink:title=" ">
<path fill="none" stroke="#63b8ff" d="M93,-197.8C93,-190.34 93,-180.99 93,-172.41"/>
<polygon fill="#63b8ff" stroke="#63b8ff" points="96.5,-172.16 93,-162.16 89.5,-172.16 96.5,-172.16"/>
</a>
</g>
</g>
<!-- Node3 -->
<g id="Node000003" class="node">
<title>Node3</title>
<g id="a_Node000003"><a xlink:title=" ">
<polygon fill="#e0e0e0" stroke="#999999" points="65,-90.5 17,-90.5 17,-71.5 65,-71.5 65,-90.5"/>
<text text-anchor="middle" x="41" y="-78.5" font-family="Helvetica,sans-Serif" font-size="10.00">mutex</text>
</a>
</g>
</g>
<!-- Node2&#45;&gt;Node3 -->
<g id="edge2_Node000002_Node000003" class="edge">
<title>Node2&#45;&gt;Node3</title>
<g id="a_edge2_Node000002_Node000003"><a xlink:title=" ">
<path fill="none" stroke="#63b8ff" d="M81.46,-131.8C73.51,-122.01 62.92,-108.98 54.57,-98.7"/>
<polygon fill="#63b8ff" stroke="#63b8ff" points="57.21,-96.4 48.19,-90.84 51.78,-100.81 57.21,-96.4"/>
</a>
</g>
</g>
<!-- Node4 -->
<g id="Node000004" class="node">
<title>Node4</title>
<g id="a_Node000004"><a xlink:href="visibility_8hpp.html" target="_top" xlink:title=" ">
<polygon fill="white" stroke="#666666" points="140,-24.5 0,-24.5 0,-5.5 140,-5.5 140,-24.5"/>
<text text-anchor="middle" x="70" y="-12.5" font-family="Helvetica,sans-Serif" font-size="10.00">unilink/base/visibility.hpp</text>
</a>
</g>
</g>
<!-- Node2&#45;&gt;Node4 -->
<g id="edge3_Node000002_Node000004" class="edge">
<title>Node2&#45;&gt;Node4</title>
<g id="a_edge3_Node000002_Node000004"><a xlink:title=" ">
<path fill="none" stroke="#63b8ff" d="M90.49,-131.84C86.34,-108.34 78.01,-61.26 73.35,-34.93"/>
<polygon fill="#63b8ff" stroke="#63b8ff" points="76.74,-33.99 71.55,-24.75 69.84,-35.21 76.74,-33.99"/>
</a>
</g>
</g>
<!-- Node5 -->
<g id="Node000005" class="node">
<title>Node5</title>
<g id="a_Node000005"><a xlink:href="io__context__manager_8hpp.html" target="_top" xlink:title=" ">
<polygon fill="white" stroke="#666666" points="284,-96 144,-96 144,-66 284,-66 284,-96"/>
<text text-anchor="start" x="152" y="-84" font-family="Helvetica,sans-Serif" font-size="10.00">unilink/concurrency</text>
<text text-anchor="middle" x="214" y="-73" font-family="Helvetica,sans-Serif" font-size="10.00">/io_context_manager.hpp</text>
</a>
</g>
</g>
<!-- Node2&#45;&gt;Node5 -->
<g id="edge4_Node000002_Node000005" class="edge">
<title>Node2&#45;&gt;Node5</title>
<g id="a_edge4_Node000002_Node000005"><a xlink:title=" ">
<path fill="none" stroke="#63b8ff" d="M119.55,-131.95C136.89,-122.78 159.73,-110.71 178.6,-100.72"/>
<polygon fill="#63b8ff" stroke="#63b8ff" points="180.3,-103.78 187.51,-96.01 177.03,-97.59 180.3,-103.78"/>
</a>
</g>
</g>
<!-- Node5&#45;&gt;Node4 -->
<g id="edge8_Node000005_Node000004" class="edge">
<title>Node5&#45;&gt;Node4</title>
<g id="a_edge8_Node000005_Node000004"><a xlink:title=" ">
<path fill="none" stroke="#63b8ff" d="M182.4,-65.95C157.37,-54.83 122.7,-39.42 98.51,-28.67"/>
<polygon fill="#63b8ff" stroke="#63b8ff" points="99.72,-25.38 89.16,-24.52 96.88,-31.78 99.72,-25.38"/>
</a>
</g>
</g>
<!-- Node6 -->
<g id="Node000006" class="node">
<title>Node6</title>
<g id="a_Node000006"><a xlink:title=" ">
<polygon fill="#e0e0e0" stroke="#999999" points="270,-30 158,-30 158,0 270,0 270,-30"/>
<text text-anchor="start" x="166" y="-18" font-family="Helvetica,sans-Serif" font-size="10.00">boost/asio/executor</text>
<text text-anchor="middle" x="214" y="-7" font-family="Helvetica,sans-Serif" font-size="10.00">_work_guard.hpp</text>
</a>
</g>
</g>
<!-- Node5&#45;&gt;Node6 -->
<g id="edge5_Node000005_Node000006" class="edge">
<title>Node5&#45;&gt;Node6</title>
<g id="a_edge5_Node000005_Node000006"><a xlink:title=" ">
<path fill="none" stroke="#63b8ff" d="M214,-65.8C214,-58.34 214,-48.99 214,-40.41"/>
<polygon fill="#63b8ff" stroke="#63b8ff" points="217.5,-40.16 214,-30.16 210.5,-40.16 217.5,-40.16"/>
</a>
</g>
</g>
<!-- Node7 -->
<g id="Node000007" class="node">
<title>Node7</title>
<g id="a_Node000007"><a xlink:title=" ">
<polygon fill="#e0e0e0" stroke="#999999" points="430,-24.5 288,-24.5 288,-5.5 430,-5.5 430,-24.5"/>
<text text-anchor="middle" x="359" y="-12.5" font-family="Helvetica,sans-Serif" font-size="10.00">boost/asio/io_context.hpp</text>
</a>
</g>
</g>
<!-- Node5&#45;&gt;Node7 -->
<g id="edge6_Node000005_Node000007" class="edge">
<title>Node5&#45;&gt;Node7</title>
<g id="a_edge6_Node000005_Node000007"><a xlink:title=" ">
<path fill="none" stroke="#63b8ff" d="M245.82,-65.95C271.03,-54.83 305.93,-39.42 330.29,-28.67"/>
<polygon fill="#63b8ff" stroke="#63b8ff" points="331.97,-31.76 339.7,-24.52 329.14,-25.35 331.97,-31.76"/>
</a>
</g>
</g>
<!-- Node8 -->
<g id="Node000008" class="node">
<title>Node8</title>
<g id="a_Node000008"><a xlink:title=" ">
<polygon fill="#e0e0e0" stroke="#999999" points="506,-24.5 448,-24.5 448,-5.5 506,-5.5 506,-24.5"/>
<text text-anchor="middle" x="477" y="-12.5" font-family="Helvetica,sans-Serif" font-size="10.00">memory</text>
</a>
</g>
</g>
<!-- Node5&#45;&gt;Node8 -->
<g id="edge7_Node000005_Node000008" class="edge">
<title>Node5&#45;&gt;Node8</title>
<g id="a_edge7_Node000005_Node000008"><a xlink:title=" ">
<path fill="none" stroke="#63b8ff" d="M284.05,-66.96C328.76,-58.01 387.75,-45.06 439,-30 441.28,-29.33 443.61,-28.6 445.95,-27.82"/>
<polygon fill="#63b8ff" stroke="#63b8ff" points="447.18,-31.1 455.47,-24.5 444.87,-24.49 447.18,-31.1"/>
</a>
</g>
</g>
</g>
</svg>
