<?xml version="1.0" encoding="UTF-8" standalone="no"?>
<!DOCTYPE svg PUBLIC "-//W3C//DTD SVG 1.1//EN"
 "http://www.w3.org/Graphics/SVG/1.1/DTD/svg11.dtd">
<!-- Generated by graphviz version 2.43.0 (0)
 -->
<!-- Title: unilink/builder/auto_initializer.cc Pages: 1 -->
<svg width="514pt" height="240pt"
 viewBox="0.00 0.00 514.00 240.00" xmlns="http://www.w3.org/2000/svg" xmlns:xlink="http://www.w3.org/1999/xlink">
<g id="graph0" class="graph" transform="scale(1 1) rotate(0) translate(4 236)">
<title>unilink/builder/auto_initializer.cc</title>
<polygon fill="white" stroke="transparent" points="-4,4 -4,-236 510,-236 510,4 -4,4"/>
<!-- Node1 -->
<g id="node1" class="node">
<title>Node1</title>
<g id="a_node1"><a xlink:title=" ">
<polygon fill="#bfbfbf" stroke="black" points="37.5,-201.5 37.5,-231.5 148.5,-231.5 148.5,-201.5 37.5,-201.5"/>
<text text-anchor="start" x="45.5" y="-219.5" font-family="Helvetica,sans-Serif" font-size="10.00">unilink/builder/auto</text>
<text text-anchor="middle" x="93" y="-208.5" font-family="Helvetica,sans-Serif" font-size="10.00">_initializer.cc</text>
</a>
</g>
</g>
<!-- Node2 -->
<g id="node2" class="node">
<title>Node2</title>
<g id="a_node2"><a xlink:href="auto__initializer_8hpp.html" target="_top" xlink:title=" ">
<polygon fill="white" stroke="black" points="37.5,-134.5 37.5,-164.5 148.5,-164.5 148.5,-134.5 37.5,-134.5"/>
<text text-anchor="start" x="45.5" y="-152.5" font-family="Helvetica,sans-Serif" font-size="10.00">unilink/builder/auto</text>
<text text-anchor="middle" x="93" y="-141.5" font-family="Helvetica,sans-Serif" font-size="10.00">_initializer.hpp</text>
</a>
</g>
</g>
<!-- Node1&#45;&gt;Node2 -->
<g id="edge1" class="edge">
<title>Node1&#45;&gt;Node2</title>
<path fill="none" stroke="midnightblue" d="M93,-201.4C93,-193.64 93,-183.81 93,-174.86"/>
<polygon fill="midnightblue" stroke="midnightblue" points="96.5,-174.58 93,-164.58 89.5,-174.58 96.5,-174.58"/>
</g>
<!-- Node3 -->
<g id="node3" class="node">
<title>Node3</title>
<g id="a_node3"><a xlink:title=" ">
<polygon fill="white" stroke="#bfbfbf" points="17,-73 17,-92 65,-92 65,-73 17,-73"/>
<text text-anchor="middle" x="41" y="-80" font-family="Helvetica,sans-Serif" font-size="10.00">mutex</text>
</a>
</g>
</g>
<!-- Node2&#45;&gt;Node3 -->
<g id="edge2" class="edge">
<title>Node2&#45;&gt;Node3</title>
<path fill="none" stroke="midnightblue" d="M81.72,-134.4C73.69,-124.36 62.87,-110.84 54.4,-100.25"/>
<polygon fill="midnightblue" stroke="midnightblue" points="56.94,-97.82 47.96,-92.19 51.47,-102.19 56.94,-97.82"/>
</g>
<!-- Node4 -->
<g id="node4" class="node">
<title>Node4</title>
<g id="a_node4"><a xlink:href="visibility_8hpp.html" target="_top" xlink:title=" ">
<polygon fill="white" stroke="black" points="0,-6 0,-25 140,-25 140,-6 0,-6"/>
<text text-anchor="middle" x="70" y="-13" font-family="Helvetica,sans-Serif" font-size="10.00">unilink/base/visibility.hpp</text>
</a>
</g>
</g>
<!-- Node2&#45;&gt;Node4 -->
<g id="edge3" class="edge">
<title>Node2&#45;&gt;Node4</title>
<path fill="none" stroke="midnightblue" d="M90.54,-134.37C86.36,-110.4 77.88,-61.75 73.23,-35.06"/>
<polygon fill="midnightblue" stroke="midnightblue" points="76.66,-34.35 71.5,-25.1 69.77,-35.55 76.66,-34.35"/>
</g>
<!-- Node5 -->
<g id="node5" class="node">
<title>Node5</title>
<g id="a_node5"><a xlink:href="io__context__manager_8hpp.html" target="_top" xlink:title=" ">
<polygon fill="white" stroke="black" points="144,-67.5 144,-97.5 284,-97.5 284,-67.5 144,-67.5"/>
<text text-anchor="start" x="152" y="-85.5" font-family="Helvetica,sans-Serif" font-size="10.00">unilink/concurrency</text>
<text text-anchor="middle" x="214" y="-74.5" font-family="Helvetica,sans-Serif" font-size="10.00">/io_context_manager.hpp</text>
</a>
</g>
</g>
<!-- Node2&#45;&gt;Node5 -->
<g id="edge4" class="edge">
<title>Node2&#45;&gt;Node5</title>
<path fill="none" stroke="midnightblue" d="M119.26,-134.4C136.7,-125.03 159.8,-112.62 178.83,-102.39"/>
<polygon fill="midnightblue" stroke="midnightblue" points="180.64,-105.39 187.8,-97.58 177.33,-99.23 180.64,-105.39"/>
</g>
<!-- Node5&#45;&gt;Node4 -->
<g id="edge8" class="edge">
<title>Node5&#45;&gt;Node4</title>
<path fill="none" stroke="midnightblue" d="M182.75,-67.4C157.6,-56.04 122.55,-40.22 98.23,-29.24"/>
<polygon fill="midnightblue" stroke="midnightblue" points="99.4,-25.93 88.85,-25.01 96.52,-32.31 99.4,-25.93"/>
</g>
<!-- Node6 -->
<g id="node6" class="node">
<title>Node6</title>
<g id="a_node6"><a xlink:title=" ">
<polygon fill="white" stroke="#bfbfbf" points="158,-0.5 158,-30.5 270,-30.5 270,-0.5 158,-0.5"/>
<text text-anchor="start" x="166" y="-18.5" font-family="Helvetica,sans-Serif" font-size="10.00">boost/asio/executor</text>
<text text-anchor="middle" x="214" y="-7.5" font-family="Helvetica,sans-Serif" font-size="10.00">_work_guard.hpp</text>
</a>
</g>
</g>
<!-- Node5&#45;&gt;Node6 -->
<g id="edge5" class="edge">
<title>Node5&#45;&gt;Node6</title>
<path fill="none" stroke="midnightblue" d="M214,-67.4C214,-59.64 214,-49.81 214,-40.86"/>
<polygon fill="midnightblue" stroke="midnightblue" points="217.5,-40.58 214,-30.58 210.5,-40.58 217.5,-40.58"/>
</g>
<!-- Node7 -->
<g id="node7" class="node">
<title>Node7</title>
<g id="a_node7"><a xlink:title=" ">
<polygon fill="white" stroke="#bfbfbf" points="288,-6 288,-25 430,-25 430,-6 288,-6"/>
<text text-anchor="middle" x="359" y="-13" font-family="Helvetica,sans-Serif" font-size="10.00">boost/asio/io_context.hpp</text>
</a>
</g>
</g>
<!-- Node5&#45;&gt;Node7 -->
<g id="edge6" class="edge">
<title>Node5&#45;&gt;Node7</title>
<path fill="none" stroke="midnightblue" d="M245.46,-67.4C270.9,-55.99 306.4,-40.08 330.9,-29.1"/>
<polygon fill="midnightblue" stroke="midnightblue" points="332.33,-32.29 340.02,-25.01 329.47,-25.9 332.33,-32.29"/>
</g>
<!-- Node8 -->
<g id="node8" class="node">
<title>Node8</title>
<g id="a_node8"><a xlink:title=" ">
<polygon fill="white" stroke="#bfbfbf" points="448,-6 448,-25 506,-25 506,-6 448,-6"/>
<text text-anchor="middle" x="477" y="-13" font-family="Helvetica,sans-Serif" font-size="10.00">memory</text>
</a>
</g>
</g>
<!-- Node5&#45;&gt;Node8 -->
<g id="edge7" class="edge">
<title>Node5&#45;&gt;Node8</title>
<path fill="none" stroke="midnightblue" d="M284.1,-68.47C328.84,-59.49 387.83,-46.42 439,-31 441.57,-30.22 444.22,-29.36 446.87,-28.45"/>
<polygon fill="midnightblue" stroke="midnightblue" points="448.08,-31.73 456.28,-25.02 445.69,-25.15 448.08,-31.73"/>
</g>
</g>
</svg>
