<?xml version="1.0" encoding="UTF-8" standalone="no"?>
<!DOCTYPE svg PUBLIC "-//W3C//DTD SVG 1.1//EN"
 "http://www.w3.org/Graphics/SVG/1.1/DTD/svg11.dtd">
<!-- Generated by graphviz version 2.43.0 (0)
 -->
<!-- Title: unilink/transport/tcp_server/boost_tcp_socket.hpp Pages: 1 -->
<svg width="492pt" height="218pt"
 viewBox="0.00 0.00 492.00 218.00" xmlns="http://www.w3.org/2000/svg" xmlns:xlink="http://www.w3.org/1999/xlink">
<g id="graph0" class="graph" transform="scale(1 1) rotate(0) translate(4 214)">
<title>unilink/transport/tcp_server/boost_tcp_socket.hpp</title>
<polygon fill="white" stroke="transparent" points="-4,4 -4,-214 488,-214 488,4 -4,4"/>
<!-- Node1 -->
<g id="node1" class="node">
<title>Node1</title>
<g id="a_node1"><a xlink:title=" ">
<polygon fill="#bfbfbf" stroke="black" points="209.5,-179.5 209.5,-209.5 370.5,-209.5 370.5,-179.5 209.5,-179.5"/>
<text text-anchor="start" x="217.5" y="-197.5" font-family="Helvetica,sans-Serif" font-size="10.00">unilink/transport/tcp</text>
<text text-anchor="middle" x="290" y="-186.5" font-family="Helvetica,sans-Serif" font-size="10.00">_server/boost_tcp_socket.hpp</text>
</a>
</g>
</g>
<!-- Node2 -->
<g id="node2" class="node">
<title>Node2</title>
<g id="a_node2"><a xlink:title=" ">
<polygon fill="white" stroke="#bfbfbf" points="0,-56.5 0,-75.5 88,-75.5 88,-56.5 0,-56.5"/>
<text text-anchor="middle" x="44" y="-63.5" font-family="Helvetica,sans-Serif" font-size="10.00">boost/asio.hpp</text>
</a>
</g>
</g>
<!-- Node1&#45;&gt;Node2 -->
<g id="edge1" class="edge">
<title>Node1&#45;&gt;Node2</title>
<path fill="none" stroke="midnightblue" d="M262.73,-179.48C214.97,-154.92 116.79,-104.43 69.96,-80.35"/>
<polygon fill="midnightblue" stroke="midnightblue" points="71.28,-77.09 60.78,-75.63 68.08,-83.32 71.28,-77.09"/>
</g>
<!-- Node3 -->
<g id="node3" class="node">
<title>Node3</title>
<g id="a_node3"><a xlink:title=" ">
<polygon fill="white" stroke="#bfbfbf" points="426,-118 426,-137 484,-137 484,-118 426,-118"/>
<text text-anchor="middle" x="455" y="-125" font-family="Helvetica,sans-Serif" font-size="10.00">memory</text>
</a>
</g>
</g>
<!-- Node1&#45;&gt;Node3 -->
<g id="edge2" class="edge">
<title>Node1&#45;&gt;Node3</title>
<path fill="none" stroke="midnightblue" d="M325.8,-179.4C355.01,-167.89 395.86,-151.8 423.76,-140.81"/>
<polygon fill="midnightblue" stroke="midnightblue" points="425.38,-143.93 433.41,-137.01 422.82,-137.42 425.38,-143.93"/>
</g>
<!-- Node4 -->
<g id="node4" class="node">
<title>Node4</title>
<g id="a_node4"><a xlink:href="platform_8hpp.html" target="_top" xlink:title=" ">
<polygon fill="white" stroke="black" points="106,-56.5 106,-75.5 248,-75.5 248,-56.5 106,-56.5"/>
<text text-anchor="middle" x="177" y="-63.5" font-family="Helvetica,sans-Serif" font-size="10.00">unilink/base/platform.hpp</text>
</a>
</g>
</g>
<!-- Node1&#45;&gt;Node4 -->
<g id="edge3" class="edge">
<title>Node1&#45;&gt;Node4</title>
<path fill="none" stroke="midnightblue" d="M266.42,-179.37C252.4,-170.2 234.89,-157.31 222,-143 206.17,-125.43 193.08,-101.45 185.18,-85.16"/>
<polygon fill="midnightblue" stroke="midnightblue" points="188.16,-83.28 180.75,-75.7 181.82,-86.25 188.16,-83.28"/>
</g>
<!-- Node6 -->
<g id="node6" class="node">
<title>Node6</title>
<g id="a_node6"><a xlink:href="visibility_8hpp.html" target="_top" xlink:title=" ">
<polygon fill="white" stroke="black" points="321,-0.5 321,-19.5 399,-19.5 399,-0.5 321,-0.5"/>
<text text-anchor="middle" x="360" y="-7.5" font-family="Helvetica,sans-Serif" font-size="10.00">visibility.hpp</text>
</a>
</g>
</g>
<!-- Node1&#45;&gt;Node6 -->
<g id="edge6" class="edge">
<title>Node1&#45;&gt;Node6</title>
<path fill="none" stroke="midnightblue" d="M320.02,-179.39C334.25,-170.98 349.88,-158.83 358,-143 376.75,-106.41 370.21,-56.29 364.61,-29.56"/>
<polygon fill="midnightblue" stroke="midnightblue" points="367.98,-28.62 362.34,-19.65 361.16,-30.18 367.98,-28.62"/>
</g>
<!-- Node7 -->
<g id="node7" class="node">
<title>Node7</title>
<g id="a_node7"><a xlink:href="itcp__socket_8hpp.html" target="_top" xlink:title=" ">
<polygon fill="white" stroke="black" points="231.5,-112.5 231.5,-142.5 348.5,-142.5 348.5,-112.5 231.5,-112.5"/>
<text text-anchor="start" x="239.5" y="-130.5" font-family="Helvetica,sans-Serif" font-size="10.00">unilink/interface/itcp</text>
<text text-anchor="middle" x="290" y="-119.5" font-family="Helvetica,sans-Serif" font-size="10.00">_socket.hpp</text>
</a>
</g>
</g>
<!-- Node1&#45;&gt;Node7 -->
<g id="edge7" class="edge">
<title>Node1&#45;&gt;Node7</title>
<path fill="none" stroke="midnightblue" d="M290,-179.4C290,-171.64 290,-161.81 290,-152.86"/>
<polygon fill="midnightblue" stroke="midnightblue" points="293.5,-152.58 290,-142.58 286.5,-152.58 293.5,-152.58"/>
</g>
<!-- Node5 -->
<g id="node5" class="node">
<title>Node5</title>
<g id="a_node5"><a xlink:title=" ">
<polygon fill="white" stroke="#bfbfbf" points="155,-0.5 155,-19.5 199,-19.5 199,-0.5 155,-0.5"/>
<text text-anchor="middle" x="177" y="-7.5" font-family="Helvetica,sans-Serif" font-size="10.00">string</text>
</a>
</g>
</g>
<!-- Node4&#45;&gt;Node5 -->
<g id="edge4" class="edge">
<title>Node4&#45;&gt;Node5</title>
<path fill="none" stroke="midnightblue" d="M177,-56.08C177,-49.01 177,-38.86 177,-29.99"/>
<polygon fill="midnightblue" stroke="midnightblue" points="180.5,-29.75 177,-19.75 173.5,-29.75 180.5,-29.75"/>
</g>
<!-- Node4&#45;&gt;Node6 -->
<g id="edge5" class="edge">
<title>Node4&#45;&gt;Node6</title>
<path fill="none" stroke="midnightblue" d="M206,-56.44C237.18,-47.24 286.93,-32.56 321.41,-22.39"/>
<polygon fill="midnightblue" stroke="midnightblue" points="322.54,-25.7 331.14,-19.52 320.56,-18.99 322.54,-25.7"/>
</g>
<!-- Node7&#45;&gt;Node2 -->
<g id="edge8" class="edge">
<title>Node7&#45;&gt;Node2</title>
<path fill="none" stroke="midnightblue" d="M232.01,-112.47C188.28,-101.9 129.15,-87.59 88.96,-77.87"/>
<polygon fill="midnightblue" stroke="midnightblue" points="89.71,-74.46 79.17,-75.51 88.07,-81.26 89.71,-74.46"/>
</g>
<!-- Node7&#45;&gt;Node4 -->
<g id="edge10" class="edge">
<title>Node7&#45;&gt;Node4</title>
<path fill="none" stroke="midnightblue" d="M263.22,-112.4C244.94,-102.77 220.85,-90.09 202.79,-80.58"/>
<polygon fill="midnightblue" stroke="midnightblue" points="203.92,-77.22 193.44,-75.66 200.66,-83.41 203.92,-77.22"/>
</g>
<!-- Node7&#45;&gt;Node6 -->
<g id="edge11" class="edge">
<title>Node7&#45;&gt;Node6</title>
<path fill="none" stroke="midnightblue" d="M307.94,-112.27C318.6,-102.96 331.63,-89.97 340,-76 348.62,-61.6 353.84,-43.14 356.77,-29.58"/>
<polygon fill="midnightblue" stroke="midnightblue" points="360.25,-30.02 358.72,-19.53 353.38,-28.68 360.25,-30.02"/>
</g>
<!-- Node8 -->
<g id="node8" class="node">
<title>Node8</title>
<g id="a_node8"><a xlink:title=" ">
<polygon fill="white" stroke="#bfbfbf" points="266.5,-56.5 266.5,-75.5 331.5,-75.5 331.5,-56.5 266.5,-56.5"/>
<text text-anchor="middle" x="299" y="-63.5" font-family="Helvetica,sans-Serif" font-size="10.00">functional</text>
</a>
</g>
</g>
<!-- Node7&#45;&gt;Node8 -->
<g id="edge9" class="edge">
<title>Node7&#45;&gt;Node8</title>
<path fill="none" stroke="midnightblue" d="M292.13,-112.4C293.35,-104.38 294.88,-94.23 296.19,-85.57"/>
<polygon fill="midnightblue" stroke="midnightblue" points="299.66,-86.07 297.69,-75.66 292.73,-85.02 299.66,-86.07"/>
</g>
</g>
</svg>
