<?xml version="1.0" encoding="UTF-8" standalone="no"?>
<!DOCTYPE svg PUBLIC "-//W3C//DTD SVG 1.1//EN"
 "http://www.w3.org/Graphics/SVG/1.1/DTD/svg11.dtd">
<!-- Generated by graphviz version 2.43.0 (0)
 -->
<!-- Title: unilink/transport/uds/boost_uds_socket.hpp Pages: 1 -->
<svg width="409pt" height="106pt"
 viewBox="0.00 0.00 408.50 106.00" xmlns="http://www.w3.org/2000/svg" xmlns:xlink="http://www.w3.org/1999/xlink">
<g id="graph0" class="graph" transform="scale(1 1) rotate(0) translate(4 102)">
<title>unilink/transport/uds/boost_uds_socket.hpp</title>
<polygon fill="white" stroke="transparent" points="-4,4 -4,-102 404.5,-102 404.5,4 -4,4"/>
<!-- Node1 -->
<g id="node1" class="node">
<title>Node1</title>
<g id="a_node1"><a xlink:title=" ">
<polygon fill="#bfbfbf" stroke="black" points="132,-67.5 132,-97.5 259,-97.5 259,-67.5 132,-67.5"/>
<text text-anchor="start" x="140" y="-85.5" font-family="Helvetica,sans-Serif" font-size="10.00">unilink/transport/uds</text>
<text text-anchor="middle" x="195.5" y="-74.5" font-family="Helvetica,sans-Serif" font-size="10.00">/boost_uds_socket.hpp</text>
</a>
</g>
</g>
<!-- Node2 -->
<g id="node2" class="node">
<title>Node2</title>
<g id="a_node2"><a xlink:href="boost__uds__socket_8cc.html" target="_top" xlink:title=" ">
<polygon fill="white" stroke="black" points="0,-0.5 0,-30.5 119,-30.5 119,-0.5 0,-0.5"/>
<text text-anchor="start" x="8" y="-18.5" font-family="Helvetica,sans-Serif" font-size="10.00">unilink/transport/uds</text>
<text text-anchor="middle" x="59.5" y="-7.5" font-family="Helvetica,sans-Serif" font-size="10.00">/boost_uds_socket.cc</text>
</a>
</g>
</g>
<!-- Node1&#45;&gt;Node2 -->
<g id="edge1" class="edge">
<title>Node1&#45;&gt;Node2</title>
<path fill="none" stroke="midnightblue" d="M156.78,-62.99C135.22,-52.69 108.81,-40.07 88.95,-30.58"/>
<polygon fill="midnightblue" stroke="midnightblue" points="155.46,-66.24 165.99,-67.4 158.48,-59.93 155.46,-66.24"/>
</g>
<!-- Node3 -->
<g id="node3" class="node">
<title>Node3</title>
<g id="a_node3"><a xlink:href="transport_2uds_2uds__client_8cc.html" target="_top" xlink:title=" ">
<polygon fill="white" stroke="black" points="137,-0.5 137,-30.5 254,-30.5 254,-0.5 137,-0.5"/>
<text text-anchor="start" x="145" y="-18.5" font-family="Helvetica,sans-Serif" font-size="10.00">unilink/transport/uds</text>
<text text-anchor="middle" x="195.5" y="-7.5" font-family="Helvetica,sans-Serif" font-size="10.00">/uds_client.cc</text>
</a>
</g>
</g>
<!-- Node1&#45;&gt;Node3 -->
<g id="edge2" class="edge">
<title>Node1&#45;&gt;Node3</title>
<path fill="none" stroke="midnightblue" d="M195.5,-57.11C195.5,-48.15 195.5,-38.32 195.5,-30.58"/>
<polygon fill="midnightblue" stroke="midnightblue" points="192,-57.4 195.5,-67.4 199,-57.4 192,-57.4"/>
</g>
<!-- Node4 -->
<g id="node4" class="node">
<title>Node4</title>
<g id="a_node4"><a xlink:href="uds__server__session_8cc.html" target="_top" xlink:title=" ">
<polygon fill="white" stroke="black" points="272.5,-0.5 272.5,-30.5 400.5,-30.5 400.5,-0.5 272.5,-0.5"/>
<text text-anchor="start" x="280.5" y="-18.5" font-family="Helvetica,sans-Serif" font-size="10.00">unilink/transport/uds</text>
<text text-anchor="middle" x="336.5" y="-7.5" font-family="Helvetica,sans-Serif" font-size="10.00">/uds_server_session.cc</text>
</a>
</g>
</g>
<!-- Node1&#45;&gt;Node4 -->
<g id="edge3" class="edge">
<title>Node1&#45;&gt;Node4</title>
<path fill="none" stroke="midnightblue" d="M235.35,-63.13C257.75,-52.8 285.28,-40.11 305.96,-30.58"/>
<polygon fill="midnightblue" stroke="midnightblue" points="233.71,-60.03 226.09,-67.4 236.64,-66.39 233.71,-60.03"/>
</g>
</g>
</svg>
