<?xml version="1.0" encoding="UTF-8" standalone="no"?>
<!DOCTYPE svg PUBLIC "-//W3C//DTD SVG 1.1//EN"
 "http://www.w3.org/Graphics/SVG/1.1/DTD/svg11.dtd">
<!-- Generated by graphviz version 2.43.0 (0)
 -->
<!-- Title: unilink/factory/channel_factory.hpp Pages: 1 -->
<svg width="2624pt" height="291pt"
 viewBox="0.00 0.00 2624.00 291.00" xmlns="http://www.w3.org/2000/svg" xmlns:xlink="http://www.w3.org/1999/xlink">
<g id="graph0" class="graph" transform="scale(1 1) rotate(0) translate(4 287)">
<title>unilink/factory/channel_factory.hpp</title>
<!-- Node1 -->
<g id="Node000001" class="node">
<title>Node1</title>
<g id="a_Node000001"><a xlink:title=" ">
<polygon fill="#999999" stroke="#666666" points="670,-283 542,-283 542,-253 670,-253 670,-283"/>
<text text-anchor="start" x="550" y="-271" font-family="Helvetica,sans-Serif" font-size="10.00">unilink/factory/channel</text>
<text text-anchor="middle" x="606" y="-260" font-family="Helvetica,sans-Serif" font-size="10.00">_factory.hpp</text>
</a>
</g>
</g>
<!-- Node2 -->
<g id="Node000002" class="node">
<title>Node2</title>
<g id="a_Node000002"><a xlink:title=" ">
<polygon fill="#e0e0e0" stroke="#999999" points="198,-211.5 56,-211.5 56,-192.5 198,-192.5 198,-211.5"/>
<text text-anchor="middle" x="127" y="-199.5" font-family="Helvetica,sans-Serif" font-size="10.00">boost/asio/io_context.hpp</text>
</a>
</g>
</g>
<!-- Node1&#45;&gt;Node2 -->
<g id="edge1_Node000001_Node000002" class="edge">
<title>Node1&#45;&gt;Node2</title>
<g id="a_edge1_Node000001_Node000002"><a xlink:title=" ">
<path fill="none" stroke="#63b8ff" d="M541.75,-259.59C463.68,-250.41 327.99,-233.91 212,-217 203.9,-215.82 195.38,-214.5 186.98,-213.16"/>
<polygon fill="#63b8ff" stroke="#63b8ff" points="187.27,-209.67 176.84,-211.53 186.16,-216.58 187.27,-209.67"/>
</a>
</g>
</g>
<!-- Node3 -->
<g id="Node000003" class="node">
<title>Node3</title>
<g id="a_Node000003"><a xlink:title=" ">
<polygon fill="#e0e0e0" stroke="#999999" points="1581,-19 1523,-19 1523,0 1581,0 1581,-19"/>
<text text-anchor="middle" x="1552" y="-7" font-family="Helvetica,sans-Serif" font-size="10.00">memory</text>
</a>
</g>
</g>
<!-- Node1&#45;&gt;Node3 -->
<g id="edge2_Node000001_Node000003" class="edge">
<title>Node1&#45;&gt;Node3</title>
<g id="a_edge2_Node000001_Node000003"><a xlink:title=" ">
<path fill="none" stroke="#63b8ff" d="M670.15,-266.44C820.38,-262.49 1202.74,-237.06 1473,-85 1499.58,-70.04 1524.12,-44.23 1538.58,-27.26"/>
<polygon fill="#63b8ff" stroke="#63b8ff" points="1541.49,-29.23 1545.18,-19.3 1536.1,-24.77 1541.49,-29.23"/>
</a>
</g>
</g>
<!-- Node4 -->
<g id="Node000004" class="node">
<title>Node4</title>
<g id="a_Node000004"><a xlink:title=" ">
<polygon fill="#e0e0e0" stroke="#999999" points="1784.5,-211.5 1733.5,-211.5 1733.5,-192.5 1784.5,-192.5 1784.5,-211.5"/>
<text text-anchor="middle" x="1759" y="-199.5" font-family="Helvetica,sans-Serif" font-size="10.00">variant</text>
</a>
</g>
</g>
<!-- Node1&#45;&gt;Node4 -->
<g id="edge3_Node000001_Node000004" class="edge">
<title>Node1&#45;&gt;Node4</title>
<g id="a_edge3_Node000001_Node000004"><a xlink:title=" ">
<path fill="none" stroke="#63b8ff" d="M670.07,-267.03C876.39,-266.68 1521.83,-261.93 1725,-217 1727.23,-216.51 1729.5,-215.88 1731.75,-215.16"/>
<polygon fill="#63b8ff" stroke="#63b8ff" points="1733.21,-218.36 1741.38,-211.61 1730.78,-211.79 1733.21,-218.36"/>
</a>
</g>
</g>
<!-- Node5 -->
<g id="Node000005" class="node">
<title>Node5</title>
<g id="a_Node000005"><a xlink:href="visibility_8hpp.html" target="_top" xlink:title=" ">
<polygon fill="white" stroke="#666666" points="1309,-19 1169,-19 1169,0 1309,0 1309,-19"/>
<text text-anchor="middle" x="1239" y="-7" font-family="Helvetica,sans-Serif" font-size="10.00">unilink/base/visibility.hpp</text>
</a>
</g>
</g>
<!-- Node1&#45;&gt;Node5 -->
<g id="edge4_Node000001_Node000005" class="edge">
<title>Node1&#45;&gt;Node5</title>
<g id="a_edge4_Node000001_Node000005"><a xlink:title=" ">
<path fill="none" stroke="#63b8ff" d="M670.11,-258.98C820.49,-238.72 1188.65,-180.2 1261,-85 1273.82,-68.13 1262.61,-43.89 1252.04,-27.7"/>
<polygon fill="#63b8ff" stroke="#63b8ff" points="1254.69,-25.38 1246.08,-19.2 1248.96,-29.4 1254.69,-25.38"/>
</a>
</g>
</g>
<!-- Node6 -->
<g id="Node000006" class="node">
<title>Node6</title>
<g id="a_Node000006"><a xlink:href="serial__config_8hpp.html" target="_top" xlink:title=" ">
<polygon fill="white" stroke="#666666" points="580,-151 468,-151 468,-121 580,-121 580,-151"/>
<text text-anchor="start" x="476" y="-139" font-family="Helvetica,sans-Serif" font-size="10.00">unilink/config/serial</text>
<text text-anchor="middle" x="524" y="-128" font-family="Helvetica,sans-Serif" font-size="10.00">_config.hpp</text>
</a>
</g>
</g>
<!-- Node1&#45;&gt;Node6 -->
<g id="edge5_Node000001_Node000006" class="edge">
<title>Node1&#45;&gt;Node6</title>
<g id="a_edge5_Node000001_Node000006"><a xlink:title=" ">
<path fill="none" stroke="#63b8ff" d="M597.07,-252.84C582.96,-230.47 555.38,-186.74 538.43,-159.88"/>
<polygon fill="#63b8ff" stroke="#63b8ff" points="541.22,-157.73 532.92,-151.14 535.3,-161.47 541.22,-157.73"/>
</a>
</g>
</g>
<!-- Node11 -->
<g id="Node000011" class="node">
<title>Node11</title>
<g id="a_Node000011"><a xlink:href="tcp__client__config_8hpp.html" target="_top" xlink:title=" ">
<polygon fill="white" stroke="#666666" points="492,-217 388,-217 388,-187 492,-187 492,-217"/>
<text text-anchor="start" x="396" y="-205" font-family="Helvetica,sans-Serif" font-size="10.00">unilink/config/tcp</text>
<text text-anchor="middle" x="440" y="-194" font-family="Helvetica,sans-Serif" font-size="10.00">_client_config.hpp</text>
</a>
</g>
</g>
<!-- Node1&#45;&gt;Node11 -->
<g id="edge10_Node000001_Node000011" class="edge">
<title>Node1&#45;&gt;Node11</title>
<g id="a_edge10_Node000001_Node000011"><a xlink:title=" ">
<path fill="none" stroke="#63b8ff" d="M569.57,-252.95C544.92,-243.45 512.17,-230.82 485.76,-220.64"/>
<polygon fill="#63b8ff" stroke="#63b8ff" points="486.93,-217.34 476.34,-217.01 484.42,-223.88 486.93,-217.34"/>
</a>
</g>
</g>
<!-- Node20 -->
<g id="Node000020" class="node">
<title>Node20</title>
<g id="a_Node000020"><a xlink:href="tcp__server__config_8hpp.html" target="_top" xlink:title=" ">
<polygon fill="white" stroke="#666666" points="362,-217 254,-217 254,-187 362,-187 362,-217"/>
<text text-anchor="start" x="262" y="-205" font-family="Helvetica,sans-Serif" font-size="10.00">unilink/config/tcp</text>
<text text-anchor="middle" x="308" y="-194" font-family="Helvetica,sans-Serif" font-size="10.00">_server_config.hpp</text>
</a>
</g>
</g>
<!-- Node1&#45;&gt;Node20 -->
<g id="edge28_Node000001_Node000020" class="edge">
<title>Node1&#45;&gt;Node20</title>
<g id="a_edge28_Node000001_Node000020"><a xlink:title=" ">
<path fill="none" stroke="#63b8ff" d="M541.71,-253.19C491.6,-242.43 422.36,-227.56 372.27,-216.8"/>
<polygon fill="#63b8ff" stroke="#63b8ff" points="372.71,-213.32 362.2,-214.64 371.24,-220.16 372.71,-213.32"/>
</a>
</g>
</g>
<!-- Node21 -->
<g id="Node000021" class="node">
<title>Node21</title>
<g id="a_Node000021"><a xlink:href="udp__config_8hpp.html" target="_top" xlink:title=" ">
<polygon fill="white" stroke="#666666" points="112.5,-151 9.5,-151 9.5,-121 112.5,-121 112.5,-151"/>
<text text-anchor="start" x="17.5" y="-139" font-family="Helvetica,sans-Serif" font-size="10.00">unilink/config/udp</text>
<text text-anchor="middle" x="61" y="-128" font-family="Helvetica,sans-Serif" font-size="10.00">_config.hpp</text>
</a>
</g>
</g>
<!-- Node1&#45;&gt;Node21 -->
<g id="edge33_Node000001_Node000021" class="edge">
<title>Node1&#45;&gt;Node21</title>
<g id="a_edge33_Node000001_Node000021"><a xlink:title=" ">
<path fill="none" stroke="#63b8ff" d="M541.81,-262.18C452.83,-254.8 297.09,-239.21 245,-217 225.21,-208.56 225.89,-197.3 207,-187 180.6,-172.61 149.29,-161.23 122.45,-152.98"/>
<polygon fill="#63b8ff" stroke="#63b8ff" points="123.36,-149.6 112.78,-150.09 121.36,-156.31 123.36,-149.6"/>
</a>
</g>
</g>
<!-- Node23 -->
<g id="Node000023" class="node">
<title>Node23</title>
<g id="a_Node000023"><a xlink:href="uds__config_8hpp.html" target="_top" xlink:title=" ">
<polygon fill="white" stroke="#666666" points="697,-217 595,-217 595,-187 697,-187 697,-217"/>
<text text-anchor="start" x="603" y="-205" font-family="Helvetica,sans-Serif" font-size="10.00">unilink/config/uds</text>
<text text-anchor="middle" x="646" y="-194" font-family="Helvetica,sans-Serif" font-size="10.00">_config.hpp</text>
</a>
</g>
</g>
<!-- Node1&#45;&gt;Node23 -->
<g id="edge38_Node000001_Node000023" class="edge">
<title>Node1&#45;&gt;Node23</title>
<g id="a_edge38_Node000001_Node000023"><a xlink:title=" ">
<path fill="none" stroke="#63b8ff" d="M614.88,-252.8C619.85,-244.84 626.16,-234.74 631.81,-225.71"/>
<polygon fill="#63b8ff" stroke="#63b8ff" points="634.82,-227.5 637.15,-217.16 628.88,-223.79 634.82,-227.5"/>
</a>
</g>
</g>
<!-- Node24 -->
<g id="Node000024" class="node">
<title>Node24</title>
<g id="a_Node000024"><a xlink:href="channel_8hpp.html" target="_top" xlink:title=" ">
<polygon fill="white" stroke="#666666" points="1716,-211.5 1558,-211.5 1558,-192.5 1716,-192.5 1716,-211.5"/>
<text text-anchor="middle" x="1637" y="-199.5" font-family="Helvetica,sans-Serif" font-size="10.00">unilink/interface/channel.hpp</text>
</a>
</g>
</g>
<!-- Node1&#45;&gt;Node24 -->
<g id="edge43_Node000001_Node000024" class="edge">
<title>Node1&#45;&gt;Node24</title>
<g id="a_edge43_Node000001_Node000024"><a xlink:title=" ">
<path fill="none" stroke="#63b8ff" d="M670.14,-265.71C822.21,-262.18 1216.47,-250.3 1544,-217 1554.46,-215.94 1565.55,-214.52 1576.28,-213"/>
<polygon fill="#63b8ff" stroke="#63b8ff" points="1577.04,-216.43 1586.43,-211.52 1576.03,-209.5 1577.04,-216.43"/>
</a>
</g>
</g>
<!-- Node7 -->
<g id="Node000007" class="node">
<title>Node7</title>
<g id="a_Node000007"><a xlink:title=" ">
<polygon fill="#e0e0e0" stroke="#999999" points="883,-19 839,-19 839,0 883,0 883,-19"/>
<text text-anchor="middle" x="861" y="-7" font-family="Helvetica,sans-Serif" font-size="10.00">string</text>
</a>
</g>
</g>
<!-- Node6&#45;&gt;Node7 -->
<g id="edge6_Node000006_Node000007" class="edge">
<title>Node6&#45;&gt;Node7</title>
<g id="a_edge6_Node000006_Node000007"><a xlink:title=" ">
<path fill="none" stroke="#63b8ff" d="M528.66,-120.78C535.49,-102.37 550.07,-70.78 574,-55 615.37,-27.72 762.4,-16.1 828.46,-12.17"/>
<polygon fill="#63b8ff" stroke="#63b8ff" points="828.92,-15.65 838.7,-11.59 828.52,-8.66 828.92,-15.65"/>
</a>
</g>
</g>
<!-- Node8 -->
<g id="Node000008" class="node">
<title>Node8</title>
<g id="a_Node000008"><a xlink:href="constants_8hpp.html" target="_top" xlink:title=" ">
<polygon fill="white" stroke="#666666" points="373.5,-79.5 226.5,-79.5 226.5,-60.5 373.5,-60.5 373.5,-79.5"/>
<text text-anchor="middle" x="300" y="-67.5" font-family="Helvetica,sans-Serif" font-size="10.00">unilink/base/constants.hpp</text>
</a>
</g>
</g>
<!-- Node6&#45;&gt;Node8 -->
<g id="edge7_Node000006_Node000008" class="edge">
<title>Node6&#45;&gt;Node8</title>
<g id="a_edge7_Node000006_Node000008"><a xlink:title=" ">
<path fill="none" stroke="#63b8ff" d="M474.84,-120.95C434.17,-109.34 377.16,-93.05 339.44,-82.27"/>
<polygon fill="#63b8ff" stroke="#63b8ff" points="340.39,-78.9 329.81,-79.52 338.46,-85.63 340.39,-78.9"/>
</a>
</g>
</g>
<!-- Node9 -->
<g id="Node000009" class="node">
<title>Node9</title>
<g id="a_Node000009"><a xlink:title=" ">
<polygon fill="#e0e0e0" stroke="#999999" points="326.5,-19 273.5,-19 273.5,0 326.5,0 326.5,-19"/>
<text text-anchor="middle" x="300" y="-7" font-family="Helvetica,sans-Serif" font-size="10.00">cstddef</text>
</a>
</g>
</g>
<!-- Node8&#45;&gt;Node9 -->
<g id="edge8_Node000008_Node000009" class="edge">
<title>Node8&#45;&gt;Node9</title>
<g id="a_edge8_Node000008_Node000009"><a xlink:title=" ">
<path fill="none" stroke="#63b8ff" d="M300,-60.37C300,-52.25 300,-39.81 300,-29.39"/>
<polygon fill="#63b8ff" stroke="#63b8ff" points="303.5,-29.17 300,-19.17 296.5,-29.17 303.5,-29.17"/>
</a>
</g>
</g>
<!-- Node10 -->
<g id="Node000010" class="node">
<title>Node10</title>
<g id="a_Node000010"><a xlink:title=" ">
<polygon fill="#e0e0e0" stroke="#999999" points="465,-19 415,-19 415,0 465,0 465,-19"/>
<text text-anchor="middle" x="440" y="-7" font-family="Helvetica,sans-Serif" font-size="10.00">cstdint</text>
</a>
</g>
</g>
<!-- Node8&#45;&gt;Node10 -->
<g id="edge9_Node000008_Node000010" class="edge">
<title>Node8&#45;&gt;Node10</title>
<g id="a_edge9_Node000008_Node000010"><a xlink:title=" ">
<path fill="none" stroke="#63b8ff" d="M320.36,-60.49C344,-50.62 383.2,-34.23 410.25,-22.93"/>
<polygon fill="#63b8ff" stroke="#63b8ff" points="411.74,-26.1 419.62,-19.02 409.04,-19.64 411.74,-26.1"/>
</a>
</g>
</g>
<!-- Node11&#45;&gt;Node7 -->
<g id="edge12_Node000011_Node000007" class="edge">
<title>Node11&#45;&gt;Node7</title>
<g id="a_edge12_Node000011_Node000007"><a xlink:title=" ">
<path fill="none" stroke="#63b8ff" d="M440.59,-186.92C441.88,-170.04 445.98,-141.48 459,-121 484.28,-81.22 498.69,-73.58 542,-55 593.2,-33.04 757.98,-18.3 828.49,-12.85"/>
<polygon fill="#63b8ff" stroke="#63b8ff" points="828.87,-16.33 838.58,-12.09 828.34,-9.35 828.87,-16.33"/>
</a>
</g>
</g>
<!-- Node11&#45;&gt;Node8 -->
<g id="edge13_Node000011_Node000008" class="edge">
<title>Node11&#45;&gt;Node8</title>
<g id="a_edge13_Node000011_Node000008"><a xlink:title=" ">
<path fill="none" stroke="#63b8ff" d="M424.75,-186.84C398.42,-162.39 344.61,-112.42 317.07,-86.85"/>
<polygon fill="#63b8ff" stroke="#63b8ff" points="319.13,-83.99 309.42,-79.75 314.37,-89.12 319.13,-83.99"/>
</a>
</g>
</g>
<!-- Node11&#45;&gt;Node10 -->
<g id="edge11_Node000011_Node000010" class="edge">
<title>Node11&#45;&gt;Node10</title>
<g id="a_edge11_Node000011_Node000010"><a xlink:title=" ">
<path fill="none" stroke="#63b8ff" d="M434.9,-186.78C431.63,-176.89 427.69,-163.32 426,-151 420.19,-108.73 419.52,-97.17 426,-55 427.35,-46.19 430.13,-36.74 432.85,-28.82"/>
<polygon fill="#63b8ff" stroke="#63b8ff" points="436.23,-29.77 436.4,-19.18 429.66,-27.35 436.23,-29.77"/>
</a>
</g>
</g>
<!-- Node12 -->
<g id="Node000012" class="node">
<title>Node12</title>
<g id="a_Node000012"><a xlink:href="input__validator_8hpp.html" target="_top" xlink:title=" ">
<polygon fill="white" stroke="#666666" points="770,-151 674,-151 674,-121 770,-121 770,-151"/>
<text text-anchor="start" x="682" y="-139" font-family="Helvetica,sans-Serif" font-size="10.00">unilink/util/input</text>
<text text-anchor="middle" x="722" y="-128" font-family="Helvetica,sans-Serif" font-size="10.00">_validator.hpp</text>
</a>
</g>
</g>
<!-- Node11&#45;&gt;Node12 -->
<g id="edge14_Node000011_Node000012" class="edge">
<title>Node11&#45;&gt;Node12</title>
<g id="a_edge14_Node000011_Node000012"><a xlink:title=" ">
<path fill="none" stroke="#63b8ff" d="M492.05,-189.19C540.69,-178.15 613.2,-161.69 663.75,-150.22"/>
<polygon fill="#63b8ff" stroke="#63b8ff" points="664.57,-153.62 673.55,-148 663.02,-146.8 664.57,-153.62"/>
</a>
</g>
</g>
<!-- Node12&#45;&gt;Node5 -->
<g id="edge23_Node000012_Node000005" class="edge">
<title>Node12&#45;&gt;Node5</title>
<g id="a_edge23_Node000012_Node000005"><a xlink:title=" ">
<path fill="none" stroke="#63b8ff" d="M760.53,-120.96C809.73,-103.48 897.75,-73.63 975,-55 1037.72,-39.88 1110.04,-28.07 1163.11,-20.43"/>
<polygon fill="#63b8ff" stroke="#63b8ff" points="1163.71,-23.88 1173.12,-19.01 1162.73,-16.95 1163.71,-23.88"/>
</a>
</g>
</g>
<!-- Node12&#45;&gt;Node7 -->
<g id="edge19_Node000012_Node000007" class="edge">
<title>Node12&#45;&gt;Node7</title>
<g id="a_edge19_Node000012_Node000007"><a xlink:title=" ">
<path fill="none" stroke="#63b8ff" d="M740.89,-120.84C753.62,-111.09 770.66,-97.66 785,-85 806.94,-65.63 830.82,-41.71 845.85,-26.29"/>
<polygon fill="#63b8ff" stroke="#63b8ff" points="848.4,-28.68 852.84,-19.06 843.37,-23.81 848.4,-28.68"/>
</a>
</g>
</g>
<!-- Node12&#45;&gt;Node8 -->
<g id="edge22_Node000012_Node000008" class="edge">
<title>Node12&#45;&gt;Node8</title>
<g id="a_edge22_Node000012_Node000008"><a xlink:title=" ">
<path fill="none" stroke="#63b8ff" d="M673.59,-127.66C597.97,-116.19 451.65,-94 366.29,-81.05"/>
<polygon fill="#63b8ff" stroke="#63b8ff" points="366.6,-77.56 356.19,-79.52 365.55,-84.48 366.6,-77.56"/>
</a>
</g>
</g>
<!-- Node12&#45;&gt;Node10 -->
<g id="edge17_Node000012_Node000010" class="edge">
<title>Node12&#45;&gt;Node10</title>
<g id="a_edge17_Node000012_Node000010"><a xlink:title=" ">
<path fill="none" stroke="#63b8ff" d="M673.84,-121.16C644.48,-112.13 606.49,-99.38 574,-85 533.24,-66.97 488.48,-40.65 462.38,-24.6"/>
<polygon fill="#63b8ff" stroke="#63b8ff" points="464,-21.49 453.65,-19.19 460.31,-27.44 464,-21.49"/>
</a>
</g>
</g>
<!-- Node13 -->
<g id="Node000013" class="node">
<title>Node13</title>
<g id="a_Node000013"><a xlink:title=" ">
<polygon fill="#e0e0e0" stroke="#999999" points="776,-79.5 712,-79.5 712,-60.5 776,-60.5 776,-79.5"/>
<text text-anchor="middle" x="744" y="-67.5" font-family="Helvetica,sans-Serif" font-size="10.00">algorithm</text>
</a>
</g>
</g>
<!-- Node12&#45;&gt;Node13 -->
<g id="edge15_Node000012_Node000013" class="edge">
<title>Node12&#45;&gt;Node13</title>
<g id="a_edge15_Node000012_Node000013"><a xlink:title=" ">
<path fill="none" stroke="#63b8ff" d="M726.88,-120.8C730.04,-111.6 734.19,-99.53 737.61,-89.58"/>
<polygon fill="#63b8ff" stroke="#63b8ff" points="741.02,-90.44 740.96,-79.84 734.4,-88.16 741.02,-90.44"/>
</a>
</g>
</g>
<!-- Node14 -->
<g id="Node000014" class="node">
<title>Node14</title>
<g id="a_Node000014"><a xlink:title=" ">
<polygon fill="#e0e0e0" stroke="#999999" points="631.5,-79.5 582.5,-79.5 582.5,-60.5 631.5,-60.5 631.5,-79.5"/>
<text text-anchor="middle" x="607" y="-67.5" font-family="Helvetica,sans-Serif" font-size="10.00">cctype</text>
</a>
</g>
</g>
<!-- Node12&#45;&gt;Node14 -->
<g id="edge16_Node000012_Node000014" class="edge">
<title>Node12&#45;&gt;Node14</title>
<g id="a_edge16_Node000012_Node000014"><a xlink:title=" ">
<path fill="none" stroke="#63b8ff" d="M696.76,-120.95C677.22,-110.08 650.32,-95.11 631.07,-84.4"/>
<polygon fill="#63b8ff" stroke="#63b8ff" points="632.74,-81.32 622.3,-79.52 629.34,-87.44 632.74,-81.32"/>
</a>
</g>
</g>
<!-- Node15 -->
<g id="Node000015" class="node">
<title>Node15</title>
<g id="a_Node000015"><a xlink:title=" ">
<polygon fill="#e0e0e0" stroke="#999999" points="694,-79.5 650,-79.5 650,-60.5 694,-60.5 694,-79.5"/>
<text text-anchor="middle" x="672" y="-67.5" font-family="Helvetica,sans-Serif" font-size="10.00">regex</text>
</a>
</g>
</g>
<!-- Node12&#45;&gt;Node15 -->
<g id="edge18_Node000012_Node000015" class="edge">
<title>Node12&#45;&gt;Node15</title>
<g id="a_edge18_Node000012_Node000015"><a xlink:title=" ">
<path fill="none" stroke="#63b8ff" d="M710.9,-120.8C703.34,-111.11 693.28,-98.24 685.29,-88.01"/>
<polygon fill="#63b8ff" stroke="#63b8ff" points="687.82,-85.57 678.91,-79.84 682.31,-89.88 687.82,-85.57"/>
</a>
</g>
</g>
<!-- Node16 -->
<g id="Node000016" class="node">
<title>Node16</title>
<g id="a_Node000016"><a xlink:title=" ">
<polygon fill="#e0e0e0" stroke="#999999" points="1672.5,-19 1599.5,-19 1599.5,0 1672.5,0 1672.5,-19"/>
<text text-anchor="middle" x="1636" y="-7" font-family="Helvetica,sans-Serif" font-size="10.00">string_view</text>
</a>
</g>
</g>
<!-- Node12&#45;&gt;Node16 -->
<g id="edge20_Node000012_Node000016" class="edge">
<title>Node12&#45;&gt;Node16</title>
<g id="a_edge20_Node000012_Node000016"><a xlink:title=" ">
<path fill="none" stroke="#63b8ff" d="M770.04,-134.06C913.82,-130.9 1339.03,-118.86 1473,-85 1525.76,-71.66 1582.52,-41.77 1613.18,-24.18"/>
<polygon fill="#63b8ff" stroke="#63b8ff" points="1614.94,-27.2 1621.82,-19.14 1611.42,-21.15 1614.94,-27.2"/>
</a>
</g>
</g>
<!-- Node17 -->
<g id="Node000017" class="node">
<title>Node17</title>
<g id="a_Node000017"><a xlink:title=" ">
<polygon fill="#e0e0e0" stroke="#999999" points="1985.5,-19 1938.5,-19 1938.5,0 1985.5,0 1985.5,-19"/>
<text text-anchor="middle" x="1962" y="-7" font-family="Helvetica,sans-Serif" font-size="10.00">vector</text>
</a>
</g>
</g>
<!-- Node12&#45;&gt;Node17 -->
<g id="edge21_Node000012_Node000017" class="edge">
<title>Node12&#45;&gt;Node17</title>
<g id="a_edge21_Node000012_Node000017"><a xlink:title=" ">
<path fill="none" stroke="#63b8ff" d="M770.29,-134.65C973.65,-132.95 1754.48,-123.9 1857,-85 1876.79,-77.49 1876.9,-67.48 1894,-55 1908.72,-44.26 1925.9,-33.02 1939.31,-24.53"/>
<polygon fill="#63b8ff" stroke="#63b8ff" points="1941.31,-27.41 1947.92,-19.13 1937.58,-21.48 1941.31,-27.41"/>
</a>
</g>
</g>
<!-- Node18 -->
<g id="Node000018" class="node">
<title>Node18</title>
<g id="a_Node000018"><a xlink:href="exceptions_8hpp.html" target="_top" xlink:title=" ">
<polygon fill="white" stroke="#666666" points="1252,-85 1144,-85 1144,-55 1252,-55 1252,-85"/>
<text text-anchor="start" x="1152" y="-73" font-family="Helvetica,sans-Serif" font-size="10.00">unilink/diagnostics</text>
<text text-anchor="middle" x="1198" y="-62" font-family="Helvetica,sans-Serif" font-size="10.00">/exceptions.hpp</text>
</a>
</g>
</g>
<!-- Node12&#45;&gt;Node18 -->
<g id="edge24_Node000012_Node000018" class="edge">
<title>Node12&#45;&gt;Node18</title>
<g id="a_edge24_Node000012_Node000018"><a xlink:title=" ">
<path fill="none" stroke="#63b8ff" d="M770.23,-130.71C845.73,-123.66 996.55,-108.2 1133.91,-85.08"/>
<polygon fill="#63b8ff" stroke="#63b8ff" points="1134.5,-88.53 1143.77,-83.41 1133.33,-81.63 1134.5,-88.53"/>
</a>
</g>
</g>
<!-- Node18&#45;&gt;Node5 -->
<g id="edge27_Node000018_Node000005" class="edge">
<title>Node18&#45;&gt;Node5</title>
<g id="a_edge27_Node000018_Node000005"><a xlink:title=" ">
<path fill="none" stroke="#63b8ff" d="M1207.92,-54.84C1213.69,-46.61 1221,-36.18 1227.08,-27.51"/>
<polygon fill="#63b8ff" stroke="#63b8ff" points="1229.98,-29.46 1232.86,-19.27 1224.25,-25.45 1229.98,-29.46"/>
</a>
</g>
</g>
<!-- Node18&#45;&gt;Node7 -->
<g id="edge26_Node000018_Node000007" class="edge">
<title>Node18&#45;&gt;Node7</title>
<g id="a_edge26_Node000018_Node000007"><a xlink:title=" ">
<path fill="none" stroke="#63b8ff" d="M1143.75,-56.74C1140.79,-56.13 1137.86,-55.55 1135,-55 1047.96,-38.27 944.56,-22.61 893.23,-15.12"/>
<polygon fill="#63b8ff" stroke="#63b8ff" points="893.5,-11.62 883.1,-13.65 892.49,-18.55 893.5,-11.62"/>
</a>
</g>
</g>
<!-- Node19 -->
<g id="Node000019" class="node">
<title>Node19</title>
<g id="a_Node000019"><a xlink:title=" ">
<polygon fill="#e0e0e0" stroke="#999999" points="1415.5,-19 1350.5,-19 1350.5,0 1415.5,0 1415.5,-19"/>
<text text-anchor="middle" x="1383" y="-7" font-family="Helvetica,sans-Serif" font-size="10.00">stdexcept</text>
</a>
</g>
</g>
<!-- Node18&#45;&gt;Node19 -->
<g id="edge25_Node000018_Node000019" class="edge">
<title>Node18&#45;&gt;Node19</title>
<g id="a_edge25_Node000018_Node000019"><a xlink:title=" ">
<path fill="none" stroke="#63b8ff" d="M1242.31,-54.99C1274.1,-44.94 1316.42,-31.55 1346.32,-22.1"/>
<polygon fill="#63b8ff" stroke="#63b8ff" points="1347.47,-25.41 1355.95,-19.05 1345.36,-18.73 1347.47,-25.41"/>
</a>
</g>
</g>
<!-- Node20&#45;&gt;Node7 -->
<g id="edge30_Node000020_Node000007" class="edge">
<title>Node20&#45;&gt;Node7</title>
<g id="a_edge30_Node000020_Node000007"><a xlink:title=" ">
<path fill="none" stroke="#63b8ff" d="M287.62,-186.91C250.11,-159.36 177.47,-97.36 217,-55 238.08,-32.41 700.92,-15.71 828.62,-11.52"/>
<polygon fill="#63b8ff" stroke="#63b8ff" points="829.03,-15.01 838.92,-11.19 828.81,-8.02 829.03,-15.01"/>
</a>
</g>
</g>
<!-- Node20&#45;&gt;Node8 -->
<g id="edge31_Node000020_Node000008" class="edge">
<title>Node20&#45;&gt;Node8</title>
<g id="a_edge31_Node000020_Node000008"><a xlink:title=" ">
<path fill="none" stroke="#63b8ff" d="M307.13,-186.84C305.68,-163.34 302.79,-116.26 301.16,-89.93"/>
<polygon fill="#63b8ff" stroke="#63b8ff" points="304.65,-89.51 300.54,-79.75 297.66,-89.94 304.65,-89.51"/>
</a>
</g>
</g>
<!-- Node20&#45;&gt;Node10 -->
<g id="edge29_Node000020_Node000010" class="edge">
<title>Node20&#45;&gt;Node10</title>
<g id="a_edge29_Node000020_Node000010"><a xlink:title=" ">
<path fill="none" stroke="#63b8ff" d="M257.63,-186.96C227.28,-177.38 192.83,-164.08 184,-151 160.13,-115.64 156.53,-87.65 184,-55 198.09,-38.25 338,-21.31 404.82,-14.11"/>
<polygon fill="#63b8ff" stroke="#63b8ff" points="405.32,-17.57 414.89,-13.04 404.58,-10.61 405.32,-17.57"/>
</a>
</g>
</g>
<!-- Node20&#45;&gt;Node12 -->
<g id="edge32_Node000020_Node000012" class="edge">
<title>Node20&#45;&gt;Node12</title>
<g id="a_edge32_Node000020_Node000012"><a xlink:title=" ">
<path fill="none" stroke="#63b8ff" d="M362.22,-190.02C367.88,-188.96 373.55,-187.93 379,-187 478.72,-169.91 595.39,-153.7 663.74,-144.59"/>
<polygon fill="#63b8ff" stroke="#63b8ff" points="664.43,-148.03 673.88,-143.24 663.51,-141.09 664.43,-148.03"/>
</a>
</g>
</g>
<!-- Node21&#45;&gt;Node7 -->
<g id="edge36_Node000021_Node000007" class="edge">
<title>Node21&#45;&gt;Node7</title>
<g id="a_edge36_Node000021_Node000007"><a xlink:title=" ">
<path fill="none" stroke="#63b8ff" d="M76.69,-120.91C98.8,-102.03 141.22,-69.23 184,-55 305.8,-14.48 710.9,-10.7 828.64,-10.47"/>
<polygon fill="#63b8ff" stroke="#63b8ff" points="828.82,-13.97 838.81,-10.46 828.81,-6.97 828.82,-13.97"/>
</a>
</g>
</g>
<!-- Node21&#45;&gt;Node8 -->
<g id="edge37_Node000021_Node000008" class="edge">
<title>Node21&#45;&gt;Node8</title>
<g id="a_edge37_Node000021_Node000008"><a xlink:title=" ">
<path fill="none" stroke="#63b8ff" d="M112.57,-121.19C156.08,-109.54 217.6,-93.07 258.12,-82.21"/>
<polygon fill="#63b8ff" stroke="#63b8ff" points="259.2,-85.55 267.95,-79.58 257.38,-78.79 259.2,-85.55"/>
</a>
</g>
</g>
<!-- Node21&#45;&gt;Node10 -->
<g id="edge34_Node000021_Node000010" class="edge">
<title>Node21&#45;&gt;Node10</title>
<g id="a_edge34_Node000021_Node000010"><a xlink:title=" ">
<path fill="none" stroke="#63b8ff" d="M65.09,-120.73C71.18,-102.26 84.52,-70.6 108,-55 132.42,-38.77 324.45,-20.49 404.82,-13.47"/>
<polygon fill="#63b8ff" stroke="#63b8ff" points="405.28,-16.94 414.94,-12.59 404.68,-9.97 405.28,-16.94"/>
</a>
</g>
</g>
<!-- Node22 -->
<g id="Node000022" class="node">
<title>Node22</title>
<g id="a_Node000022"><a xlink:title=" ">
<polygon fill="#e0e0e0" stroke="#999999" points="56,-79.5 0,-79.5 0,-60.5 56,-60.5 56,-79.5"/>
<text text-anchor="middle" x="28" y="-67.5" font-family="Helvetica,sans-Serif" font-size="10.00">optional</text>
</a>
</g>
</g>
<!-- Node21&#45;&gt;Node22 -->
<g id="edge35_Node000021_Node000022" class="edge">
<title>Node21&#45;&gt;Node22</title>
<g id="a_edge35_Node000021_Node000022"><a xlink:title=" ">
<path fill="none" stroke="#63b8ff" d="M53.68,-120.8C48.83,-111.41 42.45,-99.02 37.25,-88.95"/>
<polygon fill="#63b8ff" stroke="#63b8ff" points="40.25,-87.13 32.56,-79.84 34.03,-90.34 40.25,-87.13"/>
</a>
</g>
</g>
<!-- Node23&#45;&gt;Node7 -->
<g id="edge40_Node000023_Node000007" class="edge">
<title>Node23&#45;&gt;Node7</title>
<g id="a_edge40_Node000023_Node000007"><a xlink:title=" ">
<path fill="none" stroke="#63b8ff" d="M697.3,-190.47C723.95,-182.98 755.72,-170.65 779,-151 819.17,-117.09 844.28,-58.21 854.99,-28.6"/>
<polygon fill="#63b8ff" stroke="#63b8ff" points="858.31,-29.71 858.28,-19.12 851.7,-27.42 858.31,-29.71"/>
</a>
</g>
</g>
<!-- Node23&#45;&gt;Node8 -->
<g id="edge41_Node000023_Node000008" class="edge">
<title>Node23&#45;&gt;Node8</title>
<g id="a_edge41_Node000023_Node000008"><a xlink:title=" ">
<path fill="none" stroke="#63b8ff" d="M640.08,-186.81C631.62,-168.44 614.26,-136.89 589,-121 555.61,-99.99 456.75,-86.1 383.91,-78.4"/>
<polygon fill="#63b8ff" stroke="#63b8ff" points="384.13,-74.9 373.82,-77.36 383.41,-81.87 384.13,-74.9"/>
</a>
</g>
</g>
<!-- Node23&#45;&gt;Node10 -->
<g id="edge39_Node000023_Node000010" class="edge">
<title>Node23&#45;&gt;Node10</title>
<g id="a_edge39_Node000023_Node000010"><a xlink:title=" ">
<path fill="none" stroke="#63b8ff" d="M644.77,-186.88C642.5,-169.17 636.06,-138.94 618,-121 583.01,-86.23 554.72,-111.33 513,-85 488.45,-69.51 466.02,-44.2 452.68,-27.45"/>
<polygon fill="#63b8ff" stroke="#63b8ff" points="455.14,-24.91 446.25,-19.14 449.6,-29.19 455.14,-24.91"/>
</a>
</g>
</g>
<!-- Node23&#45;&gt;Node12 -->
<g id="edge42_Node000023_Node000012" class="edge">
<title>Node23&#45;&gt;Node12</title>
<g id="a_edge42_Node000023_Node000012"><a xlink:title=" ">
<path fill="none" stroke="#63b8ff" d="M662.87,-186.8C673,-178.26 686.08,-167.25 697.35,-157.75"/>
<polygon fill="#63b8ff" stroke="#63b8ff" points="699.79,-160.28 705.18,-151.16 695.28,-154.93 699.79,-160.28"/>
</a>
</g>
</g>
<!-- Node24&#45;&gt;Node3 -->
<g id="edge46_Node000024_Node000003" class="edge">
<title>Node24&#45;&gt;Node3</title>
<g id="a_edge46_Node000024_Node000003"><a xlink:title=" ">
<path fill="none" stroke="#63b8ff" d="M1633.13,-192.32C1620.13,-163.19 1577.88,-68.5 1560.05,-28.54"/>
<polygon fill="#63b8ff" stroke="#63b8ff" points="1563.17,-26.94 1555.9,-19.23 1556.77,-29.79 1563.17,-26.94"/>
</a>
</g>
</g>
<!-- Node24&#45;&gt;Node5 -->
<g id="edge75_Node000024_Node000005" class="edge">
<title>Node24&#45;&gt;Node5</title>
<g id="a_edge75_Node000024_Node000005"><a xlink:title=" ">
<path fill="none" stroke="#63b8ff" d="M1605.8,-192.39C1549.68,-176.16 1428.98,-137.88 1337,-85 1320.83,-75.7 1281.14,-44.45 1257.53,-25.5"/>
<polygon fill="#63b8ff" stroke="#63b8ff" points="1259.62,-22.68 1249.63,-19.14 1255.23,-28.14 1259.62,-22.68"/>
</a>
</g>
</g>
<!-- Node24&#45;&gt;Node17 -->
<g id="edge47_Node000024_Node000017" class="edge">
<title>Node24&#45;&gt;Node17</title>
<g id="a_edge47_Node000024_Node000017"><a xlink:title=" ">
<path fill="none" stroke="#63b8ff" d="M1690.09,-192.49C1850.22,-166.74 2317.83,-91.12 2323,-85 2331.6,-74.81 2331.83,-64.99 2323,-55 2301.49,-30.67 2081.47,-16.71 1995.84,-12.16"/>
<polygon fill="#63b8ff" stroke="#63b8ff" points="1995.78,-8.65 1985.62,-11.63 1995.42,-15.64 1995.78,-8.65"/>
</a>
</g>
</g>
<!-- Node25 -->
<g id="Node000025" class="node">
<title>Node25</title>
<g id="a_Node000025"><a xlink:title=" ">
<polygon fill="#e0e0e0" stroke="#999999" points="2616,-145.5 2446,-145.5 2446,-126.5 2616,-126.5 2616,-145.5"/>
<text text-anchor="middle" x="2531" y="-133.5" font-family="Helvetica,sans-Serif" font-size="10.00">boost/asio/any_io_executor.hpp</text>
</a>
</g>
</g>
<!-- Node24&#45;&gt;Node25 -->
<g id="edge44_Node000024_Node000025" class="edge">
<title>Node24&#45;&gt;Node25</title>
<g id="a_edge44_Node000024_Node000025"><a xlink:title=" ">
<path fill="none" stroke="#63b8ff" d="M1684.83,-192.44C1697.83,-190.37 1711.92,-188.37 1725,-187 2037.92,-154.24 2118.81,-181.06 2432,-151 2443.36,-149.91 2455.41,-148.46 2467.06,-146.9"/>
<polygon fill="#63b8ff" stroke="#63b8ff" points="2467.73,-150.34 2477.15,-145.51 2466.77,-143.4 2467.73,-150.34"/>
</a>
</g>
</g>
<!-- Node26 -->
<g id="Node000026" class="node">
<title>Node26</title>
<g id="a_Node000026"><a xlink:title=" ">
<polygon fill="#e0e0e0" stroke="#999999" points="2374.5,-19 2309.5,-19 2309.5,0 2374.5,0 2374.5,-19"/>
<text text-anchor="middle" x="2342" y="-7" font-family="Helvetica,sans-Serif" font-size="10.00">functional</text>
</a>
</g>
</g>
<!-- Node24&#45;&gt;Node26 -->
<g id="edge45_Node000024_Node000026" class="edge">
<title>Node24&#45;&gt;Node26</title>
<g id="a_edge45_Node000024_Node000026"><a xlink:title=" ">
<path fill="none" stroke="#63b8ff" d="M1688.13,-192.45C1700.2,-190.55 1713.04,-188.62 1725,-187 1862.28,-168.44 2252.07,-192.05 2340,-85 2352.68,-69.57 2350.79,-45.65 2347.3,-29.1"/>
<polygon fill="#63b8ff" stroke="#63b8ff" points="2350.6,-27.87 2344.78,-19.01 2343.81,-29.56 2350.6,-27.87"/>
</a>
</g>
</g>
<!-- Node27 -->
<g id="Node000027" class="node">
<title>Node27</title>
<g id="a_Node000027"><a xlink:href="common_8hpp.html" target="_top" xlink:title=" ">
<polygon fill="white" stroke="#666666" points="1925.5,-145.5 1782.5,-145.5 1782.5,-126.5 1925.5,-126.5 1925.5,-145.5"/>
<text text-anchor="middle" x="1854" y="-133.5" font-family="Helvetica,sans-Serif" font-size="10.00">unilink/base/common.hpp</text>
</a>
</g>
</g>
<!-- Node24&#45;&gt;Node27 -->
<g id="edge48_Node000024_Node000027" class="edge">
<title>Node24&#45;&gt;Node27</title>
<g id="a_edge48_Node000024_Node000027"><a xlink:title=" ">
<path fill="none" stroke="#63b8ff" d="M1666.27,-192.37C1704.71,-181.03 1772.35,-161.08 1815.08,-148.48"/>
<polygon fill="#63b8ff" stroke="#63b8ff" points="1816.25,-151.78 1824.85,-145.6 1814.27,-145.07 1816.25,-151.78"/>
</a>
</g>
</g>
<!-- Node39 -->
<g id="Node000039" class="node">
<title>Node39</title>
<g id="a_Node000039"><a xlink:href="safe__span_8hpp.html" target="_top" xlink:title=" ">
<polygon fill="white" stroke="#666666" points="1464,-85 1346,-85 1346,-55 1464,-55 1464,-85"/>
<text text-anchor="start" x="1354" y="-73" font-family="Helvetica,sans-Serif" font-size="10.00">unilink/memory/safe</text>
<text text-anchor="middle" x="1405" y="-62" font-family="Helvetica,sans-Serif" font-size="10.00">_span.hpp</text>
</a>
</g>
</g>
<!-- Node24&#45;&gt;Node39 -->
<g id="edge76_Node000024_Node000039" class="edge">
<title>Node24&#45;&gt;Node39</title>
<g id="a_edge76_Node000024_Node000039"><a xlink:title=" ">
<path fill="none" stroke="#63b8ff" d="M1621.78,-192.47C1584.96,-171.84 1490.34,-118.82 1439.14,-90.13"/>
<polygon fill="#63b8ff" stroke="#63b8ff" points="1440.54,-86.9 1430.1,-85.07 1437.12,-93.01 1440.54,-86.9"/>
</a>
</g>
</g>
<!-- Node27&#45;&gt;Node7 -->
<g id="edge58_Node000027_Node000007" class="edge">
<title>Node27&#45;&gt;Node7</title>
<g id="a_edge58_Node000027_Node000007"><a xlink:title=" ">
<path fill="none" stroke="#63b8ff" d="M1782.3,-135.66C1600.27,-136.58 1124.19,-134.08 975,-85 936.9,-72.47 899.24,-43.83 878.16,-25.94"/>
<polygon fill="#63b8ff" stroke="#63b8ff" points="880.28,-23.14 870.44,-19.22 875.69,-28.43 880.28,-23.14"/>
</a>
</g>
</g>
<!-- Node27&#45;&gt;Node10 -->
<g id="edge50_Node000027_Node000010" class="edge">
<title>Node27&#45;&gt;Node10</title>
<g id="a_edge50_Node000027_Node000010"><a xlink:title=" ">
<path fill="none" stroke="#63b8ff" d="M1782.24,-135.46C1624.42,-135.53 1235.59,-130.59 914,-85 855.72,-76.74 842.93,-65.44 785,-55 672.63,-34.74 538.07,-20.13 475.38,-13.88"/>
<polygon fill="#63b8ff" stroke="#63b8ff" points="475.54,-10.38 465.24,-12.88 474.85,-17.35 475.54,-10.38"/>
</a>
</g>
</g>
<!-- Node27&#45;&gt;Node16 -->
<g id="edge59_Node000027_Node000016" class="edge">
<title>Node27&#45;&gt;Node16</title>
<g id="a_edge59_Node000027_Node000016"><a xlink:title=" ">
<path fill="none" stroke="#63b8ff" d="M1782.34,-132.12C1742.79,-126.97 1695.29,-114.45 1663,-85 1647.31,-70.69 1640.73,-46.54 1637.97,-29.63"/>
<polygon fill="#63b8ff" stroke="#63b8ff" points="1641.38,-28.75 1636.61,-19.29 1634.44,-29.66 1641.38,-28.75"/>
</a>
</g>
</g>
<!-- Node27&#45;&gt;Node17 -->
<g id="edge61_Node000027_Node000017" class="edge">
<title>Node27&#45;&gt;Node17</title>
<g id="a_edge61_Node000027_Node000017"><a xlink:title=" ">
<path fill="none" stroke="#63b8ff" d="M1861.42,-126.44C1879.23,-105.92 1924.59,-53.62 1947.82,-26.84"/>
<polygon fill="#63b8ff" stroke="#63b8ff" points="1950.62,-28.96 1954.52,-19.12 1945.33,-24.38 1950.62,-28.96"/>
</a>
</g>
</g>
<!-- Node27&#45;&gt;Node19 -->
<g id="edge57_Node000027_Node000019" class="edge">
<title>Node27&#45;&gt;Node19</title>
<g id="a_edge57_Node000027_Node000019"><a xlink:title=" ">
<path fill="none" stroke="#63b8ff" d="M1814.8,-126.49C1771.77,-117 1700.72,-100.88 1640,-85 1561.37,-64.43 1470.19,-37.18 1420.33,-21.99"/>
<polygon fill="#63b8ff" stroke="#63b8ff" points="1421.22,-18.6 1410.63,-19.03 1419.17,-25.3 1421.22,-18.6"/>
</a>
</g>
</g>
<!-- Node27&#45;&gt;Node26 -->
<g id="edge53_Node000027_Node000026" class="edge">
<title>Node27&#45;&gt;Node26</title>
<g id="a_edge53_Node000027_Node000026"><a xlink:title=" ">
<path fill="none" stroke="#63b8ff" d="M1925.58,-131.82C2049.49,-125.67 2293.6,-110.46 2323,-85 2338.81,-71.31 2342.38,-46.47 2342.78,-29.26"/>
<polygon fill="#63b8ff" stroke="#63b8ff" points="2346.28,-29.21 2342.67,-19.24 2339.28,-29.28 2346.28,-29.21"/>
</a>
</g>
</g>
<!-- Node28 -->
<g id="Node000028" class="node">
<title>Node28</title>
<g id="a_Node000028"><a xlink:title=" ">
<polygon fill="#e0e0e0" stroke="#999999" points="1920,-19 1870,-19 1870,0 1920,0 1920,-19"/>
<text text-anchor="middle" x="1895" y="-7" font-family="Helvetica,sans-Serif" font-size="10.00">chrono</text>
</a>
</g>
</g>
<!-- Node27&#45;&gt;Node28 -->
<g id="edge49_Node000027_Node000028" class="edge">
<title>Node27&#45;&gt;Node28</title>
<g id="a_edge49_Node000027_Node000028"><a xlink:title=" ">
<path fill="none" stroke="#63b8ff" d="M1856.82,-126.44C1863.43,-106.36 1880.06,-55.87 1889.03,-28.62"/>
<polygon fill="#63b8ff" stroke="#63b8ff" points="1892.36,-29.71 1892.16,-19.12 1885.71,-27.52 1892.36,-29.71"/>
</a>
</g>
</g>
<!-- Node29 -->
<g id="Node000029" class="node">
<title>Node29</title>
<g id="a_Node000029"><a xlink:title=" ">
<polygon fill="#e0e0e0" stroke="#999999" points="1722,-79.5 1672,-79.5 1672,-60.5 1722,-60.5 1722,-79.5"/>
<text text-anchor="middle" x="1697" y="-67.5" font-family="Helvetica,sans-Serif" font-size="10.00">cstring</text>
</a>
</g>
</g>
<!-- Node27&#45;&gt;Node29 -->
<g id="edge51_Node000027_Node000029" class="edge">
<title>Node27&#45;&gt;Node29</title>
<g id="a_edge51_Node000027_Node000029"><a xlink:title=" ">
<path fill="none" stroke="#63b8ff" d="M1832.66,-126.36C1808.12,-116.41 1766.63,-99.58 1731,-85 1729.8,-84.51 1728.58,-84.01 1727.35,-83.51"/>
<polygon fill="#63b8ff" stroke="#63b8ff" points="1728.43,-80.17 1717.85,-79.6 1725.77,-86.64 1728.43,-80.17"/>
</a>
</g>
</g>
<!-- Node30 -->
<g id="Node000030" class="node">
<title>Node30</title>
<g id="a_Node000030"><a xlink:title=" ">
<polygon fill="#e0e0e0" stroke="#999999" points="2024,-79.5 1980,-79.5 1980,-60.5 2024,-60.5 2024,-79.5"/>
<text text-anchor="middle" x="2002" y="-67.5" font-family="Helvetica,sans-Serif" font-size="10.00">ctime</text>
</a>
</g>
</g>
<!-- Node27&#45;&gt;Node30 -->
<g id="edge52_Node000027_Node000030" class="edge">
<title>Node27&#45;&gt;Node30</title>
<g id="a_edge52_Node000027_Node000030"><a xlink:title=" ">
<path fill="none" stroke="#63b8ff" d="M1873.96,-126.37C1899.34,-115.39 1943.36,-96.36 1972.59,-83.72"/>
<polygon fill="#63b8ff" stroke="#63b8ff" points="1974.09,-86.88 1981.88,-79.7 1971.32,-80.46 1974.09,-86.88"/>
</a>
</g>
</g>
<!-- Node31 -->
<g id="Node000031" class="node">
<title>Node31</title>
<g id="a_Node000031"><a xlink:title=" ">
<polygon fill="#e0e0e0" stroke="#999999" points="2098,-79.5 2042,-79.5 2042,-60.5 2098,-60.5 2098,-79.5"/>
<text text-anchor="middle" x="2070" y="-67.5" font-family="Helvetica,sans-Serif" font-size="10.00">iomanip</text>
</a>
</g>
</g>
<!-- Node27&#45;&gt;Node31 -->
<g id="edge54_Node000027_Node000031" class="edge">
<title>Node27&#45;&gt;Node31</title>
<g id="a_edge54_Node000027_Node000031"><a xlink:title=" ">
<path fill="none" stroke="#63b8ff" d="M1887.92,-126.49C1924.12,-117.18 1983.03,-101.4 2033,-85 2034.86,-84.39 2036.76,-83.74 2038.68,-83.07"/>
<polygon fill="#63b8ff" stroke="#63b8ff" points="2040,-86.32 2048.2,-79.62 2037.61,-79.74 2040,-86.32"/>
</a>
</g>
</g>
<!-- Node32 -->
<g id="Node000032" class="node">
<title>Node32</title>
<g id="a_Node000032"><a xlink:title=" ">
<polygon fill="#e0e0e0" stroke="#999999" points="2176,-79.5 2116,-79.5 2116,-60.5 2176,-60.5 2176,-79.5"/>
<text text-anchor="middle" x="2146" y="-67.5" font-family="Helvetica,sans-Serif" font-size="10.00">iostream</text>
</a>
</g>
</g>
<!-- Node27&#45;&gt;Node32 -->
<g id="edge55_Node000027_Node000032" class="edge">
<title>Node27&#45;&gt;Node32</title>
<g id="a_edge55_Node000027_Node000032"><a xlink:title=" ">
<path fill="none" stroke="#63b8ff" d="M1909.83,-126.43C1961.47,-117.93 2040.11,-103.5 2107,-85 2109.43,-84.33 2111.92,-83.58 2114.41,-82.79"/>
<polygon fill="#63b8ff" stroke="#63b8ff" points="2115.56,-86.09 2123.91,-79.58 2113.32,-79.46 2115.56,-86.09"/>
</a>
</g>
</g>
<!-- Node33 -->
<g id="Node000033" class="node">
<title>Node33</title>
<g id="a_Node000033"><a xlink:title=" ">
<polygon fill="#e0e0e0" stroke="#999999" points="2250,-79.5 2194,-79.5 2194,-60.5 2250,-60.5 2250,-79.5"/>
<text text-anchor="middle" x="2222" y="-67.5" font-family="Helvetica,sans-Serif" font-size="10.00">sstream</text>
</a>
</g>
</g>
<!-- Node27&#45;&gt;Node33 -->
<g id="edge56_Node000027_Node000033" class="edge">
<title>Node27&#45;&gt;Node33</title>
<g id="a_edge56_Node000027_Node000033"><a xlink:title=" ">
<path fill="none" stroke="#63b8ff" d="M1925.59,-128.61C1993.23,-121.53 2097.15,-107.98 2185,-85 2187.3,-84.4 2189.65,-83.7 2192,-82.95"/>
<polygon fill="#63b8ff" stroke="#63b8ff" points="2193.22,-86.24 2201.51,-79.64 2190.91,-79.63 2193.22,-86.24"/>
</a>
</g>
</g>
<!-- Node34 -->
<g id="Node000034" class="node">
<title>Node34</title>
<g id="a_Node000034"><a xlink:title=" ">
<polygon fill="#e0e0e0" stroke="#999999" points="2313.5,-79.5 2268.5,-79.5 2268.5,-60.5 2313.5,-60.5 2313.5,-79.5"/>
<text text-anchor="middle" x="2291" y="-67.5" font-family="Helvetica,sans-Serif" font-size="10.00">utility</text>
</a>
</g>
</g>
<!-- Node27&#45;&gt;Node34 -->
<g id="edge60_Node000027_Node000034" class="edge">
<title>Node27&#45;&gt;Node34</title>
<g id="a_edge60_Node000027_Node000034"><a xlink:title=" ">
<path fill="none" stroke="#63b8ff" d="M1925.81,-132.4C2007.73,-128 2145.07,-116.24 2259,-85 2260.69,-84.54 2262.4,-84 2264.12,-83.41"/>
<polygon fill="#63b8ff" stroke="#63b8ff" points="2265.7,-86.55 2273.73,-79.64 2263.14,-80.04 2265.7,-86.55"/>
</a>
</g>
</g>
<!-- Node35 -->
<g id="Node000035" class="node">
<title>Node35</title>
<g id="a_Node000035"><a xlink:href="platform_8hpp.html" target="_top" xlink:title=" ">
<polygon fill="white" stroke="#666666" points="1126,-79.5 984,-79.5 984,-60.5 1126,-60.5 1126,-79.5"/>
<text text-anchor="middle" x="1055" y="-67.5" font-family="Helvetica,sans-Serif" font-size="10.00">unilink/base/platform.hpp</text>
</a>
</g>
</g>
<!-- Node27&#45;&gt;Node35 -->
<g id="edge62_Node000027_Node000035" class="edge">
<title>Node27&#45;&gt;Node35</title>
<g id="a_edge62_Node000027_Node000035"><a xlink:title=" ">
<path fill="none" stroke="#63b8ff" d="M1782.33,-132.48C1652.74,-127.38 1370.99,-113.78 1135,-85 1126.55,-83.97 1117.64,-82.65 1108.95,-81.23"/>
<polygon fill="#63b8ff" stroke="#63b8ff" points="1109.33,-77.74 1098.89,-79.53 1108.17,-84.64 1109.33,-77.74"/>
</a>
</g>
</g>
<!-- Node36 -->
<g id="Node000036" class="node">
<title>Node36</title>
<g id="a_Node000036"><a xlink:href="logger_8hpp.html" target="_top" xlink:title=" ">
<polygon fill="white" stroke="#666666" points="1848,-85 1740,-85 1740,-55 1848,-55 1848,-85"/>
<text text-anchor="start" x="1748" y="-73" font-family="Helvetica,sans-Serif" font-size="10.00">unilink/diagnostics</text>
<text text-anchor="middle" x="1794" y="-62" font-family="Helvetica,sans-Serif" font-size="10.00">/logger.hpp</text>
</a>
</g>
</g>
<!-- Node27&#45;&gt;Node36 -->
<g id="edge65_Node000027_Node000036" class="edge">
<title>Node27&#45;&gt;Node36</title>
<g id="a_edge65_Node000027_Node000036"><a xlink:title=" ">
<path fill="none" stroke="#63b8ff" d="M1845.91,-126.37C1837.9,-117.83 1825.32,-104.41 1814.55,-92.92"/>
<polygon fill="#63b8ff" stroke="#63b8ff" points="1816.86,-90.26 1807.46,-85.36 1811.75,-95.05 1816.86,-90.26"/>
</a>
</g>
</g>
<!-- Node35&#45;&gt;Node5 -->
<g id="edge64_Node000035_Node000005" class="edge">
<title>Node35&#45;&gt;Node5</title>
<g id="a_edge64_Node000035_Node000005"><a xlink:title=" ">
<path fill="none" stroke="#63b8ff" d="M1081.76,-60.49C1113.64,-50.36 1167.07,-33.37 1202.68,-22.05"/>
<polygon fill="#63b8ff" stroke="#63b8ff" points="1203.74,-25.38 1212.21,-19.02 1201.62,-18.71 1203.74,-25.38"/>
</a>
</g>
</g>
<!-- Node35&#45;&gt;Node7 -->
<g id="edge63_Node000035_Node000007" class="edge">
<title>Node35&#45;&gt;Node7</title>
<g id="a_edge63_Node000035_Node000007"><a xlink:title=" ">
<path fill="none" stroke="#63b8ff" d="M1026.79,-60.49C991.25,-49.78 930.32,-31.4 893.05,-20.17"/>
<polygon fill="#63b8ff" stroke="#63b8ff" points="893.8,-16.73 883.21,-17.2 891.78,-23.44 893.8,-16.73"/>
</a>
</g>
</g>
<!-- Node36&#45;&gt;Node3 -->
<g id="edge69_Node000036_Node000003" class="edge">
<title>Node36&#45;&gt;Node3</title>
<g id="a_edge69_Node000036_Node000003"><a xlink:title=" ">
<path fill="none" stroke="#63b8ff" d="M1739.99,-55.94C1694.79,-45.02 1631.37,-29.69 1590.98,-19.92"/>
<polygon fill="#63b8ff" stroke="#63b8ff" points="1591.78,-16.52 1581.24,-17.57 1590.13,-23.32 1591.78,-16.52"/>
</a>
</g>
</g>
<!-- Node36&#45;&gt;Node5 -->
<g id="edge74_Node000036_Node000005" class="edge">
<title>Node36&#45;&gt;Node5</title>
<g id="a_edge74_Node000036_Node000005"><a xlink:title=" ">
<path fill="none" stroke="#63b8ff" d="M1739.79,-56.49C1736.82,-55.95 1733.88,-55.45 1731,-55 1691.5,-48.85 1448.55,-28.05 1319.46,-17.21"/>
<polygon fill="#63b8ff" stroke="#63b8ff" points="1319.49,-13.7 1309.23,-16.35 1318.9,-20.67 1319.49,-13.7"/>
</a>
</g>
</g>
<!-- Node36&#45;&gt;Node7 -->
<g id="edge71_Node000036_Node000007" class="edge">
<title>Node36&#45;&gt;Node7</title>
<g id="a_edge71_Node000036_Node000007"><a xlink:title=" ">
<path fill="none" stroke="#63b8ff" d="M1739.81,-56.35C1736.84,-55.85 1733.89,-55.39 1731,-55 1564.29,-32.38 1030.28,-15.47 893.28,-11.43"/>
<polygon fill="#63b8ff" stroke="#63b8ff" points="893.13,-7.92 883.03,-11.13 892.93,-14.92 893.13,-7.92"/>
</a>
</g>
</g>
<!-- Node36&#45;&gt;Node16 -->
<g id="edge72_Node000036_Node000016" class="edge">
<title>Node36&#45;&gt;Node16</title>
<g id="a_edge72_Node000036_Node000016"><a xlink:title=" ">
<path fill="none" stroke="#63b8ff" d="M1756.16,-54.99C1729.56,-45.14 1694.33,-32.1 1668.9,-22.68"/>
<polygon fill="#63b8ff" stroke="#63b8ff" points="1669.93,-19.33 1659.33,-19.14 1667.5,-25.89 1669.93,-19.33"/>
</a>
</g>
</g>
<!-- Node36&#45;&gt;Node17 -->
<g id="edge73_Node000036_Node000017" class="edge">
<title>Node36&#45;&gt;Node17</title>
<g id="a_edge73_Node000036_Node000017"><a xlink:title=" ">
<path fill="none" stroke="#63b8ff" d="M1834.24,-54.99C1863.12,-44.93 1901.56,-31.54 1928.71,-22.09"/>
<polygon fill="#63b8ff" stroke="#63b8ff" points="1929.88,-25.39 1938.17,-18.8 1927.57,-18.78 1929.88,-25.39"/>
</a>
</g>
</g>
<!-- Node36&#45;&gt;Node26 -->
<g id="edge68_Node000036_Node000026" class="edge">
<title>Node36&#45;&gt;Node26</title>
<g id="a_edge68_Node000036_Node000026"><a xlink:title=" ">
<path fill="none" stroke="#63b8ff" d="M1848.04,-63.23C1956.82,-51.62 2200.19,-25.64 2299.04,-15.09"/>
<polygon fill="#63b8ff" stroke="#63b8ff" points="2299.68,-18.54 2309.25,-14 2298.94,-11.58 2299.68,-18.54"/>
</a>
</g>
</g>
<!-- Node36&#45;&gt;Node28 -->
<g id="edge67_Node000036_Node000028" class="edge">
<title>Node36&#45;&gt;Node28</title>
<g id="a_edge67_Node000036_Node000028"><a xlink:title=" ">
<path fill="none" stroke="#63b8ff" d="M1818.19,-54.99C1834.29,-45.66 1855.34,-33.47 1871.33,-24.21"/>
<polygon fill="#63b8ff" stroke="#63b8ff" points="1873.19,-27.18 1880.08,-19.14 1869.68,-21.12 1873.19,-27.18"/>
</a>
</g>
</g>
<!-- Node37 -->
<g id="Node000037" class="node">
<title>Node37</title>
<g id="a_Node000037"><a xlink:title=" ">
<polygon fill="#e0e0e0" stroke="#999999" points="1852,-19 1802,-19 1802,0 1852,0 1852,-19"/>
<text text-anchor="middle" x="1827" y="-7" font-family="Helvetica,sans-Serif" font-size="10.00">atomic</text>
</a>
</g>
</g>
<!-- Node36&#45;&gt;Node37 -->
<g id="edge66_Node000036_Node000037" class="edge">
<title>Node36&#45;&gt;Node37</title>
<g id="a_edge66_Node000036_Node000037"><a xlink:title=" ">
<path fill="none" stroke="#63b8ff" d="M1801.99,-54.84C1806.53,-46.78 1812.27,-36.62 1817.1,-28.06"/>
<polygon fill="#63b8ff" stroke="#63b8ff" points="1820.19,-29.7 1822.06,-19.27 1814.09,-26.26 1820.19,-29.7"/>
</a>
</g>
</g>
<!-- Node38 -->
<g id="Node000038" class="node">
<title>Node38</title>
<g id="a_Node000038"><a xlink:title=" ">
<polygon fill="#e0e0e0" stroke="#999999" points="1783.5,-19 1690.5,-19 1690.5,0 1783.5,0 1783.5,-19"/>
<text text-anchor="middle" x="1737" y="-7" font-family="Helvetica,sans-Serif" font-size="10.00">source_location</text>
</a>
</g>
</g>
<!-- Node36&#45;&gt;Node38 -->
<g id="edge70_Node000036_Node000038" class="edge">
<title>Node36&#45;&gt;Node38</title>
<g id="a_edge70_Node000036_Node000038"><a xlink:title=" ">
<path fill="none" stroke="#63b8ff" d="M1780.2,-54.84C1771.93,-46.35 1761.38,-35.52 1752.77,-26.69"/>
<polygon fill="#63b8ff" stroke="#63b8ff" points="1755.03,-23.99 1745.54,-19.27 1750.01,-28.87 1755.03,-23.99"/>
</a>
</g>
</g>
<!-- Node39&#45;&gt;Node10 -->
<g id="edge77_Node000039_Node000010" class="edge">
<title>Node39&#45;&gt;Node10</title>
<g id="a_edge77_Node000039_Node000010"><a xlink:title=" ">
<path fill="none" stroke="#63b8ff" d="M1345.85,-62.67C1319.84,-60.04 1288.93,-57.11 1261,-55 957.3,-32.02 589.53,-16.43 475.46,-11.88"/>
<polygon fill="#63b8ff" stroke="#63b8ff" points="475.35,-8.37 465.22,-11.47 475.07,-15.37 475.35,-8.37"/>
</a>
</g>
</g>
<!-- Node39&#45;&gt;Node19 -->
<g id="edge79_Node000039_Node000019" class="edge">
<title>Node39&#45;&gt;Node19</title>
<g id="a_edge79_Node000039_Node000019"><a xlink:title=" ">
<path fill="none" stroke="#63b8ff" d="M1399.67,-54.84C1396.74,-47.04 1393.07,-37.27 1389.92,-28.89"/>
<polygon fill="#63b8ff" stroke="#63b8ff" points="1393.09,-27.39 1386.3,-19.27 1386.54,-29.86 1393.09,-27.39"/>
</a>
</g>
</g>
<!-- Node40 -->
<g id="Node000040" class="node">
<title>Node40</title>
<g id="a_Node000040"><a xlink:title=" ">
<polygon fill="#e0e0e0" stroke="#999999" points="1474,-19 1434,-19 1434,0 1474,0 1474,-19"/>
<text text-anchor="middle" x="1454" y="-7" font-family="Helvetica,sans-Serif" font-size="10.00">span</text>
</a>
</g>
</g>
<!-- Node39&#45;&gt;Node40 -->
<g id="edge78_Node000039_Node000040" class="edge">
<title>Node39&#45;&gt;Node40</title>
<g id="a_edge78_Node000039_Node000040"><a xlink:title=" ">
<path fill="none" stroke="#63b8ff" d="M1416.86,-54.84C1423.9,-46.43 1432.86,-35.74 1440.21,-26.96"/>
<polygon fill="#63b8ff" stroke="#63b8ff" points="1442.92,-29.18 1446.66,-19.27 1437.55,-24.68 1442.92,-29.18"/>
</a>
</g>
</g>
</g>
</svg>
