<?xml version="1.0" encoding="UTF-8" standalone="no"?>
<!DOCTYPE svg PUBLIC "-//W3C//DTD SVG 1.1//EN"
 "http://www.w3.org/Graphics/SVG/1.1/DTD/svg11.dtd">
<!-- Generated by graphviz version 2.43.0 (0)
 -->
<!-- Title: unilink/interface/channel.cc Pages: 1 -->
<svg width="1394pt" height="269pt"
 viewBox="0.00 0.00 1394.05 269.00" xmlns="http://www.w3.org/2000/svg" xmlns:xlink="http://www.w3.org/1999/xlink">
<g id="graph0" class="graph" transform="scale(1 1) rotate(0) translate(4 265)">
<title>unilink/interface/channel.cc</title>
<!-- Node1 -->
<g id="Node000001" class="node">
<title>Node1</title>
<g id="a_Node000001"><a xlink:title=" ">
<polygon fill="#999999" stroke="#666666" points="794.5,-261 643.5,-261 643.5,-242 794.5,-242 794.5,-261"/>
<text text-anchor="middle" x="719" y="-249" font-family="Helvetica,sans-Serif" font-size="10.00">unilink/interface/channel.cc</text>
</a>
</g>
</g>
<!-- Node2 -->
<g id="Node000002" class="node">
<title>Node2</title>
<g id="a_Node000002"><a xlink:href="channel_8hpp.html" target="_top" xlink:title=" ">
<polygon fill="white" stroke="#666666" points="798,-206 640,-206 640,-187 798,-187 798,-206"/>
<text text-anchor="middle" x="719" y="-194" font-family="Helvetica,sans-Serif" font-size="10.00">unilink/interface/channel.hpp</text>
</a>
</g>
</g>
<!-- Node1&#45;&gt;Node2 -->
<g id="edge1_Node000001_Node000002" class="edge">
<title>Node1&#45;&gt;Node2</title>
<g id="a_edge1_Node000001_Node000002"><a xlink:title=" ">
<path fill="none" stroke="#63b8ff" d="M719,-241.75C719,-234.8 719,-224.85 719,-216.13"/>
<polygon fill="#63b8ff" stroke="#63b8ff" points="722.5,-216.09 719,-206.09 715.5,-216.09 722.5,-216.09"/>
</a>
</g>
</g>
<!-- Node3 -->
<g id="Node000003" class="node">
<title>Node3</title>
<g id="a_Node000003"><a xlink:title=" ">
<polygon fill="#e0e0e0" stroke="#999999" points="170,-145.5 0,-145.5 0,-126.5 170,-126.5 170,-145.5"/>
<text text-anchor="middle" x="85" y="-133.5" font-family="Helvetica,sans-Serif" font-size="10.00">boost/asio/any_io_executor.hpp</text>
</a>
</g>
</g>
<!-- Node2&#45;&gt;Node3 -->
<g id="edge2_Node000002_Node000003" class="edge">
<title>Node2&#45;&gt;Node3</title>
<g id="a_edge2_Node000002_Node000003"><a xlink:title=" ">
<path fill="none" stroke="#63b8ff" d="M640,-190.36C535.49,-183.22 345.62,-169.13 184,-151 173.37,-149.81 162.12,-148.38 151.16,-146.89"/>
<polygon fill="#63b8ff" stroke="#63b8ff" points="151.59,-143.42 141.21,-145.52 150.64,-150.35 151.59,-143.42"/>
</a>
</g>
</g>
<!-- Node4 -->
<g id="Node000004" class="node">
<title>Node4</title>
<g id="a_Node000004"><a xlink:title=" ">
<polygon fill="#e0e0e0" stroke="#999999" points="288.5,-19 223.5,-19 223.5,0 288.5,0 288.5,-19"/>
<text text-anchor="middle" x="256" y="-7" font-family="Helvetica,sans-Serif" font-size="10.00">functional</text>
</a>
</g>
</g>
<!-- Node2&#45;&gt;Node4 -->
<g id="edge3_Node000002_Node000004" class="edge">
<title>Node2&#45;&gt;Node4</title>
<g id="a_edge3_Node000002_Node000004"><a xlink:title=" ">
<path fill="none" stroke="#63b8ff" d="M639.73,-191.43C551.92,-185.87 416.69,-173.86 371,-151 317.56,-124.26 280.21,-60.08 264.42,-28.57"/>
<polygon fill="#63b8ff" stroke="#63b8ff" points="267.41,-26.71 259.9,-19.24 261.11,-29.76 267.41,-26.71"/>
</a>
</g>
</g>
<!-- Node5 -->
<g id="Node000005" class="node">
<title>Node5</title>
<g id="a_Node000005"><a xlink:title=" ">
<polygon fill="#e0e0e0" stroke="#999999" points="1326,-19 1268,-19 1268,0 1326,0 1326,-19"/>
<text text-anchor="middle" x="1297" y="-7" font-family="Helvetica,sans-Serif" font-size="10.00">memory</text>
</a>
</g>
</g>
<!-- Node2&#45;&gt;Node5 -->
<g id="edge4_Node000002_Node000005" class="edge">
<title>Node2&#45;&gt;Node5</title>
<g id="a_edge4_Node000002_Node000005"><a xlink:title=" ">
<path fill="none" stroke="#63b8ff" d="M798.26,-193.67C954.03,-189.51 1288.93,-177.58 1334,-151 1374.27,-127.25 1400.7,-95.3 1377,-55 1367.93,-39.57 1351.35,-29.1 1335.63,-22.22"/>
<polygon fill="#63b8ff" stroke="#63b8ff" points="1336.62,-18.84 1326.03,-18.39 1334.02,-25.34 1336.62,-18.84"/>
</a>
</g>
</g>
<!-- Node6 -->
<g id="Node000006" class="node">
<title>Node6</title>
<g id="a_Node000006"><a xlink:title=" ">
<polygon fill="#e0e0e0" stroke="#999999" points="353.5,-19 306.5,-19 306.5,0 353.5,0 353.5,-19"/>
<text text-anchor="middle" x="330" y="-7" font-family="Helvetica,sans-Serif" font-size="10.00">vector</text>
</a>
</g>
</g>
<!-- Node2&#45;&gt;Node6 -->
<g id="edge5_Node000002_Node000006" class="edge">
<title>Node2&#45;&gt;Node6</title>
<g id="a_edge5_Node000002_Node000006"><a xlink:title=" ">
<path fill="none" stroke="#63b8ff" d="M652.33,-186.94C548.93,-172.15 357.53,-138.18 317,-85 304.61,-68.74 312.1,-44.71 319.87,-28.36"/>
<polygon fill="#63b8ff" stroke="#63b8ff" points="323.06,-29.81 324.57,-19.32 316.85,-26.58 323.06,-29.81"/>
</a>
</g>
</g>
<!-- Node7 -->
<g id="Node000007" class="node">
<title>Node7</title>
<g id="a_Node000007"><a xlink:href="common_8hpp.html" target="_top" xlink:title=" ">
<polygon fill="white" stroke="#666666" points="790.5,-145.5 647.5,-145.5 647.5,-126.5 790.5,-126.5 790.5,-145.5"/>
<text text-anchor="middle" x="719" y="-133.5" font-family="Helvetica,sans-Serif" font-size="10.00">unilink/base/common.hpp</text>
</a>
</g>
</g>
<!-- Node2&#45;&gt;Node7 -->
<g id="edge6_Node000002_Node000007" class="edge">
<title>Node2&#45;&gt;Node7</title>
<g id="a_edge6_Node000002_Node000007"><a xlink:title=" ">
<path fill="none" stroke="#63b8ff" d="M719,-186.87C719,-178.75 719,-166.31 719,-155.89"/>
<polygon fill="#63b8ff" stroke="#63b8ff" points="722.5,-155.67 719,-145.67 715.5,-155.67 722.5,-155.67"/>
</a>
</g>
</g>
<!-- Node20 -->
<g id="Node000020" class="node">
<title>Node20</title>
<g id="a_Node000020"><a xlink:href="visibility_8hpp.html" target="_top" xlink:title=" ">
<polygon fill="white" stroke="#666666" points="1129,-19 1051,-19 1051,0 1129,0 1129,-19"/>
<text text-anchor="middle" x="1090" y="-7" font-family="Helvetica,sans-Serif" font-size="10.00">visibility.hpp</text>
</a>
</g>
</g>
<!-- Node2&#45;&gt;Node20 -->
<g id="edge34_Node000002_Node000020" class="edge">
<title>Node2&#45;&gt;Node20</title>
<g id="a_edge34_Node000002_Node000020"><a xlink:title=" ">
<path fill="none" stroke="#63b8ff" d="M798.06,-196.42C935.62,-196.87 1212.58,-192.38 1299,-151 1335.3,-133.62 1346.18,-122.42 1361,-85 1365.91,-72.6 1369.63,-65.16 1361,-55 1333.15,-22.2 1209.87,-13.53 1139.56,-11.27"/>
<polygon fill="#63b8ff" stroke="#63b8ff" points="1139.27,-7.76 1129.17,-10.97 1139.07,-14.76 1139.27,-7.76"/>
</a>
</g>
</g>
<!-- Node25 -->
<g id="Node000025" class="node">
<title>Node25</title>
<g id="a_Node000025"><a xlink:href="safe__span_8hpp.html" target="_top" xlink:title=" ">
<polygon fill="white" stroke="#666666" points="1290,-151 1172,-151 1172,-121 1290,-121 1290,-151"/>
<text text-anchor="start" x="1180" y="-139" font-family="Helvetica,sans-Serif" font-size="10.00">unilink/memory/safe</text>
<text text-anchor="middle" x="1231" y="-128" font-family="Helvetica,sans-Serif" font-size="10.00">_span.hpp</text>
</a>
</g>
</g>
<!-- Node2&#45;&gt;Node25 -->
<g id="edge35_Node000002_Node000025" class="edge">
<title>Node2&#45;&gt;Node25</title>
<g id="a_edge35_Node000002_Node000025"><a xlink:title=" ">
<path fill="none" stroke="#63b8ff" d="M793.45,-186.99C892.19,-175.71 1065.18,-155.95 1161.41,-144.95"/>
<polygon fill="#63b8ff" stroke="#63b8ff" points="1162.08,-148.4 1171.62,-143.78 1161.29,-141.44 1162.08,-148.4"/>
</a>
</g>
</g>
<!-- Node7&#45;&gt;Node4 -->
<g id="edge11_Node000007_Node000004" class="edge">
<title>Node7&#45;&gt;Node4</title>
<g id="a_edge11_Node000007_Node000004"><a xlink:title=" ">
<path fill="none" stroke="#63b8ff" d="M647.15,-132.42C547.18,-127.77 372.19,-115.45 317,-85 293.51,-72.04 275.5,-46.05 265.33,-28.46"/>
<polygon fill="#63b8ff" stroke="#63b8ff" points="268.14,-26.31 260.26,-19.23 262.01,-29.68 268.14,-26.31"/>
</a>
</g>
</g>
<!-- Node7&#45;&gt;Node6 -->
<g id="edge19_Node000007_Node000006" class="edge">
<title>Node7&#45;&gt;Node6</title>
<g id="a_edge19_Node000007_Node000006"><a xlink:title=" ">
<path fill="none" stroke="#63b8ff" d="M647.39,-130.78C541.06,-123.78 351.68,-108.2 331,-85 317.59,-69.95 320.13,-45.61 324.18,-28.87"/>
<polygon fill="#63b8ff" stroke="#63b8ff" points="327.58,-29.72 326.9,-19.14 320.84,-27.83 327.58,-29.72"/>
</a>
</g>
</g>
<!-- Node8 -->
<g id="Node000008" class="node">
<title>Node8</title>
<g id="a_Node000008"><a xlink:title=" ">
<polygon fill="#e0e0e0" stroke="#999999" points="631,-19 581,-19 581,0 631,0 631,-19"/>
<text text-anchor="middle" x="606" y="-7" font-family="Helvetica,sans-Serif" font-size="10.00">chrono</text>
</a>
</g>
</g>
<!-- Node7&#45;&gt;Node8 -->
<g id="edge7_Node000007_Node000008" class="edge">
<title>Node7&#45;&gt;Node8</title>
<g id="a_edge7_Node000007_Node000008"><a xlink:title=" ">
<path fill="none" stroke="#63b8ff" d="M727.47,-126.33C741.59,-110.81 766.8,-77.78 750,-55 746.65,-50.46 682.59,-31.88 641.05,-20.21"/>
<polygon fill="#63b8ff" stroke="#63b8ff" points="641.85,-16.8 631.28,-17.47 639.96,-23.54 641.85,-16.8"/>
</a>
</g>
</g>
<!-- Node9 -->
<g id="Node000009" class="node">
<title>Node9</title>
<g id="a_Node000009"><a xlink:title=" ">
<polygon fill="#e0e0e0" stroke="#999999" points="1294,-79.5 1244,-79.5 1244,-60.5 1294,-60.5 1294,-79.5"/>
<text text-anchor="middle" x="1269" y="-67.5" font-family="Helvetica,sans-Serif" font-size="10.00">cstdint</text>
</a>
</g>
</g>
<!-- Node7&#45;&gt;Node9 -->
<g id="edge8_Node000007_Node000009" class="edge">
<title>Node7&#45;&gt;Node9</title>
<g id="a_edge8_Node000007_Node000009"><a xlink:title=" ">
<path fill="none" stroke="#63b8ff" d="M790.64,-134.66C891.32,-132.69 1079.74,-123.59 1235,-85 1237.16,-84.46 1239.37,-83.81 1241.57,-83.09"/>
<polygon fill="#63b8ff" stroke="#63b8ff" points="1242.84,-86.35 1250.98,-79.57 1240.39,-79.79 1242.84,-86.35"/>
</a>
</g>
</g>
<!-- Node10 -->
<g id="Node000010" class="node">
<title>Node10</title>
<g id="a_Node000010"><a xlink:title=" ">
<polygon fill="#e0e0e0" stroke="#999999" points="390,-79.5 340,-79.5 340,-60.5 390,-60.5 390,-79.5"/>
<text text-anchor="middle" x="365" y="-67.5" font-family="Helvetica,sans-Serif" font-size="10.00">cstring</text>
</a>
</g>
</g>
<!-- Node7&#45;&gt;Node10 -->
<g id="edge9_Node000007_Node000010" class="edge">
<title>Node7&#45;&gt;Node10</title>
<g id="a_edge9_Node000007_Node000010"><a xlink:title=" ">
<path fill="none" stroke="#63b8ff" d="M647.43,-128.69C581.9,-121.77 482.66,-108.41 399,-85 397.06,-84.46 395.09,-83.84 393.11,-83.17"/>
<polygon fill="#63b8ff" stroke="#63b8ff" points="394.02,-79.77 383.43,-79.51 391.55,-86.32 394.02,-79.77"/>
</a>
</g>
</g>
<!-- Node11 -->
<g id="Node000011" class="node">
<title>Node11</title>
<g id="a_Node000011"><a xlink:title=" ">
<polygon fill="#e0e0e0" stroke="#999999" points="452,-79.5 408,-79.5 408,-60.5 452,-60.5 452,-79.5"/>
<text text-anchor="middle" x="430" y="-67.5" font-family="Helvetica,sans-Serif" font-size="10.00">ctime</text>
</a>
</g>
</g>
<!-- Node7&#45;&gt;Node11 -->
<g id="edge10_Node000007_Node000011" class="edge">
<title>Node7&#45;&gt;Node11</title>
<g id="a_edge10_Node000007_Node000011"><a xlink:title=" ">
<path fill="none" stroke="#63b8ff" d="M652.73,-126.5C599.98,-118.7 524.7,-105.25 461,-85 459.56,-84.54 458.09,-84.03 456.63,-83.49"/>
<polygon fill="#63b8ff" stroke="#63b8ff" points="457.68,-80.14 447.1,-79.58 455.02,-86.62 457.68,-80.14"/>
</a>
</g>
</g>
<!-- Node12 -->
<g id="Node000012" class="node">
<title>Node12</title>
<g id="a_Node000012"><a xlink:title=" ">
<polygon fill="#e0e0e0" stroke="#999999" points="526,-79.5 470,-79.5 470,-60.5 526,-60.5 526,-79.5"/>
<text text-anchor="middle" x="498" y="-67.5" font-family="Helvetica,sans-Serif" font-size="10.00">iomanip</text>
</a>
</g>
</g>
<!-- Node7&#45;&gt;Node12 -->
<g id="edge12_Node000007_Node000012" class="edge">
<title>Node7&#45;&gt;Node12</title>
<g id="a_edge12_Node000007_Node000012"><a xlink:title=" ">
<path fill="none" stroke="#63b8ff" d="M683.43,-126.42C646.15,-117.17 586.01,-101.54 535,-85 533.14,-84.4 531.23,-83.75 529.31,-83.09"/>
<polygon fill="#63b8ff" stroke="#63b8ff" points="530.38,-79.75 519.79,-79.64 528,-86.34 530.38,-79.75"/>
</a>
</g>
</g>
<!-- Node13 -->
<g id="Node000013" class="node">
<title>Node13</title>
<g id="a_Node000013"><a xlink:title=" ">
<polygon fill="#e0e0e0" stroke="#999999" points="604,-79.5 544,-79.5 544,-60.5 604,-60.5 604,-79.5"/>
<text text-anchor="middle" x="574" y="-67.5" font-family="Helvetica,sans-Serif" font-size="10.00">iostream</text>
</a>
</g>
</g>
<!-- Node7&#45;&gt;Node13 -->
<g id="edge13_Node000007_Node000013" class="edge">
<title>Node7&#45;&gt;Node13</title>
<g id="a_edge13_Node000007_Node000013"><a xlink:title=" ">
<path fill="none" stroke="#63b8ff" d="M699.44,-126.37C674.69,-115.44 631.83,-96.52 603.19,-83.88"/>
<polygon fill="#63b8ff" stroke="#63b8ff" points="604.27,-80.54 593.71,-79.7 601.44,-86.94 604.27,-80.54"/>
</a>
</g>
</g>
<!-- Node14 -->
<g id="Node000014" class="node">
<title>Node14</title>
<g id="a_Node000014"><a xlink:title=" ">
<polygon fill="#e0e0e0" stroke="#999999" points="678,-79.5 622,-79.5 622,-60.5 678,-60.5 678,-79.5"/>
<text text-anchor="middle" x="650" y="-67.5" font-family="Helvetica,sans-Serif" font-size="10.00">sstream</text>
</a>
</g>
</g>
<!-- Node7&#45;&gt;Node14 -->
<g id="edge14_Node000007_Node000014" class="edge">
<title>Node7&#45;&gt;Node14</title>
<g id="a_edge14_Node000007_Node000014"><a xlink:title=" ">
<path fill="none" stroke="#63b8ff" d="M709.69,-126.37C698.85,-116.31 680.7,-99.48 667.26,-87.01"/>
<polygon fill="#63b8ff" stroke="#63b8ff" points="669.31,-84.14 659.6,-79.91 664.55,-89.27 669.31,-84.14"/>
</a>
</g>
</g>
<!-- Node15 -->
<g id="Node000015" class="node">
<title>Node15</title>
<g id="a_Node000015"><a xlink:title=" ">
<polygon fill="#e0e0e0" stroke="#999999" points="1225.5,-79.5 1160.5,-79.5 1160.5,-60.5 1225.5,-60.5 1225.5,-79.5"/>
<text text-anchor="middle" x="1193" y="-67.5" font-family="Helvetica,sans-Serif" font-size="10.00">stdexcept</text>
</a>
</g>
</g>
<!-- Node7&#45;&gt;Node15 -->
<g id="edge15_Node000007_Node000015" class="edge">
<title>Node7&#45;&gt;Node15</title>
<g id="a_edge15_Node000007_Node000015"><a xlink:title=" ">
<path fill="none" stroke="#63b8ff" d="M790.84,-131.23C877.19,-125.66 1026.07,-112.74 1151,-85 1154.05,-84.32 1157.2,-83.51 1160.32,-82.61"/>
<polygon fill="#63b8ff" stroke="#63b8ff" points="1161.62,-85.88 1170.13,-79.57 1159.55,-79.19 1161.62,-85.88"/>
</a>
</g>
</g>
<!-- Node16 -->
<g id="Node000016" class="node">
<title>Node16</title>
<g id="a_Node000016"><a xlink:title=" ">
<polygon fill="#e0e0e0" stroke="#999999" points="1033,-19 989,-19 989,0 1033,0 1033,-19"/>
<text text-anchor="middle" x="1011" y="-7" font-family="Helvetica,sans-Serif" font-size="10.00">string</text>
</a>
</g>
</g>
<!-- Node7&#45;&gt;Node16 -->
<g id="edge16_Node000007_Node000016" class="edge">
<title>Node7&#45;&gt;Node16</title>
<g id="a_edge16_Node000007_Node000016"><a xlink:title=" ">
<path fill="none" stroke="#63b8ff" d="M790.6,-128.8C834.99,-122.55 891.94,-110.03 937,-85 962.92,-70.6 985.77,-44.42 999,-27.25"/>
<polygon fill="#63b8ff" stroke="#63b8ff" points="1001.83,-29.31 1005,-19.2 996.21,-25.13 1001.83,-29.31"/>
</a>
</g>
</g>
<!-- Node17 -->
<g id="Node000017" class="node">
<title>Node17</title>
<g id="a_Node000017"><a xlink:title=" ">
<polygon fill="#e0e0e0" stroke="#999999" points="970.5,-19 897.5,-19 897.5,0 970.5,0 970.5,-19"/>
<text text-anchor="middle" x="934" y="-7" font-family="Helvetica,sans-Serif" font-size="10.00">string_view</text>
</a>
</g>
</g>
<!-- Node7&#45;&gt;Node17 -->
<g id="edge17_Node000007_Node000017" class="edge">
<title>Node7&#45;&gt;Node17</title>
<g id="a_edge17_Node000007_Node000017"><a xlink:title=" ">
<path fill="none" stroke="#63b8ff" d="M779.43,-126.46C829.7,-118.15 896,-104 915,-85 929.57,-70.43 933.48,-46.34 934.28,-29.51"/>
<polygon fill="#63b8ff" stroke="#63b8ff" points="937.79,-29.28 934.44,-19.23 930.79,-29.17 937.79,-29.28"/>
</a>
</g>
</g>
<!-- Node18 -->
<g id="Node000018" class="node">
<title>Node18</title>
<g id="a_Node000018"><a xlink:title=" ">
<polygon fill="#e0e0e0" stroke="#999999" points="741.5,-79.5 696.5,-79.5 696.5,-60.5 741.5,-60.5 741.5,-79.5"/>
<text text-anchor="middle" x="719" y="-67.5" font-family="Helvetica,sans-Serif" font-size="10.00">utility</text>
</a>
</g>
</g>
<!-- Node7&#45;&gt;Node18 -->
<g id="edge18_Node000007_Node000018" class="edge">
<title>Node7&#45;&gt;Node18</title>
<g id="a_edge18_Node000007_Node000018"><a xlink:title=" ">
<path fill="none" stroke="#63b8ff" d="M719,-126.37C719,-117.16 719,-102.29 719,-90.27"/>
<polygon fill="#63b8ff" stroke="#63b8ff" points="722.5,-89.91 719,-79.91 715.5,-89.91 722.5,-89.91"/>
</a>
</g>
</g>
<!-- Node19 -->
<g id="Node000019" class="node">
<title>Node19</title>
<g id="a_Node000019"><a xlink:href="platform_8hpp.html" target="_top" xlink:title=" ">
<polygon fill="white" stroke="#666666" points="1142,-79.5 1000,-79.5 1000,-60.5 1142,-60.5 1142,-79.5"/>
<text text-anchor="middle" x="1071" y="-67.5" font-family="Helvetica,sans-Serif" font-size="10.00">unilink/base/platform.hpp</text>
</a>
</g>
</g>
<!-- Node7&#45;&gt;Node19 -->
<g id="edge20_Node000007_Node000019" class="edge">
<title>Node7&#45;&gt;Node19</title>
<g id="a_edge20_Node000007_Node000019"><a xlink:title=" ">
<path fill="none" stroke="#63b8ff" d="M766.11,-126.44C830.26,-114.77 944.97,-93.91 1013.93,-81.38"/>
<polygon fill="#63b8ff" stroke="#63b8ff" points="1014.96,-84.75 1024.17,-79.51 1013.71,-77.86 1014.96,-84.75"/>
</a>
</g>
</g>
<!-- Node21 -->
<g id="Node000021" class="node">
<title>Node21</title>
<g id="a_Node000021"><a xlink:href="logger_8hpp.html" target="_top" xlink:title=" ">
<polygon fill="white" stroke="#666666" points="906,-85 798,-85 798,-55 906,-55 906,-85"/>
<text text-anchor="start" x="806" y="-73" font-family="Helvetica,sans-Serif" font-size="10.00">unilink/diagnostics</text>
<text text-anchor="middle" x="852" y="-62" font-family="Helvetica,sans-Serif" font-size="10.00">/logger.hpp</text>
</a>
</g>
</g>
<!-- Node7&#45;&gt;Node21 -->
<g id="edge23_Node000007_Node000021" class="edge">
<title>Node7&#45;&gt;Node21</title>
<g id="a_edge23_Node000007_Node000021"><a xlink:title=" ">
<path fill="none" stroke="#63b8ff" d="M736.94,-126.37C756.43,-116.99 788.16,-101.72 813.36,-89.59"/>
<polygon fill="#63b8ff" stroke="#63b8ff" points="815.17,-92.61 822.67,-85.12 812.14,-86.3 815.17,-92.61"/>
</a>
</g>
</g>
<!-- Node19&#45;&gt;Node16 -->
<g id="edge21_Node000019_Node000016" class="edge">
<title>Node19&#45;&gt;Node16</title>
<g id="a_edge21_Node000019_Node000016"><a xlink:title=" ">
<path fill="none" stroke="#63b8ff" d="M1062.15,-60.37C1053.02,-51.47 1038.58,-37.39 1027.36,-26.45"/>
<polygon fill="#63b8ff" stroke="#63b8ff" points="1029.49,-23.64 1019.89,-19.17 1024.61,-28.65 1029.49,-23.64"/>
</a>
</g>
</g>
<!-- Node19&#45;&gt;Node20 -->
<g id="edge22_Node000019_Node000020" class="edge">
<title>Node19&#45;&gt;Node20</title>
<g id="a_edge22_Node000019_Node000020"><a xlink:title=" ">
<path fill="none" stroke="#63b8ff" d="M1073.8,-60.37C1076.5,-52.07 1080.65,-39.28 1084.08,-28.72"/>
<polygon fill="#63b8ff" stroke="#63b8ff" points="1087.42,-29.76 1087.18,-19.17 1080.77,-27.6 1087.42,-29.76"/>
</a>
</g>
</g>
<!-- Node21&#45;&gt;Node4 -->
<g id="edge27_Node000021_Node000004" class="edge">
<title>Node21&#45;&gt;Node4</title>
<g id="a_edge27_Node000021_Node000004"><a xlink:title=" ">
<path fill="none" stroke="#63b8ff" d="M797.81,-60.98C782.39,-58.85 765.55,-56.68 750,-55 552.44,-33.61 498.66,-47.1 298.56,-19.06"/>
<polygon fill="#63b8ff" stroke="#63b8ff" points="299,-15.58 288.61,-17.64 298.02,-22.51 299,-15.58"/>
</a>
</g>
</g>
<!-- Node21&#45;&gt;Node5 -->
<g id="edge28_Node000021_Node000005" class="edge">
<title>Node21&#45;&gt;Node5</title>
<g id="a_edge28_Node000021_Node000005"><a xlink:title=" ">
<path fill="none" stroke="#63b8ff" d="M906.12,-61.89C997.01,-49.94 1178.16,-26.12 1257.85,-15.65"/>
<polygon fill="#63b8ff" stroke="#63b8ff" points="1258.49,-19.09 1267.95,-14.32 1257.58,-12.15 1258.49,-19.09"/>
</a>
</g>
</g>
<!-- Node21&#45;&gt;Node6 -->
<g id="edge32_Node000021_Node000006" class="edge">
<title>Node21&#45;&gt;Node6</title>
<g id="a_edge32_Node000021_Node000006"><a xlink:title=" ">
<path fill="none" stroke="#63b8ff" d="M797.78,-61.24C782.35,-59.12 765.53,-56.89 750,-55 606.68,-37.58 435.38,-20.63 363.91,-13.73"/>
<polygon fill="#63b8ff" stroke="#63b8ff" points="364,-10.23 353.71,-12.75 363.33,-17.2 364,-10.23"/>
</a>
</g>
</g>
<!-- Node21&#45;&gt;Node8 -->
<g id="edge25_Node000021_Node000008" class="edge">
<title>Node21&#45;&gt;Node8</title>
<g id="a_edge25_Node000021_Node000008"><a xlink:title=" ">
<path fill="none" stroke="#63b8ff" d="M797.93,-56.46C757.32,-46.99 700.08,-33.54 641.1,-19.25"/>
<polygon fill="#63b8ff" stroke="#63b8ff" points="641.79,-15.81 631.24,-16.85 640.13,-22.61 641.79,-15.81"/>
</a>
</g>
</g>
<!-- Node21&#45;&gt;Node16 -->
<g id="edge30_Node000021_Node000016" class="edge">
<title>Node21&#45;&gt;Node16</title>
<g id="a_edge30_Node000021_Node000016"><a xlink:title=" ">
<path fill="none" stroke="#63b8ff" d="M890.08,-54.99C917.34,-44.96 953.6,-31.62 979.28,-22.17"/>
<polygon fill="#63b8ff" stroke="#63b8ff" points="980.73,-25.37 988.9,-18.63 978.31,-18.8 980.73,-25.37"/>
</a>
</g>
</g>
<!-- Node21&#45;&gt;Node17 -->
<g id="edge31_Node000021_Node000017" class="edge">
<title>Node21&#45;&gt;Node17</title>
<g id="a_edge31_Node000021_Node000017"><a xlink:title=" ">
<path fill="none" stroke="#63b8ff" d="M871.85,-54.84C884.48,-45.83 900.8,-34.18 913.55,-25.09"/>
<polygon fill="#63b8ff" stroke="#63b8ff" points="915.6,-27.92 921.71,-19.27 911.54,-22.22 915.6,-27.92"/>
</a>
</g>
</g>
<!-- Node21&#45;&gt;Node20 -->
<g id="edge33_Node000021_Node000020" class="edge">
<title>Node21&#45;&gt;Node20</title>
<g id="a_edge33_Node000021_Node000020"><a xlink:title=" ">
<path fill="none" stroke="#63b8ff" d="M906.01,-55.73C948.15,-45.37 1005.97,-31.15 1045.48,-21.44"/>
<polygon fill="#63b8ff" stroke="#63b8ff" points="1046.48,-24.8 1055.36,-19.02 1044.81,-18 1046.48,-24.8"/>
</a>
</g>
</g>
<!-- Node22 -->
<g id="Node000022" class="node">
<title>Node22</title>
<g id="a_Node000022"><a xlink:title=" ">
<polygon fill="#e0e0e0" stroke="#999999" points="879,-19 829,-19 829,0 879,0 879,-19"/>
<text text-anchor="middle" x="854" y="-7" font-family="Helvetica,sans-Serif" font-size="10.00">atomic</text>
</a>
</g>
</g>
<!-- Node21&#45;&gt;Node22 -->
<g id="edge24_Node000021_Node000022" class="edge">
<title>Node21&#45;&gt;Node22</title>
<g id="a_edge24_Node000021_Node000022"><a xlink:title=" ">
<path fill="none" stroke="#63b8ff" d="M852.48,-54.84C852.74,-47.21 853.07,-37.7 853.35,-29.45"/>
<polygon fill="#63b8ff" stroke="#63b8ff" points="856.86,-29.38 853.7,-19.27 849.86,-29.14 856.86,-29.38"/>
</a>
</g>
</g>
<!-- Node23 -->
<g id="Node000023" class="node">
<title>Node23</title>
<g id="a_Node000023"><a xlink:title=" ">
<polygon fill="#e0e0e0" stroke="#999999" points="699,-19 649,-19 649,0 699,0 699,-19"/>
<text text-anchor="middle" x="674" y="-7" font-family="Helvetica,sans-Serif" font-size="10.00">format</text>
</a>
</g>
</g>
<!-- Node21&#45;&gt;Node23 -->
<g id="edge26_Node000021_Node000023" class="edge">
<title>Node21&#45;&gt;Node23</title>
<g id="a_edge26_Node000021_Node000023"><a xlink:title=" ">
<path fill="none" stroke="#63b8ff" d="M809.36,-54.99C778.64,-44.89 737.68,-31.43 708.89,-21.97"/>
<polygon fill="#63b8ff" stroke="#63b8ff" points="709.84,-18.6 699.25,-18.8 707.66,-25.25 709.84,-18.6"/>
</a>
</g>
</g>
<!-- Node24 -->
<g id="Node000024" class="node">
<title>Node24</title>
<g id="a_Node000024"><a xlink:title=" ">
<polygon fill="#e0e0e0" stroke="#999999" points="810.5,-19 717.5,-19 717.5,0 810.5,0 810.5,-19"/>
<text text-anchor="middle" x="764" y="-7" font-family="Helvetica,sans-Serif" font-size="10.00">source_location</text>
</a>
</g>
</g>
<!-- Node21&#45;&gt;Node24 -->
<g id="edge29_Node000021_Node000024" class="edge">
<title>Node21&#45;&gt;Node24</title>
<g id="a_edge29_Node000021_Node000024"><a xlink:title=" ">
<path fill="none" stroke="#63b8ff" d="M830.7,-54.84C816.93,-45.68 799.07,-33.82 785.3,-24.66"/>
<polygon fill="#63b8ff" stroke="#63b8ff" points="787.19,-21.72 776.93,-19.09 783.32,-27.55 787.19,-21.72"/>
</a>
</g>
</g>
<!-- Node25&#45;&gt;Node9 -->
<g id="edge36_Node000025_Node000009" class="edge">
<title>Node25&#45;&gt;Node9</title>
<g id="a_edge36_Node000025_Node000009"><a xlink:title=" ">
<path fill="none" stroke="#63b8ff" d="M1239.43,-120.8C1245.07,-111.31 1252.52,-98.76 1258.53,-88.63"/>
<polygon fill="#63b8ff" stroke="#63b8ff" points="1261.65,-90.23 1263.75,-79.84 1255.63,-86.66 1261.65,-90.23"/>
</a>
</g>
</g>
<!-- Node25&#45;&gt;Node15 -->
<g id="edge38_Node000025_Node000015" class="edge">
<title>Node25&#45;&gt;Node15</title>
<g id="a_edge38_Node000025_Node000015"><a xlink:title=" ">
<path fill="none" stroke="#63b8ff" d="M1222.57,-120.8C1216.93,-111.31 1209.48,-98.76 1203.47,-88.63"/>
<polygon fill="#63b8ff" stroke="#63b8ff" points="1206.37,-86.66 1198.25,-79.84 1200.35,-90.23 1206.37,-86.66"/>
</a>
</g>
</g>
<!-- Node26 -->
<g id="Node000026" class="node">
<title>Node26</title>
<g id="a_Node000026"><a xlink:title=" ">
<polygon fill="#e0e0e0" stroke="#999999" points="1352,-79.5 1312,-79.5 1312,-60.5 1352,-60.5 1352,-79.5"/>
<text text-anchor="middle" x="1332" y="-67.5" font-family="Helvetica,sans-Serif" font-size="10.00">span</text>
</a>
</g>
</g>
<!-- Node25&#45;&gt;Node26 -->
<g id="edge37_Node000025_Node000026" class="edge">
<title>Node25&#45;&gt;Node26</title>
<g id="a_edge37_Node000025_Node000026"><a xlink:title=" ">
<path fill="none" stroke="#63b8ff" d="M1253.42,-120.8C1270.19,-110.17 1293.01,-95.7 1309.75,-85.1"/>
<polygon fill="#63b8ff" stroke="#63b8ff" points="1311.76,-87.97 1318.34,-79.66 1308.02,-82.05 1311.76,-87.97"/>
</a>
</g>
</g>
</g>
</svg>
