<?xml version="1.0" encoding="UTF-8" standalone="no"?>
<!DOCTYPE svg PUBLIC "-//W3C//DTD SVG 1.1//EN"
 "http://www.w3.org/Graphics/SVG/1.1/DTD/svg11.dtd">
<!-- Generated by graphviz version 2.43.0 (0)
 -->
<!-- Title: unilink/factory/channel_factory.hpp Pages: 1 -->
<!--zoomable 106 -->
<svg id="main" version="1.1" xmlns="http://www.w3.org/2000/svg" xmlns:xlink="http://www.w3.org/1999/xlink" xml:space="preserve" onload="init(evt)">
<style type="text/css"><![CDATA[
.edge:hover path { stroke: red; }
.edge:hover polygon { stroke: red; fill: red; }
]]></style>
<script type="text/javascript"><![CDATA[
var edges = document.getElementsByTagName('g');
if (edges && edges.length) {
  for (var i=0;i<edges.length;i++) {
    if (edges[i].id.substr(0,4)=='edge') {
      edges[i].setAttribute('class','edge');
    }
  }
}
]]></script>
        <defs>
                <circle id="rim" cx="0" cy="0" r="7"/>
                <circle id="rim2" cx="0" cy="0" r="3.5"/>
                <g id="zoomPlus">
                        <use xlink:href="#rim" fill="#404040">
                                <set attributeName="fill" to="#808080" begin="zoomplus.mouseover" end="zoomplus.mouseout"/>
                        </use>
                        <path d="M-4,0h8M0,-4v8" fill="none" stroke="white" stroke-width="1.5" pointer-events="none"/>
                </g>
                <g id="zoomMin">
                        <use xlink:href="#rim" fill="#404040">
                                <set attributeName="fill" to="#808080" begin="zoomminus.mouseover" end="zoomminus.mouseout"/>
                        </use>
                        <path d="M-4,0h8" fill="none" stroke="white" stroke-width="1.5" pointer-events="none"/>
                </g>
                <g id="dirArrow">
                        <path fill="none" stroke="white" stroke-width="1.5" d="M0,-3.0v7 M-2.5,-0.5L0,-3.0L2.5,-0.5"/>
                </g>
               <g id="resetDef">
                       <use xlink:href="#rim2" fill="#404040">
                               <set attributeName="fill" to="#808080" begin="reset.mouseover" end="reset.mouseout"/>
                       </use>
               </g>
        </defs>

<script type="text/javascript">
var viewWidth = 1080;
var viewHeight = 106;
var sectionId = 'dynsection-1';
</script>
<script xlink:href="svgpan.js"/>
<svg id="graph" class="graph">
<g id="viewport">
<title>unilink/factory/channel_factory.hpp</title>
<polygon fill="white" stroke="transparent" points="-4,4 -4,-102 1076,-102 1076,4 -4,4"/>
<!-- Node1 -->
<g id="node1" class="node">
<title>Node1</title>
<g id="a_node1"><a xlink:title=" ">
<polygon fill="#bfbfbf" stroke="black" points="480,-67.5 480,-97.5 608,-97.5 608,-67.5 480,-67.5"/>
<text text-anchor="start" x="488" y="-85.5" font-family="Helvetica,sans-Serif" font-size="10.00">unilink/factory/channel</text>
<text text-anchor="middle" x="544" y="-74.5" font-family="Helvetica,sans-Serif" font-size="10.00">_factory.hpp</text>
</a>
</g>
</g>
<!-- Node2 -->
<g id="node2" class="node">
<title>Node2</title>
<g id="a_node2"><a xlink:href="channel__factory_8cc.html" target="_top" xlink:title=" ">
<polygon fill="white" stroke="black" points="0,-0.5 0,-30.5 128,-30.5 128,-0.5 0,-0.5"/>
<text text-anchor="start" x="8" y="-18.5" font-family="Helvetica,sans-Serif" font-size="10.00">unilink/factory/channel</text>
<text text-anchor="middle" x="64" y="-7.5" font-family="Helvetica,sans-Serif" font-size="10.00">_factory.cc</text>
</a>
</g>
</g>
<!-- Node1&#45;&gt;Node2 -->
<g id="edge1" class="edge">
<title>Node1&#45;&gt;Node2</title>
<path fill="none" stroke="midnightblue" d="M469.81,-73.93C388.05,-65.21 252.78,-49.66 137,-31 134.07,-30.53 131.07,-30.02 128.05,-29.49"/>
<polygon fill="midnightblue" stroke="midnightblue" points="469.69,-77.44 480,-75.01 470.42,-70.48 469.69,-77.44"/>
</g>
<!-- Node3 -->
<g id="node3" class="node">
<title>Node3</title>
<g id="a_node3"><a xlink:href="wrapper_2serial_2serial_8cc.html" target="_top" xlink:title=" ">
<polygon fill="white" stroke="black" points="146,-0.5 146,-30.5 268,-30.5 268,-0.5 146,-0.5"/>
<text text-anchor="start" x="154" y="-18.5" font-family="Helvetica,sans-Serif" font-size="10.00">unilink/wrapper/serial</text>
<text text-anchor="middle" x="207" y="-7.5" font-family="Helvetica,sans-Serif" font-size="10.00">/serial.cc</text>
</a>
</g>
</g>
<!-- Node1&#45;&gt;Node3 -->
<g id="edge2" class="edge">
<title>Node1&#45;&gt;Node3</title>
<path fill="none" stroke="midnightblue" d="M469.64,-67.79C416.04,-57.82 341.99,-43.88 277,-31 274.08,-30.42 271.09,-29.82 268.07,-29.22"/>
<polygon fill="midnightblue" stroke="midnightblue" points="469.27,-71.28 479.74,-69.67 470.55,-64.4 469.27,-71.28"/>
</g>
<!-- Node4 -->
<g id="node4" class="node">
<title>Node4</title>
<g id="a_node4"><a xlink:href="wrapper_2tcp__client_2tcp__client_8cc.html" target="_top" xlink:title=" ">
<polygon fill="white" stroke="black" points="286.5,-0.5 286.5,-30.5 399.5,-30.5 399.5,-0.5 286.5,-0.5"/>
<text text-anchor="start" x="294.5" y="-18.5" font-family="Helvetica,sans-Serif" font-size="10.00">unilink/wrapper/tcp</text>
<text text-anchor="middle" x="343" y="-7.5" font-family="Helvetica,sans-Serif" font-size="10.00">_client/tcp_client.cc</text>
</a>
</g>
</g>
<!-- Node1&#45;&gt;Node4 -->
<g id="edge3" class="edge">
<title>Node1&#45;&gt;Node4</title>
<path fill="none" stroke="midnightblue" d="M490.59,-64.23C458.07,-53.71 417.06,-40.45 386.53,-30.58"/>
<polygon fill="midnightblue" stroke="midnightblue" points="489.79,-67.65 500.39,-67.4 491.95,-60.99 489.79,-67.65"/>
</g>
<!-- Node5 -->
<g id="node5" class="node">
<title>Node5</title>
<g id="a_node5"><a xlink:href="wrapper_2tcp__server_2tcp__server_8cc.html" target="_top" xlink:title=" ">
<polygon fill="white" stroke="black" points="417.5,-0.5 417.5,-30.5 536.5,-30.5 536.5,-0.5 417.5,-0.5"/>
<text text-anchor="start" x="425.5" y="-18.5" font-family="Helvetica,sans-Serif" font-size="10.00">unilink/wrapper/tcp</text>
<text text-anchor="middle" x="477" y="-7.5" font-family="Helvetica,sans-Serif" font-size="10.00">_server/tcp_server.cc</text>
</a>
</g>
</g>
<!-- Node1&#45;&gt;Node5 -->
<g id="edge4" class="edge">
<title>Node1&#45;&gt;Node5</title>
<path fill="none" stroke="midnightblue" d="M522.16,-60.31C512.11,-50.56 500.46,-39.26 491.51,-30.58"/>
<polygon fill="midnightblue" stroke="midnightblue" points="519.85,-62.94 529.46,-67.4 524.72,-57.92 519.85,-62.94"/>
</g>
<!-- Node6 -->
<g id="node6" class="node">
<title>Node6</title>
<g id="a_node6"><a xlink:href="wrapper_2udp_2udp_8cc.html" target="_top" xlink:title=" ">
<polygon fill="white" stroke="black" points="554.5,-0.5 554.5,-30.5 667.5,-30.5 667.5,-0.5 554.5,-0.5"/>
<text text-anchor="start" x="562.5" y="-18.5" font-family="Helvetica,sans-Serif" font-size="10.00">unilink/wrapper/udp</text>
<text text-anchor="middle" x="611" y="-7.5" font-family="Helvetica,sans-Serif" font-size="10.00">/udp.cc</text>
</a>
</g>
</g>
<!-- Node1&#45;&gt;Node6 -->
<g id="edge5" class="edge">
<title>Node1&#45;&gt;Node6</title>
<path fill="none" stroke="midnightblue" d="M565.84,-60.31C575.89,-50.56 587.54,-39.26 596.49,-30.58"/>
<polygon fill="midnightblue" stroke="midnightblue" points="563.28,-57.92 558.54,-67.4 568.15,-62.94 563.28,-57.92"/>
</g>
<!-- Node7 -->
<g id="node7" class="node">
<title>Node7</title>
<g id="a_node7"><a xlink:href="udp__server_8cc.html" target="_top" xlink:title=" ">
<polygon fill="white" stroke="black" points="685.5,-0.5 685.5,-30.5 798.5,-30.5 798.5,-0.5 685.5,-0.5"/>
<text text-anchor="start" x="693.5" y="-18.5" font-family="Helvetica,sans-Serif" font-size="10.00">unilink/wrapper/udp</text>
<text text-anchor="middle" x="742" y="-7.5" font-family="Helvetica,sans-Serif" font-size="10.00">/udp_server.cc</text>
</a>
</g>
</g>
<!-- Node1&#45;&gt;Node7 -->
<g id="edge6" class="edge">
<title>Node1&#45;&gt;Node7</title>
<path fill="none" stroke="midnightblue" d="M596.61,-64.23C628.64,-53.71 669.04,-40.45 699.12,-30.58"/>
<polygon fill="midnightblue" stroke="midnightblue" points="595.37,-60.95 586.96,-67.4 597.56,-67.6 595.37,-60.95"/>
</g>
<!-- Node8 -->
<g id="node8" class="node">
<title>Node8</title>
<g id="a_node8"><a xlink:href="wrapper_2uds__client_2uds__client_8cc.html" target="_top" xlink:title=" ">
<polygon fill="white" stroke="black" points="816.5,-0.5 816.5,-30.5 931.5,-30.5 931.5,-0.5 816.5,-0.5"/>
<text text-anchor="start" x="824.5" y="-18.5" font-family="Helvetica,sans-Serif" font-size="10.00">unilink/wrapper/uds</text>
<text text-anchor="middle" x="874" y="-7.5" font-family="Helvetica,sans-Serif" font-size="10.00">_client/uds_client.cc</text>
</a>
</g>
</g>
<!-- Node1&#45;&gt;Node8 -->
<g id="edge7" class="edge">
<title>Node1&#45;&gt;Node8</title>
<path fill="none" stroke="midnightblue" d="M618.1,-67.88C671.07,-58.01 744.02,-44.15 808,-31 810.76,-30.43 813.58,-29.85 816.43,-29.25"/>
<polygon fill="midnightblue" stroke="midnightblue" points="617.3,-64.47 608.11,-69.74 618.58,-71.35 617.3,-64.47"/>
</g>
<!-- Node9 -->
<g id="node9" class="node">
<title>Node9</title>
<g id="a_node9"><a xlink:href="wrapper_2uds__server_2uds__server_8cc.html" target="_top" xlink:title=" ">
<polygon fill="white" stroke="black" points="950,-0.5 950,-30.5 1072,-30.5 1072,-0.5 950,-0.5"/>
<text text-anchor="start" x="958" y="-18.5" font-family="Helvetica,sans-Serif" font-size="10.00">unilink/wrapper/uds</text>
<text text-anchor="middle" x="1011" y="-7.5" font-family="Helvetica,sans-Serif" font-size="10.00">_server/uds_server.cc</text>
</a>
</g>
</g>
<!-- Node1&#45;&gt;Node9 -->
<g id="edge8" class="edge">
<title>Node1&#45;&gt;Node9</title>
<path fill="none" stroke="midnightblue" d="M618.14,-73.81C698.08,-65.12 828.95,-49.7 941,-31 943.94,-30.51 946.94,-29.98 949.97,-29.43"/>
<polygon fill="midnightblue" stroke="midnightblue" points="617.74,-70.33 608.17,-74.89 618.49,-77.29 617.74,-70.33"/>
</g>
</g>
</svg>
        <g id="navigator" transform="translate(0 0)" fill="#404254">
                <rect fill="#f2f5e9" fill-opacity="0.5" stroke="#606060" stroke-width=".5" x="0" y="0" width="60" height="60"/>
                <use id="zoomplus" xlink:href="#zoomPlus" x="17" y="9" onmousedown="handleZoom(evt,'in')"/>
                <use id="zoomminus" xlink:href="#zoomMin" x="42" y="9" onmousedown="handleZoom(evt,'out')"/>
                <use id="reset" xlink:href="#resetDef" x="30" y="36" onmousedown="handleReset()"/>
                <g id="arrowUp" xlink:href="#dirArrow" transform="translate(30 24)" onmousedown="handlePan(0,-1)">
                  <use xlink:href="#rim" fill="#404040">
                        <set attributeName="fill" to="#808080" begin="arrowUp.mouseover" end="arrowUp.mouseout"/>
                  </use>
                  <path fill="none" stroke="white" stroke-width="1.5" d="M0,-3.0v7 M-2.5,-0.5L0,-3.0L2.5,-0.5"/>
                </g>
                <g id="arrowRight" xlink:href="#dirArrow" transform="rotate(90) translate(36 -43)" onmousedown="handlePan(1,0)">
                  <use xlink:href="#rim" fill="#404040">
                        <set attributeName="fill" to="#808080" begin="arrowRight.mouseover" end="arrowRight.mouseout"/>
                  </use>
                  <path fill="none" stroke="white" stroke-width="1.5" d="M0,-3.0v7 M-2.5,-0.5L0,-3.0L2.5,-0.5"/>
                </g>
                <g id="arrowDown" xlink:href="#dirArrow" transform="rotate(180) translate(-30 -48)" onmousedown="handlePan(0,1)">
                  <use xlink:href="#rim" fill="#404040">
                        <set attributeName="fill" to="#808080" begin="arrowDown.mouseover" end="arrowDown.mouseout"/>
                  </use>
                  <path fill="none" stroke="white" stroke-width="1.5" d="M0,-3.0v7 M-2.5,-0.5L0,-3.0L2.5,-0.5"/>
                </g>
                <g id="arrowLeft" xlink:href="#dirArrow" transform="rotate(270) translate(-36 17)" onmousedown="handlePan(-1,0)">
                  <use xlink:href="#rim" fill="#404040">
                        <set attributeName="fill" to="#808080" begin="arrowLeft.mouseover" end="arrowLeft.mouseout"/>
                  </use>
                  <path fill="none" stroke="white" stroke-width="1.5" d="M0,-3.0v7 M-2.5,-0.5L0,-3.0L2.5,-0.5"/>
                </g>
        </g>
        <svg viewBox="0 0 15 15" width="100%" height="30px" preserveAspectRatio="xMaxYMin meet">
         <g id="arrow_out" transform="scale(0.3 0.3)">
          <a xlink:href="channel__factory_8hpp__dep__incl_org.svg" target="_base">
           <rect id="button" ry="5" rx="5" y="6" x="6" height="38" width="38"
                fill="#f2f5e9" fill-opacity="0.5" stroke="#606060" stroke-width="1.0"/>
           <path id="arrow"
             d="M 11.500037,31.436501 C 11.940474,20.09759 22.043105,11.32322 32.158766,21.979434 L 37.068811,17.246167 C 37.068811,17.246167 37.088388,32 37.088388,32 L 22.160133,31.978069 C 22.160133,31.978069 26.997745,27.140456 26.997745,27.140456 C 18.528582,18.264221 13.291696,25.230495 11.500037,31.436501 z"
             style="fill:#404040;"/>
          </a>
         </g>
        </svg>
</svg>
