<?xml version="1.0" encoding="UTF-8" standalone="no"?>
<!DOCTYPE svg PUBLIC "-//W3C//DTD SVG 1.1//EN"
 "http://www.w3.org/Graphics/SVG/1.1/DTD/svg11.dtd">
<!-- Generated by graphviz version 2.43.0 (0)
 -->
<!-- Title: unilink::framer::IFramer Pages: 1 -->
<svg width="336pt" height="237pt"
 viewBox="0.00 0.00 336.00 237.00" xmlns="http://www.w3.org/2000/svg" xmlns:xlink="http://www.w3.org/1999/xlink">
<g id="graph0" class="graph" transform="scale(1 1) rotate(0) translate(4 233)">
<title>unilink::framer::IFramer</title>
<polygon fill="white" stroke="transparent" points="-4,4 -4,-233 332,-233 332,4 -4,4"/>
<!-- Node1 -->
<g id="node1" class="node">
<title>Node1</title>
<g id="a_node1"><a xlink:title="Abstract base class for message framing strategies.">
<polygon fill="#bfbfbf" stroke="black" points="94.5,-138.5 94.5,-228.5 226.5,-228.5 226.5,-138.5 94.5,-138.5"/>
<text text-anchor="middle" x="160.5" y="-216.5" font-family="Helvetica,sans-Serif" font-size="10.00">unilink::framer::IFramer</text>
<polyline fill="none" stroke="black" points="94.5,-209.5 226.5,-209.5 "/>
<text text-anchor="middle" x="160.5" y="-197.5" font-family="Helvetica,sans-Serif" font-size="10.00"> </text>
<polyline fill="none" stroke="black" points="94.5,-190.5 226.5,-190.5 "/>
<text text-anchor="start" x="102.5" y="-178.5" font-family="Helvetica,sans-Serif" font-size="10.00">+ ~IFramer()</text>
<text text-anchor="start" x="102.5" y="-167.5" font-family="Helvetica,sans-Serif" font-size="10.00">+ push_bytes()</text>
<text text-anchor="start" x="102.5" y="-156.5" font-family="Helvetica,sans-Serif" font-size="10.00">+ on_message()</text>
<text text-anchor="start" x="102.5" y="-145.5" font-family="Helvetica,sans-Serif" font-size="10.00">+ reset()</text>
</a>
</g>
</g>
<!-- Node2 -->
<g id="node2" class="node">
<title>Node2</title>
<g id="a_node2"><a xlink:href="classunilink_1_1framer_1_1LineFramer.html" target="_top" xlink:title="Framer for text&#45;based protocols (e.g., ASCII, NMEA).">
<polygon fill="white" stroke="black" points="0,-0.5 0,-101.5 149,-101.5 149,-0.5 0,-0.5"/>
<text text-anchor="middle" x="74.5" y="-89.5" font-family="Helvetica,sans-Serif" font-size="10.00">unilink::framer::LineFramer</text>
<polyline fill="none" stroke="black" points="0,-82.5 149,-82.5 "/>
<text text-anchor="middle" x="74.5" y="-70.5" font-family="Helvetica,sans-Serif" font-size="10.00"> </text>
<polyline fill="none" stroke="black" points="0,-63.5 149,-63.5 "/>
<text text-anchor="start" x="8" y="-51.5" font-family="Helvetica,sans-Serif" font-size="10.00">+ LineFramer()</text>
<text text-anchor="start" x="8" y="-40.5" font-family="Helvetica,sans-Serif" font-size="10.00">+ ~LineFramer()</text>
<text text-anchor="start" x="8" y="-29.5" font-family="Helvetica,sans-Serif" font-size="10.00">+ push_bytes()</text>
<text text-anchor="start" x="8" y="-18.5" font-family="Helvetica,sans-Serif" font-size="10.00">+ on_message()</text>
<text text-anchor="start" x="8" y="-7.5" font-family="Helvetica,sans-Serif" font-size="10.00">+ reset()</text>
</a>
</g>
</g>
<!-- Node1&#45;&gt;Node2 -->
<g id="edge1" class="edge">
<title>Node1&#45;&gt;Node2</title>
<path fill="none" stroke="midnightblue" d="M125.81,-129.85C119.64,-120.5 113.24,-110.79 107.14,-101.52"/>
<polygon fill="none" stroke="midnightblue" points="122.96,-131.89 131.38,-138.32 128.8,-128.04 122.96,-131.89"/>
</g>
<!-- Node3 -->
<g id="node3" class="node">
<title>Node3</title>
<g id="a_node3"><a xlink:href="classunilink_1_1framer_1_1PacketFramer.html" target="_top" xlink:title="Framer for binary packet protocols.">
<polygon fill="white" stroke="black" points="167,-0.5 167,-101.5 328,-101.5 328,-0.5 167,-0.5"/>
<text text-anchor="middle" x="247.5" y="-89.5" font-family="Helvetica,sans-Serif" font-size="10.00">unilink::framer::PacketFramer</text>
<polyline fill="none" stroke="black" points="167,-82.5 328,-82.5 "/>
<text text-anchor="middle" x="247.5" y="-70.5" font-family="Helvetica,sans-Serif" font-size="10.00"> </text>
<polyline fill="none" stroke="black" points="167,-63.5 328,-63.5 "/>
<text text-anchor="start" x="175" y="-51.5" font-family="Helvetica,sans-Serif" font-size="10.00">+ PacketFramer()</text>
<text text-anchor="start" x="175" y="-40.5" font-family="Helvetica,sans-Serif" font-size="10.00">+ ~PacketFramer()</text>
<text text-anchor="start" x="175" y="-29.5" font-family="Helvetica,sans-Serif" font-size="10.00">+ push_bytes()</text>
<text text-anchor="start" x="175" y="-18.5" font-family="Helvetica,sans-Serif" font-size="10.00">+ on_message()</text>
<text text-anchor="start" x="175" y="-7.5" font-family="Helvetica,sans-Serif" font-size="10.00">+ reset()</text>
</a>
</g>
</g>
<!-- Node1&#45;&gt;Node3 -->
<g id="edge2" class="edge">
<title>Node1&#45;&gt;Node3</title>
<path fill="none" stroke="midnightblue" d="M195.6,-129.85C201.83,-120.5 208.31,-110.79 214.48,-101.52"/>
<polygon fill="none" stroke="midnightblue" points="192.59,-128.06 189.95,-138.32 198.41,-131.94 192.59,-128.06"/>
</g>
</g>
</svg>
