<?xml version="1.0" encoding="UTF-8" standalone="no"?>
<!DOCTYPE svg PUBLIC "-//W3C//DTD SVG 1.1//EN"
 "http://www.w3.org/Graphics/SVG/1.1/DTD/svg11.dtd">
<!-- Generated by graphviz version 2.43.0 (0)
 -->
<!-- Title: unilink::util::InputValidator::is_valid_host Pages: 1 -->
<svg width="336pt" height="86pt"
 viewBox="0.00 0.00 336.00 86.00" xmlns="http://www.w3.org/2000/svg" xmlns:xlink="http://www.w3.org/1999/xlink">
<g id="graph0" class="graph" transform="scale(1 1) rotate(0) translate(4 82)">
<title>unilink::util::InputValidator::is_valid_host</title>
<!-- Node1 -->
<g id="Node000001" class="node">
<title>Node1</title>
<g id="a_Node000001"><a xlink:title=" ">
<polygon fill="#999999" stroke="#666666" points="328,-54 182,-54 182,-24 328,-24 328,-54"/>
<text text-anchor="start" x="190" y="-42" font-family="Helvetica,sans-Serif" font-size="10.00">unilink::util::InputValidator</text>
<text text-anchor="middle" x="255" y="-31" font-family="Helvetica,sans-Serif" font-size="10.00">::is_valid_host</text>
</a>
</g>
</g>
<!-- Node2 -->
<g id="Node000002" class="node">
<title>Node2</title>
<g id="a_Node000002"><a xlink:href="structunilink_1_1config_1_1TcpClientConfig.html#aeed1e16a92e9161dea7b2cdd5e64e912" target="_top" xlink:title=" ">
<polygon fill="white" stroke="#666666" points="140.5,-78 5.5,-78 5.5,-48 140.5,-48 140.5,-78"/>
<text text-anchor="start" x="13.5" y="-66" font-family="Helvetica,sans-Serif" font-size="10.00">unilink::config::TcpClient</text>
<text text-anchor="middle" x="73" y="-55" font-family="Helvetica,sans-Serif" font-size="10.00">Config::is_valid</text>
</a>
</g>
</g>
<!-- Node1&#45;&gt;Node2 -->
<g id="edge1_Node000001_Node000002" class="edge">
<title>Node1&#45;&gt;Node2</title>
<g id="a_edge1_Node000001_Node000002"><a xlink:title=" ">
<path fill="none" stroke="#63b8ff" d="M171.87,-49.95C161.41,-51.34 150.82,-52.76 140.65,-54.11"/>
<polygon fill="#63b8ff" stroke="#63b8ff" points="172.37,-53.41 181.82,-48.62 171.45,-46.48 172.37,-53.41"/>
</a>
</g>
</g>
<!-- Node3 -->
<g id="Node000003" class="node">
<title>Node3</title>
<g id="a_Node000003"><a xlink:href="classunilink_1_1util_1_1InputValidator.html#a5232897d49c042a539f2405306c9d0f2" target="_top" xlink:title=" ">
<polygon fill="white" stroke="#666666" points="146,-30 0,-30 0,0 146,0 146,-30"/>
<text text-anchor="start" x="8" y="-18" font-family="Helvetica,sans-Serif" font-size="10.00">unilink::util::InputValidator</text>
<text text-anchor="middle" x="73" y="-7" font-family="Helvetica,sans-Serif" font-size="10.00">::validate_host</text>
</a>
</g>
</g>
<!-- Node1&#45;&gt;Node3 -->
<g id="edge2_Node000001_Node000003" class="edge">
<title>Node1&#45;&gt;Node3</title>
<g id="a_edge2_Node000001_Node000003"><a xlink:title=" ">
<path fill="none" stroke="#63b8ff" d="M171.84,-28.05C163.28,-26.9 154.63,-25.75 146.19,-24.63"/>
<polygon fill="#63b8ff" stroke="#63b8ff" points="171.45,-31.52 181.82,-29.38 172.37,-24.59 171.45,-31.52"/>
</a>
</g>
</g>
</g>
</svg>
