<?xml version="1.0" encoding="UTF-8" standalone="no"?>
<!DOCTYPE svg PUBLIC "-//W3C//DTD SVG 1.1//EN"
 "http://www.w3.org/Graphics/SVG/1.1/DTD/svg11.dtd">
<!-- Generated by graphviz version 2.43.0 (0)
 -->
<!-- Title: unilink::transport::UdsClient::async_write_copy Pages: 1 -->
<svg width="379pt" height="76pt"
 viewBox="0.00 0.00 379.00 75.50" xmlns="http://www.w3.org/2000/svg" xmlns:xlink="http://www.w3.org/1999/xlink">
<g id="graph0" class="graph" transform="scale(1 1) rotate(0) translate(4 71.5)">
<title>unilink::transport::UdsClient::async_write_copy</title>
<!-- Node1 -->
<g id="Node000001" class="node">
<title>Node1</title>
<g id="a_Node000001"><a xlink:title=" ">
<polygon fill="#999999" stroke="#666666" points="163,-45.5 0,-45.5 0,-15.5 163,-15.5 163,-45.5"/>
<text text-anchor="start" x="8" y="-33.5" font-family="Helvetica,sans-Serif" font-size="10.00">unilink::transport</text>
<text text-anchor="middle" x="81.5" y="-22.5" font-family="Helvetica,sans-Serif" font-size="10.00">::UdsClient::async_write_copy</text>
</a>
</g>
</g>
<!-- Node2 -->
<g id="Node000002" class="node">
<title>Node2</title>
<g id="a_Node000002"><a xlink:href="classunilink_1_1memory_1_1SafeSpan.html#a3d1f1b920d4769b25c5bf8a058d203dd" target="_top" xlink:title=" ">
<polygon fill="white" stroke="#666666" points="359,-67.5 211,-67.5 211,-37.5 359,-37.5 359,-67.5"/>
<text text-anchor="start" x="219" y="-55.5" font-family="Helvetica,sans-Serif" font-size="10.00">unilink::memory::SafeSpan</text>
<text text-anchor="middle" x="285" y="-44.5" font-family="Helvetica,sans-Serif" font-size="10.00">::begin</text>
</a>
</g>
</g>
<!-- Node1&#45;&gt;Node2 -->
<g id="edge1_Node000001_Node000002" class="edge">
<title>Node1&#45;&gt;Node2</title>
<g id="a_edge1_Node000001_Node000002"><a xlink:title=" ">
<path fill="none" stroke="#63b8ff" d="M163.01,-39.29C175.34,-40.64 188.09,-42.03 200.49,-43.38"/>
<polygon fill="#63b8ff" stroke="#63b8ff" points="200.48,-46.9 210.8,-44.51 201.24,-39.94 200.48,-46.9"/>
</a>
</g>
</g>
<!-- Node3 -->
<g id="Node000003" class="node">
<title>Node3</title>
<g id="a_Node000003"><a xlink:href="classunilink_1_1memory_1_1SafeSpan.html#a569f565034ab74fd20549f16af9d220c" target="_top" xlink:title=" ">
<polygon fill="white" stroke="#666666" points="371,-19 199,-19 199,0 371,0 371,-19"/>
<text text-anchor="middle" x="285" y="-7" font-family="Helvetica,sans-Serif" font-size="10.00">unilink::memory::SafeSpan::end</text>
</a>
</g>
</g>
<!-- Node1&#45;&gt;Node3 -->
<g id="edge2_Node000001_Node000003" class="edge">
<title>Node1&#45;&gt;Node3</title>
<g id="a_edge2_Node000001_Node000003"><a xlink:title=" ">
<path fill="none" stroke="#63b8ff" d="M163.01,-22.11C171.52,-21.22 180.23,-20.32 188.88,-19.41"/>
<polygon fill="#63b8ff" stroke="#63b8ff" points="189.42,-22.88 199,-18.36 188.69,-15.91 189.42,-22.88"/>
</a>
</g>
</g>
</g>
</svg>
