<?xml version="1.0" encoding="UTF-8" standalone="no"?>
<!DOCTYPE svg PUBLIC "-//W3C//DTD SVG 1.1//EN"
 "http://www.w3.org/Graphics/SVG/1.1/DTD/svg11.dtd">
<!-- Generated by graphviz version 2.43.0 (0)
 -->
<!-- Title: unilink::transport::Serial::start Pages: 1 -->
<svg width="506pt" height="50pt"
 viewBox="0.00 0.00 506.00 50.00" xmlns="http://www.w3.org/2000/svg" xmlns:xlink="http://www.w3.org/1999/xlink">
<g id="graph0" class="graph" transform="scale(1 1) rotate(0) translate(4 46)">
<title>unilink::transport::Serial::start</title>
<polygon fill="white" stroke="transparent" points="-4,4 -4,-46 502,-46 502,4 -4,4"/>
<!-- Node1 -->
<g id="node1" class="node">
<title>Node1</title>
<g id="a_node1"><a xlink:title=" ">
<polygon fill="#bfbfbf" stroke="black" points="0,-6 0,-36 100,-36 100,-6 0,-6"/>
<text text-anchor="start" x="8" y="-24" font-family="Helvetica,sans-Serif" font-size="10.00">unilink::transport</text>
<text text-anchor="middle" x="50" y="-13" font-family="Helvetica,sans-Serif" font-size="10.00">::Serial::start</text>
</a>
</g>
</g>
<!-- Node2 -->
<g id="node2" class="node">
<title>Node2</title>
<g id="a_node2"><a xlink:href="classunilink_1_1concurrency_1_1IoContextManager.html#af8bc9a1e74cd2b081311ae3686bbc8ba" target="_top" xlink:title=" ">
<polygon fill="white" stroke="black" points="136,-6 136,-36 296,-36 296,-6 136,-6"/>
<text text-anchor="start" x="144" y="-24" font-family="Helvetica,sans-Serif" font-size="10.00">unilink::concurrency</text>
<text text-anchor="middle" x="216" y="-13" font-family="Helvetica,sans-Serif" font-size="10.00">::IoContextManager::instance</text>
</a>
</g>
</g>
<!-- Node1&#45;&gt;Node2 -->
<g id="edge1" class="edge">
<title>Node1&#45;&gt;Node2</title>
<path fill="none" stroke="midnightblue" d="M100.21,-21C108.28,-21 116.85,-21 125.54,-21"/>
<polygon fill="midnightblue" stroke="midnightblue" points="125.77,-24.5 135.77,-21 125.77,-17.5 125.77,-24.5"/>
</g>
<!-- Node3 -->
<g id="node3" class="node">
<title>Node3</title>
<g id="a_node3"><a xlink:href="classunilink_1_1concurrency_1_1IoContextManager.html#a9191142e76ce990859590213b01e947b" target="_top" xlink:title=" ">
<polygon fill="white" stroke="black" points="332,-0.5 332,-41.5 498,-41.5 498,-0.5 332,-0.5"/>
<text text-anchor="start" x="340" y="-29.5" font-family="Helvetica,sans-Serif" font-size="10.00">unilink::concurrency</text>
<text text-anchor="start" x="340" y="-18.5" font-family="Helvetica,sans-Serif" font-size="10.00">::IoContextManager::IoContext</text>
<text text-anchor="middle" x="415" y="-7.5" font-family="Helvetica,sans-Serif" font-size="10.00">Manager</text>
</a>
</g>
</g>
<!-- Node2&#45;&gt;Node3 -->
<g id="edge2" class="edge">
<title>Node2&#45;&gt;Node3</title>
<path fill="none" stroke="midnightblue" d="M296.28,-21C304.73,-21 313.38,-21 321.96,-21"/>
<polygon fill="midnightblue" stroke="midnightblue" points="321.99,-24.5 331.99,-21 321.99,-17.5 321.99,-24.5"/>
</g>
</g>
</svg>
