<?xml version="1.0" encoding="UTF-8" standalone="no"?>
<!DOCTYPE svg PUBLIC "-//W3C//DTD SVG 1.1//EN"
 "http://www.w3.org/Graphics/SVG/1.1/DTD/svg11.dtd">
<!-- Generated by graphviz version 2.43.0 (0)
 -->
<!-- Title: unilink::transport::TcpServer Pages: 1 -->
<svg width="302pt" height="539pt"
 viewBox="0.00 0.00 301.50 539.00" xmlns="http://www.w3.org/2000/svg" xmlns:xlink="http://www.w3.org/1999/xlink">
<g id="graph0" class="graph" transform="scale(1 1) rotate(0) translate(4 535)">
<title>unilink::transport::TcpServer</title>
<!-- Node1 -->
<g id="Node000001" class="node">
<title>Node1</title>
<g id="a_Node000001"><a xlink:title="Thread&#45;safe TCP Server implementation.">
<polygon fill="#999999" stroke="transparent" points="221,-240 78,-240 78,0 221,0 221,-240"/>
<text text-anchor="start" x="108" y="-228" font-family="Helvetica,sans-Serif" font-size="10.00">unilink::transport</text>
<text text-anchor="start" x="123" y="-217" font-family="Helvetica,sans-Serif" font-size="10.00">::TcpServer</text>
<text text-anchor="start" x="148" y="-202" font-family="Helvetica,sans-Serif" font-size="10.00"> </text>
<text text-anchor="start" x="82.5" y="-187" font-family="Helvetica,sans-Serif" font-size="10.00">+</text>
<text text-anchor="start" x="95.5" y="-187" font-family="Helvetica,sans-Serif" font-size="10.00">~TcpServer()</text>
<text text-anchor="start" x="82.5" y="-172" font-family="Helvetica,sans-Serif" font-size="10.00">+</text>
<text text-anchor="start" x="95.5" y="-172" font-family="Helvetica,sans-Serif" font-size="10.00">TcpServer()</text>
<text text-anchor="start" x="82.5" y="-157" font-family="Helvetica,sans-Serif" font-size="10.00">+</text>
<text text-anchor="start" x="95.5" y="-157" font-family="Helvetica,sans-Serif" font-size="10.00">operator=()</text>
<text text-anchor="start" x="82.5" y="-142" font-family="Helvetica,sans-Serif" font-size="10.00">+</text>
<text text-anchor="start" x="95.5" y="-142" font-family="Helvetica,sans-Serif" font-size="10.00">TcpServer()</text>
<text text-anchor="start" x="82.5" y="-127" font-family="Helvetica,sans-Serif" font-size="10.00">+</text>
<text text-anchor="start" x="95.5" y="-127" font-family="Helvetica,sans-Serif" font-size="10.00">operator=()</text>
<text text-anchor="start" x="82.5" y="-112" font-family="Helvetica,sans-Serif" font-size="10.00">+</text>
<text text-anchor="start" x="95.5" y="-112" font-family="Helvetica,sans-Serif" font-size="10.00">start()</text>
<text text-anchor="start" x="82.5" y="-97" font-family="Helvetica,sans-Serif" font-size="10.00">+</text>
<text text-anchor="start" x="95.5" y="-97" font-family="Helvetica,sans-Serif" font-size="10.00">stop()</text>
<text text-anchor="start" x="82.5" y="-82" font-family="Helvetica,sans-Serif" font-size="10.00">+</text>
<text text-anchor="start" x="95.5" y="-82" font-family="Helvetica,sans-Serif" font-size="10.00">is_connected()</text>
<text text-anchor="start" x="82.5" y="-67" font-family="Helvetica,sans-Serif" font-size="10.00">+</text>
<text text-anchor="start" x="95.5" y="-67" font-family="Helvetica,sans-Serif" font-size="10.00">is_backpressure_active()</text>
<text text-anchor="start" x="82.5" y="-52" font-family="Helvetica,sans-Serif" font-size="10.00">+</text>
<text text-anchor="start" x="95.5" y="-52" font-family="Helvetica,sans-Serif" font-size="10.00">is_backpressure_active()</text>
<text text-anchor="start" x="95.5" y="-37" font-family="Helvetica,sans-Serif" font-size="10.00">and 21 more...</text>
<text text-anchor="start" x="82.5" y="-22" font-family="Helvetica,sans-Serif" font-size="10.00">+</text>
<text text-anchor="start" x="95.5" y="-22" font-family="Helvetica,sans-Serif" font-size="10.00">create()</text>
<text text-anchor="start" x="82.5" y="-7" font-family="Helvetica,sans-Serif" font-size="10.00">+</text>
<text text-anchor="start" x="95.5" y="-7" font-family="Helvetica,sans-Serif" font-size="10.00">create()</text>
<polygon fill="#666666" stroke="#666666" points="78.5,-212 78.5,-212 221.5,-212 221.5,-212 78.5,-212"/>
<polygon fill="#666666" stroke="#666666" points="78.5,-197 78.5,-197 221.5,-197 221.5,-197 78.5,-197"/>
<polygon fill="none" stroke="#666666" points="78,0 78,-240 221,-240 221,0 78,0"/>
</a>
</g>
</g>
<!-- Node2 -->
<g id="Node000002" class="node">
<title>Node2</title>
<g id="a_Node000002"><a xlink:href="classunilink_1_1interface_1_1Channel.html" target="_top" xlink:title=" ">
<polygon fill="white" stroke="transparent" points="143,-531 0,-531 0,-276 143,-276 143,-531"/>
<text text-anchor="start" x="30.5" y="-518.5" font-family="Helvetica,sans-Serif" font-size="10.00">unilink::interface</text>
<text text-anchor="start" x="49" y="-507.5" font-family="Helvetica,sans-Serif" font-size="10.00">::Channel</text>
<text text-anchor="start" x="70" y="-492.5" font-family="Helvetica,sans-Serif" font-size="10.00"> </text>
<text text-anchor="start" x="4.5" y="-477.5" font-family="Helvetica,sans-Serif" font-size="10.00">+</text>
<text text-anchor="start" x="17.5" y="-477.5" font-family="Helvetica,sans-Serif" font-size="10.00">~Channel()</text>
<text text-anchor="start" x="4.5" y="-462.5" font-family="Helvetica,sans-Serif" font-size="10.00">+</text>
<text text-anchor="start" x="17.5" y="-462.5" font-family="Helvetica,sans-Serif" font-size="10.00">start()</text>
<text text-anchor="start" x="4.5" y="-447.5" font-family="Helvetica,sans-Serif" font-size="10.00">+</text>
<text text-anchor="start" x="17.5" y="-447.5" font-family="Helvetica,sans-Serif" font-size="10.00">stop()</text>
<text text-anchor="start" x="4.5" y="-432.5" font-family="Helvetica,sans-Serif" font-size="10.00">+</text>
<text text-anchor="start" x="17.5" y="-432.5" font-family="Helvetica,sans-Serif" font-size="10.00">is_connected()</text>
<text text-anchor="start" x="4.5" y="-417.5" font-family="Helvetica,sans-Serif" font-size="10.00">+</text>
<text text-anchor="start" x="17.5" y="-417.5" font-family="Helvetica,sans-Serif" font-size="10.00">is_backpressure_active()</text>
<text text-anchor="start" x="4.5" y="-402.5" font-family="Helvetica,sans-Serif" font-size="10.00">+</text>
<text text-anchor="start" x="17.5" y="-402.5" font-family="Helvetica,sans-Serif" font-size="10.00">stats()</text>
<text text-anchor="start" x="4.5" y="-387.5" font-family="Helvetica,sans-Serif" font-size="10.00">+</text>
<text text-anchor="start" x="17.5" y="-387.5" font-family="Helvetica,sans-Serif" font-size="10.00">reset_stats()</text>
<text text-anchor="start" x="4.5" y="-372.5" font-family="Helvetica,sans-Serif" font-size="10.00">+</text>
<text text-anchor="start" x="17.5" y="-372.5" font-family="Helvetica,sans-Serif" font-size="10.00">get_executor()</text>
<text text-anchor="start" x="4.5" y="-357.5" font-family="Helvetica,sans-Serif" font-size="10.00">+</text>
<text text-anchor="start" x="17.5" y="-357.5" font-family="Helvetica,sans-Serif" font-size="10.00">async_write_copy()</text>
<text text-anchor="start" x="4.5" y="-342.5" font-family="Helvetica,sans-Serif" font-size="10.00">+</text>
<text text-anchor="start" x="17.5" y="-342.5" font-family="Helvetica,sans-Serif" font-size="10.00">async_write_move()</text>
<text text-anchor="start" x="4.5" y="-327.5" font-family="Helvetica,sans-Serif" font-size="10.00">+</text>
<text text-anchor="start" x="17.5" y="-327.5" font-family="Helvetica,sans-Serif" font-size="10.00">async_write_shared()</text>
<text text-anchor="start" x="4.5" y="-312.5" font-family="Helvetica,sans-Serif" font-size="10.00">+</text>
<text text-anchor="start" x="17.5" y="-312.5" font-family="Helvetica,sans-Serif" font-size="10.00">on_bytes()</text>
<text text-anchor="start" x="4.5" y="-297.5" font-family="Helvetica,sans-Serif" font-size="10.00">+</text>
<text text-anchor="start" x="17.5" y="-297.5" font-family="Helvetica,sans-Serif" font-size="10.00">on_state()</text>
<text text-anchor="start" x="4.5" y="-282.5" font-family="Helvetica,sans-Serif" font-size="10.00">+</text>
<text text-anchor="start" x="17.5" y="-282.5" font-family="Helvetica,sans-Serif" font-size="10.00">on_backpressure()</text>
<polygon fill="#666666" stroke="#666666" points="0.5,-502.5 0.5,-502.5 143.5,-502.5 143.5,-502.5 0.5,-502.5"/>
<polygon fill="#666666" stroke="#666666" points="0.5,-487.5 0.5,-487.5 143.5,-487.5 143.5,-487.5 0.5,-487.5"/>
<polygon fill="none" stroke="#666666" points="0,-276 0,-531 143,-531 143,-276 0,-276"/>
</a>
</g>
</g>
<!-- Node2&#45;&gt;Node1 -->
<g id="edge1_Node000001_Node000002" class="edge">
<title>Node2&#45;&gt;Node1</title>
<g id="a_edge1_Node000001_Node000002"><a xlink:title=" ">
<path fill="none" stroke="#63b8ff" d="M109.31,-266.03C111.7,-257.41 114.1,-248.76 116.46,-240.23"/>
<polygon fill="none" stroke="#63b8ff" points="105.92,-265.18 106.62,-275.75 112.66,-267.05 105.92,-265.18"/>
</a>
</g>
</g>
<!-- Node3 -->
<g id="Node000003" class="node">
<title>Node3</title>
<g id="a_Node000003"><a xlink:title=" ">
<polygon fill="white" stroke="transparent" points="293.5,-433.5 161.5,-433.5 161.5,-373.5 293.5,-373.5 293.5,-433.5"/>
<text text-anchor="start" x="166.5" y="-421.5" font-family="Helvetica,sans-Serif" font-size="10.00">std::enable_shared</text>
<text text-anchor="start" x="166.5" y="-410.5" font-family="Helvetica,sans-Serif" font-size="10.00">_from_this&lt; TcpServer &gt;</text>
<text text-anchor="start" x="225.5" y="-395.5" font-family="Helvetica,sans-Serif" font-size="10.00"> </text>
<text text-anchor="start" x="225.5" y="-380.5" font-family="Helvetica,sans-Serif" font-size="10.00"> </text>
<polygon fill="#666666" stroke="#666666" points="161.5,-405.5 161.5,-405.5 293.5,-405.5 293.5,-405.5 161.5,-405.5"/>
<polygon fill="#666666" stroke="#666666" points="161.5,-390.5 161.5,-390.5 293.5,-390.5 293.5,-390.5 161.5,-390.5"/>
<polygon fill="none" stroke="#666666" points="161.5,-373.5 161.5,-433.5 293.5,-433.5 293.5,-373.5 161.5,-373.5"/>
</a>
</g>
</g>
<!-- Node3&#45;&gt;Node1 -->
<g id="edge2_Node000001_Node000003" class="edge">
<title>Node3&#45;&gt;Node1</title>
<g id="a_edge2_Node000001_Node000003"><a xlink:title=" ">
<path fill="none" stroke="#63b8ff" d="M216.72,-363.6C207.85,-331.59 194.79,-284.46 182.54,-240.24"/>
<polygon fill="none" stroke="#63b8ff" points="213.4,-364.73 219.45,-373.43 220.15,-362.86 213.4,-364.73"/>
</a>
</g>
</g>
</g>
</svg>
