<?xml version="1.0" encoding="UTF-8" standalone="no"?>
<!DOCTYPE svg PUBLIC "-//W3C//DTD SVG 1.1//EN"
 "http://www.w3.org/Graphics/SVG/1.1/DTD/svg11.dtd">
<!-- Generated by graphviz version 2.43.0 (0)
 -->
<!-- Title: unilink::diagnostics::level_range_sink Pages: 1 -->
<svg width="120pt" height="213pt"
 viewBox="0.00 0.00 120.00 213.00" xmlns="http://www.w3.org/2000/svg" xmlns:xlink="http://www.w3.org/1999/xlink">
<g id="graph0" class="graph" transform="scale(1 1) rotate(0) translate(4 209)">
<title>unilink::diagnostics::level_range_sink</title>
<!-- Node1 -->
<g id="Node000001" class="node">
<title>Node1</title>
<g id="a_Node000001"><a xlink:title=" ">
<polygon fill="#999999" stroke="transparent" points="112,-120 0,-120 0,0 112,0 112,-120"/>
<text text-anchor="start" x="8.5" y="-108" font-family="Helvetica,sans-Serif" font-size="10.00">unilink::diagnostics</text>
<text text-anchor="start" x="11.5" y="-97" font-family="Helvetica,sans-Serif" font-size="10.00">::level_range_sink</text>
<text text-anchor="start" x="54" y="-82" font-family="Helvetica,sans-Serif" font-size="10.00"> </text>
<text text-anchor="start" x="4" y="-67" font-family="Helvetica,sans-Serif" font-size="10.00">+</text>
<text text-anchor="start" x="17" y="-67" font-family="Helvetica,sans-Serif" font-size="10.00">level_range_sink()</text>
<text text-anchor="start" x="4" y="-52" font-family="Helvetica,sans-Serif" font-size="10.00">+</text>
<text text-anchor="start" x="17" y="-52" font-family="Helvetica,sans-Serif" font-size="10.00">log()</text>
<text text-anchor="start" x="4" y="-37" font-family="Helvetica,sans-Serif" font-size="10.00">+</text>
<text text-anchor="start" x="17" y="-37" font-family="Helvetica,sans-Serif" font-size="10.00">flush()</text>
<text text-anchor="start" x="4" y="-22" font-family="Helvetica,sans-Serif" font-size="10.00">+</text>
<text text-anchor="start" x="17" y="-22" font-family="Helvetica,sans-Serif" font-size="10.00">set_pattern()</text>
<text text-anchor="start" x="4" y="-7" font-family="Helvetica,sans-Serif" font-size="10.00">+</text>
<text text-anchor="start" x="17" y="-7" font-family="Helvetica,sans-Serif" font-size="10.00">set_formatter()</text>
<polygon fill="#666666" stroke="#666666" points="0,-92 0,-92 112,-92 112,-92 0,-92"/>
<polygon fill="#666666" stroke="#666666" points="0,-77 0,-77 112,-77 112,-77 0,-77"/>
<polygon fill="none" stroke="#666666" points="0,0 0,-120 112,-120 112,0 0,0"/>
</a>
</g>
</g>
<!-- Node2 -->
<g id="Node000002" class="node">
<title>Node2</title>
<g id="a_Node000002"><a xlink:title=" ">
<polygon fill="white" stroke="transparent" points="106.5,-205 5.5,-205 5.5,-156 106.5,-156 106.5,-205"/>
<text text-anchor="start" x="11" y="-192.5" font-family="Helvetica,sans-Serif" font-size="10.00">spdlog::sinks::sink</text>
<text text-anchor="start" x="54.5" y="-177.5" font-family="Helvetica,sans-Serif" font-size="10.00"> </text>
<text text-anchor="start" x="54.5" y="-162.5" font-family="Helvetica,sans-Serif" font-size="10.00"> </text>
<polygon fill="#666666" stroke="#666666" points="6,-187.5 6,-187.5 107,-187.5 107,-187.5 6,-187.5"/>
<polygon fill="#666666" stroke="#666666" points="6,-172.5 6,-172.5 107,-172.5 107,-172.5 6,-172.5"/>
<polygon fill="none" stroke="#666666" points="5.5,-156 5.5,-205 106.5,-205 106.5,-156 5.5,-156"/>
</a>
</g>
</g>
<!-- Node2&#45;&gt;Node1 -->
<g id="edge1_Node000001_Node000002" class="edge">
<title>Node2&#45;&gt;Node1</title>
<g id="a_edge1_Node000001_Node000002"><a xlink:title=" ">
<path fill="none" stroke="#63b8ff" d="M56,-145.59C56,-137.71 56,-129.09 56,-120.47"/>
<polygon fill="none" stroke="#63b8ff" points="52.5,-145.8 56,-155.8 59.5,-145.8 52.5,-145.8"/>
</a>
</g>
</g>
</g>
</svg>
