<?xml version="1.0" encoding="UTF-8" standalone="no"?>
<!DOCTYPE svg PUBLIC "-//W3C//DTD SVG 1.1//EN"
 "http://www.w3.org/Graphics/SVG/1.1/DTD/svg11.dtd">
<!-- Generated by graphviz version 2.43.0 (0)
 -->
<!-- Title: unilink::wrapper::ChannelInterface Pages: 1 -->
<!--zoomable 513 -->

<svg id="main" version="1.1" xmlns="http://www.w3.org/2000/svg" xmlns:xlink="http://www.w3.org/1999/xlink" xml:space="preserve" onload="init(evt)">
<style type="text/css"><![CDATA[
.node, .edge {opacity: 0.7;}
.node.selected, .edge.selected {opacity: 1;}
.edge:hover path { stroke: red; }
.edge:hover polygon { stroke: red; fill: red; }
]]></style>

<defs>
  <circle id="rim" cx="0" cy="0" r="7"/>
  <circle id="rim2" cx="0" cy="0" r="3.5"/>
  <g id="zoomPlus">
    <use xlink:href="#rim" fill="#404040"><set attributeName="fill" to="#808080" begin="zoomplus.mouseover" end="zoomplus.mouseout"/></use>
    <path d="M-4,0h8M0,-4v8" fill="none" stroke="white" stroke-width="1.5" pointer-events="none"/>
  </g>
  <g id="zoomMin">
    <use xlink:href="#rim" fill="#404040"><set attributeName="fill" to="#808080" begin="zoomminus.mouseover" end="zoomminus.mouseout"/></use>
    <path d="M-4,0h8" fill="none" stroke="white" stroke-width="1.5" pointer-events="none"/>
  </g>
  <g id="arrowUp" transform="translate(30 24)">
    <use xlink:href="#rim"/>
    <path pointer-events="none" fill="none" stroke="white" stroke-width="1.5" d="M0,-3.0v7 M-2.5,-0.5L0,-3.0L2.5,-0.5"/>
  </g>
  <g id="arrowRight" transform="rotate(90) translate(36 -43)">
    <use xlink:href="#rim"/>
    <path pointer-events="none" fill="none" stroke="white" stroke-width="1.5" d="M0,-3.0v7 M-2.5,-0.5L0,-3.0L2.5,-0.5"/>
  </g>
  <g id="arrowDown" transform="rotate(180) translate(-30 -48)">
    <use xlink:href="#rim"/>
    <path pointer-events="none" fill="none" stroke="white" stroke-width="1.5" d="M0,-3.0v7 M-2.5,-0.5L0,-3.0L2.5,-0.5"/>
  </g>
  <g id="arrowLeft" transform="rotate(270) translate(-36 17)">
    <use xlink:href="#rim"/>
    <path pointer-events="none" fill="none" stroke="white" stroke-width="1.5" d="M0,-3.0v7 M-2.5,-0.5L0,-3.0L2.5,-0.5"/>
  </g>
  <g id="resetDef">
    <use xlink:href="#rim2" fill="#404040"><set attributeName="fill" to="#808080" begin="reset.mouseover" end="reset.mouseout"/></use>
  </g>
</defs>
<script type="application/ecmascript">
var viewWidth = 612;
var viewHeight = 513;
var sectionId = 'dynsection-0';
</script>
<script type="application/ecmascript" xlink:href="svg.min.js"/>
<svg id="graph" class="graph">
<g id="viewport">
<title>unilink::wrapper::ChannelInterface</title>
<!-- Node1 -->
<g id="Node000001" class="node">
<title>Node1</title>
<g id="a_Node000001"><a xlink:title="Common interface for 1:1 point&#45;to&#45;point communication (e.g., TcpClient, Serial, Udp)">
<polygon fill="#999999" stroke="transparent" points="359,-505 224,-505 224,-250 359,-250 359,-505"/>
<text text-anchor="start" x="229.5" y="-492.5" font-family="Helvetica,sans-Serif" font-size="10.00">unilink::wrapper::Channel</text>
<text text-anchor="start" x="270" y="-481.5" font-family="Helvetica,sans-Serif" font-size="10.00">Interface</text>
<text text-anchor="start" x="290" y="-466.5" font-family="Helvetica,sans-Serif" font-size="10.00"> </text>
<text text-anchor="start" x="232" y="-451.5" font-family="Helvetica,sans-Serif" font-size="10.00">+</text>
<text text-anchor="start" x="248.5" y="-451.5" font-family="Helvetica,sans-Serif" font-size="10.00">~ChannelInterface()</text>
<text text-anchor="start" x="232" y="-436.5" font-family="Helvetica,sans-Serif" font-size="10.00">+</text>
<text text-anchor="start" x="248.5" y="-436.5" font-family="Helvetica,sans-Serif" font-size="10.00">start()</text>
<text text-anchor="start" x="232" y="-421.5" font-family="Helvetica,sans-Serif" font-size="10.00">+</text>
<text text-anchor="start" x="248.5" y="-421.5" font-family="Helvetica,sans-Serif" font-size="10.00">start_sync()</text>
<text text-anchor="start" x="232" y="-406.5" font-family="Helvetica,sans-Serif" font-size="10.00">+</text>
<text text-anchor="start" x="248.5" y="-406.5" font-family="Helvetica,sans-Serif" font-size="10.00">stop()</text>
<text text-anchor="start" x="232" y="-391.5" font-family="Helvetica,sans-Serif" font-size="10.00">+</text>
<text text-anchor="start" x="248.5" y="-391.5" font-family="Helvetica,sans-Serif" font-size="10.00">connected()</text>
<text text-anchor="start" x="232" y="-376.5" font-family="Helvetica,sans-Serif" font-size="10.00">+</text>
<text text-anchor="start" x="248.5" y="-376.5" font-family="Helvetica,sans-Serif" font-size="10.00">send()</text>
<text text-anchor="start" x="232" y="-361.5" font-family="Helvetica,sans-Serif" font-size="10.00">+</text>
<text text-anchor="start" x="248.5" y="-361.5" font-family="Helvetica,sans-Serif" font-size="10.00">send_line()</text>
<text text-anchor="start" x="232" y="-346.5" font-family="Helvetica,sans-Serif" font-size="10.00">+</text>
<text text-anchor="start" x="248.5" y="-346.5" font-family="Helvetica,sans-Serif" font-size="10.00">on_data()</text>
<text text-anchor="start" x="232" y="-331.5" font-family="Helvetica,sans-Serif" font-size="10.00">+</text>
<text text-anchor="start" x="248.5" y="-331.5" font-family="Helvetica,sans-Serif" font-size="10.00">on_connect()</text>
<text text-anchor="start" x="232" y="-316.5" font-family="Helvetica,sans-Serif" font-size="10.00">+</text>
<text text-anchor="start" x="248.5" y="-316.5" font-family="Helvetica,sans-Serif" font-size="10.00">on_disconnect()</text>
<text text-anchor="start" x="232" y="-301.5" font-family="Helvetica,sans-Serif" font-size="10.00">+</text>
<text text-anchor="start" x="248.5" y="-301.5" font-family="Helvetica,sans-Serif" font-size="10.00">on_error()</text>
<text text-anchor="start" x="232" y="-286.5" font-family="Helvetica,sans-Serif" font-size="10.00">+</text>
<text text-anchor="start" x="248.5" y="-286.5" font-family="Helvetica,sans-Serif" font-size="10.00">framer()</text>
<text text-anchor="start" x="232" y="-271.5" font-family="Helvetica,sans-Serif" font-size="10.00">+</text>
<text text-anchor="start" x="248.5" y="-271.5" font-family="Helvetica,sans-Serif" font-size="10.00">on_message()</text>
<text text-anchor="start" x="232" y="-256.5" font-family="Helvetica,sans-Serif" font-size="10.00">+</text>
<text text-anchor="start" x="248.5" y="-256.5" font-family="Helvetica,sans-Serif" font-size="10.00">auto_start()</text>
<polygon fill="#666666" stroke="#666666" points="224.5,-476.5 224.5,-476.5 359.5,-476.5 359.5,-476.5 224.5,-476.5"/>
<polygon fill="#666666" stroke="#666666" points="224.5,-461.5 224.5,-461.5 359.5,-461.5 359.5,-461.5 224.5,-461.5"/>
<polygon fill="none" stroke="#666666" points="224,-250 224,-505 359,-505 359,-250 224,-250"/>
</a>
</g>
</g>
<!-- Node2 -->
<g id="Node000002" class="node">
<title>Node2</title>
<g id="a_Node000002"><a xlink:href="classunilink_1_1wrapper_1_1Serial.html" target="_top" xlink:title="Modernized Serial Wrapper.">
<polygon fill="white" stroke="transparent" points="123,-214 0,-214 0,0 123,0 123,-214"/>
<text text-anchor="start" x="5.5" y="-202" font-family="Helvetica,sans-Serif" font-size="10.00">unilink::wrapper::Serial</text>
<text text-anchor="start" x="60" y="-187" font-family="Helvetica,sans-Serif" font-size="10.00"> </text>
<text text-anchor="start" x="12" y="-172" font-family="Helvetica,sans-Serif" font-size="10.00">+</text>
<text text-anchor="start" x="32.5" y="-172" font-family="Helvetica,sans-Serif" font-size="10.00">Serial()</text>
<text text-anchor="start" x="12" y="-157" font-family="Helvetica,sans-Serif" font-size="10.00">+</text>
<text text-anchor="start" x="32.5" y="-157" font-family="Helvetica,sans-Serif" font-size="10.00">Serial()</text>
<text text-anchor="start" x="12" y="-142" font-family="Helvetica,sans-Serif" font-size="10.00">+</text>
<text text-anchor="start" x="32.5" y="-142" font-family="Helvetica,sans-Serif" font-size="10.00">Serial()</text>
<text text-anchor="start" x="12" y="-127" font-family="Helvetica,sans-Serif" font-size="10.00">+</text>
<text text-anchor="start" x="32.5" y="-127" font-family="Helvetica,sans-Serif" font-size="10.00">~Serial()</text>
<text text-anchor="start" x="12" y="-112" font-family="Helvetica,sans-Serif" font-size="10.00">+</text>
<text text-anchor="start" x="32.5" y="-112" font-family="Helvetica,sans-Serif" font-size="10.00">Serial()</text>
<text text-anchor="start" x="12" y="-97" font-family="Helvetica,sans-Serif" font-size="10.00">+</text>
<text text-anchor="start" x="32.5" y="-97" font-family="Helvetica,sans-Serif" font-size="10.00">operator=()</text>
<text text-anchor="start" x="12" y="-82" font-family="Helvetica,sans-Serif" font-size="10.00">+</text>
<text text-anchor="start" x="32.5" y="-82" font-family="Helvetica,sans-Serif" font-size="10.00">Serial()</text>
<text text-anchor="start" x="12" y="-67" font-family="Helvetica,sans-Serif" font-size="10.00">+</text>
<text text-anchor="start" x="32.5" y="-67" font-family="Helvetica,sans-Serif" font-size="10.00">operator=()</text>
<text text-anchor="start" x="12" y="-52" font-family="Helvetica,sans-Serif" font-size="10.00">+</text>
<text text-anchor="start" x="32.5" y="-52" font-family="Helvetica,sans-Serif" font-size="10.00">start()</text>
<text text-anchor="start" x="12" y="-37" font-family="Helvetica,sans-Serif" font-size="10.00">+</text>
<text text-anchor="start" x="32.5" y="-37" font-family="Helvetica,sans-Serif" font-size="10.00">stop()</text>
<text text-anchor="start" x="32.5" y="-22" font-family="Helvetica,sans-Serif" font-size="10.00">and 17 more...</text>
<text text-anchor="start" x="12" y="-7" font-family="Helvetica,sans-Serif" font-size="10.00">#</text>
<text text-anchor="start" x="32.5" y="-7" font-family="Helvetica,sans-Serif" font-size="10.00">build_config()</text>
<polygon fill="#666666" stroke="#666666" points="0.5,-197 0.5,-197 123.5,-197 123.5,-197 0.5,-197"/>
<polygon fill="#666666" stroke="#666666" points="0.5,-182 0.5,-182 123.5,-182 123.5,-182 0.5,-182"/>
<polygon fill="none" stroke="#666666" points="0,0 0,-214 123,-214 123,0 0,0"/>
</a>
</g>
</g>
<!-- Node1&#45;&gt;Node2 -->
<g id="edge1_Node000001_Node000002" class="edge">
<title>Node1&#45;&gt;Node2</title>
<g id="a_edge1_Node000001_Node000002"><a xlink:title=" ">
<path fill="none" stroke="#63b8ff" d="M216.33,-305.41C188.77,-277.9 158.09,-245.49 132.5,-214 129.36,-210.13 126.22,-206.13 123.11,-202.03"/>
<polygon fill="none" stroke="#63b8ff" points="214.07,-308.1 223.63,-312.66 219,-303.13 214.07,-308.1"/>
</a>
</g>
</g>
<!-- Node3 -->
<g id="Node000003" class="node">
<title>Node3</title>
<g id="a_Node000003"><a xlink:href="classunilink_1_1wrapper_1_1TcpClient.html" target="_top" xlink:title="Modernized TCP Client Wrapper.">
<polygon fill="white" stroke="transparent" points="281.5,-206.5 141.5,-206.5 141.5,-7.5 281.5,-7.5 281.5,-206.5"/>
<text text-anchor="start" x="146.5" y="-194" font-family="Helvetica,sans-Serif" font-size="10.00">unilink::wrapper::TcpClient</text>
<text text-anchor="start" x="209.5" y="-179" font-family="Helvetica,sans-Serif" font-size="10.00"> </text>
<text text-anchor="start" x="157.5" y="-164" font-family="Helvetica,sans-Serif" font-size="10.00">+</text>
<text text-anchor="start" x="182.5" y="-164" font-family="Helvetica,sans-Serif" font-size="10.00">TcpClient()</text>
<text text-anchor="start" x="157.5" y="-149" font-family="Helvetica,sans-Serif" font-size="10.00">+</text>
<text text-anchor="start" x="182.5" y="-149" font-family="Helvetica,sans-Serif" font-size="10.00">TcpClient()</text>
<text text-anchor="start" x="157.5" y="-134" font-family="Helvetica,sans-Serif" font-size="10.00">+</text>
<text text-anchor="start" x="182.5" y="-134" font-family="Helvetica,sans-Serif" font-size="10.00">TcpClient()</text>
<text text-anchor="start" x="157.5" y="-119" font-family="Helvetica,sans-Serif" font-size="10.00">+</text>
<text text-anchor="start" x="182.5" y="-119" font-family="Helvetica,sans-Serif" font-size="10.00">~TcpClient()</text>
<text text-anchor="start" x="157.5" y="-104" font-family="Helvetica,sans-Serif" font-size="10.00">+</text>
<text text-anchor="start" x="182.5" y="-104" font-family="Helvetica,sans-Serif" font-size="10.00">TcpClient()</text>
<text text-anchor="start" x="157.5" y="-89" font-family="Helvetica,sans-Serif" font-size="10.00">+</text>
<text text-anchor="start" x="182.5" y="-89" font-family="Helvetica,sans-Serif" font-size="10.00">operator=()</text>
<text text-anchor="start" x="157.5" y="-74" font-family="Helvetica,sans-Serif" font-size="10.00">+</text>
<text text-anchor="start" x="182.5" y="-74" font-family="Helvetica,sans-Serif" font-size="10.00">TcpClient()</text>
<text text-anchor="start" x="157.5" y="-59" font-family="Helvetica,sans-Serif" font-size="10.00">+</text>
<text text-anchor="start" x="182.5" y="-59" font-family="Helvetica,sans-Serif" font-size="10.00">operator=()</text>
<text text-anchor="start" x="157.5" y="-44" font-family="Helvetica,sans-Serif" font-size="10.00">+</text>
<text text-anchor="start" x="182.5" y="-44" font-family="Helvetica,sans-Serif" font-size="10.00">start()</text>
<text text-anchor="start" x="157.5" y="-29" font-family="Helvetica,sans-Serif" font-size="10.00">+</text>
<text text-anchor="start" x="182.5" y="-29" font-family="Helvetica,sans-Serif" font-size="10.00">stop()</text>
<text text-anchor="start" x="182.5" y="-14" font-family="Helvetica,sans-Serif" font-size="10.00">and 14 more...</text>
<polygon fill="#666666" stroke="#666666" points="141.5,-189 141.5,-189 281.5,-189 281.5,-189 141.5,-189"/>
<polygon fill="#666666" stroke="#666666" points="141.5,-174 141.5,-174 281.5,-174 281.5,-174 141.5,-174"/>
<polygon fill="none" stroke="#666666" points="141.5,-7.5 141.5,-206.5 281.5,-206.5 281.5,-7.5 141.5,-7.5"/>
</a>
</g>
</g>
<!-- Node1&#45;&gt;Node3 -->
<g id="edge2_Node000001_Node000003" class="edge">
<title>Node1&#45;&gt;Node3</title>
<g id="a_edge2_Node000001_Node000003"><a xlink:title=" ">
<path fill="none" stroke="#63b8ff" d="M250.81,-239.93C247.49,-228.78 244.17,-217.66 240.96,-206.86"/>
<polygon fill="none" stroke="#63b8ff" points="247.52,-241.14 253.73,-249.72 254.22,-239.14 247.52,-241.14"/>
</a>
</g>
</g>
<!-- Node4 -->
<g id="Node000004" class="node">
<title>Node4</title>
<g id="a_Node000004"><a xlink:href="classunilink_1_1wrapper_1_1UdpClient.html" target="_top" xlink:title="Modernized UDP Wrapper.">
<polygon fill="white" stroke="transparent" points="443,-206.5 300,-206.5 300,-7.5 443,-7.5 443,-206.5"/>
<text text-anchor="start" x="305.5" y="-194" font-family="Helvetica,sans-Serif" font-size="10.00">unilink::wrapper::UdpClient</text>
<text text-anchor="start" x="370" y="-179" font-family="Helvetica,sans-Serif" font-size="10.00"> </text>
<text text-anchor="start" x="317" y="-164" font-family="Helvetica,sans-Serif" font-size="10.00">+</text>
<text text-anchor="start" x="342.5" y="-164" font-family="Helvetica,sans-Serif" font-size="10.00">UdpClient()</text>
<text text-anchor="start" x="317" y="-149" font-family="Helvetica,sans-Serif" font-size="10.00">+</text>
<text text-anchor="start" x="342.5" y="-149" font-family="Helvetica,sans-Serif" font-size="10.00">UdpClient()</text>
<text text-anchor="start" x="317" y="-134" font-family="Helvetica,sans-Serif" font-size="10.00">+</text>
<text text-anchor="start" x="342.5" y="-134" font-family="Helvetica,sans-Serif" font-size="10.00">UdpClient()</text>
<text text-anchor="start" x="317" y="-119" font-family="Helvetica,sans-Serif" font-size="10.00">+</text>
<text text-anchor="start" x="342.5" y="-119" font-family="Helvetica,sans-Serif" font-size="10.00">~UdpClient()</text>
<text text-anchor="start" x="317" y="-104" font-family="Helvetica,sans-Serif" font-size="10.00">+</text>
<text text-anchor="start" x="342.5" y="-104" font-family="Helvetica,sans-Serif" font-size="10.00">UdpClient()</text>
<text text-anchor="start" x="317" y="-89" font-family="Helvetica,sans-Serif" font-size="10.00">+</text>
<text text-anchor="start" x="342.5" y="-89" font-family="Helvetica,sans-Serif" font-size="10.00">operator=()</text>
<text text-anchor="start" x="317" y="-74" font-family="Helvetica,sans-Serif" font-size="10.00">+</text>
<text text-anchor="start" x="342.5" y="-74" font-family="Helvetica,sans-Serif" font-size="10.00">UdpClient()</text>
<text text-anchor="start" x="317" y="-59" font-family="Helvetica,sans-Serif" font-size="10.00">+</text>
<text text-anchor="start" x="342.5" y="-59" font-family="Helvetica,sans-Serif" font-size="10.00">operator=()</text>
<text text-anchor="start" x="317" y="-44" font-family="Helvetica,sans-Serif" font-size="10.00">+</text>
<text text-anchor="start" x="342.5" y="-44" font-family="Helvetica,sans-Serif" font-size="10.00">start()</text>
<text text-anchor="start" x="317" y="-29" font-family="Helvetica,sans-Serif" font-size="10.00">+</text>
<text text-anchor="start" x="342.5" y="-29" font-family="Helvetica,sans-Serif" font-size="10.00">stop()</text>
<text text-anchor="start" x="342.5" y="-14" font-family="Helvetica,sans-Serif" font-size="10.00">and 11 more...</text>
<polygon fill="#666666" stroke="#666666" points="300.5,-189 300.5,-189 443.5,-189 443.5,-189 300.5,-189"/>
<polygon fill="#666666" stroke="#666666" points="300.5,-174 300.5,-174 443.5,-174 443.5,-174 300.5,-174"/>
<polygon fill="none" stroke="#666666" points="300,-7.5 300,-206.5 443,-206.5 443,-7.5 300,-7.5"/>
</a>
</g>
</g>
<!-- Node1&#45;&gt;Node4 -->
<g id="edge3_Node000001_Node000004" class="edge">
<title>Node1&#45;&gt;Node4</title>
<g id="a_edge3_Node000001_Node000004"><a xlink:title=" ">
<path fill="none" stroke="#63b8ff" d="M332.19,-239.93C335.51,-228.78 338.83,-217.66 342.04,-206.86"/>
<polygon fill="none" stroke="#63b8ff" points="328.78,-239.14 329.27,-249.72 335.48,-241.14 328.78,-239.14"/>
</a>
</g>
</g>
<!-- Node5 -->
<g id="Node000005" class="node">
<title>Node5</title>
<g id="a_Node000005"><a xlink:href="classunilink_1_1wrapper_1_1UdsClient.html" target="_top" xlink:title="Modernized UDS Client Wrapper.">
<polygon fill="white" stroke="transparent" points="604,-206.5 461,-206.5 461,-7.5 604,-7.5 604,-206.5"/>
<text text-anchor="start" x="466.5" y="-194" font-family="Helvetica,sans-Serif" font-size="10.00">unilink::wrapper::UdsClient</text>
<text text-anchor="start" x="531" y="-179" font-family="Helvetica,sans-Serif" font-size="10.00"> </text>
<text text-anchor="start" x="478" y="-164" font-family="Helvetica,sans-Serif" font-size="10.00">+</text>
<text text-anchor="start" x="503.5" y="-164" font-family="Helvetica,sans-Serif" font-size="10.00">UdsClient()</text>
<text text-anchor="start" x="478" y="-149" font-family="Helvetica,sans-Serif" font-size="10.00">+</text>
<text text-anchor="start" x="503.5" y="-149" font-family="Helvetica,sans-Serif" font-size="10.00">UdsClient()</text>
<text text-anchor="start" x="478" y="-134" font-family="Helvetica,sans-Serif" font-size="10.00">+</text>
<text text-anchor="start" x="503.5" y="-134" font-family="Helvetica,sans-Serif" font-size="10.00">UdsClient()</text>
<text text-anchor="start" x="478" y="-119" font-family="Helvetica,sans-Serif" font-size="10.00">+</text>
<text text-anchor="start" x="503.5" y="-119" font-family="Helvetica,sans-Serif" font-size="10.00">~UdsClient()</text>
<text text-anchor="start" x="478" y="-104" font-family="Helvetica,sans-Serif" font-size="10.00">+</text>
<text text-anchor="start" x="503.5" y="-104" font-family="Helvetica,sans-Serif" font-size="10.00">UdsClient()</text>
<text text-anchor="start" x="478" y="-89" font-family="Helvetica,sans-Serif" font-size="10.00">+</text>
<text text-anchor="start" x="503.5" y="-89" font-family="Helvetica,sans-Serif" font-size="10.00">operator=()</text>
<text text-anchor="start" x="478" y="-74" font-family="Helvetica,sans-Serif" font-size="10.00">+</text>
<text text-anchor="start" x="503.5" y="-74" font-family="Helvetica,sans-Serif" font-size="10.00">UdsClient()</text>
<text text-anchor="start" x="478" y="-59" font-family="Helvetica,sans-Serif" font-size="10.00">+</text>
<text text-anchor="start" x="503.5" y="-59" font-family="Helvetica,sans-Serif" font-size="10.00">operator=()</text>
<text text-anchor="start" x="478" y="-44" font-family="Helvetica,sans-Serif" font-size="10.00">+</text>
<text text-anchor="start" x="503.5" y="-44" font-family="Helvetica,sans-Serif" font-size="10.00">start()</text>
<text text-anchor="start" x="478" y="-29" font-family="Helvetica,sans-Serif" font-size="10.00">+</text>
<text text-anchor="start" x="503.5" y="-29" font-family="Helvetica,sans-Serif" font-size="10.00">stop()</text>
<text text-anchor="start" x="503.5" y="-14" font-family="Helvetica,sans-Serif" font-size="10.00">and 14 more...</text>
<polygon fill="#666666" stroke="#666666" points="461.5,-189 461.5,-189 604.5,-189 604.5,-189 461.5,-189"/>
<polygon fill="#666666" stroke="#666666" points="461.5,-174 461.5,-174 604.5,-174 604.5,-174 461.5,-174"/>
<polygon fill="none" stroke="#666666" points="461,-7.5 461,-206.5 604,-206.5 604,-7.5 461,-7.5"/>
</a>
</g>
</g>
<!-- Node1&#45;&gt;Node5 -->
<g id="edge4_Node000001_Node000005" class="edge">
<title>Node1&#45;&gt;Node5</title>
<g id="a_edge4_Node000001_Node000005"><a xlink:title=" ">
<path fill="none" stroke="#63b8ff" d="M366.74,-304.74C394.55,-277.15 425.77,-244.87 452.5,-214 455.29,-210.78 458.1,-207.46 460.9,-204.09"/>
<polygon fill="none" stroke="#63b8ff" points="364.03,-302.49 359.38,-312.01 368.95,-307.47 364.03,-302.49"/>
</a>
</g>
</g>
</g>
</svg>

<g id="navigator" transform="translate(0 0)" fill="#404254">
  <rect fill="#f2f5e9" fill-opacity="0.5" stroke="#606060" stroke-width=".5" x="0" y="0" width="60" height="60"/>
  <use id="zoomplus" xlink:href="#zoomPlus" x="17" y="9" onmousedown="handleZoom(evt,'in')"/>
  <use id="zoomminus" xlink:href="#zoomMin" x="42" y="9" onmousedown="handleZoom(evt,'out')"/>
  <use id="reset" xlink:href="#resetDef" x="30" y="36" onmousedown="handleReset()"/>
   <use id="arrowup" xlink:href="#arrowUp" x="0" y="0" onmousedown="handlePan(0,-1)"/>
  <use id="arrowright" xlink:href="#arrowRight" x="0" y="0" onmousedown="handlePan(1,0)"/>
  <use id="arrowdown" xlink:href="#arrowDown" x="0" y="0" onmousedown="handlePan(0,1)"/>
  <use id="arrowleft" xlink:href="#arrowLeft" x="0" y="0" onmousedown="handlePan(-1,0)"/>
</g>
<svg viewBox="0 0 15 15" width="100%" height="30px" preserveAspectRatio="xMaxYMin meet">
 <g id="arrow_out" transform="scale(0.3 0.3)">
  <a xlink:href="classunilink_1_1wrapper_1_1ChannelInterface__inherit__graph_org.svg" target="_base">
   <rect id="button" ry="5" rx="5" y="6" x="6" height="38" width="38"
        fill="#f2f5e9" fill-opacity="0.5" stroke="#606060" stroke-width="1.0"/>
   <path id="arrow"
     d="M 11.500037,31.436501 C 11.940474,20.09759 22.043105,11.32322 32.158766,21.979434 L 37.068811,17.246167 C 37.068811,17.246167 37.088388,32 37.088388,32 L 22.160133,31.978069 C 22.160133,31.978069 26.997745,27.140456 26.997745,27.140456 C 18.528582,18.264221 13.291696,25.230495 11.500037,31.436501 z"
     style="fill:#404040;"/>
  </a>
 </g>
</svg>

<style type='text/css'>
<![CDATA[
[data-mouse-over-selected='false'] { opacity: 0.7; }
[data-mouse-over-selected='true']  { opacity: 1.0; }
]]>
</style>
<script type="application/ecmascript"><![CDATA[
document.addEventListener('DOMContentLoaded', (event) => {
  highlightEdges();
  highlightAdjacentNodes();
});
]]></script>
</svg>
