<?xml version="1.0" encoding="UTF-8" standalone="no"?>
<!DOCTYPE svg PUBLIC "-//W3C//DTD SVG 1.1//EN"
 "http://www.w3.org/Graphics/SVG/1.1/DTD/svg11.dtd">
<!-- Generated by graphviz version 2.43.0 (0)
 -->
<!-- Title: unilink::builder::TcpServerBuilder Pages: 1 -->
<!--zoomable 1111 -->

<svg id="main" version="1.1" xmlns="http://www.w3.org/2000/svg" xmlns:xlink="http://www.w3.org/1999/xlink" xml:space="preserve" onload="init(evt)">
<style type="text/css"><![CDATA[
.node, .edge {opacity: 0.7;}
.node.selected, .edge.selected {opacity: 1;}
.edge:hover path { stroke: red; }
.edge:hover polygon { stroke: red; fill: red; }
]]></style>

<defs>
  <circle id="rim" cx="0" cy="0" r="7"/>
  <circle id="rim2" cx="0" cy="0" r="3.5"/>
  <g id="zoomPlus">
    <use xlink:href="#rim" fill="#404040"><set attributeName="fill" to="#808080" begin="zoomplus.mouseover" end="zoomplus.mouseout"/></use>
    <path d="M-4,0h8M0,-4v8" fill="none" stroke="white" stroke-width="1.5" pointer-events="none"/>
  </g>
  <g id="zoomMin">
    <use xlink:href="#rim" fill="#404040"><set attributeName="fill" to="#808080" begin="zoomminus.mouseover" end="zoomminus.mouseout"/></use>
    <path d="M-4,0h8" fill="none" stroke="white" stroke-width="1.5" pointer-events="none"/>
  </g>
  <g id="arrowUp" transform="translate(30 24)">
    <use xlink:href="#rim"/>
    <path pointer-events="none" fill="none" stroke="white" stroke-width="1.5" d="M0,-3.0v7 M-2.5,-0.5L0,-3.0L2.5,-0.5"/>
  </g>
  <g id="arrowRight" transform="rotate(90) translate(36 -43)">
    <use xlink:href="#rim"/>
    <path pointer-events="none" fill="none" stroke="white" stroke-width="1.5" d="M0,-3.0v7 M-2.5,-0.5L0,-3.0L2.5,-0.5"/>
  </g>
  <g id="arrowDown" transform="rotate(180) translate(-30 -48)">
    <use xlink:href="#rim"/>
    <path pointer-events="none" fill="none" stroke="white" stroke-width="1.5" d="M0,-3.0v7 M-2.5,-0.5L0,-3.0L2.5,-0.5"/>
  </g>
  <g id="arrowLeft" transform="rotate(270) translate(-36 17)">
    <use xlink:href="#rim"/>
    <path pointer-events="none" fill="none" stroke="white" stroke-width="1.5" d="M0,-3.0v7 M-2.5,-0.5L0,-3.0L2.5,-0.5"/>
  </g>
  <g id="resetDef">
    <use xlink:href="#rim2" fill="#404040"><set attributeName="fill" to="#808080" begin="reset.mouseover" end="reset.mouseout"/></use>
  </g>
</defs>
<script type="application/ecmascript">
var viewWidth = 200;
var viewHeight = 1111;
var sectionId = 'dynsection-1';
</script>
<script type="application/ecmascript" xlink:href="svg.min.js"/>
<svg id="graph" class="graph">
<g id="viewport">
<title>unilink::builder::TcpServerBuilder</title>
<!-- Node1 -->
<g id="Node000001" class="node">
<title>Node1</title>
<g id="a_Node000001"><a xlink:title="Modernized Builder for TcpServer.">
<polygon fill="#999999" stroke="transparent" points="149,-255 12,-255 12,0 149,0 149,-255"/>
<text text-anchor="start" x="17.5" y="-242.5" font-family="Helvetica,sans-Serif" font-size="10.00">unilink::builder::TcpServer</text>
<text text-anchor="start" x="63.5" y="-231.5" font-family="Helvetica,sans-Serif" font-size="10.00">Builder</text>
<text text-anchor="start" x="79" y="-216.5" font-family="Helvetica,sans-Serif" font-size="10.00"> </text>
<text text-anchor="start" x="17.5" y="-201.5" font-family="Helvetica,sans-Serif" font-size="10.00">+</text>
<text text-anchor="start" x="31.5" y="-201.5" font-family="Helvetica,sans-Serif" font-size="10.00">TcpServerBuilder()</text>
<text text-anchor="start" x="17.5" y="-186.5" font-family="Helvetica,sans-Serif" font-size="10.00">+</text>
<text text-anchor="start" x="31.5" y="-186.5" font-family="Helvetica,sans-Serif" font-size="10.00">TcpServerBuilder()</text>
<text text-anchor="start" x="17.5" y="-171.5" font-family="Helvetica,sans-Serif" font-size="10.00">+</text>
<text text-anchor="start" x="31.5" y="-171.5" font-family="Helvetica,sans-Serif" font-size="10.00">operator=()</text>
<text text-anchor="start" x="17.5" y="-156.5" font-family="Helvetica,sans-Serif" font-size="10.00">+</text>
<text text-anchor="start" x="31.5" y="-156.5" font-family="Helvetica,sans-Serif" font-size="10.00">TcpServerBuilder()</text>
<text text-anchor="start" x="17.5" y="-141.5" font-family="Helvetica,sans-Serif" font-size="10.00">+</text>
<text text-anchor="start" x="31.5" y="-141.5" font-family="Helvetica,sans-Serif" font-size="10.00">operator=()</text>
<text text-anchor="start" x="17.5" y="-126.5" font-family="Helvetica,sans-Serif" font-size="10.00">+</text>
<text text-anchor="start" x="31.5" y="-126.5" font-family="Helvetica,sans-Serif" font-size="10.00">build()</text>
<text text-anchor="start" x="17.5" y="-111.5" font-family="Helvetica,sans-Serif" font-size="10.00">+</text>
<text text-anchor="start" x="31.5" y="-111.5" font-family="Helvetica,sans-Serif" font-size="10.00">auto_start()</text>
<text text-anchor="start" x="17.5" y="-96.5" font-family="Helvetica,sans-Serif" font-size="10.00">+</text>
<text text-anchor="start" x="31.5" y="-96.5" font-family="Helvetica,sans-Serif" font-size="10.00">independent_context()</text>
<text text-anchor="start" x="17.5" y="-81.5" font-family="Helvetica,sans-Serif" font-size="10.00">+</text>
<text text-anchor="start" x="31.5" y="-81.5" font-family="Helvetica,sans-Serif" font-size="10.00">port_retry()</text>
<text text-anchor="start" x="17.5" y="-66.5" font-family="Helvetica,sans-Serif" font-size="10.00">+</text>
<text text-anchor="start" x="31.5" y="-66.5" font-family="Helvetica,sans-Serif" font-size="10.00">idle_timeout()</text>
<text text-anchor="start" x="17.5" y="-51.5" font-family="Helvetica,sans-Serif" font-size="10.00">+</text>
<text text-anchor="start" x="31.5" y="-51.5" font-family="Helvetica,sans-Serif" font-size="10.00">max_clients()</text>
<text text-anchor="start" x="17.5" y="-36.5" font-family="Helvetica,sans-Serif" font-size="10.00">+</text>
<text text-anchor="start" x="31.5" y="-36.5" font-family="Helvetica,sans-Serif" font-size="10.00">single_client()</text>
<text text-anchor="start" x="17.5" y="-21.5" font-family="Helvetica,sans-Serif" font-size="10.00">+</text>
<text text-anchor="start" x="31.5" y="-21.5" font-family="Helvetica,sans-Serif" font-size="10.00">multi_client()</text>
<text text-anchor="start" x="17.5" y="-6.5" font-family="Helvetica,sans-Serif" font-size="10.00">+</text>
<text text-anchor="start" x="31.5" y="-6.5" font-family="Helvetica,sans-Serif" font-size="10.00">unlimited_clients()</text>
<polygon fill="#666666" stroke="#666666" points="12.5,-226.5 12.5,-226.5 149.5,-226.5 149.5,-226.5 12.5,-226.5"/>
<polygon fill="#666666" stroke="#666666" points="12.5,-211.5 12.5,-211.5 149.5,-211.5 149.5,-211.5 12.5,-211.5"/>
<polygon fill="none" stroke="#666666" points="12,0 12,-255 149,-255 149,0 12,0"/>
</a>
</g>
</g>
<!-- Node2 -->
<g id="Node000002" class="node">
<title>Node2</title>
<g id="a_Node000002"><a xlink:href="classunilink_1_1builder_1_1BuilderInterface.html" target="_top" xlink:title=" ">
<polygon fill="white" stroke="transparent" points="161,-674 0,-674 0,-292 161,-292 161,-674"/>
<text text-anchor="start" x="5.5" y="-662" font-family="Helvetica,sans-Serif" font-size="10.00">unilink::builder::Builder</text>
<text text-anchor="start" x="5.5" y="-651" font-family="Helvetica,sans-Serif" font-size="10.00">Interface&lt; wrapper::TcpServer,</text>
<text text-anchor="start" x="32.5" y="-640" font-family="Helvetica,sans-Serif" font-size="10.00"> TcpServerBuilder &gt;</text>
<text text-anchor="start" x="5.5" y="-625" font-family="Helvetica,sans-Serif" font-size="10.00">#</text>
<text text-anchor="start" x="19.5" y="-625" font-family="Helvetica,sans-Serif" font-size="10.00">framer_factory_</text>
<text text-anchor="start" x="5.5" y="-610" font-family="Helvetica,sans-Serif" font-size="10.00">#</text>
<text text-anchor="start" x="19.5" y="-610" font-family="Helvetica,sans-Serif" font-size="10.00">on_data_</text>
<text text-anchor="start" x="5.5" y="-595" font-family="Helvetica,sans-Serif" font-size="10.00">#</text>
<text text-anchor="start" x="19.5" y="-595" font-family="Helvetica,sans-Serif" font-size="10.00">on_connect_</text>
<text text-anchor="start" x="5.5" y="-580" font-family="Helvetica,sans-Serif" font-size="10.00">#</text>
<text text-anchor="start" x="19.5" y="-580" font-family="Helvetica,sans-Serif" font-size="10.00">on_disconnect_</text>
<text text-anchor="start" x="5.5" y="-565" font-family="Helvetica,sans-Serif" font-size="10.00">#</text>
<text text-anchor="start" x="19.5" y="-565" font-family="Helvetica,sans-Serif" font-size="10.00">on_error_</text>
<text text-anchor="start" x="5.5" y="-550" font-family="Helvetica,sans-Serif" font-size="10.00">#</text>
<text text-anchor="start" x="19.5" y="-550" font-family="Helvetica,sans-Serif" font-size="10.00">on_message_</text>
<text text-anchor="start" x="5.5" y="-535" font-family="Helvetica,sans-Serif" font-size="10.00">#</text>
<text text-anchor="start" x="19.5" y="-535" font-family="Helvetica,sans-Serif" font-size="10.00">bp_strategy_</text>
<text text-anchor="start" x="5.5" y="-520" font-family="Helvetica,sans-Serif" font-size="10.00">#</text>
<text text-anchor="start" x="19.5" y="-520" font-family="Helvetica,sans-Serif" font-size="10.00">bp_threshold_</text>
<text text-anchor="start" x="5.5" y="-505" font-family="Helvetica,sans-Serif" font-size="10.00">#</text>
<text text-anchor="start" x="19.5" y="-505" font-family="Helvetica,sans-Serif" font-size="10.00">bp_strategy_set_</text>
<text text-anchor="start" x="5.5" y="-490" font-family="Helvetica,sans-Serif" font-size="10.00">#</text>
<text text-anchor="start" x="19.5" y="-490" font-family="Helvetica,sans-Serif" font-size="10.00">bp_threshold_set_</text>
<text text-anchor="start" x="5.5" y="-475" font-family="Helvetica,sans-Serif" font-size="10.00">+</text>
<text text-anchor="start" x="19.5" y="-475" font-family="Helvetica,sans-Serif" font-size="10.00">~BuilderInterface()</text>
<text text-anchor="start" x="5.5" y="-460" font-family="Helvetica,sans-Serif" font-size="10.00">+</text>
<text text-anchor="start" x="19.5" y="-460" font-family="Helvetica,sans-Serif" font-size="10.00">BuilderInterface()</text>
<text text-anchor="start" x="5.5" y="-445" font-family="Helvetica,sans-Serif" font-size="10.00">+</text>
<text text-anchor="start" x="19.5" y="-445" font-family="Helvetica,sans-Serif" font-size="10.00">BuilderInterface()</text>
<text text-anchor="start" x="5.5" y="-430" font-family="Helvetica,sans-Serif" font-size="10.00">+</text>
<text text-anchor="start" x="19.5" y="-430" font-family="Helvetica,sans-Serif" font-size="10.00">BuilderInterface()</text>
<text text-anchor="start" x="5.5" y="-415" font-family="Helvetica,sans-Serif" font-size="10.00">+</text>
<text text-anchor="start" x="19.5" y="-415" font-family="Helvetica,sans-Serif" font-size="10.00">operator=()</text>
<text text-anchor="start" x="5.5" y="-400" font-family="Helvetica,sans-Serif" font-size="10.00">+</text>
<text text-anchor="start" x="19.5" y="-400" font-family="Helvetica,sans-Serif" font-size="10.00">operator=()</text>
<text text-anchor="start" x="5.5" y="-385" font-family="Helvetica,sans-Serif" font-size="10.00">+</text>
<text text-anchor="start" x="19.5" y="-385" font-family="Helvetica,sans-Serif" font-size="10.00">build()</text>
<text text-anchor="start" x="5.5" y="-370" font-family="Helvetica,sans-Serif" font-size="10.00">+</text>
<text text-anchor="start" x="19.5" y="-370" font-family="Helvetica,sans-Serif" font-size="10.00">auto_start()</text>
<text text-anchor="start" x="5.5" y="-355" font-family="Helvetica,sans-Serif" font-size="10.00">+</text>
<text text-anchor="start" x="19.5" y="-355" font-family="Helvetica,sans-Serif" font-size="10.00">on_data()</text>
<text text-anchor="start" x="5.5" y="-340" font-family="Helvetica,sans-Serif" font-size="10.00">+</text>
<text text-anchor="start" x="19.5" y="-340" font-family="Helvetica,sans-Serif" font-size="10.00">on_data()</text>
<text text-anchor="start" x="19.5" y="-325" font-family="Helvetica,sans-Serif" font-size="10.00">and 13 more...</text>
<text text-anchor="start" x="5.5" y="-310" font-family="Helvetica,sans-Serif" font-size="10.00">#</text>
<text text-anchor="start" x="19.5" y="-310" font-family="Helvetica,sans-Serif" font-size="10.00">get_effective_backpressure</text>
<text text-anchor="start" x="19.5" y="-299" font-family="Helvetica,sans-Serif" font-size="10.00">_threshold()</text>
<polygon fill="#666666" stroke="#666666" points="0.5,-635 0.5,-635 161.5,-635 161.5,-635 0.5,-635"/>
<polygon fill="#666666" stroke="#666666" points="0.5,-485 0.5,-485 17.5,-485 17.5,-485 0.5,-485"/>
<polygon fill="#666666" stroke="#666666" points="17.5,-485 17.5,-485 161.5,-485 161.5,-485 17.5,-485"/>
<polygon fill="none" stroke="#666666" points="0,-292 0,-674 161,-674 161,-292 0,-292"/>
</a>
</g>
</g>
<!-- Node2&#45;&gt;Node1 -->
<g id="edge1_Node000001_Node000002" class="edge">
<title>Node2&#45;&gt;Node1</title>
<g id="a_edge1_Node000001_Node000002"><a xlink:title=" ">
<path fill="none" stroke="#63b8ff" d="M80.5,-281.64C80.5,-272.66 80.5,-263.77 80.5,-255.05"/>
<polygon fill="none" stroke="#63b8ff" points="77,-281.8 80.5,-291.8 84,-281.8 77,-281.8"/>
</a>
</g>
</g>
<!-- Node3 -->
<g id="Node000003" class="node">
<title>Node3</title>
<g id="a_Node000003"><a xlink:href="classunilink_1_1builder_1_1BuilderInterface.html" target="_top" xlink:title="Generic Builder interface for fluent API pattern.">
<polygon fill="white" stroke="transparent" points="158.5,-1103 2.5,-1103 2.5,-732 158.5,-732 158.5,-1103"/>
<text text-anchor="start" x="22" y="-1090.5" font-family="Helvetica,sans-Serif" font-size="10.00">unilink::builder::Builder</text>
<text text-anchor="start" x="22" y="-1079.5" font-family="Helvetica,sans-Serif" font-size="10.00">Interface&lt; T, Derived &gt;</text>
<text text-anchor="start" x="6.5" y="-1064.5" font-family="Helvetica,sans-Serif" font-size="10.00">#</text>
<text text-anchor="start" x="19.5" y="-1064.5" font-family="Helvetica,sans-Serif" font-size="10.00">framer_factory_</text>
<text text-anchor="start" x="6.5" y="-1049.5" font-family="Helvetica,sans-Serif" font-size="10.00">#</text>
<text text-anchor="start" x="19.5" y="-1049.5" font-family="Helvetica,sans-Serif" font-size="10.00">on_data_</text>
<text text-anchor="start" x="6.5" y="-1034.5" font-family="Helvetica,sans-Serif" font-size="10.00">#</text>
<text text-anchor="start" x="19.5" y="-1034.5" font-family="Helvetica,sans-Serif" font-size="10.00">on_connect_</text>
<text text-anchor="start" x="6.5" y="-1019.5" font-family="Helvetica,sans-Serif" font-size="10.00">#</text>
<text text-anchor="start" x="19.5" y="-1019.5" font-family="Helvetica,sans-Serif" font-size="10.00">on_disconnect_</text>
<text text-anchor="start" x="6.5" y="-1004.5" font-family="Helvetica,sans-Serif" font-size="10.00">#</text>
<text text-anchor="start" x="19.5" y="-1004.5" font-family="Helvetica,sans-Serif" font-size="10.00">on_error_</text>
<text text-anchor="start" x="6.5" y="-989.5" font-family="Helvetica,sans-Serif" font-size="10.00">#</text>
<text text-anchor="start" x="19.5" y="-989.5" font-family="Helvetica,sans-Serif" font-size="10.00">on_message_</text>
<text text-anchor="start" x="6.5" y="-974.5" font-family="Helvetica,sans-Serif" font-size="10.00">#</text>
<text text-anchor="start" x="19.5" y="-974.5" font-family="Helvetica,sans-Serif" font-size="10.00">bp_strategy_</text>
<text text-anchor="start" x="6.5" y="-959.5" font-family="Helvetica,sans-Serif" font-size="10.00">#</text>
<text text-anchor="start" x="19.5" y="-959.5" font-family="Helvetica,sans-Serif" font-size="10.00">bp_threshold_</text>
<text text-anchor="start" x="6.5" y="-944.5" font-family="Helvetica,sans-Serif" font-size="10.00">#</text>
<text text-anchor="start" x="19.5" y="-944.5" font-family="Helvetica,sans-Serif" font-size="10.00">bp_strategy_set_</text>
<text text-anchor="start" x="6.5" y="-929.5" font-family="Helvetica,sans-Serif" font-size="10.00">#</text>
<text text-anchor="start" x="19.5" y="-929.5" font-family="Helvetica,sans-Serif" font-size="10.00">bp_threshold_set_</text>
<text text-anchor="start" x="6.5" y="-914.5" font-family="Helvetica,sans-Serif" font-size="10.00">+</text>
<text text-anchor="start" x="19.5" y="-914.5" font-family="Helvetica,sans-Serif" font-size="10.00">~BuilderInterface()</text>
<text text-anchor="start" x="6.5" y="-899.5" font-family="Helvetica,sans-Serif" font-size="10.00">+</text>
<text text-anchor="start" x="19.5" y="-899.5" font-family="Helvetica,sans-Serif" font-size="10.00">BuilderInterface()</text>
<text text-anchor="start" x="6.5" y="-884.5" font-family="Helvetica,sans-Serif" font-size="10.00">+</text>
<text text-anchor="start" x="19.5" y="-884.5" font-family="Helvetica,sans-Serif" font-size="10.00">BuilderInterface()</text>
<text text-anchor="start" x="6.5" y="-869.5" font-family="Helvetica,sans-Serif" font-size="10.00">+</text>
<text text-anchor="start" x="19.5" y="-869.5" font-family="Helvetica,sans-Serif" font-size="10.00">BuilderInterface()</text>
<text text-anchor="start" x="6.5" y="-854.5" font-family="Helvetica,sans-Serif" font-size="10.00">+</text>
<text text-anchor="start" x="19.5" y="-854.5" font-family="Helvetica,sans-Serif" font-size="10.00">operator=()</text>
<text text-anchor="start" x="6.5" y="-839.5" font-family="Helvetica,sans-Serif" font-size="10.00">+</text>
<text text-anchor="start" x="19.5" y="-839.5" font-family="Helvetica,sans-Serif" font-size="10.00">operator=()</text>
<text text-anchor="start" x="6.5" y="-824.5" font-family="Helvetica,sans-Serif" font-size="10.00">+</text>
<text text-anchor="start" x="19.5" y="-824.5" font-family="Helvetica,sans-Serif" font-size="10.00">build()</text>
<text text-anchor="start" x="6.5" y="-809.5" font-family="Helvetica,sans-Serif" font-size="10.00">+</text>
<text text-anchor="start" x="19.5" y="-809.5" font-family="Helvetica,sans-Serif" font-size="10.00">auto_start()</text>
<text text-anchor="start" x="6.5" y="-794.5" font-family="Helvetica,sans-Serif" font-size="10.00">+</text>
<text text-anchor="start" x="19.5" y="-794.5" font-family="Helvetica,sans-Serif" font-size="10.00">on_data()</text>
<text text-anchor="start" x="6.5" y="-779.5" font-family="Helvetica,sans-Serif" font-size="10.00">+</text>
<text text-anchor="start" x="19.5" y="-779.5" font-family="Helvetica,sans-Serif" font-size="10.00">on_data()</text>
<text text-anchor="start" x="19.5" y="-764.5" font-family="Helvetica,sans-Serif" font-size="10.00">and 13 more...</text>
<text text-anchor="start" x="6.5" y="-749.5" font-family="Helvetica,sans-Serif" font-size="10.00">#</text>
<text text-anchor="start" x="19.5" y="-749.5" font-family="Helvetica,sans-Serif" font-size="10.00">get_effective_backpressure</text>
<text text-anchor="start" x="19.5" y="-738.5" font-family="Helvetica,sans-Serif" font-size="10.00">_threshold()</text>
<polygon fill="#666666" stroke="#666666" points="2.5,-1074.5 2.5,-1074.5 158.5,-1074.5 158.5,-1074.5 2.5,-1074.5"/>
<polygon fill="#666666" stroke="#666666" points="2.5,-924.5 2.5,-924.5 17.5,-924.5 17.5,-924.5 2.5,-924.5"/>
<polygon fill="#666666" stroke="#666666" points="17.5,-924.5 17.5,-924.5 158.5,-924.5 158.5,-924.5 17.5,-924.5"/>
<polygon fill="none" stroke="#666666" points="2.5,-732 2.5,-1103 158.5,-1103 158.5,-732 2.5,-732"/>
</a>
</g>
</g>
<!-- Node3&#45;&gt;Node2 -->
<g id="edge2_Node000002_Node000003" class="edge">
<title>Node3&#45;&gt;Node2</title>
<g id="a_edge2_Node000002_Node000003"><a xlink:title=" ">
<path fill="none" stroke="orange" d="M80.5,-721.53C80.5,-705.81 80.5,-689.94 80.5,-674.26"/>
<polygon fill="orange" stroke="orange" points="77,-721.83 80.5,-731.83 84,-721.83 77,-721.83"/>
</a>
</g>
<text text-anchor="start" x="80.5" y="-706" font-family="Helvetica,sans-Serif" font-size="10.00" fill="grey"> &lt; wrapper::TcpServer,</text>
<text text-anchor="middle" x="136" y="-695" font-family="Helvetica,sans-Serif" font-size="10.00" fill="grey"> TcpServerBuilder &gt;</text>
</g>
</g>
</svg>

<g id="navigator" transform="translate(0 0)" fill="#404254">
  <rect fill="#f2f5e9" fill-opacity="0.5" stroke="#606060" stroke-width=".5" x="0" y="0" width="60" height="60"/>
  <use id="zoomplus" xlink:href="#zoomPlus" x="17" y="9" onmousedown="handleZoom(evt,'in')"/>
  <use id="zoomminus" xlink:href="#zoomMin" x="42" y="9" onmousedown="handleZoom(evt,'out')"/>
  <use id="reset" xlink:href="#resetDef" x="30" y="36" onmousedown="handleReset()"/>
   <use id="arrowup" xlink:href="#arrowUp" x="0" y="0" onmousedown="handlePan(0,-1)"/>
  <use id="arrowright" xlink:href="#arrowRight" x="0" y="0" onmousedown="handlePan(1,0)"/>
  <use id="arrowdown" xlink:href="#arrowDown" x="0" y="0" onmousedown="handlePan(0,1)"/>
  <use id="arrowleft" xlink:href="#arrowLeft" x="0" y="0" onmousedown="handlePan(-1,0)"/>
</g>
<svg viewBox="0 0 15 15" width="100%" height="30px" preserveAspectRatio="xMaxYMin meet">
 <g id="arrow_out" transform="scale(0.3 0.3)">
  <a xlink:href="classunilink_1_1builder_1_1TcpServerBuilder__coll__graph_org.svg" target="_base">
   <rect id="button" ry="5" rx="5" y="6" x="6" height="38" width="38"
        fill="#f2f5e9" fill-opacity="0.5" stroke="#606060" stroke-width="1.0"/>
   <path id="arrow"
     d="M 11.500037,31.436501 C 11.940474,20.09759 22.043105,11.32322 32.158766,21.979434 L 37.068811,17.246167 C 37.068811,17.246167 37.088388,32 37.088388,32 L 22.160133,31.978069 C 22.160133,31.978069 26.997745,27.140456 26.997745,27.140456 C 18.528582,18.264221 13.291696,25.230495 11.500037,31.436501 z"
     style="fill:#404040;"/>
  </a>
 </g>
</svg>

<style type='text/css'>
<![CDATA[
[data-mouse-over-selected='false'] { opacity: 0.7; }
[data-mouse-over-selected='true']  { opacity: 1.0; }
]]>
</style>
<script type="application/ecmascript"><![CDATA[
document.addEventListener('DOMContentLoaded', (event) => {
  highlightEdges();
  highlightAdjacentNodes();
});
]]></script>
</svg>
