<?xml version="1.0" encoding="UTF-8" standalone="no"?>
<!DOCTYPE svg PUBLIC "-//W3C//DTD SVG 1.1//EN"
 "http://www.w3.org/Graphics/SVG/1.1/DTD/svg11.dtd">
<!-- Generated by graphviz version 2.43.0 (0)
 -->
<!-- Title: unilink::transport::TcpClient::async_write_copy Pages: 1 -->
<svg width="376pt" height="364pt"
 viewBox="0.00 0.00 376.00 364.00" xmlns="http://www.w3.org/2000/svg" xmlns:xlink="http://www.w3.org/1999/xlink">

<svg id="main" version="1.1" xmlns="http://www.w3.org/2000/svg" xmlns:xlink="http://www.w3.org/1999/xlink" xml:space="preserve" onload="init(evt)">
<style type="text/css"><![CDATA[
.node, .edge {opacity: 0.7;}
.node.selected, .edge.selected {opacity: 1;}
.edge:hover path { stroke: red; }
.edge:hover polygon { stroke: red; fill: red; }
]]></style>
<script type="application/ecmascript" xlink:href="svg.min.js"/>
<svg id="graph" class="graph">
<g id="graph0" class="graph" transform="scale(1 1) rotate(0) translate(4 360)">
<title>unilink::transport::TcpClient::async_write_copy</title>
<!-- Node1 -->
<g id="Node000001" class="node">
<title>Node1</title>
<g id="a_Node000001"><a xlink:title=" ">
<polygon fill="#999999" stroke="#666666" points="160,-195 0,-195 0,-165 160,-165 160,-195"/>
<text text-anchor="start" x="8" y="-183" font-family="Helvetica,sans-Serif" font-size="10.00">unilink::transport</text>
<text text-anchor="middle" x="80" y="-172" font-family="Helvetica,sans-Serif" font-size="10.00">::TcpClient::async_write_copy</text>
</a>
</g>
</g>
<!-- Node2 -->
<g id="Node000002" class="node">
<title>Node2</title>
<g id="a_Node000002"><a xlink:href="classunilink_1_1memory_1_1SafeSpan.html#a3d1f1b920d4769b25c5bf8a058d203dd" target="_top" xlink:title=" ">
<polygon fill="white" stroke="#666666" points="356,-356 208,-356 208,-326 356,-326 356,-356"/>
<text text-anchor="start" x="216" y="-344" font-family="Helvetica,sans-Serif" font-size="10.00">unilink::memory::SafeSpan</text>
<text text-anchor="middle" x="282" y="-333" font-family="Helvetica,sans-Serif" font-size="10.00">::begin</text>
</a>
</g>
</g>
<!-- Node1&#45;&gt;Node2 -->
<g id="edge1_Node000001_Node000002" class="edge">
<title>Node1&#45;&gt;Node2</title>
<g id="a_edge1_Node000001_Node000002"><a xlink:title=" ">
<path fill="none" stroke="#63b8ff" d="M89.58,-195.34C106.28,-223.75 145.93,-284.63 196,-317 198.47,-318.6 201.06,-320.09 203.72,-321.49"/>
<polygon fill="#63b8ff" stroke="#63b8ff" points="202.48,-324.78 213.01,-325.87 205.46,-318.44 202.48,-324.78"/>
</a>
</g>
</g>
<!-- Node3 -->
<g id="Node000003" class="node">
<title>Node3</title>
<g id="a_Node000003"><a xlink:href="classunilink_1_1memory_1_1PooledBuffer.html#a7aa1378391f5ef5a4ddbf6abff971f81" target="_top" xlink:title=" ">
<polygon fill="white" stroke="#666666" points="364,-308 200,-308 200,-278 364,-278 364,-308"/>
<text text-anchor="start" x="208" y="-296" font-family="Helvetica,sans-Serif" font-size="10.00">unilink::memory::PooledBuffer</text>
<text text-anchor="middle" x="282" y="-285" font-family="Helvetica,sans-Serif" font-size="10.00">::data</text>
</a>
</g>
</g>
<!-- Node1&#45;&gt;Node3 -->
<g id="edge2_Node000001_Node000003" class="edge">
<title>Node1&#45;&gt;Node3</title>
<g id="a_edge2_Node000001_Node000003"><a xlink:title=" ">
<path fill="none" stroke="#63b8ff" d="M96.4,-195.12C117.3,-214.83 156.55,-249.11 196,-269 199.77,-270.9 203.72,-272.67 207.76,-274.32"/>
<polygon fill="#63b8ff" stroke="#63b8ff" points="206.72,-277.67 217.31,-277.94 209.2,-271.12 206.72,-277.67"/>
</a>
</g>
</g>
<!-- Node4 -->
<g id="Node000004" class="node">
<title>Node4</title>
<g id="a_Node000004"><a xlink:href="classunilink_1_1memory_1_1SafeSpan.html#a203851d86025e579f73f04da0828e2bd" target="_top" xlink:title=" ">
<polygon fill="white" stroke="#666666" points="356,-260 208,-260 208,-230 356,-230 356,-260"/>
<text text-anchor="start" x="216" y="-248" font-family="Helvetica,sans-Serif" font-size="10.00">unilink::memory::SafeSpan</text>
<text text-anchor="middle" x="282" y="-237" font-family="Helvetica,sans-Serif" font-size="10.00">::data</text>
</a>
</g>
</g>
<!-- Node1&#45;&gt;Node4 -->
<g id="edge3_Node000001_Node000004" class="edge">
<title>Node1&#45;&gt;Node4</title>
<g id="a_edge3_Node000001_Node000004"><a xlink:title=" ">
<path fill="none" stroke="#63b8ff" d="M121.22,-195.09C143.2,-203.14 170.96,-213.01 196,-221 202.38,-223.04 209.06,-225.07 215.74,-227.06"/>
<polygon fill="#63b8ff" stroke="#63b8ff" points="214.93,-230.47 225.51,-229.92 216.9,-223.75 214.93,-230.47"/>
</a>
</g>
</g>
<!-- Node5 -->
<g id="Node000005" class="node">
<title>Node5</title>
<g id="a_Node000005"><a xlink:href="classunilink_1_1memory_1_1SafeSpan.html#a569f565034ab74fd20549f16af9d220c" target="_top" xlink:title=" ">
<polygon fill="white" stroke="#666666" points="368,-211.5 196,-211.5 196,-192.5 368,-192.5 368,-211.5"/>
<text text-anchor="middle" x="282" y="-199.5" font-family="Helvetica,sans-Serif" font-size="10.00">unilink::memory::SafeSpan::end</text>
</a>
</g>
</g>
<!-- Node1&#45;&gt;Node5 -->
<g id="edge4_Node000001_Node000005" class="edge">
<title>Node1&#45;&gt;Node5</title>
<g id="a_edge4_Node000001_Node000005"><a xlink:title=" ">
<path fill="none" stroke="#63b8ff" d="M160.05,-188.69C168.52,-189.63 177.21,-190.58 185.84,-191.53"/>
<polygon fill="#63b8ff" stroke="#63b8ff" points="185.62,-195.03 195.95,-192.64 186.39,-188.07 185.62,-195.03"/>
</a>
</g>
</g>
<!-- Node6 -->
<g id="Node000006" class="node">
<title>Node6</title>
<g id="a_Node000006"><a xlink:href="namespaceunilink_1_1base_1_1safe__memory.html#a4d7e2bd9069bd2febb47c18298fe5e0d" target="_top" xlink:title="Safely copy memory with bounds checking.">
<polygon fill="white" stroke="#666666" points="350.5,-174 213.5,-174 213.5,-144 350.5,-144 350.5,-174"/>
<text text-anchor="start" x="221.5" y="-162" font-family="Helvetica,sans-Serif" font-size="10.00">unilink::base::safe</text>
<text text-anchor="middle" x="282" y="-151" font-family="Helvetica,sans-Serif" font-size="10.00">_memory::safe_memcpy</text>
</a>
</g>
</g>
<!-- Node1&#45;&gt;Node6 -->
<g id="edge5_Node000001_Node000006" class="edge">
<title>Node1&#45;&gt;Node6</title>
<g id="a_edge5_Node000001_Node000006"><a xlink:title=" ">
<path fill="none" stroke="#63b8ff" d="M160.05,-171.7C174.19,-170.21 188.92,-168.67 203.04,-167.19"/>
<polygon fill="#63b8ff" stroke="#63b8ff" points="203.61,-170.65 213.19,-166.12 202.88,-163.68 203.61,-170.65"/>
</a>
</g>
</g>
<!-- Node7 -->
<g id="Node000007" class="node">
<title>Node7</title>
<g id="a_Node000007"><a xlink:href="classunilink_1_1memory_1_1PooledBuffer.html#a43bc690449f5a7035fbc6e4a7b797609" target="_top" xlink:title=" ">
<polygon fill="white" stroke="#666666" points="364,-126 200,-126 200,-96 364,-96 364,-126"/>
<text text-anchor="start" x="208" y="-114" font-family="Helvetica,sans-Serif" font-size="10.00">unilink::memory::PooledBuffer</text>
<text text-anchor="middle" x="282" y="-103" font-family="Helvetica,sans-Serif" font-size="10.00">::size</text>
</a>
</g>
</g>
<!-- Node1&#45;&gt;Node7 -->
<g id="edge6_Node000001_Node000007" class="edge">
<title>Node1&#45;&gt;Node7</title>
<g id="a_edge6_Node000001_Node000007"><a xlink:title=" ">
<path fill="none" stroke="#63b8ff" d="M116.92,-164.9C139.44,-155.69 169.17,-144.01 196,-135 202.01,-132.98 208.3,-130.99 214.61,-129.07"/>
<polygon fill="#63b8ff" stroke="#63b8ff" points="215.94,-132.32 224.52,-126.11 213.94,-125.61 215.94,-132.32"/>
</a>
</g>
</g>
<!-- Node8 -->
<g id="Node000008" class="node">
<title>Node8</title>
<g id="a_Node000008"><a xlink:href="classunilink_1_1memory_1_1SafeSpan.html#a0e63f52083142fa895b98ea38f51dc73" target="_top" xlink:title=" ">
<polygon fill="white" stroke="#666666" points="356,-78 208,-78 208,-48 356,-48 356,-78"/>
<text text-anchor="start" x="216" y="-66" font-family="Helvetica,sans-Serif" font-size="10.00">unilink::memory::SafeSpan</text>
<text text-anchor="middle" x="282" y="-55" font-family="Helvetica,sans-Serif" font-size="10.00">::size</text>
</a>
</g>
</g>
<!-- Node1&#45;&gt;Node8 -->
<g id="edge7_Node000001_Node000008" class="edge">
<title>Node1&#45;&gt;Node8</title>
<g id="a_edge7_Node000001_Node000008"><a xlink:title=" ">
<path fill="none" stroke="#63b8ff" d="M95.56,-164.87C116.11,-144.35 155.64,-107.89 196,-87 199.57,-85.15 203.31,-83.43 207.14,-81.82"/>
<polygon fill="#63b8ff" stroke="#63b8ff" points="208.73,-84.96 216.79,-78.08 206.2,-78.43 208.73,-84.96"/>
</a>
</g>
</g>
<!-- Node9 -->
<g id="Node000009" class="node">
<title>Node9</title>
<g id="a_Node000009"><a xlink:href="classunilink_1_1memory_1_1PooledBuffer.html#abf8fb1fa73f66373f96a9eb2821d6cbf" target="_top" xlink:title=" ">
<polygon fill="white" stroke="#666666" points="364,-30 200,-30 200,0 364,0 364,-30"/>
<text text-anchor="start" x="208" y="-18" font-family="Helvetica,sans-Serif" font-size="10.00">unilink::memory::PooledBuffer</text>
<text text-anchor="middle" x="282" y="-7" font-family="Helvetica,sans-Serif" font-size="10.00">::valid</text>
</a>
</g>
</g>
<!-- Node1&#45;&gt;Node9 -->
<g id="edge8_Node000001_Node000009" class="edge">
<title>Node1&#45;&gt;Node9</title>
<g id="a_edge8_Node000001_Node000009"><a xlink:title=" ">
<path fill="none" stroke="#63b8ff" d="M89.21,-164.66C105.55,-135.61 145.03,-72.46 196,-39 198.46,-37.38 201.04,-35.87 203.69,-34.46"/>
<polygon fill="#63b8ff" stroke="#63b8ff" points="205.44,-37.51 212.96,-30.05 202.43,-31.19 205.44,-37.51"/>
</a>
</g>
</g>
</g>
</svg>
</svg>

<style type='text/css'>
<![CDATA[
[data-mouse-over-selected='false'] { opacity: 0.7; }
[data-mouse-over-selected='true']  { opacity: 1.0; }
]]>
</style>
<script type="application/ecmascript"><![CDATA[
document.addEventListener('DOMContentLoaded', (event) => {
  highlightEdges();
  highlightAdjacentNodes();
});
]]></script>
</svg>
