<?xml version="1.0" encoding="UTF-8" standalone="no"?>
<!DOCTYPE svg PUBLIC "-//W3C//DTD SVG 1.1//EN"
 "http://www.w3.org/Graphics/SVG/1.1/DTD/svg11.dtd">
<!-- Generated by graphviz version 2.43.0 (0)
 -->
<!-- Title: unilink::transport::UdsServerSession Pages: 1 -->
<svg width="181pt" height="314pt"
 viewBox="0.00 0.00 181.00 314.00" xmlns="http://www.w3.org/2000/svg" xmlns:xlink="http://www.w3.org/1999/xlink">
<g id="graph0" class="graph" transform="scale(1 1) rotate(0) translate(4 310)">
<title>unilink::transport::UdsServerSession</title>
<!-- Node1 -->
<g id="Node000001" class="node">
<title>Node1</title>
<g id="a_Node000001"><a xlink:title=" ">
<polygon fill="#999999" stroke="transparent" points="149.5,-210 23.5,-210 23.5,0 149.5,0 149.5,-210"/>
<text text-anchor="start" x="39.5" y="-198" font-family="Helvetica,sans-Serif" font-size="10.00">unilink::transport</text>
<text text-anchor="start" x="39.5" y="-187" font-family="Helvetica,sans-Serif" font-size="10.00">::UdsServerSession</text>
<text text-anchor="start" x="84.5" y="-172" font-family="Helvetica,sans-Serif" font-size="10.00"> </text>
<text text-anchor="start" x="27.5" y="-157" font-family="Helvetica,sans-Serif" font-size="10.00">+</text>
<text text-anchor="start" x="40.5" y="-157" font-family="Helvetica,sans-Serif" font-size="10.00">UdsServerSession()</text>
<text text-anchor="start" x="27.5" y="-142" font-family="Helvetica,sans-Serif" font-size="10.00">+</text>
<text text-anchor="start" x="40.5" y="-142" font-family="Helvetica,sans-Serif" font-size="10.00">UdsServerSession()</text>
<text text-anchor="start" x="27.5" y="-127" font-family="Helvetica,sans-Serif" font-size="10.00">+</text>
<text text-anchor="start" x="40.5" y="-127" font-family="Helvetica,sans-Serif" font-size="10.00">start()</text>
<text text-anchor="start" x="27.5" y="-112" font-family="Helvetica,sans-Serif" font-size="10.00">+</text>
<text text-anchor="start" x="40.5" y="-112" font-family="Helvetica,sans-Serif" font-size="10.00">async_write_copy()</text>
<text text-anchor="start" x="27.5" y="-97" font-family="Helvetica,sans-Serif" font-size="10.00">+</text>
<text text-anchor="start" x="40.5" y="-97" font-family="Helvetica,sans-Serif" font-size="10.00">async_write_move()</text>
<text text-anchor="start" x="27.5" y="-82" font-family="Helvetica,sans-Serif" font-size="10.00">+</text>
<text text-anchor="start" x="40.5" y="-82" font-family="Helvetica,sans-Serif" font-size="10.00">async_write_shared()</text>
<text text-anchor="start" x="27.5" y="-67" font-family="Helvetica,sans-Serif" font-size="10.00">+</text>
<text text-anchor="start" x="40.5" y="-67" font-family="Helvetica,sans-Serif" font-size="10.00">on_bytes()</text>
<text text-anchor="start" x="27.5" y="-52" font-family="Helvetica,sans-Serif" font-size="10.00">+</text>
<text text-anchor="start" x="40.5" y="-52" font-family="Helvetica,sans-Serif" font-size="10.00">on_backpressure()</text>
<text text-anchor="start" x="27.5" y="-37" font-family="Helvetica,sans-Serif" font-size="10.00">+</text>
<text text-anchor="start" x="40.5" y="-37" font-family="Helvetica,sans-Serif" font-size="10.00">on_close()</text>
<text text-anchor="start" x="27.5" y="-22" font-family="Helvetica,sans-Serif" font-size="10.00">+</text>
<text text-anchor="start" x="40.5" y="-22" font-family="Helvetica,sans-Serif" font-size="10.00">alive()</text>
<text text-anchor="start" x="27.5" y="-7" font-family="Helvetica,sans-Serif" font-size="10.00">+</text>
<text text-anchor="start" x="40.5" y="-7" font-family="Helvetica,sans-Serif" font-size="10.00">stop()</text>
<polygon fill="#666666" stroke="#666666" points="23.5,-182 23.5,-182 149.5,-182 149.5,-182 23.5,-182"/>
<polygon fill="#666666" stroke="#666666" points="23.5,-167 23.5,-167 149.5,-167 149.5,-167 23.5,-167"/>
<polygon fill="none" stroke="#666666" points="23.5,0 23.5,-210 149.5,-210 149.5,0 23.5,0"/>
</a>
</g>
</g>
<!-- Node2 -->
<g id="Node000002" class="node">
<title>Node2</title>
<g id="a_Node000002"><a xlink:title=" ">
<polygon fill="white" stroke="transparent" points="173,-306 0,-306 0,-246 173,-246 173,-306"/>
<text text-anchor="start" x="5.5" y="-294" font-family="Helvetica,sans-Serif" font-size="10.00">std::enable_shared</text>
<text text-anchor="start" x="5.5" y="-283" font-family="Helvetica,sans-Serif" font-size="10.00">_from_this&lt; UdsServerSession &gt;</text>
<text text-anchor="start" x="85" y="-268" font-family="Helvetica,sans-Serif" font-size="10.00"> </text>
<text text-anchor="start" x="85" y="-253" font-family="Helvetica,sans-Serif" font-size="10.00"> </text>
<polygon fill="#666666" stroke="#666666" points="0.5,-278 0.5,-278 173.5,-278 173.5,-278 0.5,-278"/>
<polygon fill="#666666" stroke="#666666" points="0.5,-263 0.5,-263 173.5,-263 173.5,-263 0.5,-263"/>
<polygon fill="none" stroke="#666666" points="0,-246 0,-306 173,-306 173,-246 0,-246"/>
</a>
</g>
</g>
<!-- Node2&#45;&gt;Node1 -->
<g id="edge1_Node000001_Node000002" class="edge">
<title>Node2&#45;&gt;Node1</title>
<g id="a_edge1_Node000001_Node000002"><a xlink:title=" ">
<path fill="none" stroke="#63b8ff" d="M86.5,-235.94C86.5,-227.96 86.5,-219.21 86.5,-210.15"/>
<polygon fill="none" stroke="#63b8ff" points="83,-235.95 86.5,-245.95 90,-235.95 83,-235.95"/>
</a>
</g>
</g>
</g>
</svg>
