<?xml version="1.0" encoding="UTF-8" standalone="no"?>
<!DOCTYPE svg PUBLIC "-//W3C//DTD SVG 1.1//EN"
 "http://www.w3.org/Graphics/SVG/1.1/DTD/svg11.dtd">
<!-- Generated by graphviz version 2.43.0 (0)
 -->
<!-- Title: unilink::util::InputValidator::is_valid_uds_path Pages: 1 -->
<svg width="488pt" height="143pt"
 viewBox="0.00 0.00 488.00 142.50" xmlns="http://www.w3.org/2000/svg" xmlns:xlink="http://www.w3.org/1999/xlink">
<g id="graph0" class="graph" transform="scale(1 1) rotate(0) translate(4 138.5)">
<title>unilink::util::InputValidator::is_valid_uds_path</title>
<polygon fill="white" stroke="transparent" points="-4,4 -4,-138.5 484,-138.5 484,4 -4,4"/>
<!-- Node1 -->
<g id="node1" class="node">
<title>Node1</title>
<g id="a_node1"><a xlink:title=" ">
<polygon fill="#bfbfbf" stroke="black" points="334,-49.5 334,-79.5 480,-79.5 480,-49.5 334,-49.5"/>
<text text-anchor="start" x="342" y="-67.5" font-family="Helvetica,sans-Serif" font-size="10.00">unilink::util::InputValidator</text>
<text text-anchor="middle" x="407" y="-56.5" font-family="Helvetica,sans-Serif" font-size="10.00">::is_valid_uds_path</text>
</a>
</g>
</g>
<!-- Node2 -->
<g id="node2" class="node">
<title>Node2</title>
<g id="a_node2"><a xlink:href="structunilink_1_1config_1_1UdsClientConfig.html#a74d9851f4196a9614ab1a5ad44d9084c" target="_top" xlink:title=" ">
<polygon fill="white" stroke="black" points="156,-98.5 156,-128.5 294,-128.5 294,-98.5 156,-98.5"/>
<text text-anchor="start" x="164" y="-116.5" font-family="Helvetica,sans-Serif" font-size="10.00">unilink::config::UdsClient</text>
<text text-anchor="middle" x="225" y="-105.5" font-family="Helvetica,sans-Serif" font-size="10.00">Config::is_valid</text>
</a>
</g>
</g>
<!-- Node1&#45;&gt;Node2 -->
<g id="edge1" class="edge">
<title>Node1&#45;&gt;Node2</title>
<path fill="none" stroke="midnightblue" d="M340.8,-82.25C321.29,-87.56 300.1,-93.33 281.29,-98.45"/>
<polygon fill="midnightblue" stroke="midnightblue" points="341.8,-85.61 350.53,-79.6 339.96,-78.85 341.8,-85.61"/>
</g>
<!-- Node4 -->
<g id="node4" class="node">
<title>Node4</title>
<g id="a_node4"><a xlink:href="structunilink_1_1config_1_1UdsServerConfig.html#a18a7f1ade382f5c4bd87eb062b7193fe" target="_top" xlink:title=" ">
<polygon fill="white" stroke="black" points="154.5,-49.5 154.5,-79.5 295.5,-79.5 295.5,-49.5 154.5,-49.5"/>
<text text-anchor="start" x="162.5" y="-67.5" font-family="Helvetica,sans-Serif" font-size="10.00">unilink::config::UdsServer</text>
<text text-anchor="middle" x="225" y="-56.5" font-family="Helvetica,sans-Serif" font-size="10.00">Config::is_valid</text>
</a>
</g>
</g>
<!-- Node1&#45;&gt;Node4 -->
<g id="edge3" class="edge">
<title>Node1&#45;&gt;Node4</title>
<path fill="none" stroke="midnightblue" d="M323.69,-64.5C314.29,-64.5 304.77,-64.5 295.56,-64.5"/>
<polygon fill="midnightblue" stroke="midnightblue" points="323.82,-68 333.82,-64.5 323.82,-61 323.82,-68"/>
</g>
<!-- Node5 -->
<g id="node5" class="node">
<title>Node5</title>
<g id="a_node5"><a xlink:href="classunilink_1_1util_1_1InputValidator.html#abc23ab99a94244520ca487c096701080" target="_top" xlink:title=" ">
<polygon fill="white" stroke="black" points="152,-0.5 152,-30.5 298,-30.5 298,-0.5 152,-0.5"/>
<text text-anchor="start" x="160" y="-18.5" font-family="Helvetica,sans-Serif" font-size="10.00">unilink::util::InputValidator</text>
<text text-anchor="middle" x="225" y="-7.5" font-family="Helvetica,sans-Serif" font-size="10.00">::validate_uds_path</text>
</a>
</g>
</g>
<!-- Node1&#45;&gt;Node5 -->
<g id="edge4" class="edge">
<title>Node1&#45;&gt;Node5</title>
<path fill="none" stroke="midnightblue" d="M340.8,-46.75C321.29,-41.44 300.1,-35.67 281.29,-30.55"/>
<polygon fill="midnightblue" stroke="midnightblue" points="339.96,-50.15 350.53,-49.4 341.8,-43.39 339.96,-50.15"/>
</g>
<!-- Node3 -->
<g id="node3" class="node">
<title>Node3</title>
<g id="a_node3"><a xlink:href="structunilink_1_1transport_1_1UdsClient_1_1Impl.html#a7e512c94a8c957205d42043097ac0761" target="_top" xlink:title=" ">
<polygon fill="white" stroke="black" points="0,-93 0,-134 116,-134 116,-93 0,-93"/>
<text text-anchor="start" x="8" y="-122" font-family="Helvetica,sans-Serif" font-size="10.00">unilink::transport</text>
<text text-anchor="start" x="8" y="-111" font-family="Helvetica,sans-Serif" font-size="10.00">::UdsClient::Impl::do</text>
<text text-anchor="middle" x="58" y="-100" font-family="Helvetica,sans-Serif" font-size="10.00">_connect</text>
</a>
</g>
</g>
<!-- Node2&#45;&gt;Node3 -->
<g id="edge2" class="edge">
<title>Node2&#45;&gt;Node3</title>
<path fill="none" stroke="midnightblue" d="M145.63,-113.5C135.69,-113.5 125.66,-113.5 116.14,-113.5"/>
<polygon fill="midnightblue" stroke="midnightblue" points="145.94,-117 155.94,-113.5 145.94,-110 145.94,-117"/>
</g>
</g>
</svg>
