<?xml version="1.0" encoding="UTF-8" standalone="no"?>
<!DOCTYPE svg PUBLIC "-//W3C//DTD SVG 1.1//EN"
 "http://www.w3.org/Graphics/SVG/1.1/DTD/svg11.dtd">
<!-- Generated by graphviz version 2.43.0 (0)
 -->
<!-- Title: unilink::transport::UdsServer::async_write_shared Pages: 1 -->
<svg width="351pt" height="182pt"
 viewBox="0.00 0.00 351.00 182.00" xmlns="http://www.w3.org/2000/svg" xmlns:xlink="http://www.w3.org/1999/xlink">

<svg id="main" version="1.1" xmlns="http://www.w3.org/2000/svg" xmlns:xlink="http://www.w3.org/1999/xlink" xml:space="preserve" onload="init(evt)">
<style type="text/css"><![CDATA[
.node, .edge {opacity: 0.7;}
.node.selected, .edge.selected {opacity: 1;}
.edge:hover path { stroke: red; }
.edge:hover polygon { stroke: red; fill: red; }
]]></style>
<script type="application/ecmascript" xlink:href="svg.min.js"/>
<svg id="graph" class="graph">
<g id="graph0" class="graph" transform="scale(1 1) rotate(0) translate(4 178)">
<title>unilink::transport::UdsServer::async_write_shared</title>
<!-- Node1 -->
<g id="Node000001" class="node">
<title>Node1</title>
<g id="a_Node000001"><a xlink:title=" ">
<polygon fill="#999999" stroke="#666666" points="343,-107.5 206,-107.5 206,-66.5 343,-66.5 343,-107.5"/>
<text text-anchor="start" x="214" y="-95.5" font-family="Helvetica,sans-Serif" font-size="10.00">unilink::transport</text>
<text text-anchor="start" x="214" y="-84.5" font-family="Helvetica,sans-Serif" font-size="10.00">::UdsServer::async_write</text>
<text text-anchor="middle" x="274.5" y="-73.5" font-family="Helvetica,sans-Serif" font-size="10.00">_shared</text>
</a>
</g>
</g>
<!-- Node2 -->
<g id="Node000002" class="node">
<title>Node2</title>
<g id="a_Node000002"><a xlink:href="classunilink_1_1transport_1_1UdsServer.html#a02cf1bd9a84546dc732efbe1ba608c64" target="_top" xlink:title=" ">
<polygon fill="white" stroke="#666666" points="168,-174 2,-174 2,-144 168,-144 168,-174"/>
<text text-anchor="start" x="10" y="-162" font-family="Helvetica,sans-Serif" font-size="10.00">unilink::transport</text>
<text text-anchor="middle" x="85" y="-151" font-family="Helvetica,sans-Serif" font-size="10.00">::UdsServer::async_write_copy</text>
</a>
</g>
</g>
<!-- Node1&#45;&gt;Node2 -->
<g id="edge1_Node000001_Node000002" class="edge">
<title>Node1&#45;&gt;Node2</title>
<g id="a_edge1_Node000001_Node000002"><a xlink:title=" ">
<path fill="none" stroke="#63b8ff" d="M223.73,-111.99C206.9,-119.93 187.86,-128.36 170,-135 161.47,-138.17 152.33,-141.18 143.32,-143.92"/>
<polygon fill="#63b8ff" stroke="#63b8ff" points="225.31,-115.12 232.83,-107.65 222.29,-108.8 225.31,-115.12"/>
</a>
</g>
</g>
<!-- Node3 -->
<g id="Node000003" class="node">
<title>Node3</title>
<g id="a_Node000003"><a xlink:href="classunilink_1_1transport_1_1UdsServer.html#a09cda5628dad423b5c7dc20aa8242b58" target="_top" xlink:title=" ">
<polygon fill="white" stroke="#666666" points="170,-126 0,-126 0,-96 170,-96 170,-126"/>
<text text-anchor="start" x="8" y="-114" font-family="Helvetica,sans-Serif" font-size="10.00">unilink::transport</text>
<text text-anchor="middle" x="85" y="-103" font-family="Helvetica,sans-Serif" font-size="10.00">::UdsServer::async_write_move</text>
</a>
</g>
</g>
<!-- Node1&#45;&gt;Node3 -->
<g id="edge2_Node000001_Node000003" class="edge">
<title>Node1&#45;&gt;Node3</title>
<g id="a_edge2_Node000001_Node000003"><a xlink:title=" ">
<path fill="none" stroke="#63b8ff" d="M195.68,-96.96C187.29,-98.04 178.72,-99.13 170.25,-100.22"/>
<polygon fill="#63b8ff" stroke="#63b8ff" points="196.33,-100.41 205.81,-95.66 195.44,-93.46 196.33,-100.41"/>
</a>
</g>
</g>
<!-- Node4 -->
<g id="Node000004" class="node">
<title>Node4</title>
<g id="a_Node000004"><a xlink:href="classunilink_1_1transport_1_1UdsServer.html#ac6b598a6f392963e0fece0d5612d3afd" target="_top" xlink:title=" ">
<polygon fill="white" stroke="#666666" points="148.5,-78 21.5,-78 21.5,-48 148.5,-48 148.5,-78"/>
<text text-anchor="start" x="29.5" y="-66" font-family="Helvetica,sans-Serif" font-size="10.00">unilink::transport</text>
<text text-anchor="middle" x="85" y="-55" font-family="Helvetica,sans-Serif" font-size="10.00">::UdsServer::broadcast</text>
</a>
</g>
</g>
<!-- Node1&#45;&gt;Node4 -->
<g id="edge3_Node000001_Node000004" class="edge">
<title>Node1&#45;&gt;Node4</title>
<g id="a_edge3_Node000001_Node000004"><a xlink:title=" ">
<path fill="none" stroke="#63b8ff" d="M195.62,-77.03C179.95,-75.03 163.67,-72.94 148.6,-71.01"/>
<polygon fill="#63b8ff" stroke="#63b8ff" points="195.44,-80.54 205.81,-78.34 196.33,-73.59 195.44,-80.54"/>
</a>
</g>
</g>
<!-- Node5 -->
<g id="Node000005" class="node">
<title>Node5</title>
<g id="a_Node000005"><a xlink:href="classunilink_1_1transport_1_1UdsServer.html#aacbee04cedb4d12c530678970f3e4cb0" target="_top" xlink:title=" ">
<polygon fill="white" stroke="#666666" points="148.5,-30 21.5,-30 21.5,0 148.5,0 148.5,-30"/>
<text text-anchor="start" x="29.5" y="-18" font-family="Helvetica,sans-Serif" font-size="10.00">unilink::transport</text>
<text text-anchor="middle" x="85" y="-7" font-family="Helvetica,sans-Serif" font-size="10.00">::UdsServer::broadcast</text>
</a>
</g>
</g>
<!-- Node1&#45;&gt;Node5 -->
<g id="edge4_Node000001_Node000005" class="edge">
<title>Node1&#45;&gt;Node5</title>
<g id="a_edge4_Node000001_Node000005"><a xlink:title=" ">
<path fill="none" stroke="#63b8ff" d="M223.73,-62.01C206.9,-54.07 187.86,-45.64 170,-39 161.47,-35.83 152.33,-32.82 143.32,-30.08"/>
<polygon fill="#63b8ff" stroke="#63b8ff" points="222.29,-65.2 232.83,-66.35 225.31,-58.88 222.29,-65.2"/>
</a>
</g>
</g>
</g>
</svg>
</svg>

<style type='text/css'>
<![CDATA[
[data-mouse-over-selected='false'] { opacity: 0.7; }
[data-mouse-over-selected='true']  { opacity: 1.0; }
]]>
</style>
<script type="application/ecmascript"><![CDATA[
document.addEventListener('DOMContentLoaded', (event) => {
  highlightEdges();
  highlightAdjacentNodes();
});
]]></script>
</svg>
