<?xml version="1.0" encoding="UTF-8" standalone="no"?>
<!DOCTYPE svg PUBLIC "-//W3C//DTD SVG 1.1//EN"
 "http://www.w3.org/Graphics/SVG/1.1/DTD/svg11.dtd">
<!-- Generated by graphviz version 2.43.0 (0)
 -->
<!-- Title: unilink::builder::UdsClientBuilder::build Pages: 1 -->
<svg width="749pt" height="94pt"
 viewBox="0.00 0.00 749.00 93.50" xmlns="http://www.w3.org/2000/svg" xmlns:xlink="http://www.w3.org/1999/xlink">
<g id="graph0" class="graph" transform="scale(1 1) rotate(0) translate(4 89.5)">
<title>unilink::builder::UdsClientBuilder::build</title>
<polygon fill="white" stroke="transparent" points="-4,4 -4,-89.5 745,-89.5 745,4 -4,4"/>
<!-- Node1 -->
<g id="node1" class="node">
<title>Node1</title>
<g id="a_node1"><a xlink:title="Build and return the configured product.">
<polygon fill="#bfbfbf" stroke="black" points="0,-24.5 0,-54.5 143,-54.5 143,-24.5 0,-24.5"/>
<text text-anchor="start" x="8" y="-42.5" font-family="Helvetica,sans-Serif" font-size="10.00">unilink::builder::UdsClient</text>
<text text-anchor="middle" x="71.5" y="-31.5" font-family="Helvetica,sans-Serif" font-size="10.00">Builder::build</text>
</a>
</g>
</g>
<!-- Node2 -->
<g id="node2" class="node">
<title>Node2</title>
<g id="a_node2"><a xlink:href="classunilink_1_1builder_1_1AutoInitializer.html#a4158d61c97d2450ea92796565b93b2bc" target="_top" xlink:title="Automatically start IoContextManager if not running.">
<polygon fill="white" stroke="black" points="179,-24.5 179,-54.5 343,-54.5 343,-24.5 179,-24.5"/>
<text text-anchor="start" x="187" y="-42.5" font-family="Helvetica,sans-Serif" font-size="10.00">unilink::builder::AutoInitializer</text>
<text text-anchor="middle" x="261" y="-31.5" font-family="Helvetica,sans-Serif" font-size="10.00">::ensure_io_context_running</text>
</a>
</g>
</g>
<!-- Node1&#45;&gt;Node2 -->
<g id="edge1" class="edge">
<title>Node1&#45;&gt;Node2</title>
<path fill="none" stroke="midnightblue" d="M143.12,-39.5C151.48,-39.5 160.09,-39.5 168.68,-39.5"/>
<polygon fill="midnightblue" stroke="midnightblue" points="168.74,-43 178.74,-39.5 168.74,-36 168.74,-43"/>
</g>
<!-- Node3 -->
<g id="node3" class="node">
<title>Node3</title>
<g id="a_node3"><a xlink:href="classunilink_1_1concurrency_1_1IoContextManager.html#af8bc9a1e74cd2b081311ae3686bbc8ba" target="_top" xlink:title=" ">
<polygon fill="white" stroke="black" points="379,-49.5 379,-79.5 539,-79.5 539,-49.5 379,-49.5"/>
<text text-anchor="start" x="387" y="-67.5" font-family="Helvetica,sans-Serif" font-size="10.00">unilink::concurrency</text>
<text text-anchor="middle" x="459" y="-56.5" font-family="Helvetica,sans-Serif" font-size="10.00">::IoContextManager::instance</text>
</a>
</g>
</g>
<!-- Node2&#45;&gt;Node3 -->
<g id="edge2" class="edge">
<title>Node2&#45;&gt;Node3</title>
<path fill="none" stroke="midnightblue" d="M343.14,-49.85C351.61,-50.93 360.26,-52.03 368.83,-53.13"/>
<polygon fill="midnightblue" stroke="midnightblue" points="368.46,-56.61 378.82,-54.4 369.34,-49.66 368.46,-56.61"/>
</g>
<!-- Node5 -->
<g id="node5" class="node">
<title>Node5</title>
<g id="a_node5"><a xlink:href="classunilink_1_1concurrency_1_1IoContextManager.html#a6b6c2d79b786fc49c259b6f2125a1ab6" target="_top" xlink:title=" ">
<polygon fill="white" stroke="black" points="388.5,-0.5 388.5,-30.5 529.5,-30.5 529.5,-0.5 388.5,-0.5"/>
<text text-anchor="start" x="396.5" y="-18.5" font-family="Helvetica,sans-Serif" font-size="10.00">unilink::concurrency</text>
<text text-anchor="middle" x="459" y="-7.5" font-family="Helvetica,sans-Serif" font-size="10.00">::IoContextManager::start</text>
</a>
</g>
</g>
<!-- Node2&#45;&gt;Node5 -->
<g id="edge4" class="edge">
<title>Node2&#45;&gt;Node5</title>
<path fill="none" stroke="midnightblue" d="M343.14,-29.57C354.78,-28.14 366.76,-26.67 378.38,-25.25"/>
<polygon fill="midnightblue" stroke="midnightblue" points="378.98,-28.7 388.48,-24.01 378.13,-21.75 378.98,-28.7"/>
</g>
<!-- Node4 -->
<g id="node4" class="node">
<title>Node4</title>
<g id="a_node4"><a xlink:href="classunilink_1_1concurrency_1_1IoContextManager.html#a9191142e76ce990859590213b01e947b" target="_top" xlink:title=" ">
<polygon fill="white" stroke="black" points="575,-44 575,-85 741,-85 741,-44 575,-44"/>
<text text-anchor="start" x="583" y="-73" font-family="Helvetica,sans-Serif" font-size="10.00">unilink::concurrency</text>
<text text-anchor="start" x="583" y="-62" font-family="Helvetica,sans-Serif" font-size="10.00">::IoContextManager::IoContext</text>
<text text-anchor="middle" x="658" y="-51" font-family="Helvetica,sans-Serif" font-size="10.00">Manager</text>
</a>
</g>
</g>
<!-- Node3&#45;&gt;Node4 -->
<g id="edge3" class="edge">
<title>Node3&#45;&gt;Node4</title>
<path fill="none" stroke="midnightblue" d="M539.28,-64.5C547.73,-64.5 556.38,-64.5 564.96,-64.5"/>
<polygon fill="midnightblue" stroke="midnightblue" points="564.99,-68 574.99,-64.5 564.99,-61 564.99,-68"/>
</g>
</g>
</svg>
