<?xml version="1.0" encoding="UTF-8" standalone="no"?>
<!DOCTYPE svg PUBLIC "-//W3C//DTD SVG 1.1//EN"
 "http://www.w3.org/Graphics/SVG/1.1/DTD/svg11.dtd">
<!-- Generated by graphviz version 2.43.0 (0)
 -->
<!-- Title: unilink::transport::UdsClient Pages: 1 -->
<svg width="284pt" height="494pt"
 viewBox="0.00 0.00 284.00 494.00" xmlns="http://www.w3.org/2000/svg" xmlns:xlink="http://www.w3.org/1999/xlink">
<g id="graph0" class="graph" transform="scale(1 1) rotate(0) translate(4 490)">
<title>unilink::transport::UdsClient</title>
<!-- Node1 -->
<g id="Node000001" class="node">
<title>Node1</title>
<g id="a_Node000001"><a xlink:title="Thread&#45;safe UDS Client implementation.">
<polygon fill="#999999" stroke="transparent" points="196.5,-255 75.5,-255 75.5,0 196.5,0 196.5,-255"/>
<text text-anchor="start" x="94.5" y="-242.5" font-family="Helvetica,sans-Serif" font-size="10.00">unilink::transport</text>
<text text-anchor="start" x="109.5" y="-231.5" font-family="Helvetica,sans-Serif" font-size="10.00">::UdsClient</text>
<text text-anchor="start" x="134.5" y="-216.5" font-family="Helvetica,sans-Serif" font-size="10.00"> </text>
<text text-anchor="start" x="80" y="-201.5" font-family="Helvetica,sans-Serif" font-size="10.00">+</text>
<text text-anchor="start" x="93" y="-201.5" font-family="Helvetica,sans-Serif" font-size="10.00">~UdsClient()</text>
<text text-anchor="start" x="80" y="-186.5" font-family="Helvetica,sans-Serif" font-size="10.00">+</text>
<text text-anchor="start" x="93" y="-186.5" font-family="Helvetica,sans-Serif" font-size="10.00">UdsClient()</text>
<text text-anchor="start" x="80" y="-171.5" font-family="Helvetica,sans-Serif" font-size="10.00">+</text>
<text text-anchor="start" x="93" y="-171.5" font-family="Helvetica,sans-Serif" font-size="10.00">operator=()</text>
<text text-anchor="start" x="80" y="-156.5" font-family="Helvetica,sans-Serif" font-size="10.00">+</text>
<text text-anchor="start" x="93" y="-156.5" font-family="Helvetica,sans-Serif" font-size="10.00">UdsClient()</text>
<text text-anchor="start" x="80" y="-141.5" font-family="Helvetica,sans-Serif" font-size="10.00">+</text>
<text text-anchor="start" x="93" y="-141.5" font-family="Helvetica,sans-Serif" font-size="10.00">operator=()</text>
<text text-anchor="start" x="80" y="-126.5" font-family="Helvetica,sans-Serif" font-size="10.00">+</text>
<text text-anchor="start" x="93" y="-126.5" font-family="Helvetica,sans-Serif" font-size="10.00">start()</text>
<text text-anchor="start" x="80" y="-111.5" font-family="Helvetica,sans-Serif" font-size="10.00">+</text>
<text text-anchor="start" x="93" y="-111.5" font-family="Helvetica,sans-Serif" font-size="10.00">stop()</text>
<text text-anchor="start" x="80" y="-96.5" font-family="Helvetica,sans-Serif" font-size="10.00">+</text>
<text text-anchor="start" x="93" y="-96.5" font-family="Helvetica,sans-Serif" font-size="10.00">is_connected()</text>
<text text-anchor="start" x="80" y="-81.5" font-family="Helvetica,sans-Serif" font-size="10.00">+</text>
<text text-anchor="start" x="93" y="-81.5" font-family="Helvetica,sans-Serif" font-size="10.00">async_write_copy()</text>
<text text-anchor="start" x="80" y="-66.5" font-family="Helvetica,sans-Serif" font-size="10.00">+</text>
<text text-anchor="start" x="93" y="-66.5" font-family="Helvetica,sans-Serif" font-size="10.00">async_write_move()</text>
<text text-anchor="start" x="93" y="-51.5" font-family="Helvetica,sans-Serif" font-size="10.00">and 7 more...</text>
<text text-anchor="start" x="80" y="-36.5" font-family="Helvetica,sans-Serif" font-size="10.00">+</text>
<text text-anchor="start" x="93" y="-36.5" font-family="Helvetica,sans-Serif" font-size="10.00">create()</text>
<text text-anchor="start" x="80" y="-21.5" font-family="Helvetica,sans-Serif" font-size="10.00">+</text>
<text text-anchor="start" x="93" y="-21.5" font-family="Helvetica,sans-Serif" font-size="10.00">create()</text>
<text text-anchor="start" x="80" y="-6.5" font-family="Helvetica,sans-Serif" font-size="10.00">+</text>
<text text-anchor="start" x="93" y="-6.5" font-family="Helvetica,sans-Serif" font-size="10.00">create()</text>
<polygon fill="#666666" stroke="#666666" points="76,-226.5 76,-226.5 197,-226.5 197,-226.5 76,-226.5"/>
<polygon fill="#666666" stroke="#666666" points="76,-211.5 76,-211.5 197,-211.5 197,-211.5 76,-211.5"/>
<polygon fill="none" stroke="#666666" points="75.5,0 75.5,-255 196.5,-255 196.5,0 75.5,0"/>
</a>
</g>
</g>
<!-- Node2 -->
<g id="Node000002" class="node">
<title>Node2</title>
<g id="a_Node000002"><a xlink:href="classunilink_1_1interface_1_1Channel.html" target="_top" xlink:title=" ">
<polygon fill="white" stroke="transparent" points="126,-486 0,-486 0,-291 126,-291 126,-486"/>
<text text-anchor="start" x="21.5" y="-473.5" font-family="Helvetica,sans-Serif" font-size="10.00">unilink::interface</text>
<text text-anchor="start" x="40" y="-462.5" font-family="Helvetica,sans-Serif" font-size="10.00">::Channel</text>
<text text-anchor="start" x="61" y="-447.5" font-family="Helvetica,sans-Serif" font-size="10.00"> </text>
<text text-anchor="start" x="4" y="-432.5" font-family="Helvetica,sans-Serif" font-size="10.00">+</text>
<text text-anchor="start" x="17" y="-432.5" font-family="Helvetica,sans-Serif" font-size="10.00">~Channel()</text>
<text text-anchor="start" x="4" y="-417.5" font-family="Helvetica,sans-Serif" font-size="10.00">+</text>
<text text-anchor="start" x="17" y="-417.5" font-family="Helvetica,sans-Serif" font-size="10.00">start()</text>
<text text-anchor="start" x="4" y="-402.5" font-family="Helvetica,sans-Serif" font-size="10.00">+</text>
<text text-anchor="start" x="17" y="-402.5" font-family="Helvetica,sans-Serif" font-size="10.00">stop()</text>
<text text-anchor="start" x="4" y="-387.5" font-family="Helvetica,sans-Serif" font-size="10.00">+</text>
<text text-anchor="start" x="17" y="-387.5" font-family="Helvetica,sans-Serif" font-size="10.00">is_connected()</text>
<text text-anchor="start" x="4" y="-372.5" font-family="Helvetica,sans-Serif" font-size="10.00">+</text>
<text text-anchor="start" x="17" y="-372.5" font-family="Helvetica,sans-Serif" font-size="10.00">async_write_copy()</text>
<text text-anchor="start" x="4" y="-357.5" font-family="Helvetica,sans-Serif" font-size="10.00">+</text>
<text text-anchor="start" x="17" y="-357.5" font-family="Helvetica,sans-Serif" font-size="10.00">async_write_move()</text>
<text text-anchor="start" x="4" y="-342.5" font-family="Helvetica,sans-Serif" font-size="10.00">+</text>
<text text-anchor="start" x="17" y="-342.5" font-family="Helvetica,sans-Serif" font-size="10.00">async_write_shared()</text>
<text text-anchor="start" x="4" y="-327.5" font-family="Helvetica,sans-Serif" font-size="10.00">+</text>
<text text-anchor="start" x="17" y="-327.5" font-family="Helvetica,sans-Serif" font-size="10.00">on_bytes()</text>
<text text-anchor="start" x="4" y="-312.5" font-family="Helvetica,sans-Serif" font-size="10.00">+</text>
<text text-anchor="start" x="17" y="-312.5" font-family="Helvetica,sans-Serif" font-size="10.00">on_state()</text>
<text text-anchor="start" x="4" y="-297.5" font-family="Helvetica,sans-Serif" font-size="10.00">+</text>
<text text-anchor="start" x="17" y="-297.5" font-family="Helvetica,sans-Serif" font-size="10.00">on_backpressure()</text>
<polygon fill="#666666" stroke="#666666" points="0,-457.5 0,-457.5 126,-457.5 126,-457.5 0,-457.5"/>
<polygon fill="#666666" stroke="#666666" points="0,-442.5 0,-442.5 126,-442.5 126,-442.5 0,-442.5"/>
<polygon fill="none" stroke="#666666" points="0,-291 0,-486 126,-486 126,-291 0,-291"/>
</a>
</g>
</g>
<!-- Node2&#45;&gt;Node1 -->
<g id="edge1_Node000001_Node000002" class="edge">
<title>Node2&#45;&gt;Node1</title>
<g id="a_edge1_Node000001_Node000002"><a xlink:title=" ">
<path fill="none" stroke="#63b8ff" d="M93.08,-280.79C95.47,-272.3 97.9,-263.67 100.33,-255.05"/>
<polygon fill="none" stroke="#63b8ff" points="89.63,-280.12 90.29,-290.69 96.37,-282.01 89.63,-280.12"/>
</a>
</g>
</g>
<!-- Node3 -->
<g id="Node000003" class="node">
<title>Node3</title>
<g id="a_Node000003"><a xlink:title=" ">
<polygon fill="white" stroke="transparent" points="276,-418.5 144,-418.5 144,-358.5 276,-358.5 276,-418.5"/>
<text text-anchor="start" x="149" y="-406.5" font-family="Helvetica,sans-Serif" font-size="10.00">std::enable_shared</text>
<text text-anchor="start" x="149" y="-395.5" font-family="Helvetica,sans-Serif" font-size="10.00">_from_this&lt; UdsClient &gt;</text>
<text text-anchor="start" x="208" y="-380.5" font-family="Helvetica,sans-Serif" font-size="10.00"> </text>
<text text-anchor="start" x="208" y="-365.5" font-family="Helvetica,sans-Serif" font-size="10.00"> </text>
<polygon fill="#666666" stroke="#666666" points="144,-390.5 144,-390.5 276,-390.5 276,-390.5 144,-390.5"/>
<polygon fill="#666666" stroke="#666666" points="144,-375.5 144,-375.5 276,-375.5 276,-375.5 144,-375.5"/>
<polygon fill="none" stroke="#666666" points="144,-358.5 144,-418.5 276,-418.5 276,-358.5 144,-358.5"/>
</a>
</g>
</g>
<!-- Node3&#45;&gt;Node1 -->
<g id="edge2_Node000001_Node000003" class="edge">
<title>Node3&#45;&gt;Node1</title>
<g id="a_edge2_Node000001_Node000003"><a xlink:title=" ">
<path fill="none" stroke="#63b8ff" d="M198.84,-348.45C191.67,-323.34 181.9,-289.15 172.21,-255.22"/>
<polygon fill="none" stroke="#63b8ff" points="195.54,-349.64 201.66,-358.29 202.27,-347.72 195.54,-349.64"/>
</a>
</g>
</g>
</g>
</svg>
