<?xml version="1.0" encoding="UTF-8" standalone="no"?>
<!DOCTYPE svg PUBLIC "-//W3C//DTD SVG 1.1//EN"
 "http://www.w3.org/Graphics/SVG/1.1/DTD/svg11.dtd">
<!-- Generated by graphviz version 2.43.0 (0)
 -->
<!-- Title: unilink::memory::SafeSpan::begin Pages: 1 -->
<!--zoomable 661 -->

<svg id="main" version="1.1" xmlns="http://www.w3.org/2000/svg" xmlns:xlink="http://www.w3.org/1999/xlink" xml:space="preserve" onload="init(evt)">
<style type="text/css"><![CDATA[
.node, .edge {opacity: 0.7;}
.node.selected, .edge.selected {opacity: 1;}
.edge:hover path { stroke: red; }
.edge:hover polygon { stroke: red; fill: red; }
]]></style>

<defs>
  <circle id="rim" cx="0" cy="0" r="7"/>
  <circle id="rim2" cx="0" cy="0" r="3.5"/>
  <g id="zoomPlus">
    <use xlink:href="#rim" fill="#404040"><set attributeName="fill" to="#808080" begin="zoomplus.mouseover" end="zoomplus.mouseout"/></use>
    <path d="M-4,0h8M0,-4v8" fill="none" stroke="white" stroke-width="1.5" pointer-events="none"/>
  </g>
  <g id="zoomMin">
    <use xlink:href="#rim" fill="#404040"><set attributeName="fill" to="#808080" begin="zoomminus.mouseover" end="zoomminus.mouseout"/></use>
    <path d="M-4,0h8" fill="none" stroke="white" stroke-width="1.5" pointer-events="none"/>
  </g>
  <g id="arrowUp" transform="translate(30 24)">
    <use xlink:href="#rim"/>
    <path pointer-events="none" fill="none" stroke="white" stroke-width="1.5" d="M0,-3.0v7 M-2.5,-0.5L0,-3.0L2.5,-0.5"/>
  </g>
  <g id="arrowRight" transform="rotate(90) translate(36 -43)">
    <use xlink:href="#rim"/>
    <path pointer-events="none" fill="none" stroke="white" stroke-width="1.5" d="M0,-3.0v7 M-2.5,-0.5L0,-3.0L2.5,-0.5"/>
  </g>
  <g id="arrowDown" transform="rotate(180) translate(-30 -48)">
    <use xlink:href="#rim"/>
    <path pointer-events="none" fill="none" stroke="white" stroke-width="1.5" d="M0,-3.0v7 M-2.5,-0.5L0,-3.0L2.5,-0.5"/>
  </g>
  <g id="arrowLeft" transform="rotate(270) translate(-36 17)">
    <use xlink:href="#rim"/>
    <path pointer-events="none" fill="none" stroke="white" stroke-width="1.5" d="M0,-3.0v7 M-2.5,-0.5L0,-3.0L2.5,-0.5"/>
  </g>
  <g id="resetDef">
    <use xlink:href="#rim2" fill="#404040"><set attributeName="fill" to="#808080" begin="reset.mouseover" end="reset.mouseout"/></use>
  </g>
</defs>
<script type="application/ecmascript">
var viewWidth = 358;
var viewHeight = 661;
var sectionId = 'dynsection-1';
</script>
<script type="application/ecmascript" xlink:href="svg.min.js"/>
<svg id="graph" class="graph">
<g id="viewport">
<title>unilink::memory::SafeSpan::begin</title>
<!-- Node1 -->
<g id="Node000001" class="node">
<title>Node1</title>
<g id="a_Node000001"><a xlink:title=" ">
<polygon fill="#999999" stroke="#666666" points="350,-330 202,-330 202,-300 350,-300 350,-330"/>
<text text-anchor="start" x="210" y="-318" font-family="Helvetica,sans-Serif" font-size="10.00">unilink::memory::SafeSpan</text>
<text text-anchor="middle" x="276" y="-307" font-family="Helvetica,sans-Serif" font-size="10.00">::begin</text>
</a>
</g>
</g>
<!-- Node2 -->
<g id="Node000002" class="node">
<title>Node2</title>
<g id="a_Node000002"><a xlink:href="classunilink_1_1transport_1_1TcpServerSession.html#af4924971969eccb5008bd42ccb302cb9" target="_top" xlink:title=" ">
<polygon fill="white" stroke="#666666" points="139.5,-652.5 26.5,-652.5 26.5,-611.5 139.5,-611.5 139.5,-652.5"/>
<text text-anchor="start" x="34.5" y="-640.5" font-family="Helvetica,sans-Serif" font-size="10.00">unilink::transport</text>
<text text-anchor="start" x="34.5" y="-629.5" font-family="Helvetica,sans-Serif" font-size="10.00">::TcpServerSession::</text>
<text text-anchor="middle" x="83" y="-618.5" font-family="Helvetica,sans-Serif" font-size="10.00">async_write_copy</text>
</a>
</g>
</g>
<!-- Node1&#45;&gt;Node2 -->
<g id="edge1_Node000001_Node000002" class="edge">
<title>Node1&#45;&gt;Node2</title>
<g id="a_edge1_Node000001_Node000002"><a xlink:title=" ">
<path fill="none" stroke="#63b8ff" d="M272.53,-340.23C265.78,-395.55 242.13,-528.52 166,-603 158.66,-610.18 149.43,-615.59 139.84,-619.67"/>
<polygon fill="#63b8ff" stroke="#63b8ff" points="276.01,-340.57 273.66,-330.24 269.06,-339.78 276.01,-340.57"/>
</a>
</g>
</g>
<!-- Node3 -->
<g id="Node000003" class="node">
<title>Node3</title>
<g id="a_Node000003"><a xlink:href="classunilink_1_1transport_1_1UdsServerSession.html#a5dfb1470c98537cacb9bccadf92b73e0" target="_top" xlink:title=" ">
<polygon fill="white" stroke="#666666" points="141,-593.5 25,-593.5 25,-552.5 141,-552.5 141,-593.5"/>
<text text-anchor="start" x="33" y="-581.5" font-family="Helvetica,sans-Serif" font-size="10.00">unilink::transport</text>
<text text-anchor="start" x="33" y="-570.5" font-family="Helvetica,sans-Serif" font-size="10.00">::UdsServerSession::</text>
<text text-anchor="middle" x="83" y="-559.5" font-family="Helvetica,sans-Serif" font-size="10.00">async_write_copy</text>
</a>
</g>
</g>
<!-- Node1&#45;&gt;Node3 -->
<g id="edge2_Node000001_Node000003" class="edge">
<title>Node1&#45;&gt;Node3</title>
<g id="a_edge2_Node000001_Node000003"><a xlink:title=" ">
<path fill="none" stroke="#63b8ff" d="M269.66,-339.97C258.49,-386.38 228.35,-486.32 166,-543 158.82,-549.53 150.11,-554.66 141.07,-558.7"/>
<polygon fill="#63b8ff" stroke="#63b8ff" points="273.09,-340.68 271.93,-330.15 266.27,-339.1 273.09,-340.68"/>
</a>
</g>
</g>
<!-- Node4 -->
<g id="Node000004" class="node">
<title>Node4</title>
<g id="a_Node000004"><a xlink:href="classunilink_1_1transport_1_1Serial.html#a66dcdee06d54ec2370dcdcbafef40875" target="_top" xlink:title=" ">
<polygon fill="white" stroke="#666666" points="154.5,-534 11.5,-534 11.5,-504 154.5,-504 154.5,-534"/>
<text text-anchor="start" x="19.5" y="-522" font-family="Helvetica,sans-Serif" font-size="10.00">unilink::transport</text>
<text text-anchor="middle" x="83" y="-511" font-family="Helvetica,sans-Serif" font-size="10.00">::Serial::async_write_copy</text>
</a>
</g>
</g>
<!-- Node1&#45;&gt;Node4 -->
<g id="edge3_Node000001_Node000004" class="edge">
<title>Node1&#45;&gt;Node4</title>
<g id="a_edge3_Node000001_Node000004"><a xlink:title=" ">
<path fill="none" stroke="#63b8ff" d="M266.75,-339.66C252.47,-378.55 219.44,-453.91 166,-495 161.53,-498.44 156.58,-501.38 151.4,-503.9"/>
<polygon fill="#63b8ff" stroke="#63b8ff" points="270.07,-340.75 270.13,-330.16 263.48,-338.41 270.07,-340.75"/>
</a>
</g>
</g>
<!-- Node5 -->
<g id="Node000005" class="node">
<title>Node5</title>
<g id="a_Node000005"><a xlink:href="classunilink_1_1transport_1_1TcpClient.html#a996369a17ecad069edd0c20c19689e9d" target="_top" xlink:title=" ">
<polygon fill="white" stroke="#666666" points="163,-486 3,-486 3,-456 163,-456 163,-486"/>
<text text-anchor="start" x="11" y="-474" font-family="Helvetica,sans-Serif" font-size="10.00">unilink::transport</text>
<text text-anchor="middle" x="83" y="-463" font-family="Helvetica,sans-Serif" font-size="10.00">::TcpClient::async_write_copy</text>
</a>
</g>
</g>
<!-- Node1&#45;&gt;Node5 -->
<g id="edge4_Node000001_Node000005" class="edge">
<title>Node1&#45;&gt;Node5</title>
<g id="a_edge4_Node000001_Node000005"><a xlink:title=" ">
<path fill="none" stroke="#63b8ff" d="M261.39,-339.04C243.36,-368.75 208.77,-418.82 166,-447 160.8,-450.43 155.1,-453.38 149.2,-455.91"/>
<polygon fill="#63b8ff" stroke="#63b8ff" points="264.56,-340.55 266.65,-330.17 258.54,-336.98 264.56,-340.55"/>
</a>
</g>
</g>
<!-- Node6 -->
<g id="Node000006" class="node">
<title>Node6</title>
<g id="a_Node000006"><a xlink:href="classunilink_1_1transport_1_1UdpChannel.html#a753af71ad739e467588e3d6c3af9c5ef" target="_top" xlink:title=" ">
<polygon fill="white" stroke="#666666" points="141,-437.5 25,-437.5 25,-396.5 141,-396.5 141,-437.5"/>
<text text-anchor="start" x="33" y="-425.5" font-family="Helvetica,sans-Serif" font-size="10.00">unilink::transport</text>
<text text-anchor="start" x="33" y="-414.5" font-family="Helvetica,sans-Serif" font-size="10.00">::UdpChannel::async</text>
<text text-anchor="middle" x="83" y="-403.5" font-family="Helvetica,sans-Serif" font-size="10.00">_write_copy</text>
</a>
</g>
</g>
<!-- Node1&#45;&gt;Node6 -->
<g id="edge5_Node000001_Node000006" class="edge">
<title>Node1&#45;&gt;Node6</title>
<g id="a_edge5_Node000001_Node000006"><a xlink:title=" ">
<path fill="none" stroke="#63b8ff" d="M247.08,-336.08C225.69,-351.56 195.01,-372.37 166,-387 158.15,-390.96 149.65,-394.67 141.19,-398.03"/>
<polygon fill="#63b8ff" stroke="#63b8ff" points="249.36,-338.74 255.36,-330.01 245.23,-333.09 249.36,-338.74"/>
</a>
</g>
</g>
<!-- Node7 -->
<g id="Node000007" class="node">
<title>Node7</title>
<g id="a_Node000007"><a xlink:href="classunilink_1_1transport_1_1UdsClient.html#a9c2b6c07b63911273deb53e4f3a863b3" target="_top" xlink:title=" ">
<polygon fill="white" stroke="#666666" points="164.5,-378 1.5,-378 1.5,-348 164.5,-348 164.5,-378"/>
<text text-anchor="start" x="9.5" y="-366" font-family="Helvetica,sans-Serif" font-size="10.00">unilink::transport</text>
<text text-anchor="middle" x="83" y="-355" font-family="Helvetica,sans-Serif" font-size="10.00">::UdsClient::async_write_copy</text>
</a>
</g>
</g>
<!-- Node1&#45;&gt;Node7 -->
<g id="edge6_Node000001_Node000007" class="edge">
<title>Node1&#45;&gt;Node7</title>
<g id="a_edge6_Node000001_Node000007"><a xlink:title=" ">
<path fill="none" stroke="#63b8ff" d="M205.32,-332.51C185.11,-337.59 163.24,-343.09 143.7,-348"/>
<polygon fill="#63b8ff" stroke="#63b8ff" points="206.25,-335.89 215.09,-330.06 204.54,-329.1 206.25,-335.89"/>
</a>
</g>
</g>
<!-- Node8 -->
<g id="Node000008" class="node">
<title>Node8</title>
<g id="a_Node000008"><a xlink:href="classunilink_1_1transport_1_1UdsServer.html#a02cf1bd9a84546dc732efbe1ba608c64" target="_top" xlink:title=" ">
<polygon fill="white" stroke="#666666" points="166,-330 0,-330 0,-300 166,-300 166,-330"/>
<text text-anchor="start" x="8" y="-318" font-family="Helvetica,sans-Serif" font-size="10.00">unilink::transport</text>
<text text-anchor="middle" x="83" y="-307" font-family="Helvetica,sans-Serif" font-size="10.00">::UdsServer::async_write_copy</text>
</a>
</g>
</g>
<!-- Node1&#45;&gt;Node8 -->
<g id="edge7_Node000001_Node000008" class="edge">
<title>Node1&#45;&gt;Node8</title>
<g id="a_edge7_Node000001_Node000008"><a xlink:title=" ">
<path fill="none" stroke="#63b8ff" d="M191.74,-315C183.27,-315 174.68,-315 166.23,-315"/>
<polygon fill="#63b8ff" stroke="#63b8ff" points="191.97,-318.5 201.97,-315 191.97,-311.5 191.97,-318.5"/>
</a>
</g>
</g>
<!-- Node9 -->
<g id="Node000009" class="node">
<title>Node9</title>
<g id="a_Node000009"><a xlink:href="classunilink_1_1transport_1_1UdpChannel.html#a17438bba1b0d13e683aadc1391fb0bcc" target="_top" xlink:title=" ">
<polygon fill="white" stroke="#666666" points="141,-281.5 25,-281.5 25,-240.5 141,-240.5 141,-281.5"/>
<text text-anchor="start" x="33" y="-269.5" font-family="Helvetica,sans-Serif" font-size="10.00">unilink::transport</text>
<text text-anchor="start" x="33" y="-258.5" font-family="Helvetica,sans-Serif" font-size="10.00">::UdpChannel::async</text>
<text text-anchor="middle" x="83" y="-247.5" font-family="Helvetica,sans-Serif" font-size="10.00">_write_to</text>
</a>
</g>
</g>
<!-- Node1&#45;&gt;Node9 -->
<g id="edge8_Node000001_Node000009" class="edge">
<title>Node1&#45;&gt;Node9</title>
<g id="a_edge8_Node000001_Node000009"><a xlink:title=" ">
<path fill="none" stroke="#63b8ff" d="M211.88,-297.16C189.1,-290.71 163.52,-283.48 141.26,-277.19"/>
<polygon fill="#63b8ff" stroke="#63b8ff" points="211.22,-300.61 221.8,-299.96 213.13,-293.87 211.22,-300.61"/>
</a>
</g>
</g>
<!-- Node10 -->
<g id="Node000010" class="node">
<title>Node10</title>
<g id="a_Node000010"><a xlink:href="classunilink_1_1transport_1_1TcpServer.html#a56a2fb56d7190dfbd1d9725a16595b9a" target="_top" xlink:title=" ">
<polygon fill="white" stroke="#666666" points="145,-222 21,-222 21,-192 145,-192 145,-222"/>
<text text-anchor="start" x="29" y="-210" font-family="Helvetica,sans-Serif" font-size="10.00">unilink::transport</text>
<text text-anchor="middle" x="83" y="-199" font-family="Helvetica,sans-Serif" font-size="10.00">::TcpServer::broadcast</text>
</a>
</g>
</g>
<!-- Node1&#45;&gt;Node10 -->
<g id="edge9_Node000001_Node000010" class="edge">
<title>Node1&#45;&gt;Node10</title>
<g id="a_edge9_Node000001_Node000010"><a xlink:title=" ">
<path fill="none" stroke="#63b8ff" d="M251.43,-293.06C230.41,-274.52 198.1,-248.44 166,-232 158.71,-228.27 150.77,-224.99 142.8,-222.13"/>
<polygon fill="#63b8ff" stroke="#63b8ff" points="249.12,-295.69 258.9,-299.76 253.79,-290.48 249.12,-295.69"/>
</a>
</g>
</g>
<!-- Node11 -->
<g id="Node000011" class="node">
<title>Node11</title>
<g id="a_Node000011"><a xlink:href="classunilink_1_1transport_1_1UdsServer.html#ac6b598a6f392963e0fece0d5612d3afd" target="_top" xlink:title=" ">
<polygon fill="white" stroke="#666666" points="146.5,-174 19.5,-174 19.5,-144 146.5,-144 146.5,-174"/>
<text text-anchor="start" x="27.5" y="-162" font-family="Helvetica,sans-Serif" font-size="10.00">unilink::transport</text>
<text text-anchor="middle" x="83" y="-151" font-family="Helvetica,sans-Serif" font-size="10.00">::UdsServer::broadcast</text>
</a>
</g>
</g>
<!-- Node1&#45;&gt;Node11 -->
<g id="edge10_Node000001_Node000011" class="edge">
<title>Node1&#45;&gt;Node11</title>
<g id="a_edge10_Node000001_Node000011"><a xlink:title=" ">
<path fill="none" stroke="#63b8ff" d="M261.39,-290.96C243.36,-261.25 208.77,-211.18 166,-183 160.05,-179.08 153.46,-175.79 146.66,-173.03"/>
<polygon fill="#63b8ff" stroke="#63b8ff" points="258.54,-293.02 266.65,-299.83 264.56,-289.45 258.54,-293.02"/>
</a>
</g>
</g>
<!-- Node12 -->
<g id="Node000012" class="node">
<title>Node12</title>
<g id="a_Node000012"><a xlink:href="classunilink_1_1framer_1_1PacketFramer.html#ae0de7a72e4794e1df90a30eb73289993" target="_top" xlink:title="Push raw bytes into the framer&#39;s internal buffer.">
<polygon fill="white" stroke="#666666" points="163.5,-126 2.5,-126 2.5,-96 163.5,-96 163.5,-126"/>
<text text-anchor="start" x="10.5" y="-114" font-family="Helvetica,sans-Serif" font-size="10.00">unilink::framer::PacketFramer</text>
<text text-anchor="middle" x="83" y="-103" font-family="Helvetica,sans-Serif" font-size="10.00">::push_bytes</text>
</a>
</g>
</g>
<!-- Node1&#45;&gt;Node12 -->
<g id="edge11_Node000001_Node000012" class="edge">
<title>Node1&#45;&gt;Node12</title>
<g id="a_edge11_Node000001_Node000012"><a xlink:title=" ">
<path fill="none" stroke="#63b8ff" d="M266.75,-290.34C252.47,-251.45 219.44,-176.09 166,-135 161.53,-131.56 156.58,-128.62 151.4,-126.1"/>
<polygon fill="#63b8ff" stroke="#63b8ff" points="263.48,-291.59 270.13,-299.84 270.07,-289.25 263.48,-291.59"/>
</a>
</g>
</g>
<!-- Node13 -->
<g id="Node000013" class="node">
<title>Node13</title>
<g id="a_Node000013"><a xlink:href="classunilink_1_1memory_1_1SafeSpan.html#adc412cd9eefe6c46ff6f8f23a3c00aa0" target="_top" xlink:title=" ">
<polygon fill="white" stroke="#666666" points="157,-78 9,-78 9,-48 157,-48 157,-78"/>
<text text-anchor="start" x="17" y="-66" font-family="Helvetica,sans-Serif" font-size="10.00">unilink::memory::SafeSpan</text>
<text text-anchor="middle" x="83" y="-55" font-family="Helvetica,sans-Serif" font-size="10.00">::rend</text>
</a>
</g>
</g>
<!-- Node1&#45;&gt;Node13 -->
<g id="edge12_Node000001_Node000013" class="edge">
<title>Node1&#45;&gt;Node13</title>
<g id="a_edge12_Node000001_Node000013"><a xlink:title=" ">
<path fill="none" stroke="#63b8ff" d="M270.08,-289.98C259.55,-243.07 230.34,-141.72 166,-87 161.93,-83.54 157.39,-80.58 152.58,-78.04"/>
<polygon fill="#63b8ff" stroke="#63b8ff" points="266.69,-290.86 272.21,-299.9 273.54,-289.39 266.69,-290.86"/>
</a>
</g>
</g>
<!-- Node14 -->
<g id="Node000014" class="node">
<title>Node14</title>
<g id="a_Node000014"><a xlink:href="classunilink_1_1memory_1_1SafeDataBuffer.html#ac1c2be33e14dec0c11aa933426ad6bb0" target="_top" xlink:title=" ">
<polygon fill="white" stroke="#666666" points="156.5,-30 9.5,-30 9.5,0 156.5,0 156.5,-30"/>
<text text-anchor="start" x="17.5" y="-18" font-family="Helvetica,sans-Serif" font-size="10.00">unilink::memory::SafeData</text>
<text text-anchor="middle" x="83" y="-7" font-family="Helvetica,sans-Serif" font-size="10.00">Buffer::SafeDataBuffer</text>
</a>
</g>
</g>
<!-- Node1&#45;&gt;Node14 -->
<g id="edge13_Node000001_Node000014" class="edge">
<title>Node1&#45;&gt;Node14</title>
<g id="a_edge13_Node000001_Node000014"><a xlink:title=" ">
<path fill="none" stroke="#63b8ff" d="M272.39,-289.78C265.43,-235.69 241.48,-107.88 166,-39 162.27,-35.6 158.09,-32.68 153.64,-30.17"/>
<polygon fill="#63b8ff" stroke="#63b8ff" points="268.93,-290.35 273.6,-299.87 275.88,-289.52 268.93,-290.35"/>
</a>
</g>
</g>
</g>
</svg>

<g id="navigator" transform="translate(0 0)" fill="#404254">
  <rect fill="#f2f5e9" fill-opacity="0.5" stroke="#606060" stroke-width=".5" x="0" y="0" width="60" height="60"/>
  <use id="zoomplus" xlink:href="#zoomPlus" x="17" y="9" onmousedown="handleZoom(evt,'in')"/>
  <use id="zoomminus" xlink:href="#zoomMin" x="42" y="9" onmousedown="handleZoom(evt,'out')"/>
  <use id="reset" xlink:href="#resetDef" x="30" y="36" onmousedown="handleReset()"/>
   <use id="arrowup" xlink:href="#arrowUp" x="0" y="0" onmousedown="handlePan(0,-1)"/>
  <use id="arrowright" xlink:href="#arrowRight" x="0" y="0" onmousedown="handlePan(1,0)"/>
  <use id="arrowdown" xlink:href="#arrowDown" x="0" y="0" onmousedown="handlePan(0,1)"/>
  <use id="arrowleft" xlink:href="#arrowLeft" x="0" y="0" onmousedown="handlePan(-1,0)"/>
</g>
<svg viewBox="0 0 15 15" width="100%" height="30px" preserveAspectRatio="xMaxYMin meet">
 <g id="arrow_out" transform="scale(0.3 0.3)">
  <a xlink:href="classunilink_1_1memory_1_1SafeSpan_a3d1f1b920d4769b25c5bf8a058d203dd_icgraph_org.svg" target="_base">
   <rect id="button" ry="5" rx="5" y="6" x="6" height="38" width="38"
        fill="#f2f5e9" fill-opacity="0.5" stroke="#606060" stroke-width="1.0"/>
   <path id="arrow"
     d="M 11.500037,31.436501 C 11.940474,20.09759 22.043105,11.32322 32.158766,21.979434 L 37.068811,17.246167 C 37.068811,17.246167 37.088388,32 37.088388,32 L 22.160133,31.978069 C 22.160133,31.978069 26.997745,27.140456 26.997745,27.140456 C 18.528582,18.264221 13.291696,25.230495 11.500037,31.436501 z"
     style="fill:#404040;"/>
  </a>
 </g>
</svg>

<style type='text/css'>
<![CDATA[
[data-mouse-over-selected='false'] { opacity: 0.7; }
[data-mouse-over-selected='true']  { opacity: 1.0; }
]]>
</style>
<script type="application/ecmascript"><![CDATA[
document.addEventListener('DOMContentLoaded', (event) => {
  highlightEdges();
  highlightAdjacentNodes();
});
]]></script>
</svg>
