<?xml version="1.0" encoding="UTF-8" standalone="no"?>
<!DOCTYPE svg PUBLIC "-//W3C//DTD SVG 1.1//EN"
 "http://www.w3.org/Graphics/SVG/1.1/DTD/svg11.dtd">
<!-- Generated by graphviz version 2.43.0 (0)
 -->
<!-- Title: unilink::framer::LineFramer::push_bytes Pages: 1 -->
<svg width="341pt" height="134pt"
 viewBox="0.00 0.00 341.00 134.00" xmlns="http://www.w3.org/2000/svg" xmlns:xlink="http://www.w3.org/1999/xlink">
<g id="graph0" class="graph" transform="scale(1 1) rotate(0) translate(4 130)">
<title>unilink::framer::LineFramer::push_bytes</title>
<!-- Node1 -->
<g id="Node000001" class="node">
<title>Node1</title>
<g id="a_Node000001"><a xlink:title="Push raw bytes into the framer&#39;s internal buffer.">
<polygon fill="#999999" stroke="#666666" points="149,-78 0,-78 0,-48 149,-48 149,-78"/>
<text text-anchor="start" x="8" y="-66" font-family="Helvetica,sans-Serif" font-size="10.00">unilink::framer::LineFramer</text>
<text text-anchor="middle" x="74.5" y="-55" font-family="Helvetica,sans-Serif" font-size="10.00">::push_bytes</text>
</a>
</g>
</g>
<!-- Node2 -->
<g id="Node000002" class="node">
<title>Node2</title>
<g id="a_Node000002"><a xlink:href="classunilink_1_1memory_1_1SafeSpan.html#a9502a235109cc7933308478f7418add3" target="_top" xlink:title=" ">
<polygon fill="white" stroke="#666666" points="333,-126 185,-126 185,-96 333,-96 333,-126"/>
<text text-anchor="start" x="193" y="-114" font-family="Helvetica,sans-Serif" font-size="10.00">unilink::memory::SafeSpan</text>
<text text-anchor="middle" x="259" y="-103" font-family="Helvetica,sans-Serif" font-size="10.00">::empty</text>
</a>
</g>
</g>
<!-- Node1&#45;&gt;Node2 -->
<g id="edge1_Node000001_Node000002" class="edge">
<title>Node1&#45;&gt;Node2</title>
<g id="a_edge1_Node000001_Node000002"><a xlink:title=" ">
<path fill="none" stroke="#63b8ff" d="M132.74,-78.06C151.26,-82.93 171.95,-88.37 191.11,-93.41"/>
<polygon fill="#63b8ff" stroke="#63b8ff" points="190.4,-96.84 200.96,-96 192.18,-90.07 190.4,-96.84"/>
</a>
</g>
</g>
<!-- Node3 -->
<g id="Node000003" class="node">
<title>Node3</title>
<g id="a_Node000003"><a xlink:href="classunilink_1_1memory_1_1SafeSpan.html#a0e63f52083142fa895b98ea38f51dc73" target="_top" xlink:title=" ">
<polygon fill="white" stroke="#666666" points="333,-78 185,-78 185,-48 333,-48 333,-78"/>
<text text-anchor="start" x="193" y="-66" font-family="Helvetica,sans-Serif" font-size="10.00">unilink::memory::SafeSpan</text>
<text text-anchor="middle" x="259" y="-55" font-family="Helvetica,sans-Serif" font-size="10.00">::size</text>
</a>
</g>
</g>
<!-- Node1&#45;&gt;Node3 -->
<g id="edge2_Node000001_Node000003" class="edge">
<title>Node1&#45;&gt;Node3</title>
<g id="a_edge2_Node000001_Node000003"><a xlink:title=" ">
<path fill="none" stroke="#63b8ff" d="M149.2,-63C157.67,-63 166.34,-63 174.91,-63"/>
<polygon fill="#63b8ff" stroke="#63b8ff" points="174.91,-66.5 184.91,-63 174.91,-59.5 174.91,-66.5"/>
</a>
</g>
</g>
<!-- Node4 -->
<g id="Node000004" class="node">
<title>Node4</title>
<g id="a_Node000004"><a xlink:href="classunilink_1_1memory_1_1SafeSpan.html#a6d8982f9ab7af4020233d9bb8f71e753" target="_top" xlink:title=" ">
<polygon fill="white" stroke="#666666" points="333,-30 185,-30 185,0 333,0 333,-30"/>
<text text-anchor="start" x="193" y="-18" font-family="Helvetica,sans-Serif" font-size="10.00">unilink::memory::SafeSpan</text>
<text text-anchor="middle" x="259" y="-7" font-family="Helvetica,sans-Serif" font-size="10.00">::subspan</text>
</a>
</g>
</g>
<!-- Node1&#45;&gt;Node4 -->
<g id="edge3_Node000001_Node000004" class="edge">
<title>Node1&#45;&gt;Node4</title>
<g id="a_edge3_Node000001_Node000004"><a xlink:title=" ">
<path fill="none" stroke="#63b8ff" d="M132.74,-47.94C151.26,-43.07 171.95,-37.63 191.11,-32.59"/>
<polygon fill="#63b8ff" stroke="#63b8ff" points="192.18,-35.93 200.96,-30 190.4,-29.16 192.18,-35.93"/>
</a>
</g>
</g>
</g>
</svg>
