<?xml version="1.0" encoding="UTF-8" standalone="no"?>
<!DOCTYPE svg PUBLIC "-//W3C//DTD SVG 1.1//EN"
 "http://www.w3.org/Graphics/SVG/1.1/DTD/svg11.dtd">
<!-- Generated by graphviz version 2.43.0 (0)
 -->
<!-- Title: unilink::diagnostics::Logger::error Pages: 1 -->
<svg width="413pt" height="39pt"
 viewBox="0.00 0.00 413.00 39.00" xmlns="http://www.w3.org/2000/svg" xmlns:xlink="http://www.w3.org/1999/xlink">
<g id="graph0" class="graph" transform="scale(1 1) rotate(0) translate(4 35)">
<title>unilink::diagnostics::Logger::error</title>
<polygon fill="white" stroke="transparent" points="-4,4 -4,-35 409,-35 409,4 -4,4"/>
<!-- Node1 -->
<g id="node1" class="node">
<title>Node1</title>
<g id="a_node1"><a xlink:title=" ">
<polygon fill="#bfbfbf" stroke="black" points="0,-0.5 0,-30.5 111,-30.5 111,-0.5 0,-0.5"/>
<text text-anchor="start" x="8" y="-18.5" font-family="Helvetica,sans-Serif" font-size="10.00">unilink::diagnostics</text>
<text text-anchor="middle" x="55.5" y="-7.5" font-family="Helvetica,sans-Serif" font-size="10.00">::Logger::error</text>
</a>
</g>
</g>
<!-- Node2 -->
<g id="node2" class="node">
<title>Node2</title>
<g id="a_node2"><a xlink:href="classunilink_1_1diagnostics_1_1Logger.html#a0b8b5899e59b1c6beb7572fe937df82d" target="_top" xlink:title=" ">
<polygon fill="white" stroke="black" points="147,-0.5 147,-30.5 258,-30.5 258,-0.5 147,-0.5"/>
<text text-anchor="start" x="155" y="-18.5" font-family="Helvetica,sans-Serif" font-size="10.00">unilink::diagnostics</text>
<text text-anchor="middle" x="202.5" y="-7.5" font-family="Helvetica,sans-Serif" font-size="10.00">::Logger::log</text>
</a>
</g>
</g>
<!-- Node1&#45;&gt;Node2 -->
<g id="edge1" class="edge">
<title>Node1&#45;&gt;Node2</title>
<path fill="none" stroke="midnightblue" d="M111.32,-15.5C119.53,-15.5 128.06,-15.5 136.46,-15.5"/>
<polygon fill="midnightblue" stroke="midnightblue" points="136.6,-19 146.6,-15.5 136.6,-12 136.6,-19"/>
</g>
<!-- Node3 -->
<g id="node3" class="node">
<title>Node3</title>
<g id="a_node3"><a xlink:href="classunilink_1_1diagnostics_1_1Logger.html#a4a88b05c250af04b01f2a3d94473d0e3" target="_top" xlink:title="Get current log level.">
<polygon fill="white" stroke="black" points="294,-0.5 294,-30.5 405,-30.5 405,-0.5 294,-0.5"/>
<text text-anchor="start" x="302" y="-18.5" font-family="Helvetica,sans-Serif" font-size="10.00">unilink::diagnostics</text>
<text text-anchor="middle" x="349.5" y="-7.5" font-family="Helvetica,sans-Serif" font-size="10.00">::Logger::level</text>
</a>
</g>
</g>
<!-- Node2&#45;&gt;Node3 -->
<g id="edge2" class="edge">
<title>Node2&#45;&gt;Node3</title>
<path fill="none" stroke="midnightblue" d="M258.32,-15.5C266.53,-15.5 275.06,-15.5 283.46,-15.5"/>
<polygon fill="midnightblue" stroke="midnightblue" points="283.6,-19 293.6,-15.5 283.6,-12 283.6,-19"/>
</g>
</g>
</svg>
