<?xml version="1.0" encoding="UTF-8" standalone="no"?>
<!DOCTYPE svg PUBLIC "-//W3C//DTD SVG 1.1//EN"
 "http://www.w3.org/Graphics/SVG/1.1/DTD/svg11.dtd">
<!-- Generated by graphviz version 2.43.0 (0)
 -->
<!-- Title: unilink::builder::SerialBuilder::build Pages: 1 -->
<!--zoomable 622 -->

<svg id="main" version="1.1" xmlns="http://www.w3.org/2000/svg" xmlns:xlink="http://www.w3.org/1999/xlink" xml:space="preserve" onload="init(evt)">
<style type="text/css"><![CDATA[
.node, .edge {opacity: 0.7;}
.node.selected, .edge.selected {opacity: 1;}
.edge:hover path { stroke: red; }
.edge:hover polygon { stroke: red; fill: red; }
]]></style>

<defs>
  <circle id="rim" cx="0" cy="0" r="7"/>
  <circle id="rim2" cx="0" cy="0" r="3.5"/>
  <g id="zoomPlus">
    <use xlink:href="#rim" fill="#404040"><set attributeName="fill" to="#808080" begin="zoomplus.mouseover" end="zoomplus.mouseout"/></use>
    <path d="M-4,0h8M0,-4v8" fill="none" stroke="white" stroke-width="1.5" pointer-events="none"/>
  </g>
  <g id="zoomMin">
    <use xlink:href="#rim" fill="#404040"><set attributeName="fill" to="#808080" begin="zoomminus.mouseover" end="zoomminus.mouseout"/></use>
    <path d="M-4,0h8" fill="none" stroke="white" stroke-width="1.5" pointer-events="none"/>
  </g>
  <g id="arrowUp" transform="translate(30 24)">
    <use xlink:href="#rim"/>
    <path pointer-events="none" fill="none" stroke="white" stroke-width="1.5" d="M0,-3.0v7 M-2.5,-0.5L0,-3.0L2.5,-0.5"/>
  </g>
  <g id="arrowRight" transform="rotate(90) translate(36 -43)">
    <use xlink:href="#rim"/>
    <path pointer-events="none" fill="none" stroke="white" stroke-width="1.5" d="M0,-3.0v7 M-2.5,-0.5L0,-3.0L2.5,-0.5"/>
  </g>
  <g id="arrowDown" transform="rotate(180) translate(-30 -48)">
    <use xlink:href="#rim"/>
    <path pointer-events="none" fill="none" stroke="white" stroke-width="1.5" d="M0,-3.0v7 M-2.5,-0.5L0,-3.0L2.5,-0.5"/>
  </g>
  <g id="arrowLeft" transform="rotate(270) translate(-36 17)">
    <use xlink:href="#rim"/>
    <path pointer-events="none" fill="none" stroke="white" stroke-width="1.5" d="M0,-3.0v7 M-2.5,-0.5L0,-3.0L2.5,-0.5"/>
  </g>
  <g id="resetDef">
    <use xlink:href="#rim2" fill="#404040"><set attributeName="fill" to="#808080" begin="reset.mouseover" end="reset.mouseout"/></use>
  </g>
</defs>
<script type="application/ecmascript">
var viewWidth = 303;
var viewHeight = 622;
var sectionId = 'dynsection-5';
</script>
<script type="application/ecmascript" xlink:href="svg.min.js"/>
<svg id="graph" class="graph">
<g id="viewport">
<title>unilink::builder::SerialBuilder::build</title>
<!-- Node1 -->
<g id="Node000001" class="node">
<title>Node1</title>
<g id="a_Node000001"><a xlink:title="Build and return the configured product.">
<polygon fill="#999999" stroke="#666666" points="123,-308 0,-308 0,-278 123,-278 123,-308"/>
<text text-anchor="start" x="8" y="-296" font-family="Helvetica,sans-Serif" font-size="10.00">unilink::builder::Serial</text>
<text text-anchor="middle" x="61.5" y="-285" font-family="Helvetica,sans-Serif" font-size="10.00">Builder::build</text>
</a>
</g>
</g>
<!-- Node2 -->
<g id="Node000002" class="node">
<title>Node2</title>
<g id="a_Node000002"><a xlink:href="classunilink_1_1builder_1_1SerialBuilder.html#a1a81dd221f3c68ad547cbe4c293f2a6b" target="_top" xlink:title="Enable auto&#45;manage functionality.">
<polygon fill="white" stroke="#666666" points="288.5,-596 165.5,-596 165.5,-566 288.5,-566 288.5,-596"/>
<text text-anchor="start" x="173.5" y="-584" font-family="Helvetica,sans-Serif" font-size="10.00">unilink::builder::Serial</text>
<text text-anchor="middle" x="227" y="-573" font-family="Helvetica,sans-Serif" font-size="10.00">Builder::auto_start</text>
</a>
</g>
</g>
<!-- Node1&#45;&gt;Node2 -->
<g id="edge1_Node000001_Node000002" class="edge">
<title>Node1&#45;&gt;Node2</title>
<g id="a_edge1_Node000001_Node000002"><a xlink:title=" ">
<path fill="none" stroke="#63b8ff" d="M63.66,-308.19C67.85,-352.77 86.13,-484.6 159,-557 160.07,-558.06 161.19,-559.08 162.35,-560.05"/>
<polygon fill="#63b8ff" stroke="#63b8ff" points="160.37,-562.93 170.56,-565.82 164.39,-557.21 160.37,-562.93"/>
</a>
</g>
</g>
<!-- Node3 -->
<g id="Node000003" class="node">
<title>Node3</title>
<g id="a_Node000003"><a xlink:href="classunilink_1_1builder_1_1SerialBuilder.html#a806f98817d3b066f93f9ea5b8d159c15" target="_top" xlink:title="Set number of data bits.">
<polygon fill="white" stroke="#666666" points="288.5,-548 165.5,-548 165.5,-518 288.5,-518 288.5,-548"/>
<text text-anchor="start" x="173.5" y="-536" font-family="Helvetica,sans-Serif" font-size="10.00">unilink::builder::Serial</text>
<text text-anchor="middle" x="227" y="-525" font-family="Helvetica,sans-Serif" font-size="10.00">Builder::data_bits</text>
</a>
</g>
</g>
<!-- Node1&#45;&gt;Node3 -->
<g id="edge3_Node000001_Node000003" class="edge">
<title>Node1&#45;&gt;Node3</title>
<g id="a_edge3_Node000001_Node000003"><a xlink:title=" ">
<path fill="none" stroke="#63b8ff" d="M65.06,-308.2C72.39,-347.18 97.09,-451.63 159,-509 160.28,-510.18 161.62,-511.31 163.01,-512.38"/>
<polygon fill="#63b8ff" stroke="#63b8ff" points="161.19,-515.37 171.47,-517.94 165.03,-509.52 161.19,-515.37"/>
</a>
</g>
</g>
<!-- Node4 -->
<g id="Node000004" class="node">
<title>Node4</title>
<g id="a_Node000004"><a xlink:href="classunilink_1_1builder_1_1SerialBuilder.html#a963f3798eed15b91ec0342d7792e1d97" target="_top" xlink:title="Set flow control.">
<polygon fill="white" stroke="#666666" points="288.5,-500 165.5,-500 165.5,-470 288.5,-470 288.5,-500"/>
<text text-anchor="start" x="173.5" y="-488" font-family="Helvetica,sans-Serif" font-size="10.00">unilink::builder::Serial</text>
<text text-anchor="middle" x="227" y="-477" font-family="Helvetica,sans-Serif" font-size="10.00">Builder::flow_control</text>
</a>
</g>
</g>
<!-- Node1&#45;&gt;Node4 -->
<g id="edge4_Node000001_Node000004" class="edge">
<title>Node1&#45;&gt;Node4</title>
<g id="a_edge4_Node000001_Node000004"><a xlink:title=" ">
<path fill="none" stroke="#63b8ff" d="M67.25,-308.38C78.13,-341.14 107.92,-418.26 159,-461 160.53,-462.28 162.13,-463.49 163.79,-464.64"/>
<polygon fill="#63b8ff" stroke="#63b8ff" points="162.13,-467.73 172.5,-469.88 165.74,-461.73 162.13,-467.73"/>
</a>
</g>
</g>
<!-- Node5 -->
<g id="Node000005" class="node">
<title>Node5</title>
<g id="a_Node000005"><a xlink:href="classunilink_1_1builder_1_1BuilderInterface.html#acd6f6559458503f2d7fd8c57d62985c4" target="_top" xlink:title="Set a custom framer factory.">
<polygon fill="white" stroke="#666666" points="292,-452 162,-452 162,-422 292,-422 292,-452"/>
<text text-anchor="start" x="170" y="-440" font-family="Helvetica,sans-Serif" font-size="10.00">unilink::builder::Builder</text>
<text text-anchor="middle" x="227" y="-429" font-family="Helvetica,sans-Serif" font-size="10.00">Interface::framer</text>
</a>
</g>
</g>
<!-- Node1&#45;&gt;Node5 -->
<g id="edge5_Node000001_Node000005" class="edge">
<title>Node1&#45;&gt;Node5</title>
<g id="a_edge5_Node000001_Node000005"><a xlink:title=" ">
<path fill="none" stroke="#63b8ff" d="M70.88,-308.13C85.56,-333.34 118.28,-384 159,-413 161.07,-414.47 163.24,-415.87 165.48,-417.18"/>
<polygon fill="#63b8ff" stroke="#63b8ff" points="163.92,-420.32 174.4,-421.86 167.18,-414.12 163.92,-420.32"/>
</a>
</g>
</g>
<!-- Node6 -->
<g id="Node000006" class="node">
<title>Node6</title>
<g id="a_Node000006"><a xlink:href="classunilink_1_1builder_1_1BuilderInterface.html#aef6afb1aad926719826706b41e137071" target="_top" xlink:title="Set connection handler callback.">
<polygon fill="white" stroke="#666666" points="292,-404 162,-404 162,-374 292,-374 292,-404"/>
<text text-anchor="start" x="170" y="-392" font-family="Helvetica,sans-Serif" font-size="10.00">unilink::builder::Builder</text>
<text text-anchor="middle" x="227" y="-381" font-family="Helvetica,sans-Serif" font-size="10.00">Interface::on_connect</text>
</a>
</g>
</g>
<!-- Node1&#45;&gt;Node6 -->
<g id="edge6_Node000001_Node000006" class="edge">
<title>Node1&#45;&gt;Node6</title>
<g id="a_edge6_Node000001_Node000006"><a xlink:title=" ">
<path fill="none" stroke="#63b8ff" d="M79.57,-308.22C98.06,-324.11 128.98,-348.89 159,-365 162.24,-366.74 165.63,-368.4 169.09,-369.97"/>
<polygon fill="#63b8ff" stroke="#63b8ff" points="167.81,-373.23 178.38,-373.93 170.56,-366.79 167.81,-373.23"/>
</a>
</g>
</g>
<!-- Node7 -->
<g id="Node000007" class="node">
<title>Node7</title>
<g id="a_Node000007"><a xlink:href="classunilink_1_1builder_1_1BuilderInterface.html#aaff548b4457e2c2682a14a0c9aa7d940" target="_top" xlink:title="Set data handler callback.">
<polygon fill="white" stroke="#666666" points="292,-356 162,-356 162,-326 292,-326 292,-356"/>
<text text-anchor="start" x="170" y="-344" font-family="Helvetica,sans-Serif" font-size="10.00">unilink::builder::Builder</text>
<text text-anchor="middle" x="227" y="-333" font-family="Helvetica,sans-Serif" font-size="10.00">Interface::on_data</text>
</a>
</g>
</g>
<!-- Node1&#45;&gt;Node7 -->
<g id="edge7_Node000001_Node000007" class="edge">
<title>Node1&#45;&gt;Node7</title>
<g id="a_edge7_Node000001_Node000007"><a xlink:title=" ">
<path fill="none" stroke="#63b8ff" d="M113.78,-308.06C130.07,-312.84 148.23,-318.17 165.12,-323.13"/>
<polygon fill="#63b8ff" stroke="#63b8ff" points="164.32,-326.54 174.9,-326 166.29,-319.82 164.32,-326.54"/>
</a>
</g>
</g>
<!-- Node8 -->
<g id="Node000008" class="node">
<title>Node8</title>
<g id="a_Node000008"><a xlink:href="classunilink_1_1builder_1_1BuilderInterface.html#add49f2443a402ee3004c40f090f8f56a" target="_top" xlink:title="Set disconnection handler callback.">
<polygon fill="white" stroke="#666666" points="295,-308 159,-308 159,-278 295,-278 295,-308"/>
<text text-anchor="start" x="167" y="-296" font-family="Helvetica,sans-Serif" font-size="10.00">unilink::builder::Builder</text>
<text text-anchor="middle" x="227" y="-285" font-family="Helvetica,sans-Serif" font-size="10.00">Interface::on_disconnect</text>
</a>
</g>
</g>
<!-- Node1&#45;&gt;Node8 -->
<g id="edge8_Node000001_Node000008" class="edge">
<title>Node1&#45;&gt;Node8</title>
<g id="a_edge8_Node000001_Node000008"><a xlink:title=" ">
<path fill="none" stroke="#63b8ff" d="M123.38,-293C131.58,-293 140.08,-293 148.51,-293"/>
<polygon fill="#63b8ff" stroke="#63b8ff" points="148.75,-296.5 158.75,-293 148.75,-289.5 148.75,-296.5"/>
</a>
</g>
</g>
<!-- Node9 -->
<g id="Node000009" class="node">
<title>Node9</title>
<g id="a_Node000009"><a xlink:href="classunilink_1_1builder_1_1BuilderInterface.html#ac0fd38617f00cc7fd8edb0d926b1cd1d" target="_top" xlink:title="Set error handler callback.">
<polygon fill="white" stroke="#666666" points="292,-260 162,-260 162,-230 292,-230 292,-260"/>
<text text-anchor="start" x="170" y="-248" font-family="Helvetica,sans-Serif" font-size="10.00">unilink::builder::Builder</text>
<text text-anchor="middle" x="227" y="-237" font-family="Helvetica,sans-Serif" font-size="10.00">Interface::on_error</text>
</a>
</g>
</g>
<!-- Node1&#45;&gt;Node9 -->
<g id="edge9_Node000001_Node000009" class="edge">
<title>Node1&#45;&gt;Node9</title>
<g id="a_edge9_Node000001_Node000009"><a xlink:title=" ">
<path fill="none" stroke="#63b8ff" d="M113.78,-277.94C130.07,-273.16 148.23,-267.83 165.12,-262.87"/>
<polygon fill="#63b8ff" stroke="#63b8ff" points="166.29,-266.18 174.9,-260 164.32,-259.46 166.29,-266.18"/>
</a>
</g>
</g>
<!-- Node10 -->
<g id="Node000010" class="node">
<title>Node10</title>
<g id="a_Node000010"><a xlink:href="classunilink_1_1builder_1_1BuilderInterface.html#af02e4e518d5654001d6db1a5f3aa2154" target="_top" xlink:title="Set message handler callback (for framed messages)">
<polygon fill="white" stroke="#666666" points="292,-212 162,-212 162,-182 292,-182 292,-212"/>
<text text-anchor="start" x="170" y="-200" font-family="Helvetica,sans-Serif" font-size="10.00">unilink::builder::Builder</text>
<text text-anchor="middle" x="227" y="-189" font-family="Helvetica,sans-Serif" font-size="10.00">Interface::on_message</text>
</a>
</g>
</g>
<!-- Node1&#45;&gt;Node10 -->
<g id="edge10_Node000001_Node000010" class="edge">
<title>Node1&#45;&gt;Node10</title>
<g id="a_edge10_Node000001_Node000010"><a xlink:title=" ">
<path fill="none" stroke="#63b8ff" d="M79.57,-277.78C98.06,-261.89 128.98,-237.11 159,-221 162.24,-219.26 165.63,-217.6 169.09,-216.03"/>
<polygon fill="#63b8ff" stroke="#63b8ff" points="170.56,-219.21 178.38,-212.07 167.81,-212.77 170.56,-219.21"/>
</a>
</g>
</g>
<!-- Node11 -->
<g id="Node000011" class="node">
<title>Node11</title>
<g id="a_Node000011"><a xlink:href="classunilink_1_1builder_1_1SerialBuilder.html#a4126f76a8f94c12b466f886baa8f5191" target="_top" xlink:title="Set parity.">
<polygon fill="white" stroke="#666666" points="288.5,-164 165.5,-164 165.5,-134 288.5,-134 288.5,-164"/>
<text text-anchor="start" x="173.5" y="-152" font-family="Helvetica,sans-Serif" font-size="10.00">unilink::builder::Serial</text>
<text text-anchor="middle" x="227" y="-141" font-family="Helvetica,sans-Serif" font-size="10.00">Builder::parity</text>
</a>
</g>
</g>
<!-- Node1&#45;&gt;Node11 -->
<g id="edge11_Node000001_Node000011" class="edge">
<title>Node1&#45;&gt;Node11</title>
<g id="a_edge11_Node000001_Node000011"><a xlink:title=" ">
<path fill="none" stroke="#63b8ff" d="M70.88,-277.87C85.56,-252.66 118.28,-202 159,-173 161.07,-171.53 163.24,-170.13 165.48,-168.82"/>
<polygon fill="#63b8ff" stroke="#63b8ff" points="167.18,-171.88 174.4,-164.14 163.92,-165.68 167.18,-171.88"/>
</a>
</g>
</g>
<!-- Node12 -->
<g id="Node000012" class="node">
<title>Node12</title>
<g id="a_Node000012"><a xlink:href="classunilink_1_1builder_1_1SerialBuilder.html#adb37ca6c2f6f64a88661320c7917da43" target="_top" xlink:title="Set reconnection retry interval.">
<polygon fill="white" stroke="#666666" points="288.5,-116 165.5,-116 165.5,-86 288.5,-86 288.5,-116"/>
<text text-anchor="start" x="173.5" y="-104" font-family="Helvetica,sans-Serif" font-size="10.00">unilink::builder::Serial</text>
<text text-anchor="middle" x="227" y="-93" font-family="Helvetica,sans-Serif" font-size="10.00">Builder::retry_interval</text>
</a>
</g>
</g>
<!-- Node1&#45;&gt;Node12 -->
<g id="edge12_Node000001_Node000012" class="edge">
<title>Node1&#45;&gt;Node12</title>
<g id="a_edge12_Node000001_Node000012"><a xlink:title=" ">
<path fill="none" stroke="#63b8ff" d="M67.25,-277.62C78.13,-244.86 107.92,-167.74 159,-125 160.53,-123.72 162.13,-122.51 163.79,-121.36"/>
<polygon fill="#63b8ff" stroke="#63b8ff" points="165.74,-124.27 172.5,-116.12 162.13,-118.27 165.74,-124.27"/>
</a>
</g>
</g>
<!-- Node13 -->
<g id="Node000013" class="node">
<title>Node13</title>
<g id="a_Node000013"><a xlink:href="namespaceunilink.html#a9f2227aea1475c0655cf8cf4a99e55e9" target="_top" xlink:title="Create a Serial port builder.">
<polygon fill="white" stroke="#666666" points="268.5,-67.5 185.5,-67.5 185.5,-48.5 268.5,-48.5 268.5,-67.5"/>
<text text-anchor="middle" x="227" y="-55.5" font-family="Helvetica,sans-Serif" font-size="10.00">unilink::serial</text>
</a>
</g>
</g>
<!-- Node1&#45;&gt;Node13 -->
<g id="edge13_Node000001_Node000013" class="edge">
<title>Node1&#45;&gt;Node13</title>
<g id="a_edge13_Node000001_Node000013"><a xlink:title=" ">
<path fill="none" stroke="#63b8ff" d="M64.78,-277.84C71.53,-238.5 95.03,-132.37 159,-77 163.86,-72.79 169.59,-69.52 175.62,-66.96"/>
<polygon fill="#63b8ff" stroke="#63b8ff" points="177.02,-70.18 185.26,-63.51 174.66,-63.58 177.02,-70.18"/>
</a>
</g>
</g>
<!-- Node14 -->
<g id="Node000014" class="node">
<title>Node14</title>
<g id="a_Node000014"><a xlink:href="classunilink_1_1builder_1_1SerialBuilder.html#a5b1bd5fbbb3503e306a3b008c8c9cd74" target="_top" xlink:title="Set number of stop bits.">
<polygon fill="white" stroke="#666666" points="288.5,-30 165.5,-30 165.5,0 288.5,0 288.5,-30"/>
<text text-anchor="start" x="173.5" y="-18" font-family="Helvetica,sans-Serif" font-size="10.00">unilink::builder::Serial</text>
<text text-anchor="middle" x="227" y="-7" font-family="Helvetica,sans-Serif" font-size="10.00">Builder::stop_bits</text>
</a>
</g>
</g>
<!-- Node1&#45;&gt;Node14 -->
<g id="edge14_Node000001_Node000014" class="edge">
<title>Node1&#45;&gt;Node14</title>
<g id="a_edge14_Node000001_Node000014"><a xlink:title=" ">
<path fill="none" stroke="#63b8ff" d="M63.98,-277.86C68.98,-234.64 89.11,-109.39 159,-40 160.45,-38.56 162,-37.2 163.62,-35.91"/>
<polygon fill="#63b8ff" stroke="#63b8ff" points="165.89,-38.6 172.23,-30.12 161.98,-32.79 165.89,-38.6"/>
</a>
</g>
</g>
<!-- Node2&#45;&gt;Node2 -->
<g id="edge2_Node000002_Node000002" class="edge">
<title>Node2&#45;&gt;Node2</title>
<g id="a_edge2_Node000002_Node000002"><a xlink:title=" ">
<path fill="none" stroke="#63b8ff" d="M198.17,-596.28C191.77,-605.41 201.38,-614 227,-614 242.21,-614 251.78,-610.97 255.71,-606.6"/>
<polygon fill="#63b8ff" stroke="#63b8ff" points="259.21,-606.32 255.83,-596.28 252.21,-606.23 259.21,-606.32"/>
</a>
</g>
</g>
</g>
</svg>

<g id="navigator" transform="translate(0 0)" fill="#404254">
  <rect fill="#f2f5e9" fill-opacity="0.5" stroke="#606060" stroke-width=".5" x="0" y="0" width="60" height="60"/>
  <use id="zoomplus" xlink:href="#zoomPlus" x="17" y="9" onmousedown="handleZoom(evt,'in')"/>
  <use id="zoomminus" xlink:href="#zoomMin" x="42" y="9" onmousedown="handleZoom(evt,'out')"/>
  <use id="reset" xlink:href="#resetDef" x="30" y="36" onmousedown="handleReset()"/>
   <use id="arrowup" xlink:href="#arrowUp" x="0" y="0" onmousedown="handlePan(0,-1)"/>
  <use id="arrowright" xlink:href="#arrowRight" x="0" y="0" onmousedown="handlePan(1,0)"/>
  <use id="arrowdown" xlink:href="#arrowDown" x="0" y="0" onmousedown="handlePan(0,1)"/>
  <use id="arrowleft" xlink:href="#arrowLeft" x="0" y="0" onmousedown="handlePan(-1,0)"/>
</g>
<svg viewBox="0 0 15 15" width="100%" height="30px" preserveAspectRatio="xMaxYMin meet">
 <g id="arrow_out" transform="scale(0.3 0.3)">
  <a xlink:href="classunilink_1_1builder_1_1SerialBuilder_aea59bfd17313e2607a96ea9f01c2dcda_cgraph_org.svg" target="_base">
   <rect id="button" ry="5" rx="5" y="6" x="6" height="38" width="38"
        fill="#f2f5e9" fill-opacity="0.5" stroke="#606060" stroke-width="1.0"/>
   <path id="arrow"
     d="M 11.500037,31.436501 C 11.940474,20.09759 22.043105,11.32322 32.158766,21.979434 L 37.068811,17.246167 C 37.068811,17.246167 37.088388,32 37.088388,32 L 22.160133,31.978069 C 22.160133,31.978069 26.997745,27.140456 26.997745,27.140456 C 18.528582,18.264221 13.291696,25.230495 11.500037,31.436501 z"
     style="fill:#404040;"/>
  </a>
 </g>
</svg>

<style type='text/css'>
<![CDATA[
[data-mouse-over-selected='false'] { opacity: 0.7; }
[data-mouse-over-selected='true']  { opacity: 1.0; }
]]>
</style>
<script type="application/ecmascript"><![CDATA[
document.addEventListener('DOMContentLoaded', (event) => {
  highlightEdges();
  highlightAdjacentNodes();
});
]]></script>
</svg>
