<?xml version="1.0" encoding="UTF-8" standalone="no"?>
<!DOCTYPE svg PUBLIC "-//W3C//DTD SVG 1.1//EN"
 "http://www.w3.org/Graphics/SVG/1.1/DTD/svg11.dtd">
<!-- Generated by graphviz version 2.43.0 (0)
 -->
<!-- Title: unilink::transport::UdpChannel Pages: 1 -->
<svg width="308pt" height="413pt"
 viewBox="0.00 0.00 308.00 413.00" xmlns="http://www.w3.org/2000/svg" xmlns:xlink="http://www.w3.org/1999/xlink">
<g id="graph0" class="graph" transform="scale(1 1) rotate(0) translate(4 409)">
<title>unilink::transport::UdpChannel</title>
<polygon fill="white" stroke="transparent" points="-4,4 -4,-409 304,-409 304,4 -4,4"/>
<!-- Node1 -->
<g id="node1" class="node">
<title>Node1</title>
<g id="a_node1"><a xlink:title="UDP Transport implementation with 1:N support.">
<polygon fill="#bfbfbf" stroke="black" points="81.5,-0.5 81.5,-200.5 208.5,-200.5 208.5,-0.5 81.5,-0.5"/>
<text text-anchor="start" x="89.5" y="-188.5" font-family="Helvetica,sans-Serif" font-size="10.00">unilink::transport</text>
<text text-anchor="middle" x="145" y="-177.5" font-family="Helvetica,sans-Serif" font-size="10.00">::UdpChannel</text>
<polyline fill="none" stroke="black" points="81.5,-170.5 208.5,-170.5 "/>
<text text-anchor="middle" x="145" y="-158.5" font-family="Helvetica,sans-Serif" font-size="10.00"> </text>
<polyline fill="none" stroke="black" points="81.5,-151.5 208.5,-151.5 "/>
<text text-anchor="start" x="89.5" y="-139.5" font-family="Helvetica,sans-Serif" font-size="10.00">+ ~UdpChannel()</text>
<text text-anchor="start" x="89.5" y="-128.5" font-family="Helvetica,sans-Serif" font-size="10.00">+ UdpChannel()</text>
<text text-anchor="start" x="89.5" y="-117.5" font-family="Helvetica,sans-Serif" font-size="10.00">+ operator=()</text>
<text text-anchor="start" x="89.5" y="-106.5" font-family="Helvetica,sans-Serif" font-size="10.00">+ UdpChannel()</text>
<text text-anchor="start" x="89.5" y="-95.5" font-family="Helvetica,sans-Serif" font-size="10.00">+ operator=()</text>
<text text-anchor="start" x="89.5" y="-84.5" font-family="Helvetica,sans-Serif" font-size="10.00">+ start()</text>
<text text-anchor="start" x="89.5" y="-73.5" font-family="Helvetica,sans-Serif" font-size="10.00">+ stop()</text>
<text text-anchor="start" x="89.5" y="-62.5" font-family="Helvetica,sans-Serif" font-size="10.00">+ is_connected()</text>
<text text-anchor="start" x="89.5" y="-51.5" font-family="Helvetica,sans-Serif" font-size="10.00">+ async_write_copy()</text>
<text text-anchor="start" x="89.5" y="-40.5" font-family="Helvetica,sans-Serif" font-size="10.00">+ async_write_move()</text>
<text text-anchor="start" x="89.5" y="-29.5" font-family="Helvetica,sans-Serif" font-size="10.00">and 8 more...</text>
<text text-anchor="start" x="89.5" y="-18.5" font-family="Helvetica,sans-Serif" font-size="10.00">+ create()</text>
<text text-anchor="start" x="89.5" y="-7.5" font-family="Helvetica,sans-Serif" font-size="10.00">+ create()</text>
</a>
</g>
</g>
<!-- Node2 -->
<g id="node2" class="node">
<title>Node2</title>
<g id="a_node2"><a xlink:href="classunilink_1_1interface_1_1Channel.html" target="_top" xlink:title=" ">
<polygon fill="white" stroke="black" points="0,-237.5 0,-404.5 132,-404.5 132,-237.5 0,-237.5"/>
<text text-anchor="start" x="8" y="-392.5" font-family="Helvetica,sans-Serif" font-size="10.00">unilink::interface</text>
<text text-anchor="middle" x="66" y="-381.5" font-family="Helvetica,sans-Serif" font-size="10.00">::Channel</text>
<polyline fill="none" stroke="black" points="0,-374.5 132,-374.5 "/>
<text text-anchor="middle" x="66" y="-362.5" font-family="Helvetica,sans-Serif" font-size="10.00"> </text>
<polyline fill="none" stroke="black" points="0,-355.5 132,-355.5 "/>
<text text-anchor="start" x="8" y="-343.5" font-family="Helvetica,sans-Serif" font-size="10.00">+ ~Channel()</text>
<text text-anchor="start" x="8" y="-332.5" font-family="Helvetica,sans-Serif" font-size="10.00">+ start()</text>
<text text-anchor="start" x="8" y="-321.5" font-family="Helvetica,sans-Serif" font-size="10.00">+ stop()</text>
<text text-anchor="start" x="8" y="-310.5" font-family="Helvetica,sans-Serif" font-size="10.00">+ is_connected()</text>
<text text-anchor="start" x="8" y="-299.5" font-family="Helvetica,sans-Serif" font-size="10.00">+ async_write_copy()</text>
<text text-anchor="start" x="8" y="-288.5" font-family="Helvetica,sans-Serif" font-size="10.00">+ async_write_move()</text>
<text text-anchor="start" x="8" y="-277.5" font-family="Helvetica,sans-Serif" font-size="10.00">+ async_write_shared()</text>
<text text-anchor="start" x="8" y="-266.5" font-family="Helvetica,sans-Serif" font-size="10.00">+ on_bytes()</text>
<text text-anchor="start" x="8" y="-255.5" font-family="Helvetica,sans-Serif" font-size="10.00">+ on_state()</text>
<text text-anchor="start" x="8" y="-244.5" font-family="Helvetica,sans-Serif" font-size="10.00">+ on_backpressure()</text>
</a>
</g>
</g>
<!-- Node2&#45;&gt;Node1 -->
<g id="edge1" class="edge">
<title>Node2&#45;&gt;Node1</title>
<path fill="none" stroke="midnightblue" d="M99.34,-227.78C102.57,-218.85 105.86,-209.76 109.11,-200.76"/>
<polygon fill="none" stroke="midnightblue" points="95.98,-226.8 95.87,-237.39 102.56,-229.18 95.98,-226.8"/>
</g>
<!-- Node3 -->
<g id="node3" class="node">
<title>Node3</title>
<g id="a_node3"><a xlink:title=" ">
<polygon fill="white" stroke="#bfbfbf" points="150,-287 150,-355 300,-355 300,-287 150,-287"/>
<text text-anchor="start" x="158" y="-343" font-family="Helvetica,sans-Serif" font-size="10.00">std::enable_shared</text>
<text text-anchor="middle" x="225" y="-332" font-family="Helvetica,sans-Serif" font-size="10.00">_from_this&lt; UdpChannel &gt;</text>
<polyline fill="none" stroke="#bfbfbf" points="150,-325 300,-325 "/>
<text text-anchor="middle" x="225" y="-313" font-family="Helvetica,sans-Serif" font-size="10.00"> </text>
<polyline fill="none" stroke="#bfbfbf" points="150,-306 300,-306 "/>
<text text-anchor="middle" x="225" y="-294" font-family="Helvetica,sans-Serif" font-size="10.00"> </text>
</a>
</g>
</g>
<!-- Node3&#45;&gt;Node1 -->
<g id="edge2" class="edge">
<title>Node3&#45;&gt;Node1</title>
<path fill="none" stroke="midnightblue" d="M209.32,-277.18C201.31,-255.29 191.19,-227.66 181.37,-200.84"/>
<polygon fill="none" stroke="midnightblue" points="206.12,-278.63 212.85,-286.81 212.7,-276.22 206.12,-278.63"/>
</g>
</g>
</svg>
