<?xml version="1.0" encoding="UTF-8" standalone="no"?>
<!DOCTYPE svg PUBLIC "-//W3C//DTD SVG 1.1//EN"
 "http://www.w3.org/Graphics/SVG/1.1/DTD/svg11.dtd">
<!-- Generated by graphviz version 2.43.0 (0)
 -->
<!-- Title: unilink::wrapper::Serial::send Pages: 1 -->
<svg width="313pt" height="88pt"
 viewBox="0.00 0.00 313.00 88.00" xmlns="http://www.w3.org/2000/svg" xmlns:xlink="http://www.w3.org/1999/xlink">
<g id="graph0" class="graph" transform="scale(1 1) rotate(0) translate(4 84)">
<title>unilink::wrapper::Serial::send</title>
<polygon fill="white" stroke="transparent" points="-4,4 -4,-84 309,-84 309,4 -4,4"/>
<!-- Node1 -->
<g id="node1" class="node">
<title>Node1</title>
<g id="a_node1"><a xlink:title="Enqueue data for transmission.">
<polygon fill="#bfbfbf" stroke="black" points="0,-24.5 0,-54.5 129,-54.5 129,-24.5 0,-24.5"/>
<text text-anchor="start" x="8" y="-42.5" font-family="Helvetica,sans-Serif" font-size="10.00">unilink::wrapper::Serial</text>
<text text-anchor="middle" x="64.5" y="-31.5" font-family="Helvetica,sans-Serif" font-size="10.00">::send</text>
</a>
</g>
</g>
<!-- Node2 -->
<g id="node2" class="node">
<title>Node2</title>
<g id="a_node2"><a xlink:href="classunilink_1_1wrapper_1_1Serial.html#a5b9f553c0f4fe67d316a9c30e391c3d8" target="_top" xlink:title=" ">
<polygon fill="white" stroke="black" points="170.5,-49.5 170.5,-79.5 299.5,-79.5 299.5,-49.5 170.5,-49.5"/>
<text text-anchor="start" x="178.5" y="-67.5" font-family="Helvetica,sans-Serif" font-size="10.00">unilink::wrapper::Serial</text>
<text text-anchor="middle" x="235" y="-56.5" font-family="Helvetica,sans-Serif" font-size="10.00">::connected</text>
</a>
</g>
</g>
<!-- Node1&#45;&gt;Node2 -->
<g id="edge1" class="edge">
<title>Node1&#45;&gt;Node2</title>
<path fill="none" stroke="midnightblue" d="M129.2,-48.95C139.44,-50.47 150.12,-52.05 160.56,-53.6"/>
<polygon fill="midnightblue" stroke="midnightblue" points="160.08,-57.07 170.49,-55.08 161.11,-50.15 160.08,-57.07"/>
</g>
<!-- Node3 -->
<g id="node3" class="node">
<title>Node3</title>
<g id="a_node3"><a xlink:href="namespaceunilink_1_1base_1_1safe__convert.html#a853a1e8b21339030dc0176b78ffe75ac" target="_top" xlink:title="Safely obtain a view of std::string as byte array without allocation.">
<polygon fill="white" stroke="black" points="165,-0.5 165,-30.5 305,-30.5 305,-0.5 165,-0.5"/>
<text text-anchor="start" x="173" y="-18.5" font-family="Helvetica,sans-Serif" font-size="10.00">unilink::base::safe</text>
<text text-anchor="middle" x="235" y="-7.5" font-family="Helvetica,sans-Serif" font-size="10.00">_convert::string_to_bytes</text>
</a>
</g>
</g>
<!-- Node1&#45;&gt;Node3 -->
<g id="edge2" class="edge">
<title>Node1&#45;&gt;Node3</title>
<path fill="none" stroke="midnightblue" d="M129.2,-30.43C137.58,-29.23 146.24,-28 154.83,-26.78"/>
<polygon fill="midnightblue" stroke="midnightblue" points="155.45,-30.22 164.86,-25.35 154.47,-23.29 155.45,-30.22"/>
</g>
</g>
</svg>
