<?xml version="1.0" encoding="UTF-8" standalone="no"?>
<!DOCTYPE svg PUBLIC "-//W3C//DTD SVG 1.1//EN"
 "http://www.w3.org/Graphics/SVG/1.1/DTD/svg11.dtd">
<!-- Generated by graphviz version 2.43.0 (0)
 -->
<!-- Title: unilink::builder::UdsServerBuilder Pages: 1 -->
<svg width="204pt" height="1006pt"
 viewBox="0.00 0.00 204.00 1006.00" xmlns="http://www.w3.org/2000/svg" xmlns:xlink="http://www.w3.org/1999/xlink">
<g id="graph0" class="graph" transform="scale(1 1) rotate(0) translate(4 1002)">
<title>unilink::builder::UdsServerBuilder</title>
<!-- Node1 -->
<g id="Node000001" class="node">
<title>Node1</title>
<g id="a_Node000001"><a xlink:title="Modernized Builder for UdsServer.">
<polygon fill="#999999" stroke="transparent" points="152,-150 12,-150 12,0 152,0 152,-150"/>
<text text-anchor="start" x="17" y="-138" font-family="Helvetica,sans-Serif" font-size="10.00">unilink::builder::UdsServer</text>
<text text-anchor="start" x="64.5" y="-127" font-family="Helvetica,sans-Serif" font-size="10.00">Builder</text>
<text text-anchor="start" x="80" y="-112" font-family="Helvetica,sans-Serif" font-size="10.00"> </text>
<text text-anchor="start" x="18" y="-97" font-family="Helvetica,sans-Serif" font-size="10.00">+</text>
<text text-anchor="start" x="33" y="-97" font-family="Helvetica,sans-Serif" font-size="10.00">UdsServerBuilder()</text>
<text text-anchor="start" x="18" y="-82" font-family="Helvetica,sans-Serif" font-size="10.00">+</text>
<text text-anchor="start" x="33" y="-82" font-family="Helvetica,sans-Serif" font-size="10.00">build()</text>
<text text-anchor="start" x="18" y="-67" font-family="Helvetica,sans-Serif" font-size="10.00">+</text>
<text text-anchor="start" x="33" y="-67" font-family="Helvetica,sans-Serif" font-size="10.00">auto_start()</text>
<text text-anchor="start" x="18" y="-52" font-family="Helvetica,sans-Serif" font-size="10.00">+</text>
<text text-anchor="start" x="33" y="-52" font-family="Helvetica,sans-Serif" font-size="10.00">independent_context()</text>
<text text-anchor="start" x="18" y="-37" font-family="Helvetica,sans-Serif" font-size="10.00">+</text>
<text text-anchor="start" x="33" y="-37" font-family="Helvetica,sans-Serif" font-size="10.00">idle_timeout()</text>
<text text-anchor="start" x="18" y="-22" font-family="Helvetica,sans-Serif" font-size="10.00">+</text>
<text text-anchor="start" x="33" y="-22" font-family="Helvetica,sans-Serif" font-size="10.00">max_clients()</text>
<text text-anchor="start" x="18" y="-7" font-family="Helvetica,sans-Serif" font-size="10.00">+</text>
<text text-anchor="start" x="33" y="-7" font-family="Helvetica,sans-Serif" font-size="10.00">unlimited_clients()</text>
<polygon fill="#666666" stroke="#666666" points="12,-122 12,-122 152,-122 152,-122 12,-122"/>
<polygon fill="#666666" stroke="#666666" points="12,-107 12,-107 152,-107 152,-107 12,-107"/>
<polygon fill="none" stroke="#666666" points="12,0 12,-150 152,-150 152,0 12,0"/>
</a>
</g>
</g>
<!-- Node2 -->
<g id="Node000002" class="node">
<title>Node2</title>
<g id="a_Node000002"><a xlink:href="classunilink_1_1builder_1_1BuilderInterface.html" target="_top" xlink:title=" ">
<polygon fill="white" stroke="transparent" points="164,-569 0,-569 0,-187 164,-187 164,-569"/>
<text text-anchor="start" x="5" y="-557" font-family="Helvetica,sans-Serif" font-size="10.00">unilink::builder::Builder</text>
<text text-anchor="start" x="5" y="-546" font-family="Helvetica,sans-Serif" font-size="10.00">Interface&lt; wrapper::UdsServer,</text>
<text text-anchor="start" x="32" y="-535" font-family="Helvetica,sans-Serif" font-size="10.00"> UdsServerBuilder &gt;</text>
<text text-anchor="start" x="6" y="-520" font-family="Helvetica,sans-Serif" font-size="10.00">#</text>
<text text-anchor="start" x="21" y="-520" font-family="Helvetica,sans-Serif" font-size="10.00">framer_factory_</text>
<text text-anchor="start" x="6" y="-505" font-family="Helvetica,sans-Serif" font-size="10.00">#</text>
<text text-anchor="start" x="21" y="-505" font-family="Helvetica,sans-Serif" font-size="10.00">on_data_</text>
<text text-anchor="start" x="6" y="-490" font-family="Helvetica,sans-Serif" font-size="10.00">#</text>
<text text-anchor="start" x="21" y="-490" font-family="Helvetica,sans-Serif" font-size="10.00">on_connect_</text>
<text text-anchor="start" x="6" y="-475" font-family="Helvetica,sans-Serif" font-size="10.00">#</text>
<text text-anchor="start" x="21" y="-475" font-family="Helvetica,sans-Serif" font-size="10.00">on_disconnect_</text>
<text text-anchor="start" x="6" y="-460" font-family="Helvetica,sans-Serif" font-size="10.00">#</text>
<text text-anchor="start" x="21" y="-460" font-family="Helvetica,sans-Serif" font-size="10.00">on_error_</text>
<text text-anchor="start" x="6" y="-445" font-family="Helvetica,sans-Serif" font-size="10.00">#</text>
<text text-anchor="start" x="21" y="-445" font-family="Helvetica,sans-Serif" font-size="10.00">on_message_</text>
<text text-anchor="start" x="6" y="-430" font-family="Helvetica,sans-Serif" font-size="10.00">#</text>
<text text-anchor="start" x="21" y="-430" font-family="Helvetica,sans-Serif" font-size="10.00">bp_strategy_</text>
<text text-anchor="start" x="6" y="-415" font-family="Helvetica,sans-Serif" font-size="10.00">#</text>
<text text-anchor="start" x="21" y="-415" font-family="Helvetica,sans-Serif" font-size="10.00">bp_threshold_</text>
<text text-anchor="start" x="6" y="-400" font-family="Helvetica,sans-Serif" font-size="10.00">#</text>
<text text-anchor="start" x="21" y="-400" font-family="Helvetica,sans-Serif" font-size="10.00">bp_strategy_set_</text>
<text text-anchor="start" x="6" y="-385" font-family="Helvetica,sans-Serif" font-size="10.00">#</text>
<text text-anchor="start" x="21" y="-385" font-family="Helvetica,sans-Serif" font-size="10.00">bp_threshold_set_</text>
<text text-anchor="start" x="6" y="-370" font-family="Helvetica,sans-Serif" font-size="10.00">+</text>
<text text-anchor="start" x="21" y="-370" font-family="Helvetica,sans-Serif" font-size="10.00">~BuilderInterface()</text>
<text text-anchor="start" x="6" y="-355" font-family="Helvetica,sans-Serif" font-size="10.00">+</text>
<text text-anchor="start" x="21" y="-355" font-family="Helvetica,sans-Serif" font-size="10.00">BuilderInterface()</text>
<text text-anchor="start" x="6" y="-340" font-family="Helvetica,sans-Serif" font-size="10.00">+</text>
<text text-anchor="start" x="21" y="-340" font-family="Helvetica,sans-Serif" font-size="10.00">BuilderInterface()</text>
<text text-anchor="start" x="6" y="-325" font-family="Helvetica,sans-Serif" font-size="10.00">+</text>
<text text-anchor="start" x="21" y="-325" font-family="Helvetica,sans-Serif" font-size="10.00">BuilderInterface()</text>
<text text-anchor="start" x="6" y="-310" font-family="Helvetica,sans-Serif" font-size="10.00">+</text>
<text text-anchor="start" x="21" y="-310" font-family="Helvetica,sans-Serif" font-size="10.00">operator=()</text>
<text text-anchor="start" x="6" y="-295" font-family="Helvetica,sans-Serif" font-size="10.00">+</text>
<text text-anchor="start" x="21" y="-295" font-family="Helvetica,sans-Serif" font-size="10.00">operator=()</text>
<text text-anchor="start" x="6" y="-280" font-family="Helvetica,sans-Serif" font-size="10.00">+</text>
<text text-anchor="start" x="21" y="-280" font-family="Helvetica,sans-Serif" font-size="10.00">build()</text>
<text text-anchor="start" x="6" y="-265" font-family="Helvetica,sans-Serif" font-size="10.00">+</text>
<text text-anchor="start" x="21" y="-265" font-family="Helvetica,sans-Serif" font-size="10.00">auto_start()</text>
<text text-anchor="start" x="6" y="-250" font-family="Helvetica,sans-Serif" font-size="10.00">+</text>
<text text-anchor="start" x="21" y="-250" font-family="Helvetica,sans-Serif" font-size="10.00">on_data()</text>
<text text-anchor="start" x="6" y="-235" font-family="Helvetica,sans-Serif" font-size="10.00">+</text>
<text text-anchor="start" x="21" y="-235" font-family="Helvetica,sans-Serif" font-size="10.00">on_data()</text>
<text text-anchor="start" x="21" y="-220" font-family="Helvetica,sans-Serif" font-size="10.00">and 13 more...</text>
<text text-anchor="start" x="6" y="-205" font-family="Helvetica,sans-Serif" font-size="10.00">#</text>
<text text-anchor="start" x="21" y="-205" font-family="Helvetica,sans-Serif" font-size="10.00">get_effective_backpressure</text>
<text text-anchor="start" x="21" y="-194" font-family="Helvetica,sans-Serif" font-size="10.00">_threshold()</text>
<polygon fill="#666666" stroke="#666666" points="0,-530 0,-530 164,-530 164,-530 0,-530"/>
<polygon fill="#666666" stroke="#666666" points="0,-380 0,-380 19,-380 19,-380 0,-380"/>
<polygon fill="#666666" stroke="#666666" points="19,-380 19,-380 164,-380 164,-380 19,-380"/>
<polygon fill="none" stroke="#666666" points="0,-187 0,-569 164,-569 164,-187 0,-187"/>
</a>
</g>
</g>
<!-- Node2&#45;&gt;Node1 -->
<g id="edge1_Node000001_Node000002" class="edge">
<title>Node2&#45;&gt;Node1</title>
<g id="a_edge1_Node000001_Node000002"><a xlink:title=" ">
<path fill="none" stroke="#63b8ff" d="M82,-176.73C82,-167.54 82,-158.63 82,-150.16"/>
<polygon fill="none" stroke="#63b8ff" points="78.5,-176.8 82,-186.8 85.5,-176.8 78.5,-176.8"/>
</a>
</g>
</g>
<!-- Node3 -->
<g id="Node000003" class="node">
<title>Node3</title>
<g id="a_Node000003"><a xlink:href="classunilink_1_1builder_1_1BuilderInterface.html" target="_top" xlink:title="Generic Builder interface for fluent API pattern.">
<polygon fill="white" stroke="transparent" points="160,-998 4,-998 4,-627 160,-627 160,-998"/>
<text text-anchor="start" x="23.5" y="-985.5" font-family="Helvetica,sans-Serif" font-size="10.00">unilink::builder::Builder</text>
<text text-anchor="start" x="23.5" y="-974.5" font-family="Helvetica,sans-Serif" font-size="10.00">Interface&lt; T, Derived &gt;</text>
<text text-anchor="start" x="8" y="-959.5" font-family="Helvetica,sans-Serif" font-size="10.00">#</text>
<text text-anchor="start" x="21" y="-959.5" font-family="Helvetica,sans-Serif" font-size="10.00">framer_factory_</text>
<text text-anchor="start" x="8" y="-944.5" font-family="Helvetica,sans-Serif" font-size="10.00">#</text>
<text text-anchor="start" x="21" y="-944.5" font-family="Helvetica,sans-Serif" font-size="10.00">on_data_</text>
<text text-anchor="start" x="8" y="-929.5" font-family="Helvetica,sans-Serif" font-size="10.00">#</text>
<text text-anchor="start" x="21" y="-929.5" font-family="Helvetica,sans-Serif" font-size="10.00">on_connect_</text>
<text text-anchor="start" x="8" y="-914.5" font-family="Helvetica,sans-Serif" font-size="10.00">#</text>
<text text-anchor="start" x="21" y="-914.5" font-family="Helvetica,sans-Serif" font-size="10.00">on_disconnect_</text>
<text text-anchor="start" x="8" y="-899.5" font-family="Helvetica,sans-Serif" font-size="10.00">#</text>
<text text-anchor="start" x="21" y="-899.5" font-family="Helvetica,sans-Serif" font-size="10.00">on_error_</text>
<text text-anchor="start" x="8" y="-884.5" font-family="Helvetica,sans-Serif" font-size="10.00">#</text>
<text text-anchor="start" x="21" y="-884.5" font-family="Helvetica,sans-Serif" font-size="10.00">on_message_</text>
<text text-anchor="start" x="8" y="-869.5" font-family="Helvetica,sans-Serif" font-size="10.00">#</text>
<text text-anchor="start" x="21" y="-869.5" font-family="Helvetica,sans-Serif" font-size="10.00">bp_strategy_</text>
<text text-anchor="start" x="8" y="-854.5" font-family="Helvetica,sans-Serif" font-size="10.00">#</text>
<text text-anchor="start" x="21" y="-854.5" font-family="Helvetica,sans-Serif" font-size="10.00">bp_threshold_</text>
<text text-anchor="start" x="8" y="-839.5" font-family="Helvetica,sans-Serif" font-size="10.00">#</text>
<text text-anchor="start" x="21" y="-839.5" font-family="Helvetica,sans-Serif" font-size="10.00">bp_strategy_set_</text>
<text text-anchor="start" x="8" y="-824.5" font-family="Helvetica,sans-Serif" font-size="10.00">#</text>
<text text-anchor="start" x="21" y="-824.5" font-family="Helvetica,sans-Serif" font-size="10.00">bp_threshold_set_</text>
<text text-anchor="start" x="8" y="-809.5" font-family="Helvetica,sans-Serif" font-size="10.00">+</text>
<text text-anchor="start" x="21" y="-809.5" font-family="Helvetica,sans-Serif" font-size="10.00">~BuilderInterface()</text>
<text text-anchor="start" x="8" y="-794.5" font-family="Helvetica,sans-Serif" font-size="10.00">+</text>
<text text-anchor="start" x="21" y="-794.5" font-family="Helvetica,sans-Serif" font-size="10.00">BuilderInterface()</text>
<text text-anchor="start" x="8" y="-779.5" font-family="Helvetica,sans-Serif" font-size="10.00">+</text>
<text text-anchor="start" x="21" y="-779.5" font-family="Helvetica,sans-Serif" font-size="10.00">BuilderInterface()</text>
<text text-anchor="start" x="8" y="-764.5" font-family="Helvetica,sans-Serif" font-size="10.00">+</text>
<text text-anchor="start" x="21" y="-764.5" font-family="Helvetica,sans-Serif" font-size="10.00">BuilderInterface()</text>
<text text-anchor="start" x="8" y="-749.5" font-family="Helvetica,sans-Serif" font-size="10.00">+</text>
<text text-anchor="start" x="21" y="-749.5" font-family="Helvetica,sans-Serif" font-size="10.00">operator=()</text>
<text text-anchor="start" x="8" y="-734.5" font-family="Helvetica,sans-Serif" font-size="10.00">+</text>
<text text-anchor="start" x="21" y="-734.5" font-family="Helvetica,sans-Serif" font-size="10.00">operator=()</text>
<text text-anchor="start" x="8" y="-719.5" font-family="Helvetica,sans-Serif" font-size="10.00">+</text>
<text text-anchor="start" x="21" y="-719.5" font-family="Helvetica,sans-Serif" font-size="10.00">build()</text>
<text text-anchor="start" x="8" y="-704.5" font-family="Helvetica,sans-Serif" font-size="10.00">+</text>
<text text-anchor="start" x="21" y="-704.5" font-family="Helvetica,sans-Serif" font-size="10.00">auto_start()</text>
<text text-anchor="start" x="8" y="-689.5" font-family="Helvetica,sans-Serif" font-size="10.00">+</text>
<text text-anchor="start" x="21" y="-689.5" font-family="Helvetica,sans-Serif" font-size="10.00">on_data()</text>
<text text-anchor="start" x="8" y="-674.5" font-family="Helvetica,sans-Serif" font-size="10.00">+</text>
<text text-anchor="start" x="21" y="-674.5" font-family="Helvetica,sans-Serif" font-size="10.00">on_data()</text>
<text text-anchor="start" x="21" y="-659.5" font-family="Helvetica,sans-Serif" font-size="10.00">and 13 more...</text>
<text text-anchor="start" x="8" y="-644.5" font-family="Helvetica,sans-Serif" font-size="10.00">#</text>
<text text-anchor="start" x="21" y="-644.5" font-family="Helvetica,sans-Serif" font-size="10.00">get_effective_backpressure</text>
<text text-anchor="start" x="21" y="-633.5" font-family="Helvetica,sans-Serif" font-size="10.00">_threshold()</text>
<polygon fill="#666666" stroke="#666666" points="4,-969.5 4,-969.5 160,-969.5 160,-969.5 4,-969.5"/>
<polygon fill="#666666" stroke="#666666" points="4,-819.5 4,-819.5 19,-819.5 19,-819.5 4,-819.5"/>
<polygon fill="#666666" stroke="#666666" points="19,-819.5 19,-819.5 160,-819.5 160,-819.5 19,-819.5"/>
<polygon fill="none" stroke="#666666" points="4,-627 4,-998 160,-998 160,-627 4,-627"/>
</a>
</g>
</g>
<!-- Node3&#45;&gt;Node2 -->
<g id="edge2_Node000002_Node000003" class="edge">
<title>Node3&#45;&gt;Node2</title>
<g id="a_edge2_Node000002_Node000003"><a xlink:title=" ">
<path fill="none" stroke="orange" d="M82,-616.53C82,-600.81 82,-584.94 82,-569.26"/>
<polygon fill="orange" stroke="orange" points="78.5,-616.83 82,-626.83 85.5,-616.83 78.5,-616.83"/>
</a>
</g>
<text text-anchor="start" x="82" y="-601" font-family="Helvetica,sans-Serif" font-size="10.00" fill="grey"> &lt; wrapper::UdsServer,</text>
<text text-anchor="middle" x="139" y="-590" font-family="Helvetica,sans-Serif" font-size="10.00" fill="grey"> UdsServerBuilder &gt;</text>
</g>
</g>
</svg>
