<?xml version="1.0" encoding="UTF-8" standalone="no"?>
<!DOCTYPE svg PUBLIC "-//W3C//DTD SVG 1.1//EN"
 "http://www.w3.org/Graphics/SVG/1.1/DTD/svg11.dtd">
<!-- Generated by graphviz version 2.43.0 (0)
 -->
<!-- Title: unilink::memory::SafeSpan::size Pages: 1 -->
<svg width="547pt" height="1093pt"
 viewBox="0.00 0.00 547.00 1092.50" xmlns="http://www.w3.org/2000/svg" xmlns:xlink="http://www.w3.org/1999/xlink">
<g id="graph0" class="graph" transform="scale(1 1) rotate(0) translate(4 1088.5)">
<title>unilink::memory::SafeSpan::size</title>
<!-- Node1 -->
<g id="Node000001" class="node">
<title>Node1</title>
<g id="a_Node000001"><a xlink:title=" ">
<polygon fill="#999999" stroke="#666666" points="539,-618 391,-618 391,-588 539,-588 539,-618"/>
<text text-anchor="start" x="399" y="-606" font-family="Helvetica,sans-Serif" font-size="10.00">unilink::memory::SafeSpan</text>
<text text-anchor="middle" x="465" y="-595" font-family="Helvetica,sans-Serif" font-size="10.00">::size</text>
</a>
</g>
</g>
<!-- Node2 -->
<g id="Node000002" class="node">
<title>Node2</title>
<g id="a_Node000002"><a xlink:href="classunilink_1_1transport_1_1TcpServerSession.html#af4924971969eccb5008bd42ccb302cb9" target="_top" xlink:title=" ">
<polygon fill="white" stroke="#666666" points="328,-1084.5 215,-1084.5 215,-1043.5 328,-1043.5 328,-1084.5"/>
<text text-anchor="start" x="223" y="-1072.5" font-family="Helvetica,sans-Serif" font-size="10.00">unilink::transport</text>
<text text-anchor="start" x="223" y="-1061.5" font-family="Helvetica,sans-Serif" font-size="10.00">::TcpServerSession::</text>
<text text-anchor="middle" x="271.5" y="-1050.5" font-family="Helvetica,sans-Serif" font-size="10.00">async_write_copy</text>
</a>
</g>
</g>
<!-- Node1&#45;&gt;Node2 -->
<g id="edge1_Node000001_Node000002" class="edge">
<title>Node1&#45;&gt;Node2</title>
<g id="a_edge1_Node000001_Node000002"><a xlink:title=" ">
<path fill="none" stroke="#63b8ff" d="M460.77,-628.06C449.65,-710.64 410.59,-972.48 355,-1034 347.74,-1042.03 338.17,-1047.91 328.12,-1052.22"/>
<polygon fill="#63b8ff" stroke="#63b8ff" points="464.25,-628.42 462.09,-618.05 457.31,-627.5 464.25,-628.42"/>
</a>
</g>
</g>
<!-- Node3 -->
<g id="Node000003" class="node">
<title>Node3</title>
<g id="a_Node000003"><a xlink:href="classunilink_1_1transport_1_1Serial.html#a66dcdee06d54ec2370dcdcbafef40875" target="_top" xlink:title=" ">
<polygon fill="white" stroke="#666666" points="343,-1025 200,-1025 200,-995 343,-995 343,-1025"/>
<text text-anchor="start" x="208" y="-1013" font-family="Helvetica,sans-Serif" font-size="10.00">unilink::transport</text>
<text text-anchor="middle" x="271.5" y="-1002" font-family="Helvetica,sans-Serif" font-size="10.00">::Serial::async_write_copy</text>
</a>
</g>
</g>
<!-- Node1&#45;&gt;Node3 -->
<g id="edge2_Node000001_Node000003" class="edge">
<title>Node1&#45;&gt;Node3</title>
<g id="a_edge2_Node000001_Node000003"><a xlink:title=" ">
<path fill="none" stroke="#63b8ff" d="M464.64,-628.59C464.89,-696.78 455.88,-884.53 355,-986 351.53,-989.49 347.58,-992.48 343.34,-995.04"/>
<polygon fill="#63b8ff" stroke="#63b8ff" points="468.14,-628.31 464.52,-618.35 461.14,-628.39 468.14,-628.31"/>
</a>
</g>
</g>
<!-- Node4 -->
<g id="Node000004" class="node">
<title>Node4</title>
<g id="a_Node000004"><a xlink:href="classunilink_1_1transport_1_1TcpClient.html#a996369a17ecad069edd0c20c19689e9d" target="_top" xlink:title=" ">
<polygon fill="white" stroke="#666666" points="351.5,-977 191.5,-977 191.5,-947 351.5,-947 351.5,-977"/>
<text text-anchor="start" x="199.5" y="-965" font-family="Helvetica,sans-Serif" font-size="10.00">unilink::transport</text>
<text text-anchor="middle" x="271.5" y="-954" font-family="Helvetica,sans-Serif" font-size="10.00">::TcpClient::async_write_copy</text>
</a>
</g>
</g>
<!-- Node1&#45;&gt;Node4 -->
<g id="edge3_Node000001_Node000004" class="edge">
<title>Node1&#45;&gt;Node4</title>
<g id="a_edge3_Node000001_Node000004"><a xlink:title=" ">
<path fill="none" stroke="#63b8ff" d="M463.42,-628.32C460.58,-690.37 444.5,-851.27 355,-938 351.46,-941.43 347.47,-944.37 343.19,-946.89"/>
<polygon fill="#63b8ff" stroke="#63b8ff" points="466.92,-628.37 463.8,-618.25 459.92,-628.11 466.92,-628.37"/>
</a>
</g>
</g>
<!-- Node5 -->
<g id="Node000005" class="node">
<title>Node5</title>
<g id="a_Node000005"><a xlink:href="classunilink_1_1transport_1_1UdpChannel.html#a753af71ad739e467588e3d6c3af9c5ef" target="_top" xlink:title=" ">
<polygon fill="white" stroke="#666666" points="329.5,-928.5 213.5,-928.5 213.5,-887.5 329.5,-887.5 329.5,-928.5"/>
<text text-anchor="start" x="221.5" y="-916.5" font-family="Helvetica,sans-Serif" font-size="10.00">unilink::transport</text>
<text text-anchor="start" x="221.5" y="-905.5" font-family="Helvetica,sans-Serif" font-size="10.00">::UdpChannel::async</text>
<text text-anchor="middle" x="271.5" y="-894.5" font-family="Helvetica,sans-Serif" font-size="10.00">_write_copy</text>
</a>
</g>
</g>
<!-- Node1&#45;&gt;Node5 -->
<g id="edge4_Node000001_Node000005" class="edge">
<title>Node1&#45;&gt;Node5</title>
<g id="a_edge4_Node000001_Node000005"><a xlink:title=" ">
<path fill="none" stroke="#63b8ff" d="M461.05,-628.3C453.47,-682.01 428.44,-808.31 355,-879 347.89,-885.84 339.07,-891.08 329.87,-895.09"/>
<polygon fill="#63b8ff" stroke="#63b8ff" points="464.54,-628.64 462.38,-618.27 457.6,-627.72 464.54,-628.64"/>
</a>
</g>
</g>
<!-- Node6 -->
<g id="Node000006" class="node">
<title>Node6</title>
<g id="a_Node000006"><a xlink:href="classunilink_1_1transport_1_1UdpChannel.html#a17438bba1b0d13e683aadc1391fb0bcc" target="_top" xlink:title=" ">
<polygon fill="white" stroke="#666666" points="329.5,-869.5 213.5,-869.5 213.5,-828.5 329.5,-828.5 329.5,-869.5"/>
<text text-anchor="start" x="221.5" y="-857.5" font-family="Helvetica,sans-Serif" font-size="10.00">unilink::transport</text>
<text text-anchor="start" x="221.5" y="-846.5" font-family="Helvetica,sans-Serif" font-size="10.00">::UdpChannel::async</text>
<text text-anchor="middle" x="271.5" y="-835.5" font-family="Helvetica,sans-Serif" font-size="10.00">_write_to</text>
</a>
</g>
</g>
<!-- Node1&#45;&gt;Node6 -->
<g id="edge5_Node000001_Node000006" class="edge">
<title>Node1&#45;&gt;Node6</title>
<g id="a_edge5_Node000001_Node000006"><a xlink:title=" ">
<path fill="none" stroke="#63b8ff" d="M457.95,-627.93C445.89,-672.45 414.76,-765.94 355,-819 347.71,-825.48 338.9,-830.59 329.8,-834.62"/>
<polygon fill="#63b8ff" stroke="#63b8ff" points="461.35,-628.77 460.48,-618.21 454.57,-627 461.35,-628.77"/>
</a>
</g>
</g>
<!-- Node7 -->
<g id="Node000007" class="node">
<title>Node7</title>
<g id="a_Node000007"><a xlink:href="structunilink_1_1wrapper_1_1Serial_1_1Impl.html#a0322ca1987cff30ecb38f0873053bacc" target="_top" xlink:title=" ">
<polygon fill="white" stroke="#666666" points="354,-810 189,-810 189,-780 354,-780 354,-810"/>
<text text-anchor="start" x="197" y="-798" font-family="Helvetica,sans-Serif" font-size="10.00">unilink::wrapper::Serial</text>
<text text-anchor="middle" x="271.5" y="-787" font-family="Helvetica,sans-Serif" font-size="10.00">::Impl::attach_framer_callback</text>
</a>
</g>
</g>
<!-- Node1&#45;&gt;Node7 -->
<g id="edge6_Node000001_Node000007" class="edge">
<title>Node1&#45;&gt;Node7</title>
<g id="a_edge6_Node000001_Node000007"><a xlink:title=" ">
<path fill="none" stroke="#63b8ff" d="M454.65,-627.6C439.41,-664.34 405.76,-733.27 355,-771 350.33,-774.47 345.17,-777.44 339.77,-779.98"/>
<polygon fill="#63b8ff" stroke="#63b8ff" points="457.97,-628.72 458.45,-618.14 451.47,-626.11 457.97,-628.72"/>
</a>
</g>
</g>
<!-- Node10 -->
<g id="Node000010" class="node">
<title>Node10</title>
<g id="a_Node000010"><a xlink:href="structunilink_1_1wrapper_1_1TcpClient_1_1Impl.html#a6193e6eced480d2e35e09f8a8aaf3ede" target="_top" xlink:title=" ">
<polygon fill="white" stroke="#666666" points="354,-762 189,-762 189,-732 354,-732 354,-762"/>
<text text-anchor="start" x="197" y="-750" font-family="Helvetica,sans-Serif" font-size="10.00">unilink::wrapper::TcpClient</text>
<text text-anchor="middle" x="271.5" y="-739" font-family="Helvetica,sans-Serif" font-size="10.00">::Impl::attach_framer_callback</text>
</a>
</g>
</g>
<!-- Node1&#45;&gt;Node10 -->
<g id="edge9_Node000001_Node000010" class="edge">
<title>Node1&#45;&gt;Node10</title>
<g id="a_edge9_Node000001_Node000010"><a xlink:title=" ">
<path fill="none" stroke="#63b8ff" d="M448.43,-626.91C429.52,-654.1 395.11,-697.95 355,-723 349.56,-726.4 343.62,-729.33 337.5,-731.86"/>
<polygon fill="#63b8ff" stroke="#63b8ff" points="451.51,-628.61 454.24,-618.38 445.72,-624.67 451.51,-628.61"/>
</a>
</g>
</g>
<!-- Node11 -->
<g id="Node000011" class="node">
<title>Node11</title>
<g id="a_Node000011"><a xlink:href="structunilink_1_1wrapper_1_1UdpClient_1_1Impl.html#a2efdb2ae4eab24161d8c0adee210b83d" target="_top" xlink:title=" ">
<polygon fill="white" stroke="#666666" points="354,-714 189,-714 189,-684 354,-684 354,-714"/>
<text text-anchor="start" x="197" y="-702" font-family="Helvetica,sans-Serif" font-size="10.00">unilink::wrapper::UdpClient</text>
<text text-anchor="middle" x="271.5" y="-691" font-family="Helvetica,sans-Serif" font-size="10.00">::Impl::attach_framer_callback</text>
</a>
</g>
</g>
<!-- Node1&#45;&gt;Node11 -->
<g id="edge10_Node000001_Node000011" class="edge">
<title>Node1&#45;&gt;Node11</title>
<g id="a_edge10_Node000001_Node000011"><a xlink:title=" ">
<path fill="none" stroke="#63b8ff" d="M436.75,-624.36C415.48,-640.18 384.67,-661.27 355,-675 347.83,-678.32 340.09,-681.29 332.32,-683.92"/>
<polygon fill="#63b8ff" stroke="#63b8ff" points="439.09,-626.98 444.96,-618.16 434.87,-621.39 439.09,-626.98"/>
</a>
</g>
</g>
<!-- Node14 -->
<g id="Node000014" class="node">
<title>Node14</title>
<g id="a_Node000014"><a xlink:href="structunilink_1_1wrapper_1_1UdsClient_1_1Impl.html#a1219fcefa0378c01eabd2d4af00bcd5f" target="_top" xlink:title=" ">
<polygon fill="white" stroke="#666666" points="354,-666 189,-666 189,-636 354,-636 354,-666"/>
<text text-anchor="start" x="197" y="-654" font-family="Helvetica,sans-Serif" font-size="10.00">unilink::wrapper::UdsClient</text>
<text text-anchor="middle" x="271.5" y="-643" font-family="Helvetica,sans-Serif" font-size="10.00">::Impl::attach_framer_callback</text>
</a>
</g>
</g>
<!-- Node1&#45;&gt;Node14 -->
<g id="edge13_Node000001_Node000014" class="edge">
<title>Node1&#45;&gt;Node14</title>
<g id="a_edge13_Node000001_Node000014"><a xlink:title=" ">
<path fill="none" stroke="#63b8ff" d="M394.14,-620.51C373.88,-625.59 351.94,-631.09 332.35,-636"/>
<polygon fill="#63b8ff" stroke="#63b8ff" points="395.08,-623.88 403.93,-618.06 393.38,-617.09 395.08,-623.88"/>
</a>
</g>
</g>
<!-- Node17 -->
<g id="Node000017" class="node">
<title>Node17</title>
<g id="a_Node000017"><a xlink:href="classunilink_1_1framer_1_1LineFramer.html#a5d2f38f248590d01685c302819a5c717" target="_top" xlink:title="Push raw bytes into the framer&#39;s internal buffer.">
<polygon fill="white" stroke="#666666" points="346,-618 197,-618 197,-588 346,-588 346,-618"/>
<text text-anchor="start" x="205" y="-606" font-family="Helvetica,sans-Serif" font-size="10.00">unilink::framer::LineFramer</text>
<text text-anchor="middle" x="271.5" y="-595" font-family="Helvetica,sans-Serif" font-size="10.00">::push_bytes</text>
</a>
</g>
</g>
<!-- Node1&#45;&gt;Node17 -->
<g id="edge16_Node000001_Node000017" class="edge">
<title>Node1&#45;&gt;Node17</title>
<g id="a_edge16_Node000001_Node000017"><a xlink:title=" ">
<path fill="none" stroke="#63b8ff" d="M380.78,-603C369.31,-603 357.6,-603 346.31,-603"/>
<polygon fill="#63b8ff" stroke="#63b8ff" points="380.78,-606.5 390.78,-603 380.78,-599.5 380.78,-606.5"/>
</a>
</g>
</g>
<!-- Node18 -->
<g id="Node000018" class="node">
<title>Node18</title>
<g id="a_Node000018"><a xlink:href="classunilink_1_1framer_1_1PacketFramer.html#ae0de7a72e4794e1df90a30eb73289993" target="_top" xlink:title="Push raw bytes into the framer&#39;s internal buffer.">
<polygon fill="white" stroke="#666666" points="352,-570 191,-570 191,-540 352,-540 352,-570"/>
<text text-anchor="start" x="199" y="-558" font-family="Helvetica,sans-Serif" font-size="10.00">unilink::framer::PacketFramer</text>
<text text-anchor="middle" x="271.5" y="-547" font-family="Helvetica,sans-Serif" font-size="10.00">::push_bytes</text>
</a>
</g>
</g>
<!-- Node1&#45;&gt;Node18 -->
<g id="edge17_Node000001_Node000018" class="edge">
<title>Node1&#45;&gt;Node18</title>
<g id="a_edge17_Node000001_Node000018"><a xlink:title=" ">
<path fill="none" stroke="#63b8ff" d="M394.14,-585.49C373.88,-580.41 351.94,-574.91 332.35,-570"/>
<polygon fill="#63b8ff" stroke="#63b8ff" points="393.38,-588.91 403.93,-587.94 395.08,-582.12 393.38,-588.91"/>
</a>
</g>
</g>
<!-- Node19 -->
<g id="Node000019" class="node">
<title>Node19</title>
<g id="a_Node000019"><a xlink:href="classunilink_1_1memory_1_1SafeDataBuffer.html#ac1c2be33e14dec0c11aa933426ad6bb0" target="_top" xlink:title=" ">
<polygon fill="white" stroke="#666666" points="345,-522 198,-522 198,-492 345,-492 345,-522"/>
<text text-anchor="start" x="206" y="-510" font-family="Helvetica,sans-Serif" font-size="10.00">unilink::memory::SafeData</text>
<text text-anchor="middle" x="271.5" y="-499" font-family="Helvetica,sans-Serif" font-size="10.00">Buffer::SafeDataBuffer</text>
</a>
</g>
</g>
<!-- Node1&#45;&gt;Node19 -->
<g id="edge18_Node000001_Node000019" class="edge">
<title>Node1&#45;&gt;Node19</title>
<g id="a_edge18_Node000001_Node000019"><a xlink:title=" ">
<path fill="none" stroke="#63b8ff" d="M436.75,-581.64C415.48,-565.82 384.67,-544.73 355,-531 347.83,-527.68 340.09,-524.71 332.32,-522.08"/>
<polygon fill="#63b8ff" stroke="#63b8ff" points="434.87,-584.61 444.96,-587.84 439.09,-579.02 434.87,-584.61"/>
</a>
</g>
</g>
<!-- Node20 -->
<g id="Node000020" class="node">
<title>Node20</title>
<g id="a_Node000020"><a xlink:href="structunilink_1_1wrapper_1_1Serial_1_1Impl.html#a9e6722cf4e4dbee24492d3f3e2c0a894" target="_top" xlink:title=" ">
<polygon fill="white" stroke="#666666" points="336,-473.5 207,-473.5 207,-432.5 336,-432.5 336,-473.5"/>
<text text-anchor="start" x="215" y="-461.5" font-family="Helvetica,sans-Serif" font-size="10.00">unilink::wrapper::Serial</text>
<text text-anchor="start" x="215" y="-450.5" font-family="Helvetica,sans-Serif" font-size="10.00">::Impl::setup_internal</text>
<text text-anchor="middle" x="271.5" y="-439.5" font-family="Helvetica,sans-Serif" font-size="10.00">_handlers</text>
</a>
</g>
</g>
<!-- Node1&#45;&gt;Node20 -->
<g id="edge19_Node000001_Node000020" class="edge">
<title>Node1&#45;&gt;Node20</title>
<g id="a_edge19_Node000001_Node000020"><a xlink:title=" ">
<path fill="none" stroke="#63b8ff" d="M448.14,-579.55C428.94,-552.8 394.26,-509.35 355,-483 349.18,-479.09 342.79,-475.62 336.21,-472.56"/>
<polygon fill="#63b8ff" stroke="#63b8ff" points="445.42,-581.78 454.04,-587.94 451.14,-577.75 445.42,-581.78"/>
</a>
</g>
</g>
<!-- Node22 -->
<g id="Node000022" class="node">
<title>Node22</title>
<g id="a_Node000022"><a xlink:href="structunilink_1_1wrapper_1_1TcpClient_1_1Impl.html#a71ca6976f08b07bfb8fdc6c17d84aae5" target="_top" xlink:title=" ">
<polygon fill="white" stroke="#666666" points="355,-414 188,-414 188,-384 355,-384 355,-414"/>
<text text-anchor="start" x="196" y="-402" font-family="Helvetica,sans-Serif" font-size="10.00">unilink::wrapper::TcpClient</text>
<text text-anchor="middle" x="271.5" y="-391" font-family="Helvetica,sans-Serif" font-size="10.00">::Impl::setup_internal_handlers</text>
</a>
</g>
</g>
<!-- Node1&#45;&gt;Node22 -->
<g id="edge21_Node000001_Node000022" class="edge">
<title>Node1&#45;&gt;Node22</title>
<g id="a_edge21_Node000001_Node000022"><a xlink:title=" ">
<path fill="none" stroke="#63b8ff" d="M455.66,-578.54C441.27,-539.95 408.08,-465.11 355,-424 350.03,-420.15 344.47,-416.89 338.65,-414.13"/>
<polygon fill="#63b8ff" stroke="#63b8ff" points="452.38,-579.75 459.07,-587.96 458.96,-577.37 452.38,-579.75"/>
</a>
</g>
</g>
<!-- Node25 -->
<g id="Node000025" class="node">
<title>Node25</title>
<g id="a_Node000025"><a xlink:href="structunilink_1_1wrapper_1_1TcpServer_1_1Impl.html#afa02bec7c4ffe754aa0a8b2da4f135a5" target="_top" xlink:title=" ">
<polygon fill="white" stroke="#666666" points="355,-366 188,-366 188,-336 355,-336 355,-366"/>
<text text-anchor="start" x="196" y="-354" font-family="Helvetica,sans-Serif" font-size="10.00">unilink::wrapper::TcpServer</text>
<text text-anchor="middle" x="271.5" y="-343" font-family="Helvetica,sans-Serif" font-size="10.00">::Impl::setup_internal_handlers</text>
</a>
</g>
</g>
<!-- Node1&#45;&gt;Node25 -->
<g id="edge24_Node000001_Node000025" class="edge">
<title>Node1&#45;&gt;Node25</title>
<g id="a_edge24_Node000001_Node000025"><a xlink:title=" ">
<path fill="none" stroke="#63b8ff" d="M459.09,-577.97C448.57,-531.04 419.38,-429.67 355,-375 350.91,-371.52 346.33,-368.55 341.5,-366.01"/>
<polygon fill="#63b8ff" stroke="#63b8ff" points="455.7,-578.85 461.22,-587.9 462.55,-577.38 455.7,-578.85"/>
</a>
</g>
</g>
<!-- Node28 -->
<g id="Node000028" class="node">
<title>Node28</title>
<g id="a_Node000028"><a xlink:href="structunilink_1_1wrapper_1_1UdpClient_1_1Impl.html#aa1a0c025a484dbf87dc9c0c69342870b" target="_top" xlink:title=" ">
<polygon fill="white" stroke="#666666" points="355,-318 188,-318 188,-288 355,-288 355,-318"/>
<text text-anchor="start" x="196" y="-306" font-family="Helvetica,sans-Serif" font-size="10.00">unilink::wrapper::UdpClient</text>
<text text-anchor="middle" x="271.5" y="-295" font-family="Helvetica,sans-Serif" font-size="10.00">::Impl::setup_internal_handlers</text>
</a>
</g>
</g>
<!-- Node1&#45;&gt;Node28 -->
<g id="edge27_Node000001_Node000028" class="edge">
<title>Node1&#45;&gt;Node28</title>
<g id="a_edge27_Node000001_Node000028"><a xlink:title=" ">
<path fill="none" stroke="#63b8ff" d="M461.4,-577.77C454.45,-523.67 430.53,-395.81 355,-327 351.25,-323.58 347.04,-320.65 342.56,-318.14"/>
<polygon fill="#63b8ff" stroke="#63b8ff" points="457.94,-578.35 462.6,-587.86 464.89,-577.52 457.94,-578.35"/>
</a>
</g>
</g>
<!-- Node30 -->
<g id="Node000030" class="node">
<title>Node30</title>
<g id="a_Node000030"><a xlink:href="structunilink_1_1wrapper_1_1UdpServer_1_1Impl.html#acc6c86c0987b2e7097c779d03fc009f8" target="_top" xlink:title=" ">
<polygon fill="white" stroke="#666666" points="355,-270 188,-270 188,-240 355,-240 355,-270"/>
<text text-anchor="start" x="196" y="-258" font-family="Helvetica,sans-Serif" font-size="10.00">unilink::wrapper::UdpServer</text>
<text text-anchor="middle" x="271.5" y="-247" font-family="Helvetica,sans-Serif" font-size="10.00">::Impl::setup_internal_handlers</text>
</a>
</g>
</g>
<!-- Node1&#45;&gt;Node30 -->
<g id="edge29_Node000001_Node000030" class="edge">
<title>Node1&#45;&gt;Node30</title>
<g id="a_edge29_Node000001_Node000030"><a xlink:title=" ">
<path fill="none" stroke="#63b8ff" d="M463.09,-577.7C459.51,-517.07 441.88,-362.35 355,-279 351.45,-275.59 347.44,-272.66 343.15,-270.15"/>
<polygon fill="#63b8ff" stroke="#63b8ff" points="459.61,-578.08 463.61,-587.89 466.6,-577.72 459.61,-578.08"/>
</a>
</g>
</g>
<!-- Node33 -->
<g id="Node000033" class="node">
<title>Node33</title>
<g id="a_Node000033"><a xlink:href="structunilink_1_1wrapper_1_1UdsClient_1_1Impl.html#a5b0bd183417b37282ed9131737ecf8ae" target="_top" xlink:title=" ">
<polygon fill="white" stroke="#666666" points="355,-174 188,-174 188,-144 355,-144 355,-174"/>
<text text-anchor="start" x="196" y="-162" font-family="Helvetica,sans-Serif" font-size="10.00">unilink::wrapper::UdsClient</text>
<text text-anchor="middle" x="271.5" y="-151" font-family="Helvetica,sans-Serif" font-size="10.00">::Impl::setup_internal_handlers</text>
</a>
</g>
</g>
<!-- Node1&#45;&gt;Node33 -->
<g id="edge32_Node000001_Node000033" class="edge">
<title>Node1&#45;&gt;Node33</title>
<g id="a_edge32_Node000001_Node000033"><a xlink:title=" ">
<path fill="none" stroke="#63b8ff" d="M461.52,-577.72C454.33,-514.6 429.07,-346.78 355,-231 339.94,-207.46 314.97,-187.21 296.44,-174.24"/>
<polygon fill="#63b8ff" stroke="#63b8ff" points="458.07,-578.36 462.62,-587.93 465.03,-577.61 458.07,-578.36"/>
</a>
</g>
</g>
<!-- Node36 -->
<g id="Node000036" class="node">
<title>Node36</title>
<g id="a_Node000036"><a xlink:href="structunilink_1_1wrapper_1_1UdsServer_1_1Impl.html#a10ed4dde741e2d4077f3df717d38cde5" target="_top" xlink:title=" ">
<polygon fill="white" stroke="#666666" points="355,-78 188,-78 188,-48 355,-48 355,-78"/>
<text text-anchor="start" x="196" y="-66" font-family="Helvetica,sans-Serif" font-size="10.00">unilink::wrapper::UdsServer</text>
<text text-anchor="middle" x="271.5" y="-55" font-family="Helvetica,sans-Serif" font-size="10.00">::Impl::setup_internal_handlers</text>
</a>
</g>
</g>
<!-- Node1&#45;&gt;Node36 -->
<g id="edge35_Node000001_Node000036" class="edge">
<title>Node1&#45;&gt;Node36</title>
<g id="a_edge35_Node000001_Node000036"><a xlink:title=" ">
<path fill="none" stroke="#63b8ff" d="M463.44,-577.36C460.73,-503.34 445.11,-284.98 355,-135 340.61,-111.05 315.54,-90.86 296.81,-78.02"/>
<polygon fill="#63b8ff" stroke="#63b8ff" points="459.95,-577.71 463.76,-587.59 466.94,-577.49 459.95,-577.71"/>
</a>
</g>
</g>
<!-- Node8 -->
<g id="Node000008" class="node">
<title>Node8</title>
<g id="a_Node000008"><a xlink:href="structunilink_1_1wrapper_1_1Serial_1_1Impl.html#a214c3e2dc0880150308c36e23165e708" target="_top" xlink:title=" ">
<polygon fill="white" stroke="#666666" points="140.5,-858 11.5,-858 11.5,-828 140.5,-828 140.5,-858"/>
<text text-anchor="start" x="19.5" y="-846" font-family="Helvetica,sans-Serif" font-size="10.00">unilink::wrapper::Serial</text>
<text text-anchor="middle" x="76" y="-835" font-family="Helvetica,sans-Serif" font-size="10.00">::Impl::on_message</text>
</a>
</g>
</g>
<!-- Node7&#45;&gt;Node8 -->
<g id="edge7_Node000007_Node000008" class="edge">
<title>Node7&#45;&gt;Node8</title>
<g id="a_edge7_Node000007_Node000008"><a xlink:title=" ">
<path fill="none" stroke="#63b8ff" d="M199.91,-812.51C179.44,-817.59 157.27,-823.09 137.48,-828"/>
<polygon fill="#63b8ff" stroke="#63b8ff" points="200.94,-815.86 209.81,-810.06 199.26,-809.07 200.94,-815.86"/>
</a>
</g>
</g>
<!-- Node9 -->
<g id="Node000009" class="node">
<title>Node9</title>
<g id="a_Node000009"><a xlink:href="structunilink_1_1wrapper_1_1Serial_1_1Impl.html#a0015c7ce9f070aafd15ac10c677b8ab8" target="_top" xlink:title=" ">
<polygon fill="white" stroke="#666666" points="140.5,-810 11.5,-810 11.5,-780 140.5,-780 140.5,-810"/>
<text text-anchor="start" x="19.5" y="-798" font-family="Helvetica,sans-Serif" font-size="10.00">unilink::wrapper::Serial</text>
<text text-anchor="middle" x="76" y="-787" font-family="Helvetica,sans-Serif" font-size="10.00">::Impl::set_framer</text>
</a>
</g>
</g>
<!-- Node7&#45;&gt;Node9 -->
<g id="edge8_Node000007_Node000009" class="edge">
<title>Node7&#45;&gt;Node9</title>
<g id="a_edge8_Node000007_Node000009"><a xlink:title=" ">
<path fill="none" stroke="#63b8ff" d="M178.74,-795C165.9,-795 152.94,-795 140.77,-795"/>
<polygon fill="#63b8ff" stroke="#63b8ff" points="179,-798.5 189,-795 179,-791.5 179,-798.5"/>
</a>
</g>
</g>
<!-- Node12 -->
<g id="Node000012" class="node">
<title>Node12</title>
<g id="a_Node000012"><a xlink:href="structunilink_1_1wrapper_1_1UdpClient_1_1Impl.html#ab5f876cfbacc69128f6de2619023286e" target="_top" xlink:title=" ">
<polygon fill="white" stroke="#666666" points="150.5,-762 1.5,-762 1.5,-732 150.5,-732 150.5,-762"/>
<text text-anchor="start" x="9.5" y="-750" font-family="Helvetica,sans-Serif" font-size="10.00">unilink::wrapper::UdpClient</text>
<text text-anchor="middle" x="76" y="-739" font-family="Helvetica,sans-Serif" font-size="10.00">::Impl::on_message</text>
</a>
</g>
</g>
<!-- Node11&#45;&gt;Node12 -->
<g id="edge11_Node000011_Node000012" class="edge">
<title>Node11&#45;&gt;Node12</title>
<g id="a_edge11_Node000011_Node000012"><a xlink:title=" ">
<path fill="none" stroke="#63b8ff" d="M199.91,-716.51C179.44,-721.59 157.27,-727.09 137.48,-732"/>
<polygon fill="#63b8ff" stroke="#63b8ff" points="200.94,-719.86 209.81,-714.06 199.26,-713.07 200.94,-719.86"/>
</a>
</g>
</g>
<!-- Node13 -->
<g id="Node000013" class="node">
<title>Node13</title>
<g id="a_Node000013"><a xlink:href="structunilink_1_1wrapper_1_1UdpClient_1_1Impl.html#ad433e6e6ad1872781b3cf94eda658c3f" target="_top" xlink:title=" ">
<polygon fill="white" stroke="#666666" points="150.5,-714 1.5,-714 1.5,-684 150.5,-684 150.5,-714"/>
<text text-anchor="start" x="9.5" y="-702" font-family="Helvetica,sans-Serif" font-size="10.00">unilink::wrapper::UdpClient</text>
<text text-anchor="middle" x="76" y="-691" font-family="Helvetica,sans-Serif" font-size="10.00">::Impl::set_framer</text>
</a>
</g>
</g>
<!-- Node11&#45;&gt;Node13 -->
<g id="edge12_Node000011_Node000013" class="edge">
<title>Node11&#45;&gt;Node13</title>
<g id="a_edge12_Node000011_Node000013"><a xlink:title=" ">
<path fill="none" stroke="#63b8ff" d="M178.82,-699C169.39,-699 159.91,-699 150.71,-699"/>
<polygon fill="#63b8ff" stroke="#63b8ff" points="179,-702.5 189,-699 179,-695.5 179,-702.5"/>
</a>
</g>
</g>
<!-- Node15 -->
<g id="Node000015" class="node">
<title>Node15</title>
<g id="a_Node000015"><a xlink:href="structunilink_1_1wrapper_1_1UdsClient_1_1Impl.html#a71d3a071e7576339bec3c5229187d869" target="_top" xlink:title=" ">
<polygon fill="white" stroke="#666666" points="150.5,-666 1.5,-666 1.5,-636 150.5,-636 150.5,-666"/>
<text text-anchor="start" x="9.5" y="-654" font-family="Helvetica,sans-Serif" font-size="10.00">unilink::wrapper::UdsClient</text>
<text text-anchor="middle" x="76" y="-643" font-family="Helvetica,sans-Serif" font-size="10.00">::Impl::on_message</text>
</a>
</g>
</g>
<!-- Node14&#45;&gt;Node15 -->
<g id="edge14_Node000014_Node000015" class="edge">
<title>Node14&#45;&gt;Node15</title>
<g id="a_edge14_Node000014_Node000015"><a xlink:title=" ">
<path fill="none" stroke="#63b8ff" d="M178.82,-651C169.39,-651 159.91,-651 150.71,-651"/>
<polygon fill="#63b8ff" stroke="#63b8ff" points="179,-654.5 189,-651 179,-647.5 179,-654.5"/>
</a>
</g>
</g>
<!-- Node16 -->
<g id="Node000016" class="node">
<title>Node16</title>
<g id="a_Node000016"><a xlink:href="structunilink_1_1wrapper_1_1UdsClient_1_1Impl.html#ac79278578a498f732c0d25a1b2b7336f" target="_top" xlink:title=" ">
<polygon fill="white" stroke="#666666" points="150.5,-618 1.5,-618 1.5,-588 150.5,-588 150.5,-618"/>
<text text-anchor="start" x="9.5" y="-606" font-family="Helvetica,sans-Serif" font-size="10.00">unilink::wrapper::UdsClient</text>
<text text-anchor="middle" x="76" y="-595" font-family="Helvetica,sans-Serif" font-size="10.00">::Impl::set_framer</text>
</a>
</g>
</g>
<!-- Node14&#45;&gt;Node16 -->
<g id="edge15_Node000014_Node000016" class="edge">
<title>Node14&#45;&gt;Node16</title>
<g id="a_edge15_Node000014_Node000016"><a xlink:title=" ">
<path fill="none" stroke="#63b8ff" d="M199.91,-633.49C179.44,-628.41 157.27,-622.91 137.48,-618"/>
<polygon fill="#63b8ff" stroke="#63b8ff" points="199.26,-636.93 209.81,-635.94 200.94,-630.14 199.26,-636.93"/>
</a>
</g>
</g>
<!-- Node21 -->
<g id="Node000021" class="node">
<title>Node21</title>
<g id="a_Node000021"><a xlink:href="structunilink_1_1wrapper_1_1Serial_1_1Impl.html#a94bbcf403f89c0c8466b5692c73648b8" target="_top" xlink:title=" ">
<polygon fill="white" stroke="#666666" points="140.5,-558 11.5,-558 11.5,-528 140.5,-528 140.5,-558"/>
<text text-anchor="start" x="19.5" y="-546" font-family="Helvetica,sans-Serif" font-size="10.00">unilink::wrapper::Serial</text>
<text text-anchor="middle" x="76" y="-535" font-family="Helvetica,sans-Serif" font-size="10.00">::Impl::start</text>
</a>
</g>
</g>
<!-- Node20&#45;&gt;Node21 -->
<g id="edge20_Node000020_Node000021" class="edge">
<title>Node20&#45;&gt;Node21</title>
<g id="a_edge20_Node000020_Node000021"><a xlink:title=" ">
<path fill="none" stroke="#63b8ff" d="M197.82,-477.32C194.43,-479.11 191.14,-481 188,-483 168.91,-495.15 171.32,-507.22 152,-519 146.4,-522.42 140.26,-525.4 133.98,-527.98"/>
<polygon fill="#63b8ff" stroke="#63b8ff" points="199.53,-480.38 206.97,-472.84 196.45,-474.1 199.53,-480.38"/>
</a>
</g>
</g>
<!-- Node23 -->
<g id="Node000023" class="node">
<title>Node23</title>
<g id="a_Node000023"><a xlink:href="structunilink_1_1wrapper_1_1TcpClient_1_1Impl.html#a32dae0c43294e3469ed3802896fe8116" target="_top" xlink:title=" ">
<polygon fill="white" stroke="#666666" points="149,-510 3,-510 3,-480 149,-480 149,-510"/>
<text text-anchor="start" x="11" y="-498" font-family="Helvetica,sans-Serif" font-size="10.00">unilink::wrapper::TcpClient</text>
<text text-anchor="middle" x="76" y="-487" font-family="Helvetica,sans-Serif" font-size="10.00">::Impl::Impl</text>
</a>
</g>
</g>
<!-- Node22&#45;&gt;Node23 -->
<g id="edge22_Node000022_Node000023" class="edge">
<title>Node22&#45;&gt;Node23</title>
<g id="a_edge22_Node000022_Node000023"><a xlink:title=" ">
<path fill="none" stroke="#63b8ff" d="M196.99,-418.52C193.87,-420.2 190.85,-422.02 188,-424 166.37,-438.98 173.52,-455.85 152,-471 147.19,-474.38 141.89,-477.31 136.38,-479.83"/>
<polygon fill="#63b8ff" stroke="#63b8ff" points="198.56,-421.65 206.04,-414.14 195.51,-415.35 198.56,-421.65"/>
</a>
</g>
</g>
<!-- Node24 -->
<g id="Node000024" class="node">
<title>Node24</title>
<g id="a_Node000024"><a xlink:href="structunilink_1_1wrapper_1_1TcpClient_1_1Impl.html#a8ab8cedd92a78d5e9aa4f9aadbe736d3" target="_top" xlink:title=" ">
<polygon fill="white" stroke="#666666" points="149,-462 3,-462 3,-432 149,-432 149,-462"/>
<text text-anchor="start" x="11" y="-450" font-family="Helvetica,sans-Serif" font-size="10.00">unilink::wrapper::TcpClient</text>
<text text-anchor="middle" x="76" y="-439" font-family="Helvetica,sans-Serif" font-size="10.00">::Impl::start</text>
</a>
</g>
</g>
<!-- Node22&#45;&gt;Node24 -->
<g id="edge23_Node000022_Node000024" class="edge">
<title>Node22&#45;&gt;Node24</title>
<g id="a_edge23_Node000022_Node000024"><a xlink:title=" ">
<path fill="none" stroke="#63b8ff" d="M199.91,-416.51C179.44,-421.59 157.27,-427.09 137.48,-432"/>
<polygon fill="#63b8ff" stroke="#63b8ff" points="200.94,-419.86 209.81,-414.06 199.26,-413.07 200.94,-419.86"/>
</a>
</g>
</g>
<!-- Node26 -->
<g id="Node000026" class="node">
<title>Node26</title>
<g id="a_Node000026"><a xlink:href="structunilink_1_1wrapper_1_1TcpServer_1_1Impl.html#a8b8ab1b95d8a945e14a5d161828e729d" target="_top" xlink:title=" ">
<polygon fill="white" stroke="#666666" points="150.5,-414 1.5,-414 1.5,-384 150.5,-384 150.5,-414"/>
<text text-anchor="start" x="9.5" y="-402" font-family="Helvetica,sans-Serif" font-size="10.00">unilink::wrapper::TcpServer</text>
<text text-anchor="middle" x="76" y="-391" font-family="Helvetica,sans-Serif" font-size="10.00">::Impl::Impl</text>
</a>
</g>
</g>
<!-- Node25&#45;&gt;Node26 -->
<g id="edge25_Node000025_Node000026" class="edge">
<title>Node25&#45;&gt;Node26</title>
<g id="a_edge25_Node000025_Node000026"><a xlink:title=" ">
<path fill="none" stroke="#63b8ff" d="M199.91,-368.51C179.44,-373.59 157.27,-379.09 137.48,-384"/>
<polygon fill="#63b8ff" stroke="#63b8ff" points="200.94,-371.86 209.81,-366.06 199.26,-365.07 200.94,-371.86"/>
</a>
</g>
</g>
<!-- Node27 -->
<g id="Node000027" class="node">
<title>Node27</title>
<g id="a_Node000027"><a xlink:href="structunilink_1_1wrapper_1_1TcpServer_1_1Impl.html#a6497c1680973b24cb1103b34c08e75bf" target="_top" xlink:title=" ">
<polygon fill="white" stroke="#666666" points="150.5,-366 1.5,-366 1.5,-336 150.5,-336 150.5,-366"/>
<text text-anchor="start" x="9.5" y="-354" font-family="Helvetica,sans-Serif" font-size="10.00">unilink::wrapper::TcpServer</text>
<text text-anchor="middle" x="76" y="-343" font-family="Helvetica,sans-Serif" font-size="10.00">::Impl::start</text>
</a>
</g>
</g>
<!-- Node25&#45;&gt;Node27 -->
<g id="edge26_Node000025_Node000027" class="edge">
<title>Node25&#45;&gt;Node27</title>
<g id="a_edge26_Node000025_Node000027"><a xlink:title=" ">
<path fill="none" stroke="#63b8ff" d="M177.71,-351C168.68,-351 159.6,-351 150.78,-351"/>
<polygon fill="#63b8ff" stroke="#63b8ff" points="177.88,-354.5 187.88,-351 177.88,-347.5 177.88,-354.5"/>
</a>
</g>
</g>
<!-- Node29 -->
<g id="Node000029" class="node">
<title>Node29</title>
<g id="a_Node000029"><a xlink:href="structunilink_1_1wrapper_1_1UdpClient_1_1Impl.html#a50f920c8fa582fcb6af6f9c3ae1b9434" target="_top" xlink:title=" ">
<polygon fill="white" stroke="#666666" points="150.5,-318 1.5,-318 1.5,-288 150.5,-288 150.5,-318"/>
<text text-anchor="start" x="9.5" y="-306" font-family="Helvetica,sans-Serif" font-size="10.00">unilink::wrapper::UdpClient</text>
<text text-anchor="middle" x="76" y="-295" font-family="Helvetica,sans-Serif" font-size="10.00">::Impl::start</text>
</a>
</g>
</g>
<!-- Node28&#45;&gt;Node29 -->
<g id="edge28_Node000028_Node000029" class="edge">
<title>Node28&#45;&gt;Node29</title>
<g id="a_edge28_Node000028_Node000029"><a xlink:title=" ">
<path fill="none" stroke="#63b8ff" d="M177.71,-303C168.68,-303 159.6,-303 150.78,-303"/>
<polygon fill="#63b8ff" stroke="#63b8ff" points="177.88,-306.5 187.88,-303 177.88,-299.5 177.88,-306.5"/>
</a>
</g>
</g>
<!-- Node31 -->
<g id="Node000031" class="node">
<title>Node31</title>
<g id="a_Node000031"><a xlink:href="structunilink_1_1wrapper_1_1UdpServer_1_1Impl.html#a4282405e724797444608a3f312841dfa" target="_top" xlink:title=" ">
<polygon fill="white" stroke="#666666" points="152,-270 0,-270 0,-240 152,-240 152,-270"/>
<text text-anchor="start" x="8" y="-258" font-family="Helvetica,sans-Serif" font-size="10.00">unilink::wrapper::UdpServer</text>
<text text-anchor="middle" x="76" y="-247" font-family="Helvetica,sans-Serif" font-size="10.00">::Impl::Impl</text>
</a>
</g>
</g>
<!-- Node30&#45;&gt;Node31 -->
<g id="edge30_Node000030_Node000031" class="edge">
<title>Node30&#45;&gt;Node31</title>
<g id="a_edge30_Node000030_Node000031"><a xlink:title=" ">
<path fill="none" stroke="#63b8ff" d="M177.86,-255C169.29,-255 160.68,-255 152.3,-255"/>
<polygon fill="#63b8ff" stroke="#63b8ff" points="177.88,-258.5 187.88,-255 177.88,-251.5 177.88,-258.5"/>
</a>
</g>
</g>
<!-- Node32 -->
<g id="Node000032" class="node">
<title>Node32</title>
<g id="a_Node000032"><a xlink:href="structunilink_1_1wrapper_1_1UdpServer_1_1Impl.html#aef2d453ea13990a3b0bdcd088dd64c46" target="_top" xlink:title=" ">
<polygon fill="white" stroke="#666666" points="152,-222 0,-222 0,-192 152,-192 152,-222"/>
<text text-anchor="start" x="8" y="-210" font-family="Helvetica,sans-Serif" font-size="10.00">unilink::wrapper::UdpServer</text>
<text text-anchor="middle" x="76" y="-199" font-family="Helvetica,sans-Serif" font-size="10.00">::Impl::start</text>
</a>
</g>
</g>
<!-- Node30&#45;&gt;Node32 -->
<g id="edge31_Node000030_Node000032" class="edge">
<title>Node30&#45;&gt;Node32</title>
<g id="a_edge31_Node000030_Node000032"><a xlink:title=" ">
<path fill="none" stroke="#63b8ff" d="M199.91,-237.49C179.44,-232.41 157.27,-226.91 137.48,-222"/>
<polygon fill="#63b8ff" stroke="#63b8ff" points="199.26,-240.93 209.81,-239.94 200.94,-234.14 199.26,-240.93"/>
</a>
</g>
</g>
<!-- Node34 -->
<g id="Node000034" class="node">
<title>Node34</title>
<g id="a_Node000034"><a xlink:href="structunilink_1_1wrapper_1_1UdsClient_1_1Impl.html#a05fb8b19377378c868a95ca37e32d179" target="_top" xlink:title=" ">
<polygon fill="white" stroke="#666666" points="150.5,-174 1.5,-174 1.5,-144 150.5,-144 150.5,-174"/>
<text text-anchor="start" x="9.5" y="-162" font-family="Helvetica,sans-Serif" font-size="10.00">unilink::wrapper::UdsClient</text>
<text text-anchor="middle" x="76" y="-151" font-family="Helvetica,sans-Serif" font-size="10.00">::Impl::Impl</text>
</a>
</g>
</g>
<!-- Node33&#45;&gt;Node34 -->
<g id="edge33_Node000033_Node000034" class="edge">
<title>Node33&#45;&gt;Node34</title>
<g id="a_edge33_Node000033_Node000034"><a xlink:title=" ">
<path fill="none" stroke="#63b8ff" d="M177.71,-159C168.68,-159 159.6,-159 150.78,-159"/>
<polygon fill="#63b8ff" stroke="#63b8ff" points="177.88,-162.5 187.88,-159 177.88,-155.5 177.88,-162.5"/>
</a>
</g>
</g>
<!-- Node35 -->
<g id="Node000035" class="node">
<title>Node35</title>
<g id="a_Node000035"><a xlink:href="structunilink_1_1wrapper_1_1UdsClient_1_1Impl.html#a8961b6f6e34887f785d4af92a79345f8" target="_top" xlink:title=" ">
<polygon fill="white" stroke="#666666" points="150.5,-126 1.5,-126 1.5,-96 150.5,-96 150.5,-126"/>
<text text-anchor="start" x="9.5" y="-114" font-family="Helvetica,sans-Serif" font-size="10.00">unilink::wrapper::UdsClient</text>
<text text-anchor="middle" x="76" y="-103" font-family="Helvetica,sans-Serif" font-size="10.00">::Impl::start</text>
</a>
</g>
</g>
<!-- Node33&#45;&gt;Node35 -->
<g id="edge34_Node000033_Node000035" class="edge">
<title>Node33&#45;&gt;Node35</title>
<g id="a_edge34_Node000033_Node000035"><a xlink:title=" ">
<path fill="none" stroke="#63b8ff" d="M199.91,-141.49C179.44,-136.41 157.27,-130.91 137.48,-126"/>
<polygon fill="#63b8ff" stroke="#63b8ff" points="199.26,-144.93 209.81,-143.94 200.94,-138.14 199.26,-144.93"/>
</a>
</g>
</g>
<!-- Node37 -->
<g id="Node000037" class="node">
<title>Node37</title>
<g id="a_Node000037"><a xlink:href="structunilink_1_1wrapper_1_1UdsServer_1_1Impl.html#a82fa898e3d4786c76704919dea8dae46" target="_top" xlink:title=" ">
<polygon fill="white" stroke="#666666" points="152,-78 0,-78 0,-48 152,-48 152,-78"/>
<text text-anchor="start" x="8" y="-66" font-family="Helvetica,sans-Serif" font-size="10.00">unilink::wrapper::UdsServer</text>
<text text-anchor="middle" x="76" y="-55" font-family="Helvetica,sans-Serif" font-size="10.00">::Impl::Impl</text>
</a>
</g>
</g>
<!-- Node36&#45;&gt;Node37 -->
<g id="edge36_Node000036_Node000037" class="edge">
<title>Node36&#45;&gt;Node37</title>
<g id="a_edge36_Node000036_Node000037"><a xlink:title=" ">
<path fill="none" stroke="#63b8ff" d="M177.86,-63C169.29,-63 160.68,-63 152.3,-63"/>
<polygon fill="#63b8ff" stroke="#63b8ff" points="177.88,-66.5 187.88,-63 177.88,-59.5 177.88,-66.5"/>
</a>
</g>
</g>
<!-- Node38 -->
<g id="Node000038" class="node">
<title>Node38</title>
<g id="a_Node000038"><a xlink:href="structunilink_1_1wrapper_1_1UdsServer_1_1Impl.html#aecb2e08ff201c840d9f5d2a90f016299" target="_top" xlink:title=" ">
<polygon fill="white" stroke="#666666" points="152,-30 0,-30 0,0 152,0 152,-30"/>
<text text-anchor="start" x="8" y="-18" font-family="Helvetica,sans-Serif" font-size="10.00">unilink::wrapper::UdsServer</text>
<text text-anchor="middle" x="76" y="-7" font-family="Helvetica,sans-Serif" font-size="10.00">::Impl::start</text>
</a>
</g>
</g>
<!-- Node36&#45;&gt;Node38 -->
<g id="edge37_Node000036_Node000038" class="edge">
<title>Node36&#45;&gt;Node38</title>
<g id="a_edge37_Node000036_Node000038"><a xlink:title=" ">
<path fill="none" stroke="#63b8ff" d="M199.91,-45.49C179.44,-40.41 157.27,-34.91 137.48,-30"/>
<polygon fill="#63b8ff" stroke="#63b8ff" points="199.26,-48.93 209.81,-47.94 200.94,-42.14 199.26,-48.93"/>
</a>
</g>
</g>
</g>
</svg>
