<?xml version="1.0" encoding="UTF-8" standalone="no"?>
<!DOCTYPE svg PUBLIC "-//W3C//DTD SVG 1.1//EN"
 "http://www.w3.org/Graphics/SVG/1.1/DTD/svg11.dtd">
<!-- Generated by graphviz version 2.43.0 (0)
 -->
<!-- Title: unilink::diagnostics::MemoryException Pages: 1 -->
<svg width="134pt" height="354pt"
 viewBox="0.00 0.00 134.00 354.00" xmlns="http://www.w3.org/2000/svg" xmlns:xlink="http://www.w3.org/1999/xlink">

<svg id="main" version="1.1" xmlns="http://www.w3.org/2000/svg" xmlns:xlink="http://www.w3.org/1999/xlink" xml:space="preserve" onload="init(evt)">
<style type="text/css"><![CDATA[
.node, .edge {opacity: 0.7;}
.node.selected, .edge.selected {opacity: 1;}
.edge:hover path { stroke: red; }
.edge:hover polygon { stroke: red; fill: red; }
]]></style>
<script type="application/ecmascript" xlink:href="svg.min.js"/>
<svg id="graph" class="graph">
<g id="graph0" class="graph" transform="scale(1 1) rotate(0) translate(4 350)">
<title>unilink::diagnostics::MemoryException</title>
<!-- Node1 -->
<g id="Node000001" class="node">
<title>Node1</title>
<g id="a_Node000001"><a xlink:title="Exception thrown during memory operations.">
<polygon fill="#999999" stroke="transparent" points="126,-105 0,-105 0,0 126,0 126,-105"/>
<text text-anchor="start" x="15.5" y="-92.5" font-family="Helvetica,sans-Serif" font-size="10.00">unilink::diagnostics</text>
<text text-anchor="start" x="15.5" y="-81.5" font-family="Helvetica,sans-Serif" font-size="10.00">::MemoryException</text>
<text text-anchor="start" x="61" y="-66.5" font-family="Helvetica,sans-Serif" font-size="10.00"> </text>
<text text-anchor="start" x="4" y="-51.5" font-family="Helvetica,sans-Serif" font-size="10.00">+</text>
<text text-anchor="start" x="17" y="-51.5" font-family="Helvetica,sans-Serif" font-size="10.00">MemoryException()</text>
<text text-anchor="start" x="4" y="-36.5" font-family="Helvetica,sans-Serif" font-size="10.00">+</text>
<text text-anchor="start" x="17" y="-36.5" font-family="Helvetica,sans-Serif" font-size="10.00">~MemoryException()</text>
<text text-anchor="start" x="4" y="-21.5" font-family="Helvetica,sans-Serif" font-size="10.00">+</text>
<text text-anchor="start" x="17" y="-21.5" font-family="Helvetica,sans-Serif" font-size="10.00">size()</text>
<text text-anchor="start" x="4" y="-6.5" font-family="Helvetica,sans-Serif" font-size="10.00">+</text>
<text text-anchor="start" x="17" y="-6.5" font-family="Helvetica,sans-Serif" font-size="10.00">full_message()</text>
<polygon fill="#666666" stroke="#666666" points="0,-76.5 0,-76.5 126,-76.5 126,-76.5 0,-76.5"/>
<polygon fill="#666666" stroke="#666666" points="0,-61.5 0,-61.5 126,-61.5 126,-61.5 0,-61.5"/>
<polygon fill="none" stroke="#666666" points="0,0 0,-105 126,-105 126,0 0,0"/>
</a>
</g>
</g>
<!-- Node2 -->
<g id="Node000002" class="node">
<title>Node2</title>
<g id="a_Node000002"><a xlink:href="classunilink_1_1diagnostics_1_1UnilinkException.html" target="_top" xlink:title="Base exception class for all unilink exceptions.">
<polygon fill="white" stroke="transparent" points="123,-261 3,-261 3,-141 123,-141 123,-261"/>
<text text-anchor="start" x="15.5" y="-249" font-family="Helvetica,sans-Serif" font-size="10.00">unilink::diagnostics</text>
<text text-anchor="start" x="18.5" y="-238" font-family="Helvetica,sans-Serif" font-size="10.00">::UnilinkException</text>
<text text-anchor="start" x="61" y="-223" font-family="Helvetica,sans-Serif" font-size="10.00"> </text>
<text text-anchor="start" x="7" y="-208" font-family="Helvetica,sans-Serif" font-size="10.00">+</text>
<text text-anchor="start" x="20" y="-208" font-family="Helvetica,sans-Serif" font-size="10.00">UnilinkException()</text>
<text text-anchor="start" x="7" y="-193" font-family="Helvetica,sans-Serif" font-size="10.00">+</text>
<text text-anchor="start" x="20" y="-193" font-family="Helvetica,sans-Serif" font-size="10.00">~UnilinkException()</text>
<text text-anchor="start" x="7" y="-178" font-family="Helvetica,sans-Serif" font-size="10.00">+</text>
<text text-anchor="start" x="20" y="-178" font-family="Helvetica,sans-Serif" font-size="10.00">component()</text>
<text text-anchor="start" x="7" y="-163" font-family="Helvetica,sans-Serif" font-size="10.00">+</text>
<text text-anchor="start" x="20" y="-163" font-family="Helvetica,sans-Serif" font-size="10.00">operation()</text>
<text text-anchor="start" x="7" y="-148" font-family="Helvetica,sans-Serif" font-size="10.00">+</text>
<text text-anchor="start" x="20" y="-148" font-family="Helvetica,sans-Serif" font-size="10.00">full_message()</text>
<polygon fill="#666666" stroke="#666666" points="3,-233 3,-233 123,-233 123,-233 3,-233"/>
<polygon fill="#666666" stroke="#666666" points="3,-218 3,-218 123,-218 123,-218 3,-218"/>
<polygon fill="none" stroke="#666666" points="3,-141 3,-261 123,-261 123,-141 3,-141"/>
</a>
</g>
</g>
<!-- Node2&#45;&gt;Node1 -->
<g id="edge1_Node000001_Node000002" class="edge">
<title>Node2&#45;&gt;Node1</title>
<g id="a_edge1_Node000001_Node000002"><a xlink:title=" ">
<path fill="none" stroke="#63b8ff" d="M63,-130.83C63,-122.25 63,-113.6 63,-105.34"/>
<polygon fill="none" stroke="#63b8ff" points="59.5,-130.84 63,-140.84 66.5,-130.84 59.5,-130.84"/>
</a>
</g>
</g>
<!-- Node3 -->
<g id="Node000003" class="node">
<title>Node3</title>
<g id="a_Node000003"><a xlink:title=" ">
<polygon fill="white" stroke="transparent" points="112,-346 14,-346 14,-297 112,-297 112,-346"/>
<text text-anchor="start" x="19" y="-333.5" font-family="Helvetica,sans-Serif" font-size="10.00">std::runtime_error</text>
<text text-anchor="start" x="61" y="-318.5" font-family="Helvetica,sans-Serif" font-size="10.00"> </text>
<text text-anchor="start" x="61" y="-303.5" font-family="Helvetica,sans-Serif" font-size="10.00"> </text>
<polygon fill="#666666" stroke="#666666" points="14,-328.5 14,-328.5 112,-328.5 112,-328.5 14,-328.5"/>
<polygon fill="#666666" stroke="#666666" points="14,-313.5 14,-313.5 112,-313.5 112,-313.5 14,-313.5"/>
<polygon fill="none" stroke="#666666" points="14,-297 14,-346 112,-346 112,-297 14,-297"/>
</a>
</g>
</g>
<!-- Node3&#45;&gt;Node2 -->
<g id="edge2_Node000002_Node000003" class="edge">
<title>Node3&#45;&gt;Node2</title>
<g id="a_edge2_Node000002_Node000003"><a xlink:title=" ">
<path fill="none" stroke="#63b8ff" d="M63,-286.59C63,-278.71 63,-270.09 63,-261.47"/>
<polygon fill="none" stroke="#63b8ff" points="59.5,-286.8 63,-296.8 66.5,-286.8 59.5,-286.8"/>
</a>
</g>
</g>
</g>
</svg>
</svg>

<style type='text/css'>
<![CDATA[
[data-mouse-over-selected='false'] { opacity: 0.7; }
[data-mouse-over-selected='true']  { opacity: 1.0; }
]]>
</style>
<script type="application/ecmascript"><![CDATA[
document.addEventListener('DOMContentLoaded', (event) => {
  highlightEdges();
  highlightAdjacentNodes();
});
]]></script>
</svg>
