<?xml version="1.0" encoding="UTF-8" standalone="no"?>
<!DOCTYPE svg PUBLIC "-//W3C//DTD SVG 1.1//EN"
 "http://www.w3.org/Graphics/SVG/1.1/DTD/svg11.dtd">
<!-- Generated by graphviz version 2.43.0 (0)
 -->
<!-- Title: unilink::memory::SafeSpan::data Pages: 1 -->
<svg width="547pt" height="1063pt"
 viewBox="0.00 0.00 547.00 1062.50" xmlns="http://www.w3.org/2000/svg" xmlns:xlink="http://www.w3.org/1999/xlink">
<g id="graph0" class="graph" transform="scale(1 1) rotate(0) translate(4 1058.5)">
<title>unilink::memory::SafeSpan::data</title>
<!-- Node1 -->
<g id="Node000001" class="node">
<title>Node1</title>
<g id="a_Node000001"><a xlink:title=" ">
<polygon fill="#999999" stroke="#666666" points="539,-636 391,-636 391,-606 539,-606 539,-636"/>
<text text-anchor="start" x="399" y="-624" font-family="Helvetica,sans-Serif" font-size="10.00">unilink::memory::SafeSpan</text>
<text text-anchor="middle" x="465" y="-613" font-family="Helvetica,sans-Serif" font-size="10.00">::data</text>
</a>
</g>
</g>
<!-- Node2 -->
<g id="Node000002" class="node">
<title>Node2</title>
<g id="a_Node000002"><a xlink:href="classunilink_1_1transport_1_1TcpServerSession.html#af4924971969eccb5008bd42ccb302cb9" target="_top" xlink:title=" ">
<polygon fill="white" stroke="#666666" points="328,-1054.5 215,-1054.5 215,-1013.5 328,-1013.5 328,-1054.5"/>
<text text-anchor="start" x="223" y="-1042.5" font-family="Helvetica,sans-Serif" font-size="10.00">unilink::transport</text>
<text text-anchor="start" x="223" y="-1031.5" font-family="Helvetica,sans-Serif" font-size="10.00">::TcpServerSession::</text>
<text text-anchor="middle" x="271.5" y="-1020.5" font-family="Helvetica,sans-Serif" font-size="10.00">async_write_copy</text>
</a>
</g>
</g>
<!-- Node1&#45;&gt;Node2 -->
<g id="edge1_Node000001_Node000002" class="edge">
<title>Node1&#45;&gt;Node2</title>
<g id="a_edge1_Node000001_Node000002"><a xlink:title=" ">
<path fill="none" stroke="#63b8ff" d="M464.27,-646.23C463.59,-713.53 452.5,-899.27 355,-1004 347.73,-1011.81 338.27,-1017.59 328.36,-1021.87"/>
<polygon fill="#63b8ff" stroke="#63b8ff" points="467.77,-646.14 464.29,-636.13 460.77,-646.12 467.77,-646.14"/>
</a>
</g>
</g>
<!-- Node3 -->
<g id="Node000003" class="node">
<title>Node3</title>
<g id="a_Node000003"><a xlink:href="classunilink_1_1transport_1_1Serial.html#a66dcdee06d54ec2370dcdcbafef40875" target="_top" xlink:title=" ">
<polygon fill="white" stroke="#666666" points="343,-995 200,-995 200,-965 343,-965 343,-995"/>
<text text-anchor="start" x="208" y="-983" font-family="Helvetica,sans-Serif" font-size="10.00">unilink::transport</text>
<text text-anchor="middle" x="271.5" y="-972" font-family="Helvetica,sans-Serif" font-size="10.00">::Serial::async_write_copy</text>
</a>
</g>
</g>
<!-- Node1&#45;&gt;Node3 -->
<g id="edge2_Node000001_Node000003" class="edge">
<title>Node1&#45;&gt;Node3</title>
<g id="a_edge2_Node000001_Node000003"><a xlink:title=" ">
<path fill="none" stroke="#63b8ff" d="M463.42,-646.32C460.58,-708.37 444.5,-869.27 355,-956 351.46,-959.43 347.47,-962.37 343.19,-964.89"/>
<polygon fill="#63b8ff" stroke="#63b8ff" points="466.92,-646.37 463.8,-636.25 459.92,-646.11 466.92,-646.37"/>
</a>
</g>
</g>
<!-- Node4 -->
<g id="Node000004" class="node">
<title>Node4</title>
<g id="a_Node000004"><a xlink:href="classunilink_1_1transport_1_1TcpClient.html#a996369a17ecad069edd0c20c19689e9d" target="_top" xlink:title=" ">
<polygon fill="white" stroke="#666666" points="351.5,-947 191.5,-947 191.5,-917 351.5,-917 351.5,-947"/>
<text text-anchor="start" x="199.5" y="-935" font-family="Helvetica,sans-Serif" font-size="10.00">unilink::transport</text>
<text text-anchor="middle" x="271.5" y="-924" font-family="Helvetica,sans-Serif" font-size="10.00">::TcpClient::async_write_copy</text>
</a>
</g>
</g>
<!-- Node1&#45;&gt;Node4 -->
<g id="edge3_Node000001_Node000004" class="edge">
<title>Node1&#45;&gt;Node4</title>
<g id="a_edge3_Node000001_Node000004"><a xlink:title=" ">
<path fill="none" stroke="#63b8ff" d="M461.85,-646.07C455.73,-701.62 433.2,-835.81 355,-908 351.27,-911.44 347.08,-914.39 342.61,-916.92"/>
<polygon fill="#63b8ff" stroke="#63b8ff" points="465.34,-646.36 462.87,-636.05 458.37,-645.65 465.34,-646.36"/>
</a>
</g>
</g>
<!-- Node5 -->
<g id="Node000005" class="node">
<title>Node5</title>
<g id="a_Node000005"><a xlink:href="classunilink_1_1transport_1_1UdpChannel.html#a753af71ad739e467588e3d6c3af9c5ef" target="_top" xlink:title=" ">
<polygon fill="white" stroke="#666666" points="329.5,-898.5 213.5,-898.5 213.5,-857.5 329.5,-857.5 329.5,-898.5"/>
<text text-anchor="start" x="221.5" y="-886.5" font-family="Helvetica,sans-Serif" font-size="10.00">unilink::transport</text>
<text text-anchor="start" x="221.5" y="-875.5" font-family="Helvetica,sans-Serif" font-size="10.00">::UdpChannel::async</text>
<text text-anchor="middle" x="271.5" y="-864.5" font-family="Helvetica,sans-Serif" font-size="10.00">_write_copy</text>
</a>
</g>
</g>
<!-- Node1&#45;&gt;Node5 -->
<g id="edge4_Node000001_Node000005" class="edge">
<title>Node1&#45;&gt;Node5</title>
<g id="a_edge4_Node000001_Node000005"><a xlink:title=" ">
<path fill="none" stroke="#63b8ff" d="M458.73,-646.05C447.67,-692.57 417.71,-792.72 355,-849 347.77,-855.49 339,-860.55 329.91,-864.48"/>
<polygon fill="#63b8ff" stroke="#63b8ff" points="462.17,-646.72 460.98,-636.19 455.34,-645.17 462.17,-646.72"/>
</a>
</g>
</g>
<!-- Node6 -->
<g id="Node000006" class="node">
<title>Node6</title>
<g id="a_Node000006"><a xlink:href="classunilink_1_1transport_1_1UdpChannel.html#a17438bba1b0d13e683aadc1391fb0bcc" target="_top" xlink:title=" ">
<polygon fill="white" stroke="#666666" points="329.5,-839.5 213.5,-839.5 213.5,-798.5 329.5,-798.5 329.5,-839.5"/>
<text text-anchor="start" x="221.5" y="-827.5" font-family="Helvetica,sans-Serif" font-size="10.00">unilink::transport</text>
<text text-anchor="start" x="221.5" y="-816.5" font-family="Helvetica,sans-Serif" font-size="10.00">::UdpChannel::async</text>
<text text-anchor="middle" x="271.5" y="-805.5" font-family="Helvetica,sans-Serif" font-size="10.00">_write_to</text>
</a>
</g>
</g>
<!-- Node1&#45;&gt;Node6 -->
<g id="edge5_Node000001_Node000006" class="edge">
<title>Node1&#45;&gt;Node6</title>
<g id="a_edge5_Node000001_Node000006"><a xlink:title=" ">
<path fill="none" stroke="#63b8ff" d="M454.09,-645.73C438.34,-682.07 404.24,-749.83 355,-789 347.49,-794.98 338.67,-799.83 329.66,-803.75"/>
<polygon fill="#63b8ff" stroke="#63b8ff" points="457.38,-646.94 458.05,-636.36 450.93,-644.22 457.38,-646.94"/>
</a>
</g>
</g>
<!-- Node7 -->
<g id="Node000007" class="node">
<title>Node7</title>
<g id="a_Node000007"><a xlink:href="structunilink_1_1wrapper_1_1Serial_1_1Impl.html#a0322ca1987cff30ecb38f0873053bacc" target="_top" xlink:title=" ">
<polygon fill="white" stroke="#666666" points="354,-780 189,-780 189,-750 354,-750 354,-780"/>
<text text-anchor="start" x="197" y="-768" font-family="Helvetica,sans-Serif" font-size="10.00">unilink::wrapper::Serial</text>
<text text-anchor="middle" x="271.5" y="-757" font-family="Helvetica,sans-Serif" font-size="10.00">::Impl::attach_framer_callback</text>
</a>
</g>
</g>
<!-- Node1&#45;&gt;Node7 -->
<g id="edge6_Node000001_Node000007" class="edge">
<title>Node1&#45;&gt;Node7</title>
<g id="a_edge6_Node000001_Node000007"><a xlink:title=" ">
<path fill="none" stroke="#63b8ff" d="M448.43,-644.91C429.52,-672.1 395.11,-715.95 355,-741 349.56,-744.4 343.62,-747.33 337.5,-749.86"/>
<polygon fill="#63b8ff" stroke="#63b8ff" points="451.51,-646.61 454.24,-636.38 445.72,-642.67 451.51,-646.61"/>
</a>
</g>
</g>
<!-- Node10 -->
<g id="Node000010" class="node">
<title>Node10</title>
<g id="a_Node000010"><a xlink:href="structunilink_1_1wrapper_1_1TcpClient_1_1Impl.html#a6193e6eced480d2e35e09f8a8aaf3ede" target="_top" xlink:title=" ">
<polygon fill="white" stroke="#666666" points="354,-732 189,-732 189,-702 354,-702 354,-732"/>
<text text-anchor="start" x="197" y="-720" font-family="Helvetica,sans-Serif" font-size="10.00">unilink::wrapper::TcpClient</text>
<text text-anchor="middle" x="271.5" y="-709" font-family="Helvetica,sans-Serif" font-size="10.00">::Impl::attach_framer_callback</text>
</a>
</g>
</g>
<!-- Node1&#45;&gt;Node10 -->
<g id="edge9_Node000001_Node000010" class="edge">
<title>Node1&#45;&gt;Node10</title>
<g id="a_edge9_Node000001_Node000010"><a xlink:title=" ">
<path fill="none" stroke="#63b8ff" d="M436.75,-642.36C415.48,-658.18 384.67,-679.27 355,-693 347.83,-696.32 340.09,-699.29 332.32,-701.92"/>
<polygon fill="#63b8ff" stroke="#63b8ff" points="439.09,-644.98 444.96,-636.16 434.87,-639.39 439.09,-644.98"/>
</a>
</g>
</g>
<!-- Node11 -->
<g id="Node000011" class="node">
<title>Node11</title>
<g id="a_Node000011"><a xlink:href="structunilink_1_1wrapper_1_1UdpClient_1_1Impl.html#a2efdb2ae4eab24161d8c0adee210b83d" target="_top" xlink:title=" ">
<polygon fill="white" stroke="#666666" points="354,-684 189,-684 189,-654 354,-654 354,-684"/>
<text text-anchor="start" x="197" y="-672" font-family="Helvetica,sans-Serif" font-size="10.00">unilink::wrapper::UdpClient</text>
<text text-anchor="middle" x="271.5" y="-661" font-family="Helvetica,sans-Serif" font-size="10.00">::Impl::attach_framer_callback</text>
</a>
</g>
</g>
<!-- Node1&#45;&gt;Node11 -->
<g id="edge10_Node000001_Node000011" class="edge">
<title>Node1&#45;&gt;Node11</title>
<g id="a_edge10_Node000001_Node000011"><a xlink:title=" ">
<path fill="none" stroke="#63b8ff" d="M394.14,-638.51C373.88,-643.59 351.94,-649.09 332.35,-654"/>
<polygon fill="#63b8ff" stroke="#63b8ff" points="395.08,-641.88 403.93,-636.06 393.38,-635.09 395.08,-641.88"/>
</a>
</g>
</g>
<!-- Node14 -->
<g id="Node000014" class="node">
<title>Node14</title>
<g id="a_Node000014"><a xlink:href="structunilink_1_1wrapper_1_1UdsClient_1_1Impl.html#a1219fcefa0378c01eabd2d4af00bcd5f" target="_top" xlink:title=" ">
<polygon fill="white" stroke="#666666" points="354,-636 189,-636 189,-606 354,-606 354,-636"/>
<text text-anchor="start" x="197" y="-624" font-family="Helvetica,sans-Serif" font-size="10.00">unilink::wrapper::UdsClient</text>
<text text-anchor="middle" x="271.5" y="-613" font-family="Helvetica,sans-Serif" font-size="10.00">::Impl::attach_framer_callback</text>
</a>
</g>
</g>
<!-- Node1&#45;&gt;Node14 -->
<g id="edge13_Node000001_Node000014" class="edge">
<title>Node1&#45;&gt;Node14</title>
<g id="a_edge13_Node000001_Node000014"><a xlink:title=" ">
<path fill="none" stroke="#63b8ff" d="M380.62,-621C371.89,-621 363.02,-621 354.3,-621"/>
<polygon fill="#63b8ff" stroke="#63b8ff" points="380.78,-624.5 390.78,-621 380.78,-617.5 380.78,-624.5"/>
</a>
</g>
</g>
<!-- Node17 -->
<g id="Node000017" class="node">
<title>Node17</title>
<g id="a_Node000017"><a xlink:href="classunilink_1_1memory_1_1SafeDataBuffer.html#ac1c2be33e14dec0c11aa933426ad6bb0" target="_top" xlink:title=" ">
<polygon fill="white" stroke="#666666" points="345,-588 198,-588 198,-558 345,-558 345,-588"/>
<text text-anchor="start" x="206" y="-576" font-family="Helvetica,sans-Serif" font-size="10.00">unilink::memory::SafeData</text>
<text text-anchor="middle" x="271.5" y="-565" font-family="Helvetica,sans-Serif" font-size="10.00">Buffer::SafeDataBuffer</text>
</a>
</g>
</g>
<!-- Node1&#45;&gt;Node17 -->
<g id="edge16_Node000001_Node000017" class="edge">
<title>Node1&#45;&gt;Node17</title>
<g id="a_edge16_Node000001_Node000017"><a xlink:title=" ">
<path fill="none" stroke="#63b8ff" d="M394.14,-603.49C373.88,-598.41 351.94,-592.91 332.35,-588"/>
<polygon fill="#63b8ff" stroke="#63b8ff" points="393.38,-606.91 403.93,-605.94 395.08,-600.12 393.38,-606.91"/>
</a>
</g>
</g>
<!-- Node18 -->
<g id="Node000018" class="node">
<title>Node18</title>
<g id="a_Node000018"><a xlink:href="structunilink_1_1wrapper_1_1Serial_1_1Impl.html#a9e6722cf4e4dbee24492d3f3e2c0a894" target="_top" xlink:title=" ">
<polygon fill="white" stroke="#666666" points="336,-539.5 207,-539.5 207,-498.5 336,-498.5 336,-539.5"/>
<text text-anchor="start" x="215" y="-527.5" font-family="Helvetica,sans-Serif" font-size="10.00">unilink::wrapper::Serial</text>
<text text-anchor="start" x="215" y="-516.5" font-family="Helvetica,sans-Serif" font-size="10.00">::Impl::setup_internal</text>
<text text-anchor="middle" x="271.5" y="-505.5" font-family="Helvetica,sans-Serif" font-size="10.00">_handlers</text>
</a>
</g>
</g>
<!-- Node1&#45;&gt;Node18 -->
<g id="edge17_Node000001_Node000018" class="edge">
<title>Node1&#45;&gt;Node18</title>
<g id="a_edge17_Node000001_Node000018"><a xlink:title=" ">
<path fill="none" stroke="#63b8ff" d="M436.09,-599.91C414.7,-584.41 384.02,-563.61 355,-549 348.33,-545.64 341.19,-542.47 334.01,-539.54"/>
<polygon fill="#63b8ff" stroke="#63b8ff" points="434.24,-602.89 444.37,-605.98 438.37,-597.24 434.24,-602.89"/>
</a>
</g>
</g>
<!-- Node20 -->
<g id="Node000020" class="node">
<title>Node20</title>
<g id="a_Node000020"><a xlink:href="structunilink_1_1wrapper_1_1TcpClient_1_1Impl.html#a71ca6976f08b07bfb8fdc6c17d84aae5" target="_top" xlink:title=" ">
<polygon fill="white" stroke="#666666" points="355,-480 188,-480 188,-450 355,-450 355,-480"/>
<text text-anchor="start" x="196" y="-468" font-family="Helvetica,sans-Serif" font-size="10.00">unilink::wrapper::TcpClient</text>
<text text-anchor="middle" x="271.5" y="-457" font-family="Helvetica,sans-Serif" font-size="10.00">::Impl::setup_internal_handlers</text>
</a>
</g>
</g>
<!-- Node1&#45;&gt;Node20 -->
<g id="edge19_Node000001_Node000020" class="edge">
<title>Node1&#45;&gt;Node20</title>
<g id="a_edge19_Node000001_Node000020"><a xlink:title=" ">
<path fill="none" stroke="#63b8ff" d="M450.3,-597.2C432.18,-567.79 397.5,-518.18 355,-490 349.14,-486.11 342.65,-482.81 335.96,-480.01"/>
<polygon fill="#63b8ff" stroke="#63b8ff" points="447.44,-599.23 455.6,-605.99 453.43,-595.62 447.44,-599.23"/>
</a>
</g>
</g>
<!-- Node23 -->
<g id="Node000023" class="node">
<title>Node23</title>
<g id="a_Node000023"><a xlink:href="structunilink_1_1wrapper_1_1TcpServer_1_1Impl.html#afa02bec7c4ffe754aa0a8b2da4f135a5" target="_top" xlink:title=" ">
<polygon fill="white" stroke="#666666" points="355,-414 188,-414 188,-384 355,-384 355,-414"/>
<text text-anchor="start" x="196" y="-402" font-family="Helvetica,sans-Serif" font-size="10.00">unilink::wrapper::TcpServer</text>
<text text-anchor="middle" x="271.5" y="-391" font-family="Helvetica,sans-Serif" font-size="10.00">::Impl::setup_internal_handlers</text>
</a>
</g>
</g>
<!-- Node1&#45;&gt;Node23 -->
<g id="edge22_Node000001_Node000023" class="edge">
<title>Node1&#45;&gt;Node23</title>
<g id="a_edge22_Node000001_Node000023"><a xlink:title=" ">
<path fill="none" stroke="#63b8ff" d="M454.25,-596.14C438.39,-558.42 403.81,-486.34 355,-441 342.87,-429.73 327.15,-420.73 312.68,-414"/>
<polygon fill="#63b8ff" stroke="#63b8ff" points="451.18,-597.89 458.22,-605.82 457.66,-595.24 451.18,-597.89"/>
</a>
</g>
</g>
<!-- Node26 -->
<g id="Node000026" class="node">
<title>Node26</title>
<g id="a_Node000026"><a xlink:href="structunilink_1_1wrapper_1_1UdpClient_1_1Impl.html#aa1a0c025a484dbf87dc9c0c69342870b" target="_top" xlink:title=" ">
<polygon fill="white" stroke="#666666" points="355,-342 188,-342 188,-312 355,-312 355,-342"/>
<text text-anchor="start" x="196" y="-330" font-family="Helvetica,sans-Serif" font-size="10.00">unilink::wrapper::UdpClient</text>
<text text-anchor="middle" x="271.5" y="-319" font-family="Helvetica,sans-Serif" font-size="10.00">::Impl::setup_internal_handlers</text>
</a>
</g>
</g>
<!-- Node1&#45;&gt;Node26 -->
<g id="edge25_Node000001_Node000026" class="edge">
<title>Node1&#45;&gt;Node26</title>
<g id="a_edge25_Node000001_Node000026"><a xlink:title=" ">
<path fill="none" stroke="#63b8ff" d="M458.44,-596.12C446.68,-548.28 415.27,-442.28 355,-375 342.51,-361.05 324.97,-350.07 309.27,-342.14"/>
<polygon fill="#63b8ff" stroke="#63b8ff" points="455.06,-597.01 460.78,-605.93 461.87,-595.39 455.06,-597.01"/>
</a>
</g>
</g>
<!-- Node28 -->
<g id="Node000028" class="node">
<title>Node28</title>
<g id="a_Node000028"><a xlink:href="structunilink_1_1wrapper_1_1UdpServer_1_1Impl.html#acc6c86c0987b2e7097c779d03fc009f8" target="_top" xlink:title=" ">
<polygon fill="white" stroke="#666666" points="355,-270 188,-270 188,-240 355,-240 355,-270"/>
<text text-anchor="start" x="196" y="-258" font-family="Helvetica,sans-Serif" font-size="10.00">unilink::wrapper::UdpServer</text>
<text text-anchor="middle" x="271.5" y="-247" font-family="Helvetica,sans-Serif" font-size="10.00">::Impl::setup_internal_handlers</text>
</a>
</g>
</g>
<!-- Node1&#45;&gt;Node28 -->
<g id="edge27_Node000001_Node000028" class="edge">
<title>Node1&#45;&gt;Node28</title>
<g id="a_edge27_Node000001_Node000028"><a xlink:title=" ">
<path fill="none" stroke="#63b8ff" d="M461.38,-595.87C454.18,-538.07 429.42,-393.71 355,-303 343.33,-288.78 326.27,-277.87 310.69,-270.07"/>
<polygon fill="#63b8ff" stroke="#63b8ff" points="457.91,-596.4 462.56,-605.93 464.87,-595.59 457.91,-596.4"/>
</a>
</g>
</g>
<!-- Node31 -->
<g id="Node000031" class="node">
<title>Node31</title>
<g id="a_Node000031"><a xlink:href="structunilink_1_1wrapper_1_1UdsClient_1_1Impl.html#a5b0bd183417b37282ed9131737ecf8ae" target="_top" xlink:title=" ">
<polygon fill="white" stroke="#666666" points="355,-174 188,-174 188,-144 355,-144 355,-174"/>
<text text-anchor="start" x="196" y="-162" font-family="Helvetica,sans-Serif" font-size="10.00">unilink::wrapper::UdsClient</text>
<text text-anchor="middle" x="271.5" y="-151" font-family="Helvetica,sans-Serif" font-size="10.00">::Impl::setup_internal_handlers</text>
</a>
</g>
</g>
<!-- Node1&#45;&gt;Node31 -->
<g id="edge30_Node000001_Node000031" class="edge">
<title>Node1&#45;&gt;Node31</title>
<g id="a_edge30_Node000001_Node000031"><a xlink:title=" ">
<path fill="none" stroke="#63b8ff" d="M461.96,-595.82C455.68,-530.7 432.14,-353.25 355,-231 340.09,-207.37 315.1,-187.13 296.52,-174.19"/>
<polygon fill="#63b8ff" stroke="#63b8ff" points="458.49,-596.32 462.88,-605.97 465.46,-595.69 458.49,-596.32"/>
</a>
</g>
</g>
<!-- Node34 -->
<g id="Node000034" class="node">
<title>Node34</title>
<g id="a_Node000034"><a xlink:href="structunilink_1_1wrapper_1_1UdsServer_1_1Impl.html#a10ed4dde741e2d4077f3df717d38cde5" target="_top" xlink:title=" ">
<polygon fill="white" stroke="#666666" points="355,-78 188,-78 188,-48 355,-48 355,-78"/>
<text text-anchor="start" x="196" y="-66" font-family="Helvetica,sans-Serif" font-size="10.00">unilink::wrapper::UdsServer</text>
<text text-anchor="middle" x="271.5" y="-55" font-family="Helvetica,sans-Serif" font-size="10.00">::Impl::setup_internal_handlers</text>
</a>
</g>
</g>
<!-- Node1&#45;&gt;Node34 -->
<g id="edge33_Node000001_Node000034" class="edge">
<title>Node1&#45;&gt;Node34</title>
<g id="a_edge33_Node000001_Node000034"><a xlink:title=" ">
<path fill="none" stroke="#63b8ff" d="M463.72,-595.42C461.82,-519.59 448.19,-291.54 355,-135 340.8,-111.15 315.97,-91.09 297.24,-78.25"/>
<polygon fill="#63b8ff" stroke="#63b8ff" points="460.23,-595.94 463.93,-605.87 467.23,-595.8 460.23,-595.94"/>
</a>
</g>
</g>
<!-- Node8 -->
<g id="Node000008" class="node">
<title>Node8</title>
<g id="a_Node000008"><a xlink:href="structunilink_1_1wrapper_1_1Serial_1_1Impl.html#a214c3e2dc0880150308c36e23165e708" target="_top" xlink:title=" ">
<polygon fill="white" stroke="#666666" points="140.5,-846 11.5,-846 11.5,-816 140.5,-816 140.5,-846"/>
<text text-anchor="start" x="19.5" y="-834" font-family="Helvetica,sans-Serif" font-size="10.00">unilink::wrapper::Serial</text>
<text text-anchor="middle" x="76" y="-823" font-family="Helvetica,sans-Serif" font-size="10.00">::Impl::on_message</text>
</a>
</g>
</g>
<!-- Node7&#45;&gt;Node8 -->
<g id="edge7_Node000007_Node000008" class="edge">
<title>Node7&#45;&gt;Node8</title>
<g id="a_edge7_Node000007_Node000008"><a xlink:title=" ">
<path fill="none" stroke="#63b8ff" d="M207.27,-783.12C200.72,-785.31 194.19,-787.61 188,-790 171.49,-796.36 168.46,-800.51 152,-807 144.11,-810.11 135.65,-813.12 127.35,-815.9"/>
<polygon fill="#63b8ff" stroke="#63b8ff" points="208.43,-786.42 216.86,-780 206.26,-779.76 208.43,-786.42"/>
</a>
</g>
</g>
<!-- Node9 -->
<g id="Node000009" class="node">
<title>Node9</title>
<g id="a_Node000009"><a xlink:href="structunilink_1_1wrapper_1_1Serial_1_1Impl.html#a0015c7ce9f070aafd15ac10c677b8ab8" target="_top" xlink:title=" ">
<polygon fill="white" stroke="#666666" points="140.5,-798 11.5,-798 11.5,-768 140.5,-768 140.5,-798"/>
<text text-anchor="start" x="19.5" y="-786" font-family="Helvetica,sans-Serif" font-size="10.00">unilink::wrapper::Serial</text>
<text text-anchor="middle" x="76" y="-775" font-family="Helvetica,sans-Serif" font-size="10.00">::Impl::set_framer</text>
</a>
</g>
</g>
<!-- Node7&#45;&gt;Node9 -->
<g id="edge8_Node000007_Node000009" class="edge">
<title>Node7&#45;&gt;Node9</title>
<g id="a_edge8_Node000007_Node000009"><a xlink:title=" ">
<path fill="none" stroke="#63b8ff" d="M178.74,-773.54C165.9,-774.73 152.94,-775.94 140.77,-777.07"/>
<polygon fill="#63b8ff" stroke="#63b8ff" points="179.37,-776.99 189,-772.58 178.72,-770.02 179.37,-776.99"/>
</a>
</g>
</g>
<!-- Node12 -->
<g id="Node000012" class="node">
<title>Node12</title>
<g id="a_Node000012"><a xlink:href="structunilink_1_1wrapper_1_1UdpClient_1_1Impl.html#ab5f876cfbacc69128f6de2619023286e" target="_top" xlink:title=" ">
<polygon fill="white" stroke="#666666" points="150.5,-750 1.5,-750 1.5,-720 150.5,-720 150.5,-750"/>
<text text-anchor="start" x="9.5" y="-738" font-family="Helvetica,sans-Serif" font-size="10.00">unilink::wrapper::UdpClient</text>
<text text-anchor="middle" x="76" y="-727" font-family="Helvetica,sans-Serif" font-size="10.00">::Impl::on_message</text>
</a>
</g>
</g>
<!-- Node11&#45;&gt;Node12 -->
<g id="edge11_Node000011_Node000012" class="edge">
<title>Node11&#45;&gt;Node12</title>
<g id="a_edge11_Node000011_Node000012"><a xlink:title=" ">
<path fill="none" stroke="#63b8ff" d="M203.9,-687.24C198.48,-689.07 193.12,-690.99 188,-693 171.34,-699.52 168.57,-704.25 152,-711 144.28,-714.14 135.98,-717.15 127.81,-719.91"/>
<polygon fill="#63b8ff" stroke="#63b8ff" points="205.26,-690.48 213.68,-684.06 203.09,-683.82 205.26,-690.48"/>
</a>
</g>
</g>
<!-- Node13 -->
<g id="Node000013" class="node">
<title>Node13</title>
<g id="a_Node000013"><a xlink:href="structunilink_1_1wrapper_1_1UdpClient_1_1Impl.html#ad433e6e6ad1872781b3cf94eda658c3f" target="_top" xlink:title=" ">
<polygon fill="white" stroke="#666666" points="150.5,-702 1.5,-702 1.5,-672 150.5,-672 150.5,-702"/>
<text text-anchor="start" x="9.5" y="-690" font-family="Helvetica,sans-Serif" font-size="10.00">unilink::wrapper::UdpClient</text>
<text text-anchor="middle" x="76" y="-679" font-family="Helvetica,sans-Serif" font-size="10.00">::Impl::set_framer</text>
</a>
</g>
</g>
<!-- Node11&#45;&gt;Node13 -->
<g id="edge12_Node000011_Node000013" class="edge">
<title>Node11&#45;&gt;Node13</title>
<g id="a_edge12_Node000011_Node000013"><a xlink:title=" ">
<path fill="none" stroke="#63b8ff" d="M178.82,-677.53C169.39,-678.41 159.91,-679.29 150.71,-680.14"/>
<polygon fill="#63b8ff" stroke="#63b8ff" points="179.37,-680.99 189,-676.58 178.72,-674.02 179.37,-680.99"/>
</a>
</g>
</g>
<!-- Node15 -->
<g id="Node000015" class="node">
<title>Node15</title>
<g id="a_Node000015"><a xlink:href="structunilink_1_1wrapper_1_1UdsClient_1_1Impl.html#a71d3a071e7576339bec3c5229187d869" target="_top" xlink:title=" ">
<polygon fill="white" stroke="#666666" points="150.5,-654 1.5,-654 1.5,-624 150.5,-624 150.5,-654"/>
<text text-anchor="start" x="9.5" y="-642" font-family="Helvetica,sans-Serif" font-size="10.00">unilink::wrapper::UdsClient</text>
<text text-anchor="middle" x="76" y="-631" font-family="Helvetica,sans-Serif" font-size="10.00">::Impl::on_message</text>
</a>
</g>
</g>
<!-- Node14&#45;&gt;Node15 -->
<g id="edge14_Node000014_Node000015" class="edge">
<title>Node14&#45;&gt;Node15</title>
<g id="a_edge14_Node000014_Node000015"><a xlink:title=" ">
<path fill="none" stroke="#63b8ff" d="M178.82,-629.53C169.39,-630.41 159.91,-631.29 150.71,-632.14"/>
<polygon fill="#63b8ff" stroke="#63b8ff" points="179.37,-632.99 189,-628.58 178.72,-626.02 179.37,-632.99"/>
</a>
</g>
</g>
<!-- Node16 -->
<g id="Node000016" class="node">
<title>Node16</title>
<g id="a_Node000016"><a xlink:href="structunilink_1_1wrapper_1_1UdsClient_1_1Impl.html#ac79278578a498f732c0d25a1b2b7336f" target="_top" xlink:title=" ">
<polygon fill="white" stroke="#666666" points="150.5,-606 1.5,-606 1.5,-576 150.5,-576 150.5,-606"/>
<text text-anchor="start" x="9.5" y="-594" font-family="Helvetica,sans-Serif" font-size="10.00">unilink::wrapper::UdsClient</text>
<text text-anchor="middle" x="76" y="-583" font-family="Helvetica,sans-Serif" font-size="10.00">::Impl::set_framer</text>
</a>
</g>
</g>
<!-- Node14&#45;&gt;Node16 -->
<g id="edge15_Node000014_Node000016" class="edge">
<title>Node14&#45;&gt;Node16</title>
<g id="a_edge15_Node000014_Node000016"><a xlink:title=" ">
<path fill="none" stroke="#63b8ff" d="M179.12,-606.83C169.6,-605.36 160,-603.87 150.71,-602.43"/>
<polygon fill="#63b8ff" stroke="#63b8ff" points="178.58,-610.29 189,-608.36 179.65,-603.37 178.58,-610.29"/>
</a>
</g>
</g>
<!-- Node19 -->
<g id="Node000019" class="node">
<title>Node19</title>
<g id="a_Node000019"><a xlink:href="structunilink_1_1wrapper_1_1Serial_1_1Impl.html#a94bbcf403f89c0c8466b5692c73648b8" target="_top" xlink:title=" ">
<polygon fill="white" stroke="#666666" points="140.5,-558 11.5,-558 11.5,-528 140.5,-528 140.5,-558"/>
<text text-anchor="start" x="19.5" y="-546" font-family="Helvetica,sans-Serif" font-size="10.00">unilink::wrapper::Serial</text>
<text text-anchor="middle" x="76" y="-535" font-family="Helvetica,sans-Serif" font-size="10.00">::Impl::start</text>
</a>
</g>
</g>
<!-- Node18&#45;&gt;Node19 -->
<g id="edge18_Node000018_Node000019" class="edge">
<title>Node18&#45;&gt;Node19</title>
<g id="a_edge18_Node000018_Node000019"><a xlink:title=" ">
<path fill="none" stroke="#63b8ff" d="M196.75,-528.15C178.27,-530.44 158.61,-532.88 140.67,-535.1"/>
<polygon fill="#63b8ff" stroke="#63b8ff" points="197.38,-531.6 206.87,-526.89 196.52,-524.65 197.38,-531.6"/>
</a>
</g>
</g>
<!-- Node21 -->
<g id="Node000021" class="node">
<title>Node21</title>
<g id="a_Node000021"><a xlink:href="structunilink_1_1wrapper_1_1TcpClient_1_1Impl.html#a32dae0c43294e3469ed3802896fe8116" target="_top" xlink:title=" ">
<polygon fill="white" stroke="#666666" points="149,-510 3,-510 3,-480 149,-480 149,-510"/>
<text text-anchor="start" x="11" y="-498" font-family="Helvetica,sans-Serif" font-size="10.00">unilink::wrapper::TcpClient</text>
<text text-anchor="middle" x="76" y="-487" font-family="Helvetica,sans-Serif" font-size="10.00">::Impl::Impl</text>
</a>
</g>
</g>
<!-- Node20&#45;&gt;Node21 -->
<g id="edge20_Node000020_Node000021" class="edge">
<title>Node20&#45;&gt;Node21</title>
<g id="a_edge20_Node000020_Node000021"><a xlink:title=" ">
<path fill="none" stroke="#63b8ff" d="M177.89,-479.36C168.28,-480.85 158.61,-482.35 149.27,-483.8"/>
<polygon fill="#63b8ff" stroke="#63b8ff" points="178.53,-482.8 187.88,-477.81 177.46,-475.88 178.53,-482.8"/>
</a>
</g>
</g>
<!-- Node22 -->
<g id="Node000022" class="node">
<title>Node22</title>
<g id="a_Node000022"><a xlink:href="structunilink_1_1wrapper_1_1TcpClient_1_1Impl.html#a8ab8cedd92a78d5e9aa4f9aadbe736d3" target="_top" xlink:title=" ">
<polygon fill="white" stroke="#666666" points="149,-462 3,-462 3,-432 149,-432 149,-462"/>
<text text-anchor="start" x="11" y="-450" font-family="Helvetica,sans-Serif" font-size="10.00">unilink::wrapper::TcpClient</text>
<text text-anchor="middle" x="76" y="-439" font-family="Helvetica,sans-Serif" font-size="10.00">::Impl::start</text>
</a>
</g>
</g>
<!-- Node20&#45;&gt;Node22 -->
<g id="edge21_Node000020_Node000022" class="edge">
<title>Node20&#45;&gt;Node22</title>
<g id="a_edge21_Node000020_Node000022"><a xlink:title=" ">
<path fill="none" stroke="#63b8ff" d="M177.89,-456.39C168.28,-455.49 158.61,-454.59 149.27,-453.72"/>
<polygon fill="#63b8ff" stroke="#63b8ff" points="177.6,-459.87 187.88,-457.31 178.24,-452.9 177.6,-459.87"/>
</a>
</g>
</g>
<!-- Node24 -->
<g id="Node000024" class="node">
<title>Node24</title>
<g id="a_Node000024"><a xlink:href="structunilink_1_1wrapper_1_1TcpServer_1_1Impl.html#a8b8ab1b95d8a945e14a5d161828e729d" target="_top" xlink:title=" ">
<polygon fill="white" stroke="#666666" points="150.5,-414 1.5,-414 1.5,-384 150.5,-384 150.5,-414"/>
<text text-anchor="start" x="9.5" y="-402" font-family="Helvetica,sans-Serif" font-size="10.00">unilink::wrapper::TcpServer</text>
<text text-anchor="middle" x="76" y="-391" font-family="Helvetica,sans-Serif" font-size="10.00">::Impl::Impl</text>
</a>
</g>
</g>
<!-- Node23&#45;&gt;Node24 -->
<g id="edge23_Node000023_Node000024" class="edge">
<title>Node23&#45;&gt;Node24</title>
<g id="a_edge23_Node000023_Node000024"><a xlink:title=" ">
<path fill="none" stroke="#63b8ff" d="M177.71,-399C168.68,-399 159.6,-399 150.78,-399"/>
<polygon fill="#63b8ff" stroke="#63b8ff" points="177.88,-402.5 187.88,-399 177.88,-395.5 177.88,-402.5"/>
</a>
</g>
</g>
<!-- Node25 -->
<g id="Node000025" class="node">
<title>Node25</title>
<g id="a_Node000025"><a xlink:href="structunilink_1_1wrapper_1_1TcpServer_1_1Impl.html#a6497c1680973b24cb1103b34c08e75bf" target="_top" xlink:title=" ">
<polygon fill="white" stroke="#666666" points="150.5,-366 1.5,-366 1.5,-336 150.5,-336 150.5,-366"/>
<text text-anchor="start" x="9.5" y="-354" font-family="Helvetica,sans-Serif" font-size="10.00">unilink::wrapper::TcpServer</text>
<text text-anchor="middle" x="76" y="-343" font-family="Helvetica,sans-Serif" font-size="10.00">::Impl::start</text>
</a>
</g>
</g>
<!-- Node23&#45;&gt;Node25 -->
<g id="edge24_Node000023_Node000025" class="edge">
<title>Node23&#45;&gt;Node25</title>
<g id="a_edge24_Node000023_Node000025"><a xlink:title=" ">
<path fill="none" stroke="#63b8ff" d="M199.91,-381.49C179.44,-376.41 157.27,-370.91 137.48,-366"/>
<polygon fill="#63b8ff" stroke="#63b8ff" points="199.26,-384.93 209.81,-383.94 200.94,-378.14 199.26,-384.93"/>
</a>
</g>
</g>
<!-- Node27 -->
<g id="Node000027" class="node">
<title>Node27</title>
<g id="a_Node000027"><a xlink:href="structunilink_1_1wrapper_1_1UdpClient_1_1Impl.html#a50f920c8fa582fcb6af6f9c3ae1b9434" target="_top" xlink:title=" ">
<polygon fill="white" stroke="#666666" points="150.5,-318 1.5,-318 1.5,-288 150.5,-288 150.5,-318"/>
<text text-anchor="start" x="9.5" y="-306" font-family="Helvetica,sans-Serif" font-size="10.00">unilink::wrapper::UdpClient</text>
<text text-anchor="middle" x="76" y="-295" font-family="Helvetica,sans-Serif" font-size="10.00">::Impl::start</text>
</a>
</g>
</g>
<!-- Node26&#45;&gt;Node27 -->
<g id="edge26_Node000026_Node000027" class="edge">
<title>Node26&#45;&gt;Node27</title>
<g id="a_edge26_Node000026_Node000027"><a xlink:title=" ">
<path fill="none" stroke="#63b8ff" d="M177.71,-315.49C168.68,-314.37 159.6,-313.24 150.78,-312.15"/>
<polygon fill="#63b8ff" stroke="#63b8ff" points="177.52,-318.99 187.88,-316.75 178.38,-312.05 177.52,-318.99"/>
</a>
</g>
</g>
<!-- Node29 -->
<g id="Node000029" class="node">
<title>Node29</title>
<g id="a_Node000029"><a xlink:href="structunilink_1_1wrapper_1_1UdpServer_1_1Impl.html#a4282405e724797444608a3f312841dfa" target="_top" xlink:title=" ">
<polygon fill="white" stroke="#666666" points="152,-270 0,-270 0,-240 152,-240 152,-270"/>
<text text-anchor="start" x="8" y="-258" font-family="Helvetica,sans-Serif" font-size="10.00">unilink::wrapper::UdpServer</text>
<text text-anchor="middle" x="76" y="-247" font-family="Helvetica,sans-Serif" font-size="10.00">::Impl::Impl</text>
</a>
</g>
</g>
<!-- Node28&#45;&gt;Node29 -->
<g id="edge28_Node000028_Node000029" class="edge">
<title>Node28&#45;&gt;Node29</title>
<g id="a_edge28_Node000028_Node000029"><a xlink:title=" ">
<path fill="none" stroke="#63b8ff" d="M177.86,-255C169.29,-255 160.68,-255 152.3,-255"/>
<polygon fill="#63b8ff" stroke="#63b8ff" points="177.88,-258.5 187.88,-255 177.88,-251.5 177.88,-258.5"/>
</a>
</g>
</g>
<!-- Node30 -->
<g id="Node000030" class="node">
<title>Node30</title>
<g id="a_Node000030"><a xlink:href="structunilink_1_1wrapper_1_1UdpServer_1_1Impl.html#aef2d453ea13990a3b0bdcd088dd64c46" target="_top" xlink:title=" ">
<polygon fill="white" stroke="#666666" points="152,-222 0,-222 0,-192 152,-192 152,-222"/>
<text text-anchor="start" x="8" y="-210" font-family="Helvetica,sans-Serif" font-size="10.00">unilink::wrapper::UdpServer</text>
<text text-anchor="middle" x="76" y="-199" font-family="Helvetica,sans-Serif" font-size="10.00">::Impl::start</text>
</a>
</g>
</g>
<!-- Node28&#45;&gt;Node30 -->
<g id="edge29_Node000028_Node000030" class="edge">
<title>Node28&#45;&gt;Node30</title>
<g id="a_edge29_Node000028_Node000030"><a xlink:title=" ">
<path fill="none" stroke="#63b8ff" d="M199.91,-237.49C179.44,-232.41 157.27,-226.91 137.48,-222"/>
<polygon fill="#63b8ff" stroke="#63b8ff" points="199.26,-240.93 209.81,-239.94 200.94,-234.14 199.26,-240.93"/>
</a>
</g>
</g>
<!-- Node32 -->
<g id="Node000032" class="node">
<title>Node32</title>
<g id="a_Node000032"><a xlink:href="structunilink_1_1wrapper_1_1UdsClient_1_1Impl.html#a05fb8b19377378c868a95ca37e32d179" target="_top" xlink:title=" ">
<polygon fill="white" stroke="#666666" points="150.5,-174 1.5,-174 1.5,-144 150.5,-144 150.5,-174"/>
<text text-anchor="start" x="9.5" y="-162" font-family="Helvetica,sans-Serif" font-size="10.00">unilink::wrapper::UdsClient</text>
<text text-anchor="middle" x="76" y="-151" font-family="Helvetica,sans-Serif" font-size="10.00">::Impl::Impl</text>
</a>
</g>
</g>
<!-- Node31&#45;&gt;Node32 -->
<g id="edge31_Node000031_Node000032" class="edge">
<title>Node31&#45;&gt;Node32</title>
<g id="a_edge31_Node000031_Node000032"><a xlink:title=" ">
<path fill="none" stroke="#63b8ff" d="M177.71,-159C168.68,-159 159.6,-159 150.78,-159"/>
<polygon fill="#63b8ff" stroke="#63b8ff" points="177.88,-162.5 187.88,-159 177.88,-155.5 177.88,-162.5"/>
</a>
</g>
</g>
<!-- Node33 -->
<g id="Node000033" class="node">
<title>Node33</title>
<g id="a_Node000033"><a xlink:href="structunilink_1_1wrapper_1_1UdsClient_1_1Impl.html#a8961b6f6e34887f785d4af92a79345f8" target="_top" xlink:title=" ">
<polygon fill="white" stroke="#666666" points="150.5,-126 1.5,-126 1.5,-96 150.5,-96 150.5,-126"/>
<text text-anchor="start" x="9.5" y="-114" font-family="Helvetica,sans-Serif" font-size="10.00">unilink::wrapper::UdsClient</text>
<text text-anchor="middle" x="76" y="-103" font-family="Helvetica,sans-Serif" font-size="10.00">::Impl::start</text>
</a>
</g>
</g>
<!-- Node31&#45;&gt;Node33 -->
<g id="edge32_Node000031_Node000033" class="edge">
<title>Node31&#45;&gt;Node33</title>
<g id="a_edge32_Node000031_Node000033"><a xlink:title=" ">
<path fill="none" stroke="#63b8ff" d="M199.91,-141.49C179.44,-136.41 157.27,-130.91 137.48,-126"/>
<polygon fill="#63b8ff" stroke="#63b8ff" points="199.26,-144.93 209.81,-143.94 200.94,-138.14 199.26,-144.93"/>
</a>
</g>
</g>
<!-- Node35 -->
<g id="Node000035" class="node">
<title>Node35</title>
<g id="a_Node000035"><a xlink:href="structunilink_1_1wrapper_1_1UdsServer_1_1Impl.html#a82fa898e3d4786c76704919dea8dae46" target="_top" xlink:title=" ">
<polygon fill="white" stroke="#666666" points="152,-78 0,-78 0,-48 152,-48 152,-78"/>
<text text-anchor="start" x="8" y="-66" font-family="Helvetica,sans-Serif" font-size="10.00">unilink::wrapper::UdsServer</text>
<text text-anchor="middle" x="76" y="-55" font-family="Helvetica,sans-Serif" font-size="10.00">::Impl::Impl</text>
</a>
</g>
</g>
<!-- Node34&#45;&gt;Node35 -->
<g id="edge34_Node000034_Node000035" class="edge">
<title>Node34&#45;&gt;Node35</title>
<g id="a_edge34_Node000034_Node000035"><a xlink:title=" ">
<path fill="none" stroke="#63b8ff" d="M177.86,-63C169.29,-63 160.68,-63 152.3,-63"/>
<polygon fill="#63b8ff" stroke="#63b8ff" points="177.88,-66.5 187.88,-63 177.88,-59.5 177.88,-66.5"/>
</a>
</g>
</g>
<!-- Node36 -->
<g id="Node000036" class="node">
<title>Node36</title>
<g id="a_Node000036"><a xlink:href="structunilink_1_1wrapper_1_1UdsServer_1_1Impl.html#aecb2e08ff201c840d9f5d2a90f016299" target="_top" xlink:title=" ">
<polygon fill="white" stroke="#666666" points="152,-30 0,-30 0,0 152,0 152,-30"/>
<text text-anchor="start" x="8" y="-18" font-family="Helvetica,sans-Serif" font-size="10.00">unilink::wrapper::UdsServer</text>
<text text-anchor="middle" x="76" y="-7" font-family="Helvetica,sans-Serif" font-size="10.00">::Impl::start</text>
</a>
</g>
</g>
<!-- Node34&#45;&gt;Node36 -->
<g id="edge35_Node000034_Node000036" class="edge">
<title>Node34&#45;&gt;Node36</title>
<g id="a_edge35_Node000034_Node000036"><a xlink:title=" ">
<path fill="none" stroke="#63b8ff" d="M199.91,-45.49C179.44,-40.41 157.27,-34.91 137.48,-30"/>
<polygon fill="#63b8ff" stroke="#63b8ff" points="199.26,-48.93 209.81,-47.94 200.94,-42.14 199.26,-48.93"/>
</a>
</g>
</g>
</g>
</svg>
