<?xml version="1.0" encoding="UTF-8" standalone="no"?>
<!DOCTYPE svg PUBLIC "-//W3C//DTD SVG 1.1//EN"
 "http://www.w3.org/Graphics/SVG/1.1/DTD/svg11.dtd">
<!-- Generated by graphviz version 2.43.0 (0)
 -->
<!-- Title: unilink::diagnostics::Logger::log Pages: 1 -->
<svg width="402pt" height="230pt"
 viewBox="0.00 0.00 402.00 230.00" xmlns="http://www.w3.org/2000/svg" xmlns:xlink="http://www.w3.org/1999/xlink">
<g id="graph0" class="graph" transform="scale(1 1) rotate(0) translate(4 226)">
<title>unilink::diagnostics::Logger::log</title>
<!-- Node1 -->
<g id="Node000001" class="node">
<title>Node1</title>
<g id="a_Node000001"><a xlink:title=" ">
<polygon fill="#999999" stroke="#666666" points="394,-126 283,-126 283,-96 394,-96 394,-126"/>
<text text-anchor="start" x="291" y="-114" font-family="Helvetica,sans-Serif" font-size="10.00">unilink::diagnostics</text>
<text text-anchor="middle" x="338.5" y="-103" font-family="Helvetica,sans-Serif" font-size="10.00">::Logger::log</text>
</a>
</g>
</g>
<!-- Node2 -->
<g id="Node000002" class="node">
<title>Node2</title>
<g id="a_Node000002"><a xlink:href="classunilink_1_1diagnostics_1_1Logger.html#a286630c83e07db4633e3f9a9f1f1c115" target="_top" xlink:title=" ">
<polygon fill="white" stroke="#666666" points="247,-222 136,-222 136,-192 247,-192 247,-222"/>
<text text-anchor="start" x="144" y="-210" font-family="Helvetica,sans-Serif" font-size="10.00">unilink::diagnostics</text>
<text text-anchor="middle" x="191.5" y="-199" font-family="Helvetica,sans-Serif" font-size="10.00">::Logger::critical</text>
</a>
</g>
</g>
<!-- Node1&#45;&gt;Node2 -->
<g id="edge1_Node000001_Node000002" class="edge">
<title>Node1&#45;&gt;Node2</title>
<g id="a_edge1_Node000001_Node000002"><a xlink:title=" ">
<path fill="none" stroke="#63b8ff" d="M313.6,-132.84C296.04,-148.16 271.14,-168.42 247,-183 241.69,-186.21 235.88,-189.23 230.08,-191.98"/>
<polygon fill="#63b8ff" stroke="#63b8ff" points="315.94,-135.44 321.12,-126.19 311.31,-130.19 315.94,-135.44"/>
</a>
</g>
</g>
<!-- Node3 -->
<g id="Node000003" class="node">
<title>Node3</title>
<g id="a_Node000003"><a xlink:href="classunilink_1_1diagnostics_1_1Logger.html#ace307c5e28ee9971be657e431f31a8e5" target="_top" xlink:title=" ">
<polygon fill="white" stroke="#666666" points="247,-174 136,-174 136,-144 247,-144 247,-174"/>
<text text-anchor="start" x="144" y="-162" font-family="Helvetica,sans-Serif" font-size="10.00">unilink::diagnostics</text>
<text text-anchor="middle" x="191.5" y="-151" font-family="Helvetica,sans-Serif" font-size="10.00">::Logger::debug</text>
</a>
</g>
</g>
<!-- Node1&#45;&gt;Node3 -->
<g id="edge2_Node000001_Node000003" class="edge">
<title>Node1&#45;&gt;Node3</title>
<g id="a_edge2_Node000001_Node000003"><a xlink:title=" ">
<path fill="none" stroke="#63b8ff" d="M282.5,-129.21C267.75,-134.09 251.98,-139.31 237.82,-144"/>
<polygon fill="#63b8ff" stroke="#63b8ff" points="283.63,-132.52 292.02,-126.06 281.43,-125.88 283.63,-132.52"/>
</a>
</g>
</g>
<!-- Node4 -->
<g id="Node000004" class="node">
<title>Node4</title>
<g id="a_Node000004"><a xlink:href="classunilink_1_1diagnostics_1_1Logger.html#a7f7c78e7d5cda5129036b660fd9f1f46" target="_top" xlink:title=" ">
<polygon fill="white" stroke="#666666" points="247,-126 136,-126 136,-96 247,-96 247,-126"/>
<text text-anchor="start" x="144" y="-114" font-family="Helvetica,sans-Serif" font-size="10.00">unilink::diagnostics</text>
<text text-anchor="middle" x="191.5" y="-103" font-family="Helvetica,sans-Serif" font-size="10.00">::Logger::error</text>
</a>
</g>
</g>
<!-- Node1&#45;&gt;Node4 -->
<g id="edge3_Node000001_Node000004" class="edge">
<title>Node1&#45;&gt;Node4</title>
<g id="a_edge3_Node000001_Node000004"><a xlink:title=" ">
<path fill="none" stroke="#63b8ff" d="M272.54,-111C264.14,-111 255.61,-111 247.4,-111"/>
<polygon fill="#63b8ff" stroke="#63b8ff" points="272.68,-114.5 282.68,-111 272.68,-107.5 272.68,-114.5"/>
</a>
</g>
</g>
<!-- Node5 -->
<g id="Node000005" class="node">
<title>Node5</title>
<g id="a_Node000005"><a xlink:href="classunilink_1_1diagnostics_1_1Logger.html#a7ba92315a3aca3940aa2bf1f4aa7277e" target="_top" xlink:title=" ">
<polygon fill="white" stroke="#666666" points="247,-78 136,-78 136,-48 247,-48 247,-78"/>
<text text-anchor="start" x="144" y="-66" font-family="Helvetica,sans-Serif" font-size="10.00">unilink::diagnostics</text>
<text text-anchor="middle" x="191.5" y="-55" font-family="Helvetica,sans-Serif" font-size="10.00">::Logger::info</text>
</a>
</g>
</g>
<!-- Node1&#45;&gt;Node5 -->
<g id="edge4_Node000001_Node000005" class="edge">
<title>Node1&#45;&gt;Node5</title>
<g id="a_edge4_Node000001_Node000005"><a xlink:title=" ">
<path fill="none" stroke="#63b8ff" d="M282.5,-92.79C267.75,-87.91 251.98,-82.69 237.82,-78"/>
<polygon fill="#63b8ff" stroke="#63b8ff" points="281.43,-96.12 292.02,-95.94 283.63,-89.48 281.43,-96.12"/>
</a>
</g>
</g>
<!-- Node7 -->
<g id="Node000007" class="node">
<title>Node7</title>
<g id="a_Node000007"><a xlink:href="classunilink_1_1diagnostics_1_1Logger.html#ad60664c997885ffc6326d8c299189116" target="_top" xlink:title=" ">
<polygon fill="white" stroke="#666666" points="247,-30 136,-30 136,0 247,0 247,-30"/>
<text text-anchor="start" x="144" y="-18" font-family="Helvetica,sans-Serif" font-size="10.00">unilink::diagnostics</text>
<text text-anchor="middle" x="191.5" y="-7" font-family="Helvetica,sans-Serif" font-size="10.00">::Logger::warning</text>
</a>
</g>
</g>
<!-- Node1&#45;&gt;Node7 -->
<g id="edge6_Node000001_Node000007" class="edge">
<title>Node1&#45;&gt;Node7</title>
<g id="a_edge6_Node000001_Node000007"><a xlink:title=" ">
<path fill="none" stroke="#63b8ff" d="M313.6,-89.16C296.04,-73.84 271.14,-53.58 247,-39 241.69,-35.79 235.88,-32.77 230.08,-30.02"/>
<polygon fill="#63b8ff" stroke="#63b8ff" points="311.31,-91.81 321.12,-95.81 315.94,-86.56 311.31,-91.81"/>
</a>
</g>
</g>
<!-- Node6 -->
<g id="Node000006" class="node">
<title>Node6</title>
<g id="a_Node000006"><a xlink:href="namespaceunilink_1_1base.html#a07399b407f151a0fb40ac854476a40c5" target="_top" xlink:title=" ">
<polygon fill="white" stroke="#666666" points="100,-78 0,-78 0,-48 100,-48 100,-78"/>
<text text-anchor="start" x="8" y="-66" font-family="Helvetica,sans-Serif" font-size="10.00">unilink::base::log</text>
<text text-anchor="middle" x="50" y="-55" font-family="Helvetica,sans-Serif" font-size="10.00">_message</text>
</a>
</g>
</g>
<!-- Node5&#45;&gt;Node6 -->
<g id="edge5_Node000005_Node000006" class="edge">
<title>Node5&#45;&gt;Node6</title>
<g id="a_edge5_Node000005_Node000006"><a xlink:title=" ">
<path fill="none" stroke="#63b8ff" d="M125.74,-63C117.13,-63 108.42,-63 100.13,-63"/>
<polygon fill="#63b8ff" stroke="#63b8ff" points="125.77,-66.5 135.77,-63 125.77,-59.5 125.77,-66.5"/>
</a>
</g>
</g>
</g>
</svg>
