<?xml version="1.0" encoding="UTF-8" standalone="no"?>
<!DOCTYPE svg PUBLIC "-//W3C//DTD SVG 1.1//EN"
 "http://www.w3.org/Graphics/SVG/1.1/DTD/svg11.dtd">
<!-- Generated by graphviz version 2.43.0 (0)
 -->
<!-- Title: unilink::transport::TcpClient::async_write_copy Pages: 1 -->
<svg width="376pt" height="411pt"
 viewBox="0.00 0.00 376.00 411.00" xmlns="http://www.w3.org/2000/svg" xmlns:xlink="http://www.w3.org/1999/xlink">
<g id="graph0" class="graph" transform="scale(1 1) rotate(0) translate(4 407)">
<title>unilink::transport::TcpClient::async_write_copy</title>
<polygon fill="white" stroke="transparent" points="-4,4 -4,-407 372,-407 372,4 -4,4"/>
<!-- Node1 -->
<g id="node1" class="node">
<title>Node1</title>
<g id="a_node1"><a xlink:title=" ">
<polygon fill="#bfbfbf" stroke="black" points="0,-186.5 0,-216.5 160,-216.5 160,-186.5 0,-186.5"/>
<text text-anchor="start" x="8" y="-204.5" font-family="Helvetica,sans-Serif" font-size="10.00">unilink::transport</text>
<text text-anchor="middle" x="80" y="-193.5" font-family="Helvetica,sans-Serif" font-size="10.00">::TcpClient::async_write_copy</text>
</a>
</g>
</g>
<!-- Node2 -->
<g id="node2" class="node">
<title>Node2</title>
<g id="a_node2"><a xlink:href="classunilink_1_1memory_1_1SafeSpan.html#a3d1f1b920d4769b25c5bf8a058d203dd" target="_top" xlink:title=" ">
<polygon fill="white" stroke="black" points="208,-372.5 208,-402.5 356,-402.5 356,-372.5 208,-372.5"/>
<text text-anchor="start" x="216" y="-390.5" font-family="Helvetica,sans-Serif" font-size="10.00">unilink::memory::SafeSpan</text>
<text text-anchor="middle" x="282" y="-379.5" font-family="Helvetica,sans-Serif" font-size="10.00">::begin</text>
</a>
</g>
</g>
<!-- Node1&#45;&gt;Node2 -->
<g id="edge1" class="edge">
<title>Node1&#45;&gt;Node2</title>
<path fill="none" stroke="midnightblue" d="M87.44,-216.62C101.92,-248.75 140.19,-324.14 196,-363.5 198.14,-365.01 200.37,-366.42 202.67,-367.75"/>
<polygon fill="midnightblue" stroke="midnightblue" points="201.35,-371 211.85,-372.43 204.53,-364.77 201.35,-371"/>
</g>
<!-- Node3 -->
<g id="node3" class="node">
<title>Node3</title>
<g id="a_node3"><a xlink:href="classunilink_1_1memory_1_1PooledBuffer.html#a7aa1378391f5ef5a4ddbf6abff971f81" target="_top" xlink:title=" ">
<polygon fill="white" stroke="black" points="200,-323.5 200,-353.5 364,-353.5 364,-323.5 200,-323.5"/>
<text text-anchor="start" x="208" y="-341.5" font-family="Helvetica,sans-Serif" font-size="10.00">unilink::memory::PooledBuffer</text>
<text text-anchor="middle" x="282" y="-330.5" font-family="Helvetica,sans-Serif" font-size="10.00">::data</text>
</a>
</g>
</g>
<!-- Node1&#45;&gt;Node3 -->
<g id="edge2" class="edge">
<title>Node1&#45;&gt;Node3</title>
<path fill="none" stroke="midnightblue" d="M92.3,-216.76C111.1,-241.07 151.21,-288.51 196,-314.5 199.01,-316.25 202.15,-317.87 205.38,-319.38"/>
<polygon fill="midnightblue" stroke="midnightblue" points="204.1,-322.64 214.67,-323.35 206.85,-316.21 204.1,-322.64"/>
</g>
<!-- Node4 -->
<g id="node4" class="node">
<title>Node4</title>
<g id="a_node4"><a xlink:href="classunilink_1_1memory_1_1SafeSpan.html#a203851d86025e579f73f04da0828e2bd" target="_top" xlink:title=" ">
<polygon fill="white" stroke="black" points="208,-274.5 208,-304.5 356,-304.5 356,-274.5 208,-274.5"/>
<text text-anchor="start" x="216" y="-292.5" font-family="Helvetica,sans-Serif" font-size="10.00">unilink::memory::SafeSpan</text>
<text text-anchor="middle" x="282" y="-281.5" font-family="Helvetica,sans-Serif" font-size="10.00">::data</text>
</a>
</g>
</g>
<!-- Node1&#45;&gt;Node4 -->
<g id="edge3" class="edge">
<title>Node1&#45;&gt;Node4</title>
<path fill="none" stroke="midnightblue" d="M104.92,-216.59C127.67,-230.46 163.2,-250.88 196,-264.5 201.78,-266.9 207.87,-269.17 214.02,-271.29"/>
<polygon fill="midnightblue" stroke="midnightblue" points="213.12,-274.68 223.72,-274.49 215.32,-268.03 213.12,-274.68"/>
</g>
<!-- Node5 -->
<g id="node5" class="node">
<title>Node5</title>
<g id="a_node5"><a xlink:href="classunilink_1_1memory_1_1SafeSpan.html#a569f565034ab74fd20549f16af9d220c" target="_top" xlink:title=" ">
<polygon fill="white" stroke="black" points="196,-236 196,-255 368,-255 368,-236 196,-236"/>
<text text-anchor="middle" x="282" y="-243" font-family="Helvetica,sans-Serif" font-size="10.00">unilink::memory::SafeSpan::end</text>
</a>
</g>
</g>
<!-- Node1&#45;&gt;Node5 -->
<g id="edge4" class="edge">
<title>Node1&#45;&gt;Node5</title>
<path fill="none" stroke="midnightblue" d="M149.27,-216.52C174.91,-222.16 203.67,-228.49 227.75,-233.78"/>
<polygon fill="midnightblue" stroke="midnightblue" points="227.24,-237.26 237.76,-235.99 228.75,-230.42 227.24,-237.26"/>
</g>
<!-- Node6 -->
<g id="node6" class="node">
<title>Node6</title>
<g id="a_node6"><a xlink:href="namespaceunilink_1_1base_1_1safe__memory.html#a4d7e2bd9069bd2febb47c18298fe5e0d" target="_top" xlink:title="Safely copy memory with bounds checking.">
<polygon fill="white" stroke="black" points="213.5,-186.5 213.5,-216.5 350.5,-216.5 350.5,-186.5 213.5,-186.5"/>
<text text-anchor="start" x="221.5" y="-204.5" font-family="Helvetica,sans-Serif" font-size="10.00">unilink::base::safe</text>
<text text-anchor="middle" x="282" y="-193.5" font-family="Helvetica,sans-Serif" font-size="10.00">_memory::safe_memcpy</text>
</a>
</g>
</g>
<!-- Node1&#45;&gt;Node6 -->
<g id="edge5" class="edge">
<title>Node1&#45;&gt;Node6</title>
<path fill="none" stroke="midnightblue" d="M160.05,-201.5C174.19,-201.5 188.92,-201.5 203.04,-201.5"/>
<polygon fill="midnightblue" stroke="midnightblue" points="203.19,-205 213.19,-201.5 203.19,-198 203.19,-205"/>
</g>
<!-- Node7 -->
<g id="node7" class="node">
<title>Node7</title>
<g id="a_node7"><a xlink:href="classunilink_1_1memory_1_1PooledBuffer.html#a43bc690449f5a7035fbc6e4a7b797609" target="_top" xlink:title=" ">
<polygon fill="white" stroke="black" points="200,-137.5 200,-167.5 364,-167.5 364,-137.5 200,-137.5"/>
<text text-anchor="start" x="208" y="-155.5" font-family="Helvetica,sans-Serif" font-size="10.00">unilink::memory::PooledBuffer</text>
<text text-anchor="middle" x="282" y="-144.5" font-family="Helvetica,sans-Serif" font-size="10.00">::size</text>
</a>
</g>
</g>
<!-- Node1&#45;&gt;Node7 -->
<g id="edge6" class="edge">
<title>Node1&#45;&gt;Node7</title>
<path fill="none" stroke="midnightblue" d="M142.37,-186.47C163.67,-181.24 187.75,-175.35 209.79,-169.95"/>
<polygon fill="midnightblue" stroke="midnightblue" points="210.87,-173.29 219.75,-167.51 209.2,-166.49 210.87,-173.29"/>
</g>
<!-- Node8 -->
<g id="node8" class="node">
<title>Node8</title>
<g id="a_node8"><a xlink:href="classunilink_1_1memory_1_1SafeSpan.html#a0e63f52083142fa895b98ea38f51dc73" target="_top" xlink:title=" ">
<polygon fill="white" stroke="black" points="208,-88.5 208,-118.5 356,-118.5 356,-88.5 208,-88.5"/>
<text text-anchor="start" x="216" y="-106.5" font-family="Helvetica,sans-Serif" font-size="10.00">unilink::memory::SafeSpan</text>
<text text-anchor="middle" x="282" y="-95.5" font-family="Helvetica,sans-Serif" font-size="10.00">::size</text>
</a>
</g>
</g>
<!-- Node1&#45;&gt;Node8 -->
<g id="edge7" class="edge">
<title>Node1&#45;&gt;Node8</title>
<path fill="none" stroke="midnightblue" d="M100.79,-186.5C122.96,-170.28 160.47,-144.62 196,-128.5 201.08,-126.2 206.42,-124.04 211.86,-122.05"/>
<polygon fill="midnightblue" stroke="midnightblue" points="213.4,-125.21 221.69,-118.62 211.1,-118.6 213.4,-125.21"/>
</g>
<!-- Node9 -->
<g id="node9" class="node">
<title>Node9</title>
<g id="a_node9"><a xlink:href="namespaceunilink.html#a945182ee4d2e3137a6c39f60501f5355" target="_top" xlink:title="Convert ErrorCode to human&#45;readable string.">
<polygon fill="white" stroke="black" points="233,-50 233,-69 331,-69 331,-50 233,-50"/>
<text text-anchor="middle" x="282" y="-57" font-family="Helvetica,sans-Serif" font-size="10.00">unilink::to_string</text>
</a>
</g>
</g>
<!-- Node1&#45;&gt;Node9 -->
<g id="edge8" class="edge">
<title>Node1&#45;&gt;Node9</title>
<path fill="none" stroke="midnightblue" d="M90.71,-186.45C108.37,-160.38 148.34,-106.98 196,-79.5 204.29,-74.72 213.65,-71.09 223.06,-68.32"/>
<polygon fill="midnightblue" stroke="midnightblue" points="224.06,-71.67 232.83,-65.73 222.27,-64.9 224.06,-71.67"/>
</g>
<!-- Node10 -->
<g id="node10" class="node">
<title>Node10</title>
<g id="a_node10"><a xlink:href="classunilink_1_1memory_1_1PooledBuffer.html#abf8fb1fa73f66373f96a9eb2821d6cbf" target="_top" xlink:title=" ">
<polygon fill="white" stroke="black" points="200,-0.5 200,-30.5 364,-30.5 364,-0.5 200,-0.5"/>
<text text-anchor="start" x="208" y="-18.5" font-family="Helvetica,sans-Serif" font-size="10.00">unilink::memory::PooledBuffer</text>
<text text-anchor="middle" x="282" y="-7.5" font-family="Helvetica,sans-Serif" font-size="10.00">::valid</text>
</a>
</g>
</g>
<!-- Node1&#45;&gt;Node10 -->
<g id="edge9" class="edge">
<title>Node1&#45;&gt;Node10</title>
<path fill="none" stroke="midnightblue" d="M87.72,-186.04C102.48,-153.92 140.86,-79.72 196,-40.5 198.69,-38.58 201.54,-36.81 204.48,-35.18"/>
<polygon fill="midnightblue" stroke="midnightblue" points="206.18,-38.24 213.58,-30.66 203.07,-31.97 206.18,-38.24"/>
</g>
</g>
</svg>
