<?xml version="1.0" encoding="UTF-8" standalone="no"?>
<!DOCTYPE svg PUBLIC "-//W3C//DTD SVG 1.1//EN"
 "http://www.w3.org/Graphics/SVG/1.1/DTD/svg11.dtd">
<!-- Generated by graphviz version 2.43.0 (0)
 -->
<!-- Title: unilink::diagnostics::Logger::debug Pages: 1 -->
<!--zoomable 299 -->

<svg id="main" version="1.1" xmlns="http://www.w3.org/2000/svg" xmlns:xlink="http://www.w3.org/1999/xlink" xml:space="preserve" onload="init(evt)">
<style type="text/css"><![CDATA[
.node, .edge {opacity: 0.7;}
.node.selected, .edge.selected {opacity: 1;}
.edge:hover path { stroke: red; }
.edge:hover polygon { stroke: red; fill: red; }
]]></style>

<defs>
  <circle id="rim" cx="0" cy="0" r="7"/>
  <circle id="rim2" cx="0" cy="0" r="3.5"/>
  <g id="zoomPlus">
    <use xlink:href="#rim" fill="#404040"><set attributeName="fill" to="#808080" begin="zoomplus.mouseover" end="zoomplus.mouseout"/></use>
    <path d="M-4,0h8M0,-4v8" fill="none" stroke="white" stroke-width="1.5" pointer-events="none"/>
  </g>
  <g id="zoomMin">
    <use xlink:href="#rim" fill="#404040"><set attributeName="fill" to="#808080" begin="zoomminus.mouseover" end="zoomminus.mouseout"/></use>
    <path d="M-4,0h8" fill="none" stroke="white" stroke-width="1.5" pointer-events="none"/>
  </g>
  <g id="arrowUp" transform="translate(30 24)">
    <use xlink:href="#rim"/>
    <path pointer-events="none" fill="none" stroke="white" stroke-width="1.5" d="M0,-3.0v7 M-2.5,-0.5L0,-3.0L2.5,-0.5"/>
  </g>
  <g id="arrowRight" transform="rotate(90) translate(36 -43)">
    <use xlink:href="#rim"/>
    <path pointer-events="none" fill="none" stroke="white" stroke-width="1.5" d="M0,-3.0v7 M-2.5,-0.5L0,-3.0L2.5,-0.5"/>
  </g>
  <g id="arrowDown" transform="rotate(180) translate(-30 -48)">
    <use xlink:href="#rim"/>
    <path pointer-events="none" fill="none" stroke="white" stroke-width="1.5" d="M0,-3.0v7 M-2.5,-0.5L0,-3.0L2.5,-0.5"/>
  </g>
  <g id="arrowLeft" transform="rotate(270) translate(-36 17)">
    <use xlink:href="#rim"/>
    <path pointer-events="none" fill="none" stroke="white" stroke-width="1.5" d="M0,-3.0v7 M-2.5,-0.5L0,-3.0L2.5,-0.5"/>
  </g>
  <g id="resetDef">
    <use xlink:href="#rim2" fill="#404040"><set attributeName="fill" to="#808080" begin="reset.mouseover" end="reset.mouseout"/></use>
  </g>
</defs>
<script type="application/ecmascript">
var viewWidth = 819;
var viewHeight = 299;
var sectionId = 'dynsection-2';
</script>
<script type="application/ecmascript" xlink:href="svg.min.js"/>
<svg id="graph" class="graph">
<g id="viewport">
<title>unilink::diagnostics::Logger::debug</title>
<!-- Node1 -->
<g id="Node000001" class="node">
<title>Node1</title>
<g id="a_Node000001"><a xlink:title=" ">
<polygon fill="#999999" stroke="#666666" points="111,-99 0,-99 0,-69 111,-69 111,-99"/>
<text text-anchor="start" x="8" y="-87" font-family="Helvetica,sans-Serif" font-size="10.00">unilink::diagnostics</text>
<text text-anchor="middle" x="55.5" y="-76" font-family="Helvetica,sans-Serif" font-size="10.00">::Logger::debug</text>
</a>
</g>
</g>
<!-- Node2 -->
<g id="Node000002" class="node">
<title>Node2</title>
<g id="a_Node000002"><a xlink:href="classunilink_1_1diagnostics_1_1Logger.html#aadd090ffcd9a4854e599a4c3225f1db5" target="_top" xlink:title=" ">
<polygon fill="white" stroke="#666666" points="258,-99 147,-99 147,-69 258,-69 258,-99"/>
<text text-anchor="start" x="155" y="-87" font-family="Helvetica,sans-Serif" font-size="10.00">unilink::diagnostics</text>
<text text-anchor="middle" x="202.5" y="-76" font-family="Helvetica,sans-Serif" font-size="10.00">::Logger::log</text>
</a>
</g>
</g>
<!-- Node1&#45;&gt;Node2 -->
<g id="edge1_Node000001_Node000002" class="edge">
<title>Node1&#45;&gt;Node2</title>
<g id="a_edge1_Node000001_Node000002"><a xlink:title=" ">
<path fill="none" stroke="#63b8ff" d="M111.32,-84C119.53,-84 128.06,-84 136.46,-84"/>
<polygon fill="#63b8ff" stroke="#63b8ff" points="136.6,-87.5 146.6,-84 136.6,-80.5 136.6,-87.5"/>
</a>
</g>
</g>
<!-- Node3 -->
<g id="Node000003" class="node">
<title>Node3</title>
<g id="a_Node000003"><a xlink:href="structunilink_1_1diagnostics_1_1Logger_1_1Impl.html#a107a1dc34c1de0713fe074bca61309be" target="_top" xlink:title=" ">
<polygon fill="white" stroke="#666666" points="438,-217.5 316,-217.5 316,-176.5 438,-176.5 438,-217.5"/>
<text text-anchor="start" x="324" y="-205.5" font-family="Helvetica,sans-Serif" font-size="10.00">unilink::diagnostics</text>
<text text-anchor="start" x="324" y="-194.5" font-family="Helvetica,sans-Serif" font-size="10.00">::Logger::Impl::format</text>
<text text-anchor="middle" x="377" y="-183.5" font-family="Helvetica,sans-Serif" font-size="10.00">_message</text>
</a>
</g>
</g>
<!-- Node2&#45;&gt;Node3 -->
<g id="edge2_Node000002_Node000003" class="edge">
<title>Node2&#45;&gt;Node3</title>
<g id="a_edge2_Node000002_Node000003"><a xlink:title=" ">
<path fill="none" stroke="#63b8ff" d="M226.41,-99.01C254.25,-117.25 301.73,-148.35 335.74,-170.62"/>
<polygon fill="#63b8ff" stroke="#63b8ff" points="334.22,-173.82 344.51,-176.37 338.06,-167.96 334.22,-173.82"/>
</a>
</g>
</g>
<!-- Node4 -->
<g id="Node000004" class="node">
<title>Node4</title>
<g id="a_Node000004"><a xlink:href="classunilink_1_1diagnostics_1_1Logger.html#a4a88b05c250af04b01f2a3d94473d0e3" target="_top" xlink:title="Get current log level.">
<polygon fill="white" stroke="#666666" points="811,-121 700,-121 700,-91 811,-91 811,-121"/>
<text text-anchor="start" x="708" y="-109" font-family="Helvetica,sans-Serif" font-size="10.00">unilink::diagnostics</text>
<text text-anchor="middle" x="755.5" y="-98" font-family="Helvetica,sans-Serif" font-size="10.00">::Logger::level</text>
</a>
</g>
</g>
<!-- Node2&#45;&gt;Node4 -->
<g id="edge8_Node000002_Node000004" class="edge">
<title>Node2&#45;&gt;Node4</title>
<g id="a_edge8_Node000002_Node000004"><a xlink:title=" ">
<path fill="none" stroke="#63b8ff" d="M258.09,-86.18C360.28,-90.26 579.97,-99.03 689.56,-103.41"/>
<polygon fill="#63b8ff" stroke="#63b8ff" points="689.68,-106.91 699.81,-103.82 689.96,-99.92 689.68,-106.91"/>
</a>
</g>
</g>
<!-- Node8 -->
<g id="Node000008" class="node">
<title>Node8</title>
<g id="a_Node000008"><a xlink:href="classunilink_1_1diagnostics_1_1Logger.html#a433d2b9b2e5e0ddea0e154b1c1c11381" target="_top" xlink:title="Check whether a message at the given level would be logged.">
<polygon fill="white" stroke="#666666" points="434,-78 320,-78 320,-48 434,-48 434,-78"/>
<text text-anchor="start" x="328" y="-66" font-family="Helvetica,sans-Serif" font-size="10.00">unilink::diagnostics</text>
<text text-anchor="middle" x="377" y="-55" font-family="Helvetica,sans-Serif" font-size="10.00">::Logger::should_log</text>
</a>
</g>
</g>
<!-- Node2&#45;&gt;Node8 -->
<g id="edge9_Node000002_Node000008" class="edge">
<title>Node2&#45;&gt;Node8</title>
<g id="a_edge9_Node000002_Node000008"><a xlink:title=" ">
<path fill="none" stroke="#63b8ff" d="M258.08,-77.36C274.58,-75.35 292.88,-73.12 310.04,-71.03"/>
<polygon fill="#63b8ff" stroke="#63b8ff" points="310.49,-74.5 319.99,-69.82 309.64,-67.55 310.49,-74.5"/>
</a>
</g>
</g>
<!-- Node9 -->
<g id="Node000009" class="node">
<title>Node9</title>
<g id="a_Node000009"><a xlink:href="structunilink_1_1diagnostics_1_1Logger_1_1Impl.html#a9be6d32b91caf51b6ed1e6c7ccaec4b8" target="_top" xlink:title=" ">
<polygon fill="white" stroke="#666666" points="460,-30 294,-30 294,0 460,0 460,-30"/>
<text text-anchor="start" x="302" y="-18" font-family="Helvetica,sans-Serif" font-size="10.00">unilink::diagnostics</text>
<text text-anchor="middle" x="377" y="-7" font-family="Helvetica,sans-Serif" font-size="10.00">::Logger::Impl::to_spdlog_level</text>
</a>
</g>
</g>
<!-- Node2&#45;&gt;Node9 -->
<g id="edge11_Node000002_Node000009" class="edge">
<title>Node2&#45;&gt;Node9</title>
<g id="a_edge11_Node000002_Node000009"><a xlink:title=" ">
<path fill="none" stroke="#63b8ff" d="M230.65,-68.92C248.34,-59.5 272.1,-47.57 294,-39 299.09,-37.01 304.42,-35.09 309.81,-33.27"/>
<polygon fill="#63b8ff" stroke="#63b8ff" points="311.11,-36.52 319.54,-30.1 308.94,-29.87 311.11,-36.52"/>
</a>
</g>
</g>
<!-- Node3&#45;&gt;Node4 -->
<g id="edge3_Node000003_Node000004" class="edge">
<title>Node3&#45;&gt;Node4</title>
<g id="a_edge3_Node000003_Node000004"><a xlink:title=" ">
<path fill="none" stroke="#63b8ff" d="M402.77,-217.76C425.41,-235.29 460.65,-259.07 496,-269 567.88,-289.2 599.65,-306.87 664,-269 714.99,-238.99 739.31,-168.72 749.04,-130.99"/>
<polygon fill="#63b8ff" stroke="#63b8ff" points="752.44,-131.82 751.41,-121.27 745.64,-130.16 752.44,-131.82"/>
</a>
</g>
</g>
<!-- Node5 -->
<g id="Node000005" class="node">
<title>Node5</title>
<g id="a_Node000005"><a xlink:href="structunilink_1_1diagnostics_1_1Logger_1_1Impl.html#ad748273934d4bba53f59132c071dec4c" target="_top" xlink:title=" ">
<polygon fill="white" stroke="#666666" points="653,-260 507,-260 507,-230 653,-230 653,-260"/>
<text text-anchor="start" x="515" y="-248" font-family="Helvetica,sans-Serif" font-size="10.00">unilink::diagnostics</text>
<text text-anchor="middle" x="580" y="-237" font-family="Helvetica,sans-Serif" font-size="10.00">::Logger::Impl::level_name</text>
</a>
</g>
</g>
<!-- Node3&#45;&gt;Node5 -->
<g id="edge4_Node000003_Node000005" class="edge">
<title>Node3&#45;&gt;Node5</title>
<g id="a_edge4_Node000003_Node000005"><a xlink:title=" ">
<path fill="none" stroke="#63b8ff" d="M438.03,-211.34C459.5,-216.46 483.92,-222.29 506.33,-227.65"/>
<polygon fill="#63b8ff" stroke="#63b8ff" points="505.6,-231.07 516.14,-229.99 507.22,-224.26 505.6,-231.07"/>
</a>
</g>
</g>
<!-- Node6 -->
<g id="Node000006" class="node">
<title>Node6</title>
<g id="a_Node000006"><a xlink:href="structunilink_1_1diagnostics_1_1Logger_1_1Impl.html#a34b4e36f3efd7d9e89dd68bc7a380353" target="_top" xlink:title=" ">
<polygon fill="white" stroke="#666666" points="651.5,-212 508.5,-212 508.5,-182 651.5,-182 651.5,-212"/>
<text text-anchor="start" x="516.5" y="-200" font-family="Helvetica,sans-Serif" font-size="10.00">unilink::diagnostics</text>
<text text-anchor="middle" x="580" y="-189" font-family="Helvetica,sans-Serif" font-size="10.00">::Logger::Impl::replace_all</text>
</a>
</g>
</g>
<!-- Node3&#45;&gt;Node6 -->
<g id="edge6_Node000003_Node000006" class="edge">
<title>Node3&#45;&gt;Node6</title>
<g id="a_edge6_Node000003_Node000006"><a xlink:title=" ">
<path fill="none" stroke="#63b8ff" d="M438.03,-197C456.94,-197 478.13,-197 498.23,-197"/>
<polygon fill="#63b8ff" stroke="#63b8ff" points="498.3,-200.5 508.3,-197 498.3,-193.5 498.3,-200.5"/>
</a>
</g>
</g>
<!-- Node7 -->
<g id="Node000007" class="node">
<title>Node7</title>
<g id="a_Node000007"><a xlink:href="structunilink_1_1diagnostics_1_1Logger_1_1Impl.html#a4191b6fc2eecdcd2abb16659ecaaf03d" target="_top" xlink:title=" ">
<polygon fill="white" stroke="#666666" points="664,-164 496,-164 496,-134 664,-134 664,-164"/>
<text text-anchor="start" x="504" y="-152" font-family="Helvetica,sans-Serif" font-size="10.00">unilink::diagnostics</text>
<text text-anchor="middle" x="580" y="-141" font-family="Helvetica,sans-Serif" font-size="10.00">::Logger::Impl::timestamp_now</text>
</a>
</g>
</g>
<!-- Node3&#45;&gt;Node7 -->
<g id="edge7_Node000003_Node000007" class="edge">
<title>Node3&#45;&gt;Node7</title>
<g id="a_edge7_Node000003_Node000007"><a xlink:title=" ">
<path fill="none" stroke="#63b8ff" d="M438.03,-182.66C459.5,-177.54 483.92,-171.71 506.33,-166.35"/>
<polygon fill="#63b8ff" stroke="#63b8ff" points="507.22,-169.74 516.14,-164.01 505.6,-162.93 507.22,-169.74"/>
</a>
</g>
</g>
<!-- Node5&#45;&gt;Node4 -->
<g id="edge5_Node000005_Node000004" class="edge">
<title>Node5&#45;&gt;Node4</title>
<g id="a_edge5_Node000005_Node000004"><a xlink:title=" ">
<path fill="none" stroke="#63b8ff" d="M647.5,-229.92C653.3,-227.39 658.9,-224.44 664,-221 698.91,-197.49 726.53,-156.25 741.68,-130.07"/>
<polygon fill="#63b8ff" stroke="#63b8ff" points="744.84,-131.6 746.69,-121.17 738.74,-128.17 744.84,-131.6"/>
</a>
</g>
</g>
<!-- Node8&#45;&gt;Node4 -->
<g id="edge10_Node000008_Node000004" class="edge">
<title>Node8&#45;&gt;Node4</title>
<g id="a_edge10_Node000008_Node000004"><a xlink:title=" ">
<path fill="none" stroke="#63b8ff" d="M434.27,-67.83C492.01,-72.99 584.42,-81.82 664,-92 672.27,-93.06 680.96,-94.27 689.54,-95.53"/>
<polygon fill="#63b8ff" stroke="#63b8ff" points="689.12,-99.01 699.53,-97.02 690.16,-92.08 689.12,-99.01"/>
</a>
</g>
</g>
<!-- Node9&#45;&gt;Node4 -->
<g id="edge12_Node000009_Node000004" class="edge">
<title>Node9&#45;&gt;Node4</title>
<g id="a_edge12_Node000009_Node000004"><a xlink:title=" ">
<path fill="none" stroke="#63b8ff" d="M460.03,-26.56C517.74,-35.71 596.42,-50.25 664,-70 679.84,-74.63 696.76,-80.96 711.63,-87.03"/>
<polygon fill="#63b8ff" stroke="#63b8ff" points="710.5,-90.35 721.08,-90.95 713.19,-83.88 710.5,-90.35"/>
</a>
</g>
</g>
</g>
</svg>

<g id="navigator" transform="translate(0 0)" fill="#404254">
  <rect fill="#f2f5e9" fill-opacity="0.5" stroke="#606060" stroke-width=".5" x="0" y="0" width="60" height="60"/>
  <use id="zoomplus" xlink:href="#zoomPlus" x="17" y="9" onmousedown="handleZoom(evt,'in')"/>
  <use id="zoomminus" xlink:href="#zoomMin" x="42" y="9" onmousedown="handleZoom(evt,'out')"/>
  <use id="reset" xlink:href="#resetDef" x="30" y="36" onmousedown="handleReset()"/>
   <use id="arrowup" xlink:href="#arrowUp" x="0" y="0" onmousedown="handlePan(0,-1)"/>
  <use id="arrowright" xlink:href="#arrowRight" x="0" y="0" onmousedown="handlePan(1,0)"/>
  <use id="arrowdown" xlink:href="#arrowDown" x="0" y="0" onmousedown="handlePan(0,1)"/>
  <use id="arrowleft" xlink:href="#arrowLeft" x="0" y="0" onmousedown="handlePan(-1,0)"/>
</g>
<svg viewBox="0 0 15 15" width="100%" height="30px" preserveAspectRatio="xMaxYMin meet">
 <g id="arrow_out" transform="scale(0.3 0.3)">
  <a xlink:href="classunilink_1_1diagnostics_1_1Logger_af2864d7de88840d04b9197e7c228a4a1_cgraph_org.svg" target="_base">
   <rect id="button" ry="5" rx="5" y="6" x="6" height="38" width="38"
        fill="#f2f5e9" fill-opacity="0.5" stroke="#606060" stroke-width="1.0"/>
   <path id="arrow"
     d="M 11.500037,31.436501 C 11.940474,20.09759 22.043105,11.32322 32.158766,21.979434 L 37.068811,17.246167 C 37.068811,17.246167 37.088388,32 37.088388,32 L 22.160133,31.978069 C 22.160133,31.978069 26.997745,27.140456 26.997745,27.140456 C 18.528582,18.264221 13.291696,25.230495 11.500037,31.436501 z"
     style="fill:#404040;"/>
  </a>
 </g>
</svg>

<style type='text/css'>
<![CDATA[
[data-mouse-over-selected='false'] { opacity: 0.7; }
[data-mouse-over-selected='true']  { opacity: 1.0; }
]]>
</style>
<script type="application/ecmascript"><![CDATA[
document.addEventListener('DOMContentLoaded', (event) => {
  highlightEdges();
  highlightAdjacentNodes();
});
]]></script>
</svg>
