<?xml version="1.0" encoding="UTF-8" standalone="no"?>
<!DOCTYPE svg PUBLIC "-//W3C//DTD SVG 1.1//EN"
 "http://www.w3.org/Graphics/SVG/1.1/DTD/svg11.dtd">
<!-- Generated by graphviz version 2.43.0 (0)
 -->
<!-- Title: unilink::memory::MemoryTracker::current_allocations Pages: 1 -->
<svg width="611pt" height="161pt"
 viewBox="0.00 0.00 611.00 161.00" xmlns="http://www.w3.org/2000/svg" xmlns:xlink="http://www.w3.org/1999/xlink">
<g id="graph0" class="graph" transform="scale(1 1) rotate(0) translate(4 157)">
<title>unilink::memory::MemoryTracker::current_allocations</title>
<polygon fill="white" stroke="transparent" points="-4,4 -4,-157 607,-157 607,4 -4,4"/>
<!-- Node1 -->
<g id="node1" class="node">
<title>Node1</title>
<g id="a_node1"><a xlink:title=" ">
<polygon fill="#bfbfbf" stroke="black" points="426,-49.5 426,-79.5 603,-79.5 603,-49.5 426,-49.5"/>
<text text-anchor="start" x="434" y="-67.5" font-family="Helvetica,sans-Serif" font-size="10.00">unilink::memory::MemoryTracker</text>
<text text-anchor="middle" x="514.5" y="-56.5" font-family="Helvetica,sans-Serif" font-size="10.00">::current_allocations</text>
</a>
</g>
</g>
<!-- Node2 -->
<g id="node2" class="node">
<title>Node2</title>
<g id="a_node2"><a xlink:href="classunilink_1_1memory_1_1MemoryTracker.html#a0b1eb2c28064d3cd8137524051f50558" target="_top" xlink:title=" ">
<polygon fill="white" stroke="black" points="213,-98.5 213,-128.5 390,-128.5 390,-98.5 213,-98.5"/>
<text text-anchor="start" x="221" y="-116.5" font-family="Helvetica,sans-Serif" font-size="10.00">unilink::memory::MemoryTracker</text>
<text text-anchor="middle" x="301.5" y="-105.5" font-family="Helvetica,sans-Serif" font-size="10.00">::leaked_allocations</text>
</a>
</g>
</g>
<!-- Node1&#45;&gt;Node2 -->
<g id="edge1" class="edge">
<title>Node1&#45;&gt;Node2</title>
<path fill="none" stroke="midnightblue" d="M438.87,-81.83C415.44,-87.27 389.79,-93.23 367.12,-98.49"/>
<polygon fill="midnightblue" stroke="midnightblue" points="439.81,-85.21 448.76,-79.53 438.23,-78.39 439.81,-85.21"/>
</g>
<!-- Node5 -->
<g id="node5" class="node">
<title>Node5</title>
<g id="a_node5"><a xlink:href="classunilink_1_1memory_1_1MemoryTracker.html#aa5cb25cd440f8159fa0f4803426873dc" target="_top" xlink:title=" ">
<polygon fill="white" stroke="black" points="213,-49.5 213,-79.5 390,-79.5 390,-49.5 213,-49.5"/>
<text text-anchor="start" x="221" y="-67.5" font-family="Helvetica,sans-Serif" font-size="10.00">unilink::memory::MemoryTracker</text>
<text text-anchor="middle" x="301.5" y="-56.5" font-family="Helvetica,sans-Serif" font-size="10.00">::log_memory_report</text>
</a>
</g>
</g>
<!-- Node1&#45;&gt;Node5 -->
<g id="edge4" class="edge">
<title>Node1&#45;&gt;Node5</title>
<path fill="none" stroke="midnightblue" d="M415.58,-64.5C407.12,-64.5 398.59,-64.5 390.22,-64.5"/>
<polygon fill="midnightblue" stroke="midnightblue" points="415.85,-68 425.85,-64.5 415.85,-61 415.85,-68"/>
</g>
<!-- Node6 -->
<g id="node6" class="node">
<title>Node6</title>
<g id="a_node6"><a xlink:href="classunilink_1_1memory_1_1MemoryTracker.html#af5114975b1f6646ff8b39175412da225" target="_top" xlink:title=" ">
<polygon fill="white" stroke="black" points="213,-0.5 213,-30.5 390,-30.5 390,-0.5 213,-0.5"/>
<text text-anchor="start" x="221" y="-18.5" font-family="Helvetica,sans-Serif" font-size="10.00">unilink::memory::MemoryTracker</text>
<text text-anchor="middle" x="301.5" y="-7.5" font-family="Helvetica,sans-Serif" font-size="10.00">::print_memory_report</text>
</a>
</g>
</g>
<!-- Node1&#45;&gt;Node6 -->
<g id="edge5" class="edge">
<title>Node1&#45;&gt;Node6</title>
<path fill="none" stroke="midnightblue" d="M438.87,-47.17C415.44,-41.73 389.79,-35.77 367.12,-30.51"/>
<polygon fill="midnightblue" stroke="midnightblue" points="438.23,-50.61 448.76,-49.47 439.81,-43.79 438.23,-50.61"/>
</g>
<!-- Node3 -->
<g id="node3" class="node">
<title>Node3</title>
<g id="a_node3"><a xlink:href="classunilink_1_1memory_1_1MemoryTracker.html#ac8c9ec29a911ba2e25083ffb1461bc75" target="_top" xlink:title=" ">
<polygon fill="white" stroke="black" points="0,-122.5 0,-152.5 177,-152.5 177,-122.5 0,-122.5"/>
<text text-anchor="start" x="8" y="-140.5" font-family="Helvetica,sans-Serif" font-size="10.00">unilink::memory::MemoryTracker</text>
<text text-anchor="middle" x="88.5" y="-129.5" font-family="Helvetica,sans-Serif" font-size="10.00">::log_leak_report</text>
</a>
</g>
</g>
<!-- Node2&#45;&gt;Node3 -->
<g id="edge2" class="edge">
<title>Node2&#45;&gt;Node3</title>
<path fill="none" stroke="midnightblue" d="M202.86,-124.61C194.3,-125.58 185.68,-126.56 177.22,-127.52"/>
<polygon fill="midnightblue" stroke="midnightblue" points="203.31,-128.08 212.85,-123.47 202.52,-121.12 203.31,-128.08"/>
</g>
<!-- Node4 -->
<g id="node4" class="node">
<title>Node4</title>
<g id="a_node4"><a xlink:href="classunilink_1_1memory_1_1MemoryTracker.html#ab489a4fb54421b0f174511c696455386" target="_top" xlink:title=" ">
<polygon fill="white" stroke="black" points="0,-73.5 0,-103.5 177,-103.5 177,-73.5 0,-73.5"/>
<text text-anchor="start" x="8" y="-91.5" font-family="Helvetica,sans-Serif" font-size="10.00">unilink::memory::MemoryTracker</text>
<text text-anchor="middle" x="88.5" y="-80.5" font-family="Helvetica,sans-Serif" font-size="10.00">::print_leak_report</text>
</a>
</g>
</g>
<!-- Node2&#45;&gt;Node4 -->
<g id="edge3" class="edge">
<title>Node2&#45;&gt;Node4</title>
<path fill="none" stroke="midnightblue" d="M202.86,-101.93C194.3,-100.92 185.68,-99.9 177.22,-98.89"/>
<polygon fill="midnightblue" stroke="midnightblue" points="202.51,-105.41 212.85,-103.11 203.33,-98.46 202.51,-105.41"/>
</g>
</g>
</svg>
