<?xml version="1.0" encoding="UTF-8" standalone="no"?>
<!DOCTYPE svg PUBLIC "-//W3C//DTD SVG 1.1//EN"
 "http://www.w3.org/Graphics/SVG/1.1/DTD/svg11.dtd">
<!-- Generated by graphviz version 2.43.0 (0)
 -->
<!-- Title: unilink::transport::TcpServerSession::async_write_copy Pages: 1 -->
<svg width="329pt" height="316pt"
 viewBox="0.00 0.00 329.00 316.00" xmlns="http://www.w3.org/2000/svg" xmlns:xlink="http://www.w3.org/1999/xlink">

<svg id="main" version="1.1" xmlns="http://www.w3.org/2000/svg" xmlns:xlink="http://www.w3.org/1999/xlink" xml:space="preserve" onload="init(evt)">
<style type="text/css"><![CDATA[
.node, .edge {opacity: 0.7;}
.node.selected, .edge.selected {opacity: 1;}
.edge:hover path { stroke: red; }
.edge:hover polygon { stroke: red; fill: red; }
]]></style>
<script type="application/ecmascript" xlink:href="svg.min.js"/>
<svg id="graph" class="graph">
<g id="graph0" class="graph" transform="scale(1 1) rotate(0) translate(4 312)">
<title>unilink::transport::TcpServerSession::async_write_copy</title>
<!-- Node1 -->
<g id="Node000001" class="node">
<title>Node1</title>
<g id="a_Node000001"><a xlink:title=" ">
<polygon fill="#999999" stroke="#666666" points="113,-174.5 0,-174.5 0,-133.5 113,-133.5 113,-174.5"/>
<text text-anchor="start" x="8" y="-162.5" font-family="Helvetica,sans-Serif" font-size="10.00">unilink::transport</text>
<text text-anchor="start" x="8" y="-151.5" font-family="Helvetica,sans-Serif" font-size="10.00">::TcpServerSession::</text>
<text text-anchor="middle" x="56.5" y="-140.5" font-family="Helvetica,sans-Serif" font-size="10.00">async_write_copy</text>
</a>
</g>
</g>
<!-- Node2 -->
<g id="Node000002" class="node">
<title>Node2</title>
<g id="a_Node000002"><a xlink:href="classunilink_1_1memory_1_1SafeSpan.html#a3d1f1b920d4769b25c5bf8a058d203dd" target="_top" xlink:title=" ">
<polygon fill="white" stroke="#666666" points="309,-308 161,-308 161,-278 309,-278 309,-308"/>
<text text-anchor="start" x="169" y="-296" font-family="Helvetica,sans-Serif" font-size="10.00">unilink::memory::SafeSpan</text>
<text text-anchor="middle" x="235" y="-285" font-family="Helvetica,sans-Serif" font-size="10.00">::begin</text>
</a>
</g>
</g>
<!-- Node1&#45;&gt;Node2 -->
<g id="edge1_Node000001_Node000002" class="edge">
<title>Node1&#45;&gt;Node2</title>
<g id="a_edge1_Node000001_Node000002"><a xlink:title=" ">
<path fill="none" stroke="#63b8ff" d="M68.53,-174.72C83.38,-200.63 112.25,-244.55 149,-269 151.39,-270.59 153.89,-272.08 156.47,-273.47"/>
<polygon fill="#63b8ff" stroke="#63b8ff" points="154.96,-276.63 165.48,-277.83 158.01,-270.33 154.96,-276.63"/>
</a>
</g>
</g>
<!-- Node3 -->
<g id="Node000003" class="node">
<title>Node3</title>
<g id="a_Node000003"><a xlink:href="classunilink_1_1memory_1_1PooledBuffer.html#a7aa1378391f5ef5a4ddbf6abff971f81" target="_top" xlink:title=" ">
<polygon fill="white" stroke="#666666" points="317,-260 153,-260 153,-230 317,-230 317,-260"/>
<text text-anchor="start" x="161" y="-248" font-family="Helvetica,sans-Serif" font-size="10.00">unilink::memory::PooledBuffer</text>
<text text-anchor="middle" x="235" y="-237" font-family="Helvetica,sans-Serif" font-size="10.00">::data</text>
</a>
</g>
</g>
<!-- Node1&#45;&gt;Node3 -->
<g id="edge2_Node000001_Node000003" class="edge">
<title>Node1&#45;&gt;Node3</title>
<g id="a_edge2_Node000001_Node000003"><a xlink:title=" ">
<path fill="none" stroke="#63b8ff" d="M80.82,-174.74C98.47,-189.47 123.87,-208.75 149,-221 152.98,-222.94 157.15,-224.75 161.41,-226.43"/>
<polygon fill="#63b8ff" stroke="#63b8ff" points="160.25,-229.74 170.85,-229.92 162.68,-223.17 160.25,-229.74"/>
</a>
</g>
</g>
<!-- Node4 -->
<g id="Node000004" class="node">
<title>Node4</title>
<g id="a_Node000004"><a xlink:href="classunilink_1_1memory_1_1SafeSpan.html#a203851d86025e579f73f04da0828e2bd" target="_top" xlink:title=" ">
<polygon fill="white" stroke="#666666" points="309,-212 161,-212 161,-182 309,-182 309,-212"/>
<text text-anchor="start" x="169" y="-200" font-family="Helvetica,sans-Serif" font-size="10.00">unilink::memory::SafeSpan</text>
<text text-anchor="middle" x="235" y="-189" font-family="Helvetica,sans-Serif" font-size="10.00">::data</text>
</a>
</g>
</g>
<!-- Node1&#45;&gt;Node4 -->
<g id="edge3_Node000001_Node000004" class="edge">
<title>Node1&#45;&gt;Node4</title>
<g id="a_edge3_Node000001_Node000004"><a xlink:title=" ">
<path fill="none" stroke="#63b8ff" d="M113.35,-167.61C128.9,-171.4 146.02,-175.57 162.35,-179.54"/>
<polygon fill="#63b8ff" stroke="#63b8ff" points="161.85,-183.02 172.39,-181.99 163.51,-176.22 161.85,-183.02"/>
</a>
</g>
</g>
<!-- Node5 -->
<g id="Node000005" class="node">
<title>Node5</title>
<g id="a_Node000005"><a xlink:href="classunilink_1_1memory_1_1SafeSpan.html#a569f565034ab74fd20549f16af9d220c" target="_top" xlink:title=" ">
<polygon fill="white" stroke="#666666" points="321,-163.5 149,-163.5 149,-144.5 321,-144.5 321,-163.5"/>
<text text-anchor="middle" x="235" y="-151.5" font-family="Helvetica,sans-Serif" font-size="10.00">unilink::memory::SafeSpan::end</text>
</a>
</g>
</g>
<!-- Node1&#45;&gt;Node5 -->
<g id="edge4_Node000001_Node000005" class="edge">
<title>Node1&#45;&gt;Node5</title>
<g id="a_edge4_Node000001_Node000005"><a xlink:title=" ">
<path fill="none" stroke="#63b8ff" d="M113.35,-154C121.48,-154 130.03,-154 138.68,-154"/>
<polygon fill="#63b8ff" stroke="#63b8ff" points="138.85,-157.5 148.85,-154 138.85,-150.5 138.85,-157.5"/>
</a>
</g>
</g>
<!-- Node6 -->
<g id="Node000006" class="node">
<title>Node6</title>
<g id="a_Node000006"><a xlink:href="namespaceunilink_1_1base_1_1safe__memory.html#a4d7e2bd9069bd2febb47c18298fe5e0d" target="_top" xlink:title="Safely copy memory with bounds checking.">
<polygon fill="white" stroke="#666666" points="303.5,-126 166.5,-126 166.5,-96 303.5,-96 303.5,-126"/>
<text text-anchor="start" x="174.5" y="-114" font-family="Helvetica,sans-Serif" font-size="10.00">unilink::base::safe</text>
<text text-anchor="middle" x="235" y="-103" font-family="Helvetica,sans-Serif" font-size="10.00">_memory::safe_memcpy</text>
</a>
</g>
</g>
<!-- Node1&#45;&gt;Node6 -->
<g id="edge5_Node000001_Node000006" class="edge">
<title>Node1&#45;&gt;Node6</title>
<g id="a_edge5_Node000001_Node000006"><a xlink:title=" ">
<path fill="none" stroke="#63b8ff" d="M113.35,-140.39C128.9,-136.6 146.02,-132.43 162.35,-128.46"/>
<polygon fill="#63b8ff" stroke="#63b8ff" points="163.51,-131.78 172.39,-126.01 161.85,-124.98 163.51,-131.78"/>
</a>
</g>
</g>
<!-- Node7 -->
<g id="Node000007" class="node">
<title>Node7</title>
<g id="a_Node000007"><a xlink:href="classunilink_1_1memory_1_1SafeSpan.html#a0e63f52083142fa895b98ea38f51dc73" target="_top" xlink:title=" ">
<polygon fill="white" stroke="#666666" points="309,-78 161,-78 161,-48 309,-48 309,-78"/>
<text text-anchor="start" x="169" y="-66" font-family="Helvetica,sans-Serif" font-size="10.00">unilink::memory::SafeSpan</text>
<text text-anchor="middle" x="235" y="-55" font-family="Helvetica,sans-Serif" font-size="10.00">::size</text>
</a>
</g>
</g>
<!-- Node1&#45;&gt;Node7 -->
<g id="edge6_Node000001_Node000007" class="edge">
<title>Node1&#45;&gt;Node7</title>
<g id="a_edge6_Node000001_Node000007"><a xlink:title=" ">
<path fill="none" stroke="#63b8ff" d="M80.82,-133.26C98.47,-118.53 123.87,-99.25 149,-87 152.98,-85.06 157.15,-83.25 161.41,-81.57"/>
<polygon fill="#63b8ff" stroke="#63b8ff" points="162.68,-84.83 170.85,-78.08 160.25,-78.26 162.68,-84.83"/>
</a>
</g>
</g>
<!-- Node8 -->
<g id="Node000008" class="node">
<title>Node8</title>
<g id="a_Node000008"><a xlink:href="classunilink_1_1memory_1_1PooledBuffer.html#abf8fb1fa73f66373f96a9eb2821d6cbf" target="_top" xlink:title=" ">
<polygon fill="white" stroke="#666666" points="317,-30 153,-30 153,0 317,0 317,-30"/>
<text text-anchor="start" x="161" y="-18" font-family="Helvetica,sans-Serif" font-size="10.00">unilink::memory::PooledBuffer</text>
<text text-anchor="middle" x="235" y="-7" font-family="Helvetica,sans-Serif" font-size="10.00">::valid</text>
</a>
</g>
</g>
<!-- Node1&#45;&gt;Node8 -->
<g id="edge7_Node000001_Node000008" class="edge">
<title>Node1&#45;&gt;Node8</title>
<g id="a_edge7_Node000001_Node000008"><a xlink:title=" ">
<path fill="none" stroke="#63b8ff" d="M68.53,-133.28C83.38,-107.37 112.25,-63.45 149,-39 151.39,-37.41 153.89,-35.92 156.47,-34.53"/>
<polygon fill="#63b8ff" stroke="#63b8ff" points="158.01,-37.67 165.48,-30.17 154.96,-31.37 158.01,-37.67"/>
</a>
</g>
</g>
</g>
</svg>
</svg>

<style type='text/css'>
<![CDATA[
[data-mouse-over-selected='false'] { opacity: 0.7; }
[data-mouse-over-selected='true']  { opacity: 1.0; }
]]>
</style>
<script type="application/ecmascript"><![CDATA[
document.addEventListener('DOMContentLoaded', (event) => {
  highlightEdges();
  highlightAdjacentNodes();
});
]]></script>
</svg>
