<?xml version="1.0" encoding="UTF-8" standalone="no"?>
<!DOCTYPE svg PUBLIC "-//W3C//DTD SVG 1.1//EN"
 "http://www.w3.org/Graphics/SVG/1.1/DTD/svg11.dtd">
<!-- Generated by graphviz version 2.43.0 (0)
 -->
<!-- Title: unilink::builder::BuilderInterface::on_disconnect Pages: 1 -->
<svg width="316pt" height="88pt"
 viewBox="0.00 0.00 316.00 88.00" xmlns="http://www.w3.org/2000/svg" xmlns:xlink="http://www.w3.org/1999/xlink">
<g id="graph0" class="graph" transform="scale(1 1) rotate(0) translate(4 84)">
<title>unilink::builder::BuilderInterface::on_disconnect</title>
<polygon fill="white" stroke="transparent" points="-4,4 -4,-84 312,-84 312,4 -4,4"/>
<!-- Node1 -->
<g id="node1" class="node">
<title>Node1</title>
<g id="a_node1"><a xlink:title="Set disconnection handler callback.">
<polygon fill="#bfbfbf" stroke="black" points="172,-24.5 172,-54.5 308,-54.5 308,-24.5 172,-24.5"/>
<text text-anchor="start" x="180" y="-42.5" font-family="Helvetica,sans-Serif" font-size="10.00">unilink::builder::Builder</text>
<text text-anchor="middle" x="240" y="-31.5" font-family="Helvetica,sans-Serif" font-size="10.00">Interface::on_disconnect</text>
</a>
</g>
</g>
<!-- Node2 -->
<g id="node2" class="node">
<title>Node2</title>
<g id="a_node2"><a xlink:href="classunilink_1_1builder_1_1SerialBuilder.html#aea59bfd17313e2607a96ea9f01c2dcda" target="_top" xlink:title="Build and return the configured product.">
<polygon fill="white" stroke="black" points="6.5,-49.5 6.5,-79.5 129.5,-79.5 129.5,-49.5 6.5,-49.5"/>
<text text-anchor="start" x="14.5" y="-67.5" font-family="Helvetica,sans-Serif" font-size="10.00">unilink::builder::Serial</text>
<text text-anchor="middle" x="68" y="-56.5" font-family="Helvetica,sans-Serif" font-size="10.00">Builder::build</text>
</a>
</g>
</g>
<!-- Node1&#45;&gt;Node2 -->
<g id="edge1" class="edge">
<title>Node1&#45;&gt;Node2</title>
<path fill="none" stroke="midnightblue" d="M161.6,-50.88C150.88,-52.46 139.99,-54.06 129.63,-55.58"/>
<polygon fill="midnightblue" stroke="midnightblue" points="162.43,-54.3 171.81,-49.38 161.41,-47.37 162.43,-54.3"/>
</g>
<!-- Node3 -->
<g id="node3" class="node">
<title>Node3</title>
<g id="a_node3"><a xlink:href="classunilink_1_1builder_1_1BuilderInterface.html#ac0b1f54ba0ed2e4ef41ea3e351e2f200" target="_top" xlink:title="Set disconnection handler callback using member function pointer.">
<polygon fill="white" stroke="black" points="0,-0.5 0,-30.5 136,-30.5 136,-0.5 0,-0.5"/>
<text text-anchor="start" x="8" y="-18.5" font-family="Helvetica,sans-Serif" font-size="10.00">unilink::builder::Builder</text>
<text text-anchor="middle" x="68" y="-7.5" font-family="Helvetica,sans-Serif" font-size="10.00">Interface::on_disconnect</text>
</a>
</g>
</g>
<!-- Node1&#45;&gt;Node3 -->
<g id="edge2" class="edge">
<title>Node1&#45;&gt;Node3</title>
<path fill="none" stroke="midnightblue" d="M161.85,-28.61C153.31,-27.4 144.66,-26.18 136.26,-25"/>
<polygon fill="midnightblue" stroke="midnightblue" points="161.42,-32.08 171.81,-30.01 162.4,-25.15 161.42,-32.08"/>
</g>
</g>
</svg>
