<?xml version="1.0" encoding="UTF-8" standalone="no"?>
<!DOCTYPE svg PUBLIC "-//W3C//DTD SVG 1.1//EN"
 "http://www.w3.org/Graphics/SVG/1.1/DTD/svg11.dtd">
<!-- Generated by graphviz version 2.43.0 (0)
 -->
<!-- Title: unilink::builder::SerialBuilder::build Pages: 1 -->
<!--zoomable 811 -->

<svg id="main" version="1.1" xmlns="http://www.w3.org/2000/svg" xmlns:xlink="http://www.w3.org/1999/xlink" xml:space="preserve" onload="init(evt)">
<style type="text/css"><![CDATA[
.node, .edge {opacity: 0.7;}
.node.selected, .edge.selected {opacity: 1;}
.edge:hover path { stroke: red; }
.edge:hover polygon { stroke: red; fill: red; }
]]></style>

<defs>
  <circle id="rim" cx="0" cy="0" r="7"/>
  <circle id="rim2" cx="0" cy="0" r="3.5"/>
  <g id="zoomPlus">
    <use xlink:href="#rim" fill="#404040"><set attributeName="fill" to="#808080" begin="zoomplus.mouseover" end="zoomplus.mouseout"/></use>
    <path d="M-4,0h8M0,-4v8" fill="none" stroke="white" stroke-width="1.5" pointer-events="none"/>
  </g>
  <g id="zoomMin">
    <use xlink:href="#rim" fill="#404040"><set attributeName="fill" to="#808080" begin="zoomminus.mouseover" end="zoomminus.mouseout"/></use>
    <path d="M-4,0h8" fill="none" stroke="white" stroke-width="1.5" pointer-events="none"/>
  </g>
  <g id="arrowUp" transform="translate(30 24)">
    <use xlink:href="#rim"/>
    <path pointer-events="none" fill="none" stroke="white" stroke-width="1.5" d="M0,-3.0v7 M-2.5,-0.5L0,-3.0L2.5,-0.5"/>
  </g>
  <g id="arrowRight" transform="rotate(90) translate(36 -43)">
    <use xlink:href="#rim"/>
    <path pointer-events="none" fill="none" stroke="white" stroke-width="1.5" d="M0,-3.0v7 M-2.5,-0.5L0,-3.0L2.5,-0.5"/>
  </g>
  <g id="arrowDown" transform="rotate(180) translate(-30 -48)">
    <use xlink:href="#rim"/>
    <path pointer-events="none" fill="none" stroke="white" stroke-width="1.5" d="M0,-3.0v7 M-2.5,-0.5L0,-3.0L2.5,-0.5"/>
  </g>
  <g id="arrowLeft" transform="rotate(270) translate(-36 17)">
    <use xlink:href="#rim"/>
    <path pointer-events="none" fill="none" stroke="white" stroke-width="1.5" d="M0,-3.0v7 M-2.5,-0.5L0,-3.0L2.5,-0.5"/>
  </g>
  <g id="resetDef">
    <use xlink:href="#rim2" fill="#404040"><set attributeName="fill" to="#808080" begin="reset.mouseover" end="reset.mouseout"/></use>
  </g>
</defs>
<script type="application/ecmascript">
var viewWidth = 330;
var viewHeight = 811;
var sectionId = 'dynsection-5';
</script>
<script type="application/ecmascript" xlink:href="svg.min.js"/>
<svg id="graph" class="graph">
<g id="viewport">
<title>unilink::builder::SerialBuilder::build</title>
<!-- Node1 -->
<g id="Node000001" class="node">
<title>Node1</title>
<g id="a_Node000001"><a xlink:title="Build and return the configured product.">
<polygon fill="#999999" stroke="#666666" points="123,-380 0,-380 0,-350 123,-350 123,-380"/>
<text text-anchor="start" x="8" y="-368" font-family="Helvetica,sans-Serif" font-size="10.00">unilink::builder::Serial</text>
<text text-anchor="middle" x="61.5" y="-357" font-family="Helvetica,sans-Serif" font-size="10.00">Builder::build</text>
</a>
</g>
</g>
<!-- Node2 -->
<g id="Node000002" class="node">
<title>Node2</title>
<g id="a_Node000002"><a xlink:href="classunilink_1_1builder_1_1SerialBuilder.html#a1a81dd221f3c68ad547cbe4c293f2a6b" target="_top" xlink:title="Enable auto&#45;manage functionality.">
<polygon fill="white" stroke="#666666" points="302,-785 179,-785 179,-755 302,-755 302,-785"/>
<text text-anchor="start" x="187" y="-773" font-family="Helvetica,sans-Serif" font-size="10.00">unilink::builder::Serial</text>
<text text-anchor="middle" x="240.5" y="-762" font-family="Helvetica,sans-Serif" font-size="10.00">Builder::auto_start</text>
</a>
</g>
</g>
<!-- Node1&#45;&gt;Node2 -->
<g id="edge1_Node000001_Node000002" class="edge">
<title>Node1&#45;&gt;Node2</title>
<g id="a_edge1_Node000001_Node000002"><a xlink:title=" ">
<path fill="none" stroke="#63b8ff" d="M64.33,-380.05C72.35,-443.85 106.45,-691.22 159,-746 162.21,-749.35 165.86,-752.23 169.8,-754.72"/>
<polygon fill="#63b8ff" stroke="#63b8ff" points="168.35,-757.91 178.82,-759.55 171.66,-751.74 168.35,-757.91"/>
</a>
</g>
</g>
<!-- Node3 -->
<g id="Node000003" class="node">
<title>Node3</title>
<g id="a_Node000003"><a xlink:href="classunilink_1_1builder_1_1BuilderInterface.html#a39ada28148664574168a69b0ba0fa4b8" target="_top" xlink:title="Set the backpressure strategy.">
<polygon fill="white" stroke="#666666" points="306,-736.5 175,-736.5 175,-695.5 306,-695.5 306,-736.5"/>
<text text-anchor="start" x="183" y="-724.5" font-family="Helvetica,sans-Serif" font-size="10.00">unilink::builder::Builder</text>
<text text-anchor="start" x="183" y="-713.5" font-family="Helvetica,sans-Serif" font-size="10.00">Interface::backpressure</text>
<text text-anchor="middle" x="240.5" y="-702.5" font-family="Helvetica,sans-Serif" font-size="10.00">_strategy</text>
</a>
</g>
</g>
<!-- Node1&#45;&gt;Node3 -->
<g id="edge3_Node000001_Node000003" class="edge">
<title>Node1&#45;&gt;Node3</title>
<g id="a_edge3_Node000001_Node000003"><a xlink:title=" ">
<path fill="none" stroke="#63b8ff" d="M62.49,-380.12C63.3,-430.7 72.73,-595.89 159,-687 161.3,-689.43 163.81,-691.65 166.49,-693.69"/>
<polygon fill="#63b8ff" stroke="#63b8ff" points="164.68,-696.69 174.95,-699.27 168.53,-690.84 164.68,-696.69"/>
</a>
</g>
</g>
<!-- Node4 -->
<g id="Node000004" class="node">
<title>Node4</title>
<g id="a_Node000004"><a xlink:href="classunilink_1_1builder_1_1BuilderInterface.html#a708ff496351336f1217357c27ca83d80" target="_top" xlink:title="Set the backpressure threshold in bytes.">
<polygon fill="white" stroke="#666666" points="306,-677.5 175,-677.5 175,-636.5 306,-636.5 306,-677.5"/>
<text text-anchor="start" x="183" y="-665.5" font-family="Helvetica,sans-Serif" font-size="10.00">unilink::builder::Builder</text>
<text text-anchor="start" x="183" y="-654.5" font-family="Helvetica,sans-Serif" font-size="10.00">Interface::backpressure</text>
<text text-anchor="middle" x="240.5" y="-643.5" font-family="Helvetica,sans-Serif" font-size="10.00">_threshold</text>
</a>
</g>
</g>
<!-- Node1&#45;&gt;Node4 -->
<g id="edge4_Node000001_Node000004" class="edge">
<title>Node1&#45;&gt;Node4</title>
<g id="a_edge4_Node000001_Node000004"><a xlink:title=" ">
<path fill="none" stroke="#63b8ff" d="M63.74,-380.04C68.16,-424.16 86.99,-554.71 159,-627 161.17,-629.18 163.51,-631.2 165.99,-633.08"/>
<polygon fill="#63b8ff" stroke="#63b8ff" points="164.57,-636.34 174.85,-638.92 168.42,-630.49 164.57,-636.34"/>
</a>
</g>
</g>
<!-- Node5 -->
<g id="Node000005" class="node">
<title>Node5</title>
<g id="a_Node000005"><a xlink:href="classunilink_1_1builder_1_1SerialBuilder.html#a806f98817d3b066f93f9ea5b8d159c15" target="_top" xlink:title="Set number of data bits.">
<polygon fill="white" stroke="#666666" points="302,-618 179,-618 179,-588 302,-588 302,-618"/>
<text text-anchor="start" x="187" y="-606" font-family="Helvetica,sans-Serif" font-size="10.00">unilink::builder::Serial</text>
<text text-anchor="middle" x="240.5" y="-595" font-family="Helvetica,sans-Serif" font-size="10.00">Builder::data_bits</text>
</a>
</g>
</g>
<!-- Node1&#45;&gt;Node5 -->
<g id="edge5_Node000001_Node000005" class="edge">
<title>Node1&#45;&gt;Node5</title>
<g id="a_edge5_Node000001_Node000005"><a xlink:title=" ">
<path fill="none" stroke="#63b8ff" d="M64.92,-380.26C71.94,-419.35 95.95,-523.87 159,-579 162.27,-581.86 165.88,-584.38 169.69,-586.6"/>
<polygon fill="#63b8ff" stroke="#63b8ff" points="168.4,-589.87 178.9,-591.26 171.55,-583.62 168.4,-589.87"/>
</a>
</g>
</g>
<!-- Node6 -->
<g id="Node000006" class="node">
<title>Node6</title>
<g id="a_Node000006"><a xlink:href="classunilink_1_1builder_1_1SerialBuilder.html#a963f3798eed15b91ec0342d7792e1d97" target="_top" xlink:title="Set flow control.">
<polygon fill="white" stroke="#666666" points="302,-570 179,-570 179,-540 302,-540 302,-570"/>
<text text-anchor="start" x="187" y="-558" font-family="Helvetica,sans-Serif" font-size="10.00">unilink::builder::Serial</text>
<text text-anchor="middle" x="240.5" y="-547" font-family="Helvetica,sans-Serif" font-size="10.00">Builder::flow_control</text>
</a>
</g>
</g>
<!-- Node1&#45;&gt;Node6 -->
<g id="edge6_Node000001_Node000006" class="edge">
<title>Node1&#45;&gt;Node6</title>
<g id="a_edge6_Node000001_Node000006"><a xlink:title=" ">
<path fill="none" stroke="#63b8ff" d="M67.13,-380.41C77.77,-413.2 107.14,-490.17 159,-531 162.35,-533.64 165.99,-535.99 169.8,-538.08"/>
<polygon fill="#63b8ff" stroke="#63b8ff" points="168.44,-541.31 178.97,-542.51 171.48,-535 168.44,-541.31"/>
</a>
</g>
</g>
<!-- Node7 -->
<g id="Node000007" class="node">
<title>Node7</title>
<g id="a_Node000007"><a xlink:href="classunilink_1_1builder_1_1BuilderInterface.html#acd6f6559458503f2d7fd8c57d62985c4" target="_top" xlink:title="Set a custom framer factory.">
<polygon fill="white" stroke="#666666" points="305.5,-522 175.5,-522 175.5,-492 305.5,-492 305.5,-522"/>
<text text-anchor="start" x="183.5" y="-510" font-family="Helvetica,sans-Serif" font-size="10.00">unilink::builder::Builder</text>
<text text-anchor="middle" x="240.5" y="-499" font-family="Helvetica,sans-Serif" font-size="10.00">Interface::framer</text>
</a>
</g>
</g>
<!-- Node1&#45;&gt;Node7 -->
<g id="edge7_Node000001_Node000007" class="edge">
<title>Node1&#45;&gt;Node7</title>
<g id="a_edge7_Node000001_Node000007"><a xlink:title=" ">
<path fill="none" stroke="#63b8ff" d="M70.78,-380.12C85.31,-405.25 117.81,-455.57 159,-483 161.39,-484.59 163.89,-486.08 166.46,-487.47"/>
<polygon fill="#63b8ff" stroke="#63b8ff" points="164.95,-490.63 175.48,-491.84 168.01,-484.33 164.95,-490.63"/>
</a>
</g>
</g>
<!-- Node8 -->
<g id="Node000008" class="node">
<title>Node8</title>
<g id="a_Node000008"><a xlink:href="classunilink_1_1builder_1_1BuilderInterface.html#a41fb5b16a7db6690cc0a21a8be7b8362" target="_top" xlink:title=" ">
<polygon fill="white" stroke="#666666" points="322,-474 159,-474 159,-422 322,-422 322,-474"/>
<text text-anchor="start" x="167" y="-462" font-family="Helvetica,sans-Serif" font-size="10.00">unilink::builder::Builder</text>
<text text-anchor="start" x="167" y="-451" font-family="Helvetica,sans-Serif" font-size="10.00">Interface&lt; wrapper::Serial,</text>
<text text-anchor="start" x="167" y="-440" font-family="Helvetica,sans-Serif" font-size="10.00"> SerialBuilder &gt;::get_effective</text>
<text text-anchor="middle" x="240.5" y="-429" font-family="Helvetica,sans-Serif" font-size="10.00">_backpressure_threshold</text>
</a>
</g>
</g>
<!-- Node1&#45;&gt;Node8 -->
<g id="edge8_Node000001_Node000008" class="edge">
<title>Node1&#45;&gt;Node8</title>
<g id="a_edge8_Node000001_Node000008"><a xlink:title=" ">
<path fill="none" stroke="#63b8ff" d="M91.87,-380.1C110.9,-389.76 136.27,-402.41 159,-413 162.38,-414.57 165.84,-416.16 169.35,-417.76"/>
<polygon fill="#63b8ff" stroke="#63b8ff" points="168.14,-421.05 178.69,-421.96 171.01,-414.66 168.14,-421.05"/>
</a>
</g>
</g>
<!-- Node9 -->
<g id="Node000009" class="node">
<title>Node9</title>
<g id="a_Node000009"><a xlink:href="classunilink_1_1builder_1_1BuilderInterface.html#aef6afb1aad926719826706b41e137071" target="_top" xlink:title="Set connection handler callback.">
<polygon fill="white" stroke="#666666" points="305.5,-404 175.5,-404 175.5,-374 305.5,-374 305.5,-404"/>
<text text-anchor="start" x="183.5" y="-392" font-family="Helvetica,sans-Serif" font-size="10.00">unilink::builder::Builder</text>
<text text-anchor="middle" x="240.5" y="-381" font-family="Helvetica,sans-Serif" font-size="10.00">Interface::on_connect</text>
</a>
</g>
</g>
<!-- Node1&#45;&gt;Node9 -->
<g id="edge9_Node000001_Node000009" class="edge">
<title>Node1&#45;&gt;Node9</title>
<g id="a_edge9_Node000001_Node000009"><a xlink:title=" ">
<path fill="none" stroke="#63b8ff" d="M123.41,-373.26C136.93,-375.09 151.4,-377.05 165.39,-378.95"/>
<polygon fill="#63b8ff" stroke="#63b8ff" points="165.08,-382.44 175.46,-380.32 166.02,-375.5 165.08,-382.44"/>
</a>
</g>
</g>
<!-- Node10 -->
<g id="Node000010" class="node">
<title>Node10</title>
<g id="a_Node000010"><a xlink:href="classunilink_1_1builder_1_1BuilderInterface.html#aaff548b4457e2c2682a14a0c9aa7d940" target="_top" xlink:title="Set data handler callback.">
<polygon fill="white" stroke="#666666" points="305.5,-356 175.5,-356 175.5,-326 305.5,-326 305.5,-356"/>
<text text-anchor="start" x="183.5" y="-344" font-family="Helvetica,sans-Serif" font-size="10.00">unilink::builder::Builder</text>
<text text-anchor="middle" x="240.5" y="-333" font-family="Helvetica,sans-Serif" font-size="10.00">Interface::on_data</text>
</a>
</g>
</g>
<!-- Node1&#45;&gt;Node10 -->
<g id="edge10_Node000001_Node000010" class="edge">
<title>Node1&#45;&gt;Node10</title>
<g id="a_edge10_Node000001_Node000010"><a xlink:title=" ">
<path fill="none" stroke="#63b8ff" d="M123.41,-356.74C136.93,-354.91 151.4,-352.95 165.39,-351.05"/>
<polygon fill="#63b8ff" stroke="#63b8ff" points="166.02,-354.5 175.46,-349.68 165.08,-347.56 166.02,-354.5"/>
</a>
</g>
</g>
<!-- Node11 -->
<g id="Node000011" class="node">
<title>Node11</title>
<g id="a_Node000011"><a xlink:href="classunilink_1_1builder_1_1BuilderInterface.html#add49f2443a402ee3004c40f090f8f56a" target="_top" xlink:title="Set disconnection handler callback.">
<polygon fill="white" stroke="#666666" points="308.5,-308 172.5,-308 172.5,-278 308.5,-278 308.5,-308"/>
<text text-anchor="start" x="180.5" y="-296" font-family="Helvetica,sans-Serif" font-size="10.00">unilink::builder::Builder</text>
<text text-anchor="middle" x="240.5" y="-285" font-family="Helvetica,sans-Serif" font-size="10.00">Interface::on_disconnect</text>
</a>
</g>
</g>
<!-- Node1&#45;&gt;Node11 -->
<g id="edge11_Node000001_Node000011" class="edge">
<title>Node1&#45;&gt;Node11</title>
<g id="a_edge11_Node000001_Node000011"><a xlink:title=" ">
<path fill="none" stroke="#63b8ff" d="M89.8,-349.85C108.81,-339.68 134.98,-326.47 159,-317 164.09,-314.99 169.41,-313.06 174.79,-311.22"/>
<polygon fill="#63b8ff" stroke="#63b8ff" points="176.11,-314.47 184.51,-308.02 173.91,-307.83 176.11,-314.47"/>
</a>
</g>
</g>
<!-- Node12 -->
<g id="Node000012" class="node">
<title>Node12</title>
<g id="a_Node000012"><a xlink:href="classunilink_1_1builder_1_1BuilderInterface.html#ac0fd38617f00cc7fd8edb0d926b1cd1d" target="_top" xlink:title="Set error handler callback.">
<polygon fill="white" stroke="#666666" points="305.5,-260 175.5,-260 175.5,-230 305.5,-230 305.5,-260"/>
<text text-anchor="start" x="183.5" y="-248" font-family="Helvetica,sans-Serif" font-size="10.00">unilink::builder::Builder</text>
<text text-anchor="middle" x="240.5" y="-237" font-family="Helvetica,sans-Serif" font-size="10.00">Interface::on_error</text>
</a>
</g>
</g>
<!-- Node1&#45;&gt;Node12 -->
<g id="edge12_Node000001_Node000012" class="edge">
<title>Node1&#45;&gt;Node12</title>
<g id="a_edge12_Node000001_Node000012"><a xlink:title=" ">
<path fill="none" stroke="#63b8ff" d="M73.85,-349.68C90.31,-328.51 122.84,-290.49 159,-269 161.97,-267.23 165.09,-265.59 168.29,-264.06"/>
<polygon fill="#63b8ff" stroke="#63b8ff" points="169.74,-267.24 177.5,-260.03 166.94,-260.83 169.74,-267.24"/>
</a>
</g>
</g>
<!-- Node13 -->
<g id="Node000013" class="node">
<title>Node13</title>
<g id="a_Node000013"><a xlink:href="classunilink_1_1builder_1_1BuilderInterface.html#af02e4e518d5654001d6db1a5f3aa2154" target="_top" xlink:title="Set message handler callback (for framed messages)">
<polygon fill="white" stroke="#666666" points="305.5,-212 175.5,-212 175.5,-182 305.5,-182 305.5,-212"/>
<text text-anchor="start" x="183.5" y="-200" font-family="Helvetica,sans-Serif" font-size="10.00">unilink::builder::Builder</text>
<text text-anchor="middle" x="240.5" y="-189" font-family="Helvetica,sans-Serif" font-size="10.00">Interface::on_message</text>
</a>
</g>
</g>
<!-- Node1&#45;&gt;Node13 -->
<g id="edge13_Node000001_Node000013" class="edge">
<title>Node1&#45;&gt;Node13</title>
<g id="a_edge13_Node000001_Node000013"><a xlink:title=" ">
<path fill="none" stroke="#63b8ff" d="M68.47,-349.85C80.82,-320.47 112,-255.63 159,-221 161.23,-219.35 163.58,-217.82 166.01,-216.39"/>
<polygon fill="#63b8ff" stroke="#63b8ff" points="167.86,-219.37 175.13,-211.66 164.64,-213.16 167.86,-219.37"/>
</a>
</g>
</g>
<!-- Node14 -->
<g id="Node000014" class="node">
<title>Node14</title>
<g id="a_Node000014"><a xlink:href="classunilink_1_1builder_1_1SerialBuilder.html#a4126f76a8f94c12b466f886baa8f5191" target="_top" xlink:title="Set parity.">
<polygon fill="white" stroke="#666666" points="302,-164 179,-164 179,-134 302,-134 302,-164"/>
<text text-anchor="start" x="187" y="-152" font-family="Helvetica,sans-Serif" font-size="10.00">unilink::builder::Serial</text>
<text text-anchor="middle" x="240.5" y="-141" font-family="Helvetica,sans-Serif" font-size="10.00">Builder::parity</text>
</a>
</g>
</g>
<!-- Node1&#45;&gt;Node14 -->
<g id="edge14_Node000001_Node000014" class="edge">
<title>Node1&#45;&gt;Node14</title>
<g id="a_edge14_Node000001_Node000014"><a xlink:title=" ">
<path fill="none" stroke="#63b8ff" d="M65.73,-349.97C74.28,-313.87 100.95,-221.64 159,-173 162.27,-170.26 165.84,-167.83 169.61,-165.68"/>
<polygon fill="#63b8ff" stroke="#63b8ff" points="171.3,-168.75 178.69,-161.15 168.18,-162.49 171.3,-168.75"/>
</a>
</g>
</g>
<!-- Node15 -->
<g id="Node000015" class="node">
<title>Node15</title>
<g id="a_Node000015"><a xlink:href="classunilink_1_1builder_1_1SerialBuilder.html#adb37ca6c2f6f64a88661320c7917da43" target="_top" xlink:title="Set reconnection retry interval.">
<polygon fill="white" stroke="#666666" points="302,-116 179,-116 179,-86 302,-86 302,-116"/>
<text text-anchor="start" x="187" y="-104" font-family="Helvetica,sans-Serif" font-size="10.00">unilink::builder::Serial</text>
<text text-anchor="middle" x="240.5" y="-93" font-family="Helvetica,sans-Serif" font-size="10.00">Builder::retry_interval</text>
</a>
</g>
</g>
<!-- Node1&#45;&gt;Node15 -->
<g id="edge15_Node000001_Node000015" class="edge">
<title>Node1&#45;&gt;Node15</title>
<g id="a_edge15_Node000001_Node000015"><a xlink:title=" ">
<path fill="none" stroke="#63b8ff" d="M64.09,-349.79C69.31,-307.61 89.8,-188.08 159,-125 162.21,-122.07 165.77,-119.5 169.55,-117.24"/>
<polygon fill="#63b8ff" stroke="#63b8ff" points="171.42,-120.21 178.7,-112.52 168.21,-113.99 171.42,-120.21"/>
</a>
</g>
</g>
<!-- Node16 -->
<g id="Node000016" class="node">
<title>Node16</title>
<g id="a_Node000016"><a xlink:href="namespaceunilink.html#a9f2227aea1475c0655cf8cf4a99e55e9" target="_top" xlink:title="Create a Serial port builder.">
<polygon fill="white" stroke="#666666" points="282,-67.5 199,-67.5 199,-48.5 282,-48.5 282,-67.5"/>
<text text-anchor="middle" x="240.5" y="-55.5" font-family="Helvetica,sans-Serif" font-size="10.00">unilink::serial</text>
</a>
</g>
</g>
<!-- Node1&#45;&gt;Node16 -->
<g id="edge16_Node000001_Node000016" class="edge">
<title>Node1&#45;&gt;Node16</title>
<g id="a_edge16_Node000001_Node000016"><a xlink:title=" ">
<path fill="none" stroke="#63b8ff" d="M62.73,-349.76C64.32,-301.81 76.03,-152.71 159,-77 167.28,-69.44 178,-64.73 188.91,-61.82"/>
<polygon fill="#63b8ff" stroke="#63b8ff" points="189.88,-65.19 198.9,-59.64 188.38,-58.35 189.88,-65.19"/>
</a>
</g>
</g>
<!-- Node17 -->
<g id="Node000017" class="node">
<title>Node17</title>
<g id="a_Node000017"><a xlink:href="classunilink_1_1builder_1_1SerialBuilder.html#a5b1bd5fbbb3503e306a3b008c8c9cd74" target="_top" xlink:title="Set number of stop bits.">
<polygon fill="white" stroke="#666666" points="302,-30 179,-30 179,0 302,0 302,-30"/>
<text text-anchor="start" x="187" y="-18" font-family="Helvetica,sans-Serif" font-size="10.00">unilink::builder::Serial</text>
<text text-anchor="middle" x="240.5" y="-7" font-family="Helvetica,sans-Serif" font-size="10.00">Builder::stop_bits</text>
</a>
</g>
</g>
<!-- Node1&#45;&gt;Node17 -->
<g id="edge17_Node000001_Node000017" class="edge">
<title>Node1&#45;&gt;Node17</title>
<g id="a_edge17_Node000001_Node000017"><a xlink:title=" ">
<path fill="none" stroke="#63b8ff" d="M62.29,-349.95C62.42,-298.86 69.87,-130.25 159,-40 162.21,-36.75 165.83,-33.92 169.72,-31.46"/>
<polygon fill="#63b8ff" stroke="#63b8ff" points="171.49,-34.48 178.61,-26.63 168.15,-28.33 171.49,-34.48"/>
</a>
</g>
</g>
<!-- Node2&#45;&gt;Node2 -->
<g id="edge2_Node000002_Node000002" class="edge">
<title>Node2&#45;&gt;Node2</title>
<g id="a_edge2_Node000002_Node000002"><a xlink:title=" ">
<path fill="none" stroke="#63b8ff" d="M209.21,-785.28C202.26,-794.41 212.69,-803 240.5,-803 257.01,-803 267.4,-799.97 271.66,-795.6"/>
<polygon fill="#63b8ff" stroke="#63b8ff" points="275.16,-795.32 271.79,-785.28 268.16,-795.23 275.16,-795.32"/>
</a>
</g>
</g>
</g>
</svg>

<g id="navigator" transform="translate(0 0)" fill="#404254">
  <rect fill="#f2f5e9" fill-opacity="0.5" stroke="#606060" stroke-width=".5" x="0" y="0" width="60" height="60"/>
  <use id="zoomplus" xlink:href="#zoomPlus" x="17" y="9" onmousedown="handleZoom(evt,'in')"/>
  <use id="zoomminus" xlink:href="#zoomMin" x="42" y="9" onmousedown="handleZoom(evt,'out')"/>
  <use id="reset" xlink:href="#resetDef" x="30" y="36" onmousedown="handleReset()"/>
   <use id="arrowup" xlink:href="#arrowUp" x="0" y="0" onmousedown="handlePan(0,-1)"/>
  <use id="arrowright" xlink:href="#arrowRight" x="0" y="0" onmousedown="handlePan(1,0)"/>
  <use id="arrowdown" xlink:href="#arrowDown" x="0" y="0" onmousedown="handlePan(0,1)"/>
  <use id="arrowleft" xlink:href="#arrowLeft" x="0" y="0" onmousedown="handlePan(-1,0)"/>
</g>
<svg viewBox="0 0 15 15" width="100%" height="30px" preserveAspectRatio="xMaxYMin meet">
 <g id="arrow_out" transform="scale(0.3 0.3)">
  <a xlink:href="classunilink_1_1builder_1_1SerialBuilder_aea59bfd17313e2607a96ea9f01c2dcda_cgraph_org.svg" target="_base">
   <rect id="button" ry="5" rx="5" y="6" x="6" height="38" width="38"
        fill="#f2f5e9" fill-opacity="0.5" stroke="#606060" stroke-width="1.0"/>
   <path id="arrow"
     d="M 11.500037,31.436501 C 11.940474,20.09759 22.043105,11.32322 32.158766,21.979434 L 37.068811,17.246167 C 37.068811,17.246167 37.088388,32 37.088388,32 L 22.160133,31.978069 C 22.160133,31.978069 26.997745,27.140456 26.997745,27.140456 C 18.528582,18.264221 13.291696,25.230495 11.500037,31.436501 z"
     style="fill:#404040;"/>
  </a>
 </g>
</svg>

<style type='text/css'>
<![CDATA[
[data-mouse-over-selected='false'] { opacity: 0.7; }
[data-mouse-over-selected='true']  { opacity: 1.0; }
]]>
</style>
<script type="application/ecmascript"><![CDATA[
document.addEventListener('DOMContentLoaded', (event) => {
  highlightEdges();
  highlightAdjacentNodes();
});
]]></script>
</svg>
