<?xml version="1.0" encoding="UTF-8" standalone="no"?>
<!DOCTYPE svg PUBLIC "-//W3C//DTD SVG 1.1//EN"
 "http://www.w3.org/Graphics/SVG/1.1/DTD/svg11.dtd">
<!-- Generated by graphviz version 2.43.0 (0)
 -->
<!-- Title: unilink::config::ConfigManager::validate Pages: 1 -->
<svg width="724pt" height="88pt"
 viewBox="0.00 0.00 724.00 88.00" xmlns="http://www.w3.org/2000/svg" xmlns:xlink="http://www.w3.org/1999/xlink">
<g id="graph0" class="graph" transform="scale(1 1) rotate(0) translate(4 84)">
<title>unilink::config::ConfigManager::validate</title>
<polygon fill="white" stroke="transparent" points="-4,4 -4,-84 720,-84 720,4 -4,4"/>
<!-- Node1 -->
<g id="node1" class="node">
<title>Node1</title>
<g id="a_node1"><a xlink:title=" ">
<polygon fill="#bfbfbf" stroke="black" points="0,-27.5 0,-57.5 164,-57.5 164,-27.5 0,-27.5"/>
<text text-anchor="start" x="8" y="-45.5" font-family="Helvetica,sans-Serif" font-size="10.00">unilink::config::ConfigManager</text>
<text text-anchor="middle" x="82" y="-34.5" font-family="Helvetica,sans-Serif" font-size="10.00">::validate</text>
</a>
</g>
</g>
<!-- Node2 -->
<g id="node2" class="node">
<title>Node2</title>
<g id="a_node2"><a xlink:href="structunilink_1_1config_1_1ValidationResult.html#ad1b3fb0aa207ad2ec6885b23204ce4d1" target="_top" xlink:title=" ">
<polygon fill="white" stroke="black" points="400,-49.5 400,-79.5 540,-79.5 540,-49.5 400,-49.5"/>
<text text-anchor="start" x="408" y="-67.5" font-family="Helvetica,sans-Serif" font-size="10.00">unilink::config::Validation</text>
<text text-anchor="middle" x="470" y="-56.5" font-family="Helvetica,sans-Serif" font-size="10.00">Result::error</text>
</a>
</g>
</g>
<!-- Node1&#45;&gt;Node2 -->
<g id="edge1" class="edge">
<title>Node1&#45;&gt;Node2</title>
<path fill="none" stroke="midnightblue" d="M164.39,-47.14C230.73,-50.92 323.89,-56.23 389.67,-59.98"/>
<polygon fill="midnightblue" stroke="midnightblue" points="389.8,-63.49 399.99,-60.57 390.2,-56.5 389.8,-63.49"/>
</g>
<!-- Node4 -->
<g id="node4" class="node">
<title>Node4</title>
<g id="a_node4"><a xlink:href="structunilink_1_1config_1_1ConfigManager_1_1Impl.html#add33863d8100f77c1a4f852d06419782" target="_top" xlink:title=" ">
<polygon fill="white" stroke="black" points="200,-5.5 200,-35.5 364,-35.5 364,-5.5 200,-5.5"/>
<text text-anchor="start" x="208" y="-23.5" font-family="Helvetica,sans-Serif" font-size="10.00">unilink::config::ConfigManager</text>
<text text-anchor="middle" x="282" y="-12.5" font-family="Helvetica,sans-Serif" font-size="10.00">::Impl::validate_value</text>
</a>
</g>
</g>
<!-- Node1&#45;&gt;Node4 -->
<g id="edge3" class="edge">
<title>Node1&#45;&gt;Node4</title>
<path fill="none" stroke="midnightblue" d="M164.11,-33.49C172.55,-32.55 181.17,-31.59 189.72,-30.64"/>
<polygon fill="midnightblue" stroke="midnightblue" points="190.15,-34.12 199.7,-29.53 189.37,-27.16 190.15,-34.12"/>
</g>
<!-- Node3 -->
<g id="node3" class="node">
<title>Node3</title>
<g id="a_node3"><a xlink:href="structunilink_1_1config_1_1ValidationResult.html#abbc8f1d5eefb0b9e99d0f1d1c7419928" target="_top" xlink:title=" ">
<polygon fill="white" stroke="black" points="576,-24.5 576,-54.5 716,-54.5 716,-24.5 576,-24.5"/>
<text text-anchor="start" x="584" y="-42.5" font-family="Helvetica,sans-Serif" font-size="10.00">unilink::config::Validation</text>
<text text-anchor="middle" x="646" y="-31.5" font-family="Helvetica,sans-Serif" font-size="10.00">Result::ValidationResult</text>
</a>
</g>
</g>
<!-- Node2&#45;&gt;Node3 -->
<g id="edge2" class="edge">
<title>Node2&#45;&gt;Node3</title>
<path fill="none" stroke="midnightblue" d="M540.02,-54.58C548.48,-53.37 557.17,-52.12 565.76,-50.88"/>
<polygon fill="midnightblue" stroke="midnightblue" points="566.38,-54.33 575.78,-49.45 565.38,-47.4 566.38,-54.33"/>
</g>
<!-- Node4&#45;&gt;Node2 -->
<g id="edge4" class="edge">
<title>Node4&#45;&gt;Node2</title>
<path fill="none" stroke="midnightblue" d="M346.49,-35.52C362.26,-39.25 379.3,-43.28 395.51,-47.12"/>
<polygon fill="midnightblue" stroke="midnightblue" points="394.94,-50.58 405.48,-49.47 396.55,-43.77 394.94,-50.58"/>
</g>
<!-- Node5 -->
<g id="node5" class="node">
<title>Node5</title>
<g id="a_node5"><a xlink:href="structunilink_1_1config_1_1ValidationResult.html#a77146d8eef5cdf8ac9d2bc4b5f4ef115" target="_top" xlink:title=" ">
<polygon fill="white" stroke="black" points="400,-0.5 400,-30.5 540,-30.5 540,-0.5 400,-0.5"/>
<text text-anchor="start" x="408" y="-18.5" font-family="Helvetica,sans-Serif" font-size="10.00">unilink::config::Validation</text>
<text text-anchor="middle" x="470" y="-7.5" font-family="Helvetica,sans-Serif" font-size="10.00">Result::success</text>
</a>
</g>
</g>
<!-- Node4&#45;&gt;Node5 -->
<g id="edge5" class="edge">
<title>Node4&#45;&gt;Node5</title>
<path fill="none" stroke="midnightblue" d="M364.04,-18.32C372.53,-18.09 381.16,-17.86 389.63,-17.63"/>
<polygon fill="midnightblue" stroke="midnightblue" points="389.97,-21.13 399.87,-17.36 389.78,-14.13 389.97,-21.13"/>
</g>
<!-- Node5&#45;&gt;Node3 -->
<g id="edge6" class="edge">
<title>Node5&#45;&gt;Node3</title>
<path fill="none" stroke="midnightblue" d="M540.02,-25.02C548.48,-26.19 557.17,-27.39 565.76,-28.57"/>
<polygon fill="midnightblue" stroke="midnightblue" points="565.4,-32.05 575.78,-29.95 566.35,-25.12 565.4,-32.05"/>
</g>
</g>
</svg>
