<?xml version="1.0" encoding="UTF-8" standalone="no"?>
<!DOCTYPE svg PUBLIC "-//W3C//DTD SVG 1.1//EN"
 "http://www.w3.org/Graphics/SVG/1.1/DTD/svg11.dtd">
<!-- Generated by graphviz version 2.43.0 (0)
 -->
<!-- Title: unilink::concurrency::IoContextManager::IoContextManager Pages: 1 -->
<svg width="752pt" height="333pt"
 viewBox="0.00 0.00 752.00 333.00" xmlns="http://www.w3.org/2000/svg" xmlns:xlink="http://www.w3.org/1999/xlink">
<g id="graph0" class="graph" transform="scale(1 1) rotate(0) translate(4 329)">
<title>unilink::concurrency::IoContextManager::IoContextManager</title>
<polygon fill="white" stroke="transparent" points="-4,4 -4,-329 748,-329 748,4 -4,4"/>
<!-- Node1 -->
<g id="node1" class="node">
<title>Node1</title>
<g id="a_node1"><a xlink:title=" ">
<polygon fill="#bfbfbf" stroke="black" points="578,-93 578,-134 744,-134 744,-93 578,-93"/>
<text text-anchor="start" x="586" y="-122" font-family="Helvetica,sans-Serif" font-size="10.00">unilink::concurrency</text>
<text text-anchor="start" x="586" y="-111" font-family="Helvetica,sans-Serif" font-size="10.00">::IoContextManager::IoContext</text>
<text text-anchor="middle" x="661" y="-100" font-family="Helvetica,sans-Serif" font-size="10.00">Manager</text>
</a>
</g>
</g>
<!-- Node2 -->
<g id="node2" class="node">
<title>Node2</title>
<g id="a_node2"><a xlink:href="classunilink_1_1concurrency_1_1IoContextManager.html#af8bc9a1e74cd2b081311ae3686bbc8ba" target="_top" xlink:title=" ">
<polygon fill="white" stroke="black" points="382,-98.5 382,-128.5 542,-128.5 542,-98.5 382,-98.5"/>
<text text-anchor="start" x="390" y="-116.5" font-family="Helvetica,sans-Serif" font-size="10.00">unilink::concurrency</text>
<text text-anchor="middle" x="462" y="-105.5" font-family="Helvetica,sans-Serif" font-size="10.00">::IoContextManager::instance</text>
</a>
</g>
</g>
<!-- Node1&#45;&gt;Node2 -->
<g id="edge1" class="edge">
<title>Node1&#45;&gt;Node2</title>
<path fill="none" stroke="midnightblue" d="M567.84,-113.5C559.25,-113.5 550.6,-113.5 542.14,-113.5"/>
<polygon fill="midnightblue" stroke="midnightblue" points="567.88,-117 577.88,-113.5 567.88,-110 567.88,-117"/>
</g>
<!-- Node3 -->
<g id="node3" class="node">
<title>Node3</title>
<g id="a_node3"><a xlink:href="classunilink_1_1builder_1_1AutoInitializer.html#a4158d61c97d2450ea92796565b93b2bc" target="_top" xlink:title="Automatically start IoContextManager if not running.">
<polygon fill="white" stroke="black" points="182,-196.5 182,-226.5 346,-226.5 346,-196.5 182,-196.5"/>
<text text-anchor="start" x="190" y="-214.5" font-family="Helvetica,sans-Serif" font-size="10.00">unilink::builder::AutoInitializer</text>
<text text-anchor="middle" x="264" y="-203.5" font-family="Helvetica,sans-Serif" font-size="10.00">::ensure_io_context_running</text>
</a>
</g>
</g>
<!-- Node2&#45;&gt;Node3 -->
<g id="edge2" class="edge">
<title>Node2&#45;&gt;Node3</title>
<path fill="none" stroke="midnightblue" d="M433.14,-134.64C410.62,-150.92 377.58,-173.02 346,-187.5 338.8,-190.8 331.03,-193.78 323.26,-196.42"/>
<polygon fill="midnightblue" stroke="midnightblue" points="435.24,-137.45 441.24,-128.71 431.1,-131.8 435.24,-137.45"/>
</g>
<!-- Node9 -->
<g id="node9" class="node">
<title>Node9</title>
<g id="a_node9"><a xlink:href="classunilink_1_1builder_1_1AutoInitializer.html#a024748495636aa119cd1f4b97978ac68" target="_top" xlink:title="Check if IoContextManager is running.">
<polygon fill="white" stroke="black" points="182,-147.5 182,-177.5 346,-177.5 346,-147.5 182,-147.5"/>
<text text-anchor="start" x="190" y="-165.5" font-family="Helvetica,sans-Serif" font-size="10.00">unilink::builder::AutoInitializer</text>
<text text-anchor="middle" x="264" y="-154.5" font-family="Helvetica,sans-Serif" font-size="10.00">::io_context_running</text>
</a>
</g>
</g>
<!-- Node2&#45;&gt;Node9 -->
<g id="edge8" class="edge">
<title>Node2&#45;&gt;Node9</title>
<path fill="none" stroke="midnightblue" d="M391.09,-130.98C369.49,-136.38 345.9,-142.28 325.02,-147.49"/>
<polygon fill="midnightblue" stroke="midnightblue" points="392.01,-134.36 400.86,-128.53 390.31,-127.56 392.01,-134.36"/>
</g>
<!-- Node10 -->
<g id="node10" class="node">
<title>Node10</title>
<g id="a_node10"><a xlink:href="classunilink_1_1transport_1_1Serial.html#adff0562ceac86c1ee4a1848c1f100f97" target="_top" xlink:title=" ">
<polygon fill="white" stroke="black" points="214,-98.5 214,-128.5 314,-128.5 314,-98.5 214,-98.5"/>
<text text-anchor="start" x="222" y="-116.5" font-family="Helvetica,sans-Serif" font-size="10.00">unilink::transport</text>
<text text-anchor="middle" x="264" y="-105.5" font-family="Helvetica,sans-Serif" font-size="10.00">::Serial::start</text>
</a>
</g>
</g>
<!-- Node2&#45;&gt;Node10 -->
<g id="edge9" class="edge">
<title>Node2&#45;&gt;Node10</title>
<path fill="none" stroke="midnightblue" d="M371.6,-113.5C351.88,-113.5 331.7,-113.5 314.28,-113.5"/>
<polygon fill="midnightblue" stroke="midnightblue" points="371.84,-117 381.84,-113.5 371.84,-110 371.84,-117"/>
</g>
<!-- Node11 -->
<g id="node11" class="node">
<title>Node11</title>
<g id="a_node11"><a xlink:href="classunilink_1_1transport_1_1TcpServer.html#a7dc115cc9cc67ae7c5990c0d01a5a0a6" target="_top" xlink:title=" ">
<polygon fill="white" stroke="black" points="214,-49.5 214,-79.5 314,-79.5 314,-49.5 214,-49.5"/>
<text text-anchor="start" x="222" y="-67.5" font-family="Helvetica,sans-Serif" font-size="10.00">unilink::transport</text>
<text text-anchor="middle" x="264" y="-56.5" font-family="Helvetica,sans-Serif" font-size="10.00">::TcpServer::start</text>
</a>
</g>
</g>
<!-- Node2&#45;&gt;Node11 -->
<g id="edge10" class="edge">
<title>Node2&#45;&gt;Node11</title>
<path fill="none" stroke="midnightblue" d="M390.91,-95.98C365.51,-89.63 337.39,-82.6 314.17,-76.79"/>
<polygon fill="midnightblue" stroke="midnightblue" points="390.31,-99.44 400.86,-98.47 392.01,-92.64 390.31,-99.44"/>
</g>
<!-- Node12 -->
<g id="node12" class="node">
<title>Node12</title>
<g id="a_node12"><a xlink:href="structunilink_1_1transport_1_1TcpServer_1_1Impl.html#aacb7f54c77c8656225cc4004f2c29cbe" target="_top" xlink:title=" ">
<polygon fill="white" stroke="black" points="201.5,-0.5 201.5,-30.5 326.5,-30.5 326.5,-0.5 201.5,-0.5"/>
<text text-anchor="start" x="209.5" y="-18.5" font-family="Helvetica,sans-Serif" font-size="10.00">unilink::transport</text>
<text text-anchor="middle" x="264" y="-7.5" font-family="Helvetica,sans-Serif" font-size="10.00">::TcpServer::Impl::stop</text>
</a>
</g>
</g>
<!-- Node2&#45;&gt;Node12 -->
<g id="edge11" class="edge">
<title>Node2&#45;&gt;Node12</title>
<path fill="none" stroke="midnightblue" d="M433.14,-92.36C410.62,-76.08 377.58,-53.98 346,-39.5 338.8,-36.2 331.03,-33.22 323.26,-30.58"/>
<polygon fill="midnightblue" stroke="midnightblue" points="431.1,-95.2 441.24,-98.29 435.24,-89.55 431.1,-95.2"/>
</g>
<!-- Node4 -->
<g id="node4" class="node">
<title>Node4</title>
<g id="a_node4"><a xlink:href="classunilink_1_1builder_1_1UdsClientBuilder.html#ac6e2823d1ebe3652e527146e26591fc7" target="_top" xlink:title="Build and return the configured product.">
<polygon fill="white" stroke="black" points="1.5,-294.5 1.5,-324.5 144.5,-324.5 144.5,-294.5 1.5,-294.5"/>
<text text-anchor="start" x="9.5" y="-312.5" font-family="Helvetica,sans-Serif" font-size="10.00">unilink::builder::UdsClient</text>
<text text-anchor="middle" x="73" y="-301.5" font-family="Helvetica,sans-Serif" font-size="10.00">Builder::build</text>
</a>
</g>
</g>
<!-- Node3&#45;&gt;Node4 -->
<g id="edge3" class="edge">
<title>Node3&#45;&gt;Node4</title>
<path fill="none" stroke="midnightblue" d="M234.05,-232.61C211.04,-248.68 177.58,-270.52 146,-285.5 139.21,-288.72 131.88,-291.69 124.58,-294.37"/>
<polygon fill="midnightblue" stroke="midnightblue" points="236.18,-235.39 242.33,-226.76 232.14,-229.67 236.18,-235.39"/>
</g>
<!-- Node5 -->
<g id="node5" class="node">
<title>Node5</title>
<g id="a_node5"><a xlink:href="classunilink_1_1builder_1_1UdsServerBuilder.html#af36fef7a80d6e66d12b0b5b25c268ce0" target="_top" xlink:title="Build and return the configured product.">
<polygon fill="white" stroke="black" points="0,-245.5 0,-275.5 146,-275.5 146,-245.5 0,-245.5"/>
<text text-anchor="start" x="8" y="-263.5" font-family="Helvetica,sans-Serif" font-size="10.00">unilink::builder::UdsServer</text>
<text text-anchor="middle" x="73" y="-252.5" font-family="Helvetica,sans-Serif" font-size="10.00">Builder::build</text>
</a>
</g>
</g>
<!-- Node3&#45;&gt;Node5 -->
<g id="edge4" class="edge">
<title>Node3&#45;&gt;Node5</title>
<path fill="none" stroke="midnightblue" d="M195.31,-229.05C174.55,-234.43 151.92,-240.3 131.88,-245.49"/>
<polygon fill="midnightblue" stroke="midnightblue" points="196.21,-232.43 205.01,-226.53 194.45,-225.66 196.21,-232.43"/>
</g>
<!-- Node6 -->
<g id="node6" class="node">
<title>Node6</title>
<g id="a_node6"><a xlink:href="classunilink_1_1builder_1_1SerialBuilder.html#ad2fa923cd592bd38ad08c1a05cac7b32" target="_top" xlink:title=" ">
<polygon fill="white" stroke="black" points="11.5,-196.5 11.5,-226.5 134.5,-226.5 134.5,-196.5 11.5,-196.5"/>
<text text-anchor="start" x="19.5" y="-214.5" font-family="Helvetica,sans-Serif" font-size="10.00">unilink::builder::Serial</text>
<text text-anchor="middle" x="73" y="-203.5" font-family="Helvetica,sans-Serif" font-size="10.00">Builder::SerialBuilder</text>
</a>
</g>
</g>
<!-- Node3&#45;&gt;Node6 -->
<g id="edge5" class="edge">
<title>Node3&#45;&gt;Node6</title>
<path fill="none" stroke="midnightblue" d="M171.7,-211.5C159.12,-211.5 146.47,-211.5 134.63,-211.5"/>
<polygon fill="midnightblue" stroke="midnightblue" points="171.75,-215 181.75,-211.5 171.75,-208 171.75,-215"/>
</g>
<!-- Node7 -->
<g id="node7" class="node">
<title>Node7</title>
<g id="a_node7"><a xlink:href="classunilink_1_1builder_1_1TcpClientBuilder.html#a542ac2286704230421072569a5b3eb1d" target="_top" xlink:title=" ">
<polygon fill="white" stroke="black" points="3,-147.5 3,-177.5 143,-177.5 143,-147.5 3,-147.5"/>
<text text-anchor="start" x="11" y="-165.5" font-family="Helvetica,sans-Serif" font-size="10.00">unilink::builder::TcpClient</text>
<text text-anchor="middle" x="73" y="-154.5" font-family="Helvetica,sans-Serif" font-size="10.00">Builder::TcpClientBuilder</text>
</a>
</g>
</g>
<!-- Node3&#45;&gt;Node7 -->
<g id="edge6" class="edge">
<title>Node3&#45;&gt;Node7</title>
<path fill="none" stroke="midnightblue" d="M195.31,-193.95C174.55,-188.57 151.92,-182.7 131.88,-177.51"/>
<polygon fill="midnightblue" stroke="midnightblue" points="194.45,-197.34 205.01,-196.47 196.21,-190.57 194.45,-197.34"/>
</g>
<!-- Node8 -->
<g id="node8" class="node">
<title>Node8</title>
<g id="a_node8"><a xlink:href="classunilink_1_1builder_1_1TcpServerBuilder.html#a6b32df9046ce3f88bf450642edfa3707" target="_top" xlink:title=" ">
<polygon fill="white" stroke="black" points="1.5,-98.5 1.5,-128.5 144.5,-128.5 144.5,-98.5 1.5,-98.5"/>
<text text-anchor="start" x="9.5" y="-116.5" font-family="Helvetica,sans-Serif" font-size="10.00">unilink::builder::TcpServer</text>
<text text-anchor="middle" x="73" y="-105.5" font-family="Helvetica,sans-Serif" font-size="10.00">Builder::TcpServerBuilder</text>
</a>
</g>
</g>
<!-- Node3&#45;&gt;Node8 -->
<g id="edge7" class="edge">
<title>Node3&#45;&gt;Node8</title>
<path fill="none" stroke="midnightblue" d="M188.72,-191.76C186.4,-190.43 184.15,-189.01 182,-187.5 159.89,-171.96 167.74,-154.54 146,-138.5 140.78,-134.65 134.92,-131.36 128.86,-128.55"/>
<polygon fill="midnightblue" stroke="midnightblue" points="187.48,-195.06 197.98,-196.47 190.65,-188.82 187.48,-195.06"/>
</g>
</g>
</svg>
