<?xml version="1.0" encoding="UTF-8" standalone="no"?>
<!DOCTYPE svg PUBLIC "-//W3C//DTD SVG 1.1//EN"
 "http://www.w3.org/Graphics/SVG/1.1/DTD/svg11.dtd">
<!-- Generated by graphviz version 2.43.0 (0)
 -->
<!-- Title: unilink::transport::TcpServerSession::async_write_copy Pages: 1 -->
<svg width="321pt" height="253pt"
 viewBox="0.00 0.00 321.00 253.00" xmlns="http://www.w3.org/2000/svg" xmlns:xlink="http://www.w3.org/1999/xlink">

<svg id="main" version="1.1" xmlns="http://www.w3.org/2000/svg" xmlns:xlink="http://www.w3.org/1999/xlink" xml:space="preserve" onload="init(evt)">
<style type="text/css"><![CDATA[
.node, .edge {opacity: 0.7;}
.node.selected, .edge.selected {opacity: 1;}
.edge:hover path { stroke: red; }
.edge:hover polygon { stroke: red; fill: red; }
]]></style>
<script type="application/ecmascript" xlink:href="svg.min.js"/>
<svg id="graph" class="graph">
<g id="graph0" class="graph" transform="scale(1 1) rotate(0) translate(4 249)">
<title>unilink::transport::TcpServerSession::async_write_copy</title>
<!-- Node1 -->
<g id="Node000001" class="node">
<title>Node1</title>
<g id="a_Node000001"><a xlink:title=" ">
<polygon fill="#999999" stroke="#666666" points="113,-137.5 0,-137.5 0,-96.5 113,-96.5 113,-137.5"/>
<text text-anchor="start" x="8" y="-125.5" font-family="Helvetica,sans-Serif" font-size="10.00">unilink::transport</text>
<text text-anchor="start" x="8" y="-114.5" font-family="Helvetica,sans-Serif" font-size="10.00">::TcpServerSession::</text>
<text text-anchor="middle" x="56.5" y="-103.5" font-family="Helvetica,sans-Serif" font-size="10.00">async_write_copy</text>
</a>
</g>
</g>
<!-- Node2 -->
<g id="Node000002" class="node">
<title>Node2</title>
<g id="a_Node000002"><a xlink:href="classunilink_1_1memory_1_1PooledBuffer.html#a7aa1378391f5ef5a4ddbf6abff971f81" target="_top" xlink:title=" ">
<polygon fill="white" stroke="#666666" points="313,-245 149,-245 149,-215 313,-215 313,-245"/>
<text text-anchor="start" x="157" y="-233" font-family="Helvetica,sans-Serif" font-size="10.00">unilink::memory::PooledBuffer</text>
<text text-anchor="middle" x="231" y="-222" font-family="Helvetica,sans-Serif" font-size="10.00">::data</text>
</a>
</g>
</g>
<!-- Node1&#45;&gt;Node2 -->
<g id="edge1_Node000001_Node000002" class="edge">
<title>Node1&#45;&gt;Node2</title>
<g id="a_edge1_Node000001_Node000002"><a xlink:title=" ">
<path fill="none" stroke="#63b8ff" d="M73.54,-137.6C90.31,-157.8 118.4,-188.08 149,-206 152,-207.76 155.14,-209.4 158.37,-210.92"/>
<polygon fill="#63b8ff" stroke="#63b8ff" points="157.09,-214.18 167.66,-214.93 159.86,-207.75 157.09,-214.18"/>
</a>
</g>
</g>
<!-- Node3 -->
<g id="Node000003" class="node">
<title>Node3</title>
<g id="a_Node000003"><a xlink:href="structunilink_1_1diagnostics_1_1RuntimeStatsCounters.html#ab4f053a78d4b410cb2426d8f334b70b8" target="_top" xlink:title=" ">
<polygon fill="white" stroke="#666666" points="297,-196.5 165,-196.5 165,-155.5 297,-155.5 297,-196.5"/>
<text text-anchor="start" x="173" y="-184.5" font-family="Helvetica,sans-Serif" font-size="10.00">unilink::diagnostics</text>
<text text-anchor="start" x="173" y="-173.5" font-family="Helvetica,sans-Serif" font-size="10.00">::RuntimeStatsCounters</text>
<text text-anchor="middle" x="231" y="-162.5" font-family="Helvetica,sans-Serif" font-size="10.00">::record_accepted</text>
</a>
</g>
</g>
<!-- Node1&#45;&gt;Node3 -->
<g id="edge2_Node000001_Node000003" class="edge">
<title>Node1&#45;&gt;Node3</title>
<g id="a_edge2_Node000001_Node000003"><a xlink:title=" ">
<path fill="none" stroke="#63b8ff" d="M113.03,-135.99C128.04,-141.13 144.47,-146.75 160.16,-152.11"/>
<polygon fill="#63b8ff" stroke="#63b8ff" points="159.21,-155.49 169.8,-155.41 161.47,-148.86 159.21,-155.49"/>
</a>
</g>
</g>
<!-- Node4 -->
<g id="Node000004" class="node">
<title>Node4</title>
<g id="a_Node000004"><a xlink:href="structunilink_1_1diagnostics_1_1RuntimeStatsCounters.html#a1efdbf4c871d615e713348dfcd5e39ad" target="_top" xlink:title=" ">
<polygon fill="white" stroke="#666666" points="297,-137.5 165,-137.5 165,-96.5 297,-96.5 297,-137.5"/>
<text text-anchor="start" x="173" y="-125.5" font-family="Helvetica,sans-Serif" font-size="10.00">unilink::diagnostics</text>
<text text-anchor="start" x="173" y="-114.5" font-family="Helvetica,sans-Serif" font-size="10.00">::RuntimeStatsCounters</text>
<text text-anchor="middle" x="231" y="-103.5" font-family="Helvetica,sans-Serif" font-size="10.00">::record_failed_send</text>
</a>
</g>
</g>
<!-- Node1&#45;&gt;Node4 -->
<g id="edge3_Node000001_Node000004" class="edge">
<title>Node1&#45;&gt;Node4</title>
<g id="a_edge3_Node000001_Node000004"><a xlink:title=" ">
<path fill="none" stroke="#63b8ff" d="M113.03,-117C126.34,-117 140.78,-117 154.82,-117"/>
<polygon fill="#63b8ff" stroke="#63b8ff" points="154.95,-120.5 164.95,-117 154.95,-113.5 154.95,-120.5"/>
</a>
</g>
</g>
<!-- Node5 -->
<g id="Node000005" class="node">
<title>Node5</title>
<g id="a_Node000005"><a xlink:href="namespaceunilink_1_1base_1_1safe__memory.html#a4d7e2bd9069bd2febb47c18298fe5e0d" target="_top" xlink:title="Safely copy memory with bounds checking.">
<polygon fill="white" stroke="#666666" points="299.5,-78 162.5,-78 162.5,-48 299.5,-48 299.5,-78"/>
<text text-anchor="start" x="170.5" y="-66" font-family="Helvetica,sans-Serif" font-size="10.00">unilink::base::safe</text>
<text text-anchor="middle" x="231" y="-55" font-family="Helvetica,sans-Serif" font-size="10.00">_memory::safe_memcpy</text>
</a>
</g>
</g>
<!-- Node1&#45;&gt;Node5 -->
<g id="edge4_Node000001_Node000005" class="edge">
<title>Node1&#45;&gt;Node5</title>
<g id="a_edge4_Node000001_Node000005"><a xlink:title=" ">
<path fill="none" stroke="#63b8ff" d="M113.12,-99.3C124.96,-95.55 137.39,-91.63 149,-88 156.31,-85.71 163.99,-83.32 171.6,-80.97"/>
<polygon fill="#63b8ff" stroke="#63b8ff" points="172.63,-84.31 181.15,-78.01 170.56,-77.62 172.63,-84.31"/>
</a>
</g>
</g>
<!-- Node6 -->
<g id="Node000006" class="node">
<title>Node6</title>
<g id="a_Node000006"><a xlink:href="classunilink_1_1memory_1_1PooledBuffer.html#abf8fb1fa73f66373f96a9eb2821d6cbf" target="_top" xlink:title=" ">
<polygon fill="white" stroke="#666666" points="313,-30 149,-30 149,0 313,0 313,-30"/>
<text text-anchor="start" x="157" y="-18" font-family="Helvetica,sans-Serif" font-size="10.00">unilink::memory::PooledBuffer</text>
<text text-anchor="middle" x="231" y="-7" font-family="Helvetica,sans-Serif" font-size="10.00">::valid</text>
</a>
</g>
</g>
<!-- Node1&#45;&gt;Node6 -->
<g id="edge5_Node000001_Node000006" class="edge">
<title>Node1&#45;&gt;Node6</title>
<g id="a_edge5_Node000001_Node000006"><a xlink:title=" ">
<path fill="none" stroke="#63b8ff" d="M76.72,-96.33C94.08,-78.79 121.11,-54.13 149,-39 152.29,-37.22 155.72,-35.55 159.25,-34"/>
<polygon fill="#63b8ff" stroke="#63b8ff" points="160.79,-37.15 168.73,-30.14 158.15,-30.66 160.79,-37.15"/>
</a>
</g>
</g>
</g>
</svg>
</svg>

<style type='text/css'>
<![CDATA[
[data-mouse-over-selected='false'] { opacity: 0.7; }
[data-mouse-over-selected='true']  { opacity: 1.0; }
]]>
</style>
<script type="application/ecmascript"><![CDATA[
document.addEventListener('DOMContentLoaded', (event) => {
  highlightEdges();
  highlightAdjacentNodes();
});
]]></script>
</svg>
