<?xml version="1.0" encoding="UTF-8" standalone="no"?>
<!DOCTYPE svg PUBLIC "-//W3C//DTD SVG 1.1//EN"
 "http://www.w3.org/Graphics/SVG/1.1/DTD/svg11.dtd">
<!-- Generated by graphviz version 2.43.0 (0)
 -->
<!-- Title: unilink::wrapper::ServerInterface Pages: 1 -->
<svg width="480pt" height="453pt"
 viewBox="0.00 0.00 479.50 453.00" xmlns="http://www.w3.org/2000/svg" xmlns:xlink="http://www.w3.org/1999/xlink">
<g id="graph0" class="graph" transform="scale(1 1) rotate(0) translate(4 449)">
<title>unilink::wrapper::ServerInterface</title>
<!-- Node1 -->
<g id="Node000001" class="node">
<title>Node1</title>
<g id="a_Node000001"><a xlink:title="Interface for 1:N server communication (e.g., TcpServer)">
<polygon fill="#999999" stroke="transparent" points="298,-445 171,-445 171,-235 298,-235 298,-445"/>
<text text-anchor="start" x="176.5" y="-433" font-family="Helvetica,sans-Serif" font-size="10.00">unilink::wrapper::Server</text>
<text text-anchor="start" x="213" y="-422" font-family="Helvetica,sans-Serif" font-size="10.00">Interface</text>
<text text-anchor="start" x="233" y="-407" font-family="Helvetica,sans-Serif" font-size="10.00"> </text>
<text text-anchor="start" x="179" y="-392" font-family="Helvetica,sans-Serif" font-size="10.00">+</text>
<text text-anchor="start" x="195.5" y="-392" font-family="Helvetica,sans-Serif" font-size="10.00">~ServerInterface()</text>
<text text-anchor="start" x="179" y="-377" font-family="Helvetica,sans-Serif" font-size="10.00">+</text>
<text text-anchor="start" x="195.5" y="-377" font-family="Helvetica,sans-Serif" font-size="10.00">start()</text>
<text text-anchor="start" x="179" y="-362" font-family="Helvetica,sans-Serif" font-size="10.00">+</text>
<text text-anchor="start" x="195.5" y="-362" font-family="Helvetica,sans-Serif" font-size="10.00">start_sync()</text>
<text text-anchor="start" x="179" y="-347" font-family="Helvetica,sans-Serif" font-size="10.00">+</text>
<text text-anchor="start" x="195.5" y="-347" font-family="Helvetica,sans-Serif" font-size="10.00">stop()</text>
<text text-anchor="start" x="179" y="-332" font-family="Helvetica,sans-Serif" font-size="10.00">+</text>
<text text-anchor="start" x="195.5" y="-332" font-family="Helvetica,sans-Serif" font-size="10.00">listening()</text>
<text text-anchor="start" x="179" y="-317" font-family="Helvetica,sans-Serif" font-size="10.00">+</text>
<text text-anchor="start" x="195.5" y="-317" font-family="Helvetica,sans-Serif" font-size="10.00">broadcast()</text>
<text text-anchor="start" x="179" y="-302" font-family="Helvetica,sans-Serif" font-size="10.00">+</text>
<text text-anchor="start" x="195.5" y="-302" font-family="Helvetica,sans-Serif" font-size="10.00">send_to()</text>
<text text-anchor="start" x="179" y="-287" font-family="Helvetica,sans-Serif" font-size="10.00">+</text>
<text text-anchor="start" x="195.5" y="-287" font-family="Helvetica,sans-Serif" font-size="10.00">on_connect()</text>
<text text-anchor="start" x="179" y="-272" font-family="Helvetica,sans-Serif" font-size="10.00">+</text>
<text text-anchor="start" x="195.5" y="-272" font-family="Helvetica,sans-Serif" font-size="10.00">on_disconnect()</text>
<text text-anchor="start" x="179" y="-257" font-family="Helvetica,sans-Serif" font-size="10.00">+</text>
<text text-anchor="start" x="195.5" y="-257" font-family="Helvetica,sans-Serif" font-size="10.00">on_data()</text>
<text text-anchor="start" x="195.5" y="-242" font-family="Helvetica,sans-Serif" font-size="10.00">and 6 more...</text>
<polygon fill="#666666" stroke="#666666" points="171.5,-417 171.5,-417 298.5,-417 298.5,-417 171.5,-417"/>
<polygon fill="#666666" stroke="#666666" points="171.5,-402 171.5,-402 298.5,-402 298.5,-402 171.5,-402"/>
<polygon fill="none" stroke="#666666" points="171,-235 171,-445 298,-445 298,-235 171,-235"/>
</a>
</g>
</g>
<!-- Node2 -->
<g id="Node000002" class="node">
<title>Node2</title>
<g id="a_Node000002"><a xlink:href="classunilink_1_1wrapper_1_1TcpServer.html" target="_top" xlink:title="Modernized TCP Server Wrapper.">
<polygon fill="white" stroke="transparent" points="143,-199 0,-199 0,0 143,0 143,-199"/>
<text text-anchor="start" x="5.5" y="-186.5" font-family="Helvetica,sans-Serif" font-size="10.00">unilink::wrapper::TcpServer</text>
<text text-anchor="start" x="70" y="-171.5" font-family="Helvetica,sans-Serif" font-size="10.00"> </text>
<text text-anchor="start" x="17" y="-156.5" font-family="Helvetica,sans-Serif" font-size="10.00">+</text>
<text text-anchor="start" x="42.5" y="-156.5" font-family="Helvetica,sans-Serif" font-size="10.00">TcpServer()</text>
<text text-anchor="start" x="17" y="-141.5" font-family="Helvetica,sans-Serif" font-size="10.00">+</text>
<text text-anchor="start" x="42.5" y="-141.5" font-family="Helvetica,sans-Serif" font-size="10.00">TcpServer()</text>
<text text-anchor="start" x="17" y="-126.5" font-family="Helvetica,sans-Serif" font-size="10.00">+</text>
<text text-anchor="start" x="42.5" y="-126.5" font-family="Helvetica,sans-Serif" font-size="10.00">TcpServer()</text>
<text text-anchor="start" x="17" y="-111.5" font-family="Helvetica,sans-Serif" font-size="10.00">+</text>
<text text-anchor="start" x="42.5" y="-111.5" font-family="Helvetica,sans-Serif" font-size="10.00">~TcpServer()</text>
<text text-anchor="start" x="17" y="-96.5" font-family="Helvetica,sans-Serif" font-size="10.00">+</text>
<text text-anchor="start" x="42.5" y="-96.5" font-family="Helvetica,sans-Serif" font-size="10.00">TcpServer()</text>
<text text-anchor="start" x="17" y="-81.5" font-family="Helvetica,sans-Serif" font-size="10.00">+</text>
<text text-anchor="start" x="42.5" y="-81.5" font-family="Helvetica,sans-Serif" font-size="10.00">operator=()</text>
<text text-anchor="start" x="17" y="-66.5" font-family="Helvetica,sans-Serif" font-size="10.00">+</text>
<text text-anchor="start" x="42.5" y="-66.5" font-family="Helvetica,sans-Serif" font-size="10.00">TcpServer()</text>
<text text-anchor="start" x="17" y="-51.5" font-family="Helvetica,sans-Serif" font-size="10.00">+</text>
<text text-anchor="start" x="42.5" y="-51.5" font-family="Helvetica,sans-Serif" font-size="10.00">operator=()</text>
<text text-anchor="start" x="17" y="-36.5" font-family="Helvetica,sans-Serif" font-size="10.00">+</text>
<text text-anchor="start" x="42.5" y="-36.5" font-family="Helvetica,sans-Serif" font-size="10.00">start()</text>
<text text-anchor="start" x="17" y="-21.5" font-family="Helvetica,sans-Serif" font-size="10.00">+</text>
<text text-anchor="start" x="42.5" y="-21.5" font-family="Helvetica,sans-Serif" font-size="10.00">stop()</text>
<text text-anchor="start" x="42.5" y="-6.5" font-family="Helvetica,sans-Serif" font-size="10.00">and 17 more...</text>
<polygon fill="#666666" stroke="#666666" points="0.5,-181.5 0.5,-181.5 143.5,-181.5 143.5,-181.5 0.5,-181.5"/>
<polygon fill="#666666" stroke="#666666" points="0.5,-166.5 0.5,-166.5 143.5,-166.5 143.5,-166.5 0.5,-166.5"/>
<polygon fill="none" stroke="#666666" points="0,0 0,-199 143,-199 143,0 0,0"/>
</a>
</g>
</g>
<!-- Node1&#45;&gt;Node2 -->
<g id="edge1_Node000001_Node000002" class="edge">
<title>Node1&#45;&gt;Node2</title>
<g id="a_edge1_Node000001_Node000002"><a xlink:title=" ">
<path fill="none" stroke="#63b8ff" d="M165.11,-237.47C156.44,-224.79 147.58,-211.82 138.94,-199.18"/>
<polygon fill="none" stroke="#63b8ff" points="162.25,-239.48 170.78,-245.76 168.03,-235.53 162.25,-239.48"/>
</a>
</g>
</g>
<!-- Node3 -->
<g id="Node000003" class="node">
<title>Node3</title>
<g id="a_Node000003"><a xlink:href="classunilink_1_1wrapper_1_1UdpServer.html" target="_top" xlink:title="UDP implementation of ServerInterface using virtual sessions.">
<polygon fill="white" stroke="transparent" points="307.5,-199 161.5,-199 161.5,0 307.5,0 307.5,-199"/>
<text text-anchor="start" x="166.5" y="-186.5" font-family="Helvetica,sans-Serif" font-size="10.00">unilink::wrapper::UdpServer</text>
<text text-anchor="start" x="232.5" y="-171.5" font-family="Helvetica,sans-Serif" font-size="10.00"> </text>
<text text-anchor="start" x="179" y="-156.5" font-family="Helvetica,sans-Serif" font-size="10.00">+</text>
<text text-anchor="start" x="205.5" y="-156.5" font-family="Helvetica,sans-Serif" font-size="10.00">UdpServer()</text>
<text text-anchor="start" x="179" y="-141.5" font-family="Helvetica,sans-Serif" font-size="10.00">+</text>
<text text-anchor="start" x="205.5" y="-141.5" font-family="Helvetica,sans-Serif" font-size="10.00">UdpServer()</text>
<text text-anchor="start" x="179" y="-126.5" font-family="Helvetica,sans-Serif" font-size="10.00">+</text>
<text text-anchor="start" x="205.5" y="-126.5" font-family="Helvetica,sans-Serif" font-size="10.00">UdpServer()</text>
<text text-anchor="start" x="179" y="-111.5" font-family="Helvetica,sans-Serif" font-size="10.00">+</text>
<text text-anchor="start" x="205.5" y="-111.5" font-family="Helvetica,sans-Serif" font-size="10.00">UdpServer()</text>
<text text-anchor="start" x="179" y="-96.5" font-family="Helvetica,sans-Serif" font-size="10.00">+</text>
<text text-anchor="start" x="205.5" y="-96.5" font-family="Helvetica,sans-Serif" font-size="10.00">~UdpServer()</text>
<text text-anchor="start" x="179" y="-81.5" font-family="Helvetica,sans-Serif" font-size="10.00">+</text>
<text text-anchor="start" x="205.5" y="-81.5" font-family="Helvetica,sans-Serif" font-size="10.00">UdpServer()</text>
<text text-anchor="start" x="179" y="-66.5" font-family="Helvetica,sans-Serif" font-size="10.00">+</text>
<text text-anchor="start" x="205.5" y="-66.5" font-family="Helvetica,sans-Serif" font-size="10.00">operator=()</text>
<text text-anchor="start" x="179" y="-51.5" font-family="Helvetica,sans-Serif" font-size="10.00">+</text>
<text text-anchor="start" x="205.5" y="-51.5" font-family="Helvetica,sans-Serif" font-size="10.00">UdpServer()</text>
<text text-anchor="start" x="179" y="-36.5" font-family="Helvetica,sans-Serif" font-size="10.00">+</text>
<text text-anchor="start" x="205.5" y="-36.5" font-family="Helvetica,sans-Serif" font-size="10.00">operator=()</text>
<text text-anchor="start" x="179" y="-21.5" font-family="Helvetica,sans-Serif" font-size="10.00">+</text>
<text text-anchor="start" x="205.5" y="-21.5" font-family="Helvetica,sans-Serif" font-size="10.00">start()</text>
<text text-anchor="start" x="205.5" y="-6.5" font-family="Helvetica,sans-Serif" font-size="10.00">and 15 more...</text>
<polygon fill="#666666" stroke="#666666" points="161.5,-181.5 161.5,-181.5 307.5,-181.5 307.5,-181.5 161.5,-181.5"/>
<polygon fill="#666666" stroke="#666666" points="161.5,-166.5 161.5,-166.5 307.5,-166.5 307.5,-166.5 161.5,-166.5"/>
<polygon fill="none" stroke="#666666" points="161.5,0 161.5,-199 307.5,-199 307.5,0 161.5,0"/>
</a>
</g>
</g>
<!-- Node1&#45;&gt;Node3 -->
<g id="edge2_Node000001_Node000003" class="edge">
<title>Node1&#45;&gt;Node3</title>
<g id="a_edge2_Node000001_Node000003"><a xlink:title=" ">
<path fill="none" stroke="#63b8ff" d="M234.5,-224.48C234.5,-216.05 234.5,-207.59 234.5,-199.27"/>
<polygon fill="none" stroke="#63b8ff" points="231,-224.74 234.5,-234.74 238,-224.74 231,-224.74"/>
</a>
</g>
</g>
<!-- Node4 -->
<g id="Node000004" class="node">
<title>Node4</title>
<g id="a_Node000004"><a xlink:href="classunilink_1_1wrapper_1_1UdsServer.html" target="_top" xlink:title="Modernized UDS Server Wrapper.">
<polygon fill="white" stroke="transparent" points="471.5,-199 325.5,-199 325.5,0 471.5,0 471.5,-199"/>
<text text-anchor="start" x="330.5" y="-186.5" font-family="Helvetica,sans-Serif" font-size="10.00">unilink::wrapper::UdsServer</text>
<text text-anchor="start" x="396.5" y="-171.5" font-family="Helvetica,sans-Serif" font-size="10.00"> </text>
<text text-anchor="start" x="343" y="-156.5" font-family="Helvetica,sans-Serif" font-size="10.00">+</text>
<text text-anchor="start" x="369.5" y="-156.5" font-family="Helvetica,sans-Serif" font-size="10.00">UdsServer()</text>
<text text-anchor="start" x="343" y="-141.5" font-family="Helvetica,sans-Serif" font-size="10.00">+</text>
<text text-anchor="start" x="369.5" y="-141.5" font-family="Helvetica,sans-Serif" font-size="10.00">UdsServer()</text>
<text text-anchor="start" x="343" y="-126.5" font-family="Helvetica,sans-Serif" font-size="10.00">+</text>
<text text-anchor="start" x="369.5" y="-126.5" font-family="Helvetica,sans-Serif" font-size="10.00">UdsServer()</text>
<text text-anchor="start" x="343" y="-111.5" font-family="Helvetica,sans-Serif" font-size="10.00">+</text>
<text text-anchor="start" x="369.5" y="-111.5" font-family="Helvetica,sans-Serif" font-size="10.00">~UdsServer()</text>
<text text-anchor="start" x="343" y="-96.5" font-family="Helvetica,sans-Serif" font-size="10.00">+</text>
<text text-anchor="start" x="369.5" y="-96.5" font-family="Helvetica,sans-Serif" font-size="10.00">UdsServer()</text>
<text text-anchor="start" x="343" y="-81.5" font-family="Helvetica,sans-Serif" font-size="10.00">+</text>
<text text-anchor="start" x="369.5" y="-81.5" font-family="Helvetica,sans-Serif" font-size="10.00">operator=()</text>
<text text-anchor="start" x="343" y="-66.5" font-family="Helvetica,sans-Serif" font-size="10.00">+</text>
<text text-anchor="start" x="369.5" y="-66.5" font-family="Helvetica,sans-Serif" font-size="10.00">UdsServer()</text>
<text text-anchor="start" x="343" y="-51.5" font-family="Helvetica,sans-Serif" font-size="10.00">+</text>
<text text-anchor="start" x="369.5" y="-51.5" font-family="Helvetica,sans-Serif" font-size="10.00">operator=()</text>
<text text-anchor="start" x="343" y="-36.5" font-family="Helvetica,sans-Serif" font-size="10.00">+</text>
<text text-anchor="start" x="369.5" y="-36.5" font-family="Helvetica,sans-Serif" font-size="10.00">start()</text>
<text text-anchor="start" x="343" y="-21.5" font-family="Helvetica,sans-Serif" font-size="10.00">+</text>
<text text-anchor="start" x="369.5" y="-21.5" font-family="Helvetica,sans-Serif" font-size="10.00">stop()</text>
<text text-anchor="start" x="369.5" y="-6.5" font-family="Helvetica,sans-Serif" font-size="10.00">and 16 more...</text>
<polygon fill="#666666" stroke="#666666" points="325.5,-181.5 325.5,-181.5 471.5,-181.5 471.5,-181.5 325.5,-181.5"/>
<polygon fill="#666666" stroke="#666666" points="325.5,-166.5 325.5,-166.5 471.5,-166.5 471.5,-166.5 325.5,-166.5"/>
<polygon fill="none" stroke="#666666" points="325.5,0 325.5,-199 471.5,-199 471.5,0 325.5,0"/>
</a>
</g>
</g>
<!-- Node1&#45;&gt;Node4 -->
<g id="edge3_Node000001_Node000004" class="edge">
<title>Node1&#45;&gt;Node4</title>
<g id="a_edge3_Node000001_Node000004"><a xlink:title=" ">
<path fill="none" stroke="#63b8ff" d="M303.91,-238.06C312.73,-225.23 321.75,-212.11 330.55,-199.32"/>
<polygon fill="none" stroke="#63b8ff" points="300.92,-236.23 298.14,-246.45 306.69,-240.19 300.92,-236.23"/>
</a>
</g>
</g>
</g>
</svg>
