<?xml version="1.0" encoding="UTF-8" standalone="no"?>
<!DOCTYPE svg PUBLIC "-//W3C//DTD SVG 1.1//EN"
 "http://www.w3.org/Graphics/SVG/1.1/DTD/svg11.dtd">
<!-- Generated by graphviz version 2.43.0 (0)
 -->
<!-- Title: unilink::util::InputValidator::validate_uds_path Pages: 1 -->
<svg width="479pt" height="137pt"
 viewBox="0.00 0.00 479.00 137.00" xmlns="http://www.w3.org/2000/svg" xmlns:xlink="http://www.w3.org/1999/xlink">
<g id="graph0" class="graph" transform="scale(1 1) rotate(0) translate(4 133)">
<title>unilink::util::InputValidator::validate_uds_path</title>
<polygon fill="white" stroke="transparent" points="-4,4 -4,-133 475,-133 475,4 -4,4"/>
<!-- Node1 -->
<g id="node1" class="node">
<title>Node1</title>
<g id="a_node1"><a xlink:title=" ">
<polygon fill="#bfbfbf" stroke="black" points="0,-49.5 0,-79.5 146,-79.5 146,-49.5 0,-49.5"/>
<text text-anchor="start" x="8" y="-67.5" font-family="Helvetica,sans-Serif" font-size="10.00">unilink::util::InputValidator</text>
<text text-anchor="middle" x="73" y="-56.5" font-family="Helvetica,sans-Serif" font-size="10.00">::validate_uds_path</text>
</a>
</g>
</g>
<!-- Node2 -->
<g id="node2" class="node">
<title>Node2</title>
<g id="a_node2"><a xlink:href="classunilink_1_1util_1_1InputValidator.html#a3298d974c57b24bd36f9aad2f3520e2d" target="_top" xlink:title=" ">
<polygon fill="white" stroke="black" points="186.5,-98.5 186.5,-128.5 332.5,-128.5 332.5,-98.5 186.5,-98.5"/>
<text text-anchor="start" x="194.5" y="-116.5" font-family="Helvetica,sans-Serif" font-size="10.00">unilink::util::InputValidator</text>
<text text-anchor="middle" x="259.5" y="-105.5" font-family="Helvetica,sans-Serif" font-size="10.00">::is_valid_uds_path</text>
</a>
</g>
</g>
<!-- Node1&#45;&gt;Node2 -->
<g id="edge1" class="edge">
<title>Node1&#45;&gt;Node2</title>
<path fill="none" stroke="midnightblue" d="M130.61,-79.53C150.09,-84.71 172.08,-90.55 192.26,-95.91"/>
<polygon fill="midnightblue" stroke="midnightblue" points="191.43,-99.31 202,-98.49 193.23,-92.54 191.43,-99.31"/>
</g>
<!-- Node3 -->
<g id="node3" class="node">
<title>Node3</title>
<g id="a_node3"><a xlink:href="classunilink_1_1util_1_1InputValidator.html#a15826095cc62c98858780d969c1f8cbd" target="_top" xlink:title=" ">
<polygon fill="white" stroke="black" points="182,-49.5 182,-79.5 337,-79.5 337,-49.5 182,-49.5"/>
<text text-anchor="start" x="190" y="-67.5" font-family="Helvetica,sans-Serif" font-size="10.00">unilink::util::InputValidator</text>
<text text-anchor="middle" x="259.5" y="-56.5" font-family="Helvetica,sans-Serif" font-size="10.00">::validate_non_empty_string</text>
</a>
</g>
</g>
<!-- Node1&#45;&gt;Node3 -->
<g id="edge2" class="edge">
<title>Node1&#45;&gt;Node3</title>
<path fill="none" stroke="midnightblue" d="M146.13,-64.5C154.55,-64.5 163.21,-64.5 171.81,-64.5"/>
<polygon fill="midnightblue" stroke="midnightblue" points="171.86,-68 181.86,-64.5 171.86,-61 171.86,-68"/>
</g>
<!-- Node4 -->
<g id="node4" class="node">
<title>Node4</title>
<g id="a_node4"><a xlink:href="classunilink_1_1util_1_1InputValidator.html#acd37ecd589d7955ef4a2eef0d9b5639a" target="_top" xlink:title=" ">
<polygon fill="white" stroke="black" points="186.5,-0.5 186.5,-30.5 332.5,-30.5 332.5,-0.5 186.5,-0.5"/>
<text text-anchor="start" x="194.5" y="-18.5" font-family="Helvetica,sans-Serif" font-size="10.00">unilink::util::InputValidator</text>
<text text-anchor="middle" x="259.5" y="-7.5" font-family="Helvetica,sans-Serif" font-size="10.00">::validate_string_length</text>
</a>
</g>
</g>
<!-- Node1&#45;&gt;Node4 -->
<g id="edge3" class="edge">
<title>Node1&#45;&gt;Node4</title>
<path fill="none" stroke="midnightblue" d="M130.61,-49.47C150.09,-44.29 172.08,-38.45 192.26,-33.09"/>
<polygon fill="midnightblue" stroke="midnightblue" points="193.23,-36.46 202,-30.51 191.43,-29.69 193.23,-36.46"/>
</g>
<!-- Node5 -->
<g id="node5" class="node">
<title>Node5</title>
<g id="a_node5"><a xlink:href="namespaceunilink.html#a945182ee4d2e3137a6c39f60501f5355" target="_top" xlink:title="Convert ErrorCode to human&#45;readable string.">
<polygon fill="white" stroke="black" points="373,-6 373,-25 471,-25 471,-6 373,-6"/>
<text text-anchor="middle" x="422" y="-13" font-family="Helvetica,sans-Serif" font-size="10.00">unilink::to_string</text>
</a>
</g>
</g>
<!-- Node4&#45;&gt;Node5 -->
<g id="edge4" class="edge">
<title>Node4&#45;&gt;Node5</title>
<path fill="none" stroke="midnightblue" d="M332.77,-15.5C342.67,-15.5 352.73,-15.5 362.34,-15.5"/>
<polygon fill="midnightblue" stroke="midnightblue" points="362.57,-19 372.57,-15.5 362.57,-12 362.57,-19"/>
</g>
</g>
</svg>
