<?xml version="1.0" encoding="UTF-8" standalone="no"?>
<!DOCTYPE svg PUBLIC "-//W3C//DTD SVG 1.1//EN"
 "http://www.w3.org/Graphics/SVG/1.1/DTD/svg11.dtd">
<!-- Generated by graphviz version 2.43.0 (0)
 -->
<!-- Title: unilink::wrapper::UdpClient::send Pages: 1 -->
<svg width="342pt" height="88pt"
 viewBox="0.00 0.00 342.00 88.00" xmlns="http://www.w3.org/2000/svg" xmlns:xlink="http://www.w3.org/1999/xlink">
<g id="graph0" class="graph" transform="scale(1 1) rotate(0) translate(4 84)">
<title>unilink::wrapper::UdpClient::send</title>
<polygon fill="white" stroke="transparent" points="-4,4 -4,-84 338,-84 338,4 -4,4"/>
<!-- Node1 -->
<g id="node1" class="node">
<title>Node1</title>
<g id="a_node1"><a xlink:title="Enqueue data for transmission.">
<polygon fill="#bfbfbf" stroke="black" points="0,-24.5 0,-54.5 149,-54.5 149,-24.5 0,-24.5"/>
<text text-anchor="start" x="8" y="-42.5" font-family="Helvetica,sans-Serif" font-size="10.00">unilink::wrapper::UdpClient</text>
<text text-anchor="middle" x="74.5" y="-31.5" font-family="Helvetica,sans-Serif" font-size="10.00">::send</text>
</a>
</g>
</g>
<!-- Node2 -->
<g id="node2" class="node">
<title>Node2</title>
<g id="a_node2"><a xlink:href="classunilink_1_1wrapper_1_1UdpClient.html#ad16cce62431aa696336ba43b47a422b8" target="_top" xlink:title=" ">
<polygon fill="white" stroke="black" points="185,-49.5 185,-79.5 334,-79.5 334,-49.5 185,-49.5"/>
<text text-anchor="start" x="193" y="-67.5" font-family="Helvetica,sans-Serif" font-size="10.00">unilink::wrapper::UdpClient</text>
<text text-anchor="middle" x="259.5" y="-56.5" font-family="Helvetica,sans-Serif" font-size="10.00">::connected</text>
</a>
</g>
</g>
<!-- Node1&#45;&gt;Node2 -->
<g id="edge1" class="edge">
<title>Node1&#45;&gt;Node2</title>
<path fill="none" stroke="midnightblue" d="M149.14,-49.56C157.57,-50.71 166.2,-51.89 174.74,-53.06"/>
<polygon fill="midnightblue" stroke="midnightblue" points="174.33,-56.53 184.71,-54.42 175.28,-49.6 174.33,-56.53"/>
</g>
<!-- Node3 -->
<g id="node3" class="node">
<title>Node3</title>
<g id="a_node3"><a xlink:href="namespaceunilink_1_1base_1_1safe__convert.html#a853a1e8b21339030dc0176b78ffe75ac" target="_top" xlink:title="Safely obtain a view of std::string as byte array without allocation.">
<polygon fill="white" stroke="black" points="189.5,-0.5 189.5,-30.5 329.5,-30.5 329.5,-0.5 189.5,-0.5"/>
<text text-anchor="start" x="197.5" y="-18.5" font-family="Helvetica,sans-Serif" font-size="10.00">unilink::base::safe</text>
<text text-anchor="middle" x="259.5" y="-7.5" font-family="Helvetica,sans-Serif" font-size="10.00">_convert::string_to_bytes</text>
</a>
</g>
</g>
<!-- Node1&#45;&gt;Node3 -->
<g id="edge2" class="edge">
<title>Node1&#45;&gt;Node3</title>
<path fill="none" stroke="midnightblue" d="M149.14,-29.84C159.12,-28.53 169.4,-27.19 179.47,-25.86"/>
<polygon fill="midnightblue" stroke="midnightblue" points="180,-29.33 189.46,-24.56 179.08,-22.39 180,-29.33"/>
</g>
</g>
</svg>
