<?xml version="1.0" encoding="UTF-8" standalone="no"?>
<!DOCTYPE svg PUBLIC "-//W3C//DTD SVG 1.1//EN"
 "http://www.w3.org/Graphics/SVG/1.1/DTD/svg11.dtd">
<!-- Generated by graphviz version 2.43.0 (0)
 -->
<!-- Title: unilink::memory::ScopedMemoryTracker Pages: 1 -->
<svg width="180pt" height="113pt"
 viewBox="0.00 0.00 180.00 113.00" xmlns="http://www.w3.org/2000/svg" xmlns:xlink="http://www.w3.org/1999/xlink">
<g id="graph0" class="graph" transform="scale(1 1) rotate(0) translate(4 109)">
<title>unilink::memory::ScopedMemoryTracker</title>
<!-- Node1 -->
<g id="Node000001" class="node">
<title>Node1</title>
<g id="a_Node000001"><a xlink:title="RAII helper for automatic memory tracking.">
<polygon fill="#999999" stroke="transparent" points="172,-105 0,-105 0,0 172,0 172,-105"/>
<text text-anchor="start" x="5" y="-92.5" font-family="Helvetica,sans-Serif" font-size="10.00">unilink::memory::ScopedMemory</text>
<text text-anchor="start" x="68.5" y="-81.5" font-family="Helvetica,sans-Serif" font-size="10.00">Tracker</text>
<text text-anchor="start" x="84" y="-66.5" font-family="Helvetica,sans-Serif" font-size="10.00"> </text>
<text text-anchor="start" x="10" y="-51.5" font-family="Helvetica,sans-Serif" font-size="10.00">+</text>
<text text-anchor="start" x="29" y="-51.5" font-family="Helvetica,sans-Serif" font-size="10.00">ScopedMemoryTracker()</text>
<text text-anchor="start" x="10" y="-36.5" font-family="Helvetica,sans-Serif" font-size="10.00">+</text>
<text text-anchor="start" x="29" y="-36.5" font-family="Helvetica,sans-Serif" font-size="10.00">~ScopedMemoryTracker()</text>
<text text-anchor="start" x="10" y="-21.5" font-family="Helvetica,sans-Serif" font-size="10.00">+</text>
<text text-anchor="start" x="29" y="-21.5" font-family="Helvetica,sans-Serif" font-size="10.00">track_allocation()</text>
<text text-anchor="start" x="10" y="-6.5" font-family="Helvetica,sans-Serif" font-size="10.00">+</text>
<text text-anchor="start" x="29" y="-6.5" font-family="Helvetica,sans-Serif" font-size="10.00">track_deallocation()</text>
<polygon fill="#666666" stroke="#666666" points="0,-76.5 0,-76.5 172,-76.5 172,-76.5 0,-76.5"/>
<polygon fill="#666666" stroke="#666666" points="0,-61.5 0,-61.5 172,-61.5 172,-61.5 0,-61.5"/>
<polygon fill="none" stroke="#666666" points="0,0 0,-105 172,-105 172,0 0,0"/>
</a>
</g>
</g>
</g>
</svg>
