<?xml version="1.0" encoding="UTF-8" standalone="no"?>
<!DOCTYPE svg PUBLIC "-//W3C//DTD SVG 1.1//EN"
 "http://www.w3.org/Graphics/SVG/1.1/DTD/svg11.dtd">
<!-- Generated by graphviz version 2.43.0 (0)
 -->
<!-- Title: unilink::diagnostics::ConfigurationException Pages: 1 -->
<svg width="159pt" height="354pt"
 viewBox="0.00 0.00 159.00 354.00" xmlns="http://www.w3.org/2000/svg" xmlns:xlink="http://www.w3.org/1999/xlink">

<svg id="main" version="1.1" xmlns="http://www.w3.org/2000/svg" xmlns:xlink="http://www.w3.org/1999/xlink" xml:space="preserve" onload="init(evt)">
<style type="text/css"><![CDATA[
.node, .edge {opacity: 0.7;}
.node.selected, .edge.selected {opacity: 1;}
.edge:hover path { stroke: red; }
.edge:hover polygon { stroke: red; fill: red; }
]]></style>
<script type="application/ecmascript" xlink:href="svg.min.js"/>
<svg id="graph" class="graph">
<g id="graph0" class="graph" transform="scale(1 1) rotate(0) translate(4 350)">
<title>unilink::diagnostics::ConfigurationException</title>
<!-- Node1 -->
<g id="Node000001" class="node">
<title>Node1</title>
<g id="a_Node000001"><a xlink:title="Exception thrown during configuration operations.">
<polygon fill="#999999" stroke="transparent" points="151,-105 0,-105 0,0 151,0 151,-105"/>
<text text-anchor="start" x="16" y="-92.5" font-family="Helvetica,sans-Serif" font-size="10.00">unilink::diagnostics</text>
<text text-anchor="start" x="16" y="-81.5" font-family="Helvetica,sans-Serif" font-size="10.00">::ConfigurationException</text>
<text text-anchor="start" x="74" y="-66.5" font-family="Helvetica,sans-Serif" font-size="10.00"> </text>
<text text-anchor="start" x="4.5" y="-51.5" font-family="Helvetica,sans-Serif" font-size="10.00">+</text>
<text text-anchor="start" x="17.5" y="-51.5" font-family="Helvetica,sans-Serif" font-size="10.00">ConfigurationException()</text>
<text text-anchor="start" x="4.5" y="-36.5" font-family="Helvetica,sans-Serif" font-size="10.00">+</text>
<text text-anchor="start" x="17.5" y="-36.5" font-family="Helvetica,sans-Serif" font-size="10.00">~ConfigurationException()</text>
<text text-anchor="start" x="4.5" y="-21.5" font-family="Helvetica,sans-Serif" font-size="10.00">+</text>
<text text-anchor="start" x="17.5" y="-21.5" font-family="Helvetica,sans-Serif" font-size="10.00">config_section()</text>
<text text-anchor="start" x="4.5" y="-6.5" font-family="Helvetica,sans-Serif" font-size="10.00">+</text>
<text text-anchor="start" x="17.5" y="-6.5" font-family="Helvetica,sans-Serif" font-size="10.00">full_message()</text>
<polygon fill="#666666" stroke="#666666" points="0.5,-76.5 0.5,-76.5 151.5,-76.5 151.5,-76.5 0.5,-76.5"/>
<polygon fill="#666666" stroke="#666666" points="0.5,-61.5 0.5,-61.5 151.5,-61.5 151.5,-61.5 0.5,-61.5"/>
<polygon fill="none" stroke="#666666" points="0,0 0,-105 151,-105 151,0 0,0"/>
</a>
</g>
</g>
<!-- Node2 -->
<g id="Node000002" class="node">
<title>Node2</title>
<g id="a_Node000002"><a xlink:href="classunilink_1_1diagnostics_1_1UnilinkException.html" target="_top" xlink:title="Base exception class for all unilink exceptions.">
<polygon fill="white" stroke="transparent" points="135.5,-261 15.5,-261 15.5,-141 135.5,-141 135.5,-261"/>
<text text-anchor="start" x="28" y="-249" font-family="Helvetica,sans-Serif" font-size="10.00">unilink::diagnostics</text>
<text text-anchor="start" x="31" y="-238" font-family="Helvetica,sans-Serif" font-size="10.00">::UnilinkException</text>
<text text-anchor="start" x="73.5" y="-223" font-family="Helvetica,sans-Serif" font-size="10.00"> </text>
<text text-anchor="start" x="19.5" y="-208" font-family="Helvetica,sans-Serif" font-size="10.00">+</text>
<text text-anchor="start" x="32.5" y="-208" font-family="Helvetica,sans-Serif" font-size="10.00">UnilinkException()</text>
<text text-anchor="start" x="19.5" y="-193" font-family="Helvetica,sans-Serif" font-size="10.00">+</text>
<text text-anchor="start" x="32.5" y="-193" font-family="Helvetica,sans-Serif" font-size="10.00">~UnilinkException()</text>
<text text-anchor="start" x="19.5" y="-178" font-family="Helvetica,sans-Serif" font-size="10.00">+</text>
<text text-anchor="start" x="32.5" y="-178" font-family="Helvetica,sans-Serif" font-size="10.00">component()</text>
<text text-anchor="start" x="19.5" y="-163" font-family="Helvetica,sans-Serif" font-size="10.00">+</text>
<text text-anchor="start" x="32.5" y="-163" font-family="Helvetica,sans-Serif" font-size="10.00">operation()</text>
<text text-anchor="start" x="19.5" y="-148" font-family="Helvetica,sans-Serif" font-size="10.00">+</text>
<text text-anchor="start" x="32.5" y="-148" font-family="Helvetica,sans-Serif" font-size="10.00">full_message()</text>
<polygon fill="#666666" stroke="#666666" points="15.5,-233 15.5,-233 135.5,-233 135.5,-233 15.5,-233"/>
<polygon fill="#666666" stroke="#666666" points="15.5,-218 15.5,-218 135.5,-218 135.5,-218 15.5,-218"/>
<polygon fill="none" stroke="#666666" points="15.5,-141 15.5,-261 135.5,-261 135.5,-141 15.5,-141"/>
</a>
</g>
</g>
<!-- Node2&#45;&gt;Node1 -->
<g id="edge1_Node000001_Node000002" class="edge">
<title>Node2&#45;&gt;Node1</title>
<g id="a_edge1_Node000001_Node000002"><a xlink:title=" ">
<path fill="none" stroke="#63b8ff" d="M75.5,-130.83C75.5,-122.25 75.5,-113.6 75.5,-105.34"/>
<polygon fill="none" stroke="#63b8ff" points="72,-130.84 75.5,-140.84 79,-130.84 72,-130.84"/>
</a>
</g>
</g>
<!-- Node3 -->
<g id="Node000003" class="node">
<title>Node3</title>
<g id="a_Node000003"><a xlink:title=" ">
<polygon fill="white" stroke="transparent" points="124.5,-346 26.5,-346 26.5,-297 124.5,-297 124.5,-346"/>
<text text-anchor="start" x="31.5" y="-333.5" font-family="Helvetica,sans-Serif" font-size="10.00">std::runtime_error</text>
<text text-anchor="start" x="73.5" y="-318.5" font-family="Helvetica,sans-Serif" font-size="10.00"> </text>
<text text-anchor="start" x="73.5" y="-303.5" font-family="Helvetica,sans-Serif" font-size="10.00"> </text>
<polygon fill="#666666" stroke="#666666" points="26.5,-328.5 26.5,-328.5 124.5,-328.5 124.5,-328.5 26.5,-328.5"/>
<polygon fill="#666666" stroke="#666666" points="26.5,-313.5 26.5,-313.5 124.5,-313.5 124.5,-313.5 26.5,-313.5"/>
<polygon fill="none" stroke="#666666" points="26.5,-297 26.5,-346 124.5,-346 124.5,-297 26.5,-297"/>
</a>
</g>
</g>
<!-- Node3&#45;&gt;Node2 -->
<g id="edge2_Node000002_Node000003" class="edge">
<title>Node3&#45;&gt;Node2</title>
<g id="a_edge2_Node000002_Node000003"><a xlink:title=" ">
<path fill="none" stroke="#63b8ff" d="M75.5,-286.59C75.5,-278.71 75.5,-270.09 75.5,-261.47"/>
<polygon fill="none" stroke="#63b8ff" points="72,-286.8 75.5,-296.8 79,-286.8 72,-286.8"/>
</a>
</g>
</g>
</g>
</svg>
</svg>

<style type='text/css'>
<![CDATA[
[data-mouse-over-selected='false'] { opacity: 0.7; }
[data-mouse-over-selected='true']  { opacity: 1.0; }
]]>
</style>
<script type="application/ecmascript"><![CDATA[
document.addEventListener('DOMContentLoaded', (event) => {
  highlightEdges();
  highlightAdjacentNodes();
});
]]></script>
</svg>
