<?xml version="1.0" encoding="UTF-8" standalone="no"?>
<!DOCTYPE svg PUBLIC "-//W3C//DTD SVG 1.1//EN"
 "http://www.w3.org/Graphics/SVG/1.1/DTD/svg11.dtd">
<!-- Generated by graphviz version 2.43.0 (0)
 -->
<!-- Title: unilink::factory::ChannelFactory::create Pages: 1 -->
<svg width="331pt" height="333pt"
 viewBox="0.00 0.00 331.00 333.00" xmlns="http://www.w3.org/2000/svg" xmlns:xlink="http://www.w3.org/1999/xlink">
<g id="graph0" class="graph" transform="scale(1 1) rotate(0) translate(4 329)">
<title>unilink::factory::ChannelFactory::create</title>
<polygon fill="white" stroke="transparent" points="-4,4 -4,-329 327,-329 327,4 -4,4"/>
<!-- Node1 -->
<g id="node1" class="node">
<title>Node1</title>
<g id="a_node1"><a xlink:title=" ">
<polygon fill="#bfbfbf" stroke="black" points="188,-147.5 188,-177.5 323,-177.5 323,-147.5 188,-147.5"/>
<text text-anchor="start" x="196" y="-165.5" font-family="Helvetica,sans-Serif" font-size="10.00">unilink::factory::Channel</text>
<text text-anchor="middle" x="255.5" y="-154.5" font-family="Helvetica,sans-Serif" font-size="10.00">Factory::create</text>
</a>
</g>
</g>
<!-- Node2 -->
<g id="node2" class="node">
<title>Node2</title>
<g id="a_node2"><a xlink:href="structunilink_1_1wrapper_1_1Serial_1_1Impl.html#ade318d3f130981eecc92b908dbb471cf" target="_top" xlink:title=" ">
<polygon fill="white" stroke="black" points="11.5,-294.5 11.5,-324.5 140.5,-324.5 140.5,-294.5 11.5,-294.5"/>
<text text-anchor="start" x="19.5" y="-312.5" font-family="Helvetica,sans-Serif" font-size="10.00">unilink::wrapper::Serial</text>
<text text-anchor="middle" x="76" y="-301.5" font-family="Helvetica,sans-Serif" font-size="10.00">::Impl::start</text>
</a>
</g>
</g>
<!-- Node1&#45;&gt;Node2 -->
<g id="edge1" class="edge">
<title>Node1&#45;&gt;Node2</title>
<path fill="none" stroke="midnightblue" d="M240.5,-186.41C223.11,-214.11 190.94,-259.27 152,-285.5 146.9,-288.94 141.27,-291.91 135.46,-294.47"/>
<polygon fill="midnightblue" stroke="midnightblue" points="243.57,-188.1 245.82,-177.74 237.61,-184.44 243.57,-188.1"/>
</g>
<!-- Node3 -->
<g id="node3" class="node">
<title>Node3</title>
<g id="a_node3"><a xlink:href="structunilink_1_1wrapper_1_1TcpClient_1_1Impl.html#ad28d0b43728cdfd96c5fb9563d585b56" target="_top" xlink:title=" ">
<polygon fill="white" stroke="black" points="3,-245.5 3,-275.5 149,-275.5 149,-245.5 3,-245.5"/>
<text text-anchor="start" x="11" y="-263.5" font-family="Helvetica,sans-Serif" font-size="10.00">unilink::wrapper::TcpClient</text>
<text text-anchor="middle" x="76" y="-252.5" font-family="Helvetica,sans-Serif" font-size="10.00">::Impl::start</text>
</a>
</g>
</g>
<!-- Node1&#45;&gt;Node3 -->
<g id="edge2" class="edge">
<title>Node1&#45;&gt;Node3</title>
<path fill="none" stroke="midnightblue" d="M229.17,-184.29C209.27,-200.51 180.29,-222.22 152,-236.5 145.41,-239.83 138.26,-242.82 131.09,-245.47"/>
<polygon fill="midnightblue" stroke="midnightblue" points="231.64,-186.79 237.11,-177.72 227.17,-181.4 231.64,-186.79"/>
</g>
<!-- Node4 -->
<g id="node4" class="node">
<title>Node4</title>
<g id="a_node4"><a xlink:href="structunilink_1_1wrapper_1_1TcpServer_1_1Impl.html#acde93124f9a0055182ac36eadca0c7b2" target="_top" xlink:title=" ">
<polygon fill="white" stroke="black" points="1.5,-196.5 1.5,-226.5 150.5,-226.5 150.5,-196.5 1.5,-196.5"/>
<text text-anchor="start" x="9.5" y="-214.5" font-family="Helvetica,sans-Serif" font-size="10.00">unilink::wrapper::TcpServer</text>
<text text-anchor="middle" x="76" y="-203.5" font-family="Helvetica,sans-Serif" font-size="10.00">::Impl::start</text>
</a>
</g>
</g>
<!-- Node1&#45;&gt;Node4 -->
<g id="edge3" class="edge">
<title>Node1&#45;&gt;Node4</title>
<path fill="none" stroke="midnightblue" d="M189.94,-180.32C170.78,-185.61 149.98,-191.35 131.52,-196.45"/>
<polygon fill="midnightblue" stroke="midnightblue" points="191.09,-183.64 199.8,-177.6 189.22,-176.89 191.09,-183.64"/>
</g>
<!-- Node5 -->
<g id="node5" class="node">
<title>Node5</title>
<g id="a_node5"><a xlink:href="structunilink_1_1wrapper_1_1UdpClient_1_1Impl.html#a45fc3fe16ef51a8676351b1679241158" target="_top" xlink:title=" ">
<polygon fill="white" stroke="black" points="1.5,-147.5 1.5,-177.5 150.5,-177.5 150.5,-147.5 1.5,-147.5"/>
<text text-anchor="start" x="9.5" y="-165.5" font-family="Helvetica,sans-Serif" font-size="10.00">unilink::wrapper::UdpClient</text>
<text text-anchor="middle" x="76" y="-154.5" font-family="Helvetica,sans-Serif" font-size="10.00">::Impl::start</text>
</a>
</g>
</g>
<!-- Node1&#45;&gt;Node5 -->
<g id="edge4" class="edge">
<title>Node1&#45;&gt;Node5</title>
<path fill="none" stroke="midnightblue" d="M177.78,-162.5C168.74,-162.5 159.52,-162.5 150.52,-162.5"/>
<polygon fill="midnightblue" stroke="midnightblue" points="177.9,-166 187.9,-162.5 177.9,-159 177.9,-166"/>
</g>
<!-- Node6 -->
<g id="node6" class="node">
<title>Node6</title>
<g id="a_node6"><a xlink:href="structunilink_1_1wrapper_1_1UdpServer_1_1Impl.html#ade395c124360004d54b427955544e2d5" target="_top" xlink:title=" ">
<polygon fill="white" stroke="black" points="0,-98.5 0,-128.5 152,-128.5 152,-98.5 0,-98.5"/>
<text text-anchor="start" x="8" y="-116.5" font-family="Helvetica,sans-Serif" font-size="10.00">unilink::wrapper::UdpServer</text>
<text text-anchor="middle" x="76" y="-105.5" font-family="Helvetica,sans-Serif" font-size="10.00">::Impl::start</text>
</a>
</g>
</g>
<!-- Node1&#45;&gt;Node6 -->
<g id="edge5" class="edge">
<title>Node1&#45;&gt;Node6</title>
<path fill="none" stroke="midnightblue" d="M189.94,-144.68C170.78,-139.39 149.98,-133.65 131.52,-128.55"/>
<polygon fill="midnightblue" stroke="midnightblue" points="189.22,-148.11 199.8,-147.4 191.09,-141.36 189.22,-148.11"/>
</g>
<!-- Node7 -->
<g id="node7" class="node">
<title>Node7</title>
<g id="a_node7"><a xlink:href="structunilink_1_1wrapper_1_1UdsClient_1_1Impl.html#a23c99510bffe036232e15a4a0fecccf7" target="_top" xlink:title=" ">
<polygon fill="white" stroke="black" points="1.5,-49.5 1.5,-79.5 150.5,-79.5 150.5,-49.5 1.5,-49.5"/>
<text text-anchor="start" x="9.5" y="-67.5" font-family="Helvetica,sans-Serif" font-size="10.00">unilink::wrapper::UdsClient</text>
<text text-anchor="middle" x="76" y="-56.5" font-family="Helvetica,sans-Serif" font-size="10.00">::Impl::start</text>
</a>
</g>
</g>
<!-- Node1&#45;&gt;Node7 -->
<g id="edge6" class="edge">
<title>Node1&#45;&gt;Node7</title>
<path fill="none" stroke="midnightblue" d="M228.7,-140.83C208.77,-124.92 179.95,-103.71 152,-89.5 144.78,-85.83 136.91,-82.52 129.06,-79.61"/>
<polygon fill="midnightblue" stroke="midnightblue" points="226.7,-143.71 236.68,-147.28 231.11,-138.27 226.7,-143.71"/>
</g>
<!-- Node8 -->
<g id="node8" class="node">
<title>Node8</title>
<g id="a_node8"><a xlink:href="structunilink_1_1wrapper_1_1UdsServer_1_1Impl.html#a2883eed89960c9412febc1635c3bfa4d" target="_top" xlink:title=" ">
<polygon fill="white" stroke="black" points="0,-0.5 0,-30.5 152,-30.5 152,-0.5 0,-0.5"/>
<text text-anchor="start" x="8" y="-18.5" font-family="Helvetica,sans-Serif" font-size="10.00">unilink::wrapper::UdsServer</text>
<text text-anchor="middle" x="76" y="-7.5" font-family="Helvetica,sans-Serif" font-size="10.00">::Impl::start</text>
</a>
</g>
</g>
<!-- Node1&#45;&gt;Node8 -->
<g id="edge7" class="edge">
<title>Node1&#45;&gt;Node8</title>
<path fill="none" stroke="midnightblue" d="M240.4,-138.87C222.92,-111.48 190.65,-66.76 152,-40.5 146.32,-36.64 140,-33.34 133.51,-30.52"/>
<polygon fill="midnightblue" stroke="midnightblue" points="237.49,-140.81 245.75,-147.44 243.42,-137.1 237.49,-140.81"/>
</g>
</g>
</svg>
