<?xml version="1.0" encoding="UTF-8" standalone="no"?>
<!DOCTYPE svg PUBLIC "-//W3C//DTD SVG 1.1//EN"
 "http://www.w3.org/Graphics/SVG/1.1/DTD/svg11.dtd">
<!-- Generated by graphviz version 2.43.0 (0)
 -->
<!-- Title: unilink::wrapper::UdsServer::start Pages: 1 -->
<svg width="348pt" height="57pt"
 viewBox="0.00 0.00 348.00 57.00" xmlns="http://www.w3.org/2000/svg" xmlns:xlink="http://www.w3.org/1999/xlink">
<g id="graph0" class="graph" transform="scale(1 1) rotate(0) translate(4 53)">
<title>unilink::wrapper::UdsServer::start</title>
<polygon fill="white" stroke="transparent" points="-4,4 -4,-53 344,-53 344,4 -4,4"/>
<!-- Node1 -->
<g id="node1" class="node">
<title>Node1</title>
<g id="a_node1"><a xlink:title=" ">
<polygon fill="#bfbfbf" stroke="black" points="188,-0.5 188,-30.5 340,-30.5 340,-0.5 188,-0.5"/>
<text text-anchor="start" x="196" y="-18.5" font-family="Helvetica,sans-Serif" font-size="10.00">unilink::wrapper::UdsServer</text>
<text text-anchor="middle" x="264" y="-7.5" font-family="Helvetica,sans-Serif" font-size="10.00">::start</text>
</a>
</g>
</g>
<!-- Node1&#45;&gt;Node1 -->
<g id="edge2" class="edge">
<title>Node1&#45;&gt;Node1</title>
<path fill="none" stroke="midnightblue" d="M297.41,-40.96C293.26,-45.68 282.12,-49 264,-49 234.26,-49 223.34,-40.06 231.24,-30.66"/>
<polygon fill="midnightblue" stroke="midnightblue" points="300.88,-40.42 296.76,-30.66 293.89,-40.86 300.88,-40.42"/>
</g>
<!-- Node2 -->
<g id="node2" class="node">
<title>Node2</title>
<g id="a_node2"><a xlink:href="classunilink_1_1wrapper_1_1UdsServer.html#a555d7306f5283a1d798179a7341e6897" target="_top" xlink:title=" ">
<polygon fill="white" stroke="black" points="0,-0.5 0,-30.5 152,-30.5 152,-0.5 0,-0.5"/>
<text text-anchor="start" x="8" y="-18.5" font-family="Helvetica,sans-Serif" font-size="10.00">unilink::wrapper::UdsServer</text>
<text text-anchor="middle" x="76" y="-7.5" font-family="Helvetica,sans-Serif" font-size="10.00">::auto_start</text>
</a>
</g>
</g>
<!-- Node1&#45;&gt;Node2 -->
<g id="edge1" class="edge">
<title>Node1&#45;&gt;Node2</title>
<path fill="none" stroke="midnightblue" d="M177.85,-15.5C169.26,-15.5 160.57,-15.5 152.1,-15.5"/>
<polygon fill="midnightblue" stroke="midnightblue" points="177.88,-19 187.88,-15.5 177.88,-12 177.88,-19"/>
</g>
</g>
</svg>
