<?xml version="1.0" encoding="UTF-8" standalone="no"?>
<!DOCTYPE svg PUBLIC "-//W3C//DTD SVG 1.1//EN"
 "http://www.w3.org/Graphics/SVG/1.1/DTD/svg11.dtd">
<!-- Generated by graphviz version 2.43.0 (0)
 -->
<!-- Title: unilink::interface::UdsAcceptorInterface Pages: 1 -->
<svg width="150pt" height="359pt"
 viewBox="0.00 0.00 150.00 359.00" xmlns="http://www.w3.org/2000/svg" xmlns:xlink="http://www.w3.org/1999/xlink">
<g id="graph0" class="graph" transform="scale(1 1) rotate(0) translate(4 355)">
<title>unilink::interface::UdsAcceptorInterface</title>
<!-- Node1 -->
<g id="Node000001" class="node">
<title>Node1</title>
<g id="a_Node000001"><a xlink:title="An interface abstracting Boost.Asio&#39;s local::stream_protocol::acceptor for testability....">
<polygon fill="#999999" stroke="transparent" points="142,-351 0,-351 0,-201 142,-201 142,-351"/>
<text text-anchor="start" x="15" y="-339" font-family="Helvetica,sans-Serif" font-size="10.00">unilink::interface</text>
<text text-anchor="start" x="15" y="-328" font-family="Helvetica,sans-Serif" font-size="10.00">::UdsAcceptorInterface</text>
<text text-anchor="start" x="69" y="-313" font-family="Helvetica,sans-Serif" font-size="10.00"> </text>
<text text-anchor="start" x="4" y="-298" font-family="Helvetica,sans-Serif" font-size="10.00">+</text>
<text text-anchor="start" x="17" y="-298" font-family="Helvetica,sans-Serif" font-size="10.00">~UdsAcceptorInterface()</text>
<text text-anchor="start" x="4" y="-283" font-family="Helvetica,sans-Serif" font-size="10.00">+</text>
<text text-anchor="start" x="17" y="-283" font-family="Helvetica,sans-Serif" font-size="10.00">open()</text>
<text text-anchor="start" x="4" y="-268" font-family="Helvetica,sans-Serif" font-size="10.00">+</text>
<text text-anchor="start" x="17" y="-268" font-family="Helvetica,sans-Serif" font-size="10.00">bind()</text>
<text text-anchor="start" x="4" y="-253" font-family="Helvetica,sans-Serif" font-size="10.00">+</text>
<text text-anchor="start" x="17" y="-253" font-family="Helvetica,sans-Serif" font-size="10.00">listen()</text>
<text text-anchor="start" x="4" y="-238" font-family="Helvetica,sans-Serif" font-size="10.00">+</text>
<text text-anchor="start" x="17" y="-238" font-family="Helvetica,sans-Serif" font-size="10.00">is_open()</text>
<text text-anchor="start" x="4" y="-223" font-family="Helvetica,sans-Serif" font-size="10.00">+</text>
<text text-anchor="start" x="17" y="-223" font-family="Helvetica,sans-Serif" font-size="10.00">close()</text>
<text text-anchor="start" x="4" y="-208" font-family="Helvetica,sans-Serif" font-size="10.00">+</text>
<text text-anchor="start" x="17" y="-208" font-family="Helvetica,sans-Serif" font-size="10.00">async_accept()</text>
<polygon fill="#666666" stroke="#666666" points="0,-323 0,-323 142,-323 142,-323 0,-323"/>
<polygon fill="#666666" stroke="#666666" points="0,-308 0,-308 142,-308 142,-308 0,-308"/>
<polygon fill="none" stroke="#666666" points="0,-201 0,-351 142,-351 142,-201 0,-201"/>
</a>
</g>
</g>
<!-- Node2 -->
<g id="Node000002" class="node">
<title>Node2</title>
<g id="a_Node000002"><a xlink:href="classunilink_1_1transport_1_1BoostUdsAcceptor.html" target="_top" xlink:title="Boost.Asio implementation of UdsAcceptorInterface interface.">
<polygon fill="white" stroke="transparent" points="134.5,-165 7.5,-165 7.5,0 134.5,0 134.5,-165"/>
<text text-anchor="start" x="23.5" y="-152.5" font-family="Helvetica,sans-Serif" font-size="10.00">unilink::transport</text>
<text text-anchor="start" x="23.5" y="-141.5" font-family="Helvetica,sans-Serif" font-size="10.00">::BoostUdsAcceptor</text>
<text text-anchor="start" x="69.5" y="-126.5" font-family="Helvetica,sans-Serif" font-size="10.00"> </text>
<text text-anchor="start" x="12" y="-111.5" font-family="Helvetica,sans-Serif" font-size="10.00">+</text>
<text text-anchor="start" x="25" y="-111.5" font-family="Helvetica,sans-Serif" font-size="10.00">BoostUdsAcceptor()</text>
<text text-anchor="start" x="12" y="-96.5" font-family="Helvetica,sans-Serif" font-size="10.00">+</text>
<text text-anchor="start" x="25" y="-96.5" font-family="Helvetica,sans-Serif" font-size="10.00">~BoostUdsAcceptor()</text>
<text text-anchor="start" x="12" y="-81.5" font-family="Helvetica,sans-Serif" font-size="10.00">+</text>
<text text-anchor="start" x="25" y="-81.5" font-family="Helvetica,sans-Serif" font-size="10.00">open()</text>
<text text-anchor="start" x="12" y="-66.5" font-family="Helvetica,sans-Serif" font-size="10.00">+</text>
<text text-anchor="start" x="25" y="-66.5" font-family="Helvetica,sans-Serif" font-size="10.00">bind()</text>
<text text-anchor="start" x="12" y="-51.5" font-family="Helvetica,sans-Serif" font-size="10.00">+</text>
<text text-anchor="start" x="25" y="-51.5" font-family="Helvetica,sans-Serif" font-size="10.00">listen()</text>
<text text-anchor="start" x="12" y="-36.5" font-family="Helvetica,sans-Serif" font-size="10.00">+</text>
<text text-anchor="start" x="25" y="-36.5" font-family="Helvetica,sans-Serif" font-size="10.00">is_open()</text>
<text text-anchor="start" x="12" y="-21.5" font-family="Helvetica,sans-Serif" font-size="10.00">+</text>
<text text-anchor="start" x="25" y="-21.5" font-family="Helvetica,sans-Serif" font-size="10.00">close()</text>
<text text-anchor="start" x="12" y="-6.5" font-family="Helvetica,sans-Serif" font-size="10.00">+</text>
<text text-anchor="start" x="25" y="-6.5" font-family="Helvetica,sans-Serif" font-size="10.00">async_accept()</text>
<polygon fill="#666666" stroke="#666666" points="8,-136.5 8,-136.5 135,-136.5 135,-136.5 8,-136.5"/>
<polygon fill="#666666" stroke="#666666" points="8,-121.5 8,-121.5 135,-121.5 135,-121.5 8,-121.5"/>
<polygon fill="none" stroke="#666666" points="7.5,0 7.5,-165 134.5,-165 134.5,0 7.5,0"/>
</a>
</g>
</g>
<!-- Node1&#45;&gt;Node2 -->
<g id="edge1_Node000001_Node000002" class="edge">
<title>Node1&#45;&gt;Node2</title>
<g id="a_edge1_Node000001_Node000002"><a xlink:title=" ">
<path fill="none" stroke="#63b8ff" d="M71,-190.73C71,-182.29 71,-173.72 71,-165.29"/>
<polygon fill="none" stroke="#63b8ff" points="67.5,-190.96 71,-200.96 74.5,-190.96 67.5,-190.96"/>
</a>
</g>
</g>
</g>
</svg>
