<?xml version="1.0" encoding="UTF-8" standalone="no"?>
<!DOCTYPE svg PUBLIC "-//W3C//DTD SVG 1.1//EN"
 "http://www.w3.org/Graphics/SVG/1.1/DTD/svg11.dtd">
<!-- Generated by graphviz version 2.43.0 (0)
 -->
<!-- Title: unilink::builder::UdpClientBuilder Pages: 1 -->
<svg width="201pt" height="849pt"
 viewBox="0.00 0.00 201.00 849.00" xmlns="http://www.w3.org/2000/svg" xmlns:xlink="http://www.w3.org/1999/xlink">
<g id="graph0" class="graph" transform="scale(1 1) rotate(0) translate(4 845)">
<title>unilink::builder::UdpClientBuilder</title>
<!-- Node1 -->
<g id="Node000001" class="node">
<title>Node1</title>
<g id="a_Node000001"><a xlink:title="Modernized Builder for UdpClient.">
<polygon fill="#999999" stroke="transparent" points="149.5,-165 12.5,-165 12.5,0 149.5,0 149.5,-165"/>
<text text-anchor="start" x="18" y="-152.5" font-family="Helvetica,sans-Serif" font-size="10.00">unilink::builder::UdpClient</text>
<text text-anchor="start" x="64" y="-141.5" font-family="Helvetica,sans-Serif" font-size="10.00">Builder</text>
<text text-anchor="start" x="79.5" y="-126.5" font-family="Helvetica,sans-Serif" font-size="10.00"> </text>
<text text-anchor="start" x="18" y="-111.5" font-family="Helvetica,sans-Serif" font-size="10.00">+</text>
<text text-anchor="start" x="32" y="-111.5" font-family="Helvetica,sans-Serif" font-size="10.00">UdpClientBuilder()</text>
<text text-anchor="start" x="18" y="-96.5" font-family="Helvetica,sans-Serif" font-size="10.00">+</text>
<text text-anchor="start" x="32" y="-96.5" font-family="Helvetica,sans-Serif" font-size="10.00">build()</text>
<text text-anchor="start" x="18" y="-81.5" font-family="Helvetica,sans-Serif" font-size="10.00">+</text>
<text text-anchor="start" x="32" y="-81.5" font-family="Helvetica,sans-Serif" font-size="10.00">auto_start()</text>
<text text-anchor="start" x="18" y="-66.5" font-family="Helvetica,sans-Serif" font-size="10.00">+</text>
<text text-anchor="start" x="32" y="-66.5" font-family="Helvetica,sans-Serif" font-size="10.00">local_port()</text>
<text text-anchor="start" x="18" y="-51.5" font-family="Helvetica,sans-Serif" font-size="10.00">+</text>
<text text-anchor="start" x="32" y="-51.5" font-family="Helvetica,sans-Serif" font-size="10.00">remote()</text>
<text text-anchor="start" x="18" y="-36.5" font-family="Helvetica,sans-Serif" font-size="10.00">+</text>
<text text-anchor="start" x="32" y="-36.5" font-family="Helvetica,sans-Serif" font-size="10.00">independent_context()</text>
<text text-anchor="start" x="18" y="-21.5" font-family="Helvetica,sans-Serif" font-size="10.00">+</text>
<text text-anchor="start" x="32" y="-21.5" font-family="Helvetica,sans-Serif" font-size="10.00">broadcast()</text>
<text text-anchor="start" x="18" y="-6.5" font-family="Helvetica,sans-Serif" font-size="10.00">+</text>
<text text-anchor="start" x="32" y="-6.5" font-family="Helvetica,sans-Serif" font-size="10.00">reuse_address()</text>
<polygon fill="#666666" stroke="#666666" points="13,-136.5 13,-136.5 150,-136.5 150,-136.5 13,-136.5"/>
<polygon fill="#666666" stroke="#666666" points="13,-121.5 13,-121.5 150,-121.5 150,-121.5 13,-121.5"/>
<polygon fill="none" stroke="#666666" points="12.5,0 12.5,-165 149.5,-165 149.5,0 12.5,0"/>
</a>
</g>
</g>
<!-- Node2 -->
<g id="Node000002" class="node">
<title>Node2</title>
<g id="a_Node000002"><a xlink:href="classunilink_1_1builder_1_1BuilderInterface.html" target="_top" xlink:title=" ">
<polygon fill="white" stroke="transparent" points="162,-498 0,-498 0,-202 162,-202 162,-498"/>
<text text-anchor="start" x="5" y="-486" font-family="Helvetica,sans-Serif" font-size="10.00">unilink::builder::Builder</text>
<text text-anchor="start" x="5" y="-475" font-family="Helvetica,sans-Serif" font-size="10.00">Interface&lt; wrapper::UdpClient,</text>
<text text-anchor="start" x="32.5" y="-464" font-family="Helvetica,sans-Serif" font-size="10.00"> UdpClientBuilder &gt;</text>
<text text-anchor="start" x="15.5" y="-449" font-family="Helvetica,sans-Serif" font-size="10.00">#</text>
<text text-anchor="start" x="40" y="-449" font-family="Helvetica,sans-Serif" font-size="10.00">framer_factory_</text>
<text text-anchor="start" x="15.5" y="-434" font-family="Helvetica,sans-Serif" font-size="10.00">#</text>
<text text-anchor="start" x="40" y="-434" font-family="Helvetica,sans-Serif" font-size="10.00">on_data_</text>
<text text-anchor="start" x="15.5" y="-419" font-family="Helvetica,sans-Serif" font-size="10.00">#</text>
<text text-anchor="start" x="40" y="-419" font-family="Helvetica,sans-Serif" font-size="10.00">on_connect_</text>
<text text-anchor="start" x="15.5" y="-404" font-family="Helvetica,sans-Serif" font-size="10.00">#</text>
<text text-anchor="start" x="40" y="-404" font-family="Helvetica,sans-Serif" font-size="10.00">on_disconnect_</text>
<text text-anchor="start" x="15.5" y="-389" font-family="Helvetica,sans-Serif" font-size="10.00">#</text>
<text text-anchor="start" x="40" y="-389" font-family="Helvetica,sans-Serif" font-size="10.00">on_error_</text>
<text text-anchor="start" x="15.5" y="-374" font-family="Helvetica,sans-Serif" font-size="10.00">#</text>
<text text-anchor="start" x="40" y="-374" font-family="Helvetica,sans-Serif" font-size="10.00">on_message_</text>
<text text-anchor="start" x="15.5" y="-359" font-family="Helvetica,sans-Serif" font-size="10.00">+</text>
<text text-anchor="start" x="40" y="-359" font-family="Helvetica,sans-Serif" font-size="10.00">~BuilderInterface()</text>
<text text-anchor="start" x="15.5" y="-344" font-family="Helvetica,sans-Serif" font-size="10.00">+</text>
<text text-anchor="start" x="40" y="-344" font-family="Helvetica,sans-Serif" font-size="10.00">BuilderInterface()</text>
<text text-anchor="start" x="15.5" y="-329" font-family="Helvetica,sans-Serif" font-size="10.00">+</text>
<text text-anchor="start" x="40" y="-329" font-family="Helvetica,sans-Serif" font-size="10.00">BuilderInterface()</text>
<text text-anchor="start" x="15.5" y="-314" font-family="Helvetica,sans-Serif" font-size="10.00">+</text>
<text text-anchor="start" x="40" y="-314" font-family="Helvetica,sans-Serif" font-size="10.00">BuilderInterface()</text>
<text text-anchor="start" x="15.5" y="-299" font-family="Helvetica,sans-Serif" font-size="10.00">+</text>
<text text-anchor="start" x="40" y="-299" font-family="Helvetica,sans-Serif" font-size="10.00">operator=()</text>
<text text-anchor="start" x="15.5" y="-284" font-family="Helvetica,sans-Serif" font-size="10.00">+</text>
<text text-anchor="start" x="40" y="-284" font-family="Helvetica,sans-Serif" font-size="10.00">operator=()</text>
<text text-anchor="start" x="15.5" y="-269" font-family="Helvetica,sans-Serif" font-size="10.00">+</text>
<text text-anchor="start" x="40" y="-269" font-family="Helvetica,sans-Serif" font-size="10.00">build()</text>
<text text-anchor="start" x="15.5" y="-254" font-family="Helvetica,sans-Serif" font-size="10.00">+</text>
<text text-anchor="start" x="40" y="-254" font-family="Helvetica,sans-Serif" font-size="10.00">auto_start()</text>
<text text-anchor="start" x="15.5" y="-239" font-family="Helvetica,sans-Serif" font-size="10.00">+</text>
<text text-anchor="start" x="40" y="-239" font-family="Helvetica,sans-Serif" font-size="10.00">on_data()</text>
<text text-anchor="start" x="15.5" y="-224" font-family="Helvetica,sans-Serif" font-size="10.00">+</text>
<text text-anchor="start" x="40" y="-224" font-family="Helvetica,sans-Serif" font-size="10.00">on_data()</text>
<text text-anchor="start" x="40" y="-209" font-family="Helvetica,sans-Serif" font-size="10.00">and 11 more...</text>
<polygon fill="#666666" stroke="#666666" points="0,-459 0,-459 162,-459 162,-459 0,-459"/>
<polygon fill="#666666" stroke="#666666" points="0,-369 0,-369 38,-369 38,-369 0,-369"/>
<polygon fill="#666666" stroke="#666666" points="38,-369 38,-369 162,-369 162,-369 38,-369"/>
<polygon fill="none" stroke="#666666" points="0,-202 0,-498 162,-498 162,-202 0,-202"/>
</a>
</g>
</g>
<!-- Node2&#45;&gt;Node1 -->
<g id="edge1_Node000001_Node000002" class="edge">
<title>Node2&#45;&gt;Node1</title>
<g id="a_edge1_Node000001_Node000002"><a xlink:title=" ">
<path fill="none" stroke="#63b8ff" d="M81,-191.63C81,-182.59 81,-173.72 81,-165.18"/>
<polygon fill="none" stroke="#63b8ff" points="77.5,-191.89 81,-201.89 84.5,-191.89 77.5,-191.89"/>
</a>
</g>
</g>
<!-- Node3 -->
<g id="Node000003" class="node">
<title>Node3</title>
<g id="a_Node000003"><a xlink:href="classunilink_1_1builder_1_1BuilderInterface.html" target="_top" xlink:title="Generic Builder interface for fluent API pattern.">
<polygon fill="white" stroke="transparent" points="144.5,-841 17.5,-841 17.5,-556 144.5,-556 144.5,-841"/>
<text text-anchor="start" x="23" y="-828.5" font-family="Helvetica,sans-Serif" font-size="10.00">unilink::builder::Builder</text>
<text text-anchor="start" x="23" y="-817.5" font-family="Helvetica,sans-Serif" font-size="10.00">Interface&lt; T, Derived &gt;</text>
<text text-anchor="start" x="25" y="-802.5" font-family="Helvetica,sans-Serif" font-size="10.00">#</text>
<text text-anchor="start" x="41" y="-802.5" font-family="Helvetica,sans-Serif" font-size="10.00">framer_factory_</text>
<text text-anchor="start" x="25" y="-787.5" font-family="Helvetica,sans-Serif" font-size="10.00">#</text>
<text text-anchor="start" x="41" y="-787.5" font-family="Helvetica,sans-Serif" font-size="10.00">on_data_</text>
<text text-anchor="start" x="25" y="-772.5" font-family="Helvetica,sans-Serif" font-size="10.00">#</text>
<text text-anchor="start" x="41" y="-772.5" font-family="Helvetica,sans-Serif" font-size="10.00">on_connect_</text>
<text text-anchor="start" x="25" y="-757.5" font-family="Helvetica,sans-Serif" font-size="10.00">#</text>
<text text-anchor="start" x="41" y="-757.5" font-family="Helvetica,sans-Serif" font-size="10.00">on_disconnect_</text>
<text text-anchor="start" x="25" y="-742.5" font-family="Helvetica,sans-Serif" font-size="10.00">#</text>
<text text-anchor="start" x="41" y="-742.5" font-family="Helvetica,sans-Serif" font-size="10.00">on_error_</text>
<text text-anchor="start" x="25" y="-727.5" font-family="Helvetica,sans-Serif" font-size="10.00">#</text>
<text text-anchor="start" x="41" y="-727.5" font-family="Helvetica,sans-Serif" font-size="10.00">on_message_</text>
<text text-anchor="start" x="25" y="-712.5" font-family="Helvetica,sans-Serif" font-size="10.00">+</text>
<text text-anchor="start" x="41" y="-712.5" font-family="Helvetica,sans-Serif" font-size="10.00">~BuilderInterface()</text>
<text text-anchor="start" x="25" y="-697.5" font-family="Helvetica,sans-Serif" font-size="10.00">+</text>
<text text-anchor="start" x="41" y="-697.5" font-family="Helvetica,sans-Serif" font-size="10.00">BuilderInterface()</text>
<text text-anchor="start" x="25" y="-682.5" font-family="Helvetica,sans-Serif" font-size="10.00">+</text>
<text text-anchor="start" x="41" y="-682.5" font-family="Helvetica,sans-Serif" font-size="10.00">BuilderInterface()</text>
<text text-anchor="start" x="25" y="-667.5" font-family="Helvetica,sans-Serif" font-size="10.00">+</text>
<text text-anchor="start" x="41" y="-667.5" font-family="Helvetica,sans-Serif" font-size="10.00">BuilderInterface()</text>
<text text-anchor="start" x="25" y="-652.5" font-family="Helvetica,sans-Serif" font-size="10.00">+</text>
<text text-anchor="start" x="41" y="-652.5" font-family="Helvetica,sans-Serif" font-size="10.00">operator=()</text>
<text text-anchor="start" x="25" y="-637.5" font-family="Helvetica,sans-Serif" font-size="10.00">+</text>
<text text-anchor="start" x="41" y="-637.5" font-family="Helvetica,sans-Serif" font-size="10.00">operator=()</text>
<text text-anchor="start" x="25" y="-622.5" font-family="Helvetica,sans-Serif" font-size="10.00">+</text>
<text text-anchor="start" x="41" y="-622.5" font-family="Helvetica,sans-Serif" font-size="10.00">build()</text>
<text text-anchor="start" x="25" y="-607.5" font-family="Helvetica,sans-Serif" font-size="10.00">+</text>
<text text-anchor="start" x="41" y="-607.5" font-family="Helvetica,sans-Serif" font-size="10.00">auto_start()</text>
<text text-anchor="start" x="25" y="-592.5" font-family="Helvetica,sans-Serif" font-size="10.00">+</text>
<text text-anchor="start" x="41" y="-592.5" font-family="Helvetica,sans-Serif" font-size="10.00">on_data()</text>
<text text-anchor="start" x="25" y="-577.5" font-family="Helvetica,sans-Serif" font-size="10.00">+</text>
<text text-anchor="start" x="41" y="-577.5" font-family="Helvetica,sans-Serif" font-size="10.00">on_data()</text>
<text text-anchor="start" x="41" y="-562.5" font-family="Helvetica,sans-Serif" font-size="10.00">and 11 more...</text>
<polygon fill="#666666" stroke="#666666" points="18,-812.5 18,-812.5 145,-812.5 145,-812.5 18,-812.5"/>
<polygon fill="#666666" stroke="#666666" points="18,-722.5 18,-722.5 39,-722.5 39,-722.5 18,-722.5"/>
<polygon fill="#666666" stroke="#666666" points="39,-722.5 39,-722.5 145,-722.5 145,-722.5 39,-722.5"/>
<polygon fill="none" stroke="#666666" points="17.5,-556 17.5,-841 144.5,-841 144.5,-556 17.5,-556"/>
</a>
</g>
</g>
<!-- Node3&#45;&gt;Node2 -->
<g id="edge2_Node000002_Node000003" class="edge">
<title>Node3&#45;&gt;Node2</title>
<g id="a_edge2_Node000002_Node000003"><a xlink:title=" ">
<path fill="none" stroke="orange" d="M81,-545.54C81,-529.84 81,-513.9 81,-498.25"/>
<polygon fill="orange" stroke="orange" points="77.5,-545.82 81,-555.82 84.5,-545.82 77.5,-545.82"/>
</a>
</g>
<text text-anchor="start" x="81" y="-530" font-family="Helvetica,sans-Serif" font-size="10.00" fill="grey"> &lt; wrapper::UdpClient,</text>
<text text-anchor="middle" x="137" y="-519" font-family="Helvetica,sans-Serif" font-size="10.00" fill="grey"> UdpClientBuilder &gt;</text>
</g>
</g>
</svg>
