<?xml version="1.0" encoding="UTF-8" standalone="no"?>
<!DOCTYPE svg PUBLIC "-//W3C//DTD SVG 1.1//EN"
 "http://www.w3.org/Graphics/SVG/1.1/DTD/svg11.dtd">
<!-- Generated by graphviz version 2.43.0 (0)
 -->
<!-- Title: unilink::interface::SerialPortInterface Pages: 1 -->
<svg width="136pt" height="464pt"
 viewBox="0.00 0.00 136.00 464.00" xmlns="http://www.w3.org/2000/svg" xmlns:xlink="http://www.w3.org/1999/xlink">
<g id="graph0" class="graph" transform="scale(1 1) rotate(0) translate(4 460)">
<title>unilink::interface::SerialPortInterface</title>
<!-- Node1 -->
<g id="Node000001" class="node">
<title>Node1</title>
<g id="a_Node000001"><a xlink:title="An interface abstracting Boost.Asio&#39;s serial_port for testability. This is an internal interface used...">
<polygon fill="#999999" stroke="transparent" points="128,-456 0,-456 0,-246 128,-246 128,-456"/>
<text text-anchor="start" x="15.5" y="-444" font-family="Helvetica,sans-Serif" font-size="10.00">unilink::interface</text>
<text text-anchor="start" x="15.5" y="-433" font-family="Helvetica,sans-Serif" font-size="10.00">::SerialPortInterface</text>
<text text-anchor="start" x="62" y="-418" font-family="Helvetica,sans-Serif" font-size="10.00"> </text>
<text text-anchor="start" x="4" y="-403" font-family="Helvetica,sans-Serif" font-size="10.00">+</text>
<text text-anchor="start" x="17" y="-403" font-family="Helvetica,sans-Serif" font-size="10.00">~SerialPortInterface()</text>
<text text-anchor="start" x="4" y="-388" font-family="Helvetica,sans-Serif" font-size="10.00">+</text>
<text text-anchor="start" x="17" y="-388" font-family="Helvetica,sans-Serif" font-size="10.00">open()</text>
<text text-anchor="start" x="4" y="-373" font-family="Helvetica,sans-Serif" font-size="10.00">+</text>
<text text-anchor="start" x="17" y="-373" font-family="Helvetica,sans-Serif" font-size="10.00">is_open()</text>
<text text-anchor="start" x="4" y="-358" font-family="Helvetica,sans-Serif" font-size="10.00">+</text>
<text text-anchor="start" x="17" y="-358" font-family="Helvetica,sans-Serif" font-size="10.00">close()</text>
<text text-anchor="start" x="4" y="-343" font-family="Helvetica,sans-Serif" font-size="10.00">+</text>
<text text-anchor="start" x="17" y="-343" font-family="Helvetica,sans-Serif" font-size="10.00">set_option()</text>
<text text-anchor="start" x="4" y="-328" font-family="Helvetica,sans-Serif" font-size="10.00">+</text>
<text text-anchor="start" x="17" y="-328" font-family="Helvetica,sans-Serif" font-size="10.00">set_option()</text>
<text text-anchor="start" x="4" y="-313" font-family="Helvetica,sans-Serif" font-size="10.00">+</text>
<text text-anchor="start" x="17" y="-313" font-family="Helvetica,sans-Serif" font-size="10.00">set_option()</text>
<text text-anchor="start" x="4" y="-298" font-family="Helvetica,sans-Serif" font-size="10.00">+</text>
<text text-anchor="start" x="17" y="-298" font-family="Helvetica,sans-Serif" font-size="10.00">set_option()</text>
<text text-anchor="start" x="4" y="-283" font-family="Helvetica,sans-Serif" font-size="10.00">+</text>
<text text-anchor="start" x="17" y="-283" font-family="Helvetica,sans-Serif" font-size="10.00">set_option()</text>
<text text-anchor="start" x="4" y="-268" font-family="Helvetica,sans-Serif" font-size="10.00">+</text>
<text text-anchor="start" x="17" y="-268" font-family="Helvetica,sans-Serif" font-size="10.00">async_read_some()</text>
<text text-anchor="start" x="4" y="-253" font-family="Helvetica,sans-Serif" font-size="10.00">+</text>
<text text-anchor="start" x="17" y="-253" font-family="Helvetica,sans-Serif" font-size="10.00">async_write()</text>
<polygon fill="#666666" stroke="#666666" points="0,-428 0,-428 128,-428 128,-428 0,-428"/>
<polygon fill="#666666" stroke="#666666" points="0,-413 0,-413 128,-413 128,-413 0,-413"/>
<polygon fill="none" stroke="#666666" points="0,-246 0,-456 128,-456 128,-246 0,-246"/>
</a>
</g>
</g>
<!-- Node2 -->
<g id="Node000002" class="node">
<title>Node2</title>
<g id="a_Node000002"><a xlink:href="classunilink_1_1transport_1_1BoostSerialPort.html" target="_top" xlink:title=" ">
<polygon fill="white" stroke="transparent" points="122.5,-210 5.5,-210 5.5,0 122.5,0 122.5,-210"/>
<text text-anchor="start" x="22.5" y="-198" font-family="Helvetica,sans-Serif" font-size="10.00">unilink::transport</text>
<text text-anchor="start" x="23.5" y="-187" font-family="Helvetica,sans-Serif" font-size="10.00">::BoostSerialPort</text>
<text text-anchor="start" x="62.5" y="-172" font-family="Helvetica,sans-Serif" font-size="10.00"> </text>
<text text-anchor="start" x="10" y="-157" font-family="Helvetica,sans-Serif" font-size="10.00">+</text>
<text text-anchor="start" x="23" y="-157" font-family="Helvetica,sans-Serif" font-size="10.00">BoostSerialPort()</text>
<text text-anchor="start" x="10" y="-142" font-family="Helvetica,sans-Serif" font-size="10.00">+</text>
<text text-anchor="start" x="23" y="-142" font-family="Helvetica,sans-Serif" font-size="10.00">open()</text>
<text text-anchor="start" x="10" y="-127" font-family="Helvetica,sans-Serif" font-size="10.00">+</text>
<text text-anchor="start" x="23" y="-127" font-family="Helvetica,sans-Serif" font-size="10.00">is_open()</text>
<text text-anchor="start" x="10" y="-112" font-family="Helvetica,sans-Serif" font-size="10.00">+</text>
<text text-anchor="start" x="23" y="-112" font-family="Helvetica,sans-Serif" font-size="10.00">close()</text>
<text text-anchor="start" x="10" y="-97" font-family="Helvetica,sans-Serif" font-size="10.00">+</text>
<text text-anchor="start" x="23" y="-97" font-family="Helvetica,sans-Serif" font-size="10.00">set_option()</text>
<text text-anchor="start" x="10" y="-82" font-family="Helvetica,sans-Serif" font-size="10.00">+</text>
<text text-anchor="start" x="23" y="-82" font-family="Helvetica,sans-Serif" font-size="10.00">set_option()</text>
<text text-anchor="start" x="10" y="-67" font-family="Helvetica,sans-Serif" font-size="10.00">+</text>
<text text-anchor="start" x="23" y="-67" font-family="Helvetica,sans-Serif" font-size="10.00">set_option()</text>
<text text-anchor="start" x="10" y="-52" font-family="Helvetica,sans-Serif" font-size="10.00">+</text>
<text text-anchor="start" x="23" y="-52" font-family="Helvetica,sans-Serif" font-size="10.00">set_option()</text>
<text text-anchor="start" x="10" y="-37" font-family="Helvetica,sans-Serif" font-size="10.00">+</text>
<text text-anchor="start" x="23" y="-37" font-family="Helvetica,sans-Serif" font-size="10.00">set_option()</text>
<text text-anchor="start" x="10" y="-22" font-family="Helvetica,sans-Serif" font-size="10.00">+</text>
<text text-anchor="start" x="23" y="-22" font-family="Helvetica,sans-Serif" font-size="10.00">async_read_some()</text>
<text text-anchor="start" x="10" y="-7" font-family="Helvetica,sans-Serif" font-size="10.00">+</text>
<text text-anchor="start" x="23" y="-7" font-family="Helvetica,sans-Serif" font-size="10.00">async_write()</text>
<polygon fill="#666666" stroke="#666666" points="6,-182 6,-182 123,-182 123,-182 6,-182"/>
<polygon fill="#666666" stroke="#666666" points="6,-167 6,-167 123,-167 123,-167 6,-167"/>
<polygon fill="none" stroke="#666666" points="5.5,0 5.5,-210 122.5,-210 122.5,0 5.5,0"/>
</a>
</g>
</g>
<!-- Node1&#45;&gt;Node2 -->
<g id="edge1_Node000001_Node000002" class="edge">
<title>Node1&#45;&gt;Node2</title>
<g id="a_edge1_Node000001_Node000002"><a xlink:title=" ">
<path fill="none" stroke="#63b8ff" d="M64,-235.55C64,-227.1 64,-218.61 64,-210.23"/>
<polygon fill="none" stroke="#63b8ff" points="60.5,-235.81 64,-245.81 67.5,-235.81 60.5,-235.81"/>
</a>
</g>
</g>
</g>
</svg>
