<?xml version="1.0" encoding="UTF-8" standalone="no"?>
<!DOCTYPE svg PUBLIC "-//W3C//DTD SVG 1.1//EN"
 "http://www.w3.org/Graphics/SVG/1.1/DTD/svg11.dtd">
<!-- Generated by graphviz version 2.43.0 (0)
 -->
<!-- Title: unilink::transport::UdpChannel Pages: 1 -->
<!--zoomable 509 -->

<svg id="main" version="1.1" xmlns="http://www.w3.org/2000/svg" xmlns:xlink="http://www.w3.org/1999/xlink" xml:space="preserve" onload="init(evt)">
<style type="text/css"><![CDATA[
.node, .edge {opacity: 0.7;}
.node.selected, .edge.selected {opacity: 1;}
.edge:hover path { stroke: red; }
.edge:hover polygon { stroke: red; fill: red; }
]]></style>

<defs>
  <circle id="rim" cx="0" cy="0" r="7"/>
  <circle id="rim2" cx="0" cy="0" r="3.5"/>
  <g id="zoomPlus">
    <use xlink:href="#rim" fill="#404040"><set attributeName="fill" to="#808080" begin="zoomplus.mouseover" end="zoomplus.mouseout"/></use>
    <path d="M-4,0h8M0,-4v8" fill="none" stroke="white" stroke-width="1.5" pointer-events="none"/>
  </g>
  <g id="zoomMin">
    <use xlink:href="#rim" fill="#404040"><set attributeName="fill" to="#808080" begin="zoomminus.mouseover" end="zoomminus.mouseout"/></use>
    <path d="M-4,0h8" fill="none" stroke="white" stroke-width="1.5" pointer-events="none"/>
  </g>
  <g id="arrowUp" transform="translate(30 24)">
    <use xlink:href="#rim"/>
    <path pointer-events="none" fill="none" stroke="white" stroke-width="1.5" d="M0,-3.0v7 M-2.5,-0.5L0,-3.0L2.5,-0.5"/>
  </g>
  <g id="arrowRight" transform="rotate(90) translate(36 -43)">
    <use xlink:href="#rim"/>
    <path pointer-events="none" fill="none" stroke="white" stroke-width="1.5" d="M0,-3.0v7 M-2.5,-0.5L0,-3.0L2.5,-0.5"/>
  </g>
  <g id="arrowDown" transform="rotate(180) translate(-30 -48)">
    <use xlink:href="#rim"/>
    <path pointer-events="none" fill="none" stroke="white" stroke-width="1.5" d="M0,-3.0v7 M-2.5,-0.5L0,-3.0L2.5,-0.5"/>
  </g>
  <g id="arrowLeft" transform="rotate(270) translate(-36 17)">
    <use xlink:href="#rim"/>
    <path pointer-events="none" fill="none" stroke="white" stroke-width="1.5" d="M0,-3.0v7 M-2.5,-0.5L0,-3.0L2.5,-0.5"/>
  </g>
  <g id="resetDef">
    <use xlink:href="#rim2" fill="#404040"><set attributeName="fill" to="#808080" begin="reset.mouseover" end="reset.mouseout"/></use>
  </g>
</defs>
<script type="application/ecmascript">
var viewWidth = 314;
var viewHeight = 509;
var sectionId = 'dynsection-1';
</script>
<script type="application/ecmascript" xlink:href="svg.min.js"/>
<svg id="graph" class="graph">
<g id="viewport">
<title>unilink::transport::UdpChannel</title>
<!-- Node1 -->
<g id="Node000001" class="node">
<title>Node1</title>
<g id="a_Node000001"><a xlink:title="UDP Transport implementation with 1:N support.">
<polygon fill="#999999" stroke="transparent" points="224,-240 81,-240 81,0 224,0 224,-240"/>
<text text-anchor="start" x="111" y="-228" font-family="Helvetica,sans-Serif" font-size="10.00">unilink::transport</text>
<text text-anchor="start" x="120" y="-217" font-family="Helvetica,sans-Serif" font-size="10.00">::UdpChannel</text>
<text text-anchor="start" x="151" y="-202" font-family="Helvetica,sans-Serif" font-size="10.00"> </text>
<text text-anchor="start" x="85.5" y="-187" font-family="Helvetica,sans-Serif" font-size="10.00">+</text>
<text text-anchor="start" x="98.5" y="-187" font-family="Helvetica,sans-Serif" font-size="10.00">~UdpChannel()</text>
<text text-anchor="start" x="85.5" y="-172" font-family="Helvetica,sans-Serif" font-size="10.00">+</text>
<text text-anchor="start" x="98.5" y="-172" font-family="Helvetica,sans-Serif" font-size="10.00">UdpChannel()</text>
<text text-anchor="start" x="85.5" y="-157" font-family="Helvetica,sans-Serif" font-size="10.00">+</text>
<text text-anchor="start" x="98.5" y="-157" font-family="Helvetica,sans-Serif" font-size="10.00">operator=()</text>
<text text-anchor="start" x="85.5" y="-142" font-family="Helvetica,sans-Serif" font-size="10.00">+</text>
<text text-anchor="start" x="98.5" y="-142" font-family="Helvetica,sans-Serif" font-size="10.00">UdpChannel()</text>
<text text-anchor="start" x="85.5" y="-127" font-family="Helvetica,sans-Serif" font-size="10.00">+</text>
<text text-anchor="start" x="98.5" y="-127" font-family="Helvetica,sans-Serif" font-size="10.00">operator=()</text>
<text text-anchor="start" x="85.5" y="-112" font-family="Helvetica,sans-Serif" font-size="10.00">+</text>
<text text-anchor="start" x="98.5" y="-112" font-family="Helvetica,sans-Serif" font-size="10.00">start()</text>
<text text-anchor="start" x="85.5" y="-97" font-family="Helvetica,sans-Serif" font-size="10.00">+</text>
<text text-anchor="start" x="98.5" y="-97" font-family="Helvetica,sans-Serif" font-size="10.00">stop()</text>
<text text-anchor="start" x="85.5" y="-82" font-family="Helvetica,sans-Serif" font-size="10.00">+</text>
<text text-anchor="start" x="98.5" y="-82" font-family="Helvetica,sans-Serif" font-size="10.00">is_connected()</text>
<text text-anchor="start" x="85.5" y="-67" font-family="Helvetica,sans-Serif" font-size="10.00">+</text>
<text text-anchor="start" x="98.5" y="-67" font-family="Helvetica,sans-Serif" font-size="10.00">is_backpressure_active()</text>
<text text-anchor="start" x="85.5" y="-52" font-family="Helvetica,sans-Serif" font-size="10.00">+</text>
<text text-anchor="start" x="98.5" y="-52" font-family="Helvetica,sans-Serif" font-size="10.00">async_write_copy()</text>
<text text-anchor="start" x="98.5" y="-37" font-family="Helvetica,sans-Serif" font-size="10.00">and 10 more...</text>
<text text-anchor="start" x="85.5" y="-22" font-family="Helvetica,sans-Serif" font-size="10.00">+</text>
<text text-anchor="start" x="98.5" y="-22" font-family="Helvetica,sans-Serif" font-size="10.00">create()</text>
<text text-anchor="start" x="85.5" y="-7" font-family="Helvetica,sans-Serif" font-size="10.00">+</text>
<text text-anchor="start" x="98.5" y="-7" font-family="Helvetica,sans-Serif" font-size="10.00">create()</text>
<polygon fill="#666666" stroke="#666666" points="81.5,-212 81.5,-212 224.5,-212 224.5,-212 81.5,-212"/>
<polygon fill="#666666" stroke="#666666" points="81.5,-197 81.5,-197 224.5,-197 224.5,-197 81.5,-197"/>
<polygon fill="none" stroke="#666666" points="81,0 81,-240 224,-240 224,0 81,0"/>
</a>
</g>
</g>
<!-- Node2 -->
<g id="Node000002" class="node">
<title>Node2</title>
<g id="a_Node000002"><a xlink:href="classunilink_1_1interface_1_1Channel.html" target="_top" xlink:title=" ">
<polygon fill="white" stroke="transparent" points="143,-501 0,-501 0,-276 143,-276 143,-501"/>
<text text-anchor="start" x="30.5" y="-488.5" font-family="Helvetica,sans-Serif" font-size="10.00">unilink::interface</text>
<text text-anchor="start" x="49" y="-477.5" font-family="Helvetica,sans-Serif" font-size="10.00">::Channel</text>
<text text-anchor="start" x="70" y="-462.5" font-family="Helvetica,sans-Serif" font-size="10.00"> </text>
<text text-anchor="start" x="4.5" y="-447.5" font-family="Helvetica,sans-Serif" font-size="10.00">+</text>
<text text-anchor="start" x="17.5" y="-447.5" font-family="Helvetica,sans-Serif" font-size="10.00">~Channel()</text>
<text text-anchor="start" x="4.5" y="-432.5" font-family="Helvetica,sans-Serif" font-size="10.00">+</text>
<text text-anchor="start" x="17.5" y="-432.5" font-family="Helvetica,sans-Serif" font-size="10.00">start()</text>
<text text-anchor="start" x="4.5" y="-417.5" font-family="Helvetica,sans-Serif" font-size="10.00">+</text>
<text text-anchor="start" x="17.5" y="-417.5" font-family="Helvetica,sans-Serif" font-size="10.00">stop()</text>
<text text-anchor="start" x="4.5" y="-402.5" font-family="Helvetica,sans-Serif" font-size="10.00">+</text>
<text text-anchor="start" x="17.5" y="-402.5" font-family="Helvetica,sans-Serif" font-size="10.00">is_connected()</text>
<text text-anchor="start" x="4.5" y="-387.5" font-family="Helvetica,sans-Serif" font-size="10.00">+</text>
<text text-anchor="start" x="17.5" y="-387.5" font-family="Helvetica,sans-Serif" font-size="10.00">is_backpressure_active()</text>
<text text-anchor="start" x="4.5" y="-372.5" font-family="Helvetica,sans-Serif" font-size="10.00">+</text>
<text text-anchor="start" x="17.5" y="-372.5" font-family="Helvetica,sans-Serif" font-size="10.00">get_executor()</text>
<text text-anchor="start" x="4.5" y="-357.5" font-family="Helvetica,sans-Serif" font-size="10.00">+</text>
<text text-anchor="start" x="17.5" y="-357.5" font-family="Helvetica,sans-Serif" font-size="10.00">async_write_copy()</text>
<text text-anchor="start" x="4.5" y="-342.5" font-family="Helvetica,sans-Serif" font-size="10.00">+</text>
<text text-anchor="start" x="17.5" y="-342.5" font-family="Helvetica,sans-Serif" font-size="10.00">async_write_move()</text>
<text text-anchor="start" x="4.5" y="-327.5" font-family="Helvetica,sans-Serif" font-size="10.00">+</text>
<text text-anchor="start" x="17.5" y="-327.5" font-family="Helvetica,sans-Serif" font-size="10.00">async_write_shared()</text>
<text text-anchor="start" x="4.5" y="-312.5" font-family="Helvetica,sans-Serif" font-size="10.00">+</text>
<text text-anchor="start" x="17.5" y="-312.5" font-family="Helvetica,sans-Serif" font-size="10.00">on_bytes()</text>
<text text-anchor="start" x="4.5" y="-297.5" font-family="Helvetica,sans-Serif" font-size="10.00">+</text>
<text text-anchor="start" x="17.5" y="-297.5" font-family="Helvetica,sans-Serif" font-size="10.00">on_state()</text>
<text text-anchor="start" x="4.5" y="-282.5" font-family="Helvetica,sans-Serif" font-size="10.00">+</text>
<text text-anchor="start" x="17.5" y="-282.5" font-family="Helvetica,sans-Serif" font-size="10.00">on_backpressure()</text>
<polygon fill="#666666" stroke="#666666" points="0.5,-472.5 0.5,-472.5 143.5,-472.5 143.5,-472.5 0.5,-472.5"/>
<polygon fill="#666666" stroke="#666666" points="0.5,-457.5 0.5,-457.5 143.5,-457.5 143.5,-457.5 0.5,-457.5"/>
<polygon fill="none" stroke="#666666" points="0,-276 0,-501 143,-501 143,-276 0,-276"/>
</a>
</g>
</g>
<!-- Node2&#45;&gt;Node1 -->
<g id="edge1_Node000001_Node000002" class="edge">
<title>Node2&#45;&gt;Node1</title>
<g id="a_edge1_Node000001_Node000002"><a xlink:title=" ">
<path fill="none" stroke="#63b8ff" d="M108.42,-266.01C111.02,-257.46 113.65,-248.84 116.24,-240.29"/>
<polygon fill="none" stroke="#63b8ff" points="105.06,-265.05 105.5,-275.64 111.76,-267.09 105.06,-265.05"/>
</a>
</g>
</g>
<!-- Node3 -->
<g id="Node000003" class="node">
<title>Node3</title>
<g id="a_Node000003"><a xlink:title=" ">
<polygon fill="white" stroke="transparent" points="305.5,-418.5 161.5,-418.5 161.5,-358.5 305.5,-358.5 305.5,-418.5"/>
<text text-anchor="start" x="166.5" y="-406.5" font-family="Helvetica,sans-Serif" font-size="10.00">std::enable_shared</text>
<text text-anchor="start" x="166.5" y="-395.5" font-family="Helvetica,sans-Serif" font-size="10.00">_from_this&lt; UdpChannel &gt;</text>
<text text-anchor="start" x="231.5" y="-380.5" font-family="Helvetica,sans-Serif" font-size="10.00"> </text>
<text text-anchor="start" x="231.5" y="-365.5" font-family="Helvetica,sans-Serif" font-size="10.00"> </text>
<polygon fill="#666666" stroke="#666666" points="161.5,-390.5 161.5,-390.5 305.5,-390.5 305.5,-390.5 161.5,-390.5"/>
<polygon fill="#666666" stroke="#666666" points="161.5,-375.5 161.5,-375.5 305.5,-375.5 305.5,-375.5 161.5,-375.5"/>
<polygon fill="none" stroke="#666666" points="161.5,-358.5 161.5,-418.5 305.5,-418.5 305.5,-358.5 161.5,-358.5"/>
</a>
</g>
</g>
<!-- Node3&#45;&gt;Node1 -->
<g id="edge2_Node000001_Node000003" class="edge">
<title>Node3&#45;&gt;Node1</title>
<g id="a_edge2_Node000001_Node000003"><a xlink:title=" ">
<path fill="none" stroke="#63b8ff" d="M221.75,-348.85C213.04,-320.17 200.65,-279.41 188.75,-240.28"/>
<polygon fill="none" stroke="#63b8ff" points="218.42,-349.92 224.68,-358.47 225.12,-347.89 218.42,-349.92"/>
</a>
</g>
</g>
</g>
</svg>

<g id="navigator" transform="translate(0 0)" fill="#404254">
  <rect fill="#f2f5e9" fill-opacity="0.5" stroke="#606060" stroke-width=".5" x="0" y="0" width="60" height="60"/>
  <use id="zoomplus" xlink:href="#zoomPlus" x="17" y="9" onmousedown="handleZoom(evt,'in')"/>
  <use id="zoomminus" xlink:href="#zoomMin" x="42" y="9" onmousedown="handleZoom(evt,'out')"/>
  <use id="reset" xlink:href="#resetDef" x="30" y="36" onmousedown="handleReset()"/>
   <use id="arrowup" xlink:href="#arrowUp" x="0" y="0" onmousedown="handlePan(0,-1)"/>
  <use id="arrowright" xlink:href="#arrowRight" x="0" y="0" onmousedown="handlePan(1,0)"/>
  <use id="arrowdown" xlink:href="#arrowDown" x="0" y="0" onmousedown="handlePan(0,1)"/>
  <use id="arrowleft" xlink:href="#arrowLeft" x="0" y="0" onmousedown="handlePan(-1,0)"/>
</g>
<svg viewBox="0 0 15 15" width="100%" height="30px" preserveAspectRatio="xMaxYMin meet">
 <g id="arrow_out" transform="scale(0.3 0.3)">
  <a xlink:href="classunilink_1_1transport_1_1UdpChannel__coll__graph_org.svg" target="_base">
   <rect id="button" ry="5" rx="5" y="6" x="6" height="38" width="38"
        fill="#f2f5e9" fill-opacity="0.5" stroke="#606060" stroke-width="1.0"/>
   <path id="arrow"
     d="M 11.500037,31.436501 C 11.940474,20.09759 22.043105,11.32322 32.158766,21.979434 L 37.068811,17.246167 C 37.068811,17.246167 37.088388,32 37.088388,32 L 22.160133,31.978069 C 22.160133,31.978069 26.997745,27.140456 26.997745,27.140456 C 18.528582,18.264221 13.291696,25.230495 11.500037,31.436501 z"
     style="fill:#404040;"/>
  </a>
 </g>
</svg>

<style type='text/css'>
<![CDATA[
[data-mouse-over-selected='false'] { opacity: 0.7; }
[data-mouse-over-selected='true']  { opacity: 1.0; }
]]>
</style>
<script type="application/ecmascript"><![CDATA[
document.addEventListener('DOMContentLoaded', (event) => {
  highlightEdges();
  highlightAdjacentNodes();
});
]]></script>
</svg>
