<?xml version="1.0" encoding="UTF-8" standalone="no"?>
<!DOCTYPE svg PUBLIC "-//W3C//DTD SVG 1.1//EN"
 "http://www.w3.org/Graphics/SVG/1.1/DTD/svg11.dtd">
<!-- Generated by graphviz version 2.43.0 (0)
 -->
<!-- Title: unilink::diagnostics::UnilinkException Pages: 1 -->
<svg width="782pt" height="364pt"
 viewBox="0.00 0.00 782.00 364.00" xmlns="http://www.w3.org/2000/svg" xmlns:xlink="http://www.w3.org/1999/xlink">
<g id="graph0" class="graph" transform="scale(1 1) rotate(0) translate(4 360)">
<title>unilink::diagnostics::UnilinkException</title>
<polygon fill="white" stroke="transparent" points="-4,4 -4,-360 778,-360 778,4 -4,4"/>
<!-- Node1 -->
<g id="node1" class="node">
<title>Node1</title>
<g id="a_node1"><a xlink:title="Base exception class for all unilink exceptions.">
<polygon fill="#bfbfbf" stroke="black" points="330,-149.5 330,-261.5 456,-261.5 456,-149.5 330,-149.5"/>
<text text-anchor="start" x="338" y="-249.5" font-family="Helvetica,sans-Serif" font-size="10.00">unilink::diagnostics</text>
<text text-anchor="middle" x="393" y="-238.5" font-family="Helvetica,sans-Serif" font-size="10.00">::UnilinkException</text>
<polyline fill="none" stroke="black" points="330,-231.5 456,-231.5 "/>
<text text-anchor="middle" x="393" y="-219.5" font-family="Helvetica,sans-Serif" font-size="10.00"> </text>
<polyline fill="none" stroke="black" points="330,-212.5 456,-212.5 "/>
<text text-anchor="start" x="338" y="-200.5" font-family="Helvetica,sans-Serif" font-size="10.00">+ UnilinkException()</text>
<text text-anchor="start" x="338" y="-189.5" font-family="Helvetica,sans-Serif" font-size="10.00">+ ~UnilinkException()</text>
<text text-anchor="start" x="338" y="-178.5" font-family="Helvetica,sans-Serif" font-size="10.00">+ component()</text>
<text text-anchor="start" x="338" y="-167.5" font-family="Helvetica,sans-Serif" font-size="10.00">+ operation()</text>
<text text-anchor="start" x="338" y="-156.5" font-family="Helvetica,sans-Serif" font-size="10.00">+ full_message()</text>
</a>
</g>
</g>
<!-- Node3 -->
<g id="node3" class="node">
<title>Node3</title>
<g id="a_node3"><a xlink:href="classunilink_1_1diagnostics_1_1BuilderException.html" target="_top" xlink:title="Exception thrown during builder operations.">
<polygon fill="white" stroke="black" points="0,-6 0,-107 126,-107 126,-6 0,-6"/>
<text text-anchor="start" x="8" y="-95" font-family="Helvetica,sans-Serif" font-size="10.00">unilink::diagnostics</text>
<text text-anchor="middle" x="63" y="-84" font-family="Helvetica,sans-Serif" font-size="10.00">::BuilderException</text>
<polyline fill="none" stroke="black" points="0,-77 126,-77 "/>
<text text-anchor="middle" x="63" y="-65" font-family="Helvetica,sans-Serif" font-size="10.00"> </text>
<polyline fill="none" stroke="black" points="0,-58 126,-58 "/>
<text text-anchor="start" x="8" y="-46" font-family="Helvetica,sans-Serif" font-size="10.00">+ BuilderException()</text>
<text text-anchor="start" x="8" y="-35" font-family="Helvetica,sans-Serif" font-size="10.00">+ ~BuilderException()</text>
<text text-anchor="start" x="8" y="-24" font-family="Helvetica,sans-Serif" font-size="10.00">+ builder_type()</text>
<text text-anchor="start" x="8" y="-13" font-family="Helvetica,sans-Serif" font-size="10.00">+ full_message()</text>
</a>
</g>
</g>
<!-- Node1&#45;&gt;Node3 -->
<g id="edge2" class="edge">
<title>Node1&#45;&gt;Node3</title>
<path fill="none" stroke="midnightblue" d="M320.24,-185.4C267.08,-169.87 194.23,-145.26 135,-113 131.67,-111.19 128.34,-109.23 125.02,-107.16"/>
<polygon fill="none" stroke="midnightblue" points="319.36,-188.79 329.93,-188.2 321.29,-182.06 319.36,-188.79"/>
</g>
<!-- Node4 -->
<g id="node4" class="node">
<title>Node4</title>
<g id="a_node4"><a xlink:href="classunilink_1_1diagnostics_1_1ConfigurationException.html" target="_top" xlink:title="Exception thrown during configuration operations.">
<polygon fill="white" stroke="black" points="144.5,-6 144.5,-107 301.5,-107 301.5,-6 144.5,-6"/>
<text text-anchor="start" x="152.5" y="-95" font-family="Helvetica,sans-Serif" font-size="10.00">unilink::diagnostics</text>
<text text-anchor="middle" x="223" y="-84" font-family="Helvetica,sans-Serif" font-size="10.00">::ConfigurationException</text>
<polyline fill="none" stroke="black" points="144.5,-77 301.5,-77 "/>
<text text-anchor="middle" x="223" y="-65" font-family="Helvetica,sans-Serif" font-size="10.00"> </text>
<polyline fill="none" stroke="black" points="144.5,-58 301.5,-58 "/>
<text text-anchor="start" x="152.5" y="-46" font-family="Helvetica,sans-Serif" font-size="10.00">+ ConfigurationException()</text>
<text text-anchor="start" x="152.5" y="-35" font-family="Helvetica,sans-Serif" font-size="10.00">+ ~ConfigurationException()</text>
<text text-anchor="start" x="152.5" y="-24" font-family="Helvetica,sans-Serif" font-size="10.00">+ config_section()</text>
<text text-anchor="start" x="152.5" y="-13" font-family="Helvetica,sans-Serif" font-size="10.00">+ full_message()</text>
</a>
</g>
</g>
<!-- Node1&#45;&gt;Node4 -->
<g id="edge3" class="edge">
<title>Node1&#45;&gt;Node4</title>
<path fill="none" stroke="midnightblue" d="M322.06,-143.16C308.2,-131.17 293.82,-118.74 280.46,-107.19"/>
<polygon fill="none" stroke="midnightblue" points="319.84,-145.87 329.7,-149.76 324.42,-140.57 319.84,-145.87"/>
</g>
<!-- Node5 -->
<g id="node5" class="node">
<title>Node5</title>
<g id="a_node5"><a xlink:href="classunilink_1_1diagnostics_1_1ConnectionException.html" target="_top" xlink:title="Exception thrown during connection operations.">
<polygon fill="white" stroke="black" points="320,-6 320,-107 466,-107 466,-6 320,-6"/>
<text text-anchor="start" x="328" y="-95" font-family="Helvetica,sans-Serif" font-size="10.00">unilink::diagnostics</text>
<text text-anchor="middle" x="393" y="-84" font-family="Helvetica,sans-Serif" font-size="10.00">::ConnectionException</text>
<polyline fill="none" stroke="black" points="320,-77 466,-77 "/>
<text text-anchor="middle" x="393" y="-65" font-family="Helvetica,sans-Serif" font-size="10.00"> </text>
<polyline fill="none" stroke="black" points="320,-58 466,-58 "/>
<text text-anchor="start" x="328" y="-46" font-family="Helvetica,sans-Serif" font-size="10.00">+ ConnectionException()</text>
<text text-anchor="start" x="328" y="-35" font-family="Helvetica,sans-Serif" font-size="10.00">+ ~ConnectionException()</text>
<text text-anchor="start" x="328" y="-24" font-family="Helvetica,sans-Serif" font-size="10.00">+ connection_type()</text>
<text text-anchor="start" x="328" y="-13" font-family="Helvetica,sans-Serif" font-size="10.00">+ full_message()</text>
</a>
</g>
</g>
<!-- Node1&#45;&gt;Node5 -->
<g id="edge4" class="edge">
<title>Node1&#45;&gt;Node5</title>
<path fill="none" stroke="midnightblue" d="M393,-139.15C393,-128.41 393,-117.43 393,-107.15"/>
<polygon fill="none" stroke="midnightblue" points="389.5,-139.34 393,-149.34 396.5,-139.34 389.5,-139.34"/>
</g>
<!-- Node6 -->
<g id="node6" class="node">
<title>Node6</title>
<g id="a_node6"><a xlink:href="classunilink_1_1diagnostics_1_1MemoryException.html" target="_top" xlink:title="Exception thrown during memory operations.">
<polygon fill="white" stroke="black" points="484,-6 484,-107 616,-107 616,-6 484,-6"/>
<text text-anchor="start" x="492" y="-95" font-family="Helvetica,sans-Serif" font-size="10.00">unilink::diagnostics</text>
<text text-anchor="middle" x="550" y="-84" font-family="Helvetica,sans-Serif" font-size="10.00">::MemoryException</text>
<polyline fill="none" stroke="black" points="484,-77 616,-77 "/>
<text text-anchor="middle" x="550" y="-65" font-family="Helvetica,sans-Serif" font-size="10.00"> </text>
<polyline fill="none" stroke="black" points="484,-58 616,-58 "/>
<text text-anchor="start" x="492" y="-46" font-family="Helvetica,sans-Serif" font-size="10.00">+ MemoryException()</text>
<text text-anchor="start" x="492" y="-35" font-family="Helvetica,sans-Serif" font-size="10.00">+ ~MemoryException()</text>
<text text-anchor="start" x="492" y="-24" font-family="Helvetica,sans-Serif" font-size="10.00">+ size()</text>
<text text-anchor="start" x="492" y="-13" font-family="Helvetica,sans-Serif" font-size="10.00">+ full_message()</text>
</a>
</g>
</g>
<!-- Node1&#45;&gt;Node6 -->
<g id="edge5" class="edge">
<title>Node1&#45;&gt;Node6</title>
<path fill="none" stroke="midnightblue" d="M459.26,-142.46C471.84,-130.68 484.86,-118.49 496.97,-107.15"/>
<polygon fill="none" stroke="midnightblue" points="456.82,-139.95 451.91,-149.34 461.6,-145.06 456.82,-139.95"/>
</g>
<!-- Node7 -->
<g id="node7" class="node">
<title>Node7</title>
<g id="a_node7"><a xlink:href="classunilink_1_1diagnostics_1_1ValidationException.html" target="_top" xlink:title="Exception thrown during input validation.">
<polygon fill="white" stroke="black" points="634,-0.5 634,-112.5 774,-112.5 774,-0.5 634,-0.5"/>
<text text-anchor="start" x="642" y="-100.5" font-family="Helvetica,sans-Serif" font-size="10.00">unilink::diagnostics</text>
<text text-anchor="middle" x="704" y="-89.5" font-family="Helvetica,sans-Serif" font-size="10.00">::ValidationException</text>
<polyline fill="none" stroke="black" points="634,-82.5 774,-82.5 "/>
<text text-anchor="middle" x="704" y="-70.5" font-family="Helvetica,sans-Serif" font-size="10.00"> </text>
<polyline fill="none" stroke="black" points="634,-63.5 774,-63.5 "/>
<text text-anchor="start" x="642" y="-51.5" font-family="Helvetica,sans-Serif" font-size="10.00">+ ValidationException()</text>
<text text-anchor="start" x="642" y="-40.5" font-family="Helvetica,sans-Serif" font-size="10.00">+ ~ValidationException()</text>
<text text-anchor="start" x="642" y="-29.5" font-family="Helvetica,sans-Serif" font-size="10.00">+ parameter()</text>
<text text-anchor="start" x="642" y="-18.5" font-family="Helvetica,sans-Serif" font-size="10.00">+ expected()</text>
<text text-anchor="start" x="642" y="-7.5" font-family="Helvetica,sans-Serif" font-size="10.00">+ full_message()</text>
</a>
</g>
</g>
<!-- Node1&#45;&gt;Node7 -->
<g id="edge6" class="edge">
<title>Node1&#45;&gt;Node7</title>
<path fill="none" stroke="midnightblue" d="M466.08,-180.7C512.78,-164.28 573.93,-140.51 625,-113 627.95,-111.41 630.92,-109.73 633.9,-107.98"/>
<polygon fill="none" stroke="midnightblue" points="464.63,-177.49 456.34,-184.09 466.94,-184.11 464.63,-177.49"/>
</g>
<!-- Node2 -->
<g id="node2" class="node">
<title>Node2</title>
<g id="a_node2"><a xlink:title=" ">
<polygon fill="white" stroke="#bfbfbf" points="341,-298.5 341,-355.5 445,-355.5 445,-298.5 341,-298.5"/>
<text text-anchor="middle" x="393" y="-343.5" font-family="Helvetica,sans-Serif" font-size="10.00">std::runtime_error</text>
<polyline fill="none" stroke="#bfbfbf" points="341,-336.5 445,-336.5 "/>
<text text-anchor="middle" x="393" y="-324.5" font-family="Helvetica,sans-Serif" font-size="10.00"> </text>
<polyline fill="none" stroke="#bfbfbf" points="341,-317.5 445,-317.5 "/>
<text text-anchor="middle" x="393" y="-305.5" font-family="Helvetica,sans-Serif" font-size="10.00"> </text>
</a>
</g>
</g>
<!-- Node2&#45;&gt;Node1 -->
<g id="edge1" class="edge">
<title>Node2&#45;&gt;Node1</title>
<path fill="none" stroke="midnightblue" d="M393,-288.11C393,-279.75 393,-270.73 393,-261.83"/>
<polygon fill="none" stroke="midnightblue" points="389.5,-288.28 393,-298.28 396.5,-288.28 389.5,-288.28"/>
</g>
</g>
</svg>
