<?xml version="1.0" encoding="UTF-8" standalone="no"?>
<!DOCTYPE svg PUBLIC "-//W3C//DTD SVG 1.1//EN"
 "http://www.w3.org/Graphics/SVG/1.1/DTD/svg11.dtd">
<!-- Generated by graphviz version 2.43.0 (0)
 -->
<!-- Title: unilink::transport::UdpChannel Pages: 1 -->
<svg width="296pt" height="479pt"
 viewBox="0.00 0.00 296.00 479.00" xmlns="http://www.w3.org/2000/svg" xmlns:xlink="http://www.w3.org/1999/xlink">
<g id="graph0" class="graph" transform="scale(1 1) rotate(0) translate(4 475)">
<title>unilink::transport::UdpChannel</title>
<!-- Node1 -->
<g id="Node000001" class="node">
<title>Node1</title>
<g id="a_Node000001"><a xlink:title="UDP Transport implementation with 1:N support.">
<polygon fill="#999999" stroke="transparent" points="199.5,-240 78.5,-240 78.5,0 199.5,0 199.5,-240"/>
<text text-anchor="start" x="97.5" y="-228" font-family="Helvetica,sans-Serif" font-size="10.00">unilink::transport</text>
<text text-anchor="start" x="106.5" y="-217" font-family="Helvetica,sans-Serif" font-size="10.00">::UdpChannel</text>
<text text-anchor="start" x="137.5" y="-202" font-family="Helvetica,sans-Serif" font-size="10.00"> </text>
<text text-anchor="start" x="83" y="-187" font-family="Helvetica,sans-Serif" font-size="10.00">+</text>
<text text-anchor="start" x="96" y="-187" font-family="Helvetica,sans-Serif" font-size="10.00">~UdpChannel()</text>
<text text-anchor="start" x="83" y="-172" font-family="Helvetica,sans-Serif" font-size="10.00">+</text>
<text text-anchor="start" x="96" y="-172" font-family="Helvetica,sans-Serif" font-size="10.00">UdpChannel()</text>
<text text-anchor="start" x="83" y="-157" font-family="Helvetica,sans-Serif" font-size="10.00">+</text>
<text text-anchor="start" x="96" y="-157" font-family="Helvetica,sans-Serif" font-size="10.00">operator=()</text>
<text text-anchor="start" x="83" y="-142" font-family="Helvetica,sans-Serif" font-size="10.00">+</text>
<text text-anchor="start" x="96" y="-142" font-family="Helvetica,sans-Serif" font-size="10.00">UdpChannel()</text>
<text text-anchor="start" x="83" y="-127" font-family="Helvetica,sans-Serif" font-size="10.00">+</text>
<text text-anchor="start" x="96" y="-127" font-family="Helvetica,sans-Serif" font-size="10.00">operator=()</text>
<text text-anchor="start" x="83" y="-112" font-family="Helvetica,sans-Serif" font-size="10.00">+</text>
<text text-anchor="start" x="96" y="-112" font-family="Helvetica,sans-Serif" font-size="10.00">start()</text>
<text text-anchor="start" x="83" y="-97" font-family="Helvetica,sans-Serif" font-size="10.00">+</text>
<text text-anchor="start" x="96" y="-97" font-family="Helvetica,sans-Serif" font-size="10.00">stop()</text>
<text text-anchor="start" x="83" y="-82" font-family="Helvetica,sans-Serif" font-size="10.00">+</text>
<text text-anchor="start" x="96" y="-82" font-family="Helvetica,sans-Serif" font-size="10.00">is_connected()</text>
<text text-anchor="start" x="83" y="-67" font-family="Helvetica,sans-Serif" font-size="10.00">+</text>
<text text-anchor="start" x="96" y="-67" font-family="Helvetica,sans-Serif" font-size="10.00">async_write_copy()</text>
<text text-anchor="start" x="83" y="-52" font-family="Helvetica,sans-Serif" font-size="10.00">+</text>
<text text-anchor="start" x="96" y="-52" font-family="Helvetica,sans-Serif" font-size="10.00">async_write_move()</text>
<text text-anchor="start" x="96" y="-37" font-family="Helvetica,sans-Serif" font-size="10.00">and 8 more...</text>
<text text-anchor="start" x="83" y="-22" font-family="Helvetica,sans-Serif" font-size="10.00">+</text>
<text text-anchor="start" x="96" y="-22" font-family="Helvetica,sans-Serif" font-size="10.00">create()</text>
<text text-anchor="start" x="83" y="-7" font-family="Helvetica,sans-Serif" font-size="10.00">+</text>
<text text-anchor="start" x="96" y="-7" font-family="Helvetica,sans-Serif" font-size="10.00">create()</text>
<polygon fill="#666666" stroke="#666666" points="79,-212 79,-212 200,-212 200,-212 79,-212"/>
<polygon fill="#666666" stroke="#666666" points="79,-197 79,-197 200,-197 200,-197 79,-197"/>
<polygon fill="none" stroke="#666666" points="78.5,0 78.5,-240 199.5,-240 199.5,0 78.5,0"/>
</a>
</g>
</g>
<!-- Node2 -->
<g id="Node000002" class="node">
<title>Node2</title>
<g id="a_Node000002"><a xlink:href="classunilink_1_1interface_1_1Channel.html" target="_top" xlink:title=" ">
<polygon fill="white" stroke="transparent" points="126,-471 0,-471 0,-276 126,-276 126,-471"/>
<text text-anchor="start" x="21.5" y="-458.5" font-family="Helvetica,sans-Serif" font-size="10.00">unilink::interface</text>
<text text-anchor="start" x="40" y="-447.5" font-family="Helvetica,sans-Serif" font-size="10.00">::Channel</text>
<text text-anchor="start" x="61" y="-432.5" font-family="Helvetica,sans-Serif" font-size="10.00"> </text>
<text text-anchor="start" x="4" y="-417.5" font-family="Helvetica,sans-Serif" font-size="10.00">+</text>
<text text-anchor="start" x="17" y="-417.5" font-family="Helvetica,sans-Serif" font-size="10.00">~Channel()</text>
<text text-anchor="start" x="4" y="-402.5" font-family="Helvetica,sans-Serif" font-size="10.00">+</text>
<text text-anchor="start" x="17" y="-402.5" font-family="Helvetica,sans-Serif" font-size="10.00">start()</text>
<text text-anchor="start" x="4" y="-387.5" font-family="Helvetica,sans-Serif" font-size="10.00">+</text>
<text text-anchor="start" x="17" y="-387.5" font-family="Helvetica,sans-Serif" font-size="10.00">stop()</text>
<text text-anchor="start" x="4" y="-372.5" font-family="Helvetica,sans-Serif" font-size="10.00">+</text>
<text text-anchor="start" x="17" y="-372.5" font-family="Helvetica,sans-Serif" font-size="10.00">is_connected()</text>
<text text-anchor="start" x="4" y="-357.5" font-family="Helvetica,sans-Serif" font-size="10.00">+</text>
<text text-anchor="start" x="17" y="-357.5" font-family="Helvetica,sans-Serif" font-size="10.00">async_write_copy()</text>
<text text-anchor="start" x="4" y="-342.5" font-family="Helvetica,sans-Serif" font-size="10.00">+</text>
<text text-anchor="start" x="17" y="-342.5" font-family="Helvetica,sans-Serif" font-size="10.00">async_write_move()</text>
<text text-anchor="start" x="4" y="-327.5" font-family="Helvetica,sans-Serif" font-size="10.00">+</text>
<text text-anchor="start" x="17" y="-327.5" font-family="Helvetica,sans-Serif" font-size="10.00">async_write_shared()</text>
<text text-anchor="start" x="4" y="-312.5" font-family="Helvetica,sans-Serif" font-size="10.00">+</text>
<text text-anchor="start" x="17" y="-312.5" font-family="Helvetica,sans-Serif" font-size="10.00">on_bytes()</text>
<text text-anchor="start" x="4" y="-297.5" font-family="Helvetica,sans-Serif" font-size="10.00">+</text>
<text text-anchor="start" x="17" y="-297.5" font-family="Helvetica,sans-Serif" font-size="10.00">on_state()</text>
<text text-anchor="start" x="4" y="-282.5" font-family="Helvetica,sans-Serif" font-size="10.00">+</text>
<text text-anchor="start" x="17" y="-282.5" font-family="Helvetica,sans-Serif" font-size="10.00">on_backpressure()</text>
<polygon fill="#666666" stroke="#666666" points="0,-442.5 0,-442.5 126,-442.5 126,-442.5 0,-442.5"/>
<polygon fill="#666666" stroke="#666666" points="0,-427.5 0,-427.5 126,-427.5 126,-427.5 0,-427.5"/>
<polygon fill="none" stroke="#666666" points="0,-276 0,-471 126,-471 126,-276 0,-276"/>
</a>
</g>
</g>
<!-- Node2&#45;&gt;Node1 -->
<g id="edge1_Node000001_Node000002" class="edge">
<title>Node2&#45;&gt;Node1</title>
<g id="a_edge1_Node000001_Node000002"><a xlink:title=" ">
<path fill="none" stroke="#63b8ff" d="M95.11,-266.25C97.73,-257.58 100.39,-248.78 103.03,-240.02"/>
<polygon fill="none" stroke="#63b8ff" points="91.71,-265.4 92.17,-275.98 98.41,-267.42 91.71,-265.4"/>
</a>
</g>
</g>
<!-- Node3 -->
<g id="Node000003" class="node">
<title>Node3</title>
<g id="a_Node000003"><a xlink:title=" ">
<polygon fill="white" stroke="transparent" points="288,-403.5 144,-403.5 144,-343.5 288,-343.5 288,-403.5"/>
<text text-anchor="start" x="149" y="-391.5" font-family="Helvetica,sans-Serif" font-size="10.00">std::enable_shared</text>
<text text-anchor="start" x="149" y="-380.5" font-family="Helvetica,sans-Serif" font-size="10.00">_from_this&lt; UdpChannel &gt;</text>
<text text-anchor="start" x="214" y="-365.5" font-family="Helvetica,sans-Serif" font-size="10.00"> </text>
<text text-anchor="start" x="214" y="-350.5" font-family="Helvetica,sans-Serif" font-size="10.00"> </text>
<polygon fill="#666666" stroke="#666666" points="144,-375.5 144,-375.5 288,-375.5 288,-375.5 144,-375.5"/>
<polygon fill="#666666" stroke="#666666" points="144,-360.5 144,-360.5 288,-360.5 288,-360.5 144,-360.5"/>
<polygon fill="none" stroke="#666666" points="144,-343.5 144,-403.5 288,-403.5 288,-343.5 144,-343.5"/>
</a>
</g>
</g>
<!-- Node3&#45;&gt;Node1 -->
<g id="edge2_Node000001_Node000003" class="edge">
<title>Node3&#45;&gt;Node1</title>
<g id="a_edge2_Node000001_Node000003"><a xlink:title=" ">
<path fill="none" stroke="#63b8ff" d="M203.99,-333.27C196.27,-308.06 185.79,-273.84 175.5,-240.23"/>
<polygon fill="none" stroke="#63b8ff" points="200.74,-334.62 207.02,-343.16 207.44,-332.57 200.74,-334.62"/>
</a>
</g>
</g>
</g>
</svg>
