<?xml version="1.0" encoding="UTF-8" standalone="no"?>
<!DOCTYPE svg PUBLIC "-//W3C//DTD SVG 1.1//EN"
 "http://www.w3.org/Graphics/SVG/1.1/DTD/svg11.dtd">
<!-- Generated by graphviz version 2.43.0 (0)
 -->
<!-- Title: unilink::transport::TcpClient::start Pages: 1 -->
<svg width="275pt" height="67pt"
 viewBox="0.00 0.00 275.00 67.00" xmlns="http://www.w3.org/2000/svg" xmlns:xlink="http://www.w3.org/1999/xlink">
<g id="graph0" class="graph" transform="scale(1 1) rotate(0) translate(4 63)">
<title>unilink::transport::TcpClient::start</title>
<!-- Node1 -->
<g id="Node000001" class="node">
<title>Node1</title>
<g id="a_Node000001"><a xlink:title=" ">
<polygon fill="#999999" stroke="#666666" points="100,-35.5 0,-35.5 0,-5.5 100,-5.5 100,-35.5"/>
<text text-anchor="start" x="8" y="-23.5" font-family="Helvetica,sans-Serif" font-size="10.00">unilink::transport</text>
<text text-anchor="middle" x="50" y="-12.5" font-family="Helvetica,sans-Serif" font-size="10.00">::TcpClient::start</text>
</a>
</g>
</g>
<!-- Node2 -->
<g id="Node000002" class="node">
<title>Node2</title>
<g id="a_Node000002"><a xlink:href="namespaceunilink_1_1diagnostics_1_1error__reporting.html#a95bf341a9495f4cc97de408b5b02fd3f" target="_top" xlink:title="Report system&#45;level error.">
<polygon fill="white" stroke="#666666" points="267,-41 136,-41 136,0 267,0 267,-41"/>
<text text-anchor="start" x="144" y="-29" font-family="Helvetica,sans-Serif" font-size="10.00">unilink::diagnostics</text>
<text text-anchor="start" x="144" y="-18" font-family="Helvetica,sans-Serif" font-size="10.00">::error_reporting::report</text>
<text text-anchor="middle" x="201.5" y="-7" font-family="Helvetica,sans-Serif" font-size="10.00">_system_error</text>
</a>
</g>
</g>
<!-- Node1&#45;&gt;Node2 -->
<g id="edge1_Node000001_Node000002" class="edge">
<title>Node1&#45;&gt;Node2</title>
<g id="a_edge1_Node000001_Node000002"><a xlink:title=" ">
<path fill="none" stroke="#63b8ff" d="M100.37,-20.5C108.56,-20.5 117.21,-20.5 125.86,-20.5"/>
<polygon fill="#63b8ff" stroke="#63b8ff" points="125.99,-24 135.99,-20.5 125.99,-17 125.99,-24"/>
</a>
</g>
</g>
<!-- Node2&#45;&gt;Node2 -->
<g id="edge2_Node000002_Node000002" class="edge">
<title>Node2&#45;&gt;Node2</title>
<g id="a_edge2_Node000002_Node000002"><a xlink:title=" ">
<path fill="none" stroke="#63b8ff" d="M173.93,-41.1C170.92,-50.65 180.11,-59 201.5,-59 214.87,-59 223.47,-55.74 227.31,-50.96"/>
<polygon fill="#63b8ff" stroke="#63b8ff" points="230.76,-51.56 229.07,-41.1 223.86,-50.33 230.76,-51.56"/>
</a>
</g>
</g>
</g>
</svg>
