<?xml version="1.0" encoding="UTF-8" standalone="no"?>
<!DOCTYPE svg PUBLIC "-//W3C//DTD SVG 1.1//EN"
 "http://www.w3.org/Graphics/SVG/1.1/DTD/svg11.dtd">
<!-- Generated by graphviz version 2.43.0 (0)
 -->
<!-- Title: unilink::builder::TcpClientBuilder Pages: 1 -->
<!--zoomable 894 -->

<svg id="main" version="1.1" xmlns="http://www.w3.org/2000/svg" xmlns:xlink="http://www.w3.org/1999/xlink" xml:space="preserve" onload="init(evt)">
<style type="text/css"><![CDATA[
.node, .edge {opacity: 0.7;}
.node.selected, .edge.selected {opacity: 1;}
.edge:hover path { stroke: red; }
.edge:hover polygon { stroke: red; fill: red; }
]]></style>

<defs>
  <circle id="rim" cx="0" cy="0" r="7"/>
  <circle id="rim2" cx="0" cy="0" r="3.5"/>
  <g id="zoomPlus">
    <use xlink:href="#rim" fill="#404040"><set attributeName="fill" to="#808080" begin="zoomplus.mouseover" end="zoomplus.mouseout"/></use>
    <path d="M-4,0h8M0,-4v8" fill="none" stroke="white" stroke-width="1.5" pointer-events="none"/>
  </g>
  <g id="zoomMin">
    <use xlink:href="#rim" fill="#404040"><set attributeName="fill" to="#808080" begin="zoomminus.mouseover" end="zoomminus.mouseout"/></use>
    <path d="M-4,0h8" fill="none" stroke="white" stroke-width="1.5" pointer-events="none"/>
  </g>
  <g id="arrowUp" transform="translate(30 24)">
    <use xlink:href="#rim"/>
    <path pointer-events="none" fill="none" stroke="white" stroke-width="1.5" d="M0,-3.0v7 M-2.5,-0.5L0,-3.0L2.5,-0.5"/>
  </g>
  <g id="arrowRight" transform="rotate(90) translate(36 -43)">
    <use xlink:href="#rim"/>
    <path pointer-events="none" fill="none" stroke="white" stroke-width="1.5" d="M0,-3.0v7 M-2.5,-0.5L0,-3.0L2.5,-0.5"/>
  </g>
  <g id="arrowDown" transform="rotate(180) translate(-30 -48)">
    <use xlink:href="#rim"/>
    <path pointer-events="none" fill="none" stroke="white" stroke-width="1.5" d="M0,-3.0v7 M-2.5,-0.5L0,-3.0L2.5,-0.5"/>
  </g>
  <g id="arrowLeft" transform="rotate(270) translate(-36 17)">
    <use xlink:href="#rim"/>
    <path pointer-events="none" fill="none" stroke="white" stroke-width="1.5" d="M0,-3.0v7 M-2.5,-0.5L0,-3.0L2.5,-0.5"/>
  </g>
  <g id="resetDef">
    <use xlink:href="#rim2" fill="#404040"><set attributeName="fill" to="#808080" begin="reset.mouseover" end="reset.mouseout"/></use>
  </g>
</defs>
<script type="application/ecmascript">
var viewWidth = 195;
var viewHeight = 894;
var sectionId = 'dynsection-1';
</script>
<script type="application/ecmascript" xlink:href="svg.min.js"/>
<svg id="graph" class="graph">
<g id="viewport">
<title>unilink::builder::TcpClientBuilder</title>
<!-- Node1 -->
<g id="Node000001" class="node">
<title>Node1</title>
<g id="a_Node000001"><a xlink:title="Modernized Builder for TcpClient.">
<polygon fill="#999999" stroke="transparent" points="146,-210 12,-210 12,0 146,0 146,-210"/>
<text text-anchor="start" x="17" y="-198" font-family="Helvetica,sans-Serif" font-size="10.00">unilink::builder::TcpClient</text>
<text text-anchor="start" x="61.5" y="-187" font-family="Helvetica,sans-Serif" font-size="10.00">Builder</text>
<text text-anchor="start" x="77" y="-172" font-family="Helvetica,sans-Serif" font-size="10.00"> </text>
<text text-anchor="start" x="16.5" y="-157" font-family="Helvetica,sans-Serif" font-size="10.00">+</text>
<text text-anchor="start" x="30" y="-157" font-family="Helvetica,sans-Serif" font-size="10.00">TcpClientBuilder()</text>
<text text-anchor="start" x="16.5" y="-142" font-family="Helvetica,sans-Serif" font-size="10.00">+</text>
<text text-anchor="start" x="30" y="-142" font-family="Helvetica,sans-Serif" font-size="10.00">TcpClientBuilder()</text>
<text text-anchor="start" x="16.5" y="-127" font-family="Helvetica,sans-Serif" font-size="10.00">+</text>
<text text-anchor="start" x="30" y="-127" font-family="Helvetica,sans-Serif" font-size="10.00">operator=()</text>
<text text-anchor="start" x="16.5" y="-112" font-family="Helvetica,sans-Serif" font-size="10.00">+</text>
<text text-anchor="start" x="30" y="-112" font-family="Helvetica,sans-Serif" font-size="10.00">TcpClientBuilder()</text>
<text text-anchor="start" x="16.5" y="-97" font-family="Helvetica,sans-Serif" font-size="10.00">+</text>
<text text-anchor="start" x="30" y="-97" font-family="Helvetica,sans-Serif" font-size="10.00">operator=()</text>
<text text-anchor="start" x="16.5" y="-82" font-family="Helvetica,sans-Serif" font-size="10.00">+</text>
<text text-anchor="start" x="30" y="-82" font-family="Helvetica,sans-Serif" font-size="10.00">build()</text>
<text text-anchor="start" x="16.5" y="-67" font-family="Helvetica,sans-Serif" font-size="10.00">+</text>
<text text-anchor="start" x="30" y="-67" font-family="Helvetica,sans-Serif" font-size="10.00">auto_start()</text>
<text text-anchor="start" x="16.5" y="-52" font-family="Helvetica,sans-Serif" font-size="10.00">+</text>
<text text-anchor="start" x="30" y="-52" font-family="Helvetica,sans-Serif" font-size="10.00">retry_interval()</text>
<text text-anchor="start" x="16.5" y="-37" font-family="Helvetica,sans-Serif" font-size="10.00">+</text>
<text text-anchor="start" x="30" y="-37" font-family="Helvetica,sans-Serif" font-size="10.00">max_retries()</text>
<text text-anchor="start" x="16.5" y="-22" font-family="Helvetica,sans-Serif" font-size="10.00">+</text>
<text text-anchor="start" x="30" y="-22" font-family="Helvetica,sans-Serif" font-size="10.00">connection_timeout()</text>
<text text-anchor="start" x="16.5" y="-7" font-family="Helvetica,sans-Serif" font-size="10.00">+</text>
<text text-anchor="start" x="30" y="-7" font-family="Helvetica,sans-Serif" font-size="10.00">independent_context()</text>
<polygon fill="#666666" stroke="#666666" points="12,-182 12,-182 146,-182 146,-182 12,-182"/>
<polygon fill="#666666" stroke="#666666" points="12,-167 12,-167 146,-167 146,-167 12,-167"/>
<polygon fill="none" stroke="#666666" points="12,0 12,-210 146,-210 146,0 12,0"/>
</a>
</g>
</g>
<!-- Node2 -->
<g id="Node000002" class="node">
<title>Node2</title>
<g id="a_Node000002"><a xlink:href="classunilink_1_1builder_1_1BuilderInterface.html" target="_top" xlink:title=" ">
<polygon fill="white" stroke="transparent" points="158,-543 0,-543 0,-247 158,-247 158,-543"/>
<text text-anchor="start" x="5" y="-531" font-family="Helvetica,sans-Serif" font-size="10.00">unilink::builder::Builder</text>
<text text-anchor="start" x="5" y="-520" font-family="Helvetica,sans-Serif" font-size="10.00">Interface&lt; wrapper::TcpClient,</text>
<text text-anchor="start" x="32" y="-509" font-family="Helvetica,sans-Serif" font-size="10.00"> TcpClientBuilder &gt;</text>
<text text-anchor="start" x="14.5" y="-494" font-family="Helvetica,sans-Serif" font-size="10.00">#</text>
<text text-anchor="start" x="38" y="-494" font-family="Helvetica,sans-Serif" font-size="10.00">framer_factory_</text>
<text text-anchor="start" x="14.5" y="-479" font-family="Helvetica,sans-Serif" font-size="10.00">#</text>
<text text-anchor="start" x="38" y="-479" font-family="Helvetica,sans-Serif" font-size="10.00">on_data_</text>
<text text-anchor="start" x="14.5" y="-464" font-family="Helvetica,sans-Serif" font-size="10.00">#</text>
<text text-anchor="start" x="38" y="-464" font-family="Helvetica,sans-Serif" font-size="10.00">on_connect_</text>
<text text-anchor="start" x="14.5" y="-449" font-family="Helvetica,sans-Serif" font-size="10.00">#</text>
<text text-anchor="start" x="38" y="-449" font-family="Helvetica,sans-Serif" font-size="10.00">on_disconnect_</text>
<text text-anchor="start" x="14.5" y="-434" font-family="Helvetica,sans-Serif" font-size="10.00">#</text>
<text text-anchor="start" x="38" y="-434" font-family="Helvetica,sans-Serif" font-size="10.00">on_error_</text>
<text text-anchor="start" x="14.5" y="-419" font-family="Helvetica,sans-Serif" font-size="10.00">#</text>
<text text-anchor="start" x="38" y="-419" font-family="Helvetica,sans-Serif" font-size="10.00">on_message_</text>
<text text-anchor="start" x="14.5" y="-404" font-family="Helvetica,sans-Serif" font-size="10.00">+</text>
<text text-anchor="start" x="38" y="-404" font-family="Helvetica,sans-Serif" font-size="10.00">~BuilderInterface()</text>
<text text-anchor="start" x="14.5" y="-389" font-family="Helvetica,sans-Serif" font-size="10.00">+</text>
<text text-anchor="start" x="38" y="-389" font-family="Helvetica,sans-Serif" font-size="10.00">BuilderInterface()</text>
<text text-anchor="start" x="14.5" y="-374" font-family="Helvetica,sans-Serif" font-size="10.00">+</text>
<text text-anchor="start" x="38" y="-374" font-family="Helvetica,sans-Serif" font-size="10.00">BuilderInterface()</text>
<text text-anchor="start" x="14.5" y="-359" font-family="Helvetica,sans-Serif" font-size="10.00">+</text>
<text text-anchor="start" x="38" y="-359" font-family="Helvetica,sans-Serif" font-size="10.00">BuilderInterface()</text>
<text text-anchor="start" x="14.5" y="-344" font-family="Helvetica,sans-Serif" font-size="10.00">+</text>
<text text-anchor="start" x="38" y="-344" font-family="Helvetica,sans-Serif" font-size="10.00">operator=()</text>
<text text-anchor="start" x="14.5" y="-329" font-family="Helvetica,sans-Serif" font-size="10.00">+</text>
<text text-anchor="start" x="38" y="-329" font-family="Helvetica,sans-Serif" font-size="10.00">operator=()</text>
<text text-anchor="start" x="14.5" y="-314" font-family="Helvetica,sans-Serif" font-size="10.00">+</text>
<text text-anchor="start" x="38" y="-314" font-family="Helvetica,sans-Serif" font-size="10.00">build()</text>
<text text-anchor="start" x="14.5" y="-299" font-family="Helvetica,sans-Serif" font-size="10.00">+</text>
<text text-anchor="start" x="38" y="-299" font-family="Helvetica,sans-Serif" font-size="10.00">auto_start()</text>
<text text-anchor="start" x="14.5" y="-284" font-family="Helvetica,sans-Serif" font-size="10.00">+</text>
<text text-anchor="start" x="38" y="-284" font-family="Helvetica,sans-Serif" font-size="10.00">on_data()</text>
<text text-anchor="start" x="14.5" y="-269" font-family="Helvetica,sans-Serif" font-size="10.00">+</text>
<text text-anchor="start" x="38" y="-269" font-family="Helvetica,sans-Serif" font-size="10.00">on_data()</text>
<text text-anchor="start" x="38" y="-254" font-family="Helvetica,sans-Serif" font-size="10.00">and 11 more...</text>
<polygon fill="#666666" stroke="#666666" points="0,-504 0,-504 158,-504 158,-504 0,-504"/>
<polygon fill="#666666" stroke="#666666" points="0,-414 0,-414 36,-414 36,-414 0,-414"/>
<polygon fill="#666666" stroke="#666666" points="36,-414 36,-414 158,-414 158,-414 36,-414"/>
<polygon fill="none" stroke="#666666" points="0,-247 0,-543 158,-543 158,-247 0,-247"/>
</a>
</g>
</g>
<!-- Node2&#45;&gt;Node1 -->
<g id="edge1_Node000001_Node000002" class="edge">
<title>Node2&#45;&gt;Node1</title>
<g id="a_edge1_Node000001_Node000002"><a xlink:title=" ">
<path fill="none" stroke="#63b8ff" d="M79,-236.54C79,-227.62 79,-218.77 79,-210.13"/>
<polygon fill="none" stroke="#63b8ff" points="75.5,-236.63 79,-246.63 82.5,-236.63 75.5,-236.63"/>
</a>
</g>
</g>
<!-- Node3 -->
<g id="Node000003" class="node">
<title>Node3</title>
<g id="a_Node000003"><a xlink:href="classunilink_1_1builder_1_1BuilderInterface.html" target="_top" xlink:title="Generic Builder interface for fluent API pattern.">
<polygon fill="white" stroke="transparent" points="142.5,-886 15.5,-886 15.5,-601 142.5,-601 142.5,-886"/>
<text text-anchor="start" x="21" y="-873.5" font-family="Helvetica,sans-Serif" font-size="10.00">unilink::builder::Builder</text>
<text text-anchor="start" x="21" y="-862.5" font-family="Helvetica,sans-Serif" font-size="10.00">Interface&lt; T, Derived &gt;</text>
<text text-anchor="start" x="23" y="-847.5" font-family="Helvetica,sans-Serif" font-size="10.00">#</text>
<text text-anchor="start" x="39" y="-847.5" font-family="Helvetica,sans-Serif" font-size="10.00">framer_factory_</text>
<text text-anchor="start" x="23" y="-832.5" font-family="Helvetica,sans-Serif" font-size="10.00">#</text>
<text text-anchor="start" x="39" y="-832.5" font-family="Helvetica,sans-Serif" font-size="10.00">on_data_</text>
<text text-anchor="start" x="23" y="-817.5" font-family="Helvetica,sans-Serif" font-size="10.00">#</text>
<text text-anchor="start" x="39" y="-817.5" font-family="Helvetica,sans-Serif" font-size="10.00">on_connect_</text>
<text text-anchor="start" x="23" y="-802.5" font-family="Helvetica,sans-Serif" font-size="10.00">#</text>
<text text-anchor="start" x="39" y="-802.5" font-family="Helvetica,sans-Serif" font-size="10.00">on_disconnect_</text>
<text text-anchor="start" x="23" y="-787.5" font-family="Helvetica,sans-Serif" font-size="10.00">#</text>
<text text-anchor="start" x="39" y="-787.5" font-family="Helvetica,sans-Serif" font-size="10.00">on_error_</text>
<text text-anchor="start" x="23" y="-772.5" font-family="Helvetica,sans-Serif" font-size="10.00">#</text>
<text text-anchor="start" x="39" y="-772.5" font-family="Helvetica,sans-Serif" font-size="10.00">on_message_</text>
<text text-anchor="start" x="23" y="-757.5" font-family="Helvetica,sans-Serif" font-size="10.00">+</text>
<text text-anchor="start" x="39" y="-757.5" font-family="Helvetica,sans-Serif" font-size="10.00">~BuilderInterface()</text>
<text text-anchor="start" x="23" y="-742.5" font-family="Helvetica,sans-Serif" font-size="10.00">+</text>
<text text-anchor="start" x="39" y="-742.5" font-family="Helvetica,sans-Serif" font-size="10.00">BuilderInterface()</text>
<text text-anchor="start" x="23" y="-727.5" font-family="Helvetica,sans-Serif" font-size="10.00">+</text>
<text text-anchor="start" x="39" y="-727.5" font-family="Helvetica,sans-Serif" font-size="10.00">BuilderInterface()</text>
<text text-anchor="start" x="23" y="-712.5" font-family="Helvetica,sans-Serif" font-size="10.00">+</text>
<text text-anchor="start" x="39" y="-712.5" font-family="Helvetica,sans-Serif" font-size="10.00">BuilderInterface()</text>
<text text-anchor="start" x="23" y="-697.5" font-family="Helvetica,sans-Serif" font-size="10.00">+</text>
<text text-anchor="start" x="39" y="-697.5" font-family="Helvetica,sans-Serif" font-size="10.00">operator=()</text>
<text text-anchor="start" x="23" y="-682.5" font-family="Helvetica,sans-Serif" font-size="10.00">+</text>
<text text-anchor="start" x="39" y="-682.5" font-family="Helvetica,sans-Serif" font-size="10.00">operator=()</text>
<text text-anchor="start" x="23" y="-667.5" font-family="Helvetica,sans-Serif" font-size="10.00">+</text>
<text text-anchor="start" x="39" y="-667.5" font-family="Helvetica,sans-Serif" font-size="10.00">build()</text>
<text text-anchor="start" x="23" y="-652.5" font-family="Helvetica,sans-Serif" font-size="10.00">+</text>
<text text-anchor="start" x="39" y="-652.5" font-family="Helvetica,sans-Serif" font-size="10.00">auto_start()</text>
<text text-anchor="start" x="23" y="-637.5" font-family="Helvetica,sans-Serif" font-size="10.00">+</text>
<text text-anchor="start" x="39" y="-637.5" font-family="Helvetica,sans-Serif" font-size="10.00">on_data()</text>
<text text-anchor="start" x="23" y="-622.5" font-family="Helvetica,sans-Serif" font-size="10.00">+</text>
<text text-anchor="start" x="39" y="-622.5" font-family="Helvetica,sans-Serif" font-size="10.00">on_data()</text>
<text text-anchor="start" x="39" y="-607.5" font-family="Helvetica,sans-Serif" font-size="10.00">and 11 more...</text>
<polygon fill="#666666" stroke="#666666" points="16,-857.5 16,-857.5 143,-857.5 143,-857.5 16,-857.5"/>
<polygon fill="#666666" stroke="#666666" points="16,-767.5 16,-767.5 37,-767.5 37,-767.5 16,-767.5"/>
<polygon fill="#666666" stroke="#666666" points="37,-767.5 37,-767.5 143,-767.5 143,-767.5 37,-767.5"/>
<polygon fill="none" stroke="#666666" points="15.5,-601 15.5,-886 142.5,-886 142.5,-601 15.5,-601"/>
</a>
</g>
</g>
<!-- Node3&#45;&gt;Node2 -->
<g id="edge2_Node000002_Node000003" class="edge">
<title>Node3&#45;&gt;Node2</title>
<g id="a_edge2_Node000002_Node000003"><a xlink:title=" ">
<path fill="none" stroke="orange" d="M79,-590.54C79,-574.84 79,-558.9 79,-543.25"/>
<polygon fill="orange" stroke="orange" points="75.5,-590.82 79,-600.82 82.5,-590.82 75.5,-590.82"/>
</a>
</g>
<text text-anchor="start" x="79" y="-575" font-family="Helvetica,sans-Serif" font-size="10.00" fill="grey"> &lt; wrapper::TcpClient,</text>
<text text-anchor="middle" x="133" y="-564" font-family="Helvetica,sans-Serif" font-size="10.00" fill="grey"> TcpClientBuilder &gt;</text>
</g>
</g>
</svg>

<g id="navigator" transform="translate(0 0)" fill="#404254">
  <rect fill="#f2f5e9" fill-opacity="0.5" stroke="#606060" stroke-width=".5" x="0" y="0" width="60" height="60"/>
  <use id="zoomplus" xlink:href="#zoomPlus" x="17" y="9" onmousedown="handleZoom(evt,'in')"/>
  <use id="zoomminus" xlink:href="#zoomMin" x="42" y="9" onmousedown="handleZoom(evt,'out')"/>
  <use id="reset" xlink:href="#resetDef" x="30" y="36" onmousedown="handleReset()"/>
   <use id="arrowup" xlink:href="#arrowUp" x="0" y="0" onmousedown="handlePan(0,-1)"/>
  <use id="arrowright" xlink:href="#arrowRight" x="0" y="0" onmousedown="handlePan(1,0)"/>
  <use id="arrowdown" xlink:href="#arrowDown" x="0" y="0" onmousedown="handlePan(0,1)"/>
  <use id="arrowleft" xlink:href="#arrowLeft" x="0" y="0" onmousedown="handlePan(-1,0)"/>
</g>
<svg viewBox="0 0 15 15" width="100%" height="30px" preserveAspectRatio="xMaxYMin meet">
 <g id="arrow_out" transform="scale(0.3 0.3)">
  <a xlink:href="classunilink_1_1builder_1_1TcpClientBuilder__coll__graph_org.svg" target="_base">
   <rect id="button" ry="5" rx="5" y="6" x="6" height="38" width="38"
        fill="#f2f5e9" fill-opacity="0.5" stroke="#606060" stroke-width="1.0"/>
   <path id="arrow"
     d="M 11.500037,31.436501 C 11.940474,20.09759 22.043105,11.32322 32.158766,21.979434 L 37.068811,17.246167 C 37.068811,17.246167 37.088388,32 37.088388,32 L 22.160133,31.978069 C 22.160133,31.978069 26.997745,27.140456 26.997745,27.140456 C 18.528582,18.264221 13.291696,25.230495 11.500037,31.436501 z"
     style="fill:#404040;"/>
  </a>
 </g>
</svg>

<style type='text/css'>
<![CDATA[
[data-mouse-over-selected='false'] { opacity: 0.7; }
[data-mouse-over-selected='true']  { opacity: 1.0; }
]]>
</style>
<script type="application/ecmascript"><![CDATA[
document.addEventListener('DOMContentLoaded', (event) => {
  highlightEdges();
  highlightAdjacentNodes();
});
]]></script>
</svg>
