<?xml version="1.0" encoding="UTF-8" standalone="no"?>
<!DOCTYPE svg PUBLIC "-//W3C//DTD SVG 1.1//EN"
 "http://www.w3.org/Graphics/SVG/1.1/DTD/svg11.dtd">
<!-- Generated by graphviz version 2.43.0 (0)
 -->
<!-- Title: unilink::memory::SafeSpan::subspan Pages: 1 -->
<svg width="353pt" height="86pt"
 viewBox="0.00 0.00 353.00 86.00" xmlns="http://www.w3.org/2000/svg" xmlns:xlink="http://www.w3.org/1999/xlink">
<g id="graph0" class="graph" transform="scale(1 1) rotate(0) translate(4 82)">
<title>unilink::memory::SafeSpan::subspan</title>
<!-- Node1 -->
<g id="Node000001" class="node">
<title>Node1</title>
<g id="a_Node000001"><a xlink:title=" ">
<polygon fill="#999999" stroke="#666666" points="345,-54 197,-54 197,-24 345,-24 345,-54"/>
<text text-anchor="start" x="205" y="-42" font-family="Helvetica,sans-Serif" font-size="10.00">unilink::memory::SafeSpan</text>
<text text-anchor="middle" x="271" y="-31" font-family="Helvetica,sans-Serif" font-size="10.00">::subspan</text>
</a>
</g>
</g>
<!-- Node2 -->
<g id="Node000002" class="node">
<title>Node2</title>
<g id="a_Node000002"><a xlink:href="classunilink_1_1framer_1_1LineFramer.html#a5d2f38f248590d01685c302819a5c717" target="_top" xlink:title="Push raw bytes into the framer&#39;s internal buffer.">
<polygon fill="white" stroke="#666666" points="155,-78 6,-78 6,-48 155,-48 155,-78"/>
<text text-anchor="start" x="14" y="-66" font-family="Helvetica,sans-Serif" font-size="10.00">unilink::framer::LineFramer</text>
<text text-anchor="middle" x="80.5" y="-55" font-family="Helvetica,sans-Serif" font-size="10.00">::push_bytes</text>
</a>
</g>
</g>
<!-- Node1&#45;&gt;Node2 -->
<g id="edge1_Node000001_Node000002" class="edge">
<title>Node1&#45;&gt;Node2</title>
<g id="a_edge1_Node000001_Node000002"><a xlink:title=" ">
<path fill="none" stroke="#63b8ff" d="M186.83,-49.59C176.31,-50.93 165.59,-52.29 155.23,-53.61"/>
<polygon fill="#63b8ff" stroke="#63b8ff" points="187.37,-53.05 196.85,-48.31 186.49,-46.1 187.37,-53.05"/>
</a>
</g>
</g>
<!-- Node3 -->
<g id="Node000003" class="node">
<title>Node3</title>
<g id="a_Node000003"><a xlink:href="classunilink_1_1framer_1_1PacketFramer.html#ae0de7a72e4794e1df90a30eb73289993" target="_top" xlink:title="Push raw bytes into the framer&#39;s internal buffer.">
<polygon fill="white" stroke="#666666" points="161,-30 0,-30 0,0 161,0 161,-30"/>
<text text-anchor="start" x="8" y="-18" font-family="Helvetica,sans-Serif" font-size="10.00">unilink::framer::PacketFramer</text>
<text text-anchor="middle" x="80.5" y="-7" font-family="Helvetica,sans-Serif" font-size="10.00">::push_bytes</text>
</a>
</g>
</g>
<!-- Node1&#45;&gt;Node3 -->
<g id="edge2_Node000001_Node000003" class="edge">
<title>Node1&#45;&gt;Node3</title>
<g id="a_edge2_Node000001_Node000003"><a xlink:title=" ">
<path fill="none" stroke="#63b8ff" d="M186.89,-28.42C178.35,-27.33 169.68,-26.23 161.17,-25.14"/>
<polygon fill="#63b8ff" stroke="#63b8ff" points="186.49,-31.9 196.85,-29.69 187.37,-24.95 186.49,-31.9"/>
</a>
</g>
</g>
</g>
</svg>
