<?xml version="1.0" encoding="UTF-8" standalone="no"?>
<!DOCTYPE svg PUBLIC "-//W3C//DTD SVG 1.1//EN"
 "http://www.w3.org/Graphics/SVG/1.1/DTD/svg11.dtd">
<!-- Generated by graphviz version 2.43.0 (0)
 -->
<!-- Title: unilink::diagnostics::Logger::log Pages: 1 -->
<svg width="402pt" height="235pt"
 viewBox="0.00 0.00 402.00 235.00" xmlns="http://www.w3.org/2000/svg" xmlns:xlink="http://www.w3.org/1999/xlink">
<g id="graph0" class="graph" transform="scale(1 1) rotate(0) translate(4 231)">
<title>unilink::diagnostics::Logger::log</title>
<polygon fill="white" stroke="transparent" points="-4,4 -4,-231 398,-231 398,4 -4,4"/>
<!-- Node1 -->
<g id="node1" class="node">
<title>Node1</title>
<g id="a_node1"><a xlink:title=" ">
<polygon fill="#bfbfbf" stroke="black" points="283,-98.5 283,-128.5 394,-128.5 394,-98.5 283,-98.5"/>
<text text-anchor="start" x="291" y="-116.5" font-family="Helvetica,sans-Serif" font-size="10.00">unilink::diagnostics</text>
<text text-anchor="middle" x="338.5" y="-105.5" font-family="Helvetica,sans-Serif" font-size="10.00">::Logger::log</text>
</a>
</g>
</g>
<!-- Node2 -->
<g id="node2" class="node">
<title>Node2</title>
<g id="a_node2"><a xlink:href="classunilink_1_1diagnostics_1_1Logger.html#a286630c83e07db4633e3f9a9f1f1c115" target="_top" xlink:title=" ">
<polygon fill="white" stroke="black" points="136,-196.5 136,-226.5 247,-226.5 247,-196.5 136,-196.5"/>
<text text-anchor="start" x="144" y="-214.5" font-family="Helvetica,sans-Serif" font-size="10.00">unilink::diagnostics</text>
<text text-anchor="middle" x="191.5" y="-203.5" font-family="Helvetica,sans-Serif" font-size="10.00">::Logger::critical</text>
</a>
</g>
</g>
<!-- Node1&#45;&gt;Node2 -->
<g id="edge1" class="edge">
<title>Node1&#45;&gt;Node2</title>
<path fill="none" stroke="midnightblue" d="M314.34,-135.42C296.8,-151.25 271.61,-172.41 247,-187.5 241.8,-190.69 236.1,-193.68 230.41,-196.4"/>
<polygon fill="midnightblue" stroke="midnightblue" points="316.82,-137.89 321.83,-128.56 312.09,-132.73 316.82,-137.89"/>
</g>
<!-- Node3 -->
<g id="node3" class="node">
<title>Node3</title>
<g id="a_node3"><a xlink:href="classunilink_1_1diagnostics_1_1Logger.html#ace307c5e28ee9971be657e431f31a8e5" target="_top" xlink:title=" ">
<polygon fill="white" stroke="black" points="136,-147.5 136,-177.5 247,-177.5 247,-147.5 136,-147.5"/>
<text text-anchor="start" x="144" y="-165.5" font-family="Helvetica,sans-Serif" font-size="10.00">unilink::diagnostics</text>
<text text-anchor="middle" x="191.5" y="-154.5" font-family="Helvetica,sans-Serif" font-size="10.00">::Logger::debug</text>
</a>
</g>
</g>
<!-- Node1&#45;&gt;Node3 -->
<g id="edge2" class="edge">
<title>Node1&#45;&gt;Node3</title>
<path fill="none" stroke="midnightblue" d="M283.08,-131.89C267.98,-136.99 251.77,-142.47 237.29,-147.36"/>
<polygon fill="midnightblue" stroke="midnightblue" points="284.46,-135.12 292.81,-128.6 282.22,-128.49 284.46,-135.12"/>
</g>
<!-- Node4 -->
<g id="node4" class="node">
<title>Node4</title>
<g id="a_node4"><a xlink:href="classunilink_1_1diagnostics_1_1Logger.html#a7f7c78e7d5cda5129036b660fd9f1f46" target="_top" xlink:title=" ">
<polygon fill="white" stroke="black" points="136,-98.5 136,-128.5 247,-128.5 247,-98.5 136,-98.5"/>
<text text-anchor="start" x="144" y="-116.5" font-family="Helvetica,sans-Serif" font-size="10.00">unilink::diagnostics</text>
<text text-anchor="middle" x="191.5" y="-105.5" font-family="Helvetica,sans-Serif" font-size="10.00">::Logger::error</text>
</a>
</g>
</g>
<!-- Node1&#45;&gt;Node4 -->
<g id="edge3" class="edge">
<title>Node1&#45;&gt;Node4</title>
<path fill="none" stroke="midnightblue" d="M272.54,-113.5C264.14,-113.5 255.61,-113.5 247.4,-113.5"/>
<polygon fill="midnightblue" stroke="midnightblue" points="272.68,-117 282.68,-113.5 272.68,-110 272.68,-117"/>
</g>
<!-- Node5 -->
<g id="node5" class="node">
<title>Node5</title>
<g id="a_node5"><a xlink:href="classunilink_1_1diagnostics_1_1Logger.html#a7ba92315a3aca3940aa2bf1f4aa7277e" target="_top" xlink:title=" ">
<polygon fill="white" stroke="black" points="136,-49.5 136,-79.5 247,-79.5 247,-49.5 136,-49.5"/>
<text text-anchor="start" x="144" y="-67.5" font-family="Helvetica,sans-Serif" font-size="10.00">unilink::diagnostics</text>
<text text-anchor="middle" x="191.5" y="-56.5" font-family="Helvetica,sans-Serif" font-size="10.00">::Logger::info</text>
</a>
</g>
</g>
<!-- Node1&#45;&gt;Node5 -->
<g id="edge4" class="edge">
<title>Node1&#45;&gt;Node5</title>
<path fill="none" stroke="midnightblue" d="M283.08,-95.11C267.98,-90.01 251.77,-84.53 237.29,-79.64"/>
<polygon fill="midnightblue" stroke="midnightblue" points="282.22,-98.51 292.81,-98.4 284.46,-91.88 282.22,-98.51"/>
</g>
<!-- Node7 -->
<g id="node7" class="node">
<title>Node7</title>
<g id="a_node7"><a xlink:href="classunilink_1_1diagnostics_1_1Logger.html#ad60664c997885ffc6326d8c299189116" target="_top" xlink:title=" ">
<polygon fill="white" stroke="black" points="136,-0.5 136,-30.5 247,-30.5 247,-0.5 136,-0.5"/>
<text text-anchor="start" x="144" y="-18.5" font-family="Helvetica,sans-Serif" font-size="10.00">unilink::diagnostics</text>
<text text-anchor="middle" x="191.5" y="-7.5" font-family="Helvetica,sans-Serif" font-size="10.00">::Logger::warning</text>
</a>
</g>
</g>
<!-- Node1&#45;&gt;Node7 -->
<g id="edge6" class="edge">
<title>Node1&#45;&gt;Node7</title>
<path fill="none" stroke="midnightblue" d="M313.9,-91.73C296.32,-76.21 271.26,-55.52 247,-40.5 241.25,-36.94 234.9,-33.57 228.64,-30.53"/>
<polygon fill="midnightblue" stroke="midnightblue" points="311.64,-94.4 321.42,-98.46 316.3,-89.18 311.64,-94.4"/>
</g>
<!-- Node6 -->
<g id="node6" class="node">
<title>Node6</title>
<g id="a_node6"><a xlink:href="namespaceunilink_1_1base.html#a07399b407f151a0fb40ac854476a40c5" target="_top" xlink:title=" ">
<polygon fill="white" stroke="black" points="0,-49.5 0,-79.5 100,-79.5 100,-49.5 0,-49.5"/>
<text text-anchor="start" x="8" y="-67.5" font-family="Helvetica,sans-Serif" font-size="10.00">unilink::base::log</text>
<text text-anchor="middle" x="50" y="-56.5" font-family="Helvetica,sans-Serif" font-size="10.00">_message</text>
</a>
</g>
</g>
<!-- Node5&#45;&gt;Node6 -->
<g id="edge5" class="edge">
<title>Node5&#45;&gt;Node6</title>
<path fill="none" stroke="midnightblue" d="M125.74,-64.5C117.13,-64.5 108.42,-64.5 100.13,-64.5"/>
<polygon fill="midnightblue" stroke="midnightblue" points="125.77,-68 135.77,-64.5 125.77,-61 125.77,-68"/>
</g>
</g>
</svg>
