<?xml version="1.0" encoding="UTF-8" standalone="no"?>
<!DOCTYPE svg PUBLIC "-//W3C//DTD SVG 1.1//EN"
 "http://www.w3.org/Graphics/SVG/1.1/DTD/svg11.dtd">
<!-- Generated by graphviz version 2.43.0 (0)
 -->
<!-- Title: unilink/base/common.hpp Pages: 1 -->
<!--zoomable 207 -->
<svg id="main" version="1.1" xmlns="http://www.w3.org/2000/svg" xmlns:xlink="http://www.w3.org/1999/xlink" xml:space="preserve" onload="init(evt)">
<style type="text/css"><![CDATA[
.edge:hover path { stroke: red; }
.edge:hover polygon { stroke: red; fill: red; }
]]></style>
<script type="text/javascript"><![CDATA[
var edges = document.getElementsByTagName('g');
if (edges && edges.length) {
  for (var i=0;i<edges.length;i++) {
    if (edges[i].id.substr(0,4)=='edge') {
      edges[i].setAttribute('class','edge');
    }
  }
}
]]></script>
        <defs>
                <circle id="rim" cx="0" cy="0" r="7"/>
                <circle id="rim2" cx="0" cy="0" r="3.5"/>
                <g id="zoomPlus">
                        <use xlink:href="#rim" fill="#404040">
                                <set attributeName="fill" to="#808080" begin="zoomplus.mouseover" end="zoomplus.mouseout"/>
                        </use>
                        <path d="M-4,0h8M0,-4v8" fill="none" stroke="white" stroke-width="1.5" pointer-events="none"/>
                </g>
                <g id="zoomMin">
                        <use xlink:href="#rim" fill="#404040">
                                <set attributeName="fill" to="#808080" begin="zoomminus.mouseover" end="zoomminus.mouseout"/>
                        </use>
                        <path d="M-4,0h8" fill="none" stroke="white" stroke-width="1.5" pointer-events="none"/>
                </g>
                <g id="dirArrow">
                        <path fill="none" stroke="white" stroke-width="1.5" d="M0,-3.0v7 M-2.5,-0.5L0,-3.0L2.5,-0.5"/>
                </g>
               <g id="resetDef">
                       <use xlink:href="#rim2" fill="#404040">
                               <set attributeName="fill" to="#808080" begin="reset.mouseover" end="reset.mouseout"/>
                       </use>
               </g>
        </defs>

<script type="text/javascript">
var viewWidth = 1367;
var viewHeight = 207;
var sectionId = 'dynsection-0';
</script>
<script xlink:href="svgpan.js"/>
<svg id="graph" class="graph">
<g id="viewport">
<title>unilink/base/common.hpp</title>
<polygon fill="white" stroke="transparent" points="-4,4 -4,-203 1363.22,-203 1363.22,4 -4,4"/>
<!-- Node1 -->
<g id="node1" class="node">
<title>Node1</title>
<g id="a_node1"><a xlink:title=" ">
<polygon fill="#bfbfbf" stroke="black" points="760.22,-179.5 760.22,-198.5 903.22,-198.5 903.22,-179.5 760.22,-179.5"/>
<text text-anchor="middle" x="831.72" y="-186.5" font-family="Helvetica,sans-Serif" font-size="10.00">unilink/base/common.hpp</text>
</a>
</g>
</g>
<!-- Node2 -->
<g id="node2" class="node">
<title>Node2</title>
<g id="a_node2"><a xlink:title=" ">
<polygon fill="white" stroke="#bfbfbf" points="543.72,-0.5 543.72,-19.5 593.72,-19.5 593.72,-0.5 543.72,-0.5"/>
<text text-anchor="middle" x="568.72" y="-7.5" font-family="Helvetica,sans-Serif" font-size="10.00">chrono</text>
</a>
</g>
</g>
<!-- Node1&#45;&gt;Node2 -->
<g id="edge1" class="edge">
<title>Node1&#45;&gt;Node2</title>
<path fill="none" stroke="midnightblue" d="M820.18,-179.49C809.08,-170.97 792.2,-157.15 779.72,-143 748.98,-108.15 759.15,-83.54 721.72,-56 716.85,-52.41 647.24,-32.73 603.61,-20.61"/>
<polygon fill="midnightblue" stroke="midnightblue" points="604.5,-17.23 593.93,-17.93 602.63,-23.97 604.5,-17.23"/>
</g>
<!-- Node3 -->
<g id="node3" class="node">
<title>Node3</title>
<g id="a_node3"><a xlink:title=" ">
<polygon fill="white" stroke="#bfbfbf" points="806.72,-118 806.72,-137 856.72,-137 856.72,-118 806.72,-118"/>
<text text-anchor="middle" x="831.72" y="-125" font-family="Helvetica,sans-Serif" font-size="10.00">cstdint</text>
</a>
</g>
</g>
<!-- Node1&#45;&gt;Node3 -->
<g id="edge2" class="edge">
<title>Node1&#45;&gt;Node3</title>
<path fill="none" stroke="midnightblue" d="M831.72,-179.48C831.72,-171.08 831.72,-157.98 831.72,-147.16"/>
<polygon fill="midnightblue" stroke="midnightblue" points="835.22,-147.01 831.72,-137.01 828.22,-147.01 835.22,-147.01"/>
</g>
<!-- Node4 -->
<g id="node4" class="node">
<title>Node4</title>
<g id="a_node4"><a xlink:title=" ">
<polygon fill="white" stroke="#bfbfbf" points="874.72,-118 874.72,-137 924.72,-137 924.72,-118 874.72,-118"/>
<text text-anchor="middle" x="899.72" y="-125" font-family="Helvetica,sans-Serif" font-size="10.00">cstring</text>
</a>
</g>
</g>
<!-- Node1&#45;&gt;Node4 -->
<g id="edge3" class="edge">
<title>Node1&#45;&gt;Node4</title>
<path fill="none" stroke="midnightblue" d="M841.46,-179.48C852.07,-170.2 869.24,-155.17 882.2,-143.83"/>
<polygon fill="midnightblue" stroke="midnightblue" points="884.78,-146.23 890,-137.01 880.17,-140.96 884.78,-146.23"/>
</g>
<!-- Node5 -->
<g id="node5" class="node">
<title>Node5</title>
<g id="a_node5"><a xlink:title=" ">
<polygon fill="white" stroke="#bfbfbf" points="942.72,-118 942.72,-137 986.72,-137 986.72,-118 942.72,-118"/>
<text text-anchor="middle" x="964.72" y="-125" font-family="Helvetica,sans-Serif" font-size="10.00">ctime</text>
</a>
</g>
</g>
<!-- Node1&#45;&gt;Node5 -->
<g id="edge4" class="edge">
<title>Node1&#45;&gt;Node5</title>
<path fill="none" stroke="midnightblue" d="M851.72,-179.33C872.32,-170.37 905.35,-155.89 933.72,-143 934.91,-142.46 936.12,-141.91 937.34,-141.35"/>
<polygon fill="midnightblue" stroke="midnightblue" points="939.12,-144.38 946.72,-137 936.18,-138.03 939.12,-144.38"/>
</g>
<!-- Node6 -->
<g id="node6" class="node">
<title>Node6</title>
<g id="a_node6"><a xlink:title=" ">
<polygon fill="white" stroke="#bfbfbf" points="175.22,-56.5 175.22,-75.5 240.22,-75.5 240.22,-56.5 175.22,-56.5"/>
<text text-anchor="middle" x="207.72" y="-63.5" font-family="Helvetica,sans-Serif" font-size="10.00">functional</text>
</a>
</g>
</g>
<!-- Node1&#45;&gt;Node6 -->
<g id="edge5" class="edge">
<title>Node1&#45;&gt;Node6</title>
<path fill="none" stroke="midnightblue" d="M760.11,-186.19C674.49,-182.71 527.37,-172.57 404.72,-143 341.58,-127.78 271.48,-97.22 234.3,-79.85"/>
<polygon fill="midnightblue" stroke="midnightblue" points="235.68,-76.63 225.15,-75.53 232.69,-82.96 235.68,-76.63"/>
</g>
<!-- Node7 -->
<g id="node7" class="node">
<title>Node7</title>
<g id="a_node7"><a xlink:title=" ">
<polygon fill="white" stroke="#bfbfbf" points="1004.72,-118 1004.72,-137 1060.72,-137 1060.72,-118 1004.72,-118"/>
<text text-anchor="middle" x="1032.72" y="-125" font-family="Helvetica,sans-Serif" font-size="10.00">iomanip</text>
</a>
</g>
</g>
<!-- Node1&#45;&gt;Node7 -->
<g id="edge6" class="edge">
<title>Node1&#45;&gt;Node7</title>
<path fill="none" stroke="midnightblue" d="M866.91,-179.49C900.34,-171.14 951.87,-157.56 995.72,-143 997.99,-142.25 1000.32,-141.43 1002.65,-140.59"/>
<polygon fill="midnightblue" stroke="midnightblue" points="1004,-143.82 1012.12,-137.02 1001.53,-137.27 1004,-143.82"/>
</g>
<!-- Node8 -->
<g id="node8" class="node">
<title>Node8</title>
<g id="a_node8"><a xlink:title=" ">
<polygon fill="white" stroke="#bfbfbf" points="1078.72,-118 1078.72,-137 1138.72,-137 1138.72,-118 1078.72,-118"/>
<text text-anchor="middle" x="1108.72" y="-125" font-family="Helvetica,sans-Serif" font-size="10.00">iostream</text>
</a>
</g>
</g>
<!-- Node1&#45;&gt;Node8 -->
<g id="edge7" class="edge">
<title>Node1&#45;&gt;Node8</title>
<path fill="none" stroke="midnightblue" d="M892.03,-179.49C940.53,-171.95 1010.17,-159.57 1069.72,-143 1072.37,-142.26 1075.09,-141.42 1077.81,-140.53"/>
<polygon fill="midnightblue" stroke="midnightblue" points="1079.2,-143.75 1087.48,-137.14 1076.88,-137.15 1079.2,-143.75"/>
</g>
<!-- Node9 -->
<g id="node9" class="node">
<title>Node9</title>
<g id="a_node9"><a xlink:title=" ">
<polygon fill="white" stroke="#bfbfbf" points="1156.72,-118 1156.72,-137 1212.72,-137 1212.72,-118 1156.72,-118"/>
<text text-anchor="middle" x="1184.72" y="-125" font-family="Helvetica,sans-Serif" font-size="10.00">sstream</text>
</a>
</g>
</g>
<!-- Node1&#45;&gt;Node9 -->
<g id="edge8" class="edge">
<title>Node1&#45;&gt;Node9</title>
<path fill="none" stroke="midnightblue" d="M903.26,-182.58C967.92,-176.56 1065.33,-164.7 1147.72,-143 1150.38,-142.3 1153.11,-141.47 1155.82,-140.56"/>
<polygon fill="midnightblue" stroke="midnightblue" points="1157.23,-143.77 1165.42,-137.04 1154.82,-137.2 1157.23,-143.77"/>
</g>
<!-- Node10 -->
<g id="node10" class="node">
<title>Node10</title>
<g id="a_node10"><a xlink:title=" ">
<polygon fill="white" stroke="#bfbfbf" points="1231.22,-118 1231.22,-137 1296.22,-137 1296.22,-118 1231.22,-118"/>
<text text-anchor="middle" x="1263.72" y="-125" font-family="Helvetica,sans-Serif" font-size="10.00">stdexcept</text>
</a>
</g>
</g>
<!-- Node1&#45;&gt;Node10 -->
<g id="edge9" class="edge">
<title>Node1&#45;&gt;Node10</title>
<path fill="none" stroke="midnightblue" d="M903.32,-184.42C982.14,-179.39 1112.23,-167.9 1221.72,-143 1225.13,-142.22 1228.66,-141.27 1232.14,-140.22"/>
<polygon fill="midnightblue" stroke="midnightblue" points="1233.32,-143.51 1241.75,-137.09 1231.16,-136.86 1233.32,-143.51"/>
</g>
<!-- Node11 -->
<g id="node11" class="node">
<title>Node11</title>
<g id="a_node11"><a xlink:title=" ">
<polygon fill="white" stroke="#bfbfbf" points="112.72,-0.5 112.72,-19.5 156.72,-19.5 156.72,-0.5 112.72,-0.5"/>
<text text-anchor="middle" x="134.72" y="-7.5" font-family="Helvetica,sans-Serif" font-size="10.00">string</text>
</a>
</g>
</g>
<!-- Node1&#45;&gt;Node11 -->
<g id="edge10" class="edge">
<title>Node1&#45;&gt;Node11</title>
<path fill="none" stroke="midnightblue" d="M759.81,-188.95C641.66,-189.15 399.63,-183.9 199.72,-143 110.35,-124.72 58.66,-150.29 5.72,-76 -20.87,-38.69 56.18,-21.53 102.5,-14.76"/>
<polygon fill="midnightblue" stroke="midnightblue" points="102.99,-18.23 112.42,-13.4 102.04,-11.29 102.99,-18.23"/>
</g>
<!-- Node12 -->
<g id="node12" class="node">
<title>Node12</title>
<g id="a_node12"><a xlink:title=" ">
<polygon fill="white" stroke="#bfbfbf" points="639.22,-56.5 639.22,-75.5 712.22,-75.5 712.22,-56.5 639.22,-56.5"/>
<text text-anchor="middle" x="675.72" y="-63.5" font-family="Helvetica,sans-Serif" font-size="10.00">string_view</text>
</a>
</g>
</g>
<!-- Node1&#45;&gt;Node12 -->
<g id="edge11" class="edge">
<title>Node1&#45;&gt;Node12</title>
<path fill="none" stroke="midnightblue" d="M799.27,-179.42C777.07,-172.35 747.94,-160.6 726.72,-143 707.48,-127.04 692.62,-101.99 684.03,-85.05"/>
<polygon fill="midnightblue" stroke="midnightblue" points="687.02,-83.18 679.51,-75.71 680.72,-86.23 687.02,-83.18"/>
</g>
<!-- Node13 -->
<g id="node13" class="node">
<title>Node13</title>
<g id="a_node13"><a xlink:title=" ">
<polygon fill="white" stroke="#bfbfbf" points="1314.22,-118 1314.22,-137 1359.22,-137 1359.22,-118 1314.22,-118"/>
<text text-anchor="middle" x="1336.72" y="-125" font-family="Helvetica,sans-Serif" font-size="10.00">utility</text>
</a>
</g>
</g>
<!-- Node1&#45;&gt;Node13 -->
<g id="edge12" class="edge">
<title>Node1&#45;&gt;Node13</title>
<path fill="none" stroke="midnightblue" d="M903.35,-188.75C997.36,-188.04 1166.75,-180.88 1305.72,-143 1307.66,-142.47 1309.62,-141.83 1311.57,-141.12"/>
<polygon fill="midnightblue" stroke="midnightblue" points="1313.19,-144.23 1321.03,-137.11 1310.46,-137.79 1313.19,-144.23"/>
</g>
<!-- Node14 -->
<g id="node14" class="node">
<title>Node14</title>
<g id="a_node14"><a xlink:title=" ">
<polygon fill="white" stroke="#bfbfbf" points="612.22,-0.5 612.22,-19.5 659.22,-19.5 659.22,-0.5 612.22,-0.5"/>
<text text-anchor="middle" x="635.72" y="-7.5" font-family="Helvetica,sans-Serif" font-size="10.00">vector</text>
</a>
</g>
</g>
<!-- Node1&#45;&gt;Node14 -->
<g id="edge13" class="edge">
<title>Node1&#45;&gt;Node14</title>
<path fill="none" stroke="midnightblue" d="M824.44,-179.39C817.18,-170.58 805.95,-156.33 797.72,-143 775.07,-106.3 786.67,-84.98 754.72,-56 730.75,-34.25 695.22,-22.66 669.23,-16.72"/>
<polygon fill="midnightblue" stroke="midnightblue" points="669.94,-13.29 659.43,-14.64 668.49,-20.14 669.94,-13.29"/>
</g>
<!-- Node15 -->
<g id="node15" class="node">
<title>Node15</title>
<g id="a_node15"><a xlink:href="platform_8hpp.html" target="_top" xlink:title=" ">
<polygon fill="white" stroke="black" points="14.72,-56.5 14.72,-75.5 156.72,-75.5 156.72,-56.5 14.72,-56.5"/>
<text text-anchor="middle" x="85.72" y="-63.5" font-family="Helvetica,sans-Serif" font-size="10.00">unilink/base/platform.hpp</text>
</a>
</g>
</g>
<!-- Node1&#45;&gt;Node15 -->
<g id="edge14" class="edge">
<title>Node1&#45;&gt;Node15</title>
<path fill="none" stroke="midnightblue" d="M760.15,-187.36C658.5,-185.21 466.98,-176.57 307.72,-143 236.5,-127.99 156.55,-96.91 114.75,-79.5"/>
<polygon fill="midnightblue" stroke="midnightblue" points="116.04,-76.25 105.46,-75.6 113.32,-82.7 116.04,-76.25"/>
</g>
<!-- Node17 -->
<g id="node17" class="node">
<title>Node17</title>
<g id="a_node17"><a xlink:href="logger_8hpp.html" target="_top" xlink:title=" ">
<polygon fill="white" stroke="black" points="413.72,-112.5 413.72,-142.5 521.72,-142.5 521.72,-112.5 413.72,-112.5"/>
<text text-anchor="start" x="421.72" y="-130.5" font-family="Helvetica,sans-Serif" font-size="10.00">unilink/diagnostics</text>
<text text-anchor="middle" x="467.72" y="-119.5" font-family="Helvetica,sans-Serif" font-size="10.00">/logger.hpp</text>
</a>
</g>
</g>
<!-- Node1&#45;&gt;Node17 -->
<g id="edge17" class="edge">
<title>Node1&#45;&gt;Node17</title>
<path fill="none" stroke="midnightblue" d="M779.57,-179.48C714.27,-168.8 602.45,-150.52 531.95,-139"/>
<polygon fill="midnightblue" stroke="midnightblue" points="532.29,-135.51 521.86,-137.35 531.16,-142.42 532.29,-135.51"/>
</g>
<!-- Node15&#45;&gt;Node11 -->
<g id="edge15" class="edge">
<title>Node15&#45;&gt;Node11</title>
<path fill="none" stroke="midnightblue" d="M93.81,-56.08C100.88,-48.3 111.31,-36.8 119.87,-27.37"/>
<polygon fill="midnightblue" stroke="midnightblue" points="122.65,-29.51 126.78,-19.75 117.47,-24.8 122.65,-29.51"/>
</g>
<!-- Node16 -->
<g id="node16" class="node">
<title>Node16</title>
<g id="a_node16"><a xlink:href="visibility_8hpp.html" target="_top" xlink:title=" ">
<polygon fill="white" stroke="black" points="223.72,-0.5 223.72,-19.5 301.72,-19.5 301.72,-0.5 223.72,-0.5"/>
<text text-anchor="middle" x="262.72" y="-7.5" font-family="Helvetica,sans-Serif" font-size="10.00">visibility.hpp</text>
</a>
</g>
</g>
<!-- Node15&#45;&gt;Node16 -->
<g id="edge16" class="edge">
<title>Node15&#45;&gt;Node16</title>
<path fill="none" stroke="midnightblue" d="M113.77,-56.44C143.8,-47.28 191.63,-32.69 224.96,-22.52"/>
<polygon fill="midnightblue" stroke="midnightblue" points="226.26,-25.78 234.81,-19.52 224.22,-19.09 226.26,-25.78"/>
</g>
<!-- Node17&#45;&gt;Node2 -->
<g id="edge19" class="edge">
<title>Node17&#45;&gt;Node2</title>
<path fill="none" stroke="midnightblue" d="M505.65,-112.45C522.74,-104.28 541.73,-92.33 553.72,-76 563.47,-62.73 567.01,-44.15 568.24,-30.25"/>
<polygon fill="midnightblue" stroke="midnightblue" points="571.76,-30.07 568.81,-19.89 564.77,-29.69 571.76,-30.07"/>
</g>
<!-- Node17&#45;&gt;Node6 -->
<g id="edge20" class="edge">
<title>Node17&#45;&gt;Node6</title>
<path fill="none" stroke="midnightblue" d="M413.53,-114.1C365.07,-103.01 295,-86.97 250.41,-76.77"/>
<polygon fill="midnightblue" stroke="midnightblue" points="251.01,-73.32 240.48,-74.5 249.45,-80.14 251.01,-73.32"/>
</g>
<!-- Node17&#45;&gt;Node11 -->
<g id="edge22" class="edge">
<title>Node17&#45;&gt;Node11</title>
<path fill="none" stroke="midnightblue" d="M424.39,-112.41C393.93,-102.43 352.25,-88.63 315.72,-76 263.22,-57.86 202.52,-35.84 166.45,-22.65"/>
<polygon fill="midnightblue" stroke="midnightblue" points="167.55,-19.33 156.95,-19.18 165.14,-25.9 167.55,-19.33"/>
</g>
<!-- Node17&#45;&gt;Node12 -->
<g id="edge23" class="edge">
<title>Node17&#45;&gt;Node12</title>
<path fill="none" stroke="midnightblue" d="M516.75,-112.47C553.11,-102.08 602.04,-88.08 635.97,-78.37"/>
<polygon fill="midnightblue" stroke="midnightblue" points="637.33,-81.62 645.99,-75.51 635.41,-74.89 637.33,-81.62"/>
</g>
<!-- Node17&#45;&gt;Node14 -->
<g id="edge24" class="edge">
<title>Node17&#45;&gt;Node14</title>
<path fill="none" stroke="midnightblue" d="M504.07,-112.49C524.85,-103.61 550.85,-90.98 571.72,-76 591.33,-61.93 610.27,-41.58 622.39,-27.41"/>
<polygon fill="midnightblue" stroke="midnightblue" points="625.27,-29.42 629,-19.5 619.9,-24.93 625.27,-29.42"/>
</g>
<!-- Node17&#45;&gt;Node16 -->
<g id="edge33" class="edge">
<title>Node17&#45;&gt;Node16</title>
<path fill="none" stroke="midnightblue" d="M428.61,-112.46C405.09,-103.36 374.91,-90.53 349.72,-76 324.27,-61.32 297.56,-40.43 280.57,-26.33"/>
<polygon fill="midnightblue" stroke="midnightblue" points="282.52,-23.4 272.62,-19.64 278.02,-28.75 282.52,-23.4"/>
</g>
<!-- Node18 -->
<g id="node18" class="node">
<title>Node18</title>
<g id="a_node18"><a xlink:title=" ">
<polygon fill="white" stroke="#bfbfbf" points="319.72,-0.5 319.72,-19.5 369.72,-19.5 369.72,-0.5 319.72,-0.5"/>
<text text-anchor="middle" x="344.72" y="-7.5" font-family="Helvetica,sans-Serif" font-size="10.00">atomic</text>
</a>
</g>
</g>
<!-- Node17&#45;&gt;Node18 -->
<g id="edge18" class="edge">
<title>Node17&#45;&gt;Node18</title>
<path fill="none" stroke="midnightblue" d="M418.73,-112.41C399.18,-104.56 377.97,-92.86 363.72,-76 352.7,-62.96 348.07,-43.81 346.13,-29.66"/>
<polygon fill="midnightblue" stroke="midnightblue" points="349.6,-29.19 345.07,-19.61 342.63,-29.92 349.6,-29.19"/>
</g>
<!-- Node19 -->
<g id="node19" class="node">
<title>Node19</title>
<g id="a_node19"><a xlink:title=" ">
<polygon fill="white" stroke="#bfbfbf" points="486.72,-56.5 486.72,-75.5 544.72,-75.5 544.72,-56.5 486.72,-56.5"/>
<text text-anchor="middle" x="515.72" y="-63.5" font-family="Helvetica,sans-Serif" font-size="10.00">memory</text>
</a>
</g>
</g>
<!-- Node17&#45;&gt;Node19 -->
<g id="edge21" class="edge">
<title>Node17&#45;&gt;Node19</title>
<path fill="none" stroke="midnightblue" d="M479.1,-112.4C486.07,-103.75 495.04,-92.64 502.35,-83.58"/>
<polygon fill="midnightblue" stroke="midnightblue" points="505.18,-85.64 508.74,-75.66 499.73,-81.24 505.18,-85.64"/>
</g>
<!-- Node20 -->
<g id="node20" class="node">
<title>Node20</title>
<g id="a_node20"><a xlink:href="log__rotation_8hpp.html" target="_top" xlink:title=" ">
<polygon fill="white" stroke="black" points="372.72,-56.5 372.72,-75.5 468.72,-75.5 468.72,-56.5 372.72,-56.5"/>
<text text-anchor="middle" x="420.72" y="-63.5" font-family="Helvetica,sans-Serif" font-size="10.00">log_rotation.hpp</text>
</a>
</g>
</g>
<!-- Node17&#45;&gt;Node20 -->
<g id="edge25" class="edge">
<title>Node17&#45;&gt;Node20</title>
<path fill="none" stroke="midnightblue" d="M456.58,-112.4C449.75,-103.75 440.98,-92.64 433.82,-83.58"/>
<polygon fill="midnightblue" stroke="midnightblue" points="436.51,-81.34 427.56,-75.66 431.01,-85.67 436.51,-81.34"/>
</g>
<!-- Node20&#45;&gt;Node2 -->
<g id="edge27" class="edge">
<title>Node20&#45;&gt;Node2</title>
<path fill="none" stroke="midnightblue" d="M444.17,-56.44C468.85,-47.44 507.91,-33.19 535.7,-23.05"/>
<polygon fill="midnightblue" stroke="midnightblue" points="537.19,-26.23 545.38,-19.52 534.79,-19.66 537.19,-26.23"/>
</g>
<!-- Node20&#45;&gt;Node11 -->
<g id="edge30" class="edge">
<title>Node20&#45;&gt;Node11</title>
<path fill="none" stroke="midnightblue" d="M375.4,-56.44C317.32,-45.48 218.05,-26.73 167.05,-17.1"/>
<polygon fill="midnightblue" stroke="midnightblue" points="167.41,-13.61 156.94,-15.19 166.11,-20.49 167.41,-13.61"/>
</g>
<!-- Node20&#45;&gt;Node14 -->
<g id="edge31" class="edge">
<title>Node20&#45;&gt;Node14</title>
<path fill="none" stroke="midnightblue" d="M456.36,-56.46C491.09,-48.07 545.63,-34.74 602.13,-20.11"/>
<polygon fill="midnightblue" stroke="midnightblue" points="603.15,-23.46 611.95,-17.56 601.39,-16.68 603.15,-23.46"/>
</g>
<!-- Node20&#45;&gt;Node16 -->
<g id="edge32" class="edge">
<title>Node20&#45;&gt;Node16</title>
<path fill="none" stroke="midnightblue" d="M395.69,-56.44C369.11,-47.36 326.91,-32.94 297.2,-22.78"/>
<polygon fill="midnightblue" stroke="midnightblue" points="298.23,-19.44 287.64,-19.52 295.97,-26.06 298.23,-19.44"/>
</g>
<!-- Node20&#45;&gt;Node18 -->
<g id="edge26" class="edge">
<title>Node20&#45;&gt;Node18</title>
<path fill="none" stroke="midnightblue" d="M408.51,-56.32C396.95,-48.11 379.35,-35.6 365.56,-25.81"/>
<polygon fill="midnightblue" stroke="midnightblue" points="367.33,-22.77 357.15,-19.83 363.28,-28.48 367.33,-22.77"/>
</g>
<!-- Node21 -->
<g id="node21" class="node">
<title>Node21</title>
<g id="a_node21"><a xlink:title=" ">
<polygon fill="white" stroke="#bfbfbf" points="387.72,-0.5 387.72,-19.5 455.72,-19.5 455.72,-0.5 387.72,-0.5"/>
<text text-anchor="middle" x="421.72" y="-7.5" font-family="Helvetica,sans-Serif" font-size="10.00">filesystem</text>
</a>
</g>
</g>
<!-- Node20&#45;&gt;Node21 -->
<g id="edge28" class="edge">
<title>Node20&#45;&gt;Node21</title>
<path fill="none" stroke="midnightblue" d="M420.89,-56.08C421.02,-49.01 421.21,-38.86 421.37,-29.99"/>
<polygon fill="midnightblue" stroke="midnightblue" points="424.87,-29.81 421.56,-19.75 417.88,-29.68 424.87,-29.81"/>
</g>
<!-- Node22 -->
<g id="node22" class="node">
<title>Node22</title>
<g id="a_node22"><a xlink:title=" ">
<polygon fill="white" stroke="#bfbfbf" points="473.72,-0.5 473.72,-19.5 521.72,-19.5 521.72,-0.5 473.72,-0.5"/>
<text text-anchor="middle" x="497.72" y="-7.5" font-family="Helvetica,sans-Serif" font-size="10.00">mutex</text>
</a>
</g>
</g>
<!-- Node20&#45;&gt;Node22 -->
<g id="edge29" class="edge">
<title>Node20&#45;&gt;Node22</title>
<path fill="none" stroke="midnightblue" d="M433.09,-56.32C444.88,-48.06 462.85,-35.45 476.86,-25.63"/>
<polygon fill="midnightblue" stroke="midnightblue" points="479.2,-28.26 485.38,-19.65 475.18,-22.53 479.2,-28.26"/>
</g>
</g>
</svg>
        <g id="navigator" transform="translate(0 0)" fill="#404254">
                <rect fill="#f2f5e9" fill-opacity="0.5" stroke="#606060" stroke-width=".5" x="0" y="0" width="60" height="60"/>
                <use id="zoomplus" xlink:href="#zoomPlus" x="17" y="9" onmousedown="handleZoom(evt,'in')"/>
                <use id="zoomminus" xlink:href="#zoomMin" x="42" y="9" onmousedown="handleZoom(evt,'out')"/>
                <use id="reset" xlink:href="#resetDef" x="30" y="36" onmousedown="handleReset()"/>
                <g id="arrowUp" xlink:href="#dirArrow" transform="translate(30 24)" onmousedown="handlePan(0,-1)">
                  <use xlink:href="#rim" fill="#404040">
                        <set attributeName="fill" to="#808080" begin="arrowUp.mouseover" end="arrowUp.mouseout"/>
                  </use>
                  <path fill="none" stroke="white" stroke-width="1.5" d="M0,-3.0v7 M-2.5,-0.5L0,-3.0L2.5,-0.5"/>
                </g>
                <g id="arrowRight" xlink:href="#dirArrow" transform="rotate(90) translate(36 -43)" onmousedown="handlePan(1,0)">
                  <use xlink:href="#rim" fill="#404040">
                        <set attributeName="fill" to="#808080" begin="arrowRight.mouseover" end="arrowRight.mouseout"/>
                  </use>
                  <path fill="none" stroke="white" stroke-width="1.5" d="M0,-3.0v7 M-2.5,-0.5L0,-3.0L2.5,-0.5"/>
                </g>
                <g id="arrowDown" xlink:href="#dirArrow" transform="rotate(180) translate(-30 -48)" onmousedown="handlePan(0,1)">
                  <use xlink:href="#rim" fill="#404040">
                        <set attributeName="fill" to="#808080" begin="arrowDown.mouseover" end="arrowDown.mouseout"/>
                  </use>
                  <path fill="none" stroke="white" stroke-width="1.5" d="M0,-3.0v7 M-2.5,-0.5L0,-3.0L2.5,-0.5"/>
                </g>
                <g id="arrowLeft" xlink:href="#dirArrow" transform="rotate(270) translate(-36 17)" onmousedown="handlePan(-1,0)">
                  <use xlink:href="#rim" fill="#404040">
                        <set attributeName="fill" to="#808080" begin="arrowLeft.mouseover" end="arrowLeft.mouseout"/>
                  </use>
                  <path fill="none" stroke="white" stroke-width="1.5" d="M0,-3.0v7 M-2.5,-0.5L0,-3.0L2.5,-0.5"/>
                </g>
        </g>
        <svg viewBox="0 0 15 15" width="100%" height="30px" preserveAspectRatio="xMaxYMin meet">
         <g id="arrow_out" transform="scale(0.3 0.3)">
          <a xlink:href="common_8hpp__incl_org.svg" target="_base">
           <rect id="button" ry="5" rx="5" y="6" x="6" height="38" width="38"
                fill="#f2f5e9" fill-opacity="0.5" stroke="#606060" stroke-width="1.0"/>
           <path id="arrow"
             d="M 11.500037,31.436501 C 11.940474,20.09759 22.043105,11.32322 32.158766,21.979434 L 37.068811,17.246167 C 37.068811,17.246167 37.088388,32 37.088388,32 L 22.160133,31.978069 C 22.160133,31.978069 26.997745,27.140456 26.997745,27.140456 C 18.528582,18.264221 13.291696,25.230495 11.500037,31.436501 z"
             style="fill:#404040;"/>
          </a>
         </g>
        </svg>
</svg>
