<?xml version="1.0" encoding="UTF-8" standalone="no"?>
<!DOCTYPE svg PUBLIC "-//W3C//DTD SVG 1.1//EN"
 "http://www.w3.org/Graphics/SVG/1.1/DTD/svg11.dtd">
<!-- Generated by graphviz version 2.43.0 (0)
 -->
<!-- Title: unilink/config/config_manager.cc Pages: 1 -->
<svg width="827pt" height="214pt"
 viewBox="0.00 0.00 827.00 214.00" xmlns="http://www.w3.org/2000/svg" xmlns:xlink="http://www.w3.org/1999/xlink">
<g id="graph0" class="graph" transform="scale(1 1) rotate(0) translate(4 210)">
<title>unilink/config/config_manager.cc</title>
<!-- Node1 -->
<g id="Node000001" class="node">
<title>Node1</title>
<g id="a_Node000001"><a xlink:title=" ">
<polygon fill="#999999" stroke="#666666" points="517.5,-206 403.5,-206 403.5,-176 517.5,-176 517.5,-206"/>
<text text-anchor="start" x="411.5" y="-194" font-family="Helvetica,sans-Serif" font-size="10.00">unilink/config/config</text>
<text text-anchor="middle" x="460.5" y="-183" font-family="Helvetica,sans-Serif" font-size="10.00">_manager.cc</text>
</a>
</g>
</g>
<!-- Node2 -->
<g id="Node000002" class="node">
<title>Node2</title>
<g id="a_Node000002"><a xlink:href="config__manager_8hpp.html" target="_top" xlink:title=" ">
<polygon fill="white" stroke="#666666" points="256,-140 141,-140 141,-121 256,-121 256,-140"/>
<text text-anchor="middle" x="198.5" y="-128" font-family="Helvetica,sans-Serif" font-size="10.00">config_manager.hpp</text>
</a>
</g>
</g>
<!-- Node1&#45;&gt;Node2 -->
<g id="edge1_Node000001_Node000002" class="edge">
<title>Node1&#45;&gt;Node2</title>
<g id="a_edge1_Node000001_Node000002"><a xlink:title=" ">
<path fill="none" stroke="#63b8ff" d="M403.33,-177.23C356.53,-166.79 291.08,-152.17 246.86,-142.3"/>
<polygon fill="#63b8ff" stroke="#63b8ff" points="247.45,-138.84 236.93,-140.08 245.92,-145.68 247.45,-138.84"/>
</a>
</g>
</g>
<!-- Node9 -->
<g id="Node000009" class="node">
<title>Node9</title>
<g id="a_Node000009"><a xlink:title=" ">
<polygon fill="#e0e0e0" stroke="#999999" points="93,-19 0,-19 0,0 93,0 93,-19"/>
<text text-anchor="middle" x="46.5" y="-7" font-family="Helvetica,sans-Serif" font-size="10.00">unordered_map</text>
</a>
</g>
</g>
<!-- Node1&#45;&gt;Node9 -->
<g id="edge20_Node000001_Node000009" class="edge">
<title>Node1&#45;&gt;Node9</title>
<g id="a_edge20_Node000001_Node000009"><a xlink:title=" ">
<path fill="none" stroke="#63b8ff" d="M403.32,-186.89C321.35,-181.5 175.45,-168.19 131.5,-140 89.75,-113.22 64.04,-57.81 52.93,-28.92"/>
<polygon fill="#63b8ff" stroke="#63b8ff" points="56.11,-27.45 49.38,-19.27 49.54,-29.86 56.11,-27.45"/>
</a>
</g>
</g>
<!-- Node11 -->
<g id="Node000011" class="node">
<title>Node11</title>
<g id="a_Node000011"><a xlink:title=" ">
<polygon fill="#e0e0e0" stroke="#999999" points="338.5,-140 274.5,-140 274.5,-121 338.5,-121 338.5,-140"/>
<text text-anchor="middle" x="306.5" y="-128" font-family="Helvetica,sans-Serif" font-size="10.00">algorithm</text>
</a>
</g>
</g>
<!-- Node1&#45;&gt;Node11 -->
<g id="edge14_Node000001_Node000011" class="edge">
<title>Node1&#45;&gt;Node11</title>
<g id="a_edge14_Node000001_Node000011"><a xlink:title=" ">
<path fill="none" stroke="#63b8ff" d="M423.61,-175.99C397.8,-166.18 363.65,-153.21 338.9,-143.81"/>
<polygon fill="#63b8ff" stroke="#63b8ff" points="339.83,-140.42 329.24,-140.14 337.35,-146.96 339.83,-140.42"/>
</a>
</g>
</g>
<!-- Node12 -->
<g id="Node000012" class="node">
<title>Node12</title>
<g id="a_Node000012"><a xlink:title=" ">
<polygon fill="#e0e0e0" stroke="#999999" points="412,-140 357,-140 357,-121 412,-121 412,-140"/>
<text text-anchor="middle" x="384.5" y="-128" font-family="Helvetica,sans-Serif" font-size="10.00">fstream</text>
</a>
</g>
</g>
<!-- Node1&#45;&gt;Node12 -->
<g id="edge15_Node000001_Node000012" class="edge">
<title>Node1&#45;&gt;Node12</title>
<g id="a_edge15_Node000001_Node000012"><a xlink:title=" ">
<path fill="none" stroke="#63b8ff" d="M442.1,-175.84C430.62,-167 415.85,-155.63 404.14,-146.62"/>
<polygon fill="#63b8ff" stroke="#63b8ff" points="405.95,-143.59 395.89,-140.27 401.68,-149.14 405.95,-143.59"/>
</a>
</g>
</g>
<!-- Node13 -->
<g id="Node000013" class="node">
<title>Node13</title>
<g id="a_Node000013"><a xlink:title=" ">
<polygon fill="#e0e0e0" stroke="#999999" points="490.5,-140 430.5,-140 430.5,-121 490.5,-121 490.5,-140"/>
<text text-anchor="middle" x="460.5" y="-128" font-family="Helvetica,sans-Serif" font-size="10.00">iostream</text>
</a>
</g>
</g>
<!-- Node1&#45;&gt;Node13 -->
<g id="edge16_Node000001_Node000013" class="edge">
<title>Node1&#45;&gt;Node13</title>
<g id="a_edge16_Node000001_Node000013"><a xlink:title=" ">
<path fill="none" stroke="#63b8ff" d="M460.5,-175.84C460.5,-168.21 460.5,-158.7 460.5,-150.45"/>
<polygon fill="#63b8ff" stroke="#63b8ff" points="464,-150.27 460.5,-140.27 457,-150.27 464,-150.27"/>
</a>
</g>
</g>
<!-- Node14 -->
<g id="Node000014" class="node">
<title>Node14</title>
<g id="a_Node000014"><a xlink:title=" ">
<polygon fill="#e0e0e0" stroke="#999999" points="556.5,-140 508.5,-140 508.5,-121 556.5,-121 556.5,-140"/>
<text text-anchor="middle" x="532.5" y="-128" font-family="Helvetica,sans-Serif" font-size="10.00">mutex</text>
</a>
</g>
</g>
<!-- Node1&#45;&gt;Node14 -->
<g id="edge17_Node000001_Node000014" class="edge">
<title>Node1&#45;&gt;Node14</title>
<g id="a_edge17_Node000001_Node000014"><a xlink:title=" ">
<path fill="none" stroke="#63b8ff" d="M477.93,-175.84C488.81,-167 502.8,-155.63 513.89,-146.62"/>
<polygon fill="#63b8ff" stroke="#63b8ff" points="516.16,-149.29 521.71,-140.27 511.74,-143.86 516.16,-149.29"/>
</a>
</g>
</g>
<!-- Node15 -->
<g id="Node000015" class="node">
<title>Node15</title>
<g id="a_Node000015"><a xlink:title=" ">
<polygon fill="#e0e0e0" stroke="#999999" points="630.5,-140 574.5,-140 574.5,-121 630.5,-121 630.5,-140"/>
<text text-anchor="middle" x="602.5" y="-128" font-family="Helvetica,sans-Serif" font-size="10.00">sstream</text>
</a>
</g>
</g>
<!-- Node1&#45;&gt;Node15 -->
<g id="edge18_Node000001_Node000015" class="edge">
<title>Node1&#45;&gt;Node15</title>
<g id="a_edge18_Node000001_Node000015"><a xlink:title=" ">
<path fill="none" stroke="#63b8ff" d="M494.51,-175.99C518.1,-166.27 549.24,-153.44 572.02,-144.06"/>
<polygon fill="#63b8ff" stroke="#63b8ff" points="573.62,-147.18 581.53,-140.14 570.95,-140.71 573.62,-147.18"/>
</a>
</g>
</g>
<!-- Node16 -->
<g id="Node000016" class="node">
<title>Node16</title>
<g id="a_Node000016"><a xlink:title=" ">
<polygon fill="#e0e0e0" stroke="#999999" points="714,-140 649,-140 649,-121 714,-121 714,-140"/>
<text text-anchor="middle" x="681.5" y="-128" font-family="Helvetica,sans-Serif" font-size="10.00">stdexcept</text>
</a>
</g>
</g>
<!-- Node1&#45;&gt;Node16 -->
<g id="edge19_Node000001_Node000016" class="edge">
<title>Node1&#45;&gt;Node16</title>
<g id="a_edge19_Node000001_Node000016"><a xlink:title=" ">
<path fill="none" stroke="#63b8ff" d="M513.44,-175.99C551.91,-165.8 603.29,-152.2 639.07,-142.73"/>
<polygon fill="#63b8ff" stroke="#63b8ff" points="640.41,-146 649.19,-140.05 638.62,-139.23 640.41,-146"/>
</a>
</g>
</g>
<!-- Node17 -->
<g id="Node000017" class="node">
<title>Node17</title>
<g id="a_Node000017"><a xlink:href="logger_8hpp.html" target="_top" xlink:title=" ">
<polygon fill="white" stroke="#666666" points="623.5,-85 515.5,-85 515.5,-55 623.5,-55 623.5,-85"/>
<text text-anchor="start" x="523.5" y="-73" font-family="Helvetica,sans-Serif" font-size="10.00">unilink/diagnostics</text>
<text text-anchor="middle" x="569.5" y="-62" font-family="Helvetica,sans-Serif" font-size="10.00">/logger.hpp</text>
</a>
</g>
</g>
<!-- Node1&#45;&gt;Node17 -->
<g id="edge21_Node000001_Node000017" class="edge">
<title>Node1&#45;&gt;Node17</title>
<g id="a_edge21_Node000001_Node000017"><a xlink:title=" ">
<path fill="none" stroke="#63b8ff" d="M517.73,-187.39C587.09,-182.88 697.9,-170.92 723.5,-140 752.87,-104.52 688.09,-86.59 633.72,-78.04"/>
<polygon fill="#63b8ff" stroke="#63b8ff" points="634.12,-74.57 623.71,-76.55 633.09,-81.49 634.12,-74.57"/>
</a>
</g>
</g>
<!-- Node3 -->
<g id="Node000003" class="node">
<title>Node3</title>
<g id="a_Node000003"><a xlink:title=" ">
<polygon fill="#e0e0e0" stroke="#999999" points="284.5,-19 226.5,-19 226.5,0 284.5,0 284.5,-19"/>
<text text-anchor="middle" x="255.5" y="-7" font-family="Helvetica,sans-Serif" font-size="10.00">memory</text>
</a>
</g>
</g>
<!-- Node2&#45;&gt;Node3 -->
<g id="edge2_Node000002_Node000003" class="edge">
<title>Node2&#45;&gt;Node3</title>
<g id="a_edge2_Node000002_Node000003"><a xlink:title=" ">
<path fill="none" stroke="#63b8ff" d="M199.42,-120.78C201.22,-106.38 206.07,-77.04 217.5,-55 222.97,-44.45 231.38,-34.25 238.89,-26.28"/>
<polygon fill="#63b8ff" stroke="#63b8ff" points="241.43,-28.69 245.97,-19.12 236.45,-23.77 241.43,-28.69"/>
</a>
</g>
</g>
<!-- Node4 -->
<g id="Node000004" class="node">
<title>Node4</title>
<g id="a_Node000004"><a xlink:title=" ">
<polygon fill="#e0e0e0" stroke="#999999" points="208.5,-19 164.5,-19 164.5,0 208.5,0 208.5,-19"/>
<text text-anchor="middle" x="186.5" y="-7" font-family="Helvetica,sans-Serif" font-size="10.00">string</text>
</a>
</g>
</g>
<!-- Node2&#45;&gt;Node4 -->
<g id="edge3_Node000002_Node000004" class="edge">
<title>Node2&#45;&gt;Node4</title>
<g id="a_edge3_Node000002_Node000004"><a xlink:title=" ">
<path fill="none" stroke="#63b8ff" d="M194.9,-120.82C191.44,-111.99 186.47,-97.81 184.5,-85 181.62,-66.25 182.7,-44.54 184.14,-29.41"/>
<polygon fill="#63b8ff" stroke="#63b8ff" points="187.64,-29.6 185.26,-19.28 180.68,-28.84 187.64,-29.6"/>
</a>
</g>
</g>
<!-- Node5 -->
<g id="Node000005" class="node">
<title>Node5</title>
<g id="a_Node000005"><a xlink:title=" ">
<polygon fill="#e0e0e0" stroke="#999999" points="728,-19 681,-19 681,0 728,0 728,-19"/>
<text text-anchor="middle" x="704.5" y="-7" font-family="Helvetica,sans-Serif" font-size="10.00">vector</text>
</a>
</g>
</g>
<!-- Node2&#45;&gt;Node5 -->
<g id="edge4_Node000002_Node000005" class="edge">
<title>Node2&#45;&gt;Node5</title>
<g id="a_edge4_Node000002_Node000005"><a xlink:title=" ">
<path fill="none" stroke="#63b8ff" d="M256.23,-122.07C259.37,-121.7 262.47,-121.34 265.5,-121 346.93,-111.84 558.72,-120.65 632.5,-85 658.98,-72.2 681,-45.36 693.46,-27.64"/>
<polygon fill="#63b8ff" stroke="#63b8ff" points="696.38,-29.57 699.08,-19.32 690.58,-25.65 696.38,-29.57"/>
</a>
</g>
</g>
<!-- Node6 -->
<g id="Node000006" class="node">
<title>Node6</title>
<g id="a_Node000006"><a xlink:href="iconfig__manager_8hpp.html" target="_top" xlink:title=" ">
<polygon fill="white" stroke="#666666" points="344.5,-79.5 226.5,-79.5 226.5,-60.5 344.5,-60.5 344.5,-79.5"/>
<text text-anchor="middle" x="285.5" y="-67.5" font-family="Helvetica,sans-Serif" font-size="10.00">iconfig_manager.hpp</text>
</a>
</g>
</g>
<!-- Node2&#45;&gt;Node6 -->
<g id="edge5_Node000002_Node000006" class="edge">
<title>Node2&#45;&gt;Node6</title>
<g id="a_edge5_Node000002_Node000006"><a xlink:title=" ">
<path fill="none" stroke="#63b8ff" d="M211.34,-120.87C225.22,-111.54 247.57,-96.51 264.11,-85.38"/>
<polygon fill="#63b8ff" stroke="#63b8ff" points="266.26,-88.15 272.61,-79.67 262.36,-82.34 266.26,-88.15"/>
</a>
</g>
</g>
<!-- Node10 -->
<g id="Node000010" class="node">
<title>Node10</title>
<g id="a_Node000010"><a xlink:href="visibility_8hpp.html" target="_top" xlink:title=" ">
<polygon fill="white" stroke="#666666" points="442.5,-19 302.5,-19 302.5,0 442.5,0 442.5,-19"/>
<text text-anchor="middle" x="372.5" y="-7" font-family="Helvetica,sans-Serif" font-size="10.00">unilink/base/visibility.hpp</text>
</a>
</g>
</g>
<!-- Node2&#45;&gt;Node10 -->
<g id="edge13_Node000002_Node000010" class="edge">
<title>Node2&#45;&gt;Node10</title>
<g id="a_edge13_Node000002_Node000010"><a xlink:title=" ">
<path fill="none" stroke="#63b8ff" d="M247.12,-120.99C286.82,-113.09 338.68,-100.27 353.5,-85 367.85,-70.21 371.8,-46.17 372.68,-29.41"/>
<polygon fill="#63b8ff" stroke="#63b8ff" points="376.18,-29.24 372.88,-19.17 369.18,-29.1 376.18,-29.24"/>
</a>
</g>
</g>
<!-- Node6&#45;&gt;Node3 -->
<g id="edge8_Node000006_Node000003" class="edge">
<title>Node6&#45;&gt;Node3</title>
<g id="a_edge8_Node000006_Node000003"><a xlink:title=" ">
<path fill="none" stroke="#63b8ff" d="M281.07,-60.37C276.73,-51.9 269.98,-38.74 264.51,-28.07"/>
<polygon fill="#63b8ff" stroke="#63b8ff" points="267.62,-26.47 259.94,-19.17 261.39,-29.66 267.62,-26.47"/>
</a>
</g>
</g>
<!-- Node6&#45;&gt;Node4 -->
<g id="edge9_Node000006_Node000004" class="edge">
<title>Node6&#45;&gt;Node4</title>
<g id="a_edge9_Node000006_Node000004"><a xlink:title=" ">
<path fill="none" stroke="#63b8ff" d="M270.89,-60.37C254.81,-50.86 228.72,-35.45 209.8,-24.27"/>
<polygon fill="#63b8ff" stroke="#63b8ff" points="211.56,-21.24 201.17,-19.17 208,-27.27 211.56,-21.24"/>
</a>
</g>
</g>
<!-- Node6&#45;&gt;Node5 -->
<g id="edge11_Node000006_Node000005" class="edge">
<title>Node6&#45;&gt;Node5</title>
<g id="a_edge11_Node000006_Node000005"><a xlink:title=" ">
<path fill="none" stroke="#63b8ff" d="M344.72,-63.62C418.78,-56.38 549.59,-41.92 670.95,-18.87"/>
<polygon fill="#63b8ff" stroke="#63b8ff" points="671.63,-22.31 680.79,-16.98 670.31,-15.43 671.63,-22.31"/>
</a>
</g>
</g>
<!-- Node7 -->
<g id="Node000007" class="node">
<title>Node7</title>
<g id="a_Node000007"><a xlink:title=" ">
<polygon fill="#e0e0e0" stroke="#999999" points="146,-19 111,-19 111,0 146,0 146,-19"/>
<text text-anchor="middle" x="128.5" y="-7" font-family="Helvetica,sans-Serif" font-size="10.00">any</text>
</a>
</g>
</g>
<!-- Node6&#45;&gt;Node7 -->
<g id="edge6_Node000006_Node000007" class="edge">
<title>Node6&#45;&gt;Node7</title>
<g id="a_edge6_Node000006_Node000007"><a xlink:title=" ">
<path fill="none" stroke="#63b8ff" d="M262.67,-60.49C234.25,-49.9 185.76,-31.84 155.52,-20.57"/>
<polygon fill="#63b8ff" stroke="#63b8ff" points="156.61,-17.24 146.01,-17.03 154.16,-23.8 156.61,-17.24"/>
</a>
</g>
</g>
<!-- Node8 -->
<g id="Node000008" class="node">
<title>Node8</title>
<g id="a_Node000008"><a xlink:title=" ">
<polygon fill="#e0e0e0" stroke="#999999" points="526,-19 461,-19 461,0 526,0 526,-19"/>
<text text-anchor="middle" x="493.5" y="-7" font-family="Helvetica,sans-Serif" font-size="10.00">functional</text>
</a>
</g>
</g>
<!-- Node6&#45;&gt;Node8 -->
<g id="edge7_Node000006_Node000008" class="edge">
<title>Node6&#45;&gt;Node8</title>
<g id="a_edge7_Node000006_Node000008"><a xlink:title=" ">
<path fill="none" stroke="#63b8ff" d="M315.74,-60.49C352.1,-50.27 413.23,-33.08 453.47,-21.76"/>
<polygon fill="#63b8ff" stroke="#63b8ff" points="454.54,-25.09 463.22,-19.02 452.64,-18.35 454.54,-25.09"/>
</a>
</g>
</g>
<!-- Node6&#45;&gt;Node9 -->
<g id="edge10_Node000006_Node000009" class="edge">
<title>Node6&#45;&gt;Node9</title>
<g id="a_edge10_Node000006_Node000009"><a xlink:title=" ">
<path fill="none" stroke="#63b8ff" d="M250.75,-60.49C208.53,-50.16 137.25,-32.71 91.04,-21.4"/>
<polygon fill="#63b8ff" stroke="#63b8ff" points="91.84,-17.99 81.29,-19.02 90.18,-24.79 91.84,-17.99"/>
</a>
</g>
</g>
<!-- Node6&#45;&gt;Node10 -->
<g id="edge12_Node000006_Node000010" class="edge">
<title>Node6&#45;&gt;Node10</title>
<g id="a_edge12_Node000006_Node000010"><a xlink:title=" ">
<path fill="none" stroke="#63b8ff" d="M298.34,-60.37C312.22,-51.04 334.57,-36.01 351.11,-24.88"/>
<polygon fill="#63b8ff" stroke="#63b8ff" points="353.26,-27.65 359.61,-19.17 349.36,-21.84 353.26,-27.65"/>
</a>
</g>
</g>
<!-- Node17&#45;&gt;Node3 -->
<g id="edge25_Node000017_Node000003" class="edge">
<title>Node17&#45;&gt;Node3</title>
<g id="a_edge25_Node000017_Node000003"><a xlink:title=" ">
<path fill="none" stroke="#63b8ff" d="M515.43,-59.88C461.82,-50.68 377.1,-35.74 294.34,-19.1"/>
<polygon fill="#63b8ff" stroke="#63b8ff" points="295.02,-15.67 284.52,-17.12 293.63,-22.53 295.02,-15.67"/>
</a>
</g>
</g>
<!-- Node17&#45;&gt;Node4 -->
<g id="edge26_Node000017_Node000004" class="edge">
<title>Node17&#45;&gt;Node4</title>
<g id="a_edge26_Node000017_Node000004"><a xlink:title=" ">
<path fill="none" stroke="#63b8ff" d="M515.46,-63.47C448.09,-56.11 329.28,-41.56 218.75,-19.03"/>
<polygon fill="#63b8ff" stroke="#63b8ff" points="219.27,-15.56 208.77,-16.97 217.85,-22.42 219.27,-15.56"/>
</a>
</g>
</g>
<!-- Node17&#45;&gt;Node5 -->
<g id="edge28_Node000017_Node000005" class="edge">
<title>Node17&#45;&gt;Node5</title>
<g id="a_edge28_Node000017_Node000005"><a xlink:title=" ">
<path fill="none" stroke="#63b8ff" d="M601.84,-54.99C624.16,-45.31 653.6,-32.56 675.23,-23.18"/>
<polygon fill="#63b8ff" stroke="#63b8ff" points="676.78,-26.33 684.56,-19.14 674,-19.9 676.78,-26.33"/>
</a>
</g>
</g>
<!-- Node17&#45;&gt;Node8 -->
<g id="edge24_Node000017_Node000008" class="edge">
<title>Node17&#45;&gt;Node8</title>
<g id="a_edge24_Node000017_Node000008"><a xlink:title=" ">
<path fill="none" stroke="#63b8ff" d="M551.1,-54.84C539.62,-46 524.85,-34.63 513.14,-25.62"/>
<polygon fill="#63b8ff" stroke="#63b8ff" points="514.95,-22.59 504.89,-19.27 510.68,-28.14 514.95,-22.59"/>
</a>
</g>
</g>
<!-- Node17&#45;&gt;Node10 -->
<g id="edge29_Node000017_Node000010" class="edge">
<title>Node17&#45;&gt;Node10</title>
<g id="a_edge29_Node000017_Node000010"><a xlink:title=" ">
<path fill="none" stroke="#63b8ff" d="M522.31,-54.99C488.32,-44.89 443,-31.44 411.14,-21.98"/>
<polygon fill="#63b8ff" stroke="#63b8ff" points="411.89,-18.55 401.3,-19.05 409.89,-25.26 411.89,-18.55"/>
</a>
</g>
</g>
<!-- Node18 -->
<g id="Node000018" class="node">
<title>Node18</title>
<g id="a_Node000018"><a xlink:title=" ">
<polygon fill="#e0e0e0" stroke="#999999" points="594.5,-19 544.5,-19 544.5,0 594.5,0 594.5,-19"/>
<text text-anchor="middle" x="569.5" y="-7" font-family="Helvetica,sans-Serif" font-size="10.00">atomic</text>
</a>
</g>
</g>
<!-- Node17&#45;&gt;Node18 -->
<g id="edge22_Node000017_Node000018" class="edge">
<title>Node17&#45;&gt;Node18</title>
<g id="a_edge22_Node000017_Node000018"><a xlink:title=" ">
<path fill="none" stroke="#63b8ff" d="M569.5,-54.84C569.5,-47.21 569.5,-37.7 569.5,-29.45"/>
<polygon fill="#63b8ff" stroke="#63b8ff" points="573,-29.27 569.5,-19.27 566,-29.27 573,-29.27"/>
</a>
</g>
</g>
<!-- Node19 -->
<g id="Node000019" class="node">
<title>Node19</title>
<g id="a_Node000019"><a xlink:title=" ">
<polygon fill="#e0e0e0" stroke="#999999" points="662.5,-19 612.5,-19 612.5,0 662.5,0 662.5,-19"/>
<text text-anchor="middle" x="637.5" y="-7" font-family="Helvetica,sans-Serif" font-size="10.00">chrono</text>
</a>
</g>
</g>
<!-- Node17&#45;&gt;Node19 -->
<g id="edge23_Node000017_Node000019" class="edge">
<title>Node17&#45;&gt;Node19</title>
<g id="a_edge23_Node000017_Node000019"><a xlink:title=" ">
<path fill="none" stroke="#63b8ff" d="M585.96,-54.84C596.13,-46.09 609.19,-34.85 619.62,-25.88"/>
<polygon fill="#63b8ff" stroke="#63b8ff" points="622.01,-28.44 627.31,-19.27 617.45,-23.13 622.01,-28.44"/>
</a>
</g>
</g>
<!-- Node20 -->
<g id="Node000020" class="node">
<title>Node20</title>
<g id="a_Node000020"><a xlink:title=" ">
<polygon fill="#e0e0e0" stroke="#999999" points="819,-19 746,-19 746,0 819,0 819,-19"/>
<text text-anchor="middle" x="782.5" y="-7" font-family="Helvetica,sans-Serif" font-size="10.00">string_view</text>
</a>
</g>
</g>
<!-- Node17&#45;&gt;Node20 -->
<g id="edge27_Node000017_Node000020" class="edge">
<title>Node17&#45;&gt;Node20</title>
<g id="a_edge27_Node000017_Node000020"><a xlink:title=" ">
<path fill="none" stroke="#63b8ff" d="M620.52,-54.99C657.6,-44.8 707.12,-31.2 741.61,-21.73"/>
<polygon fill="#63b8ff" stroke="#63b8ff" points="742.64,-25.08 751.36,-19.05 740.79,-18.33 742.64,-25.08"/>
</a>
</g>
</g>
</g>
</svg>
