<?xml version="1.0" encoding="UTF-8" standalone="no"?>
<!DOCTYPE svg PUBLIC "-//W3C//DTD SVG 1.1//EN"
 "http://www.w3.org/Graphics/SVG/1.1/DTD/svg11.dtd">
<!-- Generated by graphviz version 2.43.0 (0)
 -->
<!-- Title: unilink/config/config_factory.hpp Pages: 1 -->
<svg width="600pt" height="151pt"
 viewBox="0.00 0.00 600.00 151.00" xmlns="http://www.w3.org/2000/svg" xmlns:xlink="http://www.w3.org/1999/xlink">
<g id="graph0" class="graph" transform="scale(1 1) rotate(0) translate(4 147)">
<title>unilink/config/config_factory.hpp</title>
<polygon fill="white" stroke="transparent" points="-4,4 -4,-147 596,-147 596,4 -4,4"/>
<!-- Node1 -->
<g id="node1" class="node">
<title>Node1</title>
<g id="a_node1"><a xlink:title=" ">
<polygon fill="#bfbfbf" stroke="black" points="127,-112.5 127,-142.5 241,-142.5 241,-112.5 127,-112.5"/>
<text text-anchor="start" x="135" y="-130.5" font-family="Helvetica,sans-Serif" font-size="10.00">unilink/config/config</text>
<text text-anchor="middle" x="184" y="-119.5" font-family="Helvetica,sans-Serif" font-size="10.00">_factory.hpp</text>
</a>
</g>
</g>
<!-- Node2 -->
<g id="node2" class="node">
<title>Node2</title>
<g id="a_node2"><a xlink:title=" ">
<polygon fill="white" stroke="#bfbfbf" points="0,-0.5 0,-19.5 58,-19.5 58,-0.5 0,-0.5"/>
<text text-anchor="middle" x="29" y="-7.5" font-family="Helvetica,sans-Serif" font-size="10.00">memory</text>
</a>
</g>
</g>
<!-- Node1&#45;&gt;Node2 -->
<g id="edge1" class="edge">
<title>Node1&#45;&gt;Node2</title>
<path fill="none" stroke="midnightblue" d="M158.14,-112.44C141.34,-102.91 119.26,-89.61 101,-76 80.46,-60.69 58.9,-40.62 44.79,-26.85"/>
<polygon fill="midnightblue" stroke="midnightblue" points="46.98,-24.1 37.41,-19.56 42.06,-29.08 46.98,-24.1"/>
</g>
<!-- Node3 -->
<g id="node3" class="node">
<title>Node3</title>
<g id="a_node3"><a xlink:title=" ">
<polygon fill="white" stroke="#bfbfbf" points="110,-56.5 110,-75.5 158,-75.5 158,-56.5 110,-56.5"/>
<text text-anchor="middle" x="134" y="-63.5" font-family="Helvetica,sans-Serif" font-size="10.00">mutex</text>
</a>
</g>
</g>
<!-- Node1&#45;&gt;Node3 -->
<g id="edge2" class="edge">
<title>Node1&#45;&gt;Node3</title>
<path fill="none" stroke="midnightblue" d="M172.15,-112.4C164.89,-103.75 155.55,-92.64 147.93,-83.58"/>
<polygon fill="midnightblue" stroke="midnightblue" points="150.39,-81.06 141.28,-75.66 145.03,-85.57 150.39,-81.06"/>
</g>
<!-- Node4 -->
<g id="node4" class="node">
<title>Node4</title>
<g id="a_node4"><a xlink:href="iconfig__manager_8hpp.html" target="_top" xlink:title=" ">
<polygon fill="white" stroke="black" points="176,-56.5 176,-75.5 294,-75.5 294,-56.5 176,-56.5"/>
<text text-anchor="middle" x="235" y="-63.5" font-family="Helvetica,sans-Serif" font-size="10.00">iconfig_manager.hpp</text>
</a>
</g>
</g>
<!-- Node1&#45;&gt;Node4 -->
<g id="edge3" class="edge">
<title>Node1&#45;&gt;Node4</title>
<path fill="none" stroke="midnightblue" d="M196.09,-112.4C203.57,-103.66 213.22,-92.41 221.03,-83.3"/>
<polygon fill="midnightblue" stroke="midnightblue" points="223.73,-85.53 227.58,-75.66 218.41,-80.97 223.73,-85.53"/>
</g>
<!-- Node10 -->
<g id="node10" class="node">
<title>Node10</title>
<g id="a_node10"><a xlink:href="visibility_8hpp.html" target="_top" xlink:title=" ">
<polygon fill="white" stroke="black" points="452,-0.5 452,-19.5 592,-19.5 592,-0.5 452,-0.5"/>
<text text-anchor="middle" x="522" y="-7.5" font-family="Helvetica,sans-Serif" font-size="10.00">unilink/base/visibility.hpp</text>
</a>
</g>
</g>
<!-- Node1&#45;&gt;Node10 -->
<g id="edge11" class="edge">
<title>Node1&#45;&gt;Node10</title>
<path fill="none" stroke="midnightblue" d="M225.11,-112.45C292.27,-89.5 424.33,-44.38 487.17,-22.9"/>
<polygon fill="midnightblue" stroke="midnightblue" points="488.67,-26.09 497,-19.54 486.41,-19.46 488.67,-26.09"/>
</g>
<!-- Node4&#45;&gt;Node2 -->
<g id="edge6" class="edge">
<title>Node4&#45;&gt;Node2</title>
<path fill="none" stroke="midnightblue" d="M202.36,-56.44C165.91,-46.89 106.94,-31.43 68.07,-21.24"/>
<polygon fill="midnightblue" stroke="midnightblue" points="68.72,-17.79 58.16,-18.64 66.94,-24.56 68.72,-17.79"/>
</g>
<!-- Node5 -->
<g id="node5" class="node">
<title>Node5</title>
<g id="a_node5"><a xlink:title=" ">
<polygon fill="white" stroke="#bfbfbf" points="76.5,-0.5 76.5,-19.5 111.5,-19.5 111.5,-0.5 76.5,-0.5"/>
<text text-anchor="middle" x="94" y="-7.5" font-family="Helvetica,sans-Serif" font-size="10.00">any</text>
</a>
</g>
</g>
<!-- Node4&#45;&gt;Node5 -->
<g id="edge4" class="edge">
<title>Node4&#45;&gt;Node5</title>
<path fill="none" stroke="midnightblue" d="M212.66,-56.44C187.87,-46.95 147.87,-31.63 121.26,-21.44"/>
<polygon fill="midnightblue" stroke="midnightblue" points="122.36,-18.11 111.77,-17.81 119.86,-24.65 122.36,-18.11"/>
</g>
<!-- Node6 -->
<g id="node6" class="node">
<title>Node6</title>
<g id="a_node6"><a xlink:title=" ">
<polygon fill="white" stroke="#bfbfbf" points="129.5,-0.5 129.5,-19.5 194.5,-19.5 194.5,-0.5 129.5,-0.5"/>
<text text-anchor="middle" x="162" y="-7.5" font-family="Helvetica,sans-Serif" font-size="10.00">functional</text>
</a>
</g>
</g>
<!-- Node4&#45;&gt;Node6 -->
<g id="edge5" class="edge">
<title>Node4&#45;&gt;Node6</title>
<path fill="none" stroke="midnightblue" d="M223.27,-56.32C212.16,-48.11 195.26,-35.6 182.02,-25.81"/>
<polygon fill="midnightblue" stroke="midnightblue" points="184.06,-22.97 173.94,-19.83 179.9,-28.59 184.06,-22.97"/>
</g>
<!-- Node7 -->
<g id="node7" class="node">
<title>Node7</title>
<g id="a_node7"><a xlink:title=" ">
<polygon fill="white" stroke="#bfbfbf" points="213,-0.5 213,-19.5 257,-19.5 257,-0.5 213,-0.5"/>
<text text-anchor="middle" x="235" y="-7.5" font-family="Helvetica,sans-Serif" font-size="10.00">string</text>
</a>
</g>
</g>
<!-- Node4&#45;&gt;Node7 -->
<g id="edge7" class="edge">
<title>Node4&#45;&gt;Node7</title>
<path fill="none" stroke="midnightblue" d="M235,-56.08C235,-49.01 235,-38.86 235,-29.99"/>
<polygon fill="midnightblue" stroke="midnightblue" points="238.5,-29.75 235,-19.75 231.5,-29.75 238.5,-29.75"/>
</g>
<!-- Node8 -->
<g id="node8" class="node">
<title>Node8</title>
<g id="a_node8"><a xlink:title=" ">
<polygon fill="white" stroke="#bfbfbf" points="275.5,-0.5 275.5,-19.5 368.5,-19.5 368.5,-0.5 275.5,-0.5"/>
<text text-anchor="middle" x="322" y="-7.5" font-family="Helvetica,sans-Serif" font-size="10.00">unordered_map</text>
</a>
</g>
</g>
<!-- Node4&#45;&gt;Node8 -->
<g id="edge8" class="edge">
<title>Node4&#45;&gt;Node8</title>
<path fill="none" stroke="midnightblue" d="M248.98,-56.32C262.55,-47.9 283.38,-34.97 299.32,-25.07"/>
<polygon fill="midnightblue" stroke="midnightblue" points="301.41,-27.9 308.06,-19.65 297.71,-21.95 301.41,-27.9"/>
</g>
<!-- Node9 -->
<g id="node9" class="node">
<title>Node9</title>
<g id="a_node9"><a xlink:title=" ">
<polygon fill="white" stroke="#bfbfbf" points="386.5,-0.5 386.5,-19.5 433.5,-19.5 433.5,-0.5 386.5,-0.5"/>
<text text-anchor="middle" x="410" y="-7.5" font-family="Helvetica,sans-Serif" font-size="10.00">vector</text>
</a>
</g>
</g>
<!-- Node4&#45;&gt;Node9 -->
<g id="edge9" class="edge">
<title>Node4&#45;&gt;Node9</title>
<path fill="none" stroke="midnightblue" d="M262.73,-56.44C293.65,-46.9 343.64,-31.48 376.66,-21.29"/>
<polygon fill="midnightblue" stroke="midnightblue" points="377.81,-24.6 386.33,-18.3 375.74,-17.91 377.81,-24.6"/>
</g>
<!-- Node4&#45;&gt;Node10 -->
<g id="edge10" class="edge">
<title>Node4&#45;&gt;Node10</title>
<path fill="none" stroke="midnightblue" d="M280.48,-56.44C330.96,-46.94 412.46,-31.61 466.62,-21.42"/>
<polygon fill="midnightblue" stroke="midnightblue" points="467.56,-24.81 476.74,-19.52 466.26,-17.93 467.56,-24.81"/>
</g>
</g>
</svg>
