<?xml version="1.0" encoding="UTF-8" standalone="no"?>
<!DOCTYPE svg PUBLIC "-//W3C//DTD SVG 1.1//EN"
 "http://www.w3.org/Graphics/SVG/1.1/DTD/svg11.dtd">
<!-- Generated by graphviz version 2.43.0 (0)
 -->
<!-- Title: unilink/config/config_factory.cc Pages: 1 -->
<svg width="600pt" height="203pt"
 viewBox="0.00 0.00 599.50 203.00" xmlns="http://www.w3.org/2000/svg" xmlns:xlink="http://www.w3.org/1999/xlink">
<g id="graph0" class="graph" transform="scale(1 1) rotate(0) translate(4 199)">
<title>unilink/config/config_factory.cc</title>
<!-- Node1 -->
<g id="Node000001" class="node">
<title>Node1</title>
<g id="a_Node000001"><a xlink:title=" ">
<polygon fill="#999999" stroke="#666666" points="479.5,-195 365.5,-195 365.5,-165 479.5,-165 479.5,-195"/>
<text text-anchor="start" x="373.5" y="-183" font-family="Helvetica,sans-Serif" font-size="10.00">unilink/config/config</text>
<text text-anchor="middle" x="422.5" y="-172" font-family="Helvetica,sans-Serif" font-size="10.00">_factory.cc</text>
</a>
</g>
</g>
<!-- Node2 -->
<g id="Node000002" class="node">
<title>Node2</title>
<g id="a_Node000002"><a xlink:href="config__factory_8hpp.html" target="_top" xlink:title=" ">
<polygon fill="white" stroke="#666666" points="475,-129 370,-129 370,-110 475,-110 475,-129"/>
<text text-anchor="middle" x="422.5" y="-117" font-family="Helvetica,sans-Serif" font-size="10.00">config_factory.hpp</text>
</a>
</g>
</g>
<!-- Node1&#45;&gt;Node2 -->
<g id="edge1_Node000001_Node000002" class="edge">
<title>Node1&#45;&gt;Node2</title>
<g id="a_edge1_Node000001_Node000002"><a xlink:title=" ">
<path fill="none" stroke="#63b8ff" d="M422.5,-164.84C422.5,-157.21 422.5,-147.7 422.5,-139.45"/>
<polygon fill="#63b8ff" stroke="#63b8ff" points="426,-139.27 422.5,-129.27 419,-139.27 426,-139.27"/>
</a>
</g>
</g>
<!-- Node4 -->
<g id="Node000004" class="node">
<title>Node4</title>
<g id="a_Node000004"><a xlink:title=" ">
<polygon fill="#e0e0e0" stroke="#999999" points="534.5,-74 486.5,-74 486.5,-55 534.5,-55 534.5,-74"/>
<text text-anchor="middle" x="510.5" y="-62" font-family="Helvetica,sans-Serif" font-size="10.00">mutex</text>
</a>
</g>
</g>
<!-- Node1&#45;&gt;Node4 -->
<g id="edge13_Node000001_Node000004" class="edge">
<title>Node1&#45;&gt;Node4</title>
<g id="a_edge13_Node000001_Node000004"><a xlink:title=" ">
<path fill="none" stroke="#63b8ff" d="M444.53,-164.94C457.26,-155.92 472.82,-143.25 483.5,-129 493.6,-115.52 500.75,-97.69 505.15,-84.35"/>
<polygon fill="#63b8ff" stroke="#63b8ff" points="508.61,-84.99 508.19,-74.4 501.92,-82.94 508.61,-84.99"/>
</a>
</g>
</g>
<!-- Node12 -->
<g id="Node000012" class="node">
<title>Node12</title>
<g id="a_Node000012"><a xlink:href="config__manager_8hpp.html" target="_top" xlink:title=" ">
<polygon fill="white" stroke="#666666" points="335,-129 220,-129 220,-110 335,-110 335,-129"/>
<text text-anchor="middle" x="277.5" y="-117" font-family="Helvetica,sans-Serif" font-size="10.00">config_manager.hpp</text>
</a>
</g>
</g>
<!-- Node1&#45;&gt;Node12 -->
<g id="edge14_Node000001_Node000012" class="edge">
<title>Node1&#45;&gt;Node12</title>
<g id="a_edge14_Node000001_Node000012"><a xlink:title=" ">
<path fill="none" stroke="#63b8ff" d="M387.77,-164.99C363.58,-155.23 331.6,-142.33 308.31,-132.93"/>
<polygon fill="#63b8ff" stroke="#63b8ff" points="309.5,-129.63 298.91,-129.14 306.88,-136.13 309.5,-129.63"/>
</a>
</g>
</g>
<!-- Node3 -->
<g id="Node000003" class="node">
<title>Node3</title>
<g id="a_Node000003"><a xlink:title=" ">
<polygon fill="#e0e0e0" stroke="#999999" points="433.5,-19 375.5,-19 375.5,0 433.5,0 433.5,-19"/>
<text text-anchor="middle" x="404.5" y="-7" font-family="Helvetica,sans-Serif" font-size="10.00">memory</text>
</a>
</g>
</g>
<!-- Node2&#45;&gt;Node3 -->
<g id="edge2_Node000002_Node000003" class="edge">
<title>Node2&#45;&gt;Node3</title>
<g id="a_edge2_Node000002_Node000003"><a xlink:title=" ">
<path fill="none" stroke="#63b8ff" d="M421.03,-109.66C418.11,-92.17 411.55,-52.8 407.63,-29.27"/>
<polygon fill="#63b8ff" stroke="#63b8ff" points="411.04,-28.45 405.94,-19.16 404.13,-29.6 411.04,-28.45"/>
</a>
</g>
</g>
<!-- Node2&#45;&gt;Node4 -->
<g id="edge3_Node000002_Node000004" class="edge">
<title>Node2&#45;&gt;Node4</title>
<g id="a_edge3_Node000002_Node000004"><a xlink:title=" ">
<path fill="none" stroke="#63b8ff" d="M436.64,-109.98C450.29,-101.77 471.19,-89.18 487.28,-79.49"/>
<polygon fill="#63b8ff" stroke="#63b8ff" points="489.34,-82.33 496.1,-74.17 485.73,-76.33 489.34,-82.33"/>
</a>
</g>
</g>
<!-- Node5 -->
<g id="Node000005" class="node">
<title>Node5</title>
<g id="a_Node000005"><a xlink:href="iconfig__manager_8hpp.html" target="_top" xlink:title=" ">
<polygon fill="white" stroke="#666666" points="316.5,-74 198.5,-74 198.5,-55 316.5,-55 316.5,-74"/>
<text text-anchor="middle" x="257.5" y="-62" font-family="Helvetica,sans-Serif" font-size="10.00">iconfig_manager.hpp</text>
</a>
</g>
</g>
<!-- Node2&#45;&gt;Node5 -->
<g id="edge4_Node000002_Node000005" class="edge">
<title>Node2&#45;&gt;Node5</title>
<g id="a_edge4_Node000002_Node000005"><a xlink:title=" ">
<path fill="none" stroke="#63b8ff" d="M395.99,-109.98C368.29,-101.09 324.64,-87.07 293.76,-77.15"/>
<polygon fill="#63b8ff" stroke="#63b8ff" points="294.81,-73.81 284.22,-74.08 292.67,-80.47 294.81,-73.81"/>
</a>
</g>
</g>
<!-- Node11 -->
<g id="Node000011" class="node">
<title>Node11</title>
<g id="a_Node000011"><a xlink:href="visibility_8hpp.html" target="_top" xlink:title=" ">
<polygon fill="white" stroke="#666666" points="591.5,-19 451.5,-19 451.5,0 591.5,0 591.5,-19"/>
<text text-anchor="middle" x="521.5" y="-7" font-family="Helvetica,sans-Serif" font-size="10.00">unilink/base/visibility.hpp</text>
</a>
</g>
</g>
<!-- Node2&#45;&gt;Node11 -->
<g id="edge12_Node000002_Node000011" class="edge">
<title>Node2&#45;&gt;Node11</title>
<g id="a_edge12_Node000002_Node000011"><a xlink:title=" ">
<path fill="none" stroke="#63b8ff" d="M429.8,-109.71C440.16,-97.31 459.87,-74.05 477.5,-55 486.45,-45.33 496.79,-34.84 505.2,-26.47"/>
<polygon fill="#63b8ff" stroke="#63b8ff" points="507.91,-28.72 512.56,-19.2 502.99,-23.74 507.91,-28.72"/>
</a>
</g>
</g>
<!-- Node5&#45;&gt;Node3 -->
<g id="edge7_Node000005_Node000003" class="edge">
<title>Node5&#45;&gt;Node3</title>
<g id="a_edge7_Node000005_Node000003"><a xlink:title=" ">
<path fill="none" stroke="#63b8ff" d="M281.12,-54.98C305.4,-46.23 343.45,-32.51 370.87,-22.62"/>
<polygon fill="#63b8ff" stroke="#63b8ff" points="372.23,-25.85 380.45,-19.17 369.86,-19.27 372.23,-25.85"/>
</a>
</g>
</g>
<!-- Node6 -->
<g id="Node000006" class="node">
<title>Node6</title>
<g id="a_Node000006"><a xlink:title=" ">
<polygon fill="#e0e0e0" stroke="#999999" points="357,-19 322,-19 322,0 357,0 357,-19"/>
<text text-anchor="middle" x="339.5" y="-7" font-family="Helvetica,sans-Serif" font-size="10.00">any</text>
</a>
</g>
</g>
<!-- Node5&#45;&gt;Node6 -->
<g id="edge5_Node000005_Node000006" class="edge">
<title>Node5&#45;&gt;Node6</title>
<g id="a_edge5_Node000005_Node000006"><a xlink:title=" ">
<path fill="none" stroke="#63b8ff" d="M270.67,-54.98C283.27,-46.84 302.5,-34.41 317.44,-24.76"/>
<polygon fill="#63b8ff" stroke="#63b8ff" points="319.59,-27.54 326.09,-19.17 315.79,-21.66 319.59,-27.54"/>
</a>
</g>
</g>
<!-- Node7 -->
<g id="Node000007" class="node">
<title>Node7</title>
<g id="a_Node000007"><a xlink:title=" ">
<polygon fill="#e0e0e0" stroke="#999999" points="193,-19 128,-19 128,0 193,0 193,-19"/>
<text text-anchor="middle" x="160.5" y="-7" font-family="Helvetica,sans-Serif" font-size="10.00">functional</text>
</a>
</g>
</g>
<!-- Node5&#45;&gt;Node7 -->
<g id="edge6_Node000005_Node000007" class="edge">
<title>Node5&#45;&gt;Node7</title>
<g id="a_edge6_Node000005_Node000007"><a xlink:title=" ">
<path fill="none" stroke="#63b8ff" d="M241.92,-54.98C226.73,-46.69 203.4,-33.94 185.6,-24.22"/>
<polygon fill="#63b8ff" stroke="#63b8ff" points="186.82,-20.89 176.37,-19.17 183.47,-27.04 186.82,-20.89"/>
</a>
</g>
</g>
<!-- Node8 -->
<g id="Node000008" class="node">
<title>Node8</title>
<g id="a_Node000008"><a xlink:title=" ">
<polygon fill="#e0e0e0" stroke="#999999" points="109.5,-19 65.5,-19 65.5,0 109.5,0 109.5,-19"/>
<text text-anchor="middle" x="87.5" y="-7" font-family="Helvetica,sans-Serif" font-size="10.00">string</text>
</a>
</g>
</g>
<!-- Node5&#45;&gt;Node8 -->
<g id="edge8_Node000005_Node000008" class="edge">
<title>Node5&#45;&gt;Node8</title>
<g id="a_edge8_Node000005_Node000008"><a xlink:title=" ">
<path fill="none" stroke="#63b8ff" d="M230.19,-54.98C199.95,-45.56 151.28,-30.38 119.34,-20.43"/>
<polygon fill="#63b8ff" stroke="#63b8ff" points="120.19,-17.03 109.6,-17.39 118.11,-23.71 120.19,-17.03"/>
</a>
</g>
</g>
<!-- Node9 -->
<g id="Node000009" class="node">
<title>Node9</title>
<g id="a_Node000009"><a xlink:title=" ">
<polygon fill="#e0e0e0" stroke="#999999" points="304,-19 211,-19 211,0 304,0 304,-19"/>
<text text-anchor="middle" x="257.5" y="-7" font-family="Helvetica,sans-Serif" font-size="10.00">unordered_map</text>
</a>
</g>
</g>
<!-- Node5&#45;&gt;Node9 -->
<g id="edge9_Node000005_Node000009" class="edge">
<title>Node5&#45;&gt;Node9</title>
<g id="a_edge9_Node000005_Node000009"><a xlink:title=" ">
<path fill="none" stroke="#63b8ff" d="M257.5,-54.75C257.5,-47.8 257.5,-37.85 257.5,-29.13"/>
<polygon fill="#63b8ff" stroke="#63b8ff" points="261,-29.09 257.5,-19.09 254,-29.09 261,-29.09"/>
</a>
</g>
</g>
<!-- Node10 -->
<g id="Node000010" class="node">
<title>Node10</title>
<g id="a_Node000010"><a xlink:title=" ">
<polygon fill="#e0e0e0" stroke="#999999" points="47,-19 0,-19 0,0 47,0 47,-19"/>
<text text-anchor="middle" x="23.5" y="-7" font-family="Helvetica,sans-Serif" font-size="10.00">vector</text>
</a>
</g>
</g>
<!-- Node5&#45;&gt;Node10 -->
<g id="edge10_Node000005_Node000010" class="edge">
<title>Node5&#45;&gt;Node10</title>
<g id="a_edge10_Node000005_Node000010"><a xlink:title=" ">
<path fill="none" stroke="#63b8ff" d="M216.98,-54.96C178.39,-46.72 118.42,-33.68 57.12,-19.08"/>
<polygon fill="#63b8ff" stroke="#63b8ff" points="57.81,-15.65 47.27,-16.73 56.18,-22.46 57.81,-15.65"/>
</a>
</g>
</g>
<!-- Node5&#45;&gt;Node11 -->
<g id="edge11_Node000005_Node000011" class="edge">
<title>Node5&#45;&gt;Node11</title>
<g id="a_edge11_Node000005_Node000011"><a xlink:title=" ">
<path fill="none" stroke="#63b8ff" d="M299.92,-54.98C345.87,-45.76 419.25,-31.03 468.85,-21.07"/>
<polygon fill="#63b8ff" stroke="#63b8ff" points="469.64,-24.48 478.75,-19.08 468.26,-17.62 469.64,-24.48"/>
</a>
</g>
</g>
<!-- Node12&#45;&gt;Node3 -->
<g id="edge15_Node000012_Node000003" class="edge">
<title>Node12&#45;&gt;Node3</title>
<g id="a_edge15_Node000012_Node000003"><a xlink:title=" ">
<path fill="none" stroke="#63b8ff" d="M287.89,-109.66C309.49,-91.3 359.45,-48.81 386.43,-25.87"/>
<polygon fill="#63b8ff" stroke="#63b8ff" points="388.97,-28.3 394.32,-19.16 384.43,-22.97 388.97,-28.3"/>
</a>
</g>
</g>
<!-- Node12&#45;&gt;Node5 -->
<g id="edge18_Node000012_Node000005" class="edge">
<title>Node12&#45;&gt;Node5</title>
<g id="a_edge18_Node000012_Node000005"><a xlink:title=" ">
<path fill="none" stroke="#63b8ff" d="M274.2,-109.75C271.52,-102.65 267.65,-92.4 264.31,-83.56"/>
<polygon fill="#63b8ff" stroke="#63b8ff" points="267.55,-82.21 260.74,-74.09 261,-84.68 267.55,-82.21"/>
</a>
</g>
</g>
<!-- Node12&#45;&gt;Node8 -->
<g id="edge16_Node000012_Node000008" class="edge">
<title>Node12&#45;&gt;Node8</title>
<g id="a_edge16_Node000012_Node000008"><a xlink:title=" ">
<path fill="none" stroke="#63b8ff" d="M259.39,-109.92C241.42,-101.28 213.22,-87.35 189.5,-74 161.12,-58.03 129.43,-37.93 109.01,-24.67"/>
<polygon fill="#63b8ff" stroke="#63b8ff" points="110.77,-21.63 100.48,-19.1 106.94,-27.5 110.77,-21.63"/>
</a>
</g>
</g>
<!-- Node12&#45;&gt;Node10 -->
<g id="edge17_Node000012_Node000010" class="edge">
<title>Node12&#45;&gt;Node10</title>
<g id="a_edge17_Node000012_Node000010"><a xlink:title=" ">
<path fill="none" stroke="#63b8ff" d="M251.28,-109.9C226.17,-101.46 187.35,-87.86 154.5,-74 117.13,-58.23 75.12,-37.28 48.99,-23.84"/>
<polygon fill="#63b8ff" stroke="#63b8ff" points="50.28,-20.56 39.79,-19.08 47.06,-26.78 50.28,-20.56"/>
</a>
</g>
</g>
<!-- Node12&#45;&gt;Node11 -->
<g id="edge19_Node000012_Node000011" class="edge">
<title>Node12&#45;&gt;Node11</title>
<g id="a_edge19_Node000012_Node000011"><a xlink:title=" ">
<path fill="none" stroke="#63b8ff" d="M297.06,-109.84C339.99,-90.84 442.68,-45.39 492.88,-23.17"/>
<polygon fill="#63b8ff" stroke="#63b8ff" points="494.46,-26.29 502.19,-19.05 491.63,-19.89 494.46,-26.29"/>
</a>
</g>
</g>
</g>
</svg>
