<?xml version="1.0" encoding="UTF-8" standalone="no"?>
<!DOCTYPE svg PUBLIC "-//W3C//DTD SVG 1.1//EN"
 "http://www.w3.org/Graphics/SVG/1.1/DTD/svg11.dtd">
<!-- Generated by graphviz version 2.43.0 (0)
 -->
<!-- Title: unilink/config/config_manager.cc Pages: 1 -->
<!--zoomable 214 -->

<svg id="main" version="1.1" xmlns="http://www.w3.org/2000/svg" xmlns:xlink="http://www.w3.org/1999/xlink" xml:space="preserve" onload="init(evt)">
<style type="text/css"><![CDATA[
.node, .edge {opacity: 0.7;}
.node.selected, .edge.selected {opacity: 1;}
.edge:hover path { stroke: red; }
.edge:hover polygon { stroke: red; fill: red; }
]]></style>

<defs>
  <circle id="rim" cx="0" cy="0" r="7"/>
  <circle id="rim2" cx="0" cy="0" r="3.5"/>
  <g id="zoomPlus">
    <use xlink:href="#rim" fill="#404040"><set attributeName="fill" to="#808080" begin="zoomplus.mouseover" end="zoomplus.mouseout"/></use>
    <path d="M-4,0h8M0,-4v8" fill="none" stroke="white" stroke-width="1.5" pointer-events="none"/>
  </g>
  <g id="zoomMin">
    <use xlink:href="#rim" fill="#404040"><set attributeName="fill" to="#808080" begin="zoomminus.mouseover" end="zoomminus.mouseout"/></use>
    <path d="M-4,0h8" fill="none" stroke="white" stroke-width="1.5" pointer-events="none"/>
  </g>
  <g id="arrowUp" transform="translate(30 24)">
    <use xlink:href="#rim"/>
    <path pointer-events="none" fill="none" stroke="white" stroke-width="1.5" d="M0,-3.0v7 M-2.5,-0.5L0,-3.0L2.5,-0.5"/>
  </g>
  <g id="arrowRight" transform="rotate(90) translate(36 -43)">
    <use xlink:href="#rim"/>
    <path pointer-events="none" fill="none" stroke="white" stroke-width="1.5" d="M0,-3.0v7 M-2.5,-0.5L0,-3.0L2.5,-0.5"/>
  </g>
  <g id="arrowDown" transform="rotate(180) translate(-30 -48)">
    <use xlink:href="#rim"/>
    <path pointer-events="none" fill="none" stroke="white" stroke-width="1.5" d="M0,-3.0v7 M-2.5,-0.5L0,-3.0L2.5,-0.5"/>
  </g>
  <g id="arrowLeft" transform="rotate(270) translate(-36 17)">
    <use xlink:href="#rim"/>
    <path pointer-events="none" fill="none" stroke="white" stroke-width="1.5" d="M0,-3.0v7 M-2.5,-0.5L0,-3.0L2.5,-0.5"/>
  </g>
  <g id="resetDef">
    <use xlink:href="#rim2" fill="#404040"><set attributeName="fill" to="#808080" begin="reset.mouseover" end="reset.mouseout"/></use>
  </g>
</defs>
<script type="application/ecmascript">
var viewWidth = 1007;
var viewHeight = 214;
var sectionId = 'dynsection-0';
</script>
<script type="application/ecmascript" xlink:href="svg.min.js"/>
<svg id="graph" class="graph">
<g id="viewport">
<title>unilink/config/config_manager.cc</title>
<!-- Node1 -->
<g id="Node000001" class="node">
<title>Node1</title>
<g id="a_Node000001"><a xlink:title=" ">
<polygon fill="#999999" stroke="#666666" points="610.5,-206 496.5,-206 496.5,-176 610.5,-176 610.5,-206"/>
<text text-anchor="start" x="504.5" y="-194" font-family="Helvetica,sans-Serif" font-size="10.00">unilink/config/config</text>
<text text-anchor="middle" x="553.5" y="-183" font-family="Helvetica,sans-Serif" font-size="10.00">_manager.cc</text>
</a>
</g>
</g>
<!-- Node2 -->
<g id="Node000002" class="node">
<title>Node2</title>
<g id="a_Node000002"><a xlink:href="config__manager_8hpp.html" target="_top" xlink:title=" ">
<polygon fill="white" stroke="#666666" points="387,-140 272,-140 272,-121 387,-121 387,-140"/>
<text text-anchor="middle" x="329.5" y="-128" font-family="Helvetica,sans-Serif" font-size="10.00">config_manager.hpp</text>
</a>
</g>
</g>
<!-- Node1&#45;&gt;Node2 -->
<g id="edge1_Node000001_Node000002" class="edge">
<title>Node1&#45;&gt;Node2</title>
<g id="a_edge1_Node000001_Node000002"><a xlink:title=" ">
<path fill="none" stroke="#63b8ff" d="M499.85,-175.99C460.69,-165.76 408.32,-152.09 372.04,-142.61"/>
<polygon fill="#63b8ff" stroke="#63b8ff" points="372.81,-139.19 362.25,-140.05 371.04,-145.97 372.81,-139.19"/>
</a>
</g>
</g>
<!-- Node9 -->
<g id="Node000009" class="node">
<title>Node9</title>
<g id="a_Node000009"><a xlink:title=" ">
<polygon fill="#e0e0e0" stroke="#999999" points="93,-19 0,-19 0,0 93,0 93,-19"/>
<text text-anchor="middle" x="46.5" y="-7" font-family="Helvetica,sans-Serif" font-size="10.00">unordered_map</text>
</a>
</g>
</g>
<!-- Node1&#45;&gt;Node9 -->
<g id="edge20_Node000001_Node000009" class="edge">
<title>Node1&#45;&gt;Node9</title>
<g id="a_edge20_Node000001_Node000009"><a xlink:title=" ">
<path fill="none" stroke="#63b8ff" d="M496.31,-186.34C436.64,-181.11 341.12,-168.72 263.5,-140 184.6,-110.81 102.15,-52.69 65.74,-25.36"/>
<polygon fill="#63b8ff" stroke="#63b8ff" points="67.58,-22.37 57.5,-19.11 63.35,-27.94 67.58,-22.37"/>
</a>
</g>
</g>
<!-- Node11 -->
<g id="Node000011" class="node">
<title>Node11</title>
<g id="a_Node000011"><a xlink:title=" ">
<polygon fill="#e0e0e0" stroke="#999999" points="507.5,-140 443.5,-140 443.5,-121 507.5,-121 507.5,-140"/>
<text text-anchor="middle" x="475.5" y="-128" font-family="Helvetica,sans-Serif" font-size="10.00">algorithm</text>
</a>
</g>
</g>
<!-- Node1&#45;&gt;Node11 -->
<g id="edge14_Node000001_Node000011" class="edge">
<title>Node1&#45;&gt;Node11</title>
<g id="a_edge14_Node000001_Node000011"><a xlink:title=" ">
<path fill="none" stroke="#63b8ff" d="M534.62,-175.84C522.72,-166.91 507.38,-155.41 495.3,-146.35"/>
<polygon fill="#63b8ff" stroke="#63b8ff" points="497.29,-143.47 487.19,-140.27 493.09,-149.07 497.29,-143.47"/>
</a>
</g>
</g>
<!-- Node12 -->
<g id="Node000012" class="node">
<title>Node12</title>
<g id="a_Node000012"><a xlink:title=" ">
<polygon fill="#e0e0e0" stroke="#999999" points="581,-140 526,-140 526,-121 581,-121 581,-140"/>
<text text-anchor="middle" x="553.5" y="-128" font-family="Helvetica,sans-Serif" font-size="10.00">fstream</text>
</a>
</g>
</g>
<!-- Node1&#45;&gt;Node12 -->
<g id="edge15_Node000001_Node000012" class="edge">
<title>Node1&#45;&gt;Node12</title>
<g id="a_edge15_Node000001_Node000012"><a xlink:title=" ">
<path fill="none" stroke="#63b8ff" d="M553.5,-175.84C553.5,-168.21 553.5,-158.7 553.5,-150.45"/>
<polygon fill="#63b8ff" stroke="#63b8ff" points="557,-150.27 553.5,-140.27 550,-150.27 557,-150.27"/>
</a>
</g>
</g>
<!-- Node13 -->
<g id="Node000013" class="node">
<title>Node13</title>
<g id="a_Node000013"><a xlink:title=" ">
<polygon fill="#e0e0e0" stroke="#999999" points="659.5,-140 599.5,-140 599.5,-121 659.5,-121 659.5,-140"/>
<text text-anchor="middle" x="629.5" y="-128" font-family="Helvetica,sans-Serif" font-size="10.00">iostream</text>
</a>
</g>
</g>
<!-- Node1&#45;&gt;Node13 -->
<g id="edge16_Node000001_Node000013" class="edge">
<title>Node1&#45;&gt;Node13</title>
<g id="a_edge16_Node000001_Node000013"><a xlink:title=" ">
<path fill="none" stroke="#63b8ff" d="M571.9,-175.84C583.38,-167 598.15,-155.63 609.86,-146.62"/>
<polygon fill="#63b8ff" stroke="#63b8ff" points="612.32,-149.14 618.11,-140.27 608.05,-143.59 612.32,-149.14"/>
</a>
</g>
</g>
<!-- Node14 -->
<g id="Node000014" class="node">
<title>Node14</title>
<g id="a_Node000014"><a xlink:title=" ">
<polygon fill="#e0e0e0" stroke="#999999" points="725.5,-140 677.5,-140 677.5,-121 725.5,-121 725.5,-140"/>
<text text-anchor="middle" x="701.5" y="-128" font-family="Helvetica,sans-Serif" font-size="10.00">mutex</text>
</a>
</g>
</g>
<!-- Node1&#45;&gt;Node14 -->
<g id="edge17_Node000001_Node000014" class="edge">
<title>Node1&#45;&gt;Node14</title>
<g id="a_edge17_Node000001_Node000014"><a xlink:title=" ">
<path fill="none" stroke="#63b8ff" d="M588.95,-175.99C613.64,-166.23 646.28,-153.33 670.05,-143.93"/>
<polygon fill="#63b8ff" stroke="#63b8ff" points="671.63,-147.07 679.64,-140.14 669.06,-140.56 671.63,-147.07"/>
</a>
</g>
</g>
<!-- Node15 -->
<g id="Node000015" class="node">
<title>Node15</title>
<g id="a_Node000015"><a xlink:title=" ">
<polygon fill="#e0e0e0" stroke="#999999" points="799.5,-140 743.5,-140 743.5,-121 799.5,-121 799.5,-140"/>
<text text-anchor="middle" x="771.5" y="-128" font-family="Helvetica,sans-Serif" font-size="10.00">sstream</text>
</a>
</g>
</g>
<!-- Node1&#45;&gt;Node15 -->
<g id="edge18_Node000001_Node000015" class="edge">
<title>Node1&#45;&gt;Node15</title>
<g id="a_edge18_Node000001_Node000015"><a xlink:title=" ">
<path fill="none" stroke="#63b8ff" d="M605.72,-175.99C645.04,-165.44 698.04,-151.21 733.43,-141.72"/>
<polygon fill="#63b8ff" stroke="#63b8ff" points="734.61,-145.02 743.36,-139.05 732.79,-138.26 734.61,-145.02"/>
</a>
</g>
</g>
<!-- Node16 -->
<g id="Node000016" class="node">
<title>Node16</title>
<g id="a_Node000016"><a xlink:title=" ">
<polygon fill="#e0e0e0" stroke="#999999" points="883,-140 818,-140 818,-121 883,-121 883,-140"/>
<text text-anchor="middle" x="850.5" y="-128" font-family="Helvetica,sans-Serif" font-size="10.00">stdexcept</text>
</a>
</g>
</g>
<!-- Node1&#45;&gt;Node16 -->
<g id="edge19_Node000001_Node000016" class="edge">
<title>Node1&#45;&gt;Node16</title>
<g id="a_edge19_Node000001_Node000016"><a xlink:title=" ">
<path fill="none" stroke="#63b8ff" d="M610.74,-178.88C660.21,-169.24 733.92,-154.83 807.97,-140.1"/>
<polygon fill="#63b8ff" stroke="#63b8ff" points="808.82,-143.5 817.94,-138.11 807.45,-136.63 808.82,-143.5"/>
</a>
</g>
</g>
<!-- Node17 -->
<g id="Node000017" class="node">
<title>Node17</title>
<g id="a_Node000017"><a xlink:href="logger_8hpp.html" target="_top" xlink:title=" ">
<polygon fill="white" stroke="#666666" points="612.5,-85 504.5,-85 504.5,-55 612.5,-55 612.5,-85"/>
<text text-anchor="start" x="512.5" y="-73" font-family="Helvetica,sans-Serif" font-size="10.00">unilink/diagnostics</text>
<text text-anchor="middle" x="558.5" y="-62" font-family="Helvetica,sans-Serif" font-size="10.00">/logger.hpp</text>
</a>
</g>
</g>
<!-- Node1&#45;&gt;Node17 -->
<g id="edge21_Node000001_Node000017" class="edge">
<title>Node1&#45;&gt;Node17</title>
<g id="a_edge21_Node000001_Node000017"><a xlink:title=" ">
<path fill="none" stroke="#63b8ff" d="M496.47,-178.95C457.01,-168.53 414.86,-150.1 434.5,-121 448.19,-100.71 471.64,-88.66 494.49,-81.49"/>
<polygon fill="#63b8ff" stroke="#63b8ff" points="495.56,-84.83 504.21,-78.71 493.63,-78.1 495.56,-84.83"/>
</a>
</g>
</g>
<!-- Node3 -->
<g id="Node000003" class="node">
<title>Node3</title>
<g id="a_Node000003"><a xlink:title=" ">
<polygon fill="#e0e0e0" stroke="#999999" points="445.5,-19 387.5,-19 387.5,0 445.5,0 445.5,-19"/>
<text text-anchor="middle" x="416.5" y="-7" font-family="Helvetica,sans-Serif" font-size="10.00">memory</text>
</a>
</g>
</g>
<!-- Node2&#45;&gt;Node3 -->
<g id="edge2_Node000002_Node000003" class="edge">
<title>Node2&#45;&gt;Node3</title>
<g id="a_edge2_Node000002_Node000003"><a xlink:title=" ">
<path fill="none" stroke="#63b8ff" d="M350.37,-120.89C365.65,-113.54 385.69,-101.53 397.5,-85 409.24,-68.57 413.74,-45.54 415.46,-29.45"/>
<polygon fill="#63b8ff" stroke="#63b8ff" points="418.97,-29.4 416.28,-19.16 411.99,-28.85 418.97,-29.4"/>
</a>
</g>
</g>
<!-- Node4 -->
<g id="Node000004" class="node">
<title>Node4</title>
<g id="a_Node000004"><a xlink:title=" ">
<polygon fill="#e0e0e0" stroke="#999999" points="507.5,-19 463.5,-19 463.5,0 507.5,0 507.5,-19"/>
<text text-anchor="middle" x="485.5" y="-7" font-family="Helvetica,sans-Serif" font-size="10.00">string</text>
</a>
</g>
</g>
<!-- Node2&#45;&gt;Node4 -->
<g id="edge3_Node000002_Node000004" class="edge">
<title>Node2&#45;&gt;Node4</title>
<g id="a_edge3_Node000002_Node000004"><a xlink:title=" ">
<path fill="none" stroke="#63b8ff" d="M351.75,-120.92C370.35,-113.14 397.05,-100.53 417.5,-85 439.62,-68.2 460.44,-43.61 473.07,-27.34"/>
<polygon fill="#63b8ff" stroke="#63b8ff" points="475.95,-29.34 479.2,-19.26 470.37,-25.11 475.95,-29.34"/>
</a>
</g>
</g>
<!-- Node5 -->
<g id="Node000005" class="node">
<title>Node5</title>
<g id="a_Node000005"><a xlink:title=" ">
<polygon fill="#e0e0e0" stroke="#999999" points="211,-19 164,-19 164,0 211,0 211,-19"/>
<text text-anchor="middle" x="187.5" y="-7" font-family="Helvetica,sans-Serif" font-size="10.00">vector</text>
</a>
</g>
</g>
<!-- Node2&#45;&gt;Node5 -->
<g id="edge4_Node000002_Node000005" class="edge">
<title>Node2&#45;&gt;Node5</title>
<g id="a_edge4_Node000002_Node000005"><a xlink:title=" ">
<path fill="none" stroke="#63b8ff" d="M311.27,-120.9C295.19,-112.85 271.58,-99.85 253.5,-85 232.52,-67.76 212.42,-43.61 200.04,-27.53"/>
<polygon fill="#63b8ff" stroke="#63b8ff" points="202.5,-24.99 193.68,-19.11 196.91,-29.2 202.5,-24.99"/>
</a>
</g>
</g>
<!-- Node6 -->
<g id="Node000006" class="node">
<title>Node6</title>
<g id="a_Node000006"><a xlink:href="iconfig__manager_8hpp.html" target="_top" xlink:title=" ">
<polygon fill="white" stroke="#666666" points="388.5,-79.5 270.5,-79.5 270.5,-60.5 388.5,-60.5 388.5,-79.5"/>
<text text-anchor="middle" x="329.5" y="-67.5" font-family="Helvetica,sans-Serif" font-size="10.00">iconfig_manager.hpp</text>
</a>
</g>
</g>
<!-- Node2&#45;&gt;Node6 -->
<g id="edge5_Node000002_Node000006" class="edge">
<title>Node2&#45;&gt;Node6</title>
<g id="a_edge5_Node000002_Node000006"><a xlink:title=" ">
<path fill="none" stroke="#63b8ff" d="M329.5,-120.87C329.5,-112.75 329.5,-100.31 329.5,-89.89"/>
<polygon fill="#63b8ff" stroke="#63b8ff" points="333,-89.67 329.5,-79.67 326,-89.67 333,-89.67"/>
</a>
</g>
</g>
<!-- Node10 -->
<g id="Node000010" class="node">
<title>Node10</title>
<g id="a_Node000010"><a xlink:href="visibility_8hpp.html" target="_top" xlink:title=" ">
<polygon fill="white" stroke="#666666" points="369.5,-19 229.5,-19 229.5,0 369.5,0 369.5,-19"/>
<text text-anchor="middle" x="299.5" y="-7" font-family="Helvetica,sans-Serif" font-size="10.00">unilink/base/visibility.hpp</text>
</a>
</g>
</g>
<!-- Node2&#45;&gt;Node10 -->
<g id="edge13_Node000002_Node000010" class="edge">
<title>Node2&#45;&gt;Node10</title>
<g id="a_edge13_Node000002_Node000010"><a xlink:title=" ">
<path fill="none" stroke="#63b8ff" d="M305.72,-120.92C290.07,-113.89 270.83,-102.25 261.5,-85 255.16,-73.27 256.89,-67.51 261.5,-55 265.56,-43.99 273.69,-33.86 281.4,-26.05"/>
<polygon fill="#63b8ff" stroke="#63b8ff" points="283.92,-28.48 288.79,-19.07 279.11,-23.39 283.92,-28.48"/>
</a>
</g>
</g>
<!-- Node6&#45;&gt;Node3 -->
<g id="edge8_Node000006_Node000003" class="edge">
<title>Node6&#45;&gt;Node3</title>
<g id="a_edge8_Node000006_Node000003"><a xlink:title=" ">
<path fill="none" stroke="#63b8ff" d="M342.34,-60.37C356.22,-51.04 378.57,-36.01 395.11,-24.88"/>
<polygon fill="#63b8ff" stroke="#63b8ff" points="397.26,-27.65 403.61,-19.17 393.36,-21.84 397.26,-27.65"/>
</a>
</g>
</g>
<!-- Node6&#45;&gt;Node4 -->
<g id="edge9_Node000006_Node000004" class="edge">
<title>Node6&#45;&gt;Node4</title>
<g id="a_edge9_Node000006_Node000004"><a xlink:title=" ">
<path fill="none" stroke="#63b8ff" d="M352.18,-60.49C378.91,-50.47 423.48,-33.76 453.66,-22.44"/>
<polygon fill="#63b8ff" stroke="#63b8ff" points="455.16,-25.62 463.29,-18.83 452.7,-19.06 455.16,-25.62"/>
</a>
</g>
</g>
<!-- Node6&#45;&gt;Node5 -->
<g id="edge11_Node000006_Node000005" class="edge">
<title>Node6&#45;&gt;Node5</title>
<g id="a_edge11_Node000006_Node000005"><a xlink:title=" ">
<path fill="none" stroke="#63b8ff" d="M308.85,-60.49C284.87,-50.62 245.11,-34.23 217.67,-22.93"/>
<polygon fill="#63b8ff" stroke="#63b8ff" points="218.75,-19.59 208.17,-19.02 216.09,-26.06 218.75,-19.59"/>
</a>
</g>
</g>
<!-- Node7 -->
<g id="Node000007" class="node">
<title>Node7</title>
<g id="a_Node000007"><a xlink:title=" ">
<polygon fill="#e0e0e0" stroke="#999999" points="146,-19 111,-19 111,0 146,0 146,-19"/>
<text text-anchor="middle" x="128.5" y="-7" font-family="Helvetica,sans-Serif" font-size="10.00">any</text>
</a>
</g>
</g>
<!-- Node6&#45;&gt;Node7 -->
<g id="edge6_Node000006_Node000007" class="edge">
<title>Node6&#45;&gt;Node7</title>
<g id="a_edge6_Node000006_Node000007"><a xlink:title=" ">
<path fill="none" stroke="#63b8ff" d="M298.42,-60.5C265.26,-51.35 211,-36.14 155.7,-19.29"/>
<polygon fill="#63b8ff" stroke="#63b8ff" points="156.68,-15.93 146.09,-16.35 154.63,-22.62 156.68,-15.93"/>
</a>
</g>
</g>
<!-- Node8 -->
<g id="Node000008" class="node">
<title>Node8</title>
<g id="a_Node000008"><a xlink:title=" ">
<polygon fill="#e0e0e0" stroke="#999999" points="591,-19 526,-19 526,0 591,0 591,-19"/>
<text text-anchor="middle" x="558.5" y="-7" font-family="Helvetica,sans-Serif" font-size="10.00">functional</text>
</a>
</g>
</g>
<!-- Node6&#45;&gt;Node8 -->
<g id="edge7_Node000006_Node000008" class="edge">
<title>Node6&#45;&gt;Node8</title>
<g id="a_edge7_Node000006_Node000008"><a xlink:title=" ">
<path fill="none" stroke="#63b8ff" d="M362.8,-60.49C403.31,-50.15 471.76,-32.66 516.02,-21.35"/>
<polygon fill="#63b8ff" stroke="#63b8ff" points="517.08,-24.69 525.9,-18.83 515.35,-17.91 517.08,-24.69"/>
</a>
</g>
</g>
<!-- Node6&#45;&gt;Node9 -->
<g id="edge10_Node000006_Node000009" class="edge">
<title>Node6&#45;&gt;Node9</title>
<g id="a_edge10_Node000006_Node000009"><a xlink:title=" ">
<path fill="none" stroke="#63b8ff" d="M288.35,-60.49C237.84,-50.05 152.18,-32.35 97.53,-21.05"/>
<polygon fill="#63b8ff" stroke="#63b8ff" points="98.2,-17.61 87.7,-19.02 96.78,-24.47 98.2,-17.61"/>
</a>
</g>
</g>
<!-- Node6&#45;&gt;Node10 -->
<g id="edge12_Node000006_Node000010" class="edge">
<title>Node6&#45;&gt;Node10</title>
<g id="a_edge12_Node000006_Node000010"><a xlink:title=" ">
<path fill="none" stroke="#63b8ff" d="M325.07,-60.37C320.73,-51.9 313.98,-38.74 308.51,-28.07"/>
<polygon fill="#63b8ff" stroke="#63b8ff" points="311.62,-26.47 303.94,-19.17 305.39,-29.66 311.62,-26.47"/>
</a>
</g>
</g>
<!-- Node17&#45;&gt;Node3 -->
<g id="edge26_Node000017_Node000003" class="edge">
<title>Node17&#45;&gt;Node3</title>
<g id="a_edge26_Node000017_Node000003"><a xlink:title=" ">
<path fill="none" stroke="#63b8ff" d="M524.49,-54.99C500.9,-45.27 469.76,-32.44 446.98,-23.06"/>
<polygon fill="#63b8ff" stroke="#63b8ff" points="448.05,-19.71 437.47,-19.14 445.38,-26.18 448.05,-19.71"/>
</a>
</g>
</g>
<!-- Node17&#45;&gt;Node4 -->
<g id="edge28_Node000017_Node000004" class="edge">
<title>Node17&#45;&gt;Node4</title>
<g id="a_edge28_Node000017_Node000004"><a xlink:title=" ">
<path fill="none" stroke="#63b8ff" d="M540.83,-54.84C529.8,-46 515.61,-34.63 504.37,-25.62"/>
<polygon fill="#63b8ff" stroke="#63b8ff" points="506.43,-22.79 496.44,-19.27 502.05,-28.25 506.43,-22.79"/>
</a>
</g>
</g>
<!-- Node17&#45;&gt;Node5 -->
<g id="edge30_Node000017_Node000005" class="edge">
<title>Node17&#45;&gt;Node5</title>
<g id="a_edge30_Node000017_Node000005"><a xlink:title=" ">
<path fill="none" stroke="#63b8ff" d="M504.34,-62.77C439.36,-54.9 326.99,-40.04 221.12,-18.92"/>
<polygon fill="#63b8ff" stroke="#63b8ff" points="221.72,-15.48 211.22,-16.93 220.33,-22.34 221.72,-15.48"/>
</a>
</g>
</g>
<!-- Node17&#45;&gt;Node8 -->
<g id="edge25_Node000017_Node000008" class="edge">
<title>Node17&#45;&gt;Node8</title>
<g id="a_edge25_Node000017_Node000008"><a xlink:title=" ">
<path fill="none" stroke="#63b8ff" d="M558.5,-54.84C558.5,-47.21 558.5,-37.7 558.5,-29.45"/>
<polygon fill="#63b8ff" stroke="#63b8ff" points="562,-29.27 558.5,-19.27 555,-29.27 562,-29.27"/>
</a>
</g>
</g>
<!-- Node17&#45;&gt;Node10 -->
<g id="edge31_Node000017_Node000010" class="edge">
<title>Node17&#45;&gt;Node10</title>
<g id="a_edge31_Node000017_Node000010"><a xlink:title=" ">
<path fill="none" stroke="#63b8ff" d="M504.21,-56.74C457.83,-46.26 391.76,-31.34 347.34,-21.31"/>
<polygon fill="#63b8ff" stroke="#63b8ff" points="347.9,-17.84 337.38,-19.06 346.36,-24.67 347.9,-17.84"/>
</a>
</g>
</g>
<!-- Node18 -->
<g id="Node000018" class="node">
<title>Node18</title>
<g id="a_Node000018"><a xlink:title=" ">
<polygon fill="#e0e0e0" stroke="#999999" points="998.5,-19 948.5,-19 948.5,0 998.5,0 998.5,-19"/>
<text text-anchor="middle" x="973.5" y="-7" font-family="Helvetica,sans-Serif" font-size="10.00">atomic</text>
</a>
</g>
</g>
<!-- Node17&#45;&gt;Node18 -->
<g id="edge22_Node000017_Node000018" class="edge">
<title>Node17&#45;&gt;Node18</title>
<g id="a_edge22_Node000017_Node000018"><a xlink:title=" ">
<path fill="none" stroke="#63b8ff" d="M612.76,-63.86C684.98,-56.57 816.8,-41.75 938.46,-19"/>
<polygon fill="#63b8ff" stroke="#63b8ff" points="939.15,-22.43 948.32,-17.14 937.84,-15.56 939.15,-22.43"/>
</a>
</g>
</g>
<!-- Node19 -->
<g id="Node000019" class="node">
<title>Node19</title>
<g id="a_Node000019"><a xlink:title=" ">
<polygon fill="#e0e0e0" stroke="#999999" points="659.5,-19 609.5,-19 609.5,0 659.5,0 659.5,-19"/>
<text text-anchor="middle" x="634.5" y="-7" font-family="Helvetica,sans-Serif" font-size="10.00">chrono</text>
</a>
</g>
</g>
<!-- Node17&#45;&gt;Node19 -->
<g id="edge23_Node000017_Node000019" class="edge">
<title>Node17&#45;&gt;Node19</title>
<g id="a_edge23_Node000017_Node000019"><a xlink:title=" ">
<path fill="none" stroke="#63b8ff" d="M576.9,-54.84C588.38,-46 603.15,-34.63 614.86,-25.62"/>
<polygon fill="#63b8ff" stroke="#63b8ff" points="617.32,-28.14 623.11,-19.27 613.05,-22.59 617.32,-28.14"/>
</a>
</g>
</g>
<!-- Node20 -->
<g id="Node000020" class="node">
<title>Node20</title>
<g id="a_Node000020"><a xlink:title=" ">
<polygon fill="#e0e0e0" stroke="#999999" points="727.5,-19 677.5,-19 677.5,0 727.5,0 727.5,-19"/>
<text text-anchor="middle" x="702.5" y="-7" font-family="Helvetica,sans-Serif" font-size="10.00">format</text>
</a>
</g>
</g>
<!-- Node17&#45;&gt;Node20 -->
<g id="edge24_Node000017_Node000020" class="edge">
<title>Node17&#45;&gt;Node20</title>
<g id="a_edge24_Node000017_Node000020"><a xlink:title=" ">
<path fill="none" stroke="#63b8ff" d="M592.99,-54.99C617.02,-45.23 648.77,-32.33 671.9,-22.93"/>
<polygon fill="#63b8ff" stroke="#63b8ff" points="673.29,-26.15 681.23,-19.14 670.65,-19.66 673.29,-26.15"/>
</a>
</g>
</g>
<!-- Node21 -->
<g id="Node000021" class="node">
<title>Node21</title>
<g id="a_Node000021"><a xlink:title=" ">
<polygon fill="#e0e0e0" stroke="#999999" points="839,-19 746,-19 746,0 839,0 839,-19"/>
<text text-anchor="middle" x="792.5" y="-7" font-family="Helvetica,sans-Serif" font-size="10.00">source_location</text>
</a>
</g>
</g>
<!-- Node17&#45;&gt;Node21 -->
<g id="edge27_Node000017_Node000021" class="edge">
<title>Node17&#45;&gt;Node21</title>
<g id="a_edge27_Node000017_Node000021"><a xlink:title=" ">
<path fill="none" stroke="#63b8ff" d="M612.77,-55.43C654.04,-45.11 710.1,-31.1 748.57,-21.48"/>
<polygon fill="#63b8ff" stroke="#63b8ff" points="749.59,-24.84 758.44,-19.01 747.89,-18.04 749.59,-24.84"/>
</a>
</g>
</g>
<!-- Node22 -->
<g id="Node000022" class="node">
<title>Node22</title>
<g id="a_Node000022"><a xlink:title=" ">
<polygon fill="#e0e0e0" stroke="#999999" points="930,-19 857,-19 857,0 930,0 930,-19"/>
<text text-anchor="middle" x="893.5" y="-7" font-family="Helvetica,sans-Serif" font-size="10.00">string_view</text>
</a>
</g>
</g>
<!-- Node17&#45;&gt;Node22 -->
<g id="edge29_Node000017_Node000022" class="edge">
<title>Node17&#45;&gt;Node22</title>
<g id="a_edge29_Node000017_Node000022"><a xlink:title=" ">
<path fill="none" stroke="#63b8ff" d="M612.53,-59.95C668.64,-50.49 759.26,-35.05 846.59,-19.32"/>
<polygon fill="#63b8ff" stroke="#63b8ff" points="847.45,-22.73 856.67,-17.51 846.21,-15.84 847.45,-22.73"/>
</a>
</g>
</g>
</g>
</svg>

<g id="navigator" transform="translate(0 0)" fill="#404254">
  <rect fill="#f2f5e9" fill-opacity="0.5" stroke="#606060" stroke-width=".5" x="0" y="0" width="60" height="60"/>
  <use id="zoomplus" xlink:href="#zoomPlus" x="17" y="9" onmousedown="handleZoom(evt,'in')"/>
  <use id="zoomminus" xlink:href="#zoomMin" x="42" y="9" onmousedown="handleZoom(evt,'out')"/>
  <use id="reset" xlink:href="#resetDef" x="30" y="36" onmousedown="handleReset()"/>
   <use id="arrowup" xlink:href="#arrowUp" x="0" y="0" onmousedown="handlePan(0,-1)"/>
  <use id="arrowright" xlink:href="#arrowRight" x="0" y="0" onmousedown="handlePan(1,0)"/>
  <use id="arrowdown" xlink:href="#arrowDown" x="0" y="0" onmousedown="handlePan(0,1)"/>
  <use id="arrowleft" xlink:href="#arrowLeft" x="0" y="0" onmousedown="handlePan(-1,0)"/>
</g>
<svg viewBox="0 0 15 15" width="100%" height="30px" preserveAspectRatio="xMaxYMin meet">
 <g id="arrow_out" transform="scale(0.3 0.3)">
  <a xlink:href="config__manager_8cc__incl_org.svg" target="_base">
   <rect id="button" ry="5" rx="5" y="6" x="6" height="38" width="38"
        fill="#f2f5e9" fill-opacity="0.5" stroke="#606060" stroke-width="1.0"/>
   <path id="arrow"
     d="M 11.500037,31.436501 C 11.940474,20.09759 22.043105,11.32322 32.158766,21.979434 L 37.068811,17.246167 C 37.068811,17.246167 37.088388,32 37.088388,32 L 22.160133,31.978069 C 22.160133,31.978069 26.997745,27.140456 26.997745,27.140456 C 18.528582,18.264221 13.291696,25.230495 11.500037,31.436501 z"
     style="fill:#404040;"/>
  </a>
 </g>
</svg>

<style type='text/css'>
<![CDATA[
[data-mouse-over-selected='false'] { opacity: 0.7; }
[data-mouse-over-selected='true']  { opacity: 1.0; }
]]>
</style>
<script type="application/ecmascript"><![CDATA[
document.addEventListener('DOMContentLoaded', (event) => {
  highlightEdges();
  highlightAdjacentNodes();
});
]]></script>
</svg>
