<?xml version="1.0" encoding="UTF-8" standalone="no"?>
<!DOCTYPE svg PUBLIC "-//W3C//DTD SVG 1.1//EN"
 "http://www.w3.org/Graphics/SVG/1.1/DTD/svg11.dtd">
<!-- Generated by graphviz version 2.43.0 (0)
 -->
<!-- Title: unilink/wrapper/context.hpp Pages: 1 -->
<!--zoomable 280 -->

<svg id="main" version="1.1" xmlns="http://www.w3.org/2000/svg" xmlns:xlink="http://www.w3.org/1999/xlink" xml:space="preserve" onload="init(evt)">
<style type="text/css"><![CDATA[
.node, .edge {opacity: 0.7;}
.node.selected, .edge.selected {opacity: 1;}
.edge:hover path { stroke: red; }
.edge:hover polygon { stroke: red; fill: red; }
]]></style>

<defs>
  <circle id="rim" cx="0" cy="0" r="7"/>
  <circle id="rim2" cx="0" cy="0" r="3.5"/>
  <g id="zoomPlus">
    <use xlink:href="#rim" fill="#404040"><set attributeName="fill" to="#808080" begin="zoomplus.mouseover" end="zoomplus.mouseout"/></use>
    <path d="M-4,0h8M0,-4v8" fill="none" stroke="white" stroke-width="1.5" pointer-events="none"/>
  </g>
  <g id="zoomMin">
    <use xlink:href="#rim" fill="#404040"><set attributeName="fill" to="#808080" begin="zoomminus.mouseover" end="zoomminus.mouseout"/></use>
    <path d="M-4,0h8" fill="none" stroke="white" stroke-width="1.5" pointer-events="none"/>
  </g>
  <g id="arrowUp" transform="translate(30 24)">
    <use xlink:href="#rim"/>
    <path pointer-events="none" fill="none" stroke="white" stroke-width="1.5" d="M0,-3.0v7 M-2.5,-0.5L0,-3.0L2.5,-0.5"/>
  </g>
  <g id="arrowRight" transform="rotate(90) translate(36 -43)">
    <use xlink:href="#rim"/>
    <path pointer-events="none" fill="none" stroke="white" stroke-width="1.5" d="M0,-3.0v7 M-2.5,-0.5L0,-3.0L2.5,-0.5"/>
  </g>
  <g id="arrowDown" transform="rotate(180) translate(-30 -48)">
    <use xlink:href="#rim"/>
    <path pointer-events="none" fill="none" stroke="white" stroke-width="1.5" d="M0,-3.0v7 M-2.5,-0.5L0,-3.0L2.5,-0.5"/>
  </g>
  <g id="arrowLeft" transform="rotate(270) translate(-36 17)">
    <use xlink:href="#rim"/>
    <path pointer-events="none" fill="none" stroke="white" stroke-width="1.5" d="M0,-3.0v7 M-2.5,-0.5L0,-3.0L2.5,-0.5"/>
  </g>
  <g id="resetDef">
    <use xlink:href="#rim2" fill="#404040"><set attributeName="fill" to="#808080" begin="reset.mouseover" end="reset.mouseout"/></use>
  </g>
</defs>
<script type="application/ecmascript">
var viewWidth = 1512;
var viewHeight = 280;
var sectionId = 'dynsection-0';
</script>
<script type="application/ecmascript" xlink:href="svg.min.js"/>
<svg id="graph" class="graph">
<g id="viewport">
<title>unilink/wrapper/context.hpp</title>
<!-- Node1 -->
<g id="Node000001" class="node">
<title>Node1</title>
<g id="a_Node000001"><a xlink:title=" ">
<polygon fill="#999999" stroke="#666666" points="1014.5,-272 861.5,-272 861.5,-253 1014.5,-253 1014.5,-272"/>
<text text-anchor="middle" x="938" y="-260" font-family="Helvetica,sans-Serif" font-size="10.00">unilink/wrapper/context.hpp</text>
</a>
</g>
</g>
<!-- Node2 -->
<g id="Node000002" class="node">
<title>Node2</title>
<g id="a_Node000002"><a xlink:title=" ">
<polygon fill="#e0e0e0" stroke="#999999" points="56,-211.5 0,-211.5 0,-192.5 56,-192.5 56,-211.5"/>
<text text-anchor="middle" x="28" y="-199.5" font-family="Helvetica,sans-Serif" font-size="10.00">optional</text>
</a>
</g>
</g>
<!-- Node1&#45;&gt;Node2 -->
<g id="edge1_Node000001_Node000002" class="edge">
<title>Node1&#45;&gt;Node2</title>
<g id="a_edge1_Node000001_Node000002"><a xlink:title=" ">
<path fill="none" stroke="#63b8ff" d="M861.3,-260.63C677.5,-258.07 215.95,-248.6 65,-217 62.32,-216.44 59.58,-215.71 56.85,-214.89"/>
<polygon fill="#63b8ff" stroke="#63b8ff" points="57.84,-211.53 47.25,-211.57 55.56,-218.14 57.84,-211.53"/>
</a>
</g>
</g>
<!-- Node3 -->
<g id="Node000003" class="node">
<title>Node3</title>
<g id="a_Node000003"><a xlink:title=" ">
<polygon fill="#e0e0e0" stroke="#999999" points="437,-79.5 393,-79.5 393,-60.5 437,-60.5 437,-79.5"/>
<text text-anchor="middle" x="415" y="-67.5" font-family="Helvetica,sans-Serif" font-size="10.00">string</text>
</a>
</g>
</g>
<!-- Node1&#45;&gt;Node3 -->
<g id="edge2_Node000001_Node000003" class="edge">
<title>Node1&#45;&gt;Node3</title>
<g id="a_edge2_Node000001_Node000003"><a xlink:title=" ">
<path fill="none" stroke="#63b8ff" d="M861.26,-261.31C697.17,-259.09 320.71,-243.76 242,-151 200.39,-101.97 321.65,-81.28 382.48,-74.15"/>
<polygon fill="#63b8ff" stroke="#63b8ff" points="383.18,-77.6 392.73,-73.01 382.41,-70.64 383.18,-77.6"/>
</a>
</g>
</g>
<!-- Node4 -->
<g id="Node000004" class="node">
<title>Node4</title>
<g id="a_Node000004"><a xlink:title=" ">
<polygon fill="#e0e0e0" stroke="#999999" points="1099.5,-79.5 1026.5,-79.5 1026.5,-60.5 1099.5,-60.5 1099.5,-79.5"/>
<text text-anchor="middle" x="1063" y="-67.5" font-family="Helvetica,sans-Serif" font-size="10.00">string_view</text>
</a>
</g>
</g>
<!-- Node1&#45;&gt;Node4 -->
<g id="edge3_Node000001_Node000004" class="edge">
<title>Node1&#45;&gt;Node4</title>
<g id="a_edge3_Node000001_Node000004"><a xlink:title=" ">
<path fill="none" stroke="#63b8ff" d="M958.32,-252.94C991.08,-237.88 1054.48,-203.2 1080,-151 1089.71,-131.14 1081.32,-105.85 1073.26,-89.08"/>
<polygon fill="#63b8ff" stroke="#63b8ff" points="1076.18,-87.1 1068.44,-79.86 1069.97,-90.34 1076.18,-87.1"/>
</a>
</g>
</g>
<!-- Node5 -->
<g id="Node000005" class="node">
<title>Node5</title>
<g id="a_Node000005"><a xlink:title=" ">
<polygon fill="#e0e0e0" stroke="#999999" points="1329.5,-79.5 1282.5,-79.5 1282.5,-60.5 1329.5,-60.5 1329.5,-79.5"/>
<text text-anchor="middle" x="1306" y="-67.5" font-family="Helvetica,sans-Serif" font-size="10.00">vector</text>
</a>
</g>
</g>
<!-- Node1&#45;&gt;Node5 -->
<g id="edge4_Node000001_Node000005" class="edge">
<title>Node1&#45;&gt;Node5</title>
<g id="a_edge4_Node000001_Node000005"><a xlink:title=" ">
<path fill="none" stroke="#63b8ff" d="M1014.84,-259.06C1094.14,-252.16 1215.39,-228.57 1282,-151 1296.88,-133.67 1302.53,-107.38 1304.68,-89.72"/>
<polygon fill="#63b8ff" stroke="#63b8ff" points="1308.19,-89.83 1305.65,-79.54 1301.22,-89.16 1308.19,-89.83"/>
</a>
</g>
</g>
<!-- Node6 -->
<g id="Node000006" class="node">
<title>Node6</title>
<g id="a_Node000006"><a xlink:href="common_8hpp.html" target="_top" xlink:title=" ">
<polygon fill="white" stroke="#666666" points="793.5,-211.5 650.5,-211.5 650.5,-192.5 793.5,-192.5 793.5,-211.5"/>
<text text-anchor="middle" x="722" y="-199.5" font-family="Helvetica,sans-Serif" font-size="10.00">unilink/base/common.hpp</text>
</a>
</g>
</g>
<!-- Node1&#45;&gt;Node6 -->
<g id="edge5_Node000001_Node000006" class="edge">
<title>Node1&#45;&gt;Node6</title>
<g id="a_edge5_Node000001_Node000006"><a xlink:title=" ">
<path fill="none" stroke="#63b8ff" d="M906.59,-252.99C868.76,-242.75 805.09,-225.5 763.31,-214.19"/>
<polygon fill="#63b8ff" stroke="#63b8ff" points="764.01,-210.75 753.45,-211.52 762.18,-217.51 764.01,-210.75"/>
</a>
</g>
</g>
<!-- Node24 -->
<g id="Node000024" class="node">
<title>Node24</title>
<g id="a_Node000024"><a xlink:href="error__codes_8hpp.html" target="_top" xlink:title=" ">
<polygon fill="white" stroke="#666666" points="176,-217 74,-217 74,-187 176,-187 176,-217"/>
<text text-anchor="start" x="82" y="-205" font-family="Helvetica,sans-Serif" font-size="10.00">unilink/base/error</text>
<text text-anchor="middle" x="125" y="-194" font-family="Helvetica,sans-Serif" font-size="10.00">_codes.hpp</text>
</a>
</g>
</g>
<!-- Node1&#45;&gt;Node24 -->
<g id="edge33_Node000001_Node000024" class="edge">
<title>Node1&#45;&gt;Node24</title>
<g id="a_edge33_Node000001_Node000024"><a xlink:title=" ">
<path fill="none" stroke="#63b8ff" d="M861.44,-260.79C725.6,-258.69 433.77,-250.3 190,-217 188.75,-216.83 187.48,-216.65 186.2,-216.45"/>
<polygon fill="#63b8ff" stroke="#63b8ff" points="186.76,-213 176.32,-214.81 185.61,-219.9 186.76,-213"/>
</a>
</g>
</g>
<!-- Node25 -->
<g id="Node000025" class="node">
<title>Node25</title>
<g id="a_Node000025"><a xlink:href="safe__data__buffer_8hpp.html" target="_top" xlink:title=" ">
<polygon fill="white" stroke="#666666" points="1245,-151 1127,-151 1127,-121 1245,-121 1245,-151"/>
<text text-anchor="start" x="1135" y="-139" font-family="Helvetica,sans-Serif" font-size="10.00">unilink/memory/safe</text>
<text text-anchor="middle" x="1186" y="-128" font-family="Helvetica,sans-Serif" font-size="10.00">_data_buffer.hpp</text>
</a>
</g>
</g>
<!-- Node1&#45;&gt;Node25 -->
<g id="edge35_Node000001_Node000025" class="edge">
<title>Node1&#45;&gt;Node25</title>
<g id="a_edge35_Node000001_Node000025"><a xlink:title=" ">
<path fill="none" stroke="#63b8ff" d="M1009.36,-252.99C1042.62,-246.68 1081.68,-235.78 1113,-217 1137.11,-202.54 1157.96,-177.68 1171.14,-159.5"/>
<polygon fill="#63b8ff" stroke="#63b8ff" points="1174.09,-161.38 1176.97,-151.19 1168.36,-157.37 1174.09,-161.38"/>
</a>
</g>
</g>
<!-- Node27 -->
<g id="Node000027" class="node">
<title>Node27</title>
<g id="a_Node000027"><a xlink:href="safe__span_8hpp.html" target="_top" xlink:title=" ">
<polygon fill="white" stroke="#666666" points="1504,-85 1386,-85 1386,-55 1504,-55 1504,-85"/>
<text text-anchor="start" x="1394" y="-73" font-family="Helvetica,sans-Serif" font-size="10.00">unilink/memory/safe</text>
<text text-anchor="middle" x="1445" y="-62" font-family="Helvetica,sans-Serif" font-size="10.00">_span.hpp</text>
</a>
</g>
</g>
<!-- Node1&#45;&gt;Node27 -->
<g id="edge49_Node000001_Node000027" class="edge">
<title>Node1&#45;&gt;Node27</title>
<g id="a_edge49_Node000001_Node000027"><a xlink:title=" ">
<path fill="none" stroke="#63b8ff" d="M1014.76,-259.08C1107.71,-252.57 1265.08,-229.69 1372,-151 1394.25,-134.62 1415.01,-110.69 1428.66,-93.27"/>
<polygon fill="#63b8ff" stroke="#63b8ff" points="1431.46,-95.37 1434.76,-85.3 1425.9,-91.11 1431.46,-95.37"/>
</a>
</g>
</g>
<!-- Node6&#45;&gt;Node3 -->
<g id="edge15_Node000006_Node000003" class="edge">
<title>Node6&#45;&gt;Node3</title>
<g id="a_edge15_Node000006_Node000003"><a xlink:title=" ">
<path fill="none" stroke="#63b8ff" d="M690.26,-192.44C661.88,-184.08 619.7,-169.86 586,-151 567.22,-140.49 566.84,-131.39 548,-121 505.9,-97.79 490.61,-102.91 446,-85 444.83,-84.53 443.64,-84.04 442.44,-83.54"/>
<polygon fill="#63b8ff" stroke="#63b8ff" points="443.82,-80.32 433.25,-79.55 441.03,-86.74 443.82,-80.32"/>
</a>
</g>
</g>
<!-- Node6&#45;&gt;Node4 -->
<g id="edge16_Node000006_Node000004" class="edge">
<title>Node6&#45;&gt;Node4</title>
<g id="a_edge16_Node000006_Node000004"><a xlink:title=" ">
<path fill="none" stroke="#63b8ff" d="M793.72,-194.66C842.66,-188.29 907.96,-175.69 961,-151 995.48,-134.95 1028.89,-105.23 1047.61,-86.88"/>
<polygon fill="#63b8ff" stroke="#63b8ff" points="1050.33,-89.11 1054.91,-79.56 1045.37,-84.17 1050.33,-89.11"/>
</a>
</g>
</g>
<!-- Node6&#45;&gt;Node5 -->
<g id="edge18_Node000006_Node000005" class="edge">
<title>Node6&#45;&gt;Node5</title>
<g id="a_edge18_Node000006_Node000005"><a xlink:title=" ">
<path fill="none" stroke="#63b8ff" d="M793.81,-201.84C920.72,-202.09 1178.4,-196.74 1254,-151 1277.21,-136.96 1292.01,-108.14 1299.65,-89.2"/>
<polygon fill="#63b8ff" stroke="#63b8ff" points="1303.01,-90.21 1303.26,-79.61 1296.46,-87.74 1303.01,-90.21"/>
</a>
</g>
</g>
<!-- Node7 -->
<g id="Node000007" class="node">
<title>Node7</title>
<g id="a_Node000007"><a xlink:title=" ">
<polygon fill="#e0e0e0" stroke="#999999" points="505,-79.5 455,-79.5 455,-60.5 505,-60.5 505,-79.5"/>
<text text-anchor="middle" x="480" y="-67.5" font-family="Helvetica,sans-Serif" font-size="10.00">chrono</text>
</a>
</g>
</g>
<!-- Node6&#45;&gt;Node7 -->
<g id="edge6_Node000006_Node000007" class="edge">
<title>Node6&#45;&gt;Node7</title>
<g id="a_edge6_Node000006_Node000007"><a xlink:title=" ">
<path fill="none" stroke="#63b8ff" d="M650.33,-198.41C527.05,-193.21 285.56,-179.48 260,-151 214.52,-100.33 289.32,-131.91 446,-85 447.88,-84.44 449.8,-83.81 451.72,-83.13"/>
<polygon fill="#63b8ff" stroke="#63b8ff" points="453.08,-86.36 461.18,-79.53 450.59,-79.82 453.08,-86.36"/>
</a>
</g>
</g>
<!-- Node8 -->
<g id="Node000008" class="node">
<title>Node8</title>
<g id="a_Node000008"><a xlink:title=" ">
<polygon fill="#e0e0e0" stroke="#999999" points="1153,-19 1103,-19 1103,0 1153,0 1153,-19"/>
<text text-anchor="middle" x="1128" y="-7" font-family="Helvetica,sans-Serif" font-size="10.00">cstdint</text>
</a>
</g>
</g>
<!-- Node6&#45;&gt;Node8 -->
<g id="edge7_Node000006_Node000008" class="edge">
<title>Node6&#45;&gt;Node8</title>
<g id="a_edge7_Node000006_Node000008"><a xlink:title=" ">
<path fill="none" stroke="#63b8ff" d="M650.06,-198.71C522.8,-193.92 268.78,-180.72 242,-151 233.07,-141.1 234.83,-132.24 242,-121 279.43,-62.33 316.52,-72.04 384,-55 520.82,-20.44 964.6,-12.47 1092.94,-10.86"/>
<polygon fill="#63b8ff" stroke="#63b8ff" points="1093.04,-14.36 1103,-10.74 1092.96,-7.36 1093.04,-14.36"/>
</a>
</g>
</g>
<!-- Node9 -->
<g id="Node000009" class="node">
<title>Node9</title>
<g id="a_Node000009"><a xlink:title=" ">
<polygon fill="#e0e0e0" stroke="#999999" points="1071,-145.5 1021,-145.5 1021,-126.5 1071,-126.5 1071,-145.5"/>
<text text-anchor="middle" x="1046" y="-133.5" font-family="Helvetica,sans-Serif" font-size="10.00">cstring</text>
</a>
</g>
</g>
<!-- Node6&#45;&gt;Node9 -->
<g id="edge8_Node000006_Node000009" class="edge">
<title>Node6&#45;&gt;Node9</title>
<g id="a_edge8_Node000006_Node000009"><a xlink:title=" ">
<path fill="none" stroke="#63b8ff" d="M789.5,-192.48C847.7,-184.34 933.68,-170.44 1007,-151 1009.49,-150.34 1012.06,-149.59 1014.62,-148.79"/>
<polygon fill="#63b8ff" stroke="#63b8ff" points="1015.98,-152.02 1024.34,-145.52 1013.75,-145.38 1015.98,-152.02"/>
</a>
</g>
</g>
<!-- Node10 -->
<g id="Node000010" class="node">
<title>Node10</title>
<g id="a_Node000010"><a xlink:title=" ">
<polygon fill="#e0e0e0" stroke="#999999" points="313,-145.5 269,-145.5 269,-126.5 313,-126.5 313,-145.5"/>
<text text-anchor="middle" x="291" y="-133.5" font-family="Helvetica,sans-Serif" font-size="10.00">ctime</text>
</a>
</g>
</g>
<!-- Node6&#45;&gt;Node10 -->
<g id="edge9_Node000006_Node000010" class="edge">
<title>Node6&#45;&gt;Node10</title>
<g id="a_edge9_Node000006_Node000010"><a xlink:title=" ">
<path fill="none" stroke="#63b8ff" d="M650.28,-198.49C569.23,-194.18 434,-182.51 322,-151 320.32,-150.53 318.61,-149.98 316.91,-149.37"/>
<polygon fill="#63b8ff" stroke="#63b8ff" points="317.97,-146.03 307.39,-145.5 315.33,-152.51 317.97,-146.03"/>
</a>
</g>
</g>
<!-- Node11 -->
<g id="Node000011" class="node">
<title>Node11</title>
<g id="a_Node000011"><a xlink:title=" ">
<polygon fill="#e0e0e0" stroke="#999999" points="1008.5,-79.5 943.5,-79.5 943.5,-60.5 1008.5,-60.5 1008.5,-79.5"/>
<text text-anchor="middle" x="976" y="-67.5" font-family="Helvetica,sans-Serif" font-size="10.00">functional</text>
</a>
</g>
</g>
<!-- Node6&#45;&gt;Node11 -->
<g id="edge10_Node000006_Node000011" class="edge">
<title>Node6&#45;&gt;Node11</title>
<g id="a_edge10_Node000006_Node000011"><a xlink:title=" ">
<path fill="none" stroke="#63b8ff" d="M793.64,-199.39C838.7,-194.99 895.72,-182.8 936,-151 955.67,-135.47 966.44,-107.72 971.71,-89.33"/>
<polygon fill="#63b8ff" stroke="#63b8ff" points="975.13,-90.08 974.26,-79.52 968.36,-88.32 975.13,-90.08"/>
</a>
</g>
</g>
<!-- Node12 -->
<g id="Node000012" class="node">
<title>Node12</title>
<g id="a_Node000012"><a xlink:title=" ">
<polygon fill="#e0e0e0" stroke="#999999" points="387,-145.5 331,-145.5 331,-126.5 387,-126.5 387,-145.5"/>
<text text-anchor="middle" x="359" y="-133.5" font-family="Helvetica,sans-Serif" font-size="10.00">iomanip</text>
</a>
</g>
</g>
<!-- Node6&#45;&gt;Node12 -->
<g id="edge11_Node000006_Node000012" class="edge">
<title>Node6&#45;&gt;Node12</title>
<g id="a_edge11_Node000006_Node000012"><a xlink:title=" ">
<path fill="none" stroke="#63b8ff" d="M650.21,-194.36C583.57,-187.17 481.98,-173.59 396,-151 393.7,-150.4 391.35,-149.7 389,-148.95"/>
<polygon fill="#63b8ff" stroke="#63b8ff" points="390.09,-145.62 379.49,-145.63 387.78,-152.23 390.09,-145.62"/>
</a>
</g>
</g>
<!-- Node13 -->
<g id="Node000013" class="node">
<title>Node13</title>
<g id="a_Node000013"><a xlink:title=" ">
<polygon fill="#e0e0e0" stroke="#999999" points="465,-145.5 405,-145.5 405,-126.5 465,-126.5 465,-145.5"/>
<text text-anchor="middle" x="435" y="-133.5" font-family="Helvetica,sans-Serif" font-size="10.00">iostream</text>
</a>
</g>
</g>
<!-- Node6&#45;&gt;Node13 -->
<g id="edge12_Node000006_Node000013" class="edge">
<title>Node6&#45;&gt;Node13</title>
<g id="a_edge12_Node000006_Node000013"><a xlink:title=" ">
<path fill="none" stroke="#63b8ff" d="M668.25,-192.49C617.66,-183.94 540,-169.39 474,-151 471.57,-150.32 469.08,-149.57 466.59,-148.78"/>
<polygon fill="#63b8ff" stroke="#63b8ff" points="467.69,-145.45 457.09,-145.56 465.44,-152.08 467.69,-145.45"/>
</a>
</g>
</g>
<!-- Node14 -->
<g id="Node000014" class="node">
<title>Node14</title>
<g id="a_Node000014"><a xlink:title=" ">
<polygon fill="#e0e0e0" stroke="#999999" points="539,-145.5 483,-145.5 483,-126.5 539,-126.5 539,-145.5"/>
<text text-anchor="middle" x="511" y="-133.5" font-family="Helvetica,sans-Serif" font-size="10.00">sstream</text>
</a>
</g>
</g>
<!-- Node6&#45;&gt;Node14 -->
<g id="edge13_Node000006_Node000014" class="edge">
<title>Node6&#45;&gt;Node14</title>
<g id="a_edge13_Node000006_Node000014"><a xlink:title=" ">
<path fill="none" stroke="#63b8ff" d="M691.99,-192.46C658.13,-182.74 601.45,-166.24 553,-151 550.71,-150.28 548.36,-149.53 545.98,-148.76"/>
<polygon fill="#63b8ff" stroke="#63b8ff" points="546.87,-145.37 536.27,-145.58 544.69,-152.02 546.87,-145.37"/>
</a>
</g>
</g>
<!-- Node15 -->
<g id="Node000015" class="node">
<title>Node15</title>
<g id="a_Node000015"><a xlink:title=" ">
<polygon fill="#e0e0e0" stroke="#999999" points="1390.5,-19 1325.5,-19 1325.5,0 1390.5,0 1390.5,-19"/>
<text text-anchor="middle" x="1358" y="-7" font-family="Helvetica,sans-Serif" font-size="10.00">stdexcept</text>
</a>
</g>
</g>
<!-- Node6&#45;&gt;Node15 -->
<g id="edge14_Node000006_Node000015" class="edge">
<title>Node6&#45;&gt;Node15</title>
<g id="a_edge14_Node000006_Node000015"><a xlink:title=" ">
<path fill="none" stroke="#63b8ff" d="M793.61,-201.2C924.95,-200.51 1198.56,-193.78 1282,-151 1316.49,-133.32 1321.07,-119.36 1339,-85 1348.24,-67.29 1353.17,-44.82 1355.67,-29.21"/>
<polygon fill="#63b8ff" stroke="#63b8ff" points="1359.15,-29.62 1357.09,-19.23 1352.22,-28.64 1359.15,-29.62"/>
</a>
</g>
</g>
<!-- Node16 -->
<g id="Node000016" class="node">
<title>Node16</title>
<g id="a_Node000016"><a xlink:title=" ">
<polygon fill="#e0e0e0" stroke="#999999" points="800.5,-145.5 755.5,-145.5 755.5,-126.5 800.5,-126.5 800.5,-145.5"/>
<text text-anchor="middle" x="778" y="-133.5" font-family="Helvetica,sans-Serif" font-size="10.00">utility</text>
</a>
</g>
</g>
<!-- Node6&#45;&gt;Node16 -->
<g id="edge17_Node000006_Node000016" class="edge">
<title>Node6&#45;&gt;Node16</title>
<g id="a_edge17_Node000006_Node000016"><a xlink:title=" ">
<path fill="none" stroke="#63b8ff" d="M729.55,-192.37C738.19,-182.5 752.53,-166.11 763.37,-153.72"/>
<polygon fill="#63b8ff" stroke="#63b8ff" points="766.26,-155.74 770.21,-145.91 760.99,-151.13 766.26,-155.74"/>
</a>
</g>
</g>
<!-- Node17 -->
<g id="Node000017" class="node">
<title>Node17</title>
<g id="a_Node000017"><a xlink:href="platform_8hpp.html" target="_top" xlink:title=" ">
<polygon fill="white" stroke="#666666" points="737,-145.5 595,-145.5 595,-126.5 737,-126.5 737,-145.5"/>
<text text-anchor="middle" x="666" y="-133.5" font-family="Helvetica,sans-Serif" font-size="10.00">unilink/base/platform.hpp</text>
</a>
</g>
</g>
<!-- Node6&#45;&gt;Node17 -->
<g id="edge19_Node000006_Node000017" class="edge">
<title>Node6&#45;&gt;Node17</title>
<g id="a_edge19_Node000006_Node000017"><a xlink:title=" ">
<path fill="none" stroke="#63b8ff" d="M714.45,-192.37C705.81,-182.5 691.47,-166.11 680.63,-153.72"/>
<polygon fill="#63b8ff" stroke="#63b8ff" points="683.01,-151.13 673.79,-145.91 677.74,-155.74 683.01,-151.13"/>
</a>
</g>
</g>
<!-- Node19 -->
<g id="Node000019" class="node">
<title>Node19</title>
<g id="a_Node000019"><a xlink:href="logger_8hpp.html" target="_top" xlink:title=" ">
<polygon fill="white" stroke="#666666" points="927,-151 819,-151 819,-121 927,-121 927,-151"/>
<text text-anchor="start" x="827" y="-139" font-family="Helvetica,sans-Serif" font-size="10.00">unilink/diagnostics</text>
<text text-anchor="middle" x="873" y="-128" font-family="Helvetica,sans-Serif" font-size="10.00">/logger.hpp</text>
</a>
</g>
</g>
<!-- Node6&#45;&gt;Node19 -->
<g id="edge22_Node000006_Node000019" class="edge">
<title>Node6&#45;&gt;Node19</title>
<g id="a_edge22_Node000006_Node000019"><a xlink:title=" ">
<path fill="none" stroke="#63b8ff" d="M742.36,-192.37C764.79,-182.87 801.47,-167.32 830.27,-155.11"/>
<polygon fill="#63b8ff" stroke="#63b8ff" points="831.85,-158.24 839.7,-151.12 829.12,-151.8 831.85,-158.24"/>
</a>
</g>
</g>
<!-- Node17&#45;&gt;Node3 -->
<g id="edge20_Node000017_Node000003" class="edge">
<title>Node17&#45;&gt;Node3</title>
<g id="a_edge20_Node000017_Node000003"><a xlink:title=" ">
<path fill="none" stroke="#63b8ff" d="M615.41,-126.49C570.3,-118.2 502.81,-104.07 446,-85 444.6,-84.53 443.18,-84.02 441.75,-83.48"/>
<polygon fill="#63b8ff" stroke="#63b8ff" points="443.04,-80.22 432.46,-79.62 440.35,-86.69 443.04,-80.22"/>
</a>
</g>
</g>
<!-- Node18 -->
<g id="Node000018" class="node">
<title>Node18</title>
<g id="a_Node000018"><a xlink:href="visibility_8hpp.html" target="_top" xlink:title=" ">
<polygon fill="white" stroke="#666666" points="601,-79.5 523,-79.5 523,-60.5 601,-60.5 601,-79.5"/>
<text text-anchor="middle" x="562" y="-67.5" font-family="Helvetica,sans-Serif" font-size="10.00">visibility.hpp</text>
</a>
</g>
</g>
<!-- Node17&#45;&gt;Node18 -->
<g id="edge21_Node000017_Node000018" class="edge">
<title>Node17&#45;&gt;Node18</title>
<g id="a_edge21_Node000017_Node000018"><a xlink:title=" ">
<path fill="none" stroke="#63b8ff" d="M651.97,-126.37C634.76,-115.78 605.34,-97.67 584.85,-85.06"/>
<polygon fill="#63b8ff" stroke="#63b8ff" points="586.49,-81.96 576.14,-79.7 582.82,-87.92 586.49,-81.96"/>
</a>
</g>
</g>
<!-- Node19&#45;&gt;Node3 -->
<g id="edge29_Node000019_Node000003" class="edge">
<title>Node19&#45;&gt;Node3</title>
<g id="a_edge29_Node000019_Node000003"><a xlink:title=" ">
<path fill="none" stroke="#63b8ff" d="M818.78,-122.52C815.82,-121.97 812.88,-121.46 810,-121 649.47,-95.32 603.05,-127.01 446,-85 444.31,-84.55 442.6,-84.02 440.9,-83.42"/>
<polygon fill="#63b8ff" stroke="#63b8ff" points="441.95,-80.07 431.36,-79.59 439.33,-86.57 441.95,-80.07"/>
</a>
</g>
</g>
<!-- Node19&#45;&gt;Node4 -->
<g id="edge30_Node000019_Node000004" class="edge">
<title>Node19&#45;&gt;Node4</title>
<g id="a_edge30_Node000019_Node000004"><a xlink:title=" ">
<path fill="none" stroke="#63b8ff" d="M914.7,-120.95C948.6,-109.53 995.91,-93.6 1027.9,-82.82"/>
<polygon fill="#63b8ff" stroke="#63b8ff" points="1029.35,-86.03 1037.71,-79.52 1027.12,-79.39 1029.35,-86.03"/>
</a>
</g>
</g>
<!-- Node19&#45;&gt;Node5 -->
<g id="edge31_Node000019_Node000005" class="edge">
<title>Node19&#45;&gt;Node5</title>
<g id="a_edge31_Node000019_Node000005"><a xlink:title=" ">
<path fill="none" stroke="#63b8ff" d="M927.12,-128.51C998.02,-119.78 1126.12,-103.24 1235,-85 1247.27,-82.95 1260.66,-80.39 1272.48,-78.02"/>
<polygon fill="#63b8ff" stroke="#63b8ff" points="1273.29,-81.43 1282.4,-76.01 1271.9,-74.57 1273.29,-81.43"/>
</a>
</g>
</g>
<!-- Node19&#45;&gt;Node7 -->
<g id="edge24_Node000019_Node000007" class="edge">
<title>Node19&#45;&gt;Node7</title>
<g id="a_edge24_Node000019_Node000007"><a xlink:title=" ">
<path fill="none" stroke="#63b8ff" d="M818.77,-122.6C815.81,-122.03 812.87,-121.49 810,-121 679.38,-98.6 642.21,-118.53 514,-85 512.05,-84.49 510.07,-83.9 508.09,-83.24"/>
<polygon fill="#63b8ff" stroke="#63b8ff" points="508.99,-79.84 498.39,-79.63 506.54,-86.4 508.99,-79.84"/>
</a>
</g>
</g>
<!-- Node19&#45;&gt;Node11 -->
<g id="edge26_Node000019_Node000011" class="edge">
<title>Node19&#45;&gt;Node11</title>
<g id="a_edge26_Node000019_Node000011"><a xlink:title=" ">
<path fill="none" stroke="#63b8ff" d="M895.6,-120.95C912.79,-110.27 936.33,-95.65 953.49,-84.98"/>
<polygon fill="#63b8ff" stroke="#63b8ff" points="955.65,-87.77 962.29,-79.52 951.95,-81.82 955.65,-87.77"/>
</a>
</g>
</g>
<!-- Node19&#45;&gt;Node18 -->
<g id="edge32_Node000019_Node000018" class="edge">
<title>Node19&#45;&gt;Node18</title>
<g id="a_edge32_Node000019_Node000018"><a xlink:title=" ">
<path fill="none" stroke="#63b8ff" d="M818.73,-122.8C815.78,-122.18 812.86,-121.58 810,-121 721.89,-103.25 698.54,-105.37 611,-85 607.38,-84.16 603.64,-83.22 599.9,-82.23"/>
<polygon fill="#63b8ff" stroke="#63b8ff" points="600.69,-78.82 590.12,-79.55 598.84,-85.57 600.69,-78.82"/>
</a>
</g>
</g>
<!-- Node20 -->
<g id="Node000020" class="node">
<title>Node20</title>
<g id="a_Node000020"><a xlink:title=" ">
<polygon fill="#e0e0e0" stroke="#999999" points="781,-79.5 731,-79.5 731,-60.5 781,-60.5 781,-79.5"/>
<text text-anchor="middle" x="756" y="-67.5" font-family="Helvetica,sans-Serif" font-size="10.00">atomic</text>
</a>
</g>
</g>
<!-- Node19&#45;&gt;Node20 -->
<g id="edge23_Node000019_Node000020" class="edge">
<title>Node19&#45;&gt;Node20</title>
<g id="a_edge23_Node000019_Node000020"><a xlink:title=" ">
<path fill="none" stroke="#63b8ff" d="M847.32,-120.95C827.44,-110.08 800.07,-95.11 780.49,-84.4"/>
<polygon fill="#63b8ff" stroke="#63b8ff" points="782.02,-81.25 771.57,-79.52 778.66,-87.39 782.02,-81.25"/>
</a>
</g>
</g>
<!-- Node21 -->
<g id="Node000021" class="node">
<title>Node21</title>
<g id="a_Node000021"><a xlink:title=" ">
<polygon fill="#e0e0e0" stroke="#999999" points="849,-79.5 799,-79.5 799,-60.5 849,-60.5 849,-79.5"/>
<text text-anchor="middle" x="824" y="-67.5" font-family="Helvetica,sans-Serif" font-size="10.00">format</text>
</a>
</g>
</g>
<!-- Node19&#45;&gt;Node21 -->
<g id="edge25_Node000019_Node000021" class="edge">
<title>Node19&#45;&gt;Node21</title>
<g id="a_edge25_Node000019_Node000021"><a xlink:title=" ">
<path fill="none" stroke="#63b8ff" d="M862.13,-120.8C854.71,-111.11 844.86,-98.24 837.02,-88.01"/>
<polygon fill="#63b8ff" stroke="#63b8ff" points="839.63,-85.66 830.77,-79.84 834.07,-89.91 839.63,-85.66"/>
</a>
</g>
</g>
<!-- Node22 -->
<g id="Node000022" class="node">
<title>Node22</title>
<g id="a_Node000022"><a xlink:title=" ">
<polygon fill="#e0e0e0" stroke="#999999" points="925,-79.5 867,-79.5 867,-60.5 925,-60.5 925,-79.5"/>
<text text-anchor="middle" x="896" y="-67.5" font-family="Helvetica,sans-Serif" font-size="10.00">memory</text>
</a>
</g>
</g>
<!-- Node19&#45;&gt;Node22 -->
<g id="edge27_Node000019_Node000022" class="edge">
<title>Node19&#45;&gt;Node22</title>
<g id="a_edge27_Node000019_Node000022"><a xlink:title=" ">
<path fill="none" stroke="#63b8ff" d="M878.1,-120.8C881.44,-111.5 885.84,-99.27 889.44,-89.26"/>
<polygon fill="#63b8ff" stroke="#63b8ff" points="892.73,-90.44 892.82,-79.84 886.15,-88.07 892.73,-90.44"/>
</a>
</g>
</g>
<!-- Node23 -->
<g id="Node000023" class="node">
<title>Node23</title>
<g id="a_Node000023"><a xlink:title=" ">
<polygon fill="#e0e0e0" stroke="#999999" points="712.5,-79.5 619.5,-79.5 619.5,-60.5 712.5,-60.5 712.5,-79.5"/>
<text text-anchor="middle" x="666" y="-67.5" font-family="Helvetica,sans-Serif" font-size="10.00">source_location</text>
</a>
</g>
</g>
<!-- Node19&#45;&gt;Node23 -->
<g id="edge28_Node000019_Node000023" class="edge">
<title>Node19&#45;&gt;Node23</title>
<g id="a_edge28_Node000019_Node000023"><a xlink:title=" ">
<path fill="none" stroke="#63b8ff" d="M827.57,-120.95C790.31,-109.43 738.2,-93.32 703.34,-82.54"/>
<polygon fill="#63b8ff" stroke="#63b8ff" points="704.14,-79.13 693.55,-79.52 702.07,-85.82 704.14,-79.13"/>
</a>
</g>
</g>
<!-- Node24&#45;&gt;Node3 -->
<g id="edge34_Node000024_Node000003" class="edge">
<title>Node24&#45;&gt;Node3</title>
<g id="a_edge34_Node000024_Node000003"><a xlink:title=" ">
<path fill="none" stroke="#63b8ff" d="M132.23,-186.98C142.37,-168.79 162.58,-137.45 189,-121 250.24,-82.87 336.72,-73.63 382.93,-71.51"/>
<polygon fill="#63b8ff" stroke="#63b8ff" points="383.11,-75.01 392.97,-71.14 382.84,-68.01 383.11,-75.01"/>
</a>
</g>
</g>
<!-- Node25&#45;&gt;Node3 -->
<g id="edge40_Node000025_Node000003" class="edge">
<title>Node25&#45;&gt;Node3</title>
<g id="a_edge40_Node000025_Node000003"><a xlink:title=" ">
<path fill="none" stroke="#63b8ff" d="M1126.94,-126.41C1111.67,-124.4 1095.25,-122.44 1080,-121 799.01,-94.5 720.11,-152.21 446,-85 444.27,-84.57 442.51,-84.05 440.76,-83.47"/>
<polygon fill="#63b8ff" stroke="#63b8ff" points="441.59,-80.03 431.01,-79.58 439,-86.53 441.59,-80.03"/>
</a>
</g>
</g>
<!-- Node25&#45;&gt;Node4 -->
<g id="edge41_Node000025_Node000004" class="edge">
<title>Node25&#45;&gt;Node4</title>
<g id="a_edge41_Node000025_Node000004"><a xlink:title=" ">
<path fill="none" stroke="#63b8ff" d="M1159.01,-120.95C1138.01,-110.03 1109.07,-94.97 1088.47,-84.25"/>
<polygon fill="#63b8ff" stroke="#63b8ff" points="1089.86,-81.03 1079.37,-79.52 1086.62,-87.24 1089.86,-81.03"/>
</a>
</g>
</g>
<!-- Node25&#45;&gt;Node5 -->
<g id="edge43_Node000025_Node000005" class="edge">
<title>Node25&#45;&gt;Node5</title>
<g id="a_edge43_Node000025_Node000005"><a xlink:title=" ">
<path fill="none" stroke="#63b8ff" d="M1212.33,-120.95C1232.82,-110.03 1261.06,-94.97 1281.16,-84.25"/>
<polygon fill="#63b8ff" stroke="#63b8ff" points="1282.85,-87.31 1290.03,-79.52 1279.56,-81.14 1282.85,-87.31"/>
</a>
</g>
</g>
<!-- Node25&#45;&gt;Node8 -->
<g id="edge36_Node000025_Node000008" class="edge">
<title>Node25&#45;&gt;Node8</title>
<g id="a_edge36_Node000025_Node000008"><a xlink:title=" ">
<path fill="none" stroke="#63b8ff" d="M1172.72,-120.69C1164.54,-111.2 1154.43,-98.12 1148,-85 1139.17,-67 1133.83,-44.59 1130.92,-29.07"/>
<polygon fill="#63b8ff" stroke="#63b8ff" points="1134.35,-28.41 1129.21,-19.15 1127.46,-29.6 1134.35,-28.41"/>
</a>
</g>
</g>
<!-- Node25&#45;&gt;Node11 -->
<g id="edge37_Node000025_Node000011" class="edge">
<title>Node25&#45;&gt;Node11</title>
<g id="a_edge37_Node000025_Node000011"><a xlink:title=" ">
<path fill="none" stroke="#63b8ff" d="M1137.35,-120.97C1103.74,-111.17 1058.05,-97.63 1018,-85 1015.71,-84.28 1013.36,-83.52 1010.99,-82.76"/>
<polygon fill="#63b8ff" stroke="#63b8ff" points="1011.87,-79.36 1001.28,-79.57 1009.69,-86.01 1011.87,-79.36"/>
</a>
</g>
</g>
<!-- Node25&#45;&gt;Node15 -->
<g id="edge39_Node000025_Node000015" class="edge">
<title>Node25&#45;&gt;Node15</title>
<g id="a_edge39_Node000025_Node000015"><a xlink:title=" ">
<path fill="none" stroke="#63b8ff" d="M1199.4,-120.81C1215.9,-103.84 1245.28,-75.18 1274,-55 1291.38,-42.79 1312.53,-31.6 1329.25,-23.5"/>
<polygon fill="#63b8ff" stroke="#63b8ff" points="1330.99,-26.55 1338.52,-19.11 1327.99,-20.23 1330.99,-26.55"/>
</a>
</g>
</g>
<!-- Node25&#45;&gt;Node18 -->
<g id="edge44_Node000025_Node000018" class="edge">
<title>Node25&#45;&gt;Node18</title>
<g id="a_edge44_Node000025_Node000018"><a xlink:title=" ">
<path fill="none" stroke="#63b8ff" d="M1126.92,-126.61C1111.65,-124.61 1095.23,-122.59 1080,-121 872.07,-99.31 816.77,-121.9 611,-85 606.79,-84.24 602.42,-83.27 598.1,-82.2"/>
<polygon fill="#63b8ff" stroke="#63b8ff" points="598.78,-78.76 588.22,-79.54 596.97,-85.52 598.78,-78.76"/>
</a>
</g>
</g>
<!-- Node25&#45;&gt;Node22 -->
<g id="edge38_Node000025_Node000022" class="edge">
<title>Node25&#45;&gt;Node22</title>
<g id="a_edge38_Node000025_Node000022"><a xlink:title=" ">
<path fill="none" stroke="#63b8ff" d="M1126.84,-125.76C1075.61,-117.16 999.76,-102.97 935,-85 932.57,-84.33 930.08,-83.58 927.59,-82.78"/>
<polygon fill="#63b8ff" stroke="#63b8ff" points="928.69,-79.46 918.09,-79.57 926.44,-86.09 928.69,-79.46"/>
</a>
</g>
</g>
<!-- Node26 -->
<g id="Node000026" class="node">
<title>Node26</title>
<g id="a_Node000026"><a xlink:title=" ">
<polygon fill="#e0e0e0" stroke="#999999" points="1225.5,-79.5 1156.5,-79.5 1156.5,-60.5 1225.5,-60.5 1225.5,-79.5"/>
<text text-anchor="middle" x="1191" y="-67.5" font-family="Helvetica,sans-Serif" font-size="10.00">type_traits</text>
</a>
</g>
</g>
<!-- Node25&#45;&gt;Node26 -->
<g id="edge42_Node000025_Node000026" class="edge">
<title>Node25&#45;&gt;Node26</title>
<g id="a_edge42_Node000025_Node000026"><a xlink:title=" ">
<path fill="none" stroke="#63b8ff" d="M1187.11,-120.8C1187.82,-111.7 1188.75,-99.79 1189.52,-89.9"/>
<polygon fill="#63b8ff" stroke="#63b8ff" points="1193.02,-90.09 1190.31,-79.84 1186.04,-89.54 1193.02,-90.09"/>
</a>
</g>
</g>
<!-- Node25&#45;&gt;Node27 -->
<g id="edge45_Node000025_Node000027" class="edge">
<title>Node25&#45;&gt;Node27</title>
<g id="a_edge45_Node000025_Node000027"><a xlink:title=" ">
<path fill="none" stroke="#63b8ff" d="M1242.84,-120.95C1282.82,-111.08 1336.46,-97.82 1378.44,-87.45"/>
<polygon fill="#63b8ff" stroke="#63b8ff" points="1379.43,-90.81 1388.29,-85.01 1377.75,-84.01 1379.43,-90.81"/>
</a>
</g>
</g>
<!-- Node27&#45;&gt;Node8 -->
<g id="edge46_Node000027_Node000008" class="edge">
<title>Node27&#45;&gt;Node8</title>
<g id="a_edge46_Node000027_Node000008"><a xlink:title=" ">
<path fill="none" stroke="#63b8ff" d="M1385.75,-58.07C1320.23,-45.97 1216.84,-26.9 1163.09,-16.98"/>
<polygon fill="#63b8ff" stroke="#63b8ff" points="1163.49,-13.49 1153.02,-15.12 1162.22,-20.37 1163.49,-13.49"/>
</a>
</g>
</g>
<!-- Node27&#45;&gt;Node15 -->
<g id="edge48_Node000027_Node000015" class="edge">
<title>Node27&#45;&gt;Node15</title>
<g id="a_edge48_Node000027_Node000015"><a xlink:title=" ">
<path fill="none" stroke="#63b8ff" d="M1423.94,-54.84C1410.46,-45.77 1393.01,-34.04 1379.45,-24.92"/>
<polygon fill="#63b8ff" stroke="#63b8ff" points="1381.03,-21.77 1370.78,-19.09 1377.13,-27.58 1381.03,-21.77"/>
</a>
</g>
</g>
<!-- Node28 -->
<g id="Node000028" class="node">
<title>Node28</title>
<g id="a_Node000028"><a xlink:title=" ">
<polygon fill="#e0e0e0" stroke="#999999" points="1465,-19 1425,-19 1425,0 1465,0 1465,-19"/>
<text text-anchor="middle" x="1445" y="-7" font-family="Helvetica,sans-Serif" font-size="10.00">span</text>
</a>
</g>
</g>
<!-- Node27&#45;&gt;Node28 -->
<g id="edge47_Node000027_Node000028" class="edge">
<title>Node27&#45;&gt;Node28</title>
<g id="a_edge47_Node000027_Node000028"><a xlink:title=" ">
<path fill="none" stroke="#63b8ff" d="M1445,-54.84C1445,-47.21 1445,-37.7 1445,-29.45"/>
<polygon fill="#63b8ff" stroke="#63b8ff" points="1448.5,-29.27 1445,-19.27 1441.5,-29.27 1448.5,-29.27"/>
</a>
</g>
</g>
</g>
</svg>

<g id="navigator" transform="translate(0 0)" fill="#404254">
  <rect fill="#f2f5e9" fill-opacity="0.5" stroke="#606060" stroke-width=".5" x="0" y="0" width="60" height="60"/>
  <use id="zoomplus" xlink:href="#zoomPlus" x="17" y="9" onmousedown="handleZoom(evt,'in')"/>
  <use id="zoomminus" xlink:href="#zoomMin" x="42" y="9" onmousedown="handleZoom(evt,'out')"/>
  <use id="reset" xlink:href="#resetDef" x="30" y="36" onmousedown="handleReset()"/>
   <use id="arrowup" xlink:href="#arrowUp" x="0" y="0" onmousedown="handlePan(0,-1)"/>
  <use id="arrowright" xlink:href="#arrowRight" x="0" y="0" onmousedown="handlePan(1,0)"/>
  <use id="arrowdown" xlink:href="#arrowDown" x="0" y="0" onmousedown="handlePan(0,1)"/>
  <use id="arrowleft" xlink:href="#arrowLeft" x="0" y="0" onmousedown="handlePan(-1,0)"/>
</g>
<svg viewBox="0 0 15 15" width="100%" height="30px" preserveAspectRatio="xMaxYMin meet">
 <g id="arrow_out" transform="scale(0.3 0.3)">
  <a xlink:href="context_8hpp__incl_org.svg" target="_base">
   <rect id="button" ry="5" rx="5" y="6" x="6" height="38" width="38"
        fill="#f2f5e9" fill-opacity="0.5" stroke="#606060" stroke-width="1.0"/>
   <path id="arrow"
     d="M 11.500037,31.436501 C 11.940474,20.09759 22.043105,11.32322 32.158766,21.979434 L 37.068811,17.246167 C 37.068811,17.246167 37.088388,32 37.088388,32 L 22.160133,31.978069 C 22.160133,31.978069 26.997745,27.140456 26.997745,27.140456 C 18.528582,18.264221 13.291696,25.230495 11.500037,31.436501 z"
     style="fill:#404040;"/>
  </a>
 </g>
</svg>

<style type='text/css'>
<![CDATA[
[data-mouse-over-selected='false'] { opacity: 0.7; }
[data-mouse-over-selected='true']  { opacity: 1.0; }
]]>
</style>
<script type="application/ecmascript"><![CDATA[
document.addEventListener('DOMContentLoaded', (event) => {
  highlightEdges();
  highlightAdjacentNodes();
});
]]></script>
</svg>
