<?xml version="1.0" encoding="UTF-8" standalone="no"?>
<!DOCTYPE svg PUBLIC "-//W3C//DTD SVG 1.1//EN"
 "http://www.w3.org/Graphics/SVG/1.1/DTD/svg11.dtd">
<!-- Generated by graphviz version 2.43.0 (0)
 -->
<!-- Title: unilink/wrapper/context.hpp Pages: 1 -->
<!--zoomable 280 -->

<svg id="main" version="1.1" xmlns="http://www.w3.org/2000/svg" xmlns:xlink="http://www.w3.org/1999/xlink" xml:space="preserve" onload="init(evt)">
<style type="text/css"><![CDATA[
.node, .edge {opacity: 0.7;}
.node.selected, .edge.selected {opacity: 1;}
.edge:hover path { stroke: red; }
.edge:hover polygon { stroke: red; fill: red; }
]]></style>

<defs>
  <circle id="rim" cx="0" cy="0" r="7"/>
  <circle id="rim2" cx="0" cy="0" r="3.5"/>
  <g id="zoomPlus">
    <use xlink:href="#rim" fill="#404040"><set attributeName="fill" to="#808080" begin="zoomplus.mouseover" end="zoomplus.mouseout"/></use>
    <path d="M-4,0h8M0,-4v8" fill="none" stroke="white" stroke-width="1.5" pointer-events="none"/>
  </g>
  <g id="zoomMin">
    <use xlink:href="#rim" fill="#404040"><set attributeName="fill" to="#808080" begin="zoomminus.mouseover" end="zoomminus.mouseout"/></use>
    <path d="M-4,0h8" fill="none" stroke="white" stroke-width="1.5" pointer-events="none"/>
  </g>
  <g id="arrowUp" transform="translate(30 24)">
    <use xlink:href="#rim"/>
    <path pointer-events="none" fill="none" stroke="white" stroke-width="1.5" d="M0,-3.0v7 M-2.5,-0.5L0,-3.0L2.5,-0.5"/>
  </g>
  <g id="arrowRight" transform="rotate(90) translate(36 -43)">
    <use xlink:href="#rim"/>
    <path pointer-events="none" fill="none" stroke="white" stroke-width="1.5" d="M0,-3.0v7 M-2.5,-0.5L0,-3.0L2.5,-0.5"/>
  </g>
  <g id="arrowDown" transform="rotate(180) translate(-30 -48)">
    <use xlink:href="#rim"/>
    <path pointer-events="none" fill="none" stroke="white" stroke-width="1.5" d="M0,-3.0v7 M-2.5,-0.5L0,-3.0L2.5,-0.5"/>
  </g>
  <g id="arrowLeft" transform="rotate(270) translate(-36 17)">
    <use xlink:href="#rim"/>
    <path pointer-events="none" fill="none" stroke="white" stroke-width="1.5" d="M0,-3.0v7 M-2.5,-0.5L0,-3.0L2.5,-0.5"/>
  </g>
  <g id="resetDef">
    <use xlink:href="#rim2" fill="#404040"><set attributeName="fill" to="#808080" begin="reset.mouseover" end="reset.mouseout"/></use>
  </g>
</defs>
<script type="application/ecmascript">
var viewWidth = 1531;
var viewHeight = 280;
var sectionId = 'dynsection-0';
</script>
<script type="application/ecmascript" xlink:href="svg.min.js"/>
<svg id="graph" class="graph">
<g id="viewport">
<title>unilink/wrapper/context.hpp</title>
<!-- Node1 -->
<g id="Node000001" class="node">
<title>Node1</title>
<g id="a_Node000001"><a xlink:title=" ">
<polygon fill="#999999" stroke="#666666" points="1051.5,-272 898.5,-272 898.5,-253 1051.5,-253 1051.5,-272"/>
<text text-anchor="middle" x="975" y="-260" font-family="Helvetica,sans-Serif" font-size="10.00">unilink/wrapper/context.hpp</text>
</a>
</g>
</g>
<!-- Node2 -->
<g id="Node000002" class="node">
<title>Node2</title>
<g id="a_Node000002"><a xlink:title=" ">
<polygon fill="#e0e0e0" stroke="#999999" points="56,-211.5 0,-211.5 0,-192.5 56,-192.5 56,-211.5"/>
<text text-anchor="middle" x="28" y="-199.5" font-family="Helvetica,sans-Serif" font-size="10.00">optional</text>
</a>
</g>
</g>
<!-- Node1&#45;&gt;Node2 -->
<g id="edge1_Node000001_Node000002" class="edge">
<title>Node1&#45;&gt;Node2</title>
<g id="a_edge1_Node000001_Node000002"><a xlink:title=" ">
<path fill="none" stroke="#63b8ff" d="M898.21,-260.82C708.81,-258.65 223.24,-249.95 65,-217 62.32,-216.44 59.58,-215.72 56.85,-214.89"/>
<polygon fill="#63b8ff" stroke="#63b8ff" points="57.84,-211.53 47.24,-211.58 55.56,-218.15 57.84,-211.53"/>
</a>
</g>
</g>
<!-- Node3 -->
<g id="Node000003" class="node">
<title>Node3</title>
<g id="a_Node000003"><a xlink:title=" ">
<polygon fill="#e0e0e0" stroke="#999999" points="482,-79.5 438,-79.5 438,-60.5 482,-60.5 482,-79.5"/>
<text text-anchor="middle" x="460" y="-67.5" font-family="Helvetica,sans-Serif" font-size="10.00">string</text>
</a>
</g>
</g>
<!-- Node1&#45;&gt;Node3 -->
<g id="edge2_Node000001_Node000003" class="edge">
<title>Node1&#45;&gt;Node3</title>
<g id="a_edge2_Node000001_Node000003"><a xlink:title=" ">
<path fill="none" stroke="#63b8ff" d="M898.31,-262.47C722.81,-262.88 300.31,-253.02 212,-151 151.15,-80.7 347.84,-71.71 427.78,-70.9"/>
<polygon fill="#63b8ff" stroke="#63b8ff" points="427.83,-74.4 437.81,-70.84 427.78,-67.4 427.83,-74.4"/>
</a>
</g>
</g>
<!-- Node4 -->
<g id="Node000004" class="node">
<title>Node4</title>
<g id="a_Node000004"><a xlink:title=" ">
<polygon fill="#e0e0e0" stroke="#999999" points="1163.5,-79.5 1090.5,-79.5 1090.5,-60.5 1163.5,-60.5 1163.5,-79.5"/>
<text text-anchor="middle" x="1127" y="-67.5" font-family="Helvetica,sans-Serif" font-size="10.00">string_view</text>
</a>
</g>
</g>
<!-- Node1&#45;&gt;Node4 -->
<g id="edge3_Node000001_Node000004" class="edge">
<title>Node1&#45;&gt;Node4</title>
<g id="a_edge3_Node000001_Node000004"><a xlink:title=" ">
<path fill="none" stroke="#63b8ff" d="M988.6,-252.86C1013.85,-236.16 1068.21,-197.01 1099,-151 1111.76,-131.94 1119.36,-106.43 1123.35,-89.4"/>
<polygon fill="#63b8ff" stroke="#63b8ff" points="1126.79,-90.09 1125.48,-79.58 1119.94,-88.61 1126.79,-90.09"/>
</a>
</g>
</g>
<!-- Node5 -->
<g id="Node000005" class="node">
<title>Node5</title>
<g id="a_Node000005"><a xlink:title=" ">
<polygon fill="#e0e0e0" stroke="#999999" points="1305.5,-79.5 1258.5,-79.5 1258.5,-60.5 1305.5,-60.5 1305.5,-79.5"/>
<text text-anchor="middle" x="1282" y="-67.5" font-family="Helvetica,sans-Serif" font-size="10.00">vector</text>
</a>
</g>
</g>
<!-- Node1&#45;&gt;Node5 -->
<g id="edge4_Node000001_Node000005" class="edge">
<title>Node1&#45;&gt;Node5</title>
<g id="a_edge4_Node000001_Node000005"><a xlink:title=" ">
<path fill="none" stroke="#63b8ff" d="M1022.58,-252.96C1105.68,-236.91 1271.26,-199.45 1301,-151 1312.86,-131.68 1302.69,-105.54 1293.26,-88.48"/>
<polygon fill="#63b8ff" stroke="#63b8ff" points="1296.1,-86.4 1287.97,-79.6 1290.08,-89.98 1296.1,-86.4"/>
</a>
</g>
</g>
<!-- Node6 -->
<g id="Node000006" class="node">
<title>Node6</title>
<g id="a_Node000006"><a xlink:href="common_8hpp.html" target="_top" xlink:title=" ">
<polygon fill="white" stroke="#666666" points="866.5,-211.5 723.5,-211.5 723.5,-192.5 866.5,-192.5 866.5,-211.5"/>
<text text-anchor="middle" x="795" y="-199.5" font-family="Helvetica,sans-Serif" font-size="10.00">unilink/base/common.hpp</text>
</a>
</g>
</g>
<!-- Node1&#45;&gt;Node6 -->
<g id="edge5_Node000001_Node000006" class="edge">
<title>Node1&#45;&gt;Node6</title>
<g id="a_edge5_Node000001_Node000006"><a xlink:title=" ">
<path fill="none" stroke="#63b8ff" d="M948.83,-252.99C917.77,-242.9 865.81,-226.01 830.98,-214.69"/>
<polygon fill="#63b8ff" stroke="#63b8ff" points="831.8,-211.28 821.21,-211.52 829.63,-217.94 831.8,-211.28"/>
</a>
</g>
</g>
<!-- Node22 -->
<g id="Node000022" class="node">
<title>Node22</title>
<g id="a_Node000022"><a xlink:href="error__codes_8hpp.html" target="_top" xlink:title=" ">
<polygon fill="white" stroke="#666666" points="176,-217 74,-217 74,-187 176,-187 176,-217"/>
<text text-anchor="start" x="82" y="-205" font-family="Helvetica,sans-Serif" font-size="10.00">unilink/base/error</text>
<text text-anchor="middle" x="125" y="-194" font-family="Helvetica,sans-Serif" font-size="10.00">_codes.hpp</text>
</a>
</g>
</g>
<!-- Node1&#45;&gt;Node22 -->
<g id="edge31_Node000001_Node000022" class="edge">
<title>Node1&#45;&gt;Node22</title>
<g id="a_edge31_Node000001_Node000022"><a xlink:title=" ">
<path fill="none" stroke="#63b8ff" d="M898.29,-261.1C757.37,-259.49 448.03,-251.89 190,-217 188.75,-216.83 187.48,-216.65 186.2,-216.46"/>
<polygon fill="#63b8ff" stroke="#63b8ff" points="186.75,-213 176.32,-214.82 185.61,-219.91 186.75,-213"/>
</a>
</g>
</g>
<!-- Node23 -->
<g id="Node000023" class="node">
<title>Node23</title>
<g id="a_Node000023"><a xlink:href="safe__data__buffer_8hpp.html" target="_top" xlink:title=" ">
<polygon fill="white" stroke="#666666" points="1273,-151 1155,-151 1155,-121 1273,-121 1273,-151"/>
<text text-anchor="start" x="1163" y="-139" font-family="Helvetica,sans-Serif" font-size="10.00">unilink/memory/safe</text>
<text text-anchor="middle" x="1214" y="-128" font-family="Helvetica,sans-Serif" font-size="10.00">_data_buffer.hpp</text>
</a>
</g>
</g>
<!-- Node1&#45;&gt;Node23 -->
<g id="edge33_Node000001_Node000023" class="edge">
<title>Node1&#45;&gt;Node23</title>
<g id="a_edge33_Node000001_Node000023"><a xlink:title=" ">
<path fill="none" stroke="#63b8ff" d="M1039.87,-252.92C1072.02,-246.55 1110.41,-235.61 1141,-217 1165.02,-202.39 1185.89,-177.55 1199.09,-159.42"/>
<polygon fill="#63b8ff" stroke="#63b8ff" points="1202.03,-161.32 1204.93,-151.13 1196.31,-157.29 1202.03,-161.32"/>
</a>
</g>
</g>
<!-- Node25 -->
<g id="Node000025" class="node">
<title>Node25</title>
<g id="a_Node000025"><a xlink:href="safe__span_8hpp.html" target="_top" xlink:title=" ">
<polygon fill="white" stroke="#666666" points="1442,-85 1324,-85 1324,-55 1442,-55 1442,-85"/>
<text text-anchor="start" x="1332" y="-73" font-family="Helvetica,sans-Serif" font-size="10.00">unilink/memory/safe</text>
<text text-anchor="middle" x="1383" y="-62" font-family="Helvetica,sans-Serif" font-size="10.00">_span.hpp</text>
</a>
</g>
</g>
<!-- Node1&#45;&gt;Node25 -->
<g id="edge47_Node000001_Node000025" class="edge">
<title>Node1&#45;&gt;Node25</title>
<g id="a_edge47_Node000001_Node000025"><a xlink:title=" ">
<path fill="none" stroke="#63b8ff" d="M1051.73,-257.07C1103.04,-251.94 1171.13,-240.87 1227,-217 1289.31,-190.38 1342.13,-127.41 1367.27,-93.52"/>
<polygon fill="#63b8ff" stroke="#63b8ff" points="1370.29,-95.32 1373.34,-85.18 1364.63,-91.21 1370.29,-95.32"/>
</a>
</g>
</g>
<!-- Node6&#45;&gt;Node3 -->
<g id="edge15_Node000006_Node000003" class="edge">
<title>Node6&#45;&gt;Node3</title>
<g id="a_edge15_Node000006_Node000003"><a xlink:title=" ">
<path fill="none" stroke="#63b8ff" d="M723.01,-198.66C596.38,-193.8 344.57,-180.5 318,-151 282.39,-111.46 375.71,-86.84 427.77,-76.56"/>
<polygon fill="#63b8ff" stroke="#63b8ff" points="428.71,-79.94 437.88,-74.64 427.4,-73.07 428.71,-79.94"/>
</a>
</g>
</g>
<!-- Node6&#45;&gt;Node4 -->
<g id="edge16_Node000006_Node000004" class="edge">
<title>Node6&#45;&gt;Node4</title>
<g id="a_edge16_Node000006_Node000004"><a xlink:title=" ">
<path fill="none" stroke="#63b8ff" d="M866.56,-194.14C936.45,-186.36 1036.97,-171.97 1070,-151 1093.56,-136.04 1110.3,-107.5 1119.3,-88.87"/>
<polygon fill="#63b8ff" stroke="#63b8ff" points="1122.53,-90.23 1123.5,-79.68 1116.16,-87.32 1122.53,-90.23"/>
</a>
</g>
</g>
<!-- Node6&#45;&gt;Node5 -->
<g id="edge18_Node000006_Node000005" class="edge">
<title>Node6&#45;&gt;Node5</title>
<g id="a_edge18_Node000006_Node000005"><a xlink:title=" ">
<path fill="none" stroke="#63b8ff" d="M866.72,-198.84C995.41,-194.22 1254.72,-181.23 1282,-151 1296.87,-134.53 1293.18,-107.46 1288.3,-89.44"/>
<polygon fill="#63b8ff" stroke="#63b8ff" points="1291.62,-88.33 1285.35,-79.79 1284.93,-90.37 1291.62,-88.33"/>
</a>
</g>
</g>
<!-- Node7 -->
<g id="Node000007" class="node">
<title>Node7</title>
<g id="a_Node000007"><a xlink:title=" ">
<polygon fill="#e0e0e0" stroke="#999999" points="604,-79.5 554,-79.5 554,-60.5 604,-60.5 604,-79.5"/>
<text text-anchor="middle" x="579" y="-67.5" font-family="Helvetica,sans-Serif" font-size="10.00">chrono</text>
</a>
</g>
</g>
<!-- Node6&#45;&gt;Node7 -->
<g id="edge6_Node000006_Node000007" class="edge">
<title>Node6&#45;&gt;Node7</title>
<g id="a_edge6_Node000006_Node000007"><a xlink:title=" ">
<path fill="none" stroke="#63b8ff" d="M723.19,-199.47C643.14,-196.07 521.06,-185.25 492,-151 469.77,-124.8 513.85,-98.64 547.01,-83.68"/>
<polygon fill="#63b8ff" stroke="#63b8ff" points="548.65,-86.79 556.43,-79.59 545.86,-80.37 548.65,-86.79"/>
</a>
</g>
</g>
<!-- Node8 -->
<g id="Node000008" class="node">
<title>Node8</title>
<g id="a_Node000008"><a xlink:title=" ">
<polygon fill="#e0e0e0" stroke="#999999" points="1217,-19 1167,-19 1167,0 1217,0 1217,-19"/>
<text text-anchor="middle" x="1192" y="-7" font-family="Helvetica,sans-Serif" font-size="10.00">cstdint</text>
</a>
</g>
</g>
<!-- Node6&#45;&gt;Node8 -->
<g id="edge7_Node000006_Node000008" class="edge">
<title>Node6&#45;&gt;Node8</title>
<g id="a_edge7_Node000006_Node000008"><a xlink:title=" ">
<path fill="none" stroke="#63b8ff" d="M799,-192.06C805.26,-176.69 815.51,-144.62 804,-121 792.63,-97.66 769.37,-108.34 758,-85 752.16,-73.01 749.07,-64.9 758,-55 784.57,-25.57 1057.97,-14.51 1156.69,-11.46"/>
<polygon fill="#63b8ff" stroke="#63b8ff" points="1156.88,-14.96 1166.77,-11.16 1156.67,-7.96 1156.88,-14.96"/>
</a>
</g>
</g>
<!-- Node9 -->
<g id="Node000009" class="node">
<title>Node9</title>
<g id="a_Node000009"><a xlink:title=" ">
<polygon fill="#e0e0e0" stroke="#999999" points="271,-145.5 221,-145.5 221,-126.5 271,-126.5 271,-145.5"/>
<text text-anchor="middle" x="246" y="-133.5" font-family="Helvetica,sans-Serif" font-size="10.00">cstring</text>
</a>
</g>
</g>
<!-- Node6&#45;&gt;Node9 -->
<g id="edge8_Node000006_Node000009" class="edge">
<title>Node6&#45;&gt;Node9</title>
<g id="a_edge8_Node000006_Node000009"><a xlink:title=" ">
<path fill="none" stroke="#63b8ff" d="M723.16,-199.52C623.62,-196.22 438.63,-185.55 285,-151 282.17,-150.36 279.27,-149.58 276.38,-148.71"/>
<polygon fill="#63b8ff" stroke="#63b8ff" points="277.36,-145.35 266.77,-145.53 275.16,-152 277.36,-145.35"/>
</a>
</g>
</g>
<!-- Node10 -->
<g id="Node000010" class="node">
<title>Node10</title>
<g id="a_Node000010"><a xlink:title=" ">
<polygon fill="#e0e0e0" stroke="#999999" points="371,-145.5 327,-145.5 327,-126.5 371,-126.5 371,-145.5"/>
<text text-anchor="middle" x="349" y="-133.5" font-family="Helvetica,sans-Serif" font-size="10.00">ctime</text>
</a>
</g>
</g>
<!-- Node6&#45;&gt;Node10 -->
<g id="edge9_Node000006_Node000010" class="edge">
<title>Node6&#45;&gt;Node10</title>
<g id="a_edge9_Node000006_Node000010"><a xlink:title=" ">
<path fill="none" stroke="#63b8ff" d="M723.23,-198.95C639.46,-195.06 497.43,-183.76 380,-151 378.32,-150.53 376.61,-149.98 374.91,-149.38"/>
<polygon fill="#63b8ff" stroke="#63b8ff" points="375.97,-146.03 365.38,-145.52 373.33,-152.52 375.97,-146.03"/>
</a>
</g>
</g>
<!-- Node11 -->
<g id="Node000011" class="node">
<title>Node11</title>
<g id="a_Node000011"><a xlink:title=" ">
<polygon fill="#e0e0e0" stroke="#999999" points="1072.5,-79.5 1007.5,-79.5 1007.5,-60.5 1072.5,-60.5 1072.5,-79.5"/>
<text text-anchor="middle" x="1040" y="-67.5" font-family="Helvetica,sans-Serif" font-size="10.00">functional</text>
</a>
</g>
</g>
<!-- Node6&#45;&gt;Node11 -->
<g id="edge10_Node000006_Node000011" class="edge">
<title>Node6&#45;&gt;Node11</title>
<g id="a_edge10_Node000006_Node000011"><a xlink:title=" ">
<path fill="none" stroke="#63b8ff" d="M853.63,-192.43C888.81,-185.33 933.29,-172.74 968,-151 993.89,-134.78 1016.08,-106.65 1028.73,-88.43"/>
<polygon fill="#63b8ff" stroke="#63b8ff" points="1031.78,-90.18 1034.45,-79.93 1025.97,-86.27 1031.78,-90.18"/>
</a>
</g>
</g>
<!-- Node12 -->
<g id="Node000012" class="node">
<title>Node12</title>
<g id="a_Node000012"><a xlink:title=" ">
<polygon fill="#e0e0e0" stroke="#999999" points="445,-145.5 389,-145.5 389,-126.5 445,-126.5 445,-145.5"/>
<text text-anchor="middle" x="417" y="-133.5" font-family="Helvetica,sans-Serif" font-size="10.00">iomanip</text>
</a>
</g>
</g>
<!-- Node6&#45;&gt;Node12 -->
<g id="edge11_Node000006_Node000012" class="edge">
<title>Node6&#45;&gt;Node12</title>
<g id="a_edge11_Node000006_Node000012"><a xlink:title=" ">
<path fill="none" stroke="#63b8ff" d="M723.19,-193.98C654.69,-186.42 548.91,-172.5 459,-151 456.03,-150.29 452.97,-149.46 449.92,-148.57"/>
<polygon fill="#63b8ff" stroke="#63b8ff" points="450.93,-145.22 440.34,-145.58 448.84,-151.9 450.93,-145.22"/>
</a>
</g>
</g>
<!-- Node13 -->
<g id="Node000013" class="node">
<title>Node13</title>
<g id="a_Node000013"><a xlink:title=" ">
<polygon fill="#e0e0e0" stroke="#999999" points="721,-145.5 661,-145.5 661,-126.5 721,-126.5 721,-145.5"/>
<text text-anchor="middle" x="691" y="-133.5" font-family="Helvetica,sans-Serif" font-size="10.00">iostream</text>
</a>
</g>
</g>
<!-- Node6&#45;&gt;Node13 -->
<g id="edge12_Node000006_Node000013" class="edge">
<title>Node6&#45;&gt;Node13</title>
<g id="a_edge12_Node000006_Node000013"><a xlink:title=" ">
<path fill="none" stroke="#63b8ff" d="M780.97,-192.37C763.76,-181.78 734.34,-163.67 713.85,-151.06"/>
<polygon fill="#63b8ff" stroke="#63b8ff" points="715.49,-147.96 705.14,-145.7 711.82,-153.92 715.49,-147.96"/>
</a>
</g>
</g>
<!-- Node14 -->
<g id="Node000014" class="node">
<title>Node14</title>
<g id="a_Node000014"><a xlink:title=" ">
<polygon fill="#e0e0e0" stroke="#999999" points="795,-145.5 739,-145.5 739,-126.5 795,-126.5 795,-145.5"/>
<text text-anchor="middle" x="767" y="-133.5" font-family="Helvetica,sans-Serif" font-size="10.00">sstream</text>
</a>
</g>
</g>
<!-- Node6&#45;&gt;Node14 -->
<g id="edge13_Node000006_Node000014" class="edge">
<title>Node6&#45;&gt;Node14</title>
<g id="a_edge13_Node000006_Node000014"><a xlink:title=" ">
<path fill="none" stroke="#63b8ff" d="M791.22,-192.37C787.07,-182.88 780.28,-167.36 774.95,-155.16"/>
<polygon fill="#63b8ff" stroke="#63b8ff" points="778.11,-153.66 770.9,-145.91 771.7,-156.47 778.11,-153.66"/>
</a>
</g>
</g>
<!-- Node15 -->
<g id="Node000015" class="node">
<title>Node15</title>
<g id="a_Node000015"><a xlink:title=" ">
<polygon fill="#e0e0e0" stroke="#999999" points="1415.5,-19 1350.5,-19 1350.5,0 1415.5,0 1415.5,-19"/>
<text text-anchor="middle" x="1383" y="-7" font-family="Helvetica,sans-Serif" font-size="10.00">stdexcept</text>
</a>
</g>
</g>
<!-- Node6&#45;&gt;Node15 -->
<g id="edge14_Node000006_Node000015" class="edge">
<title>Node6&#45;&gt;Node15</title>
<g id="a_edge14_Node000006_Node000015"><a xlink:title=" ">
<path fill="none" stroke="#63b8ff" d="M866.64,-200.98C965.83,-199.37 1149.86,-190.64 1301,-151 1371.45,-132.52 1411.2,-146 1451,-85 1458.29,-73.83 1457.34,-66.73 1451,-55 1443.42,-40.98 1429.3,-30.67 1415.87,-23.53"/>
<polygon fill="#63b8ff" stroke="#63b8ff" points="1417.3,-20.33 1406.78,-19.08 1414.23,-26.62 1417.3,-20.33"/>
</a>
</g>
</g>
<!-- Node16 -->
<g id="Node000016" class="node">
<title>Node16</title>
<g id="a_Node000016"><a xlink:title=" ">
<polygon fill="#e0e0e0" stroke="#999999" points="1060.5,-145.5 1015.5,-145.5 1015.5,-126.5 1060.5,-126.5 1060.5,-145.5"/>
<text text-anchor="middle" x="1038" y="-133.5" font-family="Helvetica,sans-Serif" font-size="10.00">utility</text>
</a>
</g>
</g>
<!-- Node6&#45;&gt;Node16 -->
<g id="edge17_Node000006_Node000016" class="edge">
<title>Node6&#45;&gt;Node16</title>
<g id="a_edge17_Node000006_Node000016"><a xlink:title=" ">
<path fill="none" stroke="#63b8ff" d="M836.84,-192.44C878.75,-183.48 944.92,-168.34 1001,-151 1002.92,-150.41 1004.88,-149.77 1006.86,-149.1"/>
<polygon fill="#63b8ff" stroke="#63b8ff" points="1008.4,-152.26 1016.63,-145.6 1006.04,-145.67 1008.4,-152.26"/>
</a>
</g>
</g>
<!-- Node17 -->
<g id="Node000017" class="node">
<title>Node17</title>
<g id="a_Node000017"><a xlink:href="platform_8hpp.html" target="_top" xlink:title=" ">
<polygon fill="white" stroke="#666666" points="643,-145.5 501,-145.5 501,-126.5 643,-126.5 643,-145.5"/>
<text text-anchor="middle" x="572" y="-133.5" font-family="Helvetica,sans-Serif" font-size="10.00">unilink/base/platform.hpp</text>
</a>
</g>
</g>
<!-- Node6&#45;&gt;Node17 -->
<g id="edge19_Node000006_Node000017" class="edge">
<title>Node6&#45;&gt;Node17</title>
<g id="a_edge19_Node000006_Node000017"><a xlink:title=" ">
<path fill="none" stroke="#63b8ff" d="M764.93,-192.37C725.33,-181 655.61,-161 611.71,-148.4"/>
<polygon fill="#63b8ff" stroke="#63b8ff" points="612.53,-144.99 601.95,-145.6 610.6,-151.72 612.53,-144.99"/>
</a>
</g>
</g>
<!-- Node19 -->
<g id="Node000019" class="node">
<title>Node19</title>
<g id="a_Node000019"><a xlink:href="logger_8hpp.html" target="_top" xlink:title=" ">
<polygon fill="white" stroke="#666666" points="959,-151 851,-151 851,-121 959,-121 959,-151"/>
<text text-anchor="start" x="859" y="-139" font-family="Helvetica,sans-Serif" font-size="10.00">unilink/diagnostics</text>
<text text-anchor="middle" x="905" y="-128" font-family="Helvetica,sans-Serif" font-size="10.00">/logger.hpp</text>
</a>
</g>
</g>
<!-- Node6&#45;&gt;Node19 -->
<g id="edge22_Node000006_Node000019" class="edge">
<title>Node6&#45;&gt;Node19</title>
<g id="a_edge22_Node000006_Node000019"><a xlink:title=" ">
<path fill="none" stroke="#63b8ff" d="M809.84,-192.37C825.67,-183.16 851.27,-168.26 871.94,-156.24"/>
<polygon fill="#63b8ff" stroke="#63b8ff" points="873.86,-159.17 880.74,-151.12 870.34,-153.12 873.86,-159.17"/>
</a>
</g>
</g>
<!-- Node17&#45;&gt;Node3 -->
<g id="edge20_Node000017_Node000003" class="edge">
<title>Node17&#45;&gt;Node3</title>
<g id="a_edge20_Node000017_Node000003"><a xlink:title=" ">
<path fill="none" stroke="#63b8ff" d="M556.9,-126.37C538.19,-115.68 506.1,-97.35 484.01,-84.72"/>
<polygon fill="#63b8ff" stroke="#63b8ff" points="485.64,-81.62 475.22,-79.7 482.17,-87.7 485.64,-81.62"/>
</a>
</g>
</g>
<!-- Node18 -->
<g id="Node000018" class="node">
<title>Node18</title>
<g id="a_Node000018"><a xlink:href="visibility_8hpp.html" target="_top" xlink:title=" ">
<polygon fill="white" stroke="#666666" points="913,-79.5 835,-79.5 835,-60.5 913,-60.5 913,-79.5"/>
<text text-anchor="middle" x="874" y="-67.5" font-family="Helvetica,sans-Serif" font-size="10.00">visibility.hpp</text>
</a>
</g>
</g>
<!-- Node17&#45;&gt;Node18 -->
<g id="edge21_Node000017_Node000018" class="edge">
<title>Node17&#45;&gt;Node18</title>
<g id="a_edge21_Node000017_Node000018"><a xlink:title=" ">
<path fill="none" stroke="#63b8ff" d="M617.81,-126.49C679.82,-114.89 787.19,-94.46 826,-85 829.39,-84.17 832.9,-83.26 836.41,-82.31"/>
<polygon fill="#63b8ff" stroke="#63b8ff" points="837.51,-85.64 846.19,-79.57 835.62,-78.9 837.51,-85.64"/>
</a>
</g>
</g>
<!-- Node19&#45;&gt;Node3 -->
<g id="edge27_Node000019_Node000003" class="edge">
<title>Node19&#45;&gt;Node3</title>
<g id="a_edge27_Node000019_Node000003"><a xlink:title=" ">
<path fill="none" stroke="#63b8ff" d="M850.92,-127.51C752.28,-113.84 552.51,-86.14 545,-85 527.53,-82.35 508.09,-79.16 492.21,-76.5"/>
<polygon fill="#63b8ff" stroke="#63b8ff" points="492.79,-73.05 482.35,-74.84 491.63,-79.95 492.79,-73.05"/>
</a>
</g>
</g>
<!-- Node19&#45;&gt;Node4 -->
<g id="edge28_Node000019_Node000004" class="edge">
<title>Node19&#45;&gt;Node4</title>
<g id="a_edge28_Node000019_Node000004"><a xlink:title=" ">
<path fill="none" stroke="#63b8ff" d="M956.22,-120.91C991.62,-111.09 1039.75,-97.54 1082,-85 1084.63,-84.22 1087.34,-83.4 1090.07,-82.57"/>
<polygon fill="#63b8ff" stroke="#63b8ff" points="1091.37,-85.84 1099.91,-79.56 1089.32,-79.14 1091.37,-85.84"/>
</a>
</g>
</g>
<!-- Node19&#45;&gt;Node5 -->
<g id="edge29_Node000019_Node000005" class="edge">
<title>Node19&#45;&gt;Node5</title>
<g id="a_edge29_Node000019_Node000005"><a xlink:title=" ">
<path fill="none" stroke="#63b8ff" d="M959.01,-125.83C1037.9,-112.44 1182.34,-87.92 1247.95,-76.78"/>
<polygon fill="#63b8ff" stroke="#63b8ff" points="1248.88,-80.17 1258.16,-75.05 1247.71,-73.27 1248.88,-80.17"/>
</a>
</g>
</g>
<!-- Node19&#45;&gt;Node7 -->
<g id="edge24_Node000019_Node000007" class="edge">
<title>Node19&#45;&gt;Node7</title>
<g id="a_edge24_Node000019_Node000007"><a xlink:title=" ">
<path fill="none" stroke="#63b8ff" d="M850.8,-124.36C783.65,-111.18 671.15,-89.09 614.24,-77.92"/>
<polygon fill="#63b8ff" stroke="#63b8ff" points="614.78,-74.46 604.29,-75.96 613.43,-81.33 614.78,-74.46"/>
</a>
</g>
</g>
<!-- Node19&#45;&gt;Node11 -->
<g id="edge25_Node000019_Node000011" class="edge">
<title>Node19&#45;&gt;Node11</title>
<g id="a_edge25_Node000019_Node000011"><a xlink:title=" ">
<path fill="none" stroke="#63b8ff" d="M934.63,-120.95C957.99,-109.88 990.3,-94.56 1012.97,-83.82"/>
<polygon fill="#63b8ff" stroke="#63b8ff" points="1014.5,-86.96 1022.03,-79.52 1011.5,-80.64 1014.5,-86.96"/>
</a>
</g>
</g>
<!-- Node19&#45;&gt;Node18 -->
<g id="edge30_Node000019_Node000018" class="edge">
<title>Node19&#45;&gt;Node18</title>
<g id="a_edge30_Node000019_Node000018"><a xlink:title=" ">
<path fill="none" stroke="#63b8ff" d="M898.12,-120.8C893.57,-111.41 887.57,-99.02 882.69,-88.95"/>
<polygon fill="#63b8ff" stroke="#63b8ff" points="885.79,-87.32 878.28,-79.84 879.49,-90.37 885.79,-87.32"/>
</a>
</g>
</g>
<!-- Node20 -->
<g id="Node000020" class="node">
<title>Node20</title>
<g id="a_Node000020"><a xlink:title=" ">
<polygon fill="#e0e0e0" stroke="#999999" points="817,-79.5 767,-79.5 767,-60.5 817,-60.5 817,-79.5"/>
<text text-anchor="middle" x="792" y="-67.5" font-family="Helvetica,sans-Serif" font-size="10.00">atomic</text>
</a>
</g>
</g>
<!-- Node19&#45;&gt;Node20 -->
<g id="edge23_Node000019_Node000020" class="edge">
<title>Node19&#45;&gt;Node20</title>
<g id="a_edge23_Node000019_Node000020"><a xlink:title=" ">
<path fill="none" stroke="#63b8ff" d="M880.2,-120.95C861.08,-110.13 834.8,-95.24 815.91,-84.54"/>
<polygon fill="#63b8ff" stroke="#63b8ff" points="817.46,-81.4 807.04,-79.52 814.01,-87.49 817.46,-81.4"/>
</a>
</g>
</g>
<!-- Node21 -->
<g id="Node000021" class="node">
<title>Node21</title>
<g id="a_Node000021"><a xlink:title=" ">
<polygon fill="#e0e0e0" stroke="#999999" points="989,-79.5 931,-79.5 931,-60.5 989,-60.5 989,-79.5"/>
<text text-anchor="middle" x="960" y="-67.5" font-family="Helvetica,sans-Serif" font-size="10.00">memory</text>
</a>
</g>
</g>
<!-- Node19&#45;&gt;Node21 -->
<g id="edge26_Node000019_Node000021" class="edge">
<title>Node19&#45;&gt;Node21</title>
<g id="a_edge26_Node000019_Node000021"><a xlink:title=" ">
<path fill="none" stroke="#63b8ff" d="M917.21,-120.8C925.61,-111.01 936.81,-97.98 945.65,-87.7"/>
<polygon fill="#63b8ff" stroke="#63b8ff" points="948.54,-89.71 952.4,-79.84 943.23,-85.15 948.54,-89.71"/>
</a>
</g>
</g>
<!-- Node22&#45;&gt;Node3 -->
<g id="edge32_Node000022_Node000003" class="edge">
<title>Node22&#45;&gt;Node3</title>
<g id="a_edge32_Node000022_Node000003"><a xlink:title=" ">
<path fill="none" stroke="#63b8ff" d="M130.41,-186.84C138.21,-168.5 154.42,-136.99 179,-121 219.73,-94.52 362.92,-79.27 427.72,-73.58"/>
<polygon fill="#63b8ff" stroke="#63b8ff" points="428.12,-77.06 437.78,-72.72 427.52,-70.09 428.12,-77.06"/>
</a>
</g>
</g>
<!-- Node23&#45;&gt;Node3 -->
<g id="edge38_Node000023_Node000003" class="edge">
<title>Node23&#45;&gt;Node3</title>
<g id="a_edge38_Node000023_Node000003"><a xlink:title=" ">
<path fill="none" stroke="#63b8ff" d="M1154.83,-128.87C1128.83,-126.27 1097.91,-123.31 1070,-121 836.92,-101.68 777.31,-112.04 545,-85 527.45,-82.96 508,-79.82 492.14,-77.03"/>
<polygon fill="#63b8ff" stroke="#63b8ff" points="492.75,-73.59 482.29,-75.26 491.51,-80.48 492.75,-73.59"/>
</a>
</g>
</g>
<!-- Node23&#45;&gt;Node4 -->
<g id="edge39_Node000023_Node000004" class="edge">
<title>Node23&#45;&gt;Node4</title>
<g id="a_edge39_Node000023_Node000004"><a xlink:title=" ">
<path fill="none" stroke="#63b8ff" d="M1194.69,-120.8C1180.51,-110.37 1161.31,-96.24 1146.98,-85.69"/>
<polygon fill="#63b8ff" stroke="#63b8ff" points="1148.9,-82.76 1138.77,-79.66 1144.75,-88.4 1148.9,-82.76"/>
</a>
</g>
</g>
<!-- Node23&#45;&gt;Node5 -->
<g id="edge41_Node000023_Node000005" class="edge">
<title>Node23&#45;&gt;Node5</title>
<g id="a_edge41_Node000023_Node000005"><a xlink:title=" ">
<path fill="none" stroke="#63b8ff" d="M1229.09,-120.8C1239.8,-110.72 1254.17,-97.19 1265.23,-86.78"/>
<polygon fill="#63b8ff" stroke="#63b8ff" points="1267.72,-89.25 1272.6,-79.84 1262.92,-84.15 1267.72,-89.25"/>
</a>
</g>
</g>
<!-- Node23&#45;&gt;Node8 -->
<g id="edge34_Node000023_Node000008" class="edge">
<title>Node23&#45;&gt;Node8</title>
<g id="a_edge34_Node000023_Node000008"><a xlink:title=" ">
<path fill="none" stroke="#63b8ff" d="M1211.48,-120.72C1207.48,-98.12 1199.71,-54.12 1195.29,-29.09"/>
<polygon fill="#63b8ff" stroke="#63b8ff" points="1198.7,-28.31 1193.51,-19.07 1191.81,-29.53 1198.7,-28.31"/>
</a>
</g>
</g>
<!-- Node23&#45;&gt;Node11 -->
<g id="edge35_Node000023_Node000011" class="edge">
<title>Node23&#45;&gt;Node11</title>
<g id="a_edge35_Node000023_Node000011"><a xlink:title=" ">
<path fill="none" stroke="#63b8ff" d="M1175.81,-120.95C1145.03,-109.63 1102.19,-93.88 1072.91,-83.1"/>
<polygon fill="#63b8ff" stroke="#63b8ff" points="1073.75,-79.68 1063.16,-79.52 1071.33,-86.25 1073.75,-79.68"/>
</a>
</g>
</g>
<!-- Node23&#45;&gt;Node15 -->
<g id="edge37_Node000023_Node000015" class="edge">
<title>Node23&#45;&gt;Node15</title>
<g id="a_edge37_Node000023_Node000015"><a xlink:title=" ">
<path fill="none" stroke="#63b8ff" d="M1216.74,-120.8C1220.89,-103 1230.46,-72.68 1250,-55 1274.93,-32.45 1311.64,-21.28 1340.19,-15.77"/>
<polygon fill="#63b8ff" stroke="#63b8ff" points="1341.06,-19.17 1350.3,-13.99 1339.84,-12.28 1341.06,-19.17"/>
</a>
</g>
</g>
<!-- Node23&#45;&gt;Node18 -->
<g id="edge42_Node000023_Node000018" class="edge">
<title>Node23&#45;&gt;Node18</title>
<g id="a_edge42_Node000023_Node000018"><a xlink:title=" ">
<path fill="none" stroke="#63b8ff" d="M1154.88,-126.9C1095.61,-118.31 1001.94,-103.44 922,-85 918.41,-84.17 914.68,-83.23 910.97,-82.24"/>
<polygon fill="#63b8ff" stroke="#63b8ff" points="911.84,-78.85 901.27,-79.54 909.97,-85.59 911.84,-78.85"/>
</a>
</g>
</g>
<!-- Node23&#45;&gt;Node21 -->
<g id="edge36_Node000023_Node000021" class="edge">
<title>Node23&#45;&gt;Node21</title>
<g id="a_edge36_Node000023_Node000021"><a xlink:title=" ">
<path fill="none" stroke="#63b8ff" d="M1154.66,-123.14C1111.21,-113.99 1051.01,-100.33 999,-85 996.73,-84.33 994.4,-83.6 992.06,-82.84"/>
<polygon fill="#63b8ff" stroke="#63b8ff" points="993.13,-79.51 982.54,-79.59 990.87,-86.13 993.13,-79.51"/>
</a>
</g>
</g>
<!-- Node24 -->
<g id="Node000024" class="node">
<title>Node24</title>
<g id="a_Node000024"><a xlink:title=" ">
<polygon fill="#e0e0e0" stroke="#999999" points="1522.5,-19 1453.5,-19 1453.5,0 1522.5,0 1522.5,-19"/>
<text text-anchor="middle" x="1488" y="-7" font-family="Helvetica,sans-Serif" font-size="10.00">type_traits</text>
</a>
</g>
</g>
<!-- Node23&#45;&gt;Node24 -->
<g id="edge40_Node000023_Node000024" class="edge">
<title>Node23&#45;&gt;Node24</title>
<g id="a_edge40_Node000023_Node000024"><a xlink:title=" ">
<path fill="none" stroke="#63b8ff" d="M1273.26,-128.45C1334.14,-120.69 1423.74,-106.11 1451,-85 1468.89,-71.15 1478.74,-46.34 1483.69,-29.18"/>
<polygon fill="#63b8ff" stroke="#63b8ff" points="1487.16,-29.76 1486.27,-19.2 1480.38,-28.01 1487.16,-29.76"/>
</a>
</g>
</g>
<!-- Node23&#45;&gt;Node25 -->
<g id="edge43_Node000023_Node000025" class="edge">
<title>Node23&#45;&gt;Node25</title>
<g id="a_edge43_Node000023_Node000025"><a xlink:title=" ">
<path fill="none" stroke="#63b8ff" d="M1251.09,-120.95C1276.18,-111.45 1309.53,-98.82 1336.41,-88.64"/>
<polygon fill="#63b8ff" stroke="#63b8ff" points="1337.89,-91.83 1346,-85.01 1335.41,-85.28 1337.89,-91.83"/>
</a>
</g>
</g>
<!-- Node25&#45;&gt;Node8 -->
<g id="edge44_Node000025_Node000008" class="edge">
<title>Node25&#45;&gt;Node8</title>
<g id="a_edge44_Node000025_Node000008"><a xlink:title=" ">
<path fill="none" stroke="#63b8ff" d="M1337.25,-54.99C1303.44,-44.63 1258.08,-30.74 1227.11,-21.25"/>
<polygon fill="#63b8ff" stroke="#63b8ff" points="1227.78,-17.8 1217.19,-18.22 1225.73,-24.49 1227.78,-17.8"/>
</a>
</g>
</g>
<!-- Node25&#45;&gt;Node15 -->
<g id="edge45_Node000025_Node000015" class="edge">
<title>Node25&#45;&gt;Node15</title>
<g id="a_edge45_Node000025_Node000015"><a xlink:title=" ">
<path fill="none" stroke="#63b8ff" d="M1383,-54.84C1383,-47.21 1383,-37.7 1383,-29.45"/>
<polygon fill="#63b8ff" stroke="#63b8ff" points="1386.5,-29.27 1383,-19.27 1379.5,-29.27 1386.5,-29.27"/>
</a>
</g>
</g>
<!-- Node25&#45;&gt;Node24 -->
<g id="edge46_Node000025_Node000024" class="edge">
<title>Node25&#45;&gt;Node24</title>
<g id="a_edge46_Node000025_Node000024"><a xlink:title=" ">
<path fill="none" stroke="#63b8ff" d="M1408.15,-54.99C1424.89,-45.66 1446.77,-33.47 1463.39,-24.21"/>
<polygon fill="#63b8ff" stroke="#63b8ff" points="1465.46,-27.06 1472.49,-19.14 1462.05,-20.95 1465.46,-27.06"/>
</a>
</g>
</g>
</g>
</svg>

<g id="navigator" transform="translate(0 0)" fill="#404254">
  <rect fill="#f2f5e9" fill-opacity="0.5" stroke="#606060" stroke-width=".5" x="0" y="0" width="60" height="60"/>
  <use id="zoomplus" xlink:href="#zoomPlus" x="17" y="9" onmousedown="handleZoom(evt,'in')"/>
  <use id="zoomminus" xlink:href="#zoomMin" x="42" y="9" onmousedown="handleZoom(evt,'out')"/>
  <use id="reset" xlink:href="#resetDef" x="30" y="36" onmousedown="handleReset()"/>
   <use id="arrowup" xlink:href="#arrowUp" x="0" y="0" onmousedown="handlePan(0,-1)"/>
  <use id="arrowright" xlink:href="#arrowRight" x="0" y="0" onmousedown="handlePan(1,0)"/>
  <use id="arrowdown" xlink:href="#arrowDown" x="0" y="0" onmousedown="handlePan(0,1)"/>
  <use id="arrowleft" xlink:href="#arrowLeft" x="0" y="0" onmousedown="handlePan(-1,0)"/>
</g>
<svg viewBox="0 0 15 15" width="100%" height="30px" preserveAspectRatio="xMaxYMin meet">
 <g id="arrow_out" transform="scale(0.3 0.3)">
  <a xlink:href="context_8hpp__incl_org.svg" target="_base">
   <rect id="button" ry="5" rx="5" y="6" x="6" height="38" width="38"
        fill="#f2f5e9" fill-opacity="0.5" stroke="#606060" stroke-width="1.0"/>
   <path id="arrow"
     d="M 11.500037,31.436501 C 11.940474,20.09759 22.043105,11.32322 32.158766,21.979434 L 37.068811,17.246167 C 37.068811,17.246167 37.088388,32 37.088388,32 L 22.160133,31.978069 C 22.160133,31.978069 26.997745,27.140456 26.997745,27.140456 C 18.528582,18.264221 13.291696,25.230495 11.500037,31.436501 z"
     style="fill:#404040;"/>
  </a>
 </g>
</svg>

<style type='text/css'>
<![CDATA[
[data-mouse-over-selected='false'] { opacity: 0.7; }
[data-mouse-over-selected='true']  { opacity: 1.0; }
]]>
</style>
<script type="application/ecmascript"><![CDATA[
document.addEventListener('DOMContentLoaded', (event) => {
  highlightEdges();
  highlightAdjacentNodes();
});
]]></script>
</svg>
