<?xml version="1.0" encoding="UTF-8" standalone="no"?>
<!DOCTYPE svg PUBLIC "-//W3C//DTD SVG 1.1//EN"
 "http://www.w3.org/Graphics/SVG/1.1/DTD/svg11.dtd">
<!-- Generated by graphviz version 2.43.0 (0)
 -->
<!-- Title: unilink/wrapper/context.hpp Pages: 1 -->
<svg width="2273pt" height="346pt"
 viewBox="0.00 0.00 2273.00 346.00" xmlns="http://www.w3.org/2000/svg" xmlns:xlink="http://www.w3.org/1999/xlink">
<g id="graph0" class="graph" transform="scale(1 1) rotate(0) translate(4 342)">
<title>unilink/wrapper/context.hpp</title>
<!-- Node1 -->
<g id="Node000001" class="node">
<title>Node1</title>
<g id="a_Node000001"><a xlink:title=" ">
<polygon fill="#999999" stroke="#666666" points="1483.5,-338 1330.5,-338 1330.5,-319 1483.5,-319 1483.5,-338"/>
<text text-anchor="middle" x="1407" y="-326" font-family="Helvetica,sans-Serif" font-size="10.00">unilink/wrapper/context.hpp</text>
</a>
</g>
</g>
<!-- Node2 -->
<g id="Node000002" class="node">
<title>Node2</title>
<g id="a_Node000002"><a xlink:href="ibuilder_8hpp.html" target="_top" xlink:title=" ">
<polygon fill="white" stroke="#666666" points="600,-222.5 454,-222.5 454,-203.5 600,-203.5 600,-222.5"/>
<text text-anchor="middle" x="527" y="-210.5" font-family="Helvetica,sans-Serif" font-size="10.00">unilink/builder/ibuilder.hpp</text>
</a>
</g>
</g>
<!-- Node1&#45;&gt;Node2 -->
<g id="edge1_Node000001_Node000002" class="edge">
<title>Node1&#45;&gt;Node2</title>
<g id="a_edge1_Node000001_Node000002"><a xlink:title=" ">
<path fill="none" stroke="#63b8ff" d="M1320.04,-318.21C1173.18,-302.16 866.79,-267.2 609,-228 598.01,-226.33 586.21,-224.4 575.08,-222.51"/>
<polygon fill="#63b8ff" stroke="#63b8ff" points="1320.01,-321.72 1330.33,-319.33 1320.77,-314.76 1320.01,-321.72"/>
</a>
</g>
</g>
<!-- Node7 -->
<g id="Node000007" class="node">
<title>Node7</title>
<g id="a_Node000007"><a xlink:href="unilink_8hpp.html" target="_top" xlink:title=" ">
<polygon fill="white" stroke="#666666" points="972.5,-24.5 865.5,-24.5 865.5,-5.5 972.5,-5.5 972.5,-24.5"/>
<text text-anchor="middle" x="919" y="-12.5" font-family="Helvetica,sans-Serif" font-size="10.00">unilink/unilink.hpp</text>
</a>
</g>
</g>
<!-- Node1&#45;&gt;Node7 -->
<g id="edge30_Node000001_Node000007" class="edge">
<title>Node1&#45;&gt;Node7</title>
<g id="a_edge30_Node000001_Node000007"><a xlink:title=" ">
<path fill="none" stroke="#63b8ff" d="M1493.64,-325.02C1711.52,-317.62 2265,-291.24 2265,-214 2265,-214 2265,-214 2265,-146 2265,-13.8 1222.94,-13.59 972.6,-15.45"/>
<polygon fill="#63b8ff" stroke="#63b8ff" points="1493.4,-321.52 1483.52,-325.35 1493.63,-328.52 1493.4,-321.52"/>
</a>
</g>
</g>
<!-- Node16 -->
<g id="Node000016" class="node">
<title>Node16</title>
<g id="a_Node000016"><a xlink:href="error__mapping_8hpp.html" target="_top" xlink:title=" ">
<polygon fill="white" stroke="#666666" points="1858,-228 1746,-228 1746,-198 1858,-198 1858,-228"/>
<text text-anchor="start" x="1754" y="-216" font-family="Helvetica,sans-Serif" font-size="10.00">unilink/diagnostics</text>
<text text-anchor="middle" x="1802" y="-205" font-family="Helvetica,sans-Serif" font-size="10.00">/error_mapping.hpp</text>
</a>
</g>
</g>
<!-- Node1&#45;&gt;Node16 -->
<g id="edge24_Node000001_Node000016" class="edge">
<title>Node1&#45;&gt;Node16</title>
<g id="a_edge24_Node000001_Node000016"><a xlink:title=" ">
<path fill="none" stroke="#63b8ff" d="M1446.37,-316.19C1518.96,-295.33 1673.71,-250.86 1752.98,-228.09"/>
<polygon fill="#63b8ff" stroke="#63b8ff" points="1445.33,-312.84 1436.69,-318.97 1447.27,-319.57 1445.33,-312.84"/>
</a>
</g>
</g>
<!-- Node22 -->
<g id="Node000022" class="node">
<title>Node22</title>
<g id="a_Node000022"><a xlink:href="ichannel_8hpp.html" target="_top" xlink:title=" ">
<polygon fill="white" stroke="#666666" points="1188,-283 1030,-283 1030,-264 1188,-264 1188,-283"/>
<text text-anchor="middle" x="1109" y="-271" font-family="Helvetica,sans-Serif" font-size="10.00">unilink/wrapper/ichannel.hpp</text>
</a>
</g>
</g>
<!-- Node1&#45;&gt;Node22 -->
<g id="edge31_Node000001_Node000022" class="edge">
<title>Node1&#45;&gt;Node22</title>
<g id="a_edge31_Node000001_Node000022"><a xlink:title=" ">
<path fill="none" stroke="#63b8ff" d="M1349.02,-317.19C1293.15,-307.25 1209.6,-292.39 1157.25,-283.08"/>
<polygon fill="#63b8ff" stroke="#63b8ff" points="1348.66,-320.68 1359.12,-318.98 1349.89,-313.79 1348.66,-320.68"/>
</a>
</g>
</g>
<!-- Node29 -->
<g id="Node000029" class="node">
<title>Node29</title>
<g id="a_Node000029"><a xlink:href="iserver_8hpp.html" target="_top" xlink:title=" ">
<polygon fill="white" stroke="#666666" points="1481.5,-283 1332.5,-283 1332.5,-264 1481.5,-264 1481.5,-283"/>
<text text-anchor="middle" x="1407" y="-271" font-family="Helvetica,sans-Serif" font-size="10.00">unilink/wrapper/iserver.hpp</text>
</a>
</g>
</g>
<!-- Node1&#45;&gt;Node29 -->
<g id="edge49_Node000001_Node000029" class="edge">
<title>Node1&#45;&gt;Node29</title>
<g id="a_edge49_Node000001_Node000029"><a xlink:title=" ">
<path fill="none" stroke="#63b8ff" d="M1407,-308.66C1407,-299.93 1407,-289.99 1407,-283.09"/>
<polygon fill="#63b8ff" stroke="#63b8ff" points="1403.5,-308.75 1407,-318.75 1410.5,-308.75 1403.5,-308.75"/>
</a>
</g>
</g>
<!-- Node3 -->
<g id="Node000003" class="node">
<title>Node3</title>
<g id="a_Node000003"><a xlink:href="serial__builder_8hpp.html" target="_top" xlink:title=" ">
<polygon fill="white" stroke="#666666" points="387,-162 271,-162 271,-132 387,-132 387,-162"/>
<text text-anchor="start" x="279" y="-150" font-family="Helvetica,sans-Serif" font-size="10.00">unilink/builder/serial</text>
<text text-anchor="middle" x="329" y="-139" font-family="Helvetica,sans-Serif" font-size="10.00">_builder.hpp</text>
</a>
</g>
</g>
<!-- Node2&#45;&gt;Node3 -->
<g id="edge2_Node000002_Node000003" class="edge">
<title>Node2&#45;&gt;Node3</title>
<g id="a_edge2_Node000002_Node000003"><a xlink:title=" ">
<path fill="none" stroke="#63b8ff" d="M490.52,-200.21C457.24,-189.45 408.02,-173.54 372.67,-162.12"/>
<polygon fill="#63b8ff" stroke="#63b8ff" points="489.71,-203.62 500.3,-203.37 491.86,-196.96 489.71,-203.62"/>
</a>
</g>
</g>
<!-- Node2&#45;&gt;Node7 -->
<g id="edge23_Node000002_Node000007" class="edge">
<title>Node2&#45;&gt;Node7</title>
<g id="a_edge23_Node000002_Node000007"><a xlink:title=" ">
<path fill="none" stroke="#63b8ff" d="M443.62,-202.88C325.33,-186.87 131.14,-147.38 207,-66 218.22,-53.96 701.4,-27.46 865.28,-18.8"/>
<polygon fill="#63b8ff" stroke="#63b8ff" points="443.38,-206.38 453.76,-204.22 444.3,-199.44 443.38,-206.38"/>
</a>
</g>
</g>
<!-- Node8 -->
<g id="Node000008" class="node">
<title>Node8</title>
<g id="a_Node000008"><a xlink:href="tcp__client__builder_8hpp.html" target="_top" xlink:title=" ">
<polygon fill="white" stroke="#666666" points="513,-162 405,-162 405,-132 513,-132 513,-162"/>
<text text-anchor="start" x="413" y="-150" font-family="Helvetica,sans-Serif" font-size="10.00">unilink/builder/tcp</text>
<text text-anchor="middle" x="459" y="-139" font-family="Helvetica,sans-Serif" font-size="10.00">_client_builder.hpp</text>
</a>
</g>
</g>
<!-- Node2&#45;&gt;Node8 -->
<g id="edge8_Node000002_Node000008" class="edge">
<title>Node2&#45;&gt;Node8</title>
<g id="a_edge8_Node000002_Node000008"><a xlink:title=" ">
<path fill="none" stroke="#63b8ff" d="M510.44,-196.41C499.31,-185.94 484.78,-172.26 474,-162.12"/>
<polygon fill="#63b8ff" stroke="#63b8ff" points="508.15,-199.06 517.83,-203.37 512.95,-193.97 508.15,-199.06"/>
</a>
</g>
</g>
<!-- Node10 -->
<g id="Node000010" class="node">
<title>Node10</title>
<g id="a_Node000010"><a xlink:href="tcp__server__builder_8hpp.html" target="_top" xlink:title=" ">
<polygon fill="white" stroke="#666666" points="1108,-162 996,-162 996,-132 1108,-132 1108,-162"/>
<text text-anchor="start" x="1004" y="-150" font-family="Helvetica,sans-Serif" font-size="10.00">unilink/builder/tcp</text>
<text text-anchor="middle" x="1052" y="-139" font-family="Helvetica,sans-Serif" font-size="10.00">_server_builder.hpp</text>
</a>
</g>
</g>
<!-- Node2&#45;&gt;Node10 -->
<g id="edge12_Node000002_Node000010" class="edge">
<title>Node2&#45;&gt;Node10</title>
<g id="a_edge12_Node000002_Node000010"><a xlink:title=" ">
<path fill="none" stroke="#63b8ff" d="M583.28,-201.83C591.88,-200.44 600.67,-199.11 609,-198 775.85,-175.82 819.63,-187.5 986,-162 989.24,-161.5 992.56,-160.95 995.91,-160.35"/>
<polygon fill="#63b8ff" stroke="#63b8ff" points="582.6,-198.39 573.31,-203.48 583.75,-205.3 582.6,-198.39"/>
</a>
</g>
</g>
<!-- Node12 -->
<g id="Node000012" class="node">
<title>Node12</title>
<g id="a_Node000012"><a xlink:href="udp__builder_8hpp.html" target="_top" xlink:title=" ">
<polygon fill="white" stroke="#666666" points="676.5,-162 569.5,-162 569.5,-132 676.5,-132 676.5,-162"/>
<text text-anchor="start" x="577.5" y="-150" font-family="Helvetica,sans-Serif" font-size="10.00">unilink/builder/udp</text>
<text text-anchor="middle" x="623" y="-139" font-family="Helvetica,sans-Serif" font-size="10.00">_builder.hpp</text>
</a>
</g>
</g>
<!-- Node2&#45;&gt;Node12 -->
<g id="edge16_Node000002_Node000012" class="edge">
<title>Node2&#45;&gt;Node12</title>
<g id="a_edge16_Node000002_Node000012"><a xlink:title=" ">
<path fill="none" stroke="#63b8ff" d="M548.58,-197.62C564.48,-187.01 586.02,-172.66 601.83,-162.12"/>
<polygon fill="#63b8ff" stroke="#63b8ff" points="546.33,-194.91 539.95,-203.37 550.21,-200.73 546.33,-194.91"/>
</a>
</g>
</g>
<!-- Node14 -->
<g id="Node000014" class="node">
<title>Node14</title>
<g id="a_Node000014"><a xlink:href="uds__builder_8hpp.html" target="_top" xlink:title=" ">
<polygon fill="white" stroke="#666666" points="1271.5,-162 1164.5,-162 1164.5,-132 1271.5,-132 1271.5,-162"/>
<text text-anchor="start" x="1172.5" y="-150" font-family="Helvetica,sans-Serif" font-size="10.00">unilink/builder/uds</text>
<text text-anchor="middle" x="1218" y="-139" font-family="Helvetica,sans-Serif" font-size="10.00">_builder.hpp</text>
</a>
</g>
</g>
<!-- Node2&#45;&gt;Node14 -->
<g id="edge20_Node000002_Node000014" class="edge">
<title>Node2&#45;&gt;Node14</title>
<g id="a_edge20_Node000002_Node000014"><a xlink:title=" ">
<path fill="none" stroke="#63b8ff" d="M582.01,-201.84C591.01,-200.4 600.25,-199.05 609,-198 833.72,-170.92 891.88,-185.55 1117,-162 1132.41,-160.39 1149.08,-158.24 1164.35,-156.12"/>
<polygon fill="#63b8ff" stroke="#63b8ff" points="581.29,-198.41 572,-203.5 582.43,-205.32 581.29,-198.41"/>
</a>
</g>
</g>
<!-- Node4 -->
<g id="Node000004" class="node">
<title>Node4</title>
<g id="a_Node000004"><a xlink:href="serial__builder_8cc.html" target="_top" xlink:title=" ">
<polygon fill="white" stroke="#666666" points="332,-96 216,-96 216,-66 332,-66 332,-96"/>
<text text-anchor="start" x="224" y="-84" font-family="Helvetica,sans-Serif" font-size="10.00">unilink/builder/serial</text>
<text text-anchor="middle" x="274" y="-73" font-family="Helvetica,sans-Serif" font-size="10.00">_builder.cc</text>
</a>
</g>
</g>
<!-- Node3&#45;&gt;Node4 -->
<g id="edge3_Node000003_Node000004" class="edge">
<title>Node3&#45;&gt;Node4</title>
<g id="a_edge3_Node000003_Node000004"><a xlink:title=" ">
<path fill="none" stroke="#63b8ff" d="M310.17,-124.09C302.23,-114.85 293.22,-104.36 286.17,-96.16"/>
<polygon fill="#63b8ff" stroke="#63b8ff" points="307.62,-126.49 316.79,-131.8 312.93,-121.93 307.62,-126.49"/>
</a>
</g>
</g>
<!-- Node5 -->
<g id="Node000005" class="node">
<title>Node5</title>
<g id="a_Node000005"><a xlink:href="unified__builder_8hpp.html" target="_top" xlink:title=" ">
<polygon fill="white" stroke="#666666" points="632,-96 510,-96 510,-66 632,-66 632,-96"/>
<text text-anchor="start" x="518" y="-84" font-family="Helvetica,sans-Serif" font-size="10.00">unilink/builder/unified</text>
<text text-anchor="middle" x="571" y="-73" font-family="Helvetica,sans-Serif" font-size="10.00">_builder.hpp</text>
</a>
</g>
</g>
<!-- Node3&#45;&gt;Node5 -->
<g id="edge4_Node000003_Node000005" class="edge">
<title>Node3&#45;&gt;Node5</title>
<g id="a_edge4_Node000003_Node000005"><a xlink:title=" ">
<path fill="none" stroke="#63b8ff" d="M391.82,-129.39C431,-119.03 480.85,-105.84 518.02,-96.01"/>
<polygon fill="#63b8ff" stroke="#63b8ff" points="390.88,-126.01 382.11,-131.95 392.67,-132.78 390.88,-126.01"/>
</a>
</g>
</g>
<!-- Node3&#45;&gt;Node7 -->
<g id="edge7_Node000003_Node000007" class="edge">
<title>Node3&#45;&gt;Node7</title>
<g id="a_edge7_Node000003_Node000007"><a xlink:title=" ">
<path fill="none" stroke="#63b8ff" d="M336.99,-122.54C344.66,-103.87 358.2,-78.82 379,-66 419.78,-40.87 736.95,-24.1 865.33,-18.28"/>
<polygon fill="#63b8ff" stroke="#63b8ff" points="333.72,-121.29 333.41,-131.88 340.25,-123.79 333.72,-121.29"/>
</a>
</g>
</g>
<!-- Node6 -->
<g id="Node000006" class="node">
<title>Node6</title>
<g id="a_Node000006"><a xlink:href="unified__builder_8cc.html" target="_top" xlink:title=" ">
<polygon fill="white" stroke="#666666" points="632,-30 510,-30 510,0 632,0 632,-30"/>
<text text-anchor="start" x="518" y="-18" font-family="Helvetica,sans-Serif" font-size="10.00">unilink/builder/unified</text>
<text text-anchor="middle" x="571" y="-7" font-family="Helvetica,sans-Serif" font-size="10.00">_builder.cc</text>
</a>
</g>
</g>
<!-- Node5&#45;&gt;Node6 -->
<g id="edge5_Node000005_Node000006" class="edge">
<title>Node5&#45;&gt;Node6</title>
<g id="a_edge5_Node000005_Node000006"><a xlink:title=" ">
<path fill="none" stroke="#63b8ff" d="M571,-55.54C571,-46.96 571,-37.61 571,-30.16"/>
<polygon fill="#63b8ff" stroke="#63b8ff" points="567.5,-55.8 571,-65.8 574.5,-55.8 567.5,-55.8"/>
</a>
</g>
</g>
<!-- Node5&#45;&gt;Node7 -->
<g id="edge6_Node000005_Node000007" class="edge">
<title>Node5&#45;&gt;Node7</title>
<g id="a_edge6_Node000005_Node000007"><a xlink:title=" ">
<path fill="none" stroke="#63b8ff" d="M642.23,-66.7C643.5,-66.46 644.75,-66.23 646,-66 725.36,-51.33 817.74,-34.45 872.13,-24.53"/>
<polygon fill="#63b8ff" stroke="#63b8ff" points="641.59,-63.26 632.39,-68.52 642.86,-70.14 641.59,-63.26"/>
</a>
</g>
</g>
<!-- Node8&#45;&gt;Node5 -->
<g id="edge10_Node000008_Node000005" class="edge">
<title>Node8&#45;&gt;Node5</title>
<g id="a_edge10_Node000008_Node000005"><a xlink:title=" ">
<path fill="none" stroke="#63b8ff" d="M492.31,-126.97C509.69,-117.03 530.59,-105.09 546.48,-96.01"/>
<polygon fill="#63b8ff" stroke="#63b8ff" points="490.52,-123.95 483.58,-131.95 494,-130.03 490.52,-123.95"/>
</a>
</g>
</g>
<!-- Node8&#45;&gt;Node7 -->
<g id="edge11_Node000008_Node000007" class="edge">
<title>Node8&#45;&gt;Node7</title>
<g id="a_edge11_Node000008_Node000007"><a xlink:title=" ">
<path fill="none" stroke="#63b8ff" d="M523.08,-130.84C566.64,-120.08 620.01,-105.84 641,-96 662.1,-86.1 662.62,-75.28 684,-66 743.12,-40.35 816.47,-27.45 865.35,-21.25"/>
<polygon fill="#63b8ff" stroke="#63b8ff" points="521.98,-127.51 513.1,-133.29 523.65,-134.31 521.98,-127.51"/>
</a>
</g>
</g>
<!-- Node9 -->
<g id="Node000009" class="node">
<title>Node9</title>
<g id="a_Node000009"><a xlink:href="tcp__client__builder_8cc.html" target="_top" xlink:title=" ">
<polygon fill="white" stroke="#666666" points="492,-96 388,-96 388,-66 492,-66 492,-96"/>
<text text-anchor="start" x="396" y="-84" font-family="Helvetica,sans-Serif" font-size="10.00">unilink/builder/tcp</text>
<text text-anchor="middle" x="440" y="-73" font-family="Helvetica,sans-Serif" font-size="10.00">_client_builder.cc</text>
</a>
</g>
</g>
<!-- Node8&#45;&gt;Node9 -->
<g id="edge9_Node000008_Node000009" class="edge">
<title>Node8&#45;&gt;Node9</title>
<g id="a_edge9_Node000008_Node000009"><a xlink:title=" ">
<path fill="none" stroke="#63b8ff" d="M451.91,-122.11C449.31,-113.38 446.47,-103.78 444.2,-96.16"/>
<polygon fill="#63b8ff" stroke="#63b8ff" points="448.58,-123.21 454.78,-131.8 455.29,-121.21 448.58,-123.21"/>
</a>
</g>
</g>
<!-- Node10&#45;&gt;Node5 -->
<g id="edge14_Node000010_Node000005" class="edge">
<title>Node10&#45;&gt;Node5</title>
<g id="a_edge14_Node000010_Node000005"><a xlink:title=" ">
<path fill="none" stroke="#63b8ff" d="M986.3,-132.05C986.2,-132.03 986.1,-132.02 986,-132 860.9,-111.24 713.21,-95.52 632.07,-87.64"/>
<polygon fill="#63b8ff" stroke="#63b8ff" points="985.44,-135.45 995.9,-133.74 986.66,-128.56 985.44,-135.45"/>
</a>
</g>
</g>
<!-- Node10&#45;&gt;Node7 -->
<g id="edge15_Node000010_Node000007" class="edge">
<title>Node10&#45;&gt;Node7</title>
<g id="a_edge15_Node000010_Node000007"><a xlink:title=" ">
<path fill="none" stroke="#63b8ff" d="M1002.87,-127.58C986.75,-119.73 969.73,-109.26 957,-96 936.56,-74.7 925.4,-40.35 921.1,-24.51"/>
<polygon fill="#63b8ff" stroke="#63b8ff" points="1001.68,-130.89 1012.22,-131.91 1004.61,-124.53 1001.68,-130.89"/>
</a>
</g>
</g>
<!-- Node11 -->
<g id="Node000011" class="node">
<title>Node11</title>
<g id="a_Node000011"><a xlink:href="tcp__server__builder_8cc.html" target="_top" xlink:title=" ">
<polygon fill="white" stroke="#666666" points="1070,-96 966,-96 966,-66 1070,-66 1070,-96"/>
<text text-anchor="start" x="974" y="-84" font-family="Helvetica,sans-Serif" font-size="10.00">unilink/builder/tcp</text>
<text text-anchor="middle" x="1018" y="-73" font-family="Helvetica,sans-Serif" font-size="10.00">_server_builder.cc</text>
</a>
</g>
</g>
<!-- Node10&#45;&gt;Node11 -->
<g id="edge13_Node000010_Node000011" class="edge">
<title>Node10&#45;&gt;Node11</title>
<g id="a_edge13_Node000010_Node000011"><a xlink:title=" ">
<path fill="none" stroke="#63b8ff" d="M1039.76,-122.96C1035,-114 1029.7,-104.03 1025.52,-96.16"/>
<polygon fill="#63b8ff" stroke="#63b8ff" points="1036.67,-124.61 1044.45,-131.8 1042.85,-121.32 1036.67,-124.61"/>
</a>
</g>
</g>
<!-- Node12&#45;&gt;Node5 -->
<g id="edge18_Node000012_Node000005" class="edge">
<title>Node12&#45;&gt;Node5</title>
<g id="a_edge18_Node000012_Node000005"><a xlink:title=" ">
<path fill="none" stroke="#63b8ff" d="M604.97,-123.81C597.52,-114.64 589.1,-104.28 582.51,-96.16"/>
<polygon fill="#63b8ff" stroke="#63b8ff" points="602.44,-126.24 611.46,-131.8 607.87,-121.83 602.44,-126.24"/>
</a>
</g>
</g>
<!-- Node12&#45;&gt;Node7 -->
<g id="edge19_Node000012_Node000007" class="edge">
<title>Node12&#45;&gt;Node7</title>
<g id="a_edge19_Node000012_Node000007"><a xlink:title=" ">
<path fill="none" stroke="#63b8ff" d="M658.29,-127.21C674.82,-118.14 694.65,-106.89 712,-96 731.74,-83.61 734.04,-76.19 755,-66 795.15,-46.48 844.56,-32.67 878.59,-24.58"/>
<polygon fill="#63b8ff" stroke="#63b8ff" points="656.59,-124.14 649.48,-132 659.94,-130.29 656.59,-124.14"/>
</a>
</g>
</g>
<!-- Node13 -->
<g id="Node000013" class="node">
<title>Node13</title>
<g id="a_Node000013"><a xlink:href="udp__builder_8cc.html" target="_top" xlink:title=" ">
<polygon fill="white" stroke="#666666" points="871.5,-96 764.5,-96 764.5,-66 871.5,-66 871.5,-96"/>
<text text-anchor="start" x="772.5" y="-84" font-family="Helvetica,sans-Serif" font-size="10.00">unilink/builder/udp</text>
<text text-anchor="middle" x="818" y="-73" font-family="Helvetica,sans-Serif" font-size="10.00">_builder.cc</text>
</a>
</g>
</g>
<!-- Node12&#45;&gt;Node13 -->
<g id="edge17_Node000012_Node000013" class="edge">
<title>Node12&#45;&gt;Node13</title>
<g id="a_edge17_Node000012_Node000013"><a xlink:title=" ">
<path fill="none" stroke="#63b8ff" d="M675.64,-128.72C706.89,-118.47 745.99,-105.63 775.31,-96.01"/>
<polygon fill="#63b8ff" stroke="#63b8ff" points="674.2,-125.51 665.79,-131.95 676.39,-132.16 674.2,-125.51"/>
</a>
</g>
</g>
<!-- Node14&#45;&gt;Node7 -->
<g id="edge22_Node000014_Node000007" class="edge">
<title>Node14&#45;&gt;Node7</title>
<g id="a_edge22_Node000014_Node000007"><a xlink:title=" ">
<path fill="none" stroke="#63b8ff" d="M1191.86,-125.42C1163.37,-103.14 1120.69,-70.2 1112,-66 1067.43,-44.47 1012.43,-31.39 972.56,-24.04"/>
<polygon fill="#63b8ff" stroke="#63b8ff" points="1189.8,-128.26 1199.83,-131.67 1194.12,-122.75 1189.8,-128.26"/>
</a>
</g>
</g>
<!-- Node15 -->
<g id="Node000015" class="node">
<title>Node15</title>
<g id="a_Node000015"><a xlink:href="uds__builder_8cc.html" target="_top" xlink:title=" ">
<polygon fill="white" stroke="#666666" points="1271.5,-96 1164.5,-96 1164.5,-66 1271.5,-66 1271.5,-96"/>
<text text-anchor="start" x="1172.5" y="-84" font-family="Helvetica,sans-Serif" font-size="10.00">unilink/builder/uds</text>
<text text-anchor="middle" x="1218" y="-73" font-family="Helvetica,sans-Serif" font-size="10.00">_builder.cc</text>
</a>
</g>
</g>
<!-- Node14&#45;&gt;Node15 -->
<g id="edge21_Node000014_Node000015" class="edge">
<title>Node14&#45;&gt;Node15</title>
<g id="a_edge21_Node000014_Node000015"><a xlink:title=" ">
<path fill="none" stroke="#63b8ff" d="M1218,-121.54C1218,-112.96 1218,-103.61 1218,-96.16"/>
<polygon fill="#63b8ff" stroke="#63b8ff" points="1214.5,-121.8 1218,-131.8 1221.5,-121.8 1214.5,-121.8"/>
</a>
</g>
</g>
<!-- Node17 -->
<g id="Node000017" class="node">
<title>Node17</title>
<g id="a_Node000017"><a xlink:href="transport_2tcp__client_2tcp__client_8cc.html" target="_top" xlink:title=" ">
<polygon fill="white" stroke="#666666" points="2101.5,-162 1986.5,-162 1986.5,-132 2101.5,-132 2101.5,-162"/>
<text text-anchor="start" x="1994.5" y="-150" font-family="Helvetica,sans-Serif" font-size="10.00">unilink/transport/tcp</text>
<text text-anchor="middle" x="2044" y="-139" font-family="Helvetica,sans-Serif" font-size="10.00">_client/tcp_client.cc</text>
</a>
</g>
</g>
<!-- Node16&#45;&gt;Node17 -->
<g id="edge25_Node000016_Node000017" class="edge">
<title>Node16&#45;&gt;Node17</title>
<g id="a_edge25_Node000016_Node000017"><a xlink:title=" ">
<path fill="none" stroke="#63b8ff" d="M1864.82,-195.39C1904,-185.03 1953.85,-171.84 1991.02,-162.01"/>
<polygon fill="#63b8ff" stroke="#63b8ff" points="1863.88,-192.01 1855.11,-197.95 1865.67,-198.78 1863.88,-192.01"/>
</a>
</g>
</g>
<!-- Node18 -->
<g id="Node000018" class="node">
<title>Node18</title>
<g id="a_Node000018"><a xlink:href="transport_2uds_2uds__client_8cc.html" target="_top" xlink:title=" ">
<polygon fill="white" stroke="#666666" points="2236.5,-162 2119.5,-162 2119.5,-132 2236.5,-132 2236.5,-162"/>
<text text-anchor="start" x="2127.5" y="-150" font-family="Helvetica,sans-Serif" font-size="10.00">unilink/transport/uds</text>
<text text-anchor="middle" x="2178" y="-139" font-family="Helvetica,sans-Serif" font-size="10.00">/uds_client.cc</text>
</a>
</g>
</g>
<!-- Node16&#45;&gt;Node18 -->
<g id="edge26_Node000016_Node000018" class="edge">
<title>Node16&#45;&gt;Node18</title>
<g id="a_edge26_Node000016_Node000018"><a xlink:title=" ">
<path fill="none" stroke="#63b8ff" d="M1868.38,-202.15C1931.06,-192.65 2027.61,-177.45 2111,-162 2113.69,-161.5 2116.43,-160.98 2119.2,-160.44"/>
<polygon fill="#63b8ff" stroke="#63b8ff" points="1867.6,-198.73 1858.24,-203.69 1868.65,-205.65 1867.6,-198.73"/>
</a>
</g>
</g>
<!-- Node19 -->
<g id="Node000019" class="node">
<title>Node19</title>
<g id="a_Node000019"><a xlink:href="wrapper_2tcp__client_2tcp__client_8cc.html" target="_top" xlink:title=" ">
<polygon fill="white" stroke="#666666" points="1479.5,-162 1366.5,-162 1366.5,-132 1479.5,-132 1479.5,-162"/>
<text text-anchor="start" x="1374.5" y="-150" font-family="Helvetica,sans-Serif" font-size="10.00">unilink/wrapper/tcp</text>
<text text-anchor="middle" x="1423" y="-139" font-family="Helvetica,sans-Serif" font-size="10.00">_client/tcp_client.cc</text>
</a>
</g>
</g>
<!-- Node16&#45;&gt;Node19 -->
<g id="edge27_Node000016_Node000019" class="edge">
<title>Node16&#45;&gt;Node19</title>
<g id="a_edge27_Node000016_Node000019"><a xlink:title=" ">
<path fill="none" stroke="#63b8ff" d="M1735.79,-200.22C1731.46,-199.46 1727.17,-198.72 1723,-198 1638.31,-183.44 1540.05,-167.18 1479.7,-157.27"/>
<polygon fill="#63b8ff" stroke="#63b8ff" points="1735.45,-203.71 1745.91,-201.99 1736.66,-196.81 1735.45,-203.71"/>
</a>
</g>
</g>
<!-- Node20 -->
<g id="Node000020" class="node">
<title>Node20</title>
<g id="a_Node000020"><a xlink:href="wrapper_2uds__client_2uds__client_8cc.html" target="_top" xlink:title=" ">
<polygon fill="white" stroke="#666666" points="1827.5,-162 1712.5,-162 1712.5,-132 1827.5,-132 1827.5,-162"/>
<text text-anchor="start" x="1720.5" y="-150" font-family="Helvetica,sans-Serif" font-size="10.00">unilink/wrapper/uds</text>
<text text-anchor="middle" x="1770" y="-139" font-family="Helvetica,sans-Serif" font-size="10.00">_client/uds_client.cc</text>
</a>
</g>
</g>
<!-- Node16&#45;&gt;Node20 -->
<g id="edge28_Node000016_Node000020" class="edge">
<title>Node16&#45;&gt;Node20</title>
<g id="a_edge28_Node000016_Node000020"><a xlink:title=" ">
<path fill="none" stroke="#63b8ff" d="M1790.34,-188.68C1785.9,-179.79 1780.97,-169.95 1777.08,-162.16"/>
<polygon fill="#63b8ff" stroke="#63b8ff" points="1787.3,-190.42 1794.9,-197.8 1793.56,-187.29 1787.3,-190.42"/>
</a>
</g>
</g>
<!-- Node21 -->
<g id="Node000021" class="node">
<title>Node21</title>
<g id="a_Node000021"><a xlink:href="wrapper_2uds__server_2uds__server_8cc.html" target="_top" xlink:title=" ">
<polygon fill="white" stroke="#666666" points="1968,-162 1846,-162 1846,-132 1968,-132 1968,-162"/>
<text text-anchor="start" x="1854" y="-150" font-family="Helvetica,sans-Serif" font-size="10.00">unilink/wrapper/uds</text>
<text text-anchor="middle" x="1907" y="-139" font-family="Helvetica,sans-Serif" font-size="10.00">_server/uds_server.cc</text>
</a>
</g>
</g>
<!-- Node16&#45;&gt;Node21 -->
<g id="edge29_Node000016_Node000021" class="edge">
<title>Node16&#45;&gt;Node21</title>
<g id="a_edge29_Node000016_Node000021"><a xlink:title=" ">
<path fill="none" stroke="#63b8ff" d="M1833.67,-192.69C1849.88,-182.82 1869.25,-171.01 1884.01,-162.01"/>
<polygon fill="#63b8ff" stroke="#63b8ff" points="1831.76,-189.76 1825.04,-197.95 1835.4,-195.74 1831.76,-189.76"/>
</a>
</g>
</g>
<!-- Node22&#45;&gt;Node7 -->
<g id="edge32_Node000022_Node000007" class="edge">
<title>Node22&#45;&gt;Node7</title>
<g id="a_edge32_Node000022_Node000007"><a xlink:title=" ">
<path fill="none" stroke="#63b8ff" d="M1197.68,-261.28C1220.02,-254.7 1242.36,-244.32 1259,-228 1310.84,-177.17 1327.69,-120.75 1280,-66 1240.78,-20.97 1063.15,-15.16 972.53,-15.22"/>
<polygon fill="#63b8ff" stroke="#63b8ff" points="1196.51,-257.97 1187.77,-263.97 1198.34,-264.73 1196.51,-257.97"/>
</a>
</g>
</g>
<!-- Node23 -->
<g id="Node000023" class="node">
<title>Node23</title>
<g id="a_Node000023"><a xlink:href="wrapper_2serial_2serial_8hpp.html" target="_top" xlink:title=" ">
<polygon fill="white" stroke="#666666" points="301,-228 179,-228 179,-198 301,-198 301,-228"/>
<text text-anchor="start" x="187" y="-216" font-family="Helvetica,sans-Serif" font-size="10.00">unilink/wrapper/serial</text>
<text text-anchor="middle" x="240" y="-205" font-family="Helvetica,sans-Serif" font-size="10.00">/serial.hpp</text>
</a>
</g>
</g>
<!-- Node22&#45;&gt;Node23 -->
<g id="edge33_Node000022_Node000023" class="edge">
<title>Node22&#45;&gt;Node23</title>
<g id="a_edge33_Node000022_Node000023"><a xlink:title=" ">
<path fill="none" stroke="#63b8ff" d="M1019.68,-266.55C892.18,-258.05 650.67,-241.91 445,-228 396.77,-224.74 342.17,-221.01 301.45,-218.22"/>
<polygon fill="#63b8ff" stroke="#63b8ff" points="1019.57,-270.05 1029.78,-267.22 1020.04,-263.07 1019.57,-270.05"/>
</a>
</g>
</g>
<!-- Node25 -->
<g id="Node000025" class="node">
<title>Node25</title>
<g id="a_Node000025"><a xlink:href="wrapper_2tcp__client_2tcp__client_8hpp.html" target="_top" xlink:title=" ">
<polygon fill="white" stroke="#666666" points="738,-228 618,-228 618,-198 738,-198 738,-228"/>
<text text-anchor="start" x="626" y="-216" font-family="Helvetica,sans-Serif" font-size="10.00">unilink/wrapper/tcp</text>
<text text-anchor="middle" x="678" y="-205" font-family="Helvetica,sans-Serif" font-size="10.00">_client/tcp_client.hpp</text>
</a>
</g>
</g>
<!-- Node22&#45;&gt;Node25 -->
<g id="edge37_Node000022_Node000025" class="edge">
<title>Node22&#45;&gt;Node25</title>
<g id="a_edge37_Node000022_Node000025"><a xlink:title=" ">
<path fill="none" stroke="#63b8ff" d="M1019.52,-263.46C946.09,-255.57 839.52,-243.05 747,-228 744.1,-227.53 741.15,-227.02 738.16,-226.49"/>
<polygon fill="#63b8ff" stroke="#63b8ff" points="1019.34,-266.96 1029.66,-264.54 1020.08,-260 1019.34,-266.96"/>
</a>
</g>
</g>
<!-- Node26 -->
<g id="Node000026" class="node">
<title>Node26</title>
<g id="a_Node000026"><a xlink:href="wrapper_2udp_2udp_8hpp.html" target="_top" xlink:title=" ">
<polygon fill="white" stroke="#666666" points="869.5,-228 756.5,-228 756.5,-198 869.5,-198 869.5,-228"/>
<text text-anchor="start" x="764.5" y="-216" font-family="Helvetica,sans-Serif" font-size="10.00">unilink/wrapper/udp</text>
<text text-anchor="middle" x="813" y="-205" font-family="Helvetica,sans-Serif" font-size="10.00">/udp.hpp</text>
</a>
</g>
</g>
<!-- Node22&#45;&gt;Node26 -->
<g id="edge41_Node000022_Node000026" class="edge">
<title>Node22&#45;&gt;Node26</title>
<g id="a_edge41_Node000022_Node000026"><a xlink:title=" ">
<path fill="none" stroke="#63b8ff" d="M1052.98,-262.06C1006.15,-253.25 937.65,-240.17 878,-228 875.29,-227.45 872.51,-226.87 869.7,-226.29"/>
<polygon fill="#63b8ff" stroke="#63b8ff" points="1052.45,-265.52 1062.92,-263.93 1053.74,-258.64 1052.45,-265.52"/>
</a>
</g>
</g>
<!-- Node28 -->
<g id="Node000028" class="node">
<title>Node28</title>
<g id="a_Node000028"><a xlink:href="wrapper_2uds__client_2uds__client_8hpp.html" target="_top" xlink:title=" ">
<polygon fill="white" stroke="#666666" points="1250,-228 1128,-228 1128,-198 1250,-198 1250,-228"/>
<text text-anchor="start" x="1136" y="-216" font-family="Helvetica,sans-Serif" font-size="10.00">unilink/wrapper/uds</text>
<text text-anchor="middle" x="1189" y="-205" font-family="Helvetica,sans-Serif" font-size="10.00">_client/uds_client.hpp</text>
</a>
</g>
</g>
<!-- Node22&#45;&gt;Node28 -->
<g id="edge45_Node000022_Node000028" class="edge">
<title>Node22&#45;&gt;Node28</title>
<g id="a_edge45_Node000022_Node000028"><a xlink:title=" ">
<path fill="none" stroke="#63b8ff" d="M1129.15,-257.77C1141.58,-248.68 1157.43,-237.09 1169.7,-228.11"/>
<polygon fill="#63b8ff" stroke="#63b8ff" points="1126.81,-255.14 1120.8,-263.87 1130.94,-260.79 1126.81,-255.14"/>
</a>
</g>
</g>
<!-- Node23&#45;&gt;Node3 -->
<g id="edge34_Node000023_Node000003" class="edge">
<title>Node23&#45;&gt;Node3</title>
<g id="a_edge34_Node000023_Node000003"><a xlink:title=" ">
<path fill="none" stroke="#63b8ff" d="M268.16,-191.75C281.54,-182.13 297.22,-170.86 309.3,-162.16"/>
<polygon fill="#63b8ff" stroke="#63b8ff" points="265.83,-189.12 259.75,-197.8 269.91,-194.8 265.83,-189.12"/>
</a>
</g>
</g>
<!-- Node23&#45;&gt;Node7 -->
<g id="edge35_Node000023_Node000007" class="edge">
<title>Node23&#45;&gt;Node7</title>
<g id="a_edge35_Node000023_Node000007"><a xlink:title=" ">
<path fill="none" stroke="#63b8ff" d="M219.56,-189.9C193.09,-158.6 154.05,-101.28 187,-66 198.58,-53.6 698.22,-27.19 865.25,-18.69"/>
<polygon fill="#63b8ff" stroke="#63b8ff" points="217.09,-192.39 226.29,-197.63 222.36,-187.79 217.09,-192.39"/>
</a>
</g>
</g>
<!-- Node24 -->
<g id="Node000024" class="node">
<title>Node24</title>
<g id="a_Node000024"><a xlink:href="wrapper_2serial_2serial_8cc.html" target="_top" xlink:title=" ">
<polygon fill="white" stroke="#666666" points="122,-162 0,-162 0,-132 122,-132 122,-162"/>
<text text-anchor="start" x="8" y="-150" font-family="Helvetica,sans-Serif" font-size="10.00">unilink/wrapper/serial</text>
<text text-anchor="middle" x="61" y="-139" font-family="Helvetica,sans-Serif" font-size="10.00">/serial.cc</text>
</a>
</g>
</g>
<!-- Node23&#45;&gt;Node24 -->
<g id="edge36_Node000023_Node000024" class="edge">
<title>Node23&#45;&gt;Node24</title>
<g id="a_edge36_Node000023_Node000024"><a xlink:title=" ">
<path fill="none" stroke="#63b8ff" d="M190.93,-194.46C162.38,-184.25 126.87,-171.55 100.19,-162.01"/>
<polygon fill="#63b8ff" stroke="#63b8ff" points="190.12,-197.88 200.72,-197.95 192.48,-191.29 190.12,-197.88"/>
</a>
</g>
</g>
<!-- Node25&#45;&gt;Node7 -->
<g id="edge39_Node000025_Node000007" class="edge">
<title>Node25&#45;&gt;Node7</title>
<g id="a_edge39_Node000025_Node000007"><a xlink:title=" ">
<path fill="none" stroke="#63b8ff" d="M614.32,-194.68C576.46,-181.08 539.46,-159.81 560,-132 592.32,-88.24 629.35,-122.25 677,-96 694.94,-86.11 693.76,-75.33 712,-66 760.55,-41.17 821.87,-28.35 865.13,-21.95"/>
<polygon fill="#63b8ff" stroke="#63b8ff" points="613.33,-198.04 623.93,-197.97 615.6,-191.42 613.33,-198.04"/>
</a>
</g>
</g>
<!-- Node25&#45;&gt;Node8 -->
<g id="edge38_Node000025_Node000008" class="edge">
<title>Node25&#45;&gt;Node8</title>
<g id="a_edge38_Node000025_Node000008"><a xlink:title=" ">
<path fill="none" stroke="#63b8ff" d="M620.24,-195.12C584.93,-184.8 540.3,-171.76 506.95,-162.01"/>
<polygon fill="#63b8ff" stroke="#63b8ff" points="619.36,-198.51 629.94,-197.95 621.32,-191.79 619.36,-198.51"/>
</a>
</g>
</g>
<!-- Node25&#45;&gt;Node19 -->
<g id="edge40_Node000025_Node000019" class="edge">
<title>Node25&#45;&gt;Node19</title>
<g id="a_edge40_Node000025_Node000019"><a xlink:title=" ">
<path fill="none" stroke="#63b8ff" d="M748.04,-197.98C984.01,-166.73 1046.61,-181.3 1280,-162 1308.46,-159.65 1340.07,-156.6 1366.32,-153.95"/>
<polygon fill="#63b8ff" stroke="#63b8ff" points="747.58,-194.52 738.13,-199.31 748.51,-201.45 747.58,-194.52"/>
</a>
</g>
</g>
<!-- Node26&#45;&gt;Node7 -->
<g id="edge43_Node000026_Node000007" class="edge">
<title>Node26&#45;&gt;Node7</title>
<g id="a_edge43_Node000026_Node000007"><a xlink:title=" ">
<path fill="none" stroke="#63b8ff" d="M824.34,-188.58C832.4,-172.4 843.75,-150.55 855,-132 865.1,-115.34 870.15,-112.8 880,-96 894.69,-70.94 908.84,-39.54 915.32,-24.63"/>
<polygon fill="#63b8ff" stroke="#63b8ff" points="821.06,-187.32 819.77,-197.84 827.33,-190.42 821.06,-187.32"/>
</a>
</g>
</g>
<!-- Node26&#45;&gt;Node12 -->
<g id="edge42_Node000026_Node000012" class="edge">
<title>Node26&#45;&gt;Node12</title>
<g id="a_edge42_Node000026_Node000012"><a xlink:title=" ">
<path fill="none" stroke="#63b8ff" d="M761.71,-194.72C731.27,-184.47 693.16,-171.63 664.6,-162.01"/>
<polygon fill="#63b8ff" stroke="#63b8ff" points="760.71,-198.08 771.3,-197.95 762.94,-191.45 760.71,-198.08"/>
</a>
</g>
</g>
<!-- Node27 -->
<g id="Node000027" class="node">
<title>Node27</title>
<g id="a_Node000027"><a xlink:href="wrapper_2udp_2udp_8cc.html" target="_top" xlink:title=" ">
<polygon fill="white" stroke="#666666" points="807.5,-162 694.5,-162 694.5,-132 807.5,-132 807.5,-162"/>
<text text-anchor="start" x="702.5" y="-150" font-family="Helvetica,sans-Serif" font-size="10.00">unilink/wrapper/udp</text>
<text text-anchor="middle" x="751" y="-139" font-family="Helvetica,sans-Serif" font-size="10.00">/udp.cc</text>
</a>
</g>
</g>
<!-- Node26&#45;&gt;Node27 -->
<g id="edge44_Node000026_Node000027" class="edge">
<title>Node26&#45;&gt;Node27</title>
<g id="a_edge44_Node000026_Node000027"><a xlink:title=" ">
<path fill="none" stroke="#63b8ff" d="M792.04,-190.37C783.03,-181.06 772.74,-170.44 764.72,-162.16"/>
<polygon fill="#63b8ff" stroke="#63b8ff" points="789.77,-193.05 799.24,-197.8 794.8,-188.18 789.77,-193.05"/>
</a>
</g>
</g>
<!-- Node28&#45;&gt;Node7 -->
<g id="edge47_Node000028_Node000007" class="edge">
<title>Node28&#45;&gt;Node7</title>
<g id="a_edge47_Node000028_Node000007"><a xlink:title=" ">
<path fill="none" stroke="#63b8ff" d="M1173,-189.21C1145.56,-150.36 1091.28,-74.65 1079,-66 1047.48,-43.78 1005.73,-31.17 972.78,-24.17"/>
<polygon fill="#63b8ff" stroke="#63b8ff" points="1170.42,-191.63 1179.05,-197.79 1176.15,-187.6 1170.42,-191.63"/>
</a>
</g>
</g>
<!-- Node28&#45;&gt;Node14 -->
<g id="edge46_Node000028_Node000014" class="edge">
<title>Node28&#45;&gt;Node14</title>
<g id="a_edge46_Node000028_Node000014"><a xlink:title=" ">
<path fill="none" stroke="#63b8ff" d="M1199.57,-188.68C1203.59,-179.79 1208.06,-169.95 1211.58,-162.16"/>
<polygon fill="#63b8ff" stroke="#63b8ff" points="1196.38,-187.24 1195.44,-197.8 1202.75,-190.13 1196.38,-187.24"/>
</a>
</g>
</g>
<!-- Node28&#45;&gt;Node20 -->
<g id="edge48_Node000028_Node000020" class="edge">
<title>Node28&#45;&gt;Node20</title>
<g id="a_edge48_Node000028_Node000020"><a xlink:title=" ">
<path fill="none" stroke="#63b8ff" d="M1260.46,-205.12C1353.64,-196.01 1521.65,-179.08 1665,-162 1680.34,-160.17 1696.92,-158.04 1712.27,-155.99"/>
<polygon fill="#63b8ff" stroke="#63b8ff" points="1259.91,-201.66 1250.3,-206.11 1260.59,-208.62 1259.91,-201.66"/>
</a>
</g>
</g>
<!-- Node29&#45;&gt;Node7 -->
<g id="edge50_Node000029_Node000007" class="edge">
<title>Node29&#45;&gt;Node7</title>
<g id="a_edge50_Node000029_Node000007"><a xlink:title=" ">
<path fill="none" stroke="#63b8ff" d="M1398.62,-254.57C1375.59,-205.47 1312.51,-72.06 1304,-66 1251.9,-28.92 1065.52,-19.34 972.54,-16.86"/>
<polygon fill="#63b8ff" stroke="#63b8ff" points="1395.59,-256.36 1403,-263.93 1401.93,-253.39 1395.59,-256.36"/>
</a>
</g>
</g>
<!-- Node30 -->
<g id="Node000030" class="node">
<title>Node30</title>
<g id="a_Node000030"><a xlink:href="wrapper_2tcp__server_2tcp__server_8hpp.html" target="_top" xlink:title=" ">
<polygon fill="white" stroke="#666666" points="1539.5,-228 1412.5,-228 1412.5,-198 1539.5,-198 1539.5,-228"/>
<text text-anchor="start" x="1420.5" y="-216" font-family="Helvetica,sans-Serif" font-size="10.00">unilink/wrapper/tcp</text>
<text text-anchor="middle" x="1476" y="-205" font-family="Helvetica,sans-Serif" font-size="10.00">_server/tcp_server.hpp</text>
</a>
</g>
</g>
<!-- Node29&#45;&gt;Node30 -->
<g id="edge51_Node000029_Node000030" class="edge">
<title>Node29&#45;&gt;Node30</title>
<g id="a_edge51_Node000029_Node000030"><a xlink:title=" ">
<path fill="none" stroke="#63b8ff" d="M1425.01,-257.23C1435.63,-248.23 1448.98,-236.91 1459.35,-228.11"/>
<polygon fill="#63b8ff" stroke="#63b8ff" points="1422.55,-254.73 1417.18,-263.87 1427.07,-260.07 1422.55,-254.73"/>
</a>
</g>
</g>
<!-- Node32 -->
<g id="Node000032" class="node">
<title>Node32</title>
<g id="a_Node000032"><a xlink:href="udp__server_8hpp.html" target="_top" xlink:title=" ">
<polygon fill="white" stroke="#666666" points="1000.5,-228 887.5,-228 887.5,-198 1000.5,-198 1000.5,-228"/>
<text text-anchor="start" x="895.5" y="-216" font-family="Helvetica,sans-Serif" font-size="10.00">unilink/wrapper/udp</text>
<text text-anchor="middle" x="944" y="-205" font-family="Helvetica,sans-Serif" font-size="10.00">/udp_server.hpp</text>
</a>
</g>
</g>
<!-- Node29&#45;&gt;Node32 -->
<g id="edge55_Node000029_Node000032" class="edge">
<title>Node29&#45;&gt;Node32</title>
<g id="a_edge55_Node000029_Node000032"><a xlink:title=" ">
<path fill="none" stroke="#63b8ff" d="M1329.5,-262.71C1236.67,-250.98 1083.37,-231.61 1000.83,-221.18"/>
<polygon fill="#63b8ff" stroke="#63b8ff" points="1329.32,-266.21 1339.68,-263.99 1330.19,-259.27 1329.32,-266.21"/>
</a>
</g>
</g>
<!-- Node34 -->
<g id="Node000034" class="node">
<title>Node34</title>
<g id="a_Node000034"><a xlink:href="wrapper_2uds__server_2uds__server_8hpp.html" target="_top" xlink:title=" ">
<polygon fill="white" stroke="#666666" points="1713.5,-228 1584.5,-228 1584.5,-198 1713.5,-198 1713.5,-228"/>
<text text-anchor="start" x="1592.5" y="-216" font-family="Helvetica,sans-Serif" font-size="10.00">unilink/wrapper/uds</text>
<text text-anchor="middle" x="1649" y="-205" font-family="Helvetica,sans-Serif" font-size="10.00">_server/uds_server.hpp</text>
</a>
</g>
</g>
<!-- Node29&#45;&gt;Node34 -->
<g id="edge58_Node000029_Node000034" class="edge">
<title>Node29&#45;&gt;Node34</title>
<g id="a_edge58_Node000029_Node000034"><a xlink:title=" ">
<path fill="none" stroke="#63b8ff" d="M1451.99,-261.62C1491.16,-252.16 1548.19,-238.37 1590.82,-228.06"/>
<polygon fill="#63b8ff" stroke="#63b8ff" points="1451.09,-258.24 1442.19,-263.99 1452.73,-265.05 1451.09,-258.24"/>
</a>
</g>
</g>
<!-- Node30&#45;&gt;Node7 -->
<g id="edge53_Node000030_Node000007" class="edge">
<title>Node30&#45;&gt;Node7</title>
<g id="a_edge53_Node000030_Node000007"><a xlink:title=" ">
<path fill="none" stroke="#63b8ff" d="M1487.75,-188.64C1494.46,-171.72 1499.64,-148.93 1489,-132 1453.05,-74.77 1416.92,-84.8 1352,-66 1219.35,-27.58 1055.77,-18.53 972.78,-16.5"/>
<polygon fill="#63b8ff" stroke="#63b8ff" points="1484.52,-187.27 1483.72,-197.84 1490.94,-190.08 1484.52,-187.27"/>
</a>
</g>
</g>
<!-- Node30&#45;&gt;Node10 -->
<g id="edge52_Node000030_Node000010" class="edge">
<title>Node30&#45;&gt;Node10</title>
<g id="a_edge52_Node000030_Node000010"><a xlink:title=" ">
<path fill="none" stroke="#63b8ff" d="M1402.12,-200.85C1318.44,-188.22 1183.93,-167.91 1108.31,-156.5"/>
<polygon fill="#63b8ff" stroke="#63b8ff" points="1401.65,-204.32 1412.06,-202.35 1402.7,-197.4 1401.65,-204.32"/>
</a>
</g>
</g>
<!-- Node31 -->
<g id="Node000031" class="node">
<title>Node31</title>
<g id="a_Node000031"><a xlink:href="wrapper_2tcp__server_2tcp__server_8cc.html" target="_top" xlink:title=" ">
<polygon fill="white" stroke="#666666" points="1655.5,-162 1536.5,-162 1536.5,-132 1655.5,-132 1655.5,-162"/>
<text text-anchor="start" x="1544.5" y="-150" font-family="Helvetica,sans-Serif" font-size="10.00">unilink/wrapper/tcp</text>
<text text-anchor="middle" x="1596" y="-139" font-family="Helvetica,sans-Serif" font-size="10.00">_server/tcp_server.cc</text>
</a>
</g>
</g>
<!-- Node30&#45;&gt;Node31 -->
<g id="edge54_Node000030_Node000031" class="edge">
<title>Node30&#45;&gt;Node31</title>
<g id="a_edge54_Node000030_Node000031"><a xlink:title=" ">
<path fill="none" stroke="#63b8ff" d="M1511.17,-193.24C1529.9,-183.25 1552.55,-171.18 1569.73,-162.01"/>
<polygon fill="#63b8ff" stroke="#63b8ff" points="1509.51,-190.16 1502.33,-197.95 1512.81,-196.34 1509.51,-190.16"/>
</a>
</g>
</g>
<!-- Node32&#45;&gt;Node12 -->
<g id="edge56_Node000032_Node000012" class="edge">
<title>Node32&#45;&gt;Node12</title>
<g id="a_edge56_Node000032_Node000012"><a xlink:title=" ">
<path fill="none" stroke="#63b8ff" d="M877.47,-197.93C790.76,-180.83 767.37,-178.98 685,-162 682.3,-161.44 679.53,-160.86 676.74,-160.27"/>
<polygon fill="#63b8ff" stroke="#63b8ff" points="877,-201.41 887.49,-199.92 878.37,-194.54 877,-201.41"/>
</a>
</g>
</g>
<!-- Node33 -->
<g id="Node000033" class="node">
<title>Node33</title>
<g id="a_Node000033"><a xlink:href="udp__server_8cc.html" target="_top" xlink:title=" ">
<polygon fill="white" stroke="#666666" points="977.5,-162 864.5,-162 864.5,-132 977.5,-132 977.5,-162"/>
<text text-anchor="start" x="872.5" y="-150" font-family="Helvetica,sans-Serif" font-size="10.00">unilink/wrapper/udp</text>
<text text-anchor="middle" x="921" y="-139" font-family="Helvetica,sans-Serif" font-size="10.00">/udp_server.cc</text>
</a>
</g>
</g>
<!-- Node32&#45;&gt;Node33 -->
<g id="edge57_Node000032_Node000033" class="edge">
<title>Node32&#45;&gt;Node33</title>
<g id="a_edge57_Node000032_Node000033"><a xlink:title=" ">
<path fill="none" stroke="#63b8ff" d="M935.41,-188.11C932.28,-179.38 928.83,-169.78 926.09,-162.16"/>
<polygon fill="#63b8ff" stroke="#63b8ff" points="932.22,-189.57 938.9,-197.8 938.81,-187.2 932.22,-189.57"/>
</a>
</g>
</g>
<!-- Node34&#45;&gt;Node7 -->
<g id="edge60_Node000034_Node000007" class="edge">
<title>Node34&#45;&gt;Node7</title>
<g id="a_edge60_Node000034_Node000007"><a xlink:title=" ">
<path fill="none" stroke="#63b8ff" d="M1662.6,-188.85C1670.79,-171.55 1677.45,-148.2 1665,-132 1580.78,-22.43 1129.12,-14.66 972.51,-15.33"/>
<polygon fill="#63b8ff" stroke="#63b8ff" points="1659.48,-187.26 1658,-197.75 1665.7,-190.47 1659.48,-187.26"/>
</a>
</g>
</g>
<!-- Node34&#45;&gt;Node14 -->
<g id="edge59_Node000034_Node000014" class="edge">
<title>Node34&#45;&gt;Node14</title>
<g id="a_edge59_Node000034_Node000014"><a xlink:title=" ">
<path fill="none" stroke="#63b8ff" d="M1574.48,-200.93C1488.15,-188.12 1348.04,-167.31 1271.72,-155.98"/>
<polygon fill="#63b8ff" stroke="#63b8ff" points="1574.07,-204.41 1584.47,-202.42 1575.1,-197.49 1574.07,-204.41"/>
</a>
</g>
</g>
<!-- Node34&#45;&gt;Node21 -->
<g id="edge61_Node000034_Node000021" class="edge">
<title>Node34&#45;&gt;Node21</title>
<g id="a_edge61_Node000034_Node000021"><a xlink:title=" ">
<path fill="none" stroke="#63b8ff" d="M1715.45,-195.52C1757.29,-185.14 1810.72,-171.88 1850.51,-162.01"/>
<polygon fill="#63b8ff" stroke="#63b8ff" points="1714.48,-192.15 1705.62,-197.95 1716.17,-198.94 1714.48,-192.15"/>
</a>
</g>
</g>
</g>
</svg>
