<?xml version="1.0" encoding="UTF-8" standalone="no"?>
<!DOCTYPE svg PUBLIC "-//W3C//DTD SVG 1.1//EN"
 "http://www.w3.org/Graphics/SVG/1.1/DTD/svg11.dtd">
<!-- Generated by graphviz version 2.43.0 (0)
 -->
<!-- Title: unilink/transport/uds/detail Pages: 1 -->
<svg width="126pt" height="295pt"
 viewBox="0.00 0.00 126.20 295.00" xmlns="http://www.w3.org/2000/svg" xmlns:xlink="http://www.w3.org/1999/xlink">
<g id="graph0" class="graph" transform="scale(1 1) rotate(0) translate(4 291)">
<title>unilink/transport/uds/detail</title>
<polygon fill="white" stroke="transparent" points="-4,4 -4,-291 122.2,-291 122.2,4 -4,4"/>
<g id="clust1" class="cluster">
<title>clusterdir_789fd087a5f0a4f41fb4500cfddbcae1</title>
<g id="a_clust1"><a xlink:href="dir_789fd087a5f0a4f41fb4500cfddbcae1.html" target="_top" xlink:title="uds">
<polygon fill="#ddddee" stroke="black" points="36,-208 36,-279 106,-279 106,-208 36,-208"/>
<text text-anchor="middle" x="71" y="-267" font-family="Helvetica,sans-Serif" font-size="10.00">uds</text>
</a>
</g>
</g>
<!-- dir_02a9bb08ffce7a5da5a853781c6f41ba -->
<g id="node1" class="node">
<title>dir_02a9bb08ffce7a5da5a853781c6f41ba</title>
<g id="a_node1"><a xlink:href="dir_02a9bb08ffce7a5da5a853781c6f41ba.html" target="_top" xlink:title="detail">
<polygon fill="#eeeeff" stroke="black" points="98,-252 44,-252 44,-216 98,-216 98,-252"/>
<text text-anchor="middle" x="71" y="-231.5" font-family="Helvetica,sans-Serif" font-size="10.00">detail</text>
</a>
</g>
</g>
<!-- dir_1ae9d5707ae3e429484f972fe2e6b4f0 -->
<g id="node2" class="node">
<title>dir_1ae9d5707ae3e429484f972fe2e6b4f0</title>
<g id="a_node2"><a xlink:href="dir_1ae9d5707ae3e429484f972fe2e6b4f0.html" target="_top" xlink:title="config">
<polygon fill="none" stroke="black" points="54,-108 0,-108 0,-72 54,-72 54,-108"/>
<text text-anchor="middle" x="27" y="-87.5" font-family="Helvetica,sans-Serif" font-size="10.00">config</text>
</a>
</g>
</g>
<!-- dir_02a9bb08ffce7a5da5a853781c6f41ba&#45;&gt;dir_1ae9d5707ae3e429484f972fe2e6b4f0 -->
<g id="edge1" class="edge">
<title>dir_02a9bb08ffce7a5da5a853781c6f41ba&#45;&gt;dir_1ae9d5707ae3e429484f972fe2e6b4f0</title>
<path fill="none" stroke="black" d="M53.02,-215.61C44.35,-206.01 34.81,-193.35 30,-180 22.89,-160.28 22.47,-136.47 23.65,-118.45"/>
<polygon fill="black" stroke="black" points="27.15,-118.58 24.52,-108.32 20.18,-117.98 27.15,-118.58"/>
<g id="a_edge1&#45;headlabel"><a xlink:href="dir_000025_000012.html" target="_top" xlink:title="1">
<text text-anchor="middle" x="29.67" y="-119.9" font-family="Helvetica,sans-Serif" font-size="10.00">1</text>
</a>
</g>
</g>
<!-- dir_5945cecc8885b190726a3218a193f147 -->
<g id="node3" class="node">
<title>dir_5945cecc8885b190726a3218a193f147</title>
<g id="a_node3"><a xlink:href="dir_5945cecc8885b190726a3218a193f147.html" target="_top" xlink:title="tcp_client">
<polygon fill="white" stroke="red" points="103,-180 39,-180 39,-144 103,-144 103,-180"/>
<text text-anchor="middle" x="71" y="-159.5" font-family="Helvetica,sans-Serif" font-size="10.00">tcp_client</text>
</a>
</g>
</g>
<!-- dir_02a9bb08ffce7a5da5a853781c6f41ba&#45;&gt;dir_5945cecc8885b190726a3218a193f147 -->
<g id="edge2" class="edge">
<title>dir_02a9bb08ffce7a5da5a853781c6f41ba&#45;&gt;dir_5945cecc8885b190726a3218a193f147</title>
<path fill="none" stroke="black" d="M71,-215.7C71,-207.98 71,-198.71 71,-190.11"/>
<polygon fill="black" stroke="black" points="74.5,-190.1 71,-180.1 67.5,-190.1 74.5,-190.1"/>
<g id="a_edge2&#45;headlabel"><a xlink:href="dir_000025_000022.html" target="_top" xlink:title="1">
<text text-anchor="middle" x="77.34" y="-191.2" font-family="Helvetica,sans-Serif" font-size="10.00">1</text>
</a>
</g>
</g>
<!-- dir_7729b3b589609220b9ffe88f5b919f3c -->
<g id="node4" class="node">
<title>dir_7729b3b589609220b9ffe88f5b919f3c</title>
<g id="a_node4"><a xlink:href="dir_7729b3b589609220b9ffe88f5b919f3c.html" target="_top" xlink:title="diagnostics">
<polygon fill="none" stroke="black" points="118,-36 46,-36 46,0 118,0 118,-36"/>
<text text-anchor="middle" x="82" y="-15.5" font-family="Helvetica,sans-Serif" font-size="10.00">diagnostics</text>
</a>
</g>
</g>
<!-- dir_02a9bb08ffce7a5da5a853781c6f41ba&#45;&gt;dir_7729b3b589609220b9ffe88f5b919f3c -->
<g id="edge3" class="edge">
<title>dir_02a9bb08ffce7a5da5a853781c6f41ba&#45;&gt;dir_7729b3b589609220b9ffe88f5b919f3c</title>
<path fill="none" stroke="black" d="M89.17,-215.68C97.88,-206.1 107.41,-193.43 112,-180 127.66,-134.16 109.19,-78.02 95.08,-45.6"/>
<polygon fill="black" stroke="black" points="98.2,-44 90.88,-36.34 91.82,-46.89 98.2,-44"/>
<g id="a_edge3&#45;headlabel"><a xlink:href="dir_000025_000013.html" target="_top" xlink:title="1">
<text text-anchor="middle" x="102.27" y="-43.61" font-family="Helvetica,sans-Serif" font-size="10.00">1</text>
</a>
</g>
</g>
<!-- dir_1ae9d5707ae3e429484f972fe2e6b4f0&#45;&gt;dir_7729b3b589609220b9ffe88f5b919f3c -->
<g id="edge4" class="edge">
<title>dir_1ae9d5707ae3e429484f972fe2e6b4f0&#45;&gt;dir_7729b3b589609220b9ffe88f5b919f3c</title>
<path fill="none" stroke="black" d="M40.6,-71.7C47.12,-63.39 55.07,-53.28 62.25,-44.14"/>
<polygon fill="black" stroke="black" points="65.13,-46.13 68.56,-36.1 59.63,-41.81 65.13,-46.13"/>
<g id="a_edge4&#45;headlabel"><a xlink:href="dir_000012_000013.html" target="_top" xlink:title="1">
<text text-anchor="middle" x="65.15" y="-48.21" font-family="Helvetica,sans-Serif" font-size="10.00">1</text>
</a>
</g>
</g>
<!-- dir_5945cecc8885b190726a3218a193f147&#45;&gt;dir_1ae9d5707ae3e429484f972fe2e6b4f0 -->
<g id="edge5" class="edge">
<title>dir_5945cecc8885b190726a3218a193f147&#45;&gt;dir_1ae9d5707ae3e429484f972fe2e6b4f0</title>
<path fill="none" stroke="black" d="M60.12,-143.7C55.01,-135.56 48.8,-125.69 43.16,-116.7"/>
<polygon fill="black" stroke="black" points="46.04,-114.71 37.75,-108.1 40.11,-118.43 46.04,-114.71"/>
<g id="a_edge5&#45;headlabel"><a xlink:href="dir_000022_000012.html" target="_top" xlink:title="2">
<text text-anchor="middle" x="50.35" y="-113.74" font-family="Helvetica,sans-Serif" font-size="10.00">2</text>
</a>
</g>
</g>
<!-- dir_5945cecc8885b190726a3218a193f147&#45;&gt;dir_7729b3b589609220b9ffe88f5b919f3c -->
<g id="edge6" class="edge">
<title>dir_5945cecc8885b190726a3218a193f147&#45;&gt;dir_7729b3b589609220b9ffe88f5b919f3c</title>
<path fill="none" stroke="black" d="M72.33,-143.87C74.2,-119.67 77.65,-75.21 79.88,-46.39"/>
<polygon fill="black" stroke="black" points="83.39,-46.43 80.67,-36.19 76.41,-45.89 83.39,-46.43"/>
<g id="a_edge6&#45;headlabel"><a xlink:href="dir_000022_000013.html" target="_top" xlink:title="6">
<text text-anchor="middle" x="85.94" y="-47.73" font-family="Helvetica,sans-Serif" font-size="10.00">6</text>
</a>
</g>
</g>
</g>
</svg>
