<?xml version="1.0" encoding="UTF-8" standalone="no"?>
<!DOCTYPE svg PUBLIC "-//W3C//DTD SVG 1.1//EN"
 "http://www.w3.org/Graphics/SVG/1.1/DTD/svg11.dtd">
<!-- Generated by graphviz version 2.43.0 (0)
 -->
<!-- Title: unilink/interface Pages: 1 -->
<svg width="118pt" height="239pt"
 viewBox="0.00 0.00 118.00 239.00" xmlns="http://www.w3.org/2000/svg" xmlns:xlink="http://www.w3.org/1999/xlink">
<g id="graph0" class="graph" transform="scale(1 1) rotate(0) translate(4 235)">
<title>unilink/interface</title>
<polygon fill="white" stroke="transparent" points="-4,4 -4,-235 114,-235 114,4 -4,4"/>
<g id="clust1" class="cluster">
<title>clusterdir_ab04957a3ce12ad8c4b1f764ce6591a4</title>
<g id="a_clust1"><a xlink:href="dir_ab04957a3ce12ad8c4b1f764ce6591a4.html" target="_top" xlink:title="unilink">
<polygon fill="#ddddee" stroke="black" points="8,-8 8,-223 102,-223 102,-8 8,-8"/>
<text text-anchor="middle" x="55" y="-211" font-family="Helvetica,sans-Serif" font-size="10.00">unilink</text>
</a>
</g>
</g>
<!-- dir_1b267b6cbe170e06255a29a9b0340896 -->
<g id="node1" class="node">
<title>dir_1b267b6cbe170e06255a29a9b0340896</title>
<g id="a_node1"><a xlink:href="dir_1b267b6cbe170e06255a29a9b0340896.html" target="_top" xlink:title="base">
<polygon fill="none" stroke="black" points="81,-52 27,-52 27,-16 81,-16 81,-52"/>
<text text-anchor="middle" x="54" y="-31.5" font-family="Helvetica,sans-Serif" font-size="10.00">base</text>
</a>
</g>
</g>
<!-- dir_5c49fb1fe3cdea7da91949965a419900 -->
<g id="node2" class="node">
<title>dir_5c49fb1fe3cdea7da91949965a419900</title>
<g id="a_node2"><a xlink:href="dir_5c49fb1fe3cdea7da91949965a419900.html" target="_top" xlink:title="memory">
<polygon fill="none" stroke="black" points="94,-124 36,-124 36,-88 94,-88 94,-124"/>
<text text-anchor="middle" x="65" y="-103.5" font-family="Helvetica,sans-Serif" font-size="10.00">memory</text>
</a>
</g>
</g>
<!-- dir_5c49fb1fe3cdea7da91949965a419900&#45;&gt;dir_1b267b6cbe170e06255a29a9b0340896 -->
<g id="edge3" class="edge">
<title>dir_5c49fb1fe3cdea7da91949965a419900&#45;&gt;dir_1b267b6cbe170e06255a29a9b0340896</title>
<path fill="none" stroke="black" d="M62.28,-87.7C61.07,-79.98 59.61,-70.71 58.26,-62.11"/>
<polygon fill="black" stroke="black" points="61.7,-61.44 56.69,-52.1 54.78,-62.53 61.7,-61.44"/>
<g id="a_edge3&#45;headlabel"><a xlink:href="dir_000017_000009.html" target="_top" xlink:title="4">
<text text-anchor="middle" x="65.06" y="-62.05" font-family="Helvetica,sans-Serif" font-size="10.00">4</text>
</a>
</g>
</g>
<!-- dir_bc504be2cd69b9810b0769a6f10cd052 -->
<g id="node3" class="node">
<title>dir_bc504be2cd69b9810b0769a6f10cd052</title>
<g id="a_node3"><a xlink:href="dir_bc504be2cd69b9810b0769a6f10cd052.html" target="_top" xlink:title="interface">
<polygon fill="#eeeeff" stroke="black" points="85,-196 25,-196 25,-160 85,-160 85,-196"/>
<text text-anchor="middle" x="55" y="-175.5" font-family="Helvetica,sans-Serif" font-size="10.00">interface</text>
</a>
</g>
</g>
<!-- dir_bc504be2cd69b9810b0769a6f10cd052&#45;&gt;dir_1b267b6cbe170e06255a29a9b0340896 -->
<g id="edge1" class="edge">
<title>dir_bc504be2cd69b9810b0769a6f10cd052&#45;&gt;dir_1b267b6cbe170e06255a29a9b0340896</title>
<path fill="none" stroke="black" d="M43.11,-159.72C36.99,-149.76 30.16,-136.73 27,-124 23.15,-108.47 23.27,-103.56 27,-88 29.21,-78.81 33.29,-69.41 37.62,-61.13"/>
<polygon fill="black" stroke="black" points="40.72,-62.77 42.53,-52.33 34.6,-59.36 40.72,-62.77"/>
<g id="a_edge1&#45;headlabel"><a xlink:href="dir_000016_000009.html" target="_top" xlink:title="16">
<text text-anchor="middle" x="41.44" y="-64.79" font-family="Helvetica,sans-Serif" font-size="10.00">16</text>
</a>
</g>
</g>
<!-- dir_bc504be2cd69b9810b0769a6f10cd052&#45;&gt;dir_5c49fb1fe3cdea7da91949965a419900 -->
<g id="edge2" class="edge">
<title>dir_bc504be2cd69b9810b0769a6f10cd052&#45;&gt;dir_5c49fb1fe3cdea7da91949965a419900</title>
<path fill="none" stroke="black" d="M57.47,-159.7C58.57,-151.98 59.9,-142.71 61.13,-134.11"/>
<polygon fill="black" stroke="black" points="64.61,-134.5 62.56,-124.1 57.68,-133.51 64.61,-134.5"/>
<g id="a_edge2&#45;headlabel"><a xlink:href="dir_000016_000017.html" target="_top" xlink:title="1">
<text text-anchor="middle" x="66.91" y="-135.96" font-family="Helvetica,sans-Serif" font-size="10.00">1</text>
</a>
</g>
</g>
</g>
</svg>
