<?xml version="1.0" encoding="UTF-8" standalone="no"?>
<!DOCTYPE svg PUBLIC "-//W3C//DTD SVG 1.1//EN"
 "http://www.w3.org/Graphics/SVG/1.1/DTD/svg11.dtd">
<!-- Generated by graphviz version 2.43.0 (0)
 -->
<!-- Title: unilink/transport/tcp_server Pages: 1 -->
<svg width="323pt" height="367pt"
 viewBox="0.00 0.00 322.96 367.00" xmlns="http://www.w3.org/2000/svg" xmlns:xlink="http://www.w3.org/1999/xlink">
<g id="graph0" class="graph" transform="scale(1 1) rotate(0) translate(4 363)">
<title>unilink/transport/tcp_server</title>
<polygon fill="white" stroke="transparent" points="-4,4 -4,-363 318.96,-363 318.96,4 -4,4"/>
<g id="clust1" class="cluster">
<title>clusterdir_5c26b0c9b7e0d5acf946c15b5d9d58d6</title>
<g id="a_clust1"><a xlink:href="dir_5c26b0c9b7e0d5acf946c15b5d9d58d6.html" target="_top" xlink:title="transport">
<polygon fill="#ddddee" stroke="black" points="120.96,-280 120.96,-351 204.96,-351 204.96,-280 120.96,-280"/>
<text text-anchor="middle" x="162.96" y="-339" font-family="Helvetica,sans-Serif" font-size="10.00">transport</text>
</a>
</g>
</g>
<!-- dir_bdae376d6a766a2d984a51161a7f5788 -->
<g id="node1" class="node">
<title>dir_bdae376d6a766a2d984a51161a7f5788</title>
<g id="a_node1"><a xlink:href="dir_bdae376d6a766a2d984a51161a7f5788.html" target="_top" xlink:title="tcp_server">
<polygon fill="#eeeeff" stroke="black" points="196.96,-324 128.96,-324 128.96,-288 196.96,-288 196.96,-324"/>
<text text-anchor="middle" x="162.96" y="-303.5" font-family="Helvetica,sans-Serif" font-size="10.00">tcp_server</text>
</a>
</g>
</g>
<!-- dir_10a04bdc26b9bc63fc33802b95b375a9 -->
<g id="node2" class="node">
<title>dir_10a04bdc26b9bc63fc33802b95b375a9</title>
<g id="a_node2"><a xlink:href="dir_10a04bdc26b9bc63fc33802b95b375a9.html" target="_top" xlink:title="concurrency">
<polygon fill="none" stroke="black" points="90.96,-180 14.96,-180 14.96,-144 90.96,-144 90.96,-180"/>
<text text-anchor="middle" x="52.96" y="-159.5" font-family="Helvetica,sans-Serif" font-size="10.00">concurrency</text>
</a>
</g>
</g>
<!-- dir_bdae376d6a766a2d984a51161a7f5788&#45;&gt;dir_10a04bdc26b9bc63fc33802b95b375a9 -->
<g id="edge3" class="edge">
<title>dir_bdae376d6a766a2d984a51161a7f5788&#45;&gt;dir_10a04bdc26b9bc63fc33802b95b375a9</title>
<path fill="none" stroke="black" d="M149.7,-287.87C130.45,-263.03 94.68,-216.85 72.44,-188.14"/>
<polygon fill="black" stroke="black" points="75.17,-185.95 66.28,-180.19 69.64,-190.24 75.17,-185.95"/>
<g id="a_edge3&#45;headlabel"><a xlink:href="dir_000027_000011.html" target="_top" xlink:title="2">
<text text-anchor="middle" x="79.62" y="-184.55" font-family="Helvetica,sans-Serif" font-size="10.00">2</text>
</a>
</g>
</g>
<!-- dir_1ae9d5707ae3e429484f972fe2e6b4f0 -->
<g id="node3" class="node">
<title>dir_1ae9d5707ae3e429484f972fe2e6b4f0</title>
<g id="a_node3"><a xlink:href="dir_1ae9d5707ae3e429484f972fe2e6b4f0.html" target="_top" xlink:title="config">
<polygon fill="none" stroke="black" points="162.96,-180 108.96,-180 108.96,-144 162.96,-144 162.96,-180"/>
<text text-anchor="middle" x="135.96" y="-159.5" font-family="Helvetica,sans-Serif" font-size="10.00">config</text>
</a>
</g>
</g>
<!-- dir_bdae376d6a766a2d984a51161a7f5788&#45;&gt;dir_1ae9d5707ae3e429484f972fe2e6b4f0 -->
<g id="edge4" class="edge">
<title>dir_bdae376d6a766a2d984a51161a7f5788&#45;&gt;dir_1ae9d5707ae3e429484f972fe2e6b4f0</title>
<path fill="none" stroke="black" d="M159.71,-287.87C155.11,-263.67 146.65,-219.21 141.17,-190.39"/>
<polygon fill="black" stroke="black" points="144.54,-189.36 139.23,-180.19 137.66,-190.67 144.54,-189.36"/>
<g id="a_edge4&#45;headlabel"><a xlink:href="dir_000027_000012.html" target="_top" xlink:title="1">
<text text-anchor="middle" x="148" y="-189.86" font-family="Helvetica,sans-Serif" font-size="10.00">1</text>
</a>
</g>
</g>
<!-- dir_1b267b6cbe170e06255a29a9b0340896 -->
<g id="node4" class="node">
<title>dir_1b267b6cbe170e06255a29a9b0340896</title>
<g id="a_node4"><a xlink:href="dir_1b267b6cbe170e06255a29a9b0340896.html" target="_top" xlink:title="base">
<polygon fill="none" stroke="black" points="217.96,-108 163.96,-108 163.96,-72 217.96,-72 217.96,-108"/>
<text text-anchor="middle" x="190.96" y="-87.5" font-family="Helvetica,sans-Serif" font-size="10.00">base</text>
</a>
</g>
</g>
<!-- dir_bdae376d6a766a2d984a51161a7f5788&#45;&gt;dir_1b267b6cbe170e06255a29a9b0340896 -->
<g id="edge5" class="edge">
<title>dir_bdae376d6a766a2d984a51161a7f5788&#45;&gt;dir_1b267b6cbe170e06255a29a9b0340896</title>
<path fill="none" stroke="black" d="M165.21,-287.85C170.05,-250.83 181.52,-163.18 187.38,-118.39"/>
<polygon fill="black" stroke="black" points="190.88,-118.6 188.71,-108.23 183.94,-117.69 190.88,-118.6"/>
<g id="a_edge5&#45;headlabel"><a xlink:href="dir_000027_000009.html" target="_top" xlink:title="8">
<text text-anchor="middle" x="193.23" y="-120.03" font-family="Helvetica,sans-Serif" font-size="10.00">8</text>
</a>
</g>
</g>
<!-- dir_5c49fb1fe3cdea7da91949965a419900 -->
<g id="node5" class="node">
<title>dir_5c49fb1fe3cdea7da91949965a419900</title>
<g id="a_node5"><a xlink:href="dir_5c49fb1fe3cdea7da91949965a419900.html" target="_top" xlink:title="memory">
<polygon fill="none" stroke="black" points="314.96,-180 256.96,-180 256.96,-144 314.96,-144 314.96,-180"/>
<text text-anchor="middle" x="285.96" y="-159.5" font-family="Helvetica,sans-Serif" font-size="10.00">memory</text>
</a>
</g>
</g>
<!-- dir_bdae376d6a766a2d984a51161a7f5788&#45;&gt;dir_5c49fb1fe3cdea7da91949965a419900 -->
<g id="edge6" class="edge">
<title>dir_bdae376d6a766a2d984a51161a7f5788&#45;&gt;dir_5c49fb1fe3cdea7da91949965a419900</title>
<path fill="none" stroke="black" d="M196.97,-300.01C225.16,-293.9 263.64,-280.59 282.96,-252 295.11,-234.03 294.84,-209.04 292.12,-190.11"/>
<polygon fill="black" stroke="black" points="295.53,-189.29 290.37,-180.03 288.64,-190.49 295.53,-189.29"/>
<g id="a_edge6&#45;headlabel"><a xlink:href="dir_000027_000017.html" target="_top" xlink:title="3">
<text text-anchor="middle" x="298.95" y="-189.84" font-family="Helvetica,sans-Serif" font-size="10.00">3</text>
</a>
</g>
</g>
<!-- dir_7729b3b589609220b9ffe88f5b919f3c -->
<g id="node6" class="node">
<title>dir_7729b3b589609220b9ffe88f5b919f3c</title>
<g id="a_node6"><a xlink:href="dir_7729b3b589609220b9ffe88f5b919f3c.html" target="_top" xlink:title="diagnostics">
<polygon fill="none" stroke="black" points="198.96,-36 126.96,-36 126.96,0 198.96,0 198.96,-36"/>
<text text-anchor="middle" x="162.96" y="-15.5" font-family="Helvetica,sans-Serif" font-size="10.00">diagnostics</text>
</a>
</g>
</g>
<!-- dir_bdae376d6a766a2d984a51161a7f5788&#45;&gt;dir_7729b3b589609220b9ffe88f5b919f3c -->
<g id="edge7" class="edge">
<title>dir_bdae376d6a766a2d984a51161a7f5788&#45;&gt;dir_7729b3b589609220b9ffe88f5b919f3c</title>
<path fill="none" stroke="black" d="M128.65,-290.85C73.71,-265.91 -24.82,-210.42 5.96,-144 28.25,-95.92 79.48,-60.84 117.39,-40.29"/>
<polygon fill="black" stroke="black" points="119.5,-43.14 126.72,-35.38 116.24,-36.95 119.5,-43.14"/>
<g id="a_edge7&#45;headlabel"><a xlink:href="dir_000027_000013.html" target="_top" xlink:title="3">
<text text-anchor="middle" x="117.64" y="-44.83" font-family="Helvetica,sans-Serif" font-size="10.00">3</text>
</a>
</g>
</g>
<!-- dir_bc504be2cd69b9810b0769a6f10cd052 -->
<g id="node7" class="node">
<title>dir_bc504be2cd69b9810b0769a6f10cd052</title>
<g id="a_node7"><a xlink:href="dir_bc504be2cd69b9810b0769a6f10cd052.html" target="_top" xlink:title="interface">
<polygon fill="none" stroke="black" points="273.96,-252 213.96,-252 213.96,-216 273.96,-216 273.96,-252"/>
<text text-anchor="middle" x="243.96" y="-231.5" font-family="Helvetica,sans-Serif" font-size="10.00">interface</text>
</a>
</g>
</g>
<!-- dir_bdae376d6a766a2d984a51161a7f5788&#45;&gt;dir_bc504be2cd69b9810b0769a6f10cd052 -->
<g id="edge8" class="edge">
<title>dir_bdae376d6a766a2d984a51161a7f5788&#45;&gt;dir_bc504be2cd69b9810b0769a6f10cd052</title>
<path fill="none" stroke="black" d="M182.99,-287.7C193.09,-278.97 205.5,-268.24 216.48,-258.75"/>
<polygon fill="black" stroke="black" points="218.89,-261.29 224.17,-252.1 214.32,-255.99 218.89,-261.29"/>
<g id="a_edge8&#45;headlabel"><a xlink:href="dir_000027_000016.html" target="_top" xlink:title="6">
<text text-anchor="middle" x="218.03" y="-263.29" font-family="Helvetica,sans-Serif" font-size="10.00">6</text>
</a>
</g>
</g>
<!-- dir_10a04bdc26b9bc63fc33802b95b375a9&#45;&gt;dir_1b267b6cbe170e06255a29a9b0340896 -->
<g id="edge13" class="edge">
<title>dir_10a04bdc26b9bc63fc33802b95b375a9&#45;&gt;dir_1b267b6cbe170e06255a29a9b0340896</title>
<path fill="none" stroke="black" d="M86.72,-143.88C107.3,-133.44 133.59,-120.1 154.62,-109.44"/>
<polygon fill="black" stroke="black" points="156.24,-112.54 163.57,-104.9 153.07,-106.3 156.24,-112.54"/>
<g id="a_edge13&#45;headlabel"><a xlink:href="dir_000011_000009.html" target="_top" xlink:title="2">
<text text-anchor="middle" x="154.31" y="-114.2" font-family="Helvetica,sans-Serif" font-size="10.00">2</text>
</a>
</g>
</g>
<!-- dir_10a04bdc26b9bc63fc33802b95b375a9&#45;&gt;dir_7729b3b589609220b9ffe88f5b919f3c -->
<g id="edge14" class="edge">
<title>dir_10a04bdc26b9bc63fc33802b95b375a9&#45;&gt;dir_7729b3b589609220b9ffe88f5b919f3c</title>
<path fill="none" stroke="black" d="M66.23,-143.87C85.48,-119.03 121.25,-72.85 143.49,-44.14"/>
<polygon fill="black" stroke="black" points="146.29,-46.24 149.65,-36.19 140.76,-41.95 146.29,-46.24"/>
<g id="a_edge14&#45;headlabel"><a xlink:href="dir_000011_000013.html" target="_top" xlink:title="1">
<text text-anchor="middle" x="146.33" y="-48.32" font-family="Helvetica,sans-Serif" font-size="10.00">1</text>
</a>
</g>
</g>
<!-- dir_1ae9d5707ae3e429484f972fe2e6b4f0&#45;&gt;dir_1b267b6cbe170e06255a29a9b0340896 -->
<g id="edge15" class="edge">
<title>dir_1ae9d5707ae3e429484f972fe2e6b4f0&#45;&gt;dir_1b267b6cbe170e06255a29a9b0340896</title>
<path fill="none" stroke="black" d="M149.56,-143.7C156.09,-135.39 164.03,-125.28 171.21,-116.14"/>
<polygon fill="black" stroke="black" points="174.1,-118.13 177.52,-108.1 168.59,-113.81 174.1,-118.13"/>
<g id="a_edge15&#45;headlabel"><a xlink:href="dir_000012_000009.html" target="_top" xlink:title="8">
<text text-anchor="middle" x="174.11" y="-120.21" font-family="Helvetica,sans-Serif" font-size="10.00">8</text>
</a>
</g>
</g>
<!-- dir_1ae9d5707ae3e429484f972fe2e6b4f0&#45;&gt;dir_7729b3b589609220b9ffe88f5b919f3c -->
<g id="edge16" class="edge">
<title>dir_1ae9d5707ae3e429484f972fe2e6b4f0&#45;&gt;dir_7729b3b589609220b9ffe88f5b919f3c</title>
<path fill="none" stroke="black" d="M139.22,-143.87C143.82,-119.67 152.28,-75.21 157.76,-46.39"/>
<polygon fill="black" stroke="black" points="161.27,-46.67 159.7,-36.19 154.39,-45.36 161.27,-46.67"/>
<g id="a_edge16&#45;headlabel"><a xlink:href="dir_000012_000013.html" target="_top" xlink:title="1">
<text text-anchor="middle" x="163.38" y="-48.23" font-family="Helvetica,sans-Serif" font-size="10.00">1</text>
</a>
</g>
</g>
<!-- dir_1b267b6cbe170e06255a29a9b0340896&#45;&gt;dir_7729b3b589609220b9ffe88f5b919f3c -->
<g id="edge2" class="edge">
<title>dir_1b267b6cbe170e06255a29a9b0340896&#45;&gt;dir_7729b3b589609220b9ffe88f5b919f3c</title>
<path fill="none" stroke="black" d="M178.13,-71.7C174.2,-63.9 170.22,-54.51 167.11,-45.83"/>
<polygon fill="black" stroke="black" points="170.36,-44.51 163.91,-36.1 163.71,-46.7 170.36,-44.51"/>
<g id="a_edge2&#45;headlabel"><a xlink:href="dir_000009_000013.html" target="_top" xlink:title="1">
<text text-anchor="middle" x="174.18" y="-44.54" font-family="Helvetica,sans-Serif" font-size="10.00">1</text>
</a>
</g>
</g>
<!-- dir_5c49fb1fe3cdea7da91949965a419900&#45;&gt;dir_1b267b6cbe170e06255a29a9b0340896 -->
<g id="edge11" class="edge">
<title>dir_5c49fb1fe3cdea7da91949965a419900&#45;&gt;dir_1b267b6cbe170e06255a29a9b0340896</title>
<path fill="none" stroke="black" d="M262.48,-143.7C250.4,-134.8 235.51,-123.82 222.45,-114.2"/>
<polygon fill="black" stroke="black" points="224.3,-111.22 214.18,-108.1 220.15,-116.85 224.3,-111.22"/>
<g id="a_edge11&#45;headlabel"><a xlink:href="dir_000017_000009.html" target="_top" xlink:title="4">
<text text-anchor="middle" x="228.88" y="-108.57" font-family="Helvetica,sans-Serif" font-size="10.00">4</text>
</a>
</g>
</g>
<!-- dir_5c49fb1fe3cdea7da91949965a419900&#45;&gt;dir_7729b3b589609220b9ffe88f5b919f3c -->
<g id="edge12" class="edge">
<title>dir_5c49fb1fe3cdea7da91949965a419900&#45;&gt;dir_7729b3b589609220b9ffe88f5b919f3c</title>
<path fill="none" stroke="black" d="M276.65,-143.88C266.01,-125.14 247.41,-94.75 226.96,-72 217.43,-61.4 205.73,-51.09 194.94,-42.42"/>
<polygon fill="black" stroke="black" points="196.95,-39.55 186.92,-36.13 192.63,-45.06 196.95,-39.55"/>
<g id="a_edge12&#45;headlabel"><a xlink:href="dir_000017_000013.html" target="_top" xlink:title="1">
<text text-anchor="middle" x="201.53" y="-37.03" font-family="Helvetica,sans-Serif" font-size="10.00">1</text>
</a>
</g>
</g>
<!-- dir_7729b3b589609220b9ffe88f5b919f3c&#45;&gt;dir_1b267b6cbe170e06255a29a9b0340896 -->
<g id="edge1" class="edge">
<title>dir_7729b3b589609220b9ffe88f5b919f3c&#45;&gt;dir_1b267b6cbe170e06255a29a9b0340896</title>
<path fill="none" stroke="black" d="M175.7,-36.1C179.62,-43.88 183.61,-53.26 186.74,-61.95"/>
<polygon fill="black" stroke="black" points="183.5,-63.3 189.96,-71.7 190.14,-61.1 183.5,-63.3"/>
<g id="a_edge1&#45;headlabel"><a xlink:href="dir_000013_000009.html" target="_top" xlink:title="5">
<text text-anchor="middle" x="179.67" y="-58.28" font-family="Helvetica,sans-Serif" font-size="10.00">5</text>
</a>
</g>
</g>
<!-- dir_bc504be2cd69b9810b0769a6f10cd052&#45;&gt;dir_1b267b6cbe170e06255a29a9b0340896 -->
<g id="edge9" class="edge">
<title>dir_bc504be2cd69b9810b0769a6f10cd052&#45;&gt;dir_1b267b6cbe170e06255a29a9b0340896</title>
<path fill="none" stroke="black" d="M237.57,-215.87C228.46,-191.46 211.65,-146.43 200.91,-117.64"/>
<polygon fill="black" stroke="black" points="204.16,-116.33 197.38,-108.19 197.6,-118.78 204.16,-116.33"/>
<g id="a_edge9&#45;headlabel"><a xlink:href="dir_000016_000009.html" target="_top" xlink:title="16">
<text text-anchor="middle" x="208.07" y="-116.21" font-family="Helvetica,sans-Serif" font-size="10.00">16</text>
</a>
</g>
</g>
<!-- dir_bc504be2cd69b9810b0769a6f10cd052&#45;&gt;dir_5c49fb1fe3cdea7da91949965a419900 -->
<g id="edge10" class="edge">
<title>dir_bc504be2cd69b9810b0769a6f10cd052&#45;&gt;dir_5c49fb1fe3cdea7da91949965a419900</title>
<path fill="none" stroke="black" d="M254.35,-215.7C259.23,-207.56 265.15,-197.69 270.54,-188.7"/>
<polygon fill="black" stroke="black" points="273.56,-190.48 275.7,-180.1 267.56,-186.88 273.56,-190.48"/>
<g id="a_edge10&#45;headlabel"><a xlink:href="dir_000016_000017.html" target="_top" xlink:title="1">
<text text-anchor="middle" x="274.14" y="-192.52" font-family="Helvetica,sans-Serif" font-size="10.00">1</text>
</a>
</g>
</g>
</g>
</svg>
