<?xml version="1.0" encoding="UTF-8" standalone="no"?>
<!DOCTYPE svg PUBLIC "-//W3C//DTD SVG 1.1//EN"
 "http://www.w3.org/Graphics/SVG/1.1/DTD/svg11.dtd">
<!-- Generated by graphviz version 2.43.0 (0)
 -->
<!-- Title: unilink/memory Pages: 1 -->
<svg width="114pt" height="239pt"
 viewBox="0.00 0.00 114.00 239.00" xmlns="http://www.w3.org/2000/svg" xmlns:xlink="http://www.w3.org/1999/xlink">
<g id="graph0" class="graph" transform="scale(1 1) rotate(0) translate(4 235)">
<title>unilink/memory</title>
<polygon fill="white" stroke="transparent" points="-4,4 -4,-235 110,-235 110,4 -4,4"/>
<g id="clust1" class="cluster">
<title>clusterdir_ab04957a3ce12ad8c4b1f764ce6591a4</title>
<g id="a_clust1"><a xlink:href="dir_ab04957a3ce12ad8c4b1f764ce6591a4.html" target="_top" xlink:title="unilink">
<polygon fill="#ddddee" stroke="black" points="8,-8 8,-223 98,-223 98,-8 8,-8"/>
<text text-anchor="middle" x="53" y="-211" font-family="Helvetica,sans-Serif" font-size="10.00">unilink</text>
</a>
</g>
</g>
<!-- dir_1b267b6cbe170e06255a29a9b0340896 -->
<g id="node1" class="node">
<title>dir_1b267b6cbe170e06255a29a9b0340896</title>
<g id="a_node1"><a xlink:href="dir_1b267b6cbe170e06255a29a9b0340896.html" target="_top" xlink:title="base">
<polygon fill="none" stroke="black" points="70,-124 16,-124 16,-88 70,-88 70,-124"/>
<text text-anchor="middle" x="43" y="-103.5" font-family="Helvetica,sans-Serif" font-size="10.00">base</text>
</a>
</g>
</g>
<!-- dir_7729b3b589609220b9ffe88f5b919f3c -->
<g id="node2" class="node">
<title>dir_7729b3b589609220b9ffe88f5b919f3c</title>
<g id="a_node2"><a xlink:href="dir_7729b3b589609220b9ffe88f5b919f3c.html" target="_top" xlink:title="diagnostics">
<polygon fill="none" stroke="black" points="88,-52 16,-52 16,-16 88,-16 88,-52"/>
<text text-anchor="middle" x="52" y="-31.5" font-family="Helvetica,sans-Serif" font-size="10.00">diagnostics</text>
</a>
</g>
</g>
<!-- dir_1b267b6cbe170e06255a29a9b0340896&#45;&gt;dir_7729b3b589609220b9ffe88f5b919f3c -->
<g id="edge2" class="edge">
<title>dir_1b267b6cbe170e06255a29a9b0340896&#45;&gt;dir_7729b3b589609220b9ffe88f5b919f3c</title>
<path fill="none" stroke="black" d="M39.31,-87.7C39.51,-79.98 40.47,-70.71 41.92,-62.11"/>
<polygon fill="black" stroke="black" points="45.39,-62.59 43.91,-52.1 38.53,-61.23 45.39,-62.59"/>
<g id="a_edge2&#45;headlabel"><a xlink:href="dir_000009_000013.html" target="_top" xlink:title="1">
<text text-anchor="middle" x="47.48" y="-64.17" font-family="Helvetica,sans-Serif" font-size="10.00">1</text>
</a>
</g>
</g>
<!-- dir_7729b3b589609220b9ffe88f5b919f3c&#45;&gt;dir_1b267b6cbe170e06255a29a9b0340896 -->
<g id="edge1" class="edge">
<title>dir_7729b3b589609220b9ffe88f5b919f3c&#45;&gt;dir_1b267b6cbe170e06255a29a9b0340896</title>
<path fill="none" stroke="black" d="M55.7,-52.1C55.51,-59.79 54.56,-69.05 53.12,-77.67"/>
<polygon fill="black" stroke="black" points="49.64,-77.21 51.14,-87.7 56.51,-78.56 49.64,-77.21"/>
<g id="a_edge1&#45;headlabel"><a xlink:href="dir_000013_000009.html" target="_top" xlink:title="5">
<text text-anchor="middle" x="47.55" y="-70.63" font-family="Helvetica,sans-Serif" font-size="10.00">5</text>
</a>
</g>
</g>
<!-- dir_5c49fb1fe3cdea7da91949965a419900 -->
<g id="node3" class="node">
<title>dir_5c49fb1fe3cdea7da91949965a419900</title>
<g id="a_node3"><a xlink:href="dir_5c49fb1fe3cdea7da91949965a419900.html" target="_top" xlink:title="memory">
<polygon fill="#eeeeff" stroke="black" points="82,-196 24,-196 24,-160 82,-160 82,-196"/>
<text text-anchor="middle" x="53" y="-175.5" font-family="Helvetica,sans-Serif" font-size="10.00">memory</text>
</a>
</g>
</g>
<!-- dir_5c49fb1fe3cdea7da91949965a419900&#45;&gt;dir_1b267b6cbe170e06255a29a9b0340896 -->
<g id="edge3" class="edge">
<title>dir_5c49fb1fe3cdea7da91949965a419900&#45;&gt;dir_1b267b6cbe170e06255a29a9b0340896</title>
<path fill="none" stroke="black" d="M50.53,-159.7C49.43,-151.98 48.1,-142.71 46.87,-134.11"/>
<polygon fill="black" stroke="black" points="50.32,-133.51 45.44,-124.1 43.39,-134.5 50.32,-133.51"/>
<g id="a_edge3&#45;headlabel"><a xlink:href="dir_000017_000009.html" target="_top" xlink:title="4">
<text text-anchor="middle" x="53.64" y="-134.17" font-family="Helvetica,sans-Serif" font-size="10.00">4</text>
</a>
</g>
</g>
<!-- dir_5c49fb1fe3cdea7da91949965a419900&#45;&gt;dir_7729b3b589609220b9ffe88f5b919f3c -->
<g id="edge4" class="edge">
<title>dir_5c49fb1fe3cdea7da91949965a419900&#45;&gt;dir_7729b3b589609220b9ffe88f5b919f3c</title>
<path fill="none" stroke="black" d="M64.05,-159.61C69.74,-149.62 76.08,-136.58 79,-124 82.62,-108.41 82.73,-103.56 79,-88 76.79,-78.81 72.71,-69.41 68.38,-61.13"/>
<polygon fill="black" stroke="black" points="71.4,-59.36 63.47,-52.33 65.28,-62.77 71.4,-59.36"/>
<g id="a_edge4&#45;headlabel"><a xlink:href="dir_000017_000013.html" target="_top" xlink:title="1">
<text text-anchor="middle" x="75.63" y="-58.61" font-family="Helvetica,sans-Serif" font-size="10.00">1</text>
</a>
</g>
</g>
</g>
</svg>
