<?xml version="1.0" encoding="UTF-8" standalone="no"?>
<!DOCTYPE svg PUBLIC "-//W3C//DTD SVG 1.1//EN"
 "http://www.w3.org/Graphics/SVG/1.1/DTD/svg11.dtd">
<!-- Generated by graphviz version 2.43.0 (0)
 -->
<!-- Title: unilink Pages: 1 -->
<!--zoomable 499 -->

<svg id="main" version="1.1" xmlns="http://www.w3.org/2000/svg" xmlns:xlink="http://www.w3.org/1999/xlink" xml:space="preserve" onload="init(evt)">
<style type="text/css"><![CDATA[
.node, .edge {opacity: 0.7;}
.node.selected, .edge.selected {opacity: 1;}
.edge:hover path { stroke: red; }
.edge:hover polygon { stroke: red; fill: red; }
]]></style>

<defs>
  <circle id="rim" cx="0" cy="0" r="7"/>
  <circle id="rim2" cx="0" cy="0" r="3.5"/>
  <g id="zoomPlus">
    <use xlink:href="#rim" fill="#404040"><set attributeName="fill" to="#808080" begin="zoomplus.mouseover" end="zoomplus.mouseout"/></use>
    <path d="M-4,0h8M0,-4v8" fill="none" stroke="white" stroke-width="1.5" pointer-events="none"/>
  </g>
  <g id="zoomMin">
    <use xlink:href="#rim" fill="#404040"><set attributeName="fill" to="#808080" begin="zoomminus.mouseover" end="zoomminus.mouseout"/></use>
    <path d="M-4,0h8" fill="none" stroke="white" stroke-width="1.5" pointer-events="none"/>
  </g>
  <g id="arrowUp" transform="translate(30 24)">
    <use xlink:href="#rim"/>
    <path pointer-events="none" fill="none" stroke="white" stroke-width="1.5" d="M0,-3.0v7 M-2.5,-0.5L0,-3.0L2.5,-0.5"/>
  </g>
  <g id="arrowRight" transform="rotate(90) translate(36 -43)">
    <use xlink:href="#rim"/>
    <path pointer-events="none" fill="none" stroke="white" stroke-width="1.5" d="M0,-3.0v7 M-2.5,-0.5L0,-3.0L2.5,-0.5"/>
  </g>
  <g id="arrowDown" transform="rotate(180) translate(-30 -48)">
    <use xlink:href="#rim"/>
    <path pointer-events="none" fill="none" stroke="white" stroke-width="1.5" d="M0,-3.0v7 M-2.5,-0.5L0,-3.0L2.5,-0.5"/>
  </g>
  <g id="arrowLeft" transform="rotate(270) translate(-36 17)">
    <use xlink:href="#rim"/>
    <path pointer-events="none" fill="none" stroke="white" stroke-width="1.5" d="M0,-3.0v7 M-2.5,-0.5L0,-3.0L2.5,-0.5"/>
  </g>
  <g id="resetDef">
    <use xlink:href="#rim2" fill="#404040"><set attributeName="fill" to="#808080" begin="reset.mouseover" end="reset.mouseout"/></use>
  </g>
</defs>
<script type="application/ecmascript">
var viewWidth = 492;
var viewHeight = 499;
var sectionId = 'dynsection-0';
</script>
<script type="application/ecmascript" xlink:href="svg.min.js"/>
<svg id="graph" class="graph">
<g id="viewport">
<title>unilink</title>
<g id="clust1" class="cluster">
<title>clusterdir_ab04957a3ce12ad8c4b1f764ce6591a4</title>
<g id="a_clust1"><a xlink:href="dir_ab04957a3ce12ad8c4b1f764ce6591a4.html" target="_top">
<polygon fill="#edf3f7" stroke="#404040" stroke-width="2" points="8,-8 8,-483 476,-483 476,-8 8,-8"/>
</a>
</g>
</g>
<!-- dir_ab04957a3ce12ad8c4b1f764ce6591a4 -->
<g id="node1" class="node">
<title>dir_ab04957a3ce12ad8c4b1f764ce6591a4</title>
<text text-anchor="middle" x="247" y="-463" font-family="Helvetica,sans-Serif" font-size="10.00">unilink</text>
</g>
<!-- dir_1b267b6cbe170e06255a29a9b0340896 -->
<g id="node2" class="node">
<title>dir_1b267b6cbe170e06255a29a9b0340896</title>
<g id="a_node2"><a xlink:href="dir_1b267b6cbe170e06255a29a9b0340896.html" target="_top" xlink:title="base">
<polygon fill="#a2c5d6" stroke="#404040" points="239,-420 199,-420 199,-401 239,-401 239,-420"/>
<text text-anchor="middle" x="219" y="-408" font-family="Helvetica,sans-Serif" font-size="10.00">base</text>
</a>
</g>
</g>
<!-- dir_ab04957a3ce12ad8c4b1f764ce6591a4&#45;&gt;dir_1b267b6cbe170e06255a29a9b0340896 -->
<g id="edge1" class="edge">
<title>dir_ab04957a3ce12ad8c4b1f764ce6591a4&#45;&gt;dir_1b267b6cbe170e06255a29a9b0340896</title>
<g id="a_edge1"><a xlink:href="dir_000028_000001.html" target="_top">
<path fill="none" stroke="#63b8ff" d="M242.38,-455.75C238.54,-448.49 232.98,-437.95 228.24,-428.98"/>
<polygon fill="#63b8ff" stroke="#63b8ff" points="231.3,-427.3 223.54,-420.09 225.11,-430.57 231.3,-427.3"/>
</a>
</g>
<g id="a_edge1&#45;headlabel"><a xlink:href="dir_000028_000001.html" target="_top" xlink:title="110">
<text text-anchor="middle" x="235.49" y="-426.65" font-family="Helvetica,sans-Serif" font-size="10.00" fill="#63b8ff">110</text>
</a>
</g>
</g>
<!-- dir_e4a9c84f290adef67ceee075c03178ea -->
<g id="node3" class="node">
<title>dir_e4a9c84f290adef67ceee075c03178ea</title>
<g id="a_node3"><a xlink:href="dir_e4a9c84f290adef67ceee075c03178ea.html" target="_top" xlink:title="builder">
<polygon fill="#a2c5d6" stroke="#404040" points="118,-145 68,-145 68,-126 118,-126 118,-145"/>
<text text-anchor="middle" x="93" y="-133" font-family="Helvetica,sans-Serif" font-size="10.00">builder</text>
</a>
</g>
</g>
<!-- dir_ab04957a3ce12ad8c4b1f764ce6591a4&#45;&gt;dir_e4a9c84f290adef67ceee075c03178ea -->
<g id="edge4" class="edge">
<title>dir_ab04957a3ce12ad8c4b1f764ce6591a4&#45;&gt;dir_e4a9c84f290adef67ceee075c03178ea</title>
<g id="a_edge4"><a xlink:href="dir_000028_000003.html" target="_top">
<path fill="none" stroke="#63b8ff" d="M221.72,-458.15C182.53,-446.83 108.2,-419.1 75,-365 33.26,-296.98 67.96,-195.31 84.96,-154.45"/>
<polygon fill="#63b8ff" stroke="#63b8ff" points="88.19,-155.79 88.93,-145.22 81.76,-153.02 88.19,-155.79"/>
</a>
</g>
<g id="a_edge4&#45;headlabel"><a xlink:href="dir_000028_000003.html" target="_top" xlink:title="8">
<text text-anchor="middle" x="89.37" y="-157.72" font-family="Helvetica,sans-Serif" font-size="10.00" fill="#63b8ff">8</text>
</a>
</g>
</g>
<!-- dir_7729b3b589609220b9ffe88f5b919f3c -->
<g id="node6" class="node">
<title>dir_7729b3b589609220b9ffe88f5b919f3c</title>
<g id="a_node6"><a xlink:href="dir_7729b3b589609220b9ffe88f5b919f3c.html" target="_top" xlink:title="diagnostics">
<polygon fill="#a2c5d6" stroke="#404040" points="330,-365 258,-365 258,-346 330,-346 330,-365"/>
<text text-anchor="middle" x="294" y="-353" font-family="Helvetica,sans-Serif" font-size="10.00">diagnostics</text>
</a>
</g>
</g>
<!-- dir_ab04957a3ce12ad8c4b1f764ce6591a4&#45;&gt;dir_7729b3b589609220b9ffe88f5b919f3c -->
<g id="edge3" class="edge">
<title>dir_ab04957a3ce12ad8c4b1f764ce6591a4&#45;&gt;dir_7729b3b589609220b9ffe88f5b919f3c</title>
<g id="a_edge3"><a xlink:href="dir_000028_000009.html" target="_top">
<path fill="none" stroke="#63b8ff" d="M250.85,-455.66C258.53,-438.01 275.9,-398.09 286.11,-374.64"/>
<polygon fill="#63b8ff" stroke="#63b8ff" points="289.45,-375.72 290.23,-365.16 283.03,-372.93 289.45,-375.72"/>
</a>
</g>
<g id="a_edge3&#45;headlabel"><a xlink:href="dir_000028_000009.html" target="_top" xlink:title="35">
<text text-anchor="middle" x="290.62" y="-377.65" font-family="Helvetica,sans-Serif" font-size="10.00" fill="#63b8ff">35</text>
</a>
</g>
</g>
<!-- dir_34a3e415d531ea922631bc75d11c4e39 -->
<g id="node13" class="node">
<title>dir_34a3e415d531ea922631bc75d11c4e39</title>
<g id="a_node13"><a xlink:href="dir_34a3e415d531ea922631bc75d11c4e39.html" target="_top" xlink:title="wrapper">
<polygon fill="#a2c5d6" stroke="#404040" points="308,-310 252,-310 252,-291 308,-291 308,-310"/>
<text text-anchor="middle" x="280" y="-298" font-family="Helvetica,sans-Serif" font-size="10.00">wrapper</text>
</a>
</g>
</g>
<!-- dir_ab04957a3ce12ad8c4b1f764ce6591a4&#45;&gt;dir_34a3e415d531ea922631bc75d11c4e39 -->
<g id="edge2" class="edge">
<title>dir_ab04957a3ce12ad8c4b1f764ce6591a4&#45;&gt;dir_34a3e415d531ea922631bc75d11c4e39</title>
<g id="a_edge2"><a xlink:href="dir_000028_000031.html" target="_top">
<path fill="none" stroke="#63b8ff" d="M259.61,-455.89C280.82,-440.54 322.88,-406.19 339,-365 342.08,-357.14 342.77,-353.56 339,-346 332.43,-332.82 319.9,-322.52 308.07,-315.16"/>
<polygon fill="#63b8ff" stroke="#63b8ff" points="309.68,-312.05 299.27,-310.1 306.2,-318.12 309.68,-312.05"/>
</a>
</g>
<g id="a_edge2&#45;headlabel"><a xlink:href="dir_000028_000031.html" target="_top" xlink:title="19">
<text text-anchor="middle" x="314.21" y="-308.88" font-family="Helvetica,sans-Serif" font-size="10.00" fill="#63b8ff">19</text>
</a>
</g>
</g>
<!-- dir_1b267b6cbe170e06255a29a9b0340896&#45;&gt;dir_7729b3b589609220b9ffe88f5b919f3c -->
<g id="edge5" class="edge">
<title>dir_1b267b6cbe170e06255a29a9b0340896&#45;&gt;dir_7729b3b589609220b9ffe88f5b919f3c</title>
<g id="a_edge5"><a xlink:href="dir_000001_000009.html" target="_top">
<path fill="none" stroke="#63b8ff" d="M225.94,-400.98C235.66,-392.84 252.93,-380.41 267.76,-370.76"/>
<polygon fill="#63b8ff" stroke="#63b8ff" points="270.01,-373.48 276.58,-365.17 266.26,-367.56 270.01,-373.48"/>
</a>
</g>
<g id="a_edge5&#45;headlabel"><a xlink:href="dir_000001_000009.html" target="_top" xlink:title="1">
<text text-anchor="middle" x="268.49" y="-375.3" font-family="Helvetica,sans-Serif" font-size="10.00" fill="#63b8ff">1</text>
</a>
</g>
</g>
<!-- dir_e4a9c84f290adef67ceee075c03178ea&#45;&gt;dir_1b267b6cbe170e06255a29a9b0340896 -->
<g id="edge7" class="edge">
<title>dir_e4a9c84f290adef67ceee075c03178ea&#45;&gt;dir_1b267b6cbe170e06255a29a9b0340896</title>
<g id="a_edge7"><a xlink:href="dir_000003_000001.html" target="_top">
<path fill="none" stroke="#63b8ff" d="M90.84,-145.12C86.47,-163.33 77,-207.16 77,-244.5 77,-301.5 77,-301.5 77,-301.5 77,-330.5 72.6,-343.45 92,-365 116.78,-392.53 159.57,-403.03 188.56,-407.03"/>
<polygon fill="#63b8ff" stroke="#63b8ff" points="188.22,-410.51 198.56,-408.23 189.05,-403.56 188.22,-410.51"/>
</a>
</g>
<g id="a_edge7&#45;headlabel"><a xlink:href="dir_000003_000001.html" target="_top" xlink:title="8">
<text text-anchor="middle" x="184.31" y="-410.41" font-family="Helvetica,sans-Serif" font-size="10.00" fill="#63b8ff">8</text>
</a>
</g>
</g>
<!-- dir_10a04bdc26b9bc63fc33802b95b375a9 -->
<g id="node4" class="node">
<title>dir_10a04bdc26b9bc63fc33802b95b375a9</title>
<g id="a_node4"><a xlink:href="dir_10a04bdc26b9bc63fc33802b95b375a9.html" target="_top" xlink:title="concurrency">
<polygon fill="#a2c5d6" stroke="#404040" points="215,-90 139,-90 139,-71 215,-71 215,-90"/>
<text text-anchor="middle" x="177" y="-78" font-family="Helvetica,sans-Serif" font-size="10.00">concurrency</text>
</a>
</g>
</g>
<!-- dir_e4a9c84f290adef67ceee075c03178ea&#45;&gt;dir_10a04bdc26b9bc63fc33802b95b375a9 -->
<g id="edge6" class="edge">
<title>dir_e4a9c84f290adef67ceee075c03178ea&#45;&gt;dir_10a04bdc26b9bc63fc33802b95b375a9</title>
<g id="a_edge6"><a xlink:href="dir_000003_000004.html" target="_top">
<path fill="none" stroke="#63b8ff" d="M106.5,-125.98C119.4,-117.84 139.1,-105.41 154.4,-95.76"/>
<polygon fill="#63b8ff" stroke="#63b8ff" points="156.67,-98.47 163.26,-90.17 152.93,-92.55 156.67,-98.47"/>
</a>
</g>
<g id="a_edge6&#45;headlabel"><a xlink:href="dir_000003_000004.html" target="_top" xlink:title="1">
<text text-anchor="middle" x="155.14" y="-100.29" font-family="Helvetica,sans-Serif" font-size="10.00" fill="#63b8ff">1</text>
</a>
</g>
</g>
<!-- dir_e4a9c84f290adef67ceee075c03178ea&#45;&gt;dir_7729b3b589609220b9ffe88f5b919f3c -->
<g id="edge10" class="edge">
<title>dir_e4a9c84f290adef67ceee075c03178ea&#45;&gt;dir_7729b3b589609220b9ffe88f5b919f3c</title>
<g id="a_edge10"><a xlink:href="dir_000003_000009.html" target="_top">
<path fill="none" stroke="#63b8ff" d="M95.54,-145.24C104.22,-173.59 135.48,-263.76 194,-310 212.24,-324.41 235.88,-335.21 255.6,-342.56"/>
<polygon fill="#63b8ff" stroke="#63b8ff" points="254.62,-345.93 265.21,-345.99 256.97,-339.33 254.62,-345.93"/>
</a>
</g>
<g id="a_edge10&#45;headlabel"><a xlink:href="dir_000003_000009.html" target="_top" xlink:title="5">
<text text-anchor="middle" x="250.28" y="-344.89" font-family="Helvetica,sans-Serif" font-size="10.00" fill="#63b8ff">5</text>
</a>
</g>
</g>
<!-- dir_b00f3e277c8b8a573b84ad405cb4170d -->
<g id="node8" class="node">
<title>dir_b00f3e277c8b8a573b84ad405cb4170d</title>
<g id="a_node8"><a xlink:href="dir_b00f3e277c8b8a573b84ad405cb4170d.html" target="_top" xlink:title="framer">
<polygon fill="#a2c5d6" stroke="#404040" points="121,-90 71,-90 71,-71 121,-71 121,-90"/>
<text text-anchor="middle" x="96" y="-78" font-family="Helvetica,sans-Serif" font-size="10.00">framer</text>
</a>
</g>
</g>
<!-- dir_e4a9c84f290adef67ceee075c03178ea&#45;&gt;dir_b00f3e277c8b8a573b84ad405cb4170d -->
<g id="edge11" class="edge">
<title>dir_e4a9c84f290adef67ceee075c03178ea&#45;&gt;dir_b00f3e277c8b8a573b84ad405cb4170d</title>
<g id="a_edge11"><a xlink:href="dir_000003_000012.html" target="_top">
<path fill="none" stroke="#63b8ff" d="M93.5,-125.75C93.89,-118.8 94.45,-108.85 94.95,-100.13"/>
<polygon fill="#63b8ff" stroke="#63b8ff" points="98.44,-100.27 95.51,-90.09 91.45,-99.88 98.44,-100.27"/>
</a>
</g>
<g id="a_edge11&#45;headlabel"><a xlink:href="dir_000003_000012.html" target="_top" xlink:title="3">
<text text-anchor="middle" x="101.07" y="-101.52" font-family="Helvetica,sans-Serif" font-size="10.00" fill="#63b8ff">3</text>
</a>
</g>
</g>
<!-- dir_5c49fb1fe3cdea7da91949965a419900 -->
<g id="node10" class="node">
<title>dir_5c49fb1fe3cdea7da91949965a419900</title>
<g id="a_node10"><a xlink:href="dir_5c49fb1fe3cdea7da91949965a419900.html" target="_top" xlink:title="memory">
<polygon fill="#a2c5d6" stroke="#404040" points="263,-35 205,-35 205,-16 263,-16 263,-35"/>
<text text-anchor="middle" x="234" y="-23" font-family="Helvetica,sans-Serif" font-size="10.00">memory</text>
</a>
</g>
</g>
<!-- dir_e4a9c84f290adef67ceee075c03178ea&#45;&gt;dir_5c49fb1fe3cdea7da91949965a419900 -->
<g id="edge9" class="edge">
<title>dir_e4a9c84f290adef67ceee075c03178ea&#45;&gt;dir_5c49fb1fe3cdea7da91949965a419900</title>
<g id="a_edge9"><a xlink:href="dir_000003_000014.html" target="_top">
<path fill="none" stroke="#63b8ff" d="M82.85,-125.65C69.3,-112.76 48.48,-88.46 62,-71 78.12,-50.18 149.22,-37.34 194.81,-31.1"/>
<polygon fill="#63b8ff" stroke="#63b8ff" points="195.5,-34.53 204.96,-29.76 194.59,-27.59 195.5,-34.53"/>
</a>
</g>
<g id="a_edge9&#45;headlabel"><a xlink:href="dir_000003_000014.html" target="_top" xlink:title="1">
<text text-anchor="middle" x="192.31" y="-35.32" font-family="Helvetica,sans-Serif" font-size="10.00" fill="#63b8ff">1</text>
</a>
</g>
</g>
<!-- dir_e4a9c84f290adef67ceee075c03178ea&#45;&gt;dir_34a3e415d531ea922631bc75d11c4e39 -->
<g id="edge8" class="edge">
<title>dir_e4a9c84f290adef67ceee075c03178ea&#45;&gt;dir_34a3e415d531ea922631bc75d11c4e39</title>
<g id="a_edge8"><a xlink:href="dir_000003_000031.html" target="_top">
<path fill="none" stroke="#63b8ff" d="M98.49,-145.28C112.11,-166.47 149.4,-221.14 192,-255 208.85,-268.39 230.37,-279.36 247.92,-287.06"/>
<polygon fill="#63b8ff" stroke="#63b8ff" points="246.62,-290.31 257.2,-290.99 249.36,-283.87 246.62,-290.31"/>
</a>
</g>
<g id="a_edge8&#45;headlabel"><a xlink:href="dir_000003_000031.html" target="_top" xlink:title="8">
<text text-anchor="middle" x="242.21" y="-289.02" font-family="Helvetica,sans-Serif" font-size="10.00" fill="#63b8ff">8</text>
</a>
</g>
</g>
<!-- dir_10a04bdc26b9bc63fc33802b95b375a9&#45;&gt;dir_1b267b6cbe170e06255a29a9b0340896 -->
<g id="edge12" class="edge">
<title>dir_10a04bdc26b9bc63fc33802b95b375a9&#45;&gt;dir_1b267b6cbe170e06255a29a9b0340896</title>
<g id="a_edge12"><a xlink:href="dir_000004_000001.html" target="_top">
<path fill="none" stroke="#63b8ff" d="M176.7,-90.14C176.35,-102.36 175.93,-125.41 177,-145 182.34,-243.21 177,-269.62 201,-365 203.26,-373.99 206.96,-383.57 210.41,-391.53"/>
<polygon fill="#63b8ff" stroke="#63b8ff" points="207.34,-393.23 214.68,-400.88 213.71,-390.32 207.34,-393.23"/>
</a>
</g>
<g id="a_edge12&#45;headlabel"><a xlink:href="dir_000004_000001.html" target="_top" xlink:title="2">
<text text-anchor="middle" x="203.27" y="-388.64" font-family="Helvetica,sans-Serif" font-size="10.00" fill="#63b8ff">2</text>
</a>
</g>
</g>
<!-- dir_10a04bdc26b9bc63fc33802b95b375a9&#45;&gt;dir_7729b3b589609220b9ffe88f5b919f3c -->
<g id="edge13" class="edge">
<title>dir_10a04bdc26b9bc63fc33802b95b375a9&#45;&gt;dir_7729b3b589609220b9ffe88f5b919f3c</title>
<g id="a_edge13"><a xlink:href="dir_000004_000009.html" target="_top">
<path fill="none" stroke="#63b8ff" d="M177.62,-90.17C180.27,-122.1 192.9,-235.22 243,-310 250.77,-321.59 262.3,-332.01 272.44,-339.84"/>
<polygon fill="#63b8ff" stroke="#63b8ff" points="270.38,-342.67 280.51,-345.78 274.53,-337.03 270.38,-342.67"/>
</a>
</g>
<g id="a_edge13&#45;headlabel"><a xlink:href="dir_000004_000009.html" target="_top" xlink:title="1">
<text text-anchor="middle" x="265.8" y="-340.33" font-family="Helvetica,sans-Serif" font-size="10.00" fill="#63b8ff">1</text>
</a>
</g>
</g>
<!-- dir_1ae9d5707ae3e429484f972fe2e6b4f0 -->
<g id="node5" class="node">
<title>dir_1ae9d5707ae3e429484f972fe2e6b4f0</title>
<g id="a_node5"><a xlink:href="dir_1ae9d5707ae3e429484f972fe2e6b4f0.html" target="_top" xlink:title="config">
<polygon fill="#a2c5d6" stroke="#404040" points="388,-145 342,-145 342,-126 388,-126 388,-145"/>
<text text-anchor="middle" x="365" y="-133" font-family="Helvetica,sans-Serif" font-size="10.00">config</text>
</a>
</g>
</g>
<!-- dir_1ae9d5707ae3e429484f972fe2e6b4f0&#45;&gt;dir_1b267b6cbe170e06255a29a9b0340896 -->
<g id="edge14" class="edge">
<title>dir_1ae9d5707ae3e429484f972fe2e6b4f0&#45;&gt;dir_1b267b6cbe170e06255a29a9b0340896</title>
<g id="a_edge14"><a xlink:href="dir_000005_000001.html" target="_top">
<path fill="none" stroke="#63b8ff" d="M368.89,-145.14C379.96,-171.05 409.49,-250.01 387,-310 365.56,-367.18 291.1,-393.16 248.86,-403.53"/>
<polygon fill="#63b8ff" stroke="#63b8ff" points="248.07,-400.12 239.12,-405.79 249.65,-406.94 248.07,-400.12"/>
</a>
</g>
<g id="a_edge14&#45;headlabel"><a xlink:href="dir_000005_000001.html" target="_top" xlink:title="8">
<text text-anchor="middle" x="250.93" y="-394.04" font-family="Helvetica,sans-Serif" font-size="10.00" fill="#63b8ff">8</text>
</a>
</g>
</g>
<!-- dir_1ae9d5707ae3e429484f972fe2e6b4f0&#45;&gt;dir_7729b3b589609220b9ffe88f5b919f3c -->
<g id="edge15" class="edge">
<title>dir_1ae9d5707ae3e429484f972fe2e6b4f0&#45;&gt;dir_7729b3b589609220b9ffe88f5b919f3c</title>
<g id="a_edge15"><a xlink:href="dir_000005_000009.html" target="_top">
<path fill="none" stroke="#63b8ff" d="M367.7,-145.14C373.49,-165.12 385.52,-215.84 372,-255 360.09,-289.49 330.75,-321.15 311.65,-339.1"/>
<polygon fill="#63b8ff" stroke="#63b8ff" points="309.2,-336.6 304.17,-345.93 313.91,-341.78 309.2,-336.6"/>
</a>
</g>
<g id="a_edge15&#45;headlabel"><a xlink:href="dir_000005_000009.html" target="_top" xlink:title="1">
<text text-anchor="middle" x="309.94" y="-329.58" font-family="Helvetica,sans-Serif" font-size="10.00" fill="#63b8ff">1</text>
</a>
</g>
</g>
<!-- dir_c0762e6ec542b01f78d88e78222bbfbe -->
<g id="node12" class="node">
<title>dir_c0762e6ec542b01f78d88e78222bbfbe</title>
<g id="a_node12"><a xlink:href="dir_c0762e6ec542b01f78d88e78222bbfbe.html" target="_top" xlink:title="util">
<polygon fill="#a2c5d6" stroke="#404040" points="423,-90 391,-90 391,-71 423,-71 423,-90"/>
<text text-anchor="middle" x="407" y="-78" font-family="Helvetica,sans-Serif" font-size="10.00">util</text>
</a>
</g>
</g>
<!-- dir_1ae9d5707ae3e429484f972fe2e6b4f0&#45;&gt;dir_c0762e6ec542b01f78d88e78222bbfbe -->
<g id="edge16" class="edge">
<title>dir_1ae9d5707ae3e429484f972fe2e6b4f0&#45;&gt;dir_c0762e6ec542b01f78d88e78222bbfbe</title>
<g id="a_edge16"><a xlink:href="dir_000005_000030.html" target="_top">
<path fill="none" stroke="#63b8ff" d="M371.94,-125.75C377.87,-118.26 386.57,-107.28 393.82,-98.13"/>
<polygon fill="#63b8ff" stroke="#63b8ff" points="396.73,-100.1 400.19,-90.09 391.24,-95.75 396.73,-100.1"/>
</a>
</g>
<g id="a_edge16&#45;headlabel"><a xlink:href="dir_000005_000030.html" target="_top" xlink:title="3">
<text text-anchor="middle" x="396.72" y="-102.18" font-family="Helvetica,sans-Serif" font-size="10.00" fill="#63b8ff">3</text>
</a>
</g>
</g>
<!-- dir_7729b3b589609220b9ffe88f5b919f3c&#45;&gt;dir_1b267b6cbe170e06255a29a9b0340896 -->
<g id="edge17" class="edge">
<title>dir_7729b3b589609220b9ffe88f5b919f3c&#45;&gt;dir_1b267b6cbe170e06255a29a9b0340896</title>
<g id="a_edge17"><a xlink:href="dir_000009_000001.html" target="_top">
<path fill="none" stroke="#63b8ff" d="M286.88,-365.17C277.06,-373.37 259.75,-385.81 244.96,-395.42"/>
<polygon fill="#63b8ff" stroke="#63b8ff" points="242.75,-392.68 236.16,-400.98 246.49,-398.6 242.75,-392.68"/>
</a>
</g>
<g id="a_edge17&#45;headlabel"><a xlink:href="dir_000009_000001.html" target="_top" xlink:title="4">
<text text-anchor="middle" x="244.27" y="-385.86" font-family="Helvetica,sans-Serif" font-size="10.00" fill="#63b8ff">4</text>
</a>
</g>
</g>
<!-- dir_7729b3b589609220b9ffe88f5b919f3c&#45;&gt;dir_34a3e415d531ea922631bc75d11c4e39 -->
<g id="edge18" class="edge">
<title>dir_7729b3b589609220b9ffe88f5b919f3c&#45;&gt;dir_34a3e415d531ea922631bc75d11c4e39</title>
<g id="a_edge18"><a xlink:href="dir_000009_000031.html" target="_top">
<path fill="none" stroke="#63b8ff" d="M286.52,-345.75C283.19,-338.8 280.13,-328.85 278.44,-320.13"/>
<polygon fill="#63b8ff" stroke="#63b8ff" points="281.9,-319.55 277.14,-310.09 274.96,-320.46 281.9,-319.55"/>
</a>
</g>
<g id="a_edge18&#45;headlabel"><a xlink:href="dir_000009_000031.html" target="_top" xlink:title="1">
<text text-anchor="middle" x="285.18" y="-320.25" font-family="Helvetica,sans-Serif" font-size="10.00" fill="#63b8ff">1</text>
</a>
</g>
</g>
<!-- dir_838e1c99d1ddce8103655997e56a6c46 -->
<g id="node7" class="node">
<title>dir_838e1c99d1ddce8103655997e56a6c46</title>
<g id="a_node7"><a xlink:href="dir_838e1c99d1ddce8103655997e56a6c46.html" target="_top" xlink:title="factory">
<polygon fill="#a2c5d6" stroke="#404040" points="287.5,-255 236.5,-255 236.5,-236 287.5,-236 287.5,-255"/>
<text text-anchor="middle" x="262" y="-243" font-family="Helvetica,sans-Serif" font-size="10.00">factory</text>
</a>
</g>
</g>
<!-- dir_838e1c99d1ddce8103655997e56a6c46&#45;&gt;dir_1b267b6cbe170e06255a29a9b0340896 -->
<g id="edge20" class="edge">
<title>dir_838e1c99d1ddce8103655997e56a6c46&#45;&gt;dir_1b267b6cbe170e06255a29a9b0340896</title>
<g id="a_edge20"><a xlink:href="dir_000011_000001.html" target="_top">
<path fill="none" stroke="#63b8ff" d="M257.67,-255.17C253.42,-263.99 246.99,-278.17 243,-291 232.28,-325.45 225.14,-367.06 221.6,-390.68"/>
<polygon fill="#63b8ff" stroke="#63b8ff" points="218.11,-390.33 220.15,-400.72 225.04,-391.33 218.11,-390.33"/>
</a>
</g>
<g id="a_edge20&#45;headlabel"><a xlink:href="dir_000011_000001.html" target="_top" xlink:title="1">
<text text-anchor="middle" x="215.82" y="-383.86" font-family="Helvetica,sans-Serif" font-size="10.00" fill="#63b8ff">1</text>
</a>
</g>
</g>
<!-- dir_838e1c99d1ddce8103655997e56a6c46&#45;&gt;dir_1ae9d5707ae3e429484f972fe2e6b4f0 -->
<g id="edge19" class="edge">
<title>dir_838e1c99d1ddce8103655997e56a6c46&#45;&gt;dir_1ae9d5707ae3e429484f972fe2e6b4f0</title>
<g id="a_edge19"><a xlink:href="dir_000011_000005.html" target="_top">
<path fill="none" stroke="#63b8ff" d="M273.81,-235.99C285.21,-227.51 302.65,-213.79 316,-200 330.17,-185.37 344.14,-166.73 353.52,-153.44"/>
<polygon fill="#63b8ff" stroke="#63b8ff" points="356.4,-155.42 359.22,-145.21 350.65,-151.43 356.4,-155.42"/>
</a>
</g>
<g id="a_edge19&#45;headlabel"><a xlink:href="dir_000011_000005.html" target="_top" xlink:title="5">
<text text-anchor="middle" x="356.69" y="-157.49" font-family="Helvetica,sans-Serif" font-size="10.00" fill="#63b8ff">5</text>
</a>
</g>
</g>
<!-- dir_bc504be2cd69b9810b0769a6f10cd052 -->
<g id="node9" class="node">
<title>dir_bc504be2cd69b9810b0769a6f10cd052</title>
<g id="a_node9"><a xlink:href="dir_bc504be2cd69b9810b0769a6f10cd052.html" target="_top" xlink:title="interface">
<polygon fill="#a2c5d6" stroke="#404040" points="256,-145 196,-145 196,-126 256,-126 256,-145"/>
<text text-anchor="middle" x="226" y="-133" font-family="Helvetica,sans-Serif" font-size="10.00">interface</text>
</a>
</g>
</g>
<!-- dir_838e1c99d1ddce8103655997e56a6c46&#45;&gt;dir_bc504be2cd69b9810b0769a6f10cd052 -->
<g id="edge22" class="edge">
<title>dir_838e1c99d1ddce8103655997e56a6c46&#45;&gt;dir_bc504be2cd69b9810b0769a6f10cd052</title>
<g id="a_edge22"><a xlink:href="dir_000011_000013.html" target="_top">
<path fill="none" stroke="#63b8ff" d="M255.88,-235.73C250.11,-227.05 241.69,-213.19 237,-200 231.84,-185.49 229.05,-168.22 227.57,-155.36"/>
<polygon fill="#63b8ff" stroke="#63b8ff" points="231.05,-154.97 226.58,-145.37 224.08,-155.66 231.05,-154.97"/>
</a>
</g>
<g id="a_edge22&#45;headlabel"><a xlink:href="dir_000011_000013.html" target="_top" xlink:title="1">
<text text-anchor="middle" x="234.23" y="-155.77" font-family="Helvetica,sans-Serif" font-size="10.00" fill="#63b8ff">1</text>
</a>
</g>
</g>
<!-- dir_5c26b0c9b7e0d5acf946c15b5d9d58d6 -->
<g id="node11" class="node">
<title>dir_5c26b0c9b7e0d5acf946c15b5d9d58d6</title>
<g id="a_node11"><a xlink:href="dir_5c26b0c9b7e0d5acf946c15b5d9d58d6.html" target="_top" xlink:title="transport">
<polygon fill="#a2c5d6" stroke="#404040" points="306.5,-200 245.5,-200 245.5,-181 306.5,-181 306.5,-200"/>
<text text-anchor="middle" x="276" y="-188" font-family="Helvetica,sans-Serif" font-size="10.00">transport</text>
</a>
</g>
</g>
<!-- dir_838e1c99d1ddce8103655997e56a6c46&#45;&gt;dir_5c26b0c9b7e0d5acf946c15b5d9d58d6 -->
<g id="edge21" class="edge">
<title>dir_838e1c99d1ddce8103655997e56a6c46&#45;&gt;dir_5c26b0c9b7e0d5acf946c15b5d9d58d6</title>
<g id="a_edge21"><a xlink:href="dir_000011_000021.html" target="_top">
<path fill="none" stroke="#63b8ff" d="M264.31,-235.75C266.17,-228.72 268.84,-218.62 271.15,-209.84"/>
<polygon fill="#63b8ff" stroke="#63b8ff" points="274.56,-210.65 273.73,-200.09 267.79,-208.86 274.56,-210.65"/>
</a>
</g>
<g id="a_edge21&#45;headlabel"><a xlink:href="dir_000011_000021.html" target="_top" xlink:title="9">
<text text-anchor="middle" x="276.39" y="-212.35" font-family="Helvetica,sans-Serif" font-size="10.00" fill="#63b8ff">9</text>
</a>
</g>
</g>
<!-- dir_b00f3e277c8b8a573b84ad405cb4170d&#45;&gt;dir_1b267b6cbe170e06255a29a9b0340896 -->
<g id="edge23" class="edge">
<title>dir_b00f3e277c8b8a573b84ad405cb4170d&#45;&gt;dir_1b267b6cbe170e06255a29a9b0340896</title>
<g id="a_edge23"><a xlink:href="dir_000012_000001.html" target="_top">
<path fill="none" stroke="#63b8ff" d="M85.56,-90.13C76.58,-98.3 64.26,-111.45 59,-126 40.91,-176.06 41.87,-323.34 75,-365 102.19,-399.19 155.15,-407.71 188.71,-409.5"/>
<polygon fill="#63b8ff" stroke="#63b8ff" points="188.75,-413.01 198.87,-409.87 189,-406.01 188.75,-413.01"/>
</a>
</g>
<g id="a_edge23&#45;headlabel"><a xlink:href="dir_000012_000001.html" target="_top" xlink:title="3">
<text text-anchor="middle" x="185.05" y="-413.21" font-family="Helvetica,sans-Serif" font-size="10.00" fill="#63b8ff">3</text>
</a>
</g>
</g>
<!-- dir_b00f3e277c8b8a573b84ad405cb4170d&#45;&gt;dir_5c49fb1fe3cdea7da91949965a419900 -->
<g id="edge24" class="edge">
<title>dir_b00f3e277c8b8a573b84ad405cb4170d&#45;&gt;dir_5c49fb1fe3cdea7da91949965a419900</title>
<g id="a_edge24"><a xlink:href="dir_000012_000014.html" target="_top">
<path fill="none" stroke="#63b8ff" d="M118.17,-70.98C140.77,-62.3 176.06,-48.75 201.75,-38.88"/>
<polygon fill="#63b8ff" stroke="#63b8ff" points="203.34,-42.02 211.42,-35.17 200.83,-35.49 203.34,-42.02"/>
</a>
</g>
<g id="a_edge24&#45;headlabel"><a xlink:href="dir_000012_000014.html" target="_top" xlink:title="1">
<text text-anchor="middle" x="201.01" y="-43.46" font-family="Helvetica,sans-Serif" font-size="10.00" fill="#63b8ff">1</text>
</a>
</g>
</g>
<!-- dir_bc504be2cd69b9810b0769a6f10cd052&#45;&gt;dir_1b267b6cbe170e06255a29a9b0340896 -->
<g id="edge25" class="edge">
<title>dir_bc504be2cd69b9810b0769a6f10cd052&#45;&gt;dir_1b267b6cbe170e06255a29a9b0340896</title>
<g id="a_edge25"><a xlink:href="dir_000013_000001.html" target="_top">
<path fill="none" stroke="#63b8ff" d="M223.93,-145.25C217,-175.69 195.71,-279.76 207,-365 208.16,-373.73 210.53,-383.17 212.87,-391.1"/>
<polygon fill="#63b8ff" stroke="#63b8ff" points="209.57,-392.28 215.91,-400.77 216.25,-390.18 209.57,-392.28"/>
</a>
</g>
<g id="a_edge25&#45;headlabel"><a xlink:href="dir_000013_000001.html" target="_top" xlink:title="16">
<text text-anchor="middle" x="205.79" y="-387.21" font-family="Helvetica,sans-Serif" font-size="10.00" fill="#63b8ff">16</text>
</a>
</g>
</g>
<!-- dir_bc504be2cd69b9810b0769a6f10cd052&#45;&gt;dir_5c49fb1fe3cdea7da91949965a419900 -->
<g id="edge26" class="edge">
<title>dir_bc504be2cd69b9810b0769a6f10cd052&#45;&gt;dir_5c49fb1fe3cdea7da91949965a419900</title>
<g id="a_edge26"><a xlink:href="dir_000013_000014.html" target="_top">
<path fill="none" stroke="#63b8ff" d="M226.65,-125.66C227.95,-108.17 230.87,-68.8 232.61,-45.27"/>
<polygon fill="#63b8ff" stroke="#63b8ff" points="236.11,-45.39 233.36,-35.16 229.13,-44.87 236.11,-45.39"/>
</a>
</g>
<g id="a_edge26&#45;headlabel"><a xlink:href="dir_000013_000014.html" target="_top" xlink:title="1">
<text text-anchor="middle" x="238.68" y="-46.68" font-family="Helvetica,sans-Serif" font-size="10.00" fill="#63b8ff">1</text>
</a>
</g>
</g>
<!-- dir_5c49fb1fe3cdea7da91949965a419900&#45;&gt;dir_1b267b6cbe170e06255a29a9b0340896 -->
<g id="edge27" class="edge">
<title>dir_5c49fb1fe3cdea7da91949965a419900&#45;&gt;dir_1b267b6cbe170e06255a29a9b0340896</title>
<g id="a_edge27"><a xlink:href="dir_000014_000001.html" target="_top">
<path fill="none" stroke="#63b8ff" d="M204.73,-27.86C145.5,-32.33 17,-51.6 17,-134.5 17,-191.5 17,-191.5 17,-191.5 17,-270.94 4.67,-307.99 60,-365 93.92,-399.95 152.86,-408.11 188.67,-409.65"/>
<polygon fill="#63b8ff" stroke="#63b8ff" points="188.89,-413.15 198.98,-409.93 189.08,-406.16 188.89,-413.15"/>
</a>
</g>
<g id="a_edge27&#45;headlabel"><a xlink:href="dir_000014_000001.html" target="_top" xlink:title="4">
<text text-anchor="middle" x="185.22" y="-413.39" font-family="Helvetica,sans-Serif" font-size="10.00" fill="#63b8ff">4</text>
</a>
</g>
</g>
<!-- dir_5c49fb1fe3cdea7da91949965a419900&#45;&gt;dir_7729b3b589609220b9ffe88f5b919f3c -->
<g id="edge28" class="edge">
<title>dir_5c49fb1fe3cdea7da91949965a419900&#45;&gt;dir_7729b3b589609220b9ffe88f5b919f3c</title>
<g id="a_edge28"><a xlink:href="dir_000014_000009.html" target="_top">
<path fill="none" stroke="#63b8ff" d="M263.31,-28.71C313.19,-33.14 411.2,-45 432,-71 499.53,-155.39 462.09,-232.25 387,-310 372.73,-324.77 352.57,-335.24 334.66,-342.3"/>
<polygon fill="#63b8ff" stroke="#63b8ff" points="333.16,-339.12 325,-345.88 335.59,-345.69 333.16,-339.12"/>
</a>
</g>
<g id="a_edge28&#45;headlabel"><a xlink:href="dir_000014_000009.html" target="_top" xlink:title="1">
<text text-anchor="middle" x="335.55" y="-332.71" font-family="Helvetica,sans-Serif" font-size="10.00" fill="#63b8ff">1</text>
</a>
</g>
</g>
<!-- dir_5c26b0c9b7e0d5acf946c15b5d9d58d6&#45;&gt;dir_1b267b6cbe170e06255a29a9b0340896 -->
<g id="edge31" class="edge">
<title>dir_5c26b0c9b7e0d5acf946c15b5d9d58d6&#45;&gt;dir_1b267b6cbe170e06255a29a9b0340896</title>
<g id="a_edge31"><a xlink:href="dir_000021_000001.html" target="_top">
<path fill="none" stroke="#63b8ff" d="M261.85,-200.13C250.48,-207.94 235.24,-220.57 228,-236 203.81,-287.53 210.4,-357.39 215.53,-390.54"/>
<polygon fill="#63b8ff" stroke="#63b8ff" points="212.12,-391.36 217.23,-400.64 219.02,-390.2 212.12,-391.36"/>
</a>
</g>
<g id="a_edge31&#45;headlabel"><a xlink:href="dir_000021_000001.html" target="_top" xlink:title="32">
<text text-anchor="middle" x="208.72" y="-385.79" font-family="Helvetica,sans-Serif" font-size="10.00" fill="#63b8ff">32</text>
</a>
</g>
</g>
<!-- dir_5c26b0c9b7e0d5acf946c15b5d9d58d6&#45;&gt;dir_e4a9c84f290adef67ceee075c03178ea -->
<g id="edge35" class="edge">
<title>dir_5c26b0c9b7e0d5acf946c15b5d9d58d6&#45;&gt;dir_e4a9c84f290adef67ceee075c03178ea</title>
<g id="a_edge35"><a xlink:href="dir_000021_000003.html" target="_top">
<path fill="none" stroke="#63b8ff" d="M246.6,-180.98C214.23,-171.61 162.23,-156.55 127.84,-146.59"/>
<polygon fill="#63b8ff" stroke="#63b8ff" points="128.78,-143.22 118.21,-143.8 126.84,-149.94 128.78,-143.22"/>
</a>
</g>
<g id="a_edge35&#45;headlabel"><a xlink:href="dir_000021_000003.html" target="_top" xlink:title="1">
<text text-anchor="middle" x="133.03" y="-138.99" font-family="Helvetica,sans-Serif" font-size="10.00" fill="#63b8ff">1</text>
</a>
</g>
</g>
<!-- dir_5c26b0c9b7e0d5acf946c15b5d9d58d6&#45;&gt;dir_10a04bdc26b9bc63fc33802b95b375a9 -->
<g id="edge29" class="edge">
<title>dir_5c26b0c9b7e0d5acf946c15b5d9d58d6&#45;&gt;dir_10a04bdc26b9bc63fc33802b95b375a9</title>
<g id="a_edge29"><a xlink:href="dir_000021_000004.html" target="_top">
<path fill="none" stroke="#63b8ff" d="M276.81,-180.75C277.56,-167.56 277.11,-142.37 265,-126 253.85,-110.93 236.13,-100.61 219.51,-93.73"/>
<polygon fill="#63b8ff" stroke="#63b8ff" points="220.5,-90.37 209.91,-90.07 218.01,-96.91 220.5,-90.37"/>
</a>
</g>
<g id="a_edge29&#45;headlabel"><a xlink:href="dir_000021_000004.html" target="_top" xlink:title="10">
<text text-anchor="middle" x="224.87" y="-86.49" font-family="Helvetica,sans-Serif" font-size="10.00" fill="#63b8ff">10</text>
</a>
</g>
</g>
<!-- dir_5c26b0c9b7e0d5acf946c15b5d9d58d6&#45;&gt;dir_1ae9d5707ae3e429484f972fe2e6b4f0 -->
<g id="edge30" class="edge">
<title>dir_5c26b0c9b7e0d5acf946c15b5d9d58d6&#45;&gt;dir_1ae9d5707ae3e429484f972fe2e6b4f0</title>
<g id="a_edge30"><a xlink:href="dir_000021_000005.html" target="_top">
<path fill="none" stroke="#63b8ff" d="M290.3,-180.98C304.1,-172.77 325.24,-160.18 341.51,-150.49"/>
<polygon fill="#63b8ff" stroke="#63b8ff" points="343.64,-153.29 350.44,-145.17 340.06,-147.28 343.64,-153.29"/>
</a>
</g>
<g id="a_edge30&#45;headlabel"><a xlink:href="dir_000021_000005.html" target="_top" xlink:title="8">
<text text-anchor="middle" x="342" y="-155.07" font-family="Helvetica,sans-Serif" font-size="10.00" fill="#63b8ff">8</text>
</a>
</g>
</g>
<!-- dir_5c26b0c9b7e0d5acf946c15b5d9d58d6&#45;&gt;dir_7729b3b589609220b9ffe88f5b919f3c -->
<g id="edge33" class="edge">
<title>dir_5c26b0c9b7e0d5acf946c15b5d9d58d6&#45;&gt;dir_7729b3b589609220b9ffe88f5b919f3c</title>
<g id="a_edge33"><a xlink:href="dir_000021_000009.html" target="_top">
<path fill="none" stroke="#63b8ff" d="M281.89,-200.01C287.69,-208.72 296.46,-222.8 302,-236 311.81,-259.36 313.64,-265.89 317,-291 318.12,-299.37 319,-301.79 317,-310 314.69,-319.49 309.98,-329.22 305.42,-337.15"/>
<polygon fill="#63b8ff" stroke="#63b8ff" points="302.36,-335.45 300.1,-345.8 308.32,-339.11 302.36,-335.45"/>
</a>
</g>
<g id="a_edge33&#45;headlabel"><a xlink:href="dir_000021_000009.html" target="_top" xlink:title="20">
<text text-anchor="middle" x="301.83" y="-328.4" font-family="Helvetica,sans-Serif" font-size="10.00" fill="#63b8ff">20</text>
</a>
</g>
</g>
<!-- dir_5c26b0c9b7e0d5acf946c15b5d9d58d6&#45;&gt;dir_bc504be2cd69b9810b0769a6f10cd052 -->
<g id="edge34" class="edge">
<title>dir_5c26b0c9b7e0d5acf946c15b5d9d58d6&#45;&gt;dir_bc504be2cd69b9810b0769a6f10cd052</title>
<g id="a_edge34"><a xlink:href="dir_000021_000013.html" target="_top">
<path fill="none" stroke="#63b8ff" d="M267.74,-180.75C260.54,-173.11 249.89,-161.82 241.15,-152.56"/>
<polygon fill="#63b8ff" stroke="#63b8ff" points="243.51,-149.96 234.1,-145.09 238.42,-154.76 243.51,-149.96"/>
</a>
</g>
<g id="a_edge34&#45;headlabel"><a xlink:href="dir_000021_000013.html" target="_top" xlink:title="19">
<text text-anchor="middle" x="248.04" y="-148.13" font-family="Helvetica,sans-Serif" font-size="10.00" fill="#63b8ff">19</text>
</a>
</g>
</g>
<!-- dir_5c26b0c9b7e0d5acf946c15b5d9d58d6&#45;&gt;dir_5c49fb1fe3cdea7da91949965a419900 -->
<g id="edge32" class="edge">
<title>dir_5c26b0c9b7e0d5acf946c15b5d9d58d6&#45;&gt;dir_5c49fb1fe3cdea7da91949965a419900</title>
<g id="a_edge32"><a xlink:href="dir_000021_000014.html" target="_top">
<path fill="none" stroke="#63b8ff" d="M276.68,-180.76C277.42,-168.41 278.03,-145.21 274,-126 267.74,-96.19 253.15,-63.85 243.43,-44.38"/>
<polygon fill="#63b8ff" stroke="#63b8ff" points="246.41,-42.53 238.73,-35.22 240.18,-45.72 246.41,-42.53"/>
</a>
</g>
<g id="a_edge32&#45;headlabel"><a xlink:href="dir_000021_000014.html" target="_top" xlink:title="11">
<text text-anchor="middle" x="250.58" y="-41.93" font-family="Helvetica,sans-Serif" font-size="10.00" fill="#63b8ff">11</text>
</a>
</g>
</g>
<!-- dir_c0762e6ec542b01f78d88e78222bbfbe&#45;&gt;dir_1b267b6cbe170e06255a29a9b0340896 -->
<g id="edge36" class="edge">
<title>dir_c0762e6ec542b01f78d88e78222bbfbe&#45;&gt;dir_1b267b6cbe170e06255a29a9b0340896</title>
<g id="a_edge36"><a xlink:href="dir_000030_000001.html" target="_top">
<path fill="none" stroke="#63b8ff" d="M408.24,-90.01C409.48,-98.95 411.3,-113.43 412,-126 416.61,-208.4 431.15,-240.27 387,-310 369.64,-337.41 365.7,-346.57 339,-365 311.36,-384.08 274.52,-396.15 248.98,-402.82"/>
<polygon fill="#63b8ff" stroke="#63b8ff" points="247.98,-399.47 239.12,-405.28 249.67,-406.26 247.98,-399.47"/>
</a>
</g>
<g id="a_edge36&#45;headlabel"><a xlink:href="dir_000030_000001.html" target="_top" xlink:title="2">
<text text-anchor="middle" x="250.78" y="-393.34" font-family="Helvetica,sans-Serif" font-size="10.00" fill="#63b8ff">2</text>
</a>
</g>
</g>
<!-- dir_c0762e6ec542b01f78d88e78222bbfbe&#45;&gt;dir_7729b3b589609220b9ffe88f5b919f3c -->
<g id="edge37" class="edge">
<title>dir_c0762e6ec542b01f78d88e78222bbfbe&#45;&gt;dir_7729b3b589609220b9ffe88f5b919f3c</title>
<g id="a_edge37"><a xlink:href="dir_000030_000009.html" target="_top">
<path fill="none" stroke="#63b8ff" d="M407,-90.18C407,-108.52 407,-152.56 407,-189.5 407,-246.5 407,-246.5 407,-246.5 407,-292.32 357.85,-324.68 324.38,-341.4"/>
<polygon fill="#63b8ff" stroke="#63b8ff" points="322.5,-338.42 314.99,-345.89 325.52,-344.73 322.5,-338.42"/>
</a>
</g>
<g id="a_edge37&#45;headlabel"><a xlink:href="dir_000030_000009.html" target="_top" xlink:title="1">
<text text-anchor="middle" x="324.52" y="-331.81" font-family="Helvetica,sans-Serif" font-size="10.00" fill="#63b8ff">1</text>
</a>
</g>
</g>
<!-- dir_34a3e415d531ea922631bc75d11c4e39&#45;&gt;dir_1b267b6cbe170e06255a29a9b0340896 -->
<g id="edge39" class="edge">
<title>dir_34a3e415d531ea922631bc75d11c4e39&#45;&gt;dir_1b267b6cbe170e06255a29a9b0340896</title>
<g id="a_edge39"><a xlink:href="dir_000031_000001.html" target="_top">
<path fill="none" stroke="#63b8ff" d="M273.38,-310.08C266.77,-318.84 256.55,-332.96 249,-346 240.42,-360.82 232.22,-378.49 226.57,-391.43"/>
<polygon fill="#63b8ff" stroke="#63b8ff" points="223.35,-390.07 222.63,-400.64 229.78,-392.82 223.35,-390.07"/>
</a>
</g>
<g id="a_edge39&#45;headlabel"><a xlink:href="dir_000031_000001.html" target="_top" xlink:title="27">
<text text-anchor="middle" x="222.15" y="-383.15" font-family="Helvetica,sans-Serif" font-size="10.00" fill="#63b8ff">27</text>
</a>
</g>
</g>
<!-- dir_34a3e415d531ea922631bc75d11c4e39&#45;&gt;dir_1ae9d5707ae3e429484f972fe2e6b4f0 -->
<g id="edge38" class="edge">
<title>dir_34a3e415d531ea922631bc75d11c4e39&#45;&gt;dir_1ae9d5707ae3e429484f972fe2e6b4f0</title>
<g id="a_edge38"><a xlink:href="dir_000031_000005.html" target="_top">
<path fill="none" stroke="#63b8ff" d="M284.57,-290.74C298,-264.98 337.55,-189.13 355.7,-154.33"/>
<polygon fill="#63b8ff" stroke="#63b8ff" points="358.89,-155.79 360.41,-145.31 352.68,-152.56 358.89,-155.79"/>
</a>
</g>
<g id="a_edge38&#45;headlabel"><a xlink:href="dir_000031_000005.html" target="_top" xlink:title="6">
<text text-anchor="middle" x="359.74" y="-157.79" font-family="Helvetica,sans-Serif" font-size="10.00" fill="#63b8ff">6</text>
</a>
</g>
</g>
<!-- dir_34a3e415d531ea922631bc75d11c4e39&#45;&gt;dir_7729b3b589609220b9ffe88f5b919f3c -->
<g id="edge42" class="edge">
<title>dir_34a3e415d531ea922631bc75d11c4e39&#45;&gt;dir_7729b3b589609220b9ffe88f5b919f3c</title>
<g id="a_edge42"><a xlink:href="dir_000031_000009.html" target="_top">
<path fill="none" stroke="#63b8ff" d="M287.4,-310.09C290.73,-316.99 293.81,-326.93 295.52,-335.66"/>
<polygon fill="#63b8ff" stroke="#63b8ff" points="292.07,-336.3 296.85,-345.75 299.01,-335.37 292.07,-336.3"/>
</a>
</g>
<g id="a_edge42&#45;headlabel"><a xlink:href="dir_000031_000009.html" target="_top" xlink:title="3">
<text text-anchor="middle" x="288.78" y="-330.61" font-family="Helvetica,sans-Serif" font-size="10.00" fill="#63b8ff">3</text>
</a>
</g>
</g>
<!-- dir_34a3e415d531ea922631bc75d11c4e39&#45;&gt;dir_838e1c99d1ddce8103655997e56a6c46 -->
<g id="edge43" class="edge">
<title>dir_34a3e415d531ea922631bc75d11c4e39&#45;&gt;dir_838e1c99d1ddce8103655997e56a6c46</title>
<g id="a_edge43"><a xlink:href="dir_000031_000011.html" target="_top">
<path fill="none" stroke="#63b8ff" d="M277.03,-290.75C274.64,-283.72 271.21,-273.62 268.23,-264.84"/>
<polygon fill="#63b8ff" stroke="#63b8ff" points="271.45,-263.43 264.92,-255.09 264.82,-265.68 271.45,-263.43"/>
</a>
</g>
<g id="a_edge43&#45;headlabel"><a xlink:href="dir_000031_000011.html" target="_top" xlink:title="7">
<text text-anchor="middle" x="275.29" y="-263.42" font-family="Helvetica,sans-Serif" font-size="10.00" fill="#63b8ff">7</text>
</a>
</g>
</g>
<!-- dir_34a3e415d531ea922631bc75d11c4e39&#45;&gt;dir_b00f3e277c8b8a573b84ad405cb4170d -->
<g id="edge44" class="edge">
<title>dir_34a3e415d531ea922631bc75d11c4e39&#45;&gt;dir_b00f3e277c8b8a573b84ad405cb4170d</title>
<g id="a_edge44"><a xlink:href="dir_000031_000012.html" target="_top">
<path fill="none" stroke="#63b8ff" d="M268.64,-290.93C257.68,-282.4 240.89,-268.65 228,-255 202.01,-227.47 136.04,-137.02 108.44,-98.8"/>
<polygon fill="#63b8ff" stroke="#63b8ff" points="110.98,-96.34 102.29,-90.27 105.3,-100.43 110.98,-96.34"/>
</a>
</g>
<g id="a_edge44&#45;headlabel"><a xlink:href="dir_000031_000012.html" target="_top" xlink:title="4">
<text text-anchor="middle" x="115.39" y="-95.1" font-family="Helvetica,sans-Serif" font-size="10.00" fill="#63b8ff">4</text>
</a>
</g>
</g>
<!-- dir_34a3e415d531ea922631bc75d11c4e39&#45;&gt;dir_5c49fb1fe3cdea7da91949965a419900 -->
<g id="edge41" class="edge">
<title>dir_34a3e415d531ea922631bc75d11c4e39&#45;&gt;dir_5c49fb1fe3cdea7da91949965a419900</title>
<g id="a_edge41"><a xlink:href="dir_000031_000014.html" target="_top">
<path fill="none" stroke="#63b8ff" d="M285.77,-290.99C298.15,-271.68 325.42,-222.96 316,-181 303.75,-126.43 266.68,-70.41 246.85,-43.27"/>
<polygon fill="#63b8ff" stroke="#63b8ff" points="249.63,-41.14 240.84,-35.22 244.02,-45.33 249.63,-41.14"/>
</a>
</g>
<g id="a_edge41&#45;headlabel"><a xlink:href="dir_000031_000014.html" target="_top" xlink:title="2">
<text text-anchor="middle" x="254.05" y="-39.83" font-family="Helvetica,sans-Serif" font-size="10.00" fill="#63b8ff">2</text>
</a>
</g>
</g>
<!-- dir_34a3e415d531ea922631bc75d11c4e39&#45;&gt;dir_5c26b0c9b7e0d5acf946c15b5d9d58d6 -->
<g id="edge40" class="edge">
<title>dir_34a3e415d531ea922631bc75d11c4e39&#45;&gt;dir_5c26b0c9b7e0d5acf946c15b5d9d58d6</title>
<g id="a_edge40"><a xlink:href="dir_000031_000021.html" target="_top">
<path fill="none" stroke="#63b8ff" d="M285.01,-290.93C291.49,-278.78 301.44,-255.82 297,-236 294.92,-226.74 290.7,-217.14 286.57,-209.23"/>
<polygon fill="#63b8ff" stroke="#63b8ff" points="289.51,-207.31 281.58,-200.28 283.4,-210.72 289.51,-207.31"/>
</a>
</g>
<g id="a_edge40&#45;headlabel"><a xlink:href="dir_000031_000021.html" target="_top" xlink:title="7">
<text text-anchor="middle" x="293.74" y="-206.56" font-family="Helvetica,sans-Serif" font-size="10.00" fill="#63b8ff">7</text>
</a>
</g>
</g>
</g>
</svg>

<g id="navigator" transform="translate(0 0)" fill="#404254">
  <rect fill="#f2f5e9" fill-opacity="0.5" stroke="#606060" stroke-width=".5" x="0" y="0" width="60" height="60"/>
  <use id="zoomplus" xlink:href="#zoomPlus" x="17" y="9" onmousedown="handleZoom(evt,'in')"/>
  <use id="zoomminus" xlink:href="#zoomMin" x="42" y="9" onmousedown="handleZoom(evt,'out')"/>
  <use id="reset" xlink:href="#resetDef" x="30" y="36" onmousedown="handleReset()"/>
   <use id="arrowup" xlink:href="#arrowUp" x="0" y="0" onmousedown="handlePan(0,-1)"/>
  <use id="arrowright" xlink:href="#arrowRight" x="0" y="0" onmousedown="handlePan(1,0)"/>
  <use id="arrowdown" xlink:href="#arrowDown" x="0" y="0" onmousedown="handlePan(0,1)"/>
  <use id="arrowleft" xlink:href="#arrowLeft" x="0" y="0" onmousedown="handlePan(-1,0)"/>
</g>
<svg viewBox="0 0 15 15" width="100%" height="30px" preserveAspectRatio="xMaxYMin meet">
 <g id="arrow_out" transform="scale(0.3 0.3)">
  <a xlink:href="dir_ab04957a3ce12ad8c4b1f764ce6591a4_dep_org.svg" target="_base">
   <rect id="button" ry="5" rx="5" y="6" x="6" height="38" width="38"
        fill="#f2f5e9" fill-opacity="0.5" stroke="#606060" stroke-width="1.0"/>
   <path id="arrow"
     d="M 11.500037,31.436501 C 11.940474,20.09759 22.043105,11.32322 32.158766,21.979434 L 37.068811,17.246167 C 37.068811,17.246167 37.088388,32 37.088388,32 L 22.160133,31.978069 C 22.160133,31.978069 26.997745,27.140456 26.997745,27.140456 C 18.528582,18.264221 13.291696,25.230495 11.500037,31.436501 z"
     style="fill:#404040;"/>
  </a>
 </g>
</svg>

<style type='text/css'>
<![CDATA[
[data-mouse-over-selected='false'] { opacity: 0.7; }
[data-mouse-over-selected='true']  { opacity: 1.0; }
]]>
</style>
<script type="application/ecmascript"><![CDATA[
document.addEventListener('DOMContentLoaded', (event) => {
  highlightEdges();
  highlightAdjacentNodes();
});
]]></script>
</svg>
