<?xml version="1.0" encoding="UTF-8" standalone="no"?>
<!DOCTYPE svg PUBLIC "-//W3C//DTD SVG 1.1//EN"
 "http://www.w3.org/Graphics/SVG/1.1/DTD/svg11.dtd">
<!-- Generated by graphviz version 2.43.0 (0)
 -->
<!-- Title: unilink/transport/tcp_client Pages: 1 -->
<svg width="444pt" height="180pt"
 viewBox="0.00 0.00 443.84 180.00" xmlns="http://www.w3.org/2000/svg" xmlns:xlink="http://www.w3.org/1999/xlink">
<g id="graph0" class="graph" transform="scale(1 1) rotate(0) translate(4 176)">
<title>unilink/transport/tcp_client</title>
<g id="clust1" class="cluster">
<title>clusterdir_5c26b0c9b7e0d5acf946c15b5d9d58d6</title>
<g id="a_clust1"><a xlink:href="dir_5c26b0c9b7e0d5acf946c15b5d9d58d6.html" target="_top" xlink:title="transport">
<polygon fill="#edf3f7" stroke="#7f7f7f" stroke-dasharray="5,2" points="99.84,-39 99.84,-164 195.84,-164 195.84,-39 99.84,-39"/>
<text text-anchor="middle" x="147.84" y="-152" font-family="Helvetica,sans-Serif" font-size="10.00">transport</text>
</a>
</g>
</g>
<g id="clust2" class="cluster">
<title>clusterdir_5945cecc8885b190726a3218a193f147</title>
<g id="a_clust2"><a xlink:href="dir_5945cecc8885b190726a3218a193f147.html" target="_top">
<polygon fill="#edf3f7" stroke="#404040" stroke-width="2" points="107.84,-47 107.84,-137 187.84,-137 187.84,-47 107.84,-47"/>
</a>
</g>
</g>
<!-- dir_5945cecc8885b190726a3218a193f147 -->
<g id="node1" class="node">
<title>dir_5945cecc8885b190726a3218a193f147</title>
<text text-anchor="middle" x="147.84" y="-117" font-family="Helvetica,sans-Serif" font-size="10.00">tcp_client</text>
</g>
<!-- dir_bb399f8cc3e2b96ebdd49be173011b1d -->
<g id="node2" class="node">
<title>dir_bb399f8cc3e2b96ebdd49be173011b1d</title>
<g id="a_node2"><a xlink:href="dir_bb399f8cc3e2b96ebdd49be173011b1d.html" target="_top" xlink:title="detail">
<polygon fill="#a2c5d6" stroke="#404040" points="169.84,-74 125.84,-74 125.84,-55 169.84,-55 169.84,-74"/>
<text text-anchor="middle" x="147.84" y="-62" font-family="Helvetica,sans-Serif" font-size="10.00">detail</text>
</a>
</g>
</g>
<!-- dir_5945cecc8885b190726a3218a193f147&#45;&gt;dir_bb399f8cc3e2b96ebdd49be173011b1d -->
<g id="edge6" class="edge">
<title>dir_5945cecc8885b190726a3218a193f147&#45;&gt;dir_bb399f8cc3e2b96ebdd49be173011b1d</title>
<g id="a_edge6"><a xlink:href="dir_000020_000007.html" target="_top">
<path fill="none" stroke="#63b8ff" d="M147.84,-109.75C147.84,-102.8 147.84,-92.85 147.84,-84.13"/>
<polygon fill="#63b8ff" stroke="#63b8ff" points="151.34,-84.09 147.84,-74.09 144.34,-84.09 151.34,-84.09"/>
</a>
</g>
<g id="a_edge6&#45;headlabel"><a xlink:href="dir_000020_000007.html" target="_top" xlink:title="1">
<text text-anchor="middle" x="154.18" y="-85.18" font-family="Helvetica,sans-Serif" font-size="10.00" fill="#63b8ff">1</text>
</a>
</g>
</g>
<!-- dir_10a04bdc26b9bc63fc33802b95b375a9 -->
<g id="node3" class="node">
<title>dir_10a04bdc26b9bc63fc33802b95b375a9</title>
<g id="a_node3"><a xlink:href="dir_10a04bdc26b9bc63fc33802b95b375a9.html" target="_top" xlink:title="concurrency">
<polygon fill="#edf3f7" stroke="#7f7f7f" points="91.84,-74 15.84,-74 15.84,-55 91.84,-55 91.84,-74"/>
<text text-anchor="middle" x="53.84" y="-62" font-family="Helvetica,sans-Serif" font-size="10.00">concurrency</text>
</a>
</g>
</g>
<!-- dir_5945cecc8885b190726a3218a193f147&#45;&gt;dir_10a04bdc26b9bc63fc33802b95b375a9 -->
<g id="edge1" class="edge">
<title>dir_5945cecc8885b190726a3218a193f147&#45;&gt;dir_10a04bdc26b9bc63fc33802b95b375a9</title>
<g id="a_edge1"><a xlink:href="dir_000020_000004.html" target="_top">
<path fill="none" stroke="#63b8ff" d="M132.74,-109.98C118.02,-101.69 95.42,-88.94 78.17,-79.22"/>
<polygon fill="#63b8ff" stroke="#63b8ff" points="79.65,-76.03 69.22,-74.17 76.21,-82.13 79.65,-76.03"/>
</a>
</g>
<g id="a_edge1&#45;headlabel"><a xlink:href="dir_000020_000004.html" target="_top" xlink:title="2">
<text text-anchor="middle" x="84.17" y="-72.83" font-family="Helvetica,sans-Serif" font-size="10.00" fill="#63b8ff">2</text>
</a>
</g>
</g>
<!-- dir_1ae9d5707ae3e429484f972fe2e6b4f0 -->
<g id="node4" class="node">
<title>dir_1ae9d5707ae3e429484f972fe2e6b4f0</title>
<g id="a_node4"><a xlink:href="dir_1ae9d5707ae3e429484f972fe2e6b4f0.html" target="_top" xlink:title="config">
<polygon fill="#edf3f7" stroke="#7f7f7f" points="111.84,-19 65.84,-19 65.84,0 111.84,0 111.84,-19"/>
<text text-anchor="middle" x="88.84" y="-7" font-family="Helvetica,sans-Serif" font-size="10.00">config</text>
</a>
</g>
</g>
<!-- dir_5945cecc8885b190726a3218a193f147&#45;&gt;dir_1ae9d5707ae3e429484f972fe2e6b4f0 -->
<g id="edge2" class="edge">
<title>dir_5945cecc8885b190726a3218a193f147&#45;&gt;dir_1ae9d5707ae3e429484f972fe2e6b4f0</title>
<g id="a_edge2"><a xlink:href="dir_000020_000005.html" target="_top">
<path fill="none" stroke="#63b8ff" d="M115.64,-118.53C82.29,-116.61 31.65,-107.85 6.84,-74 -2.36,-61.45 -2.17,-51.68 6.84,-39 17.94,-23.39 38.22,-16.26 55.84,-13.03"/>
<polygon fill="#63b8ff" stroke="#63b8ff" points="56.43,-16.48 65.81,-11.55 55.4,-9.56 56.43,-16.48"/>
</a>
</g>
<g id="a_edge2&#45;headlabel"><a xlink:href="dir_000020_000005.html" target="_top" xlink:title="2">
<text text-anchor="middle" x="53.3" y="-17.32" font-family="Helvetica,sans-Serif" font-size="10.00" fill="#63b8ff">2</text>
</a>
</g>
</g>
<!-- dir_1b267b6cbe170e06255a29a9b0340896 -->
<g id="node5" class="node">
<title>dir_1b267b6cbe170e06255a29a9b0340896</title>
<g id="a_node5"><a xlink:href="dir_1b267b6cbe170e06255a29a9b0340896.html" target="_top" xlink:title="base">
<polygon fill="#edf3f7" stroke="#7f7f7f" points="243.84,-74 203.84,-74 203.84,-55 243.84,-55 243.84,-74"/>
<text text-anchor="middle" x="223.84" y="-62" font-family="Helvetica,sans-Serif" font-size="10.00">base</text>
</a>
</g>
</g>
<!-- dir_5945cecc8885b190726a3218a193f147&#45;&gt;dir_1b267b6cbe170e06255a29a9b0340896 -->
<g id="edge3" class="edge">
<title>dir_5945cecc8885b190726a3218a193f147&#45;&gt;dir_1b267b6cbe170e06255a29a9b0340896</title>
<g id="a_edge3"><a xlink:href="dir_000020_000002.html" target="_top">
<path fill="none" stroke="#63b8ff" d="M160.05,-109.98C171.62,-101.92 189.22,-89.65 203,-80.03"/>
<polygon fill="#63b8ff" stroke="#63b8ff" points="205.21,-82.76 211.41,-74.17 201.2,-77.02 205.21,-82.76"/>
</a>
</g>
<g id="a_edge3&#45;headlabel"><a xlink:href="dir_000020_000002.html" target="_top" xlink:title="4">
<text text-anchor="middle" x="203.88" y="-84.65" font-family="Helvetica,sans-Serif" font-size="10.00" fill="#63b8ff">4</text>
</a>
</g>
</g>
<!-- dir_5c49fb1fe3cdea7da91949965a419900 -->
<g id="node6" class="node">
<title>dir_5c49fb1fe3cdea7da91949965a419900</title>
<g id="a_node6"><a xlink:href="dir_5c49fb1fe3cdea7da91949965a419900.html" target="_top" xlink:title="memory">
<polygon fill="#edf3f7" stroke="#7f7f7f" points="319.84,-74 261.84,-74 261.84,-55 319.84,-55 319.84,-74"/>
<text text-anchor="middle" x="290.84" y="-62" font-family="Helvetica,sans-Serif" font-size="10.00">memory</text>
</a>
</g>
</g>
<!-- dir_5945cecc8885b190726a3218a193f147&#45;&gt;dir_5c49fb1fe3cdea7da91949965a419900 -->
<g id="edge4" class="edge">
<title>dir_5945cecc8885b190726a3218a193f147&#45;&gt;dir_5c49fb1fe3cdea7da91949965a419900</title>
<g id="a_edge4"><a xlink:href="dir_000020_000015.html" target="_top">
<path fill="none" stroke="#63b8ff" d="M170.82,-109.98C194.34,-101.27 231.13,-87.63 257.78,-77.75"/>
<polygon fill="#63b8ff" stroke="#63b8ff" points="259.29,-80.93 267.45,-74.17 256.85,-74.36 259.29,-80.93"/>
</a>
</g>
<g id="a_edge4&#45;headlabel"><a xlink:href="dir_000020_000015.html" target="_top" xlink:title="2">
<text text-anchor="middle" x="256.9" y="-82.34" font-family="Helvetica,sans-Serif" font-size="10.00" fill="#63b8ff">2</text>
</a>
</g>
</g>
<!-- dir_7729b3b589609220b9ffe88f5b919f3c -->
<g id="node7" class="node">
<title>dir_7729b3b589609220b9ffe88f5b919f3c</title>
<g id="a_node7"><a xlink:href="dir_7729b3b589609220b9ffe88f5b919f3c.html" target="_top" xlink:title="diagnostics">
<polygon fill="#edf3f7" stroke="#7f7f7f" points="242.84,-19 170.84,-19 170.84,0 242.84,0 242.84,-19"/>
<text text-anchor="middle" x="206.84" y="-7" font-family="Helvetica,sans-Serif" font-size="10.00">diagnostics</text>
</a>
</g>
</g>
<!-- dir_5945cecc8885b190726a3218a193f147&#45;&gt;dir_7729b3b589609220b9ffe88f5b919f3c -->
<g id="edge5" class="edge">
<title>dir_5945cecc8885b190726a3218a193f147&#45;&gt;dir_7729b3b589609220b9ffe88f5b919f3c</title>
<g id="a_edge5"><a xlink:href="dir_000020_000009.html" target="_top">
<path fill="none" stroke="#63b8ff" d="M179.91,-115.3C226.85,-109.89 310.67,-97.17 328.84,-74 338.44,-61.76 338.51,-51.19 328.84,-39 319.34,-27.02 283.47,-19.6 253.07,-15.35"/>
<polygon fill="#63b8ff" stroke="#63b8ff" points="253.38,-11.86 243.01,-14.03 252.47,-18.8 253.38,-11.86"/>
</a>
</g>
<g id="a_edge5&#45;headlabel"><a xlink:href="dir_000020_000009.html" target="_top" xlink:title="6">
<text text-anchor="middle" x="257.32" y="-7.01" font-family="Helvetica,sans-Serif" font-size="10.00" fill="#63b8ff">6</text>
</a>
</g>
</g>
<!-- dir_bc504be2cd69b9810b0769a6f10cd052 -->
<g id="node8" class="node">
<title>dir_bc504be2cd69b9810b0769a6f10cd052</title>
<g id="a_node8"><a xlink:href="dir_bc504be2cd69b9810b0769a6f10cd052.html" target="_top" xlink:title="interface">
<polygon fill="#edf3f7" stroke="#7f7f7f" points="435.84,-74 375.84,-74 375.84,-55 435.84,-55 435.84,-74"/>
<text text-anchor="middle" x="405.84" y="-62" font-family="Helvetica,sans-Serif" font-size="10.00">interface</text>
</a>
</g>
</g>
<!-- dir_5945cecc8885b190726a3218a193f147&#45;&gt;dir_bc504be2cd69b9810b0769a6f10cd052 -->
<g id="edge7" class="edge">
<title>dir_5945cecc8885b190726a3218a193f147&#45;&gt;dir_bc504be2cd69b9810b0769a6f10cd052</title>
<g id="a_edge7"><a xlink:href="dir_000020_000014.html" target="_top">
<path fill="none" stroke="#63b8ff" d="M179.99,-111.89C227.01,-102.24 314.46,-84.27 365.65,-73.76"/>
<polygon fill="#63b8ff" stroke="#63b8ff" points="366.6,-77.13 375.69,-71.69 365.19,-70.28 366.6,-77.13"/>
</a>
</g>
<g id="a_edge7&#45;headlabel"><a xlink:href="dir_000020_000014.html" target="_top" xlink:title="1">
<text text-anchor="middle" x="363.65" y="-78.14" font-family="Helvetica,sans-Serif" font-size="10.00" fill="#63b8ff">1</text>
</a>
</g>
</g>
<!-- dir_bb399f8cc3e2b96ebdd49be173011b1d&#45;&gt;dir_1ae9d5707ae3e429484f972fe2e6b4f0 -->
<g id="edge8" class="edge">
<title>dir_bb399f8cc3e2b96ebdd49be173011b1d&#45;&gt;dir_1ae9d5707ae3e429484f972fe2e6b4f0</title>
<g id="a_edge8"><a xlink:href="dir_000007_000005.html" target="_top">
<path fill="none" stroke="#63b8ff" d="M138.36,-54.98C129.64,-47.15 116.5,-35.34 105.94,-25.86"/>
<polygon fill="#63b8ff" stroke="#63b8ff" points="108.27,-23.25 98.49,-19.17 103.59,-28.46 108.27,-23.25"/>
</a>
</g>
<g id="a_edge8&#45;headlabel"><a xlink:href="dir_000007_000005.html" target="_top" xlink:title="1">
<text text-anchor="middle" x="112.84" y="-21.04" font-family="Helvetica,sans-Serif" font-size="10.00" fill="#63b8ff">1</text>
</a>
</g>
</g>
<!-- dir_bb399f8cc3e2b96ebdd49be173011b1d&#45;&gt;dir_7729b3b589609220b9ffe88f5b919f3c -->
<g id="edge9" class="edge">
<title>dir_bb399f8cc3e2b96ebdd49be173011b1d&#45;&gt;dir_7729b3b589609220b9ffe88f5b919f3c</title>
<g id="a_edge9"><a xlink:href="dir_000007_000009.html" target="_top">
<path fill="none" stroke="#63b8ff" d="M157.32,-54.98C166.04,-47.15 179.18,-35.34 189.74,-25.86"/>
<polygon fill="#63b8ff" stroke="#63b8ff" points="192.09,-28.46 197.19,-19.17 187.41,-23.25 192.09,-28.46"/>
</a>
</g>
<g id="a_edge9&#45;headlabel"><a xlink:href="dir_000007_000009.html" target="_top" xlink:title="1">
<text text-anchor="middle" x="191.31" y="-30.47" font-family="Helvetica,sans-Serif" font-size="10.00" fill="#63b8ff">1</text>
</a>
</g>
</g>
</g>
</svg>
