<?xml version="1.0" encoding="UTF-8" standalone="no"?>
<!DOCTYPE svg PUBLIC "-//W3C//DTD SVG 1.1//EN"
 "http://www.w3.org/Graphics/SVG/1.1/DTD/svg11.dtd">
<!-- Generated by graphviz version 2.43.0 (0)
 -->
<!-- Title: unilink/diagnostics/error_mapping.hpp Pages: 1 -->
<!--zoomable 225 -->

<svg id="main" version="1.1" xmlns="http://www.w3.org/2000/svg" xmlns:xlink="http://www.w3.org/1999/xlink" xml:space="preserve" onload="init(evt)">
<style type="text/css"><![CDATA[
.node, .edge {opacity: 0.7;}
.node.selected, .edge.selected {opacity: 1;}
.edge:hover path { stroke: red; }
.edge:hover polygon { stroke: red; fill: red; }
]]></style>

<defs>
  <circle id="rim" cx="0" cy="0" r="7"/>
  <circle id="rim2" cx="0" cy="0" r="3.5"/>
  <g id="zoomPlus">
    <use xlink:href="#rim" fill="#404040"><set attributeName="fill" to="#808080" begin="zoomplus.mouseover" end="zoomplus.mouseout"/></use>
    <path d="M-4,0h8M0,-4v8" fill="none" stroke="white" stroke-width="1.5" pointer-events="none"/>
  </g>
  <g id="zoomMin">
    <use xlink:href="#rim" fill="#404040"><set attributeName="fill" to="#808080" begin="zoomminus.mouseover" end="zoomminus.mouseout"/></use>
    <path d="M-4,0h8" fill="none" stroke="white" stroke-width="1.5" pointer-events="none"/>
  </g>
  <g id="arrowUp" transform="translate(30 24)">
    <use xlink:href="#rim"/>
    <path pointer-events="none" fill="none" stroke="white" stroke-width="1.5" d="M0,-3.0v7 M-2.5,-0.5L0,-3.0L2.5,-0.5"/>
  </g>
  <g id="arrowRight" transform="rotate(90) translate(36 -43)">
    <use xlink:href="#rim"/>
    <path pointer-events="none" fill="none" stroke="white" stroke-width="1.5" d="M0,-3.0v7 M-2.5,-0.5L0,-3.0L2.5,-0.5"/>
  </g>
  <g id="arrowDown" transform="rotate(180) translate(-30 -48)">
    <use xlink:href="#rim"/>
    <path pointer-events="none" fill="none" stroke="white" stroke-width="1.5" d="M0,-3.0v7 M-2.5,-0.5L0,-3.0L2.5,-0.5"/>
  </g>
  <g id="arrowLeft" transform="rotate(270) translate(-36 17)">
    <use xlink:href="#rim"/>
    <path pointer-events="none" fill="none" stroke="white" stroke-width="1.5" d="M0,-3.0v7 M-2.5,-0.5L0,-3.0L2.5,-0.5"/>
  </g>
  <g id="resetDef">
    <use xlink:href="#rim2" fill="#404040"><set attributeName="fill" to="#808080" begin="reset.mouseover" end="reset.mouseout"/></use>
  </g>
</defs>
<script type="application/ecmascript">
var viewWidth = 1118;
var viewHeight = 225;
var sectionId = 'dynsection-0';
</script>
<script type="application/ecmascript" xlink:href="svg.min.js"/>
<svg id="graph" class="graph">
<g id="viewport">
<title>unilink/diagnostics/error_mapping.hpp</title>
<!-- Node1 -->
<g id="Node000001" class="node">
<title>Node1</title>
<g id="a_Node000001"><a xlink:title=" ">
<polygon fill="#999999" stroke="#666666" points="721.5,-217 609.5,-217 609.5,-187 721.5,-187 721.5,-217"/>
<text text-anchor="start" x="617.5" y="-205" font-family="Helvetica,sans-Serif" font-size="10.00">unilink/diagnostics</text>
<text text-anchor="middle" x="665.5" y="-194" font-family="Helvetica,sans-Serif" font-size="10.00">/error_mapping.hpp</text>
</a>
</g>
</g>
<!-- Node2 -->
<g id="Node000002" class="node">
<title>Node2</title>
<g id="a_Node000002"><a xlink:title=" ">
<polygon fill="#e0e0e0" stroke="#999999" points="313,-145.5 200,-145.5 200,-126.5 313,-126.5 313,-145.5"/>
<text text-anchor="middle" x="256.5" y="-133.5" font-family="Helvetica,sans-Serif" font-size="10.00">boost/asio/error.hpp</text>
</a>
</g>
</g>
<!-- Node1&#45;&gt;Node2 -->
<g id="edge1_Node000001_Node000002" class="edge">
<title>Node1&#45;&gt;Node2</title>
<g id="a_edge1_Node000001_Node000002"><a xlink:title=" ">
<path fill="none" stroke="#63b8ff" d="M609.45,-193.54C542.29,-184.42 426.44,-168.06 327.5,-151 321.24,-149.92 314.69,-148.72 308.2,-147.49"/>
<polygon fill="#63b8ff" stroke="#63b8ff" points="308.59,-144 298.11,-145.55 307.27,-150.88 308.59,-144"/>
</a>
</g>
</g>
<!-- Node3 -->
<g id="Node000003" class="node">
<title>Node3</title>
<g id="a_Node000003"><a xlink:title=" ">
<polygon fill="#e0e0e0" stroke="#999999" points="109,-85 0,-85 0,-55 109,-55 109,-85"/>
<text text-anchor="start" x="8" y="-73" font-family="Helvetica,sans-Serif" font-size="10.00">boost/system/error</text>
<text text-anchor="middle" x="54.5" y="-62" font-family="Helvetica,sans-Serif" font-size="10.00">_code.hpp</text>
</a>
</g>
</g>
<!-- Node1&#45;&gt;Node3 -->
<g id="edge2_Node000001_Node000003" class="edge">
<title>Node1&#45;&gt;Node3</title>
<g id="a_edge2_Node000001_Node000003"><a xlink:title=" ">
<path fill="none" stroke="#63b8ff" d="M609.22,-199.94C546.2,-196.94 442.22,-186.43 360.5,-151 340.44,-142.3 341.51,-129.83 321.5,-121 240.54,-85.27 210.45,-101.57 119.2,-85.02"/>
<polygon fill="#63b8ff" stroke="#63b8ff" points="119.76,-81.56 109.28,-83.13 118.45,-88.44 119.76,-81.56"/>
</a>
</g>
</g>
<!-- Node4 -->
<g id="Node000004" class="node">
<title>Node4</title>
<g id="a_Node000004"><a xlink:title=" ">
<polygon fill="#e0e0e0" stroke="#999999" points="1109.5,-79.5 1053.5,-79.5 1053.5,-60.5 1109.5,-60.5 1109.5,-79.5"/>
<text text-anchor="middle" x="1081.5" y="-67.5" font-family="Helvetica,sans-Serif" font-size="10.00">optional</text>
</a>
</g>
</g>
<!-- Node1&#45;&gt;Node4 -->
<g id="edge3_Node000001_Node000004" class="edge">
<title>Node1&#45;&gt;Node4</title>
<g id="a_edge3_Node000001_Node000004"><a xlink:title=" ">
<path fill="none" stroke="#63b8ff" d="M721.7,-193.3C771.79,-185.54 846.67,-171.73 909.5,-151 964.44,-132.87 1024.96,-101.96 1057.54,-84.34"/>
<polygon fill="#63b8ff" stroke="#63b8ff" points="1059.24,-87.4 1066.34,-79.53 1055.89,-81.25 1059.24,-87.4"/>
</a>
</g>
</g>
<!-- Node5 -->
<g id="Node000005" class="node">
<title>Node5</title>
<g id="a_Node000005"><a xlink:title=" ">
<polygon fill="#e0e0e0" stroke="#999999" points="727.5,-19 683.5,-19 683.5,0 727.5,0 727.5,-19"/>
<text text-anchor="middle" x="705.5" y="-7" font-family="Helvetica,sans-Serif" font-size="10.00">string</text>
</a>
</g>
</g>
<!-- Node1&#45;&gt;Node5 -->
<g id="edge4_Node000001_Node000005" class="edge">
<title>Node1&#45;&gt;Node5</title>
<g id="a_edge4_Node000001_Node000005"><a xlink:title=" ">
<path fill="none" stroke="#63b8ff" d="M665.9,-186.6C666.95,-160.06 670.77,-101.85 684.5,-55 687.2,-45.78 691.59,-36.07 695.65,-28.08"/>
<polygon fill="#63b8ff" stroke="#63b8ff" points="698.85,-29.52 700.48,-19.05 692.68,-26.22 698.85,-29.52"/>
</a>
</g>
</g>
<!-- Node6 -->
<g id="Node000006" class="node">
<title>Node6</title>
<g id="a_Node000006"><a xlink:href="error__codes_8hpp.html" target="_top" xlink:title=" ">
<polygon fill="white" stroke="#666666" points="795.5,-85 693.5,-85 693.5,-55 795.5,-55 795.5,-85"/>
<text text-anchor="start" x="701.5" y="-73" font-family="Helvetica,sans-Serif" font-size="10.00">unilink/base/error</text>
<text text-anchor="middle" x="744.5" y="-62" font-family="Helvetica,sans-Serif" font-size="10.00">_codes.hpp</text>
</a>
</g>
</g>
<!-- Node1&#45;&gt;Node6 -->
<g id="edge5_Node000001_Node000006" class="edge">
<title>Node1&#45;&gt;Node6</title>
<g id="a_edge5_Node000001_Node000006"><a xlink:title=" ">
<path fill="none" stroke="#63b8ff" d="M674.1,-186.84C687.7,-164.47 714.27,-120.74 730.6,-93.88"/>
<polygon fill="#63b8ff" stroke="#63b8ff" points="733.7,-95.51 735.91,-85.14 727.72,-91.87 733.7,-95.51"/>
</a>
</g>
</g>
<!-- Node7 -->
<g id="Node000007" class="node">
<title>Node7</title>
<g id="a_Node000007"><a xlink:href="error__types_8hpp.html" target="_top" xlink:title=" ">
<polygon fill="white" stroke="#666666" points="477.5,-151 369.5,-151 369.5,-121 477.5,-121 477.5,-151"/>
<text text-anchor="start" x="377.5" y="-139" font-family="Helvetica,sans-Serif" font-size="10.00">unilink/diagnostics</text>
<text text-anchor="middle" x="423.5" y="-128" font-family="Helvetica,sans-Serif" font-size="10.00">/error_types.hpp</text>
</a>
</g>
</g>
<!-- Node1&#45;&gt;Node7 -->
<g id="edge7_Node000001_Node000007" class="edge">
<title>Node1&#45;&gt;Node7</title>
<g id="a_edge7_Node000001_Node000007"><a xlink:title=" ">
<path fill="none" stroke="#63b8ff" d="M612.39,-186.95C575.2,-177.12 525.34,-163.93 486.19,-153.58"/>
<polygon fill="#63b8ff" stroke="#63b8ff" points="487.05,-150.19 476.48,-151.01 485.26,-156.95 487.05,-150.19"/>
</a>
</g>
</g>
<!-- Node15 -->
<g id="Node000015" class="node">
<title>Node15</title>
<g id="a_Node000015"><a xlink:href="context_8hpp.html" target="_top" xlink:title=" ">
<polygon fill="white" stroke="#666666" points="900,-145.5 747,-145.5 747,-126.5 900,-126.5 900,-145.5"/>
<text text-anchor="middle" x="823.5" y="-133.5" font-family="Helvetica,sans-Serif" font-size="10.00">unilink/wrapper/context.hpp</text>
</a>
</g>
</g>
<!-- Node1&#45;&gt;Node15 -->
<g id="edge17_Node000001_Node000015" class="edge">
<title>Node1&#45;&gt;Node15</title>
<g id="a_edge17_Node000001_Node000015"><a xlink:title=" ">
<path fill="none" stroke="#63b8ff" d="M700.17,-186.95C727.88,-175.73 766.35,-160.15 792.92,-149.39"/>
<polygon fill="#63b8ff" stroke="#63b8ff" points="794.52,-152.52 802.47,-145.52 791.89,-146.03 794.52,-152.52"/>
</a>
</g>
</g>
<!-- Node6&#45;&gt;Node5 -->
<g id="edge6_Node000006_Node000005" class="edge">
<title>Node6&#45;&gt;Node5</title>
<g id="a_edge6_Node000006_Node000005"><a xlink:title=" ">
<path fill="none" stroke="#63b8ff" d="M735.06,-54.84C729.63,-46.69 722.77,-36.4 717.02,-27.78"/>
<polygon fill="#63b8ff" stroke="#63b8ff" points="719.8,-25.65 711.34,-19.27 713.98,-29.53 719.8,-25.65"/>
</a>
</g>
</g>
<!-- Node7&#45;&gt;Node3 -->
<g id="edge9_Node000007_Node000003" class="edge">
<title>Node7&#45;&gt;Node3</title>
<g id="a_edge9_Node000007_Node000003"><a xlink:title=" ">
<path fill="none" stroke="#63b8ff" d="M369.36,-123.59C364.68,-122.68 360.01,-121.81 355.5,-121 253.8,-102.82 224.99,-104.28 119.39,-85.08"/>
<polygon fill="#63b8ff" stroke="#63b8ff" points="119.73,-81.59 109.27,-83.22 118.47,-88.47 119.73,-81.59"/>
</a>
</g>
</g>
<!-- Node7&#45;&gt;Node5 -->
<g id="edge15_Node000007_Node000005" class="edge">
<title>Node7&#45;&gt;Node5</title>
<g id="a_edge15_Node000007_Node000005"><a xlink:title=" ">
<path fill="none" stroke="#63b8ff" d="M422.52,-120.86C422.11,-102.83 424.37,-71.98 442.5,-55 475.41,-24.18 610.43,-14.5 673.18,-11.63"/>
<polygon fill="#63b8ff" stroke="#63b8ff" points="673.46,-15.12 683.31,-11.2 673.17,-8.13 673.46,-15.12"/>
</a>
</g>
</g>
<!-- Node8 -->
<g id="Node000008" class="node">
<title>Node8</title>
<g id="a_Node000008"><a xlink:title=" ">
<polygon fill="#e0e0e0" stroke="#999999" points="191.5,-79.5 127.5,-79.5 127.5,-60.5 191.5,-60.5 191.5,-79.5"/>
<text text-anchor="middle" x="159.5" y="-67.5" font-family="Helvetica,sans-Serif" font-size="10.00">algorithm</text>
</a>
</g>
</g>
<!-- Node7&#45;&gt;Node8 -->
<g id="edge8_Node000007_Node000008" class="edge">
<title>Node7&#45;&gt;Node8</title>
<g id="a_edge8_Node000007_Node000008"><a xlink:title=" ">
<path fill="none" stroke="#63b8ff" d="M369.42,-123.58C314.02,-111.76 231.72,-93.8 200.5,-85 198.03,-84.3 195.49,-83.54 192.94,-82.75"/>
<polygon fill="#63b8ff" stroke="#63b8ff" points="193.8,-79.35 183.21,-79.58 191.64,-86.01 193.8,-79.35"/>
</a>
</g>
</g>
<!-- Node9 -->
<g id="Node000009" class="node">
<title>Node9</title>
<g id="a_Node000009"><a xlink:title=" ">
<polygon fill="#e0e0e0" stroke="#999999" points="259.5,-79.5 209.5,-79.5 209.5,-60.5 259.5,-60.5 259.5,-79.5"/>
<text text-anchor="middle" x="234.5" y="-67.5" font-family="Helvetica,sans-Serif" font-size="10.00">chrono</text>
</a>
</g>
</g>
<!-- Node7&#45;&gt;Node9 -->
<g id="edge10_Node000007_Node000009" class="edge">
<title>Node7&#45;&gt;Node9</title>
<g id="a_edge10_Node000007_Node000009"><a xlink:title=" ">
<path fill="none" stroke="#63b8ff" d="M376.71,-120.96C345.79,-111.42 304.47,-98.19 268.5,-85 267.08,-84.48 265.62,-83.93 264.16,-83.37"/>
<polygon fill="#63b8ff" stroke="#63b8ff" points="265.12,-79.99 254.53,-79.55 262.54,-86.49 265.12,-79.99"/>
</a>
</g>
</g>
<!-- Node10 -->
<g id="Node000010" class="node">
<title>Node10</title>
<g id="a_Node000010"><a xlink:title=" ">
<polygon fill="#e0e0e0" stroke="#999999" points="860.5,-19 810.5,-19 810.5,0 860.5,0 860.5,-19"/>
<text text-anchor="middle" x="835.5" y="-7" font-family="Helvetica,sans-Serif" font-size="10.00">cstdint</text>
</a>
</g>
</g>
<!-- Node7&#45;&gt;Node10 -->
<g id="edge11_Node000007_Node000010" class="edge">
<title>Node7&#45;&gt;Node10</title>
<g id="a_edge11_Node000007_Node000010"><a xlink:title=" ">
<path fill="none" stroke="#63b8ff" d="M452.74,-120.94C471.45,-111.55 495.96,-98.48 516.5,-85 534.49,-73.19 534.79,-63.63 554.5,-55 598,-35.95 734.7,-20.41 800.04,-13.86"/>
<polygon fill="#63b8ff" stroke="#63b8ff" points="800.65,-17.31 810.26,-12.85 799.96,-10.35 800.65,-17.31"/>
</a>
</g>
</g>
<!-- Node11 -->
<g id="Node000011" class="node">
<title>Node11</title>
<g id="a_Node000011"><a xlink:title=" ">
<polygon fill="#e0e0e0" stroke="#999999" points="321.5,-79.5 277.5,-79.5 277.5,-60.5 321.5,-60.5 321.5,-79.5"/>
<text text-anchor="middle" x="299.5" y="-67.5" font-family="Helvetica,sans-Serif" font-size="10.00">ctime</text>
</a>
</g>
</g>
<!-- Node7&#45;&gt;Node11 -->
<g id="edge12_Node000007_Node000011" class="edge">
<title>Node7&#45;&gt;Node11</title>
<g id="a_edge12_Node000007_Node000011"><a xlink:title=" ">
<path fill="none" stroke="#63b8ff" d="M396.29,-120.95C375.02,-109.98 345.68,-94.83 324.89,-84.11"/>
<polygon fill="#63b8ff" stroke="#63b8ff" points="326.49,-80.99 316,-79.52 323.28,-87.21 326.49,-80.99"/>
</a>
</g>
</g>
<!-- Node12 -->
<g id="Node000012" class="node">
<title>Node12</title>
<g id="a_Node000012"><a xlink:title=" ">
<polygon fill="#e0e0e0" stroke="#999999" points="395.5,-79.5 339.5,-79.5 339.5,-60.5 395.5,-60.5 395.5,-79.5"/>
<text text-anchor="middle" x="367.5" y="-67.5" font-family="Helvetica,sans-Serif" font-size="10.00">iomanip</text>
</a>
</g>
</g>
<!-- Node7&#45;&gt;Node12 -->
<g id="edge13_Node000007_Node000012" class="edge">
<title>Node7&#45;&gt;Node12</title>
<g id="a_edge13_Node000007_Node000012"><a xlink:title=" ">
<path fill="none" stroke="#63b8ff" d="M411.07,-120.8C402.43,-110.92 390.88,-97.72 381.84,-87.39"/>
<polygon fill="#63b8ff" stroke="#63b8ff" points="384.46,-85.07 375.24,-79.84 379.19,-89.67 384.46,-85.07"/>
</a>
</g>
</g>
<!-- Node13 -->
<g id="Node000013" class="node">
<title>Node13</title>
<g id="a_Node000013"><a xlink:title=" ">
<polygon fill="#e0e0e0" stroke="#999999" points="507.5,-79.5 451.5,-79.5 451.5,-60.5 507.5,-60.5 507.5,-79.5"/>
<text text-anchor="middle" x="479.5" y="-67.5" font-family="Helvetica,sans-Serif" font-size="10.00">sstream</text>
</a>
</g>
</g>
<!-- Node7&#45;&gt;Node13 -->
<g id="edge14_Node000007_Node000013" class="edge">
<title>Node7&#45;&gt;Node13</title>
<g id="a_edge14_Node000007_Node000013"><a xlink:title=" ">
<path fill="none" stroke="#63b8ff" d="M435.93,-120.8C444.57,-110.92 456.12,-97.72 465.16,-87.39"/>
<polygon fill="#63b8ff" stroke="#63b8ff" points="467.81,-89.67 471.76,-79.84 462.54,-85.07 467.81,-89.67"/>
</a>
</g>
</g>
<!-- Node14 -->
<g id="Node000014" class="node">
<title>Node14</title>
<g id="a_Node000014"><a xlink:title=" ">
<polygon fill="#e0e0e0" stroke="#999999" points="637,-79.5 564,-79.5 564,-60.5 637,-60.5 637,-79.5"/>
<text text-anchor="middle" x="600.5" y="-67.5" font-family="Helvetica,sans-Serif" font-size="10.00">string_view</text>
</a>
</g>
</g>
<!-- Node7&#45;&gt;Node14 -->
<g id="edge16_Node000007_Node000014" class="edge">
<title>Node7&#45;&gt;Node14</title>
<g id="a_edge16_Node000007_Node000014"><a xlink:title=" ">
<path fill="none" stroke="#63b8ff" d="M462.34,-120.95C493.79,-109.58 537.62,-93.74 567.41,-82.96"/>
<polygon fill="#63b8ff" stroke="#63b8ff" points="568.73,-86.21 576.94,-79.52 566.35,-79.63 568.73,-86.21"/>
</a>
</g>
</g>
<!-- Node15&#45;&gt;Node4 -->
<g id="edge18_Node000015_Node000004" class="edge">
<title>Node15&#45;&gt;Node4</title>
<g id="a_edge18_Node000015_Node000004"><a xlink:title=" ">
<path fill="none" stroke="#63b8ff" d="M869.7,-126.5C914.75,-117.75 984.98,-102.9 1044.5,-85 1046.64,-84.36 1048.83,-83.65 1051.03,-82.91"/>
<polygon fill="#63b8ff" stroke="#63b8ff" points="1052.3,-86.17 1060.54,-79.51 1049.95,-79.58 1052.3,-86.17"/>
</a>
</g>
</g>
<!-- Node15&#45;&gt;Node5 -->
<g id="edge19_Node000015_Node000005" class="edge">
<title>Node15&#45;&gt;Node5</title>
<g id="a_edge19_Node000015_Node000005"><a xlink:title=" ">
<path fill="none" stroke="#63b8ff" d="M823.81,-126.46C823.92,-110.56 821.96,-76.13 804.5,-55 787.71,-34.69 759.72,-23.29 737.78,-17.12"/>
<polygon fill="#63b8ff" stroke="#63b8ff" points="738.43,-13.68 727.87,-14.58 736.69,-20.46 738.43,-13.68"/>
</a>
</g>
</g>
<!-- Node15&#45;&gt;Node6 -->
<g id="edge22_Node000015_Node000006" class="edge">
<title>Node15&#45;&gt;Node6</title>
<g id="a_edge22_Node000015_Node000006"><a xlink:title=" ">
<path fill="none" stroke="#63b8ff" d="M812.85,-126.37C801.93,-117.53 784.56,-103.45 770.06,-91.71"/>
<polygon fill="#63b8ff" stroke="#63b8ff" points="771.9,-88.69 761.92,-85.12 767.49,-94.13 771.9,-88.69"/>
</a>
</g>
</g>
<!-- Node15&#45;&gt;Node14 -->
<g id="edge20_Node000015_Node000014" class="edge">
<title>Node15&#45;&gt;Node14</title>
<g id="a_edge20_Node000015_Node000014"><a xlink:title=" ">
<path fill="none" stroke="#63b8ff" d="M793.43,-126.37C753.83,-115 684.11,-95 640.21,-82.4"/>
<polygon fill="#63b8ff" stroke="#63b8ff" points="641.03,-78.99 630.45,-79.6 639.1,-85.72 641.03,-78.99"/>
</a>
</g>
</g>
<!-- Node16 -->
<g id="Node000016" class="node">
<title>Node16</title>
<g id="a_Node000016"><a xlink:title=" ">
<polygon fill="#e0e0e0" stroke="#999999" points="899,-79.5 852,-79.5 852,-60.5 899,-60.5 899,-79.5"/>
<text text-anchor="middle" x="875.5" y="-67.5" font-family="Helvetica,sans-Serif" font-size="10.00">vector</text>
</a>
</g>
</g>
<!-- Node15&#45;&gt;Node16 -->
<g id="edge21_Node000015_Node000016" class="edge">
<title>Node15&#45;&gt;Node16</title>
<g id="a_edge21_Node000015_Node000016"><a xlink:title=" ">
<path fill="none" stroke="#63b8ff" d="M830.51,-126.37C838.53,-116.5 851.85,-100.11 861.92,-87.72"/>
<polygon fill="#63b8ff" stroke="#63b8ff" points="864.67,-89.87 868.26,-79.91 859.24,-85.46 864.67,-89.87"/>
</a>
</g>
</g>
<!-- Node17 -->
<g id="Node000017" class="node">
<title>Node17</title>
<g id="a_Node000017"><a xlink:href="safe__span_8hpp.html" target="_top" xlink:title=" ">
<polygon fill="white" stroke="#666666" points="1035.5,-85 917.5,-85 917.5,-55 1035.5,-55 1035.5,-85"/>
<text text-anchor="start" x="925.5" y="-73" font-family="Helvetica,sans-Serif" font-size="10.00">unilink/memory/safe</text>
<text text-anchor="middle" x="976.5" y="-62" font-family="Helvetica,sans-Serif" font-size="10.00">_span.hpp</text>
</a>
</g>
</g>
<!-- Node15&#45;&gt;Node17 -->
<g id="edge23_Node000015_Node000017" class="edge">
<title>Node15&#45;&gt;Node17</title>
<g id="a_edge23_Node000015_Node000017"><a xlink:title=" ">
<path fill="none" stroke="#63b8ff" d="M844.13,-126.37C866.85,-116.87 904.02,-101.32 933.2,-89.11"/>
<polygon fill="#63b8ff" stroke="#63b8ff" points="934.88,-92.2 942.75,-85.12 932.18,-85.75 934.88,-92.2"/>
</a>
</g>
</g>
<!-- Node17&#45;&gt;Node10 -->
<g id="edge24_Node000017_Node000010" class="edge">
<title>Node17&#45;&gt;Node10</title>
<g id="a_edge24_Node000017_Node000010"><a xlink:title=" ">
<path fill="none" stroke="#63b8ff" d="M942.73,-54.99C919.31,-45.27 888.38,-32.44 865.77,-23.06"/>
<polygon fill="#63b8ff" stroke="#63b8ff" points="866.9,-19.74 856.32,-19.14 864.22,-26.2 866.9,-19.74"/>
</a>
</g>
</g>
<!-- Node18 -->
<g id="Node000018" class="node">
<title>Node18</title>
<g id="a_Node000018"><a xlink:title=" ">
<polygon fill="#e0e0e0" stroke="#999999" points="966,-19 901,-19 901,0 966,0 966,-19"/>
<text text-anchor="middle" x="933.5" y="-7" font-family="Helvetica,sans-Serif" font-size="10.00">stdexcept</text>
</a>
</g>
</g>
<!-- Node17&#45;&gt;Node18 -->
<g id="edge25_Node000017_Node000018" class="edge">
<title>Node17&#45;&gt;Node18</title>
<g id="a_edge25_Node000017_Node000018"><a xlink:title=" ">
<path fill="none" stroke="#63b8ff" d="M966.09,-54.84C960.04,-46.61 952.38,-36.18 946,-27.51"/>
<polygon fill="#63b8ff" stroke="#63b8ff" points="948.69,-25.25 939.94,-19.27 943.05,-29.4 948.69,-25.25"/>
</a>
</g>
</g>
<!-- Node19 -->
<g id="Node000019" class="node">
<title>Node19</title>
<g id="a_Node000019"><a xlink:title=" ">
<polygon fill="#e0e0e0" stroke="#999999" points="1053,-19 984,-19 984,0 1053,0 1053,-19"/>
<text text-anchor="middle" x="1018.5" y="-7" font-family="Helvetica,sans-Serif" font-size="10.00">type_traits</text>
</a>
</g>
</g>
<!-- Node17&#45;&gt;Node19 -->
<g id="edge26_Node000017_Node000019" class="edge">
<title>Node17&#45;&gt;Node19</title>
<g id="a_edge26_Node000017_Node000019"><a xlink:title=" ">
<path fill="none" stroke="#63b8ff" d="M986.67,-54.84C992.58,-46.61 1000.06,-36.18 1006.29,-27.51"/>
<polygon fill="#63b8ff" stroke="#63b8ff" points="1009.22,-29.43 1012.21,-19.27 1003.53,-25.35 1009.22,-29.43"/>
</a>
</g>
</g>
</g>
</svg>

<g id="navigator" transform="translate(0 0)" fill="#404254">
  <rect fill="#f2f5e9" fill-opacity="0.5" stroke="#606060" stroke-width=".5" x="0" y="0" width="60" height="60"/>
  <use id="zoomplus" xlink:href="#zoomPlus" x="17" y="9" onmousedown="handleZoom(evt,'in')"/>
  <use id="zoomminus" xlink:href="#zoomMin" x="42" y="9" onmousedown="handleZoom(evt,'out')"/>
  <use id="reset" xlink:href="#resetDef" x="30" y="36" onmousedown="handleReset()"/>
   <use id="arrowup" xlink:href="#arrowUp" x="0" y="0" onmousedown="handlePan(0,-1)"/>
  <use id="arrowright" xlink:href="#arrowRight" x="0" y="0" onmousedown="handlePan(1,0)"/>
  <use id="arrowdown" xlink:href="#arrowDown" x="0" y="0" onmousedown="handlePan(0,1)"/>
  <use id="arrowleft" xlink:href="#arrowLeft" x="0" y="0" onmousedown="handlePan(-1,0)"/>
</g>
<svg viewBox="0 0 15 15" width="100%" height="30px" preserveAspectRatio="xMaxYMin meet">
 <g id="arrow_out" transform="scale(0.3 0.3)">
  <a xlink:href="error__mapping_8hpp__incl_org.svg" target="_base">
   <rect id="button" ry="5" rx="5" y="6" x="6" height="38" width="38"
        fill="#f2f5e9" fill-opacity="0.5" stroke="#606060" stroke-width="1.0"/>
   <path id="arrow"
     d="M 11.500037,31.436501 C 11.940474,20.09759 22.043105,11.32322 32.158766,21.979434 L 37.068811,17.246167 C 37.068811,17.246167 37.088388,32 37.088388,32 L 22.160133,31.978069 C 22.160133,31.978069 26.997745,27.140456 26.997745,27.140456 C 18.528582,18.264221 13.291696,25.230495 11.500037,31.436501 z"
     style="fill:#404040;"/>
  </a>
 </g>
</svg>

<style type='text/css'>
<![CDATA[
[data-mouse-over-selected='false'] { opacity: 0.7; }
[data-mouse-over-selected='true']  { opacity: 1.0; }
]]>
</style>
<script type="application/ecmascript"><![CDATA[
document.addEventListener('DOMContentLoaded', (event) => {
  highlightEdges();
  highlightAdjacentNodes();
});
]]></script>
</svg>
