<?xml version="1.0" encoding="UTF-8" standalone="no"?>
<!DOCTYPE svg PUBLIC "-//W3C//DTD SVG 1.1//EN"
 "http://www.w3.org/Graphics/SVG/1.1/DTD/svg11.dtd">
<!-- Generated by graphviz version 2.43.0 (0)
 -->
<!-- Title: unilink/base/error_codes.hpp Pages: 1 -->
<svg width="2301pt" height="412pt"
 viewBox="0.00 0.00 2301.31 412.00" xmlns="http://www.w3.org/2000/svg" xmlns:xlink="http://www.w3.org/1999/xlink">
<g id="graph0" class="graph" transform="scale(1 1) rotate(0) translate(4 408)">
<title>unilink/base/error_codes.hpp</title>
<!-- Node1 -->
<g id="Node000001" class="node">
<title>Node1</title>
<g id="a_Node000001"><a xlink:title=" ">
<polygon fill="#999999" stroke="#666666" points="1983.31,-404 1881.31,-404 1881.31,-374 1983.31,-374 1983.31,-404"/>
<text text-anchor="start" x="1889.31" y="-392" font-family="Helvetica,sans-Serif" font-size="10.00">unilink/base/error</text>
<text text-anchor="middle" x="1932.31" y="-381" font-family="Helvetica,sans-Serif" font-size="10.00">_codes.hpp</text>
</a>
</g>
</g>
<!-- Node2 -->
<g id="Node000002" class="node">
<title>Node2</title>
<g id="a_Node000002"><a xlink:href="error__mapping_8hpp.html" target="_top" xlink:title=" ">
<polygon fill="white" stroke="#666666" points="1988.31,-228 1876.31,-228 1876.31,-198 1988.31,-198 1988.31,-228"/>
<text text-anchor="start" x="1884.31" y="-216" font-family="Helvetica,sans-Serif" font-size="10.00">unilink/diagnostics</text>
<text text-anchor="middle" x="1932.31" y="-205" font-family="Helvetica,sans-Serif" font-size="10.00">/error_mapping.hpp</text>
</a>
</g>
</g>
<!-- Node1&#45;&gt;Node2 -->
<g id="edge1_Node000001_Node000002" class="edge">
<title>Node1&#45;&gt;Node2</title>
<g id="a_edge1_Node000001_Node000002"><a xlink:title=" ">
<path fill="none" stroke="#63b8ff" d="M1932.31,-363.42C1932.31,-326.57 1932.31,-258.18 1932.31,-228.44"/>
<polygon fill="#63b8ff" stroke="#63b8ff" points="1928.81,-363.76 1932.31,-373.76 1935.81,-363.76 1928.81,-363.76"/>
</a>
</g>
</g>
<!-- Node8 -->
<g id="Node000008" class="node">
<title>Node8</title>
<g id="a_Node000008"><a xlink:href="unilink_8hpp.html" target="_top" xlink:title=" ">
<polygon fill="white" stroke="#666666" points="870.81,-24.5 763.81,-24.5 763.81,-5.5 870.81,-5.5 870.81,-24.5"/>
<text text-anchor="middle" x="817.31" y="-12.5" font-family="Helvetica,sans-Serif" font-size="10.00">unilink/unilink.hpp</text>
</a>
</g>
</g>
<!-- Node1&#45;&gt;Node8 -->
<g id="edge7_Node000001_Node000008" class="edge">
<title>Node1&#45;&gt;Node8</title>
<g id="a_edge7_Node000001_Node000008"><a xlink:title=" ">
<path fill="none" stroke="#63b8ff" d="M1993.62,-381.5C2096.63,-368.85 2293.31,-336.57 2293.31,-274.5 2293.31,-274.5 2293.31,-274.5 2293.31,-146 2293.31,-23.81 1871.07,-76.28 1749.31,-66 1382.27,-35 1288.21,-62.6 921.31,-30 904.89,-28.54 887.08,-26.36 870.92,-24.16"/>
<polygon fill="#63b8ff" stroke="#63b8ff" points="1993.16,-378.03 1983.65,-382.69 1994,-384.98 1993.16,-378.03"/>
</a>
</g>
</g>
<!-- Node9 -->
<g id="Node000009" class="node">
<title>Node9</title>
<g id="a_Node000009"><a xlink:href="context_8hpp.html" target="_top" xlink:title=" ">
<polygon fill="white" stroke="#666666" points="1398.81,-338 1245.81,-338 1245.81,-319 1398.81,-319 1398.81,-338"/>
<text text-anchor="middle" x="1322.31" y="-326" font-family="Helvetica,sans-Serif" font-size="10.00">unilink/wrapper/context.hpp</text>
</a>
</g>
</g>
<!-- Node1&#45;&gt;Node9 -->
<g id="edge8_Node000001_Node000009" class="edge">
<title>Node1&#45;&gt;Node9</title>
<g id="a_edge8_Node000001_Node000009"><a xlink:title=" ">
<path fill="none" stroke="#63b8ff" d="M1870.97,-382.12C1758.88,-371.37 1521.29,-348.58 1398.83,-336.84"/>
<polygon fill="#63b8ff" stroke="#63b8ff" points="1870.8,-385.62 1881.09,-383.09 1871.47,-378.65 1870.8,-385.62"/>
</a>
</g>
</g>
<!-- Node3 -->
<g id="Node000003" class="node">
<title>Node3</title>
<g id="a_Node000003"><a xlink:href="transport_2tcp__client_2tcp__client_8cc.html" target="_top" xlink:title=" ">
<polygon fill="white" stroke="#666666" points="2129.81,-162 2014.81,-162 2014.81,-132 2129.81,-132 2129.81,-162"/>
<text text-anchor="start" x="2022.81" y="-150" font-family="Helvetica,sans-Serif" font-size="10.00">unilink/transport/tcp</text>
<text text-anchor="middle" x="2072.31" y="-139" font-family="Helvetica,sans-Serif" font-size="10.00">_client/tcp_client.cc</text>
</a>
</g>
</g>
<!-- Node2&#45;&gt;Node3 -->
<g id="edge2_Node000002_Node000003" class="edge">
<title>Node2&#45;&gt;Node3</title>
<g id="a_edge2_Node000002_Node000003"><a xlink:title=" ">
<path fill="none" stroke="#63b8ff" d="M1972.16,-193.78C1994.23,-183.69 2021.25,-171.34 2041.66,-162.01"/>
<polygon fill="#63b8ff" stroke="#63b8ff" points="1970.67,-190.61 1963.03,-197.95 1973.58,-196.98 1970.67,-190.61"/>
</a>
</g>
</g>
<!-- Node4 -->
<g id="Node000004" class="node">
<title>Node4</title>
<g id="a_Node000004"><a xlink:href="transport_2uds_2uds__client_8cc.html" target="_top" xlink:title=" ">
<polygon fill="white" stroke="#666666" points="2264.81,-162 2147.81,-162 2147.81,-132 2264.81,-132 2264.81,-162"/>
<text text-anchor="start" x="2155.81" y="-150" font-family="Helvetica,sans-Serif" font-size="10.00">unilink/transport/uds</text>
<text text-anchor="middle" x="2206.31" y="-139" font-family="Helvetica,sans-Serif" font-size="10.00">/uds_client.cc</text>
</a>
</g>
</g>
<!-- Node2&#45;&gt;Node4 -->
<g id="edge3_Node000002_Node000004" class="edge">
<title>Node2&#45;&gt;Node4</title>
<g id="a_edge3_Node000002_Node000004"><a xlink:title=" ">
<path fill="none" stroke="#63b8ff" d="M1998.18,-196.61C2043.64,-186 2103.57,-172 2147.44,-161.75"/>
<polygon fill="#63b8ff" stroke="#63b8ff" points="1997.36,-193.21 1988.42,-198.89 1998.95,-200.03 1997.36,-193.21"/>
</a>
</g>
</g>
<!-- Node5 -->
<g id="Node000005" class="node">
<title>Node5</title>
<g id="a_Node000005"><a xlink:href="wrapper_2tcp__client_2tcp__client_8cc.html" target="_top" xlink:title=" ">
<polygon fill="white" stroke="#666666" points="1214.81,-162 1101.81,-162 1101.81,-132 1214.81,-132 1214.81,-162"/>
<text text-anchor="start" x="1109.81" y="-150" font-family="Helvetica,sans-Serif" font-size="10.00">unilink/wrapper/tcp</text>
<text text-anchor="middle" x="1158.31" y="-139" font-family="Helvetica,sans-Serif" font-size="10.00">_client/tcp_client.cc</text>
</a>
</g>
</g>
<!-- Node2&#45;&gt;Node5 -->
<g id="edge4_Node000002_Node000005" class="edge">
<title>Node2&#45;&gt;Node5</title>
<g id="a_edge4_Node000002_Node000005"><a xlink:title=" ">
<path fill="none" stroke="#63b8ff" d="M1865.65,-206.99C1829.46,-204.28 1783.93,-200.91 1743.31,-198 1512.68,-181.46 1453.3,-194.07 1224.31,-162 1221.3,-161.58 1218.21,-161.1 1215.1,-160.57"/>
<polygon fill="#63b8ff" stroke="#63b8ff" points="1865.85,-210.51 1876.08,-207.77 1866.37,-203.53 1865.85,-210.51"/>
</a>
</g>
</g>
<!-- Node6 -->
<g id="Node000006" class="node">
<title>Node6</title>
<g id="a_Node000006"><a xlink:href="wrapper_2uds__client_2uds__client_8cc.html" target="_top" xlink:title=" ">
<polygon fill="white" stroke="#666666" points="1817.81,-162 1702.81,-162 1702.81,-132 1817.81,-132 1817.81,-162"/>
<text text-anchor="start" x="1710.81" y="-150" font-family="Helvetica,sans-Serif" font-size="10.00">unilink/wrapper/uds</text>
<text text-anchor="middle" x="1760.31" y="-139" font-family="Helvetica,sans-Serif" font-size="10.00">_client/uds_client.cc</text>
</a>
</g>
</g>
<!-- Node2&#45;&gt;Node6 -->
<g id="edge5_Node000002_Node000006" class="edge">
<title>Node2&#45;&gt;Node6</title>
<g id="a_edge5_Node000002_Node000006"><a xlink:title=" ">
<path fill="none" stroke="#63b8ff" d="M1885.16,-194.46C1857.72,-184.25 1823.6,-171.55 1797.97,-162.01"/>
<polygon fill="#63b8ff" stroke="#63b8ff" points="1883.97,-197.75 1894.56,-197.95 1886.41,-191.19 1883.97,-197.75"/>
</a>
</g>
</g>
<!-- Node7 -->
<g id="Node000007" class="node">
<title>Node7</title>
<g id="a_Node000007"><a xlink:href="wrapper_2uds__server_2uds__server_8cc.html" target="_top" xlink:title=" ">
<polygon fill="white" stroke="#666666" points="1996.31,-162 1874.31,-162 1874.31,-132 1996.31,-132 1996.31,-162"/>
<text text-anchor="start" x="1882.31" y="-150" font-family="Helvetica,sans-Serif" font-size="10.00">unilink/wrapper/uds</text>
<text text-anchor="middle" x="1935.31" y="-139" font-family="Helvetica,sans-Serif" font-size="10.00">_server/uds_server.cc</text>
</a>
</g>
</g>
<!-- Node2&#45;&gt;Node7 -->
<g id="edge6_Node000002_Node000007" class="edge">
<title>Node2&#45;&gt;Node7</title>
<g id="a_edge6_Node000002_Node000007"><a xlink:title=" ">
<path fill="none" stroke="#63b8ff" d="M1933.46,-187.54C1933.86,-178.96 1934.3,-169.61 1934.65,-162.16"/>
<polygon fill="#63b8ff" stroke="#63b8ff" points="1929.95,-187.64 1932.98,-197.8 1936.94,-187.97 1929.95,-187.64"/>
</a>
</g>
</g>
<!-- Node9&#45;&gt;Node2 -->
<g id="edge32_Node000009_Node000002" class="edge">
<title>Node9&#45;&gt;Node2</title>
<g id="a_edge32_Node000009_Node000002"><a xlink:title=" ">
<path fill="none" stroke="#63b8ff" d="M1379.12,-317.17C1477.29,-299.28 1685,-261.25 1860.31,-228 1865.44,-227.03 1870.77,-226.01 1876.11,-224.98"/>
<polygon fill="#63b8ff" stroke="#63b8ff" points="1378.33,-313.76 1369.11,-318.99 1379.58,-320.64 1378.33,-313.76"/>
</a>
</g>
</g>
<!-- Node9&#45;&gt;Node8 -->
<g id="edge33_Node000009_Node000008" class="edge">
<title>Node9&#45;&gt;Node8</title>
<g id="a_edge33_Node000009_Node000008"><a xlink:title=" ">
<path fill="none" stroke="#63b8ff" d="M1235.44,-324.5C943.71,-313.88 17.31,-275.32 17.31,-214 17.31,-214 17.31,-214 17.31,-146 17.31,-119.92 -92.12,-133.18 245.31,-66 433.26,-28.58 661.51,-19.16 763.53,-16.8"/>
<polygon fill="#63b8ff" stroke="#63b8ff" points="1235.43,-328.01 1245.55,-324.87 1235.68,-321.01 1235.43,-328.01"/>
</a>
</g>
</g>
<!-- Node10 -->
<g id="Node000010" class="node">
<title>Node10</title>
<g id="a_Node000010"><a xlink:href="ibuilder_8hpp.html" target="_top" xlink:title=" ">
<polygon fill="white" stroke="#666666" points="1146.31,-222.5 1000.31,-222.5 1000.31,-203.5 1146.31,-203.5 1146.31,-222.5"/>
<text text-anchor="middle" x="1073.31" y="-210.5" font-family="Helvetica,sans-Serif" font-size="10.00">unilink/builder/ibuilder.hpp</text>
</a>
</g>
</g>
<!-- Node9&#45;&gt;Node10 -->
<g id="edge9_Node000009_Node000010" class="edge">
<title>Node9&#45;&gt;Node10</title>
<g id="a_edge9_Node000009_Node000010"><a xlink:title=" ">
<path fill="none" stroke="#63b8ff" d="M1294.45,-314.8C1243.33,-291.5 1135.81,-242.49 1092.24,-222.63"/>
<polygon fill="#63b8ff" stroke="#63b8ff" points="1293.04,-318.01 1303.6,-318.97 1295.95,-311.64 1293.04,-318.01"/>
</a>
</g>
</g>
<!-- Node23 -->
<g id="Node000023" class="node">
<title>Node23</title>
<g id="a_Node000023"><a xlink:href="ichannel_8hpp.html" target="_top" xlink:title=" ">
<polygon fill="white" stroke="#666666" points="714.31,-283 556.31,-283 556.31,-264 714.31,-264 714.31,-283"/>
<text text-anchor="middle" x="635.31" y="-271" font-family="Helvetica,sans-Serif" font-size="10.00">unilink/wrapper/ichannel.hpp</text>
</a>
</g>
</g>
<!-- Node9&#45;&gt;Node23 -->
<g id="edge34_Node000009_Node000023" class="edge">
<title>Node9&#45;&gt;Node23</title>
<g id="a_edge34_Node000009_Node000023"><a xlink:title=" ">
<path fill="none" stroke="#63b8ff" d="M1235.24,-320.78C1100.66,-310.4 844.17,-290.61 714.53,-280.61"/>
<polygon fill="#63b8ff" stroke="#63b8ff" points="1235.26,-324.29 1245.5,-321.57 1235.8,-317.32 1235.26,-324.29"/>
</a>
</g>
</g>
<!-- Node30 -->
<g id="Node000030" class="node">
<title>Node30</title>
<g id="a_Node000030"><a xlink:href="iserver_8hpp.html" target="_top" xlink:title=" ">
<polygon fill="white" stroke="#666666" points="1447.81,-283 1298.81,-283 1298.81,-264 1447.81,-264 1447.81,-283"/>
<text text-anchor="middle" x="1373.31" y="-271" font-family="Helvetica,sans-Serif" font-size="10.00">unilink/wrapper/iserver.hpp</text>
</a>
</g>
</g>
<!-- Node9&#45;&gt;Node30 -->
<g id="edge52_Node000009_Node000030" class="edge">
<title>Node9&#45;&gt;Node30</title>
<g id="a_edge52_Node000009_Node000030"><a xlink:title=" ">
<path fill="none" stroke="#63b8ff" d="M1337.69,-311.52C1346.68,-302.18 1357.67,-290.75 1365.05,-283.09"/>
<polygon fill="#63b8ff" stroke="#63b8ff" points="1335.14,-309.12 1330.73,-318.75 1340.19,-313.97 1335.14,-309.12"/>
</a>
</g>
</g>
<!-- Node10&#45;&gt;Node8 -->
<g id="edge31_Node000010_Node000008" class="edge">
<title>Node10&#45;&gt;Node8</title>
<g id="a_edge31_Node000010_Node000008"><a xlink:title=" ">
<path fill="none" stroke="#63b8ff" d="M1072.66,-193.04C1073.09,-175 1076.65,-148.28 1092.31,-132 1133.57,-89.1 1185.32,-143.41 1221.31,-96 1229.37,-85.38 1230.16,-75.97 1221.31,-66 1176.75,-15.77 987.92,-38.48 921.31,-30 904.96,-27.92 887.17,-25.56 871,-23.38"/>
<polygon fill="#63b8ff" stroke="#63b8ff" points="1069.16,-193.23 1072.72,-203.2 1076.16,-193.18 1069.16,-193.23"/>
</a>
</g>
</g>
<!-- Node11 -->
<g id="Node000011" class="node">
<title>Node11</title>
<g id="a_Node000011"><a xlink:href="serial__builder_8hpp.html" target="_top" xlink:title=" ">
<polygon fill="white" stroke="#666666" points="793.31,-162 677.31,-162 677.31,-132 793.31,-132 793.31,-162"/>
<text text-anchor="start" x="685.31" y="-150" font-family="Helvetica,sans-Serif" font-size="10.00">unilink/builder/serial</text>
<text text-anchor="middle" x="735.31" y="-139" font-family="Helvetica,sans-Serif" font-size="10.00">_builder.hpp</text>
</a>
</g>
</g>
<!-- Node10&#45;&gt;Node11 -->
<g id="edge10_Node000010_Node000011" class="edge">
<title>Node10&#45;&gt;Node11</title>
<g id="a_edge10_Node000010_Node000011"><a xlink:title=" ">
<path fill="none" stroke="#63b8ff" d="M1015.37,-201.72C960.45,-191.87 875.67,-176.43 802.31,-162 799.4,-161.43 796.41,-160.83 793.4,-160.22"/>
<polygon fill="#63b8ff" stroke="#63b8ff" points="1014.81,-205.17 1025.27,-203.49 1016.05,-198.28 1014.81,-205.17"/>
</a>
</g>
</g>
<!-- Node15 -->
<g id="Node000015" class="node">
<title>Node15</title>
<g id="a_Node000015"><a xlink:href="tcp__client__builder_8hpp.html" target="_top" xlink:title=" ">
<polygon fill="white" stroke="#666666" points="1045.31,-162 937.31,-162 937.31,-132 1045.31,-132 1045.31,-162"/>
<text text-anchor="start" x="945.31" y="-150" font-family="Helvetica,sans-Serif" font-size="10.00">unilink/builder/tcp</text>
<text text-anchor="middle" x="991.31" y="-139" font-family="Helvetica,sans-Serif" font-size="10.00">_client_builder.hpp</text>
</a>
</g>
</g>
<!-- Node10&#45;&gt;Node15 -->
<g id="edge16_Node000010_Node000015" class="edge">
<title>Node10&#45;&gt;Node15</title>
<g id="a_edge16_Node000010_Node000015"><a xlink:title=" ">
<path fill="none" stroke="#63b8ff" d="M1054.11,-197.02C1040.61,-186.48 1022.65,-172.46 1009.4,-162.12"/>
<polygon fill="#63b8ff" stroke="#63b8ff" points="1052.22,-199.98 1062.25,-203.37 1056.52,-194.46 1052.22,-199.98"/>
</a>
</g>
</g>
<!-- Node17 -->
<g id="Node000017" class="node">
<title>Node17</title>
<g id="a_Node000017"><a xlink:href="tcp__server__builder_8hpp.html" target="_top" xlink:title=" ">
<polygon fill="white" stroke="#666666" points="1345.31,-162 1233.31,-162 1233.31,-132 1345.31,-132 1345.31,-162"/>
<text text-anchor="start" x="1241.31" y="-150" font-family="Helvetica,sans-Serif" font-size="10.00">unilink/builder/tcp</text>
<text text-anchor="middle" x="1289.31" y="-139" font-family="Helvetica,sans-Serif" font-size="10.00">_server_builder.hpp</text>
</a>
</g>
</g>
<!-- Node10&#45;&gt;Node17 -->
<g id="edge20_Node000010_Node000017" class="edge">
<title>Node10&#45;&gt;Node17</title>
<g id="a_edge20_Node000010_Node000017"><a xlink:title=" ">
<path fill="none" stroke="#63b8ff" d="M1112.18,-200.48C1148.48,-189.73 1202.77,-173.64 1241.67,-162.12"/>
<polygon fill="#63b8ff" stroke="#63b8ff" points="1111.04,-197.17 1102.44,-203.37 1113.02,-203.88 1111.04,-197.17"/>
</a>
</g>
</g>
<!-- Node19 -->
<g id="Node000019" class="node">
<title>Node19</title>
<g id="a_Node000019"><a xlink:href="udp__builder_8hpp.html" target="_top" xlink:title=" ">
<polygon fill="white" stroke="#666666" points="918.81,-162 811.81,-162 811.81,-132 918.81,-132 918.81,-162"/>
<text text-anchor="start" x="819.81" y="-150" font-family="Helvetica,sans-Serif" font-size="10.00">unilink/builder/udp</text>
<text text-anchor="middle" x="865.31" y="-139" font-family="Helvetica,sans-Serif" font-size="10.00">_builder.hpp</text>
</a>
</g>
</g>
<!-- Node10&#45;&gt;Node19 -->
<g id="edge24_Node000010_Node000019" class="edge">
<title>Node10&#45;&gt;Node19</title>
<g id="a_edge24_Node000010_Node000019"><a xlink:title=" ">
<path fill="none" stroke="#63b8ff" d="M1035.44,-200.35C1000.48,-189.59 948.49,-173.59 911.19,-162.12"/>
<polygon fill="#63b8ff" stroke="#63b8ff" points="1034.67,-203.77 1045.26,-203.37 1036.73,-197.08 1034.67,-203.77"/>
</a>
</g>
</g>
<!-- Node21 -->
<g id="Node000021" class="node">
<title>Node21</title>
<g id="a_Node000021"><a xlink:href="uds__builder_8hpp.html" target="_top" xlink:title=" ">
<polygon fill="white" stroke="#666666" points="1645.81,-162 1538.81,-162 1538.81,-132 1645.81,-132 1645.81,-162"/>
<text text-anchor="start" x="1546.81" y="-150" font-family="Helvetica,sans-Serif" font-size="10.00">unilink/builder/uds</text>
<text text-anchor="middle" x="1592.31" y="-139" font-family="Helvetica,sans-Serif" font-size="10.00">_builder.hpp</text>
</a>
</g>
</g>
<!-- Node10&#45;&gt;Node21 -->
<g id="edge28_Node000010_Node000021" class="edge">
<title>Node10&#45;&gt;Node21</title>
<g id="a_edge28_Node000010_Node000021"><a xlink:title=" ">
<path fill="none" stroke="#63b8ff" d="M1156.76,-205.61C1248.48,-197.94 1399.99,-183.39 1529.31,-162 1532.41,-161.49 1535.58,-160.92 1538.77,-160.32"/>
<polygon fill="#63b8ff" stroke="#63b8ff" points="1156.38,-202.13 1146.7,-206.44 1156.96,-209.1 1156.38,-202.13"/>
</a>
</g>
</g>
<!-- Node11&#45;&gt;Node8 -->
<g id="edge15_Node000011_Node000008" class="edge">
<title>Node11&#45;&gt;Node8</title>
<g id="a_edge15_Node000011_Node000008"><a xlink:title=" ">
<path fill="none" stroke="#63b8ff" d="M675.6,-128.3C638.93,-114.31 602.62,-92.7 623.31,-66 640.41,-43.94 712.32,-29.89 763.6,-22.47"/>
<polygon fill="#63b8ff" stroke="#63b8ff" points="674.81,-131.74 685.4,-131.87 677.2,-125.16 674.81,-131.74"/>
</a>
</g>
</g>
<!-- Node12 -->
<g id="Node000012" class="node">
<title>Node12</title>
<g id="a_Node000012"><a xlink:href="serial__builder_8cc.html" target="_top" xlink:title=" ">
<polygon fill="white" stroke="#666666" points="748.31,-96 632.31,-96 632.31,-66 748.31,-66 748.31,-96"/>
<text text-anchor="start" x="640.31" y="-84" font-family="Helvetica,sans-Serif" font-size="10.00">unilink/builder/serial</text>
<text text-anchor="middle" x="690.31" y="-73" font-family="Helvetica,sans-Serif" font-size="10.00">_builder.cc</text>
</a>
</g>
</g>
<!-- Node11&#45;&gt;Node12 -->
<g id="edge11_Node000011_Node000012" class="edge">
<title>Node11&#45;&gt;Node12</title>
<g id="a_edge11_Node000011_Node000012"><a xlink:title=" ">
<path fill="none" stroke="#63b8ff" d="M719.51,-123.53C713.11,-114.43 705.92,-104.19 700.27,-96.16"/>
<polygon fill="#63b8ff" stroke="#63b8ff" points="716.71,-125.63 725.32,-131.8 722.44,-121.6 716.71,-125.63"/>
</a>
</g>
</g>
<!-- Node13 -->
<g id="Node000013" class="node">
<title>Node13</title>
<g id="a_Node000013"><a xlink:href="unified__builder_8hpp.html" target="_top" xlink:title=" ">
<polygon fill="white" stroke="#666666" points="1052.31,-96 930.31,-96 930.31,-66 1052.31,-66 1052.31,-96"/>
<text text-anchor="start" x="938.31" y="-84" font-family="Helvetica,sans-Serif" font-size="10.00">unilink/builder/unified</text>
<text text-anchor="middle" x="991.31" y="-73" font-family="Helvetica,sans-Serif" font-size="10.00">_builder.hpp</text>
</a>
</g>
</g>
<!-- Node11&#45;&gt;Node13 -->
<g id="edge12_Node000011_Node000013" class="edge">
<title>Node11&#45;&gt;Node13</title>
<g id="a_edge12_Node000011_Node000013"><a xlink:title=" ">
<path fill="none" stroke="#63b8ff" d="M801.24,-129.52C842.76,-119.14 895.78,-105.88 935.26,-96.01"/>
<polygon fill="#63b8ff" stroke="#63b8ff" points="800.34,-126.13 791.49,-131.95 802.04,-132.92 800.34,-126.13"/>
</a>
</g>
</g>
<!-- Node13&#45;&gt;Node8 -->
<g id="edge14_Node000013_Node000008" class="edge">
<title>Node13&#45;&gt;Node8</title>
<g id="a_edge14_Node000013_Node000008"><a xlink:title=" ">
<path fill="none" stroke="#63b8ff" d="M943.51,-62.42C909.99,-50.09 866.65,-34.15 840.47,-24.52"/>
<polygon fill="#63b8ff" stroke="#63b8ff" points="942.53,-65.79 953.13,-65.95 944.95,-59.22 942.53,-65.79"/>
</a>
</g>
</g>
<!-- Node14 -->
<g id="Node000014" class="node">
<title>Node14</title>
<g id="a_Node000014"><a xlink:href="unified__builder_8cc.html" target="_top" xlink:title=" ">
<polygon fill="white" stroke="#666666" points="1052.31,-30 930.31,-30 930.31,0 1052.31,0 1052.31,-30"/>
<text text-anchor="start" x="938.31" y="-18" font-family="Helvetica,sans-Serif" font-size="10.00">unilink/builder/unified</text>
<text text-anchor="middle" x="991.31" y="-7" font-family="Helvetica,sans-Serif" font-size="10.00">_builder.cc</text>
</a>
</g>
</g>
<!-- Node13&#45;&gt;Node14 -->
<g id="edge13_Node000013_Node000014" class="edge">
<title>Node13&#45;&gt;Node14</title>
<g id="a_edge13_Node000013_Node000014"><a xlink:title=" ">
<path fill="none" stroke="#63b8ff" d="M991.31,-55.54C991.31,-46.96 991.31,-37.61 991.31,-30.16"/>
<polygon fill="#63b8ff" stroke="#63b8ff" points="987.81,-55.8 991.31,-65.8 994.81,-55.8 987.81,-55.8"/>
</a>
</g>
</g>
<!-- Node15&#45;&gt;Node8 -->
<g id="edge19_Node000015_Node000008" class="edge">
<title>Node15&#45;&gt;Node8</title>
<g id="a_edge19_Node000015_Node000008"><a xlink:title=" ">
<path fill="none" stroke="#63b8ff" d="M1027.6,-126.47C1052.63,-110.47 1078.53,-87.11 1061.31,-66 1049.32,-51.3 939.09,-33.26 870.96,-23.36"/>
<polygon fill="#63b8ff" stroke="#63b8ff" points="1025.57,-123.61 1018.86,-131.8 1029.21,-129.58 1025.57,-123.61"/>
</a>
</g>
</g>
<!-- Node15&#45;&gt;Node13 -->
<g id="edge18_Node000015_Node000013" class="edge">
<title>Node15&#45;&gt;Node13</title>
<g id="a_edge18_Node000015_Node000013"><a xlink:title=" ">
<path fill="none" stroke="#63b8ff" d="M991.31,-121.54C991.31,-112.96 991.31,-103.61 991.31,-96.16"/>
<polygon fill="#63b8ff" stroke="#63b8ff" points="987.81,-121.8 991.31,-131.8 994.81,-121.8 987.81,-121.8"/>
</a>
</g>
</g>
<!-- Node16 -->
<g id="Node000016" class="node">
<title>Node16</title>
<g id="a_Node000016"><a xlink:href="tcp__client__builder_8cc.html" target="_top" xlink:title=" ">
<polygon fill="white" stroke="#666666" points="1212.31,-96 1108.31,-96 1108.31,-66 1212.31,-66 1212.31,-96"/>
<text text-anchor="start" x="1116.31" y="-84" font-family="Helvetica,sans-Serif" font-size="10.00">unilink/builder/tcp</text>
<text text-anchor="middle" x="1160.31" y="-73" font-family="Helvetica,sans-Serif" font-size="10.00">_client_builder.cc</text>
</a>
</g>
</g>
<!-- Node15&#45;&gt;Node16 -->
<g id="edge17_Node000015_Node000016" class="edge">
<title>Node15&#45;&gt;Node16</title>
<g id="a_edge17_Node000015_Node000016"><a xlink:title=" ">
<path fill="none" stroke="#63b8ff" d="M1037.99,-128.32C1064.89,-118.14 1098.23,-105.51 1123.31,-96.01"/>
<polygon fill="#63b8ff" stroke="#63b8ff" points="1036.51,-125.14 1028.4,-131.95 1038.99,-131.69 1036.51,-125.14"/>
</a>
</g>
</g>
<!-- Node17&#45;&gt;Node8 -->
<g id="edge23_Node000017_Node000008" class="edge">
<title>Node17&#45;&gt;Node8</title>
<g id="a_edge23_Node000017_Node000008"><a xlink:title=" ">
<path fill="none" stroke="#63b8ff" d="M1285.39,-121.74C1281.07,-103.37 1272.19,-79.12 1254.31,-66 1194.3,-21.97 995.2,-38.97 921.31,-30 904.94,-28.01 887.15,-25.68 870.99,-23.5"/>
<polygon fill="#63b8ff" stroke="#63b8ff" points="1282,-122.66 1287.44,-131.75 1288.86,-121.26 1282,-122.66"/>
</a>
</g>
</g>
<!-- Node17&#45;&gt;Node13 -->
<g id="edge22_Node000017_Node000013" class="edge">
<title>Node17&#45;&gt;Node13</title>
<g id="a_edge22_Node000017_Node000013"><a xlink:title=" ">
<path fill="none" stroke="#63b8ff" d="M1223.32,-131.83C1172.32,-120.87 1102.25,-105.83 1052.5,-95.14"/>
<polygon fill="#63b8ff" stroke="#63b8ff" points="1222.75,-135.28 1233.26,-133.96 1224.22,-128.44 1222.75,-135.28"/>
</a>
</g>
</g>
<!-- Node18 -->
<g id="Node000018" class="node">
<title>Node18</title>
<g id="a_Node000018"><a xlink:href="tcp__server__builder_8cc.html" target="_top" xlink:title=" ">
<polygon fill="white" stroke="#666666" points="1410.31,-96 1306.31,-96 1306.31,-66 1410.31,-66 1410.31,-96"/>
<text text-anchor="start" x="1314.31" y="-84" font-family="Helvetica,sans-Serif" font-size="10.00">unilink/builder/tcp</text>
<text text-anchor="middle" x="1358.31" y="-73" font-family="Helvetica,sans-Serif" font-size="10.00">_server_builder.cc</text>
</a>
</g>
</g>
<!-- Node17&#45;&gt;Node18 -->
<g id="edge21_Node000017_Node000018" class="edge">
<title>Node17&#45;&gt;Node18</title>
<g id="a_edge21_Node000017_Node000018"><a xlink:title=" ">
<path fill="none" stroke="#63b8ff" d="M1312.03,-124.92C1322.21,-115.49 1333.94,-104.61 1343.04,-96.16"/>
<polygon fill="#63b8ff" stroke="#63b8ff" points="1309.58,-122.43 1304.62,-131.8 1314.34,-127.56 1309.58,-122.43"/>
</a>
</g>
</g>
<!-- Node19&#45;&gt;Node8 -->
<g id="edge27_Node000019_Node000008" class="edge">
<title>Node19&#45;&gt;Node8</title>
<g id="a_edge27_Node000019_Node000008"><a xlink:title=" ">
<path fill="none" stroke="#63b8ff" d="M825.06,-126.7C813.3,-118.91 801.85,-108.72 795.31,-96 782.92,-71.92 800.59,-40.06 810.86,-24.84"/>
<polygon fill="#63b8ff" stroke="#63b8ff" points="823.26,-129.7 833.61,-131.94 826.92,-123.73 823.26,-129.7"/>
</a>
</g>
</g>
<!-- Node19&#45;&gt;Node13 -->
<g id="edge26_Node000019_Node000013" class="edge">
<title>Node19&#45;&gt;Node13</title>
<g id="a_edge26_Node000019_Node000013"><a xlink:title=" ">
<path fill="none" stroke="#63b8ff" d="M901.97,-127.38C921.69,-117.36 945.6,-105.22 963.72,-96.01"/>
<polygon fill="#63b8ff" stroke="#63b8ff" points="900.29,-124.31 892.96,-131.95 903.46,-130.55 900.29,-124.31"/>
</a>
</g>
</g>
<!-- Node20 -->
<g id="Node000020" class="node">
<title>Node20</title>
<g id="a_Node000020"><a xlink:href="udp__builder_8cc.html" target="_top" xlink:title=" ">
<polygon fill="white" stroke="#666666" points="911.81,-96 804.81,-96 804.81,-66 911.81,-66 911.81,-96"/>
<text text-anchor="start" x="812.81" y="-84" font-family="Helvetica,sans-Serif" font-size="10.00">unilink/builder/udp</text>
<text text-anchor="middle" x="858.31" y="-73" font-family="Helvetica,sans-Serif" font-size="10.00">_builder.cc</text>
</a>
</g>
</g>
<!-- Node19&#45;&gt;Node20 -->
<g id="edge25_Node000019_Node000020" class="edge">
<title>Node19&#45;&gt;Node20</title>
<g id="a_edge25_Node000019_Node000020"><a xlink:title=" ">
<path fill="none" stroke="#63b8ff" d="M862.67,-121.83C861.72,-113.17 860.68,-103.7 859.86,-96.16"/>
<polygon fill="#63b8ff" stroke="#63b8ff" points="859.19,-122.24 863.76,-131.8 866.15,-121.48 859.19,-122.24"/>
</a>
</g>
</g>
<!-- Node21&#45;&gt;Node8 -->
<g id="edge30_Node000021_Node000008" class="edge">
<title>Node21&#45;&gt;Node8</title>
<g id="a_edge30_Node000021_Node000008"><a xlink:title=" ">
<path fill="none" stroke="#63b8ff" d="M1565.96,-126.05C1539,-106.87 1495.11,-78.93 1452.31,-66 1225.88,2.41 1156.65,-53.79 921.31,-30 904.91,-28.34 887.1,-26.11 870.94,-23.91"/>
<polygon fill="#63b8ff" stroke="#63b8ff" points="1563.94,-128.91 1574.09,-131.94 1568.05,-123.24 1563.94,-128.91"/>
</a>
</g>
</g>
<!-- Node22 -->
<g id="Node000022" class="node">
<title>Node22</title>
<g id="a_Node000022"><a xlink:href="uds__builder_8cc.html" target="_top" xlink:title=" ">
<polygon fill="white" stroke="#666666" points="1645.81,-96 1538.81,-96 1538.81,-66 1645.81,-66 1645.81,-96"/>
<text text-anchor="start" x="1546.81" y="-84" font-family="Helvetica,sans-Serif" font-size="10.00">unilink/builder/uds</text>
<text text-anchor="middle" x="1592.31" y="-73" font-family="Helvetica,sans-Serif" font-size="10.00">_builder.cc</text>
</a>
</g>
</g>
<!-- Node21&#45;&gt;Node22 -->
<g id="edge29_Node000021_Node000022" class="edge">
<title>Node21&#45;&gt;Node22</title>
<g id="a_edge29_Node000021_Node000022"><a xlink:title=" ">
<path fill="none" stroke="#63b8ff" d="M1592.31,-121.54C1592.31,-112.96 1592.31,-103.61 1592.31,-96.16"/>
<polygon fill="#63b8ff" stroke="#63b8ff" points="1588.81,-121.8 1592.31,-131.8 1595.81,-121.8 1588.81,-121.8"/>
</a>
</g>
</g>
<!-- Node23&#45;&gt;Node8 -->
<g id="edge35_Node000023_Node000008" class="edge">
<title>Node23&#45;&gt;Node8</title>
<g id="a_edge35_Node000023_Node000008"><a xlink:title=" ">
<path fill="none" stroke="#63b8ff" d="M589.25,-261.02C543.34,-246.68 476.19,-217.04 451.31,-162 432.78,-121.02 447.08,-92.64 483.31,-66 526.83,-34 680.72,-22.16 763.56,-18.04"/>
<polygon fill="#63b8ff" stroke="#63b8ff" points="588.41,-264.42 598.99,-263.94 590.41,-257.72 588.41,-264.42"/>
</a>
</g>
</g>
<!-- Node24 -->
<g id="Node000024" class="node">
<title>Node24</title>
<g id="a_Node000024"><a xlink:href="wrapper_2serial_2serial_8hpp.html" target="_top" xlink:title=" ">
<polygon fill="white" stroke="#666666" points="384.31,-228 262.31,-228 262.31,-198 384.31,-198 384.31,-228"/>
<text text-anchor="start" x="270.31" y="-216" font-family="Helvetica,sans-Serif" font-size="10.00">unilink/wrapper/serial</text>
<text text-anchor="middle" x="323.31" y="-205" font-family="Helvetica,sans-Serif" font-size="10.00">/serial.hpp</text>
</a>
</g>
</g>
<!-- Node23&#45;&gt;Node24 -->
<g id="edge36_Node000023_Node000024" class="edge">
<title>Node23&#45;&gt;Node24</title>
<g id="a_edge36_Node000023_Node000024"><a xlink:title=" ">
<path fill="none" stroke="#63b8ff" d="M580.06,-262.14C525.24,-251.86 441.41,-236.14 384.58,-225.49"/>
<polygon fill="#63b8ff" stroke="#63b8ff" points="579.47,-265.59 589.94,-263.99 580.76,-258.71 579.47,-265.59"/>
</a>
</g>
</g>
<!-- Node26 -->
<g id="Node000026" class="node">
<title>Node26</title>
<g id="a_Node000026"><a xlink:href="wrapper_2tcp__client_2tcp__client_8hpp.html" target="_top" xlink:title=" ">
<polygon fill="white" stroke="#666666" points="917.31,-228 797.31,-228 797.31,-198 917.31,-198 917.31,-228"/>
<text text-anchor="start" x="805.31" y="-216" font-family="Helvetica,sans-Serif" font-size="10.00">unilink/wrapper/tcp</text>
<text text-anchor="middle" x="857.31" y="-205" font-family="Helvetica,sans-Serif" font-size="10.00">_client/tcp_client.hpp</text>
</a>
</g>
</g>
<!-- Node23&#45;&gt;Node26 -->
<g id="edge40_Node000023_Node000026" class="edge">
<title>Node23&#45;&gt;Node26</title>
<g id="a_edge40_Node000023_Node000026"><a xlink:title=" ">
<path fill="none" stroke="#63b8ff" d="M677.27,-261.44C713.18,-251.98 765.08,-238.3 803.94,-228.06"/>
<polygon fill="#63b8ff" stroke="#63b8ff" points="676.37,-258.06 667.59,-263.99 678.15,-264.83 676.37,-258.06"/>
</a>
</g>
</g>
<!-- Node27 -->
<g id="Node000027" class="node">
<title>Node27</title>
<g id="a_Node000027"><a xlink:href="wrapper_2udp_2udp_8hpp.html" target="_top" xlink:title=" ">
<polygon fill="white" stroke="#666666" points="243.81,-228 130.81,-228 130.81,-198 243.81,-198 243.81,-228"/>
<text text-anchor="start" x="138.81" y="-216" font-family="Helvetica,sans-Serif" font-size="10.00">unilink/wrapper/udp</text>
<text text-anchor="middle" x="187.31" y="-205" font-family="Helvetica,sans-Serif" font-size="10.00">/udp.hpp</text>
</a>
</g>
</g>
<!-- Node23&#45;&gt;Node27 -->
<g id="edge44_Node000023_Node000027" class="edge">
<title>Node23&#45;&gt;Node27</title>
<g id="a_edge44_Node000023_Node000027"><a xlink:title=" ">
<path fill="none" stroke="#63b8ff" d="M545.77,-264.45C468.15,-256.9 352.94,-244.33 253.31,-228 250.31,-227.51 247.23,-226.97 244.13,-226.4"/>
<polygon fill="#63b8ff" stroke="#63b8ff" points="545.71,-267.96 556,-265.43 546.38,-260.99 545.71,-267.96"/>
</a>
</g>
</g>
<!-- Node29 -->
<g id="Node000029" class="node">
<title>Node29</title>
<g id="a_Node000029"><a xlink:href="wrapper_2uds__client_2uds__client_8hpp.html" target="_top" xlink:title=" ">
<polygon fill="white" stroke="#666666" points="1580.31,-228 1458.31,-228 1458.31,-198 1580.31,-198 1580.31,-228"/>
<text text-anchor="start" x="1466.31" y="-216" font-family="Helvetica,sans-Serif" font-size="10.00">unilink/wrapper/uds</text>
<text text-anchor="middle" x="1519.31" y="-205" font-family="Helvetica,sans-Serif" font-size="10.00">_client/uds_client.hpp</text>
</a>
</g>
</g>
<!-- Node23&#45;&gt;Node29 -->
<g id="edge48_Node000023_Node000029" class="edge">
<title>Node23&#45;&gt;Node29</title>
<g id="a_edge48_Node000023_Node000029"><a xlink:title=" ">
<path fill="none" stroke="#63b8ff" d="M724.43,-271.45C873.96,-268.82 1184.62,-259.68 1445.31,-228 1449.46,-227.5 1453.74,-226.9 1458.03,-226.24"/>
<polygon fill="#63b8ff" stroke="#63b8ff" points="724.32,-267.95 714.38,-271.62 724.43,-274.95 724.32,-267.95"/>
</a>
</g>
</g>
<!-- Node24&#45;&gt;Node8 -->
<g id="edge38_Node000024_Node000008" class="edge">
<title>Node24&#45;&gt;Node8</title>
<g id="a_edge38_Node000024_Node000008"><a xlink:title=" ">
<path fill="none" stroke="#63b8ff" d="M334.22,-188.42C338.06,-180.08 342.39,-170.63 346.31,-162 365.64,-119.43 351.62,-93.66 389.31,-66 447.67,-23.18 662.33,-16.53 763.67,-15.83"/>
<polygon fill="#63b8ff" stroke="#63b8ff" points="331,-187.03 329.99,-197.58 337.36,-189.96 331,-187.03"/>
</a>
</g>
</g>
<!-- Node24&#45;&gt;Node11 -->
<g id="edge37_Node000024_Node000011" class="edge">
<title>Node24&#45;&gt;Node11</title>
<g id="a_edge37_Node000024_Node000011"><a xlink:title=" ">
<path fill="none" stroke="#63b8ff" d="M394.54,-200.94C474.53,-188.51 602.83,-168.58 677.07,-157.05"/>
<polygon fill="#63b8ff" stroke="#63b8ff" points="393.89,-197.49 384.55,-202.49 394.97,-204.41 393.89,-197.49"/>
</a>
</g>
</g>
<!-- Node25 -->
<g id="Node000025" class="node">
<title>Node25</title>
<g id="a_Node000025"><a xlink:href="wrapper_2serial_2serial_8cc.html" target="_top" xlink:title=" ">
<polygon fill="white" stroke="#666666" points="337.31,-162 215.31,-162 215.31,-132 337.31,-132 337.31,-162"/>
<text text-anchor="start" x="223.31" y="-150" font-family="Helvetica,sans-Serif" font-size="10.00">unilink/wrapper/serial</text>
<text text-anchor="middle" x="276.31" y="-139" font-family="Helvetica,sans-Serif" font-size="10.00">/serial.cc</text>
</a>
</g>
</g>
<!-- Node24&#45;&gt;Node25 -->
<g id="edge39_Node000024_Node000025" class="edge">
<title>Node24&#45;&gt;Node25</title>
<g id="a_edge39_Node000024_Node000025"><a xlink:title=" ">
<path fill="none" stroke="#63b8ff" d="M306.81,-189.53C300.12,-180.43 292.61,-170.19 286.71,-162.16"/>
<polygon fill="#63b8ff" stroke="#63b8ff" points="304.14,-191.81 312.88,-197.8 309.78,-187.66 304.14,-191.81"/>
</a>
</g>
</g>
<!-- Node26&#45;&gt;Node5 -->
<g id="edge43_Node000026_Node000005" class="edge">
<title>Node26&#45;&gt;Node5</title>
<g id="a_edge43_Node000026_Node000005"><a xlink:title=" ">
<path fill="none" stroke="#63b8ff" d="M927.51,-197.07C980.55,-185.8 1052.42,-170.51 1101.79,-160.02"/>
<polygon fill="#63b8ff" stroke="#63b8ff" points="926.55,-193.7 917.5,-199.2 928.01,-200.55 926.55,-193.7"/>
</a>
</g>
</g>
<!-- Node26&#45;&gt;Node8 -->
<g id="edge42_Node000026_Node000008" class="edge">
<title>Node26&#45;&gt;Node8</title>
<g id="a_edge42_Node000026_Node000008"><a xlink:title=" ">
<path fill="none" stroke="#63b8ff" d="M786.98,-204.39C741.94,-197.56 683.18,-184.93 635.31,-162 624.68,-156.91 557.43,-106.61 552.31,-96 546.52,-83.99 543.8,-76.26 552.31,-66 578.61,-34.28 694,-22.54 763.55,-18.3"/>
<polygon fill="#63b8ff" stroke="#63b8ff" points="786.56,-207.86 796.96,-205.84 787.57,-200.94 786.56,-207.86"/>
</a>
</g>
</g>
<!-- Node26&#45;&gt;Node15 -->
<g id="edge41_Node000026_Node000015" class="edge">
<title>Node26&#45;&gt;Node15</title>
<g id="a_edge41_Node000026_Node000015"><a xlink:title=" ">
<path fill="none" stroke="#63b8ff" d="M896.02,-193.51C917.04,-183.47 942.61,-171.26 961.97,-162.01"/>
<polygon fill="#63b8ff" stroke="#63b8ff" points="894.23,-190.49 886.72,-197.95 897.25,-196.8 894.23,-190.49"/>
</a>
</g>
</g>
<!-- Node27&#45;&gt;Node8 -->
<g id="edge46_Node000027_Node000008" class="edge">
<title>Node27&#45;&gt;Node8</title>
<g id="a_edge46_Node000027_Node000008"><a xlink:title=" ">
<path fill="none" stroke="#63b8ff" d="M187.51,-187.42C188.88,-170.12 193.32,-147.4 206.31,-132 254.59,-74.77 288.87,-84.95 361.31,-66 503.46,-28.81 677.57,-19.26 763.73,-16.82"/>
<polygon fill="#63b8ff" stroke="#63b8ff" points="183.99,-187.71 186.99,-197.87 190.98,-188.06 183.99,-187.71"/>
</a>
</g>
</g>
<!-- Node27&#45;&gt;Node19 -->
<g id="edge45_Node000027_Node000019" class="edge">
<title>Node27&#45;&gt;Node19</title>
<g id="a_edge45_Node000027_Node000019"><a xlink:title=" ">
<path fill="none" stroke="#63b8ff" d="M254.31,-198.02C497.34,-165.41 563.56,-196.15 802.31,-162 805.42,-161.56 808.6,-161.04 811.8,-160.48"/>
<polygon fill="#63b8ff" stroke="#63b8ff" points="253.54,-194.59 244.1,-199.41 254.48,-201.53 253.54,-194.59"/>
</a>
</g>
</g>
<!-- Node28 -->
<g id="Node000028" class="node">
<title>Node28</title>
<g id="a_Node000028"><a xlink:href="wrapper_2udp_2udp_8cc.html" target="_top" xlink:title=" ">
<polygon fill="white" stroke="#666666" points="158.81,-162 45.81,-162 45.81,-132 158.81,-132 158.81,-162"/>
<text text-anchor="start" x="53.81" y="-150" font-family="Helvetica,sans-Serif" font-size="10.00">unilink/wrapper/udp</text>
<text text-anchor="middle" x="102.31" y="-139" font-family="Helvetica,sans-Serif" font-size="10.00">/udp.cc</text>
</a>
</g>
</g>
<!-- Node27&#45;&gt;Node28 -->
<g id="edge47_Node000027_Node000028" class="edge">
<title>Node27&#45;&gt;Node28</title>
<g id="a_edge47_Node000027_Node000028"><a xlink:title=" ">
<path fill="none" stroke="#63b8ff" d="M160.42,-191.75C147.64,-182.13 132.67,-170.86 121.12,-162.16"/>
<polygon fill="#63b8ff" stroke="#63b8ff" points="158.35,-194.58 168.45,-197.8 162.56,-188.99 158.35,-194.58"/>
</a>
</g>
</g>
<!-- Node29&#45;&gt;Node6 -->
<g id="edge51_Node000029_Node000006" class="edge">
<title>Node29&#45;&gt;Node6</title>
<g id="a_edge51_Node000029_Node000006"><a xlink:title=" ">
<path fill="none" stroke="#63b8ff" d="M1581.87,-195.39C1620.89,-185.03 1670.53,-171.84 1707.55,-162.01"/>
<polygon fill="#63b8ff" stroke="#63b8ff" points="1580.97,-192.01 1572.2,-197.95 1582.76,-198.77 1580.97,-192.01"/>
</a>
</g>
</g>
<!-- Node29&#45;&gt;Node8 -->
<g id="edge50_Node000029_Node000008" class="edge">
<title>Node29&#45;&gt;Node8</title>
<g id="a_edge50_Node000029_Node000008"><a xlink:title=" ">
<path fill="none" stroke="#63b8ff" d="M1448.05,-198.33C1447.13,-198.22 1446.22,-198.11 1445.31,-198 1359.47,-187.94 745.53,-200.81 668.31,-162 634.45,-144.98 627.05,-131.69 614.31,-96 609.83,-83.44 606.09,-76.5 614.31,-66 632.56,-42.72 709.87,-28.81 763.63,-21.78"/>
<polygon fill="#63b8ff" stroke="#63b8ff" points="1447.65,-201.81 1458.04,-199.72 1448.61,-194.88 1447.65,-201.81"/>
</a>
</g>
</g>
<!-- Node29&#45;&gt;Node21 -->
<g id="edge49_Node000029_Node000021" class="edge">
<title>Node29&#45;&gt;Node21</title>
<g id="a_edge49_Node000029_Node000021"><a xlink:title=" ">
<path fill="none" stroke="#63b8ff" d="M1543.03,-191.2C1553.87,-181.7 1566.43,-170.69 1576.16,-162.16"/>
<polygon fill="#63b8ff" stroke="#63b8ff" points="1540.72,-188.57 1535.51,-197.8 1545.34,-193.84 1540.72,-188.57"/>
</a>
</g>
</g>
<!-- Node30&#45;&gt;Node8 -->
<g id="edge53_Node000030_Node000008" class="edge">
<title>Node30&#45;&gt;Node8</title>
<g id="a_edge53_Node000030_Node000008"><a xlink:title=" ">
<path fill="none" stroke="#63b8ff" d="M1458.32,-267.65C1551.21,-261.42 1693.47,-248.82 1743.31,-228 1795.35,-206.26 1857.02,-179.31 1826.31,-132 1787.1,-71.59 1748.38,-82.66 1678.31,-66 1514.47,-27.03 1089.03,-45.25 921.31,-30 904.89,-28.51 887.08,-26.32 870.92,-24.12"/>
<polygon fill="#63b8ff" stroke="#63b8ff" points="1457.84,-264.18 1448.09,-268.33 1458.3,-271.16 1457.84,-264.18"/>
</a>
</g>
</g>
<!-- Node31 -->
<g id="Node000031" class="node">
<title>Node31</title>
<g id="a_Node000031"><a xlink:href="wrapper_2tcp__server_2tcp__server_8hpp.html" target="_top" xlink:title=" ">
<polygon fill="white" stroke="#666666" points="1436.81,-228 1309.81,-228 1309.81,-198 1436.81,-198 1436.81,-228"/>
<text text-anchor="start" x="1317.81" y="-216" font-family="Helvetica,sans-Serif" font-size="10.00">unilink/wrapper/tcp</text>
<text text-anchor="middle" x="1373.31" y="-205" font-family="Helvetica,sans-Serif" font-size="10.00">_server/tcp_server.hpp</text>
</a>
</g>
</g>
<!-- Node30&#45;&gt;Node31 -->
<g id="edge54_Node000030_Node000031" class="edge">
<title>Node30&#45;&gt;Node31</title>
<g id="a_edge54_Node000030_Node000031"><a xlink:title=" ">
<path fill="none" stroke="#63b8ff" d="M1373.31,-253.65C1373.31,-245.36 1373.31,-235.78 1373.31,-228.11"/>
<polygon fill="#63b8ff" stroke="#63b8ff" points="1369.81,-253.87 1373.31,-263.87 1376.81,-253.87 1369.81,-253.87"/>
</a>
</g>
</g>
<!-- Node33 -->
<g id="Node000033" class="node">
<title>Node33</title>
<g id="a_Node000033"><a xlink:href="udp__server_8hpp.html" target="_top" xlink:title=" ">
<polygon fill="white" stroke="#666666" points="648.81,-228 535.81,-228 535.81,-198 648.81,-198 648.81,-228"/>
<text text-anchor="start" x="543.81" y="-216" font-family="Helvetica,sans-Serif" font-size="10.00">unilink/wrapper/udp</text>
<text text-anchor="middle" x="592.31" y="-205" font-family="Helvetica,sans-Serif" font-size="10.00">/udp_server.hpp</text>
</a>
</g>
</g>
<!-- Node30&#45;&gt;Node33 -->
<g id="edge58_Node000030_Node000033" class="edge">
<title>Node30&#45;&gt;Node33</title>
<g id="a_edge58_Node000030_Node000033"><a xlink:title=" ">
<path fill="none" stroke="#63b8ff" d="M1288.49,-266.15C1128.12,-254.13 784.43,-228.39 648.91,-218.24"/>
<polygon fill="#63b8ff" stroke="#63b8ff" points="1288.55,-269.66 1298.78,-266.92 1289.07,-262.68 1288.55,-269.66"/>
</a>
</g>
</g>
<!-- Node35 -->
<g id="Node000035" class="node">
<title>Node35</title>
<g id="a_Node000035"><a xlink:href="wrapper_2uds__server_2uds__server_8hpp.html" target="_top" xlink:title=" ">
<polygon fill="white" stroke="#666666" points="1734.81,-228 1605.81,-228 1605.81,-198 1734.81,-198 1734.81,-228"/>
<text text-anchor="start" x="1613.81" y="-216" font-family="Helvetica,sans-Serif" font-size="10.00">unilink/wrapper/uds</text>
<text text-anchor="middle" x="1670.31" y="-205" font-family="Helvetica,sans-Serif" font-size="10.00">_server/uds_server.hpp</text>
</a>
</g>
</g>
<!-- Node30&#45;&gt;Node35 -->
<g id="edge62_Node000030_Node000035" class="edge">
<title>Node30&#45;&gt;Node35</title>
<g id="a_edge62_Node000030_Node000035"><a xlink:title=" ">
<path fill="none" stroke="#63b8ff" d="M1426.5,-262.02C1476.7,-252.14 1552.06,-237.29 1605.7,-226.73"/>
<polygon fill="#63b8ff" stroke="#63b8ff" points="1425.63,-258.63 1416.5,-263.99 1426.99,-265.49 1425.63,-258.63"/>
</a>
</g>
</g>
<!-- Node31&#45;&gt;Node8 -->
<g id="edge56_Node000031_Node000008" class="edge">
<title>Node31&#45;&gt;Node8</title>
<g id="a_edge56_Node000031_Node000008"><a xlink:title=" ">
<path fill="none" stroke="#63b8ff" d="M1376.46,-187.51C1379.19,-171.22 1384.04,-149.64 1392.31,-132 1405.76,-103.3 1440.9,-89.2 1419.31,-66 1381.52,-25.38 976.49,-35.7 921.31,-30 904.91,-28.3 887.11,-26.06 870.95,-23.86"/>
<polygon fill="#63b8ff" stroke="#63b8ff" points="1372.93,-187.43 1374.89,-197.84 1379.85,-188.48 1372.93,-187.43"/>
</a>
</g>
</g>
<!-- Node31&#45;&gt;Node17 -->
<g id="edge55_Node000031_Node000017" class="edge">
<title>Node31&#45;&gt;Node17</title>
<g id="a_edge55_Node000031_Node000017"><a xlink:title=" ">
<path fill="none" stroke="#63b8ff" d="M1346.38,-191.48C1333.82,-181.91 1319.2,-170.77 1307.9,-162.16"/>
<polygon fill="#63b8ff" stroke="#63b8ff" points="1344.59,-194.52 1354.67,-197.8 1348.84,-188.95 1344.59,-194.52"/>
</a>
</g>
</g>
<!-- Node32 -->
<g id="Node000032" class="node">
<title>Node32</title>
<g id="a_Node000032"><a xlink:href="wrapper_2tcp__server_2tcp__server_8cc.html" target="_top" xlink:title=" ">
<polygon fill="white" stroke="#666666" points="1520.81,-162 1401.81,-162 1401.81,-132 1520.81,-132 1520.81,-162"/>
<text text-anchor="start" x="1409.81" y="-150" font-family="Helvetica,sans-Serif" font-size="10.00">unilink/wrapper/tcp</text>
<text text-anchor="middle" x="1461.31" y="-139" font-family="Helvetica,sans-Serif" font-size="10.00">_server/tcp_server.cc</text>
</a>
</g>
</g>
<!-- Node31&#45;&gt;Node32 -->
<g id="edge57_Node000031_Node000032" class="edge">
<title>Node31&#45;&gt;Node32</title>
<g id="a_edge57_Node000031_Node000032"><a xlink:title=" ">
<path fill="none" stroke="#63b8ff" d="M1401.15,-191.75C1414.38,-182.13 1429.88,-170.86 1441.84,-162.16"/>
<polygon fill="#63b8ff" stroke="#63b8ff" points="1398.87,-189.08 1392.84,-197.8 1402.99,-194.75 1398.87,-189.08"/>
</a>
</g>
</g>
<!-- Node33&#45;&gt;Node8 -->
<g id="edge60_Node000033_Node000008" class="edge">
<title>Node33&#45;&gt;Node8</title>
<g id="a_edge60_Node000033_Node000008"><a xlink:title=" ">
<path fill="none" stroke="#63b8ff" d="M525.84,-202.97C501.05,-196.01 475.31,-183.72 460.31,-162 452.73,-151.03 454.52,-144.01 460.31,-132 480.79,-89.55 500.4,-85.48 543.31,-66 615.19,-33.37 706.82,-22.02 763.78,-18.08"/>
<polygon fill="#63b8ff" stroke="#63b8ff" points="525.08,-206.39 535.64,-205.46 526.81,-199.6 525.08,-206.39"/>
</a>
</g>
</g>
<!-- Node33&#45;&gt;Node19 -->
<g id="edge59_Node000033_Node000019" class="edge">
<title>Node33&#45;&gt;Node19</title>
<g id="a_edge59_Node000033_Node000019"><a xlink:title=" ">
<path fill="none" stroke="#63b8ff" d="M658.65,-196.45C705.6,-185.44 767.76,-170.87 811.6,-160.59"/>
<polygon fill="#63b8ff" stroke="#63b8ff" points="657.81,-193.05 648.88,-198.74 659.41,-199.86 657.81,-193.05"/>
</a>
</g>
</g>
<!-- Node34 -->
<g id="Node000034" class="node">
<title>Node34</title>
<g id="a_Node000034"><a xlink:href="udp__server_8cc.html" target="_top" xlink:title=" ">
<polygon fill="white" stroke="#666666" points="582.81,-162 469.81,-162 469.81,-132 582.81,-132 582.81,-162"/>
<text text-anchor="start" x="477.81" y="-150" font-family="Helvetica,sans-Serif" font-size="10.00">unilink/wrapper/udp</text>
<text text-anchor="middle" x="526.31" y="-139" font-family="Helvetica,sans-Serif" font-size="10.00">/udp_server.cc</text>
</a>
</g>
</g>
<!-- Node33&#45;&gt;Node34 -->
<g id="edge61_Node000033_Node000034" class="edge">
<title>Node33&#45;&gt;Node34</title>
<g id="a_edge61_Node000033_Node000034"><a xlink:title=" ">
<path fill="none" stroke="#63b8ff" d="M570.29,-190.65C560.62,-181.27 549.54,-170.53 540.92,-162.16"/>
<polygon fill="#63b8ff" stroke="#63b8ff" points="568.05,-193.35 577.66,-197.8 572.92,-188.32 568.05,-193.35"/>
</a>
</g>
</g>
<!-- Node35&#45;&gt;Node7 -->
<g id="edge65_Node000035_Node000007" class="edge">
<title>Node35&#45;&gt;Node7</title>
<g id="a_edge65_Node000035_Node000007"><a xlink:title=" ">
<path fill="none" stroke="#63b8ff" d="M1738.29,-195.58C1781.31,-185.19 1836.33,-171.9 1877.29,-162.01"/>
<polygon fill="#63b8ff" stroke="#63b8ff" points="1737.37,-192.21 1728.47,-197.95 1739.01,-199.01 1737.37,-192.21"/>
</a>
</g>
</g>
<!-- Node35&#45;&gt;Node8 -->
<g id="edge64_Node000035_Node000008" class="edge">
<title>Node35&#45;&gt;Node8</title>
<g id="a_edge64_Node000035_Node000008"><a xlink:title=" ">
<path fill="none" stroke="#63b8ff" d="M1676.07,-187.71C1682.24,-154.89 1687.17,-96.94 1654.31,-66 1624.63,-38.05 961.91,-33.72 921.31,-30 904.89,-28.49 887.08,-26.3 870.92,-24.1"/>
<polygon fill="#63b8ff" stroke="#63b8ff" points="1672.58,-187.3 1673.98,-197.8 1679.43,-188.71 1672.58,-187.3"/>
</a>
</g>
</g>
<!-- Node35&#45;&gt;Node21 -->
<g id="edge63_Node000035_Node000021" class="edge">
<title>Node35&#45;&gt;Node21</title>
<g id="a_edge63_Node000035_Node000021"><a xlink:title=" ">
<path fill="none" stroke="#63b8ff" d="M1644.96,-191.2C1633.38,-181.7 1619.97,-170.69 1609.57,-162.16"/>
<polygon fill="#63b8ff" stroke="#63b8ff" points="1643.05,-194.16 1653,-197.8 1647.49,-188.75 1643.05,-194.16"/>
</a>
</g>
</g>
</g>
</svg>
