<?xml version="1.0" encoding="UTF-8" standalone="no"?>
<!DOCTYPE svg PUBLIC "-//W3C//DTD SVG 1.1//EN"
 "http://www.w3.org/Graphics/SVG/1.1/DTD/svg11.dtd">
<!-- Generated by graphviz version 2.43.0 (0)
 -->
<!-- Title: unilink/diagnostics/error_handler.cc Pages: 1 -->
<svg width="1149pt" height="225pt"
 viewBox="0.00 0.00 1148.50 225.00" xmlns="http://www.w3.org/2000/svg" xmlns:xlink="http://www.w3.org/1999/xlink">
<g id="graph0" class="graph" transform="scale(1 1) rotate(0) translate(4 221)">
<title>unilink/diagnostics/error_handler.cc</title>
<!-- Node1 -->
<g id="Node000001" class="node">
<title>Node1</title>
<g id="a_Node000001"><a xlink:title=" ">
<polygon fill="#999999" stroke="#666666" points="642.5,-217 534.5,-217 534.5,-187 642.5,-187 642.5,-217"/>
<text text-anchor="start" x="542.5" y="-205" font-family="Helvetica,sans-Serif" font-size="10.00">unilink/diagnostics</text>
<text text-anchor="middle" x="588.5" y="-194" font-family="Helvetica,sans-Serif" font-size="10.00">/error_handler.cc</text>
</a>
</g>
</g>
<!-- Node2 -->
<g id="Node000002" class="node">
<title>Node2</title>
<g id="a_Node000002"><a xlink:href="error__handler_8hpp.html" target="_top" xlink:title=" ">
<polygon fill="white" stroke="#666666" points="642.5,-151 534.5,-151 534.5,-121 642.5,-121 642.5,-151"/>
<text text-anchor="start" x="542.5" y="-139" font-family="Helvetica,sans-Serif" font-size="10.00">unilink/diagnostics</text>
<text text-anchor="middle" x="588.5" y="-128" font-family="Helvetica,sans-Serif" font-size="10.00">/error_handler.hpp</text>
</a>
</g>
</g>
<!-- Node1&#45;&gt;Node2 -->
<g id="edge1_Node000001_Node000002" class="edge">
<title>Node1&#45;&gt;Node2</title>
<g id="a_edge1_Node000001_Node000002"><a xlink:title=" ">
<path fill="none" stroke="#63b8ff" d="M588.5,-186.8C588.5,-179.34 588.5,-169.99 588.5,-161.41"/>
<polygon fill="#63b8ff" stroke="#63b8ff" points="592,-161.16 588.5,-151.16 585,-161.16 592,-161.16"/>
</a>
</g>
</g>
<!-- Node7 -->
<g id="Node000007" class="node">
<title>Node7</title>
<g id="a_Node000007"><a xlink:title=" ">
<polygon fill="#e0e0e0" stroke="#999999" points="73,-24.5 0,-24.5 0,-5.5 73,-5.5 73,-24.5"/>
<text text-anchor="middle" x="36.5" y="-12.5" font-family="Helvetica,sans-Serif" font-size="10.00">string_view</text>
</a>
</g>
</g>
<!-- Node1&#45;&gt;Node7 -->
<g id="edge24_Node000001_Node000007" class="edge">
<title>Node1&#45;&gt;Node7</title>
<g id="a_edge24_Node000001_Node000007"><a xlink:title=" ">
<path fill="none" stroke="#63b8ff" d="M534.33,-200.66C419.76,-199.14 156.97,-191.24 78.5,-151 43.75,-133.18 34.27,-121.54 20.5,-85 14.15,-68.15 20.3,-48 26.73,-33.83"/>
<polygon fill="#63b8ff" stroke="#63b8ff" points="29.95,-35.22 31.28,-24.71 23.68,-32.1 29.95,-35.22"/>
</a>
</g>
</g>
<!-- Node11 -->
<g id="Node000011" class="node">
<title>Node11</title>
<g id="a_Node000011"><a xlink:title=" ">
<polygon fill="#e0e0e0" stroke="#999999" points="378.5,-24.5 314.5,-24.5 314.5,-5.5 378.5,-5.5 378.5,-24.5"/>
<text text-anchor="middle" x="346.5" y="-12.5" font-family="Helvetica,sans-Serif" font-size="10.00">algorithm</text>
</a>
</g>
</g>
<!-- Node1&#45;&gt;Node11 -->
<g id="edge20_Node000001_Node000011" class="edge">
<title>Node1&#45;&gt;Node11</title>
<g id="a_edge20_Node000001_Node000011"><a xlink:title=" ">
<path fill="none" stroke="#63b8ff" d="M534.45,-198.65C405.7,-191.75 87.13,-166.61 27.5,-85 22.52,-78.18 22.01,-72.42 27.5,-66 62.64,-24.93 225.85,-17.36 304.25,-16.13"/>
<polygon fill="#63b8ff" stroke="#63b8ff" points="304.32,-19.63 314.27,-16 304.23,-12.63 304.32,-19.63"/>
</a>
</g>
</g>
<!-- Node16 -->
<g id="Node000016" class="node">
<title>Node16</title>
<g id="a_Node000016"><a xlink:title=" ">
<polygon fill="#e0e0e0" stroke="#999999" points="1035.5,-24.5 979.5,-24.5 979.5,-5.5 1035.5,-5.5 1035.5,-24.5"/>
<text text-anchor="middle" x="1007.5" y="-12.5" font-family="Helvetica,sans-Serif" font-size="10.00">iomanip</text>
</a>
</g>
</g>
<!-- Node1&#45;&gt;Node16 -->
<g id="edge21_Node000001_Node000016" class="edge">
<title>Node1&#45;&gt;Node16</title>
<g id="a_edge21_Node000001_Node000016"><a xlink:title=" ">
<path fill="none" stroke="#63b8ff" d="M642.86,-192.77C742.44,-176.57 948.26,-137.5 995.5,-85 1007.55,-71.6 1009.67,-50.59 1009.32,-35.27"/>
<polygon fill="#63b8ff" stroke="#63b8ff" points="1012.79,-34.66 1008.69,-24.88 1005.8,-35.08 1012.79,-34.66"/>
</a>
</g>
</g>
<!-- Node17 -->
<g id="Node000017" class="node">
<title>Node17</title>
<g id="a_Node000017"><a xlink:title=" ">
<polygon fill="#e0e0e0" stroke="#999999" points="1109.5,-24.5 1053.5,-24.5 1053.5,-5.5 1109.5,-5.5 1109.5,-24.5"/>
<text text-anchor="middle" x="1081.5" y="-12.5" font-family="Helvetica,sans-Serif" font-size="10.00">sstream</text>
</a>
</g>
</g>
<!-- Node1&#45;&gt;Node17 -->
<g id="edge23_Node000001_Node000017" class="edge">
<title>Node1&#45;&gt;Node17</title>
<g id="a_edge23_Node000001_Node000017"><a xlink:title=" ">
<path fill="none" stroke="#63b8ff" d="M642.52,-198.82C706.92,-194.8 816.93,-183.37 905.5,-151 958.69,-131.56 970.19,-120.27 1014.5,-85 1034.59,-69.01 1054.73,-47.32 1067.6,-32.56"/>
<polygon fill="#63b8ff" stroke="#63b8ff" points="1070.43,-34.63 1074.29,-24.76 1065.12,-30.08 1070.43,-34.63"/>
</a>
</g>
</g>
<!-- Node20 -->
<g id="Node000020" class="node">
<title>Node20</title>
<g id="a_Node000020"><a xlink:title=" ">
<polygon fill="#e0e0e0" stroke="#999999" points="1140.5,-145.5 1080.5,-145.5 1080.5,-126.5 1140.5,-126.5 1140.5,-145.5"/>
<text text-anchor="middle" x="1110.5" y="-133.5" font-family="Helvetica,sans-Serif" font-size="10.00">iostream</text>
</a>
</g>
</g>
<!-- Node1&#45;&gt;Node20 -->
<g id="edge22_Node000001_Node000020" class="edge">
<title>Node1&#45;&gt;Node20</title>
<g id="a_edge22_Node000001_Node000020"><a xlink:title=" ">
<path fill="none" stroke="#63b8ff" d="M642.82,-198.92C732.08,-194.7 915,-182.68 1066.5,-151 1069.9,-150.29 1073.41,-149.42 1076.89,-148.46"/>
<polygon fill="#63b8ff" stroke="#63b8ff" points="1077.94,-151.8 1086.53,-145.6 1075.95,-145.09 1077.94,-151.8"/>
</a>
</g>
</g>
<!-- Node21 -->
<g id="Node000021" class="node">
<title>Node21</title>
<g id="a_Node000021"><a xlink:href="logger_8hpp.html" target="_top" xlink:title=" ">
<polygon fill="white" stroke="#666666" points="351.5,-151 243.5,-151 243.5,-121 351.5,-121 351.5,-151"/>
<text text-anchor="start" x="251.5" y="-139" font-family="Helvetica,sans-Serif" font-size="10.00">unilink/diagnostics</text>
<text text-anchor="middle" x="297.5" y="-128" font-family="Helvetica,sans-Serif" font-size="10.00">/logger.hpp</text>
</a>
</g>
</g>
<!-- Node1&#45;&gt;Node21 -->
<g id="edge25_Node000001_Node000021" class="edge">
<title>Node1&#45;&gt;Node21</title>
<g id="a_edge25_Node000001_Node000021"><a xlink:title=" ">
<path fill="none" stroke="#63b8ff" d="M534.45,-189.11C485.6,-178.37 413.63,-162.54 361.83,-151.15"/>
<polygon fill="#63b8ff" stroke="#63b8ff" points="362.27,-147.66 351.76,-148.93 360.77,-154.5 362.27,-147.66"/>
</a>
</g>
</g>
<!-- Node3 -->
<g id="Node000003" class="node">
<title>Node3</title>
<g id="a_Node000003"><a xlink:title=" ">
<polygon fill="#e0e0e0" stroke="#999999" points="434.5,-85 384.5,-85 384.5,-66 434.5,-66 434.5,-85"/>
<text text-anchor="middle" x="409.5" y="-73" font-family="Helvetica,sans-Serif" font-size="10.00">atomic</text>
</a>
</g>
</g>
<!-- Node2&#45;&gt;Node3 -->
<g id="edge2_Node000002_Node000003" class="edge">
<title>Node2&#45;&gt;Node3</title>
<g id="a_edge2_Node000002_Node000003"><a xlink:title=" ">
<path fill="none" stroke="#63b8ff" d="M545.63,-120.99C514.63,-110.86 473.29,-97.35 444.32,-87.88"/>
<polygon fill="#63b8ff" stroke="#63b8ff" points="445.23,-84.49 434.63,-84.71 443.05,-91.15 445.23,-84.49"/>
</a>
</g>
</g>
<!-- Node4 -->
<g id="Node000004" class="node">
<title>Node4</title>
<g id="a_Node000004"><a xlink:title=" ">
<polygon fill="#e0e0e0" stroke="#999999" points="290,-85 225,-85 225,-66 290,-66 290,-85"/>
<text text-anchor="middle" x="257.5" y="-73" font-family="Helvetica,sans-Serif" font-size="10.00">functional</text>
</a>
</g>
</g>
<!-- Node2&#45;&gt;Node4 -->
<g id="edge3_Node000002_Node000004" class="edge">
<title>Node2&#45;&gt;Node4</title>
<g id="a_edge3_Node000002_Node000004"><a xlink:title=" ">
<path fill="none" stroke="#63b8ff" d="M534.35,-126.1C478.32,-116.79 388.02,-101.49 299.94,-85.04"/>
<polygon fill="#63b8ff" stroke="#63b8ff" points="300.52,-81.58 290.04,-83.18 299.23,-88.46 300.52,-81.58"/>
</a>
</g>
</g>
<!-- Node5 -->
<g id="Node000005" class="node">
<title>Node5</title>
<g id="a_Node000005"><a xlink:title=" ">
<polygon fill="#e0e0e0" stroke="#999999" points="366.5,-85 308.5,-85 308.5,-66 366.5,-66 366.5,-85"/>
<text text-anchor="middle" x="337.5" y="-73" font-family="Helvetica,sans-Serif" font-size="10.00">memory</text>
</a>
</g>
</g>
<!-- Node2&#45;&gt;Node5 -->
<g id="edge4_Node000002_Node000005" class="edge">
<title>Node2&#45;&gt;Node5</title>
<g id="a_edge4_Node000002_Node000005"><a xlink:title=" ">
<path fill="none" stroke="#63b8ff" d="M534.35,-122.38C486.82,-111.3 418.84,-95.46 376.48,-85.59"/>
<polygon fill="#63b8ff" stroke="#63b8ff" points="377.09,-82.13 366.55,-83.27 375.5,-88.95 377.09,-82.13"/>
</a>
</g>
</g>
<!-- Node6 -->
<g id="Node000006" class="node">
<title>Node6</title>
<g id="a_Node000006"><a xlink:title=" ">
<polygon fill="#e0e0e0" stroke="#999999" points="874.5,-85 826.5,-85 826.5,-66 874.5,-66 874.5,-85"/>
<text text-anchor="middle" x="850.5" y="-73" font-family="Helvetica,sans-Serif" font-size="10.00">mutex</text>
</a>
</g>
</g>
<!-- Node2&#45;&gt;Node6 -->
<g id="edge5_Node000002_Node000006" class="edge">
<title>Node2&#45;&gt;Node6</title>
<g id="a_edge5_Node000002_Node000006"><a xlink:title=" ">
<path fill="none" stroke="#63b8ff" d="M642.76,-123.74C686.98,-114.44 751.27,-100.61 816.35,-85.21"/>
<polygon fill="#63b8ff" stroke="#63b8ff" points="817.46,-88.54 826.38,-82.82 815.84,-81.73 817.46,-88.54"/>
</a>
</g>
</g>
<!-- Node2&#45;&gt;Node7 -->
<g id="edge6_Node000002_Node000007" class="edge">
<title>Node2&#45;&gt;Node7</title>
<g id="a_edge6_Node000002_Node000007"><a xlink:title=" ">
<path fill="none" stroke="#63b8ff" d="M624.63,-120.94C653.65,-107.65 686.65,-86.73 667.5,-66 657.59,-55.27 228.64,-27.86 83.74,-18.89"/>
<polygon fill="#63b8ff" stroke="#63b8ff" points="83.61,-15.37 73.41,-18.25 83.18,-22.36 83.61,-15.37"/>
</a>
</g>
</g>
<!-- Node8 -->
<g id="Node000008" class="node">
<title>Node8</title>
<g id="a_Node000008"><a xlink:title=" ">
<polygon fill="#e0e0e0" stroke="#999999" points="808,-85 715,-85 715,-66 808,-66 808,-85"/>
<text text-anchor="middle" x="761.5" y="-73" font-family="Helvetica,sans-Serif" font-size="10.00">unordered_map</text>
</a>
</g>
</g>
<!-- Node2&#45;&gt;Node8 -->
<g id="edge7_Node000002_Node000008" class="edge">
<title>Node2&#45;&gt;Node8</title>
<g id="a_edge7_Node000002_Node000008"><a xlink:title=" ">
<path fill="none" stroke="#63b8ff" d="M629.94,-120.99C659.41,-111.02 698.56,-97.78 726.47,-88.35"/>
<polygon fill="#63b8ff" stroke="#63b8ff" points="727.85,-91.57 736.2,-85.05 725.61,-84.94 727.85,-91.57"/>
</a>
</g>
</g>
<!-- Node9 -->
<g id="Node000009" class="node">
<title>Node9</title>
<g id="a_Node000009"><a xlink:title=" ">
<polygon fill="#e0e0e0" stroke="#999999" points="500,-85 453,-85 453,-66 500,-66 500,-85"/>
<text text-anchor="middle" x="476.5" y="-73" font-family="Helvetica,sans-Serif" font-size="10.00">vector</text>
</a>
</g>
</g>
<!-- Node2&#45;&gt;Node9 -->
<g id="edge8_Node000002_Node000009" class="edge">
<title>Node2&#45;&gt;Node9</title>
<g id="a_edge8_Node000002_Node000009"><a xlink:title=" ">
<path fill="none" stroke="#63b8ff" d="M561.67,-120.99C543.65,-111.58 520.04,-99.24 502.25,-89.95"/>
<polygon fill="#63b8ff" stroke="#63b8ff" points="503.52,-86.67 493.04,-85.14 500.28,-92.87 503.52,-86.67"/>
</a>
</g>
</g>
<!-- Node10 -->
<g id="Node000010" class="node">
<title>Node10</title>
<g id="a_Node000010"><a xlink:href="error__types_8hpp.html" target="_top" xlink:title=" ">
<polygon fill="white" stroke="#666666" points="986,-85 893,-85 893,-66 986,-66 986,-85"/>
<text text-anchor="middle" x="939.5" y="-73" font-family="Helvetica,sans-Serif" font-size="10.00">error_types.hpp</text>
</a>
</g>
</g>
<!-- Node2&#45;&gt;Node10 -->
<g id="edge9_Node000002_Node000010" class="edge">
<title>Node2&#45;&gt;Node10</title>
<g id="a_edge9_Node000002_Node000010"><a xlink:title=" ">
<path fill="none" stroke="#63b8ff" d="M642.57,-125.99C707.65,-115.14 816.41,-97.02 882.68,-85.97"/>
<polygon fill="#63b8ff" stroke="#63b8ff" points="883.65,-89.36 892.94,-84.26 882.5,-82.45 883.65,-89.36"/>
</a>
</g>
</g>
<!-- Node19 -->
<g id="Node000019" class="node">
<title>Node19</title>
<g id="a_Node000019"><a xlink:href="visibility_8hpp.html" target="_top" xlink:title=" ">
<polygon fill="white" stroke="#666666" points="658.5,-85 518.5,-85 518.5,-66 658.5,-66 658.5,-85"/>
<text text-anchor="middle" x="588.5" y="-73" font-family="Helvetica,sans-Serif" font-size="10.00">unilink/base/visibility.hpp</text>
</a>
</g>
</g>
<!-- Node2&#45;&gt;Node19 -->
<g id="edge19_Node000002_Node000019" class="edge">
<title>Node2&#45;&gt;Node19</title>
<g id="a_edge19_Node000002_Node000019"><a xlink:title=" ">
<path fill="none" stroke="#63b8ff" d="M588.5,-120.84C588.5,-113.21 588.5,-103.7 588.5,-95.45"/>
<polygon fill="#63b8ff" stroke="#63b8ff" points="592,-95.27 588.5,-85.27 585,-95.27 592,-95.27"/>
</a>
</g>
</g>
<!-- Node10&#45;&gt;Node7 -->
<g id="edge18_Node000010_Node000007" class="edge">
<title>Node10&#45;&gt;Node7</title>
<g id="a_edge18_Node000010_Node000007"><a xlink:title=" ">
<path fill="none" stroke="#63b8ff" d="M892.79,-67.08C889.65,-66.69 886.53,-66.32 883.5,-66 803.94,-57.63 249.52,-27.46 83.42,-18.52"/>
<polygon fill="#63b8ff" stroke="#63b8ff" points="83.22,-15 73.05,-17.96 82.85,-21.99 83.22,-15"/>
</a>
</g>
</g>
<!-- Node10&#45;&gt;Node11 -->
<g id="edge10_Node000010_Node000011" class="edge">
<title>Node10&#45;&gt;Node11</title>
<g id="a_edge10_Node000010_Node000011"><a xlink:title=" ">
<path fill="none" stroke="#63b8ff" d="M892.78,-67.2C889.64,-66.78 886.53,-66.37 883.5,-66 871.24,-64.5 514.06,-31.48 389.14,-19.94"/>
<polygon fill="#63b8ff" stroke="#63b8ff" points="389.1,-16.42 378.82,-18.98 388.45,-23.39 389.1,-16.42"/>
</a>
</g>
</g>
<!-- Node12 -->
<g id="Node000012" class="node">
<title>Node12</title>
<g id="a_Node000012"><a xlink:title=" ">
<polygon fill="#e0e0e0" stroke="#999999" points="831,-30 722,-30 722,0 831,0 831,-30"/>
<text text-anchor="start" x="730" y="-18" font-family="Helvetica,sans-Serif" font-size="10.00">boost/system/error</text>
<text text-anchor="middle" x="776.5" y="-7" font-family="Helvetica,sans-Serif" font-size="10.00">_code.hpp</text>
</a>
</g>
</g>
<!-- Node10&#45;&gt;Node12 -->
<g id="edge11_Node000010_Node000012" class="edge">
<title>Node10&#45;&gt;Node12</title>
<g id="a_edge11_Node000010_Node000012"><a xlink:title=" ">
<path fill="none" stroke="#63b8ff" d="M915.8,-65.99C892.14,-57.5 855.08,-44.2 825.13,-33.45"/>
<polygon fill="#63b8ff" stroke="#63b8ff" points="826.28,-30.15 815.69,-30.06 823.92,-36.74 826.28,-30.15"/>
</a>
</g>
</g>
<!-- Node13 -->
<g id="Node000013" class="node">
<title>Node13</title>
<g id="a_Node000013"><a xlink:title=" ">
<polygon fill="#e0e0e0" stroke="#999999" points="675.5,-24.5 625.5,-24.5 625.5,-5.5 675.5,-5.5 675.5,-24.5"/>
<text text-anchor="middle" x="650.5" y="-12.5" font-family="Helvetica,sans-Serif" font-size="10.00">chrono</text>
</a>
</g>
</g>
<!-- Node10&#45;&gt;Node13 -->
<g id="edge12_Node000010_Node000013" class="edge">
<title>Node10&#45;&gt;Node13</title>
<g id="a_edge12_Node000010_Node000013"><a xlink:title=" ">
<path fill="none" stroke="#63b8ff" d="M894.41,-65.96C848.75,-57.22 776.12,-43.12 713.5,-30 704.42,-28.1 694.62,-25.96 685.51,-23.94"/>
<polygon fill="#63b8ff" stroke="#63b8ff" points="686.13,-20.49 675.61,-21.73 684.6,-27.32 686.13,-20.49"/>
</a>
</g>
</g>
<!-- Node14 -->
<g id="Node000014" class="node">
<title>Node14</title>
<g id="a_Node000014"><a xlink:title=" ">
<polygon fill="#e0e0e0" stroke="#999999" points="899.5,-24.5 849.5,-24.5 849.5,-5.5 899.5,-5.5 899.5,-24.5"/>
<text text-anchor="middle" x="874.5" y="-12.5" font-family="Helvetica,sans-Serif" font-size="10.00">cstdint</text>
</a>
</g>
</g>
<!-- Node10&#45;&gt;Node14 -->
<g id="edge13_Node000010_Node000014" class="edge">
<title>Node10&#45;&gt;Node14</title>
<g id="a_edge13_Node000010_Node000014"><a xlink:title=" ">
<path fill="none" stroke="#63b8ff" d="M929.91,-65.87C919.92,-56.88 904.07,-42.61 891.87,-31.64"/>
<polygon fill="#63b8ff" stroke="#63b8ff" points="893.9,-28.76 884.13,-24.67 889.22,-33.96 893.9,-28.76"/>
</a>
</g>
</g>
<!-- Node15 -->
<g id="Node000015" class="node">
<title>Node15</title>
<g id="a_Node000015"><a xlink:title=" ">
<polygon fill="#e0e0e0" stroke="#999999" points="961.5,-24.5 917.5,-24.5 917.5,-5.5 961.5,-5.5 961.5,-24.5"/>
<text text-anchor="middle" x="939.5" y="-12.5" font-family="Helvetica,sans-Serif" font-size="10.00">ctime</text>
</a>
</g>
</g>
<!-- Node10&#45;&gt;Node15 -->
<g id="edge14_Node000010_Node000015" class="edge">
<title>Node10&#45;&gt;Node15</title>
<g id="a_edge14_Node000010_Node000015"><a xlink:title=" ">
<path fill="none" stroke="#63b8ff" d="M939.5,-65.87C939.5,-57.75 939.5,-45.31 939.5,-34.89"/>
<polygon fill="#63b8ff" stroke="#63b8ff" points="943,-34.67 939.5,-24.67 936,-34.67 943,-34.67"/>
</a>
</g>
</g>
<!-- Node10&#45;&gt;Node16 -->
<g id="edge15_Node000010_Node000016" class="edge">
<title>Node10&#45;&gt;Node16</title>
<g id="a_edge15_Node000010_Node000016"><a xlink:title=" ">
<path fill="none" stroke="#63b8ff" d="M949.53,-65.87C960.08,-56.8 976.89,-42.34 989.69,-31.32"/>
<polygon fill="#63b8ff" stroke="#63b8ff" points="992.13,-33.84 997.43,-24.67 987.56,-28.54 992.13,-33.84"/>
</a>
</g>
</g>
<!-- Node10&#45;&gt;Node17 -->
<g id="edge16_Node000010_Node000017" class="edge">
<title>Node10&#45;&gt;Node17</title>
<g id="a_edge16_Node000010_Node000017"><a xlink:title=" ">
<path fill="none" stroke="#63b8ff" d="M960.15,-65.99C984.13,-56.12 1023.89,-39.73 1051.33,-28.43"/>
<polygon fill="#63b8ff" stroke="#63b8ff" points="1052.91,-31.56 1060.83,-24.52 1050.25,-25.09 1052.91,-31.56"/>
</a>
</g>
</g>
<!-- Node18 -->
<g id="Node000018" class="node">
<title>Node18</title>
<g id="a_Node000018"><a xlink:title=" ">
<polygon fill="#e0e0e0" stroke="#999999" points="551.5,-24.5 507.5,-24.5 507.5,-5.5 551.5,-5.5 551.5,-24.5"/>
<text text-anchor="middle" x="529.5" y="-12.5" font-family="Helvetica,sans-Serif" font-size="10.00">string</text>
</a>
</g>
</g>
<!-- Node10&#45;&gt;Node18 -->
<g id="edge17_Node000010_Node000018" class="edge">
<title>Node10&#45;&gt;Node18</title>
<g id="a_edge17_Node000010_Node000018"><a xlink:title=" ">
<path fill="none" stroke="#63b8ff" d="M892.76,-67.35C889.63,-66.88 886.52,-66.43 883.5,-66 764.97,-49.01 734.95,-47.51 616.5,-30 598.37,-27.32 578.17,-24.08 561.79,-21.4"/>
<polygon fill="#63b8ff" stroke="#63b8ff" points="562.08,-17.9 551.65,-19.72 560.94,-24.8 562.08,-17.9"/>
</a>
</g>
</g>
<!-- Node21&#45;&gt;Node3 -->
<g id="edge26_Node000021_Node000003" class="edge">
<title>Node21&#45;&gt;Node3</title>
<g id="a_edge26_Node000021_Node000003"><a xlink:title=" ">
<path fill="none" stroke="#63b8ff" d="M324.33,-120.99C342.35,-111.58 365.96,-99.24 383.75,-89.95"/>
<polygon fill="#63b8ff" stroke="#63b8ff" points="385.72,-92.87 392.96,-85.14 382.48,-86.67 385.72,-92.87"/>
</a>
</g>
</g>
<!-- Node21&#45;&gt;Node4 -->
<g id="edge28_Node000021_Node000004" class="edge">
<title>Node21&#45;&gt;Node4</title>
<g id="a_edge28_Node000021_Node000004"><a xlink:title=" ">
<path fill="none" stroke="#63b8ff" d="M287.82,-120.84C282.25,-112.69 275.21,-102.4 269.32,-93.78"/>
<polygon fill="#63b8ff" stroke="#63b8ff" points="272.03,-91.55 263.49,-85.27 266.25,-95.5 272.03,-91.55"/>
</a>
</g>
</g>
<!-- Node21&#45;&gt;Node5 -->
<g id="edge29_Node000021_Node000005" class="edge">
<title>Node21&#45;&gt;Node5</title>
<g id="a_edge29_Node000021_Node000005"><a xlink:title=" ">
<path fill="none" stroke="#63b8ff" d="M307.18,-120.84C312.75,-112.69 319.79,-102.4 325.68,-93.78"/>
<polygon fill="#63b8ff" stroke="#63b8ff" points="328.75,-95.5 331.51,-85.27 322.97,-91.55 328.75,-95.5"/>
</a>
</g>
</g>
<!-- Node21&#45;&gt;Node7 -->
<g id="edge32_Node000021_Node000007" class="edge">
<title>Node21&#45;&gt;Node7</title>
<g id="a_edge32_Node000021_Node000007"><a xlink:title=" ">
<path fill="none" stroke="#63b8ff" d="M243.34,-132.89C172.55,-128.86 54.4,-117.34 27.5,-85 15.82,-70.96 21.07,-49.45 27.33,-34.19"/>
<polygon fill="#63b8ff" stroke="#63b8ff" points="30.65,-35.33 31.63,-24.78 24.29,-32.42 30.65,-35.33"/>
</a>
</g>
</g>
<!-- Node21&#45;&gt;Node9 -->
<g id="edge33_Node000021_Node000009" class="edge">
<title>Node21&#45;&gt;Node9</title>
<g id="a_edge33_Node000021_Node000009"><a xlink:title=" ">
<path fill="none" stroke="#63b8ff" d="M340.37,-120.99C371.92,-110.68 414.2,-96.86 443.22,-87.38"/>
<polygon fill="#63b8ff" stroke="#63b8ff" points="444.47,-90.65 452.89,-84.22 442.3,-83.99 444.47,-90.65"/>
</a>
</g>
</g>
<!-- Node21&#45;&gt;Node13 -->
<g id="edge27_Node000021_Node000013" class="edge">
<title>Node21&#45;&gt;Node13</title>
<g id="a_edge27_Node000021_Node000013"><a xlink:title=" ">
<path fill="none" stroke="#63b8ff" d="M259.4,-120.88C229.67,-107.8 196.38,-87.22 215.5,-66 267.1,-8.74 484.06,-39.93 560.5,-30 578.51,-27.66 598.47,-24.6 615.01,-21.94"/>
<polygon fill="#63b8ff" stroke="#63b8ff" points="616.02,-25.32 625.33,-20.26 614.9,-18.41 616.02,-25.32"/>
</a>
</g>
</g>
<!-- Node21&#45;&gt;Node18 -->
<g id="edge31_Node000021_Node000018" class="edge">
<title>Node21&#45;&gt;Node18</title>
<g id="a_edge31_Node000021_Node000018"><a xlink:title=" ">
<path fill="none" stroke="#63b8ff" d="M243.32,-123C203.34,-111.68 159.56,-92.49 182.5,-66 192.81,-54.1 413.11,-28.78 497.24,-19.5"/>
<polygon fill="#63b8ff" stroke="#63b8ff" points="497.7,-22.97 507.26,-18.4 496.94,-16.01 497.7,-22.97"/>
</a>
</g>
</g>
<!-- Node21&#45;&gt;Node19 -->
<g id="edge34_Node000021_Node000019" class="edge">
<title>Node21&#45;&gt;Node19</title>
<g id="a_edge34_Node000021_Node000019"><a xlink:title=" ">
<path fill="none" stroke="#63b8ff" d="M351.55,-124.13C404.25,-113.54 483.87,-97.53 536.02,-87.05"/>
<polygon fill="#63b8ff" stroke="#63b8ff" points="536.96,-90.43 546.07,-85.03 535.58,-83.57 536.96,-90.43"/>
</a>
</g>
</g>
<!-- Node22 -->
<g id="Node000022" class="node">
<title>Node22</title>
<g id="a_Node000022"><a xlink:title=" ">
<polygon fill="#e0e0e0" stroke="#999999" points="130,-85 37,-85 37,-66 130,-66 130,-85"/>
<text text-anchor="middle" x="83.5" y="-73" font-family="Helvetica,sans-Serif" font-size="10.00">source_location</text>
</a>
</g>
</g>
<!-- Node21&#45;&gt;Node22 -->
<g id="edge30_Node000021_Node000022" class="edge">
<title>Node21&#45;&gt;Node22</title>
<g id="a_edge30_Node000021_Node000022"><a xlink:title=" ">
<path fill="none" stroke="#63b8ff" d="M246.24,-120.99C208.99,-110.8 159.23,-97.2 124.58,-87.73"/>
<polygon fill="#63b8ff" stroke="#63b8ff" points="125.36,-84.31 114.79,-85.05 123.51,-91.07 125.36,-84.31"/>
</a>
</g>
</g>
</g>
</svg>
