<?xml version="1.0" encoding="UTF-8" standalone="no"?>
<!DOCTYPE svg PUBLIC "-//W3C//DTD SVG 1.1//EN"
 "http://www.w3.org/Graphics/SVG/1.1/DTD/svg11.dtd">
<!-- Generated by graphviz version 2.43.0 (0)
 -->
<!-- Title: unilink/diagnostics/error_mapping.hpp Pages: 1 -->
<svg width="522pt" height="104pt"
 viewBox="0.00 0.00 522.00 104.00" xmlns="http://www.w3.org/2000/svg" xmlns:xlink="http://www.w3.org/1999/xlink">
<g id="graph0" class="graph" transform="scale(1 1) rotate(0) translate(4 100)">
<title>unilink/diagnostics/error_mapping.hpp</title>
<!-- Node1 -->
<g id="Node000001" class="node">
<title>Node1</title>
<g id="a_Node000001"><a xlink:title=" ">
<polygon fill="#999999" stroke="#666666" points="313.5,-96 201.5,-96 201.5,-66 313.5,-66 313.5,-96"/>
<text text-anchor="start" x="209.5" y="-84" font-family="Helvetica,sans-Serif" font-size="10.00">unilink/diagnostics</text>
<text text-anchor="middle" x="257.5" y="-73" font-family="Helvetica,sans-Serif" font-size="10.00">/error_mapping.hpp</text>
</a>
</g>
</g>
<!-- Node2 -->
<g id="Node000002" class="node">
<title>Node2</title>
<g id="a_Node000002"><a xlink:href="transport_2tcp__client_2tcp__client_8cc.html" target="_top" xlink:title=" ">
<polygon fill="white" stroke="#666666" points="115,-30 0,-30 0,0 115,0 115,-30"/>
<text text-anchor="start" x="8" y="-18" font-family="Helvetica,sans-Serif" font-size="10.00">unilink/transport/tcp</text>
<text text-anchor="middle" x="57.5" y="-7" font-family="Helvetica,sans-Serif" font-size="10.00">_client/tcp_client.cc</text>
</a>
</g>
</g>
<!-- Node1&#45;&gt;Node2 -->
<g id="edge1_Node000001_Node000002" class="edge">
<title>Node1&#45;&gt;Node2</title>
<g id="a_edge1_Node000001_Node000002"><a xlink:title=" ">
<path fill="none" stroke="#63b8ff" d="M203.93,-62.86C171.81,-52.58 131.49,-39.68 101.29,-30.01"/>
<polygon fill="#63b8ff" stroke="#63b8ff" points="203.02,-66.24 213.61,-65.95 205.15,-59.57 203.02,-66.24"/>
</a>
</g>
</g>
<!-- Node3 -->
<g id="Node000003" class="node">
<title>Node3</title>
<g id="a_Node000003"><a xlink:href="transport_2uds_2uds__client_8cc.html" target="_top" xlink:title=" ">
<polygon fill="white" stroke="#666666" points="250,-30 133,-30 133,0 250,0 250,-30"/>
<text text-anchor="start" x="141" y="-18" font-family="Helvetica,sans-Serif" font-size="10.00">unilink/transport/uds</text>
<text text-anchor="middle" x="191.5" y="-7" font-family="Helvetica,sans-Serif" font-size="10.00">/uds_client.cc</text>
</a>
</g>
</g>
<!-- Node1&#45;&gt;Node3 -->
<g id="edge2_Node000001_Node000003" class="edge">
<title>Node1&#45;&gt;Node3</title>
<g id="a_edge2_Node000001_Node000003"><a xlink:title=" ">
<path fill="none" stroke="#63b8ff" d="M235.48,-58.65C225.81,-49.27 214.73,-38.53 206.11,-30.16"/>
<polygon fill="#63b8ff" stroke="#63b8ff" points="233.24,-61.35 242.85,-65.8 238.11,-56.32 233.24,-61.35"/>
</a>
</g>
</g>
<!-- Node4 -->
<g id="Node000004" class="node">
<title>Node4</title>
<g id="a_Node000004"><a xlink:href="wrapper_2tcp__client_2tcp__client_8cc.html" target="_top" xlink:title=" ">
<polygon fill="white" stroke="#666666" points="381,-30 268,-30 268,0 381,0 381,-30"/>
<text text-anchor="start" x="276" y="-18" font-family="Helvetica,sans-Serif" font-size="10.00">unilink/wrapper/tcp</text>
<text text-anchor="middle" x="324.5" y="-7" font-family="Helvetica,sans-Serif" font-size="10.00">_client/tcp_client.cc</text>
</a>
</g>
</g>
<!-- Node1&#45;&gt;Node4 -->
<g id="edge3_Node000001_Node000004" class="edge">
<title>Node1&#45;&gt;Node4</title>
<g id="a_edge3_Node000001_Node000004"><a xlink:title=" ">
<path fill="none" stroke="#63b8ff" d="M279.85,-58.65C289.67,-49.27 300.92,-38.53 309.67,-30.16"/>
<polygon fill="#63b8ff" stroke="#63b8ff" points="277.18,-56.36 272.37,-65.8 282.02,-61.42 277.18,-56.36"/>
</a>
</g>
</g>
<!-- Node5 -->
<g id="Node000005" class="node">
<title>Node5</title>
<g id="a_Node000005"><a xlink:href="wrapper_2uds__client_2uds__client_8cc.html" target="_top" xlink:title=" ">
<polygon fill="white" stroke="#666666" points="514,-30 399,-30 399,0 514,0 514,-30"/>
<text text-anchor="start" x="407" y="-18" font-family="Helvetica,sans-Serif" font-size="10.00">unilink/wrapper/uds</text>
<text text-anchor="middle" x="456.5" y="-7" font-family="Helvetica,sans-Serif" font-size="10.00">_client/uds_client.cc</text>
</a>
</g>
</g>
<!-- Node1&#45;&gt;Node5 -->
<g id="edge4_Node000001_Node000005" class="edge">
<title>Node1&#45;&gt;Node5</title>
<g id="a_edge4_Node000001_Node000005"><a xlink:title=" ">
<path fill="none" stroke="#63b8ff" d="M310.81,-62.86C342.76,-52.58 382.88,-39.68 412.93,-30.01"/>
<polygon fill="#63b8ff" stroke="#63b8ff" points="309.62,-59.56 301.17,-65.95 311.76,-66.23 309.62,-59.56"/>
</a>
</g>
</g>
</g>
</svg>
