<?xml version="1.0" encoding="UTF-8" standalone="no"?>
<!DOCTYPE svg PUBLIC "-//W3C//DTD SVG 1.1//EN"
 "http://www.w3.org/Graphics/SVG/1.1/DTD/svg11.dtd">
<!-- Generated by graphviz version 2.43.0 (0)
 -->
<!-- Title: unilink/diagnostics/error_mapping.hpp Pages: 1 -->
<svg width="1927pt" height="346pt"
 viewBox="0.00 0.00 1926.67 346.00" xmlns="http://www.w3.org/2000/svg" xmlns:xlink="http://www.w3.org/1999/xlink">
<g id="graph0" class="graph" transform="scale(1 1) rotate(0) translate(4 342)">
<title>unilink/diagnostics/error_mapping.hpp</title>
<!-- Node1 -->
<g id="Node000001" class="node">
<title>Node1</title>
<g id="a_Node000001"><a xlink:title=" ">
<polygon fill="#999999" stroke="#666666" points="360.5,-338 248.5,-338 248.5,-308 360.5,-308 360.5,-338"/>
<text text-anchor="start" x="256.5" y="-326" font-family="Helvetica,sans-Serif" font-size="10.00">unilink/diagnostics</text>
<text text-anchor="middle" x="304.5" y="-315" font-family="Helvetica,sans-Serif" font-size="10.00">/error_mapping.hpp</text>
</a>
</g>
</g>
<!-- Node2 -->
<g id="Node000002" class="node">
<title>Node2</title>
<g id="a_Node000002"><a xlink:title=" ">
<polygon fill="#e0e0e0" stroke="#999999" points="113,-272 0,-272 0,-253 113,-253 113,-272"/>
<text text-anchor="middle" x="56.5" y="-260" font-family="Helvetica,sans-Serif" font-size="10.00">boost/asio/error.hpp</text>
</a>
</g>
</g>
<!-- Node1&#45;&gt;Node2 -->
<g id="edge1_Node000001_Node000002" class="edge">
<title>Node1&#45;&gt;Node2</title>
<g id="a_edge1_Node000001_Node000002"><a xlink:title=" ">
<path fill="none" stroke="#63b8ff" d="M248.22,-308.73C204.13,-298.32 143.55,-284.03 102.37,-274.32"/>
<polygon fill="#63b8ff" stroke="#63b8ff" points="103.14,-270.9 92.6,-272.02 101.53,-277.72 103.14,-270.9"/>
</a>
</g>
</g>
<!-- Node3 -->
<g id="Node000003" class="node">
<title>Node3</title>
<g id="a_Node000003"><a xlink:title=" ">
<polygon fill="#e0e0e0" stroke="#999999" points="279,-151 170,-151 170,-121 279,-121 279,-151"/>
<text text-anchor="start" x="178" y="-139" font-family="Helvetica,sans-Serif" font-size="10.00">boost/system/error</text>
<text text-anchor="middle" x="224.5" y="-128" font-family="Helvetica,sans-Serif" font-size="10.00">_code.hpp</text>
</a>
</g>
</g>
<!-- Node1&#45;&gt;Node3 -->
<g id="edge2_Node000001_Node000003" class="edge">
<title>Node1&#45;&gt;Node3</title>
<g id="a_edge2_Node000001_Node000003"><a xlink:title=" ">
<path fill="none" stroke="#63b8ff" d="M294.62,-307.69C281.47,-288.06 258.28,-251.29 244.5,-217 237.26,-198.98 232.07,-177.58 228.8,-161.46"/>
<polygon fill="#63b8ff" stroke="#63b8ff" points="232.16,-160.4 226.84,-151.24 225.29,-161.72 232.16,-160.4"/>
</a>
</g>
</g>
<!-- Node4 -->
<g id="Node000004" class="node">
<title>Node4</title>
<g id="a_Node000004"><a xlink:title=" ">
<polygon fill="#e0e0e0" stroke="#999999" points="1885.5,-211.5 1829.5,-211.5 1829.5,-192.5 1885.5,-192.5 1885.5,-211.5"/>
<text text-anchor="middle" x="1857.5" y="-199.5" font-family="Helvetica,sans-Serif" font-size="10.00">optional</text>
</a>
</g>
</g>
<!-- Node1&#45;&gt;Node4 -->
<g id="edge3_Node000001_Node000004" class="edge">
<title>Node1&#45;&gt;Node4</title>
<g id="a_edge3_Node000001_Node000004"><a xlink:title=" ">
<path fill="none" stroke="#63b8ff" d="M360.52,-319.45C500.53,-312.94 877.03,-294.63 1190.5,-272 1468.63,-251.92 1542.47,-273.7 1815.5,-217 1818.74,-216.33 1822.07,-215.49 1825.38,-214.55"/>
<polygon fill="#63b8ff" stroke="#63b8ff" points="1826.58,-217.84 1835.1,-211.54 1824.51,-211.16 1826.58,-217.84"/>
</a>
</g>
</g>
<!-- Node5 -->
<g id="Node000005" class="node">
<title>Node5</title>
<g id="a_Node000005"><a xlink:title=" ">
<polygon fill="#e0e0e0" stroke="#999999" points="640.5,-79.5 596.5,-79.5 596.5,-60.5 640.5,-60.5 640.5,-79.5"/>
<text text-anchor="middle" x="618.5" y="-67.5" font-family="Helvetica,sans-Serif" font-size="10.00">string</text>
</a>
</g>
</g>
<!-- Node1&#45;&gt;Node5 -->
<g id="edge4_Node000001_Node000005" class="edge">
<title>Node1&#45;&gt;Node5</title>
<g id="a_edge4_Node000001_Node000005"><a xlink:title=" ">
<path fill="none" stroke="#63b8ff" d="M280.66,-307.81C226.34,-273.82 102.46,-185.72 160.5,-121 188.9,-89.33 486.41,-75.77 586.13,-72.09"/>
<polygon fill="#63b8ff" stroke="#63b8ff" points="586.35,-75.58 596.22,-71.72 586.1,-68.59 586.35,-75.58"/>
</a>
</g>
</g>
<!-- Node6 -->
<g id="Node000006" class="node">
<title>Node6</title>
<g id="a_Node000006"><a xlink:href="error__codes_8hpp.html" target="_top" xlink:title=" ">
<polygon fill="white" stroke="#666666" points="355.5,-217 253.5,-217 253.5,-187 355.5,-187 355.5,-217"/>
<text text-anchor="start" x="261.5" y="-205" font-family="Helvetica,sans-Serif" font-size="10.00">unilink/base/error</text>
<text text-anchor="middle" x="304.5" y="-194" font-family="Helvetica,sans-Serif" font-size="10.00">_codes.hpp</text>
</a>
</g>
</g>
<!-- Node1&#45;&gt;Node6 -->
<g id="edge5_Node000001_Node000006" class="edge">
<title>Node1&#45;&gt;Node6</title>
<g id="a_edge5_Node000001_Node000006"><a xlink:title=" ">
<path fill="none" stroke="#63b8ff" d="M304.5,-307.88C304.5,-288.02 304.5,-251.55 304.5,-227.29"/>
<polygon fill="#63b8ff" stroke="#63b8ff" points="308,-227.1 304.5,-217.1 301,-227.1 308,-227.1"/>
</a>
</g>
</g>
<!-- Node7 -->
<g id="Node000007" class="node">
<title>Node7</title>
<g id="a_Node000007"><a xlink:href="error__types_8hpp.html" target="_top" xlink:title=" ">
<polygon fill="white" stroke="#666666" points="565.5,-217 457.5,-217 457.5,-187 565.5,-187 565.5,-217"/>
<text text-anchor="start" x="465.5" y="-205" font-family="Helvetica,sans-Serif" font-size="10.00">unilink/diagnostics</text>
<text text-anchor="middle" x="511.5" y="-194" font-family="Helvetica,sans-Serif" font-size="10.00">/error_types.hpp</text>
</a>
</g>
</g>
<!-- Node1&#45;&gt;Node7 -->
<g id="edge7_Node000001_Node000007" class="edge">
<title>Node1&#45;&gt;Node7</title>
<g id="a_edge7_Node000001_Node000007"><a xlink:title=" ">
<path fill="none" stroke="#63b8ff" d="M329.06,-307.88C366.17,-286.54 436.64,-246.04 478.29,-222.09"/>
<polygon fill="#63b8ff" stroke="#63b8ff" points="480.05,-225.12 486.97,-217.1 476.56,-219.05 480.05,-225.12"/>
</a>
</g>
</g>
<!-- Node15 -->
<g id="Node000015" class="node">
<title>Node15</title>
<g id="a_Node000015"><a xlink:href="context_8hpp.html" target="_top" xlink:title=" ">
<polygon fill="white" stroke="#666666" points="1181,-272 1028,-272 1028,-253 1181,-253 1181,-272"/>
<text text-anchor="middle" x="1104.5" y="-260" font-family="Helvetica,sans-Serif" font-size="10.00">unilink/wrapper/context.hpp</text>
</a>
</g>
</g>
<!-- Node1&#45;&gt;Node15 -->
<g id="edge17_Node000001_Node000015" class="edge">
<title>Node1&#45;&gt;Node15</title>
<g id="a_edge17_Node000001_Node000015"><a xlink:title=" ">
<path fill="none" stroke="#63b8ff" d="M360.75,-317.89C498.36,-307.82 852.7,-281.91 1017.64,-269.85"/>
<polygon fill="#63b8ff" stroke="#63b8ff" points="1018.03,-273.33 1027.74,-269.11 1017.52,-266.35 1018.03,-273.33"/>
</a>
</g>
</g>
<!-- Node6&#45;&gt;Node5 -->
<g id="edge6_Node000006_Node000005" class="edge">
<title>Node6&#45;&gt;Node5</title>
<g id="a_edge6_Node000006_Node000005"><a xlink:title=" ">
<path fill="none" stroke="#63b8ff" d="M311.85,-186.9C322.16,-168.63 342.69,-137.19 369.5,-121 438.59,-79.27 536.2,-71.65 586.21,-70.7"/>
<polygon fill="#63b8ff" stroke="#63b8ff" points="586.46,-74.2 596.42,-70.59 586.38,-67.2 586.46,-74.2"/>
</a>
</g>
</g>
<!-- Node7&#45;&gt;Node3 -->
<g id="edge9_Node000007_Node000003" class="edge">
<title>Node7&#45;&gt;Node3</title>
<g id="a_edge9_Node000007_Node000003"><a xlink:title=" ">
<path fill="none" stroke="#63b8ff" d="M457.18,-188.89C409.34,-178.22 339.6,-162.67 288.95,-151.37"/>
<polygon fill="#63b8ff" stroke="#63b8ff" points="289.61,-147.93 279.09,-149.17 288.08,-154.77 289.61,-147.93"/>
</a>
</g>
</g>
<!-- Node7&#45;&gt;Node5 -->
<g id="edge15_Node000007_Node000005" class="edge">
<title>Node7&#45;&gt;Node5</title>
<g id="a_edge15_Node000007_Node000005"><a xlink:title=" ">
<path fill="none" stroke="#63b8ff" d="M483.45,-186.83C456.42,-171.28 422.11,-145.27 440.5,-121 458.04,-97.86 539.68,-82.46 586.07,-75.41"/>
<polygon fill="#63b8ff" stroke="#63b8ff" points="586.83,-78.83 596.22,-73.92 585.81,-71.91 586.83,-78.83"/>
</a>
</g>
</g>
<!-- Node8 -->
<g id="Node000008" class="node">
<title>Node8</title>
<g id="a_Node000008"><a xlink:title=" ">
<polygon fill="#e0e0e0" stroke="#999999" points="513.5,-145.5 449.5,-145.5 449.5,-126.5 513.5,-126.5 513.5,-145.5"/>
<text text-anchor="middle" x="481.5" y="-133.5" font-family="Helvetica,sans-Serif" font-size="10.00">algorithm</text>
</a>
</g>
</g>
<!-- Node7&#45;&gt;Node8 -->
<g id="edge8_Node000007_Node000008" class="edge">
<title>Node7&#45;&gt;Node8</title>
<g id="a_edge8_Node000007_Node000008"><a xlink:title=" ">
<path fill="none" stroke="#63b8ff" d="M504.84,-186.8C500.44,-177.41 494.63,-165.02 489.91,-154.95"/>
<polygon fill="#63b8ff" stroke="#63b8ff" points="493.06,-153.41 485.65,-145.84 486.72,-156.38 493.06,-153.41"/>
</a>
</g>
</g>
<!-- Node9 -->
<g id="Node000009" class="node">
<title>Node9</title>
<g id="a_Node000009"><a xlink:title=" ">
<polygon fill="#e0e0e0" stroke="#999999" points="943.5,-79.5 893.5,-79.5 893.5,-60.5 943.5,-60.5 943.5,-79.5"/>
<text text-anchor="middle" x="918.5" y="-67.5" font-family="Helvetica,sans-Serif" font-size="10.00">chrono</text>
</a>
</g>
</g>
<!-- Node7&#45;&gt;Node9 -->
<g id="edge10_Node000007_Node000009" class="edge">
<title>Node7&#45;&gt;Node9</title>
<g id="a_edge10_Node000007_Node000009"><a xlink:title=" ">
<path fill="none" stroke="#63b8ff" d="M516.83,-186.71C524.53,-168.22 540.64,-136.55 565.5,-121 618.06,-88.13 804.52,-76.08 883.14,-72.4"/>
<polygon fill="#63b8ff" stroke="#63b8ff" points="883.65,-75.88 893.49,-71.94 883.34,-68.89 883.65,-75.88"/>
</a>
</g>
</g>
<!-- Node10 -->
<g id="Node000010" class="node">
<title>Node10</title>
<g id="a_Node000010"><a xlink:title=" ">
<polygon fill="#e0e0e0" stroke="#999999" points="1241.5,-19 1191.5,-19 1191.5,0 1241.5,0 1241.5,-19"/>
<text text-anchor="middle" x="1216.5" y="-7" font-family="Helvetica,sans-Serif" font-size="10.00">cstdint</text>
</a>
</g>
</g>
<!-- Node7&#45;&gt;Node10 -->
<g id="edge11_Node000007_Node000010" class="edge">
<title>Node7&#45;&gt;Node10</title>
<g id="a_edge11_Node000007_Node000010"><a xlink:title=" ">
<path fill="none" stroke="#63b8ff" d="M473.32,-186.99C457.41,-179.03 440.55,-167.33 431.5,-151 425.04,-139.34 424.13,-132.11 431.5,-121 473.09,-58.25 514.29,-72.56 587.5,-55 701.7,-27.61 1066.29,-14.87 1181.35,-11.47"/>
<polygon fill="#63b8ff" stroke="#63b8ff" points="1181.49,-14.97 1191.39,-11.18 1181.29,-7.97 1181.49,-14.97"/>
</a>
</g>
</g>
<!-- Node11 -->
<g id="Node000011" class="node">
<title>Node11</title>
<g id="a_Node000011"><a xlink:title=" ">
<polygon fill="#e0e0e0" stroke="#999999" points="651.5,-145.5 607.5,-145.5 607.5,-126.5 651.5,-126.5 651.5,-145.5"/>
<text text-anchor="middle" x="629.5" y="-133.5" font-family="Helvetica,sans-Serif" font-size="10.00">ctime</text>
</a>
</g>
</g>
<!-- Node7&#45;&gt;Node11 -->
<g id="edge12_Node000007_Node000011" class="edge">
<title>Node7&#45;&gt;Node11</title>
<g id="a_edge12_Node000007_Node000011"><a xlink:title=" ">
<path fill="none" stroke="#63b8ff" d="M537.4,-186.95C557.45,-176.08 585.05,-161.11 604.8,-150.4"/>
<polygon fill="#63b8ff" stroke="#63b8ff" points="606.67,-153.36 613.8,-145.52 603.34,-147.21 606.67,-153.36"/>
</a>
</g>
</g>
<!-- Node12 -->
<g id="Node000012" class="node">
<title>Node12</title>
<g id="a_Node000012"><a xlink:title=" ">
<polygon fill="#e0e0e0" stroke="#999999" points="799.5,-145.5 743.5,-145.5 743.5,-126.5 799.5,-126.5 799.5,-145.5"/>
<text text-anchor="middle" x="771.5" y="-133.5" font-family="Helvetica,sans-Serif" font-size="10.00">iomanip</text>
</a>
</g>
</g>
<!-- Node7&#45;&gt;Node12 -->
<g id="edge13_Node000007_Node000012" class="edge">
<title>Node7&#45;&gt;Node12</title>
<g id="a_edge13_Node000007_Node000012"><a xlink:title=" ">
<path fill="none" stroke="#63b8ff" d="M565.67,-191.08C611.17,-182.22 677.68,-168.03 734.5,-151 736.64,-150.36 738.83,-149.66 741.03,-148.92"/>
<polygon fill="#63b8ff" stroke="#63b8ff" points="742.3,-152.18 750.54,-145.52 739.95,-145.58 742.3,-152.18"/>
</a>
</g>
</g>
<!-- Node13 -->
<g id="Node000013" class="node">
<title>Node13</title>
<g id="a_Node000013"><a xlink:title=" ">
<polygon fill="#e0e0e0" stroke="#999999" points="725.5,-145.5 669.5,-145.5 669.5,-126.5 725.5,-126.5 725.5,-145.5"/>
<text text-anchor="middle" x="697.5" y="-133.5" font-family="Helvetica,sans-Serif" font-size="10.00">sstream</text>
</a>
</g>
</g>
<!-- Node7&#45;&gt;Node13 -->
<g id="edge14_Node000007_Node000013" class="edge">
<title>Node7&#45;&gt;Node13</title>
<g id="a_edge14_Node000007_Node000013"><a xlink:title=" ">
<path fill="none" stroke="#63b8ff" d="M554.68,-186.99C584.51,-177.2 625.04,-163.65 660.5,-151 662.15,-150.41 663.83,-149.8 665.53,-149.18"/>
<polygon fill="#63b8ff" stroke="#63b8ff" points="667.09,-152.34 675.25,-145.58 664.65,-145.78 667.09,-152.34"/>
</a>
</g>
</g>
<!-- Node14 -->
<g id="Node000014" class="node">
<title>Node14</title>
<g id="a_Node000014"><a xlink:title=" ">
<polygon fill="#e0e0e0" stroke="#999999" points="1035,-79.5 962,-79.5 962,-60.5 1035,-60.5 1035,-79.5"/>
<text text-anchor="middle" x="998.5" y="-67.5" font-family="Helvetica,sans-Serif" font-size="10.00">string_view</text>
</a>
</g>
</g>
<!-- Node7&#45;&gt;Node14 -->
<g id="edge16_Node000007_Node000014" class="edge">
<title>Node7&#45;&gt;Node14</title>
<g id="a_edge16_Node000007_Node000014"><a xlink:title=" ">
<path fill="none" stroke="#63b8ff" d="M526.82,-186.8C551.49,-163.95 597.41,-121.49 598.5,-121 742.74,-56.16 797.46,-116.17 952.5,-85 956.15,-84.27 959.93,-83.36 963.68,-82.37"/>
<polygon fill="#63b8ff" stroke="#63b8ff" points="964.76,-85.7 973.42,-79.6 962.84,-78.97 964.76,-85.7"/>
</a>
</g>
</g>
<!-- Node15&#45;&gt;Node4 -->
<g id="edge18_Node000015_Node000004" class="edge">
<title>Node15&#45;&gt;Node4</title>
<g id="a_edge18_Node000015_Node000004"><a xlink:title=" ">
<path fill="none" stroke="#63b8ff" d="M1181.03,-259.22C1338.89,-254.09 1695.84,-240.28 1815.5,-217 1818.92,-216.33 1822.45,-215.46 1825.94,-214.48"/>
<polygon fill="#63b8ff" stroke="#63b8ff" points="1827.04,-217.81 1835.55,-211.51 1824.97,-211.12 1827.04,-217.81"/>
</a>
</g>
</g>
<!-- Node15&#45;&gt;Node5 -->
<g id="edge19_Node000015_Node000005" class="edge">
<title>Node15&#45;&gt;Node5</title>
<g id="a_edge19_Node000015_Node000005"><a xlink:title=" ">
<path fill="none" stroke="#63b8ff" d="M1027.91,-261.26C864.35,-260.05 492.18,-253.29 448.5,-217 415.17,-189.31 405.11,-155.37 431.5,-121 450.28,-96.54 538.25,-81.45 586.54,-74.87"/>
<polygon fill="#63b8ff" stroke="#63b8ff" points="587.04,-78.34 596.49,-73.56 586.12,-71.4 587.04,-78.34"/>
</a>
</g>
</g>
<!-- Node15&#45;&gt;Node6 -->
<g id="edge50_Node000015_Node000006" class="edge">
<title>Node15&#45;&gt;Node6</title>
<g id="a_edge50_Node000015_Node000006"><a xlink:title=" ">
<path fill="none" stroke="#63b8ff" d="M1027.94,-260.68C893.9,-258.39 608.24,-249.74 369.5,-217 368.25,-216.83 366.98,-216.64 365.7,-216.45"/>
<polygon fill="#63b8ff" stroke="#63b8ff" points="366.26,-213 355.82,-214.81 365.11,-219.9 366.26,-213"/>
</a>
</g>
</g>
<!-- Node15&#45;&gt;Node14 -->
<g id="edge20_Node000015_Node000014" class="edge">
<title>Node15&#45;&gt;Node14</title>
<g id="a_edge20_Node000015_Node000014"><a xlink:title=" ">
<path fill="none" stroke="#63b8ff" d="M1082.02,-252.91C1047.45,-238.23 982.97,-204.59 961.5,-151 956.54,-138.62 957.32,-133.66 961.5,-121 965.69,-108.28 974.51,-96.15 982.48,-87.02"/>
<polygon fill="#63b8ff" stroke="#63b8ff" points="985.18,-89.26 989.41,-79.55 980.05,-84.5 985.18,-89.26"/>
</a>
</g>
</g>
<!-- Node16 -->
<g id="Node000016" class="node">
<title>Node16</title>
<g id="a_Node000016"><a xlink:title=" ">
<polygon fill="#e0e0e0" stroke="#999999" points="1768,-79.5 1721,-79.5 1721,-60.5 1768,-60.5 1768,-79.5"/>
<text text-anchor="middle" x="1744.5" y="-67.5" font-family="Helvetica,sans-Serif" font-size="10.00">vector</text>
</a>
</g>
</g>
<!-- Node15&#45;&gt;Node16 -->
<g id="edge21_Node000015_Node000016" class="edge">
<title>Node15&#45;&gt;Node16</title>
<g id="a_edge21_Node000015_Node000016"><a xlink:title=" ">
<path fill="none" stroke="#63b8ff" d="M1167.13,-253C1311.29,-233 1657.54,-182.28 1700.5,-151 1721.28,-135.87 1733.39,-107.81 1739.48,-89.27"/>
<polygon fill="#63b8ff" stroke="#63b8ff" points="1742.85,-90.2 1742.38,-79.62 1736.15,-88.18 1742.85,-90.2"/>
</a>
</g>
</g>
<!-- Node17 -->
<g id="Node000017" class="node">
<title>Node17</title>
<g id="a_Node000017"><a xlink:href="common_8hpp.html" target="_top" xlink:title=" ">
<polygon fill="white" stroke="#666666" points="1176,-211.5 1033,-211.5 1033,-192.5 1176,-192.5 1176,-211.5"/>
<text text-anchor="middle" x="1104.5" y="-199.5" font-family="Helvetica,sans-Serif" font-size="10.00">unilink/base/common.hpp</text>
</a>
</g>
</g>
<!-- Node15&#45;&gt;Node17 -->
<g id="edge22_Node000015_Node000017" class="edge">
<title>Node15&#45;&gt;Node17</title>
<g id="a_edge22_Node000015_Node000017"><a xlink:title=" ">
<path fill="none" stroke="#63b8ff" d="M1104.5,-252.87C1104.5,-244.75 1104.5,-232.31 1104.5,-221.89"/>
<polygon fill="#63b8ff" stroke="#63b8ff" points="1108,-221.67 1104.5,-211.67 1101,-221.67 1108,-221.67"/>
</a>
</g>
</g>
<!-- Node30 -->
<g id="Node000030" class="node">
<title>Node30</title>
<g id="a_Node000030"><a xlink:href="safe__data__buffer_8hpp.html" target="_top" xlink:title=" ">
<polygon fill="white" stroke="#666666" points="1659.5,-151 1541.5,-151 1541.5,-121 1659.5,-121 1659.5,-151"/>
<text text-anchor="start" x="1549.5" y="-139" font-family="Helvetica,sans-Serif" font-size="10.00">unilink/memory/safe</text>
<text text-anchor="middle" x="1600.5" y="-128" font-family="Helvetica,sans-Serif" font-size="10.00">_data_buffer.hpp</text>
</a>
</g>
</g>
<!-- Node15&#45;&gt;Node30 -->
<g id="edge51_Node000015_Node000030" class="edge">
<title>Node15&#45;&gt;Node30</title>
<g id="a_edge51_Node000015_Node000030"><a xlink:title=" ">
<path fill="none" stroke="#63b8ff" d="M1138.59,-252.94C1220.2,-232.46 1427.91,-180.32 1534.78,-153.5"/>
<polygon fill="#63b8ff" stroke="#63b8ff" points="1535.64,-156.89 1544.49,-151.06 1533.94,-150.1 1535.64,-156.89"/>
</a>
</g>
</g>
<!-- Node32 -->
<g id="Node000032" class="node">
<title>Node32</title>
<g id="a_Node000032"><a xlink:href="safe__span_8hpp.html" target="_top" xlink:title=" ">
<polygon fill="white" stroke="#666666" points="1904.5,-85 1786.5,-85 1786.5,-55 1904.5,-55 1904.5,-85"/>
<text text-anchor="start" x="1794.5" y="-73" font-family="Helvetica,sans-Serif" font-size="10.00">unilink/memory/safe</text>
<text text-anchor="middle" x="1845.5" y="-62" font-family="Helvetica,sans-Serif" font-size="10.00">_span.hpp</text>
</a>
</g>
</g>
<!-- Node15&#45;&gt;Node32 -->
<g id="edge65_Node000015_Node000032" class="edge">
<title>Node15&#45;&gt;Node32</title>
<g id="a_edge65_Node000015_Node000032"><a xlink:title=" ">
<path fill="none" stroke="#63b8ff" d="M1181.19,-253.4C1293.66,-241.46 1491.77,-220.21 1507.5,-217 1607.1,-196.67 1634.62,-194.51 1726.5,-151 1760.97,-134.68 1796.79,-109.24 1820.01,-91.45"/>
<polygon fill="#63b8ff" stroke="#63b8ff" points="1822.22,-94.17 1827.97,-85.27 1817.93,-88.64 1822.22,-94.17"/>
</a>
</g>
</g>
<!-- Node17&#45;&gt;Node5 -->
<g id="edge32_Node000017_Node000005" class="edge">
<title>Node17&#45;&gt;Node5</title>
<g id="a_edge32_Node000017_Node000005"><a xlink:title=" ">
<path fill="none" stroke="#63b8ff" d="M1032.93,-194.82C980.95,-188.46 909.8,-175.8 851.5,-151 830.06,-141.88 829.65,-130.78 808.5,-121 756.01,-96.72 689.7,-82.67 650.9,-75.95"/>
<polygon fill="#63b8ff" stroke="#63b8ff" points="651.17,-72.44 640.73,-74.24 650.01,-79.35 651.17,-72.44"/>
</a>
</g>
</g>
<!-- Node17&#45;&gt;Node9 -->
<g id="edge23_Node000017_Node000009" class="edge">
<title>Node17&#45;&gt;Node9</title>
<g id="a_edge23_Node000017_Node000009"><a xlink:title=" ">
<path fill="none" stroke="#63b8ff" d="M1052.54,-192.48C1023.13,-185.46 987.2,-172.95 961.5,-151 942.35,-134.64 930.35,-107.54 924.04,-89.48"/>
<polygon fill="#63b8ff" stroke="#63b8ff" points="927.32,-88.24 920.9,-79.81 920.66,-90.4 927.32,-88.24"/>
</a>
</g>
</g>
<!-- Node17&#45;&gt;Node10 -->
<g id="edge24_Node000017_Node000010" class="edge">
<title>Node17&#45;&gt;Node10</title>
<g id="a_edge24_Node000017_Node000010"><a xlink:title=" ">
<path fill="none" stroke="#63b8ff" d="M1042.19,-192.45C1008.08,-185.48 966.4,-173.02 934.5,-151 894.91,-123.67 852.82,-91.21 884.5,-55 922.76,-11.27 1103.62,-8.69 1181.11,-9.67"/>
<polygon fill="#63b8ff" stroke="#63b8ff" points="1181.28,-13.17 1191.34,-9.83 1181.39,-6.18 1181.28,-13.17"/>
</a>
</g>
</g>
<!-- Node17&#45;&gt;Node11 -->
<g id="edge26_Node000017_Node000011" class="edge">
<title>Node17&#45;&gt;Node11</title>
<g id="a_edge26_Node000017_Node000011"><a xlink:title=" ">
<path fill="none" stroke="#63b8ff" d="M1032.85,-199.76C944,-196.68 788.59,-186.2 660.5,-151 658.82,-150.54 657.11,-150 655.4,-149.4"/>
<polygon fill="#63b8ff" stroke="#63b8ff" points="656.46,-146.05 645.88,-145.54 653.83,-152.54 656.46,-146.05"/>
</a>
</g>
</g>
<!-- Node17&#45;&gt;Node12 -->
<g id="edge28_Node000017_Node000012" class="edge">
<title>Node17&#45;&gt;Node12</title>
<g id="a_edge28_Node000017_Node000012"><a xlink:title=" ">
<path fill="none" stroke="#63b8ff" d="M1037.74,-192.46C978.36,-184.18 889.44,-170.07 813.5,-151 810.7,-150.3 807.83,-149.5 804.95,-148.65"/>
<polygon fill="#63b8ff" stroke="#63b8ff" points="805.89,-145.28 795.3,-145.63 803.8,-151.96 805.89,-145.28"/>
</a>
</g>
</g>
<!-- Node17&#45;&gt;Node13 -->
<g id="edge30_Node000017_Node000013" class="edge">
<title>Node17&#45;&gt;Node13</title>
<g id="a_edge30_Node000017_Node000013"><a xlink:title=" ">
<path fill="none" stroke="#63b8ff" d="M1033,-196.18C957.8,-189.99 836.45,-176.82 734.5,-151 732.05,-150.38 729.55,-149.65 727.05,-148.85"/>
<polygon fill="#63b8ff" stroke="#63b8ff" points="728.18,-145.54 717.59,-145.55 725.88,-152.15 728.18,-145.54"/>
</a>
</g>
</g>
<!-- Node17&#45;&gt;Node14 -->
<g id="edge33_Node000017_Node000014" class="edge">
<title>Node17&#45;&gt;Node14</title>
<g id="a_edge33_Node000017_Node000014"><a xlink:title=" ">
<path fill="none" stroke="#63b8ff" d="M1125.18,-192.35C1155.63,-178.39 1206.65,-149.56 1184.5,-121 1145.13,-70.23 1106.36,-102.36 1044.5,-85 1041.71,-84.22 1038.84,-83.39 1035.94,-82.54"/>
<polygon fill="#63b8ff" stroke="#63b8ff" points="1036.76,-79.13 1026.17,-79.64 1034.76,-85.84 1036.76,-79.13"/>
</a>
</g>
</g>
<!-- Node17&#45;&gt;Node16 -->
<g id="edge35_Node000017_Node000016" class="edge">
<title>Node17&#45;&gt;Node16</title>
<g id="a_edge35_Node000017_Node000016"><a xlink:title=" ">
<path fill="none" stroke="#63b8ff" d="M1176.18,-200.88C1308.04,-199.66 1583.4,-192.08 1668.5,-151 1697.28,-137.11 1720.82,-107.35 1733.73,-88.3"/>
<polygon fill="#63b8ff" stroke="#63b8ff" points="1736.82,-89.99 1739.34,-79.7 1730.95,-86.16 1736.82,-89.99"/>
</a>
</g>
</g>
<!-- Node18 -->
<g id="Node000018" class="node">
<title>Node18</title>
<g id="a_Node000018"><a xlink:title=" ">
<polygon fill="#e0e0e0" stroke="#999999" points="1281.5,-145.5 1231.5,-145.5 1231.5,-126.5 1281.5,-126.5 1281.5,-145.5"/>
<text text-anchor="middle" x="1256.5" y="-133.5" font-family="Helvetica,sans-Serif" font-size="10.00">cstring</text>
</a>
</g>
</g>
<!-- Node17&#45;&gt;Node18 -->
<g id="edge25_Node000017_Node000018" class="edge">
<title>Node17&#45;&gt;Node18</title>
<g id="a_edge25_Node000017_Node000018"><a xlink:title=" ">
<path fill="none" stroke="#63b8ff" d="M1125,-192.37C1151.06,-181.39 1196.28,-162.36 1226.29,-149.72"/>
<polygon fill="#63b8ff" stroke="#63b8ff" points="1227.98,-152.81 1235.84,-145.7 1225.27,-146.35 1227.98,-152.81"/>
</a>
</g>
</g>
<!-- Node19 -->
<g id="Node000019" class="node">
<title>Node19</title>
<g id="a_Node000019"><a xlink:title=" ">
<polygon fill="#e0e0e0" stroke="#999999" points="1463,-79.5 1398,-79.5 1398,-60.5 1463,-60.5 1463,-79.5"/>
<text text-anchor="middle" x="1430.5" y="-67.5" font-family="Helvetica,sans-Serif" font-size="10.00">functional</text>
</a>
</g>
</g>
<!-- Node17&#45;&gt;Node19 -->
<g id="edge27_Node000017_Node000019" class="edge">
<title>Node17&#45;&gt;Node19</title>
<g id="a_edge27_Node000017_Node000019"><a xlink:title=" ">
<path fill="none" stroke="#63b8ff" d="M1176.08,-196.87C1282.92,-189.96 1473.84,-174.48 1494.5,-151 1514.26,-128.54 1480.44,-101.07 1454.91,-84.86"/>
<polygon fill="#63b8ff" stroke="#63b8ff" points="1456.68,-81.84 1446.32,-79.62 1453.04,-87.82 1456.68,-81.84"/>
</a>
</g>
</g>
<!-- Node20 -->
<g id="Node000020" class="node">
<title>Node20</title>
<g id="a_Node000020"><a xlink:title=" ">
<polygon fill="#e0e0e0" stroke="#999999" points="1359.5,-145.5 1299.5,-145.5 1299.5,-126.5 1359.5,-126.5 1359.5,-145.5"/>
<text text-anchor="middle" x="1329.5" y="-133.5" font-family="Helvetica,sans-Serif" font-size="10.00">iostream</text>
</a>
</g>
</g>
<!-- Node17&#45;&gt;Node20 -->
<g id="edge29_Node000017_Node000020" class="edge">
<title>Node17&#45;&gt;Node20</title>
<g id="a_edge29_Node000017_Node000020"><a xlink:title=" ">
<path fill="none" stroke="#63b8ff" d="M1139.71,-192.45C1177.3,-183.11 1238.49,-167.3 1290.5,-151 1292.62,-150.34 1294.8,-149.63 1296.98,-148.9"/>
<polygon fill="#63b8ff" stroke="#63b8ff" points="1298.2,-152.18 1306.51,-145.61 1295.91,-145.56 1298.2,-152.18"/>
</a>
</g>
</g>
<!-- Node21 -->
<g id="Node000021" class="node">
<title>Node21</title>
<g id="a_Node000021"><a xlink:title=" ">
<polygon fill="#e0e0e0" stroke="#999999" points="1913,-19 1848,-19 1848,0 1913,0 1913,-19"/>
<text text-anchor="middle" x="1880.5" y="-7" font-family="Helvetica,sans-Serif" font-size="10.00">stdexcept</text>
</a>
</g>
</g>
<!-- Node17&#45;&gt;Node21 -->
<g id="edge31_Node000017_Node000021" class="edge">
<title>Node17&#45;&gt;Node21</title>
<g id="a_edge31_Node000017_Node000021"><a xlink:title=" ">
<path fill="none" stroke="#63b8ff" d="M1176.29,-199.98C1288.95,-197.27 1513.72,-187.33 1700.5,-151 1797.78,-132.08 1854.7,-164.78 1913.5,-85 1926.79,-66.96 1911,-42.73 1897.03,-26.87"/>
<polygon fill="#63b8ff" stroke="#63b8ff" points="1899.44,-24.32 1890.05,-19.41 1894.33,-29.11 1899.44,-24.32"/>
</a>
</g>
</g>
<!-- Node22 -->
<g id="Node000022" class="node">
<title>Node22</title>
<g id="a_Node000022"><a xlink:title=" ">
<polygon fill="#e0e0e0" stroke="#999999" points="1015,-145.5 970,-145.5 970,-126.5 1015,-126.5 1015,-145.5"/>
<text text-anchor="middle" x="992.5" y="-133.5" font-family="Helvetica,sans-Serif" font-size="10.00">utility</text>
</a>
</g>
</g>
<!-- Node17&#45;&gt;Node22 -->
<g id="edge34_Node000017_Node000022" class="edge">
<title>Node17&#45;&gt;Node22</title>
<g id="a_edge34_Node000017_Node000022"><a xlink:title=" ">
<path fill="none" stroke="#63b8ff" d="M1089.4,-192.37C1070.69,-181.68 1038.6,-163.35 1016.51,-150.72"/>
<polygon fill="#63b8ff" stroke="#63b8ff" points="1018.14,-147.62 1007.72,-145.7 1014.67,-153.7 1018.14,-147.62"/>
</a>
</g>
</g>
<!-- Node23 -->
<g id="Node000023" class="node">
<title>Node23</title>
<g id="a_Node000023"><a xlink:href="platform_8hpp.html" target="_top" xlink:title=" ">
<polygon fill="white" stroke="#666666" points="1175.5,-145.5 1033.5,-145.5 1033.5,-126.5 1175.5,-126.5 1175.5,-145.5"/>
<text text-anchor="middle" x="1104.5" y="-133.5" font-family="Helvetica,sans-Serif" font-size="10.00">unilink/base/platform.hpp</text>
</a>
</g>
</g>
<!-- Node17&#45;&gt;Node23 -->
<g id="edge36_Node000017_Node000023" class="edge">
<title>Node17&#45;&gt;Node23</title>
<g id="a_edge36_Node000017_Node000023"><a xlink:title=" ">
<path fill="none" stroke="#63b8ff" d="M1104.5,-192.37C1104.5,-183.16 1104.5,-168.29 1104.5,-156.27"/>
<polygon fill="#63b8ff" stroke="#63b8ff" points="1108,-155.91 1104.5,-145.91 1101,-155.91 1108,-155.91"/>
</a>
</g>
</g>
<!-- Node25 -->
<g id="Node000025" class="node">
<title>Node25</title>
<g id="a_Node000025"><a xlink:href="logger_8hpp.html" target="_top" xlink:title=" ">
<polygon fill="white" stroke="#666666" points="1485.5,-151 1377.5,-151 1377.5,-121 1485.5,-121 1485.5,-151"/>
<text text-anchor="start" x="1385.5" y="-139" font-family="Helvetica,sans-Serif" font-size="10.00">unilink/diagnostics</text>
<text text-anchor="middle" x="1431.5" y="-128" font-family="Helvetica,sans-Serif" font-size="10.00">/logger.hpp</text>
</a>
</g>
</g>
<!-- Node17&#45;&gt;Node25 -->
<g id="edge39_Node000017_Node000025" class="edge">
<title>Node17&#45;&gt;Node25</title>
<g id="a_edge39_Node000017_Node000025"><a xlink:title=" ">
<path fill="none" stroke="#63b8ff" d="M1152.28,-192.42C1203.16,-183.17 1286.3,-167.77 1367.35,-151.2"/>
<polygon fill="#63b8ff" stroke="#63b8ff" points="1368.14,-154.61 1377.23,-149.17 1366.73,-147.76 1368.14,-154.61"/>
</a>
</g>
</g>
<!-- Node23&#45;&gt;Node5 -->
<g id="edge37_Node000023_Node000005" class="edge">
<title>Node23&#45;&gt;Node5</title>
<g id="a_edge37_Node000023_Node000005"><a xlink:title=" ">
<path fill="none" stroke="#63b8ff" d="M1058.03,-126.46C1047.05,-124.55 1035.38,-122.62 1024.5,-121 885.81,-100.34 719.55,-81.81 650.75,-74.41"/>
<polygon fill="#63b8ff" stroke="#63b8ff" points="650.87,-70.9 640.56,-73.32 650.13,-77.86 650.87,-70.9"/>
</a>
</g>
</g>
<!-- Node24 -->
<g id="Node000024" class="node">
<title>Node24</title>
<g id="a_Node000024"><a xlink:href="visibility_8hpp.html" target="_top" xlink:title=" ">
<polygon fill="white" stroke="#666666" points="1131.5,-79.5 1053.5,-79.5 1053.5,-60.5 1131.5,-60.5 1131.5,-79.5"/>
<text text-anchor="middle" x="1092.5" y="-67.5" font-family="Helvetica,sans-Serif" font-size="10.00">visibility.hpp</text>
</a>
</g>
</g>
<!-- Node23&#45;&gt;Node24 -->
<g id="edge38_Node000023_Node000024" class="edge">
<title>Node23&#45;&gt;Node24</title>
<g id="a_edge38_Node000023_Node000024"><a xlink:title=" ">
<path fill="none" stroke="#63b8ff" d="M1102.88,-126.37C1101.14,-117.07 1098.31,-101.98 1096.04,-89.9"/>
<polygon fill="#63b8ff" stroke="#63b8ff" points="1099.45,-89.09 1094.17,-79.91 1092.57,-90.38 1099.45,-89.09"/>
</a>
</g>
</g>
<!-- Node25&#45;&gt;Node5 -->
<g id="edge46_Node000025_Node000005" class="edge">
<title>Node25&#45;&gt;Node5</title>
<g id="a_edge46_Node000025_Node000005"><a xlink:title=" ">
<path fill="none" stroke="#63b8ff" d="M1377.3,-122.41C1374.33,-121.89 1371.38,-121.41 1368.5,-121 1296.81,-110.71 785.5,-80.67 650.9,-72.87"/>
<polygon fill="#63b8ff" stroke="#63b8ff" points="651,-69.37 640.81,-72.28 650.59,-76.36 651,-69.37"/>
</a>
</g>
</g>
<!-- Node25&#45;&gt;Node9 -->
<g id="edge41_Node000025_Node000009" class="edge">
<title>Node25&#45;&gt;Node9</title>
<g id="a_edge41_Node000025_Node000009"><a xlink:title=" ">
<path fill="none" stroke="#63b8ff" d="M1377.29,-122.48C1374.32,-121.94 1371.38,-121.44 1368.5,-121 1185.51,-92.86 1133.61,-127.84 953.5,-85 951.19,-84.45 948.83,-83.78 946.49,-83.02"/>
<polygon fill="#63b8ff" stroke="#63b8ff" points="947.65,-79.72 937.06,-79.6 945.26,-86.3 947.65,-79.72"/>
</a>
</g>
</g>
<!-- Node25&#45;&gt;Node14 -->
<g id="edge47_Node000025_Node000014" class="edge">
<title>Node25&#45;&gt;Node14</title>
<g id="a_edge47_Node000025_Node000014"><a xlink:title=" ">
<path fill="none" stroke="#63b8ff" d="M1377.28,-122.56C1374.31,-122 1371.37,-121.48 1368.5,-121 1225.57,-97.25 1186.41,-114.22 1044.5,-85 1040.85,-84.25 1037.08,-83.33 1033.33,-82.34"/>
<polygon fill="#63b8ff" stroke="#63b8ff" points="1034.17,-78.93 1023.59,-79.55 1032.24,-85.67 1034.17,-78.93"/>
</a>
</g>
</g>
<!-- Node25&#45;&gt;Node16 -->
<g id="edge48_Node000025_Node000016" class="edge">
<title>Node25&#45;&gt;Node16</title>
<g id="a_edge48_Node000025_Node000016"><a xlink:title=" ">
<path fill="none" stroke="#63b8ff" d="M1485.63,-126.93C1554.93,-116.32 1671.01,-97.57 1712.5,-85 1714.14,-84.5 1715.8,-83.95 1717.46,-83.35"/>
<polygon fill="#63b8ff" stroke="#63b8ff" points="1718.85,-86.57 1726.84,-79.61 1716.26,-80.06 1718.85,-86.57"/>
</a>
</g>
</g>
<!-- Node25&#45;&gt;Node19 -->
<g id="edge43_Node000025_Node000019" class="edge">
<title>Node25&#45;&gt;Node19</title>
<g id="a_edge43_Node000025_Node000019"><a xlink:title=" ">
<path fill="none" stroke="#63b8ff" d="M1431.28,-120.8C1431.14,-111.7 1430.95,-99.79 1430.8,-89.9"/>
<polygon fill="#63b8ff" stroke="#63b8ff" points="1434.29,-89.79 1430.64,-79.84 1427.29,-89.9 1434.29,-89.79"/>
</a>
</g>
</g>
<!-- Node25&#45;&gt;Node24 -->
<g id="edge49_Node000025_Node000024" class="edge">
<title>Node25&#45;&gt;Node24</title>
<g id="a_edge49_Node000025_Node000024"><a xlink:title=" ">
<path fill="none" stroke="#63b8ff" d="M1377.25,-122.72C1374.29,-122.12 1371.36,-121.54 1368.5,-121 1268.15,-101.91 1241.24,-107.07 1141.5,-85 1137.67,-84.15 1133.7,-83.18 1129.76,-82.15"/>
<polygon fill="#63b8ff" stroke="#63b8ff" points="1130.65,-78.77 1120.08,-79.51 1128.81,-85.52 1130.65,-78.77"/>
</a>
</g>
</g>
<!-- Node26 -->
<g id="Node000026" class="node">
<title>Node26</title>
<g id="a_Node000026"><a xlink:title=" ">
<polygon fill="#e0e0e0" stroke="#999999" points="1311.5,-79.5 1261.5,-79.5 1261.5,-60.5 1311.5,-60.5 1311.5,-79.5"/>
<text text-anchor="middle" x="1286.5" y="-67.5" font-family="Helvetica,sans-Serif" font-size="10.00">atomic</text>
</a>
</g>
</g>
<!-- Node25&#45;&gt;Node26 -->
<g id="edge40_Node000025_Node000026" class="edge">
<title>Node25&#45;&gt;Node26</title>
<g id="a_edge40_Node000025_Node000026"><a xlink:title=" ">
<path fill="none" stroke="#63b8ff" d="M1399.68,-120.95C1374.47,-109.83 1339.57,-94.42 1315.21,-83.67"/>
<polygon fill="#63b8ff" stroke="#63b8ff" points="1316.36,-80.35 1305.8,-79.52 1313.53,-86.76 1316.36,-80.35"/>
</a>
</g>
</g>
<!-- Node27 -->
<g id="Node000027" class="node">
<title>Node27</title>
<g id="a_Node000027"><a xlink:title=" ">
<polygon fill="#e0e0e0" stroke="#999999" points="1379.5,-79.5 1329.5,-79.5 1329.5,-60.5 1379.5,-60.5 1379.5,-79.5"/>
<text text-anchor="middle" x="1354.5" y="-67.5" font-family="Helvetica,sans-Serif" font-size="10.00">format</text>
</a>
</g>
</g>
<!-- Node25&#45;&gt;Node27 -->
<g id="edge42_Node000025_Node000027" class="edge">
<title>Node25&#45;&gt;Node27</title>
<g id="a_edge42_Node000025_Node000027"><a xlink:title=" ">
<path fill="none" stroke="#63b8ff" d="M1414.41,-120.8C1402.17,-110.62 1385.7,-96.93 1373.12,-86.48"/>
<polygon fill="#63b8ff" stroke="#63b8ff" points="1375.07,-83.54 1365.14,-79.84 1370.59,-88.93 1375.07,-83.54"/>
</a>
</g>
</g>
<!-- Node28 -->
<g id="Node000028" class="node">
<title>Node28</title>
<g id="a_Node000028"><a xlink:title=" ">
<polygon fill="#e0e0e0" stroke="#999999" points="1539.5,-79.5 1481.5,-79.5 1481.5,-60.5 1539.5,-60.5 1539.5,-79.5"/>
<text text-anchor="middle" x="1510.5" y="-67.5" font-family="Helvetica,sans-Serif" font-size="10.00">memory</text>
</a>
</g>
</g>
<!-- Node25&#45;&gt;Node28 -->
<g id="edge44_Node000025_Node000028" class="edge">
<title>Node25&#45;&gt;Node28</title>
<g id="a_edge44_Node000025_Node000028"><a xlink:title=" ">
<path fill="none" stroke="#63b8ff" d="M1449.03,-120.8C1461.71,-110.53 1478.82,-96.67 1491.76,-86.18"/>
<polygon fill="#63b8ff" stroke="#63b8ff" points="1494.02,-88.86 1499.58,-79.84 1489.61,-83.42 1494.02,-88.86"/>
</a>
</g>
</g>
<!-- Node29 -->
<g id="Node000029" class="node">
<title>Node29</title>
<g id="a_Node000029"><a xlink:title=" ">
<polygon fill="#e0e0e0" stroke="#999999" points="1243,-79.5 1150,-79.5 1150,-60.5 1243,-60.5 1243,-79.5"/>
<text text-anchor="middle" x="1196.5" y="-67.5" font-family="Helvetica,sans-Serif" font-size="10.00">source_location</text>
</a>
</g>
</g>
<!-- Node25&#45;&gt;Node29 -->
<g id="edge45_Node000025_Node000029" class="edge">
<title>Node25&#45;&gt;Node29</title>
<g id="a_edge45_Node000025_Node000029"><a xlink:title=" ">
<path fill="none" stroke="#63b8ff" d="M1379.93,-120.95C1337.17,-109.31 1277.2,-92.98 1237.62,-82.2"/>
<polygon fill="#63b8ff" stroke="#63b8ff" points="1238.34,-78.77 1227.77,-79.52 1236.5,-85.52 1238.34,-78.77"/>
</a>
</g>
</g>
<!-- Node30&#45;&gt;Node5 -->
<g id="edge56_Node000030_Node000005" class="edge">
<title>Node30&#45;&gt;Node5</title>
<g id="a_edge56_Node000030_Node000005"><a xlink:title=" ">
<path fill="none" stroke="#63b8ff" d="M1541.44,-126.41C1526.17,-124.41 1509.75,-122.44 1494.5,-121 1409.33,-112.96 799.17,-80.53 650.9,-72.71"/>
<polygon fill="#63b8ff" stroke="#63b8ff" points="650.83,-69.2 640.66,-72.17 650.46,-76.19 650.83,-69.2"/>
</a>
</g>
</g>
<!-- Node30&#45;&gt;Node10 -->
<g id="edge52_Node000030_Node000010" class="edge">
<title>Node30&#45;&gt;Node10</title>
<g id="a_edge52_Node000030_Node000010"><a xlink:title=" ">
<path fill="none" stroke="#63b8ff" d="M1595.54,-120.69C1588.3,-102.19 1573,-70.49 1548.5,-55 1499.78,-24.19 1327.41,-14.41 1252.12,-11.57"/>
<polygon fill="#63b8ff" stroke="#63b8ff" points="1251.87,-8.06 1241.75,-11.2 1251.62,-15.05 1251.87,-8.06"/>
</a>
</g>
</g>
<!-- Node30&#45;&gt;Node14 -->
<g id="edge57_Node000030_Node000014" class="edge">
<title>Node30&#45;&gt;Node14</title>
<g id="a_edge57_Node000030_Node000014"><a xlink:title=" ">
<path fill="none" stroke="#63b8ff" d="M1541.42,-126.65C1526.15,-124.64 1509.73,-122.61 1494.5,-121 1294.98,-99.86 1241.62,-122.43 1044.5,-85 1040.64,-84.27 1036.65,-83.33 1032.7,-82.29"/>
<polygon fill="#63b8ff" stroke="#63b8ff" points="1033.66,-78.93 1023.08,-79.55 1031.74,-85.66 1033.66,-78.93"/>
</a>
</g>
</g>
<!-- Node30&#45;&gt;Node16 -->
<g id="edge59_Node000030_Node000016" class="edge">
<title>Node30&#45;&gt;Node16</title>
<g id="a_edge59_Node000030_Node000016"><a xlink:title=" ">
<path fill="none" stroke="#63b8ff" d="M1632.1,-120.95C1657.13,-109.83 1691.8,-94.42 1715.99,-83.67"/>
<polygon fill="#63b8ff" stroke="#63b8ff" points="1717.62,-86.78 1725.34,-79.52 1714.78,-80.38 1717.62,-86.78"/>
</a>
</g>
</g>
<!-- Node30&#45;&gt;Node19 -->
<g id="edge53_Node000030_Node000019" class="edge">
<title>Node30&#45;&gt;Node19</title>
<g id="a_edge53_Node000030_Node000019"><a xlink:title=" ">
<path fill="none" stroke="#63b8ff" d="M1563.19,-120.95C1533.12,-109.63 1491.26,-93.88 1462.65,-83.1"/>
<polygon fill="#63b8ff" stroke="#63b8ff" points="1463.72,-79.77 1453.12,-79.52 1461.25,-86.32 1463.72,-79.77"/>
</a>
</g>
</g>
<!-- Node30&#45;&gt;Node21 -->
<g id="edge55_Node000030_Node000021" class="edge">
<title>Node30&#45;&gt;Node21</title>
<g id="a_edge55_Node000030_Node000021"><a xlink:title=" ">
<path fill="none" stroke="#63b8ff" d="M1600.68,-120.76C1601.73,-102.62 1606.43,-71.65 1625.5,-55 1695.5,6.1 1741.09,-33.76 1838.1,-18.87"/>
<polygon fill="#63b8ff" stroke="#63b8ff" points="1838.69,-22.32 1847.96,-17.19 1837.52,-15.42 1838.69,-22.32"/>
</a>
</g>
</g>
<!-- Node30&#45;&gt;Node24 -->
<g id="edge60_Node000030_Node000024" class="edge">
<title>Node30&#45;&gt;Node24</title>
<g id="a_edge60_Node000030_Node000024"><a xlink:title=" ">
<path fill="none" stroke="#63b8ff" d="M1541.39,-126.88C1526.13,-124.87 1509.71,-122.78 1494.5,-121 1337.87,-102.67 1296.37,-114.78 1141.5,-85 1137.39,-84.21 1133.14,-83.24 1128.92,-82.17"/>
<polygon fill="#63b8ff" stroke="#63b8ff" points="1129.82,-78.79 1119.25,-79.57 1128,-85.55 1129.82,-78.79"/>
</a>
</g>
</g>
<!-- Node30&#45;&gt;Node28 -->
<g id="edge54_Node000030_Node000028" class="edge">
<title>Node30&#45;&gt;Node28</title>
<g id="a_edge54_Node000030_Node000028"><a xlink:title=" ">
<path fill="none" stroke="#63b8ff" d="M1580.53,-120.8C1565.86,-110.37 1545.99,-96.24 1531.16,-85.69"/>
<polygon fill="#63b8ff" stroke="#63b8ff" points="1532.85,-82.6 1522.68,-79.66 1528.8,-88.31 1532.85,-82.6"/>
</a>
</g>
</g>
<!-- Node31 -->
<g id="Node000031" class="node">
<title>Node31</title>
<g id="a_Node000031"><a xlink:title=" ">
<polygon fill="#e0e0e0" stroke="#999999" points="1703,-79.5 1634,-79.5 1634,-60.5 1703,-60.5 1703,-79.5"/>
<text text-anchor="middle" x="1668.5" y="-67.5" font-family="Helvetica,sans-Serif" font-size="10.00">type_traits</text>
</a>
</g>
</g>
<!-- Node30&#45;&gt;Node31 -->
<g id="edge58_Node000030_Node000031" class="edge">
<title>Node30&#45;&gt;Node31</title>
<g id="a_edge58_Node000030_Node000031"><a xlink:title=" ">
<path fill="none" stroke="#63b8ff" d="M1615.59,-120.8C1626.3,-110.72 1640.67,-97.19 1651.73,-86.78"/>
<polygon fill="#63b8ff" stroke="#63b8ff" points="1654.22,-89.25 1659.1,-79.84 1649.42,-84.15 1654.22,-89.25"/>
</a>
</g>
</g>
<!-- Node30&#45;&gt;Node32 -->
<g id="edge61_Node000030_Node000032" class="edge">
<title>Node30&#45;&gt;Node32</title>
<g id="a_edge61_Node000030_Node000032"><a xlink:title=" ">
<path fill="none" stroke="#63b8ff" d="M1654.27,-120.95C1691.92,-111.12 1742.39,-97.93 1782.03,-87.58"/>
<polygon fill="#63b8ff" stroke="#63b8ff" points="1783.07,-90.93 1791.86,-85.01 1781.3,-84.15 1783.07,-90.93"/>
</a>
</g>
</g>
<!-- Node32&#45;&gt;Node10 -->
<g id="edge62_Node000032_Node000010" class="edge">
<title>Node32&#45;&gt;Node10</title>
<g id="a_edge62_Node000032_Node000010"><a xlink:title=" ">
<path fill="none" stroke="#63b8ff" d="M1786.24,-56.35C1783.29,-55.86 1780.36,-55.41 1777.5,-55 1579.74,-26.91 1340.06,-15.3 1251.54,-11.77"/>
<polygon fill="#63b8ff" stroke="#63b8ff" points="1251.63,-8.27 1241.5,-11.38 1251.36,-15.27 1251.63,-8.27"/>
</a>
</g>
</g>
<!-- Node32&#45;&gt;Node21 -->
<g id="edge64_Node000032_Node000021" class="edge">
<title>Node32&#45;&gt;Node21</title>
<g id="a_edge64_Node000032_Node000021"><a xlink:title=" ">
<path fill="none" stroke="#63b8ff" d="M1853.97,-54.84C1858.79,-46.78 1864.87,-36.62 1870,-28.06"/>
<polygon fill="#63b8ff" stroke="#63b8ff" points="1873.12,-29.64 1875.26,-19.27 1867.12,-26.05 1873.12,-29.64"/>
</a>
</g>
</g>
<!-- Node33 -->
<g id="Node000033" class="node">
<title>Node33</title>
<g id="a_Node000033"><a xlink:title=" ">
<polygon fill="#e0e0e0" stroke="#999999" points="1829.5,-19 1789.5,-19 1789.5,0 1829.5,0 1829.5,-19"/>
<text text-anchor="middle" x="1809.5" y="-7" font-family="Helvetica,sans-Serif" font-size="10.00">span</text>
</a>
</g>
</g>
<!-- Node32&#45;&gt;Node33 -->
<g id="edge63_Node000032_Node000033" class="edge">
<title>Node32&#45;&gt;Node33</title>
<g id="a_edge63_Node000032_Node000033"><a xlink:title=" ">
<path fill="none" stroke="#63b8ff" d="M1836.79,-54.84C1831.83,-46.78 1825.57,-36.62 1820.3,-28.06"/>
<polygon fill="#63b8ff" stroke="#63b8ff" points="1823.12,-25.95 1814.89,-19.27 1817.15,-29.62 1823.12,-25.95"/>
</a>
</g>
</g>
</g>
</svg>
