<?xml version="1.0" encoding="UTF-8" standalone="no"?>
<!DOCTYPE svg PUBLIC "-//W3C//DTD SVG 1.1//EN"
 "http://www.w3.org/Graphics/SVG/1.1/DTD/svg11.dtd">
<!-- Generated by graphviz version 2.43.0 (0)
 -->
<!-- Title: unilink/base/error_codes.hpp Pages: 1 -->
<svg width="2311pt" height="430pt"
 viewBox="0.00 0.00 2310.50 430.00" xmlns="http://www.w3.org/2000/svg" xmlns:xlink="http://www.w3.org/1999/xlink">
<g id="graph0" class="graph" transform="scale(1 1) rotate(0) translate(4 426)">
<title>unilink/base/error_codes.hpp</title>
<polygon fill="white" stroke="transparent" points="-4,4 -4,-426 2306.5,-426 2306.5,4 -4,4"/>
<!-- Node1 -->
<g id="node1" class="node">
<title>Node1</title>
<g id="a_node1"><a xlink:title=" ">
<polygon fill="#bfbfbf" stroke="black" points="210,-391.5 210,-421.5 312,-421.5 312,-391.5 210,-391.5"/>
<text text-anchor="start" x="218" y="-409.5" font-family="Helvetica,sans-Serif" font-size="10.00">unilink/base/error</text>
<text text-anchor="middle" x="261" y="-398.5" font-family="Helvetica,sans-Serif" font-size="10.00">_codes.hpp</text>
</a>
</g>
</g>
<!-- Node2 -->
<g id="node2" class="node">
<title>Node2</title>
<g id="a_node2"><a xlink:href="error__mapping_8hpp.html" target="_top" xlink:title=" ">
<polygon fill="white" stroke="black" points="205,-268.5 205,-298.5 317,-298.5 317,-268.5 205,-268.5"/>
<text text-anchor="start" x="213" y="-286.5" font-family="Helvetica,sans-Serif" font-size="10.00">unilink/diagnostics</text>
<text text-anchor="middle" x="261" y="-275.5" font-family="Helvetica,sans-Serif" font-size="10.00">/error_mapping.hpp</text>
</a>
</g>
</g>
<!-- Node1&#45;&gt;Node2 -->
<g id="edge1" class="edge">
<title>Node1&#45;&gt;Node2</title>
<path fill="none" stroke="midnightblue" d="M261,-381.12C261,-356.44 261,-319.11 261,-298.84"/>
<polygon fill="midnightblue" stroke="midnightblue" points="257.5,-381.14 261,-391.14 264.5,-381.14 257.5,-381.14"/>
</g>
<!-- Node7 -->
<g id="node7" class="node">
<title>Node7</title>
<g id="a_node7"><a xlink:href="unilink_8hpp.html" target="_top" xlink:title=" ">
<polygon fill="white" stroke="black" points="1079.5,-6 1079.5,-25 1186.5,-25 1186.5,-6 1079.5,-6"/>
<text text-anchor="middle" x="1133" y="-13" font-family="Helvetica,sans-Serif" font-size="10.00">unilink/unilink.hpp</text>
</a>
</g>
</g>
<!-- Node1&#45;&gt;Node7 -->
<g id="edge6" class="edge">
<title>Node1&#45;&gt;Node7</title>
<path fill="none" stroke="midnightblue" d="M199.64,-403.12C122.49,-396.46 0,-372.09 0,-284.5 0,-284.5 0,-284.5 0,-148.5 0,-38.41 854.91,-19.98 1079.49,-17.04"/>
<polygon fill="midnightblue" stroke="midnightblue" points="199.5,-406.62 209.75,-403.91 200.05,-399.64 199.5,-406.62"/>
</g>
<!-- Node8 -->
<g id="node8" class="node">
<title>Node8</title>
<g id="a_node8"><a xlink:href="context_8hpp.html" target="_top" xlink:title=" ">
<polygon fill="white" stroke="black" points="430.5,-335.5 430.5,-354.5 583.5,-354.5 583.5,-335.5 430.5,-335.5"/>
<text text-anchor="middle" x="507" y="-342.5" font-family="Helvetica,sans-Serif" font-size="10.00">unilink/wrapper/context.hpp</text>
</a>
</g>
</g>
<!-- Node1&#45;&gt;Node8 -->
<g id="edge7" class="edge">
<title>Node1&#45;&gt;Node8</title>
<path fill="none" stroke="midnightblue" d="M322.06,-390.73C369.16,-379.34 432.67,-363.98 471.68,-354.54"/>
<polygon fill="midnightblue" stroke="midnightblue" points="321.17,-387.35 312.27,-393.1 322.81,-394.15 321.17,-387.35"/>
</g>
<!-- Node3 -->
<g id="node3" class="node">
<title>Node3</title>
<g id="a_node3"><a xlink:href="transport_2tcp__client_2tcp__client_8cc.html" target="_top" xlink:title=" ">
<polygon fill="white" stroke="black" points="28.5,-201.5 28.5,-231.5 143.5,-231.5 143.5,-201.5 28.5,-201.5"/>
<text text-anchor="start" x="36.5" y="-219.5" font-family="Helvetica,sans-Serif" font-size="10.00">unilink/transport/tcp</text>
<text text-anchor="middle" x="86" y="-208.5" font-family="Helvetica,sans-Serif" font-size="10.00">_client/tcp_client.cc</text>
</a>
</g>
</g>
<!-- Node2&#45;&gt;Node3 -->
<g id="edge2" class="edge">
<title>Node2&#45;&gt;Node3</title>
<path fill="none" stroke="midnightblue" d="M213.4,-264.82C185.27,-254.37 150.14,-241.32 123.9,-231.58"/>
<polygon fill="midnightblue" stroke="midnightblue" points="212.43,-268.2 223.03,-268.4 214.87,-261.63 212.43,-268.2"/>
</g>
<!-- Node4 -->
<g id="node4" class="node">
<title>Node4</title>
<g id="a_node4"><a xlink:href="transport_2uds_2uds__client_8cc.html" target="_top" xlink:title=" ">
<polygon fill="white" stroke="black" points="161.5,-201.5 161.5,-231.5 278.5,-231.5 278.5,-201.5 161.5,-201.5"/>
<text text-anchor="start" x="169.5" y="-219.5" font-family="Helvetica,sans-Serif" font-size="10.00">unilink/transport/uds</text>
<text text-anchor="middle" x="220" y="-208.5" font-family="Helvetica,sans-Serif" font-size="10.00">/uds_client.cc</text>
</a>
</g>
</g>
<!-- Node2&#45;&gt;Node4 -->
<g id="edge3" class="edge">
<title>Node2&#45;&gt;Node4</title>
<path fill="none" stroke="midnightblue" d="M246.72,-259.87C240.79,-250.46 234.09,-239.83 228.88,-231.58"/>
<polygon fill="midnightblue" stroke="midnightblue" points="243.81,-261.81 252.1,-268.4 249.73,-258.07 243.81,-261.81"/>
</g>
<!-- Node5 -->
<g id="node5" class="node">
<title>Node5</title>
<g id="a_node5"><a xlink:href="wrapper_2tcp__client_2tcp__client_8cc.html" target="_top" xlink:title=" ">
<polygon fill="white" stroke="black" points="203.5,-134.5 203.5,-164.5 316.5,-164.5 316.5,-134.5 203.5,-134.5"/>
<text text-anchor="start" x="211.5" y="-152.5" font-family="Helvetica,sans-Serif" font-size="10.00">unilink/wrapper/tcp</text>
<text text-anchor="middle" x="260" y="-141.5" font-family="Helvetica,sans-Serif" font-size="10.00">_client/tcp_client.cc</text>
</a>
</g>
</g>
<!-- Node2&#45;&gt;Node5 -->
<g id="edge4" class="edge">
<title>Node2&#45;&gt;Node5</title>
<path fill="none" stroke="midnightblue" d="M275.77,-259.47C280.31,-251.15 284.71,-241.47 287,-232 290.24,-218.61 290.35,-214.36 287,-201 283.71,-187.88 276.3,-174.45 270.07,-164.74"/>
<polygon fill="midnightblue" stroke="midnightblue" points="272.7,-257.8 270.7,-268.21 278.75,-261.32 272.7,-257.8"/>
</g>
<!-- Node6 -->
<g id="node6" class="node">
<title>Node6</title>
<g id="a_node6"><a xlink:href="wrapper_2uds__client_2uds__client_8cc.html" target="_top" xlink:title=" ">
<polygon fill="white" stroke="black" points="411.5,-134.5 411.5,-164.5 526.5,-164.5 526.5,-134.5 411.5,-134.5"/>
<text text-anchor="start" x="419.5" y="-152.5" font-family="Helvetica,sans-Serif" font-size="10.00">unilink/wrapper/uds</text>
<text text-anchor="middle" x="469" y="-141.5" font-family="Helvetica,sans-Serif" font-size="10.00">_client/uds_client.cc</text>
</a>
</g>
</g>
<!-- Node2&#45;&gt;Node6 -->
<g id="edge5" class="edge">
<title>Node2&#45;&gt;Node6</title>
<path fill="none" stroke="midnightblue" d="M291.79,-262.96C334.22,-236.04 409.63,-188.17 446.9,-164.52"/>
<polygon fill="midnightblue" stroke="midnightblue" points="289.83,-260.06 283.26,-268.37 293.58,-265.97 289.83,-260.06"/>
</g>
<!-- Node8&#45;&gt;Node2 -->
<g id="edge31" class="edge">
<title>Node8&#45;&gt;Node2</title>
<path fill="none" stroke="midnightblue" d="M461.83,-333.07C421.06,-323.21 360.93,-308.67 317.09,-298.07"/>
<polygon fill="midnightblue" stroke="midnightblue" points="461.21,-336.53 471.75,-335.48 462.86,-329.72 461.21,-336.53"/>
</g>
<!-- Node8&#45;&gt;Node7 -->
<g id="edge32" class="edge">
<title>Node8&#45;&gt;Node7</title>
<path fill="none" stroke="midnightblue" d="M467.02,-332.22C419.05,-315.33 345,-279.26 345,-217.5 345,-217.5 345,-217.5 345,-148.5 345,-89.78 394.23,-88.19 449,-67 563.73,-22.61 938.85,-16.98 1079.29,-16.46"/>
<polygon fill="midnightblue" stroke="midnightblue" points="465.93,-335.55 476.53,-335.44 468.18,-328.92 465.93,-335.55"/>
</g>
<!-- Node9 -->
<g id="node9" class="node">
<title>Node9</title>
<g id="a_node9"><a xlink:href="ibuilder_8hpp.html" target="_top" xlink:title=" ">
<polygon fill="white" stroke="black" points="1166,-207 1166,-226 1312,-226 1312,-207 1166,-207"/>
<text text-anchor="middle" x="1239" y="-214" font-family="Helvetica,sans-Serif" font-size="10.00">unilink/builder/ibuilder.hpp</text>
</a>
</g>
</g>
<!-- Node8&#45;&gt;Node9 -->
<g id="edge8" class="edge">
<title>Node8&#45;&gt;Node9</title>
<path fill="none" stroke="midnightblue" d="M566.63,-333.69C707.65,-309.33 1059.52,-248.52 1189.62,-226.03"/>
<polygon fill="midnightblue" stroke="midnightblue" points="565.71,-330.3 556.45,-335.45 566.9,-337.2 565.71,-330.3"/>
</g>
<!-- Node22 -->
<g id="node22" class="node">
<title>Node22</title>
<g id="a_node22"><a xlink:href="ichannel_8hpp.html" target="_top" xlink:title=" ">
<polygon fill="white" stroke="black" points="500,-274 500,-293 658,-293 658,-274 500,-274"/>
<text text-anchor="middle" x="579" y="-281" font-family="Helvetica,sans-Serif" font-size="10.00">unilink/wrapper/ichannel.hpp</text>
</a>
</g>
</g>
<!-- Node8&#45;&gt;Node22 -->
<g id="edge33" class="edge">
<title>Node8&#45;&gt;Node22</title>
<path fill="none" stroke="midnightblue" d="M525.18,-328.97C538.96,-317.59 557.38,-302.37 568.7,-293.01"/>
<polygon fill="midnightblue" stroke="midnightblue" points="522.79,-326.41 517.32,-335.48 527.25,-331.8 522.79,-326.41"/>
</g>
<!-- Node29 -->
<g id="node29" class="node">
<title>Node29</title>
<g id="a_node29"><a xlink:href="iserver_8hpp.html" target="_top" xlink:title=" ">
<polygon fill="white" stroke="black" points="1695.5,-274 1695.5,-293 1844.5,-293 1844.5,-274 1695.5,-274"/>
<text text-anchor="middle" x="1770" y="-281" font-family="Helvetica,sans-Serif" font-size="10.00">unilink/wrapper/iserver.hpp</text>
</a>
</g>
</g>
<!-- Node8&#45;&gt;Node29 -->
<g id="edge51" class="edge">
<title>Node8&#45;&gt;Node29</title>
<path fill="none" stroke="midnightblue" d="M593.85,-339.91C829.02,-328.83 1475.27,-298.38 1695.41,-288.01"/>
<polygon fill="midnightblue" stroke="midnightblue" points="593.46,-336.42 583.63,-340.39 593.79,-343.42 593.46,-336.42"/>
</g>
<!-- Node9&#45;&gt;Node7 -->
<g id="edge30" class="edge">
<title>Node9&#45;&gt;Node7</title>
<path fill="none" stroke="midnightblue" d="M1237.41,-196.51C1235.34,-179.32 1230.61,-153.76 1220,-134 1209.59,-114.61 1199.61,-115.3 1186,-98 1166.38,-73.06 1146.99,-40.8 1138.08,-25.42"/>
<polygon fill="midnightblue" stroke="midnightblue" points="1233.97,-197.3 1238.47,-206.89 1240.94,-196.59 1233.97,-197.3"/>
</g>
<!-- Node10 -->
<g id="node10" class="node">
<title>Node10</title>
<g id="a_node10"><a xlink:href="serial__builder_8hpp.html" target="_top" xlink:title=" ">
<polygon fill="white" stroke="black" points="1095,-134.5 1095,-164.5 1211,-164.5 1211,-134.5 1095,-134.5"/>
<text text-anchor="start" x="1103" y="-152.5" font-family="Helvetica,sans-Serif" font-size="10.00">unilink/builder/serial</text>
<text text-anchor="middle" x="1153" y="-141.5" font-family="Helvetica,sans-Serif" font-size="10.00">_builder.hpp</text>
</a>
</g>
</g>
<!-- Node9&#45;&gt;Node10 -->
<g id="edge9" class="edge">
<title>Node9&#45;&gt;Node10</title>
<path fill="none" stroke="midnightblue" d="M1219.21,-200.54C1204.9,-189.73 1185.68,-175.2 1171.64,-164.59"/>
<polygon fill="midnightblue" stroke="midnightblue" points="1217.31,-203.5 1227.4,-206.73 1221.53,-197.91 1217.31,-203.5"/>
</g>
<!-- Node14 -->
<g id="node14" class="node">
<title>Node14</title>
<g id="a_node14"><a xlink:href="tcp__client__builder_8hpp.html" target="_top" xlink:title=" ">
<polygon fill="white" stroke="black" points="791,-134.5 791,-164.5 899,-164.5 899,-134.5 791,-134.5"/>
<text text-anchor="start" x="799" y="-152.5" font-family="Helvetica,sans-Serif" font-size="10.00">unilink/builder/tcp</text>
<text text-anchor="middle" x="845" y="-141.5" font-family="Helvetica,sans-Serif" font-size="10.00">_client_builder.hpp</text>
</a>
</g>
</g>
<!-- Node9&#45;&gt;Node14 -->
<g id="edge15" class="edge">
<title>Node9&#45;&gt;Node14</title>
<path fill="none" stroke="midnightblue" d="M1163.35,-205.6C1096.08,-196.41 995.17,-181.66 908,-165 905.13,-164.45 902.2,-163.87 899.24,-163.26"/>
<polygon fill="midnightblue" stroke="midnightblue" points="1163.06,-209.09 1173.44,-206.97 1164,-202.16 1163.06,-209.09"/>
</g>
<!-- Node16 -->
<g id="node16" class="node">
<title>Node16</title>
<g id="a_node16"><a xlink:href="tcp__server__builder_8hpp.html" target="_top" xlink:title=" ">
<polygon fill="white" stroke="black" points="2015,-134.5 2015,-164.5 2127,-164.5 2127,-134.5 2015,-134.5"/>
<text text-anchor="start" x="2023" y="-152.5" font-family="Helvetica,sans-Serif" font-size="10.00">unilink/builder/tcp</text>
<text text-anchor="middle" x="2071" y="-141.5" font-family="Helvetica,sans-Serif" font-size="10.00">_server_builder.hpp</text>
</a>
</g>
</g>
<!-- Node9&#45;&gt;Node16 -->
<g id="edge19" class="edge">
<title>Node9&#45;&gt;Node16</title>
<path fill="none" stroke="midnightblue" d="M1322.57,-214.1C1463.81,-210.81 1758.48,-200 2005,-165 2008.25,-164.54 2011.58,-164 2014.94,-163.42"/>
<polygon fill="midnightblue" stroke="midnightblue" points="1322.17,-210.61 1312.25,-214.33 1322.33,-217.6 1322.17,-210.61"/>
</g>
<!-- Node18 -->
<g id="node18" class="node">
<title>Node18</title>
<g id="a_node18"><a xlink:href="udp__builder_8hpp.html" target="_top" xlink:title=" ">
<polygon fill="white" stroke="black" points="1426.5,-134.5 1426.5,-164.5 1533.5,-164.5 1533.5,-134.5 1426.5,-134.5"/>
<text text-anchor="start" x="1434.5" y="-152.5" font-family="Helvetica,sans-Serif" font-size="10.00">unilink/builder/udp</text>
<text text-anchor="middle" x="1480" y="-141.5" font-family="Helvetica,sans-Serif" font-size="10.00">_builder.hpp</text>
</a>
</g>
</g>
<!-- Node9&#45;&gt;Node18 -->
<g id="edge23" class="edge">
<title>Node9&#45;&gt;Node18</title>
<path fill="none" stroke="midnightblue" d="M1280.9,-204.2C1321.76,-193.18 1383.99,-176.39 1427.99,-164.53"/>
<polygon fill="midnightblue" stroke="midnightblue" points="1279.75,-200.89 1271,-206.87 1281.57,-207.64 1279.75,-200.89"/>
</g>
<!-- Node20 -->
<g id="node20" class="node">
<title>Node20</title>
<g id="a_node20"><a xlink:href="uds__builder_8hpp.html" target="_top" xlink:title=" ">
<polygon fill="white" stroke="black" points="1267.5,-134.5 1267.5,-164.5 1374.5,-164.5 1374.5,-134.5 1267.5,-134.5"/>
<text text-anchor="start" x="1275.5" y="-152.5" font-family="Helvetica,sans-Serif" font-size="10.00">unilink/builder/uds</text>
<text text-anchor="middle" x="1321" y="-141.5" font-family="Helvetica,sans-Serif" font-size="10.00">_builder.hpp</text>
</a>
</g>
</g>
<!-- Node9&#45;&gt;Node20 -->
<g id="edge27" class="edge">
<title>Node9&#45;&gt;Node20</title>
<path fill="none" stroke="midnightblue" d="M1258.25,-200.24C1271.86,-189.45 1289.96,-175.1 1303.23,-164.59"/>
<polygon fill="midnightblue" stroke="midnightblue" points="1255.72,-197.78 1250.06,-206.73 1260.07,-203.26 1255.72,-197.78"/>
</g>
<!-- Node10&#45;&gt;Node7 -->
<g id="edge14" class="edge">
<title>Node10&#45;&gt;Node7</title>
<path fill="none" stroke="midnightblue" d="M1149.34,-124.32C1144.8,-94.38 1137.3,-44.91 1134.3,-25.1"/>
<polygon fill="midnightblue" stroke="midnightblue" points="1145.9,-125.01 1150.86,-134.37 1152.82,-123.96 1145.9,-125.01"/>
</g>
<!-- Node11 -->
<g id="node11" class="node">
<title>Node11</title>
<g id="a_node11"><a xlink:href="serial__builder_8cc.html" target="_top" xlink:title=" ">
<polygon fill="white" stroke="black" points="989,-67.5 989,-97.5 1105,-97.5 1105,-67.5 989,-67.5"/>
<text text-anchor="start" x="997" y="-85.5" font-family="Helvetica,sans-Serif" font-size="10.00">unilink/builder/serial</text>
<text text-anchor="middle" x="1047" y="-74.5" font-family="Helvetica,sans-Serif" font-size="10.00">_builder.cc</text>
</a>
</g>
</g>
<!-- Node10&#45;&gt;Node11 -->
<g id="edge10" class="edge">
<title>Node10&#45;&gt;Node11</title>
<path fill="none" stroke="midnightblue" d="M1121.22,-129.02C1104.73,-118.9 1084.95,-106.77 1069.96,-97.58"/>
<polygon fill="midnightblue" stroke="midnightblue" points="1119.65,-132.15 1130,-134.4 1123.3,-126.18 1119.65,-132.15"/>
</g>
<!-- Node12 -->
<g id="node12" class="node">
<title>Node12</title>
<g id="a_node12"><a xlink:href="unified__builder_8hpp.html" target="_top" xlink:title=" ">
<polygon fill="white" stroke="black" points="1363,-67.5 1363,-97.5 1485,-97.5 1485,-67.5 1363,-67.5"/>
<text text-anchor="start" x="1371" y="-85.5" font-family="Helvetica,sans-Serif" font-size="10.00">unilink/builder/unified</text>
<text text-anchor="middle" x="1424" y="-74.5" font-family="Helvetica,sans-Serif" font-size="10.00">_builder.hpp</text>
</a>
</g>
</g>
<!-- Node10&#45;&gt;Node12 -->
<g id="edge11" class="edge">
<title>Node10&#45;&gt;Node12</title>
<path fill="none" stroke="midnightblue" d="M1221,-132.19C1265.5,-121.52 1323.04,-107.72 1365.49,-97.53"/>
<polygon fill="midnightblue" stroke="midnightblue" points="1220.04,-128.82 1211.14,-134.56 1221.68,-135.63 1220.04,-128.82"/>
</g>
<!-- Node12&#45;&gt;Node7 -->
<g id="edge13" class="edge">
<title>Node12&#45;&gt;Node7</title>
<path fill="none" stroke="midnightblue" d="M1352.92,-65.62C1295.64,-52.83 1217.31,-35.33 1171.25,-25.04"/>
<polygon fill="midnightblue" stroke="midnightblue" points="1352.47,-69.11 1363,-67.87 1354,-62.28 1352.47,-69.11"/>
</g>
<!-- Node13 -->
<g id="node13" class="node">
<title>Node13</title>
<g id="a_node13"><a xlink:href="unified__builder_8cc.html" target="_top" xlink:title=" ">
<polygon fill="white" stroke="black" points="1363,-0.5 1363,-30.5 1485,-30.5 1485,-0.5 1363,-0.5"/>
<text text-anchor="start" x="1371" y="-18.5" font-family="Helvetica,sans-Serif" font-size="10.00">unilink/builder/unified</text>
<text text-anchor="middle" x="1424" y="-7.5" font-family="Helvetica,sans-Serif" font-size="10.00">_builder.cc</text>
</a>
</g>
</g>
<!-- Node12&#45;&gt;Node13 -->
<g id="edge12" class="edge">
<title>Node12&#45;&gt;Node13</title>
<path fill="none" stroke="midnightblue" d="M1424,-57.11C1424,-48.15 1424,-38.32 1424,-30.58"/>
<polygon fill="midnightblue" stroke="midnightblue" points="1420.5,-57.4 1424,-67.4 1427.5,-57.4 1420.5,-57.4"/>
</g>
<!-- Node14&#45;&gt;Node7 -->
<g id="edge18" class="edge">
<title>Node14&#45;&gt;Node7</title>
<path fill="none" stroke="midnightblue" d="M827.47,-125.57C816.16,-107.8 805.95,-83.5 820,-67 852.7,-28.6 998.97,-19.3 1079.46,-17.11"/>
<polygon fill="midnightblue" stroke="midnightblue" points="824.83,-127.91 833.36,-134.19 830.61,-123.96 824.83,-127.91"/>
</g>
<!-- Node14&#45;&gt;Node12 -->
<g id="edge17" class="edge">
<title>Node14&#45;&gt;Node12</title>
<path fill="none" stroke="midnightblue" d="M909.28,-133.96C1105.87,-104.39 1159.81,-125.44 1353,-98 1356.24,-97.54 1359.55,-97.02 1362.89,-96.47"/>
<polygon fill="midnightblue" stroke="midnightblue" points="908.56,-130.53 899.2,-135.5 909.61,-137.45 908.56,-130.53"/>
</g>
<!-- Node15 -->
<g id="node15" class="node">
<title>Node15</title>
<g id="a_node15"><a xlink:href="tcp__client__builder_8cc.html" target="_top" xlink:title=" ">
<polygon fill="white" stroke="black" points="829,-67.5 829,-97.5 933,-97.5 933,-67.5 829,-67.5"/>
<text text-anchor="start" x="837" y="-85.5" font-family="Helvetica,sans-Serif" font-size="10.00">unilink/builder/tcp</text>
<text text-anchor="middle" x="881" y="-74.5" font-family="Helvetica,sans-Serif" font-size="10.00">_client_builder.cc</text>
</a>
</g>
</g>
<!-- Node14&#45;&gt;Node15 -->
<g id="edge16" class="edge">
<title>Node14&#45;&gt;Node15</title>
<path fill="none" stroke="midnightblue" d="M857.7,-125.58C862.87,-116.24 868.68,-105.75 873.2,-97.58"/>
<polygon fill="midnightblue" stroke="midnightblue" points="854.59,-123.95 852.81,-134.4 860.72,-127.34 854.59,-123.95"/>
</g>
<!-- Node16&#45;&gt;Node7 -->
<g id="edge22" class="edge">
<title>Node16&#45;&gt;Node7</title>
<path fill="none" stroke="midnightblue" d="M2012.14,-131.63C1944.42,-112.9 1829.6,-83.16 1729,-67 1625.19,-50.33 1312.69,-28.43 1186.61,-20.01"/>
<polygon fill="midnightblue" stroke="midnightblue" points="2011.62,-135.12 2022.19,-134.43 2013.49,-128.38 2011.62,-135.12"/>
</g>
<!-- Node16&#45;&gt;Node12 -->
<g id="edge21" class="edge">
<title>Node16&#45;&gt;Node12</title>
<path fill="none" stroke="midnightblue" d="M2005.3,-134.05C2005.2,-134.03 2005.1,-134.01 2005,-134 1796.42,-103.3 1741.68,-120.04 1532,-98 1516.76,-96.4 1500.35,-94.36 1485.04,-92.32"/>
<polygon fill="midnightblue" stroke="midnightblue" points="2004.5,-137.46 2014.93,-135.62 2005.63,-130.55 2004.5,-137.46"/>
</g>
<!-- Node17 -->
<g id="node17" class="node">
<title>Node17</title>
<g id="a_node17"><a xlink:href="tcp__server__builder_8cc.html" target="_top" xlink:title=" ">
<polygon fill="white" stroke="black" points="2019,-67.5 2019,-97.5 2123,-97.5 2123,-67.5 2019,-67.5"/>
<text text-anchor="start" x="2027" y="-85.5" font-family="Helvetica,sans-Serif" font-size="10.00">unilink/builder/tcp</text>
<text text-anchor="middle" x="2071" y="-74.5" font-family="Helvetica,sans-Serif" font-size="10.00">_server_builder.cc</text>
</a>
</g>
</g>
<!-- Node16&#45;&gt;Node17 -->
<g id="edge20" class="edge">
<title>Node16&#45;&gt;Node17</title>
<path fill="none" stroke="midnightblue" d="M2071,-124.11C2071,-115.15 2071,-105.32 2071,-97.58"/>
<polygon fill="midnightblue" stroke="midnightblue" points="2067.5,-124.4 2071,-134.4 2074.5,-124.4 2067.5,-124.4"/>
</g>
<!-- Node18&#45;&gt;Node7 -->
<g id="edge26" class="edge">
<title>Node18&#45;&gt;Node7</title>
<path fill="none" stroke="midnightblue" d="M1493.16,-125.04C1501.27,-107.09 1507.75,-82.81 1494,-67 1474.14,-44.17 1282.48,-27.27 1186.79,-20.18"/>
<polygon fill="midnightblue" stroke="midnightblue" points="1489.89,-123.75 1488.6,-134.26 1496.17,-126.85 1489.89,-123.75"/>
</g>
<!-- Node18&#45;&gt;Node12 -->
<g id="edge25" class="edge">
<title>Node18&#45;&gt;Node12</title>
<path fill="none" stroke="midnightblue" d="M1461.25,-126.74C1452.96,-117.12 1443.46,-106.09 1436.13,-97.58"/>
<polygon fill="midnightblue" stroke="midnightblue" points="1458.67,-129.1 1467.85,-134.4 1463.97,-124.54 1458.67,-129.1"/>
</g>
<!-- Node19 -->
<g id="node19" class="node">
<title>Node19</title>
<g id="a_node19"><a xlink:href="udp__builder_8cc.html" target="_top" xlink:title=" ">
<polygon fill="white" stroke="black" points="1541.5,-67.5 1541.5,-97.5 1648.5,-97.5 1648.5,-67.5 1541.5,-67.5"/>
<text text-anchor="start" x="1549.5" y="-85.5" font-family="Helvetica,sans-Serif" font-size="10.00">unilink/builder/udp</text>
<text text-anchor="middle" x="1595" y="-74.5" font-family="Helvetica,sans-Serif" font-size="10.00">_builder.cc</text>
</a>
</g>
</g>
<!-- Node18&#45;&gt;Node19 -->
<g id="edge24" class="edge">
<title>Node18&#45;&gt;Node19</title>
<path fill="none" stroke="midnightblue" d="M1513.98,-129.3C1531.97,-119.12 1553.68,-106.85 1570.1,-97.58"/>
<polygon fill="midnightblue" stroke="midnightblue" points="1511.94,-126.43 1504.95,-134.4 1515.38,-132.52 1511.94,-126.43"/>
</g>
<!-- Node20&#45;&gt;Node7 -->
<g id="edge29" class="edge">
<title>Node20&#45;&gt;Node7</title>
<path fill="none" stroke="midnightblue" d="M1282.01,-129.67C1264.94,-120.84 1244.98,-109.7 1228,-98 1193.82,-74.45 1157.76,-40.67 1141.65,-25.04"/>
<polygon fill="midnightblue" stroke="midnightblue" points="1280.66,-132.91 1291.16,-134.33 1283.83,-126.67 1280.66,-132.91"/>
</g>
<!-- Node21 -->
<g id="node21" class="node">
<title>Node21</title>
<g id="a_node21"><a xlink:href="uds__builder_8cc.html" target="_top" xlink:title=" ">
<polygon fill="white" stroke="black" points="1237.5,-67.5 1237.5,-97.5 1344.5,-97.5 1344.5,-67.5 1237.5,-67.5"/>
<text text-anchor="start" x="1245.5" y="-85.5" font-family="Helvetica,sans-Serif" font-size="10.00">unilink/builder/uds</text>
<text text-anchor="middle" x="1291" y="-74.5" font-family="Helvetica,sans-Serif" font-size="10.00">_builder.cc</text>
</a>
</g>
</g>
<!-- Node20&#45;&gt;Node21 -->
<g id="edge28" class="edge">
<title>Node20&#45;&gt;Node21</title>
<path fill="none" stroke="midnightblue" d="M1310.28,-125.28C1306.01,-116.02 1301.23,-105.66 1297.5,-97.58"/>
<polygon fill="midnightblue" stroke="midnightblue" points="1307.12,-126.78 1314.49,-134.4 1313.48,-123.85 1307.12,-126.78"/>
</g>
<!-- Node22&#45;&gt;Node7 -->
<g id="edge34" class="edge">
<title>Node22&#45;&gt;Node7</title>
<path fill="none" stroke="midnightblue" d="M521.86,-271.43C494.72,-263.91 463.23,-251.63 440,-232 404.32,-201.85 374.57,-171.82 402,-134 481.43,-24.48 924.48,-15.63 1079.46,-15.94"/>
<polygon fill="midnightblue" stroke="midnightblue" points="521.07,-274.84 531.63,-273.99 522.85,-268.07 521.07,-274.84"/>
</g>
<!-- Node23 -->
<g id="node23" class="node">
<title>Node23</title>
<g id="a_node23"><a xlink:href="wrapper_2serial_2serial_8hpp.html" target="_top" xlink:title=" ">
<polygon fill="white" stroke="black" points="961,-201.5 961,-231.5 1083,-231.5 1083,-201.5 961,-201.5"/>
<text text-anchor="start" x="969" y="-219.5" font-family="Helvetica,sans-Serif" font-size="10.00">unilink/wrapper/serial</text>
<text text-anchor="middle" x="1022" y="-208.5" font-family="Helvetica,sans-Serif" font-size="10.00">/serial.hpp</text>
</a>
</g>
</g>
<!-- Node22&#45;&gt;Node23 -->
<g id="edge35" class="edge">
<title>Node22&#45;&gt;Node23</title>
<path fill="none" stroke="midnightblue" d="M647.51,-272.45C733.17,-259.88 878.49,-238.56 960.65,-226.5"/>
<polygon fill="midnightblue" stroke="midnightblue" points="646.76,-269.02 637.37,-273.94 647.77,-275.95 646.76,-269.02"/>
</g>
<!-- Node25 -->
<g id="node25" class="node">
<title>Node25</title>
<g id="a_node25"><a xlink:href="wrapper_2tcp__client_2tcp__client_8hpp.html" target="_top" xlink:title=" ">
<polygon fill="white" stroke="black" points="449,-201.5 449,-231.5 569,-231.5 569,-201.5 449,-201.5"/>
<text text-anchor="start" x="457" y="-219.5" font-family="Helvetica,sans-Serif" font-size="10.00">unilink/wrapper/tcp</text>
<text text-anchor="middle" x="509" y="-208.5" font-family="Helvetica,sans-Serif" font-size="10.00">_client/tcp_client.hpp</text>
</a>
</g>
</g>
<!-- Node22&#45;&gt;Node25 -->
<g id="edge39" class="edge">
<title>Node22&#45;&gt;Node25</title>
<path fill="none" stroke="midnightblue" d="M562.23,-266.93C550.65,-256.18 535.39,-242 524.17,-231.59"/>
<polygon fill="midnightblue" stroke="midnightblue" points="559.85,-269.49 569.56,-273.73 564.61,-264.36 559.85,-269.49"/>
</g>
<!-- Node26 -->
<g id="node26" class="node">
<title>Node26</title>
<g id="a_node26"><a xlink:href="wrapper_2udp_2udp_8hpp.html" target="_top" xlink:title=" ">
<polygon fill="white" stroke="black" points="727.5,-201.5 727.5,-231.5 840.5,-231.5 840.5,-201.5 727.5,-201.5"/>
<text text-anchor="start" x="735.5" y="-219.5" font-family="Helvetica,sans-Serif" font-size="10.00">unilink/wrapper/udp</text>
<text text-anchor="middle" x="784" y="-208.5" font-family="Helvetica,sans-Serif" font-size="10.00">/udp.hpp</text>
</a>
</g>
</g>
<!-- Node22&#45;&gt;Node26 -->
<g id="edge43" class="edge">
<title>Node22&#45;&gt;Node26</title>
<path fill="none" stroke="midnightblue" d="M615.98,-270.77C650.74,-259.75 702.81,-243.24 739.76,-231.53"/>
<polygon fill="midnightblue" stroke="midnightblue" points="614.7,-267.51 606.22,-273.87 616.81,-274.18 614.7,-267.51"/>
</g>
<!-- Node28 -->
<g id="node28" class="node">
<title>Node28</title>
<g id="a_node28"><a xlink:href="wrapper_2uds__client_2uds__client_8hpp.html" target="_top" xlink:title=" ">
<polygon fill="white" stroke="black" points="587,-201.5 587,-231.5 709,-231.5 709,-201.5 587,-201.5"/>
<text text-anchor="start" x="595" y="-219.5" font-family="Helvetica,sans-Serif" font-size="10.00">unilink/wrapper/uds</text>
<text text-anchor="middle" x="648" y="-208.5" font-family="Helvetica,sans-Serif" font-size="10.00">_client/uds_client.hpp</text>
</a>
</g>
</g>
<!-- Node22&#45;&gt;Node28 -->
<g id="edge47" class="edge">
<title>Node22&#45;&gt;Node28</title>
<path fill="none" stroke="midnightblue" d="M595.86,-266.62C607.23,-255.91 622.1,-241.9 633.04,-231.59"/>
<polygon fill="midnightblue" stroke="midnightblue" points="593.18,-264.33 588.31,-273.73 597.98,-269.42 593.18,-264.33"/>
</g>
<!-- Node23&#45;&gt;Node7 -->
<g id="edge37" class="edge">
<title>Node23&#45;&gt;Node7</title>
<path fill="none" stroke="midnightblue" d="M1039.03,-192.67C1049.5,-175.64 1058.99,-152.25 1048,-134 1030.36,-104.7 997.64,-127.3 980,-98 972.89,-86.2 971.93,-78.17 980,-67 1002.53,-35.83 1045,-23.58 1079.49,-18.91"/>
<polygon fill="midnightblue" stroke="midnightblue" points="1035.85,-191.14 1033.24,-201.41 1041.68,-195.01 1035.85,-191.14"/>
</g>
<!-- Node23&#45;&gt;Node10 -->
<g id="edge36" class="edge">
<title>Node23&#45;&gt;Node10</title>
<path fill="none" stroke="midnightblue" d="M1059.58,-196.85C1080.29,-186.58 1105.59,-174.03 1124.63,-164.58"/>
<polygon fill="midnightblue" stroke="midnightblue" points="1057.83,-193.82 1050.43,-201.4 1060.94,-200.09 1057.83,-193.82"/>
</g>
<!-- Node24 -->
<g id="node24" class="node">
<title>Node24</title>
<g id="a_node24"><a xlink:href="wrapper_2serial_2serial_8cc.html" target="_top" xlink:title=" ">
<polygon fill="white" stroke="black" points="917,-134.5 917,-164.5 1039,-164.5 1039,-134.5 917,-134.5"/>
<text text-anchor="start" x="925" y="-152.5" font-family="Helvetica,sans-Serif" font-size="10.00">unilink/wrapper/serial</text>
<text text-anchor="middle" x="978" y="-141.5" font-family="Helvetica,sans-Serif" font-size="10.00">/serial.cc</text>
</a>
</g>
</g>
<!-- Node23&#45;&gt;Node24 -->
<g id="edge38" class="edge">
<title>Node23&#45;&gt;Node24</title>
<path fill="none" stroke="midnightblue" d="M1006.68,-192.87C1000.31,-183.46 993.12,-172.83 987.53,-164.58"/>
<polygon fill="midnightblue" stroke="midnightblue" points="1003.95,-195.08 1012.45,-201.4 1009.75,-191.15 1003.95,-195.08"/>
</g>
<!-- Node25&#45;&gt;Node5 -->
<g id="edge42" class="edge">
<title>Node25&#45;&gt;Node5</title>
<path fill="none" stroke="midnightblue" d="M445.47,-198.92C404.84,-188.31 352.7,-174.7 314.06,-164.61"/>
<polygon fill="midnightblue" stroke="midnightblue" points="444.72,-202.34 455.28,-201.48 446.49,-195.56 444.72,-202.34"/>
</g>
<!-- Node25&#45;&gt;Node7 -->
<g id="edge41" class="edge">
<title>Node25&#45;&gt;Node7</title>
<path fill="none" stroke="midnightblue" d="M523.85,-193C547.63,-159.06 597.78,-95.71 658,-67 731.46,-31.98 971.44,-20.98 1079.46,-17.75"/>
<polygon fill="midnightblue" stroke="midnightblue" points="520.89,-191.12 518.11,-201.34 526.66,-195.08 520.89,-191.12"/>
</g>
<!-- Node25&#45;&gt;Node14 -->
<g id="edge40" class="edge">
<title>Node25&#45;&gt;Node14</title>
<path fill="none" stroke="midnightblue" d="M579.36,-200.75C658.62,-184.99 739.22,-169.93 790.99,-160.39"/>
<polygon fill="midnightblue" stroke="midnightblue" points="578.32,-197.39 569.2,-202.78 579.69,-204.25 578.32,-197.39"/>
</g>
<!-- Node26&#45;&gt;Node7 -->
<g id="edge45" class="edge">
<title>Node26&#45;&gt;Node7</title>
<path fill="none" stroke="midnightblue" d="M779.68,-191.45C775.12,-157.38 773.02,-96 810,-67 850.92,-34.91 998.76,-22.88 1079.49,-18.64"/>
<polygon fill="midnightblue" stroke="midnightblue" points="776.24,-192.11 781.2,-201.47 783.16,-191.06 776.24,-192.11"/>
</g>
<!-- Node26&#45;&gt;Node18 -->
<g id="edge44" class="edge">
<title>Node26&#45;&gt;Node18</title>
<path fill="none" stroke="midnightblue" d="M850.95,-209.68C881.73,-207.01 918.72,-203.83 952,-201 1143.53,-184.74 1192.07,-187.22 1383,-165 1397.12,-163.36 1412.35,-161.24 1426.46,-159.14"/>
<polygon fill="midnightblue" stroke="midnightblue" points="850.42,-206.21 840.76,-210.56 851.03,-213.19 850.42,-206.21"/>
</g>
<!-- Node27 -->
<g id="node27" class="node">
<title>Node27</title>
<g id="a_node27"><a xlink:href="wrapper_2udp_2udp_8cc.html" target="_top" xlink:title=" ">
<polygon fill="white" stroke="black" points="621.5,-134.5 621.5,-164.5 734.5,-164.5 734.5,-134.5 621.5,-134.5"/>
<text text-anchor="start" x="629.5" y="-152.5" font-family="Helvetica,sans-Serif" font-size="10.00">unilink/wrapper/udp</text>
<text text-anchor="middle" x="678" y="-141.5" font-family="Helvetica,sans-Serif" font-size="10.00">/udp.cc</text>
</a>
</g>
</g>
<!-- Node26&#45;&gt;Node27 -->
<g id="edge46" class="edge">
<title>Node26&#45;&gt;Node27</title>
<path fill="none" stroke="midnightblue" d="M752.22,-196.02C735.73,-185.9 715.95,-173.77 700.96,-164.58"/>
<polygon fill="midnightblue" stroke="midnightblue" points="750.65,-199.15 761,-201.4 754.3,-193.18 750.65,-199.15"/>
</g>
<!-- Node28&#45;&gt;Node6 -->
<g id="edge50" class="edge">
<title>Node28&#45;&gt;Node6</title>
<path fill="none" stroke="midnightblue" d="M599.68,-197.96C570.85,-187.48 534.72,-174.37 507.76,-164.58"/>
<polygon fill="midnightblue" stroke="midnightblue" points="598.57,-201.27 609.16,-201.4 600.95,-194.69 598.57,-201.27"/>
</g>
<!-- Node28&#45;&gt;Node7 -->
<g id="edge49" class="edge">
<title>Node28&#45;&gt;Node7</title>
<path fill="none" stroke="midnightblue" d="M626.73,-193.64C612.76,-176.55 599.23,-152.64 612,-134 664.8,-56.93 957.26,-28.39 1079.39,-19.73"/>
<polygon fill="midnightblue" stroke="midnightblue" points="624.3,-196.19 633.51,-201.43 629.58,-191.59 624.3,-196.19"/>
</g>
<!-- Node28&#45;&gt;Node20 -->
<g id="edge48" class="edge">
<title>Node28&#45;&gt;Node20</title>
<path fill="none" stroke="midnightblue" d="M719.02,-200.99C941.3,-170.78 1000.86,-188.56 1220,-165 1235.41,-163.34 1252.09,-161.13 1267.36,-158.92"/>
<polygon fill="midnightblue" stroke="midnightblue" points="718.43,-197.54 709,-202.37 719.38,-204.47 718.43,-197.54"/>
</g>
<!-- Node29&#45;&gt;Node7 -->
<g id="edge52" class="edge">
<title>Node29&#45;&gt;Node7</title>
<path fill="none" stroke="midnightblue" d="M1740.67,-269.13C1725.16,-260.61 1707.09,-248.14 1696,-232 1653.33,-169.89 1713.78,-116.54 1657,-67 1639.44,-51.68 1317.12,-28.71 1186.9,-20.01"/>
<polygon fill="midnightblue" stroke="midnightblue" points="1739.42,-272.42 1749.91,-273.92 1742.64,-266.21 1739.42,-272.42"/>
</g>
<!-- Node30 -->
<g id="node30" class="node">
<title>Node30</title>
<g id="a_node30"><a xlink:href="wrapper_2tcp__server_2tcp__server_8hpp.html" target="_top" xlink:title=" ">
<polygon fill="white" stroke="black" points="2049.5,-201.5 2049.5,-231.5 2176.5,-231.5 2176.5,-201.5 2049.5,-201.5"/>
<text text-anchor="start" x="2057.5" y="-219.5" font-family="Helvetica,sans-Serif" font-size="10.00">unilink/wrapper/tcp</text>
<text text-anchor="middle" x="2113" y="-208.5" font-family="Helvetica,sans-Serif" font-size="10.00">_server/tcp_server.hpp</text>
</a>
</g>
</g>
<!-- Node29&#45;&gt;Node30 -->
<g id="edge53" class="edge">
<title>Node29&#45;&gt;Node30</title>
<path fill="none" stroke="midnightblue" d="M1825.05,-272.07C1886.22,-260.48 1984.85,-241.78 2049.31,-229.57"/>
<polygon fill="midnightblue" stroke="midnightblue" points="1824.37,-268.63 1815.19,-273.94 1825.67,-275.51 1824.37,-268.63"/>
</g>
<!-- Node32 -->
<g id="node32" class="node">
<title>Node32</title>
<g id="a_node32"><a xlink:href="udp__server_8hpp.html" target="_top" xlink:title=" ">
<polygon fill="white" stroke="black" points="1852.5,-201.5 1852.5,-231.5 1965.5,-231.5 1965.5,-201.5 1852.5,-201.5"/>
<text text-anchor="start" x="1860.5" y="-219.5" font-family="Helvetica,sans-Serif" font-size="10.00">unilink/wrapper/udp</text>
<text text-anchor="middle" x="1909" y="-208.5" font-family="Helvetica,sans-Serif" font-size="10.00">/udp_server.hpp</text>
</a>
</g>
</g>
<!-- Node29&#45;&gt;Node32 -->
<g id="edge57" class="edge">
<title>Node29&#45;&gt;Node32</title>
<path fill="none" stroke="midnightblue" d="M1797.54,-269.62C1821.06,-258.63 1854.81,-242.84 1879,-231.53"/>
<polygon fill="midnightblue" stroke="midnightblue" points="1796.03,-266.46 1788.46,-273.87 1799,-272.8 1796.03,-266.46"/>
</g>
<!-- Node34 -->
<g id="node34" class="node">
<title>Node34</title>
<g id="a_node34"><a xlink:href="wrapper_2uds__server_2uds__server_8hpp.html" target="_top" xlink:title=" ">
<polygon fill="white" stroke="black" points="1705.5,-201.5 1705.5,-231.5 1834.5,-231.5 1834.5,-201.5 1705.5,-201.5"/>
<text text-anchor="start" x="1713.5" y="-219.5" font-family="Helvetica,sans-Serif" font-size="10.00">unilink/wrapper/uds</text>
<text text-anchor="middle" x="1770" y="-208.5" font-family="Helvetica,sans-Serif" font-size="10.00">_server/uds_server.hpp</text>
</a>
</g>
</g>
<!-- Node29&#45;&gt;Node34 -->
<g id="edge60" class="edge">
<title>Node29&#45;&gt;Node34</title>
<path fill="none" stroke="midnightblue" d="M1770,-263.41C1770,-253.22 1770,-240.9 1770,-231.59"/>
<polygon fill="midnightblue" stroke="midnightblue" points="1766.5,-263.73 1770,-273.73 1773.5,-263.73 1766.5,-263.73"/>
</g>
<!-- Node30&#45;&gt;Node7 -->
<g id="edge55" class="edge">
<title>Node30&#45;&gt;Node7</title>
<path fill="none" stroke="midnightblue" d="M2126.03,-192.31C2142.56,-159.46 2165.17,-99.73 2132,-67 2101.2,-36.61 1397.2,-33.42 1354,-31 1296.8,-27.8 1231.32,-23.41 1186.57,-20.3"/>
<polygon fill="midnightblue" stroke="midnightblue" points="2122.91,-190.72 2121.37,-201.2 2129.11,-193.97 2122.91,-190.72"/>
</g>
<!-- Node30&#45;&gt;Node16 -->
<g id="edge54" class="edge">
<title>Node30&#45;&gt;Node16</title>
<path fill="none" stroke="midnightblue" d="M2098.38,-192.87C2092.3,-183.46 2085.43,-172.83 2080.1,-164.58"/>
<polygon fill="midnightblue" stroke="midnightblue" points="2095.52,-194.9 2103.89,-201.4 2101.4,-191.1 2095.52,-194.9"/>
</g>
<!-- Node31 -->
<g id="node31" class="node">
<title>Node31</title>
<g id="a_node31"><a xlink:href="wrapper_2tcp__server_2tcp__server_8cc.html" target="_top" xlink:title=" ">
<polygon fill="white" stroke="black" points="2183.5,-134.5 2183.5,-164.5 2302.5,-164.5 2302.5,-134.5 2183.5,-134.5"/>
<text text-anchor="start" x="2191.5" y="-152.5" font-family="Helvetica,sans-Serif" font-size="10.00">unilink/wrapper/tcp</text>
<text text-anchor="middle" x="2243" y="-141.5" font-family="Helvetica,sans-Serif" font-size="10.00">_server/tcp_server.cc</text>
</a>
</g>
</g>
<!-- Node30&#45;&gt;Node31 -->
<g id="edge56" class="edge">
<title>Node30&#45;&gt;Node31</title>
<path fill="none" stroke="midnightblue" d="M2150.29,-196.85C2170.85,-186.58 2195.95,-174.03 2214.85,-164.58"/>
<polygon fill="midnightblue" stroke="midnightblue" points="2148.59,-193.79 2141.21,-201.4 2151.72,-200.05 2148.59,-193.79"/>
</g>
<!-- Node32&#45;&gt;Node18 -->
<g id="edge58" class="edge">
<title>Node32&#45;&gt;Node18</title>
<path fill="none" stroke="midnightblue" d="M1842.09,-200.92C1726.45,-180.5 1602.74,-164.83 1533.72,-156.64"/>
<polygon fill="midnightblue" stroke="midnightblue" points="1841.72,-204.41 1852.17,-202.72 1842.94,-197.52 1841.72,-204.41"/>
</g>
<!-- Node33 -->
<g id="node33" class="node">
<title>Node33</title>
<g id="a_node33"><a xlink:href="udp__server_8cc.html" target="_top" xlink:title=" ">
<polygon fill="white" stroke="black" points="1883.5,-134.5 1883.5,-164.5 1996.5,-164.5 1996.5,-134.5 1883.5,-134.5"/>
<text text-anchor="start" x="1891.5" y="-152.5" font-family="Helvetica,sans-Serif" font-size="10.00">unilink/wrapper/udp</text>
<text text-anchor="middle" x="1940" y="-141.5" font-family="Helvetica,sans-Serif" font-size="10.00">/udp_server.cc</text>
</a>
</g>
</g>
<!-- Node32&#45;&gt;Node33 -->
<g id="edge59" class="edge">
<title>Node32&#45;&gt;Node33</title>
<path fill="none" stroke="midnightblue" d="M1920.07,-192.28C1924.49,-183.02 1929.43,-172.66 1933.29,-164.58"/>
<polygon fill="midnightblue" stroke="midnightblue" points="1916.87,-190.86 1915.73,-201.4 1923.19,-193.88 1916.87,-190.86"/>
</g>
<!-- Node34&#45;&gt;Node7 -->
<g id="edge62" class="edge">
<title>Node34&#45;&gt;Node7</title>
<path fill="none" stroke="midnightblue" d="M1752.75,-193.41C1746.44,-184.8 1739.5,-174.69 1734,-165 1710.52,-123.64 1729.61,-94.78 1691,-67 1670.69,-52.39 1322.59,-28.64 1186.71,-19.88"/>
<polygon fill="midnightblue" stroke="midnightblue" points="1749.98,-195.54 1758.78,-201.44 1755.58,-191.34 1749.98,-195.54"/>
</g>
<!-- Node34&#45;&gt;Node20 -->
<g id="edge61" class="edge">
<title>Node34&#45;&gt;Node20</title>
<path fill="none" stroke="midnightblue" d="M1694.99,-204.94C1623.51,-194.84 1512.89,-179.1 1417,-165 1403.24,-162.98 1388.38,-160.75 1374.56,-158.67"/>
<polygon fill="midnightblue" stroke="midnightblue" points="1694.85,-208.46 1705.24,-206.39 1695.83,-201.53 1694.85,-208.46"/>
</g>
<!-- Node35 -->
<g id="node35" class="node">
<title>Node35</title>
<g id="a_node35"><a xlink:href="wrapper_2uds__server_2uds__server_8cc.html" target="_top" xlink:title=" ">
<polygon fill="white" stroke="black" points="1743,-134.5 1743,-164.5 1865,-164.5 1865,-134.5 1743,-134.5"/>
<text text-anchor="start" x="1751" y="-152.5" font-family="Helvetica,sans-Serif" font-size="10.00">unilink/wrapper/uds</text>
<text text-anchor="middle" x="1804" y="-141.5" font-family="Helvetica,sans-Serif" font-size="10.00">_server/uds_server.cc</text>
</a>
</g>
</g>
<!-- Node34&#45;&gt;Node35 -->
<g id="edge63" class="edge">
<title>Node34&#45;&gt;Node35</title>
<path fill="none" stroke="midnightblue" d="M1782.14,-192.28C1786.99,-183.02 1792.41,-172.66 1796.64,-164.58"/>
<polygon fill="midnightblue" stroke="midnightblue" points="1778.91,-190.91 1777.38,-201.4 1785.11,-194.16 1778.91,-190.91"/>
</g>
</g>
</svg>
