<?xml version="1.0" encoding="UTF-8" standalone="no"?>
<!DOCTYPE svg PUBLIC "-//W3C//DTD SVG 1.1//EN"
 "http://www.w3.org/Graphics/SVG/1.1/DTD/svg11.dtd">
<!-- Generated by graphviz version 2.43.0 (0)
 -->
<!-- Title: unilink/diagnostics/error_mapping.hpp Pages: 1 -->
<svg width="1118pt" height="229pt"
 viewBox="0.00 0.00 1117.50 229.00" xmlns="http://www.w3.org/2000/svg" xmlns:xlink="http://www.w3.org/1999/xlink">
<g id="graph0" class="graph" transform="scale(1 1) rotate(0) translate(4 225)">
<title>unilink/diagnostics/error_mapping.hpp</title>
<polygon fill="white" stroke="transparent" points="-4,4 -4,-225 1113.5,-225 1113.5,4 -4,4"/>
<!-- Node1 -->
<g id="node1" class="node">
<title>Node1</title>
<g id="a_node1"><a xlink:title=" ">
<polygon fill="#bfbfbf" stroke="black" points="609.5,-190.5 609.5,-220.5 721.5,-220.5 721.5,-190.5 609.5,-190.5"/>
<text text-anchor="start" x="617.5" y="-208.5" font-family="Helvetica,sans-Serif" font-size="10.00">unilink/diagnostics</text>
<text text-anchor="middle" x="665.5" y="-197.5" font-family="Helvetica,sans-Serif" font-size="10.00">/error_mapping.hpp</text>
</a>
</g>
</g>
<!-- Node2 -->
<g id="node2" class="node">
<title>Node2</title>
<g id="a_node2"><a xlink:title=" ">
<polygon fill="white" stroke="#bfbfbf" points="200,-129 200,-148 313,-148 313,-129 200,-129"/>
<text text-anchor="middle" x="256.5" y="-136" font-family="Helvetica,sans-Serif" font-size="10.00">boost/asio/error.hpp</text>
</a>
</g>
</g>
<!-- Node1&#45;&gt;Node2 -->
<g id="edge1" class="edge">
<title>Node1&#45;&gt;Node2</title>
<path fill="none" stroke="midnightblue" d="M609.43,-197.05C542.26,-187.91 426.39,-171.47 327.5,-154 320.67,-152.79 313.5,-151.44 306.44,-150.05"/>
<polygon fill="midnightblue" stroke="midnightblue" points="306.73,-146.53 296.23,-148 305.35,-153.4 306.73,-146.53"/>
</g>
<!-- Node3 -->
<g id="node3" class="node">
<title>Node3</title>
<g id="a_node3"><a xlink:title=" ">
<polygon fill="white" stroke="#bfbfbf" points="0,-56.5 0,-86.5 109,-86.5 109,-56.5 0,-56.5"/>
<text text-anchor="start" x="8" y="-74.5" font-family="Helvetica,sans-Serif" font-size="10.00">boost/system/error</text>
<text text-anchor="middle" x="54.5" y="-63.5" font-family="Helvetica,sans-Serif" font-size="10.00">_code.hpp</text>
</a>
</g>
</g>
<!-- Node1&#45;&gt;Node3 -->
<g id="edge2" class="edge">
<title>Node1&#45;&gt;Node3</title>
<path fill="none" stroke="midnightblue" d="M609.39,-203.58C546.31,-200.69 442.05,-190.21 360.5,-154 340.26,-145.01 341.69,-132.1 321.5,-123 240.82,-86.63 210.41,-103.84 119.19,-87.01"/>
<polygon fill="midnightblue" stroke="midnightblue" points="119.76,-83.55 109.28,-85.09 118.43,-90.43 119.76,-83.55"/>
</g>
<!-- Node4 -->
<g id="node4" class="node">
<title>Node4</title>
<g id="a_node4"><a xlink:title=" ">
<polygon fill="white" stroke="#bfbfbf" points="1053.5,-62 1053.5,-81 1109.5,-81 1109.5,-62 1053.5,-62"/>
<text text-anchor="middle" x="1081.5" y="-69" font-family="Helvetica,sans-Serif" font-size="10.00">optional</text>
</a>
</g>
</g>
<!-- Node1&#45;&gt;Node4 -->
<g id="edge3" class="edge">
<title>Node1&#45;&gt;Node4</title>
<path fill="none" stroke="midnightblue" d="M721.73,-196.76C771.84,-188.96 846.74,-175.03 909.5,-154 964.54,-135.56 1025.03,-104.05 1057.57,-86.09"/>
<polygon fill="midnightblue" stroke="midnightblue" points="1059.33,-89.12 1066.36,-81.2 1055.92,-83.01 1059.33,-89.12"/>
</g>
<!-- Node5 -->
<g id="node5" class="node">
<title>Node5</title>
<g id="a_node5"><a xlink:title=" ">
<polygon fill="white" stroke="#bfbfbf" points="683.5,-0.5 683.5,-19.5 727.5,-19.5 727.5,-0.5 683.5,-0.5"/>
<text text-anchor="middle" x="705.5" y="-7.5" font-family="Helvetica,sans-Serif" font-size="10.00">string</text>
</a>
</g>
</g>
<!-- Node1&#45;&gt;Node5 -->
<g id="edge4" class="edge">
<title>Node1&#45;&gt;Node5</title>
<path fill="none" stroke="midnightblue" d="M665.87,-190.28C666.87,-163.5 670.62,-103.93 684.5,-56 687.23,-46.58 691.68,-36.65 695.78,-28.52"/>
<polygon fill="midnightblue" stroke="midnightblue" points="698.89,-30.12 700.47,-19.65 692.7,-26.85 698.89,-30.12"/>
</g>
<!-- Node6 -->
<g id="node6" class="node">
<title>Node6</title>
<g id="a_node6"><a xlink:href="error__codes_8hpp.html" target="_top" xlink:title=" ">
<polygon fill="white" stroke="black" points="693.5,-56.5 693.5,-86.5 795.5,-86.5 795.5,-56.5 693.5,-56.5"/>
<text text-anchor="start" x="701.5" y="-74.5" font-family="Helvetica,sans-Serif" font-size="10.00">unilink/base/error</text>
<text text-anchor="middle" x="744.5" y="-63.5" font-family="Helvetica,sans-Serif" font-size="10.00">_codes.hpp</text>
</a>
</g>
</g>
<!-- Node1&#45;&gt;Node6 -->
<g id="edge5" class="edge">
<title>Node1&#45;&gt;Node6</title>
<path fill="none" stroke="midnightblue" d="M673.95,-190.37C687.56,-167.65 714.43,-122.75 730.79,-95.4"/>
<polygon fill="midnightblue" stroke="midnightblue" points="733.97,-96.9 736.11,-86.52 727.97,-93.31 733.97,-96.9"/>
</g>
<!-- Node7 -->
<g id="node7" class="node">
<title>Node7</title>
<g id="a_node7"><a xlink:href="error__types_8hpp.html" target="_top" xlink:title=" ">
<polygon fill="white" stroke="black" points="369.5,-123.5 369.5,-153.5 477.5,-153.5 477.5,-123.5 369.5,-123.5"/>
<text text-anchor="start" x="377.5" y="-141.5" font-family="Helvetica,sans-Serif" font-size="10.00">unilink/diagnostics</text>
<text text-anchor="middle" x="423.5" y="-130.5" font-family="Helvetica,sans-Serif" font-size="10.00">/error_types.hpp</text>
</a>
</g>
</g>
<!-- Node1&#45;&gt;Node7 -->
<g id="edge7" class="edge">
<title>Node1&#45;&gt;Node7</title>
<path fill="none" stroke="midnightblue" d="M613.29,-190.48C575.88,-180.43 525.35,-166.86 485.83,-156.24"/>
<polygon fill="midnightblue" stroke="midnightblue" points="486.6,-152.82 476.04,-153.61 484.79,-159.59 486.6,-152.82"/>
</g>
<!-- Node15 -->
<g id="node15" class="node">
<title>Node15</title>
<g id="a_node15"><a xlink:href="context_8hpp.html" target="_top" xlink:title=" ">
<polygon fill="white" stroke="black" points="747,-129 747,-148 900,-148 900,-129 747,-129"/>
<text text-anchor="middle" x="823.5" y="-136" font-family="Helvetica,sans-Serif" font-size="10.00">unilink/wrapper/context.hpp</text>
</a>
</g>
</g>
<!-- Node1&#45;&gt;Node15 -->
<g id="edge17" class="edge">
<title>Node1&#45;&gt;Node15</title>
<path fill="none" stroke="midnightblue" d="M699.78,-190.4C727.63,-178.94 766.53,-162.94 793.23,-151.95"/>
<polygon fill="midnightblue" stroke="midnightblue" points="794.91,-155.05 802.82,-148.01 792.24,-148.57 794.91,-155.05"/>
</g>
<!-- Node6&#45;&gt;Node5 -->
<g id="edge6" class="edge">
<title>Node6&#45;&gt;Node5</title>
<path fill="none" stroke="midnightblue" d="M735.26,-56.4C729.71,-47.93 722.61,-37.1 716.73,-28.14"/>
<polygon fill="midnightblue" stroke="midnightblue" points="719.58,-26.1 711.17,-19.66 713.73,-29.94 719.58,-26.1"/>
</g>
<!-- Node7&#45;&gt;Node3 -->
<g id="edge9" class="edge">
<title>Node7&#45;&gt;Node3</title>
<path fill="none" stroke="midnightblue" d="M369.37,-125.65C364.68,-124.72 360.01,-123.82 355.5,-123 253.86,-104.46 224.92,-106.63 119.37,-87.08"/>
<polygon fill="midnightblue" stroke="midnightblue" points="119.73,-83.58 109.26,-85.18 118.44,-90.46 119.73,-83.58"/>
</g>
<!-- Node7&#45;&gt;Node5 -->
<g id="edge15" class="edge">
<title>Node7&#45;&gt;Node5</title>
<path fill="none" stroke="midnightblue" d="M422.44,-123.42C421.91,-105.12 423.99,-73.43 442.5,-56 475.33,-25.07 610.39,-15.16 673.16,-12.18"/>
<polygon fill="midnightblue" stroke="midnightblue" points="673.46,-15.67 683.3,-11.73 673.15,-8.68 673.46,-15.67"/>
</g>
<!-- Node8 -->
<g id="node8" class="node">
<title>Node8</title>
<g id="a_node8"><a xlink:title=" ">
<polygon fill="white" stroke="#bfbfbf" points="127.5,-62 127.5,-81 191.5,-81 191.5,-62 127.5,-62"/>
<text text-anchor="middle" x="159.5" y="-69" font-family="Helvetica,sans-Serif" font-size="10.00">algorithm</text>
</a>
</g>
</g>
<!-- Node7&#45;&gt;Node8 -->
<g id="edge8" class="edge">
<title>Node7&#45;&gt;Node8</title>
<path fill="none" stroke="midnightblue" d="M369.32,-125.58C308.64,-112.17 216.61,-91.66 200.5,-87 197.71,-86.19 194.84,-85.3 191.96,-84.37"/>
<polygon fill="midnightblue" stroke="midnightblue" points="192.93,-81 182.33,-81.11 190.68,-87.63 192.93,-81"/>
</g>
<!-- Node9 -->
<g id="node9" class="node">
<title>Node9</title>
<g id="a_node9"><a xlink:title=" ">
<polygon fill="white" stroke="#bfbfbf" points="209.5,-62 209.5,-81 259.5,-81 259.5,-62 209.5,-62"/>
<text text-anchor="middle" x="234.5" y="-69" font-family="Helvetica,sans-Serif" font-size="10.00">chrono</text>
</a>
</g>
</g>
<!-- Node7&#45;&gt;Node9 -->
<g id="edge10" class="edge">
<title>Node7&#45;&gt;Node9</title>
<path fill="none" stroke="midnightblue" d="M376.67,-123.42C345.72,-113.83 304.4,-100.47 268.5,-87 266.85,-86.38 265.16,-85.73 263.46,-85.05"/>
<polygon fill="midnightblue" stroke="midnightblue" points="264.38,-81.65 253.8,-81.08 261.72,-88.12 264.38,-81.65"/>
</g>
<!-- Node10 -->
<g id="node10" class="node">
<title>Node10</title>
<g id="a_node10"><a xlink:title=" ">
<polygon fill="white" stroke="#bfbfbf" points="810.5,-0.5 810.5,-19.5 860.5,-19.5 860.5,-0.5 810.5,-0.5"/>
<text text-anchor="middle" x="835.5" y="-7.5" font-family="Helvetica,sans-Serif" font-size="10.00">cstdint</text>
</a>
</g>
</g>
<!-- Node7&#45;&gt;Node10 -->
<g id="edge11" class="edge">
<title>Node7&#45;&gt;Node10</title>
<path fill="none" stroke="midnightblue" d="M452.8,-123.37C471.53,-113.91 496.05,-100.72 516.5,-87 534.6,-74.86 534.61,-64.92 554.5,-56 597.84,-36.56 734.62,-20.94 800.01,-14.36"/>
<polygon fill="midnightblue" stroke="midnightblue" points="800.63,-17.82 810.24,-13.35 799.94,-10.85 800.63,-17.82"/>
</g>
<!-- Node11 -->
<g id="node11" class="node">
<title>Node11</title>
<g id="a_node11"><a xlink:title=" ">
<polygon fill="white" stroke="#bfbfbf" points="277.5,-62 277.5,-81 321.5,-81 321.5,-62 277.5,-62"/>
<text text-anchor="middle" x="299.5" y="-69" font-family="Helvetica,sans-Serif" font-size="10.00">ctime</text>
</a>
</g>
</g>
<!-- Node7&#45;&gt;Node11 -->
<g id="edge12" class="edge">
<title>Node7&#45;&gt;Node11</title>
<path fill="none" stroke="midnightblue" d="M396.59,-123.4C375.22,-112.19 345.55,-96.64 324.65,-85.69"/>
<polygon fill="midnightblue" stroke="midnightblue" points="326.21,-82.55 315.73,-81.01 322.96,-88.75 326.21,-82.55"/>
</g>
<!-- Node12 -->
<g id="node12" class="node">
<title>Node12</title>
<g id="a_node12"><a xlink:title=" ">
<polygon fill="white" stroke="#bfbfbf" points="339.5,-62 339.5,-81 395.5,-81 395.5,-62 339.5,-62"/>
<text text-anchor="middle" x="367.5" y="-69" font-family="Helvetica,sans-Serif" font-size="10.00">iomanip</text>
</a>
</g>
</g>
<!-- Node7&#45;&gt;Node12 -->
<g id="edge13" class="edge">
<title>Node7&#45;&gt;Node12</title>
<path fill="none" stroke="midnightblue" d="M411.35,-123.4C402.62,-113.26 390.82,-99.57 381.66,-88.94"/>
<polygon fill="midnightblue" stroke="midnightblue" points="384.17,-86.49 374.99,-81.19 378.87,-91.06 384.17,-86.49"/>
</g>
<!-- Node13 -->
<g id="node13" class="node">
<title>Node13</title>
<g id="a_node13"><a xlink:title=" ">
<polygon fill="white" stroke="#bfbfbf" points="451.5,-62 451.5,-81 507.5,-81 507.5,-62 451.5,-62"/>
<text text-anchor="middle" x="479.5" y="-69" font-family="Helvetica,sans-Serif" font-size="10.00">sstream</text>
</a>
</g>
</g>
<!-- Node7&#45;&gt;Node13 -->
<g id="edge14" class="edge">
<title>Node7&#45;&gt;Node13</title>
<path fill="none" stroke="midnightblue" d="M435.65,-123.4C444.38,-113.26 456.18,-99.57 465.34,-88.94"/>
<polygon fill="midnightblue" stroke="midnightblue" points="468.13,-91.06 472.01,-81.19 462.83,-86.49 468.13,-91.06"/>
</g>
<!-- Node14 -->
<g id="node14" class="node">
<title>Node14</title>
<g id="a_node14"><a xlink:title=" ">
<polygon fill="white" stroke="#bfbfbf" points="564,-62 564,-81 637,-81 637,-62 564,-62"/>
<text text-anchor="middle" x="600.5" y="-69" font-family="Helvetica,sans-Serif" font-size="10.00">string_view</text>
</a>
</g>
</g>
<!-- Node7&#45;&gt;Node14 -->
<g id="edge16" class="edge">
<title>Node7&#45;&gt;Node14</title>
<path fill="none" stroke="midnightblue" d="M461.91,-123.4C493.51,-111.79 537.83,-95.51 567.77,-84.52"/>
<polygon fill="midnightblue" stroke="midnightblue" points="569.15,-87.74 577.33,-81.01 566.74,-81.17 569.15,-87.74"/>
</g>
<!-- Node15&#45;&gt;Node4 -->
<g id="edge18" class="edge">
<title>Node15&#45;&gt;Node4</title>
<path fill="none" stroke="midnightblue" d="M870.17,-128.94C915.26,-120.17 985.26,-105.26 1044.5,-87 1046.92,-86.25 1049.41,-85.42 1051.9,-84.55"/>
<polygon fill="midnightblue" stroke="midnightblue" points="1053.19,-87.8 1061.34,-81.03 1050.74,-81.24 1053.19,-87.8"/>
</g>
<!-- Node15&#45;&gt;Node5 -->
<g id="edge19" class="edge">
<title>Node15&#45;&gt;Node5</title>
<path fill="none" stroke="midnightblue" d="M823.85,-128.81C824.03,-112.63 822.18,-77.57 804.5,-56 787.76,-35.58 759.77,-24.04 737.81,-17.77"/>
<polygon fill="midnightblue" stroke="midnightblue" points="738.46,-14.33 727.9,-15.18 736.69,-21.1 738.46,-14.33"/>
</g>
<!-- Node15&#45;&gt;Node6 -->
<g id="edge22" class="edge">
<title>Node15&#45;&gt;Node6</title>
<path fill="none" stroke="midnightblue" d="M812.85,-128.73C801.76,-119.61 784,-105 769.37,-92.96"/>
<polygon fill="midnightblue" stroke="midnightblue" points="771.57,-90.24 761.62,-86.59 767.12,-95.65 771.57,-90.24"/>
</g>
<!-- Node15&#45;&gt;Node14 -->
<g id="edge20" class="edge">
<title>Node15&#45;&gt;Node14</title>
<path fill="none" stroke="midnightblue" d="M793.89,-128.87C754.21,-117.3 683.69,-96.75 639.66,-83.91"/>
<polygon fill="midnightblue" stroke="midnightblue" points="640.46,-80.5 629.88,-81.06 638.5,-87.22 640.46,-80.5"/>
</g>
<!-- Node16 -->
<g id="node16" class="node">
<title>Node16</title>
<g id="a_node16"><a xlink:title=" ">
<polygon fill="white" stroke="#bfbfbf" points="852,-62 852,-81 899,-81 899,-62 852,-62"/>
<text text-anchor="middle" x="875.5" y="-69" font-family="Helvetica,sans-Serif" font-size="10.00">vector</text>
</a>
</g>
</g>
<!-- Node15&#45;&gt;Node16 -->
<g id="edge21" class="edge">
<title>Node15&#45;&gt;Node16</title>
<path fill="none" stroke="midnightblue" d="M830.51,-128.73C838.62,-118.6 852.15,-101.69 862.26,-89.06"/>
<polygon fill="midnightblue" stroke="midnightblue" points="865.08,-91.12 868.6,-81.13 859.62,-86.75 865.08,-91.12"/>
</g>
<!-- Node17 -->
<g id="node17" class="node">
<title>Node17</title>
<g id="a_node17"><a xlink:href="safe__span_8hpp.html" target="_top" xlink:title=" ">
<polygon fill="white" stroke="black" points="917.5,-56.5 917.5,-86.5 1035.5,-86.5 1035.5,-56.5 917.5,-56.5"/>
<text text-anchor="start" x="925.5" y="-74.5" font-family="Helvetica,sans-Serif" font-size="10.00">unilink/memory/safe</text>
<text text-anchor="middle" x="976.5" y="-63.5" font-family="Helvetica,sans-Serif" font-size="10.00">_span.hpp</text>
</a>
</g>
</g>
<!-- Node15&#45;&gt;Node17 -->
<g id="edge23" class="edge">
<title>Node15&#45;&gt;Node17</title>
<path fill="none" stroke="midnightblue" d="M843.82,-128.87C866.78,-119.12 904.78,-102.97 934.24,-90.45"/>
<polygon fill="midnightblue" stroke="midnightblue" points="935.64,-93.66 943.48,-86.53 932.91,-87.22 935.64,-93.66"/>
</g>
<!-- Node17&#45;&gt;Node10 -->
<g id="edge24" class="edge">
<title>Node17&#45;&gt;Node10</title>
<path fill="none" stroke="midnightblue" d="M943.08,-56.4C919.53,-46.46 888.26,-33.26 865.51,-23.66"/>
<polygon fill="midnightblue" stroke="midnightblue" points="866.59,-20.32 856.02,-19.66 863.87,-26.77 866.59,-20.32"/>
</g>
<!-- Node18 -->
<g id="node18" class="node">
<title>Node18</title>
<g id="a_node18"><a xlink:title=" ">
<polygon fill="white" stroke="#bfbfbf" points="901,-0.5 901,-19.5 966,-19.5 966,-0.5 901,-0.5"/>
<text text-anchor="middle" x="933.5" y="-7.5" font-family="Helvetica,sans-Serif" font-size="10.00">stdexcept</text>
</a>
</g>
</g>
<!-- Node17&#45;&gt;Node18 -->
<g id="edge25" class="edge">
<title>Node17&#45;&gt;Node18</title>
<path fill="none" stroke="midnightblue" d="M966.31,-56.4C960.13,-47.84 952.2,-36.87 945.68,-27.86"/>
<polygon fill="midnightblue" stroke="midnightblue" points="948.45,-25.71 939.76,-19.66 942.78,-29.81 948.45,-25.71"/>
</g>
<!-- Node19 -->
<g id="node19" class="node">
<title>Node19</title>
<g id="a_node19"><a xlink:title=" ">
<polygon fill="white" stroke="#bfbfbf" points="984,-0.5 984,-19.5 1053,-19.5 1053,-0.5 984,-0.5"/>
<text text-anchor="middle" x="1018.5" y="-7.5" font-family="Helvetica,sans-Serif" font-size="10.00">type_traits</text>
</a>
</g>
</g>
<!-- Node17&#45;&gt;Node19 -->
<g id="edge26" class="edge">
<title>Node17&#45;&gt;Node19</title>
<path fill="none" stroke="midnightblue" d="M986.45,-56.4C992.49,-47.84 1000.24,-36.87 1006.6,-27.86"/>
<polygon fill="midnightblue" stroke="midnightblue" points="1009.48,-29.85 1012.39,-19.66 1003.76,-25.81 1009.48,-29.85"/>
</g>
</g>
</svg>
