<?xml version="1.0" encoding="UTF-8" standalone="no"?>
<!DOCTYPE svg PUBLIC "-//W3C//DTD SVG 1.1//EN"
 "http://www.w3.org/Graphics/SVG/1.1/DTD/svg11.dtd">
<!-- Generated by graphviz version 2.43.0 (0)
 -->
<!-- Title: unilink/diagnostics/error_handler.cc Pages: 1 -->
<!--zoomable 225 -->

<svg id="main" version="1.1" xmlns="http://www.w3.org/2000/svg" xmlns:xlink="http://www.w3.org/1999/xlink" xml:space="preserve" onload="init(evt)">
<style type="text/css"><![CDATA[
.node, .edge {opacity: 0.7;}
.node.selected, .edge.selected {opacity: 1;}
.edge:hover path { stroke: red; }
.edge:hover polygon { stroke: red; fill: red; }
]]></style>

<defs>
  <circle id="rim" cx="0" cy="0" r="7"/>
  <circle id="rim2" cx="0" cy="0" r="3.5"/>
  <g id="zoomPlus">
    <use xlink:href="#rim" fill="#404040"><set attributeName="fill" to="#808080" begin="zoomplus.mouseover" end="zoomplus.mouseout"/></use>
    <path d="M-4,0h8M0,-4v8" fill="none" stroke="white" stroke-width="1.5" pointer-events="none"/>
  </g>
  <g id="zoomMin">
    <use xlink:href="#rim" fill="#404040"><set attributeName="fill" to="#808080" begin="zoomminus.mouseover" end="zoomminus.mouseout"/></use>
    <path d="M-4,0h8" fill="none" stroke="white" stroke-width="1.5" pointer-events="none"/>
  </g>
  <g id="arrowUp" transform="translate(30 24)">
    <use xlink:href="#rim"/>
    <path pointer-events="none" fill="none" stroke="white" stroke-width="1.5" d="M0,-3.0v7 M-2.5,-0.5L0,-3.0L2.5,-0.5"/>
  </g>
  <g id="arrowRight" transform="rotate(90) translate(36 -43)">
    <use xlink:href="#rim"/>
    <path pointer-events="none" fill="none" stroke="white" stroke-width="1.5" d="M0,-3.0v7 M-2.5,-0.5L0,-3.0L2.5,-0.5"/>
  </g>
  <g id="arrowDown" transform="rotate(180) translate(-30 -48)">
    <use xlink:href="#rim"/>
    <path pointer-events="none" fill="none" stroke="white" stroke-width="1.5" d="M0,-3.0v7 M-2.5,-0.5L0,-3.0L2.5,-0.5"/>
  </g>
  <g id="arrowLeft" transform="rotate(270) translate(-36 17)">
    <use xlink:href="#rim"/>
    <path pointer-events="none" fill="none" stroke="white" stroke-width="1.5" d="M0,-3.0v7 M-2.5,-0.5L0,-3.0L2.5,-0.5"/>
  </g>
  <g id="resetDef">
    <use xlink:href="#rim2" fill="#404040"><set attributeName="fill" to="#808080" begin="reset.mouseover" end="reset.mouseout"/></use>
  </g>
</defs>
<script type="application/ecmascript">
var viewWidth = 1054;
var viewHeight = 225;
var sectionId = 'dynsection-0';
</script>
<script type="application/ecmascript" xlink:href="svg.min.js"/>
<svg id="graph" class="graph">
<g id="viewport">
<title>unilink/diagnostics/error_handler.cc</title>
<!-- Node1 -->
<g id="Node000001" class="node">
<title>Node1</title>
<g id="a_Node000001"><a xlink:title=" ">
<polygon fill="#999999" stroke="#666666" points="935.5,-217 827.5,-217 827.5,-187 935.5,-187 935.5,-217"/>
<text text-anchor="start" x="835.5" y="-205" font-family="Helvetica,sans-Serif" font-size="10.00">unilink/diagnostics</text>
<text text-anchor="middle" x="881.5" y="-194" font-family="Helvetica,sans-Serif" font-size="10.00">/error_handler.cc</text>
</a>
</g>
</g>
<!-- Node2 -->
<g id="Node000002" class="node">
<title>Node2</title>
<g id="a_Node000002"><a xlink:href="error__handler_8hpp.html" target="_top" xlink:title=" ">
<polygon fill="white" stroke="#666666" points="581.5,-151 473.5,-151 473.5,-121 581.5,-121 581.5,-151"/>
<text text-anchor="start" x="481.5" y="-139" font-family="Helvetica,sans-Serif" font-size="10.00">unilink/diagnostics</text>
<text text-anchor="middle" x="527.5" y="-128" font-family="Helvetica,sans-Serif" font-size="10.00">/error_handler.hpp</text>
</a>
</g>
</g>
<!-- Node1&#45;&gt;Node2 -->
<g id="edge1_Node000001_Node000002" class="edge">
<title>Node1&#45;&gt;Node2</title>
<g id="a_edge1_Node000001_Node000002"><a xlink:title=" ">
<path fill="none" stroke="#63b8ff" d="M827.35,-191.21C763.98,-179.75 659.14,-160.8 591.72,-148.61"/>
<polygon fill="#63b8ff" stroke="#63b8ff" points="592.11,-145.12 581.64,-146.79 590.86,-152.01 592.11,-145.12"/>
</a>
</g>
</g>
<!-- Node7 -->
<g id="Node000007" class="node">
<title>Node7</title>
<g id="a_Node000007"><a xlink:title=" ">
<polygon fill="#e0e0e0" stroke="#999999" points="73,-24.5 0,-24.5 0,-5.5 73,-5.5 73,-24.5"/>
<text text-anchor="middle" x="36.5" y="-12.5" font-family="Helvetica,sans-Serif" font-size="10.00">string_view</text>
</a>
</g>
</g>
<!-- Node1&#45;&gt;Node7 -->
<g id="edge24_Node000001_Node000007" class="edge">
<title>Node1&#45;&gt;Node7</title>
<g id="a_edge24_Node000001_Node000007"><a xlink:title=" ">
<path fill="none" stroke="#63b8ff" d="M827.34,-199.84C682.79,-196.33 290.43,-183.95 165.5,-151 99.76,-133.66 63.75,-142.52 27.5,-85 17.96,-69.87 22.47,-49.16 27.96,-34.38"/>
<polygon fill="#63b8ff" stroke="#63b8ff" points="31.32,-35.42 31.95,-24.84 24.87,-32.72 31.32,-35.42"/>
</a>
</g>
</g>
<!-- Node11 -->
<g id="Node000011" class="node">
<title>Node11</title>
<g id="a_Node000011"><a xlink:title=" ">
<polygon fill="#e0e0e0" stroke="#999999" points="873.5,-24.5 809.5,-24.5 809.5,-5.5 873.5,-5.5 873.5,-24.5"/>
<text text-anchor="middle" x="841.5" y="-12.5" font-family="Helvetica,sans-Serif" font-size="10.00">algorithm</text>
</a>
</g>
</g>
<!-- Node1&#45;&gt;Node11 -->
<g id="edge20_Node000001_Node000011" class="edge">
<title>Node1&#45;&gt;Node11</title>
<g id="a_edge20_Node000001_Node000011"><a xlink:title=" ">
<path fill="none" stroke="#63b8ff" d="M880.72,-186.96C879.07,-162.16 874.38,-109.13 862.5,-66 859.45,-54.93 854.55,-43.07 850.24,-33.68"/>
<polygon fill="#63b8ff" stroke="#63b8ff" points="853.38,-32.13 845.92,-24.61 847.06,-35.14 853.38,-32.13"/>
</a>
</g>
</g>
<!-- Node16 -->
<g id="Node000016" class="node">
<title>Node16</title>
<g id="a_Node000016"><a xlink:title=" ">
<polygon fill="#e0e0e0" stroke="#999999" points="947.5,-24.5 891.5,-24.5 891.5,-5.5 947.5,-5.5 947.5,-24.5"/>
<text text-anchor="middle" x="919.5" y="-12.5" font-family="Helvetica,sans-Serif" font-size="10.00">iomanip</text>
</a>
</g>
</g>
<!-- Node1&#45;&gt;Node16 -->
<g id="edge21_Node000001_Node000016" class="edge">
<title>Node1&#45;&gt;Node16</title>
<g id="a_edge21_Node000001_Node000016"><a xlink:title=" ">
<path fill="none" stroke="#63b8ff" d="M885.92,-186.65C888.88,-176.71 892.73,-163.13 895.5,-151 904.92,-109.76 912.82,-60.72 916.78,-34.59"/>
<polygon fill="#63b8ff" stroke="#63b8ff" points="920.26,-34.99 918.27,-24.59 913.33,-33.96 920.26,-34.99"/>
</a>
</g>
</g>
<!-- Node17 -->
<g id="Node000017" class="node">
<title>Node17</title>
<g id="a_Node000017"><a xlink:title=" ">
<polygon fill="#e0e0e0" stroke="#999999" points="1021.5,-24.5 965.5,-24.5 965.5,-5.5 1021.5,-5.5 1021.5,-24.5"/>
<text text-anchor="middle" x="993.5" y="-12.5" font-family="Helvetica,sans-Serif" font-size="10.00">sstream</text>
</a>
</g>
</g>
<!-- Node1&#45;&gt;Node17 -->
<g id="edge23_Node000001_Node000017" class="edge">
<title>Node1&#45;&gt;Node17</title>
<g id="a_edge23_Node000001_Node000017"><a xlink:title=" ">
<path fill="none" stroke="#63b8ff" d="M890.51,-186.59C896.73,-176.62 905.16,-163.03 912.5,-151 938.13,-108.98 967.79,-59.27 983.12,-33.48"/>
<polygon fill="#63b8ff" stroke="#63b8ff" points="986.33,-34.94 988.43,-24.56 980.31,-31.36 986.33,-34.94"/>
</a>
</g>
</g>
<!-- Node20 -->
<g id="Node000020" class="node">
<title>Node20</title>
<g id="a_Node000020"><a xlink:title=" ">
<polygon fill="#e0e0e0" stroke="#999999" points="1045.5,-145.5 985.5,-145.5 985.5,-126.5 1045.5,-126.5 1045.5,-145.5"/>
<text text-anchor="middle" x="1015.5" y="-133.5" font-family="Helvetica,sans-Serif" font-size="10.00">iostream</text>
</a>
</g>
</g>
<!-- Node1&#45;&gt;Node20 -->
<g id="edge22_Node000001_Node000020" class="edge">
<title>Node1&#45;&gt;Node20</title>
<g id="a_edge22_Node000001_Node000020"><a xlink:title=" ">
<path fill="none" stroke="#63b8ff" d="M910.91,-186.95C933.99,-175.93 965.88,-160.7 988.36,-149.96"/>
<polygon fill="#63b8ff" stroke="#63b8ff" points="990.15,-152.99 997.67,-145.52 987.13,-146.67 990.15,-152.99"/>
</a>
</g>
</g>
<!-- Node21 -->
<g id="Node000021" class="node">
<title>Node21</title>
<g id="a_Node000021"><a xlink:href="logger_8hpp.html" target="_top" xlink:title=" ">
<polygon fill="white" stroke="#666666" points="282.5,-151 174.5,-151 174.5,-121 282.5,-121 282.5,-151"/>
<text text-anchor="start" x="182.5" y="-139" font-family="Helvetica,sans-Serif" font-size="10.00">unilink/diagnostics</text>
<text text-anchor="middle" x="228.5" y="-128" font-family="Helvetica,sans-Serif" font-size="10.00">/logger.hpp</text>
</a>
</g>
</g>
<!-- Node1&#45;&gt;Node21 -->
<g id="edge25_Node000001_Node000021" class="edge">
<title>Node1&#45;&gt;Node21</title>
<g id="a_edge25_Node000001_Node000021"><a xlink:title=" ">
<path fill="none" stroke="#63b8ff" d="M827.23,-195.68C707.59,-183.96 421.62,-155.93 293.05,-143.33"/>
<polygon fill="#63b8ff" stroke="#63b8ff" points="293.25,-139.83 282.96,-142.34 292.57,-146.8 293.25,-139.83"/>
</a>
</g>
</g>
<!-- Node3 -->
<g id="Node000003" class="node">
<title>Node3</title>
<g id="a_Node000003"><a xlink:title=" ">
<polygon fill="#e0e0e0" stroke="#999999" points="526.5,-85 476.5,-85 476.5,-66 526.5,-66 526.5,-85"/>
<text text-anchor="middle" x="501.5" y="-73" font-family="Helvetica,sans-Serif" font-size="10.00">atomic</text>
</a>
</g>
</g>
<!-- Node2&#45;&gt;Node3 -->
<g id="edge2_Node000002_Node000003" class="edge">
<title>Node2&#45;&gt;Node3</title>
<g id="a_edge2_Node000002_Node000003"><a xlink:title=" ">
<path fill="none" stroke="#63b8ff" d="M521.21,-120.84C517.7,-112.95 513.3,-103.05 509.55,-94.61"/>
<polygon fill="#63b8ff" stroke="#63b8ff" points="512.66,-92.98 505.4,-85.27 506.26,-95.83 512.66,-92.98"/>
</a>
</g>
</g>
<!-- Node4 -->
<g id="Node000004" class="node">
<title>Node4</title>
<g id="a_Node000004"><a xlink:title=" ">
<polygon fill="#e0e0e0" stroke="#999999" points="382,-85 317,-85 317,-66 382,-66 382,-85"/>
<text text-anchor="middle" x="349.5" y="-73" font-family="Helvetica,sans-Serif" font-size="10.00">functional</text>
</a>
</g>
</g>
<!-- Node2&#45;&gt;Node4 -->
<g id="edge3_Node000002_Node000004" class="edge">
<title>Node2&#45;&gt;Node4</title>
<g id="a_edge3_Node000002_Node000004"><a xlink:title=" ">
<path fill="none" stroke="#63b8ff" d="M484.86,-120.99C454.41,-110.98 413.91,-97.67 385.17,-88.22"/>
<polygon fill="#63b8ff" stroke="#63b8ff" points="386.12,-84.85 375.53,-85.05 383.93,-91.5 386.12,-84.85"/>
</a>
</g>
</g>
<!-- Node5 -->
<g id="Node000005" class="node">
<title>Node5</title>
<g id="a_Node000005"><a xlink:title=" ">
<polygon fill="#e0e0e0" stroke="#999999" points="458.5,-85 400.5,-85 400.5,-66 458.5,-66 458.5,-85"/>
<text text-anchor="middle" x="429.5" y="-73" font-family="Helvetica,sans-Serif" font-size="10.00">memory</text>
</a>
</g>
</g>
<!-- Node2&#45;&gt;Node5 -->
<g id="edge4_Node000002_Node000005" class="edge">
<title>Node2&#45;&gt;Node5</title>
<g id="a_edge4_Node000002_Node000005"><a xlink:title=" ">
<path fill="none" stroke="#63b8ff" d="M503.78,-120.84C488.3,-111.6 468.18,-99.59 452.79,-90.4"/>
<polygon fill="#63b8ff" stroke="#63b8ff" points="454.28,-87.21 443.9,-85.09 450.69,-93.23 454.28,-87.21"/>
</a>
</g>
</g>
<!-- Node6 -->
<g id="Node000006" class="node">
<title>Node6</title>
<g id="a_Node000006"><a xlink:title=" ">
<polygon fill="#e0e0e0" stroke="#999999" points="630.5,-85 582.5,-85 582.5,-66 630.5,-66 630.5,-85"/>
<text text-anchor="middle" x="606.5" y="-73" font-family="Helvetica,sans-Serif" font-size="10.00">mutex</text>
</a>
</g>
</g>
<!-- Node2&#45;&gt;Node6 -->
<g id="edge5_Node000002_Node000006" class="edge">
<title>Node2&#45;&gt;Node6</title>
<g id="a_edge5_Node000002_Node000006"><a xlink:title=" ">
<path fill="none" stroke="#63b8ff" d="M546.62,-120.84C558.68,-111.91 574.21,-100.41 586.44,-91.35"/>
<polygon fill="#63b8ff" stroke="#63b8ff" points="588.71,-94.03 594.66,-85.27 584.54,-88.4 588.71,-94.03"/>
</a>
</g>
</g>
<!-- Node2&#45;&gt;Node7 -->
<g id="edge6_Node000002_Node000007" class="edge">
<title>Node2&#45;&gt;Node7</title>
<g id="a_edge6_Node000002_Node000007"><a xlink:title=" ">
<path fill="none" stroke="#63b8ff" d="M534.75,-120.92C541.58,-105.45 548.93,-80.84 535.5,-66 520.41,-49.32 204.3,-26.97 83.17,-18.99"/>
<polygon fill="#63b8ff" stroke="#63b8ff" points="83.29,-15.49 73.09,-18.33 82.84,-22.48 83.29,-15.49"/>
</a>
</g>
</g>
<!-- Node8 -->
<g id="Node000008" class="node">
<title>Node8</title>
<g id="a_Node000008"><a xlink:title=" ">
<polygon fill="#e0e0e0" stroke="#999999" points="742,-85 649,-85 649,-66 742,-66 742,-85"/>
<text text-anchor="middle" x="695.5" y="-73" font-family="Helvetica,sans-Serif" font-size="10.00">unordered_map</text>
</a>
</g>
</g>
<!-- Node2&#45;&gt;Node8 -->
<g id="edge7_Node000002_Node000008" class="edge">
<title>Node2&#45;&gt;Node8</title>
<g id="a_edge7_Node000002_Node000008"><a xlink:title=" ">
<path fill="none" stroke="#63b8ff" d="M567.74,-120.99C596.27,-111.05 634.15,-97.86 661.23,-88.43"/>
<polygon fill="#63b8ff" stroke="#63b8ff" points="662.4,-91.73 670.69,-85.14 660.1,-85.12 662.4,-91.73"/>
</a>
</g>
</g>
<!-- Node9 -->
<g id="Node000009" class="node">
<title>Node9</title>
<g id="a_Node000009"><a xlink:title=" ">
<polygon fill="#e0e0e0" stroke="#999999" points="140,-85 93,-85 93,-66 140,-66 140,-85"/>
<text text-anchor="middle" x="116.5" y="-73" font-family="Helvetica,sans-Serif" font-size="10.00">vector</text>
</a>
</g>
</g>
<!-- Node2&#45;&gt;Node9 -->
<g id="edge8_Node000002_Node000009" class="edge">
<title>Node2&#45;&gt;Node9</title>
<g id="a_edge8_Node000002_Node000009"><a xlink:title=" ">
<path fill="none" stroke="#63b8ff" d="M473.34,-129.91C401.66,-122.72 271.25,-108.04 150.38,-84.94"/>
<polygon fill="#63b8ff" stroke="#63b8ff" points="150.7,-81.44 140.22,-82.97 149.37,-88.31 150.7,-81.44"/>
</a>
</g>
</g>
<!-- Node10 -->
<g id="Node000010" class="node">
<title>Node10</title>
<g id="a_Node000010"><a xlink:href="error__types_8hpp.html" target="_top" xlink:title=" ">
<polygon fill="white" stroke="#666666" points="853,-85 760,-85 760,-66 853,-66 853,-85"/>
<text text-anchor="middle" x="806.5" y="-73" font-family="Helvetica,sans-Serif" font-size="10.00">error_types.hpp</text>
</a>
</g>
</g>
<!-- Node2&#45;&gt;Node10 -->
<g id="edge9_Node000002_Node000010" class="edge">
<title>Node2&#45;&gt;Node10</title>
<g id="a_edge9_Node000002_Node000010"><a xlink:title=" ">
<path fill="none" stroke="#63b8ff" d="M581.62,-123.65C632.03,-113.08 706.6,-97.45 755.85,-87.12"/>
<polygon fill="#63b8ff" stroke="#63b8ff" points="756.59,-90.54 765.66,-85.06 755.15,-83.69 756.59,-90.54"/>
</a>
</g>
</g>
<!-- Node19 -->
<g id="Node000019" class="node">
<title>Node19</title>
<g id="a_Node000019"><a xlink:href="visibility_8hpp.html" target="_top" xlink:title=" ">
<polygon fill="white" stroke="#666666" points="298.5,-85 158.5,-85 158.5,-66 298.5,-66 298.5,-85"/>
<text text-anchor="middle" x="228.5" y="-73" font-family="Helvetica,sans-Serif" font-size="10.00">unilink/base/visibility.hpp</text>
</a>
</g>
</g>
<!-- Node2&#45;&gt;Node19 -->
<g id="edge19_Node000002_Node000019" class="edge">
<title>Node2&#45;&gt;Node19</title>
<g id="a_edge19_Node000002_Node000019"><a xlink:title=" ">
<path fill="none" stroke="#63b8ff" d="M473.35,-124.41C419.13,-113.8 336.17,-97.57 282.13,-86.99"/>
<polygon fill="#63b8ff" stroke="#63b8ff" points="282.54,-83.51 272.05,-85.02 281.2,-90.38 282.54,-83.51"/>
</a>
</g>
</g>
<!-- Node10&#45;&gt;Node7 -->
<g id="edge18_Node000010_Node000007" class="edge">
<title>Node10&#45;&gt;Node7</title>
<g id="a_edge18_Node000010_Node000007"><a xlink:title=" ">
<path fill="none" stroke="#63b8ff" d="M759.73,-67C756.95,-66.64 754.19,-66.3 751.5,-66 621.19,-51.4 220.82,-26.95 83.39,-18.76"/>
<polygon fill="#63b8ff" stroke="#63b8ff" points="83.38,-15.26 73.19,-18.16 82.97,-22.25 83.38,-15.26"/>
</a>
</g>
</g>
<!-- Node10&#45;&gt;Node11 -->
<g id="edge10_Node000010_Node000011" class="edge">
<title>Node10&#45;&gt;Node11</title>
<g id="a_edge10_Node000010_Node000011"><a xlink:title=" ">
<path fill="none" stroke="#63b8ff" d="M811.66,-65.87C816.73,-57.4 824.6,-44.24 830.99,-33.57"/>
<polygon fill="#63b8ff" stroke="#63b8ff" points="834.18,-35.05 836.31,-24.67 828.18,-31.45 834.18,-35.05"/>
</a>
</g>
</g>
<!-- Node12 -->
<g id="Node000012" class="node">
<title>Node12</title>
<g id="a_Node000012"><a xlink:title=" ">
<polygon fill="#e0e0e0" stroke="#999999" points="661,-30 552,-30 552,0 661,0 661,-30"/>
<text text-anchor="start" x="560" y="-18" font-family="Helvetica,sans-Serif" font-size="10.00">boost/system/error</text>
<text text-anchor="middle" x="606.5" y="-7" font-family="Helvetica,sans-Serif" font-size="10.00">_code.hpp</text>
</a>
</g>
</g>
<!-- Node10&#45;&gt;Node12 -->
<g id="edge11_Node000010_Node000012" class="edge">
<title>Node10&#45;&gt;Node12</title>
<g id="a_edge11_Node000010_Node000012"><a xlink:title=" ">
<path fill="none" stroke="#63b8ff" d="M777.42,-65.99C747.88,-57.35 701.34,-43.74 664.27,-32.9"/>
<polygon fill="#63b8ff" stroke="#63b8ff" points="665.16,-29.51 654.58,-30.06 663.2,-36.23 665.16,-29.51"/>
</a>
</g>
</g>
<!-- Node13 -->
<g id="Node000013" class="node">
<title>Node13</title>
<g id="a_Node000013"><a xlink:title=" ">
<polygon fill="#e0e0e0" stroke="#999999" points="486.5,-24.5 436.5,-24.5 436.5,-5.5 486.5,-5.5 486.5,-24.5"/>
<text text-anchor="middle" x="461.5" y="-12.5" font-family="Helvetica,sans-Serif" font-size="10.00">chrono</text>
</a>
</g>
</g>
<!-- Node10&#45;&gt;Node13 -->
<g id="edge12_Node000010_Node000013" class="edge">
<title>Node10&#45;&gt;Node13</title>
<g id="a_edge12_Node000010_Node000013"><a xlink:title=" ">
<path fill="none" stroke="#63b8ff" d="M759.94,-66.64C707.37,-57.77 619.29,-42.88 543.5,-30 528.15,-27.39 511.18,-24.5 496.68,-22.02"/>
<polygon fill="#63b8ff" stroke="#63b8ff" points="497.07,-18.53 486.62,-20.3 495.89,-25.43 497.07,-18.53"/>
</a>
</g>
</g>
<!-- Node14 -->
<g id="Node000014" class="node">
<title>Node14</title>
<g id="a_Node000014"><a xlink:title=" ">
<polygon fill="#e0e0e0" stroke="#999999" points="729.5,-24.5 679.5,-24.5 679.5,-5.5 729.5,-5.5 729.5,-24.5"/>
<text text-anchor="middle" x="704.5" y="-12.5" font-family="Helvetica,sans-Serif" font-size="10.00">cstdint</text>
</a>
</g>
</g>
<!-- Node10&#45;&gt;Node14 -->
<g id="edge13_Node000010_Node000014" class="edge">
<title>Node10&#45;&gt;Node14</title>
<g id="a_edge13_Node000010_Node000014"><a xlink:title=" ">
<path fill="none" stroke="#63b8ff" d="M791.45,-65.87C774.88,-56.36 748,-40.95 728.51,-29.77"/>
<polygon fill="#63b8ff" stroke="#63b8ff" points="730.03,-26.61 719.61,-24.67 726.55,-32.68 730.03,-26.61"/>
</a>
</g>
</g>
<!-- Node15 -->
<g id="Node000015" class="node">
<title>Node15</title>
<g id="a_Node000015"><a xlink:title=" ">
<polygon fill="#e0e0e0" stroke="#999999" points="791.5,-24.5 747.5,-24.5 747.5,-5.5 791.5,-5.5 791.5,-24.5"/>
<text text-anchor="middle" x="769.5" y="-12.5" font-family="Helvetica,sans-Serif" font-size="10.00">ctime</text>
</a>
</g>
</g>
<!-- Node10&#45;&gt;Node15 -->
<g id="edge14_Node000010_Node000015" class="edge">
<title>Node10&#45;&gt;Node15</title>
<g id="a_edge14_Node000010_Node000015"><a xlink:title=" ">
<path fill="none" stroke="#63b8ff" d="M801.04,-65.87C795.63,-57.31 787.19,-43.97 780.4,-33.24"/>
<polygon fill="#63b8ff" stroke="#63b8ff" points="783.29,-31.25 774.98,-24.67 777.37,-34.99 783.29,-31.25"/>
</a>
</g>
</g>
<!-- Node10&#45;&gt;Node16 -->
<g id="edge15_Node000010_Node000016" class="edge">
<title>Node10&#45;&gt;Node16</title>
<g id="a_edge15_Node000010_Node000016"><a xlink:title=" ">
<path fill="none" stroke="#63b8ff" d="M823.17,-65.87C841.78,-56.23 872.12,-40.53 893.78,-29.31"/>
<polygon fill="#63b8ff" stroke="#63b8ff" points="895.49,-32.37 902.76,-24.67 892.27,-26.16 895.49,-32.37"/>
</a>
</g>
</g>
<!-- Node10&#45;&gt;Node17 -->
<g id="edge16_Node000010_Node000017" class="edge">
<title>Node10&#45;&gt;Node17</title>
<g id="a_edge16_Node000010_Node000017"><a xlink:title=" ">
<path fill="none" stroke="#63b8ff" d="M837.74,-65.96C868.22,-57.45 915.83,-43.71 956.5,-30 958.35,-29.37 960.26,-28.72 962.17,-28.04"/>
<polygon fill="#63b8ff" stroke="#63b8ff" points="963.49,-31.28 971.68,-24.56 961.09,-24.71 963.49,-31.28"/>
</a>
</g>
</g>
<!-- Node18 -->
<g id="Node000018" class="node">
<title>Node18</title>
<g id="a_Node000018"><a xlink:title=" ">
<polygon fill="#e0e0e0" stroke="#999999" points="324.5,-24.5 280.5,-24.5 280.5,-5.5 324.5,-5.5 324.5,-24.5"/>
<text text-anchor="middle" x="302.5" y="-12.5" font-family="Helvetica,sans-Serif" font-size="10.00">string</text>
</a>
</g>
</g>
<!-- Node10&#45;&gt;Node18 -->
<g id="edge17_Node000010_Node000018" class="edge">
<title>Node10&#45;&gt;Node18</title>
<g id="a_edge17_Node000010_Node000018"><a xlink:title=" ">
<path fill="none" stroke="#63b8ff" d="M759.71,-67.13C756.93,-66.74 754.18,-66.36 751.5,-66 607.87,-46.93 571.49,-46.06 427.5,-30 395.98,-26.48 359.98,-22.45 334.74,-19.62"/>
<polygon fill="#63b8ff" stroke="#63b8ff" points="334.96,-16.12 324.63,-18.48 334.17,-23.08 334.96,-16.12"/>
</a>
</g>
</g>
<!-- Node21&#45;&gt;Node3 -->
<g id="edge26_Node000021_Node000003" class="edge">
<title>Node21&#45;&gt;Node3</title>
<g id="a_edge26_Node000021_Node000003"><a xlink:title=" ">
<path fill="none" stroke="#63b8ff" d="M282.74,-124.28C328.99,-114.99 397.49,-100.91 466.15,-85.24"/>
<polygon fill="#63b8ff" stroke="#63b8ff" points="467.31,-88.57 476.28,-82.92 465.75,-81.74 467.31,-88.57"/>
</a>
</g>
</g>
<!-- Node21&#45;&gt;Node4 -->
<g id="edge28_Node000021_Node000004" class="edge">
<title>Node21&#45;&gt;Node4</title>
<g id="a_edge28_Node000021_Node000004"><a xlink:title=" ">
<path fill="none" stroke="#63b8ff" d="M257.48,-120.99C277.22,-111.45 303.17,-98.9 322.47,-89.57"/>
<polygon fill="#63b8ff" stroke="#63b8ff" points="324.15,-92.64 331.63,-85.14 321.1,-86.34 324.15,-92.64"/>
</a>
</g>
</g>
<!-- Node21&#45;&gt;Node5 -->
<g id="edge29_Node000021_Node000005" class="edge">
<title>Node21&#45;&gt;Node5</title>
<g id="a_edge29_Node000021_Node000005"><a xlink:title=" ">
<path fill="none" stroke="#63b8ff" d="M276.64,-120.99C311.59,-110.82 358.25,-97.24 390.79,-87.77"/>
<polygon fill="#63b8ff" stroke="#63b8ff" points="391.78,-91.12 400.4,-84.97 389.82,-84.4 391.78,-91.12"/>
</a>
</g>
</g>
<!-- Node21&#45;&gt;Node7 -->
<g id="edge31_Node000021_Node000007" class="edge">
<title>Node21&#45;&gt;Node7</title>
<g id="a_edge31_Node000021_Node000007"><a xlink:title=" ">
<path fill="none" stroke="#63b8ff" d="M174.13,-127.98C124.14,-120.29 55.31,-106.17 38.5,-85 27.34,-70.95 28.55,-49.75 31.47,-34.55"/>
<polygon fill="#63b8ff" stroke="#63b8ff" points="34.9,-35.27 33.76,-24.74 28.08,-33.69 34.9,-35.27"/>
</a>
</g>
</g>
<!-- Node21&#45;&gt;Node9 -->
<g id="edge32_Node000021_Node000009" class="edge">
<title>Node21&#45;&gt;Node9</title>
<g id="a_edge32_Node000021_Node000009"><a xlink:title=" ">
<path fill="none" stroke="#63b8ff" d="M201.67,-120.99C183.65,-111.58 160.04,-99.24 142.25,-89.95"/>
<polygon fill="#63b8ff" stroke="#63b8ff" points="143.52,-86.67 133.04,-85.14 140.28,-92.87 143.52,-86.67"/>
</a>
</g>
</g>
<!-- Node21&#45;&gt;Node13 -->
<g id="edge27_Node000021_Node000013" class="edge">
<title>Node21&#45;&gt;Node13</title>
<g id="a_edge27_Node000021_Node000013"><a xlink:title=" ">
<path fill="none" stroke="#63b8ff" d="M174.1,-127.99C121.35,-119.03 53.36,-100.38 83.5,-66 89.15,-59.55 333.42,-30.77 426.23,-20.05"/>
<polygon fill="#63b8ff" stroke="#63b8ff" points="426.73,-23.51 436.26,-18.89 425.93,-16.56 426.73,-23.51"/>
</a>
</g>
</g>
<!-- Node21&#45;&gt;Node18 -->
<g id="edge30_Node000021_Node000018" class="edge">
<title>Node21&#45;&gt;Node18</title>
<g id="a_edge30_Node000021_Node000018"><a xlink:title=" ">
<path fill="none" stroke="#63b8ff" d="M174.43,-132.04C109.56,-126.47 13.85,-110.63 50.5,-66 77.94,-32.59 208.33,-21.11 270.01,-17.5"/>
<polygon fill="#63b8ff" stroke="#63b8ff" points="270.55,-20.98 280.35,-16.93 270.17,-13.99 270.55,-20.98"/>
</a>
</g>
</g>
<!-- Node21&#45;&gt;Node19 -->
<g id="edge33_Node000021_Node000019" class="edge">
<title>Node21&#45;&gt;Node19</title>
<g id="a_edge33_Node000021_Node000019"><a xlink:title=" ">
<path fill="none" stroke="#63b8ff" d="M228.5,-120.84C228.5,-113.21 228.5,-103.7 228.5,-95.45"/>
<polygon fill="#63b8ff" stroke="#63b8ff" points="232,-95.27 228.5,-85.27 225,-95.27 232,-95.27"/>
</a>
</g>
</g>
</g>
</svg>

<g id="navigator" transform="translate(0 0)" fill="#404254">
  <rect fill="#f2f5e9" fill-opacity="0.5" stroke="#606060" stroke-width=".5" x="0" y="0" width="60" height="60"/>
  <use id="zoomplus" xlink:href="#zoomPlus" x="17" y="9" onmousedown="handleZoom(evt,'in')"/>
  <use id="zoomminus" xlink:href="#zoomMin" x="42" y="9" onmousedown="handleZoom(evt,'out')"/>
  <use id="reset" xlink:href="#resetDef" x="30" y="36" onmousedown="handleReset()"/>
   <use id="arrowup" xlink:href="#arrowUp" x="0" y="0" onmousedown="handlePan(0,-1)"/>
  <use id="arrowright" xlink:href="#arrowRight" x="0" y="0" onmousedown="handlePan(1,0)"/>
  <use id="arrowdown" xlink:href="#arrowDown" x="0" y="0" onmousedown="handlePan(0,1)"/>
  <use id="arrowleft" xlink:href="#arrowLeft" x="0" y="0" onmousedown="handlePan(-1,0)"/>
</g>
<svg viewBox="0 0 15 15" width="100%" height="30px" preserveAspectRatio="xMaxYMin meet">
 <g id="arrow_out" transform="scale(0.3 0.3)">
  <a xlink:href="error__handler_8cc__incl_org.svg" target="_base">
   <rect id="button" ry="5" rx="5" y="6" x="6" height="38" width="38"
        fill="#f2f5e9" fill-opacity="0.5" stroke="#606060" stroke-width="1.0"/>
   <path id="arrow"
     d="M 11.500037,31.436501 C 11.940474,20.09759 22.043105,11.32322 32.158766,21.979434 L 37.068811,17.246167 C 37.068811,17.246167 37.088388,32 37.088388,32 L 22.160133,31.978069 C 22.160133,31.978069 26.997745,27.140456 26.997745,27.140456 C 18.528582,18.264221 13.291696,25.230495 11.500037,31.436501 z"
     style="fill:#404040;"/>
  </a>
 </g>
</svg>

<style type='text/css'>
<![CDATA[
[data-mouse-over-selected='false'] { opacity: 0.7; }
[data-mouse-over-selected='true']  { opacity: 1.0; }
]]>
</style>
<script type="application/ecmascript"><![CDATA[
document.addEventListener('DOMContentLoaded', (event) => {
  highlightEdges();
  highlightAdjacentNodes();
});
]]></script>
</svg>
