<?xml version="1.0" encoding="UTF-8" standalone="no"?>
<!DOCTYPE svg PUBLIC "-//W3C//DTD SVG 1.1//EN"
 "http://www.w3.org/Graphics/SVG/1.1/DTD/svg11.dtd">
<!-- Generated by graphviz version 2.43.0 (0)
 -->
<!-- Title: unilink/diagnostics/error_mapping.hpp Pages: 1 -->
<!--zoomable 346 -->

<svg id="main" version="1.1" xmlns="http://www.w3.org/2000/svg" xmlns:xlink="http://www.w3.org/1999/xlink" xml:space="preserve" onload="init(evt)">
<style type="text/css"><![CDATA[
.node, .edge {opacity: 0.7;}
.node.selected, .edge.selected {opacity: 1;}
.edge:hover path { stroke: red; }
.edge:hover polygon { stroke: red; fill: red; }
]]></style>

<defs>
  <circle id="rim" cx="0" cy="0" r="7"/>
  <circle id="rim2" cx="0" cy="0" r="3.5"/>
  <g id="zoomPlus">
    <use xlink:href="#rim" fill="#404040"><set attributeName="fill" to="#808080" begin="zoomplus.mouseover" end="zoomplus.mouseout"/></use>
    <path d="M-4,0h8M0,-4v8" fill="none" stroke="white" stroke-width="1.5" pointer-events="none"/>
  </g>
  <g id="zoomMin">
    <use xlink:href="#rim" fill="#404040"><set attributeName="fill" to="#808080" begin="zoomminus.mouseover" end="zoomminus.mouseout"/></use>
    <path d="M-4,0h8" fill="none" stroke="white" stroke-width="1.5" pointer-events="none"/>
  </g>
  <g id="arrowUp" transform="translate(30 24)">
    <use xlink:href="#rim"/>
    <path pointer-events="none" fill="none" stroke="white" stroke-width="1.5" d="M0,-3.0v7 M-2.5,-0.5L0,-3.0L2.5,-0.5"/>
  </g>
  <g id="arrowRight" transform="rotate(90) translate(36 -43)">
    <use xlink:href="#rim"/>
    <path pointer-events="none" fill="none" stroke="white" stroke-width="1.5" d="M0,-3.0v7 M-2.5,-0.5L0,-3.0L2.5,-0.5"/>
  </g>
  <g id="arrowDown" transform="rotate(180) translate(-30 -48)">
    <use xlink:href="#rim"/>
    <path pointer-events="none" fill="none" stroke="white" stroke-width="1.5" d="M0,-3.0v7 M-2.5,-0.5L0,-3.0L2.5,-0.5"/>
  </g>
  <g id="arrowLeft" transform="rotate(270) translate(-36 17)">
    <use xlink:href="#rim"/>
    <path pointer-events="none" fill="none" stroke="white" stroke-width="1.5" d="M0,-3.0v7 M-2.5,-0.5L0,-3.0L2.5,-0.5"/>
  </g>
  <g id="resetDef">
    <use xlink:href="#rim2" fill="#404040"><set attributeName="fill" to="#808080" begin="reset.mouseover" end="reset.mouseout"/></use>
  </g>
</defs>
<script type="application/ecmascript">
var viewWidth = 1818;
var viewHeight = 346;
var sectionId = 'dynsection-0';
</script>
<script type="application/ecmascript" xlink:href="svg.min.js"/>
<svg id="graph" class="graph">
<g id="viewport">
<title>unilink/diagnostics/error_mapping.hpp</title>
<!-- Node1 -->
<g id="Node000001" class="node">
<title>Node1</title>
<g id="a_Node000001"><a xlink:title=" ">
<polygon fill="#999999" stroke="#666666" points="359.5,-338 247.5,-338 247.5,-308 359.5,-308 359.5,-338"/>
<text text-anchor="start" x="255.5" y="-326" font-family="Helvetica,sans-Serif" font-size="10.00">unilink/diagnostics</text>
<text text-anchor="middle" x="303.5" y="-315" font-family="Helvetica,sans-Serif" font-size="10.00">/error_mapping.hpp</text>
</a>
</g>
</g>
<!-- Node2 -->
<g id="Node000002" class="node">
<title>Node2</title>
<g id="a_Node000002"><a xlink:title=" ">
<polygon fill="#e0e0e0" stroke="#999999" points="113,-272 0,-272 0,-253 113,-253 113,-272"/>
<text text-anchor="middle" x="56.5" y="-260" font-family="Helvetica,sans-Serif" font-size="10.00">boost/asio/error.hpp</text>
</a>
</g>
</g>
<!-- Node1&#45;&gt;Node2 -->
<g id="edge1_Node000001_Node000002" class="edge">
<title>Node1&#45;&gt;Node2</title>
<g id="a_edge1_Node000001_Node000002"><a xlink:title=" ">
<path fill="none" stroke="#63b8ff" d="M247.45,-308.73C203.53,-298.32 143.2,-284.03 102.18,-274.32"/>
<polygon fill="#63b8ff" stroke="#63b8ff" points="102.99,-270.91 92.45,-272.02 101.38,-277.73 102.99,-270.91"/>
</a>
</g>
</g>
<!-- Node3 -->
<g id="Node000003" class="node">
<title>Node3</title>
<g id="a_Node000003"><a xlink:title=" ">
<polygon fill="#e0e0e0" stroke="#999999" points="279,-151 170,-151 170,-121 279,-121 279,-151"/>
<text text-anchor="start" x="178" y="-139" font-family="Helvetica,sans-Serif" font-size="10.00">boost/system/error</text>
<text text-anchor="middle" x="224.5" y="-128" font-family="Helvetica,sans-Serif" font-size="10.00">_code.hpp</text>
</a>
</g>
</g>
<!-- Node1&#45;&gt;Node3 -->
<g id="edge2_Node000001_Node000003" class="edge">
<title>Node1&#45;&gt;Node3</title>
<g id="a_edge2_Node000001_Node000003"><a xlink:title=" ">
<path fill="none" stroke="#63b8ff" d="M293.56,-307.72C280.34,-288.11 257.07,-251.37 243.5,-217 236.38,-198.98 231.47,-177.59 228.43,-161.46"/>
<polygon fill="#63b8ff" stroke="#63b8ff" points="231.81,-160.48 226.62,-151.24 224.92,-161.7 231.81,-160.48"/>
</a>
</g>
</g>
<!-- Node4 -->
<g id="Node000004" class="node">
<title>Node4</title>
<g id="a_Node000004"><a xlink:title=" ">
<polygon fill="#e0e0e0" stroke="#999999" points="1725.5,-211.5 1669.5,-211.5 1669.5,-192.5 1725.5,-192.5 1725.5,-211.5"/>
<text text-anchor="middle" x="1697.5" y="-199.5" font-family="Helvetica,sans-Serif" font-size="10.00">optional</text>
</a>
</g>
</g>
<!-- Node1&#45;&gt;Node4 -->
<g id="edge3_Node000001_Node000004" class="edge">
<title>Node1&#45;&gt;Node4</title>
<g id="a_edge3_Node000001_Node000004"><a xlink:title=" ">
<path fill="none" stroke="#63b8ff" d="M359.81,-321.05C558.7,-317.46 1227.61,-303.3 1439.5,-272 1521.29,-259.92 1614.32,-231.19 1663.24,-214.87"/>
<polygon fill="#63b8ff" stroke="#63b8ff" points="1664.63,-218.09 1672.99,-211.58 1662.4,-211.46 1664.63,-218.09"/>
</a>
</g>
</g>
<!-- Node5 -->
<g id="Node000005" class="node">
<title>Node5</title>
<g id="a_Node000005"><a xlink:title=" ">
<polygon fill="#e0e0e0" stroke="#999999" points="487.5,-19 443.5,-19 443.5,0 487.5,0 487.5,-19"/>
<text text-anchor="middle" x="465.5" y="-7" font-family="Helvetica,sans-Serif" font-size="10.00">string</text>
</a>
</g>
</g>
<!-- Node1&#45;&gt;Node5 -->
<g id="edge4_Node000001_Node000005" class="edge">
<title>Node1&#45;&gt;Node5</title>
<g id="a_edge4_Node000001_Node000005"><a xlink:title=" ">
<path fill="none" stroke="#63b8ff" d="M252.24,-307.9C204.78,-291.36 141.5,-258.84 141.5,-203 141.5,-203 141.5,-203 141.5,-135 141.5,-72.87 351.73,-30.05 433.5,-15.75"/>
<polygon fill="#63b8ff" stroke="#63b8ff" points="434.22,-19.17 443.48,-14.03 433.04,-12.27 434.22,-19.17"/>
</a>
</g>
</g>
<!-- Node6 -->
<g id="Node000006" class="node">
<title>Node6</title>
<g id="a_Node000006"><a xlink:href="error__codes_8hpp.html" target="_top" xlink:title=" ">
<polygon fill="white" stroke="#666666" points="354.5,-217 252.5,-217 252.5,-187 354.5,-187 354.5,-217"/>
<text text-anchor="start" x="260.5" y="-205" font-family="Helvetica,sans-Serif" font-size="10.00">unilink/base/error</text>
<text text-anchor="middle" x="303.5" y="-194" font-family="Helvetica,sans-Serif" font-size="10.00">_codes.hpp</text>
</a>
</g>
</g>
<!-- Node1&#45;&gt;Node6 -->
<g id="edge5_Node000001_Node000006" class="edge">
<title>Node1&#45;&gt;Node6</title>
<g id="a_edge5_Node000001_Node000006"><a xlink:title=" ">
<path fill="none" stroke="#63b8ff" d="M303.5,-307.88C303.5,-288.02 303.5,-251.55 303.5,-227.29"/>
<polygon fill="#63b8ff" stroke="#63b8ff" points="307,-227.1 303.5,-217.1 300,-227.1 307,-227.1"/>
</a>
</g>
</g>
<!-- Node7 -->
<g id="Node000007" class="node">
<title>Node7</title>
<g id="a_Node000007"><a xlink:href="error__types_8hpp.html" target="_top" xlink:title=" ">
<polygon fill="white" stroke="#666666" points="585.5,-217 477.5,-217 477.5,-187 585.5,-187 585.5,-217"/>
<text text-anchor="start" x="485.5" y="-205" font-family="Helvetica,sans-Serif" font-size="10.00">unilink/diagnostics</text>
<text text-anchor="middle" x="531.5" y="-194" font-family="Helvetica,sans-Serif" font-size="10.00">/error_types.hpp</text>
</a>
</g>
</g>
<!-- Node1&#45;&gt;Node7 -->
<g id="edge7_Node000001_Node000007" class="edge">
<title>Node1&#45;&gt;Node7</title>
<g id="a_edge7_Node000001_Node000007"><a xlink:title=" ">
<path fill="none" stroke="#63b8ff" d="M330.55,-307.88C371.6,-286.46 449.69,-245.7 495.5,-221.79"/>
<polygon fill="#63b8ff" stroke="#63b8ff" points="497.24,-224.83 504.49,-217.1 494,-218.62 497.24,-224.83"/>
</a>
</g>
</g>
<!-- Node15 -->
<g id="Node000015" class="node">
<title>Node15</title>
<g id="a_Node000015"><a xlink:href="context_8hpp.html" target="_top" xlink:title=" ">
<polygon fill="white" stroke="#666666" points="1430,-272 1277,-272 1277,-253 1430,-253 1430,-272"/>
<text text-anchor="middle" x="1353.5" y="-260" font-family="Helvetica,sans-Serif" font-size="10.00">unilink/wrapper/context.hpp</text>
</a>
</g>
</g>
<!-- Node1&#45;&gt;Node15 -->
<g id="edge17_Node000001_Node000015" class="edge">
<title>Node1&#45;&gt;Node15</title>
<g id="a_edge17_Node000001_Node000015"><a xlink:title=" ">
<path fill="none" stroke="#63b8ff" d="M359.58,-318.88C532.48,-309.24 1058.16,-279.95 1266.81,-268.33"/>
<polygon fill="#63b8ff" stroke="#63b8ff" points="1267.02,-271.82 1276.81,-267.77 1266.63,-264.83 1267.02,-271.82"/>
</a>
</g>
</g>
<!-- Node6&#45;&gt;Node5 -->
<g id="edge6_Node000006_Node000005" class="edge">
<title>Node6&#45;&gt;Node5</title>
<g id="a_edge6_Node000006_Node000005"><a xlink:title=" ">
<path fill="none" stroke="#63b8ff" d="M301.9,-186.97C299.45,-158.41 298.15,-93.04 331.5,-55 357.09,-25.82 402.28,-15.71 433.04,-12.25"/>
<polygon fill="#63b8ff" stroke="#63b8ff" points="433.64,-15.7 443.27,-11.28 432.98,-8.74 433.64,-15.7"/>
</a>
</g>
</g>
<!-- Node7&#45;&gt;Node3 -->
<g id="edge9_Node000007_Node000003" class="edge">
<title>Node7&#45;&gt;Node3</title>
<g id="a_edge9_Node000007_Node000003"><a xlink:title=" ">
<path fill="none" stroke="#63b8ff" d="M477.32,-189.71C424.71,-178.74 344.81,-162.08 288.96,-150.44"/>
<polygon fill="#63b8ff" stroke="#63b8ff" points="289.67,-147.01 279.17,-148.4 288.25,-153.86 289.67,-147.01"/>
</a>
</g>
</g>
<!-- Node7&#45;&gt;Node5 -->
<g id="edge15_Node000007_Node000005" class="edge">
<title>Node7&#45;&gt;Node5</title>
<g id="a_edge15_Node000007_Node000005"><a xlink:title=" ">
<path fill="none" stroke="#63b8ff" d="M477.4,-194.43C450.12,-188.07 419.33,-175.57 402.5,-151 374.18,-109.65 421.13,-53.5 448.29,-26.42"/>
<polygon fill="#63b8ff" stroke="#63b8ff" points="450.91,-28.75 455.67,-19.29 446.05,-23.72 450.91,-28.75"/>
</a>
</g>
</g>
<!-- Node8 -->
<g id="Node000008" class="node">
<title>Node8</title>
<g id="a_Node000008"><a xlink:title=" ">
<polygon fill="#e0e0e0" stroke="#999999" points="475.5,-145.5 411.5,-145.5 411.5,-126.5 475.5,-126.5 475.5,-145.5"/>
<text text-anchor="middle" x="443.5" y="-133.5" font-family="Helvetica,sans-Serif" font-size="10.00">algorithm</text>
</a>
</g>
</g>
<!-- Node7&#45;&gt;Node8 -->
<g id="edge8_Node000007_Node000008" class="edge">
<title>Node7&#45;&gt;Node8</title>
<g id="a_edge8_Node000007_Node000008"><a xlink:title=" ">
<path fill="none" stroke="#63b8ff" d="M511.97,-186.8C497.63,-176.37 478.2,-162.24 463.71,-151.69"/>
<polygon fill="#63b8ff" stroke="#63b8ff" points="465.55,-148.71 455.41,-145.66 461.43,-154.37 465.55,-148.71"/>
</a>
</g>
</g>
<!-- Node9 -->
<g id="Node000009" class="node">
<title>Node9</title>
<g id="a_Node000009"><a xlink:title=" ">
<polygon fill="#e0e0e0" stroke="#999999" points="649.5,-19 599.5,-19 599.5,0 649.5,0 649.5,-19"/>
<text text-anchor="middle" x="624.5" y="-7" font-family="Helvetica,sans-Serif" font-size="10.00">chrono</text>
</a>
</g>
</g>
<!-- Node7&#45;&gt;Node9 -->
<g id="edge10_Node000007_Node000009" class="edge">
<title>Node7&#45;&gt;Node9</title>
<g id="a_edge10_Node000007_Node000009"><a xlink:title=" ">
<path fill="none" stroke="#63b8ff" d="M526.11,-186.99C516.36,-159.05 499.25,-95.58 527.5,-55 541.76,-34.52 567.86,-23.27 589.4,-17.21"/>
<polygon fill="#63b8ff" stroke="#63b8ff" points="590.39,-20.57 599.22,-14.71 588.66,-13.79 590.39,-20.57"/>
</a>
</g>
</g>
<!-- Node10 -->
<g id="Node000010" class="node">
<title>Node10</title>
<g id="a_Node000010"><a xlink:title=" ">
<polygon fill="#e0e0e0" stroke="#999999" points="1573.5,-19 1523.5,-19 1523.5,0 1573.5,0 1573.5,-19"/>
<text text-anchor="middle" x="1548.5" y="-7" font-family="Helvetica,sans-Serif" font-size="10.00">cstdint</text>
</a>
</g>
</g>
<!-- Node7&#45;&gt;Node10 -->
<g id="edge11_Node000007_Node000010" class="edge">
<title>Node7&#45;&gt;Node10</title>
<g id="a_edge11_Node000007_Node000010"><a xlink:title=" ">
<path fill="none" stroke="#63b8ff" d="M585.69,-199.08C788.25,-191.78 1490.31,-165.48 1508.5,-151 1545.45,-121.59 1549.81,-60.63 1549.44,-29.57"/>
<polygon fill="#63b8ff" stroke="#63b8ff" points="1552.93,-29.15 1549.13,-19.27 1545.93,-29.37 1552.93,-29.15"/>
</a>
</g>
</g>
<!-- Node11 -->
<g id="Node000011" class="node">
<title>Node11</title>
<g id="a_Node000011"><a xlink:title=" ">
<polygon fill="#e0e0e0" stroke="#999999" points="723.5,-145.5 679.5,-145.5 679.5,-126.5 723.5,-126.5 723.5,-145.5"/>
<text text-anchor="middle" x="701.5" y="-133.5" font-family="Helvetica,sans-Serif" font-size="10.00">ctime</text>
</a>
</g>
</g>
<!-- Node7&#45;&gt;Node11 -->
<g id="edge12_Node000007_Node000011" class="edge">
<title>Node7&#45;&gt;Node11</title>
<g id="a_edge12_Node000007_Node000011"><a xlink:title=" ">
<path fill="none" stroke="#63b8ff" d="M573.18,-186.97C600.96,-177.38 638.17,-164.09 670.5,-151 671.67,-150.53 672.86,-150.03 674.06,-149.53"/>
<polygon fill="#63b8ff" stroke="#63b8ff" points="675.47,-152.73 683.24,-145.53 672.68,-146.31 675.47,-152.73"/>
</a>
</g>
</g>
<!-- Node12 -->
<g id="Node000012" class="node">
<title>Node12</title>
<g id="a_Node000012"><a xlink:title=" ">
<polygon fill="#e0e0e0" stroke="#999999" points="587.5,-145.5 531.5,-145.5 531.5,-126.5 587.5,-126.5 587.5,-145.5"/>
<text text-anchor="middle" x="559.5" y="-133.5" font-family="Helvetica,sans-Serif" font-size="10.00">iomanip</text>
</a>
</g>
</g>
<!-- Node7&#45;&gt;Node12 -->
<g id="edge13_Node000007_Node000012" class="edge">
<title>Node7&#45;&gt;Node12</title>
<g id="a_edge13_Node000007_Node000012"><a xlink:title=" ">
<path fill="none" stroke="#63b8ff" d="M537.71,-186.8C541.78,-177.5 547.13,-165.27 551.51,-155.26"/>
<polygon fill="#63b8ff" stroke="#63b8ff" points="554.83,-156.41 555.63,-145.84 548.42,-153.6 554.83,-156.41"/>
</a>
</g>
</g>
<!-- Node13 -->
<g id="Node000013" class="node">
<title>Node13</title>
<g id="a_Node000013"><a xlink:title=" ">
<polygon fill="#e0e0e0" stroke="#999999" points="661.5,-145.5 605.5,-145.5 605.5,-126.5 661.5,-126.5 661.5,-145.5"/>
<text text-anchor="middle" x="633.5" y="-133.5" font-family="Helvetica,sans-Serif" font-size="10.00">sstream</text>
</a>
</g>
</g>
<!-- Node7&#45;&gt;Node13 -->
<g id="edge14_Node000007_Node000013" class="edge">
<title>Node7&#45;&gt;Node13</title>
<g id="a_edge14_Node000007_Node000013"><a xlink:title=" ">
<path fill="none" stroke="#63b8ff" d="M553.88,-186.95C570.91,-176.27 594.21,-161.65 611.21,-150.98"/>
<polygon fill="#63b8ff" stroke="#63b8ff" points="613.32,-153.8 619.93,-145.52 609.59,-147.87 613.32,-153.8"/>
</a>
</g>
</g>
<!-- Node14 -->
<g id="Node000014" class="node">
<title>Node14</title>
<g id="a_Node000014"><a xlink:title=" ">
<polygon fill="#e0e0e0" stroke="#999999" points="1145,-79.5 1072,-79.5 1072,-60.5 1145,-60.5 1145,-79.5"/>
<text text-anchor="middle" x="1108.5" y="-67.5" font-family="Helvetica,sans-Serif" font-size="10.00">string_view</text>
</a>
</g>
</g>
<!-- Node7&#45;&gt;Node14 -->
<g id="edge16_Node000007_Node000014" class="edge">
<title>Node7&#45;&gt;Node14</title>
<g id="a_edge16_Node000007_Node000014"><a xlink:title=" ">
<path fill="none" stroke="#63b8ff" d="M585.56,-198.49C687.36,-193.18 903.48,-178.91 972.5,-151 992.77,-142.8 993.04,-132.72 1011.5,-121 1033.77,-106.86 1060.5,-93.31 1080.26,-83.89"/>
<polygon fill="#63b8ff" stroke="#63b8ff" points="1081.79,-87.04 1089.35,-79.62 1078.81,-80.71 1081.79,-87.04"/>
</a>
</g>
</g>
<!-- Node15&#45;&gt;Node4 -->
<g id="edge18_Node000015_Node000004" class="edge">
<title>Node15&#45;&gt;Node4</title>
<g id="a_edge18_Node000015_Node000004"><a xlink:title=" ">
<path fill="none" stroke="#63b8ff" d="M1430.22,-253.96C1491.69,-247.02 1579.85,-235.04 1655.5,-217 1658.47,-216.29 1661.53,-215.47 1664.58,-214.58"/>
<polygon fill="#63b8ff" stroke="#63b8ff" points="1665.66,-217.91 1674.16,-211.59 1663.58,-211.22 1665.66,-217.91"/>
</a>
</g>
</g>
<!-- Node15&#45;&gt;Node5 -->
<g id="edge19_Node000015_Node000005" class="edge">
<title>Node15&#45;&gt;Node5</title>
<g id="a_edge19_Node000015_Node000005"><a xlink:title=" ">
<path fill="none" stroke="#63b8ff" d="M1276.79,-260.42C1075.51,-257.2 542.63,-246.02 468.5,-217 425.9,-200.32 408.88,-192.44 389.5,-151 383.85,-138.92 388.4,-134.29 389.5,-121 391.95,-91.36 384.51,-80.07 400.5,-55 409.02,-41.64 423.15,-31.26 436.06,-23.89"/>
<polygon fill="#63b8ff" stroke="#63b8ff" points="437.95,-26.85 445.14,-19.07 434.67,-20.67 437.95,-26.85"/>
</a>
</g>
</g>
<!-- Node15&#45;&gt;Node6 -->
<g id="edge56_Node000015_Node000006" class="edge">
<title>Node15&#45;&gt;Node6</title>
<g id="a_edge56_Node000015_Node000006"><a xlink:title=" ">
<path fill="none" stroke="#63b8ff" d="M1276.92,-259.7C1077.19,-254.72 543.78,-239.67 368.5,-217 367.24,-216.84 365.98,-216.66 364.7,-216.48"/>
<polygon fill="#63b8ff" stroke="#63b8ff" points="365.24,-213.02 354.81,-214.88 364.12,-219.93 365.24,-213.02"/>
</a>
</g>
</g>
<!-- Node15&#45;&gt;Node14 -->
<g id="edge20_Node000015_Node000014" class="edge">
<title>Node15&#45;&gt;Node14</title>
<g id="a_edge20_Node000015_Node000014"><a xlink:title=" ">
<path fill="none" stroke="#63b8ff" d="M1352.64,-252.69C1349.72,-227.92 1337.98,-157.15 1296.5,-121 1247.42,-78.22 1217.22,-102.48 1154.5,-85 1151.54,-84.17 1148.48,-83.3 1145.41,-82.4"/>
<polygon fill="#63b8ff" stroke="#63b8ff" points="1146.26,-79 1135.68,-79.5 1144.27,-85.71 1146.26,-79"/>
</a>
</g>
</g>
<!-- Node16 -->
<g id="Node000016" class="node">
<title>Node16</title>
<g id="a_Node000016"><a xlink:title=" ">
<polygon fill="#e0e0e0" stroke="#999999" points="1394,-19 1347,-19 1347,0 1394,0 1394,-19"/>
<text text-anchor="middle" x="1370.5" y="-7" font-family="Helvetica,sans-Serif" font-size="10.00">vector</text>
</a>
</g>
</g>
<!-- Node15&#45;&gt;Node16 -->
<g id="edge21_Node000015_Node000016" class="edge">
<title>Node15&#45;&gt;Node16</title>
<g id="a_edge21_Node000015_Node000016"><a xlink:title=" ">
<path fill="none" stroke="#63b8ff" d="M1377.07,-252.9C1413.13,-238.31 1480.73,-204.91 1508.5,-151 1537.86,-94.01 1450.18,-45.13 1401.16,-23.05"/>
<polygon fill="#63b8ff" stroke="#63b8ff" points="1402.48,-19.81 1391.92,-19 1399.67,-26.22 1402.48,-19.81"/>
</a>
</g>
</g>
<!-- Node17 -->
<g id="Node000017" class="node">
<title>Node17</title>
<g id="a_Node000017"><a xlink:href="common_8hpp.html" target="_top" xlink:title=" ">
<polygon fill="white" stroke="#666666" points="1139,-211.5 996,-211.5 996,-192.5 1139,-192.5 1139,-211.5"/>
<text text-anchor="middle" x="1067.5" y="-199.5" font-family="Helvetica,sans-Serif" font-size="10.00">unilink/base/common.hpp</text>
</a>
</g>
</g>
<!-- Node15&#45;&gt;Node17 -->
<g id="edge22_Node000015_Node000017" class="edge">
<title>Node15&#45;&gt;Node17</title>
<g id="a_edge22_Node000015_Node000017"><a xlink:title=" ">
<path fill="none" stroke="#63b8ff" d="M1311.91,-252.99C1260.87,-242.55 1174.3,-224.85 1119.07,-213.55"/>
<polygon fill="#63b8ff" stroke="#63b8ff" points="1119.64,-210.09 1109.14,-211.52 1118.23,-216.95 1119.64,-210.09"/>
</a>
</g>
</g>
<!-- Node31 -->
<g id="Node000031" class="node">
<title>Node31</title>
<g id="a_Node000031"><a xlink:href="safe__data__buffer_8hpp.html" target="_top" xlink:title=" ">
<polygon fill="white" stroke="#666666" points="1499.5,-151 1381.5,-151 1381.5,-121 1499.5,-121 1499.5,-151"/>
<text text-anchor="start" x="1389.5" y="-139" font-family="Helvetica,sans-Serif" font-size="10.00">unilink/memory/safe</text>
<text text-anchor="middle" x="1440.5" y="-128" font-family="Helvetica,sans-Serif" font-size="10.00">_data_buffer.hpp</text>
</a>
</g>
</g>
<!-- Node15&#45;&gt;Node31 -->
<g id="edge57_Node000015_Node000031" class="edge">
<title>Node15&#45;&gt;Node31</title>
<g id="a_edge57_Node000015_Node000031"><a xlink:title=" ">
<path fill="none" stroke="#63b8ff" d="M1359.48,-252.94C1372.78,-233.91 1405.19,-187.53 1424.75,-159.54"/>
<polygon fill="#63b8ff" stroke="#63b8ff" points="1427.75,-161.36 1430.6,-151.16 1422.01,-157.35 1427.75,-161.36"/>
</a>
</g>
</g>
<!-- Node33 -->
<g id="Node000033" class="node">
<title>Node33</title>
<g id="a_Node000033"><a xlink:href="safe__span_8hpp.html" target="_top" xlink:title=" ">
<polygon fill="white" stroke="#666666" points="1749.5,-85 1631.5,-85 1631.5,-55 1749.5,-55 1749.5,-85"/>
<text text-anchor="start" x="1639.5" y="-73" font-family="Helvetica,sans-Serif" font-size="10.00">unilink/memory/safe</text>
<text text-anchor="middle" x="1690.5" y="-62" font-family="Helvetica,sans-Serif" font-size="10.00">_span.hpp</text>
</a>
</g>
</g>
<!-- Node15&#45;&gt;Node33 -->
<g id="edge71_Node000015_Node000033" class="edge">
<title>Node15&#45;&gt;Node33</title>
<g id="a_edge71_Node000015_Node000033"><a xlink:title=" ">
<path fill="none" stroke="#63b8ff" d="M1424.62,-252.95C1461.05,-246.56 1505.24,-235.59 1541.5,-217 1600.08,-186.97 1650.58,-125.98 1674.95,-93.14"/>
<polygon fill="#63b8ff" stroke="#63b8ff" points="1677.79,-95.19 1680.85,-85.05 1672.13,-91.07 1677.79,-95.19"/>
</a>
</g>
</g>
<!-- Node17&#45;&gt;Node5 -->
<g id="edge32_Node000017_Node000005" class="edge">
<title>Node17&#45;&gt;Node5</title>
<g id="a_edge32_Node000017_Node000005"><a xlink:title=" ">
<path fill="none" stroke="#63b8ff" d="M995.72,-200.44C932.26,-197.37 838.68,-186.44 765.5,-151 747.66,-142.36 749.98,-130.35 732.5,-121 674.34,-89.87 649.4,-110.37 588.5,-85 549.84,-68.89 509.04,-41.91 485.5,-25.22"/>
<polygon fill="#63b8ff" stroke="#63b8ff" points="487.24,-22.16 477.08,-19.16 483.15,-27.84 487.24,-22.16"/>
</a>
</g>
</g>
<!-- Node17&#45;&gt;Node9 -->
<g id="edge23_Node000017_Node000009" class="edge">
<title>Node17&#45;&gt;Node9</title>
<g id="a_edge23_Node000017_Node000009"><a xlink:title=" ">
<path fill="none" stroke="#63b8ff" d="M995.79,-196.72C941.04,-191.29 864.83,-178.96 803.5,-151 783.92,-142.07 784.97,-130.17 765.5,-121 696.81,-88.64 646.2,-144.08 598.5,-85 584.85,-68.09 598.1,-43.53 610.15,-27.3"/>
<polygon fill="#63b8ff" stroke="#63b8ff" points="613.07,-29.25 616.55,-19.24 607.59,-24.9 613.07,-29.25"/>
</a>
</g>
</g>
<!-- Node17&#45;&gt;Node10 -->
<g id="edge24_Node000017_Node000010" class="edge">
<title>Node17&#45;&gt;Node10</title>
<g id="a_edge24_Node000017_Node000010"><a xlink:title=" ">
<path fill="none" stroke="#63b8ff" d="M1139.22,-199.23C1273.17,-195.18 1550.49,-182.98 1579.5,-151 1611.01,-116.26 1579.62,-56.89 1560.65,-27.72"/>
<polygon fill="#63b8ff" stroke="#63b8ff" points="1563.3,-25.39 1554.8,-19.06 1557.5,-29.3 1563.3,-25.39"/>
</a>
</g>
</g>
<!-- Node17&#45;&gt;Node11 -->
<g id="edge26_Node000017_Node000011" class="edge">
<title>Node17&#45;&gt;Node11</title>
<g id="a_edge26_Node000017_Node000011"><a xlink:title=" ">
<path fill="none" stroke="#63b8ff" d="M995.76,-194.74C928.28,-187.77 824.84,-174.29 737.5,-151 735.2,-150.39 732.85,-149.68 730.51,-148.91"/>
<polygon fill="#63b8ff" stroke="#63b8ff" points="731.64,-145.59 721.04,-145.5 729.27,-152.18 731.64,-145.59"/>
</a>
</g>
</g>
<!-- Node17&#45;&gt;Node12 -->
<g id="edge28_Node000017_Node000012" class="edge">
<title>Node17&#45;&gt;Node12</title>
<g id="a_edge28_Node000017_Node000012"><a xlink:title=" ">
<path fill="none" stroke="#63b8ff" d="M995.93,-199.08C902.78,-195.3 735.49,-184.09 596.5,-151 593.99,-150.4 591.41,-149.68 588.85,-148.88"/>
<polygon fill="#63b8ff" stroke="#63b8ff" points="589.77,-145.49 579.18,-145.51 587.47,-152.1 589.77,-145.49"/>
</a>
</g>
</g>
<!-- Node17&#45;&gt;Node13 -->
<g id="edge30_Node000017_Node000013" class="edge">
<title>Node17&#45;&gt;Node13</title>
<g id="a_edge30_Node000017_Node000013"><a xlink:title=" ">
<path fill="none" stroke="#63b8ff" d="M995.93,-197.09C915.71,-191.53 782.25,-178.76 670.5,-151 668.05,-150.39 665.54,-149.67 663.04,-148.88"/>
<polygon fill="#63b8ff" stroke="#63b8ff" points="664.18,-145.57 653.58,-145.58 661.87,-152.18 664.18,-145.57"/>
</a>
</g>
</g>
<!-- Node17&#45;&gt;Node14 -->
<g id="edge33_Node000017_Node000014" class="edge">
<title>Node17&#45;&gt;Node14</title>
<g id="a_edge33_Node000017_Node000014"><a xlink:title=" ">
<path fill="none" stroke="#63b8ff" d="M1070.19,-192.47C1076.76,-171.63 1093.75,-117.77 1102.73,-89.28"/>
<polygon fill="#63b8ff" stroke="#63b8ff" points="1106.08,-90.32 1105.75,-79.73 1099.4,-88.22 1106.08,-90.32"/>
</a>
</g>
</g>
<!-- Node17&#45;&gt;Node16 -->
<g id="edge35_Node000017_Node000016" class="edge">
<title>Node17&#45;&gt;Node16</title>
<g id="a_edge35_Node000017_Node000016"><a xlink:title=" ">
<path fill="none" stroke="#63b8ff" d="M1136.28,-192.47C1194.26,-184.12 1271.65,-169.91 1296.5,-151 1337.53,-119.77 1358.11,-59.18 1366.22,-28.8"/>
<polygon fill="#63b8ff" stroke="#63b8ff" points="1369.61,-29.63 1368.65,-19.08 1362.82,-27.93 1369.61,-29.63"/>
</a>
</g>
</g>
<!-- Node18 -->
<g id="Node000018" class="node">
<title>Node18</title>
<g id="a_Node000018"><a xlink:title=" ">
<polygon fill="#e0e0e0" stroke="#999999" points="1209.5,-145.5 1159.5,-145.5 1159.5,-126.5 1209.5,-126.5 1209.5,-145.5"/>
<text text-anchor="middle" x="1184.5" y="-133.5" font-family="Helvetica,sans-Serif" font-size="10.00">cstring</text>
</a>
</g>
</g>
<!-- Node17&#45;&gt;Node18 -->
<g id="edge25_Node000017_Node000018" class="edge">
<title>Node17&#45;&gt;Node18</title>
<g id="a_edge25_Node000017_Node000018"><a xlink:title=" ">
<path fill="none" stroke="#63b8ff" d="M1083.28,-192.37C1102.91,-181.63 1136.64,-163.18 1159.73,-150.55"/>
<polygon fill="#63b8ff" stroke="#63b8ff" points="1161.5,-153.57 1168.6,-145.7 1158.14,-147.43 1161.5,-153.57"/>
</a>
</g>
</g>
<!-- Node19 -->
<g id="Node000019" class="node">
<title>Node19</title>
<g id="a_Node000019"><a xlink:title=" ">
<polygon fill="#e0e0e0" stroke="#999999" points="1228,-79.5 1163,-79.5 1163,-60.5 1228,-60.5 1228,-79.5"/>
<text text-anchor="middle" x="1195.5" y="-67.5" font-family="Helvetica,sans-Serif" font-size="10.00">functional</text>
</a>
</g>
</g>
<!-- Node17&#45;&gt;Node19 -->
<g id="edge27_Node000017_Node000019" class="edge">
<title>Node17&#45;&gt;Node19</title>
<g id="a_edge27_Node000017_Node000019"><a xlink:title=" ">
<path fill="none" stroke="#63b8ff" d="M1075.9,-192.47C1096.96,-171.08 1152.28,-114.9 1179.67,-87.08"/>
<polygon fill="#63b8ff" stroke="#63b8ff" points="1182.38,-89.31 1186.9,-79.73 1177.39,-84.4 1182.38,-89.31"/>
</a>
</g>
</g>
<!-- Node20 -->
<g id="Node000020" class="node">
<title>Node20</title>
<g id="a_Node000020"><a xlink:title=" ">
<polygon fill="#e0e0e0" stroke="#999999" points="1287.5,-145.5 1227.5,-145.5 1227.5,-126.5 1287.5,-126.5 1287.5,-145.5"/>
<text text-anchor="middle" x="1257.5" y="-133.5" font-family="Helvetica,sans-Serif" font-size="10.00">iostream</text>
</a>
</g>
</g>
<!-- Node17&#45;&gt;Node20 -->
<g id="edge29_Node000017_Node000020" class="edge">
<title>Node17&#45;&gt;Node20</title>
<g id="a_edge29_Node000017_Node000020"><a xlink:title=" ">
<path fill="none" stroke="#63b8ff" d="M1094.03,-192.44C1124.23,-182.64 1175.03,-166 1218.5,-151 1220.39,-150.35 1222.32,-149.67 1224.28,-148.99"/>
<polygon fill="#63b8ff" stroke="#63b8ff" points="1225.77,-152.17 1234.02,-145.53 1223.43,-145.58 1225.77,-152.17"/>
</a>
</g>
</g>
<!-- Node21 -->
<g id="Node000021" class="node">
<title>Node21</title>
<g id="a_Node000021"><a xlink:title=" ">
<polygon fill="#e0e0e0" stroke="#999999" points="1810,-19 1745,-19 1745,0 1810,0 1810,-19"/>
<text text-anchor="middle" x="1777.5" y="-7" font-family="Helvetica,sans-Serif" font-size="10.00">stdexcept</text>
</a>
</g>
</g>
<!-- Node17&#45;&gt;Node21 -->
<g id="edge31_Node000017_Node000021" class="edge">
<title>Node17&#45;&gt;Node21</title>
<g id="a_edge31_Node000017_Node000021"><a xlink:title=" ">
<path fill="none" stroke="#63b8ff" d="M1139.41,-200.09C1242.52,-197.47 1437.77,-187.6 1599.5,-151 1682.61,-132.19 1730.71,-154.86 1779.5,-85 1790.82,-68.8 1787.92,-45.41 1783.74,-29.17"/>
<polygon fill="#63b8ff" stroke="#63b8ff" points="1786.99,-27.85 1780.8,-19.26 1780.28,-29.84 1786.99,-27.85"/>
</a>
</g>
</g>
<!-- Node22 -->
<g id="Node000022" class="node">
<title>Node22</title>
<g id="a_Node000022"><a xlink:title=" ">
<polygon fill="#e0e0e0" stroke="#999999" points="1065,-145.5 1020,-145.5 1020,-126.5 1065,-126.5 1065,-145.5"/>
<text text-anchor="middle" x="1042.5" y="-133.5" font-family="Helvetica,sans-Serif" font-size="10.00">utility</text>
</a>
</g>
</g>
<!-- Node17&#45;&gt;Node22 -->
<g id="edge34_Node000017_Node000022" class="edge">
<title>Node17&#45;&gt;Node22</title>
<g id="a_edge34_Node000017_Node000022"><a xlink:title=" ">
<path fill="none" stroke="#63b8ff" d="M1064.13,-192.37C1060.46,-182.97 1054.48,-167.67 1049.74,-155.53"/>
<polygon fill="#63b8ff" stroke="#63b8ff" points="1052.88,-153.95 1045.98,-145.91 1046.36,-156.49 1052.88,-153.95"/>
</a>
</g>
</g>
<!-- Node23 -->
<g id="Node000023" class="node">
<title>Node23</title>
<g id="a_Node000023"><a xlink:href="platform_8hpp.html" target="_top" xlink:title=" ">
<polygon fill="white" stroke="#666666" points="749.5,-79.5 607.5,-79.5 607.5,-60.5 749.5,-60.5 749.5,-79.5"/>
<text text-anchor="middle" x="678.5" y="-67.5" font-family="Helvetica,sans-Serif" font-size="10.00">unilink/base/platform.hpp</text>
</a>
</g>
</g>
<!-- Node17&#45;&gt;Node23 -->
<g id="edge36_Node000017_Node000023" class="edge">
<title>Node17&#45;&gt;Node23</title>
<g id="a_edge36_Node000017_Node000023"><a xlink:title=" ">
<path fill="none" stroke="#63b8ff" d="M998.61,-192.43C953.88,-185.18 895.08,-172.45 846.5,-151 825.18,-141.59 824.01,-132.07 803.5,-121 774.81,-105.52 740.27,-92.06 714.78,-83.02"/>
<polygon fill="#63b8ff" stroke="#63b8ff" points="715.74,-79.65 705.14,-79.66 713.43,-86.26 715.74,-79.65"/>
</a>
</g>
</g>
<!-- Node25 -->
<g id="Node000025" class="node">
<title>Node25</title>
<g id="a_Node000025"><a xlink:href="logger_8hpp.html" target="_top" xlink:title=" ">
<polygon fill="white" stroke="#666666" points="963.5,-151 855.5,-151 855.5,-121 963.5,-121 963.5,-151"/>
<text text-anchor="start" x="863.5" y="-139" font-family="Helvetica,sans-Serif" font-size="10.00">unilink/diagnostics</text>
<text text-anchor="middle" x="909.5" y="-128" font-family="Helvetica,sans-Serif" font-size="10.00">/logger.hpp</text>
</a>
</g>
</g>
<!-- Node17&#45;&gt;Node25 -->
<g id="edge39_Node000017_Node000025" class="edge">
<title>Node17&#45;&gt;Node25</title>
<g id="a_edge39_Node000017_Node000025"><a xlink:title=" ">
<path fill="none" stroke="#63b8ff" d="M1046.19,-192.37C1022.63,-182.82 984.01,-167.18 953.82,-154.95"/>
<polygon fill="#63b8ff" stroke="#63b8ff" points="954.93,-151.63 944.35,-151.12 952.3,-158.11 954.93,-151.63"/>
</a>
</g>
</g>
<!-- Node23&#45;&gt;Node5 -->
<g id="edge37_Node000023_Node000005" class="edge">
<title>Node23&#45;&gt;Node5</title>
<g id="a_edge37_Node000023_Node000005"><a xlink:title=" ">
<path fill="none" stroke="#63b8ff" d="M647.53,-60.49C607.43,-49.48 537.89,-30.38 497.36,-19.25"/>
<polygon fill="#63b8ff" stroke="#63b8ff" points="498.29,-15.88 487.72,-16.6 496.44,-22.63 498.29,-15.88"/>
</a>
</g>
</g>
<!-- Node24 -->
<g id="Node000024" class="node">
<title>Node24</title>
<g id="a_Node000024"><a xlink:href="visibility_8hpp.html" target="_top" xlink:title=" ">
<polygon fill="white" stroke="#666666" points="1068.5,-19 990.5,-19 990.5,0 1068.5,0 1068.5,-19"/>
<text text-anchor="middle" x="1029.5" y="-7" font-family="Helvetica,sans-Serif" font-size="10.00">visibility.hpp</text>
</a>
</g>
</g>
<!-- Node23&#45;&gt;Node24 -->
<g id="edge38_Node000023_Node000024" class="edge">
<title>Node23&#45;&gt;Node24</title>
<g id="a_edge38_Node000023_Node000024"><a xlink:title=" ">
<path fill="none" stroke="#63b8ff" d="M731.35,-60.47C789.77,-51 886.94,-35.12 980.55,-19.15"/>
<polygon fill="#63b8ff" stroke="#63b8ff" points="981.21,-22.59 990.47,-17.45 980.03,-15.69 981.21,-22.59"/>
</a>
</g>
</g>
<!-- Node25&#45;&gt;Node5 -->
<g id="edge44_Node000025_Node000005" class="edge">
<title>Node25&#45;&gt;Node5</title>
<g id="a_edge44_Node000025_Node000005"><a xlink:title=" ">
<path fill="none" stroke="#63b8ff" d="M855.2,-128.6C779.1,-119.23 644.85,-101.14 598.5,-85 555.76,-70.12 510.78,-41.88 485.61,-24.76"/>
<polygon fill="#63b8ff" stroke="#63b8ff" points="487.5,-21.81 477.28,-19.01 483.52,-27.57 487.5,-21.81"/>
</a>
</g>
</g>
<!-- Node25&#45;&gt;Node9 -->
<g id="edge41_Node000025_Node000009" class="edge">
<title>Node25&#45;&gt;Node9</title>
<g id="a_edge41_Node000025_Node000009"><a xlink:title=" ">
<path fill="none" stroke="#63b8ff" d="M886.04,-120.99C856.85,-103.93 805.15,-74.94 758.5,-55 725.72,-40.99 686.94,-28.54 659.56,-20.39"/>
<polygon fill="#63b8ff" stroke="#63b8ff" points="660.24,-16.95 649.66,-17.49 658.27,-23.66 660.24,-16.95"/>
</a>
</g>
</g>
<!-- Node25&#45;&gt;Node14 -->
<g id="edge45_Node000025_Node000014" class="edge">
<title>Node25&#45;&gt;Node14</title>
<g id="a_edge45_Node000025_Node000014"><a xlink:title=" ">
<path fill="none" stroke="#63b8ff" d="M953.17,-120.95C988.84,-109.48 1038.66,-93.46 1072.17,-82.68"/>
<polygon fill="#63b8ff" stroke="#63b8ff" points="1073.57,-85.91 1082.02,-79.52 1071.43,-79.25 1073.57,-85.91"/>
</a>
</g>
</g>
<!-- Node25&#45;&gt;Node16 -->
<g id="edge46_Node000025_Node000016" class="edge">
<title>Node25&#45;&gt;Node16</title>
<g id="a_edge46_Node000025_Node000016"><a xlink:title=" ">
<path fill="none" stroke="#63b8ff" d="M938.89,-120.98C959.16,-111.19 986.64,-97.64 1010.5,-85 1034.42,-72.32 1037.89,-63.76 1063.5,-55 1158.97,-22.35 1279.11,-13.66 1336.7,-11.34"/>
<polygon fill="#63b8ff" stroke="#63b8ff" points="1336.83,-14.84 1346.7,-10.98 1336.58,-7.84 1336.83,-14.84"/>
</a>
</g>
</g>
<!-- Node25&#45;&gt;Node19 -->
<g id="edge42_Node000025_Node000019" class="edge">
<title>Node25&#45;&gt;Node19</title>
<g id="a_edge42_Node000025_Node000019"><a xlink:title=" ">
<path fill="none" stroke="#63b8ff" d="M963.98,-125.94C1013.94,-117.15 1089.77,-102.58 1154.5,-85 1157.13,-84.29 1159.84,-83.49 1162.55,-82.66"/>
<polygon fill="#63b8ff" stroke="#63b8ff" points="1163.81,-85.93 1172.24,-79.52 1161.65,-79.27 1163.81,-85.93"/>
</a>
</g>
</g>
<!-- Node25&#45;&gt;Node24 -->
<g id="edge55_Node000025_Node000024" class="edge">
<title>Node25&#45;&gt;Node24</title>
<g id="a_edge55_Node000025_Node000024"><a xlink:title=" ">
<path fill="none" stroke="#63b8ff" d="M937.84,-120.89C953.51,-112.1 972.57,-99.68 986.5,-85 1002.35,-68.29 1014.71,-44.68 1022.03,-28.54"/>
<polygon fill="#63b8ff" stroke="#63b8ff" points="1025.33,-29.73 1026.1,-19.17 1018.91,-26.95 1025.33,-29.73"/>
</a>
</g>
</g>
<!-- Node26 -->
<g id="Node000026" class="node">
<title>Node26</title>
<g id="a_Node000026"><a xlink:title=" ">
<polygon fill="#e0e0e0" stroke="#999999" points="820.5,-19 770.5,-19 770.5,0 820.5,0 820.5,-19"/>
<text text-anchor="middle" x="795.5" y="-7" font-family="Helvetica,sans-Serif" font-size="10.00">atomic</text>
</a>
</g>
</g>
<!-- Node25&#45;&gt;Node26 -->
<g id="edge40_Node000025_Node000026" class="edge">
<title>Node25&#45;&gt;Node26</title>
<g id="a_edge40_Node000025_Node000026"><a xlink:title=" ">
<path fill="none" stroke="#63b8ff" d="M896.42,-120.72C874.98,-97.31 832.51,-50.92 810.11,-26.46"/>
<polygon fill="#63b8ff" stroke="#63b8ff" points="812.68,-24.08 803.35,-19.07 807.52,-28.81 812.68,-24.08"/>
</a>
</g>
</g>
<!-- Node27 -->
<g id="Node000027" class="node">
<title>Node27</title>
<g id="a_Node000027"><a xlink:title=" ">
<polygon fill="#e0e0e0" stroke="#999999" points="1304.5,-79.5 1246.5,-79.5 1246.5,-60.5 1304.5,-60.5 1304.5,-79.5"/>
<text text-anchor="middle" x="1275.5" y="-67.5" font-family="Helvetica,sans-Serif" font-size="10.00">memory</text>
</a>
</g>
</g>
<!-- Node25&#45;&gt;Node27 -->
<g id="edge43_Node000025_Node000027" class="edge">
<title>Node25&#45;&gt;Node27</title>
<g id="a_edge43_Node000025_Node000027"><a xlink:title=" ">
<path fill="none" stroke="#63b8ff" d="M963.84,-127.33C1050.17,-115.05 1211.56,-91.68 1237.5,-85 1239.94,-84.37 1242.45,-83.64 1244.95,-82.86"/>
<polygon fill="#63b8ff" stroke="#63b8ff" points="1246.1,-86.16 1254.44,-79.62 1243.84,-79.54 1246.1,-86.16"/>
</a>
</g>
</g>
<!-- Node28 -->
<g id="Node000028" class="node">
<title>Node28</title>
<g id="a_Node000028"><a xlink:href="log__rotation_8hpp.html" target="_top" xlink:title=" ">
<polygon fill="white" stroke="#666666" points="977.5,-79.5 881.5,-79.5 881.5,-60.5 977.5,-60.5 977.5,-79.5"/>
<text text-anchor="middle" x="929.5" y="-67.5" font-family="Helvetica,sans-Serif" font-size="10.00">log_rotation.hpp</text>
</a>
</g>
</g>
<!-- Node25&#45;&gt;Node28 -->
<g id="edge47_Node000025_Node000028" class="edge">
<title>Node25&#45;&gt;Node28</title>
<g id="a_edge47_Node000025_Node000028"><a xlink:title=" ">
<path fill="none" stroke="#63b8ff" d="M913.94,-120.8C916.81,-111.6 920.58,-99.53 923.69,-89.58"/>
<polygon fill="#63b8ff" stroke="#63b8ff" points="927.09,-90.43 926.74,-79.84 920.41,-88.35 927.09,-90.43"/>
</a>
</g>
</g>
<!-- Node28&#45;&gt;Node5 -->
<g id="edge52_Node000028_Node000005" class="edge">
<title>Node28&#45;&gt;Node5</title>
<g id="a_edge52_Node000028_Node000005"><a xlink:title=" ">
<path fill="none" stroke="#63b8ff" d="M894.88,-60.46C885.99,-58.47 876.42,-56.5 867.5,-55 731.1,-32.12 566.62,-18.11 498.02,-12.86"/>
<polygon fill="#63b8ff" stroke="#63b8ff" points="498.08,-9.35 487.85,-12.09 497.55,-16.33 498.08,-9.35"/>
</a>
</g>
</g>
<!-- Node28&#45;&gt;Node9 -->
<g id="edge49_Node000028_Node000009" class="edge">
<title>Node28&#45;&gt;Node9</title>
<g id="a_edge49_Node000028_Node000009"><a xlink:title=" ">
<path fill="none" stroke="#63b8ff" d="M892.84,-60.46C884.52,-58.6 875.72,-56.68 867.5,-55 793.86,-39.95 707.17,-24.65 659.8,-16.5"/>
<polygon fill="#63b8ff" stroke="#63b8ff" points="660.2,-13.01 649.75,-14.77 659.02,-19.91 660.2,-13.01"/>
</a>
</g>
</g>
<!-- Node28&#45;&gt;Node16 -->
<g id="edge53_Node000028_Node000016" class="edge">
<title>Node28&#45;&gt;Node16</title>
<g id="a_edge53_Node000028_Node000016"><a xlink:title=" ">
<path fill="none" stroke="#63b8ff" d="M977.55,-62.18C994.02,-59.87 1012.56,-57.29 1029.5,-55 1141.96,-39.79 1275.42,-22.63 1336.69,-14.81"/>
<polygon fill="#63b8ff" stroke="#63b8ff" points="1337.45,-18.24 1346.93,-13.5 1336.56,-11.29 1337.45,-18.24"/>
</a>
</g>
</g>
<!-- Node28&#45;&gt;Node24 -->
<g id="edge54_Node000028_Node000024" class="edge">
<title>Node28&#45;&gt;Node24</title>
<g id="a_edge54_Node000028_Node000024"><a xlink:title=" ">
<path fill="none" stroke="#63b8ff" d="M944.26,-60.37C960.5,-50.86 986.85,-35.45 1005.96,-24.27"/>
<polygon fill="#63b8ff" stroke="#63b8ff" points="1007.82,-27.24 1014.68,-19.17 1004.29,-21.2 1007.82,-27.24"/>
</a>
</g>
</g>
<!-- Node28&#45;&gt;Node26 -->
<g id="edge48_Node000028_Node000026" class="edge">
<title>Node28&#45;&gt;Node26</title>
<g id="a_edge48_Node000028_Node000026"><a xlink:title=" ">
<path fill="none" stroke="#63b8ff" d="M910.02,-60.49C887.49,-50.66 850.19,-34.38 824.31,-23.08"/>
<polygon fill="#63b8ff" stroke="#63b8ff" points="825.57,-19.81 815.01,-19.02 822.77,-26.23 825.57,-19.81"/>
</a>
</g>
</g>
<!-- Node29 -->
<g id="Node000029" class="node">
<title>Node29</title>
<g id="a_Node000029"><a xlink:title=" ">
<polygon fill="#e0e0e0" stroke="#999999" points="906.5,-19 838.5,-19 838.5,0 906.5,0 906.5,-19"/>
<text text-anchor="middle" x="872.5" y="-7" font-family="Helvetica,sans-Serif" font-size="10.00">filesystem</text>
</a>
</g>
</g>
<!-- Node28&#45;&gt;Node29 -->
<g id="edge50_Node000028_Node000029" class="edge">
<title>Node28&#45;&gt;Node29</title>
<g id="a_edge50_Node000028_Node000029"><a xlink:title=" ">
<path fill="none" stroke="#63b8ff" d="M921.09,-60.37C912.42,-51.47 898.7,-37.39 888.04,-26.45"/>
<polygon fill="#63b8ff" stroke="#63b8ff" points="890.43,-23.89 880.95,-19.17 885.42,-28.77 890.43,-23.89"/>
</a>
</g>
</g>
<!-- Node30 -->
<g id="Node000030" class="node">
<title>Node30</title>
<g id="a_Node000030"><a xlink:title=" ">
<polygon fill="#e0e0e0" stroke="#999999" points="972.5,-19 924.5,-19 924.5,0 972.5,0 972.5,-19"/>
<text text-anchor="middle" x="948.5" y="-7" font-family="Helvetica,sans-Serif" font-size="10.00">mutex</text>
</a>
</g>
</g>
<!-- Node28&#45;&gt;Node30 -->
<g id="edge51_Node000028_Node000030" class="edge">
<title>Node28&#45;&gt;Node30</title>
<g id="a_edge51_Node000028_Node000030"><a xlink:title=" ">
<path fill="none" stroke="#63b8ff" d="M932.3,-60.37C935,-52.07 939.15,-39.28 942.58,-28.72"/>
<polygon fill="#63b8ff" stroke="#63b8ff" points="945.92,-29.76 945.68,-19.17 939.27,-27.6 945.92,-29.76"/>
</a>
</g>
</g>
<!-- Node31&#45;&gt;Node5 -->
<g id="edge62_Node000031_Node000005" class="edge">
<title>Node31&#45;&gt;Node5</title>
<g id="a_edge62_Node000031_Node000005"><a xlink:title=" ">
<path fill="none" stroke="#63b8ff" d="M1381.31,-129.08C1355.3,-126.52 1324.39,-123.54 1296.5,-121 1108.16,-103.85 1058.86,-117.19 872.5,-85 820.87,-76.08 809.81,-65.62 758.5,-55 664.5,-35.55 551.9,-20.82 497.73,-14.25"/>
<polygon fill="#63b8ff" stroke="#63b8ff" points="498.04,-10.77 487.7,-13.05 497.21,-17.72 498.04,-10.77"/>
</a>
</g>
</g>
<!-- Node31&#45;&gt;Node10 -->
<g id="edge58_Node000031_Node000010" class="edge">
<title>Node31&#45;&gt;Node10</title>
<g id="a_edge58_Node000031_Node000010"><a xlink:title=" ">
<path fill="none" stroke="#63b8ff" d="M1452.89,-120.72C1473.11,-97.41 1513.09,-51.33 1534.38,-26.78"/>
<polygon fill="#63b8ff" stroke="#63b8ff" points="1537.16,-28.92 1541.07,-19.07 1531.87,-24.33 1537.16,-28.92"/>
</a>
</g>
</g>
<!-- Node31&#45;&gt;Node14 -->
<g id="edge63_Node000031_Node000014" class="edge">
<title>Node31&#45;&gt;Node14</title>
<g id="a_edge63_Node000031_Node000014"><a xlink:title=" ">
<path fill="none" stroke="#63b8ff" d="M1381.16,-123.51C1376.54,-122.65 1371.94,-121.8 1367.5,-121 1273.02,-103.96 1247.95,-107.02 1154.5,-85 1151.15,-84.21 1147.68,-83.31 1144.23,-82.36"/>
<polygon fill="#63b8ff" stroke="#63b8ff" points="1145.19,-79 1134.61,-79.58 1143.25,-85.72 1145.19,-79"/>
</a>
</g>
</g>
<!-- Node31&#45;&gt;Node16 -->
<g id="edge65_Node000031_Node000016" class="edge">
<title>Node31&#45;&gt;Node16</title>
<g id="a_edge65_Node000031_Node000016"><a xlink:title=" ">
<path fill="none" stroke="#63b8ff" d="M1432.47,-120.72C1419.59,-97.81 1394.36,-52.93 1380.39,-28.09"/>
<polygon fill="#63b8ff" stroke="#63b8ff" points="1383.27,-26.07 1375.32,-19.07 1377.17,-29.5 1383.27,-26.07"/>
</a>
</g>
</g>
<!-- Node31&#45;&gt;Node19 -->
<g id="edge59_Node000031_Node000019" class="edge">
<title>Node31&#45;&gt;Node19</title>
<g id="a_edge59_Node000031_Node000019"><a xlink:title=" ">
<path fill="none" stroke="#63b8ff" d="M1381.1,-121.69C1340.45,-112.27 1285.44,-98.87 1237.5,-85 1235.05,-84.29 1232.52,-83.53 1229.98,-82.74"/>
<polygon fill="#63b8ff" stroke="#63b8ff" points="1230.86,-79.35 1220.27,-79.62 1228.72,-86.01 1230.86,-79.35"/>
</a>
</g>
</g>
<!-- Node31&#45;&gt;Node21 -->
<g id="edge61_Node000031_Node000021" class="edge">
<title>Node31&#45;&gt;Node21</title>
<g id="a_edge61_Node000031_Node000021"><a xlink:title=" ">
<path fill="none" stroke="#63b8ff" d="M1499.8,-133.27C1581.17,-129.67 1721.56,-118.63 1758.5,-85 1773.82,-71.06 1777.55,-46.64 1778.11,-29.57"/>
<polygon fill="#63b8ff" stroke="#63b8ff" points="1781.61,-29.15 1778.09,-19.15 1774.61,-29.16 1781.61,-29.15"/>
</a>
</g>
</g>
<!-- Node31&#45;&gt;Node24 -->
<g id="edge66_Node000031_Node000024" class="edge">
<title>Node31&#45;&gt;Node24</title>
<g id="a_edge66_Node000031_Node000024"><a xlink:title=" ">
<path fill="none" stroke="#63b8ff" d="M1423.23,-120.85C1399.87,-102.52 1356.2,-71.01 1313.5,-55 1234.98,-25.55 1137.17,-15.59 1079.23,-12.22"/>
<polygon fill="#63b8ff" stroke="#63b8ff" points="1079.06,-8.71 1068.89,-11.67 1078.69,-15.7 1079.06,-8.71"/>
</a>
</g>
</g>
<!-- Node31&#45;&gt;Node27 -->
<g id="edge60_Node000031_Node000027" class="edge">
<title>Node31&#45;&gt;Node27</title>
<g id="a_edge60_Node000031_Node000027"><a xlink:title=" ">
<path fill="none" stroke="#63b8ff" d="M1404.29,-120.95C1375.23,-109.68 1334.83,-94.01 1307.07,-83.25"/>
<polygon fill="#63b8ff" stroke="#63b8ff" points="1308.05,-79.87 1297.46,-79.52 1305.52,-86.4 1308.05,-79.87"/>
</a>
</g>
</g>
<!-- Node32 -->
<g id="Node000032" class="node">
<title>Node32</title>
<g id="a_Node000032"><a xlink:title=" ">
<polygon fill="#e0e0e0" stroke="#999999" points="1683,-19 1614,-19 1614,0 1683,0 1683,-19"/>
<text text-anchor="middle" x="1648.5" y="-7" font-family="Helvetica,sans-Serif" font-size="10.00">type_traits</text>
</a>
</g>
</g>
<!-- Node31&#45;&gt;Node32 -->
<g id="edge64_Node000031_Node000032" class="edge">
<title>Node31&#45;&gt;Node32</title>
<g id="a_edge64_Node000031_Node000032"><a xlink:title=" ">
<path fill="none" stroke="#63b8ff" d="M1463.96,-120.96C1504.09,-96.94 1585.44,-48.24 1625.36,-24.35"/>
<polygon fill="#63b8ff" stroke="#63b8ff" points="1627.33,-27.25 1634.12,-19.11 1623.74,-21.24 1627.33,-27.25"/>
</a>
</g>
</g>
<!-- Node31&#45;&gt;Node33 -->
<g id="edge67_Node000031_Node000033" class="edge">
<title>Node31&#45;&gt;Node33</title>
<g id="a_edge67_Node000031_Node000033"><a xlink:title=" ">
<path fill="none" stroke="#63b8ff" d="M1495.36,-120.95C1533.87,-111.1 1585.51,-97.88 1625.99,-87.51"/>
<polygon fill="#63b8ff" stroke="#63b8ff" points="1626.94,-90.88 1635.76,-85.01 1625.21,-84.1 1626.94,-90.88"/>
</a>
</g>
</g>
<!-- Node33&#45;&gt;Node10 -->
<g id="edge68_Node000033_Node000010" class="edge">
<title>Node33&#45;&gt;Node10</title>
<g id="a_edge68_Node000033_Node000010"><a xlink:title=" ">
<path fill="none" stroke="#63b8ff" d="M1656.49,-54.99C1632.9,-45.27 1601.76,-32.44 1578.98,-23.06"/>
<polygon fill="#63b8ff" stroke="#63b8ff" points="1580.05,-19.71 1569.47,-19.14 1577.38,-26.18 1580.05,-19.71"/>
</a>
</g>
</g>
<!-- Node33&#45;&gt;Node21 -->
<g id="edge69_Node000033_Node000021" class="edge">
<title>Node33&#45;&gt;Node21</title>
<g id="a_edge69_Node000033_Node000021"><a xlink:title=" ">
<path fill="none" stroke="#63b8ff" d="M1711.56,-54.84C1725.04,-45.77 1742.49,-34.04 1756.05,-24.92"/>
<polygon fill="#63b8ff" stroke="#63b8ff" points="1758.37,-27.58 1764.72,-19.09 1754.47,-21.77 1758.37,-27.58"/>
</a>
</g>
</g>
<!-- Node33&#45;&gt;Node32 -->
<g id="edge70_Node000033_Node000032" class="edge">
<title>Node33&#45;&gt;Node32</title>
<g id="a_edge70_Node000033_Node000032"><a xlink:title=" ">
<path fill="none" stroke="#63b8ff" d="M1680.33,-54.84C1674.42,-46.61 1666.94,-36.18 1660.71,-27.51"/>
<polygon fill="#63b8ff" stroke="#63b8ff" points="1663.47,-25.35 1654.79,-19.27 1657.78,-29.43 1663.47,-25.35"/>
</a>
</g>
</g>
</g>
</svg>

<g id="navigator" transform="translate(0 0)" fill="#404254">
  <rect fill="#f2f5e9" fill-opacity="0.5" stroke="#606060" stroke-width=".5" x="0" y="0" width="60" height="60"/>
  <use id="zoomplus" xlink:href="#zoomPlus" x="17" y="9" onmousedown="handleZoom(evt,'in')"/>
  <use id="zoomminus" xlink:href="#zoomMin" x="42" y="9" onmousedown="handleZoom(evt,'out')"/>
  <use id="reset" xlink:href="#resetDef" x="30" y="36" onmousedown="handleReset()"/>
   <use id="arrowup" xlink:href="#arrowUp" x="0" y="0" onmousedown="handlePan(0,-1)"/>
  <use id="arrowright" xlink:href="#arrowRight" x="0" y="0" onmousedown="handlePan(1,0)"/>
  <use id="arrowdown" xlink:href="#arrowDown" x="0" y="0" onmousedown="handlePan(0,1)"/>
  <use id="arrowleft" xlink:href="#arrowLeft" x="0" y="0" onmousedown="handlePan(-1,0)"/>
</g>
<svg viewBox="0 0 15 15" width="100%" height="30px" preserveAspectRatio="xMaxYMin meet">
 <g id="arrow_out" transform="scale(0.3 0.3)">
  <a xlink:href="error__mapping_8hpp__incl_org.svg" target="_base">
   <rect id="button" ry="5" rx="5" y="6" x="6" height="38" width="38"
        fill="#f2f5e9" fill-opacity="0.5" stroke="#606060" stroke-width="1.0"/>
   <path id="arrow"
     d="M 11.500037,31.436501 C 11.940474,20.09759 22.043105,11.32322 32.158766,21.979434 L 37.068811,17.246167 C 37.068811,17.246167 37.088388,32 37.088388,32 L 22.160133,31.978069 C 22.160133,31.978069 26.997745,27.140456 26.997745,27.140456 C 18.528582,18.264221 13.291696,25.230495 11.500037,31.436501 z"
     style="fill:#404040;"/>
  </a>
 </g>
</svg>

<style type='text/css'>
<![CDATA[
[data-mouse-over-selected='false'] { opacity: 0.7; }
[data-mouse-over-selected='true']  { opacity: 1.0; }
]]>
</style>
<script type="application/ecmascript"><![CDATA[
document.addEventListener('DOMContentLoaded', (event) => {
  highlightEdges();
  highlightAdjacentNodes();
});
]]></script>
</svg>
