<?xml version="1.0" encoding="UTF-8" standalone="no"?>
<!DOCTYPE svg PUBLIC "-//W3C//DTD SVG 1.1//EN"
 "http://www.w3.org/Graphics/SVG/1.1/DTD/svg11.dtd">
<!-- Generated by graphviz version 2.43.0 (0)
 -->
<!-- Title: unilink/diagnostics/exceptions.hpp Pages: 1 -->
<svg width="1772pt" height="324pt"
 viewBox="0.00 0.00 1771.50 324.00" xmlns="http://www.w3.org/2000/svg" xmlns:xlink="http://www.w3.org/1999/xlink">
<g id="graph0" class="graph" transform="scale(1 1) rotate(0) translate(4 320)">
<title>unilink/diagnostics/exceptions.hpp</title>
<!-- Node1 -->
<g id="Node000001" class="node">
<title>Node1</title>
<g id="a_Node000001"><a xlink:title=" ">
<polygon fill="#999999" stroke="#666666" points="972.5,-316 864.5,-316 864.5,-286 972.5,-286 972.5,-316"/>
<text text-anchor="start" x="872.5" y="-304" font-family="Helvetica,sans-Serif" font-size="10.00">unilink/diagnostics</text>
<text text-anchor="middle" x="918.5" y="-293" font-family="Helvetica,sans-Serif" font-size="10.00">/exceptions.hpp</text>
</a>
</g>
</g>
<!-- Node2 -->
<g id="Node000002" class="node">
<title>Node2</title>
<g id="a_Node000002"><a xlink:href="tcp__client__builder_8cc.html" target="_top" xlink:title=" ">
<polygon fill="white" stroke="#666666" points="786.5,-250 682.5,-250 682.5,-220 786.5,-220 786.5,-250"/>
<text text-anchor="start" x="690.5" y="-238" font-family="Helvetica,sans-Serif" font-size="10.00">unilink/builder/tcp</text>
<text text-anchor="middle" x="734.5" y="-227" font-family="Helvetica,sans-Serif" font-size="10.00">_client_builder.cc</text>
</a>
</g>
</g>
<!-- Node1&#45;&gt;Node2 -->
<g id="edge1_Node000001_Node000002" class="edge">
<title>Node1&#45;&gt;Node2</title>
<g id="a_edge1_Node000001_Node000002"><a xlink:title=" ">
<path fill="none" stroke="#63b8ff" d="M868.45,-282.59C839.03,-272.36 802.33,-259.59 774.79,-250.01"/>
<polygon fill="#63b8ff" stroke="#63b8ff" points="867.53,-285.98 878.12,-285.95 869.83,-279.36 867.53,-285.98"/>
</a>
</g>
</g>
<!-- Node3 -->
<g id="Node000003" class="node">
<title>Node3</title>
<g id="a_Node000003"><a xlink:href="tcp__server__builder_8cc.html" target="_top" xlink:title=" ">
<polygon fill="white" stroke="#666666" points="908.5,-250 804.5,-250 804.5,-220 908.5,-220 908.5,-250"/>
<text text-anchor="start" x="812.5" y="-238" font-family="Helvetica,sans-Serif" font-size="10.00">unilink/builder/tcp</text>
<text text-anchor="middle" x="856.5" y="-227" font-family="Helvetica,sans-Serif" font-size="10.00">_server_builder.cc</text>
</a>
</g>
</g>
<!-- Node1&#45;&gt;Node3 -->
<g id="edge2_Node000001_Node000003" class="edge">
<title>Node1&#45;&gt;Node3</title>
<g id="a_edge2_Node000001_Node000003"><a xlink:title=" ">
<path fill="none" stroke="#63b8ff" d="M897.54,-278.37C888.53,-269.06 878.24,-258.44 870.22,-250.16"/>
<polygon fill="#63b8ff" stroke="#63b8ff" points="895.27,-281.05 904.74,-285.8 900.3,-276.18 895.27,-281.05"/>
</a>
</g>
</g>
<!-- Node4 -->
<g id="Node000004" class="node">
<title>Node4</title>
<g id="a_Node000004"><a xlink:href="exceptions_8cc.html" target="_top" xlink:title=" ">
<polygon fill="white" stroke="#666666" points="1034.5,-250 926.5,-250 926.5,-220 1034.5,-220 1034.5,-250"/>
<text text-anchor="start" x="934.5" y="-238" font-family="Helvetica,sans-Serif" font-size="10.00">unilink/diagnostics</text>
<text text-anchor="middle" x="980.5" y="-227" font-family="Helvetica,sans-Serif" font-size="10.00">/exceptions.cc</text>
</a>
</g>
</g>
<!-- Node1&#45;&gt;Node4 -->
<g id="edge3_Node000001_Node000004" class="edge">
<title>Node1&#45;&gt;Node4</title>
<g id="a_edge3_Node000001_Node000004"><a xlink:title=" ">
<path fill="none" stroke="#63b8ff" d="M939.46,-278.37C948.47,-269.06 958.76,-258.44 966.78,-250.16"/>
<polygon fill="#63b8ff" stroke="#63b8ff" points="936.7,-276.18 932.26,-285.8 941.73,-281.05 936.7,-276.18"/>
</a>
</g>
</g>
<!-- Node5 -->
<g id="Node000005" class="node">
<title>Node5</title>
<g id="a_Node000005"><a xlink:href="input__validator_8hpp.html" target="_top" xlink:title=" ">
<polygon fill="white" stroke="#666666" points="1148.5,-250 1052.5,-250 1052.5,-220 1148.5,-220 1148.5,-250"/>
<text text-anchor="start" x="1060.5" y="-238" font-family="Helvetica,sans-Serif" font-size="10.00">unilink/util/input</text>
<text text-anchor="middle" x="1100.5" y="-227" font-family="Helvetica,sans-Serif" font-size="10.00">_validator.hpp</text>
</a>
</g>
</g>
<!-- Node1&#45;&gt;Node5 -->
<g id="edge4_Node000001_Node000005" class="edge">
<title>Node1&#45;&gt;Node5</title>
<g id="a_edge4_Node000001_Node000005"><a xlink:title=" ">
<path fill="none" stroke="#63b8ff" d="M968.01,-282.59C997.11,-272.36 1033.41,-259.59 1060.65,-250.01"/>
<polygon fill="#63b8ff" stroke="#63b8ff" points="966.71,-279.34 958.44,-285.95 969.04,-285.94 966.71,-279.34"/>
</a>
</g>
</g>
<!-- Node6 -->
<g id="Node000006" class="node">
<title>Node6</title>
<g id="a_Node000006"><a xlink:href="tcp__client__config_8hpp.html" target="_top" xlink:title=" ">
<polygon fill="white" stroke="#666666" points="484.5,-184 380.5,-184 380.5,-154 484.5,-154 484.5,-184"/>
<text text-anchor="start" x="388.5" y="-172" font-family="Helvetica,sans-Serif" font-size="10.00">unilink/config/tcp</text>
<text text-anchor="middle" x="432.5" y="-161" font-family="Helvetica,sans-Serif" font-size="10.00">_client_config.hpp</text>
</a>
</g>
</g>
<!-- Node5&#45;&gt;Node6 -->
<g id="edge5_Node000005_Node000006" class="edge">
<title>Node5&#45;&gt;Node6</title>
<g id="a_edge5_Node000005_Node000006"><a xlink:title=" ">
<path fill="none" stroke="#63b8ff" d="M1042.35,-219.99C830.68,-186.28 589.08,-175.02 484.74,-171.47"/>
<polygon fill="#63b8ff" stroke="#63b8ff" points="1041.98,-223.48 1052.41,-221.62 1043.09,-216.57 1041.98,-223.48"/>
</a>
</g>
</g>
<!-- Node20 -->
<g id="Node000020" class="node">
<title>Node20</title>
<g id="a_Node000020"><a xlink:href="tcp__server__config_8hpp.html" target="_top" xlink:title=" ">
<polygon fill="white" stroke="#666666" points="878.5,-184 770.5,-184 770.5,-154 878.5,-154 878.5,-184"/>
<text text-anchor="start" x="778.5" y="-172" font-family="Helvetica,sans-Serif" font-size="10.00">unilink/config/tcp</text>
<text text-anchor="middle" x="824.5" y="-161" font-family="Helvetica,sans-Serif" font-size="10.00">_server_config.hpp</text>
</a>
</g>
</g>
<!-- Node5&#45;&gt;Node20 -->
<g id="edge23_Node000005_Node000020" class="edge">
<title>Node5&#45;&gt;Node20</title>
<g id="a_edge23_Node000005_Node000020"><a xlink:title=" ">
<path fill="none" stroke="#63b8ff" d="M1042.42,-219.76C980.85,-205.22 920.66,-191.55 878.56,-182.08"/>
<polygon fill="#63b8ff" stroke="#63b8ff" points="1041.77,-223.21 1052.31,-222.11 1043.39,-216.4 1041.77,-223.21"/>
</a>
</g>
</g>
<!-- Node23 -->
<g id="Node000023" class="node">
<title>Node23</title>
<g id="a_Node000023"><a xlink:href="uds__config_8hpp.html" target="_top" xlink:title=" ">
<polygon fill="white" stroke="#666666" points="1348.5,-184 1246.5,-184 1246.5,-154 1348.5,-154 1348.5,-184"/>
<text text-anchor="start" x="1254.5" y="-172" font-family="Helvetica,sans-Serif" font-size="10.00">unilink/config/uds</text>
<text text-anchor="middle" x="1297.5" y="-161" font-family="Helvetica,sans-Serif" font-size="10.00">_config.hpp</text>
</a>
</g>
</g>
<!-- Node5&#45;&gt;Node23 -->
<g id="edge30_Node000005_Node000023" class="edge">
<title>Node5&#45;&gt;Node23</title>
<g id="a_edge30_Node000005_Node000023"><a xlink:title=" ">
<path fill="none" stroke="#63b8ff" d="M1153.27,-216.86C1184.9,-206.58 1224.62,-193.68 1254.37,-184.01"/>
<polygon fill="#63b8ff" stroke="#63b8ff" points="1152.16,-213.54 1143.73,-219.95 1154.32,-220.19 1152.16,-213.54"/>
</a>
</g>
</g>
<!-- Node29 -->
<g id="Node000029" class="node">
<title>Node29</title>
<g id="a_Node000029"><a xlink:href="input__validator_8cc.html" target="_top" xlink:title=" ">
<polygon fill="white" stroke="#666666" points="1462.5,-184 1366.5,-184 1366.5,-154 1462.5,-154 1462.5,-184"/>
<text text-anchor="start" x="1374.5" y="-172" font-family="Helvetica,sans-Serif" font-size="10.00">unilink/util/input</text>
<text text-anchor="middle" x="1414.5" y="-161" font-family="Helvetica,sans-Serif" font-size="10.00">_validator.cc</text>
</a>
</g>
</g>
<!-- Node5&#45;&gt;Node29 -->
<g id="edge43_Node000005_Node000029" class="edge">
<title>Node5&#45;&gt;Node29</title>
<g id="a_edge43_Node000005_Node000029"><a xlink:title=" ">
<path fill="none" stroke="#63b8ff" d="M1159.04,-223.45C1211.24,-213.84 1289.66,-198.92 1357.5,-184 1360.39,-183.37 1363.35,-182.69 1366.34,-182"/>
<polygon fill="#63b8ff" stroke="#63b8ff" points="1158.16,-220.05 1148.96,-225.3 1159.43,-226.94 1158.16,-220.05"/>
</a>
</g>
</g>
<!-- Node7 -->
<g id="Node000007" class="node">
<title>Node7</title>
<g id="a_Node000007"><a xlink:href="channel__factory_8hpp.html" target="_top" xlink:title=" ">
<polygon fill="white" stroke="#666666" points="946.5,-112.5 818.5,-112.5 818.5,-82.5 946.5,-82.5 946.5,-112.5"/>
<text text-anchor="start" x="826.5" y="-100.5" font-family="Helvetica,sans-Serif" font-size="10.00">unilink/factory/channel</text>
<text text-anchor="middle" x="882.5" y="-89.5" font-family="Helvetica,sans-Serif" font-size="10.00">_factory.hpp</text>
</a>
</g>
</g>
<!-- Node6&#45;&gt;Node7 -->
<g id="edge6_Node000006_Node000007" class="edge">
<title>Node6&#45;&gt;Node7</title>
<g id="a_edge6_Node000006_Node000007"><a xlink:title=" ">
<path fill="none" stroke="#63b8ff" d="M494.6,-158.41C579.76,-145.26 732,-121.74 818.26,-108.42"/>
<polygon fill="#63b8ff" stroke="#63b8ff" points="493.91,-154.97 484.56,-159.96 494.98,-161.89 493.91,-154.97"/>
</a>
</g>
</g>
<!-- Node10 -->
<g id="Node000010" class="node">
<title>Node10</title>
<g id="a_Node000010"><a xlink:href="wrapper_2tcp__client_2tcp__client_8cc.html" target="_top" xlink:title=" ">
<polygon fill="white" stroke="#666666" points="395,-35.5 282,-35.5 282,-5.5 395,-5.5 395,-35.5"/>
<text text-anchor="start" x="290" y="-23.5" font-family="Helvetica,sans-Serif" font-size="10.00">unilink/wrapper/tcp</text>
<text text-anchor="middle" x="338.5" y="-12.5" font-family="Helvetica,sans-Serif" font-size="10.00">_client/tcp_client.cc</text>
</a>
</g>
</g>
<!-- Node6&#45;&gt;Node10 -->
<g id="edge22_Node000006_Node000010" class="edge">
<title>Node6&#45;&gt;Node10</title>
<g id="a_edge22_Node000006_Node000010"><a xlink:title=" ">
<path fill="none" stroke="#63b8ff" d="M432.08,-143.74C430.71,-124.32 426.37,-97.09 413.5,-77 402.14,-59.27 382.98,-45.23 366.87,-35.71"/>
<polygon fill="#63b8ff" stroke="#63b8ff" points="428.6,-144.09 432.58,-153.9 435.59,-143.74 428.6,-144.09"/>
</a>
</g>
</g>
<!-- Node16 -->
<g id="Node000016" class="node">
<title>Node16</title>
<g id="a_Node000016"><a xlink:href="tcp__client_2detail_2reconnect__decider_8hpp.html" target="_top" xlink:title=" ">
<polygon fill="white" stroke="#666666" points="266,-118 135,-118 135,-77 266,-77 266,-118"/>
<text text-anchor="start" x="143" y="-106" font-family="Helvetica,sans-Serif" font-size="10.00">unilink/transport/tcp</text>
<text text-anchor="start" x="143" y="-95" font-family="Helvetica,sans-Serif" font-size="10.00">_client/detail/reconnect</text>
<text text-anchor="middle" x="200.5" y="-84" font-family="Helvetica,sans-Serif" font-size="10.00">_decider.hpp</text>
</a>
</g>
</g>
<!-- Node6&#45;&gt;Node16 -->
<g id="edge15_Node000006_Node000016" class="edge">
<title>Node6&#45;&gt;Node16</title>
<g id="a_edge15_Node000006_Node000016"><a xlink:title=" ">
<path fill="none" stroke="#63b8ff" d="M375.55,-150.94C342.36,-141 300.37,-128.42 265.84,-118.07"/>
<polygon fill="#63b8ff" stroke="#63b8ff" points="374.97,-154.42 385.55,-153.94 376.98,-147.71 374.97,-154.42"/>
</a>
</g>
</g>
<!-- Node19 -->
<g id="Node000019" class="node">
<title>Node19</title>
<g id="a_Node000019"><a xlink:href="transport_2tcp__client_2tcp__client_8hpp.html" target="_top" xlink:title=" ">
<polygon fill="white" stroke="#666666" points="404.5,-112.5 284.5,-112.5 284.5,-82.5 404.5,-82.5 404.5,-112.5"/>
<text text-anchor="start" x="292.5" y="-100.5" font-family="Helvetica,sans-Serif" font-size="10.00">unilink/transport/tcp</text>
<text text-anchor="middle" x="344.5" y="-89.5" font-family="Helvetica,sans-Serif" font-size="10.00">_client/tcp_client.hpp</text>
</a>
</g>
</g>
<!-- Node6&#45;&gt;Node19 -->
<g id="edge18_Node000006_Node000019" class="edge">
<title>Node6&#45;&gt;Node19</title>
<g id="a_edge18_Node000006_Node000019"><a xlink:title=" ">
<path fill="none" stroke="#63b8ff" d="M406.7,-147.63C392.42,-136.35 375.04,-122.62 362.28,-112.54"/>
<polygon fill="#63b8ff" stroke="#63b8ff" points="404.67,-150.48 414.69,-153.94 409.01,-144.99 404.67,-150.48"/>
</a>
</g>
</g>
<!-- Node8 -->
<g id="Node000008" class="node">
<title>Node8</title>
<g id="a_Node000008"><a xlink:href="channel__factory_8cc.html" target="_top" xlink:title=" ">
<polygon fill="white" stroke="#666666" points="946.5,-35.5 818.5,-35.5 818.5,-5.5 946.5,-5.5 946.5,-35.5"/>
<text text-anchor="start" x="826.5" y="-23.5" font-family="Helvetica,sans-Serif" font-size="10.00">unilink/factory/channel</text>
<text text-anchor="middle" x="882.5" y="-12.5" font-family="Helvetica,sans-Serif" font-size="10.00">_factory.cc</text>
</a>
</g>
</g>
<!-- Node7&#45;&gt;Node8 -->
<g id="edge7_Node000007_Node000008" class="edge">
<title>Node7&#45;&gt;Node8</title>
<g id="a_edge7_Node000007_Node000008"><a xlink:title=" ">
<path fill="none" stroke="#63b8ff" d="M882.5,-72.04C882.5,-59.95 882.5,-45.79 882.5,-35.54"/>
<polygon fill="#63b8ff" stroke="#63b8ff" points="879,-72.39 882.5,-82.39 886,-72.39 879,-72.39"/>
</a>
</g>
</g>
<!-- Node9 -->
<g id="Node000009" class="node">
<title>Node9</title>
<g id="a_Node000009"><a xlink:href="wrapper_2serial_2serial_8cc.html" target="_top" xlink:title=" ">
<polygon fill="white" stroke="#666666" points="1086.5,-35.5 964.5,-35.5 964.5,-5.5 1086.5,-5.5 1086.5,-35.5"/>
<text text-anchor="start" x="972.5" y="-23.5" font-family="Helvetica,sans-Serif" font-size="10.00">unilink/wrapper/serial</text>
<text text-anchor="middle" x="1025.5" y="-12.5" font-family="Helvetica,sans-Serif" font-size="10.00">/serial.cc</text>
</a>
</g>
</g>
<!-- Node7&#45;&gt;Node9 -->
<g id="edge8_Node000007_Node000009" class="edge">
<title>Node7&#45;&gt;Node9</title>
<g id="a_edge8_Node000007_Node000009"><a xlink:title=" ">
<path fill="none" stroke="#63b8ff" d="M918.54,-77.6C943.46,-64.53 976.09,-47.41 998.72,-35.54"/>
<polygon fill="#63b8ff" stroke="#63b8ff" points="916.63,-74.65 909.4,-82.39 919.88,-80.85 916.63,-74.65"/>
</a>
</g>
</g>
<!-- Node7&#45;&gt;Node10 -->
<g id="edge9_Node000007_Node000010" class="edge">
<title>Node7&#45;&gt;Node10</title>
<g id="a_edge9_Node000007_Node000010"><a xlink:title=" ">
<path fill="none" stroke="#63b8ff" d="M807.99,-88.22C678.32,-73.75 423.01,-45.02 403.5,-41 396.35,-39.52 388.84,-37.62 381.58,-35.58"/>
<polygon fill="#63b8ff" stroke="#63b8ff" points="807.92,-91.73 818.24,-89.36 808.69,-84.77 807.92,-91.73"/>
</a>
</g>
</g>
<!-- Node11 -->
<g id="Node000011" class="node">
<title>Node11</title>
<g id="a_Node000011"><a xlink:href="wrapper_2tcp__server_2tcp__server_8cc.html" target="_top" xlink:title=" ">
<polygon fill="white" stroke="#666666" points="669,-35.5 550,-35.5 550,-5.5 669,-5.5 669,-35.5"/>
<text text-anchor="start" x="558" y="-23.5" font-family="Helvetica,sans-Serif" font-size="10.00">unilink/wrapper/tcp</text>
<text text-anchor="middle" x="609.5" y="-12.5" font-family="Helvetica,sans-Serif" font-size="10.00">_server/tcp_server.cc</text>
</a>
</g>
</g>
<!-- Node7&#45;&gt;Node11 -->
<g id="edge10_Node000007_Node000011" class="edge">
<title>Node7&#45;&gt;Node11</title>
<g id="a_edge10_Node000007_Node000011"><a xlink:title=" ">
<path fill="none" stroke="#63b8ff" d="M820.01,-79.84C779.37,-68.94 725.24,-54.31 677.5,-41 671.23,-39.25 664.64,-37.39 658.14,-35.54"/>
<polygon fill="#63b8ff" stroke="#63b8ff" points="819.21,-83.25 829.77,-82.46 821.02,-76.49 819.21,-83.25"/>
</a>
</g>
</g>
<!-- Node12 -->
<g id="Node000012" class="node">
<title>Node12</title>
<g id="a_Node000012"><a xlink:href="wrapper_2udp_2udp_8cc.html" target="_top" xlink:title=" ">
<polygon fill="white" stroke="#666666" points="1218,-35.5 1105,-35.5 1105,-5.5 1218,-5.5 1218,-35.5"/>
<text text-anchor="start" x="1113" y="-23.5" font-family="Helvetica,sans-Serif" font-size="10.00">unilink/wrapper/udp</text>
<text text-anchor="middle" x="1161.5" y="-12.5" font-family="Helvetica,sans-Serif" font-size="10.00">/udp.cc</text>
</a>
</g>
</g>
<!-- Node7&#45;&gt;Node12 -->
<g id="edge11_Node000007_Node000012" class="edge">
<title>Node7&#45;&gt;Node12</title>
<g id="a_edge11_Node000007_Node000012"><a xlink:title=" ">
<path fill="none" stroke="#63b8ff" d="M948.55,-79.88C990.69,-69.13 1046.42,-54.64 1095.5,-41 1101.72,-39.27 1108.25,-37.41 1114.68,-35.54"/>
<polygon fill="#63b8ff" stroke="#63b8ff" points="947.52,-76.53 938.69,-82.39 949.25,-83.31 947.52,-76.53"/>
</a>
</g>
</g>
<!-- Node13 -->
<g id="Node000013" class="node">
<title>Node13</title>
<g id="a_Node000013"><a xlink:href="udp__server_8cc.html" target="_top" xlink:title=" ">
<polygon fill="white" stroke="#666666" points="800,-35.5 687,-35.5 687,-5.5 800,-5.5 800,-35.5"/>
<text text-anchor="start" x="695" y="-23.5" font-family="Helvetica,sans-Serif" font-size="10.00">unilink/wrapper/udp</text>
<text text-anchor="middle" x="743.5" y="-12.5" font-family="Helvetica,sans-Serif" font-size="10.00">/udp_server.cc</text>
</a>
</g>
</g>
<!-- Node7&#45;&gt;Node13 -->
<g id="edge12_Node000007_Node000013" class="edge">
<title>Node7&#45;&gt;Node13</title>
<g id="a_edge12_Node000007_Node000013"><a xlink:title=" ">
<path fill="none" stroke="#63b8ff" d="M847.47,-77.6C823.24,-64.53 791.53,-47.41 769.53,-35.54"/>
<polygon fill="#63b8ff" stroke="#63b8ff" points="845.89,-80.72 856.36,-82.39 849.22,-74.56 845.89,-80.72"/>
</a>
</g>
</g>
<!-- Node14 -->
<g id="Node000014" class="node">
<title>Node14</title>
<g id="a_Node000014"><a xlink:href="wrapper_2uds__client_2uds__client_8cc.html" target="_top" xlink:title=" ">
<polygon fill="white" stroke="#666666" points="1627,-35.5 1512,-35.5 1512,-5.5 1627,-5.5 1627,-35.5"/>
<text text-anchor="start" x="1520" y="-23.5" font-family="Helvetica,sans-Serif" font-size="10.00">unilink/wrapper/uds</text>
<text text-anchor="middle" x="1569.5" y="-12.5" font-family="Helvetica,sans-Serif" font-size="10.00">_client/uds_client.cc</text>
</a>
</g>
</g>
<!-- Node7&#45;&gt;Node14 -->
<g id="edge13_Node000007_Node000014" class="edge">
<title>Node7&#45;&gt;Node14</title>
<g id="a_edge13_Node000007_Node000014"><a xlink:title=" ">
<path fill="none" stroke="#63b8ff" d="M957,-91.7C1098.38,-82.28 1400.61,-60.6 1503.5,-41 1511.01,-39.57 1518.89,-37.64 1526.49,-35.54"/>
<polygon fill="#63b8ff" stroke="#63b8ff" points="956.45,-88.23 946.7,-92.38 956.91,-95.21 956.45,-88.23"/>
</a>
</g>
</g>
<!-- Node15 -->
<g id="Node000015" class="node">
<title>Node15</title>
<g id="a_Node000015"><a xlink:href="wrapper_2uds__server_2uds__server_8cc.html" target="_top" xlink:title=" ">
<polygon fill="white" stroke="#666666" points="1358.5,-35.5 1236.5,-35.5 1236.5,-5.5 1358.5,-5.5 1358.5,-35.5"/>
<text text-anchor="start" x="1244.5" y="-23.5" font-family="Helvetica,sans-Serif" font-size="10.00">unilink/wrapper/uds</text>
<text text-anchor="middle" x="1297.5" y="-12.5" font-family="Helvetica,sans-Serif" font-size="10.00">_server/uds_server.cc</text>
</a>
</g>
</g>
<!-- Node7&#45;&gt;Node15 -->
<g id="edge14_Node000007_Node000015" class="edge">
<title>Node7&#45;&gt;Node15</title>
<g id="a_edge14_Node000007_Node000015"><a xlink:title=" ">
<path fill="none" stroke="#63b8ff" d="M956.65,-86.9C1026.61,-77.28 1134.24,-61.05 1226.5,-41 1233.87,-39.4 1241.61,-37.5 1249.17,-35.52"/>
<polygon fill="#63b8ff" stroke="#63b8ff" points="956.04,-83.45 946.61,-88.27 956.99,-90.38 956.04,-83.45"/>
</a>
</g>
</g>
<!-- Node17 -->
<g id="Node000017" class="node">
<title>Node17</title>
<g id="a_Node000017"><a xlink:href="reconnect__logic_8hpp.html" target="_top" xlink:title=" ">
<polygon fill="white" stroke="#666666" points="131,-41 0,-41 0,0 131,0 131,-41"/>
<text text-anchor="start" x="8" y="-29" font-family="Helvetica,sans-Serif" font-size="10.00">unilink/transport/tcp</text>
<text text-anchor="start" x="8" y="-18" font-family="Helvetica,sans-Serif" font-size="10.00">_client/detail/reconnect</text>
<text text-anchor="middle" x="65.5" y="-7" font-family="Helvetica,sans-Serif" font-size="10.00">_logic.hpp</text>
</a>
</g>
</g>
<!-- Node16&#45;&gt;Node17 -->
<g id="edge16_Node000016_Node000017" class="edge">
<title>Node16&#45;&gt;Node17</title>
<g id="a_edge16_Node000016_Node000017"><a xlink:title=" ">
<path fill="none" stroke="#63b8ff" d="M156.25,-71.92C138.3,-61.95 117.85,-50.58 100.91,-41.17"/>
<polygon fill="#63b8ff" stroke="#63b8ff" points="154.94,-75.19 165.38,-76.99 158.34,-69.07 154.94,-75.19"/>
</a>
</g>
</g>
<!-- Node18 -->
<g id="Node000018" class="node">
<title>Node18</title>
<g id="a_Node000018"><a xlink:href="transport_2tcp__client_2tcp__client_8cc.html" target="_top" xlink:title=" ">
<polygon fill="white" stroke="#666666" points="264,-35.5 149,-35.5 149,-5.5 264,-5.5 264,-35.5"/>
<text text-anchor="start" x="157" y="-23.5" font-family="Helvetica,sans-Serif" font-size="10.00">unilink/transport/tcp</text>
<text text-anchor="middle" x="206.5" y="-12.5" font-family="Helvetica,sans-Serif" font-size="10.00">_client/tcp_client.cc</text>
</a>
</g>
</g>
<!-- Node16&#45;&gt;Node18 -->
<g id="edge17_Node000016_Node000018" class="edge">
<title>Node16&#45;&gt;Node18</title>
<g id="a_edge17_Node000016_Node000018"><a xlink:title=" ">
<path fill="none" stroke="#63b8ff" d="M202.89,-66.61C203.74,-56.01 204.65,-44.57 205.35,-35.86"/>
<polygon fill="#63b8ff" stroke="#63b8ff" points="199.39,-66.55 202.08,-76.79 206.36,-67.11 199.39,-66.55"/>
</a>
</g>
</g>
<!-- Node19&#45;&gt;Node8 -->
<g id="edge19_Node000019_Node000008" class="edge">
<title>Node19&#45;&gt;Node8</title>
<g id="a_edge19_Node000019_Node000008"><a xlink:title=" ">
<path fill="none" stroke="#63b8ff" d="M414.81,-89.3C525.35,-77.77 734.79,-55.05 808.5,-41 816.46,-39.48 824.83,-37.58 832.96,-35.56"/>
<polygon fill="#63b8ff" stroke="#63b8ff" points="414.34,-85.83 404.75,-90.34 415.06,-92.79 414.34,-85.83"/>
</a>
</g>
</g>
<!-- Node19&#45;&gt;Node10 -->
<g id="edge21_Node000019_Node000010" class="edge">
<title>Node19&#45;&gt;Node10</title>
<g id="a_edge21_Node000019_Node000010"><a xlink:title=" ">
<path fill="none" stroke="#63b8ff" d="M342.57,-72.41C341.6,-60.24 340.45,-45.9 339.62,-35.54"/>
<polygon fill="#63b8ff" stroke="#63b8ff" points="339.09,-72.7 343.37,-82.39 346.06,-72.15 339.09,-72.7"/>
</a>
</g>
</g>
<!-- Node19&#45;&gt;Node18 -->
<g id="edge20_Node000019_Node000018" class="edge">
<title>Node19&#45;&gt;Node18</title>
<g id="a_edge20_Node000019_Node000018"><a xlink:title=" ">
<path fill="none" stroke="#63b8ff" d="M309.72,-77.6C285.67,-64.53 254.18,-47.41 232.34,-35.54"/>
<polygon fill="#63b8ff" stroke="#63b8ff" points="308.09,-80.69 318.54,-82.39 311.43,-74.54 308.09,-80.69"/>
</a>
</g>
</g>
<!-- Node20&#45;&gt;Node7 -->
<g id="edge24_Node000020_Node000007" class="edge">
<title>Node20&#45;&gt;Node7</title>
<g id="a_edge24_Node000020_Node000007"><a xlink:title=" ">
<path fill="none" stroke="#63b8ff" d="M842.84,-146.03C851.98,-135.07 862.77,-122.15 870.78,-112.54"/>
<polygon fill="#63b8ff" stroke="#63b8ff" points="839.96,-144.02 836.24,-153.94 845.33,-148.5 839.96,-144.02"/>
</a>
</g>
</g>
<!-- Node20&#45;&gt;Node11 -->
<g id="edge29_Node000020_Node000011" class="edge">
<title>Node20&#45;&gt;Node11</title>
<g id="a_edge29_Node000020_Node000011"><a xlink:title=" ">
<path fill="none" stroke="#63b8ff" d="M798.98,-147.49C774.9,-128.46 737.52,-99.73 703.5,-77 680.97,-61.94 654.28,-46.39 635.11,-35.59"/>
<polygon fill="#63b8ff" stroke="#63b8ff" points="796.91,-150.32 806.91,-153.79 801.26,-144.83 796.91,-150.32"/>
</a>
</g>
</g>
<!-- Node21 -->
<g id="Node000021" class="node">
<title>Node21</title>
<g id="a_Node000021"><a xlink:href="transport_2tcp__server_2tcp__server_8hpp.html" target="_top" xlink:title=" ">
<polygon fill="white" stroke="#666666" points="695,-112.5 568,-112.5 568,-82.5 695,-82.5 695,-112.5"/>
<text text-anchor="start" x="576" y="-100.5" font-family="Helvetica,sans-Serif" font-size="10.00">unilink/transport/tcp</text>
<text text-anchor="middle" x="631.5" y="-89.5" font-family="Helvetica,sans-Serif" font-size="10.00">_server/tcp_server.hpp</text>
</a>
</g>
</g>
<!-- Node20&#45;&gt;Node21 -->
<g id="edge25_Node000020_Node000021" class="edge">
<title>Node20&#45;&gt;Node21</title>
<g id="a_edge25_Node000020_Node000021"><a xlink:title=" ">
<path fill="none" stroke="#63b8ff" d="M775.67,-150.42C743.09,-138.68 700.83,-123.47 670.5,-112.54"/>
<polygon fill="#63b8ff" stroke="#63b8ff" points="774.85,-153.84 785.44,-153.94 777.22,-147.25 774.85,-153.84"/>
</a>
</g>
</g>
<!-- Node21&#45;&gt;Node8 -->
<g id="edge26_Node000021_Node000008" class="edge">
<title>Node21&#45;&gt;Node8</title>
<g id="a_edge26_Node000021_Node000008"><a xlink:title=" ">
<path fill="none" stroke="#63b8ff" d="M688.19,-79.56C732.6,-66.29 793.64,-48.05 835.39,-35.58"/>
<polygon fill="#63b8ff" stroke="#63b8ff" points="687,-76.26 678.42,-82.48 689,-82.97 687,-76.26"/>
</a>
</g>
</g>
<!-- Node21&#45;&gt;Node11 -->
<g id="edge28_Node000021_Node000011" class="edge">
<title>Node21&#45;&gt;Node11</title>
<g id="a_edge28_Node000021_Node000011"><a xlink:title=" ">
<path fill="none" stroke="#63b8ff" d="M624.54,-72.78C620.95,-60.53 616.69,-46 613.62,-35.54"/>
<polygon fill="#63b8ff" stroke="#63b8ff" points="621.19,-73.78 627.36,-82.39 627.91,-71.81 621.19,-73.78"/>
</a>
</g>
</g>
<!-- Node22 -->
<g id="Node000022" class="node">
<title>Node22</title>
<g id="a_Node000022"><a xlink:href="transport_2tcp__server_2tcp__server_8cc.html" target="_top" xlink:title=" ">
<polygon fill="white" stroke="#666666" points="532,-35.5 413,-35.5 413,-5.5 532,-5.5 532,-35.5"/>
<text text-anchor="start" x="421" y="-23.5" font-family="Helvetica,sans-Serif" font-size="10.00">unilink/transport/tcp</text>
<text text-anchor="middle" x="472.5" y="-12.5" font-family="Helvetica,sans-Serif" font-size="10.00">_server/tcp_server.cc</text>
</a>
</g>
</g>
<!-- Node21&#45;&gt;Node22 -->
<g id="edge27_Node000021_Node000022" class="edge">
<title>Node21&#45;&gt;Node22</title>
<g id="a_edge27_Node000021_Node000022"><a xlink:title=" ">
<path fill="none" stroke="#63b8ff" d="M592.53,-78.12C564.68,-64.98 527.77,-47.57 502.27,-35.54"/>
<polygon fill="#63b8ff" stroke="#63b8ff" points="591.06,-81.29 601.59,-82.39 594.04,-74.96 591.06,-81.29"/>
</a>
</g>
</g>
<!-- Node23&#45;&gt;Node7 -->
<g id="edge31_Node000023_Node000007" class="edge">
<title>Node23&#45;&gt;Node7</title>
<g id="a_edge31_Node000023_Node000007"><a xlink:title=" ">
<path fill="none" stroke="#63b8ff" d="M1236.09,-157.71C1158.46,-144.72 1025.48,-122.44 946.6,-109.24"/>
<polygon fill="#63b8ff" stroke="#63b8ff" points="1235.76,-161.21 1246.2,-159.41 1236.91,-154.3 1235.76,-161.21"/>
</a>
</g>
</g>
<!-- Node23&#45;&gt;Node14 -->
<g id="edge42_Node000023_Node000014" class="edge">
<title>Node23&#45;&gt;Node14</title>
<g id="a_edge42_Node000023_Node000014"><a xlink:title=" ">
<path fill="none" stroke="#63b8ff" d="M1358.57,-153.95C1434.85,-139.53 1468.42,-163.88 1525.5,-118 1551.62,-97.01 1562.84,-57.09 1567.14,-35.77"/>
<polygon fill="#63b8ff" stroke="#63b8ff" points="1357.63,-150.57 1348.55,-156.02 1359.05,-157.43 1357.63,-150.57"/>
</a>
</g>
</g>
<!-- Node24 -->
<g id="Node000024" class="node">
<title>Node24</title>
<g id="a_Node000024"><a xlink:href="uds_2detail_2reconnect__decider_8hpp.html" target="_top" xlink:title=" ">
<polygon fill="white" stroke="#666666" points="1763.5,-112.5 1603.5,-112.5 1603.5,-82.5 1763.5,-82.5 1763.5,-112.5"/>
<text text-anchor="start" x="1611.5" y="-100.5" font-family="Helvetica,sans-Serif" font-size="10.00">unilink/transport/uds</text>
<text text-anchor="middle" x="1683.5" y="-89.5" font-family="Helvetica,sans-Serif" font-size="10.00">/detail/reconnect_decider.hpp</text>
</a>
</g>
</g>
<!-- Node23&#45;&gt;Node24 -->
<g id="edge32_Node000023_Node000024" class="edge">
<title>Node23&#45;&gt;Node24</title>
<g id="a_edge32_Node000023_Node000024"><a xlink:title=" ">
<path fill="none" stroke="#63b8ff" d="M1358.53,-153.86C1453.31,-135.01 1479,-133.63 1570.5,-118 1581.1,-116.19 1592.25,-114.28 1603.26,-112.38"/>
<polygon fill="#63b8ff" stroke="#63b8ff" points="1357.63,-150.47 1348.52,-155.87 1359.01,-157.34 1357.63,-150.47"/>
</a>
</g>
</g>
<!-- Node26 -->
<g id="Node000026" class="node">
<title>Node26</title>
<g id="a_Node000026"><a xlink:href="transport_2uds_2uds__client_8hpp.html" target="_top" xlink:title=" ">
<polygon fill="white" stroke="#666666" points="1516,-112.5 1399,-112.5 1399,-82.5 1516,-82.5 1516,-112.5"/>
<text text-anchor="start" x="1407" y="-100.5" font-family="Helvetica,sans-Serif" font-size="10.00">unilink/transport/uds</text>
<text text-anchor="middle" x="1457.5" y="-89.5" font-family="Helvetica,sans-Serif" font-size="10.00">/uds_client.hpp</text>
</a>
</g>
</g>
<!-- Node23&#45;&gt;Node26 -->
<g id="edge34_Node000023_Node000026" class="edge">
<title>Node23&#45;&gt;Node26</title>
<g id="a_edge34_Node000023_Node000026"><a xlink:title=" ">
<path fill="none" stroke="#63b8ff" d="M1339.39,-149.81C1366.2,-138.16 1400.46,-123.28 1425.17,-112.54"/>
<polygon fill="#63b8ff" stroke="#63b8ff" points="1337.66,-146.74 1329.88,-153.94 1340.44,-153.16 1337.66,-146.74"/>
</a>
</g>
</g>
<!-- Node27 -->
<g id="Node000027" class="node">
<title>Node27</title>
<g id="a_Node000027"><a xlink:href="transport_2uds_2uds__server_8hpp.html" target="_top" xlink:title=" ">
<polygon fill="white" stroke="#666666" points="1356,-112.5 1239,-112.5 1239,-82.5 1356,-82.5 1356,-112.5"/>
<text text-anchor="start" x="1247" y="-100.5" font-family="Helvetica,sans-Serif" font-size="10.00">unilink/transport/uds</text>
<text text-anchor="middle" x="1297.5" y="-89.5" font-family="Helvetica,sans-Serif" font-size="10.00">/uds_server.hpp</text>
</a>
</g>
</g>
<!-- Node23&#45;&gt;Node27 -->
<g id="edge38_Node000023_Node000027" class="edge">
<title>Node23&#45;&gt;Node27</title>
<g id="a_edge38_Node000023_Node000027"><a xlink:title=" ">
<path fill="none" stroke="#63b8ff" d="M1297.5,-143.75C1297.5,-133.31 1297.5,-121.49 1297.5,-112.54"/>
<polygon fill="#63b8ff" stroke="#63b8ff" points="1294,-143.94 1297.5,-153.94 1301,-143.94 1294,-143.94"/>
</a>
</g>
</g>
<!-- Node25 -->
<g id="Node000025" class="node">
<title>Node25</title>
<g id="a_Node000025"><a xlink:href="transport_2uds_2uds__client_8cc.html" target="_top" xlink:title=" ">
<polygon fill="white" stroke="#666666" points="1762,-35.5 1645,-35.5 1645,-5.5 1762,-5.5 1762,-35.5"/>
<text text-anchor="start" x="1653" y="-23.5" font-family="Helvetica,sans-Serif" font-size="10.00">unilink/transport/uds</text>
<text text-anchor="middle" x="1703.5" y="-12.5" font-family="Helvetica,sans-Serif" font-size="10.00">/uds_client.cc</text>
</a>
</g>
</g>
<!-- Node24&#45;&gt;Node25 -->
<g id="edge33_Node000024_Node000025" class="edge">
<title>Node24&#45;&gt;Node25</title>
<g id="a_edge33_Node000024_Node000025"><a xlink:title=" ">
<path fill="none" stroke="#63b8ff" d="M1689.92,-72.41C1693.17,-60.24 1696.99,-45.9 1699.76,-35.54"/>
<polygon fill="#63b8ff" stroke="#63b8ff" points="1686.46,-71.83 1687.26,-82.39 1693.22,-73.63 1686.46,-71.83"/>
</a>
</g>
</g>
<!-- Node26&#45;&gt;Node8 -->
<g id="edge35_Node000026_Node000008" class="edge">
<title>Node26&#45;&gt;Node8</title>
<g id="a_edge35_Node000026_Node000008"><a xlink:title=" ">
<path fill="none" stroke="#63b8ff" d="M1388.89,-81.01C1381.03,-79.51 1373.11,-78.14 1365.5,-77 1184.58,-49.99 1135.65,-72.72 955.5,-41 947.36,-39.57 938.81,-37.66 930.53,-35.59"/>
<polygon fill="#63b8ff" stroke="#63b8ff" points="1388.31,-84.46 1398.8,-82.95 1389.66,-77.59 1388.31,-84.46"/>
</a>
</g>
</g>
<!-- Node26&#45;&gt;Node14 -->
<g id="edge37_Node000026_Node000014" class="edge">
<title>Node26&#45;&gt;Node14</title>
<g id="a_edge37_Node000026_Node000014"><a xlink:title=" ">
<path fill="none" stroke="#63b8ff" d="M1487.02,-76.73C1506.37,-63.78 1531.19,-47.15 1548.53,-35.54"/>
<polygon fill="#63b8ff" stroke="#63b8ff" points="1484.93,-73.92 1478.57,-82.39 1488.82,-79.74 1484.93,-73.92"/>
</a>
</g>
</g>
<!-- Node26&#45;&gt;Node25 -->
<g id="edge36_Node000026_Node000025" class="edge">
<title>Node26&#45;&gt;Node25</title>
<g id="a_edge36_Node000026_Node000025"><a xlink:title=" ">
<path fill="none" stroke="#63b8ff" d="M1513.06,-79.56C1556.58,-66.29 1616.41,-48.05 1657.33,-35.58"/>
<polygon fill="#63b8ff" stroke="#63b8ff" points="1512.03,-76.22 1503.48,-82.48 1514.07,-82.91 1512.03,-76.22"/>
</a>
</g>
</g>
<!-- Node27&#45;&gt;Node8 -->
<g id="edge39_Node000027_Node000008" class="edge">
<title>Node27&#45;&gt;Node8</title>
<g id="a_edge39_Node000027_Node000008"><a xlink:title=" ">
<path fill="none" stroke="#63b8ff" d="M1228.84,-87.42C1159.52,-77.77 1049.54,-61.14 955.5,-41 948.06,-39.41 940.24,-37.53 932.61,-35.59"/>
<polygon fill="#63b8ff" stroke="#63b8ff" points="1228.39,-90.89 1238.77,-88.79 1229.34,-83.96 1228.39,-90.89"/>
</a>
</g>
</g>
<!-- Node27&#45;&gt;Node15 -->
<g id="edge41_Node000027_Node000015" class="edge">
<title>Node27&#45;&gt;Node15</title>
<g id="a_edge41_Node000027_Node000015"><a xlink:title=" ">
<path fill="none" stroke="#63b8ff" d="M1297.5,-72.04C1297.5,-59.95 1297.5,-45.79 1297.5,-35.54"/>
<polygon fill="#63b8ff" stroke="#63b8ff" points="1294,-72.39 1297.5,-82.39 1301,-72.39 1294,-72.39"/>
</a>
</g>
</g>
<!-- Node28 -->
<g id="Node000028" class="node">
<title>Node28</title>
<g id="a_Node000028"><a xlink:href="transport_2uds_2uds__server_8cc.html" target="_top" xlink:title=" ">
<polygon fill="white" stroke="#666666" points="1494,-35.5 1377,-35.5 1377,-5.5 1494,-5.5 1494,-35.5"/>
<text text-anchor="start" x="1385" y="-23.5" font-family="Helvetica,sans-Serif" font-size="10.00">unilink/transport/uds</text>
<text text-anchor="middle" x="1435.5" y="-12.5" font-family="Helvetica,sans-Serif" font-size="10.00">/uds_server.cc</text>
</a>
</g>
</g>
<!-- Node27&#45;&gt;Node28 -->
<g id="edge40_Node000027_Node000028" class="edge">
<title>Node27&#45;&gt;Node28</title>
<g id="a_edge40_Node000027_Node000028"><a xlink:title=" ">
<path fill="none" stroke="#63b8ff" d="M1332.28,-77.6C1356.33,-64.53 1387.82,-47.41 1409.66,-35.54"/>
<polygon fill="#63b8ff" stroke="#63b8ff" points="1330.57,-74.54 1323.46,-82.39 1333.91,-80.69 1330.57,-74.54"/>
</a>
</g>
</g>
</g>
</svg>
