<?xml version="1.0" encoding="UTF-8" standalone="no"?>
<!DOCTYPE svg PUBLIC "-//W3C//DTD SVG 1.1//EN"
 "http://www.w3.org/Graphics/SVG/1.1/DTD/svg11.dtd">
<!-- Generated by graphviz version 2.43.0 (0)
 -->
<!-- Title: unilink/diagnostics/exceptions.hpp Pages: 1 -->
<!--zoomable 324 -->

<svg id="main" version="1.1" xmlns="http://www.w3.org/2000/svg" xmlns:xlink="http://www.w3.org/1999/xlink" xml:space="preserve" onload="init(evt)">
<style type="text/css"><![CDATA[
.node, .edge {opacity: 0.7;}
.node.selected, .edge.selected {opacity: 1;}
.edge:hover path { stroke: red; }
.edge:hover polygon { stroke: red; fill: red; }
]]></style>

<defs>
  <circle id="rim" cx="0" cy="0" r="7"/>
  <circle id="rim2" cx="0" cy="0" r="3.5"/>
  <g id="zoomPlus">
    <use xlink:href="#rim" fill="#404040"><set attributeName="fill" to="#808080" begin="zoomplus.mouseover" end="zoomplus.mouseout"/></use>
    <path d="M-4,0h8M0,-4v8" fill="none" stroke="white" stroke-width="1.5" pointer-events="none"/>
  </g>
  <g id="zoomMin">
    <use xlink:href="#rim" fill="#404040"><set attributeName="fill" to="#808080" begin="zoomminus.mouseover" end="zoomminus.mouseout"/></use>
    <path d="M-4,0h8" fill="none" stroke="white" stroke-width="1.5" pointer-events="none"/>
  </g>
  <g id="arrowUp" transform="translate(30 24)">
    <use xlink:href="#rim"/>
    <path pointer-events="none" fill="none" stroke="white" stroke-width="1.5" d="M0,-3.0v7 M-2.5,-0.5L0,-3.0L2.5,-0.5"/>
  </g>
  <g id="arrowRight" transform="rotate(90) translate(36 -43)">
    <use xlink:href="#rim"/>
    <path pointer-events="none" fill="none" stroke="white" stroke-width="1.5" d="M0,-3.0v7 M-2.5,-0.5L0,-3.0L2.5,-0.5"/>
  </g>
  <g id="arrowDown" transform="rotate(180) translate(-30 -48)">
    <use xlink:href="#rim"/>
    <path pointer-events="none" fill="none" stroke="white" stroke-width="1.5" d="M0,-3.0v7 M-2.5,-0.5L0,-3.0L2.5,-0.5"/>
  </g>
  <g id="arrowLeft" transform="rotate(270) translate(-36 17)">
    <use xlink:href="#rim"/>
    <path pointer-events="none" fill="none" stroke="white" stroke-width="1.5" d="M0,-3.0v7 M-2.5,-0.5L0,-3.0L2.5,-0.5"/>
  </g>
  <g id="resetDef">
    <use xlink:href="#rim2" fill="#404040"><set attributeName="fill" to="#808080" begin="reset.mouseover" end="reset.mouseout"/></use>
  </g>
</defs>
<script type="application/ecmascript">
var viewWidth = 1770;
var viewHeight = 324;
var sectionId = 'dynsection-1';
</script>
<script type="application/ecmascript" xlink:href="svg.min.js"/>
<svg id="graph" class="graph">
<g id="viewport">
<title>unilink/diagnostics/exceptions.hpp</title>
<!-- Node1 -->
<g id="Node000001" class="node">
<title>Node1</title>
<g id="a_Node000001"><a xlink:title=" ">
<polygon fill="#999999" stroke="#666666" points="898.5,-316 790.5,-316 790.5,-286 898.5,-286 898.5,-316"/>
<text text-anchor="start" x="798.5" y="-304" font-family="Helvetica,sans-Serif" font-size="10.00">unilink/diagnostics</text>
<text text-anchor="middle" x="844.5" y="-293" font-family="Helvetica,sans-Serif" font-size="10.00">/exceptions.hpp</text>
</a>
</g>
</g>
<!-- Node2 -->
<g id="Node000002" class="node">
<title>Node2</title>
<g id="a_Node000002"><a xlink:href="tcp__client__builder_8cc.html" target="_top" xlink:title=" ">
<polygon fill="white" stroke="#666666" points="712.5,-250 608.5,-250 608.5,-220 712.5,-220 712.5,-250"/>
<text text-anchor="start" x="616.5" y="-238" font-family="Helvetica,sans-Serif" font-size="10.00">unilink/builder/tcp</text>
<text text-anchor="middle" x="660.5" y="-227" font-family="Helvetica,sans-Serif" font-size="10.00">_client_builder.cc</text>
</a>
</g>
</g>
<!-- Node1&#45;&gt;Node2 -->
<g id="edge1_Node000001_Node000002" class="edge">
<title>Node1&#45;&gt;Node2</title>
<g id="a_edge1_Node000001_Node000002"><a xlink:title=" ">
<path fill="none" stroke="#63b8ff" d="M794.45,-282.59C765.03,-272.36 728.33,-259.59 700.79,-250.01"/>
<polygon fill="#63b8ff" stroke="#63b8ff" points="793.53,-285.98 804.12,-285.95 795.83,-279.36 793.53,-285.98"/>
</a>
</g>
</g>
<!-- Node3 -->
<g id="Node000003" class="node">
<title>Node3</title>
<g id="a_Node000003"><a xlink:href="tcp__server__builder_8cc.html" target="_top" xlink:title=" ">
<polygon fill="white" stroke="#666666" points="834.5,-250 730.5,-250 730.5,-220 834.5,-220 834.5,-250"/>
<text text-anchor="start" x="738.5" y="-238" font-family="Helvetica,sans-Serif" font-size="10.00">unilink/builder/tcp</text>
<text text-anchor="middle" x="782.5" y="-227" font-family="Helvetica,sans-Serif" font-size="10.00">_server_builder.cc</text>
</a>
</g>
</g>
<!-- Node1&#45;&gt;Node3 -->
<g id="edge2_Node000001_Node000003" class="edge">
<title>Node1&#45;&gt;Node3</title>
<g id="a_edge2_Node000001_Node000003"><a xlink:title=" ">
<path fill="none" stroke="#63b8ff" d="M823.54,-278.37C814.53,-269.06 804.24,-258.44 796.22,-250.16"/>
<polygon fill="#63b8ff" stroke="#63b8ff" points="821.27,-281.05 830.74,-285.8 826.3,-276.18 821.27,-281.05"/>
</a>
</g>
</g>
<!-- Node4 -->
<g id="Node000004" class="node">
<title>Node4</title>
<g id="a_Node000004"><a xlink:href="exceptions_8cc.html" target="_top" xlink:title=" ">
<polygon fill="white" stroke="#666666" points="960.5,-250 852.5,-250 852.5,-220 960.5,-220 960.5,-250"/>
<text text-anchor="start" x="860.5" y="-238" font-family="Helvetica,sans-Serif" font-size="10.00">unilink/diagnostics</text>
<text text-anchor="middle" x="906.5" y="-227" font-family="Helvetica,sans-Serif" font-size="10.00">/exceptions.cc</text>
</a>
</g>
</g>
<!-- Node1&#45;&gt;Node4 -->
<g id="edge3_Node000001_Node000004" class="edge">
<title>Node1&#45;&gt;Node4</title>
<g id="a_edge3_Node000001_Node000004"><a xlink:title=" ">
<path fill="none" stroke="#63b8ff" d="M865.46,-278.37C874.47,-269.06 884.76,-258.44 892.78,-250.16"/>
<polygon fill="#63b8ff" stroke="#63b8ff" points="862.7,-276.18 858.26,-285.8 867.73,-281.05 862.7,-276.18"/>
</a>
</g>
</g>
<!-- Node5 -->
<g id="Node000005" class="node">
<title>Node5</title>
<g id="a_Node000005"><a xlink:href="input__validator_8hpp.html" target="_top" xlink:title=" ">
<polygon fill="white" stroke="#666666" points="1074.5,-250 978.5,-250 978.5,-220 1074.5,-220 1074.5,-250"/>
<text text-anchor="start" x="986.5" y="-238" font-family="Helvetica,sans-Serif" font-size="10.00">unilink/util/input</text>
<text text-anchor="middle" x="1026.5" y="-227" font-family="Helvetica,sans-Serif" font-size="10.00">_validator.hpp</text>
</a>
</g>
</g>
<!-- Node1&#45;&gt;Node5 -->
<g id="edge4_Node000001_Node000005" class="edge">
<title>Node1&#45;&gt;Node5</title>
<g id="a_edge4_Node000001_Node000005"><a xlink:title=" ">
<path fill="none" stroke="#63b8ff" d="M894.01,-282.59C923.11,-272.36 959.41,-259.59 986.65,-250.01"/>
<polygon fill="#63b8ff" stroke="#63b8ff" points="892.71,-279.34 884.44,-285.95 895.04,-285.94 892.71,-279.34"/>
</a>
</g>
</g>
<!-- Node6 -->
<g id="Node000006" class="node">
<title>Node6</title>
<g id="a_Node000006"><a xlink:href="tcp__client__config_8hpp.html" target="_top" xlink:title=" ">
<polygon fill="white" stroke="#666666" points="478.5,-184 374.5,-184 374.5,-154 478.5,-154 478.5,-184"/>
<text text-anchor="start" x="382.5" y="-172" font-family="Helvetica,sans-Serif" font-size="10.00">unilink/config/tcp</text>
<text text-anchor="middle" x="426.5" y="-161" font-family="Helvetica,sans-Serif" font-size="10.00">_client_config.hpp</text>
</a>
</g>
</g>
<!-- Node5&#45;&gt;Node6 -->
<g id="edge5_Node000005_Node000006" class="edge">
<title>Node5&#45;&gt;Node6</title>
<g id="a_edge5_Node000005_Node000006"><a xlink:title=" ">
<path fill="none" stroke="#63b8ff" d="M968.49,-220C783.43,-189.57 574.41,-176.85 478.87,-172.22"/>
<polygon fill="#63b8ff" stroke="#63b8ff" points="967.96,-223.46 978.4,-221.65 969.11,-216.56 967.96,-223.46"/>
</a>
</g>
</g>
<!-- Node20 -->
<g id="Node000020" class="node">
<title>Node20</title>
<g id="a_Node000020"><a xlink:href="tcp__server__config_8hpp.html" target="_top" xlink:title=" ">
<polygon fill="white" stroke="#666666" points="822.5,-184 714.5,-184 714.5,-154 822.5,-154 822.5,-184"/>
<text text-anchor="start" x="722.5" y="-172" font-family="Helvetica,sans-Serif" font-size="10.00">unilink/config/tcp</text>
<text text-anchor="middle" x="768.5" y="-161" font-family="Helvetica,sans-Serif" font-size="10.00">_server_config.hpp</text>
</a>
</g>
</g>
<!-- Node5&#45;&gt;Node20 -->
<g id="edge23_Node000005_Node000020" class="edge">
<title>Node5&#45;&gt;Node20</title>
<g id="a_edge23_Node000005_Node000020"><a xlink:title=" ">
<path fill="none" stroke="#63b8ff" d="M968.38,-219.58C924.74,-208.76 865.4,-194.04 822.74,-183.45"/>
<polygon fill="#63b8ff" stroke="#63b8ff" points="967.73,-223.03 978.27,-222.04 969.41,-216.23 967.73,-223.03"/>
</a>
</g>
</g>
<!-- Node23 -->
<g id="Node000023" class="node">
<title>Node23</title>
<g id="a_Node000023"><a xlink:href="uds__config_8hpp.html" target="_top" xlink:title=" ">
<polygon fill="white" stroke="#666666" points="1248.5,-184 1146.5,-184 1146.5,-154 1248.5,-154 1248.5,-184"/>
<text text-anchor="start" x="1154.5" y="-172" font-family="Helvetica,sans-Serif" font-size="10.00">unilink/config/uds</text>
<text text-anchor="middle" x="1197.5" y="-161" font-family="Helvetica,sans-Serif" font-size="10.00">_config.hpp</text>
</a>
</g>
</g>
<!-- Node5&#45;&gt;Node23 -->
<g id="edge30_Node000005_Node000023" class="edge">
<title>Node5&#45;&gt;Node23</title>
<g id="a_edge30_Node000005_Node000023"><a xlink:title=" ">
<path fill="none" stroke="#63b8ff" d="M1073.73,-216.32C1100.95,-206.14 1134.69,-193.51 1160.06,-184.01"/>
<polygon fill="#63b8ff" stroke="#63b8ff" points="1072.17,-213.17 1064.03,-219.95 1074.62,-219.73 1072.17,-213.17"/>
</a>
</g>
</g>
<!-- Node29 -->
<g id="Node000029" class="node">
<title>Node29</title>
<g id="a_Node000029"><a xlink:href="input__validator_8cc.html" target="_top" xlink:title=" ">
<polygon fill="white" stroke="#666666" points="1362.5,-184 1266.5,-184 1266.5,-154 1362.5,-154 1362.5,-184"/>
<text text-anchor="start" x="1274.5" y="-172" font-family="Helvetica,sans-Serif" font-size="10.00">unilink/util/input</text>
<text text-anchor="middle" x="1314.5" y="-161" font-family="Helvetica,sans-Serif" font-size="10.00">_validator.cc</text>
</a>
</g>
</g>
<!-- Node5&#45;&gt;Node29 -->
<g id="edge44_Node000005_Node000029" class="edge">
<title>Node5&#45;&gt;Node29</title>
<g id="a_edge44_Node000005_Node000029"><a xlink:title=" ">
<path fill="none" stroke="#63b8ff" d="M1084.76,-221.85C1131.53,-211.99 1198.84,-197.55 1257.5,-184 1260.38,-183.33 1263.34,-182.64 1266.32,-181.93"/>
<polygon fill="#63b8ff" stroke="#63b8ff" points="1083.88,-218.46 1074.81,-223.95 1085.32,-225.31 1083.88,-218.46"/>
</a>
</g>
</g>
<!-- Node7 -->
<g id="Node000007" class="node">
<title>Node7</title>
<g id="a_Node000007"><a xlink:href="channel__factory_8hpp.html" target="_top" xlink:title=" ">
<polygon fill="white" stroke="#666666" points="938.5,-112.5 810.5,-112.5 810.5,-82.5 938.5,-82.5 938.5,-112.5"/>
<text text-anchor="start" x="818.5" y="-100.5" font-family="Helvetica,sans-Serif" font-size="10.00">unilink/factory/channel</text>
<text text-anchor="middle" x="874.5" y="-89.5" font-family="Helvetica,sans-Serif" font-size="10.00">_factory.hpp</text>
</a>
</g>
</g>
<!-- Node6&#45;&gt;Node7 -->
<g id="edge6_Node000006_Node000007" class="edge">
<title>Node6&#45;&gt;Node7</title>
<g id="a_edge6_Node000006_Node000007"><a xlink:title=" ">
<path fill="none" stroke="#63b8ff" d="M488.77,-158.34C573.55,-145.19 724.54,-121.76 810.31,-108.46"/>
<polygon fill="#63b8ff" stroke="#63b8ff" points="488.11,-154.9 478.77,-159.89 489.19,-161.82 488.11,-154.9"/>
</a>
</g>
</g>
<!-- Node10 -->
<g id="Node000010" class="node">
<title>Node10</title>
<g id="a_Node000010"><a xlink:href="wrapper_2tcp__client_2tcp__client_8cc.html" target="_top" xlink:title=" ">
<polygon fill="white" stroke="#666666" points="395,-35.5 282,-35.5 282,-5.5 395,-5.5 395,-35.5"/>
<text text-anchor="start" x="290" y="-23.5" font-family="Helvetica,sans-Serif" font-size="10.00">unilink/wrapper/tcp</text>
<text text-anchor="middle" x="338.5" y="-12.5" font-family="Helvetica,sans-Serif" font-size="10.00">_client/tcp_client.cc</text>
</a>
</g>
</g>
<!-- Node6&#45;&gt;Node10 -->
<g id="edge22_Node000006_Node000010" class="edge">
<title>Node6&#45;&gt;Node10</title>
<g id="a_edge22_Node000006_Node000010"><a xlink:title=" ">
<path fill="none" stroke="#63b8ff" d="M389.37,-148.56C377.49,-140.61 365.39,-130.33 357.5,-118 341.12,-92.4 338.33,-55.74 338.16,-35.79"/>
<polygon fill="#63b8ff" stroke="#63b8ff" points="387.59,-151.58 397.92,-153.95 391.32,-145.66 387.59,-151.58"/>
</a>
</g>
</g>
<!-- Node16 -->
<g id="Node000016" class="node">
<title>Node16</title>
<g id="a_Node000016"><a xlink:href="tcp__client_2detail_2reconnect__decider_8hpp.html" target="_top" xlink:title=" ">
<polygon fill="white" stroke="#666666" points="272,-118 141,-118 141,-77 272,-77 272,-118"/>
<text text-anchor="start" x="149" y="-106" font-family="Helvetica,sans-Serif" font-size="10.00">unilink/transport/tcp</text>
<text text-anchor="start" x="149" y="-95" font-family="Helvetica,sans-Serif" font-size="10.00">_client/detail/reconnect</text>
<text text-anchor="middle" x="206.5" y="-84" font-family="Helvetica,sans-Serif" font-size="10.00">_decider.hpp</text>
</a>
</g>
</g>
<!-- Node6&#45;&gt;Node16 -->
<g id="edge15_Node000006_Node000016" class="edge">
<title>Node6&#45;&gt;Node16</title>
<g id="a_edge15_Node000006_Node000016"><a xlink:title=" ">
<path fill="none" stroke="#63b8ff" d="M372.09,-150.81C340.68,-140.89 301.06,-128.37 268.46,-118.07"/>
<polygon fill="#63b8ff" stroke="#63b8ff" points="371.39,-154.26 381.98,-153.94 373.5,-147.59 371.39,-154.26"/>
</a>
</g>
</g>
<!-- Node19 -->
<g id="Node000019" class="node">
<title>Node19</title>
<g id="a_Node000019"><a xlink:href="transport_2tcp__client_2tcp__client_8hpp.html" target="_top" xlink:title=" ">
<polygon fill="white" stroke="#666666" points="486.5,-112.5 366.5,-112.5 366.5,-82.5 486.5,-82.5 486.5,-112.5"/>
<text text-anchor="start" x="374.5" y="-100.5" font-family="Helvetica,sans-Serif" font-size="10.00">unilink/transport/tcp</text>
<text text-anchor="middle" x="426.5" y="-89.5" font-family="Helvetica,sans-Serif" font-size="10.00">_client/tcp_client.hpp</text>
</a>
</g>
</g>
<!-- Node6&#45;&gt;Node19 -->
<g id="edge18_Node000006_Node000019" class="edge">
<title>Node6&#45;&gt;Node19</title>
<g id="a_edge18_Node000006_Node000019"><a xlink:title=" ">
<path fill="none" stroke="#63b8ff" d="M426.5,-143.75C426.5,-133.31 426.5,-121.49 426.5,-112.54"/>
<polygon fill="#63b8ff" stroke="#63b8ff" points="423,-143.94 426.5,-153.94 430,-143.94 423,-143.94"/>
</a>
</g>
</g>
<!-- Node8 -->
<g id="Node000008" class="node">
<title>Node8</title>
<g id="a_Node000008"><a xlink:href="channel__factory_8cc.html" target="_top" xlink:title=" ">
<polygon fill="white" stroke="#666666" points="1077.5,-35.5 949.5,-35.5 949.5,-5.5 1077.5,-5.5 1077.5,-35.5"/>
<text text-anchor="start" x="957.5" y="-23.5" font-family="Helvetica,sans-Serif" font-size="10.00">unilink/factory/channel</text>
<text text-anchor="middle" x="1013.5" y="-12.5" font-family="Helvetica,sans-Serif" font-size="10.00">_factory.cc</text>
</a>
</g>
</g>
<!-- Node7&#45;&gt;Node8 -->
<g id="edge7_Node000007_Node000008" class="edge">
<title>Node7&#45;&gt;Node8</title>
<g id="a_edge7_Node000007_Node000008"><a xlink:title=" ">
<path fill="none" stroke="#63b8ff" d="M909.53,-77.6C933.76,-64.53 965.47,-47.41 987.47,-35.54"/>
<polygon fill="#63b8ff" stroke="#63b8ff" points="907.78,-74.56 900.64,-82.39 911.11,-80.72 907.78,-74.56"/>
</a>
</g>
</g>
<!-- Node9 -->
<g id="Node000009" class="node">
<title>Node9</title>
<g id="a_Node000009"><a xlink:href="wrapper_2serial_2serial_8cc.html" target="_top" xlink:title=" ">
<polygon fill="white" stroke="#666666" points="1217.5,-35.5 1095.5,-35.5 1095.5,-5.5 1217.5,-5.5 1217.5,-35.5"/>
<text text-anchor="start" x="1103.5" y="-23.5" font-family="Helvetica,sans-Serif" font-size="10.00">unilink/wrapper/serial</text>
<text text-anchor="middle" x="1156.5" y="-12.5" font-family="Helvetica,sans-Serif" font-size="10.00">/serial.cc</text>
</a>
</g>
</g>
<!-- Node7&#45;&gt;Node9 -->
<g id="edge8_Node000007_Node000009" class="edge">
<title>Node7&#45;&gt;Node9</title>
<g id="a_edge8_Node000007_Node000009"><a xlink:title=" ">
<path fill="none" stroke="#63b8ff" d="M938.86,-79.93C980.92,-69.03 1037.03,-54.37 1086.5,-41 1092.95,-39.26 1099.74,-37.4 1106.44,-35.55"/>
<polygon fill="#63b8ff" stroke="#63b8ff" points="937.83,-76.58 929.03,-82.48 939.58,-83.36 937.83,-76.58"/>
</a>
</g>
</g>
<!-- Node7&#45;&gt;Node10 -->
<g id="edge9_Node000007_Node000010" class="edge">
<title>Node7&#45;&gt;Node10</title>
<g id="a_edge9_Node000007_Node000010"><a xlink:title=" ">
<path fill="none" stroke="#63b8ff" d="M800.46,-85.21C780.98,-82.38 759.96,-79.46 740.5,-77 591.05,-58.15 551.16,-70.77 403.5,-41 396.22,-39.53 388.59,-37.61 381.22,-35.54"/>
<polygon fill="#63b8ff" stroke="#63b8ff" points="800.1,-88.69 810.5,-86.68 801.11,-81.77 800.1,-88.69"/>
</a>
</g>
</g>
<!-- Node11 -->
<g id="Node000011" class="node">
<title>Node11</title>
<g id="a_Node000011"><a xlink:href="wrapper_2tcp__server_2tcp__server_8cc.html" target="_top" xlink:title=" ">
<polygon fill="white" stroke="#666666" points="532,-35.5 413,-35.5 413,-5.5 532,-5.5 532,-35.5"/>
<text text-anchor="start" x="421" y="-23.5" font-family="Helvetica,sans-Serif" font-size="10.00">unilink/wrapper/tcp</text>
<text text-anchor="middle" x="472.5" y="-12.5" font-family="Helvetica,sans-Serif" font-size="10.00">_server/tcp_server.cc</text>
</a>
</g>
</g>
<!-- Node7&#45;&gt;Node11 -->
<g id="edge10_Node000007_Node000011" class="edge">
<title>Node7&#45;&gt;Node11</title>
<g id="a_edge10_Node000007_Node000011"><a xlink:title=" ">
<path fill="none" stroke="#63b8ff" d="M800.3,-85.19C717.44,-72.37 588.66,-51.87 540.5,-41 533.43,-39.4 526.01,-37.51 518.77,-35.54"/>
<polygon fill="#63b8ff" stroke="#63b8ff" points="800,-88.68 810.42,-86.75 801.07,-81.76 800,-88.68"/>
</a>
</g>
</g>
<!-- Node12 -->
<g id="Node000012" class="node">
<title>Node12</title>
<g id="a_Node000012"><a xlink:href="wrapper_2udp_2udp_8cc.html" target="_top" xlink:title=" ">
<polygon fill="white" stroke="#666666" points="800,-35.5 687,-35.5 687,-5.5 800,-5.5 800,-35.5"/>
<text text-anchor="start" x="695" y="-23.5" font-family="Helvetica,sans-Serif" font-size="10.00">unilink/wrapper/udp</text>
<text text-anchor="middle" x="743.5" y="-12.5" font-family="Helvetica,sans-Serif" font-size="10.00">/udp.cc</text>
</a>
</g>
</g>
<!-- Node7&#45;&gt;Node12 -->
<g id="edge11_Node000007_Node000012" class="edge">
<title>Node7&#45;&gt;Node12</title>
<g id="a_edge11_Node000007_Node000012"><a xlink:title=" ">
<path fill="none" stroke="#63b8ff" d="M840.88,-77.25C818.13,-64.23 788.58,-47.31 768.03,-35.54"/>
<polygon fill="#63b8ff" stroke="#63b8ff" points="839.44,-80.46 849.86,-82.39 842.92,-74.39 839.44,-80.46"/>
</a>
</g>
</g>
<!-- Node13 -->
<g id="Node000013" class="node">
<title>Node13</title>
<g id="a_Node000013"><a xlink:href="udp__server_8cc.html" target="_top" xlink:title=" ">
<polygon fill="white" stroke="#666666" points="931,-35.5 818,-35.5 818,-5.5 931,-5.5 931,-35.5"/>
<text text-anchor="start" x="826" y="-23.5" font-family="Helvetica,sans-Serif" font-size="10.00">unilink/wrapper/udp</text>
<text text-anchor="middle" x="874.5" y="-12.5" font-family="Helvetica,sans-Serif" font-size="10.00">/udp_server.cc</text>
</a>
</g>
</g>
<!-- Node7&#45;&gt;Node13 -->
<g id="edge12_Node000007_Node000013" class="edge">
<title>Node7&#45;&gt;Node13</title>
<g id="a_edge12_Node000007_Node000013"><a xlink:title=" ">
<path fill="none" stroke="#63b8ff" d="M874.5,-72.04C874.5,-59.95 874.5,-45.79 874.5,-35.54"/>
<polygon fill="#63b8ff" stroke="#63b8ff" points="871,-72.39 874.5,-82.39 878,-72.39 871,-72.39"/>
</a>
</g>
</g>
<!-- Node14 -->
<g id="Node000014" class="node">
<title>Node14</title>
<g id="a_Node000014"><a xlink:href="wrapper_2uds__client_2uds__client_8cc.html" target="_top" xlink:title=" ">
<polygon fill="white" stroke="#666666" points="1351,-35.5 1236,-35.5 1236,-5.5 1351,-5.5 1351,-35.5"/>
<text text-anchor="start" x="1244" y="-23.5" font-family="Helvetica,sans-Serif" font-size="10.00">unilink/wrapper/uds</text>
<text text-anchor="middle" x="1293.5" y="-12.5" font-family="Helvetica,sans-Serif" font-size="10.00">_client/uds_client.cc</text>
</a>
</g>
</g>
<!-- Node7&#45;&gt;Node14 -->
<g id="edge13_Node000007_Node000014" class="edge">
<title>Node7&#45;&gt;Node14</title>
<g id="a_edge13_Node000007_Node000014"><a xlink:title=" ">
<path fill="none" stroke="#63b8ff" d="M948.82,-87.57C1020.42,-78.31 1131.55,-62.21 1226.5,-41 1233.59,-39.42 1241.04,-37.5 1248.29,-35.5"/>
<polygon fill="#63b8ff" stroke="#63b8ff" points="948.02,-84.14 938.55,-88.88 948.91,-91.08 948.02,-84.14"/>
</a>
</g>
</g>
<!-- Node15 -->
<g id="Node000015" class="node">
<title>Node15</title>
<g id="a_Node000015"><a xlink:href="wrapper_2uds__server_2uds__server_8cc.html" target="_top" xlink:title=" ">
<polygon fill="white" stroke="#666666" points="1626.5,-35.5 1504.5,-35.5 1504.5,-5.5 1626.5,-5.5 1626.5,-35.5"/>
<text text-anchor="start" x="1512.5" y="-23.5" font-family="Helvetica,sans-Serif" font-size="10.00">unilink/wrapper/uds</text>
<text text-anchor="middle" x="1565.5" y="-12.5" font-family="Helvetica,sans-Serif" font-size="10.00">_server/uds_server.cc</text>
</a>
</g>
</g>
<!-- Node7&#45;&gt;Node15 -->
<g id="edge14_Node000007_Node000015" class="edge">
<title>Node7&#45;&gt;Node15</title>
<g id="a_edge14_Node000007_Node000015"><a xlink:title=" ">
<path fill="none" stroke="#63b8ff" d="M948.85,-91.52C1089.94,-81.79 1391.59,-59.58 1494.5,-41 1502.43,-39.57 1510.75,-37.66 1518.8,-35.6"/>
<polygon fill="#63b8ff" stroke="#63b8ff" points="948.3,-88.05 938.57,-92.23 948.78,-95.03 948.3,-88.05"/>
</a>
</g>
</g>
<!-- Node17 -->
<g id="Node000017" class="node">
<title>Node17</title>
<g id="a_Node000017"><a xlink:href="reconnect__logic_8hpp.html" target="_top" xlink:title=" ">
<polygon fill="white" stroke="#666666" points="131,-41 0,-41 0,0 131,0 131,-41"/>
<text text-anchor="start" x="8" y="-29" font-family="Helvetica,sans-Serif" font-size="10.00">unilink/transport/tcp</text>
<text text-anchor="start" x="8" y="-18" font-family="Helvetica,sans-Serif" font-size="10.00">_client/detail/reconnect</text>
<text text-anchor="middle" x="65.5" y="-7" font-family="Helvetica,sans-Serif" font-size="10.00">_logic.hpp</text>
</a>
</g>
</g>
<!-- Node16&#45;&gt;Node17 -->
<g id="edge16_Node000016_Node000017" class="edge">
<title>Node16&#45;&gt;Node17</title>
<g id="a_edge16_Node000016_Node000017"><a xlink:title=" ">
<path fill="none" stroke="#63b8ff" d="M160.8,-72.19C141.93,-62.15 120.34,-50.67 102.48,-41.17"/>
<polygon fill="#63b8ff" stroke="#63b8ff" points="159.35,-75.38 169.82,-76.99 162.64,-69.2 159.35,-75.38"/>
</a>
</g>
</g>
<!-- Node18 -->
<g id="Node000018" class="node">
<title>Node18</title>
<g id="a_Node000018"><a xlink:href="transport_2tcp__client_2tcp__client_8cc.html" target="_top" xlink:title=" ">
<polygon fill="white" stroke="#666666" points="264,-35.5 149,-35.5 149,-5.5 264,-5.5 264,-35.5"/>
<text text-anchor="start" x="157" y="-23.5" font-family="Helvetica,sans-Serif" font-size="10.00">unilink/transport/tcp</text>
<text text-anchor="middle" x="206.5" y="-12.5" font-family="Helvetica,sans-Serif" font-size="10.00">_client/tcp_client.cc</text>
</a>
</g>
</g>
<!-- Node16&#45;&gt;Node18 -->
<g id="edge17_Node000016_Node000018" class="edge">
<title>Node16&#45;&gt;Node18</title>
<g id="a_edge17_Node000016_Node000018"><a xlink:title=" ">
<path fill="none" stroke="#63b8ff" d="M206.5,-66.61C206.5,-56.01 206.5,-44.57 206.5,-35.86"/>
<polygon fill="#63b8ff" stroke="#63b8ff" points="203,-66.79 206.5,-76.79 210,-66.79 203,-66.79"/>
</a>
</g>
</g>
<!-- Node19&#45;&gt;Node8 -->
<g id="edge19_Node000019_Node000008" class="edge">
<title>Node19&#45;&gt;Node8</title>
<g id="a_edge19_Node000019_Node000008"><a xlink:title=" ">
<path fill="none" stroke="#63b8ff" d="M496.78,-88.22C527.13,-84.69 563.06,-80.57 595.5,-77 748.3,-60.19 788.29,-68.67 939.5,-41 947.6,-39.52 956.12,-37.61 964.38,-35.57"/>
<polygon fill="#63b8ff" stroke="#63b8ff" points="496.24,-84.76 486.71,-89.4 497.05,-91.71 496.24,-84.76"/>
</a>
</g>
</g>
<!-- Node19&#45;&gt;Node10 -->
<g id="edge21_Node000019_Node000010" class="edge">
<title>Node19&#45;&gt;Node10</title>
<g id="a_edge21_Node000019_Node000010"><a xlink:title=" ">
<path fill="none" stroke="#63b8ff" d="M402.06,-75.67C387.05,-62.88 368.23,-46.84 354.98,-35.54"/>
<polygon fill="#63b8ff" stroke="#63b8ff" points="400.07,-78.57 409.95,-82.39 404.61,-73.24 400.07,-78.57"/>
</a>
</g>
</g>
<!-- Node19&#45;&gt;Node18 -->
<g id="edge20_Node000019_Node000018" class="edge">
<title>Node19&#45;&gt;Node18</title>
<g id="a_edge20_Node000019_Node000018"><a xlink:title=" ">
<path fill="none" stroke="#63b8ff" d="M375.83,-79.22C336.99,-65.99 284.08,-47.95 247.79,-35.58"/>
<polygon fill="#63b8ff" stroke="#63b8ff" points="374.78,-82.57 385.38,-82.48 377.04,-75.94 374.78,-82.57"/>
</a>
</g>
</g>
<!-- Node20&#45;&gt;Node7 -->
<g id="edge24_Node000020_Node000007" class="edge">
<title>Node20&#45;&gt;Node7</title>
<g id="a_edge24_Node000020_Node000007"><a xlink:title=" ">
<path fill="none" stroke="#63b8ff" d="M798.61,-148.25C815.99,-136.86 837.43,-122.81 853.08,-112.54"/>
<polygon fill="#63b8ff" stroke="#63b8ff" points="796.39,-145.53 789.95,-153.94 800.23,-151.38 796.39,-145.53"/>
</a>
</g>
</g>
<!-- Node20&#45;&gt;Node11 -->
<g id="edge29_Node000020_Node000011" class="edge">
<title>Node20&#45;&gt;Node11</title>
<g id="a_edge29_Node000020_Node000011"><a xlink:title=" ">
<path fill="none" stroke="#63b8ff" d="M704.11,-155.6C670.56,-147.63 629.54,-135.44 595.5,-118 551.77,-95.61 508.39,-56.64 486.73,-35.73"/>
<polygon fill="#63b8ff" stroke="#63b8ff" points="703.74,-159.11 714.27,-157.94 705.31,-152.29 703.74,-159.11"/>
</a>
</g>
</g>
<!-- Node21 -->
<g id="Node000021" class="node">
<title>Node21</title>
<g id="a_Node000021"><a xlink:href="transport_2tcp__server_2tcp__server_8hpp.html" target="_top" xlink:title=" ">
<polygon fill="white" stroke="#666666" points="732,-112.5 605,-112.5 605,-82.5 732,-82.5 732,-112.5"/>
<text text-anchor="start" x="613" y="-100.5" font-family="Helvetica,sans-Serif" font-size="10.00">unilink/transport/tcp</text>
<text text-anchor="middle" x="668.5" y="-89.5" font-family="Helvetica,sans-Serif" font-size="10.00">_server/tcp_server.hpp</text>
</a>
</g>
</g>
<!-- Node20&#45;&gt;Node21 -->
<g id="edge25_Node000020_Node000021" class="edge">
<title>Node20&#45;&gt;Node21</title>
<g id="a_edge25_Node000020_Node000021"><a xlink:title=" ">
<path fill="none" stroke="#63b8ff" d="M739.64,-147.94C723.33,-136.6 703.34,-122.71 688.71,-112.54"/>
<polygon fill="#63b8ff" stroke="#63b8ff" points="738.05,-151.1 748.26,-153.94 742.05,-145.35 738.05,-151.1"/>
</a>
</g>
</g>
<!-- Node21&#45;&gt;Node8 -->
<g id="edge26_Node000021_Node000008" class="edge">
<title>Node21&#45;&gt;Node8</title>
<g id="a_edge26_Node000021_Node000008"><a xlink:title=" ">
<path fill="none" stroke="#63b8ff" d="M742.18,-82.56C796.82,-71.95 873.03,-56.55 939.5,-41 946.74,-39.31 954.36,-37.42 961.84,-35.51"/>
<polygon fill="#63b8ff" stroke="#63b8ff" points="741.39,-79.15 732.24,-84.49 742.72,-86.02 741.39,-79.15"/>
</a>
</g>
</g>
<!-- Node21&#45;&gt;Node11 -->
<g id="edge28_Node000021_Node000011" class="edge">
<title>Node21&#45;&gt;Node11</title>
<g id="a_edge28_Node000021_Node000011"><a xlink:title=" ">
<path fill="none" stroke="#63b8ff" d="M622.24,-78.8C587.71,-65.59 541.18,-47.78 509.2,-35.54"/>
<polygon fill="#63b8ff" stroke="#63b8ff" points="621.04,-82.09 631.63,-82.39 623.55,-75.55 621.04,-82.09"/>
</a>
</g>
</g>
<!-- Node22 -->
<g id="Node000022" class="node">
<title>Node22</title>
<g id="a_Node000022"><a xlink:href="transport_2tcp__server_2tcp__server_8cc.html" target="_top" xlink:title=" ">
<polygon fill="white" stroke="#666666" points="669,-35.5 550,-35.5 550,-5.5 669,-5.5 669,-35.5"/>
<text text-anchor="start" x="558" y="-23.5" font-family="Helvetica,sans-Serif" font-size="10.00">unilink/transport/tcp</text>
<text text-anchor="middle" x="609.5" y="-12.5" font-family="Helvetica,sans-Serif" font-size="10.00">_server/tcp_server.cc</text>
</a>
</g>
</g>
<!-- Node21&#45;&gt;Node22 -->
<g id="edge27_Node000021_Node000022" class="edge">
<title>Node21&#45;&gt;Node22</title>
<g id="a_edge27_Node000021_Node000022"><a xlink:title=" ">
<path fill="none" stroke="#63b8ff" d="M650.99,-74.24C641.12,-61.7 629.1,-46.42 620.55,-35.54"/>
<polygon fill="#63b8ff" stroke="#63b8ff" points="648.47,-76.7 657.4,-82.39 653.97,-72.37 648.47,-76.7"/>
</a>
</g>
</g>
<!-- Node23&#45;&gt;Node7 -->
<g id="edge31_Node000023_Node000007" class="edge">
<title>Node23&#45;&gt;Node7</title>
<g id="a_edge31_Node000023_Node000007"><a xlink:title=" ">
<path fill="none" stroke="#63b8ff" d="M1136.43,-154.86C1079.85,-142.69 996,-124.64 938.5,-112.27"/>
<polygon fill="#63b8ff" stroke="#63b8ff" points="1135.81,-158.31 1146.32,-156.99 1137.28,-151.46 1135.81,-158.31"/>
</a>
</g>
</g>
<!-- Node23&#45;&gt;Node14 -->
<g id="edge42_Node000023_Node000014" class="edge">
<title>Node23&#45;&gt;Node14</title>
<g id="a_edge42_Node000023_Node000014"><a xlink:title=" ">
<path fill="none" stroke="#63b8ff" d="M1182.05,-145.22C1170.98,-125.8 1160.19,-97.82 1173.5,-77 1182.56,-62.83 1220.55,-46.71 1251.39,-35.5"/>
<polygon fill="#63b8ff" stroke="#63b8ff" points="1179.2,-147.28 1187.4,-153.99 1185.18,-143.63 1179.2,-147.28"/>
</a>
</g>
</g>
<!-- Node23&#45;&gt;Node15 -->
<g id="edge43_Node000023_Node000015" class="edge">
<title>Node23&#45;&gt;Node15</title>
<g id="a_edge43_Node000023_Node000015"><a xlink:title=" ">
<path fill="none" stroke="#63b8ff" d="M1258.35,-154.02C1361.46,-136.3 1400.58,-168.13 1487.5,-118 1496.46,-112.83 1535.85,-61.14 1554.99,-35.61"/>
<polygon fill="#63b8ff" stroke="#63b8ff" points="1257.71,-150.58 1248.51,-155.83 1258.98,-157.46 1257.71,-150.58"/>
</a>
</g>
</g>
<!-- Node24 -->
<g id="Node000024" class="node">
<title>Node24</title>
<g id="a_Node000024"><a xlink:href="uds_2detail_2reconnect__decider_8hpp.html" target="_top" xlink:title=" ">
<polygon fill="white" stroke="#666666" points="1478.5,-112.5 1318.5,-112.5 1318.5,-82.5 1478.5,-82.5 1478.5,-112.5"/>
<text text-anchor="start" x="1326.5" y="-100.5" font-family="Helvetica,sans-Serif" font-size="10.00">unilink/transport/uds</text>
<text text-anchor="middle" x="1398.5" y="-89.5" font-family="Helvetica,sans-Serif" font-size="10.00">/detail/reconnect_decider.hpp</text>
</a>
</g>
</g>
<!-- Node23&#45;&gt;Node24 -->
<g id="edge32_Node000023_Node000024" class="edge">
<title>Node23&#45;&gt;Node24</title>
<g id="a_edge32_Node000023_Node000024"><a xlink:title=" ">
<path fill="none" stroke="#63b8ff" d="M1247.92,-150.57C1281.91,-138.81 1326.16,-123.51 1357.89,-112.54"/>
<polygon fill="#63b8ff" stroke="#63b8ff" points="1246.48,-147.36 1238.18,-153.94 1248.77,-153.98 1246.48,-147.36"/>
</a>
</g>
</g>
<!-- Node26 -->
<g id="Node000026" class="node">
<title>Node26</title>
<g id="a_Node000026"><a xlink:href="transport_2uds_2uds__client_8hpp.html" target="_top" xlink:title=" ">
<polygon fill="white" stroke="#666666" points="1300,-112.5 1183,-112.5 1183,-82.5 1300,-82.5 1300,-112.5"/>
<text text-anchor="start" x="1191" y="-100.5" font-family="Helvetica,sans-Serif" font-size="10.00">unilink/transport/uds</text>
<text text-anchor="middle" x="1241.5" y="-89.5" font-family="Helvetica,sans-Serif" font-size="10.00">/uds_client.hpp</text>
</a>
</g>
</g>
<!-- Node23&#45;&gt;Node26 -->
<g id="edge34_Node000023_Node000026" class="edge">
<title>Node23&#45;&gt;Node26</title>
<g id="a_edge34_Node000023_Node000026"><a xlink:title=" ">
<path fill="none" stroke="#63b8ff" d="M1211.82,-145.38C1218.67,-134.57 1226.65,-121.96 1232.61,-112.54"/>
<polygon fill="#63b8ff" stroke="#63b8ff" points="1208.8,-143.61 1206.4,-153.94 1214.71,-147.36 1208.8,-143.61"/>
</a>
</g>
</g>
<!-- Node27 -->
<g id="Node000027" class="node">
<title>Node27</title>
<g id="a_Node000027"><a xlink:href="transport_2uds_2uds__server_8hpp.html" target="_top" xlink:title=" ">
<polygon fill="white" stroke="#666666" points="1652,-112.5 1535,-112.5 1535,-82.5 1652,-82.5 1652,-112.5"/>
<text text-anchor="start" x="1543" y="-100.5" font-family="Helvetica,sans-Serif" font-size="10.00">unilink/transport/uds</text>
<text text-anchor="middle" x="1593.5" y="-89.5" font-family="Helvetica,sans-Serif" font-size="10.00">/uds_server.hpp</text>
</a>
</g>
</g>
<!-- Node23&#45;&gt;Node27 -->
<g id="edge38_Node000023_Node000027" class="edge">
<title>Node23&#45;&gt;Node27</title>
<g id="a_edge38_Node000023_Node000027"><a xlink:title=" ">
<path fill="none" stroke="#63b8ff" d="M1258.84,-153.87C1375.29,-133.02 1408,-140.63 1520.5,-118 1528.22,-116.45 1536.33,-114.55 1544.22,-112.56"/>
<polygon fill="#63b8ff" stroke="#63b8ff" points="1258.03,-150.46 1248.82,-155.69 1259.29,-157.34 1258.03,-150.46"/>
</a>
</g>
</g>
<!-- Node25 -->
<g id="Node000025" class="node">
<title>Node25</title>
<g id="a_Node000025"><a xlink:href="transport_2uds_2uds__client_8cc.html" target="_top" xlink:title=" ">
<polygon fill="white" stroke="#666666" points="1486,-35.5 1369,-35.5 1369,-5.5 1486,-5.5 1486,-35.5"/>
<text text-anchor="start" x="1377" y="-23.5" font-family="Helvetica,sans-Serif" font-size="10.00">unilink/transport/uds</text>
<text text-anchor="middle" x="1427.5" y="-12.5" font-family="Helvetica,sans-Serif" font-size="10.00">/uds_client.cc</text>
</a>
</g>
</g>
<!-- Node24&#45;&gt;Node25 -->
<g id="edge33_Node000024_Node000025" class="edge">
<title>Node24&#45;&gt;Node25</title>
<g id="a_edge33_Node000024_Node000025"><a xlink:title=" ">
<path fill="none" stroke="#63b8ff" d="M1407.67,-72.78C1412.41,-60.53 1418.03,-46 1422.07,-35.54"/>
<polygon fill="#63b8ff" stroke="#63b8ff" points="1404.3,-71.8 1403.95,-82.39 1410.83,-74.33 1404.3,-71.8"/>
</a>
</g>
</g>
<!-- Node26&#45;&gt;Node8 -->
<g id="edge35_Node000026_Node000008" class="edge">
<title>Node26&#45;&gt;Node8</title>
<g id="a_edge35_Node000026_Node000008"><a xlink:title=" ">
<path fill="none" stroke="#63b8ff" d="M1189.24,-79.31C1148.97,-66.06 1093.98,-47.97 1056.3,-35.58"/>
<polygon fill="#63b8ff" stroke="#63b8ff" points="1188.29,-82.68 1198.88,-82.48 1190.48,-76.03 1188.29,-82.68"/>
</a>
</g>
</g>
<!-- Node26&#45;&gt;Node14 -->
<g id="edge37_Node000026_Node000014" class="edge">
<title>Node26&#45;&gt;Node14</title>
<g id="a_edge37_Node000026_Node000014"><a xlink:title=" ">
<path fill="none" stroke="#63b8ff" d="M1257.19,-73.88C1265.83,-61.41 1276.29,-46.32 1283.76,-35.54"/>
<polygon fill="#63b8ff" stroke="#63b8ff" points="1254.1,-72.18 1251.28,-82.39 1259.85,-76.17 1254.1,-72.18"/>
</a>
</g>
</g>
<!-- Node26&#45;&gt;Node25 -->
<g id="edge36_Node000026_Node000025" class="edge">
<title>Node26&#45;&gt;Node25</title>
<g id="a_edge36_Node000026_Node000025"><a xlink:title=" ">
<path fill="none" stroke="#63b8ff" d="M1285.82,-78.63C1318.54,-65.43 1362.45,-47.73 1392.67,-35.54"/>
<polygon fill="#63b8ff" stroke="#63b8ff" points="1284.45,-75.41 1276.49,-82.39 1287.07,-81.9 1284.45,-75.41"/>
</a>
</g>
</g>
<!-- Node27&#45;&gt;Node8 -->
<g id="edge39_Node000027_Node000008" class="edge">
<title>Node27&#45;&gt;Node8</title>
<g id="a_edge39_Node000027_Node000008"><a xlink:title=" ">
<path fill="none" stroke="#63b8ff" d="M1524.94,-82.93C1512.51,-80.74 1499.64,-78.66 1487.5,-77 1310.21,-52.79 1262.7,-72.2 1086.5,-41 1078.36,-39.56 1069.81,-37.65 1061.54,-35.58"/>
<polygon fill="#63b8ff" stroke="#63b8ff" points="1524.32,-86.38 1534.78,-84.7 1525.56,-79.49 1524.32,-86.38"/>
</a>
</g>
</g>
<!-- Node27&#45;&gt;Node15 -->
<g id="edge41_Node000027_Node000015" class="edge">
<title>Node27&#45;&gt;Node15</title>
<g id="a_edge41_Node000027_Node000015"><a xlink:title=" ">
<path fill="none" stroke="#63b8ff" d="M1584.64,-72.78C1580.07,-60.53 1574.65,-46 1570.74,-35.54"/>
<polygon fill="#63b8ff" stroke="#63b8ff" points="1581.46,-74.25 1588.23,-82.39 1588.01,-71.8 1581.46,-74.25"/>
</a>
</g>
</g>
<!-- Node28 -->
<g id="Node000028" class="node">
<title>Node28</title>
<g id="a_Node000028"><a xlink:href="transport_2uds_2uds__server_8cc.html" target="_top" xlink:title=" ">
<polygon fill="white" stroke="#666666" points="1762,-35.5 1645,-35.5 1645,-5.5 1762,-5.5 1762,-35.5"/>
<text text-anchor="start" x="1653" y="-23.5" font-family="Helvetica,sans-Serif" font-size="10.00">unilink/transport/uds</text>
<text text-anchor="middle" x="1703.5" y="-12.5" font-family="Helvetica,sans-Serif" font-size="10.00">/uds_server.cc</text>
</a>
</g>
</g>
<!-- Node27&#45;&gt;Node28 -->
<g id="edge40_Node000027_Node000028" class="edge">
<title>Node27&#45;&gt;Node28</title>
<g id="a_edge40_Node000027_Node000028"><a xlink:title=" ">
<path fill="none" stroke="#63b8ff" d="M1622.5,-76.73C1641.5,-63.78 1665.87,-47.15 1682.9,-35.54"/>
<polygon fill="#63b8ff" stroke="#63b8ff" points="1620.48,-73.87 1614.19,-82.39 1624.42,-79.65 1620.48,-73.87"/>
</a>
</g>
</g>
</g>
</svg>

<g id="navigator" transform="translate(0 0)" fill="#404254">
  <rect fill="#f2f5e9" fill-opacity="0.5" stroke="#606060" stroke-width=".5" x="0" y="0" width="60" height="60"/>
  <use id="zoomplus" xlink:href="#zoomPlus" x="17" y="9" onmousedown="handleZoom(evt,'in')"/>
  <use id="zoomminus" xlink:href="#zoomMin" x="42" y="9" onmousedown="handleZoom(evt,'out')"/>
  <use id="reset" xlink:href="#resetDef" x="30" y="36" onmousedown="handleReset()"/>
   <use id="arrowup" xlink:href="#arrowUp" x="0" y="0" onmousedown="handlePan(0,-1)"/>
  <use id="arrowright" xlink:href="#arrowRight" x="0" y="0" onmousedown="handlePan(1,0)"/>
  <use id="arrowdown" xlink:href="#arrowDown" x="0" y="0" onmousedown="handlePan(0,1)"/>
  <use id="arrowleft" xlink:href="#arrowLeft" x="0" y="0" onmousedown="handlePan(-1,0)"/>
</g>
<svg viewBox="0 0 15 15" width="100%" height="30px" preserveAspectRatio="xMaxYMin meet">
 <g id="arrow_out" transform="scale(0.3 0.3)">
  <a xlink:href="exceptions_8hpp__dep__incl_org.svg" target="_base">
   <rect id="button" ry="5" rx="5" y="6" x="6" height="38" width="38"
        fill="#f2f5e9" fill-opacity="0.5" stroke="#606060" stroke-width="1.0"/>
   <path id="arrow"
     d="M 11.500037,31.436501 C 11.940474,20.09759 22.043105,11.32322 32.158766,21.979434 L 37.068811,17.246167 C 37.068811,17.246167 37.088388,32 37.088388,32 L 22.160133,31.978069 C 22.160133,31.978069 26.997745,27.140456 26.997745,27.140456 C 18.528582,18.264221 13.291696,25.230495 11.500037,31.436501 z"
     style="fill:#404040;"/>
  </a>
 </g>
</svg>

<style type='text/css'>
<![CDATA[
[data-mouse-over-selected='false'] { opacity: 0.7; }
[data-mouse-over-selected='true']  { opacity: 1.0; }
]]>
</style>
<script type="application/ecmascript"><![CDATA[
document.addEventListener('DOMContentLoaded', (event) => {
  highlightEdges();
  highlightAdjacentNodes();
});
]]></script>
</svg>
