<?xml version="1.0" encoding="UTF-8" standalone="no"?>
<!DOCTYPE svg PUBLIC "-//W3C//DTD SVG 1.1//EN"
 "http://www.w3.org/Graphics/SVG/1.1/DTD/svg11.dtd">
<!-- Generated by graphviz version 2.43.0 (0)
 -->
<!-- Title: unilink/builder/ibuilder.hpp Pages: 1 -->
<svg width="2036pt" height="335pt"
 viewBox="0.00 0.00 2036.47 335.00" xmlns="http://www.w3.org/2000/svg" xmlns:xlink="http://www.w3.org/1999/xlink">
<g id="graph0" class="graph" transform="scale(1 1) rotate(0) translate(4 331)">
<title>unilink/builder/ibuilder.hpp</title>
<!-- Node1 -->
<g id="Node000001" class="node">
<title>Node1</title>
<g id="a_Node000001"><a xlink:title=" ">
<polygon fill="#999999" stroke="#666666" points="623.5,-327 477.5,-327 477.5,-308 623.5,-308 623.5,-327"/>
<text text-anchor="middle" x="550.5" y="-315" font-family="Helvetica,sans-Serif" font-size="10.00">unilink/builder/ibuilder.hpp</text>
</a>
</g>
</g>
<!-- Node2 -->
<g id="Node000002" class="node">
<title>Node2</title>
<g id="a_Node000002"><a xlink:title=" ">
<polygon fill="#e0e0e0" stroke="#999999" points="1041,-79.5 976,-79.5 976,-60.5 1041,-60.5 1041,-79.5"/>
<text text-anchor="middle" x="1008.5" y="-67.5" font-family="Helvetica,sans-Serif" font-size="10.00">functional</text>
</a>
</g>
</g>
<!-- Node1&#45;&gt;Node2 -->
<g id="edge1_Node000001_Node000002" class="edge">
<title>Node1&#45;&gt;Node2</title>
<g id="a_edge1_Node000001_Node000002"><a xlink:title=" ">
<path fill="none" stroke="#63b8ff" d="M623.57,-317.19C760.71,-317.41 1065.66,-312.73 1318.5,-272 1523.82,-238.92 1643.88,-315.97 1770.5,-151 1778.62,-140.42 1779.61,-130.73 1770.5,-121 1758.11,-107.77 1210.64,-80.65 1051.47,-73.03"/>
<polygon fill="#63b8ff" stroke="#63b8ff" points="1051.28,-69.52 1041.13,-72.54 1050.95,-76.51 1051.28,-69.52"/>
</a>
</g>
</g>
<!-- Node3 -->
<g id="Node000003" class="node">
<title>Node3</title>
<g id="a_Node000003"><a xlink:title=" ">
<polygon fill="#e0e0e0" stroke="#999999" points="563.5,-79.5 505.5,-79.5 505.5,-60.5 563.5,-60.5 563.5,-79.5"/>
<text text-anchor="middle" x="534.5" y="-67.5" font-family="Helvetica,sans-Serif" font-size="10.00">memory</text>
</a>
</g>
</g>
<!-- Node1&#45;&gt;Node3 -->
<g id="edge2_Node000001_Node000003" class="edge">
<title>Node1&#45;&gt;Node3</title>
<g id="a_edge2_Node000001_Node000003"><a xlink:title=" ">
<path fill="none" stroke="#63b8ff" d="M477.43,-313.92C409.58,-307.13 312.22,-285.2 265.5,-217 232.66,-169.07 323.49,-124.34 329.5,-121 395.89,-84.16 423.59,-106.18 496.5,-85 498.78,-84.34 501.12,-83.61 503.46,-82.84"/>
<polygon fill="#63b8ff" stroke="#63b8ff" points="504.68,-86.12 512.97,-79.53 502.38,-79.51 504.68,-86.12"/>
</a>
</g>
</g>
<!-- Node4 -->
<g id="Node000004" class="node">
<title>Node4</title>
<g id="a_Node000004"><a xlink:title=" ">
<polygon fill="#e0e0e0" stroke="#999999" points="1804.5,-79.5 1760.5,-79.5 1760.5,-60.5 1804.5,-60.5 1804.5,-79.5"/>
<text text-anchor="middle" x="1782.5" y="-67.5" font-family="Helvetica,sans-Serif" font-size="10.00">string</text>
</a>
</g>
</g>
<!-- Node1&#45;&gt;Node4 -->
<g id="edge3_Node000001_Node000004" class="edge">
<title>Node1&#45;&gt;Node4</title>
<g id="a_edge3_Node000001_Node000004"><a xlink:title=" ">
<path fill="none" stroke="#63b8ff" d="M623.67,-317.05C805.95,-317.68 1294.77,-314.87 1699.5,-272 1841.26,-256.99 1923.75,-326.1 2015.5,-217 2078.3,-142.33 1892.3,-93.83 1814.75,-77.31"/>
<polygon fill="#63b8ff" stroke="#63b8ff" points="1815.07,-73.8 1804.57,-75.19 1813.64,-80.65 1815.07,-73.8"/>
</a>
</g>
</g>
<!-- Node5 -->
<g id="Node000005" class="node">
<title>Node5</title>
<g id="a_Node000005"><a xlink:title=" ">
<polygon fill="#e0e0e0" stroke="#999999" points="813,-79.5 740,-79.5 740,-60.5 813,-60.5 813,-79.5"/>
<text text-anchor="middle" x="776.5" y="-67.5" font-family="Helvetica,sans-Serif" font-size="10.00">string_view</text>
</a>
</g>
</g>
<!-- Node1&#45;&gt;Node5 -->
<g id="edge4_Node000001_Node000005" class="edge">
<title>Node1&#45;&gt;Node5</title>
<g id="a_edge4_Node000001_Node000005"><a xlink:title=" ">
<path fill="none" stroke="#63b8ff" d="M560.31,-307.79C579.18,-290.89 621.56,-252.23 654.5,-217 696.45,-172.13 741.84,-115.4 763.53,-87.72"/>
<polygon fill="#63b8ff" stroke="#63b8ff" points="766.54,-89.55 769.93,-79.51 761.02,-85.24 766.54,-89.55"/>
</a>
</g>
</g>
<!-- Node6 -->
<g id="Node000006" class="node">
<title>Node6</title>
<g id="a_Node000006"><a xlink:title=" ">
<polygon fill="#e0e0e0" stroke="#999999" points="629,-79.5 582,-79.5 582,-60.5 629,-60.5 629,-79.5"/>
<text text-anchor="middle" x="605.5" y="-67.5" font-family="Helvetica,sans-Serif" font-size="10.00">vector</text>
</a>
</g>
</g>
<!-- Node1&#45;&gt;Node6 -->
<g id="edge5_Node000001_Node000006" class="edge">
<title>Node1&#45;&gt;Node6</title>
<g id="a_edge5_Node000001_Node000006"><a xlink:title=" ">
<path fill="none" stroke="#63b8ff" d="M546.47,-307.84C537.23,-286.77 516.28,-231.31 529.5,-187 541.36,-147.26 571.67,-108.47 590.23,-87.36"/>
<polygon fill="#63b8ff" stroke="#63b8ff" points="593.06,-89.45 597.16,-79.68 587.86,-84.76 593.06,-89.45"/>
</a>
</g>
</g>
<!-- Node7 -->
<g id="Node000007" class="node">
<title>Node7</title>
<g id="a_Node000007"><a xlink:href="constants_8hpp.html" target="_top" xlink:title=" ">
<polygon fill="white" stroke="#666666" points="147,-272 0,-272 0,-253 147,-253 147,-272"/>
<text text-anchor="middle" x="73.5" y="-260" font-family="Helvetica,sans-Serif" font-size="10.00">unilink/base/constants.hpp</text>
</a>
</g>
</g>
<!-- Node1&#45;&gt;Node7 -->
<g id="edge6_Node000001_Node000007" class="edge">
<title>Node1&#45;&gt;Node7</title>
<g id="a_edge6_Node000001_Node000007"><a xlink:title=" ">
<path fill="none" stroke="#63b8ff" d="M477.27,-308.36C390.93,-298.77 247.74,-282.86 157.12,-272.79"/>
<polygon fill="#63b8ff" stroke="#63b8ff" points="157.48,-269.31 147.16,-271.68 156.71,-276.27 157.48,-269.31"/>
</a>
</g>
</g>
<!-- Node10 -->
<g id="Node000010" class="node">
<title>Node10</title>
<g id="a_Node000010"><a xlink:href="visibility_8hpp.html" target="_top" xlink:title=" ">
<polygon fill="white" stroke="#666666" points="487.5,-79.5 347.5,-79.5 347.5,-60.5 487.5,-60.5 487.5,-79.5"/>
<text text-anchor="middle" x="417.5" y="-67.5" font-family="Helvetica,sans-Serif" font-size="10.00">unilink/base/visibility.hpp</text>
</a>
</g>
</g>
<!-- Node1&#45;&gt;Node10 -->
<g id="edge9_Node000001_Node000010" class="edge">
<title>Node1&#45;&gt;Node10</title>
<g id="a_edge9_Node000001_Node000010"><a xlink:title=" ">
<path fill="none" stroke="#63b8ff" d="M477.3,-309.35C413.97,-302.13 328.06,-289.54 298.5,-272 271.58,-256.03 264.86,-246.54 254.5,-217 239.79,-175.06 250.35,-151.69 282.5,-121 302.94,-101.49 331.66,-89.46 357.35,-82.11"/>
<polygon fill="#63b8ff" stroke="#63b8ff" points="358.28,-85.49 367.03,-79.52 356.46,-78.72 358.28,-85.49"/>
</a>
</g>
</g>
<!-- Node11 -->
<g id="Node000011" class="node">
<title>Node11</title>
<g id="a_Node000011"><a xlink:href="iframer_8hpp.html" target="_top" xlink:title=" ">
<polygon fill="white" stroke="#666666" points="501,-145.5 356,-145.5 356,-126.5 501,-126.5 501,-145.5"/>
<text text-anchor="middle" x="428.5" y="-133.5" font-family="Helvetica,sans-Serif" font-size="10.00">unilink/framer/iframer.hpp</text>
</a>
</g>
</g>
<!-- Node1&#45;&gt;Node11 -->
<g id="edge10_Node000001_Node000011" class="edge">
<title>Node1&#45;&gt;Node11</title>
<g id="a_edge10_Node000001_Node000011"><a xlink:title=" ">
<path fill="none" stroke="#63b8ff" d="M536.9,-307.97C524.83,-299.87 507.33,-286.76 495.5,-272 465.74,-234.87 444.45,-182.36 434.62,-155.07"/>
<polygon fill="#63b8ff" stroke="#63b8ff" points="437.92,-153.91 431.31,-145.62 431.31,-156.22 437.92,-153.91"/>
</a>
</g>
</g>
<!-- Node12 -->
<g id="Node000012" class="node">
<title>Node12</title>
<g id="a_Node000012"><a xlink:href="safe__span_8hpp.html" target="_top" xlink:title=" ">
<polygon fill="white" stroke="#666666" points="1583.5,-85 1465.5,-85 1465.5,-55 1583.5,-55 1583.5,-85"/>
<text text-anchor="start" x="1473.5" y="-73" font-family="Helvetica,sans-Serif" font-size="10.00">unilink/memory/safe</text>
<text text-anchor="middle" x="1524.5" y="-62" font-family="Helvetica,sans-Serif" font-size="10.00">_span.hpp</text>
</a>
</g>
</g>
<!-- Node1&#45;&gt;Node12 -->
<g id="edge29_Node000001_Node000012" class="edge">
<title>Node1&#45;&gt;Node12</title>
<g id="a_edge29_Node000001_Node000012"><a xlink:title=" ">
<path fill="none" stroke="#63b8ff" d="M623.63,-314.27C911.37,-305.15 1952.08,-268.66 1998.5,-217 2055.68,-153.36 1738.44,-100.54 1593.64,-80.1"/>
<polygon fill="#63b8ff" stroke="#63b8ff" points="1593.91,-76.6 1583.52,-78.68 1592.94,-83.53 1593.91,-76.6"/>
</a>
</g>
</g>
<!-- Node15 -->
<g id="Node000015" class="node">
<title>Node15</title>
<g id="a_Node000015"><a xlink:href="line__framer_8hpp.html" target="_top" xlink:title=" ">
<polygon fill="white" stroke="#666666" points="645,-217 538,-217 538,-187 645,-187 645,-217"/>
<text text-anchor="start" x="546" y="-205" font-family="Helvetica,sans-Serif" font-size="10.00">unilink/framer/line</text>
<text text-anchor="middle" x="591.5" y="-194" font-family="Helvetica,sans-Serif" font-size="10.00">_framer.hpp</text>
</a>
</g>
</g>
<!-- Node1&#45;&gt;Node15 -->
<g id="edge19_Node000001_Node000015" class="edge">
<title>Node1&#45;&gt;Node15</title>
<g id="a_edge19_Node000001_Node000015"><a xlink:title=" ">
<path fill="none" stroke="#63b8ff" d="M553.58,-307.97C559.74,-290.93 573.74,-252.16 582.9,-226.8"/>
<polygon fill="#63b8ff" stroke="#63b8ff" points="586.27,-227.78 586.38,-217.18 579.69,-225.4 586.27,-227.78"/>
</a>
</g>
</g>
<!-- Node16 -->
<g id="Node000016" class="node">
<title>Node16</title>
<g id="a_Node000016"><a xlink:href="packet__framer_8hpp.html" target="_top" xlink:title=" ">
<polygon fill="white" stroke="#666666" points="396,-217 275,-217 275,-187 396,-187 396,-217"/>
<text text-anchor="start" x="283" y="-205" font-family="Helvetica,sans-Serif" font-size="10.00">unilink/framer/packet</text>
<text text-anchor="middle" x="335.5" y="-194" font-family="Helvetica,sans-Serif" font-size="10.00">_framer.hpp</text>
</a>
</g>
</g>
<!-- Node1&#45;&gt;Node16 -->
<g id="edge25_Node000001_Node000016" class="edge">
<title>Node1&#45;&gt;Node16</title>
<g id="a_edge25_Node000001_Node000016"><a xlink:title=" ">
<path fill="none" stroke="#63b8ff" d="M525.66,-307.89C503.17,-299.74 469.39,-286.6 441.5,-272 413.75,-257.47 384.02,-237.72 363.13,-223.07"/>
<polygon fill="#63b8ff" stroke="#63b8ff" points="364.93,-220.05 354.75,-217.13 360.89,-225.77 364.93,-220.05"/>
</a>
</g>
</g>
<!-- Node17 -->
<g id="Node000017" class="node">
<title>Node17</title>
<g id="a_Node000017"><a xlink:href="context_8hpp.html" target="_top" xlink:title=" ">
<polygon fill="white" stroke="#666666" points="1309,-272 1156,-272 1156,-253 1309,-253 1309,-272"/>
<text text-anchor="middle" x="1232.5" y="-260" font-family="Helvetica,sans-Serif" font-size="10.00">unilink/wrapper/context.hpp</text>
</a>
</g>
</g>
<!-- Node1&#45;&gt;Node17 -->
<g id="edge30_Node000001_Node000017" class="edge">
<title>Node1&#45;&gt;Node17</title>
<g id="a_edge30_Node000001_Node000017"><a xlink:title=" ">
<path fill="none" stroke="#63b8ff" d="M623.81,-310.8C750.55,-300.95 1010.04,-280.79 1145.63,-270.25"/>
<polygon fill="#63b8ff" stroke="#63b8ff" points="1146.27,-273.71 1155.97,-269.45 1145.73,-266.73 1146.27,-273.71"/>
</a>
</g>
</g>
<!-- Node8 -->
<g id="Node000008" class="node">
<title>Node8</title>
<g id="a_Node000008"><a xlink:title=" ">
<polygon fill="#e0e0e0" stroke="#999999" points="147,-211.5 94,-211.5 94,-192.5 147,-192.5 147,-211.5"/>
<text text-anchor="middle" x="120.5" y="-199.5" font-family="Helvetica,sans-Serif" font-size="10.00">cstddef</text>
</a>
</g>
</g>
<!-- Node7&#45;&gt;Node8 -->
<g id="edge7_Node000007_Node000008" class="edge">
<title>Node7&#45;&gt;Node8</title>
<g id="a_edge7_Node000007_Node000008"><a xlink:title=" ">
<path fill="none" stroke="#63b8ff" d="M80.44,-252.87C87.45,-244.14 98.46,-230.43 107.17,-219.59"/>
<polygon fill="#63b8ff" stroke="#63b8ff" points="110,-221.66 113.54,-211.67 104.54,-217.27 110,-221.66"/>
</a>
</g>
</g>
<!-- Node9 -->
<g id="Node000009" class="node">
<title>Node9</title>
<g id="a_Node000009"><a xlink:title=" ">
<polygon fill="#e0e0e0" stroke="#999999" points="1225.5,-19 1175.5,-19 1175.5,0 1225.5,0 1225.5,-19"/>
<text text-anchor="middle" x="1200.5" y="-7" font-family="Helvetica,sans-Serif" font-size="10.00">cstdint</text>
</a>
</g>
</g>
<!-- Node7&#45;&gt;Node9 -->
<g id="edge8_Node000007_Node000009" class="edge">
<title>Node7&#45;&gt;Node9</title>
<g id="a_edge8_Node000007_Node000009"><a xlink:title=" ">
<path fill="none" stroke="#63b8ff" d="M72.4,-252.76C70.99,-237.81 70.24,-207.02 84.5,-187 158.32,-83.39 215.73,-88.37 338.5,-55 498.11,-11.61 1023.41,-9.96 1165.05,-10.33"/>
<polygon fill="#63b8ff" stroke="#63b8ff" points="1165.31,-13.83 1175.32,-10.36 1165.33,-6.83 1165.31,-13.83"/>
</a>
</g>
</g>
<!-- Node11&#45;&gt;Node2 -->
<g id="edge11_Node000011_Node000002" class="edge">
<title>Node11&#45;&gt;Node2</title>
<g id="a_edge11_Node000011_Node000002"><a xlink:title=" ">
<path fill="none" stroke="#63b8ff" d="M501.02,-128.41C595.6,-119.6 766.14,-103.01 911.5,-85 929.26,-82.8 948.8,-80.04 965.66,-77.56"/>
<polygon fill="#63b8ff" stroke="#63b8ff" points="966.39,-80.99 975.77,-76.06 965.36,-74.07 966.39,-80.99"/>
</a>
</g>
</g>
<!-- Node11&#45;&gt;Node3 -->
<g id="edge12_Node000011_Node000003" class="edge">
<title>Node11&#45;&gt;Node3</title>
<g id="a_edge12_Node000011_Node000003"><a xlink:title=" ">
<path fill="none" stroke="#63b8ff" d="M442.8,-126.37C460.42,-115.73 490.59,-97.51 511.49,-84.89"/>
<polygon fill="#63b8ff" stroke="#63b8ff" points="513.34,-87.86 520.09,-79.7 509.72,-81.87 513.34,-87.86"/>
</a>
</g>
</g>
<!-- Node11&#45;&gt;Node6 -->
<g id="edge13_Node000011_Node000006" class="edge">
<title>Node11&#45;&gt;Node6</title>
<g id="a_edge13_Node000011_Node000006"><a xlink:title=" ">
<path fill="none" stroke="#63b8ff" d="M454.7,-126.49C483.71,-116.93 531.75,-100.7 572.5,-85 573.88,-84.47 575.29,-83.92 576.71,-83.35"/>
<polygon fill="#63b8ff" stroke="#63b8ff" points="578.13,-86.55 586.04,-79.51 575.46,-80.07 578.13,-86.55"/>
</a>
</g>
</g>
<!-- Node11&#45;&gt;Node10 -->
<g id="edge14_Node000011_Node000010" class="edge">
<title>Node11&#45;&gt;Node10</title>
<g id="a_edge14_Node000011_Node000010"><a xlink:title=" ">
<path fill="none" stroke="#63b8ff" d="M427.02,-126.37C425.42,-117.07 422.82,-101.98 420.75,-89.9"/>
<polygon fill="#63b8ff" stroke="#63b8ff" points="424.17,-89.17 419.03,-79.91 417.28,-90.35 424.17,-89.17"/>
</a>
</g>
</g>
<!-- Node11&#45;&gt;Node12 -->
<g id="edge15_Node000011_Node000012" class="edge">
<title>Node11&#45;&gt;Node12</title>
<g id="a_edge15_Node000011_Node000012"><a xlink:title=" ">
<path fill="none" stroke="#63b8ff" d="M501.06,-132.1C698.11,-124.1 1240.26,-101.24 1418.5,-85 1430.41,-83.91 1443.05,-82.49 1455.29,-80.96"/>
<polygon fill="#63b8ff" stroke="#63b8ff" points="1455.97,-84.4 1465.45,-79.66 1455.08,-77.46 1455.97,-84.4"/>
</a>
</g>
</g>
<!-- Node12&#45;&gt;Node9 -->
<g id="edge16_Node000012_Node000009" class="edge">
<title>Node12&#45;&gt;Node9</title>
<g id="a_edge16_Node000012_Node000009"><a xlink:title=" ">
<path fill="none" stroke="#63b8ff" d="M1465.45,-58.34C1398.23,-46.2 1290.64,-26.78 1235.53,-16.82"/>
<polygon fill="#63b8ff" stroke="#63b8ff" points="1236.01,-13.36 1225.55,-15.02 1234.77,-20.24 1236.01,-13.36"/>
</a>
</g>
</g>
<!-- Node13 -->
<g id="Node000013" class="node">
<title>Node13</title>
<g id="a_Node000013"><a xlink:title=" ">
<polygon fill="#e0e0e0" stroke="#999999" points="1644,-19 1579,-19 1579,0 1644,0 1644,-19"/>
<text text-anchor="middle" x="1611.5" y="-7" font-family="Helvetica,sans-Serif" font-size="10.00">stdexcept</text>
</a>
</g>
</g>
<!-- Node12&#45;&gt;Node13 -->
<g id="edge17_Node000012_Node000013" class="edge">
<title>Node12&#45;&gt;Node13</title>
<g id="a_edge17_Node000012_Node000013"><a xlink:title=" ">
<path fill="none" stroke="#63b8ff" d="M1545.56,-54.84C1559.04,-45.77 1576.49,-34.04 1590.05,-24.92"/>
<polygon fill="#63b8ff" stroke="#63b8ff" points="1592.37,-27.58 1598.72,-19.09 1588.47,-21.77 1592.37,-27.58"/>
</a>
</g>
</g>
<!-- Node14 -->
<g id="Node000014" class="node">
<title>Node14</title>
<g id="a_Node000014"><a xlink:title=" ">
<polygon fill="#e0e0e0" stroke="#999999" points="1515,-19 1446,-19 1446,0 1515,0 1515,-19"/>
<text text-anchor="middle" x="1480.5" y="-7" font-family="Helvetica,sans-Serif" font-size="10.00">type_traits</text>
</a>
</g>
</g>
<!-- Node12&#45;&gt;Node14 -->
<g id="edge18_Node000012_Node000014" class="edge">
<title>Node12&#45;&gt;Node14</title>
<g id="a_edge18_Node000012_Node000014"><a xlink:title=" ">
<path fill="none" stroke="#63b8ff" d="M1513.85,-54.84C1507.66,-46.61 1499.81,-36.18 1493.29,-27.51"/>
<polygon fill="#63b8ff" stroke="#63b8ff" points="1495.9,-25.15 1487.09,-19.27 1490.31,-29.36 1495.9,-25.15"/>
</a>
</g>
</g>
<!-- Node15&#45;&gt;Node4 -->
<g id="edge20_Node000015_Node000004" class="edge">
<title>Node15&#45;&gt;Node4</title>
<g id="a_edge20_Node000015_Node000004"><a xlink:title=" ">
<path fill="none" stroke="#63b8ff" d="M645.06,-199.17C784.26,-194.08 1154.9,-178.31 1274.5,-151 1309.9,-142.92 1315.28,-129.83 1350.5,-121 1426.6,-101.92 1663.86,-80.87 1750.46,-73.62"/>
<polygon fill="#63b8ff" stroke="#63b8ff" points="1750.81,-77.1 1760.48,-72.78 1750.23,-70.13 1750.81,-77.1"/>
</a>
</g>
</g>
<!-- Node15&#45;&gt;Node5 -->
<g id="edge21_Node000015_Node000005" class="edge">
<title>Node15&#45;&gt;Node5</title>
<g id="a_edge21_Node000015_Node000005"><a xlink:title=" ">
<path fill="none" stroke="#63b8ff" d="M611.65,-186.84C647.05,-161.97 720.02,-110.69 755.8,-85.55"/>
<polygon fill="#63b8ff" stroke="#63b8ff" points="757.88,-88.36 764.05,-79.75 753.86,-82.63 757.88,-88.36"/>
</a>
</g>
</g>
<!-- Node15&#45;&gt;Node6 -->
<g id="edge22_Node000015_Node000006" class="edge">
<title>Node15&#45;&gt;Node6</title>
<g id="a_edge22_Node000015_Node000006"><a xlink:title=" ">
<path fill="none" stroke="#63b8ff" d="M590.34,-186.76C589.29,-170.7 588.36,-143.84 591.5,-121 592.96,-110.34 596.1,-98.76 599.04,-89.43"/>
<polygon fill="#63b8ff" stroke="#63b8ff" points="602.44,-90.29 602.28,-79.7 595.8,-88.08 602.44,-90.29"/>
</a>
</g>
</g>
<!-- Node15&#45;&gt;Node10 -->
<g id="edge23_Node000015_Node000010" class="edge">
<title>Node15&#45;&gt;Node10</title>
<g id="a_edge23_Node000015_Node000010"><a xlink:title=" ">
<path fill="none" stroke="#63b8ff" d="M537.87,-197.77C473.19,-192.62 370.18,-180 346.5,-151 326.87,-126.96 363.12,-100.22 390.66,-84.54"/>
<polygon fill="#63b8ff" stroke="#63b8ff" points="392.48,-87.54 399.58,-79.67 389.12,-81.4 392.48,-87.54"/>
</a>
</g>
</g>
<!-- Node15&#45;&gt;Node11 -->
<g id="edge24_Node000015_Node000011" class="edge">
<title>Node15&#45;&gt;Node11</title>
<g id="a_edge24_Node000015_Node000011"><a xlink:title=" ">
<path fill="none" stroke="#63b8ff" d="M555.73,-186.95C527.02,-175.68 487.11,-160.01 459.69,-149.25"/>
<polygon fill="#63b8ff" stroke="#63b8ff" points="460.78,-145.91 450.19,-145.52 458.22,-152.43 460.78,-145.91"/>
</a>
</g>
</g>
<!-- Node16&#45;&gt;Node6 -->
<g id="edge26_Node000016_Node000006" class="edge">
<title>Node16&#45;&gt;Node6</title>
<g id="a_edge26_Node000016_Node000006"><a xlink:title=" ">
<path fill="none" stroke="#63b8ff" d="M332.91,-187C330.49,-169.13 329.44,-138.43 346.5,-121 417.65,-48.32 474.74,-113.07 572.5,-85 574.38,-84.46 576.3,-83.84 578.22,-83.17"/>
<polygon fill="#63b8ff" stroke="#63b8ff" points="579.58,-86.4 587.63,-79.51 577.04,-79.87 579.58,-86.4"/>
</a>
</g>
</g>
<!-- Node16&#45;&gt;Node10 -->
<g id="edge27_Node000016_Node000010" class="edge">
<title>Node16&#45;&gt;Node10</title>
<g id="a_edge27_Node000016_Node000010"><a xlink:title=" ">
<path fill="none" stroke="#63b8ff" d="M311.87,-186.72C288.66,-170.85 258.95,-144.38 275.5,-121 290.04,-100.47 313.71,-88.31 337.6,-81.13"/>
<polygon fill="#63b8ff" stroke="#63b8ff" points="338.74,-84.45 347.46,-78.43 336.89,-77.69 338.74,-84.45"/>
</a>
</g>
</g>
<!-- Node16&#45;&gt;Node11 -->
<g id="edge28_Node000016_Node000011" class="edge">
<title>Node16&#45;&gt;Node11</title>
<g id="a_edge28_Node000016_Node000011"><a xlink:title=" ">
<path fill="none" stroke="#63b8ff" d="M356.14,-186.8C371.44,-176.27 392.21,-161.97 407.58,-151.4"/>
<polygon fill="#63b8ff" stroke="#63b8ff" points="409.66,-154.21 415.92,-145.66 405.7,-148.44 409.66,-154.21"/>
</a>
</g>
</g>
<!-- Node17&#45;&gt;Node4 -->
<g id="edge32_Node000017_Node000004" class="edge">
<title>Node17&#45;&gt;Node4</title>
<g id="a_edge32_Node000017_Node000004"><a xlink:title=" ">
<path fill="none" stroke="#63b8ff" d="M1309.29,-258.56C1423.18,-253.47 1630.99,-241.15 1701.5,-217 1753.29,-199.26 1779.13,-198.97 1805.5,-151 1816.44,-131.1 1805.28,-105.48 1795.03,-88.67"/>
<polygon fill="#63b8ff" stroke="#63b8ff" points="1797.69,-86.34 1789.28,-79.9 1791.84,-90.18 1797.69,-86.34"/>
</a>
</g>
</g>
<!-- Node17&#45;&gt;Node5 -->
<g id="edge33_Node000017_Node000005" class="edge">
<title>Node17&#45;&gt;Node5</title>
<g id="a_edge33_Node000017_Node000005"><a xlink:title=" ">
<path fill="none" stroke="#63b8ff" d="M1156.21,-252.98C1042.05,-238.59 834.97,-205.58 786.5,-151 771.79,-134.44 771.45,-107.78 773.33,-89.84"/>
<polygon fill="#63b8ff" stroke="#63b8ff" points="776.82,-90.12 774.72,-79.73 769.89,-89.16 776.82,-90.12"/>
</a>
</g>
</g>
<!-- Node17&#45;&gt;Node6 -->
<g id="edge34_Node000017_Node000006" class="edge">
<title>Node17&#45;&gt;Node6</title>
<g id="a_edge34_Node000017_Node000006"><a xlink:title=" ">
<path fill="none" stroke="#63b8ff" d="M1155.94,-259.54C1077.3,-255.93 951.95,-245.74 847.5,-217 778.45,-198 761.14,-189.1 700.5,-151 670.26,-132 639.38,-104.1 621.35,-86.77"/>
<polygon fill="#63b8ff" stroke="#63b8ff" points="623.62,-84.09 614.02,-79.62 618.74,-89.1 623.62,-84.09"/>
</a>
</g>
</g>
<!-- Node17&#45;&gt;Node12 -->
<g id="edge74_Node000017_Node000012" class="edge">
<title>Node17&#45;&gt;Node12</title>
<g id="a_edge74_Node000017_Node000012"><a xlink:title=" ">
<path fill="none" stroke="#63b8ff" d="M1309,-258.01C1447.02,-249.93 1728.81,-224.6 1787.5,-151 1841.18,-83.67 1688.56,-71.51 1593.76,-70.2"/>
<polygon fill="#63b8ff" stroke="#63b8ff" points="1593.68,-66.7 1583.65,-70.09 1593.61,-73.7 1593.68,-66.7"/>
</a>
</g>
</g>
<!-- Node18 -->
<g id="Node000018" class="node">
<title>Node18</title>
<g id="a_Node000018"><a xlink:title=" ">
<polygon fill="#e0e0e0" stroke="#999999" points="1260.5,-211.5 1204.5,-211.5 1204.5,-192.5 1260.5,-192.5 1260.5,-211.5"/>
<text text-anchor="middle" x="1232.5" y="-199.5" font-family="Helvetica,sans-Serif" font-size="10.00">optional</text>
</a>
</g>
</g>
<!-- Node17&#45;&gt;Node18 -->
<g id="edge31_Node000017_Node000018" class="edge">
<title>Node17&#45;&gt;Node18</title>
<g id="a_edge31_Node000017_Node000018"><a xlink:title=" ">
<path fill="none" stroke="#63b8ff" d="M1232.5,-252.87C1232.5,-244.75 1232.5,-232.31 1232.5,-221.89"/>
<polygon fill="#63b8ff" stroke="#63b8ff" points="1236,-221.67 1232.5,-211.67 1229,-221.67 1236,-221.67"/>
</a>
</g>
</g>
<!-- Node19 -->
<g id="Node000019" class="node">
<title>Node19</title>
<g id="a_Node000019"><a xlink:href="common_8hpp.html" target="_top" xlink:title=" ">
<polygon fill="white" stroke="#666666" points="1489,-211.5 1346,-211.5 1346,-192.5 1489,-192.5 1489,-211.5"/>
<text text-anchor="middle" x="1417.5" y="-199.5" font-family="Helvetica,sans-Serif" font-size="10.00">unilink/base/common.hpp</text>
</a>
</g>
</g>
<!-- Node17&#45;&gt;Node19 -->
<g id="edge35_Node000017_Node000019" class="edge">
<title>Node17&#45;&gt;Node19</title>
<g id="a_edge35_Node000017_Node000019"><a xlink:title=" ">
<path fill="none" stroke="#63b8ff" d="M1259.4,-252.99C1291.46,-242.86 1345.18,-225.87 1380.98,-214.55"/>
<polygon fill="#63b8ff" stroke="#63b8ff" points="1382.09,-217.87 1390.57,-211.52 1379.98,-211.19 1382.09,-217.87"/>
</a>
</g>
</g>
<!-- Node30 -->
<g id="Node000030" class="node">
<title>Node30</title>
<g id="a_Node000030"><a xlink:href="error__codes_8hpp.html" target="_top" xlink:title=" ">
<polygon fill="white" stroke="#666666" points="1989.5,-217 1887.5,-217 1887.5,-187 1989.5,-187 1989.5,-217"/>
<text text-anchor="start" x="1895.5" y="-205" font-family="Helvetica,sans-Serif" font-size="10.00">unilink/base/error</text>
<text text-anchor="middle" x="1938.5" y="-194" font-family="Helvetica,sans-Serif" font-size="10.00">_codes.hpp</text>
</a>
</g>
</g>
<!-- Node17&#45;&gt;Node30 -->
<g id="edge61_Node000017_Node000030" class="edge">
<title>Node17&#45;&gt;Node30</title>
<g id="a_edge61_Node000017_Node000030"><a xlink:title=" ">
<path fill="none" stroke="#63b8ff" d="M1309.26,-257.35C1423.96,-250.81 1646.8,-236.77 1835.5,-217 1849.02,-215.58 1863.49,-213.79 1877.2,-211.96"/>
<polygon fill="#63b8ff" stroke="#63b8ff" points="1878.06,-215.38 1887.49,-210.56 1877.11,-208.44 1878.06,-215.38"/>
</a>
</g>
</g>
<!-- Node31 -->
<g id="Node000031" class="node">
<title>Node31</title>
<g id="a_Node000031"><a xlink:href="safe__data__buffer_8hpp.html" target="_top" xlink:title=" ">
<polygon fill="white" stroke="#666666" points="1067.5,-151 949.5,-151 949.5,-121 1067.5,-121 1067.5,-151"/>
<text text-anchor="start" x="957.5" y="-139" font-family="Helvetica,sans-Serif" font-size="10.00">unilink/memory/safe</text>
<text text-anchor="middle" x="1008.5" y="-128" font-family="Helvetica,sans-Serif" font-size="10.00">_data_buffer.hpp</text>
</a>
</g>
</g>
<!-- Node17&#45;&gt;Node31 -->
<g id="edge63_Node000017_Node000031" class="edge">
<title>Node17&#45;&gt;Node31</title>
<g id="a_edge63_Node000017_Node000031"><a xlink:title=" ">
<path fill="none" stroke="#63b8ff" d="M1217.1,-252.94C1181.45,-233.12 1092.48,-183.67 1043.02,-156.19"/>
<polygon fill="#63b8ff" stroke="#63b8ff" points="1044.42,-152.96 1033.98,-151.16 1041.02,-159.08 1044.42,-152.96"/>
</a>
</g>
</g>
<!-- Node19&#45;&gt;Node2 -->
<g id="edge40_Node000019_Node000002" class="edge">
<title>Node19&#45;&gt;Node2</title>
<g id="a_edge40_Node000019_Node000002"><a xlink:title=" ">
<path fill="none" stroke="#63b8ff" d="M1345.8,-193.36C1269.67,-184.5 1154.86,-168.83 1114.5,-151 1094.82,-142.31 1093.61,-134.04 1076.5,-121 1060.63,-108.91 1042.4,-95.53 1028.82,-85.66"/>
<polygon fill="#63b8ff" stroke="#63b8ff" points="1030.78,-82.76 1020.63,-79.73 1026.67,-88.43 1030.78,-82.76"/>
</a>
</g>
</g>
<!-- Node19&#45;&gt;Node4 -->
<g id="edge45_Node000019_Node000004" class="edge">
<title>Node19&#45;&gt;Node4</title>
<g id="a_edge45_Node000019_Node000004"><a xlink:title=" ">
<path fill="none" stroke="#63b8ff" d="M1489.19,-196.33C1591.23,-188.94 1768.2,-173.09 1787.5,-151 1802.2,-134.18 1796.5,-107.01 1790.2,-89.07"/>
<polygon fill="#63b8ff" stroke="#63b8ff" points="1793.46,-87.78 1786.58,-79.73 1786.93,-90.32 1793.46,-87.78"/>
</a>
</g>
</g>
<!-- Node19&#45;&gt;Node5 -->
<g id="edge46_Node000019_Node000005" class="edge">
<title>Node19&#45;&gt;Node5</title>
<g id="a_edge46_Node000019_Node000005"><a xlink:title=" ">
<path fill="none" stroke="#63b8ff" d="M1345.63,-193.98C1321.45,-191.67 1294.31,-189.16 1269.5,-187 1218.98,-182.61 856.27,-179.77 814.5,-151 793.86,-136.78 784.1,-108.24 779.73,-89.37"/>
<polygon fill="#63b8ff" stroke="#63b8ff" points="783.16,-88.67 777.74,-79.57 776.3,-90.06 783.16,-88.67"/>
</a>
</g>
</g>
<!-- Node19&#45;&gt;Node6 -->
<g id="edge48_Node000019_Node000006" class="edge">
<title>Node19&#45;&gt;Node6</title>
<g id="a_edge48_Node000019_Node000006"><a xlink:title=" ">
<path fill="none" stroke="#63b8ff" d="M1345.64,-193.91C1321.45,-191.6 1294.32,-189.1 1269.5,-187 1055,-168.86 995.32,-203.27 786.5,-151 727.35,-136.19 663.22,-103.47 629.44,-84.78"/>
<polygon fill="#63b8ff" stroke="#63b8ff" points="630.8,-81.53 620.36,-79.69 627.37,-87.63 630.8,-81.53"/>
</a>
</g>
</g>
<!-- Node19&#45;&gt;Node9 -->
<g id="edge37_Node000019_Node000009" class="edge">
<title>Node19&#45;&gt;Node9</title>
<g id="a_edge37_Node000019_Node000009"><a xlink:title=" ">
<path fill="none" stroke="#63b8ff" d="M1404.83,-192.19C1391.12,-182.5 1368.75,-166.28 1350.5,-151 1299.42,-108.24 1243.07,-53.13 1216.3,-26.42"/>
<polygon fill="#63b8ff" stroke="#63b8ff" points="1218.52,-23.69 1208.98,-19.09 1213.57,-28.64 1218.52,-23.69"/>
</a>
</g>
</g>
<!-- Node19&#45;&gt;Node13 -->
<g id="edge44_Node000019_Node000013" class="edge">
<title>Node19&#45;&gt;Node13</title>
<g id="a_edge44_Node000019_Node000013"><a xlink:title=" ">
<path fill="none" stroke="#63b8ff" d="M1489.23,-201.86C1589.08,-201.44 1762.56,-194.26 1805.5,-151 1835.66,-120.61 1840.32,-88.37 1813.5,-55 1793.94,-30.66 1707.74,-18.85 1654.46,-13.78"/>
<polygon fill="#63b8ff" stroke="#63b8ff" points="1654.55,-10.28 1644.27,-12.86 1653.92,-17.25 1654.55,-10.28"/>
</a>
</g>
</g>
<!-- Node20 -->
<g id="Node000020" class="node">
<title>Node20</title>
<g id="a_Node000020"><a xlink:title=" ">
<polygon fill="#e0e0e0" stroke="#999999" points="1409.5,-79.5 1359.5,-79.5 1359.5,-60.5 1409.5,-60.5 1409.5,-79.5"/>
<text text-anchor="middle" x="1384.5" y="-67.5" font-family="Helvetica,sans-Serif" font-size="10.00">chrono</text>
</a>
</g>
</g>
<!-- Node19&#45;&gt;Node20 -->
<g id="edge36_Node000019_Node000020" class="edge">
<title>Node19&#45;&gt;Node20</title>
<g id="a_edge36_Node000019_Node000020"><a xlink:title=" ">
<path fill="none" stroke="#63b8ff" d="M1489.3,-201.45C1581.77,-200.31 1734.84,-192.07 1770.5,-151 1779.24,-140.93 1779.37,-130.95 1770.5,-121 1723.75,-68.58 1525.91,-95.71 1456.5,-85 1444.43,-83.14 1431.3,-80.71 1419.59,-78.39"/>
<polygon fill="#63b8ff" stroke="#63b8ff" points="1420.23,-74.95 1409.74,-76.41 1418.85,-81.81 1420.23,-74.95"/>
</a>
</g>
</g>
<!-- Node21 -->
<g id="Node000021" class="node">
<title>Node21</title>
<g id="a_Node000021"><a xlink:title=" ">
<polygon fill="#e0e0e0" stroke="#999999" points="1409.5,-145.5 1359.5,-145.5 1359.5,-126.5 1409.5,-126.5 1409.5,-145.5"/>
<text text-anchor="middle" x="1384.5" y="-133.5" font-family="Helvetica,sans-Serif" font-size="10.00">cstring</text>
</a>
</g>
</g>
<!-- Node19&#45;&gt;Node21 -->
<g id="edge38_Node000019_Node000021" class="edge">
<title>Node19&#45;&gt;Node21</title>
<g id="a_edge38_Node000019_Node000021"><a xlink:title=" ">
<path fill="none" stroke="#63b8ff" d="M1413.05,-192.37C1408.11,-182.78 1399.99,-167.05 1393.68,-154.8"/>
<polygon fill="#63b8ff" stroke="#63b8ff" points="1396.79,-153.19 1389.09,-145.91 1390.56,-156.4 1396.79,-153.19"/>
</a>
</g>
</g>
<!-- Node22 -->
<g id="Node000022" class="node">
<title>Node22</title>
<g id="a_Node000022"><a xlink:title=" ">
<polygon fill="#e0e0e0" stroke="#999999" points="1471.5,-145.5 1427.5,-145.5 1427.5,-126.5 1471.5,-126.5 1471.5,-145.5"/>
<text text-anchor="middle" x="1449.5" y="-133.5" font-family="Helvetica,sans-Serif" font-size="10.00">ctime</text>
</a>
</g>
</g>
<!-- Node19&#45;&gt;Node22 -->
<g id="edge39_Node000019_Node000022" class="edge">
<title>Node19&#45;&gt;Node22</title>
<g id="a_edge39_Node000019_Node000022"><a xlink:title=" ">
<path fill="none" stroke="#63b8ff" d="M1421.82,-192.37C1426.56,-182.88 1434.32,-167.36 1440.42,-155.16"/>
<polygon fill="#63b8ff" stroke="#63b8ff" points="1443.71,-156.41 1445.05,-145.91 1437.44,-153.28 1443.71,-156.41"/>
</a>
</g>
</g>
<!-- Node23 -->
<g id="Node000023" class="node">
<title>Node23</title>
<g id="a_Node000023"><a xlink:title=" ">
<polygon fill="#e0e0e0" stroke="#999999" points="1545.5,-145.5 1489.5,-145.5 1489.5,-126.5 1545.5,-126.5 1545.5,-145.5"/>
<text text-anchor="middle" x="1517.5" y="-133.5" font-family="Helvetica,sans-Serif" font-size="10.00">iomanip</text>
</a>
</g>
</g>
<!-- Node19&#45;&gt;Node23 -->
<g id="edge41_Node000019_Node000023" class="edge">
<title>Node19&#45;&gt;Node23</title>
<g id="a_edge41_Node000019_Node000023"><a xlink:title=" ">
<path fill="none" stroke="#63b8ff" d="M1430.99,-192.37C1447.46,-181.82 1475.57,-163.84 1495.26,-151.23"/>
<polygon fill="#63b8ff" stroke="#63b8ff" points="1497.37,-154.04 1503.91,-145.7 1493.6,-148.14 1497.37,-154.04"/>
</a>
</g>
</g>
<!-- Node24 -->
<g id="Node000024" class="node">
<title>Node24</title>
<g id="a_Node000024"><a xlink:title=" ">
<polygon fill="#e0e0e0" stroke="#999999" points="1623.5,-145.5 1563.5,-145.5 1563.5,-126.5 1623.5,-126.5 1623.5,-145.5"/>
<text text-anchor="middle" x="1593.5" y="-133.5" font-family="Helvetica,sans-Serif" font-size="10.00">iostream</text>
</a>
</g>
</g>
<!-- Node19&#45;&gt;Node24 -->
<g id="edge42_Node000019_Node000024" class="edge">
<title>Node19&#45;&gt;Node24</title>
<g id="a_edge42_Node000019_Node000024"><a xlink:title=" ">
<path fill="none" stroke="#63b8ff" d="M1441.24,-192.37C1471.89,-181.22 1525.43,-161.75 1560.16,-149.12"/>
<polygon fill="#63b8ff" stroke="#63b8ff" points="1561.66,-152.3 1569.86,-145.6 1559.27,-145.72 1561.66,-152.3"/>
</a>
</g>
</g>
<!-- Node25 -->
<g id="Node000025" class="node">
<title>Node25</title>
<g id="a_Node000025"><a xlink:title=" ">
<polygon fill="#e0e0e0" stroke="#999999" points="1697.5,-145.5 1641.5,-145.5 1641.5,-126.5 1697.5,-126.5 1697.5,-145.5"/>
<text text-anchor="middle" x="1669.5" y="-133.5" font-family="Helvetica,sans-Serif" font-size="10.00">sstream</text>
</a>
</g>
</g>
<!-- Node19&#45;&gt;Node25 -->
<g id="edge43_Node000019_Node000025" class="edge">
<title>Node19&#45;&gt;Node25</title>
<g id="a_edge43_Node000019_Node000025"><a xlink:title=" ">
<path fill="none" stroke="#63b8ff" d="M1462.01,-192.45C1505.82,-183.62 1574.38,-168.67 1632.5,-151 1634.42,-150.42 1636.39,-149.78 1638.36,-149.12"/>
<polygon fill="#63b8ff" stroke="#63b8ff" points="1639.9,-152.29 1648.15,-145.63 1637.55,-145.69 1639.9,-152.29"/>
</a>
</g>
</g>
<!-- Node26 -->
<g id="Node000026" class="node">
<title>Node26</title>
<g id="a_Node000026"><a xlink:title=" ">
<polygon fill="#e0e0e0" stroke="#999999" points="1761,-145.5 1716,-145.5 1716,-126.5 1761,-126.5 1761,-145.5"/>
<text text-anchor="middle" x="1738.5" y="-133.5" font-family="Helvetica,sans-Serif" font-size="10.00">utility</text>
</a>
</g>
</g>
<!-- Node19&#45;&gt;Node26 -->
<g id="edge47_Node000019_Node000026" class="edge">
<title>Node19&#45;&gt;Node26</title>
<g id="a_edge47_Node000019_Node000026"><a xlink:title=" ">
<path fill="none" stroke="#63b8ff" d="M1489.27,-193.46C1548.44,-186.1 1634.08,-172.76 1706.5,-151 1708.14,-150.51 1709.8,-149.95 1711.47,-149.36"/>
<polygon fill="#63b8ff" stroke="#63b8ff" points="1712.85,-152.58 1720.85,-145.63 1710.26,-146.07 1712.85,-152.58"/>
</a>
</g>
</g>
<!-- Node27 -->
<g id="Node000027" class="node">
<title>Node27</title>
<g id="a_Node000027"><a xlink:href="platform_8hpp.html" target="_top" xlink:title=" ">
<polygon fill="white" stroke="#666666" points="1265.5,-145.5 1123.5,-145.5 1123.5,-126.5 1265.5,-126.5 1265.5,-145.5"/>
<text text-anchor="middle" x="1194.5" y="-133.5" font-family="Helvetica,sans-Serif" font-size="10.00">unilink/base/platform.hpp</text>
</a>
</g>
</g>
<!-- Node19&#45;&gt;Node27 -->
<g id="edge49_Node000019_Node000027" class="edge">
<title>Node19&#45;&gt;Node27</title>
<g id="a_edge49_Node000019_Node000027"><a xlink:title=" ">
<path fill="none" stroke="#63b8ff" d="M1387.43,-192.37C1347.83,-181 1278.11,-161 1234.21,-148.4"/>
<polygon fill="#63b8ff" stroke="#63b8ff" points="1235.03,-144.99 1224.45,-145.6 1233.1,-151.72 1235.03,-144.99"/>
</a>
</g>
</g>
<!-- Node28 -->
<g id="Node000028" class="node">
<title>Node28</title>
<g id="a_Node000028"><a xlink:href="logger_8hpp.html" target="_top" xlink:title=" ">
<polygon fill="white" stroke="#666666" points="931.5,-151 823.5,-151 823.5,-121 931.5,-121 931.5,-151"/>
<text text-anchor="start" x="831.5" y="-139" font-family="Helvetica,sans-Serif" font-size="10.00">unilink/diagnostics</text>
<text text-anchor="middle" x="877.5" y="-128" font-family="Helvetica,sans-Serif" font-size="10.00">/logger.hpp</text>
</a>
</g>
</g>
<!-- Node19&#45;&gt;Node28 -->
<g id="edge52_Node000019_Node000028" class="edge">
<title>Node19&#45;&gt;Node28</title>
<g id="a_edge52_Node000019_Node000028"><a xlink:title=" ">
<path fill="none" stroke="#63b8ff" d="M1345.54,-193.92C1229.09,-182.39 1006.54,-160.06 941.65,-150.95"/>
<polygon fill="#63b8ff" stroke="#63b8ff" points="942.13,-147.49 931.72,-149.46 941.09,-154.41 942.13,-147.49"/>
</a>
</g>
</g>
<!-- Node27&#45;&gt;Node4 -->
<g id="edge50_Node000027_Node000004" class="edge">
<title>Node27&#45;&gt;Node4</title>
<g id="a_edge50_Node000027_Node000004"><a xlink:title=" ">
<path fill="none" stroke="#63b8ff" d="M1242.97,-126.47C1254.89,-124.52 1267.64,-122.56 1279.5,-121 1371.43,-108.87 1654.35,-82.7 1750.29,-73.93"/>
<polygon fill="#63b8ff" stroke="#63b8ff" points="1750.63,-77.41 1760.28,-73.02 1750,-70.44 1750.63,-77.41"/>
</a>
</g>
</g>
<!-- Node27&#45;&gt;Node10 -->
<g id="edge51_Node000027_Node000010" class="edge">
<title>Node27&#45;&gt;Node10</title>
<g id="a_edge51_Node000027_Node000010"><a xlink:title=" ">
<path fill="none" stroke="#63b8ff" d="M1128.41,-126.5C1111.51,-124.5 1093.35,-122.52 1076.5,-121 819.27,-97.78 752.96,-115.58 496.5,-85 488.05,-83.99 479.13,-82.67 470.46,-81.24"/>
<polygon fill="#63b8ff" stroke="#63b8ff" points="470.87,-77.76 460.42,-79.52 469.69,-84.66 470.87,-77.76"/>
</a>
</g>
</g>
<!-- Node28&#45;&gt;Node2 -->
<g id="edge55_Node000028_Node000002" class="edge">
<title>Node28&#45;&gt;Node2</title>
<g id="a_edge55_Node000028_Node000002"><a xlink:title=" ">
<path fill="none" stroke="#63b8ff" d="M906.25,-120.95C928.82,-109.93 959.99,-94.7 981.97,-83.96"/>
<polygon fill="#63b8ff" stroke="#63b8ff" points="983.62,-87.05 991.07,-79.52 980.54,-80.76 983.62,-87.05"/>
</a>
</g>
</g>
<!-- Node28&#45;&gt;Node3 -->
<g id="edge56_Node000028_Node000003" class="edge">
<title>Node28&#45;&gt;Node3</title>
<g id="a_edge56_Node000028_Node000003"><a xlink:title=" ">
<path fill="none" stroke="#63b8ff" d="M823.34,-129.11C762.06,-121.74 659.57,-107.33 573.5,-85 571,-84.35 568.44,-83.61 565.88,-82.81"/>
<polygon fill="#63b8ff" stroke="#63b8ff" points="566.74,-79.41 556.15,-79.56 564.52,-86.05 566.74,-79.41"/>
</a>
</g>
</g>
<!-- Node28&#45;&gt;Node4 -->
<g id="edge57_Node000028_Node000004" class="edge">
<title>Node28&#45;&gt;Node4</title>
<g id="a_edge57_Node000028_Node000004"><a xlink:title=" ">
<path fill="none" stroke="#63b8ff" d="M931.69,-122.37C934.66,-121.86 937.61,-121.4 940.5,-121 1228,-81.39 1302.88,-103.66 1592.5,-85 1647.78,-81.44 1712.04,-76.54 1749.88,-73.59"/>
<polygon fill="#63b8ff" stroke="#63b8ff" points="1750.58,-77.04 1760.28,-72.77 1750.04,-70.06 1750.58,-77.04"/>
</a>
</g>
</g>
<!-- Node28&#45;&gt;Node5 -->
<g id="edge58_Node000028_Node000005" class="edge">
<title>Node28&#45;&gt;Node5</title>
<g id="a_edge58_Node000028_Node000005"><a xlink:title=" ">
<path fill="none" stroke="#63b8ff" d="M855.08,-120.8C838.31,-110.17 815.49,-95.7 798.75,-85.1"/>
<polygon fill="#63b8ff" stroke="#63b8ff" points="800.48,-82.05 790.16,-79.66 796.74,-87.97 800.48,-82.05"/>
</a>
</g>
</g>
<!-- Node28&#45;&gt;Node6 -->
<g id="edge59_Node000028_Node000006" class="edge">
<title>Node28&#45;&gt;Node6</title>
<g id="a_edge59_Node000028_Node000006"><a xlink:title=" ">
<path fill="none" stroke="#63b8ff" d="M823.44,-122.28C768.41,-109.33 684.87,-89.67 638.84,-78.84"/>
<polygon fill="#63b8ff" stroke="#63b8ff" points="639.6,-75.43 629.07,-76.55 638,-82.24 639.6,-75.43"/>
</a>
</g>
</g>
<!-- Node28&#45;&gt;Node10 -->
<g id="edge60_Node000028_Node000010" class="edge">
<title>Node28&#45;&gt;Node10</title>
<g id="a_edge60_Node000028_Node000010"><a xlink:title=" ">
<path fill="none" stroke="#63b8ff" d="M823.45,-128.68C749.5,-119.86 612.71,-102.91 496.5,-85 489.13,-83.86 481.39,-82.59 473.75,-81.29"/>
<polygon fill="#63b8ff" stroke="#63b8ff" points="474.26,-77.82 463.81,-79.57 473.07,-84.72 474.26,-77.82"/>
</a>
</g>
</g>
<!-- Node28&#45;&gt;Node20 -->
<g id="edge54_Node000028_Node000020" class="edge">
<title>Node28&#45;&gt;Node20</title>
<g id="a_edge54_Node000028_Node000020"><a xlink:title=" ">
<path fill="none" stroke="#63b8ff" d="M931.72,-122.57C934.69,-122.01 937.63,-121.48 940.5,-121 1091.46,-95.8 1273.45,-79.75 1348.98,-73.71"/>
<polygon fill="#63b8ff" stroke="#63b8ff" points="1349.64,-77.17 1359.33,-72.89 1349.09,-70.19 1349.64,-77.17"/>
</a>
</g>
</g>
<!-- Node29 -->
<g id="Node000029" class="node">
<title>Node29</title>
<g id="a_Node000029"><a xlink:title=" ">
<polygon fill="#e0e0e0" stroke="#999999" points="902.5,-79.5 852.5,-79.5 852.5,-60.5 902.5,-60.5 902.5,-79.5"/>
<text text-anchor="middle" x="877.5" y="-67.5" font-family="Helvetica,sans-Serif" font-size="10.00">atomic</text>
</a>
</g>
</g>
<!-- Node28&#45;&gt;Node29 -->
<g id="edge53_Node000028_Node000029" class="edge">
<title>Node28&#45;&gt;Node29</title>
<g id="a_edge53_Node000028_Node000029"><a xlink:title=" ">
<path fill="none" stroke="#63b8ff" d="M877.5,-120.8C877.5,-111.7 877.5,-99.79 877.5,-89.9"/>
<polygon fill="#63b8ff" stroke="#63b8ff" points="881,-89.84 877.5,-79.84 874,-89.84 881,-89.84"/>
</a>
</g>
</g>
<!-- Node30&#45;&gt;Node4 -->
<g id="edge62_Node000030_Node000004" class="edge">
<title>Node30&#45;&gt;Node4</title>
<g id="a_edge62_Node000030_Node000004"><a xlink:title=" ">
<path fill="none" stroke="#63b8ff" d="M1947.7,-186.82C1957.6,-169.58 1970.09,-140.41 1955.5,-121 1938.59,-98.51 1859.95,-82.93 1814.73,-75.66"/>
<polygon fill="#63b8ff" stroke="#63b8ff" points="1815.24,-72.2 1804.82,-74.11 1814.16,-79.11 1815.24,-72.2"/>
</a>
</g>
</g>
<!-- Node31&#45;&gt;Node2 -->
<g id="edge65_Node000031_Node000002" class="edge">
<title>Node31&#45;&gt;Node2</title>
<g id="a_edge65_Node000031_Node000002"><a xlink:title=" ">
<path fill="none" stroke="#63b8ff" d="M1008.5,-120.8C1008.5,-111.7 1008.5,-99.79 1008.5,-89.9"/>
<polygon fill="#63b8ff" stroke="#63b8ff" points="1012,-89.84 1008.5,-79.84 1005,-89.84 1012,-89.84"/>
</a>
</g>
</g>
<!-- Node31&#45;&gt;Node3 -->
<g id="edge66_Node000031_Node000003" class="edge">
<title>Node31&#45;&gt;Node3</title>
<g id="a_edge66_Node000031_Node000003"><a xlink:title=" ">
<path fill="none" stroke="#63b8ff" d="M949.23,-122.41C946.28,-121.91 943.36,-121.43 940.5,-121 778.46,-96.44 733.4,-120.96 573.5,-85 570.67,-84.36 567.77,-83.58 564.88,-82.71"/>
<polygon fill="#63b8ff" stroke="#63b8ff" points="565.86,-79.35 555.27,-79.53 563.66,-86 565.86,-79.35"/>
</a>
</g>
</g>
<!-- Node31&#45;&gt;Node4 -->
<g id="edge68_Node000031_Node000004" class="edge">
<title>Node31&#45;&gt;Node4</title>
<g id="a_edge68_Node000031_Node000004"><a xlink:title=" ">
<path fill="none" stroke="#63b8ff" d="M1067.57,-126.55C1082.84,-124.54 1099.26,-122.54 1114.5,-121 1341.02,-98.08 1398.55,-103.11 1625.5,-85 1668.76,-81.55 1718.66,-77 1750.39,-74.04"/>
<polygon fill="#63b8ff" stroke="#63b8ff" points="1750.78,-77.52 1760.41,-73.1 1750.13,-70.55 1750.78,-77.52"/>
</a>
</g>
</g>
<!-- Node31&#45;&gt;Node5 -->
<g id="edge69_Node000031_Node000005" class="edge">
<title>Node31&#45;&gt;Node5</title>
<g id="a_edge69_Node000031_Node000005"><a xlink:title=" ">
<path fill="none" stroke="#63b8ff" d="M957.59,-120.95C915.47,-109.34 856.42,-93.05 817.35,-82.27"/>
<polygon fill="#63b8ff" stroke="#63b8ff" points="817.95,-78.8 807.38,-79.52 816.08,-85.55 817.95,-78.8"/>
</a>
</g>
</g>
<!-- Node31&#45;&gt;Node6 -->
<g id="edge71_Node000031_Node000006" class="edge">
<title>Node31&#45;&gt;Node6</title>
<g id="a_edge71_Node000031_Node000006"><a xlink:title=" ">
<path fill="none" stroke="#63b8ff" d="M949.2,-122.59C946.26,-122.04 943.35,-121.51 940.5,-121 830.71,-101.52 699.78,-83.47 639.25,-75.41"/>
<polygon fill="#63b8ff" stroke="#63b8ff" points="639.5,-71.92 629.13,-74.07 638.58,-78.86 639.5,-71.92"/>
</a>
</g>
</g>
<!-- Node31&#45;&gt;Node9 -->
<g id="edge64_Node000031_Node000009" class="edge">
<title>Node31&#45;&gt;Node9</title>
<g id="a_edge64_Node000031_Node000009"><a xlink:title=" ">
<path fill="none" stroke="#63b8ff" d="M1030.15,-120.96C1067.04,-97.04 1141.66,-48.65 1178.67,-24.66"/>
<polygon fill="#63b8ff" stroke="#63b8ff" points="1180.74,-27.49 1187.22,-19.11 1176.93,-21.61 1180.74,-27.49"/>
</a>
</g>
</g>
<!-- Node31&#45;&gt;Node10 -->
<g id="edge72_Node000031_Node000010" class="edge">
<title>Node31&#45;&gt;Node10</title>
<g id="a_edge72_Node000031_Node000010"><a xlink:title=" ">
<path fill="none" stroke="#63b8ff" d="M949.24,-122.35C946.29,-121.86 943.36,-121.41 940.5,-121 744.51,-92.99 692.86,-110.3 496.5,-85 488.35,-83.95 479.76,-82.64 471.36,-81.25"/>
<polygon fill="#63b8ff" stroke="#63b8ff" points="471.71,-77.75 461.26,-79.52 470.53,-84.65 471.71,-77.75"/>
</a>
</g>
</g>
<!-- Node31&#45;&gt;Node12 -->
<g id="edge73_Node000031_Node000012" class="edge">
<title>Node31&#45;&gt;Node12</title>
<g id="a_edge73_Node000031_Node000012"><a xlink:title=" ">
<path fill="none" stroke="#63b8ff" d="M1067.62,-126.93C1082.88,-124.92 1099.29,-122.82 1114.5,-121 1264.07,-103.14 1302.52,-107.2 1451.5,-85 1452.76,-84.81 1454.02,-84.62 1455.3,-84.42"/>
<polygon fill="#63b8ff" stroke="#63b8ff" points="1455.91,-87.87 1465.21,-82.8 1454.77,-80.96 1455.91,-87.87"/>
</a>
</g>
</g>
<!-- Node31&#45;&gt;Node13 -->
<g id="edge67_Node000031_Node000013" class="edge">
<title>Node31&#45;&gt;Node13</title>
<g id="a_edge67_Node000031_Node000013"><a xlink:title=" ">
<path fill="none" stroke="#63b8ff" d="M1067.58,-126.6C1082.84,-124.59 1099.27,-122.58 1114.5,-121 1167.48,-115.51 1551.7,-119.24 1592.5,-85 1608.6,-71.49 1612.08,-46.4 1612.38,-29.1"/>
<polygon fill="#63b8ff" stroke="#63b8ff" points="1615.88,-28.99 1612.21,-19.05 1608.88,-29.11 1615.88,-28.99"/>
</a>
</g>
</g>
<!-- Node31&#45;&gt;Node14 -->
<g id="edge70_Node000031_Node000014" class="edge">
<title>Node31&#45;&gt;Node14</title>
<g id="a_edge70_Node000031_Node000014"><a xlink:title=" ">
<path fill="none" stroke="#63b8ff" d="M1067.63,-127.05C1082.89,-125.03 1099.3,-122.9 1114.5,-121 1182,-112.55 1358.71,-117.45 1418.5,-85 1442.46,-72 1460.92,-45.62 1471.25,-28"/>
<polygon fill="#63b8ff" stroke="#63b8ff" points="1474.32,-29.69 1476.14,-19.25 1468.2,-26.27 1474.32,-29.69"/>
</a>
</g>
</g>
</g>
</svg>
