<?xml version="1.0" encoding="UTF-8" standalone="no"?>
<!DOCTYPE svg PUBLIC "-//W3C//DTD SVG 1.1//EN"
 "http://www.w3.org/Graphics/SVG/1.1/DTD/svg11.dtd">
<!-- Generated by graphviz version 2.43.0 (0)
 -->
<!-- Title: unilink/builder/ibuilder.hpp Pages: 1 -->
<svg width="2190pt" height="335pt"
 viewBox="0.00 0.00 2189.50 335.00" xmlns="http://www.w3.org/2000/svg" xmlns:xlink="http://www.w3.org/1999/xlink">
<g id="graph0" class="graph" transform="scale(1 1) rotate(0) translate(4 331)">
<title>unilink/builder/ibuilder.hpp</title>
<!-- Node1 -->
<g id="Node000001" class="node">
<title>Node1</title>
<g id="a_Node000001"><a xlink:title=" ">
<polygon fill="#999999" stroke="#666666" points="686,-327 540,-327 540,-308 686,-308 686,-327"/>
<text text-anchor="middle" x="613" y="-315" font-family="Helvetica,sans-Serif" font-size="10.00">unilink/builder/ibuilder.hpp</text>
</a>
</g>
</g>
<!-- Node2 -->
<g id="Node000002" class="node">
<title>Node2</title>
<g id="a_Node000002"><a xlink:title=" ">
<polygon fill="#e0e0e0" stroke="#999999" points="60,-272 0,-272 0,-253 60,-253 60,-272"/>
<text text-anchor="middle" x="30" y="-260" font-family="Helvetica,sans-Serif" font-size="10.00">concepts</text>
</a>
</g>
</g>
<!-- Node1&#45;&gt;Node2 -->
<g id="edge1_Node000001_Node000002" class="edge">
<title>Node1&#45;&gt;Node2</title>
<g id="a_edge1_Node000001_Node000002"><a xlink:title=" ">
<path fill="none" stroke="#63b8ff" d="M539.93,-312.99C436.03,-307.42 239.81,-294.79 74,-272 72.74,-271.83 71.47,-271.64 70.18,-271.45"/>
<polygon fill="#63b8ff" stroke="#63b8ff" points="70.66,-267.98 60.23,-269.79 69.51,-274.88 70.66,-267.98"/>
</a>
</g>
</g>
<!-- Node3 -->
<g id="Node000003" class="node">
<title>Node3</title>
<g id="a_Node000003"><a xlink:title=" ">
<polygon fill="#e0e0e0" stroke="#999999" points="1081.5,-79.5 1016.5,-79.5 1016.5,-60.5 1081.5,-60.5 1081.5,-79.5"/>
<text text-anchor="middle" x="1049" y="-67.5" font-family="Helvetica,sans-Serif" font-size="10.00">functional</text>
</a>
</g>
</g>
<!-- Node1&#45;&gt;Node3 -->
<g id="edge2_Node000001_Node000003" class="edge">
<title>Node1&#45;&gt;Node3</title>
<g id="a_edge2_Node000001_Node000003"><a xlink:title=" ">
<path fill="none" stroke="#63b8ff" d="M625.54,-307.84C656.94,-286.29 741.78,-228.99 816,-187 888.21,-146.14 976.7,-104.22 1020.97,-83.78"/>
<polygon fill="#63b8ff" stroke="#63b8ff" points="1022.61,-86.88 1030.23,-79.52 1019.68,-80.52 1022.61,-86.88"/>
</a>
</g>
</g>
<!-- Node4 -->
<g id="Node000004" class="node">
<title>Node4</title>
<g id="a_Node000004"><a xlink:title=" ">
<polygon fill="#e0e0e0" stroke="#999999" points="447,-79.5 389,-79.5 389,-60.5 447,-60.5 447,-79.5"/>
<text text-anchor="middle" x="418" y="-67.5" font-family="Helvetica,sans-Serif" font-size="10.00">memory</text>
</a>
</g>
</g>
<!-- Node1&#45;&gt;Node4 -->
<g id="edge3_Node000001_Node000004" class="edge">
<title>Node1&#45;&gt;Node4</title>
<g id="a_edge3_Node000001_Node000004"><a xlink:title=" ">
<path fill="none" stroke="#63b8ff" d="M543.95,-307.95C449.68,-294.6 288.82,-265.2 258,-217 219.51,-156.8 326.3,-105.54 383.91,-83.1"/>
<polygon fill="#63b8ff" stroke="#63b8ff" points="385.28,-86.33 393.38,-79.5 382.79,-79.79 385.28,-86.33"/>
</a>
</g>
</g>
<!-- Node5 -->
<g id="Node000005" class="node">
<title>Node5</title>
<g id="a_Node000005"><a xlink:title=" ">
<polygon fill="#e0e0e0" stroke="#999999" points="1621,-79.5 1577,-79.5 1577,-60.5 1621,-60.5 1621,-79.5"/>
<text text-anchor="middle" x="1599" y="-67.5" font-family="Helvetica,sans-Serif" font-size="10.00">string</text>
</a>
</g>
</g>
<!-- Node1&#45;&gt;Node5 -->
<g id="edge4_Node000001_Node000005" class="edge">
<title>Node1&#45;&gt;Node5</title>
<g id="a_edge4_Node000001_Node000005"><a xlink:title=" ">
<path fill="none" stroke="#63b8ff" d="M686.05,-316.42C842.6,-315.48 1221.8,-309.2 1537,-272 1667.72,-256.57 1702.91,-257.96 1828,-217 1892.61,-195.84 1929.75,-208.52 1966,-151 1973.11,-139.72 1974.77,-131.04 1966,-121 1922.59,-71.28 1712.81,-69.15 1631.39,-70.26"/>
<polygon fill="#63b8ff" stroke="#63b8ff" points="1631.17,-66.76 1621.23,-70.42 1631.29,-73.76 1631.17,-66.76"/>
</a>
</g>
</g>
<!-- Node6 -->
<g id="Node000006" class="node">
<title>Node6</title>
<g id="a_Node000006"><a xlink:title=" ">
<polygon fill="#e0e0e0" stroke="#999999" points="697.5,-79.5 624.5,-79.5 624.5,-60.5 697.5,-60.5 697.5,-79.5"/>
<text text-anchor="middle" x="661" y="-67.5" font-family="Helvetica,sans-Serif" font-size="10.00">string_view</text>
</a>
</g>
</g>
<!-- Node1&#45;&gt;Node6 -->
<g id="edge5_Node000001_Node000006" class="edge">
<title>Node1&#45;&gt;Node6</title>
<g id="a_edge5_Node000001_Node000006"><a xlink:title=" ">
<path fill="none" stroke="#63b8ff" d="M614.71,-307.76C621.63,-272.34 647.71,-138.98 657.37,-89.57"/>
<polygon fill="#63b8ff" stroke="#63b8ff" points="660.83,-90.12 659.31,-79.63 653.96,-88.78 660.83,-90.12"/>
</a>
</g>
</g>
<!-- Node7 -->
<g id="Node000007" class="node">
<title>Node7</title>
<g id="a_Node000007"><a xlink:title=" ">
<polygon fill="#e0e0e0" stroke="#999999" points="1939.5,-145.5 1894.5,-145.5 1894.5,-126.5 1939.5,-126.5 1939.5,-145.5"/>
<text text-anchor="middle" x="1917" y="-133.5" font-family="Helvetica,sans-Serif" font-size="10.00">utility</text>
</a>
</g>
</g>
<!-- Node1&#45;&gt;Node7 -->
<g id="edge6_Node000001_Node000007" class="edge">
<title>Node1&#45;&gt;Node7</title>
<g id="a_edge6_Node000001_Node000007"><a xlink:title=" ">
<path fill="none" stroke="#63b8ff" d="M686.18,-314.57C909.13,-308.03 1577.19,-283.27 1783,-217 1827.79,-202.58 1873.48,-170.9 1898.23,-152.02"/>
<polygon fill="#63b8ff" stroke="#63b8ff" points="1900.62,-154.6 1906.37,-145.7 1896.32,-149.08 1900.62,-154.6"/>
</a>
</g>
</g>
<!-- Node8 -->
<g id="Node000008" class="node">
<title>Node8</title>
<g id="a_Node000008"><a xlink:title=" ">
<polygon fill="#e0e0e0" stroke="#999999" points="282.5,-79.5 235.5,-79.5 235.5,-60.5 282.5,-60.5 282.5,-79.5"/>
<text text-anchor="middle" x="259" y="-67.5" font-family="Helvetica,sans-Serif" font-size="10.00">vector</text>
</a>
</g>
</g>
<!-- Node1&#45;&gt;Node8 -->
<g id="edge7_Node000001_Node000008" class="edge">
<title>Node1&#45;&gt;Node8</title>
<g id="a_edge7_Node000001_Node000008"><a xlink:title=" ">
<path fill="none" stroke="#63b8ff" d="M539.96,-310.69C463.16,-303.72 348.03,-290.61 308,-272 244.99,-242.7 226.56,-218.23 209,-151 205.63,-138.1 203.9,-133.32 209,-121 214.78,-107.04 226.56,-94.94 237.24,-86.15"/>
<polygon fill="#63b8ff" stroke="#63b8ff" points="239.65,-88.71 245.43,-79.83 235.37,-83.17 239.65,-88.71"/>
</a>
</g>
</g>
<!-- Node9 -->
<g id="Node000009" class="node">
<title>Node9</title>
<g id="a_Node000009"><a xlink:href="constants_8hpp.html" target="_top" xlink:title=" ">
<polygon fill="white" stroke="#666666" points="2181.5,-145.5 2034.5,-145.5 2034.5,-126.5 2181.5,-126.5 2181.5,-145.5"/>
<text text-anchor="middle" x="2108" y="-133.5" font-family="Helvetica,sans-Serif" font-size="10.00">unilink/base/constants.hpp</text>
</a>
</g>
</g>
<!-- Node1&#45;&gt;Node9 -->
<g id="edge8_Node000001_Node000009" class="edge">
<title>Node1&#45;&gt;Node9</title>
<g id="a_edge8_Node000001_Node000009"><a xlink:title=" ">
<path fill="none" stroke="#63b8ff" d="M686.13,-316.06C966.68,-314.11 1961.49,-304.91 2020,-272 2065.61,-246.35 2091.54,-186.12 2102.21,-155.53"/>
<polygon fill="#63b8ff" stroke="#63b8ff" points="2105.64,-156.31 2105.46,-145.72 2098.99,-154.11 2105.64,-156.31"/>
</a>
</g>
</g>
<!-- Node12 -->
<g id="Node000012" class="node">
<title>Node12</title>
<g id="a_Node000012"><a xlink:href="visibility_8hpp.html" target="_top" xlink:title=" ">
<polygon fill="white" stroke="#666666" points="606,-79.5 466,-79.5 466,-60.5 606,-60.5 606,-79.5"/>
<text text-anchor="middle" x="536" y="-67.5" font-family="Helvetica,sans-Serif" font-size="10.00">unilink/base/visibility.hpp</text>
</a>
</g>
</g>
<!-- Node1&#45;&gt;Node12 -->
<g id="edge11_Node000001_Node000012" class="edge">
<title>Node1&#45;&gt;Node12</title>
<g id="a_edge11_Node000001_Node000012"><a xlink:title=" ">
<path fill="none" stroke="#63b8ff" d="M610.52,-307.99C604.44,-287.26 588.29,-232.47 574,-187 563.13,-152.43 549.83,-112.28 542.19,-89.43"/>
<polygon fill="#63b8ff" stroke="#63b8ff" points="545.43,-88.08 538.93,-79.71 538.79,-90.3 545.43,-88.08"/>
</a>
</g>
</g>
<!-- Node13 -->
<g id="Node000013" class="node">
<title>Node13</title>
<g id="a_Node000013"><a xlink:href="iframer_8hpp.html" target="_top" xlink:title=" ">
<polygon fill="white" stroke="#666666" points="489.5,-145.5 344.5,-145.5 344.5,-126.5 489.5,-126.5 489.5,-145.5"/>
<text text-anchor="middle" x="417" y="-133.5" font-family="Helvetica,sans-Serif" font-size="10.00">unilink/framer/iframer.hpp</text>
</a>
</g>
</g>
<!-- Node1&#45;&gt;Node13 -->
<g id="edge12_Node000001_Node000013" class="edge">
<title>Node1&#45;&gt;Node13</title>
<g id="a_edge12_Node000001_Node000013"><a xlink:title=" ">
<path fill="none" stroke="#63b8ff" d="M589.63,-307.96C554.54,-294.02 488.18,-263.24 449,-217 433.85,-199.12 425.26,-173.16 420.87,-155.71"/>
<polygon fill="#63b8ff" stroke="#63b8ff" points="424.21,-154.61 418.57,-145.64 417.39,-156.17 424.21,-154.61"/>
</a>
</g>
</g>
<!-- Node14 -->
<g id="Node000014" class="node">
<title>Node14</title>
<g id="a_Node000014"><a xlink:href="safe__span_8hpp.html" target="_top" xlink:title=" ">
<polygon fill="white" stroke="#666666" points="960,-85 842,-85 842,-55 960,-55 960,-85"/>
<text text-anchor="start" x="850" y="-73" font-family="Helvetica,sans-Serif" font-size="10.00">unilink/memory/safe</text>
<text text-anchor="middle" x="901" y="-62" font-family="Helvetica,sans-Serif" font-size="10.00">_span.hpp</text>
</a>
</g>
</g>
<!-- Node1&#45;&gt;Node14 -->
<g id="edge31_Node000001_Node000014" class="edge">
<title>Node1&#45;&gt;Node14</title>
<g id="a_edge31_Node000001_Node000014"><a xlink:title=" ">
<path fill="none" stroke="#63b8ff" d="M686.33,-317.21C772.22,-316.29 906.89,-308.8 939,-272 983.41,-221.11 940.86,-134.9 916.05,-93.93"/>
<polygon fill="#63b8ff" stroke="#63b8ff" points="918.88,-91.86 910.62,-85.22 912.94,-95.56 918.88,-91.86"/>
</a>
</g>
</g>
<!-- Node17 -->
<g id="Node000017" class="node">
<title>Node17</title>
<g id="a_Node000017"><a xlink:href="line__framer_8hpp.html" target="_top" xlink:title=" ">
<polygon fill="white" stroke="#666666" points="565.5,-217 458.5,-217 458.5,-187 565.5,-187 565.5,-217"/>
<text text-anchor="start" x="466.5" y="-205" font-family="Helvetica,sans-Serif" font-size="10.00">unilink/framer/line</text>
<text text-anchor="middle" x="512" y="-194" font-family="Helvetica,sans-Serif" font-size="10.00">_framer.hpp</text>
</a>
</g>
</g>
<!-- Node1&#45;&gt;Node17 -->
<g id="edge21_Node000001_Node000017" class="edge">
<title>Node1&#45;&gt;Node17</title>
<g id="a_edge21_Node000001_Node000017"><a xlink:title=" ">
<path fill="none" stroke="#63b8ff" d="M605.41,-307.97C589.84,-290.48 553.89,-250.07 531.4,-224.81"/>
<polygon fill="#63b8ff" stroke="#63b8ff" points="533.88,-222.32 524.62,-217.18 528.65,-226.98 533.88,-222.32"/>
</a>
</g>
</g>
<!-- Node18 -->
<g id="Node000018" class="node">
<title>Node18</title>
<g id="a_Node000018"><a xlink:href="packet__framer_8hpp.html" target="_top" xlink:title=" ">
<polygon fill="white" stroke="#666666" points="388.5,-217 267.5,-217 267.5,-187 388.5,-187 388.5,-217"/>
<text text-anchor="start" x="275.5" y="-205" font-family="Helvetica,sans-Serif" font-size="10.00">unilink/framer/packet</text>
<text text-anchor="middle" x="328" y="-194" font-family="Helvetica,sans-Serif" font-size="10.00">_framer.hpp</text>
</a>
</g>
</g>
<!-- Node1&#45;&gt;Node18 -->
<g id="edge27_Node000001_Node000018" class="edge">
<title>Node1&#45;&gt;Node18</title>
<g id="a_edge27_Node000001_Node000018"><a xlink:title=" ">
<path fill="none" stroke="#63b8ff" d="M539.72,-309.12C499.81,-303 450.46,-291.93 410,-272 386.05,-260.2 363.18,-239.95 347.71,-224.42"/>
<polygon fill="#63b8ff" stroke="#63b8ff" points="350.21,-221.98 340.73,-217.24 345.19,-226.86 350.21,-221.98"/>
</a>
</g>
</g>
<!-- Node19 -->
<g id="Node000019" class="node">
<title>Node19</title>
<g id="a_Node000019"><a xlink:href="context_8hpp.html" target="_top" xlink:title=" ">
<polygon fill="white" stroke="#666666" points="929.5,-272 776.5,-272 776.5,-253 929.5,-253 929.5,-272"/>
<text text-anchor="middle" x="853" y="-260" font-family="Helvetica,sans-Serif" font-size="10.00">unilink/wrapper/context.hpp</text>
</a>
</g>
</g>
<!-- Node1&#45;&gt;Node19 -->
<g id="edge32_Node000001_Node000019" class="edge">
<title>Node1&#45;&gt;Node19</title>
<g id="a_edge32_Node000001_Node000019"><a xlink:title=" ">
<path fill="none" stroke="#63b8ff" d="M651.56,-307.98C693.07,-298.82 759.21,-284.21 804.29,-274.26"/>
<polygon fill="#63b8ff" stroke="#63b8ff" points="805.13,-277.66 814.14,-272.08 803.62,-270.82 805.13,-277.66"/>
</a>
</g>
</g>
<!-- Node10 -->
<g id="Node000010" class="node">
<title>Node10</title>
<g id="a_Node000010"><a xlink:title=" ">
<polygon fill="#e0e0e0" stroke="#999999" points="2134.5,-79.5 2081.5,-79.5 2081.5,-60.5 2134.5,-60.5 2134.5,-79.5"/>
<text text-anchor="middle" x="2108" y="-67.5" font-family="Helvetica,sans-Serif" font-size="10.00">cstddef</text>
</a>
</g>
</g>
<!-- Node9&#45;&gt;Node10 -->
<g id="edge9_Node000009_Node000010" class="edge">
<title>Node9&#45;&gt;Node10</title>
<g id="a_edge9_Node000009_Node000010"><a xlink:title=" ">
<path fill="none" stroke="#63b8ff" d="M2108,-126.37C2108,-117.16 2108,-102.29 2108,-90.27"/>
<polygon fill="#63b8ff" stroke="#63b8ff" points="2111.5,-89.91 2108,-79.91 2104.5,-89.91 2111.5,-89.91"/>
</a>
</g>
</g>
<!-- Node11 -->
<g id="Node000011" class="node">
<title>Node11</title>
<g id="a_Node000011"><a xlink:title=" ">
<polygon fill="#e0e0e0" stroke="#999999" points="1452,-19 1402,-19 1402,0 1452,0 1452,-19"/>
<text text-anchor="middle" x="1427" y="-7" font-family="Helvetica,sans-Serif" font-size="10.00">cstdint</text>
</a>
</g>
</g>
<!-- Node9&#45;&gt;Node11 -->
<g id="edge10_Node000009_Node000011" class="edge">
<title>Node9&#45;&gt;Node11</title>
<g id="a_edge10_Node000009_Node000011"><a xlink:title=" ">
<path fill="none" stroke="#63b8ff" d="M2088.64,-126.42C2049.89,-109.65 1959.67,-72.62 1880,-55 1726.9,-21.14 1539,-13.03 1462.21,-11.1"/>
<polygon fill="#63b8ff" stroke="#63b8ff" points="1462.21,-7.6 1452.13,-10.87 1462.04,-14.6 1462.21,-7.6"/>
</a>
</g>
</g>
<!-- Node13&#45;&gt;Node3 -->
<g id="edge13_Node000013_Node000003" class="edge">
<title>Node13&#45;&gt;Node3</title>
<g id="a_edge13_Node000013_Node000003"><a xlink:title=" ">
<path fill="none" stroke="#63b8ff" d="M489.55,-130.35C595.28,-123.15 797.77,-107.7 969,-85 981.23,-83.38 994.45,-81.23 1006.55,-79.1"/>
<polygon fill="#63b8ff" stroke="#63b8ff" points="1007.17,-82.55 1016.4,-77.34 1005.94,-75.66 1007.17,-82.55"/>
</a>
</g>
</g>
<!-- Node13&#45;&gt;Node4 -->
<g id="edge14_Node000013_Node000004" class="edge">
<title>Node13&#45;&gt;Node4</title>
<g id="a_edge14_Node000013_Node000004"><a xlink:title=" ">
<path fill="none" stroke="#63b8ff" d="M417.13,-126.37C417.28,-117.16 417.51,-102.29 417.7,-90.27"/>
<polygon fill="#63b8ff" stroke="#63b8ff" points="421.2,-89.96 417.86,-79.91 414.2,-89.85 421.2,-89.96"/>
</a>
</g>
</g>
<!-- Node13&#45;&gt;Node8 -->
<g id="edge15_Node000013_Node000008" class="edge">
<title>Node13&#45;&gt;Node8</title>
<g id="a_edge15_Node000013_Node000008"><a xlink:title=" ">
<path fill="none" stroke="#63b8ff" d="M395.69,-126.37C368.4,-115.32 320.93,-96.08 289.73,-83.45"/>
<polygon fill="#63b8ff" stroke="#63b8ff" points="290.81,-80.11 280.22,-79.6 288.18,-86.59 290.81,-80.11"/>
</a>
</g>
</g>
<!-- Node13&#45;&gt;Node12 -->
<g id="edge16_Node000013_Node000012" class="edge">
<title>Node13&#45;&gt;Node12</title>
<g id="a_edge16_Node000013_Node000012"><a xlink:title=" ">
<path fill="none" stroke="#63b8ff" d="M433.05,-126.37C453.01,-115.63 487.32,-97.18 510.8,-84.55"/>
<polygon fill="#63b8ff" stroke="#63b8ff" points="512.68,-87.52 519.83,-79.7 509.36,-81.35 512.68,-87.52"/>
</a>
</g>
</g>
<!-- Node13&#45;&gt;Node14 -->
<g id="edge17_Node000013_Node000014" class="edge">
<title>Node13&#45;&gt;Node14</title>
<g id="a_edge17_Node000013_Node000014"><a xlink:title=" ">
<path fill="none" stroke="#63b8ff" d="M489.78,-128.11C570.83,-120.02 705.92,-105.29 831.53,-85.16"/>
<polygon fill="#63b8ff" stroke="#63b8ff" points="832.4,-88.56 841.72,-83.51 831.29,-81.65 832.4,-88.56"/>
</a>
</g>
</g>
<!-- Node14&#45;&gt;Node11 -->
<g id="edge18_Node000014_Node000011" class="edge">
<title>Node14&#45;&gt;Node11</title>
<g id="a_edge18_Node000014_Node000011"><a xlink:title=" ">
<path fill="none" stroke="#63b8ff" d="M960.29,-57.16C964.92,-56.38 969.53,-55.65 974,-55 1129,-32.57 1315.49,-18.2 1391.83,-12.85"/>
<polygon fill="#63b8ff" stroke="#63b8ff" points="1392.12,-16.34 1401.86,-12.16 1391.64,-9.36 1392.12,-16.34"/>
</a>
</g>
</g>
<!-- Node15 -->
<g id="Node000015" class="node">
<title>Node15</title>
<g id="a_Node000015"><a xlink:title=" ">
<polygon fill="#e0e0e0" stroke="#999999" points="855,-19 815,-19 815,0 855,0 855,-19"/>
<text text-anchor="middle" x="835" y="-7" font-family="Helvetica,sans-Serif" font-size="10.00">span</text>
</a>
</g>
</g>
<!-- Node14&#45;&gt;Node15 -->
<g id="edge19_Node000014_Node000015" class="edge">
<title>Node14&#45;&gt;Node15</title>
<g id="a_edge19_Node000014_Node000015"><a xlink:title=" ">
<path fill="none" stroke="#63b8ff" d="M885.02,-54.84C875.25,-46.17 862.73,-35.08 852.66,-26.15"/>
<polygon fill="#63b8ff" stroke="#63b8ff" points="854.69,-23.28 844.89,-19.27 850.05,-28.52 854.69,-23.28"/>
</a>
</g>
</g>
<!-- Node16 -->
<g id="Node000016" class="node">
<title>Node16</title>
<g id="a_Node000016"><a xlink:title=" ">
<polygon fill="#e0e0e0" stroke="#999999" points="938.5,-19 873.5,-19 873.5,0 938.5,0 938.5,-19"/>
<text text-anchor="middle" x="906" y="-7" font-family="Helvetica,sans-Serif" font-size="10.00">stdexcept</text>
</a>
</g>
</g>
<!-- Node14&#45;&gt;Node16 -->
<g id="edge20_Node000014_Node000016" class="edge">
<title>Node14&#45;&gt;Node16</title>
<g id="a_edge20_Node000014_Node000016"><a xlink:title=" ">
<path fill="none" stroke="#63b8ff" d="M902.21,-54.84C902.86,-47.21 903.67,-37.7 904.38,-29.45"/>
<polygon fill="#63b8ff" stroke="#63b8ff" points="907.89,-29.53 905.25,-19.27 900.91,-28.93 907.89,-29.53"/>
</a>
</g>
</g>
<!-- Node17&#45;&gt;Node5 -->
<g id="edge22_Node000017_Node000005" class="edge">
<title>Node17&#45;&gt;Node5</title>
<g id="a_edge22_Node000017_Node000005"><a xlink:title=" ">
<path fill="none" stroke="#63b8ff" d="M565.56,-198.58C731.42,-190.93 1229.71,-166.91 1301,-151 1336.44,-143.09 1342.29,-131.69 1377,-121 1443.45,-100.54 1523.45,-84.58 1566.97,-76.6"/>
<polygon fill="#63b8ff" stroke="#63b8ff" points="1567.75,-80.02 1576.96,-74.79 1566.5,-73.13 1567.75,-80.02"/>
</a>
</g>
</g>
<!-- Node17&#45;&gt;Node6 -->
<g id="edge23_Node000017_Node000006" class="edge">
<title>Node17&#45;&gt;Node6</title>
<g id="a_edge23_Node000017_Node000006"><a xlink:title=" ">
<path fill="none" stroke="#63b8ff" d="M528.23,-186.84C556.38,-162.28 614.02,-111.99 643.22,-86.52"/>
<polygon fill="#63b8ff" stroke="#63b8ff" points="645.74,-88.96 650.97,-79.75 641.14,-83.69 645.74,-88.96"/>
</a>
</g>
</g>
<!-- Node17&#45;&gt;Node8 -->
<g id="edge24_Node000017_Node000008" class="edge">
<title>Node17&#45;&gt;Node8</title>
<g id="a_edge24_Node000017_Node000008"><a xlink:title=" ">
<path fill="none" stroke="#63b8ff" d="M458.5,-193.71C389.48,-183.79 276.72,-165.59 264,-151 249.46,-134.32 251.05,-107.5 254.35,-89.57"/>
<polygon fill="#63b8ff" stroke="#63b8ff" points="257.78,-90.24 256.49,-79.72 250.94,-88.75 257.78,-90.24"/>
</a>
</g>
</g>
<!-- Node17&#45;&gt;Node12 -->
<g id="edge25_Node000017_Node000012" class="edge">
<title>Node17&#45;&gt;Node12</title>
<g id="a_edge25_Node000017_Node000012"><a xlink:title=" ">
<path fill="none" stroke="#63b8ff" d="M514.61,-186.84C518.95,-163.34 527.64,-116.26 532.51,-89.93"/>
<polygon fill="#63b8ff" stroke="#63b8ff" points="536.01,-90.22 534.38,-79.75 529.13,-88.95 536.01,-90.22"/>
</a>
</g>
</g>
<!-- Node17&#45;&gt;Node13 -->
<g id="edge26_Node000017_Node000013" class="edge">
<title>Node17&#45;&gt;Node13</title>
<g id="a_edge26_Node000017_Node000013"><a xlink:title=" ">
<path fill="none" stroke="#63b8ff" d="M490.92,-186.8C475.29,-176.27 454.07,-161.97 438.37,-151.4"/>
<polygon fill="#63b8ff" stroke="#63b8ff" points="440.1,-148.34 429.85,-145.66 436.19,-154.15 440.1,-148.34"/>
</a>
</g>
</g>
<!-- Node18&#45;&gt;Node8 -->
<g id="edge28_Node000018_Node000008" class="edge">
<title>Node18&#45;&gt;Node8</title>
<g id="a_edge28_Node000018_Node000008"><a xlink:title=" ">
<path fill="none" stroke="#63b8ff" d="M272.96,-186.91C254.82,-179.36 236.59,-167.99 226,-151 213.27,-130.59 229.37,-104.42 243.22,-87.68"/>
<polygon fill="#63b8ff" stroke="#63b8ff" points="246.11,-89.68 250.09,-79.86 240.86,-85.06 246.11,-89.68"/>
</a>
</g>
</g>
<!-- Node18&#45;&gt;Node12 -->
<g id="edge29_Node000018_Node000012" class="edge">
<title>Node18&#45;&gt;Node12</title>
<g id="a_edge29_Node000018_Node000012"><a xlink:title=" ">
<path fill="none" stroke="#63b8ff" d="M324.73,-186.7C321.62,-169.08 319.42,-139.23 335,-121 344.56,-109.81 424.06,-92.49 480.16,-81.45"/>
<polygon fill="#63b8ff" stroke="#63b8ff" points="480.84,-84.89 489.99,-79.54 479.5,-78.02 480.84,-84.89"/>
</a>
</g>
</g>
<!-- Node18&#45;&gt;Node13 -->
<g id="edge30_Node000018_Node000013" class="edge">
<title>Node18&#45;&gt;Node13</title>
<g id="a_edge30_Node000018_Node000013"><a xlink:title=" ">
<path fill="none" stroke="#63b8ff" d="M347.75,-186.8C362.26,-176.37 381.9,-162.24 396.56,-151.69"/>
<polygon fill="#63b8ff" stroke="#63b8ff" points="398.88,-154.34 404.96,-145.66 394.8,-148.66 398.88,-154.34"/>
</a>
</g>
</g>
<!-- Node19&#45;&gt;Node5 -->
<g id="edge34_Node000019_Node000005" class="edge">
<title>Node19&#45;&gt;Node5</title>
<g id="a_edge34_Node000019_Node000005"><a xlink:title=" ">
<path fill="none" stroke="#63b8ff" d="M929.74,-261.08C1122.12,-259.5 1621.06,-252.04 1783,-217 1860.6,-200.21 1904.42,-216.7 1949,-151 1956.49,-139.97 1957.74,-131.07 1949,-121 1908,-73.72 1710.26,-70.04 1631.48,-70.5"/>
<polygon fill="#63b8ff" stroke="#63b8ff" points="1631.16,-67 1621.19,-70.58 1631.22,-74 1631.16,-67"/>
</a>
</g>
</g>
<!-- Node19&#45;&gt;Node6 -->
<g id="edge35_Node000019_Node000006" class="edge">
<title>Node19&#45;&gt;Node6</title>
<g id="a_edge35_Node000019_Node000006"><a xlink:title=" ">
<path fill="none" stroke="#63b8ff" d="M832.04,-252.9C797.16,-237.56 727.18,-202.2 688,-151 674.04,-132.76 667.06,-106.88 663.74,-89.54"/>
<polygon fill="#63b8ff" stroke="#63b8ff" points="667.17,-88.83 662.05,-79.55 660.26,-90 667.17,-88.83"/>
</a>
</g>
</g>
<!-- Node19&#45;&gt;Node8 -->
<g id="edge36_Node000019_Node000008" class="edge">
<title>Node19&#45;&gt;Node8</title>
<g id="a_edge36_Node000019_Node000008"><a xlink:title=" ">
<path fill="none" stroke="#63b8ff" d="M776.24,-259.65C625.4,-255.47 301.15,-243.48 258,-217 218.6,-192.83 202.44,-164.52 218,-121 222.68,-107.92 232.41,-95.8 241.22,-86.77"/>
<polygon fill="#63b8ff" stroke="#63b8ff" points="243.81,-89.14 248.58,-79.69 238.95,-84.1 243.81,-89.14"/>
</a>
</g>
</g>
<!-- Node19&#45;&gt;Node14 -->
<g id="edge78_Node000019_Node000014" class="edge">
<title>Node19&#45;&gt;Node14</title>
<g id="a_edge78_Node000019_Node000014"><a xlink:title=" ">
<path fill="none" stroke="#63b8ff" d="M863.18,-252.77C871.99,-244.53 884.2,-231.34 890,-217 906.23,-176.88 905.74,-125.55 903.59,-95.67"/>
<polygon fill="#63b8ff" stroke="#63b8ff" points="907.04,-95 902.71,-85.33 900.07,-95.59 907.04,-95"/>
</a>
</g>
</g>
<!-- Node20 -->
<g id="Node000020" class="node">
<title>Node20</title>
<g id="a_Node000020"><a xlink:title=" ">
<polygon fill="#e0e0e0" stroke="#999999" points="881,-211.5 825,-211.5 825,-192.5 881,-192.5 881,-211.5"/>
<text text-anchor="middle" x="853" y="-199.5" font-family="Helvetica,sans-Serif" font-size="10.00">optional</text>
</a>
</g>
</g>
<!-- Node19&#45;&gt;Node20 -->
<g id="edge33_Node000019_Node000020" class="edge">
<title>Node19&#45;&gt;Node20</title>
<g id="a_edge33_Node000019_Node000020"><a xlink:title=" ">
<path fill="none" stroke="#63b8ff" d="M853,-252.87C853,-244.75 853,-232.31 853,-221.89"/>
<polygon fill="#63b8ff" stroke="#63b8ff" points="856.5,-221.67 853,-211.67 849.5,-221.67 856.5,-221.67"/>
</a>
</g>
</g>
<!-- Node21 -->
<g id="Node000021" class="node">
<title>Node21</title>
<g id="a_Node000021"><a xlink:href="common_8hpp.html" target="_top" xlink:title=" ">
<polygon fill="white" stroke="#666666" points="1547.5,-211.5 1404.5,-211.5 1404.5,-192.5 1547.5,-192.5 1547.5,-211.5"/>
<text text-anchor="middle" x="1476" y="-199.5" font-family="Helvetica,sans-Serif" font-size="10.00">unilink/base/common.hpp</text>
</a>
</g>
</g>
<!-- Node19&#45;&gt;Node21 -->
<g id="edge37_Node000019_Node000021" class="edge">
<title>Node19&#45;&gt;Node21</title>
<g id="a_edge37_Node000019_Node000021"><a xlink:title=" ">
<path fill="none" stroke="#63b8ff" d="M929.7,-254.3C1047.74,-243.21 1272.92,-222.07 1394.05,-210.7"/>
<polygon fill="#63b8ff" stroke="#63b8ff" points="1394.74,-214.15 1404.37,-209.73 1394.09,-207.18 1394.74,-214.15"/>
</a>
</g>
</g>
<!-- Node32 -->
<g id="Node000032" class="node">
<title>Node32</title>
<g id="a_Node000032"><a xlink:href="error__codes_8hpp.html" target="_top" xlink:title=" ">
<polygon fill="white" stroke="#666666" points="1774,-217 1672,-217 1672,-187 1774,-187 1774,-217"/>
<text text-anchor="start" x="1680" y="-205" font-family="Helvetica,sans-Serif" font-size="10.00">unilink/base/error</text>
<text text-anchor="middle" x="1723" y="-194" font-family="Helvetica,sans-Serif" font-size="10.00">_codes.hpp</text>
</a>
</g>
</g>
<!-- Node19&#45;&gt;Node32 -->
<g id="edge65_Node000019_Node000032" class="edge">
<title>Node19&#45;&gt;Node32</title>
<g id="a_edge65_Node000019_Node000032"><a xlink:title=" ">
<path fill="none" stroke="#63b8ff" d="M929.6,-257.19C1058.96,-249.78 1328.91,-233.82 1557,-217 1591.6,-214.45 1630.21,-211.21 1661.49,-208.5"/>
<polygon fill="#63b8ff" stroke="#63b8ff" points="1662.14,-211.95 1671.8,-207.6 1661.53,-204.98 1662.14,-211.95"/>
</a>
</g>
</g>
<!-- Node33 -->
<g id="Node000033" class="node">
<title>Node33</title>
<g id="a_Node000033"><a xlink:href="safe__data__buffer_8hpp.html" target="_top" xlink:title=" ">
<polygon fill="white" stroke="#666666" points="854,-151 736,-151 736,-121 854,-121 854,-151"/>
<text text-anchor="start" x="744" y="-139" font-family="Helvetica,sans-Serif" font-size="10.00">unilink/memory/safe</text>
<text text-anchor="middle" x="795" y="-128" font-family="Helvetica,sans-Serif" font-size="10.00">_data_buffer.hpp</text>
</a>
</g>
</g>
<!-- Node19&#45;&gt;Node33 -->
<g id="edge67_Node000019_Node000033" class="edge">
<title>Node19&#45;&gt;Node33</title>
<g id="a_edge67_Node000019_Node000033"><a xlink:title=" ">
<path fill="none" stroke="#63b8ff" d="M843.76,-252.81C835.34,-244.41 823.17,-230.94 816,-217 806.95,-199.4 801.55,-177.57 798.51,-161.16"/>
<polygon fill="#63b8ff" stroke="#63b8ff" points="801.95,-160.53 796.83,-151.26 795.05,-161.7 801.95,-160.53"/>
</a>
</g>
</g>
<!-- Node21&#45;&gt;Node3 -->
<g id="edge42_Node000021_Node000003" class="edge">
<title>Node21&#45;&gt;Node3</title>
<g id="a_edge42_Node000021_Node000003"><a xlink:title=" ">
<path fill="none" stroke="#63b8ff" d="M1404.46,-195.05C1320.4,-187.24 1186.59,-172.02 1141,-151 1132.28,-146.98 1089.69,-108.45 1065.63,-86.37"/>
<polygon fill="#63b8ff" stroke="#63b8ff" points="1067.99,-83.78 1058.26,-79.58 1063.24,-88.93 1067.99,-83.78"/>
</a>
</g>
</g>
<!-- Node21&#45;&gt;Node5 -->
<g id="edge47_Node000021_Node000005" class="edge">
<title>Node21&#45;&gt;Node5</title>
<g id="a_edge47_Node000021_Node000005"><a xlink:title=" ">
<path fill="none" stroke="#63b8ff" d="M1547.82,-193.44C1629.08,-184.16 1752.03,-167.58 1766,-151 1806.05,-103.45 1690.29,-82.09 1631.27,-74.48"/>
<polygon fill="#63b8ff" stroke="#63b8ff" points="1631.65,-71 1621.3,-73.26 1630.8,-77.95 1631.65,-71"/>
</a>
</g>
</g>
<!-- Node21&#45;&gt;Node6 -->
<g id="edge48_Node000021_Node000006" class="edge">
<title>Node21&#45;&gt;Node6</title>
<g id="a_edge48_Node000021_Node000006"><a xlink:title=" ">
<path fill="none" stroke="#63b8ff" d="M1404.46,-199.43C1228.81,-195.14 786.29,-181.4 727,-151 700.4,-137.36 680.54,-107.75 669.86,-88.64"/>
<polygon fill="#63b8ff" stroke="#63b8ff" points="672.92,-86.92 665.13,-79.73 666.74,-90.21 672.92,-86.92"/>
</a>
</g>
</g>
<!-- Node21&#45;&gt;Node7 -->
<g id="edge49_Node000021_Node000007" class="edge">
<title>Node21&#45;&gt;Node7</title>
<g id="a_edge49_Node000021_Node000007"><a xlink:title=" ">
<path fill="none" stroke="#63b8ff" d="M1547.82,-194.19C1646.51,-184.48 1818.77,-166.14 1880,-151 1882.45,-150.39 1884.96,-149.67 1887.46,-148.88"/>
<polygon fill="#63b8ff" stroke="#63b8ff" points="1888.63,-152.18 1896.92,-145.59 1886.33,-145.57 1888.63,-152.18"/>
</a>
</g>
</g>
<!-- Node21&#45;&gt;Node8 -->
<g id="edge50_Node000021_Node000008" class="edge">
<title>Node21&#45;&gt;Node8</title>
<g id="a_edge50_Node000021_Node000008"><a xlink:title=" ">
<path fill="none" stroke="#63b8ff" d="M1404.28,-199.33C1161.62,-193.51 383.69,-173.18 335,-151 305.77,-137.69 282.23,-107.49 269.46,-88.24"/>
<polygon fill="#63b8ff" stroke="#63b8ff" points="272.26,-86.12 263.94,-79.56 266.35,-89.88 272.26,-86.12"/>
</a>
</g>
</g>
<!-- Node21&#45;&gt;Node9 -->
<g id="edge51_Node000021_Node000009" class="edge">
<title>Node21&#45;&gt;Node9</title>
<g id="a_edge51_Node000021_Node000009"><a xlink:title=" ">
<path fill="none" stroke="#63b8ff" d="M1547.58,-193.75C1665.14,-181.85 1898.55,-158.21 2023.84,-145.52"/>
<polygon fill="#63b8ff" stroke="#63b8ff" points="2024.55,-148.97 2034.15,-144.48 2023.85,-142 2024.55,-148.97"/>
</a>
</g>
</g>
<!-- Node21&#45;&gt;Node11 -->
<g id="edge39_Node000021_Node000011" class="edge">
<title>Node21&#45;&gt;Node11</title>
<g id="a_edge39_Node000021_Node000011"><a xlink:title=" ">
<path fill="none" stroke="#63b8ff" d="M1547.72,-194.23C1633.89,-185.36 1768.84,-168.82 1784,-151 1792.64,-140.84 1791.34,-132.13 1784,-121 1747.78,-66.07 1544.86,-28.82 1462.12,-15.71"/>
<polygon fill="#63b8ff" stroke="#63b8ff" points="1462.61,-12.25 1452.19,-14.16 1461.53,-19.16 1462.61,-12.25"/>
</a>
</g>
</g>
<!-- Node21&#45;&gt;Node16 -->
<g id="edge46_Node000021_Node000016" class="edge">
<title>Node21&#45;&gt;Node16</title>
<g id="a_edge46_Node000021_Node000016"><a xlink:title=" ">
<path fill="none" stroke="#63b8ff" d="M1446.47,-192.42C1424.68,-184.74 1395.7,-171.48 1377,-151 1346.06,-117.11 1375.58,-82.7 1339,-55 1308.31,-31.76 1052.18,-17.32 948.91,-12.4"/>
<polygon fill="#63b8ff" stroke="#63b8ff" points="948.98,-8.9 938.83,-11.93 948.65,-15.89 948.98,-8.9"/>
</a>
</g>
</g>
<!-- Node22 -->
<g id="Node000022" class="node">
<title>Node22</title>
<g id="a_Node000022"><a xlink:title=" ">
<polygon fill="#e0e0e0" stroke="#999999" points="1330,-79.5 1280,-79.5 1280,-60.5 1330,-60.5 1330,-79.5"/>
<text text-anchor="middle" x="1305" y="-67.5" font-family="Helvetica,sans-Serif" font-size="10.00">chrono</text>
</a>
</g>
</g>
<!-- Node21&#45;&gt;Node22 -->
<g id="edge38_Node000021_Node000022" class="edge">
<title>Node21&#45;&gt;Node22</title>
<g id="a_edge38_Node000021_Node000022"><a xlink:title=" ">
<path fill="none" stroke="#63b8ff" d="M1547.56,-197.02C1615.26,-191.58 1709.87,-179.06 1733,-151 1741.48,-140.71 1741.86,-130.96 1733,-121 1707.02,-91.81 1438.4,-76.96 1340.47,-72.49"/>
<polygon fill="#63b8ff" stroke="#63b8ff" points="1340.34,-68.98 1330.2,-72.03 1340.03,-75.97 1340.34,-68.98"/>
</a>
</g>
</g>
<!-- Node23 -->
<g id="Node000023" class="node">
<title>Node23</title>
<g id="a_Node000023"><a xlink:title=" ">
<polygon fill="#e0e0e0" stroke="#999999" points="1436,-145.5 1386,-145.5 1386,-126.5 1436,-126.5 1436,-145.5"/>
<text text-anchor="middle" x="1411" y="-133.5" font-family="Helvetica,sans-Serif" font-size="10.00">cstring</text>
</a>
</g>
</g>
<!-- Node21&#45;&gt;Node23 -->
<g id="edge40_Node000021_Node000023" class="edge">
<title>Node21&#45;&gt;Node23</title>
<g id="a_edge40_Node000021_Node000023"><a xlink:title=" ">
<path fill="none" stroke="#63b8ff" d="M1467.23,-192.37C1457.02,-182.31 1439.92,-165.48 1427.26,-153.01"/>
<polygon fill="#63b8ff" stroke="#63b8ff" points="1429.63,-150.43 1420.04,-145.91 1424.71,-155.42 1429.63,-150.43"/>
</a>
</g>
</g>
<!-- Node24 -->
<g id="Node000024" class="node">
<title>Node24</title>
<g id="a_Node000024"><a xlink:title=" ">
<polygon fill="#e0e0e0" stroke="#999999" points="1498,-145.5 1454,-145.5 1454,-126.5 1498,-126.5 1498,-145.5"/>
<text text-anchor="middle" x="1476" y="-133.5" font-family="Helvetica,sans-Serif" font-size="10.00">ctime</text>
</a>
</g>
</g>
<!-- Node21&#45;&gt;Node24 -->
<g id="edge41_Node000021_Node000024" class="edge">
<title>Node21&#45;&gt;Node24</title>
<g id="a_edge41_Node000021_Node000024"><a xlink:title=" ">
<path fill="none" stroke="#63b8ff" d="M1476,-192.37C1476,-183.16 1476,-168.29 1476,-156.27"/>
<polygon fill="#63b8ff" stroke="#63b8ff" points="1479.5,-155.91 1476,-145.91 1472.5,-155.91 1479.5,-155.91"/>
</a>
</g>
</g>
<!-- Node25 -->
<g id="Node000025" class="node">
<title>Node25</title>
<g id="a_Node000025"><a xlink:title=" ">
<polygon fill="#e0e0e0" stroke="#999999" points="1572,-145.5 1516,-145.5 1516,-126.5 1572,-126.5 1572,-145.5"/>
<text text-anchor="middle" x="1544" y="-133.5" font-family="Helvetica,sans-Serif" font-size="10.00">iomanip</text>
</a>
</g>
</g>
<!-- Node21&#45;&gt;Node25 -->
<g id="edge43_Node000021_Node000025" class="edge">
<title>Node21&#45;&gt;Node25</title>
<g id="a_edge43_Node000021_Node000025"><a xlink:title=" ">
<path fill="none" stroke="#63b8ff" d="M1485.17,-192.37C1495.86,-182.31 1513.74,-165.48 1526.99,-153.01"/>
<polygon fill="#63b8ff" stroke="#63b8ff" points="1529.65,-155.31 1534.54,-145.91 1524.86,-150.21 1529.65,-155.31"/>
</a>
</g>
</g>
<!-- Node26 -->
<g id="Node000026" class="node">
<title>Node26</title>
<g id="a_Node000026"><a xlink:title=" ">
<polygon fill="#e0e0e0" stroke="#999999" points="1650,-145.5 1590,-145.5 1590,-126.5 1650,-126.5 1650,-145.5"/>
<text text-anchor="middle" x="1620" y="-133.5" font-family="Helvetica,sans-Serif" font-size="10.00">iostream</text>
</a>
</g>
</g>
<!-- Node21&#45;&gt;Node26 -->
<g id="edge44_Node000021_Node000026" class="edge">
<title>Node21&#45;&gt;Node26</title>
<g id="a_edge44_Node000021_Node000026"><a xlink:title=" ">
<path fill="none" stroke="#63b8ff" d="M1495.42,-192.37C1520.01,-181.44 1562.57,-162.52 1591.01,-149.88"/>
<polygon fill="#63b8ff" stroke="#63b8ff" points="1592.71,-152.96 1600.43,-145.7 1589.87,-146.56 1592.71,-152.96"/>
</a>
</g>
</g>
<!-- Node27 -->
<g id="Node000027" class="node">
<title>Node27</title>
<g id="a_Node000027"><a xlink:title=" ">
<polygon fill="#e0e0e0" stroke="#999999" points="1724,-145.5 1668,-145.5 1668,-126.5 1724,-126.5 1724,-145.5"/>
<text text-anchor="middle" x="1696" y="-133.5" font-family="Helvetica,sans-Serif" font-size="10.00">sstream</text>
</a>
</g>
</g>
<!-- Node21&#45;&gt;Node27 -->
<g id="edge45_Node000021_Node000027" class="edge">
<title>Node21&#45;&gt;Node27</title>
<g id="a_edge45_Node000021_Node000027"><a xlink:title=" ">
<path fill="none" stroke="#63b8ff" d="M1511.03,-192.48C1548.08,-183.23 1608.1,-167.54 1659,-151 1660.86,-150.4 1662.77,-149.75 1664.68,-149.08"/>
<polygon fill="#63b8ff" stroke="#63b8ff" points="1666,-152.33 1674.21,-145.64 1663.62,-145.75 1666,-152.33"/>
</a>
</g>
</g>
<!-- Node28 -->
<g id="Node000028" class="node">
<title>Node28</title>
<g id="a_Node000028"><a xlink:href="platform_8hpp.html" target="_top" xlink:title=" ">
<polygon fill="white" stroke="#666666" points="1292,-145.5 1150,-145.5 1150,-126.5 1292,-126.5 1292,-145.5"/>
<text text-anchor="middle" x="1221" y="-133.5" font-family="Helvetica,sans-Serif" font-size="10.00">unilink/base/platform.hpp</text>
</a>
</g>
</g>
<!-- Node21&#45;&gt;Node28 -->
<g id="edge52_Node000021_Node000028" class="edge">
<title>Node21&#45;&gt;Node28</title>
<g id="a_edge52_Node000021_Node000028"><a xlink:title=" ">
<path fill="none" stroke="#63b8ff" d="M1441.87,-192.44C1396.17,-180.96 1315.02,-160.6 1264.83,-148"/>
<polygon fill="#63b8ff" stroke="#63b8ff" points="1265.48,-144.55 1254.92,-145.51 1263.77,-151.34 1265.48,-144.55"/>
</a>
</g>
</g>
<!-- Node29 -->
<g id="Node000029" class="node">
<title>Node29</title>
<g id="a_Node000029"><a xlink:href="logger_8hpp.html" target="_top" xlink:title=" ">
<polygon fill="white" stroke="#666666" points="1094,-151 986,-151 986,-121 1094,-121 1094,-151"/>
<text text-anchor="start" x="994" y="-139" font-family="Helvetica,sans-Serif" font-size="10.00">unilink/diagnostics</text>
<text text-anchor="middle" x="1040" y="-128" font-family="Helvetica,sans-Serif" font-size="10.00">/logger.hpp</text>
</a>
</g>
</g>
<!-- Node21&#45;&gt;Node29 -->
<g id="edge55_Node000021_Node000029" class="edge">
<title>Node21&#45;&gt;Node29</title>
<g id="a_edge55_Node000021_Node000029"><a xlink:title=" ">
<path fill="none" stroke="#63b8ff" d="M1404.2,-192.71C1329.87,-183.79 1210.49,-168.49 1108,-151 1106.73,-150.78 1105.45,-150.56 1104.16,-150.33"/>
<polygon fill="#63b8ff" stroke="#63b8ff" points="1104.6,-146.85 1094.13,-148.49 1103.33,-153.74 1104.6,-146.85"/>
</a>
</g>
</g>
<!-- Node28&#45;&gt;Node5 -->
<g id="edge53_Node000028_Node000005" class="edge">
<title>Node28&#45;&gt;Node5</title>
<g id="a_edge53_Node000028_Node000005"><a xlink:title=" ">
<path fill="none" stroke="#63b8ff" d="M1271.59,-126.44C1350.48,-113.08 1500.6,-87.66 1566.56,-76.49"/>
<polygon fill="#63b8ff" stroke="#63b8ff" points="1567.48,-79.89 1576.76,-74.77 1566.32,-72.98 1567.48,-79.89"/>
</a>
</g>
</g>
<!-- Node28&#45;&gt;Node12 -->
<g id="edge54_Node000028_Node000012" class="edge">
<title>Node28&#45;&gt;Node12</title>
<g id="a_edge54_Node000028_Node000012"><a xlink:title=" ">
<path fill="none" stroke="#63b8ff" d="M1153.66,-126.49C1137.11,-124.54 1119.43,-122.58 1103,-121 886.96,-100.21 831.38,-111.74 616,-85 607.65,-83.96 598.85,-82.65 590.26,-81.24"/>
<polygon fill="#63b8ff" stroke="#63b8ff" points="590.76,-77.78 580.31,-79.56 589.59,-84.68 590.76,-77.78"/>
</a>
</g>
</g>
<!-- Node29&#45;&gt;Node3 -->
<g id="edge58_Node000029_Node000003" class="edge">
<title>Node29&#45;&gt;Node3</title>
<g id="a_edge58_Node000029_Node000003"><a xlink:title=" ">
<path fill="none" stroke="#63b8ff" d="M1042,-120.8C1043.28,-111.7 1044.95,-99.79 1046.34,-89.9"/>
<polygon fill="#63b8ff" stroke="#63b8ff" points="1049.83,-90.23 1047.76,-79.84 1042.9,-89.26 1049.83,-90.23"/>
</a>
</g>
</g>
<!-- Node29&#45;&gt;Node4 -->
<g id="edge59_Node000029_Node000004" class="edge">
<title>Node29&#45;&gt;Node4</title>
<g id="a_edge59_Node000029_Node000004"><a xlink:title=" ">
<path fill="none" stroke="#63b8ff" d="M985.91,-130.74C846.25,-119.7 482.62,-90.6 457,-85 454.17,-84.38 451.26,-83.61 448.37,-82.75"/>
<polygon fill="#63b8ff" stroke="#63b8ff" points="449.35,-79.39 438.76,-79.57 447.15,-86.03 449.35,-79.39"/>
</a>
</g>
</g>
<!-- Node29&#45;&gt;Node5 -->
<g id="edge61_Node000029_Node000005" class="edge">
<title>Node29&#45;&gt;Node5</title>
<g id="a_edge61_Node000029_Node000005"><a xlink:title=" ">
<path fill="none" stroke="#63b8ff" d="M1094.21,-127.19C1109.35,-125.09 1125.8,-122.88 1141,-121 1300.26,-101.27 1491.2,-81.76 1566.35,-74.24"/>
<polygon fill="#63b8ff" stroke="#63b8ff" points="1566.97,-77.69 1576.57,-73.22 1566.28,-70.73 1566.97,-77.69"/>
</a>
</g>
</g>
<!-- Node29&#45;&gt;Node6 -->
<g id="edge62_Node000029_Node000006" class="edge">
<title>Node29&#45;&gt;Node6</title>
<g id="a_edge62_Node000029_Node000006"><a xlink:title=" ">
<path fill="none" stroke="#63b8ff" d="M985.7,-125.83C910.98,-113.21 777.75,-90.71 707.42,-78.84"/>
<polygon fill="#63b8ff" stroke="#63b8ff" points="707.96,-75.38 697.52,-77.17 706.8,-82.28 707.96,-75.38"/>
</a>
</g>
</g>
<!-- Node29&#45;&gt;Node8 -->
<g id="edge63_Node000029_Node000008" class="edge">
<title>Node29&#45;&gt;Node8</title>
<g id="a_edge63_Node000029_Node000008"><a xlink:title=" ">
<path fill="none" stroke="#63b8ff" d="M985.78,-130.65C950.75,-127.85 904.18,-124.16 863,-121 648.37,-104.51 594.3,-105.37 380,-85 350.48,-82.19 316.98,-78.26 292.73,-75.28"/>
<polygon fill="#63b8ff" stroke="#63b8ff" points="292.97,-71.78 282.62,-74.02 292.11,-78.73 292.97,-71.78"/>
</a>
</g>
</g>
<!-- Node29&#45;&gt;Node12 -->
<g id="edge64_Node000029_Node000012" class="edge">
<title>Node29&#45;&gt;Node12</title>
<g id="a_edge64_Node000029_Node000012"><a xlink:title=" ">
<path fill="none" stroke="#63b8ff" d="M985.99,-129.61C905.3,-121.33 748.56,-104.4 616,-85 608.25,-83.87 600.1,-82.56 592.08,-81.22"/>
<polygon fill="#63b8ff" stroke="#63b8ff" points="592.49,-77.74 582.04,-79.51 591.31,-84.64 592.49,-77.74"/>
</a>
</g>
</g>
<!-- Node29&#45;&gt;Node22 -->
<g id="edge57_Node000029_Node000022" class="edge">
<title>Node29&#45;&gt;Node22</title>
<g id="a_edge57_Node000029_Node000022"><a xlink:title=" ">
<path fill="none" stroke="#63b8ff" d="M1094.38,-126.05C1141.64,-117.6 1211.65,-103.48 1271,-85 1272.68,-84.48 1274.38,-83.91 1276.1,-83.3"/>
<polygon fill="#63b8ff" stroke="#63b8ff" points="1277.71,-86.44 1285.8,-79.6 1275.21,-79.9 1277.71,-86.44"/>
</a>
</g>
</g>
<!-- Node30 -->
<g id="Node000030" class="node">
<title>Node30</title>
<g id="a_Node000030"><a xlink:title=" ">
<polygon fill="#e0e0e0" stroke="#999999" points="1150,-79.5 1100,-79.5 1100,-60.5 1150,-60.5 1150,-79.5"/>
<text text-anchor="middle" x="1125" y="-67.5" font-family="Helvetica,sans-Serif" font-size="10.00">atomic</text>
</a>
</g>
</g>
<!-- Node29&#45;&gt;Node30 -->
<g id="edge56_Node000029_Node000030" class="edge">
<title>Node29&#45;&gt;Node30</title>
<g id="a_edge56_Node000029_Node000030"><a xlink:title=" ">
<path fill="none" stroke="#63b8ff" d="M1058.86,-120.8C1072.64,-110.43 1091.26,-96.4 1105.24,-85.88"/>
<polygon fill="#63b8ff" stroke="#63b8ff" points="1107.37,-88.66 1113.25,-79.84 1103.16,-83.06 1107.37,-88.66"/>
</a>
</g>
</g>
<!-- Node31 -->
<g id="Node000031" class="node">
<title>Node31</title>
<g id="a_Node000031"><a xlink:title=" ">
<polygon fill="#e0e0e0" stroke="#999999" points="1261.5,-79.5 1168.5,-79.5 1168.5,-60.5 1261.5,-60.5 1261.5,-79.5"/>
<text text-anchor="middle" x="1215" y="-67.5" font-family="Helvetica,sans-Serif" font-size="10.00">source_location</text>
</a>
</g>
</g>
<!-- Node29&#45;&gt;Node31 -->
<g id="edge60_Node000029_Node000031" class="edge">
<title>Node29&#45;&gt;Node31</title>
<g id="a_edge60_Node000029_Node000031"><a xlink:title=" ">
<path fill="none" stroke="#63b8ff" d="M1078.4,-120.95C1109.5,-109.58 1152.83,-93.74 1182.29,-82.96"/>
<polygon fill="#63b8ff" stroke="#63b8ff" points="1183.52,-86.24 1191.71,-79.52 1181.12,-79.66 1183.52,-86.24"/>
</a>
</g>
</g>
<!-- Node32&#45;&gt;Node5 -->
<g id="edge66_Node000032_Node000005" class="edge">
<title>Node32&#45;&gt;Node5</title>
<g id="a_edge66_Node000032_Node000005"><a xlink:title=" ">
<path fill="none" stroke="#63b8ff" d="M1746.85,-186.83C1770.74,-170.82 1801.63,-144.02 1784,-121 1765.53,-96.87 1679.21,-81.72 1631.28,-75.02"/>
<polygon fill="#63b8ff" stroke="#63b8ff" points="1631.49,-71.51 1621.12,-73.64 1630.56,-78.45 1631.49,-71.51"/>
</a>
</g>
</g>
<!-- Node33&#45;&gt;Node3 -->
<g id="edge69_Node000033_Node000003" class="edge">
<title>Node33&#45;&gt;Node3</title>
<g id="a_edge69_Node000033_Node000003"><a xlink:title=" ">
<path fill="none" stroke="#63b8ff" d="M854.1,-121.59C895.62,-111.96 952.38,-98.37 1002,-85 1005.12,-84.16 1008.36,-83.26 1011.6,-82.33"/>
<polygon fill="#63b8ff" stroke="#63b8ff" points="1012.61,-85.69 1021.23,-79.53 1010.65,-78.96 1012.61,-85.69"/>
</a>
</g>
</g>
<!-- Node33&#45;&gt;Node4 -->
<g id="edge70_Node000033_Node000004" class="edge">
<title>Node33&#45;&gt;Node4</title>
<g id="a_edge70_Node000033_Node000004"><a xlink:title=" ">
<path fill="none" stroke="#63b8ff" d="M735.99,-129.84C667.99,-123.08 553.23,-109.14 457,-85 454.5,-84.37 451.93,-83.65 449.36,-82.86"/>
<polygon fill="#63b8ff" stroke="#63b8ff" points="450.22,-79.46 439.63,-79.62 448.01,-86.1 450.22,-79.46"/>
</a>
</g>
</g>
<!-- Node33&#45;&gt;Node5 -->
<g id="edge72_Node000033_Node000005" class="edge">
<title>Node33&#45;&gt;Node5</title>
<g id="a_edge72_Node000033_Node000005"><a xlink:title=" ">
<path fill="none" stroke="#63b8ff" d="M854.12,-130.29C1012.88,-117.66 1444.74,-83.28 1566.59,-73.58"/>
<polygon fill="#63b8ff" stroke="#63b8ff" points="1567.07,-77.05 1576.76,-72.77 1566.52,-70.07 1567.07,-77.05"/>
</a>
</g>
</g>
<!-- Node33&#45;&gt;Node6 -->
<g id="edge73_Node000033_Node000006" class="edge">
<title>Node33&#45;&gt;Node6</title>
<g id="a_edge73_Node000033_Node000006"><a xlink:title=" ">
<path fill="none" stroke="#63b8ff" d="M765.59,-120.95C742.51,-109.93 710.62,-94.7 688.14,-83.96"/>
<polygon fill="#63b8ff" stroke="#63b8ff" points="689.37,-80.67 678.83,-79.52 686.35,-86.99 689.37,-80.67"/>
</a>
</g>
</g>
<!-- Node33&#45;&gt;Node8 -->
<g id="edge75_Node000033_Node000008" class="edge">
<title>Node33&#45;&gt;Node8</title>
<g id="a_edge75_Node000033_Node000008"><a xlink:title=" ">
<path fill="none" stroke="#63b8ff" d="M735.85,-127.94C623.35,-114.5 381.86,-85.67 292.85,-75.04"/>
<polygon fill="#63b8ff" stroke="#63b8ff" points="293.11,-71.55 282.77,-73.84 292.28,-78.5 293.11,-71.55"/>
</a>
</g>
</g>
<!-- Node33&#45;&gt;Node11 -->
<g id="edge68_Node000033_Node000011" class="edge">
<title>Node33&#45;&gt;Node11</title>
<g id="a_edge68_Node000033_Node000011"><a xlink:title=" ">
<path fill="none" stroke="#63b8ff" d="M854.26,-123.79C888.91,-115.83 932.81,-103.28 969,-85 988.52,-75.14 987.7,-63.13 1008,-55 1077.51,-27.17 1303.78,-15.4 1391.66,-11.79"/>
<polygon fill="#63b8ff" stroke="#63b8ff" points="1392.05,-15.28 1401.91,-11.38 1391.78,-8.28 1392.05,-15.28"/>
</a>
</g>
</g>
<!-- Node33&#45;&gt;Node12 -->
<g id="edge76_Node000033_Node000012" class="edge">
<title>Node33&#45;&gt;Node12</title>
<g id="a_edge76_Node000033_Node000012"><a xlink:title=" ">
<path fill="none" stroke="#63b8ff" d="M738.16,-120.95C690.64,-109.21 623.81,-92.7 580.21,-81.93"/>
<polygon fill="#63b8ff" stroke="#63b8ff" points="581.02,-78.52 570.47,-79.52 579.34,-85.31 581.02,-78.52"/>
</a>
</g>
</g>
<!-- Node33&#45;&gt;Node14 -->
<g id="edge77_Node000033_Node000014" class="edge">
<title>Node33&#45;&gt;Node14</title>
<g id="a_edge77_Node000033_Node000014"><a xlink:title=" ">
<path fill="none" stroke="#63b8ff" d="M818.26,-120.95C833.17,-111.95 852.73,-100.14 869.09,-90.27"/>
<polygon fill="#63b8ff" stroke="#63b8ff" points="871.04,-93.18 877.79,-85.01 867.42,-87.18 871.04,-93.18"/>
</a>
</g>
</g>
<!-- Node33&#45;&gt;Node16 -->
<g id="edge71_Node000033_Node000016" class="edge">
<title>Node33&#45;&gt;Node16</title>
<g id="a_edge71_Node000033_Node000016"><a xlink:title=" ">
<path fill="none" stroke="#63b8ff" d="M775.74,-120.86C755.72,-104.43 729.45,-76.79 746,-55 753.26,-45.45 818.69,-29.51 863.6,-19.53"/>
<polygon fill="#63b8ff" stroke="#63b8ff" points="864.39,-22.94 873.4,-17.37 862.88,-16.1 864.39,-22.94"/>
</a>
</g>
</g>
<!-- Node34 -->
<g id="Node000034" class="node">
<title>Node34</title>
<g id="a_Node000034"><a xlink:title=" ">
<polygon fill="#e0e0e0" stroke="#999999" points="823.5,-79.5 754.5,-79.5 754.5,-60.5 823.5,-60.5 823.5,-79.5"/>
<text text-anchor="middle" x="789" y="-67.5" font-family="Helvetica,sans-Serif" font-size="10.00">type_traits</text>
</a>
</g>
</g>
<!-- Node33&#45;&gt;Node34 -->
<g id="edge74_Node000033_Node000034" class="edge">
<title>Node33&#45;&gt;Node34</title>
<g id="a_edge74_Node000033_Node000034"><a xlink:title=" ">
<path fill="none" stroke="#63b8ff" d="M793.67,-120.8C792.82,-111.7 791.7,-99.79 790.77,-89.9"/>
<polygon fill="#63b8ff" stroke="#63b8ff" points="794.25,-89.47 789.83,-79.84 787.28,-90.13 794.25,-89.47"/>
</a>
</g>
</g>
</g>
</svg>
