<?xml version="1.0" encoding="UTF-8" standalone="no"?>
<!DOCTYPE svg PUBLIC "-//W3C//DTD SVG 1.1//EN"
 "http://www.w3.org/Graphics/SVG/1.1/DTD/svg11.dtd">
<!-- Generated by graphviz version 2.43.0 (0)
 -->
<!-- Title: unilink/builder/ibuilder.hpp Pages: 1 -->
<!--zoomable 335 -->

<svg id="main" version="1.1" xmlns="http://www.w3.org/2000/svg" xmlns:xlink="http://www.w3.org/1999/xlink" xml:space="preserve" onload="init(evt)">
<style type="text/css"><![CDATA[
.node, .edge {opacity: 0.7;}
.node.selected, .edge.selected {opacity: 1;}
.edge:hover path { stroke: red; }
.edge:hover polygon { stroke: red; fill: red; }
]]></style>

<defs>
  <circle id="rim" cx="0" cy="0" r="7"/>
  <circle id="rim2" cx="0" cy="0" r="3.5"/>
  <g id="zoomPlus">
    <use xlink:href="#rim" fill="#404040"><set attributeName="fill" to="#808080" begin="zoomplus.mouseover" end="zoomplus.mouseout"/></use>
    <path d="M-4,0h8M0,-4v8" fill="none" stroke="white" stroke-width="1.5" pointer-events="none"/>
  </g>
  <g id="zoomMin">
    <use xlink:href="#rim" fill="#404040"><set attributeName="fill" to="#808080" begin="zoomminus.mouseover" end="zoomminus.mouseout"/></use>
    <path d="M-4,0h8" fill="none" stroke="white" stroke-width="1.5" pointer-events="none"/>
  </g>
  <g id="arrowUp" transform="translate(30 24)">
    <use xlink:href="#rim"/>
    <path pointer-events="none" fill="none" stroke="white" stroke-width="1.5" d="M0,-3.0v7 M-2.5,-0.5L0,-3.0L2.5,-0.5"/>
  </g>
  <g id="arrowRight" transform="rotate(90) translate(36 -43)">
    <use xlink:href="#rim"/>
    <path pointer-events="none" fill="none" stroke="white" stroke-width="1.5" d="M0,-3.0v7 M-2.5,-0.5L0,-3.0L2.5,-0.5"/>
  </g>
  <g id="arrowDown" transform="rotate(180) translate(-30 -48)">
    <use xlink:href="#rim"/>
    <path pointer-events="none" fill="none" stroke="white" stroke-width="1.5" d="M0,-3.0v7 M-2.5,-0.5L0,-3.0L2.5,-0.5"/>
  </g>
  <g id="arrowLeft" transform="rotate(270) translate(-36 17)">
    <use xlink:href="#rim"/>
    <path pointer-events="none" fill="none" stroke="white" stroke-width="1.5" d="M0,-3.0v7 M-2.5,-0.5L0,-3.0L2.5,-0.5"/>
  </g>
  <g id="resetDef">
    <use xlink:href="#rim2" fill="#404040"><set attributeName="fill" to="#808080" begin="reset.mouseover" end="reset.mouseout"/></use>
  </g>
</defs>
<script type="application/ecmascript">
var viewWidth = 1708;
var viewHeight = 335;
var sectionId = 'dynsection-0';
</script>
<script type="application/ecmascript" xlink:href="svg.min.js"/>
<svg id="graph" class="graph">
<g id="viewport">
<title>unilink/builder/ibuilder.hpp</title>
<!-- Node1 -->
<g id="Node000001" class="node">
<title>Node1</title>
<g id="a_Node000001"><a xlink:title=" ">
<polygon fill="#999999" stroke="#666666" points="537,-327 391,-327 391,-308 537,-308 537,-327"/>
<text text-anchor="middle" x="464" y="-315" font-family="Helvetica,sans-Serif" font-size="10.00">unilink/builder/ibuilder.hpp</text>
</a>
</g>
</g>
<!-- Node2 -->
<g id="Node000002" class="node">
<title>Node2</title>
<g id="a_Node000002"><a xlink:title=" ">
<polygon fill="#e0e0e0" stroke="#999999" points="783.5,-79.5 718.5,-79.5 718.5,-60.5 783.5,-60.5 783.5,-79.5"/>
<text text-anchor="middle" x="751" y="-67.5" font-family="Helvetica,sans-Serif" font-size="10.00">functional</text>
</a>
</g>
</g>
<!-- Node1&#45;&gt;Node2 -->
<g id="edge1_Node000001_Node000002" class="edge">
<title>Node1&#45;&gt;Node2</title>
<g id="a_edge1_Node000001_Node000002"><a xlink:title=" ">
<path fill="none" stroke="#63b8ff" d="M537.18,-317.25C623.31,-316.38 758.73,-308.95 791,-272 815.85,-243.54 797.24,-224.26 791,-187 784.98,-151.09 769.17,-111.42 759.32,-89.02"/>
<polygon fill="#63b8ff" stroke="#63b8ff" points="762.45,-87.44 755.16,-79.76 756.07,-90.31 762.45,-87.44"/>
</a>
</g>
</g>
<!-- Node3 -->
<g id="Node000003" class="node">
<title>Node3</title>
<g id="a_Node000003"><a xlink:title=" ">
<polygon fill="#e0e0e0" stroke="#999999" points="328,-79.5 270,-79.5 270,-60.5 328,-60.5 328,-79.5"/>
<text text-anchor="middle" x="299" y="-67.5" font-family="Helvetica,sans-Serif" font-size="10.00">memory</text>
</a>
</g>
</g>
<!-- Node1&#45;&gt;Node3 -->
<g id="edge2_Node000001_Node000003" class="edge">
<title>Node1&#45;&gt;Node3</title>
<g id="a_edge2_Node000001_Node000003"><a xlink:title=" ">
<path fill="none" stroke="#63b8ff" d="M399.97,-307.99C366.74,-301.58 326.42,-290.59 294,-272 228.03,-234.16 202.1,-221.26 173,-151 167.9,-138.68 165.51,-132.03 173,-121 192.28,-92.61 230.47,-80.34 259.78,-75.04"/>
<polygon fill="#63b8ff" stroke="#63b8ff" points="260.41,-78.48 269.73,-73.44 259.3,-71.57 260.41,-78.48"/>
</a>
</g>
</g>
<!-- Node4 -->
<g id="Node000004" class="node">
<title>Node4</title>
<g id="a_Node000004"><a xlink:title=" ">
<polygon fill="#e0e0e0" stroke="#999999" points="1491,-19 1447,-19 1447,0 1491,0 1491,-19"/>
<text text-anchor="middle" x="1469" y="-7" font-family="Helvetica,sans-Serif" font-size="10.00">string</text>
</a>
</g>
</g>
<!-- Node1&#45;&gt;Node4 -->
<g id="edge3_Node000001_Node000004" class="edge">
<title>Node1&#45;&gt;Node4</title>
<g id="a_edge3_Node000001_Node000004"><a xlink:title=" ">
<path fill="none" stroke="#63b8ff" d="M537.16,-313.64C802.68,-302.79 1700,-261.75 1700,-203 1700,-203 1700,-203 1700,-135 1700,-45.85 1565.03,-20.25 1501.43,-13.13"/>
<polygon fill="#63b8ff" stroke="#63b8ff" points="1501.46,-9.61 1491.15,-12.07 1500.74,-16.58 1501.46,-9.61"/>
</a>
</g>
</g>
<!-- Node5 -->
<g id="Node000005" class="node">
<title>Node5</title>
<g id="a_Node000005"><a xlink:title=" ">
<polygon fill="#e0e0e0" stroke="#999999" points="661.5,-79.5 588.5,-79.5 588.5,-60.5 661.5,-60.5 661.5,-79.5"/>
<text text-anchor="middle" x="625" y="-67.5" font-family="Helvetica,sans-Serif" font-size="10.00">string_view</text>
</a>
</g>
</g>
<!-- Node1&#45;&gt;Node5 -->
<g id="edge4_Node000001_Node000005" class="edge">
<title>Node1&#45;&gt;Node5</title>
<g id="a_edge4_Node000001_Node000005"><a xlink:title=" ">
<path fill="none" stroke="#63b8ff" d="M498.9,-307.92C519.28,-301.25 544.05,-290.02 560,-272 607.59,-218.25 620.41,-129.18 623.8,-90.23"/>
<polygon fill="#63b8ff" stroke="#63b8ff" points="627.32,-90.08 624.58,-79.84 620.34,-89.55 627.32,-90.08"/>
</a>
</g>
</g>
<!-- Node6 -->
<g id="Node000006" class="node">
<title>Node6</title>
<g id="a_Node000006"><a xlink:title=" ">
<polygon fill="#e0e0e0" stroke="#999999" points="641.5,-19 594.5,-19 594.5,0 641.5,0 641.5,-19"/>
<text text-anchor="middle" x="618" y="-7" font-family="Helvetica,sans-Serif" font-size="10.00">vector</text>
</a>
</g>
</g>
<!-- Node1&#45;&gt;Node6 -->
<g id="edge5_Node000001_Node000006" class="edge">
<title>Node1&#45;&gt;Node6</title>
<g id="a_edge5_Node000001_Node000006"><a xlink:title=" ">
<path fill="none" stroke="#63b8ff" d="M476.45,-307.79C499.39,-290.6 546,-249.92 546,-203 546,-203 546,-203 546,-135 546,-90.97 580.16,-48.52 601.43,-26.37"/>
<polygon fill="#63b8ff" stroke="#63b8ff" points="604.02,-28.72 608.59,-19.16 599.06,-23.79 604.02,-28.72"/>
</a>
</g>
</g>
<!-- Node7 -->
<g id="Node000007" class="node">
<title>Node7</title>
<g id="a_Node000007"><a xlink:href="visibility_8hpp.html" target="_top" xlink:title=" ">
<polygon fill="white" stroke="#666666" points="502,-19 362,-19 362,0 502,0 502,-19"/>
<text text-anchor="middle" x="432" y="-7" font-family="Helvetica,sans-Serif" font-size="10.00">unilink/base/visibility.hpp</text>
</a>
</g>
</g>
<!-- Node1&#45;&gt;Node7 -->
<g id="edge6_Node000001_Node000007" class="edge">
<title>Node1&#45;&gt;Node7</title>
<g id="a_edge6_Node000001_Node000007"><a xlink:title=" ">
<path fill="none" stroke="#63b8ff" d="M390.92,-308.79C350.35,-302.55 299.79,-291.47 258,-272 196.52,-243.36 175.86,-217.95 165,-151 157.23,-103.1 175.73,-80.52 217,-55 240.15,-40.69 304.37,-28.5 356.64,-20.51"/>
<polygon fill="#63b8ff" stroke="#63b8ff" points="357.21,-23.97 366.58,-19.02 356.17,-17.04 357.21,-23.97"/>
</a>
</g>
</g>
<!-- Node8 -->
<g id="Node000008" class="node">
<title>Node8</title>
<g id="a_Node000008"><a xlink:href="iframer_8hpp.html" target="_top" xlink:title=" ">
<polygon fill="white" stroke="#666666" points="327.5,-145.5 182.5,-145.5 182.5,-126.5 327.5,-126.5 327.5,-145.5"/>
<text text-anchor="middle" x="255" y="-133.5" font-family="Helvetica,sans-Serif" font-size="10.00">unilink/framer/iframer.hpp</text>
</a>
</g>
</g>
<!-- Node1&#45;&gt;Node8 -->
<g id="edge7_Node000001_Node000008" class="edge">
<title>Node1&#45;&gt;Node8</title>
<g id="a_edge7_Node000001_Node000008"><a xlink:title=" ">
<path fill="none" stroke="#63b8ff" d="M420.58,-307.96C373.38,-296.21 299.78,-270.15 263,-217 250.55,-199.02 250.35,-173.08 252.06,-155.66"/>
<polygon fill="#63b8ff" stroke="#63b8ff" points="255.55,-155.98 253.35,-145.61 248.6,-155.09 255.55,-155.98"/>
</a>
</g>
</g>
<!-- Node9 -->
<g id="Node000009" class="node">
<title>Node9</title>
<g id="a_Node000009"><a xlink:href="safe__span_8hpp.html" target="_top" xlink:title=" ">
<polygon fill="white" stroke="#666666" points="118,-85 0,-85 0,-55 118,-55 118,-85"/>
<text text-anchor="start" x="8" y="-73" font-family="Helvetica,sans-Serif" font-size="10.00">unilink/memory/safe</text>
<text text-anchor="middle" x="59" y="-62" font-family="Helvetica,sans-Serif" font-size="10.00">_span.hpp</text>
</a>
</g>
</g>
<!-- Node1&#45;&gt;Node9 -->
<g id="edge26_Node000001_Node000009" class="edge">
<title>Node1&#45;&gt;Node9</title>
<g id="a_edge26_Node000001_Node000009"><a xlink:title=" ">
<path fill="none" stroke="#63b8ff" d="M390.89,-317.19C297.47,-316.49 142.93,-309.46 102,-272 51.99,-226.23 52.52,-137.71 56.13,-95.09"/>
<polygon fill="#63b8ff" stroke="#63b8ff" points="59.62,-95.35 57.1,-85.06 52.65,-94.67 59.62,-95.35"/>
</a>
</g>
</g>
<!-- Node13 -->
<g id="Node000013" class="node">
<title>Node13</title>
<g id="a_Node000013"><a xlink:href="line__framer_8hpp.html" target="_top" xlink:title=" ">
<polygon fill="white" stroke="#666666" points="517.5,-217 410.5,-217 410.5,-187 517.5,-187 517.5,-217"/>
<text text-anchor="start" x="418.5" y="-205" font-family="Helvetica,sans-Serif" font-size="10.00">unilink/framer/line</text>
<text text-anchor="middle" x="464" y="-194" font-family="Helvetica,sans-Serif" font-size="10.00">_framer.hpp</text>
</a>
</g>
</g>
<!-- Node1&#45;&gt;Node13 -->
<g id="edge16_Node000001_Node000013" class="edge">
<title>Node1&#45;&gt;Node13</title>
<g id="a_edge16_Node000001_Node000013"><a xlink:title=" ">
<path fill="none" stroke="#63b8ff" d="M464,-307.97C464,-291.08 464,-252.85 464,-227.48"/>
<polygon fill="#63b8ff" stroke="#63b8ff" points="467.5,-227.18 464,-217.18 460.5,-227.18 467.5,-227.18"/>
</a>
</g>
</g>
<!-- Node14 -->
<g id="Node000014" class="node">
<title>Node14</title>
<g id="a_Node000014"><a xlink:href="packet__framer_8hpp.html" target="_top" xlink:title=" ">
<polygon fill="white" stroke="#666666" points="392.5,-217 271.5,-217 271.5,-187 392.5,-187 392.5,-217"/>
<text text-anchor="start" x="279.5" y="-205" font-family="Helvetica,sans-Serif" font-size="10.00">unilink/framer/packet</text>
<text text-anchor="middle" x="332" y="-194" font-family="Helvetica,sans-Serif" font-size="10.00">_framer.hpp</text>
</a>
</g>
</g>
<!-- Node1&#45;&gt;Node14 -->
<g id="edge22_Node000001_Node000014" class="edge">
<title>Node1&#45;&gt;Node14</title>
<g id="a_edge22_Node000001_Node000014"><a xlink:title=" ">
<path fill="none" stroke="#63b8ff" d="M454.08,-307.97C433.47,-290.25 385.52,-249.02 356.22,-223.83"/>
<polygon fill="#63b8ff" stroke="#63b8ff" points="358.36,-221.05 348.49,-217.18 353.79,-226.35 358.36,-221.05"/>
</a>
</g>
</g>
<!-- Node15 -->
<g id="Node000015" class="node">
<title>Node15</title>
<g id="a_Node000015"><a xlink:href="context_8hpp.html" target="_top" xlink:title=" ">
<polygon fill="white" stroke="#666666" points="781.5,-272 628.5,-272 628.5,-253 781.5,-253 781.5,-272"/>
<text text-anchor="middle" x="705" y="-260" font-family="Helvetica,sans-Serif" font-size="10.00">unilink/wrapper/context.hpp</text>
</a>
</g>
</g>
<!-- Node1&#45;&gt;Node15 -->
<g id="edge27_Node000001_Node000015" class="edge">
<title>Node1&#45;&gt;Node15</title>
<g id="a_edge27_Node000001_Node000015"><a xlink:title=" ">
<path fill="none" stroke="#63b8ff" d="M502.72,-307.98C544.41,-298.82 610.82,-284.21 656.09,-274.26"/>
<polygon fill="#63b8ff" stroke="#63b8ff" points="656.96,-277.65 665.98,-272.08 655.46,-270.81 656.96,-277.65"/>
</a>
</g>
</g>
<!-- Node8&#45;&gt;Node2 -->
<g id="edge8_Node000008_Node000002" class="edge">
<title>Node8&#45;&gt;Node2</title>
<g id="a_edge8_Node000008_Node000002"><a xlink:title=" ">
<path fill="none" stroke="#63b8ff" d="M327.68,-127.46C410.83,-118.55 551,-102.7 671,-85 683.21,-83.2 696.41,-80.99 708.51,-78.87"/>
<polygon fill="#63b8ff" stroke="#63b8ff" points="709.14,-82.32 718.37,-77.12 707.91,-75.42 709.14,-82.32"/>
</a>
</g>
</g>
<!-- Node8&#45;&gt;Node3 -->
<g id="edge9_Node000008_Node000003" class="edge">
<title>Node8&#45;&gt;Node3</title>
<g id="a_edge9_Node000008_Node000003"><a xlink:title=" ">
<path fill="none" stroke="#63b8ff" d="M260.93,-126.37C267.59,-116.69 278.56,-100.74 287.01,-88.44"/>
<polygon fill="#63b8ff" stroke="#63b8ff" points="290.1,-90.13 292.88,-79.91 284.33,-86.16 290.1,-90.13"/>
</a>
</g>
</g>
<!-- Node8&#45;&gt;Node6 -->
<g id="edge10_Node000008_Node000006" class="edge">
<title>Node8&#45;&gt;Node6</title>
<g id="a_edge10_Node000008_Node000006"><a xlink:title=" ">
<path fill="none" stroke="#63b8ff" d="M252.48,-126.13C248.41,-109.68 242.56,-74.37 261,-55 272.11,-43.33 497.35,-21.55 584.23,-13.55"/>
<polygon fill="#63b8ff" stroke="#63b8ff" points="584.71,-17.02 594.35,-12.62 584.07,-10.05 584.71,-17.02"/>
</a>
</g>
</g>
<!-- Node8&#45;&gt;Node7 -->
<g id="edge11_Node000008_Node000007" class="edge">
<title>Node8&#45;&gt;Node7</title>
<g id="a_edge11_Node000008_Node000007"><a xlink:title=" ">
<path fill="none" stroke="#63b8ff" d="M247.27,-126.36C234.11,-110.61 210.44,-76.81 228,-55 243.66,-35.55 301.54,-24.15 351.67,-17.76"/>
<polygon fill="#63b8ff" stroke="#63b8ff" points="352.4,-21.2 361.9,-16.52 351.55,-14.25 352.4,-21.2"/>
</a>
</g>
</g>
<!-- Node8&#45;&gt;Node9 -->
<g id="edge12_Node000008_Node000009" class="edge">
<title>Node8&#45;&gt;Node9</title>
<g id="a_edge12_Node000008_Node000009"><a xlink:title=" ">
<path fill="none" stroke="#63b8ff" d="M228.57,-126.37C198.83,-116.66 149.77,-100.64 112.05,-88.32"/>
<polygon fill="#63b8ff" stroke="#63b8ff" points="112.82,-84.89 102.23,-85.12 110.65,-91.55 112.82,-84.89"/>
</a>
</g>
</g>
<!-- Node10 -->
<g id="Node000010" class="node">
<title>Node10</title>
<g id="a_Node000010"><a xlink:title=" ">
<polygon fill="#e0e0e0" stroke="#999999" points="201,-19 151,-19 151,0 201,0 201,-19"/>
<text text-anchor="middle" x="176" y="-7" font-family="Helvetica,sans-Serif" font-size="10.00">cstdint</text>
</a>
</g>
</g>
<!-- Node9&#45;&gt;Node10 -->
<g id="edge13_Node000009_Node000010" class="edge">
<title>Node9&#45;&gt;Node10</title>
<g id="a_edge13_Node000009_Node000010"><a xlink:title=" ">
<path fill="none" stroke="#63b8ff" d="M87.02,-54.99C106.02,-45.49 130.97,-33.02 149.61,-23.69"/>
<polygon fill="#63b8ff" stroke="#63b8ff" points="151.34,-26.74 158.72,-19.14 148.21,-20.48 151.34,-26.74"/>
</a>
</g>
</g>
<!-- Node11 -->
<g id="Node000011" class="node">
<title>Node11</title>
<g id="a_Node000011"><a xlink:title=" ">
<polygon fill="#e0e0e0" stroke="#999999" points="323.5,-19 258.5,-19 258.5,0 323.5,0 323.5,-19"/>
<text text-anchor="middle" x="291" y="-7" font-family="Helvetica,sans-Serif" font-size="10.00">stdexcept</text>
</a>
</g>
</g>
<!-- Node9&#45;&gt;Node11 -->
<g id="edge14_Node000009_Node000011" class="edge">
<title>Node9&#45;&gt;Node11</title>
<g id="a_edge14_Node000009_Node000011"><a xlink:title=" ">
<path fill="none" stroke="#63b8ff" d="M114.57,-54.99C155.62,-44.64 210.67,-30.75 248.3,-21.27"/>
<polygon fill="#63b8ff" stroke="#63b8ff" points="249.58,-24.55 258.42,-18.71 247.87,-17.77 249.58,-24.55"/>
</a>
</g>
</g>
<!-- Node12 -->
<g id="Node000012" class="node">
<title>Node12</title>
<g id="a_Node000012"><a xlink:title=" ">
<polygon fill="#e0e0e0" stroke="#999999" points="93.5,-19 24.5,-19 24.5,0 93.5,0 93.5,-19"/>
<text text-anchor="middle" x="59" y="-7" font-family="Helvetica,sans-Serif" font-size="10.00">type_traits</text>
</a>
</g>
</g>
<!-- Node9&#45;&gt;Node12 -->
<g id="edge15_Node000009_Node000012" class="edge">
<title>Node9&#45;&gt;Node12</title>
<g id="a_edge15_Node000009_Node000012"><a xlink:title=" ">
<path fill="none" stroke="#63b8ff" d="M59,-54.84C59,-47.21 59,-37.7 59,-29.45"/>
<polygon fill="#63b8ff" stroke="#63b8ff" points="62.5,-29.27 59,-19.27 55.5,-29.27 62.5,-29.27"/>
</a>
</g>
</g>
<!-- Node13&#45;&gt;Node4 -->
<g id="edge17_Node000013_Node000004" class="edge">
<title>Node13&#45;&gt;Node4</title>
<g id="a_edge17_Node000013_Node000004"><a xlink:title=" ">
<path fill="none" stroke="#63b8ff" d="M517.61,-198.04C650.13,-190.48 985.82,-169.73 1033,-151 1053,-143.06 1051.21,-129.44 1071,-121 1177.9,-75.4 1219.5,-121.01 1330,-85 1374.71,-70.43 1421.99,-41.88 1448.27,-24.66"/>
<polygon fill="#63b8ff" stroke="#63b8ff" points="1450.27,-27.54 1456.65,-19.09 1446.39,-21.71 1450.27,-27.54"/>
</a>
</g>
</g>
<!-- Node13&#45;&gt;Node5 -->
<g id="edge18_Node000013_Node000005" class="edge">
<title>Node13&#45;&gt;Node5</title>
<g id="a_edge18_Node000013_Node000005"><a xlink:title=" ">
<path fill="none" stroke="#63b8ff" d="M481.54,-186.84C512.08,-162.18 574.77,-111.56 606.19,-86.19"/>
<polygon fill="#63b8ff" stroke="#63b8ff" points="608.58,-88.75 614.17,-79.75 604.19,-83.31 608.58,-88.75"/>
</a>
</g>
</g>
<!-- Node13&#45;&gt;Node6 -->
<g id="edge19_Node000013_Node000006" class="edge">
<title>Node13&#45;&gt;Node6</title>
<g id="a_edge19_Node000013_Node000006"><a xlink:title=" ">
<path fill="none" stroke="#63b8ff" d="M467.31,-186.78C474.56,-158.46 494.26,-94.35 532,-55 546.53,-39.85 567.35,-28.89 584.86,-21.64"/>
<polygon fill="#63b8ff" stroke="#63b8ff" points="586.15,-24.89 594.19,-17.99 583.6,-18.38 586.15,-24.89"/>
</a>
</g>
</g>
<!-- Node13&#45;&gt;Node7 -->
<g id="edge20_Node000013_Node000007" class="edge">
<title>Node13&#45;&gt;Node7</title>
<g id="a_edge20_Node000013_Node000007"><a xlink:title=" ">
<path fill="none" stroke="#63b8ff" d="M461.65,-186.99C456,-153.35 441.65,-67.97 435.21,-29.64"/>
<polygon fill="#63b8ff" stroke="#63b8ff" points="438.6,-28.64 433.49,-19.36 431.69,-29.8 438.6,-28.64"/>
</a>
</g>
</g>
<!-- Node13&#45;&gt;Node8 -->
<g id="edge21_Node000013_Node000008" class="edge">
<title>Node13&#45;&gt;Node8</title>
<g id="a_edge21_Node000013_Node000008"><a xlink:title=" ">
<path fill="none" stroke="#63b8ff" d="M418.13,-186.95C380.51,-175.43 327.9,-159.32 292.7,-148.54"/>
<polygon fill="#63b8ff" stroke="#63b8ff" points="293.4,-145.1 282.81,-145.52 291.35,-151.79 293.4,-145.1"/>
</a>
</g>
</g>
<!-- Node14&#45;&gt;Node6 -->
<g id="edge23_Node000014_Node000006" class="edge">
<title>Node14&#45;&gt;Node6</title>
<g id="a_edge23_Node000014_Node000006"><a xlink:title=" ">
<path fill="none" stroke="#63b8ff" d="M345.58,-186.77C373.26,-158.43 439.19,-94.27 505,-55 530.23,-39.94 561.49,-28.09 584.72,-20.42"/>
<polygon fill="#63b8ff" stroke="#63b8ff" points="586.02,-23.68 594.47,-17.29 583.88,-17.01 586.02,-23.68"/>
</a>
</g>
</g>
<!-- Node14&#45;&gt;Node7 -->
<g id="edge24_Node000014_Node000007" class="edge">
<title>Node14&#45;&gt;Node7</title>
<g id="a_edge24_Node000014_Node000007"><a xlink:title=" ">
<path fill="none" stroke="#63b8ff" d="M339.35,-186.99C357.16,-153.06 402.61,-66.49 422.47,-28.66"/>
<polygon fill="#63b8ff" stroke="#63b8ff" points="425.8,-29.84 427.35,-19.36 419.6,-26.59 425.8,-29.84"/>
</a>
</g>
</g>
<!-- Node14&#45;&gt;Node8 -->
<g id="edge25_Node000014_Node000008" class="edge">
<title>Node14&#45;&gt;Node8</title>
<g id="a_edge25_Node000014_Node000008"><a xlink:title=" ">
<path fill="none" stroke="#63b8ff" d="M314.91,-186.8C302.67,-176.62 286.2,-162.93 273.62,-152.48"/>
<polygon fill="#63b8ff" stroke="#63b8ff" points="275.57,-149.54 265.64,-145.84 271.09,-154.93 275.57,-149.54"/>
</a>
</g>
</g>
<!-- Node15&#45;&gt;Node4 -->
<g id="edge29_Node000015_Node000004" class="edge">
<title>Node15&#45;&gt;Node4</title>
<g id="a_edge29_Node000015_Node000004"><a xlink:title=" ">
<path fill="none" stroke="#63b8ff" d="M781.69,-260.6C949.61,-258.04 1345.17,-248.75 1475,-217 1544.57,-199.99 1583.09,-211.12 1622,-151 1630.46,-137.92 1638.09,-77.45 1621,-55 1593.23,-18.52 1537.15,-10.68 1501.42,-9.65"/>
<polygon fill="#63b8ff" stroke="#63b8ff" points="1501.08,-6.15 1491.04,-9.53 1500.99,-13.15 1501.08,-6.15"/>
</a>
</g>
</g>
<!-- Node15&#45;&gt;Node5 -->
<g id="edge30_Node000015_Node000005" class="edge">
<title>Node15&#45;&gt;Node5</title>
<g id="a_edge30_Node000015_Node000005"><a xlink:title=" ">
<path fill="none" stroke="#63b8ff" d="M700.67,-252.7C696.31,-243.77 689.48,-229.52 684,-217 664.07,-171.45 642.68,-116.94 631.96,-89.18"/>
<polygon fill="#63b8ff" stroke="#63b8ff" points="635.15,-87.71 628.29,-79.63 628.61,-90.22 635.15,-87.71"/>
</a>
</g>
</g>
<!-- Node15&#45;&gt;Node6 -->
<g id="edge31_Node000015_Node000006" class="edge">
<title>Node15&#45;&gt;Node6</title>
<g id="a_edge31_Node000015_Node000006"><a xlink:title=" ">
<path fill="none" stroke="#63b8ff" d="M705.61,-252.95C707.34,-223.32 709.84,-123.19 671,-55 664.03,-42.77 652.34,-32.41 641.7,-24.77"/>
<polygon fill="#63b8ff" stroke="#63b8ff" points="643.4,-21.69 633.15,-19.02 639.49,-27.5 643.4,-21.69"/>
</a>
</g>
</g>
<!-- Node15&#45;&gt;Node9 -->
<g id="edge68_Node000015_Node000009" class="edge">
<title>Node15&#45;&gt;Node9</title>
<g id="a_edge68_Node000015_Node000009"><a xlink:title=" ">
<path fill="none" stroke="#63b8ff" d="M628.43,-258.54C520.08,-253.55 327.94,-241.5 263,-217 187.99,-188.7 115.38,-125.61 80.5,-92.4"/>
<polygon fill="#63b8ff" stroke="#63b8ff" points="82.87,-89.82 73.24,-85.4 78.01,-94.86 82.87,-89.82"/>
</a>
</g>
</g>
<!-- Node16 -->
<g id="Node000016" class="node">
<title>Node16</title>
<g id="a_Node000016"><a xlink:title=" ">
<polygon fill="#e0e0e0" stroke="#999999" points="782,-211.5 726,-211.5 726,-192.5 782,-192.5 782,-211.5"/>
<text text-anchor="middle" x="754" y="-199.5" font-family="Helvetica,sans-Serif" font-size="10.00">optional</text>
</a>
</g>
</g>
<!-- Node15&#45;&gt;Node16 -->
<g id="edge28_Node000015_Node000016" class="edge">
<title>Node15&#45;&gt;Node16</title>
<g id="a_edge28_Node000015_Node000016"><a xlink:title=" ">
<path fill="none" stroke="#63b8ff" d="M712.23,-252.87C719.54,-244.14 731.02,-230.43 740.1,-219.59"/>
<polygon fill="#63b8ff" stroke="#63b8ff" points="743,-221.58 746.74,-211.67 737.64,-217.09 743,-221.58"/>
</a>
</g>
</g>
<!-- Node17 -->
<g id="Node000017" class="node">
<title>Node17</title>
<g id="a_Node000017"><a xlink:href="common_8hpp.html" target="_top" xlink:title=" ">
<polygon fill="white" stroke="#666666" points="1208.5,-211.5 1065.5,-211.5 1065.5,-192.5 1208.5,-192.5 1208.5,-211.5"/>
<text text-anchor="middle" x="1137" y="-199.5" font-family="Helvetica,sans-Serif" font-size="10.00">unilink/base/common.hpp</text>
</a>
</g>
</g>
<!-- Node15&#45;&gt;Node17 -->
<g id="edge32_Node000015_Node000017" class="edge">
<title>Node15&#45;&gt;Node17</title>
<g id="a_edge32_Node000015_Node000017"><a xlink:title=" ">
<path fill="none" stroke="#63b8ff" d="M767.82,-252.99C846.44,-242.35 980.86,-224.14 1063.98,-212.89"/>
<polygon fill="#63b8ff" stroke="#63b8ff" points="1064.67,-216.33 1074.11,-211.52 1063.73,-209.39 1064.67,-216.33"/>
</a>
</g>
</g>
<!-- Node31 -->
<g id="Node000031" class="node">
<title>Node31</title>
<g id="a_Node000031"><a xlink:href="error__codes_8hpp.html" target="_top" xlink:title=" ">
<polygon fill="white" stroke="#666666" points="1466,-217 1364,-217 1364,-187 1466,-187 1466,-217"/>
<text text-anchor="start" x="1372" y="-205" font-family="Helvetica,sans-Serif" font-size="10.00">unilink/base/error</text>
<text text-anchor="middle" x="1415" y="-194" font-family="Helvetica,sans-Serif" font-size="10.00">_codes.hpp</text>
</a>
</g>
</g>
<!-- Node15&#45;&gt;Node31 -->
<g id="edge66_Node000015_Node000031" class="edge">
<title>Node15&#45;&gt;Node31</title>
<g id="a_edge66_Node000015_Node000031"><a xlink:title=" ">
<path fill="none" stroke="#63b8ff" d="M781.66,-255.18C923.57,-243.49 1224.54,-218.69 1353.85,-208.04"/>
<polygon fill="#63b8ff" stroke="#63b8ff" points="1354.3,-211.51 1363.98,-207.2 1353.72,-204.54 1354.3,-211.51"/>
</a>
</g>
</g>
<!-- Node17&#45;&gt;Node2 -->
<g id="edge37_Node000017_Node000002" class="edge">
<title>Node17&#45;&gt;Node2</title>
<g id="a_edge37_Node000017_Node000002"><a xlink:title=" ">
<path fill="none" stroke="#63b8ff" d="M1065.3,-200.7C1001.96,-197.81 908.63,-186.97 836,-151 805.59,-135.94 778.59,-106.34 763.55,-87.68"/>
<polygon fill="#63b8ff" stroke="#63b8ff" points="766.26,-85.46 757.34,-79.73 760.74,-89.77 766.26,-85.46"/>
</a>
</g>
</g>
<!-- Node17&#45;&gt;Node4 -->
<g id="edge42_Node000017_Node000004" class="edge">
<title>Node17&#45;&gt;Node4</title>
<g id="a_edge42_Node000017_Node000004"><a xlink:title=" ">
<path fill="none" stroke="#63b8ff" d="M1208.69,-196.94C1316.26,-190.1 1509.14,-174.68 1530,-151 1563.42,-113.06 1513.55,-53.98 1485.68,-26.09"/>
<polygon fill="#63b8ff" stroke="#63b8ff" points="1488.09,-23.55 1478.49,-19.09 1483.21,-28.57 1488.09,-23.55"/>
</a>
</g>
</g>
<!-- Node17&#45;&gt;Node5 -->
<g id="edge43_Node000017_Node000005" class="edge">
<title>Node17&#45;&gt;Node5</title>
<g id="a_edge43_Node000017_Node000005"><a xlink:title=" ">
<path fill="none" stroke="#63b8ff" d="M1065.49,-197.14C994.33,-191.81 882.68,-179.39 790,-151 736.48,-134.61 678.65,-103 647.67,-84.8"/>
<polygon fill="#63b8ff" stroke="#63b8ff" points="649.34,-81.72 638.96,-79.62 645.76,-87.74 649.34,-81.72"/>
</a>
</g>
</g>
<!-- Node17&#45;&gt;Node6 -->
<g id="edge45_Node000017_Node000006" class="edge">
<title>Node17&#45;&gt;Node6</title>
<g id="a_edge45_Node000017_Node000006"><a xlink:title=" ">
<path fill="none" stroke="#63b8ff" d="M1065.46,-197.38C1017.69,-192.21 955.05,-179.93 907,-151 859.18,-122.2 873.87,-83.72 826,-55 771,-22.01 694.89,-13.3 651.63,-11.11"/>
<polygon fill="#63b8ff" stroke="#63b8ff" points="651.77,-7.61 641.63,-10.69 651.47,-14.61 651.77,-7.61"/>
</a>
</g>
</g>
<!-- Node17&#45;&gt;Node10 -->
<g id="edge34_Node000017_Node000010" class="edge">
<title>Node17&#45;&gt;Node10</title>
<g id="a_edge34_Node000017_Node000010"><a xlink:title=" ">
<path fill="none" stroke="#63b8ff" d="M1065.31,-195.67C980.27,-188.64 834.47,-174.34 711,-151 660.56,-141.46 321.14,-49.84 210.67,-19.91"/>
<polygon fill="#63b8ff" stroke="#63b8ff" points="211.58,-16.53 201.01,-17.29 209.75,-23.28 211.58,-16.53"/>
</a>
</g>
</g>
<!-- Node17&#45;&gt;Node11 -->
<g id="edge41_Node000017_Node000011" class="edge">
<title>Node17&#45;&gt;Node11</title>
<g id="a_edge41_Node000017_Node000011"><a xlink:title=" ">
<path fill="none" stroke="#63b8ff" d="M1065.42,-200.56C1009.28,-197.26 931.03,-185.93 872,-151 824.45,-122.86 841.96,-80.61 793,-55 706.07,-9.53 450.52,-29.67 353,-19 346.76,-18.32 340.18,-17.51 333.74,-16.67"/>
<polygon fill="#63b8ff" stroke="#63b8ff" points="334.16,-13.2 323.78,-15.33 333.22,-20.13 334.16,-13.2"/>
</a>
</g>
</g>
<!-- Node18 -->
<g id="Node000018" class="node">
<title>Node18</title>
<g id="a_Node000018"><a xlink:title=" ">
<polygon fill="#e0e0e0" stroke="#999999" points="1162,-19 1112,-19 1112,0 1162,0 1162,-19"/>
<text text-anchor="middle" x="1137" y="-7" font-family="Helvetica,sans-Serif" font-size="10.00">chrono</text>
</a>
</g>
</g>
<!-- Node17&#45;&gt;Node18 -->
<g id="edge33_Node000017_Node000018" class="edge">
<title>Node17&#45;&gt;Node18</title>
<g id="a_edge33_Node000017_Node000018"><a xlink:title=" ">
<path fill="none" stroke="#63b8ff" d="M1208.89,-196.34C1311.2,-188.97 1488.64,-173.14 1508,-151 1604.74,-40.35 1282.41,-16.54 1172.45,-11.69"/>
<polygon fill="#63b8ff" stroke="#63b8ff" points="1172.33,-8.18 1162.19,-11.26 1172.04,-15.17 1172.33,-8.18"/>
</a>
</g>
</g>
<!-- Node19 -->
<g id="Node000019" class="node">
<title>Node19</title>
<g id="a_Node000019"><a xlink:title=" ">
<polygon fill="#e0e0e0" stroke="#999999" points="1130,-145.5 1080,-145.5 1080,-126.5 1130,-126.5 1130,-145.5"/>
<text text-anchor="middle" x="1105" y="-133.5" font-family="Helvetica,sans-Serif" font-size="10.00">cstring</text>
</a>
</g>
</g>
<!-- Node17&#45;&gt;Node19 -->
<g id="edge35_Node000017_Node000019" class="edge">
<title>Node17&#45;&gt;Node19</title>
<g id="a_edge35_Node000017_Node000019"><a xlink:title=" ">
<path fill="none" stroke="#63b8ff" d="M1132.68,-192.37C1127.94,-182.88 1120.18,-167.36 1114.08,-155.16"/>
<polygon fill="#63b8ff" stroke="#63b8ff" points="1117.06,-153.28 1109.45,-145.91 1110.79,-156.41 1117.06,-153.28"/>
</a>
</g>
</g>
<!-- Node20 -->
<g id="Node000020" class="node">
<title>Node20</title>
<g id="a_Node000020"><a xlink:title=" ">
<polygon fill="#e0e0e0" stroke="#999999" points="1192,-145.5 1148,-145.5 1148,-126.5 1192,-126.5 1192,-145.5"/>
<text text-anchor="middle" x="1170" y="-133.5" font-family="Helvetica,sans-Serif" font-size="10.00">ctime</text>
</a>
</g>
</g>
<!-- Node17&#45;&gt;Node20 -->
<g id="edge36_Node000017_Node000020" class="edge">
<title>Node17&#45;&gt;Node20</title>
<g id="a_edge36_Node000017_Node000020"><a xlink:title=" ">
<path fill="none" stroke="#63b8ff" d="M1141.45,-192.37C1146.39,-182.78 1154.51,-167.05 1160.82,-154.8"/>
<polygon fill="#63b8ff" stroke="#63b8ff" points="1163.94,-156.4 1165.41,-145.91 1157.71,-153.19 1163.94,-156.4"/>
</a>
</g>
</g>
<!-- Node21 -->
<g id="Node000021" class="node">
<title>Node21</title>
<g id="a_Node000021"><a xlink:title=" ">
<polygon fill="#e0e0e0" stroke="#999999" points="1266,-145.5 1210,-145.5 1210,-126.5 1266,-126.5 1266,-145.5"/>
<text text-anchor="middle" x="1238" y="-133.5" font-family="Helvetica,sans-Serif" font-size="10.00">iomanip</text>
</a>
</g>
</g>
<!-- Node17&#45;&gt;Node21 -->
<g id="edge38_Node000017_Node000021" class="edge">
<title>Node17&#45;&gt;Node21</title>
<g id="a_edge38_Node000017_Node000021"><a xlink:title=" ">
<path fill="none" stroke="#63b8ff" d="M1150.62,-192.37C1167.34,-181.78 1195.91,-163.67 1215.81,-151.06"/>
<polygon fill="#63b8ff" stroke="#63b8ff" points="1217.7,-154.01 1224.27,-145.7 1213.95,-148.1 1217.7,-154.01"/>
</a>
</g>
</g>
<!-- Node22 -->
<g id="Node000022" class="node">
<title>Node22</title>
<g id="a_Node000022"><a xlink:title=" ">
<polygon fill="#e0e0e0" stroke="#999999" points="1344,-145.5 1284,-145.5 1284,-126.5 1344,-126.5 1344,-145.5"/>
<text text-anchor="middle" x="1314" y="-133.5" font-family="Helvetica,sans-Serif" font-size="10.00">iostream</text>
</a>
</g>
</g>
<!-- Node17&#45;&gt;Node22 -->
<g id="edge39_Node000017_Node000022" class="edge">
<title>Node17&#45;&gt;Node22</title>
<g id="a_edge39_Node000017_Node000022"><a xlink:title=" ">
<path fill="none" stroke="#63b8ff" d="M1160.87,-192.37C1191.7,-181.22 1245.55,-161.75 1280.48,-149.12"/>
<polygon fill="#63b8ff" stroke="#63b8ff" points="1282.01,-152.29 1290.23,-145.6 1279.63,-145.71 1282.01,-152.29"/>
</a>
</g>
</g>
<!-- Node23 -->
<g id="Node000023" class="node">
<title>Node23</title>
<g id="a_Node000023"><a xlink:title=" ">
<polygon fill="#e0e0e0" stroke="#999999" points="1418,-145.5 1362,-145.5 1362,-126.5 1418,-126.5 1418,-145.5"/>
<text text-anchor="middle" x="1390" y="-133.5" font-family="Helvetica,sans-Serif" font-size="10.00">sstream</text>
</a>
</g>
</g>
<!-- Node17&#45;&gt;Node23 -->
<g id="edge40_Node000017_Node000023" class="edge">
<title>Node17&#45;&gt;Node23</title>
<g id="a_edge40_Node000017_Node000023"><a xlink:title=" ">
<path fill="none" stroke="#63b8ff" d="M1181.72,-192.48C1225.73,-183.66 1294.62,-168.71 1353,-151 1354.92,-150.42 1356.89,-149.78 1358.86,-149.12"/>
<polygon fill="#63b8ff" stroke="#63b8ff" points="1360.4,-152.29 1368.65,-145.64 1358.05,-145.69 1360.4,-152.29"/>
</a>
</g>
</g>
<!-- Node24 -->
<g id="Node000024" class="node">
<title>Node24</title>
<g id="a_Node000024"><a xlink:title=" ">
<polygon fill="#e0e0e0" stroke="#999999" points="1481.5,-145.5 1436.5,-145.5 1436.5,-126.5 1481.5,-126.5 1481.5,-145.5"/>
<text text-anchor="middle" x="1459" y="-133.5" font-family="Helvetica,sans-Serif" font-size="10.00">utility</text>
</a>
</g>
</g>
<!-- Node17&#45;&gt;Node24 -->
<g id="edge44_Node000017_Node000024" class="edge">
<title>Node17&#45;&gt;Node24</title>
<g id="a_edge44_Node000017_Node000024"><a xlink:title=" ">
<path fill="none" stroke="#63b8ff" d="M1208.72,-193.53C1268.1,-186.19 1354.21,-172.85 1427,-151 1428.64,-150.51 1430.3,-149.96 1431.97,-149.36"/>
<polygon fill="#63b8ff" stroke="#63b8ff" points="1433.35,-152.58 1441.35,-145.63 1430.76,-146.07 1433.35,-152.58"/>
</a>
</g>
</g>
<!-- Node25 -->
<g id="Node000025" class="node">
<title>Node25</title>
<g id="a_Node000025"><a xlink:href="platform_8hpp.html" target="_top" xlink:title=" ">
<polygon fill="white" stroke="#666666" points="1286,-79.5 1144,-79.5 1144,-60.5 1286,-60.5 1286,-79.5"/>
<text text-anchor="middle" x="1215" y="-67.5" font-family="Helvetica,sans-Serif" font-size="10.00">unilink/base/platform.hpp</text>
</a>
</g>
</g>
<!-- Node17&#45;&gt;Node25 -->
<g id="edge46_Node000017_Node000025" class="edge">
<title>Node17&#45;&gt;Node25</title>
<g id="a_edge46_Node000017_Node000025"><a xlink:title=" ">
<path fill="none" stroke="#63b8ff" d="M1208.87,-195.84C1306.97,-188.06 1472.78,-171.97 1491,-151 1499.74,-140.93 1499.55,-131.23 1491,-121 1466.52,-91.68 1368.4,-79.52 1296.09,-74.5"/>
<polygon fill="#63b8ff" stroke="#63b8ff" points="1296.28,-71 1286.07,-73.84 1295.81,-77.99 1296.28,-71"/>
</a>
</g>
</g>
<!-- Node26 -->
<g id="Node000026" class="node">
<title>Node26</title>
<g id="a_Node000026"><a xlink:href="logger_8hpp.html" target="_top" xlink:title=" ">
<polygon fill="white" stroke="#666666" points="1024,-151 916,-151 916,-121 1024,-121 1024,-151"/>
<text text-anchor="start" x="924" y="-139" font-family="Helvetica,sans-Serif" font-size="10.00">unilink/diagnostics</text>
<text text-anchor="middle" x="970" y="-128" font-family="Helvetica,sans-Serif" font-size="10.00">/logger.hpp</text>
</a>
</g>
</g>
<!-- Node17&#45;&gt;Node26 -->
<g id="edge49_Node000017_Node000026" class="edge">
<title>Node17&#45;&gt;Node26</title>
<g id="a_edge49_Node000017_Node000026"><a xlink:title=" ">
<path fill="none" stroke="#63b8ff" d="M1114.48,-192.37C1089.47,-182.78 1048.4,-167.05 1016.43,-154.8"/>
<polygon fill="#63b8ff" stroke="#63b8ff" points="1017.42,-151.43 1006.83,-151.12 1014.92,-157.96 1017.42,-151.43"/>
</a>
</g>
</g>
<!-- Node25&#45;&gt;Node4 -->
<g id="edge47_Node000025_Node000004" class="edge">
<title>Node25&#45;&gt;Node4</title>
<g id="a_edge47_Node000025_Node000004"><a xlink:title=" ">
<path fill="none" stroke="#63b8ff" d="M1251.93,-60.49C1301.69,-49.03 1389.46,-28.82 1436.71,-17.94"/>
<polygon fill="#63b8ff" stroke="#63b8ff" points="1437.74,-21.29 1446.7,-15.64 1436.17,-14.47 1437.74,-21.29"/>
</a>
</g>
</g>
<!-- Node25&#45;&gt;Node7 -->
<g id="edge48_Node000025_Node000007" class="edge">
<title>Node25&#45;&gt;Node7</title>
<g id="a_edge48_Node000025_Node000007"><a xlink:title=" ">
<path fill="none" stroke="#63b8ff" d="M1143.97,-62.34C1117.33,-59.92 1086.78,-57.23 1059,-55 862.67,-39.22 631.51,-23.57 512.23,-15.71"/>
<polygon fill="#63b8ff" stroke="#63b8ff" points="512.29,-12.21 502.09,-15.05 511.83,-19.2 512.29,-12.21"/>
</a>
</g>
</g>
<!-- Node26&#45;&gt;Node2 -->
<g id="edge52_Node000026_Node000002" class="edge">
<title>Node26&#45;&gt;Node2</title>
<g id="a_edge52_Node000026_Node000002"><a xlink:title=" ">
<path fill="none" stroke="#63b8ff" d="M921.94,-120.95C882.35,-109.38 826.91,-93.18 790.03,-82.41"/>
<polygon fill="#63b8ff" stroke="#63b8ff" points="790.73,-78.96 780.15,-79.52 788.76,-85.68 790.73,-78.96"/>
</a>
</g>
</g>
<!-- Node26&#45;&gt;Node3 -->
<g id="edge53_Node000026_Node000003" class="edge">
<title>Node26&#45;&gt;Node3</title>
<g id="a_edge53_Node000026_Node000003"><a xlink:title=" ">
<path fill="none" stroke="#63b8ff" d="M915.94,-129.84C784.85,-117.34 452.42,-85.63 338.22,-74.74"/>
<polygon fill="#63b8ff" stroke="#63b8ff" points="338.47,-71.25 328.18,-73.78 337.8,-78.22 338.47,-71.25"/>
</a>
</g>
</g>
<!-- Node26&#45;&gt;Node4 -->
<g id="edge54_Node000026_Node000004" class="edge">
<title>Node26&#45;&gt;Node4</title>
<g id="a_edge54_Node000026_Node000004"><a xlink:title=" ">
<path fill="none" stroke="#63b8ff" d="M1024.13,-123.53C1028.81,-122.64 1033.49,-121.78 1038,-121 1151.65,-101.36 1187.64,-127.16 1295,-85 1316.69,-76.48 1317.21,-65.52 1338,-55 1370.31,-38.66 1409.99,-26.13 1437.16,-18.59"/>
<polygon fill="#63b8ff" stroke="#63b8ff" points="1438.18,-21.94 1446.92,-15.95 1436.35,-15.19 1438.18,-21.94"/>
</a>
</g>
</g>
<!-- Node26&#45;&gt;Node5 -->
<g id="edge55_Node000026_Node000005" class="edge">
<title>Node26&#45;&gt;Node5</title>
<g id="a_edge55_Node000026_Node000005"><a xlink:title=" ">
<path fill="none" stroke="#63b8ff" d="M915.71,-124.93C848.49,-112.46 735.1,-91.42 671.63,-79.65"/>
<polygon fill="#63b8ff" stroke="#63b8ff" points="671.98,-76.15 661.51,-77.77 670.7,-83.04 671.98,-76.15"/>
</a>
</g>
</g>
<!-- Node26&#45;&gt;Node6 -->
<g id="edge56_Node000026_Node000006" class="edge">
<title>Node26&#45;&gt;Node6</title>
<g id="a_edge56_Node000026_Node000006"><a xlink:title=" ">
<path fill="none" stroke="#63b8ff" d="M962.24,-120.73C951.39,-102.25 929.83,-70.6 902,-55 859.63,-31.25 717.48,-17.89 651.8,-12.85"/>
<polygon fill="#63b8ff" stroke="#63b8ff" points="651.81,-9.34 641.57,-12.08 651.28,-16.32 651.81,-9.34"/>
</a>
</g>
</g>
<!-- Node26&#45;&gt;Node7 -->
<g id="edge65_Node000026_Node000007" class="edge">
<title>Node26&#45;&gt;Node7</title>
<g id="a_edge65_Node000026_Node000007"><a xlink:title=" ">
<path fill="none" stroke="#63b8ff" d="M950.65,-120.94C924.02,-102.4 873.94,-70.34 826,-55 769.49,-36.91 610.41,-23 512.53,-15.85"/>
<polygon fill="#63b8ff" stroke="#63b8ff" points="512.6,-12.35 502.38,-15.12 512.1,-19.33 512.6,-12.35"/>
</a>
</g>
</g>
<!-- Node26&#45;&gt;Node18 -->
<g id="edge51_Node000026_Node000018" class="edge">
<title>Node26&#45;&gt;Node18</title>
<g id="a_edge51_Node000026_Node000018"><a xlink:title=" ">
<path fill="none" stroke="#63b8ff" d="M1011.78,-120.96C1032.95,-112.59 1058.28,-100.54 1078,-85 1098.37,-68.95 1115.96,-44.53 1126.51,-28.07"/>
<polygon fill="#63b8ff" stroke="#63b8ff" points="1129.58,-29.76 1131.88,-19.41 1123.64,-26.07 1129.58,-29.76"/>
</a>
</g>
</g>
<!-- Node27 -->
<g id="Node000027" class="node">
<title>Node27</title>
<g id="a_Node000027"><a xlink:title=" ">
<polygon fill="#e0e0e0" stroke="#999999" points="1094,-19 1044,-19 1044,0 1094,0 1094,-19"/>
<text text-anchor="middle" x="1069" y="-7" font-family="Helvetica,sans-Serif" font-size="10.00">atomic</text>
</a>
</g>
</g>
<!-- Node26&#45;&gt;Node27 -->
<g id="edge50_Node000026_Node000027" class="edge">
<title>Node26&#45;&gt;Node27</title>
<g id="a_edge50_Node000026_Node000027"><a xlink:title=" ">
<path fill="none" stroke="#63b8ff" d="M1012.22,-120.93C1029.43,-113.05 1047.85,-101.43 1059,-85 1070.09,-68.66 1071.56,-45.62 1070.91,-29.5"/>
<polygon fill="#63b8ff" stroke="#63b8ff" points="1074.38,-28.9 1070.17,-19.18 1067.4,-29.4 1074.38,-28.9"/>
</a>
</g>
</g>
<!-- Node28 -->
<g id="Node000028" class="node">
<title>Node28</title>
<g id="a_Node000028"><a xlink:href="log__rotation_8hpp.html" target="_top" xlink:title=" ">
<polygon fill="white" stroke="#666666" points="1050,-79.5 954,-79.5 954,-60.5 1050,-60.5 1050,-79.5"/>
<text text-anchor="middle" x="1002" y="-67.5" font-family="Helvetica,sans-Serif" font-size="10.00">log_rotation.hpp</text>
</a>
</g>
</g>
<!-- Node26&#45;&gt;Node28 -->
<g id="edge57_Node000026_Node000028" class="edge">
<title>Node26&#45;&gt;Node28</title>
<g id="a_edge57_Node000026_Node000028"><a xlink:title=" ">
<path fill="none" stroke="#63b8ff" d="M977.1,-120.8C981.8,-111.41 987.99,-99.02 993.03,-88.95"/>
<polygon fill="#63b8ff" stroke="#63b8ff" points="996.24,-90.35 997.58,-79.84 989.98,-87.22 996.24,-90.35"/>
</a>
</g>
</g>
<!-- Node28&#45;&gt;Node4 -->
<g id="edge62_Node000028_Node000004" class="edge">
<title>Node28&#45;&gt;Node4</title>
<g id="a_edge62_Node000028_Node000004"><a xlink:title=" ">
<path fill="none" stroke="#63b8ff" d="M1050.22,-62.96C1145.67,-51 1356.43,-24.6 1436.91,-14.52"/>
<polygon fill="#63b8ff" stroke="#63b8ff" points="1437.45,-17.98 1446.94,-13.26 1436.58,-11.03 1437.45,-17.98"/>
</a>
</g>
</g>
<!-- Node28&#45;&gt;Node6 -->
<g id="edge63_Node000028_Node000006" class="edge">
<title>Node28&#45;&gt;Node6</title>
<g id="a_edge63_Node000028_Node000006"><a xlink:title=" ">
<path fill="none" stroke="#63b8ff" d="M966.7,-60.48C958,-58.54 948.69,-56.58 940,-55 835.46,-36.01 710.51,-20.88 651.73,-14.21"/>
<polygon fill="#63b8ff" stroke="#63b8ff" points="651.87,-10.7 641.54,-13.06 651.09,-17.66 651.87,-10.7"/>
</a>
</g>
</g>
<!-- Node28&#45;&gt;Node7 -->
<g id="edge64_Node000028_Node000007" class="edge">
<title>Node28&#45;&gt;Node7</title>
<g id="a_edge64_Node000028_Node000007"><a xlink:title=" ">
<path fill="none" stroke="#63b8ff" d="M953.89,-64.06C855.96,-54.01 632.57,-31.08 512.27,-18.74"/>
<polygon fill="#63b8ff" stroke="#63b8ff" points="512.32,-15.22 502.01,-17.69 511.6,-22.19 512.32,-15.22"/>
</a>
</g>
</g>
<!-- Node28&#45;&gt;Node18 -->
<g id="edge59_Node000028_Node000018" class="edge">
<title>Node28&#45;&gt;Node18</title>
<g id="a_edge59_Node000028_Node000018"><a xlink:title=" ">
<path fill="none" stroke="#63b8ff" d="M1021.63,-60.49C1044.33,-50.66 1081.9,-34.38 1107.97,-23.08"/>
<polygon fill="#63b8ff" stroke="#63b8ff" points="1109.56,-26.2 1117.35,-19.02 1106.78,-19.78 1109.56,-26.2"/>
</a>
</g>
</g>
<!-- Node28&#45;&gt;Node27 -->
<g id="edge58_Node000028_Node000027" class="edge">
<title>Node28&#45;&gt;Node27</title>
<g id="a_edge58_Node000028_Node000027"><a xlink:title=" ">
<path fill="none" stroke="#63b8ff" d="M1011.89,-60.37C1022.28,-51.3 1038.84,-36.84 1051.45,-25.82"/>
<polygon fill="#63b8ff" stroke="#63b8ff" points="1053.84,-28.38 1059.07,-19.17 1049.24,-23.11 1053.84,-28.38"/>
</a>
</g>
</g>
<!-- Node29 -->
<g id="Node000029" class="node">
<title>Node29</title>
<g id="a_Node000029"><a xlink:title=" ">
<polygon fill="#e0e0e0" stroke="#999999" points="960,-19 892,-19 892,0 960,0 960,-19"/>
<text text-anchor="middle" x="926" y="-7" font-family="Helvetica,sans-Serif" font-size="10.00">filesystem</text>
</a>
</g>
</g>
<!-- Node28&#45;&gt;Node29 -->
<g id="edge60_Node000028_Node000029" class="edge">
<title>Node28&#45;&gt;Node29</title>
<g id="a_edge60_Node000028_Node000029"><a xlink:title=" ">
<path fill="none" stroke="#63b8ff" d="M990.79,-60.37C978.89,-51.21 959.86,-36.56 945.49,-25.51"/>
<polygon fill="#63b8ff" stroke="#63b8ff" points="947.32,-22.49 937.26,-19.17 943.05,-28.04 947.32,-22.49"/>
</a>
</g>
</g>
<!-- Node30 -->
<g id="Node000030" class="node">
<title>Node30</title>
<g id="a_Node000030"><a xlink:title=" ">
<polygon fill="#e0e0e0" stroke="#999999" points="1026,-19 978,-19 978,0 1026,0 1026,-19"/>
<text text-anchor="middle" x="1002" y="-7" font-family="Helvetica,sans-Serif" font-size="10.00">mutex</text>
</a>
</g>
</g>
<!-- Node28&#45;&gt;Node30 -->
<g id="edge61_Node000028_Node000030" class="edge">
<title>Node28&#45;&gt;Node30</title>
<g id="a_edge61_Node000028_Node000030"><a xlink:title=" ">
<path fill="none" stroke="#63b8ff" d="M1002,-60.37C1002,-52.25 1002,-39.81 1002,-29.39"/>
<polygon fill="#63b8ff" stroke="#63b8ff" points="1005.5,-29.17 1002,-19.17 998.5,-29.17 1005.5,-29.17"/>
</a>
</g>
</g>
<!-- Node31&#45;&gt;Node4 -->
<g id="edge67_Node000031_Node000004" class="edge">
<title>Node31&#45;&gt;Node4</title>
<g id="a_edge67_Node000031_Node000004"><a xlink:title=" ">
<path fill="none" stroke="#63b8ff" d="M1466.25,-194.17C1515.17,-186.47 1583.77,-172.2 1600,-151 1625.94,-117.12 1624.85,-89.68 1600,-55 1577.73,-23.91 1532.48,-14.28 1501.46,-11.44"/>
<polygon fill="#63b8ff" stroke="#63b8ff" points="1501.36,-7.93 1491.14,-10.7 1500.86,-14.91 1501.36,-7.93"/>
</a>
</g>
</g>
</g>
</svg>

<g id="navigator" transform="translate(0 0)" fill="#404254">
  <rect fill="#f2f5e9" fill-opacity="0.5" stroke="#606060" stroke-width=".5" x="0" y="0" width="60" height="60"/>
  <use id="zoomplus" xlink:href="#zoomPlus" x="17" y="9" onmousedown="handleZoom(evt,'in')"/>
  <use id="zoomminus" xlink:href="#zoomMin" x="42" y="9" onmousedown="handleZoom(evt,'out')"/>
  <use id="reset" xlink:href="#resetDef" x="30" y="36" onmousedown="handleReset()"/>
   <use id="arrowup" xlink:href="#arrowUp" x="0" y="0" onmousedown="handlePan(0,-1)"/>
  <use id="arrowright" xlink:href="#arrowRight" x="0" y="0" onmousedown="handlePan(1,0)"/>
  <use id="arrowdown" xlink:href="#arrowDown" x="0" y="0" onmousedown="handlePan(0,1)"/>
  <use id="arrowleft" xlink:href="#arrowLeft" x="0" y="0" onmousedown="handlePan(-1,0)"/>
</g>
<svg viewBox="0 0 15 15" width="100%" height="30px" preserveAspectRatio="xMaxYMin meet">
 <g id="arrow_out" transform="scale(0.3 0.3)">
  <a xlink:href="ibuilder_8hpp__incl_org.svg" target="_base">
   <rect id="button" ry="5" rx="5" y="6" x="6" height="38" width="38"
        fill="#f2f5e9" fill-opacity="0.5" stroke="#606060" stroke-width="1.0"/>
   <path id="arrow"
     d="M 11.500037,31.436501 C 11.940474,20.09759 22.043105,11.32322 32.158766,21.979434 L 37.068811,17.246167 C 37.068811,17.246167 37.088388,32 37.088388,32 L 22.160133,31.978069 C 22.160133,31.978069 26.997745,27.140456 26.997745,27.140456 C 18.528582,18.264221 13.291696,25.230495 11.500037,31.436501 z"
     style="fill:#404040;"/>
  </a>
 </g>
</svg>

<style type='text/css'>
<![CDATA[
[data-mouse-over-selected='false'] { opacity: 0.7; }
[data-mouse-over-selected='true']  { opacity: 1.0; }
]]>
</style>
<script type="application/ecmascript"><![CDATA[
document.addEventListener('DOMContentLoaded', (event) => {
  highlightEdges();
  highlightAdjacentNodes();
});
]]></script>
</svg>
