<?xml version="1.0" encoding="UTF-8" standalone="no"?>
<!DOCTYPE svg PUBLIC "-//W3C//DTD SVG 1.1//EN"
 "http://www.w3.org/Graphics/SVG/1.1/DTD/svg11.dtd">
<!-- Generated by graphviz version 2.43.0 (0)
 -->
<!-- Title: unilink/builder/ibuilder.hpp Pages: 1 -->
<svg width="2099pt" height="335pt"
 viewBox="0.00 0.00 2099.30 335.00" xmlns="http://www.w3.org/2000/svg" xmlns:xlink="http://www.w3.org/1999/xlink">
<g id="graph0" class="graph" transform="scale(1 1) rotate(0) translate(4 331)">
<title>unilink/builder/ibuilder.hpp</title>
<!-- Node1 -->
<g id="Node000001" class="node">
<title>Node1</title>
<g id="a_Node000001"><a xlink:title=" ">
<polygon fill="#999999" stroke="#666666" points="693,-327 547,-327 547,-308 693,-308 693,-327"/>
<text text-anchor="middle" x="620" y="-315" font-family="Helvetica,sans-Serif" font-size="10.00">unilink/builder/ibuilder.hpp</text>
</a>
</g>
</g>
<!-- Node2 -->
<g id="Node000002" class="node">
<title>Node2</title>
<g id="a_Node000002"><a xlink:title=" ">
<polygon fill="#e0e0e0" stroke="#999999" points="60,-272 0,-272 0,-253 60,-253 60,-272"/>
<text text-anchor="middle" x="30" y="-260" font-family="Helvetica,sans-Serif" font-size="10.00">concepts</text>
</a>
</g>
</g>
<!-- Node1&#45;&gt;Node2 -->
<g id="edge1_Node000001_Node000002" class="edge">
<title>Node1&#45;&gt;Node2</title>
<g id="a_edge1_Node000001_Node000002"><a xlink:title=" ">
<path fill="none" stroke="#63b8ff" d="M546.56,-313.7C442.57,-309.04 246.37,-297.69 70.13,-271.97"/>
<polygon fill="#63b8ff" stroke="#63b8ff" points="70.56,-268.49 60.16,-270.49 69.54,-275.42 70.56,-268.49"/>
</a>
</g>
</g>
<!-- Node3 -->
<g id="Node000003" class="node">
<title>Node3</title>
<g id="a_Node000003"><a xlink:title=" ">
<polygon fill="#e0e0e0" stroke="#999999" points="1068.5,-79.5 1003.5,-79.5 1003.5,-60.5 1068.5,-60.5 1068.5,-79.5"/>
<text text-anchor="middle" x="1036" y="-67.5" font-family="Helvetica,sans-Serif" font-size="10.00">functional</text>
</a>
</g>
</g>
<!-- Node1&#45;&gt;Node3 -->
<g id="edge2_Node000001_Node000003" class="edge">
<title>Node1&#45;&gt;Node3</title>
<g id="a_edge2_Node000001_Node000003"><a xlink:title=" ">
<path fill="none" stroke="#63b8ff" d="M686.35,-307.94C775.57,-292.78 932.71,-252.56 1017,-151 1031.36,-133.7 1035.24,-107.4 1036.1,-89.73"/>
<polygon fill="#63b8ff" stroke="#63b8ff" points="1039.61,-89.62 1036.31,-79.55 1032.61,-89.47 1039.61,-89.62"/>
</a>
</g>
</g>
<!-- Node4 -->
<g id="Node000004" class="node">
<title>Node4</title>
<g id="a_Node000004"><a xlink:title=" ">
<polygon fill="#e0e0e0" stroke="#999999" points="560,-79.5 502,-79.5 502,-60.5 560,-60.5 560,-79.5"/>
<text text-anchor="middle" x="531" y="-67.5" font-family="Helvetica,sans-Serif" font-size="10.00">memory</text>
</a>
</g>
</g>
<!-- Node1&#45;&gt;Node4 -->
<g id="edge3_Node000001_Node000004" class="edge">
<title>Node1&#45;&gt;Node4</title>
<g id="a_edge3_Node000001_Node000004"><a xlink:title=" ">
<path fill="none" stroke="#63b8ff" d="M564.13,-307.93C513.12,-296.77 440.82,-271.75 408,-217 385.97,-180.24 374.65,-156.26 399,-121 399.75,-119.92 459.16,-97.69 498.01,-83.24"/>
<polygon fill="#63b8ff" stroke="#63b8ff" points="499.73,-86.33 507.88,-79.57 497.29,-79.77 499.73,-86.33"/>
</a>
</g>
</g>
<!-- Node5 -->
<g id="Node000005" class="node">
<title>Node5</title>
<g id="a_Node000005"><a xlink:title=" ">
<polygon fill="#e0e0e0" stroke="#999999" points="1875,-79.5 1831,-79.5 1831,-60.5 1875,-60.5 1875,-79.5"/>
<text text-anchor="middle" x="1853" y="-67.5" font-family="Helvetica,sans-Serif" font-size="10.00">string</text>
</a>
</g>
</g>
<!-- Node1&#45;&gt;Node5 -->
<g id="edge4_Node000001_Node000005" class="edge">
<title>Node1&#45;&gt;Node5</title>
<g id="a_edge4_Node000001_Node000005"><a xlink:title=" ">
<path fill="none" stroke="#63b8ff" d="M693.24,-315.7C922.23,-312.9 1622.79,-302.04 1848,-272 1954.75,-257.76 2017.04,-301.36 2084,-217 2111.33,-182.57 2050.11,-126.93 2042,-121 1994.72,-86.43 1925.29,-75.74 1885.07,-72.45"/>
<polygon fill="#63b8ff" stroke="#63b8ff" points="1885.24,-68.96 1875.02,-71.74 1884.74,-75.94 1885.24,-68.96"/>
</a>
</g>
</g>
<!-- Node6 -->
<g id="Node000006" class="node">
<title>Node6</title>
<g id="a_Node000006"><a xlink:title=" ">
<polygon fill="#e0e0e0" stroke="#999999" points="1578.5,-79.5 1505.5,-79.5 1505.5,-60.5 1578.5,-60.5 1578.5,-79.5"/>
<text text-anchor="middle" x="1542" y="-67.5" font-family="Helvetica,sans-Serif" font-size="10.00">string_view</text>
</a>
</g>
</g>
<!-- Node1&#45;&gt;Node6 -->
<g id="edge5_Node000001_Node000006" class="edge">
<title>Node1&#45;&gt;Node6</title>
<g id="a_edge5_Node000001_Node000006"><a xlink:title=" ">
<path fill="none" stroke="#63b8ff" d="M693.28,-315.63C862.36,-313.12 1292.75,-303.87 1651,-272 1832.82,-255.83 1937.88,-354.44 2058,-217 2127.69,-137.25 2079.6,-168.34 1921,-121 1804.77,-86.31 1661.33,-75.67 1588.77,-72.42"/>
<polygon fill="#63b8ff" stroke="#63b8ff" points="1588.73,-68.91 1578.59,-71.99 1588.44,-75.91 1588.73,-68.91"/>
</a>
</g>
</g>
<!-- Node7 -->
<g id="Node000007" class="node">
<title>Node7</title>
<g id="a_Node000007"><a xlink:title=" ">
<polygon fill="#e0e0e0" stroke="#999999" points="833.5,-145.5 788.5,-145.5 788.5,-126.5 833.5,-126.5 833.5,-145.5"/>
<text text-anchor="middle" x="811" y="-133.5" font-family="Helvetica,sans-Serif" font-size="10.00">utility</text>
</a>
</g>
</g>
<!-- Node1&#45;&gt;Node7 -->
<g id="edge6_Node000001_Node000007" class="edge">
<title>Node1&#45;&gt;Node7</title>
<g id="a_edge6_Node000001_Node000007"><a xlink:title=" ">
<path fill="none" stroke="#63b8ff" d="M644.28,-308C679.93,-294.3 746.31,-264.04 784,-217 798.36,-199.08 805.26,-173.13 808.45,-155.69"/>
<polygon fill="#63b8ff" stroke="#63b8ff" points="811.93,-156.05 810.05,-145.63 805.02,-154.95 811.93,-156.05"/>
</a>
</g>
</g>
<!-- Node8 -->
<g id="Node000008" class="node">
<title>Node8</title>
<g id="a_Node000008"><a xlink:title=" ">
<polygon fill="#e0e0e0" stroke="#999999" points="783.5,-79.5 736.5,-79.5 736.5,-60.5 783.5,-60.5 783.5,-79.5"/>
<text text-anchor="middle" x="760" y="-67.5" font-family="Helvetica,sans-Serif" font-size="10.00">vector</text>
</a>
</g>
</g>
<!-- Node1&#45;&gt;Node8 -->
<g id="edge7_Node000001_Node000008" class="edge">
<title>Node1&#45;&gt;Node8</title>
<g id="a_edge7_Node000001_Node000008"><a xlink:title=" ">
<path fill="none" stroke="#63b8ff" d="M621.31,-307.83C624.83,-286.27 635.85,-228.93 659,-187 681.53,-146.19 720.3,-107.1 742.68,-86.36"/>
<polygon fill="#63b8ff" stroke="#63b8ff" points="745.09,-88.9 750.13,-79.58 740.38,-83.72 745.09,-88.9"/>
</a>
</g>
</g>
<!-- Node9 -->
<g id="Node000009" class="node">
<title>Node9</title>
<g id="a_Node000009"><a xlink:href="constants_8hpp.html" target="_top" xlink:title=" ">
<polygon fill="white" stroke="#666666" points="225.5,-272 78.5,-272 78.5,-253 225.5,-253 225.5,-272"/>
<text text-anchor="middle" x="152" y="-260" font-family="Helvetica,sans-Serif" font-size="10.00">unilink/base/constants.hpp</text>
</a>
</g>
</g>
<!-- Node1&#45;&gt;Node9 -->
<g id="edge8_Node000001_Node000009" class="edge">
<title>Node1&#45;&gt;Node9</title>
<g id="a_edge8_Node000001_Node000009"><a xlink:title=" ">
<path fill="none" stroke="#63b8ff" d="M546.88,-308.22C462.59,-298.67 324.33,-283.02 235.78,-272.99"/>
<polygon fill="#63b8ff" stroke="#63b8ff" points="236.1,-269.5 225.77,-271.85 235.31,-276.46 236.1,-269.5"/>
</a>
</g>
</g>
<!-- Node12 -->
<g id="Node000012" class="node">
<title>Node12</title>
<g id="a_Node000012"><a xlink:href="visibility_8hpp.html" target="_top" xlink:title=" ">
<polygon fill="white" stroke="#666666" points="718,-79.5 578,-79.5 578,-60.5 718,-60.5 718,-79.5"/>
<text text-anchor="middle" x="648" y="-67.5" font-family="Helvetica,sans-Serif" font-size="10.00">unilink/base/visibility.hpp</text>
</a>
</g>
</g>
<!-- Node1&#45;&gt;Node12 -->
<g id="edge11_Node000001_Node000012" class="edge">
<title>Node1&#45;&gt;Node12</title>
<g id="a_edge11_Node000001_Node000012"><a xlink:title=" ">
<path fill="none" stroke="#63b8ff" d="M597.28,-307.97C531.72,-282.12 350.98,-201.53 416,-121 421.56,-114.11 524.29,-93.92 591.17,-81.41"/>
<polygon fill="#63b8ff" stroke="#63b8ff" points="591.97,-84.82 601.16,-79.54 590.69,-77.94 591.97,-84.82"/>
</a>
</g>
</g>
<!-- Node13 -->
<g id="Node000013" class="node">
<title>Node13</title>
<g id="a_Node000013"><a xlink:href="iframer_8hpp.html" target="_top" xlink:title=" ">
<polygon fill="white" stroke="#666666" points="579.5,-145.5 434.5,-145.5 434.5,-126.5 579.5,-126.5 579.5,-145.5"/>
<text text-anchor="middle" x="507" y="-133.5" font-family="Helvetica,sans-Serif" font-size="10.00">unilink/framer/iframer.hpp</text>
</a>
</g>
</g>
<!-- Node1&#45;&gt;Node13 -->
<g id="edge12_Node000001_Node000013" class="edge">
<title>Node1&#45;&gt;Node13</title>
<g id="a_edge12_Node000001_Node000013"><a xlink:title=" ">
<path fill="none" stroke="#63b8ff" d="M619.28,-307.75C617.05,-285.52 608.61,-225.84 580,-187 568.46,-171.33 550.46,-158.92 535.22,-150.39"/>
<polygon fill="#63b8ff" stroke="#63b8ff" points="536.65,-147.18 526.17,-145.58 533.36,-153.36 536.65,-147.18"/>
</a>
</g>
</g>
<!-- Node14 -->
<g id="Node000014" class="node">
<title>Node14</title>
<g id="a_Node000014"><a xlink:href="safe__span_8hpp.html" target="_top" xlink:title=" ">
<polygon fill="white" stroke="#666666" points="484,-85 366,-85 366,-55 484,-55 484,-85"/>
<text text-anchor="start" x="374" y="-73" font-family="Helvetica,sans-Serif" font-size="10.00">unilink/memory/safe</text>
<text text-anchor="middle" x="425" y="-62" font-family="Helvetica,sans-Serif" font-size="10.00">_span.hpp</text>
</a>
</g>
</g>
<!-- Node1&#45;&gt;Node14 -->
<g id="edge31_Node000001_Node000014" class="edge">
<title>Node1&#45;&gt;Node14</title>
<g id="a_edge31_Node000001_Node000014"><a xlink:title=" ">
<path fill="none" stroke="#63b8ff" d="M546.95,-309.48C511.43,-303.51 469.33,-292.46 436,-272 408.6,-255.18 401.49,-246.63 389,-217 372.4,-177.61 368.37,-161.17 383,-121 386.78,-110.61 393.78,-100.89 400.99,-92.82"/>
<polygon fill="#63b8ff" stroke="#63b8ff" points="403.76,-94.99 408.16,-85.35 398.71,-90.14 403.76,-94.99"/>
</a>
</g>
</g>
<!-- Node17 -->
<g id="Node000017" class="node">
<title>Node17</title>
<g id="a_Node000017"><a xlink:href="line__framer_8hpp.html" target="_top" xlink:title=" ">
<polygon fill="white" stroke="#666666" points="774.5,-217 667.5,-217 667.5,-187 774.5,-187 774.5,-217"/>
<text text-anchor="start" x="675.5" y="-205" font-family="Helvetica,sans-Serif" font-size="10.00">unilink/framer/line</text>
<text text-anchor="middle" x="721" y="-194" font-family="Helvetica,sans-Serif" font-size="10.00">_framer.hpp</text>
</a>
</g>
</g>
<!-- Node1&#45;&gt;Node17 -->
<g id="edge21_Node000001_Node000017" class="edge">
<title>Node1&#45;&gt;Node17</title>
<g id="a_edge21_Node000001_Node000017"><a xlink:title=" ">
<path fill="none" stroke="#63b8ff" d="M627.59,-307.97C643.16,-290.48 679.11,-250.07 701.6,-224.81"/>
<polygon fill="#63b8ff" stroke="#63b8ff" points="704.35,-226.98 708.38,-217.18 699.12,-222.32 704.35,-226.98"/>
</a>
</g>
</g>
<!-- Node18 -->
<g id="Node000018" class="node">
<title>Node18</title>
<g id="a_Node000018"><a xlink:href="packet__framer_8hpp.html" target="_top" xlink:title=" ">
<polygon fill="white" stroke="#666666" points="570.5,-217 449.5,-217 449.5,-187 570.5,-187 570.5,-217"/>
<text text-anchor="start" x="457.5" y="-205" font-family="Helvetica,sans-Serif" font-size="10.00">unilink/framer/packet</text>
<text text-anchor="middle" x="510" y="-194" font-family="Helvetica,sans-Serif" font-size="10.00">_framer.hpp</text>
</a>
</g>
</g>
<!-- Node1&#45;&gt;Node18 -->
<g id="edge27_Node000001_Node000018" class="edge">
<title>Node1&#45;&gt;Node18</title>
<g id="a_edge27_Node000001_Node000018"><a xlink:title=" ">
<path fill="none" stroke="#63b8ff" d="M611.73,-307.97C594.71,-290.4 555.28,-249.72 530.82,-224.48"/>
<polygon fill="#63b8ff" stroke="#63b8ff" points="533.22,-221.93 523.74,-217.18 528.19,-226.8 533.22,-221.93"/>
</a>
</g>
</g>
<!-- Node19 -->
<g id="Node000019" class="node">
<title>Node19</title>
<g id="a_Node000019"><a xlink:href="context_8hpp.html" target="_top" xlink:title=" ">
<polygon fill="white" stroke="#666666" points="1641.5,-272 1488.5,-272 1488.5,-253 1641.5,-253 1641.5,-272"/>
<text text-anchor="middle" x="1565" y="-260" font-family="Helvetica,sans-Serif" font-size="10.00">unilink/wrapper/context.hpp</text>
</a>
</g>
</g>
<!-- Node1&#45;&gt;Node19 -->
<g id="edge32_Node000001_Node000019" class="edge">
<title>Node1&#45;&gt;Node19</title>
<g id="a_edge32_Node000001_Node000019"><a xlink:title=" ">
<path fill="none" stroke="#63b8ff" d="M693.37,-312.39C865.31,-302.74 1293.68,-278.72 1478.2,-268.37"/>
<polygon fill="#63b8ff" stroke="#63b8ff" points="1478.61,-271.85 1488.4,-267.8 1478.22,-264.86 1478.61,-271.85"/>
</a>
</g>
</g>
<!-- Node10 -->
<g id="Node000010" class="node">
<title>Node10</title>
<g id="a_Node000010"><a xlink:title=" ">
<polygon fill="#e0e0e0" stroke="#999999" points="225.5,-211.5 172.5,-211.5 172.5,-192.5 225.5,-192.5 225.5,-211.5"/>
<text text-anchor="middle" x="199" y="-199.5" font-family="Helvetica,sans-Serif" font-size="10.00">cstddef</text>
</a>
</g>
</g>
<!-- Node9&#45;&gt;Node10 -->
<g id="edge9_Node000009_Node000010" class="edge">
<title>Node9&#45;&gt;Node10</title>
<g id="a_edge9_Node000009_Node000010"><a xlink:title=" ">
<path fill="none" stroke="#63b8ff" d="M158.94,-252.87C165.95,-244.14 176.96,-230.43 185.67,-219.59"/>
<polygon fill="#63b8ff" stroke="#63b8ff" points="188.5,-221.66 192.04,-211.67 183.04,-217.27 188.5,-221.66"/>
</a>
</g>
</g>
<!-- Node11 -->
<g id="Node000011" class="node">
<title>Node11</title>
<g id="a_Node000011"><a xlink:title=" ">
<polygon fill="#e0e0e0" stroke="#999999" points="689,-19 639,-19 639,0 689,0 689,-19"/>
<text text-anchor="middle" x="664" y="-7" font-family="Helvetica,sans-Serif" font-size="10.00">cstdint</text>
</a>
</g>
</g>
<!-- Node9&#45;&gt;Node11 -->
<g id="edge10_Node000009_Node000011" class="edge">
<title>Node9&#45;&gt;Node11</title>
<g id="a_edge10_Node000009_Node000011"><a xlink:title=" ">
<path fill="none" stroke="#63b8ff" d="M151.15,-252.93C150.13,-238.24 149.94,-207.83 163,-187 218.39,-98.64 259.8,-92.78 357,-55 450.33,-18.72 570.03,-11.67 628.57,-10.52"/>
<polygon fill="#63b8ff" stroke="#63b8ff" points="628.82,-14.02 638.76,-10.37 628.71,-7.02 628.82,-14.02"/>
</a>
</g>
</g>
<!-- Node13&#45;&gt;Node3 -->
<g id="edge13_Node000013_Node000003" class="edge">
<title>Node13&#45;&gt;Node3</title>
<g id="a_edge13_Node000013_Node000003"><a xlink:title=" ">
<path fill="none" stroke="#63b8ff" d="M579.61,-127.46C666.23,-118.29 815.35,-101.92 943,-85 959.46,-82.82 977.53,-80.16 993.32,-77.75"/>
<polygon fill="#63b8ff" stroke="#63b8ff" points="993.98,-81.19 1003.33,-76.21 992.91,-74.27 993.98,-81.19"/>
</a>
</g>
</g>
<!-- Node13&#45;&gt;Node4 -->
<g id="edge14_Node000013_Node000004" class="edge">
<title>Node13&#45;&gt;Node4</title>
<g id="a_edge14_Node000013_Node000004"><a xlink:title=" ">
<path fill="none" stroke="#63b8ff" d="M510.24,-126.37C513.76,-116.97 519.5,-101.67 524.05,-89.53"/>
<polygon fill="#63b8ff" stroke="#63b8ff" points="527.43,-90.5 527.66,-79.91 520.87,-88.04 527.43,-90.5"/>
</a>
</g>
</g>
<!-- Node13&#45;&gt;Node8 -->
<g id="edge15_Node000013_Node000008" class="edge">
<title>Node13&#45;&gt;Node8</title>
<g id="a_edge15_Node000013_Node000008"><a xlink:title=" ">
<path fill="none" stroke="#63b8ff" d="M556.17,-126.42C601.2,-117.96 669.41,-103.6 727,-85 728.63,-84.47 730.29,-83.9 731.95,-83.29"/>
<polygon fill="#63b8ff" stroke="#63b8ff" points="733.35,-86.5 741.37,-79.58 730.78,-79.99 733.35,-86.5"/>
</a>
</g>
</g>
<!-- Node13&#45;&gt;Node12 -->
<g id="edge16_Node000013_Node000012" class="edge">
<title>Node13&#45;&gt;Node12</title>
<g id="a_edge16_Node000013_Node000012"><a xlink:title=" ">
<path fill="none" stroke="#63b8ff" d="M526.02,-126.37C550.09,-115.44 591.77,-96.52 619.61,-83.88"/>
<polygon fill="#63b8ff" stroke="#63b8ff" points="621.18,-87.02 628.84,-79.7 618.28,-80.65 621.18,-87.02"/>
</a>
</g>
</g>
<!-- Node13&#45;&gt;Node14 -->
<g id="edge17_Node000013_Node000014" class="edge">
<title>Node13&#45;&gt;Node14</title>
<g id="a_edge17_Node000013_Node000014"><a xlink:title=" ">
<path fill="none" stroke="#63b8ff" d="M495.94,-126.37C484.51,-117.44 466.24,-103.19 451.11,-91.38"/>
<polygon fill="#63b8ff" stroke="#63b8ff" points="453.12,-88.51 443.09,-85.12 448.82,-94.03 453.12,-88.51"/>
</a>
</g>
</g>
<!-- Node14&#45;&gt;Node11 -->
<g id="edge18_Node000014_Node000011" class="edge">
<title>Node14&#45;&gt;Node11</title>
<g id="a_edge18_Node000014_Node000011"><a xlink:title=" ">
<path fill="none" stroke="#63b8ff" d="M482.25,-54.99C528.01,-43.79 590.67,-28.45 629.19,-19.02"/>
<polygon fill="#63b8ff" stroke="#63b8ff" points="630.03,-22.42 638.91,-16.64 628.36,-15.62 630.03,-22.42"/>
</a>
</g>
</g>
<!-- Node15 -->
<g id="Node000015" class="node">
<title>Node15</title>
<g id="a_Node000015"><a xlink:title=" ">
<polygon fill="#e0e0e0" stroke="#999999" points="445,-19 405,-19 405,0 445,0 445,-19"/>
<text text-anchor="middle" x="425" y="-7" font-family="Helvetica,sans-Serif" font-size="10.00">span</text>
</a>
</g>
</g>
<!-- Node14&#45;&gt;Node15 -->
<g id="edge19_Node000014_Node000015" class="edge">
<title>Node14&#45;&gt;Node15</title>
<g id="a_edge19_Node000014_Node000015"><a xlink:title=" ">
<path fill="none" stroke="#63b8ff" d="M425,-54.84C425,-47.21 425,-37.7 425,-29.45"/>
<polygon fill="#63b8ff" stroke="#63b8ff" points="428.5,-29.27 425,-19.27 421.5,-29.27 428.5,-29.27"/>
</a>
</g>
</g>
<!-- Node16 -->
<g id="Node000016" class="node">
<title>Node16</title>
<g id="a_Node000016"><a xlink:title=" ">
<polygon fill="#e0e0e0" stroke="#999999" points="994.5,-19 929.5,-19 929.5,0 994.5,0 994.5,-19"/>
<text text-anchor="middle" x="962" y="-7" font-family="Helvetica,sans-Serif" font-size="10.00">stdexcept</text>
</a>
</g>
</g>
<!-- Node14&#45;&gt;Node16 -->
<g id="edge20_Node000014_Node000016" class="edge">
<title>Node14&#45;&gt;Node16</title>
<g id="a_edge20_Node000014_Node000016"><a xlink:title=" ">
<path fill="none" stroke="#63b8ff" d="M484.27,-56.4C487.22,-55.9 490.14,-55.43 493,-55 649.3,-31.57 836.86,-18.15 919.43,-12.99"/>
<polygon fill="#63b8ff" stroke="#63b8ff" points="919.68,-16.48 929.44,-12.37 919.25,-9.49 919.68,-16.48"/>
</a>
</g>
</g>
<!-- Node17&#45;&gt;Node5 -->
<g id="edge22_Node000017_Node000005" class="edge">
<title>Node17&#45;&gt;Node5</title>
<g id="a_edge22_Node000017_Node000005"><a xlink:title=" ">
<path fill="none" stroke="#63b8ff" d="M774.87,-199.03C900.72,-194.02 1210.93,-179.14 1311,-151 1339.7,-142.93 1342.38,-129.34 1371,-121 1456.07,-96.22 1727.45,-78.37 1820.97,-72.82"/>
<polygon fill="#63b8ff" stroke="#63b8ff" points="1821.19,-76.31 1830.97,-72.23 1820.78,-69.32 1821.19,-76.31"/>
</a>
</g>
</g>
<!-- Node17&#45;&gt;Node6 -->
<g id="edge23_Node000017_Node000006" class="edge">
<title>Node17&#45;&gt;Node6</title>
<g id="a_edge23_Node000017_Node000006"><a xlink:title=" ">
<path fill="none" stroke="#63b8ff" d="M774.6,-200.61C871.92,-198.89 1083.63,-190.47 1257,-151 1294.43,-142.48 1301.3,-132.25 1338,-121 1391.3,-104.66 1453.7,-90 1495.32,-80.84"/>
<polygon fill="#63b8ff" stroke="#63b8ff" points="1496.15,-84.25 1505.17,-78.69 1494.66,-77.41 1496.15,-84.25"/>
</a>
</g>
</g>
<!-- Node17&#45;&gt;Node8 -->
<g id="edge24_Node000017_Node000008" class="edge">
<title>Node17&#45;&gt;Node8</title>
<g id="a_edge24_Node000017_Node000008"><a xlink:title=" ">
<path fill="none" stroke="#63b8ff" d="M725.25,-186.84C732.33,-163.23 746.55,-115.83 754.43,-89.58"/>
<polygon fill="#63b8ff" stroke="#63b8ff" points="757.85,-90.33 757.38,-79.75 751.15,-88.32 757.85,-90.33"/>
</a>
</g>
</g>
<!-- Node17&#45;&gt;Node12 -->
<g id="edge25_Node000017_Node000012" class="edge">
<title>Node17&#45;&gt;Node12</title>
<g id="a_edge25_Node000017_Node000012"><a xlink:title=" ">
<path fill="none" stroke="#63b8ff" d="M713.05,-186.84C699.61,-162.92 672.46,-114.56 657.85,-88.53"/>
<polygon fill="#63b8ff" stroke="#63b8ff" points="660.86,-86.75 652.91,-79.75 654.76,-90.18 660.86,-86.75"/>
</a>
</g>
</g>
<!-- Node17&#45;&gt;Node13 -->
<g id="edge26_Node000017_Node000013" class="edge">
<title>Node17&#45;&gt;Node13</title>
<g id="a_edge26_Node000017_Node000013"><a xlink:title=" ">
<path fill="none" stroke="#63b8ff" d="M674.04,-186.95C635.35,-175.38 581.18,-159.18 545.14,-148.41"/>
<polygon fill="#63b8ff" stroke="#63b8ff" points="546.06,-145.03 535.48,-145.52 544.06,-151.74 546.06,-145.03"/>
</a>
</g>
</g>
<!-- Node18&#45;&gt;Node8 -->
<g id="edge28_Node000018_Node000008" class="edge">
<title>Node18&#45;&gt;Node8</title>
<g id="a_edge28_Node000018_Node000008"><a xlink:title=" ">
<path fill="none" stroke="#63b8ff" d="M537.23,-186.84C585.89,-161.54 687.1,-108.91 734.49,-84.26"/>
<polygon fill="#63b8ff" stroke="#63b8ff" points="736.23,-87.31 743.49,-79.59 733,-81.1 736.23,-87.31"/>
</a>
</g>
</g>
<!-- Node18&#45;&gt;Node12 -->
<g id="edge29_Node000018_Node000012" class="edge">
<title>Node18&#45;&gt;Node12</title>
<g id="a_edge29_Node000018_Node000012"><a xlink:title=" ">
<path fill="none" stroke="#63b8ff" d="M475.74,-186.93C443.97,-171.86 404.48,-146.63 425,-121 430.33,-114.34 529.22,-94.05 593.5,-81.46"/>
<polygon fill="#63b8ff" stroke="#63b8ff" points="594.36,-84.86 603.5,-79.5 593.02,-77.98 594.36,-84.86"/>
</a>
</g>
</g>
<!-- Node18&#45;&gt;Node13 -->
<g id="edge30_Node000018_Node000013" class="edge">
<title>Node18&#45;&gt;Node13</title>
<g id="a_edge30_Node000018_Node000013"><a xlink:title=" ">
<path fill="none" stroke="#63b8ff" d="M509.33,-186.8C508.91,-177.7 508.35,-165.79 507.89,-155.9"/>
<polygon fill="#63b8ff" stroke="#63b8ff" points="511.38,-155.67 507.41,-145.84 504.39,-156 511.38,-155.67"/>
</a>
</g>
</g>
<!-- Node19&#45;&gt;Node5 -->
<g id="edge34_Node000019_Node000005" class="edge">
<title>Node19&#45;&gt;Node5</title>
<g id="a_edge34_Node000019_Node000005"><a xlink:title=" ">
<path fill="none" stroke="#63b8ff" d="M1641.7,-260.14C1773.25,-257.01 2030.52,-247.07 2058,-217 2089.58,-182.44 2027.72,-132.54 2012,-121 1973.74,-92.91 1919.23,-80.29 1885.01,-74.85"/>
<polygon fill="#63b8ff" stroke="#63b8ff" points="1885.48,-71.38 1875.07,-73.38 1884.46,-78.3 1885.48,-71.38"/>
</a>
</g>
</g>
<!-- Node19&#45;&gt;Node6 -->
<g id="edge35_Node000019_Node000006" class="edge">
<title>Node19&#45;&gt;Node6</title>
<g id="a_edge35_Node000019_Node000006"><a xlink:title=" ">
<path fill="none" stroke="#63b8ff" d="M1612.75,-253C1697.66,-236.81 1869.27,-198.84 1904,-151 1911.83,-140.21 1912.76,-131.05 1904,-121 1863.61,-74.64 1676.86,-69.82 1588.54,-70.21"/>
<polygon fill="#63b8ff" stroke="#63b8ff" points="1588.5,-66.71 1578.52,-70.28 1588.55,-73.71 1588.5,-66.71"/>
</a>
</g>
</g>
<!-- Node19&#45;&gt;Node8 -->
<g id="edge36_Node000019_Node000008" class="edge">
<title>Node19&#45;&gt;Node8</title>
<g id="a_edge36_Node000019_Node000008"><a xlink:title=" ">
<path fill="none" stroke="#63b8ff" d="M1488.31,-261.35C1311.48,-259.38 882.46,-244.81 780,-151 763.04,-135.47 759.49,-107.92 759.2,-89.56"/>
<polygon fill="#63b8ff" stroke="#63b8ff" points="762.7,-89.55 759.35,-79.5 755.7,-89.45 762.7,-89.55"/>
</a>
</g>
</g>
<!-- Node19&#45;&gt;Node14 -->
<g id="edge77_Node000019_Node000014" class="edge">
<title>Node19&#45;&gt;Node14</title>
<g id="a_edge77_Node000019_Node000014"><a xlink:title=" ">
<path fill="none" stroke="#63b8ff" d="M1488.45,-260.77C1242.12,-258.14 483.44,-247.56 441,-217 403.84,-190.24 410.94,-129.19 418.49,-95.12"/>
<polygon fill="#63b8ff" stroke="#63b8ff" points="421.97,-95.62 420.9,-85.08 415.16,-93.99 421.97,-95.62"/>
</a>
</g>
</g>
<!-- Node20 -->
<g id="Node000020" class="node">
<title>Node20</title>
<g id="a_Node000020"><a xlink:title=" ">
<polygon fill="#e0e0e0" stroke="#999999" points="2049,-211.5 1993,-211.5 1993,-192.5 2049,-192.5 2049,-211.5"/>
<text text-anchor="middle" x="2021" y="-199.5" font-family="Helvetica,sans-Serif" font-size="10.00">optional</text>
</a>
</g>
</g>
<!-- Node19&#45;&gt;Node20 -->
<g id="edge33_Node000019_Node000020" class="edge">
<title>Node19&#45;&gt;Node20</title>
<g id="a_edge33_Node000019_Node000020"><a xlink:title=" ">
<path fill="none" stroke="#63b8ff" d="M1641.68,-259.23C1726.46,-255.36 1866.58,-244.96 1984,-217 1986.51,-216.4 1989.09,-215.68 1991.65,-214.87"/>
<polygon fill="#63b8ff" stroke="#63b8ff" points="1993.03,-218.1 2001.32,-211.51 1990.73,-211.49 1993.03,-218.1"/>
</a>
</g>
</g>
<!-- Node21 -->
<g id="Node000021" class="node">
<title>Node21</title>
<g id="a_Node000021"><a xlink:href="common_8hpp.html" target="_top" xlink:title=" ">
<polygon fill="white" stroke="#666666" points="1636.5,-211.5 1493.5,-211.5 1493.5,-192.5 1636.5,-192.5 1636.5,-211.5"/>
<text text-anchor="middle" x="1565" y="-199.5" font-family="Helvetica,sans-Serif" font-size="10.00">unilink/base/common.hpp</text>
</a>
</g>
</g>
<!-- Node19&#45;&gt;Node21 -->
<g id="edge37_Node000019_Node000021" class="edge">
<title>Node19&#45;&gt;Node21</title>
<g id="a_edge37_Node000019_Node000021"><a xlink:title=" ">
<path fill="none" stroke="#63b8ff" d="M1565,-252.87C1565,-244.75 1565,-232.31 1565,-221.89"/>
<polygon fill="#63b8ff" stroke="#63b8ff" points="1568.5,-221.67 1565,-211.67 1561.5,-221.67 1568.5,-221.67"/>
</a>
</g>
</g>
<!-- Node32 -->
<g id="Node000032" class="node">
<title>Node32</title>
<g id="a_Node000032"><a xlink:href="error__codes_8hpp.html" target="_top" xlink:title=" ">
<polygon fill="white" stroke="#666666" points="1975,-217 1873,-217 1873,-187 1975,-187 1975,-217"/>
<text text-anchor="start" x="1881" y="-205" font-family="Helvetica,sans-Serif" font-size="10.00">unilink/base/error</text>
<text text-anchor="middle" x="1924" y="-194" font-family="Helvetica,sans-Serif" font-size="10.00">_codes.hpp</text>
</a>
</g>
</g>
<!-- Node19&#45;&gt;Node32 -->
<g id="edge64_Node000019_Node000032" class="edge">
<title>Node19&#45;&gt;Node32</title>
<g id="a_edge64_Node000019_Node000032"><a xlink:title=" ">
<path fill="none" stroke="#63b8ff" d="M1628.85,-253C1688.53,-244.78 1780.04,-231.46 1859,-217 1860.28,-216.77 1861.57,-216.53 1862.87,-216.28"/>
<polygon fill="#63b8ff" stroke="#63b8ff" points="1863.82,-219.66 1872.96,-214.3 1862.48,-212.79 1863.82,-219.66"/>
</a>
</g>
</g>
<!-- Node33 -->
<g id="Node000033" class="node">
<title>Node33</title>
<g id="a_Node000033"><a xlink:href="safe__data__buffer_8hpp.html" target="_top" xlink:title=" ">
<polygon fill="white" stroke="#666666" points="1008,-151 890,-151 890,-121 1008,-121 1008,-151"/>
<text text-anchor="start" x="898" y="-139" font-family="Helvetica,sans-Serif" font-size="10.00">unilink/memory/safe</text>
<text text-anchor="middle" x="949" y="-128" font-family="Helvetica,sans-Serif" font-size="10.00">_data_buffer.hpp</text>
</a>
</g>
</g>
<!-- Node19&#45;&gt;Node33 -->
<g id="edge66_Node000019_Node000033" class="edge">
<title>Node19&#45;&gt;Node33</title>
<g id="a_edge66_Node000019_Node000033"><a xlink:title=" ">
<path fill="none" stroke="#63b8ff" d="M1522.66,-252.94C1418.12,-231.81 1146.96,-177.01 1018.48,-151.04"/>
<polygon fill="#63b8ff" stroke="#63b8ff" points="1018.85,-147.55 1008.36,-149 1017.47,-154.41 1018.85,-147.55"/>
</a>
</g>
</g>
<!-- Node21&#45;&gt;Node3 -->
<g id="edge42_Node000021_Node000003" class="edge">
<title>Node21&#45;&gt;Node3</title>
<g id="a_edge42_Node000021_Node000003"><a xlink:title=" ">
<path fill="none" stroke="#63b8ff" d="M1493.28,-200.1C1379.58,-197.55 1164.04,-187.86 1098,-151 1072.64,-136.84 1054.18,-107.62 1044.28,-88.68"/>
<polygon fill="#63b8ff" stroke="#63b8ff" points="1047.37,-87.02 1039.79,-79.62 1041.1,-90.13 1047.37,-87.02"/>
</a>
</g>
</g>
<!-- Node21&#45;&gt;Node5 -->
<g id="edge47_Node000021_Node000005" class="edge">
<title>Node21&#45;&gt;Node5</title>
<g id="a_edge47_Node000021_Node000005"><a xlink:title=" ">
<path fill="none" stroke="#63b8ff" d="M1636.65,-200.96C1725.72,-199.2 1870.18,-190.18 1904,-151 1921.88,-130.29 1895.08,-102.77 1874.06,-86"/>
<polygon fill="#63b8ff" stroke="#63b8ff" points="1875.91,-83.01 1865.83,-79.73 1871.66,-88.58 1875.91,-83.01"/>
</a>
</g>
</g>
<!-- Node21&#45;&gt;Node6 -->
<g id="edge48_Node000021_Node000006" class="edge">
<title>Node21&#45;&gt;Node6</title>
<g id="a_edge48_Node000021_Node000006"><a xlink:title=" ">
<path fill="none" stroke="#63b8ff" d="M1636.77,-200.29C1721.65,-197.76 1855.44,-187.84 1887,-151 1895.67,-140.87 1895.73,-131.08 1887,-121 1848.98,-77.07 1673.94,-70.91 1588.79,-70.58"/>
<polygon fill="#63b8ff" stroke="#63b8ff" points="1588.62,-67.08 1578.62,-70.56 1588.61,-74.08 1588.62,-67.08"/>
</a>
</g>
</g>
<!-- Node21&#45;&gt;Node7 -->
<g id="edge49_Node000021_Node000007" class="edge">
<title>Node21&#45;&gt;Node7</title>
<g id="a_edge49_Node000021_Node000007"><a xlink:title=" ">
<path fill="none" stroke="#63b8ff" d="M1493.41,-198.66C1337.11,-193.12 969.59,-177.64 848,-151 845.32,-150.41 842.59,-149.67 839.87,-148.83"/>
<polygon fill="#63b8ff" stroke="#63b8ff" points="840.86,-145.47 830.26,-145.5 838.56,-152.09 840.86,-145.47"/>
</a>
</g>
</g>
<!-- Node21&#45;&gt;Node8 -->
<g id="edge50_Node000021_Node000008" class="edge">
<title>Node21&#45;&gt;Node8</title>
<g id="a_edge50_Node000021_Node000008"><a xlink:title=" ">
<path fill="none" stroke="#63b8ff" d="M1493.36,-201.04C1341.28,-200.28 991.08,-193.78 881,-151 860.94,-143.21 860.7,-133.24 843,-121 824.03,-107.88 801.58,-94.47 784.81,-84.85"/>
<polygon fill="#63b8ff" stroke="#63b8ff" points="786.09,-81.55 775.66,-79.65 782.63,-87.63 786.09,-81.55"/>
</a>
</g>
</g>
<!-- Node21&#45;&gt;Node11 -->
<g id="edge39_Node000021_Node000011" class="edge">
<title>Node21&#45;&gt;Node11</title>
<g id="a_edge39_Node000021_Node000011"><a xlink:title=" ">
<path fill="none" stroke="#63b8ff" d="M1493.32,-200.55C1385.65,-198.59 1188.65,-189.64 1131,-151 1090.52,-123.86 1118.59,-81.98 1078,-55 1016.25,-13.95 787.58,-10.11 699.19,-10.21"/>
<polygon fill="#63b8ff" stroke="#63b8ff" points="699.12,-6.71 689.13,-10.24 699.14,-13.71 699.12,-6.71"/>
</a>
</g>
</g>
<!-- Node21&#45;&gt;Node16 -->
<g id="edge46_Node000021_Node000016" class="edge">
<title>Node21&#45;&gt;Node16</title>
<g id="a_edge46_Node000021_Node000016"><a xlink:title=" ">
<path fill="none" stroke="#63b8ff" d="M1636.81,-201.52C1729.75,-200.47 1884.07,-192.34 1920,-151 1946.57,-120.42 1896.2,-62.65 1884,-55 1808.98,-7.98 1176.37,-8.98 1004.79,-10.13"/>
<polygon fill="#63b8ff" stroke="#63b8ff" points="1004.6,-6.63 994.63,-10.2 1004.65,-13.63 1004.6,-6.63"/>
</a>
</g>
</g>
<!-- Node22 -->
<g id="Node000022" class="node">
<title>Node22</title>
<g id="a_Node000022"><a xlink:title=" ">
<polygon fill="#e0e0e0" stroke="#999999" points="1370,-79.5 1320,-79.5 1320,-60.5 1370,-60.5 1370,-79.5"/>
<text text-anchor="middle" x="1345" y="-67.5" font-family="Helvetica,sans-Serif" font-size="10.00">chrono</text>
</a>
</g>
</g>
<!-- Node21&#45;&gt;Node22 -->
<g id="edge38_Node000021_Node000022" class="edge">
<title>Node21&#45;&gt;Node22</title>
<g id="a_edge38_Node000021_Node000022"><a xlink:title=" ">
<path fill="none" stroke="#63b8ff" d="M1493.28,-198.98C1452.7,-194.18 1403.69,-181.73 1371,-151 1354.08,-135.1 1348.15,-108.09 1346.08,-89.9"/>
<polygon fill="#63b8ff" stroke="#63b8ff" points="1349.57,-89.57 1345.23,-79.9 1342.59,-90.16 1349.57,-89.57"/>
</a>
</g>
</g>
<!-- Node23 -->
<g id="Node000023" class="node">
<title>Node23</title>
<g id="a_Node000023"><a xlink:title=" ">
<polygon fill="#e0e0e0" stroke="#999999" points="1590,-145.5 1540,-145.5 1540,-126.5 1590,-126.5 1590,-145.5"/>
<text text-anchor="middle" x="1565" y="-133.5" font-family="Helvetica,sans-Serif" font-size="10.00">cstring</text>
</a>
</g>
</g>
<!-- Node21&#45;&gt;Node23 -->
<g id="edge40_Node000021_Node000023" class="edge">
<title>Node21&#45;&gt;Node23</title>
<g id="a_edge40_Node000021_Node000023"><a xlink:title=" ">
<path fill="none" stroke="#63b8ff" d="M1565,-192.37C1565,-183.16 1565,-168.29 1565,-156.27"/>
<polygon fill="#63b8ff" stroke="#63b8ff" points="1568.5,-155.91 1565,-145.91 1561.5,-155.91 1568.5,-155.91"/>
</a>
</g>
</g>
<!-- Node24 -->
<g id="Node000024" class="node">
<title>Node24</title>
<g id="a_Node000024"><a xlink:title=" ">
<polygon fill="#e0e0e0" stroke="#999999" points="1652,-145.5 1608,-145.5 1608,-126.5 1652,-126.5 1652,-145.5"/>
<text text-anchor="middle" x="1630" y="-133.5" font-family="Helvetica,sans-Serif" font-size="10.00">ctime</text>
</a>
</g>
</g>
<!-- Node21&#45;&gt;Node24 -->
<g id="edge41_Node000021_Node000024" class="edge">
<title>Node21&#45;&gt;Node24</title>
<g id="a_edge41_Node000021_Node000024"><a xlink:title=" ">
<path fill="none" stroke="#63b8ff" d="M1573.77,-192.37C1583.98,-182.31 1601.08,-165.48 1613.74,-153.01"/>
<polygon fill="#63b8ff" stroke="#63b8ff" points="1616.29,-155.42 1620.96,-145.91 1611.37,-150.43 1616.29,-155.42"/>
</a>
</g>
</g>
<!-- Node25 -->
<g id="Node000025" class="node">
<title>Node25</title>
<g id="a_Node000025"><a xlink:title=" ">
<polygon fill="#e0e0e0" stroke="#999999" points="1726,-145.5 1670,-145.5 1670,-126.5 1726,-126.5 1726,-145.5"/>
<text text-anchor="middle" x="1698" y="-133.5" font-family="Helvetica,sans-Serif" font-size="10.00">iomanip</text>
</a>
</g>
</g>
<!-- Node21&#45;&gt;Node25 -->
<g id="edge43_Node000021_Node000025" class="edge">
<title>Node21&#45;&gt;Node25</title>
<g id="a_edge43_Node000021_Node000025"><a xlink:title=" ">
<path fill="none" stroke="#63b8ff" d="M1582.94,-192.37C1605.54,-181.49 1644.62,-162.69 1670.88,-150.05"/>
<polygon fill="#63b8ff" stroke="#63b8ff" points="1672.43,-153.19 1679.92,-145.7 1669.39,-146.88 1672.43,-153.19"/>
</a>
</g>
</g>
<!-- Node26 -->
<g id="Node000026" class="node">
<title>Node26</title>
<g id="a_Node000026"><a xlink:title=" ">
<polygon fill="#e0e0e0" stroke="#999999" points="1804,-145.5 1744,-145.5 1744,-126.5 1804,-126.5 1804,-145.5"/>
<text text-anchor="middle" x="1774" y="-133.5" font-family="Helvetica,sans-Serif" font-size="10.00">iostream</text>
</a>
</g>
</g>
<!-- Node21&#45;&gt;Node26 -->
<g id="edge44_Node000021_Node000026" class="edge">
<title>Node21&#45;&gt;Node26</title>
<g id="a_edge44_Node000021_Node000026"><a xlink:title=" ">
<path fill="none" stroke="#63b8ff" d="M1596.19,-192.42C1630.41,-182.87 1686.89,-166.7 1735,-151 1737.11,-150.31 1739.28,-149.58 1741.46,-148.84"/>
<polygon fill="#63b8ff" stroke="#63b8ff" points="1742.69,-152.12 1750.98,-145.52 1740.39,-145.51 1742.69,-152.12"/>
</a>
</g>
</g>
<!-- Node27 -->
<g id="Node000027" class="node">
<title>Node27</title>
<g id="a_Node000027"><a xlink:title=" ">
<polygon fill="#e0e0e0" stroke="#999999" points="1878,-145.5 1822,-145.5 1822,-126.5 1878,-126.5 1878,-145.5"/>
<text text-anchor="middle" x="1850" y="-133.5" font-family="Helvetica,sans-Serif" font-size="10.00">sstream</text>
</a>
</g>
</g>
<!-- Node21&#45;&gt;Node27 -->
<g id="edge45_Node000021_Node000027" class="edge">
<title>Node21&#45;&gt;Node27</title>
<g id="a_edge45_Node000021_Node000027"><a xlink:title=" ">
<path fill="none" stroke="#63b8ff" d="M1620.78,-192.43C1671.46,-184.01 1748,-169.71 1813,-151 1815.14,-150.38 1817.34,-149.7 1819.54,-148.97"/>
<polygon fill="#63b8ff" stroke="#63b8ff" points="1820.81,-152.23 1829.07,-145.6 1818.47,-145.63 1820.81,-152.23"/>
</a>
</g>
</g>
<!-- Node28 -->
<g id="Node000028" class="node">
<title>Node28</title>
<g id="a_Node000028"><a xlink:href="platform_8hpp.html" target="_top" xlink:title=" ">
<polygon fill="white" stroke="#666666" points="1522,-145.5 1380,-145.5 1380,-126.5 1522,-126.5 1522,-145.5"/>
<text text-anchor="middle" x="1451" y="-133.5" font-family="Helvetica,sans-Serif" font-size="10.00">unilink/base/platform.hpp</text>
</a>
</g>
</g>
<!-- Node21&#45;&gt;Node28 -->
<g id="edge51_Node000021_Node000028" class="edge">
<title>Node21&#45;&gt;Node28</title>
<g id="a_edge51_Node000021_Node000028"><a xlink:title=" ">
<path fill="none" stroke="#63b8ff" d="M1549.63,-192.37C1530.59,-181.68 1497.93,-163.35 1475.44,-150.72"/>
<polygon fill="#63b8ff" stroke="#63b8ff" points="1476.93,-147.54 1466.5,-145.7 1473.5,-153.65 1476.93,-147.54"/>
</a>
</g>
</g>
<!-- Node29 -->
<g id="Node000029" class="node">
<title>Node29</title>
<g id="a_Node000029"><a xlink:href="logger_8hpp.html" target="_top" xlink:title=" ">
<polygon fill="white" stroke="#666666" points="1248,-151 1140,-151 1140,-121 1248,-121 1248,-151"/>
<text text-anchor="start" x="1148" y="-139" font-family="Helvetica,sans-Serif" font-size="10.00">unilink/diagnostics</text>
<text text-anchor="middle" x="1194" y="-128" font-family="Helvetica,sans-Serif" font-size="10.00">/logger.hpp</text>
</a>
</g>
</g>
<!-- Node21&#45;&gt;Node29 -->
<g id="edge54_Node000021_Node000029" class="edge">
<title>Node21&#45;&gt;Node29</title>
<g id="a_edge54_Node000021_Node000029"><a xlink:title=" ">
<path fill="none" stroke="#63b8ff" d="M1509.32,-192.49C1448.45,-183.02 1348.1,-166.96 1262,-151 1260.73,-150.77 1259.45,-150.53 1258.17,-150.28"/>
<polygon fill="#63b8ff" stroke="#63b8ff" points="1258.63,-146.81 1248.15,-148.35 1257.31,-153.68 1258.63,-146.81"/>
</a>
</g>
</g>
<!-- Node28&#45;&gt;Node5 -->
<g id="edge52_Node000028_Node000005" class="edge">
<title>Node28&#45;&gt;Node5</title>
<g id="a_edge52_Node000028_Node000005"><a xlink:title=" ">
<path fill="none" stroke="#63b8ff" d="M1498.78,-126.48C1509.38,-124.64 1520.57,-122.72 1531,-121 1636.88,-103.52 1762.65,-84.49 1820.69,-75.81"/>
<polygon fill="#63b8ff" stroke="#63b8ff" points="1821.35,-79.25 1830.72,-74.31 1820.32,-72.32 1821.35,-79.25"/>
</a>
</g>
</g>
<!-- Node28&#45;&gt;Node12 -->
<g id="edge53_Node000028_Node000012" class="edge">
<title>Node28&#45;&gt;Node12</title>
<g id="a_edge53_Node000028_Node000012"><a xlink:title=" ">
<path fill="none" stroke="#63b8ff" d="M1379.6,-129.78C1342.95,-127.11 1297.59,-123.85 1257,-121 1021.92,-104.52 961.94,-113.35 728,-85 719.55,-83.98 710.63,-82.66 701.95,-81.24"/>
<polygon fill="#63b8ff" stroke="#63b8ff" points="702.33,-77.75 691.89,-79.54 701.17,-84.66 702.33,-77.75"/>
</a>
</g>
</g>
<!-- Node29&#45;&gt;Node3 -->
<g id="edge57_Node000029_Node000003" class="edge">
<title>Node29&#45;&gt;Node3</title>
<g id="a_edge57_Node000029_Node000003"><a xlink:title=" ">
<path fill="none" stroke="#63b8ff" d="M1159.33,-120.95C1131.62,-109.73 1093.15,-94.15 1066.58,-83.39"/>
<polygon fill="#63b8ff" stroke="#63b8ff" points="1067.61,-80.03 1057.03,-79.52 1064.98,-86.52 1067.61,-80.03"/>
</a>
</g>
</g>
<!-- Node29&#45;&gt;Node4 -->
<g id="edge58_Node000029_Node000004" class="edge">
<title>Node29&#45;&gt;Node4</title>
<g id="a_edge58_Node000029_Node000004"><a xlink:title=" ">
<path fill="none" stroke="#63b8ff" d="M1139.97,-130.73C988.83,-118.76 572.48,-85.77 569,-85 566.32,-84.41 563.58,-83.68 560.86,-82.86"/>
<polygon fill="#63b8ff" stroke="#63b8ff" points="561.8,-79.48 551.2,-79.6 559.56,-86.11 561.8,-79.48"/>
</a>
</g>
</g>
<!-- Node29&#45;&gt;Node5 -->
<g id="edge60_Node000029_Node000005" class="edge">
<title>Node29&#45;&gt;Node5</title>
<g id="a_edge60_Node000029_Node000005"><a xlink:title=" ">
<path fill="none" stroke="#63b8ff" d="M1248.02,-129.75C1275.04,-127.12 1308.25,-123.89 1338,-121 1520.69,-103.25 1739.83,-81.98 1820.85,-74.12"/>
<polygon fill="#63b8ff" stroke="#63b8ff" points="1821.3,-77.59 1830.91,-73.14 1820.62,-70.63 1821.3,-77.59"/>
</a>
</g>
</g>
<!-- Node29&#45;&gt;Node6 -->
<g id="edge61_Node000029_Node000006" class="edge">
<title>Node29&#45;&gt;Node6</title>
<g id="a_edge61_Node000029_Node000006"><a xlink:title=" ">
<path fill="none" stroke="#63b8ff" d="M1248.38,-125C1316.24,-112.52 1431.16,-91.38 1495.25,-79.6"/>
<polygon fill="#63b8ff" stroke="#63b8ff" points="1495.89,-83.04 1505.09,-77.79 1494.62,-76.16 1495.89,-83.04"/>
</a>
</g>
</g>
<!-- Node29&#45;&gt;Node8 -->
<g id="edge62_Node000029_Node000008" class="edge">
<title>Node29&#45;&gt;Node8</title>
<g id="a_edge62_Node000029_Node000008"><a xlink:title=" ">
<path fill="none" stroke="#63b8ff" d="M1139.91,-127.02C1049.17,-113.64 868.85,-87.05 793.9,-76"/>
<polygon fill="#63b8ff" stroke="#63b8ff" points="794.03,-72.48 783.63,-74.48 793.01,-79.41 794.03,-72.48"/>
</a>
</g>
</g>
<!-- Node29&#45;&gt;Node12 -->
<g id="edge63_Node000029_Node000012" class="edge">
<title>Node29&#45;&gt;Node12</title>
<g id="a_edge63_Node000029_Node000012"><a xlink:title=" ">
<path fill="none" stroke="#63b8ff" d="M1139.69,-130.35C1052.6,-122.63 876.45,-105.93 728,-85 720.06,-83.88 711.7,-82.57 703.5,-81.2"/>
<polygon fill="#63b8ff" stroke="#63b8ff" points="704.05,-77.75 693.61,-79.52 702.88,-84.65 704.05,-77.75"/>
</a>
</g>
</g>
<!-- Node29&#45;&gt;Node22 -->
<g id="edge56_Node000029_Node000022" class="edge">
<title>Node29&#45;&gt;Node22</title>
<g id="a_edge56_Node000029_Node000022"><a xlink:title=" ">
<path fill="none" stroke="#63b8ff" d="M1227.14,-120.95C1253.5,-109.78 1290.06,-94.29 1315.44,-83.53"/>
<polygon fill="#63b8ff" stroke="#63b8ff" points="1317.06,-86.64 1324.9,-79.52 1314.33,-80.2 1317.06,-86.64"/>
</a>
</g>
</g>
<!-- Node30 -->
<g id="Node000030" class="node">
<title>Node30</title>
<g id="a_Node000030"><a xlink:title=" ">
<polygon fill="#e0e0e0" stroke="#999999" points="1302,-79.5 1252,-79.5 1252,-60.5 1302,-60.5 1302,-79.5"/>
<text text-anchor="middle" x="1277" y="-67.5" font-family="Helvetica,sans-Serif" font-size="10.00">atomic</text>
</a>
</g>
</g>
<!-- Node29&#45;&gt;Node30 -->
<g id="edge55_Node000029_Node000030" class="edge">
<title>Node29&#45;&gt;Node30</title>
<g id="a_edge55_Node000029_Node000030"><a xlink:title=" ">
<path fill="none" stroke="#63b8ff" d="M1212.42,-120.8C1225.74,-110.53 1243.71,-96.67 1257.31,-86.18"/>
<polygon fill="#63b8ff" stroke="#63b8ff" points="1259.75,-88.72 1265.53,-79.84 1255.47,-83.18 1259.75,-88.72"/>
</a>
</g>
</g>
<!-- Node31 -->
<g id="Node000031" class="node">
<title>Node31</title>
<g id="a_Node000031"><a xlink:title=" ">
<polygon fill="#e0e0e0" stroke="#999999" points="1233.5,-79.5 1140.5,-79.5 1140.5,-60.5 1233.5,-60.5 1233.5,-79.5"/>
<text text-anchor="middle" x="1187" y="-67.5" font-family="Helvetica,sans-Serif" font-size="10.00">source_location</text>
</a>
</g>
</g>
<!-- Node29&#45;&gt;Node31 -->
<g id="edge59_Node000029_Node000031" class="edge">
<title>Node29&#45;&gt;Node31</title>
<g id="a_edge59_Node000029_Node000031"><a xlink:title=" ">
<path fill="none" stroke="#63b8ff" d="M1192.45,-120.8C1191.45,-111.7 1190.15,-99.79 1189.07,-89.9"/>
<polygon fill="#63b8ff" stroke="#63b8ff" points="1192.53,-89.4 1187.97,-79.84 1185.58,-90.17 1192.53,-89.4"/>
</a>
</g>
</g>
<!-- Node32&#45;&gt;Node5 -->
<g id="edge65_Node000032_Node000005" class="edge">
<title>Node32&#45;&gt;Node5</title>
<g id="a_edge65_Node000032_Node000005"><a xlink:title=" ">
<path fill="none" stroke="#63b8ff" d="M1956.95,-186.95C1971.73,-178.78 1987.68,-166.91 1996,-151 2002.18,-139.19 2003.72,-131.87 1996,-121 1971.07,-85.87 1919.51,-75.23 1885.6,-72.12"/>
<polygon fill="#63b8ff" stroke="#63b8ff" points="1885.5,-68.6 1875.26,-71.35 1884.98,-75.58 1885.5,-68.6"/>
</a>
</g>
</g>
<!-- Node33&#45;&gt;Node3 -->
<g id="edge68_Node000033_Node000003" class="edge">
<title>Node33&#45;&gt;Node3</title>
<g id="a_edge68_Node000033_Node000003"><a xlink:title=" ">
<path fill="none" stroke="#63b8ff" d="M968.31,-120.8C982.49,-110.37 1001.69,-96.24 1016.02,-85.69"/>
<polygon fill="#63b8ff" stroke="#63b8ff" points="1018.25,-88.4 1024.23,-79.66 1014.1,-82.76 1018.25,-88.4"/>
</a>
</g>
</g>
<!-- Node33&#45;&gt;Node4 -->
<g id="edge69_Node000033_Node000004" class="edge">
<title>Node33&#45;&gt;Node4</title>
<g id="a_edge69_Node000033_Node000004"><a xlink:title=" ">
<path fill="none" stroke="#63b8ff" d="M889.85,-127.18C874.59,-125.17 858.18,-123 843,-121 721.23,-104.96 688.25,-114.41 569,-85 566.49,-84.38 563.92,-83.65 561.36,-82.86"/>
<polygon fill="#63b8ff" stroke="#63b8ff" points="562.24,-79.46 551.65,-79.55 559.99,-86.09 562.24,-79.46"/>
</a>
</g>
</g>
<!-- Node33&#45;&gt;Node5 -->
<g id="edge71_Node000033_Node000005" class="edge">
<title>Node33&#45;&gt;Node5</title>
<g id="a_edge71_Node000033_Node000005"><a xlink:title=" ">
<path fill="none" stroke="#63b8ff" d="M1008.01,-130.35C1043.62,-127.57 1089.91,-124 1131,-121 1397.3,-101.54 1719,-79.93 1820.62,-73.15"/>
<polygon fill="#63b8ff" stroke="#63b8ff" points="1821.09,-76.63 1830.84,-72.47 1820.63,-69.65 1821.09,-76.63"/>
</a>
</g>
</g>
<!-- Node33&#45;&gt;Node6 -->
<g id="edge72_Node000033_Node000006" class="edge">
<title>Node33&#45;&gt;Node6</title>
<g id="a_edge72_Node000033_Node000006"><a xlink:title=" ">
<path fill="none" stroke="#63b8ff" d="M1008.03,-128.63C1125.83,-115.92 1387.95,-87.63 1495.04,-76.07"/>
<polygon fill="#63b8ff" stroke="#63b8ff" points="1495.65,-79.52 1505.22,-74.97 1494.9,-72.56 1495.65,-79.52"/>
</a>
</g>
</g>
<!-- Node33&#45;&gt;Node8 -->
<g id="edge74_Node000033_Node000008" class="edge">
<title>Node33&#45;&gt;Node8</title>
<g id="a_edge74_Node000033_Node000008"><a xlink:title=" ">
<path fill="none" stroke="#63b8ff" d="M907.52,-120.95C873.21,-109.33 825.09,-93.04 793.26,-82.26"/>
<polygon fill="#63b8ff" stroke="#63b8ff" points="794.13,-78.86 783.54,-78.97 791.89,-85.49 794.13,-78.86"/>
</a>
</g>
</g>
<!-- Node33&#45;&gt;Node11 -->
<g id="edge67_Node000033_Node000011" class="edge">
<title>Node33&#45;&gt;Node11</title>
<g id="a_edge67_Node000033_Node000011"><a xlink:title=" ">
<path fill="none" stroke="#63b8ff" d="M922.58,-120.87C885.09,-100.93 818.2,-65.74 793,-55 761.83,-41.71 725.23,-29.38 698.99,-21.09"/>
<polygon fill="#63b8ff" stroke="#63b8ff" points="699.71,-17.65 689.13,-18 697.63,-24.33 699.71,-17.65"/>
</a>
</g>
</g>
<!-- Node33&#45;&gt;Node12 -->
<g id="edge75_Node000033_Node000012" class="edge">
<title>Node33&#45;&gt;Node12</title>
<g id="a_edge75_Node000033_Node000012"><a xlink:title=" ">
<path fill="none" stroke="#63b8ff" d="M889.89,-122.43C833.92,-110.53 750.8,-92.86 698.03,-81.64"/>
<polygon fill="#63b8ff" stroke="#63b8ff" points="698.73,-78.21 688.22,-79.55 697.27,-85.05 698.73,-78.21"/>
</a>
</g>
</g>
<!-- Node33&#45;&gt;Node14 -->
<g id="edge76_Node000033_Node000014" class="edge">
<title>Node33&#45;&gt;Node14</title>
<g id="a_edge76_Node000033_Node000014"><a xlink:title=" ">
<path fill="none" stroke="#63b8ff" d="M889.89,-126.89C874.62,-124.88 858.21,-122.79 843,-121 690.88,-103.13 649.25,-108.56 494.17,-85.08"/>
<polygon fill="#63b8ff" stroke="#63b8ff" points="494.69,-81.62 484.27,-83.57 493.63,-88.54 494.69,-81.62"/>
</a>
</g>
</g>
<!-- Node33&#45;&gt;Node16 -->
<g id="edge70_Node000033_Node000016" class="edge">
<title>Node33&#45;&gt;Node16</title>
<g id="a_edge70_Node000033_Node000016"><a xlink:title=" ">
<path fill="none" stroke="#63b8ff" d="M950.49,-120.72C952.85,-98.12 957.45,-54.12 960.06,-29.09"/>
<polygon fill="#63b8ff" stroke="#63b8ff" points="963.55,-29.38 961.11,-19.07 956.59,-28.65 963.55,-29.38"/>
</a>
</g>
</g>
<!-- Node34 -->
<g id="Node000034" class="node">
<title>Node34</title>
<g id="a_Node000034"><a xlink:title=" ">
<polygon fill="#e0e0e0" stroke="#999999" points="933.5,-79.5 864.5,-79.5 864.5,-60.5 933.5,-60.5 933.5,-79.5"/>
<text text-anchor="middle" x="899" y="-67.5" font-family="Helvetica,sans-Serif" font-size="10.00">type_traits</text>
</a>
</g>
</g>
<!-- Node33&#45;&gt;Node34 -->
<g id="edge73_Node000033_Node000034" class="edge">
<title>Node33&#45;&gt;Node34</title>
<g id="a_edge73_Node000033_Node000034"><a xlink:title=" ">
<path fill="none" stroke="#63b8ff" d="M937.9,-120.8C930.34,-111.11 920.28,-98.24 912.29,-88.01"/>
<polygon fill="#63b8ff" stroke="#63b8ff" points="914.82,-85.57 905.91,-79.84 909.31,-89.88 914.82,-85.57"/>
</a>
</g>
</g>
</g>
</svg>
