<?xml version="1.0" encoding="UTF-8" standalone="no"?>
<!DOCTYPE svg PUBLIC "-//W3C//DTD SVG 1.1//EN"
 "http://www.w3.org/Graphics/SVG/1.1/DTD/svg11.dtd">
<!-- Generated by graphviz version 2.43.0 (0)
 -->
<!-- Title: unilink/builder/ibuilder.hpp Pages: 1 -->
<svg width="1886pt" height="335pt"
 viewBox="0.00 0.00 1886.00 335.00" xmlns="http://www.w3.org/2000/svg" xmlns:xlink="http://www.w3.org/1999/xlink">
<g id="graph0" class="graph" transform="scale(1 1) rotate(0) translate(4 331)">
<title>unilink/builder/ibuilder.hpp</title>
<!-- Node1 -->
<g id="Node000001" class="node">
<title>Node1</title>
<g id="a_Node000001"><a xlink:title=" ">
<polygon fill="#999999" stroke="#666666" points="504,-327 358,-327 358,-308 504,-308 504,-327"/>
<text text-anchor="middle" x="431" y="-315" font-family="Helvetica,sans-Serif" font-size="10.00">unilink/builder/ibuilder.hpp</text>
</a>
</g>
</g>
<!-- Node2 -->
<g id="Node000002" class="node">
<title>Node2</title>
<g id="a_Node000002"><a xlink:title=" ">
<polygon fill="#e0e0e0" stroke="#999999" points="613.5,-79.5 548.5,-79.5 548.5,-60.5 613.5,-60.5 613.5,-79.5"/>
<text text-anchor="middle" x="581" y="-67.5" font-family="Helvetica,sans-Serif" font-size="10.00">functional</text>
</a>
</g>
</g>
<!-- Node1&#45;&gt;Node2 -->
<g id="edge1_Node000001_Node000002" class="edge">
<title>Node1&#45;&gt;Node2</title>
<g id="a_edge1_Node000001_Node000002"><a xlink:title=" ">
<path fill="none" stroke="#63b8ff" d="M504.19,-308.18C527.07,-301.86 550.18,-290.91 565,-272 607.46,-217.84 594.14,-128.32 585.67,-89.7"/>
<polygon fill="#63b8ff" stroke="#63b8ff" points="589.05,-88.77 583.37,-79.83 582.24,-90.36 589.05,-88.77"/>
</a>
</g>
</g>
<!-- Node3 -->
<g id="Node000003" class="node">
<title>Node3</title>
<g id="a_Node000003"><a xlink:title=" ">
<polygon fill="#e0e0e0" stroke="#999999" points="492,-79.5 434,-79.5 434,-60.5 492,-60.5 492,-79.5"/>
<text text-anchor="middle" x="463" y="-67.5" font-family="Helvetica,sans-Serif" font-size="10.00">memory</text>
</a>
</g>
</g>
<!-- Node1&#45;&gt;Node3 -->
<g id="edge2_Node000001_Node000003" class="edge">
<title>Node1&#45;&gt;Node3</title>
<g id="a_edge2_Node000001_Node000003"><a xlink:title=" ">
<path fill="none" stroke="#63b8ff" d="M422.25,-307.9C414.44,-299.56 403.55,-286.13 399,-272 387.41,-236.04 389.58,-223.58 399,-187 408.89,-148.61 434.48,-109.32 450.14,-87.76"/>
<polygon fill="#63b8ff" stroke="#63b8ff" points="453.01,-89.76 456.17,-79.65 447.39,-85.59 453.01,-89.76"/>
</a>
</g>
</g>
<!-- Node4 -->
<g id="Node000004" class="node">
<title>Node4</title>
<g id="a_Node000004"><a xlink:title=" ">
<polygon fill="#e0e0e0" stroke="#999999" points="1568,-19 1524,-19 1524,0 1568,0 1568,-19"/>
<text text-anchor="middle" x="1546" y="-7" font-family="Helvetica,sans-Serif" font-size="10.00">string</text>
</a>
</g>
</g>
<!-- Node1&#45;&gt;Node4 -->
<g id="edge3_Node000001_Node000004" class="edge">
<title>Node1&#45;&gt;Node4</title>
<g id="a_edge3_Node000001_Node000004"><a xlink:title=" ">
<path fill="none" stroke="#63b8ff" d="M504.34,-315.35C757.02,-311.17 1582.26,-295.85 1699,-272 1782.54,-254.94 1878,-288.26 1878,-203 1878,-203 1878,-203 1878,-135 1878,-95.05 1869.41,-78.36 1837,-55 1796.15,-25.56 1645.8,-15.08 1578.71,-11.81"/>
<polygon fill="#63b8ff" stroke="#63b8ff" points="1578.46,-8.29 1568.31,-11.33 1578.13,-15.29 1578.46,-8.29"/>
</a>
</g>
</g>
<!-- Node5 -->
<g id="Node000005" class="node">
<title>Node5</title>
<g id="a_Node000005"><a xlink:title=" ">
<polygon fill="#e0e0e0" stroke="#999999" points="1655.5,-79.5 1582.5,-79.5 1582.5,-60.5 1655.5,-60.5 1655.5,-79.5"/>
<text text-anchor="middle" x="1619" y="-67.5" font-family="Helvetica,sans-Serif" font-size="10.00">string_view</text>
</a>
</g>
</g>
<!-- Node1&#45;&gt;Node5 -->
<g id="edge4_Node000001_Node000005" class="edge">
<title>Node1&#45;&gt;Node5</title>
<g id="a_edge4_Node000001_Node000005"><a xlink:title=" ">
<path fill="none" stroke="#63b8ff" d="M504.07,-316.95C777.73,-317.9 1730.94,-314.14 1821,-217 1877.4,-156.16 1736.01,-104.56 1661.47,-82.48"/>
<polygon fill="#63b8ff" stroke="#63b8ff" points="1662,-78.99 1651.42,-79.56 1660.05,-85.71 1662,-78.99"/>
</a>
</g>
</g>
<!-- Node6 -->
<g id="Node000006" class="node">
<title>Node6</title>
<g id="a_Node000006"><a xlink:title=" ">
<polygon fill="#e0e0e0" stroke="#999999" points="389.5,-19 342.5,-19 342.5,0 389.5,0 389.5,-19"/>
<text text-anchor="middle" x="366" y="-7" font-family="Helvetica,sans-Serif" font-size="10.00">vector</text>
</a>
</g>
</g>
<!-- Node1&#45;&gt;Node6 -->
<g id="edge5_Node000001_Node000006" class="edge">
<title>Node1&#45;&gt;Node6</title>
<g id="a_edge5_Node000001_Node000006"><a xlink:title=" ">
<path fill="none" stroke="#63b8ff" d="M357.82,-313.78C283.1,-306.62 178,-282.43 178,-203 178,-203 178,-203 178,-135 178,-85.03 215.47,-82.79 257,-55 280.28,-39.43 309.86,-27.78 332.33,-20.31"/>
<polygon fill="#63b8ff" stroke="#63b8ff" points="333.66,-23.56 342.11,-17.18 331.52,-16.9 333.66,-23.56"/>
</a>
</g>
</g>
<!-- Node7 -->
<g id="Node000007" class="node">
<title>Node7</title>
<g id="a_Node000007"><a xlink:href="constants_8hpp.html" target="_top" xlink:title=" ">
<polygon fill="white" stroke="#666666" points="555.5,-272 408.5,-272 408.5,-253 555.5,-253 555.5,-272"/>
<text text-anchor="middle" x="482" y="-260" font-family="Helvetica,sans-Serif" font-size="10.00">unilink/base/constants.hpp</text>
</a>
</g>
</g>
<!-- Node1&#45;&gt;Node7 -->
<g id="edge6_Node000001_Node000007" class="edge">
<title>Node1&#45;&gt;Node7</title>
<g id="a_edge6_Node000001_Node000007"><a xlink:title=" ">
<path fill="none" stroke="#63b8ff" d="M439.42,-307.75C446.77,-300.11 457.63,-288.82 466.54,-279.56"/>
<polygon fill="#63b8ff" stroke="#63b8ff" points="469.32,-281.72 473.74,-272.09 464.28,-276.87 469.32,-281.72"/>
</a>
</g>
</g>
<!-- Node10 -->
<g id="Node000010" class="node">
<title>Node10</title>
<g id="a_Node000010"><a xlink:href="visibility_8hpp.html" target="_top" xlink:title=" ">
<polygon fill="white" stroke="#666666" points="324,-19 184,-19 184,0 324,0 324,-19"/>
<text text-anchor="middle" x="254" y="-7" font-family="Helvetica,sans-Serif" font-size="10.00">unilink/base/visibility.hpp</text>
</a>
</g>
</g>
<!-- Node1&#45;&gt;Node10 -->
<g id="edge9_Node000001_Node000010" class="edge">
<title>Node1&#45;&gt;Node10</title>
<g id="a_edge9_Node000001_Node000010"><a xlink:title=" ">
<path fill="none" stroke="#63b8ff" d="M357.89,-312.27C234.92,-303.14 0,-276.12 0,-203 0,-203 0,-203 0,-135 0,-56.44 99.19,-27.44 173.6,-16.75"/>
<polygon fill="#63b8ff" stroke="#63b8ff" points="174.48,-20.16 183.92,-15.36 173.54,-13.22 174.48,-20.16"/>
</a>
</g>
</g>
<!-- Node11 -->
<g id="Node000011" class="node">
<title>Node11</title>
<g id="a_Node000011"><a xlink:href="iframer_8hpp.html" target="_top" xlink:title=" ">
<polygon fill="white" stroke="#666666" points="389.5,-145.5 244.5,-145.5 244.5,-126.5 389.5,-126.5 389.5,-145.5"/>
<text text-anchor="middle" x="317" y="-133.5" font-family="Helvetica,sans-Serif" font-size="10.00">unilink/framer/iframer.hpp</text>
</a>
</g>
</g>
<!-- Node1&#45;&gt;Node11 -->
<g id="edge10_Node000001_Node000011" class="edge">
<title>Node1&#45;&gt;Node11</title>
<g id="a_edge10_Node000001_Node000011"><a xlink:title=" ">
<path fill="none" stroke="#63b8ff" d="M412.68,-307.96C398.19,-300.37 378.4,-288 366,-272 338.35,-236.32 325.3,-183.58 320.03,-155.76"/>
<polygon fill="#63b8ff" stroke="#63b8ff" points="323.46,-155.03 318.28,-145.79 316.56,-156.25 323.46,-155.03"/>
</a>
</g>
</g>
<!-- Node12 -->
<g id="Node000012" class="node">
<title>Node12</title>
<g id="a_Node000012"><a xlink:href="safe__span_8hpp.html" target="_top" xlink:title=" ">
<polygon fill="white" stroke="#666666" points="902,-85 784,-85 784,-55 902,-55 902,-85"/>
<text text-anchor="start" x="792" y="-73" font-family="Helvetica,sans-Serif" font-size="10.00">unilink/memory/safe</text>
<text text-anchor="middle" x="843" y="-62" font-family="Helvetica,sans-Serif" font-size="10.00">_span.hpp</text>
</a>
</g>
</g>
<!-- Node1&#45;&gt;Node12 -->
<g id="edge29_Node000001_Node000012" class="edge">
<title>Node1&#45;&gt;Node12</title>
<g id="a_edge29_Node000001_Node000012"><a xlink:title=" ">
<path fill="none" stroke="#63b8ff" d="M492.45,-307.95C578.9,-292.56 735.22,-251.82 819,-151 832,-135.36 837.96,-112.84 840.69,-95.67"/>
<polygon fill="#63b8ff" stroke="#63b8ff" points="844.22,-95.67 842.06,-85.29 837.28,-94.75 844.22,-95.67"/>
</a>
</g>
</g>
<!-- Node15 -->
<g id="Node000015" class="node">
<title>Node15</title>
<g id="a_Node000015"><a xlink:href="line__framer_8hpp.html" target="_top" xlink:title=" ">
<polygon fill="white" stroke="#666666" points="313.5,-217 206.5,-217 206.5,-187 313.5,-187 313.5,-217"/>
<text text-anchor="start" x="214.5" y="-205" font-family="Helvetica,sans-Serif" font-size="10.00">unilink/framer/line</text>
<text text-anchor="middle" x="260" y="-194" font-family="Helvetica,sans-Serif" font-size="10.00">_framer.hpp</text>
</a>
</g>
</g>
<!-- Node1&#45;&gt;Node15 -->
<g id="edge19_Node000001_Node000015" class="edge">
<title>Node1&#45;&gt;Node15</title>
<g id="a_edge19_Node000001_Node000015"><a xlink:title=" ">
<path fill="none" stroke="#63b8ff" d="M403.73,-307.96C382.08,-300.45 351.63,-288.17 328,-272 308.68,-258.77 290.26,-239.53 277.48,-224.72"/>
<polygon fill="#63b8ff" stroke="#63b8ff" points="280.11,-222.41 270.99,-217.02 274.76,-226.92 280.11,-222.41"/>
</a>
</g>
</g>
<!-- Node16 -->
<g id="Node000016" class="node">
<title>Node16</title>
<g id="a_Node000016"><a xlink:href="packet__framer_8hpp.html" target="_top" xlink:title=" ">
<polygon fill="white" stroke="#666666" points="149.5,-217 28.5,-217 28.5,-187 149.5,-187 149.5,-217"/>
<text text-anchor="start" x="36.5" y="-205" font-family="Helvetica,sans-Serif" font-size="10.00">unilink/framer/packet</text>
<text text-anchor="middle" x="89" y="-194" font-family="Helvetica,sans-Serif" font-size="10.00">_framer.hpp</text>
</a>
</g>
</g>
<!-- Node1&#45;&gt;Node16 -->
<g id="edge25_Node000001_Node000016" class="edge">
<title>Node1&#45;&gt;Node16</title>
<g id="a_edge25_Node000001_Node000016"><a xlink:title=" ">
<path fill="none" stroke="#63b8ff" d="M357.89,-315.49C302.22,-312.14 225.01,-301.81 164,-272 141.26,-260.89 120.51,-240.65 106.63,-224.95"/>
<polygon fill="#63b8ff" stroke="#63b8ff" points="109.19,-222.55 100.03,-217.23 103.87,-227.1 109.19,-222.55"/>
</a>
</g>
</g>
<!-- Node17 -->
<g id="Node000017" class="node">
<title>Node17</title>
<g id="a_Node000017"><a xlink:href="context_8hpp.html" target="_top" xlink:title=" ">
<polygon fill="white" stroke="#666666" points="1085.5,-272 932.5,-272 932.5,-253 1085.5,-253 1085.5,-272"/>
<text text-anchor="middle" x="1009" y="-260" font-family="Helvetica,sans-Serif" font-size="10.00">unilink/wrapper/context.hpp</text>
</a>
</g>
</g>
<!-- Node1&#45;&gt;Node17 -->
<g id="edge30_Node000001_Node000017" class="edge">
<title>Node1&#45;&gt;Node17</title>
<g id="a_edge30_Node000001_Node000017"><a xlink:title=" ">
<path fill="none" stroke="#63b8ff" d="M504.2,-309.79C610.8,-300.01 808.4,-281.89 922.19,-271.46"/>
<polygon fill="#63b8ff" stroke="#63b8ff" points="922.62,-274.94 932.26,-270.54 921.98,-267.96 922.62,-274.94"/>
</a>
</g>
</g>
<!-- Node8 -->
<g id="Node000008" class="node">
<title>Node8</title>
<g id="a_Node000008"><a xlink:title=" ">
<polygon fill="#e0e0e0" stroke="#999999" points="461.5,-211.5 408.5,-211.5 408.5,-192.5 461.5,-192.5 461.5,-211.5"/>
<text text-anchor="middle" x="435" y="-199.5" font-family="Helvetica,sans-Serif" font-size="10.00">cstddef</text>
</a>
</g>
</g>
<!-- Node7&#45;&gt;Node8 -->
<g id="edge7_Node000007_Node000008" class="edge">
<title>Node7&#45;&gt;Node8</title>
<g id="a_edge7_Node000007_Node000008"><a xlink:title=" ">
<path fill="none" stroke="#63b8ff" d="M475.06,-252.87C468.05,-244.14 457.04,-230.43 448.33,-219.59"/>
<polygon fill="#63b8ff" stroke="#63b8ff" points="450.96,-217.27 441.96,-211.67 445.5,-221.66 450.96,-217.27"/>
</a>
</g>
</g>
<!-- Node9 -->
<g id="Node000009" class="node">
<title>Node9</title>
<g id="a_Node000009"><a xlink:title=" ">
<polygon fill="#e0e0e0" stroke="#999999" points="624,-19 574,-19 574,0 624,0 624,-19"/>
<text text-anchor="middle" x="599" y="-7" font-family="Helvetica,sans-Serif" font-size="10.00">cstdint</text>
</a>
</g>
</g>
<!-- Node7&#45;&gt;Node9 -->
<g id="edge8_Node000007_Node000009" class="edge">
<title>Node7&#45;&gt;Node9</title>
<g id="a_edge8_Node000007_Node000009"><a xlink:title=" ">
<path fill="none" stroke="#63b8ff" d="M481.31,-252.62C480.05,-238.49 476.84,-210.12 470,-187 452.42,-127.56 386.99,-103.96 425,-55 441.85,-33.29 517.99,-20.38 563.78,-14.44"/>
<polygon fill="#63b8ff" stroke="#63b8ff" points="564.4,-17.89 573.89,-13.18 563.53,-10.95 564.4,-17.89"/>
</a>
</g>
</g>
<!-- Node11&#45;&gt;Node2 -->
<g id="edge11_Node000011_Node000002" class="edge">
<title>Node11&#45;&gt;Node2</title>
<g id="a_edge11_Node000011_Node000002"><a xlink:title=" ">
<path fill="none" stroke="#63b8ff" d="M352.33,-126.44C400.54,-114.75 486.83,-93.83 538.51,-81.3"/>
<polygon fill="#63b8ff" stroke="#63b8ff" points="539.47,-84.67 548.37,-78.91 537.82,-77.87 539.47,-84.67"/>
</a>
</g>
</g>
<!-- Node11&#45;&gt;Node3 -->
<g id="edge12_Node000011_Node000003" class="edge">
<title>Node11&#45;&gt;Node3</title>
<g id="a_edge12_Node000011_Node000003"><a xlink:title=" ">
<path fill="none" stroke="#63b8ff" d="M336.69,-126.37C361.73,-115.39 405.15,-96.36 433.98,-83.72"/>
<polygon fill="#63b8ff" stroke="#63b8ff" points="435.4,-86.92 443.16,-79.7 432.59,-80.51 435.4,-86.92"/>
</a>
</g>
</g>
<!-- Node11&#45;&gt;Node6 -->
<g id="edge13_Node000011_Node000006" class="edge">
<title>Node11&#45;&gt;Node6</title>
<g id="a_edge13_Node000011_Node000006"><a xlink:title=" ">
<path fill="none" stroke="#63b8ff" d="M314.56,-126.11C310.86,-110.8 305.31,-78.82 316,-55 321.5,-42.74 332.23,-32.48 342.35,-24.91"/>
<polygon fill="#63b8ff" stroke="#63b8ff" points="344.35,-27.78 350.57,-19.2 340.36,-22.03 344.35,-27.78"/>
</a>
</g>
</g>
<!-- Node11&#45;&gt;Node10 -->
<g id="edge14_Node000011_Node000010" class="edge">
<title>Node11&#45;&gt;Node10</title>
<g id="a_edge14_Node000011_Node000010"><a xlink:title=" ">
<path fill="none" stroke="#63b8ff" d="M312.67,-126.44C302.46,-106.27 276.73,-55.42 262.99,-28.26"/>
<polygon fill="#63b8ff" stroke="#63b8ff" points="266,-26.46 258.36,-19.12 259.75,-29.62 266,-26.46"/>
</a>
</g>
</g>
<!-- Node11&#45;&gt;Node12 -->
<g id="edge15_Node000011_Node000012" class="edge">
<title>Node11&#45;&gt;Node12</title>
<g id="a_edge15_Node000011_Node000012"><a xlink:title=" ">
<path fill="none" stroke="#63b8ff" d="M387.12,-126.47C488.12,-114.18 673.41,-91.63 773.86,-79.41"/>
<polygon fill="#63b8ff" stroke="#63b8ff" points="774.4,-82.87 783.9,-78.19 773.56,-75.92 774.4,-82.87"/>
</a>
</g>
</g>
<!-- Node12&#45;&gt;Node9 -->
<g id="edge16_Node000012_Node000009" class="edge">
<title>Node12&#45;&gt;Node9</title>
<g id="a_edge16_Node000012_Node000009"><a xlink:title=" ">
<path fill="none" stroke="#63b8ff" d="M784.56,-54.99C737.71,-43.76 673.51,-28.36 634.21,-18.94"/>
<polygon fill="#63b8ff" stroke="#63b8ff" points="634.85,-15.5 624.31,-16.57 633.21,-22.3 634.85,-15.5"/>
</a>
</g>
</g>
<!-- Node13 -->
<g id="Node000013" class="node">
<title>Node13</title>
<g id="a_Node000013"><a xlink:title=" ">
<polygon fill="#e0e0e0" stroke="#999999" points="1000.5,-19 935.5,-19 935.5,0 1000.5,0 1000.5,-19"/>
<text text-anchor="middle" x="968" y="-7" font-family="Helvetica,sans-Serif" font-size="10.00">stdexcept</text>
</a>
</g>
</g>
<!-- Node12&#45;&gt;Node13 -->
<g id="edge17_Node000012_Node000013" class="edge">
<title>Node12&#45;&gt;Node13</title>
<g id="a_edge17_Node000012_Node000013"><a xlink:title=" ">
<path fill="none" stroke="#63b8ff" d="M872.94,-54.99C893.42,-45.4 920.38,-32.79 940.35,-23.44"/>
<polygon fill="#63b8ff" stroke="#63b8ff" points="941.97,-26.55 949.54,-19.14 939,-20.21 941.97,-26.55"/>
</a>
</g>
</g>
<!-- Node14 -->
<g id="Node000014" class="node">
<title>Node14</title>
<g id="a_Node000014"><a xlink:title=" ">
<polygon fill="#e0e0e0" stroke="#999999" points="833.5,-19 764.5,-19 764.5,0 833.5,0 833.5,-19"/>
<text text-anchor="middle" x="799" y="-7" font-family="Helvetica,sans-Serif" font-size="10.00">type_traits</text>
</a>
</g>
</g>
<!-- Node12&#45;&gt;Node14 -->
<g id="edge18_Node000012_Node000014" class="edge">
<title>Node12&#45;&gt;Node14</title>
<g id="a_edge18_Node000012_Node000014"><a xlink:title=" ">
<path fill="none" stroke="#63b8ff" d="M832.35,-54.84C826.16,-46.61 818.31,-36.18 811.79,-27.51"/>
<polygon fill="#63b8ff" stroke="#63b8ff" points="814.4,-25.15 805.59,-19.27 808.81,-29.36 814.4,-25.15"/>
</a>
</g>
</g>
<!-- Node15&#45;&gt;Node4 -->
<g id="edge20_Node000015_Node000004" class="edge">
<title>Node15&#45;&gt;Node4</title>
<g id="a_edge20_Node000015_Node000004"><a xlink:title=" ">
<path fill="none" stroke="#63b8ff" d="M313.74,-194.97C339.51,-192.24 370.83,-189.14 399,-187 553.87,-175.21 953.62,-210.72 1097,-151 1115.3,-143.38 1111.95,-129.2 1130,-121 1257.09,-63.27 1311.77,-135.25 1442,-85 1476.84,-71.56 1510.77,-43.64 1529.96,-26.06"/>
<polygon fill="#63b8ff" stroke="#63b8ff" points="1532.57,-28.41 1537.47,-19.01 1527.78,-23.3 1532.57,-28.41"/>
</a>
</g>
</g>
<!-- Node15&#45;&gt;Node5 -->
<g id="edge21_Node000015_Node000005" class="edge">
<title>Node15&#45;&gt;Node5</title>
<g id="a_edge21_Node000015_Node000005"><a xlink:title=" ">
<path fill="none" stroke="#63b8ff" d="M313.74,-194.94C339.51,-192.2 370.82,-189.11 399,-187 723.37,-162.69 811.33,-216.25 1130,-151 1167.61,-143.3 1173.61,-129.71 1211,-121 1362.87,-85.64 1406.26,-111.06 1560,-85 1565.38,-84.09 1571.01,-82.97 1576.56,-81.77"/>
<polygon fill="#63b8ff" stroke="#63b8ff" points="1577.41,-85.16 1586.39,-79.54 1575.86,-78.34 1577.41,-85.16"/>
</a>
</g>
</g>
<!-- Node15&#45;&gt;Node6 -->
<g id="edge22_Node000015_Node000006" class="edge">
<title>Node15&#45;&gt;Node6</title>
<g id="a_edge22_Node000015_Node000006"><a xlink:title=" ">
<path fill="none" stroke="#63b8ff" d="M249.52,-186.79C238.89,-170.53 225.29,-143.28 235,-121 255.23,-74.58 306.46,-41.04 338.53,-23.77"/>
<polygon fill="#63b8ff" stroke="#63b8ff" points="340.17,-26.87 347.42,-19.14 336.94,-20.66 340.17,-26.87"/>
</a>
</g>
</g>
<!-- Node15&#45;&gt;Node10 -->
<g id="edge23_Node000015_Node000010" class="edge">
<title>Node15&#45;&gt;Node10</title>
<g id="a_edge23_Node000015_Node000010"><a xlink:title=" ">
<path fill="none" stroke="#63b8ff" d="M235.42,-186.99C222.91,-178.38 208.92,-166.11 202,-151 184.23,-112.21 184.16,-93.76 202,-55 207.75,-42.52 218.91,-32.24 229.42,-24.71"/>
<polygon fill="#63b8ff" stroke="#63b8ff" points="231.57,-27.49 237.97,-19.05 227.7,-21.65 231.57,-27.49"/>
</a>
</g>
</g>
<!-- Node15&#45;&gt;Node11 -->
<g id="edge24_Node000015_Node000011" class="edge">
<title>Node15&#45;&gt;Node11</title>
<g id="a_edge24_Node000015_Node000011"><a xlink:title=" ">
<path fill="none" stroke="#63b8ff" d="M272.65,-186.8C281.45,-176.92 293.2,-163.72 302.4,-153.39"/>
<polygon fill="#63b8ff" stroke="#63b8ff" points="305.09,-155.64 309.12,-145.84 299.86,-150.98 305.09,-155.64"/>
</a>
</g>
</g>
<!-- Node16&#45;&gt;Node6 -->
<g id="edge26_Node000016_Node000006" class="edge">
<title>Node16&#45;&gt;Node6</title>
<g id="a_edge26_Node000016_Node000006"><a xlink:title=" ">
<path fill="none" stroke="#63b8ff" d="M101.07,-186.8C108.87,-177.15 118.87,-163.84 126,-151 148.28,-110.88 128.96,-84.63 164,-55 220.24,-7.45 255.28,-34.16 332.14,-18.94"/>
<polygon fill="#63b8ff" stroke="#63b8ff" points="333.21,-22.29 342.24,-16.75 331.72,-15.45 333.21,-22.29"/>
</a>
</g>
</g>
<!-- Node16&#45;&gt;Node10 -->
<g id="edge27_Node000016_Node000010" class="edge">
<title>Node16&#45;&gt;Node10</title>
<g id="a_edge27_Node000016_Node000010"><a xlink:title=" ">
<path fill="none" stroke="#63b8ff" d="M96.21,-186.84C110.77,-159.17 145.93,-96.96 188,-55 200.05,-42.98 215.77,-32.23 228.85,-24.31"/>
<polygon fill="#63b8ff" stroke="#63b8ff" points="230.95,-27.14 237.82,-19.06 227.42,-21.09 230.95,-27.14"/>
</a>
</g>
</g>
<!-- Node16&#45;&gt;Node11 -->
<g id="edge28_Node000016_Node000011" class="edge">
<title>Node16&#45;&gt;Node11</title>
<g id="a_edge28_Node000016_Node000011"><a xlink:title=" ">
<path fill="none" stroke="#63b8ff" d="M139.04,-186.95C180.43,-175.34 238.46,-159.05 276.86,-148.27"/>
<polygon fill="#63b8ff" stroke="#63b8ff" points="277.98,-151.59 286.66,-145.52 276.08,-144.85 277.98,-151.59"/>
</a>
</g>
</g>
<!-- Node17&#45;&gt;Node4 -->
<g id="edge32_Node000017_Node000004" class="edge">
<title>Node17&#45;&gt;Node4</title>
<g id="a_edge32_Node000017_Node000004"><a xlink:title=" ">
<path fill="none" stroke="#63b8ff" d="M1085.59,-259.87C1216.09,-256.34 1475.8,-245.84 1562,-217 1647.73,-188.31 1738.29,-128.02 1685,-55 1660.67,-21.66 1611.03,-12.73 1578.14,-10.65"/>
<polygon fill="#63b8ff" stroke="#63b8ff" points="1578.25,-7.15 1568.1,-10.19 1577.93,-14.14 1578.25,-7.15"/>
</a>
</g>
</g>
<!-- Node17&#45;&gt;Node5 -->
<g id="edge33_Node000017_Node000005" class="edge">
<title>Node17&#45;&gt;Node5</title>
<g id="a_edge33_Node000017_Node000005"><a xlink:title=" ">
<path fill="none" stroke="#63b8ff" d="M1085.78,-260.17C1239.93,-255.71 1578.41,-236.19 1649,-151 1664.53,-132.25 1647.82,-104.66 1633.82,-87.27"/>
<polygon fill="#63b8ff" stroke="#63b8ff" points="1636.46,-84.98 1627.32,-79.63 1631.13,-89.52 1636.46,-84.98"/>
</a>
</g>
</g>
<!-- Node17&#45;&gt;Node6 -->
<g id="edge34_Node000017_Node000006" class="edge">
<title>Node17&#45;&gt;Node6</title>
<g id="a_edge34_Node000017_Node000006"><a xlink:title=" ">
<path fill="none" stroke="#63b8ff" d="M932.19,-256.43C825.78,-247.03 629.52,-220.99 478,-151 434.58,-130.94 421.14,-123.67 393,-85 380.75,-68.17 373.55,-45.22 369.71,-29.25"/>
<polygon fill="#63b8ff" stroke="#63b8ff" points="373.03,-28.07 367.48,-19.05 366.2,-29.57 373.03,-28.07"/>
</a>
</g>
</g>
<!-- Node17&#45;&gt;Node12 -->
<g id="edge82_Node000017_Node000012" class="edge">
<title>Node17&#45;&gt;Node12</title>
<g id="a_edge82_Node000017_Node000012"><a xlink:title=" ">
<path fill="none" stroke="#63b8ff" d="M999.44,-252.8C979.82,-234.73 933.98,-191.44 900,-151 884.45,-132.49 868.64,-109.95 857.63,-93.52"/>
<polygon fill="#63b8ff" stroke="#63b8ff" points="860.48,-91.49 852.04,-85.08 854.65,-95.35 860.48,-91.49"/>
</a>
</g>
</g>
<!-- Node18 -->
<g id="Node000018" class="node">
<title>Node18</title>
<g id="a_Node000018"><a xlink:title=" ">
<polygon fill="#e0e0e0" stroke="#999999" points="1037,-211.5 981,-211.5 981,-192.5 1037,-192.5 1037,-211.5"/>
<text text-anchor="middle" x="1009" y="-199.5" font-family="Helvetica,sans-Serif" font-size="10.00">optional</text>
</a>
</g>
</g>
<!-- Node17&#45;&gt;Node18 -->
<g id="edge31_Node000017_Node000018" class="edge">
<title>Node17&#45;&gt;Node18</title>
<g id="a_edge31_Node000017_Node000018"><a xlink:title=" ">
<path fill="none" stroke="#63b8ff" d="M1009,-252.87C1009,-244.75 1009,-232.31 1009,-221.89"/>
<polygon fill="#63b8ff" stroke="#63b8ff" points="1012.5,-221.67 1009,-211.67 1005.5,-221.67 1012.5,-221.67"/>
</a>
</g>
</g>
<!-- Node19 -->
<g id="Node000019" class="node">
<title>Node19</title>
<g id="a_Node000019"><a xlink:href="common_8hpp.html" target="_top" xlink:title=" ">
<polygon fill="white" stroke="#666666" points="1290.5,-211.5 1147.5,-211.5 1147.5,-192.5 1290.5,-192.5 1290.5,-211.5"/>
<text text-anchor="middle" x="1219" y="-199.5" font-family="Helvetica,sans-Serif" font-size="10.00">unilink/base/common.hpp</text>
</a>
</g>
</g>
<!-- Node17&#45;&gt;Node19 -->
<g id="edge35_Node000017_Node000019" class="edge">
<title>Node17&#45;&gt;Node19</title>
<g id="a_edge35_Node000017_Node000019"><a xlink:title=" ">
<path fill="none" stroke="#63b8ff" d="M1039.54,-252.99C1076.24,-242.77 1137.95,-225.58 1178.58,-214.26"/>
<polygon fill="#63b8ff" stroke="#63b8ff" points="1179.73,-217.57 1188.43,-211.52 1177.85,-210.83 1179.73,-217.57"/>
</a>
</g>
</g>
<!-- Node33 -->
<g id="Node000033" class="node">
<title>Node33</title>
<g id="a_Node000033"><a xlink:href="error__codes_8hpp.html" target="_top" xlink:title=" ">
<polygon fill="white" stroke="#666666" points="1812,-217 1710,-217 1710,-187 1812,-187 1812,-217"/>
<text text-anchor="start" x="1718" y="-205" font-family="Helvetica,sans-Serif" font-size="10.00">unilink/base/error</text>
<text text-anchor="middle" x="1761" y="-194" font-family="Helvetica,sans-Serif" font-size="10.00">_codes.hpp</text>
</a>
</g>
</g>
<!-- Node17&#45;&gt;Node33 -->
<g id="edge69_Node000017_Node000033" class="edge">
<title>Node17&#45;&gt;Node33</title>
<g id="a_edge69_Node000017_Node000033"><a xlink:title=" ">
<path fill="none" stroke="#63b8ff" d="M1085.62,-260.22C1212.93,-257.27 1475.82,-247.67 1696,-217 1697.25,-216.83 1698.52,-216.64 1699.79,-216.44"/>
<polygon fill="#63b8ff" stroke="#63b8ff" points="1700.4,-219.89 1709.68,-214.79 1699.24,-212.99 1700.4,-219.89"/>
</a>
</g>
</g>
<!-- Node34 -->
<g id="Node000034" class="node">
<title>Node34</title>
<g id="a_Node000034"><a xlink:href="safe__data__buffer_8hpp.html" target="_top" xlink:title=" ">
<polygon fill="white" stroke="#666666" points="810,-151 692,-151 692,-121 810,-121 810,-151"/>
<text text-anchor="start" x="700" y="-139" font-family="Helvetica,sans-Serif" font-size="10.00">unilink/memory/safe</text>
<text text-anchor="middle" x="751" y="-128" font-family="Helvetica,sans-Serif" font-size="10.00">_data_buffer.hpp</text>
</a>
</g>
</g>
<!-- Node17&#45;&gt;Node34 -->
<g id="edge71_Node000017_Node000034" class="edge">
<title>Node17&#45;&gt;Node34</title>
<g id="a_edge71_Node000017_Node000034"><a xlink:title=" ">
<path fill="none" stroke="#63b8ff" d="M968.02,-252.95C937.75,-245.72 896.06,-233.84 862,-217 829.48,-200.92 796.25,-175.55 774.74,-157.7"/>
<polygon fill="#63b8ff" stroke="#63b8ff" points="776.72,-154.8 766.82,-151.03 772.21,-160.15 776.72,-154.8"/>
</a>
</g>
</g>
<!-- Node19&#45;&gt;Node2 -->
<g id="edge40_Node000019_Node000002" class="edge">
<title>Node19&#45;&gt;Node2</title>
<g id="a_edge40_Node000019_Node000002"><a xlink:title=" ">
<path fill="none" stroke="#63b8ff" d="M1147.32,-194.84C1003.76,-182.43 693.66,-155.25 683,-151 647.33,-136.79 613.89,-105.98 595.56,-87.02"/>
<polygon fill="#63b8ff" stroke="#63b8ff" points="598.07,-84.58 588.67,-79.7 592.98,-89.38 598.07,-84.58"/>
</a>
</g>
</g>
<!-- Node19&#45;&gt;Node4 -->
<g id="edge45_Node000019_Node000004" class="edge">
<title>Node19&#45;&gt;Node4</title>
<g id="a_edge45_Node000019_Node000004"><a xlink:title=" ">
<path fill="none" stroke="#63b8ff" d="M1290.6,-197.11C1405.95,-190.19 1622.72,-174.25 1649,-151 1681.39,-122.34 1689.65,-90.54 1665,-55 1645.6,-27.04 1606.36,-16.62 1578.24,-12.75"/>
<polygon fill="#63b8ff" stroke="#63b8ff" points="1578.41,-9.25 1568.07,-11.57 1577.6,-16.2 1578.41,-9.25"/>
</a>
</g>
</g>
<!-- Node19&#45;&gt;Node5 -->
<g id="edge46_Node000019_Node000005" class="edge">
<title>Node19&#45;&gt;Node5</title>
<g id="a_edge46_Node000019_Node000005"><a xlink:title=" ">
<path fill="none" stroke="#63b8ff" d="M1290.94,-197.38C1403.03,-190.99 1608.87,-175.98 1631,-151 1646.02,-134.05 1637.36,-106.71 1628.89,-88.8"/>
<polygon fill="#63b8ff" stroke="#63b8ff" points="1631.91,-87.02 1624.23,-79.72 1625.68,-90.21 1631.91,-87.02"/>
</a>
</g>
</g>
<!-- Node19&#45;&gt;Node6 -->
<g id="edge48_Node000019_Node000006" class="edge">
<title>Node19&#45;&gt;Node6</title>
<g id="a_edge48_Node000019_Node000006"><a xlink:title=" ">
<path fill="none" stroke="#63b8ff" d="M1147.46,-195.16C1116.3,-192.63 1079.34,-189.65 1046,-187 840.69,-170.69 784.27,-199.08 584,-151 509.6,-133.14 486.04,-131.13 425,-85 404.09,-69.2 386.42,-44.33 376.01,-27.72"/>
<polygon fill="#63b8ff" stroke="#63b8ff" points="378.93,-25.78 370.76,-19.03 372.94,-29.4 378.93,-25.78"/>
</a>
</g>
</g>
<!-- Node19&#45;&gt;Node9 -->
<g id="edge37_Node000019_Node000009" class="edge">
<title>Node19&#45;&gt;Node9</title>
<g id="a_edge37_Node000019_Node000009"><a xlink:title=" ">
<path fill="none" stroke="#63b8ff" d="M1147.35,-195.17C991.68,-182.47 636,-153.25 630,-151 624.19,-148.82 542.8,-90.53 540,-85 533.97,-73.11 534.05,-66.93 540,-55 546.57,-41.82 559.1,-31.52 570.93,-24.16"/>
<polygon fill="#63b8ff" stroke="#63b8ff" points="572.8,-27.12 579.73,-19.1 569.32,-21.05 572.8,-27.12"/>
</a>
</g>
</g>
<!-- Node19&#45;&gt;Node13 -->
<g id="edge44_Node000019_Node000013" class="edge">
<title>Node19&#45;&gt;Node13</title>
<g id="a_edge44_Node000019_Node000013"><a xlink:title=" ">
<path fill="none" stroke="#63b8ff" d="M1147.21,-197.12C1078.96,-191.76 983.36,-179.3 960,-151 931.19,-116.09 948.26,-58.13 959.9,-28.76"/>
<polygon fill="#63b8ff" stroke="#63b8ff" points="963.22,-29.91 963.85,-19.33 956.76,-27.21 963.22,-29.91"/>
</a>
</g>
</g>
<!-- Node20 -->
<g id="Node000020" class="node">
<title>Node20</title>
<g id="a_Node000020"><a xlink:title=" ">
<polygon fill="#e0e0e0" stroke="#999999" points="1457,-19 1407,-19 1407,0 1457,0 1457,-19"/>
<text text-anchor="middle" x="1432" y="-7" font-family="Helvetica,sans-Serif" font-size="10.00">chrono</text>
</a>
</g>
</g>
<!-- Node19&#45;&gt;Node20 -->
<g id="edge36_Node000019_Node000020" class="edge">
<title>Node19&#45;&gt;Node20</title>
<g id="a_edge36_Node000019_Node000020"><a xlink:title=" ">
<path fill="none" stroke="#63b8ff" d="M1214.56,-192.39C1207,-176.36 1194.01,-141.73 1211,-121 1262.72,-57.91 1325.2,-133.23 1391,-85 1409.66,-71.32 1420.83,-46.48 1426.7,-29.26"/>
<polygon fill="#63b8ff" stroke="#63b8ff" points="1430.19,-29.83 1429.81,-19.25 1423.5,-27.76 1430.19,-29.83"/>
</a>
</g>
</g>
<!-- Node21 -->
<g id="Node000021" class="node">
<title>Node21</title>
<g id="a_Node000021"><a xlink:title=" ">
<polygon fill="#e0e0e0" stroke="#999999" points="1270,-145.5 1220,-145.5 1220,-126.5 1270,-126.5 1270,-145.5"/>
<text text-anchor="middle" x="1245" y="-133.5" font-family="Helvetica,sans-Serif" font-size="10.00">cstring</text>
</a>
</g>
</g>
<!-- Node19&#45;&gt;Node21 -->
<g id="edge38_Node000019_Node000021" class="edge">
<title>Node19&#45;&gt;Node21</title>
<g id="a_edge38_Node000019_Node000021"><a xlink:title=" ">
<path fill="none" stroke="#63b8ff" d="M1222.51,-192.37C1226.32,-182.97 1232.54,-167.67 1237.47,-155.53"/>
<polygon fill="#63b8ff" stroke="#63b8ff" points="1240.86,-156.49 1241.38,-145.91 1234.38,-153.85 1240.86,-156.49"/>
</a>
</g>
</g>
<!-- Node22 -->
<g id="Node000022" class="node">
<title>Node22</title>
<g id="a_Node000022"><a xlink:title=" ">
<polygon fill="#e0e0e0" stroke="#999999" points="1332,-145.5 1288,-145.5 1288,-126.5 1332,-126.5 1332,-145.5"/>
<text text-anchor="middle" x="1310" y="-133.5" font-family="Helvetica,sans-Serif" font-size="10.00">ctime</text>
</a>
</g>
</g>
<!-- Node19&#45;&gt;Node22 -->
<g id="edge39_Node000019_Node000022" class="edge">
<title>Node19&#45;&gt;Node22</title>
<g id="a_edge39_Node000019_Node000022"><a xlink:title=" ">
<path fill="none" stroke="#63b8ff" d="M1231.27,-192.37C1246.06,-181.97 1271.15,-164.32 1289.03,-151.75"/>
<polygon fill="#63b8ff" stroke="#63b8ff" points="1291.46,-154.31 1297.63,-145.7 1287.44,-148.59 1291.46,-154.31"/>
</a>
</g>
</g>
<!-- Node23 -->
<g id="Node000023" class="node">
<title>Node23</title>
<g id="a_Node000023"><a xlink:title=" ">
<polygon fill="#e0e0e0" stroke="#999999" points="1406,-145.5 1350,-145.5 1350,-126.5 1406,-126.5 1406,-145.5"/>
<text text-anchor="middle" x="1378" y="-133.5" font-family="Helvetica,sans-Serif" font-size="10.00">iomanip</text>
</a>
</g>
</g>
<!-- Node19&#45;&gt;Node23 -->
<g id="edge41_Node000019_Node000023" class="edge">
<title>Node19&#45;&gt;Node23</title>
<g id="a_edge41_Node000019_Node000023"><a xlink:title=" ">
<path fill="none" stroke="#63b8ff" d="M1240.44,-192.37C1267.9,-181.32 1315.68,-162.08 1347.07,-149.45"/>
<polygon fill="#63b8ff" stroke="#63b8ff" points="1348.67,-152.58 1356.64,-145.6 1346.06,-146.08 1348.67,-152.58"/>
</a>
</g>
</g>
<!-- Node24 -->
<g id="Node000024" class="node">
<title>Node24</title>
<g id="a_Node000024"><a xlink:title=" ">
<polygon fill="#e0e0e0" stroke="#999999" points="1484,-145.5 1424,-145.5 1424,-126.5 1484,-126.5 1484,-145.5"/>
<text text-anchor="middle" x="1454" y="-133.5" font-family="Helvetica,sans-Serif" font-size="10.00">iostream</text>
</a>
</g>
</g>
<!-- Node19&#45;&gt;Node24 -->
<g id="edge42_Node000019_Node000024" class="edge">
<title>Node19&#45;&gt;Node24</title>
<g id="a_edge42_Node000019_Node000024"><a xlink:title=" ">
<path fill="none" stroke="#63b8ff" d="M1256.87,-192.47C1296.56,-183.26 1360.6,-167.66 1415,-151 1417.26,-150.31 1419.59,-149.56 1421.92,-148.79"/>
<polygon fill="#63b8ff" stroke="#63b8ff" points="1423.12,-152.08 1431.44,-145.51 1420.84,-145.46 1423.12,-152.08"/>
</a>
</g>
</g>
<!-- Node25 -->
<g id="Node000025" class="node">
<title>Node25</title>
<g id="a_Node000025"><a xlink:title=" ">
<polygon fill="#e0e0e0" stroke="#999999" points="1558,-145.5 1502,-145.5 1502,-126.5 1558,-126.5 1558,-145.5"/>
<text text-anchor="middle" x="1530" y="-133.5" font-family="Helvetica,sans-Serif" font-size="10.00">sstream</text>
</a>
</g>
</g>
<!-- Node19&#45;&gt;Node25 -->
<g id="edge43_Node000019_Node000025" class="edge">
<title>Node19&#45;&gt;Node25</title>
<g id="a_edge43_Node000019_Node000025"><a xlink:title=" ">
<path fill="none" stroke="#63b8ff" d="M1284.25,-192.49C1340.24,-184.39 1422.77,-170.52 1493,-151 1495.29,-150.36 1497.64,-149.64 1499.98,-148.87"/>
<polygon fill="#63b8ff" stroke="#63b8ff" points="1501.21,-152.15 1509.48,-145.52 1498.88,-145.55 1501.21,-152.15"/>
</a>
</g>
</g>
<!-- Node26 -->
<g id="Node000026" class="node">
<title>Node26</title>
<g id="a_Node000026"><a xlink:title=" ">
<polygon fill="#e0e0e0" stroke="#999999" points="1621.5,-145.5 1576.5,-145.5 1576.5,-126.5 1621.5,-126.5 1621.5,-145.5"/>
<text text-anchor="middle" x="1599" y="-133.5" font-family="Helvetica,sans-Serif" font-size="10.00">utility</text>
</a>
</g>
</g>
<!-- Node19&#45;&gt;Node26 -->
<g id="edge47_Node000019_Node000026" class="edge">
<title>Node19&#45;&gt;Node26</title>
<g id="a_edge47_Node000019_Node000026"><a xlink:title=" ">
<path fill="none" stroke="#63b8ff" d="M1290.82,-196.36C1362.03,-190.44 1473.67,-177.59 1567,-151 1568.68,-150.52 1570.4,-149.97 1572.11,-149.37"/>
<polygon fill="#63b8ff" stroke="#63b8ff" points="1573.7,-152.51 1581.71,-145.58 1571.12,-146 1573.7,-152.51"/>
</a>
</g>
</g>
<!-- Node27 -->
<g id="Node000027" class="node">
<title>Node27</title>
<g id="a_Node000027"><a xlink:href="platform_8hpp.html" target="_top" xlink:title=" ">
<polygon fill="white" stroke="#666666" points="1176,-79.5 1034,-79.5 1034,-60.5 1176,-60.5 1176,-79.5"/>
<text text-anchor="middle" x="1105" y="-67.5" font-family="Helvetica,sans-Serif" font-size="10.00">unilink/base/platform.hpp</text>
</a>
</g>
</g>
<!-- Node19&#45;&gt;Node27 -->
<g id="edge49_Node000019_Node000027" class="edge">
<title>Node19&#45;&gt;Node27</title>
<g id="a_edge49_Node000019_Node000027"><a xlink:title=" ">
<path fill="none" stroke="#63b8ff" d="M1147.46,-196.43C1082.29,-190.6 992.98,-177.85 971,-151 943.38,-117.26 1003.43,-94.33 1051.84,-81.95"/>
<polygon fill="#63b8ff" stroke="#63b8ff" points="1052.78,-85.32 1061.65,-79.54 1051.11,-78.53 1052.78,-85.32"/>
</a>
</g>
</g>
<!-- Node28 -->
<g id="Node000028" class="node">
<title>Node28</title>
<g id="a_Node000028"><a xlink:href="logger_8hpp.html" target="_top" xlink:title=" ">
<polygon fill="white" stroke="#666666" points="1088,-151 980,-151 980,-121 1088,-121 1088,-151"/>
<text text-anchor="start" x="988" y="-139" font-family="Helvetica,sans-Serif" font-size="10.00">unilink/diagnostics</text>
<text text-anchor="middle" x="1034" y="-128" font-family="Helvetica,sans-Serif" font-size="10.00">/logger.hpp</text>
</a>
</g>
</g>
<!-- Node19&#45;&gt;Node28 -->
<g id="edge52_Node000019_Node000028" class="edge">
<title>Node19&#45;&gt;Node28</title>
<g id="a_edge52_Node000019_Node000028"><a xlink:title=" ">
<path fill="none" stroke="#63b8ff" d="M1194.05,-192.37C1166.1,-182.7 1120.07,-166.77 1084.53,-154.48"/>
<polygon fill="#63b8ff" stroke="#63b8ff" points="1085.4,-151.08 1074.8,-151.12 1083.11,-157.69 1085.4,-151.08"/>
</a>
</g>
</g>
<!-- Node27&#45;&gt;Node4 -->
<g id="edge50_Node000027_Node000004" class="edge">
<title>Node27&#45;&gt;Node4</title>
<g id="a_edge50_Node000027_Node000004"><a xlink:title=" ">
<path fill="none" stroke="#63b8ff" d="M1169.13,-60.49C1264.56,-47.83 1440.51,-24.49 1513.23,-14.85"/>
<polygon fill="#63b8ff" stroke="#63b8ff" points="1514.13,-18.26 1523.59,-13.47 1513.21,-11.32 1514.13,-18.26"/>
</a>
</g>
</g>
<!-- Node27&#45;&gt;Node10 -->
<g id="edge51_Node000027_Node000010" class="edge">
<title>Node27&#45;&gt;Node10</title>
<g id="a_edge51_Node000027_Node000010"><a xlink:title=" ">
<path fill="none" stroke="#63b8ff" d="M1033.7,-62.37C1005.75,-59.88 973.38,-57.14 944,-55 676.01,-35.46 605.79,-41.41 334.35,-19.07"/>
<polygon fill="#63b8ff" stroke="#63b8ff" points="334.45,-15.57 324.19,-18.23 333.87,-22.54 334.45,-15.57"/>
</a>
</g>
</g>
<!-- Node28&#45;&gt;Node2 -->
<g id="edge55_Node000028_Node000002" class="edge">
<title>Node28&#45;&gt;Node2</title>
<g id="a_edge55_Node000028_Node000002"><a xlink:title=" ">
<path fill="none" stroke="#63b8ff" d="M979.81,-127.34C888.6,-114.46 706.28,-88.7 623.56,-77.01"/>
<polygon fill="#63b8ff" stroke="#63b8ff" points="623.9,-73.53 613.51,-75.59 622.92,-80.46 623.9,-73.53"/>
</a>
</g>
</g>
<!-- Node28&#45;&gt;Node3 -->
<g id="edge56_Node000028_Node000003" class="edge">
<title>Node28&#45;&gt;Node3</title>
<g id="a_edge56_Node000028_Node000003"><a xlink:title=" ">
<path fill="none" stroke="#63b8ff" d="M979.74,-130.92C888.62,-123.75 699.19,-107.49 540,-85 527.6,-83.25 514.14,-80.94 502,-78.71"/>
<polygon fill="#63b8ff" stroke="#63b8ff" points="502.64,-75.27 492.16,-76.86 501.35,-82.15 502.64,-75.27"/>
</a>
</g>
</g>
<!-- Node28&#45;&gt;Node4 -->
<g id="edge57_Node000028_Node000004" class="edge">
<title>Node28&#45;&gt;Node4</title>
<g id="a_edge57_Node000028_Node000004"><a xlink:title=" ">
<path fill="none" stroke="#63b8ff" d="M1088.12,-123.46C1092.81,-122.58 1097.48,-121.75 1102,-121 1229.71,-99.93 1266.82,-121.51 1391,-85 1440.63,-70.41 1494.07,-41.45 1523.44,-24.25"/>
<polygon fill="#63b8ff" stroke="#63b8ff" points="1525.28,-27.22 1532.09,-19.11 1521.71,-21.2 1525.28,-27.22"/>
</a>
</g>
</g>
<!-- Node28&#45;&gt;Node5 -->
<g id="edge58_Node000028_Node000005" class="edge">
<title>Node28&#45;&gt;Node5</title>
<g id="a_edge58_Node000028_Node000005"><a xlink:title=" ">
<path fill="none" stroke="#63b8ff" d="M1088.16,-127.56C1104.78,-125.35 1123.13,-122.99 1140,-121 1161.28,-118.48 1455.81,-87.92 1572.18,-75.85"/>
<polygon fill="#63b8ff" stroke="#63b8ff" points="1572.63,-79.32 1582.22,-74.81 1571.91,-72.36 1572.63,-79.32"/>
</a>
</g>
</g>
<!-- Node28&#45;&gt;Node6 -->
<g id="edge59_Node000028_Node000006" class="edge">
<title>Node28&#45;&gt;Node6</title>
<g id="a_edge59_Node000028_Node000006"><a xlink:title=" ">
<path fill="none" stroke="#63b8ff" d="M1088.33,-124.01C1126.71,-115.02 1173.32,-101.17 1185,-85 1192.81,-74.19 1194.17,-64.68 1185,-55 1178.13,-47.75 554.21,-19.03 400.11,-12.04"/>
<polygon fill="#63b8ff" stroke="#63b8ff" points="399.99,-8.53 389.85,-11.57 399.68,-15.52 399.99,-8.53"/>
</a>
</g>
</g>
<!-- Node28&#45;&gt;Node10 -->
<g id="edge68_Node000028_Node000010" class="edge">
<title>Node28&#45;&gt;Node10</title>
<g id="a_edge68_Node000028_Node000010"><a xlink:title=" ">
<path fill="none" stroke="#63b8ff" d="M1018.32,-120.89C996.22,-101.98 953.81,-69.16 911,-55 791.8,-15.57 477.1,-29.17 334.57,-19.03"/>
<polygon fill="#63b8ff" stroke="#63b8ff" points="334.44,-15.51 324.2,-18.22 333.89,-22.48 334.44,-15.51"/>
</a>
</g>
</g>
<!-- Node28&#45;&gt;Node20 -->
<g id="edge54_Node000028_Node000020" class="edge">
<title>Node28&#45;&gt;Node20</title>
<g id="a_edge54_Node000028_Node000020"><a xlink:title=" ">
<path fill="none" stroke="#63b8ff" d="M1088.13,-123.53C1092.82,-122.64 1097.49,-121.78 1102,-121 1215.21,-101.41 1255.26,-136.44 1358,-85 1384.65,-71.65 1407.44,-44.97 1420.44,-27.42"/>
<polygon fill="#63b8ff" stroke="#63b8ff" points="1423.34,-29.37 1426.31,-19.2 1417.65,-25.31 1423.34,-29.37"/>
</a>
</g>
</g>
<!-- Node29 -->
<g id="Node000029" class="node">
<title>Node29</title>
<g id="a_Node000029"><a xlink:title=" ">
<polygon fill="#e0e0e0" stroke="#999999" points="1377,-19 1327,-19 1327,0 1377,0 1377,-19"/>
<text text-anchor="middle" x="1352" y="-7" font-family="Helvetica,sans-Serif" font-size="10.00">atomic</text>
</a>
</g>
</g>
<!-- Node28&#45;&gt;Node29 -->
<g id="edge53_Node000028_Node000029" class="edge">
<title>Node28&#45;&gt;Node29</title>
<g id="a_edge53_Node000028_Node000029"><a xlink:title=" ">
<path fill="none" stroke="#63b8ff" d="M1088.14,-123.59C1092.82,-122.69 1097.49,-121.81 1102,-121 1154,-111.67 1298.78,-121.48 1337,-85 1351.81,-70.86 1354.18,-46.49 1353.74,-29.48"/>
<polygon fill="#63b8ff" stroke="#63b8ff" points="1357.21,-28.87 1353.12,-19.1 1350.23,-29.3 1357.21,-28.87"/>
</a>
</g>
</g>
<!-- Node30 -->
<g id="Node000030" class="node">
<title>Node30</title>
<g id="a_Node000030"><a xlink:href="log__rotation_8hpp.html" target="_top" xlink:title=" ">
<polygon fill="white" stroke="#666666" points="1328,-79.5 1232,-79.5 1232,-60.5 1328,-60.5 1328,-79.5"/>
<text text-anchor="middle" x="1280" y="-67.5" font-family="Helvetica,sans-Serif" font-size="10.00">log_rotation.hpp</text>
</a>
</g>
</g>
<!-- Node28&#45;&gt;Node30 -->
<g id="edge60_Node000028_Node000030" class="edge">
<title>Node28&#45;&gt;Node30</title>
<g id="a_edge60_Node000028_Node000030"><a xlink:title=" ">
<path fill="none" stroke="#63b8ff" d="M1087.99,-120.95C1132.93,-109.26 1196.06,-92.84 1237.48,-82.06"/>
<polygon fill="#63b8ff" stroke="#63b8ff" points="1238.47,-85.42 1247.26,-79.52 1236.7,-78.65 1238.47,-85.42"/>
</a>
</g>
</g>
<!-- Node30&#45;&gt;Node4 -->
<g id="edge65_Node000030_Node000004" class="edge">
<title>Node30&#45;&gt;Node4</title>
<g id="a_edge65_Node000030_Node000004"><a xlink:title=" ">
<path fill="none" stroke="#63b8ff" d="M1318.68,-60.49C1371.3,-48.92 1464.51,-28.42 1513.63,-17.62"/>
<polygon fill="#63b8ff" stroke="#63b8ff" points="1514.69,-20.97 1523.7,-15.4 1513.18,-14.13 1514.69,-20.97"/>
</a>
</g>
</g>
<!-- Node30&#45;&gt;Node6 -->
<g id="edge66_Node000030_Node000006" class="edge">
<title>Node30&#45;&gt;Node6</title>
<g id="a_edge66_Node000030_Node000006"><a xlink:title=" ">
<path fill="none" stroke="#63b8ff" d="M1247.05,-60.47C1237.72,-58.35 1227.51,-56.31 1218,-55 1136.05,-43.69 548.26,-18.23 399.93,-11.93"/>
<polygon fill="#63b8ff" stroke="#63b8ff" points="399.77,-8.42 389.63,-11.49 399.47,-15.41 399.77,-8.42"/>
</a>
</g>
</g>
<!-- Node30&#45;&gt;Node10 -->
<g id="edge67_Node000030_Node000010" class="edge">
<title>Node30&#45;&gt;Node10</title>
<g id="a_edge67_Node000030_Node000010"><a xlink:title=" ">
<path fill="none" stroke="#63b8ff" d="M1231.79,-60.9C1216.83,-58.66 1200.27,-56.44 1185,-55 810.99,-19.64 712.67,-46.8 334.32,-19.04"/>
<polygon fill="#63b8ff" stroke="#63b8ff" points="334.42,-15.54 324.19,-18.29 333.9,-22.52 334.42,-15.54"/>
</a>
</g>
</g>
<!-- Node30&#45;&gt;Node20 -->
<g id="edge62_Node000030_Node000020" class="edge">
<title>Node30&#45;&gt;Node20</title>
<g id="a_edge62_Node000030_Node000020"><a xlink:title=" ">
<path fill="none" stroke="#63b8ff" d="M1302.1,-60.49C1327.99,-50.53 1371.08,-33.95 1400.47,-22.63"/>
<polygon fill="#63b8ff" stroke="#63b8ff" points="1401.8,-25.88 1409.87,-19.02 1399.28,-19.34 1401.8,-25.88"/>
</a>
</g>
</g>
<!-- Node30&#45;&gt;Node29 -->
<g id="edge61_Node000030_Node000029" class="edge">
<title>Node30&#45;&gt;Node29</title>
<g id="a_edge61_Node000030_Node000029"><a xlink:title=" ">
<path fill="none" stroke="#63b8ff" d="M1290.62,-60.37C1301.9,-51.21 1319.92,-36.56 1333.53,-25.51"/>
<polygon fill="#63b8ff" stroke="#63b8ff" points="1335.78,-28.19 1341.33,-19.17 1331.36,-22.76 1335.78,-28.19"/>
</a>
</g>
</g>
<!-- Node31 -->
<g id="Node000031" class="node">
<title>Node31</title>
<g id="a_Node000031"><a xlink:title=" ">
<polygon fill="#e0e0e0" stroke="#999999" points="1240,-19 1172,-19 1172,0 1240,0 1240,-19"/>
<text text-anchor="middle" x="1206" y="-7" font-family="Helvetica,sans-Serif" font-size="10.00">filesystem</text>
</a>
</g>
</g>
<!-- Node30&#45;&gt;Node31 -->
<g id="edge63_Node000030_Node000031" class="edge">
<title>Node30&#45;&gt;Node31</title>
<g id="a_edge63_Node000030_Node000031"><a xlink:title=" ">
<path fill="none" stroke="#63b8ff" d="M1269.08,-60.37C1257.49,-51.21 1238.97,-36.56 1224.98,-25.51"/>
<polygon fill="#63b8ff" stroke="#63b8ff" points="1226.98,-22.62 1216.96,-19.17 1222.64,-28.11 1226.98,-22.62"/>
</a>
</g>
</g>
<!-- Node32 -->
<g id="Node000032" class="node">
<title>Node32</title>
<g id="a_Node000032"><a xlink:title=" ">
<polygon fill="#e0e0e0" stroke="#999999" points="1306,-19 1258,-19 1258,0 1306,0 1306,-19"/>
<text text-anchor="middle" x="1282" y="-7" font-family="Helvetica,sans-Serif" font-size="10.00">mutex</text>
</a>
</g>
</g>
<!-- Node30&#45;&gt;Node32 -->
<g id="edge64_Node000030_Node000032" class="edge">
<title>Node30&#45;&gt;Node32</title>
<g id="a_edge64_Node000030_Node000032"><a xlink:title=" ">
<path fill="none" stroke="#63b8ff" d="M1280.3,-60.37C1280.57,-52.25 1281,-39.81 1281.35,-29.39"/>
<polygon fill="#63b8ff" stroke="#63b8ff" points="1284.86,-29.28 1281.7,-19.17 1277.86,-29.04 1284.86,-29.28"/>
</a>
</g>
</g>
<!-- Node33&#45;&gt;Node4 -->
<g id="edge70_Node000033_Node000004" class="edge">
<title>Node33&#45;&gt;Node4</title>
<g id="a_edge70_Node000033_Node000004"><a xlink:title=" ">
<path fill="none" stroke="#63b8ff" d="M1784.06,-186.92C1796,-178.21 1809.42,-165.87 1816,-151 1833.26,-111.98 1843.61,-87.53 1816,-55 1785.86,-19.49 1643.49,-12.27 1578.49,-10.84"/>
<polygon fill="#63b8ff" stroke="#63b8ff" points="1578.46,-7.33 1568.39,-10.65 1578.32,-14.33 1578.46,-7.33"/>
</a>
</g>
</g>
<!-- Node34&#45;&gt;Node2 -->
<g id="edge73_Node000034_Node000002" class="edge">
<title>Node34&#45;&gt;Node2</title>
<g id="a_edge73_Node000034_Node000002"><a xlink:title=" ">
<path fill="none" stroke="#63b8ff" d="M713.69,-120.95C683.62,-109.63 641.76,-93.88 613.15,-83.1"/>
<polygon fill="#63b8ff" stroke="#63b8ff" points="614.22,-79.77 603.62,-79.52 611.75,-86.32 614.22,-79.77"/>
</a>
</g>
</g>
<!-- Node34&#45;&gt;Node3 -->
<g id="edge74_Node000034_Node000003" class="edge">
<title>Node34&#45;&gt;Node3</title>
<g id="a_edge74_Node000034_Node000003"><a xlink:title=" ">
<path fill="none" stroke="#63b8ff" d="M691.68,-121.82C634.95,-109.21 551.03,-90.56 502.2,-79.71"/>
<polygon fill="#63b8ff" stroke="#63b8ff" points="502.85,-76.27 492.33,-77.52 501.33,-83.1 502.85,-76.27"/>
</a>
</g>
</g>
<!-- Node34&#45;&gt;Node4 -->
<g id="edge76_Node000034_Node000004" class="edge">
<title>Node34&#45;&gt;Node4</title>
<g id="a_edge76_Node000034_Node000004"><a xlink:title=" ">
<path fill="none" stroke="#63b8ff" d="M810.25,-131.01C948.95,-121.5 1286.79,-97.42 1337,-85 1370.25,-76.78 1375.89,-66.93 1408,-55 1443.94,-41.64 1485.96,-28.43 1514.1,-19.92"/>
<polygon fill="#63b8ff" stroke="#63b8ff" points="1515.24,-23.23 1523.81,-17 1513.22,-16.53 1515.24,-23.23"/>
</a>
</g>
</g>
<!-- Node34&#45;&gt;Node5 -->
<g id="edge77_Node000034_Node000005" class="edge">
<title>Node34&#45;&gt;Node5</title>
<g id="a_edge77_Node000034_Node000005"><a xlink:title=" ">
<path fill="none" stroke="#63b8ff" d="M810.32,-130.63C973.28,-118.61 1425.43,-85.27 1572.28,-74.44"/>
<polygon fill="#63b8ff" stroke="#63b8ff" points="1572.6,-77.93 1582.32,-73.7 1572.09,-70.95 1572.6,-77.93"/>
</a>
</g>
</g>
<!-- Node34&#45;&gt;Node6 -->
<g id="edge79_Node000034_Node000006" class="edge">
<title>Node34&#45;&gt;Node6</title>
<g id="a_edge79_Node000034_Node000006"><a xlink:title=" ">
<path fill="none" stroke="#63b8ff" d="M734.6,-120.79C708.65,-98.36 660.56,-57.07 656,-55 569.72,-15.84 455.72,-10.09 399.83,-9.88"/>
<polygon fill="#63b8ff" stroke="#63b8ff" points="399.76,-6.38 389.77,-9.9 399.78,-13.38 399.76,-6.38"/>
</a>
</g>
</g>
<!-- Node34&#45;&gt;Node9 -->
<g id="edge72_Node000034_Node000009" class="edge">
<title>Node34&#45;&gt;Node9</title>
<g id="a_edge72_Node000034_Node000009"><a xlink:title=" ">
<path fill="none" stroke="#63b8ff" d="M743.89,-120.88C734.52,-103.44 716.53,-73.78 694,-55 676.37,-40.3 653.07,-29.29 633.96,-21.9"/>
<polygon fill="#63b8ff" stroke="#63b8ff" points="635,-18.55 624.4,-18.36 632.57,-25.11 635,-18.55"/>
</a>
</g>
</g>
<!-- Node34&#45;&gt;Node10 -->
<g id="edge80_Node000034_Node000010" class="edge">
<title>Node34&#45;&gt;Node10</title>
<g id="a_edge80_Node000034_Node000010"><a xlink:title=" ">
<path fill="none" stroke="#63b8ff" d="M719.47,-120.9C700.4,-111.77 676,-99.01 656,-85 639.77,-73.63 641.03,-63.24 623,-55 616.48,-52.02 441.09,-31.72 334.5,-19.59"/>
<polygon fill="#63b8ff" stroke="#63b8ff" points="334.73,-16.1 324.4,-18.45 333.94,-23.05 334.73,-16.1"/>
</a>
</g>
</g>
<!-- Node34&#45;&gt;Node12 -->
<g id="edge81_Node000034_Node000012" class="edge">
<title>Node34&#45;&gt;Node12</title>
<g id="a_edge81_Node000034_Node000012"><a xlink:title=" ">
<path fill="none" stroke="#63b8ff" d="M771.42,-120.8C784.04,-112.01 800.44,-100.61 814.35,-90.93"/>
<polygon fill="#63b8ff" stroke="#63b8ff" points="816.43,-93.75 822.64,-85.16 812.43,-88 816.43,-93.75"/>
</a>
</g>
</g>
<!-- Node34&#45;&gt;Node13 -->
<g id="edge75_Node000034_Node000013" class="edge">
<title>Node34&#45;&gt;Node13</title>
<g id="a_edge75_Node000034_Node000013"><a xlink:title=" ">
<path fill="none" stroke="#63b8ff" d="M810.01,-125.59C842.03,-118.36 881.07,-105.93 911,-85 932.2,-70.18 949.03,-45.07 958.76,-28.15"/>
<polygon fill="#63b8ff" stroke="#63b8ff" points="961.89,-29.71 963.64,-19.27 955.76,-26.34 961.89,-29.71"/>
</a>
</g>
</g>
<!-- Node34&#45;&gt;Node14 -->
<g id="edge78_Node000034_Node000014" class="edge">
<title>Node34&#45;&gt;Node14</title>
<g id="a_edge78_Node000034_Node000014"><a xlink:title=" ">
<path fill="none" stroke="#63b8ff" d="M754.32,-120.83C758.34,-104.6 765.73,-77.37 775,-55 778.82,-45.78 783.99,-35.96 788.55,-27.91"/>
<polygon fill="#63b8ff" stroke="#63b8ff" points="791.66,-29.51 793.68,-19.11 785.62,-25.98 791.66,-29.51"/>
</a>
</g>
</g>
</g>
</svg>
