<?xml version="1.0" encoding="UTF-8" standalone="no"?>
<!DOCTYPE svg PUBLIC "-//W3C//DTD SVG 1.1//EN"
 "http://www.w3.org/Graphics/SVG/1.1/DTD/svg11.dtd">
<!-- Generated by graphviz version 2.43.0 (0)
 -->
<!-- Title: unilink/wrapper/ichannel.hpp Pages: 1 -->
<!--zoomable 335 -->

<svg id="main" version="1.1" xmlns="http://www.w3.org/2000/svg" xmlns:xlink="http://www.w3.org/1999/xlink" xml:space="preserve" onload="init(evt)">
<style type="text/css"><![CDATA[
.node, .edge {opacity: 0.7;}
.node.selected, .edge.selected {opacity: 1;}
.edge:hover path { stroke: red; }
.edge:hover polygon { stroke: red; fill: red; }
]]></style>

<defs>
  <circle id="rim" cx="0" cy="0" r="7"/>
  <circle id="rim2" cx="0" cy="0" r="3.5"/>
  <g id="zoomPlus">
    <use xlink:href="#rim" fill="#404040"><set attributeName="fill" to="#808080" begin="zoomplus.mouseover" end="zoomplus.mouseout"/></use>
    <path d="M-4,0h8M0,-4v8" fill="none" stroke="white" stroke-width="1.5" pointer-events="none"/>
  </g>
  <g id="zoomMin">
    <use xlink:href="#rim" fill="#404040"><set attributeName="fill" to="#808080" begin="zoomminus.mouseover" end="zoomminus.mouseout"/></use>
    <path d="M-4,0h8" fill="none" stroke="white" stroke-width="1.5" pointer-events="none"/>
  </g>
  <g id="arrowUp" transform="translate(30 24)">
    <use xlink:href="#rim"/>
    <path pointer-events="none" fill="none" stroke="white" stroke-width="1.5" d="M0,-3.0v7 M-2.5,-0.5L0,-3.0L2.5,-0.5"/>
  </g>
  <g id="arrowRight" transform="rotate(90) translate(36 -43)">
    <use xlink:href="#rim"/>
    <path pointer-events="none" fill="none" stroke="white" stroke-width="1.5" d="M0,-3.0v7 M-2.5,-0.5L0,-3.0L2.5,-0.5"/>
  </g>
  <g id="arrowDown" transform="rotate(180) translate(-30 -48)">
    <use xlink:href="#rim"/>
    <path pointer-events="none" fill="none" stroke="white" stroke-width="1.5" d="M0,-3.0v7 M-2.5,-0.5L0,-3.0L2.5,-0.5"/>
  </g>
  <g id="arrowLeft" transform="rotate(270) translate(-36 17)">
    <use xlink:href="#rim"/>
    <path pointer-events="none" fill="none" stroke="white" stroke-width="1.5" d="M0,-3.0v7 M-2.5,-0.5L0,-3.0L2.5,-0.5"/>
  </g>
  <g id="resetDef">
    <use xlink:href="#rim2" fill="#404040"><set attributeName="fill" to="#808080" begin="reset.mouseover" end="reset.mouseout"/></use>
  </g>
</defs>
<script type="application/ecmascript">
var viewWidth = 1649;
var viewHeight = 335;
var sectionId = 'dynsection-0';
</script>
<script type="application/ecmascript" xlink:href="svg.min.js"/>
<svg id="graph" class="graph">
<g id="viewport">
<title>unilink/wrapper/ichannel.hpp</title>
<!-- Node1 -->
<g id="Node000001" class="node">
<title>Node1</title>
<g id="a_Node000001"><a xlink:title=" ">
<polygon fill="#999999" stroke="#666666" points="530,-327 372,-327 372,-308 530,-308 530,-327"/>
<text text-anchor="middle" x="451" y="-315" font-family="Helvetica,sans-Serif" font-size="10.00">unilink/wrapper/ichannel.hpp</text>
</a>
</g>
</g>
<!-- Node2 -->
<g id="Node000002" class="node">
<title>Node2</title>
<g id="a_Node000002"><a xlink:title=" ">
<polygon fill="#e0e0e0" stroke="#999999" points="599.5,-79.5 534.5,-79.5 534.5,-60.5 599.5,-60.5 599.5,-79.5"/>
<text text-anchor="middle" x="567" y="-67.5" font-family="Helvetica,sans-Serif" font-size="10.00">functional</text>
</a>
</g>
</g>
<!-- Node1&#45;&gt;Node2 -->
<g id="edge1_Node000001_Node000002" class="edge">
<title>Node1&#45;&gt;Node2</title>
<g id="a_edge1_Node000001_Node000002"><a xlink:title=" ">
<path fill="none" stroke="#63b8ff" d="M449.47,-307.74C444.82,-278.36 433.64,-181.78 475,-121 482.69,-109.71 513.06,-94.44 536.83,-83.76"/>
<polygon fill="#63b8ff" stroke="#63b8ff" points="538.46,-86.86 546.2,-79.63 535.64,-80.46 538.46,-86.86"/>
</a>
</g>
</g>
<!-- Node3 -->
<g id="Node000003" class="node">
<title>Node3</title>
<g id="a_Node000003"><a xlink:title=" ">
<polygon fill="#e0e0e0" stroke="#999999" points="98,-272 52,-272 52,-253 98,-253 98,-272"/>
<text text-anchor="middle" x="75" y="-260" font-family="Helvetica,sans-Serif" font-size="10.00">future</text>
</a>
</g>
</g>
<!-- Node1&#45;&gt;Node3 -->
<g id="edge2_Node000001_Node000003" class="edge">
<title>Node1&#45;&gt;Node3</title>
<g id="a_edge2_Node000001_Node000003"><a xlink:title=" ">
<path fill="none" stroke="#63b8ff" d="M371.9,-308.28C302.98,-300.6 200.51,-287.94 112,-272 110.72,-271.77 109.42,-271.53 108.11,-271.27"/>
<polygon fill="#63b8ff" stroke="#63b8ff" points="108.53,-267.78 98.02,-269.15 107.09,-274.63 108.53,-267.78"/>
</a>
</g>
</g>
<!-- Node4 -->
<g id="Node000004" class="node">
<title>Node4</title>
<g id="a_Node000004"><a xlink:title=" ">
<polygon fill="#e0e0e0" stroke="#999999" points="194,-79.5 136,-79.5 136,-60.5 194,-60.5 194,-79.5"/>
<text text-anchor="middle" x="165" y="-67.5" font-family="Helvetica,sans-Serif" font-size="10.00">memory</text>
</a>
</g>
</g>
<!-- Node1&#45;&gt;Node4 -->
<g id="edge3_Node000001_Node000004" class="edge">
<title>Node1&#45;&gt;Node4</title>
<g id="a_edge3_Node000001_Node000004"><a xlink:title=" ">
<path fill="none" stroke="#63b8ff" d="M371.54,-313.44C259.03,-308.28 64.5,-295.97 43,-272 -12.18,-210.48 96.22,-120.55 143.98,-85.63"/>
<polygon fill="#63b8ff" stroke="#63b8ff" points="146.31,-88.26 152.4,-79.58 142.23,-82.57 146.31,-88.26"/>
</a>
</g>
</g>
<!-- Node5 -->
<g id="Node000005" class="node">
<title>Node5</title>
<g id="a_Node000005"><a xlink:title=" ">
<polygon fill="#e0e0e0" stroke="#999999" points="1002,-79.5 958,-79.5 958,-60.5 1002,-60.5 1002,-79.5"/>
<text text-anchor="middle" x="980" y="-67.5" font-family="Helvetica,sans-Serif" font-size="10.00">string</text>
</a>
</g>
</g>
<!-- Node1&#45;&gt;Node5 -->
<g id="edge4_Node000001_Node000005" class="edge">
<title>Node1&#45;&gt;Node5</title>
<g id="a_edge4_Node000001_Node000005"><a xlink:title=" ">
<path fill="none" stroke="#63b8ff" d="M530.2,-311.46C783.41,-294.53 1560.95,-235.97 1632,-151 1714.22,-52.67 1186.27,-100.23 1059,-85 1043.42,-83.14 1026.25,-80.2 1011.91,-77.5"/>
<polygon fill="#63b8ff" stroke="#63b8ff" points="1012.52,-74.05 1002.03,-75.59 1011.19,-80.92 1012.52,-74.05"/>
</a>
</g>
</g>
<!-- Node6 -->
<g id="Node000006" class="node">
<title>Node6</title>
<g id="a_Node000006"><a xlink:title=" ">
<polygon fill="#e0e0e0" stroke="#999999" points="755.5,-79.5 682.5,-79.5 682.5,-60.5 755.5,-60.5 755.5,-79.5"/>
<text text-anchor="middle" x="719" y="-67.5" font-family="Helvetica,sans-Serif" font-size="10.00">string_view</text>
</a>
</g>
</g>
<!-- Node1&#45;&gt;Node6 -->
<g id="edge5_Node000001_Node000006" class="edge">
<title>Node1&#45;&gt;Node6</title>
<g id="a_edge5_Node000001_Node000006"><a xlink:title=" ">
<path fill="none" stroke="#63b8ff" d="M460.54,-307.76C500.02,-271.59 650.97,-133.32 702.02,-86.56"/>
<polygon fill="#63b8ff" stroke="#63b8ff" points="704.57,-88.97 709.58,-79.63 699.84,-83.81 704.57,-88.97"/>
</a>
</g>
</g>
<!-- Node7 -->
<g id="Node000007" class="node">
<title>Node7</title>
<g id="a_Node000007"><a xlink:title=" ">
<polygon fill="#e0e0e0" stroke="#999999" points="664.5,-79.5 617.5,-79.5 617.5,-60.5 664.5,-60.5 664.5,-79.5"/>
<text text-anchor="middle" x="641" y="-67.5" font-family="Helvetica,sans-Serif" font-size="10.00">vector</text>
</a>
</g>
</g>
<!-- Node1&#45;&gt;Node7 -->
<g id="edge6_Node000001_Node000007" class="edge">
<title>Node1&#45;&gt;Node7</title>
<g id="a_edge6_Node000001_Node000007"><a xlink:title=" ">
<path fill="none" stroke="#63b8ff" d="M452.73,-307.67C459.63,-273.37 486.03,-149.4 513,-121 544.38,-87.96 566.78,-102.14 609,-85 610.17,-84.53 611.36,-84.04 612.56,-83.54"/>
<polygon fill="#63b8ff" stroke="#63b8ff" points="613.95,-86.75 621.78,-79.61 611.21,-80.31 613.95,-86.75"/>
</a>
</g>
</g>
<!-- Node8 -->
<g id="Node000008" class="node">
<title>Node8</title>
<g id="a_Node000008"><a xlink:href="visibility_8hpp.html" target="_top" xlink:title=" ">
<polygon fill="white" stroke="#666666" points="516,-79.5 376,-79.5 376,-60.5 516,-60.5 516,-79.5"/>
<text text-anchor="middle" x="446" y="-67.5" font-family="Helvetica,sans-Serif" font-size="10.00">unilink/base/visibility.hpp</text>
</a>
</g>
</g>
<!-- Node1&#45;&gt;Node8 -->
<g id="edge7_Node000001_Node000008" class="edge">
<title>Node1&#45;&gt;Node8</title>
<g id="a_edge7_Node000001_Node000008"><a xlink:title=" ">
<path fill="none" stroke="#63b8ff" d="M405.82,-307.97C299,-285.94 46.09,-221.67 132,-121 139.67,-112.01 277.71,-92.66 368.19,-80.84"/>
<polygon fill="#63b8ff" stroke="#63b8ff" points="368.69,-84.3 378.15,-79.54 367.79,-77.36 368.69,-84.3"/>
</a>
</g>
</g>
<!-- Node9 -->
<g id="Node000009" class="node">
<title>Node9</title>
<g id="a_Node000009"><a xlink:href="iframer_8hpp.html" target="_top" xlink:title=" ">
<polygon fill="white" stroke="#666666" points="286.5,-145.5 141.5,-145.5 141.5,-126.5 286.5,-126.5 286.5,-145.5"/>
<text text-anchor="middle" x="214" y="-133.5" font-family="Helvetica,sans-Serif" font-size="10.00">unilink/framer/iframer.hpp</text>
</a>
</g>
</g>
<!-- Node1&#45;&gt;Node9 -->
<g id="edge8_Node000001_Node000009" class="edge">
<title>Node1&#45;&gt;Node9</title>
<g id="a_edge8_Node000001_Node000009"><a xlink:title=" ">
<path fill="none" stroke="#63b8ff" d="M439.57,-307.84C401.87,-279.29 281.17,-187.87 233.57,-151.82"/>
<polygon fill="#63b8ff" stroke="#63b8ff" points="235.4,-148.82 225.32,-145.57 231.17,-154.4 235.4,-148.82"/>
</a>
</g>
</g>
<!-- Node14 -->
<g id="Node000014" class="node">
<title>Node14</title>
<g id="a_Node000014"><a xlink:href="context_8hpp.html" target="_top" xlink:title=" ">
<polygon fill="white" stroke="#666666" points="755.5,-272 602.5,-272 602.5,-253 755.5,-253 755.5,-272"/>
<text text-anchor="middle" x="679" y="-260" font-family="Helvetica,sans-Serif" font-size="10.00">unilink/wrapper/context.hpp</text>
</a>
</g>
</g>
<!-- Node1&#45;&gt;Node14 -->
<g id="edge17_Node000001_Node000014" class="edge">
<title>Node1&#45;&gt;Node14</title>
<g id="a_edge17_Node000001_Node000014"><a xlink:title=" ">
<path fill="none" stroke="#63b8ff" d="M487.63,-307.98C526.91,-298.86 589.37,-284.33 632.19,-274.38"/>
<polygon fill="#63b8ff" stroke="#63b8ff" points="633.13,-277.76 642.08,-272.08 631.55,-270.94 633.13,-277.76"/>
</a>
</g>
</g>
<!-- Node9&#45;&gt;Node2 -->
<g id="edge9_Node000009_Node000002" class="edge">
<title>Node9&#45;&gt;Node2</title>
<g id="a_edge9_Node000009_Node000002"><a xlink:title=" ">
<path fill="none" stroke="#63b8ff" d="M263.41,-126.46C274.15,-124.63 285.45,-122.73 296,-121 397.67,-104.33 424.9,-109.37 525,-85 527.97,-84.28 531.02,-83.44 534.07,-82.55"/>
<polygon fill="#63b8ff" stroke="#63b8ff" points="535.16,-85.87 543.65,-79.54 533.06,-79.19 535.16,-85.87"/>
</a>
</g>
</g>
<!-- Node9&#45;&gt;Node4 -->
<g id="edge10_Node000009_Node000004" class="edge">
<title>Node9&#45;&gt;Node4</title>
<g id="a_edge10_Node000009_Node000004"><a xlink:title=" ">
<path fill="none" stroke="#63b8ff" d="M207.39,-126.37C199.91,-116.59 187.53,-100.42 178.07,-88.08"/>
<polygon fill="#63b8ff" stroke="#63b8ff" points="180.68,-85.72 171.82,-79.91 175.12,-89.97 180.68,-85.72"/>
</a>
</g>
</g>
<!-- Node9&#45;&gt;Node7 -->
<g id="edge11_Node000009_Node000007" class="edge">
<title>Node9&#45;&gt;Node7</title>
<g id="a_edge11_Node000009_Node000007"><a xlink:title=" ">
<path fill="none" stroke="#63b8ff" d="M261.19,-126.49C272.57,-124.56 284.71,-122.61 296,-121 434.62,-101.21 473.8,-121.47 609,-85 610.89,-84.49 612.81,-83.89 614.72,-83.22"/>
<polygon fill="#63b8ff" stroke="#63b8ff" points="616.06,-86.46 624.07,-79.52 613.48,-79.95 616.06,-86.46"/>
</a>
</g>
</g>
<!-- Node9&#45;&gt;Node8 -->
<g id="edge12_Node000009_Node000008" class="edge">
<title>Node9&#45;&gt;Node8</title>
<g id="a_edge12_Node000009_Node000008"><a xlink:title=" ">
<path fill="none" stroke="#63b8ff" d="M245.29,-126.37C286.57,-114.98 359.32,-94.91 404.97,-82.32"/>
<polygon fill="#63b8ff" stroke="#63b8ff" points="406.13,-85.63 414.84,-79.6 404.27,-78.88 406.13,-85.63"/>
</a>
</g>
</g>
<!-- Node10 -->
<g id="Node000010" class="node">
<title>Node10</title>
<g id="a_Node000010"><a xlink:href="safe__span_8hpp.html" target="_top" xlink:title=" ">
<polygon fill="white" stroke="#666666" points="118,-85 0,-85 0,-55 118,-55 118,-85"/>
<text text-anchor="start" x="8" y="-73" font-family="Helvetica,sans-Serif" font-size="10.00">unilink/memory/safe</text>
<text text-anchor="middle" x="59" y="-62" font-family="Helvetica,sans-Serif" font-size="10.00">_span.hpp</text>
</a>
</g>
</g>
<!-- Node9&#45;&gt;Node10 -->
<g id="edge13_Node000009_Node000010" class="edge">
<title>Node9&#45;&gt;Node10</title>
<g id="a_edge13_Node000009_Node000010"><a xlink:title=" ">
<path fill="none" stroke="#63b8ff" d="M193.1,-126.37C169.98,-116.82 132.1,-101.18 102.48,-88.95"/>
<polygon fill="#63b8ff" stroke="#63b8ff" points="103.77,-85.7 93.19,-85.12 101.09,-92.17 103.77,-85.7"/>
</a>
</g>
</g>
<!-- Node11 -->
<g id="Node000011" class="node">
<title>Node11</title>
<g id="a_Node000011"><a xlink:title=" ">
<polygon fill="#e0e0e0" stroke="#999999" points="247,-19 197,-19 197,0 247,0 247,-19"/>
<text text-anchor="middle" x="222" y="-7" font-family="Helvetica,sans-Serif" font-size="10.00">cstdint</text>
</a>
</g>
</g>
<!-- Node10&#45;&gt;Node11 -->
<g id="edge14_Node000010_Node000011" class="edge">
<title>Node10&#45;&gt;Node11</title>
<g id="a_edge14_Node000010_Node000011"><a xlink:title=" ">
<path fill="none" stroke="#63b8ff" d="M98.04,-54.99C125.6,-45.1 162.15,-31.98 188.41,-22.56"/>
<polygon fill="#63b8ff" stroke="#63b8ff" points="189.7,-25.81 197.93,-19.14 187.33,-19.22 189.7,-25.81"/>
</a>
</g>
</g>
<!-- Node12 -->
<g id="Node000012" class="node">
<title>Node12</title>
<g id="a_Node000012"><a xlink:title=" ">
<polygon fill="#e0e0e0" stroke="#999999" points="79,-19 39,-19 39,0 79,0 79,-19"/>
<text text-anchor="middle" x="59" y="-7" font-family="Helvetica,sans-Serif" font-size="10.00">span</text>
</a>
</g>
</g>
<!-- Node10&#45;&gt;Node12 -->
<g id="edge15_Node000010_Node000012" class="edge">
<title>Node10&#45;&gt;Node12</title>
<g id="a_edge15_Node000010_Node000012"><a xlink:title=" ">
<path fill="none" stroke="#63b8ff" d="M59,-54.84C59,-47.21 59,-37.7 59,-29.45"/>
<polygon fill="#63b8ff" stroke="#63b8ff" points="62.5,-29.27 59,-19.27 55.5,-29.27 62.5,-29.27"/>
</a>
</g>
</g>
<!-- Node13 -->
<g id="Node000013" class="node">
<title>Node13</title>
<g id="a_Node000013"><a xlink:title=" ">
<polygon fill="#e0e0e0" stroke="#999999" points="380.5,-19 315.5,-19 315.5,0 380.5,0 380.5,-19"/>
<text text-anchor="middle" x="348" y="-7" font-family="Helvetica,sans-Serif" font-size="10.00">stdexcept</text>
</a>
</g>
</g>
<!-- Node10&#45;&gt;Node13 -->
<g id="edge16_Node000010_Node000013" class="edge">
<title>Node10&#45;&gt;Node13</title>
<g id="a_edge16_Node000010_Node000013"><a xlink:title=" ">
<path fill="none" stroke="#63b8ff" d="M118.34,-56.77C121.26,-56.17 124.17,-55.58 127,-55 189.09,-42.36 261.03,-27.91 305.53,-18.99"/>
<polygon fill="#63b8ff" stroke="#63b8ff" points="306.3,-22.41 315.41,-17.02 304.92,-15.55 306.3,-22.41"/>
</a>
</g>
</g>
<!-- Node14&#45;&gt;Node5 -->
<g id="edge19_Node000014_Node000005" class="edge">
<title>Node14&#45;&gt;Node5</title>
<g id="a_edge19_Node000014_Node000005"><a xlink:title=" ">
<path fill="none" stroke="#63b8ff" d="M694.59,-252.96C726.7,-235.19 802.2,-192.42 862,-151 879.69,-138.75 882.41,-133.39 900,-121 918.47,-107.99 940.26,-94.49 956.43,-84.8"/>
<polygon fill="#63b8ff" stroke="#63b8ff" points="958.43,-87.68 965.24,-79.56 954.85,-81.67 958.43,-87.68"/>
</a>
</g>
</g>
<!-- Node14&#45;&gt;Node6 -->
<g id="edge20_Node000014_Node000006" class="edge">
<title>Node14&#45;&gt;Node6</title>
<g id="a_edge20_Node000014_Node000006"><a xlink:title=" ">
<path fill="none" stroke="#63b8ff" d="M680.82,-252.82C686.91,-223.81 706.65,-129.8 715.1,-89.56"/>
<polygon fill="#63b8ff" stroke="#63b8ff" points="718.54,-90.24 717.17,-79.73 711.69,-88.8 718.54,-90.24"/>
</a>
</g>
</g>
<!-- Node14&#45;&gt;Node7 -->
<g id="edge21_Node000014_Node000007" class="edge">
<title>Node14&#45;&gt;Node7</title>
<g id="a_edge21_Node000014_Node000007"><a xlink:title=" ">
<path fill="none" stroke="#63b8ff" d="M675.84,-252.74C672.72,-243.84 668,-229.61 665,-217 654.22,-171.76 646.68,-117.48 643.2,-89.58"/>
<polygon fill="#63b8ff" stroke="#63b8ff" points="646.67,-89.15 641.99,-79.64 639.72,-89.99 646.67,-89.15"/>
</a>
</g>
</g>
<!-- Node14&#45;&gt;Node10 -->
<g id="edge62_Node000014_Node000010" class="edge">
<title>Node14&#45;&gt;Node10</title>
<g id="a_edge62_Node000014_Node000010"><a xlink:title=" ">
<path fill="none" stroke="#63b8ff" d="M602.2,-260.75C491.37,-256.54 283.33,-236.69 132,-151 107.39,-137.07 86.51,-111.9 73.46,-93.5"/>
<polygon fill="#63b8ff" stroke="#63b8ff" points="76.24,-91.36 67.7,-85.09 70.46,-95.32 76.24,-91.36"/>
</a>
</g>
</g>
<!-- Node15 -->
<g id="Node000015" class="node">
<title>Node15</title>
<g id="a_Node000015"><a xlink:title=" ">
<polygon fill="#e0e0e0" stroke="#999999" points="1085,-211.5 1029,-211.5 1029,-192.5 1085,-192.5 1085,-211.5"/>
<text text-anchor="middle" x="1057" y="-199.5" font-family="Helvetica,sans-Serif" font-size="10.00">optional</text>
</a>
</g>
</g>
<!-- Node14&#45;&gt;Node15 -->
<g id="edge18_Node000014_Node000015" class="edge">
<title>Node14&#45;&gt;Node15</title>
<g id="a_edge18_Node000014_Node000015"><a xlink:title=" ">
<path fill="none" stroke="#63b8ff" d="M755.79,-256.59C825.53,-250.93 930.82,-239.37 1020,-217 1022.45,-216.39 1024.96,-215.66 1027.46,-214.87"/>
<polygon fill="#63b8ff" stroke="#63b8ff" points="1028.63,-218.16 1036.91,-211.57 1026.32,-211.56 1028.63,-218.16"/>
</a>
</g>
</g>
<!-- Node16 -->
<g id="Node000016" class="node">
<title>Node16</title>
<g id="a_Node000016"><a xlink:href="common_8hpp.html" target="_top" xlink:title=" ">
<polygon fill="white" stroke="#666666" points="1255.5,-211.5 1112.5,-211.5 1112.5,-192.5 1255.5,-192.5 1255.5,-211.5"/>
<text text-anchor="middle" x="1184" y="-199.5" font-family="Helvetica,sans-Serif" font-size="10.00">unilink/base/common.hpp</text>
</a>
</g>
</g>
<!-- Node14&#45;&gt;Node16 -->
<g id="edge22_Node000014_Node000016" class="edge">
<title>Node14&#45;&gt;Node16</title>
<g id="a_edge22_Node000014_Node000016"><a xlink:title=" ">
<path fill="none" stroke="#63b8ff" d="M755.62,-254.38C839,-246.38 976.17,-232.47 1094,-217 1102.98,-215.82 1112.45,-214.47 1121.74,-213.08"/>
<polygon fill="#63b8ff" stroke="#63b8ff" points="1122.35,-216.53 1131.71,-211.56 1121.3,-209.61 1122.35,-216.53"/>
</a>
</g>
</g>
<!-- Node28 -->
<g id="Node000028" class="node">
<title>Node28</title>
<g id="a_Node000028"><a xlink:href="error__codes_8hpp.html" target="_top" xlink:title=" ">
<polygon fill="white" stroke="#666666" points="1011,-217 909,-217 909,-187 1011,-187 1011,-217"/>
<text text-anchor="start" x="917" y="-205" font-family="Helvetica,sans-Serif" font-size="10.00">unilink/base/error</text>
<text text-anchor="middle" x="960" y="-194" font-family="Helvetica,sans-Serif" font-size="10.00">_codes.hpp</text>
</a>
</g>
</g>
<!-- Node14&#45;&gt;Node28 -->
<g id="edge49_Node000014_Node000028" class="edge">
<title>Node14&#45;&gt;Node28</title>
<g id="a_edge49_Node000014_Node000028"><a xlink:title=" ">
<path fill="none" stroke="#63b8ff" d="M720.84,-253C764.37,-244.12 834.49,-229.75 895,-217 896.27,-216.73 897.56,-216.46 898.85,-216.19"/>
<polygon fill="#63b8ff" stroke="#63b8ff" points="899.86,-219.55 908.91,-214.05 898.41,-212.7 899.86,-219.55"/>
</a>
</g>
</g>
<!-- Node29 -->
<g id="Node000029" class="node">
<title>Node29</title>
<g id="a_Node000029"><a xlink:href="safe__data__buffer_8hpp.html" target="_top" xlink:title=" ">
<polygon fill="white" stroke="#666666" points="423,-151 305,-151 305,-121 423,-121 423,-151"/>
<text text-anchor="start" x="313" y="-139" font-family="Helvetica,sans-Serif" font-size="10.00">unilink/memory/safe</text>
<text text-anchor="middle" x="364" y="-128" font-family="Helvetica,sans-Serif" font-size="10.00">_data_buffer.hpp</text>
</a>
</g>
</g>
<!-- Node14&#45;&gt;Node29 -->
<g id="edge51_Node000014_Node000029" class="edge">
<title>Node14&#45;&gt;Node29</title>
<g id="a_edge51_Node000014_Node000029"><a xlink:title=" ">
<path fill="none" stroke="#63b8ff" d="M657.35,-252.94C606.41,-232.81 478.1,-182.1 409.28,-154.9"/>
<polygon fill="#63b8ff" stroke="#63b8ff" points="410.16,-151.48 399.57,-151.06 407.58,-157.99 410.16,-151.48"/>
</a>
</g>
</g>
<!-- Node16&#45;&gt;Node2 -->
<g id="edge27_Node000016_Node000002" class="edge">
<title>Node16&#45;&gt;Node2</title>
<g id="a_edge27_Node000016_Node000002"><a xlink:title=" ">
<path fill="none" stroke="#63b8ff" d="M1133.16,-192.47C1120.4,-190.5 1106.72,-188.53 1094,-187 907.99,-164.59 849.09,-217.66 674,-151 637.01,-136.92 601.8,-106.07 582.42,-87.06"/>
<polygon fill="#63b8ff" stroke="#63b8ff" points="584.66,-84.35 575.13,-79.72 579.7,-89.28 584.66,-84.35"/>
</a>
</g>
</g>
<!-- Node16&#45;&gt;Node5 -->
<g id="edge32_Node000016_Node000005" class="edge">
<title>Node16&#45;&gt;Node5</title>
<g id="a_edge32_Node000016_Node000005"><a xlink:title=" ">
<path fill="none" stroke="#63b8ff" d="M1173.66,-192.48C1154.87,-177.19 1113.59,-144.51 1076,-121 1053.78,-107.11 1027.29,-93.51 1007.76,-84.02"/>
<polygon fill="#63b8ff" stroke="#63b8ff" points="1009.05,-80.75 998.52,-79.57 1006.02,-87.06 1009.05,-80.75"/>
</a>
</g>
</g>
<!-- Node16&#45;&gt;Node6 -->
<g id="edge33_Node000016_Node000006" class="edge">
<title>Node16&#45;&gt;Node6</title>
<g id="a_edge33_Node000016_Node000006"><a xlink:title=" ">
<path fill="none" stroke="#63b8ff" d="M1132.19,-192.45C1119.71,-190.53 1106.39,-188.59 1094,-187 1014.69,-176.85 795.54,-204.37 736,-151 719.01,-135.77 716.65,-108.15 717.25,-89.69"/>
<polygon fill="#63b8ff" stroke="#63b8ff" points="720.75,-89.77 717.9,-79.57 713.77,-89.32 720.75,-89.77"/>
</a>
</g>
</g>
<!-- Node16&#45;&gt;Node7 -->
<g id="edge35_Node000016_Node000007" class="edge">
<title>Node16&#45;&gt;Node7</title>
<g id="a_edge35_Node000016_Node000007"><a xlink:title=" ">
<path fill="none" stroke="#63b8ff" d="M1132.67,-192.48C1120.05,-190.53 1106.55,-188.57 1094,-187 1010.27,-176.51 791.75,-188.18 716,-151 687.49,-137.01 664.29,-107.28 651.58,-88.27"/>
<polygon fill="#63b8ff" stroke="#63b8ff" points="654.42,-86.2 646.07,-79.68 648.53,-89.98 654.42,-86.2"/>
</a>
</g>
</g>
<!-- Node16&#45;&gt;Node11 -->
<g id="edge24_Node000016_Node000011" class="edge">
<title>Node16&#45;&gt;Node11</title>
<g id="a_edge24_Node000016_Node000011"><a xlink:title=" ">
<path fill="none" stroke="#63b8ff" d="M1183.71,-192.49C1182.31,-166.54 1174.18,-88.2 1127,-55 1052.32,-2.46 397.07,-25.6 306,-19 290.12,-17.85 272.59,-16.14 257.67,-14.56"/>
<polygon fill="#63b8ff" stroke="#63b8ff" points="257.65,-11.04 247.33,-13.44 256.9,-18 257.65,-11.04"/>
</a>
</g>
</g>
<!-- Node16&#45;&gt;Node13 -->
<g id="edge31_Node000016_Node000013" class="edge">
<title>Node16&#45;&gt;Node13</title>
<g id="a_edge31_Node000016_Node000013"><a xlink:title=" ">
<path fill="none" stroke="#63b8ff" d="M1255.89,-198.14C1376.14,-192.6 1607.41,-178.49 1632,-151 1640.89,-141.06 1640.67,-131.13 1632,-121 1549.42,-24.61 604.39,-12.28 390.75,-10.72"/>
<polygon fill="#63b8ff" stroke="#63b8ff" points="390.58,-7.22 380.56,-10.65 390.53,-14.22 390.58,-7.22"/>
</a>
</g>
</g>
<!-- Node17 -->
<g id="Node000017" class="node">
<title>Node17</title>
<g id="a_Node000017"><a xlink:title=" ">
<polygon fill="#e0e0e0" stroke="#999999" points="1118,-79.5 1068,-79.5 1068,-60.5 1118,-60.5 1118,-79.5"/>
<text text-anchor="middle" x="1093" y="-67.5" font-family="Helvetica,sans-Serif" font-size="10.00">chrono</text>
</a>
</g>
</g>
<!-- Node16&#45;&gt;Node17 -->
<g id="edge23_Node000016_Node000017" class="edge">
<title>Node16&#45;&gt;Node17</title>
<g id="a_edge23_Node000016_Node000017"><a xlink:title=" ">
<path fill="none" stroke="#63b8ff" d="M1178.61,-192.47C1169.22,-177.71 1149.13,-146.54 1131,-121 1122.98,-109.7 1113.55,-97.3 1106.1,-87.67"/>
<polygon fill="#63b8ff" stroke="#63b8ff" points="1108.81,-85.46 1099.9,-79.72 1103.29,-89.76 1108.81,-85.46"/>
</a>
</g>
</g>
<!-- Node18 -->
<g id="Node000018" class="node">
<title>Node18</title>
<g id="a_Node000018"><a xlink:title=" ">
<polygon fill="#e0e0e0" stroke="#999999" points="1271,-145.5 1221,-145.5 1221,-126.5 1271,-126.5 1271,-145.5"/>
<text text-anchor="middle" x="1246" y="-133.5" font-family="Helvetica,sans-Serif" font-size="10.00">cstring</text>
</a>
</g>
</g>
<!-- Node16&#45;&gt;Node18 -->
<g id="edge25_Node000016_Node000018" class="edge">
<title>Node16&#45;&gt;Node18</title>
<g id="a_edge25_Node000016_Node000018"><a xlink:title=" ">
<path fill="none" stroke="#63b8ff" d="M1192.36,-192.37C1202.01,-182.4 1218.11,-165.79 1230.15,-153.36"/>
<polygon fill="#63b8ff" stroke="#63b8ff" points="1232.93,-155.52 1237.37,-145.91 1227.9,-150.65 1232.93,-155.52"/>
</a>
</g>
</g>
<!-- Node19 -->
<g id="Node000019" class="node">
<title>Node19</title>
<g id="a_Node000019"><a xlink:title=" ">
<polygon fill="#e0e0e0" stroke="#999999" points="1333,-145.5 1289,-145.5 1289,-126.5 1333,-126.5 1333,-145.5"/>
<text text-anchor="middle" x="1311" y="-133.5" font-family="Helvetica,sans-Serif" font-size="10.00">ctime</text>
</a>
</g>
</g>
<!-- Node16&#45;&gt;Node19 -->
<g id="edge26_Node000016_Node000019" class="edge">
<title>Node16&#45;&gt;Node19</title>
<g id="a_edge26_Node000016_Node000019"><a xlink:title=" ">
<path fill="none" stroke="#63b8ff" d="M1201.13,-192.37C1222.62,-181.54 1259.7,-162.85 1284.77,-150.22"/>
<polygon fill="#63b8ff" stroke="#63b8ff" points="1286.38,-153.32 1293.74,-145.7 1283.23,-147.07 1286.38,-153.32"/>
</a>
</g>
</g>
<!-- Node20 -->
<g id="Node000020" class="node">
<title>Node20</title>
<g id="a_Node000020"><a xlink:title=" ">
<polygon fill="#e0e0e0" stroke="#999999" points="1407,-145.5 1351,-145.5 1351,-126.5 1407,-126.5 1407,-145.5"/>
<text text-anchor="middle" x="1379" y="-133.5" font-family="Helvetica,sans-Serif" font-size="10.00">iomanip</text>
</a>
</g>
</g>
<!-- Node16&#45;&gt;Node20 -->
<g id="edge28_Node000016_Node000020" class="edge">
<title>Node16&#45;&gt;Node20</title>
<g id="a_edge28_Node000016_Node000020"><a xlink:title=" ">
<path fill="none" stroke="#63b8ff" d="M1212.7,-192.44C1244.48,-182.84 1297.15,-166.57 1342,-151 1343.65,-150.43 1345.34,-149.83 1347.04,-149.22"/>
<polygon fill="#63b8ff" stroke="#63b8ff" points="1348.59,-152.38 1356.77,-145.64 1346.17,-145.81 1348.59,-152.38"/>
</a>
</g>
</g>
<!-- Node21 -->
<g id="Node000021" class="node">
<title>Node21</title>
<g id="a_Node000021"><a xlink:title=" ">
<polygon fill="#e0e0e0" stroke="#999999" points="1485,-145.5 1425,-145.5 1425,-126.5 1485,-126.5 1485,-145.5"/>
<text text-anchor="middle" x="1455" y="-133.5" font-family="Helvetica,sans-Serif" font-size="10.00">iostream</text>
</a>
</g>
</g>
<!-- Node16&#45;&gt;Node21 -->
<g id="edge29_Node000016_Node000021" class="edge">
<title>Node16&#45;&gt;Node21</title>
<g id="a_edge29_Node000016_Node000021"><a xlink:title=" ">
<path fill="none" stroke="#63b8ff" d="M1232.45,-192.5C1279.7,-183.75 1353.41,-168.89 1416,-151 1418.42,-150.31 1420.91,-149.54 1423.4,-148.74"/>
<polygon fill="#63b8ff" stroke="#63b8ff" points="1424.55,-152.04 1432.89,-145.51 1422.3,-145.42 1424.55,-152.04"/>
</a>
</g>
</g>
<!-- Node22 -->
<g id="Node000022" class="node">
<title>Node22</title>
<g id="a_Node000022"><a xlink:title=" ">
<polygon fill="#e0e0e0" stroke="#999999" points="1559,-145.5 1503,-145.5 1503,-126.5 1559,-126.5 1559,-145.5"/>
<text text-anchor="middle" x="1531" y="-133.5" font-family="Helvetica,sans-Serif" font-size="10.00">sstream</text>
</a>
</g>
</g>
<!-- Node16&#45;&gt;Node22 -->
<g id="edge30_Node000016_Node000022" class="edge">
<title>Node16&#45;&gt;Node22</title>
<g id="a_edge30_Node000016_Node000022"><a xlink:title=" ">
<path fill="none" stroke="#63b8ff" d="M1255.65,-193.6C1319.04,-186.08 1413.68,-172.44 1494,-151 1496.3,-150.39 1498.65,-149.68 1501,-148.93"/>
<polygon fill="#63b8ff" stroke="#63b8ff" points="1502.22,-152.21 1510.5,-145.6 1499.9,-145.6 1502.22,-152.21"/>
</a>
</g>
</g>
<!-- Node23 -->
<g id="Node000023" class="node">
<title>Node23</title>
<g id="a_Node000023"><a xlink:title=" ">
<polygon fill="#e0e0e0" stroke="#999999" points="1622.5,-145.5 1577.5,-145.5 1577.5,-126.5 1622.5,-126.5 1622.5,-145.5"/>
<text text-anchor="middle" x="1600" y="-133.5" font-family="Helvetica,sans-Serif" font-size="10.00">utility</text>
</a>
</g>
</g>
<!-- Node16&#45;&gt;Node23 -->
<g id="edge34_Node000016_Node000023" class="edge">
<title>Node16&#45;&gt;Node23</title>
<g id="a_edge34_Node000016_Node000023"><a xlink:title=" ">
<path fill="none" stroke="#63b8ff" d="M1255.62,-197.72C1333.66,-192.77 1461.6,-180.55 1568,-151 1569.69,-150.53 1571.4,-149.99 1573.11,-149.4"/>
<polygon fill="#63b8ff" stroke="#63b8ff" points="1574.7,-152.54 1582.72,-145.62 1572.13,-146.02 1574.7,-152.54"/>
</a>
</g>
</g>
<!-- Node24 -->
<g id="Node000024" class="node">
<title>Node24</title>
<g id="a_Node000024"><a xlink:href="platform_8hpp.html" target="_top" xlink:title=" ">
<polygon fill="white" stroke="#666666" points="1051,-145.5 909,-145.5 909,-126.5 1051,-126.5 1051,-145.5"/>
<text text-anchor="middle" x="980" y="-133.5" font-family="Helvetica,sans-Serif" font-size="10.00">unilink/base/platform.hpp</text>
</a>
</g>
</g>
<!-- Node16&#45;&gt;Node24 -->
<g id="edge36_Node000016_Node000024" class="edge">
<title>Node16&#45;&gt;Node24</title>
<g id="a_edge36_Node000016_Node000024"><a xlink:title=" ">
<path fill="none" stroke="#63b8ff" d="M1156.49,-192.37C1120.49,-181.08 1057.29,-161.25 1017.09,-148.64"/>
<polygon fill="#63b8ff" stroke="#63b8ff" points="1017.99,-145.25 1007.4,-145.6 1015.9,-151.93 1017.99,-145.25"/>
</a>
</g>
</g>
<!-- Node25 -->
<g id="Node000025" class="node">
<title>Node25</title>
<g id="a_Node000025"><a xlink:href="logger_8hpp.html" target="_top" xlink:title=" ">
<polygon fill="white" stroke="#666666" points="853,-151 745,-151 745,-121 853,-121 853,-151"/>
<text text-anchor="start" x="753" y="-139" font-family="Helvetica,sans-Serif" font-size="10.00">unilink/diagnostics</text>
<text text-anchor="middle" x="799" y="-128" font-family="Helvetica,sans-Serif" font-size="10.00">/logger.hpp</text>
</a>
</g>
</g>
<!-- Node16&#45;&gt;Node25 -->
<g id="edge39_Node000016_Node000025" class="edge">
<title>Node16&#45;&gt;Node25</title>
<g id="a_edge39_Node000016_Node000025"><a xlink:title=" ">
<path fill="none" stroke="#63b8ff" d="M1132.48,-192.44C1062.76,-180.85 938.45,-160.18 862.88,-147.62"/>
<polygon fill="#63b8ff" stroke="#63b8ff" points="863.45,-144.17 853.01,-145.98 862.3,-151.07 863.45,-144.17"/>
</a>
</g>
</g>
<!-- Node24&#45;&gt;Node5 -->
<g id="edge37_Node000024_Node000005" class="edge">
<title>Node24&#45;&gt;Node5</title>
<g id="a_edge37_Node000024_Node000005"><a xlink:title=" ">
<path fill="none" stroke="#63b8ff" d="M980,-126.37C980,-117.16 980,-102.29 980,-90.27"/>
<polygon fill="#63b8ff" stroke="#63b8ff" points="983.5,-89.91 980,-79.91 976.5,-89.91 983.5,-89.91"/>
</a>
</g>
</g>
<!-- Node24&#45;&gt;Node8 -->
<g id="edge38_Node000024_Node000008" class="edge">
<title>Node24&#45;&gt;Node8</title>
<g id="a_edge38_Node000024_Node000008"><a xlink:title=" ">
<path fill="none" stroke="#63b8ff" d="M909.19,-126.47C893.65,-124.63 877.27,-122.72 862,-121 712.76,-104.15 674.72,-105.96 526,-85 518.06,-83.88 509.7,-82.57 501.5,-81.2"/>
<polygon fill="#63b8ff" stroke="#63b8ff" points="502.05,-77.75 491.61,-79.52 500.88,-84.65 502.05,-77.75"/>
</a>
</g>
</g>
<!-- Node25&#45;&gt;Node2 -->
<g id="edge42_Node000025_Node000002" class="edge">
<title>Node25&#45;&gt;Node2</title>
<g id="a_edge42_Node000025_Node000002"><a xlink:title=" ">
<path fill="none" stroke="#63b8ff" d="M744.69,-121.7C706.55,-112.11 654.44,-98.54 609,-85 606.55,-84.27 604.03,-83.49 601.5,-82.7"/>
<polygon fill="#63b8ff" stroke="#63b8ff" points="602.38,-79.3 591.79,-79.56 600.23,-85.96 602.38,-79.3"/>
</a>
</g>
</g>
<!-- Node25&#45;&gt;Node4 -->
<g id="edge43_Node000025_Node000004" class="edge">
<title>Node25&#45;&gt;Node4</title>
<g id="a_edge43_Node000025_Node000004"><a xlink:title=" ">
<path fill="none" stroke="#63b8ff" d="M744.95,-131.83C645.08,-125.6 425.06,-110.14 241,-85 228.97,-83.36 215.95,-81.13 204.14,-78.93"/>
<polygon fill="#63b8ff" stroke="#63b8ff" points="204.61,-75.45 194.13,-77.02 203.3,-82.33 204.61,-75.45"/>
</a>
</g>
</g>
<!-- Node25&#45;&gt;Node5 -->
<g id="edge45_Node000025_Node000005" class="edge">
<title>Node25&#45;&gt;Node5</title>
<g id="a_edge45_Node000025_Node000005"><a xlink:title=" ">
<path fill="none" stroke="#63b8ff" d="M842,-120.91C871.19,-111.19 910.59,-97.77 945,-85 946.42,-84.47 947.87,-83.93 949.33,-83.37"/>
<polygon fill="#63b8ff" stroke="#63b8ff" points="950.92,-86.51 958.97,-79.61 948.38,-79.98 950.92,-86.51"/>
</a>
</g>
</g>
<!-- Node25&#45;&gt;Node6 -->
<g id="edge46_Node000025_Node000006" class="edge">
<title>Node25&#45;&gt;Node6</title>
<g id="a_edge46_Node000025_Node000006"><a xlink:title=" ">
<path fill="none" stroke="#63b8ff" d="M781.25,-120.8C768.41,-110.53 751.08,-96.67 737.97,-86.18"/>
<polygon fill="#63b8ff" stroke="#63b8ff" points="740.05,-83.36 730.06,-79.84 735.68,-88.82 740.05,-83.36"/>
</a>
</g>
</g>
<!-- Node25&#45;&gt;Node7 -->
<g id="edge47_Node000025_Node000007" class="edge">
<title>Node25&#45;&gt;Node7</title>
<g id="a_edge47_Node000025_Node000007"><a xlink:title=" ">
<path fill="none" stroke="#63b8ff" d="M763.36,-120.97C738.31,-111.05 704.04,-97.38 674,-85 672.8,-84.51 671.58,-84 670.35,-83.49"/>
<polygon fill="#63b8ff" stroke="#63b8ff" points="671.44,-80.15 660.87,-79.51 668.73,-86.6 671.44,-80.15"/>
</a>
</g>
</g>
<!-- Node25&#45;&gt;Node8 -->
<g id="edge48_Node000025_Node000008" class="edge">
<title>Node25&#45;&gt;Node8</title>
<g id="a_edge48_Node000025_Node000008"><a xlink:title=" ">
<path fill="none" stroke="#63b8ff" d="M744.62,-125.14C679.13,-113.27 569.65,-93.42 503.01,-81.34"/>
<polygon fill="#63b8ff" stroke="#63b8ff" points="503.56,-77.88 493.1,-79.54 502.31,-84.77 503.56,-77.88"/>
</a>
</g>
</g>
<!-- Node25&#45;&gt;Node17 -->
<g id="edge41_Node000025_Node000017" class="edge">
<title>Node25&#45;&gt;Node17</title>
<g id="a_edge41_Node000025_Node000017"><a xlink:title=" ">
<path fill="none" stroke="#63b8ff" d="M853.27,-123.19C913.03,-110.18 1007.35,-89.65 1058.03,-78.61"/>
<polygon fill="#63b8ff" stroke="#63b8ff" points="1058.83,-82.02 1067.86,-76.47 1057.34,-75.18 1058.83,-82.02"/>
</a>
</g>
</g>
<!-- Node26 -->
<g id="Node000026" class="node">
<title>Node26</title>
<g id="a_Node000026"><a xlink:title=" ">
<polygon fill="#e0e0e0" stroke="#999999" points="824,-79.5 774,-79.5 774,-60.5 824,-60.5 824,-79.5"/>
<text text-anchor="middle" x="799" y="-67.5" font-family="Helvetica,sans-Serif" font-size="10.00">atomic</text>
</a>
</g>
</g>
<!-- Node25&#45;&gt;Node26 -->
<g id="edge40_Node000025_Node000026" class="edge">
<title>Node25&#45;&gt;Node26</title>
<g id="a_edge40_Node000025_Node000026"><a xlink:title=" ">
<path fill="none" stroke="#63b8ff" d="M799,-120.8C799,-111.7 799,-99.79 799,-89.9"/>
<polygon fill="#63b8ff" stroke="#63b8ff" points="802.5,-89.84 799,-79.84 795.5,-89.84 802.5,-89.84"/>
</a>
</g>
</g>
<!-- Node27 -->
<g id="Node000027" class="node">
<title>Node27</title>
<g id="a_Node000027"><a xlink:title=" ">
<polygon fill="#e0e0e0" stroke="#999999" points="935.5,-79.5 842.5,-79.5 842.5,-60.5 935.5,-60.5 935.5,-79.5"/>
<text text-anchor="middle" x="889" y="-67.5" font-family="Helvetica,sans-Serif" font-size="10.00">source_location</text>
</a>
</g>
</g>
<!-- Node25&#45;&gt;Node27 -->
<g id="edge44_Node000025_Node000027" class="edge">
<title>Node25&#45;&gt;Node27</title>
<g id="a_edge44_Node000025_Node000027"><a xlink:title=" ">
<path fill="none" stroke="#63b8ff" d="M818.97,-120.8C833.64,-110.37 853.51,-96.24 868.34,-85.69"/>
<polygon fill="#63b8ff" stroke="#63b8ff" points="870.7,-88.31 876.82,-79.66 866.65,-82.6 870.7,-88.31"/>
</a>
</g>
</g>
<!-- Node28&#45;&gt;Node5 -->
<g id="edge50_Node000028_Node000005" class="edge">
<title>Node28&#45;&gt;Node5</title>
<g id="a_edge50_Node000028_Node000005"><a xlink:title=" ">
<path fill="none" stroke="#63b8ff" d="M1011.1,-187.86C1029.82,-180.3 1049.08,-168.67 1060,-151 1067.01,-139.66 1066.46,-132.66 1060,-121 1049.68,-102.39 1029.23,-89.79 1011.59,-81.89"/>
<polygon fill="#63b8ff" stroke="#63b8ff" points="1012.73,-78.58 1002.16,-77.98 1010.05,-85.04 1012.73,-78.58"/>
</a>
</g>
</g>
<!-- Node29&#45;&gt;Node2 -->
<g id="edge53_Node000029_Node000002" class="edge">
<title>Node29&#45;&gt;Node2</title>
<g id="a_edge53_Node000029_Node000002"><a xlink:title=" ">
<path fill="none" stroke="#63b8ff" d="M410.23,-120.92C442.45,-111.04 486.41,-97.42 525,-85 527.28,-84.26 529.64,-83.5 532,-82.73"/>
<polygon fill="#63b8ff" stroke="#63b8ff" points="533.31,-85.98 541.71,-79.52 531.12,-79.33 533.31,-85.98"/>
</a>
</g>
</g>
<!-- Node29&#45;&gt;Node4 -->
<g id="edge54_Node000029_Node000004" class="edge">
<title>Node29&#45;&gt;Node4</title>
<g id="a_edge54_Node000029_Node000004"><a xlink:title=" ">
<path fill="none" stroke="#63b8ff" d="M319.94,-120.94C288.68,-110.95 245.75,-97.2 208,-85 205.73,-84.27 203.39,-83.51 201.04,-82.75"/>
<polygon fill="#63b8ff" stroke="#63b8ff" points="201.96,-79.37 191.37,-79.61 199.8,-86.03 201.96,-79.37"/>
</a>
</g>
</g>
<!-- Node29&#45;&gt;Node5 -->
<g id="edge56_Node000029_Node000005" class="edge">
<title>Node29&#45;&gt;Node5</title>
<g id="a_edge56_Node000029_Node000005"><a xlink:title=" ">
<path fill="none" stroke="#63b8ff" d="M423.04,-135.61C529.06,-135.44 758.09,-129.39 945,-85 947.31,-84.45 949.67,-83.78 952.01,-83.02"/>
<polygon fill="#63b8ff" stroke="#63b8ff" points="953.24,-86.3 961.44,-79.6 950.85,-79.72 953.24,-86.3"/>
</a>
</g>
</g>
<!-- Node29&#45;&gt;Node6 -->
<g id="edge57_Node000029_Node000006" class="edge">
<title>Node29&#45;&gt;Node6</title>
<g id="a_edge57_Node000029_Node000006"><a xlink:title=" ">
<path fill="none" stroke="#63b8ff" d="M423.05,-128.01C485.79,-119.99 587.63,-105.29 674,-85 677.19,-84.25 680.47,-83.4 683.76,-82.48"/>
<polygon fill="#63b8ff" stroke="#63b8ff" points="684.86,-85.81 693.47,-79.63 682.89,-79.09 684.86,-85.81"/>
</a>
</g>
</g>
<!-- Node29&#45;&gt;Node7 -->
<g id="edge59_Node000029_Node000007" class="edge">
<title>Node29&#45;&gt;Node7</title>
<g id="a_edge59_Node000029_Node000007"><a xlink:title=" ">
<path fill="none" stroke="#63b8ff" d="M423.3,-126.5C473.48,-118.46 546.92,-104.67 609,-85 610.63,-84.48 612.29,-83.91 613.95,-83.3"/>
<polygon fill="#63b8ff" stroke="#63b8ff" points="615.35,-86.51 623.32,-79.53 612.73,-80.02 615.35,-86.51"/>
</a>
</g>
</g>
<!-- Node29&#45;&gt;Node8 -->
<g id="edge60_Node000029_Node000008" class="edge">
<title>Node29&#45;&gt;Node8</title>
<g id="a_edge60_Node000029_Node000008"><a xlink:title=" ">
<path fill="none" stroke="#63b8ff" d="M382.2,-120.8C395.36,-110.53 413.11,-96.67 426.55,-86.18"/>
<polygon fill="#63b8ff" stroke="#63b8ff" points="428.94,-88.76 434.67,-79.84 424.63,-83.24 428.94,-88.76"/>
</a>
</g>
</g>
<!-- Node29&#45;&gt;Node10 -->
<g id="edge61_Node000029_Node000010" class="edge">
<title>Node29&#45;&gt;Node10</title>
<g id="a_edge61_Node000029_Node000010"><a xlink:title=" ">
<path fill="none" stroke="#63b8ff" d="M304.83,-122.58C254.22,-111.96 181.32,-96.67 128.05,-85.49"/>
<polygon fill="#63b8ff" stroke="#63b8ff" points="128.51,-82.01 118,-83.38 127.07,-88.86 128.51,-82.01"/>
</a>
</g>
</g>
<!-- Node29&#45;&gt;Node11 -->
<g id="edge52_Node000029_Node000011" class="edge">
<title>Node29&#45;&gt;Node11</title>
<g id="a_edge52_Node000029_Node000011"><a xlink:title=" ">
<path fill="none" stroke="#63b8ff" d="M304.93,-123.1C282.04,-115.7 257.44,-103.85 241,-85 227.6,-69.63 223.43,-46.08 222.24,-29.58"/>
<polygon fill="#63b8ff" stroke="#63b8ff" points="225.73,-29.32 221.82,-19.47 218.74,-29.61 225.73,-29.32"/>
</a>
</g>
</g>
<!-- Node29&#45;&gt;Node13 -->
<g id="edge55_Node000029_Node000013" class="edge">
<title>Node29&#45;&gt;Node13</title>
<g id="a_edge55_Node000029_Node000013"><a xlink:title=" ">
<path fill="none" stroke="#63b8ff" d="M362.16,-120.72C359.26,-98.12 353.61,-54.12 350.39,-29.09"/>
<polygon fill="#63b8ff" stroke="#63b8ff" points="353.85,-28.54 349.1,-19.07 346.9,-29.43 353.85,-28.54"/>
</a>
</g>
</g>
<!-- Node30 -->
<g id="Node000030" class="node">
<title>Node30</title>
<g id="a_Node000030"><a xlink:title=" ">
<polygon fill="#e0e0e0" stroke="#999999" points="319.5,-79.5 250.5,-79.5 250.5,-60.5 319.5,-60.5 319.5,-79.5"/>
<text text-anchor="middle" x="285" y="-67.5" font-family="Helvetica,sans-Serif" font-size="10.00">type_traits</text>
</a>
</g>
</g>
<!-- Node29&#45;&gt;Node30 -->
<g id="edge58_Node000029_Node000030" class="edge">
<title>Node29&#45;&gt;Node30</title>
<g id="a_edge58_Node000029_Node000030"><a xlink:title=" ">
<path fill="none" stroke="#63b8ff" d="M346.47,-120.8C333.79,-110.53 316.68,-96.67 303.74,-86.18"/>
<polygon fill="#63b8ff" stroke="#63b8ff" points="305.89,-83.42 295.92,-79.84 301.48,-88.86 305.89,-83.42"/>
</a>
</g>
</g>
</g>
</svg>

<g id="navigator" transform="translate(0 0)" fill="#404254">
  <rect fill="#f2f5e9" fill-opacity="0.5" stroke="#606060" stroke-width=".5" x="0" y="0" width="60" height="60"/>
  <use id="zoomplus" xlink:href="#zoomPlus" x="17" y="9" onmousedown="handleZoom(evt,'in')"/>
  <use id="zoomminus" xlink:href="#zoomMin" x="42" y="9" onmousedown="handleZoom(evt,'out')"/>
  <use id="reset" xlink:href="#resetDef" x="30" y="36" onmousedown="handleReset()"/>
   <use id="arrowup" xlink:href="#arrowUp" x="0" y="0" onmousedown="handlePan(0,-1)"/>
  <use id="arrowright" xlink:href="#arrowRight" x="0" y="0" onmousedown="handlePan(1,0)"/>
  <use id="arrowdown" xlink:href="#arrowDown" x="0" y="0" onmousedown="handlePan(0,1)"/>
  <use id="arrowleft" xlink:href="#arrowLeft" x="0" y="0" onmousedown="handlePan(-1,0)"/>
</g>
<svg viewBox="0 0 15 15" width="100%" height="30px" preserveAspectRatio="xMaxYMin meet">
 <g id="arrow_out" transform="scale(0.3 0.3)">
  <a xlink:href="ichannel_8hpp__incl_org.svg" target="_base">
   <rect id="button" ry="5" rx="5" y="6" x="6" height="38" width="38"
        fill="#f2f5e9" fill-opacity="0.5" stroke="#606060" stroke-width="1.0"/>
   <path id="arrow"
     d="M 11.500037,31.436501 C 11.940474,20.09759 22.043105,11.32322 32.158766,21.979434 L 37.068811,17.246167 C 37.068811,17.246167 37.088388,32 37.088388,32 L 22.160133,31.978069 C 22.160133,31.978069 26.997745,27.140456 26.997745,27.140456 C 18.528582,18.264221 13.291696,25.230495 11.500037,31.436501 z"
     style="fill:#404040;"/>
  </a>
 </g>
</svg>

<style type='text/css'>
<![CDATA[
[data-mouse-over-selected='false'] { opacity: 0.7; }
[data-mouse-over-selected='true']  { opacity: 1.0; }
]]>
</style>
<script type="application/ecmascript"><![CDATA[
document.addEventListener('DOMContentLoaded', (event) => {
  highlightEdges();
  highlightAdjacentNodes();
});
]]></script>
</svg>
