<?xml version="1.0" encoding="UTF-8" standalone="no"?>
<!DOCTYPE svg PUBLIC "-//W3C//DTD SVG 1.1//EN"
 "http://www.w3.org/Graphics/SVG/1.1/DTD/svg11.dtd">
<!-- Generated by graphviz version 2.43.0 (0)
 -->
<!-- Title: unilink/wrapper/ichannel.hpp Pages: 1 -->
<!--zoomable 324 -->

<svg id="main" version="1.1" xmlns="http://www.w3.org/2000/svg" xmlns:xlink="http://www.w3.org/1999/xlink" xml:space="preserve" onload="init(evt)">
<style type="text/css"><![CDATA[
.node, .edge {opacity: 0.7;}
.node.selected, .edge.selected {opacity: 1;}
.edge:hover path { stroke: red; }
.edge:hover polygon { stroke: red; fill: red; }
]]></style>

<defs>
  <circle id="rim" cx="0" cy="0" r="7"/>
  <circle id="rim2" cx="0" cy="0" r="3.5"/>
  <g id="zoomPlus">
    <use xlink:href="#rim" fill="#404040"><set attributeName="fill" to="#808080" begin="zoomplus.mouseover" end="zoomplus.mouseout"/></use>
    <path d="M-4,0h8M0,-4v8" fill="none" stroke="white" stroke-width="1.5" pointer-events="none"/>
  </g>
  <g id="zoomMin">
    <use xlink:href="#rim" fill="#404040"><set attributeName="fill" to="#808080" begin="zoomminus.mouseover" end="zoomminus.mouseout"/></use>
    <path d="M-4,0h8" fill="none" stroke="white" stroke-width="1.5" pointer-events="none"/>
  </g>
  <g id="arrowUp" transform="translate(30 24)">
    <use xlink:href="#rim"/>
    <path pointer-events="none" fill="none" stroke="white" stroke-width="1.5" d="M0,-3.0v7 M-2.5,-0.5L0,-3.0L2.5,-0.5"/>
  </g>
  <g id="arrowRight" transform="rotate(90) translate(36 -43)">
    <use xlink:href="#rim"/>
    <path pointer-events="none" fill="none" stroke="white" stroke-width="1.5" d="M0,-3.0v7 M-2.5,-0.5L0,-3.0L2.5,-0.5"/>
  </g>
  <g id="arrowDown" transform="rotate(180) translate(-30 -48)">
    <use xlink:href="#rim"/>
    <path pointer-events="none" fill="none" stroke="white" stroke-width="1.5" d="M0,-3.0v7 M-2.5,-0.5L0,-3.0L2.5,-0.5"/>
  </g>
  <g id="arrowLeft" transform="rotate(270) translate(-36 17)">
    <use xlink:href="#rim"/>
    <path pointer-events="none" fill="none" stroke="white" stroke-width="1.5" d="M0,-3.0v7 M-2.5,-0.5L0,-3.0L2.5,-0.5"/>
  </g>
  <g id="resetDef">
    <use xlink:href="#rim2" fill="#404040"><set attributeName="fill" to="#808080" begin="reset.mouseover" end="reset.mouseout"/></use>
  </g>
</defs>
<script type="application/ecmascript">
var viewWidth = 1588;
var viewHeight = 324;
var sectionId = 'dynsection-0';
</script>
<script type="application/ecmascript" xlink:href="svg.min.js"/>
<svg id="graph" class="graph">
<g id="viewport">
<title>unilink/wrapper/ichannel.hpp</title>
<!-- Node1 -->
<g id="Node000001" class="node">
<title>Node1</title>
<g id="a_Node000001"><a xlink:title=" ">
<polygon fill="#999999" stroke="#666666" points="330.08,-316 172.08,-316 172.08,-297 330.08,-297 330.08,-316"/>
<text text-anchor="middle" x="251.08" y="-304" font-family="Helvetica,sans-Serif" font-size="10.00">unilink/wrapper/ichannel.hpp</text>
</a>
</g>
</g>
<!-- Node2 -->
<g id="Node000002" class="node">
<title>Node2</title>
<g id="a_Node000002"><a xlink:title=" ">
<polygon fill="#e0e0e0" stroke="#999999" points="340.58,-74 275.58,-74 275.58,-55 340.58,-55 340.58,-74"/>
<text text-anchor="middle" x="308.08" y="-62" font-family="Helvetica,sans-Serif" font-size="10.00">functional</text>
</a>
</g>
</g>
<!-- Node1&#45;&gt;Node2 -->
<g id="edge1_Node000001_Node000002" class="edge">
<title>Node1&#45;&gt;Node2</title>
<g id="a_edge1_Node000001_Node000002"><a xlink:title=" ">
<path fill="none" stroke="#63b8ff" d="M259.14,-296.7C266.42,-288.22 276.77,-274.69 282.08,-261 305.91,-199.63 308.61,-120.17 308.48,-84.41"/>
<polygon fill="#63b8ff" stroke="#63b8ff" points="311.98,-84 308.35,-74.04 304.98,-84.09 311.98,-84"/>
</a>
</g>
</g>
<!-- Node3 -->
<g id="Node000003" class="node">
<title>Node3</title>
<g id="a_Node000003"><a xlink:title=" ">
<polygon fill="#e0e0e0" stroke="#999999" points="69.08,-261 23.08,-261 23.08,-242 69.08,-242 69.08,-261"/>
<text text-anchor="middle" x="46.08" y="-249" font-family="Helvetica,sans-Serif" font-size="10.00">future</text>
</a>
</g>
</g>
<!-- Node1&#45;&gt;Node3 -->
<g id="edge2_Node000001_Node000003" class="edge">
<title>Node1&#45;&gt;Node3</title>
<g id="a_edge2_Node000001_Node000003"><a xlink:title=" ">
<path fill="none" stroke="#63b8ff" d="M218.14,-296.98C180.07,-287.14 117.76,-271.03 79.49,-261.14"/>
<polygon fill="#63b8ff" stroke="#63b8ff" points="79.93,-257.64 69.37,-258.52 78.18,-264.41 79.93,-257.64"/>
</a>
</g>
</g>
<!-- Node4 -->
<g id="Node000004" class="node">
<title>Node4</title>
<g id="a_Node000004"><a xlink:title=" ">
<polygon fill="#e0e0e0" stroke="#999999" points="219.08,-74 161.08,-74 161.08,-55 219.08,-55 219.08,-74"/>
<text text-anchor="middle" x="190.08" y="-62" font-family="Helvetica,sans-Serif" font-size="10.00">memory</text>
</a>
</g>
</g>
<!-- Node1&#45;&gt;Node4 -->
<g id="edge3_Node000001_Node000004" class="edge">
<title>Node1&#45;&gt;Node4</title>
<g id="a_edge3_Node000001_Node000004"><a xlink:title=" ">
<path fill="none" stroke="#63b8ff" d="M171.92,-301.26C111.02,-296.14 34,-285 14.08,-261 -44.86,-189.96 98.99,-109.23 162.15,-78.39"/>
<polygon fill="#63b8ff" stroke="#63b8ff" points="163.7,-81.53 171.2,-74.05 160.67,-75.22 163.7,-81.53"/>
</a>
</g>
</g>
<!-- Node5 -->
<g id="Node000005" class="node">
<title>Node5</title>
<g id="a_Node000005"><a xlink:title=" ">
<polygon fill="#e0e0e0" stroke="#999999" points="1451.08,-19 1407.08,-19 1407.08,0 1451.08,0 1451.08,-19"/>
<text text-anchor="middle" x="1429.08" y="-7" font-family="Helvetica,sans-Serif" font-size="10.00">string</text>
</a>
</g>
</g>
<!-- Node1&#45;&gt;Node5 -->
<g id="edge4_Node000001_Node000005" class="edge">
<title>Node1&#45;&gt;Node5</title>
<g id="a_edge4_Node000001_Node000005"><a xlink:title=" ">
<path fill="none" stroke="#63b8ff" d="M330.24,-302.91C616.35,-293.04 1580.08,-255.1 1580.08,-192 1580.08,-192 1580.08,-192 1580.08,-124 1580.08,-64.98 1505.45,-32.84 1461.12,-18.97"/>
<polygon fill="#63b8ff" stroke="#63b8ff" points="1461.95,-15.56 1451.36,-16.05 1459.94,-22.27 1461.95,-15.56"/>
</a>
</g>
</g>
<!-- Node6 -->
<g id="Node000006" class="node">
<title>Node6</title>
<g id="a_Node000006"><a xlink:title=" ">
<polygon fill="#e0e0e0" stroke="#999999" points="608.58,-74 535.58,-74 535.58,-55 608.58,-55 608.58,-74"/>
<text text-anchor="middle" x="572.08" y="-62" font-family="Helvetica,sans-Serif" font-size="10.00">string_view</text>
</a>
</g>
</g>
<!-- Node1&#45;&gt;Node6 -->
<g id="edge5_Node000001_Node000006" class="edge">
<title>Node1&#45;&gt;Node6</title>
<g id="a_edge5_Node000001_Node000006"><a xlink:title=" ">
<path fill="none" stroke="#63b8ff" d="M260.97,-296.96C270.91,-288.24 286.51,-274.14 299.08,-261 359.89,-197.42 353.62,-158.41 427.08,-110 456.68,-90.49 495.25,-79.2 525.17,-72.87"/>
<polygon fill="#63b8ff" stroke="#63b8ff" points="526.24,-76.22 535.36,-70.83 524.87,-69.36 526.24,-76.22"/>
</a>
</g>
</g>
<!-- Node7 -->
<g id="Node000007" class="node">
<title>Node7</title>
<g id="a_Node000007"><a xlink:href="visibility_8hpp.html" target="_top" xlink:title=" ">
<polygon fill="white" stroke="#666666" points="803.08,-19 663.08,-19 663.08,0 803.08,0 803.08,-19"/>
<text text-anchor="middle" x="733.08" y="-7" font-family="Helvetica,sans-Serif" font-size="10.00">unilink/base/visibility.hpp</text>
</a>
</g>
</g>
<!-- Node1&#45;&gt;Node7 -->
<g id="edge6_Node000001_Node000007" class="edge">
<title>Node1&#45;&gt;Node7</title>
<g id="a_edge6_Node000001_Node000007"><a xlink:title=" ">
<path fill="none" stroke="#63b8ff" d="M176.03,-296.98C154.12,-290.6 132.48,-279.66 119.08,-261 65.49,-186.38 69.86,-118.68 136.08,-55 175.89,-16.72 562.05,-23.39 652.87,-18.77"/>
<polygon fill="#63b8ff" stroke="#63b8ff" points="653.11,-22.26 662.86,-18.11 652.65,-15.27 653.11,-22.26"/>
</a>
</g>
</g>
<!-- Node8 -->
<g id="Node000008" class="node">
<title>Node8</title>
<g id="a_Node000008"><a xlink:href="iframer_8hpp.html" target="_top" xlink:title=" ">
<polygon fill="white" stroke="#666666" points="273.58,-261 128.58,-261 128.58,-242 273.58,-242 273.58,-261"/>
<text text-anchor="middle" x="201.08" y="-249" font-family="Helvetica,sans-Serif" font-size="10.00">unilink/framer/iframer.hpp</text>
</a>
</g>
</g>
<!-- Node1&#45;&gt;Node8 -->
<g id="edge7_Node000001_Node000008" class="edge">
<title>Node1&#45;&gt;Node8</title>
<g id="a_edge7_Node000001_Node000008"><a xlink:title=" ">
<path fill="none" stroke="#63b8ff" d="M242.83,-296.75C235.62,-289.11 224.97,-277.82 216.24,-268.56"/>
<polygon fill="#63b8ff" stroke="#63b8ff" points="218.59,-265.96 209.18,-261.09 213.5,-270.76 218.59,-265.96"/>
</a>
</g>
</g>
<!-- Node14 -->
<g id="Node000014" class="node">
<title>Node14</title>
<g id="a_Node000014"><a xlink:href="context_8hpp.html" target="_top" xlink:title=" ">
<polygon fill="white" stroke="#666666" points="832.58,-261 679.58,-261 679.58,-242 832.58,-242 832.58,-261"/>
<text text-anchor="middle" x="756.08" y="-249" font-family="Helvetica,sans-Serif" font-size="10.00">unilink/wrapper/context.hpp</text>
</a>
</g>
</g>
<!-- Node1&#45;&gt;Node14 -->
<g id="edge16_Node000001_Node000014" class="edge">
<title>Node1&#45;&gt;Node14</title>
<g id="a_edge16_Node000001_Node000014"><a xlink:title=" ">
<path fill="none" stroke="#63b8ff" d="M330.27,-297.19C422.4,-287.52 574.02,-271.61 669.29,-261.61"/>
<polygon fill="#63b8ff" stroke="#63b8ff" points="669.89,-265.06 679.47,-260.54 669.16,-258.1 669.89,-265.06"/>
</a>
</g>
</g>
<!-- Node8&#45;&gt;Node2 -->
<g id="edge8_Node000008_Node000002" class="edge">
<title>Node8&#45;&gt;Node2</title>
<g id="a_edge8_Node000008_Node000002"><a xlink:title=" ">
<path fill="none" stroke="#63b8ff" d="M209.91,-241.88C218.36,-233.31 231.12,-219.53 240.08,-206 247.4,-194.95 283.26,-118.7 299.76,-83.38"/>
<polygon fill="#63b8ff" stroke="#63b8ff" points="302.97,-84.77 304.03,-74.22 296.63,-81.81 302.97,-84.77"/>
</a>
</g>
</g>
<!-- Node8&#45;&gt;Node4 -->
<g id="edge9_Node000008_Node000004" class="edge">
<title>Node8&#45;&gt;Node4</title>
<g id="a_edge9_Node000008_Node000004"><a xlink:title=" ">
<path fill="none" stroke="#63b8ff" d="M200.55,-241.58C198.86,-213.07 193.54,-123.74 191.21,-84.41"/>
<polygon fill="#63b8ff" stroke="#63b8ff" points="194.69,-84.11 190.61,-74.33 187.71,-84.52 194.69,-84.11"/>
</a>
</g>
</g>
<!-- Node8&#45;&gt;Node7 -->
<g id="edge11_Node000008_Node000007" class="edge">
<title>Node8&#45;&gt;Node7</title>
<g id="a_edge11_Node000008_Node000007"><a xlink:title=" ">
<path fill="none" stroke="#63b8ff" d="M194.1,-241.72C170.87,-211.47 100.59,-110.33 152.08,-55 188.51,-15.86 563.93,-23.22 652.86,-18.76"/>
<polygon fill="#63b8ff" stroke="#63b8ff" points="653.11,-22.25 662.85,-18.1 652.65,-15.26 653.11,-22.25"/>
</a>
</g>
</g>
<!-- Node9 -->
<g id="Node000009" class="node">
<title>Node9</title>
<g id="a_Node000009"><a xlink:title=" ">
<polygon fill="#e0e0e0" stroke="#999999" points="644.58,-19 597.58,-19 597.58,0 644.58,0 644.58,-19"/>
<text text-anchor="middle" x="621.08" y="-7" font-family="Helvetica,sans-Serif" font-size="10.00">vector</text>
</a>
</g>
</g>
<!-- Node8&#45;&gt;Node9 -->
<g id="edge10_Node000008_Node000009" class="edge">
<title>Node8&#45;&gt;Node9</title>
<g id="a_edge10_Node000008_Node000009"><a xlink:title=" ">
<path fill="none" stroke="#63b8ff" d="M203.4,-241.74C213.12,-205.36 250.74,-67.59 266.08,-55 314.63,-15.15 508.02,-10.49 587.11,-10.29"/>
<polygon fill="#63b8ff" stroke="#63b8ff" points="587.49,-13.79 597.48,-10.29 587.48,-6.79 587.49,-13.79"/>
</a>
</g>
</g>
<!-- Node10 -->
<g id="Node000010" class="node">
<title>Node10</title>
<g id="a_Node000010"><a xlink:href="safe__span_8hpp.html" target="_top" xlink:title=" ">
<polygon fill="white" stroke="#666666" points="623.08,-206 505.08,-206 505.08,-176 623.08,-176 623.08,-206"/>
<text text-anchor="start" x="513.08" y="-194" font-family="Helvetica,sans-Serif" font-size="10.00">unilink/memory/safe</text>
<text text-anchor="middle" x="564.08" y="-183" font-family="Helvetica,sans-Serif" font-size="10.00">_span.hpp</text>
</a>
</g>
</g>
<!-- Node8&#45;&gt;Node10 -->
<g id="edge12_Node000008_Node000010" class="edge">
<title>Node8&#45;&gt;Node10</title>
<g id="a_edge12_Node000008_Node000010"><a xlink:title=" ">
<path fill="none" stroke="#63b8ff" d="M253.86,-241.99C317.49,-231.74 424.6,-214.48 494.82,-203.16"/>
<polygon fill="#63b8ff" stroke="#63b8ff" points="495.59,-206.58 504.9,-201.54 494.47,-199.67 495.59,-206.58"/>
</a>
</g>
</g>
<!-- Node11 -->
<g id="Node000011" class="node">
<title>Node11</title>
<g id="a_Node000011"><a xlink:title=" ">
<polygon fill="#e0e0e0" stroke="#999999" points="665.08,-134.5 615.08,-134.5 615.08,-115.5 665.08,-115.5 665.08,-134.5"/>
<text text-anchor="middle" x="640.08" y="-122.5" font-family="Helvetica,sans-Serif" font-size="10.00">cstdint</text>
</a>
</g>
</g>
<!-- Node10&#45;&gt;Node11 -->
<g id="edge13_Node000010_Node000011" class="edge">
<title>Node10&#45;&gt;Node11</title>
<g id="a_edge13_Node000010_Node000011"><a xlink:title=" ">
<path fill="none" stroke="#63b8ff" d="M580.95,-175.8C593.03,-165.62 609.29,-151.93 621.7,-141.48"/>
<polygon fill="#63b8ff" stroke="#63b8ff" points="624.18,-143.96 629.58,-134.84 619.68,-138.61 624.18,-143.96"/>
</a>
</g>
</g>
<!-- Node12 -->
<g id="Node000012" class="node">
<title>Node12</title>
<g id="a_Node000012"><a xlink:title=" ">
<polygon fill="#e0e0e0" stroke="#999999" points="596.58,-134.5 531.58,-134.5 531.58,-115.5 596.58,-115.5 596.58,-134.5"/>
<text text-anchor="middle" x="564.08" y="-122.5" font-family="Helvetica,sans-Serif" font-size="10.00">stdexcept</text>
</a>
</g>
</g>
<!-- Node10&#45;&gt;Node12 -->
<g id="edge14_Node000010_Node000012" class="edge">
<title>Node10&#45;&gt;Node12</title>
<g id="a_edge14_Node000010_Node000012"><a xlink:title=" ">
<path fill="none" stroke="#63b8ff" d="M564.08,-175.8C564.08,-166.7 564.08,-154.79 564.08,-144.9"/>
<polygon fill="#63b8ff" stroke="#63b8ff" points="567.58,-144.84 564.08,-134.84 560.58,-144.84 567.58,-144.84"/>
</a>
</g>
</g>
<!-- Node13 -->
<g id="Node000013" class="node">
<title>Node13</title>
<g id="a_Node000013"><a xlink:title=" ">
<polygon fill="#e0e0e0" stroke="#999999" points="513.58,-134.5 444.58,-134.5 444.58,-115.5 513.58,-115.5 513.58,-134.5"/>
<text text-anchor="middle" x="479.08" y="-122.5" font-family="Helvetica,sans-Serif" font-size="10.00">type_traits</text>
</a>
</g>
</g>
<!-- Node10&#45;&gt;Node13 -->
<g id="edge15_Node000010_Node000013" class="edge">
<title>Node10&#45;&gt;Node13</title>
<g id="a_edge15_Node000010_Node000013"><a xlink:title=" ">
<path fill="none" stroke="#63b8ff" d="M545.22,-175.8C531.45,-165.43 512.82,-151.4 498.84,-140.88"/>
<polygon fill="#63b8ff" stroke="#63b8ff" points="500.92,-138.06 490.83,-134.84 496.71,-143.66 500.92,-138.06"/>
</a>
</g>
</g>
<!-- Node14&#45;&gt;Node5 -->
<g id="edge18_Node000014_Node000005" class="edge">
<title>Node14&#45;&gt;Node5</title>
<g id="a_edge18_Node000014_Node000005"><a xlink:title=" ">
<path fill="none" stroke="#63b8ff" d="M832.75,-251.41C938.95,-251.05 1136.16,-244.52 1299.08,-206 1375.54,-187.92 1418.12,-204.43 1463.08,-140 1484.71,-109.01 1477.69,-90.62 1465.08,-55 1461.33,-44.41 1453.87,-34.49 1446.71,-26.71"/>
<polygon fill="#63b8ff" stroke="#63b8ff" points="1448.77,-23.82 1439.24,-19.19 1443.8,-28.76 1448.77,-23.82"/>
</a>
</g>
</g>
<!-- Node14&#45;&gt;Node6 -->
<g id="edge19_Node000014_Node000006" class="edge">
<title>Node14&#45;&gt;Node6</title>
<g id="a_edge19_Node000014_Node000006"><a xlink:title=" ">
<path fill="none" stroke="#63b8ff" d="M679.31,-250.22C625.17,-247.06 552.53,-236.63 496.08,-206 460.97,-186.95 449.64,-177.2 435.08,-140 430.22,-127.58 427.24,-120.79 435.08,-110 455.55,-81.83 494.29,-71.14 525.37,-67.25"/>
<polygon fill="#63b8ff" stroke="#63b8ff" points="526,-70.7 535.57,-66.17 525.26,-63.74 526,-70.7"/>
</a>
</g>
</g>
<!-- Node14&#45;&gt;Node9 -->
<g id="edge20_Node000014_Node000009" class="edge">
<title>Node14&#45;&gt;Node9</title>
<g id="a_edge20_Node000014_Node000009"><a xlink:title=" ">
<path fill="none" stroke="#63b8ff" d="M679.4,-248.13C600.71,-244.18 485.11,-233.71 451.08,-206 416.98,-178.23 404.78,-147.9 427.08,-110 461.19,-52.04 541.39,-26.61 587.28,-16.47"/>
<polygon fill="#63b8ff" stroke="#63b8ff" points="588.27,-19.84 597.34,-14.37 586.84,-12.98 588.27,-19.84"/>
</a>
</g>
</g>
<!-- Node14&#45;&gt;Node10 -->
<g id="edge57_Node000014_Node000010" class="edge">
<title>Node14&#45;&gt;Node10</title>
<g id="a_edge57_Node000014_Node000010"><a xlink:title=" ">
<path fill="none" stroke="#63b8ff" d="M728.16,-241.99C699.93,-233.39 655.5,-219.86 620,-209.04"/>
<polygon fill="#63b8ff" stroke="#63b8ff" points="620.83,-205.63 610.24,-206.06 618.79,-212.33 620.83,-205.63"/>
</a>
</g>
</g>
<!-- Node15 -->
<g id="Node000015" class="node">
<title>Node15</title>
<g id="a_Node000015"><a xlink:title=" ">
<polygon fill="#e0e0e0" stroke="#999999" points="1552.08,-200.5 1496.08,-200.5 1496.08,-181.5 1552.08,-181.5 1552.08,-200.5"/>
<text text-anchor="middle" x="1524.08" y="-188.5" font-family="Helvetica,sans-Serif" font-size="10.00">optional</text>
</a>
</g>
</g>
<!-- Node14&#45;&gt;Node15 -->
<g id="edge17_Node000014_Node000015" class="edge">
<title>Node14&#45;&gt;Node15</title>
<g id="a_edge17_Node000014_Node000015"><a xlink:title=" ">
<path fill="none" stroke="#63b8ff" d="M832.7,-248.33C993.1,-243.37 1359.51,-229.76 1482.08,-206 1485.51,-205.34 1489.03,-204.47 1492.53,-203.49"/>
<polygon fill="#63b8ff" stroke="#63b8ff" points="1493.62,-206.81 1502.14,-200.51 1491.55,-200.13 1493.62,-206.81"/>
</a>
</g>
</g>
<!-- Node16 -->
<g id="Node000016" class="node">
<title>Node16</title>
<g id="a_Node000016"><a xlink:href="common_8hpp.html" target="_top" xlink:title=" ">
<polygon fill="white" stroke="#666666" points="1051.58,-200.5 908.58,-200.5 908.58,-181.5 1051.58,-181.5 1051.58,-200.5"/>
<text text-anchor="middle" x="980.08" y="-188.5" font-family="Helvetica,sans-Serif" font-size="10.00">unilink/base/common.hpp</text>
</a>
</g>
</g>
<!-- Node14&#45;&gt;Node16 -->
<g id="edge21_Node000014_Node000016" class="edge">
<title>Node14&#45;&gt;Node16</title>
<g id="a_edge21_Node000014_Node000016"><a xlink:title=" ">
<path fill="none" stroke="#63b8ff" d="M788.65,-241.99C828.05,-231.7 894.47,-214.36 937.79,-203.04"/>
<polygon fill="#63b8ff" stroke="#63b8ff" points="938.68,-206.43 947.47,-200.52 936.91,-199.66 938.68,-206.43"/>
</a>
</g>
</g>
<!-- Node30 -->
<g id="Node000030" class="node">
<title>Node30</title>
<g id="a_Node000030"><a xlink:href="error__codes_8hpp.html" target="_top" xlink:title=" ">
<polygon fill="white" stroke="#666666" points="1290.08,-206 1188.08,-206 1188.08,-176 1290.08,-176 1290.08,-206"/>
<text text-anchor="start" x="1196.08" y="-194" font-family="Helvetica,sans-Serif" font-size="10.00">unilink/base/error</text>
<text text-anchor="middle" x="1239.08" y="-183" font-family="Helvetica,sans-Serif" font-size="10.00">_codes.hpp</text>
</a>
</g>
</g>
<!-- Node14&#45;&gt;Node30 -->
<g id="edge55_Node000014_Node000030" class="edge">
<title>Node14&#45;&gt;Node30</title>
<g id="a_edge55_Node000014_Node000030"><a xlink:title=" ">
<path fill="none" stroke="#63b8ff" d="M826.31,-241.99C921.04,-230.52 1088.19,-210.28 1177.98,-199.4"/>
<polygon fill="#63b8ff" stroke="#63b8ff" points="1178.5,-202.86 1188.01,-198.19 1177.66,-195.91 1178.5,-202.86"/>
</a>
</g>
</g>
<!-- Node16&#45;&gt;Node2 -->
<g id="edge26_Node000016_Node000002" class="edge">
<title>Node16&#45;&gt;Node2</title>
<g id="a_edge26_Node000016_Node000002"><a xlink:title=" ">
<path fill="none" stroke="#63b8ff" d="M908.57,-187.63C851.43,-183.28 770.67,-171.47 707.08,-140 689.32,-131.21 692.1,-118.25 674.08,-110 617.36,-84.03 434.84,-71.81 350.97,-67.46"/>
<polygon fill="#63b8ff" stroke="#63b8ff" points="350.93,-63.95 340.76,-66.94 350.57,-70.94 350.93,-63.95"/>
</a>
</g>
</g>
<!-- Node16&#45;&gt;Node5 -->
<g id="edge31_Node000016_Node000005" class="edge">
<title>Node16&#45;&gt;Node5</title>
<g id="a_edge31_Node000016_Node000005"><a xlink:title=" ">
<path fill="none" stroke="#63b8ff" d="M1051.71,-184.45C1156.53,-175.77 1342.07,-158.09 1367.08,-140 1404.16,-113.17 1419.95,-58.2 1425.91,-29.27"/>
<polygon fill="#63b8ff" stroke="#63b8ff" points="1429.38,-29.72 1427.79,-19.25 1422.5,-28.43 1429.38,-29.72"/>
</a>
</g>
</g>
<!-- Node16&#45;&gt;Node6 -->
<g id="edge32_Node000016_Node000006" class="edge">
<title>Node16&#45;&gt;Node6</title>
<g id="a_edge32_Node000016_Node000006"><a xlink:title=" ">
<path fill="none" stroke="#63b8ff" d="M914.3,-181.42C868.46,-174.01 806.56,-161.08 755.08,-140 731.8,-130.47 729.86,-120.68 707.08,-110 677.46,-96.11 642.32,-84.67 615.31,-76.87"/>
<polygon fill="#63b8ff" stroke="#63b8ff" points="615.97,-73.42 605.39,-74.06 614.06,-80.16 615.97,-73.42"/>
</a>
</g>
</g>
<!-- Node16&#45;&gt;Node9 -->
<g id="edge34_Node000016_Node000009" class="edge">
<title>Node16&#45;&gt;Node9</title>
<g id="a_edge34_Node000016_Node000009"><a xlink:title=" ">
<path fill="none" stroke="#63b8ff" d="M923.35,-181.46C883.96,-174.06 831.04,-161.13 788.08,-140 771.67,-131.93 679.53,-57.88 639.57,-25.52"/>
<polygon fill="#63b8ff" stroke="#63b8ff" points="641.64,-22.69 631.67,-19.11 637.23,-28.13 641.64,-22.69"/>
</a>
</g>
</g>
<!-- Node16&#45;&gt;Node11 -->
<g id="edge23_Node000016_Node000011" class="edge">
<title>Node16&#45;&gt;Node11</title>
<g id="a_edge23_Node000016_Node000011"><a xlink:title=" ">
<path fill="none" stroke="#63b8ff" d="M908.47,-181.79C847,-173.88 756.36,-160.11 679.08,-140 676.58,-139.35 674.02,-138.61 671.46,-137.81"/>
<polygon fill="#63b8ff" stroke="#63b8ff" points="672.32,-134.41 661.73,-134.55 670.1,-141.05 672.32,-134.41"/>
</a>
</g>
</g>
<!-- Node16&#45;&gt;Node12 -->
<g id="edge30_Node000016_Node000012" class="edge">
<title>Node16&#45;&gt;Node12</title>
<g id="a_edge30_Node000016_Node000012"><a xlink:title=" ">
<path fill="none" stroke="#63b8ff" d="M908.36,-184.46C832.53,-177.67 709.79,-163.99 606.08,-140 603.11,-139.31 600.04,-138.5 596.99,-137.62"/>
<polygon fill="#63b8ff" stroke="#63b8ff" points="597.99,-134.27 587.4,-134.64 595.92,-140.95 597.99,-134.27"/>
</a>
</g>
</g>
<!-- Node17 -->
<g id="Node000017" class="node">
<title>Node17</title>
<g id="a_Node000017"><a xlink:title=" ">
<polygon fill="#e0e0e0" stroke="#999999" points="1091.08,-19 1041.08,-19 1041.08,0 1091.08,0 1091.08,-19"/>
<text text-anchor="middle" x="1066.08" y="-7" font-family="Helvetica,sans-Serif" font-size="10.00">chrono</text>
</a>
</g>
</g>
<!-- Node16&#45;&gt;Node17 -->
<g id="edge22_Node000016_Node000017" class="edge">
<title>Node16&#45;&gt;Node17</title>
<g id="a_edge22_Node000016_Node000017"><a xlink:title=" ">
<path fill="none" stroke="#63b8ff" d="M1051.78,-185.33C1153.81,-177.94 1330.78,-162.09 1350.08,-140 1365.83,-121.98 1339.09,-59.45 1334.08,-55 1300.17,-24.89 1165.99,-14.91 1101.31,-11.8"/>
<polygon fill="#63b8ff" stroke="#63b8ff" points="1101.33,-8.3 1091.18,-11.35 1101.02,-15.29 1101.33,-8.3"/>
</a>
</g>
</g>
<!-- Node18 -->
<g id="Node000018" class="node">
<title>Node18</title>
<g id="a_Node000018"><a xlink:title=" ">
<polygon fill="#e0e0e0" stroke="#999999" points="973.08,-134.5 923.08,-134.5 923.08,-115.5 973.08,-115.5 973.08,-134.5"/>
<text text-anchor="middle" x="948.08" y="-122.5" font-family="Helvetica,sans-Serif" font-size="10.00">cstring</text>
</a>
</g>
</g>
<!-- Node16&#45;&gt;Node18 -->
<g id="edge24_Node000016_Node000018" class="edge">
<title>Node16&#45;&gt;Node18</title>
<g id="a_edge24_Node000016_Node000018"><a xlink:title=" ">
<path fill="none" stroke="#63b8ff" d="M975.77,-181.37C971.02,-171.88 963.26,-156.36 957.16,-144.16"/>
<polygon fill="#63b8ff" stroke="#63b8ff" points="960.14,-142.28 952.53,-134.91 953.88,-145.41 960.14,-142.28"/>
</a>
</g>
</g>
<!-- Node19 -->
<g id="Node000019" class="node">
<title>Node19</title>
<g id="a_Node000019"><a xlink:title=" ">
<polygon fill="#e0e0e0" stroke="#999999" points="1035.08,-134.5 991.08,-134.5 991.08,-115.5 1035.08,-115.5 1035.08,-134.5"/>
<text text-anchor="middle" x="1013.08" y="-122.5" font-family="Helvetica,sans-Serif" font-size="10.00">ctime</text>
</a>
</g>
</g>
<!-- Node16&#45;&gt;Node19 -->
<g id="edge25_Node000016_Node000019" class="edge">
<title>Node16&#45;&gt;Node19</title>
<g id="a_edge25_Node000016_Node000019"><a xlink:title=" ">
<path fill="none" stroke="#63b8ff" d="M984.53,-181.37C989.47,-171.78 997.59,-156.05 1003.9,-143.8"/>
<polygon fill="#63b8ff" stroke="#63b8ff" points="1007.02,-145.4 1008.49,-134.91 1000.8,-142.19 1007.02,-145.4"/>
</a>
</g>
</g>
<!-- Node20 -->
<g id="Node000020" class="node">
<title>Node20</title>
<g id="a_Node000020"><a xlink:title=" ">
<polygon fill="#e0e0e0" stroke="#999999" points="1109.08,-134.5 1053.08,-134.5 1053.08,-115.5 1109.08,-115.5 1109.08,-134.5"/>
<text text-anchor="middle" x="1081.08" y="-122.5" font-family="Helvetica,sans-Serif" font-size="10.00">iomanip</text>
</a>
</g>
</g>
<!-- Node16&#45;&gt;Node20 -->
<g id="edge27_Node000016_Node000020" class="edge">
<title>Node16&#45;&gt;Node20</title>
<g id="a_edge27_Node000016_Node000020"><a xlink:title=" ">
<path fill="none" stroke="#63b8ff" d="M993.7,-181.37C1010.42,-170.78 1038.99,-152.67 1058.89,-140.06"/>
<polygon fill="#63b8ff" stroke="#63b8ff" points="1060.78,-143.01 1067.35,-134.7 1057.03,-137.1 1060.78,-143.01"/>
</a>
</g>
</g>
<!-- Node21 -->
<g id="Node000021" class="node">
<title>Node21</title>
<g id="a_Node000021"><a xlink:title=" ">
<polygon fill="#e0e0e0" stroke="#999999" points="1187.08,-134.5 1127.08,-134.5 1127.08,-115.5 1187.08,-115.5 1187.08,-134.5"/>
<text text-anchor="middle" x="1157.08" y="-122.5" font-family="Helvetica,sans-Serif" font-size="10.00">iostream</text>
</a>
</g>
</g>
<!-- Node16&#45;&gt;Node21 -->
<g id="edge28_Node000016_Node000021" class="edge">
<title>Node16&#45;&gt;Node21</title>
<g id="a_edge28_Node000016_Node000021"><a xlink:title=" ">
<path fill="none" stroke="#63b8ff" d="M1003.95,-181.37C1034.78,-170.22 1088.63,-150.75 1123.56,-138.12"/>
<polygon fill="#63b8ff" stroke="#63b8ff" points="1125.09,-141.29 1133.31,-134.6 1122.71,-134.71 1125.09,-141.29"/>
</a>
</g>
</g>
<!-- Node22 -->
<g id="Node000022" class="node">
<title>Node22</title>
<g id="a_Node000022"><a xlink:title=" ">
<polygon fill="#e0e0e0" stroke="#999999" points="1261.08,-134.5 1205.08,-134.5 1205.08,-115.5 1261.08,-115.5 1261.08,-134.5"/>
<text text-anchor="middle" x="1233.08" y="-122.5" font-family="Helvetica,sans-Serif" font-size="10.00">sstream</text>
</a>
</g>
</g>
<!-- Node16&#45;&gt;Node22 -->
<g id="edge29_Node000016_Node000022" class="edge">
<title>Node16&#45;&gt;Node22</title>
<g id="a_edge29_Node000016_Node000022"><a xlink:title=" ">
<path fill="none" stroke="#63b8ff" d="M1024.81,-181.48C1068.81,-172.66 1137.7,-157.71 1196.08,-140 1198,-139.42 1199.97,-138.78 1201.94,-138.12"/>
<polygon fill="#63b8ff" stroke="#63b8ff" points="1203.48,-141.29 1211.73,-134.64 1201.13,-134.69 1203.48,-141.29"/>
</a>
</g>
</g>
<!-- Node23 -->
<g id="Node000023" class="node">
<title>Node23</title>
<g id="a_Node000023"><a xlink:title=" ">
<polygon fill="#e0e0e0" stroke="#999999" points="1324.58,-134.5 1279.58,-134.5 1279.58,-115.5 1324.58,-115.5 1324.58,-134.5"/>
<text text-anchor="middle" x="1302.08" y="-122.5" font-family="Helvetica,sans-Serif" font-size="10.00">utility</text>
</a>
</g>
</g>
<!-- Node16&#45;&gt;Node23 -->
<g id="edge33_Node000016_Node000023" class="edge">
<title>Node16&#45;&gt;Node23</title>
<g id="a_edge33_Node000016_Node000023"><a xlink:title=" ">
<path fill="none" stroke="#63b8ff" d="M1051.8,-182.53C1111.18,-175.19 1197.29,-161.85 1270.08,-140 1271.72,-139.51 1273.38,-138.96 1275.05,-138.36"/>
<polygon fill="#63b8ff" stroke="#63b8ff" points="1276.43,-141.58 1284.43,-134.63 1273.84,-135.07 1276.43,-141.58"/>
</a>
</g>
</g>
<!-- Node24 -->
<g id="Node000024" class="node">
<title>Node24</title>
<g id="a_Node000024"><a xlink:href="platform_8hpp.html" target="_top" xlink:title=" ">
<polygon fill="white" stroke="#666666" points="1325.08,-74 1183.08,-74 1183.08,-55 1325.08,-55 1325.08,-74"/>
<text text-anchor="middle" x="1254.08" y="-62" font-family="Helvetica,sans-Serif" font-size="10.00">unilink/base/platform.hpp</text>
</a>
</g>
</g>
<!-- Node16&#45;&gt;Node24 -->
<g id="edge35_Node000016_Node000024" class="edge">
<title>Node16&#45;&gt;Node24</title>
<g id="a_edge35_Node000016_Node000024"><a xlink:title=" ">
<path fill="none" stroke="#63b8ff" d="M1051.75,-184.83C1149.57,-177.03 1314.92,-160.91 1333.08,-140 1341.82,-129.93 1339.81,-121.51 1333.08,-110 1324.4,-95.14 1308.73,-84.86 1293.62,-77.95"/>
<polygon fill="#63b8ff" stroke="#63b8ff" points="1294.93,-74.71 1284.35,-74.08 1292.23,-81.17 1294.93,-74.71"/>
</a>
</g>
</g>
<!-- Node25 -->
<g id="Node000025" class="node">
<title>Node25</title>
<g id="a_Node000025"><a xlink:href="logger_8hpp.html" target="_top" xlink:title=" ">
<polygon fill="white" stroke="#666666" points="905.08,-140 797.08,-140 797.08,-110 905.08,-110 905.08,-140"/>
<text text-anchor="start" x="805.08" y="-128" font-family="Helvetica,sans-Serif" font-size="10.00">unilink/diagnostics</text>
<text text-anchor="middle" x="851.08" y="-117" font-family="Helvetica,sans-Serif" font-size="10.00">/logger.hpp</text>
</a>
</g>
</g>
<!-- Node16&#45;&gt;Node25 -->
<g id="edge38_Node000016_Node000025" class="edge">
<title>Node16&#45;&gt;Node25</title>
<g id="a_edge38_Node000016_Node000025"><a xlink:title=" ">
<path fill="none" stroke="#63b8ff" d="M962.68,-181.37C943.78,-171.99 913.01,-156.72 888.56,-144.59"/>
<polygon fill="#63b8ff" stroke="#63b8ff" points="890.05,-141.42 879.53,-140.12 886.94,-147.7 890.05,-141.42"/>
</a>
</g>
</g>
<!-- Node24&#45;&gt;Node5 -->
<g id="edge36_Node000024_Node000005" class="edge">
<title>Node24&#45;&gt;Node5</title>
<g id="a_edge36_Node000024_Node000005"><a xlink:title=" ">
<path fill="none" stroke="#63b8ff" d="M1282.2,-54.98C1313.63,-45.46 1364.43,-30.08 1397.28,-20.13"/>
<polygon fill="#63b8ff" stroke="#63b8ff" points="1398.31,-23.48 1406.86,-17.23 1396.28,-16.78 1398.31,-23.48"/>
</a>
</g>
</g>
<!-- Node24&#45;&gt;Node7 -->
<g id="edge37_Node000024_Node000007" class="edge">
<title>Node24&#45;&gt;Node7</title>
<g id="a_edge37_Node000024_Node000007"><a xlink:title=" ">
<path fill="none" stroke="#63b8ff" d="M1182.87,-56.48C1097.64,-48.05 950.28,-33.36 813.54,-19.15"/>
<polygon fill="#63b8ff" stroke="#63b8ff" points="813.6,-15.63 803.29,-18.08 812.87,-22.6 813.6,-15.63"/>
</a>
</g>
</g>
<!-- Node25&#45;&gt;Node2 -->
<g id="edge41_Node000025_Node000002" class="edge">
<title>Node25&#45;&gt;Node2</title>
<g id="a_edge41_Node000025_Node000002"><a xlink:title=" ">
<path fill="none" stroke="#63b8ff" d="M797.03,-118.18C689.1,-106.55 448.87,-80.67 350.91,-70.11"/>
<polygon fill="#63b8ff" stroke="#63b8ff" points="351.1,-66.61 340.78,-69.02 350.35,-73.57 351.1,-66.61"/>
</a>
</g>
</g>
<!-- Node25&#45;&gt;Node4 -->
<g id="edge42_Node000025_Node000004" class="edge">
<title>Node25&#45;&gt;Node4</title>
<g id="a_edge42_Node000025_Node000004"><a xlink:title=" ">
<path fill="none" stroke="#63b8ff" d="M796.73,-119.54C672.03,-109.27 368.28,-84.08 266.08,-74 254.13,-72.82 241.13,-71.41 229.31,-70.09"/>
<polygon fill="#63b8ff" stroke="#63b8ff" points="229.63,-66.6 219.3,-68.95 228.84,-73.55 229.63,-66.6"/>
</a>
</g>
</g>
<!-- Node25&#45;&gt;Node5 -->
<g id="edge43_Node000025_Node000005" class="edge">
<title>Node25&#45;&gt;Node5</title>
<g id="a_edge43_Node000025_Node000005"><a xlink:title=" ">
<path fill="none" stroke="#63b8ff" d="M905.29,-111.47C908.26,-110.94 911.2,-110.44 914.08,-110 1099.27,-81.62 1157.29,-136.01 1334.08,-74 1364.17,-63.45 1393.92,-41.12 1411.9,-25.96"/>
<polygon fill="#63b8ff" stroke="#63b8ff" points="1414.46,-28.37 1419.73,-19.18 1409.88,-23.08 1414.46,-28.37"/>
</a>
</g>
</g>
<!-- Node25&#45;&gt;Node6 -->
<g id="edge44_Node000025_Node000006" class="edge">
<title>Node25&#45;&gt;Node6</title>
<g id="a_edge44_Node000025_Node000006"><a xlink:title=" ">
<path fill="none" stroke="#63b8ff" d="M796.96,-112.65C745.18,-101.79 667.9,-85.59 618.76,-75.29"/>
<polygon fill="#63b8ff" stroke="#63b8ff" points="619.22,-71.81 608.72,-73.18 617.78,-78.66 619.22,-71.81"/>
</a>
</g>
</g>
<!-- Node25&#45;&gt;Node7 -->
<g id="edge54_Node000025_Node000007" class="edge">
<title>Node25&#45;&gt;Node7</title>
<g id="a_edge54_Node000025_Node000007"><a xlink:title=" ">
<path fill="none" stroke="#63b8ff" d="M848.01,-109.98C844.06,-94.81 835.87,-70.68 821.08,-55 807.43,-40.53 788.04,-30.03 770.94,-22.87"/>
<polygon fill="#63b8ff" stroke="#63b8ff" points="771.78,-19.44 761.19,-19.04 769.22,-25.96 771.78,-19.44"/>
</a>
</g>
</g>
<!-- Node25&#45;&gt;Node9 -->
<g id="edge45_Node000025_Node000009" class="edge">
<title>Node25&#45;&gt;Node9</title>
<g id="a_edge45_Node000025_Node000009"><a xlink:title=" ">
<path fill="none" stroke="#63b8ff" d="M840.92,-109.93C828.87,-94.24 807.31,-69.21 783.08,-55 777.44,-51.69 700.12,-31.16 654.38,-19.17"/>
<polygon fill="#63b8ff" stroke="#63b8ff" points="655.14,-15.76 644.58,-16.61 653.37,-22.53 655.14,-15.76"/>
</a>
</g>
</g>
<!-- Node25&#45;&gt;Node17 -->
<g id="edge40_Node000025_Node000017" class="edge">
<title>Node25&#45;&gt;Node17</title>
<g id="a_edge40_Node000025_Node000017"><a xlink:title=" ">
<path fill="none" stroke="#63b8ff" d="M905.15,-111.53C934.02,-103.44 969.4,-91.17 998.08,-74 1019.4,-61.24 1039.65,-40.89 1052.42,-26.68"/>
<polygon fill="#63b8ff" stroke="#63b8ff" points="1055.07,-28.95 1059.02,-19.12 1049.8,-24.34 1055.07,-28.95"/>
</a>
</g>
</g>
<!-- Node26 -->
<g id="Node000026" class="node">
<title>Node26</title>
<g id="a_Node000026"><a xlink:title=" ">
<polygon fill="#e0e0e0" stroke="#999999" points="1023.08,-19 973.08,-19 973.08,0 1023.08,0 1023.08,-19"/>
<text text-anchor="middle" x="998.08" y="-7" font-family="Helvetica,sans-Serif" font-size="10.00">atomic</text>
</a>
</g>
</g>
<!-- Node25&#45;&gt;Node26 -->
<g id="edge39_Node000025_Node000026" class="edge">
<title>Node25&#45;&gt;Node26</title>
<g id="a_edge39_Node000025_Node000026"><a xlink:title=" ">
<path fill="none" stroke="#63b8ff" d="M898.71,-109.98C929.85,-99.95 966.77,-86.13 978.08,-74 989.53,-61.73 994.42,-42.95 996.52,-28.99"/>
<polygon fill="#63b8ff" stroke="#63b8ff" points="999.99,-29.39 997.67,-19.05 993.04,-28.58 999.99,-29.39"/>
</a>
</g>
</g>
<!-- Node27 -->
<g id="Node000027" class="node">
<title>Node27</title>
<g id="a_Node000027"><a xlink:href="log__rotation_8hpp.html" target="_top" xlink:title=" ">
<polygon fill="white" stroke="#666666" points="969.08,-74 873.08,-74 873.08,-55 969.08,-55 969.08,-74"/>
<text text-anchor="middle" x="921.08" y="-62" font-family="Helvetica,sans-Serif" font-size="10.00">log_rotation.hpp</text>
</a>
</g>
</g>
<!-- Node25&#45;&gt;Node27 -->
<g id="edge46_Node000025_Node000027" class="edge">
<title>Node25&#45;&gt;Node27</title>
<g id="a_edge46_Node000025_Node000027"><a xlink:title=" ">
<path fill="none" stroke="#63b8ff" d="M868.03,-109.84C878.5,-101.09 891.94,-89.85 902.67,-80.88"/>
<polygon fill="#63b8ff" stroke="#63b8ff" points="905.16,-83.36 910.59,-74.27 900.67,-77.99 905.16,-83.36"/>
</a>
</g>
</g>
<!-- Node27&#45;&gt;Node5 -->
<g id="edge51_Node000027_Node000005" class="edge">
<title>Node27&#45;&gt;Node5</title>
<g id="a_edge51_Node000027_Node000005"><a xlink:title=" ">
<path fill="none" stroke="#63b8ff" d="M969.33,-58.47C1072.16,-47.74 1310.54,-22.87 1397.01,-13.85"/>
<polygon fill="#63b8ff" stroke="#63b8ff" points="1397.44,-17.32 1407.02,-12.8 1396.71,-10.36 1397.44,-17.32"/>
</a>
</g>
</g>
<!-- Node27&#45;&gt;Node7 -->
<g id="edge53_Node000027_Node000007" class="edge">
<title>Node27&#45;&gt;Node7</title>
<g id="a_edge53_Node000027_Node000007"><a xlink:title=" ">
<path fill="none" stroke="#63b8ff" d="M890.88,-54.98C859.04,-46.01 808.72,-31.82 773.48,-21.89"/>
<polygon fill="#63b8ff" stroke="#63b8ff" points="774.1,-18.43 763.52,-19.08 772.2,-25.16 774.1,-18.43"/>
</a>
</g>
</g>
<!-- Node27&#45;&gt;Node9 -->
<g id="edge52_Node000027_Node000009" class="edge">
<title>Node27&#45;&gt;Node9</title>
<g id="a_edge52_Node000027_Node000009"><a xlink:title=" ">
<path fill="none" stroke="#63b8ff" d="M872.61,-56.72C821.03,-49.21 736.84,-36.13 654.81,-18.99"/>
<polygon fill="#63b8ff" stroke="#63b8ff" points="655.32,-15.52 644.82,-16.88 653.88,-22.37 655.32,-15.52"/>
</a>
</g>
</g>
<!-- Node27&#45;&gt;Node17 -->
<g id="edge48_Node000027_Node000017" class="edge">
<title>Node27&#45;&gt;Node17</title>
<g id="a_edge48_Node000027_Node000017"><a xlink:title=" ">
<path fill="none" stroke="#63b8ff" d="M944.38,-54.98C968.33,-46.23 1005.86,-32.51 1032.91,-22.62"/>
<polygon fill="#63b8ff" stroke="#63b8ff" points="1034.17,-25.89 1042.36,-19.17 1031.77,-19.32 1034.17,-25.89"/>
</a>
</g>
</g>
<!-- Node27&#45;&gt;Node26 -->
<g id="edge47_Node000027_Node000026" class="edge">
<title>Node27&#45;&gt;Node26</title>
<g id="a_edge47_Node000027_Node000026"><a xlink:title=" ">
<path fill="none" stroke="#63b8ff" d="M933.45,-54.98C945.17,-46.92 963,-34.65 976.97,-25.03"/>
<polygon fill="#63b8ff" stroke="#63b8ff" points="979.23,-27.72 985.49,-19.17 975.26,-21.96 979.23,-27.72"/>
</a>
</g>
</g>
<!-- Node28 -->
<g id="Node000028" class="node">
<title>Node28</title>
<g id="a_Node000028"><a xlink:title=" ">
<polygon fill="#e0e0e0" stroke="#999999" points="955.08,-19 887.08,-19 887.08,0 955.08,0 955.08,-19"/>
<text text-anchor="middle" x="921.08" y="-7" font-family="Helvetica,sans-Serif" font-size="10.00">filesystem</text>
</a>
</g>
</g>
<!-- Node27&#45;&gt;Node28 -->
<g id="edge49_Node000027_Node000028" class="edge">
<title>Node27&#45;&gt;Node28</title>
<g id="a_edge49_Node000027_Node000028"><a xlink:title=" ">
<path fill="none" stroke="#63b8ff" d="M921.08,-54.75C921.08,-47.8 921.08,-37.85 921.08,-29.13"/>
<polygon fill="#63b8ff" stroke="#63b8ff" points="924.58,-29.09 921.08,-19.09 917.58,-29.09 924.58,-29.09"/>
</a>
</g>
</g>
<!-- Node29 -->
<g id="Node000029" class="node">
<title>Node29</title>
<g id="a_Node000029"><a xlink:title=" ">
<polygon fill="#e0e0e0" stroke="#999999" points="869.08,-19 821.08,-19 821.08,0 869.08,0 869.08,-19"/>
<text text-anchor="middle" x="845.08" y="-7" font-family="Helvetica,sans-Serif" font-size="10.00">mutex</text>
</a>
</g>
</g>
<!-- Node27&#45;&gt;Node29 -->
<g id="edge50_Node000027_Node000029" class="edge">
<title>Node27&#45;&gt;Node29</title>
<g id="a_edge50_Node000027_Node000029"><a xlink:title=" ">
<path fill="none" stroke="#63b8ff" d="M908.87,-54.98C897.31,-46.92 879.71,-34.65 865.92,-25.03"/>
<polygon fill="#63b8ff" stroke="#63b8ff" points="867.72,-22.02 857.51,-19.17 863.71,-27.76 867.72,-22.02"/>
</a>
</g>
</g>
<!-- Node30&#45;&gt;Node5 -->
<g id="edge56_Node000030_Node000005" class="edge">
<title>Node30&#45;&gt;Node5</title>
<g id="a_edge56_Node000030_Node000005"><a xlink:title=" ">
<path fill="none" stroke="#63b8ff" d="M1290.56,-184.57C1344.65,-177.68 1424.46,-163.74 1443.08,-140 1468.58,-107.5 1450.56,-55.45 1438.15,-28.29"/>
<polygon fill="#63b8ff" stroke="#63b8ff" points="1441.26,-26.69 1433.77,-19.2 1434.95,-29.72 1441.26,-26.69"/>
</a>
</g>
</g>
</g>
</svg>

<g id="navigator" transform="translate(0 0)" fill="#404254">
  <rect fill="#f2f5e9" fill-opacity="0.5" stroke="#606060" stroke-width=".5" x="0" y="0" width="60" height="60"/>
  <use id="zoomplus" xlink:href="#zoomPlus" x="17" y="9" onmousedown="handleZoom(evt,'in')"/>
  <use id="zoomminus" xlink:href="#zoomMin" x="42" y="9" onmousedown="handleZoom(evt,'out')"/>
  <use id="reset" xlink:href="#resetDef" x="30" y="36" onmousedown="handleReset()"/>
   <use id="arrowup" xlink:href="#arrowUp" x="0" y="0" onmousedown="handlePan(0,-1)"/>
  <use id="arrowright" xlink:href="#arrowRight" x="0" y="0" onmousedown="handlePan(1,0)"/>
  <use id="arrowdown" xlink:href="#arrowDown" x="0" y="0" onmousedown="handlePan(0,1)"/>
  <use id="arrowleft" xlink:href="#arrowLeft" x="0" y="0" onmousedown="handlePan(-1,0)"/>
</g>
<svg viewBox="0 0 15 15" width="100%" height="30px" preserveAspectRatio="xMaxYMin meet">
 <g id="arrow_out" transform="scale(0.3 0.3)">
  <a xlink:href="ichannel_8hpp__incl_org.svg" target="_base">
   <rect id="button" ry="5" rx="5" y="6" x="6" height="38" width="38"
        fill="#f2f5e9" fill-opacity="0.5" stroke="#606060" stroke-width="1.0"/>
   <path id="arrow"
     d="M 11.500037,31.436501 C 11.940474,20.09759 22.043105,11.32322 32.158766,21.979434 L 37.068811,17.246167 C 37.068811,17.246167 37.088388,32 37.088388,32 L 22.160133,31.978069 C 22.160133,31.978069 26.997745,27.140456 26.997745,27.140456 C 18.528582,18.264221 13.291696,25.230495 11.500037,31.436501 z"
     style="fill:#404040;"/>
  </a>
 </g>
</svg>

<style type='text/css'>
<![CDATA[
[data-mouse-over-selected='false'] { opacity: 0.7; }
[data-mouse-over-selected='true']  { opacity: 1.0; }
]]>
</style>
<script type="application/ecmascript"><![CDATA[
document.addEventListener('DOMContentLoaded', (event) => {
  highlightEdges();
  highlightAdjacentNodes();
});
]]></script>
</svg>
