<?xml version="1.0" encoding="UTF-8" standalone="no"?>
<!DOCTYPE svg PUBLIC "-//W3C//DTD SVG 1.1//EN"
 "http://www.w3.org/Graphics/SVG/1.1/DTD/svg11.dtd">
<!-- Generated by graphviz version 2.43.0 (0)
 -->
<!-- Title: unilink/wrapper/ichannel.hpp Pages: 1 -->
<!--zoomable 291 -->

<svg id="main" version="1.1" xmlns="http://www.w3.org/2000/svg" xmlns:xlink="http://www.w3.org/1999/xlink" xml:space="preserve" onload="init(evt)">
<style type="text/css"><![CDATA[
.node, .edge {opacity: 0.7;}
.node.selected, .edge.selected {opacity: 1;}
.edge:hover path { stroke: red; }
.edge:hover polygon { stroke: red; fill: red; }
]]></style>

<defs>
  <circle id="rim" cx="0" cy="0" r="7"/>
  <circle id="rim2" cx="0" cy="0" r="3.5"/>
  <g id="zoomPlus">
    <use xlink:href="#rim" fill="#404040"><set attributeName="fill" to="#808080" begin="zoomplus.mouseover" end="zoomplus.mouseout"/></use>
    <path d="M-4,0h8M0,-4v8" fill="none" stroke="white" stroke-width="1.5" pointer-events="none"/>
  </g>
  <g id="zoomMin">
    <use xlink:href="#rim" fill="#404040"><set attributeName="fill" to="#808080" begin="zoomminus.mouseover" end="zoomminus.mouseout"/></use>
    <path d="M-4,0h8" fill="none" stroke="white" stroke-width="1.5" pointer-events="none"/>
  </g>
  <g id="arrowUp" transform="translate(30 24)">
    <use xlink:href="#rim"/>
    <path pointer-events="none" fill="none" stroke="white" stroke-width="1.5" d="M0,-3.0v7 M-2.5,-0.5L0,-3.0L2.5,-0.5"/>
  </g>
  <g id="arrowRight" transform="rotate(90) translate(36 -43)">
    <use xlink:href="#rim"/>
    <path pointer-events="none" fill="none" stroke="white" stroke-width="1.5" d="M0,-3.0v7 M-2.5,-0.5L0,-3.0L2.5,-0.5"/>
  </g>
  <g id="arrowDown" transform="rotate(180) translate(-30 -48)">
    <use xlink:href="#rim"/>
    <path pointer-events="none" fill="none" stroke="white" stroke-width="1.5" d="M0,-3.0v7 M-2.5,-0.5L0,-3.0L2.5,-0.5"/>
  </g>
  <g id="arrowLeft" transform="rotate(270) translate(-36 17)">
    <use xlink:href="#rim"/>
    <path pointer-events="none" fill="none" stroke="white" stroke-width="1.5" d="M0,-3.0v7 M-2.5,-0.5L0,-3.0L2.5,-0.5"/>
  </g>
  <g id="resetDef">
    <use xlink:href="#rim2" fill="#404040"><set attributeName="fill" to="#808080" begin="reset.mouseover" end="reset.mouseout"/></use>
  </g>
</defs>
<script type="application/ecmascript">
var viewWidth = 1261;
var viewHeight = 291;
var sectionId = 'dynsection-1';
</script>
<script type="application/ecmascript" xlink:href="svg.min.js"/>
<svg id="graph" class="graph">
<g id="viewport">
<title>unilink/wrapper/ichannel.hpp</title>
<!-- Node1 -->
<g id="Node000001" class="node">
<title>Node1</title>
<g id="a_Node000001"><a xlink:title=" ">
<polygon fill="#999999" stroke="#666666" points="824,-283 666,-283 666,-264 824,-264 824,-283"/>
<text text-anchor="middle" x="745" y="-271" font-family="Helvetica,sans-Serif" font-size="10.00">unilink/wrapper/ichannel.hpp</text>
</a>
</g>
</g>
<!-- Node2 -->
<g id="Node000002" class="node">
<title>Node2</title>
<g id="a_Node000002"><a xlink:href="unilink_8hpp.html" target="_top" xlink:title=" ">
<polygon fill="white" stroke="#666666" points="694.5,-24.5 587.5,-24.5 587.5,-5.5 694.5,-5.5 694.5,-24.5"/>
<text text-anchor="middle" x="641" y="-12.5" font-family="Helvetica,sans-Serif" font-size="10.00">unilink/unilink.hpp</text>
</a>
</g>
</g>
<!-- Node1&#45;&gt;Node2 -->
<g id="edge1_Node000001_Node000002" class="edge">
<title>Node1&#45;&gt;Node2</title>
<g id="a_edge1_Node000001_Node000002"><a xlink:title=" ">
<path fill="none" stroke="#63b8ff" d="M791.75,-261.2C856.64,-242.81 963.13,-201.32 936,-132 900,-40.01 769.45,-19.99 694.64,-16.24"/>
<polygon fill="#63b8ff" stroke="#63b8ff" points="790.44,-257.93 781.73,-263.96 792.3,-264.68 790.44,-257.93"/>
</a>
</g>
</g>
<!-- Node3 -->
<g id="Node000003" class="node">
<title>Node3</title>
<g id="a_Node000003"><a xlink:href="wrapper_2serial_2serial_8hpp.html" target="_top" xlink:title=" ">
<polygon fill="white" stroke="#666666" points="301,-228 179,-228 179,-198 301,-198 301,-228"/>
<text text-anchor="start" x="187" y="-216" font-family="Helvetica,sans-Serif" font-size="10.00">unilink/wrapper/serial</text>
<text text-anchor="middle" x="240" y="-205" font-family="Helvetica,sans-Serif" font-size="10.00">/serial.hpp</text>
</a>
</g>
</g>
<!-- Node1&#45;&gt;Node3 -->
<g id="edge2_Node000001_Node000003" class="edge">
<title>Node1&#45;&gt;Node3</title>
<g id="a_edge2_Node000001_Node000003"><a xlink:title=" ">
<path fill="none" stroke="#63b8ff" d="M661.36,-262.81C559.91,-251.06 391.33,-231.53 301.22,-221.09"/>
<polygon fill="#63b8ff" stroke="#63b8ff" points="661.23,-266.32 671.57,-263.99 662.04,-259.37 661.23,-266.32"/>
</a>
</g>
</g>
<!-- Node9 -->
<g id="Node000009" class="node">
<title>Node9</title>
<g id="a_Node000009"><a xlink:href="wrapper_2tcp__client_2tcp__client_8hpp.html" target="_top" xlink:title=" ">
<polygon fill="white" stroke="#666666" points="633,-228 513,-228 513,-198 633,-198 633,-228"/>
<text text-anchor="start" x="521" y="-216" font-family="Helvetica,sans-Serif" font-size="10.00">unilink/wrapper/tcp</text>
<text text-anchor="middle" x="573" y="-205" font-family="Helvetica,sans-Serif" font-size="10.00">_client/tcp_client.hpp</text>
</a>
</g>
</g>
<!-- Node1&#45;&gt;Node9 -->
<g id="edge11_Node000001_Node000009" class="edge">
<title>Node1&#45;&gt;Node9</title>
<g id="a_edge11_Node000001_Node000009"><a xlink:title=" ">
<path fill="none" stroke="#63b8ff" d="M710.33,-260.71C682.61,-251.28 643.69,-238.04 614.35,-228.06"/>
<polygon fill="#63b8ff" stroke="#63b8ff" points="709.4,-264.09 719.99,-263.99 711.65,-257.46 709.4,-264.09"/>
</a>
</g>
</g>
<!-- Node13 -->
<g id="Node000013" class="node">
<title>Node13</title>
<g id="a_Node000013"><a xlink:href="wrapper_2udp_2udp_8hpp.html" target="_top" xlink:title=" ">
<polygon fill="white" stroke="#666666" points="801.5,-228 688.5,-228 688.5,-198 801.5,-198 801.5,-228"/>
<text text-anchor="start" x="696.5" y="-216" font-family="Helvetica,sans-Serif" font-size="10.00">unilink/wrapper/udp</text>
<text text-anchor="middle" x="745" y="-205" font-family="Helvetica,sans-Serif" font-size="10.00">/udp.hpp</text>
</a>
</g>
</g>
<!-- Node1&#45;&gt;Node13 -->
<g id="edge18_Node000001_Node000013" class="edge">
<title>Node1&#45;&gt;Node13</title>
<g id="a_edge18_Node000001_Node000013"><a xlink:title=" ">
<path fill="none" stroke="#63b8ff" d="M745,-253.65C745,-245.36 745,-235.78 745,-228.11"/>
<polygon fill="#63b8ff" stroke="#63b8ff" points="741.5,-253.87 745,-263.87 748.5,-253.87 741.5,-253.87"/>
</a>
</g>
</g>
<!-- Node17 -->
<g id="Node000017" class="node">
<title>Node17</title>
<g id="a_Node000017"><a xlink:href="wrapper_2uds__client_2uds__client_8hpp.html" target="_top" xlink:title=" ">
<polygon fill="white" stroke="#666666" points="1122,-162 1000,-162 1000,-132 1122,-132 1122,-162"/>
<text text-anchor="start" x="1008" y="-150" font-family="Helvetica,sans-Serif" font-size="10.00">unilink/wrapper/uds</text>
<text text-anchor="middle" x="1061" y="-139" font-family="Helvetica,sans-Serif" font-size="10.00">_client/uds_client.hpp</text>
</a>
</g>
</g>
<!-- Node1&#45;&gt;Node17 -->
<g id="edge25_Node000001_Node000017" class="edge">
<title>Node1&#45;&gt;Node17</title>
<g id="a_edge25_Node000001_Node000017"><a xlink:title=" ">
<path fill="none" stroke="#63b8ff" d="M834.19,-265.51C876.69,-259.54 927.23,-248.48 969,-228 1002.26,-211.69 1033.04,-180.3 1049.19,-162.06"/>
<polygon fill="#63b8ff" stroke="#63b8ff" points="833.59,-262.06 824.14,-266.84 834.51,-268.99 833.59,-262.06"/>
</a>
</g>
</g>
<!-- Node3&#45;&gt;Node2 -->
<g id="edge9_Node000003_Node000002" class="edge">
<title>Node3&#45;&gt;Node2</title>
<g id="a_edge9_Node000003_Node000002"><a xlink:title=" ">
<path fill="none" stroke="#63b8ff" d="M252.23,-188.59C256.44,-180.27 261.07,-170.79 265,-162 283.72,-120.11 267.04,-94.51 303,-66 324.9,-48.63 497.81,-29.73 587.46,-20.97"/>
<polygon fill="#63b8ff" stroke="#63b8ff" points="249,-187.22 247.56,-197.72 255.23,-190.41 249,-187.22"/>
</a>
</g>
</g>
<!-- Node4 -->
<g id="Node000004" class="node">
<title>Node4</title>
<g id="a_Node000004"><a xlink:href="serial__builder_8hpp.html" target="_top" xlink:title=" ">
<polygon fill="white" stroke="#666666" points="116,-162 0,-162 0,-132 116,-132 116,-162"/>
<text text-anchor="start" x="8" y="-150" font-family="Helvetica,sans-Serif" font-size="10.00">unilink/builder/serial</text>
<text text-anchor="middle" x="58" y="-139" font-family="Helvetica,sans-Serif" font-size="10.00">_builder.hpp</text>
</a>
</g>
</g>
<!-- Node3&#45;&gt;Node4 -->
<g id="edge3_Node000003_Node000004" class="edge">
<title>Node3&#45;&gt;Node4</title>
<g id="a_edge3_Node000003_Node000004"><a xlink:title=" ">
<path fill="none" stroke="#63b8ff" d="M190.49,-194.59C161.39,-184.36 125.09,-171.59 97.85,-162.01"/>
<polygon fill="#63b8ff" stroke="#63b8ff" points="189.46,-197.94 200.06,-197.95 191.79,-191.34 189.46,-197.94"/>
</a>
</g>
</g>
<!-- Node8 -->
<g id="Node000008" class="node">
<title>Node8</title>
<g id="a_Node000008"><a xlink:href="wrapper_2serial_2serial_8cc.html" target="_top" xlink:title=" ">
<polygon fill="white" stroke="#666666" points="256,-162 134,-162 134,-132 256,-132 256,-162"/>
<text text-anchor="start" x="142" y="-150" font-family="Helvetica,sans-Serif" font-size="10.00">unilink/wrapper/serial</text>
<text text-anchor="middle" x="195" y="-139" font-family="Helvetica,sans-Serif" font-size="10.00">/serial.cc</text>
</a>
</g>
</g>
<!-- Node3&#45;&gt;Node8 -->
<g id="edge10_Node000003_Node000008" class="edge">
<title>Node3&#45;&gt;Node8</title>
<g id="a_edge10_Node000003_Node000008"><a xlink:title=" ">
<path fill="none" stroke="#63b8ff" d="M224.2,-189.53C217.8,-180.43 210.61,-170.19 204.96,-162.16"/>
<polygon fill="#63b8ff" stroke="#63b8ff" points="221.4,-191.63 230.01,-197.8 227.12,-187.6 221.4,-191.63"/>
</a>
</g>
</g>
<!-- Node4&#45;&gt;Node2 -->
<g id="edge8_Node000004_Node000002" class="edge">
<title>Node4&#45;&gt;Node2</title>
<g id="a_edge8_Node000004_Node000002"><a xlink:title=" ">
<path fill="none" stroke="#63b8ff" d="M97.85,-127.84C139.82,-109.46 208.25,-81.6 270,-66 380.9,-37.99 514.67,-24.86 587.44,-19.39"/>
<polygon fill="#63b8ff" stroke="#63b8ff" points="96.28,-124.71 88.54,-131.95 99.1,-131.11 96.28,-124.71"/>
</a>
</g>
</g>
<!-- Node5 -->
<g id="Node000005" class="node">
<title>Node5</title>
<g id="a_Node000005"><a xlink:href="serial__builder_8cc.html" target="_top" xlink:title=" ">
<polygon fill="white" stroke="#666666" points="116,-96 0,-96 0,-66 116,-66 116,-96"/>
<text text-anchor="start" x="8" y="-84" font-family="Helvetica,sans-Serif" font-size="10.00">unilink/builder/serial</text>
<text text-anchor="middle" x="58" y="-73" font-family="Helvetica,sans-Serif" font-size="10.00">_builder.cc</text>
</a>
</g>
</g>
<!-- Node4&#45;&gt;Node5 -->
<g id="edge4_Node000004_Node000005" class="edge">
<title>Node4&#45;&gt;Node5</title>
<g id="a_edge4_Node000004_Node000005"><a xlink:title=" ">
<path fill="none" stroke="#63b8ff" d="M58,-121.54C58,-112.96 58,-103.61 58,-96.16"/>
<polygon fill="#63b8ff" stroke="#63b8ff" points="54.5,-121.8 58,-131.8 61.5,-121.8 54.5,-121.8"/>
</a>
</g>
</g>
<!-- Node6 -->
<g id="Node000006" class="node">
<title>Node6</title>
<g id="a_Node000006"><a xlink:href="unified__builder_8hpp.html" target="_top" xlink:title=" ">
<polygon fill="white" stroke="#666666" points="434,-96 312,-96 312,-66 434,-66 434,-96"/>
<text text-anchor="start" x="320" y="-84" font-family="Helvetica,sans-Serif" font-size="10.00">unilink/builder/unified</text>
<text text-anchor="middle" x="373" y="-73" font-family="Helvetica,sans-Serif" font-size="10.00">_builder.hpp</text>
</a>
</g>
</g>
<!-- Node4&#45;&gt;Node6 -->
<g id="edge5_Node000004_Node000006" class="edge">
<title>Node4&#45;&gt;Node6</title>
<g id="a_edge5_Node000004_Node000006"><a xlink:title=" ">
<path fill="none" stroke="#63b8ff" d="M126.31,-131.74C195.46,-117.56 263.97,-103.79 311.83,-94.21"/>
<polygon fill="#63b8ff" stroke="#63b8ff" points="125.19,-128.4 116.1,-133.83 126.6,-135.25 125.19,-128.4"/>
</a>
</g>
</g>
<!-- Node6&#45;&gt;Node2 -->
<g id="edge7_Node000006_Node000002" class="edge">
<title>Node6&#45;&gt;Node2</title>
<g id="a_edge7_Node000006_Node000002"><a xlink:title=" ">
<path fill="none" stroke="#63b8ff" d="M441.68,-63.6C493.93,-51.12 563.71,-34.46 605.33,-24.52"/>
<polygon fill="#63b8ff" stroke="#63b8ff" points="440.73,-60.23 431.81,-65.95 442.35,-67.04 440.73,-60.23"/>
</a>
</g>
</g>
<!-- Node7 -->
<g id="Node000007" class="node">
<title>Node7</title>
<g id="a_Node000007"><a xlink:href="unified__builder_8cc.html" target="_top" xlink:title=" ">
<polygon fill="white" stroke="#666666" points="434,-30 312,-30 312,0 434,0 434,-30"/>
<text text-anchor="start" x="320" y="-18" font-family="Helvetica,sans-Serif" font-size="10.00">unilink/builder/unified</text>
<text text-anchor="middle" x="373" y="-7" font-family="Helvetica,sans-Serif" font-size="10.00">_builder.cc</text>
</a>
</g>
</g>
<!-- Node6&#45;&gt;Node7 -->
<g id="edge6_Node000006_Node000007" class="edge">
<title>Node6&#45;&gt;Node7</title>
<g id="a_edge6_Node000006_Node000007"><a xlink:title=" ">
<path fill="none" stroke="#63b8ff" d="M373,-55.54C373,-46.96 373,-37.61 373,-30.16"/>
<polygon fill="#63b8ff" stroke="#63b8ff" points="369.5,-55.8 373,-65.8 376.5,-55.8 369.5,-55.8"/>
</a>
</g>
</g>
<!-- Node9&#45;&gt;Node2 -->
<g id="edge16_Node000009_Node000002" class="edge">
<title>Node9&#45;&gt;Node2</title>
<g id="a_edge16_Node000009_Node000002"><a xlink:title=" ">
<path fill="none" stroke="#63b8ff" d="M588.08,-188.96C593.01,-180.7 598.2,-171.16 602,-162 622.71,-112.08 635.34,-47.96 639.49,-24.82"/>
<polygon fill="#63b8ff" stroke="#63b8ff" points="584.98,-187.3 582.69,-197.65 590.93,-190.99 584.98,-187.3"/>
</a>
</g>
</g>
<!-- Node10 -->
<g id="Node000010" class="node">
<title>Node10</title>
<g id="a_Node000010"><a xlink:href="tcp__client__builder_8hpp.html" target="_top" xlink:title=" ">
<polygon fill="white" stroke="#666666" points="462,-162 354,-162 354,-132 462,-132 462,-162"/>
<text text-anchor="start" x="362" y="-150" font-family="Helvetica,sans-Serif" font-size="10.00">unilink/builder/tcp</text>
<text text-anchor="middle" x="408" y="-139" font-family="Helvetica,sans-Serif" font-size="10.00">_client_builder.hpp</text>
</a>
</g>
</g>
<!-- Node9&#45;&gt;Node10 -->
<g id="edge12_Node000009_Node000010" class="edge">
<title>Node9&#45;&gt;Node10</title>
<g id="a_edge12_Node000009_Node000010"><a xlink:title=" ">
<path fill="none" stroke="#63b8ff" d="M527.43,-194.32C501.16,-184.14 468.61,-171.51 444.13,-162.01"/>
<polygon fill="#63b8ff" stroke="#63b8ff" points="526.2,-197.6 536.79,-197.95 528.73,-191.08 526.2,-197.6"/>
</a>
</g>
</g>
<!-- Node12 -->
<g id="Node000012" class="node">
<title>Node12</title>
<g id="a_Node000012"><a xlink:href="wrapper_2tcp__client_2tcp__client_8cc.html" target="_top" xlink:title=" ">
<polygon fill="white" stroke="#666666" points="593.5,-162 480.5,-162 480.5,-132 593.5,-132 593.5,-162"/>
<text text-anchor="start" x="488.5" y="-150" font-family="Helvetica,sans-Serif" font-size="10.00">unilink/wrapper/tcp</text>
<text text-anchor="middle" x="537" y="-139" font-family="Helvetica,sans-Serif" font-size="10.00">_client/tcp_client.cc</text>
</a>
</g>
</g>
<!-- Node9&#45;&gt;Node12 -->
<g id="edge17_Node000009_Node000012" class="edge">
<title>Node9&#45;&gt;Node12</title>
<g id="a_edge17_Node000009_Node000012"><a xlink:title=" ">
<path fill="none" stroke="#63b8ff" d="M560.04,-188.96C555,-180 549.39,-170.03 544.97,-162.16"/>
<polygon fill="#63b8ff" stroke="#63b8ff" points="557.06,-190.8 565.01,-197.8 563.16,-187.36 557.06,-190.8"/>
</a>
</g>
</g>
<!-- Node10&#45;&gt;Node2 -->
<g id="edge15_Node000010_Node000002" class="edge">
<title>Node10&#45;&gt;Node2</title>
<g id="a_edge15_Node000010_Node000002"><a xlink:title=" ">
<path fill="none" stroke="#63b8ff" d="M471.87,-129.14C507.99,-118.93 549.05,-106 565,-96 596.17,-76.47 623.33,-41.24 634.97,-24.84"/>
<polygon fill="#63b8ff" stroke="#63b8ff" points="470.53,-125.88 461.84,-131.94 472.41,-132.62 470.53,-125.88"/>
</a>
</g>
</g>
<!-- Node10&#45;&gt;Node6 -->
<g id="edge14_Node000010_Node000006" class="edge">
<title>Node10&#45;&gt;Node6</title>
<g id="a_edge14_Node000010_Node000006"><a xlink:title=" ">
<path fill="none" stroke="#63b8ff" d="M395.4,-122.96C390.5,-114 385.05,-104.03 380.75,-96.16"/>
<polygon fill="#63b8ff" stroke="#63b8ff" points="392.36,-124.7 400.23,-131.8 398.5,-121.34 392.36,-124.7"/>
</a>
</g>
</g>
<!-- Node11 -->
<g id="Node000011" class="node">
<title>Node11</title>
<g id="a_Node000011"><a xlink:href="tcp__client__builder_8cc.html" target="_top" xlink:title=" ">
<polygon fill="white" stroke="#666666" points="556,-96 452,-96 452,-66 556,-66 556,-96"/>
<text text-anchor="start" x="460" y="-84" font-family="Helvetica,sans-Serif" font-size="10.00">unilink/builder/tcp</text>
<text text-anchor="middle" x="504" y="-73" font-family="Helvetica,sans-Serif" font-size="10.00">_client_builder.cc</text>
</a>
</g>
</g>
<!-- Node10&#45;&gt;Node11 -->
<g id="edge13_Node000010_Node000011" class="edge">
<title>Node10&#45;&gt;Node11</title>
<g id="a_edge13_Node000010_Node000011"><a xlink:title=" ">
<path fill="none" stroke="#63b8ff" d="M437.96,-126.03C452.49,-116.34 469.59,-104.94 482.75,-96.16"/>
<polygon fill="#63b8ff" stroke="#63b8ff" points="435.68,-123.34 429.31,-131.8 439.57,-129.16 435.68,-123.34"/>
</a>
</g>
</g>
<!-- Node13&#45;&gt;Node2 -->
<g id="edge23_Node000013_Node000002" class="edge">
<title>Node13&#45;&gt;Node2</title>
<g id="a_edge23_Node000013_Node000002"><a xlink:title=" ">
<path fill="none" stroke="#63b8ff" d="M710.1,-192.15C698.7,-184.12 686.95,-173.91 679,-162 648.76,-116.69 642.57,-48.62 641.32,-24.69"/>
<polygon fill="#63b8ff" stroke="#63b8ff" points="708.41,-195.23 718.68,-197.86 712.29,-189.41 708.41,-195.23"/>
</a>
</g>
</g>
<!-- Node14 -->
<g id="Node000014" class="node">
<title>Node14</title>
<g id="a_Node000014"><a xlink:href="udp__builder_8hpp.html" target="_top" xlink:title=" ">
<polygon fill="white" stroke="#666666" points="926.5,-162 819.5,-162 819.5,-132 926.5,-132 926.5,-162"/>
<text text-anchor="start" x="827.5" y="-150" font-family="Helvetica,sans-Serif" font-size="10.00">unilink/builder/udp</text>
<text text-anchor="middle" x="873" y="-139" font-family="Helvetica,sans-Serif" font-size="10.00">_builder.hpp</text>
</a>
</g>
</g>
<!-- Node13&#45;&gt;Node14 -->
<g id="edge19_Node000013_Node000014" class="edge">
<title>Node13&#45;&gt;Node14</title>
<g id="a_edge19_Node000013_Node000014"><a xlink:title=" ">
<path fill="none" stroke="#63b8ff" d="M782.24,-193.38C802.27,-183.36 826.57,-171.22 844.98,-162.01"/>
<polygon fill="#63b8ff" stroke="#63b8ff" points="780.47,-190.35 773.09,-197.95 783.6,-196.61 780.47,-190.35"/>
</a>
</g>
</g>
<!-- Node16 -->
<g id="Node000016" class="node">
<title>Node16</title>
<g id="a_Node000016"><a xlink:href="wrapper_2udp_2udp_8cc.html" target="_top" xlink:title=" ">
<polygon fill="white" stroke="#666666" points="801.5,-162 688.5,-162 688.5,-132 801.5,-132 801.5,-162"/>
<text text-anchor="start" x="696.5" y="-150" font-family="Helvetica,sans-Serif" font-size="10.00">unilink/wrapper/udp</text>
<text text-anchor="middle" x="745" y="-139" font-family="Helvetica,sans-Serif" font-size="10.00">/udp.cc</text>
</a>
</g>
</g>
<!-- Node13&#45;&gt;Node16 -->
<g id="edge24_Node000013_Node000016" class="edge">
<title>Node13&#45;&gt;Node16</title>
<g id="a_edge24_Node000013_Node000016"><a xlink:title=" ">
<path fill="none" stroke="#63b8ff" d="M745,-187.54C745,-178.96 745,-169.61 745,-162.16"/>
<polygon fill="#63b8ff" stroke="#63b8ff" points="741.5,-187.8 745,-197.8 748.5,-187.8 741.5,-187.8"/>
</a>
</g>
</g>
<!-- Node14&#45;&gt;Node2 -->
<g id="edge22_Node000014_Node000002" class="edge">
<title>Node14&#45;&gt;Node2</title>
<g id="a_edge22_Node000014_Node000002"><a xlink:title=" ">
<path fill="none" stroke="#63b8ff" d="M873.27,-121.5C872.12,-103.74 867.6,-80.41 853,-66 830.89,-44.19 749.88,-29.78 694.66,-22.26"/>
<polygon fill="#63b8ff" stroke="#63b8ff" points="869.78,-121.83 873.62,-131.71 876.78,-121.6 869.78,-121.83"/>
</a>
</g>
</g>
<!-- Node14&#45;&gt;Node6 -->
<g id="edge21_Node000014_Node000006" class="edge">
<title>Node14&#45;&gt;Node6</title>
<g id="a_edge21_Node000014_Node000006"><a xlink:title=" ">
<path fill="none" stroke="#63b8ff" d="M809.58,-132.08C646.43,-106.71 601.95,-119.63 443,-96 440.06,-95.56 437.05,-95.08 434.02,-94.58"/>
<polygon fill="#63b8ff" stroke="#63b8ff" points="809.04,-135.54 819.47,-133.64 810.14,-128.62 809.04,-135.54"/>
</a>
</g>
</g>
<!-- Node15 -->
<g id="Node000015" class="node">
<title>Node15</title>
<g id="a_Node000015"><a xlink:href="udp__builder_8cc.html" target="_top" xlink:title=" ">
<polygon fill="white" stroke="#666666" points="844.5,-96 737.5,-96 737.5,-66 844.5,-66 844.5,-96"/>
<text text-anchor="start" x="745.5" y="-84" font-family="Helvetica,sans-Serif" font-size="10.00">unilink/builder/udp</text>
<text text-anchor="middle" x="791" y="-73" font-family="Helvetica,sans-Serif" font-size="10.00">_builder.cc</text>
</a>
</g>
</g>
<!-- Node14&#45;&gt;Node15 -->
<g id="edge20_Node000014_Node000015" class="edge">
<title>Node14&#45;&gt;Node15</title>
<g id="a_edge20_Node000014_Node000015"><a xlink:title=" ">
<path fill="none" stroke="#63b8ff" d="M846.71,-125.48C834.45,-115.91 820.18,-104.77 809.15,-96.16"/>
<polygon fill="#63b8ff" stroke="#63b8ff" points="844.76,-128.4 854.8,-131.8 849.07,-122.88 844.76,-128.4"/>
</a>
</g>
</g>
<!-- Node17&#45;&gt;Node2 -->
<g id="edge29_Node000017_Node000002" class="edge">
<title>Node17&#45;&gt;Node2</title>
<g id="a_edge29_Node000017_Node000002"><a xlink:title=" ">
<path fill="none" stroke="#63b8ff" d="M1037.54,-125.09C1013.31,-103.94 976.75,-73.33 960,-66 872.44,-27.67 760.01,-18.22 694.68,-16.18"/>
<polygon fill="#63b8ff" stroke="#63b8ff" points="1035.41,-127.88 1045.24,-131.86 1040.03,-122.63 1035.41,-127.88"/>
</a>
</g>
</g>
<!-- Node18 -->
<g id="Node000018" class="node">
<title>Node18</title>
<g id="a_Node000018"><a xlink:href="uds__builder_8hpp.html" target="_top" xlink:title=" ">
<polygon fill="white" stroke="#666666" points="1252.5,-96 1145.5,-96 1145.5,-66 1252.5,-66 1252.5,-96"/>
<text text-anchor="start" x="1153.5" y="-84" font-family="Helvetica,sans-Serif" font-size="10.00">unilink/builder/uds</text>
<text text-anchor="middle" x="1199" y="-73" font-family="Helvetica,sans-Serif" font-size="10.00">_builder.hpp</text>
</a>
</g>
</g>
<!-- Node17&#45;&gt;Node18 -->
<g id="edge26_Node000017_Node000018" class="edge">
<title>Node17&#45;&gt;Node18</title>
<g id="a_edge26_Node000017_Node000018"><a xlink:title=" ">
<path fill="none" stroke="#63b8ff" d="M1100.57,-127.65C1122.27,-117.58 1148.76,-105.3 1168.79,-96.01"/>
<polygon fill="#63b8ff" stroke="#63b8ff" points="1098.88,-124.57 1091.28,-131.95 1101.83,-130.92 1098.88,-124.57"/>
</a>
</g>
</g>
<!-- Node20 -->
<g id="Node000020" class="node">
<title>Node20</title>
<g id="a_Node000020"><a xlink:href="wrapper_2uds__client_2uds__client_8cc.html" target="_top" xlink:title=" ">
<polygon fill="white" stroke="#666666" points="1127.5,-96 1012.5,-96 1012.5,-66 1127.5,-66 1127.5,-96"/>
<text text-anchor="start" x="1020.5" y="-84" font-family="Helvetica,sans-Serif" font-size="10.00">unilink/wrapper/uds</text>
<text text-anchor="middle" x="1070" y="-73" font-family="Helvetica,sans-Serif" font-size="10.00">_client/uds_client.cc</text>
</a>
</g>
</g>
<!-- Node17&#45;&gt;Node20 -->
<g id="edge30_Node000017_Node000020" class="edge">
<title>Node17&#45;&gt;Node20</title>
<g id="a_edge30_Node000017_Node000020"><a xlink:title=" ">
<path fill="none" stroke="#63b8ff" d="M1064.4,-121.83C1065.62,-113.17 1066.95,-103.7 1068.01,-96.16"/>
<polygon fill="#63b8ff" stroke="#63b8ff" points="1060.92,-121.41 1063,-131.8 1067.86,-122.38 1060.92,-121.41"/>
</a>
</g>
</g>
<!-- Node18&#45;&gt;Node2 -->
<g id="edge28_Node000018_Node000002" class="edge">
<title>Node18&#45;&gt;Node2</title>
<g id="a_edge28_Node000018_Node000002"><a xlink:title=" ">
<path fill="none" stroke="#63b8ff" d="M1135.44,-65.86C969.83,-39.44 784.45,-25.19 694.86,-19.28"/>
<polygon fill="#63b8ff" stroke="#63b8ff" points="1134.88,-69.32 1145.31,-67.46 1136,-62.41 1134.88,-69.32"/>
</a>
</g>
</g>
<!-- Node19 -->
<g id="Node000019" class="node">
<title>Node19</title>
<g id="a_Node000019"><a xlink:href="uds__builder_8cc.html" target="_top" xlink:title=" ">
<polygon fill="white" stroke="#666666" points="1252.5,-30 1145.5,-30 1145.5,0 1252.5,0 1252.5,-30"/>
<text text-anchor="start" x="1153.5" y="-18" font-family="Helvetica,sans-Serif" font-size="10.00">unilink/builder/uds</text>
<text text-anchor="middle" x="1199" y="-7" font-family="Helvetica,sans-Serif" font-size="10.00">_builder.cc</text>
</a>
</g>
</g>
<!-- Node18&#45;&gt;Node19 -->
<g id="edge27_Node000018_Node000019" class="edge">
<title>Node18&#45;&gt;Node19</title>
<g id="a_edge27_Node000018_Node000019"><a xlink:title=" ">
<path fill="none" stroke="#63b8ff" d="M1199,-55.54C1199,-46.96 1199,-37.61 1199,-30.16"/>
<polygon fill="#63b8ff" stroke="#63b8ff" points="1195.5,-55.8 1199,-65.8 1202.5,-55.8 1195.5,-55.8"/>
</a>
</g>
</g>
</g>
</svg>

<g id="navigator" transform="translate(0 0)" fill="#404254">
  <rect fill="#f2f5e9" fill-opacity="0.5" stroke="#606060" stroke-width=".5" x="0" y="0" width="60" height="60"/>
  <use id="zoomplus" xlink:href="#zoomPlus" x="17" y="9" onmousedown="handleZoom(evt,'in')"/>
  <use id="zoomminus" xlink:href="#zoomMin" x="42" y="9" onmousedown="handleZoom(evt,'out')"/>
  <use id="reset" xlink:href="#resetDef" x="30" y="36" onmousedown="handleReset()"/>
   <use id="arrowup" xlink:href="#arrowUp" x="0" y="0" onmousedown="handlePan(0,-1)"/>
  <use id="arrowright" xlink:href="#arrowRight" x="0" y="0" onmousedown="handlePan(1,0)"/>
  <use id="arrowdown" xlink:href="#arrowDown" x="0" y="0" onmousedown="handlePan(0,1)"/>
  <use id="arrowleft" xlink:href="#arrowLeft" x="0" y="0" onmousedown="handlePan(-1,0)"/>
</g>
<svg viewBox="0 0 15 15" width="100%" height="30px" preserveAspectRatio="xMaxYMin meet">
 <g id="arrow_out" transform="scale(0.3 0.3)">
  <a xlink:href="ichannel_8hpp__dep__incl_org.svg" target="_base">
   <rect id="button" ry="5" rx="5" y="6" x="6" height="38" width="38"
        fill="#f2f5e9" fill-opacity="0.5" stroke="#606060" stroke-width="1.0"/>
   <path id="arrow"
     d="M 11.500037,31.436501 C 11.940474,20.09759 22.043105,11.32322 32.158766,21.979434 L 37.068811,17.246167 C 37.068811,17.246167 37.088388,32 37.088388,32 L 22.160133,31.978069 C 22.160133,31.978069 26.997745,27.140456 26.997745,27.140456 C 18.528582,18.264221 13.291696,25.230495 11.500037,31.436501 z"
     style="fill:#404040;"/>
  </a>
 </g>
</svg>

<style type='text/css'>
<![CDATA[
[data-mouse-over-selected='false'] { opacity: 0.7; }
[data-mouse-over-selected='true']  { opacity: 1.0; }
]]>
</style>
<script type="application/ecmascript"><![CDATA[
document.addEventListener('DOMContentLoaded', (event) => {
  highlightEdges();
  highlightAdjacentNodes();
});
]]></script>
</svg>
