<?xml version="1.0" encoding="UTF-8" standalone="no"?>
<!DOCTYPE svg PUBLIC "-//W3C//DTD SVG 1.1//EN"
 "http://www.w3.org/Graphics/SVG/1.1/DTD/svg11.dtd">
<!-- Generated by graphviz version 2.43.0 (0)
 -->
<!-- Title: unilink/wrapper/ichannel.hpp Pages: 1 -->
<svg width="2019pt" height="335pt"
 viewBox="0.00 0.00 2019.00 335.00" xmlns="http://www.w3.org/2000/svg" xmlns:xlink="http://www.w3.org/1999/xlink">
<g id="graph0" class="graph" transform="scale(1 1) rotate(0) translate(4 331)">
<title>unilink/wrapper/ichannel.hpp</title>
<!-- Node1 -->
<g id="Node000001" class="node">
<title>Node1</title>
<g id="a_Node000001"><a xlink:title=" ">
<polygon fill="#999999" stroke="#666666" points="657,-327 499,-327 499,-308 657,-308 657,-327"/>
<text text-anchor="middle" x="578" y="-315" font-family="Helvetica,sans-Serif" font-size="10.00">unilink/wrapper/ichannel.hpp</text>
</a>
</g>
</g>
<!-- Node2 -->
<g id="Node000002" class="node">
<title>Node2</title>
<g id="a_Node000002"><a xlink:title=" ">
<polygon fill="#e0e0e0" stroke="#999999" points="277.5,-79.5 212.5,-79.5 212.5,-60.5 277.5,-60.5 277.5,-79.5"/>
<text text-anchor="middle" x="245" y="-67.5" font-family="Helvetica,sans-Serif" font-size="10.00">functional</text>
</a>
</g>
</g>
<!-- Node1&#45;&gt;Node2 -->
<g id="edge1_Node000001_Node000002" class="edge">
<title>Node1&#45;&gt;Node2</title>
<g id="a_edge1_Node000001_Node000002"><a xlink:title=" ">
<path fill="none" stroke="#63b8ff" d="M552.39,-307.92C497.05,-288.26 364.9,-235.05 285,-151 268.08,-133.2 256.8,-106.86 250.65,-89.32"/>
<polygon fill="#63b8ff" stroke="#63b8ff" points="253.93,-88.1 247.47,-79.7 247.28,-90.29 253.93,-88.1"/>
</a>
</g>
</g>
<!-- Node3 -->
<g id="Node000003" class="node">
<title>Node3</title>
<g id="a_Node000003"><a xlink:title=" ">
<polygon fill="#e0e0e0" stroke="#999999" points="1795,-272 1749,-272 1749,-253 1795,-253 1795,-272"/>
<text text-anchor="middle" x="1772" y="-260" font-family="Helvetica,sans-Serif" font-size="10.00">future</text>
</a>
</g>
</g>
<!-- Node1&#45;&gt;Node3 -->
<g id="edge2_Node000001_Node000003" class="edge">
<title>Node1&#45;&gt;Node3</title>
<g id="a_edge2_Node000001_Node000003"><a xlink:title=" ">
<path fill="none" stroke="#63b8ff" d="M657.18,-315.39C882.78,-311.91 1526.02,-299.77 1735,-272 1736.25,-271.83 1737.52,-271.65 1738.8,-271.44"/>
<polygon fill="#63b8ff" stroke="#63b8ff" points="1739.46,-274.87 1748.63,-269.56 1738.15,-268 1739.46,-274.87"/>
</a>
</g>
</g>
<!-- Node4 -->
<g id="Node000004" class="node">
<title>Node4</title>
<g id="a_Node000004"><a xlink:title=" ">
<polygon fill="#e0e0e0" stroke="#999999" points="194,-79.5 136,-79.5 136,-60.5 194,-60.5 194,-79.5"/>
<text text-anchor="middle" x="165" y="-67.5" font-family="Helvetica,sans-Serif" font-size="10.00">memory</text>
</a>
</g>
</g>
<!-- Node1&#45;&gt;Node4 -->
<g id="edge3_Node000001_Node000004" class="edge">
<title>Node1&#45;&gt;Node4</title>
<g id="a_edge3_Node000001_Node000004"><a xlink:title=" ">
<path fill="none" stroke="#63b8ff" d="M498.95,-311.57C411.74,-305.23 277.55,-292.5 231,-272 154.81,-238.44 123.03,-226.53 88,-151 82.39,-138.9 81.64,-132.72 88,-121 97.22,-104.02 114.97,-91.91 131.11,-83.87"/>
<polygon fill="#63b8ff" stroke="#63b8ff" points="132.74,-86.97 140.34,-79.59 129.8,-80.62 132.74,-86.97"/>
</a>
</g>
</g>
<!-- Node5 -->
<g id="Node000005" class="node">
<title>Node5</title>
<g id="a_Node000005"><a xlink:title=" ">
<polygon fill="#e0e0e0" stroke="#999999" points="1133,-79.5 1089,-79.5 1089,-60.5 1133,-60.5 1133,-79.5"/>
<text text-anchor="middle" x="1111" y="-67.5" font-family="Helvetica,sans-Serif" font-size="10.00">string</text>
</a>
</g>
</g>
<!-- Node1&#45;&gt;Node5 -->
<g id="edge4_Node000001_Node000005" class="edge">
<title>Node1&#45;&gt;Node5</title>
<g id="a_edge4_Node000001_Node000005"><a xlink:title=" ">
<path fill="none" stroke="#63b8ff" d="M657.22,-315.26C895.98,-310.72 1596.36,-291.12 1664,-217 1686.54,-192.31 1651.73,-131.33 1638,-121 1598.42,-91.22 1251.81,-76.14 1143.32,-72.12"/>
<polygon fill="#63b8ff" stroke="#63b8ff" points="1143.41,-68.62 1133.29,-71.75 1143.16,-75.62 1143.41,-68.62"/>
</a>
</g>
</g>
<!-- Node6 -->
<g id="Node000006" class="node">
<title>Node6</title>
<g id="a_Node000006"><a xlink:title=" ">
<polygon fill="#e0e0e0" stroke="#999999" points="756.5,-79.5 683.5,-79.5 683.5,-60.5 756.5,-60.5 756.5,-79.5"/>
<text text-anchor="middle" x="720" y="-67.5" font-family="Helvetica,sans-Serif" font-size="10.00">string_view</text>
</a>
</g>
</g>
<!-- Node1&#45;&gt;Node6 -->
<g id="edge5_Node000001_Node000006" class="edge">
<title>Node1&#45;&gt;Node6</title>
<g id="a_edge5_Node000001_Node000006"><a xlink:title=" ">
<path fill="none" stroke="#63b8ff" d="M583.05,-307.76C603.71,-272.04 681.99,-136.72 709.97,-88.33"/>
<polygon fill="#63b8ff" stroke="#63b8ff" points="713.03,-90.04 715.01,-79.63 706.97,-86.54 713.03,-90.04"/>
</a>
</g>
</g>
<!-- Node7 -->
<g id="Node000007" class="node">
<title>Node7</title>
<g id="a_Node000007"><a xlink:title=" ">
<polygon fill="#e0e0e0" stroke="#999999" points="506.5,-79.5 459.5,-79.5 459.5,-60.5 506.5,-60.5 506.5,-79.5"/>
<text text-anchor="middle" x="483" y="-67.5" font-family="Helvetica,sans-Serif" font-size="10.00">vector</text>
</a>
</g>
</g>
<!-- Node1&#45;&gt;Node7 -->
<g id="edge6_Node000001_Node000007" class="edge">
<title>Node1&#45;&gt;Node7</title>
<g id="a_edge6_Node000001_Node000007"><a xlink:title=" ">
<path fill="none" stroke="#63b8ff" d="M574.62,-307.76C560.88,-272.27 509.09,-138.41 490.06,-89.25"/>
<polygon fill="#63b8ff" stroke="#63b8ff" points="493.21,-87.7 486.34,-79.63 486.69,-90.22 493.21,-87.7"/>
</a>
</g>
</g>
<!-- Node8 -->
<g id="Node000008" class="node">
<title>Node8</title>
<g id="a_Node000008"><a xlink:href="visibility_8hpp.html" target="_top" xlink:title=" ">
<polygon fill="white" stroke="#666666" points="665,-79.5 525,-79.5 525,-60.5 665,-60.5 665,-79.5"/>
<text text-anchor="middle" x="595" y="-67.5" font-family="Helvetica,sans-Serif" font-size="10.00">unilink/base/visibility.hpp</text>
</a>
</g>
</g>
<!-- Node1&#45;&gt;Node8 -->
<g id="edge7_Node000001_Node000008" class="edge">
<title>Node1&#45;&gt;Node8</title>
<g id="a_edge7_Node000001_Node000008"><a xlink:title=" ">
<path fill="none" stroke="#63b8ff" d="M578.61,-307.76C581.05,-272.42 590.25,-139.54 593.69,-89.88"/>
<polygon fill="#63b8ff" stroke="#63b8ff" points="597.2,-89.85 594.4,-79.63 590.22,-89.37 597.2,-89.85"/>
</a>
</g>
</g>
<!-- Node9 -->
<g id="Node000009" class="node">
<title>Node9</title>
<g id="a_Node000009"><a xlink:href="iframer_8hpp.html" target="_top" xlink:title=" ">
<polygon fill="white" stroke="#666666" points="242.5,-145.5 97.5,-145.5 97.5,-126.5 242.5,-126.5 242.5,-145.5"/>
<text text-anchor="middle" x="170" y="-133.5" font-family="Helvetica,sans-Serif" font-size="10.00">unilink/framer/iframer.hpp</text>
</a>
</g>
</g>
<!-- Node1&#45;&gt;Node9 -->
<g id="edge8_Node000001_Node000009" class="edge">
<title>Node1&#45;&gt;Node9</title>
<g id="a_edge8_Node000001_Node000009"><a xlink:title=" ">
<path fill="none" stroke="#63b8ff" d="M498.87,-313.03C417.06,-308.14 295.95,-296.86 257,-272 213.25,-244.08 187.13,-185.39 176.13,-155.43"/>
<polygon fill="#63b8ff" stroke="#63b8ff" points="179.36,-154.09 172.75,-145.81 172.76,-156.4 179.36,-154.09"/>
</a>
</g>
</g>
<!-- Node14 -->
<g id="Node000014" class="node">
<title>Node14</title>
<g id="a_Node000014"><a xlink:href="context_8hpp.html" target="_top" xlink:title=" ">
<polygon fill="white" stroke="#666666" points="816.5,-272 663.5,-272 663.5,-253 816.5,-253 816.5,-272"/>
<text text-anchor="middle" x="740" y="-260" font-family="Helvetica,sans-Serif" font-size="10.00">unilink/wrapper/context.hpp</text>
</a>
</g>
</g>
<!-- Node1&#45;&gt;Node14 -->
<g id="edge17_Node000001_Node000014" class="edge">
<title>Node1&#45;&gt;Node14</title>
<g id="a_edge17_Node000001_Node000014"><a xlink:title=" ">
<path fill="none" stroke="#63b8ff" d="M604.03,-307.98C631.11,-299.13 673.71,-285.19 704.01,-275.28"/>
<polygon fill="#63b8ff" stroke="#63b8ff" points="705.35,-278.52 713.77,-272.08 703.18,-271.87 705.35,-278.52"/>
</a>
</g>
</g>
<!-- Node33 -->
<g id="Node000033" class="node">
<title>Node33</title>
<g id="a_Node000033"><a xlink:href="runtime__stats_8hpp.html" target="_top" xlink:title=" ">
<polygon fill="white" stroke="#666666" points="2011,-151 1877,-151 1877,-121 2011,-121 2011,-151"/>
<text text-anchor="start" x="1885" y="-139" font-family="Helvetica,sans-Serif" font-size="10.00">unilink/wrapper/runtime</text>
<text text-anchor="middle" x="1944" y="-128" font-family="Helvetica,sans-Serif" font-size="10.00">_stats.hpp</text>
</a>
</g>
</g>
<!-- Node1&#45;&gt;Node33 -->
<g id="edge66_Node000001_Node000033" class="edge">
<title>Node1&#45;&gt;Node33</title>
<g id="a_edge66_Node000001_Node000033"><a xlink:title=" ">
<path fill="none" stroke="#63b8ff" d="M657,-315.44C895.46,-311.96 1597.69,-299.48 1697,-272 1719.74,-265.71 1848.69,-192.11 1910.7,-156.31"/>
<polygon fill="#63b8ff" stroke="#63b8ff" points="1912.79,-159.15 1919.7,-151.11 1909.29,-153.09 1912.79,-159.15"/>
</a>
</g>
</g>
<!-- Node9&#45;&gt;Node2 -->
<g id="edge9_Node000009_Node000002" class="edge">
<title>Node9&#45;&gt;Node2</title>
<g id="a_edge9_Node000009_Node000002"><a xlink:title=" ">
<path fill="none" stroke="#63b8ff" d="M180.11,-126.37C192.01,-116.21 212,-99.16 226.65,-86.65"/>
<polygon fill="#63b8ff" stroke="#63b8ff" points="229.23,-89.06 234.56,-79.91 224.69,-83.73 229.23,-89.06"/>
</a>
</g>
</g>
<!-- Node9&#45;&gt;Node4 -->
<g id="edge10_Node000009_Node000004" class="edge">
<title>Node9&#45;&gt;Node4</title>
<g id="a_edge10_Node000009_Node000004"><a xlink:title=" ">
<path fill="none" stroke="#63b8ff" d="M169.33,-126.37C168.6,-117.07 167.42,-101.98 166.48,-89.9"/>
<polygon fill="#63b8ff" stroke="#63b8ff" points="169.96,-89.6 165.7,-79.91 162.99,-90.15 169.96,-89.6"/>
</a>
</g>
</g>
<!-- Node9&#45;&gt;Node7 -->
<g id="edge11_Node000009_Node000007" class="edge">
<title>Node9&#45;&gt;Node7</title>
<g id="a_edge11_Node000009_Node000007"><a xlink:title=" ">
<path fill="none" stroke="#63b8ff" d="M211.89,-126.44C274.62,-113.61 391.72,-89.66 449.29,-77.89"/>
<polygon fill="#63b8ff" stroke="#63b8ff" points="450.23,-81.27 459.32,-75.84 448.82,-74.42 450.23,-81.27"/>
</a>
</g>
</g>
<!-- Node9&#45;&gt;Node8 -->
<g id="edge12_Node000009_Node000008" class="edge">
<title>Node9&#45;&gt;Node8</title>
<g id="a_edge12_Node000009_Node000008"><a xlink:title=" ">
<path fill="none" stroke="#63b8ff" d="M233.23,-126.48C302.67,-116.98 417.43,-100.85 516,-85 523.19,-83.84 530.73,-82.58 538.18,-81.29"/>
<polygon fill="#63b8ff" stroke="#63b8ff" points="539,-84.7 548.26,-79.54 537.8,-77.81 539,-84.7"/>
</a>
</g>
</g>
<!-- Node10 -->
<g id="Node000010" class="node">
<title>Node10</title>
<g id="a_Node000010"><a xlink:href="safe__span_8hpp.html" target="_top" xlink:title=" ">
<polygon fill="white" stroke="#666666" points="118,-85 0,-85 0,-55 118,-55 118,-85"/>
<text text-anchor="start" x="8" y="-73" font-family="Helvetica,sans-Serif" font-size="10.00">unilink/memory/safe</text>
<text text-anchor="middle" x="59" y="-62" font-family="Helvetica,sans-Serif" font-size="10.00">_span.hpp</text>
</a>
</g>
</g>
<!-- Node9&#45;&gt;Node10 -->
<g id="edge13_Node000009_Node000010" class="edge">
<title>Node9&#45;&gt;Node10</title>
<g id="a_edge13_Node000009_Node000010"><a xlink:title=" ">
<path fill="none" stroke="#63b8ff" d="M155.03,-126.37C139.05,-117.16 113.21,-102.26 92.36,-90.24"/>
<polygon fill="#63b8ff" stroke="#63b8ff" points="93.89,-87.08 83.48,-85.12 90.4,-93.14 93.89,-87.08"/>
</a>
</g>
</g>
<!-- Node11 -->
<g id="Node000011" class="node">
<title>Node11</title>
<g id="a_Node000011"><a xlink:title=" ">
<polygon fill="#e0e0e0" stroke="#999999" points="1594,-19 1544,-19 1544,0 1594,0 1594,-19"/>
<text text-anchor="middle" x="1569" y="-7" font-family="Helvetica,sans-Serif" font-size="10.00">cstdint</text>
</a>
</g>
</g>
<!-- Node10&#45;&gt;Node11 -->
<g id="edge14_Node000010_Node000011" class="edge">
<title>Node10&#45;&gt;Node11</title>
<g id="a_edge14_Node000010_Node000011"><a xlink:title=" ">
<path fill="none" stroke="#63b8ff" d="M118.24,-56.18C121.2,-55.73 124.13,-55.34 127,-55 411.73,-21.55 1340.32,-12.34 1533.57,-10.77"/>
<polygon fill="#63b8ff" stroke="#63b8ff" points="1533.76,-14.26 1543.73,-10.68 1533.71,-7.26 1533.76,-14.26"/>
</a>
</g>
</g>
<!-- Node12 -->
<g id="Node000012" class="node">
<title>Node12</title>
<g id="a_Node000012"><a xlink:title=" ">
<polygon fill="#e0e0e0" stroke="#999999" points="79,-19 39,-19 39,0 79,0 79,-19"/>
<text text-anchor="middle" x="59" y="-7" font-family="Helvetica,sans-Serif" font-size="10.00">span</text>
</a>
</g>
</g>
<!-- Node10&#45;&gt;Node12 -->
<g id="edge15_Node000010_Node000012" class="edge">
<title>Node10&#45;&gt;Node12</title>
<g id="a_edge15_Node000010_Node000012"><a xlink:title=" ">
<path fill="none" stroke="#63b8ff" d="M59,-54.84C59,-47.21 59,-37.7 59,-29.45"/>
<polygon fill="#63b8ff" stroke="#63b8ff" points="62.5,-29.27 59,-19.27 55.5,-29.27 62.5,-29.27"/>
</a>
</g>
</g>
<!-- Node13 -->
<g id="Node000013" class="node">
<title>Node13</title>
<g id="a_Node000013"><a xlink:title=" ">
<polygon fill="#e0e0e0" stroke="#999999" points="425.5,-19 360.5,-19 360.5,0 425.5,0 425.5,-19"/>
<text text-anchor="middle" x="393" y="-7" font-family="Helvetica,sans-Serif" font-size="10.00">stdexcept</text>
</a>
</g>
</g>
<!-- Node10&#45;&gt;Node13 -->
<g id="edge16_Node000010_Node000013" class="edge">
<title>Node10&#45;&gt;Node13</title>
<g id="a_edge16_Node000010_Node000013"><a xlink:title=" ">
<path fill="none" stroke="#63b8ff" d="M118.31,-56.65C121.25,-56.08 124.16,-55.53 127,-55 205.54,-40.35 297.55,-25.46 350.18,-17.16"/>
<polygon fill="#63b8ff" stroke="#63b8ff" points="350.84,-20.6 360.17,-15.59 349.75,-13.68 350.84,-20.6"/>
</a>
</g>
</g>
<!-- Node14&#45;&gt;Node5 -->
<g id="edge19_Node000014_Node000005" class="edge">
<title>Node14&#45;&gt;Node5</title>
<g id="a_edge19_Node000014_Node000005"><a xlink:title=" ">
<path fill="none" stroke="#63b8ff" d="M816.68,-256.84C1009.64,-244.31 1503.35,-207.04 1550,-151 1558.53,-140.75 1558.88,-130.95 1550,-121 1522.95,-90.7 1240.14,-76.31 1143.31,-72.25"/>
<polygon fill="#63b8ff" stroke="#63b8ff" points="1143.36,-68.75 1133.23,-71.83 1143.07,-75.74 1143.36,-68.75"/>
</a>
</g>
</g>
<!-- Node14&#45;&gt;Node6 -->
<g id="edge20_Node000014_Node000006" class="edge">
<title>Node14&#45;&gt;Node6</title>
<g id="a_edge20_Node000014_Node000006"><a xlink:title=" ">
<path fill="none" stroke="#63b8ff" d="M739.32,-252.62C738.06,-238.48 734.87,-210.11 728,-187 723.01,-170.22 715.63,-168.13 712,-151 709.23,-137.96 710.94,-134.29 712,-121 712.82,-110.66 714.59,-99.23 716.25,-89.91"/>
<polygon fill="#63b8ff" stroke="#63b8ff" points="719.74,-90.28 718.16,-79.8 712.86,-88.98 719.74,-90.28"/>
</a>
</g>
</g>
<!-- Node14&#45;&gt;Node7 -->
<g id="edge21_Node000014_Node000007" class="edge">
<title>Node14&#45;&gt;Node7</title>
<g id="a_edge21_Node000014_Node000007"><a xlink:title=" ">
<path fill="none" stroke="#63b8ff" d="M720.5,-252.98C702.59,-244.79 675.62,-231.54 654,-217 592.42,-175.58 527.99,-115.15 498.91,-86.8"/>
<polygon fill="#63b8ff" stroke="#63b8ff" points="501.26,-84.2 491.67,-79.69 496.36,-89.2 501.26,-84.2"/>
</a>
</g>
</g>
<!-- Node14&#45;&gt;Node10 -->
<g id="edge65_Node000014_Node000010" class="edge">
<title>Node14&#45;&gt;Node10</title>
<g id="a_edge65_Node000014_Node000010"><a xlink:title=" ">
<path fill="none" stroke="#63b8ff" d="M663.28,-258C510.25,-249.53 174.33,-223.04 88,-151 71.58,-137.3 64.46,-113.51 61.37,-95.42"/>
<polygon fill="#63b8ff" stroke="#63b8ff" points="64.8,-94.71 59.95,-85.3 57.87,-95.69 64.8,-94.71"/>
</a>
</g>
</g>
<!-- Node15 -->
<g id="Node000015" class="node">
<title>Node15</title>
<g id="a_Node000015"><a xlink:title=" ">
<polygon fill="#e0e0e0" stroke="#999999" points="719,-211.5 663,-211.5 663,-192.5 719,-192.5 719,-211.5"/>
<text text-anchor="middle" x="691" y="-199.5" font-family="Helvetica,sans-Serif" font-size="10.00">optional</text>
</a>
</g>
</g>
<!-- Node14&#45;&gt;Node15 -->
<g id="edge18_Node000014_Node000015" class="edge">
<title>Node14&#45;&gt;Node15</title>
<g id="a_edge18_Node000014_Node000015"><a xlink:title=" ">
<path fill="none" stroke="#63b8ff" d="M732.77,-252.87C725.46,-244.14 713.98,-230.43 704.9,-219.59"/>
<polygon fill="#63b8ff" stroke="#63b8ff" points="707.36,-217.09 698.26,-211.67 702,-221.58 707.36,-217.09"/>
</a>
</g>
</g>
<!-- Node16 -->
<g id="Node000016" class="node">
<title>Node16</title>
<g id="a_Node000016"><a xlink:href="common_8hpp.html" target="_top" xlink:title=" ">
<polygon fill="white" stroke="#666666" points="1182.5,-211.5 1039.5,-211.5 1039.5,-192.5 1182.5,-192.5 1182.5,-211.5"/>
<text text-anchor="middle" x="1111" y="-199.5" font-family="Helvetica,sans-Serif" font-size="10.00">unilink/base/common.hpp</text>
</a>
</g>
</g>
<!-- Node14&#45;&gt;Node16 -->
<g id="edge22_Node000014_Node000016" class="edge">
<title>Node14&#45;&gt;Node16</title>
<g id="a_edge22_Node000014_Node000016"><a xlink:title=" ">
<path fill="none" stroke="#63b8ff" d="M793.95,-252.99C860.99,-242.42 975.26,-224.4 1046.76,-213.13"/>
<polygon fill="#63b8ff" stroke="#63b8ff" points="1047.66,-216.53 1056.99,-211.52 1046.57,-209.62 1047.66,-216.53"/>
</a>
</g>
</g>
<!-- Node30 -->
<g id="Node000030" class="node">
<title>Node30</title>
<g id="a_Node000030"><a xlink:href="error__codes_8hpp.html" target="_top" xlink:title=" ">
<polygon fill="white" stroke="#666666" points="1655,-217 1553,-217 1553,-187 1655,-187 1655,-217"/>
<text text-anchor="start" x="1561" y="-205" font-family="Helvetica,sans-Serif" font-size="10.00">unilink/base/error</text>
<text text-anchor="middle" x="1604" y="-194" font-family="Helvetica,sans-Serif" font-size="10.00">_codes.hpp</text>
</a>
</g>
</g>
<!-- Node14&#45;&gt;Node30 -->
<g id="edge52_Node000014_Node000030" class="edge">
<title>Node14&#45;&gt;Node30</title>
<g id="a_edge52_Node000014_Node000030"><a xlink:title=" ">
<path fill="none" stroke="#63b8ff" d="M816.67,-261.21C959.45,-259.79 1275.5,-252.49 1539,-217 1540.25,-216.83 1541.52,-216.65 1542.8,-216.46"/>
<polygon fill="#63b8ff" stroke="#63b8ff" points="1543.39,-219.91 1552.68,-214.83 1542.25,-213 1543.39,-219.91"/>
</a>
</g>
</g>
<!-- Node31 -->
<g id="Node000031" class="node">
<title>Node31</title>
<g id="a_Node000031"><a xlink:href="safe__data__buffer_8hpp.html" target="_top" xlink:title=" ">
<polygon fill="white" stroke="#666666" points="455,-151 337,-151 337,-121 455,-121 455,-151"/>
<text text-anchor="start" x="345" y="-139" font-family="Helvetica,sans-Serif" font-size="10.00">unilink/memory/safe</text>
<text text-anchor="middle" x="396" y="-128" font-family="Helvetica,sans-Serif" font-size="10.00">_data_buffer.hpp</text>
</a>
</g>
</g>
<!-- Node14&#45;&gt;Node31 -->
<g id="edge54_Node000014_Node000031" class="edge">
<title>Node14&#45;&gt;Node31</title>
<g id="a_edge54_Node000014_Node000031"><a xlink:title=" ">
<path fill="none" stroke="#63b8ff" d="M704.99,-252.95C672.9,-244.79 624.26,-231.61 583,-217 530.9,-198.56 472.61,-172.76 435.17,-155.5"/>
<polygon fill="#63b8ff" stroke="#63b8ff" points="436.2,-152.12 425.65,-151.09 433.25,-158.47 436.2,-152.12"/>
</a>
</g>
</g>
<!-- Node16&#45;&gt;Node2 -->
<g id="edge27_Node000016_Node000002" class="edge">
<title>Node16&#45;&gt;Node2</title>
<g id="a_edge27_Node000016_Node000002"><a xlink:title=" ">
<path fill="none" stroke="#63b8ff" d="M1039.47,-197.77C852.29,-189.14 360.25,-165.22 328,-151 297.02,-137.33 270.73,-106.79 256.47,-87.64"/>
<polygon fill="#63b8ff" stroke="#63b8ff" points="259.31,-85.59 250.63,-79.52 253.62,-89.68 259.31,-85.59"/>
</a>
</g>
</g>
<!-- Node16&#45;&gt;Node5 -->
<g id="edge32_Node000016_Node000005" class="edge">
<title>Node16&#45;&gt;Node5</title>
<g id="a_edge32_Node000016_Node000005"><a xlink:title=" ">
<path fill="none" stroke="#63b8ff" d="M1111,-192.47C1111,-171.82 1111,-118.72 1111,-90.04"/>
<polygon fill="#63b8ff" stroke="#63b8ff" points="1114.5,-89.73 1111,-79.73 1107.5,-89.73 1114.5,-89.73"/>
</a>
</g>
</g>
<!-- Node16&#45;&gt;Node6 -->
<g id="edge33_Node000016_Node000006" class="edge">
<title>Node16&#45;&gt;Node6</title>
<g id="a_edge33_Node000016_Node000006"><a xlink:title=" ">
<path fill="none" stroke="#63b8ff" d="M1039.34,-201.64C941.12,-200.9 772.03,-193.29 730,-151 714.31,-135.22 714.25,-108.18 716.46,-89.95"/>
<polygon fill="#63b8ff" stroke="#63b8ff" points="719.94,-90.34 718.01,-79.93 713.03,-89.27 719.94,-90.34"/>
</a>
</g>
</g>
<!-- Node16&#45;&gt;Node7 -->
<g id="edge35_Node000016_Node000007" class="edge">
<title>Node16&#45;&gt;Node7</title>
<g id="a_edge35_Node000016_Node000007"><a xlink:title=" ">
<path fill="none" stroke="#63b8ff" d="M1039.26,-196.35C958.8,-190.14 824.8,-176.79 712,-151 638.11,-134.11 554.93,-101.43 512.04,-83.51"/>
<polygon fill="#63b8ff" stroke="#63b8ff" points="513.35,-80.26 502.78,-79.6 510.63,-86.71 513.35,-80.26"/>
</a>
</g>
</g>
<!-- Node16&#45;&gt;Node11 -->
<g id="edge24_Node000016_Node000011" class="edge">
<title>Node16&#45;&gt;Node11</title>
<g id="a_edge24_Node000016_Node000011"><a xlink:title=" ">
<path fill="none" stroke="#63b8ff" d="M1182.96,-197.58C1300.75,-191.28 1524.31,-176.16 1550,-151 1582.59,-119.08 1577.95,-59.75 1572.91,-29.42"/>
<polygon fill="#63b8ff" stroke="#63b8ff" points="1576.3,-28.52 1571.03,-19.33 1569.42,-29.8 1576.3,-28.52"/>
</a>
</g>
</g>
<!-- Node16&#45;&gt;Node13 -->
<g id="edge31_Node000016_Node000013" class="edge">
<title>Node16&#45;&gt;Node13</title>
<g id="a_edge31_Node000016_Node000013"><a xlink:title=" ">
<path fill="none" stroke="#63b8ff" d="M1052.8,-192.46C1006.36,-184.31 946.73,-170.4 932,-151 888.38,-93.52 1005.32,-98.28 1014,-85 1021.29,-73.84 1023.08,-64.76 1014,-55 974.74,-12.83 570.07,-10.04 435.93,-10.28"/>
<polygon fill="#63b8ff" stroke="#63b8ff" points="435.63,-6.78 425.64,-10.31 435.65,-13.78 435.63,-6.78"/>
</a>
</g>
</g>
<!-- Node17 -->
<g id="Node000017" class="node">
<title>Node17</title>
<g id="a_Node000017"><a xlink:title=" ">
<polygon fill="#e0e0e0" stroke="#999999" points="1005,-79.5 955,-79.5 955,-60.5 1005,-60.5 1005,-79.5"/>
<text text-anchor="middle" x="980" y="-67.5" font-family="Helvetica,sans-Serif" font-size="10.00">chrono</text>
</a>
</g>
</g>
<!-- Node16&#45;&gt;Node17 -->
<g id="edge23_Node000016_Node000017" class="edge">
<title>Node16&#45;&gt;Node17</title>
<g id="a_edge23_Node000016_Node000017"><a xlink:title=" ">
<path fill="none" stroke="#63b8ff" d="M1039.47,-193.6C984.97,-186.31 916.43,-173.02 899,-151 878.54,-125.16 919.1,-99.04 949.87,-83.97"/>
<polygon fill="#63b8ff" stroke="#63b8ff" points="951.47,-87.08 959.03,-79.66 948.49,-80.75 951.47,-87.08"/>
</a>
</g>
</g>
<!-- Node18 -->
<g id="Node000018" class="node">
<title>Node18</title>
<g id="a_Node000018"><a xlink:title=" ">
<polygon fill="#e0e0e0" stroke="#999999" points="1189,-145.5 1139,-145.5 1139,-126.5 1189,-126.5 1189,-145.5"/>
<text text-anchor="middle" x="1164" y="-133.5" font-family="Helvetica,sans-Serif" font-size="10.00">cstring</text>
</a>
</g>
</g>
<!-- Node16&#45;&gt;Node18 -->
<g id="edge25_Node000016_Node000018" class="edge">
<title>Node16&#45;&gt;Node18</title>
<g id="a_edge25_Node000016_Node000018"><a xlink:title=" ">
<path fill="none" stroke="#63b8ff" d="M1118.15,-192.37C1126.32,-182.5 1139.89,-166.11 1150.16,-153.72"/>
<polygon fill="#63b8ff" stroke="#63b8ff" points="1152.94,-155.84 1156.63,-145.91 1147.55,-151.37 1152.94,-155.84"/>
</a>
</g>
</g>
<!-- Node19 -->
<g id="Node000019" class="node">
<title>Node19</title>
<g id="a_Node000019"><a xlink:title=" ">
<polygon fill="#e0e0e0" stroke="#999999" points="1251,-145.5 1207,-145.5 1207,-126.5 1251,-126.5 1251,-145.5"/>
<text text-anchor="middle" x="1229" y="-133.5" font-family="Helvetica,sans-Serif" font-size="10.00">ctime</text>
</a>
</g>
</g>
<!-- Node16&#45;&gt;Node19 -->
<g id="edge26_Node000016_Node000019" class="edge">
<title>Node16&#45;&gt;Node19</title>
<g id="a_edge26_Node000016_Node000019"><a xlink:title=" ">
<path fill="none" stroke="#63b8ff" d="M1126.91,-192.37C1146.71,-181.63 1180.73,-163.18 1204.01,-150.55"/>
<polygon fill="#63b8ff" stroke="#63b8ff" points="1205.84,-153.54 1212.96,-145.7 1202.5,-147.39 1205.84,-153.54"/>
</a>
</g>
</g>
<!-- Node20 -->
<g id="Node000020" class="node">
<title>Node20</title>
<g id="a_Node000020"><a xlink:title=" ">
<polygon fill="#e0e0e0" stroke="#999999" points="1325,-145.5 1269,-145.5 1269,-126.5 1325,-126.5 1325,-145.5"/>
<text text-anchor="middle" x="1297" y="-133.5" font-family="Helvetica,sans-Serif" font-size="10.00">iomanip</text>
</a>
</g>
</g>
<!-- Node16&#45;&gt;Node20 -->
<g id="edge28_Node000016_Node000020" class="edge">
<title>Node16&#45;&gt;Node20</title>
<g id="a_edge28_Node000016_Node000020"><a xlink:title=" ">
<path fill="none" stroke="#63b8ff" d="M1137.48,-192.45C1167.35,-182.73 1217.34,-166.22 1260,-151 1261.65,-150.41 1263.33,-149.8 1265.03,-149.18"/>
<polygon fill="#63b8ff" stroke="#63b8ff" points="1266.59,-152.34 1274.75,-145.58 1264.15,-145.78 1266.59,-152.34"/>
</a>
</g>
</g>
<!-- Node21 -->
<g id="Node000021" class="node">
<title>Node21</title>
<g id="a_Node000021"><a xlink:title=" ">
<polygon fill="#e0e0e0" stroke="#999999" points="1403,-145.5 1343,-145.5 1343,-126.5 1403,-126.5 1403,-145.5"/>
<text text-anchor="middle" x="1373" y="-133.5" font-family="Helvetica,sans-Serif" font-size="10.00">iostream</text>
</a>
</g>
</g>
<!-- Node16&#45;&gt;Node21 -->
<g id="edge29_Node000016_Node000021" class="edge">
<title>Node16&#45;&gt;Node21</title>
<g id="a_edge29_Node000016_Node000021"><a xlink:title=" ">
<path fill="none" stroke="#63b8ff" d="M1156.69,-192.48C1202.07,-183.62 1273.42,-168.59 1334,-151 1336.27,-150.34 1338.61,-149.62 1340.95,-148.86"/>
<polygon fill="#63b8ff" stroke="#63b8ff" points="1342.13,-152.16 1350.47,-145.62 1339.88,-145.53 1342.13,-152.16"/>
</a>
</g>
</g>
<!-- Node22 -->
<g id="Node000022" class="node">
<title>Node22</title>
<g id="a_Node000022"><a xlink:title=" ">
<polygon fill="#e0e0e0" stroke="#999999" points="1477,-145.5 1421,-145.5 1421,-126.5 1477,-126.5 1477,-145.5"/>
<text text-anchor="middle" x="1449" y="-133.5" font-family="Helvetica,sans-Serif" font-size="10.00">sstream</text>
</a>
</g>
</g>
<!-- Node16&#45;&gt;Node22 -->
<g id="edge30_Node000016_Node000022" class="edge">
<title>Node16&#45;&gt;Node22</title>
<g id="a_edge30_Node000016_Node000022"><a xlink:title=" ">
<path fill="none" stroke="#63b8ff" d="M1182.7,-193.13C1244.22,-185.42 1334.89,-171.77 1412,-151 1414.29,-150.38 1416.64,-149.68 1418.99,-148.92"/>
<polygon fill="#63b8ff" stroke="#63b8ff" points="1420.22,-152.19 1428.49,-145.58 1417.9,-145.59 1420.22,-152.19"/>
</a>
</g>
</g>
<!-- Node23 -->
<g id="Node000023" class="node">
<title>Node23</title>
<g id="a_Node000023"><a xlink:title=" ">
<polygon fill="#e0e0e0" stroke="#999999" points="1540.5,-145.5 1495.5,-145.5 1495.5,-126.5 1540.5,-126.5 1540.5,-145.5"/>
<text text-anchor="middle" x="1518" y="-133.5" font-family="Helvetica,sans-Serif" font-size="10.00">utility</text>
</a>
</g>
</g>
<!-- Node16&#45;&gt;Node23 -->
<g id="edge34_Node000016_Node000023" class="edge">
<title>Node16&#45;&gt;Node23</title>
<g id="a_edge34_Node000016_Node000023"><a xlink:title=" ">
<path fill="none" stroke="#63b8ff" d="M1182.69,-197.41C1259.06,-192.2 1382.89,-179.81 1486,-151 1487.69,-150.53 1489.4,-149.99 1491.11,-149.39"/>
<polygon fill="#63b8ff" stroke="#63b8ff" points="1492.7,-152.53 1500.72,-145.61 1490.13,-146.02 1492.7,-152.53"/>
</a>
</g>
</g>
<!-- Node24 -->
<g id="Node000024" class="node">
<title>Node24</title>
<g id="a_Node000024"><a xlink:href="constants_8hpp.html" target="_top" xlink:title=" ">
<polygon fill="white" stroke="#666666" points="1858.5,-145.5 1711.5,-145.5 1711.5,-126.5 1858.5,-126.5 1858.5,-145.5"/>
<text text-anchor="middle" x="1785" y="-133.5" font-family="Helvetica,sans-Serif" font-size="10.00">unilink/base/constants.hpp</text>
</a>
</g>
</g>
<!-- Node16&#45;&gt;Node24 -->
<g id="edge36_Node000016_Node000024" class="edge">
<title>Node16&#45;&gt;Node24</title>
<g id="a_edge36_Node000016_Node000024"><a xlink:title=" ">
<path fill="none" stroke="#63b8ff" d="M1182.81,-194.18C1308.43,-182.25 1567.4,-157.66 1701.07,-144.97"/>
<polygon fill="#63b8ff" stroke="#63b8ff" points="1701.64,-148.43 1711.26,-144 1700.98,-141.46 1701.64,-148.43"/>
</a>
</g>
</g>
<!-- Node26 -->
<g id="Node000026" class="node">
<title>Node26</title>
<g id="a_Node000026"><a xlink:href="platform_8hpp.html" target="_top" xlink:title=" ">
<polygon fill="white" stroke="#666666" points="1083,-145.5 941,-145.5 941,-126.5 1083,-126.5 1083,-145.5"/>
<text text-anchor="middle" x="1012" y="-133.5" font-family="Helvetica,sans-Serif" font-size="10.00">unilink/base/platform.hpp</text>
</a>
</g>
</g>
<!-- Node16&#45;&gt;Node26 -->
<g id="edge39_Node000016_Node000026" class="edge">
<title>Node16&#45;&gt;Node26</title>
<g id="a_edge39_Node000016_Node000026"><a xlink:title=" ">
<path fill="none" stroke="#63b8ff" d="M1097.65,-192.37C1081.34,-181.82 1053.51,-163.84 1034.01,-151.23"/>
<polygon fill="#63b8ff" stroke="#63b8ff" points="1035.75,-148.19 1025.46,-145.7 1031.95,-154.07 1035.75,-148.19"/>
</a>
</g>
</g>
<!-- Node27 -->
<g id="Node000027" class="node">
<title>Node27</title>
<g id="a_Node000027"><a xlink:href="logger_8hpp.html" target="_top" xlink:title=" ">
<polygon fill="white" stroke="#666666" points="847,-151 739,-151 739,-121 847,-121 847,-151"/>
<text text-anchor="start" x="747" y="-139" font-family="Helvetica,sans-Serif" font-size="10.00">unilink/diagnostics</text>
<text text-anchor="middle" x="793" y="-128" font-family="Helvetica,sans-Serif" font-size="10.00">/logger.hpp</text>
</a>
</g>
</g>
<!-- Node16&#45;&gt;Node27 -->
<g id="edge42_Node000016_Node000027" class="edge">
<title>Node16&#45;&gt;Node27</title>
<g id="a_edge42_Node000016_Node000027"><a xlink:title=" ">
<path fill="none" stroke="#63b8ff" d="M1068.07,-192.49C1018.26,-182.6 933.66,-165.75 861,-151 859.74,-150.74 858.46,-150.48 857.18,-150.22"/>
<polygon fill="#63b8ff" stroke="#63b8ff" points="857.68,-146.75 847.18,-148.18 856.28,-153.61 857.68,-146.75"/>
</a>
</g>
</g>
<!-- Node24&#45;&gt;Node11 -->
<g id="edge38_Node000024_Node000011" class="edge">
<title>Node24&#45;&gt;Node11</title>
<g id="a_edge38_Node000024_Node000011"><a xlink:title=" ">
<path fill="none" stroke="#63b8ff" d="M1770.15,-126.44C1733.31,-105.21 1637.46,-49.96 1592.69,-24.15"/>
<polygon fill="#63b8ff" stroke="#63b8ff" points="1594.36,-21.08 1583.95,-19.12 1590.87,-27.14 1594.36,-21.08"/>
</a>
</g>
</g>
<!-- Node25 -->
<g id="Node000025" class="node">
<title>Node25</title>
<g id="a_Node000025"><a xlink:title=" ">
<polygon fill="#e0e0e0" stroke="#999999" points="1837.5,-79.5 1784.5,-79.5 1784.5,-60.5 1837.5,-60.5 1837.5,-79.5"/>
<text text-anchor="middle" x="1811" y="-67.5" font-family="Helvetica,sans-Serif" font-size="10.00">cstddef</text>
</a>
</g>
</g>
<!-- Node24&#45;&gt;Node25 -->
<g id="edge37_Node000024_Node000025" class="edge">
<title>Node24&#45;&gt;Node25</title>
<g id="a_edge37_Node000024_Node000025"><a xlink:title=" ">
<path fill="none" stroke="#63b8ff" d="M1788.51,-126.37C1792.32,-116.97 1798.54,-101.67 1803.47,-89.53"/>
<polygon fill="#63b8ff" stroke="#63b8ff" points="1806.86,-90.49 1807.38,-79.91 1800.38,-87.85 1806.86,-90.49"/>
</a>
</g>
</g>
<!-- Node26&#45;&gt;Node5 -->
<g id="edge40_Node000026_Node000005" class="edge">
<title>Node26&#45;&gt;Node5</title>
<g id="a_edge40_Node000026_Node000005"><a xlink:title=" ">
<path fill="none" stroke="#63b8ff" d="M1025.35,-126.37C1041.66,-115.82 1069.49,-97.84 1088.99,-85.23"/>
<polygon fill="#63b8ff" stroke="#63b8ff" points="1091.05,-88.07 1097.54,-79.7 1087.25,-82.19 1091.05,-88.07"/>
</a>
</g>
</g>
<!-- Node26&#45;&gt;Node8 -->
<g id="edge41_Node000026_Node000008" class="edge">
<title>Node26&#45;&gt;Node8</title>
<g id="a_edge41_Node000026_Node000008"><a xlink:title=" ">
<path fill="none" stroke="#63b8ff" d="M951.35,-126.49C883.83,-116.89 771.49,-100.6 675,-85 667.82,-83.84 660.29,-82.58 652.84,-81.31"/>
<polygon fill="#63b8ff" stroke="#63b8ff" points="653.22,-77.82 642.77,-79.57 652.03,-84.72 653.22,-77.82"/>
</a>
</g>
</g>
<!-- Node27&#45;&gt;Node2 -->
<g id="edge45_Node000027_Node000002" class="edge">
<title>Node27&#45;&gt;Node2</title>
<g id="a_edge45_Node000027_Node000002"><a xlink:title=" ">
<path fill="none" stroke="#63b8ff" d="M738.85,-133.6C645.59,-130.33 449.09,-119.57 287,-85 283.94,-84.35 280.79,-83.55 277.66,-82.67"/>
<polygon fill="#63b8ff" stroke="#63b8ff" points="278.44,-79.24 267.85,-79.64 276.38,-85.93 278.44,-79.24"/>
</a>
</g>
</g>
<!-- Node27&#45;&gt;Node4 -->
<g id="edge46_Node000027_Node000004" class="edge">
<title>Node27&#45;&gt;Node4</title>
<g id="a_edge46_Node000027_Node000004"><a xlink:title=" ">
<path fill="none" stroke="#63b8ff" d="M738.95,-132.21C613.45,-125.45 305.27,-107.08 204,-85 201.17,-84.38 198.26,-83.61 195.37,-82.75"/>
<polygon fill="#63b8ff" stroke="#63b8ff" points="196.35,-79.39 185.76,-79.58 194.15,-86.04 196.35,-79.39"/>
</a>
</g>
</g>
<!-- Node27&#45;&gt;Node5 -->
<g id="edge48_Node000027_Node000005" class="edge">
<title>Node27&#45;&gt;Node5</title>
<g id="a_edge48_Node000027_Node000005"><a xlink:title=" ">
<path fill="none" stroke="#63b8ff" d="M847.3,-124.07C913.83,-110.68 1024.36,-88.44 1078.75,-77.49"/>
<polygon fill="#63b8ff" stroke="#63b8ff" points="1079.74,-80.86 1088.85,-75.46 1078.36,-74 1079.74,-80.86"/>
</a>
</g>
</g>
<!-- Node27&#45;&gt;Node6 -->
<g id="edge49_Node000027_Node000006" class="edge">
<title>Node27&#45;&gt;Node6</title>
<g id="a_edge49_Node000027_Node000006"><a xlink:title=" ">
<path fill="none" stroke="#63b8ff" d="M776.8,-120.8C765.2,-110.62 749.58,-96.93 737.66,-86.48"/>
<polygon fill="#63b8ff" stroke="#63b8ff" points="739.91,-83.8 730.09,-79.84 735.3,-89.07 739.91,-83.8"/>
</a>
</g>
</g>
<!-- Node27&#45;&gt;Node7 -->
<g id="edge50_Node000027_Node000007" class="edge">
<title>Node27&#45;&gt;Node7</title>
<g id="a_edge50_Node000027_Node000007"><a xlink:title=" ">
<path fill="none" stroke="#63b8ff" d="M738.81,-128.85C682.36,-121.6 591.74,-107.6 516,-85 514.32,-84.5 512.61,-83.94 510.89,-83.34"/>
<polygon fill="#63b8ff" stroke="#63b8ff" points="511.82,-79.94 501.23,-79.59 509.29,-86.47 511.82,-79.94"/>
</a>
</g>
</g>
<!-- Node27&#45;&gt;Node8 -->
<g id="edge51_Node000027_Node000008" class="edge">
<title>Node27&#45;&gt;Node8</title>
<g id="a_edge51_Node000027_Node000008"><a xlink:title=" ">
<path fill="none" stroke="#63b8ff" d="M749.55,-120.95C714.06,-109.48 664.49,-93.46 631.14,-82.68"/>
<polygon fill="#63b8ff" stroke="#63b8ff" points="631.94,-79.26 621.35,-79.52 629.79,-85.92 631.94,-79.26"/>
</a>
</g>
</g>
<!-- Node27&#45;&gt;Node17 -->
<g id="edge44_Node000027_Node000017" class="edge">
<title>Node27&#45;&gt;Node17</title>
<g id="a_edge44_Node000027_Node000017"><a xlink:title=" ">
<path fill="none" stroke="#63b8ff" d="M839.17,-120.9C869.69,-111.34 910.47,-98.1 946,-85 947.42,-84.48 948.87,-83.93 950.34,-83.37"/>
<polygon fill="#63b8ff" stroke="#63b8ff" points="951.96,-86.49 959.96,-79.54 949.38,-79.98 951.96,-86.49"/>
</a>
</g>
</g>
<!-- Node28 -->
<g id="Node000028" class="node">
<title>Node28</title>
<g id="a_Node000028"><a xlink:title=" ">
<polygon fill="#e0e0e0" stroke="#999999" points="825,-79.5 775,-79.5 775,-60.5 825,-60.5 825,-79.5"/>
<text text-anchor="middle" x="800" y="-67.5" font-family="Helvetica,sans-Serif" font-size="10.00">atomic</text>
</a>
</g>
</g>
<!-- Node27&#45;&gt;Node28 -->
<g id="edge43_Node000027_Node000028" class="edge">
<title>Node27&#45;&gt;Node28</title>
<g id="a_edge43_Node000027_Node000028"><a xlink:title=" ">
<path fill="none" stroke="#63b8ff" d="M794.55,-120.8C795.55,-111.7 796.85,-99.79 797.93,-89.9"/>
<polygon fill="#63b8ff" stroke="#63b8ff" points="801.42,-90.17 799.03,-79.84 794.47,-89.4 801.42,-90.17"/>
</a>
</g>
</g>
<!-- Node29 -->
<g id="Node000029" class="node">
<title>Node29</title>
<g id="a_Node000029"><a xlink:title=" ">
<polygon fill="#e0e0e0" stroke="#999999" points="936.5,-79.5 843.5,-79.5 843.5,-60.5 936.5,-60.5 936.5,-79.5"/>
<text text-anchor="middle" x="890" y="-67.5" font-family="Helvetica,sans-Serif" font-size="10.00">source_location</text>
</a>
</g>
</g>
<!-- Node27&#45;&gt;Node29 -->
<g id="edge47_Node000027_Node000029" class="edge">
<title>Node27&#45;&gt;Node29</title>
<g id="a_edge47_Node000027_Node000029"><a xlink:title=" ">
<path fill="none" stroke="#63b8ff" d="M814.53,-120.8C830.48,-110.27 852.15,-95.97 868.18,-85.4"/>
<polygon fill="#63b8ff" stroke="#63b8ff" points="870.46,-88.09 876.88,-79.66 866.6,-82.24 870.46,-88.09"/>
</a>
</g>
</g>
<!-- Node30&#45;&gt;Node5 -->
<g id="edge53_Node000030_Node000005" class="edge">
<title>Node30&#45;&gt;Node5</title>
<g id="a_edge53_Node000030_Node000005"><a xlink:title=" ">
<path fill="none" stroke="#63b8ff" d="M1613.41,-186.96C1623.94,-169.33 1637.5,-139.2 1621,-121 1588.86,-85.56 1250.64,-74.37 1143.41,-71.71"/>
<polygon fill="#63b8ff" stroke="#63b8ff" points="1143.29,-68.2 1133.21,-71.46 1143.12,-75.2 1143.29,-68.2"/>
</a>
</g>
</g>
<!-- Node31&#45;&gt;Node2 -->
<g id="edge56_Node000031_Node000002" class="edge">
<title>Node31&#45;&gt;Node2</title>
<g id="a_edge56_Node000031_Node000002"><a xlink:title=" ">
<path fill="none" stroke="#63b8ff" d="M362.86,-120.95C336.5,-109.78 299.94,-94.29 274.56,-83.53"/>
<polygon fill="#63b8ff" stroke="#63b8ff" points="275.67,-80.2 265.1,-79.52 272.94,-86.64 275.67,-80.2"/>
</a>
</g>
</g>
<!-- Node31&#45;&gt;Node4 -->
<g id="edge57_Node000031_Node000004" class="edge">
<title>Node31&#45;&gt;Node4</title>
<g id="a_edge57_Node000031_Node000004"><a xlink:title=" ">
<path fill="none" stroke="#63b8ff" d="M336.79,-121.04C298.64,-111.69 248.1,-98.63 204,-85 201.88,-84.34 199.7,-83.64 197.51,-82.92"/>
<polygon fill="#63b8ff" stroke="#63b8ff" points="198.58,-79.58 187.98,-79.64 196.3,-86.2 198.58,-79.58"/>
</a>
</g>
</g>
<!-- Node31&#45;&gt;Node5 -->
<g id="edge59_Node000031_Node000005" class="edge">
<title>Node31&#45;&gt;Node5</title>
<g id="a_edge59_Node000031_Node000005"><a xlink:title=" ">
<path fill="none" stroke="#63b8ff" d="M455.35,-131.44C565.6,-124.55 809.42,-108.02 1014,-85 1035.58,-82.57 1059.76,-79.08 1078.58,-76.2"/>
<polygon fill="#63b8ff" stroke="#63b8ff" points="1079.36,-79.62 1088.71,-74.62 1078.29,-72.7 1079.36,-79.62"/>
</a>
</g>
</g>
<!-- Node31&#45;&gt;Node6 -->
<g id="edge60_Node000031_Node000006" class="edge">
<title>Node31&#45;&gt;Node6</title>
<g id="a_edge60_Node000031_Node000006"><a xlink:title=" ">
<path fill="none" stroke="#63b8ff" d="M455.26,-126.41C511.83,-117.72 599.28,-103.02 674,-85 677.35,-84.19 680.81,-83.28 684.26,-82.32"/>
<polygon fill="#63b8ff" stroke="#63b8ff" points="685.25,-85.68 693.87,-79.53 683.3,-78.96 685.25,-85.68"/>
</a>
</g>
</g>
<!-- Node31&#45;&gt;Node7 -->
<g id="edge62_Node000031_Node000007" class="edge">
<title>Node31&#45;&gt;Node7</title>
<g id="a_edge62_Node000031_Node000007"><a xlink:title=" ">
<path fill="none" stroke="#63b8ff" d="M415.31,-120.8C429.49,-110.37 448.69,-96.24 463.02,-85.69"/>
<polygon fill="#63b8ff" stroke="#63b8ff" points="465.25,-88.4 471.23,-79.66 461.1,-82.76 465.25,-88.4"/>
</a>
</g>
</g>
<!-- Node31&#45;&gt;Node8 -->
<g id="edge63_Node000031_Node000008" class="edge">
<title>Node31&#45;&gt;Node8</title>
<g id="a_edge63_Node000031_Node000008"><a xlink:title=" ">
<path fill="none" stroke="#63b8ff" d="M439.67,-120.95C475.34,-109.48 525.16,-93.46 558.67,-82.68"/>
<polygon fill="#63b8ff" stroke="#63b8ff" points="560.07,-85.91 568.52,-79.52 557.93,-79.25 560.07,-85.91"/>
</a>
</g>
</g>
<!-- Node31&#45;&gt;Node10 -->
<g id="edge64_Node000031_Node000010" class="edge">
<title>Node31&#45;&gt;Node10</title>
<g id="a_edge64_Node000031_Node000010"><a xlink:title=" ">
<path fill="none" stroke="#63b8ff" d="M336.9,-124.35C284.59,-114.85 205.92,-100.38 128.28,-85.23"/>
<polygon fill="#63b8ff" stroke="#63b8ff" points="128.81,-81.77 118.32,-83.28 127.47,-88.64 128.81,-81.77"/>
</a>
</g>
</g>
<!-- Node31&#45;&gt;Node11 -->
<g id="edge55_Node000031_Node000011" class="edge">
<title>Node31&#45;&gt;Node11</title>
<g id="a_edge55_Node000031_Node000011"><a xlink:title=" ">
<path fill="none" stroke="#63b8ff" d="M401.02,-120.96C408.59,-102.14 424.88,-69.41 451,-55 499.49,-28.25 1349.02,-13.84 1533.74,-11.02"/>
<polygon fill="#63b8ff" stroke="#63b8ff" points="1534.03,-14.51 1543.98,-10.86 1533.92,-7.51 1534.03,-14.51"/>
</a>
</g>
</g>
<!-- Node31&#45;&gt;Node13 -->
<g id="edge58_Node000031_Node000013" class="edge">
<title>Node31&#45;&gt;Node13</title>
<g id="a_edge58_Node000031_Node000013"><a xlink:title=" ">
<path fill="none" stroke="#63b8ff" d="M395.66,-120.72C395.11,-98.12 394.05,-54.12 393.45,-29.09"/>
<polygon fill="#63b8ff" stroke="#63b8ff" points="396.95,-28.98 393.21,-19.07 389.95,-29.15 396.95,-28.98"/>
</a>
</g>
</g>
<!-- Node32 -->
<g id="Node000032" class="node">
<title>Node32</title>
<g id="a_Node000032"><a xlink:title=" ">
<polygon fill="#e0e0e0" stroke="#999999" points="364.5,-79.5 295.5,-79.5 295.5,-60.5 364.5,-60.5 364.5,-79.5"/>
<text text-anchor="middle" x="330" y="-67.5" font-family="Helvetica,sans-Serif" font-size="10.00">type_traits</text>
</a>
</g>
</g>
<!-- Node31&#45;&gt;Node32 -->
<g id="edge61_Node000031_Node000032" class="edge">
<title>Node31&#45;&gt;Node32</title>
<g id="a_edge61_Node000031_Node000032"><a xlink:title=" ">
<path fill="none" stroke="#63b8ff" d="M381.35,-120.8C371.06,-110.82 357.28,-97.46 346.59,-87.09"/>
<polygon fill="#63b8ff" stroke="#63b8ff" points="348.74,-84.29 339.12,-79.84 343.86,-89.32 348.74,-84.29"/>
</a>
</g>
</g>
<!-- Node33&#45;&gt;Node11 -->
<g id="edge68_Node000033_Node000011" class="edge">
<title>Node33&#45;&gt;Node11</title>
<g id="a_edge68_Node000033_Node000011"><a xlink:title=" ">
<path fill="none" stroke="#63b8ff" d="M1931.47,-120.76C1914.36,-102.33 1881.81,-70.72 1847,-55 1765.56,-18.22 1658.67,-11.28 1604.21,-10.31"/>
<polygon fill="#63b8ff" stroke="#63b8ff" points="1604.08,-6.81 1594.03,-10.19 1603.99,-13.81 1604.08,-6.81"/>
</a>
</g>
</g>
<!-- Node33&#45;&gt;Node25 -->
<g id="edge67_Node000033_Node000025" class="edge">
<title>Node33&#45;&gt;Node25</title>
<g id="a_edge67_Node000033_Node000025"><a xlink:title=" ">
<path fill="none" stroke="#63b8ff" d="M1914.81,-120.95C1891.9,-109.93 1860.25,-94.7 1837.93,-83.96"/>
<polygon fill="#63b8ff" stroke="#63b8ff" points="1839.23,-80.7 1828.7,-79.52 1836.19,-87.01 1839.23,-80.7"/>
</a>
</g>
</g>
</g>
</svg>
