<?xml version="1.0" encoding="UTF-8" standalone="no"?>
<!DOCTYPE svg PUBLIC "-//W3C//DTD SVG 1.1//EN"
 "http://www.w3.org/Graphics/SVG/1.1/DTD/svg11.dtd">
<!-- Generated by graphviz version 2.43.0 (0)
 -->
<!-- Title: unilink/wrapper/ichannel.hpp Pages: 1 -->
<!--zoomable 335 -->

<svg id="main" version="1.1" xmlns="http://www.w3.org/2000/svg" xmlns:xlink="http://www.w3.org/1999/xlink" xml:space="preserve" onload="init(evt)">
<style type="text/css"><![CDATA[
.node, .edge {opacity: 0.7;}
.node.selected, .edge.selected {opacity: 1;}
.edge:hover path { stroke: red; }
.edge:hover polygon { stroke: red; fill: red; }
]]></style>

<defs>
  <circle id="rim" cx="0" cy="0" r="7"/>
  <circle id="rim2" cx="0" cy="0" r="3.5"/>
  <g id="zoomPlus">
    <use xlink:href="#rim" fill="#404040"><set attributeName="fill" to="#808080" begin="zoomplus.mouseover" end="zoomplus.mouseout"/></use>
    <path d="M-4,0h8M0,-4v8" fill="none" stroke="white" stroke-width="1.5" pointer-events="none"/>
  </g>
  <g id="zoomMin">
    <use xlink:href="#rim" fill="#404040"><set attributeName="fill" to="#808080" begin="zoomminus.mouseover" end="zoomminus.mouseout"/></use>
    <path d="M-4,0h8" fill="none" stroke="white" stroke-width="1.5" pointer-events="none"/>
  </g>
  <g id="arrowUp" transform="translate(30 24)">
    <use xlink:href="#rim"/>
    <path pointer-events="none" fill="none" stroke="white" stroke-width="1.5" d="M0,-3.0v7 M-2.5,-0.5L0,-3.0L2.5,-0.5"/>
  </g>
  <g id="arrowRight" transform="rotate(90) translate(36 -43)">
    <use xlink:href="#rim"/>
    <path pointer-events="none" fill="none" stroke="white" stroke-width="1.5" d="M0,-3.0v7 M-2.5,-0.5L0,-3.0L2.5,-0.5"/>
  </g>
  <g id="arrowDown" transform="rotate(180) translate(-30 -48)">
    <use xlink:href="#rim"/>
    <path pointer-events="none" fill="none" stroke="white" stroke-width="1.5" d="M0,-3.0v7 M-2.5,-0.5L0,-3.0L2.5,-0.5"/>
  </g>
  <g id="arrowLeft" transform="rotate(270) translate(-36 17)">
    <use xlink:href="#rim"/>
    <path pointer-events="none" fill="none" stroke="white" stroke-width="1.5" d="M0,-3.0v7 M-2.5,-0.5L0,-3.0L2.5,-0.5"/>
  </g>
  <g id="resetDef">
    <use xlink:href="#rim2" fill="#404040"><set attributeName="fill" to="#808080" begin="reset.mouseover" end="reset.mouseout"/></use>
  </g>
</defs>
<script type="application/ecmascript">
var viewWidth = 1659;
var viewHeight = 335;
var sectionId = 'dynsection-0';
</script>
<script type="application/ecmascript" xlink:href="svg.min.js"/>
<svg id="graph" class="graph">
<g id="viewport">
<title>unilink/wrapper/ichannel.hpp</title>
<!-- Node1 -->
<g id="Node000001" class="node">
<title>Node1</title>
<g id="a_Node000001"><a xlink:title=" ">
<polygon fill="#999999" stroke="#666666" points="389.38,-327 231.38,-327 231.38,-308 389.38,-308 389.38,-327"/>
<text text-anchor="middle" x="310.38" y="-315" font-family="Helvetica,sans-Serif" font-size="10.00">unilink/wrapper/ichannel.hpp</text>
</a>
</g>
</g>
<!-- Node2 -->
<g id="Node000002" class="node">
<title>Node2</title>
<g id="a_Node000002"><a xlink:title=" ">
<polygon fill="#e0e0e0" stroke="#999999" points="131.88,-79.5 66.88,-79.5 66.88,-60.5 131.88,-60.5 131.88,-79.5"/>
<text text-anchor="middle" x="99.38" y="-67.5" font-family="Helvetica,sans-Serif" font-size="10.00">functional</text>
</a>
</g>
</g>
<!-- Node1&#45;&gt;Node2 -->
<g id="edge1_Node000001_Node000002" class="edge">
<title>Node1&#45;&gt;Node2</title>
<g id="a_edge1_Node000001_Node000002"><a xlink:title=" ">
<path fill="none" stroke="#63b8ff" d="M285.72,-307.87C235.45,-288.78 122.11,-237.63 77.38,-151 66.99,-130.89 77.65,-105.32 87.43,-88.57"/>
<polygon fill="#63b8ff" stroke="#63b8ff" points="90.56,-90.17 92.92,-79.84 84.63,-86.44 90.56,-90.17"/>
</a>
</g>
</g>
<!-- Node3 -->
<g id="Node000003" class="node">
<title>Node3</title>
<g id="a_Node000003"><a xlink:title=" ">
<polygon fill="#e0e0e0" stroke="#999999" points="106.38,-272 60.38,-272 60.38,-253 106.38,-253 106.38,-272"/>
<text text-anchor="middle" x="83.38" y="-260" font-family="Helvetica,sans-Serif" font-size="10.00">future</text>
</a>
</g>
</g>
<!-- Node1&#45;&gt;Node3 -->
<g id="edge2_Node000001_Node000003" class="edge">
<title>Node1&#45;&gt;Node3</title>
<g id="a_edge2_Node000001_Node000003"><a xlink:title=" ">
<path fill="none" stroke="#63b8ff" d="M273.91,-307.98C230.46,-297.84 158.52,-281.04 116.57,-271.25"/>
<polygon fill="#63b8ff" stroke="#63b8ff" points="117.12,-267.79 106.59,-268.92 115.53,-274.6 117.12,-267.79"/>
</a>
</g>
</g>
<!-- Node4 -->
<g id="Node000004" class="node">
<title>Node4</title>
<g id="a_Node000004"><a xlink:title=" ">
<polygon fill="#e0e0e0" stroke="#999999" points="208.38,-79.5 150.38,-79.5 150.38,-60.5 208.38,-60.5 208.38,-79.5"/>
<text text-anchor="middle" x="179.38" y="-67.5" font-family="Helvetica,sans-Serif" font-size="10.00">memory</text>
</a>
</g>
</g>
<!-- Node1&#45;&gt;Node4 -->
<g id="edge3_Node000001_Node000004" class="edge">
<title>Node1&#45;&gt;Node4</title>
<g id="a_edge3_Node000001_Node000004"><a xlink:title=" ">
<path fill="none" stroke="#63b8ff" d="M231.23,-313.77C163.73,-309.58 74.09,-298.95 51.38,-272 22.68,-237.95 -65.11,-315.2 89.38,-121 97.84,-110.37 128,-94.72 151.1,-83.78"/>
<polygon fill="#63b8ff" stroke="#63b8ff" points="152.58,-86.94 160.17,-79.54 149.62,-80.6 152.58,-86.94"/>
</a>
</g>
</g>
<!-- Node5 -->
<g id="Node000005" class="node">
<title>Node5</title>
<g id="a_Node000005"><a xlink:title=" ">
<polygon fill="#e0e0e0" stroke="#999999" points="806.38,-79.5 762.38,-79.5 762.38,-60.5 806.38,-60.5 806.38,-79.5"/>
<text text-anchor="middle" x="784.38" y="-67.5" font-family="Helvetica,sans-Serif" font-size="10.00">string</text>
</a>
</g>
</g>
<!-- Node1&#45;&gt;Node5 -->
<g id="edge4_Node000001_Node000005" class="edge">
<title>Node1&#45;&gt;Node5</title>
<g id="a_edge4_Node000001_Node000005"><a xlink:title=" ">
<path fill="none" stroke="#63b8ff" d="M325.04,-307.91C365.62,-284 482.63,-214.33 576.38,-151 595.09,-138.36 597.12,-130.97 617.38,-121 668.87,-95.67 686.53,-101.89 741.38,-85 744.97,-83.9 748.71,-82.72 752.44,-81.53"/>
<polygon fill="#63b8ff" stroke="#63b8ff" points="753.66,-84.81 762.1,-78.4 751.51,-78.15 753.66,-84.81"/>
</a>
</g>
</g>
<!-- Node6 -->
<g id="Node000006" class="node">
<title>Node6</title>
<g id="a_Node000006"><a xlink:title=" ">
<polygon fill="#e0e0e0" stroke="#999999" points="1076.88,-79.5 1003.88,-79.5 1003.88,-60.5 1076.88,-60.5 1076.88,-79.5"/>
<text text-anchor="middle" x="1040.38" y="-67.5" font-family="Helvetica,sans-Serif" font-size="10.00">string_view</text>
</a>
</g>
</g>
<!-- Node1&#45;&gt;Node6 -->
<g id="edge5_Node000001_Node000006" class="edge">
<title>Node1&#45;&gt;Node6</title>
<g id="a_edge5_Node000001_Node000006"><a xlink:title=" ">
<path fill="none" stroke="#63b8ff" d="M389.38,-313.32C515.94,-307.64 758.32,-294.23 841.38,-272 933.08,-247.46 971.48,-234.09 1017.38,-151 1028.05,-131.68 1034.18,-106.93 1037.38,-90.11"/>
<polygon fill="#63b8ff" stroke="#63b8ff" points="1040.89,-90.35 1039.15,-79.9 1033.99,-89.16 1040.89,-90.35"/>
</a>
</g>
</g>
<!-- Node7 -->
<g id="Node000007" class="node">
<title>Node7</title>
<g id="a_Node000007"><a xlink:title=" ">
<polygon fill="#e0e0e0" stroke="#999999" points="409.88,-79.5 362.88,-79.5 362.88,-60.5 409.88,-60.5 409.88,-79.5"/>
<text text-anchor="middle" x="386.38" y="-67.5" font-family="Helvetica,sans-Serif" font-size="10.00">vector</text>
</a>
</g>
</g>
<!-- Node1&#45;&gt;Node7 -->
<g id="edge6_Node000001_Node000007" class="edge">
<title>Node1&#45;&gt;Node7</title>
<g id="a_edge6_Node000001_Node000007"><a xlink:title=" ">
<path fill="none" stroke="#63b8ff" d="M313.08,-307.76C324.07,-272.27 365.51,-138.41 380.73,-89.25"/>
<polygon fill="#63b8ff" stroke="#63b8ff" points="384.09,-90.22 383.71,-79.63 377.4,-88.15 384.09,-90.22"/>
</a>
</g>
</g>
<!-- Node8 -->
<g id="Node000008" class="node">
<title>Node8</title>
<g id="a_Node000008"><a xlink:href="visibility_8hpp.html" target="_top" xlink:title=" ">
<polygon fill="white" stroke="#666666" points="732.38,-79.5 592.38,-79.5 592.38,-60.5 732.38,-60.5 732.38,-79.5"/>
<text text-anchor="middle" x="662.38" y="-67.5" font-family="Helvetica,sans-Serif" font-size="10.00">unilink/base/visibility.hpp</text>
</a>
</g>
</g>
<!-- Node1&#45;&gt;Node8 -->
<g id="edge7_Node000001_Node000008" class="edge">
<title>Node1&#45;&gt;Node8</title>
<g id="a_edge7_Node000001_Node000008"><a xlink:title=" ">
<path fill="none" stroke="#63b8ff" d="M316.42,-307.84C334.84,-281.63 390.66,-203.95 416.38,-187 464.65,-155.19 489.19,-175.88 541.38,-151 562.41,-140.97 565.01,-133.96 584.38,-121 603.04,-108.51 624.55,-94.78 640.24,-84.87"/>
<polygon fill="#63b8ff" stroke="#63b8ff" points="642.15,-87.8 648.75,-79.51 638.42,-81.88 642.15,-87.8"/>
</a>
</g>
</g>
<!-- Node9 -->
<g id="Node000009" class="node">
<title>Node9</title>
<g id="a_Node000009"><a xlink:href="iframer_8hpp.html" target="_top" xlink:title=" ">
<polygon fill="white" stroke="#666666" points="243.88,-145.5 98.88,-145.5 98.88,-126.5 243.88,-126.5 243.88,-145.5"/>
<text text-anchor="middle" x="171.38" y="-133.5" font-family="Helvetica,sans-Serif" font-size="10.00">unilink/framer/iframer.hpp</text>
</a>
</g>
</g>
<!-- Node1&#45;&gt;Node9 -->
<g id="edge8_Node000001_Node000009" class="edge">
<title>Node1&#45;&gt;Node9</title>
<g id="a_edge8_Node000001_Node000009"><a xlink:title=" ">
<path fill="none" stroke="#63b8ff" d="M303.67,-307.84C281.98,-279.82 213.4,-191.27 184.47,-153.9"/>
<polygon fill="#63b8ff" stroke="#63b8ff" points="186.9,-151.33 178.02,-145.57 181.37,-155.62 186.9,-151.33"/>
</a>
</g>
</g>
<!-- Node14 -->
<g id="Node000014" class="node">
<title>Node14</title>
<g id="a_Node000014"><a xlink:href="context_8hpp.html" target="_top" xlink:title=" ">
<polygon fill="white" stroke="#666666" points="831.88,-272 678.88,-272 678.88,-253 831.88,-253 831.88,-272"/>
<text text-anchor="middle" x="755.38" y="-260" font-family="Helvetica,sans-Serif" font-size="10.00">unilink/wrapper/context.hpp</text>
</a>
</g>
</g>
<!-- Node1&#45;&gt;Node14 -->
<g id="edge17_Node000001_Node000014" class="edge">
<title>Node1&#45;&gt;Node14</title>
<g id="a_edge17_Node000001_Node000014"><a xlink:title=" ">
<path fill="none" stroke="#63b8ff" d="M381.87,-307.98C461.55,-298.49 590.15,-283.18 673.73,-273.22"/>
<polygon fill="#63b8ff" stroke="#63b8ff" points="674.17,-276.7 683.69,-272.04 673.35,-269.75 674.17,-276.7"/>
</a>
</g>
</g>
<!-- Node9&#45;&gt;Node2 -->
<g id="edge9_Node000009_Node000002" class="edge">
<title>Node9&#45;&gt;Node2</title>
<g id="a_edge9_Node000009_Node000002"><a xlink:title=" ">
<path fill="none" stroke="#63b8ff" d="M161.67,-126.37C150.24,-116.21 131.06,-99.16 116.99,-86.65"/>
<polygon fill="#63b8ff" stroke="#63b8ff" points="119.2,-83.93 109.4,-79.91 114.55,-89.16 119.2,-83.93"/>
</a>
</g>
</g>
<!-- Node9&#45;&gt;Node4 -->
<g id="edge10_Node000009_Node000004" class="edge">
<title>Node9&#45;&gt;Node4</title>
<g id="a_edge10_Node000009_Node000004"><a xlink:title=" ">
<path fill="none" stroke="#63b8ff" d="M172.46,-126.37C173.62,-117.07 175.51,-101.98 177.02,-89.9"/>
<polygon fill="#63b8ff" stroke="#63b8ff" points="180.5,-90.26 178.26,-79.91 173.55,-89.39 180.5,-90.26"/>
</a>
</g>
</g>
<!-- Node9&#45;&gt;Node7 -->
<g id="edge11_Node000009_Node000007" class="edge">
<title>Node9&#45;&gt;Node7</title>
<g id="a_edge11_Node000009_Node000007"><a xlink:title=" ">
<path fill="none" stroke="#63b8ff" d="M208.07,-126.44C245.14,-117.45 303.86,-102.22 353.38,-85 354.81,-84.5 356.27,-83.97 357.74,-83.42"/>
<polygon fill="#63b8ff" stroke="#63b8ff" points="359.36,-86.54 367.35,-79.58 356.77,-80.04 359.36,-86.54"/>
</a>
</g>
</g>
<!-- Node9&#45;&gt;Node8 -->
<g id="edge12_Node000009_Node000008" class="edge">
<title>Node9&#45;&gt;Node8</title>
<g id="a_edge12_Node000009_Node000008"><a xlink:title=" ">
<path fill="none" stroke="#63b8ff" d="M236.83,-126.47C327.52,-114.65 491.01,-93.34 586.79,-80.85"/>
<polygon fill="#63b8ff" stroke="#63b8ff" points="587.52,-84.29 596.98,-79.52 586.61,-77.35 587.52,-84.29"/>
</a>
</g>
</g>
<!-- Node10 -->
<g id="Node000010" class="node">
<title>Node10</title>
<g id="a_Node000010"><a xlink:href="safe__span_8hpp.html" target="_top" xlink:title=" ">
<polygon fill="white" stroke="#666666" points="344.38,-85 226.38,-85 226.38,-55 344.38,-55 344.38,-85"/>
<text text-anchor="start" x="234.38" y="-73" font-family="Helvetica,sans-Serif" font-size="10.00">unilink/memory/safe</text>
<text text-anchor="middle" x="285.38" y="-62" font-family="Helvetica,sans-Serif" font-size="10.00">_span.hpp</text>
</a>
</g>
</g>
<!-- Node9&#45;&gt;Node10 -->
<g id="edge13_Node000009_Node000010" class="edge">
<title>Node9&#45;&gt;Node10</title>
<g id="a_edge13_Node000009_Node000010"><a xlink:title=" ">
<path fill="none" stroke="#63b8ff" d="M186.75,-126.37C203.24,-117.11 229.94,-102.12 251.4,-90.07"/>
<polygon fill="#63b8ff" stroke="#63b8ff" points="253.23,-93.06 260.23,-85.12 249.8,-86.96 253.23,-93.06"/>
</a>
</g>
</g>
<!-- Node11 -->
<g id="Node000011" class="node">
<title>Node11</title>
<g id="a_Node000011"><a xlink:title=" ">
<polygon fill="#e0e0e0" stroke="#999999" points="488.38,-19 438.38,-19 438.38,0 488.38,0 488.38,-19"/>
<text text-anchor="middle" x="463.38" y="-7" font-family="Helvetica,sans-Serif" font-size="10.00">cstdint</text>
</a>
</g>
</g>
<!-- Node10&#45;&gt;Node11 -->
<g id="edge14_Node000010_Node000011" class="edge">
<title>Node10&#45;&gt;Node11</title>
<g id="a_edge14_Node000010_Node000011"><a xlink:title=" ">
<path fill="none" stroke="#63b8ff" d="M328.01,-54.99C358.74,-44.89 399.7,-31.43 428.49,-21.97"/>
<polygon fill="#63b8ff" stroke="#63b8ff" points="429.72,-25.25 438.13,-18.8 427.53,-18.6 429.72,-25.25"/>
</a>
</g>
</g>
<!-- Node12 -->
<g id="Node000012" class="node">
<title>Node12</title>
<g id="a_Node000012"><a xlink:title=" ">
<polygon fill="#e0e0e0" stroke="#999999" points="305.38,-19 265.38,-19 265.38,0 305.38,0 305.38,-19"/>
<text text-anchor="middle" x="285.38" y="-7" font-family="Helvetica,sans-Serif" font-size="10.00">span</text>
</a>
</g>
</g>
<!-- Node10&#45;&gt;Node12 -->
<g id="edge15_Node000010_Node000012" class="edge">
<title>Node10&#45;&gt;Node12</title>
<g id="a_edge15_Node000010_Node000012"><a xlink:title=" ">
<path fill="none" stroke="#63b8ff" d="M285.38,-54.84C285.38,-47.21 285.38,-37.7 285.38,-29.45"/>
<polygon fill="#63b8ff" stroke="#63b8ff" points="288.88,-29.27 285.38,-19.27 281.88,-29.27 288.88,-29.27"/>
</a>
</g>
</g>
<!-- Node13 -->
<g id="Node000013" class="node">
<title>Node13</title>
<g id="a_Node000013"><a xlink:title=" ">
<polygon fill="#e0e0e0" stroke="#999999" points="596.88,-19 531.88,-19 531.88,0 596.88,0 596.88,-19"/>
<text text-anchor="middle" x="564.38" y="-7" font-family="Helvetica,sans-Serif" font-size="10.00">stdexcept</text>
</a>
</g>
</g>
<!-- Node10&#45;&gt;Node13 -->
<g id="edge16_Node000010_Node000013" class="edge">
<title>Node10&#45;&gt;Node13</title>
<g id="a_edge16_Node000010_Node000013"><a xlink:title=" ">
<path fill="none" stroke="#63b8ff" d="M344.55,-56.59C397.75,-45.44 474.59,-29.33 521.92,-19.4"/>
<polygon fill="#63b8ff" stroke="#63b8ff" points="522.77,-22.8 531.84,-17.32 521.33,-15.95 522.77,-22.8"/>
</a>
</g>
</g>
<!-- Node14&#45;&gt;Node5 -->
<g id="edge19_Node000014_Node000005" class="edge">
<title>Node14&#45;&gt;Node5</title>
<g id="a_edge19_Node000014_Node000005"><a xlink:title=" ">
<path fill="none" stroke="#63b8ff" d="M774.96,-252.98C789.05,-245.68 806.98,-233.68 815.38,-217 836.95,-174.14 811.1,-116.9 795.14,-88.5"/>
<polygon fill="#63b8ff" stroke="#63b8ff" points="798.08,-86.59 790,-79.73 792.04,-90.13 798.08,-86.59"/>
</a>
</g>
</g>
<!-- Node14&#45;&gt;Node6 -->
<g id="edge20_Node000014_Node000006" class="edge">
<title>Node14&#45;&gt;Node6</title>
<g id="a_edge20_Node000014_Node000006"><a xlink:title=" ">
<path fill="none" stroke="#63b8ff" d="M830.39,-252.94C862.24,-246.66 898.58,-235.8 927.38,-217 978.26,-183.79 1015.75,-119.7 1031.78,-88.68"/>
<polygon fill="#63b8ff" stroke="#63b8ff" points="1035.02,-90.03 1036.38,-79.52 1028.76,-86.89 1035.02,-90.03"/>
</a>
</g>
</g>
<!-- Node14&#45;&gt;Node7 -->
<g id="edge21_Node000014_Node000007" class="edge">
<title>Node14&#45;&gt;Node7</title>
<g id="a_edge21_Node000014_Node000007"><a xlink:title=" ">
<path fill="none" stroke="#63b8ff" d="M719.83,-252.95C685.11,-244.44 630.87,-230.7 584.38,-217 573.16,-213.69 391.23,-160.48 384.38,-151 371.5,-133.19 375.3,-106.85 380.08,-89.32"/>
<polygon fill="#63b8ff" stroke="#63b8ff" points="383.45,-90.28 383.05,-79.69 376.76,-88.22 383.45,-90.28"/>
</a>
</g>
</g>
<!-- Node14&#45;&gt;Node10 -->
<g id="edge65_Node000014_Node000010" class="edge">
<title>Node14&#45;&gt;Node10</title>
<g id="a_edge65_Node000014_Node000010"><a xlink:title=" ">
<path fill="none" stroke="#63b8ff" d="M678.71,-256.7C622.9,-251.38 546.23,-240.24 482.38,-217 408.68,-190.18 339.03,-126.35 305.77,-92.67"/>
<polygon fill="#63b8ff" stroke="#63b8ff" points="307.97,-89.91 298.49,-85.18 302.95,-94.79 307.97,-89.91"/>
</a>
</g>
</g>
<!-- Node15 -->
<g id="Node000015" class="node">
<title>Node15</title>
<g id="a_Node000015"><a xlink:title=" ">
<polygon fill="#e0e0e0" stroke="#999999" points="918.38,-211.5 862.38,-211.5 862.38,-192.5 918.38,-192.5 918.38,-211.5"/>
<text text-anchor="middle" x="890.38" y="-199.5" font-family="Helvetica,sans-Serif" font-size="10.00">optional</text>
</a>
</g>
</g>
<!-- Node14&#45;&gt;Node15 -->
<g id="edge18_Node000014_Node000015" class="edge">
<title>Node14&#45;&gt;Node15</title>
<g id="a_edge18_Node000014_Node000015"><a xlink:title=" ">
<path fill="none" stroke="#63b8ff" d="M775.01,-252.99C797.7,-243.16 835.27,-226.88 861.35,-215.58"/>
<polygon fill="#63b8ff" stroke="#63b8ff" points="862.94,-218.7 870.72,-211.52 860.16,-212.28 862.94,-218.7"/>
</a>
</g>
</g>
<!-- Node16 -->
<g id="Node000016" class="node">
<title>Node16</title>
<g id="a_Node000016"><a xlink:href="common_8hpp.html" target="_top" xlink:title=" ">
<polygon fill="white" stroke="#666666" points="1259.88,-211.5 1116.88,-211.5 1116.88,-192.5 1259.88,-192.5 1259.88,-211.5"/>
<text text-anchor="middle" x="1188.38" y="-199.5" font-family="Helvetica,sans-Serif" font-size="10.00">unilink/base/common.hpp</text>
</a>
</g>
</g>
<!-- Node14&#45;&gt;Node16 -->
<g id="edge22_Node000014_Node000016" class="edge">
<title>Node14&#45;&gt;Node16</title>
<g id="a_edge22_Node000014_Node000016"><a xlink:title=" ">
<path fill="none" stroke="#63b8ff" d="M818.34,-252.99C897.15,-242.35 1031.87,-224.14 1115.19,-212.89"/>
<polygon fill="#63b8ff" stroke="#63b8ff" points="1115.9,-216.32 1125.34,-211.52 1114.96,-209.39 1115.9,-216.32"/>
</a>
</g>
</g>
<!-- Node30 -->
<g id="Node000030" class="node">
<title>Node30</title>
<g id="a_Node000030"><a xlink:href="error__codes_8hpp.html" target="_top" xlink:title=" ">
<polygon fill="white" stroke="#666666" points="806.38,-217 704.38,-217 704.38,-187 806.38,-187 806.38,-217"/>
<text text-anchor="start" x="712.38" y="-205" font-family="Helvetica,sans-Serif" font-size="10.00">unilink/base/error</text>
<text text-anchor="middle" x="755.38" y="-194" font-family="Helvetica,sans-Serif" font-size="10.00">_codes.hpp</text>
</a>
</g>
</g>
<!-- Node14&#45;&gt;Node30 -->
<g id="edge52_Node000014_Node000030" class="edge">
<title>Node14&#45;&gt;Node30</title>
<g id="a_edge52_Node000014_Node000030"><a xlink:title=" ">
<path fill="none" stroke="#63b8ff" d="M755.38,-252.87C755.38,-246.11 755.38,-236.35 755.38,-227.26"/>
<polygon fill="#63b8ff" stroke="#63b8ff" points="758.88,-227.11 755.38,-217.11 751.88,-227.11 758.88,-227.11"/>
</a>
</g>
</g>
<!-- Node31 -->
<g id="Node000031" class="node">
<title>Node31</title>
<g id="a_Node000031"><a xlink:href="safe__data__buffer_8hpp.html" target="_top" xlink:title=" ">
<polygon fill="white" stroke="#666666" points="532.38,-151 414.38,-151 414.38,-121 532.38,-121 532.38,-151"/>
<text text-anchor="start" x="422.38" y="-139" font-family="Helvetica,sans-Serif" font-size="10.00">unilink/memory/safe</text>
<text text-anchor="middle" x="473.38" y="-128" font-family="Helvetica,sans-Serif" font-size="10.00">_data_buffer.hpp</text>
</a>
</g>
</g>
<!-- Node14&#45;&gt;Node31 -->
<g id="edge54_Node000014_Node000031" class="edge">
<title>Node14&#45;&gt;Node31</title>
<g id="a_edge54_Node000014_Node000031"><a xlink:title=" ">
<path fill="none" stroke="#63b8ff" d="M736,-252.94C690.64,-232.92 576.76,-182.64 514.91,-155.34"/>
<polygon fill="#63b8ff" stroke="#63b8ff" points="516.01,-152 505.45,-151.16 513.19,-158.4 516.01,-152"/>
</a>
</g>
</g>
<!-- Node16&#45;&gt;Node2 -->
<g id="edge27_Node000016_Node000002" class="edge">
<title>Node16&#45;&gt;Node2</title>
<g id="a_edge27_Node000016_Node000002"><a xlink:title=" ">
<path fill="none" stroke="#63b8ff" d="M1116.66,-196.95C1064.23,-194.03 991.4,-190.09 927.38,-187 880.83,-184.75 121.61,-184.65 89.38,-151 73.76,-134.7 81.79,-107.2 89.87,-89.07"/>
<polygon fill="#63b8ff" stroke="#63b8ff" points="93.12,-90.39 94.33,-79.86 86.82,-87.33 93.12,-90.39"/>
</a>
</g>
</g>
<!-- Node16&#45;&gt;Node5 -->
<g id="edge32_Node000016_Node000005" class="edge">
<title>Node16&#45;&gt;Node5</title>
<g id="a_edge32_Node000016_Node000005"><a xlink:title=" ">
<path fill="none" stroke="#63b8ff" d="M1168.84,-192.39C1132.25,-176.52 1050.66,-142.33 979.38,-121 907.89,-99.6 886.21,-108.48 815.38,-85 813.98,-84.54 812.55,-84.03 811.13,-83.49"/>
<polygon fill="#63b8ff" stroke="#63b8ff" points="812.41,-80.23 801.83,-79.64 809.73,-86.7 812.41,-80.23"/>
</a>
</g>
</g>
<!-- Node16&#45;&gt;Node6 -->
<g id="edge33_Node000016_Node000006" class="edge">
<title>Node16&#45;&gt;Node6</title>
<g id="a_edge33_Node000016_Node000006"><a xlink:title=" ">
<path fill="none" stroke="#63b8ff" d="M1178.67,-192.47C1154.11,-170.9 1089.26,-113.93 1057.88,-86.37"/>
<polygon fill="#63b8ff" stroke="#63b8ff" points="1060.14,-83.7 1050.32,-79.73 1055.52,-88.96 1060.14,-83.7"/>
</a>
</g>
</g>
<!-- Node16&#45;&gt;Node7 -->
<g id="edge35_Node000016_Node000007" class="edge">
<title>Node16&#45;&gt;Node7</title>
<g id="a_edge35_Node000016_Node000007"><a xlink:title=" ">
<path fill="none" stroke="#63b8ff" d="M1116.83,-196.99C924.82,-186.15 412.15,-156.71 405.38,-151 387.85,-136.21 384.84,-108.48 385.03,-89.87"/>
<polygon fill="#63b8ff" stroke="#63b8ff" points="388.53,-89.8 385.46,-79.66 381.54,-89.51 388.53,-89.8"/>
</a>
</g>
</g>
<!-- Node16&#45;&gt;Node11 -->
<g id="edge24_Node000016_Node000011" class="edge">
<title>Node16&#45;&gt;Node11</title>
<g id="a_edge24_Node000016_Node000011"><a xlink:title=" ">
<path fill="none" stroke="#63b8ff" d="M1190.02,-192.39C1194.33,-166.85 1203.02,-91.04 1162.38,-55 1109.17,-7.82 594.15,-25.99 523.38,-19 515.28,-18.2 506.6,-17.11 498.43,-15.97"/>
<polygon fill="#63b8ff" stroke="#63b8ff" points="498.82,-12.49 488.43,-14.53 497.82,-19.42 498.82,-12.49"/>
</a>
</g>
</g>
<!-- Node16&#45;&gt;Node13 -->
<g id="edge31_Node000016_Node000013" class="edge">
<title>Node16&#45;&gt;Node13</title>
<g id="a_edge31_Node000016_Node000013"><a xlink:title=" ">
<path fill="none" stroke="#63b8ff" d="M1260.24,-198.31C1382.48,-192.99 1620.17,-179.12 1645.38,-151 1654.28,-141.07 1652.28,-132.41 1645.38,-121 1612.65,-66.91 1580.4,-71.53 1519.38,-55 1343.8,-7.44 768.79,-8.7 607.05,-10.05"/>
<polygon fill="#63b8ff" stroke="#63b8ff" points="606.97,-6.55 597,-10.13 607.03,-13.55 606.97,-6.55"/>
</a>
</g>
</g>
<!-- Node17 -->
<g id="Node000017" class="node">
<title>Node17</title>
<g id="a_Node000017"><a xlink:title=" ">
<polygon fill="#e0e0e0" stroke="#999999" points="1153.38,-79.5 1103.38,-79.5 1103.38,-60.5 1153.38,-60.5 1153.38,-79.5"/>
<text text-anchor="middle" x="1128.38" y="-67.5" font-family="Helvetica,sans-Serif" font-size="10.00">chrono</text>
</a>
</g>
</g>
<!-- Node16&#45;&gt;Node17 -->
<g id="edge23_Node000016_Node000017" class="edge">
<title>Node16&#45;&gt;Node17</title>
<g id="a_edge23_Node000016_Node000017"><a xlink:title=" ">
<path fill="none" stroke="#63b8ff" d="M1184.44,-192.47C1174.78,-171.54 1149.75,-117.3 1136.64,-88.91"/>
<polygon fill="#63b8ff" stroke="#63b8ff" points="1139.78,-87.34 1132.41,-79.73 1133.42,-90.28 1139.78,-87.34"/>
</a>
</g>
</g>
<!-- Node18 -->
<g id="Node000018" class="node">
<title>Node18</title>
<g id="a_Node000018"><a xlink:title=" ">
<polygon fill="#e0e0e0" stroke="#999999" points="1266.38,-145.5 1216.38,-145.5 1216.38,-126.5 1266.38,-126.5 1266.38,-145.5"/>
<text text-anchor="middle" x="1241.38" y="-133.5" font-family="Helvetica,sans-Serif" font-size="10.00">cstring</text>
</a>
</g>
</g>
<!-- Node16&#45;&gt;Node18 -->
<g id="edge25_Node000016_Node000018" class="edge">
<title>Node16&#45;&gt;Node18</title>
<g id="a_edge25_Node000016_Node000018"><a xlink:title=" ">
<path fill="none" stroke="#63b8ff" d="M1195.53,-192.37C1203.7,-182.5 1217.27,-166.11 1227.53,-153.72"/>
<polygon fill="#63b8ff" stroke="#63b8ff" points="1230.32,-155.84 1234,-145.91 1224.93,-151.37 1230.32,-155.84"/>
</a>
</g>
</g>
<!-- Node19 -->
<g id="Node000019" class="node">
<title>Node19</title>
<g id="a_Node000019"><a xlink:title=" ">
<polygon fill="#e0e0e0" stroke="#999999" points="1328.38,-145.5 1284.38,-145.5 1284.38,-126.5 1328.38,-126.5 1328.38,-145.5"/>
<text text-anchor="middle" x="1306.38" y="-133.5" font-family="Helvetica,sans-Serif" font-size="10.00">ctime</text>
</a>
</g>
</g>
<!-- Node16&#45;&gt;Node19 -->
<g id="edge26_Node000016_Node000019" class="edge">
<title>Node16&#45;&gt;Node19</title>
<g id="a_edge26_Node000016_Node000019"><a xlink:title=" ">
<path fill="none" stroke="#63b8ff" d="M1204.29,-192.37C1224.09,-181.63 1258.11,-163.18 1281.39,-150.55"/>
<polygon fill="#63b8ff" stroke="#63b8ff" points="1283.22,-153.54 1290.34,-145.7 1279.88,-147.39 1283.22,-153.54"/>
</a>
</g>
</g>
<!-- Node20 -->
<g id="Node000020" class="node">
<title>Node20</title>
<g id="a_Node000020"><a xlink:title=" ">
<polygon fill="#e0e0e0" stroke="#999999" points="1402.38,-145.5 1346.38,-145.5 1346.38,-126.5 1402.38,-126.5 1402.38,-145.5"/>
<text text-anchor="middle" x="1374.38" y="-133.5" font-family="Helvetica,sans-Serif" font-size="10.00">iomanip</text>
</a>
</g>
</g>
<!-- Node16&#45;&gt;Node20 -->
<g id="edge28_Node000016_Node000020" class="edge">
<title>Node16&#45;&gt;Node20</title>
<g id="a_edge28_Node000016_Node000020"><a xlink:title=" ">
<path fill="none" stroke="#63b8ff" d="M1214.86,-192.45C1244.73,-182.73 1294.72,-166.22 1337.38,-151 1339.02,-150.41 1340.71,-149.8 1342.41,-149.18"/>
<polygon fill="#63b8ff" stroke="#63b8ff" points="1343.97,-152.34 1352.12,-145.58 1341.53,-145.78 1343.97,-152.34"/>
</a>
</g>
</g>
<!-- Node21 -->
<g id="Node000021" class="node">
<title>Node21</title>
<g id="a_Node000021"><a xlink:title=" ">
<polygon fill="#e0e0e0" stroke="#999999" points="1480.38,-145.5 1420.38,-145.5 1420.38,-126.5 1480.38,-126.5 1480.38,-145.5"/>
<text text-anchor="middle" x="1450.38" y="-133.5" font-family="Helvetica,sans-Serif" font-size="10.00">iostream</text>
</a>
</g>
</g>
<!-- Node16&#45;&gt;Node21 -->
<g id="edge29_Node000016_Node000021" class="edge">
<title>Node16&#45;&gt;Node21</title>
<g id="a_edge29_Node000016_Node000021"><a xlink:title=" ">
<path fill="none" stroke="#63b8ff" d="M1234.07,-192.48C1279.44,-183.62 1350.79,-168.59 1411.38,-151 1413.65,-150.34 1415.98,-149.62 1418.32,-148.86"/>
<polygon fill="#63b8ff" stroke="#63b8ff" points="1419.51,-152.16 1427.85,-145.62 1417.25,-145.53 1419.51,-152.16"/>
</a>
</g>
</g>
<!-- Node22 -->
<g id="Node000022" class="node">
<title>Node22</title>
<g id="a_Node000022"><a xlink:title=" ">
<polygon fill="#e0e0e0" stroke="#999999" points="1554.38,-145.5 1498.38,-145.5 1498.38,-126.5 1554.38,-126.5 1554.38,-145.5"/>
<text text-anchor="middle" x="1526.38" y="-133.5" font-family="Helvetica,sans-Serif" font-size="10.00">sstream</text>
</a>
</g>
</g>
<!-- Node16&#45;&gt;Node22 -->
<g id="edge30_Node000016_Node000022" class="edge">
<title>Node16&#45;&gt;Node22</title>
<g id="a_edge30_Node000016_Node000022"><a xlink:title=" ">
<path fill="none" stroke="#63b8ff" d="M1260.08,-193.13C1321.6,-185.42 1412.27,-171.77 1489.38,-151 1491.67,-150.38 1494.02,-149.68 1496.37,-148.92"/>
<polygon fill="#63b8ff" stroke="#63b8ff" points="1497.59,-152.19 1505.87,-145.58 1495.28,-145.59 1497.59,-152.19"/>
</a>
</g>
</g>
<!-- Node23 -->
<g id="Node000023" class="node">
<title>Node23</title>
<g id="a_Node000023"><a xlink:title=" ">
<polygon fill="#e0e0e0" stroke="#999999" points="1617.88,-145.5 1572.88,-145.5 1572.88,-126.5 1617.88,-126.5 1617.88,-145.5"/>
<text text-anchor="middle" x="1595.38" y="-133.5" font-family="Helvetica,sans-Serif" font-size="10.00">utility</text>
</a>
</g>
</g>
<!-- Node16&#45;&gt;Node23 -->
<g id="edge34_Node000016_Node000023" class="edge">
<title>Node16&#45;&gt;Node23</title>
<g id="a_edge34_Node000016_Node000023"><a xlink:title=" ">
<path fill="none" stroke="#63b8ff" d="M1260.07,-197.41C1336.43,-192.2 1460.27,-179.81 1563.38,-151 1565.06,-150.53 1566.78,-149.99 1568.49,-149.39"/>
<polygon fill="#63b8ff" stroke="#63b8ff" points="1570.07,-152.53 1578.1,-145.61 1567.51,-146.02 1570.07,-152.53"/>
</a>
</g>
</g>
<!-- Node24 -->
<g id="Node000024" class="node">
<title>Node24</title>
<g id="a_Node000024"><a xlink:href="constants_8hpp.html" target="_top" xlink:title=" ">
<polygon fill="white" stroke="#666666" points="1509.88,-79.5 1362.88,-79.5 1362.88,-60.5 1509.88,-60.5 1509.88,-79.5"/>
<text text-anchor="middle" x="1436.38" y="-67.5" font-family="Helvetica,sans-Serif" font-size="10.00">unilink/base/constants.hpp</text>
</a>
</g>
</g>
<!-- Node16&#45;&gt;Node24 -->
<g id="edge36_Node000016_Node000024" class="edge">
<title>Node16&#45;&gt;Node24</title>
<g id="a_edge36_Node000016_Node000024"><a xlink:title=" ">
<path fill="none" stroke="#63b8ff" d="M1260.24,-197.96C1378.47,-192.22 1603.4,-177.86 1627.38,-151 1664.32,-109.61 1587.31,-89.05 1520.31,-79.25"/>
<polygon fill="#63b8ff" stroke="#63b8ff" points="1520.48,-75.74 1510.09,-77.82 1519.51,-82.67 1520.48,-75.74"/>
</a>
</g>
</g>
<!-- Node26 -->
<g id="Node000026" class="node">
<title>Node26</title>
<g id="a_Node000026"><a xlink:href="platform_8hpp.html" target="_top" xlink:title=" ">
<polygon fill="white" stroke="#666666" points="768.38,-145.5 626.38,-145.5 626.38,-126.5 768.38,-126.5 768.38,-145.5"/>
<text text-anchor="middle" x="697.38" y="-133.5" font-family="Helvetica,sans-Serif" font-size="10.00">unilink/base/platform.hpp</text>
</a>
</g>
</g>
<!-- Node16&#45;&gt;Node26 -->
<g id="edge39_Node000016_Node000026" class="edge">
<title>Node16&#45;&gt;Node26</title>
<g id="a_edge39_Node000016_Node000026"><a xlink:title=" ">
<path fill="none" stroke="#63b8ff" d="M1122.92,-192.47C1032.24,-180.65 868.74,-159.34 772.97,-146.85"/>
<polygon fill="#63b8ff" stroke="#63b8ff" points="773.14,-143.35 762.77,-145.52 772.24,-150.29 773.14,-143.35"/>
</a>
</g>
</g>
<!-- Node27 -->
<g id="Node000027" class="node">
<title>Node27</title>
<g id="a_Node000027"><a xlink:href="logger_8hpp.html" target="_top" xlink:title=" ">
<polygon fill="white" stroke="#666666" points="970.38,-151 862.38,-151 862.38,-121 970.38,-121 970.38,-151"/>
<text text-anchor="start" x="870.38" y="-139" font-family="Helvetica,sans-Serif" font-size="10.00">unilink/diagnostics</text>
<text text-anchor="middle" x="916.38" y="-128" font-family="Helvetica,sans-Serif" font-size="10.00">/logger.hpp</text>
</a>
</g>
</g>
<!-- Node16&#45;&gt;Node27 -->
<g id="edge42_Node000016_Node000027" class="edge">
<title>Node16&#45;&gt;Node27</title>
<g id="a_edge42_Node000016_Node000027"><a xlink:title=" ">
<path fill="none" stroke="#63b8ff" d="M1151.98,-192.44C1108.25,-182.15 1034.13,-164.71 980.69,-152.13"/>
<polygon fill="#63b8ff" stroke="#63b8ff" points="981.16,-148.65 970.63,-149.76 979.56,-155.46 981.16,-148.65"/>
</a>
</g>
</g>
<!-- Node24&#45;&gt;Node11 -->
<g id="edge38_Node000024_Node000011" class="edge">
<title>Node24&#45;&gt;Node11</title>
<g id="a_edge38_Node000024_Node000011"><a xlink:title=" ">
<path fill="none" stroke="#63b8ff" d="M1362.87,-64.47C1316.78,-61.67 1256.12,-58.03 1202.38,-55 900.66,-37.98 824.16,-48.22 523.38,-19 515.28,-18.21 506.6,-17.13 498.42,-15.99"/>
<polygon fill="#63b8ff" stroke="#63b8ff" points="498.82,-12.51 488.43,-14.55 497.82,-19.44 498.82,-12.51"/>
</a>
</g>
</g>
<!-- Node25 -->
<g id="Node000025" class="node">
<title>Node25</title>
<g id="a_Node000025"><a xlink:title=" ">
<polygon fill="#e0e0e0" stroke="#999999" points="1462.88,-19 1409.88,-19 1409.88,0 1462.88,0 1462.88,-19"/>
<text text-anchor="middle" x="1436.38" y="-7" font-family="Helvetica,sans-Serif" font-size="10.00">cstddef</text>
</a>
</g>
</g>
<!-- Node24&#45;&gt;Node25 -->
<g id="edge37_Node000024_Node000025" class="edge">
<title>Node24&#45;&gt;Node25</title>
<g id="a_edge37_Node000024_Node000025"><a xlink:title=" ">
<path fill="none" stroke="#63b8ff" d="M1436.38,-60.37C1436.38,-52.25 1436.38,-39.81 1436.38,-29.39"/>
<polygon fill="#63b8ff" stroke="#63b8ff" points="1439.88,-29.17 1436.38,-19.17 1432.88,-29.17 1439.88,-29.17"/>
</a>
</g>
</g>
<!-- Node26&#45;&gt;Node5 -->
<g id="edge40_Node000026_Node000005" class="edge">
<title>Node26&#45;&gt;Node5</title>
<g id="a_edge40_Node000026_Node000005"><a xlink:title=" ">
<path fill="none" stroke="#63b8ff" d="M709.11,-126.37C723.25,-115.97 747.24,-98.32 764.33,-85.75"/>
<polygon fill="#63b8ff" stroke="#63b8ff" points="766.57,-88.44 772.55,-79.7 762.42,-82.81 766.57,-88.44"/>
</a>
</g>
</g>
<!-- Node26&#45;&gt;Node8 -->
<g id="edge41_Node000026_Node000008" class="edge">
<title>Node26&#45;&gt;Node8</title>
<g id="a_edge41_Node000026_Node000008"><a xlink:title=" ">
<path fill="none" stroke="#63b8ff" d="M692.66,-126.37C687.42,-116.78 678.81,-101.05 672.11,-88.8"/>
<polygon fill="#63b8ff" stroke="#63b8ff" points="675.12,-87 667.25,-79.91 668.98,-90.36 675.12,-87"/>
</a>
</g>
</g>
<!-- Node27&#45;&gt;Node2 -->
<g id="edge45_Node000027_Node000002" class="edge">
<title>Node27&#45;&gt;Node2</title>
<g id="a_edge45_Node000027_Node000002"><a xlink:title=" ">
<path fill="none" stroke="#63b8ff" d="M862.3,-129C836.6,-126.29 805.43,-123.21 777.38,-121 495.13,-98.81 419.45,-138.23 141.38,-85 137.95,-84.34 134.42,-83.48 130.93,-82.5"/>
<polygon fill="#63b8ff" stroke="#63b8ff" points="131.91,-79.14 121.32,-79.53 129.84,-85.83 131.91,-79.14"/>
</a>
</g>
</g>
<!-- Node27&#45;&gt;Node4 -->
<g id="edge46_Node000027_Node000004" class="edge">
<title>Node27&#45;&gt;Node4</title>
<g id="a_edge46_Node000027_Node000004"><a xlink:title=" ">
<path fill="none" stroke="#63b8ff" d="M862.29,-129.09C836.59,-126.4 805.42,-123.31 777.38,-121 528.82,-100.5 461.37,-136.65 217.38,-85 214.54,-84.4 211.63,-83.63 208.75,-82.76"/>
<polygon fill="#63b8ff" stroke="#63b8ff" points="209.77,-79.41 199.17,-79.52 207.52,-86.04 209.77,-79.41"/>
</a>
</g>
</g>
<!-- Node27&#45;&gt;Node5 -->
<g id="edge48_Node000027_Node000005" class="edge">
<title>Node27&#45;&gt;Node5</title>
<g id="a_edge48_Node000027_Node000005"><a xlink:title=" ">
<path fill="none" stroke="#63b8ff" d="M887.41,-120.95C864.67,-109.93 833.25,-94.7 811.11,-83.96"/>
<polygon fill="#63b8ff" stroke="#63b8ff" points="812.47,-80.73 801.94,-79.52 809.42,-87.03 812.47,-80.73"/>
</a>
</g>
</g>
<!-- Node27&#45;&gt;Node6 -->
<g id="edge49_Node000027_Node000006" class="edge">
<title>Node27&#45;&gt;Node6</title>
<g id="a_edge49_Node000027_Node000006"><a xlink:title=" ">
<path fill="none" stroke="#63b8ff" d="M943.59,-120.95C964.86,-109.98 994.2,-94.83 1014.99,-84.11"/>
<polygon fill="#63b8ff" stroke="#63b8ff" points="1016.59,-87.21 1023.88,-79.52 1013.38,-80.99 1016.59,-87.21"/>
</a>
</g>
</g>
<!-- Node27&#45;&gt;Node7 -->
<g id="edge50_Node000027_Node000007" class="edge">
<title>Node27&#45;&gt;Node7</title>
<g id="a_edge50_Node000027_Node000007"><a xlink:title=" ">
<path fill="none" stroke="#63b8ff" d="M862.1,-129.33C749.46,-117.53 497.47,-90.92 458.38,-85 445.82,-83.1 432.11,-80.55 420.06,-78.15"/>
<polygon fill="#63b8ff" stroke="#63b8ff" points="420.46,-74.66 409.96,-76.1 419.07,-81.52 420.46,-74.66"/>
</a>
</g>
</g>
<!-- Node27&#45;&gt;Node8 -->
<g id="edge51_Node000027_Node000008" class="edge">
<title>Node27&#45;&gt;Node8</title>
<g id="a_edge51_Node000027_Node000008"><a xlink:title=" ">
<path fill="none" stroke="#63b8ff" d="M862.2,-121.35C815.67,-109.62 749.43,-92.93 706.18,-82.04"/>
<polygon fill="#63b8ff" stroke="#63b8ff" points="706.8,-78.58 696.24,-79.53 705.08,-85.37 706.8,-78.58"/>
</a>
</g>
</g>
<!-- Node27&#45;&gt;Node17 -->
<g id="edge44_Node000027_Node000017" class="edge">
<title>Node27&#45;&gt;Node17</title>
<g id="a_edge44_Node000027_Node000017"><a xlink:title=" ">
<path fill="none" stroke="#63b8ff" d="M965.99,-120.91C999.97,-111.14 1046.02,-97.66 1086.38,-85 1088.67,-84.28 1091.02,-83.53 1093.4,-82.77"/>
<polygon fill="#63b8ff" stroke="#63b8ff" points="1094.69,-86.02 1103.11,-79.59 1092.51,-79.37 1094.69,-86.02"/>
</a>
</g>
</g>
<!-- Node28 -->
<g id="Node000028" class="node">
<title>Node28</title>
<g id="a_Node000028"><a xlink:title=" ">
<polygon fill="#e0e0e0" stroke="#999999" points="874.38,-79.5 824.38,-79.5 824.38,-60.5 874.38,-60.5 874.38,-79.5"/>
<text text-anchor="middle" x="849.38" y="-67.5" font-family="Helvetica,sans-Serif" font-size="10.00">atomic</text>
</a>
</g>
</g>
<!-- Node27&#45;&gt;Node28 -->
<g id="edge43_Node000027_Node000028" class="edge">
<title>Node27&#45;&gt;Node28</title>
<g id="a_edge43_Node000027_Node000028"><a xlink:title=" ">
<path fill="none" stroke="#63b8ff" d="M901.51,-120.8C890.96,-110.72 876.8,-97.19 865.9,-86.78"/>
<polygon fill="#63b8ff" stroke="#63b8ff" points="868.29,-84.22 858.64,-79.84 863.45,-89.28 868.29,-84.22"/>
</a>
</g>
</g>
<!-- Node29 -->
<g id="Node000029" class="node">
<title>Node29</title>
<g id="a_Node000029"><a xlink:title=" ">
<polygon fill="#e0e0e0" stroke="#999999" points="985.88,-79.5 892.88,-79.5 892.88,-60.5 985.88,-60.5 985.88,-79.5"/>
<text text-anchor="middle" x="939.38" y="-67.5" font-family="Helvetica,sans-Serif" font-size="10.00">source_location</text>
</a>
</g>
</g>
<!-- Node27&#45;&gt;Node29 -->
<g id="edge47_Node000027_Node000029" class="edge">
<title>Node27&#45;&gt;Node29</title>
<g id="a_edge47_Node000027_Node000029"><a xlink:title=" ">
<path fill="none" stroke="#63b8ff" d="M921.48,-120.8C924.82,-111.5 929.22,-99.27 932.82,-89.26"/>
<polygon fill="#63b8ff" stroke="#63b8ff" points="936.11,-90.44 936.2,-79.84 929.52,-88.07 936.11,-90.44"/>
</a>
</g>
</g>
<!-- Node30&#45;&gt;Node5 -->
<g id="edge53_Node000030_Node000005" class="edge">
<title>Node30&#45;&gt;Node5</title>
<g id="a_edge53_Node000030_Node000005"><a xlink:title=" ">
<path fill="none" stroke="#63b8ff" d="M763.24,-186.58C768.17,-176.82 774.18,-163.49 777.38,-151 782.61,-130.57 784.11,-106.35 784.45,-89.95"/>
<polygon fill="#63b8ff" stroke="#63b8ff" points="787.95,-89.59 784.54,-79.56 780.95,-89.53 787.95,-89.59"/>
</a>
</g>
</g>
<!-- Node31&#45;&gt;Node2 -->
<g id="edge56_Node000031_Node000002" class="edge">
<title>Node31&#45;&gt;Node2</title>
<g id="a_edge56_Node000031_Node000002"><a xlink:title=" ">
<path fill="none" stroke="#63b8ff" d="M414.32,-129.21C347.47,-121.95 235.61,-107.62 141.38,-85 138.41,-84.29 135.35,-83.46 132.3,-82.57"/>
<polygon fill="#63b8ff" stroke="#63b8ff" points="133.31,-79.21 122.72,-79.57 131.22,-85.9 133.31,-79.21"/>
</a>
</g>
</g>
<!-- Node31&#45;&gt;Node4 -->
<g id="edge57_Node000031_Node000004" class="edge">
<title>Node31&#45;&gt;Node4</title>
<g id="a_edge57_Node000031_Node000004"><a xlink:title=" ">
<path fill="none" stroke="#63b8ff" d="M414.29,-126.22C362,-117.8 283.88,-103.62 217.38,-85 215.09,-84.36 212.75,-83.65 210.4,-82.89"/>
<polygon fill="#63b8ff" stroke="#63b8ff" points="211.48,-79.56 200.88,-79.6 209.2,-86.17 211.48,-79.56"/>
</a>
</g>
</g>
<!-- Node31&#45;&gt;Node5 -->
<g id="edge59_Node000031_Node000005" class="edge">
<title>Node31&#45;&gt;Node5</title>
<g id="a_edge59_Node000031_Node000005"><a xlink:title=" ">
<path fill="none" stroke="#63b8ff" d="M532.41,-126.26C587.04,-117.63 670.29,-103.12 741.38,-85 745.02,-84.07 748.79,-83 752.53,-81.88"/>
<polygon fill="#63b8ff" stroke="#63b8ff" points="753.74,-85.17 762.22,-78.82 751.63,-78.49 753.74,-85.17"/>
</a>
</g>
</g>
<!-- Node31&#45;&gt;Node6 -->
<g id="edge60_Node000031_Node000006" class="edge">
<title>Node31&#45;&gt;Node6</title>
<g id="a_edge60_Node000031_Node000006"><a xlink:title=" ">
<path fill="none" stroke="#63b8ff" d="M532.58,-129.22C558.59,-126.68 589.5,-123.68 617.38,-121 785.36,-104.83 829.92,-118.24 995.38,-85 998.85,-84.3 1002.44,-83.44 1006,-82.49"/>
<polygon fill="#63b8ff" stroke="#63b8ff" points="1007.23,-85.78 1015.86,-79.63 1005.28,-79.05 1007.23,-85.78"/>
</a>
</g>
</g>
<!-- Node31&#45;&gt;Node7 -->
<g id="edge62_Node000031_Node000007" class="edge">
<title>Node31&#45;&gt;Node7</title>
<g id="a_edge62_Node000031_Node000007"><a xlink:title=" ">
<path fill="none" stroke="#63b8ff" d="M454.07,-120.8C439.89,-110.37 420.69,-96.24 406.35,-85.69"/>
<polygon fill="#63b8ff" stroke="#63b8ff" points="408.28,-82.76 398.15,-79.66 404.13,-88.4 408.28,-82.76"/>
</a>
</g>
</g>
<!-- Node31&#45;&gt;Node8 -->
<g id="edge63_Node000031_Node000008" class="edge">
<title>Node31&#45;&gt;Node8</title>
<g id="a_edge63_Node000031_Node000008"><a xlink:title=" ">
<path fill="none" stroke="#63b8ff" d="M514.85,-120.95C548.58,-109.53 595.64,-93.6 627.46,-82.82"/>
<polygon fill="#63b8ff" stroke="#63b8ff" points="628.88,-86.04 637.23,-79.52 626.63,-79.41 628.88,-86.04"/>
</a>
</g>
</g>
<!-- Node31&#45;&gt;Node10 -->
<g id="edge64_Node000031_Node000010" class="edge">
<title>Node31&#45;&gt;Node10</title>
<g id="a_edge64_Node000031_Node000010"><a xlink:title=" ">
<path fill="none" stroke="#63b8ff" d="M432.12,-120.95C403.84,-111.33 366.13,-98.49 336.03,-88.24"/>
<polygon fill="#63b8ff" stroke="#63b8ff" points="337.13,-84.92 326.54,-85.01 334.88,-91.55 337.13,-84.92"/>
</a>
</g>
</g>
<!-- Node31&#45;&gt;Node11 -->
<g id="edge55_Node000031_Node000011" class="edge">
<title>Node31&#45;&gt;Node11</title>
<g id="a_edge55_Node000031_Node000011"><a xlink:title=" ">
<path fill="none" stroke="#63b8ff" d="M467.91,-120.81C464.41,-110.94 460.19,-97.37 458.38,-85 455.62,-66.19 457.66,-44.49 459.91,-29.38"/>
<polygon fill="#63b8ff" stroke="#63b8ff" points="463.4,-29.7 461.59,-19.26 456.5,-28.55 463.4,-29.7"/>
</a>
</g>
</g>
<!-- Node31&#45;&gt;Node13 -->
<g id="edge58_Node000031_Node000013" class="edge">
<title>Node31&#45;&gt;Node13</title>
<g id="a_edge58_Node000031_Node000013"><a xlink:title=" ">
<path fill="none" stroke="#63b8ff" d="M502.84,-120.99C517.67,-112.52 534.7,-100.38 545.38,-85 556.89,-68.41 561.43,-45.41 563.22,-29.37"/>
<polygon fill="#63b8ff" stroke="#63b8ff" points="566.73,-29.37 564.1,-19.11 559.76,-28.78 566.73,-29.37"/>
</a>
</g>
</g>
<!-- Node32 -->
<g id="Node000032" class="node">
<title>Node32</title>
<g id="a_Node000032"><a xlink:title=" ">
<polygon fill="#e0e0e0" stroke="#999999" points="535.88,-79.5 466.88,-79.5 466.88,-60.5 535.88,-60.5 535.88,-79.5"/>
<text text-anchor="middle" x="501.38" y="-67.5" font-family="Helvetica,sans-Serif" font-size="10.00">type_traits</text>
</a>
</g>
</g>
<!-- Node31&#45;&gt;Node32 -->
<g id="edge61_Node000031_Node000032" class="edge">
<title>Node31&#45;&gt;Node32</title>
<g id="a_edge61_Node000031_Node000032"><a xlink:title=" ">
<path fill="none" stroke="#63b8ff" d="M479.59,-120.8C483.66,-111.5 489.01,-99.27 493.39,-89.26"/>
<polygon fill="#63b8ff" stroke="#63b8ff" points="496.71,-90.41 497.51,-79.84 490.29,-87.6 496.71,-90.41"/>
</a>
</g>
</g>
</g>
</svg>

<g id="navigator" transform="translate(0 0)" fill="#404254">
  <rect fill="#f2f5e9" fill-opacity="0.5" stroke="#606060" stroke-width=".5" x="0" y="0" width="60" height="60"/>
  <use id="zoomplus" xlink:href="#zoomPlus" x="17" y="9" onmousedown="handleZoom(evt,'in')"/>
  <use id="zoomminus" xlink:href="#zoomMin" x="42" y="9" onmousedown="handleZoom(evt,'out')"/>
  <use id="reset" xlink:href="#resetDef" x="30" y="36" onmousedown="handleReset()"/>
   <use id="arrowup" xlink:href="#arrowUp" x="0" y="0" onmousedown="handlePan(0,-1)"/>
  <use id="arrowright" xlink:href="#arrowRight" x="0" y="0" onmousedown="handlePan(1,0)"/>
  <use id="arrowdown" xlink:href="#arrowDown" x="0" y="0" onmousedown="handlePan(0,1)"/>
  <use id="arrowleft" xlink:href="#arrowLeft" x="0" y="0" onmousedown="handlePan(-1,0)"/>
</g>
<svg viewBox="0 0 15 15" width="100%" height="30px" preserveAspectRatio="xMaxYMin meet">
 <g id="arrow_out" transform="scale(0.3 0.3)">
  <a xlink:href="ichannel_8hpp__incl_org.svg" target="_base">
   <rect id="button" ry="5" rx="5" y="6" x="6" height="38" width="38"
        fill="#f2f5e9" fill-opacity="0.5" stroke="#606060" stroke-width="1.0"/>
   <path id="arrow"
     d="M 11.500037,31.436501 C 11.940474,20.09759 22.043105,11.32322 32.158766,21.979434 L 37.068811,17.246167 C 37.068811,17.246167 37.088388,32 37.088388,32 L 22.160133,31.978069 C 22.160133,31.978069 26.997745,27.140456 26.997745,27.140456 C 18.528582,18.264221 13.291696,25.230495 11.500037,31.436501 z"
     style="fill:#404040;"/>
  </a>
 </g>
</svg>

<style type='text/css'>
<![CDATA[
[data-mouse-over-selected='false'] { opacity: 0.7; }
[data-mouse-over-selected='true']  { opacity: 1.0; }
]]>
</style>
<script type="application/ecmascript"><![CDATA[
document.addEventListener('DOMContentLoaded', (event) => {
  highlightEdges();
  highlightAdjacentNodes();
});
]]></script>
</svg>
