<?xml version="1.0" encoding="UTF-8" standalone="no"?>
<!DOCTYPE svg PUBLIC "-//W3C//DTD SVG 1.1//EN"
 "http://www.w3.org/Graphics/SVG/1.1/DTD/svg11.dtd">
<!-- Generated by graphviz version 2.43.0 (0)
 -->
<!-- Title: unilink/config/iconfig_manager.hpp Pages: 1 -->
<svg width="254pt" height="173pt"
 viewBox="0.00 0.00 254.00 173.00" xmlns="http://www.w3.org/2000/svg" xmlns:xlink="http://www.w3.org/1999/xlink">
<g id="graph0" class="graph" transform="scale(1 1) rotate(0) translate(4 169)">
<title>unilink/config/iconfig_manager.hpp</title>
<polygon fill="white" stroke="transparent" points="-4,4 -4,-169 250,-169 250,4 -4,4"/>
<!-- Node1 -->
<g id="node1" class="node">
<title>Node1</title>
<g id="a_node1"><a xlink:title=" ">
<polygon fill="#bfbfbf" stroke="black" points="64.5,-134.5 64.5,-164.5 181.5,-164.5 181.5,-134.5 64.5,-134.5"/>
<text text-anchor="start" x="72.5" y="-152.5" font-family="Helvetica,sans-Serif" font-size="10.00">unilink/config/iconfig</text>
<text text-anchor="middle" x="123" y="-141.5" font-family="Helvetica,sans-Serif" font-size="10.00">_manager.hpp</text>
</a>
</g>
</g>
<!-- Node2 -->
<g id="node2" class="node">
<title>Node2</title>
<g id="a_node2"><a xlink:href="config__factory_8hpp.html" target="_top" xlink:title=" ">
<polygon fill="white" stroke="black" points="0,-67.5 0,-97.5 114,-97.5 114,-67.5 0,-67.5"/>
<text text-anchor="start" x="8" y="-85.5" font-family="Helvetica,sans-Serif" font-size="10.00">unilink/config/config</text>
<text text-anchor="middle" x="57" y="-74.5" font-family="Helvetica,sans-Serif" font-size="10.00">_factory.hpp</text>
</a>
</g>
</g>
<!-- Node1&#45;&gt;Node2 -->
<g id="edge1" class="edge">
<title>Node1&#45;&gt;Node2</title>
<path fill="none" stroke="midnightblue" d="M101.49,-127.31C91.59,-117.56 80.11,-106.26 71.29,-97.58"/>
<polygon fill="midnightblue" stroke="midnightblue" points="99.1,-129.87 108.68,-134.4 104.01,-124.89 99.1,-129.87"/>
</g>
<!-- Node4 -->
<g id="node4" class="node">
<title>Node4</title>
<g id="a_node4"><a xlink:href="config__manager_8hpp.html" target="_top" xlink:title=" ">
<polygon fill="white" stroke="black" points="132,-67.5 132,-97.5 246,-97.5 246,-67.5 132,-67.5"/>
<text text-anchor="start" x="140" y="-85.5" font-family="Helvetica,sans-Serif" font-size="10.00">unilink/config/config</text>
<text text-anchor="middle" x="189" y="-74.5" font-family="Helvetica,sans-Serif" font-size="10.00">_manager.hpp</text>
</a>
</g>
</g>
<!-- Node1&#45;&gt;Node4 -->
<g id="edge3" class="edge">
<title>Node1&#45;&gt;Node4</title>
<path fill="none" stroke="midnightblue" d="M144.51,-127.31C154.41,-117.56 165.89,-106.26 174.71,-97.58"/>
<polygon fill="midnightblue" stroke="midnightblue" points="141.99,-124.89 137.32,-134.4 146.9,-129.87 141.99,-124.89"/>
</g>
<!-- Node3 -->
<g id="node3" class="node">
<title>Node3</title>
<g id="a_node3"><a xlink:href="config__factory_8cc.html" target="_top" xlink:title=" ">
<polygon fill="white" stroke="black" points="0,-0.5 0,-30.5 114,-30.5 114,-0.5 0,-0.5"/>
<text text-anchor="start" x="8" y="-18.5" font-family="Helvetica,sans-Serif" font-size="10.00">unilink/config/config</text>
<text text-anchor="middle" x="57" y="-7.5" font-family="Helvetica,sans-Serif" font-size="10.00">_factory.cc</text>
</a>
</g>
</g>
<!-- Node2&#45;&gt;Node3 -->
<g id="edge2" class="edge">
<title>Node2&#45;&gt;Node3</title>
<path fill="none" stroke="midnightblue" d="M57,-57.11C57,-48.15 57,-38.32 57,-30.58"/>
<polygon fill="midnightblue" stroke="midnightblue" points="53.5,-57.4 57,-67.4 60.5,-57.4 53.5,-57.4"/>
</g>
<!-- Node4&#45;&gt;Node3 -->
<g id="edge4" class="edge">
<title>Node4&#45;&gt;Node3</title>
<path fill="none" stroke="midnightblue" d="M151.13,-62.85C130.26,-52.58 104.77,-40.03 85.59,-30.58"/>
<polygon fill="midnightblue" stroke="midnightblue" points="149.84,-66.12 160.36,-67.4 152.93,-59.84 149.84,-66.12"/>
</g>
<!-- Node5 -->
<g id="node5" class="node">
<title>Node5</title>
<g id="a_node5"><a xlink:href="config__manager_8cc.html" target="_top" xlink:title=" ">
<polygon fill="white" stroke="black" points="132,-0.5 132,-30.5 246,-30.5 246,-0.5 132,-0.5"/>
<text text-anchor="start" x="140" y="-18.5" font-family="Helvetica,sans-Serif" font-size="10.00">unilink/config/config</text>
<text text-anchor="middle" x="189" y="-7.5" font-family="Helvetica,sans-Serif" font-size="10.00">_manager.cc</text>
</a>
</g>
</g>
<!-- Node4&#45;&gt;Node5 -->
<g id="edge5" class="edge">
<title>Node4&#45;&gt;Node5</title>
<path fill="none" stroke="midnightblue" d="M189,-57.11C189,-48.15 189,-38.32 189,-30.58"/>
<polygon fill="midnightblue" stroke="midnightblue" points="185.5,-57.4 189,-67.4 192.5,-57.4 185.5,-57.4"/>
</g>
</g>
</svg>
