<?xml version="1.0" encoding="UTF-8" standalone="no"?>
<!DOCTYPE svg PUBLIC "-//W3C//DTD SVG 1.1//EN"
 "http://www.w3.org/Graphics/SVG/1.1/DTD/svg11.dtd">
<!-- Generated by graphviz version 2.43.0 (0)
 -->
<!-- Title: unilink/framer/iframer.hpp Pages: 1 -->
<svg width="2058pt" height="357pt"
 viewBox="0.00 0.00 2057.62 357.00" xmlns="http://www.w3.org/2000/svg" xmlns:xlink="http://www.w3.org/1999/xlink">
<g id="graph0" class="graph" transform="scale(1 1) rotate(0) translate(4 353)">
<title>unilink/framer/iframer.hpp</title>
<!-- Node1 -->
<g id="Node000001" class="node">
<title>Node1</title>
<g id="a_Node000001"><a xlink:title=" ">
<polygon fill="#999999" stroke="#666666" points="1511.12,-349 1366.12,-349 1366.12,-330 1511.12,-330 1511.12,-349"/>
<text text-anchor="middle" x="1438.62" y="-337" font-family="Helvetica,sans-Serif" font-size="10.00">unilink/framer/iframer.hpp</text>
</a>
</g>
</g>
<!-- Node2 -->
<g id="Node000002" class="node">
<title>Node2</title>
<g id="a_Node000002"><a xlink:href="ibuilder_8hpp.html" target="_top" xlink:title=" ">
<polygon fill="white" stroke="#666666" points="1375.62,-222.5 1229.62,-222.5 1229.62,-203.5 1375.62,-203.5 1375.62,-222.5"/>
<text text-anchor="middle" x="1302.62" y="-210.5" font-family="Helvetica,sans-Serif" font-size="10.00">unilink/builder/ibuilder.hpp</text>
</a>
</g>
</g>
<!-- Node1&#45;&gt;Node2 -->
<g id="edge1_Node000001_Node000002" class="edge">
<title>Node1&#45;&gt;Node2</title>
<g id="a_edge1_Node000001_Node000002"><a xlink:title=" ">
<path fill="none" stroke="#63b8ff" d="M1405.91,-325.86C1389.27,-318.34 1369.49,-307.59 1354.62,-294 1331.28,-272.65 1313.82,-238.62 1306.46,-222.72"/>
<polygon fill="#63b8ff" stroke="#63b8ff" points="1404.71,-329.16 1415.27,-329.92 1407.49,-322.74 1404.71,-329.16"/>
</a>
</g>
</g>
<!-- Node16 -->
<g id="Node000016" class="node">
<title>Node16</title>
<g id="a_Node000016"><a xlink:href="line__framer_8hpp.html" target="_top" xlink:title=" ">
<polygon fill="white" stroke="#666666" points="1707.12,-294 1600.12,-294 1600.12,-264 1707.12,-264 1707.12,-294"/>
<text text-anchor="start" x="1608.12" y="-282" font-family="Helvetica,sans-Serif" font-size="10.00">unilink/framer/line</text>
<text text-anchor="middle" x="1653.62" y="-271" font-family="Helvetica,sans-Serif" font-size="10.00">_framer.hpp</text>
</a>
</g>
</g>
<!-- Node1&#45;&gt;Node16 -->
<g id="edge24_Node000001_Node000016" class="edge">
<title>Node1&#45;&gt;Node16</title>
<g id="a_edge24_Node000001_Node000016"><a xlink:title=" ">
<path fill="none" stroke="#63b8ff" d="M1479.71,-327.32C1514.47,-317.86 1564.46,-304.26 1601.94,-294.06"/>
<polygon fill="#63b8ff" stroke="#63b8ff" points="1478.62,-323.99 1469.89,-329.99 1480.46,-330.75 1478.62,-323.99"/>
</a>
</g>
</g>
<!-- Node19 -->
<g id="Node000019" class="node">
<title>Node19</title>
<g id="a_Node000019"><a xlink:href="packet__framer_8hpp.html" target="_top" xlink:title=" ">
<polygon fill="white" stroke="#666666" points="1880.12,-294 1759.12,-294 1759.12,-264 1880.12,-264 1880.12,-294"/>
<text text-anchor="start" x="1767.12" y="-282" font-family="Helvetica,sans-Serif" font-size="10.00">unilink/framer/packet</text>
<text text-anchor="middle" x="1819.62" y="-271" font-family="Helvetica,sans-Serif" font-size="10.00">_framer.hpp</text>
</a>
</g>
</g>
<!-- Node1&#45;&gt;Node19 -->
<g id="edge28_Node000001_Node000019" class="edge">
<title>Node1&#45;&gt;Node19</title>
<g id="a_edge28_Node000001_Node000019"><a xlink:title=" ">
<path fill="none" stroke="#63b8ff" d="M1504.28,-328.42C1575.9,-317.42 1689.59,-299.97 1759.12,-289.29"/>
<polygon fill="#63b8ff" stroke="#63b8ff" points="1503.38,-325.02 1494.03,-329.99 1504.44,-331.94 1503.38,-325.02"/>
</a>
</g>
</g>
<!-- Node21 -->
<g id="Node000021" class="node">
<title>Node21</title>
<g id="a_Node000021"><a xlink:href="ichannel_8hpp.html" target="_top" xlink:title=" ">
<polygon fill="white" stroke="#666666" points="502.62,-288.5 344.62,-288.5 344.62,-269.5 502.62,-269.5 502.62,-288.5"/>
<text text-anchor="middle" x="423.62" y="-276.5" font-family="Helvetica,sans-Serif" font-size="10.00">unilink/wrapper/ichannel.hpp</text>
</a>
</g>
</g>
<!-- Node1&#45;&gt;Node21 -->
<g id="edge32_Node000001_Node000021" class="edge">
<title>Node1&#45;&gt;Node21</title>
<g id="a_edge32_Node000001_Node000021"><a xlink:title=" ">
<path fill="none" stroke="#63b8ff" d="M1356.02,-333.74C1164.35,-322.69 691.41,-295.43 502.97,-284.57"/>
<polygon fill="#63b8ff" stroke="#63b8ff" points="1355.85,-337.24 1366.04,-334.32 1356.25,-330.25 1355.85,-337.24"/>
</a>
</g>
</g>
<!-- Node30 -->
<g id="Node000030" class="node">
<title>Node30</title>
<g id="a_Node000030"><a xlink:href="iserver_8hpp.html" target="_top" xlink:title=" ">
<polygon fill="white" stroke="#666666" points="1513.12,-288.5 1364.12,-288.5 1364.12,-269.5 1513.12,-269.5 1513.12,-288.5"/>
<text text-anchor="middle" x="1438.62" y="-276.5" font-family="Helvetica,sans-Serif" font-size="10.00">unilink/wrapper/iserver.hpp</text>
</a>
</g>
</g>
<!-- Node1&#45;&gt;Node30 -->
<g id="edge50_Node000001_Node000030" class="edge">
<title>Node1&#45;&gt;Node30</title>
<g id="a_edge50_Node000001_Node000030"><a xlink:title=" ">
<path fill="none" stroke="#63b8ff" d="M1438.62,-319.66C1438.62,-309.24 1438.62,-296.8 1438.62,-288.67"/>
<polygon fill="#63b8ff" stroke="#63b8ff" points="1435.12,-319.87 1438.62,-329.87 1442.12,-319.87 1435.12,-319.87"/>
</a>
</g>
</g>
<!-- Node3 -->
<g id="Node000003" class="node">
<title>Node3</title>
<g id="a_Node000003"><a xlink:href="serial__builder_8hpp.html" target="_top" xlink:title=" ">
<polygon fill="white" stroke="#666666" points="869.62,-162 753.62,-162 753.62,-132 869.62,-132 869.62,-162"/>
<text text-anchor="start" x="761.62" y="-150" font-family="Helvetica,sans-Serif" font-size="10.00">unilink/builder/serial</text>
<text text-anchor="middle" x="811.62" y="-139" font-family="Helvetica,sans-Serif" font-size="10.00">_builder.hpp</text>
</a>
</g>
</g>
<!-- Node2&#45;&gt;Node3 -->
<g id="edge2_Node000002_Node000003" class="edge">
<title>Node2&#45;&gt;Node3</title>
<g id="a_edge2_Node000002_Node000003"><a xlink:title=" ">
<path fill="none" stroke="#63b8ff" d="M1227,-202.14C1128.57,-189.31 958.69,-167.17 869.75,-155.58"/>
<polygon fill="#63b8ff" stroke="#63b8ff" points="1226.8,-205.65 1237.17,-203.47 1227.71,-198.7 1226.8,-205.65"/>
</a>
</g>
</g>
<!-- Node7 -->
<g id="Node000007" class="node">
<title>Node7</title>
<g id="a_Node000007"><a xlink:href="unilink_8hpp.html" target="_top" xlink:title=" ">
<polygon fill="white" stroke="#666666" points="951.12,-24.5 844.12,-24.5 844.12,-5.5 951.12,-5.5 951.12,-24.5"/>
<text text-anchor="middle" x="897.62" y="-12.5" font-family="Helvetica,sans-Serif" font-size="10.00">unilink/unilink.hpp</text>
</a>
</g>
</g>
<!-- Node2&#45;&gt;Node7 -->
<g id="edge23_Node000002_Node000007" class="edge">
<title>Node2&#45;&gt;Node7</title>
<g id="a_edge23_Node000002_Node000007"><a xlink:title=" ">
<path fill="none" stroke="#63b8ff" d="M1331.02,-199.31C1393.42,-171.29 1537.45,-105.85 1543.62,-96 1550.7,-84.7 1552.68,-75.79 1543.62,-66 1523.59,-44.36 1102.72,-24.61 951.3,-18.19"/>
<polygon fill="#63b8ff" stroke="#63b8ff" points="1329.44,-196.18 1321.74,-203.47 1332.3,-202.57 1329.44,-196.18"/>
</a>
</g>
</g>
<!-- Node8 -->
<g id="Node000008" class="node">
<title>Node8</title>
<g id="a_Node000008"><a xlink:href="tcp__client__builder_8hpp.html" target="_top" xlink:title=" ">
<polygon fill="white" stroke="#666666" points="1233.62,-162 1125.62,-162 1125.62,-132 1233.62,-132 1233.62,-162"/>
<text text-anchor="start" x="1133.62" y="-150" font-family="Helvetica,sans-Serif" font-size="10.00">unilink/builder/tcp</text>
<text text-anchor="middle" x="1179.62" y="-139" font-family="Helvetica,sans-Serif" font-size="10.00">_client_builder.hpp</text>
</a>
</g>
</g>
<!-- Node2&#45;&gt;Node8 -->
<g id="edge8_Node000002_Node000008" class="edge">
<title>Node2&#45;&gt;Node8</title>
<g id="a_edge8_Node000002_Node000008"><a xlink:title=" ">
<path fill="none" stroke="#63b8ff" d="M1276.96,-198.64C1256.41,-187.95 1227.67,-173 1206.75,-162.12"/>
<polygon fill="#63b8ff" stroke="#63b8ff" points="1275.55,-201.86 1286.04,-203.37 1278.78,-195.65 1275.55,-201.86"/>
</a>
</g>
</g>
<!-- Node10 -->
<g id="Node000010" class="node">
<title>Node10</title>
<g id="a_Node000010"><a xlink:href="tcp__server__builder_8hpp.html" target="_top" xlink:title=" ">
<polygon fill="white" stroke="#666666" points="1601.62,-162 1489.62,-162 1489.62,-132 1601.62,-132 1601.62,-162"/>
<text text-anchor="start" x="1497.62" y="-150" font-family="Helvetica,sans-Serif" font-size="10.00">unilink/builder/tcp</text>
<text text-anchor="middle" x="1545.62" y="-139" font-family="Helvetica,sans-Serif" font-size="10.00">_server_builder.hpp</text>
</a>
</g>
</g>
<!-- Node2&#45;&gt;Node10 -->
<g id="edge12_Node000002_Node000010" class="edge">
<title>Node2&#45;&gt;Node10</title>
<g id="a_edge12_Node000002_Node000010"><a xlink:title=" ">
<path fill="none" stroke="#63b8ff" d="M1344.81,-200.89C1385.76,-190.1 1448.04,-173.7 1492.37,-162.02"/>
<polygon fill="#63b8ff" stroke="#63b8ff" points="1343.92,-197.5 1335.14,-203.44 1345.71,-204.27 1343.92,-197.5"/>
</a>
</g>
</g>
<!-- Node12 -->
<g id="Node000012" class="node">
<title>Node12</title>
<g id="a_Node000012"><a xlink:href="udp__builder_8hpp.html" target="_top" xlink:title=" ">
<polygon fill="white" stroke="#666666" points="1399.12,-162 1292.12,-162 1292.12,-132 1399.12,-132 1399.12,-162"/>
<text text-anchor="start" x="1300.12" y="-150" font-family="Helvetica,sans-Serif" font-size="10.00">unilink/builder/udp</text>
<text text-anchor="middle" x="1345.62" y="-139" font-family="Helvetica,sans-Serif" font-size="10.00">_builder.hpp</text>
</a>
</g>
</g>
<!-- Node2&#45;&gt;Node12 -->
<g id="edge16_Node000002_Node000012" class="edge">
<title>Node2&#45;&gt;Node12</title>
<g id="a_edge16_Node000002_Node000012"><a xlink:title=" ">
<path fill="none" stroke="#63b8ff" d="M1314.1,-194.92C1320.93,-184.76 1329.5,-172.01 1335.98,-162.36"/>
<polygon fill="#63b8ff" stroke="#63b8ff" points="1311.1,-193.12 1308.42,-203.37 1316.91,-197.02 1311.1,-193.12"/>
</a>
</g>
</g>
<!-- Node14 -->
<g id="Node000014" class="node">
<title>Node14</title>
<g id="a_Node000014"><a xlink:href="uds__builder_8hpp.html" target="_top" xlink:title=" ">
<polygon fill="white" stroke="#666666" points="1071.12,-162 964.12,-162 964.12,-132 1071.12,-132 1071.12,-162"/>
<text text-anchor="start" x="972.12" y="-150" font-family="Helvetica,sans-Serif" font-size="10.00">unilink/builder/uds</text>
<text text-anchor="middle" x="1017.62" y="-139" font-family="Helvetica,sans-Serif" font-size="10.00">_builder.hpp</text>
</a>
</g>
</g>
<!-- Node2&#45;&gt;Node14 -->
<g id="edge20_Node000002_Node000014" class="edge">
<title>Node2&#45;&gt;Node14</title>
<g id="a_edge20_Node000002_Node000014"><a xlink:title=" ">
<path fill="none" stroke="#63b8ff" d="M1254.43,-201.18C1203.71,-189.79 1124.05,-171.9 1071.34,-160.06"/>
<polygon fill="#63b8ff" stroke="#63b8ff" points="1253.96,-204.66 1264.48,-203.44 1255.49,-197.83 1253.96,-204.66"/>
</a>
</g>
</g>
<!-- Node4 -->
<g id="Node000004" class="node">
<title>Node4</title>
<g id="a_Node000004"><a xlink:href="serial__builder_8cc.html" target="_top" xlink:title=" ">
<polygon fill="white" stroke="#666666" points="869.62,-96 753.62,-96 753.62,-66 869.62,-66 869.62,-96"/>
<text text-anchor="start" x="761.62" y="-84" font-family="Helvetica,sans-Serif" font-size="10.00">unilink/builder/serial</text>
<text text-anchor="middle" x="811.62" y="-73" font-family="Helvetica,sans-Serif" font-size="10.00">_builder.cc</text>
</a>
</g>
</g>
<!-- Node3&#45;&gt;Node4 -->
<g id="edge3_Node000003_Node000004" class="edge">
<title>Node3&#45;&gt;Node4</title>
<g id="a_edge3_Node000003_Node000004"><a xlink:title=" ">
<path fill="none" stroke="#63b8ff" d="M811.62,-121.54C811.62,-112.96 811.62,-103.61 811.62,-96.16"/>
<polygon fill="#63b8ff" stroke="#63b8ff" points="808.12,-121.8 811.62,-131.8 815.12,-121.8 808.12,-121.8"/>
</a>
</g>
</g>
<!-- Node5 -->
<g id="Node000005" class="node">
<title>Node5</title>
<g id="a_Node000005"><a xlink:href="unified__builder_8hpp.html" target="_top" xlink:title=" ">
<polygon fill="white" stroke="#666666" points="1371.62,-96 1249.62,-96 1249.62,-66 1371.62,-66 1371.62,-96"/>
<text text-anchor="start" x="1257.62" y="-84" font-family="Helvetica,sans-Serif" font-size="10.00">unilink/builder/unified</text>
<text text-anchor="middle" x="1310.62" y="-73" font-family="Helvetica,sans-Serif" font-size="10.00">_builder.hpp</text>
</a>
</g>
</g>
<!-- Node3&#45;&gt;Node5 -->
<g id="edge4_Node000003_Node000005" class="edge">
<title>Node3&#45;&gt;Node5</title>
<g id="a_edge4_Node000003_Node000005"><a xlink:title=" ">
<path fill="none" stroke="#63b8ff" d="M880,-138.72C982.94,-127.64 1172.89,-106.7 1240.62,-96 1243.56,-95.54 1246.56,-95.04 1249.59,-94.51"/>
<polygon fill="#63b8ff" stroke="#63b8ff" points="879.58,-135.24 870.02,-139.79 880.33,-142.2 879.58,-135.24"/>
</a>
</g>
</g>
<!-- Node3&#45;&gt;Node7 -->
<g id="edge7_Node000003_Node000007" class="edge">
<title>Node3&#45;&gt;Node7</title>
<g id="a_edge7_Node000003_Node000007"><a xlink:title=" ">
<path fill="none" stroke="#63b8ff" d="M776.57,-126.26C753.09,-110.44 729.09,-87.42 744.62,-66 767.1,-35.01 809.34,-22.87 843.75,-18.28"/>
<polygon fill="#63b8ff" stroke="#63b8ff" points="774.82,-129.3 785.13,-131.75 778.6,-123.4 774.82,-129.3"/>
</a>
</g>
</g>
<!-- Node6 -->
<g id="Node000006" class="node">
<title>Node6</title>
<g id="a_Node000006"><a xlink:href="unified__builder_8cc.html" target="_top" xlink:title=" ">
<polygon fill="white" stroke="#666666" points="1371.62,-30 1249.62,-30 1249.62,0 1371.62,0 1371.62,-30"/>
<text text-anchor="start" x="1257.62" y="-18" font-family="Helvetica,sans-Serif" font-size="10.00">unilink/builder/unified</text>
<text text-anchor="middle" x="1310.62" y="-7" font-family="Helvetica,sans-Serif" font-size="10.00">_builder.cc</text>
</a>
</g>
</g>
<!-- Node5&#45;&gt;Node6 -->
<g id="edge5_Node000005_Node000006" class="edge">
<title>Node5&#45;&gt;Node6</title>
<g id="a_edge5_Node000005_Node000006"><a xlink:title=" ">
<path fill="none" stroke="#63b8ff" d="M1310.62,-55.54C1310.62,-46.96 1310.62,-37.61 1310.62,-30.16"/>
<polygon fill="#63b8ff" stroke="#63b8ff" points="1307.12,-55.8 1310.62,-65.8 1314.12,-55.8 1307.12,-55.8"/>
</a>
</g>
</g>
<!-- Node5&#45;&gt;Node7 -->
<g id="edge6_Node000005_Node000007" class="edge">
<title>Node5&#45;&gt;Node7</title>
<g id="a_edge6_Node000005_Node000007"><a xlink:title=" ">
<path fill="none" stroke="#63b8ff" d="M1239.48,-65.86C1131.43,-47.39 1016.81,-31.59 951.23,-22.93"/>
<polygon fill="#63b8ff" stroke="#63b8ff" points="1239.13,-69.35 1249.58,-67.59 1240.31,-62.45 1239.13,-69.35"/>
</a>
</g>
</g>
<!-- Node8&#45;&gt;Node5 -->
<g id="edge10_Node000008_Node000005" class="edge">
<title>Node8&#45;&gt;Node5</title>
<g id="a_edge10_Node000008_Node000005"><a xlink:title=" ">
<path fill="none" stroke="#63b8ff" d="M1217.46,-127.51C1238.02,-117.47 1263.02,-105.26 1281.94,-96.01"/>
<polygon fill="#63b8ff" stroke="#63b8ff" points="1215.82,-124.42 1208.37,-131.95 1218.89,-130.71 1215.82,-124.42"/>
</a>
</g>
</g>
<!-- Node8&#45;&gt;Node7 -->
<g id="edge11_Node000008_Node000007" class="edge">
<title>Node8&#45;&gt;Node7</title>
<g id="a_edge11_Node000008_Node000007"><a xlink:title=" ">
<path fill="none" stroke="#63b8ff" d="M1154.42,-125.42C1126.19,-102.43 1083.82,-68.14 1079.62,-66 1038.46,-45.02 987.43,-31.98 949.89,-24.5"/>
<polygon fill="#63b8ff" stroke="#63b8ff" points="1152.35,-128.25 1162.32,-131.85 1156.78,-122.82 1152.35,-128.25"/>
</a>
</g>
</g>
<!-- Node9 -->
<g id="Node000009" class="node">
<title>Node9</title>
<g id="a_Node000009"><a xlink:href="tcp__client__builder_8cc.html" target="_top" xlink:title=" ">
<polygon fill="white" stroke="#666666" points="1231.62,-96 1127.62,-96 1127.62,-66 1231.62,-66 1231.62,-96"/>
<text text-anchor="start" x="1135.62" y="-84" font-family="Helvetica,sans-Serif" font-size="10.00">unilink/builder/tcp</text>
<text text-anchor="middle" x="1179.62" y="-73" font-family="Helvetica,sans-Serif" font-size="10.00">_client_builder.cc</text>
</a>
</g>
</g>
<!-- Node8&#45;&gt;Node9 -->
<g id="edge9_Node000008_Node000009" class="edge">
<title>Node8&#45;&gt;Node9</title>
<g id="a_edge9_Node000008_Node000009"><a xlink:title=" ">
<path fill="none" stroke="#63b8ff" d="M1179.62,-121.54C1179.62,-112.96 1179.62,-103.61 1179.62,-96.16"/>
<polygon fill="#63b8ff" stroke="#63b8ff" points="1176.12,-121.8 1179.62,-131.8 1183.12,-121.8 1176.12,-121.8"/>
</a>
</g>
</g>
<!-- Node10&#45;&gt;Node5 -->
<g id="edge14_Node000010_Node000005" class="edge">
<title>Node10&#45;&gt;Node5</title>
<g id="a_edge14_Node000010_Node000005"><a xlink:title=" ">
<path fill="none" stroke="#63b8ff" d="M1484.13,-129.25C1446.17,-118.91 1398.02,-105.8 1362.08,-96.01"/>
<polygon fill="#63b8ff" stroke="#63b8ff" points="1483.48,-132.7 1494.05,-131.95 1485.32,-125.95 1483.48,-132.7"/>
</a>
</g>
</g>
<!-- Node10&#45;&gt;Node7 -->
<g id="edge15_Node000010_Node000007" class="edge">
<title>Node10&#45;&gt;Node7</title>
<g id="a_edge15_Node000010_Node000007"><a xlink:title=" ">
<path fill="none" stroke="#63b8ff" d="M1566,-123.89C1579.68,-106.36 1592.68,-82.2 1577.62,-66 1556.37,-43.13 1108.2,-23.99 951.3,-17.97"/>
<polygon fill="#63b8ff" stroke="#63b8ff" points="1563.05,-121.97 1559.36,-131.9 1568.44,-126.44 1563.05,-121.97"/>
</a>
</g>
</g>
<!-- Node11 -->
<g id="Node000011" class="node">
<title>Node11</title>
<g id="a_Node000011"><a xlink:href="tcp__server__builder_8cc.html" target="_top" xlink:title=" ">
<polygon fill="white" stroke="#666666" points="1733.62,-96 1629.62,-96 1629.62,-66 1733.62,-66 1733.62,-96"/>
<text text-anchor="start" x="1637.62" y="-84" font-family="Helvetica,sans-Serif" font-size="10.00">unilink/builder/tcp</text>
<text text-anchor="middle" x="1681.62" y="-73" font-family="Helvetica,sans-Serif" font-size="10.00">_server_builder.cc</text>
</a>
</g>
</g>
<!-- Node10&#45;&gt;Node11 -->
<g id="edge13_Node000010_Node000011" class="edge">
<title>Node10&#45;&gt;Node11</title>
<g id="a_edge13_Node000010_Node000011"><a xlink:title=" ">
<path fill="none" stroke="#63b8ff" d="M1584.62,-127.65C1606.01,-117.58 1632.11,-105.3 1651.85,-96.01"/>
<polygon fill="#63b8ff" stroke="#63b8ff" points="1583.03,-124.53 1575.47,-131.95 1586.01,-130.86 1583.03,-124.53"/>
</a>
</g>
</g>
<!-- Node12&#45;&gt;Node5 -->
<g id="edge18_Node000012_Node000005" class="edge">
<title>Node12&#45;&gt;Node5</title>
<g id="a_edge18_Node000012_Node000005"><a xlink:title=" ">
<path fill="none" stroke="#63b8ff" d="M1333.03,-122.96C1328.13,-114 1322.67,-104.03 1318.37,-96.16"/>
<polygon fill="#63b8ff" stroke="#63b8ff" points="1329.99,-124.7 1337.86,-131.8 1336.13,-121.34 1329.99,-124.7"/>
</a>
</g>
</g>
<!-- Node12&#45;&gt;Node7 -->
<g id="edge19_Node000012_Node000007" class="edge">
<title>Node12&#45;&gt;Node7</title>
<g id="a_edge19_Node000012_Node000007"><a xlink:title=" ">
<path fill="none" stroke="#63b8ff" d="M1367.39,-123.82C1381.8,-106.46 1395.54,-82.54 1380.62,-66 1352.29,-34.58 1071.38,-21.69 951.45,-17.59"/>
<polygon fill="#63b8ff" stroke="#63b8ff" points="1364.37,-121.95 1360.38,-131.77 1369.62,-126.58 1364.37,-121.95"/>
</a>
</g>
</g>
<!-- Node13 -->
<g id="Node000013" class="node">
<title>Node13</title>
<g id="a_Node000013"><a xlink:href="udp__builder_8cc.html" target="_top" xlink:title=" ">
<polygon fill="white" stroke="#666666" points="1535.12,-96 1428.12,-96 1428.12,-66 1535.12,-66 1535.12,-96"/>
<text text-anchor="start" x="1436.12" y="-84" font-family="Helvetica,sans-Serif" font-size="10.00">unilink/builder/udp</text>
<text text-anchor="middle" x="1481.62" y="-73" font-family="Helvetica,sans-Serif" font-size="10.00">_builder.cc</text>
</a>
</g>
</g>
<!-- Node12&#45;&gt;Node13 -->
<g id="edge17_Node000012_Node000013" class="edge">
<title>Node12&#45;&gt;Node13</title>
<g id="a_edge17_Node000012_Node000013"><a xlink:title=" ">
<path fill="none" stroke="#63b8ff" d="M1384.62,-127.65C1406.01,-117.58 1432.11,-105.3 1451.85,-96.01"/>
<polygon fill="#63b8ff" stroke="#63b8ff" points="1383.03,-124.53 1375.47,-131.95 1386.01,-130.86 1383.03,-124.53"/>
</a>
</g>
</g>
<!-- Node14&#45;&gt;Node7 -->
<g id="edge22_Node000014_Node000007" class="edge">
<title>Node14&#45;&gt;Node7</title>
<g id="a_edge22_Node000014_Node000007"><a xlink:title=" ">
<path fill="none" stroke="#63b8ff" d="M988.58,-125.67C977.37,-117.15 964.81,-106.73 954.62,-96 932.31,-72.5 911.72,-39.82 902.59,-24.52"/>
<polygon fill="#63b8ff" stroke="#63b8ff" points="986.71,-128.64 996.83,-131.79 990.88,-123.02 986.71,-128.64"/>
</a>
</g>
</g>
<!-- Node15 -->
<g id="Node000015" class="node">
<title>Node15</title>
<g id="a_Node000015"><a xlink:href="uds__builder_8cc.html" target="_top" xlink:title=" ">
<polygon fill="white" stroke="#666666" points="1071.12,-96 964.12,-96 964.12,-66 1071.12,-66 1071.12,-96"/>
<text text-anchor="start" x="972.12" y="-84" font-family="Helvetica,sans-Serif" font-size="10.00">unilink/builder/uds</text>
<text text-anchor="middle" x="1017.62" y="-73" font-family="Helvetica,sans-Serif" font-size="10.00">_builder.cc</text>
</a>
</g>
</g>
<!-- Node14&#45;&gt;Node15 -->
<g id="edge21_Node000014_Node000015" class="edge">
<title>Node14&#45;&gt;Node15</title>
<g id="a_edge21_Node000014_Node000015"><a xlink:title=" ">
<path fill="none" stroke="#63b8ff" d="M1017.62,-121.54C1017.62,-112.96 1017.62,-103.61 1017.62,-96.16"/>
<polygon fill="#63b8ff" stroke="#63b8ff" points="1014.12,-121.8 1017.62,-131.8 1021.12,-121.8 1014.12,-121.8"/>
</a>
</g>
</g>
<!-- Node16&#45;&gt;Node2 -->
<g id="edge25_Node000016_Node000002" class="edge">
<title>Node16&#45;&gt;Node2</title>
<g id="a_edge25_Node000016_Node000002"><a xlink:title=" ">
<path fill="none" stroke="#63b8ff" d="M1589.99,-266.4C1520.59,-253.74 1411.16,-233.79 1349.29,-222.51"/>
<polygon fill="#63b8ff" stroke="#63b8ff" points="1589.47,-269.86 1599.93,-268.21 1590.72,-262.97 1589.47,-269.86"/>
</a>
</g>
</g>
<!-- Node17 -->
<g id="Node000017" class="node">
<title>Node17</title>
<g id="a_Node000017"><a xlink:href="line__framer_8cc.html" target="_top" xlink:title=" ">
<polygon fill="white" stroke="#666666" points="1777.12,-228 1670.12,-228 1670.12,-198 1777.12,-198 1777.12,-228"/>
<text text-anchor="start" x="1678.12" y="-216" font-family="Helvetica,sans-Serif" font-size="10.00">unilink/framer/line</text>
<text text-anchor="middle" x="1723.62" y="-205" font-family="Helvetica,sans-Serif" font-size="10.00">_framer.cc</text>
</a>
</g>
</g>
<!-- Node16&#45;&gt;Node17 -->
<g id="edge26_Node000016_Node000017" class="edge">
<title>Node16&#45;&gt;Node17</title>
<g id="a_edge26_Node000016_Node000017"><a xlink:title=" ">
<path fill="none" stroke="#63b8ff" d="M1676.68,-256.92C1687,-247.49 1698.9,-236.61 1708.13,-228.16"/>
<polygon fill="#63b8ff" stroke="#63b8ff" points="1674.18,-254.47 1669.16,-263.8 1678.9,-259.63 1674.18,-254.47"/>
</a>
</g>
</g>
<!-- Node18 -->
<g id="Node000018" class="node">
<title>Node18</title>
<g id="a_Node000018"><a xlink:href="wrapper_2uds__server_2uds__server_8cc.html" target="_top" xlink:title=" ">
<polygon fill="white" stroke="#666666" points="2049.62,-162 1927.62,-162 1927.62,-132 2049.62,-132 2049.62,-162"/>
<text text-anchor="start" x="1935.62" y="-150" font-family="Helvetica,sans-Serif" font-size="10.00">unilink/wrapper/uds</text>
<text text-anchor="middle" x="1988.62" y="-139" font-family="Helvetica,sans-Serif" font-size="10.00">_server/uds_server.cc</text>
</a>
</g>
</g>
<!-- Node16&#45;&gt;Node18 -->
<g id="edge27_Node000016_Node000018" class="edge">
<title>Node16&#45;&gt;Node18</title>
<g id="a_edge27_Node000016_Node000018"><a xlink:title=" ">
<path fill="none" stroke="#63b8ff" d="M1705.82,-260.54C1730.44,-251.72 1759.97,-240.29 1785.62,-228 1809.34,-216.63 1812.66,-208.84 1836.62,-198 1869.02,-183.35 1907.02,-170.85 1936.92,-162.01"/>
<polygon fill="#63b8ff" stroke="#63b8ff" points="1704.56,-257.27 1696.3,-263.91 1706.89,-263.87 1704.56,-257.27"/>
</a>
</g>
</g>
<!-- Node19&#45;&gt;Node2 -->
<g id="edge29_Node000019_Node000002" class="edge">
<title>Node19&#45;&gt;Node2</title>
<g id="a_edge29_Node000019_Node000002"><a xlink:title=" ">
<path fill="none" stroke="#63b8ff" d="M1748.79,-268.22C1737.7,-266.76 1726.36,-265.31 1715.62,-264 1568.73,-246.13 1531.18,-248.46 1384.62,-228 1373.32,-226.42 1361.19,-224.49 1349.81,-222.56"/>
<polygon fill="#63b8ff" stroke="#63b8ff" points="1748.52,-271.71 1758.89,-269.56 1749.44,-264.77 1748.52,-271.71"/>
</a>
</g>
</g>
<!-- Node19&#45;&gt;Node18 -->
<g id="edge31_Node000019_Node000018" class="edge">
<title>Node19&#45;&gt;Node18</title>
<g id="a_edge31_Node000019_Node000018"><a xlink:title=" ">
<path fill="none" stroke="#63b8ff" d="M1827.61,-254.37C1834.64,-236.75 1846.45,-213.19 1863.62,-198 1882.53,-181.28 1907.73,-169.76 1930.55,-162.04"/>
<polygon fill="#63b8ff" stroke="#63b8ff" points="1824.25,-253.36 1824.02,-263.95 1830.81,-255.82 1824.25,-253.36"/>
</a>
</g>
</g>
<!-- Node20 -->
<g id="Node000020" class="node">
<title>Node20</title>
<g id="a_Node000020"><a xlink:href="packet__framer_8cc.html" target="_top" xlink:title=" ">
<polygon fill="white" stroke="#666666" points="1993.12,-228 1872.12,-228 1872.12,-198 1993.12,-198 1993.12,-228"/>
<text text-anchor="start" x="1880.12" y="-216" font-family="Helvetica,sans-Serif" font-size="10.00">unilink/framer/packet</text>
<text text-anchor="middle" x="1932.62" y="-205" font-family="Helvetica,sans-Serif" font-size="10.00">_framer.cc</text>
</a>
</g>
</g>
<!-- Node19&#45;&gt;Node20 -->
<g id="edge30_Node000019_Node000020" class="edge">
<title>Node19&#45;&gt;Node20</title>
<g id="a_edge30_Node000019_Node000020"><a xlink:title=" ">
<path fill="none" stroke="#63b8ff" d="M1853.23,-258.97C1870.77,-249.03 1891.85,-237.09 1907.88,-228.01"/>
<polygon fill="#63b8ff" stroke="#63b8ff" points="1851.4,-255.98 1844.42,-263.95 1854.85,-262.07 1851.4,-255.98"/>
</a>
</g>
</g>
<!-- Node21&#45;&gt;Node7 -->
<g id="edge33_Node000021_Node000007" class="edge">
<title>Node21&#45;&gt;Node7</title>
<g id="a_edge33_Node000021_Node000007"><a xlink:title=" ">
<path fill="none" stroke="#63b8ff" d="M334.39,-276.57C190.86,-270.96 -67.14,-245.34 16.62,-132 76.04,-51.62 133.4,-84.52 231.62,-66 456.38,-23.62 730.17,-16.86 844.01,-15.99"/>
<polygon fill="#63b8ff" stroke="#63b8ff" points="334.4,-280.07 344.52,-276.94 334.65,-273.08 334.4,-280.07"/>
</a>
</g>
</g>
<!-- Node22 -->
<g id="Node000022" class="node">
<title>Node22</title>
<g id="a_Node000022"><a xlink:href="wrapper_2serial_2serial_8hpp.html" target="_top" xlink:title=" ">
<polygon fill="white" stroke="#666666" points="246.62,-228 124.62,-228 124.62,-198 246.62,-198 246.62,-228"/>
<text text-anchor="start" x="132.62" y="-216" font-family="Helvetica,sans-Serif" font-size="10.00">unilink/wrapper/serial</text>
<text text-anchor="middle" x="185.62" y="-205" font-family="Helvetica,sans-Serif" font-size="10.00">/serial.hpp</text>
</a>
</g>
</g>
<!-- Node21&#45;&gt;Node22 -->
<g id="edge34_Node000021_Node000022" class="edge">
<title>Node21&#45;&gt;Node22</title>
<g id="a_edge34_Node000021_Node000022"><a xlink:title=" ">
<path fill="none" stroke="#63b8ff" d="M381.82,-266.76C341.82,-256 281.34,-239.74 238.12,-228.12"/>
<polygon fill="#63b8ff" stroke="#63b8ff" points="380.96,-270.15 391.53,-269.37 382.78,-263.39 380.96,-270.15"/>
</a>
</g>
</g>
<!-- Node24 -->
<g id="Node000024" class="node">
<title>Node24</title>
<g id="a_Node000024"><a xlink:href="wrapper_2tcp__client_2tcp__client_8hpp.html" target="_top" xlink:title=" ">
<polygon fill="white" stroke="#666666" points="695.62,-228 575.62,-228 575.62,-198 695.62,-198 695.62,-228"/>
<text text-anchor="start" x="583.62" y="-216" font-family="Helvetica,sans-Serif" font-size="10.00">unilink/wrapper/tcp</text>
<text text-anchor="middle" x="635.62" y="-205" font-family="Helvetica,sans-Serif" font-size="10.00">_client/tcp_client.hpp</text>
</a>
</g>
</g>
<!-- Node21&#45;&gt;Node24 -->
<g id="edge38_Node000021_Node000024" class="edge">
<title>Node21&#45;&gt;Node24</title>
<g id="a_edge38_Node000021_Node000024"><a xlink:title=" ">
<path fill="none" stroke="#63b8ff" d="M462.23,-266.35C497.86,-255.59 550.85,-239.59 588.87,-228.12"/>
<polygon fill="#63b8ff" stroke="#63b8ff" points="460.78,-263.13 452.22,-269.37 462.8,-269.83 460.78,-263.13"/>
</a>
</g>
</g>
<!-- Node26 -->
<g id="Node000026" class="node">
<title>Node26</title>
<g id="a_Node000026"><a xlink:href="wrapper_2udp_2udp_8hpp.html" target="_top" xlink:title=" ">
<polygon fill="white" stroke="#666666" points="552.12,-228 439.12,-228 439.12,-198 552.12,-198 552.12,-228"/>
<text text-anchor="start" x="447.12" y="-216" font-family="Helvetica,sans-Serif" font-size="10.00">unilink/wrapper/udp</text>
<text text-anchor="middle" x="495.62" y="-205" font-family="Helvetica,sans-Serif" font-size="10.00">/udp.hpp</text>
</a>
</g>
</g>
<!-- Node21&#45;&gt;Node26 -->
<g id="edge42_Node000021_Node000026" class="edge">
<title>Node21&#45;&gt;Node26</title>
<g id="a_edge42_Node000021_Node000026"><a xlink:title=" ">
<path fill="none" stroke="#63b8ff" d="M440.82,-262.71C452.64,-252.21 468.22,-238.36 479.74,-228.12"/>
<polygon fill="#63b8ff" stroke="#63b8ff" points="438.48,-260.11 433.33,-269.37 443.13,-265.34 438.48,-260.11"/>
</a>
</g>
</g>
<!-- Node28 -->
<g id="Node000028" class="node">
<title>Node28</title>
<g id="a_Node000028"><a xlink:href="wrapper_2uds__client_2uds__client_8hpp.html" target="_top" xlink:title=" ">
<polygon fill="white" stroke="#666666" points="411.62,-228 289.62,-228 289.62,-198 411.62,-198 411.62,-228"/>
<text text-anchor="start" x="297.62" y="-216" font-family="Helvetica,sans-Serif" font-size="10.00">unilink/wrapper/uds</text>
<text text-anchor="middle" x="350.62" y="-205" font-family="Helvetica,sans-Serif" font-size="10.00">_client/uds_client.hpp</text>
</a>
</g>
</g>
<!-- Node21&#45;&gt;Node28 -->
<g id="edge46_Node000021_Node000028" class="edge">
<title>Node21&#45;&gt;Node28</title>
<g id="a_edge46_Node000021_Node000028"><a xlink:title=" ">
<path fill="none" stroke="#63b8ff" d="M406.19,-262.71C394.21,-252.21 378.41,-238.36 366.73,-228.12"/>
<polygon fill="#63b8ff" stroke="#63b8ff" points="403.95,-265.41 413.78,-269.37 408.57,-260.14 403.95,-265.41"/>
</a>
</g>
</g>
<!-- Node22&#45;&gt;Node3 -->
<g id="edge35_Node000022_Node000003" class="edge">
<title>Node22&#45;&gt;Node3</title>
<g id="a_edge35_Node000022_Node000003"><a xlink:title=" ">
<path fill="none" stroke="#63b8ff" d="M256.76,-201.09C264.8,-199.99 272.89,-198.93 280.62,-198 452.13,-177.4 495.66,-178.36 667.62,-162 695.88,-159.31 727.25,-156.27 753.48,-153.71"/>
<polygon fill="#63b8ff" stroke="#63b8ff" points="256.05,-197.66 246.63,-202.52 257.02,-204.59 256.05,-197.66"/>
</a>
</g>
</g>
<!-- Node22&#45;&gt;Node7 -->
<g id="edge36_Node000022_Node000007" class="edge">
<title>Node22&#45;&gt;Node7</title>
<g id="a_edge36_Node000022_Node000007"><a xlink:title=" ">
<path fill="none" stroke="#63b8ff" d="M181.77,-187.71C180.43,-170.25 181.77,-147.2 194.62,-132 263.6,-50.49 320.81,-86.37 425.62,-66 575.68,-36.84 756.1,-23.69 844.09,-18.65"/>
<polygon fill="#63b8ff" stroke="#63b8ff" points="178.31,-188.18 182.88,-197.74 185.26,-187.42 178.31,-188.18"/>
</a>
</g>
</g>
<!-- Node23 -->
<g id="Node000023" class="node">
<title>Node23</title>
<g id="a_Node000023"><a xlink:href="wrapper_2serial_2serial_8cc.html" target="_top" xlink:title=" ">
<polygon fill="white" stroke="#666666" points="147.62,-162 25.62,-162 25.62,-132 147.62,-132 147.62,-162"/>
<text text-anchor="start" x="33.62" y="-150" font-family="Helvetica,sans-Serif" font-size="10.00">unilink/wrapper/serial</text>
<text text-anchor="middle" x="86.62" y="-139" font-family="Helvetica,sans-Serif" font-size="10.00">/serial.cc</text>
</a>
</g>
</g>
<!-- Node22&#45;&gt;Node23 -->
<g id="edge37_Node000022_Node000023" class="edge">
<title>Node22&#45;&gt;Node23</title>
<g id="a_edge37_Node000022_Node000023"><a xlink:title=" ">
<path fill="none" stroke="#63b8ff" d="M155.15,-192.3C140.08,-182.56 122.24,-171.02 108.53,-162.16"/>
<polygon fill="#63b8ff" stroke="#63b8ff" points="153.36,-195.31 163.65,-197.8 157.16,-189.43 153.36,-195.31"/>
</a>
</g>
</g>
<!-- Node24&#45;&gt;Node7 -->
<g id="edge40_Node000024_Node000007" class="edge">
<title>Node24&#45;&gt;Node7</title>
<g id="a_edge40_Node000024_Node000007"><a xlink:title=" ">
<path fill="none" stroke="#63b8ff" d="M653.49,-189.44C659.02,-181.26 664.47,-171.64 667.62,-162 680.9,-121.37 645.86,-98.51 673.62,-66 695.36,-40.55 785.04,-26.97 844.12,-20.64"/>
<polygon fill="#63b8ff" stroke="#63b8ff" points="650.56,-187.53 647.58,-197.7 656.25,-191.61 650.56,-187.53"/>
</a>
</g>
</g>
<!-- Node24&#45;&gt;Node8 -->
<g id="edge39_Node000024_Node000008" class="edge">
<title>Node24&#45;&gt;Node8</title>
<g id="a_edge39_Node000024_Node000008"><a xlink:title=" ">
<path fill="none" stroke="#63b8ff" d="M705.73,-204.7C793.3,-195.44 947.67,-178.66 1079.62,-162 1094.49,-160.12 1110.59,-157.94 1125.43,-155.86"/>
<polygon fill="#63b8ff" stroke="#63b8ff" points="705.23,-201.23 695.65,-205.76 705.96,-208.19 705.23,-201.23"/>
</a>
</g>
</g>
<!-- Node25 -->
<g id="Node000025" class="node">
<title>Node25</title>
<g id="a_Node000025"><a xlink:href="wrapper_2tcp__client_2tcp__client_8cc.html" target="_top" xlink:title=" ">
<polygon fill="white" stroke="#666666" points="659.12,-162 546.12,-162 546.12,-132 659.12,-132 659.12,-162"/>
<text text-anchor="start" x="554.12" y="-150" font-family="Helvetica,sans-Serif" font-size="10.00">unilink/wrapper/tcp</text>
<text text-anchor="middle" x="602.62" y="-139" font-family="Helvetica,sans-Serif" font-size="10.00">_client/tcp_client.cc</text>
</a>
</g>
</g>
<!-- Node24&#45;&gt;Node25 -->
<g id="edge41_Node000024_Node000025" class="edge">
<title>Node24&#45;&gt;Node25</title>
<g id="a_edge41_Node000024_Node000025"><a xlink:title=" ">
<path fill="none" stroke="#63b8ff" d="M623.6,-188.68C619.02,-179.79 613.94,-169.95 609.93,-162.16"/>
<polygon fill="#63b8ff" stroke="#63b8ff" points="620.61,-190.51 628.3,-197.8 626.83,-187.3 620.61,-190.51"/>
</a>
</g>
</g>
<!-- Node26&#45;&gt;Node7 -->
<g id="edge44_Node000026_Node000007" class="edge">
<title>Node26&#45;&gt;Node7</title>
<g id="a_edge44_Node000026_Node000007"><a xlink:title=" ">
<path fill="none" stroke="#63b8ff" d="M503.42,-188.31C510.06,-171.03 521.03,-147.95 536.62,-132 619.82,-46.93 765.5,-24.16 843.95,-18.13"/>
<polygon fill="#63b8ff" stroke="#63b8ff" points="500.13,-187.11 500.01,-197.71 506.71,-189.5 500.13,-187.11"/>
</a>
</g>
</g>
<!-- Node26&#45;&gt;Node12 -->
<g id="edge43_Node000026_Node000012" class="edge">
<title>Node26&#45;&gt;Node12</title>
<g id="a_edge43_Node000026_Node000012"><a xlink:title=" ">
<path fill="none" stroke="#63b8ff" d="M562.7,-198.51C564.02,-198.33 565.33,-198.16 566.62,-198 865.19,-160.8 943.09,-190.28 1242.62,-162 1258.7,-160.48 1276.13,-158.31 1292,-156.14"/>
<polygon fill="#63b8ff" stroke="#63b8ff" points="561.84,-195.1 552.48,-200.05 562.89,-202.03 561.84,-195.1"/>
</a>
</g>
</g>
<!-- Node27 -->
<g id="Node000027" class="node">
<title>Node27</title>
<g id="a_Node000027"><a xlink:href="wrapper_2udp_2udp_8cc.html" target="_top" xlink:title=" ">
<polygon fill="white" stroke="#666666" points="489.12,-162 376.12,-162 376.12,-132 489.12,-132 489.12,-162"/>
<text text-anchor="start" x="384.12" y="-150" font-family="Helvetica,sans-Serif" font-size="10.00">unilink/wrapper/udp</text>
<text text-anchor="middle" x="432.62" y="-139" font-family="Helvetica,sans-Serif" font-size="10.00">/udp.cc</text>
</a>
</g>
</g>
<!-- Node26&#45;&gt;Node27 -->
<g id="edge45_Node000026_Node000027" class="edge">
<title>Node26&#45;&gt;Node27</title>
<g id="a_edge45_Node000026_Node000027"><a xlink:title=" ">
<path fill="none" stroke="#63b8ff" d="M474.6,-190.65C465.38,-181.27 454.8,-170.53 446.57,-162.16"/>
<polygon fill="#63b8ff" stroke="#63b8ff" points="472.13,-193.13 481.64,-197.8 477.12,-188.21 472.13,-193.13"/>
</a>
</g>
</g>
<!-- Node28&#45;&gt;Node7 -->
<g id="edge48_Node000028_Node000007" class="edge">
<title>Node28&#45;&gt;Node7</title>
<g id="a_edge48_Node000028_Node000007"><a xlink:title=" ">
<path fill="none" stroke="#63b8ff" d="M349.31,-187.9C349.66,-170.34 353.05,-147.09 366.62,-132 430.12,-61.4 721.95,-30.12 843.86,-19.96"/>
<polygon fill="#63b8ff" stroke="#63b8ff" points="345.81,-188.01 349.41,-197.97 352.81,-187.93 345.81,-188.01"/>
</a>
</g>
</g>
<!-- Node28&#45;&gt;Node14 -->
<g id="edge47_Node000028_Node000014" class="edge">
<title>Node28&#45;&gt;Node14</title>
<g id="a_edge47_Node000028_Node000014"><a xlink:title=" ">
<path fill="none" stroke="#63b8ff" d="M421.9,-199.05C424.5,-198.68 427.09,-198.33 429.62,-198 628.19,-172.5 679.24,-180.03 878.62,-162 906.77,-159.45 938.08,-156.33 963.85,-153.67"/>
<polygon fill="#63b8ff" stroke="#63b8ff" points="421.15,-195.62 411.78,-200.57 422.19,-202.54 421.15,-195.62"/>
</a>
</g>
</g>
<!-- Node29 -->
<g id="Node000029" class="node">
<title>Node29</title>
<g id="a_Node000029"><a xlink:href="wrapper_2uds__client_2uds__client_8cc.html" target="_top" xlink:title=" ">
<polygon fill="white" stroke="#666666" points="319.12,-162 204.12,-162 204.12,-132 319.12,-132 319.12,-162"/>
<text text-anchor="start" x="212.12" y="-150" font-family="Helvetica,sans-Serif" font-size="10.00">unilink/wrapper/uds</text>
<text text-anchor="middle" x="261.62" y="-139" font-family="Helvetica,sans-Serif" font-size="10.00">_client/uds_client.cc</text>
</a>
</g>
</g>
<!-- Node28&#45;&gt;Node29 -->
<g id="edge49_Node000028_Node000029" class="edge">
<title>Node28&#45;&gt;Node29</title>
<g id="a_edge49_Node000028_Node000029"><a xlink:title=" ">
<path fill="none" stroke="#63b8ff" d="M322.47,-191.75C309.08,-182.13 293.41,-170.86 281.32,-162.16"/>
<polygon fill="#63b8ff" stroke="#63b8ff" points="320.71,-194.8 330.87,-197.8 324.8,-189.12 320.71,-194.8"/>
</a>
</g>
</g>
<!-- Node30&#45;&gt;Node7 -->
<g id="edge51_Node000030_Node000007" class="edge">
<title>Node30&#45;&gt;Node7</title>
<g id="a_edge51_Node000030_Node000007"><a xlink:title=" ">
<path fill="none" stroke="#63b8ff" d="M1353.8,-276.5C1186.74,-271.62 824.39,-250.79 744.62,-162 716.01,-130.15 711.23,-100.47 736.62,-66 761.01,-32.89 807.13,-21.06 843.77,-17.13"/>
<polygon fill="#63b8ff" stroke="#63b8ff" points="1353.94,-280.01 1364.03,-276.79 1354.13,-273.01 1353.94,-280.01"/>
</a>
</g>
</g>
<!-- Node31 -->
<g id="Node000031" class="node">
<title>Node31</title>
<g id="a_Node000031"><a xlink:href="wrapper_2tcp__server_2tcp__server_8hpp.html" target="_top" xlink:title=" ">
<polygon fill="white" stroke="#666666" points="1652.12,-228 1525.12,-228 1525.12,-198 1652.12,-198 1652.12,-228"/>
<text text-anchor="start" x="1533.12" y="-216" font-family="Helvetica,sans-Serif" font-size="10.00">unilink/wrapper/tcp</text>
<text text-anchor="middle" x="1588.62" y="-205" font-family="Helvetica,sans-Serif" font-size="10.00">_server/tcp_server.hpp</text>
</a>
</g>
</g>
<!-- Node30&#45;&gt;Node31 -->
<g id="edge52_Node000030_Node000031" class="edge">
<title>Node30&#45;&gt;Node31</title>
<g id="a_edge52_Node000030_Node000031"><a xlink:title=" ">
<path fill="none" stroke="#63b8ff" d="M1468.24,-265.36C1493.39,-254.63 1529.45,-239.25 1555.54,-228.12"/>
<polygon fill="#63b8ff" stroke="#63b8ff" points="1466.68,-262.23 1458.85,-269.37 1469.43,-268.66 1466.68,-262.23"/>
</a>
</g>
</g>
<!-- Node33 -->
<g id="Node000033" class="node">
<title>Node33</title>
<g id="a_Node000033"><a xlink:href="udp__server_8hpp.html" target="_top" xlink:title=" ">
<polygon fill="white" stroke="#666666" points="1507.12,-228 1394.12,-228 1394.12,-198 1507.12,-198 1507.12,-228"/>
<text text-anchor="start" x="1402.12" y="-216" font-family="Helvetica,sans-Serif" font-size="10.00">unilink/wrapper/udp</text>
<text text-anchor="middle" x="1450.62" y="-205" font-family="Helvetica,sans-Serif" font-size="10.00">/udp_server.hpp</text>
</a>
</g>
</g>
<!-- Node30&#45;&gt;Node33 -->
<g id="edge56_Node000030_Node000033" class="edge">
<title>Node30&#45;&gt;Node33</title>
<g id="a_edge56_Node000030_Node000033"><a xlink:title=" ">
<path fill="none" stroke="#63b8ff" d="M1442.12,-259.35C1443.97,-249.47 1446.22,-237.51 1447.93,-228.36"/>
<polygon fill="#63b8ff" stroke="#63b8ff" points="1438.65,-258.89 1440.24,-269.37 1445.53,-260.18 1438.65,-258.89"/>
</a>
</g>
</g>
<!-- Node35 -->
<g id="Node000035" class="node">
<title>Node35</title>
<g id="a_Node000035"><a xlink:href="wrapper_2uds__server_2uds__server_8hpp.html" target="_top" xlink:title=" ">
<polygon fill="white" stroke="#666666" points="1168.12,-228 1039.12,-228 1039.12,-198 1168.12,-198 1168.12,-228"/>
<text text-anchor="start" x="1047.12" y="-216" font-family="Helvetica,sans-Serif" font-size="10.00">unilink/wrapper/uds</text>
<text text-anchor="middle" x="1103.62" y="-205" font-family="Helvetica,sans-Serif" font-size="10.00">_server/uds_server.hpp</text>
</a>
</g>
</g>
<!-- Node30&#45;&gt;Node35 -->
<g id="edge59_Node000030_Node000035" class="edge">
<title>Node30&#45;&gt;Node35</title>
<g id="a_edge59_Node000030_Node000035"><a xlink:title=" ">
<path fill="none" stroke="#63b8ff" d="M1383.91,-267.55C1324.87,-256.27 1230.93,-238.32 1168.28,-226.35"/>
<polygon fill="#63b8ff" stroke="#63b8ff" points="1383.31,-271 1393.79,-269.44 1384.63,-264.12 1383.31,-271"/>
</a>
</g>
</g>
<!-- Node31&#45;&gt;Node7 -->
<g id="edge54_Node000031_Node000007" class="edge">
<title>Node31&#45;&gt;Node7</title>
<g id="a_edge54_Node000031_Node000007"><a xlink:title=" ">
<path fill="none" stroke="#63b8ff" d="M1662.22,-196.51C1696.31,-187.71 1731.52,-175.72 1741.62,-162 1766.94,-127.65 1771.89,-97.05 1742.62,-66 1729,-51.55 1135.43,-25.83 951.43,-18.2"/>
<polygon fill="#63b8ff" stroke="#63b8ff" points="1661.03,-193.2 1652.18,-199.03 1662.73,-199.99 1661.03,-193.2"/>
</a>
</g>
</g>
<!-- Node31&#45;&gt;Node10 -->
<g id="edge53_Node000031_Node000010" class="edge">
<title>Node31&#45;&gt;Node10</title>
<g id="a_edge53_Node000031_Node000010"><a xlink:title=" ">
<path fill="none" stroke="#63b8ff" d="M1573.34,-189.24C1567.27,-180.21 1560.48,-170.11 1555.14,-162.16"/>
<polygon fill="#63b8ff" stroke="#63b8ff" points="1570.6,-191.45 1579.08,-197.8 1576.41,-187.54 1570.6,-191.45"/>
</a>
</g>
</g>
<!-- Node32 -->
<g id="Node000032" class="node">
<title>Node32</title>
<g id="a_Node000032"><a xlink:href="wrapper_2tcp__server_2tcp__server_8cc.html" target="_top" xlink:title=" ">
<polygon fill="white" stroke="#666666" points="1909.12,-162 1790.12,-162 1790.12,-132 1909.12,-132 1909.12,-162"/>
<text text-anchor="start" x="1798.12" y="-150" font-family="Helvetica,sans-Serif" font-size="10.00">unilink/wrapper/tcp</text>
<text text-anchor="middle" x="1849.62" y="-139" font-family="Helvetica,sans-Serif" font-size="10.00">_server/tcp_server.cc</text>
</a>
</g>
</g>
<!-- Node31&#45;&gt;Node32 -->
<g id="edge55_Node000031_Node000032" class="edge">
<title>Node31&#45;&gt;Node32</title>
<g id="a_edge55_Node000031_Node000032"><a xlink:title=" ">
<path fill="none" stroke="#63b8ff" d="M1655.84,-195.52C1698.17,-185.14 1752.22,-171.88 1792.48,-162.01"/>
<polygon fill="#63b8ff" stroke="#63b8ff" points="1654.78,-192.17 1645.9,-197.95 1656.45,-198.97 1654.78,-192.17"/>
</a>
</g>
</g>
<!-- Node33&#45;&gt;Node12 -->
<g id="edge57_Node000033_Node000012" class="edge">
<title>Node33&#45;&gt;Node12</title>
<g id="a_edge57_Node000033_Node000012"><a xlink:title=" ">
<path fill="none" stroke="#63b8ff" d="M1418.95,-192.69C1402.74,-182.82 1383.37,-171.01 1368.61,-162.01"/>
<polygon fill="#63b8ff" stroke="#63b8ff" points="1417.22,-195.74 1427.58,-197.95 1420.86,-189.76 1417.22,-195.74"/>
</a>
</g>
</g>
<!-- Node34 -->
<g id="Node000034" class="node">
<title>Node34</title>
<g id="a_Node000034"><a xlink:href="udp__server_8cc.html" target="_top" xlink:title=" ">
<polygon fill="white" stroke="#666666" points="1733.12,-162 1620.12,-162 1620.12,-132 1733.12,-132 1733.12,-162"/>
<text text-anchor="start" x="1628.12" y="-150" font-family="Helvetica,sans-Serif" font-size="10.00">unilink/wrapper/udp</text>
<text text-anchor="middle" x="1676.62" y="-139" font-family="Helvetica,sans-Serif" font-size="10.00">/udp_server.cc</text>
</a>
</g>
</g>
<!-- Node33&#45;&gt;Node34 -->
<g id="edge58_Node000033_Node000034" class="edge">
<title>Node33&#45;&gt;Node34</title>
<g id="a_edge58_Node000033_Node000034"><a xlink:title=" ">
<path fill="none" stroke="#63b8ff" d="M1510.23,-195.12C1546.67,-184.8 1592.73,-171.76 1627.14,-162.01"/>
<polygon fill="#63b8ff" stroke="#63b8ff" points="1508.89,-191.86 1500.22,-197.95 1510.8,-198.6 1508.89,-191.86"/>
</a>
</g>
</g>
<!-- Node35&#45;&gt;Node7 -->
<g id="edge61_Node000035_Node000007" class="edge">
<title>Node35&#45;&gt;Node7</title>
<g id="a_edge61_Node000035_Node000007"><a xlink:title=" ">
<path fill="none" stroke="#63b8ff" d="M1029.1,-200.24C1002.93,-192.93 975.01,-181.11 954.62,-162 912.94,-122.92 901.29,-49.71 898.45,-24.66"/>
<polygon fill="#63b8ff" stroke="#63b8ff" points="1028.46,-203.69 1039.02,-202.83 1030.23,-196.92 1028.46,-203.69"/>
</a>
</g>
</g>
<!-- Node35&#45;&gt;Node14 -->
<g id="edge60_Node000035_Node000014" class="edge">
<title>Node35&#45;&gt;Node14</title>
<g id="a_edge60_Node000035_Node000014"><a xlink:title=" ">
<path fill="none" stroke="#63b8ff" d="M1076.42,-191.75C1063.48,-182.13 1048.34,-170.86 1036.66,-162.16"/>
<polygon fill="#63b8ff" stroke="#63b8ff" points="1074.43,-194.63 1084.54,-197.8 1078.61,-189.02 1074.43,-194.63"/>
</a>
</g>
</g>
<!-- Node35&#45;&gt;Node18 -->
<g id="edge62_Node000035_Node000018" class="edge">
<title>Node35&#45;&gt;Node18</title>
<g id="a_edge62_Node000035_Node000018"><a xlink:title=" ">
<path fill="none" stroke="#63b8ff" d="M1178.33,-202.3C1192.36,-200.69 1206.93,-199.17 1220.62,-198 1530.13,-171.53 1610.39,-200.56 1918.62,-162 1921.45,-161.65 1924.34,-161.24 1927.25,-160.8"/>
<polygon fill="#63b8ff" stroke="#63b8ff" points="1177.75,-198.84 1168.22,-203.48 1178.56,-205.8 1177.75,-198.84"/>
</a>
</g>
</g>
</g>
</svg>
