<?xml version="1.0" encoding="UTF-8" standalone="no"?>
<!DOCTYPE svg PUBLIC "-//W3C//DTD SVG 1.1//EN"
 "http://www.w3.org/Graphics/SVG/1.1/DTD/svg11.dtd">
<!-- Generated by graphviz version 2.43.0 (0)
 -->
<!-- Title: unilink/framer/iframer.hpp Pages: 1 -->
<!--zoomable 363 -->
<svg id="main" version="1.1" xmlns="http://www.w3.org/2000/svg" xmlns:xlink="http://www.w3.org/1999/xlink" xml:space="preserve" onload="init(evt)">
<style type="text/css"><![CDATA[
.edge:hover path { stroke: red; }
.edge:hover polygon { stroke: red; fill: red; }
]]></style>
<script type="text/javascript"><![CDATA[
var edges = document.getElementsByTagName('g');
if (edges && edges.length) {
  for (var i=0;i<edges.length;i++) {
    if (edges[i].id.substr(0,4)=='edge') {
      edges[i].setAttribute('class','edge');
    }
  }
}
]]></script>
        <defs>
                <circle id="rim" cx="0" cy="0" r="7"/>
                <circle id="rim2" cx="0" cy="0" r="3.5"/>
                <g id="zoomPlus">
                        <use xlink:href="#rim" fill="#404040">
                                <set attributeName="fill" to="#808080" begin="zoomplus.mouseover" end="zoomplus.mouseout"/>
                        </use>
                        <path d="M-4,0h8M0,-4v8" fill="none" stroke="white" stroke-width="1.5" pointer-events="none"/>
                </g>
                <g id="zoomMin">
                        <use xlink:href="#rim" fill="#404040">
                                <set attributeName="fill" to="#808080" begin="zoomminus.mouseover" end="zoomminus.mouseout"/>
                        </use>
                        <path d="M-4,0h8" fill="none" stroke="white" stroke-width="1.5" pointer-events="none"/>
                </g>
                <g id="dirArrow">
                        <path fill="none" stroke="white" stroke-width="1.5" d="M0,-3.0v7 M-2.5,-0.5L0,-3.0L2.5,-0.5"/>
                </g>
               <g id="resetDef">
                       <use xlink:href="#rim2" fill="#404040">
                               <set attributeName="fill" to="#808080" begin="reset.mouseover" end="reset.mouseout"/>
                       </use>
               </g>
        </defs>

<script type="text/javascript">
var viewWidth = 2084;
var viewHeight = 363;
var sectionId = 'dynsection-1';
</script>
<script xlink:href="svgpan.js"/>
<svg id="graph" class="graph">
<g id="viewport">
<title>unilink/framer/iframer.hpp</title>
<polygon fill="white" stroke="transparent" points="-4,4 -4,-359 2080,-359 2080,4 -4,4"/>
<!-- Node1 -->
<g id="node1" class="node">
<title>Node1</title>
<g id="a_node1"><a xlink:title=" ">
<polygon fill="#bfbfbf" stroke="black" points="577.5,-335.5 577.5,-354.5 722.5,-354.5 722.5,-335.5 577.5,-335.5"/>
<text text-anchor="middle" x="650" y="-342.5" font-family="Helvetica,sans-Serif" font-size="10.00">unilink/framer/iframer.hpp</text>
</a>
</g>
</g>
<!-- Node2 -->
<g id="node2" class="node">
<title>Node2</title>
<g id="a_node2"><a xlink:href="ibuilder_8hpp.html" target="_top" xlink:title=" ">
<polygon fill="white" stroke="black" points="488,-207 488,-226 634,-226 634,-207 488,-207"/>
<text text-anchor="middle" x="561" y="-214" font-family="Helvetica,sans-Serif" font-size="10.00">unilink/builder/ibuilder.hpp</text>
</a>
</g>
</g>
<!-- Node1&#45;&gt;Node2 -->
<g id="edge1" class="edge">
<title>Node1&#45;&gt;Node2</title>
<path fill="none" stroke="midnightblue" d="M648.86,-324.8C647.08,-308.48 642.54,-285.03 631,-268 618.06,-248.89 595.35,-234.5 579.32,-226.06"/>
<polygon fill="midnightblue" stroke="midnightblue" points="645.41,-325.57 649.73,-335.24 652.38,-324.99 645.41,-325.57"/>
</g>
<!-- Node16 -->
<g id="node16" class="node">
<title>Node16</title>
<g id="a_node16"><a xlink:href="line__framer_8hpp.html" target="_top" xlink:title=" ">
<polygon fill="white" stroke="black" points="375.5,-268.5 375.5,-298.5 482.5,-298.5 482.5,-268.5 375.5,-268.5"/>
<text text-anchor="start" x="383.5" y="-286.5" font-family="Helvetica,sans-Serif" font-size="10.00">unilink/framer/line</text>
<text text-anchor="middle" x="429" y="-275.5" font-family="Helvetica,sans-Serif" font-size="10.00">_framer.hpp</text>
</a>
</g>
</g>
<!-- Node1&#45;&gt;Node16 -->
<g id="edge24" class="edge">
<title>Node1&#45;&gt;Node16</title>
<path fill="none" stroke="midnightblue" d="M608.62,-332.86C572.54,-323.14 520.02,-309.01 481.09,-298.52"/>
<polygon fill="midnightblue" stroke="midnightblue" points="607.77,-336.25 618.34,-335.48 609.59,-329.5 607.77,-336.25"/>
</g>
<!-- Node18 -->
<g id="node18" class="node">
<title>Node18</title>
<g id="a_node18"><a xlink:href="packet__framer_8hpp.html" target="_top" xlink:title=" ">
<polygon fill="white" stroke="black" points="500.5,-268.5 500.5,-298.5 621.5,-298.5 621.5,-268.5 500.5,-268.5"/>
<text text-anchor="start" x="508.5" y="-286.5" font-family="Helvetica,sans-Serif" font-size="10.00">unilink/framer/packet</text>
<text text-anchor="middle" x="561" y="-275.5" font-family="Helvetica,sans-Serif" font-size="10.00">_framer.hpp</text>
</a>
</g>
</g>
<!-- Node1&#45;&gt;Node18 -->
<g id="edge27" class="edge">
<title>Node1&#45;&gt;Node18</title>
<path fill="none" stroke="midnightblue" d="M628.67,-329.74C614.52,-320.28 596.05,-307.93 581.98,-298.52"/>
<polygon fill="midnightblue" stroke="midnightblue" points="626.99,-332.83 637.25,-335.48 630.88,-327.01 626.99,-332.83"/>
</g>
<!-- Node20 -->
<g id="node20" class="node">
<title>Node20</title>
<g id="a_node20"><a xlink:href="ichannel_8hpp.html" target="_top" xlink:title=" ">
<polygon fill="white" stroke="black" points="754,-274 754,-293 912,-293 912,-274 754,-274"/>
<text text-anchor="middle" x="833" y="-281" font-family="Helvetica,sans-Serif" font-size="10.00">unilink/wrapper/ichannel.hpp</text>
</a>
</g>
</g>
<!-- Node1&#45;&gt;Node20 -->
<g id="edge30" class="edge">
<title>Node1&#45;&gt;Node20</title>
<path fill="none" stroke="midnightblue" d="M685.74,-332.38C721.31,-320.82 775.05,-303.34 806.83,-293.01"/>
<polygon fill="midnightblue" stroke="midnightblue" points="684.65,-329.05 676.22,-335.48 686.81,-335.71 684.65,-329.05"/>
</g>
<!-- Node29 -->
<g id="node29" class="node">
<title>Node29</title>
<g id="a_node29"><a xlink:href="iserver_8hpp.html" target="_top" xlink:title=" ">
<polygon fill="white" stroke="black" points="1707.5,-274 1707.5,-293 1856.5,-293 1856.5,-274 1707.5,-274"/>
<text text-anchor="middle" x="1782" y="-281" font-family="Helvetica,sans-Serif" font-size="10.00">unilink/wrapper/iserver.hpp</text>
</a>
</g>
</g>
<!-- Node1&#45;&gt;Node29 -->
<g id="edge48" class="edge">
<title>Node1&#45;&gt;Node29</title>
<path fill="none" stroke="midnightblue" d="M732.66,-339.66C944.59,-328.52 1504.83,-299.07 1707.5,-288.42"/>
<polygon fill="midnightblue" stroke="midnightblue" points="732.34,-336.17 722.53,-340.19 732.7,-343.16 732.34,-336.17"/>
</g>
<!-- Node3 -->
<g id="node3" class="node">
<title>Node3</title>
<g id="a_node3"><a xlink:href="serial__builder_8hpp.html" target="_top" xlink:title=" ">
<polygon fill="white" stroke="black" points="351,-134.5 351,-164.5 467,-164.5 467,-134.5 351,-134.5"/>
<text text-anchor="start" x="359" y="-152.5" font-family="Helvetica,sans-Serif" font-size="10.00">unilink/builder/serial</text>
<text text-anchor="middle" x="409" y="-141.5" font-family="Helvetica,sans-Serif" font-size="10.00">_builder.hpp</text>
</a>
</g>
</g>
<!-- Node2&#45;&gt;Node3 -->
<g id="edge2" class="edge">
<title>Node2&#45;&gt;Node3</title>
<path fill="none" stroke="midnightblue" d="M531.57,-202.91C505.83,-191.91 468.49,-175.94 441.8,-164.53"/>
<polygon fill="midnightblue" stroke="midnightblue" points="530.24,-206.15 540.82,-206.87 533,-199.72 530.24,-206.15"/>
</g>
<!-- Node7 -->
<g id="node7" class="node">
<title>Node7</title>
<g id="a_node7"><a xlink:href="unilink_8hpp.html" target="_top" xlink:title=" ">
<polygon fill="white" stroke="black" points="842.5,-6 842.5,-25 949.5,-25 949.5,-6 842.5,-6"/>
<text text-anchor="middle" x="896" y="-13" font-family="Helvetica,sans-Serif" font-size="10.00">unilink/unilink.hpp</text>
</a>
</g>
</g>
<!-- Node2&#45;&gt;Node7 -->
<g id="edge23" class="edge">
<title>Node2&#45;&gt;Node7</title>
<path fill="none" stroke="midnightblue" d="M508.89,-204.95C454.27,-193.63 372.26,-175.83 342,-165 272.19,-140.02 156.53,-121.31 207,-67 217.81,-55.37 682.13,-28.43 842.33,-19.46"/>
<polygon fill="midnightblue" stroke="midnightblue" points="508.25,-208.39 518.75,-206.99 509.67,-201.54 508.25,-208.39"/>
</g>
<!-- Node8 -->
<g id="node8" class="node">
<title>Node8</title>
<g id="a_node8"><a xlink:href="tcp__client__builder_8hpp.html" target="_top" xlink:title=" ">
<polygon fill="white" stroke="black" points="516,-134.5 516,-164.5 624,-164.5 624,-134.5 516,-134.5"/>
<text text-anchor="start" x="524" y="-152.5" font-family="Helvetica,sans-Serif" font-size="10.00">unilink/builder/tcp</text>
<text text-anchor="middle" x="570" y="-141.5" font-family="Helvetica,sans-Serif" font-size="10.00">_client_builder.hpp</text>
</a>
</g>
</g>
<!-- Node2&#45;&gt;Node8 -->
<g id="edge8" class="edge">
<title>Node2&#45;&gt;Node8</title>
<path fill="none" stroke="midnightblue" d="M563.6,-196.74C565.02,-186.49 566.75,-174 568.05,-164.59"/>
<polygon fill="midnightblue" stroke="midnightblue" points="560.12,-196.35 562.21,-206.73 567.05,-197.31 560.12,-196.35"/>
</g>
<!-- Node10 -->
<g id="node10" class="node">
<title>Node10</title>
<g id="a_node10"><a xlink:href="tcp__server__builder_8hpp.html" target="_top" xlink:title=" ">
<polygon fill="white" stroke="black" points="680,-134.5 680,-164.5 792,-164.5 792,-134.5 680,-134.5"/>
<text text-anchor="start" x="688" y="-152.5" font-family="Helvetica,sans-Serif" font-size="10.00">unilink/builder/tcp</text>
<text text-anchor="middle" x="736" y="-141.5" font-family="Helvetica,sans-Serif" font-size="10.00">_server_builder.hpp</text>
</a>
</g>
</g>
<!-- Node2&#45;&gt;Node10 -->
<g id="edge12" class="edge">
<title>Node2&#45;&gt;Node10</title>
<path fill="none" stroke="midnightblue" d="M593.72,-203.35C623.38,-192.33 667.1,-176.09 698.23,-164.53"/>
<polygon fill="midnightblue" stroke="midnightblue" points="592.39,-200.11 584.24,-206.87 594.83,-206.67 592.39,-200.11"/>
</g>
<!-- Node12 -->
<g id="node12" class="node">
<title>Node12</title>
<g id="a_node12"><a xlink:href="udp__builder_8hpp.html" target="_top" xlink:title=" ">
<polygon fill="white" stroke="black" points="848.5,-134.5 848.5,-164.5 955.5,-164.5 955.5,-134.5 848.5,-134.5"/>
<text text-anchor="start" x="856.5" y="-152.5" font-family="Helvetica,sans-Serif" font-size="10.00">unilink/builder/udp</text>
<text text-anchor="middle" x="902" y="-141.5" font-family="Helvetica,sans-Serif" font-size="10.00">_builder.hpp</text>
</a>
</g>
</g>
<!-- Node2&#45;&gt;Node12 -->
<g id="edge16" class="edge">
<title>Node2&#45;&gt;Node12</title>
<path fill="none" stroke="midnightblue" d="M615.83,-205.05C679.77,-192.86 784.78,-172.84 848.26,-160.74"/>
<polygon fill="midnightblue" stroke="midnightblue" points="615.1,-201.62 605.93,-206.94 616.41,-208.5 615.1,-201.62"/>
</g>
<!-- Node14 -->
<g id="node14" class="node">
<title>Node14</title>
<g id="a_node14"><a xlink:href="uds__builder_8hpp.html" target="_top" xlink:title=" ">
<polygon fill="white" stroke="black" points="1407.5,-134.5 1407.5,-164.5 1514.5,-164.5 1514.5,-134.5 1407.5,-134.5"/>
<text text-anchor="start" x="1415.5" y="-152.5" font-family="Helvetica,sans-Serif" font-size="10.00">unilink/builder/uds</text>
<text text-anchor="middle" x="1461" y="-141.5" font-family="Helvetica,sans-Serif" font-size="10.00">_builder.hpp</text>
</a>
</g>
</g>
<!-- Node2&#45;&gt;Node14 -->
<g id="edge20" class="edge">
<title>Node2&#45;&gt;Node14</title>
<path fill="none" stroke="midnightblue" d="M644.47,-210.28C689.13,-207.5 745.06,-204.04 795,-201 1063.43,-184.68 1132.89,-203.76 1399,-165 1401.73,-164.6 1404.53,-164.14 1407.34,-163.64"/>
<polygon fill="midnightblue" stroke="midnightblue" points="644.01,-206.8 634.25,-210.92 644.45,-213.79 644.01,-206.8"/>
</g>
<!-- Node4 -->
<g id="node4" class="node">
<title>Node4</title>
<g id="a_node4"><a xlink:href="serial__builder_8cc.html" target="_top" xlink:title=" ">
<polygon fill="white" stroke="black" points="216,-67.5 216,-97.5 332,-97.5 332,-67.5 216,-67.5"/>
<text text-anchor="start" x="224" y="-85.5" font-family="Helvetica,sans-Serif" font-size="10.00">unilink/builder/serial</text>
<text text-anchor="middle" x="274" y="-74.5" font-family="Helvetica,sans-Serif" font-size="10.00">_builder.cc</text>
</a>
</g>
</g>
<!-- Node3&#45;&gt;Node4 -->
<g id="edge3" class="edge">
<title>Node3&#45;&gt;Node4</title>
<path fill="none" stroke="midnightblue" d="M370.56,-129.99C349.16,-119.69 322.95,-107.07 303.24,-97.58"/>
<polygon fill="midnightblue" stroke="midnightblue" points="369.18,-133.21 379.71,-134.4 372.22,-126.9 369.18,-133.21"/>
</g>
<!-- Node5 -->
<g id="node5" class="node">
<title>Node5</title>
<g id="a_node5"><a xlink:href="unified__builder_8hpp.html" target="_top" xlink:title=" ">
<polygon fill="white" stroke="black" points="510,-67.5 510,-97.5 632,-97.5 632,-67.5 510,-67.5"/>
<text text-anchor="start" x="518" y="-85.5" font-family="Helvetica,sans-Serif" font-size="10.00">unilink/builder/unified</text>
<text text-anchor="middle" x="571" y="-74.5" font-family="Helvetica,sans-Serif" font-size="10.00">_builder.hpp</text>
</a>
</g>
</g>
<!-- Node3&#45;&gt;Node5 -->
<g id="edge4" class="edge">
<title>Node3&#45;&gt;Node5</title>
<path fill="none" stroke="midnightblue" d="M453.75,-130.54C479.67,-120.14 511.84,-107.24 535.92,-97.58"/>
<polygon fill="midnightblue" stroke="midnightblue" points="452.13,-127.42 444.15,-134.4 454.74,-133.92 452.13,-127.42"/>
</g>
<!-- Node3&#45;&gt;Node7 -->
<g id="edge7" class="edge">
<title>Node3&#45;&gt;Node7</title>
<path fill="none" stroke="midnightblue" d="M389.66,-126.29C376.49,-108.41 363.94,-83.6 379,-67 394.43,-49.99 712.8,-28.07 842.11,-19.83"/>
<polygon fill="midnightblue" stroke="midnightblue" points="387.13,-128.74 396.06,-134.45 392.64,-124.42 387.13,-128.74"/>
</g>
<!-- Node6 -->
<g id="node6" class="node">
<title>Node6</title>
<g id="a_node6"><a xlink:href="unified__builder_8cc.html" target="_top" xlink:title=" ">
<polygon fill="white" stroke="black" points="510,-0.5 510,-30.5 632,-30.5 632,-0.5 510,-0.5"/>
<text text-anchor="start" x="518" y="-18.5" font-family="Helvetica,sans-Serif" font-size="10.00">unilink/builder/unified</text>
<text text-anchor="middle" x="571" y="-7.5" font-family="Helvetica,sans-Serif" font-size="10.00">_builder.cc</text>
</a>
</g>
</g>
<!-- Node5&#45;&gt;Node6 -->
<g id="edge5" class="edge">
<title>Node5&#45;&gt;Node6</title>
<path fill="none" stroke="midnightblue" d="M571,-57.11C571,-48.15 571,-38.32 571,-30.58"/>
<polygon fill="midnightblue" stroke="midnightblue" points="567.5,-57.4 571,-67.4 574.5,-57.4 567.5,-57.4"/>
</g>
<!-- Node5&#45;&gt;Node7 -->
<g id="edge6" class="edge">
<title>Node5&#45;&gt;Node7</title>
<path fill="none" stroke="midnightblue" d="M642.23,-67.25C706.72,-54.36 799.6,-35.78 853.28,-25.04"/>
<polygon fill="midnightblue" stroke="midnightblue" points="641.25,-63.88 632.13,-69.27 642.62,-70.74 641.25,-63.88"/>
</g>
<!-- Node8&#45;&gt;Node5 -->
<g id="edge10" class="edge">
<title>Node8&#45;&gt;Node5</title>
<path fill="none" stroke="midnightblue" d="M570.38,-124.11C570.51,-115.15 570.66,-105.32 570.78,-97.58"/>
<polygon fill="midnightblue" stroke="midnightblue" points="566.87,-124.34 570.22,-134.4 573.87,-124.45 566.87,-124.34"/>
</g>
<!-- Node8&#45;&gt;Node7 -->
<g id="edge11" class="edge">
<title>Node8&#45;&gt;Node7</title>
<path fill="none" stroke="midnightblue" d="M598.07,-128.6C611.14,-119.32 626.88,-108.11 641,-98 660.16,-84.28 662.58,-76.81 684,-67 735.09,-43.62 798.24,-30.37 842.27,-23.37"/>
<polygon fill="midnightblue" stroke="midnightblue" points="596.04,-125.74 589.92,-134.38 600.1,-131.45 596.04,-125.74"/>
</g>
<!-- Node9 -->
<g id="node9" class="node">
<title>Node9</title>
<g id="a_node9"><a xlink:href="tcp__client__builder_8cc.html" target="_top" xlink:title=" ">
<polygon fill="white" stroke="black" points="388,-67.5 388,-97.5 492,-97.5 492,-67.5 388,-67.5"/>
<text text-anchor="start" x="396" y="-85.5" font-family="Helvetica,sans-Serif" font-size="10.00">unilink/builder/tcp</text>
<text text-anchor="middle" x="440" y="-74.5" font-family="Helvetica,sans-Serif" font-size="10.00">_client_builder.cc</text>
</a>
</g>
</g>
<!-- Node8&#45;&gt;Node9 -->
<g id="edge9" class="edge">
<title>Node8&#45;&gt;Node9</title>
<path fill="none" stroke="midnightblue" d="M532.71,-129.85C512.15,-119.58 487.05,-107.03 468.15,-97.58"/>
<polygon fill="midnightblue" stroke="midnightblue" points="531.28,-133.05 541.79,-134.4 534.41,-126.79 531.28,-133.05"/>
</g>
<!-- Node10&#45;&gt;Node5 -->
<g id="edge14" class="edge">
<title>Node10&#45;&gt;Node5</title>
<path fill="none" stroke="midnightblue" d="M690.77,-130.68C664.31,-120.26 631.37,-107.28 606.73,-97.58"/>
<polygon fill="midnightblue" stroke="midnightblue" points="689.61,-133.99 700.2,-134.4 692.18,-127.47 689.61,-133.99"/>
</g>
<!-- Node10&#45;&gt;Node7 -->
<g id="edge15" class="edge">
<title>Node10&#45;&gt;Node7</title>
<path fill="none" stroke="midnightblue" d="M735.75,-124.05C736.85,-106.21 741.15,-82.54 755,-67 777.23,-42.06 812.67,-29.43 842.46,-23.04"/>
<polygon fill="midnightblue" stroke="midnightblue" points="732.25,-124.16 735.42,-134.27 739.24,-124.39 732.25,-124.16"/>
</g>
<!-- Node11 -->
<g id="node11" class="node">
<title>Node11</title>
<g id="a_node11"><a xlink:href="tcp__server__builder_8cc.html" target="_top" xlink:title=" ">
<polygon fill="white" stroke="black" points="764,-67.5 764,-97.5 868,-97.5 868,-67.5 764,-67.5"/>
<text text-anchor="start" x="772" y="-85.5" font-family="Helvetica,sans-Serif" font-size="10.00">unilink/builder/tcp</text>
<text text-anchor="middle" x="816" y="-74.5" font-family="Helvetica,sans-Serif" font-size="10.00">_server_builder.cc</text>
</a>
</g>
</g>
<!-- Node10&#45;&gt;Node11 -->
<g id="edge13" class="edge">
<title>Node10&#45;&gt;Node11</title>
<path fill="none" stroke="midnightblue" d="M761.37,-127.88C773.53,-118.01 787.78,-106.43 798.68,-97.58"/>
<polygon fill="midnightblue" stroke="midnightblue" points="758.91,-125.37 753.36,-134.4 763.33,-130.81 758.91,-125.37"/>
</g>
<!-- Node12&#45;&gt;Node5 -->
<g id="edge18" class="edge">
<title>Node12&#45;&gt;Node5</title>
<path fill="none" stroke="midnightblue" d="M838.43,-136.02C778.95,-124.34 690.71,-107.01 632.06,-95.49"/>
<polygon fill="midnightblue" stroke="midnightblue" points="837.96,-139.49 848.45,-137.98 839.31,-132.62 837.96,-139.49"/>
</g>
<!-- Node12&#45;&gt;Node7 -->
<g id="edge19" class="edge">
<title>Node12&#45;&gt;Node7</title>
<path fill="none" stroke="midnightblue" d="M907.36,-124.08C910.2,-107.86 912.6,-86.12 910,-67 907.96,-52.04 902.68,-35.24 899.22,-25.29"/>
<polygon fill="midnightblue" stroke="midnightblue" points="903.84,-123.85 905.39,-134.33 910.72,-125.17 903.84,-123.85"/>
</g>
<!-- Node13 -->
<g id="node13" class="node">
<title>Node13</title>
<g id="a_node13"><a xlink:href="udp__builder_8cc.html" target="_top" xlink:title=" ">
<polygon fill="white" stroke="black" points="962.5,-67.5 962.5,-97.5 1069.5,-97.5 1069.5,-67.5 962.5,-67.5"/>
<text text-anchor="start" x="970.5" y="-85.5" font-family="Helvetica,sans-Serif" font-size="10.00">unilink/builder/udp</text>
<text text-anchor="middle" x="1016" y="-74.5" font-family="Helvetica,sans-Serif" font-size="10.00">_builder.cc</text>
</a>
</g>
</g>
<!-- Node12&#45;&gt;Node13 -->
<g id="edge17" class="edge">
<title>Node12&#45;&gt;Node13</title>
<path fill="none" stroke="midnightblue" d="M935.68,-129.3C953.52,-119.12 975.04,-106.85 991.31,-97.58"/>
<polygon fill="midnightblue" stroke="midnightblue" points="933.69,-126.4 926.74,-134.4 937.16,-132.48 933.69,-126.4"/>
</g>
<!-- Node14&#45;&gt;Node7 -->
<g id="edge22" class="edge">
<title>Node14&#45;&gt;Node7</title>
<path fill="none" stroke="midnightblue" d="M1462.35,-124.12C1461.94,-105.58 1458.02,-80.97 1442,-67 1405.4,-35.1 1080.42,-21.97 949.9,-17.96"/>
<polygon fill="midnightblue" stroke="midnightblue" points="1458.85,-124.17 1462.25,-134.2 1465.85,-124.24 1458.85,-124.17"/>
</g>
<!-- Node15 -->
<g id="node15" class="node">
<title>Node15</title>
<g id="a_node15"><a xlink:href="uds__builder_8cc.html" target="_top" xlink:title=" ">
<polygon fill="white" stroke="black" points="1325.5,-67.5 1325.5,-97.5 1432.5,-97.5 1432.5,-67.5 1325.5,-67.5"/>
<text text-anchor="start" x="1333.5" y="-85.5" font-family="Helvetica,sans-Serif" font-size="10.00">unilink/builder/uds</text>
<text text-anchor="middle" x="1379" y="-74.5" font-family="Helvetica,sans-Serif" font-size="10.00">_builder.cc</text>
</a>
</g>
</g>
<!-- Node14&#45;&gt;Node15 -->
<g id="edge21" class="edge">
<title>Node14&#45;&gt;Node15</title>
<path fill="none" stroke="midnightblue" d="M1435.35,-128.17C1422.81,-118.23 1408.03,-106.51 1396.76,-97.58"/>
<polygon fill="midnightblue" stroke="midnightblue" points="1433.2,-130.93 1443.21,-134.4 1437.54,-125.44 1433.2,-130.93"/>
</g>
<!-- Node16&#45;&gt;Node2 -->
<g id="edge25" class="edge">
<title>Node16&#45;&gt;Node2</title>
<path fill="none" stroke="midnightblue" d="M466.64,-263.97C491.99,-251.48 524.25,-235.6 543.72,-226.01"/>
<polygon fill="midnightblue" stroke="midnightblue" points="465.07,-260.84 457.64,-268.4 468.16,-267.12 465.07,-260.84"/>
</g>
<!-- Node17 -->
<g id="node17" class="node">
<title>Node17</title>
<g id="a_node17"><a xlink:href="line__framer_8cc.html" target="_top" xlink:title=" ">
<polygon fill="white" stroke="black" points="83.5,-201.5 83.5,-231.5 190.5,-231.5 190.5,-201.5 83.5,-201.5"/>
<text text-anchor="start" x="91.5" y="-219.5" font-family="Helvetica,sans-Serif" font-size="10.00">unilink/framer/line</text>
<text text-anchor="middle" x="137" y="-208.5" font-family="Helvetica,sans-Serif" font-size="10.00">_framer.cc</text>
</a>
</g>
</g>
<!-- Node16&#45;&gt;Node17 -->
<g id="edge26" class="edge">
<title>Node16&#45;&gt;Node17</title>
<path fill="none" stroke="midnightblue" d="M365.18,-268.73C318.99,-258.71 255.09,-244.72 199,-232 196.3,-231.39 193.54,-230.76 190.76,-230.12"/>
<polygon fill="midnightblue" stroke="midnightblue" points="364.53,-272.17 375.05,-270.87 366.02,-265.33 364.53,-272.17"/>
</g>
<!-- Node18&#45;&gt;Node2 -->
<g id="edge28" class="edge">
<title>Node18&#45;&gt;Node2</title>
<path fill="none" stroke="midnightblue" d="M561,-258.25C561,-247.02 561,-234.38 561,-226.19"/>
<polygon fill="midnightblue" stroke="midnightblue" points="557.5,-258.4 561,-268.4 564.5,-258.4 557.5,-258.4"/>
</g>
<!-- Node19 -->
<g id="node19" class="node">
<title>Node19</title>
<g id="a_node19"><a xlink:href="packet__framer_8cc.html" target="_top" xlink:title=" ">
<polygon fill="white" stroke="black" points="208.5,-201.5 208.5,-231.5 329.5,-231.5 329.5,-201.5 208.5,-201.5"/>
<text text-anchor="start" x="216.5" y="-219.5" font-family="Helvetica,sans-Serif" font-size="10.00">unilink/framer/packet</text>
<text text-anchor="middle" x="269" y="-208.5" font-family="Helvetica,sans-Serif" font-size="10.00">_framer.cc</text>
</a>
</g>
</g>
<!-- Node18&#45;&gt;Node19 -->
<g id="edge29" class="edge">
<title>Node18&#45;&gt;Node19</title>
<path fill="none" stroke="midnightblue" d="M490.58,-266.82C441.44,-255.88 376.53,-241.44 329.68,-231.01"/>
<polygon fill="midnightblue" stroke="midnightblue" points="489.98,-270.28 500.5,-269.03 491.5,-263.44 489.98,-270.28"/>
</g>
<!-- Node20&#45;&gt;Node7 -->
<g id="edge31" class="edge">
<title>Node20&#45;&gt;Node7</title>
<path fill="none" stroke="midnightblue" d="M798.06,-270.31C742.9,-248.82 644.48,-200.15 671,-134 698.26,-66 785.01,-36.76 842.48,-24.62"/>
<polygon fill="midnightblue" stroke="midnightblue" points="796.9,-273.61 807.49,-273.88 799.38,-267.07 796.9,-273.61"/>
</g>
<!-- Node21 -->
<g id="node21" class="node">
<title>Node21</title>
<g id="a_node21"><a xlink:href="wrapper_2serial_2serial_8hpp.html" target="_top" xlink:title=" ">
<polygon fill="white" stroke="black" points="348,-201.5 348,-231.5 470,-231.5 470,-201.5 348,-201.5"/>
<text text-anchor="start" x="356" y="-219.5" font-family="Helvetica,sans-Serif" font-size="10.00">unilink/wrapper/serial</text>
<text text-anchor="middle" x="409" y="-208.5" font-family="Helvetica,sans-Serif" font-size="10.00">/serial.hpp</text>
</a>
</g>
</g>
<!-- Node20&#45;&gt;Node21 -->
<g id="edge32" class="edge">
<title>Node20&#45;&gt;Node21</title>
<path fill="none" stroke="midnightblue" d="M753.94,-272.66C682.05,-263.37 573.13,-248.45 479,-232 476.07,-231.49 473.07,-230.94 470.04,-230.38"/>
<polygon fill="midnightblue" stroke="midnightblue" points="753.91,-276.19 764.27,-273.99 754.8,-269.24 753.91,-276.19"/>
</g>
<!-- Node23 -->
<g id="node23" class="node">
<title>Node23</title>
<g id="a_node23"><a xlink:href="wrapper_2tcp__client_2tcp__client_8hpp.html" target="_top" xlink:title=" ">
<polygon fill="white" stroke="black" points="975,-201.5 975,-231.5 1095,-231.5 1095,-201.5 975,-201.5"/>
<text text-anchor="start" x="983" y="-219.5" font-family="Helvetica,sans-Serif" font-size="10.00">unilink/wrapper/tcp</text>
<text text-anchor="middle" x="1035" y="-208.5" font-family="Helvetica,sans-Serif" font-size="10.00">_client/tcp_client.hpp</text>
</a>
</g>
</g>
<!-- Node20&#45;&gt;Node23 -->
<g id="edge36" class="edge">
<title>Node20&#45;&gt;Node23</title>
<path fill="none" stroke="midnightblue" d="M869.44,-270.77C903.69,-259.75 955,-243.24 991.41,-231.53"/>
<polygon fill="midnightblue" stroke="midnightblue" points="868.27,-267.47 859.82,-273.87 870.42,-274.14 868.27,-267.47"/>
</g>
<!-- Node25 -->
<g id="node25" class="node">
<title>Node25</title>
<g id="a_node25"><a xlink:href="wrapper_2udp_2udp_8hpp.html" target="_top" xlink:title=" ">
<polygon fill="white" stroke="black" points="803.5,-201.5 803.5,-231.5 916.5,-231.5 916.5,-201.5 803.5,-201.5"/>
<text text-anchor="start" x="811.5" y="-219.5" font-family="Helvetica,sans-Serif" font-size="10.00">unilink/wrapper/udp</text>
<text text-anchor="middle" x="860" y="-208.5" font-family="Helvetica,sans-Serif" font-size="10.00">/udp.hpp</text>
</a>
</g>
</g>
<!-- Node20&#45;&gt;Node25 -->
<g id="edge40" class="edge">
<title>Node20&#45;&gt;Node25</title>
<path fill="none" stroke="midnightblue" d="M840.52,-264.39C844.83,-254.02 850.15,-241.2 854.15,-231.59"/>
<polygon fill="midnightblue" stroke="midnightblue" points="837.25,-263.16 836.64,-273.73 843.71,-265.84 837.25,-263.16"/>
</g>
<!-- Node27 -->
<g id="node27" class="node">
<title>Node27</title>
<g id="a_node27"><a xlink:href="wrapper_2uds__client_2uds__client_8hpp.html" target="_top" xlink:title=" ">
<polygon fill="white" stroke="black" points="1334,-201.5 1334,-231.5 1456,-231.5 1456,-201.5 1334,-201.5"/>
<text text-anchor="start" x="1342" y="-219.5" font-family="Helvetica,sans-Serif" font-size="10.00">unilink/wrapper/uds</text>
<text text-anchor="middle" x="1395" y="-208.5" font-family="Helvetica,sans-Serif" font-size="10.00">_client/uds_client.hpp</text>
</a>
</g>
</g>
<!-- Node20&#45;&gt;Node27 -->
<g id="edge44" class="edge">
<title>Node20&#45;&gt;Node27</title>
<path fill="none" stroke="midnightblue" d="M916.85,-272.8C1030.99,-259.6 1232.61,-236.28 1333.66,-224.59"/>
<polygon fill="midnightblue" stroke="midnightblue" points="916.29,-269.34 906.76,-273.97 917.1,-276.3 916.29,-269.34"/>
</g>
<!-- Node21&#45;&gt;Node3 -->
<g id="edge33" class="edge">
<title>Node21&#45;&gt;Node3</title>
<path fill="none" stroke="midnightblue" d="M409,-191.11C409,-182.15 409,-172.32 409,-164.58"/>
<polygon fill="midnightblue" stroke="midnightblue" points="405.5,-191.4 409,-201.4 412.5,-191.4 405.5,-191.4"/>
</g>
<!-- Node21&#45;&gt;Node7 -->
<g id="edge34" class="edge">
<title>Node21&#45;&gt;Node7</title>
<path fill="none" stroke="midnightblue" d="M339.57,-198.89C301.61,-188.93 259.11,-176.1 243,-165 202.39,-137.03 157.4,-103.09 191,-67 196.55,-61.04 678.65,-30.18 842.33,-19.86"/>
<polygon fill="midnightblue" stroke="midnightblue" points="339.06,-202.37 349.62,-201.48 340.81,-195.59 339.06,-202.37"/>
</g>
<!-- Node22 -->
<g id="node22" class="node">
<title>Node22</title>
<g id="a_node22"><a xlink:href="wrapper_2serial_2serial_8cc.html" target="_top" xlink:title=" ">
<polygon fill="white" stroke="black" points="0,-134.5 0,-164.5 122,-164.5 122,-134.5 0,-134.5"/>
<text text-anchor="start" x="8" y="-152.5" font-family="Helvetica,sans-Serif" font-size="10.00">unilink/wrapper/serial</text>
<text text-anchor="middle" x="61" y="-141.5" font-family="Helvetica,sans-Serif" font-size="10.00">/serial.cc</text>
</a>
</g>
</g>
<!-- Node21&#45;&gt;Node22 -->
<g id="edge35" class="edge">
<title>Node21&#45;&gt;Node22</title>
<path fill="none" stroke="midnightblue" d="M338.05,-200.85C247.37,-183.55 223.02,-181.13 136,-165 131.57,-164.18 126.99,-163.32 122.38,-162.45"/>
<polygon fill="midnightblue" stroke="midnightblue" points="337.46,-204.3 347.94,-202.74 338.77,-197.42 337.46,-204.3"/>
</g>
<!-- Node23&#45;&gt;Node7 -->
<g id="edge38" class="edge">
<title>Node23&#45;&gt;Node7</title>
<path fill="none" stroke="midnightblue" d="M1069.52,-195.43C1080.01,-187.42 1090.27,-177.17 1096,-165 1108.05,-139.37 1079.82,-67.84 1079,-67 1045.33,-32.62 990.54,-21.03 949.68,-17.42"/>
<polygon fill="midnightblue" stroke="midnightblue" points="1067.28,-192.73 1061.14,-201.37 1071.32,-198.44 1067.28,-192.73"/>
</g>
<!-- Node23&#45;&gt;Node8 -->
<g id="edge37" class="edge">
<title>Node23&#45;&gt;Node8</title>
<path fill="none" stroke="midnightblue" d="M964.73,-205.85C891.4,-195.76 773.12,-179.41 671,-165 655.83,-162.86 639.38,-160.51 624.24,-158.34"/>
<polygon fill="midnightblue" stroke="midnightblue" points="964.38,-209.34 974.77,-207.23 965.34,-202.4 964.38,-209.34"/>
</g>
<!-- Node24 -->
<g id="node24" class="node">
<title>Node24</title>
<g id="a_node24"><a xlink:href="wrapper_2tcp__client_2tcp__client_8cc.html" target="_top" xlink:title=" ">
<polygon fill="white" stroke="black" points="1143.5,-134.5 1143.5,-164.5 1256.5,-164.5 1256.5,-134.5 1143.5,-134.5"/>
<text text-anchor="start" x="1151.5" y="-152.5" font-family="Helvetica,sans-Serif" font-size="10.00">unilink/wrapper/tcp</text>
<text text-anchor="middle" x="1200" y="-141.5" font-family="Helvetica,sans-Serif" font-size="10.00">_client/tcp_client.cc</text>
</a>
</g>
</g>
<!-- Node23&#45;&gt;Node24 -->
<g id="edge39" class="edge">
<title>Node23&#45;&gt;Node24</title>
<path fill="none" stroke="midnightblue" d="M1080.23,-197.68C1106.69,-187.26 1139.63,-174.28 1164.27,-164.58"/>
<polygon fill="midnightblue" stroke="midnightblue" points="1078.82,-194.47 1070.8,-201.4 1081.39,-200.99 1078.82,-194.47"/>
</g>
<!-- Node25&#45;&gt;Node7 -->
<g id="edge42" class="edge">
<title>Node25&#45;&gt;Node7</title>
<path fill="none" stroke="midnightblue" d="M846.59,-192.19C838.83,-175.54 832.04,-152.85 840,-134 848.93,-112.86 865.72,-117.98 877,-98 890.57,-73.96 894.46,-40.71 895.57,-25.17"/>
<polygon fill="midnightblue" stroke="midnightblue" points="843.52,-193.88 851.16,-201.22 849.76,-190.72 843.52,-193.88"/>
</g>
<!-- Node25&#45;&gt;Node12 -->
<g id="edge41" class="edge">
<title>Node25&#45;&gt;Node12</title>
<path fill="none" stroke="midnightblue" d="M874.62,-192.87C880.7,-183.46 887.57,-172.83 892.9,-164.58"/>
<polygon fill="midnightblue" stroke="midnightblue" points="871.6,-191.1 869.11,-201.4 877.48,-194.9 871.6,-191.1"/>
</g>
<!-- Node26 -->
<g id="node26" class="node">
<title>Node26</title>
<g id="a_node26"><a xlink:href="wrapper_2udp_2udp_8cc.html" target="_top" xlink:title=" ">
<polygon fill="white" stroke="black" points="973.5,-134.5 973.5,-164.5 1086.5,-164.5 1086.5,-134.5 973.5,-134.5"/>
<text text-anchor="start" x="981.5" y="-152.5" font-family="Helvetica,sans-Serif" font-size="10.00">unilink/wrapper/udp</text>
<text text-anchor="middle" x="1030" y="-141.5" font-family="Helvetica,sans-Serif" font-size="10.00">/udp.cc</text>
</a>
</g>
</g>
<!-- Node25&#45;&gt;Node26 -->
<g id="edge43" class="edge">
<title>Node25&#45;&gt;Node26</title>
<path fill="none" stroke="midnightblue" d="M906.24,-197.82C933.57,-187.37 967.69,-174.32 993.18,-164.58"/>
<polygon fill="midnightblue" stroke="midnightblue" points="904.98,-194.56 896.89,-201.4 907.48,-201.09 904.98,-194.56"/>
</g>
<!-- Node27&#45;&gt;Node7 -->
<g id="edge46" class="edge">
<title>Node27&#45;&gt;Node7</title>
<path fill="none" stroke="midnightblue" d="M1465.99,-203.98C1488.3,-196.64 1510.6,-184.64 1524,-165 1555.72,-118.51 1466.84,-68.43 1464,-67 1374.72,-22.26 1073.39,-16.67 949.68,-16.31"/>
<polygon fill="midnightblue" stroke="midnightblue" points="1464.69,-200.71 1456.11,-206.94 1466.69,-207.42 1464.69,-200.71"/>
</g>
<!-- Node27&#45;&gt;Node14 -->
<g id="edge45" class="edge">
<title>Node27&#45;&gt;Node14</title>
<path fill="none" stroke="midnightblue" d="M1416.51,-194.31C1426.41,-184.56 1437.89,-173.26 1446.71,-164.58"/>
<polygon fill="midnightblue" stroke="midnightblue" points="1413.99,-191.89 1409.32,-201.4 1418.9,-196.87 1413.99,-191.89"/>
</g>
<!-- Node28 -->
<g id="node28" class="node">
<title>Node28</title>
<g id="a_node28"><a xlink:href="wrapper_2uds__client_2uds__client_8cc.html" target="_top" xlink:title=" ">
<polygon fill="white" stroke="black" points="1274.5,-134.5 1274.5,-164.5 1389.5,-164.5 1389.5,-134.5 1274.5,-134.5"/>
<text text-anchor="start" x="1282.5" y="-152.5" font-family="Helvetica,sans-Serif" font-size="10.00">unilink/wrapper/uds</text>
<text text-anchor="middle" x="1332" y="-141.5" font-family="Helvetica,sans-Serif" font-size="10.00">_client/uds_client.cc</text>
</a>
</g>
</g>
<!-- Node27&#45;&gt;Node28 -->
<g id="edge47" class="edge">
<title>Node27&#45;&gt;Node28</title>
<path fill="none" stroke="midnightblue" d="M1374.19,-194.02C1364.8,-184.34 1353.98,-173.17 1345.64,-164.58"/>
<polygon fill="midnightblue" stroke="midnightblue" points="1371.86,-196.65 1381.33,-201.4 1376.88,-191.78 1371.86,-196.65"/>
</g>
<!-- Node29&#45;&gt;Node7 -->
<g id="edge49" class="edge">
<title>Node29&#45;&gt;Node7</title>
<path fill="none" stroke="midnightblue" d="M1807.07,-268.59C1820.92,-259.75 1837.41,-247.13 1848,-232 1873.54,-195.51 1897.28,-168.42 1869,-134 1810.09,-62.31 1145.18,-27.48 949.72,-18.75"/>
<polygon fill="midnightblue" stroke="midnightblue" points="1805.16,-265.65 1798.44,-273.84 1808.8,-271.63 1805.16,-265.65"/>
</g>
<!-- Node30 -->
<g id="node30" class="node">
<title>Node30</title>
<g id="a_node30"><a xlink:href="wrapper_2tcp__server_2tcp__server_8hpp.html" target="_top" xlink:title=" ">
<polygon fill="white" stroke="black" points="1538.5,-201.5 1538.5,-231.5 1665.5,-231.5 1665.5,-201.5 1538.5,-201.5"/>
<text text-anchor="start" x="1546.5" y="-219.5" font-family="Helvetica,sans-Serif" font-size="10.00">unilink/wrapper/tcp</text>
<text text-anchor="middle" x="1602" y="-208.5" font-family="Helvetica,sans-Serif" font-size="10.00">_server/tcp_server.hpp</text>
</a>
</g>
</g>
<!-- Node29&#45;&gt;Node30 -->
<g id="edge50" class="edge">
<title>Node29&#45;&gt;Node30</title>
<path fill="none" stroke="midnightblue" d="M1748.34,-270.35C1717.83,-259.33 1672.87,-243.09 1640.85,-231.53"/>
<polygon fill="midnightblue" stroke="midnightblue" points="1747.5,-273.76 1758.1,-273.87 1749.88,-267.18 1747.5,-273.76"/>
</g>
<!-- Node32 -->
<g id="node32" class="node">
<title>Node32</title>
<g id="a_node32"><a xlink:href="udp__server_8hpp.html" target="_top" xlink:title=" ">
<polygon fill="white" stroke="black" points="1725.5,-201.5 1725.5,-231.5 1838.5,-231.5 1838.5,-201.5 1725.5,-201.5"/>
<text text-anchor="start" x="1733.5" y="-219.5" font-family="Helvetica,sans-Serif" font-size="10.00">unilink/wrapper/udp</text>
<text text-anchor="middle" x="1782" y="-208.5" font-family="Helvetica,sans-Serif" font-size="10.00">/udp_server.hpp</text>
</a>
</g>
</g>
<!-- Node29&#45;&gt;Node32 -->
<g id="edge54" class="edge">
<title>Node29&#45;&gt;Node32</title>
<path fill="none" stroke="midnightblue" d="M1782,-263.41C1782,-253.22 1782,-240.9 1782,-231.59"/>
<polygon fill="midnightblue" stroke="midnightblue" points="1778.5,-263.73 1782,-273.73 1785.5,-263.73 1778.5,-263.73"/>
</g>
<!-- Node34 -->
<g id="node34" class="node">
<title>Node34</title>
<g id="a_node34"><a xlink:href="wrapper_2uds__server_2uds__server_8hpp.html" target="_top" xlink:title=" ">
<polygon fill="white" stroke="black" points="1916.5,-201.5 1916.5,-231.5 2045.5,-231.5 2045.5,-201.5 1916.5,-201.5"/>
<text text-anchor="start" x="1924.5" y="-219.5" font-family="Helvetica,sans-Serif" font-size="10.00">unilink/wrapper/uds</text>
<text text-anchor="middle" x="1981" y="-208.5" font-family="Helvetica,sans-Serif" font-size="10.00">_server/uds_server.hpp</text>
</a>
</g>
</g>
<!-- Node29&#45;&gt;Node34 -->
<g id="edge57" class="edge">
<title>Node29&#45;&gt;Node34</title>
<path fill="none" stroke="midnightblue" d="M1818.33,-270.63C1852.07,-259.61 1902.34,-243.19 1938.05,-231.53"/>
<polygon fill="midnightblue" stroke="midnightblue" points="1816.84,-267.44 1808.43,-273.87 1819.02,-274.09 1816.84,-267.44"/>
</g>
<!-- Node30&#45;&gt;Node7 -->
<g id="edge52" class="edge">
<title>Node30&#45;&gt;Node7</title>
<path fill="none" stroke="midnightblue" d="M1593.01,-191.67C1578.7,-157.42 1547.21,-95.29 1498,-67 1451.06,-40.01 1088.14,-23.71 949.55,-18.41"/>
<polygon fill="midnightblue" stroke="midnightblue" points="1589.92,-193.37 1596.9,-201.34 1596.42,-190.75 1589.92,-193.37"/>
</g>
<!-- Node30&#45;&gt;Node10 -->
<g id="edge51" class="edge">
<title>Node30&#45;&gt;Node10</title>
<path fill="none" stroke="midnightblue" d="M1528.1,-207.02C1507.68,-204.86 1485.49,-202.67 1465,-201 1187.69,-178.35 1116.9,-192.23 840,-165 824.4,-163.47 807.54,-161.33 792.03,-159.16"/>
<polygon fill="midnightblue" stroke="midnightblue" points="1527.97,-210.53 1538.28,-208.12 1528.71,-203.57 1527.97,-210.53"/>
</g>
<!-- Node31 -->
<g id="node31" class="node">
<title>Node31</title>
<g id="a_node31"><a xlink:href="wrapper_2tcp__server_2tcp__server_8cc.html" target="_top" xlink:title=" ">
<polygon fill="white" stroke="black" points="1609.5,-134.5 1609.5,-164.5 1728.5,-164.5 1728.5,-134.5 1609.5,-134.5"/>
<text text-anchor="start" x="1617.5" y="-152.5" font-family="Helvetica,sans-Serif" font-size="10.00">unilink/wrapper/tcp</text>
<text text-anchor="middle" x="1669" y="-141.5" font-family="Helvetica,sans-Serif" font-size="10.00">_server/tcp_server.cc</text>
</a>
</g>
</g>
<!-- Node30&#45;&gt;Node31 -->
<g id="edge53" class="edge">
<title>Node30&#45;&gt;Node31</title>
<path fill="none" stroke="midnightblue" d="M1623.84,-194.31C1633.89,-184.56 1645.54,-173.26 1654.49,-164.58"/>
<polygon fill="midnightblue" stroke="midnightblue" points="1621.28,-191.92 1616.54,-201.4 1626.15,-196.94 1621.28,-191.92"/>
</g>
<!-- Node32&#45;&gt;Node12 -->
<g id="edge55" class="edge">
<title>Node32&#45;&gt;Node12</title>
<path fill="none" stroke="midnightblue" d="M1715.39,-205.59C1702.04,-203.85 1688.09,-202.22 1675,-201 1360.4,-171.76 1277.94,-208.6 965,-165 962,-164.58 958.93,-164.09 955.84,-163.55"/>
<polygon fill="midnightblue" stroke="midnightblue" points="1715.09,-209.08 1725.46,-206.93 1716.01,-202.14 1715.09,-209.08"/>
</g>
<!-- Node33 -->
<g id="node33" class="node">
<title>Node33</title>
<g id="a_node33"><a xlink:href="udp__server_8cc.html" target="_top" xlink:title=" ">
<polygon fill="white" stroke="black" points="1746.5,-134.5 1746.5,-164.5 1859.5,-164.5 1859.5,-134.5 1746.5,-134.5"/>
<text text-anchor="start" x="1754.5" y="-152.5" font-family="Helvetica,sans-Serif" font-size="10.00">unilink/wrapper/udp</text>
<text text-anchor="middle" x="1803" y="-141.5" font-family="Helvetica,sans-Serif" font-size="10.00">/udp_server.cc</text>
</a>
</g>
</g>
<!-- Node32&#45;&gt;Node33 -->
<g id="edge56" class="edge">
<title>Node32&#45;&gt;Node33</title>
<path fill="none" stroke="midnightblue" d="M1789.69,-191.7C1792.63,-182.59 1795.89,-172.49 1798.45,-164.58"/>
<polygon fill="midnightblue" stroke="midnightblue" points="1786.3,-190.8 1786.56,-201.4 1792.96,-192.96 1786.3,-190.8"/>
</g>
<!-- Node34&#45;&gt;Node7 -->
<g id="edge59" class="edge">
<title>Node34&#45;&gt;Node7</title>
<path fill="none" stroke="midnightblue" d="M1963.75,-193.41C1957.44,-184.8 1950.5,-174.69 1945,-165 1921.52,-123.64 1941.16,-94 1902,-67 1862.55,-39.79 1152.77,-22.15 949.8,-17.64"/>
<polygon fill="midnightblue" stroke="midnightblue" points="1960.98,-195.54 1969.78,-201.44 1966.58,-191.34 1960.98,-195.54"/>
</g>
<!-- Node34&#45;&gt;Node14 -->
<g id="edge58" class="edge">
<title>Node34&#45;&gt;Node14</title>
<path fill="none" stroke="midnightblue" d="M1906.46,-206.18C1800.33,-192.92 1608.21,-168.9 1514.84,-157.23"/>
<polygon fill="midnightblue" stroke="midnightblue" points="1906.1,-209.66 1916.45,-207.43 1906.97,-202.72 1906.1,-209.66"/>
</g>
<!-- Node35 -->
<g id="node35" class="node">
<title>Node35</title>
<g id="a_node35"><a xlink:href="wrapper_2uds__server_2uds__server_8cc.html" target="_top" xlink:title=" ">
<polygon fill="white" stroke="black" points="1954,-134.5 1954,-164.5 2076,-164.5 2076,-134.5 1954,-134.5"/>
<text text-anchor="start" x="1962" y="-152.5" font-family="Helvetica,sans-Serif" font-size="10.00">unilink/wrapper/uds</text>
<text text-anchor="middle" x="2015" y="-141.5" font-family="Helvetica,sans-Serif" font-size="10.00">_server/uds_server.cc</text>
</a>
</g>
</g>
<!-- Node34&#45;&gt;Node35 -->
<g id="edge60" class="edge">
<title>Node34&#45;&gt;Node35</title>
<path fill="none" stroke="midnightblue" d="M1993.14,-192.28C1997.99,-183.02 2003.41,-172.66 2007.64,-164.58"/>
<polygon fill="midnightblue" stroke="midnightblue" points="1989.91,-190.91 1988.38,-201.4 1996.11,-194.16 1989.91,-190.91"/>
</g>
</g>
</svg>
        <g id="navigator" transform="translate(0 0)" fill="#404254">
                <rect fill="#f2f5e9" fill-opacity="0.5" stroke="#606060" stroke-width=".5" x="0" y="0" width="60" height="60"/>
                <use id="zoomplus" xlink:href="#zoomPlus" x="17" y="9" onmousedown="handleZoom(evt,'in')"/>
                <use id="zoomminus" xlink:href="#zoomMin" x="42" y="9" onmousedown="handleZoom(evt,'out')"/>
                <use id="reset" xlink:href="#resetDef" x="30" y="36" onmousedown="handleReset()"/>
                <g id="arrowUp" xlink:href="#dirArrow" transform="translate(30 24)" onmousedown="handlePan(0,-1)">
                  <use xlink:href="#rim" fill="#404040">
                        <set attributeName="fill" to="#808080" begin="arrowUp.mouseover" end="arrowUp.mouseout"/>
                  </use>
                  <path fill="none" stroke="white" stroke-width="1.5" d="M0,-3.0v7 M-2.5,-0.5L0,-3.0L2.5,-0.5"/>
                </g>
                <g id="arrowRight" xlink:href="#dirArrow" transform="rotate(90) translate(36 -43)" onmousedown="handlePan(1,0)">
                  <use xlink:href="#rim" fill="#404040">
                        <set attributeName="fill" to="#808080" begin="arrowRight.mouseover" end="arrowRight.mouseout"/>
                  </use>
                  <path fill="none" stroke="white" stroke-width="1.5" d="M0,-3.0v7 M-2.5,-0.5L0,-3.0L2.5,-0.5"/>
                </g>
                <g id="arrowDown" xlink:href="#dirArrow" transform="rotate(180) translate(-30 -48)" onmousedown="handlePan(0,1)">
                  <use xlink:href="#rim" fill="#404040">
                        <set attributeName="fill" to="#808080" begin="arrowDown.mouseover" end="arrowDown.mouseout"/>
                  </use>
                  <path fill="none" stroke="white" stroke-width="1.5" d="M0,-3.0v7 M-2.5,-0.5L0,-3.0L2.5,-0.5"/>
                </g>
                <g id="arrowLeft" xlink:href="#dirArrow" transform="rotate(270) translate(-36 17)" onmousedown="handlePan(-1,0)">
                  <use xlink:href="#rim" fill="#404040">
                        <set attributeName="fill" to="#808080" begin="arrowLeft.mouseover" end="arrowLeft.mouseout"/>
                  </use>
                  <path fill="none" stroke="white" stroke-width="1.5" d="M0,-3.0v7 M-2.5,-0.5L0,-3.0L2.5,-0.5"/>
                </g>
        </g>
        <svg viewBox="0 0 15 15" width="100%" height="30px" preserveAspectRatio="xMaxYMin meet">
         <g id="arrow_out" transform="scale(0.3 0.3)">
          <a xlink:href="iframer_8hpp__dep__incl_org.svg" target="_base">
           <rect id="button" ry="5" rx="5" y="6" x="6" height="38" width="38"
                fill="#f2f5e9" fill-opacity="0.5" stroke="#606060" stroke-width="1.0"/>
           <path id="arrow"
             d="M 11.500037,31.436501 C 11.940474,20.09759 22.043105,11.32322 32.158766,21.979434 L 37.068811,17.246167 C 37.068811,17.246167 37.088388,32 37.088388,32 L 22.160133,31.978069 C 22.160133,31.978069 26.997745,27.140456 26.997745,27.140456 C 18.528582,18.264221 13.291696,25.230495 11.500037,31.436501 z"
             style="fill:#404040;"/>
          </a>
         </g>
        </svg>
</svg>
