<?xml version="1.0" encoding="UTF-8" standalone="no"?>
<!DOCTYPE svg PUBLIC "-//W3C//DTD SVG 1.1//EN"
 "http://www.w3.org/Graphics/SVG/1.1/DTD/svg11.dtd">
<!-- Generated by graphviz version 2.43.0 (0)
 -->
<!-- Title: unilink/framer/iframer.hpp Pages: 1 -->
<!--zoomable 357 -->

<svg id="main" version="1.1" xmlns="http://www.w3.org/2000/svg" xmlns:xlink="http://www.w3.org/1999/xlink" xml:space="preserve" onload="init(evt)">
<style type="text/css"><![CDATA[
.node, .edge {opacity: 0.7;}
.node.selected, .edge.selected {opacity: 1;}
.edge:hover path { stroke: red; }
.edge:hover polygon { stroke: red; fill: red; }
]]></style>

<defs>
  <circle id="rim" cx="0" cy="0" r="7"/>
  <circle id="rim2" cx="0" cy="0" r="3.5"/>
  <g id="zoomPlus">
    <use xlink:href="#rim" fill="#404040"><set attributeName="fill" to="#808080" begin="zoomplus.mouseover" end="zoomplus.mouseout"/></use>
    <path d="M-4,0h8M0,-4v8" fill="none" stroke="white" stroke-width="1.5" pointer-events="none"/>
  </g>
  <g id="zoomMin">
    <use xlink:href="#rim" fill="#404040"><set attributeName="fill" to="#808080" begin="zoomminus.mouseover" end="zoomminus.mouseout"/></use>
    <path d="M-4,0h8" fill="none" stroke="white" stroke-width="1.5" pointer-events="none"/>
  </g>
  <g id="arrowUp" transform="translate(30 24)">
    <use xlink:href="#rim"/>
    <path pointer-events="none" fill="none" stroke="white" stroke-width="1.5" d="M0,-3.0v7 M-2.5,-0.5L0,-3.0L2.5,-0.5"/>
  </g>
  <g id="arrowRight" transform="rotate(90) translate(36 -43)">
    <use xlink:href="#rim"/>
    <path pointer-events="none" fill="none" stroke="white" stroke-width="1.5" d="M0,-3.0v7 M-2.5,-0.5L0,-3.0L2.5,-0.5"/>
  </g>
  <g id="arrowDown" transform="rotate(180) translate(-30 -48)">
    <use xlink:href="#rim"/>
    <path pointer-events="none" fill="none" stroke="white" stroke-width="1.5" d="M0,-3.0v7 M-2.5,-0.5L0,-3.0L2.5,-0.5"/>
  </g>
  <g id="arrowLeft" transform="rotate(270) translate(-36 17)">
    <use xlink:href="#rim"/>
    <path pointer-events="none" fill="none" stroke="white" stroke-width="1.5" d="M0,-3.0v7 M-2.5,-0.5L0,-3.0L2.5,-0.5"/>
  </g>
  <g id="resetDef">
    <use xlink:href="#rim2" fill="#404040"><set attributeName="fill" to="#808080" begin="reset.mouseover" end="reset.mouseout"/></use>
  </g>
</defs>
<script type="application/ecmascript">
var viewWidth = 2084;
var viewHeight = 357;
var sectionId = 'dynsection-1';
</script>
<script type="application/ecmascript" xlink:href="svg.min.js"/>
<svg id="graph" class="graph">
<g id="viewport">
<title>unilink/framer/iframer.hpp</title>
<!-- Node1 -->
<g id="Node000001" class="node">
<title>Node1</title>
<g id="a_Node000001"><a xlink:title=" ">
<polygon fill="#999999" stroke="#666666" points="722.5,-349 577.5,-349 577.5,-330 722.5,-330 722.5,-349"/>
<text text-anchor="middle" x="650" y="-337" font-family="Helvetica,sans-Serif" font-size="10.00">unilink/framer/iframer.hpp</text>
</a>
</g>
</g>
<!-- Node2 -->
<g id="Node000002" class="node">
<title>Node2</title>
<g id="a_Node000002"><a xlink:href="ibuilder_8hpp.html" target="_top" xlink:title=" ">
<polygon fill="white" stroke="#666666" points="634,-222.5 488,-222.5 488,-203.5 634,-203.5 634,-222.5"/>
<text text-anchor="middle" x="561" y="-210.5" font-family="Helvetica,sans-Serif" font-size="10.00">unilink/builder/ibuilder.hpp</text>
</a>
</g>
</g>
<!-- Node1&#45;&gt;Node2 -->
<g id="edge1_Node000001_Node000002" class="edge">
<title>Node1&#45;&gt;Node2</title>
<g id="a_edge1_Node000001_Node000002"><a xlink:title=" ">
<path fill="none" stroke="#63b8ff" d="M648.79,-319.67C646.96,-303.65 642.4,-280.66 631,-264 618.1,-245.14 595.61,-230.97 579.61,-222.61"/>
<polygon fill="#63b8ff" stroke="#63b8ff" points="645.33,-320.25 649.69,-329.91 652.3,-319.64 645.33,-320.25"/>
</a>
</g>
</g>
<!-- Node16 -->
<g id="Node000016" class="node">
<title>Node16</title>
<g id="a_Node000016"><a xlink:href="line__framer_8hpp.html" target="_top" xlink:title=" ">
<polygon fill="white" stroke="#666666" points="482.5,-294 375.5,-294 375.5,-264 482.5,-264 482.5,-294"/>
<text text-anchor="start" x="383.5" y="-282" font-family="Helvetica,sans-Serif" font-size="10.00">unilink/framer/line</text>
<text text-anchor="middle" x="429" y="-271" font-family="Helvetica,sans-Serif" font-size="10.00">_framer.hpp</text>
</a>
</g>
</g>
<!-- Node1&#45;&gt;Node16 -->
<g id="edge24_Node000001_Node000016" class="edge">
<title>Node1&#45;&gt;Node16</title>
<g id="a_edge24_Node000001_Node000016"><a xlink:title=" ">
<path fill="none" stroke="#63b8ff" d="M607.77,-327.32C572.04,-317.86 520.65,-304.26 482.13,-294.06"/>
<polygon fill="#63b8ff" stroke="#63b8ff" points="607.3,-330.82 617.86,-329.99 609.09,-324.05 607.3,-330.82"/>
</a>
</g>
</g>
<!-- Node18 -->
<g id="Node000018" class="node">
<title>Node18</title>
<g id="a_Node000018"><a xlink:href="packet__framer_8hpp.html" target="_top" xlink:title=" ">
<polygon fill="white" stroke="#666666" points="621.5,-294 500.5,-294 500.5,-264 621.5,-264 621.5,-294"/>
<text text-anchor="start" x="508.5" y="-282" font-family="Helvetica,sans-Serif" font-size="10.00">unilink/framer/packet</text>
<text text-anchor="middle" x="561" y="-271" font-family="Helvetica,sans-Serif" font-size="10.00">_framer.hpp</text>
</a>
</g>
</g>
<!-- Node1&#45;&gt;Node18 -->
<g id="edge27_Node000001_Node000018" class="edge">
<title>Node1&#45;&gt;Node18</title>
<g id="a_edge27_Node000001_Node000018"><a xlink:title=" ">
<path fill="none" stroke="#63b8ff" d="M628.39,-324.29C614.45,-315.13 596.39,-303.26 582.47,-294.11"/>
<polygon fill="#63b8ff" stroke="#63b8ff" points="626.59,-327.3 636.87,-329.87 630.43,-321.45 626.59,-327.3"/>
</a>
</g>
</g>
<!-- Node20 -->
<g id="Node000020" class="node">
<title>Node20</title>
<g id="a_Node000020"><a xlink:href="ichannel_8hpp.html" target="_top" xlink:title=" ">
<polygon fill="white" stroke="#666666" points="912,-288.5 754,-288.5 754,-269.5 912,-269.5 912,-288.5"/>
<text text-anchor="middle" x="833" y="-276.5" font-family="Helvetica,sans-Serif" font-size="10.00">unilink/wrapper/ichannel.hpp</text>
</a>
</g>
</g>
<!-- Node1&#45;&gt;Node20 -->
<g id="edge30_Node000001_Node000020" class="edge">
<title>Node1&#45;&gt;Node20</title>
<g id="a_edge30_Node000001_Node000020"><a xlink:title=" ">
<path fill="none" stroke="#63b8ff" d="M686.55,-326.82C721.94,-315.5 774.77,-298.62 806.36,-288.52"/>
<polygon fill="#63b8ff" stroke="#63b8ff" points="685.07,-323.61 676.61,-329.99 687.2,-330.28 685.07,-323.61"/>
</a>
</g>
</g>
<!-- Node29 -->
<g id="Node000029" class="node">
<title>Node29</title>
<g id="a_Node000029"><a xlink:href="iserver_8hpp.html" target="_top" xlink:title=" ">
<polygon fill="white" stroke="#666666" points="1856.5,-288.5 1707.5,-288.5 1707.5,-269.5 1856.5,-269.5 1856.5,-288.5"/>
<text text-anchor="middle" x="1782" y="-276.5" font-family="Helvetica,sans-Serif" font-size="10.00">unilink/wrapper/iserver.hpp</text>
</a>
</g>
</g>
<!-- Node1&#45;&gt;Node29 -->
<g id="edge48_Node000001_Node000029" class="edge">
<title>Node1&#45;&gt;Node29</title>
<g id="a_edge48_Node000001_Node000029"><a xlink:title=" ">
<path fill="none" stroke="#63b8ff" d="M732.66,-334.23C944.59,-323.28 1504.83,-294.32 1707.5,-283.85"/>
<polygon fill="#63b8ff" stroke="#63b8ff" points="732.34,-330.74 722.53,-334.75 732.7,-337.73 732.34,-330.74"/>
</a>
</g>
</g>
<!-- Node3 -->
<g id="Node000003" class="node">
<title>Node3</title>
<g id="a_Node000003"><a xlink:href="serial__builder_8hpp.html" target="_top" xlink:title=" ">
<polygon fill="white" stroke="#666666" points="467,-162 351,-162 351,-132 467,-132 467,-162"/>
<text text-anchor="start" x="359" y="-150" font-family="Helvetica,sans-Serif" font-size="10.00">unilink/builder/serial</text>
<text text-anchor="middle" x="409" y="-139" font-family="Helvetica,sans-Serif" font-size="10.00">_builder.hpp</text>
</a>
</g>
</g>
<!-- Node2&#45;&gt;Node3 -->
<g id="edge2_Node000002_Node000003" class="edge">
<title>Node2&#45;&gt;Node3</title>
<g id="a_edge2_Node000002_Node000003"><a xlink:title=" ">
<path fill="none" stroke="#63b8ff" d="M530.99,-199.36C505.5,-188.63 468.96,-173.25 442.52,-162.12"/>
<polygon fill="#63b8ff" stroke="#63b8ff" points="529.93,-202.71 540.5,-203.37 532.64,-196.26 529.93,-202.71"/>
</a>
</g>
</g>
<!-- Node7 -->
<g id="Node000007" class="node">
<title>Node7</title>
<g id="a_Node000007"><a xlink:href="unilink_8hpp.html" target="_top" xlink:title=" ">
<polygon fill="white" stroke="#666666" points="949.5,-24.5 842.5,-24.5 842.5,-5.5 949.5,-5.5 949.5,-24.5"/>
<text text-anchor="middle" x="896" y="-12.5" font-family="Helvetica,sans-Serif" font-size="10.00">unilink/unilink.hpp</text>
</a>
</g>
</g>
<!-- Node2&#45;&gt;Node7 -->
<g id="edge23_Node000002_Node000007" class="edge">
<title>Node2&#45;&gt;Node7</title>
<g id="a_edge23_Node000002_Node000007"><a xlink:title=" ">
<path fill="none" stroke="#63b8ff" d="M498.21,-201.64C453.83,-193.36 393.34,-180.14 342,-162 272.58,-137.48 156.86,-119.91 207,-66 217.81,-54.38 682.13,-27.77 842.33,-18.92"/>
<polygon fill="#63b8ff" stroke="#63b8ff" points="497.8,-205.13 508.27,-203.49 499.07,-198.24 497.8,-205.13"/>
</a>
</g>
</g>
<!-- Node8 -->
<g id="Node000008" class="node">
<title>Node8</title>
<g id="a_Node000008"><a xlink:href="tcp__client__builder_8hpp.html" target="_top" xlink:title=" ">
<polygon fill="white" stroke="#666666" points="624,-162 516,-162 516,-132 624,-132 624,-162"/>
<text text-anchor="start" x="524" y="-150" font-family="Helvetica,sans-Serif" font-size="10.00">unilink/builder/tcp</text>
<text text-anchor="middle" x="570" y="-139" font-family="Helvetica,sans-Serif" font-size="10.00">_client_builder.hpp</text>
</a>
</g>
</g>
<!-- Node2&#45;&gt;Node8 -->
<g id="edge8_Node000002_Node000008" class="edge">
<title>Node2&#45;&gt;Node8</title>
<g id="a_edge8_Node000002_Node000008"><a xlink:title=" ">
<path fill="none" stroke="#63b8ff" d="M563.62,-193.35C565.01,-183.47 566.69,-171.51 567.98,-162.36"/>
<polygon fill="#63b8ff" stroke="#63b8ff" points="560.14,-192.98 562.21,-203.37 567.07,-193.95 560.14,-192.98"/>
</a>
</g>
</g>
<!-- Node10 -->
<g id="Node000010" class="node">
<title>Node10</title>
<g id="a_Node000010"><a xlink:href="tcp__server__builder_8hpp.html" target="_top" xlink:title=" ">
<polygon fill="white" stroke="#666666" points="792,-162 680,-162 680,-132 792,-132 792,-162"/>
<text text-anchor="start" x="688" y="-150" font-family="Helvetica,sans-Serif" font-size="10.00">unilink/builder/tcp</text>
<text text-anchor="middle" x="736" y="-139" font-family="Helvetica,sans-Serif" font-size="10.00">_server_builder.hpp</text>
</a>
</g>
</g>
<!-- Node2&#45;&gt;Node10 -->
<g id="edge12_Node000002_Node000010" class="edge">
<title>Node2&#45;&gt;Node10</title>
<g id="a_edge12_Node000002_Node000010"><a xlink:title=" ">
<path fill="none" stroke="#63b8ff" d="M594.01,-199.93C623.4,-189.18 666.43,-173.44 697.4,-162.12"/>
<polygon fill="#63b8ff" stroke="#63b8ff" points="592.79,-196.65 584.6,-203.37 595.2,-203.22 592.79,-196.65"/>
</a>
</g>
</g>
<!-- Node12 -->
<g id="Node000012" class="node">
<title>Node12</title>
<g id="a_Node000012"><a xlink:href="udp__builder_8hpp.html" target="_top" xlink:title=" ">
<polygon fill="white" stroke="#666666" points="955.5,-162 848.5,-162 848.5,-132 955.5,-132 955.5,-162"/>
<text text-anchor="start" x="856.5" y="-150" font-family="Helvetica,sans-Serif" font-size="10.00">unilink/builder/udp</text>
<text text-anchor="middle" x="902" y="-139" font-family="Helvetica,sans-Serif" font-size="10.00">_builder.hpp</text>
</a>
</g>
</g>
<!-- Node2&#45;&gt;Node12 -->
<g id="edge16_Node000002_Node000012" class="edge">
<title>Node2&#45;&gt;Node12</title>
<g id="a_edge16_Node000002_Node000012"><a xlink:title=" ">
<path fill="none" stroke="#63b8ff" d="M616.55,-201.58C680.54,-189.56 784.97,-169.96 848.21,-158.1"/>
<polygon fill="#63b8ff" stroke="#63b8ff" points="615.82,-198.15 606.63,-203.44 617.11,-205.03 615.82,-198.15"/>
</a>
</g>
</g>
<!-- Node14 -->
<g id="Node000014" class="node">
<title>Node14</title>
<g id="a_Node000014"><a xlink:href="uds__builder_8hpp.html" target="_top" xlink:title=" ">
<polygon fill="white" stroke="#666666" points="1514.5,-162 1407.5,-162 1407.5,-132 1514.5,-132 1514.5,-162"/>
<text text-anchor="start" x="1415.5" y="-150" font-family="Helvetica,sans-Serif" font-size="10.00">unilink/builder/uds</text>
<text text-anchor="middle" x="1461" y="-139" font-family="Helvetica,sans-Serif" font-size="10.00">_builder.hpp</text>
</a>
</g>
</g>
<!-- Node2&#45;&gt;Node14 -->
<g id="edge20_Node000002_Node000014" class="edge">
<title>Node2&#45;&gt;Node14</title>
<g id="a_edge20_Node000002_Node000014"><a xlink:title=" ">
<path fill="none" stroke="#63b8ff" d="M644.47,-207C689.13,-204.33 745.06,-200.98 795,-198 1063.44,-181.97 1132.74,-199.74 1399,-162 1401.73,-161.61 1404.52,-161.17 1407.33,-160.68"/>
<polygon fill="#63b8ff" stroke="#63b8ff" points="644.02,-203.52 634.25,-207.61 644.44,-210.51 644.02,-203.52"/>
</a>
</g>
</g>
<!-- Node4 -->
<g id="Node000004" class="node">
<title>Node4</title>
<g id="a_Node000004"><a xlink:href="serial__builder_8cc.html" target="_top" xlink:title=" ">
<polygon fill="white" stroke="#666666" points="332,-96 216,-96 216,-66 332,-66 332,-96"/>
<text text-anchor="start" x="224" y="-84" font-family="Helvetica,sans-Serif" font-size="10.00">unilink/builder/serial</text>
<text text-anchor="middle" x="274" y="-73" font-family="Helvetica,sans-Serif" font-size="10.00">_builder.cc</text>
</a>
</g>
</g>
<!-- Node3&#45;&gt;Node4 -->
<g id="edge3_Node000003_Node000004" class="edge">
<title>Node3&#45;&gt;Node4</title>
<g id="a_edge3_Node000003_Node000004"><a xlink:title=" ">
<path fill="none" stroke="#63b8ff" d="M370.29,-127.65C349.06,-117.58 323.15,-105.3 303.56,-96.01"/>
<polygon fill="#63b8ff" stroke="#63b8ff" points="368.84,-130.83 379.37,-131.95 371.84,-124.51 368.84,-130.83"/>
</a>
</g>
</g>
<!-- Node5 -->
<g id="Node000005" class="node">
<title>Node5</title>
<g id="a_Node000005"><a xlink:href="unified__builder_8hpp.html" target="_top" xlink:title=" ">
<polygon fill="white" stroke="#666666" points="632,-96 510,-96 510,-66 632,-66 632,-96"/>
<text text-anchor="start" x="518" y="-84" font-family="Helvetica,sans-Serif" font-size="10.00">unilink/builder/unified</text>
<text text-anchor="middle" x="571" y="-73" font-family="Helvetica,sans-Serif" font-size="10.00">_builder.hpp</text>
</a>
</g>
</g>
<!-- Node3&#45;&gt;Node5 -->
<g id="edge4_Node000003_Node000005" class="edge">
<title>Node3&#45;&gt;Node5</title>
<g id="a_edge4_Node000003_Node000005"><a xlink:title=" ">
<path fill="none" stroke="#63b8ff" d="M454.09,-128.19C479.81,-118.02 511.6,-105.47 535.53,-96.01"/>
<polygon fill="#63b8ff" stroke="#63b8ff" points="452.57,-125.03 444.55,-131.95 455.14,-131.54 452.57,-125.03"/>
</a>
</g>
</g>
<!-- Node3&#45;&gt;Node7 -->
<g id="edge7_Node000003_Node000007" class="edge">
<title>Node3&#45;&gt;Node7</title>
<g id="a_edge7_Node000003_Node000007"><a xlink:title=" ">
<path fill="none" stroke="#63b8ff" d="M389.56,-123.91C376.54,-106.39 364.26,-82.23 379,-66 394.44,-49 712.8,-27.39 842.11,-19.27"/>
<polygon fill="#63b8ff" stroke="#63b8ff" points="386.94,-126.24 395.89,-131.91 392.43,-121.9 386.94,-126.24"/>
</a>
</g>
</g>
<!-- Node6 -->
<g id="Node000006" class="node">
<title>Node6</title>
<g id="a_Node000006"><a xlink:href="unified__builder_8cc.html" target="_top" xlink:title=" ">
<polygon fill="white" stroke="#666666" points="632,-30 510,-30 510,0 632,0 632,-30"/>
<text text-anchor="start" x="518" y="-18" font-family="Helvetica,sans-Serif" font-size="10.00">unilink/builder/unified</text>
<text text-anchor="middle" x="571" y="-7" font-family="Helvetica,sans-Serif" font-size="10.00">_builder.cc</text>
</a>
</g>
</g>
<!-- Node5&#45;&gt;Node6 -->
<g id="edge5_Node000005_Node000006" class="edge">
<title>Node5&#45;&gt;Node6</title>
<g id="a_edge5_Node000005_Node000006"><a xlink:title=" ">
<path fill="none" stroke="#63b8ff" d="M571,-55.54C571,-46.96 571,-37.61 571,-30.16"/>
<polygon fill="#63b8ff" stroke="#63b8ff" points="567.5,-55.8 571,-65.8 574.5,-55.8 567.5,-55.8"/>
</a>
</g>
</g>
<!-- Node5&#45;&gt;Node7 -->
<g id="edge6_Node000005_Node000007" class="edge">
<title>Node5&#45;&gt;Node7</title>
<g id="a_edge6_Node000005_Node000007"><a xlink:title=" ">
<path fill="none" stroke="#63b8ff" d="M642.2,-65.98C706.5,-53.32 799.04,-35.09 852.8,-24.51"/>
<polygon fill="#63b8ff" stroke="#63b8ff" points="641.27,-62.6 632.13,-67.96 642.62,-69.46 641.27,-62.6"/>
</a>
</g>
</g>
<!-- Node8&#45;&gt;Node5 -->
<g id="edge10_Node000008_Node000005" class="edge">
<title>Node8&#45;&gt;Node5</title>
<g id="a_edge10_Node000008_Node000005"><a xlink:title=" ">
<path fill="none" stroke="#63b8ff" d="M570.38,-121.54C570.52,-112.96 570.66,-103.61 570.78,-96.16"/>
<polygon fill="#63b8ff" stroke="#63b8ff" points="566.88,-121.74 570.22,-131.8 573.88,-121.85 566.88,-121.74"/>
</a>
</g>
</g>
<!-- Node8&#45;&gt;Node7 -->
<g id="edge11_Node000008_Node000007" class="edge">
<title>Node8&#45;&gt;Node7</title>
<g id="a_edge11_Node000008_Node000007"><a xlink:title=" ">
<path fill="none" stroke="#63b8ff" d="M598.58,-125.84C631.96,-102.32 682.82,-66.53 684,-66 735.23,-43.01 798.37,-29.87 842.35,-22.88"/>
<polygon fill="#63b8ff" stroke="#63b8ff" points="596.26,-123.2 590.1,-131.82 600.29,-128.92 596.26,-123.2"/>
</a>
</g>
</g>
<!-- Node9 -->
<g id="Node000009" class="node">
<title>Node9</title>
<g id="a_Node000009"><a xlink:href="tcp__client__builder_8cc.html" target="_top" xlink:title=" ">
<polygon fill="white" stroke="#666666" points="492,-96 388,-96 388,-66 492,-66 492,-96"/>
<text text-anchor="start" x="396" y="-84" font-family="Helvetica,sans-Serif" font-size="10.00">unilink/builder/tcp</text>
<text text-anchor="middle" x="440" y="-73" font-family="Helvetica,sans-Serif" font-size="10.00">_client_builder.cc</text>
</a>
</g>
</g>
<!-- Node8&#45;&gt;Node9 -->
<g id="edge9_Node000008_Node000009" class="edge">
<title>Node8&#45;&gt;Node9</title>
<g id="a_edge9_Node000008_Node000009"><a xlink:title=" ">
<path fill="none" stroke="#63b8ff" d="M532.45,-127.51C512.05,-117.47 487.24,-105.26 468.46,-96.01"/>
<polygon fill="#63b8ff" stroke="#63b8ff" points="530.95,-130.68 541.47,-131.95 534.05,-124.4 530.95,-130.68"/>
</a>
</g>
</g>
<!-- Node10&#45;&gt;Node5 -->
<g id="edge14_Node000010_Node000005" class="edge">
<title>Node10&#45;&gt;Node5</title>
<g id="a_edge14_Node000010_Node000005"><a xlink:title=" ">
<path fill="none" stroke="#63b8ff" d="M690.43,-128.32C664.16,-118.14 631.61,-105.51 607.13,-96.01"/>
<polygon fill="#63b8ff" stroke="#63b8ff" points="689.2,-131.6 699.79,-131.95 691.73,-125.08 689.2,-131.6"/>
</a>
</g>
</g>
<!-- Node10&#45;&gt;Node7 -->
<g id="edge15_Node000010_Node000007" class="edge">
<title>Node10&#45;&gt;Node7</title>
<g id="a_edge15_Node000010_Node000007"><a xlink:title=" ">
<path fill="none" stroke="#63b8ff" d="M735.88,-121.67C737.07,-104.19 741.42,-81.13 755,-66 777.21,-41.26 812.46,-28.76 842.16,-22.45"/>
<polygon fill="#63b8ff" stroke="#63b8ff" points="732.38,-121.59 735.5,-131.71 739.38,-121.85 732.38,-121.59"/>
</a>
</g>
</g>
<!-- Node11 -->
<g id="Node000011" class="node">
<title>Node11</title>
<g id="a_Node000011"><a xlink:href="tcp__server__builder_8cc.html" target="_top" xlink:title=" ">
<polygon fill="white" stroke="#666666" points="868,-96 764,-96 764,-66 868,-66 868,-96"/>
<text text-anchor="start" x="772" y="-84" font-family="Helvetica,sans-Serif" font-size="10.00">unilink/builder/tcp</text>
<text text-anchor="middle" x="816" y="-73" font-family="Helvetica,sans-Serif" font-size="10.00">_server_builder.cc</text>
</a>
</g>
</g>
<!-- Node10&#45;&gt;Node11 -->
<g id="edge13_Node000010_Node000011" class="edge">
<title>Node10&#45;&gt;Node11</title>
<g id="a_edge13_Node000010_Node000011"><a xlink:title=" ">
<path fill="none" stroke="#63b8ff" d="M761.65,-125.48C773.61,-115.91 787.53,-104.77 798.3,-96.16"/>
<polygon fill="#63b8ff" stroke="#63b8ff" points="759.38,-122.82 753.75,-131.8 763.75,-128.28 759.38,-122.82"/>
</a>
</g>
</g>
<!-- Node12&#45;&gt;Node5 -->
<g id="edge18_Node000012_Node000005" class="edge">
<title>Node12&#45;&gt;Node5</title>
<g id="a_edge18_Node000012_Node000005"><a xlink:title=" ">
<path fill="none" stroke="#63b8ff" d="M838.43,-133.71C778.95,-122.21 690.71,-105.15 632.06,-93.81"/>
<polygon fill="#63b8ff" stroke="#63b8ff" points="837.97,-137.18 848.45,-135.65 839.3,-130.31 837.97,-137.18"/>
</a>
</g>
</g>
<!-- Node12&#45;&gt;Node7 -->
<g id="edge19_Node000012_Node000007" class="edge">
<title>Node12&#45;&gt;Node7</title>
<g id="a_edge19_Node000012_Node000007"><a xlink:title=" ">
<path fill="none" stroke="#63b8ff" d="M907.4,-121.75C910.2,-105.86 912.56,-84.65 910,-66 907.96,-51.18 902.68,-34.55 899.22,-24.7"/>
<polygon fill="#63b8ff" stroke="#63b8ff" points="903.92,-121.32 905.44,-131.8 910.79,-122.65 903.92,-121.32"/>
</a>
</g>
</g>
<!-- Node13 -->
<g id="Node000013" class="node">
<title>Node13</title>
<g id="a_Node000013"><a xlink:href="udp__builder_8cc.html" target="_top" xlink:title=" ">
<polygon fill="white" stroke="#666666" points="1069.5,-96 962.5,-96 962.5,-66 1069.5,-66 1069.5,-96"/>
<text text-anchor="start" x="970.5" y="-84" font-family="Helvetica,sans-Serif" font-size="10.00">unilink/builder/udp</text>
<text text-anchor="middle" x="1016" y="-73" font-family="Helvetica,sans-Serif" font-size="10.00">_builder.cc</text>
</a>
</g>
</g>
<!-- Node12&#45;&gt;Node13 -->
<g id="edge17_Node000012_Node000013" class="edge">
<title>Node12&#45;&gt;Node13</title>
<g id="a_edge17_Node000012_Node000013"><a xlink:title=" ">
<path fill="none" stroke="#63b8ff" d="M935.9,-126.97C953.6,-117.03 974.87,-105.09 991.04,-96.01"/>
<polygon fill="#63b8ff" stroke="#63b8ff" points="934.02,-124.01 927.02,-131.95 937.45,-130.11 934.02,-124.01"/>
</a>
</g>
</g>
<!-- Node14&#45;&gt;Node7 -->
<g id="edge22_Node000014_Node000007" class="edge">
<title>Node14&#45;&gt;Node7</title>
<g id="a_edge22_Node000014_Node000007"><a xlink:title=" ">
<path fill="none" stroke="#63b8ff" d="M1462.21,-121.8C1461.69,-103.63 1457.7,-79.62 1442,-66 1405.33,-34.19 1080.39,-21.33 949.89,-17.41"/>
<polygon fill="#63b8ff" stroke="#63b8ff" points="1458.71,-121.94 1462.17,-131.96 1465.71,-121.97 1458.71,-121.94"/>
</a>
</g>
</g>
<!-- Node15 -->
<g id="Node000015" class="node">
<title>Node15</title>
<g id="a_Node000015"><a xlink:href="uds__builder_8cc.html" target="_top" xlink:title=" ">
<polygon fill="white" stroke="#666666" points="1432.5,-96 1325.5,-96 1325.5,-66 1432.5,-66 1432.5,-96"/>
<text text-anchor="start" x="1333.5" y="-84" font-family="Helvetica,sans-Serif" font-size="10.00">unilink/builder/uds</text>
<text text-anchor="middle" x="1379" y="-73" font-family="Helvetica,sans-Serif" font-size="10.00">_builder.cc</text>
</a>
</g>
</g>
<!-- Node14&#45;&gt;Node15 -->
<g id="edge21_Node000014_Node000015" class="edge">
<title>Node14&#45;&gt;Node15</title>
<g id="a_edge21_Node000014_Node000015"><a xlink:title=" ">
<path fill="none" stroke="#63b8ff" d="M1434.71,-125.48C1422.45,-115.91 1408.18,-104.77 1397.15,-96.16"/>
<polygon fill="#63b8ff" stroke="#63b8ff" points="1432.76,-128.4 1442.8,-131.8 1437.07,-122.88 1432.76,-128.4"/>
</a>
</g>
</g>
<!-- Node16&#45;&gt;Node2 -->
<g id="edge25_Node000016_Node000002" class="edge">
<title>Node16&#45;&gt;Node2</title>
<g id="a_edge25_Node000016_Node000002"><a xlink:title=" ">
<path fill="none" stroke="#63b8ff" d="M467.24,-259.46C492.38,-247.27 524.08,-231.9 543.43,-222.52"/>
<polygon fill="#63b8ff" stroke="#63b8ff" points="465.44,-256.44 457.97,-263.95 468.49,-262.74 465.44,-256.44"/>
</a>
</g>
</g>
<!-- Node17 -->
<g id="Node000017" class="node">
<title>Node17</title>
<g id="a_Node000017"><a xlink:href="line__framer_8cc.html" target="_top" xlink:title=" ">
<polygon fill="white" stroke="#666666" points="190.5,-228 83.5,-228 83.5,-198 190.5,-198 190.5,-228"/>
<text text-anchor="start" x="91.5" y="-216" font-family="Helvetica,sans-Serif" font-size="10.00">unilink/framer/line</text>
<text text-anchor="middle" x="137" y="-205" font-family="Helvetica,sans-Serif" font-size="10.00">_framer.cc</text>
</a>
</g>
</g>
<!-- Node16&#45;&gt;Node17 -->
<g id="edge26_Node000016_Node000017" class="edge">
<title>Node16&#45;&gt;Node17</title>
<g id="a_edge26_Node000016_Node000017"><a xlink:title=" ">
<path fill="none" stroke="#63b8ff" d="M365.2,-264.27C319.02,-254.3 255.12,-240.44 199,-228 196.31,-227.4 193.55,-226.79 190.76,-226.17"/>
<polygon fill="#63b8ff" stroke="#63b8ff" points="364.55,-267.71 375.07,-266.4 366.03,-260.87 364.55,-267.71"/>
</a>
</g>
</g>
<!-- Node18&#45;&gt;Node2 -->
<g id="edge28_Node000018_Node000002" class="edge">
<title>Node18&#45;&gt;Node2</title>
<g id="a_edge28_Node000018_Node000002"><a xlink:title=" ">
<path fill="none" stroke="#63b8ff" d="M561,-253.6C561,-242.8 561,-230.78 561,-222.84"/>
<polygon fill="#63b8ff" stroke="#63b8ff" points="557.5,-253.8 561,-263.8 564.5,-253.8 557.5,-253.8"/>
</a>
</g>
</g>
<!-- Node19 -->
<g id="Node000019" class="node">
<title>Node19</title>
<g id="a_Node000019"><a xlink:href="packet__framer_8cc.html" target="_top" xlink:title=" ">
<polygon fill="white" stroke="#666666" points="329.5,-228 208.5,-228 208.5,-198 329.5,-198 329.5,-228"/>
<text text-anchor="start" x="216.5" y="-216" font-family="Helvetica,sans-Serif" font-size="10.00">unilink/framer/packet</text>
<text text-anchor="middle" x="269" y="-205" font-family="Helvetica,sans-Serif" font-size="10.00">_framer.cc</text>
</a>
</g>
</g>
<!-- Node18&#45;&gt;Node19 -->
<g id="edge29_Node000018_Node000019" class="edge">
<title>Node18&#45;&gt;Node19</title>
<g id="a_edge29_Node000018_Node000019"><a xlink:title=" ">
<path fill="none" stroke="#63b8ff" d="M490.58,-262.56C441.44,-251.79 376.53,-237.57 329.68,-227.3"/>
<polygon fill="#63b8ff" stroke="#63b8ff" points="489.98,-266.02 500.5,-264.74 491.48,-259.18 489.98,-266.02"/>
</a>
</g>
</g>
<!-- Node20&#45;&gt;Node7 -->
<g id="edge31_Node000020_Node000007" class="edge">
<title>Node20&#45;&gt;Node7</title>
<g id="a_edge31_Node000020_Node000007"><a xlink:title=" ">
<path fill="none" stroke="#63b8ff" d="M797.58,-265.94C742.25,-244.87 644.25,-197.27 671,-132 698.66,-64.49 785.06,-35.76 842.38,-23.9"/>
<polygon fill="#63b8ff" stroke="#63b8ff" points="796.45,-269.26 807.05,-269.45 798.88,-262.7 796.45,-269.26"/>
</a>
</g>
</g>
<!-- Node21 -->
<g id="Node000021" class="node">
<title>Node21</title>
<g id="a_Node000021"><a xlink:href="wrapper_2serial_2serial_8hpp.html" target="_top" xlink:title=" ">
<polygon fill="white" stroke="#666666" points="470,-228 348,-228 348,-198 470,-198 470,-228"/>
<text text-anchor="start" x="356" y="-216" font-family="Helvetica,sans-Serif" font-size="10.00">unilink/wrapper/serial</text>
<text text-anchor="middle" x="409" y="-205" font-family="Helvetica,sans-Serif" font-size="10.00">/serial.hpp</text>
</a>
</g>
</g>
<!-- Node20&#45;&gt;Node21 -->
<g id="edge32_Node000020_Node000021" class="edge">
<title>Node20&#45;&gt;Node21</title>
<g id="a_edge32_Node000020_Node000021"><a xlink:title=" ">
<path fill="none" stroke="#63b8ff" d="M753.97,-268.15C682.09,-258.88 573.18,-244.06 479,-228 476.07,-227.5 473.07,-226.97 470.05,-226.42"/>
<polygon fill="#63b8ff" stroke="#63b8ff" points="753.93,-271.67 764.29,-269.48 754.82,-264.73 753.93,-271.67"/>
</a>
</g>
</g>
<!-- Node23 -->
<g id="Node000023" class="node">
<title>Node23</title>
<g id="a_Node000023"><a xlink:href="wrapper_2tcp__client_2tcp__client_8hpp.html" target="_top" xlink:title=" ">
<polygon fill="white" stroke="#666666" points="1095,-228 975,-228 975,-198 1095,-198 1095,-228"/>
<text text-anchor="start" x="983" y="-216" font-family="Helvetica,sans-Serif" font-size="10.00">unilink/wrapper/tcp</text>
<text text-anchor="middle" x="1035" y="-205" font-family="Helvetica,sans-Serif" font-size="10.00">_client/tcp_client.hpp</text>
</a>
</g>
</g>
<!-- Node20&#45;&gt;Node23 -->
<g id="edge36_Node000020_Node000023" class="edge">
<title>Node20&#45;&gt;Node23</title>
<g id="a_edge36_Node000020_Node000023"><a xlink:title=" ">
<path fill="none" stroke="#63b8ff" d="M869.78,-266.35C903.73,-255.59 954.22,-239.59 990.45,-228.12"/>
<polygon fill="#63b8ff" stroke="#63b8ff" points="868.72,-263.01 860.24,-269.37 870.83,-269.68 868.72,-263.01"/>
</a>
</g>
</g>
<!-- Node25 -->
<g id="Node000025" class="node">
<title>Node25</title>
<g id="a_Node000025"><a xlink:href="wrapper_2udp_2udp_8hpp.html" target="_top" xlink:title=" ">
<polygon fill="white" stroke="#666666" points="916.5,-228 803.5,-228 803.5,-198 916.5,-198 916.5,-228"/>
<text text-anchor="start" x="811.5" y="-216" font-family="Helvetica,sans-Serif" font-size="10.00">unilink/wrapper/udp</text>
<text text-anchor="middle" x="860" y="-205" font-family="Helvetica,sans-Serif" font-size="10.00">/udp.hpp</text>
</a>
</g>
</g>
<!-- Node20&#45;&gt;Node25 -->
<g id="edge40_Node000020_Node000025" class="edge">
<title>Node20&#45;&gt;Node25</title>
<g id="a_edge40_Node000020_Node000025"><a xlink:title=" ">
<path fill="none" stroke="#63b8ff" d="M840.6,-259.98C844.82,-249.98 850,-237.71 853.94,-228.36"/>
<polygon fill="#63b8ff" stroke="#63b8ff" points="837.3,-258.79 836.64,-269.37 843.75,-261.52 837.3,-258.79"/>
</a>
</g>
</g>
<!-- Node27 -->
<g id="Node000027" class="node">
<title>Node27</title>
<g id="a_Node000027"><a xlink:href="wrapper_2uds__client_2uds__client_8hpp.html" target="_top" xlink:title=" ">
<polygon fill="white" stroke="#666666" points="1456,-228 1334,-228 1334,-198 1456,-198 1456,-228"/>
<text text-anchor="start" x="1342" y="-216" font-family="Helvetica,sans-Serif" font-size="10.00">unilink/wrapper/uds</text>
<text text-anchor="middle" x="1395" y="-205" font-family="Helvetica,sans-Serif" font-size="10.00">_client/uds_client.hpp</text>
</a>
</g>
</g>
<!-- Node20&#45;&gt;Node27 -->
<g id="edge44_Node000020_Node000027" class="edge">
<title>Node20&#45;&gt;Node27</title>
<g id="a_edge44_Node000020_Node000027"><a xlink:title=" ">
<path fill="none" stroke="#63b8ff" d="M918.04,-268.32C1032.5,-255.28 1233.34,-232.41 1333.94,-220.95"/>
<polygon fill="#63b8ff" stroke="#63b8ff" points="917.46,-264.86 907.92,-269.47 918.25,-271.81 917.46,-264.86"/>
</a>
</g>
</g>
<!-- Node21&#45;&gt;Node3 -->
<g id="edge33_Node000021_Node000003" class="edge">
<title>Node21&#45;&gt;Node3</title>
<g id="a_edge33_Node000021_Node000003"><a xlink:title=" ">
<path fill="none" stroke="#63b8ff" d="M409,-187.54C409,-178.96 409,-169.61 409,-162.16"/>
<polygon fill="#63b8ff" stroke="#63b8ff" points="405.5,-187.8 409,-197.8 412.5,-187.8 405.5,-187.8"/>
</a>
</g>
</g>
<!-- Node21&#45;&gt;Node7 -->
<g id="edge34_Node000021_Node000007" class="edge">
<title>Node21&#45;&gt;Node7</title>
<g id="a_edge34_Node000021_Node000007"><a xlink:title=" ">
<path fill="none" stroke="#63b8ff" d="M338.8,-195.36C301.05,-185.54 259.04,-172.93 243,-162 202.9,-134.68 157.92,-101.5 191,-66 202.1,-54.09 679.42,-27.56 842.24,-18.84"/>
<polygon fill="#63b8ff" stroke="#63b8ff" points="338.23,-198.83 348.79,-197.92 339.97,-192.05 338.23,-198.83"/>
</a>
</g>
</g>
<!-- Node22 -->
<g id="Node000022" class="node">
<title>Node22</title>
<g id="a_Node000022"><a xlink:href="wrapper_2serial_2serial_8cc.html" target="_top" xlink:title=" ">
<polygon fill="white" stroke="#666666" points="122,-162 0,-162 0,-132 122,-132 122,-162"/>
<text text-anchor="start" x="8" y="-150" font-family="Helvetica,sans-Serif" font-size="10.00">unilink/wrapper/serial</text>
<text text-anchor="middle" x="61" y="-139" font-family="Helvetica,sans-Serif" font-size="10.00">/serial.cc</text>
</a>
</g>
</g>
<!-- Node21&#45;&gt;Node22 -->
<g id="edge35_Node000021_Node000022" class="edge">
<title>Node21&#45;&gt;Node22</title>
<g id="a_edge35_Node000021_Node000022"><a xlink:title=" ">
<path fill="none" stroke="#63b8ff" d="M338.04,-197.84C247.32,-180.82 223.07,-177.85 136,-162 131.57,-161.19 126.99,-160.35 122.39,-159.51"/>
<polygon fill="#63b8ff" stroke="#63b8ff" points="337.46,-201.29 347.93,-199.7 338.75,-194.41 337.46,-201.29"/>
</a>
</g>
</g>
<!-- Node23&#45;&gt;Node7 -->
<g id="edge38_Node000023_Node000007" class="edge">
<title>Node23&#45;&gt;Node7</title>
<g id="a_edge38_Node000023_Node000007"><a xlink:title=" ">
<path fill="none" stroke="#63b8ff" d="M1069.77,-192C1080.17,-184.1 1090.31,-174.01 1096,-162 1107.98,-136.68 1080.23,-67.25 1079,-66 1045.25,-31.75 990.47,-20.3 949.63,-16.79"/>
<polygon fill="#63b8ff" stroke="#63b8ff" points="1067.61,-189.24 1061.45,-197.86 1071.64,-194.96 1067.61,-189.24"/>
</a>
</g>
</g>
<!-- Node23&#45;&gt;Node8 -->
<g id="edge37_Node000023_Node000008" class="edge">
<title>Node23&#45;&gt;Node8</title>
<g id="a_edge37_Node000023_Node000008"><a xlink:title=" ">
<path fill="none" stroke="#63b8ff" d="M964.74,-202.37C891.42,-192.32 773.14,-176.09 671,-162 655.83,-159.91 639.38,-157.63 624.25,-155.53"/>
<polygon fill="#63b8ff" stroke="#63b8ff" points="964.39,-205.86 974.78,-203.75 965.34,-198.92 964.39,-205.86"/>
</a>
</g>
</g>
<!-- Node24 -->
<g id="Node000024" class="node">
<title>Node24</title>
<g id="a_Node000024"><a xlink:href="wrapper_2tcp__client_2tcp__client_8cc.html" target="_top" xlink:title=" ">
<polygon fill="white" stroke="#666666" points="1256.5,-162 1143.5,-162 1143.5,-132 1256.5,-132 1256.5,-162"/>
<text text-anchor="start" x="1151.5" y="-150" font-family="Helvetica,sans-Serif" font-size="10.00">unilink/wrapper/tcp</text>
<text text-anchor="middle" x="1200" y="-139" font-family="Helvetica,sans-Serif" font-size="10.00">_client/tcp_client.cc</text>
</a>
</g>
</g>
<!-- Node23&#45;&gt;Node24 -->
<g id="edge39_Node000023_Node000024" class="edge">
<title>Node23&#45;&gt;Node24</title>
<g id="a_edge39_Node000023_Node000024"><a xlink:title=" ">
<path fill="none" stroke="#63b8ff" d="M1080.57,-194.32C1106.84,-184.14 1139.39,-171.51 1163.87,-162.01"/>
<polygon fill="#63b8ff" stroke="#63b8ff" points="1079.27,-191.08 1071.21,-197.95 1081.8,-197.6 1079.27,-191.08"/>
</a>
</g>
</g>
<!-- Node25&#45;&gt;Node7 -->
<g id="edge42_Node000025_Node000007" class="edge">
<title>Node25&#45;&gt;Node7</title>
<g id="a_edge42_Node000025_Node000007"><a xlink:title=" ">
<path fill="none" stroke="#63b8ff" d="M846.46,-188.68C838.83,-172.38 832.25,-150.35 840,-132 848.93,-110.86 865.68,-115.95 877,-96 890.39,-72.41 894.37,-39.77 895.53,-24.51"/>
<polygon fill="#63b8ff" stroke="#63b8ff" points="843.55,-190.68 851.22,-197.99 849.78,-187.5 843.55,-190.68"/>
</a>
</g>
</g>
<!-- Node25&#45;&gt;Node12 -->
<g id="edge41_Node000025_Node000012" class="edge">
<title>Node25&#45;&gt;Node12</title>
<g id="a_edge41_Node000025_Node000012"><a xlink:title=" ">
<path fill="none" stroke="#63b8ff" d="M874.93,-189.24C880.86,-180.21 887.49,-170.11 892.7,-162.16"/>
<polygon fill="#63b8ff" stroke="#63b8ff" points="871.88,-187.52 869.32,-197.8 877.73,-191.36 871.88,-187.52"/>
</a>
</g>
</g>
<!-- Node26 -->
<g id="Node000026" class="node">
<title>Node26</title>
<g id="a_Node000026"><a xlink:href="wrapper_2udp_2udp_8cc.html" target="_top" xlink:title=" ">
<polygon fill="white" stroke="#666666" points="1086.5,-162 973.5,-162 973.5,-132 1086.5,-132 1086.5,-162"/>
<text text-anchor="start" x="981.5" y="-150" font-family="Helvetica,sans-Serif" font-size="10.00">unilink/wrapper/udp</text>
<text text-anchor="middle" x="1030" y="-139" font-family="Helvetica,sans-Serif" font-size="10.00">/udp.cc</text>
</a>
</g>
</g>
<!-- Node25&#45;&gt;Node26 -->
<g id="edge43_Node000025_Node000026" class="edge">
<title>Node25&#45;&gt;Node26</title>
<g id="a_edge43_Node000025_Node000026"><a xlink:title=" ">
<path fill="none" stroke="#63b8ff" d="M906.96,-194.32C934.01,-184.14 967.55,-171.51 992.78,-162.01"/>
<polygon fill="#63b8ff" stroke="#63b8ff" points="905.43,-191.16 897.31,-197.95 907.9,-197.71 905.43,-191.16"/>
</a>
</g>
</g>
<!-- Node27&#45;&gt;Node7 -->
<g id="edge46_Node000027_Node000007" class="edge">
<title>Node27&#45;&gt;Node7</title>
<g id="a_edge46_Node000027_Node000007"><a xlink:title=" ">
<path fill="none" stroke="#63b8ff" d="M1465.97,-200.76C1488.29,-193.51 1510.58,-181.59 1524,-162 1555.48,-116.04 1468.62,-68.29 1464,-66 1374.54,-21.63 1073.31,-16.14 949.66,-15.81"/>
<polygon fill="#63b8ff" stroke="#63b8ff" points="1464.69,-197.49 1456.09,-203.68 1466.68,-204.2 1464.69,-197.49"/>
</a>
</g>
</g>
<!-- Node27&#45;&gt;Node14 -->
<g id="edge45_Node000027_Node000014" class="edge">
<title>Node27&#45;&gt;Node14</title>
<g id="a_edge45_Node000027_Node000014"><a xlink:title=" ">
<path fill="none" stroke="#63b8ff" d="M1417.02,-190.65C1426.69,-181.27 1437.77,-170.53 1446.39,-162.16"/>
<polygon fill="#63b8ff" stroke="#63b8ff" points="1414.39,-188.32 1409.65,-197.8 1419.26,-193.35 1414.39,-188.32"/>
</a>
</g>
</g>
<!-- Node28 -->
<g id="Node000028" class="node">
<title>Node28</title>
<g id="a_Node000028"><a xlink:href="wrapper_2uds__client_2uds__client_8cc.html" target="_top" xlink:title=" ">
<polygon fill="white" stroke="#666666" points="1389.5,-162 1274.5,-162 1274.5,-132 1389.5,-132 1389.5,-162"/>
<text text-anchor="start" x="1282.5" y="-150" font-family="Helvetica,sans-Serif" font-size="10.00">unilink/wrapper/uds</text>
<text text-anchor="middle" x="1332" y="-139" font-family="Helvetica,sans-Serif" font-size="10.00">_client/uds_client.cc</text>
</a>
</g>
</g>
<!-- Node27&#45;&gt;Node28 -->
<g id="edge47_Node000027_Node000028" class="edge">
<title>Node27&#45;&gt;Node28</title>
<g id="a_edge47_Node000027_Node000028"><a xlink:title=" ">
<path fill="none" stroke="#63b8ff" d="M1373.98,-190.65C1364.75,-181.27 1354.17,-170.53 1345.94,-162.16"/>
<polygon fill="#63b8ff" stroke="#63b8ff" points="1371.51,-193.13 1381.02,-197.8 1376.5,-188.21 1371.51,-193.13"/>
</a>
</g>
</g>
<!-- Node29&#45;&gt;Node7 -->
<g id="edge49_Node000029_Node000007" class="edge">
<title>Node29&#45;&gt;Node7</title>
<g id="a_edge49_Node000029_Node000007"><a xlink:title=" ">
<path fill="none" stroke="#63b8ff" d="M1807.05,-264.26C1820.89,-255.52 1837.38,-243.02 1848,-228 1873.21,-192.33 1896.79,-165.7 1869,-132 1809.98,-60.43 1145.15,-26.61 949.72,-18.17"/>
<polygon fill="#63b8ff" stroke="#63b8ff" points="1805.18,-261.3 1798.42,-269.46 1808.79,-267.3 1805.18,-261.3"/>
</a>
</g>
</g>
<!-- Node30 -->
<g id="Node000030" class="node">
<title>Node30</title>
<g id="a_Node000030"><a xlink:href="wrapper_2tcp__server_2tcp__server_8hpp.html" target="_top" xlink:title=" ">
<polygon fill="white" stroke="#666666" points="1665.5,-228 1538.5,-228 1538.5,-198 1665.5,-198 1665.5,-228"/>
<text text-anchor="start" x="1546.5" y="-216" font-family="Helvetica,sans-Serif" font-size="10.00">unilink/wrapper/tcp</text>
<text text-anchor="middle" x="1602" y="-205" font-family="Helvetica,sans-Serif" font-size="10.00">_server/tcp_server.hpp</text>
</a>
</g>
</g>
<!-- Node29&#45;&gt;Node30 -->
<g id="edge50_Node000029_Node000030" class="edge">
<title>Node29&#45;&gt;Node30</title>
<g id="a_edge50_Node000029_Node000030"><a xlink:title=" ">
<path fill="none" stroke="#63b8ff" d="M1748.05,-265.93C1717.81,-255.18 1673.56,-239.44 1641.7,-228.12"/>
<polygon fill="#63b8ff" stroke="#63b8ff" points="1747.13,-269.32 1757.72,-269.37 1749.47,-262.72 1747.13,-269.32"/>
</a>
</g>
</g>
<!-- Node32 -->
<g id="Node000032" class="node">
<title>Node32</title>
<g id="a_Node000032"><a xlink:href="udp__server_8hpp.html" target="_top" xlink:title=" ">
<polygon fill="white" stroke="#666666" points="1838.5,-228 1725.5,-228 1725.5,-198 1838.5,-198 1838.5,-228"/>
<text text-anchor="start" x="1733.5" y="-216" font-family="Helvetica,sans-Serif" font-size="10.00">unilink/wrapper/udp</text>
<text text-anchor="middle" x="1782" y="-205" font-family="Helvetica,sans-Serif" font-size="10.00">/udp_server.hpp</text>
</a>
</g>
</g>
<!-- Node29&#45;&gt;Node32 -->
<g id="edge54_Node000029_Node000032" class="edge">
<title>Node29&#45;&gt;Node32</title>
<g id="a_edge54_Node000029_Node000032"><a xlink:title=" ">
<path fill="none" stroke="#63b8ff" d="M1782,-259.35C1782,-249.47 1782,-237.51 1782,-228.36"/>
<polygon fill="#63b8ff" stroke="#63b8ff" points="1778.5,-259.37 1782,-269.37 1785.5,-259.37 1778.5,-259.37"/>
</a>
</g>
</g>
<!-- Node34 -->
<g id="Node000034" class="node">
<title>Node34</title>
<g id="a_Node000034"><a xlink:href="wrapper_2uds__server_2uds__server_8hpp.html" target="_top" xlink:title=" ">
<polygon fill="white" stroke="#666666" points="2045.5,-228 1916.5,-228 1916.5,-198 2045.5,-198 2045.5,-228"/>
<text text-anchor="start" x="1924.5" y="-216" font-family="Helvetica,sans-Serif" font-size="10.00">unilink/wrapper/uds</text>
<text text-anchor="middle" x="1981" y="-205" font-family="Helvetica,sans-Serif" font-size="10.00">_server/uds_server.hpp</text>
</a>
</g>
</g>
<!-- Node29&#45;&gt;Node34 -->
<g id="edge57_Node000029_Node000034" class="edge">
<title>Node29&#45;&gt;Node34</title>
<g id="a_edge57_Node000029_Node000034"><a xlink:title=" ">
<path fill="none" stroke="#63b8ff" d="M1818.67,-266.21C1852.11,-255.45 1901.58,-239.54 1937.11,-228.12"/>
<polygon fill="#63b8ff" stroke="#63b8ff" points="1817.29,-262.98 1808.84,-269.37 1819.43,-269.64 1817.29,-262.98"/>
</a>
</g>
</g>
<!-- Node30&#45;&gt;Node7 -->
<g id="edge52_Node000030_Node000007" class="edge">
<title>Node30&#45;&gt;Node7</title>
<g id="a_edge52_Node000030_Node000007"><a xlink:title=" ">
<path fill="none" stroke="#63b8ff" d="M1592.68,-188.05C1578.13,-154.25 1546.53,-93.62 1498,-66 1450.94,-39.22 1088.1,-23.11 949.54,-17.88"/>
<polygon fill="#63b8ff" stroke="#63b8ff" points="1589.58,-189.71 1596.65,-197.61 1596.05,-187.03 1589.58,-189.71"/>
</a>
</g>
</g>
<!-- Node30&#45;&gt;Node10 -->
<g id="edge51_Node000030_Node000010" class="edge">
<title>Node30&#45;&gt;Node10</title>
<g id="a_edge51_Node000030_Node000010"><a xlink:title=" ">
<path fill="none" stroke="#63b8ff" d="M1528.09,-203.84C1507.67,-201.75 1485.49,-199.64 1465,-198 1187.64,-175.85 1116.97,-188.58 840,-162 824.4,-160.5 807.55,-158.43 792.04,-156.34"/>
<polygon fill="#63b8ff" stroke="#63b8ff" points="1527.97,-207.35 1538.28,-204.9 1528.69,-200.38 1527.97,-207.35"/>
</a>
</g>
</g>
<!-- Node31 -->
<g id="Node000031" class="node">
<title>Node31</title>
<g id="a_Node000031"><a xlink:href="wrapper_2tcp__server_2tcp__server_8cc.html" target="_top" xlink:title=" ">
<polygon fill="white" stroke="#666666" points="1728.5,-162 1609.5,-162 1609.5,-132 1728.5,-132 1728.5,-162"/>
<text text-anchor="start" x="1617.5" y="-150" font-family="Helvetica,sans-Serif" font-size="10.00">unilink/wrapper/tcp</text>
<text text-anchor="middle" x="1669" y="-139" font-family="Helvetica,sans-Serif" font-size="10.00">_server/tcp_server.cc</text>
</a>
</g>
</g>
<!-- Node30&#45;&gt;Node31 -->
<g id="edge53_Node000030_Node000031" class="edge">
<title>Node30&#45;&gt;Node31</title>
<g id="a_edge53_Node000030_Node000031"><a xlink:title=" ">
<path fill="none" stroke="#63b8ff" d="M1624.35,-190.65C1634.17,-181.27 1645.42,-170.53 1654.17,-162.16"/>
<polygon fill="#63b8ff" stroke="#63b8ff" points="1621.68,-188.36 1616.87,-197.8 1626.52,-193.42 1621.68,-188.36"/>
</a>
</g>
</g>
<!-- Node32&#45;&gt;Node12 -->
<g id="edge55_Node000032_Node000012" class="edge">
<title>Node32&#45;&gt;Node12</title>
<g id="a_edge55_Node000032_Node000012"><a xlink:title=" ">
<path fill="none" stroke="#63b8ff" d="M1715.38,-202.45C1702.03,-200.77 1688.08,-199.19 1675,-198 1360.33,-169.48 1278.1,-204.42 965,-162 961.89,-161.58 958.71,-161.08 955.51,-160.53"/>
<polygon fill="#63b8ff" stroke="#63b8ff" points="1715.09,-205.94 1725.45,-203.75 1715.98,-199 1715.09,-205.94"/>
</a>
</g>
</g>
<!-- Node33 -->
<g id="Node000033" class="node">
<title>Node33</title>
<g id="a_Node000033"><a xlink:href="udp__server_8cc.html" target="_top" xlink:title=" ">
<polygon fill="white" stroke="#666666" points="1859.5,-162 1746.5,-162 1746.5,-132 1859.5,-132 1859.5,-162"/>
<text text-anchor="start" x="1754.5" y="-150" font-family="Helvetica,sans-Serif" font-size="10.00">unilink/wrapper/udp</text>
<text text-anchor="middle" x="1803" y="-139" font-family="Helvetica,sans-Serif" font-size="10.00">/udp_server.cc</text>
</a>
</g>
</g>
<!-- Node32&#45;&gt;Node33 -->
<g id="edge56_Node000032_Node000033" class="edge">
<title>Node32&#45;&gt;Node33</title>
<g id="a_edge56_Node000032_Node000033"><a xlink:title=" ">
<path fill="none" stroke="#63b8ff" d="M1789.84,-188.11C1792.7,-179.38 1795.85,-169.78 1798.35,-162.16"/>
<polygon fill="#63b8ff" stroke="#63b8ff" points="1786.45,-187.2 1786.66,-197.8 1793.1,-189.39 1786.45,-187.2"/>
</a>
</g>
</g>
<!-- Node34&#45;&gt;Node7 -->
<g id="edge59_Node000034_Node000007" class="edge">
<title>Node34&#45;&gt;Node7</title>
<g id="a_edge59_Node000034_Node000007"><a xlink:title=" ">
<path fill="none" stroke="#63b8ff" d="M1963.31,-189.49C1957.12,-181.11 1950.39,-171.36 1945,-162 1921.67,-121.49 1940.59,-92.38 1902,-66 1862.44,-38.95 1152.74,-21.56 949.8,-17.12"/>
<polygon fill="#63b8ff" stroke="#63b8ff" points="1960.65,-191.78 1969.47,-197.65 1966.24,-187.56 1960.65,-191.78"/>
</a>
</g>
</g>
<!-- Node34&#45;&gt;Node14 -->
<g id="edge58_Node000034_Node000014" class="edge">
<title>Node34&#45;&gt;Node14</title>
<g id="a_edge58_Node000034_Node000014"><a xlink:title=" ">
<path fill="none" stroke="#63b8ff" d="M1906.46,-202.83C1800.33,-189.76 1608.21,-166.12 1514.84,-154.63"/>
<polygon fill="#63b8ff" stroke="#63b8ff" points="1906.1,-206.31 1916.45,-204.06 1906.96,-199.36 1906.1,-206.31"/>
</a>
</g>
</g>
<!-- Node35 -->
<g id="Node000035" class="node">
<title>Node35</title>
<g id="a_Node000035"><a xlink:href="wrapper_2uds__server_2uds__server_8cc.html" target="_top" xlink:title=" ">
<polygon fill="white" stroke="#666666" points="2076,-162 1954,-162 1954,-132 2076,-132 2076,-162"/>
<text text-anchor="start" x="1962" y="-150" font-family="Helvetica,sans-Serif" font-size="10.00">unilink/wrapper/uds</text>
<text text-anchor="middle" x="2015" y="-139" font-family="Helvetica,sans-Serif" font-size="10.00">_server/uds_server.cc</text>
</a>
</g>
</g>
<!-- Node34&#45;&gt;Node35 -->
<g id="edge60_Node000034_Node000035" class="edge">
<title>Node34&#45;&gt;Node35</title>
<g id="a_edge60_Node000034_Node000035"><a xlink:title=" ">
<path fill="none" stroke="#63b8ff" d="M1993.24,-188.96C1998,-180 2003.3,-170.03 2007.48,-162.16"/>
<polygon fill="#63b8ff" stroke="#63b8ff" points="1990.15,-187.32 1988.55,-197.8 1996.33,-190.61 1990.15,-187.32"/>
</a>
</g>
</g>
</g>
</svg>

<g id="navigator" transform="translate(0 0)" fill="#404254">
  <rect fill="#f2f5e9" fill-opacity="0.5" stroke="#606060" stroke-width=".5" x="0" y="0" width="60" height="60"/>
  <use id="zoomplus" xlink:href="#zoomPlus" x="17" y="9" onmousedown="handleZoom(evt,'in')"/>
  <use id="zoomminus" xlink:href="#zoomMin" x="42" y="9" onmousedown="handleZoom(evt,'out')"/>
  <use id="reset" xlink:href="#resetDef" x="30" y="36" onmousedown="handleReset()"/>
   <use id="arrowup" xlink:href="#arrowUp" x="0" y="0" onmousedown="handlePan(0,-1)"/>
  <use id="arrowright" xlink:href="#arrowRight" x="0" y="0" onmousedown="handlePan(1,0)"/>
  <use id="arrowdown" xlink:href="#arrowDown" x="0" y="0" onmousedown="handlePan(0,1)"/>
  <use id="arrowleft" xlink:href="#arrowLeft" x="0" y="0" onmousedown="handlePan(-1,0)"/>
</g>
<svg viewBox="0 0 15 15" width="100%" height="30px" preserveAspectRatio="xMaxYMin meet">
 <g id="arrow_out" transform="scale(0.3 0.3)">
  <a xlink:href="iframer_8hpp__dep__incl_org.svg" target="_base">
   <rect id="button" ry="5" rx="5" y="6" x="6" height="38" width="38"
        fill="#f2f5e9" fill-opacity="0.5" stroke="#606060" stroke-width="1.0"/>
   <path id="arrow"
     d="M 11.500037,31.436501 C 11.940474,20.09759 22.043105,11.32322 32.158766,21.979434 L 37.068811,17.246167 C 37.068811,17.246167 37.088388,32 37.088388,32 L 22.160133,31.978069 C 22.160133,31.978069 26.997745,27.140456 26.997745,27.140456 C 18.528582,18.264221 13.291696,25.230495 11.500037,31.436501 z"
     style="fill:#404040;"/>
  </a>
 </g>
</svg>

<style type='text/css'>
<![CDATA[
[data-mouse-over-selected='false'] { opacity: 0.7; }
[data-mouse-over-selected='true']  { opacity: 1.0; }
]]>
</style>
<script type="application/ecmascript"><![CDATA[
document.addEventListener('DOMContentLoaded', (event) => {
  highlightEdges();
  highlightAdjacentNodes();
});
]]></script>
</svg>
