<?xml version="1.0" encoding="UTF-8" standalone="no"?>
<!DOCTYPE svg PUBLIC "-//W3C//DTD SVG 1.1//EN"
 "http://www.w3.org/Graphics/SVG/1.1/DTD/svg11.dtd">
<!-- Generated by graphviz version 2.43.0 (0)
 -->
<!-- Title: Graphical Class Hierarchy Pages: 1 -->
<svg width="431pt" height="235pt"
 viewBox="0.00 0.00 431.00 235.00" xmlns="http://www.w3.org/2000/svg" xmlns:xlink="http://www.w3.org/1999/xlink">
<g id="graph0" class="graph" transform="scale(1 1) rotate(0) translate(4 231)">
<title>Graphical Class Hierarchy</title>
<polygon fill="white" stroke="transparent" points="-4,4 -4,-231 427,-231 427,4 -4,4"/>
<!-- Node87 -->
<g id="node1" class="node">
<title>Node87</title>
<g id="a_node1"><a xlink:title=" ">
<polygon fill="white" stroke="#bfbfbf" points="0,-104 0,-123 104,-123 104,-104 0,-104"/>
<text text-anchor="middle" x="52" y="-111" font-family="Helvetica,sans-Serif" font-size="10.00">std::runtime_error</text>
</a>
</g>
</g>
<!-- Node0 -->
<g id="node2" class="node">
<title>Node0</title>
<g id="a_node2"><a xlink:href="classunilink_1_1diagnostics_1_1UnilinkException.html" target="_top" xlink:title="Base exception class for all unilink exceptions.">
<polygon fill="white" stroke="black" points="140,-98.5 140,-128.5 251,-128.5 251,-98.5 140,-98.5"/>
<text text-anchor="start" x="148" y="-116.5" font-family="Helvetica,sans-Serif" font-size="10.00">unilink::diagnostics</text>
<text text-anchor="middle" x="195.5" y="-105.5" font-family="Helvetica,sans-Serif" font-size="10.00">::UnilinkException</text>
</a>
</g>
</g>
<!-- Node87&#45;&gt;Node0 -->
<g id="edge1" class="edge">
<title>Node87&#45;&gt;Node0</title>
<path fill="none" stroke="midnightblue" d="M114.26,-113.5C122.71,-113.5 131.34,-113.5 139.67,-113.5"/>
<polygon fill="midnightblue" stroke="midnightblue" points="114.08,-110 104.08,-113.5 114.08,-117 114.08,-110"/>
</g>
<!-- Node1 -->
<g id="node3" class="node">
<title>Node1</title>
<g id="a_node3"><a xlink:href="classunilink_1_1diagnostics_1_1BuilderException.html" target="_top" xlink:title="Exception thrown during builder operations.">
<polygon fill="white" stroke="black" points="299.5,-196.5 299.5,-226.5 410.5,-226.5 410.5,-196.5 299.5,-196.5"/>
<text text-anchor="start" x="307.5" y="-214.5" font-family="Helvetica,sans-Serif" font-size="10.00">unilink::diagnostics</text>
<text text-anchor="middle" x="355" y="-203.5" font-family="Helvetica,sans-Serif" font-size="10.00">::BuilderException</text>
</a>
</g>
</g>
<!-- Node0&#45;&gt;Node1 -->
<g id="edge2" class="edge">
<title>Node0&#45;&gt;Node1</title>
<path fill="none" stroke="midnightblue" d="M219.03,-135.65C236.43,-151.77 261.72,-173.2 287,-187.5 292.81,-190.78 299.15,-193.75 305.53,-196.39"/>
<polygon fill="midnightblue" stroke="midnightblue" points="221.3,-132.97 211.63,-128.65 216.5,-138.06 221.3,-132.97"/>
</g>
<!-- Node2 -->
<g id="node4" class="node">
<title>Node2</title>
<g id="a_node4"><a xlink:href="classunilink_1_1diagnostics_1_1ConfigurationException.html" target="_top" xlink:title="Exception thrown during configuration operations.">
<polygon fill="white" stroke="black" points="287,-147.5 287,-177.5 423,-177.5 423,-147.5 287,-147.5"/>
<text text-anchor="start" x="295" y="-165.5" font-family="Helvetica,sans-Serif" font-size="10.00">unilink::diagnostics</text>
<text text-anchor="middle" x="355" y="-154.5" font-family="Helvetica,sans-Serif" font-size="10.00">::ConfigurationException</text>
</a>
</g>
</g>
<!-- Node0&#45;&gt;Node2 -->
<g id="edge3" class="edge">
<title>Node0&#45;&gt;Node2</title>
<path fill="none" stroke="midnightblue" d="M254.72,-131.61C271.46,-136.82 289.54,-142.45 305.62,-147.45"/>
<polygon fill="midnightblue" stroke="midnightblue" points="255.63,-128.23 245.04,-128.6 253.55,-134.91 255.63,-128.23"/>
</g>
<!-- Node3 -->
<g id="node5" class="node">
<title>Node3</title>
<g id="a_node5"><a xlink:href="classunilink_1_1diagnostics_1_1ConnectionException.html" target="_top" xlink:title="Exception thrown during connection operations.">
<polygon fill="white" stroke="black" points="292.5,-98.5 292.5,-128.5 417.5,-128.5 417.5,-98.5 292.5,-98.5"/>
<text text-anchor="start" x="300.5" y="-116.5" font-family="Helvetica,sans-Serif" font-size="10.00">unilink::diagnostics</text>
<text text-anchor="middle" x="355" y="-105.5" font-family="Helvetica,sans-Serif" font-size="10.00">::ConnectionException</text>
</a>
</g>
</g>
<!-- Node0&#45;&gt;Node3 -->
<g id="edge4" class="edge">
<title>Node0&#45;&gt;Node3</title>
<path fill="none" stroke="midnightblue" d="M261.3,-113.5C271.6,-113.5 282.22,-113.5 292.44,-113.5"/>
<polygon fill="midnightblue" stroke="midnightblue" points="261.14,-110 251.14,-113.5 261.14,-117 261.14,-110"/>
</g>
<!-- Node4 -->
<g id="node6" class="node">
<title>Node4</title>
<g id="a_node6"><a xlink:href="classunilink_1_1diagnostics_1_1MemoryException.html" target="_top" xlink:title="Exception thrown during memory operations.">
<polygon fill="white" stroke="black" points="299.5,-49.5 299.5,-79.5 410.5,-79.5 410.5,-49.5 299.5,-49.5"/>
<text text-anchor="start" x="307.5" y="-67.5" font-family="Helvetica,sans-Serif" font-size="10.00">unilink::diagnostics</text>
<text text-anchor="middle" x="355" y="-56.5" font-family="Helvetica,sans-Serif" font-size="10.00">::MemoryException</text>
</a>
</g>
</g>
<!-- Node0&#45;&gt;Node4 -->
<g id="edge5" class="edge">
<title>Node0&#45;&gt;Node4</title>
<path fill="none" stroke="midnightblue" d="M254.72,-95.39C271.46,-90.18 289.54,-84.55 305.62,-79.55"/>
<polygon fill="midnightblue" stroke="midnightblue" points="253.55,-92.09 245.04,-98.4 255.63,-98.77 253.55,-92.09"/>
</g>
<!-- Node5 -->
<g id="node7" class="node">
<title>Node5</title>
<g id="a_node7"><a xlink:href="classunilink_1_1diagnostics_1_1ValidationException.html" target="_top" xlink:title="Exception thrown during input validation.">
<polygon fill="white" stroke="black" points="295.5,-0.5 295.5,-30.5 414.5,-30.5 414.5,-0.5 295.5,-0.5"/>
<text text-anchor="start" x="303.5" y="-18.5" font-family="Helvetica,sans-Serif" font-size="10.00">unilink::diagnostics</text>
<text text-anchor="middle" x="355" y="-7.5" font-family="Helvetica,sans-Serif" font-size="10.00">::ValidationException</text>
</a>
</g>
</g>
<!-- Node0&#45;&gt;Node5 -->
<g id="edge6" class="edge">
<title>Node0&#45;&gt;Node5</title>
<path fill="none" stroke="midnightblue" d="M219.46,-91.48C236.9,-75.66 262.06,-54.71 287,-40.5 293.47,-36.81 300.59,-33.48 307.7,-30.54"/>
<polygon fill="midnightblue" stroke="midnightblue" points="217,-88.99 212.02,-98.34 221.74,-94.14 217,-88.99"/>
</g>
</g>
</svg>
