<?xml version="1.0" encoding="UTF-8" standalone="no"?>
<!DOCTYPE svg PUBLIC "-//W3C//DTD SVG 1.1//EN"
 "http://www.w3.org/Graphics/SVG/1.1/DTD/svg11.dtd">
<!-- Generated by graphviz version 2.43.0 (0)
 -->
<!-- Title: unilink/util/input_validator.cc Pages: 1 -->
<svg width="834pt" height="225pt"
 viewBox="0.00 0.00 833.50 225.00" xmlns="http://www.w3.org/2000/svg" xmlns:xlink="http://www.w3.org/1999/xlink">
<g id="graph0" class="graph" transform="scale(1 1) rotate(0) translate(4 221)">
<title>unilink/util/input_validator.cc</title>
<!-- Node1 -->
<g id="Node000001" class="node">
<title>Node1</title>
<g id="a_Node000001"><a xlink:title=" ">
<polygon fill="#999999" stroke="#666666" points="577,-217 481,-217 481,-187 577,-187 577,-217"/>
<text text-anchor="start" x="489" y="-205" font-family="Helvetica,sans-Serif" font-size="10.00">unilink/util/input</text>
<text text-anchor="middle" x="529" y="-194" font-family="Helvetica,sans-Serif" font-size="10.00">_validator.cc</text>
</a>
</g>
</g>
<!-- Node2 -->
<g id="Node000002" class="node">
<title>Node2</title>
<g id="a_Node000002"><a xlink:href="input__validator_8hpp.html" target="_top" xlink:title=" ">
<polygon fill="white" stroke="#666666" points="501,-151 405,-151 405,-121 501,-121 501,-151"/>
<text text-anchor="start" x="413" y="-139" font-family="Helvetica,sans-Serif" font-size="10.00">unilink/util/input</text>
<text text-anchor="middle" x="453" y="-128" font-family="Helvetica,sans-Serif" font-size="10.00">_validator.hpp</text>
</a>
</g>
</g>
<!-- Node1&#45;&gt;Node2 -->
<g id="edge1_Node000001_Node000002" class="edge">
<title>Node1&#45;&gt;Node2</title>
<g id="a_edge1_Node000001_Node000002"><a xlink:title=" ">
<path fill="none" stroke="#63b8ff" d="M512.13,-186.8C502,-178.26 488.92,-167.25 477.65,-157.75"/>
<polygon fill="#63b8ff" stroke="#63b8ff" points="479.72,-154.93 469.82,-151.16 475.21,-160.28 479.72,-154.93"/>
</a>
</g>
</g>
<!-- Node3 -->
<g id="Node000003" class="node">
<title>Node3</title>
<g id="a_Node000003"><a xlink:title=" ">
<polygon fill="#e0e0e0" stroke="#999999" points="64,-79.5 0,-79.5 0,-60.5 64,-60.5 64,-79.5"/>
<text text-anchor="middle" x="32" y="-67.5" font-family="Helvetica,sans-Serif" font-size="10.00">algorithm</text>
</a>
</g>
</g>
<!-- Node1&#45;&gt;Node3 -->
<g id="edge19_Node000001_Node000003" class="edge">
<title>Node1&#45;&gt;Node3</title>
<g id="a_edge19_Node000001_Node000003"><a xlink:title=" ">
<path fill="none" stroke="#63b8ff" d="M480.73,-190.06C397.12,-170.82 220.2,-128.78 73,-85 70.69,-84.31 68.31,-83.58 65.93,-82.82"/>
<polygon fill="#63b8ff" stroke="#63b8ff" points="66.77,-79.41 56.18,-79.61 64.59,-86.06 66.77,-79.41"/>
</a>
</g>
</g>
<!-- Node9 -->
<g id="Node000009" class="node">
<title>Node9</title>
<g id="a_Node000009"><a xlink:title=" ">
<polygon fill="#e0e0e0" stroke="#999999" points="794.5,-79.5 721.5,-79.5 721.5,-60.5 794.5,-60.5 794.5,-79.5"/>
<text text-anchor="middle" x="758" y="-67.5" font-family="Helvetica,sans-Serif" font-size="10.00">string_view</text>
</a>
</g>
</g>
<!-- Node1&#45;&gt;Node9 -->
<g id="edge22_Node000001_Node000009" class="edge">
<title>Node1&#45;&gt;Node9</title>
<g id="a_edge22_Node000001_Node000009"><a xlink:title=" ">
<path fill="none" stroke="#63b8ff" d="M528.16,-186.7C527.94,-168.8 530.45,-138.37 548,-121 599.5,-70.04 636.71,-102.59 707,-85 710.6,-84.1 714.33,-83.14 718.06,-82.15"/>
<polygon fill="#63b8ff" stroke="#63b8ff" points="719.11,-85.49 727.86,-79.52 717.29,-78.73 719.11,-85.49"/>
</a>
</g>
</g>
<!-- Node16 -->
<g id="Node000016" class="node">
<title>Node16</title>
<g id="a_Node000016"><a xlink:title=" ">
<polygon fill="#e0e0e0" stroke="#999999" points="698.5,-145.5 557.5,-145.5 557.5,-126.5 698.5,-126.5 698.5,-145.5"/>
<text text-anchor="middle" x="628" y="-133.5" font-family="Helvetica,sans-Serif" font-size="10.00">boost/asio/ip/address.hpp</text>
</a>
</g>
</g>
<!-- Node1&#45;&gt;Node16 -->
<g id="edge20_Node000001_Node000016" class="edge">
<title>Node1&#45;&gt;Node16</title>
<g id="a_edge20_Node000001_Node000016"><a xlink:title=" ">
<path fill="none" stroke="#63b8ff" d="M550.97,-186.8C567.41,-176.17 589.79,-161.7 606.19,-151.1"/>
<polygon fill="#63b8ff" stroke="#63b8ff" points="608.11,-154.03 614.61,-145.66 604.31,-148.15 608.11,-154.03"/>
</a>
</g>
</g>
<!-- Node17 -->
<g id="Node000017" class="node">
<title>Node17</title>
<g id="a_Node000017"><a xlink:title=" ">
<polygon fill="#e0e0e0" stroke="#999999" points="825.5,-151 716.5,-151 716.5,-121 825.5,-121 825.5,-151"/>
<text text-anchor="start" x="724.5" y="-139" font-family="Helvetica,sans-Serif" font-size="10.00">boost/system/error</text>
<text text-anchor="middle" x="771" y="-128" font-family="Helvetica,sans-Serif" font-size="10.00">_code.hpp</text>
</a>
</g>
</g>
<!-- Node1&#45;&gt;Node17 -->
<g id="edge21_Node000001_Node000017" class="edge">
<title>Node1&#45;&gt;Node17</title>
<g id="a_edge21_Node000001_Node000017"><a xlink:title=" ">
<path fill="none" stroke="#63b8ff" d="M577.1,-188.28C614.67,-178.34 667.18,-164.46 708.08,-153.64"/>
<polygon fill="#63b8ff" stroke="#63b8ff" points="709.17,-156.97 717.95,-151.03 707.38,-150.2 709.17,-156.97"/>
</a>
</g>
</g>
<!-- Node2&#45;&gt;Node3 -->
<g id="edge2_Node000002_Node000003" class="edge">
<title>Node2&#45;&gt;Node3</title>
<g id="a_edge2_Node000002_Node000003"><a xlink:title=" ">
<path fill="none" stroke="#63b8ff" d="M404.76,-131.73C332.06,-126.12 190.43,-112.49 73,-85 70.02,-84.3 66.95,-83.47 63.9,-82.57"/>
<polygon fill="#63b8ff" stroke="#63b8ff" points="64.91,-79.22 54.32,-79.52 62.79,-85.89 64.91,-79.22"/>
</a>
</g>
</g>
<!-- Node4 -->
<g id="Node000004" class="node">
<title>Node4</title>
<g id="a_Node000004"><a xlink:title=" ">
<polygon fill="#e0e0e0" stroke="#999999" points="424.5,-79.5 375.5,-79.5 375.5,-60.5 424.5,-60.5 424.5,-79.5"/>
<text text-anchor="middle" x="400" y="-67.5" font-family="Helvetica,sans-Serif" font-size="10.00">cctype</text>
</a>
</g>
</g>
<!-- Node2&#45;&gt;Node4 -->
<g id="edge3_Node000002_Node000004" class="edge">
<title>Node2&#45;&gt;Node4</title>
<g id="a_edge3_Node000002_Node000004"><a xlink:title=" ">
<path fill="none" stroke="#63b8ff" d="M441.24,-120.8C433.14,-111.01 422.34,-97.98 413.83,-87.7"/>
<polygon fill="#63b8ff" stroke="#63b8ff" points="416.4,-85.31 407.32,-79.84 411.01,-89.78 416.4,-85.31"/>
</a>
</g>
</g>
<!-- Node5 -->
<g id="Node000005" class="node">
<title>Node5</title>
<g id="a_Node000005"><a xlink:title=" ">
<polygon fill="#e0e0e0" stroke="#999999" points="341,-19 291,-19 291,0 341,0 341,-19"/>
<text text-anchor="middle" x="316" y="-7" font-family="Helvetica,sans-Serif" font-size="10.00">cstdint</text>
</a>
</g>
</g>
<!-- Node2&#45;&gt;Node5 -->
<g id="edge4_Node000002_Node000005" class="edge">
<title>Node2&#45;&gt;Node5</title>
<g id="a_edge4_Node000002_Node000005"><a xlink:title=" ">
<path fill="none" stroke="#63b8ff" d="M453.23,-120.76C452.76,-103.2 449.35,-73.41 433,-55 412.11,-31.47 377.42,-20.32 351.23,-15.08"/>
<polygon fill="#63b8ff" stroke="#63b8ff" points="351.76,-11.62 341.3,-13.29 350.52,-18.51 351.76,-11.62"/>
</a>
</g>
</g>
<!-- Node6 -->
<g id="Node000006" class="node">
<title>Node6</title>
<g id="a_Node000006"><a xlink:title=" ">
<polygon fill="#e0e0e0" stroke="#999999" points="498,-19 448,-19 448,0 498,0 498,-19"/>
<text text-anchor="middle" x="473" y="-7" font-family="Helvetica,sans-Serif" font-size="10.00">format</text>
</a>
</g>
</g>
<!-- Node2&#45;&gt;Node6 -->
<g id="edge5_Node000002_Node000006" class="edge">
<title>Node2&#45;&gt;Node6</title>
<g id="a_edge5_Node000002_Node000006"><a xlink:title=" ">
<path fill="none" stroke="#63b8ff" d="M457.79,-120.73C460.92,-110.82 464.81,-97.25 467,-85 470.34,-66.27 471.83,-44.56 472.48,-29.42"/>
<polygon fill="#63b8ff" stroke="#63b8ff" points="475.98,-29.4 472.84,-19.29 468.99,-29.16 475.98,-29.4"/>
</a>
</g>
</g>
<!-- Node7 -->
<g id="Node000007" class="node">
<title>Node7</title>
<g id="a_Node000007"><a xlink:title=" ">
<polygon fill="#e0e0e0" stroke="#999999" points="292,-79.5 248,-79.5 248,-60.5 292,-60.5 292,-79.5"/>
<text text-anchor="middle" x="270" y="-67.5" font-family="Helvetica,sans-Serif" font-size="10.00">regex</text>
</a>
</g>
</g>
<!-- Node2&#45;&gt;Node7 -->
<g id="edge6_Node000002_Node000007" class="edge">
<title>Node2&#45;&gt;Node7</title>
<g id="a_edge6_Node000002_Node000007"><a xlink:title=" ">
<path fill="none" stroke="#63b8ff" d="M405.98,-120.95C375.71,-111.56 335.69,-98.5 301,-85 299.82,-84.54 298.63,-84.06 297.42,-83.57"/>
<polygon fill="#63b8ff" stroke="#63b8ff" points="298.79,-80.35 288.22,-79.62 296.03,-86.78 298.79,-80.35"/>
</a>
</g>
</g>
<!-- Node8 -->
<g id="Node000008" class="node">
<title>Node8</title>
<g id="a_Node000008"><a xlink:title=" ">
<polygon fill="#e0e0e0" stroke="#999999" points="560,-19 516,-19 516,0 560,0 560,-19"/>
<text text-anchor="middle" x="538" y="-7" font-family="Helvetica,sans-Serif" font-size="10.00">string</text>
</a>
</g>
</g>
<!-- Node2&#45;&gt;Node8 -->
<g id="edge7_Node000002_Node000008" class="edge">
<title>Node2&#45;&gt;Node8</title>
<g id="a_edge7_Node000002_Node000008"><a xlink:title=" ">
<path fill="none" stroke="#63b8ff" d="M462.75,-120.72C478.53,-97.61 509.58,-52.13 526.44,-27.43"/>
<polygon fill="#63b8ff" stroke="#63b8ff" points="529.4,-29.3 532.15,-19.07 523.62,-25.35 529.4,-29.3"/>
</a>
</g>
</g>
<!-- Node2&#45;&gt;Node9 -->
<g id="edge8_Node000002_Node000009" class="edge">
<title>Node2&#45;&gt;Node9</title>
<g id="a_edge8_Node000002_Node000009"><a xlink:title=" ">
<path fill="none" stroke="#63b8ff" d="M501.03,-123.97C505.74,-122.94 510.46,-121.94 515,-121 600.03,-103.44 622.4,-104.51 707,-85 710.82,-84.12 714.78,-83.14 718.73,-82.13"/>
<polygon fill="#63b8ff" stroke="#63b8ff" points="719.67,-85.5 728.44,-79.56 717.88,-78.73 719.67,-85.5"/>
</a>
</g>
</g>
<!-- Node10 -->
<g id="Node000010" class="node">
<title>Node10</title>
<g id="a_Node000010"><a xlink:title=" ">
<polygon fill="#e0e0e0" stroke="#999999" points="357.5,-79.5 310.5,-79.5 310.5,-60.5 357.5,-60.5 357.5,-79.5"/>
<text text-anchor="middle" x="334" y="-67.5" font-family="Helvetica,sans-Serif" font-size="10.00">vector</text>
</a>
</g>
</g>
<!-- Node2&#45;&gt;Node10 -->
<g id="edge9_Node000002_Node000010" class="edge">
<title>Node2&#45;&gt;Node10</title>
<g id="a_edge9_Node000002_Node000010"><a xlink:title=" ">
<path fill="none" stroke="#63b8ff" d="M426.88,-120.95C406.66,-110.08 378.82,-95.11 358.91,-84.4"/>
<polygon fill="#63b8ff" stroke="#63b8ff" points="360.3,-81.17 349.84,-79.52 356.99,-87.34 360.3,-81.17"/>
</a>
</g>
</g>
<!-- Node11 -->
<g id="Node000011" class="node">
<title>Node11</title>
<g id="a_Node000011"><a xlink:href="constants_8hpp.html" target="_top" xlink:title=" ">
<polygon fill="white" stroke="#666666" points="229.5,-79.5 82.5,-79.5 82.5,-60.5 229.5,-60.5 229.5,-79.5"/>
<text text-anchor="middle" x="156" y="-67.5" font-family="Helvetica,sans-Serif" font-size="10.00">unilink/base/constants.hpp</text>
</a>
</g>
</g>
<!-- Node2&#45;&gt;Node11 -->
<g id="edge10_Node000002_Node000011" class="edge">
<title>Node2&#45;&gt;Node11</title>
<g id="a_edge10_Node000002_Node000011"><a xlink:title=" ">
<path fill="none" stroke="#63b8ff" d="M404.95,-124.65C350.24,-112.86 261.28,-93.69 205.83,-81.74"/>
<polygon fill="#63b8ff" stroke="#63b8ff" points="206.4,-78.28 195.89,-79.6 204.93,-85.12 206.4,-78.28"/>
</a>
</g>
</g>
<!-- Node13 -->
<g id="Node000013" class="node">
<title>Node13</title>
<g id="a_Node000013"><a xlink:href="visibility_8hpp.html" target="_top" xlink:title=" ">
<polygon fill="white" stroke="#666666" points="802,-19 662,-19 662,0 802,0 802,-19"/>
<text text-anchor="middle" x="732" y="-7" font-family="Helvetica,sans-Serif" font-size="10.00">unilink/base/visibility.hpp</text>
</a>
</g>
</g>
<!-- Node2&#45;&gt;Node13 -->
<g id="edge13_Node000002_Node000013" class="edge">
<title>Node2&#45;&gt;Node13</title>
<g id="a_edge13_Node000002_Node000013"><a xlink:title=" ">
<path fill="none" stroke="#63b8ff" d="M501.01,-125.92C561.53,-114.2 659.47,-94.23 674,-85 696.09,-70.97 713.19,-45.46 722.93,-28.25"/>
<polygon fill="#63b8ff" stroke="#63b8ff" points="726.13,-29.69 727.79,-19.22 719.97,-26.36 726.13,-29.69"/>
</a>
</g>
</g>
<!-- Node14 -->
<g id="Node000014" class="node">
<title>Node14</title>
<g id="a_Node000014"><a xlink:href="exceptions_8hpp.html" target="_top" xlink:title=" ">
<polygon fill="white" stroke="#666666" points="665,-85 557,-85 557,-55 665,-55 665,-85"/>
<text text-anchor="start" x="565" y="-73" font-family="Helvetica,sans-Serif" font-size="10.00">unilink/diagnostics</text>
<text text-anchor="middle" x="611" y="-62" font-family="Helvetica,sans-Serif" font-size="10.00">/exceptions.hpp</text>
</a>
</g>
</g>
<!-- Node2&#45;&gt;Node14 -->
<g id="edge14_Node000002_Node000014" class="edge">
<title>Node2&#45;&gt;Node14</title>
<g id="a_edge14_Node000002_Node000014"><a xlink:title=" ">
<path fill="none" stroke="#63b8ff" d="M487.67,-120.95C511.03,-111.49 542.04,-98.93 567.11,-88.78"/>
<polygon fill="#63b8ff" stroke="#63b8ff" points="568.45,-92.01 576.41,-85.01 565.82,-85.52 568.45,-92.01"/>
</a>
</g>
</g>
<!-- Node11&#45;&gt;Node5 -->
<g id="edge12_Node000011_Node000005" class="edge">
<title>Node11&#45;&gt;Node5</title>
<g id="a_edge12_Node000011_Node000005"><a xlink:title=" ">
<path fill="none" stroke="#63b8ff" d="M179.27,-60.49C206.64,-50.49 252.27,-33.8 283.22,-22.49"/>
<polygon fill="#63b8ff" stroke="#63b8ff" points="284.52,-25.74 292.71,-19.02 282.11,-19.16 284.52,-25.74"/>
</a>
</g>
</g>
<!-- Node12 -->
<g id="Node000012" class="node">
<title>Node12</title>
<g id="a_Node000012"><a xlink:title=" ">
<polygon fill="#e0e0e0" stroke="#999999" points="182.5,-19 129.5,-19 129.5,0 182.5,0 182.5,-19"/>
<text text-anchor="middle" x="156" y="-7" font-family="Helvetica,sans-Serif" font-size="10.00">cstddef</text>
</a>
</g>
</g>
<!-- Node11&#45;&gt;Node12 -->
<g id="edge11_Node000011_Node000012" class="edge">
<title>Node11&#45;&gt;Node12</title>
<g id="a_edge11_Node000011_Node000012"><a xlink:title=" ">
<path fill="none" stroke="#63b8ff" d="M156,-60.37C156,-52.25 156,-39.81 156,-29.39"/>
<polygon fill="#63b8ff" stroke="#63b8ff" points="159.5,-29.17 156,-19.17 152.5,-29.17 159.5,-29.17"/>
</a>
</g>
</g>
<!-- Node14&#45;&gt;Node6 -->
<g id="edge15_Node000014_Node000006" class="edge">
<title>Node14&#45;&gt;Node6</title>
<g id="a_edge15_Node000014_Node000006"><a xlink:title=" ">
<path fill="none" stroke="#63b8ff" d="M577.95,-54.99C555.02,-45.27 524.76,-32.44 502.62,-23.06"/>
<polygon fill="#63b8ff" stroke="#63b8ff" points="503.95,-19.82 493.38,-19.14 501.22,-26.26 503.95,-19.82"/>
</a>
</g>
</g>
<!-- Node14&#45;&gt;Node8 -->
<g id="edge17_Node000014_Node000008" class="edge">
<title>Node14&#45;&gt;Node8</title>
<g id="a_edge17_Node000014_Node000008"><a xlink:title=" ">
<path fill="none" stroke="#63b8ff" d="M593.33,-54.84C582.3,-46 568.11,-34.63 556.87,-25.62"/>
<polygon fill="#63b8ff" stroke="#63b8ff" points="558.93,-22.79 548.94,-19.27 554.55,-28.25 558.93,-22.79"/>
</a>
</g>
</g>
<!-- Node14&#45;&gt;Node13 -->
<g id="edge18_Node000014_Node000013" class="edge">
<title>Node14&#45;&gt;Node13</title>
<g id="a_edge18_Node000014_Node000013"><a xlink:title=" ">
<path fill="none" stroke="#63b8ff" d="M639.98,-54.99C659.72,-45.45 685.67,-32.9 704.97,-23.57"/>
<polygon fill="#63b8ff" stroke="#63b8ff" points="706.65,-26.64 714.13,-19.14 703.6,-20.34 706.65,-26.64"/>
</a>
</g>
</g>
<!-- Node15 -->
<g id="Node000015" class="node">
<title>Node15</title>
<g id="a_Node000015"><a xlink:title=" ">
<polygon fill="#e0e0e0" stroke="#999999" points="643.5,-19 578.5,-19 578.5,0 643.5,0 643.5,-19"/>
<text text-anchor="middle" x="611" y="-7" font-family="Helvetica,sans-Serif" font-size="10.00">stdexcept</text>
</a>
</g>
</g>
<!-- Node14&#45;&gt;Node15 -->
<g id="edge16_Node000014_Node000015" class="edge">
<title>Node14&#45;&gt;Node15</title>
<g id="a_edge16_Node000014_Node000015"><a xlink:title=" ">
<path fill="none" stroke="#63b8ff" d="M611,-54.84C611,-47.21 611,-37.7 611,-29.45"/>
<polygon fill="#63b8ff" stroke="#63b8ff" points="614.5,-29.27 611,-19.27 607.5,-29.27 614.5,-29.27"/>
</a>
</g>
</g>
</g>
</svg>
