<?xml version="1.0" encoding="UTF-8" standalone="no"?>
<!DOCTYPE svg PUBLIC "-//W3C//DTD SVG 1.1//EN"
 "http://www.w3.org/Graphics/SVG/1.1/DTD/svg11.dtd">
<!-- Generated by graphviz version 2.43.0 (0)
 -->
<!-- Title: unilink/concurrency/io_context_manager.hpp Pages: 1 -->
<svg width="1308pt" height="173pt"
 viewBox="0.00 0.00 1308.00 173.00" xmlns="http://www.w3.org/2000/svg" xmlns:xlink="http://www.w3.org/1999/xlink">
<g id="graph0" class="graph" transform="scale(1 1) rotate(0) translate(4 169)">
<title>unilink/concurrency/io_context_manager.hpp</title>
<polygon fill="white" stroke="transparent" points="-4,4 -4,-169 1304,-169 1304,4 -4,4"/>
<!-- Node1 -->
<g id="node1" class="node">
<title>Node1</title>
<g id="a_node1"><a xlink:title=" ">
<polygon fill="#bfbfbf" stroke="black" points="610.5,-134.5 610.5,-164.5 750.5,-164.5 750.5,-134.5 610.5,-134.5"/>
<text text-anchor="start" x="618.5" y="-152.5" font-family="Helvetica,sans-Serif" font-size="10.00">unilink/concurrency</text>
<text text-anchor="middle" x="680.5" y="-141.5" font-family="Helvetica,sans-Serif" font-size="10.00">/io_context_manager.hpp</text>
</a>
</g>
</g>
<!-- Node2 -->
<g id="node2" class="node">
<title>Node2</title>
<g id="a_node2"><a xlink:href="auto__initializer_8hpp.html" target="_top" xlink:title=" ">
<polygon fill="white" stroke="black" points="382,-67.5 382,-97.5 493,-97.5 493,-67.5 382,-67.5"/>
<text text-anchor="start" x="390" y="-85.5" font-family="Helvetica,sans-Serif" font-size="10.00">unilink/builder/auto</text>
<text text-anchor="middle" x="437.5" y="-74.5" font-family="Helvetica,sans-Serif" font-size="10.00">_initializer.hpp</text>
</a>
</g>
</g>
<!-- Node1&#45;&gt;Node2 -->
<g id="edge1" class="edge">
<title>Node1&#45;&gt;Node2</title>
<path fill="none" stroke="midnightblue" d="M618.25,-131.85C578.64,-121.25 527.89,-107.68 490.25,-97.61"/>
<polygon fill="midnightblue" stroke="midnightblue" points="617.51,-135.27 628.07,-134.48 619.32,-128.51 617.51,-135.27"/>
</g>
<!-- Node6 -->
<g id="node6" class="node">
<title>Node6</title>
<g id="a_node6"><a xlink:href="tcp__server__builder_8cc.html" target="_top" xlink:title=" ">
<polygon fill="white" stroke="black" points="385.5,-0.5 385.5,-30.5 489.5,-30.5 489.5,-0.5 385.5,-0.5"/>
<text text-anchor="start" x="393.5" y="-18.5" font-family="Helvetica,sans-Serif" font-size="10.00">unilink/builder/tcp</text>
<text text-anchor="middle" x="437.5" y="-7.5" font-family="Helvetica,sans-Serif" font-size="10.00">_server_builder.cc</text>
</a>
</g>
</g>
<!-- Node1&#45;&gt;Node6 -->
<g id="edge8" class="edge">
<title>Node1&#45;&gt;Node6</title>
<path fill="none" stroke="midnightblue" d="M643.69,-129.65C625.51,-120.27 603.28,-108.67 583.5,-98 540.58,-74.85 491.11,-46.99 462.18,-30.56"/>
<polygon fill="midnightblue" stroke="midnightblue" points="642.3,-132.88 652.79,-134.35 645.51,-126.65 642.3,-132.88"/>
</g>
<!-- Node7 -->
<g id="node7" class="node">
<title>Node7</title>
<g id="a_node7"><a xlink:href="uds__builder_8cc.html" target="_top" xlink:title=" ">
<polygon fill="white" stroke="black" points="508,-0.5 508,-30.5 615,-30.5 615,-0.5 508,-0.5"/>
<text text-anchor="start" x="516" y="-18.5" font-family="Helvetica,sans-Serif" font-size="10.00">unilink/builder/uds</text>
<text text-anchor="middle" x="561.5" y="-7.5" font-family="Helvetica,sans-Serif" font-size="10.00">_builder.cc</text>
</a>
</g>
</g>
<!-- Node1&#45;&gt;Node7 -->
<g id="edge10" class="edge">
<title>Node1&#45;&gt;Node7</title>
<path fill="none" stroke="midnightblue" d="M646.97,-128.88C634.28,-120.43 620.3,-109.77 609.5,-98 590.52,-77.31 575.48,-47.9 567.58,-30.65"/>
<polygon fill="midnightblue" stroke="midnightblue" points="645.19,-131.9 655.49,-134.37 648.98,-126.02 645.19,-131.9"/>
</g>
<!-- Node8 -->
<g id="node8" class="node">
<title>Node8</title>
<g id="a_node8"><a xlink:href="transport_2uds_2uds__server_8cc.html" target="_top" xlink:title=" ">
<polygon fill="white" stroke="black" points="633,-0.5 633,-30.5 750,-30.5 750,-0.5 633,-0.5"/>
<text text-anchor="start" x="641" y="-18.5" font-family="Helvetica,sans-Serif" font-size="10.00">unilink/transport/uds</text>
<text text-anchor="middle" x="691.5" y="-7.5" font-family="Helvetica,sans-Serif" font-size="10.00">/uds_server.cc</text>
</a>
</g>
</g>
<!-- Node1&#45;&gt;Node8 -->
<g id="edge15" class="edge">
<title>Node1&#45;&gt;Node8</title>
<path fill="none" stroke="midnightblue" d="M645.42,-128.54C634.76,-120.54 624.33,-110.27 618.5,-98 612.59,-85.56 612.1,-79.2 618.5,-67 626.94,-50.89 643.11,-38.91 658.09,-30.66"/>
<polygon fill="midnightblue" stroke="midnightblue" points="643.73,-131.63 653.94,-134.47 647.73,-125.88 643.73,-131.63"/>
</g>
<!-- Node9 -->
<g id="node9" class="node">
<title>Node9</title>
<g id="a_node9"><a xlink:href="udp__builder_8cc.html" target="_top" xlink:title=" ">
<polygon fill="white" stroke="black" points="627,-67.5 627,-97.5 734,-97.5 734,-67.5 627,-67.5"/>
<text text-anchor="start" x="635" y="-85.5" font-family="Helvetica,sans-Serif" font-size="10.00">unilink/builder/udp</text>
<text text-anchor="middle" x="680.5" y="-74.5" font-family="Helvetica,sans-Serif" font-size="10.00">_builder.cc</text>
</a>
</g>
</g>
<!-- Node1&#45;&gt;Node9 -->
<g id="edge9" class="edge">
<title>Node1&#45;&gt;Node9</title>
<path fill="none" stroke="midnightblue" d="M680.5,-124.11C680.5,-115.15 680.5,-105.32 680.5,-97.58"/>
<polygon fill="midnightblue" stroke="midnightblue" points="677,-124.4 680.5,-134.4 684,-124.4 677,-124.4"/>
</g>
<!-- Node10 -->
<g id="node10" class="node">
<title>Node10</title>
<g id="a_node10"><a xlink:href="io__context__manager_8cc.html" target="_top" xlink:title=" ">
<polygon fill="white" stroke="black" points="752.5,-67.5 752.5,-97.5 884.5,-97.5 884.5,-67.5 752.5,-67.5"/>
<text text-anchor="start" x="760.5" y="-85.5" font-family="Helvetica,sans-Serif" font-size="10.00">unilink/concurrency</text>
<text text-anchor="middle" x="818.5" y="-74.5" font-family="Helvetica,sans-Serif" font-size="10.00">/io_context_manager.cc</text>
</a>
</g>
</g>
<!-- Node1&#45;&gt;Node10 -->
<g id="edge11" class="edge">
<title>Node1&#45;&gt;Node10</title>
<path fill="none" stroke="midnightblue" d="M719.5,-130.13C741.43,-119.8 768.37,-107.11 788.61,-97.58"/>
<polygon fill="midnightblue" stroke="midnightblue" points="718,-126.97 710.44,-134.4 720.98,-133.3 718,-126.97"/>
</g>
<!-- Node11 -->
<g id="node11" class="node">
<title>Node11</title>
<g id="a_node11"><a xlink:href="transport_2serial_2serial_8cc.html" target="_top" xlink:title=" ">
<polygon fill="white" stroke="black" points="903,-67.5 903,-97.5 1030,-97.5 1030,-67.5 903,-67.5"/>
<text text-anchor="start" x="911" y="-85.5" font-family="Helvetica,sans-Serif" font-size="10.00">unilink/transport/serial</text>
<text text-anchor="middle" x="966.5" y="-74.5" font-family="Helvetica,sans-Serif" font-size="10.00">/serial.cc</text>
</a>
</g>
</g>
<!-- Node1&#45;&gt;Node11 -->
<g id="edge12" class="edge">
<title>Node1&#45;&gt;Node11</title>
<path fill="none" stroke="midnightblue" d="M751.99,-132.25C798.87,-121.6 859.56,-107.81 904.41,-97.61"/>
<polygon fill="midnightblue" stroke="midnightblue" points="751.18,-128.85 742.21,-134.48 752.73,-135.67 751.18,-128.85"/>
</g>
<!-- Node12 -->
<g id="node12" class="node">
<title>Node12</title>
<g id="a_node12"><a xlink:href="transport_2tcp__client_2tcp__client_8cc.html" target="_top" xlink:title=" ">
<polygon fill="white" stroke="black" points="1048,-67.5 1048,-97.5 1163,-97.5 1163,-67.5 1048,-67.5"/>
<text text-anchor="start" x="1056" y="-85.5" font-family="Helvetica,sans-Serif" font-size="10.00">unilink/transport/tcp</text>
<text text-anchor="middle" x="1105.5" y="-74.5" font-family="Helvetica,sans-Serif" font-size="10.00">_client/tcp_client.cc</text>
</a>
</g>
</g>
<!-- Node1&#45;&gt;Node12 -->
<g id="edge13" class="edge">
<title>Node1&#45;&gt;Node12</title>
<path fill="none" stroke="midnightblue" d="M760.62,-139.01C833.56,-129.95 944.1,-115.16 1039.5,-98 1042.27,-97.5 1045.1,-96.97 1047.96,-96.41"/>
<polygon fill="midnightblue" stroke="midnightblue" points="760.08,-135.55 750.58,-140.25 760.94,-142.5 760.08,-135.55"/>
</g>
<!-- Node13 -->
<g id="node13" class="node">
<title>Node13</title>
<g id="a_node13"><a xlink:href="transport_2tcp__server_2tcp__server_8cc.html" target="_top" xlink:title=" ">
<polygon fill="white" stroke="black" points="1181,-67.5 1181,-97.5 1300,-97.5 1300,-67.5 1181,-67.5"/>
<text text-anchor="start" x="1189" y="-85.5" font-family="Helvetica,sans-Serif" font-size="10.00">unilink/transport/tcp</text>
<text text-anchor="middle" x="1240.5" y="-74.5" font-family="Helvetica,sans-Serif" font-size="10.00">_server/tcp_server.cc</text>
</a>
</g>
</g>
<!-- Node1&#45;&gt;Node13 -->
<g id="edge14" class="edge">
<title>Node1&#45;&gt;Node13</title>
<path fill="none" stroke="midnightblue" d="M760.98,-142.92C858.69,-135.52 1028.32,-120.7 1172.5,-98 1175.24,-97.57 1178.04,-97.1 1180.86,-96.6"/>
<polygon fill="midnightblue" stroke="midnightblue" points="760.59,-139.44 750.88,-143.67 761.11,-146.42 760.59,-139.44"/>
</g>
<!-- Node3 -->
<g id="node3" class="node">
<title>Node3</title>
<g id="a_node3"><a xlink:href="auto__initializer_8cc.html" target="_top" xlink:title=" ">
<polygon fill="white" stroke="black" points="0,-0.5 0,-30.5 111,-30.5 111,-0.5 0,-0.5"/>
<text text-anchor="start" x="8" y="-18.5" font-family="Helvetica,sans-Serif" font-size="10.00">unilink/builder/auto</text>
<text text-anchor="middle" x="55.5" y="-7.5" font-family="Helvetica,sans-Serif" font-size="10.00">_initializer.cc</text>
</a>
</g>
</g>
<!-- Node2&#45;&gt;Node3 -->
<g id="edge2" class="edge">
<title>Node2&#45;&gt;Node3</title>
<path fill="none" stroke="midnightblue" d="M371.78,-72.23C307.53,-62.89 207.01,-47.52 120.5,-31 117.43,-30.41 114.29,-29.79 111.12,-29.14"/>
<polygon fill="midnightblue" stroke="midnightblue" points="371.38,-75.71 381.77,-73.68 372.38,-68.78 371.38,-75.71"/>
</g>
<!-- Node4 -->
<g id="node4" class="node">
<title>Node4</title>
<g id="a_node4"><a xlink:href="serial__builder_8cc.html" target="_top" xlink:title=" ">
<polygon fill="white" stroke="black" points="129.5,-0.5 129.5,-30.5 245.5,-30.5 245.5,-0.5 129.5,-0.5"/>
<text text-anchor="start" x="137.5" y="-18.5" font-family="Helvetica,sans-Serif" font-size="10.00">unilink/builder/serial</text>
<text text-anchor="middle" x="187.5" y="-7.5" font-family="Helvetica,sans-Serif" font-size="10.00">_builder.cc</text>
</a>
</g>
</g>
<!-- Node2&#45;&gt;Node4 -->
<g id="edge3" class="edge">
<title>Node2&#45;&gt;Node4</title>
<path fill="none" stroke="midnightblue" d="M373.72,-64.92C332.92,-54.31 280.57,-40.7 241.77,-30.61"/>
<polygon fill="midnightblue" stroke="midnightblue" points="373,-68.35 383.56,-67.48 374.76,-61.57 373,-68.35"/>
</g>
<!-- Node5 -->
<g id="node5" class="node">
<title>Node5</title>
<g id="a_node5"><a xlink:href="tcp__client__builder_8cc.html" target="_top" xlink:title=" ">
<polygon fill="white" stroke="black" points="263.5,-0.5 263.5,-30.5 367.5,-30.5 367.5,-0.5 263.5,-0.5"/>
<text text-anchor="start" x="271.5" y="-18.5" font-family="Helvetica,sans-Serif" font-size="10.00">unilink/builder/tcp</text>
<text text-anchor="middle" x="315.5" y="-7.5" font-family="Helvetica,sans-Serif" font-size="10.00">_client_builder.cc</text>
</a>
</g>
</g>
<!-- Node2&#45;&gt;Node5 -->
<g id="edge4" class="edge">
<title>Node2&#45;&gt;Node5</title>
<path fill="none" stroke="midnightblue" d="M401.98,-62.57C382.79,-52.35 359.5,-39.94 341.92,-30.58"/>
<polygon fill="midnightblue" stroke="midnightblue" points="400.56,-65.78 411.03,-67.4 403.85,-59.6 400.56,-65.78"/>
</g>
<!-- Node2&#45;&gt;Node6 -->
<g id="edge5" class="edge">
<title>Node2&#45;&gt;Node6</title>
<path fill="none" stroke="midnightblue" d="M437.5,-57.11C437.5,-48.15 437.5,-38.32 437.5,-30.58"/>
<polygon fill="midnightblue" stroke="midnightblue" points="434,-57.4 437.5,-67.4 441,-57.4 434,-57.4"/>
</g>
<!-- Node2&#45;&gt;Node7 -->
<g id="edge6" class="edge">
<title>Node2&#45;&gt;Node7</title>
<path fill="none" stroke="midnightblue" d="M473.34,-62.71C492.89,-52.46 516.7,-39.98 534.65,-30.58"/>
<polygon fill="midnightblue" stroke="midnightblue" points="471.64,-59.65 464.41,-67.4 474.89,-65.85 471.64,-59.65"/>
</g>
<!-- Node2&#45;&gt;Node8 -->
<g id="edge7" class="edge">
<title>Node2&#45;&gt;Node8</title>
<path fill="none" stroke="midnightblue" d="M502.04,-64.98C543.53,-54.37 596.86,-40.72 636.36,-30.61"/>
<polygon fill="midnightblue" stroke="midnightblue" points="501.12,-61.61 492.3,-67.48 502.86,-68.39 501.12,-61.61"/>
</g>
</g>
</svg>
