<?xml version="1.0" encoding="UTF-8" standalone="no"?>
<!DOCTYPE svg PUBLIC "-//W3C//DTD SVG 1.1//EN"
 "http://www.w3.org/Graphics/SVG/1.1/DTD/svg11.dtd">
<!-- Generated by graphviz version 2.43.0 (0)
 -->
<!-- Title: unilink/wrapper/iserver.hpp Pages: 1 -->
<!--zoomable 335 -->

<svg id="main" version="1.1" xmlns="http://www.w3.org/2000/svg" xmlns:xlink="http://www.w3.org/1999/xlink" xml:space="preserve" onload="init(evt)">
<style type="text/css"><![CDATA[
.node, .edge {opacity: 0.7;}
.node.selected, .edge.selected {opacity: 1;}
.edge:hover path { stroke: red; }
.edge:hover polygon { stroke: red; fill: red; }
]]></style>

<defs>
  <circle id="rim" cx="0" cy="0" r="7"/>
  <circle id="rim2" cx="0" cy="0" r="3.5"/>
  <g id="zoomPlus">
    <use xlink:href="#rim" fill="#404040"><set attributeName="fill" to="#808080" begin="zoomplus.mouseover" end="zoomplus.mouseout"/></use>
    <path d="M-4,0h8M0,-4v8" fill="none" stroke="white" stroke-width="1.5" pointer-events="none"/>
  </g>
  <g id="zoomMin">
    <use xlink:href="#rim" fill="#404040"><set attributeName="fill" to="#808080" begin="zoomminus.mouseover" end="zoomminus.mouseout"/></use>
    <path d="M-4,0h8" fill="none" stroke="white" stroke-width="1.5" pointer-events="none"/>
  </g>
  <g id="arrowUp" transform="translate(30 24)">
    <use xlink:href="#rim"/>
    <path pointer-events="none" fill="none" stroke="white" stroke-width="1.5" d="M0,-3.0v7 M-2.5,-0.5L0,-3.0L2.5,-0.5"/>
  </g>
  <g id="arrowRight" transform="rotate(90) translate(36 -43)">
    <use xlink:href="#rim"/>
    <path pointer-events="none" fill="none" stroke="white" stroke-width="1.5" d="M0,-3.0v7 M-2.5,-0.5L0,-3.0L2.5,-0.5"/>
  </g>
  <g id="arrowDown" transform="rotate(180) translate(-30 -48)">
    <use xlink:href="#rim"/>
    <path pointer-events="none" fill="none" stroke="white" stroke-width="1.5" d="M0,-3.0v7 M-2.5,-0.5L0,-3.0L2.5,-0.5"/>
  </g>
  <g id="arrowLeft" transform="rotate(270) translate(-36 17)">
    <use xlink:href="#rim"/>
    <path pointer-events="none" fill="none" stroke="white" stroke-width="1.5" d="M0,-3.0v7 M-2.5,-0.5L0,-3.0L2.5,-0.5"/>
  </g>
  <g id="resetDef">
    <use xlink:href="#rim2" fill="#404040"><set attributeName="fill" to="#808080" begin="reset.mouseover" end="reset.mouseout"/></use>
  </g>
</defs>
<script type="application/ecmascript">
var viewWidth = 1565;
var viewHeight = 335;
var sectionId = 'dynsection-0';
</script>
<script type="application/ecmascript" xlink:href="svg.min.js"/>
<svg id="graph" class="graph">
<g id="viewport">
<title>unilink/wrapper/iserver.hpp</title>
<!-- Node1 -->
<g id="Node000001" class="node">
<title>Node1</title>
<g id="a_Node000001"><a xlink:title=" ">
<polygon fill="#999999" stroke="#666666" points="300,-327 151,-327 151,-308 300,-308 300,-327"/>
<text text-anchor="middle" x="225.5" y="-315" font-family="Helvetica,sans-Serif" font-size="10.00">unilink/wrapper/iserver.hpp</text>
</a>
</g>
</g>
<!-- Node2 -->
<g id="Node000002" class="node">
<title>Node2</title>
<g id="a_Node000002"><a xlink:title=" ">
<polygon fill="#e0e0e0" stroke="#999999" points="210,-79.5 145,-79.5 145,-60.5 210,-60.5 210,-79.5"/>
<text text-anchor="middle" x="177.5" y="-67.5" font-family="Helvetica,sans-Serif" font-size="10.00">functional</text>
</a>
</g>
</g>
<!-- Node1&#45;&gt;Node2 -->
<g id="edge1_Node000001_Node000002" class="edge">
<title>Node1&#45;&gt;Node2</title>
<g id="a_edge1_Node000001_Node000002"><a xlink:title=" ">
<path fill="none" stroke="#63b8ff" d="M208.65,-308C169.92,-287.37 75.16,-230.46 39.5,-151 34.04,-138.84 31.84,-131.92 39.5,-121 41.08,-118.75 103.04,-96.88 143.39,-82.82"/>
<polygon fill="#63b8ff" stroke="#63b8ff" points="144.59,-86.11 152.89,-79.52 142.29,-79.5 144.59,-86.11"/>
</a>
</g>
</g>
<!-- Node3 -->
<g id="Node000003" class="node">
<title>Node3</title>
<g id="a_Node000003"><a xlink:title=" ">
<polygon fill="#e0e0e0" stroke="#999999" points="1556.5,-272 1510.5,-272 1510.5,-253 1556.5,-253 1556.5,-272"/>
<text text-anchor="middle" x="1533.5" y="-260" font-family="Helvetica,sans-Serif" font-size="10.00">future</text>
</a>
</g>
</g>
<!-- Node1&#45;&gt;Node3 -->
<g id="edge2_Node000001_Node000003" class="edge">
<title>Node1&#45;&gt;Node3</title>
<g id="a_edge2_Node000001_Node000003"><a xlink:title=" ">
<path fill="none" stroke="#63b8ff" d="M300.05,-315.76C535.74,-313.12 1262.94,-302.63 1496.5,-272 1497.75,-271.84 1499.02,-271.65 1500.3,-271.44"/>
<polygon fill="#63b8ff" stroke="#63b8ff" points="1500.96,-274.88 1510.13,-269.58 1499.66,-268 1500.96,-274.88"/>
</a>
</g>
</g>
<!-- Node4 -->
<g id="Node000004" class="node">
<title>Node4</title>
<g id="a_Node000004"><a xlink:title=" ">
<polygon fill="#e0e0e0" stroke="#999999" points="126.5,-79.5 68.5,-79.5 68.5,-60.5 126.5,-60.5 126.5,-79.5"/>
<text text-anchor="middle" x="97.5" y="-67.5" font-family="Helvetica,sans-Serif" font-size="10.00">memory</text>
</a>
</g>
</g>
<!-- Node1&#45;&gt;Node4 -->
<g id="edge3_Node000001_Node000004" class="edge">
<title>Node1&#45;&gt;Node4</title>
<g id="a_edge3_Node000001_Node000004"><a xlink:title=" ">
<path fill="none" stroke="#63b8ff" d="M198.27,-307.95C160.76,-294.72 93.82,-265.6 58.5,-217 32.44,-181.15 11.77,-160.69 31.5,-121 39.42,-105.05 55.13,-92.83 69.24,-84.47"/>
<polygon fill="#63b8ff" stroke="#63b8ff" points="71.12,-87.43 78.17,-79.52 67.73,-81.3 71.12,-87.43"/>
</a>
</g>
</g>
<!-- Node5 -->
<g id="Node000005" class="node">
<title>Node5</title>
<g id="a_Node000005"><a xlink:title=" ">
<polygon fill="#e0e0e0" stroke="#999999" points="1378,-79.5 1305,-79.5 1305,-60.5 1378,-60.5 1378,-79.5"/>
<text text-anchor="middle" x="1341.5" y="-67.5" font-family="Helvetica,sans-Serif" font-size="10.00">string_view</text>
</a>
</g>
</g>
<!-- Node1&#45;&gt;Node5 -->
<g id="edge4_Node000001_Node000005" class="edge">
<title>Node1&#45;&gt;Node5</title>
<g id="a_edge4_Node000001_Node000005"><a xlink:title=" ">
<path fill="none" stroke="#63b8ff" d="M300.28,-314.57C462.26,-309.12 856.86,-288.92 1178.5,-217 1265.33,-197.58 1315.99,-223.55 1367.5,-151 1381.18,-131.73 1367.18,-104.86 1355.03,-87.7"/>
<polygon fill="#63b8ff" stroke="#63b8ff" points="1357.81,-85.58 1349,-79.7 1352.22,-89.79 1357.81,-85.58"/>
</a>
</g>
</g>
<!-- Node6 -->
<g id="Node000006" class="node">
<title>Node6</title>
<g id="a_Node000006"><a xlink:title=" ">
<polygon fill="#e0e0e0" stroke="#999999" points="47,-79.5 0,-79.5 0,-60.5 47,-60.5 47,-79.5"/>
<text text-anchor="middle" x="23.5" y="-67.5" font-family="Helvetica,sans-Serif" font-size="10.00">vector</text>
</a>
</g>
</g>
<!-- Node1&#45;&gt;Node6 -->
<g id="edge5_Node000001_Node000006" class="edge">
<title>Node1&#45;&gt;Node6</title>
<g id="a_edge5_Node000001_Node000006"><a xlink:title=" ">
<path fill="none" stroke="#63b8ff" d="M180.01,-307.98C133.21,-296.45 63.1,-270.77 33.5,-217 11,-176.13 15.63,-118.77 20.05,-89.61"/>
<polygon fill="#63b8ff" stroke="#63b8ff" points="23.53,-90.03 21.74,-79.59 16.63,-88.87 23.53,-90.03"/>
</a>
</g>
</g>
<!-- Node7 -->
<g id="Node000007" class="node">
<title>Node7</title>
<g id="a_Node000007"><a xlink:href="visibility_8hpp.html" target="_top" xlink:title=" ">
<polygon fill="white" stroke="#666666" points="406.5,-79.5 266.5,-79.5 266.5,-60.5 406.5,-60.5 406.5,-79.5"/>
<text text-anchor="middle" x="336.5" y="-67.5" font-family="Helvetica,sans-Serif" font-size="10.00">unilink/base/visibility.hpp</text>
</a>
</g>
</g>
<!-- Node1&#45;&gt;Node7 -->
<g id="edge6_Node000001_Node000007" class="edge">
<title>Node1&#45;&gt;Node7</title>
<g id="a_edge6_Node000001_Node000007"><a xlink:title=" ">
<path fill="none" stroke="#63b8ff" d="M229.45,-307.76C245.53,-272.19 306.27,-137.85 328.39,-88.95"/>
<polygon fill="#63b8ff" stroke="#63b8ff" points="331.67,-90.19 332.6,-79.63 325.29,-87.3 331.67,-90.19"/>
</a>
</g>
</g>
<!-- Node8 -->
<g id="Node000008" class="node">
<title>Node8</title>
<g id="a_Node000008"><a xlink:href="iframer_8hpp.html" target="_top" xlink:title=" ">
<polygon fill="white" stroke="#666666" points="194,-145.5 49,-145.5 49,-126.5 194,-126.5 194,-145.5"/>
<text text-anchor="middle" x="121.5" y="-133.5" font-family="Helvetica,sans-Serif" font-size="10.00">unilink/framer/iframer.hpp</text>
</a>
</g>
</g>
<!-- Node1&#45;&gt;Node8 -->
<g id="edge7_Node000001_Node000008" class="edge">
<title>Node1&#45;&gt;Node8</title>
<g id="a_edge7_Node000001_Node000008"><a xlink:title=" ">
<path fill="none" stroke="#63b8ff" d="M220.48,-307.84C204.32,-279.94 153.38,-192.02 131.57,-154.38"/>
<polygon fill="#63b8ff" stroke="#63b8ff" points="134.51,-152.47 126.47,-145.57 128.45,-155.98 134.51,-152.47"/>
</a>
</g>
</g>
<!-- Node13 -->
<g id="Node000013" class="node">
<title>Node13</title>
<g id="a_Node000013"><a xlink:href="context_8hpp.html" target="_top" xlink:title=" ">
<polygon fill="white" stroke="#666666" points="587,-272 434,-272 434,-253 587,-253 587,-272"/>
<text text-anchor="middle" x="510.5" y="-260" font-family="Helvetica,sans-Serif" font-size="10.00">unilink/wrapper/context.hpp</text>
</a>
</g>
</g>
<!-- Node1&#45;&gt;Node13 -->
<g id="edge16_Node000001_Node000013" class="edge">
<title>Node1&#45;&gt;Node13</title>
<g id="a_edge16_Node000001_Node000013"><a xlink:title=" ">
<path fill="none" stroke="#63b8ff" d="M271.29,-307.98C321.11,-298.72 400.78,-283.9 454.34,-273.94"/>
<polygon fill="#63b8ff" stroke="#63b8ff" points="455.16,-277.35 464.35,-272.08 453.88,-270.47 455.16,-277.35"/>
</a>
</g>
</g>
<!-- Node8&#45;&gt;Node2 -->
<g id="edge8_Node000008_Node000002" class="edge">
<title>Node8&#45;&gt;Node2</title>
<g id="a_edge8_Node000008_Node000002"><a xlink:title=" ">
<path fill="none" stroke="#63b8ff" d="M129.05,-126.37C137.69,-116.5 152.03,-100.11 162.87,-87.72"/>
<polygon fill="#63b8ff" stroke="#63b8ff" points="165.76,-89.74 169.71,-79.91 160.49,-85.13 165.76,-89.74"/>
</a>
</g>
</g>
<!-- Node8&#45;&gt;Node4 -->
<g id="edge9_Node000008_Node000004" class="edge">
<title>Node8&#45;&gt;Node4</title>
<g id="a_edge9_Node000008_Node000004"><a xlink:title=" ">
<path fill="none" stroke="#63b8ff" d="M118.26,-126.37C114.74,-116.97 109,-101.67 104.45,-89.53"/>
<polygon fill="#63b8ff" stroke="#63b8ff" points="107.63,-88.04 100.84,-79.91 101.07,-90.5 107.63,-88.04"/>
</a>
</g>
</g>
<!-- Node8&#45;&gt;Node6 -->
<g id="edge10_Node000008_Node000006" class="edge">
<title>Node8&#45;&gt;Node6</title>
<g id="a_edge10_Node000008_Node000006"><a xlink:title=" ">
<path fill="none" stroke="#63b8ff" d="M108.28,-126.37C92.14,-115.82 64.59,-97.84 45.29,-85.23"/>
<polygon fill="#63b8ff" stroke="#63b8ff" points="47.11,-82.24 36.82,-79.7 43.28,-88.1 47.11,-82.24"/>
</a>
</g>
</g>
<!-- Node8&#45;&gt;Node7 -->
<g id="edge11_Node000008_Node000007" class="edge">
<title>Node8&#45;&gt;Node7</title>
<g id="a_edge11_Node000008_Node000007"><a xlink:title=" ">
<path fill="none" stroke="#63b8ff" d="M150.5,-126.37C188.59,-115.03 255.61,-95.08 297.94,-82.48"/>
<polygon fill="#63b8ff" stroke="#63b8ff" points="299.04,-85.8 307.62,-79.6 297.04,-79.1 299.04,-85.8"/>
</a>
</g>
</g>
<!-- Node9 -->
<g id="Node000009" class="node">
<title>Node9</title>
<g id="a_Node000009"><a xlink:href="safe__span_8hpp.html" target="_top" xlink:title=" ">
<polygon fill="white" stroke="#666666" points="580.5,-85 462.5,-85 462.5,-55 580.5,-55 580.5,-85"/>
<text text-anchor="start" x="470.5" y="-73" font-family="Helvetica,sans-Serif" font-size="10.00">unilink/memory/safe</text>
<text text-anchor="middle" x="521.5" y="-62" font-family="Helvetica,sans-Serif" font-size="10.00">_span.hpp</text>
</a>
</g>
</g>
<!-- Node8&#45;&gt;Node9 -->
<g id="edge12_Node000008_Node000009" class="edge">
<title>Node8&#45;&gt;Node9</title>
<g id="a_edge12_Node000008_Node000009"><a xlink:title=" ">
<path fill="none" stroke="#63b8ff" d="M175.03,-126.44C246.54,-114.99 373.36,-94.7 452.12,-82.1"/>
<polygon fill="#63b8ff" stroke="#63b8ff" points="453.11,-85.49 462.43,-80.45 452.01,-78.57 453.11,-85.49"/>
</a>
</g>
</g>
<!-- Node10 -->
<g id="Node000010" class="node">
<title>Node10</title>
<g id="a_Node000010"><a xlink:title=" ">
<polygon fill="#e0e0e0" stroke="#999999" points="721.5,-19 671.5,-19 671.5,0 721.5,0 721.5,-19"/>
<text text-anchor="middle" x="696.5" y="-7" font-family="Helvetica,sans-Serif" font-size="10.00">cstdint</text>
</a>
</g>
</g>
<!-- Node9&#45;&gt;Node10 -->
<g id="edge13_Node000009_Node000010" class="edge">
<title>Node9&#45;&gt;Node10</title>
<g id="a_edge13_Node000009_Node000010"><a xlink:title=" ">
<path fill="none" stroke="#63b8ff" d="M563.42,-54.99C593.41,-44.96 633.31,-31.62 661.57,-22.18"/>
<polygon fill="#63b8ff" stroke="#63b8ff" points="663.05,-25.37 671.42,-18.88 660.83,-18.73 663.05,-25.37"/>
</a>
</g>
</g>
<!-- Node11 -->
<g id="Node000011" class="node">
<title>Node11</title>
<g id="a_Node000011"><a xlink:title=" ">
<polygon fill="#e0e0e0" stroke="#999999" points="541.5,-19 501.5,-19 501.5,0 541.5,0 541.5,-19"/>
<text text-anchor="middle" x="521.5" y="-7" font-family="Helvetica,sans-Serif" font-size="10.00">span</text>
</a>
</g>
</g>
<!-- Node9&#45;&gt;Node11 -->
<g id="edge14_Node000009_Node000011" class="edge">
<title>Node9&#45;&gt;Node11</title>
<g id="a_edge14_Node000009_Node000011"><a xlink:title=" ">
<path fill="none" stroke="#63b8ff" d="M521.5,-54.84C521.5,-47.21 521.5,-37.7 521.5,-29.45"/>
<polygon fill="#63b8ff" stroke="#63b8ff" points="525,-29.27 521.5,-19.27 518,-29.27 525,-29.27"/>
</a>
</g>
</g>
<!-- Node12 -->
<g id="Node000012" class="node">
<title>Node12</title>
<g id="a_Node000012"><a xlink:title=" ">
<polygon fill="#e0e0e0" stroke="#999999" points="467,-19 402,-19 402,0 467,0 467,-19"/>
<text text-anchor="middle" x="434.5" y="-7" font-family="Helvetica,sans-Serif" font-size="10.00">stdexcept</text>
</a>
</g>
</g>
<!-- Node9&#45;&gt;Node12 -->
<g id="edge15_Node000009_Node000012" class="edge">
<title>Node9&#45;&gt;Node12</title>
<g id="a_edge15_Node000009_Node000012"><a xlink:title=" ">
<path fill="none" stroke="#63b8ff" d="M500.44,-54.84C486.96,-45.77 469.51,-34.04 455.95,-24.92"/>
<polygon fill="#63b8ff" stroke="#63b8ff" points="457.53,-21.77 447.28,-19.09 453.63,-27.58 457.53,-21.77"/>
</a>
</g>
</g>
<!-- Node13&#45;&gt;Node5 -->
<g id="edge19_Node000013_Node000005" class="edge">
<title>Node13&#45;&gt;Node5</title>
<g id="a_edge19_Node000013_Node000005"><a xlink:title=" ">
<path fill="none" stroke="#63b8ff" d="M587.12,-257.31C785.13,-245.69 1301.76,-209.94 1349.5,-151 1363.6,-133.59 1356.88,-106.57 1349.9,-88.83"/>
<polygon fill="#63b8ff" stroke="#63b8ff" points="1353.09,-87.39 1345.91,-79.6 1346.66,-90.16 1353.09,-87.39"/>
</a>
</g>
</g>
<!-- Node13&#45;&gt;Node6 -->
<g id="edge20_Node000013_Node000006" class="edge">
<title>Node13&#45;&gt;Node6</title>
<g id="a_edge20_Node000013_Node000006"><a xlink:title=" ">
<path fill="none" stroke="#63b8ff" d="M433.84,-255.65C309,-244.35 70.53,-214.79 19.5,-151 5.69,-133.73 10.58,-107.05 16.26,-89.32"/>
<polygon fill="#63b8ff" stroke="#63b8ff" points="19.67,-90.19 19.75,-79.59 13.08,-87.82 19.67,-90.19"/>
</a>
</g>
</g>
<!-- Node13&#45;&gt;Node9 -->
<g id="edge61_Node000013_Node000009" class="edge">
<title>Node13&#45;&gt;Node9</title>
<g id="a_edge61_Node000013_Node000009"><a xlink:title=" ">
<path fill="none" stroke="#63b8ff" d="M506.9,-252.82C503.44,-243.99 498.47,-229.81 496.5,-217 490.02,-174.83 486.7,-162.53 496.5,-121 498.68,-111.77 502.84,-102.3 507.15,-94.11"/>
<polygon fill="#63b8ff" stroke="#63b8ff" points="510.32,-95.62 512.17,-85.19 504.22,-92.19 510.32,-95.62"/>
</a>
</g>
</g>
<!-- Node14 -->
<g id="Node000014" class="node">
<title>Node14</title>
<g id="a_Node000014"><a xlink:title=" ">
<polygon fill="#e0e0e0" stroke="#999999" points="594.5,-211.5 538.5,-211.5 538.5,-192.5 594.5,-192.5 594.5,-211.5"/>
<text text-anchor="middle" x="566.5" y="-199.5" font-family="Helvetica,sans-Serif" font-size="10.00">optional</text>
</a>
</g>
</g>
<!-- Node13&#45;&gt;Node14 -->
<g id="edge17_Node000013_Node000014" class="edge">
<title>Node13&#45;&gt;Node14</title>
<g id="a_edge17_Node000013_Node000014"><a xlink:title=" ">
<path fill="none" stroke="#63b8ff" d="M518.76,-252.87C527.28,-243.97 540.76,-229.89 551.23,-218.95"/>
<polygon fill="#63b8ff" stroke="#63b8ff" points="553.82,-221.31 558.2,-211.67 548.76,-216.47 553.82,-221.31"/>
</a>
</g>
</g>
<!-- Node15 -->
<g id="Node000015" class="node">
<title>Node15</title>
<g id="a_Node000015"><a xlink:title=" ">
<polygon fill="#e0e0e0" stroke="#999999" points="768.5,-79.5 724.5,-79.5 724.5,-60.5 768.5,-60.5 768.5,-79.5"/>
<text text-anchor="middle" x="746.5" y="-67.5" font-family="Helvetica,sans-Serif" font-size="10.00">string</text>
</a>
</g>
</g>
<!-- Node13&#45;&gt;Node15 -->
<g id="edge18_Node000013_Node000015" class="edge">
<title>Node13&#45;&gt;Node15</title>
<g id="a_edge18_Node000013_Node000015"><a xlink:title=" ">
<path fill="none" stroke="#63b8ff" d="M508.65,-252.85C503.99,-228.5 494.52,-158.72 529.5,-121 581.72,-64.69 624.03,-103.76 698.5,-85 703.63,-83.71 709.04,-82.24 714.3,-80.75"/>
<polygon fill="#63b8ff" stroke="#63b8ff" points="715.5,-84.04 724.13,-77.9 713.55,-77.32 715.5,-84.04"/>
</a>
</g>
</g>
<!-- Node16 -->
<g id="Node000016" class="node">
<title>Node16</title>
<g id="a_Node000016"><a xlink:href="common_8hpp.html" target="_top" xlink:title=" ">
<polygon fill="white" stroke="#666666" points="1029,-211.5 886,-211.5 886,-192.5 1029,-192.5 1029,-211.5"/>
<text text-anchor="middle" x="957.5" y="-199.5" font-family="Helvetica,sans-Serif" font-size="10.00">unilink/base/common.hpp</text>
</a>
</g>
</g>
<!-- Node13&#45;&gt;Node16 -->
<g id="edge21_Node000013_Node000016" class="edge">
<title>Node13&#45;&gt;Node16</title>
<g id="a_edge21_Node000013_Node000016"><a xlink:title=" ">
<path fill="none" stroke="#63b8ff" d="M575.5,-252.99C657.02,-242.32 796.5,-224.07 882.47,-212.82"/>
<polygon fill="#63b8ff" stroke="#63b8ff" points="882.96,-216.28 892.42,-211.52 882.05,-209.34 882.96,-216.28"/>
</a>
</g>
</g>
<!-- Node28 -->
<g id="Node000028" class="node">
<title>Node28</title>
<g id="a_Node000028"><a xlink:href="error__codes_8hpp.html" target="_top" xlink:title=" ">
<polygon fill="white" stroke="#666666" points="737.5,-217 635.5,-217 635.5,-187 737.5,-187 737.5,-217"/>
<text text-anchor="start" x="643.5" y="-205" font-family="Helvetica,sans-Serif" font-size="10.00">unilink/base/error</text>
<text text-anchor="middle" x="686.5" y="-194" font-family="Helvetica,sans-Serif" font-size="10.00">_codes.hpp</text>
</a>
</g>
</g>
<!-- Node13&#45;&gt;Node28 -->
<g id="edge48_Node000013_Node000028" class="edge">
<title>Node13&#45;&gt;Node28</title>
<g id="a_edge48_Node000013_Node000028"><a xlink:title=" ">
<path fill="none" stroke="#63b8ff" d="M536.09,-252.99C561.75,-244.46 602,-231.09 634.41,-220.32"/>
<polygon fill="#63b8ff" stroke="#63b8ff" points="635.8,-223.54 644.19,-217.06 633.59,-216.9 635.8,-223.54"/>
</a>
</g>
</g>
<!-- Node29 -->
<g id="Node000029" class="node">
<title>Node29</title>
<g id="a_Node000029"><a xlink:href="safe__data__buffer_8hpp.html" target="_top" xlink:title=" ">
<polygon fill="white" stroke="#666666" points="444.5,-151 326.5,-151 326.5,-121 444.5,-121 444.5,-151"/>
<text text-anchor="start" x="334.5" y="-139" font-family="Helvetica,sans-Serif" font-size="10.00">unilink/memory/safe</text>
<text text-anchor="middle" x="385.5" y="-128" font-family="Helvetica,sans-Serif" font-size="10.00">_data_buffer.hpp</text>
</a>
</g>
</g>
<!-- Node13&#45;&gt;Node29 -->
<g id="edge50_Node000013_Node000029" class="edge">
<title>Node13&#45;&gt;Node29</title>
<g id="a_edge50_Node000013_Node000029"><a xlink:title=" ">
<path fill="none" stroke="#63b8ff" d="M499.4,-252.67C488.63,-243.95 471.98,-230.06 458.5,-217 439.18,-198.28 418.65,-175.5 404.31,-159.04"/>
<polygon fill="#63b8ff" stroke="#63b8ff" points="406.59,-156.34 397.4,-151.07 401.3,-160.92 406.59,-156.34"/>
</a>
</g>
</g>
<!-- Node16&#45;&gt;Node2 -->
<g id="edge26_Node000016_Node000002" class="edge">
<title>Node16&#45;&gt;Node2</title>
<g id="a_edge26_Node000016_Node000002"><a xlink:title=" ">
<path fill="none" stroke="#63b8ff" d="M885.96,-196.21C715.49,-184.74 298.46,-156.22 284.5,-151 247.43,-137.13 212.25,-106.21 192.9,-87.13"/>
<polygon fill="#63b8ff" stroke="#63b8ff" points="195.13,-84.41 185.62,-79.76 190.15,-89.33 195.13,-84.41"/>
</a>
</g>
</g>
<!-- Node16&#45;&gt;Node5 -->
<g id="edge32_Node000016_Node000005" class="edge">
<title>Node16&#45;&gt;Node5</title>
<g id="a_edge32_Node000016_Node000005"><a xlink:title=" ">
<path fill="none" stroke="#63b8ff" d="M1029.36,-201.23C1125.39,-199.92 1288.29,-191.58 1329.5,-151 1345.41,-135.33 1346.19,-108.27 1344.49,-90"/>
<polygon fill="#63b8ff" stroke="#63b8ff" points="1347.95,-89.44 1343.23,-79.95 1341,-90.31 1347.95,-89.44"/>
</a>
</g>
</g>
<!-- Node16&#45;&gt;Node6 -->
<g id="edge34_Node000016_Node000006" class="edge">
<title>Node16&#45;&gt;Node6</title>
<g id="a_edge34_Node000016_Node000006"><a xlink:title=" ">
<path fill="none" stroke="#63b8ff" d="M885.74,-195.96C844.93,-193.17 792.86,-189.72 746.5,-187 707.24,-184.7 69.27,-176.7 39.5,-151 22.28,-136.13 20.37,-108.42 21.34,-89.84"/>
<polygon fill="#63b8ff" stroke="#63b8ff" points="24.84,-89.9 22.2,-79.64 17.87,-89.31 24.84,-89.9"/>
</a>
</g>
</g>
<!-- Node16&#45;&gt;Node10 -->
<g id="edge23_Node000016_Node000010" class="edge">
<title>Node16&#45;&gt;Node10</title>
<g id="a_edge23_Node000016_Node000010"><a xlink:title=" ">
<path fill="none" stroke="#63b8ff" d="M1029.04,-199.49C1177.06,-194.06 1494.54,-169.16 1387.5,-55 1342.37,-6.87 866.39,-8.56 731.78,-10.02"/>
<polygon fill="#63b8ff" stroke="#63b8ff" points="731.57,-6.52 721.61,-10.14 731.65,-13.52 731.57,-6.52"/>
</a>
</g>
</g>
<!-- Node16&#45;&gt;Node12 -->
<g id="edge30_Node000016_Node000012" class="edge">
<title>Node16&#45;&gt;Node12</title>
<g id="a_edge30_Node000016_Node000012"><a xlink:title=" ">
<path fill="none" stroke="#63b8ff" d="M885.77,-196.09C721.31,-184.74 330.14,-157.19 317.5,-151 281.9,-133.56 271.8,-121.98 257.5,-85 252.69,-72.56 249.3,-65.51 257.5,-55 273.85,-34.03 344.82,-21.43 391.77,-15.24"/>
<polygon fill="#63b8ff" stroke="#63b8ff" points="392.5,-18.68 401.98,-13.94 391.62,-11.73 392.5,-18.68"/>
</a>
</g>
</g>
<!-- Node16&#45;&gt;Node15 -->
<g id="edge31_Node000016_Node000015" class="edge">
<title>Node16&#45;&gt;Node15</title>
<g id="a_edge31_Node000016_Node000015"><a xlink:title=" ">
<path fill="none" stroke="#63b8ff" d="M898.7,-192.46C849.34,-184.11 783.99,-169.89 765.5,-151 749.7,-134.85 746.17,-108.1 745.78,-90.02"/>
<polygon fill="#63b8ff" stroke="#63b8ff" points="749.29,-89.86 745.87,-79.83 742.29,-89.8 749.29,-89.86"/>
</a>
</g>
</g>
<!-- Node17 -->
<g id="Node000017" class="node">
<title>Node17</title>
<g id="a_Node000017"><a xlink:title=" ">
<polygon fill="#e0e0e0" stroke="#999999" points="1156.5,-79.5 1106.5,-79.5 1106.5,-60.5 1156.5,-60.5 1156.5,-79.5"/>
<text text-anchor="middle" x="1131.5" y="-67.5" font-family="Helvetica,sans-Serif" font-size="10.00">chrono</text>
</a>
</g>
</g>
<!-- Node16&#45;&gt;Node17 -->
<g id="edge22_Node000016_Node000017" class="edge">
<title>Node16&#45;&gt;Node17</title>
<g id="a_edge22_Node000016_Node000017"><a xlink:title=" ">
<path fill="none" stroke="#63b8ff" d="M1029.11,-201.48C1121.79,-200.4 1275.68,-192.23 1311.5,-151 1354.73,-101.23 1230.79,-81.05 1166.93,-74.12"/>
<polygon fill="#63b8ff" stroke="#63b8ff" points="1167.17,-70.63 1156.86,-73.09 1166.45,-77.59 1167.17,-70.63"/>
</a>
</g>
</g>
<!-- Node18 -->
<g id="Node000018" class="node">
<title>Node18</title>
<g id="a_Node000018"><a xlink:title=" ">
<polygon fill="#e0e0e0" stroke="#999999" points="950.5,-145.5 900.5,-145.5 900.5,-126.5 950.5,-126.5 950.5,-145.5"/>
<text text-anchor="middle" x="925.5" y="-133.5" font-family="Helvetica,sans-Serif" font-size="10.00">cstring</text>
</a>
</g>
</g>
<!-- Node16&#45;&gt;Node18 -->
<g id="edge24_Node000016_Node000018" class="edge">
<title>Node16&#45;&gt;Node18</title>
<g id="a_edge24_Node000016_Node000018"><a xlink:title=" ">
<path fill="none" stroke="#63b8ff" d="M953.18,-192.37C948.44,-182.88 940.68,-167.36 934.58,-155.16"/>
<polygon fill="#63b8ff" stroke="#63b8ff" points="937.56,-153.28 929.95,-145.91 931.29,-156.41 937.56,-153.28"/>
</a>
</g>
</g>
<!-- Node19 -->
<g id="Node000019" class="node">
<title>Node19</title>
<g id="a_Node000019"><a xlink:title=" ">
<polygon fill="#e0e0e0" stroke="#999999" points="1012.5,-145.5 968.5,-145.5 968.5,-126.5 1012.5,-126.5 1012.5,-145.5"/>
<text text-anchor="middle" x="990.5" y="-133.5" font-family="Helvetica,sans-Serif" font-size="10.00">ctime</text>
</a>
</g>
</g>
<!-- Node16&#45;&gt;Node19 -->
<g id="edge25_Node000016_Node000019" class="edge">
<title>Node16&#45;&gt;Node19</title>
<g id="a_edge25_Node000016_Node000019"><a xlink:title=" ">
<path fill="none" stroke="#63b8ff" d="M961.95,-192.37C966.89,-182.78 975.01,-167.05 981.32,-154.8"/>
<polygon fill="#63b8ff" stroke="#63b8ff" points="984.44,-156.4 985.91,-145.91 978.21,-153.19 984.44,-156.4"/>
</a>
</g>
</g>
<!-- Node20 -->
<g id="Node000020" class="node">
<title>Node20</title>
<g id="a_Node000020"><a xlink:title=" ">
<polygon fill="#e0e0e0" stroke="#999999" points="1086.5,-145.5 1030.5,-145.5 1030.5,-126.5 1086.5,-126.5 1086.5,-145.5"/>
<text text-anchor="middle" x="1058.5" y="-133.5" font-family="Helvetica,sans-Serif" font-size="10.00">iomanip</text>
</a>
</g>
</g>
<!-- Node16&#45;&gt;Node20 -->
<g id="edge27_Node000016_Node000020" class="edge">
<title>Node16&#45;&gt;Node20</title>
<g id="a_edge27_Node000016_Node000020"><a xlink:title=" ">
<path fill="none" stroke="#63b8ff" d="M971.12,-192.37C987.84,-181.78 1016.41,-163.67 1036.31,-151.06"/>
<polygon fill="#63b8ff" stroke="#63b8ff" points="1038.2,-154.01 1044.77,-145.7 1034.45,-148.1 1038.2,-154.01"/>
</a>
</g>
</g>
<!-- Node21 -->
<g id="Node000021" class="node">
<title>Node21</title>
<g id="a_Node000021"><a xlink:title=" ">
<polygon fill="#e0e0e0" stroke="#999999" points="1164.5,-145.5 1104.5,-145.5 1104.5,-126.5 1164.5,-126.5 1164.5,-145.5"/>
<text text-anchor="middle" x="1134.5" y="-133.5" font-family="Helvetica,sans-Serif" font-size="10.00">iostream</text>
</a>
</g>
</g>
<!-- Node16&#45;&gt;Node21 -->
<g id="edge28_Node000016_Node000021" class="edge">
<title>Node16&#45;&gt;Node21</title>
<g id="a_edge28_Node000016_Node000021"><a xlink:title=" ">
<path fill="none" stroke="#63b8ff" d="M981.37,-192.37C1012.2,-181.22 1066.05,-161.75 1100.98,-149.12"/>
<polygon fill="#63b8ff" stroke="#63b8ff" points="1102.51,-152.29 1110.73,-145.6 1100.13,-145.71 1102.51,-152.29"/>
</a>
</g>
</g>
<!-- Node22 -->
<g id="Node000022" class="node">
<title>Node22</title>
<g id="a_Node000022"><a xlink:title=" ">
<polygon fill="#e0e0e0" stroke="#999999" points="1238.5,-145.5 1182.5,-145.5 1182.5,-126.5 1238.5,-126.5 1238.5,-145.5"/>
<text text-anchor="middle" x="1210.5" y="-133.5" font-family="Helvetica,sans-Serif" font-size="10.00">sstream</text>
</a>
</g>
</g>
<!-- Node16&#45;&gt;Node22 -->
<g id="edge29_Node000016_Node000022" class="edge">
<title>Node16&#45;&gt;Node22</title>
<g id="a_edge29_Node000016_Node000022"><a xlink:title=" ">
<path fill="none" stroke="#63b8ff" d="M1002.22,-192.48C1046.23,-183.66 1115.12,-168.71 1173.5,-151 1175.42,-150.42 1177.39,-149.78 1179.36,-149.12"/>
<polygon fill="#63b8ff" stroke="#63b8ff" points="1180.9,-152.29 1189.15,-145.64 1178.55,-145.69 1180.9,-152.29"/>
</a>
</g>
</g>
<!-- Node23 -->
<g id="Node000023" class="node">
<title>Node23</title>
<g id="a_Node000023"><a xlink:title=" ">
<polygon fill="#e0e0e0" stroke="#999999" points="1302,-145.5 1257,-145.5 1257,-126.5 1302,-126.5 1302,-145.5"/>
<text text-anchor="middle" x="1279.5" y="-133.5" font-family="Helvetica,sans-Serif" font-size="10.00">utility</text>
</a>
</g>
</g>
<!-- Node16&#45;&gt;Node23 -->
<g id="edge33_Node000016_Node000023" class="edge">
<title>Node16&#45;&gt;Node23</title>
<g id="a_edge33_Node000016_Node000023"><a xlink:title=" ">
<path fill="none" stroke="#63b8ff" d="M1029.22,-193.53C1088.6,-186.19 1174.71,-172.85 1247.5,-151 1249.14,-150.51 1250.8,-149.96 1252.47,-149.36"/>
<polygon fill="#63b8ff" stroke="#63b8ff" points="1253.85,-152.58 1261.85,-145.63 1251.26,-146.07 1253.85,-152.58"/>
</a>
</g>
</g>
<!-- Node24 -->
<g id="Node000024" class="node">
<title>Node24</title>
<g id="a_Node000024"><a xlink:href="platform_8hpp.html" target="_top" xlink:title=" ">
<polygon fill="white" stroke="#666666" points="680.5,-145.5 538.5,-145.5 538.5,-126.5 680.5,-126.5 680.5,-145.5"/>
<text text-anchor="middle" x="609.5" y="-133.5" font-family="Helvetica,sans-Serif" font-size="10.00">unilink/base/platform.hpp</text>
</a>
</g>
</g>
<!-- Node16&#45;&gt;Node24 -->
<g id="edge35_Node000016_Node000024" class="edge">
<title>Node16&#45;&gt;Node24</title>
<g id="a_edge35_Node000016_Node000024"><a xlink:title=" ">
<path fill="none" stroke="#63b8ff" d="M910.93,-192.44C847.51,-180.77 734.09,-159.91 665.92,-147.38"/>
<polygon fill="#63b8ff" stroke="#63b8ff" points="666.26,-143.88 655.8,-145.51 665,-150.77 666.26,-143.88"/>
</a>
</g>
</g>
<!-- Node25 -->
<g id="Node000025" class="node">
<title>Node25</title>
<g id="a_Node000025"><a xlink:href="logger_8hpp.html" target="_top" xlink:title=" ">
<polygon fill="white" stroke="#666666" points="882.5,-151 774.5,-151 774.5,-121 882.5,-121 882.5,-151"/>
<text text-anchor="start" x="782.5" y="-139" font-family="Helvetica,sans-Serif" font-size="10.00">unilink/diagnostics</text>
<text text-anchor="middle" x="828.5" y="-128" font-family="Helvetica,sans-Serif" font-size="10.00">/logger.hpp</text>
</a>
</g>
</g>
<!-- Node16&#45;&gt;Node25 -->
<g id="edge38_Node000016_Node000025" class="edge">
<title>Node16&#45;&gt;Node25</title>
<g id="a_edge38_Node000016_Node000025"><a xlink:title=" ">
<path fill="none" stroke="#63b8ff" d="M940.1,-192.37C921.2,-182.99 890.42,-167.72 865.97,-155.59"/>
<polygon fill="#63b8ff" stroke="#63b8ff" points="867.47,-152.42 856.95,-151.12 864.35,-158.7 867.47,-152.42"/>
</a>
</g>
</g>
<!-- Node24&#45;&gt;Node7 -->
<g id="edge37_Node000024_Node000007" class="edge">
<title>Node24&#45;&gt;Node7</title>
<g id="a_edge37_Node000024_Node000007"><a xlink:title=" ">
<path fill="none" stroke="#63b8ff" d="M572.97,-126.44C523.83,-114.92 436.43,-94.43 382.76,-81.84"/>
<polygon fill="#63b8ff" stroke="#63b8ff" points="383.35,-78.39 372.82,-79.51 381.76,-85.2 383.35,-78.39"/>
</a>
</g>
</g>
<!-- Node24&#45;&gt;Node15 -->
<g id="edge36_Node000024_Node000015" class="edge">
<title>Node24&#45;&gt;Node15</title>
<g id="a_edge36_Node000024_Node000015"><a xlink:title=" ">
<path fill="none" stroke="#63b8ff" d="M627.98,-126.37C651.26,-115.49 691.51,-96.69 718.56,-84.05"/>
<polygon fill="#63b8ff" stroke="#63b8ff" points="720.3,-87.1 727.88,-79.7 717.34,-80.76 720.3,-87.1"/>
</a>
</g>
</g>
<!-- Node25&#45;&gt;Node2 -->
<g id="edge41_Node000025_Node000002" class="edge">
<title>Node25&#45;&gt;Node2</title>
<g id="a_edge41_Node000025_Node000002"><a xlink:title=" ">
<path fill="none" stroke="#63b8ff" d="M774.39,-129.33C748.68,-126.69 717.52,-123.58 689.5,-121 497.65,-103.35 448.58,-109.63 257.5,-85 245.26,-83.42 232.05,-81.29 219.95,-79.16"/>
<polygon fill="#63b8ff" stroke="#63b8ff" points="220.56,-75.71 210.09,-77.39 219.32,-82.6 220.56,-75.71"/>
</a>
</g>
</g>
<!-- Node25&#45;&gt;Node4 -->
<g id="edge42_Node000025_Node000004" class="edge">
<title>Node25&#45;&gt;Node4</title>
<g id="a_edge42_Node000025_Node000004"><a xlink:title=" ">
<path fill="none" stroke="#63b8ff" d="M774.41,-129.1C748.71,-126.41 717.54,-123.32 689.5,-121 443.6,-100.63 376.88,-136.18 135.5,-85 132.66,-84.4 129.75,-83.63 126.87,-82.76"/>
<polygon fill="#63b8ff" stroke="#63b8ff" points="127.89,-79.41 117.3,-79.52 125.65,-86.04 127.89,-79.41"/>
</a>
</g>
</g>
<!-- Node25&#45;&gt;Node5 -->
<g id="edge45_Node000025_Node000005" class="edge">
<title>Node25&#45;&gt;Node5</title>
<g id="a_edge45_Node000025_Node000005"><a xlink:title=" ">
<path fill="none" stroke="#63b8ff" d="M882.72,-122.56C885.69,-122 888.63,-121.48 891.5,-121 1037.81,-96.69 1212.9,-81.05 1294.86,-74.51"/>
<polygon fill="#63b8ff" stroke="#63b8ff" points="1295.17,-78 1304.86,-73.72 1294.62,-71.02 1295.17,-78"/>
</a>
</g>
</g>
<!-- Node25&#45;&gt;Node6 -->
<g id="edge46_Node000025_Node000006" class="edge">
<title>Node25&#45;&gt;Node6</title>
<g id="a_edge46_Node000025_Node000006"><a xlink:title=" ">
<path fill="none" stroke="#63b8ff" d="M774.42,-129C748.72,-126.29 717.55,-123.21 689.5,-121 409.91,-98.94 333.56,-144.56 59.5,-85 56.98,-84.45 54.4,-83.75 51.84,-82.96"/>
<polygon fill="#63b8ff" stroke="#63b8ff" points="52.81,-79.59 42.21,-79.56 50.47,-86.19 52.81,-79.59"/>
</a>
</g>
</g>
<!-- Node25&#45;&gt;Node7 -->
<g id="edge47_Node000025_Node000007" class="edge">
<title>Node25&#45;&gt;Node7</title>
<g id="a_edge47_Node000025_Node000007"><a xlink:title=" ">
<path fill="none" stroke="#63b8ff" d="M774.44,-127.97C686.47,-116.52 512.13,-93.85 411.99,-80.82"/>
<polygon fill="#63b8ff" stroke="#63b8ff" points="412.31,-77.33 401.94,-79.51 411.41,-84.27 412.31,-77.33"/>
</a>
</g>
</g>
<!-- Node25&#45;&gt;Node15 -->
<g id="edge44_Node000025_Node000015" class="edge">
<title>Node25&#45;&gt;Node15</title>
<g id="a_edge44_Node000025_Node000015"><a xlink:title=" ">
<path fill="none" stroke="#63b8ff" d="M810.3,-120.8C797.14,-110.53 779.39,-96.67 765.95,-86.18"/>
<polygon fill="#63b8ff" stroke="#63b8ff" points="767.87,-83.24 757.83,-79.84 763.56,-88.76 767.87,-83.24"/>
</a>
</g>
</g>
<!-- Node25&#45;&gt;Node17 -->
<g id="edge40_Node000025_Node000017" class="edge">
<title>Node25&#45;&gt;Node17</title>
<g id="a_edge40_Node000025_Node000017"><a xlink:title=" ">
<path fill="none" stroke="#63b8ff" d="M882.79,-122.89C885.73,-122.25 888.65,-121.61 891.5,-121 964.22,-105.35 1049.52,-87.76 1096.32,-78.18"/>
<polygon fill="#63b8ff" stroke="#63b8ff" points="1097.16,-81.58 1106.25,-76.15 1095.75,-74.72 1097.16,-81.58"/>
</a>
</g>
</g>
<!-- Node26 -->
<g id="Node000026" class="node">
<title>Node26</title>
<g id="a_Node000026"><a xlink:title=" ">
<polygon fill="#e0e0e0" stroke="#999999" points="845.5,-79.5 795.5,-79.5 795.5,-60.5 845.5,-60.5 845.5,-79.5"/>
<text text-anchor="middle" x="820.5" y="-67.5" font-family="Helvetica,sans-Serif" font-size="10.00">atomic</text>
</a>
</g>
</g>
<!-- Node25&#45;&gt;Node26 -->
<g id="edge39_Node000025_Node000026" class="edge">
<title>Node25&#45;&gt;Node26</title>
<g id="a_edge39_Node000025_Node000026"><a xlink:title=" ">
<path fill="none" stroke="#63b8ff" d="M826.72,-120.8C825.59,-111.7 824.1,-99.79 822.86,-89.9"/>
<polygon fill="#63b8ff" stroke="#63b8ff" points="826.32,-89.33 821.61,-79.84 819.37,-90.2 826.32,-89.33"/>
</a>
</g>
</g>
<!-- Node27 -->
<g id="Node000027" class="node">
<title>Node27</title>
<g id="a_Node000027"><a xlink:title=" ">
<polygon fill="#e0e0e0" stroke="#999999" points="957,-79.5 864,-79.5 864,-60.5 957,-60.5 957,-79.5"/>
<text text-anchor="middle" x="910.5" y="-67.5" font-family="Helvetica,sans-Serif" font-size="10.00">source_location</text>
</a>
</g>
</g>
<!-- Node25&#45;&gt;Node27 -->
<g id="edge43_Node000025_Node000027" class="edge">
<title>Node25&#45;&gt;Node27</title>
<g id="a_edge43_Node000025_Node000027"><a xlink:title=" ">
<path fill="none" stroke="#63b8ff" d="M846.7,-120.8C859.86,-110.53 877.61,-96.67 891.05,-86.18"/>
<polygon fill="#63b8ff" stroke="#63b8ff" points="893.44,-88.76 899.17,-79.84 889.13,-83.24 893.44,-88.76"/>
</a>
</g>
</g>
<!-- Node28&#45;&gt;Node15 -->
<g id="edge49_Node000028_Node000015" class="edge">
<title>Node28&#45;&gt;Node15</title>
<g id="a_edge49_Node000028_Node000015"><a xlink:title=" ">
<path fill="none" stroke="#63b8ff" d="M693.04,-186.84C704.03,-163.02 726.2,-114.99 738.25,-88.88"/>
<polygon fill="#63b8ff" stroke="#63b8ff" points="741.45,-90.29 742.46,-79.75 735.09,-87.36 741.45,-90.29"/>
</a>
</g>
</g>
<!-- Node29&#45;&gt;Node2 -->
<g id="edge52_Node000029_Node000002" class="edge">
<title>Node29&#45;&gt;Node2</title>
<g id="a_edge52_Node000029_Node000002"><a xlink:title=" ">
<path fill="none" stroke="#63b8ff" d="M339.85,-120.95C302.41,-109.43 250.05,-93.32 215.02,-82.54"/>
<polygon fill="#63b8ff" stroke="#63b8ff" points="215.77,-79.11 205.18,-79.52 213.71,-85.8 215.77,-79.11"/>
</a>
</g>
</g>
<!-- Node29&#45;&gt;Node4 -->
<g id="edge53_Node000029_Node000004" class="edge">
<title>Node29&#45;&gt;Node4</title>
<g id="a_edge53_Node000029_Node000004"><a xlink:title=" ">
<path fill="none" stroke="#63b8ff" d="M326.29,-125.83C275.24,-117.29 199.82,-103.16 135.5,-85 133.22,-84.36 130.87,-83.64 128.53,-82.88"/>
<polygon fill="#63b8ff" stroke="#63b8ff" points="129.61,-79.55 119.01,-79.59 127.32,-86.16 129.61,-79.55"/>
</a>
</g>
</g>
<!-- Node29&#45;&gt;Node5 -->
<g id="edge56_Node000029_Node000005" class="edge">
<title>Node29&#45;&gt;Node5</title>
<g id="a_edge56_Node000029_Node000005"><a xlink:title=" ">
<path fill="none" stroke="#63b8ff" d="M444.65,-128.71C470.66,-126.08 501.58,-123.15 529.5,-121 811.79,-99.3 883.03,-104.23 1165.5,-85 1209.34,-82.02 1259.27,-77.98 1294.72,-75.01"/>
<polygon fill="#63b8ff" stroke="#63b8ff" points="1295.1,-78.49 1304.78,-74.17 1294.52,-71.52 1295.1,-78.49"/>
</a>
</g>
</g>
<!-- Node29&#45;&gt;Node6 -->
<g id="edge58_Node000029_Node000006" class="edge">
<title>Node29&#45;&gt;Node6</title>
<g id="a_edge58_Node000029_Node000006"><a xlink:title=" ">
<path fill="none" stroke="#63b8ff" d="M326.4,-129.86C260.47,-123.22 151.04,-109.5 59.5,-85 57.34,-84.42 55.14,-83.76 52.93,-83.04"/>
<polygon fill="#63b8ff" stroke="#63b8ff" points="54.02,-79.71 43.42,-79.64 51.66,-86.3 54.02,-79.71"/>
</a>
</g>
</g>
<!-- Node29&#45;&gt;Node7 -->
<g id="edge59_Node000029_Node000007" class="edge">
<title>Node29&#45;&gt;Node7</title>
<g id="a_edge59_Node000029_Node000007"><a xlink:title=" ">
<path fill="none" stroke="#63b8ff" d="M374.63,-120.8C367.21,-111.11 357.36,-98.24 349.52,-88.01"/>
<polygon fill="#63b8ff" stroke="#63b8ff" points="352.13,-85.66 343.27,-79.84 346.57,-89.91 352.13,-85.66"/>
</a>
</g>
</g>
<!-- Node29&#45;&gt;Node9 -->
<g id="edge60_Node000029_Node000009" class="edge">
<title>Node29&#45;&gt;Node9</title>
<g id="a_edge60_Node000029_Node000009"><a xlink:title=" ">
<path fill="none" stroke="#63b8ff" d="M415.35,-120.95C435.1,-111.66 461.2,-99.38 482.58,-89.32"/>
<polygon fill="#63b8ff" stroke="#63b8ff" points="484.17,-92.44 491.72,-85.01 481.19,-86.1 484.17,-92.44"/>
</a>
</g>
</g>
<!-- Node29&#45;&gt;Node10 -->
<g id="edge51_Node000029_Node000010" class="edge">
<title>Node29&#45;&gt;Node10</title>
<g id="a_edge51_Node000029_Node000010"><a xlink:title=" ">
<path fill="none" stroke="#63b8ff" d="M444.83,-126.52C527.7,-114.44 668.98,-92.86 677.5,-85 692.72,-70.95 696.47,-46.56 697.06,-29.52"/>
<polygon fill="#63b8ff" stroke="#63b8ff" points="700.56,-29.13 697.07,-19.13 693.56,-29.12 700.56,-29.13"/>
</a>
</g>
</g>
<!-- Node29&#45;&gt;Node12 -->
<g id="edge54_Node000029_Node000012" class="edge">
<title>Node29&#45;&gt;Node12</title>
<g id="a_edge54_Node000029_Node000012"><a xlink:title=" ">
<path fill="none" stroke="#63b8ff" d="M395.6,-120.72C402.07,-111.02 410.2,-97.71 415.5,-85 423.11,-66.74 428.28,-44.65 431.28,-29.29"/>
<polygon fill="#63b8ff" stroke="#63b8ff" points="434.8,-29.49 433.16,-19.02 427.92,-28.23 434.8,-29.49"/>
</a>
</g>
</g>
<!-- Node29&#45;&gt;Node15 -->
<g id="edge55_Node000029_Node000015" class="edge">
<title>Node29&#45;&gt;Node15</title>
<g id="a_edge55_Node000029_Node000015"><a xlink:title=" ">
<path fill="none" stroke="#63b8ff" d="M444.63,-127.48C524.24,-117.08 661.56,-98.11 710.5,-85 712.66,-84.42 714.86,-83.76 717.07,-83.04"/>
<polygon fill="#63b8ff" stroke="#63b8ff" points="718.34,-86.3 726.58,-79.64 715.98,-79.71 718.34,-86.3"/>
</a>
</g>
</g>
<!-- Node30 -->
<g id="Node000030" class="node">
<title>Node30</title>
<g id="a_Node000030"><a xlink:title=" ">
<polygon fill="#e0e0e0" stroke="#999999" points="668,-79.5 599,-79.5 599,-60.5 668,-60.5 668,-79.5"/>
<text text-anchor="middle" x="633.5" y="-67.5" font-family="Helvetica,sans-Serif" font-size="10.00">type_traits</text>
</a>
</g>
</g>
<!-- Node29&#45;&gt;Node30 -->
<g id="edge57_Node000029_Node000030" class="edge">
<title>Node29&#45;&gt;Node30</title>
<g id="a_edge57_Node000029_Node000030"><a xlink:title=" ">
<path fill="none" stroke="#63b8ff" d="M444.69,-121.61C485.56,-112.09 541.06,-98.63 589.5,-85 592.25,-84.23 595.09,-83.4 597.93,-82.54"/>
<polygon fill="#63b8ff" stroke="#63b8ff" points="599,-85.87 607.53,-79.58 596.94,-79.19 599,-85.87"/>
</a>
</g>
</g>
</g>
</svg>

<g id="navigator" transform="translate(0 0)" fill="#404254">
  <rect fill="#f2f5e9" fill-opacity="0.5" stroke="#606060" stroke-width=".5" x="0" y="0" width="60" height="60"/>
  <use id="zoomplus" xlink:href="#zoomPlus" x="17" y="9" onmousedown="handleZoom(evt,'in')"/>
  <use id="zoomminus" xlink:href="#zoomMin" x="42" y="9" onmousedown="handleZoom(evt,'out')"/>
  <use id="reset" xlink:href="#resetDef" x="30" y="36" onmousedown="handleReset()"/>
   <use id="arrowup" xlink:href="#arrowUp" x="0" y="0" onmousedown="handlePan(0,-1)"/>
  <use id="arrowright" xlink:href="#arrowRight" x="0" y="0" onmousedown="handlePan(1,0)"/>
  <use id="arrowdown" xlink:href="#arrowDown" x="0" y="0" onmousedown="handlePan(0,1)"/>
  <use id="arrowleft" xlink:href="#arrowLeft" x="0" y="0" onmousedown="handlePan(-1,0)"/>
</g>
<svg viewBox="0 0 15 15" width="100%" height="30px" preserveAspectRatio="xMaxYMin meet">
 <g id="arrow_out" transform="scale(0.3 0.3)">
  <a xlink:href="iserver_8hpp__incl_org.svg" target="_base">
   <rect id="button" ry="5" rx="5" y="6" x="6" height="38" width="38"
        fill="#f2f5e9" fill-opacity="0.5" stroke="#606060" stroke-width="1.0"/>
   <path id="arrow"
     d="M 11.500037,31.436501 C 11.940474,20.09759 22.043105,11.32322 32.158766,21.979434 L 37.068811,17.246167 C 37.068811,17.246167 37.088388,32 37.088388,32 L 22.160133,31.978069 C 22.160133,31.978069 26.997745,27.140456 26.997745,27.140456 C 18.528582,18.264221 13.291696,25.230495 11.500037,31.436501 z"
     style="fill:#404040;"/>
  </a>
 </g>
</svg>

<style type='text/css'>
<![CDATA[
[data-mouse-over-selected='false'] { opacity: 0.7; }
[data-mouse-over-selected='true']  { opacity: 1.0; }
]]>
</style>
<script type="application/ecmascript"><![CDATA[
document.addEventListener('DOMContentLoaded', (event) => {
  highlightEdges();
  highlightAdjacentNodes();
});
]]></script>
</svg>
