<?xml version="1.0" encoding="UTF-8" standalone="no"?>
<!DOCTYPE svg PUBLIC "-//W3C//DTD SVG 1.1//EN"
 "http://www.w3.org/Graphics/SVG/1.1/DTD/svg11.dtd">
<!-- Generated by graphviz version 2.43.0 (0)
 -->
<!-- Title: unilink/wrapper/iserver.hpp Pages: 1 -->
<!--zoomable 335 -->

<svg id="main" version="1.1" xmlns="http://www.w3.org/2000/svg" xmlns:xlink="http://www.w3.org/1999/xlink" xml:space="preserve" onload="init(evt)">
<style type="text/css"><![CDATA[
.node, .edge {opacity: 0.7;}
.node.selected, .edge.selected {opacity: 1;}
.edge:hover path { stroke: red; }
.edge:hover polygon { stroke: red; fill: red; }
]]></style>

<defs>
  <circle id="rim" cx="0" cy="0" r="7"/>
  <circle id="rim2" cx="0" cy="0" r="3.5"/>
  <g id="zoomPlus">
    <use xlink:href="#rim" fill="#404040"><set attributeName="fill" to="#808080" begin="zoomplus.mouseover" end="zoomplus.mouseout"/></use>
    <path d="M-4,0h8M0,-4v8" fill="none" stroke="white" stroke-width="1.5" pointer-events="none"/>
  </g>
  <g id="zoomMin">
    <use xlink:href="#rim" fill="#404040"><set attributeName="fill" to="#808080" begin="zoomminus.mouseover" end="zoomminus.mouseout"/></use>
    <path d="M-4,0h8" fill="none" stroke="white" stroke-width="1.5" pointer-events="none"/>
  </g>
  <g id="arrowUp" transform="translate(30 24)">
    <use xlink:href="#rim"/>
    <path pointer-events="none" fill="none" stroke="white" stroke-width="1.5" d="M0,-3.0v7 M-2.5,-0.5L0,-3.0L2.5,-0.5"/>
  </g>
  <g id="arrowRight" transform="rotate(90) translate(36 -43)">
    <use xlink:href="#rim"/>
    <path pointer-events="none" fill="none" stroke="white" stroke-width="1.5" d="M0,-3.0v7 M-2.5,-0.5L0,-3.0L2.5,-0.5"/>
  </g>
  <g id="arrowDown" transform="rotate(180) translate(-30 -48)">
    <use xlink:href="#rim"/>
    <path pointer-events="none" fill="none" stroke="white" stroke-width="1.5" d="M0,-3.0v7 M-2.5,-0.5L0,-3.0L2.5,-0.5"/>
  </g>
  <g id="arrowLeft" transform="rotate(270) translate(-36 17)">
    <use xlink:href="#rim"/>
    <path pointer-events="none" fill="none" stroke="white" stroke-width="1.5" d="M0,-3.0v7 M-2.5,-0.5L0,-3.0L2.5,-0.5"/>
  </g>
  <g id="resetDef">
    <use xlink:href="#rim2" fill="#404040"><set attributeName="fill" to="#808080" begin="reset.mouseover" end="reset.mouseout"/></use>
  </g>
</defs>
<script type="application/ecmascript">
var viewWidth = 1512;
var viewHeight = 335;
var sectionId = 'dynsection-0';
</script>
<script type="application/ecmascript" xlink:href="svg.min.js"/>
<svg id="graph" class="graph">
<g id="viewport">
<title>unilink/wrapper/iserver.hpp</title>
<!-- Node1 -->
<g id="Node000001" class="node">
<title>Node1</title>
<g id="a_Node000001"><a xlink:title=" ">
<polygon fill="#999999" stroke="#666666" points="328,-327 179,-327 179,-308 328,-308 328,-327"/>
<text text-anchor="middle" x="253.5" y="-315" font-family="Helvetica,sans-Serif" font-size="10.00">unilink/wrapper/iserver.hpp</text>
</a>
</g>
</g>
<!-- Node2 -->
<g id="Node000002" class="node">
<title>Node2</title>
<g id="a_Node000002"><a xlink:title=" ">
<polygon fill="#e0e0e0" stroke="#999999" points="65,-79.5 0,-79.5 0,-60.5 65,-60.5 65,-79.5"/>
<text text-anchor="middle" x="32.5" y="-67.5" font-family="Helvetica,sans-Serif" font-size="10.00">functional</text>
</a>
</g>
</g>
<!-- Node1&#45;&gt;Node2 -->
<g id="edge1_Node000001_Node000002" class="edge">
<title>Node1&#45;&gt;Node2</title>
<g id="a_edge1_Node000001_Node000002"><a xlink:title=" ">
<path fill="none" stroke="#63b8ff" d="M231.86,-307.94C185.58,-288.31 77.71,-235.15 34.5,-151 24.7,-131.92 26,-106.76 28.56,-89.79"/>
<polygon fill="#63b8ff" stroke="#63b8ff" points="32.08,-89.99 30.43,-79.53 25.2,-88.74 32.08,-89.99"/>
</a>
</g>
</g>
<!-- Node3 -->
<g id="Node000003" class="node">
<title>Node3</title>
<g id="a_Node000003"><a xlink:title=" ">
<polygon fill="#e0e0e0" stroke="#999999" points="112.5,-272 66.5,-272 66.5,-253 112.5,-253 112.5,-272"/>
<text text-anchor="middle" x="89.5" y="-260" font-family="Helvetica,sans-Serif" font-size="10.00">future</text>
</a>
</g>
</g>
<!-- Node1&#45;&gt;Node3 -->
<g id="edge2_Node000001_Node000003" class="edge">
<title>Node1&#45;&gt;Node3</title>
<g id="a_edge2_Node000001_Node000003"><a xlink:title=" ">
<path fill="none" stroke="#63b8ff" d="M227.15,-307.98C198.68,-298.78 153.26,-284.1 122.45,-274.15"/>
<polygon fill="#63b8ff" stroke="#63b8ff" points="123.2,-270.71 112.6,-270.97 121.04,-277.37 123.2,-270.71"/>
</a>
</g>
</g>
<!-- Node4 -->
<g id="Node000004" class="node">
<title>Node4</title>
<g id="a_Node000004"><a xlink:title=" ">
<polygon fill="#e0e0e0" stroke="#999999" points="141.5,-79.5 83.5,-79.5 83.5,-60.5 141.5,-60.5 141.5,-79.5"/>
<text text-anchor="middle" x="112.5" y="-67.5" font-family="Helvetica,sans-Serif" font-size="10.00">memory</text>
</a>
</g>
</g>
<!-- Node1&#45;&gt;Node4 -->
<g id="edge3_Node000001_Node000004" class="edge">
<title>Node1&#45;&gt;Node4</title>
<g id="a_edge3_Node000001_Node000004"><a xlink:title=" ">
<path fill="none" stroke="#63b8ff" d="M178.89,-309.16C130.13,-302.65 72.77,-291.12 57.5,-272 15.63,-219.55 30.35,-182.37 57.5,-121 64.05,-106.19 77.4,-93.88 89.31,-85.18"/>
<polygon fill="#63b8ff" stroke="#63b8ff" points="91.33,-88.04 97.61,-79.5 87.38,-82.26 91.33,-88.04"/>
</a>
</g>
</g>
<!-- Node5 -->
<g id="Node000005" class="node">
<title>Node5</title>
<g id="a_Node000005"><a xlink:title=" ">
<polygon fill="#e0e0e0" stroke="#999999" points="1472,-79.5 1399,-79.5 1399,-60.5 1472,-60.5 1472,-79.5"/>
<text text-anchor="middle" x="1435.5" y="-67.5" font-family="Helvetica,sans-Serif" font-size="10.00">string_view</text>
</a>
</g>
</g>
<!-- Node1&#45;&gt;Node5 -->
<g id="edge4_Node000001_Node000005" class="edge">
<title>Node1&#45;&gt;Node5</title>
<g id="a_edge4_Node000001_Node000005"><a xlink:title=" ">
<path fill="none" stroke="#63b8ff" d="M328.16,-315.81C499.2,-312.82 931.7,-297.22 1282.5,-217 1365.16,-198.1 1413.01,-220.56 1461.5,-151 1474.89,-131.79 1461.31,-105.27 1449.29,-88.13"/>
<polygon fill="#63b8ff" stroke="#63b8ff" points="1451.76,-85.57 1442.96,-79.67 1446.15,-89.77 1451.76,-85.57"/>
</a>
</g>
</g>
<!-- Node6 -->
<g id="Node000006" class="node">
<title>Node6</title>
<g id="a_Node000006"><a xlink:title=" ">
<polygon fill="#e0e0e0" stroke="#999999" points="343,-79.5 296,-79.5 296,-60.5 343,-60.5 343,-79.5"/>
<text text-anchor="middle" x="319.5" y="-67.5" font-family="Helvetica,sans-Serif" font-size="10.00">vector</text>
</a>
</g>
</g>
<!-- Node1&#45;&gt;Node6 -->
<g id="edge5_Node000001_Node000006" class="edge">
<title>Node1&#45;&gt;Node6</title>
<g id="a_edge5_Node000001_Node000006"><a xlink:title=" ">
<path fill="none" stroke="#63b8ff" d="M255.85,-307.76C265.37,-272.34 301.23,-138.98 314.51,-89.57"/>
<polygon fill="#63b8ff" stroke="#63b8ff" points="317.96,-90.2 317.18,-79.63 311.2,-88.38 317.96,-90.2"/>
</a>
</g>
</g>
<!-- Node7 -->
<g id="Node000007" class="node">
<title>Node7</title>
<g id="a_Node000007"><a xlink:href="visibility_8hpp.html" target="_top" xlink:title=" ">
<polygon fill="white" stroke="#666666" points="665.5,-79.5 525.5,-79.5 525.5,-60.5 665.5,-60.5 665.5,-79.5"/>
<text text-anchor="middle" x="595.5" y="-67.5" font-family="Helvetica,sans-Serif" font-size="10.00">unilink/base/visibility.hpp</text>
</a>
</g>
</g>
<!-- Node1&#45;&gt;Node7 -->
<g id="edge6_Node000001_Node000007" class="edge">
<title>Node1&#45;&gt;Node7</title>
<g id="a_edge6_Node000001_Node000007"><a xlink:title=" ">
<path fill="none" stroke="#63b8ff" d="M264.15,-307.96C291.55,-286.21 367.13,-227.57 435.5,-187 466.95,-168.33 479.34,-171.68 509.5,-151 537.11,-132.07 564.67,-104.53 580.89,-87.2"/>
<polygon fill="#63b8ff" stroke="#63b8ff" points="583.69,-89.32 587.9,-79.59 578.55,-84.58 583.69,-89.32"/>
</a>
</g>
</g>
<!-- Node8 -->
<g id="Node000008" class="node">
<title>Node8</title>
<g id="a_Node000008"><a xlink:href="iframer_8hpp.html" target="_top" xlink:title=" ">
<polygon fill="white" stroke="#666666" points="212,-145.5 67,-145.5 67,-126.5 212,-126.5 212,-145.5"/>
<text text-anchor="middle" x="139.5" y="-133.5" font-family="Helvetica,sans-Serif" font-size="10.00">unilink/framer/iframer.hpp</text>
</a>
</g>
</g>
<!-- Node1&#45;&gt;Node8 -->
<g id="edge7_Node000001_Node000008" class="edge">
<title>Node1&#45;&gt;Node8</title>
<g id="a_edge7_Node000001_Node000008"><a xlink:title=" ">
<path fill="none" stroke="#63b8ff" d="M248,-307.84C230.28,-279.94 174.44,-192.02 150.54,-154.38"/>
<polygon fill="#63b8ff" stroke="#63b8ff" points="153.26,-152.14 144.94,-145.57 147.35,-155.89 153.26,-152.14"/>
</a>
</g>
</g>
<!-- Node13 -->
<g id="Node000013" class="node">
<title>Node13</title>
<g id="a_Node000013"><a xlink:href="context_8hpp.html" target="_top" xlink:title=" ">
<polygon fill="white" stroke="#666666" points="605,-272 452,-272 452,-253 605,-253 605,-272"/>
<text text-anchor="middle" x="528.5" y="-260" font-family="Helvetica,sans-Serif" font-size="10.00">unilink/wrapper/context.hpp</text>
</a>
</g>
</g>
<!-- Node1&#45;&gt;Node13 -->
<g id="edge16_Node000001_Node000013" class="edge">
<title>Node1&#45;&gt;Node13</title>
<g id="a_edge16_Node000001_Node000013"><a xlink:title=" ">
<path fill="none" stroke="#63b8ff" d="M297.68,-307.98C345.65,-298.74 422.31,-283.97 473.98,-274.01"/>
<polygon fill="#63b8ff" stroke="#63b8ff" points="474.81,-277.41 483.97,-272.08 473.49,-270.54 474.81,-277.41"/>
</a>
</g>
</g>
<!-- Node8&#45;&gt;Node2 -->
<g id="edge8_Node000008_Node000002" class="edge">
<title>Node8&#45;&gt;Node2</title>
<g id="a_edge8_Node000008_Node000002"><a xlink:title=" ">
<path fill="none" stroke="#63b8ff" d="M125.07,-126.37C107.28,-115.73 76.82,-97.51 55.72,-84.89"/>
<polygon fill="#63b8ff" stroke="#63b8ff" points="57.42,-81.83 47.04,-79.7 53.83,-87.84 57.42,-81.83"/>
</a>
</g>
</g>
<!-- Node8&#45;&gt;Node4 -->
<g id="edge9_Node000008_Node000004" class="edge">
<title>Node8&#45;&gt;Node4</title>
<g id="a_edge9_Node000008_Node000004"><a xlink:title=" ">
<path fill="none" stroke="#63b8ff" d="M135.86,-126.37C131.86,-116.88 125.31,-101.36 120.16,-89.16"/>
<polygon fill="#63b8ff" stroke="#63b8ff" points="123.37,-87.76 116.26,-79.91 116.92,-90.48 123.37,-87.76"/>
</a>
</g>
</g>
<!-- Node8&#45;&gt;Node6 -->
<g id="edge10_Node000008_Node000006" class="edge">
<title>Node8&#45;&gt;Node6</title>
<g id="a_edge10_Node000008_Node000006"><a xlink:title=" ">
<path fill="none" stroke="#63b8ff" d="M166.54,-126.46C196.19,-116.95 245.07,-100.81 286.5,-85 287.88,-84.47 289.29,-83.92 290.71,-83.36"/>
<polygon fill="#63b8ff" stroke="#63b8ff" points="292.13,-86.56 300.05,-79.53 289.47,-80.08 292.13,-86.56"/>
</a>
</g>
</g>
<!-- Node8&#45;&gt;Node7 -->
<g id="edge11_Node000008_Node000007" class="edge">
<title>Node8&#45;&gt;Node7</title>
<g id="a_edge11_Node000008_Node000007"><a xlink:title=" ">
<path fill="none" stroke="#63b8ff" d="M200.53,-126.44C284.65,-114.63 435.91,-93.4 524.84,-80.92"/>
<polygon fill="#63b8ff" stroke="#63b8ff" points="525.42,-84.37 534.84,-79.51 524.45,-77.44 525.42,-84.37"/>
</a>
</g>
</g>
<!-- Node9 -->
<g id="Node000009" class="node">
<title>Node9</title>
<g id="a_Node000009"><a xlink:href="safe__span_8hpp.html" target="_top" xlink:title=" ">
<polygon fill="white" stroke="#666666" points="277.5,-85 159.5,-85 159.5,-55 277.5,-55 277.5,-85"/>
<text text-anchor="start" x="167.5" y="-73" font-family="Helvetica,sans-Serif" font-size="10.00">unilink/memory/safe</text>
<text text-anchor="middle" x="218.5" y="-62" font-family="Helvetica,sans-Serif" font-size="10.00">_span.hpp</text>
</a>
</g>
</g>
<!-- Node8&#45;&gt;Node9 -->
<g id="edge12_Node000008_Node000009" class="edge">
<title>Node8&#45;&gt;Node9</title>
<g id="a_edge12_Node000008_Node000009"><a xlink:title=" ">
<path fill="none" stroke="#63b8ff" d="M150.15,-126.37C161.07,-117.53 178.44,-103.45 192.94,-91.71"/>
<polygon fill="#63b8ff" stroke="#63b8ff" points="195.51,-94.13 201.08,-85.12 191.1,-88.69 195.51,-94.13"/>
</a>
</g>
</g>
<!-- Node10 -->
<g id="Node000010" class="node">
<title>Node10</title>
<g id="a_Node000010"><a xlink:title=" ">
<polygon fill="#e0e0e0" stroke="#999999" points="396.5,-19 346.5,-19 346.5,0 396.5,0 396.5,-19"/>
<text text-anchor="middle" x="371.5" y="-7" font-family="Helvetica,sans-Serif" font-size="10.00">cstdint</text>
</a>
</g>
</g>
<!-- Node9&#45;&gt;Node10 -->
<g id="edge13_Node000009_Node000010" class="edge">
<title>Node9&#45;&gt;Node10</title>
<g id="a_edge13_Node000009_Node000010"><a xlink:title=" ">
<path fill="none" stroke="#63b8ff" d="M255.15,-54.99C280.79,-45.18 314.72,-32.21 339.32,-22.81"/>
<polygon fill="#63b8ff" stroke="#63b8ff" points="340.81,-25.98 348.91,-19.14 338.31,-19.44 340.81,-25.98"/>
</a>
</g>
</g>
<!-- Node11 -->
<g id="Node000011" class="node">
<title>Node11</title>
<g id="a_Node000011"><a xlink:title=" ">
<polygon fill="#e0e0e0" stroke="#999999" points="238.5,-19 198.5,-19 198.5,0 238.5,0 238.5,-19"/>
<text text-anchor="middle" x="218.5" y="-7" font-family="Helvetica,sans-Serif" font-size="10.00">span</text>
</a>
</g>
</g>
<!-- Node9&#45;&gt;Node11 -->
<g id="edge14_Node000009_Node000011" class="edge">
<title>Node9&#45;&gt;Node11</title>
<g id="a_edge14_Node000009_Node000011"><a xlink:title=" ">
<path fill="none" stroke="#63b8ff" d="M218.5,-54.84C218.5,-47.21 218.5,-37.7 218.5,-29.45"/>
<polygon fill="#63b8ff" stroke="#63b8ff" points="222,-29.27 218.5,-19.27 215,-29.27 222,-29.27"/>
</a>
</g>
</g>
<!-- Node12 -->
<g id="Node000012" class="node">
<title>Node12</title>
<g id="a_Node000012"><a xlink:title=" ">
<polygon fill="#e0e0e0" stroke="#999999" points="530,-19 465,-19 465,0 530,0 530,-19"/>
<text text-anchor="middle" x="497.5" y="-7" font-family="Helvetica,sans-Serif" font-size="10.00">stdexcept</text>
</a>
</g>
</g>
<!-- Node9&#45;&gt;Node12 -->
<g id="edge15_Node000009_Node000012" class="edge">
<title>Node9&#45;&gt;Node12</title>
<g id="a_edge15_Node000009_Node000012"><a xlink:title=" ">
<path fill="none" stroke="#63b8ff" d="M277.67,-56.59C330.87,-45.44 407.72,-29.33 455.04,-19.4"/>
<polygon fill="#63b8ff" stroke="#63b8ff" points="455.89,-22.8 464.96,-17.32 454.45,-15.95 455.89,-22.8"/>
</a>
</g>
</g>
<!-- Node13&#45;&gt;Node5 -->
<g id="edge19_Node000013_Node000005" class="edge">
<title>Node13&#45;&gt;Node5</title>
<g id="a_edge19_Node000013_Node000005"><a xlink:title=" ">
<path fill="none" stroke="#63b8ff" d="M605.13,-259.18C720.16,-254.95 944.08,-243.81 1132.5,-217 1272.39,-197.1 1354.56,-260.8 1443.5,-151 1457.6,-133.59 1450.88,-106.57 1443.9,-88.83"/>
<polygon fill="#63b8ff" stroke="#63b8ff" points="1447.09,-87.39 1439.91,-79.6 1440.66,-90.16 1447.09,-87.39"/>
</a>
</g>
</g>
<!-- Node13&#45;&gt;Node6 -->
<g id="edge20_Node000013_Node000006" class="edge">
<title>Node13&#45;&gt;Node6</title>
<g id="a_edge20_Node000013_Node000006"><a xlink:title=" ">
<path fill="none" stroke="#63b8ff" d="M497.17,-252.91C453.72,-239.2 376.39,-207.94 339.5,-151 327.48,-132.45 322.69,-107.18 320.77,-90.04"/>
<polygon fill="#63b8ff" stroke="#63b8ff" points="324.22,-89.31 319.85,-79.66 317.25,-89.93 324.22,-89.31"/>
</a>
</g>
</g>
<!-- Node13&#45;&gt;Node9 -->
<g id="edge62_Node000013_Node000009" class="edge">
<title>Node13&#45;&gt;Node9</title>
<g id="a_edge62_Node000013_Node000009"><a xlink:title=" ">
<path fill="none" stroke="#63b8ff" d="M529.01,-252.7C529.4,-237.09 527.8,-204.56 509.5,-187 453.78,-133.52 410.74,-180.82 339.5,-151 303.5,-135.93 266.75,-109.79 243.34,-91.5"/>
<polygon fill="#63b8ff" stroke="#63b8ff" points="245.36,-88.64 235.35,-85.16 241,-94.12 245.36,-88.64"/>
</a>
</g>
</g>
<!-- Node14 -->
<g id="Node000014" class="node">
<title>Node14</title>
<g id="a_Node000014"><a xlink:title=" ">
<polygon fill="#e0e0e0" stroke="#999999" points="500.5,-211.5 444.5,-211.5 444.5,-192.5 500.5,-192.5 500.5,-211.5"/>
<text text-anchor="middle" x="472.5" y="-199.5" font-family="Helvetica,sans-Serif" font-size="10.00">optional</text>
</a>
</g>
</g>
<!-- Node13&#45;&gt;Node14 -->
<g id="edge17_Node000013_Node000014" class="edge">
<title>Node13&#45;&gt;Node14</title>
<g id="a_edge17_Node000013_Node000014"><a xlink:title=" ">
<path fill="none" stroke="#63b8ff" d="M520.24,-252.87C511.72,-243.97 498.24,-229.89 487.77,-218.95"/>
<polygon fill="#63b8ff" stroke="#63b8ff" points="490.24,-216.47 480.8,-211.67 485.18,-221.31 490.24,-216.47"/>
</a>
</g>
</g>
<!-- Node15 -->
<g id="Node000015" class="node">
<title>Node15</title>
<g id="a_Node000015"><a xlink:title=" ">
<polygon fill="#e0e0e0" stroke="#999999" points="727.5,-79.5 683.5,-79.5 683.5,-60.5 727.5,-60.5 727.5,-79.5"/>
<text text-anchor="middle" x="705.5" y="-67.5" font-family="Helvetica,sans-Serif" font-size="10.00">string</text>
</a>
</g>
</g>
<!-- Node13&#45;&gt;Node15 -->
<g id="edge18_Node000013_Node000015" class="edge">
<title>Node13&#45;&gt;Node15</title>
<g id="a_edge18_Node000013_Node000015"><a xlink:title=" ">
<path fill="none" stroke="#63b8ff" d="M531.9,-252.87C541.59,-229.15 571.46,-162.07 614.5,-121 624.53,-111.43 655.36,-95.31 678.37,-83.97"/>
<polygon fill="#63b8ff" stroke="#63b8ff" points="679.91,-87.11 687.36,-79.58 676.84,-80.82 679.91,-87.11"/>
</a>
</g>
</g>
<!-- Node16 -->
<g id="Node000016" class="node">
<title>Node16</title>
<g id="a_Node000016"><a xlink:href="common_8hpp.html" target="_top" xlink:title=" ">
<polygon fill="white" stroke="#666666" points="1123,-211.5 980,-211.5 980,-192.5 1123,-192.5 1123,-211.5"/>
<text text-anchor="middle" x="1051.5" y="-199.5" font-family="Helvetica,sans-Serif" font-size="10.00">unilink/base/common.hpp</text>
</a>
</g>
</g>
<!-- Node13&#45;&gt;Node16 -->
<g id="edge21_Node000013_Node000016" class="edge">
<title>Node13&#45;&gt;Node16</title>
<g id="a_edge21_Node000013_Node000016"><a xlink:title=" ">
<path fill="none" stroke="#63b8ff" d="M604.55,-252.99C701.92,-242.1 869.97,-223.31 969.93,-212.12"/>
<polygon fill="#63b8ff" stroke="#63b8ff" points="970.43,-215.59 979.98,-211 969.65,-208.63 970.43,-215.59"/>
</a>
</g>
</g>
<!-- Node29 -->
<g id="Node000029" class="node">
<title>Node29</title>
<g id="a_Node000029"><a xlink:href="error__codes_8hpp.html" target="_top" xlink:title=" ">
<polygon fill="white" stroke="#666666" points="696.5,-217 594.5,-217 594.5,-187 696.5,-187 696.5,-217"/>
<text text-anchor="start" x="602.5" y="-205" font-family="Helvetica,sans-Serif" font-size="10.00">unilink/base/error</text>
<text text-anchor="middle" x="645.5" y="-194" font-family="Helvetica,sans-Serif" font-size="10.00">_codes.hpp</text>
</a>
</g>
</g>
<!-- Node13&#45;&gt;Node29 -->
<g id="edge49_Node000013_Node000029" class="edge">
<title>Node13&#45;&gt;Node29</title>
<g id="a_edge49_Node000013_Node000029"><a xlink:title=" ">
<path fill="none" stroke="#63b8ff" d="M545.51,-252.99C561.85,-244.82 587.09,-232.2 608.13,-221.69"/>
<polygon fill="#63b8ff" stroke="#63b8ff" points="609.77,-224.78 617.14,-217.18 606.64,-218.52 609.77,-224.78"/>
</a>
</g>
</g>
<!-- Node30 -->
<g id="Node000030" class="node">
<title>Node30</title>
<g id="a_Node000030"><a xlink:href="safe__data__buffer_8hpp.html" target="_top" xlink:title=" ">
<polygon fill="white" stroke="#666666" points="500.5,-151 382.5,-151 382.5,-121 500.5,-121 500.5,-151"/>
<text text-anchor="start" x="390.5" y="-139" font-family="Helvetica,sans-Serif" font-size="10.00">unilink/memory/safe</text>
<text text-anchor="middle" x="441.5" y="-128" font-family="Helvetica,sans-Serif" font-size="10.00">_data_buffer.hpp</text>
</a>
</g>
</g>
<!-- Node13&#45;&gt;Node30 -->
<g id="edge51_Node000013_Node000030" class="edge">
<title>Node13&#45;&gt;Node30</title>
<g id="a_edge51_Node000013_Node000030"><a xlink:title=" ">
<path fill="none" stroke="#63b8ff" d="M488.3,-252.87C468.81,-246.45 447.14,-235.48 435.5,-217 425.05,-200.41 427.91,-177.87 432.6,-160.95"/>
<polygon fill="#63b8ff" stroke="#63b8ff" points="435.99,-161.83 435.65,-151.24 429.31,-159.73 435.99,-161.83"/>
</a>
</g>
</g>
<!-- Node16&#45;&gt;Node2 -->
<g id="edge26_Node000016_Node000002" class="edge">
<title>Node16&#45;&gt;Node2</title>
<g id="a_edge26_Node000016_Node000002"><a xlink:title=" ">
<path fill="none" stroke="#63b8ff" d="M979.96,-197.94C753.49,-188.19 66.62,-158.07 57.5,-151 38.84,-136.54 33.79,-108.28 32.59,-89.51"/>
<polygon fill="#63b8ff" stroke="#63b8ff" points="36.09,-89.38 32.26,-79.5 29.09,-89.61 36.09,-89.38"/>
</a>
</g>
</g>
<!-- Node16&#45;&gt;Node5 -->
<g id="edge32_Node000016_Node000005" class="edge">
<title>Node16&#45;&gt;Node5</title>
<g id="a_edge32_Node000016_Node000005"><a xlink:title=" ">
<path fill="none" stroke="#63b8ff" d="M1123.1,-201.13C1218.79,-199.71 1381.16,-191.23 1422.5,-151 1438.62,-135.31 1439.68,-108.03 1438.2,-89.75"/>
<polygon fill="#63b8ff" stroke="#63b8ff" points="1441.66,-89.25 1437.06,-79.71 1434.71,-90.04 1441.66,-89.25"/>
</a>
</g>
</g>
<!-- Node16&#45;&gt;Node6 -->
<g id="edge34_Node000016_Node000006" class="edge">
<title>Node16&#45;&gt;Node6</title>
<g id="a_edge34_Node000016_Node000006"><a xlink:title=" ">
<path fill="none" stroke="#63b8ff" d="M980,-197.41C811.06,-188.69 399.43,-166.03 373.5,-151 349.65,-137.17 334.15,-108.07 326.12,-89.05"/>
<polygon fill="#63b8ff" stroke="#63b8ff" points="329.35,-87.69 322.42,-79.67 322.84,-90.26 329.35,-87.69"/>
</a>
</g>
</g>
<!-- Node16&#45;&gt;Node10 -->
<g id="edge23_Node000016_Node000010" class="edge">
<title>Node16&#45;&gt;Node10</title>
<g id="a_edge23_Node000016_Node000010"><a xlink:title=" ">
<path fill="none" stroke="#63b8ff" d="M1032.17,-192.48C1016.39,-184.34 995.16,-170.44 985.5,-151 979.57,-139.06 978.66,-132.44 985.5,-121 1002.85,-91.99 1035.15,-114.01 1052.5,-85 1059.34,-73.56 1061.64,-64.71 1052.5,-55 1007.02,-6.69 522.63,-24.3 456.5,-19 440.16,-17.69 422.09,-15.93 406.83,-14.35"/>
<polygon fill="#63b8ff" stroke="#63b8ff" points="407.08,-10.85 396.77,-13.29 406.35,-17.82 407.08,-10.85"/>
</a>
</g>
</g>
<!-- Node16&#45;&gt;Node12 -->
<g id="edge30_Node000016_Node000012" class="edge">
<title>Node16&#45;&gt;Node12</title>
<g id="a_edge30_Node000016_Node000012"><a xlink:title=" ">
<path fill="none" stroke="#63b8ff" d="M1123.2,-199.33C1271.54,-193.6 1589.63,-168.13 1481.5,-55 1448.54,-20.51 725.26,-12.34 540.28,-10.81"/>
<polygon fill="#63b8ff" stroke="#63b8ff" points="540.15,-7.31 530.12,-10.72 540.09,-14.31 540.15,-7.31"/>
</a>
</g>
</g>
<!-- Node16&#45;&gt;Node15 -->
<g id="edge31_Node000016_Node000015" class="edge">
<title>Node16&#45;&gt;Node15</title>
<g id="a_edge31_Node000016_Node000015"><a xlink:title=" ">
<path fill="none" stroke="#63b8ff" d="M979.88,-193.91C933.07,-187.27 871.57,-174.64 821.5,-151 802.04,-141.81 801.02,-133.49 783.5,-121 765.43,-108.12 744.19,-94.61 728.44,-84.88"/>
<polygon fill="#63b8ff" stroke="#63b8ff" points="730.22,-81.87 719.87,-79.62 726.56,-87.83 730.22,-81.87"/>
</a>
</g>
</g>
<!-- Node17 -->
<g id="Node000017" class="node">
<title>Node17</title>
<g id="a_Node000017"><a xlink:title=" ">
<polygon fill="#e0e0e0" stroke="#999999" points="1043.5,-79.5 993.5,-79.5 993.5,-60.5 1043.5,-60.5 1043.5,-79.5"/>
<text text-anchor="middle" x="1018.5" y="-67.5" font-family="Helvetica,sans-Serif" font-size="10.00">chrono</text>
</a>
</g>
</g>
<!-- Node16&#45;&gt;Node17 -->
<g id="edge22_Node000016_Node000017" class="edge">
<title>Node16&#45;&gt;Node17</title>
<g id="a_edge22_Node000016_Node000017"><a xlink:title=" ">
<path fill="none" stroke="#63b8ff" d="M1123.11,-201.48C1215.79,-200.4 1369.68,-192.23 1405.5,-151 1414.24,-140.93 1414.3,-131.01 1405.5,-121 1382.4,-94.72 1144.6,-78.3 1053.63,-72.93"/>
<polygon fill="#63b8ff" stroke="#63b8ff" points="1053.72,-69.43 1043.54,-72.35 1053.32,-76.42 1053.72,-69.43"/>
</a>
</g>
</g>
<!-- Node18 -->
<g id="Node000018" class="node">
<title>Node18</title>
<g id="a_Node000018"><a xlink:title=" ">
<polygon fill="#e0e0e0" stroke="#999999" points="1044.5,-145.5 994.5,-145.5 994.5,-126.5 1044.5,-126.5 1044.5,-145.5"/>
<text text-anchor="middle" x="1019.5" y="-133.5" font-family="Helvetica,sans-Serif" font-size="10.00">cstring</text>
</a>
</g>
</g>
<!-- Node16&#45;&gt;Node18 -->
<g id="edge24_Node000016_Node000018" class="edge">
<title>Node16&#45;&gt;Node18</title>
<g id="a_edge24_Node000016_Node000018"><a xlink:title=" ">
<path fill="none" stroke="#63b8ff" d="M1047.18,-192.37C1042.44,-182.88 1034.68,-167.36 1028.58,-155.16"/>
<polygon fill="#63b8ff" stroke="#63b8ff" points="1031.56,-153.28 1023.95,-145.91 1025.29,-156.41 1031.56,-153.28"/>
</a>
</g>
</g>
<!-- Node19 -->
<g id="Node000019" class="node">
<title>Node19</title>
<g id="a_Node000019"><a xlink:title=" ">
<polygon fill="#e0e0e0" stroke="#999999" points="1106.5,-145.5 1062.5,-145.5 1062.5,-126.5 1106.5,-126.5 1106.5,-145.5"/>
<text text-anchor="middle" x="1084.5" y="-133.5" font-family="Helvetica,sans-Serif" font-size="10.00">ctime</text>
</a>
</g>
</g>
<!-- Node16&#45;&gt;Node19 -->
<g id="edge25_Node000016_Node000019" class="edge">
<title>Node16&#45;&gt;Node19</title>
<g id="a_edge25_Node000016_Node000019"><a xlink:title=" ">
<path fill="none" stroke="#63b8ff" d="M1055.95,-192.37C1060.89,-182.78 1069.01,-167.05 1075.32,-154.8"/>
<polygon fill="#63b8ff" stroke="#63b8ff" points="1078.44,-156.4 1079.91,-145.91 1072.21,-153.19 1078.44,-156.4"/>
</a>
</g>
</g>
<!-- Node20 -->
<g id="Node000020" class="node">
<title>Node20</title>
<g id="a_Node000020"><a xlink:title=" ">
<polygon fill="#e0e0e0" stroke="#999999" points="1180.5,-145.5 1124.5,-145.5 1124.5,-126.5 1180.5,-126.5 1180.5,-145.5"/>
<text text-anchor="middle" x="1152.5" y="-133.5" font-family="Helvetica,sans-Serif" font-size="10.00">iomanip</text>
</a>
</g>
</g>
<!-- Node16&#45;&gt;Node20 -->
<g id="edge27_Node000016_Node000020" class="edge">
<title>Node16&#45;&gt;Node20</title>
<g id="a_edge27_Node000016_Node000020"><a xlink:title=" ">
<path fill="none" stroke="#63b8ff" d="M1065.12,-192.37C1081.84,-181.78 1110.41,-163.67 1130.31,-151.06"/>
<polygon fill="#63b8ff" stroke="#63b8ff" points="1132.2,-154.01 1138.77,-145.7 1128.45,-148.1 1132.2,-154.01"/>
</a>
</g>
</g>
<!-- Node21 -->
<g id="Node000021" class="node">
<title>Node21</title>
<g id="a_Node000021"><a xlink:title=" ">
<polygon fill="#e0e0e0" stroke="#999999" points="1258.5,-145.5 1198.5,-145.5 1198.5,-126.5 1258.5,-126.5 1258.5,-145.5"/>
<text text-anchor="middle" x="1228.5" y="-133.5" font-family="Helvetica,sans-Serif" font-size="10.00">iostream</text>
</a>
</g>
</g>
<!-- Node16&#45;&gt;Node21 -->
<g id="edge28_Node000016_Node000021" class="edge">
<title>Node16&#45;&gt;Node21</title>
<g id="a_edge28_Node000016_Node000021"><a xlink:title=" ">
<path fill="none" stroke="#63b8ff" d="M1075.37,-192.37C1106.2,-181.22 1160.05,-161.75 1194.98,-149.12"/>
<polygon fill="#63b8ff" stroke="#63b8ff" points="1196.51,-152.29 1204.73,-145.6 1194.13,-145.71 1196.51,-152.29"/>
</a>
</g>
</g>
<!-- Node22 -->
<g id="Node000022" class="node">
<title>Node22</title>
<g id="a_Node000022"><a xlink:title=" ">
<polygon fill="#e0e0e0" stroke="#999999" points="1332.5,-145.5 1276.5,-145.5 1276.5,-126.5 1332.5,-126.5 1332.5,-145.5"/>
<text text-anchor="middle" x="1304.5" y="-133.5" font-family="Helvetica,sans-Serif" font-size="10.00">sstream</text>
</a>
</g>
</g>
<!-- Node16&#45;&gt;Node22 -->
<g id="edge29_Node000016_Node000022" class="edge">
<title>Node16&#45;&gt;Node22</title>
<g id="a_edge29_Node000016_Node000022"><a xlink:title=" ">
<path fill="none" stroke="#63b8ff" d="M1096.22,-192.48C1140.23,-183.66 1209.12,-168.71 1267.5,-151 1269.42,-150.42 1271.39,-149.78 1273.36,-149.12"/>
<polygon fill="#63b8ff" stroke="#63b8ff" points="1274.9,-152.29 1283.15,-145.64 1272.55,-145.69 1274.9,-152.29"/>
</a>
</g>
</g>
<!-- Node23 -->
<g id="Node000023" class="node">
<title>Node23</title>
<g id="a_Node000023"><a xlink:title=" ">
<polygon fill="#e0e0e0" stroke="#999999" points="1396,-145.5 1351,-145.5 1351,-126.5 1396,-126.5 1396,-145.5"/>
<text text-anchor="middle" x="1373.5" y="-133.5" font-family="Helvetica,sans-Serif" font-size="10.00">utility</text>
</a>
</g>
</g>
<!-- Node16&#45;&gt;Node23 -->
<g id="edge33_Node000016_Node000023" class="edge">
<title>Node16&#45;&gt;Node23</title>
<g id="a_edge33_Node000016_Node000023"><a xlink:title=" ">
<path fill="none" stroke="#63b8ff" d="M1123.22,-193.53C1182.6,-186.19 1268.71,-172.85 1341.5,-151 1343.14,-150.51 1344.8,-149.96 1346.47,-149.36"/>
<polygon fill="#63b8ff" stroke="#63b8ff" points="1347.85,-152.58 1355.85,-145.63 1345.26,-146.07 1347.85,-152.58"/>
</a>
</g>
</g>
<!-- Node24 -->
<g id="Node000024" class="node">
<title>Node24</title>
<g id="a_Node000024"><a xlink:href="platform_8hpp.html" target="_top" xlink:title=" ">
<polygon fill="white" stroke="#666666" points="774.5,-145.5 632.5,-145.5 632.5,-126.5 774.5,-126.5 774.5,-145.5"/>
<text text-anchor="middle" x="703.5" y="-133.5" font-family="Helvetica,sans-Serif" font-size="10.00">unilink/base/platform.hpp</text>
</a>
</g>
</g>
<!-- Node16&#45;&gt;Node24 -->
<g id="edge35_Node000016_Node000024" class="edge">
<title>Node16&#45;&gt;Node24</title>
<g id="a_edge35_Node000016_Node000024"><a xlink:title=" ">
<path fill="none" stroke="#63b8ff" d="M1004.93,-192.44C941.51,-180.77 828.09,-159.91 759.92,-147.38"/>
<polygon fill="#63b8ff" stroke="#63b8ff" points="760.26,-143.88 749.8,-145.51 759,-150.77 760.26,-143.88"/>
</a>
</g>
</g>
<!-- Node25 -->
<g id="Node000025" class="node">
<title>Node25</title>
<g id="a_Node000025"><a xlink:href="logger_8hpp.html" target="_top" xlink:title=" ">
<polygon fill="white" stroke="#666666" points="938.5,-151 830.5,-151 830.5,-121 938.5,-121 938.5,-151"/>
<text text-anchor="start" x="838.5" y="-139" font-family="Helvetica,sans-Serif" font-size="10.00">unilink/diagnostics</text>
<text text-anchor="middle" x="884.5" y="-128" font-family="Helvetica,sans-Serif" font-size="10.00">/logger.hpp</text>
</a>
</g>
</g>
<!-- Node16&#45;&gt;Node25 -->
<g id="edge38_Node000016_Node000025" class="edge">
<title>Node16&#45;&gt;Node25</title>
<g id="a_edge38_Node000016_Node000025"><a xlink:title=" ">
<path fill="none" stroke="#63b8ff" d="M1028.98,-192.37C1003.97,-182.78 962.9,-167.05 930.93,-154.8"/>
<polygon fill="#63b8ff" stroke="#63b8ff" points="931.92,-151.43 921.33,-151.12 929.42,-157.96 931.92,-151.43"/>
</a>
</g>
</g>
<!-- Node24&#45;&gt;Node7 -->
<g id="edge37_Node000024_Node000007" class="edge">
<title>Node24&#45;&gt;Node7</title>
<g id="a_edge37_Node000024_Node000007"><a xlink:title=" ">
<path fill="none" stroke="#63b8ff" d="M688.93,-126.37C670.98,-115.73 640.23,-97.51 618.94,-84.89"/>
<polygon fill="#63b8ff" stroke="#63b8ff" points="620.57,-81.79 610.18,-79.7 617,-87.81 620.57,-81.79"/>
</a>
</g>
</g>
<!-- Node24&#45;&gt;Node15 -->
<g id="edge36_Node000024_Node000015" class="edge">
<title>Node24&#45;&gt;Node15</title>
<g id="a_edge36_Node000024_Node000015"><a xlink:title=" ">
<path fill="none" stroke="#63b8ff" d="M703.77,-126.37C704.06,-117.16 704.52,-102.29 704.9,-90.27"/>
<polygon fill="#63b8ff" stroke="#63b8ff" points="708.41,-90.01 705.22,-79.91 701.41,-89.79 708.41,-90.01"/>
</a>
</g>
</g>
<!-- Node25&#45;&gt;Node2 -->
<g id="edge42_Node000025_Node000002" class="edge">
<title>Node25&#45;&gt;Node2</title>
<g id="a_edge42_Node000025_Node000002"><a xlink:title=" ">
<path fill="none" stroke="#63b8ff" d="M830.35,-126.61C815.22,-124.51 798.74,-122.44 783.5,-121 469.38,-91.31 384.56,-143.42 74.5,-85 71.07,-84.35 67.54,-83.5 64.05,-82.53"/>
<polygon fill="#63b8ff" stroke="#63b8ff" points="65.02,-79.16 54.44,-79.56 62.96,-85.85 65.02,-79.16"/>
</a>
</g>
</g>
<!-- Node25&#45;&gt;Node4 -->
<g id="edge43_Node000025_Node000004" class="edge">
<title>Node25&#45;&gt;Node4</title>
<g id="a_edge43_Node000025_Node000004"><a xlink:title=" ">
<path fill="none" stroke="#63b8ff" d="M830.34,-126.67C815.21,-124.57 798.74,-122.49 783.5,-121 503.04,-93.63 426.39,-142.34 150.5,-85 147.66,-84.41 144.75,-83.65 141.86,-82.78"/>
<polygon fill="#63b8ff" stroke="#63b8ff" points="142.88,-79.43 132.29,-79.55 140.64,-86.06 142.88,-79.43"/>
</a>
</g>
</g>
<!-- Node25&#45;&gt;Node5 -->
<g id="edge46_Node000025_Node000005" class="edge">
<title>Node25&#45;&gt;Node5</title>
<g id="a_edge46_Node000025_Node000005"><a xlink:title=" ">
<path fill="none" stroke="#63b8ff" d="M938.72,-127.21C953.85,-125.11 970.31,-122.9 985.5,-121 1132.48,-102.65 1306.91,-84.22 1388.73,-75.78"/>
<polygon fill="#63b8ff" stroke="#63b8ff" points="1389.12,-79.25 1398.71,-74.75 1388.41,-72.29 1389.12,-79.25"/>
</a>
</g>
</g>
<!-- Node25&#45;&gt;Node6 -->
<g id="edge47_Node000025_Node000006" class="edge">
<title>Node25&#45;&gt;Node6</title>
<g id="a_edge47_Node000025_Node000006"><a xlink:title=" ">
<path fill="none" stroke="#63b8ff" d="M830.31,-127.02C815.18,-124.92 798.71,-122.75 783.5,-121 609.69,-100.98 564.7,-109.73 391.5,-85 378.92,-83.2 365.21,-80.68 353.16,-78.27"/>
<polygon fill="#63b8ff" stroke="#63b8ff" points="353.57,-74.78 343.07,-76.2 352.17,-81.64 353.57,-74.78"/>
</a>
</g>
</g>
<!-- Node25&#45;&gt;Node7 -->
<g id="edge48_Node000025_Node000007" class="edge">
<title>Node25&#45;&gt;Node7</title>
<g id="a_edge48_Node000025_Node000007"><a xlink:title=" ">
<path fill="none" stroke="#63b8ff" d="M830.48,-123.04C776.87,-111.17 695.47,-93.14 643.91,-81.72"/>
<polygon fill="#63b8ff" stroke="#63b8ff" points="644.53,-78.27 634.01,-79.53 643.02,-85.11 644.53,-78.27"/>
</a>
</g>
</g>
<!-- Node25&#45;&gt;Node15 -->
<g id="edge45_Node000025_Node000015" class="edge">
<title>Node25&#45;&gt;Node15</title>
<g id="a_edge45_Node000025_Node000015"><a xlink:title=" ">
<path fill="none" stroke="#63b8ff" d="M840.09,-120.98C810.74,-111.45 771.55,-98.21 737.5,-85 736.29,-84.53 735.06,-84.04 733.82,-83.54"/>
<polygon fill="#63b8ff" stroke="#63b8ff" points="734.92,-80.21 724.34,-79.56 732.2,-86.66 734.92,-80.21"/>
</a>
</g>
</g>
<!-- Node25&#45;&gt;Node17 -->
<g id="edge40_Node000025_Node000017" class="edge">
<title>Node25&#45;&gt;Node17</title>
<g id="a_edge40_Node000025_Node000017"><a xlink:title=" ">
<path fill="none" stroke="#63b8ff" d="M913.91,-120.95C936.99,-109.93 968.88,-94.7 991.36,-83.96"/>
<polygon fill="#63b8ff" stroke="#63b8ff" points="993.15,-86.99 1000.67,-79.52 990.13,-80.67 993.15,-86.99"/>
</a>
</g>
</g>
<!-- Node26 -->
<g id="Node000026" class="node">
<title>Node26</title>
<g id="a_Node000026"><a xlink:title=" ">
<polygon fill="#e0e0e0" stroke="#999999" points="907.5,-79.5 857.5,-79.5 857.5,-60.5 907.5,-60.5 907.5,-79.5"/>
<text text-anchor="middle" x="882.5" y="-67.5" font-family="Helvetica,sans-Serif" font-size="10.00">atomic</text>
</a>
</g>
</g>
<!-- Node25&#45;&gt;Node26 -->
<g id="edge39_Node000025_Node000026" class="edge">
<title>Node25&#45;&gt;Node26</title>
<g id="a_edge39_Node000025_Node000026"><a xlink:title=" ">
<path fill="none" stroke="#63b8ff" d="M884.06,-120.8C883.77,-111.7 883.4,-99.79 883.09,-89.9"/>
<polygon fill="#63b8ff" stroke="#63b8ff" points="886.59,-89.73 882.78,-79.84 879.59,-89.95 886.59,-89.73"/>
</a>
</g>
</g>
<!-- Node27 -->
<g id="Node000027" class="node">
<title>Node27</title>
<g id="a_Node000027"><a xlink:title=" ">
<polygon fill="#e0e0e0" stroke="#999999" points="975.5,-79.5 925.5,-79.5 925.5,-60.5 975.5,-60.5 975.5,-79.5"/>
<text text-anchor="middle" x="950.5" y="-67.5" font-family="Helvetica,sans-Serif" font-size="10.00">format</text>
</a>
</g>
</g>
<!-- Node25&#45;&gt;Node27 -->
<g id="edge41_Node000025_Node000027" class="edge">
<title>Node25&#45;&gt;Node27</title>
<g id="a_edge41_Node000025_Node000027"><a xlink:title=" ">
<path fill="none" stroke="#63b8ff" d="M899.15,-120.8C909.44,-110.82 923.22,-97.46 933.91,-87.09"/>
<polygon fill="#63b8ff" stroke="#63b8ff" points="936.64,-89.32 941.38,-79.84 931.76,-84.29 936.64,-89.32"/>
</a>
</g>
</g>
<!-- Node28 -->
<g id="Node000028" class="node">
<title>Node28</title>
<g id="a_Node000028"><a xlink:title=" ">
<polygon fill="#e0e0e0" stroke="#999999" points="839,-79.5 746,-79.5 746,-60.5 839,-60.5 839,-79.5"/>
<text text-anchor="middle" x="792.5" y="-67.5" font-family="Helvetica,sans-Serif" font-size="10.00">source_location</text>
</a>
</g>
</g>
<!-- Node25&#45;&gt;Node28 -->
<g id="edge44_Node000025_Node000028" class="edge">
<title>Node25&#45;&gt;Node28</title>
<g id="a_edge44_Node000025_Node000028"><a xlink:title=" ">
<path fill="none" stroke="#63b8ff" d="M864.08,-120.8C848.95,-110.27 828.4,-95.97 813.2,-85.4"/>
<polygon fill="#63b8ff" stroke="#63b8ff" points="815.15,-82.5 804.95,-79.66 811.16,-88.24 815.15,-82.5"/>
</a>
</g>
</g>
<!-- Node29&#45;&gt;Node15 -->
<g id="edge50_Node000029_Node000015" class="edge">
<title>Node29&#45;&gt;Node15</title>
<g id="a_edge50_Node000029_Node000015"><a xlink:title=" ">
<path fill="none" stroke="#63b8ff" d="M635.47,-186.92C624.99,-170.29 611.58,-142.23 623.5,-121 629.62,-110.11 656.66,-94.84 678.04,-84.05"/>
<polygon fill="#63b8ff" stroke="#63b8ff" points="679.66,-87.15 687.08,-79.58 676.56,-80.87 679.66,-87.15"/>
</a>
</g>
</g>
<!-- Node30&#45;&gt;Node2 -->
<g id="edge53_Node000030_Node000002" class="edge">
<title>Node30&#45;&gt;Node2</title>
<g id="a_edge53_Node000030_Node000002"><a xlink:title=" ">
<path fill="none" stroke="#63b8ff" d="M382.41,-130.36C309.37,-123.85 181.6,-109.92 74.5,-85 71.53,-84.31 68.46,-83.49 65.41,-82.61"/>
<polygon fill="#63b8ff" stroke="#63b8ff" points="66.41,-79.26 55.83,-79.63 64.34,-85.94 66.41,-79.26"/>
</a>
</g>
</g>
<!-- Node30&#45;&gt;Node4 -->
<g id="edge54_Node000030_Node000004" class="edge">
<title>Node30&#45;&gt;Node4</title>
<g id="a_edge54_Node000030_Node000004"><a xlink:title=" ">
<path fill="none" stroke="#63b8ff" d="M382.29,-128.06C323.01,-120.35 229.48,-106.14 150.5,-85 148.06,-84.35 145.56,-83.6 143.07,-82.81"/>
<polygon fill="#63b8ff" stroke="#63b8ff" points="144.18,-79.49 133.58,-79.54 141.9,-86.11 144.18,-79.49"/>
</a>
</g>
</g>
<!-- Node30&#45;&gt;Node5 -->
<g id="edge57_Node000030_Node000005" class="edge">
<title>Node30&#45;&gt;Node5</title>
<g id="a_edge57_Node000030_Node000005"><a xlink:title=" ">
<path fill="none" stroke="#63b8ff" d="M500.91,-130.2C536.47,-127.38 582.56,-123.84 623.5,-121 914.09,-100.88 1263.48,-80.73 1388.33,-73.65"/>
<polygon fill="#63b8ff" stroke="#63b8ff" points="1388.88,-77.13 1398.66,-73.07 1388.48,-70.14 1388.88,-77.13"/>
</a>
</g>
</g>
<!-- Node30&#45;&gt;Node6 -->
<g id="edge59_Node000030_Node000006" class="edge">
<title>Node30&#45;&gt;Node6</title>
<g id="a_edge59_Node000030_Node000006"><a xlink:title=" ">
<path fill="none" stroke="#63b8ff" d="M414.73,-120.95C393.9,-110.03 365.19,-94.97 344.76,-84.25"/>
<polygon fill="#63b8ff" stroke="#63b8ff" points="346.22,-81.06 335.74,-79.52 342.97,-87.26 346.22,-81.06"/>
</a>
</g>
</g>
<!-- Node30&#45;&gt;Node7 -->
<g id="edge60_Node000030_Node000007" class="edge">
<title>Node30&#45;&gt;Node7</title>
<g id="a_edge60_Node000030_Node000007"><a xlink:title=" ">
<path fill="none" stroke="#63b8ff" d="M475.3,-120.95C502.3,-109.73 539.8,-94.15 565.69,-83.39"/>
<polygon fill="#63b8ff" stroke="#63b8ff" points="567.11,-86.59 575.01,-79.52 564.43,-80.12 567.11,-86.59"/>
</a>
</g>
</g>
<!-- Node30&#45;&gt;Node9 -->
<g id="edge61_Node000030_Node000009" class="edge">
<title>Node30&#45;&gt;Node9</title>
<g id="a_edge61_Node000030_Node000009"><a xlink:title=" ">
<path fill="none" stroke="#63b8ff" d="M392.56,-120.95C358.58,-111.2 313.12,-98.16 277.19,-87.84"/>
<polygon fill="#63b8ff" stroke="#63b8ff" points="277.9,-84.41 267.32,-85.01 275.97,-91.14 277.9,-84.41"/>
</a>
</g>
</g>
<!-- Node30&#45;&gt;Node10 -->
<g id="edge52_Node000030_Node000010" class="edge">
<title>Node30&#45;&gt;Node10</title>
<g id="a_edge52_Node000030_Node000010"><a xlink:title=" ">
<path fill="none" stroke="#63b8ff" d="M422.89,-120.63C412.25,-111.5 399.48,-98.82 391.5,-85 381.47,-67.64 376.33,-45.12 373.8,-29.4"/>
<polygon fill="#63b8ff" stroke="#63b8ff" points="377.24,-28.74 372.37,-19.33 370.31,-29.72 377.24,-28.74"/>
</a>
</g>
</g>
<!-- Node30&#45;&gt;Node12 -->
<g id="edge55_Node000030_Node000012" class="edge">
<title>Node30&#45;&gt;Node12</title>
<g id="a_edge55_Node000030_Node000012"><a xlink:title=" ">
<path fill="none" stroke="#63b8ff" d="M454.47,-120.66C462.45,-111.16 472.29,-98.07 478.5,-85 487.07,-66.95 492.11,-44.54 494.83,-29.04"/>
<polygon fill="#63b8ff" stroke="#63b8ff" points="498.29,-29.56 496.4,-19.13 491.37,-28.46 498.29,-29.56"/>
</a>
</g>
</g>
<!-- Node30&#45;&gt;Node15 -->
<g id="edge56_Node000030_Node000015" class="edge">
<title>Node30&#45;&gt;Node15</title>
<g id="a_edge56_Node000030_Node000015"><a xlink:title=" ">
<path fill="none" stroke="#63b8ff" d="M500.83,-125.86C548.48,-117.67 616.73,-104 674.5,-85 675.94,-84.53 677.4,-84.01 678.86,-83.46"/>
<polygon fill="#63b8ff" stroke="#63b8ff" points="680.48,-86.58 688.38,-79.51 677.8,-80.11 680.48,-86.58"/>
</a>
</g>
</g>
<!-- Node31 -->
<g id="Node000031" class="node">
<title>Node31</title>
<g id="a_Node000031"><a xlink:title=" ">
<polygon fill="#e0e0e0" stroke="#999999" points="469,-79.5 400,-79.5 400,-60.5 469,-60.5 469,-79.5"/>
<text text-anchor="middle" x="434.5" y="-67.5" font-family="Helvetica,sans-Serif" font-size="10.00">type_traits</text>
</a>
</g>
</g>
<!-- Node30&#45;&gt;Node31 -->
<g id="edge58_Node000030_Node000031" class="edge">
<title>Node30&#45;&gt;Node31</title>
<g id="a_edge58_Node000030_Node000031"><a xlink:title=" ">
<path fill="none" stroke="#63b8ff" d="M439.95,-120.8C438.95,-111.7 437.65,-99.79 436.57,-89.9"/>
<polygon fill="#63b8ff" stroke="#63b8ff" points="440.03,-89.4 435.47,-79.84 433.08,-90.17 440.03,-89.4"/>
</a>
</g>
</g>
</g>
</svg>

<g id="navigator" transform="translate(0 0)" fill="#404254">
  <rect fill="#f2f5e9" fill-opacity="0.5" stroke="#606060" stroke-width=".5" x="0" y="0" width="60" height="60"/>
  <use id="zoomplus" xlink:href="#zoomPlus" x="17" y="9" onmousedown="handleZoom(evt,'in')"/>
  <use id="zoomminus" xlink:href="#zoomMin" x="42" y="9" onmousedown="handleZoom(evt,'out')"/>
  <use id="reset" xlink:href="#resetDef" x="30" y="36" onmousedown="handleReset()"/>
   <use id="arrowup" xlink:href="#arrowUp" x="0" y="0" onmousedown="handlePan(0,-1)"/>
  <use id="arrowright" xlink:href="#arrowRight" x="0" y="0" onmousedown="handlePan(1,0)"/>
  <use id="arrowdown" xlink:href="#arrowDown" x="0" y="0" onmousedown="handlePan(0,1)"/>
  <use id="arrowleft" xlink:href="#arrowLeft" x="0" y="0" onmousedown="handlePan(-1,0)"/>
</g>
<svg viewBox="0 0 15 15" width="100%" height="30px" preserveAspectRatio="xMaxYMin meet">
 <g id="arrow_out" transform="scale(0.3 0.3)">
  <a xlink:href="iserver_8hpp__incl_org.svg" target="_base">
   <rect id="button" ry="5" rx="5" y="6" x="6" height="38" width="38"
        fill="#f2f5e9" fill-opacity="0.5" stroke="#606060" stroke-width="1.0"/>
   <path id="arrow"
     d="M 11.500037,31.436501 C 11.940474,20.09759 22.043105,11.32322 32.158766,21.979434 L 37.068811,17.246167 C 37.068811,17.246167 37.088388,32 37.088388,32 L 22.160133,31.978069 C 22.160133,31.978069 26.997745,27.140456 26.997745,27.140456 C 18.528582,18.264221 13.291696,25.230495 11.500037,31.436501 z"
     style="fill:#404040;"/>
  </a>
 </g>
</svg>

<style type='text/css'>
<![CDATA[
[data-mouse-over-selected='false'] { opacity: 0.7; }
[data-mouse-over-selected='true']  { opacity: 1.0; }
]]>
</style>
<script type="application/ecmascript"><![CDATA[
document.addEventListener('DOMContentLoaded', (event) => {
  highlightEdges();
  highlightAdjacentNodes();
});
]]></script>
</svg>
