<?xml version="1.0" encoding="UTF-8" standalone="no"?>
<!DOCTYPE svg PUBLIC "-//W3C//DTD SVG 1.1//EN"
 "http://www.w3.org/Graphics/SVG/1.1/DTD/svg11.dtd">
<!-- Generated by graphviz version 2.43.0 (0)
 -->
<!-- Title: unilink/wrapper/iserver.hpp Pages: 1 -->
<!--zoomable 335 -->

<svg id="main" version="1.1" xmlns="http://www.w3.org/2000/svg" xmlns:xlink="http://www.w3.org/1999/xlink" xml:space="preserve" onload="init(evt)">
<style type="text/css"><![CDATA[
.node, .edge {opacity: 0.7;}
.node.selected, .edge.selected {opacity: 1;}
.edge:hover path { stroke: red; }
.edge:hover polygon { stroke: red; fill: red; }
]]></style>

<defs>
  <circle id="rim" cx="0" cy="0" r="7"/>
  <circle id="rim2" cx="0" cy="0" r="3.5"/>
  <g id="zoomPlus">
    <use xlink:href="#rim" fill="#404040"><set attributeName="fill" to="#808080" begin="zoomplus.mouseover" end="zoomplus.mouseout"/></use>
    <path d="M-4,0h8M0,-4v8" fill="none" stroke="white" stroke-width="1.5" pointer-events="none"/>
  </g>
  <g id="zoomMin">
    <use xlink:href="#rim" fill="#404040"><set attributeName="fill" to="#808080" begin="zoomminus.mouseover" end="zoomminus.mouseout"/></use>
    <path d="M-4,0h8" fill="none" stroke="white" stroke-width="1.5" pointer-events="none"/>
  </g>
  <g id="arrowUp" transform="translate(30 24)">
    <use xlink:href="#rim"/>
    <path pointer-events="none" fill="none" stroke="white" stroke-width="1.5" d="M0,-3.0v7 M-2.5,-0.5L0,-3.0L2.5,-0.5"/>
  </g>
  <g id="arrowRight" transform="rotate(90) translate(36 -43)">
    <use xlink:href="#rim"/>
    <path pointer-events="none" fill="none" stroke="white" stroke-width="1.5" d="M0,-3.0v7 M-2.5,-0.5L0,-3.0L2.5,-0.5"/>
  </g>
  <g id="arrowDown" transform="rotate(180) translate(-30 -48)">
    <use xlink:href="#rim"/>
    <path pointer-events="none" fill="none" stroke="white" stroke-width="1.5" d="M0,-3.0v7 M-2.5,-0.5L0,-3.0L2.5,-0.5"/>
  </g>
  <g id="arrowLeft" transform="rotate(270) translate(-36 17)">
    <use xlink:href="#rim"/>
    <path pointer-events="none" fill="none" stroke="white" stroke-width="1.5" d="M0,-3.0v7 M-2.5,-0.5L0,-3.0L2.5,-0.5"/>
  </g>
  <g id="resetDef">
    <use xlink:href="#rim2" fill="#404040"><set attributeName="fill" to="#808080" begin="reset.mouseover" end="reset.mouseout"/></use>
  </g>
</defs>
<script type="application/ecmascript">
var viewWidth = 1590;
var viewHeight = 335;
var sectionId = 'dynsection-0';
</script>
<script type="application/ecmascript" xlink:href="svg.min.js"/>
<svg id="graph" class="graph">
<g id="viewport">
<title>unilink/wrapper/iserver.hpp</title>
<!-- Node1 -->
<g id="Node000001" class="node">
<title>Node1</title>
<g id="a_Node000001"><a xlink:title=" ">
<polygon fill="#999999" stroke="#666666" points="312.4,-327 163.4,-327 163.4,-308 312.4,-308 312.4,-327"/>
<text text-anchor="middle" x="237.9" y="-315" font-family="Helvetica,sans-Serif" font-size="10.00">unilink/wrapper/iserver.hpp</text>
</a>
</g>
</g>
<!-- Node2 -->
<g id="Node000002" class="node">
<title>Node2</title>
<g id="a_Node000002"><a xlink:title=" ">
<polygon fill="#e0e0e0" stroke="#999999" points="120.4,-79.5 55.4,-79.5 55.4,-60.5 120.4,-60.5 120.4,-79.5"/>
<text text-anchor="middle" x="87.9" y="-67.5" font-family="Helvetica,sans-Serif" font-size="10.00">functional</text>
</a>
</g>
</g>
<!-- Node1&#45;&gt;Node2 -->
<g id="edge1_Node000001_Node000002" class="edge">
<title>Node1&#45;&gt;Node2</title>
<g id="a_edge1_Node000001_Node000002"><a xlink:title=" ">
<path fill="none" stroke="#63b8ff" d="M163.13,-311.49C106.14,-305.93 34.4,-294.58 15.9,-272 -31.08,-214.67 39.27,-124.26 72.32,-87.43"/>
<polygon fill="#63b8ff" stroke="#63b8ff" points="75.28,-89.38 79.46,-79.65 70.12,-84.65 75.28,-89.38"/>
</a>
</g>
</g>
<!-- Node3 -->
<g id="Node000003" class="node">
<title>Node3</title>
<g id="a_Node000003"><a xlink:title=" ">
<polygon fill="#e0e0e0" stroke="#999999" points="70.9,-272 24.9,-272 24.9,-253 70.9,-253 70.9,-272"/>
<text text-anchor="middle" x="47.9" y="-260" font-family="Helvetica,sans-Serif" font-size="10.00">future</text>
</a>
</g>
</g>
<!-- Node1&#45;&gt;Node3 -->
<g id="edge2_Node000001_Node000003" class="edge">
<title>Node1&#45;&gt;Node3</title>
<g id="a_edge2_Node000001_Node000003"><a xlink:title=" ">
<path fill="none" stroke="#63b8ff" d="M207.38,-307.98C172.82,-298.34 116.7,-282.69 81.08,-272.75"/>
<polygon fill="#63b8ff" stroke="#63b8ff" points="81.74,-269.31 71.17,-269.99 79.86,-276.05 81.74,-269.31"/>
</a>
</g>
</g>
<!-- Node4 -->
<g id="Node000004" class="node">
<title>Node4</title>
<g id="a_Node000004"><a xlink:title=" ">
<polygon fill="#e0e0e0" stroke="#999999" points="332.9,-79.5 274.9,-79.5 274.9,-60.5 332.9,-60.5 332.9,-79.5"/>
<text text-anchor="middle" x="303.9" y="-67.5" font-family="Helvetica,sans-Serif" font-size="10.00">memory</text>
</a>
</g>
</g>
<!-- Node1&#45;&gt;Node4 -->
<g id="edge3_Node000001_Node000004" class="edge">
<title>Node1&#45;&gt;Node4</title>
<g id="a_edge3_Node000001_Node000004"><a xlink:title=" ">
<path fill="none" stroke="#63b8ff" d="M228.78,-307.99C199.22,-279.4 110.63,-185.02 156.9,-121 186.79,-79.65 217.74,-101.82 265.9,-85 267.75,-84.36 269.64,-83.69 271.54,-83.01"/>
<polygon fill="#63b8ff" stroke="#63b8ff" points="272.83,-86.26 281.04,-79.57 270.45,-79.68 272.83,-86.26"/>
</a>
</g>
</g>
<!-- Node5 -->
<g id="Node000005" class="node">
<title>Node5</title>
<g id="a_Node000005"><a xlink:title=" ">
<polygon fill="#e0e0e0" stroke="#999999" points="1559.4,-79.5 1486.4,-79.5 1486.4,-60.5 1559.4,-60.5 1559.4,-79.5"/>
<text text-anchor="middle" x="1522.9" y="-67.5" font-family="Helvetica,sans-Serif" font-size="10.00">string_view</text>
</a>
</g>
</g>
<!-- Node1&#45;&gt;Node5 -->
<g id="edge4_Node000001_Node000005" class="edge">
<title>Node1&#45;&gt;Node5</title>
<g id="a_edge4_Node000001_Node000005"><a xlink:title=" ">
<path fill="none" stroke="#63b8ff" d="M312.57,-316.69C579.91,-316.61 1477.98,-309.41 1562.9,-217 1591.78,-185.58 1579.51,-161.1 1564.9,-121 1560.1,-107.82 1550.13,-95.7 1541.11,-86.69"/>
<polygon fill="#63b8ff" stroke="#63b8ff" points="1543.26,-83.92 1533.57,-79.63 1538.48,-89.02 1543.26,-83.92"/>
</a>
</g>
</g>
<!-- Node6 -->
<g id="Node000006" class="node">
<title>Node6</title>
<g id="a_Node000006"><a xlink:title=" ">
<polygon fill="#e0e0e0" stroke="#999999" points="398.4,-79.5 351.4,-79.5 351.4,-60.5 398.4,-60.5 398.4,-79.5"/>
<text text-anchor="middle" x="374.9" y="-67.5" font-family="Helvetica,sans-Serif" font-size="10.00">vector</text>
</a>
</g>
</g>
<!-- Node1&#45;&gt;Node6 -->
<g id="edge5_Node000001_Node000006" class="edge">
<title>Node1&#45;&gt;Node6</title>
<g id="a_edge5_Node000001_Node000006"><a xlink:title=" ">
<path fill="none" stroke="#63b8ff" d="M242.78,-307.76C262.67,-272.12 337.91,-137.29 365.06,-88.64"/>
<polygon fill="#63b8ff" stroke="#63b8ff" points="368.27,-90.07 370.09,-79.63 362.16,-86.66 368.27,-90.07"/>
</a>
</g>
</g>
<!-- Node7 -->
<g id="Node000007" class="node">
<title>Node7</title>
<g id="a_Node000007"><a xlink:href="visibility_8hpp.html" target="_top" xlink:title=" ">
<polygon fill="white" stroke="#666666" points="670.9,-79.5 530.9,-79.5 530.9,-60.5 670.9,-60.5 670.9,-79.5"/>
<text text-anchor="middle" x="600.9" y="-67.5" font-family="Helvetica,sans-Serif" font-size="10.00">unilink/base/visibility.hpp</text>
</a>
</g>
</g>
<!-- Node1&#45;&gt;Node7 -->
<g id="edge6_Node000001_Node000007" class="edge">
<title>Node1&#45;&gt;Node7</title>
<g id="a_edge6_Node000001_Node000007"><a xlink:title=" ">
<path fill="none" stroke="#63b8ff" d="M273.38,-307.99C340.38,-290.16 486.29,-242.75 569.9,-151 585.78,-133.58 593.88,-107.12 597.74,-89.46"/>
<polygon fill="#63b8ff" stroke="#63b8ff" points="601.2,-90.02 599.67,-79.54 594.33,-88.68 601.2,-90.02"/>
</a>
</g>
</g>
<!-- Node8 -->
<g id="Node000008" class="node">
<title>Node8</title>
<g id="a_Node000008"><a xlink:href="iframer_8hpp.html" target="_top" xlink:title=" ">
<polygon fill="white" stroke="#666666" points="310.4,-145.5 165.4,-145.5 165.4,-126.5 310.4,-126.5 310.4,-145.5"/>
<text text-anchor="middle" x="237.9" y="-133.5" font-family="Helvetica,sans-Serif" font-size="10.00">unilink/framer/iframer.hpp</text>
</a>
</g>
</g>
<!-- Node1&#45;&gt;Node8 -->
<g id="edge7_Node000001_Node000008" class="edge">
<title>Node1&#45;&gt;Node8</title>
<g id="a_edge7_Node000001_Node000008"><a xlink:title=" ">
<path fill="none" stroke="#63b8ff" d="M237.9,-307.84C237.9,-280.3 237.9,-194.26 237.9,-155.84"/>
<polygon fill="#63b8ff" stroke="#63b8ff" points="241.41,-155.57 237.9,-145.57 234.41,-155.57 241.41,-155.57"/>
</a>
</g>
</g>
<!-- Node13 -->
<g id="Node000013" class="node">
<title>Node13</title>
<g id="a_Node000013"><a xlink:href="context_8hpp.html" target="_top" xlink:title=" ">
<polygon fill="white" stroke="#666666" points="1075.4,-272 922.4,-272 922.4,-253 1075.4,-253 1075.4,-272"/>
<text text-anchor="middle" x="998.9" y="-260" font-family="Helvetica,sans-Serif" font-size="10.00">unilink/wrapper/context.hpp</text>
</a>
</g>
</g>
<!-- Node1&#45;&gt;Node13 -->
<g id="edge16_Node000001_Node000013" class="edge">
<title>Node1&#45;&gt;Node13</title>
<g id="a_edge16_Node000001_Node000013"><a xlink:title=" ">
<path fill="none" stroke="#63b8ff" d="M312.61,-311.3C454.37,-301.42 761.67,-280.02 912.23,-269.54"/>
<polygon fill="#63b8ff" stroke="#63b8ff" points="912.63,-273.02 922.36,-268.83 912.14,-266.03 912.63,-273.02"/>
</a>
</g>
</g>
<!-- Node8&#45;&gt;Node2 -->
<g id="edge8_Node000008_Node000002" class="edge">
<title>Node8&#45;&gt;Node2</title>
<g id="a_edge8_Node000008_Node000002"><a xlink:title=" ">
<path fill="none" stroke="#63b8ff" d="M217.68,-126.37C191.95,-115.39 147.34,-96.36 117.71,-83.72"/>
<polygon fill="#63b8ff" stroke="#63b8ff" points="118.86,-80.4 108.29,-79.7 116.12,-86.84 118.86,-80.4"/>
</a>
</g>
</g>
<!-- Node8&#45;&gt;Node4 -->
<g id="edge9_Node000008_Node000004" class="edge">
<title>Node8&#45;&gt;Node4</title>
<g id="a_edge9_Node000008_Node000004"><a xlink:title=" ">
<path fill="none" stroke="#63b8ff" d="M246.81,-126.37C257.18,-116.31 274.54,-99.48 287.4,-87.01"/>
<polygon fill="#63b8ff" stroke="#63b8ff" points="289.98,-89.38 294.72,-79.91 285.11,-84.35 289.98,-89.38"/>
</a>
</g>
</g>
<!-- Node8&#45;&gt;Node6 -->
<g id="edge10_Node000008_Node000006" class="edge">
<title>Node8&#45;&gt;Node6</title>
<g id="a_edge10_Node000008_Node000006"><a xlink:title=" ">
<path fill="none" stroke="#63b8ff" d="M256.38,-126.37C279.67,-115.49 319.92,-96.69 346.97,-84.05"/>
<polygon fill="#63b8ff" stroke="#63b8ff" points="348.7,-87.1 356.28,-79.7 345.74,-80.76 348.7,-87.1"/>
</a>
</g>
</g>
<!-- Node8&#45;&gt;Node7 -->
<g id="edge11_Node000008_Node000007" class="edge">
<title>Node8&#45;&gt;Node7</title>
<g id="a_edge11_Node000008_Node000007"><a xlink:title=" ">
<path fill="none" stroke="#63b8ff" d="M286.48,-126.44C352.77,-114.75 471.43,-93.83 542.49,-81.3"/>
<polygon fill="#63b8ff" stroke="#63b8ff" points="543.37,-84.7 552.61,-79.51 542.16,-77.8 543.37,-84.7"/>
</a>
</g>
</g>
<!-- Node9 -->
<g id="Node000009" class="node">
<title>Node9</title>
<g id="a_Node000009"><a xlink:href="safe__span_8hpp.html" target="_top" xlink:title=" ">
<polygon fill="white" stroke="#666666" points="256.9,-85 138.9,-85 138.9,-55 256.9,-55 256.9,-85"/>
<text text-anchor="start" x="146.9" y="-73" font-family="Helvetica,sans-Serif" font-size="10.00">unilink/memory/safe</text>
<text text-anchor="middle" x="197.9" y="-62" font-family="Helvetica,sans-Serif" font-size="10.00">_span.hpp</text>
</a>
</g>
</g>
<!-- Node8&#45;&gt;Node9 -->
<g id="edge12_Node000008_Node000009" class="edge">
<title>Node8&#45;&gt;Node9</title>
<g id="a_edge12_Node000008_Node000009"><a xlink:title=" ">
<path fill="none" stroke="#63b8ff" d="M232.51,-126.37C227.33,-118.08 219.27,-105.18 212.23,-93.92"/>
<polygon fill="#63b8ff" stroke="#63b8ff" points="215.15,-91.99 206.88,-85.36 209.21,-95.7 215.15,-91.99"/>
</a>
</g>
</g>
<!-- Node10 -->
<g id="Node000010" class="node">
<title>Node10</title>
<g id="a_Node000010"><a xlink:title=" ">
<polygon fill="#e0e0e0" stroke="#999999" points="470.9,-19 420.9,-19 420.9,0 470.9,0 470.9,-19"/>
<text text-anchor="middle" x="445.9" y="-7" font-family="Helvetica,sans-Serif" font-size="10.00">cstdint</text>
</a>
</g>
</g>
<!-- Node9&#45;&gt;Node10 -->
<g id="edge13_Node000009_Node000010" class="edge">
<title>Node9&#45;&gt;Node10</title>
<g id="a_edge13_Node000009_Node000010"><a xlink:title=" ">
<path fill="none" stroke="#63b8ff" d="M256.99,-55.06C304.97,-43.75 370.99,-28.17 410.94,-18.75"/>
<polygon fill="#63b8ff" stroke="#63b8ff" points="411.82,-22.14 420.75,-16.43 410.21,-15.32 411.82,-22.14"/>
</a>
</g>
</g>
<!-- Node11 -->
<g id="Node000011" class="node">
<title>Node11</title>
<g id="a_Node000011"><a xlink:title=" ">
<polygon fill="#e0e0e0" stroke="#999999" points="554.4,-19 489.4,-19 489.4,0 554.4,0 554.4,-19"/>
<text text-anchor="middle" x="521.9" y="-7" font-family="Helvetica,sans-Serif" font-size="10.00">stdexcept</text>
</a>
</g>
</g>
<!-- Node9&#45;&gt;Node11 -->
<g id="edge14_Node000009_Node000011" class="edge">
<title>Node9&#45;&gt;Node11</title>
<g id="a_edge14_Node000009_Node000011"><a xlink:title=" ">
<path fill="none" stroke="#63b8ff" d="M257.22,-56.66C260.15,-56.09 263.06,-55.53 265.9,-55 357.65,-37.84 383.43,-36.63 479.53,-19.01"/>
<polygon fill="#63b8ff" stroke="#63b8ff" points="480.17,-22.45 489.37,-17.2 478.9,-15.57 480.17,-22.45"/>
</a>
</g>
</g>
<!-- Node12 -->
<g id="Node000012" class="node">
<title>Node12</title>
<g id="a_Node000012"><a xlink:title=" ">
<polygon fill="#e0e0e0" stroke="#999999" points="327.4,-19 258.4,-19 258.4,0 327.4,0 327.4,-19"/>
<text text-anchor="middle" x="292.9" y="-7" font-family="Helvetica,sans-Serif" font-size="10.00">type_traits</text>
</a>
</g>
</g>
<!-- Node9&#45;&gt;Node12 -->
<g id="edge15_Node000009_Node000012" class="edge">
<title>Node9&#45;&gt;Node12</title>
<g id="a_edge15_Node000009_Node000012"><a xlink:title=" ">
<path fill="none" stroke="#63b8ff" d="M220.9,-54.84C235.91,-45.6 255.41,-33.59 270.33,-24.4"/>
<polygon fill="#63b8ff" stroke="#63b8ff" points="272.27,-27.32 278.95,-19.09 268.6,-21.36 272.27,-27.32"/>
</a>
</g>
</g>
<!-- Node13&#45;&gt;Node5 -->
<g id="edge19_Node000013_Node000005" class="edge">
<title>Node13&#45;&gt;Node5</title>
<g id="a_edge19_Node000013_Node000005"><a xlink:title=" ">
<path fill="none" stroke="#63b8ff" d="M1075.48,-260.84C1217.68,-258.82 1510.96,-250.58 1541.9,-217 1574.58,-181.53 1548.77,-119.04 1532.94,-88.62"/>
<polygon fill="#63b8ff" stroke="#63b8ff" points="1535.9,-86.74 1528.05,-79.62 1529.75,-90.08 1535.9,-86.74"/>
</a>
</g>
</g>
<!-- Node13&#45;&gt;Node6 -->
<g id="edge20_Node000013_Node000006" class="edge">
<title>Node13&#45;&gt;Node6</title>
<g id="a_edge20_Node000013_Node000006"><a xlink:title=" ">
<path fill="none" stroke="#63b8ff" d="M922.33,-257.5C777.85,-248.39 472.82,-221.16 397.9,-151 381.13,-135.29 376.32,-108.24 375.09,-89.99"/>
<polygon fill="#63b8ff" stroke="#63b8ff" points="378.58,-89.8 374.7,-79.94 371.59,-90.07 378.58,-89.8"/>
</a>
</g>
</g>
<!-- Node13&#45;&gt;Node9 -->
<g id="edge60_Node000013_Node000009" class="edge">
<title>Node13&#45;&gt;Node9</title>
<g id="a_edge60_Node000013_Node000009"><a xlink:title=" ">
<path fill="none" stroke="#63b8ff" d="M922.37,-257.36C723.92,-245.82 204.82,-210.19 156.9,-151 142.43,-133.12 158.22,-109.3 174.22,-92.32"/>
<polygon fill="#63b8ff" stroke="#63b8ff" points="176.9,-94.59 181.48,-85.04 171.94,-89.65 176.9,-94.59"/>
</a>
</g>
</g>
<!-- Node14 -->
<g id="Node000014" class="node">
<title>Node14</title>
<g id="a_Node000014"><a xlink:title=" ">
<polygon fill="#e0e0e0" stroke="#999999" points="1532.9,-211.5 1476.9,-211.5 1476.9,-192.5 1532.9,-192.5 1532.9,-211.5"/>
<text text-anchor="middle" x="1504.9" y="-199.5" font-family="Helvetica,sans-Serif" font-size="10.00">optional</text>
</a>
</g>
</g>
<!-- Node13&#45;&gt;Node14 -->
<g id="edge17_Node000013_Node000014" class="edge">
<title>Node13&#45;&gt;Node14</title>
<g id="a_edge17_Node000013_Node000014"><a xlink:title=" ">
<path fill="none" stroke="#63b8ff" d="M1075.45,-260.48C1169.13,-257.81 1332.07,-248.54 1467.9,-217 1470.42,-216.42 1473,-215.7 1475.56,-214.91"/>
<polygon fill="#63b8ff" stroke="#63b8ff" points="1476.93,-218.13 1485.24,-211.55 1474.64,-211.52 1476.93,-218.13"/>
</a>
</g>
</g>
<!-- Node15 -->
<g id="Node000015" class="node">
<title>Node15</title>
<g id="a_Node000015"><a xlink:title=" ">
<polygon fill="#e0e0e0" stroke="#999999" points="1380.9,-79.5 1336.9,-79.5 1336.9,-60.5 1380.9,-60.5 1380.9,-79.5"/>
<text text-anchor="middle" x="1358.9" y="-67.5" font-family="Helvetica,sans-Serif" font-size="10.00">string</text>
</a>
</g>
</g>
<!-- Node13&#45;&gt;Node15 -->
<g id="edge18_Node000013_Node000015" class="edge">
<title>Node13&#45;&gt;Node15</title>
<g id="a_edge18_Node000013_Node000015"><a xlink:title=" ">
<path fill="none" stroke="#63b8ff" d="M1041.59,-252.98C1141.58,-232.6 1384.3,-180.54 1406.9,-151 1423.18,-129.73 1398.4,-102.55 1378.81,-85.98"/>
<polygon fill="#63b8ff" stroke="#63b8ff" points="1380.85,-83.13 1370.87,-79.58 1376.46,-88.58 1380.85,-83.13"/>
</a>
</g>
</g>
<!-- Node16 -->
<g id="Node000016" class="node">
<title>Node16</title>
<g id="a_Node000016"><a xlink:href="common_8hpp.html" target="_top" xlink:title=" ">
<polygon fill="white" stroke="#666666" points="1070.4,-211.5 927.4,-211.5 927.4,-192.5 1070.4,-192.5 1070.4,-211.5"/>
<text text-anchor="middle" x="998.9" y="-199.5" font-family="Helvetica,sans-Serif" font-size="10.00">unilink/base/common.hpp</text>
</a>
</g>
</g>
<!-- Node13&#45;&gt;Node16 -->
<g id="edge21_Node000013_Node000016" class="edge">
<title>Node13&#45;&gt;Node16</title>
<g id="a_edge21_Node000013_Node000016"><a xlink:title=" ">
<path fill="none" stroke="#63b8ff" d="M998.9,-252.87C998.9,-244.75 998.9,-232.31 998.9,-221.89"/>
<polygon fill="#63b8ff" stroke="#63b8ff" points="1002.41,-221.67 998.9,-211.67 995.41,-221.67 1002.41,-221.67"/>
</a>
</g>
</g>
<!-- Node27 -->
<g id="Node000027" class="node">
<title>Node27</title>
<g id="a_Node000027"><a xlink:href="error__codes_8hpp.html" target="_top" xlink:title=" ">
<polygon fill="white" stroke="#666666" points="1458.9,-217 1356.9,-217 1356.9,-187 1458.9,-187 1458.9,-217"/>
<text text-anchor="start" x="1364.9" y="-205" font-family="Helvetica,sans-Serif" font-size="10.00">unilink/base/error</text>
<text text-anchor="middle" x="1407.9" y="-194" font-family="Helvetica,sans-Serif" font-size="10.00">_codes.hpp</text>
</a>
</g>
</g>
<!-- Node13&#45;&gt;Node27 -->
<g id="edge47_Node000013_Node000027" class="edge">
<title>Node13&#45;&gt;Node27</title>
<g id="a_edge47_Node000013_Node000027"><a xlink:title=" ">
<path fill="none" stroke="#63b8ff" d="M1075.69,-253.43C1145.59,-245.64 1251.51,-232.73 1342.9,-217 1344.18,-216.78 1345.48,-216.55 1346.78,-216.32"/>
<polygon fill="#63b8ff" stroke="#63b8ff" points="1347.71,-219.7 1356.89,-214.41 1346.41,-212.82 1347.71,-219.7"/>
</a>
</g>
</g>
<!-- Node28 -->
<g id="Node000028" class="node">
<title>Node28</title>
<g id="a_Node000028"><a xlink:href="safe__data__buffer_8hpp.html" target="_top" xlink:title=" ">
<polygon fill="white" stroke="#666666" points="560.9,-151 442.9,-151 442.9,-121 560.9,-121 560.9,-151"/>
<text text-anchor="start" x="450.9" y="-139" font-family="Helvetica,sans-Serif" font-size="10.00">unilink/memory/safe</text>
<text text-anchor="middle" x="501.9" y="-128" font-family="Helvetica,sans-Serif" font-size="10.00">_data_buffer.hpp</text>
</a>
</g>
</g>
<!-- Node13&#45;&gt;Node28 -->
<g id="edge49_Node000013_Node000028" class="edge">
<title>Node13&#45;&gt;Node28</title>
<g id="a_edge49_Node000013_Node000028"><a xlink:title=" ">
<path fill="none" stroke="#63b8ff" d="M964.74,-252.94C882.97,-232.46 674.84,-180.32 567.75,-153.5"/>
<polygon fill="#63b8ff" stroke="#63b8ff" points="568.58,-150.09 558.03,-151.06 566.88,-156.88 568.58,-150.09"/>
</a>
</g>
</g>
<!-- Node16&#45;&gt;Node2 -->
<g id="edge26_Node000016_Node000002" class="edge">
<title>Node16&#45;&gt;Node2</title>
<g id="a_edge26_Node000016_Node000002"><a xlink:title=" ">
<path fill="none" stroke="#63b8ff" d="M927.37,-199.93C736.5,-196.62 225.04,-184.69 156.9,-151 129.6,-137.5 108.69,-107.85 97.36,-88.69"/>
<polygon fill="#63b8ff" stroke="#63b8ff" points="100.29,-86.75 92.33,-79.76 94.19,-90.19 100.29,-86.75"/>
</a>
</g>
</g>
<!-- Node16&#45;&gt;Node5 -->
<g id="edge32_Node000016_Node000005" class="edge">
<title>Node16&#45;&gt;Node5</title>
<g id="a_edge32_Node000016_Node000005"><a xlink:title=" ">
<path fill="none" stroke="#63b8ff" d="M1070.81,-196.33C1171.02,-189.13 1347.11,-173.7 1406.9,-151 1446.28,-136.05 1485.15,-105.03 1506.39,-86.31"/>
<polygon fill="#63b8ff" stroke="#63b8ff" points="1508.79,-88.87 1513.88,-79.58 1504.11,-83.67 1508.79,-88.87"/>
</a>
</g>
</g>
<!-- Node16&#45;&gt;Node6 -->
<g id="edge34_Node000016_Node000006" class="edge">
<title>Node16&#45;&gt;Node6</title>
<g id="a_edge34_Node000016_Node000006"><a xlink:title=" ">
<path fill="none" stroke="#63b8ff" d="M927.37,-201.86C794.73,-202.31 516.59,-197.45 433.9,-151 409.15,-137.09 391.84,-108.02 382.64,-89.02"/>
<polygon fill="#63b8ff" stroke="#63b8ff" points="385.7,-87.3 378.36,-79.65 379.33,-90.2 385.7,-87.3"/>
</a>
</g>
</g>
<!-- Node16&#45;&gt;Node10 -->
<g id="edge23_Node000016_Node000010" class="edge">
<title>Node16&#45;&gt;Node10</title>
<g id="a_edge23_Node000016_Node000010"><a xlink:title=" ">
<path fill="none" stroke="#63b8ff" d="M927.34,-194.88C868.3,-188.18 791.21,-175.02 771.9,-151 763.55,-140.61 766.2,-133.05 771.9,-121 782.73,-98.17 805.08,-107.83 815.9,-85 821.61,-72.95 824.82,-64.92 815.9,-55 765.87,0.7 554.66,-31.86 480.9,-19 480.8,-18.98 480.7,-18.96 480.6,-18.95"/>
<polygon fill="#63b8ff" stroke="#63b8ff" points="481.55,-15.57 471.06,-17.03 480.17,-22.43 481.55,-15.57"/>
</a>
</g>
</g>
<!-- Node16&#45;&gt;Node11 -->
<g id="edge30_Node000016_Node000011" class="edge">
<title>Node16&#45;&gt;Node11</title>
<g id="a_edge30_Node000016_Node000011"><a xlink:title=" ">
<path fill="none" stroke="#63b8ff" d="M1070.65,-201.47C1160.78,-200.17 1319.23,-191.53 1447.9,-151 1513.38,-130.38 1616.4,-104.56 1568.9,-55 1533.62,-18.18 756.76,-11.72 564.6,-10.68"/>
<polygon fill="#63b8ff" stroke="#63b8ff" points="564.61,-7.18 554.59,-10.63 564.58,-14.18 564.61,-7.18"/>
</a>
</g>
</g>
<!-- Node16&#45;&gt;Node15 -->
<g id="edge31_Node000016_Node000015" class="edge">
<title>Node16&#45;&gt;Node15</title>
<g id="a_edge31_Node000016_Node000015"><a xlink:title=" ">
<path fill="none" stroke="#63b8ff" d="M1070.67,-196.88C1177.78,-190 1369.19,-174.53 1389.9,-151 1406.06,-132.65 1388.75,-104.94 1374.25,-87.42"/>
<polygon fill="#63b8ff" stroke="#63b8ff" points="1376.74,-84.95 1367.52,-79.72 1371.47,-89.55 1376.74,-84.95"/>
</a>
</g>
</g>
<!-- Node17 -->
<g id="Node000017" class="node">
<title>Node17</title>
<g id="a_Node000017"><a xlink:title=" ">
<polygon fill="#e0e0e0" stroke="#999999" points="806.9,-79.5 756.9,-79.5 756.9,-60.5 806.9,-60.5 806.9,-79.5"/>
<text text-anchor="middle" x="781.9" y="-67.5" font-family="Helvetica,sans-Serif" font-size="10.00">chrono</text>
</a>
</g>
</g>
<!-- Node16&#45;&gt;Node17 -->
<g id="edge22_Node000016_Node000017" class="edge">
<title>Node16&#45;&gt;Node17</title>
<g id="a_edge22_Node000016_Node000017"><a xlink:title=" ">
<path fill="none" stroke="#63b8ff" d="M974.23,-192.39C950.31,-183.57 913.42,-168.66 883.9,-151 865.44,-139.95 862.83,-134.29 845.9,-121 830.95,-109.25 813.99,-96.01 801.28,-86.1"/>
<polygon fill="#63b8ff" stroke="#63b8ff" points="803.29,-83.22 793.25,-79.83 798.98,-88.74 803.29,-83.22"/>
</a>
</g>
</g>
<!-- Node18 -->
<g id="Node000018" class="node">
<title>Node18</title>
<g id="a_Node000018"><a xlink:title=" ">
<polygon fill="#e0e0e0" stroke="#999999" points="1158.9,-145.5 1108.9,-145.5 1108.9,-126.5 1158.9,-126.5 1158.9,-145.5"/>
<text text-anchor="middle" x="1133.9" y="-133.5" font-family="Helvetica,sans-Serif" font-size="10.00">cstring</text>
</a>
</g>
</g>
<!-- Node16&#45;&gt;Node18 -->
<g id="edge24_Node000016_Node000018" class="edge">
<title>Node16&#45;&gt;Node18</title>
<g id="a_edge24_Node000016_Node000018"><a xlink:title=" ">
<path fill="none" stroke="#63b8ff" d="M1017.11,-192.37C1040.06,-181.49 1079.72,-162.69 1106.38,-150.05"/>
<polygon fill="#63b8ff" stroke="#63b8ff" points="1108.02,-153.15 1115.56,-145.7 1105.02,-146.82 1108.02,-153.15"/>
</a>
</g>
</g>
<!-- Node19 -->
<g id="Node000019" class="node">
<title>Node19</title>
<g id="a_Node000019"><a xlink:title=" ">
<polygon fill="#e0e0e0" stroke="#999999" points="1220.9,-145.5 1176.9,-145.5 1176.9,-126.5 1220.9,-126.5 1220.9,-145.5"/>
<text text-anchor="middle" x="1198.9" y="-133.5" font-family="Helvetica,sans-Serif" font-size="10.00">ctime</text>
</a>
</g>
</g>
<!-- Node16&#45;&gt;Node19 -->
<g id="edge25_Node000016_Node000019" class="edge">
<title>Node16&#45;&gt;Node19</title>
<g id="a_edge25_Node000016_Node000019"><a xlink:title=" ">
<path fill="none" stroke="#63b8ff" d="M1032.7,-192.46C1067.13,-183.42 1121.87,-168.11 1167.9,-151 1169.12,-150.55 1170.35,-150.07 1171.59,-149.58"/>
<polygon fill="#63b8ff" stroke="#63b8ff" points="1173.21,-152.69 1181.05,-145.57 1170.47,-146.25 1173.21,-152.69"/>
</a>
</g>
</g>
<!-- Node20 -->
<g id="Node000020" class="node">
<title>Node20</title>
<g id="a_Node000020"><a xlink:title=" ">
<polygon fill="#e0e0e0" stroke="#999999" points="836.9,-145.5 780.9,-145.5 780.9,-126.5 836.9,-126.5 836.9,-145.5"/>
<text text-anchor="middle" x="808.9" y="-133.5" font-family="Helvetica,sans-Serif" font-size="10.00">iomanip</text>
</a>
</g>
</g>
<!-- Node16&#45;&gt;Node20 -->
<g id="edge27_Node000016_Node000020" class="edge">
<title>Node16&#45;&gt;Node20</title>
<g id="a_edge27_Node000016_Node000020"><a xlink:title=" ">
<path fill="none" stroke="#63b8ff" d="M973.28,-192.37C939.9,-181.12 881.39,-161.42 843.93,-148.8"/>
<polygon fill="#63b8ff" stroke="#63b8ff" points="845.02,-145.47 834.43,-145.6 842.79,-152.11 845.02,-145.47"/>
</a>
</g>
</g>
<!-- Node21 -->
<g id="Node000021" class="node">
<title>Node21</title>
<g id="a_Node000021"><a xlink:title=" ">
<polygon fill="#e0e0e0" stroke="#999999" points="952.9,-145.5 892.9,-145.5 892.9,-126.5 952.9,-126.5 952.9,-145.5"/>
<text text-anchor="middle" x="922.9" y="-133.5" font-family="Helvetica,sans-Serif" font-size="10.00">iostream</text>
</a>
</g>
</g>
<!-- Node16&#45;&gt;Node21 -->
<g id="edge28_Node000016_Node000021" class="edge">
<title>Node16&#45;&gt;Node21</title>
<g id="a_edge28_Node000016_Node000021"><a xlink:title=" ">
<path fill="none" stroke="#63b8ff" d="M988.66,-192.37C976.6,-182.21 956.34,-165.16 941.5,-152.65"/>
<polygon fill="#63b8ff" stroke="#63b8ff" points="943.38,-149.67 933.48,-145.91 938.87,-155.02 943.38,-149.67"/>
</a>
</g>
</g>
<!-- Node22 -->
<g id="Node000022" class="node">
<title>Node22</title>
<g id="a_Node000022"><a xlink:title=" ">
<polygon fill="#e0e0e0" stroke="#999999" points="1026.9,-145.5 970.9,-145.5 970.9,-126.5 1026.9,-126.5 1026.9,-145.5"/>
<text text-anchor="middle" x="998.9" y="-133.5" font-family="Helvetica,sans-Serif" font-size="10.00">sstream</text>
</a>
</g>
</g>
<!-- Node16&#45;&gt;Node22 -->
<g id="edge29_Node000016_Node000022" class="edge">
<title>Node16&#45;&gt;Node22</title>
<g id="a_edge29_Node000016_Node000022"><a xlink:title=" ">
<path fill="none" stroke="#63b8ff" d="M998.9,-192.37C998.9,-183.16 998.9,-168.29 998.9,-156.27"/>
<polygon fill="#63b8ff" stroke="#63b8ff" points="1002.41,-155.91 998.9,-145.91 995.41,-155.91 1002.41,-155.91"/>
</a>
</g>
</g>
<!-- Node23 -->
<g id="Node000023" class="node">
<title>Node23</title>
<g id="a_Node000023"><a xlink:title=" ">
<polygon fill="#e0e0e0" stroke="#999999" points="1090.4,-145.5 1045.4,-145.5 1045.4,-126.5 1090.4,-126.5 1090.4,-145.5"/>
<text text-anchor="middle" x="1067.9" y="-133.5" font-family="Helvetica,sans-Serif" font-size="10.00">utility</text>
</a>
</g>
</g>
<!-- Node16&#45;&gt;Node23 -->
<g id="edge33_Node000016_Node000023" class="edge">
<title>Node16&#45;&gt;Node23</title>
<g id="a_edge33_Node000016_Node000023"><a xlink:title=" ">
<path fill="none" stroke="#63b8ff" d="M1008.21,-192.37C1019.06,-182.31 1037.2,-165.48 1050.65,-153.01"/>
<polygon fill="#63b8ff" stroke="#63b8ff" points="1053.35,-155.27 1058.3,-145.91 1048.59,-150.14 1053.35,-155.27"/>
</a>
</g>
</g>
<!-- Node24 -->
<g id="Node000024" class="node">
<title>Node24</title>
<g id="a_Node000024"><a xlink:href="platform_8hpp.html" target="_top" xlink:title=" ">
<polygon fill="white" stroke="#666666" points="1380.9,-145.5 1238.9,-145.5 1238.9,-126.5 1380.9,-126.5 1380.9,-145.5"/>
<text text-anchor="middle" x="1309.9" y="-133.5" font-family="Helvetica,sans-Serif" font-size="10.00">unilink/base/platform.hpp</text>
</a>
</g>
</g>
<!-- Node16&#45;&gt;Node24 -->
<g id="edge35_Node000016_Node000024" class="edge">
<title>Node16&#45;&gt;Node24</title>
<g id="a_edge35_Node000016_Node000024"><a xlink:title=" ">
<path fill="none" stroke="#63b8ff" d="M1040.53,-192.44C1096.97,-180.82 1197.73,-160.09 1258.73,-147.53"/>
<polygon fill="#63b8ff" stroke="#63b8ff" points="1259.44,-150.96 1268.53,-145.51 1258.03,-144.1 1259.44,-150.96"/>
</a>
</g>
</g>
<!-- Node25 -->
<g id="Node000025" class="node">
<title>Node25</title>
<g id="a_Node000025"><a xlink:href="logger_8hpp.html" target="_top" xlink:title=" ">
<polygon fill="white" stroke="#666666" points="724.9,-151 616.9,-151 616.9,-121 724.9,-121 724.9,-151"/>
<text text-anchor="start" x="624.9" y="-139" font-family="Helvetica,sans-Serif" font-size="10.00">unilink/diagnostics</text>
<text text-anchor="middle" x="670.9" y="-128" font-family="Helvetica,sans-Serif" font-size="10.00">/logger.hpp</text>
</a>
</g>
</g>
<!-- Node16&#45;&gt;Node25 -->
<g id="edge38_Node000016_Node000025" class="edge">
<title>Node16&#45;&gt;Node25</title>
<g id="a_edge38_Node000016_Node000025"><a xlink:title=" ">
<path fill="none" stroke="#63b8ff" d="M953.31,-192.42C901.37,-182.6 813.97,-165.94 738.9,-151 737.64,-150.75 736.37,-150.49 735.08,-150.24"/>
<polygon fill="#63b8ff" stroke="#63b8ff" points="735.58,-146.77 725.08,-148.22 734.19,-153.63 735.58,-146.77"/>
</a>
</g>
</g>
<!-- Node24&#45;&gt;Node7 -->
<g id="edge37_Node000024_Node000007" class="edge">
<title>Node24&#45;&gt;Node7</title>
<g id="a_edge37_Node000024_Node000007"><a xlink:title=" ">
<path fill="none" stroke="#63b8ff" d="M1266.02,-126.44C1254.32,-124.4 1241.66,-122.41 1229.9,-121 986.68,-91.84 923.1,-114.42 679.9,-85 671.56,-83.99 662.75,-82.68 654.17,-81.26"/>
<polygon fill="#63b8ff" stroke="#63b8ff" points="654.69,-77.8 644.24,-79.56 653.51,-84.7 654.69,-77.8"/>
</a>
</g>
</g>
<!-- Node24&#45;&gt;Node15 -->
<g id="edge36_Node000024_Node000015" class="edge">
<title>Node24&#45;&gt;Node15</title>
<g id="a_edge36_Node000024_Node000015"><a xlink:title=" ">
<path fill="none" stroke="#63b8ff" d="M1316.51,-126.37C1324,-116.59 1336.38,-100.42 1345.83,-88.08"/>
<polygon fill="#63b8ff" stroke="#63b8ff" points="1348.79,-89.97 1352.09,-79.91 1343.23,-85.72 1348.79,-89.97"/>
</a>
</g>
</g>
<!-- Node25&#45;&gt;Node2 -->
<g id="edge41_Node000025_Node000002" class="edge">
<title>Node25&#45;&gt;Node2</title>
<g id="a_edge41_Node000025_Node000002"><a xlink:title=" ">
<path fill="none" stroke="#63b8ff" d="M616.72,-126.92C601.59,-124.82 585.13,-122.68 569.9,-121 374.88,-99.52 322.14,-124.31 129.9,-85 126.67,-84.34 123.33,-83.5 120.02,-82.57"/>
<polygon fill="#63b8ff" stroke="#63b8ff" points="120.89,-79.18 110.3,-79.57 118.82,-85.87 120.89,-79.18"/>
</a>
</g>
</g>
<!-- Node25&#45;&gt;Node4 -->
<g id="edge42_Node000025_Node000004" class="edge">
<title>Node25&#45;&gt;Node4</title>
<g id="a_edge42_Node000025_Node000004"><a xlink:title=" ">
<path fill="none" stroke="#63b8ff" d="M616.57,-127.3C530.25,-114.99 368.87,-91.57 342.9,-85 340.4,-84.37 337.84,-83.64 335.27,-82.85"/>
<polygon fill="#63b8ff" stroke="#63b8ff" points="336.13,-79.44 325.54,-79.6 333.92,-86.09 336.13,-79.44"/>
</a>
</g>
</g>
<!-- Node25&#45;&gt;Node5 -->
<g id="edge44_Node000025_Node000005" class="edge">
<title>Node25&#45;&gt;Node5</title>
<g id="a_edge44_Node000025_Node000005"><a xlink:title=" ">
<path fill="none" stroke="#63b8ff" d="M725.06,-126.68C740.19,-124.58 756.67,-122.5 771.9,-121 1045.72,-94.09 1115.69,-107.41 1389.9,-85 1418.58,-82.66 1450.66,-79.3 1476.13,-76.46"/>
<polygon fill="#63b8ff" stroke="#63b8ff" points="1476.71,-79.92 1486.25,-75.32 1475.93,-72.96 1476.71,-79.92"/>
</a>
</g>
</g>
<!-- Node25&#45;&gt;Node6 -->
<g id="edge45_Node000025_Node000006" class="edge">
<title>Node25&#45;&gt;Node6</title>
<g id="a_edge45_Node000025_Node000006"><a xlink:title=" ">
<path fill="none" stroke="#63b8ff" d="M616.61,-123.26C555.72,-110.09 458.87,-89.15 408.23,-78.21"/>
<polygon fill="#63b8ff" stroke="#63b8ff" points="408.96,-74.78 398.45,-76.09 407.48,-81.62 408.96,-74.78"/>
</a>
</g>
</g>
<!-- Node25&#45;&gt;Node7 -->
<g id="edge46_Node000025_Node000007" class="edge">
<title>Node25&#45;&gt;Node7</title>
<g id="a_edge46_Node000025_Node000007"><a xlink:title=" ">
<path fill="none" stroke="#63b8ff" d="M655.37,-120.8C644.35,-110.72 629.56,-97.19 618.17,-86.78"/>
<polygon fill="#63b8ff" stroke="#63b8ff" points="620.32,-84.01 610.58,-79.84 615.6,-89.18 620.32,-84.01"/>
</a>
</g>
</g>
<!-- Node25&#45;&gt;Node15 -->
<g id="edge43_Node000025_Node000015" class="edge">
<title>Node25&#45;&gt;Node15</title>
<g id="a_edge43_Node000025_Node000015"><a xlink:title=" ">
<path fill="none" stroke="#63b8ff" d="M725.09,-126.95C740.22,-124.85 756.69,-122.7 771.9,-121 982.91,-97.41 1237.7,-79.2 1326.51,-73.16"/>
<polygon fill="#63b8ff" stroke="#63b8ff" points="1327,-76.63 1336.74,-72.46 1326.53,-69.65 1327,-76.63"/>
</a>
</g>
</g>
<!-- Node25&#45;&gt;Node17 -->
<g id="edge40_Node000025_Node000017" class="edge">
<title>Node25&#45;&gt;Node17</title>
<g id="a_edge40_Node000025_Node000017"><a xlink:title=" ">
<path fill="none" stroke="#63b8ff" d="M695.26,-120.95C714.04,-110.13 739.86,-95.24 758.42,-84.54"/>
<polygon fill="#63b8ff" stroke="#63b8ff" points="760.22,-87.54 767.13,-79.52 756.72,-81.48 760.22,-87.54"/>
</a>
</g>
</g>
<!-- Node26 -->
<g id="Node000026" class="node">
<title>Node26</title>
<g id="a_Node000026"><a xlink:title=" ">
<polygon fill="#e0e0e0" stroke="#999999" points="738.9,-79.5 688.9,-79.5 688.9,-60.5 738.9,-60.5 738.9,-79.5"/>
<text text-anchor="middle" x="713.9" y="-67.5" font-family="Helvetica,sans-Serif" font-size="10.00">atomic</text>
</a>
</g>
</g>
<!-- Node25&#45;&gt;Node26 -->
<g id="edge39_Node000025_Node000026" class="edge">
<title>Node25&#45;&gt;Node26</title>
<g id="a_edge39_Node000025_Node000026"><a xlink:title=" ">
<path fill="none" stroke="#63b8ff" d="M680.45,-120.8C686.89,-111.21 695.43,-98.5 702.27,-88.32"/>
<polygon fill="#63b8ff" stroke="#63b8ff" points="705.29,-90.1 707.96,-79.84 699.48,-86.19 705.29,-90.1"/>
</a>
</g>
</g>
<!-- Node27&#45;&gt;Node15 -->
<g id="edge48_Node000027_Node000015" class="edge">
<title>Node27&#45;&gt;Node15</title>
<g id="a_edge48_Node000027_Node000015"><a xlink:title=" ">
<path fill="none" stroke="#63b8ff" d="M1428.38,-186.99C1448.91,-171.14 1475.54,-144.47 1460.9,-121 1445.66,-96.55 1414.58,-83.72 1390.72,-77.21"/>
<polygon fill="#63b8ff" stroke="#63b8ff" points="1391.55,-73.81 1381,-74.79 1389.86,-80.6 1391.55,-73.81"/>
</a>
</g>
</g>
<!-- Node28&#45;&gt;Node2 -->
<g id="edge51_Node000028_Node000002" class="edge">
<title>Node28&#45;&gt;Node2</title>
<g id="a_edge51_Node000028_Node000002"><a xlink:title=" ">
<path fill="none" stroke="#63b8ff" d="M442.66,-130.5C368.73,-124.09 238.78,-110.23 129.9,-85 126.93,-84.31 123.87,-83.5 120.82,-82.62"/>
<polygon fill="#63b8ff" stroke="#63b8ff" points="121.82,-79.26 111.23,-79.64 119.74,-85.95 121.82,-79.26"/>
</a>
</g>
</g>
<!-- Node28&#45;&gt;Node4 -->
<g id="edge52_Node000028_Node000004" class="edge">
<title>Node28&#45;&gt;Node4</title>
<g id="a_edge52_Node000028_Node000004"><a xlink:title=" ">
<path fill="none" stroke="#63b8ff" d="M455.48,-120.94C423.69,-111.17 380.61,-97.69 342.9,-85 341.01,-84.36 339.07,-83.7 337.12,-83.02"/>
<polygon fill="#63b8ff" stroke="#63b8ff" points="337.96,-79.61 327.36,-79.59 335.63,-86.21 337.96,-79.61"/>
</a>
</g>
</g>
<!-- Node28&#45;&gt;Node5 -->
<g id="edge55_Node000028_Node000005" class="edge">
<title>Node28&#45;&gt;Node5</title>
<g id="a_edge55_Node000028_Node000005"><a xlink:title=" ">
<path fill="none" stroke="#63b8ff" d="M560.95,-126.29C576.22,-124.29 592.65,-122.36 607.9,-121 954.46,-90.19 1042.97,-111.22 1389.9,-85 1418.6,-82.83 1450.68,-79.48 1476.14,-76.6"/>
<polygon fill="#63b8ff" stroke="#63b8ff" points="1476.73,-80.06 1486.26,-75.44 1475.93,-73.1 1476.73,-80.06"/>
</a>
</g>
</g>
<!-- Node28&#45;&gt;Node6 -->
<g id="edge57_Node000028_Node000006" class="edge">
<title>Node28&#45;&gt;Node6</title>
<g id="a_edge57_Node000028_Node000006"><a xlink:title=" ">
<path fill="none" stroke="#63b8ff" d="M474.03,-120.95C452.25,-109.98 422.2,-94.83 400.91,-84.11"/>
<polygon fill="#63b8ff" stroke="#63b8ff" points="402.31,-80.89 391.81,-79.52 399.16,-87.14 402.31,-80.89"/>
</a>
</g>
</g>
<!-- Node28&#45;&gt;Node7 -->
<g id="edge58_Node000028_Node000007" class="edge">
<title>Node28&#45;&gt;Node7</title>
<g id="a_edge58_Node000028_Node000007"><a xlink:title=" ">
<path fill="none" stroke="#63b8ff" d="M523.88,-120.8C540.31,-110.17 562.69,-95.7 579.09,-85.1"/>
<polygon fill="#63b8ff" stroke="#63b8ff" points="581.01,-88.03 587.51,-79.66 577.21,-82.15 581.01,-88.03"/>
</a>
</g>
</g>
<!-- Node28&#45;&gt;Node9 -->
<g id="edge59_Node000028_Node000009" class="edge">
<title>Node28&#45;&gt;Node9</title>
<g id="a_edge59_Node000028_Node000009"><a xlink:title=" ">
<path fill="none" stroke="#63b8ff" d="M442.57,-122.51C392.25,-111.91 320.01,-96.71 267.08,-85.56"/>
<polygon fill="#63b8ff" stroke="#63b8ff" points="267.6,-82.1 257.09,-83.46 266.16,-88.95 267.6,-82.1"/>
</a>
</g>
</g>
<!-- Node28&#45;&gt;Node10 -->
<g id="edge50_Node000028_Node000010" class="edge">
<title>Node28&#45;&gt;Node10</title>
<g id="a_edge50_Node000028_Node000010"><a xlink:title=" ">
<path fill="none" stroke="#63b8ff" d="M495.48,-120.72C485.22,-97.92 465.17,-53.33 453.96,-28.42"/>
<polygon fill="#63b8ff" stroke="#63b8ff" points="457.05,-26.75 449.76,-19.07 450.67,-29.63 457.05,-26.75"/>
</a>
</g>
</g>
<!-- Node28&#45;&gt;Node11 -->
<g id="edge53_Node000028_Node000011" class="edge">
<title>Node28&#45;&gt;Node11</title>
<g id="a_edge53_Node000028_Node000011"><a xlink:title=" ">
<path fill="none" stroke="#63b8ff" d="M504.2,-120.72C507.83,-98.12 514.9,-54.12 518.92,-29.09"/>
<polygon fill="#63b8ff" stroke="#63b8ff" points="522.4,-29.5 520.53,-19.07 515.49,-28.39 522.4,-29.5"/>
</a>
</g>
</g>
<!-- Node28&#45;&gt;Node12 -->
<g id="edge56_Node000028_Node000012" class="edge">
<title>Node28&#45;&gt;Node12</title>
<g id="a_edge56_Node000028_Node000012"><a xlink:title=" ">
<path fill="none" stroke="#63b8ff" d="M488.41,-120.9C471.12,-103.49 439.57,-73.86 407.9,-55 384.35,-40.97 355.59,-29.84 332.72,-22.22"/>
<polygon fill="#63b8ff" stroke="#63b8ff" points="333.58,-18.83 322.99,-19.07 331.43,-25.48 333.58,-18.83"/>
</a>
</g>
</g>
<!-- Node28&#45;&gt;Node15 -->
<g id="edge54_Node000028_Node000015" class="edge">
<title>Node28&#45;&gt;Node15</title>
<g id="a_edge54_Node000028_Node000015"><a xlink:title=" ">
<path fill="none" stroke="#63b8ff" d="M560.98,-126.51C576.24,-124.5 592.67,-122.51 607.9,-121 885.45,-93.46 1222.26,-77.09 1326.56,-72.4"/>
<polygon fill="#63b8ff" stroke="#63b8ff" points="1326.91,-75.89 1336.74,-71.95 1326.6,-68.9 1326.91,-75.89"/>
</a>
</g>
</g>
</g>
</svg>

<g id="navigator" transform="translate(0 0)" fill="#404254">
  <rect fill="#f2f5e9" fill-opacity="0.5" stroke="#606060" stroke-width=".5" x="0" y="0" width="60" height="60"/>
  <use id="zoomplus" xlink:href="#zoomPlus" x="17" y="9" onmousedown="handleZoom(evt,'in')"/>
  <use id="zoomminus" xlink:href="#zoomMin" x="42" y="9" onmousedown="handleZoom(evt,'out')"/>
  <use id="reset" xlink:href="#resetDef" x="30" y="36" onmousedown="handleReset()"/>
   <use id="arrowup" xlink:href="#arrowUp" x="0" y="0" onmousedown="handlePan(0,-1)"/>
  <use id="arrowright" xlink:href="#arrowRight" x="0" y="0" onmousedown="handlePan(1,0)"/>
  <use id="arrowdown" xlink:href="#arrowDown" x="0" y="0" onmousedown="handlePan(0,1)"/>
  <use id="arrowleft" xlink:href="#arrowLeft" x="0" y="0" onmousedown="handlePan(-1,0)"/>
</g>
<svg viewBox="0 0 15 15" width="100%" height="30px" preserveAspectRatio="xMaxYMin meet">
 <g id="arrow_out" transform="scale(0.3 0.3)">
  <a xlink:href="iserver_8hpp__incl_org.svg" target="_base">
   <rect id="button" ry="5" rx="5" y="6" x="6" height="38" width="38"
        fill="#f2f5e9" fill-opacity="0.5" stroke="#606060" stroke-width="1.0"/>
   <path id="arrow"
     d="M 11.500037,31.436501 C 11.940474,20.09759 22.043105,11.32322 32.158766,21.979434 L 37.068811,17.246167 C 37.068811,17.246167 37.088388,32 37.088388,32 L 22.160133,31.978069 C 22.160133,31.978069 26.997745,27.140456 26.997745,27.140456 C 18.528582,18.264221 13.291696,25.230495 11.500037,31.436501 z"
     style="fill:#404040;"/>
  </a>
 </g>
</svg>

<style type='text/css'>
<![CDATA[
[data-mouse-over-selected='false'] { opacity: 0.7; }
[data-mouse-over-selected='true']  { opacity: 1.0; }
]]>
</style>
<script type="application/ecmascript"><![CDATA[
document.addEventListener('DOMContentLoaded', (event) => {
  highlightEdges();
  highlightAdjacentNodes();
});
]]></script>
</svg>
