<?xml version="1.0" encoding="UTF-8" standalone="no"?>
<!DOCTYPE svg PUBLIC "-//W3C//DTD SVG 1.1//EN"
 "http://www.w3.org/Graphics/SVG/1.1/DTD/svg11.dtd">
<!-- Generated by graphviz version 2.43.0 (0)
 -->
<!-- Title: unilink/interface/itcp_socket.hpp Pages: 1 -->
<svg width="542pt" height="170pt"
 viewBox="0.00 0.00 542.00 170.00" xmlns="http://www.w3.org/2000/svg" xmlns:xlink="http://www.w3.org/1999/xlink">
<g id="graph0" class="graph" transform="scale(1 1) rotate(0) translate(4 166)">
<title>unilink/interface/itcp_socket.hpp</title>
<!-- Node1 -->
<g id="Node000001" class="node">
<title>Node1</title>
<g id="a_Node000001"><a xlink:title=" ">
<polygon fill="#999999" stroke="#666666" points="274,-162 157,-162 157,-132 274,-132 274,-162"/>
<text text-anchor="start" x="165" y="-150" font-family="Helvetica,sans-Serif" font-size="10.00">unilink/interface/itcp</text>
<text text-anchor="middle" x="215.5" y="-139" font-family="Helvetica,sans-Serif" font-size="10.00">_socket.hpp</text>
</a>
</g>
</g>
<!-- Node2 -->
<g id="Node000002" class="node">
<title>Node2</title>
<g id="a_Node000002"><a xlink:href="itcp__socket_8cc.html" target="_top" xlink:title=" ">
<polygon fill="white" stroke="#666666" points="117,-96 0,-96 0,-66 117,-66 117,-96"/>
<text text-anchor="start" x="8" y="-84" font-family="Helvetica,sans-Serif" font-size="10.00">unilink/interface/itcp</text>
<text text-anchor="middle" x="58.5" y="-73" font-family="Helvetica,sans-Serif" font-size="10.00">_socket.cc</text>
</a>
</g>
</g>
<!-- Node1&#45;&gt;Node2 -->
<g id="edge1_Node000001_Node000002" class="edge">
<title>Node1&#45;&gt;Node2</title>
<g id="a_edge1_Node000001_Node000002"><a xlink:title=" ">
<path fill="none" stroke="#63b8ff" d="M171.48,-128.05C146.6,-117.91 115.97,-105.43 92.87,-96.01"/>
<polygon fill="#63b8ff" stroke="#63b8ff" points="170.46,-131.42 181.05,-131.95 173.11,-124.94 170.46,-131.42"/>
</a>
</g>
</g>
<!-- Node3 -->
<g id="Node000003" class="node">
<title>Node3</title>
<g id="a_Node000003"><a xlink:href="boost__tcp__socket_8hpp.html" target="_top" xlink:title=" ">
<polygon fill="white" stroke="#666666" points="296,-96 135,-96 135,-66 296,-66 296,-96"/>
<text text-anchor="start" x="143" y="-84" font-family="Helvetica,sans-Serif" font-size="10.00">unilink/transport/tcp</text>
<text text-anchor="middle" x="215.5" y="-73" font-family="Helvetica,sans-Serif" font-size="10.00">_server/boost_tcp_socket.hpp</text>
</a>
</g>
</g>
<!-- Node1&#45;&gt;Node3 -->
<g id="edge2_Node000001_Node000003" class="edge">
<title>Node1&#45;&gt;Node3</title>
<g id="a_edge2_Node000001_Node000003"><a xlink:title=" ">
<path fill="none" stroke="#63b8ff" d="M215.5,-121.54C215.5,-112.96 215.5,-103.61 215.5,-96.16"/>
<polygon fill="#63b8ff" stroke="#63b8ff" points="212,-121.8 215.5,-131.8 219,-121.8 212,-121.8"/>
</a>
</g>
</g>
<!-- Node6 -->
<g id="Node000006" class="node">
<title>Node6</title>
<g id="a_Node000006"><a xlink:href="tcp__server__session_8hpp.html" target="_top" xlink:title=" ">
<polygon fill="white" stroke="#666666" points="484.5,-96 314.5,-96 314.5,-66 484.5,-66 484.5,-96"/>
<text text-anchor="start" x="322.5" y="-84" font-family="Helvetica,sans-Serif" font-size="10.00">unilink/transport/tcp</text>
<text text-anchor="middle" x="399.5" y="-73" font-family="Helvetica,sans-Serif" font-size="10.00">_server/tcp_server_session.hpp</text>
</a>
</g>
</g>
<!-- Node1&#45;&gt;Node6 -->
<g id="edge5_Node000001_Node000006" class="edge">
<title>Node1&#45;&gt;Node6</title>
<g id="a_edge5_Node000001_Node000006"><a xlink:title=" ">
<path fill="none" stroke="#63b8ff" d="M265.55,-128.59C294.97,-118.36 331.67,-105.59 359.21,-96.01"/>
<polygon fill="#63b8ff" stroke="#63b8ff" points="264.17,-125.36 255.88,-131.95 266.47,-131.98 264.17,-125.36"/>
</a>
</g>
</g>
<!-- Node4 -->
<g id="Node000004" class="node">
<title>Node4</title>
<g id="a_Node000004"><a xlink:href="boost__tcp__socket_8cc.html" target="_top" xlink:title=" ">
<polygon fill="white" stroke="#666666" points="216,-30 63,-30 63,0 216,0 216,-30"/>
<text text-anchor="start" x="71" y="-18" font-family="Helvetica,sans-Serif" font-size="10.00">unilink/transport/tcp</text>
<text text-anchor="middle" x="139.5" y="-7" font-family="Helvetica,sans-Serif" font-size="10.00">_server/boost_tcp_socket.cc</text>
</a>
</g>
</g>
<!-- Node3&#45;&gt;Node4 -->
<g id="edge3_Node000003_Node000004" class="edge">
<title>Node3&#45;&gt;Node4</title>
<g id="a_edge3_Node000003_Node000004"><a xlink:title=" ">
<path fill="none" stroke="#63b8ff" d="M190.8,-59.2C179.52,-49.7 166.45,-38.69 156.32,-30.16"/>
<polygon fill="#63b8ff" stroke="#63b8ff" points="188.73,-62.03 198.63,-65.8 193.24,-56.68 188.73,-62.03"/>
</a>
</g>
</g>
<!-- Node5 -->
<g id="Node000005" class="node">
<title>Node5</title>
<g id="a_Node000005"><a xlink:href="tcp__server__session_8cc.html" target="_top" xlink:title=" ">
<polygon fill="white" stroke="#666666" points="396.5,-30 234.5,-30 234.5,0 396.5,0 396.5,-30"/>
<text text-anchor="start" x="242.5" y="-18" font-family="Helvetica,sans-Serif" font-size="10.00">unilink/transport/tcp</text>
<text text-anchor="middle" x="315.5" y="-7" font-family="Helvetica,sans-Serif" font-size="10.00">_server/tcp_server_session.cc</text>
</a>
</g>
</g>
<!-- Node3&#45;&gt;Node5 -->
<g id="edge4_Node000003_Node000005" class="edge">
<title>Node3&#45;&gt;Node5</title>
<g id="a_edge4_Node000003_Node000005"><a xlink:title=" ">
<path fill="none" stroke="#63b8ff" d="M246.28,-60.3C261.5,-50.56 279.53,-39.02 293.37,-30.16"/>
<polygon fill="#63b8ff" stroke="#63b8ff" points="244.23,-57.46 237.69,-65.8 248,-63.35 244.23,-57.46"/>
</a>
</g>
</g>
<!-- Node6&#45;&gt;Node5 -->
<g id="edge7_Node000006_Node000005" class="edge">
<title>Node6&#45;&gt;Node5</title>
<g id="a_edge7_Node000006_Node000005"><a xlink:title=" ">
<path fill="none" stroke="#63b8ff" d="M372.56,-59.48C360.01,-49.91 345.39,-38.77 334.09,-30.16"/>
<polygon fill="#63b8ff" stroke="#63b8ff" points="370.78,-62.52 380.86,-65.8 375.02,-56.95 370.78,-62.52"/>
</a>
</g>
</g>
<!-- Node7 -->
<g id="Node000007" class="node">
<title>Node7</title>
<g id="a_Node000007"><a xlink:href="transport_2tcp__server_2tcp__server_8cc.html" target="_top" xlink:title=" ">
<polygon fill="white" stroke="#666666" points="534,-30 415,-30 415,0 534,0 534,-30"/>
<text text-anchor="start" x="423" y="-18" font-family="Helvetica,sans-Serif" font-size="10.00">unilink/transport/tcp</text>
<text text-anchor="middle" x="474.5" y="-7" font-family="Helvetica,sans-Serif" font-size="10.00">_server/tcp_server.cc</text>
</a>
</g>
</g>
<!-- Node6&#45;&gt;Node7 -->
<g id="edge6_Node000006_Node000007" class="edge">
<title>Node6&#45;&gt;Node7</title>
<g id="a_edge6_Node000006_Node000007"><a xlink:title=" ">
<path fill="none" stroke="#63b8ff" d="M423.87,-59.2C435.01,-49.7 447.91,-38.69 457.9,-30.16"/>
<polygon fill="#63b8ff" stroke="#63b8ff" points="421.48,-56.64 416.14,-65.8 426.02,-61.97 421.48,-56.64"/>
</a>
</g>
</g>
</g>
</svg>
