<?xml version="1.0" encoding="UTF-8" standalone="no"?>
<!DOCTYPE svg PUBLIC "-//W3C//DTD SVG 1.1//EN"
 "http://www.w3.org/Graphics/SVG/1.1/DTD/svg11.dtd">
<!-- Generated by graphviz version 2.43.0 (0)
 -->
<!-- Title: unilink/interface/itcp_acceptor.hpp Pages: 1 -->
<svg width="455pt" height="173pt"
 viewBox="0.00 0.00 454.50 173.00" xmlns="http://www.w3.org/2000/svg" xmlns:xlink="http://www.w3.org/1999/xlink">
<g id="graph0" class="graph" transform="scale(1 1) rotate(0) translate(4 169)">
<title>unilink/interface/itcp_acceptor.hpp</title>
<polygon fill="white" stroke="transparent" points="-4,4 -4,-169 450.5,-169 450.5,4 -4,4"/>
<!-- Node1 -->
<g id="node1" class="node">
<title>Node1</title>
<g id="a_node1"><a xlink:title=" ">
<polygon fill="#bfbfbf" stroke="black" points="181.5,-134.5 181.5,-164.5 298.5,-164.5 298.5,-134.5 181.5,-134.5"/>
<text text-anchor="start" x="189.5" y="-152.5" font-family="Helvetica,sans-Serif" font-size="10.00">unilink/interface/itcp</text>
<text text-anchor="middle" x="240" y="-141.5" font-family="Helvetica,sans-Serif" font-size="10.00">_acceptor.hpp</text>
</a>
</g>
</g>
<!-- Node2 -->
<g id="node2" class="node">
<title>Node2</title>
<g id="a_node2"><a xlink:href="itcp__acceptor_8cc.html" target="_top" xlink:title=" ">
<polygon fill="white" stroke="black" points="19.5,-67.5 19.5,-97.5 136.5,-97.5 136.5,-67.5 19.5,-67.5"/>
<text text-anchor="start" x="27.5" y="-85.5" font-family="Helvetica,sans-Serif" font-size="10.00">unilink/interface/itcp</text>
<text text-anchor="middle" x="78" y="-74.5" font-family="Helvetica,sans-Serif" font-size="10.00">_acceptor.cc</text>
</a>
</g>
</g>
<!-- Node1&#45;&gt;Node2 -->
<g id="edge1" class="edge">
<title>Node1&#45;&gt;Node2</title>
<path fill="none" stroke="midnightblue" d="M195.25,-130.54C169.33,-120.14 137.16,-107.24 113.08,-97.58"/>
<polygon fill="midnightblue" stroke="midnightblue" points="194.26,-133.92 204.85,-134.4 196.87,-127.42 194.26,-133.92"/>
</g>
<!-- Node3 -->
<g id="node3" class="node">
<title>Node3</title>
<g id="a_node3"><a xlink:href="boost__tcp__acceptor_8hpp.html" target="_top" xlink:title=" ">
<polygon fill="white" stroke="black" points="155,-67.5 155,-97.5 325,-97.5 325,-67.5 155,-67.5"/>
<text text-anchor="start" x="163" y="-85.5" font-family="Helvetica,sans-Serif" font-size="10.00">unilink/transport/tcp</text>
<text text-anchor="middle" x="240" y="-74.5" font-family="Helvetica,sans-Serif" font-size="10.00">_server/boost_tcp_acceptor.hpp</text>
</a>
</g>
</g>
<!-- Node1&#45;&gt;Node3 -->
<g id="edge2" class="edge">
<title>Node1&#45;&gt;Node3</title>
<path fill="none" stroke="midnightblue" d="M240,-124.11C240,-115.15 240,-105.32 240,-97.58"/>
<polygon fill="midnightblue" stroke="midnightblue" points="236.5,-124.4 240,-134.4 243.5,-124.4 236.5,-124.4"/>
</g>
<!-- Node6 -->
<g id="node6" class="node">
<title>Node6</title>
<g id="a_node6"><a xlink:href="transport_2tcp__server_2tcp__server_8cc.html" target="_top" xlink:title=" ">
<polygon fill="white" stroke="black" points="327.5,-0.5 327.5,-30.5 446.5,-30.5 446.5,-0.5 327.5,-0.5"/>
<text text-anchor="start" x="335.5" y="-18.5" font-family="Helvetica,sans-Serif" font-size="10.00">unilink/transport/tcp</text>
<text text-anchor="middle" x="387" y="-7.5" font-family="Helvetica,sans-Serif" font-size="10.00">_server/tcp_server.cc</text>
</a>
</g>
</g>
<!-- Node1&#45;&gt;Node6 -->
<g id="edge6" class="edge">
<title>Node1&#45;&gt;Node6</title>
<path fill="none" stroke="midnightblue" d="M284.77,-130.17C301.43,-121.95 319.73,-111.12 334,-98 355.37,-78.35 371.95,-48.31 380.53,-30.72"/>
<polygon fill="midnightblue" stroke="midnightblue" points="283.25,-127.02 275.72,-134.47 286.25,-133.34 283.25,-127.02"/>
</g>
<!-- Node4 -->
<g id="node4" class="node">
<title>Node4</title>
<g id="a_node4"><a xlink:href="channel__factory_8cc.html" target="_top" xlink:title=" ">
<polygon fill="white" stroke="black" points="0,-0.5 0,-30.5 128,-30.5 128,-0.5 0,-0.5"/>
<text text-anchor="start" x="8" y="-18.5" font-family="Helvetica,sans-Serif" font-size="10.00">unilink/factory/channel</text>
<text text-anchor="middle" x="64" y="-7.5" font-family="Helvetica,sans-Serif" font-size="10.00">_factory.cc</text>
</a>
</g>
</g>
<!-- Node3&#45;&gt;Node4 -->
<g id="edge3" class="edge">
<title>Node3&#45;&gt;Node4</title>
<path fill="none" stroke="midnightblue" d="M192.12,-63.82C163.83,-53.37 128.51,-40.32 102.11,-30.58"/>
<polygon fill="midnightblue" stroke="midnightblue" points="191.22,-67.21 201.81,-67.4 193.64,-60.65 191.22,-67.21"/>
</g>
<!-- Node5 -->
<g id="node5" class="node">
<title>Node5</title>
<g id="a_node5"><a xlink:href="boost__tcp__acceptor_8cc.html" target="_top" xlink:title=" ">
<polygon fill="white" stroke="black" points="146.5,-0.5 146.5,-30.5 309.5,-30.5 309.5,-0.5 146.5,-0.5"/>
<text text-anchor="start" x="154.5" y="-18.5" font-family="Helvetica,sans-Serif" font-size="10.00">unilink/transport/tcp</text>
<text text-anchor="middle" x="228" y="-7.5" font-family="Helvetica,sans-Serif" font-size="10.00">_server/boost_tcp_acceptor.cc</text>
</a>
</g>
</g>
<!-- Node3&#45;&gt;Node5 -->
<g id="edge4" class="edge">
<title>Node3&#45;&gt;Node5</title>
<path fill="none" stroke="midnightblue" d="M235.55,-57.4C233.88,-48.37 232.04,-38.41 230.6,-30.58"/>
<polygon fill="midnightblue" stroke="midnightblue" points="232.14,-58.2 237.4,-67.4 239.02,-56.93 232.14,-58.2"/>
</g>
<!-- Node3&#45;&gt;Node6 -->
<g id="edge5" class="edge">
<title>Node3&#45;&gt;Node6</title>
<path fill="none" stroke="midnightblue" d="M281.23,-63.27C304.64,-52.92 333.51,-40.15 355.17,-30.58"/>
<polygon fill="midnightblue" stroke="midnightblue" points="279.63,-60.15 271.9,-67.4 282.46,-66.55 279.63,-60.15"/>
</g>
</g>
</svg>
