<?xml version="1.0" encoding="UTF-8" standalone="no"?>
<!DOCTYPE svg PUBLIC "-//W3C//DTD SVG 1.1//EN"
 "http://www.w3.org/Graphics/SVG/1.1/DTD/svg11.dtd">
<!-- Generated by graphviz version 2.43.0 (0)
 -->
<!-- Title: unilink/interface/iuds_socket.hpp Pages: 1 -->
<svg width="824pt" height="173pt"
 viewBox="0.00 0.00 824.00 173.00" xmlns="http://www.w3.org/2000/svg" xmlns:xlink="http://www.w3.org/1999/xlink">
<g id="graph0" class="graph" transform="scale(1 1) rotate(0) translate(4 169)">
<title>unilink/interface/iuds_socket.hpp</title>
<polygon fill="white" stroke="transparent" points="-4,4 -4,-169 820,-169 820,4 -4,4"/>
<!-- Node1 -->
<g id="node1" class="node">
<title>Node1</title>
<g id="a_node1"><a xlink:title=" ">
<polygon fill="#bfbfbf" stroke="black" points="277,-134.5 277,-164.5 396,-164.5 396,-134.5 277,-134.5"/>
<text text-anchor="start" x="285" y="-152.5" font-family="Helvetica,sans-Serif" font-size="10.00">unilink/interface/iuds</text>
<text text-anchor="middle" x="336.5" y="-141.5" font-family="Helvetica,sans-Serif" font-size="10.00">_socket.hpp</text>
</a>
</g>
</g>
<!-- Node2 -->
<g id="node2" class="node">
<title>Node2</title>
<g id="a_node2"><a xlink:href="boost__uds__socket_8hpp.html" target="_top" xlink:title=" ">
<polygon fill="white" stroke="black" points="133,-67.5 133,-97.5 260,-97.5 260,-67.5 133,-67.5"/>
<text text-anchor="start" x="141" y="-85.5" font-family="Helvetica,sans-Serif" font-size="10.00">unilink/transport/uds</text>
<text text-anchor="middle" x="196.5" y="-74.5" font-family="Helvetica,sans-Serif" font-size="10.00">/boost_uds_socket.hpp</text>
</a>
</g>
</g>
<!-- Node1&#45;&gt;Node2 -->
<g id="edge1" class="edge">
<title>Node1&#45;&gt;Node2</title>
<path fill="none" stroke="midnightblue" d="M296.93,-130.13C274.69,-119.8 247.35,-107.11 226.82,-97.58"/>
<polygon fill="midnightblue" stroke="midnightblue" points="295.58,-133.36 306.12,-134.4 298.53,-127.01 295.58,-133.36"/>
</g>
<!-- Node6 -->
<g id="node6" class="node">
<title>Node6</title>
<g id="a_node6"><a xlink:href="transport_2uds_2uds__client_8hpp.html" target="_top" xlink:title=" ">
<polygon fill="white" stroke="black" points="278,-67.5 278,-97.5 395,-97.5 395,-67.5 278,-67.5"/>
<text text-anchor="start" x="286" y="-85.5" font-family="Helvetica,sans-Serif" font-size="10.00">unilink/transport/uds</text>
<text text-anchor="middle" x="336.5" y="-74.5" font-family="Helvetica,sans-Serif" font-size="10.00">/uds_client.hpp</text>
</a>
</g>
</g>
<!-- Node1&#45;&gt;Node6 -->
<g id="edge5" class="edge">
<title>Node1&#45;&gt;Node6</title>
<path fill="none" stroke="midnightblue" d="M336.5,-124.11C336.5,-115.15 336.5,-105.32 336.5,-97.58"/>
<polygon fill="midnightblue" stroke="midnightblue" points="333,-124.4 336.5,-134.4 340,-124.4 333,-124.4"/>
</g>
<!-- Node9 -->
<g id="node9" class="node">
<title>Node9</title>
<g id="a_node9"><a xlink:href="uds__server__session_8hpp.html" target="_top" xlink:title=" ">
<polygon fill="white" stroke="black" points="548.5,-67.5 548.5,-97.5 684.5,-97.5 684.5,-67.5 548.5,-67.5"/>
<text text-anchor="start" x="556.5" y="-85.5" font-family="Helvetica,sans-Serif" font-size="10.00">unilink/transport/uds</text>
<text text-anchor="middle" x="616.5" y="-74.5" font-family="Helvetica,sans-Serif" font-size="10.00">/uds_server_session.hpp</text>
</a>
</g>
</g>
<!-- Node1&#45;&gt;Node9 -->
<g id="edge9" class="edge">
<title>Node1&#45;&gt;Node9</title>
<path fill="none" stroke="midnightblue" d="M406.12,-132.34C452.13,-121.66 511.85,-107.79 555.9,-97.57"/>
<polygon fill="midnightblue" stroke="midnightblue" points="405.17,-128.96 396.22,-134.64 406.76,-135.78 405.17,-128.96"/>
</g>
<!-- Node3 -->
<g id="node3" class="node">
<title>Node3</title>
<g id="a_node3"><a xlink:href="boost__uds__socket_8cc.html" target="_top" xlink:title=" ">
<polygon fill="white" stroke="black" points="0,-0.5 0,-30.5 119,-30.5 119,-0.5 0,-0.5"/>
<text text-anchor="start" x="8" y="-18.5" font-family="Helvetica,sans-Serif" font-size="10.00">unilink/transport/uds</text>
<text text-anchor="middle" x="59.5" y="-7.5" font-family="Helvetica,sans-Serif" font-size="10.00">/boost_uds_socket.cc</text>
</a>
</g>
</g>
<!-- Node2&#45;&gt;Node3 -->
<g id="edge2" class="edge">
<title>Node2&#45;&gt;Node3</title>
<path fill="none" stroke="midnightblue" d="M157.49,-62.99C135.78,-52.69 109.17,-40.07 89.17,-30.58"/>
<polygon fill="midnightblue" stroke="midnightblue" points="156.24,-66.27 166.77,-67.4 159.24,-59.95 156.24,-66.27"/>
</g>
<!-- Node4 -->
<g id="node4" class="node">
<title>Node4</title>
<g id="a_node4"><a xlink:href="transport_2uds_2uds__client_8cc.html" target="_top" xlink:title=" ">
<polygon fill="white" stroke="black" points="137,-0.5 137,-30.5 254,-30.5 254,-0.5 137,-0.5"/>
<text text-anchor="start" x="145" y="-18.5" font-family="Helvetica,sans-Serif" font-size="10.00">unilink/transport/uds</text>
<text text-anchor="middle" x="195.5" y="-7.5" font-family="Helvetica,sans-Serif" font-size="10.00">/uds_client.cc</text>
</a>
</g>
</g>
<!-- Node2&#45;&gt;Node4 -->
<g id="edge3" class="edge">
<title>Node2&#45;&gt;Node4</title>
<path fill="none" stroke="midnightblue" d="M196.12,-57.11C195.99,-48.15 195.84,-38.32 195.72,-30.58"/>
<polygon fill="midnightblue" stroke="midnightblue" points="192.63,-57.45 196.28,-67.4 199.63,-57.34 192.63,-57.45"/>
</g>
<!-- Node5 -->
<g id="node5" class="node">
<title>Node5</title>
<g id="a_node5"><a xlink:href="uds__server__session_8cc.html" target="_top" xlink:title=" ">
<polygon fill="white" stroke="black" points="552.5,-0.5 552.5,-30.5 680.5,-30.5 680.5,-0.5 552.5,-0.5"/>
<text text-anchor="start" x="560.5" y="-18.5" font-family="Helvetica,sans-Serif" font-size="10.00">unilink/transport/uds</text>
<text text-anchor="middle" x="616.5" y="-7.5" font-family="Helvetica,sans-Serif" font-size="10.00">/uds_server_session.cc</text>
</a>
</g>
</g>
<!-- Node2&#45;&gt;Node5 -->
<g id="edge4" class="edge">
<title>Node2&#45;&gt;Node5</title>
<path fill="none" stroke="midnightblue" d="M270.11,-66.8C391.39,-47.06 424.48,-50.3 542.5,-31 545.73,-30.47 549.03,-29.91 552.37,-29.32"/>
<polygon fill="midnightblue" stroke="midnightblue" points="269.36,-63.38 260.06,-68.46 270.5,-70.28 269.36,-63.38"/>
</g>
<!-- Node6&#45;&gt;Node4 -->
<g id="edge7" class="edge">
<title>Node6&#45;&gt;Node4</title>
<path fill="none" stroke="midnightblue" d="M296.65,-63.13C274.25,-52.8 246.72,-40.11 226.04,-30.58"/>
<polygon fill="midnightblue" stroke="midnightblue" points="295.36,-66.39 305.91,-67.4 298.29,-60.03 295.36,-66.39"/>
</g>
<!-- Node7 -->
<g id="node7" class="node">
<title>Node7</title>
<g id="a_node7"><a xlink:href="channel__factory_8cc.html" target="_top" xlink:title=" ">
<polygon fill="white" stroke="black" points="272.5,-0.5 272.5,-30.5 400.5,-30.5 400.5,-0.5 272.5,-0.5"/>
<text text-anchor="start" x="280.5" y="-18.5" font-family="Helvetica,sans-Serif" font-size="10.00">unilink/factory/channel</text>
<text text-anchor="middle" x="336.5" y="-7.5" font-family="Helvetica,sans-Serif" font-size="10.00">_factory.cc</text>
</a>
</g>
</g>
<!-- Node6&#45;&gt;Node7 -->
<g id="edge6" class="edge">
<title>Node6&#45;&gt;Node7</title>
<path fill="none" stroke="midnightblue" d="M336.5,-57.11C336.5,-48.15 336.5,-38.32 336.5,-30.58"/>
<polygon fill="midnightblue" stroke="midnightblue" points="333,-57.4 336.5,-67.4 340,-57.4 333,-57.4"/>
</g>
<!-- Node8 -->
<g id="node8" class="node">
<title>Node8</title>
<g id="a_node8"><a xlink:href="wrapper_2uds__client_2uds__client_8cc.html" target="_top" xlink:title=" ">
<polygon fill="white" stroke="black" points="419,-0.5 419,-30.5 534,-30.5 534,-0.5 419,-0.5"/>
<text text-anchor="start" x="427" y="-18.5" font-family="Helvetica,sans-Serif" font-size="10.00">unilink/wrapper/uds</text>
<text text-anchor="middle" x="476.5" y="-7.5" font-family="Helvetica,sans-Serif" font-size="10.00">_client/uds_client.cc</text>
</a>
</g>
</g>
<!-- Node6&#45;&gt;Node8 -->
<g id="edge8" class="edge">
<title>Node6&#45;&gt;Node8</title>
<path fill="none" stroke="midnightblue" d="M376.07,-63.13C398.31,-52.8 425.65,-40.11 446.18,-30.58"/>
<polygon fill="midnightblue" stroke="midnightblue" points="374.47,-60.01 366.88,-67.4 377.42,-66.36 374.47,-60.01"/>
</g>
<!-- Node9&#45;&gt;Node5 -->
<g id="edge11" class="edge">
<title>Node9&#45;&gt;Node5</title>
<path fill="none" stroke="midnightblue" d="M616.5,-57.11C616.5,-48.15 616.5,-38.32 616.5,-30.58"/>
<polygon fill="midnightblue" stroke="midnightblue" points="613,-57.4 616.5,-67.4 620,-57.4 613,-57.4"/>
</g>
<!-- Node10 -->
<g id="node10" class="node">
<title>Node10</title>
<g id="a_node10"><a xlink:href="transport_2uds_2uds__server_8cc.html" target="_top" xlink:title=" ">
<polygon fill="white" stroke="black" points="699,-0.5 699,-30.5 816,-30.5 816,-0.5 699,-0.5"/>
<text text-anchor="start" x="707" y="-18.5" font-family="Helvetica,sans-Serif" font-size="10.00">unilink/transport/uds</text>
<text text-anchor="middle" x="757.5" y="-7.5" font-family="Helvetica,sans-Serif" font-size="10.00">/uds_server.cc</text>
</a>
</g>
</g>
<!-- Node9&#45;&gt;Node10 -->
<g id="edge10" class="edge">
<title>Node9&#45;&gt;Node10</title>
<path fill="none" stroke="midnightblue" d="M656.35,-63.13C678.75,-52.8 706.28,-40.11 726.96,-30.58"/>
<polygon fill="midnightblue" stroke="midnightblue" points="654.71,-60.03 647.09,-67.4 657.64,-66.39 654.71,-60.03"/>
</g>
</g>
</svg>
