<?xml version="1.0" encoding="UTF-8" standalone="no"?>
<!DOCTYPE svg PUBLIC "-//W3C//DTD SVG 1.1//EN"
 "http://www.w3.org/Graphics/SVG/1.1/DTD/svg11.dtd">
<!-- Generated by graphviz version 2.43.0 (0)
 -->
<!-- Title: unilink/framer/line_framer.cc Pages: 1 -->
<svg width="534pt" height="280pt"
 viewBox="0.00 0.00 533.50 280.00" xmlns="http://www.w3.org/2000/svg" xmlns:xlink="http://www.w3.org/1999/xlink">
<g id="graph0" class="graph" transform="scale(1 1) rotate(0) translate(4 276)">
<title>unilink/framer/line_framer.cc</title>
<!-- Node1 -->
<g id="Node000001" class="node">
<title>Node1</title>
<g id="a_Node000001"><a xlink:title=" ">
<polygon fill="#999999" stroke="#666666" points="407.5,-272 300.5,-272 300.5,-242 407.5,-242 407.5,-272"/>
<text text-anchor="start" x="308.5" y="-260" font-family="Helvetica,sans-Serif" font-size="10.00">unilink/framer/line</text>
<text text-anchor="middle" x="354" y="-249" font-family="Helvetica,sans-Serif" font-size="10.00">_framer.cc</text>
</a>
</g>
</g>
<!-- Node2 -->
<g id="Node000002" class="node">
<title>Node2</title>
<g id="a_Node000002"><a xlink:href="line__framer_8hpp.html" target="_top" xlink:title=" ">
<polygon fill="white" stroke="#666666" points="303.5,-206 196.5,-206 196.5,-176 303.5,-176 303.5,-206"/>
<text text-anchor="start" x="204.5" y="-194" font-family="Helvetica,sans-Serif" font-size="10.00">unilink/framer/line</text>
<text text-anchor="middle" x="250" y="-183" font-family="Helvetica,sans-Serif" font-size="10.00">_framer.hpp</text>
</a>
</g>
</g>
<!-- Node1&#45;&gt;Node2 -->
<g id="edge1_Node000001_Node000002" class="edge">
<title>Node1&#45;&gt;Node2</title>
<g id="a_edge1_Node000001_Node000002"><a xlink:title=" ">
<path fill="none" stroke="#63b8ff" d="M331.18,-241.95C316.55,-232.95 297.36,-221.14 281.31,-211.27"/>
<polygon fill="#63b8ff" stroke="#63b8ff" points="283.12,-208.27 272.77,-206.01 279.45,-214.23 283.12,-208.27"/>
</a>
</g>
</g>
<!-- Node4 -->
<g id="Node000004" class="node">
<title>Node4</title>
<g id="a_Node000004"><a xlink:title=" ">
<polygon fill="#e0e0e0" stroke="#999999" points="141.5,-140 68.5,-140 68.5,-121 141.5,-121 141.5,-140"/>
<text text-anchor="middle" x="105" y="-128" font-family="Helvetica,sans-Serif" font-size="10.00">string_view</text>
</a>
</g>
</g>
<!-- Node1&#45;&gt;Node4 -->
<g id="edge18_Node000001_Node000004" class="edge">
<title>Node1&#45;&gt;Node4</title>
<g id="a_edge18_Node000001_Node000004"><a xlink:title=" ">
<path fill="none" stroke="#63b8ff" d="M300.42,-246.35C266.41,-238.71 222.31,-225.95 187,-206 159.9,-190.69 134.3,-164.98 119.13,-148.12"/>
<polygon fill="#63b8ff" stroke="#63b8ff" points="121.42,-145.43 112.2,-140.22 116.16,-150.04 121.42,-145.43"/>
</a>
</g>
</g>
<!-- Node14 -->
<g id="Node000014" class="node">
<title>Node14</title>
<g id="a_Node000014"><a xlink:title=" ">
<polygon fill="#e0e0e0" stroke="#999999" points="386,-200.5 322,-200.5 322,-181.5 386,-181.5 386,-200.5"/>
<text text-anchor="middle" x="354" y="-188.5" font-family="Helvetica,sans-Serif" font-size="10.00">algorithm</text>
</a>
</g>
</g>
<!-- Node1&#45;&gt;Node14 -->
<g id="edge15_Node000001_Node000014" class="edge">
<title>Node1&#45;&gt;Node14</title>
<g id="a_edge15_Node000001_Node000014"><a xlink:title=" ">
<path fill="none" stroke="#63b8ff" d="M354,-241.8C354,-232.7 354,-220.79 354,-210.9"/>
<polygon fill="#63b8ff" stroke="#63b8ff" points="357.5,-210.84 354,-200.84 350.5,-210.84 357.5,-210.84"/>
</a>
</g>
</g>
<!-- Node15 -->
<g id="Node000015" class="node">
<title>Node15</title>
<g id="a_Node000015"><a xlink:title=" ">
<polygon fill="#e0e0e0" stroke="#999999" points="454,-200.5 404,-200.5 404,-181.5 454,-181.5 454,-200.5"/>
<text text-anchor="middle" x="429" y="-188.5" font-family="Helvetica,sans-Serif" font-size="10.00">cstring</text>
</a>
</g>
</g>
<!-- Node1&#45;&gt;Node15 -->
<g id="edge16_Node000001_Node000015" class="edge">
<title>Node1&#45;&gt;Node15</title>
<g id="a_edge16_Node000001_Node000015"><a xlink:title=" ">
<path fill="none" stroke="#63b8ff" d="M370.64,-241.8C382.57,-231.62 398.61,-217.93 410.86,-207.48"/>
<polygon fill="#63b8ff" stroke="#63b8ff" points="413.3,-210 418.64,-200.84 408.76,-204.67 413.3,-210"/>
</a>
</g>
</g>
<!-- Node16 -->
<g id="Node000016" class="node">
<title>Node16</title>
<g id="a_Node000016"><a xlink:title=" ">
<polygon fill="#e0e0e0" stroke="#999999" points="525.5,-200.5 472.5,-200.5 472.5,-181.5 525.5,-181.5 525.5,-200.5"/>
<text text-anchor="middle" x="499" y="-188.5" font-family="Helvetica,sans-Serif" font-size="10.00">iterator</text>
</a>
</g>
</g>
<!-- Node1&#45;&gt;Node16 -->
<g id="edge17_Node000001_Node000016" class="edge">
<title>Node1&#45;&gt;Node16</title>
<g id="a_edge17_Node000001_Node000016"><a xlink:title=" ">
<path fill="none" stroke="#63b8ff" d="M385.82,-241.95C411.03,-230.83 445.93,-215.42 470.29,-204.67"/>
<polygon fill="#63b8ff" stroke="#63b8ff" points="471.97,-207.76 479.7,-200.52 469.14,-201.35 471.97,-207.76"/>
</a>
</g>
</g>
<!-- Node3 -->
<g id="Node000003" class="node">
<title>Node3</title>
<g id="a_Node000003"><a xlink:title=" ">
<polygon fill="#e0e0e0" stroke="#999999" points="406,-140 362,-140 362,-121 406,-121 406,-140"/>
<text text-anchor="middle" x="384" y="-128" font-family="Helvetica,sans-Serif" font-size="10.00">string</text>
</a>
</g>
</g>
<!-- Node2&#45;&gt;Node3 -->
<g id="edge2_Node000002_Node000003" class="edge">
<title>Node2&#45;&gt;Node3</title>
<g id="a_edge2_Node000002_Node000003"><a xlink:title=" ">
<path fill="none" stroke="#63b8ff" d="M282.1,-175.99C304.25,-166.31 333.48,-153.56 354.95,-144.18"/>
<polygon fill="#63b8ff" stroke="#63b8ff" points="356.45,-147.35 364.21,-140.14 353.65,-140.93 356.45,-147.35"/>
</a>
</g>
</g>
<!-- Node2&#45;&gt;Node4 -->
<g id="edge3_Node000002_Node000004" class="edge">
<title>Node2&#45;&gt;Node4</title>
<g id="a_edge3_Node000002_Node000004"><a xlink:title=" ">
<path fill="none" stroke="#63b8ff" d="M215.27,-175.99C191.08,-166.23 159.1,-153.33 135.81,-143.93"/>
<polygon fill="#63b8ff" stroke="#63b8ff" points="137,-140.63 126.41,-140.14 134.38,-147.13 137,-140.63"/>
</a>
</g>
</g>
<!-- Node5 -->
<g id="Node000005" class="node">
<title>Node5</title>
<g id="a_Node000005"><a xlink:title=" ">
<polygon fill="#e0e0e0" stroke="#999999" points="501.5,-79.5 454.5,-79.5 454.5,-60.5 501.5,-60.5 501.5,-79.5"/>
<text text-anchor="middle" x="478" y="-67.5" font-family="Helvetica,sans-Serif" font-size="10.00">vector</text>
</a>
</g>
</g>
<!-- Node2&#45;&gt;Node5 -->
<g id="edge4_Node000002_Node000005" class="edge">
<title>Node2&#45;&gt;Node5</title>
<g id="a_edge4_Node000002_Node000005"><a xlink:title=" ">
<path fill="none" stroke="#63b8ff" d="M303.73,-177.01C344.4,-166.58 396.33,-151.77 415,-140 436.56,-126.4 455.39,-103.5 466.72,-87.84"/>
<polygon fill="#63b8ff" stroke="#63b8ff" points="469.63,-89.78 472.49,-79.58 463.89,-85.77 469.63,-89.78"/>
</a>
</g>
</g>
<!-- Node6 -->
<g id="Node000006" class="node">
<title>Node6</title>
<g id="a_Node000006"><a xlink:href="visibility_8hpp.html" target="_top" xlink:title=" ">
<polygon fill="white" stroke="#666666" points="140,-79.5 0,-79.5 0,-60.5 140,-60.5 140,-79.5"/>
<text text-anchor="middle" x="70" y="-67.5" font-family="Helvetica,sans-Serif" font-size="10.00">unilink/base/visibility.hpp</text>
</a>
</g>
</g>
<!-- Node2&#45;&gt;Node6 -->
<g id="edge5_Node000002_Node000006" class="edge">
<title>Node2&#45;&gt;Node6</title>
<g id="a_edge5_Node000002_Node000006"><a xlink:title=" ">
<path fill="none" stroke="#63b8ff" d="M230.26,-175.99C210.22,-161.85 178.21,-139.53 150,-121 131.01,-108.52 109.1,-94.88 93.02,-85"/>
<polygon fill="#63b8ff" stroke="#63b8ff" points="94.64,-81.89 84.29,-79.66 90.99,-87.86 94.64,-81.89"/>
</a>
</g>
</g>
<!-- Node7 -->
<g id="Node000007" class="node">
<title>Node7</title>
<g id="a_Node000007"><a xlink:href="iframer_8hpp.html" target="_top" xlink:title=" ">
<polygon fill="white" stroke="#666666" points="343.5,-140 198.5,-140 198.5,-121 343.5,-121 343.5,-140"/>
<text text-anchor="middle" x="271" y="-128" font-family="Helvetica,sans-Serif" font-size="10.00">unilink/framer/iframer.hpp</text>
</a>
</g>
</g>
<!-- Node2&#45;&gt;Node7 -->
<g id="edge6_Node000002_Node000007" class="edge">
<title>Node2&#45;&gt;Node7</title>
<g id="a_edge6_Node000002_Node000007"><a xlink:title=" ">
<path fill="none" stroke="#63b8ff" d="M255.08,-175.84C257.88,-168.04 261.39,-158.27 264.4,-149.89"/>
<polygon fill="#63b8ff" stroke="#63b8ff" points="267.77,-150.86 267.85,-140.27 261.18,-148.5 267.77,-150.86"/>
</a>
</g>
</g>
<!-- Node7&#45;&gt;Node5 -->
<g id="edge9_Node000007_Node000005" class="edge">
<title>Node7&#45;&gt;Node5</title>
<g id="a_edge9_Node000007_Node000005"><a xlink:title=" ">
<path fill="none" stroke="#63b8ff" d="M311.59,-120.95C347.18,-113.01 400.1,-100.17 445,-85 446.44,-84.51 447.9,-83.99 449.37,-83.45"/>
<polygon fill="#63b8ff" stroke="#63b8ff" points="450.99,-86.58 458.99,-79.64 448.41,-80.07 450.99,-86.58"/>
</a>
</g>
</g>
<!-- Node7&#45;&gt;Node6 -->
<g id="edge10_Node000007_Node000006" class="edge">
<title>Node7&#45;&gt;Node6</title>
<g id="a_edge10_Node000007_Node000006"><a xlink:title=" ">
<path fill="none" stroke="#63b8ff" d="M241.77,-120.99C206.79,-110.81 148.07,-93.72 109.18,-82.4"/>
<polygon fill="#63b8ff" stroke="#63b8ff" points="109.84,-78.95 99.26,-79.52 107.89,-85.67 109.84,-78.95"/>
</a>
</g>
</g>
<!-- Node8 -->
<g id="Node000008" class="node">
<title>Node8</title>
<g id="a_Node000008"><a xlink:title=" ">
<polygon fill="#e0e0e0" stroke="#999999" points="223.5,-79.5 158.5,-79.5 158.5,-60.5 223.5,-60.5 223.5,-79.5"/>
<text text-anchor="middle" x="191" y="-67.5" font-family="Helvetica,sans-Serif" font-size="10.00">functional</text>
</a>
</g>
</g>
<!-- Node7&#45;&gt;Node8 -->
<g id="edge7_Node000007_Node000008" class="edge">
<title>Node7&#45;&gt;Node8</title>
<g id="a_edge7_Node000007_Node000008"><a xlink:title=" ">
<path fill="none" stroke="#63b8ff" d="M259.2,-120.87C246.55,-111.62 226.26,-96.78 211.09,-85.69"/>
<polygon fill="#63b8ff" stroke="#63b8ff" points="212.99,-82.74 202.85,-79.67 208.86,-88.4 212.99,-82.74"/>
</a>
</g>
</g>
<!-- Node9 -->
<g id="Node000009" class="node">
<title>Node9</title>
<g id="a_Node000009"><a xlink:title=" ">
<polygon fill="#e0e0e0" stroke="#999999" points="300,-79.5 242,-79.5 242,-60.5 300,-60.5 300,-79.5"/>
<text text-anchor="middle" x="271" y="-67.5" font-family="Helvetica,sans-Serif" font-size="10.00">memory</text>
</a>
</g>
</g>
<!-- Node7&#45;&gt;Node9 -->
<g id="edge8_Node000007_Node000009" class="edge">
<title>Node7&#45;&gt;Node9</title>
<g id="a_edge8_Node000007_Node000009"><a xlink:title=" ">
<path fill="none" stroke="#63b8ff" d="M271,-120.87C271,-112.75 271,-100.31 271,-89.89"/>
<polygon fill="#63b8ff" stroke="#63b8ff" points="274.5,-89.67 271,-79.67 267.5,-89.67 274.5,-89.67"/>
</a>
</g>
</g>
<!-- Node10 -->
<g id="Node000010" class="node">
<title>Node10</title>
<g id="a_Node000010"><a xlink:href="safe__span_8hpp.html" target="_top" xlink:title=" ">
<polygon fill="white" stroke="#666666" points="436,-85 318,-85 318,-55 436,-55 436,-85"/>
<text text-anchor="start" x="326" y="-73" font-family="Helvetica,sans-Serif" font-size="10.00">unilink/memory/safe</text>
<text text-anchor="middle" x="377" y="-62" font-family="Helvetica,sans-Serif" font-size="10.00">_span.hpp</text>
</a>
</g>
</g>
<!-- Node7&#45;&gt;Node10 -->
<g id="edge11_Node000007_Node000010" class="edge">
<title>Node7&#45;&gt;Node10</title>
<g id="a_edge11_Node000007_Node000010"><a xlink:title=" ">
<path fill="none" stroke="#63b8ff" d="M286.64,-120.87C301.29,-112.78 323.69,-100.42 342.52,-90.03"/>
<polygon fill="#63b8ff" stroke="#63b8ff" points="344.36,-93.01 351.42,-85.11 340.98,-86.88 344.36,-93.01"/>
</a>
</g>
</g>
<!-- Node11 -->
<g id="Node000011" class="node">
<title>Node11</title>
<g id="a_Node000011"><a xlink:title=" ">
<polygon fill="#e0e0e0" stroke="#999999" points="326,-19 276,-19 276,0 326,0 326,-19"/>
<text text-anchor="middle" x="301" y="-7" font-family="Helvetica,sans-Serif" font-size="10.00">cstdint</text>
</a>
</g>
</g>
<!-- Node10&#45;&gt;Node11 -->
<g id="edge12_Node000010_Node000011" class="edge">
<title>Node10&#45;&gt;Node11</title>
<g id="a_edge12_Node000010_Node000011"><a xlink:title=" ">
<path fill="none" stroke="#63b8ff" d="M358.6,-54.84C347.12,-46 332.35,-34.63 320.64,-25.62"/>
<polygon fill="#63b8ff" stroke="#63b8ff" points="322.45,-22.59 312.39,-19.27 318.18,-28.14 322.45,-22.59"/>
</a>
</g>
</g>
<!-- Node12 -->
<g id="Node000012" class="node">
<title>Node12</title>
<g id="a_Node000012"><a xlink:title=" ">
<polygon fill="#e0e0e0" stroke="#999999" points="409.5,-19 344.5,-19 344.5,0 409.5,0 409.5,-19"/>
<text text-anchor="middle" x="377" y="-7" font-family="Helvetica,sans-Serif" font-size="10.00">stdexcept</text>
</a>
</g>
</g>
<!-- Node10&#45;&gt;Node12 -->
<g id="edge13_Node000010_Node000012" class="edge">
<title>Node10&#45;&gt;Node12</title>
<g id="a_edge13_Node000010_Node000012"><a xlink:title=" ">
<path fill="none" stroke="#63b8ff" d="M377,-54.84C377,-47.21 377,-37.7 377,-29.45"/>
<polygon fill="#63b8ff" stroke="#63b8ff" points="380.5,-29.27 377,-19.27 373.5,-29.27 380.5,-29.27"/>
</a>
</g>
</g>
<!-- Node13 -->
<g id="Node000013" class="node">
<title>Node13</title>
<g id="a_Node000013"><a xlink:title=" ">
<polygon fill="#e0e0e0" stroke="#999999" points="496.5,-19 427.5,-19 427.5,0 496.5,0 496.5,-19"/>
<text text-anchor="middle" x="462" y="-7" font-family="Helvetica,sans-Serif" font-size="10.00">type_traits</text>
</a>
</g>
</g>
<!-- Node10&#45;&gt;Node13 -->
<g id="edge14_Node000010_Node000013" class="edge">
<title>Node10&#45;&gt;Node13</title>
<g id="a_edge14_Node000010_Node000013"><a xlink:title=" ">
<path fill="none" stroke="#63b8ff" d="M397.58,-54.84C410.67,-45.83 427.59,-34.18 440.8,-25.09"/>
<polygon fill="#63b8ff" stroke="#63b8ff" points="443.01,-27.82 449.26,-19.27 439.04,-22.05 443.01,-27.82"/>
</a>
</g>
</g>
</g>
</svg>
