<?xml version="1.0" encoding="UTF-8" standalone="no"?>
<!DOCTYPE svg PUBLIC "-//W3C//DTD SVG 1.1//EN"
 "http://www.w3.org/Graphics/SVG/1.1/DTD/svg11.dtd">
<!-- Generated by graphviz version 2.43.0 (0)
 -->
<!-- Title: unilink/framer/line_framer.hpp Pages: 1 -->
<!--zoomable 307 -->
<svg id="main" version="1.1" xmlns="http://www.w3.org/2000/svg" xmlns:xlink="http://www.w3.org/1999/xlink" xml:space="preserve" onload="init(evt)">
<style type="text/css"><![CDATA[
.edge:hover path { stroke: red; }
.edge:hover polygon { stroke: red; fill: red; }
]]></style>
<script type="text/javascript"><![CDATA[
var edges = document.getElementsByTagName('g');
if (edges && edges.length) {
  for (var i=0;i<edges.length;i++) {
    if (edges[i].id.substr(0,4)=='edge') {
      edges[i].setAttribute('class','edge');
    }
  }
}
]]></script>
        <defs>
                <circle id="rim" cx="0" cy="0" r="7"/>
                <circle id="rim2" cx="0" cy="0" r="3.5"/>
                <g id="zoomPlus">
                        <use xlink:href="#rim" fill="#404040">
                                <set attributeName="fill" to="#808080" begin="zoomplus.mouseover" end="zoomplus.mouseout"/>
                        </use>
                        <path d="M-4,0h8M0,-4v8" fill="none" stroke="white" stroke-width="1.5" pointer-events="none"/>
                </g>
                <g id="zoomMin">
                        <use xlink:href="#rim" fill="#404040">
                                <set attributeName="fill" to="#808080" begin="zoomminus.mouseover" end="zoomminus.mouseout"/>
                        </use>
                        <path d="M-4,0h8" fill="none" stroke="white" stroke-width="1.5" pointer-events="none"/>
                </g>
                <g id="dirArrow">
                        <path fill="none" stroke="white" stroke-width="1.5" d="M0,-3.0v7 M-2.5,-0.5L0,-3.0L2.5,-0.5"/>
                </g>
               <g id="resetDef">
                       <use xlink:href="#rim2" fill="#404040">
                               <set attributeName="fill" to="#808080" begin="reset.mouseover" end="reset.mouseout"/>
                       </use>
               </g>
        </defs>

<script type="text/javascript">
var viewWidth = 988;
var viewHeight = 307;
var sectionId = 'dynsection-1';
</script>
<script xlink:href="svgpan.js"/>
<svg id="graph" class="graph">
<g id="viewport">
<title>unilink/framer/line_framer.hpp</title>
<polygon fill="white" stroke="transparent" points="-4,4 -4,-303 983.5,-303 983.5,4 -4,4"/>
<!-- Node1 -->
<g id="node1" class="node">
<title>Node1</title>
<g id="a_node1"><a xlink:title=" ">
<polygon fill="#bfbfbf" stroke="black" points="606.5,-268.5 606.5,-298.5 713.5,-298.5 713.5,-268.5 606.5,-268.5"/>
<text text-anchor="start" x="614.5" y="-286.5" font-family="Helvetica,sans-Serif" font-size="10.00">unilink/framer/line</text>
<text text-anchor="middle" x="660" y="-275.5" font-family="Helvetica,sans-Serif" font-size="10.00">_framer.hpp</text>
</a>
</g>
</g>
<!-- Node2 -->
<g id="node2" class="node">
<title>Node2</title>
<g id="a_node2"><a xlink:href="ibuilder_8hpp.html" target="_top" xlink:title=" ">
<polygon fill="white" stroke="black" points="515,-207 515,-226 661,-226 661,-207 515,-207"/>
<text text-anchor="middle" x="588" y="-214" font-family="Helvetica,sans-Serif" font-size="10.00">unilink/builder/ibuilder.hpp</text>
</a>
</g>
</g>
<!-- Node1&#45;&gt;Node2 -->
<g id="edge1" class="edge">
<title>Node1&#45;&gt;Node2</title>
<path fill="none" stroke="midnightblue" d="M636.93,-261.67C623.64,-249.67 607.63,-235.22 597.63,-226.19"/>
<polygon fill="midnightblue" stroke="midnightblue" points="634.61,-264.29 644.38,-268.4 639.3,-259.1 634.61,-264.29"/>
</g>
<!-- Node16 -->
<g id="node16" class="node">
<title>Node16</title>
<g id="a_node16"><a xlink:href="line__framer_8cc.html" target="_top" xlink:title=" ">
<polygon fill="white" stroke="black" points="679.5,-201.5 679.5,-231.5 786.5,-231.5 786.5,-201.5 679.5,-201.5"/>
<text text-anchor="start" x="687.5" y="-219.5" font-family="Helvetica,sans-Serif" font-size="10.00">unilink/framer/line</text>
<text text-anchor="middle" x="733" y="-208.5" font-family="Helvetica,sans-Serif" font-size="10.00">_framer.cc</text>
</a>
</g>
</g>
<!-- Node1&#45;&gt;Node16 -->
<g id="edge24" class="edge">
<title>Node1&#45;&gt;Node16</title>
<path fill="none" stroke="midnightblue" d="M683.47,-261.6C694.5,-251.78 707.34,-240.34 717.19,-231.58"/>
<polygon fill="midnightblue" stroke="midnightblue" points="680.98,-259.13 675.84,-268.4 685.64,-264.36 680.98,-259.13"/>
</g>
<!-- Node3 -->
<g id="node3" class="node">
<title>Node3</title>
<g id="a_node3"><a xlink:href="serial__builder_8hpp.html" target="_top" xlink:title=" ">
<polygon fill="white" stroke="black" points="135,-134.5 135,-164.5 251,-164.5 251,-134.5 135,-134.5"/>
<text text-anchor="start" x="143" y="-152.5" font-family="Helvetica,sans-Serif" font-size="10.00">unilink/builder/serial</text>
<text text-anchor="middle" x="193" y="-141.5" font-family="Helvetica,sans-Serif" font-size="10.00">_builder.hpp</text>
</a>
</g>
</g>
<!-- Node2&#45;&gt;Node3 -->
<g id="edge2" class="edge">
<title>Node2&#45;&gt;Node3</title>
<path fill="none" stroke="midnightblue" d="M525.68,-205.24C450.38,-192.85 324.69,-172.17 251.27,-160.09"/>
<polygon fill="midnightblue" stroke="midnightblue" points="525.52,-208.77 535.95,-206.94 526.66,-201.86 525.52,-208.77"/>
</g>
<!-- Node7 -->
<g id="node7" class="node">
<title>Node7</title>
<g id="a_node7"><a xlink:href="unilink_8hpp.html" target="_top" xlink:title=" ">
<polygon fill="white" stroke="black" points="450.5,-6 450.5,-25 557.5,-25 557.5,-6 450.5,-6"/>
<text text-anchor="middle" x="504" y="-13" font-family="Helvetica,sans-Serif" font-size="10.00">unilink/unilink.hpp</text>
</a>
</g>
</g>
<!-- Node2&#45;&gt;Node7 -->
<g id="edge23" class="edge">
<title>Node2&#45;&gt;Node7</title>
<path fill="none" stroke="midnightblue" d="M599.98,-198.32C618.8,-169 650.45,-108.47 623,-67 608.07,-44.45 580.83,-31.94 556.18,-25.01"/>
<polygon fill="midnightblue" stroke="midnightblue" points="596.83,-196.73 594.2,-206.99 602.66,-200.61 596.83,-196.73"/>
</g>
<!-- Node8 -->
<g id="node8" class="node">
<title>Node8</title>
<g id="a_node8"><a xlink:href="tcp__client__builder_8hpp.html" target="_top" xlink:title=" ">
<polygon fill="white" stroke="black" points="309,-134.5 309,-164.5 417,-164.5 417,-134.5 309,-134.5"/>
<text text-anchor="start" x="317" y="-152.5" font-family="Helvetica,sans-Serif" font-size="10.00">unilink/builder/tcp</text>
<text text-anchor="middle" x="363" y="-141.5" font-family="Helvetica,sans-Serif" font-size="10.00">_client_builder.hpp</text>
</a>
</g>
</g>
<!-- Node2&#45;&gt;Node8 -->
<g id="edge8" class="edge">
<title>Node2&#45;&gt;Node8</title>
<path fill="none" stroke="midnightblue" d="M548.39,-204.06C510.24,-193.04 452.46,-176.34 411.56,-164.53"/>
<polygon fill="midnightblue" stroke="midnightblue" points="547.54,-207.46 558.12,-206.87 549.49,-200.73 547.54,-207.46"/>
</g>
<!-- Node10 -->
<g id="node10" class="node">
<title>Node10</title>
<g id="a_node10"><a xlink:href="tcp__server__builder_8hpp.html" target="_top" xlink:title=" ">
<polygon fill="white" stroke="black" points="455,-134.5 455,-164.5 567,-164.5 567,-134.5 455,-134.5"/>
<text text-anchor="start" x="463" y="-152.5" font-family="Helvetica,sans-Serif" font-size="10.00">unilink/builder/tcp</text>
<text text-anchor="middle" x="511" y="-141.5" font-family="Helvetica,sans-Serif" font-size="10.00">_server_builder.hpp</text>
</a>
</g>
</g>
<!-- Node2&#45;&gt;Node10 -->
<g id="edge12" class="edge">
<title>Node2&#45;&gt;Node10</title>
<path fill="none" stroke="midnightblue" d="M569.92,-200.24C557.14,-189.45 540.14,-175.1 527.69,-164.59"/>
<polygon fill="midnightblue" stroke="midnightblue" points="567.72,-202.96 577.62,-206.73 572.23,-197.61 567.72,-202.96"/>
</g>
<!-- Node12 -->
<g id="node12" class="node">
<title>Node12</title>
<g id="a_node12"><a xlink:href="udp__builder_8hpp.html" target="_top" xlink:title=" ">
<polygon fill="white" stroke="black" points="667.5,-134.5 667.5,-164.5 774.5,-164.5 774.5,-134.5 667.5,-134.5"/>
<text text-anchor="start" x="675.5" y="-152.5" font-family="Helvetica,sans-Serif" font-size="10.00">unilink/builder/udp</text>
<text text-anchor="middle" x="721" y="-141.5" font-family="Helvetica,sans-Serif" font-size="10.00">_builder.hpp</text>
</a>
</g>
</g>
<!-- Node2&#45;&gt;Node12 -->
<g id="edge16" class="edge">
<title>Node2&#45;&gt;Node12</title>
<path fill="none" stroke="midnightblue" d="M614.65,-202.47C637.14,-191.49 669.25,-175.79 692.3,-164.53"/>
<polygon fill="midnightblue" stroke="midnightblue" points="613.11,-199.33 605.66,-206.87 616.18,-205.62 613.11,-199.33"/>
</g>
<!-- Node14 -->
<g id="node14" class="node">
<title>Node14</title>
<g id="a_node14"><a xlink:href="uds__builder_8hpp.html" target="_top" xlink:title=" ">
<polygon fill="white" stroke="black" points="792.5,-134.5 792.5,-164.5 899.5,-164.5 899.5,-134.5 792.5,-134.5"/>
<text text-anchor="start" x="800.5" y="-152.5" font-family="Helvetica,sans-Serif" font-size="10.00">unilink/builder/uds</text>
<text text-anchor="middle" x="846" y="-141.5" font-family="Helvetica,sans-Serif" font-size="10.00">_builder.hpp</text>
</a>
</g>
</g>
<!-- Node2&#45;&gt;Node14 -->
<g id="edge20" class="edge">
<title>Node2&#45;&gt;Node14</title>
<path fill="none" stroke="midnightblue" d="M631.88,-204.44C676.16,-193.29 744.61,-176.04 792.15,-164.07"/>
<polygon fill="midnightblue" stroke="midnightblue" points="630.84,-201.1 621.99,-206.94 632.55,-207.89 630.84,-201.1"/>
</g>
<!-- Node4 -->
<g id="node4" class="node">
<title>Node4</title>
<g id="a_node4"><a xlink:href="serial__builder_8cc.html" target="_top" xlink:title=" ">
<polygon fill="white" stroke="black" points="0,-67.5 0,-97.5 116,-97.5 116,-67.5 0,-67.5"/>
<text text-anchor="start" x="8" y="-85.5" font-family="Helvetica,sans-Serif" font-size="10.00">unilink/builder/serial</text>
<text text-anchor="middle" x="58" y="-74.5" font-family="Helvetica,sans-Serif" font-size="10.00">_builder.cc</text>
</a>
</g>
</g>
<!-- Node3&#45;&gt;Node4 -->
<g id="edge3" class="edge">
<title>Node3&#45;&gt;Node4</title>
<path fill="none" stroke="midnightblue" d="M154.56,-129.99C133.16,-119.69 106.95,-107.07 87.24,-97.58"/>
<polygon fill="midnightblue" stroke="midnightblue" points="153.18,-133.21 163.71,-134.4 156.22,-126.9 153.18,-133.21"/>
</g>
<!-- Node5 -->
<g id="node5" class="node">
<title>Node5</title>
<g id="a_node5"><a xlink:href="unified__builder_8hpp.html" target="_top" xlink:title=" ">
<polygon fill="white" stroke="black" points="332,-67.5 332,-97.5 454,-97.5 454,-67.5 332,-67.5"/>
<text text-anchor="start" x="340" y="-85.5" font-family="Helvetica,sans-Serif" font-size="10.00">unilink/builder/unified</text>
<text text-anchor="middle" x="393" y="-74.5" font-family="Helvetica,sans-Serif" font-size="10.00">_builder.hpp</text>
</a>
</g>
</g>
<!-- Node3&#45;&gt;Node5 -->
<g id="edge4" class="edge">
<title>Node3&#45;&gt;Node5</title>
<path fill="none" stroke="midnightblue" d="M246.15,-131.23C278.5,-120.71 319.31,-107.45 349.69,-97.58"/>
<polygon fill="midnightblue" stroke="midnightblue" points="244.83,-127.98 236.4,-134.4 246.99,-134.63 244.83,-127.98"/>
</g>
<!-- Node3&#45;&gt;Node7 -->
<g id="edge7" class="edge">
<title>Node3&#45;&gt;Node7</title>
<path fill="none" stroke="midnightblue" d="M173.57,-126.1C160.57,-108.32 148.29,-83.74 163,-67 204.12,-20.21 379.69,-42 441,-31 450.39,-29.32 460.49,-27.15 469.79,-25.01"/>
<polygon fill="midnightblue" stroke="midnightblue" points="170.99,-128.49 179.9,-134.23 176.51,-124.19 170.99,-128.49"/>
</g>
<!-- Node6 -->
<g id="node6" class="node">
<title>Node6</title>
<g id="a_node6"><a xlink:href="unified__builder_8cc.html" target="_top" xlink:title=" ">
<polygon fill="white" stroke="black" points="310,-0.5 310,-30.5 432,-30.5 432,-0.5 310,-0.5"/>
<text text-anchor="start" x="318" y="-18.5" font-family="Helvetica,sans-Serif" font-size="10.00">unilink/builder/unified</text>
<text text-anchor="middle" x="371" y="-7.5" font-family="Helvetica,sans-Serif" font-size="10.00">_builder.cc</text>
</a>
</g>
</g>
<!-- Node5&#45;&gt;Node6 -->
<g id="edge5" class="edge">
<title>Node5&#45;&gt;Node6</title>
<path fill="none" stroke="midnightblue" d="M384.94,-57.7C381.86,-48.59 378.44,-38.49 375.76,-30.58"/>
<polygon fill="midnightblue" stroke="midnightblue" points="381.71,-59.05 388.23,-67.4 388.34,-56.8 381.71,-59.05"/>
</g>
<!-- Node5&#45;&gt;Node7 -->
<g id="edge6" class="edge">
<title>Node5&#45;&gt;Node7</title>
<path fill="none" stroke="midnightblue" d="M425.78,-62.31C446.92,-49.93 473.38,-34.43 489.47,-25.01"/>
<polygon fill="midnightblue" stroke="midnightblue" points="423.95,-59.32 417.09,-67.4 427.48,-65.36 423.95,-59.32"/>
</g>
<!-- Node8&#45;&gt;Node5 -->
<g id="edge10" class="edge">
<title>Node8&#45;&gt;Node5</title>
<path fill="none" stroke="midnightblue" d="M373.72,-125.28C377.99,-116.02 382.77,-105.66 386.5,-97.58"/>
<polygon fill="midnightblue" stroke="midnightblue" points="370.52,-123.85 369.51,-134.4 376.88,-126.78 370.52,-123.85"/>
</g>
<!-- Node8&#45;&gt;Node7 -->
<g id="edge11" class="edge">
<title>Node8&#45;&gt;Node7</title>
<path fill="none" stroke="midnightblue" d="M339.93,-126.94C324.35,-109.73 308.95,-85.51 323,-67 327.51,-61.06 418.06,-37.8 469.34,-25.03"/>
<polygon fill="midnightblue" stroke="midnightblue" points="337.56,-129.52 347.01,-134.31 342.61,-124.67 337.56,-129.52"/>
</g>
<!-- Node9 -->
<g id="node9" class="node">
<title>Node9</title>
<g id="a_node9"><a xlink:href="tcp__client__builder_8cc.html" target="_top" xlink:title=" ">
<polygon fill="white" stroke="black" points="172,-67.5 172,-97.5 276,-97.5 276,-67.5 172,-67.5"/>
<text text-anchor="start" x="180" y="-85.5" font-family="Helvetica,sans-Serif" font-size="10.00">unilink/builder/tcp</text>
<text text-anchor="middle" x="224" y="-74.5" font-family="Helvetica,sans-Serif" font-size="10.00">_client_builder.cc</text>
</a>
</g>
</g>
<!-- Node8&#45;&gt;Node9 -->
<g id="edge9" class="edge">
<title>Node8&#45;&gt;Node9</title>
<path fill="none" stroke="midnightblue" d="M323.72,-130.13C301.63,-119.8 274.49,-107.11 254.1,-97.58"/>
<polygon fill="midnightblue" stroke="midnightblue" points="322.3,-133.33 332.84,-134.4 325.26,-126.99 322.3,-133.33"/>
</g>
<!-- Node10&#45;&gt;Node5 -->
<g id="edge14" class="edge">
<title>Node10&#45;&gt;Node5</title>
<path fill="none" stroke="midnightblue" d="M476.39,-129.44C457.88,-119.24 435.48,-106.9 418.55,-97.58"/>
<polygon fill="midnightblue" stroke="midnightblue" points="474.95,-132.64 485.4,-134.4 478.33,-126.51 474.95,-132.64"/>
</g>
<!-- Node10&#45;&gt;Node7 -->
<g id="edge15" class="edge">
<title>Node10&#45;&gt;Node7</title>
<path fill="none" stroke="midnightblue" d="M505.27,-124.61C503.54,-116.24 501.86,-106.76 501,-98 498.4,-71.51 501.24,-39.97 502.93,-25.09"/>
<polygon fill="midnightblue" stroke="midnightblue" points="501.88,-125.45 507.45,-134.46 508.71,-123.94 501.88,-125.45"/>
</g>
<!-- Node11 -->
<g id="node11" class="node">
<title>Node11</title>
<g id="a_node11"><a xlink:href="tcp__server__builder_8cc.html" target="_top" xlink:title=" ">
<polygon fill="white" stroke="black" points="510,-67.5 510,-97.5 614,-97.5 614,-67.5 510,-67.5"/>
<text text-anchor="start" x="518" y="-85.5" font-family="Helvetica,sans-Serif" font-size="10.00">unilink/builder/tcp</text>
<text text-anchor="middle" x="562" y="-74.5" font-family="Helvetica,sans-Serif" font-size="10.00">_server_builder.cc</text>
</a>
</g>
</g>
<!-- Node10&#45;&gt;Node11 -->
<g id="edge13" class="edge">
<title>Node10&#45;&gt;Node11</title>
<path fill="none" stroke="midnightblue" d="M528.3,-126.45C535.79,-116.9 544.34,-106 550.96,-97.58"/>
<polygon fill="midnightblue" stroke="midnightblue" points="525.49,-124.37 522.07,-134.4 530.99,-128.69 525.49,-124.37"/>
</g>
<!-- Node12&#45;&gt;Node5 -->
<g id="edge18" class="edge">
<title>Node12&#45;&gt;Node5</title>
<path fill="none" stroke="midnightblue" d="M657.3,-135.88C598.57,-124.24 511.97,-107.08 454.08,-95.6"/>
<polygon fill="midnightblue" stroke="midnightblue" points="656.72,-139.33 667.2,-137.84 658.08,-132.46 656.72,-139.33"/>
</g>
<!-- Node12&#45;&gt;Node7 -->
<g id="edge19" class="edge">
<title>Node12&#45;&gt;Node7</title>
<path fill="none" stroke="midnightblue" d="M707.98,-125.72C696.47,-107.46 678.09,-82.41 656,-67 624.87,-45.28 583.72,-32.37 552.09,-25.04"/>
<polygon fill="midnightblue" stroke="midnightblue" points="705.03,-127.59 713.21,-134.32 711.01,-123.96 705.03,-127.59"/>
</g>
<!-- Node13 -->
<g id="node13" class="node">
<title>Node13</title>
<g id="a_node13"><a xlink:href="udp__builder_8cc.html" target="_top" xlink:title=" ">
<polygon fill="white" stroke="black" points="708.5,-67.5 708.5,-97.5 815.5,-97.5 815.5,-67.5 708.5,-67.5"/>
<text text-anchor="start" x="716.5" y="-85.5" font-family="Helvetica,sans-Serif" font-size="10.00">unilink/builder/udp</text>
<text text-anchor="middle" x="762" y="-74.5" font-family="Helvetica,sans-Serif" font-size="10.00">_builder.cc</text>
</a>
</g>
</g>
<!-- Node12&#45;&gt;Node13 -->
<g id="edge17" class="edge">
<title>Node12&#45;&gt;Node13</title>
<path fill="none" stroke="midnightblue" d="M735.28,-125.87C741.21,-116.46 747.91,-105.83 753.12,-97.58"/>
<polygon fill="midnightblue" stroke="midnightblue" points="732.27,-124.07 729.9,-134.4 738.19,-127.81 732.27,-124.07"/>
</g>
<!-- Node14&#45;&gt;Node7 -->
<g id="edge22" class="edge">
<title>Node14&#45;&gt;Node7</title>
<path fill="none" stroke="midnightblue" d="M846.13,-124.32C844.86,-105.89 839.95,-81.33 824,-67 785.66,-32.56 638.24,-21.55 557.55,-18.07"/>
<polygon fill="midnightblue" stroke="midnightblue" points="842.63,-124.48 846.52,-134.33 849.63,-124.21 842.63,-124.48"/>
</g>
<!-- Node15 -->
<g id="node15" class="node">
<title>Node15</title>
<g id="a_node15"><a xlink:href="uds__builder_8cc.html" target="_top" xlink:title=" ">
<polygon fill="white" stroke="black" points="872.5,-67.5 872.5,-97.5 979.5,-97.5 979.5,-67.5 872.5,-67.5"/>
<text text-anchor="start" x="880.5" y="-85.5" font-family="Helvetica,sans-Serif" font-size="10.00">unilink/builder/uds</text>
<text text-anchor="middle" x="926" y="-74.5" font-family="Helvetica,sans-Serif" font-size="10.00">_builder.cc</text>
</a>
</g>
</g>
<!-- Node14&#45;&gt;Node15 -->
<g id="edge21" class="edge">
<title>Node14&#45;&gt;Node15</title>
<path fill="none" stroke="midnightblue" d="M871.37,-127.88C883.53,-118.01 897.78,-106.43 908.68,-97.58"/>
<polygon fill="midnightblue" stroke="midnightblue" points="868.91,-125.37 863.36,-134.4 873.33,-130.81 868.91,-125.37"/>
</g>
</g>
</svg>
        <g id="navigator" transform="translate(0 0)" fill="#404254">
                <rect fill="#f2f5e9" fill-opacity="0.5" stroke="#606060" stroke-width=".5" x="0" y="0" width="60" height="60"/>
                <use id="zoomplus" xlink:href="#zoomPlus" x="17" y="9" onmousedown="handleZoom(evt,'in')"/>
                <use id="zoomminus" xlink:href="#zoomMin" x="42" y="9" onmousedown="handleZoom(evt,'out')"/>
                <use id="reset" xlink:href="#resetDef" x="30" y="36" onmousedown="handleReset()"/>
                <g id="arrowUp" xlink:href="#dirArrow" transform="translate(30 24)" onmousedown="handlePan(0,-1)">
                  <use xlink:href="#rim" fill="#404040">
                        <set attributeName="fill" to="#808080" begin="arrowUp.mouseover" end="arrowUp.mouseout"/>
                  </use>
                  <path fill="none" stroke="white" stroke-width="1.5" d="M0,-3.0v7 M-2.5,-0.5L0,-3.0L2.5,-0.5"/>
                </g>
                <g id="arrowRight" xlink:href="#dirArrow" transform="rotate(90) translate(36 -43)" onmousedown="handlePan(1,0)">
                  <use xlink:href="#rim" fill="#404040">
                        <set attributeName="fill" to="#808080" begin="arrowRight.mouseover" end="arrowRight.mouseout"/>
                  </use>
                  <path fill="none" stroke="white" stroke-width="1.5" d="M0,-3.0v7 M-2.5,-0.5L0,-3.0L2.5,-0.5"/>
                </g>
                <g id="arrowDown" xlink:href="#dirArrow" transform="rotate(180) translate(-30 -48)" onmousedown="handlePan(0,1)">
                  <use xlink:href="#rim" fill="#404040">
                        <set attributeName="fill" to="#808080" begin="arrowDown.mouseover" end="arrowDown.mouseout"/>
                  </use>
                  <path fill="none" stroke="white" stroke-width="1.5" d="M0,-3.0v7 M-2.5,-0.5L0,-3.0L2.5,-0.5"/>
                </g>
                <g id="arrowLeft" xlink:href="#dirArrow" transform="rotate(270) translate(-36 17)" onmousedown="handlePan(-1,0)">
                  <use xlink:href="#rim" fill="#404040">
                        <set attributeName="fill" to="#808080" begin="arrowLeft.mouseover" end="arrowLeft.mouseout"/>
                  </use>
                  <path fill="none" stroke="white" stroke-width="1.5" d="M0,-3.0v7 M-2.5,-0.5L0,-3.0L2.5,-0.5"/>
                </g>
        </g>
        <svg viewBox="0 0 15 15" width="100%" height="30px" preserveAspectRatio="xMaxYMin meet">
         <g id="arrow_out" transform="scale(0.3 0.3)">
          <a xlink:href="line__framer_8hpp__dep__incl_org.svg" target="_base">
           <rect id="button" ry="5" rx="5" y="6" x="6" height="38" width="38"
                fill="#f2f5e9" fill-opacity="0.5" stroke="#606060" stroke-width="1.0"/>
           <path id="arrow"
             d="M 11.500037,31.436501 C 11.940474,20.09759 22.043105,11.32322 32.158766,21.979434 L 37.068811,17.246167 C 37.068811,17.246167 37.088388,32 37.088388,32 L 22.160133,31.978069 C 22.160133,31.978069 26.997745,27.140456 26.997745,27.140456 C 18.528582,18.264221 13.291696,25.230495 11.500037,31.436501 z"
             style="fill:#404040;"/>
          </a>
         </g>
        </svg>
</svg>
