<?xml version="1.0" encoding="UTF-8" standalone="no"?>
<!DOCTYPE svg PUBLIC "-//W3C//DTD SVG 1.1//EN"
 "http://www.w3.org/Graphics/SVG/1.1/DTD/svg11.dtd">
<!-- Generated by graphviz version 2.43.0 (0)
 -->
<!-- Title: unilink/diagnostics/logger.cc Pages: 1 -->
<svg width="1373pt" height="207pt"
 viewBox="0.00 0.00 1373.00 207.00" xmlns="http://www.w3.org/2000/svg" xmlns:xlink="http://www.w3.org/1999/xlink">
<g id="graph0" class="graph" transform="scale(1 1) rotate(0) translate(4 203)">
<title>unilink/diagnostics/logger.cc</title>
<polygon fill="white" stroke="transparent" points="-4,4 -4,-203 1369,-203 1369,4 -4,4"/>
<!-- Node1 -->
<g id="node1" class="node">
<title>Node1</title>
<g id="a_node1"><a xlink:title=" ">
<polygon fill="#bfbfbf" stroke="black" points="824,-168.5 824,-198.5 932,-198.5 932,-168.5 824,-168.5"/>
<text text-anchor="start" x="832" y="-186.5" font-family="Helvetica,sans-Serif" font-size="10.00">unilink/diagnostics</text>
<text text-anchor="middle" x="878" y="-175.5" font-family="Helvetica,sans-Serif" font-size="10.00">/logger.cc</text>
</a>
</g>
</g>
<!-- Node2 -->
<g id="node2" class="node">
<title>Node2</title>
<g id="a_node2"><a xlink:href="logger_8hpp.html" target="_top" xlink:title=" ">
<polygon fill="white" stroke="black" points="204,-112.5 204,-131.5 272,-131.5 272,-112.5 204,-112.5"/>
<text text-anchor="middle" x="238" y="-119.5" font-family="Helvetica,sans-Serif" font-size="10.00">logger.hpp</text>
</a>
</g>
</g>
<!-- Node1&#45;&gt;Node2 -->
<g id="edge1" class="edge">
<title>Node1&#45;&gt;Node2</title>
<path fill="none" stroke="midnightblue" d="M823.99,-177.48C699.93,-165.95 396.56,-137.74 282.41,-127.13"/>
<polygon fill="midnightblue" stroke="midnightblue" points="282.57,-123.63 272.28,-126.19 281.92,-130.6 282.57,-123.63"/>
</g>
<!-- Node8 -->
<g id="node8" class="node">
<title>Node8</title>
<g id="a_node8"><a xlink:title=" ">
<polygon fill="white" stroke="#bfbfbf" points="463.5,-56.5 463.5,-75.5 536.5,-75.5 536.5,-56.5 463.5,-56.5"/>
<text text-anchor="middle" x="500" y="-63.5" font-family="Helvetica,sans-Serif" font-size="10.00">string_view</text>
</a>
</g>
</g>
<!-- Node1&#45;&gt;Node8 -->
<g id="edge29" class="edge">
<title>Node1&#45;&gt;Node8</title>
<path fill="none" stroke="midnightblue" d="M823.8,-178.95C743.17,-172.86 596.24,-158.47 551,-132 532.11,-120.95 517.62,-99.98 509,-84.84"/>
<polygon fill="midnightblue" stroke="midnightblue" points="512.01,-83.05 504.19,-75.9 505.84,-86.37 512.01,-83.05"/>
</g>
<!-- Node11 -->
<g id="node11" class="node">
<title>Node11</title>
<g id="a_node11"><a xlink:title=" ">
<polygon fill="white" stroke="#bfbfbf" points="460,-0.5 460,-19.5 528,-19.5 528,-0.5 460,-0.5"/>
<text text-anchor="middle" x="494" y="-7.5" font-family="Helvetica,sans-Serif" font-size="10.00">filesystem</text>
</a>
</g>
</g>
<!-- Node1&#45;&gt;Node11 -->
<g id="edge22" class="edge">
<title>Node1&#45;&gt;Node11</title>
<path fill="none" stroke="midnightblue" d="M824,-177.24C754.75,-169.7 639.26,-154.24 603,-132 566.78,-109.78 573.96,-87.09 545,-56 535.07,-45.33 522.86,-34.49 512.87,-26.12"/>
<polygon fill="midnightblue" stroke="midnightblue" points="515.05,-23.39 505.11,-19.73 510.61,-28.79 515.05,-23.39"/>
</g>
<!-- Node12 -->
<g id="node12" class="node">
<title>Node12</title>
<g id="a_node12"><a xlink:title=" ">
<polygon fill="white" stroke="#bfbfbf" points="555,-0.5 555,-19.5 603,-19.5 603,-0.5 555,-0.5"/>
<text text-anchor="middle" x="579" y="-7.5" font-family="Helvetica,sans-Serif" font-size="10.00">mutex</text>
</a>
</g>
</g>
<!-- Node1&#45;&gt;Node12 -->
<g id="edge26" class="edge">
<title>Node1&#45;&gt;Node12</title>
<path fill="none" stroke="midnightblue" d="M823.74,-177.97C758.06,-171.46 652.55,-157.34 623,-132 592.41,-105.77 583.09,-56.49 580.24,-29.62"/>
<polygon fill="midnightblue" stroke="midnightblue" points="583.73,-29.28 579.38,-19.61 576.75,-29.88 583.73,-29.28"/>
</g>
<!-- Node14 -->
<g id="node14" class="node">
<title>Node14</title>
<g id="a_node14"><a xlink:title=" ">
<polygon fill="white" stroke="#bfbfbf" points="631.5,-112.5 631.5,-131.5 738.5,-131.5 738.5,-112.5 631.5,-112.5"/>
<text text-anchor="middle" x="685" y="-119.5" font-family="Helvetica,sans-Serif" font-size="10.00">condition_variable</text>
</a>
</g>
</g>
<!-- Node1&#45;&gt;Node14 -->
<g id="edge18" class="edge">
<title>Node1&#45;&gt;Node14</title>
<path fill="none" stroke="midnightblue" d="M832.26,-168.4C798.77,-158.07 753.87,-144.23 722.48,-134.56"/>
<polygon fill="midnightblue" stroke="midnightblue" points="723.39,-131.17 712.8,-131.57 721.33,-137.86 723.39,-131.17"/>
</g>
<!-- Node15 -->
<g id="node15" class="node">
<title>Node15</title>
<g id="a_node15"><a xlink:title=" ">
<polygon fill="white" stroke="#bfbfbf" points="757,-112.5 757,-131.5 803,-131.5 803,-112.5 757,-112.5"/>
<text text-anchor="middle" x="780" y="-119.5" font-family="Helvetica,sans-Serif" font-size="10.00">cstdio</text>
</a>
</g>
</g>
<!-- Node1&#45;&gt;Node15 -->
<g id="edge19" class="edge">
<title>Node1&#45;&gt;Node15</title>
<path fill="none" stroke="midnightblue" d="M854.78,-168.4C839.21,-158.95 818.8,-146.56 803.24,-137.11"/>
<polygon fill="midnightblue" stroke="midnightblue" points="804.62,-133.86 794.26,-131.66 800.99,-139.84 804.62,-133.86"/>
</g>
<!-- Node16 -->
<g id="node16" class="node">
<title>Node16</title>
<g id="a_node16"><a xlink:title=" ">
<polygon fill="white" stroke="#bfbfbf" points="821,-112.5 821,-131.5 871,-131.5 871,-112.5 821,-112.5"/>
<text text-anchor="middle" x="846" y="-119.5" font-family="Helvetica,sans-Serif" font-size="10.00">cstring</text>
</a>
</g>
</g>
<!-- Node1&#45;&gt;Node16 -->
<g id="edge20" class="edge">
<title>Node1&#45;&gt;Node16</title>
<path fill="none" stroke="midnightblue" d="M870.42,-168.4C865.96,-160.11 860.28,-149.55 855.52,-140.71"/>
<polygon fill="midnightblue" stroke="midnightblue" points="858.48,-138.81 850.66,-131.66 852.31,-142.12 858.48,-138.81"/>
</g>
<!-- Node17 -->
<g id="node17" class="node">
<title>Node17</title>
<g id="a_node17"><a xlink:title=" ">
<polygon fill="white" stroke="#bfbfbf" points="889,-112.5 889,-131.5 933,-131.5 933,-112.5 889,-112.5"/>
<text text-anchor="middle" x="911" y="-119.5" font-family="Helvetica,sans-Serif" font-size="10.00">ctime</text>
</a>
</g>
</g>
<!-- Node1&#45;&gt;Node17 -->
<g id="edge21" class="edge">
<title>Node1&#45;&gt;Node17</title>
<path fill="none" stroke="midnightblue" d="M885.82,-168.4C890.47,-160.02 896.4,-149.33 901.34,-140.42"/>
<polygon fill="midnightblue" stroke="midnightblue" points="904.41,-142.1 906.2,-131.66 898.29,-138.71 904.41,-142.1"/>
</g>
<!-- Node18 -->
<g id="node18" class="node">
<title>Node18</title>
<g id="a_node18"><a xlink:title=" ">
<polygon fill="white" stroke="#bfbfbf" points="951.5,-112.5 951.5,-131.5 1006.5,-131.5 1006.5,-112.5 951.5,-112.5"/>
<text text-anchor="middle" x="979" y="-119.5" font-family="Helvetica,sans-Serif" font-size="10.00">fstream</text>
</a>
</g>
</g>
<!-- Node1&#45;&gt;Node18 -->
<g id="edge23" class="edge">
<title>Node1&#45;&gt;Node18</title>
<path fill="none" stroke="midnightblue" d="M901.94,-168.4C918.13,-158.86 939.41,-146.32 955.5,-136.84"/>
<polygon fill="midnightblue" stroke="midnightblue" points="957.46,-139.75 964.3,-131.66 953.91,-133.72 957.46,-139.75"/>
</g>
<!-- Node19 -->
<g id="node19" class="node">
<title>Node19</title>
<g id="a_node19"><a xlink:title=" ">
<polygon fill="white" stroke="#bfbfbf" points="1025,-112.5 1025,-131.5 1081,-131.5 1081,-112.5 1025,-112.5"/>
<text text-anchor="middle" x="1053" y="-119.5" font-family="Helvetica,sans-Serif" font-size="10.00">iomanip</text>
</a>
</g>
</g>
<!-- Node1&#45;&gt;Node19 -->
<g id="edge24" class="edge">
<title>Node1&#45;&gt;Node19</title>
<path fill="none" stroke="midnightblue" d="M919.47,-168.4C949.58,-158.16 989.85,-144.47 1018.27,-134.81"/>
<polygon fill="midnightblue" stroke="midnightblue" points="1019.45,-138.1 1027.79,-131.57 1017.2,-131.48 1019.45,-138.1"/>
</g>
<!-- Node20 -->
<g id="node20" class="node">
<title>Node20</title>
<g id="a_node20"><a xlink:title=" ">
<polygon fill="white" stroke="#bfbfbf" points="1099,-112.5 1099,-131.5 1159,-131.5 1159,-112.5 1099,-112.5"/>
<text text-anchor="middle" x="1129" y="-119.5" font-family="Helvetica,sans-Serif" font-size="10.00">iostream</text>
</a>
</g>
</g>
<!-- Node1&#45;&gt;Node20 -->
<g id="edge25" class="edge">
<title>Node1&#45;&gt;Node20</title>
<path fill="none" stroke="midnightblue" d="M932.15,-169.66C979.29,-158.49 1046.52,-142.55 1088.94,-132.5"/>
<polygon fill="midnightblue" stroke="midnightblue" points="1089.98,-135.85 1098.91,-130.13 1088.37,-129.03 1089.98,-135.85"/>
</g>
<!-- Node21 -->
<g id="node21" class="node">
<title>Node21</title>
<g id="a_node21"><a xlink:title=" ">
<polygon fill="white" stroke="#bfbfbf" points="1177.5,-112.5 1177.5,-131.5 1224.5,-131.5 1224.5,-112.5 1177.5,-112.5"/>
<text text-anchor="middle" x="1201" y="-119.5" font-family="Helvetica,sans-Serif" font-size="10.00">queue</text>
</a>
</g>
</g>
<!-- Node1&#45;&gt;Node21 -->
<g id="edge27" class="edge">
<title>Node1&#45;&gt;Node21</title>
<path fill="none" stroke="midnightblue" d="M932.01,-174.65C988.37,-166.1 1079.44,-151.32 1167.4,-131.95"/>
<polygon fill="midnightblue" stroke="midnightblue" points="1168.27,-135.35 1177.27,-129.76 1166.75,-128.51 1168.27,-135.35"/>
</g>
<!-- Node22 -->
<g id="node22" class="node">
<title>Node22</title>
<g id="a_node22"><a xlink:title=" ">
<polygon fill="white" stroke="#bfbfbf" points="1243,-112.5 1243,-131.5 1299,-131.5 1299,-112.5 1243,-112.5"/>
<text text-anchor="middle" x="1271" y="-119.5" font-family="Helvetica,sans-Serif" font-size="10.00">sstream</text>
</a>
</g>
</g>
<!-- Node1&#45;&gt;Node22 -->
<g id="edge28" class="edge">
<title>Node1&#45;&gt;Node22</title>
<path fill="none" stroke="midnightblue" d="M932.25,-176.48C1000.24,-168.56 1120.49,-153.33 1232.65,-132.1"/>
<polygon fill="midnightblue" stroke="midnightblue" points="1233.62,-135.48 1242.78,-130.16 1232.3,-128.61 1233.62,-135.48"/>
</g>
<!-- Node23 -->
<g id="node23" class="node">
<title>Node23</title>
<g id="a_node23"><a xlink:title=" ">
<polygon fill="white" stroke="#bfbfbf" points="1317,-112.5 1317,-131.5 1365,-131.5 1365,-112.5 1317,-112.5"/>
<text text-anchor="middle" x="1341" y="-119.5" font-family="Helvetica,sans-Serif" font-size="10.00">thread</text>
</a>
</g>
</g>
<!-- Node1&#45;&gt;Node23 -->
<g id="edge30" class="edge">
<title>Node1&#45;&gt;Node23</title>
<path fill="none" stroke="midnightblue" d="M932.03,-178.76C1011.99,-172.65 1166.61,-158.65 1306.87,-131.95"/>
<polygon fill="midnightblue" stroke="midnightblue" points="1307.79,-135.34 1316.95,-130.01 1306.47,-128.46 1307.79,-135.34"/>
</g>
<!-- Node3 -->
<g id="node3" class="node">
<title>Node3</title>
<g id="a_node3"><a xlink:title=" ">
<polygon fill="white" stroke="#bfbfbf" points="85,-0.5 85,-19.5 135,-19.5 135,-0.5 85,-0.5"/>
<text text-anchor="middle" x="110" y="-7.5" font-family="Helvetica,sans-Serif" font-size="10.00">atomic</text>
</a>
</g>
</g>
<!-- Node2&#45;&gt;Node3 -->
<g id="edge2" class="edge">
<title>Node2&#45;&gt;Node3</title>
<path fill="none" stroke="midnightblue" d="M227.96,-112.37C206.27,-93.73 154.84,-49.53 127.61,-26.13"/>
<polygon fill="midnightblue" stroke="midnightblue" points="129.86,-23.45 120,-19.59 125.3,-28.76 129.86,-23.45"/>
</g>
<!-- Node4 -->
<g id="node4" class="node">
<title>Node4</title>
<g id="a_node4"><a xlink:title=" ">
<polygon fill="white" stroke="#bfbfbf" points="153,-0.5 153,-19.5 203,-19.5 203,-0.5 153,-0.5"/>
<text text-anchor="middle" x="178" y="-7.5" font-family="Helvetica,sans-Serif" font-size="10.00">chrono</text>
</a>
</g>
</g>
<!-- Node2&#45;&gt;Node4 -->
<g id="edge3" class="edge">
<title>Node2&#45;&gt;Node4</title>
<path fill="none" stroke="midnightblue" d="M232.91,-112.43C227.59,-103.43 219.05,-88.81 212,-76 203.29,-60.17 193.8,-41.93 187.06,-28.81"/>
<polygon fill="midnightblue" stroke="midnightblue" points="190.17,-27.2 182.5,-19.89 183.94,-30.39 190.17,-27.2"/>
</g>
<!-- Node5 -->
<g id="node5" class="node">
<title>Node5</title>
<g id="a_node5"><a xlink:title=" ">
<polygon fill="white" stroke="#bfbfbf" points="380.5,-56.5 380.5,-75.5 445.5,-75.5 445.5,-56.5 380.5,-56.5"/>
<text text-anchor="middle" x="413" y="-63.5" font-family="Helvetica,sans-Serif" font-size="10.00">functional</text>
</a>
</g>
</g>
<!-- Node2&#45;&gt;Node5 -->
<g id="edge4" class="edge">
<title>Node2&#45;&gt;Node5</title>
<path fill="none" stroke="midnightblue" d="M265.73,-112.44C295.43,-103.28 342.72,-88.69 375.67,-78.52"/>
<polygon fill="midnightblue" stroke="midnightblue" points="376.88,-81.81 385.4,-75.52 374.81,-75.12 376.88,-81.81"/>
</g>
<!-- Node6 -->
<g id="node6" class="node">
<title>Node6</title>
<g id="a_node6"><a xlink:title=" ">
<polygon fill="white" stroke="#bfbfbf" points="0,-56.5 0,-75.5 58,-75.5 58,-56.5 0,-56.5"/>
<text text-anchor="middle" x="29" y="-63.5" font-family="Helvetica,sans-Serif" font-size="10.00">memory</text>
</a>
</g>
</g>
<!-- Node2&#45;&gt;Node6 -->
<g id="edge5" class="edge">
<title>Node2&#45;&gt;Node6</title>
<path fill="none" stroke="midnightblue" d="M204.88,-112.44C167.72,-102.84 107.48,-87.28 68.05,-77.09"/>
<polygon fill="midnightblue" stroke="midnightblue" points="68.81,-73.67 58.25,-74.56 67.06,-80.45 68.81,-73.67"/>
</g>
<!-- Node7 -->
<g id="node7" class="node">
<title>Node7</title>
<g id="a_node7"><a xlink:title=" ">
<polygon fill="white" stroke="#bfbfbf" points="379,-0.5 379,-19.5 423,-19.5 423,-0.5 379,-0.5"/>
<text text-anchor="middle" x="401" y="-7.5" font-family="Helvetica,sans-Serif" font-size="10.00">string</text>
</a>
</g>
</g>
<!-- Node2&#45;&gt;Node7 -->
<g id="edge6" class="edge">
<title>Node2&#45;&gt;Node7</title>
<path fill="none" stroke="midnightblue" d="M261.38,-112.38C281.32,-104.47 310.3,-91.62 333,-76 353.47,-61.92 373.63,-41.62 386.61,-27.46"/>
<polygon fill="midnightblue" stroke="midnightblue" points="389.3,-29.71 393.38,-19.93 384.09,-25.03 389.3,-29.71"/>
</g>
<!-- Node2&#45;&gt;Node8 -->
<g id="edge7" class="edge">
<title>Node2&#45;&gt;Node8</title>
<path fill="none" stroke="midnightblue" d="M272.25,-113.94C318.55,-104.4 401.26,-87.35 453.24,-76.64"/>
<polygon fill="midnightblue" stroke="midnightblue" points="454.12,-80.03 463.21,-74.58 452.71,-73.17 454.12,-80.03"/>
</g>
<!-- Node9 -->
<g id="node9" class="node">
<title>Node9</title>
<g id="a_node9"><a xlink:title=" ">
<polygon fill="white" stroke="#bfbfbf" points="19.5,-0.5 19.5,-19.5 66.5,-19.5 66.5,-0.5 19.5,-0.5"/>
<text text-anchor="middle" x="43" y="-7.5" font-family="Helvetica,sans-Serif" font-size="10.00">vector</text>
</a>
</g>
</g>
<!-- Node2&#45;&gt;Node9 -->
<g id="edge8" class="edge">
<title>Node2&#45;&gt;Node9</title>
<path fill="none" stroke="midnightblue" d="M222.7,-112.37C188.88,-93.29 107.57,-47.42 66.94,-24.51"/>
<polygon fill="midnightblue" stroke="midnightblue" points="68.66,-21.46 58.23,-19.59 65.22,-27.55 68.66,-21.46"/>
</g>
<!-- Node10 -->
<g id="node10" class="node">
<title>Node10</title>
<g id="a_node10"><a xlink:href="log__rotation_8hpp.html" target="_top" xlink:title=" ">
<polygon fill="white" stroke="black" points="228,-56.5 228,-75.5 324,-75.5 324,-56.5 228,-56.5"/>
<text text-anchor="middle" x="276" y="-63.5" font-family="Helvetica,sans-Serif" font-size="10.00">log_rotation.hpp</text>
</a>
</g>
</g>
<!-- Node2&#45;&gt;Node10 -->
<g id="edge9" class="edge">
<title>Node2&#45;&gt;Node10</title>
<path fill="none" stroke="midnightblue" d="M244.27,-112.08C249.64,-104.46 257.52,-93.26 264.08,-83.94"/>
<polygon fill="midnightblue" stroke="midnightblue" points="266.95,-85.94 269.84,-75.75 261.22,-81.91 266.95,-85.94"/>
</g>
<!-- Node13 -->
<g id="node13" class="node">
<title>Node13</title>
<g id="a_node13"><a xlink:href="visibility_8hpp.html" target="_top" xlink:title=" ">
<polygon fill="white" stroke="black" points="221,-0.5 221,-19.5 361,-19.5 361,-0.5 221,-0.5"/>
<text text-anchor="middle" x="291" y="-7.5" font-family="Helvetica,sans-Serif" font-size="10.00">unilink/base/visibility.hpp</text>
</a>
</g>
</g>
<!-- Node2&#45;&gt;Node13 -->
<g id="edge17" class="edge">
<title>Node2&#45;&gt;Node13</title>
<path fill="none" stroke="midnightblue" d="M231.26,-112.11C222.3,-99.13 208.74,-74.51 219,-56 227.09,-41.41 242.1,-30.92 256.34,-23.76"/>
<polygon fill="midnightblue" stroke="midnightblue" points="257.89,-26.9 265.5,-19.53 254.95,-20.55 257.89,-26.9"/>
</g>
<!-- Node10&#45;&gt;Node3 -->
<g id="edge10" class="edge">
<title>Node10&#45;&gt;Node3</title>
<path fill="none" stroke="midnightblue" d="M249.7,-56.44C221.32,-47.21 176,-32.47 144.72,-22.29"/>
<polygon fill="midnightblue" stroke="midnightblue" points="145.69,-18.93 135.09,-19.16 143.52,-25.58 145.69,-18.93"/>
</g>
<!-- Node10&#45;&gt;Node4 -->
<g id="edge11" class="edge">
<title>Node10&#45;&gt;Node4</title>
<path fill="none" stroke="midnightblue" d="M260.25,-56.32C244.68,-47.74 220.62,-34.49 202.54,-24.52"/>
<polygon fill="midnightblue" stroke="midnightblue" points="204.15,-21.42 193.71,-19.65 200.78,-27.55 204.15,-21.42"/>
</g>
<!-- Node10&#45;&gt;Node7 -->
<g id="edge14" class="edge">
<title>Node10&#45;&gt;Node7</title>
<path fill="none" stroke="midnightblue" d="M295.81,-56.44C316.29,-47.6 348.48,-33.69 371.86,-23.59"/>
<polygon fill="midnightblue" stroke="midnightblue" points="373.49,-26.7 381.29,-19.52 370.72,-20.27 373.49,-26.7"/>
</g>
<!-- Node10&#45;&gt;Node9 -->
<g id="edge15" class="edge">
<title>Node10&#45;&gt;Node9</title>
<path fill="none" stroke="midnightblue" d="M235.65,-56.48C197.22,-48.24 137.54,-35.12 76.55,-20.05"/>
<polygon fill="midnightblue" stroke="midnightblue" points="77.31,-16.63 66.76,-17.62 75.62,-23.43 77.31,-16.63"/>
</g>
<!-- Node10&#45;&gt;Node11 -->
<g id="edge12" class="edge">
<title>Node10&#45;&gt;Node11</title>
<path fill="none" stroke="midnightblue" d="M310.54,-56.44C348.36,-47.07 409.1,-32.03 450.23,-21.84"/>
<polygon fill="midnightblue" stroke="midnightblue" points="451.11,-25.23 459.98,-19.43 449.43,-18.43 451.11,-25.23"/>
</g>
<!-- Node10&#45;&gt;Node12 -->
<g id="edge13" class="edge">
<title>Node10&#45;&gt;Node12</title>
<path fill="none" stroke="midnightblue" d="M324.21,-57.29C376.67,-48.75 462.96,-34.31 537,-20 539.5,-19.52 542.08,-19 544.67,-18.47"/>
<polygon fill="midnightblue" stroke="midnightblue" points="545.53,-21.87 554.6,-16.4 544.1,-15.02 545.53,-21.87"/>
</g>
<!-- Node10&#45;&gt;Node13 -->
<g id="edge16" class="edge">
<title>Node10&#45;&gt;Node13</title>
<path fill="none" stroke="midnightblue" d="M278.48,-56.08C280.49,-48.85 283.39,-38.41 285.89,-29.4"/>
<polygon fill="midnightblue" stroke="midnightblue" points="289.26,-30.32 288.57,-19.75 282.52,-28.45 289.26,-30.32"/>
</g>
</g>
</svg>
