<?xml version="1.0" encoding="UTF-8" standalone="no"?>
<!DOCTYPE svg PUBLIC "-//W3C//DTD SVG 1.1//EN"
 "http://www.w3.org/Graphics/SVG/1.1/DTD/svg11.dtd">
<!-- Generated by graphviz version 2.43.0 (0)
 -->
<!-- Title: unilink/memory/memory_tracker.hpp Pages: 1 -->
<svg width="665pt" height="95pt"
 viewBox="0.00 0.00 665.00 95.00" xmlns="http://www.w3.org/2000/svg" xmlns:xlink="http://www.w3.org/1999/xlink">
<g id="graph0" class="graph" transform="scale(1 1) rotate(0) translate(4 91)">
<title>unilink/memory/memory_tracker.hpp</title>
<polygon fill="white" stroke="transparent" points="-4,4 -4,-91 661,-91 661,4 -4,4"/>
<!-- Node1 -->
<g id="node1" class="node">
<title>Node1</title>
<g id="a_node1"><a xlink:title=" ">
<polygon fill="#bfbfbf" stroke="black" points="199,-56.5 199,-86.5 337,-86.5 337,-56.5 199,-56.5"/>
<text text-anchor="start" x="207" y="-74.5" font-family="Helvetica,sans-Serif" font-size="10.00">unilink/memory/memory</text>
<text text-anchor="middle" x="268" y="-63.5" font-family="Helvetica,sans-Serif" font-size="10.00">_tracker.hpp</text>
</a>
</g>
</g>
<!-- Node2 -->
<g id="node2" class="node">
<title>Node2</title>
<g id="a_node2"><a xlink:title=" ">
<polygon fill="white" stroke="#bfbfbf" points="0,-0.5 0,-19.5 50,-19.5 50,-0.5 0,-0.5"/>
<text text-anchor="middle" x="25" y="-7.5" font-family="Helvetica,sans-Serif" font-size="10.00">atomic</text>
</a>
</g>
</g>
<!-- Node1&#45;&gt;Node2 -->
<g id="edge1" class="edge">
<title>Node1&#45;&gt;Node2</title>
<path fill="none" stroke="midnightblue" d="M208.46,-56.48C168.97,-47.09 115.74,-34.28 60.25,-20.28"/>
<polygon fill="midnightblue" stroke="midnightblue" points="60.79,-16.81 50.24,-17.75 59.07,-23.59 60.79,-16.81"/>
</g>
<!-- Node3 -->
<g id="node3" class="node">
<title>Node3</title>
<g id="a_node3"><a xlink:title=" ">
<polygon fill="white" stroke="#bfbfbf" points="68,-0.5 68,-19.5 118,-19.5 118,-0.5 68,-0.5"/>
<text text-anchor="middle" x="93" y="-7.5" font-family="Helvetica,sans-Serif" font-size="10.00">chrono</text>
</a>
</g>
</g>
<!-- Node1&#45;&gt;Node3 -->
<g id="edge2" class="edge">
<title>Node1&#45;&gt;Node3</title>
<path fill="none" stroke="midnightblue" d="M226.53,-56.4C196.42,-46.16 156.15,-32.47 127.73,-22.81"/>
<polygon fill="midnightblue" stroke="midnightblue" points="128.8,-19.48 118.21,-19.57 126.55,-26.1 128.8,-19.48"/>
</g>
<!-- Node4 -->
<g id="node4" class="node">
<title>Node4</title>
<g id="a_node4"><a xlink:title=" ">
<polygon fill="white" stroke="#bfbfbf" points="136,-0.5 136,-19.5 194,-19.5 194,-0.5 136,-0.5"/>
<text text-anchor="middle" x="165" y="-7.5" font-family="Helvetica,sans-Serif" font-size="10.00">memory</text>
</a>
</g>
</g>
<!-- Node1&#45;&gt;Node4 -->
<g id="edge3" class="edge">
<title>Node1&#45;&gt;Node4</title>
<path fill="none" stroke="midnightblue" d="M243.59,-56.4C227.08,-46.86 205.38,-34.32 188.96,-24.84"/>
<polygon fill="midnightblue" stroke="midnightblue" points="190.4,-21.63 179.99,-19.66 186.9,-27.69 190.4,-21.63"/>
</g>
<!-- Node5 -->
<g id="node5" class="node">
<title>Node5</title>
<g id="a_node5"><a xlink:title=" ">
<polygon fill="white" stroke="#bfbfbf" points="212,-0.5 212,-19.5 260,-19.5 260,-0.5 212,-0.5"/>
<text text-anchor="middle" x="236" y="-7.5" font-family="Helvetica,sans-Serif" font-size="10.00">mutex</text>
</a>
</g>
</g>
<!-- Node1&#45;&gt;Node5 -->
<g id="edge4" class="edge">
<title>Node1&#45;&gt;Node5</title>
<path fill="none" stroke="midnightblue" d="M260.42,-56.4C255.96,-48.11 250.28,-37.55 245.52,-28.71"/>
<polygon fill="midnightblue" stroke="midnightblue" points="248.48,-26.81 240.66,-19.66 242.31,-30.12 248.48,-26.81"/>
</g>
<!-- Node6 -->
<g id="node6" class="node">
<title>Node6</title>
<g id="a_node6"><a xlink:title=" ">
<polygon fill="white" stroke="#bfbfbf" points="278,-0.5 278,-19.5 322,-19.5 322,-0.5 278,-0.5"/>
<text text-anchor="middle" x="300" y="-7.5" font-family="Helvetica,sans-Serif" font-size="10.00">string</text>
</a>
</g>
</g>
<!-- Node1&#45;&gt;Node6 -->
<g id="edge5" class="edge">
<title>Node1&#45;&gt;Node6</title>
<path fill="none" stroke="midnightblue" d="M275.58,-56.4C280.04,-48.11 285.72,-37.55 290.48,-28.71"/>
<polygon fill="midnightblue" stroke="midnightblue" points="293.69,-30.12 295.34,-19.66 287.52,-26.81 293.69,-30.12"/>
</g>
<!-- Node7 -->
<g id="node7" class="node">
<title>Node7</title>
<g id="a_node7"><a xlink:title=" ">
<polygon fill="white" stroke="#bfbfbf" points="340.5,-0.5 340.5,-19.5 433.5,-19.5 433.5,-0.5 340.5,-0.5"/>
<text text-anchor="middle" x="387" y="-7.5" font-family="Helvetica,sans-Serif" font-size="10.00">unordered_map</text>
</a>
</g>
</g>
<!-- Node1&#45;&gt;Node7 -->
<g id="edge6" class="edge">
<title>Node1&#45;&gt;Node7</title>
<path fill="none" stroke="midnightblue" d="M296.2,-56.4C315.72,-46.64 341.53,-33.74 360.63,-24.18"/>
<polygon fill="midnightblue" stroke="midnightblue" points="362.31,-27.26 369.68,-19.66 359.17,-21 362.31,-27.26"/>
</g>
<!-- Node8 -->
<g id="node8" class="node">
<title>Node8</title>
<g id="a_node8"><a xlink:title=" ">
<polygon fill="white" stroke="#bfbfbf" points="451.5,-0.5 451.5,-19.5 498.5,-19.5 498.5,-0.5 451.5,-0.5"/>
<text text-anchor="middle" x="475" y="-7.5" font-family="Helvetica,sans-Serif" font-size="10.00">vector</text>
</a>
</g>
</g>
<!-- Node1&#45;&gt;Node8 -->
<g id="edge7" class="edge">
<title>Node1&#45;&gt;Node8</title>
<path fill="none" stroke="midnightblue" d="M316.79,-56.47C355.25,-45.42 407.84,-30.3 441.62,-20.59"/>
<polygon fill="midnightblue" stroke="midnightblue" points="442.82,-23.89 451.47,-17.76 440.89,-17.16 442.82,-23.89"/>
</g>
<!-- Node9 -->
<g id="node9" class="node">
<title>Node9</title>
<g id="a_node9"><a xlink:href="visibility_8hpp.html" target="_top" xlink:title=" ">
<polygon fill="white" stroke="black" points="517,-0.5 517,-19.5 657,-19.5 657,-0.5 517,-0.5"/>
<text text-anchor="middle" x="587" y="-7.5" font-family="Helvetica,sans-Serif" font-size="10.00">unilink/base/visibility.hpp</text>
</a>
</g>
</g>
<!-- Node1&#45;&gt;Node9 -->
<g id="edge8" class="edge">
<title>Node1&#45;&gt;Node9</title>
<path fill="none" stroke="midnightblue" d="M337.22,-57.59C395.23,-46.77 477.01,-31.52 530.97,-21.45"/>
<polygon fill="midnightblue" stroke="midnightblue" points="531.86,-24.85 541.05,-19.57 530.58,-17.96 531.86,-24.85"/>
</g>
</g>
</svg>
