<?xml version="1.0" encoding="UTF-8" standalone="no"?>
<!DOCTYPE svg PUBLIC "-//W3C//DTD SVG 1.1//EN"
 "http://www.w3.org/Graphics/SVG/1.1/DTD/svg11.dtd">
<!-- Generated by graphviz version 2.43.0 (0)
 -->
<!-- Title: unilink/memory/memory_tracker.cc Pages: 1 -->
<svg width="784pt" height="229pt"
 viewBox="0.00 0.00 784.00 229.00" xmlns="http://www.w3.org/2000/svg" xmlns:xlink="http://www.w3.org/1999/xlink">
<g id="graph0" class="graph" transform="scale(1 1) rotate(0) translate(4 225)">
<title>unilink/memory/memory_tracker.cc</title>
<polygon fill="white" stroke="transparent" points="-4,4 -4,-225 780,-225 780,4 -4,4"/>
<!-- Node1 -->
<g id="node1" class="node">
<title>Node1</title>
<g id="a_node1"><a xlink:title=" ">
<polygon fill="#bfbfbf" stroke="black" points="527,-190.5 527,-220.5 665,-220.5 665,-190.5 527,-190.5"/>
<text text-anchor="start" x="535" y="-208.5" font-family="Helvetica,sans-Serif" font-size="10.00">unilink/memory/memory</text>
<text text-anchor="middle" x="596" y="-197.5" font-family="Helvetica,sans-Serif" font-size="10.00">_tracker.cc</text>
</a>
</g>
</g>
<!-- Node2 -->
<g id="node2" class="node">
<title>Node2</title>
<g id="a_node2"><a xlink:href="memory__tracker_8hpp.html" target="_top" xlink:title=" ">
<polygon fill="white" stroke="black" points="334,-56.5 334,-86.5 472,-86.5 472,-56.5 334,-56.5"/>
<text text-anchor="start" x="342" y="-74.5" font-family="Helvetica,sans-Serif" font-size="10.00">unilink/memory/memory</text>
<text text-anchor="middle" x="403" y="-63.5" font-family="Helvetica,sans-Serif" font-size="10.00">_tracker.hpp</text>
</a>
</g>
</g>
<!-- Node1&#45;&gt;Node2 -->
<g id="edge1" class="edge">
<title>Node1&#45;&gt;Node2</title>
<path fill="none" stroke="midnightblue" d="M526.67,-197.19C494.66,-190.57 458.25,-177.96 433,-154 417.17,-138.97 409.65,-114.88 406.1,-96.78"/>
<polygon fill="midnightblue" stroke="midnightblue" points="409.51,-95.95 404.4,-86.67 402.61,-97.11 409.51,-95.95"/>
</g>
<!-- Node11 -->
<g id="node11" class="node">
<title>Node11</title>
<g id="a_node11"><a xlink:title=" ">
<polygon fill="white" stroke="#bfbfbf" points="568,-129 568,-148 624,-148 624,-129 568,-129"/>
<text text-anchor="middle" x="596" y="-136" font-family="Helvetica,sans-Serif" font-size="10.00">iomanip</text>
</a>
</g>
</g>
<!-- Node1&#45;&gt;Node11 -->
<g id="edge10" class="edge">
<title>Node1&#45;&gt;Node11</title>
<path fill="none" stroke="midnightblue" d="M596,-190.4C596,-181.06 596,-168.71 596,-158.52"/>
<polygon fill="midnightblue" stroke="midnightblue" points="599.5,-158.19 596,-148.19 592.5,-158.19 599.5,-158.19"/>
</g>
<!-- Node12 -->
<g id="node12" class="node">
<title>Node12</title>
<g id="a_node12"><a xlink:title=" ">
<polygon fill="white" stroke="#bfbfbf" points="642,-129 642,-148 702,-148 702,-129 642,-129"/>
<text text-anchor="middle" x="672" y="-136" font-family="Helvetica,sans-Serif" font-size="10.00">iostream</text>
</a>
</g>
</g>
<!-- Node1&#45;&gt;Node12 -->
<g id="edge11" class="edge">
<title>Node1&#45;&gt;Node12</title>
<path fill="none" stroke="midnightblue" d="M612.49,-190.4C624.69,-179.96 641.31,-165.75 653.88,-155"/>
<polygon fill="midnightblue" stroke="midnightblue" points="656.51,-157.35 661.83,-148.19 651.96,-152.03 656.51,-157.35"/>
</g>
<!-- Node13 -->
<g id="node13" class="node">
<title>Node13</title>
<g id="a_node13"><a xlink:title=" ">
<polygon fill="white" stroke="#bfbfbf" points="720,-129 720,-148 776,-148 776,-129 720,-129"/>
<text text-anchor="middle" x="748" y="-136" font-family="Helvetica,sans-Serif" font-size="10.00">sstream</text>
</a>
</g>
</g>
<!-- Node1&#45;&gt;Node13 -->
<g id="edge12" class="edge">
<title>Node1&#45;&gt;Node13</title>
<path fill="none" stroke="midnightblue" d="M628.98,-190.4C655.77,-178.94 693.19,-162.94 718.88,-151.95"/>
<polygon fill="midnightblue" stroke="midnightblue" points="720.29,-155.16 728.11,-148.01 717.54,-148.72 720.29,-155.16"/>
</g>
<!-- Node14 -->
<g id="node14" class="node">
<title>Node14</title>
<g id="a_node14"><a xlink:href="logger_8hpp.html" target="_top" xlink:title=" ">
<polygon fill="white" stroke="black" points="442,-123.5 442,-153.5 550,-153.5 550,-123.5 442,-123.5"/>
<text text-anchor="start" x="450" y="-141.5" font-family="Helvetica,sans-Serif" font-size="10.00">unilink/diagnostics</text>
<text text-anchor="middle" x="496" y="-130.5" font-family="Helvetica,sans-Serif" font-size="10.00">/logger.hpp</text>
</a>
</g>
</g>
<!-- Node1&#45;&gt;Node14 -->
<g id="edge13" class="edge">
<title>Node1&#45;&gt;Node14</title>
<path fill="none" stroke="midnightblue" d="M574.3,-190.4C560.28,-181.28 541.83,-169.29 526.36,-159.24"/>
<polygon fill="midnightblue" stroke="midnightblue" points="527.95,-156.09 517.66,-153.58 524.13,-161.96 527.95,-156.09"/>
</g>
<!-- Node3 -->
<g id="node3" class="node">
<title>Node3</title>
<g id="a_node3"><a xlink:title=" ">
<polygon fill="white" stroke="#bfbfbf" points="378,-0.5 378,-19.5 428,-19.5 428,-0.5 378,-0.5"/>
<text text-anchor="middle" x="403" y="-7.5" font-family="Helvetica,sans-Serif" font-size="10.00">atomic</text>
</a>
</g>
</g>
<!-- Node2&#45;&gt;Node3 -->
<g id="edge2" class="edge">
<title>Node2&#45;&gt;Node3</title>
<path fill="none" stroke="midnightblue" d="M403,-56.4C403,-48.47 403,-38.46 403,-29.86"/>
<polygon fill="midnightblue" stroke="midnightblue" points="406.5,-29.66 403,-19.66 399.5,-29.66 406.5,-29.66"/>
</g>
<!-- Node4 -->
<g id="node4" class="node">
<title>Node4</title>
<g id="a_node4"><a xlink:title=" ">
<polygon fill="white" stroke="#bfbfbf" points="86,-0.5 86,-19.5 136,-19.5 136,-0.5 86,-0.5"/>
<text text-anchor="middle" x="111" y="-7.5" font-family="Helvetica,sans-Serif" font-size="10.00">chrono</text>
</a>
</g>
</g>
<!-- Node2&#45;&gt;Node4 -->
<g id="edge3" class="edge">
<title>Node2&#45;&gt;Node4</title>
<path fill="none" stroke="midnightblue" d="M333.75,-58.22C284,-49.1 215.13,-35.88 145.96,-20.11"/>
<polygon fill="midnightblue" stroke="midnightblue" points="146.74,-16.7 136.21,-17.87 145.17,-23.52 146.74,-16.7"/>
</g>
<!-- Node5 -->
<g id="node5" class="node">
<title>Node5</title>
<g id="a_node5"><a xlink:title=" ">
<polygon fill="white" stroke="#bfbfbf" points="704,-0.5 704,-19.5 762,-19.5 762,-0.5 704,-0.5"/>
<text text-anchor="middle" x="733" y="-7.5" font-family="Helvetica,sans-Serif" font-size="10.00">memory</text>
</a>
</g>
</g>
<!-- Node2&#45;&gt;Node5 -->
<g id="edge4" class="edge">
<title>Node2&#45;&gt;Node5</title>
<path fill="none" stroke="midnightblue" d="M472.18,-58.03C539.47,-45.89 639.31,-27.89 693.88,-18.05"/>
<polygon fill="midnightblue" stroke="midnightblue" points="694.62,-21.48 703.84,-16.26 693.38,-14.59 694.62,-21.48"/>
</g>
<!-- Node6 -->
<g id="node6" class="node">
<title>Node6</title>
<g id="a_node6"><a xlink:title=" ">
<polygon fill="white" stroke="#bfbfbf" points="312,-0.5 312,-19.5 360,-19.5 360,-0.5 312,-0.5"/>
<text text-anchor="middle" x="336" y="-7.5" font-family="Helvetica,sans-Serif" font-size="10.00">mutex</text>
</a>
</g>
</g>
<!-- Node2&#45;&gt;Node6 -->
<g id="edge5" class="edge">
<title>Node2&#45;&gt;Node6</title>
<path fill="none" stroke="midnightblue" d="M387.12,-56.4C376.98,-47.4 363.84,-35.72 353.41,-26.47"/>
<polygon fill="midnightblue" stroke="midnightblue" points="355.55,-23.68 345.75,-19.66 350.9,-28.92 355.55,-23.68"/>
</g>
<!-- Node7 -->
<g id="node7" class="node">
<title>Node7</title>
<g id="a_node7"><a xlink:title=" ">
<polygon fill="white" stroke="#bfbfbf" points="446,-0.5 446,-19.5 490,-19.5 490,-0.5 446,-0.5"/>
<text text-anchor="middle" x="468" y="-7.5" font-family="Helvetica,sans-Serif" font-size="10.00">string</text>
</a>
</g>
</g>
<!-- Node2&#45;&gt;Node7 -->
<g id="edge6" class="edge">
<title>Node2&#45;&gt;Node7</title>
<path fill="none" stroke="midnightblue" d="M418.4,-56.4C428.24,-47.4 440.99,-35.72 451.11,-26.47"/>
<polygon fill="midnightblue" stroke="midnightblue" points="453.53,-28.99 458.54,-19.66 448.8,-23.83 453.53,-28.99"/>
</g>
<!-- Node8 -->
<g id="node8" class="node">
<title>Node8</title>
<g id="a_node8"><a xlink:title=" ">
<polygon fill="white" stroke="#bfbfbf" points="573.5,-0.5 573.5,-19.5 666.5,-19.5 666.5,-0.5 573.5,-0.5"/>
<text text-anchor="middle" x="620" y="-7.5" font-family="Helvetica,sans-Serif" font-size="10.00">unordered_map</text>
</a>
</g>
</g>
<!-- Node2&#45;&gt;Node8 -->
<g id="edge7" class="edge">
<title>Node2&#45;&gt;Node8</title>
<path fill="none" stroke="midnightblue" d="M454.15,-56.47C492.24,-46.03 543.57,-31.96 578.98,-22.25"/>
<polygon fill="midnightblue" stroke="midnightblue" points="580.26,-25.53 588.98,-19.51 578.41,-18.78 580.26,-25.53"/>
</g>
<!-- Node9 -->
<g id="node9" class="node">
<title>Node9</title>
<g id="a_node9"><a xlink:title=" ">
<polygon fill="white" stroke="#bfbfbf" points="508.5,-0.5 508.5,-19.5 555.5,-19.5 555.5,-0.5 508.5,-0.5"/>
<text text-anchor="middle" x="532" y="-7.5" font-family="Helvetica,sans-Serif" font-size="10.00">vector</text>
</a>
</g>
</g>
<!-- Node2&#45;&gt;Node9 -->
<g id="edge8" class="edge">
<title>Node2&#45;&gt;Node9</title>
<path fill="none" stroke="midnightblue" d="M433.57,-56.4C454.93,-46.55 483.22,-33.5 503.98,-23.92"/>
<polygon fill="midnightblue" stroke="midnightblue" points="505.61,-27.02 513.23,-19.66 502.68,-20.67 505.61,-27.02"/>
</g>
<!-- Node10 -->
<g id="node10" class="node">
<title>Node10</title>
<g id="a_node10"><a xlink:href="visibility_8hpp.html" target="_top" xlink:title=" ">
<polygon fill="white" stroke="black" points="154,-0.5 154,-19.5 294,-19.5 294,-0.5 154,-0.5"/>
<text text-anchor="middle" x="224" y="-7.5" font-family="Helvetica,sans-Serif" font-size="10.00">unilink/base/visibility.hpp</text>
</a>
</g>
</g>
<!-- Node2&#45;&gt;Node10 -->
<g id="edge9" class="edge">
<title>Node2&#45;&gt;Node10</title>
<path fill="none" stroke="midnightblue" d="M360.58,-56.4C329.78,-46.16 288.59,-32.47 259.52,-22.81"/>
<polygon fill="midnightblue" stroke="midnightblue" points="260.38,-19.4 249.78,-19.57 258.17,-26.05 260.38,-19.4"/>
</g>
<!-- Node14&#45;&gt;Node3 -->
<g id="edge14" class="edge">
<title>Node14&#45;&gt;Node3</title>
<path fill="none" stroke="midnightblue" d="M441.68,-128.68C397.11,-120.21 339.13,-105.91 325,-87 316.75,-75.96 318.11,-67.93 325,-56 334.32,-39.86 351.89,-28.99 367.99,-21.98"/>
<polygon fill="midnightblue" stroke="midnightblue" points="369.74,-25.05 377.74,-18.11 367.15,-18.55 369.74,-25.05"/>
</g>
<!-- Node14&#45;&gt;Node4 -->
<g id="edge15" class="edge">
<title>Node14&#45;&gt;Node4</title>
<path fill="none" stroke="midnightblue" d="M441.94,-134.51C359.83,-129.1 208.44,-115.53 163,-87 141.27,-73.36 126.35,-46.95 118.24,-29.14"/>
<polygon fill="midnightblue" stroke="midnightblue" points="121.4,-27.63 114.25,-19.81 114.96,-30.39 121.4,-27.63"/>
</g>
<!-- Node14&#45;&gt;Node5 -->
<g id="edge17" class="edge">
<title>Node14&#45;&gt;Node5</title>
<path fill="none" stroke="midnightblue" d="M550.28,-124.93C553.23,-124.27 556.15,-123.62 559,-123 635.72,-106.19 682.05,-147.6 732,-87 745.08,-71.13 742.61,-46.41 738.67,-29.5"/>
<polygon fill="midnightblue" stroke="midnightblue" points="742,-28.43 736.01,-19.69 735.24,-30.26 742,-28.43"/>
</g>
<!-- Node14&#45;&gt;Node7 -->
<g id="edge18" class="edge">
<title>Node14&#45;&gt;Node7</title>
<path fill="none" stroke="midnightblue" d="M493.82,-123.28C491.22,-106.94 486.52,-79.38 481,-56 478.9,-47.08 476.13,-37.3 473.69,-29.14"/>
<polygon fill="midnightblue" stroke="midnightblue" points="477.03,-28.09 470.75,-19.56 470.33,-30.15 477.03,-28.09"/>
</g>
<!-- Node14&#45;&gt;Node9 -->
<g id="edge20" class="edge">
<title>Node14&#45;&gt;Node9</title>
<path fill="none" stroke="midnightblue" d="M499.99,-123.48C506.5,-100.62 519.39,-55.3 526.67,-29.71"/>
<polygon fill="midnightblue" stroke="midnightblue" points="530.13,-30.36 529.5,-19.79 523.4,-28.45 530.13,-30.36"/>
</g>
<!-- Node14&#45;&gt;Node10 -->
<g id="edge29" class="edge">
<title>Node14&#45;&gt;Node10</title>
<path fill="none" stroke="midnightblue" d="M441.78,-137.18C358.96,-135.4 206.95,-126.67 173,-87 156.02,-67.16 181.86,-41.47 202.54,-25.62"/>
<polygon fill="midnightblue" stroke="midnightblue" points="204.67,-28.4 210.67,-19.67 200.54,-22.75 204.67,-28.4"/>
</g>
<!-- Node15 -->
<g id="node15" class="node">
<title>Node15</title>
<g id="a_node15"><a xlink:title=" ">
<polygon fill="white" stroke="#bfbfbf" points="566.5,-62 566.5,-81 631.5,-81 631.5,-62 566.5,-62"/>
<text text-anchor="middle" x="599" y="-69" font-family="Helvetica,sans-Serif" font-size="10.00">functional</text>
</a>
</g>
</g>
<!-- Node14&#45;&gt;Node15 -->
<g id="edge16" class="edge">
<title>Node14&#45;&gt;Node15</title>
<path fill="none" stroke="midnightblue" d="M518.35,-123.4C535.62,-112.5 559.42,-97.48 576.68,-86.58"/>
<polygon fill="midnightblue" stroke="midnightblue" points="578.93,-89.3 585.52,-81.01 575.19,-83.38 578.93,-89.3"/>
</g>
<!-- Node16 -->
<g id="node16" class="node">
<title>Node16</title>
<g id="a_node16"><a xlink:title=" ">
<polygon fill="white" stroke="#bfbfbf" points="649.5,-62 649.5,-81 722.5,-81 722.5,-62 649.5,-62"/>
<text text-anchor="middle" x="686" y="-69" font-family="Helvetica,sans-Serif" font-size="10.00">string_view</text>
</a>
</g>
</g>
<!-- Node14&#45;&gt;Node16 -->
<g id="edge19" class="edge">
<title>Node14&#45;&gt;Node16</title>
<path fill="none" stroke="midnightblue" d="M537.23,-123.4C571.3,-111.74 619.14,-95.37 651.29,-84.38"/>
<polygon fill="midnightblue" stroke="midnightblue" points="652.8,-87.56 661.13,-81.01 650.54,-80.93 652.8,-87.56"/>
</g>
<!-- Node17 -->
<g id="node17" class="node">
<title>Node17</title>
<g id="a_node17"><a xlink:href="log__rotation_8hpp.html" target="_top" xlink:title=" ">
<polygon fill="white" stroke="black" points="182,-62 182,-81 278,-81 278,-62 182,-62"/>
<text text-anchor="middle" x="230" y="-69" font-family="Helvetica,sans-Serif" font-size="10.00">log_rotation.hpp</text>
</a>
</g>
</g>
<!-- Node14&#45;&gt;Node17 -->
<g id="edge21" class="edge">
<title>Node14&#45;&gt;Node17</title>
<path fill="none" stroke="midnightblue" d="M441.85,-124.27C392.7,-112.26 321.08,-94.76 275.01,-83.5"/>
<polygon fill="midnightblue" stroke="midnightblue" points="275.56,-80.03 265.01,-81.06 273.9,-86.83 275.56,-80.03"/>
</g>
<!-- Node17&#45;&gt;Node3 -->
<g id="edge22" class="edge">
<title>Node17&#45;&gt;Node3</title>
<path fill="none" stroke="midnightblue" d="M254.79,-61.98C284.59,-51.72 334.79,-34.46 368.4,-22.9"/>
<polygon fill="midnightblue" stroke="midnightblue" points="369.94,-26.07 378.26,-19.51 367.66,-19.45 369.94,-26.07"/>
</g>
<!-- Node17&#45;&gt;Node4 -->
<g id="edge23" class="edge">
<title>Node17&#45;&gt;Node4</title>
<path fill="none" stroke="midnightblue" d="M212.95,-61.98C193.16,-52.08 160.28,-35.64 137.23,-24.12"/>
<polygon fill="midnightblue" stroke="midnightblue" points="138.53,-20.85 128.02,-19.51 135.4,-27.11 138.53,-20.85"/>
</g>
<!-- Node17&#45;&gt;Node6 -->
<g id="edge25" class="edge">
<title>Node17&#45;&gt;Node6</title>
<path fill="none" stroke="midnightblue" d="M245.19,-61.98C262.66,-52.17 291.58,-35.93 312.08,-24.42"/>
<polygon fill="midnightblue" stroke="midnightblue" points="313.83,-27.46 320.84,-19.51 310.41,-21.35 313.83,-27.46"/>
</g>
<!-- Node17&#45;&gt;Node7 -->
<g id="edge26" class="edge">
<title>Node17&#45;&gt;Node7</title>
<path fill="none" stroke="midnightblue" d="M267.14,-61.95C306.64,-52.74 371.16,-37.39 435.74,-20.26"/>
<polygon fill="midnightblue" stroke="midnightblue" points="436.92,-23.56 445.68,-17.6 435.12,-16.8 436.92,-23.56"/>
</g>
<!-- Node17&#45;&gt;Node9 -->
<g id="edge27" class="edge">
<title>Node17&#45;&gt;Node9</title>
<path fill="none" stroke="midnightblue" d="M278.35,-62.63C330.33,-53.91 415.56,-38.82 498.43,-19.98"/>
<polygon fill="midnightblue" stroke="midnightblue" points="499.3,-23.37 508.26,-17.72 497.74,-16.54 499.3,-23.37"/>
</g>
<!-- Node17&#45;&gt;Node10 -->
<g id="edge28" class="edge">
<title>Node17&#45;&gt;Node10</title>
<path fill="none" stroke="midnightblue" d="M229.14,-61.98C228.29,-53.58 226.97,-40.48 225.88,-29.66"/>
<polygon fill="midnightblue" stroke="midnightblue" points="229.34,-29.11 224.86,-19.51 222.38,-29.81 229.34,-29.11"/>
</g>
<!-- Node18 -->
<g id="node18" class="node">
<title>Node18</title>
<g id="a_node18"><a xlink:title=" ">
<polygon fill="white" stroke="#bfbfbf" points="0,-0.5 0,-19.5 68,-19.5 68,-0.5 0,-0.5"/>
<text text-anchor="middle" x="34" y="-7.5" font-family="Helvetica,sans-Serif" font-size="10.00">filesystem</text>
</a>
</g>
</g>
<!-- Node17&#45;&gt;Node18 -->
<g id="edge24" class="edge">
<title>Node17&#45;&gt;Node18</title>
<path fill="none" stroke="midnightblue" d="M201.92,-61.98C167.71,-51.59 109.8,-34.01 71.73,-22.45"/>
<polygon fill="midnightblue" stroke="midnightblue" points="72.62,-19.06 62.03,-19.51 70.58,-25.76 72.62,-19.06"/>
</g>
</g>
</svg>
