<?xml version="1.0" encoding="UTF-8" standalone="no"?>
<!DOCTYPE svg PUBLIC "-//W3C//DTD SVG 1.1//EN"
 "http://www.w3.org/Graphics/SVG/1.1/DTD/svg11.dtd">
<!-- Generated by graphviz version 2.43.0 (0)
 -->
<!-- Title: unilink/memory/memory_pool.cc Pages: 1 -->
<svg width="797pt" height="159pt"
 viewBox="0.00 0.00 796.50 159.00" xmlns="http://www.w3.org/2000/svg" xmlns:xlink="http://www.w3.org/1999/xlink">
<g id="graph0" class="graph" transform="scale(1 1) rotate(0) translate(4 155)">
<title>unilink/memory/memory_pool.cc</title>
<!-- Node1 -->
<g id="Node000001" class="node">
<title>Node1</title>
<g id="a_Node000001"><a xlink:title=" ">
<polygon fill="#999999" stroke="#666666" points="578.5,-151 440.5,-151 440.5,-121 578.5,-121 578.5,-151"/>
<text text-anchor="start" x="448.5" y="-139" font-family="Helvetica,sans-Serif" font-size="10.00">unilink/memory/memory</text>
<text text-anchor="middle" x="509.5" y="-128" font-family="Helvetica,sans-Serif" font-size="10.00">_pool.cc</text>
</a>
</g>
</g>
<!-- Node2 -->
<g id="Node000002" class="node">
<title>Node2</title>
<g id="a_Node000002"><a xlink:href="memory__pool_8hpp.html" target="_top" xlink:title=" ">
<polygon fill="white" stroke="#666666" points="363.5,-85 225.5,-85 225.5,-55 363.5,-55 363.5,-85"/>
<text text-anchor="start" x="233.5" y="-73" font-family="Helvetica,sans-Serif" font-size="10.00">unilink/memory/memory</text>
<text text-anchor="middle" x="294.5" y="-62" font-family="Helvetica,sans-Serif" font-size="10.00">_pool.hpp</text>
</a>
</g>
</g>
<!-- Node1&#45;&gt;Node2 -->
<g id="edge1_Node000001_Node000002" class="edge">
<title>Node1&#45;&gt;Node2</title>
<g id="a_edge1_Node000001_Node000002"><a xlink:title=" ">
<path fill="none" stroke="#63b8ff" d="M462.32,-120.95C429.69,-111.24 386.1,-98.27 351.53,-87.98"/>
<polygon fill="#63b8ff" stroke="#63b8ff" points="352.16,-84.51 341.57,-85.01 350.16,-91.22 352.16,-84.51"/>
</a>
</g>
</g>
<!-- Node8 -->
<g id="Node000008" class="node">
<title>Node8</title>
<g id="a_Node000008"><a xlink:title=" ">
<polygon fill="#e0e0e0" stroke="#999999" points="119.5,-19 71.5,-19 71.5,0 119.5,0 119.5,-19"/>
<text text-anchor="middle" x="95.5" y="-7" font-family="Helvetica,sans-Serif" font-size="10.00">mutex</text>
</a>
</g>
</g>
<!-- Node1&#45;&gt;Node8 -->
<g id="edge14_Node000001_Node000008" class="edge">
<title>Node1&#45;&gt;Node8</title>
<g id="a_edge14_Node000001_Node000008"><a xlink:title=" ">
<path fill="none" stroke="#63b8ff" d="M440.36,-130.67C379.72,-125.15 290.02,-112.71 216.5,-85 177.37,-70.25 137.01,-42.37 114.21,-25.22"/>
<polygon fill="#63b8ff" stroke="#63b8ff" points="116.16,-22.31 106.1,-19.01 111.91,-27.87 116.16,-22.31"/>
</a>
</g>
</g>
<!-- Node13 -->
<g id="Node000013" class="node">
<title>Node13</title>
<g id="a_Node000013"><a xlink:title=" ">
<polygon fill="#e0e0e0" stroke="#999999" points="601.5,-79.5 537.5,-79.5 537.5,-60.5 601.5,-60.5 601.5,-79.5"/>
<text text-anchor="middle" x="569.5" y="-67.5" font-family="Helvetica,sans-Serif" font-size="10.00">algorithm</text>
</a>
</g>
</g>
<!-- Node1&#45;&gt;Node13 -->
<g id="edge12_Node000001_Node000013" class="edge">
<title>Node1&#45;&gt;Node13</title>
<g id="a_edge12_Node000001_Node000013"><a xlink:title=" ">
<path fill="none" stroke="#63b8ff" d="M522.82,-120.8C532.08,-110.92 544.45,-97.72 554.13,-87.39"/>
<polygon fill="#63b8ff" stroke="#63b8ff" points="556.92,-89.53 561.21,-79.84 551.82,-84.75 556.92,-89.53"/>
</a>
</g>
</g>
<!-- Node14 -->
<g id="Node000014" class="node">
<title>Node14</title>
<g id="a_Node000014"><a xlink:title=" ">
<polygon fill="#e0e0e0" stroke="#999999" points="669,-79.5 620,-79.5 620,-60.5 669,-60.5 669,-79.5"/>
<text text-anchor="middle" x="644.5" y="-67.5" font-family="Helvetica,sans-Serif" font-size="10.00">cstdlib</text>
</a>
</g>
</g>
<!-- Node1&#45;&gt;Node14 -->
<g id="edge13_Node000001_Node000014" class="edge">
<title>Node1&#45;&gt;Node14</title>
<g id="a_edge13_Node000001_Node000014"><a xlink:title=" ">
<path fill="none" stroke="#63b8ff" d="M539.13,-120.95C562.49,-109.88 594.8,-94.56 617.47,-83.82"/>
<polygon fill="#63b8ff" stroke="#63b8ff" points="619,-86.96 626.53,-79.52 616,-80.64 619,-86.96"/>
</a>
</g>
</g>
<!-- Node15 -->
<g id="Node000015" class="node">
<title>Node15</title>
<g id="a_Node000015"><a xlink:title=" ">
<polygon fill="#e0e0e0" stroke="#999999" points="752,-79.5 687,-79.5 687,-60.5 752,-60.5 752,-79.5"/>
<text text-anchor="middle" x="719.5" y="-67.5" font-family="Helvetica,sans-Serif" font-size="10.00">stdexcept</text>
</a>
</g>
</g>
<!-- Node1&#45;&gt;Node15 -->
<g id="edge15_Node000001_Node000015" class="edge">
<title>Node1&#45;&gt;Node15</title>
<g id="a_edge15_Node000001_Node000015"><a xlink:title=" ">
<path fill="none" stroke="#63b8ff" d="M558.84,-120.99C592.63,-111.24 638.41,-97.77 678.5,-85 680.65,-84.31 682.87,-83.6 685.1,-82.86"/>
<polygon fill="#63b8ff" stroke="#63b8ff" points="686.46,-86.1 694.84,-79.61 684.24,-79.46 686.46,-86.1"/>
</a>
</g>
</g>
<!-- Node16 -->
<g id="Node000016" class="node">
<title>Node16</title>
<g id="a_Node000016"><a xlink:href="memory__tracker_8hpp.html" target="_top" xlink:title=" ">
<polygon fill="white" stroke="#666666" points="519.5,-85 381.5,-85 381.5,-55 519.5,-55 519.5,-85"/>
<text text-anchor="start" x="389.5" y="-73" font-family="Helvetica,sans-Serif" font-size="10.00">unilink/memory/memory</text>
<text text-anchor="middle" x="450.5" y="-62" font-family="Helvetica,sans-Serif" font-size="10.00">_tracker.hpp</text>
</a>
</g>
</g>
<!-- Node1&#45;&gt;Node16 -->
<g id="edge16_Node000001_Node000016" class="edge">
<title>Node1&#45;&gt;Node16</title>
<g id="a_edge16_Node000001_Node000016"><a xlink:title=" ">
<path fill="none" stroke="#63b8ff" d="M496.41,-120.8C488.77,-112.51 478.98,-101.89 470.4,-92.59"/>
<polygon fill="#63b8ff" stroke="#63b8ff" points="472.91,-90.14 463.56,-85.16 467.76,-94.89 472.91,-90.14"/>
</a>
</g>
</g>
<!-- Node3 -->
<g id="Node000003" class="node">
<title>Node3</title>
<g id="a_Node000003"><a xlink:title=" ">
<polygon fill="#e0e0e0" stroke="#999999" points="179.5,-19 137.5,-19 137.5,0 179.5,0 179.5,-19"/>
<text text-anchor="middle" x="158.5" y="-7" font-family="Helvetica,sans-Serif" font-size="10.00">array</text>
</a>
</g>
</g>
<!-- Node2&#45;&gt;Node3 -->
<g id="edge2_Node000002_Node000003" class="edge">
<title>Node2&#45;&gt;Node3</title>
<g id="a_edge2_Node000002_Node000003"><a xlink:title=" ">
<path fill="none" stroke="#63b8ff" d="M261.92,-54.99C239.44,-45.31 209.78,-32.56 187.99,-23.18"/>
<polygon fill="#63b8ff" stroke="#63b8ff" points="189.15,-19.88 178.58,-19.14 186.39,-26.31 189.15,-19.88"/>
</a>
</g>
</g>
<!-- Node4 -->
<g id="Node000004" class="node">
<title>Node4</title>
<g id="a_Node000004"><a xlink:title=" ">
<polygon fill="#e0e0e0" stroke="#999999" points="788.5,-19 738.5,-19 738.5,0 788.5,0 788.5,-19"/>
<text text-anchor="middle" x="763.5" y="-7" font-family="Helvetica,sans-Serif" font-size="10.00">atomic</text>
</a>
</g>
</g>
<!-- Node2&#45;&gt;Node4 -->
<g id="edge3_Node000002_Node000004" class="edge">
<title>Node2&#45;&gt;Node4</title>
<g id="a_edge3_Node000002_Node000004"><a xlink:title=" ">
<path fill="none" stroke="#63b8ff" d="M363.78,-56.28C366.72,-55.83 369.64,-55.4 372.5,-55 527.19,-33.35 570.63,-45.87 728.28,-18.96"/>
<polygon fill="#63b8ff" stroke="#63b8ff" points="729.08,-22.38 738.34,-17.22 727.88,-15.48 729.08,-22.38"/>
</a>
</g>
</g>
<!-- Node5 -->
<g id="Node000005" class="node">
<title>Node5</title>
<g id="a_Node000005"><a xlink:title=" ">
<polygon fill="#e0e0e0" stroke="#999999" points="247.5,-19 197.5,-19 197.5,0 247.5,0 247.5,-19"/>
<text text-anchor="middle" x="222.5" y="-7" font-family="Helvetica,sans-Serif" font-size="10.00">chrono</text>
</a>
</g>
</g>
<!-- Node2&#45;&gt;Node5 -->
<g id="edge4_Node000002_Node000005" class="edge">
<title>Node2&#45;&gt;Node5</title>
<g id="a_edge4_Node000002_Node000005"><a xlink:title=" ">
<path fill="none" stroke="#63b8ff" d="M277.07,-54.84C266.19,-46 252.2,-34.63 241.11,-25.62"/>
<polygon fill="#63b8ff" stroke="#63b8ff" points="243.26,-22.86 233.29,-19.27 238.84,-28.29 243.26,-22.86"/>
</a>
</g>
</g>
<!-- Node6 -->
<g id="Node000006" class="node">
<title>Node6</title>
<g id="a_Node000006"><a xlink:title=" ">
<polygon fill="#e0e0e0" stroke="#999999" points="53,-19 0,-19 0,0 53,0 53,-19"/>
<text text-anchor="middle" x="26.5" y="-7" font-family="Helvetica,sans-Serif" font-size="10.00">cstddef</text>
</a>
</g>
</g>
<!-- Node2&#45;&gt;Node6 -->
<g id="edge5_Node000002_Node000006" class="edge">
<title>Node2&#45;&gt;Node6</title>
<g id="a_edge5_Node000002_Node000006"><a xlink:title=" ">
<path fill="none" stroke="#63b8ff" d="M227.67,-54.96C183.63,-45.62 124.44,-32.92 63.09,-19.1"/>
<polygon fill="#63b8ff" stroke="#63b8ff" points="63.75,-15.66 53.22,-16.87 62.21,-22.49 63.75,-15.66"/>
</a>
</g>
</g>
<!-- Node7 -->
<g id="Node000007" class="node">
<title>Node7</title>
<g id="a_Node000007"><a xlink:title=" ">
<polygon fill="#e0e0e0" stroke="#999999" points="323.5,-19 265.5,-19 265.5,0 323.5,0 323.5,-19"/>
<text text-anchor="middle" x="294.5" y="-7" font-family="Helvetica,sans-Serif" font-size="10.00">memory</text>
</a>
</g>
</g>
<!-- Node2&#45;&gt;Node7 -->
<g id="edge6_Node000002_Node000007" class="edge">
<title>Node2&#45;&gt;Node7</title>
<g id="a_edge6_Node000002_Node000007"><a xlink:title=" ">
<path fill="none" stroke="#63b8ff" d="M294.5,-54.84C294.5,-47.21 294.5,-37.7 294.5,-29.45"/>
<polygon fill="#63b8ff" stroke="#63b8ff" points="298,-29.27 294.5,-19.27 291,-29.27 298,-29.27"/>
</a>
</g>
</g>
<!-- Node2&#45;&gt;Node8 -->
<g id="edge7_Node000002_Node000008" class="edge">
<title>Node2&#45;&gt;Node8</title>
<g id="a_edge7_Node000002_Node000008"><a xlink:title=" ">
<path fill="none" stroke="#63b8ff" d="M246.83,-54.99C210.62,-44.34 161.71,-29.96 129.41,-20.47"/>
<polygon fill="#63b8ff" stroke="#63b8ff" points="130.13,-17.03 119.55,-17.57 128.15,-23.75 130.13,-17.03"/>
</a>
</g>
</g>
<!-- Node9 -->
<g id="Node000009" class="node">
<title>Node9</title>
<g id="a_Node000009"><a xlink:title=" ">
<polygon fill="#e0e0e0" stroke="#999999" points="385.5,-19 341.5,-19 341.5,0 385.5,0 385.5,-19"/>
<text text-anchor="middle" x="363.5" y="-7" font-family="Helvetica,sans-Serif" font-size="10.00">string</text>
</a>
</g>
</g>
<!-- Node2&#45;&gt;Node9 -->
<g id="edge8_Node000002_Node000009" class="edge">
<title>Node2&#45;&gt;Node9</title>
<g id="a_edge8_Node000002_Node000009"><a xlink:title=" ">
<path fill="none" stroke="#63b8ff" d="M311.2,-54.84C321.53,-46.09 334.78,-34.85 345.36,-25.88"/>
<polygon fill="#63b8ff" stroke="#63b8ff" points="347.8,-28.4 353.16,-19.27 343.27,-23.06 347.8,-28.4"/>
</a>
</g>
</g>
<!-- Node10 -->
<g id="Node000010" class="node">
<title>Node10</title>
<g id="a_Node000010"><a xlink:title=" ">
<polygon fill="#e0e0e0" stroke="#999999" points="497,-19 404,-19 404,0 497,0 497,-19"/>
<text text-anchor="middle" x="450.5" y="-7" font-family="Helvetica,sans-Serif" font-size="10.00">unordered_map</text>
</a>
</g>
</g>
<!-- Node2&#45;&gt;Node10 -->
<g id="edge9_Node000002_Node000010" class="edge">
<title>Node2&#45;&gt;Node10</title>
<g id="a_edge9_Node000002_Node000010"><a xlink:title=" ">
<path fill="none" stroke="#63b8ff" d="M331.87,-54.99C358.13,-45.14 392.91,-32.1 418.02,-22.68"/>
<polygon fill="#63b8ff" stroke="#63b8ff" points="419.33,-25.93 427.46,-19.14 416.87,-19.37 419.33,-25.93"/>
</a>
</g>
</g>
<!-- Node11 -->
<g id="Node000011" class="node">
<title>Node11</title>
<g id="a_Node000011"><a xlink:title=" ">
<polygon fill="#e0e0e0" stroke="#999999" points="562,-19 515,-19 515,0 562,0 562,-19"/>
<text text-anchor="middle" x="538.5" y="-7" font-family="Helvetica,sans-Serif" font-size="10.00">vector</text>
</a>
</g>
</g>
<!-- Node2&#45;&gt;Node11 -->
<g id="edge10_Node000002_Node000011" class="edge">
<title>Node2&#45;&gt;Node11</title>
<g id="a_edge10_Node000002_Node000011"><a xlink:title=" ">
<path fill="none" stroke="#63b8ff" d="M356.3,-54.91C396.25,-45.68 449.61,-33.16 504.8,-19.38"/>
<polygon fill="#63b8ff" stroke="#63b8ff" points="505.9,-22.71 514.75,-16.89 504.2,-15.92 505.9,-22.71"/>
</a>
</g>
</g>
<!-- Node12 -->
<g id="Node000012" class="node">
<title>Node12</title>
<g id="a_Node000012"><a xlink:href="visibility_8hpp.html" target="_top" xlink:title=" ">
<polygon fill="white" stroke="#666666" points="720.5,-19 580.5,-19 580.5,0 720.5,0 720.5,-19"/>
<text text-anchor="middle" x="650.5" y="-7" font-family="Helvetica,sans-Serif" font-size="10.00">unilink/base/visibility.hpp</text>
</a>
</g>
</g>
<!-- Node2&#45;&gt;Node12 -->
<g id="edge11_Node000002_Node000012" class="edge">
<title>Node2&#45;&gt;Node12</title>
<g id="a_edge11_Node000002_Node000012"><a xlink:title=" ">
<path fill="none" stroke="#63b8ff" d="M363.81,-56.49C366.75,-55.98 369.65,-55.48 372.5,-55 445.2,-42.66 528.76,-29.41 585.13,-20.61"/>
<polygon fill="#63b8ff" stroke="#63b8ff" points="585.99,-24.02 595.33,-19.02 584.91,-17.1 585.99,-24.02"/>
</a>
</g>
</g>
<!-- Node16&#45;&gt;Node4 -->
<g id="edge17_Node000016_Node000004" class="edge">
<title>Node16&#45;&gt;Node4</title>
<g id="a_edge17_Node000016_Node000004"><a xlink:title=" ">
<path fill="none" stroke="#63b8ff" d="M519.82,-56.56C522.75,-56.03 525.66,-55.51 528.5,-55 614.69,-39.55 639.07,-38.1 728.28,-19.15"/>
<polygon fill="#63b8ff" stroke="#63b8ff" points="729.25,-22.52 738.29,-17 727.78,-15.67 729.25,-22.52"/>
</a>
</g>
</g>
<!-- Node16&#45;&gt;Node5 -->
<g id="edge18_Node000016_Node000005" class="edge">
<title>Node16&#45;&gt;Node5</title>
<g id="a_edge18_Node000016_Node000005"><a xlink:title=" ">
<path fill="none" stroke="#63b8ff" d="M395.89,-54.99C352.9,-43.96 294.28,-28.92 257.41,-19.46"/>
<polygon fill="#63b8ff" stroke="#63b8ff" points="258.18,-16.04 247.62,-16.95 256.44,-22.82 258.18,-16.04"/>
</a>
</g>
</g>
<!-- Node16&#45;&gt;Node7 -->
<g id="edge19_Node000016_Node000007" class="edge">
<title>Node16&#45;&gt;Node7</title>
<g id="a_edge19_Node000016_Node000007"><a xlink:title=" ">
<path fill="none" stroke="#63b8ff" d="M413.13,-54.99C386.87,-45.14 352.09,-32.1 326.98,-22.68"/>
<polygon fill="#63b8ff" stroke="#63b8ff" points="328.13,-19.37 317.54,-19.14 325.67,-25.93 328.13,-19.37"/>
</a>
</g>
</g>
<!-- Node16&#45;&gt;Node8 -->
<g id="edge20_Node000016_Node000008" class="edge">
<title>Node16&#45;&gt;Node8</title>
<g id="a_edge20_Node000016_Node000008"><a xlink:title=" ">
<path fill="none" stroke="#63b8ff" d="M381.2,-56.45C378.26,-55.95 375.35,-55.47 372.5,-55 267.49,-37.83 237.68,-40.52 129.59,-19.03"/>
<polygon fill="#63b8ff" stroke="#63b8ff" points="130.08,-15.56 119.58,-17.02 128.7,-22.42 130.08,-15.56"/>
</a>
</g>
</g>
<!-- Node16&#45;&gt;Node9 -->
<g id="edge21_Node000016_Node000009" class="edge">
<title>Node16&#45;&gt;Node9</title>
<g id="a_edge21_Node000016_Node000009"><a xlink:title=" ">
<path fill="none" stroke="#63b8ff" d="M429.44,-54.84C415.96,-45.77 398.51,-34.04 384.95,-24.92"/>
<polygon fill="#63b8ff" stroke="#63b8ff" points="386.53,-21.77 376.28,-19.09 382.63,-27.58 386.53,-21.77"/>
</a>
</g>
</g>
<!-- Node16&#45;&gt;Node10 -->
<g id="edge22_Node000016_Node000010" class="edge">
<title>Node16&#45;&gt;Node10</title>
<g id="a_edge22_Node000016_Node000010"><a xlink:title=" ">
<path fill="none" stroke="#63b8ff" d="M450.5,-54.84C450.5,-47.21 450.5,-37.7 450.5,-29.45"/>
<polygon fill="#63b8ff" stroke="#63b8ff" points="454,-29.27 450.5,-19.27 447,-29.27 454,-29.27"/>
</a>
</g>
</g>
<!-- Node16&#45;&gt;Node11 -->
<g id="edge23_Node000016_Node000011" class="edge">
<title>Node16&#45;&gt;Node11</title>
<g id="a_edge23_Node000016_Node000011"><a xlink:title=" ">
<path fill="none" stroke="#63b8ff" d="M471.8,-54.84C485.57,-45.68 503.43,-33.82 517.2,-24.66"/>
<polygon fill="#63b8ff" stroke="#63b8ff" points="519.18,-27.55 525.57,-19.09 515.31,-21.72 519.18,-27.55"/>
</a>
</g>
</g>
<!-- Node16&#45;&gt;Node12 -->
<g id="edge24_Node000016_Node000012" class="edge">
<title>Node16&#45;&gt;Node12</title>
<g id="a_edge24_Node000016_Node000012"><a xlink:title=" ">
<path fill="none" stroke="#63b8ff" d="M498.4,-54.99C532.92,-44.89 578.92,-31.44 611.27,-21.98"/>
<polygon fill="#63b8ff" stroke="#63b8ff" points="612.64,-25.22 621.26,-19.05 610.68,-18.5 612.64,-25.22"/>
</a>
</g>
</g>
</g>
</svg>
