<?xml version="1.0" encoding="UTF-8" standalone="no"?>
<!DOCTYPE svg PUBLIC "-//W3C//DTD SVG 1.1//EN"
 "http://www.w3.org/Graphics/SVG/1.1/DTD/svg11.dtd">
<!-- Generated by graphviz version 2.43.0 (0)
 -->
<!-- Title: unilink::base::log_message Pages: 1 -->
<svg width="751pt" height="86pt"
 viewBox="0.00 0.00 751.00 86.00" xmlns="http://www.w3.org/2000/svg" xmlns:xlink="http://www.w3.org/1999/xlink">
<g id="graph0" class="graph" transform="scale(1 1) rotate(0) translate(4 82)">
<title>unilink::base::log_message</title>
<!-- Node1 -->
<g id="Node000001" class="node">
<title>Node1</title>
<g id="a_Node000001"><a xlink:title=" ">
<polygon fill="#999999" stroke="#666666" points="100,-54 0,-54 0,-24 100,-24 100,-54"/>
<text text-anchor="start" x="8" y="-42" font-family="Helvetica,sans-Serif" font-size="10.00">unilink::base::log</text>
<text text-anchor="middle" x="50" y="-31" font-family="Helvetica,sans-Serif" font-size="10.00">_message</text>
</a>
</g>
</g>
<!-- Node2 -->
<g id="Node000002" class="node">
<title>Node2</title>
<g id="a_Node000002"><a xlink:href="classunilink_1_1diagnostics_1_1Logger.html#ab1b4af7b4170551f3f9813100f46295e" target="_top" xlink:title=" ">
<polygon fill="white" stroke="#666666" points="247,-78 136,-78 136,-48 247,-48 247,-78"/>
<text text-anchor="start" x="144" y="-66" font-family="Helvetica,sans-Serif" font-size="10.00">unilink::diagnostics</text>
<text text-anchor="middle" x="191.5" y="-55" font-family="Helvetica,sans-Serif" font-size="10.00">::Logger::info</text>
</a>
</g>
</g>
<!-- Node1&#45;&gt;Node2 -->
<g id="edge1_Node000001_Node000002" class="edge">
<title>Node1&#45;&gt;Node2</title>
<g id="a_edge1_Node000001_Node000002"><a xlink:title=" ">
<path fill="none" stroke="#63b8ff" d="M100.18,-47.46C108.41,-48.88 117.07,-50.37 125.62,-51.84"/>
<polygon fill="#63b8ff" stroke="#63b8ff" points="125.13,-55.31 135.58,-53.55 126.32,-48.41 125.13,-55.31"/>
</a>
</g>
</g>
<!-- Node6 -->
<g id="Node000006" class="node">
<title>Node6</title>
<g id="a_Node000006"><a xlink:href="classunilink_1_1diagnostics_1_1Logger.html#a2e114f7695d5aac3b9a993be97c501c9" target="_top" xlink:title="Get singleton instance.">
<polygon fill="white" stroke="#666666" points="247,-30 136,-30 136,0 247,0 247,-30"/>
<text text-anchor="start" x="144" y="-18" font-family="Helvetica,sans-Serif" font-size="10.00">unilink::diagnostics</text>
<text text-anchor="middle" x="191.5" y="-7" font-family="Helvetica,sans-Serif" font-size="10.00">::Logger::instance</text>
</a>
</g>
</g>
<!-- Node1&#45;&gt;Node6 -->
<g id="edge6_Node000001_Node000006" class="edge">
<title>Node1&#45;&gt;Node6</title>
<g id="a_edge6_Node000001_Node000006"><a xlink:title=" ">
<path fill="none" stroke="#63b8ff" d="M100.18,-30.54C108.41,-29.12 117.07,-27.63 125.62,-26.16"/>
<polygon fill="#63b8ff" stroke="#63b8ff" points="126.32,-29.59 135.58,-24.45 125.13,-22.69 126.32,-29.59"/>
</a>
</g>
</g>
<!-- Node3 -->
<g id="Node000003" class="node">
<title>Node3</title>
<g id="a_Node000003"><a xlink:href="classunilink_1_1diagnostics_1_1Logger.html#aadd090ffcd9a4854e599a4c3225f1db5" target="_top" xlink:title=" ">
<polygon fill="white" stroke="#666666" points="394,-78 283,-78 283,-48 394,-48 394,-78"/>
<text text-anchor="start" x="291" y="-66" font-family="Helvetica,sans-Serif" font-size="10.00">unilink::diagnostics</text>
<text text-anchor="middle" x="338.5" y="-55" font-family="Helvetica,sans-Serif" font-size="10.00">::Logger::log</text>
</a>
</g>
</g>
<!-- Node2&#45;&gt;Node3 -->
<g id="edge2_Node000002_Node000003" class="edge">
<title>Node2&#45;&gt;Node3</title>
<g id="a_edge2_Node000002_Node000003"><a xlink:title=" ">
<path fill="none" stroke="#63b8ff" d="M247.32,-63C255.53,-63 264.06,-63 272.46,-63"/>
<polygon fill="#63b8ff" stroke="#63b8ff" points="272.6,-66.5 282.6,-63 272.6,-59.5 272.6,-66.5"/>
</a>
</g>
</g>
<!-- Node4 -->
<g id="Node000004" class="node">
<title>Node4</title>
<g id="a_Node000004"><a xlink:href="classunilink_1_1diagnostics_1_1Logger.html#a4a88b05c250af04b01f2a3d94473d0e3" target="_top" xlink:title="Get current log level.">
<polygon fill="white" stroke="#666666" points="743,-78 632,-78 632,-48 743,-48 743,-78"/>
<text text-anchor="start" x="640" y="-66" font-family="Helvetica,sans-Serif" font-size="10.00">unilink::diagnostics</text>
<text text-anchor="middle" x="687.5" y="-55" font-family="Helvetica,sans-Serif" font-size="10.00">::Logger::level</text>
</a>
</g>
</g>
<!-- Node3&#45;&gt;Node4 -->
<g id="edge3_Node000003_Node000004" class="edge">
<title>Node3&#45;&gt;Node4</title>
<g id="a_edge3_Node000003_Node000004"><a xlink:title=" ">
<path fill="none" stroke="#63b8ff" d="M394.05,-65.1C405.9,-65.48 418.37,-65.81 430,-66 503.77,-67.22 522.23,-67.22 596,-66 604.36,-65.86 613.15,-65.65 621.84,-65.4"/>
<polygon fill="#63b8ff" stroke="#63b8ff" points="622.06,-68.9 631.95,-65.1 621.85,-61.9 622.06,-68.9"/>
</a>
</g>
</g>
<!-- Node5 -->
<g id="Node000005" class="node">
<title>Node5</title>
<g id="a_Node000005"><a xlink:href="structunilink_1_1diagnostics_1_1Logger_1_1Impl.html#a9be6d32b91caf51b6ed1e6c7ccaec4b8" target="_top" xlink:title=" ">
<polygon fill="white" stroke="#666666" points="596,-57 430,-57 430,-27 596,-27 596,-57"/>
<text text-anchor="start" x="438" y="-45" font-family="Helvetica,sans-Serif" font-size="10.00">unilink::diagnostics</text>
<text text-anchor="middle" x="513" y="-34" font-family="Helvetica,sans-Serif" font-size="10.00">::Logger::Impl::to_spdlog_level</text>
</a>
</g>
</g>
<!-- Node3&#45;&gt;Node5 -->
<g id="edge4_Node000003_Node000005" class="edge">
<title>Node3&#45;&gt;Node5</title>
<g id="a_edge4_Node000003_Node000005"><a xlink:title=" ">
<path fill="none" stroke="#63b8ff" d="M394.08,-56.36C402.33,-55.35 411.02,-54.29 419.8,-53.22"/>
<polygon fill="#63b8ff" stroke="#63b8ff" points="420.22,-56.7 429.73,-52.02 419.38,-49.75 420.22,-56.7"/>
</a>
</g>
</g>
<!-- Node5&#45;&gt;Node4 -->
<g id="edge5_Node000005_Node000004" class="edge">
<title>Node5&#45;&gt;Node4</title>
<g id="a_edge5_Node000005_Node000004"><a xlink:title=" ">
<path fill="none" stroke="#63b8ff" d="M596.21,-52.01C604.72,-53.04 613.29,-54.09 621.57,-55.1"/>
<polygon fill="#63b8ff" stroke="#63b8ff" points="621.17,-58.57 631.52,-56.31 622.02,-51.62 621.17,-58.57"/>
</a>
</g>
</g>
</g>
</svg>
