<?xml version="1.0" encoding="UTF-8" standalone="no"?>
<!DOCTYPE svg PUBLIC "-//W3C//DTD SVG 1.1//EN"
 "http://www.w3.org/Graphics/SVG/1.1/DTD/svg11.dtd">
<!-- Generated by graphviz version 2.43.0 (0)
 -->
<!-- Title: unilink::base::safe_convert::uint8_to_string Pages: 1 -->
<!--zoomable 854 -->

<svg id="main" version="1.1" xmlns="http://www.w3.org/2000/svg" xmlns:xlink="http://www.w3.org/1999/xlink" xml:space="preserve" onload="init(evt)">
<style type="text/css"><![CDATA[
.node, .edge {opacity: 0.7;}
.node.selected, .edge.selected {opacity: 1;}
.edge:hover path { stroke: red; }
.edge:hover polygon { stroke: red; fill: red; }
]]></style>

<defs>
  <circle id="rim" cx="0" cy="0" r="7"/>
  <circle id="rim2" cx="0" cy="0" r="3.5"/>
  <g id="zoomPlus">
    <use xlink:href="#rim" fill="#404040"><set attributeName="fill" to="#808080" begin="zoomplus.mouseover" end="zoomplus.mouseout"/></use>
    <path d="M-4,0h8M0,-4v8" fill="none" stroke="white" stroke-width="1.5" pointer-events="none"/>
  </g>
  <g id="zoomMin">
    <use xlink:href="#rim" fill="#404040"><set attributeName="fill" to="#808080" begin="zoomminus.mouseover" end="zoomminus.mouseout"/></use>
    <path d="M-4,0h8" fill="none" stroke="white" stroke-width="1.5" pointer-events="none"/>
  </g>
  <g id="arrowUp" transform="translate(30 24)">
    <use xlink:href="#rim"/>
    <path pointer-events="none" fill="none" stroke="white" stroke-width="1.5" d="M0,-3.0v7 M-2.5,-0.5L0,-3.0L2.5,-0.5"/>
  </g>
  <g id="arrowRight" transform="rotate(90) translate(36 -43)">
    <use xlink:href="#rim"/>
    <path pointer-events="none" fill="none" stroke="white" stroke-width="1.5" d="M0,-3.0v7 M-2.5,-0.5L0,-3.0L2.5,-0.5"/>
  </g>
  <g id="arrowDown" transform="rotate(180) translate(-30 -48)">
    <use xlink:href="#rim"/>
    <path pointer-events="none" fill="none" stroke="white" stroke-width="1.5" d="M0,-3.0v7 M-2.5,-0.5L0,-3.0L2.5,-0.5"/>
  </g>
  <g id="arrowLeft" transform="rotate(270) translate(-36 17)">
    <use xlink:href="#rim"/>
    <path pointer-events="none" fill="none" stroke="white" stroke-width="1.5" d="M0,-3.0v7 M-2.5,-0.5L0,-3.0L2.5,-0.5"/>
  </g>
  <g id="resetDef">
    <use xlink:href="#rim2" fill="#404040"><set attributeName="fill" to="#808080" begin="reset.mouseover" end="reset.mouseout"/></use>
  </g>
</defs>
<script type="application/ecmascript">
var viewWidth = 536;
var viewHeight = 854;
var sectionId = 'dynsection-1';
</script>
<script type="application/ecmascript" xlink:href="svg.min.js"/>
<svg id="graph" class="graph">
<g id="viewport">
<title>unilink::base::safe_convert::uint8_to_string</title>
<!-- Node1 -->
<g id="Node000001" class="node">
<title>Node1</title>
<g id="a_Node000001"><a xlink:title="Safely convert uint8_t* to const char* for string operations.">
<polygon fill="#999999" stroke="#666666" points="528,-480 391,-480 391,-450 528,-450 528,-480"/>
<text text-anchor="start" x="399" y="-468" font-family="Helvetica,sans-Serif" font-size="10.00">unilink::base::safe</text>
<text text-anchor="middle" x="459.5" y="-457" font-family="Helvetica,sans-Serif" font-size="10.00">_convert::uint8_to_string</text>
</a>
</g>
</g>
<!-- Node2 -->
<g id="Node000002" class="node">
<title>Node2</title>
<g id="a_Node000002"><a xlink:href="structunilink_1_1wrapper_1_1Serial_1_1Impl.html#a0322ca1987cff30ecb38f0873053bacc" target="_top" xlink:title=" ">
<polygon fill="white" stroke="#666666" points="354,-798 189,-798 189,-768 354,-768 354,-798"/>
<text text-anchor="start" x="197" y="-786" font-family="Helvetica,sans-Serif" font-size="10.00">unilink::wrapper::Serial</text>
<text text-anchor="middle" x="271.5" y="-775" font-family="Helvetica,sans-Serif" font-size="10.00">::Impl::attach_framer_callback</text>
</a>
</g>
</g>
<!-- Node1&#45;&gt;Node2 -->
<g id="edge1_Node000001_Node000002" class="edge">
<title>Node1&#45;&gt;Node2</title>
<g id="a_edge1_Node000001_Node000002"><a xlink:title=" ">
<path fill="none" stroke="#63b8ff" d="M454.62,-490.15C445.57,-541.54 418.78,-660.04 355,-735 342.97,-749.14 325.68,-760.09 310.03,-767.94"/>
<polygon fill="#63b8ff" stroke="#63b8ff" points="458.08,-490.69 456.29,-480.24 451.18,-489.52 458.08,-490.69"/>
</a>
</g>
</g>
<!-- Node5 -->
<g id="Node000005" class="node">
<title>Node5</title>
<g id="a_Node000005"><a xlink:href="structunilink_1_1wrapper_1_1TcpClient_1_1Impl.html#a6193e6eced480d2e35e09f8a8aaf3ede" target="_top" xlink:title=" ">
<polygon fill="white" stroke="#666666" points="354,-726 189,-726 189,-696 354,-696 354,-726"/>
<text text-anchor="start" x="197" y="-714" font-family="Helvetica,sans-Serif" font-size="10.00">unilink::wrapper::TcpClient</text>
<text text-anchor="middle" x="271.5" y="-703" font-family="Helvetica,sans-Serif" font-size="10.00">::Impl::attach_framer_callback</text>
</a>
</g>
</g>
<!-- Node1&#45;&gt;Node5 -->
<g id="edge4_Node000001_Node000005" class="edge">
<title>Node1&#45;&gt;Node5</title>
<g id="a_edge4_Node000001_Node000005"><a xlink:title=" ">
<path fill="none" stroke="#63b8ff" d="M453.82,-490.32C443.97,-536.4 416.71,-634.08 355,-687 351.04,-690.4 346.62,-693.32 341.93,-695.82"/>
<polygon fill="#63b8ff" stroke="#63b8ff" points="457.3,-490.78 455.86,-480.28 450.44,-489.38 457.3,-490.78"/>
</a>
</g>
</g>
<!-- Node6 -->
<g id="Node000006" class="node">
<title>Node6</title>
<g id="a_Node000006"><a xlink:href="structunilink_1_1wrapper_1_1UdpClient_1_1Impl.html#a2efdb2ae4eab24161d8c0adee210b83d" target="_top" xlink:title=" ">
<polygon fill="white" stroke="#666666" points="354,-678 189,-678 189,-648 354,-648 354,-678"/>
<text text-anchor="start" x="197" y="-666" font-family="Helvetica,sans-Serif" font-size="10.00">unilink::wrapper::UdpClient</text>
<text text-anchor="middle" x="271.5" y="-655" font-family="Helvetica,sans-Serif" font-size="10.00">::Impl::attach_framer_callback</text>
</a>
</g>
</g>
<!-- Node1&#45;&gt;Node6 -->
<g id="edge5_Node000001_Node000006" class="edge">
<title>Node1&#45;&gt;Node6</title>
<g id="a_edge5_Node000001_Node000006"><a xlink:title=" ">
<path fill="none" stroke="#63b8ff" d="M446.15,-489.3C429.04,-521.16 395.61,-577.41 355,-615 340.53,-628.4 321.69,-639.71 305.66,-647.98"/>
<polygon fill="#63b8ff" stroke="#63b8ff" points="449.35,-490.72 450.92,-480.24 443.16,-487.46 449.35,-490.72"/>
</a>
</g>
</g>
<!-- Node9 -->
<g id="Node000009" class="node">
<title>Node9</title>
<g id="a_Node000009"><a xlink:href="structunilink_1_1wrapper_1_1UdsClient_1_1Impl.html#a1219fcefa0378c01eabd2d4af00bcd5f" target="_top" xlink:title=" ">
<polygon fill="white" stroke="#666666" points="354,-606 189,-606 189,-576 354,-576 354,-606"/>
<text text-anchor="start" x="197" y="-594" font-family="Helvetica,sans-Serif" font-size="10.00">unilink::wrapper::UdsClient</text>
<text text-anchor="middle" x="271.5" y="-583" font-family="Helvetica,sans-Serif" font-size="10.00">::Impl::attach_framer_callback</text>
</a>
</g>
</g>
<!-- Node1&#45;&gt;Node9 -->
<g id="edge8_Node000001_Node000009" class="edge">
<title>Node1&#45;&gt;Node9</title>
<g id="a_edge8_Node000001_Node000009"><a xlink:title=" ">
<path fill="none" stroke="#63b8ff" d="M437.8,-487.7C418.1,-508.24 386.83,-538.21 355,-558 343.73,-565 330.73,-571.03 318.42,-575.94"/>
<polygon fill="#63b8ff" stroke="#63b8ff" points="440.43,-490.01 444.75,-480.34 435.34,-485.2 440.43,-490.01"/>
</a>
</g>
</g>
<!-- Node12 -->
<g id="Node000012" class="node">
<title>Node12</title>
<g id="a_Node000012"><a xlink:href="structunilink_1_1wrapper_1_1Serial_1_1Impl.html#a9e6722cf4e4dbee24492d3f3e2c0a894" target="_top" xlink:title=" ">
<polygon fill="white" stroke="#666666" points="336,-548.5 207,-548.5 207,-507.5 336,-507.5 336,-548.5"/>
<text text-anchor="start" x="215" y="-536.5" font-family="Helvetica,sans-Serif" font-size="10.00">unilink::wrapper::Serial</text>
<text text-anchor="start" x="215" y="-525.5" font-family="Helvetica,sans-Serif" font-size="10.00">::Impl::setup_internal</text>
<text text-anchor="middle" x="271.5" y="-514.5" font-family="Helvetica,sans-Serif" font-size="10.00">_handlers</text>
</a>
</g>
</g>
<!-- Node1&#45;&gt;Node12 -->
<g id="edge11_Node000001_Node000012" class="edge">
<title>Node1&#45;&gt;Node12</title>
<g id="a_edge11_Node000001_Node000012"><a xlink:title=" ">
<path fill="none" stroke="#63b8ff" d="M404.32,-483.35C382.03,-490.9 356.13,-499.67 333.21,-507.44"/>
<polygon fill="#63b8ff" stroke="#63b8ff" points="405.6,-486.61 413.95,-480.09 403.35,-479.98 405.6,-486.61"/>
</a>
</g>
</g>
<!-- Node14 -->
<g id="Node000014" class="node">
<title>Node14</title>
<g id="a_Node000014"><a xlink:href="structunilink_1_1wrapper_1_1TcpClient_1_1Impl.html#a71ca6976f08b07bfb8fdc6c17d84aae5" target="_top" xlink:title=" ">
<polygon fill="white" stroke="#666666" points="355,-480 188,-480 188,-450 355,-450 355,-480"/>
<text text-anchor="start" x="196" y="-468" font-family="Helvetica,sans-Serif" font-size="10.00">unilink::wrapper::TcpClient</text>
<text text-anchor="middle" x="271.5" y="-457" font-family="Helvetica,sans-Serif" font-size="10.00">::Impl::setup_internal_handlers</text>
</a>
</g>
</g>
<!-- Node1&#45;&gt;Node14 -->
<g id="edge13_Node000001_Node000014" class="edge">
<title>Node1&#45;&gt;Node14</title>
<g id="a_edge13_Node000001_Node000014"><a xlink:title=" ">
<path fill="none" stroke="#63b8ff" d="M380.61,-465C372.15,-465 363.52,-465 355.01,-465"/>
<polygon fill="#63b8ff" stroke="#63b8ff" points="380.82,-468.5 390.82,-465 380.82,-461.5 380.82,-468.5"/>
</a>
</g>
</g>
<!-- Node17 -->
<g id="Node000017" class="node">
<title>Node17</title>
<g id="a_Node000017"><a xlink:href="structunilink_1_1wrapper_1_1TcpServer_1_1Impl.html#afa02bec7c4ffe754aa0a8b2da4f135a5" target="_top" xlink:title=" ">
<polygon fill="white" stroke="#666666" points="355,-414 188,-414 188,-384 355,-384 355,-414"/>
<text text-anchor="start" x="196" y="-402" font-family="Helvetica,sans-Serif" font-size="10.00">unilink::wrapper::TcpServer</text>
<text text-anchor="middle" x="271.5" y="-391" font-family="Helvetica,sans-Serif" font-size="10.00">::Impl::setup_internal_handlers</text>
</a>
</g>
</g>
<!-- Node1&#45;&gt;Node17 -->
<g id="edge16_Node000001_Node000017" class="edge">
<title>Node1&#45;&gt;Node17</title>
<g id="a_edge16_Node000001_Node000017"><a xlink:title=" ">
<path fill="none" stroke="#63b8ff" d="M406.32,-446.48C377.48,-436.25 342.11,-423.7 314.97,-414.07"/>
<polygon fill="#63b8ff" stroke="#63b8ff" points="405.23,-449.81 415.83,-449.86 407.57,-443.22 405.23,-449.81"/>
</a>
</g>
</g>
<!-- Node20 -->
<g id="Node000020" class="node">
<title>Node20</title>
<g id="a_Node000020"><a xlink:href="structunilink_1_1wrapper_1_1UdpClient_1_1Impl.html#aa1a0c025a484dbf87dc9c0c69342870b" target="_top" xlink:title=" ">
<polygon fill="white" stroke="#666666" points="355,-342 188,-342 188,-312 355,-312 355,-342"/>
<text text-anchor="start" x="196" y="-330" font-family="Helvetica,sans-Serif" font-size="10.00">unilink::wrapper::UdpClient</text>
<text text-anchor="middle" x="271.5" y="-319" font-family="Helvetica,sans-Serif" font-size="10.00">::Impl::setup_internal_handlers</text>
</a>
</g>
</g>
<!-- Node1&#45;&gt;Node20 -->
<g id="edge19_Node000001_Node000020" class="edge">
<title>Node1&#45;&gt;Node20</title>
<g id="a_edge19_Node000001_Node000020"><a xlink:title=" ">
<path fill="none" stroke="#63b8ff" d="M435.64,-442.88C415.34,-423.79 384.4,-396.05 355,-375 338.02,-362.85 317.77,-351.03 301.58,-342.16"/>
<polygon fill="#63b8ff" stroke="#63b8ff" points="433.47,-445.65 443.14,-449.99 438.29,-440.57 433.47,-445.65"/>
</a>
</g>
</g>
<!-- Node22 -->
<g id="Node000022" class="node">
<title>Node22</title>
<g id="a_Node000022"><a xlink:href="structunilink_1_1wrapper_1_1UdpServer_1_1Impl.html#acc6c86c0987b2e7097c779d03fc009f8" target="_top" xlink:title=" ">
<polygon fill="white" stroke="#666666" points="355,-270 188,-270 188,-240 355,-240 355,-270"/>
<text text-anchor="start" x="196" y="-258" font-family="Helvetica,sans-Serif" font-size="10.00">unilink::wrapper::UdpServer</text>
<text text-anchor="middle" x="271.5" y="-247" font-family="Helvetica,sans-Serif" font-size="10.00">::Impl::setup_internal_handlers</text>
</a>
</g>
</g>
<!-- Node1&#45;&gt;Node22 -->
<g id="edge21_Node000001_Node000022" class="edge">
<title>Node1&#45;&gt;Node22</title>
<g id="a_edge21_Node000001_Node000022"><a xlink:title=" ">
<path fill="none" stroke="#63b8ff" d="M447.58,-440.72C431.31,-406.65 397.97,-344.22 355,-303 340.89,-289.46 322.26,-278.21 306.27,-270.01"/>
<polygon fill="#63b8ff" stroke="#63b8ff" points="444.48,-442.36 451.89,-449.94 450.82,-439.4 444.48,-442.36"/>
</a>
</g>
</g>
<!-- Node25 -->
<g id="Node000025" class="node">
<title>Node25</title>
<g id="a_Node000025"><a xlink:href="structunilink_1_1wrapper_1_1UdsClient_1_1Impl.html#a5b0bd183417b37282ed9131737ecf8ae" target="_top" xlink:title=" ">
<polygon fill="white" stroke="#666666" points="355,-174 188,-174 188,-144 355,-144 355,-174"/>
<text text-anchor="start" x="196" y="-162" font-family="Helvetica,sans-Serif" font-size="10.00">unilink::wrapper::UdsClient</text>
<text text-anchor="middle" x="271.5" y="-151" font-family="Helvetica,sans-Serif" font-size="10.00">::Impl::setup_internal_handlers</text>
</a>
</g>
</g>
<!-- Node1&#45;&gt;Node25 -->
<g id="edge24_Node000001_Node000025" class="edge">
<title>Node1&#45;&gt;Node25</title>
<g id="a_edge24_Node000001_Node000025"><a xlink:title=" ">
<path fill="none" stroke="#63b8ff" d="M451.44,-440.09C437.91,-395.19 405.12,-299.05 355,-231 338.09,-208.04 312.67,-187.27 294.52,-174"/>
<polygon fill="#63b8ff" stroke="#63b8ff" points="448.14,-441.26 454.33,-449.86 454.85,-439.27 448.14,-441.26"/>
</a>
</g>
</g>
<!-- Node28 -->
<g id="Node000028" class="node">
<title>Node28</title>
<g id="a_Node000028"><a xlink:href="structunilink_1_1wrapper_1_1UdsServer_1_1Impl.html#a10ed4dde741e2d4077f3df717d38cde5" target="_top" xlink:title=" ">
<polygon fill="white" stroke="#666666" points="355,-78 188,-78 188,-48 355,-48 355,-78"/>
<text text-anchor="start" x="196" y="-66" font-family="Helvetica,sans-Serif" font-size="10.00">unilink::wrapper::UdsServer</text>
<text text-anchor="middle" x="271.5" y="-55" font-family="Helvetica,sans-Serif" font-size="10.00">::Impl::setup_internal_handlers</text>
</a>
</g>
</g>
<!-- Node1&#45;&gt;Node28 -->
<g id="edge27_Node000001_Node000028" class="edge">
<title>Node1&#45;&gt;Node28</title>
<g id="a_edge27_Node000001_Node000028"><a xlink:title=" ">
<path fill="none" stroke="#63b8ff" d="M455.36,-439.88C447.17,-381.91 421.01,-236.07 355,-135 339.61,-111.44 314.44,-91.06 295.95,-78.05"/>
<polygon fill="#63b8ff" stroke="#63b8ff" points="451.92,-440.51 456.73,-449.95 458.86,-439.57 451.92,-440.51"/>
</a>
</g>
</g>
<!-- Node3 -->
<g id="Node000003" class="node">
<title>Node3</title>
<g id="a_Node000003"><a xlink:href="structunilink_1_1wrapper_1_1Serial_1_1Impl.html#a214c3e2dc0880150308c36e23165e708" target="_top" xlink:title=" ">
<polygon fill="white" stroke="#666666" points="140.5,-846 11.5,-846 11.5,-816 140.5,-816 140.5,-846"/>
<text text-anchor="start" x="19.5" y="-834" font-family="Helvetica,sans-Serif" font-size="10.00">unilink::wrapper::Serial</text>
<text text-anchor="middle" x="76" y="-823" font-family="Helvetica,sans-Serif" font-size="10.00">::Impl::on_message</text>
</a>
</g>
</g>
<!-- Node2&#45;&gt;Node3 -->
<g id="edge2_Node000002_Node000003" class="edge">
<title>Node2&#45;&gt;Node3</title>
<g id="a_edge2_Node000002_Node000003"><a xlink:title=" ">
<path fill="none" stroke="#63b8ff" d="M199.91,-800.51C179.44,-805.59 157.27,-811.09 137.48,-816"/>
<polygon fill="#63b8ff" stroke="#63b8ff" points="200.94,-803.86 209.81,-798.06 199.26,-797.07 200.94,-803.86"/>
</a>
</g>
</g>
<!-- Node4 -->
<g id="Node000004" class="node">
<title>Node4</title>
<g id="a_Node000004"><a xlink:href="structunilink_1_1wrapper_1_1Serial_1_1Impl.html#a0015c7ce9f070aafd15ac10c677b8ab8" target="_top" xlink:title=" ">
<polygon fill="white" stroke="#666666" points="140.5,-798 11.5,-798 11.5,-768 140.5,-768 140.5,-798"/>
<text text-anchor="start" x="19.5" y="-786" font-family="Helvetica,sans-Serif" font-size="10.00">unilink::wrapper::Serial</text>
<text text-anchor="middle" x="76" y="-775" font-family="Helvetica,sans-Serif" font-size="10.00">::Impl::set_framer</text>
</a>
</g>
</g>
<!-- Node2&#45;&gt;Node4 -->
<g id="edge3_Node000002_Node000004" class="edge">
<title>Node2&#45;&gt;Node4</title>
<g id="a_edge3_Node000002_Node000004"><a xlink:title=" ">
<path fill="none" stroke="#63b8ff" d="M178.74,-783C165.9,-783 152.94,-783 140.77,-783"/>
<polygon fill="#63b8ff" stroke="#63b8ff" points="179,-786.5 189,-783 179,-779.5 179,-786.5"/>
</a>
</g>
</g>
<!-- Node7 -->
<g id="Node000007" class="node">
<title>Node7</title>
<g id="a_Node000007"><a xlink:href="structunilink_1_1wrapper_1_1UdpClient_1_1Impl.html#ab5f876cfbacc69128f6de2619023286e" target="_top" xlink:title=" ">
<polygon fill="white" stroke="#666666" points="150.5,-750 1.5,-750 1.5,-720 150.5,-720 150.5,-750"/>
<text text-anchor="start" x="9.5" y="-738" font-family="Helvetica,sans-Serif" font-size="10.00">unilink::wrapper::UdpClient</text>
<text text-anchor="middle" x="76" y="-727" font-family="Helvetica,sans-Serif" font-size="10.00">::Impl::on_message</text>
</a>
</g>
</g>
<!-- Node6&#45;&gt;Node7 -->
<g id="edge6_Node000006_Node000007" class="edge">
<title>Node6&#45;&gt;Node7</title>
<g id="a_edge6_Node000006_Node000007"><a xlink:title=" ">
<path fill="none" stroke="#63b8ff" d="M201.25,-681.43C196.71,-683.16 192.26,-685.02 188,-687 170.57,-695.11 169.32,-702.66 152,-711 145.23,-714.26 137.9,-717.23 130.57,-719.88"/>
<polygon fill="#63b8ff" stroke="#63b8ff" points="202.44,-684.72 210.67,-678.05 200.07,-678.14 202.44,-684.72"/>
</a>
</g>
</g>
<!-- Node8 -->
<g id="Node000008" class="node">
<title>Node8</title>
<g id="a_Node000008"><a xlink:href="structunilink_1_1wrapper_1_1UdpClient_1_1Impl.html#ad433e6e6ad1872781b3cf94eda658c3f" target="_top" xlink:title=" ">
<polygon fill="white" stroke="#666666" points="150.5,-702 1.5,-702 1.5,-672 150.5,-672 150.5,-702"/>
<text text-anchor="start" x="9.5" y="-690" font-family="Helvetica,sans-Serif" font-size="10.00">unilink::wrapper::UdpClient</text>
<text text-anchor="middle" x="76" y="-679" font-family="Helvetica,sans-Serif" font-size="10.00">::Impl::set_framer</text>
</a>
</g>
</g>
<!-- Node6&#45;&gt;Node8 -->
<g id="edge7_Node000006_Node000008" class="edge">
<title>Node6&#45;&gt;Node8</title>
<g id="a_edge7_Node000006_Node000008"><a xlink:title=" ">
<path fill="none" stroke="#63b8ff" d="M178.82,-674.37C169.39,-675.54 159.91,-676.72 150.71,-677.86"/>
<polygon fill="#63b8ff" stroke="#63b8ff" points="179.51,-677.81 189,-673.11 178.64,-670.87 179.51,-677.81"/>
</a>
</g>
</g>
<!-- Node10 -->
<g id="Node000010" class="node">
<title>Node10</title>
<g id="a_Node000010"><a xlink:href="structunilink_1_1wrapper_1_1UdsClient_1_1Impl.html#a71d3a071e7576339bec3c5229187d869" target="_top" xlink:title=" ">
<polygon fill="white" stroke="#666666" points="150.5,-654 1.5,-654 1.5,-624 150.5,-624 150.5,-654"/>
<text text-anchor="start" x="9.5" y="-642" font-family="Helvetica,sans-Serif" font-size="10.00">unilink::wrapper::UdsClient</text>
<text text-anchor="middle" x="76" y="-631" font-family="Helvetica,sans-Serif" font-size="10.00">::Impl::on_message</text>
</a>
</g>
</g>
<!-- Node9&#45;&gt;Node10 -->
<g id="edge9_Node000009_Node000010" class="edge">
<title>Node9&#45;&gt;Node10</title>
<g id="a_edge9_Node000009_Node000010"><a xlink:title=" ">
<path fill="none" stroke="#63b8ff" d="M199.91,-608.51C179.44,-613.59 157.27,-619.09 137.48,-624"/>
<polygon fill="#63b8ff" stroke="#63b8ff" points="200.94,-611.86 209.81,-606.06 199.26,-605.07 200.94,-611.86"/>
</a>
</g>
</g>
<!-- Node11 -->
<g id="Node000011" class="node">
<title>Node11</title>
<g id="a_Node000011"><a xlink:href="structunilink_1_1wrapper_1_1UdsClient_1_1Impl.html#ac79278578a498f732c0d25a1b2b7336f" target="_top" xlink:title=" ">
<polygon fill="white" stroke="#666666" points="150.5,-606 1.5,-606 1.5,-576 150.5,-576 150.5,-606"/>
<text text-anchor="start" x="9.5" y="-594" font-family="Helvetica,sans-Serif" font-size="10.00">unilink::wrapper::UdsClient</text>
<text text-anchor="middle" x="76" y="-583" font-family="Helvetica,sans-Serif" font-size="10.00">::Impl::set_framer</text>
</a>
</g>
</g>
<!-- Node9&#45;&gt;Node11 -->
<g id="edge10_Node000009_Node000011" class="edge">
<title>Node9&#45;&gt;Node11</title>
<g id="a_edge10_Node000009_Node000011"><a xlink:title=" ">
<path fill="none" stroke="#63b8ff" d="M178.82,-591C169.39,-591 159.91,-591 150.71,-591"/>
<polygon fill="#63b8ff" stroke="#63b8ff" points="179,-594.5 189,-591 179,-587.5 179,-594.5"/>
</a>
</g>
</g>
<!-- Node13 -->
<g id="Node000013" class="node">
<title>Node13</title>
<g id="a_Node000013"><a xlink:href="structunilink_1_1wrapper_1_1Serial_1_1Impl.html#a94bbcf403f89c0c8466b5692c73648b8" target="_top" xlink:title=" ">
<polygon fill="white" stroke="#666666" points="140.5,-558 11.5,-558 11.5,-528 140.5,-528 140.5,-558"/>
<text text-anchor="start" x="19.5" y="-546" font-family="Helvetica,sans-Serif" font-size="10.00">unilink::wrapper::Serial</text>
<text text-anchor="middle" x="76" y="-535" font-family="Helvetica,sans-Serif" font-size="10.00">::Impl::start</text>
</a>
</g>
</g>
<!-- Node12&#45;&gt;Node13 -->
<g id="edge12_Node000012_Node000013" class="edge">
<title>Node12&#45;&gt;Node13</title>
<g id="a_edge12_Node000012_Node000013"><a xlink:title=" ">
<path fill="none" stroke="#63b8ff" d="M196.75,-533.72C178.27,-535.15 158.61,-536.67 140.67,-538.06"/>
<polygon fill="#63b8ff" stroke="#63b8ff" points="197.17,-537.19 206.87,-532.93 196.63,-530.22 197.17,-537.19"/>
</a>
</g>
</g>
<!-- Node15 -->
<g id="Node000015" class="node">
<title>Node15</title>
<g id="a_Node000015"><a xlink:href="structunilink_1_1wrapper_1_1TcpClient_1_1Impl.html#a32dae0c43294e3469ed3802896fe8116" target="_top" xlink:title=" ">
<polygon fill="white" stroke="#666666" points="149,-510 3,-510 3,-480 149,-480 149,-510"/>
<text text-anchor="start" x="11" y="-498" font-family="Helvetica,sans-Serif" font-size="10.00">unilink::wrapper::TcpClient</text>
<text text-anchor="middle" x="76" y="-487" font-family="Helvetica,sans-Serif" font-size="10.00">::Impl::Impl</text>
</a>
</g>
</g>
<!-- Node14&#45;&gt;Node15 -->
<g id="edge14_Node000014_Node000015" class="edge">
<title>Node14&#45;&gt;Node15</title>
<g id="a_edge14_Node000014_Node000015"><a xlink:title=" ">
<path fill="none" stroke="#63b8ff" d="M177.89,-479.36C168.28,-480.85 158.61,-482.35 149.27,-483.8"/>
<polygon fill="#63b8ff" stroke="#63b8ff" points="178.53,-482.8 187.88,-477.81 177.46,-475.88 178.53,-482.8"/>
</a>
</g>
</g>
<!-- Node16 -->
<g id="Node000016" class="node">
<title>Node16</title>
<g id="a_Node000016"><a xlink:href="structunilink_1_1wrapper_1_1TcpClient_1_1Impl.html#a8ab8cedd92a78d5e9aa4f9aadbe736d3" target="_top" xlink:title=" ">
<polygon fill="white" stroke="#666666" points="149,-462 3,-462 3,-432 149,-432 149,-462"/>
<text text-anchor="start" x="11" y="-450" font-family="Helvetica,sans-Serif" font-size="10.00">unilink::wrapper::TcpClient</text>
<text text-anchor="middle" x="76" y="-439" font-family="Helvetica,sans-Serif" font-size="10.00">::Impl::start</text>
</a>
</g>
</g>
<!-- Node14&#45;&gt;Node16 -->
<g id="edge15_Node000014_Node000016" class="edge">
<title>Node14&#45;&gt;Node16</title>
<g id="a_edge15_Node000014_Node000016"><a xlink:title=" ">
<path fill="none" stroke="#63b8ff" d="M177.89,-456.39C168.28,-455.49 158.61,-454.59 149.27,-453.72"/>
<polygon fill="#63b8ff" stroke="#63b8ff" points="177.6,-459.87 187.88,-457.31 178.24,-452.9 177.6,-459.87"/>
</a>
</g>
</g>
<!-- Node18 -->
<g id="Node000018" class="node">
<title>Node18</title>
<g id="a_Node000018"><a xlink:href="structunilink_1_1wrapper_1_1TcpServer_1_1Impl.html#a8b8ab1b95d8a945e14a5d161828e729d" target="_top" xlink:title=" ">
<polygon fill="white" stroke="#666666" points="150.5,-414 1.5,-414 1.5,-384 150.5,-384 150.5,-414"/>
<text text-anchor="start" x="9.5" y="-402" font-family="Helvetica,sans-Serif" font-size="10.00">unilink::wrapper::TcpServer</text>
<text text-anchor="middle" x="76" y="-391" font-family="Helvetica,sans-Serif" font-size="10.00">::Impl::Impl</text>
</a>
</g>
</g>
<!-- Node17&#45;&gt;Node18 -->
<g id="edge17_Node000017_Node000018" class="edge">
<title>Node17&#45;&gt;Node18</title>
<g id="a_edge17_Node000017_Node000018"><a xlink:title=" ">
<path fill="none" stroke="#63b8ff" d="M177.71,-399C168.68,-399 159.6,-399 150.78,-399"/>
<polygon fill="#63b8ff" stroke="#63b8ff" points="177.88,-402.5 187.88,-399 177.88,-395.5 177.88,-402.5"/>
</a>
</g>
</g>
<!-- Node19 -->
<g id="Node000019" class="node">
<title>Node19</title>
<g id="a_Node000019"><a xlink:href="structunilink_1_1wrapper_1_1TcpServer_1_1Impl.html#a6497c1680973b24cb1103b34c08e75bf" target="_top" xlink:title=" ">
<polygon fill="white" stroke="#666666" points="150.5,-366 1.5,-366 1.5,-336 150.5,-336 150.5,-366"/>
<text text-anchor="start" x="9.5" y="-354" font-family="Helvetica,sans-Serif" font-size="10.00">unilink::wrapper::TcpServer</text>
<text text-anchor="middle" x="76" y="-343" font-family="Helvetica,sans-Serif" font-size="10.00">::Impl::start</text>
</a>
</g>
</g>
<!-- Node17&#45;&gt;Node19 -->
<g id="edge18_Node000017_Node000019" class="edge">
<title>Node17&#45;&gt;Node19</title>
<g id="a_edge18_Node000017_Node000019"><a xlink:title=" ">
<path fill="none" stroke="#63b8ff" d="M199.91,-381.49C179.44,-376.41 157.27,-370.91 137.48,-366"/>
<polygon fill="#63b8ff" stroke="#63b8ff" points="199.26,-384.93 209.81,-383.94 200.94,-378.14 199.26,-384.93"/>
</a>
</g>
</g>
<!-- Node21 -->
<g id="Node000021" class="node">
<title>Node21</title>
<g id="a_Node000021"><a xlink:href="structunilink_1_1wrapper_1_1UdpClient_1_1Impl.html#a50f920c8fa582fcb6af6f9c3ae1b9434" target="_top" xlink:title=" ">
<polygon fill="white" stroke="#666666" points="150.5,-318 1.5,-318 1.5,-288 150.5,-288 150.5,-318"/>
<text text-anchor="start" x="9.5" y="-306" font-family="Helvetica,sans-Serif" font-size="10.00">unilink::wrapper::UdpClient</text>
<text text-anchor="middle" x="76" y="-295" font-family="Helvetica,sans-Serif" font-size="10.00">::Impl::start</text>
</a>
</g>
</g>
<!-- Node20&#45;&gt;Node21 -->
<g id="edge20_Node000020_Node000021" class="edge">
<title>Node20&#45;&gt;Node21</title>
<g id="a_edge20_Node000020_Node000021"><a xlink:title=" ">
<path fill="none" stroke="#63b8ff" d="M177.71,-315.49C168.68,-314.37 159.6,-313.24 150.78,-312.15"/>
<polygon fill="#63b8ff" stroke="#63b8ff" points="177.52,-318.99 187.88,-316.75 178.38,-312.05 177.52,-318.99"/>
</a>
</g>
</g>
<!-- Node23 -->
<g id="Node000023" class="node">
<title>Node23</title>
<g id="a_Node000023"><a xlink:href="structunilink_1_1wrapper_1_1UdpServer_1_1Impl.html#a4282405e724797444608a3f312841dfa" target="_top" xlink:title=" ">
<polygon fill="white" stroke="#666666" points="152,-270 0,-270 0,-240 152,-240 152,-270"/>
<text text-anchor="start" x="8" y="-258" font-family="Helvetica,sans-Serif" font-size="10.00">unilink::wrapper::UdpServer</text>
<text text-anchor="middle" x="76" y="-247" font-family="Helvetica,sans-Serif" font-size="10.00">::Impl::Impl</text>
</a>
</g>
</g>
<!-- Node22&#45;&gt;Node23 -->
<g id="edge22_Node000022_Node000023" class="edge">
<title>Node22&#45;&gt;Node23</title>
<g id="a_edge22_Node000022_Node000023"><a xlink:title=" ">
<path fill="none" stroke="#63b8ff" d="M177.86,-255C169.29,-255 160.68,-255 152.3,-255"/>
<polygon fill="#63b8ff" stroke="#63b8ff" points="177.88,-258.5 187.88,-255 177.88,-251.5 177.88,-258.5"/>
</a>
</g>
</g>
<!-- Node24 -->
<g id="Node000024" class="node">
<title>Node24</title>
<g id="a_Node000024"><a xlink:href="structunilink_1_1wrapper_1_1UdpServer_1_1Impl.html#aef2d453ea13990a3b0bdcd088dd64c46" target="_top" xlink:title=" ">
<polygon fill="white" stroke="#666666" points="152,-222 0,-222 0,-192 152,-192 152,-222"/>
<text text-anchor="start" x="8" y="-210" font-family="Helvetica,sans-Serif" font-size="10.00">unilink::wrapper::UdpServer</text>
<text text-anchor="middle" x="76" y="-199" font-family="Helvetica,sans-Serif" font-size="10.00">::Impl::start</text>
</a>
</g>
</g>
<!-- Node22&#45;&gt;Node24 -->
<g id="edge23_Node000022_Node000024" class="edge">
<title>Node22&#45;&gt;Node24</title>
<g id="a_edge23_Node000022_Node000024"><a xlink:title=" ">
<path fill="none" stroke="#63b8ff" d="M199.91,-237.49C179.44,-232.41 157.27,-226.91 137.48,-222"/>
<polygon fill="#63b8ff" stroke="#63b8ff" points="199.26,-240.93 209.81,-239.94 200.94,-234.14 199.26,-240.93"/>
</a>
</g>
</g>
<!-- Node26 -->
<g id="Node000026" class="node">
<title>Node26</title>
<g id="a_Node000026"><a xlink:href="structunilink_1_1wrapper_1_1UdsClient_1_1Impl.html#a05fb8b19377378c868a95ca37e32d179" target="_top" xlink:title=" ">
<polygon fill="white" stroke="#666666" points="150.5,-174 1.5,-174 1.5,-144 150.5,-144 150.5,-174"/>
<text text-anchor="start" x="9.5" y="-162" font-family="Helvetica,sans-Serif" font-size="10.00">unilink::wrapper::UdsClient</text>
<text text-anchor="middle" x="76" y="-151" font-family="Helvetica,sans-Serif" font-size="10.00">::Impl::Impl</text>
</a>
</g>
</g>
<!-- Node25&#45;&gt;Node26 -->
<g id="edge25_Node000025_Node000026" class="edge">
<title>Node25&#45;&gt;Node26</title>
<g id="a_edge25_Node000025_Node000026"><a xlink:title=" ">
<path fill="none" stroke="#63b8ff" d="M177.71,-159C168.68,-159 159.6,-159 150.78,-159"/>
<polygon fill="#63b8ff" stroke="#63b8ff" points="177.88,-162.5 187.88,-159 177.88,-155.5 177.88,-162.5"/>
</a>
</g>
</g>
<!-- Node27 -->
<g id="Node000027" class="node">
<title>Node27</title>
<g id="a_Node000027"><a xlink:href="structunilink_1_1wrapper_1_1UdsClient_1_1Impl.html#a8961b6f6e34887f785d4af92a79345f8" target="_top" xlink:title=" ">
<polygon fill="white" stroke="#666666" points="150.5,-126 1.5,-126 1.5,-96 150.5,-96 150.5,-126"/>
<text text-anchor="start" x="9.5" y="-114" font-family="Helvetica,sans-Serif" font-size="10.00">unilink::wrapper::UdsClient</text>
<text text-anchor="middle" x="76" y="-103" font-family="Helvetica,sans-Serif" font-size="10.00">::Impl::start</text>
</a>
</g>
</g>
<!-- Node25&#45;&gt;Node27 -->
<g id="edge26_Node000025_Node000027" class="edge">
<title>Node25&#45;&gt;Node27</title>
<g id="a_edge26_Node000025_Node000027"><a xlink:title=" ">
<path fill="none" stroke="#63b8ff" d="M199.91,-141.49C179.44,-136.41 157.27,-130.91 137.48,-126"/>
<polygon fill="#63b8ff" stroke="#63b8ff" points="199.26,-144.93 209.81,-143.94 200.94,-138.14 199.26,-144.93"/>
</a>
</g>
</g>
<!-- Node29 -->
<g id="Node000029" class="node">
<title>Node29</title>
<g id="a_Node000029"><a xlink:href="structunilink_1_1wrapper_1_1UdsServer_1_1Impl.html#a82fa898e3d4786c76704919dea8dae46" target="_top" xlink:title=" ">
<polygon fill="white" stroke="#666666" points="152,-78 0,-78 0,-48 152,-48 152,-78"/>
<text text-anchor="start" x="8" y="-66" font-family="Helvetica,sans-Serif" font-size="10.00">unilink::wrapper::UdsServer</text>
<text text-anchor="middle" x="76" y="-55" font-family="Helvetica,sans-Serif" font-size="10.00">::Impl::Impl</text>
</a>
</g>
</g>
<!-- Node28&#45;&gt;Node29 -->
<g id="edge28_Node000028_Node000029" class="edge">
<title>Node28&#45;&gt;Node29</title>
<g id="a_edge28_Node000028_Node000029"><a xlink:title=" ">
<path fill="none" stroke="#63b8ff" d="M177.86,-63C169.29,-63 160.68,-63 152.3,-63"/>
<polygon fill="#63b8ff" stroke="#63b8ff" points="177.88,-66.5 187.88,-63 177.88,-59.5 177.88,-66.5"/>
</a>
</g>
</g>
<!-- Node30 -->
<g id="Node000030" class="node">
<title>Node30</title>
<g id="a_Node000030"><a xlink:href="structunilink_1_1wrapper_1_1UdsServer_1_1Impl.html#aecb2e08ff201c840d9f5d2a90f016299" target="_top" xlink:title=" ">
<polygon fill="white" stroke="#666666" points="152,-30 0,-30 0,0 152,0 152,-30"/>
<text text-anchor="start" x="8" y="-18" font-family="Helvetica,sans-Serif" font-size="10.00">unilink::wrapper::UdsServer</text>
<text text-anchor="middle" x="76" y="-7" font-family="Helvetica,sans-Serif" font-size="10.00">::Impl::start</text>
</a>
</g>
</g>
<!-- Node28&#45;&gt;Node30 -->
<g id="edge29_Node000028_Node000030" class="edge">
<title>Node28&#45;&gt;Node30</title>
<g id="a_edge29_Node000028_Node000030"><a xlink:title=" ">
<path fill="none" stroke="#63b8ff" d="M199.91,-45.49C179.44,-40.41 157.27,-34.91 137.48,-30"/>
<polygon fill="#63b8ff" stroke="#63b8ff" points="199.26,-48.93 209.81,-47.94 200.94,-42.14 199.26,-48.93"/>
</a>
</g>
</g>
</g>
</svg>

<g id="navigator" transform="translate(0 0)" fill="#404254">
  <rect fill="#f2f5e9" fill-opacity="0.5" stroke="#606060" stroke-width=".5" x="0" y="0" width="60" height="60"/>
  <use id="zoomplus" xlink:href="#zoomPlus" x="17" y="9" onmousedown="handleZoom(evt,'in')"/>
  <use id="zoomminus" xlink:href="#zoomMin" x="42" y="9" onmousedown="handleZoom(evt,'out')"/>
  <use id="reset" xlink:href="#resetDef" x="30" y="36" onmousedown="handleReset()"/>
   <use id="arrowup" xlink:href="#arrowUp" x="0" y="0" onmousedown="handlePan(0,-1)"/>
  <use id="arrowright" xlink:href="#arrowRight" x="0" y="0" onmousedown="handlePan(1,0)"/>
  <use id="arrowdown" xlink:href="#arrowDown" x="0" y="0" onmousedown="handlePan(0,1)"/>
  <use id="arrowleft" xlink:href="#arrowLeft" x="0" y="0" onmousedown="handlePan(-1,0)"/>
</g>
<svg viewBox="0 0 15 15" width="100%" height="30px" preserveAspectRatio="xMaxYMin meet">
 <g id="arrow_out" transform="scale(0.3 0.3)">
  <a xlink:href="namespaceunilink_1_1base_1_1safe__convert_a3c41d9c6266428458c97891710ac2f0d_icgraph_org.svg" target="_base">
   <rect id="button" ry="5" rx="5" y="6" x="6" height="38" width="38"
        fill="#f2f5e9" fill-opacity="0.5" stroke="#606060" stroke-width="1.0"/>
   <path id="arrow"
     d="M 11.500037,31.436501 C 11.940474,20.09759 22.043105,11.32322 32.158766,21.979434 L 37.068811,17.246167 C 37.068811,17.246167 37.088388,32 37.088388,32 L 22.160133,31.978069 C 22.160133,31.978069 26.997745,27.140456 26.997745,27.140456 C 18.528582,18.264221 13.291696,25.230495 11.500037,31.436501 z"
     style="fill:#404040;"/>
  </a>
 </g>
</svg>

<style type='text/css'>
<![CDATA[
[data-mouse-over-selected='false'] { opacity: 0.7; }
[data-mouse-over-selected='true']  { opacity: 1.0; }
]]>
</style>
<script type="application/ecmascript"><![CDATA[
document.addEventListener('DOMContentLoaded', (event) => {
  highlightEdges();
  highlightAdjacentNodes();
});
]]></script>
</svg>
