<?xml version="1.0" encoding="UTF-8" standalone="no"?>
<!DOCTYPE svg PUBLIC "-//W3C//DTD SVG 1.1//EN"
 "http://www.w3.org/Graphics/SVG/1.1/DTD/svg11.dtd">
<!-- Generated by graphviz version 2.43.0 (0)
 -->
<!-- Title: unilink::transport::detail::decide_reconnect_uds Pages: 1 -->
<svg width="558pt" height="49pt"
 viewBox="0.00 0.00 558.00 49.00" xmlns="http://www.w3.org/2000/svg" xmlns:xlink="http://www.w3.org/1999/xlink">
<g id="graph0" class="graph" transform="scale(1 1) rotate(0) translate(4 45)">
<title>unilink::transport::detail::decide_reconnect_uds</title>
<!-- Node1 -->
<g id="Node000001" class="node">
<title>Node1</title>
<g id="a_Node000001"><a xlink:title="Determines whether a UDS reconnection attempt should be made.">
<polygon fill="#999999" stroke="#666666" points="164,-35.5 0,-35.5 0,-5.5 164,-5.5 164,-35.5"/>
<text text-anchor="start" x="8" y="-23.5" font-family="Helvetica,sans-Serif" font-size="10.00">unilink::transport</text>
<text text-anchor="middle" x="82" y="-12.5" font-family="Helvetica,sans-Serif" font-size="10.00">::detail::decide_reconnect_uds</text>
</a>
</g>
</g>
<!-- Node2 -->
<g id="Node000002" class="node">
<title>Node2</title>
<g id="a_Node000002"><a xlink:href="namespaceunilink_1_1transport_1_1detail.html#a7aaa24e40cce140eb8f2b3e228d3b8dd" target="_top" xlink:title="Determines whether a reconnection attempt should be made and the base delay to use.">
<polygon fill="white" stroke="#666666" points="342,-41 200,-41 200,0 342,0 342,-41"/>
<text text-anchor="start" x="208" y="-29" font-family="Helvetica,sans-Serif" font-size="10.00">unilink::transport</text>
<text text-anchor="start" x="208" y="-18" font-family="Helvetica,sans-Serif" font-size="10.00">::detail::decide_reconnect</text>
<text text-anchor="middle" x="271" y="-7" font-family="Helvetica,sans-Serif" font-size="10.00">_common</text>
</a>
</g>
</g>
<!-- Node1&#45;&gt;Node2 -->
<g id="edge1_Node000001_Node000002" class="edge">
<title>Node1&#45;&gt;Node2</title>
<g id="a_edge1_Node000001_Node000002"><a xlink:title=" ">
<path fill="none" stroke="#63b8ff" d="M164.21,-20.5C172.61,-20.5 181.16,-20.5 189.56,-20.5"/>
<polygon fill="#63b8ff" stroke="#63b8ff" points="189.72,-24 199.72,-20.5 189.72,-17 189.72,-24"/>
</a>
</g>
</g>
<!-- Node3 -->
<g id="Node000003" class="node">
<title>Node3</title>
<g id="a_Node000003"><a xlink:href="namespaceunilink_1_1transport_1_1detail.html#a22e4060c24e0be5f58266c56c8b6cd6d" target="_top" xlink:title=" ">
<polygon fill="white" stroke="#666666" points="550,-35.5 378,-35.5 378,-5.5 550,-5.5 550,-35.5"/>
<text text-anchor="start" x="386" y="-23.5" font-family="Helvetica,sans-Serif" font-size="10.00">unilink::transport</text>
<text text-anchor="middle" x="464" y="-12.5" font-family="Helvetica,sans-Serif" font-size="10.00">::detail::clamp_reconnect_delay</text>
</a>
</g>
</g>
<!-- Node2&#45;&gt;Node3 -->
<g id="edge2_Node000002_Node000003" class="edge">
<title>Node2&#45;&gt;Node3</title>
<g id="a_edge2_Node000002_Node000003"><a xlink:title=" ">
<path fill="none" stroke="#63b8ff" d="M342.04,-20.5C350.38,-20.5 359,-20.5 367.62,-20.5"/>
<polygon fill="#63b8ff" stroke="#63b8ff" points="367.72,-24 377.72,-20.5 367.72,-17 367.72,-24"/>
</a>
</g>
</g>
</g>
</svg>
