<?xml version="1.0" encoding="UTF-8" standalone="no"?>
<!DOCTYPE svg PUBLIC "-//W3C//DTD SVG 1.1//EN"
 "http://www.w3.org/Graphics/SVG/1.1/DTD/svg11.dtd">
<!-- Generated by graphviz version 2.43.0 (0)
 -->
<!-- Title: unilink::base::safe_convert::uint8_to_string Pages: 1 -->
<!--zoomable 872 -->
<svg id="main" version="1.1" xmlns="http://www.w3.org/2000/svg" xmlns:xlink="http://www.w3.org/1999/xlink" xml:space="preserve" onload="init(evt)">
<style type="text/css"><![CDATA[
.edge:hover path { stroke: red; }
.edge:hover polygon { stroke: red; fill: red; }
]]></style>
<script type="text/javascript"><![CDATA[
var edges = document.getElementsByTagName('g');
if (edges && edges.length) {
  for (var i=0;i<edges.length;i++) {
    if (edges[i].id.substr(0,4)=='edge') {
      edges[i].setAttribute('class','edge');
    }
  }
}
]]></script>
        <defs>
                <circle id="rim" cx="0" cy="0" r="7"/>
                <circle id="rim2" cx="0" cy="0" r="3.5"/>
                <g id="zoomPlus">
                        <use xlink:href="#rim" fill="#404040">
                                <set attributeName="fill" to="#808080" begin="zoomplus.mouseover" end="zoomplus.mouseout"/>
                        </use>
                        <path d="M-4,0h8M0,-4v8" fill="none" stroke="white" stroke-width="1.5" pointer-events="none"/>
                </g>
                <g id="zoomMin">
                        <use xlink:href="#rim" fill="#404040">
                                <set attributeName="fill" to="#808080" begin="zoomminus.mouseover" end="zoomminus.mouseout"/>
                        </use>
                        <path d="M-4,0h8" fill="none" stroke="white" stroke-width="1.5" pointer-events="none"/>
                </g>
                <g id="dirArrow">
                        <path fill="none" stroke="white" stroke-width="1.5" d="M0,-3.0v7 M-2.5,-0.5L0,-3.0L2.5,-0.5"/>
                </g>
               <g id="resetDef">
                       <use xlink:href="#rim2" fill="#404040">
                               <set attributeName="fill" to="#808080" begin="reset.mouseover" end="reset.mouseout"/>
                       </use>
               </g>
        </defs>

<script type="text/javascript">
var viewWidth = 536;
var viewHeight = 872;
var sectionId = 'dynsection-1';
</script>
<script xlink:href="svgpan.js"/>
<svg id="graph" class="graph">
<g id="viewport">
<title>unilink::base::safe_convert::uint8_to_string</title>
<polygon fill="white" stroke="transparent" points="-4,4 -4,-868 532,-868 532,4 -4,4"/>
<!-- Node1 -->
<g id="node1" class="node">
<title>Node1</title>
<g id="a_node1"><a xlink:title="Safely convert uint8_t* to const char* for string operations.">
<polygon fill="#bfbfbf" stroke="black" points="391,-459.5 391,-489.5 528,-489.5 528,-459.5 391,-459.5"/>
<text text-anchor="start" x="399" y="-477.5" font-family="Helvetica,sans-Serif" font-size="10.00">unilink::base::safe</text>
<text text-anchor="middle" x="459.5" y="-466.5" font-family="Helvetica,sans-Serif" font-size="10.00">_convert::uint8_to_string</text>
</a>
</g>
</g>
<!-- Node2 -->
<g id="node2" class="node">
<title>Node2</title>
<g id="a_node2"><a xlink:href="structunilink_1_1wrapper_1_1Serial_1_1Impl.html#a0322ca1987cff30ecb38f0873053bacc" target="_top" xlink:title=" ">
<polygon fill="white" stroke="black" points="189,-784.5 189,-814.5 354,-814.5 354,-784.5 189,-784.5"/>
<text text-anchor="start" x="197" y="-802.5" font-family="Helvetica,sans-Serif" font-size="10.00">unilink::wrapper::Serial</text>
<text text-anchor="middle" x="271.5" y="-791.5" font-family="Helvetica,sans-Serif" font-size="10.00">::Impl::attach_framer_callback</text>
</a>
</g>
</g>
<!-- Node1&#45;&gt;Node2 -->
<g id="edge1" class="edge">
<title>Node1&#45;&gt;Node2</title>
<path fill="none" stroke="midnightblue" d="M454.87,-499.92C446.22,-552.43 420.05,-674.38 355,-751.5 343.03,-765.69 325.75,-776.65 310.09,-784.49"/>
<polygon fill="midnightblue" stroke="midnightblue" points="458.36,-500.23 456.46,-489.81 451.45,-499.15 458.36,-500.23"/>
</g>
<!-- Node5 -->
<g id="node5" class="node">
<title>Node5</title>
<g id="a_node5"><a xlink:href="structunilink_1_1wrapper_1_1TcpClient_1_1Impl.html#a6193e6eced480d2e35e09f8a8aaf3ede" target="_top" xlink:title=" ">
<polygon fill="white" stroke="black" points="189,-711.5 189,-741.5 354,-741.5 354,-711.5 189,-711.5"/>
<text text-anchor="start" x="197" y="-729.5" font-family="Helvetica,sans-Serif" font-size="10.00">unilink::wrapper::TcpClient</text>
<text text-anchor="middle" x="271.5" y="-718.5" font-family="Helvetica,sans-Serif" font-size="10.00">::Impl::attach_framer_callback</text>
</a>
</g>
</g>
<!-- Node1&#45;&gt;Node5 -->
<g id="edge4" class="edge">
<title>Node1&#45;&gt;Node5</title>
<path fill="none" stroke="midnightblue" d="M454.23,-499.51C444.9,-546.39 418.25,-647.71 355,-702.5 351.05,-705.92 346.64,-708.85 341.97,-711.37"/>
<polygon fill="midnightblue" stroke="midnightblue" points="457.69,-500.07 456.1,-489.59 450.81,-498.77 457.69,-500.07"/>
</g>
<!-- Node6 -->
<g id="node6" class="node">
<title>Node6</title>
<g id="a_node6"><a xlink:href="structunilink_1_1wrapper_1_1UdpClient_1_1Impl.html#a2efdb2ae4eab24161d8c0adee210b83d" target="_top" xlink:title=" ">
<polygon fill="white" stroke="black" points="189,-662.5 189,-692.5 354,-692.5 354,-662.5 189,-662.5"/>
<text text-anchor="start" x="197" y="-680.5" font-family="Helvetica,sans-Serif" font-size="10.00">unilink::wrapper::UdpClient</text>
<text text-anchor="middle" x="271.5" y="-669.5" font-family="Helvetica,sans-Serif" font-size="10.00">::Impl::attach_framer_callback</text>
</a>
</g>
</g>
<!-- Node1&#45;&gt;Node6 -->
<g id="edge5" class="edge">
<title>Node1&#45;&gt;Node6</title>
<path fill="none" stroke="midnightblue" d="M446.51,-498.91C429.59,-531.49 396.15,-589.59 355,-628.5 340.48,-642.24 321.44,-653.86 305.31,-662.34"/>
<polygon fill="midnightblue" stroke="midnightblue" points="449.8,-500.17 451.22,-489.67 443.56,-496.99 449.8,-500.17"/>
</g>
<!-- Node9 -->
<g id="node9" class="node">
<title>Node9</title>
<g id="a_node9"><a xlink:href="structunilink_1_1wrapper_1_1UdsClient_1_1Impl.html#a1219fcefa0378c01eabd2d4af00bcd5f" target="_top" xlink:title=" ">
<polygon fill="white" stroke="black" points="189,-588.5 189,-618.5 354,-618.5 354,-588.5 189,-588.5"/>
<text text-anchor="start" x="197" y="-606.5" font-family="Helvetica,sans-Serif" font-size="10.00">unilink::wrapper::UdsClient</text>
<text text-anchor="middle" x="271.5" y="-595.5" font-family="Helvetica,sans-Serif" font-size="10.00">::Impl::attach_framer_callback</text>
</a>
</g>
</g>
<!-- Node1&#45;&gt;Node9 -->
<g id="edge8" class="edge">
<title>Node1&#45;&gt;Node9</title>
<path fill="none" stroke="midnightblue" d="M438.18,-497.29C418.54,-518.24 387.11,-549.06 355,-569.5 343.37,-576.9 329.85,-583.27 317.17,-588.42"/>
<polygon fill="midnightblue" stroke="midnightblue" points="440.89,-499.5 445.1,-489.78 435.75,-494.76 440.89,-499.5"/>
</g>
<!-- Node12 -->
<g id="node12" class="node">
<title>Node12</title>
<g id="a_node12"><a xlink:href="structunilink_1_1wrapper_1_1Serial_1_1Impl.html#a9e6722cf4e4dbee24492d3f3e2c0a894" target="_top" xlink:title=" ">
<polygon fill="white" stroke="black" points="207,-519 207,-560 336,-560 336,-519 207,-519"/>
<text text-anchor="start" x="215" y="-548" font-family="Helvetica,sans-Serif" font-size="10.00">unilink::wrapper::Serial</text>
<text text-anchor="start" x="215" y="-537" font-family="Helvetica,sans-Serif" font-size="10.00">::Impl::setup_internal</text>
<text text-anchor="middle" x="271.5" y="-526" font-family="Helvetica,sans-Serif" font-size="10.00">_handlers</text>
</a>
</g>
</g>
<!-- Node1&#45;&gt;Node12 -->
<g id="edge11" class="edge">
<title>Node1&#45;&gt;Node12</title>
<path fill="none" stroke="midnightblue" d="M405.69,-492.96C382.47,-501.07 355.11,-510.63 331.26,-518.97"/>
<polygon fill="midnightblue" stroke="midnightblue" points="407.07,-496.18 415.36,-489.58 404.77,-489.57 407.07,-496.18"/>
</g>
<!-- Node14 -->
<g id="node14" class="node">
<title>Node14</title>
<g id="a_node14"><a xlink:href="structunilink_1_1wrapper_1_1TcpClient_1_1Impl.html#a71ca6976f08b07bfb8fdc6c17d84aae5" target="_top" xlink:title=" ">
<polygon fill="white" stroke="black" points="188,-459.5 188,-489.5 355,-489.5 355,-459.5 188,-459.5"/>
<text text-anchor="start" x="196" y="-477.5" font-family="Helvetica,sans-Serif" font-size="10.00">unilink::wrapper::TcpClient</text>
<text text-anchor="middle" x="271.5" y="-466.5" font-family="Helvetica,sans-Serif" font-size="10.00">::Impl::setup_internal_handlers</text>
</a>
</g>
</g>
<!-- Node1&#45;&gt;Node14 -->
<g id="edge13" class="edge">
<title>Node1&#45;&gt;Node14</title>
<path fill="none" stroke="midnightblue" d="M380.61,-474.5C372.15,-474.5 363.52,-474.5 355.01,-474.5"/>
<polygon fill="midnightblue" stroke="midnightblue" points="380.82,-478 390.82,-474.5 380.82,-471 380.82,-478"/>
</g>
<!-- Node17 -->
<g id="node17" class="node">
<title>Node17</title>
<g id="a_node17"><a xlink:href="structunilink_1_1wrapper_1_1TcpServer_1_1Impl.html#afa02bec7c4ffe754aa0a8b2da4f135a5" target="_top" xlink:title=" ">
<polygon fill="white" stroke="black" points="188,-392.5 188,-422.5 355,-422.5 355,-392.5 188,-392.5"/>
<text text-anchor="start" x="196" y="-410.5" font-family="Helvetica,sans-Serif" font-size="10.00">unilink::wrapper::TcpServer</text>
<text text-anchor="middle" x="271.5" y="-399.5" font-family="Helvetica,sans-Serif" font-size="10.00">::Impl::setup_internal_handlers</text>
</a>
</g>
</g>
<!-- Node1&#45;&gt;Node17 -->
<g id="edge16" class="edge">
<title>Node1&#45;&gt;Node17</title>
<path fill="none" stroke="midnightblue" d="M407.15,-456C377.97,-445.49 341.89,-432.49 314.42,-422.6"/>
<polygon fill="midnightblue" stroke="midnightblue" points="406.16,-459.37 416.76,-459.46 408.54,-452.78 406.16,-459.37"/>
</g>
<!-- Node20 -->
<g id="node20" class="node">
<title>Node20</title>
<g id="a_node20"><a xlink:href="structunilink_1_1wrapper_1_1UdpClient_1_1Impl.html#aa1a0c025a484dbf87dc9c0c69342870b" target="_top" xlink:title=" ">
<polygon fill="white" stroke="black" points="188,-319.5 188,-349.5 355,-349.5 355,-319.5 188,-319.5"/>
<text text-anchor="start" x="196" y="-337.5" font-family="Helvetica,sans-Serif" font-size="10.00">unilink::wrapper::UdpClient</text>
<text text-anchor="middle" x="271.5" y="-326.5" font-family="Helvetica,sans-Serif" font-size="10.00">::Impl::setup_internal_handlers</text>
</a>
</g>
</g>
<!-- Node1&#45;&gt;Node20 -->
<g id="edge19" class="edge">
<title>Node1&#45;&gt;Node20</title>
<path fill="none" stroke="midnightblue" d="M435.91,-452.43C415.6,-433.15 384.52,-404.96 355,-383.5 337.75,-370.96 317.13,-358.71 300.81,-349.6"/>
<polygon fill="midnightblue" stroke="midnightblue" points="433.49,-454.96 443.13,-459.35 438.33,-449.91 433.49,-454.96"/>
</g>
<!-- Node22 -->
<g id="node22" class="node">
<title>Node22</title>
<g id="a_node22"><a xlink:href="structunilink_1_1wrapper_1_1UdpServer_1_1Impl.html#acc6c86c0987b2e7097c779d03fc009f8" target="_top" xlink:title=" ">
<polygon fill="white" stroke="black" points="188,-245.5 188,-275.5 355,-275.5 355,-245.5 188,-245.5"/>
<text text-anchor="start" x="196" y="-263.5" font-family="Helvetica,sans-Serif" font-size="10.00">unilink::wrapper::UdpServer</text>
<text text-anchor="middle" x="271.5" y="-252.5" font-family="Helvetica,sans-Serif" font-size="10.00">::Impl::setup_internal_handlers</text>
</a>
</g>
</g>
<!-- Node1&#45;&gt;Node22 -->
<g id="edge21" class="edge">
<title>Node1&#45;&gt;Node22</title>
<path fill="none" stroke="midnightblue" d="M447.55,-450.02C431.24,-415.65 397.85,-352.58 355,-310.5 340.54,-296.3 321.32,-284.35 305.07,-275.7"/>
<polygon fill="midnightblue" stroke="midnightblue" points="444.48,-451.73 451.87,-459.32 450.82,-448.77 444.48,-451.73"/>
</g>
<!-- Node25 -->
<g id="node25" class="node">
<title>Node25</title>
<g id="a_node25"><a xlink:href="structunilink_1_1wrapper_1_1UdsClient_1_1Impl.html#a5b0bd183417b37282ed9131737ecf8ae" target="_top" xlink:title=" ">
<polygon fill="white" stroke="black" points="188,-147.5 188,-177.5 355,-177.5 355,-147.5 188,-147.5"/>
<text text-anchor="start" x="196" y="-165.5" font-family="Helvetica,sans-Serif" font-size="10.00">unilink::wrapper::UdsClient</text>
<text text-anchor="middle" x="271.5" y="-154.5" font-family="Helvetica,sans-Serif" font-size="10.00">::Impl::setup_internal_handlers</text>
</a>
</g>
</g>
<!-- Node1&#45;&gt;Node25 -->
<g id="edge24" class="edge">
<title>Node1&#45;&gt;Node25</title>
<path fill="none" stroke="midnightblue" d="M451.55,-449.55C438.08,-404.13 405.27,-306.19 355,-236.5 338,-212.94 312.35,-191.43 294.17,-177.74"/>
<polygon fill="midnightblue" stroke="midnightblue" points="448.26,-450.8 454.41,-459.42 454.99,-448.84 448.26,-450.8"/>
</g>
<!-- Node28 -->
<g id="node28" class="node">
<title>Node28</title>
<g id="a_node28"><a xlink:href="structunilink_1_1wrapper_1_1UdsServer_1_1Impl.html#a10ed4dde741e2d4077f3df717d38cde5" target="_top" xlink:title=" ">
<polygon fill="white" stroke="black" points="188,-49.5 188,-79.5 355,-79.5 355,-49.5 188,-49.5"/>
<text text-anchor="start" x="196" y="-67.5" font-family="Helvetica,sans-Serif" font-size="10.00">unilink::wrapper::UdsServer</text>
<text text-anchor="middle" x="271.5" y="-56.5" font-family="Helvetica,sans-Serif" font-size="10.00">::Impl::setup_internal_handlers</text>
</a>
</g>
</g>
<!-- Node1&#45;&gt;Node28 -->
<g id="edge27" class="edge">
<title>Node1&#45;&gt;Node28</title>
<path fill="none" stroke="midnightblue" d="M455.38,-448.98C447.23,-390.1 421.14,-241.86 355,-138.5 339.44,-114.19 313.79,-92.96 295.22,-79.55"/>
<polygon fill="midnightblue" stroke="midnightblue" points="451.96,-449.77 456.74,-459.22 458.9,-448.85 451.96,-449.77"/>
</g>
<!-- Node3 -->
<g id="node3" class="node">
<title>Node3</title>
<g id="a_node3"><a xlink:href="structunilink_1_1wrapper_1_1Serial_1_1Impl.html#a214c3e2dc0880150308c36e23165e708" target="_top" xlink:title=" ">
<polygon fill="white" stroke="black" points="11.5,-833.5 11.5,-863.5 140.5,-863.5 140.5,-833.5 11.5,-833.5"/>
<text text-anchor="start" x="19.5" y="-851.5" font-family="Helvetica,sans-Serif" font-size="10.00">unilink::wrapper::Serial</text>
<text text-anchor="middle" x="76" y="-840.5" font-family="Helvetica,sans-Serif" font-size="10.00">::Impl::on_message</text>
</a>
</g>
</g>
<!-- Node2&#45;&gt;Node3 -->
<g id="edge2" class="edge">
<title>Node2&#45;&gt;Node3</title>
<path fill="none" stroke="midnightblue" d="M201.2,-817.05C179.95,-822.43 156.77,-828.3 136.26,-833.49"/>
<polygon fill="midnightblue" stroke="midnightblue" points="202.29,-820.38 211.13,-814.53 200.58,-813.6 202.29,-820.38"/>
</g>
<!-- Node4 -->
<g id="node4" class="node">
<title>Node4</title>
<g id="a_node4"><a xlink:href="structunilink_1_1wrapper_1_1Serial_1_1Impl.html#a0015c7ce9f070aafd15ac10c677b8ab8" target="_top" xlink:title=" ">
<polygon fill="white" stroke="black" points="11.5,-784.5 11.5,-814.5 140.5,-814.5 140.5,-784.5 11.5,-784.5"/>
<text text-anchor="start" x="19.5" y="-802.5" font-family="Helvetica,sans-Serif" font-size="10.00">unilink::wrapper::Serial</text>
<text text-anchor="middle" x="76" y="-791.5" font-family="Helvetica,sans-Serif" font-size="10.00">::Impl::set_framer</text>
</a>
</g>
</g>
<!-- Node2&#45;&gt;Node4 -->
<g id="edge3" class="edge">
<title>Node2&#45;&gt;Node4</title>
<path fill="none" stroke="midnightblue" d="M178.74,-799.5C165.9,-799.5 152.94,-799.5 140.77,-799.5"/>
<polygon fill="midnightblue" stroke="midnightblue" points="179,-803 189,-799.5 179,-796 179,-803"/>
</g>
<!-- Node7 -->
<g id="node7" class="node">
<title>Node7</title>
<g id="a_node7"><a xlink:href="structunilink_1_1wrapper_1_1UdpClient_1_1Impl.html#ab5f876cfbacc69128f6de2619023286e" target="_top" xlink:title=" ">
<polygon fill="white" stroke="black" points="1.5,-735.5 1.5,-765.5 150.5,-765.5 150.5,-735.5 1.5,-735.5"/>
<text text-anchor="start" x="9.5" y="-753.5" font-family="Helvetica,sans-Serif" font-size="10.00">unilink::wrapper::UdpClient</text>
<text text-anchor="middle" x="76" y="-742.5" font-family="Helvetica,sans-Serif" font-size="10.00">::Impl::on_message</text>
</a>
</g>
</g>
<!-- Node6&#45;&gt;Node7 -->
<g id="edge6" class="edge">
<title>Node6&#45;&gt;Node7</title>
<path fill="none" stroke="midnightblue" d="M203.34,-696.02C198.08,-698.02 192.91,-700.18 188,-702.5 170.61,-710.71 169.32,-718.16 152,-726.5 145.23,-729.76 137.9,-732.73 130.57,-735.38"/>
<polygon fill="midnightblue" stroke="midnightblue" points="204.65,-699.27 212.87,-692.58 202.28,-692.68 204.65,-699.27"/>
</g>
<!-- Node8 -->
<g id="node8" class="node">
<title>Node8</title>
<g id="a_node8"><a xlink:href="structunilink_1_1wrapper_1_1UdpClient_1_1Impl.html#ad433e6e6ad1872781b3cf94eda658c3f" target="_top" xlink:title=" ">
<polygon fill="white" stroke="black" points="1.5,-686.5 1.5,-716.5 150.5,-716.5 150.5,-686.5 1.5,-686.5"/>
<text text-anchor="start" x="9.5" y="-704.5" font-family="Helvetica,sans-Serif" font-size="10.00">unilink::wrapper::UdpClient</text>
<text text-anchor="middle" x="76" y="-693.5" font-family="Helvetica,sans-Serif" font-size="10.00">::Impl::set_framer</text>
</a>
</g>
</g>
<!-- Node6&#45;&gt;Node8 -->
<g id="edge7" class="edge">
<title>Node6&#45;&gt;Node8</title>
<path fill="none" stroke="midnightblue" d="M178.82,-688.87C169.39,-690.04 159.91,-691.22 150.71,-692.36"/>
<polygon fill="midnightblue" stroke="midnightblue" points="179.51,-692.31 189,-687.61 178.64,-685.37 179.51,-692.31"/>
</g>
<!-- Node10 -->
<g id="node10" class="node">
<title>Node10</title>
<g id="a_node10"><a xlink:href="structunilink_1_1wrapper_1_1UdsClient_1_1Impl.html#a71d3a071e7576339bec3c5229187d869" target="_top" xlink:title=" ">
<polygon fill="white" stroke="black" points="1.5,-637.5 1.5,-667.5 150.5,-667.5 150.5,-637.5 1.5,-637.5"/>
<text text-anchor="start" x="9.5" y="-655.5" font-family="Helvetica,sans-Serif" font-size="10.00">unilink::wrapper::UdsClient</text>
<text text-anchor="middle" x="76" y="-644.5" font-family="Helvetica,sans-Serif" font-size="10.00">::Impl::on_message</text>
</a>
</g>
</g>
<!-- Node9&#45;&gt;Node10 -->
<g id="edge9" class="edge">
<title>Node9&#45;&gt;Node10</title>
<path fill="none" stroke="midnightblue" d="M201.2,-621.05C179.95,-626.43 156.77,-632.3 136.26,-637.49"/>
<polygon fill="midnightblue" stroke="midnightblue" points="202.29,-624.38 211.13,-618.53 200.58,-617.6 202.29,-624.38"/>
</g>
<!-- Node11 -->
<g id="node11" class="node">
<title>Node11</title>
<g id="a_node11"><a xlink:href="structunilink_1_1wrapper_1_1UdsClient_1_1Impl.html#ac79278578a498f732c0d25a1b2b7336f" target="_top" xlink:title=" ">
<polygon fill="white" stroke="black" points="1.5,-588.5 1.5,-618.5 150.5,-618.5 150.5,-588.5 1.5,-588.5"/>
<text text-anchor="start" x="9.5" y="-606.5" font-family="Helvetica,sans-Serif" font-size="10.00">unilink::wrapper::UdsClient</text>
<text text-anchor="middle" x="76" y="-595.5" font-family="Helvetica,sans-Serif" font-size="10.00">::Impl::set_framer</text>
</a>
</g>
</g>
<!-- Node9&#45;&gt;Node11 -->
<g id="edge10" class="edge">
<title>Node9&#45;&gt;Node11</title>
<path fill="none" stroke="midnightblue" d="M178.82,-603.5C169.39,-603.5 159.91,-603.5 150.71,-603.5"/>
<polygon fill="midnightblue" stroke="midnightblue" points="179,-607 189,-603.5 179,-600 179,-607"/>
</g>
<!-- Node13 -->
<g id="node13" class="node">
<title>Node13</title>
<g id="a_node13"><a xlink:href="structunilink_1_1wrapper_1_1Serial_1_1Impl.html#ade318d3f130981eecc92b908dbb471cf" target="_top" xlink:title=" ">
<polygon fill="white" stroke="black" points="11.5,-539.5 11.5,-569.5 140.5,-569.5 140.5,-539.5 11.5,-539.5"/>
<text text-anchor="start" x="19.5" y="-557.5" font-family="Helvetica,sans-Serif" font-size="10.00">unilink::wrapper::Serial</text>
<text text-anchor="middle" x="76" y="-546.5" font-family="Helvetica,sans-Serif" font-size="10.00">::Impl::start</text>
</a>
</g>
</g>
<!-- Node12&#45;&gt;Node13 -->
<g id="edge12" class="edge">
<title>Node12&#45;&gt;Node13</title>
<path fill="none" stroke="midnightblue" d="M196.75,-545.22C178.27,-546.65 158.61,-548.17 140.67,-549.56"/>
<polygon fill="midnightblue" stroke="midnightblue" points="197.17,-548.69 206.87,-544.43 196.63,-541.72 197.17,-548.69"/>
</g>
<!-- Node15 -->
<g id="node15" class="node">
<title>Node15</title>
<g id="a_node15"><a xlink:href="structunilink_1_1wrapper_1_1TcpClient_1_1Impl.html#a32dae0c43294e3469ed3802896fe8116" target="_top" xlink:title=" ">
<polygon fill="white" stroke="black" points="3,-490.5 3,-520.5 149,-520.5 149,-490.5 3,-490.5"/>
<text text-anchor="start" x="11" y="-508.5" font-family="Helvetica,sans-Serif" font-size="10.00">unilink::wrapper::TcpClient</text>
<text text-anchor="middle" x="76" y="-497.5" font-family="Helvetica,sans-Serif" font-size="10.00">::Impl::Impl</text>
</a>
</g>
</g>
<!-- Node14&#45;&gt;Node15 -->
<g id="edge14" class="edge">
<title>Node14&#45;&gt;Node15</title>
<path fill="none" stroke="midnightblue" d="M177.89,-489.34C168.28,-490.88 158.61,-492.43 149.27,-493.92"/>
<polygon fill="midnightblue" stroke="midnightblue" points="178.56,-492.77 187.88,-487.74 177.45,-485.86 178.56,-492.77"/>
</g>
<!-- Node16 -->
<g id="node16" class="node">
<title>Node16</title>
<g id="a_node16"><a xlink:href="structunilink_1_1wrapper_1_1TcpClient_1_1Impl.html#ad28d0b43728cdfd96c5fb9563d585b56" target="_top" xlink:title=" ">
<polygon fill="white" stroke="black" points="3,-441.5 3,-471.5 149,-471.5 149,-441.5 3,-441.5"/>
<text text-anchor="start" x="11" y="-459.5" font-family="Helvetica,sans-Serif" font-size="10.00">unilink::wrapper::TcpClient</text>
<text text-anchor="middle" x="76" y="-448.5" font-family="Helvetica,sans-Serif" font-size="10.00">::Impl::start</text>
</a>
</g>
</g>
<!-- Node14&#45;&gt;Node16 -->
<g id="edge15" class="edge">
<title>Node14&#45;&gt;Node16</title>
<path fill="none" stroke="midnightblue" d="M177.89,-465.89C168.28,-464.99 158.61,-464.09 149.27,-463.22"/>
<polygon fill="midnightblue" stroke="midnightblue" points="177.6,-469.37 187.88,-466.81 178.24,-462.4 177.6,-469.37"/>
</g>
<!-- Node18 -->
<g id="node18" class="node">
<title>Node18</title>
<g id="a_node18"><a xlink:href="structunilink_1_1wrapper_1_1TcpServer_1_1Impl.html#a8b8ab1b95d8a945e14a5d161828e729d" target="_top" xlink:title=" ">
<polygon fill="white" stroke="black" points="1.5,-392.5 1.5,-422.5 150.5,-422.5 150.5,-392.5 1.5,-392.5"/>
<text text-anchor="start" x="9.5" y="-410.5" font-family="Helvetica,sans-Serif" font-size="10.00">unilink::wrapper::TcpServer</text>
<text text-anchor="middle" x="76" y="-399.5" font-family="Helvetica,sans-Serif" font-size="10.00">::Impl::Impl</text>
</a>
</g>
</g>
<!-- Node17&#45;&gt;Node18 -->
<g id="edge17" class="edge">
<title>Node17&#45;&gt;Node18</title>
<path fill="none" stroke="midnightblue" d="M177.71,-407.5C168.68,-407.5 159.6,-407.5 150.78,-407.5"/>
<polygon fill="midnightblue" stroke="midnightblue" points="177.88,-411 187.88,-407.5 177.88,-404 177.88,-411"/>
</g>
<!-- Node19 -->
<g id="node19" class="node">
<title>Node19</title>
<g id="a_node19"><a xlink:href="structunilink_1_1wrapper_1_1TcpServer_1_1Impl.html#acde93124f9a0055182ac36eadca0c7b2" target="_top" xlink:title=" ">
<polygon fill="white" stroke="black" points="1.5,-343.5 1.5,-373.5 150.5,-373.5 150.5,-343.5 1.5,-343.5"/>
<text text-anchor="start" x="9.5" y="-361.5" font-family="Helvetica,sans-Serif" font-size="10.00">unilink::wrapper::TcpServer</text>
<text text-anchor="middle" x="76" y="-350.5" font-family="Helvetica,sans-Serif" font-size="10.00">::Impl::start</text>
</a>
</g>
</g>
<!-- Node17&#45;&gt;Node19 -->
<g id="edge18" class="edge">
<title>Node17&#45;&gt;Node19</title>
<path fill="none" stroke="midnightblue" d="M201.2,-389.95C179.95,-384.57 156.77,-378.7 136.26,-373.51"/>
<polygon fill="midnightblue" stroke="midnightblue" points="200.58,-393.4 211.13,-392.47 202.29,-386.62 200.58,-393.4"/>
</g>
<!-- Node21 -->
<g id="node21" class="node">
<title>Node21</title>
<g id="a_node21"><a xlink:href="structunilink_1_1wrapper_1_1UdpClient_1_1Impl.html#a45fc3fe16ef51a8676351b1679241158" target="_top" xlink:title=" ">
<polygon fill="white" stroke="black" points="1.5,-294.5 1.5,-324.5 150.5,-324.5 150.5,-294.5 1.5,-294.5"/>
<text text-anchor="start" x="9.5" y="-312.5" font-family="Helvetica,sans-Serif" font-size="10.00">unilink::wrapper::UdpClient</text>
<text text-anchor="middle" x="76" y="-301.5" font-family="Helvetica,sans-Serif" font-size="10.00">::Impl::start</text>
</a>
</g>
</g>
<!-- Node20&#45;&gt;Node21 -->
<g id="edge20" class="edge">
<title>Node20&#45;&gt;Node21</title>
<path fill="none" stroke="midnightblue" d="M177.71,-322.51C168.68,-321.34 159.6,-320.17 150.78,-319.03"/>
<polygon fill="midnightblue" stroke="midnightblue" points="177.51,-326.01 187.88,-323.83 178.41,-319.07 177.51,-326.01"/>
</g>
<!-- Node23 -->
<g id="node23" class="node">
<title>Node23</title>
<g id="a_node23"><a xlink:href="structunilink_1_1wrapper_1_1UdpServer_1_1Impl.html#a4282405e724797444608a3f312841dfa" target="_top" xlink:title=" ">
<polygon fill="white" stroke="black" points="0,-245.5 0,-275.5 152,-275.5 152,-245.5 0,-245.5"/>
<text text-anchor="start" x="8" y="-263.5" font-family="Helvetica,sans-Serif" font-size="10.00">unilink::wrapper::UdpServer</text>
<text text-anchor="middle" x="76" y="-252.5" font-family="Helvetica,sans-Serif" font-size="10.00">::Impl::Impl</text>
</a>
</g>
</g>
<!-- Node22&#45;&gt;Node23 -->
<g id="edge22" class="edge">
<title>Node22&#45;&gt;Node23</title>
<path fill="none" stroke="midnightblue" d="M177.86,-260.5C169.29,-260.5 160.68,-260.5 152.3,-260.5"/>
<polygon fill="midnightblue" stroke="midnightblue" points="177.88,-264 187.88,-260.5 177.88,-257 177.88,-264"/>
</g>
<!-- Node24 -->
<g id="node24" class="node">
<title>Node24</title>
<g id="a_node24"><a xlink:href="structunilink_1_1wrapper_1_1UdpServer_1_1Impl.html#ade395c124360004d54b427955544e2d5" target="_top" xlink:title=" ">
<polygon fill="white" stroke="black" points="0,-196.5 0,-226.5 152,-226.5 152,-196.5 0,-196.5"/>
<text text-anchor="start" x="8" y="-214.5" font-family="Helvetica,sans-Serif" font-size="10.00">unilink::wrapper::UdpServer</text>
<text text-anchor="middle" x="76" y="-203.5" font-family="Helvetica,sans-Serif" font-size="10.00">::Impl::start</text>
</a>
</g>
</g>
<!-- Node22&#45;&gt;Node24 -->
<g id="edge23" class="edge">
<title>Node22&#45;&gt;Node24</title>
<path fill="none" stroke="midnightblue" d="M201.2,-242.95C179.95,-237.57 156.77,-231.7 136.26,-226.51"/>
<polygon fill="midnightblue" stroke="midnightblue" points="200.58,-246.4 211.13,-245.47 202.29,-239.62 200.58,-246.4"/>
</g>
<!-- Node26 -->
<g id="node26" class="node">
<title>Node26</title>
<g id="a_node26"><a xlink:href="structunilink_1_1wrapper_1_1UdsClient_1_1Impl.html#a05fb8b19377378c868a95ca37e32d179" target="_top" xlink:title=" ">
<polygon fill="white" stroke="black" points="1.5,-147.5 1.5,-177.5 150.5,-177.5 150.5,-147.5 1.5,-147.5"/>
<text text-anchor="start" x="9.5" y="-165.5" font-family="Helvetica,sans-Serif" font-size="10.00">unilink::wrapper::UdsClient</text>
<text text-anchor="middle" x="76" y="-154.5" font-family="Helvetica,sans-Serif" font-size="10.00">::Impl::Impl</text>
</a>
</g>
</g>
<!-- Node25&#45;&gt;Node26 -->
<g id="edge25" class="edge">
<title>Node25&#45;&gt;Node26</title>
<path fill="none" stroke="midnightblue" d="M177.71,-162.5C168.68,-162.5 159.6,-162.5 150.78,-162.5"/>
<polygon fill="midnightblue" stroke="midnightblue" points="177.88,-166 187.88,-162.5 177.88,-159 177.88,-166"/>
</g>
<!-- Node27 -->
<g id="node27" class="node">
<title>Node27</title>
<g id="a_node27"><a xlink:href="structunilink_1_1wrapper_1_1UdsClient_1_1Impl.html#a23c99510bffe036232e15a4a0fecccf7" target="_top" xlink:title=" ">
<polygon fill="white" stroke="black" points="1.5,-98.5 1.5,-128.5 150.5,-128.5 150.5,-98.5 1.5,-98.5"/>
<text text-anchor="start" x="9.5" y="-116.5" font-family="Helvetica,sans-Serif" font-size="10.00">unilink::wrapper::UdsClient</text>
<text text-anchor="middle" x="76" y="-105.5" font-family="Helvetica,sans-Serif" font-size="10.00">::Impl::start</text>
</a>
</g>
</g>
<!-- Node25&#45;&gt;Node27 -->
<g id="edge26" class="edge">
<title>Node25&#45;&gt;Node27</title>
<path fill="none" stroke="midnightblue" d="M201.2,-144.95C179.95,-139.57 156.77,-133.7 136.26,-128.51"/>
<polygon fill="midnightblue" stroke="midnightblue" points="200.58,-148.4 211.13,-147.47 202.29,-141.62 200.58,-148.4"/>
</g>
<!-- Node29 -->
<g id="node29" class="node">
<title>Node29</title>
<g id="a_node29"><a xlink:href="structunilink_1_1wrapper_1_1UdsServer_1_1Impl.html#a82fa898e3d4786c76704919dea8dae46" target="_top" xlink:title=" ">
<polygon fill="white" stroke="black" points="0,-49.5 0,-79.5 152,-79.5 152,-49.5 0,-49.5"/>
<text text-anchor="start" x="8" y="-67.5" font-family="Helvetica,sans-Serif" font-size="10.00">unilink::wrapper::UdsServer</text>
<text text-anchor="middle" x="76" y="-56.5" font-family="Helvetica,sans-Serif" font-size="10.00">::Impl::Impl</text>
</a>
</g>
</g>
<!-- Node28&#45;&gt;Node29 -->
<g id="edge28" class="edge">
<title>Node28&#45;&gt;Node29</title>
<path fill="none" stroke="midnightblue" d="M177.86,-64.5C169.29,-64.5 160.68,-64.5 152.3,-64.5"/>
<polygon fill="midnightblue" stroke="midnightblue" points="177.88,-68 187.88,-64.5 177.88,-61 177.88,-68"/>
</g>
<!-- Node30 -->
<g id="node30" class="node">
<title>Node30</title>
<g id="a_node30"><a xlink:href="structunilink_1_1wrapper_1_1UdsServer_1_1Impl.html#a2883eed89960c9412febc1635c3bfa4d" target="_top" xlink:title=" ">
<polygon fill="white" stroke="black" points="0,-0.5 0,-30.5 152,-30.5 152,-0.5 0,-0.5"/>
<text text-anchor="start" x="8" y="-18.5" font-family="Helvetica,sans-Serif" font-size="10.00">unilink::wrapper::UdsServer</text>
<text text-anchor="middle" x="76" y="-7.5" font-family="Helvetica,sans-Serif" font-size="10.00">::Impl::start</text>
</a>
</g>
</g>
<!-- Node28&#45;&gt;Node30 -->
<g id="edge29" class="edge">
<title>Node28&#45;&gt;Node30</title>
<path fill="none" stroke="midnightblue" d="M201.2,-46.95C179.95,-41.57 156.77,-35.7 136.26,-30.51"/>
<polygon fill="midnightblue" stroke="midnightblue" points="200.58,-50.4 211.13,-49.47 202.29,-43.62 200.58,-50.4"/>
</g>
</g>
</svg>
        <g id="navigator" transform="translate(0 0)" fill="#404254">
                <rect fill="#f2f5e9" fill-opacity="0.5" stroke="#606060" stroke-width=".5" x="0" y="0" width="60" height="60"/>
                <use id="zoomplus" xlink:href="#zoomPlus" x="17" y="9" onmousedown="handleZoom(evt,'in')"/>
                <use id="zoomminus" xlink:href="#zoomMin" x="42" y="9" onmousedown="handleZoom(evt,'out')"/>
                <use id="reset" xlink:href="#resetDef" x="30" y="36" onmousedown="handleReset()"/>
                <g id="arrowUp" xlink:href="#dirArrow" transform="translate(30 24)" onmousedown="handlePan(0,-1)">
                  <use xlink:href="#rim" fill="#404040">
                        <set attributeName="fill" to="#808080" begin="arrowUp.mouseover" end="arrowUp.mouseout"/>
                  </use>
                  <path fill="none" stroke="white" stroke-width="1.5" d="M0,-3.0v7 M-2.5,-0.5L0,-3.0L2.5,-0.5"/>
                </g>
                <g id="arrowRight" xlink:href="#dirArrow" transform="rotate(90) translate(36 -43)" onmousedown="handlePan(1,0)">
                  <use xlink:href="#rim" fill="#404040">
                        <set attributeName="fill" to="#808080" begin="arrowRight.mouseover" end="arrowRight.mouseout"/>
                  </use>
                  <path fill="none" stroke="white" stroke-width="1.5" d="M0,-3.0v7 M-2.5,-0.5L0,-3.0L2.5,-0.5"/>
                </g>
                <g id="arrowDown" xlink:href="#dirArrow" transform="rotate(180) translate(-30 -48)" onmousedown="handlePan(0,1)">
                  <use xlink:href="#rim" fill="#404040">
                        <set attributeName="fill" to="#808080" begin="arrowDown.mouseover" end="arrowDown.mouseout"/>
                  </use>
                  <path fill="none" stroke="white" stroke-width="1.5" d="M0,-3.0v7 M-2.5,-0.5L0,-3.0L2.5,-0.5"/>
                </g>
                <g id="arrowLeft" xlink:href="#dirArrow" transform="rotate(270) translate(-36 17)" onmousedown="handlePan(-1,0)">
                  <use xlink:href="#rim" fill="#404040">
                        <set attributeName="fill" to="#808080" begin="arrowLeft.mouseover" end="arrowLeft.mouseout"/>
                  </use>
                  <path fill="none" stroke="white" stroke-width="1.5" d="M0,-3.0v7 M-2.5,-0.5L0,-3.0L2.5,-0.5"/>
                </g>
        </g>
        <svg viewBox="0 0 15 15" width="100%" height="30px" preserveAspectRatio="xMaxYMin meet">
         <g id="arrow_out" transform="scale(0.3 0.3)">
          <a xlink:href="namespaceunilink_1_1base_1_1safe__convert_a3c41d9c6266428458c97891710ac2f0d_icgraph_org.svg" target="_base">
           <rect id="button" ry="5" rx="5" y="6" x="6" height="38" width="38"
                fill="#f2f5e9" fill-opacity="0.5" stroke="#606060" stroke-width="1.0"/>
           <path id="arrow"
             d="M 11.500037,31.436501 C 11.940474,20.09759 22.043105,11.32322 32.158766,21.979434 L 37.068811,17.246167 C 37.068811,17.246167 37.088388,32 37.088388,32 L 22.160133,31.978069 C 22.160133,31.978069 26.997745,27.140456 26.997745,27.140456 C 18.528582,18.264221 13.291696,25.230495 11.500037,31.436501 z"
             style="fill:#404040;"/>
          </a>
         </g>
        </svg>
</svg>
