<?xml version="1.0" encoding="UTF-8" standalone="no"?>
<!DOCTYPE svg PUBLIC "-//W3C//DTD SVG 1.1//EN"
 "http://www.w3.org/Graphics/SVG/1.1/DTD/svg11.dtd">
<!-- Generated by graphviz version 2.43.0 (0)
 -->
<!-- Title: unilink::base::safe_convert::string_to_bytes Pages: 1 -->
<!--zoomable 290 -->

<svg id="main" version="1.1" xmlns="http://www.w3.org/2000/svg" xmlns:xlink="http://www.w3.org/1999/xlink" xml:space="preserve" onload="init(evt)">
<style type="text/css"><![CDATA[
.node, .edge {opacity: 0.7;}
.node.selected, .edge.selected {opacity: 1;}
.edge:hover path { stroke: red; }
.edge:hover polygon { stroke: red; fill: red; }
]]></style>

<defs>
  <circle id="rim" cx="0" cy="0" r="7"/>
  <circle id="rim2" cx="0" cy="0" r="3.5"/>
  <g id="zoomPlus">
    <use xlink:href="#rim" fill="#404040"><set attributeName="fill" to="#808080" begin="zoomplus.mouseover" end="zoomplus.mouseout"/></use>
    <path d="M-4,0h8M0,-4v8" fill="none" stroke="white" stroke-width="1.5" pointer-events="none"/>
  </g>
  <g id="zoomMin">
    <use xlink:href="#rim" fill="#404040"><set attributeName="fill" to="#808080" begin="zoomminus.mouseover" end="zoomminus.mouseout"/></use>
    <path d="M-4,0h8" fill="none" stroke="white" stroke-width="1.5" pointer-events="none"/>
  </g>
  <g id="arrowUp" transform="translate(30 24)">
    <use xlink:href="#rim"/>
    <path pointer-events="none" fill="none" stroke="white" stroke-width="1.5" d="M0,-3.0v7 M-2.5,-0.5L0,-3.0L2.5,-0.5"/>
  </g>
  <g id="arrowRight" transform="rotate(90) translate(36 -43)">
    <use xlink:href="#rim"/>
    <path pointer-events="none" fill="none" stroke="white" stroke-width="1.5" d="M0,-3.0v7 M-2.5,-0.5L0,-3.0L2.5,-0.5"/>
  </g>
  <g id="arrowDown" transform="rotate(180) translate(-30 -48)">
    <use xlink:href="#rim"/>
    <path pointer-events="none" fill="none" stroke="white" stroke-width="1.5" d="M0,-3.0v7 M-2.5,-0.5L0,-3.0L2.5,-0.5"/>
  </g>
  <g id="arrowLeft" transform="rotate(270) translate(-36 17)">
    <use xlink:href="#rim"/>
    <path pointer-events="none" fill="none" stroke="white" stroke-width="1.5" d="M0,-3.0v7 M-2.5,-0.5L0,-3.0L2.5,-0.5"/>
  </g>
  <g id="resetDef">
    <use xlink:href="#rim2" fill="#404040"><set attributeName="fill" to="#808080" begin="reset.mouseover" end="reset.mouseout"/></use>
  </g>
</defs>
<script type="application/ecmascript">
var viewWidth = 521;
var viewHeight = 290;
var sectionId = 'dynsection-0';
</script>
<script type="application/ecmascript" xlink:href="svg.min.js"/>
<svg id="graph" class="graph">
<g id="viewport">
<title>unilink::base::safe_convert::string_to_bytes</title>
<!-- Node1 -->
<g id="Node000001" class="node">
<title>Node1</title>
<g id="a_Node000001"><a xlink:title="Safely obtain a view of std::string as byte array without allocation.">
<polygon fill="#999999" stroke="#666666" points="513,-161.5 373,-161.5 373,-131.5 513,-131.5 513,-161.5"/>
<text text-anchor="start" x="381" y="-149.5" font-family="Helvetica,sans-Serif" font-size="10.00">unilink::base::safe</text>
<text text-anchor="middle" x="443" y="-138.5" font-family="Helvetica,sans-Serif" font-size="10.00">_convert::string_to_bytes</text>
</a>
</g>
</g>
<!-- Node2 -->
<g id="Node000002" class="node">
<title>Node2</title>
<g id="a_Node000002"><a xlink:href="classunilink_1_1wrapper_1_1UdpServer.html#aeb4e4ccfc8c7f547696756aa3b444d9f" target="_top" xlink:title=" ">
<polygon fill="white" stroke="#666666" points="337,-281.5 185,-281.5 185,-251.5 337,-251.5 337,-281.5"/>
<text text-anchor="start" x="193" y="-269.5" font-family="Helvetica,sans-Serif" font-size="10.00">unilink::wrapper::UdpServer</text>
<text text-anchor="middle" x="261" y="-258.5" font-family="Helvetica,sans-Serif" font-size="10.00">::broadcast</text>
</a>
</g>
</g>
<!-- Node1&#45;&gt;Node2 -->
<g id="edge1_Node000001_Node000002" class="edge">
<title>Node1&#45;&gt;Node2</title>
<g id="a_edge1_Node000001_Node000002"><a xlink:title=" ">
<path fill="none" stroke="#63b8ff" d="M422.4,-169.4C402.78,-191.02 370.73,-222.95 337,-242.5 331.2,-245.86 324.88,-248.81 318.44,-251.39"/>
<polygon fill="#63b8ff" stroke="#63b8ff" points="425.25,-171.46 429.29,-161.67 420.03,-166.81 425.25,-171.46"/>
</a>
</g>
</g>
<!-- Node3 -->
<g id="Node000003" class="node">
<title>Node3</title>
<g id="a_Node000003"><a xlink:href="structunilink_1_1wrapper_1_1TcpClient_1_1Impl.html#a4b1a1d14ad6ad4ca774a863c762f1ba7" target="_top" xlink:title=" ">
<polygon fill="white" stroke="#666666" points="334,-233.5 188,-233.5 188,-203.5 334,-203.5 334,-233.5"/>
<text text-anchor="start" x="196" y="-221.5" font-family="Helvetica,sans-Serif" font-size="10.00">unilink::wrapper::TcpClient</text>
<text text-anchor="middle" x="261" y="-210.5" font-family="Helvetica,sans-Serif" font-size="10.00">::Impl::send</text>
</a>
</g>
</g>
<!-- Node1&#45;&gt;Node3 -->
<g id="edge2_Node000001_Node000003" class="edge">
<title>Node1&#45;&gt;Node3</title>
<g id="a_edge2_Node000001_Node000003"><a xlink:title=" ">
<path fill="none" stroke="#63b8ff" d="M402.46,-165.93C382.98,-175.15 359.01,-185.98 337,-194.5 328.97,-197.61 320.35,-200.64 311.91,-203.45"/>
<polygon fill="#63b8ff" stroke="#63b8ff" points="404.11,-169.02 411.63,-161.55 401.1,-162.7 404.11,-169.02"/>
</a>
</g>
</g>
<!-- Node4 -->
<g id="Node000004" class="node">
<title>Node4</title>
<g id="a_Node000004"><a xlink:href="classunilink_1_1wrapper_1_1Serial.html#a6b120ec3e9e98e9c57c789607f1649bb" target="_top" xlink:title="Enqueue data for transmission.">
<polygon fill="white" stroke="#666666" points="325.5,-185.5 196.5,-185.5 196.5,-155.5 325.5,-155.5 325.5,-185.5"/>
<text text-anchor="start" x="204.5" y="-173.5" font-family="Helvetica,sans-Serif" font-size="10.00">unilink::wrapper::Serial</text>
<text text-anchor="middle" x="261" y="-162.5" font-family="Helvetica,sans-Serif" font-size="10.00">::send</text>
</a>
</g>
</g>
<!-- Node1&#45;&gt;Node4 -->
<g id="edge3_Node000001_Node000004" class="edge">
<title>Node1&#45;&gt;Node4</title>
<g id="a_edge3_Node000001_Node000004"><a xlink:title=" ">
<path fill="none" stroke="#63b8ff" d="M362.97,-157.04C350.47,-158.7 337.67,-160.41 325.58,-162.02"/>
<polygon fill="#63b8ff" stroke="#63b8ff" points="363.47,-160.5 372.92,-155.71 362.55,-153.56 363.47,-160.5"/>
</a>
</g>
</g>
<!-- Node6 -->
<g id="Node000006" class="node">
<title>Node6</title>
<g id="a_Node000006"><a xlink:href="classunilink_1_1wrapper_1_1UdpClient.html#ac7cb513ae60cf2683582feb75c64e5b3" target="_top" xlink:title="Enqueue data for transmission.">
<polygon fill="white" stroke="#666666" points="335.5,-137.5 186.5,-137.5 186.5,-107.5 335.5,-107.5 335.5,-137.5"/>
<text text-anchor="start" x="194.5" y="-125.5" font-family="Helvetica,sans-Serif" font-size="10.00">unilink::wrapper::UdpClient</text>
<text text-anchor="middle" x="261" y="-114.5" font-family="Helvetica,sans-Serif" font-size="10.00">::send</text>
</a>
</g>
</g>
<!-- Node1&#45;&gt;Node6 -->
<g id="edge5_Node000001_Node000006" class="edge">
<title>Node1&#45;&gt;Node6</title>
<g id="a_edge5_Node000001_Node000006"><a xlink:title=" ">
<path fill="none" stroke="#63b8ff" d="M362.82,-135.94C353.79,-134.74 344.62,-133.52 335.68,-132.32"/>
<polygon fill="#63b8ff" stroke="#63b8ff" points="362.55,-139.44 372.92,-137.29 363.47,-132.5 362.55,-139.44"/>
</a>
</g>
</g>
<!-- Node8 -->
<g id="Node000008" class="node">
<title>Node8</title>
<g id="a_Node000008"><a xlink:href="classunilink_1_1wrapper_1_1UdpServer.html#a533c33451a692947067e9ca7d2b70ad8" target="_top" xlink:title=" ">
<polygon fill="white" stroke="#666666" points="337,-89.5 185,-89.5 185,-59.5 337,-59.5 337,-89.5"/>
<text text-anchor="start" x="193" y="-77.5" font-family="Helvetica,sans-Serif" font-size="10.00">unilink::wrapper::UdpServer</text>
<text text-anchor="middle" x="261" y="-66.5" font-family="Helvetica,sans-Serif" font-size="10.00">::send_to</text>
</a>
</g>
</g>
<!-- Node1&#45;&gt;Node8 -->
<g id="edge7_Node000001_Node000008" class="edge">
<title>Node1&#45;&gt;Node8</title>
<g id="a_edge7_Node000001_Node000008"><a xlink:title=" ">
<path fill="none" stroke="#63b8ff" d="M402.46,-127.07C382.98,-117.85 359.01,-107.02 337,-98.5 328.97,-95.39 320.35,-92.36 311.91,-89.55"/>
<polygon fill="#63b8ff" stroke="#63b8ff" points="401.1,-130.3 411.63,-131.45 404.11,-123.98 401.1,-130.3"/>
</a>
</g>
</g>
<!-- Node9 -->
<g id="Node000009" class="node">
<title>Node9</title>
<g id="a_Node000009"><a xlink:href="classunilink_1_1transport_1_1TcpServer.html#a03c02aa3514b78d0c95a3246e68b323e" target="_top" xlink:title=" ">
<polygon fill="white" stroke="#666666" points="318,-41 204,-41 204,0 318,0 318,-41"/>
<text text-anchor="start" x="212" y="-29" font-family="Helvetica,sans-Serif" font-size="10.00">unilink::transport</text>
<text text-anchor="start" x="212" y="-18" font-family="Helvetica,sans-Serif" font-size="10.00">::TcpServer::send_to</text>
<text text-anchor="middle" x="261" y="-7" font-family="Helvetica,sans-Serif" font-size="10.00">_client</text>
</a>
</g>
</g>
<!-- Node1&#45;&gt;Node9 -->
<g id="edge8_Node000001_Node000009" class="edge">
<title>Node1&#45;&gt;Node9</title>
<g id="a_edge8_Node000001_Node000009"><a xlink:title=" ">
<path fill="none" stroke="#63b8ff" d="M421.75,-123.76C401.87,-102.53 369.83,-71.11 337,-50.5 331.18,-46.85 324.84,-43.49 318.39,-40.46"/>
<polygon fill="#63b8ff" stroke="#63b8ff" points="419.4,-126.38 428.75,-131.36 424.55,-121.63 419.4,-126.38"/>
</a>
</g>
</g>
<!-- Node5 -->
<g id="Node000005" class="node">
<title>Node5</title>
<g id="a_Node000005"><a xlink:href="classunilink_1_1wrapper_1_1Serial.html#a492c829f734bbff5baf617b4a32806a1" target="_top" xlink:title="Enqueue a line (data + &quot;\n&quot;) for transmission.">
<polygon fill="white" stroke="#666666" points="139,-185.5 10,-185.5 10,-155.5 139,-155.5 139,-185.5"/>
<text text-anchor="start" x="18" y="-173.5" font-family="Helvetica,sans-Serif" font-size="10.00">unilink::wrapper::Serial</text>
<text text-anchor="middle" x="74.5" y="-162.5" font-family="Helvetica,sans-Serif" font-size="10.00">::send_line</text>
</a>
</g>
</g>
<!-- Node4&#45;&gt;Node5 -->
<g id="edge4_Node000004_Node000005" class="edge">
<title>Node4&#45;&gt;Node5</title>
<g id="a_edge4_Node000004_Node000005"><a xlink:title=" ">
<path fill="none" stroke="#63b8ff" d="M186.17,-170.5C170.64,-170.5 154.38,-170.5 139.26,-170.5"/>
<polygon fill="#63b8ff" stroke="#63b8ff" points="186.25,-174 196.25,-170.5 186.25,-167 186.25,-174"/>
</a>
</g>
</g>
<!-- Node7 -->
<g id="Node000007" class="node">
<title>Node7</title>
<g id="a_Node000007"><a xlink:href="classunilink_1_1wrapper_1_1UdpClient.html#a926ac38e4174653fda3d00a504cac4c1" target="_top" xlink:title="Enqueue a line (data + &quot;\n&quot;) for transmission.">
<polygon fill="white" stroke="#666666" points="149,-137.5 0,-137.5 0,-107.5 149,-107.5 149,-137.5"/>
<text text-anchor="start" x="8" y="-125.5" font-family="Helvetica,sans-Serif" font-size="10.00">unilink::wrapper::UdpClient</text>
<text text-anchor="middle" x="74.5" y="-114.5" font-family="Helvetica,sans-Serif" font-size="10.00">::send_line</text>
</a>
</g>
</g>
<!-- Node6&#45;&gt;Node7 -->
<g id="edge6_Node000006_Node000007" class="edge">
<title>Node6&#45;&gt;Node7</title>
<g id="a_edge6_Node000006_Node000007"><a xlink:title=" ">
<path fill="none" stroke="#63b8ff" d="M176.16,-122.5C167.13,-122.5 157.99,-122.5 149.1,-122.5"/>
<polygon fill="#63b8ff" stroke="#63b8ff" points="176.29,-126 186.29,-122.5 176.29,-119 176.29,-126"/>
</a>
</g>
</g>
</g>
</svg>

<g id="navigator" transform="translate(0 0)" fill="#404254">
  <rect fill="#f2f5e9" fill-opacity="0.5" stroke="#606060" stroke-width=".5" x="0" y="0" width="60" height="60"/>
  <use id="zoomplus" xlink:href="#zoomPlus" x="17" y="9" onmousedown="handleZoom(evt,'in')"/>
  <use id="zoomminus" xlink:href="#zoomMin" x="42" y="9" onmousedown="handleZoom(evt,'out')"/>
  <use id="reset" xlink:href="#resetDef" x="30" y="36" onmousedown="handleReset()"/>
   <use id="arrowup" xlink:href="#arrowUp" x="0" y="0" onmousedown="handlePan(0,-1)"/>
  <use id="arrowright" xlink:href="#arrowRight" x="0" y="0" onmousedown="handlePan(1,0)"/>
  <use id="arrowdown" xlink:href="#arrowDown" x="0" y="0" onmousedown="handlePan(0,1)"/>
  <use id="arrowleft" xlink:href="#arrowLeft" x="0" y="0" onmousedown="handlePan(-1,0)"/>
</g>
<svg viewBox="0 0 15 15" width="100%" height="30px" preserveAspectRatio="xMaxYMin meet">
 <g id="arrow_out" transform="scale(0.3 0.3)">
  <a xlink:href="namespaceunilink_1_1base_1_1safe__convert_a575f6a399b270deff205277e7b9c3b6c_icgraph_org.svg" target="_base">
   <rect id="button" ry="5" rx="5" y="6" x="6" height="38" width="38"
        fill="#f2f5e9" fill-opacity="0.5" stroke="#606060" stroke-width="1.0"/>
   <path id="arrow"
     d="M 11.500037,31.436501 C 11.940474,20.09759 22.043105,11.32322 32.158766,21.979434 L 37.068811,17.246167 C 37.068811,17.246167 37.088388,32 37.088388,32 L 22.160133,31.978069 C 22.160133,31.978069 26.997745,27.140456 26.997745,27.140456 C 18.528582,18.264221 13.291696,25.230495 11.500037,31.436501 z"
     style="fill:#404040;"/>
  </a>
 </g>
</svg>

<style type='text/css'>
<![CDATA[
[data-mouse-over-selected='false'] { opacity: 0.7; }
[data-mouse-over-selected='true']  { opacity: 1.0; }
]]>
</style>
<script type="application/ecmascript"><![CDATA[
document.addEventListener('DOMContentLoaded', (event) => {
  highlightEdges();
  highlightAdjacentNodes();
});
]]></script>
</svg>
