<?xml version="1.0" encoding="UTF-8" standalone="no"?>
<!DOCTYPE svg PUBLIC "-//W3C//DTD SVG 1.1//EN"
 "http://www.w3.org/Graphics/SVG/1.1/DTD/svg11.dtd">
<!-- Generated by graphviz version 2.43.0 (0)
 -->
<!-- Title: unilink::base::safe_convert::string_to_bytes Pages: 1 -->
<!--zoomable 230 -->

<svg id="main" version="1.1" xmlns="http://www.w3.org/2000/svg" xmlns:xlink="http://www.w3.org/1999/xlink" xml:space="preserve" onload="init(evt)">
<style type="text/css"><![CDATA[
.node, .edge {opacity: 0.7;}
.node.selected, .edge.selected {opacity: 1;}
.edge:hover path { stroke: red; }
.edge:hover polygon { stroke: red; fill: red; }
]]></style>

<defs>
  <circle id="rim" cx="0" cy="0" r="7"/>
  <circle id="rim2" cx="0" cy="0" r="3.5"/>
  <g id="zoomPlus">
    <use xlink:href="#rim" fill="#404040"><set attributeName="fill" to="#808080" begin="zoomplus.mouseover" end="zoomplus.mouseout"/></use>
    <path d="M-4,0h8M0,-4v8" fill="none" stroke="white" stroke-width="1.5" pointer-events="none"/>
  </g>
  <g id="zoomMin">
    <use xlink:href="#rim" fill="#404040"><set attributeName="fill" to="#808080" begin="zoomminus.mouseover" end="zoomminus.mouseout"/></use>
    <path d="M-4,0h8" fill="none" stroke="white" stroke-width="1.5" pointer-events="none"/>
  </g>
  <g id="arrowUp" transform="translate(30 24)">
    <use xlink:href="#rim"/>
    <path pointer-events="none" fill="none" stroke="white" stroke-width="1.5" d="M0,-3.0v7 M-2.5,-0.5L0,-3.0L2.5,-0.5"/>
  </g>
  <g id="arrowRight" transform="rotate(90) translate(36 -43)">
    <use xlink:href="#rim"/>
    <path pointer-events="none" fill="none" stroke="white" stroke-width="1.5" d="M0,-3.0v7 M-2.5,-0.5L0,-3.0L2.5,-0.5"/>
  </g>
  <g id="arrowDown" transform="rotate(180) translate(-30 -48)">
    <use xlink:href="#rim"/>
    <path pointer-events="none" fill="none" stroke="white" stroke-width="1.5" d="M0,-3.0v7 M-2.5,-0.5L0,-3.0L2.5,-0.5"/>
  </g>
  <g id="arrowLeft" transform="rotate(270) translate(-36 17)">
    <use xlink:href="#rim"/>
    <path pointer-events="none" fill="none" stroke="white" stroke-width="1.5" d="M0,-3.0v7 M-2.5,-0.5L0,-3.0L2.5,-0.5"/>
  </g>
  <g id="resetDef">
    <use xlink:href="#rim2" fill="#404040"><set attributeName="fill" to="#808080" begin="reset.mouseover" end="reset.mouseout"/></use>
  </g>
</defs>
<script type="application/ecmascript">
var viewWidth = 521;
var viewHeight = 230;
var sectionId = 'dynsection-0';
</script>
<script type="application/ecmascript" xlink:href="svg.min.js"/>
<svg id="graph" class="graph">
<g id="viewport">
<title>unilink::base::safe_convert::string_to_bytes</title>
<!-- Node1 -->
<g id="Node000001" class="node">
<title>Node1</title>
<g id="a_Node000001"><a xlink:title="Safely obtain a view of std::string as byte array without allocation.">
<polygon fill="#999999" stroke="#666666" points="513,-126 373,-126 373,-96 513,-96 513,-126"/>
<text text-anchor="start" x="381" y="-114" font-family="Helvetica,sans-Serif" font-size="10.00">unilink::base::safe</text>
<text text-anchor="middle" x="443" y="-103" font-family="Helvetica,sans-Serif" font-size="10.00">_convert::string_to_bytes</text>
</a>
</g>
</g>
<!-- Node2 -->
<g id="Node000002" class="node">
<title>Node2</title>
<g id="a_Node000002"><a xlink:href="classunilink_1_1wrapper_1_1UdpServer.html#aeb4e4ccfc8c7f547696756aa3b444d9f" target="_top" xlink:title=" ">
<polygon fill="white" stroke="#666666" points="337,-222 185,-222 185,-192 337,-192 337,-222"/>
<text text-anchor="start" x="193" y="-210" font-family="Helvetica,sans-Serif" font-size="10.00">unilink::wrapper::UdpServer</text>
<text text-anchor="middle" x="261" y="-199" font-family="Helvetica,sans-Serif" font-size="10.00">::broadcast</text>
</a>
</g>
</g>
<!-- Node1&#45;&gt;Node2 -->
<g id="edge1_Node000001_Node000002" class="edge">
<title>Node1&#45;&gt;Node2</title>
<g id="a_edge1_Node000001_Node000002"><a xlink:title=" ">
<path fill="none" stroke="#63b8ff" d="M415.77,-132.2C395.29,-147.93 365.61,-168.99 337,-183 330.25,-186.31 322.93,-189.3 315.61,-191.96"/>
<polygon fill="#63b8ff" stroke="#63b8ff" points="417.94,-134.94 423.68,-126.04 413.64,-129.42 417.94,-134.94"/>
</a>
</g>
</g>
<!-- Node3 -->
<g id="Node000003" class="node">
<title>Node3</title>
<g id="a_Node000003"><a xlink:href="structunilink_1_1wrapper_1_1TcpClient_1_1Impl.html#a4b1a1d14ad6ad4ca774a863c762f1ba7" target="_top" xlink:title=" ">
<polygon fill="white" stroke="#666666" points="334,-174 188,-174 188,-144 334,-144 334,-174"/>
<text text-anchor="start" x="196" y="-162" font-family="Helvetica,sans-Serif" font-size="10.00">unilink::wrapper::TcpClient</text>
<text text-anchor="middle" x="261" y="-151" font-family="Helvetica,sans-Serif" font-size="10.00">::Impl::send</text>
</a>
</g>
</g>
<!-- Node1&#45;&gt;Node3 -->
<g id="edge2_Node000001_Node000003" class="edge">
<title>Node1&#45;&gt;Node3</title>
<g id="a_edge2_Node000001_Node000003"><a xlink:title=" ">
<path fill="none" stroke="#63b8ff" d="M375.81,-128.65C356.91,-133.69 336.51,-139.13 318.26,-144"/>
<polygon fill="#63b8ff" stroke="#63b8ff" points="376.78,-132.01 385.54,-126.06 374.98,-125.25 376.78,-132.01"/>
</a>
</g>
</g>
<!-- Node4 -->
<g id="Node000004" class="node">
<title>Node4</title>
<g id="a_Node000004"><a xlink:href="classunilink_1_1wrapper_1_1Serial.html#a6b120ec3e9e98e9c57c789607f1649bb" target="_top" xlink:title="Enqueue data for transmission.">
<polygon fill="white" stroke="#666666" points="325.5,-126 196.5,-126 196.5,-96 325.5,-96 325.5,-126"/>
<text text-anchor="start" x="204.5" y="-114" font-family="Helvetica,sans-Serif" font-size="10.00">unilink::wrapper::Serial</text>
<text text-anchor="middle" x="261" y="-103" font-family="Helvetica,sans-Serif" font-size="10.00">::send</text>
</a>
</g>
</g>
<!-- Node1&#45;&gt;Node4 -->
<g id="edge3_Node000001_Node000004" class="edge">
<title>Node1&#45;&gt;Node4</title>
<g id="a_edge3_Node000001_Node000004"><a xlink:title=" ">
<path fill="none" stroke="#63b8ff" d="M362.6,-111C350.21,-111 337.55,-111 325.58,-111"/>
<polygon fill="#63b8ff" stroke="#63b8ff" points="362.92,-114.5 372.92,-111 362.92,-107.5 362.92,-114.5"/>
</a>
</g>
</g>
<!-- Node6 -->
<g id="Node000006" class="node">
<title>Node6</title>
<g id="a_Node000006"><a xlink:href="classunilink_1_1wrapper_1_1UdpClient.html#ac7cb513ae60cf2683582feb75c64e5b3" target="_top" xlink:title="Enqueue data for transmission.">
<polygon fill="white" stroke="#666666" points="335.5,-78 186.5,-78 186.5,-48 335.5,-48 335.5,-78"/>
<text text-anchor="start" x="194.5" y="-66" font-family="Helvetica,sans-Serif" font-size="10.00">unilink::wrapper::UdpClient</text>
<text text-anchor="middle" x="261" y="-55" font-family="Helvetica,sans-Serif" font-size="10.00">::send</text>
</a>
</g>
</g>
<!-- Node1&#45;&gt;Node6 -->
<g id="edge5_Node000001_Node000006" class="edge">
<title>Node1&#45;&gt;Node6</title>
<g id="a_edge5_Node000001_Node000006"><a xlink:title=" ">
<path fill="none" stroke="#63b8ff" d="M375.81,-93.35C356.91,-88.31 336.51,-82.87 318.26,-78"/>
<polygon fill="#63b8ff" stroke="#63b8ff" points="374.98,-96.75 385.54,-95.94 376.78,-89.99 374.98,-96.75"/>
</a>
</g>
</g>
<!-- Node8 -->
<g id="Node000008" class="node">
<title>Node8</title>
<g id="a_Node000008"><a xlink:href="classunilink_1_1wrapper_1_1UdpServer.html#a97ddb6517358a2e82a5c44a205fbba57" target="_top" xlink:title=" ">
<polygon fill="white" stroke="#666666" points="337,-30 185,-30 185,0 337,0 337,-30"/>
<text text-anchor="start" x="193" y="-18" font-family="Helvetica,sans-Serif" font-size="10.00">unilink::wrapper::UdpServer</text>
<text text-anchor="middle" x="261" y="-7" font-family="Helvetica,sans-Serif" font-size="10.00">::send_to</text>
</a>
</g>
</g>
<!-- Node1&#45;&gt;Node8 -->
<g id="edge7_Node000001_Node000008" class="edge">
<title>Node1&#45;&gt;Node8</title>
<g id="a_edge7_Node000001_Node000008"><a xlink:title=" ">
<path fill="none" stroke="#63b8ff" d="M415.77,-89.8C395.29,-74.07 365.61,-53.01 337,-39 330.25,-35.69 322.93,-32.7 315.61,-30.04"/>
<polygon fill="#63b8ff" stroke="#63b8ff" points="413.64,-92.58 423.68,-95.96 417.94,-87.06 413.64,-92.58"/>
</a>
</g>
</g>
<!-- Node5 -->
<g id="Node000005" class="node">
<title>Node5</title>
<g id="a_Node000005"><a xlink:href="classunilink_1_1wrapper_1_1Serial.html#a492c829f734bbff5baf617b4a32806a1" target="_top" xlink:title="Enqueue a line (data + &quot;\n&quot;) for transmission.">
<polygon fill="white" stroke="#666666" points="139,-126 10,-126 10,-96 139,-96 139,-126"/>
<text text-anchor="start" x="18" y="-114" font-family="Helvetica,sans-Serif" font-size="10.00">unilink::wrapper::Serial</text>
<text text-anchor="middle" x="74.5" y="-103" font-family="Helvetica,sans-Serif" font-size="10.00">::send_line</text>
</a>
</g>
</g>
<!-- Node4&#45;&gt;Node5 -->
<g id="edge4_Node000004_Node000005" class="edge">
<title>Node4&#45;&gt;Node5</title>
<g id="a_edge4_Node000004_Node000005"><a xlink:title=" ">
<path fill="none" stroke="#63b8ff" d="M186.17,-111C170.64,-111 154.38,-111 139.26,-111"/>
<polygon fill="#63b8ff" stroke="#63b8ff" points="186.25,-114.5 196.25,-111 186.25,-107.5 186.25,-114.5"/>
</a>
</g>
</g>
<!-- Node7 -->
<g id="Node000007" class="node">
<title>Node7</title>
<g id="a_Node000007"><a xlink:href="classunilink_1_1wrapper_1_1UdpClient.html#a926ac38e4174653fda3d00a504cac4c1" target="_top" xlink:title="Enqueue a line (data + &quot;\n&quot;) for transmission.">
<polygon fill="white" stroke="#666666" points="149,-78 0,-78 0,-48 149,-48 149,-78"/>
<text text-anchor="start" x="8" y="-66" font-family="Helvetica,sans-Serif" font-size="10.00">unilink::wrapper::UdpClient</text>
<text text-anchor="middle" x="74.5" y="-55" font-family="Helvetica,sans-Serif" font-size="10.00">::send_line</text>
</a>
</g>
</g>
<!-- Node6&#45;&gt;Node7 -->
<g id="edge6_Node000006_Node000007" class="edge">
<title>Node6&#45;&gt;Node7</title>
<g id="a_edge6_Node000006_Node000007"><a xlink:title=" ">
<path fill="none" stroke="#63b8ff" d="M176.16,-63C167.13,-63 157.99,-63 149.1,-63"/>
<polygon fill="#63b8ff" stroke="#63b8ff" points="176.29,-66.5 186.29,-63 176.29,-59.5 176.29,-66.5"/>
</a>
</g>
</g>
</g>
</svg>

<g id="navigator" transform="translate(0 0)" fill="#404254">
  <rect fill="#f2f5e9" fill-opacity="0.5" stroke="#606060" stroke-width=".5" x="0" y="0" width="60" height="60"/>
  <use id="zoomplus" xlink:href="#zoomPlus" x="17" y="9" onmousedown="handleZoom(evt,'in')"/>
  <use id="zoomminus" xlink:href="#zoomMin" x="42" y="9" onmousedown="handleZoom(evt,'out')"/>
  <use id="reset" xlink:href="#resetDef" x="30" y="36" onmousedown="handleReset()"/>
   <use id="arrowup" xlink:href="#arrowUp" x="0" y="0" onmousedown="handlePan(0,-1)"/>
  <use id="arrowright" xlink:href="#arrowRight" x="0" y="0" onmousedown="handlePan(1,0)"/>
  <use id="arrowdown" xlink:href="#arrowDown" x="0" y="0" onmousedown="handlePan(0,1)"/>
  <use id="arrowleft" xlink:href="#arrowLeft" x="0" y="0" onmousedown="handlePan(-1,0)"/>
</g>
<svg viewBox="0 0 15 15" width="100%" height="30px" preserveAspectRatio="xMaxYMin meet">
 <g id="arrow_out" transform="scale(0.3 0.3)">
  <a xlink:href="namespaceunilink_1_1base_1_1safe__convert_a575f6a399b270deff205277e7b9c3b6c_icgraph_org.svg" target="_base">
   <rect id="button" ry="5" rx="5" y="6" x="6" height="38" width="38"
        fill="#f2f5e9" fill-opacity="0.5" stroke="#606060" stroke-width="1.0"/>
   <path id="arrow"
     d="M 11.500037,31.436501 C 11.940474,20.09759 22.043105,11.32322 32.158766,21.979434 L 37.068811,17.246167 C 37.068811,17.246167 37.088388,32 37.088388,32 L 22.160133,31.978069 C 22.160133,31.978069 26.997745,27.140456 26.997745,27.140456 C 18.528582,18.264221 13.291696,25.230495 11.500037,31.436501 z"
     style="fill:#404040;"/>
  </a>
 </g>
</svg>

<style type='text/css'>
<![CDATA[
[data-mouse-over-selected='false'] { opacity: 0.7; }
[data-mouse-over-selected='true']  { opacity: 1.0; }
]]>
</style>
<script type="application/ecmascript"><![CDATA[
document.addEventListener('DOMContentLoaded', (event) => {
  highlightEdges();
  highlightAdjacentNodes();
});
]]></script>
</svg>
