<?xml version="1.0" encoding="UTF-8" standalone="no"?>
<!DOCTYPE svg PUBLIC "-//W3C//DTD SVG 1.1//EN"
 "http://www.w3.org/Graphics/SVG/1.1/DTD/svg11.dtd">
<!-- Generated by graphviz version 2.43.0 (0)
 -->
<!-- Title: unilink::diagnostics::error_reporting::report_system_error Pages: 1 -->
<svg width="315pt" height="157pt"
 viewBox="0.00 0.00 315.00 156.50" xmlns="http://www.w3.org/2000/svg" xmlns:xlink="http://www.w3.org/1999/xlink">
<g id="graph0" class="graph" transform="scale(1 1) rotate(0) translate(4 152.5)">
<title>unilink::diagnostics::error_reporting::report_system_error</title>
<!-- Node1 -->
<g id="Node000001" class="node">
<title>Node1</title>
<g id="a_Node000001"><a xlink:title="Report system&#45;level error.">
<polygon fill="#999999" stroke="#666666" points="307,-89.5 176,-89.5 176,-48.5 307,-48.5 307,-89.5"/>
<text text-anchor="start" x="184" y="-77.5" font-family="Helvetica,sans-Serif" font-size="10.00">unilink::diagnostics</text>
<text text-anchor="start" x="184" y="-66.5" font-family="Helvetica,sans-Serif" font-size="10.00">::error_reporting::report</text>
<text text-anchor="middle" x="241.5" y="-55.5" font-family="Helvetica,sans-Serif" font-size="10.00">_system_error</text>
</a>
</g>
</g>
<!-- Node1&#45;&gt;Node1 -->
<g id="edge2_Node000001_Node000001" class="edge">
<title>Node1&#45;&gt;Node1</title>
<g id="a_edge2_Node000001_Node000001"><a xlink:title=" ">
<path fill="none" stroke="#63b8ff" d="M270.75,-99.46C266.4,-104.24 256.65,-107.5 241.5,-107.5 217.26,-107.5 206.85,-99.15 210.26,-89.6"/>
<polygon fill="#63b8ff" stroke="#63b8ff" points="274.19,-100.09 272.74,-89.6 267.33,-98.7 274.19,-100.09"/>
</a>
</g>
</g>
<!-- Node2 -->
<g id="Node000002" class="node">
<title>Node2</title>
<g id="a_Node000002"><a xlink:href="structunilink_1_1transport_1_1TcpClient_1_1Impl.html#a13254c366ccd13825a6a803ac09e2b85" target="_top" xlink:title=" ">
<polygon fill="white" stroke="#666666" points="140,-148.5 0,-148.5 0,-107.5 140,-107.5 140,-148.5"/>
<text text-anchor="start" x="8" y="-136.5" font-family="Helvetica,sans-Serif" font-size="10.00">unilink::transport</text>
<text text-anchor="start" x="8" y="-125.5" font-family="Helvetica,sans-Serif" font-size="10.00">::TcpClient::Impl::perform</text>
<text text-anchor="middle" x="70" y="-114.5" font-family="Helvetica,sans-Serif" font-size="10.00">_stop_cleanup</text>
</a>
</g>
</g>
<!-- Node1&#45;&gt;Node2 -->
<g id="edge1_Node000001_Node000002" class="edge">
<title>Node1&#45;&gt;Node2</title>
<g id="a_edge1_Node000001_Node000002"><a xlink:title=" ">
<path fill="none" stroke="#63b8ff" d="M171.74,-92.93C157.89,-97.76 143.44,-102.78 129.96,-107.48"/>
<polygon fill="#63b8ff" stroke="#63b8ff" points="172.92,-96.23 181.22,-89.64 170.62,-89.62 172.92,-96.23"/>
</a>
</g>
</g>
<!-- Node3 -->
<g id="Node000003" class="node">
<title>Node3</title>
<g id="a_Node000003"><a xlink:href="structunilink_1_1transport_1_1TcpClient_1_1Impl.html#a8e7ef20651e41907a00781407b10ecea" target="_top" xlink:title=" ">
<polygon fill="white" stroke="#666666" points="132.5,-89.5 7.5,-89.5 7.5,-48.5 132.5,-48.5 132.5,-89.5"/>
<text text-anchor="start" x="15.5" y="-77.5" font-family="Helvetica,sans-Serif" font-size="10.00">unilink::transport</text>
<text text-anchor="start" x="15.5" y="-66.5" font-family="Helvetica,sans-Serif" font-size="10.00">::TcpClient::Impl::reset</text>
<text text-anchor="middle" x="70" y="-55.5" font-family="Helvetica,sans-Serif" font-size="10.00">_io_objects</text>
</a>
</g>
</g>
<!-- Node1&#45;&gt;Node3 -->
<g id="edge3_Node000001_Node000003" class="edge">
<title>Node1&#45;&gt;Node3</title>
<g id="a_edge3_Node000001_Node000003"><a xlink:title=" ">
<path fill="none" stroke="#63b8ff" d="M165.83,-69C154.72,-69 143.39,-69 132.59,-69"/>
<polygon fill="#63b8ff" stroke="#63b8ff" points="165.94,-72.5 175.94,-69 165.94,-65.5 165.94,-72.5"/>
</a>
</g>
</g>
<!-- Node4 -->
<g id="Node000004" class="node">
<title>Node4</title>
<g id="a_Node000004"><a xlink:href="classunilink_1_1transport_1_1TcpClient.html#a886221c4b9a77e24fa31ceb767aa444a" target="_top" xlink:title=" ">
<polygon fill="white" stroke="#666666" points="120,-30 20,-30 20,0 120,0 120,-30"/>
<text text-anchor="start" x="28" y="-18" font-family="Helvetica,sans-Serif" font-size="10.00">unilink::transport</text>
<text text-anchor="middle" x="70" y="-7" font-family="Helvetica,sans-Serif" font-size="10.00">::TcpClient::start</text>
</a>
</g>
</g>
<!-- Node1&#45;&gt;Node4 -->
<g id="edge4_Node000001_Node000004" class="edge">
<title>Node1&#45;&gt;Node4</title>
<g id="a_edge4_Node000001_Node000004"><a xlink:title=" ">
<path fill="none" stroke="#63b8ff" d="M166.4,-45.39C150.06,-40.19 133.18,-34.81 118.25,-30.05"/>
<polygon fill="#63b8ff" stroke="#63b8ff" points="165.35,-48.73 175.94,-48.43 167.47,-42.06 165.35,-48.73"/>
</a>
</g>
</g>
</g>
</svg>
