<?xml version="1.0" encoding="UTF-8" standalone="no"?>
<!DOCTYPE svg PUBLIC "-//W3C//DTD SVG 1.1//EN"
 "http://www.w3.org/Graphics/SVG/1.1/DTD/svg11.dtd">
<!-- Generated by graphviz version 2.43.0 (0)
 -->
<!-- Title: unilink::base::safe_memory::safe_memcpy Pages: 1 -->
<svg width="324pt" height="265pt"
 viewBox="0.00 0.00 324.00 264.50" xmlns="http://www.w3.org/2000/svg" xmlns:xlink="http://www.w3.org/1999/xlink">

<svg id="main" version="1.1" xmlns="http://www.w3.org/2000/svg" xmlns:xlink="http://www.w3.org/1999/xlink" xml:space="preserve" onload="init(evt)">
<style type="text/css"><![CDATA[
.node, .edge {opacity: 0.7;}
.node.selected, .edge.selected {opacity: 1;}
.edge:hover path { stroke: red; }
.edge:hover polygon { stroke: red; fill: red; }
]]></style>
<script type="application/ecmascript" xlink:href="svg.min.js"/>
<svg id="graph" class="graph">
<g id="graph0" class="graph" transform="scale(1 1) rotate(0) translate(4 260.5)">
<title>unilink::base::safe_memory::safe_memcpy</title>
<!-- Node1 -->
<g id="Node000001" class="node">
<title>Node1</title>
<g id="a_Node000001"><a xlink:title="Safely copy memory with bounds checking.">
<polygon fill="#999999" stroke="#666666" points="316,-143 179,-143 179,-113 316,-113 316,-143"/>
<text text-anchor="start" x="187" y="-131" font-family="Helvetica,sans-Serif" font-size="10.00">unilink::base::safe</text>
<text text-anchor="middle" x="247.5" y="-120" font-family="Helvetica,sans-Serif" font-size="10.00">_memory::safe_memcpy</text>
</a>
</g>
</g>
<!-- Node2 -->
<g id="Node000002" class="node">
<title>Node2</title>
<g id="a_Node000002"><a xlink:href="classunilink_1_1transport_1_1TcpServerSession.html#af4924971969eccb5008bd42ccb302cb9" target="_top" xlink:title=" ">
<polygon fill="white" stroke="#666666" points="128,-256.5 15,-256.5 15,-215.5 128,-215.5 128,-256.5"/>
<text text-anchor="start" x="23" y="-244.5" font-family="Helvetica,sans-Serif" font-size="10.00">unilink::transport</text>
<text text-anchor="start" x="23" y="-233.5" font-family="Helvetica,sans-Serif" font-size="10.00">::TcpServerSession::</text>
<text text-anchor="middle" x="71.5" y="-222.5" font-family="Helvetica,sans-Serif" font-size="10.00">async_write_copy</text>
</a>
</g>
</g>
<!-- Node1&#45;&gt;Node2 -->
<g id="edge1_Node000001_Node000002" class="edge">
<title>Node1&#45;&gt;Node2</title>
<g id="a_edge1_Node000001_Node000002"><a xlink:title=" ">
<path fill="none" stroke="#63b8ff" d="M221.31,-149.76C201.06,-166.54 171.42,-189.57 143,-206 137.24,-209.33 131.04,-212.5 124.8,-215.45"/>
<polygon fill="#63b8ff" stroke="#63b8ff" points="223.7,-152.32 229.11,-143.21 219.2,-146.96 223.7,-152.32"/>
</a>
</g>
</g>
<!-- Node3 -->
<g id="Node000003" class="node">
<title>Node3</title>
<g id="a_Node000003"><a xlink:href="classunilink_1_1transport_1_1Serial.html#a66dcdee06d54ec2370dcdcbafef40875" target="_top" xlink:title=" ">
<polygon fill="white" stroke="#666666" points="143,-197 0,-197 0,-167 143,-167 143,-197"/>
<text text-anchor="start" x="8" y="-185" font-family="Helvetica,sans-Serif" font-size="10.00">unilink::transport</text>
<text text-anchor="middle" x="71.5" y="-174" font-family="Helvetica,sans-Serif" font-size="10.00">::Serial::async_write_copy</text>
</a>
</g>
</g>
<!-- Node1&#45;&gt;Node3 -->
<g id="edge2_Node000001_Node000003" class="edge">
<title>Node1&#45;&gt;Node3</title>
<g id="a_edge2_Node000001_Node000003"><a xlink:title=" ">
<path fill="none" stroke="#63b8ff" d="M188.22,-146.09C166.4,-152.86 141.86,-160.48 121.01,-166.95"/>
<polygon fill="#63b8ff" stroke="#63b8ff" points="189.52,-149.35 198.03,-143.04 187.44,-142.66 189.52,-149.35"/>
</a>
</g>
</g>
<!-- Node4 -->
<g id="Node000004" class="node">
<title>Node4</title>
<g id="a_Node000004"><a xlink:href="classunilink_1_1transport_1_1UdpChannel.html#a753af71ad739e467588e3d6c3af9c5ef" target="_top" xlink:title=" ">
<polygon fill="white" stroke="#666666" points="129.5,-148.5 13.5,-148.5 13.5,-107.5 129.5,-107.5 129.5,-148.5"/>
<text text-anchor="start" x="21.5" y="-136.5" font-family="Helvetica,sans-Serif" font-size="10.00">unilink::transport</text>
<text text-anchor="start" x="21.5" y="-125.5" font-family="Helvetica,sans-Serif" font-size="10.00">::UdpChannel::async</text>
<text text-anchor="middle" x="71.5" y="-114.5" font-family="Helvetica,sans-Serif" font-size="10.00">_write_copy</text>
</a>
</g>
</g>
<!-- Node1&#45;&gt;Node4 -->
<g id="edge3_Node000001_Node000004" class="edge">
<title>Node1&#45;&gt;Node4</title>
<g id="a_edge3_Node000001_Node000004"><a xlink:title=" ">
<path fill="none" stroke="#63b8ff" d="M168.36,-128C155.33,-128 142.04,-128 129.66,-128"/>
<polygon fill="#63b8ff" stroke="#63b8ff" points="168.73,-131.5 178.73,-128 168.73,-124.5 168.73,-131.5"/>
</a>
</g>
</g>
<!-- Node5 -->
<g id="Node000005" class="node">
<title>Node5</title>
<g id="a_Node000005"><a xlink:href="classunilink_1_1transport_1_1UdpChannel.html#a17438bba1b0d13e683aadc1391fb0bcc" target="_top" xlink:title=" ">
<polygon fill="white" stroke="#666666" points="129.5,-89.5 13.5,-89.5 13.5,-48.5 129.5,-48.5 129.5,-89.5"/>
<text text-anchor="start" x="21.5" y="-77.5" font-family="Helvetica,sans-Serif" font-size="10.00">unilink::transport</text>
<text text-anchor="start" x="21.5" y="-66.5" font-family="Helvetica,sans-Serif" font-size="10.00">::UdpChannel::async</text>
<text text-anchor="middle" x="71.5" y="-55.5" font-family="Helvetica,sans-Serif" font-size="10.00">_write_to</text>
</a>
</g>
</g>
<!-- Node1&#45;&gt;Node5 -->
<g id="edge4_Node000001_Node000005" class="edge">
<title>Node1&#45;&gt;Node5</title>
<g id="a_edge4_Node000001_Node000005"><a xlink:title=" ">
<path fill="none" stroke="#63b8ff" d="M192.57,-109.71C172.59,-102.94 149.87,-95.23 129.61,-88.37"/>
<polygon fill="#63b8ff" stroke="#63b8ff" points="191.55,-113.06 202.14,-112.96 193.8,-106.43 191.55,-113.06"/>
</a>
</g>
</g>
<!-- Node6 -->
<g id="Node000006" class="node">
<title>Node6</title>
<g id="a_Node000006"><a xlink:href="namespaceunilink_1_1base_1_1safe__memory.html#a2082b2fb949dd2120cf5d70598c690d8" target="_top" xlink:title="Safely copy memory with bounds checking (overloaded for char*)">
<polygon fill="white" stroke="#666666" points="140,-30 3,-30 3,0 140,0 140,-30"/>
<text text-anchor="start" x="11" y="-18" font-family="Helvetica,sans-Serif" font-size="10.00">unilink::base::safe</text>
<text text-anchor="middle" x="71.5" y="-7" font-family="Helvetica,sans-Serif" font-size="10.00">_memory::safe_memcpy</text>
</a>
</g>
</g>
<!-- Node1&#45;&gt;Node6 -->
<g id="edge5_Node000001_Node000006" class="edge">
<title>Node1&#45;&gt;Node6</title>
<g id="a_edge5_Node000001_Node000006"><a xlink:title=" ">
<path fill="none" stroke="#63b8ff" d="M224.8,-105.37C205.02,-85.83 174.21,-57.98 143,-40 136.59,-36.3 129.53,-33.02 122.44,-30.13"/>
<polygon fill="#63b8ff" stroke="#63b8ff" points="222.53,-108.05 232.07,-112.67 227.49,-103.11 222.53,-108.05"/>
</a>
</g>
</g>
</g>
</svg>
</svg>

<style type='text/css'>
<![CDATA[
[data-mouse-over-selected='false'] { opacity: 0.7; }
[data-mouse-over-selected='true']  { opacity: 1.0; }
]]>
</style>
<script type="application/ecmascript"><![CDATA[
document.addEventListener('DOMContentLoaded', (event) => {
  highlightEdges();
  highlightAdjacentNodes();
});
]]></script>
</svg>
