<?xml version="1.0" encoding="UTF-8" standalone="no"?>
<!DOCTYPE svg PUBLIC "-//W3C//DTD SVG 1.1//EN"
 "http://www.w3.org/Graphics/SVG/1.1/DTD/svg11.dtd">
<!-- Generated by graphviz version 2.43.0 (0)
 -->
<!-- Title: unilink::base::safe_memory::safe_memcpy Pages: 1 -->
<svg width="341pt" height="319pt"
 viewBox="0.00 0.00 341.00 318.50" xmlns="http://www.w3.org/2000/svg" xmlns:xlink="http://www.w3.org/1999/xlink">
<g id="graph0" class="graph" transform="scale(1 1) rotate(0) translate(4 314.5)">
<title>unilink::base::safe_memory::safe_memcpy</title>
<polygon fill="white" stroke="transparent" points="-4,4 -4,-314.5 337,-314.5 337,4 -4,4"/>
<!-- Node1 -->
<g id="node1" class="node">
<title>Node1</title>
<g id="a_node1"><a xlink:title="Safely copy memory with bounds checking.">
<polygon fill="#bfbfbf" stroke="black" points="196,-142.5 196,-172.5 333,-172.5 333,-142.5 196,-142.5"/>
<text text-anchor="start" x="204" y="-160.5" font-family="Helvetica,sans-Serif" font-size="10.00">unilink::base::safe</text>
<text text-anchor="middle" x="264.5" y="-149.5" font-family="Helvetica,sans-Serif" font-size="10.00">_memory::safe_memcpy</text>
</a>
</g>
</g>
<!-- Node2 -->
<g id="node2" class="node">
<title>Node2</title>
<g id="a_node2"><a xlink:href="classunilink_1_1transport_1_1TcpServerSession.html#af4924971969eccb5008bd42ccb302cb9" target="_top" xlink:title=" ">
<polygon fill="white" stroke="black" points="23.5,-269 23.5,-310 136.5,-310 136.5,-269 23.5,-269"/>
<text text-anchor="start" x="31.5" y="-298" font-family="Helvetica,sans-Serif" font-size="10.00">unilink::transport</text>
<text text-anchor="start" x="31.5" y="-287" font-family="Helvetica,sans-Serif" font-size="10.00">::TcpServerSession::</text>
<text text-anchor="middle" x="80" y="-276" font-family="Helvetica,sans-Serif" font-size="10.00">async_write_copy</text>
</a>
</g>
</g>
<!-- Node1&#45;&gt;Node2 -->
<g id="edge1" class="edge">
<title>Node1&#45;&gt;Node2</title>
<path fill="none" stroke="midnightblue" d="M245.2,-180.44C226.03,-203.17 194.04,-237.66 160,-259.5 152.84,-264.1 144.87,-268.15 136.82,-271.67"/>
<polygon fill="midnightblue" stroke="midnightblue" points="247.97,-182.58 251.66,-172.65 242.58,-178.11 247.97,-182.58"/>
</g>
<!-- Node3 -->
<g id="node3" class="node">
<title>Node3</title>
<g id="a_node3"><a xlink:href="classunilink_1_1transport_1_1Serial.html#a66dcdee06d54ec2370dcdcbafef40875" target="_top" xlink:title=" ">
<polygon fill="white" stroke="black" points="8.5,-219.5 8.5,-249.5 151.5,-249.5 151.5,-219.5 8.5,-219.5"/>
<text text-anchor="start" x="16.5" y="-237.5" font-family="Helvetica,sans-Serif" font-size="10.00">unilink::transport</text>
<text text-anchor="middle" x="80" y="-226.5" font-family="Helvetica,sans-Serif" font-size="10.00">::Serial::async_write_copy</text>
</a>
</g>
</g>
<!-- Node1&#45;&gt;Node3 -->
<g id="edge2" class="edge">
<title>Node1&#45;&gt;Node3</title>
<path fill="none" stroke="midnightblue" d="M228.39,-177.46C208.69,-188.15 183.43,-201.03 160,-210.5 152.16,-213.67 143.74,-216.65 135.42,-219.37"/>
<polygon fill="midnightblue" stroke="midnightblue" points="230.22,-180.45 237.31,-172.57 226.86,-174.31 230.22,-180.45"/>
</g>
<!-- Node4 -->
<g id="node4" class="node">
<title>Node4</title>
<g id="a_node4"><a xlink:href="classunilink_1_1transport_1_1TcpClient.html#a996369a17ecad069edd0c20c19689e9d" target="_top" xlink:title=" ">
<polygon fill="white" stroke="black" points="0,-170.5 0,-200.5 160,-200.5 160,-170.5 0,-170.5"/>
<text text-anchor="start" x="8" y="-188.5" font-family="Helvetica,sans-Serif" font-size="10.00">unilink::transport</text>
<text text-anchor="middle" x="80" y="-177.5" font-family="Helvetica,sans-Serif" font-size="10.00">::TcpClient::async_write_copy</text>
</a>
</g>
</g>
<!-- Node1&#45;&gt;Node4 -->
<g id="edge3" class="edge">
<title>Node1&#45;&gt;Node4</title>
<path fill="none" stroke="midnightblue" d="M185.66,-169.44C177.26,-170.73 168.71,-172.04 160.3,-173.33"/>
<polygon fill="midnightblue" stroke="midnightblue" points="186.45,-172.86 195.8,-167.89 185.39,-165.94 186.45,-172.86"/>
</g>
<!-- Node5 -->
<g id="node5" class="node">
<title>Node5</title>
<g id="a_node5"><a xlink:href="classunilink_1_1transport_1_1UdpChannel.html#a753af71ad739e467588e3d6c3af9c5ef" target="_top" xlink:title=" ">
<polygon fill="white" stroke="black" points="22,-110 22,-151 138,-151 138,-110 22,-110"/>
<text text-anchor="start" x="30" y="-139" font-family="Helvetica,sans-Serif" font-size="10.00">unilink::transport</text>
<text text-anchor="start" x="30" y="-128" font-family="Helvetica,sans-Serif" font-size="10.00">::UdpChannel::async</text>
<text text-anchor="middle" x="80" y="-117" font-family="Helvetica,sans-Serif" font-size="10.00">_write_copy</text>
</a>
</g>
</g>
<!-- Node1&#45;&gt;Node5 -->
<g id="edge4" class="edge">
<title>Node1&#45;&gt;Node5</title>
<path fill="none" stroke="midnightblue" d="M185.46,-145.95C169.56,-143.6 153.12,-141.17 138.12,-138.95"/>
<polygon fill="midnightblue" stroke="midnightblue" points="185.4,-149.48 195.8,-147.48 186.42,-142.56 185.4,-149.48"/>
</g>
<!-- Node6 -->
<g id="node6" class="node">
<title>Node6</title>
<g id="a_node6"><a xlink:href="classunilink_1_1transport_1_1UdpChannel.html#a17438bba1b0d13e683aadc1391fb0bcc" target="_top" xlink:title=" ">
<polygon fill="white" stroke="black" points="22,-50 22,-91 138,-91 138,-50 22,-50"/>
<text text-anchor="start" x="30" y="-79" font-family="Helvetica,sans-Serif" font-size="10.00">unilink::transport</text>
<text text-anchor="start" x="30" y="-68" font-family="Helvetica,sans-Serif" font-size="10.00">::UdpChannel::async</text>
<text text-anchor="middle" x="80" y="-57" font-family="Helvetica,sans-Serif" font-size="10.00">_write_to</text>
</a>
</g>
</g>
<!-- Node1&#45;&gt;Node6 -->
<g id="edge5" class="edge">
<title>Node1&#45;&gt;Node6</title>
<path fill="none" stroke="midnightblue" d="M229.78,-137.36C209.85,-125.85 183.9,-111.55 160,-100.5 152.94,-97.24 145.42,-94.04 137.93,-91.02"/>
<polygon fill="midnightblue" stroke="midnightblue" points="228.09,-140.42 238.49,-142.43 231.61,-134.37 228.09,-140.42"/>
</g>
<!-- Node7 -->
<g id="node7" class="node">
<title>Node7</title>
<g id="a_node7"><a xlink:href="namespaceunilink_1_1base_1_1safe__memory.html#a2082b2fb949dd2120cf5d70598c690d8" target="_top" xlink:title="Safely copy memory with bounds checking (overloaded for char*)">
<polygon fill="white" stroke="black" points="11.5,-0.5 11.5,-30.5 148.5,-30.5 148.5,-0.5 11.5,-0.5"/>
<text text-anchor="start" x="19.5" y="-18.5" font-family="Helvetica,sans-Serif" font-size="10.00">unilink::base::safe</text>
<text text-anchor="middle" x="80" y="-7.5" font-family="Helvetica,sans-Serif" font-size="10.00">_memory::safe_memcpy</text>
</a>
</g>
</g>
<!-- Node1&#45;&gt;Node7 -->
<g id="edge6" class="edge">
<title>Node1&#45;&gt;Node7</title>
<path fill="none" stroke="midnightblue" d="M248.24,-133.57C230.21,-107.14 197.83,-65.1 160,-40.5 154.09,-36.66 147.55,-33.37 140.83,-30.57"/>
<polygon fill="midnightblue" stroke="midnightblue" points="245.54,-135.83 254,-142.21 251.36,-131.95 245.54,-135.83"/>
</g>
</g>
</svg>
