<?xml version="1.0" encoding="UTF-8" standalone="no"?>
<!DOCTYPE svg PUBLIC "-//W3C//DTD SVG 1.1//EN"
 "http://www.w3.org/Graphics/SVG/1.1/DTD/svg11.dtd">
<!-- Generated by graphviz version 2.43.0 (0)
 -->
<!-- Title: unilink/framer/packet_framer.cc Pages: 1 -->
<svg width="702pt" height="280pt"
 viewBox="0.00 0.00 701.50 280.00" xmlns="http://www.w3.org/2000/svg" xmlns:xlink="http://www.w3.org/1999/xlink">
<g id="graph0" class="graph" transform="scale(1 1) rotate(0) translate(4 276)">
<title>unilink/framer/packet_framer.cc</title>
<!-- Node1 -->
<g id="Node000001" class="node">
<title>Node1</title>
<g id="a_Node000001"><a xlink:title=" ">
<polygon fill="#999999" stroke="#666666" points="620.5,-272 499.5,-272 499.5,-242 620.5,-242 620.5,-272"/>
<text text-anchor="start" x="507.5" y="-260" font-family="Helvetica,sans-Serif" font-size="10.00">unilink/framer/packet</text>
<text text-anchor="middle" x="560" y="-249" font-family="Helvetica,sans-Serif" font-size="10.00">_framer.cc</text>
</a>
</g>
</g>
<!-- Node2 -->
<g id="Node000002" class="node">
<title>Node2</title>
<g id="a_Node000002"><a xlink:href="packet__framer_8hpp.html" target="_top" xlink:title=" ">
<polygon fill="white" stroke="#666666" points="444.5,-206 323.5,-206 323.5,-176 444.5,-176 444.5,-206"/>
<text text-anchor="start" x="331.5" y="-194" font-family="Helvetica,sans-Serif" font-size="10.00">unilink/framer/packet</text>
<text text-anchor="middle" x="384" y="-183" font-family="Helvetica,sans-Serif" font-size="10.00">_framer.hpp</text>
</a>
</g>
</g>
<!-- Node1&#45;&gt;Node2 -->
<g id="edge1_Node000001_Node000002" class="edge">
<title>Node1&#45;&gt;Node2</title>
<g id="a_edge1_Node000001_Node000002"><a xlink:title=" ">
<path fill="none" stroke="#63b8ff" d="M521.38,-241.95C495.13,-232.41 460.21,-219.71 432.15,-209.51"/>
<polygon fill="#63b8ff" stroke="#63b8ff" points="433.13,-206.14 422.53,-206.01 430.74,-212.72 433.13,-206.14"/>
</a>
</g>
</g>
<!-- Node10 -->
<g id="Node000010" class="node">
<title>Node10</title>
<g id="a_Node000010"><a xlink:title=" ">
<polygon fill="#e0e0e0" stroke="#999999" points="443.5,-19 378.5,-19 378.5,0 443.5,0 443.5,-19"/>
<text text-anchor="middle" x="411" y="-7" font-family="Helvetica,sans-Serif" font-size="10.00">stdexcept</text>
</a>
</g>
</g>
<!-- Node1&#45;&gt;Node10 -->
<g id="edge15_Node000001_Node000010" class="edge">
<title>Node1&#45;&gt;Node10</title>
<g id="a_edge15_Node000001_Node000010"><a xlink:title=" ">
<path fill="none" stroke="#63b8ff" d="M556.83,-241.83C546.82,-197.25 516.15,-62.36 510,-55 495.63,-37.81 473.25,-26.98 453.4,-20.32"/>
<polygon fill="#63b8ff" stroke="#63b8ff" points="454.2,-16.91 443.61,-17.29 452.13,-23.59 454.2,-16.91"/>
</a>
</g>
</g>
<!-- Node12 -->
<g id="Node000012" class="node">
<title>Node12</title>
<g id="a_Node000012"><a xlink:title=" ">
<polygon fill="#e0e0e0" stroke="#999999" points="622,-200.5 558,-200.5 558,-181.5 622,-181.5 622,-200.5"/>
<text text-anchor="middle" x="590" y="-188.5" font-family="Helvetica,sans-Serif" font-size="10.00">algorithm</text>
</a>
</g>
</g>
<!-- Node1&#45;&gt;Node12 -->
<g id="edge13_Node000001_Node000012" class="edge">
<title>Node1&#45;&gt;Node12</title>
<g id="a_edge13_Node000001_Node000012"><a xlink:title=" ">
<path fill="none" stroke="#63b8ff" d="M566.66,-241.8C571.06,-232.41 576.87,-220.02 581.59,-209.95"/>
<polygon fill="#63b8ff" stroke="#63b8ff" points="584.78,-211.38 585.85,-200.84 578.44,-208.41 584.78,-211.38"/>
</a>
</g>
</g>
<!-- Node13 -->
<g id="Node000013" class="node">
<title>Node13</title>
<g id="a_Node000013"><a xlink:title=" ">
<polygon fill="#e0e0e0" stroke="#999999" points="693.5,-200.5 640.5,-200.5 640.5,-181.5 693.5,-181.5 693.5,-200.5"/>
<text text-anchor="middle" x="667" y="-188.5" font-family="Helvetica,sans-Serif" font-size="10.00">iterator</text>
</a>
</g>
</g>
<!-- Node1&#45;&gt;Node13 -->
<g id="edge14_Node000001_Node000013" class="edge">
<title>Node1&#45;&gt;Node13</title>
<g id="a_edge14_Node000001_Node000013"><a xlink:title=" ">
<path fill="none" stroke="#63b8ff" d="M583.48,-241.95C601.5,-231.18 626.24,-216.38 644.11,-205.69"/>
<polygon fill="#63b8ff" stroke="#63b8ff" points="645.97,-208.65 652.76,-200.52 642.38,-202.65 645.97,-208.65"/>
</a>
</g>
</g>
<!-- Node3 -->
<g id="Node000003" class="node">
<title>Node3</title>
<g id="a_Node000003"><a xlink:title=" ">
<polygon fill="#e0e0e0" stroke="#999999" points="501.5,-79.5 454.5,-79.5 454.5,-60.5 501.5,-60.5 501.5,-79.5"/>
<text text-anchor="middle" x="478" y="-67.5" font-family="Helvetica,sans-Serif" font-size="10.00">vector</text>
</a>
</g>
</g>
<!-- Node2&#45;&gt;Node3 -->
<g id="edge2_Node000002_Node000003" class="edge">
<title>Node2&#45;&gt;Node3</title>
<g id="a_edge2_Node000002_Node000003"><a xlink:title=" ">
<path fill="none" stroke="#63b8ff" d="M395.15,-175.88C412.57,-153.83 446.17,-111.29 464.79,-87.73"/>
<polygon fill="#63b8ff" stroke="#63b8ff" points="467.67,-89.73 471.12,-79.71 462.17,-85.39 467.67,-89.73"/>
</a>
</g>
</g>
<!-- Node4 -->
<g id="Node000004" class="node">
<title>Node4</title>
<g id="a_Node000004"><a xlink:href="visibility_8hpp.html" target="_top" xlink:title=" ">
<polygon fill="white" stroke="#666666" points="140,-79.5 0,-79.5 0,-60.5 140,-60.5 140,-79.5"/>
<text text-anchor="middle" x="70" y="-67.5" font-family="Helvetica,sans-Serif" font-size="10.00">unilink/base/visibility.hpp</text>
</a>
</g>
</g>
<!-- Node2&#45;&gt;Node4 -->
<g id="edge3_Node000002_Node000004" class="edge">
<title>Node2&#45;&gt;Node4</title>
<g id="a_edge3_Node000002_Node000004"><a xlink:title=" ">
<path fill="none" stroke="#63b8ff" d="M347.06,-176C284.99,-152.48 160.83,-105.42 102.14,-83.18"/>
<polygon fill="#63b8ff" stroke="#63b8ff" points="103.23,-79.85 92.64,-79.58 100.75,-86.4 103.23,-79.85"/>
</a>
</g>
</g>
<!-- Node5 -->
<g id="Node000005" class="node">
<title>Node5</title>
<g id="a_Node000005"><a xlink:href="iframer_8hpp.html" target="_top" xlink:title=" ">
<polygon fill="white" stroke="#666666" points="411.5,-140 266.5,-140 266.5,-121 411.5,-121 411.5,-140"/>
<text text-anchor="middle" x="339" y="-128" font-family="Helvetica,sans-Serif" font-size="10.00">unilink/framer/iframer.hpp</text>
</a>
</g>
</g>
<!-- Node2&#45;&gt;Node5 -->
<g id="edge4_Node000002_Node000005" class="edge">
<title>Node2&#45;&gt;Node5</title>
<g id="a_edge4_Node000002_Node000005"><a xlink:title=" ">
<path fill="none" stroke="#63b8ff" d="M373.11,-175.84C366.71,-167.52 358.58,-156.96 351.87,-148.23"/>
<polygon fill="#63b8ff" stroke="#63b8ff" points="354.61,-146.06 345.74,-140.27 349.07,-150.33 354.61,-146.06"/>
</a>
</g>
</g>
<!-- Node5&#45;&gt;Node3 -->
<g id="edge7_Node000005_Node000003" class="edge">
<title>Node5&#45;&gt;Node3</title>
<g id="a_edge7_Node000005_Node000003"><a xlink:title=" ">
<path fill="none" stroke="#63b8ff" d="M359.33,-120.99C380.68,-112.05 415.21,-97.57 445,-85 446.16,-84.51 447.34,-84.01 448.54,-83.5"/>
<polygon fill="#63b8ff" stroke="#63b8ff" points="449.92,-86.72 457.76,-79.6 447.19,-80.28 449.92,-86.72"/>
</a>
</g>
</g>
<!-- Node5&#45;&gt;Node4 -->
<g id="edge8_Node000005_Node000004" class="edge">
<title>Node5&#45;&gt;Node4</title>
<g id="a_edge8_Node000005_Node000004"><a xlink:title=" ">
<path fill="none" stroke="#63b8ff" d="M299.89,-120.99C252.07,-110.6 171.13,-92.99 119.15,-81.69"/>
<polygon fill="#63b8ff" stroke="#63b8ff" points="119.68,-78.22 109.16,-79.52 118.19,-85.06 119.68,-78.22"/>
</a>
</g>
</g>
<!-- Node6 -->
<g id="Node000006" class="node">
<title>Node6</title>
<g id="a_Node000006"><a xlink:title=" ">
<polygon fill="#e0e0e0" stroke="#999999" points="359.5,-79.5 294.5,-79.5 294.5,-60.5 359.5,-60.5 359.5,-79.5"/>
<text text-anchor="middle" x="327" y="-67.5" font-family="Helvetica,sans-Serif" font-size="10.00">functional</text>
</a>
</g>
</g>
<!-- Node5&#45;&gt;Node6 -->
<g id="edge5_Node000005_Node000006" class="edge">
<title>Node5&#45;&gt;Node6</title>
<g id="a_edge5_Node000005_Node000006"><a xlink:title=" ">
<path fill="none" stroke="#63b8ff" d="M337.23,-120.87C335.55,-112.66 332.96,-100.04 330.81,-89.55"/>
<polygon fill="#63b8ff" stroke="#63b8ff" points="334.22,-88.76 328.78,-79.67 327.36,-90.17 334.22,-88.76"/>
</a>
</g>
</g>
<!-- Node7 -->
<g id="Node000007" class="node">
<title>Node7</title>
<g id="a_Node000007"><a xlink:title=" ">
<polygon fill="#e0e0e0" stroke="#999999" points="436,-79.5 378,-79.5 378,-60.5 436,-60.5 436,-79.5"/>
<text text-anchor="middle" x="407" y="-67.5" font-family="Helvetica,sans-Serif" font-size="10.00">memory</text>
</a>
</g>
</g>
<!-- Node5&#45;&gt;Node7 -->
<g id="edge6_Node000005_Node000007" class="edge">
<title>Node5&#45;&gt;Node7</title>
<g id="a_edge6_Node000005_Node000007"><a xlink:title=" ">
<path fill="none" stroke="#63b8ff" d="M349.03,-120.87C359.58,-111.8 376.39,-97.34 389.19,-86.32"/>
<polygon fill="#63b8ff" stroke="#63b8ff" points="391.63,-88.84 396.93,-79.67 387.06,-83.54 391.63,-88.84"/>
</a>
</g>
</g>
<!-- Node8 -->
<g id="Node000008" class="node">
<title>Node8</title>
<g id="a_Node000008"><a xlink:href="safe__span_8hpp.html" target="_top" xlink:title=" ">
<polygon fill="white" stroke="#666666" points="276,-85 158,-85 158,-55 276,-55 276,-85"/>
<text text-anchor="start" x="166" y="-73" font-family="Helvetica,sans-Serif" font-size="10.00">unilink/memory/safe</text>
<text text-anchor="middle" x="217" y="-62" font-family="Helvetica,sans-Serif" font-size="10.00">_span.hpp</text>
</a>
</g>
</g>
<!-- Node5&#45;&gt;Node8 -->
<g id="edge9_Node000005_Node000008" class="edge">
<title>Node5&#45;&gt;Node8</title>
<g id="a_edge9_Node000005_Node000008"><a xlink:title=" ">
<path fill="none" stroke="#63b8ff" d="M321.26,-120.99C304.14,-112.79 277.66,-100.09 255.68,-89.55"/>
<polygon fill="#63b8ff" stroke="#63b8ff" points="257.1,-86.35 246.57,-85.18 254.07,-92.66 257.1,-86.35"/>
</a>
</g>
</g>
<!-- Node9 -->
<g id="Node000009" class="node">
<title>Node9</title>
<g id="a_Node000009"><a xlink:title=" ">
<polygon fill="#e0e0e0" stroke="#999999" points="281,-19 231,-19 231,0 281,0 281,-19"/>
<text text-anchor="middle" x="256" y="-7" font-family="Helvetica,sans-Serif" font-size="10.00">cstdint</text>
</a>
</g>
</g>
<!-- Node8&#45;&gt;Node9 -->
<g id="edge10_Node000008_Node000009" class="edge">
<title>Node8&#45;&gt;Node9</title>
<g id="a_edge10_Node000008_Node000009"><a xlink:title=" ">
<path fill="none" stroke="#63b8ff" d="M226.44,-54.84C231.87,-46.69 238.73,-36.4 244.48,-27.78"/>
<polygon fill="#63b8ff" stroke="#63b8ff" points="247.52,-29.53 250.16,-19.27 241.7,-25.65 247.52,-29.53"/>
</a>
</g>
</g>
<!-- Node8&#45;&gt;Node10 -->
<g id="edge11_Node000008_Node000010" class="edge">
<title>Node8&#45;&gt;Node10</title>
<g id="a_edge11_Node000008_Node000010"><a xlink:title=" ">
<path fill="none" stroke="#63b8ff" d="M263.47,-54.99C296.95,-44.89 341.57,-31.44 372.94,-21.98"/>
<polygon fill="#63b8ff" stroke="#63b8ff" points="374.07,-25.29 382.63,-19.05 372.05,-18.59 374.07,-25.29"/>
</a>
</g>
</g>
<!-- Node11 -->
<g id="Node000011" class="node">
<title>Node11</title>
<g id="a_Node000011"><a xlink:title=" ">
<polygon fill="#e0e0e0" stroke="#999999" points="212.5,-19 143.5,-19 143.5,0 212.5,0 212.5,-19"/>
<text text-anchor="middle" x="178" y="-7" font-family="Helvetica,sans-Serif" font-size="10.00">type_traits</text>
</a>
</g>
</g>
<!-- Node8&#45;&gt;Node11 -->
<g id="edge12_Node000008_Node000011" class="edge">
<title>Node8&#45;&gt;Node11</title>
<g id="a_edge12_Node000008_Node000011"><a xlink:title=" ">
<path fill="none" stroke="#63b8ff" d="M207.56,-54.84C202.13,-46.69 195.27,-36.4 189.52,-27.78"/>
<polygon fill="#63b8ff" stroke="#63b8ff" points="192.3,-25.65 183.84,-19.27 186.48,-29.53 192.3,-25.65"/>
</a>
</g>
</g>
</g>
</svg>
