<?xml version="1.0" encoding="UTF-8" standalone="no"?>
<!DOCTYPE svg PUBLIC "-//W3C//DTD SVG 1.1//EN"
 "http://www.w3.org/Graphics/SVG/1.1/DTD/svg11.dtd">
<!-- Generated by graphviz version 2.43.0 (0)
 -->
<!-- Title: unilink/transport/tcp_client/reconnect_policy.hpp Pages: 1 -->
<svg width="787pt" height="173pt"
 viewBox="0.00 0.00 787.00 173.00" xmlns="http://www.w3.org/2000/svg" xmlns:xlink="http://www.w3.org/1999/xlink">
<g id="graph0" class="graph" transform="scale(1 1) rotate(0) translate(4 169)">
<title>unilink/transport/tcp_client/reconnect_policy.hpp</title>
<polygon fill="white" stroke="transparent" points="-4,4 -4,-169 783,-169 783,4 -4,4"/>
<!-- Node1 -->
<g id="node1" class="node">
<title>Node1</title>
<g id="a_node1"><a xlink:title=" ">
<polygon fill="#bfbfbf" stroke="black" points="389,-134.5 389,-164.5 543,-164.5 543,-134.5 389,-134.5"/>
<text text-anchor="start" x="397" y="-152.5" font-family="Helvetica,sans-Serif" font-size="10.00">unilink/transport/tcp</text>
<text text-anchor="middle" x="466" y="-141.5" font-family="Helvetica,sans-Serif" font-size="10.00">_client/reconnect_policy.hpp</text>
</a>
</g>
</g>
<!-- Node2 -->
<g id="node2" class="node">
<title>Node2</title>
<g id="a_node2"><a xlink:title=" ">
<polygon fill="white" stroke="#bfbfbf" points="0,-6 0,-25 64,-25 64,-6 0,-6"/>
<text text-anchor="middle" x="32" y="-13" font-family="Helvetica,sans-Serif" font-size="10.00">algorithm</text>
</a>
</g>
</g>
<!-- Node1&#45;&gt;Node2 -->
<g id="edge1" class="edge">
<title>Node1&#45;&gt;Node2</title>
<path fill="none" stroke="midnightblue" d="M388.78,-142.43C329.04,-136 244.97,-123.14 175,-98 128.33,-81.23 79.22,-49.75 52.43,-31.2"/>
<polygon fill="midnightblue" stroke="midnightblue" points="54.11,-28.11 43.92,-25.23 50.09,-33.84 54.11,-28.11"/>
</g>
<!-- Node3 -->
<g id="node3" class="node">
<title>Node3</title>
<g id="a_node3"><a xlink:title=" ">
<polygon fill="white" stroke="#bfbfbf" points="82,-6 82,-25 132,-25 132,-6 82,-6"/>
<text text-anchor="middle" x="107" y="-13" font-family="Helvetica,sans-Serif" font-size="10.00">chrono</text>
</a>
</g>
</g>
<!-- Node1&#45;&gt;Node3 -->
<g id="edge2" class="edge">
<title>Node1&#45;&gt;Node3</title>
<path fill="none" stroke="midnightblue" d="M388.88,-138.93C342.45,-131.44 282.88,-118.72 233,-98 191.61,-80.8 148.95,-49.92 125.42,-31.51"/>
<polygon fill="midnightblue" stroke="midnightblue" points="127.38,-28.6 117.38,-25.11 123.03,-34.08 127.38,-28.6"/>
</g>
<!-- Node4 -->
<g id="node4" class="node">
<title>Node4</title>
<g id="a_node4"><a xlink:title=" ">
<polygon fill="white" stroke="#bfbfbf" points="368.5,-73 368.5,-92 415.5,-92 415.5,-73 368.5,-73"/>
<text text-anchor="middle" x="392" y="-80" font-family="Helvetica,sans-Serif" font-size="10.00">cmath</text>
</a>
</g>
</g>
<!-- Node1&#45;&gt;Node4 -->
<g id="edge3" class="edge">
<title>Node1&#45;&gt;Node4</title>
<path fill="none" stroke="midnightblue" d="M449.94,-134.4C438.06,-123.96 421.89,-109.75 409.64,-99"/>
<polygon fill="midnightblue" stroke="midnightblue" points="411.72,-96.16 401.9,-92.19 407.1,-101.42 411.72,-96.16"/>
</g>
<!-- Node5 -->
<g id="node5" class="node">
<title>Node5</title>
<g id="a_node5"><a xlink:title=" ">
<polygon fill="white" stroke="#bfbfbf" points="433.5,-73 433.5,-92 498.5,-92 498.5,-73 433.5,-73"/>
<text text-anchor="middle" x="466" y="-80" font-family="Helvetica,sans-Serif" font-size="10.00">functional</text>
</a>
</g>
</g>
<!-- Node1&#45;&gt;Node5 -->
<g id="edge4" class="edge">
<title>Node1&#45;&gt;Node5</title>
<path fill="none" stroke="midnightblue" d="M466,-134.4C466,-125.06 466,-112.71 466,-102.52"/>
<polygon fill="midnightblue" stroke="midnightblue" points="469.5,-102.19 466,-92.19 462.5,-102.19 469.5,-102.19"/>
</g>
<!-- Node6 -->
<g id="node6" class="node">
<title>Node6</title>
<g id="a_node6"><a xlink:title=" ">
<polygon fill="white" stroke="#bfbfbf" points="517,-73 517,-92 575,-92 575,-73 517,-73"/>
<text text-anchor="middle" x="546" y="-80" font-family="Helvetica,sans-Serif" font-size="10.00">memory</text>
</a>
</g>
</g>
<!-- Node1&#45;&gt;Node6 -->
<g id="edge5" class="edge">
<title>Node1&#45;&gt;Node6</title>
<path fill="none" stroke="midnightblue" d="M483.36,-134.4C496.33,-123.86 514.03,-109.48 527.31,-98.69"/>
<polygon fill="midnightblue" stroke="midnightblue" points="529.74,-101.22 535.3,-92.19 525.33,-95.78 529.74,-101.22"/>
</g>
<!-- Node7 -->
<g id="node7" class="node">
<title>Node7</title>
<g id="a_node7"><a xlink:title=" ">
<polygon fill="white" stroke="#bfbfbf" points="593,-73 593,-92 641,-92 641,-73 593,-73"/>
<text text-anchor="middle" x="617" y="-80" font-family="Helvetica,sans-Serif" font-size="10.00">mutex</text>
</a>
</g>
</g>
<!-- Node1&#45;&gt;Node7 -->
<g id="edge6" class="edge">
<title>Node1&#45;&gt;Node7</title>
<path fill="none" stroke="midnightblue" d="M499.1,-134.44C522.77,-124.35 555.38,-110.41 584,-98 585.36,-97.41 586.76,-96.8 588.17,-96.19"/>
<polygon fill="midnightblue" stroke="midnightblue" points="589.71,-99.33 597.47,-92.12 586.91,-92.92 589.71,-99.33"/>
</g>
<!-- Node8 -->
<g id="node8" class="node">
<title>Node8</title>
<g id="a_node8"><a xlink:title=" ">
<polygon fill="white" stroke="#bfbfbf" points="659,-73 659,-92 713,-92 713,-73 659,-73"/>
<text text-anchor="middle" x="686" y="-80" font-family="Helvetica,sans-Serif" font-size="10.00">random</text>
</a>
</g>
</g>
<!-- Node1&#45;&gt;Node8 -->
<g id="edge7" class="edge">
<title>Node1&#45;&gt;Node8</title>
<path fill="none" stroke="midnightblue" d="M523.7,-134.48C560.22,-125.16 608.25,-112.08 650,-98 652.13,-97.28 654.31,-96.51 656.5,-95.7"/>
<polygon fill="midnightblue" stroke="midnightblue" points="657.9,-98.91 665.97,-92.04 655.38,-92.38 657.9,-98.91"/>
</g>
<!-- Node9 -->
<g id="node9" class="node">
<title>Node9</title>
<g id="a_node9"><a xlink:title=" ">
<polygon fill="white" stroke="#bfbfbf" points="731,-73 731,-92 779,-92 779,-73 731,-73"/>
<text text-anchor="middle" x="755" y="-80" font-family="Helvetica,sans-Serif" font-size="10.00">thread</text>
</a>
</g>
</g>
<!-- Node1&#45;&gt;Node9 -->
<g id="edge8" class="edge">
<title>Node1&#45;&gt;Node9</title>
<path fill="none" stroke="midnightblue" d="M543.27,-137.79C594.65,-129.56 663.22,-116.46 722,-98 723.93,-97.4 725.89,-96.71 727.85,-95.98"/>
<polygon fill="midnightblue" stroke="midnightblue" points="729.53,-99.08 737.46,-92.06 726.88,-92.6 729.53,-99.08"/>
</g>
<!-- Node10 -->
<g id="node10" class="node">
<title>Node10</title>
<g id="a_node10"><a xlink:href="error__types_8hpp.html" target="_top" xlink:title=" ">
<polygon fill="white" stroke="black" points="242,-67.5 242,-97.5 350,-97.5 350,-67.5 242,-67.5"/>
<text text-anchor="start" x="250" y="-85.5" font-family="Helvetica,sans-Serif" font-size="10.00">unilink/diagnostics</text>
<text text-anchor="middle" x="296" y="-74.5" font-family="Helvetica,sans-Serif" font-size="10.00">/error_types.hpp</text>
</a>
</g>
</g>
<!-- Node1&#45;&gt;Node10 -->
<g id="edge9" class="edge">
<title>Node1&#45;&gt;Node10</title>
<path fill="none" stroke="midnightblue" d="M429.11,-134.4C403.61,-124.64 369.48,-111.59 342.17,-101.15"/>
<polygon fill="midnightblue" stroke="midnightblue" points="343.41,-97.88 332.82,-97.58 340.91,-104.42 343.41,-97.88"/>
</g>
<!-- Node10&#45;&gt;Node2 -->
<g id="edge10" class="edge">
<title>Node10&#45;&gt;Node2</title>
<path fill="none" stroke="midnightblue" d="M241.93,-71.11C196.49,-61.93 130.01,-47.48 73,-31 70.21,-30.19 67.34,-29.3 64.46,-28.37"/>
<polygon fill="midnightblue" stroke="midnightblue" points="65.43,-25 54.83,-25.11 63.18,-31.63 65.43,-25"/>
</g>
<!-- Node10&#45;&gt;Node3 -->
<g id="edge12" class="edge">
<title>Node10&#45;&gt;Node3</title>
<path fill="none" stroke="midnightblue" d="M249.17,-67.42C218.22,-57.83 176.9,-44.47 141,-31 139.35,-30.38 137.66,-29.73 135.96,-29.05"/>
<polygon fill="midnightblue" stroke="midnightblue" points="136.88,-25.65 126.3,-25.08 134.22,-32.12 136.88,-25.65"/>
</g>
<!-- Node11 -->
<g id="node11" class="node">
<title>Node11</title>
<g id="a_node11"><a xlink:title=" ">
<polygon fill="white" stroke="#bfbfbf" points="241.5,-0.5 241.5,-30.5 350.5,-30.5 350.5,-0.5 241.5,-0.5"/>
<text text-anchor="start" x="249.5" y="-18.5" font-family="Helvetica,sans-Serif" font-size="10.00">boost/system/error</text>
<text text-anchor="middle" x="296" y="-7.5" font-family="Helvetica,sans-Serif" font-size="10.00">_code.hpp</text>
</a>
</g>
</g>
<!-- Node10&#45;&gt;Node11 -->
<g id="edge11" class="edge">
<title>Node10&#45;&gt;Node11</title>
<path fill="none" stroke="midnightblue" d="M296,-67.4C296,-59.64 296,-49.81 296,-40.86"/>
<polygon fill="midnightblue" stroke="midnightblue" points="299.5,-40.58 296,-30.58 292.5,-40.58 299.5,-40.58"/>
</g>
<!-- Node12 -->
<g id="node12" class="node">
<title>Node12</title>
<g id="a_node12"><a xlink:title=" ">
<polygon fill="white" stroke="#bfbfbf" points="369,-6 369,-25 419,-25 419,-6 369,-6"/>
<text text-anchor="middle" x="394" y="-13" font-family="Helvetica,sans-Serif" font-size="10.00">cstdint</text>
</a>
</g>
</g>
<!-- Node10&#45;&gt;Node12 -->
<g id="edge13" class="edge">
<title>Node10&#45;&gt;Node12</title>
<path fill="none" stroke="midnightblue" d="M317.26,-67.4C333.7,-56.5 356.34,-41.48 372.77,-30.58"/>
<polygon fill="midnightblue" stroke="midnightblue" points="374.78,-33.45 381.17,-25.01 370.91,-27.62 374.78,-33.45"/>
</g>
<!-- Node13 -->
<g id="node13" class="node">
<title>Node13</title>
<g id="a_node13"><a xlink:title=" ">
<polygon fill="white" stroke="#bfbfbf" points="437,-6 437,-25 481,-25 481,-6 437,-6"/>
<text text-anchor="middle" x="459" y="-13" font-family="Helvetica,sans-Serif" font-size="10.00">ctime</text>
</a>
</g>
</g>
<!-- Node10&#45;&gt;Node13 -->
<g id="edge14" class="edge">
<title>Node10&#45;&gt;Node13</title>
<path fill="none" stroke="midnightblue" d="M334.99,-67.42C361.43,-57.67 397.06,-44.14 428,-31 429.37,-30.42 430.76,-29.81 432.17,-29.19"/>
<polygon fill="midnightblue" stroke="midnightblue" points="433.74,-32.33 441.39,-25 430.84,-25.95 433.74,-32.33"/>
</g>
<!-- Node14 -->
<g id="node14" class="node">
<title>Node14</title>
<g id="a_node14"><a xlink:title=" ">
<polygon fill="white" stroke="#bfbfbf" points="499,-6 499,-25 555,-25 555,-6 499,-6"/>
<text text-anchor="middle" x="527" y="-13" font-family="Helvetica,sans-Serif" font-size="10.00">iomanip</text>
</a>
</g>
</g>
<!-- Node10&#45;&gt;Node14 -->
<g id="edge15" class="edge">
<title>Node10&#45;&gt;Node14</title>
<path fill="none" stroke="midnightblue" d="M350.02,-69.26C389.22,-59.94 443.33,-46.16 490,-31 492.27,-30.26 494.6,-29.46 496.94,-28.62"/>
<polygon fill="midnightblue" stroke="midnightblue" points="498.28,-31.86 506.41,-25.07 495.82,-25.3 498.28,-31.86"/>
</g>
<!-- Node15 -->
<g id="node15" class="node">
<title>Node15</title>
<g id="a_node15"><a xlink:title=" ">
<polygon fill="white" stroke="#bfbfbf" points="573,-6 573,-25 629,-25 629,-6 573,-6"/>
<text text-anchor="middle" x="601" y="-13" font-family="Helvetica,sans-Serif" font-size="10.00">sstream</text>
</a>
</g>
</g>
<!-- Node10&#45;&gt;Node15 -->
<g id="edge16" class="edge">
<title>Node10&#45;&gt;Node15</title>
<path fill="none" stroke="midnightblue" d="M350.08,-69.05C353.43,-68.34 356.76,-67.65 360,-67 450.26,-48.82 475.37,-55.92 564,-31 566.59,-30.27 569.25,-29.43 571.89,-28.53"/>
<polygon fill="midnightblue" stroke="midnightblue" points="573.11,-31.81 581.28,-25.07 570.68,-25.24 573.11,-31.81"/>
</g>
<!-- Node16 -->
<g id="node16" class="node">
<title>Node16</title>
<g id="a_node16"><a xlink:title=" ">
<polygon fill="white" stroke="#bfbfbf" points="647,-6 647,-25 691,-25 691,-6 647,-6"/>
<text text-anchor="middle" x="669" y="-13" font-family="Helvetica,sans-Serif" font-size="10.00">string</text>
</a>
</g>
</g>
<!-- Node10&#45;&gt;Node16 -->
<g id="edge17" class="edge">
<title>Node10&#45;&gt;Node16</title>
<path fill="none" stroke="midnightblue" d="M350.05,-68.88C353.41,-68.21 356.75,-67.58 360,-67 482.67,-45.21 518.37,-65.81 638,-31 639.88,-30.45 641.8,-29.8 643.7,-29.09"/>
<polygon fill="midnightblue" stroke="midnightblue" points="645.13,-32.29 652.96,-25.15 642.39,-25.85 645.13,-32.29"/>
</g>
<!-- Node17 -->
<g id="node17" class="node">
<title>Node17</title>
<g id="a_node17"><a xlink:title=" ">
<polygon fill="white" stroke="#bfbfbf" points="150.5,-6 150.5,-25 223.5,-25 223.5,-6 150.5,-6"/>
<text text-anchor="middle" x="187" y="-13" font-family="Helvetica,sans-Serif" font-size="10.00">string_view</text>
</a>
</g>
</g>
<!-- Node10&#45;&gt;Node17 -->
<g id="edge18" class="edge">
<title>Node10&#45;&gt;Node17</title>
<path fill="none" stroke="midnightblue" d="M272.35,-67.4C253.82,-56.34 228.19,-41.06 209.86,-30.13"/>
<polygon fill="midnightblue" stroke="midnightblue" points="211.65,-27.12 201.27,-25.01 208.06,-33.13 211.65,-27.12"/>
</g>
</g>
</svg>
