<?xml version="1.0" encoding="UTF-8" standalone="no"?>
<!DOCTYPE svg PUBLIC "-//W3C//DTD SVG 1.1//EN"
 "http://www.w3.org/Graphics/SVG/1.1/DTD/svg11.dtd">
<!-- Generated by graphviz version 2.43.0 (0)
 -->
<!-- Title: unilink/diagnostics/runtime_stats_counter.hpp Pages: 1 -->
<svg width="1000pt" height="170pt"
 viewBox="0.00 0.00 999.50 170.00" xmlns="http://www.w3.org/2000/svg" xmlns:xlink="http://www.w3.org/1999/xlink">
<g id="graph0" class="graph" transform="scale(1 1) rotate(0) translate(4 166)">
<title>unilink/diagnostics/runtime_stats_counter.hpp</title>
<!-- Node1 -->
<g id="Node000001" class="node">
<title>Node1</title>
<g id="a_Node000001"><a xlink:title=" ">
<polygon fill="#999999" stroke="#666666" points="557,-162 408,-162 408,-132 557,-132 557,-162"/>
<text text-anchor="start" x="416" y="-150" font-family="Helvetica,sans-Serif" font-size="10.00">unilink/diagnostics</text>
<text text-anchor="middle" x="482.5" y="-139" font-family="Helvetica,sans-Serif" font-size="10.00">/runtime_stats_counter.hpp</text>
</a>
</g>
</g>
<!-- Node2 -->
<g id="Node000002" class="node">
<title>Node2</title>
<g id="a_Node000002"><a xlink:href="transport_2serial_2serial_8cc.html" target="_top" xlink:title=" ">
<polygon fill="white" stroke="#666666" points="127,-96 0,-96 0,-66 127,-66 127,-96"/>
<text text-anchor="start" x="8" y="-84" font-family="Helvetica,sans-Serif" font-size="10.00">unilink/transport/serial</text>
<text text-anchor="middle" x="63.5" y="-73" font-family="Helvetica,sans-Serif" font-size="10.00">/serial.cc</text>
</a>
</g>
</g>
<!-- Node1&#45;&gt;Node2 -->
<g id="edge1_Node000001_Node000002" class="edge">
<title>Node1&#45;&gt;Node2</title>
<g id="a_edge1_Node000001_Node000002"><a xlink:title=" ">
<path fill="none" stroke="#63b8ff" d="M397.73,-134.97C327.37,-125.52 224.73,-111.09 135.5,-96 132.74,-95.53 129.92,-95.04 127.07,-94.54"/>
<polygon fill="#63b8ff" stroke="#63b8ff" points="397.5,-138.47 407.88,-136.32 398.43,-131.53 397.5,-138.47"/>
</a>
</g>
</g>
<!-- Node3 -->
<g id="Node000003" class="node">
<title>Node3</title>
<g id="a_Node000003"><a xlink:href="transport_2tcp__client_2tcp__client_8cc.html" target="_top" xlink:title=" ">
<polygon fill="white" stroke="#666666" points="260,-96 145,-96 145,-66 260,-66 260,-96"/>
<text text-anchor="start" x="153" y="-84" font-family="Helvetica,sans-Serif" font-size="10.00">unilink/transport/tcp</text>
<text text-anchor="middle" x="202.5" y="-73" font-family="Helvetica,sans-Serif" font-size="10.00">_client/tcp_client.cc</text>
</a>
</g>
</g>
<!-- Node1&#45;&gt;Node3 -->
<g id="edge2_Node000001_Node000003" class="edge">
<title>Node1&#45;&gt;Node3</title>
<g id="a_edge2_Node000001_Node000003"><a xlink:title=" ">
<path fill="none" stroke="#63b8ff" d="M411.3,-129.73C364.57,-119.05 304.24,-105.26 260.46,-95.25"/>
<polygon fill="#63b8ff" stroke="#63b8ff" points="410.52,-133.14 421.05,-131.95 412.08,-126.31 410.52,-133.14"/>
</a>
</g>
</g>
<!-- Node4 -->
<g id="Node000004" class="node">
<title>Node4</title>
<g id="a_Node000004"><a xlink:href="transport_2tcp__server_2tcp__server_8cc.html" target="_top" xlink:title=" ">
<polygon fill="white" stroke="#666666" points="348,-30 229,-30 229,0 348,0 348,-30"/>
<text text-anchor="start" x="237" y="-18" font-family="Helvetica,sans-Serif" font-size="10.00">unilink/transport/tcp</text>
<text text-anchor="middle" x="288.5" y="-7" font-family="Helvetica,sans-Serif" font-size="10.00">_server/tcp_server.cc</text>
</a>
</g>
</g>
<!-- Node1&#45;&gt;Node4 -->
<g id="edge3_Node000001_Node000004" class="edge">
<title>Node1&#45;&gt;Node4</title>
<g id="a_edge3_Node000001_Node000004"><a xlink:title=" ">
<path fill="none" stroke="#63b8ff" d="M397.75,-139.81C365.52,-133.28 330.95,-120.53 307.5,-96 290.44,-78.15 287.76,-47.89 287.82,-30.15"/>
<polygon fill="#63b8ff" stroke="#63b8ff" points="397.2,-143.27 407.67,-141.65 398.47,-136.39 397.2,-143.27"/>
</a>
</g>
</g>
<!-- Node5 -->
<g id="Node000005" class="node">
<title>Node5</title>
<g id="a_Node000005"><a xlink:href="tcp__server__session_8hpp.html" target="_top" xlink:title=" ">
<polygon fill="white" stroke="#666666" points="486.5,-96 316.5,-96 316.5,-66 486.5,-66 486.5,-96"/>
<text text-anchor="start" x="324.5" y="-84" font-family="Helvetica,sans-Serif" font-size="10.00">unilink/transport/tcp</text>
<text text-anchor="middle" x="401.5" y="-73" font-family="Helvetica,sans-Serif" font-size="10.00">_server/tcp_server_session.hpp</text>
</a>
</g>
</g>
<!-- Node1&#45;&gt;Node5 -->
<g id="edge4_Node000001_Node000005" class="edge">
<title>Node1&#45;&gt;Node5</title>
<g id="a_edge4_Node000001_Node000005"><a xlink:title=" ">
<path fill="none" stroke="#63b8ff" d="M456.53,-125.48C444.42,-115.91 430.32,-104.77 419.43,-96.16"/>
<polygon fill="#63b8ff" stroke="#63b8ff" points="454.51,-128.34 464.52,-131.8 458.85,-122.85 454.51,-128.34"/>
</a>
</g>
</g>
<!-- Node7 -->
<g id="Node000007" class="node">
<title>Node7</title>
<g id="a_Node000007"><a xlink:href="transport_2udp_2udp_8cc.html" target="_top" xlink:title=" ">
<polygon fill="white" stroke="#666666" points="622.5,-96 504.5,-96 504.5,-66 622.5,-66 622.5,-96"/>
<text text-anchor="start" x="512.5" y="-84" font-family="Helvetica,sans-Serif" font-size="10.00">unilink/transport/udp</text>
<text text-anchor="middle" x="563.5" y="-73" font-family="Helvetica,sans-Serif" font-size="10.00">/udp.cc</text>
</a>
</g>
</g>
<!-- Node1&#45;&gt;Node7 -->
<g id="edge7_Node000001_Node000007" class="edge">
<title>Node1&#45;&gt;Node7</title>
<g id="a_edge7_Node000001_Node000007"><a xlink:title=" ">
<path fill="none" stroke="#63b8ff" d="M508.47,-125.48C520.58,-115.91 534.68,-104.77 545.57,-96.16"/>
<polygon fill="#63b8ff" stroke="#63b8ff" points="506.15,-122.85 500.48,-131.8 510.49,-128.34 506.15,-122.85"/>
</a>
</g>
</g>
<!-- Node8 -->
<g id="Node000008" class="node">
<title>Node8</title>
<g id="a_Node000008"><a xlink:href="transport_2uds_2uds__client_8cc.html" target="_top" xlink:title=" ">
<polygon fill="white" stroke="#666666" points="758,-96 641,-96 641,-66 758,-66 758,-96"/>
<text text-anchor="start" x="649" y="-84" font-family="Helvetica,sans-Serif" font-size="10.00">unilink/transport/uds</text>
<text text-anchor="middle" x="699.5" y="-73" font-family="Helvetica,sans-Serif" font-size="10.00">/uds_client.cc</text>
</a>
</g>
</g>
<!-- Node1&#45;&gt;Node8 -->
<g id="edge8_Node000001_Node000008" class="edge">
<title>Node1&#45;&gt;Node8</title>
<g id="a_edge8_Node000001_Node000008"><a xlink:title=" ">
<path fill="none" stroke="#63b8ff" d="M539.73,-129.12C574.72,-118.8 618.94,-105.76 651.99,-96.01"/>
<polygon fill="#63b8ff" stroke="#63b8ff" points="538.72,-125.77 530.12,-131.95 540.7,-132.48 538.72,-125.77"/>
</a>
</g>
</g>
<!-- Node9 -->
<g id="Node000009" class="node">
<title>Node9</title>
<g id="a_Node000009"><a xlink:href="transport_2uds_2uds__server_8cc.html" target="_top" xlink:title=" ">
<polygon fill="white" stroke="#666666" points="845,-30 728,-30 728,0 845,0 845,-30"/>
<text text-anchor="start" x="736" y="-18" font-family="Helvetica,sans-Serif" font-size="10.00">unilink/transport/uds</text>
<text text-anchor="middle" x="786.5" y="-7" font-family="Helvetica,sans-Serif" font-size="10.00">/uds_server.cc</text>
</a>
</g>
</g>
<!-- Node1&#45;&gt;Node9 -->
<g id="edge9_Node000001_Node000009" class="edge">
<title>Node1&#45;&gt;Node9</title>
<g id="a_edge9_Node000001_Node000009"><a xlink:title=" ">
<path fill="none" stroke="#63b8ff" d="M567.4,-141.26C640.71,-135.39 739.17,-122.69 767.5,-96 785.58,-78.97 787.86,-48.13 787.47,-30.12"/>
<polygon fill="#63b8ff" stroke="#63b8ff" points="566.94,-137.78 557.24,-142.04 567.48,-144.76 566.94,-137.78"/>
</a>
</g>
</g>
<!-- Node10 -->
<g id="Node000010" class="node">
<title>Node10</title>
<g id="a_Node000010"><a xlink:href="uds__server__session_8hpp.html" target="_top" xlink:title=" ">
<polygon fill="white" stroke="#666666" points="950.5,-96 814.5,-96 814.5,-66 950.5,-66 950.5,-96"/>
<text text-anchor="start" x="822.5" y="-84" font-family="Helvetica,sans-Serif" font-size="10.00">unilink/transport/uds</text>
<text text-anchor="middle" x="882.5" y="-73" font-family="Helvetica,sans-Serif" font-size="10.00">/uds_server_session.hpp</text>
</a>
</g>
</g>
<!-- Node1&#45;&gt;Node10 -->
<g id="edge10_Node000001_Node000010" class="edge">
<title>Node1&#45;&gt;Node10</title>
<g id="a_edge10_Node000001_Node000010"><a xlink:title=" ">
<path fill="none" stroke="#63b8ff" d="M567.14,-133C631.23,-123.08 721.45,-108.96 800.5,-96 805.06,-95.25 809.76,-94.47 814.5,-93.68"/>
<polygon fill="#63b8ff" stroke="#63b8ff" points="566.43,-129.57 557.08,-134.56 567.49,-136.49 566.43,-129.57"/>
</a>
</g>
</g>
<!-- Node5&#45;&gt;Node4 -->
<g id="edge5_Node000005_Node000004" class="edge">
<title>Node5&#45;&gt;Node4</title>
<g id="a_edge5_Node000005_Node000004"><a xlink:title=" ">
<path fill="none" stroke="#63b8ff" d="M367.9,-60.97C350.36,-51.03 329.27,-39.09 313.24,-30.01"/>
<polygon fill="#63b8ff" stroke="#63b8ff" points="366.28,-64.07 376.7,-65.95 369.73,-57.98 366.28,-64.07"/>
</a>
</g>
</g>
<!-- Node6 -->
<g id="Node000006" class="node">
<title>Node6</title>
<g id="a_Node000006"><a xlink:href="tcp__server__session_8cc.html" target="_top" xlink:title=" ">
<polygon fill="white" stroke="#666666" points="528.5,-30 366.5,-30 366.5,0 528.5,0 528.5,-30"/>
<text text-anchor="start" x="374.5" y="-18" font-family="Helvetica,sans-Serif" font-size="10.00">unilink/transport/tcp</text>
<text text-anchor="middle" x="447.5" y="-7" font-family="Helvetica,sans-Serif" font-size="10.00">_server/tcp_server_session.cc</text>
</a>
</g>
</g>
<!-- Node5&#45;&gt;Node6 -->
<g id="edge6_Node000005_Node000006" class="edge">
<title>Node5&#45;&gt;Node6</title>
<g id="a_edge6_Node000005_Node000006"><a xlink:title=" ">
<path fill="none" stroke="#63b8ff" d="M417.65,-57.53C424.19,-48.43 431.55,-38.19 437.32,-30.16"/>
<polygon fill="#63b8ff" stroke="#63b8ff" points="414.7,-55.63 411.71,-65.8 420.39,-59.72 414.7,-55.63"/>
</a>
</g>
</g>
<!-- Node10&#45;&gt;Node9 -->
<g id="edge11_Node000010_Node000009" class="edge">
<title>Node10&#45;&gt;Node9</title>
<g id="a_edge11_Node000010_Node000009"><a xlink:title=" ">
<path fill="none" stroke="#63b8ff" d="M852.54,-60.03C838.01,-50.34 820.91,-38.94 807.75,-30.16"/>
<polygon fill="#63b8ff" stroke="#63b8ff" points="850.93,-63.16 861.19,-65.8 854.82,-57.34 850.93,-63.16"/>
</a>
</g>
</g>
<!-- Node11 -->
<g id="Node000011" class="node">
<title>Node11</title>
<g id="a_Node000011"><a xlink:href="uds__server__session_8cc.html" target="_top" xlink:title=" ">
<polygon fill="white" stroke="#666666" points="991.5,-30 863.5,-30 863.5,0 991.5,0 991.5,-30"/>
<text text-anchor="start" x="871.5" y="-18" font-family="Helvetica,sans-Serif" font-size="10.00">unilink/transport/uds</text>
<text text-anchor="middle" x="927.5" y="-7" font-family="Helvetica,sans-Serif" font-size="10.00">/uds_server_session.cc</text>
</a>
</g>
</g>
<!-- Node10&#45;&gt;Node11 -->
<g id="edge12_Node000010_Node000011" class="edge">
<title>Node10&#45;&gt;Node11</title>
<g id="a_edge12_Node000010_Node000011"><a xlink:title=" ">
<path fill="none" stroke="#63b8ff" d="M898.3,-57.53C904.7,-48.43 911.89,-38.19 917.54,-30.16"/>
<polygon fill="#63b8ff" stroke="#63b8ff" points="895.38,-55.6 892.49,-65.8 901.1,-59.63 895.38,-55.6"/>
</a>
</g>
</g>
</g>
</svg>
