<?xml version="1.0" encoding="UTF-8" standalone="no"?>
<!DOCTYPE svg PUBLIC "-//W3C//DTD SVG 1.1//EN"
 "http://www.w3.org/Graphics/SVG/1.1/DTD/svg11.dtd">
<!-- Generated by graphviz version 2.43.0 (0)
 -->
<!-- Title: unilink/builder/serial_builder.cc Pages: 1 -->
<!--zoomable 430 -->
<svg id="main" version="1.1" xmlns="http://www.w3.org/2000/svg" xmlns:xlink="http://www.w3.org/1999/xlink" xml:space="preserve" onload="init(evt)">
<style type="text/css"><![CDATA[
.edge:hover path { stroke: red; }
.edge:hover polygon { stroke: red; fill: red; }
]]></style>
<script type="text/javascript"><![CDATA[
var edges = document.getElementsByTagName('g');
if (edges && edges.length) {
  for (var i=0;i<edges.length;i++) {
    if (edges[i].id.substr(0,4)=='edge') {
      edges[i].setAttribute('class','edge');
    }
  }
}
]]></script>
        <defs>
                <circle id="rim" cx="0" cy="0" r="7"/>
                <circle id="rim2" cx="0" cy="0" r="3.5"/>
                <g id="zoomPlus">
                        <use xlink:href="#rim" fill="#404040">
                                <set attributeName="fill" to="#808080" begin="zoomplus.mouseover" end="zoomplus.mouseout"/>
                        </use>
                        <path d="M-4,0h8M0,-4v8" fill="none" stroke="white" stroke-width="1.5" pointer-events="none"/>
                </g>
                <g id="zoomMin">
                        <use xlink:href="#rim" fill="#404040">
                                <set attributeName="fill" to="#808080" begin="zoomminus.mouseover" end="zoomminus.mouseout"/>
                        </use>
                        <path d="M-4,0h8" fill="none" stroke="white" stroke-width="1.5" pointer-events="none"/>
                </g>
                <g id="dirArrow">
                        <path fill="none" stroke="white" stroke-width="1.5" d="M0,-3.0v7 M-2.5,-0.5L0,-3.0L2.5,-0.5"/>
                </g>
               <g id="resetDef">
                       <use xlink:href="#rim2" fill="#404040">
                               <set attributeName="fill" to="#808080" begin="reset.mouseover" end="reset.mouseout"/>
                       </use>
               </g>
        </defs>

<script type="text/javascript">
var viewWidth = 1828;
var viewHeight = 430;
var sectionId = 'dynsection-0';
</script>
<script xlink:href="svgpan.js"/>
<svg id="graph" class="graph">
<g id="viewport">
<title>unilink/builder/serial_builder.cc</title>
<polygon fill="white" stroke="transparent" points="-4,4 -4,-426 1823.56,-426 1823.56,4 -4,4"/>
<!-- Node1 -->
<g id="node1" class="node">
<title>Node1</title>
<g id="a_node1"><a xlink:title=" ">
<polygon fill="#bfbfbf" stroke="black" points="1512.56,-391.5 1512.56,-421.5 1628.56,-421.5 1628.56,-391.5 1512.56,-391.5"/>
<text text-anchor="start" x="1520.56" y="-409.5" font-family="Helvetica,sans-Serif" font-size="10.00">unilink/builder/serial</text>
<text text-anchor="middle" x="1570.56" y="-398.5" font-family="Helvetica,sans-Serif" font-size="10.00">_builder.cc</text>
</a>
</g>
</g>
<!-- Node2 -->
<g id="node2" class="node">
<title>Node2</title>
<g id="a_node2"><a xlink:href="serial__builder_8hpp.html" target="_top" xlink:title=" ">
<polygon fill="white" stroke="black" points="1313.56,-324.5 1313.56,-354.5 1429.56,-354.5 1429.56,-324.5 1313.56,-324.5"/>
<text text-anchor="start" x="1321.56" y="-342.5" font-family="Helvetica,sans-Serif" font-size="10.00">unilink/builder/serial</text>
<text text-anchor="middle" x="1371.56" y="-331.5" font-family="Helvetica,sans-Serif" font-size="10.00">_builder.hpp</text>
</a>
</g>
</g>
<!-- Node1&#45;&gt;Node2 -->
<g id="edge1" class="edge">
<title>Node1&#45;&gt;Node2</title>
<path fill="none" stroke="midnightblue" d="M1527.38,-391.4C1497.13,-381.52 1456.53,-368.25 1424.35,-357.74"/>
<polygon fill="midnightblue" stroke="midnightblue" points="1425.25,-354.35 1414.66,-354.58 1423.08,-361.01 1425.25,-354.35"/>
</g>
<!-- Node27 -->
<g id="node27" class="node">
<title>Node27</title>
<g id="a_node27"><a xlink:title=" ">
<polygon fill="white" stroke="#bfbfbf" points="1677.56,-62 1677.56,-81 1819.56,-81 1819.56,-62 1677.56,-62"/>
<text text-anchor="middle" x="1748.56" y="-69" font-family="Helvetica,sans-Serif" font-size="10.00">boost/asio/io_context.hpp</text>
</a>
</g>
</g>
<!-- Node1&#45;&gt;Node27 -->
<g id="edge63" class="edge">
<title>Node1&#45;&gt;Node27</title>
<path fill="none" stroke="midnightblue" d="M1622.05,-391.38C1674.62,-373.47 1748.56,-336.98 1748.56,-273.5 1748.56,-273.5 1748.56,-273.5 1748.56,-204.5 1748.56,-164.16 1748.56,-116.88 1748.56,-91.28"/>
<polygon fill="midnightblue" stroke="midnightblue" points="1752.06,-91.15 1748.56,-81.15 1745.06,-91.15 1752.06,-91.15"/>
</g>
<!-- Node28 -->
<g id="node28" class="node">
<title>Node28</title>
<g id="a_node28"><a xlink:href="auto__initializer_8hpp.html" target="_top" xlink:title=" ">
<polygon fill="white" stroke="black" points="1515.06,-190.5 1515.06,-220.5 1626.06,-220.5 1626.06,-190.5 1515.06,-190.5"/>
<text text-anchor="start" x="1523.06" y="-208.5" font-family="Helvetica,sans-Serif" font-size="10.00">unilink/builder/auto</text>
<text text-anchor="middle" x="1570.56" y="-197.5" font-family="Helvetica,sans-Serif" font-size="10.00">_initializer.hpp</text>
</a>
</g>
</g>
<!-- Node1&#45;&gt;Node28 -->
<g id="edge64" class="edge">
<title>Node1&#45;&gt;Node28</title>
<path fill="none" stroke="midnightblue" d="M1570.56,-391.19C1570.56,-357.48 1570.56,-272.8 1570.56,-230.84"/>
<polygon fill="midnightblue" stroke="midnightblue" points="1574.06,-230.68 1570.56,-220.68 1567.06,-230.68 1574.06,-230.68"/>
</g>
<!-- Node3 -->
<g id="node3" class="node">
<title>Node3</title>
<g id="a_node3"><a xlink:title=" ">
<polygon fill="white" stroke="#bfbfbf" points="1346.56,-196 1346.56,-215 1396.56,-215 1396.56,-196 1346.56,-196"/>
<text text-anchor="middle" x="1371.56" y="-203" font-family="Helvetica,sans-Serif" font-size="10.00">chrono</text>
</a>
</g>
</g>
<!-- Node2&#45;&gt;Node3 -->
<g id="edge2" class="edge">
<title>Node2&#45;&gt;Node3</title>
<path fill="none" stroke="midnightblue" d="M1371.56,-324.37C1371.56,-300.5 1371.56,-252.18 1371.56,-225.41"/>
<polygon fill="midnightblue" stroke="midnightblue" points="1375.06,-225.1 1371.56,-215.1 1368.06,-225.1 1375.06,-225.1"/>
</g>
<!-- Node4 -->
<g id="node4" class="node">
<title>Node4</title>
<g id="a_node4"><a xlink:title=" ">
<polygon fill="white" stroke="#bfbfbf" points="1410.56,-0.5 1410.56,-19.5 1460.56,-19.5 1460.56,-0.5 1410.56,-0.5"/>
<text text-anchor="middle" x="1435.56" y="-7.5" font-family="Helvetica,sans-Serif" font-size="10.00">cstdint</text>
</a>
</g>
</g>
<!-- Node2&#45;&gt;Node4 -->
<g id="edge3" class="edge">
<title>Node2&#45;&gt;Node4</title>
<path fill="none" stroke="midnightblue" d="M1415.43,-324.35C1432.93,-316.45 1451.5,-304.73 1462.56,-288 1491.11,-244.82 1504.14,-103.5 1483.56,-56 1478.3,-43.84 1467.94,-33.46 1458.2,-25.74"/>
<polygon fill="midnightblue" stroke="midnightblue" points="1460.07,-22.77 1449.93,-19.67 1455.92,-28.41 1460.07,-22.77"/>
</g>
<!-- Node5 -->
<g id="node5" class="node">
<title>Node5</title>
<g id="a_node5"><a xlink:title=" ">
<polygon fill="white" stroke="#bfbfbf" points="700.56,-0.5 700.56,-19.5 744.56,-19.5 744.56,-0.5 700.56,-0.5"/>
<text text-anchor="middle" x="722.56" y="-7.5" font-family="Helvetica,sans-Serif" font-size="10.00">string</text>
</a>
</g>
</g>
<!-- Node2&#45;&gt;Node5 -->
<g id="edge4" class="edge">
<title>Node2&#45;&gt;Node5</title>
<path fill="none" stroke="midnightblue" d="M1382.71,-324.44C1410.34,-287.76 1476.5,-187.56 1429.56,-123 1399.07,-81.05 1364.95,-110.2 1318.56,-87 1297.17,-76.3 1297.06,-64.15 1274.56,-56 1177.98,-21.01 858.03,-13.08 754.9,-11.41"/>
<polygon fill="midnightblue" stroke="midnightblue" points="754.84,-7.91 744.79,-11.26 754.73,-14.91 754.84,-7.91"/>
</g>
<!-- Node6 -->
<g id="node6" class="node">
<title>Node6</title>
<g id="a_node6"><a xlink:href="visibility_8hpp.html" target="_top" xlink:title=" ">
<polygon fill="white" stroke="black" points="690.56,-62 690.56,-81 830.56,-81 830.56,-62 690.56,-62"/>
<text text-anchor="middle" x="760.56" y="-69" font-family="Helvetica,sans-Serif" font-size="10.00">unilink/base/visibility.hpp</text>
</a>
</g>
</g>
<!-- Node2&#45;&gt;Node6 -->
<g id="edge5" class="edge">
<title>Node2&#45;&gt;Node6</title>
<path fill="none" stroke="midnightblue" d="M1313.13,-333.52C1183.65,-321.39 877.95,-286.42 800.56,-221 762.25,-188.61 758.63,-123.75 759.42,-91.55"/>
<polygon fill="midnightblue" stroke="midnightblue" points="762.92,-91.42 759.85,-81.28 755.93,-91.12 762.92,-91.42"/>
</g>
<!-- Node7 -->
<g id="node7" class="node">
<title>Node7</title>
<g id="a_node7"><a xlink:href="ibuilder_8hpp.html" target="_top" xlink:title=" ">
<polygon fill="white" stroke="black" points="416.56,-263 416.56,-282 562.56,-282 562.56,-263 416.56,-263"/>
<text text-anchor="middle" x="489.56" y="-270" font-family="Helvetica,sans-Serif" font-size="10.00">unilink/builder/ibuilder.hpp</text>
</a>
</g>
</g>
<!-- Node2&#45;&gt;Node7 -->
<g id="edge6" class="edge">
<title>Node2&#45;&gt;Node7</title>
<path fill="none" stroke="midnightblue" d="M1313.35,-334.21C1160.98,-322.98 750,-292.69 572.77,-279.63"/>
<polygon fill="midnightblue" stroke="midnightblue" points="572.95,-276.14 562.72,-278.89 572.43,-283.12 572.95,-276.14"/>
</g>
<!-- Node21 -->
<g id="node21" class="node">
<title>Node21</title>
<g id="a_node21"><a xlink:href="wrapper_2serial_2serial_8hpp.html" target="_top" xlink:title=" ">
<polygon fill="white" stroke="black" points="1162.56,-257.5 1162.56,-287.5 1284.56,-287.5 1284.56,-257.5 1162.56,-257.5"/>
<text text-anchor="start" x="1170.56" y="-275.5" font-family="Helvetica,sans-Serif" font-size="10.00">unilink/wrapper/serial</text>
<text text-anchor="middle" x="1223.56" y="-264.5" font-family="Helvetica,sans-Serif" font-size="10.00">/serial.hpp</text>
</a>
</g>
</g>
<!-- Node2&#45;&gt;Node21 -->
<g id="edge41" class="edge">
<title>Node2&#45;&gt;Node21</title>
<path fill="none" stroke="midnightblue" d="M1339.45,-324.4C1317.63,-314.81 1288.57,-302.05 1265.01,-291.7"/>
<polygon fill="midnightblue" stroke="midnightblue" points="1266.18,-288.39 1255.62,-287.58 1263.36,-294.8 1266.18,-288.39"/>
</g>
<!-- Node7&#45;&gt;Node5 -->
<g id="edge9" class="edge">
<title>Node7&#45;&gt;Node5</title>
<path fill="none" stroke="midnightblue" d="M483.38,-262.71C476.97,-253.02 467.37,-236.72 463.56,-221 452.9,-176.98 460.44,-155.91 491.56,-123 520.75,-92.15 634.48,-45.17 690.72,-23.17"/>
<polygon fill="midnightblue" stroke="midnightblue" points="692.14,-26.37 700.19,-19.48 689.61,-19.84 692.14,-26.37"/>
</g>
<!-- Node7&#45;&gt;Node6 -->
<g id="edge12" class="edge">
<title>Node7&#45;&gt;Node6</title>
<path fill="none" stroke="midnightblue" d="M523.01,-262.94C550.48,-254.91 589.61,-241.1 619.56,-221 675.75,-183.31 726.32,-119.59 748.58,-89.37"/>
<polygon fill="midnightblue" stroke="midnightblue" points="751.51,-91.28 754.55,-81.13 745.84,-87.17 751.51,-91.28"/>
</g>
<!-- Node8 -->
<g id="node8" class="node">
<title>Node8</title>
<g id="a_node8"><a xlink:title=" ">
<polygon fill="white" stroke="#bfbfbf" points="978.06,-62 978.06,-81 1043.06,-81 1043.06,-62 978.06,-62"/>
<text text-anchor="middle" x="1010.56" y="-69" font-family="Helvetica,sans-Serif" font-size="10.00">functional</text>
</a>
</g>
</g>
<!-- Node7&#45;&gt;Node8 -->
<g id="edge7" class="edge">
<title>Node7&#45;&gt;Node8</title>
<path fill="none" stroke="midnightblue" d="M562.92,-270.04C685.1,-266.66 924.41,-255.69 1000.56,-221 1040.05,-203.01 1054.38,-193.84 1071.56,-154 1077.02,-141.35 1077.43,-135.47 1071.56,-123 1064.24,-107.43 1049.51,-95.02 1036.35,-86.4"/>
<polygon fill="midnightblue" stroke="midnightblue" points="1037.96,-83.28 1027.61,-81.04 1034.31,-89.25 1037.96,-83.28"/>
</g>
<!-- Node9 -->
<g id="node9" class="node">
<title>Node9</title>
<g id="a_node9"><a xlink:title=" ">
<polygon fill="white" stroke="#bfbfbf" points="1099.56,-62 1099.56,-81 1157.56,-81 1157.56,-62 1099.56,-62"/>
<text text-anchor="middle" x="1128.56" y="-69" font-family="Helvetica,sans-Serif" font-size="10.00">memory</text>
</a>
</g>
</g>
<!-- Node7&#45;&gt;Node9 -->
<g id="edge8" class="edge">
<title>Node7&#45;&gt;Node9</title>
<path fill="none" stroke="midnightblue" d="M562.65,-272.1C692.92,-271.99 959.09,-266.03 1038.56,-221 1088.52,-192.69 1113.96,-124.3 1123.71,-91.15"/>
<polygon fill="midnightblue" stroke="midnightblue" points="1127.13,-91.93 1126.43,-81.36 1120.38,-90.06 1127.13,-91.93"/>
</g>
<!-- Node10 -->
<g id="node10" class="node">
<title>Node10</title>
<g id="a_node10"><a xlink:title=" ">
<polygon fill="white" stroke="#bfbfbf" points="462.06,-62 462.06,-81 535.06,-81 535.06,-62 462.06,-62"/>
<text text-anchor="middle" x="498.56" y="-69" font-family="Helvetica,sans-Serif" font-size="10.00">string_view</text>
</a>
</g>
</g>
<!-- Node7&#45;&gt;Node10 -->
<g id="edge10" class="edge">
<title>Node7&#45;&gt;Node10</title>
<path fill="none" stroke="midnightblue" d="M425.86,-262.97C376.89,-254.96 315.06,-241.16 299.56,-221 260.72,-170.49 354.42,-133.84 371.56,-123 398.77,-105.79 432.81,-92.64 458.8,-84.08"/>
<polygon fill="midnightblue" stroke="midnightblue" points="459.88,-87.41 468.33,-81.02 457.74,-80.74 459.88,-87.41"/>
</g>
<!-- Node11 -->
<g id="node11" class="node">
<title>Node11</title>
<g id="a_node11"><a xlink:title=" ">
<polygon fill="white" stroke="#bfbfbf" points="28.06,-62 28.06,-81 75.06,-81 75.06,-62 28.06,-62"/>
<text text-anchor="middle" x="51.56" y="-69" font-family="Helvetica,sans-Serif" font-size="10.00">vector</text>
</a>
</g>
</g>
<!-- Node7&#45;&gt;Node11 -->
<g id="edge11" class="edge">
<title>Node7&#45;&gt;Node11</title>
<path fill="none" stroke="midnightblue" d="M416.34,-266.41C334.13,-259.6 206.82,-245.47 165.56,-221 112.32,-189.42 75.2,-122.63 59.68,-90.5"/>
<polygon fill="midnightblue" stroke="midnightblue" points="62.66,-88.61 55.26,-81.04 56.32,-91.58 62.66,-88.61"/>
</g>
<!-- Node12 -->
<g id="node12" class="node">
<title>Node12</title>
<g id="a_node12"><a xlink:href="iframer_8hpp.html" target="_top" xlink:title=" ">
<polygon fill="white" stroke="black" points="511.06,-129 511.06,-148 656.06,-148 656.06,-129 511.06,-129"/>
<text text-anchor="middle" x="583.56" y="-136" font-family="Helvetica,sans-Serif" font-size="10.00">unilink/framer/iframer.hpp</text>
</a>
</g>
</g>
<!-- Node7&#45;&gt;Node12 -->
<g id="edge13" class="edge">
<title>Node7&#45;&gt;Node12</title>
<path fill="none" stroke="midnightblue" d="M536.86,-262.98C560.89,-256 588.01,-243.45 602.56,-221 615.3,-201.35 604.47,-174.15 594.7,-156.68"/>
<polygon fill="midnightblue" stroke="midnightblue" points="597.69,-154.86 589.54,-148.09 591.69,-158.47 597.69,-154.86"/>
</g>
<!-- Node13 -->
<g id="node13" class="node">
<title>Node13</title>
<g id="a_node13"><a xlink:href="safe__span_8hpp.html" target="_top" xlink:title=" ">
<polygon fill="white" stroke="black" points="93.56,-56.5 93.56,-86.5 211.56,-86.5 211.56,-56.5 93.56,-56.5"/>
<text text-anchor="start" x="101.56" y="-74.5" font-family="Helvetica,sans-Serif" font-size="10.00">unilink/memory/safe</text>
<text text-anchor="middle" x="152.56" y="-63.5" font-family="Helvetica,sans-Serif" font-size="10.00">_span.hpp</text>
</a>
</g>
</g>
<!-- Node7&#45;&gt;Node13 -->
<g id="edge32" class="edge">
<title>Node7&#45;&gt;Node13</title>
<path fill="none" stroke="midnightblue" d="M416.46,-264.53C365.15,-257.8 295.75,-244.96 238.56,-221 189.56,-200.47 164.47,-200.93 139.56,-154 130.11,-136.18 134.98,-113.31 141.29,-96.34"/>
<polygon fill="midnightblue" stroke="midnightblue" points="144.72,-97.21 145.28,-86.63 138.24,-94.55 144.72,-97.21"/>
</g>
<!-- Node16 -->
<g id="node16" class="node">
<title>Node16</title>
<g id="a_node16"><a xlink:href="line__framer_8hpp.html" target="_top" xlink:title=" ">
<polygon fill="white" stroke="black" points="309.06,-190.5 309.06,-220.5 416.06,-220.5 416.06,-190.5 309.06,-190.5"/>
<text text-anchor="start" x="317.06" y="-208.5" font-family="Helvetica,sans-Serif" font-size="10.00">unilink/framer/line</text>
<text text-anchor="middle" x="362.56" y="-197.5" font-family="Helvetica,sans-Serif" font-size="10.00">_framer.hpp</text>
</a>
</g>
</g>
<!-- Node7&#45;&gt;Node16 -->
<g id="edge22" class="edge">
<title>Node7&#45;&gt;Node16</title>
<path fill="none" stroke="midnightblue" d="M472.7,-262.87C454.03,-253.31 423.38,-237.63 399.15,-225.22"/>
<polygon fill="midnightblue" stroke="midnightblue" points="400.71,-222.09 390.21,-220.65 397.52,-228.32 400.71,-222.09"/>
</g>
<!-- Node17 -->
<g id="node17" class="node">
<title>Node17</title>
<g id="a_node17"><a xlink:href="packet__framer_8hpp.html" target="_top" xlink:title=" ">
<polygon fill="white" stroke="black" points="473.06,-190.5 473.06,-220.5 594.06,-220.5 594.06,-190.5 473.06,-190.5"/>
<text text-anchor="start" x="481.06" y="-208.5" font-family="Helvetica,sans-Serif" font-size="10.00">unilink/framer/packet</text>
<text text-anchor="middle" x="533.56" y="-197.5" font-family="Helvetica,sans-Serif" font-size="10.00">_framer.hpp</text>
</a>
</g>
</g>
<!-- Node7&#45;&gt;Node17 -->
<g id="edge28" class="edge">
<title>Node7&#45;&gt;Node17</title>
<path fill="none" stroke="midnightblue" d="M495.5,-262.73C501.33,-254.12 510.47,-240.61 518.34,-228.99"/>
<polygon fill="midnightblue" stroke="midnightblue" points="521.32,-230.83 524.03,-220.59 515.52,-226.91 521.32,-230.83"/>
</g>
<!-- Node18 -->
<g id="node18" class="node">
<title>Node18</title>
<g id="a_node18"><a xlink:href="context_8hpp.html" target="_top" xlink:title=" ">
<polygon fill="white" stroke="black" points="149.06,-129 149.06,-148 302.06,-148 302.06,-129 149.06,-129"/>
<text text-anchor="middle" x="225.56" y="-136" font-family="Helvetica,sans-Serif" font-size="10.00">unilink/wrapper/context.hpp</text>
</a>
</g>
</g>
<!-- Node7&#45;&gt;Node18 -->
<g id="edge33" class="edge">
<title>Node7&#45;&gt;Node18</title>
<path fill="none" stroke="midnightblue" d="M416.54,-270.54C369.37,-266.43 309.09,-254.26 266.56,-221 246.33,-205.18 235.28,-176.69 229.9,-157.94"/>
<polygon fill="midnightblue" stroke="midnightblue" points="233.26,-156.99 227.35,-148.19 226.49,-158.75 233.26,-156.99"/>
</g>
<!-- Node12&#45;&gt;Node6 -->
<g id="edge17" class="edge">
<title>Node12&#45;&gt;Node6</title>
<path fill="none" stroke="midnightblue" d="M607.07,-128.87C637.97,-117.52 692.42,-97.52 727.47,-84.65"/>
<polygon fill="midnightblue" stroke="midnightblue" points="729.06,-87.8 737.24,-81.06 726.65,-81.23 729.06,-87.8"/>
</g>
<!-- Node12&#45;&gt;Node8 -->
<g id="edge14" class="edge">
<title>Node12&#45;&gt;Node8</title>
<path fill="none" stroke="midnightblue" d="M639.83,-128.94C726.41,-115.76 890.42,-90.79 967.93,-78.99"/>
<polygon fill="midnightblue" stroke="midnightblue" points="968.48,-82.45 977.84,-77.48 967.42,-75.53 968.48,-82.45"/>
</g>
<!-- Node12&#45;&gt;Node9 -->
<g id="edge15" class="edge">
<title>Node12&#45;&gt;Node9</title>
<path fill="none" stroke="midnightblue" d="M656.11,-131.53C748.47,-123.51 912.84,-107.82 1052.56,-87 1064.59,-85.21 1077.61,-82.87 1089.42,-80.6"/>
<polygon fill="midnightblue" stroke="midnightblue" points="1090.29,-84 1099.43,-78.63 1088.94,-77.13 1090.29,-84"/>
</g>
<!-- Node12&#45;&gt;Node11 -->
<g id="edge16" class="edge">
<title>Node12&#45;&gt;Node11</title>
<path fill="none" stroke="midnightblue" d="M511.04,-132.96C392.65,-125.07 163.19,-107.7 84.56,-87 82.27,-86.4 79.92,-85.65 77.6,-84.82"/>
<polygon fill="midnightblue" stroke="midnightblue" points="78.91,-81.57 68.33,-81.07 76.29,-88.07 78.91,-81.57"/>
</g>
<!-- Node12&#45;&gt;Node13 -->
<g id="edge18" class="edge">
<title>Node12&#45;&gt;Node13</title>
<path fill="none" stroke="midnightblue" d="M511.01,-128.96C439.78,-120.23 327.86,-105.56 221.77,-87.14"/>
<polygon fill="midnightblue" stroke="midnightblue" points="222.31,-83.68 211.85,-85.4 221.1,-90.58 222.31,-83.68"/>
</g>
<!-- Node13&#45;&gt;Node4 -->
<g id="edge19" class="edge">
<title>Node13&#45;&gt;Node4</title>
<path fill="none" stroke="midnightblue" d="M211.8,-57.21C214.75,-56.76 217.69,-56.35 220.56,-56 738.59,6.61 880.12,-94.38 1400.43,-19.78"/>
<polygon fill="midnightblue" stroke="midnightblue" points="1401.05,-23.23 1410.45,-18.33 1400.05,-16.3 1401.05,-23.23"/>
</g>
<!-- Node14 -->
<g id="node14" class="node">
<title>Node14</title>
<g id="a_node14"><a xlink:title=" ">
<polygon fill="white" stroke="#bfbfbf" points="78.06,-0.5 78.06,-19.5 143.06,-19.5 143.06,-0.5 78.06,-0.5"/>
<text text-anchor="middle" x="110.56" y="-7.5" font-family="Helvetica,sans-Serif" font-size="10.00">stdexcept</text>
</a>
</g>
</g>
<!-- Node13&#45;&gt;Node14 -->
<g id="edge20" class="edge">
<title>Node13&#45;&gt;Node14</title>
<path fill="none" stroke="midnightblue" d="M142.61,-56.4C136.57,-47.84 128.83,-36.87 122.46,-27.86"/>
<polygon fill="midnightblue" stroke="midnightblue" points="125.3,-25.81 116.68,-19.66 119.58,-29.85 125.3,-25.81"/>
</g>
<!-- Node15 -->
<g id="node15" class="node">
<title>Node15</title>
<g id="a_node15"><a xlink:title=" ">
<polygon fill="white" stroke="#bfbfbf" points="161.06,-0.5 161.06,-19.5 230.06,-19.5 230.06,-0.5 161.06,-0.5"/>
<text text-anchor="middle" x="195.56" y="-7.5" font-family="Helvetica,sans-Serif" font-size="10.00">type_traits</text>
</a>
</g>
</g>
<!-- Node13&#45;&gt;Node15 -->
<g id="edge21" class="edge">
<title>Node13&#45;&gt;Node15</title>
<path fill="none" stroke="midnightblue" d="M162.75,-56.4C168.94,-47.84 176.87,-36.87 183.38,-27.86"/>
<polygon fill="midnightblue" stroke="midnightblue" points="186.29,-29.81 189.31,-19.66 180.61,-25.71 186.29,-29.81"/>
</g>
<!-- Node16&#45;&gt;Node5 -->
<g id="edge23" class="edge">
<title>Node16&#45;&gt;Node5</title>
<path fill="none" stroke="midnightblue" d="M308.93,-200.04C191.54,-188.43 -70.78,-151.24 18.56,-56 41.84,-31.19 555.23,-15.54 690.26,-11.85"/>
<polygon fill="midnightblue" stroke="midnightblue" points="690.48,-15.34 700.38,-11.57 690.29,-8.35 690.48,-15.34"/>
</g>
<!-- Node16&#45;&gt;Node6 -->
<g id="edge26" class="edge">
<title>Node16&#45;&gt;Node6</title>
<path fill="none" stroke="midnightblue" d="M380.18,-190.28C403.98,-171.82 448.42,-139.96 491.56,-123 552.45,-99.07 625.65,-86.27 680.31,-79.55"/>
<polygon fill="midnightblue" stroke="midnightblue" points="680.78,-83.02 690.3,-78.37 679.95,-76.07 680.78,-83.02"/>
</g>
<!-- Node16&#45;&gt;Node10 -->
<g id="edge24" class="edge">
<title>Node16&#45;&gt;Node10</title>
<path fill="none" stroke="midnightblue" d="M364.44,-190.43C367.47,-172.72 374.99,-142.27 392.56,-123 409.36,-104.58 434.29,-92.24 455.76,-84.37"/>
<polygon fill="midnightblue" stroke="midnightblue" points="457.03,-87.63 465.34,-81.06 454.74,-81.02 457.03,-87.63"/>
</g>
<!-- Node16&#45;&gt;Node11 -->
<g id="edge25" class="edge">
<title>Node16&#45;&gt;Node11</title>
<path fill="none" stroke="midnightblue" d="M309.02,-198.78C244.04,-191.02 139.12,-175.61 106.56,-154 83.16,-138.47 67.12,-109.24 58.65,-90.33"/>
<polygon fill="midnightblue" stroke="midnightblue" points="61.84,-88.89 54.72,-81.04 55.39,-91.62 61.84,-88.89"/>
</g>
<!-- Node16&#45;&gt;Node12 -->
<g id="edge27" class="edge">
<title>Node16&#45;&gt;Node12</title>
<path fill="none" stroke="midnightblue" d="M410.25,-190.48C450.38,-178.67 507.06,-162 544.54,-150.98"/>
<polygon fill="midnightblue" stroke="midnightblue" points="545.96,-154.21 554.57,-148.03 543.99,-147.49 545.96,-154.21"/>
</g>
<!-- Node17&#45;&gt;Node6 -->
<g id="edge30" class="edge">
<title>Node17&#45;&gt;Node6</title>
<path fill="none" stroke="midnightblue" d="M520.12,-190.45C505.1,-173.03 484.94,-143.18 501.56,-123 523.94,-95.84 612.72,-83.09 680.15,-77.24"/>
<polygon fill="midnightblue" stroke="midnightblue" points="680.68,-80.71 690.36,-76.39 680.1,-73.73 680.68,-80.71"/>
</g>
<!-- Node17&#45;&gt;Node11 -->
<g id="edge29" class="edge">
<title>Node17&#45;&gt;Node11</title>
<path fill="none" stroke="midnightblue" d="M473.04,-196.38C457.26,-194.28 440.28,-192.04 424.56,-190 297.95,-173.58 255.08,-208.37 139.56,-154 121.36,-145.43 121.31,-136.69 106.56,-123 93.85,-111.19 79.39,-97.92 68.49,-87.95"/>
<polygon fill="midnightblue" stroke="midnightblue" points="70.68,-85.21 60.94,-81.05 65.96,-90.38 70.68,-85.21"/>
</g>
<!-- Node17&#45;&gt;Node12 -->
<g id="edge31" class="edge">
<title>Node17&#45;&gt;Node12</title>
<path fill="none" stroke="midnightblue" d="M544.41,-190.4C552.13,-180.36 562.53,-166.84 570.68,-156.25"/>
<polygon fill="midnightblue" stroke="midnightblue" points="573.55,-158.25 576.88,-148.19 568,-153.99 573.55,-158.25"/>
</g>
<!-- Node18&#45;&gt;Node5 -->
<g id="edge35" class="edge">
<title>Node18&#45;&gt;Node5</title>
<path fill="none" stroke="midnightblue" d="M281.57,-128.97C320.42,-121.53 372.53,-108.49 414.56,-87 433.97,-77.08 432.7,-64.98 452.56,-56 532.77,-19.73 638.27,-12.39 690.47,-11.1"/>
<polygon fill="midnightblue" stroke="midnightblue" points="690.54,-14.6 700.47,-10.91 690.4,-7.6 690.54,-14.6"/>
</g>
<!-- Node18&#45;&gt;Node10 -->
<g id="edge36" class="edge">
<title>Node18&#45;&gt;Node10</title>
<path fill="none" stroke="midnightblue" d="M266.23,-128.93C310.87,-119.37 384.57,-103.11 447.56,-87 451.47,-86 455.52,-84.92 459.57,-83.82"/>
<polygon fill="midnightblue" stroke="midnightblue" points="460.81,-87.1 469.51,-81.05 458.94,-80.36 460.81,-87.1"/>
</g>
<!-- Node18&#45;&gt;Node11 -->
<g id="edge37" class="edge">
<title>Node18&#45;&gt;Node11</title>
<path fill="none" stroke="midnightblue" d="M200.15,-129C171.76,-119.36 124.54,-102.92 84.56,-87 82.97,-86.36 81.33,-85.7 79.68,-85.01"/>
<polygon fill="midnightblue" stroke="midnightblue" points="80.89,-81.72 70.32,-81.01 78.14,-88.16 80.89,-81.72"/>
</g>
<!-- Node18&#45;&gt;Node13 -->
<g id="edge40" class="edge">
<title>Node18&#45;&gt;Node13</title>
<path fill="none" stroke="midnightblue" d="M215.72,-128.73C205.57,-119.7 189.37,-105.27 175.92,-93.3"/>
<polygon fill="midnightblue" stroke="midnightblue" points="178.18,-90.63 168.39,-86.59 173.53,-95.85 178.18,-90.63"/>
</g>
<!-- Node19 -->
<g id="node19" class="node">
<title>Node19</title>
<g id="a_node19"><a xlink:title=" ">
<polygon fill="white" stroke="#bfbfbf" points="349.56,-62 349.56,-81 405.56,-81 405.56,-62 349.56,-62"/>
<text text-anchor="middle" x="377.56" y="-69" font-family="Helvetica,sans-Serif" font-size="10.00">optional</text>
</a>
</g>
</g>
<!-- Node18&#45;&gt;Node19 -->
<g id="edge34" class="edge">
<title>Node18&#45;&gt;Node19</title>
<path fill="none" stroke="midnightblue" d="M245.75,-128.87C271.87,-117.7 317.59,-98.15 347.73,-85.26"/>
<polygon fill="midnightblue" stroke="midnightblue" points="349.48,-88.32 357.3,-81.17 346.73,-81.88 349.48,-88.32"/>
</g>
<!-- Node20 -->
<g id="node20" class="node">
<title>Node20</title>
<g id="a_node20"><a xlink:href="error__codes_8hpp.html" target="_top" xlink:title=" ">
<polygon fill="white" stroke="black" points="229.56,-56.5 229.56,-86.5 331.56,-86.5 331.56,-56.5 229.56,-56.5"/>
<text text-anchor="start" x="237.56" y="-74.5" font-family="Helvetica,sans-Serif" font-size="10.00">unilink/base/error</text>
<text text-anchor="middle" x="280.56" y="-63.5" font-family="Helvetica,sans-Serif" font-size="10.00">_codes.hpp</text>
</a>
</g>
</g>
<!-- Node18&#45;&gt;Node20 -->
<g id="edge38" class="edge">
<title>Node18&#45;&gt;Node20</title>
<path fill="none" stroke="midnightblue" d="M232.98,-128.73C240.41,-119.95 252.15,-106.08 262.11,-94.31"/>
<polygon fill="midnightblue" stroke="midnightblue" points="264.86,-96.48 268.64,-86.59 259.51,-91.96 264.86,-96.48"/>
</g>
<!-- Node20&#45;&gt;Node5 -->
<g id="edge39" class="edge">
<title>Node20&#45;&gt;Node5</title>
<path fill="none" stroke="midnightblue" d="M331.87,-57.67C334.8,-57.07 337.72,-56.51 340.56,-56 469.14,-32.98 624.26,-18.86 690.29,-13.49"/>
<polygon fill="midnightblue" stroke="midnightblue" points="690.78,-16.96 700.47,-12.67 690.22,-9.98 690.78,-16.96"/>
</g>
<!-- Node21&#45;&gt;Node3 -->
<g id="edge42" class="edge">
<title>Node21&#45;&gt;Node3</title>
<path fill="none" stroke="midnightblue" d="M1255.68,-257.4C1281.65,-245.99 1317.88,-230.08 1342.88,-219.1"/>
<polygon fill="midnightblue" stroke="midnightblue" points="1344.45,-222.23 1352.19,-215.01 1341.63,-215.82 1344.45,-222.23"/>
</g>
<!-- Node21&#45;&gt;Node5 -->
<g id="edge46" class="edge">
<title>Node21&#45;&gt;Node5</title>
<path fill="none" stroke="midnightblue" d="M1232.53,-257.1C1238.07,-247.33 1244.66,-233.88 1247.56,-221 1257.2,-178.29 1257.83,-161.81 1237.56,-123 1217.48,-84.54 1206.03,-74.04 1166.56,-56 1093.01,-22.38 844.15,-13.67 754.82,-11.6"/>
<polygon fill="midnightblue" stroke="midnightblue" points="754.82,-8.1 744.74,-11.38 754.66,-15.09 754.82,-8.1"/>
</g>
<!-- Node21&#45;&gt;Node6 -->
<g id="edge48" class="edge">
<title>Node21&#45;&gt;Node6</title>
<path fill="none" stroke="midnightblue" d="M1162.42,-271C1064.08,-269.03 876.53,-260.09 824.56,-221 802.71,-204.56 777.05,-127.12 766.03,-91.06"/>
<polygon fill="midnightblue" stroke="midnightblue" points="769.34,-89.88 763.11,-81.31 762.63,-91.9 769.34,-89.88"/>
</g>
<!-- Node21&#45;&gt;Node8 -->
<g id="edge43" class="edge">
<title>Node21&#45;&gt;Node8</title>
<path fill="none" stroke="midnightblue" d="M1214.95,-257.24C1197.21,-228.8 1154.08,-164.21 1104.56,-123 1085.56,-107.18 1060.83,-94.13 1041.5,-85.27"/>
<polygon fill="midnightblue" stroke="midnightblue" points="1042.78,-82 1032.22,-81.13 1039.93,-88.4 1042.78,-82"/>
</g>
<!-- Node21&#45;&gt;Node9 -->
<g id="edge45" class="edge">
<title>Node21&#45;&gt;Node9</title>
<path fill="none" stroke="midnightblue" d="M1227.4,-257.11C1234.03,-228.99 1244.57,-165.75 1218.56,-123 1207.22,-104.36 1186.31,-92.03 1167.49,-84.22"/>
<polygon fill="midnightblue" stroke="midnightblue" points="1168.5,-80.85 1157.91,-80.54 1165.99,-87.39 1168.5,-80.85"/>
</g>
<!-- Node21&#45;&gt;Node10 -->
<g id="edge47" class="edge">
<title>Node21&#45;&gt;Node10</title>
<path fill="none" stroke="midnightblue" d="M1162.39,-267.97C1061.53,-261.52 865.08,-246.14 800.56,-221 731.15,-193.95 731.33,-156.07 664.56,-123 626.28,-104.04 579.46,-90.59 545.32,-82.36"/>
<polygon fill="midnightblue" stroke="midnightblue" points="545.69,-78.85 535.16,-79.97 544.09,-85.67 545.69,-78.85"/>
</g>
<!-- Node22 -->
<g id="node22" class="node">
<title>Node22</title>
<g id="a_node22"><a xlink:title=" ">
<polygon fill="white" stroke="#bfbfbf" points="1016.56,-129 1016.56,-148 1062.56,-148 1062.56,-129 1016.56,-129"/>
<text text-anchor="middle" x="1039.56" y="-136" font-family="Helvetica,sans-Serif" font-size="10.00">future</text>
</a>
</g>
</g>
<!-- Node21&#45;&gt;Node22 -->
<g id="edge44" class="edge">
<title>Node21&#45;&gt;Node22</title>
<path fill="none" stroke="midnightblue" d="M1203.87,-257.37C1168.66,-232.11 1095.27,-179.46 1059.72,-153.96"/>
<polygon fill="midnightblue" stroke="midnightblue" points="1061.71,-151.08 1051.55,-148.1 1057.63,-156.77 1061.71,-151.08"/>
</g>
<!-- Node23 -->
<g id="node23" class="node">
<title>Node23</title>
<g id="a_node23"><a xlink:href="serial__config_8hpp.html" target="_top" xlink:title=" ">
<polygon fill="white" stroke="black" points="1308.56,-123.5 1308.56,-153.5 1420.56,-153.5 1420.56,-123.5 1308.56,-123.5"/>
<text text-anchor="start" x="1316.56" y="-141.5" font-family="Helvetica,sans-Serif" font-size="10.00">unilink/config/serial</text>
<text text-anchor="middle" x="1364.56" y="-130.5" font-family="Helvetica,sans-Serif" font-size="10.00">_config.hpp</text>
</a>
</g>
</g>
<!-- Node21&#45;&gt;Node23 -->
<g id="edge49" class="edge">
<title>Node21&#45;&gt;Node23</title>
<path fill="none" stroke="midnightblue" d="M1246.37,-257.33C1260.84,-247.86 1279.59,-234.66 1294.56,-221 1314.51,-202.8 1334.28,-179.12 1347.7,-161.98"/>
<polygon fill="midnightblue" stroke="midnightblue" points="1350.77,-163.73 1354.1,-153.68 1345.22,-159.46 1350.77,-163.73"/>
</g>
<!-- Node26 -->
<g id="node26" class="node">
<title>Node26</title>
<g id="a_node26"><a xlink:href="ichannel_8hpp.html" target="_top" xlink:title=" ">
<polygon fill="white" stroke="black" points="833.56,-196 833.56,-215 991.56,-215 991.56,-196 833.56,-196"/>
<text text-anchor="middle" x="912.56" y="-203" font-family="Helvetica,sans-Serif" font-size="10.00">unilink/wrapper/ichannel.hpp</text>
</a>
</g>
</g>
<!-- Node21&#45;&gt;Node26 -->
<g id="edge54" class="edge">
<title>Node21&#45;&gt;Node26</title>
<path fill="none" stroke="midnightblue" d="M1162.49,-258.74C1104.49,-246.61 1018.29,-228.6 963.78,-217.2"/>
<polygon fill="midnightblue" stroke="midnightblue" points="964.16,-213.71 953.66,-215.09 962.73,-220.56 964.16,-213.71"/>
</g>
<!-- Node23&#45;&gt;Node5 -->
<g id="edge50" class="edge">
<title>Node23&#45;&gt;Node5</title>
<path fill="none" stroke="midnightblue" d="M1342.11,-123.41C1326.05,-113.32 1303.94,-99.37 1284.56,-87 1263.16,-73.33 1260.59,-64.24 1236.56,-56 1146.73,-25.19 853.05,-14.55 754.87,-11.8"/>
<polygon fill="midnightblue" stroke="midnightblue" points="754.76,-8.3 744.67,-11.52 754.57,-15.29 754.76,-8.3"/>
</g>
<!-- Node24 -->
<g id="node24" class="node">
<title>Node24</title>
<g id="a_node24"><a xlink:href="constants_8hpp.html" target="_top" xlink:title=" ">
<polygon fill="white" stroke="black" points="1327.06,-62 1327.06,-81 1474.06,-81 1474.06,-62 1327.06,-62"/>
<text text-anchor="middle" x="1400.56" y="-69" font-family="Helvetica,sans-Serif" font-size="10.00">unilink/base/constants.hpp</text>
</a>
</g>
</g>
<!-- Node23&#45;&gt;Node24 -->
<g id="edge51" class="edge">
<title>Node23&#45;&gt;Node24</title>
<path fill="none" stroke="midnightblue" d="M1372.38,-123.4C1377.77,-113.66 1384.98,-100.65 1390.75,-90.21"/>
<polygon fill="midnightblue" stroke="midnightblue" points="1393.97,-91.64 1395.75,-81.19 1387.84,-88.25 1393.97,-91.64"/>
</g>
<!-- Node24&#45;&gt;Node4 -->
<g id="edge53" class="edge">
<title>Node24&#45;&gt;Node4</title>
<path fill="none" stroke="midnightblue" d="M1405.58,-61.98C1410.73,-53.23 1418.88,-39.37 1425.38,-28.31"/>
<polygon fill="midnightblue" stroke="midnightblue" points="1428.51,-29.9 1430.56,-19.51 1422.47,-26.35 1428.51,-29.9"/>
</g>
<!-- Node25 -->
<g id="node25" class="node">
<title>Node25</title>
<g id="a_node25"><a xlink:title=" ">
<polygon fill="white" stroke="#bfbfbf" points="1339.06,-0.5 1339.06,-19.5 1392.06,-19.5 1392.06,-0.5 1339.06,-0.5"/>
<text text-anchor="middle" x="1365.56" y="-7.5" font-family="Helvetica,sans-Serif" font-size="10.00">cstddef</text>
</a>
</g>
</g>
<!-- Node24&#45;&gt;Node25 -->
<g id="edge52" class="edge">
<title>Node24&#45;&gt;Node25</title>
<path fill="none" stroke="midnightblue" d="M1395.55,-61.98C1390.4,-53.23 1382.25,-39.37 1375.75,-28.31"/>
<polygon fill="midnightblue" stroke="midnightblue" points="1378.66,-26.35 1370.57,-19.51 1372.62,-29.9 1378.66,-26.35"/>
</g>
<!-- Node26&#45;&gt;Node5 -->
<g id="edge58" class="edge">
<title>Node26&#45;&gt;Node5</title>
<path fill="none" stroke="midnightblue" d="M910.87,-195.99C905.38,-170.7 885.71,-95.3 839.56,-56 815.1,-35.17 779.93,-23.39 754.55,-17.16"/>
<polygon fill="midnightblue" stroke="midnightblue" points="755.2,-13.72 744.67,-14.89 753.63,-20.54 755.2,-13.72"/>
</g>
<!-- Node26&#45;&gt;Node6 -->
<g id="edge60" class="edge">
<title>Node26&#45;&gt;Node6</title>
<path fill="none" stroke="midnightblue" d="M907.71,-195.97C898.32,-180.04 876.32,-145.4 850.56,-123 832.49,-107.28 808.75,-94.21 790.19,-85.3"/>
<polygon fill="midnightblue" stroke="midnightblue" points="791.55,-82.08 781.01,-81.03 788.6,-88.42 791.55,-82.08"/>
</g>
<!-- Node26&#45;&gt;Node8 -->
<g id="edge55" class="edge">
<title>Node26&#45;&gt;Node8</title>
<path fill="none" stroke="midnightblue" d="M918.99,-195.84C935.06,-174.21 977.15,-117.51 998.2,-89.15"/>
<polygon fill="midnightblue" stroke="midnightblue" points="1001.09,-91.14 1004.24,-81.02 995.47,-86.96 1001.09,-91.14"/>
</g>
<!-- Node26&#45;&gt;Node9 -->
<g id="edge57" class="edge">
<title>Node26&#45;&gt;Node9</title>
<path fill="none" stroke="midnightblue" d="M923.73,-195.79C936.3,-185.9 957.22,-169.18 974.56,-154 989.71,-140.75 990.67,-133.94 1007.56,-123 1033.42,-106.25 1065.76,-93.1 1090.5,-84.42"/>
<polygon fill="midnightblue" stroke="midnightblue" points="1091.92,-87.63 1100.26,-81.09 1089.66,-81 1091.92,-87.63"/>
</g>
<!-- Node26&#45;&gt;Node10 -->
<g id="edge59" class="edge">
<title>Node26&#45;&gt;Node10</title>
<path fill="none" stroke="midnightblue" d="M897.04,-195.85C866.95,-179.43 798.23,-143.53 736.56,-123 671.65,-101.39 593.6,-86.91 545.02,-79.19"/>
<polygon fill="midnightblue" stroke="midnightblue" points="545.54,-75.73 535.12,-77.64 544.46,-82.64 545.54,-75.73"/>
</g>
<!-- Node26&#45;&gt;Node12 -->
<g id="edge61" class="edge">
<title>Node26&#45;&gt;Node12</title>
<path fill="none" stroke="midnightblue" d="M869.21,-195.94C809.34,-184.11 701.42,-162.78 636.74,-150.01"/>
<polygon fill="midnightblue" stroke="midnightblue" points="637.24,-146.54 626.75,-148.03 635.88,-153.4 637.24,-146.54"/>
</g>
<!-- Node26&#45;&gt;Node18 -->
<g id="edge62" class="edge">
<title>Node26&#45;&gt;Node18</title>
<path fill="none" stroke="midnightblue" d="M833.42,-197.01C703.78,-184.75 447.17,-160.47 312.58,-147.73"/>
<polygon fill="midnightblue" stroke="midnightblue" points="312.6,-144.22 302.32,-146.76 311.94,-151.19 312.6,-144.22"/>
</g>
<!-- Node26&#45;&gt;Node22 -->
<g id="edge56" class="edge">
<title>Node26&#45;&gt;Node22</title>
<path fill="none" stroke="midnightblue" d="M929.43,-195.87C950.97,-184.84 988.46,-165.66 1013.64,-152.77"/>
<polygon fill="midnightblue" stroke="midnightblue" points="1015.32,-155.84 1022.63,-148.17 1012.13,-149.61 1015.32,-155.84"/>
</g>
<!-- Node28&#45;&gt;Node6 -->
<g id="edge66" class="edge">
<title>Node28&#45;&gt;Node6</title>
<path fill="none" stroke="midnightblue" d="M1514.81,-195.38C1422.6,-180.29 1232.5,-149.21 1071.56,-123 985.52,-108.99 886.07,-92.85 823.26,-82.66"/>
<polygon fill="midnightblue" stroke="midnightblue" points="823.55,-79.16 813.12,-81.02 822.43,-86.07 823.55,-79.16"/>
</g>
<!-- Node29 -->
<g id="node29" class="node">
<title>Node29</title>
<g id="a_node29"><a xlink:title=" ">
<polygon fill="white" stroke="#bfbfbf" points="1514.56,-129 1514.56,-148 1562.56,-148 1562.56,-129 1514.56,-129"/>
<text text-anchor="middle" x="1538.56" y="-136" font-family="Helvetica,sans-Serif" font-size="10.00">mutex</text>
</a>
</g>
</g>
<!-- Node28&#45;&gt;Node29 -->
<g id="edge65" class="edge">
<title>Node28&#45;&gt;Node29</title>
<path fill="none" stroke="midnightblue" d="M1563.62,-190.4C1558.83,-180.66 1552.42,-167.65 1547.28,-157.21"/>
<polygon fill="midnightblue" stroke="midnightblue" points="1550.4,-155.62 1542.84,-148.19 1544.12,-158.71 1550.4,-155.62"/>
</g>
<!-- Node30 -->
<g id="node30" class="node">
<title>Node30</title>
<g id="a_node30"><a xlink:href="io__context__manager_8hpp.html" target="_top" xlink:title=" ">
<polygon fill="white" stroke="black" points="1580.56,-123.5 1580.56,-153.5 1720.56,-153.5 1720.56,-123.5 1580.56,-123.5"/>
<text text-anchor="start" x="1588.56" y="-141.5" font-family="Helvetica,sans-Serif" font-size="10.00">unilink/concurrency</text>
<text text-anchor="middle" x="1650.56" y="-130.5" font-family="Helvetica,sans-Serif" font-size="10.00">/io_context_manager.hpp</text>
</a>
</g>
</g>
<!-- Node28&#45;&gt;Node30 -->
<g id="edge67" class="edge">
<title>Node28&#45;&gt;Node30</title>
<path fill="none" stroke="midnightblue" d="M1587.92,-190.4C1598.83,-181.54 1613.07,-169.96 1625.23,-160.09"/>
<polygon fill="midnightblue" stroke="midnightblue" points="1627.69,-162.6 1633.24,-153.58 1623.27,-157.17 1627.69,-162.6"/>
</g>
<!-- Node30&#45;&gt;Node6 -->
<g id="edge71" class="edge">
<title>Node30&#45;&gt;Node6</title>
<path fill="none" stroke="midnightblue" d="M1580.42,-124.17C1577.43,-123.74 1574.47,-123.35 1571.56,-123 1305.48,-90.75 1237.04,-104.28 969.56,-87 927.08,-84.26 879.76,-80.99 840.9,-78.25"/>
<polygon fill="midnightblue" stroke="midnightblue" points="840.92,-74.75 830.7,-77.53 840.43,-81.73 840.92,-74.75"/>
</g>
<!-- Node30&#45;&gt;Node9 -->
<g id="edge70" class="edge">
<title>Node30&#45;&gt;Node9</title>
<path fill="none" stroke="midnightblue" d="M1580.39,-124.36C1577.41,-123.89 1574.46,-123.43 1571.56,-123 1423.12,-100.94 1245.43,-83.33 1167.94,-76.08"/>
<polygon fill="midnightblue" stroke="midnightblue" points="1167.96,-72.57 1157.68,-75.13 1167.31,-79.54 1167.96,-72.57"/>
</g>
<!-- Node30&#45;&gt;Node27 -->
<g id="edge69" class="edge">
<title>Node30&#45;&gt;Node27</title>
<path fill="none" stroke="midnightblue" d="M1671.83,-123.4C1688.26,-112.5 1710.9,-97.48 1727.33,-86.58"/>
<polygon fill="midnightblue" stroke="midnightblue" points="1729.34,-89.45 1735.74,-81.01 1725.47,-83.62 1729.34,-89.45"/>
</g>
<!-- Node31 -->
<g id="node31" class="node">
<title>Node31</title>
<g id="a_node31"><a xlink:title=" ">
<polygon fill="white" stroke="#bfbfbf" points="1547.56,-56.5 1547.56,-86.5 1659.56,-86.5 1659.56,-56.5 1547.56,-56.5"/>
<text text-anchor="start" x="1555.56" y="-74.5" font-family="Helvetica,sans-Serif" font-size="10.00">boost/asio/executor</text>
<text text-anchor="middle" x="1603.56" y="-63.5" font-family="Helvetica,sans-Serif" font-size="10.00">_work_guard.hpp</text>
</a>
</g>
</g>
<!-- Node30&#45;&gt;Node31 -->
<g id="edge68" class="edge">
<title>Node30&#45;&gt;Node31</title>
<path fill="none" stroke="midnightblue" d="M1640.37,-123.4C1634.33,-115.05 1626.55,-104.29 1619.7,-94.81"/>
<polygon fill="midnightblue" stroke="midnightblue" points="1622.44,-92.63 1613.74,-86.58 1616.77,-96.73 1622.44,-92.63"/>
</g>
</g>
</svg>
        <g id="navigator" transform="translate(0 0)" fill="#404254">
                <rect fill="#f2f5e9" fill-opacity="0.5" stroke="#606060" stroke-width=".5" x="0" y="0" width="60" height="60"/>
                <use id="zoomplus" xlink:href="#zoomPlus" x="17" y="9" onmousedown="handleZoom(evt,'in')"/>
                <use id="zoomminus" xlink:href="#zoomMin" x="42" y="9" onmousedown="handleZoom(evt,'out')"/>
                <use id="reset" xlink:href="#resetDef" x="30" y="36" onmousedown="handleReset()"/>
                <g id="arrowUp" xlink:href="#dirArrow" transform="translate(30 24)" onmousedown="handlePan(0,-1)">
                  <use xlink:href="#rim" fill="#404040">
                        <set attributeName="fill" to="#808080" begin="arrowUp.mouseover" end="arrowUp.mouseout"/>
                  </use>
                  <path fill="none" stroke="white" stroke-width="1.5" d="M0,-3.0v7 M-2.5,-0.5L0,-3.0L2.5,-0.5"/>
                </g>
                <g id="arrowRight" xlink:href="#dirArrow" transform="rotate(90) translate(36 -43)" onmousedown="handlePan(1,0)">
                  <use xlink:href="#rim" fill="#404040">
                        <set attributeName="fill" to="#808080" begin="arrowRight.mouseover" end="arrowRight.mouseout"/>
                  </use>
                  <path fill="none" stroke="white" stroke-width="1.5" d="M0,-3.0v7 M-2.5,-0.5L0,-3.0L2.5,-0.5"/>
                </g>
                <g id="arrowDown" xlink:href="#dirArrow" transform="rotate(180) translate(-30 -48)" onmousedown="handlePan(0,1)">
                  <use xlink:href="#rim" fill="#404040">
                        <set attributeName="fill" to="#808080" begin="arrowDown.mouseover" end="arrowDown.mouseout"/>
                  </use>
                  <path fill="none" stroke="white" stroke-width="1.5" d="M0,-3.0v7 M-2.5,-0.5L0,-3.0L2.5,-0.5"/>
                </g>
                <g id="arrowLeft" xlink:href="#dirArrow" transform="rotate(270) translate(-36 17)" onmousedown="handlePan(-1,0)">
                  <use xlink:href="#rim" fill="#404040">
                        <set attributeName="fill" to="#808080" begin="arrowLeft.mouseover" end="arrowLeft.mouseout"/>
                  </use>
                  <path fill="none" stroke="white" stroke-width="1.5" d="M0,-3.0v7 M-2.5,-0.5L0,-3.0L2.5,-0.5"/>
                </g>
        </g>
        <svg viewBox="0 0 15 15" width="100%" height="30px" preserveAspectRatio="xMaxYMin meet">
         <g id="arrow_out" transform="scale(0.3 0.3)">
          <a xlink:href="serial__builder_8cc__incl_org.svg" target="_base">
           <rect id="button" ry="5" rx="5" y="6" x="6" height="38" width="38"
                fill="#f2f5e9" fill-opacity="0.5" stroke="#606060" stroke-width="1.0"/>
           <path id="arrow"
             d="M 11.500037,31.436501 C 11.940474,20.09759 22.043105,11.32322 32.158766,21.979434 L 37.068811,17.246167 C 37.068811,17.246167 37.088388,32 37.088388,32 L 22.160133,31.978069 C 22.160133,31.978069 26.997745,27.140456 26.997745,27.140456 C 18.528582,18.264221 13.291696,25.230495 11.500037,31.436501 z"
             style="fill:#404040;"/>
          </a>
         </g>
        </svg>
</svg>
