<?xml version="1.0" encoding="UTF-8" standalone="no"?>
<!DOCTYPE svg PUBLIC "-//W3C//DTD SVG 1.1//EN"
 "http://www.w3.org/Graphics/SVG/1.1/DTD/svg11.dtd">
<!-- Generated by graphviz version 2.43.0 (0)
 -->
<!-- Title: unilink/builder/serial_builder.hpp Pages: 1 -->
<!--zoomable 363 -->
<svg id="main" version="1.1" xmlns="http://www.w3.org/2000/svg" xmlns:xlink="http://www.w3.org/1999/xlink" xml:space="preserve" onload="init(evt)">
<style type="text/css"><![CDATA[
.edge:hover path { stroke: red; }
.edge:hover polygon { stroke: red; fill: red; }
]]></style>
<script type="text/javascript"><![CDATA[
var edges = document.getElementsByTagName('g');
if (edges && edges.length) {
  for (var i=0;i<edges.length;i++) {
    if (edges[i].id.substr(0,4)=='edge') {
      edges[i].setAttribute('class','edge');
    }
  }
}
]]></script>
        <defs>
                <circle id="rim" cx="0" cy="0" r="7"/>
                <circle id="rim2" cx="0" cy="0" r="3.5"/>
                <g id="zoomPlus">
                        <use xlink:href="#rim" fill="#404040">
                                <set attributeName="fill" to="#808080" begin="zoomplus.mouseover" end="zoomplus.mouseout"/>
                        </use>
                        <path d="M-4,0h8M0,-4v8" fill="none" stroke="white" stroke-width="1.5" pointer-events="none"/>
                </g>
                <g id="zoomMin">
                        <use xlink:href="#rim" fill="#404040">
                                <set attributeName="fill" to="#808080" begin="zoomminus.mouseover" end="zoomminus.mouseout"/>
                        </use>
                        <path d="M-4,0h8" fill="none" stroke="white" stroke-width="1.5" pointer-events="none"/>
                </g>
                <g id="dirArrow">
                        <path fill="none" stroke="white" stroke-width="1.5" d="M0,-3.0v7 M-2.5,-0.5L0,-3.0L2.5,-0.5"/>
                </g>
               <g id="resetDef">
                       <use xlink:href="#rim2" fill="#404040">
                               <set attributeName="fill" to="#808080" begin="reset.mouseover" end="reset.mouseout"/>
                       </use>
               </g>
        </defs>

<script type="text/javascript">
var viewWidth = 1585;
var viewHeight = 363;
var sectionId = 'dynsection-0';
</script>
<script xlink:href="svgpan.js"/>
<svg id="graph" class="graph">
<g id="viewport">
<title>unilink/builder/serial_builder.hpp</title>
<polygon fill="white" stroke="transparent" points="-4,4 -4,-359 1581.27,-359 1581.27,4 -4,4"/>
<!-- Node1 -->
<g id="node1" class="node">
<title>Node1</title>
<g id="a_node1"><a xlink:title=" ">
<polygon fill="#bfbfbf" stroke="black" points="872.27,-324.5 872.27,-354.5 988.27,-354.5 988.27,-324.5 872.27,-324.5"/>
<text text-anchor="start" x="880.27" y="-342.5" font-family="Helvetica,sans-Serif" font-size="10.00">unilink/builder/serial</text>
<text text-anchor="middle" x="930.27" y="-331.5" font-family="Helvetica,sans-Serif" font-size="10.00">_builder.hpp</text>
</a>
</g>
</g>
<!-- Node2 -->
<g id="node2" class="node">
<title>Node2</title>
<g id="a_node2"><a xlink:title=" ">
<polygon fill="white" stroke="#bfbfbf" points="790.27,-196 790.27,-215 840.27,-215 840.27,-196 790.27,-196"/>
<text text-anchor="middle" x="815.27" y="-203" font-family="Helvetica,sans-Serif" font-size="10.00">chrono</text>
</a>
</g>
</g>
<!-- Node1&#45;&gt;Node2 -->
<g id="edge1" class="edge">
<title>Node1&#45;&gt;Node2</title>
<path fill="none" stroke="midnightblue" d="M917.96,-324.37C896.51,-299.76 852.4,-249.12 829.61,-222.96"/>
<polygon fill="midnightblue" stroke="midnightblue" points="831.97,-220.34 822.76,-215.1 826.69,-224.94 831.97,-220.34"/>
</g>
<!-- Node3 -->
<g id="node3" class="node">
<title>Node3</title>
<g id="a_node3"><a xlink:title=" ">
<polygon fill="white" stroke="#bfbfbf" points="1485.27,-0.5 1485.27,-19.5 1535.27,-19.5 1535.27,-0.5 1485.27,-0.5"/>
<text text-anchor="middle" x="1510.27" y="-7.5" font-family="Helvetica,sans-Serif" font-size="10.00">cstdint</text>
</a>
</g>
</g>
<!-- Node1&#45;&gt;Node3 -->
<g id="edge2" class="edge">
<title>Node1&#45;&gt;Node3</title>
<path fill="none" stroke="midnightblue" d="M988.54,-338.9C1147.58,-338.43 1577.27,-326.08 1577.27,-206.5 1577.27,-206.5 1577.27,-206.5 1577.27,-137.5 1577.27,-100.31 1576.86,-88.22 1558.27,-56 1551.56,-44.37 1540.89,-33.93 1531.31,-26.04"/>
<polygon fill="midnightblue" stroke="midnightblue" points="1533.34,-23.19 1523.3,-19.8 1529.04,-28.71 1533.34,-23.19"/>
</g>
<!-- Node4 -->
<g id="node4" class="node">
<title>Node4</title>
<g id="a_node4"><a xlink:title=" ">
<polygon fill="white" stroke="#bfbfbf" points="861.27,-0.5 861.27,-19.5 905.27,-19.5 905.27,-0.5 861.27,-0.5"/>
<text text-anchor="middle" x="883.27" y="-7.5" font-family="Helvetica,sans-Serif" font-size="10.00">string</text>
</a>
</g>
</g>
<!-- Node1&#45;&gt;Node4 -->
<g id="edge3" class="edge">
<title>Node1&#45;&gt;Node4</title>
<path fill="none" stroke="midnightblue" d="M988.47,-335.07C1130.2,-324.21 1475.56,-281.25 1389.27,-123 1362.94,-74.73 1337.07,-74.43 1285.27,-56 1217.13,-31.75 998.4,-17.39 915.52,-12.71"/>
<polygon fill="midnightblue" stroke="midnightblue" points="915.61,-9.21 905.43,-12.15 915.22,-16.19 915.61,-9.21"/>
</g>
<!-- Node5 -->
<g id="node5" class="node">
<title>Node5</title>
<g id="a_node5"><a xlink:href="visibility_8hpp.html" target="_top" xlink:title=" ">
<polygon fill="white" stroke="black" points="10.27,-62 10.27,-81 150.27,-81 150.27,-62 10.27,-62"/>
<text text-anchor="middle" x="80.27" y="-69" font-family="Helvetica,sans-Serif" font-size="10.00">unilink/base/visibility.hpp</text>
</a>
</g>
</g>
<!-- Node1&#45;&gt;Node5 -->
<g id="edge4" class="edge">
<title>Node1&#45;&gt;Node5</title>
<path fill="none" stroke="midnightblue" d="M872.2,-335.55C678.56,-325.1 63.95,-286.97 7.27,-221 -2.33,-209.83 -3.36,-149.81 11.27,-123 20.16,-106.7 36.82,-94.28 51.55,-85.83"/>
<polygon fill="midnightblue" stroke="midnightblue" points="53.23,-88.9 60.38,-81.09 49.92,-82.74 53.23,-88.9"/>
</g>
<!-- Node6 -->
<g id="node6" class="node">
<title>Node6</title>
<g id="a_node6"><a xlink:href="ibuilder_8hpp.html" target="_top" xlink:title=" ">
<polygon fill="white" stroke="black" points="456.27,-263 456.27,-282 602.27,-282 602.27,-263 456.27,-263"/>
<text text-anchor="middle" x="529.27" y="-270" font-family="Helvetica,sans-Serif" font-size="10.00">unilink/builder/ibuilder.hpp</text>
</a>
</g>
</g>
<!-- Node1&#45;&gt;Node6 -->
<g id="edge5" class="edge">
<title>Node1&#45;&gt;Node6</title>
<path fill="none" stroke="midnightblue" d="M871.96,-329.05C797.33,-316.95 668.55,-296.08 591.89,-283.65"/>
<polygon fill="midnightblue" stroke="midnightblue" points="592.32,-280.18 581.89,-282.03 591.2,-287.09 592.32,-280.18"/>
</g>
<!-- Node20 -->
<g id="node20" class="node">
<title>Node20</title>
<g id="a_node20"><a xlink:href="wrapper_2serial_2serial_8hpp.html" target="_top" xlink:title=" ">
<polygon fill="white" stroke="black" points="967.27,-257.5 967.27,-287.5 1089.27,-287.5 1089.27,-257.5 967.27,-257.5"/>
<text text-anchor="start" x="975.27" y="-275.5" font-family="Helvetica,sans-Serif" font-size="10.00">unilink/wrapper/serial</text>
<text text-anchor="middle" x="1028.27" y="-264.5" font-family="Helvetica,sans-Serif" font-size="10.00">/serial.hpp</text>
</a>
</g>
</g>
<!-- Node1&#45;&gt;Node20 -->
<g id="edge40" class="edge">
<title>Node1&#45;&gt;Node20</title>
<path fill="none" stroke="midnightblue" d="M951.53,-324.4C965.27,-315.28 983.35,-303.29 998.51,-293.24"/>
<polygon fill="midnightblue" stroke="midnightblue" points="1000.65,-296.02 1007.05,-287.58 996.78,-290.19 1000.65,-296.02"/>
</g>
<!-- Node6&#45;&gt;Node4 -->
<g id="edge8" class="edge">
<title>Node6&#45;&gt;Node4</title>
<path fill="none" stroke="midnightblue" d="M530.18,-262.93C534.35,-224.69 551.98,-70.79 567.27,-56 607.14,-17.43 777.94,-11.66 850.48,-10.98"/>
<polygon fill="midnightblue" stroke="midnightblue" points="850.87,-14.48 860.84,-10.92 850.82,-7.48 850.87,-14.48"/>
</g>
<!-- Node6&#45;&gt;Node5 -->
<g id="edge11" class="edge">
<title>Node6&#45;&gt;Node5</title>
<path fill="none" stroke="midnightblue" d="M456.26,-269.45C324.15,-264.97 56.41,-252.12 28.27,-221 -0.94,-188.69 11.31,-163.12 28.27,-123 34.36,-108.59 46.8,-96.27 57.98,-87.4"/>
<polygon fill="midnightblue" stroke="midnightblue" points="60.23,-90.09 66.16,-81.32 56.05,-84.48 60.23,-90.09"/>
</g>
<!-- Node7 -->
<g id="node7" class="node">
<title>Node7</title>
<g id="a_node7"><a xlink:title=" ">
<polygon fill="white" stroke="#bfbfbf" points="1073.77,-62 1073.77,-81 1138.77,-81 1138.77,-62 1073.77,-62"/>
<text text-anchor="middle" x="1106.27" y="-69" font-family="Helvetica,sans-Serif" font-size="10.00">functional</text>
</a>
</g>
</g>
<!-- Node6&#45;&gt;Node7 -->
<g id="edge6" class="edge">
<title>Node6&#45;&gt;Node7</title>
<path fill="none" stroke="midnightblue" d="M602.34,-272.26C730.04,-272.35 987.48,-266.64 1063.27,-221 1093.79,-202.62 1097.06,-188.13 1107.27,-154 1113.46,-133.29 1111.91,-108.28 1109.65,-91.47"/>
<polygon fill="midnightblue" stroke="midnightblue" points="1113.06,-90.64 1108.06,-81.3 1106.14,-91.72 1113.06,-90.64"/>
</g>
<!-- Node8 -->
<g id="node8" class="node">
<title>Node8</title>
<g id="a_node8"><a xlink:title=" ">
<polygon fill="white" stroke="#bfbfbf" points="900.27,-62 900.27,-81 958.27,-81 958.27,-62 900.27,-62"/>
<text text-anchor="middle" x="929.27" y="-69" font-family="Helvetica,sans-Serif" font-size="10.00">memory</text>
</a>
</g>
</g>
<!-- Node6&#45;&gt;Node8 -->
<g id="edge7" class="edge">
<title>Node6&#45;&gt;Node8</title>
<path fill="none" stroke="midnightblue" d="M570.44,-262.98C606.06,-254.78 658.44,-240.72 701.27,-221 784.69,-182.59 872.9,-116.88 910.52,-87.48"/>
<polygon fill="midnightblue" stroke="midnightblue" points="912.87,-90.08 918.56,-81.14 908.54,-84.58 912.87,-90.08"/>
</g>
<!-- Node9 -->
<g id="node9" class="node">
<title>Node9</title>
<g id="a_node9"><a xlink:title=" ">
<polygon fill="white" stroke="#bfbfbf" points="808.77,-62 808.77,-81 881.77,-81 881.77,-62 808.77,-62"/>
<text text-anchor="middle" x="845.27" y="-69" font-family="Helvetica,sans-Serif" font-size="10.00">string_view</text>
</a>
</g>
</g>
<!-- Node6&#45;&gt;Node9 -->
<g id="edge9" class="edge">
<title>Node6&#45;&gt;Node9</title>
<path fill="none" stroke="midnightblue" d="M554.99,-262.98C601.61,-246.73 701.86,-208.06 773.27,-154 797.88,-135.37 820.42,-107.29 833.5,-89.43"/>
<polygon fill="midnightblue" stroke="midnightblue" points="836.47,-91.3 839.44,-81.13 830.77,-87.23 836.47,-91.3"/>
</g>
<!-- Node10 -->
<g id="node10" class="node">
<title>Node10</title>
<g id="a_node10"><a xlink:title=" ">
<polygon fill="white" stroke="#bfbfbf" points="472.77,-62 472.77,-81 519.77,-81 519.77,-62 472.77,-62"/>
<text text-anchor="middle" x="496.27" y="-69" font-family="Helvetica,sans-Serif" font-size="10.00">vector</text>
</a>
</g>
</g>
<!-- Node6&#45;&gt;Node10 -->
<g id="edge10" class="edge">
<title>Node6&#45;&gt;Node10</title>
<path fill="none" stroke="midnightblue" d="M527.85,-262.95C522.9,-233.1 506.32,-133.08 499.37,-91.2"/>
<polygon fill="midnightblue" stroke="midnightblue" points="502.81,-90.54 497.72,-81.24 495.9,-91.68 502.81,-90.54"/>
</g>
<!-- Node11 -->
<g id="node11" class="node">
<title>Node11</title>
<g id="a_node11"><a xlink:href="iframer_8hpp.html" target="_top" xlink:title=" ">
<polygon fill="white" stroke="black" points="336.77,-129 336.77,-148 481.77,-148 481.77,-129 336.77,-129"/>
<text text-anchor="middle" x="409.27" y="-136" font-family="Helvetica,sans-Serif" font-size="10.00">unilink/framer/iframer.hpp</text>
</a>
</g>
</g>
<!-- Node6&#45;&gt;Node11 -->
<g id="edge12" class="edge">
<title>Node6&#45;&gt;Node11</title>
<path fill="none" stroke="midnightblue" d="M521.39,-262.84C501.56,-241.02 449.29,-183.53 423.74,-155.42"/>
<polygon fill="midnightblue" stroke="midnightblue" points="426.33,-153.07 417.01,-148.02 421.15,-157.77 426.33,-153.07"/>
</g>
<!-- Node12 -->
<g id="node12" class="node">
<title>Node12</title>
<g id="a_node12"><a xlink:href="safe__span_8hpp.html" target="_top" xlink:title=" ">
<polygon fill="white" stroke="black" points="336.27,-56.5 336.27,-86.5 454.27,-86.5 454.27,-56.5 336.27,-56.5"/>
<text text-anchor="start" x="344.27" y="-74.5" font-family="Helvetica,sans-Serif" font-size="10.00">unilink/memory/safe</text>
<text text-anchor="middle" x="395.27" y="-63.5" font-family="Helvetica,sans-Serif" font-size="10.00">_span.hpp</text>
</a>
</g>
</g>
<!-- Node6&#45;&gt;Node12 -->
<g id="edge31" class="edge">
<title>Node6&#45;&gt;Node12</title>
<path fill="none" stroke="midnightblue" d="M455.89,-271.75C363.75,-270.31 213.44,-261.6 178.27,-221 125.77,-160.41 247.41,-113.07 328.98,-89.31"/>
<polygon fill="midnightblue" stroke="midnightblue" points="330.06,-92.64 338.72,-86.53 328.14,-85.91 330.06,-92.64"/>
</g>
<!-- Node15 -->
<g id="node15" class="node">
<title>Node15</title>
<g id="a_node15"><a xlink:href="line__framer_8hpp.html" target="_top" xlink:title=" ">
<polygon fill="white" stroke="black" points="331.77,-190.5 331.77,-220.5 438.77,-220.5 438.77,-190.5 331.77,-190.5"/>
<text text-anchor="start" x="339.77" y="-208.5" font-family="Helvetica,sans-Serif" font-size="10.00">unilink/framer/line</text>
<text text-anchor="middle" x="385.27" y="-197.5" font-family="Helvetica,sans-Serif" font-size="10.00">_framer.hpp</text>
</a>
</g>
</g>
<!-- Node6&#45;&gt;Node15 -->
<g id="edge21" class="edge">
<title>Node6&#45;&gt;Node15</title>
<path fill="none" stroke="midnightblue" d="M510.15,-262.87C488.73,-253.2 453.39,-237.25 425.76,-224.78"/>
<polygon fill="midnightblue" stroke="midnightblue" points="426.9,-221.45 416.35,-220.53 424.02,-227.83 426.9,-221.45"/>
</g>
<!-- Node16 -->
<g id="node16" class="node">
<title>Node16</title>
<g id="a_node16"><a xlink:href="packet__framer_8hpp.html" target="_top" xlink:title=" ">
<polygon fill="white" stroke="black" points="186.77,-190.5 186.77,-220.5 307.77,-220.5 307.77,-190.5 186.77,-190.5"/>
<text text-anchor="start" x="194.77" y="-208.5" font-family="Helvetica,sans-Serif" font-size="10.00">unilink/framer/packet</text>
<text text-anchor="middle" x="247.27" y="-197.5" font-family="Helvetica,sans-Serif" font-size="10.00">_framer.hpp</text>
</a>
</g>
</g>
<!-- Node6&#45;&gt;Node16 -->
<g id="edge27" class="edge">
<title>Node6&#45;&gt;Node16</title>
<path fill="none" stroke="midnightblue" d="M492.11,-262.94C447.97,-252.76 373.37,-235.56 318.08,-222.82"/>
<polygon fill="midnightblue" stroke="midnightblue" points="318.53,-219.33 308,-220.5 316.95,-226.15 318.53,-219.33"/>
</g>
<!-- Node17 -->
<g id="node17" class="node">
<title>Node17</title>
<g id="a_node17"><a xlink:href="context_8hpp.html" target="_top" xlink:title=" ">
<polygon fill="white" stroke="black" points="576.77,-129 576.77,-148 729.77,-148 729.77,-129 576.77,-129"/>
<text text-anchor="middle" x="653.27" y="-136" font-family="Helvetica,sans-Serif" font-size="10.00">unilink/wrapper/context.hpp</text>
</a>
</g>
</g>
<!-- Node6&#45;&gt;Node17 -->
<g id="edge32" class="edge">
<title>Node6&#45;&gt;Node17</title>
<path fill="none" stroke="midnightblue" d="M537.4,-262.84C557.9,-241.02 611.91,-183.53 638.31,-155.42"/>
<polygon fill="midnightblue" stroke="midnightblue" points="640.97,-157.71 645.26,-148.02 635.87,-152.91 640.97,-157.71"/>
</g>
<!-- Node11&#45;&gt;Node5 -->
<g id="edge16" class="edge">
<title>Node11&#45;&gt;Node5</title>
<path fill="none" stroke="midnightblue" d="M365.92,-128.94C306.04,-117.11 198.12,-95.78 133.45,-83.01"/>
<polygon fill="midnightblue" stroke="midnightblue" points="133.94,-79.54 123.45,-81.03 132.58,-86.4 133.94,-79.54"/>
</g>
<!-- Node11&#45;&gt;Node7 -->
<g id="edge13" class="edge">
<title>Node11&#45;&gt;Node7</title>
<path fill="none" stroke="midnightblue" d="M482.09,-130.84C509.15,-128.37 540.11,-125.55 568.27,-123 745.59,-106.91 790.05,-104.24 967.27,-87 999.6,-83.85 1036.14,-80.03 1063.63,-77.1"/>
<polygon fill="midnightblue" stroke="midnightblue" points="1064.13,-80.57 1073.7,-76.03 1063.39,-73.61 1064.13,-80.57"/>
</g>
<!-- Node11&#45;&gt;Node8 -->
<g id="edge14" class="edge">
<title>Node11&#45;&gt;Node8</title>
<path fill="none" stroke="midnightblue" d="M482.1,-130.92C607.02,-119.48 852.5,-96.26 891.27,-87 894.26,-86.28 897.34,-85.39 900.38,-84.4"/>
<polygon fill="midnightblue" stroke="midnightblue" points="901.61,-87.68 909.85,-81.02 899.26,-81.09 901.61,-87.68"/>
</g>
<!-- Node11&#45;&gt;Node10 -->
<g id="edge15" class="edge">
<title>Node11&#45;&gt;Node10</title>
<path fill="none" stroke="midnightblue" d="M421,-128.73C435.22,-118.11 459.4,-100.05 476.51,-87.26"/>
<polygon fill="midnightblue" stroke="midnightblue" points="478.8,-89.92 484.72,-81.13 474.62,-84.31 478.8,-89.92"/>
</g>
<!-- Node11&#45;&gt;Node12 -->
<g id="edge17" class="edge">
<title>Node11&#45;&gt;Node12</title>
<path fill="none" stroke="midnightblue" d="M407.38,-128.73C405.6,-120.46 402.84,-107.66 400.41,-96.37"/>
<polygon fill="midnightblue" stroke="midnightblue" points="403.83,-95.63 398.3,-86.59 396.99,-97.1 403.83,-95.63"/>
</g>
<!-- Node12&#45;&gt;Node3 -->
<g id="edge18" class="edge">
<title>Node12&#45;&gt;Node3</title>
<path fill="none" stroke="midnightblue" d="M454.63,-57.35C457.88,-56.84 461.11,-56.39 464.27,-56 907.75,-1.92 1029.29,-84.76 1475.22,-19.78"/>
<polygon fill="midnightblue" stroke="midnightblue" points="1475.77,-23.24 1485.15,-18.32 1474.74,-16.31 1475.77,-23.24"/>
</g>
<!-- Node13 -->
<g id="node13" class="node">
<title>Node13</title>
<g id="a_node13"><a xlink:title=" ">
<polygon fill="white" stroke="#bfbfbf" points="404.77,-0.5 404.77,-19.5 469.77,-19.5 469.77,-0.5 404.77,-0.5"/>
<text text-anchor="middle" x="437.27" y="-7.5" font-family="Helvetica,sans-Serif" font-size="10.00">stdexcept</text>
</a>
</g>
</g>
<!-- Node12&#45;&gt;Node13 -->
<g id="edge19" class="edge">
<title>Node12&#45;&gt;Node13</title>
<path fill="none" stroke="midnightblue" d="M405.22,-56.4C411.26,-47.84 419.01,-36.87 425.37,-27.86"/>
<polygon fill="midnightblue" stroke="midnightblue" points="428.25,-29.85 431.16,-19.66 422.53,-25.81 428.25,-29.85"/>
</g>
<!-- Node14 -->
<g id="node14" class="node">
<title>Node14</title>
<g id="a_node14"><a xlink:title=" ">
<polygon fill="white" stroke="#bfbfbf" points="317.77,-0.5 317.77,-19.5 386.77,-19.5 386.77,-0.5 317.77,-0.5"/>
<text text-anchor="middle" x="352.27" y="-7.5" font-family="Helvetica,sans-Serif" font-size="10.00">type_traits</text>
</a>
</g>
</g>
<!-- Node12&#45;&gt;Node14 -->
<g id="edge20" class="edge">
<title>Node12&#45;&gt;Node14</title>
<path fill="none" stroke="midnightblue" d="M385.08,-56.4C378.89,-47.84 370.96,-36.87 364.45,-27.86"/>
<polygon fill="midnightblue" stroke="midnightblue" points="367.22,-25.71 358.53,-19.66 361.55,-29.81 367.22,-25.71"/>
</g>
<!-- Node15&#45;&gt;Node4 -->
<g id="edge22" class="edge">
<title>Node15&#45;&gt;Node4</title>
<path fill="none" stroke="midnightblue" d="M355.58,-190.34C341.53,-181.92 326.13,-169.77 318.27,-154 308.06,-133.52 318.84,-64 327.27,-56 365.39,-19.84 738.38,-12.65 851.14,-11.3"/>
<polygon fill="midnightblue" stroke="midnightblue" points="851.26,-14.8 861.22,-11.18 851.18,-7.8 851.26,-14.8"/>
</g>
<!-- Node15&#45;&gt;Node5 -->
<g id="edge25" class="edge">
<title>Node15&#45;&gt;Node5</title>
<path fill="none" stroke="midnightblue" d="M331.45,-191.74C298.14,-182.99 254.88,-170.07 218.27,-154 174.51,-134.8 127.35,-104.68 101.05,-86.93"/>
<polygon fill="midnightblue" stroke="midnightblue" points="102.89,-83.95 92.66,-81.21 98.95,-89.73 102.89,-83.95"/>
</g>
<!-- Node15&#45;&gt;Node9 -->
<g id="edge23" class="edge">
<title>Node15&#45;&gt;Node9</title>
<path fill="none" stroke="midnightblue" d="M438.78,-205.2C510.12,-204.3 639,-196.23 739.27,-154 749.06,-149.88 799.05,-109.98 826.74,-87.57"/>
<polygon fill="midnightblue" stroke="midnightblue" points="828.99,-90.26 834.55,-81.24 824.58,-84.82 828.99,-90.26"/>
</g>
<!-- Node15&#45;&gt;Node10 -->
<g id="edge24" class="edge">
<title>Node15&#45;&gt;Node10</title>
<path fill="none" stroke="midnightblue" d="M363.43,-190.38C340.67,-173.91 310.6,-146 328.27,-123 366.1,-73.76 404.67,-107.55 463.27,-87 464.93,-86.42 466.63,-85.79 468.33,-85.12"/>
<polygon fill="midnightblue" stroke="midnightblue" points="470.07,-88.2 477.97,-81.14 467.39,-81.73 470.07,-88.2"/>
</g>
<!-- Node15&#45;&gt;Node11 -->
<g id="edge26" class="edge">
<title>Node15&#45;&gt;Node11</title>
<path fill="none" stroke="midnightblue" d="M390.48,-190.4C394,-180.86 398.68,-168.18 402.49,-157.86"/>
<polygon fill="midnightblue" stroke="midnightblue" points="405.88,-158.79 406.06,-148.19 399.31,-156.36 405.88,-158.79"/>
</g>
<!-- Node16&#45;&gt;Node5 -->
<g id="edge29" class="edge">
<title>Node16&#45;&gt;Node5</title>
<path fill="none" stroke="midnightblue" d="M186.76,-196.12C158.24,-189.25 125.83,-176.73 104.27,-154 88.13,-136.98 82.78,-109.66 81.04,-91.41"/>
<polygon fill="midnightblue" stroke="midnightblue" points="84.53,-91.12 80.36,-81.38 77.55,-91.59 84.53,-91.12"/>
</g>
<!-- Node16&#45;&gt;Node10 -->
<g id="edge28" class="edge">
<title>Node16&#45;&gt;Node10</title>
<path fill="none" stroke="midnightblue" d="M255.68,-190.33C267.36,-171.92 290.25,-140.13 318.27,-123 374.92,-88.36 400.42,-108.43 463.27,-87 465.13,-86.36 467.04,-85.66 468.95,-84.93"/>
<polygon fill="midnightblue" stroke="midnightblue" points="470.43,-88.1 478.33,-81.04 467.75,-81.63 470.43,-88.1"/>
</g>
<!-- Node16&#45;&gt;Node11 -->
<g id="edge30" class="edge">
<title>Node16&#45;&gt;Node11</title>
<path fill="none" stroke="midnightblue" d="M282.42,-190.4C311.1,-178.89 351.2,-162.8 378.6,-151.81"/>
<polygon fill="midnightblue" stroke="midnightblue" points="380.09,-154.98 388.07,-148.01 377.48,-148.48 380.09,-154.98"/>
</g>
<!-- Node17&#45;&gt;Node4 -->
<g id="edge34" class="edge">
<title>Node17&#45;&gt;Node4</title>
<path fill="none" stroke="midnightblue" d="M675.56,-128.88C697.96,-119.8 733.11,-104.44 761.27,-87 780.09,-75.34 781.8,-68.21 800.27,-56 818.21,-44.14 839.57,-32.61 856.13,-24.19"/>
<polygon fill="midnightblue" stroke="midnightblue" points="857.89,-27.23 865.26,-19.62 854.75,-20.97 857.89,-27.23"/>
</g>
<!-- Node17&#45;&gt;Node9 -->
<g id="edge35" class="edge">
<title>Node17&#45;&gt;Node9</title>
<path fill="none" stroke="midnightblue" d="M678.76,-128.87C712.57,-117.42 772.37,-97.18 810.35,-84.32"/>
<polygon fill="midnightblue" stroke="midnightblue" points="811.62,-87.59 819.97,-81.06 809.38,-80.96 811.62,-87.59"/>
</g>
<!-- Node17&#45;&gt;Node10 -->
<g id="edge36" class="edge">
<title>Node17&#45;&gt;Node10</title>
<path fill="none" stroke="midnightblue" d="M632.42,-128.87C605.32,-117.65 557.8,-97.98 526.68,-85.09"/>
<polygon fill="midnightblue" stroke="midnightblue" points="527.78,-81.76 517.2,-81.17 525.1,-88.23 527.78,-81.76"/>
</g>
<!-- Node17&#45;&gt;Node12 -->
<g id="edge39" class="edge">
<title>Node17&#45;&gt;Node12</title>
<path fill="none" stroke="midnightblue" d="M619.27,-128.94C579.12,-118.82 511.42,-101.76 460.93,-89.04"/>
<polygon fill="midnightblue" stroke="midnightblue" points="461.62,-85.61 451.07,-86.56 459.91,-92.4 461.62,-85.61"/>
</g>
<!-- Node18 -->
<g id="node18" class="node">
<title>Node18</title>
<g id="a_node18"><a xlink:title=" ">
<polygon fill="white" stroke="#bfbfbf" points="696.27,-62 696.27,-81 752.27,-81 752.27,-62 696.27,-62"/>
<text text-anchor="middle" x="724.27" y="-69" font-family="Helvetica,sans-Serif" font-size="10.00">optional</text>
</a>
</g>
</g>
<!-- Node17&#45;&gt;Node18 -->
<g id="edge33" class="edge">
<title>Node17&#45;&gt;Node18</title>
<path fill="none" stroke="midnightblue" d="M662.84,-128.73C674.23,-118.31 693.46,-100.71 707.37,-87.97"/>
<polygon fill="midnightblue" stroke="midnightblue" points="709.83,-90.46 714.84,-81.13 705.11,-85.3 709.83,-90.46"/>
</g>
<!-- Node19 -->
<g id="node19" class="node">
<title>Node19</title>
<g id="a_node19"><a xlink:href="error__codes_8hpp.html" target="_top" xlink:title=" ">
<polygon fill="white" stroke="black" points="576.27,-56.5 576.27,-86.5 678.27,-86.5 678.27,-56.5 576.27,-56.5"/>
<text text-anchor="start" x="584.27" y="-74.5" font-family="Helvetica,sans-Serif" font-size="10.00">unilink/base/error</text>
<text text-anchor="middle" x="627.27" y="-63.5" font-family="Helvetica,sans-Serif" font-size="10.00">_codes.hpp</text>
</a>
</g>
</g>
<!-- Node17&#45;&gt;Node19 -->
<g id="edge37" class="edge">
<title>Node17&#45;&gt;Node19</title>
<path fill="none" stroke="midnightblue" d="M649.76,-128.73C646.42,-120.37 641.23,-107.4 636.68,-96.02"/>
<polygon fill="midnightblue" stroke="midnightblue" points="639.87,-94.57 632.9,-86.59 633.37,-97.17 639.87,-94.57"/>
</g>
<!-- Node19&#45;&gt;Node4 -->
<g id="edge38" class="edge">
<title>Node19&#45;&gt;Node4</title>
<path fill="none" stroke="midnightblue" d="M678.32,-58.12C681.35,-57.4 684.35,-56.69 687.27,-56 744.89,-42.42 812.16,-27.09 851.03,-18.28"/>
<polygon fill="midnightblue" stroke="midnightblue" points="852.22,-21.6 861.2,-15.98 850.68,-14.77 852.22,-21.6"/>
</g>
<!-- Node20&#45;&gt;Node2 -->
<g id="edge41" class="edge">
<title>Node20&#45;&gt;Node2</title>
<path fill="none" stroke="midnightblue" d="M976.19,-257.46C941.45,-247.84 894.89,-234.42 854.27,-221 851.87,-220.21 849.39,-219.36 846.91,-218.49"/>
<polygon fill="midnightblue" stroke="midnightblue" points="848.04,-215.17 837.44,-215.07 845.66,-221.76 848.04,-215.17"/>
</g>
<!-- Node20&#45;&gt;Node4 -->
<g id="edge45" class="edge">
<title>Node20&#45;&gt;Node4</title>
<path fill="none" stroke="midnightblue" d="M1089.64,-269.47C1125.96,-264.77 1169.56,-252.35 1194.27,-221 1221.25,-186.77 1212,-164.37 1198.27,-123 1186.56,-87.74 1179.96,-75.39 1148.27,-56 1109.68,-32.4 977.57,-18.74 915.71,-13.5"/>
<polygon fill="midnightblue" stroke="midnightblue" points="915.62,-9.98 905.36,-12.64 915.04,-16.95 915.62,-9.98"/>
</g>
<!-- Node20&#45;&gt;Node5 -->
<g id="edge47" class="edge">
<title>Node20&#45;&gt;Node5</title>
<path fill="none" stroke="midnightblue" d="M967.16,-269.8C784.72,-264.47 252.09,-246.85 178.27,-221 129.5,-203.93 107.89,-199.42 83.27,-154 72.75,-134.6 73.93,-108.61 76.46,-91.25"/>
<polygon fill="midnightblue" stroke="midnightblue" points="79.93,-91.7 78.21,-81.24 73.04,-90.49 79.93,-91.7"/>
</g>
<!-- Node20&#45;&gt;Node7 -->
<g id="edge42" class="edge">
<title>Node20&#45;&gt;Node7</title>
<path fill="none" stroke="midnightblue" d="M1089.38,-265.36C1119.06,-259.07 1152.5,-246.4 1172.27,-221 1199.07,-186.56 1198.4,-161.71 1178.27,-123 1169.58,-106.29 1152.54,-93.95 1137.21,-85.66"/>
<polygon fill="midnightblue" stroke="midnightblue" points="1138.49,-82.38 1127.99,-81.01 1135.35,-88.64 1138.49,-82.38"/>
</g>
<!-- Node20&#45;&gt;Node8 -->
<g id="edge44" class="edge">
<title>Node20&#45;&gt;Node8</title>
<path fill="none" stroke="midnightblue" d="M1046.19,-257.33C1078.77,-229.85 1141.34,-168.08 1107.27,-123 1090.58,-100.92 1015.68,-85.68 968.51,-78.08"/>
<polygon fill="midnightblue" stroke="midnightblue" points="969.04,-74.62 958.61,-76.53 967.95,-81.53 969.04,-74.62"/>
</g>
<!-- Node20&#45;&gt;Node9 -->
<g id="edge46" class="edge">
<title>Node20&#45;&gt;Node9</title>
<path fill="none" stroke="midnightblue" d="M967.07,-262.67C939.27,-255.69 908.03,-243.23 887.27,-221 853.22,-184.54 846.48,-122.55 845.34,-91.46"/>
<polygon fill="midnightblue" stroke="midnightblue" points="848.83,-91.1 845.13,-81.18 841.83,-91.25 848.83,-91.1"/>
</g>
<!-- Node21 -->
<g id="node21" class="node">
<title>Node21</title>
<g id="a_node21"><a xlink:title=" ">
<polygon fill="white" stroke="#bfbfbf" points="1052.27,-129 1052.27,-148 1098.27,-148 1098.27,-129 1052.27,-129"/>
<text text-anchor="middle" x="1075.27" y="-136" font-family="Helvetica,sans-Serif" font-size="10.00">future</text>
</a>
</g>
</g>
<!-- Node20&#45;&gt;Node21 -->
<g id="edge43" class="edge">
<title>Node20&#45;&gt;Node21</title>
<path fill="none" stroke="midnightblue" d="M1040.96,-257.08C1048.67,-247.51 1058.02,-234.29 1063.27,-221 1071.29,-200.68 1074.01,-175.59 1074.9,-158.66"/>
<polygon fill="midnightblue" stroke="midnightblue" points="1078.41,-158.52 1075.27,-148.4 1071.41,-158.27 1078.41,-158.52"/>
</g>
<!-- Node22 -->
<g id="node22" class="node">
<title>Node22</title>
<g id="a_node22"><a xlink:href="serial__config_8hpp.html" target="_top" xlink:title=" ">
<polygon fill="white" stroke="black" points="1268.27,-123.5 1268.27,-153.5 1380.27,-153.5 1380.27,-123.5 1268.27,-123.5"/>
<text text-anchor="start" x="1276.27" y="-141.5" font-family="Helvetica,sans-Serif" font-size="10.00">unilink/config/serial</text>
<text text-anchor="middle" x="1324.27" y="-130.5" font-family="Helvetica,sans-Serif" font-size="10.00">_config.hpp</text>
</a>
</g>
</g>
<!-- Node20&#45;&gt;Node22 -->
<g id="edge48" class="edge">
<title>Node20&#45;&gt;Node22</title>
<path fill="none" stroke="midnightblue" d="M1089.71,-268.27C1137.51,-263.38 1203.94,-251.2 1254.27,-221 1278.32,-206.57 1298.27,-180.96 1310.64,-162.3"/>
<polygon fill="midnightblue" stroke="midnightblue" points="1313.65,-164.08 1316.09,-153.77 1307.75,-160.31 1313.65,-164.08"/>
</g>
<!-- Node25 -->
<g id="node25" class="node">
<title>Node25</title>
<g id="a_node25"><a xlink:href="ichannel_8hpp.html" target="_top" xlink:title=" ">
<polygon fill="white" stroke="black" points="896.27,-196 896.27,-215 1054.27,-215 1054.27,-196 896.27,-196"/>
<text text-anchor="middle" x="975.27" y="-203" font-family="Helvetica,sans-Serif" font-size="10.00">unilink/wrapper/ichannel.hpp</text>
</a>
</g>
</g>
<!-- Node20&#45;&gt;Node25 -->
<g id="edge53" class="edge">
<title>Node20&#45;&gt;Node25</title>
<path fill="none" stroke="midnightblue" d="M1016.77,-257.4C1008.59,-247.36 997.56,-233.84 988.93,-223.25"/>
<polygon fill="midnightblue" stroke="midnightblue" points="991.39,-220.73 982.36,-215.19 985.96,-225.16 991.39,-220.73"/>
</g>
<!-- Node22&#45;&gt;Node4 -->
<g id="edge49" class="edge">
<title>Node22&#45;&gt;Node4</title>
<path fill="none" stroke="midnightblue" d="M1316.7,-123.45C1305.7,-104.57 1283.38,-71.56 1254.27,-56 1195.93,-24.81 995.15,-14.76 915.85,-11.96"/>
<polygon fill="midnightblue" stroke="midnightblue" points="915.61,-8.45 905.5,-11.61 915.38,-15.44 915.61,-8.45"/>
</g>
<!-- Node23 -->
<g id="node23" class="node">
<title>Node23</title>
<g id="a_node23"><a xlink:href="constants_8hpp.html" target="_top" xlink:title=" ">
<polygon fill="white" stroke="black" points="1401.77,-62 1401.77,-81 1548.77,-81 1548.77,-62 1401.77,-62"/>
<text text-anchor="middle" x="1475.27" y="-69" font-family="Helvetica,sans-Serif" font-size="10.00">unilink/base/constants.hpp</text>
</a>
</g>
</g>
<!-- Node22&#45;&gt;Node23 -->
<g id="edge50" class="edge">
<title>Node22&#45;&gt;Node23</title>
<path fill="none" stroke="midnightblue" d="M1357.03,-123.4C1383.53,-111.99 1420.49,-96.08 1446,-85.1"/>
<polygon fill="midnightblue" stroke="midnightblue" points="1447.7,-88.18 1455.51,-81.01 1444.94,-81.75 1447.7,-88.18"/>
</g>
<!-- Node23&#45;&gt;Node3 -->
<g id="edge52" class="edge">
<title>Node23&#45;&gt;Node3</title>
<path fill="none" stroke="midnightblue" d="M1480.28,-61.98C1485.43,-53.23 1493.58,-39.37 1500.09,-28.31"/>
<polygon fill="midnightblue" stroke="midnightblue" points="1503.21,-29.9 1505.26,-19.51 1497.18,-26.35 1503.21,-29.9"/>
</g>
<!-- Node24 -->
<g id="node24" class="node">
<title>Node24</title>
<g id="a_node24"><a xlink:title=" ">
<polygon fill="white" stroke="#bfbfbf" points="1413.77,-0.5 1413.77,-19.5 1466.77,-19.5 1466.77,-0.5 1413.77,-0.5"/>
<text text-anchor="middle" x="1440.27" y="-7.5" font-family="Helvetica,sans-Serif" font-size="10.00">cstddef</text>
</a>
</g>
</g>
<!-- Node23&#45;&gt;Node24 -->
<g id="edge51" class="edge">
<title>Node23&#45;&gt;Node24</title>
<path fill="none" stroke="midnightblue" d="M1470.25,-61.98C1465.11,-53.23 1456.96,-39.37 1450.45,-28.31"/>
<polygon fill="midnightblue" stroke="midnightblue" points="1453.36,-26.35 1445.27,-19.51 1447.33,-29.9 1453.36,-26.35"/>
</g>
<!-- Node25&#45;&gt;Node4 -->
<g id="edge57" class="edge">
<title>Node25&#45;&gt;Node4</title>
<path fill="none" stroke="midnightblue" d="M977.49,-195.93C983.23,-171.7 996.22,-101.53 967.27,-56 955.53,-37.54 933.51,-26.14 914.95,-19.44"/>
<polygon fill="midnightblue" stroke="midnightblue" points="915.96,-16.09 905.37,-16.27 913.76,-22.73 915.96,-16.09"/>
</g>
<!-- Node25&#45;&gt;Node5 -->
<g id="edge59" class="edge">
<title>Node25&#45;&gt;Node5</title>
<path fill="none" stroke="midnightblue" d="M906.34,-195.99C887.82,-193.86 867.8,-191.71 849.27,-190 618.14,-168.73 556.06,-198.58 328.27,-154 247.05,-138.11 155.52,-103.42 109.71,-84.84"/>
<polygon fill="midnightblue" stroke="midnightblue" points="110.97,-81.57 100.39,-81.02 108.31,-88.05 110.97,-81.57"/>
</g>
<!-- Node25&#45;&gt;Node7 -->
<g id="edge54" class="edge">
<title>Node25&#45;&gt;Node7</title>
<path fill="none" stroke="midnightblue" d="M981.51,-195.93C992.92,-180.53 1018.27,-147.51 1043.27,-123 1056.61,-109.92 1073.13,-96.78 1085.9,-87.18"/>
<polygon fill="midnightblue" stroke="midnightblue" points="1088.11,-89.9 1094.07,-81.14 1083.95,-84.27 1088.11,-89.9"/>
</g>
<!-- Node25&#45;&gt;Node8 -->
<g id="edge56" class="edge">
<title>Node25&#45;&gt;Node8</title>
<path fill="none" stroke="midnightblue" d="M972.25,-195.84C964.84,-174.58 945.63,-119.46 935.59,-90.65"/>
<polygon fill="midnightblue" stroke="midnightblue" points="938.83,-89.31 932.24,-81.02 932.22,-91.62 938.83,-89.31"/>
</g>
<!-- Node25&#45;&gt;Node9 -->
<g id="edge58" class="edge">
<title>Node25&#45;&gt;Node9</title>
<path fill="none" stroke="midnightblue" d="M966.74,-195.84C945.25,-174.02 888.63,-116.53 860.95,-88.42"/>
<polygon fill="midnightblue" stroke="midnightblue" points="863.17,-85.69 853.66,-81.02 858.18,-90.6 863.17,-85.69"/>
</g>
<!-- Node25&#45;&gt;Node11 -->
<g id="edge60" class="edge">
<title>Node25&#45;&gt;Node11</title>
<path fill="none" stroke="midnightblue" d="M901.31,-195.99C884.22,-194.02 866.11,-191.94 849.27,-190 724.78,-175.69 580.48,-159.14 492.04,-148.99"/>
<polygon fill="midnightblue" stroke="midnightblue" points="492.4,-145.51 482.06,-147.85 491.6,-152.46 492.4,-145.51"/>
</g>
<!-- Node25&#45;&gt;Node17 -->
<g id="edge61" class="edge">
<title>Node25&#45;&gt;Node17</title>
<path fill="none" stroke="midnightblue" d="M932.84,-195.94C874.36,-184.13 769.05,-162.87 705.71,-150.09"/>
<polygon fill="midnightblue" stroke="midnightblue" points="706.03,-146.58 695.53,-148.03 704.64,-153.44 706.03,-146.58"/>
</g>
<!-- Node25&#45;&gt;Node21 -->
<g id="edge55" class="edge">
<title>Node25&#45;&gt;Node21</title>
<path fill="none" stroke="midnightblue" d="M988.75,-195.73C1005.32,-184.96 1033.65,-166.55 1053.36,-153.74"/>
<polygon fill="midnightblue" stroke="midnightblue" points="1055.52,-156.51 1062,-148.13 1051.7,-150.64 1055.52,-156.51"/>
</g>
</g>
</svg>
        <g id="navigator" transform="translate(0 0)" fill="#404254">
                <rect fill="#f2f5e9" fill-opacity="0.5" stroke="#606060" stroke-width=".5" x="0" y="0" width="60" height="60"/>
                <use id="zoomplus" xlink:href="#zoomPlus" x="17" y="9" onmousedown="handleZoom(evt,'in')"/>
                <use id="zoomminus" xlink:href="#zoomMin" x="42" y="9" onmousedown="handleZoom(evt,'out')"/>
                <use id="reset" xlink:href="#resetDef" x="30" y="36" onmousedown="handleReset()"/>
                <g id="arrowUp" xlink:href="#dirArrow" transform="translate(30 24)" onmousedown="handlePan(0,-1)">
                  <use xlink:href="#rim" fill="#404040">
                        <set attributeName="fill" to="#808080" begin="arrowUp.mouseover" end="arrowUp.mouseout"/>
                  </use>
                  <path fill="none" stroke="white" stroke-width="1.5" d="M0,-3.0v7 M-2.5,-0.5L0,-3.0L2.5,-0.5"/>
                </g>
                <g id="arrowRight" xlink:href="#dirArrow" transform="rotate(90) translate(36 -43)" onmousedown="handlePan(1,0)">
                  <use xlink:href="#rim" fill="#404040">
                        <set attributeName="fill" to="#808080" begin="arrowRight.mouseover" end="arrowRight.mouseout"/>
                  </use>
                  <path fill="none" stroke="white" stroke-width="1.5" d="M0,-3.0v7 M-2.5,-0.5L0,-3.0L2.5,-0.5"/>
                </g>
                <g id="arrowDown" xlink:href="#dirArrow" transform="rotate(180) translate(-30 -48)" onmousedown="handlePan(0,1)">
                  <use xlink:href="#rim" fill="#404040">
                        <set attributeName="fill" to="#808080" begin="arrowDown.mouseover" end="arrowDown.mouseout"/>
                  </use>
                  <path fill="none" stroke="white" stroke-width="1.5" d="M0,-3.0v7 M-2.5,-0.5L0,-3.0L2.5,-0.5"/>
                </g>
                <g id="arrowLeft" xlink:href="#dirArrow" transform="rotate(270) translate(-36 17)" onmousedown="handlePan(-1,0)">
                  <use xlink:href="#rim" fill="#404040">
                        <set attributeName="fill" to="#808080" begin="arrowLeft.mouseover" end="arrowLeft.mouseout"/>
                  </use>
                  <path fill="none" stroke="white" stroke-width="1.5" d="M0,-3.0v7 M-2.5,-0.5L0,-3.0L2.5,-0.5"/>
                </g>
        </g>
        <svg viewBox="0 0 15 15" width="100%" height="30px" preserveAspectRatio="xMaxYMin meet">
         <g id="arrow_out" transform="scale(0.3 0.3)">
          <a xlink:href="serial__builder_8hpp__incl_org.svg" target="_base">
           <rect id="button" ry="5" rx="5" y="6" x="6" height="38" width="38"
                fill="#f2f5e9" fill-opacity="0.5" stroke="#606060" stroke-width="1.0"/>
           <path id="arrow"
             d="M 11.500037,31.436501 C 11.940474,20.09759 22.043105,11.32322 32.158766,21.979434 L 37.068811,17.246167 C 37.068811,17.246167 37.088388,32 37.088388,32 L 22.160133,31.978069 C 22.160133,31.978069 26.997745,27.140456 26.997745,27.140456 C 18.528582,18.264221 13.291696,25.230495 11.500037,31.436501 z"
             style="fill:#404040;"/>
          </a>
         </g>
        </svg>
</svg>
