<?xml version="1.0" encoding="UTF-8" standalone="no"?>
<!DOCTYPE svg PUBLIC "-//W3C//DTD SVG 1.1//EN"
 "http://www.w3.org/Graphics/SVG/1.1/DTD/svg11.dtd">
<!-- Generated by graphviz version 2.43.0 (0)
 -->
<!-- Title: unilink/builder/serial_builder.cc Pages: 1 -->
<svg width="1827pt" height="423pt"
 viewBox="0.00 0.00 1827.49 423.00" xmlns="http://www.w3.org/2000/svg" xmlns:xlink="http://www.w3.org/1999/xlink">
<g id="graph0" class="graph" transform="scale(1 1) rotate(0) translate(4 419)">
<title>unilink/builder/serial_builder.cc</title>
<!-- Node1 -->
<g id="Node000001" class="node">
<title>Node1</title>
<g id="a_Node000001"><a xlink:title=" ">
<polygon fill="#999999" stroke="#666666" points="1628.49,-415 1512.49,-415 1512.49,-385 1628.49,-385 1628.49,-415"/>
<text text-anchor="start" x="1520.49" y="-403" font-family="Helvetica,sans-Serif" font-size="10.00">unilink/builder/serial</text>
<text text-anchor="middle" x="1570.49" y="-392" font-family="Helvetica,sans-Serif" font-size="10.00">_builder.cc</text>
</a>
</g>
</g>
<!-- Node2 -->
<g id="Node000002" class="node">
<title>Node2</title>
<g id="a_Node000002"><a xlink:href="serial__builder_8hpp.html" target="_top" xlink:title=" ">
<polygon fill="white" stroke="#666666" points="1429.49,-349 1313.49,-349 1313.49,-319 1429.49,-319 1429.49,-349"/>
<text text-anchor="start" x="1321.49" y="-337" font-family="Helvetica,sans-Serif" font-size="10.00">unilink/builder/serial</text>
<text text-anchor="middle" x="1371.49" y="-326" font-family="Helvetica,sans-Serif" font-size="10.00">_builder.hpp</text>
</a>
</g>
</g>
<!-- Node1&#45;&gt;Node2 -->
<g id="edge1_Node000001_Node000002" class="edge">
<title>Node1&#45;&gt;Node2</title>
<g id="a_edge1_Node000001_Node000002"><a xlink:title=" ">
<path fill="none" stroke="#63b8ff" d="M1526.82,-384.95C1496.75,-375.28 1456.63,-362.38 1424.69,-352.11"/>
<polygon fill="#63b8ff" stroke="#63b8ff" points="1425.66,-348.74 1415.06,-349.01 1423.51,-355.41 1425.66,-348.74"/>
</a>
</g>
</g>
<!-- Node27 -->
<g id="Node000027" class="node">
<title>Node27</title>
<g id="a_Node000027"><a xlink:title=" ">
<polygon fill="#e0e0e0" stroke="#999999" points="1819.49,-79.5 1677.49,-79.5 1677.49,-60.5 1819.49,-60.5 1819.49,-79.5"/>
<text text-anchor="middle" x="1748.49" y="-67.5" font-family="Helvetica,sans-Serif" font-size="10.00">boost/asio/io_context.hpp</text>
</a>
</g>
</g>
<!-- Node1&#45;&gt;Node27 -->
<g id="edge63_Node000001_Node000027" class="edge">
<title>Node1&#45;&gt;Node27</title>
<g id="a_edge63_Node000001_Node000027"><a xlink:title=" ">
<path fill="none" stroke="#63b8ff" d="M1623.42,-384.85C1675.89,-367.24 1748.49,-331.57 1748.49,-269 1748.49,-269 1748.49,-269 1748.49,-201 1748.49,-161.45 1748.49,-115.13 1748.49,-89.84"/>
<polygon fill="#63b8ff" stroke="#63b8ff" points="1752,-89.52 1748.49,-79.52 1745,-89.52 1752,-89.52"/>
</a>
</g>
</g>
<!-- Node28 -->
<g id="Node000028" class="node">
<title>Node28</title>
<g id="a_Node000028"><a xlink:href="auto__initializer_8hpp.html" target="_top" xlink:title=" ">
<polygon fill="white" stroke="#666666" points="1625.99,-217 1514.99,-217 1514.99,-187 1625.99,-187 1625.99,-217"/>
<text text-anchor="start" x="1522.99" y="-205" font-family="Helvetica,sans-Serif" font-size="10.00">unilink/builder/auto</text>
<text text-anchor="middle" x="1570.49" y="-194" font-family="Helvetica,sans-Serif" font-size="10.00">_initializer.hpp</text>
</a>
</g>
</g>
<!-- Node1&#45;&gt;Node28 -->
<g id="edge64_Node000001_Node000028" class="edge">
<title>Node1&#45;&gt;Node28</title>
<g id="a_edge64_Node000001_Node000028"><a xlink:title=" ">
<path fill="none" stroke="#63b8ff" d="M1570.49,-384.9C1570.49,-351.79 1570.49,-268.7 1570.49,-227.27"/>
<polygon fill="#63b8ff" stroke="#63b8ff" points="1574,-227.23 1570.49,-217.23 1567,-227.23 1574,-227.23"/>
</a>
</g>
</g>
<!-- Node3 -->
<g id="Node000003" class="node">
<title>Node3</title>
<g id="a_Node000003"><a xlink:title=" ">
<polygon fill="#e0e0e0" stroke="#999999" points="1396.49,-211.5 1346.49,-211.5 1346.49,-192.5 1396.49,-192.5 1396.49,-211.5"/>
<text text-anchor="middle" x="1371.49" y="-199.5" font-family="Helvetica,sans-Serif" font-size="10.00">chrono</text>
</a>
</g>
</g>
<!-- Node2&#45;&gt;Node3 -->
<g id="edge2_Node000002_Node000003" class="edge">
<title>Node2&#45;&gt;Node3</title>
<g id="a_edge2_Node000002_Node000003"><a xlink:title=" ">
<path fill="none" stroke="#63b8ff" d="M1371.49,-318.84C1371.49,-295.34 1371.49,-248.26 1371.49,-221.93"/>
<polygon fill="#63b8ff" stroke="#63b8ff" points="1375,-221.75 1371.49,-211.75 1368,-221.75 1375,-221.75"/>
</a>
</g>
</g>
<!-- Node4 -->
<g id="Node000004" class="node">
<title>Node4</title>
<g id="a_Node000004"><a xlink:title=" ">
<polygon fill="#e0e0e0" stroke="#999999" points="1460.49,-19 1410.49,-19 1410.49,0 1460.49,0 1460.49,-19"/>
<text text-anchor="middle" x="1435.49" y="-7" font-family="Helvetica,sans-Serif" font-size="10.00">cstdint</text>
</a>
</g>
</g>
<!-- Node2&#45;&gt;Node4 -->
<g id="edge3_Node000002_Node000004" class="edge">
<title>Node2&#45;&gt;Node4</title>
<g id="a_edge3_Node000002_Node000004"><a xlink:title=" ">
<path fill="none" stroke="#63b8ff" d="M1415.81,-318.87C1433.17,-311.06 1451.51,-299.51 1462.49,-283 1490.68,-240.64 1503.85,-101.63 1483.49,-55 1478.22,-42.92 1467.87,-32.65 1458.12,-25.03"/>
<polygon fill="#63b8ff" stroke="#63b8ff" points="1460.01,-22.07 1449.86,-19.04 1455.9,-27.74 1460.01,-22.07"/>
</a>
</g>
</g>
<!-- Node5 -->
<g id="Node000005" class="node">
<title>Node5</title>
<g id="a_Node000005"><a xlink:title=" ">
<polygon fill="#e0e0e0" stroke="#999999" points="744.49,-19 700.49,-19 700.49,0 744.49,0 744.49,-19"/>
<text text-anchor="middle" x="722.49" y="-7" font-family="Helvetica,sans-Serif" font-size="10.00">string</text>
</a>
</g>
</g>
<!-- Node2&#45;&gt;Node5 -->
<g id="edge4_Node000002_Node000005" class="edge">
<title>Node2&#45;&gt;Node5</title>
<g id="a_edge4_Node000002_Node000005"><a xlink:title=" ">
<path fill="none" stroke="#63b8ff" d="M1382.76,-318.91C1410.31,-282.63 1475.6,-184.43 1429.49,-121 1399,-79.05 1365.29,-107.36 1318.49,-85 1296.47,-74.48 1295.59,-62.89 1272.49,-55 1175.64,-21.9 857.26,-13.05 754.67,-11.03"/>
<polygon fill="#63b8ff" stroke="#63b8ff" points="754.67,-7.53 744.6,-10.84 754.54,-14.53 754.67,-7.53"/>
</a>
</g>
</g>
<!-- Node6 -->
<g id="Node000006" class="node">
<title>Node6</title>
<g id="a_Node000006"><a xlink:href="visibility_8hpp.html" target="_top" xlink:title=" ">
<polygon fill="white" stroke="#666666" points="830.49,-79.5 690.49,-79.5 690.49,-60.5 830.49,-60.5 830.49,-79.5"/>
<text text-anchor="middle" x="760.49" y="-67.5" font-family="Helvetica,sans-Serif" font-size="10.00">unilink/base/visibility.hpp</text>
</a>
</g>
</g>
<!-- Node2&#45;&gt;Node6 -->
<g id="edge5_Node000002_Node000006" class="edge">
<title>Node2&#45;&gt;Node6</title>
<g id="a_edge5_Node000002_Node000006"><a xlink:title=" ">
<path fill="none" stroke="#63b8ff" d="M1313.09,-328.15C1183.67,-316.33 878.09,-282.09 800.49,-217 762.66,-185.26 758.82,-121.45 759.45,-89.75"/>
<polygon fill="#63b8ff" stroke="#63b8ff" points="762.95,-89.77 759.83,-79.64 755.96,-89.51 762.95,-89.77"/>
</a>
</g>
</g>
<!-- Node7 -->
<g id="Node000007" class="node">
<title>Node7</title>
<g id="a_Node000007"><a xlink:href="ibuilder_8hpp.html" target="_top" xlink:title=" ">
<polygon fill="white" stroke="#666666" points="562.49,-277.5 416.49,-277.5 416.49,-258.5 562.49,-258.5 562.49,-277.5"/>
<text text-anchor="middle" x="489.49" y="-265.5" font-family="Helvetica,sans-Serif" font-size="10.00">unilink/builder/ibuilder.hpp</text>
</a>
</g>
</g>
<!-- Node2&#45;&gt;Node7 -->
<g id="edge6_Node000002_Node000007" class="edge">
<title>Node2&#45;&gt;Node7</title>
<g id="a_edge6_Node000002_Node000007"><a xlink:title=" ">
<path fill="none" stroke="#63b8ff" d="M1313.28,-328.78C1160.91,-317.72 749.93,-287.9 572.7,-275.04"/>
<polygon fill="#63b8ff" stroke="#63b8ff" points="572.88,-271.54 562.65,-274.31 572.37,-278.52 572.88,-271.54"/>
</a>
</g>
</g>
<!-- Node21 -->
<g id="Node000021" class="node">
<title>Node21</title>
<g id="a_Node000021"><a xlink:href="wrapper_2serial_2serial_8hpp.html" target="_top" xlink:title=" ">
<polygon fill="white" stroke="#666666" points="1284.49,-283 1162.49,-283 1162.49,-253 1284.49,-253 1284.49,-283"/>
<text text-anchor="start" x="1170.49" y="-271" font-family="Helvetica,sans-Serif" font-size="10.00">unilink/wrapper/serial</text>
<text text-anchor="middle" x="1223.49" y="-260" font-family="Helvetica,sans-Serif" font-size="10.00">/serial.hpp</text>
</a>
</g>
</g>
<!-- Node2&#45;&gt;Node21 -->
<g id="edge41_Node000002_Node000021" class="edge">
<title>Node2&#45;&gt;Node21</title>
<g id="a_edge41_Node000002_Node000021"><a xlink:title=" ">
<path fill="none" stroke="#63b8ff" d="M1339.02,-318.95C1317.33,-309.58 1288.6,-297.16 1265.23,-287.05"/>
<polygon fill="#63b8ff" stroke="#63b8ff" points="1266.47,-283.77 1255.9,-283.01 1263.69,-290.19 1266.47,-283.77"/>
</a>
</g>
</g>
<!-- Node7&#45;&gt;Node5 -->
<g id="edge9_Node000007_Node000005" class="edge">
<title>Node7&#45;&gt;Node5</title>
<g id="a_edge9_Node000007_Node000005"><a xlink:title=" ">
<path fill="none" stroke="#63b8ff" d="M483.31,-258.31C476.9,-248.72 467.31,-232.59 463.49,-217 452.94,-173.83 460.78,-153.13 491.49,-121 520.77,-90.38 634.45,-44.12 690.67,-22.47"/>
<polygon fill="#63b8ff" stroke="#63b8ff" points="692.05,-25.69 700.14,-18.84 689.55,-19.15 692.05,-25.69"/>
</a>
</g>
</g>
<!-- Node7&#45;&gt;Node6 -->
<g id="edge12_Node000007_Node000006" class="edge">
<title>Node7&#45;&gt;Node6</title>
<g id="a_edge12_Node000007_Node000006"><a xlink:title=" ">
<path fill="none" stroke="#63b8ff" d="M523.18,-258.44C550.61,-250.48 589.56,-236.83 619.49,-217 675.14,-180.14 725.63,-117.9 748.13,-88.02"/>
<polygon fill="#63b8ff" stroke="#63b8ff" points="751.05,-89.96 754.19,-79.84 745.42,-85.79 751.05,-89.96"/>
</a>
</g>
</g>
<!-- Node8 -->
<g id="Node000008" class="node">
<title>Node8</title>
<g id="a_Node000008"><a xlink:title=" ">
<polygon fill="#e0e0e0" stroke="#999999" points="1042.99,-79.5 977.99,-79.5 977.99,-60.5 1042.99,-60.5 1042.99,-79.5"/>
<text text-anchor="middle" x="1010.49" y="-67.5" font-family="Helvetica,sans-Serif" font-size="10.00">functional</text>
</a>
</g>
</g>
<!-- Node7&#45;&gt;Node8 -->
<g id="edge7_Node000007_Node000008" class="edge">
<title>Node7&#45;&gt;Node8</title>
<g id="a_edge7_Node000007_Node000008"><a xlink:title=" ">
<path fill="none" stroke="#63b8ff" d="M562.82,-265.56C684.96,-262.22 924.2,-251.37 1000.49,-217 1039.78,-199.31 1054.28,-190.5 1071.49,-151 1076.82,-138.78 1077.2,-133.05 1071.49,-121 1064.21,-105.61 1049.62,-93.38 1036.53,-84.87"/>
<polygon fill="#63b8ff" stroke="#63b8ff" points="1038.18,-81.77 1027.82,-79.57 1034.55,-87.76 1038.18,-81.77"/>
</a>
</g>
</g>
<!-- Node9 -->
<g id="Node000009" class="node">
<title>Node9</title>
<g id="a_Node000009"><a xlink:title=" ">
<polygon fill="#e0e0e0" stroke="#999999" points="1157.49,-79.5 1099.49,-79.5 1099.49,-60.5 1157.49,-60.5 1157.49,-79.5"/>
<text text-anchor="middle" x="1128.49" y="-67.5" font-family="Helvetica,sans-Serif" font-size="10.00">memory</text>
</a>
</g>
</g>
<!-- Node7&#45;&gt;Node9 -->
<g id="edge8_Node000007_Node000009" class="edge">
<title>Node7&#45;&gt;Node9</title>
<g id="a_edge8_Node000007_Node000009"><a xlink:title=" ">
<path fill="none" stroke="#63b8ff" d="M562.54,-267.62C692.77,-267.54 958.84,-261.71 1038.49,-217 1087.95,-189.24 1113.64,-121.97 1123.54,-89.35"/>
<polygon fill="#63b8ff" stroke="#63b8ff" points="1126.91,-90.3 1126.31,-79.72 1120.18,-88.36 1126.91,-90.3"/>
</a>
</g>
</g>
<!-- Node10 -->
<g id="Node000010" class="node">
<title>Node10</title>
<g id="a_Node000010"><a xlink:title=" ">
<polygon fill="#e0e0e0" stroke="#999999" points="534.99,-79.5 461.99,-79.5 461.99,-60.5 534.99,-60.5 534.99,-79.5"/>
<text text-anchor="middle" x="498.49" y="-67.5" font-family="Helvetica,sans-Serif" font-size="10.00">string_view</text>
</a>
</g>
</g>
<!-- Node7&#45;&gt;Node10 -->
<g id="edge10_Node000007_Node000010" class="edge">
<title>Node7&#45;&gt;Node10</title>
<g id="a_edge10_Node000007_Node000010"><a xlink:title=" ">
<path fill="none" stroke="#63b8ff" d="M424.81,-258.49C376,-250.58 314.91,-236.99 299.49,-217 261.03,-167.11 352.1,-133.12 371.49,-121 398.55,-104.09 432.27,-91.14 458.17,-82.66"/>
<polygon fill="#63b8ff" stroke="#63b8ff" points="459.56,-85.89 468.03,-79.52 457.44,-79.22 459.56,-85.89"/>
</a>
</g>
</g>
<!-- Node11 -->
<g id="Node000011" class="node">
<title>Node11</title>
<g id="a_Node000011"><a xlink:title=" ">
<polygon fill="#e0e0e0" stroke="#999999" points="74.99,-79.5 27.99,-79.5 27.99,-60.5 74.99,-60.5 74.99,-79.5"/>
<text text-anchor="middle" x="51.49" y="-67.5" font-family="Helvetica,sans-Serif" font-size="10.00">vector</text>
</a>
</g>
</g>
<!-- Node7&#45;&gt;Node11 -->
<g id="edge11_Node000007_Node000011" class="edge">
<title>Node7&#45;&gt;Node11</title>
<g id="a_edge11_Node000007_Node000011"><a xlink:title=" ">
<path fill="none" stroke="#63b8ff" d="M416.31,-261.97C334.14,-255.25 206.86,-241.26 165.49,-217 112.91,-186.16 75.69,-120.93 59.92,-89.16"/>
<polygon fill="#63b8ff" stroke="#63b8ff" points="62.89,-87.26 55.4,-79.77 56.58,-90.29 62.89,-87.26"/>
</a>
</g>
</g>
<!-- Node12 -->
<g id="Node000012" class="node">
<title>Node12</title>
<g id="a_Node000012"><a xlink:href="iframer_8hpp.html" target="_top" xlink:title=" ">
<polygon fill="white" stroke="#666666" points="655.99,-145.5 510.99,-145.5 510.99,-126.5 655.99,-126.5 655.99,-145.5"/>
<text text-anchor="middle" x="583.49" y="-133.5" font-family="Helvetica,sans-Serif" font-size="10.00">unilink/framer/iframer.hpp</text>
</a>
</g>
</g>
<!-- Node7&#45;&gt;Node12 -->
<g id="edge13_Node000007_Node000012" class="edge">
<title>Node7&#45;&gt;Node12</title>
<g id="a_edge13_Node000007_Node000012"><a xlink:title=" ">
<path fill="none" stroke="#63b8ff" d="M537.65,-258.44C561.45,-251.52 588.1,-239.11 602.49,-217 614.87,-198 604.57,-171.78 594.98,-154.62"/>
<polygon fill="#63b8ff" stroke="#63b8ff" points="597.75,-152.43 589.58,-145.68 591.75,-156.05 597.75,-152.43"/>
</a>
</g>
</g>
<!-- Node13 -->
<g id="Node000013" class="node">
<title>Node13</title>
<g id="a_Node000013"><a xlink:href="safe__span_8hpp.html" target="_top" xlink:title=" ">
<polygon fill="white" stroke="#666666" points="211.49,-85 93.49,-85 93.49,-55 211.49,-55 211.49,-85"/>
<text text-anchor="start" x="101.49" y="-73" font-family="Helvetica,sans-Serif" font-size="10.00">unilink/memory/safe</text>
<text text-anchor="middle" x="152.49" y="-62" font-family="Helvetica,sans-Serif" font-size="10.00">_span.hpp</text>
</a>
</g>
</g>
<!-- Node7&#45;&gt;Node13 -->
<g id="edge32_Node000007_Node000013" class="edge">
<title>Node7&#45;&gt;Node13</title>
<g id="a_edge32_Node000007_Node000013"><a xlink:title=" ">
<path fill="none" stroke="#63b8ff" d="M416.27,-259.73C365.5,-252.92 297.11,-240.17 240.49,-217 190.87,-196.69 165.01,-198.16 139.49,-151 130.12,-133.68 134.88,-111.39 141.13,-94.74"/>
<polygon fill="#63b8ff" stroke="#63b8ff" points="144.49,-95.77 145.09,-85.19 138.02,-93.08 144.49,-95.77"/>
</a>
</g>
</g>
<!-- Node16 -->
<g id="Node000016" class="node">
<title>Node16</title>
<g id="a_Node000016"><a xlink:href="line__framer_8hpp.html" target="_top" xlink:title=" ">
<polygon fill="white" stroke="#666666" points="415.99,-217 308.99,-217 308.99,-187 415.99,-187 415.99,-217"/>
<text text-anchor="start" x="316.99" y="-205" font-family="Helvetica,sans-Serif" font-size="10.00">unilink/framer/line</text>
<text text-anchor="middle" x="362.49" y="-194" font-family="Helvetica,sans-Serif" font-size="10.00">_framer.hpp</text>
</a>
</g>
</g>
<!-- Node7&#45;&gt;Node16 -->
<g id="edge22_Node000007_Node000016" class="edge">
<title>Node7&#45;&gt;Node16</title>
<g id="a_edge22_Node000007_Node000016"><a xlink:title=" ">
<path fill="none" stroke="#63b8ff" d="M472.37,-258.37C453.84,-249.03 423.73,-233.86 399.71,-221.75"/>
<polygon fill="#63b8ff" stroke="#63b8ff" points="401.01,-218.49 390.51,-217.12 397.86,-224.74 401.01,-218.49"/>
</a>
</g>
</g>
<!-- Node17 -->
<g id="Node000017" class="node">
<title>Node17</title>
<g id="a_Node000017"><a xlink:href="packet__framer_8hpp.html" target="_top" xlink:title=" ">
<polygon fill="white" stroke="#666666" points="593.99,-217 472.99,-217 472.99,-187 593.99,-187 593.99,-217"/>
<text text-anchor="start" x="480.99" y="-205" font-family="Helvetica,sans-Serif" font-size="10.00">unilink/framer/packet</text>
<text text-anchor="middle" x="533.49" y="-194" font-family="Helvetica,sans-Serif" font-size="10.00">_framer.hpp</text>
</a>
</g>
</g>
<!-- Node7&#45;&gt;Node17 -->
<g id="edge28_Node000007_Node000017" class="edge">
<title>Node7&#45;&gt;Node17</title>
<g id="a_edge28_Node000007_Node000017"><a xlink:title=" ">
<path fill="none" stroke="#63b8ff" d="M495.43,-258.37C501.13,-250.08 510,-237.18 517.74,-225.92"/>
<polygon fill="#63b8ff" stroke="#63b8ff" points="520.84,-227.58 523.62,-217.36 515.07,-223.62 520.84,-227.58"/>
</a>
</g>
</g>
<!-- Node18 -->
<g id="Node000018" class="node">
<title>Node18</title>
<g id="a_Node000018"><a xlink:href="context_8hpp.html" target="_top" xlink:title=" ">
<polygon fill="white" stroke="#666666" points="301.99,-145.5 148.99,-145.5 148.99,-126.5 301.99,-126.5 301.99,-145.5"/>
<text text-anchor="middle" x="225.49" y="-133.5" font-family="Helvetica,sans-Serif" font-size="10.00">unilink/wrapper/context.hpp</text>
</a>
</g>
</g>
<!-- Node7&#45;&gt;Node18 -->
<g id="edge33_Node000007_Node000018" class="edge">
<title>Node7&#45;&gt;Node18</title>
<g id="a_edge33_Node000007_Node000018"><a xlink:title=" ">
<path fill="none" stroke="#63b8ff" d="M416.3,-266.1C369.21,-262.04 309.08,-249.98 266.49,-217 246.58,-201.58 235.48,-173.8 229.99,-155.38"/>
<polygon fill="#63b8ff" stroke="#63b8ff" points="233.32,-154.28 227.33,-145.54 226.57,-156.11 233.32,-154.28"/>
</a>
</g>
</g>
<!-- Node12&#45;&gt;Node6 -->
<g id="edge17_Node000012_Node000006" class="edge">
<title>Node12&#45;&gt;Node6</title>
<g id="a_edge17_Node000012_Node000006"><a xlink:title=" ">
<path fill="none" stroke="#63b8ff" d="M607.37,-126.37C638.2,-115.22 692.04,-95.75 726.97,-83.12"/>
<polygon fill="#63b8ff" stroke="#63b8ff" points="728.51,-86.29 736.72,-79.6 726.13,-79.71 728.51,-86.29"/>
</a>
</g>
</g>
<!-- Node12&#45;&gt;Node8 -->
<g id="edge14_Node000012_Node000008" class="edge">
<title>Node12&#45;&gt;Node8</title>
<g id="a_edge14_Node000012_Node000008"><a xlink:title=" ">
<path fill="none" stroke="#63b8ff" d="M640.64,-126.44C727.35,-113.44 890.22,-89.03 967.59,-77.43"/>
<polygon fill="#63b8ff" stroke="#63b8ff" points="968.55,-80.83 977.92,-75.88 967.51,-73.9 968.55,-80.83"/>
</a>
</g>
</g>
<!-- Node12&#45;&gt;Node9 -->
<g id="edge15_Node000012_Node000009" class="edge">
<title>Node12&#45;&gt;Node9</title>
<g id="a_edge15_Node000012_Node000009"><a xlink:title=" ">
<path fill="none" stroke="#63b8ff" d="M656.02,-128.99C748.36,-120.94 912.71,-105.3 1052.49,-85 1064.51,-83.26 1077.53,-80.99 1089.34,-78.8"/>
<polygon fill="#63b8ff" stroke="#63b8ff" points="1090.17,-82.2 1099.35,-76.91 1088.87,-75.33 1090.17,-82.2"/>
</a>
</g>
</g>
<!-- Node12&#45;&gt;Node11 -->
<g id="edge16_Node000012_Node000011" class="edge">
<title>Node12&#45;&gt;Node11</title>
<g id="a_edge16_Node000012_Node000011"><a xlink:title=" ">
<path fill="none" stroke="#63b8ff" d="M510.52,-130.4C392.04,-122.47 163.15,-105.13 84.49,-85 82.55,-84.5 80.57,-83.91 78.6,-83.25"/>
<polygon fill="#63b8ff" stroke="#63b8ff" points="79.56,-79.87 68.97,-79.57 77.06,-86.41 79.56,-79.87"/>
</a>
</g>
</g>
<!-- Node12&#45;&gt;Node13 -->
<g id="edge18_Node000012_Node000013" class="edge">
<title>Node12&#45;&gt;Node13</title>
<g id="a_edge18_Node000012_Node000013"><a xlink:title=" ">
<path fill="none" stroke="#63b8ff" d="M511.31,-126.49C440.12,-117.76 328.01,-103.16 221.73,-85.15"/>
<polygon fill="#63b8ff" stroke="#63b8ff" points="222.24,-81.68 211.79,-83.45 221.06,-88.58 222.24,-81.68"/>
</a>
</g>
</g>
<!-- Node13&#45;&gt;Node4 -->
<g id="edge19_Node000013_Node000004" class="edge">
<title>Node13&#45;&gt;Node4</title>
<g id="a_edge19_Node000013_Node000004"><a xlink:title=" ">
<path fill="none" stroke="#63b8ff" d="M211.74,-56.18C214.69,-55.73 217.62,-55.34 220.49,-55 738.74,5.79 879.55,-89.87 1400.33,-18.8"/>
<polygon fill="#63b8ff" stroke="#63b8ff" points="1400.93,-22.25 1410.36,-17.42 1399.98,-15.32 1400.93,-22.25"/>
</a>
</g>
</g>
<!-- Node14 -->
<g id="Node000014" class="node">
<title>Node14</title>
<g id="a_Node000014"><a xlink:title=" ">
<polygon fill="#e0e0e0" stroke="#999999" points="142.99,-19 77.99,-19 77.99,0 142.99,0 142.99,-19"/>
<text text-anchor="middle" x="110.49" y="-7" font-family="Helvetica,sans-Serif" font-size="10.00">stdexcept</text>
</a>
</g>
</g>
<!-- Node13&#45;&gt;Node14 -->
<g id="edge20_Node000013_Node000014" class="edge">
<title>Node13&#45;&gt;Node14</title>
<g id="a_edge20_Node000013_Node000014"><a xlink:title=" ">
<path fill="none" stroke="#63b8ff" d="M142.33,-54.84C136.42,-46.61 128.93,-36.18 122.7,-27.51"/>
<polygon fill="#63b8ff" stroke="#63b8ff" points="125.46,-25.35 116.79,-19.27 119.78,-29.43 125.46,-25.35"/>
</a>
</g>
</g>
<!-- Node15 -->
<g id="Node000015" class="node">
<title>Node15</title>
<g id="a_Node000015"><a xlink:title=" ">
<polygon fill="#e0e0e0" stroke="#999999" points="229.99,-19 160.99,-19 160.99,0 229.99,0 229.99,-19"/>
<text text-anchor="middle" x="195.49" y="-7" font-family="Helvetica,sans-Serif" font-size="10.00">type_traits</text>
</a>
</g>
</g>
<!-- Node13&#45;&gt;Node15 -->
<g id="edge21_Node000013_Node000015" class="edge">
<title>Node13&#45;&gt;Node15</title>
<g id="a_edge21_Node000013_Node000015"><a xlink:title=" ">
<path fill="none" stroke="#63b8ff" d="M162.9,-54.84C168.95,-46.61 176.62,-36.18 183,-27.51"/>
<polygon fill="#63b8ff" stroke="#63b8ff" points="185.95,-29.4 189.05,-19.27 180.31,-25.25 185.95,-29.4"/>
</a>
</g>
</g>
<!-- Node16&#45;&gt;Node5 -->
<g id="edge23_Node000016_Node000005" class="edge">
<title>Node16&#45;&gt;Node5</title>
<g id="a_edge23_Node000016_Node000005"><a xlink:title=" ">
<path fill="none" stroke="#63b8ff" d="M308.89,-196.8C191.56,-185.77 -70.65,-149.96 18.49,-55 41.78,-30.2 555.16,-14.92 690.19,-11.32"/>
<polygon fill="#63b8ff" stroke="#63b8ff" points="690.41,-14.82 700.31,-11.06 690.23,-7.82 690.41,-14.82"/>
</a>
</g>
</g>
<!-- Node16&#45;&gt;Node6 -->
<g id="edge26_Node000016_Node000006" class="edge">
<title>Node16&#45;&gt;Node6</title>
<g id="a_edge26_Node000016_Node000006"><a xlink:title=" ">
<path fill="none" stroke="#63b8ff" d="M380.56,-186.73C404.51,-168.57 448.73,-137.56 491.49,-121 552.48,-97.38 625.68,-84.71 680.31,-78.04"/>
<polygon fill="#63b8ff" stroke="#63b8ff" points="680.76,-81.51 690.29,-76.86 679.94,-74.55 680.76,-81.51"/>
</a>
</g>
</g>
<!-- Node16&#45;&gt;Node10 -->
<g id="edge24_Node000016_Node000010" class="edge">
<title>Node16&#45;&gt;Node10</title>
<g id="a_edge24_Node000016_Node000010"><a xlink:title=" ">
<path fill="none" stroke="#63b8ff" d="M364.48,-186.87C367.61,-169.43 375.21,-139.76 392.49,-121 409.23,-102.83 433.93,-90.65 455.28,-82.86"/>
<polygon fill="#63b8ff" stroke="#63b8ff" points="456.49,-86.15 464.81,-79.59 454.22,-79.53 456.49,-86.15"/>
</a>
</g>
</g>
<!-- Node16&#45;&gt;Node11 -->
<g id="edge25_Node000016_Node000011" class="edge">
<title>Node16&#45;&gt;Node11</title>
<g id="a_edge25_Node000016_Node000011"><a xlink:title=" ">
<path fill="none" stroke="#63b8ff" d="M308.98,-195.35C244.03,-187.68 139.15,-172.43 106.49,-151 83.54,-135.93 67.52,-107.64 58.91,-89.06"/>
<polygon fill="#63b8ff" stroke="#63b8ff" points="62.01,-87.41 54.8,-79.65 55.6,-90.21 62.01,-87.41"/>
</a>
</g>
</g>
<!-- Node16&#45;&gt;Node12 -->
<g id="edge27_Node000016_Node000012" class="edge">
<title>Node16&#45;&gt;Node12</title>
<g id="a_edge27_Node000016_Node000012"><a xlink:title=" ">
<path fill="none" stroke="#63b8ff" d="M410.99,-186.95C450.95,-175.38 506.89,-159.18 544.11,-148.41"/>
<polygon fill="#63b8ff" stroke="#63b8ff" points="545.45,-151.66 554.08,-145.52 543.5,-144.94 545.45,-151.66"/>
</a>
</g>
</g>
<!-- Node17&#45;&gt;Node6 -->
<g id="edge30_Node000017_Node000006" class="edge">
<title>Node17&#45;&gt;Node6</title>
<g id="a_edge30_Node000017_Node000006"><a xlink:title=" ">
<path fill="none" stroke="#63b8ff" d="M519.87,-186.92C504.96,-169.79 485.21,-140.73 501.49,-121 523.89,-93.87 612.66,-81.3 680.09,-75.58"/>
<polygon fill="#63b8ff" stroke="#63b8ff" points="680.61,-79.05 690.3,-74.75 680.05,-72.07 680.61,-79.05"/>
</a>
</g>
</g>
<!-- Node17&#45;&gt;Node11 -->
<g id="edge29_Node000017_Node000011" class="edge">
<title>Node17&#45;&gt;Node11</title>
<g id="a_edge29_Node000017_Node000011"><a xlink:title=" ">
<path fill="none" stroke="#63b8ff" d="M472.96,-193.2C457.18,-191.18 440.2,-189 424.49,-187 297.85,-170.87 255.45,-204.42 139.49,-151 139.43,-150.97 93.96,-109.62 68.41,-86.39"/>
<polygon fill="#63b8ff" stroke="#63b8ff" points="70.66,-83.7 60.9,-79.56 65.95,-88.87 70.66,-83.7"/>
</a>
</g>
</g>
<!-- Node17&#45;&gt;Node12 -->
<g id="edge31_Node000017_Node000012" class="edge">
<title>Node17&#45;&gt;Node12</title>
<g id="a_edge31_Node000017_Node000012"><a xlink:title=" ">
<path fill="none" stroke="#63b8ff" d="M544.59,-186.8C552.16,-177.11 562.21,-164.24 570.21,-154.01"/>
<polygon fill="#63b8ff" stroke="#63b8ff" points="573.19,-155.88 576.59,-145.84 567.67,-151.57 573.19,-155.88"/>
</a>
</g>
</g>
<!-- Node18&#45;&gt;Node5 -->
<g id="edge35_Node000018_Node000005" class="edge">
<title>Node18&#45;&gt;Node5</title>
<g id="a_edge35_Node000018_Node000005"><a xlink:title=" ">
<path fill="none" stroke="#63b8ff" d="M281.4,-126.43C320.2,-119.02 372.29,-106.09 414.49,-85 433.74,-75.38 432.81,-63.69 452.49,-55 532.83,-19.53 637.93,-12.08 690.14,-10.68"/>
<polygon fill="#63b8ff" stroke="#63b8ff" points="690.52,-14.17 700.45,-10.47 690.38,-7.18 690.52,-14.17"/>
</a>
</g>
</g>
<!-- Node18&#45;&gt;Node10 -->
<g id="edge36_Node000018_Node000010" class="edge">
<title>Node18&#45;&gt;Node10</title>
<g id="a_edge36_Node000018_Node000010"><a xlink:title=" ">
<path fill="none" stroke="#63b8ff" d="M266.14,-126.44C310.76,-116.9 384.44,-100.75 447.49,-85 451.09,-84.1 454.82,-83.14 458.56,-82.15"/>
<polygon fill="#63b8ff" stroke="#63b8ff" points="459.6,-85.5 468.35,-79.52 457.79,-78.74 459.6,-85.5"/>
</a>
</g>
</g>
<!-- Node18&#45;&gt;Node11 -->
<g id="edge37_Node000018_Node000011" class="edge">
<title>Node18&#45;&gt;Node11</title>
<g id="a_edge37_Node000018_Node000011"><a xlink:title=" ">
<path fill="none" stroke="#63b8ff" d="M199.85,-126.43C171.46,-116.82 124.43,-100.54 84.49,-85 83.29,-84.53 82.06,-84.04 80.82,-83.55"/>
<polygon fill="#63b8ff" stroke="#63b8ff" points="81.89,-80.2 71.31,-79.64 79.22,-86.68 81.89,-80.2"/>
</a>
</g>
</g>
<!-- Node18&#45;&gt;Node13 -->
<g id="edge40_Node000018_Node000013" class="edge">
<title>Node18&#45;&gt;Node13</title>
<g id="a_edge40_Node000018_Node000013"><a xlink:title=" ">
<path fill="none" stroke="#63b8ff" d="M215.65,-126.37C205.66,-117.61 189.81,-103.71 176.49,-92.04"/>
<polygon fill="#63b8ff" stroke="#63b8ff" points="178.42,-89.08 168.6,-85.12 173.81,-94.34 178.42,-89.08"/>
</a>
</g>
</g>
<!-- Node19 -->
<g id="Node000019" class="node">
<title>Node19</title>
<g id="a_Node000019"><a xlink:title=" ">
<polygon fill="#e0e0e0" stroke="#999999" points="405.49,-79.5 349.49,-79.5 349.49,-60.5 405.49,-60.5 405.49,-79.5"/>
<text text-anchor="middle" x="377.49" y="-67.5" font-family="Helvetica,sans-Serif" font-size="10.00">optional</text>
</a>
</g>
</g>
<!-- Node18&#45;&gt;Node19 -->
<g id="edge34_Node000018_Node000019" class="edge">
<title>Node18&#45;&gt;Node19</title>
<g id="a_edge34_Node000018_Node000019"><a xlink:title=" ">
<path fill="none" stroke="#63b8ff" d="M245.99,-126.37C272.06,-115.39 317.27,-96.36 347.29,-83.72"/>
<polygon fill="#63b8ff" stroke="#63b8ff" points="348.98,-86.81 356.83,-79.7 346.26,-80.35 348.98,-86.81"/>
</a>
</g>
</g>
<!-- Node20 -->
<g id="Node000020" class="node">
<title>Node20</title>
<g id="a_Node000020"><a xlink:href="error__codes_8hpp.html" target="_top" xlink:title=" ">
<polygon fill="white" stroke="#666666" points="331.49,-85 229.49,-85 229.49,-55 331.49,-55 331.49,-85"/>
<text text-anchor="start" x="237.49" y="-73" font-family="Helvetica,sans-Serif" font-size="10.00">unilink/base/error</text>
<text text-anchor="middle" x="280.49" y="-62" font-family="Helvetica,sans-Serif" font-size="10.00">_codes.hpp</text>
</a>
</g>
</g>
<!-- Node18&#45;&gt;Node20 -->
<g id="edge38_Node000018_Node000020" class="edge">
<title>Node18&#45;&gt;Node20</title>
<g id="a_edge38_Node000018_Node000020"><a xlink:title=" ">
<path fill="none" stroke="#63b8ff" d="M232.91,-126.37C240.18,-117.91 251.56,-104.67 261.37,-93.25"/>
<polygon fill="#63b8ff" stroke="#63b8ff" points="264.29,-95.23 268.15,-85.36 258.98,-90.66 264.29,-95.23"/>
</a>
</g>
</g>
<!-- Node20&#45;&gt;Node5 -->
<g id="edge39_Node000020_Node000005" class="edge">
<title>Node20&#45;&gt;Node5</title>
<g id="a_edge39_Node000020_Node000005"><a xlink:title=" ">
<path fill="none" stroke="#63b8ff" d="M331.8,-56.63C334.74,-56.04 337.65,-55.5 340.49,-55 469.16,-32.57 624.23,-18.44 690.23,-13.02"/>
<polygon fill="#63b8ff" stroke="#63b8ff" points="690.72,-16.49 700.41,-12.19 690.16,-9.51 690.72,-16.49"/>
</a>
</g>
</g>
<!-- Node21&#45;&gt;Node3 -->
<g id="edge42_Node000021_Node000003" class="edge">
<title>Node21&#45;&gt;Node3</title>
<g id="a_edge42_Node000021_Node000003"><a xlink:title=" ">
<path fill="none" stroke="#63b8ff" d="M1255.97,-252.95C1281.82,-241.78 1317.64,-226.29 1342.52,-215.53"/>
<polygon fill="#63b8ff" stroke="#63b8ff" points="1344.01,-218.7 1351.8,-211.52 1341.23,-212.27 1344.01,-218.7"/>
</a>
</g>
</g>
<!-- Node21&#45;&gt;Node5 -->
<g id="edge46_Node000021_Node000005" class="edge">
<title>Node21&#45;&gt;Node5</title>
<g id="a_edge46_Node000021_Node000005"><a xlink:title=" ">
<path fill="none" stroke="#63b8ff" d="M1232.46,-252.76C1238,-243.08 1244.59,-229.77 1247.49,-217 1257.01,-175.17 1257.54,-158.93 1237.49,-121 1217.37,-82.91 1205.76,-72.74 1166.49,-55 1092.8,-21.7 844.04,-13.12 754.74,-11.09"/>
<polygon fill="#63b8ff" stroke="#63b8ff" points="754.74,-7.58 744.66,-10.87 754.59,-14.58 754.74,-7.58"/>
</a>
</g>
</g>
<!-- Node21&#45;&gt;Node6 -->
<g id="edge48_Node000021_Node000006" class="edge">
<title>Node21&#45;&gt;Node6</title>
<g id="a_edge48_Node000021_Node000006"><a xlink:title=" ">
<path fill="none" stroke="#63b8ff" d="M1162.38,-266.55C1064.08,-264.66 876.6,-255.89 824.49,-217 802.89,-200.87 777.1,-124.72 766.01,-89.25"/>
<polygon fill="#63b8ff" stroke="#63b8ff" points="769.34,-88.2 763.06,-79.67 762.65,-90.25 769.34,-88.2"/>
</a>
</g>
</g>
<!-- Node21&#45;&gt;Node8 -->
<g id="edge43_Node000021_Node000008" class="edge">
<title>Node21&#45;&gt;Node8</title>
<g id="a_edge43_Node000021_Node000008"><a xlink:title=" ">
<path fill="none" stroke="#63b8ff" d="M1214.84,-252.98C1197.02,-225.01 1153.76,-161.49 1104.49,-121 1085.44,-105.34 1060.7,-92.42 1041.39,-83.64"/>
<polygon fill="#63b8ff" stroke="#63b8ff" points="1042.68,-80.38 1032.12,-79.55 1039.86,-86.79 1042.68,-80.38"/>
</a>
</g>
</g>
<!-- Node21&#45;&gt;Node9 -->
<g id="edge45_Node000021_Node000009" class="edge">
<title>Node21&#45;&gt;Node9</title>
<g id="a_edge45_Node000021_Node000009"><a xlink:title=" ">
<path fill="none" stroke="#63b8ff" d="M1227.27,-252.84C1233.8,-225.18 1244.17,-162.97 1218.49,-121 1207.14,-102.43 1186.22,-90.22 1167.41,-82.51"/>
<polygon fill="#63b8ff" stroke="#63b8ff" points="1168.42,-79.15 1157.83,-78.88 1165.94,-85.69 1168.42,-79.15"/>
</a>
</g>
</g>
<!-- Node21&#45;&gt;Node10 -->
<g id="edge47_Node000021_Node000010" class="edge">
<title>Node21&#45;&gt;Node10</title>
<g id="a_edge47_Node000021_Node000010"><a xlink:title=" ">
<path fill="none" stroke="#63b8ff" d="M1162.35,-263.48C1061.53,-257.06 865.14,-241.79 800.49,-217 731.41,-190.51 731,-153.42 664.49,-121 626.12,-102.29 579.32,-88.97 545.2,-80.8"/>
<polygon fill="#63b8ff" stroke="#63b8ff" points="545.58,-77.3 535.04,-78.43 543.99,-84.11 545.58,-77.3"/>
</a>
</g>
</g>
<!-- Node22 -->
<g id="Node000022" class="node">
<title>Node22</title>
<g id="a_Node000022"><a xlink:title=" ">
<polygon fill="#e0e0e0" stroke="#999999" points="1062.49,-145.5 1016.49,-145.5 1016.49,-126.5 1062.49,-126.5 1062.49,-145.5"/>
<text text-anchor="middle" x="1039.49" y="-133.5" font-family="Helvetica,sans-Serif" font-size="10.00">future</text>
</a>
</g>
</g>
<!-- Node21&#45;&gt;Node22 -->
<g id="edge44_Node000021_Node000022" class="edge">
<title>Node21&#45;&gt;Node22</title>
<g id="a_edge44_Node000021_Node000022"><a xlink:title=" ">
<path fill="none" stroke="#63b8ff" d="M1203.45,-252.84C1168.25,-227.97 1095.67,-176.69 1060.08,-151.55"/>
<polygon fill="#63b8ff" stroke="#63b8ff" points="1062.06,-148.66 1051.88,-145.75 1058.02,-154.38 1062.06,-148.66"/>
</a>
</g>
</g>
<!-- Node23 -->
<g id="Node000023" class="node">
<title>Node23</title>
<g id="a_Node000023"><a xlink:href="serial__config_8hpp.html" target="_top" xlink:title=" ">
<polygon fill="white" stroke="#666666" points="1420.49,-151 1308.49,-151 1308.49,-121 1420.49,-121 1420.49,-151"/>
<text text-anchor="start" x="1316.49" y="-139" font-family="Helvetica,sans-Serif" font-size="10.00">unilink/config/serial</text>
<text text-anchor="middle" x="1364.49" y="-128" font-family="Helvetica,sans-Serif" font-size="10.00">_config.hpp</text>
</a>
</g>
</g>
<!-- Node21&#45;&gt;Node23 -->
<g id="edge49_Node000021_Node000023" class="edge">
<title>Node21&#45;&gt;Node23</title>
<g id="a_edge49_Node000021_Node000023"><a xlink:title=" ">
<path fill="none" stroke="#63b8ff" d="M1246.27,-252.96C1260.73,-243.58 1279.48,-230.51 1294.49,-217 1314.24,-199.23 1333.9,-176.16 1347.34,-159.36"/>
<polygon fill="#63b8ff" stroke="#63b8ff" points="1350.33,-161.23 1353.77,-151.21 1344.83,-156.9 1350.33,-161.23"/>
</a>
</g>
</g>
<!-- Node26 -->
<g id="Node000026" class="node">
<title>Node26</title>
<g id="a_Node000026"><a xlink:href="ichannel_8hpp.html" target="_top" xlink:title=" ">
<polygon fill="white" stroke="#666666" points="991.49,-211.5 833.49,-211.5 833.49,-192.5 991.49,-192.5 991.49,-211.5"/>
<text text-anchor="middle" x="912.49" y="-199.5" font-family="Helvetica,sans-Serif" font-size="10.00">unilink/wrapper/ichannel.hpp</text>
</a>
</g>
</g>
<!-- Node21&#45;&gt;Node26 -->
<g id="edge54_Node000021_Node000026" class="edge">
<title>Node21&#45;&gt;Node26</title>
<g id="a_edge54_Node000021_Node000026"><a xlink:title=" ">
<path fill="none" stroke="#63b8ff" d="M1162.42,-254.43C1104.47,-242.51 1018.35,-224.78 963.84,-213.57"/>
<polygon fill="#63b8ff" stroke="#63b8ff" points="964.55,-210.14 954.05,-211.55 963.14,-216.99 964.55,-210.14"/>
</a>
</g>
</g>
<!-- Node23&#45;&gt;Node5 -->
<g id="edge50_Node000023_Node000005" class="edge">
<title>Node23&#45;&gt;Node5</title>
<g id="a_edge50_Node000023_Node000005"><a xlink:title=" ">
<path fill="none" stroke="#63b8ff" d="M1341.93,-120.89C1305.21,-97.93 1236.59,-55.03 1236.49,-55 1146.42,-24.9 852.9,-14.13 754.78,-11.32"/>
<polygon fill="#63b8ff" stroke="#63b8ff" points="754.68,-7.82 744.59,-11.04 754.48,-14.82 754.68,-7.82"/>
</a>
</g>
</g>
<!-- Node24 -->
<g id="Node000024" class="node">
<title>Node24</title>
<g id="a_Node000024"><a xlink:href="constants_8hpp.html" target="_top" xlink:title=" ">
<polygon fill="white" stroke="#666666" points="1473.99,-79.5 1326.99,-79.5 1326.99,-60.5 1473.99,-60.5 1473.99,-79.5"/>
<text text-anchor="middle" x="1400.49" y="-67.5" font-family="Helvetica,sans-Serif" font-size="10.00">unilink/base/constants.hpp</text>
</a>
</g>
</g>
<!-- Node23&#45;&gt;Node24 -->
<g id="edge51_Node000023_Node000024" class="edge">
<title>Node23&#45;&gt;Node24</title>
<g id="a_edge51_Node000023_Node000024"><a xlink:title=" ">
<path fill="none" stroke="#63b8ff" d="M1372.48,-120.8C1377.82,-111.31 1384.88,-98.76 1390.58,-88.63"/>
<polygon fill="#63b8ff" stroke="#63b8ff" points="1393.67,-90.28 1395.52,-79.84 1387.57,-86.84 1393.67,-90.28"/>
</a>
</g>
</g>
<!-- Node24&#45;&gt;Node4 -->
<g id="edge53_Node000024_Node000004" class="edge">
<title>Node24&#45;&gt;Node4</title>
<g id="a_edge53_Node000024_Node000004"><a xlink:title=" ">
<path fill="none" stroke="#63b8ff" d="M1405.66,-60.37C1410.73,-51.9 1418.6,-38.74 1424.99,-28.07"/>
<polygon fill="#63b8ff" stroke="#63b8ff" points="1428.18,-29.55 1430.31,-19.17 1422.17,-25.95 1428.18,-29.55"/>
</a>
</g>
</g>
<!-- Node25 -->
<g id="Node000025" class="node">
<title>Node25</title>
<g id="a_Node000025"><a xlink:title=" ">
<polygon fill="#e0e0e0" stroke="#999999" points="1391.99,-19 1338.99,-19 1338.99,0 1391.99,0 1391.99,-19"/>
<text text-anchor="middle" x="1365.49" y="-7" font-family="Helvetica,sans-Serif" font-size="10.00">cstddef</text>
</a>
</g>
</g>
<!-- Node24&#45;&gt;Node25 -->
<g id="edge52_Node000024_Node000025" class="edge">
<title>Node24&#45;&gt;Node25</title>
<g id="a_edge52_Node000024_Node000025"><a xlink:title=" ">
<path fill="none" stroke="#63b8ff" d="M1395.33,-60.37C1390.26,-51.9 1382.39,-38.74 1376,-28.07"/>
<polygon fill="#63b8ff" stroke="#63b8ff" points="1378.82,-25.95 1370.68,-19.17 1372.81,-29.55 1378.82,-25.95"/>
</a>
</g>
</g>
<!-- Node26&#45;&gt;Node5 -->
<g id="edge58_Node000026_Node000005" class="edge">
<title>Node26&#45;&gt;Node5</title>
<g id="a_edge58_Node000026_Node000005"><a xlink:title=" ">
<path fill="none" stroke="#63b8ff" d="M910.66,-192.29C904.89,-167.12 884.78,-93.61 839.49,-55 815.07,-34.18 779.9,-22.58 754.5,-16.48"/>
<polygon fill="#63b8ff" stroke="#63b8ff" points="755.14,-13.03 744.62,-14.26 753.61,-19.87 755.14,-13.03"/>
</a>
</g>
</g>
<!-- Node26&#45;&gt;Node6 -->
<g id="edge60_Node000026_Node000006" class="edge">
<title>Node26&#45;&gt;Node6</title>
<g id="a_edge60_Node000026_Node000006"><a xlink:title=" ">
<path fill="none" stroke="#63b8ff" d="M907.46,-192.37C897.94,-176.63 875.96,-142.86 850.49,-121 832.48,-105.53 808.92,-92.66 790.43,-83.84"/>
<polygon fill="#63b8ff" stroke="#63b8ff" points="791.82,-80.63 781.28,-79.61 788.89,-86.99 791.82,-80.63"/>
</a>
</g>
</g>
<!-- Node26&#45;&gt;Node8 -->
<g id="edge55_Node000026_Node000008" class="edge">
<title>Node26&#45;&gt;Node8</title>
<g id="a_edge55_Node000026_Node000008"><a xlink:title=" ">
<path fill="none" stroke="#63b8ff" d="M918.93,-192.47C934.91,-171.27 976.68,-115.86 997.83,-87.8"/>
<polygon fill="#63b8ff" stroke="#63b8ff" points="1000.69,-89.82 1003.91,-79.73 995.1,-85.61 1000.69,-89.82"/>
</a>
</g>
</g>
<!-- Node26&#45;&gt;Node9 -->
<g id="edge57_Node000026_Node000009" class="edge">
<title>Node26&#45;&gt;Node9</title>
<g id="a_edge57_Node000026_Node000009"><a xlink:title=" ">
<path fill="none" stroke="#63b8ff" d="M923.63,-192.34C936.17,-182.52 957.06,-165.93 974.49,-151 989.55,-138.11 990.75,-131.61 1007.49,-121 1033.48,-104.53 1065.81,-91.5 1090.52,-82.88"/>
<polygon fill="#63b8ff" stroke="#63b8ff" points="1091.92,-86.1 1100.26,-79.56 1089.66,-79.47 1091.92,-86.1"/>
</a>
</g>
</g>
<!-- Node26&#45;&gt;Node10 -->
<g id="edge59_Node000026_Node000010" class="edge">
<title>Node26&#45;&gt;Node10</title>
<g id="a_edge59_Node000026_Node000010"><a xlink:title=" ">
<path fill="none" stroke="#63b8ff" d="M896.48,-192.26C866.11,-176.04 797.73,-141.08 736.49,-121 671.51,-99.69 593.48,-85.33 544.93,-77.66"/>
<polygon fill="#63b8ff" stroke="#63b8ff" points="545.45,-74.2 535.03,-76.12 544.37,-81.11 545.45,-74.2"/>
</a>
</g>
</g>
<!-- Node26&#45;&gt;Node12 -->
<g id="edge61_Node000026_Node000012" class="edge">
<title>Node26&#45;&gt;Node12</title>
<g id="a_edge61_Node000026_Node000012"><a xlink:title=" ">
<path fill="none" stroke="#63b8ff" d="M868.47,-192.44C808.63,-180.8 701.73,-160 637.24,-147.45"/>
<polygon fill="#63b8ff" stroke="#63b8ff" points="637.75,-143.99 627.26,-145.51 636.41,-150.86 637.75,-143.99"/>
</a>
</g>
</g>
<!-- Node26&#45;&gt;Node18 -->
<g id="edge62_Node000026_Node000018" class="edge">
<title>Node26&#45;&gt;Node18</title>
<g id="a_edge62_Node000026_Node000018"><a xlink:title=" ">
<path fill="none" stroke="#63b8ff" d="M833.35,-193.63C703.71,-181.55 447.1,-157.64 312.51,-145.11"/>
<polygon fill="#63b8ff" stroke="#63b8ff" points="312.53,-141.59 302.25,-144.15 311.88,-148.56 312.53,-141.59"/>
</a>
</g>
</g>
<!-- Node26&#45;&gt;Node22 -->
<g id="edge56_Node000026_Node000022" class="edge">
<title>Node26&#45;&gt;Node22</title>
<g id="a_edge56_Node000026_Node000022"><a xlink:title=" ">
<path fill="none" stroke="#63b8ff" d="M929.62,-192.37C951.12,-181.54 988.19,-162.85 1013.27,-150.22"/>
<polygon fill="#63b8ff" stroke="#63b8ff" points="1014.88,-153.32 1022.23,-145.7 1011.73,-147.07 1014.88,-153.32"/>
</a>
</g>
</g>
<!-- Node28&#45;&gt;Node6 -->
<g id="edge66_Node000028_Node000006" class="edge">
<title>Node28&#45;&gt;Node6</title>
<g id="a_edge66_Node000028_Node000006"><a xlink:title=" ">
<path fill="none" stroke="#63b8ff" d="M1514.82,-192.06C1369.21,-168.69 977.75,-105.87 823.86,-81.17"/>
<polygon fill="#63b8ff" stroke="#63b8ff" points="824.06,-77.66 813.64,-79.53 822.95,-84.57 824.06,-77.66"/>
</a>
</g>
</g>
<!-- Node29 -->
<g id="Node000029" class="node">
<title>Node29</title>
<g id="a_Node000029"><a xlink:title=" ">
<polygon fill="#e0e0e0" stroke="#999999" points="1562.49,-145.5 1514.49,-145.5 1514.49,-126.5 1562.49,-126.5 1562.49,-145.5"/>
<text text-anchor="middle" x="1538.49" y="-133.5" font-family="Helvetica,sans-Serif" font-size="10.00">mutex</text>
</a>
</g>
</g>
<!-- Node28&#45;&gt;Node29 -->
<g id="edge65_Node000028_Node000029" class="edge">
<title>Node28&#45;&gt;Node29</title>
<g id="a_edge65_Node000028_Node000029"><a xlink:title=" ">
<path fill="none" stroke="#63b8ff" d="M1563.39,-186.8C1558.7,-177.41 1552.5,-165.02 1547.47,-154.95"/>
<polygon fill="#63b8ff" stroke="#63b8ff" points="1550.52,-153.22 1542.92,-145.84 1544.26,-156.35 1550.52,-153.22"/>
</a>
</g>
</g>
<!-- Node30 -->
<g id="Node000030" class="node">
<title>Node30</title>
<g id="a_Node000030"><a xlink:href="io__context__manager_8hpp.html" target="_top" xlink:title=" ">
<polygon fill="white" stroke="#666666" points="1720.49,-151 1580.49,-151 1580.49,-121 1720.49,-121 1720.49,-151"/>
<text text-anchor="start" x="1588.49" y="-139" font-family="Helvetica,sans-Serif" font-size="10.00">unilink/concurrency</text>
<text text-anchor="middle" x="1650.49" y="-128" font-family="Helvetica,sans-Serif" font-size="10.00">/io_context_manager.hpp</text>
</a>
</g>
</g>
<!-- Node28&#45;&gt;Node30 -->
<g id="edge67_Node000028_Node000030" class="edge">
<title>Node28&#45;&gt;Node30</title>
<g id="a_edge67_Node000028_Node000030"><a xlink:title=" ">
<path fill="none" stroke="#63b8ff" d="M1588.25,-186.8C1599.02,-178.18 1612.95,-167.04 1624.9,-157.48"/>
<polygon fill="#63b8ff" stroke="#63b8ff" points="1627.17,-160.14 1632.79,-151.16 1622.79,-154.68 1627.17,-160.14"/>
</a>
</g>
</g>
<!-- Node30&#45;&gt;Node6 -->
<g id="edge71_Node000030_Node000006" class="edge">
<title>Node30&#45;&gt;Node6</title>
<g id="a_edge71_Node000030_Node000006"><a xlink:title=" ">
<path fill="none" stroke="#63b8ff" d="M1580.35,-122.13C1577.36,-121.72 1574.4,-121.34 1571.49,-121 1305.31,-89.56 1236.99,-101.96 969.49,-85 927.02,-82.31 879.69,-79.15 840.84,-76.52"/>
<polygon fill="#63b8ff" stroke="#63b8ff" points="840.84,-73.01 830.63,-75.82 840.37,-79.99 840.84,-73.01"/>
</a>
</g>
</g>
<!-- Node30&#45;&gt;Node9 -->
<g id="edge70_Node000030_Node000009" class="edge">
<title>Node30&#45;&gt;Node9</title>
<g id="a_edge70_Node000030_Node000009"><a xlink:title=" ">
<path fill="none" stroke="#63b8ff" d="M1580.32,-122.33C1577.34,-121.86 1574.39,-121.42 1571.49,-121 1422.99,-99.48 1245.33,-81.88 1167.86,-74.6"/>
<polygon fill="#63b8ff" stroke="#63b8ff" points="1167.88,-71.09 1157.6,-73.64 1167.23,-78.06 1167.88,-71.09"/>
</a>
</g>
</g>
<!-- Node30&#45;&gt;Node27 -->
<g id="edge69_Node000030_Node000027" class="edge">
<title>Node30&#45;&gt;Node27</title>
<g id="a_edge69_Node000030_Node000027"><a xlink:title=" ">
<path fill="none" stroke="#63b8ff" d="M1672.24,-120.8C1688.37,-110.27 1710.26,-95.97 1726.45,-85.4"/>
<polygon fill="#63b8ff" stroke="#63b8ff" points="1728.78,-88.06 1735.24,-79.66 1724.95,-82.2 1728.78,-88.06"/>
</a>
</g>
</g>
<!-- Node31 -->
<g id="Node000031" class="node">
<title>Node31</title>
<g id="a_Node000031"><a xlink:title=" ">
<polygon fill="#e0e0e0" stroke="#999999" points="1659.49,-85 1547.49,-85 1547.49,-55 1659.49,-55 1659.49,-85"/>
<text text-anchor="start" x="1555.49" y="-73" font-family="Helvetica,sans-Serif" font-size="10.00">boost/asio/executor</text>
<text text-anchor="middle" x="1603.49" y="-62" font-family="Helvetica,sans-Serif" font-size="10.00">_work_guard.hpp</text>
</a>
</g>
</g>
<!-- Node30&#45;&gt;Node31 -->
<g id="edge68_Node000030_Node000031" class="edge">
<title>Node30&#45;&gt;Node31</title>
<g id="a_edge68_Node000030_Node000031"><a xlink:title=" ">
<path fill="none" stroke="#63b8ff" d="M1640.06,-120.8C1634.16,-112.76 1626.65,-102.53 1619.97,-93.43"/>
<polygon fill="#63b8ff" stroke="#63b8ff" points="1622.64,-91.15 1613.9,-85.16 1616.99,-95.3 1622.64,-91.15"/>
</a>
</g>
</g>
</g>
</svg>
