<?xml version="1.0" encoding="UTF-8" standalone="no"?>
<!DOCTYPE svg PUBLIC "-//W3C//DTD SVG 1.1//EN"
 "http://www.w3.org/Graphics/SVG/1.1/DTD/svg11.dtd">
<!-- Generated by graphviz version 2.43.0 (0)
 -->
<!-- Title: unilink/builder/serial_builder.hpp Pages: 1 -->
<!--zoomable 357 -->

<svg id="main" version="1.1" xmlns="http://www.w3.org/2000/svg" xmlns:xlink="http://www.w3.org/1999/xlink" xml:space="preserve" onload="init(evt)">
<style type="text/css"><![CDATA[
.node, .edge {opacity: 0.7;}
.node.selected, .edge.selected {opacity: 1;}
.edge:hover path { stroke: red; }
.edge:hover polygon { stroke: red; fill: red; }
]]></style>

<defs>
  <circle id="rim" cx="0" cy="0" r="7"/>
  <circle id="rim2" cx="0" cy="0" r="3.5"/>
  <g id="zoomPlus">
    <use xlink:href="#rim" fill="#404040"><set attributeName="fill" to="#808080" begin="zoomplus.mouseover" end="zoomplus.mouseout"/></use>
    <path d="M-4,0h8M0,-4v8" fill="none" stroke="white" stroke-width="1.5" pointer-events="none"/>
  </g>
  <g id="zoomMin">
    <use xlink:href="#rim" fill="#404040"><set attributeName="fill" to="#808080" begin="zoomminus.mouseover" end="zoomminus.mouseout"/></use>
    <path d="M-4,0h8" fill="none" stroke="white" stroke-width="1.5" pointer-events="none"/>
  </g>
  <g id="arrowUp" transform="translate(30 24)">
    <use xlink:href="#rim"/>
    <path pointer-events="none" fill="none" stroke="white" stroke-width="1.5" d="M0,-3.0v7 M-2.5,-0.5L0,-3.0L2.5,-0.5"/>
  </g>
  <g id="arrowRight" transform="rotate(90) translate(36 -43)">
    <use xlink:href="#rim"/>
    <path pointer-events="none" fill="none" stroke="white" stroke-width="1.5" d="M0,-3.0v7 M-2.5,-0.5L0,-3.0L2.5,-0.5"/>
  </g>
  <g id="arrowDown" transform="rotate(180) translate(-30 -48)">
    <use xlink:href="#rim"/>
    <path pointer-events="none" fill="none" stroke="white" stroke-width="1.5" d="M0,-3.0v7 M-2.5,-0.5L0,-3.0L2.5,-0.5"/>
  </g>
  <g id="arrowLeft" transform="rotate(270) translate(-36 17)">
    <use xlink:href="#rim"/>
    <path pointer-events="none" fill="none" stroke="white" stroke-width="1.5" d="M0,-3.0v7 M-2.5,-0.5L0,-3.0L2.5,-0.5"/>
  </g>
  <g id="resetDef">
    <use xlink:href="#rim2" fill="#404040"><set attributeName="fill" to="#808080" begin="reset.mouseover" end="reset.mouseout"/></use>
  </g>
</defs>
<script type="application/ecmascript">
var viewWidth = 1585;
var viewHeight = 357;
var sectionId = 'dynsection-0';
</script>
<script type="application/ecmascript" xlink:href="svg.min.js"/>
<svg id="graph" class="graph">
<g id="viewport">
<title>unilink/builder/serial_builder.hpp</title>
<!-- Node1 -->
<g id="Node000001" class="node">
<title>Node1</title>
<g id="a_Node000001"><a xlink:title=" ">
<polygon fill="#999999" stroke="#666666" points="988.05,-349 872.05,-349 872.05,-319 988.05,-319 988.05,-349"/>
<text text-anchor="start" x="880.05" y="-337" font-family="Helvetica,sans-Serif" font-size="10.00">unilink/builder/serial</text>
<text text-anchor="middle" x="930.05" y="-326" font-family="Helvetica,sans-Serif" font-size="10.00">_builder.hpp</text>
</a>
</g>
</g>
<!-- Node2 -->
<g id="Node000002" class="node">
<title>Node2</title>
<g id="a_Node000002"><a xlink:title=" ">
<polygon fill="#e0e0e0" stroke="#999999" points="840.05,-211.5 790.05,-211.5 790.05,-192.5 840.05,-192.5 840.05,-211.5"/>
<text text-anchor="middle" x="815.05" y="-199.5" font-family="Helvetica,sans-Serif" font-size="10.00">chrono</text>
</a>
</g>
</g>
<!-- Node1&#45;&gt;Node2 -->
<g id="edge1_Node000001_Node000002" class="edge">
<title>Node1&#45;&gt;Node2</title>
<g id="a_edge1_Node000001_Node000002"><a xlink:title=" ">
<path fill="none" stroke="#63b8ff" d="M917.52,-318.84C896.08,-294.6 852.45,-245.28 829.65,-219.51"/>
<polygon fill="#63b8ff" stroke="#63b8ff" points="832.03,-216.92 822.78,-211.75 826.79,-221.56 832.03,-216.92"/>
</a>
</g>
</g>
<!-- Node3 -->
<g id="Node000003" class="node">
<title>Node3</title>
<g id="a_Node000003"><a xlink:title=" ">
<polygon fill="#e0e0e0" stroke="#999999" points="1535.05,-19 1485.05,-19 1485.05,0 1535.05,0 1535.05,-19"/>
<text text-anchor="middle" x="1510.05" y="-7" font-family="Helvetica,sans-Serif" font-size="10.00">cstdint</text>
</a>
</g>
</g>
<!-- Node1&#45;&gt;Node3 -->
<g id="edge2_Node000001_Node000003" class="edge">
<title>Node1&#45;&gt;Node3</title>
<g id="a_edge2_Node000001_Node000003"><a xlink:title=" ">
<path fill="none" stroke="#63b8ff" d="M988.32,-333.57C1147.35,-333.57 1577.05,-322.51 1577.05,-203 1577.05,-203 1577.05,-203 1577.05,-135 1577.05,-98.46 1576.46,-86.56 1558.05,-55 1551.31,-43.46 1540.64,-33.14 1531.07,-25.34"/>
<polygon fill="#63b8ff" stroke="#63b8ff" points="1533.12,-22.51 1523.06,-19.18 1528.85,-28.05 1533.12,-22.51"/>
</a>
</g>
</g>
<!-- Node4 -->
<g id="Node000004" class="node">
<title>Node4</title>
<g id="a_Node000004"><a xlink:title=" ">
<polygon fill="#e0e0e0" stroke="#999999" points="905.05,-19 861.05,-19 861.05,0 905.05,0 905.05,-19"/>
<text text-anchor="middle" x="883.05" y="-7" font-family="Helvetica,sans-Serif" font-size="10.00">string</text>
</a>
</g>
</g>
<!-- Node1&#45;&gt;Node4 -->
<g id="edge3_Node000001_Node000004" class="edge">
<title>Node1&#45;&gt;Node4</title>
<g id="a_edge3_Node000001_Node000004"><a xlink:title=" ">
<path fill="none" stroke="#63b8ff" d="M988.28,-329.85C1130.1,-319.67 1475.63,-278.49 1389.05,-121 1362.67,-73.03 1336.7,-73.15 1285.05,-55 1216.82,-31.03 998.15,-16.82 915.29,-12.19"/>
<polygon fill="#63b8ff" stroke="#63b8ff" points="915.37,-8.69 905.2,-11.63 914.99,-15.68 915.37,-8.69"/>
</a>
</g>
</g>
<!-- Node5 -->
<g id="Node000005" class="node">
<title>Node5</title>
<g id="a_Node000005"><a xlink:href="visibility_8hpp.html" target="_top" xlink:title=" ">
<polygon fill="white" stroke="#666666" points="150.05,-79.5 10.05,-79.5 10.05,-60.5 150.05,-60.5 150.05,-79.5"/>
<text text-anchor="middle" x="80.05" y="-67.5" font-family="Helvetica,sans-Serif" font-size="10.00">unilink/base/visibility.hpp</text>
</a>
</g>
</g>
<!-- Node1&#45;&gt;Node5 -->
<g id="edge4_Node000001_Node000005" class="edge">
<title>Node1&#45;&gt;Node5</title>
<g id="a_edge4_Node000001_Node000005"><a xlink:title=" ">
<path fill="none" stroke="#63b8ff" d="M871.98,-330.14C678.36,-320.02 63.79,-282.89 7.05,-217 -3,-205.34 -2.44,-147.13 12.05,-121 20.85,-105.13 37.05,-92.91 51.43,-84.52"/>
<polygon fill="#63b8ff" stroke="#63b8ff" points="53.42,-87.43 60.53,-79.57 50.07,-81.28 53.42,-87.43"/>
</a>
</g>
</g>
<!-- Node6 -->
<g id="Node000006" class="node">
<title>Node6</title>
<g id="a_Node000006"><a xlink:href="ibuilder_8hpp.html" target="_top" xlink:title=" ">
<polygon fill="white" stroke="#666666" points="602.05,-277.5 456.05,-277.5 456.05,-258.5 602.05,-258.5 602.05,-277.5"/>
<text text-anchor="middle" x="529.05" y="-265.5" font-family="Helvetica,sans-Serif" font-size="10.00">unilink/builder/ibuilder.hpp</text>
</a>
</g>
</g>
<!-- Node1&#45;&gt;Node6 -->
<g id="edge5_Node000001_Node000006" class="edge">
<title>Node1&#45;&gt;Node6</title>
<g id="a_edge5_Node000001_Node000006"><a xlink:title=" ">
<path fill="none" stroke="#63b8ff" d="M871.74,-323.69C797.42,-311.83 669.4,-291.4 592.63,-279.15"/>
<polygon fill="#63b8ff" stroke="#63b8ff" points="593.04,-275.67 582.61,-277.55 591.94,-282.58 593.04,-275.67"/>
</a>
</g>
</g>
<!-- Node20 -->
<g id="Node000020" class="node">
<title>Node20</title>
<g id="a_Node000020"><a xlink:href="wrapper_2serial_2serial_8hpp.html" target="_top" xlink:title=" ">
<polygon fill="white" stroke="#666666" points="1089.05,-283 967.05,-283 967.05,-253 1089.05,-253 1089.05,-283"/>
<text text-anchor="start" x="975.05" y="-271" font-family="Helvetica,sans-Serif" font-size="10.00">unilink/wrapper/serial</text>
<text text-anchor="middle" x="1028.05" y="-260" font-family="Helvetica,sans-Serif" font-size="10.00">/serial.hpp</text>
</a>
</g>
</g>
<!-- Node1&#45;&gt;Node20 -->
<g id="edge40_Node000001_Node000020" class="edge">
<title>Node1&#45;&gt;Node20</title>
<g id="a_edge40_Node000001_Node000020"><a xlink:title=" ">
<path fill="none" stroke="#63b8ff" d="M951.8,-318.8C965.37,-309.93 983.04,-298.39 997.95,-288.66"/>
<polygon fill="#63b8ff" stroke="#63b8ff" points="999.9,-291.56 1006.36,-283.16 996.07,-285.7 999.9,-291.56"/>
</a>
</g>
</g>
<!-- Node6&#45;&gt;Node4 -->
<g id="edge8_Node000006_Node000004" class="edge">
<title>Node6&#45;&gt;Node4</title>
<g id="a_edge8_Node000006_Node000004"><a xlink:title=" ">
<path fill="none" stroke="#63b8ff" d="M530,-258.32C534.26,-220.27 552,-69.49 567.05,-55 606.99,-16.52 777.75,-11.01 850.27,-10.44"/>
<polygon fill="#63b8ff" stroke="#63b8ff" points="850.65,-13.94 860.63,-10.38 850.61,-6.94 850.65,-13.94"/>
</a>
</g>
</g>
<!-- Node6&#45;&gt;Node5 -->
<g id="edge11_Node000006_Node000005" class="edge">
<title>Node6&#45;&gt;Node5</title>
<g id="a_edge11_Node000006_Node000005"><a xlink:title=" ">
<path fill="none" stroke="#63b8ff" d="M456.04,-265.02C323.94,-260.68 56.2,-248.11 28.05,-217 -0.59,-185.37 11.33,-160.26 28.05,-121 34.14,-106.68 46.58,-94.47 57.76,-85.71"/>
<polygon fill="#63b8ff" stroke="#63b8ff" points="59.96,-88.44 65.94,-79.7 55.81,-82.8 59.96,-88.44"/>
</a>
</g>
</g>
<!-- Node7 -->
<g id="Node000007" class="node">
<title>Node7</title>
<g id="a_Node000007"><a xlink:title=" ">
<polygon fill="#e0e0e0" stroke="#999999" points="1138.55,-79.5 1073.55,-79.5 1073.55,-60.5 1138.55,-60.5 1138.55,-79.5"/>
<text text-anchor="middle" x="1106.05" y="-67.5" font-family="Helvetica,sans-Serif" font-size="10.00">functional</text>
</a>
</g>
</g>
<!-- Node6&#45;&gt;Node7 -->
<g id="edge6_Node000006_Node000007" class="edge">
<title>Node6&#45;&gt;Node7</title>
<g id="a_edge6_Node000006_Node000007"><a xlink:title=" ">
<path fill="none" stroke="#63b8ff" d="M602.08,-267.78C729.73,-267.92 987.09,-262.33 1063.05,-217 1093.32,-198.93 1096.83,-184.74 1107.05,-151 1113.19,-130.69 1111.65,-106.14 1109.4,-89.63"/>
<polygon fill="#63b8ff" stroke="#63b8ff" points="1112.84,-88.97 1107.82,-79.64 1105.93,-90.07 1112.84,-88.97"/>
</a>
</g>
</g>
<!-- Node8 -->
<g id="Node000008" class="node">
<title>Node8</title>
<g id="a_Node000008"><a xlink:title=" ">
<polygon fill="#e0e0e0" stroke="#999999" points="958.05,-79.5 900.05,-79.5 900.05,-60.5 958.05,-60.5 958.05,-79.5"/>
<text text-anchor="middle" x="929.05" y="-67.5" font-family="Helvetica,sans-Serif" font-size="10.00">memory</text>
</a>
</g>
</g>
<!-- Node6&#45;&gt;Node8 -->
<g id="edge7_Node000006_Node000008" class="edge">
<title>Node6&#45;&gt;Node8</title>
<g id="a_edge7_Node000006_Node000008"><a xlink:title=" ">
<path fill="none" stroke="#63b8ff" d="M570.54,-258.46C606.13,-250.32 658.29,-236.41 701.05,-217 783.85,-179.4 871.73,-115.23 909.71,-86.14"/>
<polygon fill="#63b8ff" stroke="#63b8ff" points="912.08,-88.73 917.86,-79.85 907.8,-83.19 912.08,-88.73"/>
</a>
</g>
</g>
<!-- Node9 -->
<g id="Node000009" class="node">
<title>Node9</title>
<g id="a_Node000009"><a xlink:title=" ">
<polygon fill="#e0e0e0" stroke="#999999" points="881.55,-79.5 808.55,-79.5 808.55,-60.5 881.55,-60.5 881.55,-79.5"/>
<text text-anchor="middle" x="845.05" y="-67.5" font-family="Helvetica,sans-Serif" font-size="10.00">string_view</text>
</a>
</g>
</g>
<!-- Node6&#45;&gt;Node9 -->
<g id="edge9_Node000006_Node000009" class="edge">
<title>Node6&#45;&gt;Node9</title>
<g id="a_edge9_Node000006_Node000009"><a xlink:title=" ">
<path fill="none" stroke="#63b8ff" d="M555.09,-258.47C601.81,-242.37 701.61,-204.28 773.05,-151 797.41,-132.83 819.88,-105.45 833.02,-87.91"/>
<polygon fill="#63b8ff" stroke="#63b8ff" points="835.93,-89.86 839.01,-79.73 830.28,-85.73 835.93,-89.86"/>
</a>
</g>
</g>
<!-- Node10 -->
<g id="Node000010" class="node">
<title>Node10</title>
<g id="a_Node000010"><a xlink:title=" ">
<polygon fill="#e0e0e0" stroke="#999999" points="519.55,-79.5 472.55,-79.5 472.55,-60.5 519.55,-60.5 519.55,-79.5"/>
<text text-anchor="middle" x="496.05" y="-67.5" font-family="Helvetica,sans-Serif" font-size="10.00">vector</text>
</a>
</g>
</g>
<!-- Node6&#45;&gt;Node10 -->
<g id="edge10_Node000006_Node000010" class="edge">
<title>Node6&#45;&gt;Node10</title>
<g id="a_edge10_Node000006_Node000010"><a xlink:title=" ">
<path fill="none" stroke="#63b8ff" d="M527.59,-258.33C522.59,-228.66 506.12,-130.85 499.18,-89.6"/>
<polygon fill="#63b8ff" stroke="#63b8ff" points="502.6,-88.85 497.49,-79.57 495.7,-90.02 502.6,-88.85"/>
</a>
</g>
</g>
<!-- Node11 -->
<g id="Node000011" class="node">
<title>Node11</title>
<g id="a_Node000011"><a xlink:href="iframer_8hpp.html" target="_top" xlink:title=" ">
<polygon fill="white" stroke="#666666" points="481.55,-145.5 336.55,-145.5 336.55,-126.5 481.55,-126.5 481.55,-145.5"/>
<text text-anchor="middle" x="409.05" y="-133.5" font-family="Helvetica,sans-Serif" font-size="10.00">unilink/framer/iframer.hpp</text>
</a>
</g>
</g>
<!-- Node6&#45;&gt;Node11 -->
<g id="edge12_Node000006_Node000011" class="edge">
<title>Node6&#45;&gt;Node11</title>
<g id="a_edge12_Node000006_Node000011"><a xlink:title=" ">
<path fill="none" stroke="#63b8ff" d="M521.17,-258.47C501.43,-237.08 449.57,-180.9 423.89,-153.08"/>
<polygon fill="#63b8ff" stroke="#63b8ff" points="426.46,-150.71 417.11,-145.73 421.32,-155.45 426.46,-150.71"/>
</a>
</g>
</g>
<!-- Node12 -->
<g id="Node000012" class="node">
<title>Node12</title>
<g id="a_Node000012"><a xlink:href="safe__span_8hpp.html" target="_top" xlink:title=" ">
<polygon fill="white" stroke="#666666" points="454.05,-85 336.05,-85 336.05,-55 454.05,-55 454.05,-85"/>
<text text-anchor="start" x="344.05" y="-73" font-family="Helvetica,sans-Serif" font-size="10.00">unilink/memory/safe</text>
<text text-anchor="middle" x="395.05" y="-62" font-family="Helvetica,sans-Serif" font-size="10.00">_span.hpp</text>
</a>
</g>
</g>
<!-- Node6&#45;&gt;Node12 -->
<g id="edge31_Node000006_Node000012" class="edge">
<title>Node6&#45;&gt;Node12</title>
<g id="a_edge31_Node000006_Node000012"><a xlink:title=" ">
<path fill="none" stroke="#63b8ff" d="M455.67,-267.36C363.54,-266.06 213.24,-257.56 178.05,-217 126.15,-157.18 245.69,-111.1 327.15,-87.81"/>
<polygon fill="#63b8ff" stroke="#63b8ff" points="328.2,-91.15 336.89,-85.08 326.31,-84.41 328.2,-91.15"/>
</a>
</g>
</g>
<!-- Node15 -->
<g id="Node000015" class="node">
<title>Node15</title>
<g id="a_Node000015"><a xlink:href="line__framer_8hpp.html" target="_top" xlink:title=" ">
<polygon fill="white" stroke="#666666" points="438.55,-217 331.55,-217 331.55,-187 438.55,-187 438.55,-217"/>
<text text-anchor="start" x="339.55" y="-205" font-family="Helvetica,sans-Serif" font-size="10.00">unilink/framer/line</text>
<text text-anchor="middle" x="385.05" y="-194" font-family="Helvetica,sans-Serif" font-size="10.00">_framer.hpp</text>
</a>
</g>
</g>
<!-- Node6&#45;&gt;Node15 -->
<g id="edge21_Node000006_Node000015" class="edge">
<title>Node6&#45;&gt;Node15</title>
<g id="a_edge21_Node000006_Node000015"><a xlink:title=" ">
<path fill="none" stroke="#63b8ff" d="M509.63,-258.37C488.34,-248.91 453.56,-233.45 426.16,-221.27"/>
<polygon fill="#63b8ff" stroke="#63b8ff" points="427.37,-217.98 416.81,-217.12 424.52,-224.38 427.37,-217.98"/>
</a>
</g>
</g>
<!-- Node16 -->
<g id="Node000016" class="node">
<title>Node16</title>
<g id="a_Node000016"><a xlink:href="packet__framer_8hpp.html" target="_top" xlink:title=" ">
<polygon fill="white" stroke="#666666" points="307.55,-217 186.55,-217 186.55,-187 307.55,-187 307.55,-217"/>
<text text-anchor="start" x="194.55" y="-205" font-family="Helvetica,sans-Serif" font-size="10.00">unilink/framer/packet</text>
<text text-anchor="middle" x="247.05" y="-194" font-family="Helvetica,sans-Serif" font-size="10.00">_framer.hpp</text>
</a>
</g>
</g>
<!-- Node6&#45;&gt;Node16 -->
<g id="edge27_Node000006_Node000016" class="edge">
<title>Node6&#45;&gt;Node16</title>
<g id="a_edge27_Node000006_Node000016"><a xlink:title=" ">
<path fill="none" stroke="#63b8ff" d="M491.31,-258.44C447.08,-248.4 372.86,-231.55 317.81,-219.06"/>
<polygon fill="#63b8ff" stroke="#63b8ff" points="318.3,-215.58 307.77,-216.78 316.75,-222.41 318.3,-215.58"/>
</a>
</g>
</g>
<!-- Node17 -->
<g id="Node000017" class="node">
<title>Node17</title>
<g id="a_Node000017"><a xlink:href="context_8hpp.html" target="_top" xlink:title=" ">
<polygon fill="white" stroke="#666666" points="729.55,-145.5 576.55,-145.5 576.55,-126.5 729.55,-126.5 729.55,-145.5"/>
<text text-anchor="middle" x="653.05" y="-133.5" font-family="Helvetica,sans-Serif" font-size="10.00">unilink/wrapper/context.hpp</text>
</a>
</g>
</g>
<!-- Node6&#45;&gt;Node17 -->
<g id="edge32_Node000006_Node000017" class="edge">
<title>Node6&#45;&gt;Node17</title>
<g id="a_edge32_Node000006_Node000017"><a xlink:title=" ">
<path fill="none" stroke="#63b8ff" d="M537.18,-258.47C557.58,-237.08 611.17,-180.9 637.71,-153.08"/>
<polygon fill="#63b8ff" stroke="#63b8ff" points="640.35,-155.38 644.72,-145.73 635.28,-150.55 640.35,-155.38"/>
</a>
</g>
</g>
<!-- Node11&#45;&gt;Node5 -->
<g id="edge16_Node000011_Node000005" class="edge">
<title>Node11&#45;&gt;Node5</title>
<g id="a_edge16_Node000011_Node000005"><a xlink:title=" ">
<path fill="none" stroke="#63b8ff" d="M365.02,-126.44C305.18,-114.8 198.28,-94 133.79,-81.45"/>
<polygon fill="#63b8ff" stroke="#63b8ff" points="134.3,-77.99 123.81,-79.51 132.96,-84.86 134.3,-77.99"/>
</a>
</g>
</g>
<!-- Node11&#45;&gt;Node7 -->
<g id="edge13_Node000011_Node000007" class="edge">
<title>Node11&#45;&gt;Node7</title>
<g id="a_edge13_Node000011_Node000007"><a xlink:title=" ">
<path fill="none" stroke="#63b8ff" d="M481.57,-128.6C610.52,-117.21 874.76,-93.78 967.05,-85 999.37,-81.92 1035.91,-78.24 1063.41,-75.42"/>
<polygon fill="#63b8ff" stroke="#63b8ff" points="1063.89,-78.89 1073.48,-74.38 1063.17,-71.92 1063.89,-78.89"/>
</a>
</g>
</g>
<!-- Node11&#45;&gt;Node8 -->
<g id="edge14_Node000011_Node000008" class="edge">
<title>Node11&#45;&gt;Node8</title>
<g id="a_edge14_Node000011_Node000008"><a xlink:title=" ">
<path fill="none" stroke="#63b8ff" d="M481.86,-128.46C606.77,-117.08 852.22,-94.02 891.05,-85 893.71,-84.38 896.45,-83.62 899.17,-82.79"/>
<polygon fill="#63b8ff" stroke="#63b8ff" points="900.48,-86.04 908.82,-79.51 898.23,-79.41 900.48,-86.04"/>
</a>
</g>
</g>
<!-- Node11&#45;&gt;Node10 -->
<g id="edge15_Node000011_Node000010" class="edge">
<title>Node11&#45;&gt;Node10</title>
<g id="a_edge15_Node000011_Node000010"><a xlink:title=" ">
<path fill="none" stroke="#63b8ff" d="M420.78,-126.37C434.92,-115.97 458.9,-98.32 476,-85.75"/>
<polygon fill="#63b8ff" stroke="#63b8ff" points="478.24,-88.44 484.22,-79.7 474.09,-82.81 478.24,-88.44"/>
</a>
</g>
</g>
<!-- Node11&#45;&gt;Node12 -->
<g id="edge17_Node000011_Node000012" class="edge">
<title>Node11&#45;&gt;Node12</title>
<g id="a_edge17_Node000011_Node000012"><a xlink:title=" ">
<path fill="none" stroke="#63b8ff" d="M407.16,-126.37C405.42,-118.4 402.74,-106.2 400.35,-95.27"/>
<polygon fill="#63b8ff" stroke="#63b8ff" points="403.74,-94.38 398.19,-85.36 396.91,-95.88 403.74,-94.38"/>
</a>
</g>
</g>
<!-- Node12&#45;&gt;Node3 -->
<g id="edge18_Node000012_Node000003" class="edge">
<title>Node12&#45;&gt;Node3</title>
<g id="a_edge18_Node000012_Node000003"><a xlink:title=" ">
<path fill="none" stroke="#63b8ff" d="M454.41,-56.31C457.66,-55.82 460.89,-55.37 464.05,-55 907.71,-2.46 1028.64,-80.76 1474.98,-18.8"/>
<polygon fill="#63b8ff" stroke="#63b8ff" points="1475.49,-22.26 1484.91,-17.41 1474.52,-15.33 1475.49,-22.26"/>
</a>
</g>
</g>
<!-- Node13 -->
<g id="Node000013" class="node">
<title>Node13</title>
<g id="a_Node000013"><a xlink:title=" ">
<polygon fill="#e0e0e0" stroke="#999999" points="469.55,-19 404.55,-19 404.55,0 469.55,0 469.55,-19"/>
<text text-anchor="middle" x="437.05" y="-7" font-family="Helvetica,sans-Serif" font-size="10.00">stdexcept</text>
</a>
</g>
</g>
<!-- Node12&#45;&gt;Node13 -->
<g id="edge19_Node000012_Node000013" class="edge">
<title>Node12&#45;&gt;Node13</title>
<g id="a_edge19_Node000012_Node000013"><a xlink:title=" ">
<path fill="none" stroke="#63b8ff" d="M405.21,-54.84C411.12,-46.61 418.61,-36.18 424.84,-27.51"/>
<polygon fill="#63b8ff" stroke="#63b8ff" points="427.76,-29.43 430.75,-19.27 422.08,-25.35 427.76,-29.43"/>
</a>
</g>
</g>
<!-- Node14 -->
<g id="Node000014" class="node">
<title>Node14</title>
<g id="a_Node000014"><a xlink:title=" ">
<polygon fill="#e0e0e0" stroke="#999999" points="386.55,-19 317.55,-19 317.55,0 386.55,0 386.55,-19"/>
<text text-anchor="middle" x="352.05" y="-7" font-family="Helvetica,sans-Serif" font-size="10.00">type_traits</text>
</a>
</g>
</g>
<!-- Node12&#45;&gt;Node14 -->
<g id="edge20_Node000012_Node000014" class="edge">
<title>Node12&#45;&gt;Node14</title>
<g id="a_edge20_Node000012_Node000014"><a xlink:title=" ">
<path fill="none" stroke="#63b8ff" d="M384.64,-54.84C378.59,-46.61 370.92,-36.18 364.55,-27.51"/>
<polygon fill="#63b8ff" stroke="#63b8ff" points="367.23,-25.25 358.49,-19.27 361.59,-29.4 367.23,-25.25"/>
</a>
</g>
</g>
<!-- Node15&#45;&gt;Node4 -->
<g id="edge22_Node000015_Node000004" class="edge">
<title>Node15&#45;&gt;Node4</title>
<g id="a_edge22_Node000015_Node000004"><a xlink:title=" ">
<path fill="none" stroke="#63b8ff" d="M355.02,-186.84C341.06,-178.53 325.85,-166.57 318.05,-151 307.87,-130.72 318.26,-63.31 327.05,-55 365.21,-18.9 738.17,-12.03 850.92,-10.77"/>
<polygon fill="#63b8ff" stroke="#63b8ff" points="851.04,-14.27 861,-10.67 850.97,-7.27 851.04,-14.27"/>
</a>
</g>
</g>
<!-- Node15&#45;&gt;Node5 -->
<g id="edge25_Node000015_Node000005" class="edge">
<title>Node15&#45;&gt;Node5</title>
<g id="a_edge25_Node000015_Node000005"><a xlink:title=" ">
<path fill="none" stroke="#63b8ff" d="M331.27,-188.33C297.97,-179.65 254.71,-166.86 218.05,-151 174.39,-132.12 127.2,-102.57 100.86,-85.16"/>
<polygon fill="#63b8ff" stroke="#63b8ff" points="102.72,-82.19 92.46,-79.54 98.83,-88.01 102.72,-82.19"/>
</a>
</g>
</g>
<!-- Node15&#45;&gt;Node9 -->
<g id="edge23_Node000015_Node000009" class="edge">
<title>Node15&#45;&gt;Node9</title>
<g id="a_edge23_Node000015_Node000009"><a xlink:title=" ">
<path fill="none" stroke="#63b8ff" d="M438.81,-201.66C510.14,-200.71 638.72,-192.64 739.05,-151 748.75,-146.97 798.37,-108.12 826.15,-86.08"/>
<polygon fill="#63b8ff" stroke="#63b8ff" points="828.67,-88.55 834.32,-79.58 824.32,-83.07 828.67,-88.55"/>
</a>
</g>
</g>
<!-- Node15&#45;&gt;Node10 -->
<g id="edge24_Node000015_Node000010" class="edge">
<title>Node15&#45;&gt;Node10</title>
<g id="a_edge24_Node000015_Node000010"><a xlink:title=" ">
<path fill="none" stroke="#63b8ff" d="M362.88,-186.9C340.24,-170.75 310.69,-143.58 328.05,-121 365.88,-71.76 404.32,-105.18 463.05,-85 464.48,-84.51 465.94,-83.98 467.41,-83.43"/>
<polygon fill="#63b8ff" stroke="#63b8ff" points="469.03,-86.55 477.03,-79.61 466.44,-80.05 469.03,-86.55"/>
</a>
</g>
</g>
<!-- Node15&#45;&gt;Node11 -->
<g id="edge26_Node000015_Node000011" class="edge">
<title>Node15&#45;&gt;Node11</title>
<g id="a_edge26_Node000015_Node000011"><a xlink:title=" ">
<path fill="none" stroke="#63b8ff" d="M390.37,-186.8C393.86,-177.5 398.44,-165.27 402.2,-155.26"/>
<polygon fill="#63b8ff" stroke="#63b8ff" points="405.5,-156.44 405.73,-145.84 398.94,-153.98 405.5,-156.44"/>
</a>
</g>
</g>
<!-- Node16&#45;&gt;Node5 -->
<g id="edge29_Node000016_Node000005" class="edge">
<title>Node16&#45;&gt;Node5</title>
<g id="a_edge29_Node000016_Node000005"><a xlink:title=" ">
<path fill="none" stroke="#63b8ff" d="M186.24,-192.72C157.82,-185.91 125.58,-173.53 104.05,-151 88.19,-134.41 82.76,-107.76 80.94,-89.83"/>
<polygon fill="#63b8ff" stroke="#63b8ff" points="84.42,-89.44 80.19,-79.73 77.44,-89.96 84.42,-89.44"/>
</a>
</g>
</g>
<!-- Node16&#45;&gt;Node10 -->
<g id="edge28_Node000016_Node000010" class="edge">
<title>Node16&#45;&gt;Node10</title>
<g id="a_edge28_Node000016_Node000010"><a xlink:title=" ">
<path fill="none" stroke="#63b8ff" d="M255.72,-186.78C267.54,-168.67 290.4,-137.73 318.05,-121 374.86,-86.63 400.06,-106.03 463.05,-85 464.67,-84.46 466.32,-83.87 467.99,-83.25"/>
<polygon fill="#63b8ff" stroke="#63b8ff" points="469.39,-86.46 477.4,-79.52 466.81,-79.96 469.39,-86.46"/>
</a>
</g>
</g>
<!-- Node16&#45;&gt;Node11 -->
<g id="edge30_Node000016_Node000011" class="edge">
<title>Node16&#45;&gt;Node11</title>
<g id="a_edge30_Node000016_Node000011"><a xlink:title=" ">
<path fill="none" stroke="#63b8ff" d="M282.6,-186.95C311.13,-175.68 350.8,-160.01 378.05,-149.25"/>
<polygon fill="#63b8ff" stroke="#63b8ff" points="379.47,-152.45 387.49,-145.52 376.9,-145.94 379.47,-152.45"/>
</a>
</g>
</g>
<!-- Node17&#45;&gt;Node4 -->
<g id="edge34_Node000017_Node000004" class="edge">
<title>Node17&#45;&gt;Node4</title>
<g id="a_edge34_Node000017_Node000004"><a xlink:title=" ">
<path fill="none" stroke="#63b8ff" d="M675.29,-126.41C697.65,-117.38 732.77,-102.13 761.05,-85 779.75,-73.67 781.68,-66.87 800.05,-55 818.07,-43.35 839.42,-31.95 855.96,-23.6"/>
<polygon fill="#63b8ff" stroke="#63b8ff" points="857.69,-26.65 865.08,-19.07 854.57,-20.39 857.69,-26.65"/>
</a>
</g>
</g>
<!-- Node17&#45;&gt;Node9 -->
<g id="edge35_Node000017_Node000009" class="edge">
<title>Node17&#45;&gt;Node9</title>
<g id="a_edge35_Node000017_Node000009"><a xlink:title=" ">
<path fill="none" stroke="#63b8ff" d="M678.94,-126.37C712.67,-115.12 771.8,-95.42 809.65,-82.8"/>
<polygon fill="#63b8ff" stroke="#63b8ff" points="810.88,-86.08 819.26,-79.6 808.66,-79.44 810.88,-86.08"/>
</a>
</g>
</g>
<!-- Node17&#45;&gt;Node10 -->
<g id="edge36_Node000017_Node000010" class="edge">
<title>Node17&#45;&gt;Node10</title>
<g id="a_edge36_Node000017_Node000010"><a xlink:title=" ">
<path fill="none" stroke="#63b8ff" d="M631.87,-126.37C604.76,-115.32 557.58,-96.08 526.58,-83.45"/>
<polygon fill="#63b8ff" stroke="#63b8ff" points="527.72,-80.13 517.13,-79.6 525.07,-86.61 527.72,-80.13"/>
</a>
</g>
</g>
<!-- Node17&#45;&gt;Node12 -->
<g id="edge39_Node000017_Node000012" class="edge">
<title>Node17&#45;&gt;Node12</title>
<g id="a_edge39_Node000017_Node000012"><a xlink:title=" ">
<path fill="none" stroke="#63b8ff" d="M618.52,-126.44C578.48,-116.5 511.58,-99.91 461.39,-87.46"/>
<polygon fill="#63b8ff" stroke="#63b8ff" points="462.13,-84.04 451.58,-85.02 460.45,-90.83 462.13,-84.04"/>
</a>
</g>
</g>
<!-- Node18 -->
<g id="Node000018" class="node">
<title>Node18</title>
<g id="a_Node000018"><a xlink:title=" ">
<polygon fill="#e0e0e0" stroke="#999999" points="752.05,-79.5 696.05,-79.5 696.05,-60.5 752.05,-60.5 752.05,-79.5"/>
<text text-anchor="middle" x="724.05" y="-67.5" font-family="Helvetica,sans-Serif" font-size="10.00">optional</text>
</a>
</g>
</g>
<!-- Node17&#45;&gt;Node18 -->
<g id="edge33_Node000017_Node000018" class="edge">
<title>Node17&#45;&gt;Node18</title>
<g id="a_edge33_Node000017_Node000018"><a xlink:title=" ">
<path fill="none" stroke="#63b8ff" d="M662.62,-126.37C673.89,-116.21 692.81,-99.16 706.68,-86.65"/>
<polygon fill="#63b8ff" stroke="#63b8ff" points="709.08,-89.2 714.17,-79.91 704.4,-84 709.08,-89.2"/>
</a>
</g>
</g>
<!-- Node19 -->
<g id="Node000019" class="node">
<title>Node19</title>
<g id="a_Node000019"><a xlink:href="error__codes_8hpp.html" target="_top" xlink:title=" ">
<polygon fill="white" stroke="#666666" points="678.05,-85 576.05,-85 576.05,-55 678.05,-55 678.05,-85"/>
<text text-anchor="start" x="584.05" y="-73" font-family="Helvetica,sans-Serif" font-size="10.00">unilink/base/error</text>
<text text-anchor="middle" x="627.05" y="-62" font-family="Helvetica,sans-Serif" font-size="10.00">_codes.hpp</text>
</a>
</g>
</g>
<!-- Node17&#45;&gt;Node19 -->
<g id="edge37_Node000017_Node000019" class="edge">
<title>Node17&#45;&gt;Node19</title>
<g id="a_edge37_Node000017_Node000019"><a xlink:title=" ">
<path fill="none" stroke="#63b8ff" d="M649.54,-126.37C646.27,-118.32 641.24,-105.94 636.77,-94.93"/>
<polygon fill="#63b8ff" stroke="#63b8ff" points="639.89,-93.31 632.88,-85.36 633.4,-95.94 639.89,-93.31"/>
</a>
</g>
</g>
<!-- Node19&#45;&gt;Node4 -->
<g id="edge38_Node000019_Node000004" class="edge">
<title>Node19&#45;&gt;Node4</title>
<g id="a_edge38_Node000019_Node000004"><a xlink:title=" ">
<path fill="none" stroke="#63b8ff" d="M678.1,-57.06C681.13,-56.36 684.13,-55.67 687.05,-55 744.7,-41.73 811.97,-26.52 850.82,-17.76"/>
<polygon fill="#63b8ff" stroke="#63b8ff" points="852,-21.08 860.99,-15.46 850.47,-14.25 852,-21.08"/>
</a>
</g>
</g>
<!-- Node20&#45;&gt;Node2 -->
<g id="edge41_Node000020_Node000002" class="edge">
<title>Node20&#45;&gt;Node2</title>
<g id="a_edge41_Node000020_Node000002"><a xlink:title=" ">
<path fill="none" stroke="#63b8ff" d="M976.01,-253C941.29,-243.42 894.72,-230.13 854.05,-217 851.93,-216.32 849.76,-215.6 847.58,-214.86"/>
<polygon fill="#63b8ff" stroke="#63b8ff" points="848.65,-211.52 838.06,-211.54 846.35,-218.13 848.65,-211.52"/>
</a>
</g>
</g>
<!-- Node20&#45;&gt;Node4 -->
<g id="edge45_Node000020_Node000004" class="edge">
<title>Node20&#45;&gt;Node4</title>
<g id="a_edge45_Node000020_Node000004"><a xlink:title=" ">
<path fill="none" stroke="#63b8ff" d="M1089.39,-265.15C1125.7,-260.57 1169.3,-248.27 1194.05,-217 1220.54,-183.51 1211.65,-161.48 1198.05,-121 1186.32,-86.12 1179.53,-74.06 1148.05,-55 1109.36,-31.58 977.3,-18.11 915.47,-12.95"/>
<polygon fill="#63b8ff" stroke="#63b8ff" points="915.38,-9.43 905.13,-12.11 914.81,-16.41 915.38,-9.43"/>
</a>
</g>
</g>
<!-- Node20&#45;&gt;Node5 -->
<g id="edge47_Node000020_Node000005" class="edge">
<title>Node20&#45;&gt;Node5</title>
<g id="a_edge47_Node000020_Node000005"><a xlink:title=" ">
<path fill="none" stroke="#63b8ff" d="M966.94,-265.32C784.53,-260.03 251.96,-242.56 178.05,-217 129.46,-200.2 107.72,-196.1 83.05,-151 72.75,-132.18 73.78,-106.96 76.22,-89.91"/>
<polygon fill="#63b8ff" stroke="#63b8ff" points="79.75,-90.04 78.01,-79.59 72.85,-88.84 79.75,-90.04"/>
</a>
</g>
</g>
<!-- Node20&#45;&gt;Node7 -->
<g id="edge42_Node000020_Node000007" class="edge">
<title>Node20&#45;&gt;Node7</title>
<g id="a_edge42_Node000020_Node000007"><a xlink:title=" ">
<path fill="none" stroke="#63b8ff" d="M1089.12,-261.07C1118.8,-254.88 1152.24,-242.33 1172.05,-217 1198.38,-183.32 1197.86,-158.88 1178.05,-121 1169.4,-104.47 1152.53,-92.31 1137.29,-84.12"/>
<polygon fill="#63b8ff" stroke="#63b8ff" points="1138.61,-80.87 1128.1,-79.53 1135.49,-87.13 1138.61,-80.87"/>
</a>
</g>
</g>
<!-- Node20&#45;&gt;Node8 -->
<g id="edge44_Node000020_Node000008" class="edge">
<title>Node20&#45;&gt;Node8</title>
<g id="a_edge44_Node000020_Node000008"><a xlink:title=" ">
<path fill="none" stroke="#63b8ff" d="M1046.15,-252.88C1078.68,-225.8 1140.64,-165.33 1107.05,-121 1090.34,-98.95 1015.45,-83.93 968.29,-76.46"/>
<polygon fill="#63b8ff" stroke="#63b8ff" points="968.8,-73 958.39,-74.94 967.74,-79.92 968.8,-73"/>
</a>
</g>
</g>
<!-- Node20&#45;&gt;Node9 -->
<g id="edge46_Node000020_Node000009" class="edge">
<title>Node20&#45;&gt;Node9</title>
<g id="a_edge46_Node000020_Node000009"><a xlink:title=" ">
<path fill="none" stroke="#63b8ff" d="M966.9,-258.36C939.11,-251.48 907.87,-239.13 887.05,-217 853.39,-181.23 846.47,-120.25 845.2,-89.66"/>
<polygon fill="#63b8ff" stroke="#63b8ff" points="848.7,-89.45 844.95,-79.54 841.7,-89.63 848.7,-89.45"/>
</a>
</g>
</g>
<!-- Node21 -->
<g id="Node000021" class="node">
<title>Node21</title>
<g id="a_Node000021"><a xlink:title=" ">
<polygon fill="#e0e0e0" stroke="#999999" points="1098.05,-145.5 1052.05,-145.5 1052.05,-126.5 1098.05,-126.5 1098.05,-145.5"/>
<text text-anchor="middle" x="1075.05" y="-133.5" font-family="Helvetica,sans-Serif" font-size="10.00">future</text>
</a>
</g>
</g>
<!-- Node20&#45;&gt;Node21 -->
<g id="edge43_Node000020_Node000021" class="edge">
<title>Node20&#45;&gt;Node21</title>
<g id="a_edge43_Node000020_Node000021"><a xlink:title=" ">
<path fill="none" stroke="#63b8ff" d="M1040.73,-252.74C1048.44,-243.27 1057.78,-230.19 1063.05,-217 1071,-197.08 1073.73,-172.45 1074.65,-155.82"/>
<polygon fill="#63b8ff" stroke="#63b8ff" points="1078.15,-155.87 1075.03,-145.74 1071.15,-155.6 1078.15,-155.87"/>
</a>
</g>
</g>
<!-- Node22 -->
<g id="Node000022" class="node">
<title>Node22</title>
<g id="a_Node000022"><a xlink:href="serial__config_8hpp.html" target="_top" xlink:title=" ">
<polygon fill="white" stroke="#666666" points="1380.05,-151 1268.05,-151 1268.05,-121 1380.05,-121 1380.05,-151"/>
<text text-anchor="start" x="1276.05" y="-139" font-family="Helvetica,sans-Serif" font-size="10.00">unilink/config/serial</text>
<text text-anchor="middle" x="1324.05" y="-128" font-family="Helvetica,sans-Serif" font-size="10.00">_config.hpp</text>
</a>
</g>
</g>
<!-- Node20&#45;&gt;Node22 -->
<g id="edge48_Node000020_Node000022" class="edge">
<title>Node20&#45;&gt;Node22</title>
<g id="a_edge48_Node000020_Node000022"><a xlink:title=" ">
<path fill="none" stroke="#63b8ff" d="M1089.41,-263.8C1137.16,-258.96 1203.57,-246.9 1254.05,-217 1277.92,-202.85 1297.91,-177.72 1310.33,-159.39"/>
<polygon fill="#63b8ff" stroke="#63b8ff" points="1313.26,-161.3 1315.8,-151.01 1307.4,-157.47 1313.26,-161.3"/>
</a>
</g>
</g>
<!-- Node25 -->
<g id="Node000025" class="node">
<title>Node25</title>
<g id="a_Node000025"><a xlink:href="ichannel_8hpp.html" target="_top" xlink:title=" ">
<polygon fill="white" stroke="#666666" points="1054.05,-211.5 896.05,-211.5 896.05,-192.5 1054.05,-192.5 1054.05,-211.5"/>
<text text-anchor="middle" x="975.05" y="-199.5" font-family="Helvetica,sans-Serif" font-size="10.00">unilink/wrapper/ichannel.hpp</text>
</a>
</g>
</g>
<!-- Node20&#45;&gt;Node25 -->
<g id="edge53_Node000020_Node000025" class="edge">
<title>Node20&#45;&gt;Node25</title>
<g id="a_edge53_Node000020_Node000025"><a xlink:title=" ">
<path fill="none" stroke="#63b8ff" d="M1016.28,-252.8C1008.18,-243.01 997.39,-229.98 988.88,-219.7"/>
<polygon fill="#63b8ff" stroke="#63b8ff" points="991.44,-217.31 982.37,-211.84 986.05,-221.78 991.44,-217.31"/>
</a>
</g>
</g>
<!-- Node22&#45;&gt;Node4 -->
<g id="edge49_Node000022_Node000004" class="edge">
<title>Node22&#45;&gt;Node4</title>
<g id="a_edge49_Node000022_Node000004"><a xlink:title=" ">
<path fill="none" stroke="#63b8ff" d="M1316.23,-120.89C1305.08,-102.29 1282.77,-70.16 1254.05,-55 1195.55,-24.13 994.86,-14.2 915.61,-11.44"/>
<polygon fill="#63b8ff" stroke="#63b8ff" points="915.37,-7.93 905.26,-11.1 915.14,-14.93 915.37,-7.93"/>
</a>
</g>
</g>
<!-- Node23 -->
<g id="Node000023" class="node">
<title>Node23</title>
<g id="a_Node000023"><a xlink:href="constants_8hpp.html" target="_top" xlink:title=" ">
<polygon fill="white" stroke="#666666" points="1548.55,-79.5 1401.55,-79.5 1401.55,-60.5 1548.55,-60.5 1548.55,-79.5"/>
<text text-anchor="middle" x="1475.05" y="-67.5" font-family="Helvetica,sans-Serif" font-size="10.00">unilink/base/constants.hpp</text>
</a>
</g>
</g>
<!-- Node22&#45;&gt;Node23 -->
<g id="edge50_Node000022_Node000023" class="edge">
<title>Node22&#45;&gt;Node23</title>
<g id="a_edge50_Node000022_Node000023"><a xlink:title=" ">
<path fill="none" stroke="#63b8ff" d="M1357.18,-120.95C1383.55,-109.78 1420.1,-94.29 1445.48,-83.53"/>
<polygon fill="#63b8ff" stroke="#63b8ff" points="1447.11,-86.64 1454.95,-79.52 1444.38,-80.2 1447.11,-86.64"/>
</a>
</g>
</g>
<!-- Node23&#45;&gt;Node3 -->
<g id="edge52_Node000023_Node000003" class="edge">
<title>Node23&#45;&gt;Node3</title>
<g id="a_edge52_Node000023_Node000003"><a xlink:title=" ">
<path fill="none" stroke="#63b8ff" d="M1480.21,-60.37C1485.28,-51.9 1493.15,-38.74 1499.54,-28.07"/>
<polygon fill="#63b8ff" stroke="#63b8ff" points="1502.73,-29.55 1504.86,-19.17 1496.72,-25.95 1502.73,-29.55"/>
</a>
</g>
</g>
<!-- Node24 -->
<g id="Node000024" class="node">
<title>Node24</title>
<g id="a_Node000024"><a xlink:title=" ">
<polygon fill="#e0e0e0" stroke="#999999" points="1466.55,-19 1413.55,-19 1413.55,0 1466.55,0 1466.55,-19"/>
<text text-anchor="middle" x="1440.05" y="-7" font-family="Helvetica,sans-Serif" font-size="10.00">cstddef</text>
</a>
</g>
</g>
<!-- Node23&#45;&gt;Node24 -->
<g id="edge51_Node000023_Node000024" class="edge">
<title>Node23&#45;&gt;Node24</title>
<g id="a_edge51_Node000023_Node000024"><a xlink:title=" ">
<path fill="none" stroke="#63b8ff" d="M1469.88,-60.37C1464.82,-51.9 1456.94,-38.74 1450.56,-28.07"/>
<polygon fill="#63b8ff" stroke="#63b8ff" points="1453.37,-25.95 1445.23,-19.17 1447.36,-29.55 1453.37,-25.95"/>
</a>
</g>
</g>
<!-- Node25&#45;&gt;Node4 -->
<g id="edge57_Node000025_Node000004" class="edge">
<title>Node25&#45;&gt;Node4</title>
<g id="a_edge57_Node000025_Node000004"><a xlink:title=" ">
<path fill="none" stroke="#63b8ff" d="M977.31,-192.22C983,-168.06 995.5,-99.48 967.05,-55 955.28,-36.62 933.26,-25.35 914.72,-18.76"/>
<polygon fill="#63b8ff" stroke="#63b8ff" points="915.73,-15.4 905.13,-15.64 913.56,-22.06 915.73,-15.4"/>
</a>
</g>
</g>
<!-- Node25&#45;&gt;Node5 -->
<g id="edge59_Node000025_Node000005" class="edge">
<title>Node25&#45;&gt;Node5</title>
<g id="a_edge59_Node000025_Node000005"><a xlink:title=" ">
<path fill="none" stroke="#63b8ff" d="M903.14,-192.49C885.46,-190.54 866.58,-188.58 849.05,-187 617.87,-166.18 555.95,-194.95 328.05,-151 247.34,-135.44 156.29,-101.67 110.22,-83.38"/>
<polygon fill="#63b8ff" stroke="#63b8ff" points="111.41,-80.09 100.82,-79.62 108.8,-86.58 111.41,-80.09"/>
</a>
</g>
</g>
<!-- Node25&#45;&gt;Node7 -->
<g id="edge54_Node000025_Node000007" class="edge">
<title>Node25&#45;&gt;Node7</title>
<g id="a_edge54_Node000025_Node000007"><a xlink:title=" ">
<path fill="none" stroke="#63b8ff" d="M981.68,-192.11C993.28,-176.8 1018.41,-144.82 1043.05,-121 1056.42,-108.07 1072.94,-95.05 1085.71,-85.54"/>
<polygon fill="#63b8ff" stroke="#63b8ff" points="1087.87,-88.3 1093.86,-79.56 1083.73,-82.65 1087.87,-88.3"/>
</a>
</g>
</g>
<!-- Node25&#45;&gt;Node8 -->
<g id="edge56_Node000025_Node000008" class="edge">
<title>Node25&#45;&gt;Node8</title>
<g id="a_edge56_Node000025_Node000008"><a xlink:title=" ">
<path fill="none" stroke="#63b8ff" d="M972.03,-192.47C964.65,-171.63 945.6,-117.77 935.52,-89.28"/>
<polygon fill="#63b8ff" stroke="#63b8ff" points="938.77,-87.99 932.14,-79.73 932.17,-90.33 938.77,-87.99"/>
</a>
</g>
</g>
<!-- Node25&#45;&gt;Node9 -->
<g id="edge58_Node000025_Node000009" class="edge">
<title>Node25&#45;&gt;Node9</title>
<g id="a_edge58_Node000025_Node000009"><a xlink:title=" ">
<path fill="none" stroke="#63b8ff" d="M966.52,-192.47C945.13,-171.08 888.95,-114.9 861.13,-87.08"/>
<polygon fill="#63b8ff" stroke="#63b8ff" points="863.32,-84.33 853.78,-79.73 858.37,-89.28 863.32,-84.33"/>
</a>
</g>
</g>
<!-- Node25&#45;&gt;Node11 -->
<g id="edge60_Node000025_Node000011" class="edge">
<title>Node25&#45;&gt;Node11</title>
<g id="a_edge60_Node000025_Node000011"><a xlink:title=" ">
<path fill="none" stroke="#63b8ff" d="M899.59,-192.47C793.65,-180.49 601.51,-158.76 491.77,-146.35"/>
<polygon fill="#63b8ff" stroke="#63b8ff" points="492.07,-142.87 481.74,-145.22 491.28,-149.82 492.07,-142.87"/>
</a>
</g>
</g>
<!-- Node25&#45;&gt;Node17 -->
<g id="edge61_Node000025_Node000017" class="edge">
<title>Node25&#45;&gt;Node17</title>
<g id="a_edge61_Node000025_Node000017"><a xlink:title=" ">
<path fill="none" stroke="#63b8ff" d="M931.95,-192.44C873.51,-180.82 769.19,-160.09 706.03,-147.53"/>
<polygon fill="#63b8ff" stroke="#63b8ff" points="706.37,-144.03 695.88,-145.51 705.01,-150.9 706.37,-144.03"/>
</a>
</g>
</g>
<!-- Node25&#45;&gt;Node21 -->
<g id="edge55_Node000025_Node000021" class="edge">
<title>Node25&#45;&gt;Node21</title>
<g id="a_edge55_Node000025_Node000021"><a xlink:title=" ">
<path fill="none" stroke="#63b8ff" d="M988.53,-192.37C1005.01,-181.82 1033.12,-163.84 1052.81,-151.23"/>
<polygon fill="#63b8ff" stroke="#63b8ff" points="1054.92,-154.04 1061.45,-145.7 1051.14,-148.14 1054.92,-154.04"/>
</a>
</g>
</g>
</g>
</svg>

<g id="navigator" transform="translate(0 0)" fill="#404254">
  <rect fill="#f2f5e9" fill-opacity="0.5" stroke="#606060" stroke-width=".5" x="0" y="0" width="60" height="60"/>
  <use id="zoomplus" xlink:href="#zoomPlus" x="17" y="9" onmousedown="handleZoom(evt,'in')"/>
  <use id="zoomminus" xlink:href="#zoomMin" x="42" y="9" onmousedown="handleZoom(evt,'out')"/>
  <use id="reset" xlink:href="#resetDef" x="30" y="36" onmousedown="handleReset()"/>
   <use id="arrowup" xlink:href="#arrowUp" x="0" y="0" onmousedown="handlePan(0,-1)"/>
  <use id="arrowright" xlink:href="#arrowRight" x="0" y="0" onmousedown="handlePan(1,0)"/>
  <use id="arrowdown" xlink:href="#arrowDown" x="0" y="0" onmousedown="handlePan(0,1)"/>
  <use id="arrowleft" xlink:href="#arrowLeft" x="0" y="0" onmousedown="handlePan(-1,0)"/>
</g>
<svg viewBox="0 0 15 15" width="100%" height="30px" preserveAspectRatio="xMaxYMin meet">
 <g id="arrow_out" transform="scale(0.3 0.3)">
  <a xlink:href="serial__builder_8hpp__incl_org.svg" target="_base">
   <rect id="button" ry="5" rx="5" y="6" x="6" height="38" width="38"
        fill="#f2f5e9" fill-opacity="0.5" stroke="#606060" stroke-width="1.0"/>
   <path id="arrow"
     d="M 11.500037,31.436501 C 11.940474,20.09759 22.043105,11.32322 32.158766,21.979434 L 37.068811,17.246167 C 37.068811,17.246167 37.088388,32 37.088388,32 L 22.160133,31.978069 C 22.160133,31.978069 26.997745,27.140456 26.997745,27.140456 C 18.528582,18.264221 13.291696,25.230495 11.500037,31.436501 z"
     style="fill:#404040;"/>
  </a>
 </g>
</svg>

<style type='text/css'>
<![CDATA[
[data-mouse-over-selected='false'] { opacity: 0.7; }
[data-mouse-over-selected='true']  { opacity: 1.0; }
]]>
</style>
<script type="application/ecmascript"><![CDATA[
document.addEventListener('DOMContentLoaded', (event) => {
  highlightEdges();
  highlightAdjacentNodes();
});
]]></script>
</svg>
