<?xml version="1.0" encoding="UTF-8" standalone="no"?>
<!DOCTYPE svg PUBLIC "-//W3C//DTD SVG 1.1//EN"
 "http://www.w3.org/Graphics/SVG/1.1/DTD/svg11.dtd">
<!-- Generated by graphviz version 2.43.0 (0)
 -->
<!-- Title: unilink::wrapper::TcpClient::Impl::setup_internal_handlers Pages: 1 -->
<!--zoomable 186 -->
<svg id="main" version="1.1" xmlns="http://www.w3.org/2000/svg" xmlns:xlink="http://www.w3.org/1999/xlink" xml:space="preserve" onload="init(evt)">
<style type="text/css"><![CDATA[
.edge:hover path { stroke: red; }
.edge:hover polygon { stroke: red; fill: red; }
]]></style>
<script type="text/javascript"><![CDATA[
var edges = document.getElementsByTagName('g');
if (edges && edges.length) {
  for (var i=0;i<edges.length;i++) {
    if (edges[i].id.substr(0,4)=='edge') {
      edges[i].setAttribute('class','edge');
    }
  }
}
]]></script>
        <defs>
                <circle id="rim" cx="0" cy="0" r="7"/>
                <circle id="rim2" cx="0" cy="0" r="3.5"/>
                <g id="zoomPlus">
                        <use xlink:href="#rim" fill="#404040">
                                <set attributeName="fill" to="#808080" begin="zoomplus.mouseover" end="zoomplus.mouseout"/>
                        </use>
                        <path d="M-4,0h8M0,-4v8" fill="none" stroke="white" stroke-width="1.5" pointer-events="none"/>
                </g>
                <g id="zoomMin">
                        <use xlink:href="#rim" fill="#404040">
                                <set attributeName="fill" to="#808080" begin="zoomminus.mouseover" end="zoomminus.mouseout"/>
                        </use>
                        <path d="M-4,0h8" fill="none" stroke="white" stroke-width="1.5" pointer-events="none"/>
                </g>
                <g id="dirArrow">
                        <path fill="none" stroke="white" stroke-width="1.5" d="M0,-3.0v7 M-2.5,-0.5L0,-3.0L2.5,-0.5"/>
                </g>
               <g id="resetDef">
                       <use xlink:href="#rim2" fill="#404040">
                               <set attributeName="fill" to="#808080" begin="reset.mouseover" end="reset.mouseout"/>
                       </use>
               </g>
        </defs>

<script type="text/javascript">
var viewWidth = 523;
var viewHeight = 186;
var sectionId = 'dynsection-6';
</script>
<script xlink:href="svgpan.js"/>
<svg id="graph" class="graph">
<g id="viewport">
<title>unilink::wrapper::TcpClient::Impl::setup_internal_handlers</title>
<polygon fill="white" stroke="transparent" points="-4,4 -4,-182 519,-182 519,4 -4,4"/>
<!-- Node1 -->
<g id="node1" class="node">
<title>Node1</title>
<g id="a_node1"><a xlink:title=" ">
<polygon fill="#bfbfbf" stroke="black" points="0,-73.5 0,-103.5 167,-103.5 167,-73.5 0,-73.5"/>
<text text-anchor="start" x="8" y="-91.5" font-family="Helvetica,sans-Serif" font-size="10.00">unilink::wrapper::TcpClient</text>
<text text-anchor="middle" x="83.5" y="-80.5" font-family="Helvetica,sans-Serif" font-size="10.00">::Impl::setup_internal_handlers</text>
</a>
</g>
</g>
<!-- Node2 -->
<g id="node2" class="node">
<title>Node2</title>
<g id="a_node2"><a xlink:href="classunilink_1_1memory_1_1SafeSpan.html#a203851d86025e579f73f04da0828e2bd" target="_top" xlink:title=" ">
<polygon fill="white" stroke="black" points="203,-147.5 203,-177.5 351,-177.5 351,-147.5 203,-147.5"/>
<text text-anchor="start" x="211" y="-165.5" font-family="Helvetica,sans-Serif" font-size="10.00">unilink::memory::SafeSpan</text>
<text text-anchor="middle" x="277" y="-154.5" font-family="Helvetica,sans-Serif" font-size="10.00">::data</text>
</a>
</g>
</g>
<!-- Node1&#45;&gt;Node2 -->
<g id="edge1" class="edge">
<title>Node1&#45;&gt;Node2</title>
<path fill="none" stroke="midnightblue" d="M118.17,-103.57C141.73,-113.91 174.04,-127.65 203,-138.5 208.08,-140.4 213.38,-142.3 218.71,-144.16"/>
<polygon fill="midnightblue" stroke="midnightblue" points="217.7,-147.51 228.29,-147.44 219.96,-140.89 217.7,-147.51"/>
</g>
<!-- Node3 -->
<g id="node3" class="node">
<title>Node3</title>
<g id="a_node3"><a xlink:href="classunilink_1_1memory_1_1SafeSpan.html#a0e63f52083142fa895b98ea38f51dc73" target="_top" xlink:title=" ">
<polygon fill="white" stroke="black" points="203,-98.5 203,-128.5 351,-128.5 351,-98.5 203,-98.5"/>
<text text-anchor="start" x="211" y="-116.5" font-family="Helvetica,sans-Serif" font-size="10.00">unilink::memory::SafeSpan</text>
<text text-anchor="middle" x="277" y="-105.5" font-family="Helvetica,sans-Serif" font-size="10.00">::size</text>
</a>
</g>
</g>
<!-- Node1&#45;&gt;Node3 -->
<g id="edge2" class="edge">
<title>Node1&#45;&gt;Node3</title>
<path fill="none" stroke="midnightblue" d="M167.1,-99.28C175.62,-100.39 184.27,-101.52 192.79,-102.64"/>
<polygon fill="midnightblue" stroke="midnightblue" points="192.34,-106.11 202.71,-103.93 193.25,-99.17 192.34,-106.11"/>
</g>
<!-- Node4 -->
<g id="node4" class="node">
<title>Node4</title>
<g id="a_node4"><a xlink:href="namespaceunilink_1_1diagnostics.html#a54b6b94a2a2b770022045845ec4eaada" target="_top" xlink:title="Converts ErrorInfo to wrapper::ErrorContext.">
<polygon fill="white" stroke="black" points="221.5,-49.5 221.5,-79.5 332.5,-79.5 332.5,-49.5 221.5,-49.5"/>
<text text-anchor="start" x="229.5" y="-67.5" font-family="Helvetica,sans-Serif" font-size="10.00">unilink::diagnostics</text>
<text text-anchor="middle" x="277" y="-56.5" font-family="Helvetica,sans-Serif" font-size="10.00">::to_error_context</text>
</a>
</g>
</g>
<!-- Node1&#45;&gt;Node4 -->
<g id="edge3" class="edge">
<title>Node1&#45;&gt;Node4</title>
<path fill="none" stroke="midnightblue" d="M167.1,-78.15C181.85,-76.3 197.01,-74.4 211.17,-72.62"/>
<polygon fill="midnightblue" stroke="midnightblue" points="211.79,-76.07 221.28,-71.36 210.92,-69.13 211.79,-76.07"/>
</g>
<!-- Node6 -->
<g id="node6" class="node">
<title>Node6</title>
<g id="a_node6"><a xlink:href="namespaceunilink_1_1base_1_1safe__convert.html#a3c41d9c6266428458c97891710ac2f0d" target="_top" xlink:title="Safely convert uint8_t* to const char* for string operations.">
<polygon fill="white" stroke="black" points="208.5,-0.5 208.5,-30.5 345.5,-30.5 345.5,-0.5 208.5,-0.5"/>
<text text-anchor="start" x="216.5" y="-18.5" font-family="Helvetica,sans-Serif" font-size="10.00">unilink::base::safe</text>
<text text-anchor="middle" x="277" y="-7.5" font-family="Helvetica,sans-Serif" font-size="10.00">_convert::uint8_to_string</text>
</a>
</g>
</g>
<!-- Node1&#45;&gt;Node6 -->
<g id="edge5" class="edge">
<title>Node1&#45;&gt;Node6</title>
<path fill="none" stroke="midnightblue" d="M120.08,-73.49C143.51,-63.76 174.93,-50.98 203,-40.5 208.85,-38.32 214.98,-36.1 221.11,-33.93"/>
<polygon fill="midnightblue" stroke="midnightblue" points="222.41,-37.19 230.69,-30.58 220.1,-30.58 222.41,-37.19"/>
</g>
<!-- Node5 -->
<g id="node5" class="node">
<title>Node5</title>
<g id="a_node5"><a xlink:href="namespaceunilink_1_1diagnostics.html#aee016aa3a0ee29635787a9755eb352f1" target="_top" xlink:title="Maps boost::system::error_code to Unilink ErrorCode.">
<polygon fill="white" stroke="black" points="387,-49.5 387,-79.5 515,-79.5 515,-49.5 387,-49.5"/>
<text text-anchor="start" x="395" y="-67.5" font-family="Helvetica,sans-Serif" font-size="10.00">unilink::diagnostics</text>
<text text-anchor="middle" x="451" y="-56.5" font-family="Helvetica,sans-Serif" font-size="10.00">::to_unilink_error_code</text>
</a>
</g>
</g>
<!-- Node4&#45;&gt;Node5 -->
<g id="edge4" class="edge">
<title>Node4&#45;&gt;Node5</title>
<path fill="none" stroke="midnightblue" d="M332.89,-64.5C346.87,-64.5 362.12,-64.5 376.85,-64.5"/>
<polygon fill="midnightblue" stroke="midnightblue" points="376.95,-68 386.95,-64.5 376.95,-61 376.95,-68"/>
</g>
</g>
</svg>
        <g id="navigator" transform="translate(0 0)" fill="#404254">
                <rect fill="#f2f5e9" fill-opacity="0.5" stroke="#606060" stroke-width=".5" x="0" y="0" width="60" height="60"/>
                <use id="zoomplus" xlink:href="#zoomPlus" x="17" y="9" onmousedown="handleZoom(evt,'in')"/>
                <use id="zoomminus" xlink:href="#zoomMin" x="42" y="9" onmousedown="handleZoom(evt,'out')"/>
                <use id="reset" xlink:href="#resetDef" x="30" y="36" onmousedown="handleReset()"/>
                <g id="arrowUp" xlink:href="#dirArrow" transform="translate(30 24)" onmousedown="handlePan(0,-1)">
                  <use xlink:href="#rim" fill="#404040">
                        <set attributeName="fill" to="#808080" begin="arrowUp.mouseover" end="arrowUp.mouseout"/>
                  </use>
                  <path fill="none" stroke="white" stroke-width="1.5" d="M0,-3.0v7 M-2.5,-0.5L0,-3.0L2.5,-0.5"/>
                </g>
                <g id="arrowRight" xlink:href="#dirArrow" transform="rotate(90) translate(36 -43)" onmousedown="handlePan(1,0)">
                  <use xlink:href="#rim" fill="#404040">
                        <set attributeName="fill" to="#808080" begin="arrowRight.mouseover" end="arrowRight.mouseout"/>
                  </use>
                  <path fill="none" stroke="white" stroke-width="1.5" d="M0,-3.0v7 M-2.5,-0.5L0,-3.0L2.5,-0.5"/>
                </g>
                <g id="arrowDown" xlink:href="#dirArrow" transform="rotate(180) translate(-30 -48)" onmousedown="handlePan(0,1)">
                  <use xlink:href="#rim" fill="#404040">
                        <set attributeName="fill" to="#808080" begin="arrowDown.mouseover" end="arrowDown.mouseout"/>
                  </use>
                  <path fill="none" stroke="white" stroke-width="1.5" d="M0,-3.0v7 M-2.5,-0.5L0,-3.0L2.5,-0.5"/>
                </g>
                <g id="arrowLeft" xlink:href="#dirArrow" transform="rotate(270) translate(-36 17)" onmousedown="handlePan(-1,0)">
                  <use xlink:href="#rim" fill="#404040">
                        <set attributeName="fill" to="#808080" begin="arrowLeft.mouseover" end="arrowLeft.mouseout"/>
                  </use>
                  <path fill="none" stroke="white" stroke-width="1.5" d="M0,-3.0v7 M-2.5,-0.5L0,-3.0L2.5,-0.5"/>
                </g>
        </g>
        <svg viewBox="0 0 15 15" width="100%" height="30px" preserveAspectRatio="xMaxYMin meet">
         <g id="arrow_out" transform="scale(0.3 0.3)">
          <a xlink:href="structunilink_1_1wrapper_1_1TcpClient_1_1Impl_a71ca6976f08b07bfb8fdc6c17d84aae5_cgraph_org.svg" target="_base">
           <rect id="button" ry="5" rx="5" y="6" x="6" height="38" width="38"
                fill="#f2f5e9" fill-opacity="0.5" stroke="#606060" stroke-width="1.0"/>
           <path id="arrow"
             d="M 11.500037,31.436501 C 11.940474,20.09759 22.043105,11.32322 32.158766,21.979434 L 37.068811,17.246167 C 37.068811,17.246167 37.088388,32 37.088388,32 L 22.160133,31.978069 C 22.160133,31.978069 26.997745,27.140456 26.997745,27.140456 C 18.528582,18.264221 13.291696,25.230495 11.500037,31.436501 z"
             style="fill:#404040;"/>
          </a>
         </g>
        </svg>
</svg>
