<?xml version="1.0" encoding="UTF-8" standalone="no"?>
<!DOCTYPE svg PUBLIC "-//W3C//DTD SVG 1.1//EN"
 "http://www.w3.org/Graphics/SVG/1.1/DTD/svg11.dtd">
<!-- Generated by graphviz version 2.43.0 (0)
 -->
<!-- Title: unilink::wrapper::UdsServer::Impl::setup_internal_handlers Pages: 1 -->
<svg width="363pt" height="88pt"
 viewBox="0.00 0.00 363.00 88.00" xmlns="http://www.w3.org/2000/svg" xmlns:xlink="http://www.w3.org/1999/xlink">
<g id="graph0" class="graph" transform="scale(1 1) rotate(0) translate(4 84)">
<title>unilink::wrapper::UdsServer::Impl::setup_internal_handlers</title>
<polygon fill="white" stroke="transparent" points="-4,4 -4,-84 359,-84 359,4 -4,4"/>
<!-- Node1 -->
<g id="node1" class="node">
<title>Node1</title>
<g id="a_node1"><a xlink:title=" ">
<polygon fill="#bfbfbf" stroke="black" points="188,-24.5 188,-54.5 355,-54.5 355,-24.5 188,-24.5"/>
<text text-anchor="start" x="196" y="-42.5" font-family="Helvetica,sans-Serif" font-size="10.00">unilink::wrapper::UdsServer</text>
<text text-anchor="middle" x="271.5" y="-31.5" font-family="Helvetica,sans-Serif" font-size="10.00">::Impl::setup_internal_handlers</text>
</a>
</g>
</g>
<!-- Node2 -->
<g id="node2" class="node">
<title>Node2</title>
<g id="a_node2"><a xlink:href="structunilink_1_1wrapper_1_1UdsServer_1_1Impl.html#a82fa898e3d4786c76704919dea8dae46" target="_top" xlink:title=" ">
<polygon fill="white" stroke="black" points="0,-49.5 0,-79.5 152,-79.5 152,-49.5 0,-49.5"/>
<text text-anchor="start" x="8" y="-67.5" font-family="Helvetica,sans-Serif" font-size="10.00">unilink::wrapper::UdsServer</text>
<text text-anchor="middle" x="76" y="-56.5" font-family="Helvetica,sans-Serif" font-size="10.00">::Impl::Impl</text>
</a>
</g>
</g>
<!-- Node1&#45;&gt;Node2 -->
<g id="edge1" class="edge">
<title>Node1&#45;&gt;Node2</title>
<path fill="none" stroke="midnightblue" d="M177.86,-51.47C169.29,-52.58 160.68,-53.69 152.3,-54.77"/>
<polygon fill="midnightblue" stroke="midnightblue" points="178.41,-54.93 187.88,-50.17 177.51,-47.99 178.41,-54.93"/>
</g>
<!-- Node3 -->
<g id="node3" class="node">
<title>Node3</title>
<g id="a_node3"><a xlink:href="structunilink_1_1wrapper_1_1UdsServer_1_1Impl.html#a2883eed89960c9412febc1635c3bfa4d" target="_top" xlink:title=" ">
<polygon fill="white" stroke="black" points="0,-0.5 0,-30.5 152,-30.5 152,-0.5 0,-0.5"/>
<text text-anchor="start" x="8" y="-18.5" font-family="Helvetica,sans-Serif" font-size="10.00">unilink::wrapper::UdsServer</text>
<text text-anchor="middle" x="76" y="-7.5" font-family="Helvetica,sans-Serif" font-size="10.00">::Impl::start</text>
</a>
</g>
</g>
<!-- Node1&#45;&gt;Node3 -->
<g id="edge2" class="edge">
<title>Node1&#45;&gt;Node3</title>
<path fill="none" stroke="midnightblue" d="M177.86,-28.01C169.29,-26.95 160.68,-25.88 152.3,-24.84"/>
<polygon fill="midnightblue" stroke="midnightblue" points="177.52,-31.49 187.88,-29.25 178.38,-24.55 177.52,-31.49"/>
</g>
</g>
</svg>
