<?xml version="1.0" encoding="UTF-8" standalone="no"?>
<!DOCTYPE svg PUBLIC "-//W3C//DTD SVG 1.1//EN"
 "http://www.w3.org/Graphics/SVG/1.1/DTD/svg11.dtd">
<!-- Generated by graphviz version 2.43.0 (0)
 -->
<!-- Title: unilink::wrapper::UdpClient::Impl::start Pages: 1 -->
<svg width="545pt" height="186pt"
 viewBox="0.00 0.00 545.00 186.00" xmlns="http://www.w3.org/2000/svg" xmlns:xlink="http://www.w3.org/1999/xlink">
<g id="graph0" class="graph" transform="scale(1 1) rotate(0) translate(4 182)">
<title>unilink::wrapper::UdpClient::Impl::start</title>
<polygon fill="white" stroke="transparent" points="-4,4 -4,-182 541,-182 541,4 -4,4"/>
<!-- Node1 -->
<g id="node1" class="node">
<title>Node1</title>
<g id="a_node1"><a xlink:title=" ">
<polygon fill="#bfbfbf" stroke="black" points="0,-97.5 0,-127.5 149,-127.5 149,-97.5 0,-97.5"/>
<text text-anchor="start" x="8" y="-115.5" font-family="Helvetica,sans-Serif" font-size="10.00">unilink::wrapper::UdpClient</text>
<text text-anchor="middle" x="74.5" y="-104.5" font-family="Helvetica,sans-Serif" font-size="10.00">::Impl::start</text>
</a>
</g>
</g>
<!-- Node2 -->
<g id="node2" class="node">
<title>Node2</title>
<g id="a_node2"><a xlink:href="classunilink_1_1factory_1_1ChannelFactory.html#ab3a1a57092352b627809138adadb34a6" target="_top" xlink:title=" ">
<polygon fill="white" stroke="black" points="201,-122.5 201,-152.5 336,-152.5 336,-122.5 201,-122.5"/>
<text text-anchor="start" x="209" y="-140.5" font-family="Helvetica,sans-Serif" font-size="10.00">unilink::factory::Channel</text>
<text text-anchor="middle" x="268.5" y="-129.5" font-family="Helvetica,sans-Serif" font-size="10.00">Factory::create</text>
</a>
</g>
</g>
<!-- Node1&#45;&gt;Node2 -->
<g id="edge1" class="edge">
<title>Node1&#45;&gt;Node2</title>
<path fill="none" stroke="midnightblue" d="M149.18,-122.09C162.88,-123.88 177.23,-125.75 191.01,-127.54"/>
<polygon fill="midnightblue" stroke="midnightblue" points="190.56,-131.01 200.93,-128.83 191.46,-124.07 190.56,-131.01"/>
</g>
<!-- Node3 -->
<g id="node3" class="node">
<title>Node3</title>
<g id="a_node3"><a xlink:href="structunilink_1_1wrapper_1_1UdpClient_1_1Impl.html#aa1a0c025a484dbf87dc9c0c69342870b" target="_top" xlink:title=" ">
<polygon fill="white" stroke="black" points="185,-73.5 185,-103.5 352,-103.5 352,-73.5 185,-73.5"/>
<text text-anchor="start" x="193" y="-91.5" font-family="Helvetica,sans-Serif" font-size="10.00">unilink::wrapper::UdpClient</text>
<text text-anchor="middle" x="268.5" y="-80.5" font-family="Helvetica,sans-Serif" font-size="10.00">::Impl::setup_internal_handlers</text>
</a>
</g>
</g>
<!-- Node1&#45;&gt;Node3 -->
<g id="edge2" class="edge">
<title>Node1&#45;&gt;Node3</title>
<path fill="none" stroke="midnightblue" d="M149.18,-103.29C157.54,-102.24 166.14,-101.17 174.71,-100.1"/>
<polygon fill="midnightblue" stroke="midnightblue" points="175.25,-103.56 184.73,-98.85 174.38,-96.61 175.25,-103.56"/>
</g>
<!-- Node4 -->
<g id="node4" class="node">
<title>Node4</title>
<g id="a_node4"><a xlink:href="classunilink_1_1memory_1_1SafeSpan.html#a203851d86025e579f73f04da0828e2bd" target="_top" xlink:title=" ">
<polygon fill="white" stroke="black" points="388.5,-147.5 388.5,-177.5 536.5,-177.5 536.5,-147.5 388.5,-147.5"/>
<text text-anchor="start" x="396.5" y="-165.5" font-family="Helvetica,sans-Serif" font-size="10.00">unilink::memory::SafeSpan</text>
<text text-anchor="middle" x="462.5" y="-154.5" font-family="Helvetica,sans-Serif" font-size="10.00">::data</text>
</a>
</g>
</g>
<!-- Node3&#45;&gt;Node4 -->
<g id="edge3" class="edge">
<title>Node3&#45;&gt;Node4</title>
<path fill="none" stroke="midnightblue" d="M327.63,-103.6C335.97,-106.48 344.32,-109.78 352,-113.5 369.54,-121.98 370.56,-129.83 388,-138.5 391.72,-140.35 395.61,-142.1 399.58,-143.75"/>
<polygon fill="midnightblue" stroke="midnightblue" points="398.36,-147.03 408.95,-147.42 400.92,-140.52 398.36,-147.03"/>
</g>
<!-- Node5 -->
<g id="node5" class="node">
<title>Node5</title>
<g id="a_node5"><a xlink:href="structunilink_1_1wrapper_1_1UdpClient_1_1Impl.html#a49aac01b289fa881be0b80acc30b0023" target="_top" xlink:title=" ">
<polygon fill="white" stroke="black" points="388,-98.5 388,-128.5 537,-128.5 537,-98.5 388,-98.5"/>
<text text-anchor="start" x="396" y="-116.5" font-family="Helvetica,sans-Serif" font-size="10.00">unilink::wrapper::UdpClient</text>
<text text-anchor="middle" x="462.5" y="-105.5" font-family="Helvetica,sans-Serif" font-size="10.00">::Impl::fulfill_all_locked</text>
</a>
</g>
</g>
<!-- Node3&#45;&gt;Node5 -->
<g id="edge4" class="edge">
<title>Node3&#45;&gt;Node5</title>
<path fill="none" stroke="midnightblue" d="M352.04,-99.25C360.59,-100.36 369.28,-101.49 377.84,-102.61"/>
<polygon fill="midnightblue" stroke="midnightblue" points="377.44,-106.08 387.81,-103.9 378.34,-99.14 377.44,-106.08"/>
</g>
<!-- Node6 -->
<g id="node6" class="node">
<title>Node6</title>
<g id="a_node6"><a xlink:href="classunilink_1_1memory_1_1SafeSpan.html#a0e63f52083142fa895b98ea38f51dc73" target="_top" xlink:title=" ">
<polygon fill="white" stroke="black" points="388.5,-49.5 388.5,-79.5 536.5,-79.5 536.5,-49.5 388.5,-49.5"/>
<text text-anchor="start" x="396.5" y="-67.5" font-family="Helvetica,sans-Serif" font-size="10.00">unilink::memory::SafeSpan</text>
<text text-anchor="middle" x="462.5" y="-56.5" font-family="Helvetica,sans-Serif" font-size="10.00">::size</text>
</a>
</g>
</g>
<!-- Node3&#45;&gt;Node6 -->
<g id="edge5" class="edge">
<title>Node3&#45;&gt;Node6</title>
<path fill="none" stroke="midnightblue" d="M352.04,-78.18C360.73,-77.1 369.58,-75.99 378.28,-74.9"/>
<polygon fill="midnightblue" stroke="midnightblue" points="378.92,-78.35 388.41,-73.64 378.05,-71.4 378.92,-78.35"/>
</g>
<!-- Node7 -->
<g id="node7" class="node">
<title>Node7</title>
<g id="a_node7"><a xlink:href="namespaceunilink_1_1base_1_1safe__convert.html#a3c41d9c6266428458c97891710ac2f0d" target="_top" xlink:title="Safely convert uint8_t* to const char* for string operations.">
<polygon fill="white" stroke="black" points="394,-0.5 394,-30.5 531,-30.5 531,-0.5 394,-0.5"/>
<text text-anchor="start" x="402" y="-18.5" font-family="Helvetica,sans-Serif" font-size="10.00">unilink::base::safe</text>
<text text-anchor="middle" x="462.5" y="-7.5" font-family="Helvetica,sans-Serif" font-size="10.00">_convert::uint8_to_string</text>
</a>
</g>
</g>
<!-- Node3&#45;&gt;Node7 -->
<g id="edge6" class="edge">
<title>Node3&#45;&gt;Node7</title>
<path fill="none" stroke="midnightblue" d="M305.07,-73.47C328.5,-63.73 359.92,-50.95 388,-40.5 393.89,-38.31 400.06,-36.09 406.23,-33.92"/>
<polygon fill="midnightblue" stroke="midnightblue" points="407.58,-37.16 415.88,-30.57 405.28,-30.54 407.58,-37.16"/>
</g>
</g>
</svg>
