<?xml version="1.0" encoding="UTF-8" standalone="no"?>
<!DOCTYPE svg PUBLIC "-//W3C//DTD SVG 1.1//EN"
 "http://www.w3.org/Graphics/SVG/1.1/DTD/svg11.dtd">
<!-- Generated by graphviz version 2.43.0 (0)
 -->
<!-- Title: unilink::diagnostics::Logger::Impl::teardown_async_logging Pages: 1 -->
<svg width="492pt" height="49pt"
 viewBox="0.00 0.00 492.00 49.00" xmlns="http://www.w3.org/2000/svg" xmlns:xlink="http://www.w3.org/1999/xlink">
<g id="graph0" class="graph" transform="scale(1 1) rotate(0) translate(4 45)">
<title>unilink::diagnostics::Logger::Impl::teardown_async_logging</title>
<!-- Node1 -->
<g id="Node000001" class="node">
<title>Node1</title>
<g id="a_Node000001"><a xlink:title=" ">
<polygon fill="#999999" stroke="#666666" points="135,-41 0,-41 0,0 135,0 135,-41"/>
<text text-anchor="start" x="8" y="-29" font-family="Helvetica,sans-Serif" font-size="10.00">unilink::diagnostics</text>
<text text-anchor="start" x="8" y="-18" font-family="Helvetica,sans-Serif" font-size="10.00">::Logger::Impl::teardown</text>
<text text-anchor="middle" x="67.5" y="-7" font-family="Helvetica,sans-Serif" font-size="10.00">_async_logging</text>
</a>
</g>
</g>
<!-- Node2 -->
<g id="Node000002" class="node">
<title>Node2</title>
<g id="a_Node000002"><a xlink:href="structunilink_1_1diagnostics_1_1Logger_1_1Impl.html#a9be6d32b91caf51b6ed1e6c7ccaec4b8" target="_top" xlink:title=" ">
<polygon fill="white" stroke="#666666" points="337,-35.5 171,-35.5 171,-5.5 337,-5.5 337,-35.5"/>
<text text-anchor="start" x="179" y="-23.5" font-family="Helvetica,sans-Serif" font-size="10.00">unilink::diagnostics</text>
<text text-anchor="middle" x="254" y="-12.5" font-family="Helvetica,sans-Serif" font-size="10.00">::Logger::Impl::to_spdlog_level</text>
</a>
</g>
</g>
<!-- Node1&#45;&gt;Node2 -->
<g id="edge1_Node000001_Node000002" class="edge">
<title>Node1&#45;&gt;Node2</title>
<g id="a_edge1_Node000001_Node000002"><a xlink:title=" ">
<path fill="none" stroke="#63b8ff" d="M135.11,-20.5C143.42,-20.5 152.03,-20.5 160.64,-20.5"/>
<polygon fill="#63b8ff" stroke="#63b8ff" points="160.73,-24 170.73,-20.5 160.73,-17 160.73,-24"/>
</a>
</g>
</g>
<!-- Node3 -->
<g id="Node000003" class="node">
<title>Node3</title>
<g id="a_Node000003"><a xlink:href="classunilink_1_1diagnostics_1_1Logger.html#a4a88b05c250af04b01f2a3d94473d0e3" target="_top" xlink:title="Get current log level.">
<polygon fill="white" stroke="#666666" points="484,-35.5 373,-35.5 373,-5.5 484,-5.5 484,-35.5"/>
<text text-anchor="start" x="381" y="-23.5" font-family="Helvetica,sans-Serif" font-size="10.00">unilink::diagnostics</text>
<text text-anchor="middle" x="428.5" y="-12.5" font-family="Helvetica,sans-Serif" font-size="10.00">::Logger::level</text>
</a>
</g>
</g>
<!-- Node2&#45;&gt;Node3 -->
<g id="edge2_Node000002_Node000003" class="edge">
<title>Node2&#45;&gt;Node3</title>
<g id="a_edge2_Node000002_Node000003"><a xlink:title=" ">
<path fill="none" stroke="#63b8ff" d="M337.21,-20.5C345.63,-20.5 354.1,-20.5 362.3,-20.5"/>
<polygon fill="#63b8ff" stroke="#63b8ff" points="362.52,-24 372.52,-20.5 362.52,-17 362.52,-24"/>
</a>
</g>
</g>
</g>
</svg>
