<?xml version="1.0" encoding="UTF-8" standalone="no"?>
<!DOCTYPE svg PUBLIC "-//W3C//DTD SVG 1.1//EN"
 "http://www.w3.org/Graphics/SVG/1.1/DTD/svg11.dtd">
<!-- Generated by graphviz version 2.43.0 (0)
 -->
<!-- Title: unilink::config::ValidationResult::success Pages: 1 -->
<svg width="569pt" height="116pt"
 viewBox="0.00 0.00 569.00 115.50" xmlns="http://www.w3.org/2000/svg" xmlns:xlink="http://www.w3.org/1999/xlink">
<g id="graph0" class="graph" transform="scale(1 1) rotate(0) translate(4 111.5)">
<title>unilink::config::ValidationResult::success</title>
<polygon fill="white" stroke="transparent" points="-4,4 -4,-111.5 565,-111.5 565,4 -4,4"/>
<!-- Node1 -->
<g id="node1" class="node">
<title>Node1</title>
<g id="a_node1"><a xlink:title=" ">
<polygon fill="#bfbfbf" stroke="black" points="421,-44.5 421,-74.5 561,-74.5 561,-44.5 421,-44.5"/>
<text text-anchor="start" x="429" y="-62.5" font-family="Helvetica,sans-Serif" font-size="10.00">unilink::config::Validation</text>
<text text-anchor="middle" x="491" y="-51.5" font-family="Helvetica,sans-Serif" font-size="10.00">Result::success</text>
</a>
</g>
</g>
<!-- Node2 -->
<g id="node2" class="node">
<title>Node2</title>
<g id="a_node2"><a xlink:href="classunilink_1_1config_1_1ConfigManager.html#ae4a737ef35225ae0de347f09d558d8ec" target="_top" xlink:title=" ">
<polygon fill="white" stroke="black" points="200,-88 200,-107 385,-107 385,-88 200,-88"/>
<text text-anchor="middle" x="292.5" y="-95" font-family="Helvetica,sans-Serif" font-size="10.00">unilink::config::ConfigManager::set</text>
</a>
</g>
</g>
<!-- Node1&#45;&gt;Node2 -->
<g id="edge1" class="edge">
<title>Node1&#45;&gt;Node2</title>
<path fill="none" stroke="midnightblue" d="M410.9,-74.8C387.91,-79.24 363.46,-83.97 342.86,-87.95"/>
<polygon fill="midnightblue" stroke="midnightblue" points="411.84,-78.18 421,-72.84 410.52,-71.31 411.84,-78.18"/>
</g>
<!-- Node3 -->
<g id="node3" class="node">
<title>Node3</title>
<g id="a_node3"><a xlink:href="classunilink_1_1config_1_1ConfigManager.html#a53837e140f1c6e91b6922b26099a19c4" target="_top" xlink:title=" ">
<polygon fill="white" stroke="black" points="0,-22.5 0,-52.5 164,-52.5 164,-22.5 0,-22.5"/>
<text text-anchor="start" x="8" y="-40.5" font-family="Helvetica,sans-Serif" font-size="10.00">unilink::config::ConfigManager</text>
<text text-anchor="middle" x="82" y="-29.5" font-family="Helvetica,sans-Serif" font-size="10.00">::validate</text>
</a>
</g>
</g>
<!-- Node1&#45;&gt;Node3 -->
<g id="edge2" class="edge">
<title>Node1&#45;&gt;Node3</title>
<path fill="none" stroke="midnightblue" d="M410.72,-55.21C339.69,-51.38 235.95,-45.77 164.3,-41.89"/>
<polygon fill="midnightblue" stroke="midnightblue" points="410.78,-58.72 420.96,-55.77 411.16,-51.73 410.78,-58.72"/>
</g>
<!-- Node4 -->
<g id="node4" class="node">
<title>Node4</title>
<g id="a_node4"><a xlink:href="structunilink_1_1config_1_1ConfigManager_1_1Impl.html#add33863d8100f77c1a4f852d06419782" target="_top" xlink:title=" ">
<polygon fill="white" stroke="black" points="210.5,-0.5 210.5,-30.5 374.5,-30.5 374.5,-0.5 210.5,-0.5"/>
<text text-anchor="start" x="218.5" y="-18.5" font-family="Helvetica,sans-Serif" font-size="10.00">unilink::config::ConfigManager</text>
<text text-anchor="middle" x="292.5" y="-7.5" font-family="Helvetica,sans-Serif" font-size="10.00">::Impl::validate_value</text>
</a>
</g>
</g>
<!-- Node1&#45;&gt;Node4 -->
<g id="edge3" class="edge">
<title>Node1&#45;&gt;Node4</title>
<path fill="none" stroke="midnightblue" d="M412.88,-42.23C395.61,-38.36 377.43,-34.29 360.61,-30.53"/>
<polygon fill="midnightblue" stroke="midnightblue" points="412.4,-45.71 422.93,-44.48 413.93,-38.88 412.4,-45.71"/>
</g>
<!-- Node4&#45;&gt;Node3 -->
<g id="edge4" class="edge">
<title>Node4&#45;&gt;Node3</title>
<path fill="none" stroke="midnightblue" d="M200.3,-25.12C188.33,-26.39 176.12,-27.67 164.33,-28.92"/>
<polygon fill="midnightblue" stroke="midnightblue" points="200.71,-28.6 210.29,-24.07 199.98,-21.64 200.71,-28.6"/>
</g>
</g>
</svg>
