<?xml version="1.0" encoding="UTF-8" standalone="no"?>
<!DOCTYPE svg PUBLIC "-//W3C//DTD SVG 1.1//EN"
 "http://www.w3.org/Graphics/SVG/1.1/DTD/svg11.dtd">
<!-- Generated by graphviz version 2.43.0 (0)
 -->
<!-- Title: unilink::config::ValidationResult::ValidationResult Pages: 1 -->
<!--zoomable 165 -->
<svg id="main" version="1.1" xmlns="http://www.w3.org/2000/svg" xmlns:xlink="http://www.w3.org/1999/xlink" xml:space="preserve" onload="init(evt)">
<style type="text/css"><![CDATA[
.edge:hover path { stroke: red; }
.edge:hover polygon { stroke: red; fill: red; }
]]></style>
<script type="text/javascript"><![CDATA[
var edges = document.getElementsByTagName('g');
if (edges && edges.length) {
  for (var i=0;i<edges.length;i++) {
    if (edges[i].id.substr(0,4)=='edge') {
      edges[i].setAttribute('class','edge');
    }
  }
}
]]></script>
        <defs>
                <circle id="rim" cx="0" cy="0" r="7"/>
                <circle id="rim2" cx="0" cy="0" r="3.5"/>
                <g id="zoomPlus">
                        <use xlink:href="#rim" fill="#404040">
                                <set attributeName="fill" to="#808080" begin="zoomplus.mouseover" end="zoomplus.mouseout"/>
                        </use>
                        <path d="M-4,0h8M0,-4v8" fill="none" stroke="white" stroke-width="1.5" pointer-events="none"/>
                </g>
                <g id="zoomMin">
                        <use xlink:href="#rim" fill="#404040">
                                <set attributeName="fill" to="#808080" begin="zoomminus.mouseover" end="zoomminus.mouseout"/>
                        </use>
                        <path d="M-4,0h8" fill="none" stroke="white" stroke-width="1.5" pointer-events="none"/>
                </g>
                <g id="dirArrow">
                        <path fill="none" stroke="white" stroke-width="1.5" d="M0,-3.0v7 M-2.5,-0.5L0,-3.0L2.5,-0.5"/>
                </g>
               <g id="resetDef">
                       <use xlink:href="#rim2" fill="#404040">
                               <set attributeName="fill" to="#808080" begin="reset.mouseover" end="reset.mouseout"/>
                       </use>
               </g>
        </defs>

<script type="text/javascript">
var viewWidth = 745;
var viewHeight = 165;
var sectionId = 'dynsection-1';
</script>
<script xlink:href="svgpan.js"/>
<svg id="graph" class="graph">
<g id="viewport">
<title>unilink::config::ValidationResult::ValidationResult</title>
<polygon fill="white" stroke="transparent" points="-4,4 -4,-160.5 741,-160.5 741,4 -4,4"/>
<!-- Node1 -->
<g id="node1" class="node">
<title>Node1</title>
<g id="a_node1"><a xlink:title=" ">
<polygon fill="#bfbfbf" stroke="black" points="597,-57 597,-87 737,-87 737,-57 597,-57"/>
<text text-anchor="start" x="605" y="-75" font-family="Helvetica,sans-Serif" font-size="10.00">unilink::config::Validation</text>
<text text-anchor="middle" x="667" y="-64" font-family="Helvetica,sans-Serif" font-size="10.00">Result::ValidationResult</text>
</a>
</g>
</g>
<!-- Node2 -->
<g id="node2" class="node">
<title>Node2</title>
<g id="a_node2"><a xlink:href="structunilink_1_1config_1_1ValidationResult.html#ad1b3fb0aa207ad2ec6885b23204ce4d1" target="_top" xlink:title=" ">
<polygon fill="white" stroke="black" points="421,-82 421,-112 561,-112 561,-82 421,-82"/>
<text text-anchor="start" x="429" y="-100" font-family="Helvetica,sans-Serif" font-size="10.00">unilink::config::Validation</text>
<text text-anchor="middle" x="491" y="-89" font-family="Helvetica,sans-Serif" font-size="10.00">Result::error</text>
</a>
</g>
</g>
<!-- Node1&#45;&gt;Node2 -->
<g id="edge1" class="edge">
<title>Node1&#45;&gt;Node2</title>
<path fill="none" stroke="midnightblue" d="M586.97,-83.36C578.38,-84.59 569.68,-85.84 561.22,-87.05"/>
<polygon fill="midnightblue" stroke="midnightblue" points="587.58,-86.8 596.98,-81.92 586.58,-79.87 587.58,-86.8"/>
</g>
<!-- Node6 -->
<g id="node6" class="node">
<title>Node6</title>
<g id="a_node6"><a xlink:href="structunilink_1_1config_1_1ValidationResult.html#a77146d8eef5cdf8ac9d2bc4b5f4ef115" target="_top" xlink:title=" ">
<polygon fill="white" stroke="black" points="421,-33 421,-63 561,-63 561,-33 421,-33"/>
<text text-anchor="start" x="429" y="-51" font-family="Helvetica,sans-Serif" font-size="10.00">unilink::config::Validation</text>
<text text-anchor="middle" x="491" y="-40" font-family="Helvetica,sans-Serif" font-size="10.00">Result::success</text>
</a>
</g>
</g>
<!-- Node1&#45;&gt;Node6 -->
<g id="edge5" class="edge">
<title>Node1&#45;&gt;Node6</title>
<path fill="none" stroke="midnightblue" d="M586.97,-61.1C578.38,-59.91 569.68,-58.71 561.22,-57.55"/>
<polygon fill="midnightblue" stroke="midnightblue" points="586.6,-64.58 596.98,-62.48 587.55,-57.65 586.6,-64.58"/>
</g>
<!-- Node3 -->
<g id="node3" class="node">
<title>Node3</title>
<g id="a_node3"><a xlink:href="classunilink_1_1config_1_1ConfigManager.html#a88266f54f78cf3b638efb841f3d85a20" target="_top" xlink:title=" ">
<polygon fill="white" stroke="black" points="210.5,-126 210.5,-156 374.5,-156 374.5,-126 210.5,-126"/>
<text text-anchor="start" x="218.5" y="-144" font-family="Helvetica,sans-Serif" font-size="10.00">unilink::config::ConfigManager</text>
<text text-anchor="middle" x="292.5" y="-133" font-family="Helvetica,sans-Serif" font-size="10.00">::validate</text>
</a>
</g>
</g>
<!-- Node2&#45;&gt;Node3 -->
<g id="edge2" class="edge">
<title>Node2&#45;&gt;Node3</title>
<path fill="none" stroke="midnightblue" d="M412.88,-114.27C395.61,-118.14 377.43,-122.21 360.61,-125.97"/>
<polygon fill="midnightblue" stroke="midnightblue" points="413.93,-117.62 422.93,-112.02 412.4,-110.79 413.93,-117.62"/>
</g>
<!-- Node4 -->
<g id="node4" class="node">
<title>Node4</title>
<g id="a_node4"><a xlink:href="structunilink_1_1config_1_1ConfigManager_1_1Impl.html#add33863d8100f77c1a4f852d06419782" target="_top" xlink:title=" ">
<polygon fill="white" stroke="black" points="210.5,-77 210.5,-107 374.5,-107 374.5,-77 210.5,-77"/>
<text text-anchor="start" x="218.5" y="-95" font-family="Helvetica,sans-Serif" font-size="10.00">unilink::config::ConfigManager</text>
<text text-anchor="middle" x="292.5" y="-84" font-family="Helvetica,sans-Serif" font-size="10.00">::Impl::validate_value</text>
</a>
</g>
</g>
<!-- Node2&#45;&gt;Node4 -->
<g id="edge3" class="edge">
<title>Node2&#45;&gt;Node4</title>
<path fill="none" stroke="midnightblue" d="M410.72,-94.98C398.88,-94.68 386.67,-94.37 374.8,-94.07"/>
<polygon fill="midnightblue" stroke="midnightblue" points="410.91,-98.49 421,-95.24 411.09,-91.49 410.91,-98.49"/>
</g>
<!-- Node5 -->
<g id="node5" class="node">
<title>Node5</title>
<g id="a_node5"><a xlink:href="classunilink_1_1config_1_1ConfigManager.html#a53837e140f1c6e91b6922b26099a19c4" target="_top" xlink:title=" ">
<polygon fill="white" stroke="black" points="0,-55 0,-85 164,-85 164,-55 0,-55"/>
<text text-anchor="start" x="8" y="-73" font-family="Helvetica,sans-Serif" font-size="10.00">unilink::config::ConfigManager</text>
<text text-anchor="middle" x="82" y="-62" font-family="Helvetica,sans-Serif" font-size="10.00">::validate</text>
</a>
</g>
</g>
<!-- Node4&#45;&gt;Node5 -->
<g id="edge4" class="edge">
<title>Node4&#45;&gt;Node5</title>
<path fill="none" stroke="midnightblue" d="M200.3,-82.38C188.33,-81.11 176.12,-79.83 164.33,-78.58"/>
<polygon fill="midnightblue" stroke="midnightblue" points="199.98,-85.86 210.29,-83.43 200.71,-78.9 199.98,-85.86"/>
</g>
<!-- Node6&#45;&gt;Node4 -->
<g id="edge8" class="edge">
<title>Node6&#45;&gt;Node4</title>
<path fill="none" stroke="midnightblue" d="M412.88,-65.27C395.61,-69.14 377.43,-73.21 360.61,-76.97"/>
<polygon fill="midnightblue" stroke="midnightblue" points="413.93,-68.62 422.93,-63.02 412.4,-61.79 413.93,-68.62"/>
</g>
<!-- Node6&#45;&gt;Node5 -->
<g id="edge7" class="edge">
<title>Node6&#45;&gt;Node5</title>
<path fill="none" stroke="midnightblue" d="M410.72,-52.29C339.69,-56.12 235.95,-61.73 164.3,-65.61"/>
<polygon fill="midnightblue" stroke="midnightblue" points="411.16,-55.77 420.96,-51.73 410.78,-48.78 411.16,-55.77"/>
</g>
<!-- Node7 -->
<g id="node7" class="node">
<title>Node7</title>
<g id="a_node7"><a xlink:href="classunilink_1_1config_1_1ConfigManager.html#ae4a737ef35225ae0de347f09d558d8ec" target="_top" xlink:title=" ">
<polygon fill="white" stroke="black" points="200,-0.5 200,-19.5 385,-19.5 385,-0.5 200,-0.5"/>
<text text-anchor="middle" x="292.5" y="-7.5" font-family="Helvetica,sans-Serif" font-size="10.00">unilink::config::ConfigManager::set</text>
</a>
</g>
</g>
<!-- Node6&#45;&gt;Node7 -->
<g id="edge6" class="edge">
<title>Node6&#45;&gt;Node7</title>
<path fill="none" stroke="midnightblue" d="M410.9,-32.7C387.91,-28.26 363.46,-23.53 342.86,-19.55"/>
<polygon fill="midnightblue" stroke="midnightblue" points="410.52,-36.19 421,-34.66 411.84,-29.32 410.52,-36.19"/>
</g>
</g>
</svg>
        <g id="navigator" transform="translate(0 0)" fill="#404254">
                <rect fill="#f2f5e9" fill-opacity="0.5" stroke="#606060" stroke-width=".5" x="0" y="0" width="60" height="60"/>
                <use id="zoomplus" xlink:href="#zoomPlus" x="17" y="9" onmousedown="handleZoom(evt,'in')"/>
                <use id="zoomminus" xlink:href="#zoomMin" x="42" y="9" onmousedown="handleZoom(evt,'out')"/>
                <use id="reset" xlink:href="#resetDef" x="30" y="36" onmousedown="handleReset()"/>
                <g id="arrowUp" xlink:href="#dirArrow" transform="translate(30 24)" onmousedown="handlePan(0,-1)">
                  <use xlink:href="#rim" fill="#404040">
                        <set attributeName="fill" to="#808080" begin="arrowUp.mouseover" end="arrowUp.mouseout"/>
                  </use>
                  <path fill="none" stroke="white" stroke-width="1.5" d="M0,-3.0v7 M-2.5,-0.5L0,-3.0L2.5,-0.5"/>
                </g>
                <g id="arrowRight" xlink:href="#dirArrow" transform="rotate(90) translate(36 -43)" onmousedown="handlePan(1,0)">
                  <use xlink:href="#rim" fill="#404040">
                        <set attributeName="fill" to="#808080" begin="arrowRight.mouseover" end="arrowRight.mouseout"/>
                  </use>
                  <path fill="none" stroke="white" stroke-width="1.5" d="M0,-3.0v7 M-2.5,-0.5L0,-3.0L2.5,-0.5"/>
                </g>
                <g id="arrowDown" xlink:href="#dirArrow" transform="rotate(180) translate(-30 -48)" onmousedown="handlePan(0,1)">
                  <use xlink:href="#rim" fill="#404040">
                        <set attributeName="fill" to="#808080" begin="arrowDown.mouseover" end="arrowDown.mouseout"/>
                  </use>
                  <path fill="none" stroke="white" stroke-width="1.5" d="M0,-3.0v7 M-2.5,-0.5L0,-3.0L2.5,-0.5"/>
                </g>
                <g id="arrowLeft" xlink:href="#dirArrow" transform="rotate(270) translate(-36 17)" onmousedown="handlePan(-1,0)">
                  <use xlink:href="#rim" fill="#404040">
                        <set attributeName="fill" to="#808080" begin="arrowLeft.mouseover" end="arrowLeft.mouseout"/>
                  </use>
                  <path fill="none" stroke="white" stroke-width="1.5" d="M0,-3.0v7 M-2.5,-0.5L0,-3.0L2.5,-0.5"/>
                </g>
        </g>
        <svg viewBox="0 0 15 15" width="100%" height="30px" preserveAspectRatio="xMaxYMin meet">
         <g id="arrow_out" transform="scale(0.3 0.3)">
          <a xlink:href="structunilink_1_1config_1_1ValidationResult_abbc8f1d5eefb0b9e99d0f1d1c7419928_icgraph_org.svg" target="_base">
           <rect id="button" ry="5" rx="5" y="6" x="6" height="38" width="38"
                fill="#f2f5e9" fill-opacity="0.5" stroke="#606060" stroke-width="1.0"/>
           <path id="arrow"
             d="M 11.500037,31.436501 C 11.940474,20.09759 22.043105,11.32322 32.158766,21.979434 L 37.068811,17.246167 C 37.068811,17.246167 37.088388,32 37.088388,32 L 22.160133,31.978069 C 22.160133,31.978069 26.997745,27.140456 26.997745,27.140456 C 18.528582,18.264221 13.291696,25.230495 11.500037,31.436501 z"
             style="fill:#404040;"/>
          </a>
         </g>
        </svg>
</svg>
