<?xml version="1.0" encoding="UTF-8" standalone="no"?>
<!DOCTYPE svg PUBLIC "-//W3C//DTD SVG 1.1//EN"
 "http://www.w3.org/Graphics/SVG/1.1/DTD/svg11.dtd">
<!-- Generated by graphviz version 2.43.0 (0)
 -->
<!-- Title: unilink::wrapper::Serial::Impl::send_line Pages: 1 -->
<!--zoomable 86 -->

<svg id="main" version="1.1" xmlns="http://www.w3.org/2000/svg" xmlns:xlink="http://www.w3.org/1999/xlink" xml:space="preserve" onload="init(evt)">
<style type="text/css"><![CDATA[
.node, .edge {opacity: 0.7;}
.node.selected, .edge.selected {opacity: 1;}
.edge:hover path { stroke: red; }
.edge:hover polygon { stroke: red; fill: red; }
]]></style>

<defs>
  <circle id="rim" cx="0" cy="0" r="7"/>
  <circle id="rim2" cx="0" cy="0" r="3.5"/>
  <g id="zoomPlus">
    <use xlink:href="#rim" fill="#404040"><set attributeName="fill" to="#808080" begin="zoomplus.mouseover" end="zoomplus.mouseout"/></use>
    <path d="M-4,0h8M0,-4v8" fill="none" stroke="white" stroke-width="1.5" pointer-events="none"/>
  </g>
  <g id="zoomMin">
    <use xlink:href="#rim" fill="#404040"><set attributeName="fill" to="#808080" begin="zoomminus.mouseover" end="zoomminus.mouseout"/></use>
    <path d="M-4,0h8" fill="none" stroke="white" stroke-width="1.5" pointer-events="none"/>
  </g>
  <g id="arrowUp" transform="translate(30 24)">
    <use xlink:href="#rim"/>
    <path pointer-events="none" fill="none" stroke="white" stroke-width="1.5" d="M0,-3.0v7 M-2.5,-0.5L0,-3.0L2.5,-0.5"/>
  </g>
  <g id="arrowRight" transform="rotate(90) translate(36 -43)">
    <use xlink:href="#rim"/>
    <path pointer-events="none" fill="none" stroke="white" stroke-width="1.5" d="M0,-3.0v7 M-2.5,-0.5L0,-3.0L2.5,-0.5"/>
  </g>
  <g id="arrowDown" transform="rotate(180) translate(-30 -48)">
    <use xlink:href="#rim"/>
    <path pointer-events="none" fill="none" stroke="white" stroke-width="1.5" d="M0,-3.0v7 M-2.5,-0.5L0,-3.0L2.5,-0.5"/>
  </g>
  <g id="arrowLeft" transform="rotate(270) translate(-36 17)">
    <use xlink:href="#rim"/>
    <path pointer-events="none" fill="none" stroke="white" stroke-width="1.5" d="M0,-3.0v7 M-2.5,-0.5L0,-3.0L2.5,-0.5"/>
  </g>
  <g id="resetDef">
    <use xlink:href="#rim2" fill="#404040"><set attributeName="fill" to="#808080" begin="reset.mouseover" end="reset.mouseout"/></use>
  </g>
</defs>
<script type="application/ecmascript">
var viewWidth = 657;
var viewHeight = 86;
var sectionId = 'dynsection-15';
</script>
<script type="application/ecmascript" xlink:href="svg.min.js"/>
<svg id="graph" class="graph">
<g id="viewport">
<title>unilink::wrapper::Serial::Impl::send_line</title>
<!-- Node1 -->
<g id="Node000001" class="node">
<title>Node1</title>
<g id="a_Node000001"><a xlink:title=" ">
<polygon fill="#999999" stroke="#666666" points="129,-54 0,-54 0,-24 129,-24 129,-54"/>
<text text-anchor="start" x="8" y="-42" font-family="Helvetica,sans-Serif" font-size="10.00">unilink::wrapper::Serial</text>
<text text-anchor="middle" x="64.5" y="-31" font-family="Helvetica,sans-Serif" font-size="10.00">::Impl::send_line</text>
</a>
</g>
</g>
<!-- Node2 -->
<g id="Node000002" class="node">
<title>Node2</title>
<g id="a_Node000002"><a xlink:href="structunilink_1_1wrapper_1_1Serial_1_1Impl.html#a0586e7f25cc0c91807c79106fc496d30" target="_top" xlink:title=" ">
<polygon fill="white" stroke="#666666" points="308,-78 165,-78 165,-48 308,-48 308,-78"/>
<text text-anchor="start" x="173" y="-66" font-family="Helvetica,sans-Serif" font-size="10.00">unilink::wrapper::Serial</text>
<text text-anchor="middle" x="236.5" y="-55" font-family="Helvetica,sans-Serif" font-size="10.00">::Impl::send_line_blocking</text>
</a>
</g>
</g>
<!-- Node1&#45;&gt;Node2 -->
<g id="edge1_Node000001_Node000002" class="edge">
<title>Node1&#45;&gt;Node2</title>
<g id="a_edge1_Node000001_Node000002"><a xlink:title=" ">
<path fill="none" stroke="#63b8ff" d="M129.29,-48C137.61,-49.18 146.23,-50.4 154.8,-51.61"/>
<polygon fill="#63b8ff" stroke="#63b8ff" points="154.41,-55.09 164.8,-53.02 155.39,-48.15 154.41,-55.09"/>
</a>
</g>
</g>
<!-- Node5 -->
<g id="Node000005" class="node">
<title>Node5</title>
<g id="a_Node000005"><a xlink:href="structunilink_1_1wrapper_1_1Serial_1_1Impl.html#ae1a000eb2f4b93645d6c5457398c4eb5" target="_top" xlink:title=" ">
<polygon fill="white" stroke="#666666" points="301,-30 172,-30 172,0 301,0 301,-30"/>
<text text-anchor="start" x="180" y="-18" font-family="Helvetica,sans-Serif" font-size="10.00">unilink::wrapper::Serial</text>
<text text-anchor="middle" x="236.5" y="-7" font-family="Helvetica,sans-Serif" font-size="10.00">::Impl::try_send_line</text>
</a>
</g>
</g>
<!-- Node1&#45;&gt;Node5 -->
<g id="edge4_Node000001_Node000005" class="edge">
<title>Node1&#45;&gt;Node5</title>
<g id="a_edge4_Node000001_Node000005"><a xlink:title=" ">
<path fill="none" stroke="#63b8ff" d="M129.29,-30C139.96,-28.49 151.11,-26.91 162.01,-25.38"/>
<polygon fill="#63b8ff" stroke="#63b8ff" points="162.51,-28.84 171.92,-23.98 161.53,-21.91 162.51,-28.84"/>
</a>
</g>
</g>
<!-- Node3 -->
<g id="Node000003" class="node">
<title>Node3</title>
<g id="a_Node000003"><a xlink:href="structunilink_1_1wrapper_1_1Serial_1_1Impl.html#a4b2e9e6e54b4a876ff9b7dd2bcac87e5" target="_top" xlink:title=" ">
<polygon fill="white" stroke="#666666" points="473,-78 344,-78 344,-48 473,-48 473,-78"/>
<text text-anchor="start" x="352" y="-66" font-family="Helvetica,sans-Serif" font-size="10.00">unilink::wrapper::Serial</text>
<text text-anchor="middle" x="408.5" y="-55" font-family="Helvetica,sans-Serif" font-size="10.00">::Impl::send_blocking</text>
</a>
</g>
</g>
<!-- Node2&#45;&gt;Node3 -->
<g id="edge2_Node000002_Node000003" class="edge">
<title>Node2&#45;&gt;Node3</title>
<g id="a_edge2_Node000002_Node000003"><a xlink:title=" ">
<path fill="none" stroke="#63b8ff" d="M308.12,-63C316.55,-63 325.18,-63 333.65,-63"/>
<polygon fill="#63b8ff" stroke="#63b8ff" points="333.89,-66.5 343.89,-63 333.89,-59.5 333.89,-66.5"/>
</a>
</g>
</g>
<!-- Node4 -->
<g id="Node000004" class="node">
<title>Node4</title>
<g id="a_Node000004"><a xlink:href="namespaceunilink_1_1base_1_1safe__convert.html#a575f6a399b270deff205277e7b9c3b6c" target="_top" xlink:title="Safely obtain a view of std::string as byte array without allocation.">
<polygon fill="white" stroke="#666666" points="649,-54 509,-54 509,-24 649,-24 649,-54"/>
<text text-anchor="start" x="517" y="-42" font-family="Helvetica,sans-Serif" font-size="10.00">unilink::base::safe</text>
<text text-anchor="middle" x="579" y="-31" font-family="Helvetica,sans-Serif" font-size="10.00">_convert::string_to_bytes</text>
</a>
</g>
</g>
<!-- Node3&#45;&gt;Node4 -->
<g id="edge3_Node000003_Node000004" class="edge">
<title>Node3&#45;&gt;Node4</title>
<g id="a_edge3_Node000003_Node000004"><a xlink:title=" ">
<path fill="none" stroke="#63b8ff" d="M473.2,-53.93C481.58,-52.73 490.24,-51.5 498.83,-50.28"/>
<polygon fill="#63b8ff" stroke="#63b8ff" points="499.45,-53.72 508.86,-48.85 498.47,-46.79 499.45,-53.72"/>
</a>
</g>
</g>
<!-- Node6 -->
<g id="Node000006" class="node">
<title>Node6</title>
<g id="a_Node000006"><a xlink:href="structunilink_1_1wrapper_1_1Serial_1_1Impl.html#aed466cfefe41704eaa5640e1fe19dfdd" target="_top" xlink:title=" ">
<polygon fill="white" stroke="#666666" points="473,-30 344,-30 344,0 473,0 473,-30"/>
<text text-anchor="start" x="352" y="-18" font-family="Helvetica,sans-Serif" font-size="10.00">unilink::wrapper::Serial</text>
<text text-anchor="middle" x="408.5" y="-7" font-family="Helvetica,sans-Serif" font-size="10.00">::Impl::try_send</text>
</a>
</g>
</g>
<!-- Node5&#45;&gt;Node6 -->
<g id="edge5_Node000005_Node000006" class="edge">
<title>Node5&#45;&gt;Node6</title>
<g id="a_edge5_Node000005_Node000006"><a xlink:title=" ">
<path fill="none" stroke="#63b8ff" d="M301.29,-15C311.85,-15 322.89,-15 333.68,-15"/>
<polygon fill="#63b8ff" stroke="#63b8ff" points="333.92,-18.5 343.92,-15 333.92,-11.5 333.92,-18.5"/>
</a>
</g>
</g>
<!-- Node6&#45;&gt;Node4 -->
<g id="edge6_Node000006_Node000004" class="edge">
<title>Node6&#45;&gt;Node4</title>
<g id="a_edge6_Node000006_Node000004"><a xlink:title=" ">
<path fill="none" stroke="#63b8ff" d="M473.2,-24.07C481.58,-25.27 490.24,-26.5 498.83,-27.72"/>
<polygon fill="#63b8ff" stroke="#63b8ff" points="498.47,-31.21 508.86,-29.15 499.45,-24.28 498.47,-31.21"/>
</a>
</g>
</g>
</g>
</svg>

<g id="navigator" transform="translate(0 0)" fill="#404254">
  <rect fill="#f2f5e9" fill-opacity="0.5" stroke="#606060" stroke-width=".5" x="0" y="0" width="60" height="60"/>
  <use id="zoomplus" xlink:href="#zoomPlus" x="17" y="9" onmousedown="handleZoom(evt,'in')"/>
  <use id="zoomminus" xlink:href="#zoomMin" x="42" y="9" onmousedown="handleZoom(evt,'out')"/>
  <use id="reset" xlink:href="#resetDef" x="30" y="36" onmousedown="handleReset()"/>
   <use id="arrowup" xlink:href="#arrowUp" x="0" y="0" onmousedown="handlePan(0,-1)"/>
  <use id="arrowright" xlink:href="#arrowRight" x="0" y="0" onmousedown="handlePan(1,0)"/>
  <use id="arrowdown" xlink:href="#arrowDown" x="0" y="0" onmousedown="handlePan(0,1)"/>
  <use id="arrowleft" xlink:href="#arrowLeft" x="0" y="0" onmousedown="handlePan(-1,0)"/>
</g>
<svg viewBox="0 0 15 15" width="100%" height="30px" preserveAspectRatio="xMaxYMin meet">
 <g id="arrow_out" transform="scale(0.3 0.3)">
  <a xlink:href="structunilink_1_1wrapper_1_1Serial_1_1Impl_afcafeb7c7815cc1398f2c1eeeb363ea7_cgraph_org.svg" target="_base">
   <rect id="button" ry="5" rx="5" y="6" x="6" height="38" width="38"
        fill="#f2f5e9" fill-opacity="0.5" stroke="#606060" stroke-width="1.0"/>
   <path id="arrow"
     d="M 11.500037,31.436501 C 11.940474,20.09759 22.043105,11.32322 32.158766,21.979434 L 37.068811,17.246167 C 37.068811,17.246167 37.088388,32 37.088388,32 L 22.160133,31.978069 C 22.160133,31.978069 26.997745,27.140456 26.997745,27.140456 C 18.528582,18.264221 13.291696,25.230495 11.500037,31.436501 z"
     style="fill:#404040;"/>
  </a>
 </g>
</svg>

<style type='text/css'>
<![CDATA[
[data-mouse-over-selected='false'] { opacity: 0.7; }
[data-mouse-over-selected='true']  { opacity: 1.0; }
]]>
</style>
<script type="application/ecmascript"><![CDATA[
document.addEventListener('DOMContentLoaded', (event) => {
  highlightEdges();
  highlightAdjacentNodes();
});
]]></script>
</svg>
