<?xml version="1.0" encoding="UTF-8" standalone="no"?>
<!DOCTYPE svg PUBLIC "-//W3C//DTD SVG 1.1//EN"
 "http://www.w3.org/Graphics/SVG/1.1/DTD/svg11.dtd">
<!-- Generated by graphviz version 2.43.0 (0)
 -->
<!-- Title: unilink::wrapper::UdpServer::Impl::broadcast Pages: 1 -->
<svg width="712pt" height="86pt"
 viewBox="0.00 0.00 712.00 86.00" xmlns="http://www.w3.org/2000/svg" xmlns:xlink="http://www.w3.org/1999/xlink">
<g id="graph0" class="graph" transform="scale(1 1) rotate(0) translate(4 82)">
<title>unilink::wrapper::UdpServer::Impl::broadcast</title>
<!-- Node1 -->
<g id="Node000001" class="node">
<title>Node1</title>
<g id="a_Node000001"><a xlink:title=" ">
<polygon fill="#999999" stroke="#666666" points="152,-53 0,-53 0,-23 152,-23 152,-53"/>
<text text-anchor="start" x="8" y="-41" font-family="Helvetica,sans-Serif" font-size="10.00">unilink::wrapper::UdpServer</text>
<text text-anchor="middle" x="76" y="-30" font-family="Helvetica,sans-Serif" font-size="10.00">::Impl::broadcast</text>
</a>
</g>
</g>
<!-- Node2 -->
<g id="Node000002" class="node">
<title>Node2</title>
<g id="a_Node000002"><a xlink:href="structunilink_1_1wrapper_1_1UdpServer_1_1Impl.html#a089d32085e7d24b56701bb0657b537f7" target="_top" xlink:title=" ">
<polygon fill="white" stroke="#666666" points="340,-76 188,-76 188,-46 340,-46 340,-76"/>
<text text-anchor="start" x="196" y="-64" font-family="Helvetica,sans-Serif" font-size="10.00">unilink::wrapper::UdpServer</text>
<text text-anchor="middle" x="264" y="-53" font-family="Helvetica,sans-Serif" font-size="10.00">::Impl::send_to_blocking</text>
</a>
</g>
</g>
<!-- Node1&#45;&gt;Node2 -->
<g id="edge1_Node000001_Node000002" class="edge">
<title>Node1&#45;&gt;Node2</title>
<g id="a_edge1_Node000001_Node000002"><a xlink:title=" ">
<path fill="none" stroke="#63b8ff" d="M152.12,-47.29C160.6,-48.34 169.28,-49.41 177.87,-50.47"/>
<polygon fill="#63b8ff" stroke="#63b8ff" points="177.55,-53.96 187.9,-51.71 178.41,-47.01 177.55,-53.96"/>
</a>
</g>
</g>
<!-- Node5 -->
<g id="Node000005" class="node">
<title>Node5</title>
<g id="a_Node000005"><a xlink:href="structunilink_1_1wrapper_1_1UdpServer_1_1Impl.html#ac53493b215fe426a68af23ae3844e8ed" target="_top" xlink:title=" ">
<polygon fill="white" stroke="#666666" points="528,-30 376,-30 376,0 528,0 528,-30"/>
<text text-anchor="start" x="384" y="-18" font-family="Helvetica,sans-Serif" font-size="10.00">unilink::wrapper::UdpServer</text>
<text text-anchor="middle" x="452" y="-7" font-family="Helvetica,sans-Serif" font-size="10.00">::Impl::try_broadcast</text>
</a>
</g>
</g>
<!-- Node1&#45;&gt;Node5 -->
<g id="edge4_Node000001_Node000005" class="edge">
<title>Node1&#45;&gt;Node5</title>
<g id="a_edge4_Node000001_Node000005"><a xlink:title=" ">
<path fill="none" stroke="#63b8ff" d="M152.23,-33.37C213.99,-29.58 301.43,-24.2 365.77,-20.24"/>
<polygon fill="#63b8ff" stroke="#63b8ff" points="366.12,-23.73 375.89,-19.62 365.69,-16.74 366.12,-23.73"/>
</a>
</g>
</g>
<!-- Node3 -->
<g id="Node000003" class="node">
<title>Node3</title>
<g id="a_Node000003"><a xlink:href="structunilink_1_1wrapper_1_1UdpServer_1_1Impl.html#a335e5b62d1284029ec86007e01dec975" target="_top" xlink:title=" ">
<polygon fill="white" stroke="#666666" points="528,-78 376,-78 376,-48 528,-48 528,-78"/>
<text text-anchor="start" x="384" y="-66" font-family="Helvetica,sans-Serif" font-size="10.00">unilink::wrapper::UdpServer</text>
<text text-anchor="middle" x="452" y="-55" font-family="Helvetica,sans-Serif" font-size="10.00">::Impl::try_send_to</text>
</a>
</g>
</g>
<!-- Node2&#45;&gt;Node3 -->
<g id="edge2_Node000002_Node000003" class="edge">
<title>Node2&#45;&gt;Node3</title>
<g id="a_edge2_Node000002_Node000003"><a xlink:title=" ">
<path fill="none" stroke="#63b8ff" d="M340.12,-61.81C348.6,-61.9 357.28,-61.99 365.87,-62.08"/>
<polygon fill="#63b8ff" stroke="#63b8ff" points="365.87,-65.58 375.9,-62.19 365.94,-58.59 365.87,-65.58"/>
</a>
</g>
</g>
<!-- Node4 -->
<g id="Node000004" class="node">
<title>Node4</title>
<g id="a_Node000004"><a xlink:href="namespaceunilink_1_1base_1_1safe__convert.html#a575f6a399b270deff205277e7b9c3b6c" target="_top" xlink:title="Safely obtain a view of std::string as byte array without allocation.">
<polygon fill="white" stroke="#666666" points="704,-54 564,-54 564,-24 704,-24 704,-54"/>
<text text-anchor="start" x="572" y="-42" font-family="Helvetica,sans-Serif" font-size="10.00">unilink::base::safe</text>
<text text-anchor="middle" x="634" y="-31" font-family="Helvetica,sans-Serif" font-size="10.00">_convert::string_to_bytes</text>
</a>
</g>
</g>
<!-- Node3&#45;&gt;Node4 -->
<g id="edge3_Node000003_Node000004" class="edge">
<title>Node3&#45;&gt;Node4</title>
<g id="a_edge3_Node000003_Node000004"><a xlink:title=" ">
<path fill="none" stroke="#63b8ff" d="M528.03,-53C536.56,-51.86 545.27,-50.7 553.85,-49.55"/>
<polygon fill="#63b8ff" stroke="#63b8ff" points="554.39,-53.01 563.84,-48.22 553.47,-46.07 554.39,-53.01"/>
</a>
</g>
</g>
<!-- Node5&#45;&gt;Node4 -->
<g id="edge5_Node000005_Node000004" class="edge">
<title>Node5&#45;&gt;Node4</title>
<g id="a_edge5_Node000005_Node000004"><a xlink:title=" ">
<path fill="none" stroke="#63b8ff" d="M528.03,-25C536.56,-26.14 545.27,-27.3 553.85,-28.45"/>
<polygon fill="#63b8ff" stroke="#63b8ff" points="553.47,-31.93 563.84,-29.78 554.39,-24.99 553.47,-31.93"/>
</a>
</g>
</g>
</g>
</svg>
