<?xml version="1.0" encoding="UTF-8" standalone="no"?>
<!DOCTYPE svg PUBLIC "-//W3C//DTD SVG 1.1//EN"
 "http://www.w3.org/Graphics/SVG/1.1/DTD/svg11.dtd">
<!-- Generated by graphviz version 2.43.0 (0)
 -->
<!-- Title: unilink::transport::TcpServer::Impl Pages: 1 -->
<!--zoomable 994 -->

<svg id="main" version="1.1" xmlns="http://www.w3.org/2000/svg" xmlns:xlink="http://www.w3.org/1999/xlink" xml:space="preserve" onload="init(evt)">
<style type="text/css"><![CDATA[
.node, .edge {opacity: 0.7;}
.node.selected, .edge.selected {opacity: 1;}
.edge:hover path { stroke: red; }
.edge:hover polygon { stroke: red; fill: red; }
]]></style>

<defs>
  <circle id="rim" cx="0" cy="0" r="7"/>
  <circle id="rim2" cx="0" cy="0" r="3.5"/>
  <g id="zoomPlus">
    <use xlink:href="#rim" fill="#404040"><set attributeName="fill" to="#808080" begin="zoomplus.mouseover" end="zoomplus.mouseout"/></use>
    <path d="M-4,0h8M0,-4v8" fill="none" stroke="white" stroke-width="1.5" pointer-events="none"/>
  </g>
  <g id="zoomMin">
    <use xlink:href="#rim" fill="#404040"><set attributeName="fill" to="#808080" begin="zoomminus.mouseover" end="zoomminus.mouseout"/></use>
    <path d="M-4,0h8" fill="none" stroke="white" stroke-width="1.5" pointer-events="none"/>
  </g>
  <g id="arrowUp" transform="translate(30 24)">
    <use xlink:href="#rim"/>
    <path pointer-events="none" fill="none" stroke="white" stroke-width="1.5" d="M0,-3.0v7 M-2.5,-0.5L0,-3.0L2.5,-0.5"/>
  </g>
  <g id="arrowRight" transform="rotate(90) translate(36 -43)">
    <use xlink:href="#rim"/>
    <path pointer-events="none" fill="none" stroke="white" stroke-width="1.5" d="M0,-3.0v7 M-2.5,-0.5L0,-3.0L2.5,-0.5"/>
  </g>
  <g id="arrowDown" transform="rotate(180) translate(-30 -48)">
    <use xlink:href="#rim"/>
    <path pointer-events="none" fill="none" stroke="white" stroke-width="1.5" d="M0,-3.0v7 M-2.5,-0.5L0,-3.0L2.5,-0.5"/>
  </g>
  <g id="arrowLeft" transform="rotate(270) translate(-36 17)">
    <use xlink:href="#rim"/>
    <path pointer-events="none" fill="none" stroke="white" stroke-width="1.5" d="M0,-3.0v7 M-2.5,-0.5L0,-3.0L2.5,-0.5"/>
  </g>
  <g id="resetDef">
    <use xlink:href="#rim2" fill="#404040"><set attributeName="fill" to="#808080" begin="reset.mouseover" end="reset.mouseout"/></use>
  </g>
</defs>
<script type="application/ecmascript">
var viewWidth = 440;
var viewHeight = 994;
var sectionId = 'dynsection-0';
</script>
<script type="application/ecmascript" xlink:href="svg.min.js"/>
<svg id="graph" class="graph">
<g id="viewport">
<title>unilink::transport::TcpServer::Impl</title>
<!-- Node1 -->
<g id="Node000001" class="node">
<title>Node1</title>
<g id="a_Node000001"><a xlink:title=" ">
<polygon fill="#999999" stroke="transparent" points="289.5,-341 154.5,-341 154.5,0 289.5,0 289.5,-341"/>
<text text-anchor="start" x="180.5" y="-328.5" font-family="Helvetica,sans-Serif" font-size="10.00">unilink::transport</text>
<text text-anchor="start" x="181.5" y="-317.5" font-family="Helvetica,sans-Serif" font-size="10.00">::TcpServer::Impl</text>
<text text-anchor="start" x="159" y="-302.5" font-family="Helvetica,sans-Serif" font-size="10.00">+</text>
<text text-anchor="start" x="172" y="-302.5" font-family="Helvetica,sans-Serif" font-size="10.00">stopping_</text>
<text text-anchor="start" x="159" y="-287.5" font-family="Helvetica,sans-Serif" font-size="10.00">+</text>
<text text-anchor="start" x="172" y="-287.5" font-family="Helvetica,sans-Serif" font-size="10.00">next_client_id_</text>
<text text-anchor="start" x="159" y="-272.5" font-family="Helvetica,sans-Serif" font-size="10.00">+</text>
<text text-anchor="start" x="172" y="-272.5" font-family="Helvetica,sans-Serif" font-size="10.00">owned_ioc_</text>
<text text-anchor="start" x="159" y="-257.5" font-family="Helvetica,sans-Serif" font-size="10.00">+</text>
<text text-anchor="start" x="172" y="-257.5" font-family="Helvetica,sans-Serif" font-size="10.00">owns_ioc_</text>
<text text-anchor="start" x="159" y="-242.5" font-family="Helvetica,sans-Serif" font-size="10.00">+</text>
<text text-anchor="start" x="172" y="-242.5" font-family="Helvetica,sans-Serif" font-size="10.00">uses_global_ioc_</text>
<text text-anchor="start" x="159" y="-227.5" font-family="Helvetica,sans-Serif" font-size="10.00">+</text>
<text text-anchor="start" x="172" y="-227.5" font-family="Helvetica,sans-Serif" font-size="10.00">ioc_</text>
<text text-anchor="start" x="159" y="-212.5" font-family="Helvetica,sans-Serif" font-size="10.00">+</text>
<text text-anchor="start" x="172" y="-212.5" font-family="Helvetica,sans-Serif" font-size="10.00">ioc_thread_</text>
<text text-anchor="start" x="159" y="-197.5" font-family="Helvetica,sans-Serif" font-size="10.00">+</text>
<text text-anchor="start" x="172" y="-197.5" font-family="Helvetica,sans-Serif" font-size="10.00">acceptor_</text>
<text text-anchor="start" x="159" y="-182.5" font-family="Helvetica,sans-Serif" font-size="10.00">+</text>
<text text-anchor="start" x="172" y="-182.5" font-family="Helvetica,sans-Serif" font-size="10.00">on_bytes_</text>
<text text-anchor="start" x="159" y="-167.5" font-family="Helvetica,sans-Serif" font-size="10.00">+</text>
<text text-anchor="start" x="172" y="-167.5" font-family="Helvetica,sans-Serif" font-size="10.00">on_state_</text>
<text text-anchor="start" x="172" y="-152.5" font-family="Helvetica,sans-Serif" font-size="10.00">and 10 more...</text>
<text text-anchor="start" x="159" y="-137.5" font-family="Helvetica,sans-Serif" font-size="10.00">+</text>
<text text-anchor="start" x="172" y="-137.5" font-family="Helvetica,sans-Serif" font-size="10.00">Impl()</text>
<text text-anchor="start" x="159" y="-122.5" font-family="Helvetica,sans-Serif" font-size="10.00">+</text>
<text text-anchor="start" x="172" y="-122.5" font-family="Helvetica,sans-Serif" font-size="10.00">Impl()</text>
<text text-anchor="start" x="159" y="-107.5" font-family="Helvetica,sans-Serif" font-size="10.00">+</text>
<text text-anchor="start" x="172" y="-107.5" font-family="Helvetica,sans-Serif" font-size="10.00">~Impl()</text>
<text text-anchor="start" x="159" y="-92.5" font-family="Helvetica,sans-Serif" font-size="10.00">+</text>
<text text-anchor="start" x="172" y="-92.5" font-family="Helvetica,sans-Serif" font-size="10.00">notify_state()</text>
<text text-anchor="start" x="159" y="-77.5" font-family="Helvetica,sans-Serif" font-size="10.00">+</text>
<text text-anchor="start" x="172" y="-77.5" font-family="Helvetica,sans-Serif" font-size="10.00">apply_accepted_socket</text>
<text text-anchor="start" x="172" y="-66.5" font-family="Helvetica,sans-Serif" font-size="10.00">_options()</text>
<text text-anchor="start" x="159" y="-51.5" font-family="Helvetica,sans-Serif" font-size="10.00">+</text>
<text text-anchor="start" x="172" y="-51.5" font-family="Helvetica,sans-Serif" font-size="10.00">attempt_port_binding()</text>
<text text-anchor="start" x="159" y="-36.5" font-family="Helvetica,sans-Serif" font-size="10.00">+</text>
<text text-anchor="start" x="172" y="-36.5" font-family="Helvetica,sans-Serif" font-size="10.00">do_accept()</text>
<text text-anchor="start" x="159" y="-21.5" font-family="Helvetica,sans-Serif" font-size="10.00">+</text>
<text text-anchor="start" x="172" y="-21.5" font-family="Helvetica,sans-Serif" font-size="10.00">perform_cleanup()</text>
<text text-anchor="start" x="159" y="-6.5" font-family="Helvetica,sans-Serif" font-size="10.00">+</text>
<text text-anchor="start" x="172" y="-6.5" font-family="Helvetica,sans-Serif" font-size="10.00">stop()</text>
<polygon fill="#666666" stroke="#666666" points="155,-312.5 155,-312.5 290,-312.5 290,-312.5 155,-312.5"/>
<polygon fill="#666666" stroke="#666666" points="155,-147.5 155,-147.5 170,-147.5 170,-147.5 155,-147.5"/>
<polygon fill="#666666" stroke="#666666" points="170,-147.5 170,-147.5 290,-147.5 290,-147.5 170,-147.5"/>
<polygon fill="none" stroke="#666666" points="154.5,0 154.5,-341 289.5,-341 289.5,0 154.5,0"/>
</a>
</g>
</g>
<!-- Node2 -->
<g id="Node000002" class="node">
<title>Node2</title>
<g id="a_Node000002"><a xlink:href="structunilink_1_1config_1_1TcpServerConfig.html" target="_top" xlink:title=" ">
<polygon fill="white" stroke="transparent" points="138,-693.5 0,-693.5 0,-423.5 138,-423.5 138,-693.5"/>
<text text-anchor="start" x="8" y="-681.5" font-family="Helvetica,sans-Serif" font-size="10.00">unilink::config::TcpServer</text>
<text text-anchor="start" x="53.5" y="-670.5" font-family="Helvetica,sans-Serif" font-size="10.00">Config</text>
<text text-anchor="start" x="4" y="-655.5" font-family="Helvetica,sans-Serif" font-size="10.00">+</text>
<text text-anchor="start" x="17" y="-655.5" font-family="Helvetica,sans-Serif" font-size="10.00">bind_address</text>
<text text-anchor="start" x="4" y="-640.5" font-family="Helvetica,sans-Serif" font-size="10.00">+</text>
<text text-anchor="start" x="17" y="-640.5" font-family="Helvetica,sans-Serif" font-size="10.00">port</text>
<text text-anchor="start" x="4" y="-625.5" font-family="Helvetica,sans-Serif" font-size="10.00">+</text>
<text text-anchor="start" x="17" y="-625.5" font-family="Helvetica,sans-Serif" font-size="10.00">backpressure_threshold</text>
<text text-anchor="start" x="4" y="-610.5" font-family="Helvetica,sans-Serif" font-size="10.00">+</text>
<text text-anchor="start" x="17" y="-610.5" font-family="Helvetica,sans-Serif" font-size="10.00">backpressure_strategy</text>
<text text-anchor="start" x="4" y="-595.5" font-family="Helvetica,sans-Serif" font-size="10.00">+</text>
<text text-anchor="start" x="17" y="-595.5" font-family="Helvetica,sans-Serif" font-size="10.00">enable_memory_pool</text>
<text text-anchor="start" x="4" y="-580.5" font-family="Helvetica,sans-Serif" font-size="10.00">+</text>
<text text-anchor="start" x="17" y="-580.5" font-family="Helvetica,sans-Serif" font-size="10.00">max_connections</text>
<text text-anchor="start" x="4" y="-565.5" font-family="Helvetica,sans-Serif" font-size="10.00">+</text>
<text text-anchor="start" x="17" y="-565.5" font-family="Helvetica,sans-Serif" font-size="10.00">enable_port_retry</text>
<text text-anchor="start" x="4" y="-550.5" font-family="Helvetica,sans-Serif" font-size="10.00">+</text>
<text text-anchor="start" x="17" y="-550.5" font-family="Helvetica,sans-Serif" font-size="10.00">max_port_retries</text>
<text text-anchor="start" x="4" y="-535.5" font-family="Helvetica,sans-Serif" font-size="10.00">+</text>
<text text-anchor="start" x="17" y="-535.5" font-family="Helvetica,sans-Serif" font-size="10.00">port_retry_interval_ms</text>
<text text-anchor="start" x="4" y="-520.5" font-family="Helvetica,sans-Serif" font-size="10.00">+</text>
<text text-anchor="start" x="17" y="-520.5" font-family="Helvetica,sans-Serif" font-size="10.00">idle_timeout_ms</text>
<text text-anchor="start" x="4" y="-505.5" font-family="Helvetica,sans-Serif" font-size="10.00">+</text>
<text text-anchor="start" x="17" y="-505.5" font-family="Helvetica,sans-Serif" font-size="10.00">tcp_no_delay</text>
<text text-anchor="start" x="4" y="-490.5" font-family="Helvetica,sans-Serif" font-size="10.00">+</text>
<text text-anchor="start" x="17" y="-490.5" font-family="Helvetica,sans-Serif" font-size="10.00">keep_alive</text>
<text text-anchor="start" x="4" y="-475.5" font-family="Helvetica,sans-Serif" font-size="10.00">+</text>
<text text-anchor="start" x="17" y="-475.5" font-family="Helvetica,sans-Serif" font-size="10.00">send_buffer_size</text>
<text text-anchor="start" x="4" y="-460.5" font-family="Helvetica,sans-Serif" font-size="10.00">+</text>
<text text-anchor="start" x="17" y="-460.5" font-family="Helvetica,sans-Serif" font-size="10.00">receive_buffer_size</text>
<text text-anchor="start" x="4" y="-445.5" font-family="Helvetica,sans-Serif" font-size="10.00">+</text>
<text text-anchor="start" x="17" y="-445.5" font-family="Helvetica,sans-Serif" font-size="10.00">is_valid()</text>
<text text-anchor="start" x="4" y="-430.5" font-family="Helvetica,sans-Serif" font-size="10.00">+</text>
<text text-anchor="start" x="17" y="-430.5" font-family="Helvetica,sans-Serif" font-size="10.00">validate_and_clamp()</text>
<polygon fill="#666666" stroke="#666666" points="0,-665.5 0,-665.5 138,-665.5 138,-665.5 0,-665.5"/>
<polygon fill="#666666" stroke="#666666" points="0,-455.5 0,-455.5 15,-455.5 15,-455.5 0,-455.5"/>
<polygon fill="#666666" stroke="#666666" points="15,-455.5 15,-455.5 138,-455.5 138,-455.5 15,-455.5"/>
<polygon fill="none" stroke="#666666" points="0,-423.5 0,-693.5 138,-693.5 138,-423.5 0,-423.5"/>
</a>
</g>
</g>
<!-- Node2&#45;&gt;Node1 -->
<g id="edge1_Node000001_Node000002" class="edge">
<title>Node2&#45;&gt;Node1</title>
<g id="a_edge1_Node000001_Node000002"><a xlink:title=" ">
<path fill="none" stroke="#63b8ff" d="M122.19,-423.31C131.28,-400.38 140.85,-376.24 150.32,-352.34"/>
<polygon fill="none" stroke="#63b8ff" points="150.39,-352.16 148.88,-345.11 154.81,-341.01 156.32,-348.06 150.39,-352.16"/>
</a>
</g>
<text text-anchor="middle" x="162" y="-362" font-family="Helvetica,sans-Serif" font-size="10.00" fill="grey"> +cfg_</text>
</g>
<!-- Node3 -->
<g id="Node000003" class="node">
<title>Node3</title>
<g id="a_Node000003"><a xlink:href="classunilink_1_1concurrency_1_1ThreadSafeState.html" target="_top" xlink:title=" ">
<polygon fill="white" stroke="transparent" points="288,-669 156,-669 156,-448 288,-448 288,-669"/>
<text text-anchor="start" x="161" y="-656.5" font-family="Helvetica,sans-Serif" font-size="10.00">unilink::concurrency</text>
<text text-anchor="start" x="161" y="-645.5" font-family="Helvetica,sans-Serif" font-size="10.00">::ThreadSafeState&lt; base</text>
<text text-anchor="start" x="190" y="-634.5" font-family="Helvetica,sans-Serif" font-size="10.00">::LinkState &gt;</text>
<text text-anchor="start" x="220" y="-619.5" font-family="Helvetica,sans-Serif" font-size="10.00"> </text>
<text text-anchor="start" x="164" y="-604.5" font-family="Helvetica,sans-Serif" font-size="10.00">+</text>
<text text-anchor="start" x="181" y="-604.5" font-family="Helvetica,sans-Serif" font-size="10.00">ThreadSafeState()</text>
<text text-anchor="start" x="164" y="-589.5" font-family="Helvetica,sans-Serif" font-size="10.00">+</text>
<text text-anchor="start" x="181" y="-589.5" font-family="Helvetica,sans-Serif" font-size="10.00">ThreadSafeState()</text>
<text text-anchor="start" x="164" y="-574.5" font-family="Helvetica,sans-Serif" font-size="10.00">+</text>
<text text-anchor="start" x="181" y="-574.5" font-family="Helvetica,sans-Serif" font-size="10.00">ThreadSafeState()</text>
<text text-anchor="start" x="164" y="-559.5" font-family="Helvetica,sans-Serif" font-size="10.00">+</text>
<text text-anchor="start" x="181" y="-559.5" font-family="Helvetica,sans-Serif" font-size="10.00">operator=()</text>
<text text-anchor="start" x="164" y="-544.5" font-family="Helvetica,sans-Serif" font-size="10.00">+</text>
<text text-anchor="start" x="181" y="-544.5" font-family="Helvetica,sans-Serif" font-size="10.00">operator=()</text>
<text text-anchor="start" x="164" y="-529.5" font-family="Helvetica,sans-Serif" font-size="10.00">+</text>
<text text-anchor="start" x="181" y="-529.5" font-family="Helvetica,sans-Serif" font-size="10.00">state()</text>
<text text-anchor="start" x="164" y="-514.5" font-family="Helvetica,sans-Serif" font-size="10.00">+</text>
<text text-anchor="start" x="181" y="-514.5" font-family="Helvetica,sans-Serif" font-size="10.00">set_state()</text>
<text text-anchor="start" x="164" y="-499.5" font-family="Helvetica,sans-Serif" font-size="10.00">+</text>
<text text-anchor="start" x="181" y="-499.5" font-family="Helvetica,sans-Serif" font-size="10.00">set_state()</text>
<text text-anchor="start" x="164" y="-484.5" font-family="Helvetica,sans-Serif" font-size="10.00">+</text>
<text text-anchor="start" x="181" y="-484.5" font-family="Helvetica,sans-Serif" font-size="10.00">compare_and_set()</text>
<text text-anchor="start" x="164" y="-469.5" font-family="Helvetica,sans-Serif" font-size="10.00">+</text>
<text text-anchor="start" x="181" y="-469.5" font-family="Helvetica,sans-Serif" font-size="10.00">exchange()</text>
<text text-anchor="start" x="181" y="-454.5" font-family="Helvetica,sans-Serif" font-size="10.00">and 7 more...</text>
<polygon fill="#666666" stroke="#666666" points="156,-629.5 156,-629.5 288,-629.5 288,-629.5 156,-629.5"/>
<polygon fill="#666666" stroke="#666666" points="156,-614.5 156,-614.5 288,-614.5 288,-614.5 156,-614.5"/>
<polygon fill="none" stroke="#666666" points="156,-448 156,-669 288,-669 288,-448 156,-448"/>
</a>
</g>
</g>
<!-- Node3&#45;&gt;Node1 -->
<g id="edge2_Node000001_Node000003" class="edge">
<title>Node3&#45;&gt;Node1</title>
<g id="a_edge2_Node000001_Node000003"><a xlink:title=" ">
<path fill="none" stroke="#63b8ff" d="M222,-447.92C222,-418.47 222,-385.82 222,-353.57"/>
<polygon fill="none" stroke="#63b8ff" points="222,-353.24 218,-347.24 222,-341.24 226,-347.24 222,-353.24"/>
</a>
</g>
<text text-anchor="middle" x="243" y="-362" font-family="Helvetica,sans-Serif" font-size="10.00" fill="grey"> +state_</text>
</g>
<!-- Node4 -->
<g id="Node000004" class="node">
<title>Node4</title>
<g id="a_Node000004"><a xlink:href="classunilink_1_1concurrency_1_1ThreadSafeState.html" target="_top" xlink:title="Thread&#45;safe state management class.">
<polygon fill="white" stroke="transparent" points="306,-986 138,-986 138,-776 306,-776 306,-986"/>
<text text-anchor="start" x="143" y="-974" font-family="Helvetica,sans-Serif" font-size="10.00">unilink::concurrency</text>
<text text-anchor="start" x="143" y="-963" font-family="Helvetica,sans-Serif" font-size="10.00">::ThreadSafeState&lt; StateType &gt;</text>
<text text-anchor="start" x="220" y="-948" font-family="Helvetica,sans-Serif" font-size="10.00"> </text>
<text text-anchor="start" x="155" y="-933" font-family="Helvetica,sans-Serif" font-size="10.00">+</text>
<text text-anchor="start" x="181" y="-933" font-family="Helvetica,sans-Serif" font-size="10.00">ThreadSafeState()</text>
<text text-anchor="start" x="155" y="-918" font-family="Helvetica,sans-Serif" font-size="10.00">+</text>
<text text-anchor="start" x="181" y="-918" font-family="Helvetica,sans-Serif" font-size="10.00">ThreadSafeState()</text>
<text text-anchor="start" x="155" y="-903" font-family="Helvetica,sans-Serif" font-size="10.00">+</text>
<text text-anchor="start" x="181" y="-903" font-family="Helvetica,sans-Serif" font-size="10.00">operator=()</text>
<text text-anchor="start" x="155" y="-888" font-family="Helvetica,sans-Serif" font-size="10.00">+</text>
<text text-anchor="start" x="181" y="-888" font-family="Helvetica,sans-Serif" font-size="10.00">ThreadSafeState()</text>
<text text-anchor="start" x="155" y="-873" font-family="Helvetica,sans-Serif" font-size="10.00">+</text>
<text text-anchor="start" x="181" y="-873" font-family="Helvetica,sans-Serif" font-size="10.00">operator=()</text>
<text text-anchor="start" x="155" y="-858" font-family="Helvetica,sans-Serif" font-size="10.00">+</text>
<text text-anchor="start" x="181" y="-858" font-family="Helvetica,sans-Serif" font-size="10.00">state()</text>
<text text-anchor="start" x="155" y="-843" font-family="Helvetica,sans-Serif" font-size="10.00">+</text>
<text text-anchor="start" x="181" y="-843" font-family="Helvetica,sans-Serif" font-size="10.00">set_state()</text>
<text text-anchor="start" x="155" y="-828" font-family="Helvetica,sans-Serif" font-size="10.00">+</text>
<text text-anchor="start" x="181" y="-828" font-family="Helvetica,sans-Serif" font-size="10.00">set_state()</text>
<text text-anchor="start" x="155" y="-813" font-family="Helvetica,sans-Serif" font-size="10.00">+</text>
<text text-anchor="start" x="181" y="-813" font-family="Helvetica,sans-Serif" font-size="10.00">compare_and_set()</text>
<text text-anchor="start" x="155" y="-798" font-family="Helvetica,sans-Serif" font-size="10.00">+</text>
<text text-anchor="start" x="181" y="-798" font-family="Helvetica,sans-Serif" font-size="10.00">exchange()</text>
<text text-anchor="start" x="181" y="-783" font-family="Helvetica,sans-Serif" font-size="10.00">and 7 more...</text>
<polygon fill="#666666" stroke="#666666" points="138,-958 138,-958 306,-958 306,-958 138,-958"/>
<polygon fill="#666666" stroke="#666666" points="138,-943 138,-943 306,-943 306,-943 138,-943"/>
<polygon fill="none" stroke="#666666" points="138,-776 138,-986 306,-986 306,-776 138,-776"/>
</a>
</g>
</g>
<!-- Node4&#45;&gt;Node3 -->
<g id="edge3_Node000003_Node000004" class="edge">
<title>Node4&#45;&gt;Node3</title>
<g id="a_edge3_Node000003_Node000004"><a xlink:title=" ">
<path fill="none" stroke="orange" d="M222,-765.82C222,-734.36 222,-700.3 222,-669.1"/>
<polygon fill="orange" stroke="orange" points="218.5,-765.94 222,-775.94 225.5,-765.94 218.5,-765.94"/>
</a>
</g>
<text text-anchor="middle" x="272.5" y="-750" font-family="Helvetica,sans-Serif" font-size="10.00" fill="grey"> &lt; base::LinkState &gt;</text>
</g>
<!-- Node5 -->
<g id="Node000005" class="node">
<title>Node5</title>
<g id="a_Node000005"><a xlink:href="structunilink_1_1diagnostics_1_1RuntimeStatsCounters.html" target="_top" xlink:title=" ">
<polygon fill="white" stroke="transparent" points="432,-729 306,-729 306,-388 432,-388 432,-729"/>
<text text-anchor="start" x="311" y="-716.5" font-family="Helvetica,sans-Serif" font-size="10.00">unilink::diagnostics</text>
<text text-anchor="start" x="311" y="-705.5" font-family="Helvetica,sans-Serif" font-size="10.00">::RuntimeStatsCounters</text>
<text text-anchor="start" x="310" y="-690.5" font-family="Helvetica,sans-Serif" font-size="10.00">+</text>
<text text-anchor="start" x="323" y="-690.5" font-family="Helvetica,sans-Serif" font-size="10.00">bytes_accepted</text>
<text text-anchor="start" x="310" y="-675.5" font-family="Helvetica,sans-Serif" font-size="10.00">+</text>
<text text-anchor="start" x="323" y="-675.5" font-family="Helvetica,sans-Serif" font-size="10.00">messages_accepted</text>
<text text-anchor="start" x="310" y="-660.5" font-family="Helvetica,sans-Serif" font-size="10.00">+</text>
<text text-anchor="start" x="323" y="-660.5" font-family="Helvetica,sans-Serif" font-size="10.00">bytes_sent</text>
<text text-anchor="start" x="310" y="-645.5" font-family="Helvetica,sans-Serif" font-size="10.00">+</text>
<text text-anchor="start" x="323" y="-645.5" font-family="Helvetica,sans-Serif" font-size="10.00">messages_sent</text>
<text text-anchor="start" x="310" y="-630.5" font-family="Helvetica,sans-Serif" font-size="10.00">+</text>
<text text-anchor="start" x="323" y="-630.5" font-family="Helvetica,sans-Serif" font-size="10.00">bytes_received</text>
<text text-anchor="start" x="310" y="-615.5" font-family="Helvetica,sans-Serif" font-size="10.00">+</text>
<text text-anchor="start" x="323" y="-615.5" font-family="Helvetica,sans-Serif" font-size="10.00">messages_received</text>
<text text-anchor="start" x="310" y="-600.5" font-family="Helvetica,sans-Serif" font-size="10.00">+</text>
<text text-anchor="start" x="323" y="-600.5" font-family="Helvetica,sans-Serif" font-size="10.00">failed_sends</text>
<text text-anchor="start" x="310" y="-585.5" font-family="Helvetica,sans-Serif" font-size="10.00">+</text>
<text text-anchor="start" x="323" y="-585.5" font-family="Helvetica,sans-Serif" font-size="10.00">dropped_messages</text>
<text text-anchor="start" x="310" y="-570.5" font-family="Helvetica,sans-Serif" font-size="10.00">+</text>
<text text-anchor="start" x="323" y="-570.5" font-family="Helvetica,sans-Serif" font-size="10.00">dropped_bytes</text>
<text text-anchor="start" x="310" y="-555.5" font-family="Helvetica,sans-Serif" font-size="10.00">+</text>
<text text-anchor="start" x="323" y="-555.5" font-family="Helvetica,sans-Serif" font-size="10.00">backpressure_events</text>
<text text-anchor="start" x="310" y="-540.5" font-family="Helvetica,sans-Serif" font-size="10.00">+</text>
<text text-anchor="start" x="323" y="-540.5" font-family="Helvetica,sans-Serif" font-size="10.00">max_queued_bytes</text>
<text text-anchor="start" x="310" y="-525.5" font-family="Helvetica,sans-Serif" font-size="10.00">+</text>
<text text-anchor="start" x="323" y="-525.5" font-family="Helvetica,sans-Serif" font-size="10.00">record_accepted()</text>
<text text-anchor="start" x="310" y="-510.5" font-family="Helvetica,sans-Serif" font-size="10.00">+</text>
<text text-anchor="start" x="323" y="-510.5" font-family="Helvetica,sans-Serif" font-size="10.00">record_sent()</text>
<text text-anchor="start" x="310" y="-495.5" font-family="Helvetica,sans-Serif" font-size="10.00">+</text>
<text text-anchor="start" x="323" y="-495.5" font-family="Helvetica,sans-Serif" font-size="10.00">record_received()</text>
<text text-anchor="start" x="310" y="-480.5" font-family="Helvetica,sans-Serif" font-size="10.00">+</text>
<text text-anchor="start" x="323" y="-480.5" font-family="Helvetica,sans-Serif" font-size="10.00">record_failed_send()</text>
<text text-anchor="start" x="310" y="-465.5" font-family="Helvetica,sans-Serif" font-size="10.00">+</text>
<text text-anchor="start" x="323" y="-465.5" font-family="Helvetica,sans-Serif" font-size="10.00">record_dropped()</text>
<text text-anchor="start" x="310" y="-450.5" font-family="Helvetica,sans-Serif" font-size="10.00">+</text>
<text text-anchor="start" x="323" y="-450.5" font-family="Helvetica,sans-Serif" font-size="10.00">record_backpressure</text>
<text text-anchor="start" x="323" y="-439.5" font-family="Helvetica,sans-Serif" font-size="10.00">_event()</text>
<text text-anchor="start" x="310" y="-424.5" font-family="Helvetica,sans-Serif" font-size="10.00">+</text>
<text text-anchor="start" x="323" y="-424.5" font-family="Helvetica,sans-Serif" font-size="10.00">observe_queue()</text>
<text text-anchor="start" x="310" y="-409.5" font-family="Helvetica,sans-Serif" font-size="10.00">+</text>
<text text-anchor="start" x="323" y="-409.5" font-family="Helvetica,sans-Serif" font-size="10.00">snapshot()</text>
<text text-anchor="start" x="310" y="-394.5" font-family="Helvetica,sans-Serif" font-size="10.00">+</text>
<text text-anchor="start" x="323" y="-394.5" font-family="Helvetica,sans-Serif" font-size="10.00">reset()</text>
<polygon fill="#666666" stroke="#666666" points="306,-700.5 306,-700.5 432,-700.5 432,-700.5 306,-700.5"/>
<polygon fill="#666666" stroke="#666666" points="306,-535.5 306,-535.5 321,-535.5 321,-535.5 306,-535.5"/>
<polygon fill="#666666" stroke="#666666" points="321,-535.5 321,-535.5 432,-535.5 432,-535.5 321,-535.5"/>
<polygon fill="none" stroke="#666666" points="306,-388 306,-729 432,-729 432,-388 306,-388"/>
</a>
</g>
</g>
<!-- Node5&#45;&gt;Node1 -->
<g id="edge4_Node000001_Node000005" class="edge">
<title>Node5&#45;&gt;Node1</title>
<g id="a_edge4_Node000001_Node000005"><a xlink:title=" ">
<path fill="none" stroke="#63b8ff" d="M305.91,-391.84C300.97,-378.87 295.97,-365.74 291,-352.67"/>
<polygon fill="none" stroke="#63b8ff" points="290.9,-352.43 285.03,-348.25 286.63,-341.22 292.51,-345.4 290.9,-352.43"/>
</a>
</g>
<text text-anchor="middle" x="316.5" y="-362" font-family="Helvetica,sans-Serif" font-size="10.00" fill="grey"> +stats_</text>
</g>
</g>
</svg>

<g id="navigator" transform="translate(0 0)" fill="#404254">
  <rect fill="#f2f5e9" fill-opacity="0.5" stroke="#606060" stroke-width=".5" x="0" y="0" width="60" height="60"/>
  <use id="zoomplus" xlink:href="#zoomPlus" x="17" y="9" onmousedown="handleZoom(evt,'in')"/>
  <use id="zoomminus" xlink:href="#zoomMin" x="42" y="9" onmousedown="handleZoom(evt,'out')"/>
  <use id="reset" xlink:href="#resetDef" x="30" y="36" onmousedown="handleReset()"/>
   <use id="arrowup" xlink:href="#arrowUp" x="0" y="0" onmousedown="handlePan(0,-1)"/>
  <use id="arrowright" xlink:href="#arrowRight" x="0" y="0" onmousedown="handlePan(1,0)"/>
  <use id="arrowdown" xlink:href="#arrowDown" x="0" y="0" onmousedown="handlePan(0,1)"/>
  <use id="arrowleft" xlink:href="#arrowLeft" x="0" y="0" onmousedown="handlePan(-1,0)"/>
</g>
<svg viewBox="0 0 15 15" width="100%" height="30px" preserveAspectRatio="xMaxYMin meet">
 <g id="arrow_out" transform="scale(0.3 0.3)">
  <a xlink:href="structunilink_1_1transport_1_1TcpServer_1_1Impl__coll__graph_org.svg" target="_base">
   <rect id="button" ry="5" rx="5" y="6" x="6" height="38" width="38"
        fill="#f2f5e9" fill-opacity="0.5" stroke="#606060" stroke-width="1.0"/>
   <path id="arrow"
     d="M 11.500037,31.436501 C 11.940474,20.09759 22.043105,11.32322 32.158766,21.979434 L 37.068811,17.246167 C 37.068811,17.246167 37.088388,32 37.088388,32 L 22.160133,31.978069 C 22.160133,31.978069 26.997745,27.140456 26.997745,27.140456 C 18.528582,18.264221 13.291696,25.230495 11.500037,31.436501 z"
     style="fill:#404040;"/>
  </a>
 </g>
</svg>

<style type='text/css'>
<![CDATA[
[data-mouse-over-selected='false'] { opacity: 0.7; }
[data-mouse-over-selected='true']  { opacity: 1.0; }
]]>
</style>
<script type="application/ecmascript"><![CDATA[
document.addEventListener('DOMContentLoaded', (event) => {
  highlightEdges();
  highlightAdjacentNodes();
});
]]></script>
</svg>
