<?xml version="1.0" encoding="UTF-8" standalone="no"?>
<!DOCTYPE svg PUBLIC "-//W3C//DTD SVG 1.1//EN"
 "http://www.w3.org/Graphics/SVG/1.1/DTD/svg11.dtd">
<!-- Generated by graphviz version 2.43.0 (0)
 -->
<!-- Title: unilink::transport::UdpChannel::Impl::do_write Pages: 1 -->
<!--zoomable 108 -->

<svg id="main" version="1.1" xmlns="http://www.w3.org/2000/svg" xmlns:xlink="http://www.w3.org/1999/xlink" xml:space="preserve" onload="init(evt)">
<style type="text/css"><![CDATA[
.node, .edge {opacity: 0.7;}
.node.selected, .edge.selected {opacity: 1;}
.edge:hover path { stroke: red; }
.edge:hover polygon { stroke: red; fill: red; }
]]></style>

<defs>
  <circle id="rim" cx="0" cy="0" r="7"/>
  <circle id="rim2" cx="0" cy="0" r="3.5"/>
  <g id="zoomPlus">
    <use xlink:href="#rim" fill="#404040"><set attributeName="fill" to="#808080" begin="zoomplus.mouseover" end="zoomplus.mouseout"/></use>
    <path d="M-4,0h8M0,-4v8" fill="none" stroke="white" stroke-width="1.5" pointer-events="none"/>
  </g>
  <g id="zoomMin">
    <use xlink:href="#rim" fill="#404040"><set attributeName="fill" to="#808080" begin="zoomminus.mouseover" end="zoomminus.mouseout"/></use>
    <path d="M-4,0h8" fill="none" stroke="white" stroke-width="1.5" pointer-events="none"/>
  </g>
  <g id="arrowUp" transform="translate(30 24)">
    <use xlink:href="#rim"/>
    <path pointer-events="none" fill="none" stroke="white" stroke-width="1.5" d="M0,-3.0v7 M-2.5,-0.5L0,-3.0L2.5,-0.5"/>
  </g>
  <g id="arrowRight" transform="rotate(90) translate(36 -43)">
    <use xlink:href="#rim"/>
    <path pointer-events="none" fill="none" stroke="white" stroke-width="1.5" d="M0,-3.0v7 M-2.5,-0.5L0,-3.0L2.5,-0.5"/>
  </g>
  <g id="arrowDown" transform="rotate(180) translate(-30 -48)">
    <use xlink:href="#rim"/>
    <path pointer-events="none" fill="none" stroke="white" stroke-width="1.5" d="M0,-3.0v7 M-2.5,-0.5L0,-3.0L2.5,-0.5"/>
  </g>
  <g id="arrowLeft" transform="rotate(270) translate(-36 17)">
    <use xlink:href="#rim"/>
    <path pointer-events="none" fill="none" stroke="white" stroke-width="1.5" d="M0,-3.0v7 M-2.5,-0.5L0,-3.0L2.5,-0.5"/>
  </g>
  <g id="resetDef">
    <use xlink:href="#rim2" fill="#404040"><set attributeName="fill" to="#808080" begin="reset.mouseover" end="reset.mouseout"/></use>
  </g>
</defs>
<script type="application/ecmascript">
var viewWidth = 637;
var viewHeight = 108;
var sectionId = 'dynsection-5';
</script>
<script type="application/ecmascript" xlink:href="svg.min.js"/>
<svg id="graph" class="graph">
<g id="viewport">
<title>unilink::transport::UdpChannel::Impl::do_write</title>
<!-- Node1 -->
<g id="Node000001" class="node">
<title>Node1</title>
<g id="a_Node000001"><a xlink:title=" ">
<polygon fill="#999999" stroke="#666666" points="116,-70 0,-70 0,-29 116,-29 116,-70"/>
<text text-anchor="start" x="8" y="-58" font-family="Helvetica,sans-Serif" font-size="10.00">unilink::transport</text>
<text text-anchor="start" x="8" y="-47" font-family="Helvetica,sans-Serif" font-size="10.00">::UdpChannel::Impl::</text>
<text text-anchor="middle" x="58" y="-36" font-family="Helvetica,sans-Serif" font-size="10.00">do_write</text>
</a>
</g>
</g>
<!-- Node1&#45;&gt;Node1 -->
<g id="edge1_Node000001_Node000001" class="edge">
<title>Node1&#45;&gt;Node1</title>
<g id="a_edge1_Node000001_Node000001"><a xlink:title=" ">
<path fill="none" stroke="#63b8ff" d="M30.06,-70.1C27.02,-79.65 36.33,-88 58,-88 71.54,-88 80.26,-84.74 84.15,-79.96"/>
<polygon fill="#63b8ff" stroke="#63b8ff" points="87.6,-80.56 85.94,-70.1 80.71,-79.31 87.6,-80.56"/>
</a>
</g>
</g>
<!-- Node2 -->
<g id="Node000002" class="node">
<title>Node2</title>
<g id="a_Node000002"><a xlink:href="structunilink_1_1transport_1_1UdpChannel_1_1Impl.html#a4a285bf7d9f865446768b2147b7e4074" target="_top" xlink:title=" ">
<polygon fill="white" stroke="#666666" points="268,-70 152,-70 152,-29 268,-29 268,-70"/>
<text text-anchor="start" x="160" y="-58" font-family="Helvetica,sans-Serif" font-size="10.00">unilink::transport</text>
<text text-anchor="start" x="160" y="-47" font-family="Helvetica,sans-Serif" font-size="10.00">::UdpChannel::Impl::</text>
<text text-anchor="middle" x="210" y="-36" font-family="Helvetica,sans-Serif" font-size="10.00">report_backpressure</text>
</a>
</g>
</g>
<!-- Node1&#45;&gt;Node2 -->
<g id="edge2_Node000001_Node000002" class="edge">
<title>Node1&#45;&gt;Node2</title>
<g id="a_edge2_Node000001_Node000002"><a xlink:title=" ">
<path fill="none" stroke="#63b8ff" d="M116.14,-42.92C124.38,-42.76 132.92,-42.71 141.34,-42.78"/>
<polygon fill="#63b8ff" stroke="#63b8ff" points="141.48,-46.28 151.53,-42.92 141.57,-39.28 141.48,-46.28"/>
</a>
</g>
</g>
<!-- Node2&#45;&gt;Node1 -->
<g id="edge3_Node000002_Node000001" class="edge">
<title>Node2&#45;&gt;Node1</title>
<g id="a_edge3_Node000002_Node000001"><a xlink:title=" ">
<path fill="none" stroke="#63b8ff" d="M151.53,-56.08C143.28,-56.24 134.73,-56.29 126.31,-56.22"/>
<polygon fill="#63b8ff" stroke="#63b8ff" points="126.18,-52.72 116.14,-56.08 126.09,-59.72 126.18,-52.72"/>
</a>
</g>
</g>
<!-- Node3 -->
<g id="Node000003" class="node">
<title>Node3</title>
<g id="a_Node000003"><a xlink:href="structunilink_1_1transport_1_1UdpChannel_1_1Impl.html#a48a32bd74bd3623ca5dd6492ecb3049c" target="_top" xlink:title=" ">
<polygon fill="white" stroke="#666666" points="440.5,-100 324.5,-100 324.5,-59 440.5,-59 440.5,-100"/>
<text text-anchor="start" x="332.5" y="-88" font-family="Helvetica,sans-Serif" font-size="10.00">unilink::transport</text>
<text text-anchor="start" x="332.5" y="-77" font-family="Helvetica,sans-Serif" font-size="10.00">::UdpChannel::Impl::</text>
<text text-anchor="middle" x="382.5" y="-66" font-family="Helvetica,sans-Serif" font-size="10.00">observe_queue</text>
</a>
</g>
</g>
<!-- Node2&#45;&gt;Node3 -->
<g id="edge4_Node000002_Node000003" class="edge">
<title>Node2&#45;&gt;Node3</title>
<g id="a_edge4_Node000002_Node000003"><a xlink:title=" ">
<path fill="none" stroke="#63b8ff" d="M268.25,-59.57C283.09,-62.18 299.2,-65.02 314.49,-67.71"/>
<polygon fill="#63b8ff" stroke="#63b8ff" points="313.95,-71.17 324.4,-69.45 315.16,-64.27 313.95,-71.17"/>
</a>
</g>
</g>
<!-- Node5 -->
<g id="Node000005" class="node">
<title>Node5</title>
<g id="a_Node000005"><a xlink:href="structunilink_1_1diagnostics_1_1RuntimeStatsCounters.html#a26c3070c482b008b898d397b52ec0771" target="_top" xlink:title=" ">
<polygon fill="white" stroke="#666666" points="461,-41 304,-41 304,0 461,0 461,-41"/>
<text text-anchor="start" x="312" y="-29" font-family="Helvetica,sans-Serif" font-size="10.00">unilink::diagnostics</text>
<text text-anchor="start" x="312" y="-18" font-family="Helvetica,sans-Serif" font-size="10.00">::RuntimeStatsCounters</text>
<text text-anchor="middle" x="382.5" y="-7" font-family="Helvetica,sans-Serif" font-size="10.00">::record_backpressure_event</text>
</a>
</g>
</g>
<!-- Node2&#45;&gt;Node5 -->
<g id="edge6_Node000002_Node000005" class="edge">
<title>Node2&#45;&gt;Node5</title>
<g id="a_edge6_Node000002_Node000005"><a xlink:title=" ">
<path fill="none" stroke="#63b8ff" d="M268.25,-39.76C276.45,-38.37 285.05,-36.91 293.68,-35.44"/>
<polygon fill="#63b8ff" stroke="#63b8ff" points="294.53,-38.84 303.8,-33.72 293.36,-31.94 294.53,-38.84"/>
</a>
</g>
</g>
<!-- Node4 -->
<g id="Node000004" class="node">
<title>Node4</title>
<g id="a_Node000004"><a xlink:href="structunilink_1_1diagnostics_1_1RuntimeStatsCounters.html#a49b2ee2a4d5cd544eb0658007688d1bd" target="_top" xlink:title=" ">
<polygon fill="white" stroke="#666666" points="629,-100 497,-100 497,-59 629,-59 629,-100"/>
<text text-anchor="start" x="505" y="-88" font-family="Helvetica,sans-Serif" font-size="10.00">unilink::diagnostics</text>
<text text-anchor="start" x="505" y="-77" font-family="Helvetica,sans-Serif" font-size="10.00">::RuntimeStatsCounters</text>
<text text-anchor="middle" x="563" y="-66" font-family="Helvetica,sans-Serif" font-size="10.00">::observe_queue</text>
</a>
</g>
</g>
<!-- Node3&#45;&gt;Node4 -->
<g id="edge5_Node000003_Node000004" class="edge">
<title>Node3&#45;&gt;Node4</title>
<g id="a_edge5_Node000003_Node000004"><a xlink:title=" ">
<path fill="none" stroke="#63b8ff" d="M440.96,-79.5C455.45,-79.5 471.23,-79.5 486.46,-79.5"/>
<polygon fill="#63b8ff" stroke="#63b8ff" points="486.9,-83 496.9,-79.5 486.9,-76 486.9,-83"/>
</a>
</g>
</g>
</g>
</svg>

<g id="navigator" transform="translate(0 0)" fill="#404254">
  <rect fill="#f2f5e9" fill-opacity="0.5" stroke="#606060" stroke-width=".5" x="0" y="0" width="60" height="60"/>
  <use id="zoomplus" xlink:href="#zoomPlus" x="17" y="9" onmousedown="handleZoom(evt,'in')"/>
  <use id="zoomminus" xlink:href="#zoomMin" x="42" y="9" onmousedown="handleZoom(evt,'out')"/>
  <use id="reset" xlink:href="#resetDef" x="30" y="36" onmousedown="handleReset()"/>
   <use id="arrowup" xlink:href="#arrowUp" x="0" y="0" onmousedown="handlePan(0,-1)"/>
  <use id="arrowright" xlink:href="#arrowRight" x="0" y="0" onmousedown="handlePan(1,0)"/>
  <use id="arrowdown" xlink:href="#arrowDown" x="0" y="0" onmousedown="handlePan(0,1)"/>
  <use id="arrowleft" xlink:href="#arrowLeft" x="0" y="0" onmousedown="handlePan(-1,0)"/>
</g>
<svg viewBox="0 0 15 15" width="100%" height="30px" preserveAspectRatio="xMaxYMin meet">
 <g id="arrow_out" transform="scale(0.3 0.3)">
  <a xlink:href="structunilink_1_1transport_1_1UdpChannel_1_1Impl_ae29267b4cb8f4bc26f6f120ab30d5989_cgraph_org.svg" target="_base">
   <rect id="button" ry="5" rx="5" y="6" x="6" height="38" width="38"
        fill="#f2f5e9" fill-opacity="0.5" stroke="#606060" stroke-width="1.0"/>
   <path id="arrow"
     d="M 11.500037,31.436501 C 11.940474,20.09759 22.043105,11.32322 32.158766,21.979434 L 37.068811,17.246167 C 37.068811,17.246167 37.088388,32 37.088388,32 L 22.160133,31.978069 C 22.160133,31.978069 26.997745,27.140456 26.997745,27.140456 C 18.528582,18.264221 13.291696,25.230495 11.500037,31.436501 z"
     style="fill:#404040;"/>
  </a>
 </g>
</svg>

<style type='text/css'>
<![CDATA[
[data-mouse-over-selected='false'] { opacity: 0.7; }
[data-mouse-over-selected='true']  { opacity: 1.0; }
]]>
</style>
<script type="application/ecmascript"><![CDATA[
document.addEventListener('DOMContentLoaded', (event) => {
  highlightEdges();
  highlightAdjacentNodes();
});
]]></script>
</svg>
