<?xml version="1.0" encoding="UTF-8" standalone="no"?>
<!DOCTYPE svg PUBLIC "-//W3C//DTD SVG 1.1//EN"
 "http://www.w3.org/Graphics/SVG/1.1/DTD/svg11.dtd">
<!-- Generated by graphviz version 2.43.0 (0)
 -->
<!-- Title: unilink::transport::UdsClient::Impl::init Pages: 1 -->
<svg width="321pt" height="100pt"
 viewBox="0.00 0.00 321.00 99.50" xmlns="http://www.w3.org/2000/svg" xmlns:xlink="http://www.w3.org/1999/xlink">
<g id="graph0" class="graph" transform="scale(1 1) rotate(0) translate(4 95.5)">
<title>unilink::transport::UdsClient::Impl::init</title>
<polygon fill="white" stroke="transparent" points="-4,4 -4,-95.5 317,-95.5 317,4 -4,4"/>
<!-- Node1 -->
<g id="node1" class="node">
<title>Node1</title>
<g id="a_node1"><a xlink:title=" ">
<polygon fill="#bfbfbf" stroke="black" points="0,-27.5 0,-57.5 119,-57.5 119,-27.5 0,-27.5"/>
<text text-anchor="start" x="8" y="-45.5" font-family="Helvetica,sans-Serif" font-size="10.00">unilink::transport</text>
<text text-anchor="middle" x="59.5" y="-34.5" font-family="Helvetica,sans-Serif" font-size="10.00">::UdsClient::Impl::init</text>
</a>
</g>
</g>
<!-- Node2 -->
<g id="node2" class="node">
<title>Node2</title>
<g id="a_node2"><a xlink:href="structunilink_1_1transport_1_1UdsClient_1_1Impl.html#aa644859c7138a6784c64529c8306f389" target="_top" xlink:title=" ">
<polygon fill="white" stroke="black" points="155,-50 155,-91 313,-91 313,-50 155,-50"/>
<text text-anchor="start" x="163" y="-79" font-family="Helvetica,sans-Serif" font-size="10.00">unilink::transport</text>
<text text-anchor="start" x="163" y="-68" font-family="Helvetica,sans-Serif" font-size="10.00">::UdsClient::Impl::recalculate</text>
<text text-anchor="middle" x="234" y="-57" font-family="Helvetica,sans-Serif" font-size="10.00">_backpressure_bounds</text>
</a>
</g>
</g>
<!-- Node1&#45;&gt;Node2 -->
<g id="edge1" class="edge">
<title>Node1&#45;&gt;Node2</title>
<path fill="none" stroke="midnightblue" d="M119.38,-52.06C127.59,-53.39 136.17,-54.78 144.77,-56.18"/>
<polygon fill="midnightblue" stroke="midnightblue" points="144.43,-59.67 154.86,-57.82 145.55,-52.76 144.43,-59.67"/>
</g>
<!-- Node3 -->
<g id="node3" class="node">
<title>Node3</title>
<g id="a_node3"><a xlink:href="structunilink_1_1config_1_1UdsClientConfig.html#a24ef12d48494b9751f1b2b70f106d49c" target="_top" xlink:title=" ">
<polygon fill="white" stroke="black" points="158,-0.5 158,-30.5 310,-30.5 310,-0.5 158,-0.5"/>
<text text-anchor="start" x="166" y="-18.5" font-family="Helvetica,sans-Serif" font-size="10.00">unilink::config::UdsClient</text>
<text text-anchor="middle" x="234" y="-7.5" font-family="Helvetica,sans-Serif" font-size="10.00">Config::validate_and_clamp</text>
</a>
</g>
</g>
<!-- Node1&#45;&gt;Node3 -->
<g id="edge2" class="edge">
<title>Node1&#45;&gt;Node3</title>
<path fill="none" stroke="midnightblue" d="M119.38,-33.28C128.58,-31.84 138.25,-30.33 147.89,-28.82"/>
<polygon fill="midnightblue" stroke="midnightblue" points="148.57,-32.26 157.91,-27.25 147.49,-25.34 148.57,-32.26"/>
</g>
</g>
</svg>
