<?xml version="1.0" encoding="UTF-8" standalone="no"?>
<!DOCTYPE svg PUBLIC "-//W3C//DTD SVG 1.1//EN"
 "http://www.w3.org/Graphics/SVG/1.1/DTD/svg11.dtd">
<!-- Generated by graphviz version 2.43.0 (0)
 -->
<!-- Title: unilink::wrapper::Serial::Impl::start Pages: 1 -->
<svg width="492pt" height="216pt"
 viewBox="0.00 0.00 492.00 216.00" xmlns="http://www.w3.org/2000/svg" xmlns:xlink="http://www.w3.org/1999/xlink">
<g id="graph0" class="graph" transform="scale(1 1) rotate(0) translate(4 212)">
<title>unilink::wrapper::Serial::Impl::start</title>
<polygon fill="white" stroke="transparent" points="-4,4 -4,-212 488,-212 488,4 -4,4"/>
<!-- Node1 -->
<g id="node1" class="node">
<title>Node1</title>
<g id="a_node1"><a xlink:title=" ">
<polygon fill="#bfbfbf" stroke="black" points="0,-128.5 0,-158.5 129,-158.5 129,-128.5 0,-128.5"/>
<text text-anchor="start" x="8" y="-146.5" font-family="Helvetica,sans-Serif" font-size="10.00">unilink::wrapper::Serial</text>
<text text-anchor="middle" x="64.5" y="-135.5" font-family="Helvetica,sans-Serif" font-size="10.00">::Impl::start</text>
</a>
</g>
</g>
<!-- Node2 -->
<g id="node2" class="node">
<title>Node2</title>
<g id="a_node2"><a xlink:href="structunilink_1_1wrapper_1_1Serial_1_1Impl.html#a0932ad2d58a5900901d237e52b18a735" target="_top" xlink:title=" ">
<polygon fill="white" stroke="black" points="168,-177.5 168,-207.5 297,-207.5 297,-177.5 168,-177.5"/>
<text text-anchor="start" x="176" y="-195.5" font-family="Helvetica,sans-Serif" font-size="10.00">unilink::wrapper::Serial</text>
<text text-anchor="middle" x="232.5" y="-184.5" font-family="Helvetica,sans-Serif" font-size="10.00">::Impl::build_config</text>
</a>
</g>
</g>
<!-- Node1&#45;&gt;Node2 -->
<g id="edge1" class="edge">
<title>Node1&#45;&gt;Node2</title>
<path fill="none" stroke="midnightblue" d="M116.66,-158.6C133.78,-163.66 153.03,-169.34 170.81,-174.58"/>
<polygon fill="midnightblue" stroke="midnightblue" points="169.93,-177.97 180.51,-177.45 171.91,-171.26 169.93,-177.97"/>
</g>
<!-- Node3 -->
<g id="node3" class="node">
<title>Node3</title>
<g id="a_node3"><a xlink:href="classunilink_1_1factory_1_1ChannelFactory.html#ab3a1a57092352b627809138adadb34a6" target="_top" xlink:title=" ">
<polygon fill="white" stroke="black" points="165,-128.5 165,-158.5 300,-158.5 300,-128.5 165,-128.5"/>
<text text-anchor="start" x="173" y="-146.5" font-family="Helvetica,sans-Serif" font-size="10.00">unilink::factory::Channel</text>
<text text-anchor="middle" x="232.5" y="-135.5" font-family="Helvetica,sans-Serif" font-size="10.00">Factory::create</text>
</a>
</g>
</g>
<!-- Node1&#45;&gt;Node3 -->
<g id="edge2" class="edge">
<title>Node1&#45;&gt;Node3</title>
<path fill="none" stroke="midnightblue" d="M129.21,-143.5C137.62,-143.5 146.31,-143.5 154.91,-143.5"/>
<polygon fill="midnightblue" stroke="midnightblue" points="154.94,-147 164.94,-143.5 154.94,-140 154.94,-147"/>
</g>
<!-- Node4 -->
<g id="node4" class="node">
<title>Node4</title>
<g id="a_node4"><a xlink:href="structunilink_1_1wrapper_1_1Serial_1_1Impl.html#a9e6722cf4e4dbee24492d3f3e2c0a894" target="_top" xlink:title=" ">
<polygon fill="white" stroke="black" points="168,-68 168,-109 297,-109 297,-68 168,-68"/>
<text text-anchor="start" x="176" y="-97" font-family="Helvetica,sans-Serif" font-size="10.00">unilink::wrapper::Serial</text>
<text text-anchor="start" x="176" y="-86" font-family="Helvetica,sans-Serif" font-size="10.00">::Impl::setup_internal</text>
<text text-anchor="middle" x="232.5" y="-75" font-family="Helvetica,sans-Serif" font-size="10.00">_handlers</text>
</a>
</g>
</g>
<!-- Node1&#45;&gt;Node4 -->
<g id="edge3" class="edge">
<title>Node1&#45;&gt;Node4</title>
<path fill="none" stroke="midnightblue" d="M110.86,-128.47C125.95,-123.47 143.14,-117.78 159.72,-112.28"/>
<polygon fill="midnightblue" stroke="midnightblue" points="161,-115.55 169.39,-109.08 158.8,-108.9 161,-115.55"/>
</g>
<!-- Node5 -->
<g id="node5" class="node">
<title>Node5</title>
<g id="a_node5"><a xlink:href="classunilink_1_1memory_1_1SafeSpan.html#a203851d86025e579f73f04da0828e2bd" target="_top" xlink:title=" ">
<polygon fill="white" stroke="black" points="336,-147.5 336,-177.5 484,-177.5 484,-147.5 336,-147.5"/>
<text text-anchor="start" x="344" y="-165.5" font-family="Helvetica,sans-Serif" font-size="10.00">unilink::memory::SafeSpan</text>
<text text-anchor="middle" x="410" y="-154.5" font-family="Helvetica,sans-Serif" font-size="10.00">::data</text>
</a>
</g>
</g>
<!-- Node4&#45;&gt;Node5 -->
<g id="edge4" class="edge">
<title>Node4&#45;&gt;Node5</title>
<path fill="none" stroke="midnightblue" d="M278.36,-109.04C285.62,-112.47 293.04,-116.04 300,-119.5 316.2,-127.55 319.35,-131.43 336,-138.5 340.45,-140.39 345.1,-142.22 349.8,-143.98"/>
<polygon fill="midnightblue" stroke="midnightblue" points="348.9,-147.38 359.5,-147.48 351.28,-140.79 348.9,-147.38"/>
</g>
<!-- Node6 -->
<g id="node6" class="node">
<title>Node6</title>
<g id="a_node6"><a xlink:href="structunilink_1_1wrapper_1_1Serial_1_1Impl.html#ab39d81708e27dbf71661724c049bcee1" target="_top" xlink:title=" ">
<polygon fill="white" stroke="black" points="345.5,-98.5 345.5,-128.5 474.5,-128.5 474.5,-98.5 345.5,-98.5"/>
<text text-anchor="start" x="353.5" y="-116.5" font-family="Helvetica,sans-Serif" font-size="10.00">unilink::wrapper::Serial</text>
<text text-anchor="middle" x="410" y="-105.5" font-family="Helvetica,sans-Serif" font-size="10.00">::Impl::fulfill_all_locked</text>
</a>
</g>
</g>
<!-- Node4&#45;&gt;Node6 -->
<g id="edge5" class="edge">
<title>Node4&#45;&gt;Node6</title>
<path fill="none" stroke="midnightblue" d="M297.36,-97.6C309.73,-99.36 322.79,-101.22 335.44,-103.02"/>
<polygon fill="midnightblue" stroke="midnightblue" points="335.09,-106.51 345.49,-104.45 336.08,-99.58 335.09,-106.51"/>
</g>
<!-- Node7 -->
<g id="node7" class="node">
<title>Node7</title>
<g id="a_node7"><a xlink:href="classunilink_1_1memory_1_1SafeSpan.html#a0e63f52083142fa895b98ea38f51dc73" target="_top" xlink:title=" ">
<polygon fill="white" stroke="black" points="336,-49.5 336,-79.5 484,-79.5 484,-49.5 336,-49.5"/>
<text text-anchor="start" x="344" y="-67.5" font-family="Helvetica,sans-Serif" font-size="10.00">unilink::memory::SafeSpan</text>
<text text-anchor="middle" x="410" y="-56.5" font-family="Helvetica,sans-Serif" font-size="10.00">::size</text>
</a>
</g>
</g>
<!-- Node4&#45;&gt;Node7 -->
<g id="edge6" class="edge">
<title>Node4&#45;&gt;Node7</title>
<path fill="none" stroke="midnightblue" d="M297.36,-79.77C306.67,-78.49 316.37,-77.17 325.99,-75.85"/>
<polygon fill="midnightblue" stroke="midnightblue" points="326.54,-79.31 335.97,-74.49 325.59,-72.37 326.54,-79.31"/>
</g>
<!-- Node8 -->
<g id="node8" class="node">
<title>Node8</title>
<g id="a_node8"><a xlink:href="namespaceunilink_1_1base_1_1safe__convert.html#a3c41d9c6266428458c97891710ac2f0d" target="_top" xlink:title="Safely convert uint8_t* to const char* for string operations.">
<polygon fill="white" stroke="black" points="341.5,-0.5 341.5,-30.5 478.5,-30.5 478.5,-0.5 341.5,-0.5"/>
<text text-anchor="start" x="349.5" y="-18.5" font-family="Helvetica,sans-Serif" font-size="10.00">unilink::base::safe</text>
<text text-anchor="middle" x="410" y="-7.5" font-family="Helvetica,sans-Serif" font-size="10.00">_convert::uint8_to_string</text>
</a>
</g>
</g>
<!-- Node4&#45;&gt;Node8 -->
<g id="edge7" class="edge">
<title>Node4&#45;&gt;Node8</title>
<path fill="none" stroke="midnightblue" d="M274.94,-67.85C293.42,-58.96 315.59,-48.74 336,-40.5 341.41,-38.31 347.09,-36.15 352.8,-34.06"/>
<polygon fill="midnightblue" stroke="midnightblue" points="354.15,-37.29 362.38,-30.62 351.79,-30.7 354.15,-37.29"/>
</g>
</g>
</svg>
