<?xml version="1.0" encoding="UTF-8" standalone="no"?>
<!DOCTYPE svg PUBLIC "-//W3C//DTD SVG 1.1//EN"
 "http://www.w3.org/Graphics/SVG/1.1/DTD/svg11.dtd">
<!-- Generated by graphviz version 2.43.0 (0)
 -->
<!-- Title: unilink::wrapper::UdpServer::Impl::setup_internal_handlers Pages: 1 -->
<svg width="363pt" height="323pt"
 viewBox="0.00 0.00 363.00 323.00" xmlns="http://www.w3.org/2000/svg" xmlns:xlink="http://www.w3.org/1999/xlink">
<g id="graph0" class="graph" transform="scale(1 1) rotate(0) translate(4 319)">
<title>unilink::wrapper::UdpServer::Impl::setup_internal_handlers</title>
<polygon fill="white" stroke="transparent" points="-4,4 -4,-319 359,-319 359,4 -4,4"/>
<!-- Node1 -->
<g id="node1" class="node">
<title>Node1</title>
<g id="a_node1"><a xlink:title=" ">
<polygon fill="#bfbfbf" stroke="black" points="0,-137.5 0,-167.5 167,-167.5 167,-137.5 0,-137.5"/>
<text text-anchor="start" x="8" y="-155.5" font-family="Helvetica,sans-Serif" font-size="10.00">unilink::wrapper::UdpServer</text>
<text text-anchor="middle" x="83.5" y="-144.5" font-family="Helvetica,sans-Serif" font-size="10.00">::Impl::setup_internal_handlers</text>
</a>
</g>
</g>
<!-- Node2 -->
<g id="node2" class="node">
<title>Node2</title>
<g id="a_node2"><a xlink:href="classunilink_1_1memory_1_1SafeSpan.html#a203851d86025e579f73f04da0828e2bd" target="_top" xlink:title=" ">
<polygon fill="white" stroke="black" points="205,-284.5 205,-314.5 353,-314.5 353,-284.5 205,-284.5"/>
<text text-anchor="start" x="213" y="-302.5" font-family="Helvetica,sans-Serif" font-size="10.00">unilink::memory::SafeSpan</text>
<text text-anchor="middle" x="279" y="-291.5" font-family="Helvetica,sans-Serif" font-size="10.00">::data</text>
</a>
</g>
</g>
<!-- Node1&#45;&gt;Node2 -->
<g id="edge1" class="edge">
<title>Node1&#45;&gt;Node2</title>
<path fill="none" stroke="midnightblue" d="M95.12,-167.69C113.95,-193.51 155.68,-246.04 203,-275.5 205.64,-277.14 208.41,-278.69 211.25,-280.13"/>
<polygon fill="midnightblue" stroke="midnightblue" points="210.02,-283.42 220.56,-284.42 212.94,-277.06 210.02,-283.42"/>
</g>
<!-- Node3 -->
<g id="node3" class="node">
<title>Node3</title>
<g id="a_node3"><a xlink:href="classunilink_1_1wrapper_1_1UdpServer.html#ab2c693580ad3587072009509395cc22f" target="_top" xlink:title="Set a factory function to create a new framer for each client connection.">
<polygon fill="white" stroke="black" points="203,-235.5 203,-265.5 355,-265.5 355,-235.5 203,-235.5"/>
<text text-anchor="start" x="211" y="-253.5" font-family="Helvetica,sans-Serif" font-size="10.00">unilink::wrapper::UdpServer</text>
<text text-anchor="middle" x="279" y="-242.5" font-family="Helvetica,sans-Serif" font-size="10.00">::framer</text>
</a>
</g>
</g>
<!-- Node1&#45;&gt;Node3 -->
<g id="edge2" class="edge">
<title>Node1&#45;&gt;Node3</title>
<path fill="none" stroke="midnightblue" d="M105.01,-167.53C127.96,-183.8 166.69,-209.67 203,-226.5 207.09,-228.39 211.37,-230.2 215.72,-231.9"/>
<polygon fill="midnightblue" stroke="midnightblue" points="214.72,-235.27 225.32,-235.48 217.17,-228.71 214.72,-235.27"/>
</g>
<!-- Node4 -->
<g id="node4" class="node">
<title>Node4</title>
<g id="a_node4"><a xlink:href="structunilink_1_1wrapper_1_1UdpServer_1_1Impl.html#affd7f6bc86138ed402b21f816aeecf8d" target="_top" xlink:title=" ">
<polygon fill="white" stroke="black" points="203,-186.5 203,-216.5 355,-216.5 355,-186.5 203,-186.5"/>
<text text-anchor="start" x="211" y="-204.5" font-family="Helvetica,sans-Serif" font-size="10.00">unilink::wrapper::UdpServer</text>
<text text-anchor="middle" x="279" y="-193.5" font-family="Helvetica,sans-Serif" font-size="10.00">::Impl::fulfill_all_locked</text>
</a>
</g>
</g>
<!-- Node1&#45;&gt;Node4 -->
<g id="edge3" class="edge">
<title>Node1&#45;&gt;Node4</title>
<path fill="none" stroke="midnightblue" d="M143.87,-167.53C164.4,-172.73 187.57,-178.6 208.81,-183.98"/>
<polygon fill="midnightblue" stroke="midnightblue" points="208.19,-187.43 218.74,-186.49 209.91,-180.65 208.19,-187.43"/>
</g>
<!-- Node5 -->
<g id="node5" class="node">
<title>Node5</title>
<g id="a_node5"><a xlink:href="classunilink_1_1wrapper_1_1ServerInterface.html#a03b4193d371a68d017805e5c3aac206c" target="_top" xlink:title="Set a handler for complete messages extracted by the framer.">
<polygon fill="white" stroke="black" points="212.5,-137.5 212.5,-167.5 345.5,-167.5 345.5,-137.5 212.5,-137.5"/>
<text text-anchor="start" x="220.5" y="-155.5" font-family="Helvetica,sans-Serif" font-size="10.00">unilink::wrapper::Server</text>
<text text-anchor="middle" x="279" y="-144.5" font-family="Helvetica,sans-Serif" font-size="10.00">Interface::on_message</text>
</a>
</g>
</g>
<!-- Node1&#45;&gt;Node5 -->
<g id="edge4" class="edge">
<title>Node1&#45;&gt;Node5</title>
<path fill="none" stroke="midnightblue" d="M167.12,-152.5C178.8,-152.5 190.76,-152.5 202.3,-152.5"/>
<polygon fill="midnightblue" stroke="midnightblue" points="202.32,-156 212.32,-152.5 202.32,-149 202.32,-156"/>
</g>
<!-- Node6 -->
<g id="node6" class="node">
<title>Node6</title>
<g id="a_node6"><a xlink:href="classunilink_1_1memory_1_1SafeSpan.html#a0e63f52083142fa895b98ea38f51dc73" target="_top" xlink:title=" ">
<polygon fill="white" stroke="black" points="205,-88.5 205,-118.5 353,-118.5 353,-88.5 205,-88.5"/>
<text text-anchor="start" x="213" y="-106.5" font-family="Helvetica,sans-Serif" font-size="10.00">unilink::memory::SafeSpan</text>
<text text-anchor="middle" x="279" y="-95.5" font-family="Helvetica,sans-Serif" font-size="10.00">::size</text>
</a>
</g>
</g>
<!-- Node1&#45;&gt;Node6 -->
<g id="edge5" class="edge">
<title>Node1&#45;&gt;Node6</title>
<path fill="none" stroke="midnightblue" d="M143.87,-137.47C164.4,-132.27 187.57,-126.4 208.81,-121.02"/>
<polygon fill="midnightblue" stroke="midnightblue" points="209.91,-124.35 218.74,-118.51 208.19,-117.57 209.91,-124.35"/>
</g>
<!-- Node7 -->
<g id="node7" class="node">
<title>Node7</title>
<g id="a_node7"><a xlink:href="namespaceunilink.html#a945182ee4d2e3137a6c39f60501f5355" target="_top" xlink:title="Convert ErrorCode to human&#45;readable string.">
<polygon fill="white" stroke="black" points="230,-50 230,-69 328,-69 328,-50 230,-50"/>
<text text-anchor="middle" x="279" y="-57" font-family="Helvetica,sans-Serif" font-size="10.00">unilink::to_string</text>
</a>
</g>
</g>
<!-- Node1&#45;&gt;Node7 -->
<g id="edge6" class="edge">
<title>Node1&#45;&gt;Node7</title>
<path fill="none" stroke="midnightblue" d="M104.89,-137.36C127.74,-121.03 166.38,-95.26 203,-79.5 209.64,-76.64 216.79,-74.11 223.94,-71.88"/>
<polygon fill="midnightblue" stroke="midnightblue" points="225.04,-75.21 233.65,-69.04 223.07,-68.49 225.04,-75.21"/>
</g>
<!-- Node8 -->
<g id="node8" class="node">
<title>Node8</title>
<g id="a_node8"><a xlink:href="namespaceunilink_1_1base_1_1safe__convert.html#a3c41d9c6266428458c97891710ac2f0d" target="_top" xlink:title="Safely convert uint8_t* to const char* for string operations.">
<polygon fill="white" stroke="black" points="210.5,-0.5 210.5,-30.5 347.5,-30.5 347.5,-0.5 210.5,-0.5"/>
<text text-anchor="start" x="218.5" y="-18.5" font-family="Helvetica,sans-Serif" font-size="10.00">unilink::base::safe</text>
<text text-anchor="middle" x="279" y="-7.5" font-family="Helvetica,sans-Serif" font-size="10.00">_convert::uint8_to_string</text>
</a>
</g>
</g>
<!-- Node1&#45;&gt;Node8 -->
<g id="edge7" class="edge">
<title>Node1&#45;&gt;Node8</title>
<path fill="none" stroke="midnightblue" d="M96.74,-137.25C116.65,-113.41 158.31,-67.26 203,-40.5 206.58,-38.36 210.36,-36.37 214.25,-34.54"/>
<polygon fill="midnightblue" stroke="midnightblue" points="215.71,-37.72 223.48,-30.52 212.92,-31.3 215.71,-37.72"/>
</g>
</g>
</svg>
