<?xml version="1.0" encoding="UTF-8" standalone="no"?>
<!DOCTYPE svg PUBLIC "-//W3C//DTD SVG 1.1//EN"
 "http://www.w3.org/Graphics/SVG/1.1/DTD/svg11.dtd">
<!-- Generated by graphviz version 2.43.0 (0)
 -->
<!-- Title: unilink::config::ValidationResult::error Pages: 1 -->
<svg width="548pt" height="88pt"
 viewBox="0.00 0.00 548.00 88.00" xmlns="http://www.w3.org/2000/svg" xmlns:xlink="http://www.w3.org/1999/xlink">
<g id="graph0" class="graph" transform="scale(1 1) rotate(0) translate(4 84)">
<title>unilink::config::ValidationResult::error</title>
<polygon fill="white" stroke="transparent" points="-4,4 -4,-84 544,-84 544,4 -4,4"/>
<!-- Node1 -->
<g id="node1" class="node">
<title>Node1</title>
<g id="a_node1"><a xlink:title=" ">
<polygon fill="#bfbfbf" stroke="black" points="400,-24.5 400,-54.5 540,-54.5 540,-24.5 400,-24.5"/>
<text text-anchor="start" x="408" y="-42.5" font-family="Helvetica,sans-Serif" font-size="10.00">unilink::config::Validation</text>
<text text-anchor="middle" x="470" y="-31.5" font-family="Helvetica,sans-Serif" font-size="10.00">Result::error</text>
</a>
</g>
</g>
<!-- Node2 -->
<g id="node2" class="node">
<title>Node2</title>
<g id="a_node2"><a xlink:href="classunilink_1_1config_1_1ConfigManager.html#a88266f54f78cf3b638efb841f3d85a20" target="_top" xlink:title=" ">
<polygon fill="white" stroke="black" points="200,-49.5 200,-79.5 364,-79.5 364,-49.5 200,-49.5"/>
<text text-anchor="start" x="208" y="-67.5" font-family="Helvetica,sans-Serif" font-size="10.00">unilink::config::ConfigManager</text>
<text text-anchor="middle" x="282" y="-56.5" font-family="Helvetica,sans-Serif" font-size="10.00">::validate</text>
</a>
</g>
</g>
<!-- Node1&#45;&gt;Node2 -->
<g id="edge1" class="edge">
<title>Node1&#45;&gt;Node2</title>
<path fill="none" stroke="midnightblue" d="M389.6,-50.17C381.2,-51.3 372.66,-52.45 364.24,-53.58"/>
<polygon fill="midnightblue" stroke="midnightblue" points="390.3,-53.61 399.74,-48.81 389.36,-46.67 390.3,-53.61"/>
</g>
<!-- Node3 -->
<g id="node3" class="node">
<title>Node3</title>
<g id="a_node3"><a xlink:href="structunilink_1_1config_1_1ConfigManager_1_1Impl.html#add33863d8100f77c1a4f852d06419782" target="_top" xlink:title=" ">
<polygon fill="white" stroke="black" points="200,-0.5 200,-30.5 364,-30.5 364,-0.5 200,-0.5"/>
<text text-anchor="start" x="208" y="-18.5" font-family="Helvetica,sans-Serif" font-size="10.00">unilink::config::ConfigManager</text>
<text text-anchor="middle" x="282" y="-7.5" font-family="Helvetica,sans-Serif" font-size="10.00">::Impl::validate_value</text>
</a>
</g>
</g>
<!-- Node1&#45;&gt;Node3 -->
<g id="edge2" class="edge">
<title>Node1&#45;&gt;Node3</title>
<path fill="none" stroke="midnightblue" d="M389.6,-29.25C381.2,-28.17 372.66,-27.07 364.24,-25.98"/>
<polygon fill="midnightblue" stroke="midnightblue" points="389.37,-32.75 399.74,-30.56 390.27,-25.81 389.37,-32.75"/>
</g>
<!-- Node4 -->
<g id="node4" class="node">
<title>Node4</title>
<g id="a_node4"><a xlink:href="classunilink_1_1config_1_1ConfigManager.html#a53837e140f1c6e91b6922b26099a19c4" target="_top" xlink:title=" ">
<polygon fill="white" stroke="black" points="0,-0.5 0,-30.5 164,-30.5 164,-0.5 0,-0.5"/>
<text text-anchor="start" x="8" y="-18.5" font-family="Helvetica,sans-Serif" font-size="10.00">unilink::config::ConfigManager</text>
<text text-anchor="middle" x="82" y="-7.5" font-family="Helvetica,sans-Serif" font-size="10.00">::validate</text>
</a>
</g>
</g>
<!-- Node3&#45;&gt;Node4 -->
<g id="edge3" class="edge">
<title>Node3&#45;&gt;Node4</title>
<path fill="none" stroke="midnightblue" d="M189.64,-15.5C181.18,-15.5 172.65,-15.5 164.3,-15.5"/>
<polygon fill="midnightblue" stroke="midnightblue" points="189.89,-19 199.89,-15.5 189.89,-12 189.89,-19"/>
</g>
</g>
</svg>
