<?xml version="1.0" encoding="UTF-8" standalone="no"?>
<!DOCTYPE svg PUBLIC "-//W3C//DTD SVG 1.1//EN"
 "http://www.w3.org/Graphics/SVG/1.1/DTD/svg11.dtd">
<!-- Generated by graphviz version 2.43.0 (0)
 -->
<!-- Title: unilink::wrapper::Serial::Impl::send_line Pages: 1 -->
<svg width="657pt" height="86pt"
 viewBox="0.00 0.00 657.00 86.00" xmlns="http://www.w3.org/2000/svg" xmlns:xlink="http://www.w3.org/1999/xlink">
<g id="graph0" class="graph" transform="scale(1 1) rotate(0) translate(4 82)">
<title>unilink::wrapper::Serial::Impl::send_line</title>
<!-- Node1 -->
<g id="Node000001" class="node">
<title>Node1</title>
<g id="a_Node000001"><a xlink:title=" ">
<polygon fill="#999999" stroke="#666666" points="129,-54 0,-54 0,-24 129,-24 129,-54"/>
<text text-anchor="start" x="8" y="-42" font-family="Helvetica,sans-Serif" font-size="10.00">unilink::wrapper::Serial</text>
<text text-anchor="middle" x="64.5" y="-31" font-family="Helvetica,sans-Serif" font-size="10.00">::Impl::send_line</text>
</a>
</g>
</g>
<!-- Node2 -->
<g id="Node000002" class="node">
<title>Node2</title>
<g id="a_Node000002"><a xlink:href="structunilink_1_1wrapper_1_1Serial_1_1Impl.html#a0586e7f25cc0c91807c79106fc496d30" target="_top" xlink:title=" ">
<polygon fill="white" stroke="#666666" points="308,-78 165,-78 165,-48 308,-48 308,-78"/>
<text text-anchor="start" x="173" y="-66" font-family="Helvetica,sans-Serif" font-size="10.00">unilink::wrapper::Serial</text>
<text text-anchor="middle" x="236.5" y="-55" font-family="Helvetica,sans-Serif" font-size="10.00">::Impl::send_line_blocking</text>
</a>
</g>
</g>
<!-- Node1&#45;&gt;Node2 -->
<g id="edge1_Node000001_Node000002" class="edge">
<title>Node1&#45;&gt;Node2</title>
<g id="a_edge1_Node000001_Node000002"><a xlink:title=" ">
<path fill="none" stroke="#63b8ff" d="M129.29,-48C137.61,-49.18 146.23,-50.4 154.8,-51.61"/>
<polygon fill="#63b8ff" stroke="#63b8ff" points="154.41,-55.09 164.8,-53.02 155.39,-48.15 154.41,-55.09"/>
</a>
</g>
</g>
<!-- Node5 -->
<g id="Node000005" class="node">
<title>Node5</title>
<g id="a_Node000005"><a xlink:href="structunilink_1_1wrapper_1_1Serial_1_1Impl.html#ae1a000eb2f4b93645d6c5457398c4eb5" target="_top" xlink:title=" ">
<polygon fill="white" stroke="#666666" points="301,-30 172,-30 172,0 301,0 301,-30"/>
<text text-anchor="start" x="180" y="-18" font-family="Helvetica,sans-Serif" font-size="10.00">unilink::wrapper::Serial</text>
<text text-anchor="middle" x="236.5" y="-7" font-family="Helvetica,sans-Serif" font-size="10.00">::Impl::try_send_line</text>
</a>
</g>
</g>
<!-- Node1&#45;&gt;Node5 -->
<g id="edge4_Node000001_Node000005" class="edge">
<title>Node1&#45;&gt;Node5</title>
<g id="a_edge4_Node000001_Node000005"><a xlink:title=" ">
<path fill="none" stroke="#63b8ff" d="M129.29,-30C139.96,-28.49 151.11,-26.91 162.01,-25.38"/>
<polygon fill="#63b8ff" stroke="#63b8ff" points="162.51,-28.84 171.92,-23.98 161.53,-21.91 162.51,-28.84"/>
</a>
</g>
</g>
<!-- Node3 -->
<g id="Node000003" class="node">
<title>Node3</title>
<g id="a_Node000003"><a xlink:href="structunilink_1_1wrapper_1_1Serial_1_1Impl.html#a4b2e9e6e54b4a876ff9b7dd2bcac87e5" target="_top" xlink:title=" ">
<polygon fill="white" stroke="#666666" points="473,-78 344,-78 344,-48 473,-48 473,-78"/>
<text text-anchor="start" x="352" y="-66" font-family="Helvetica,sans-Serif" font-size="10.00">unilink::wrapper::Serial</text>
<text text-anchor="middle" x="408.5" y="-55" font-family="Helvetica,sans-Serif" font-size="10.00">::Impl::send_blocking</text>
</a>
</g>
</g>
<!-- Node2&#45;&gt;Node3 -->
<g id="edge2_Node000002_Node000003" class="edge">
<title>Node2&#45;&gt;Node3</title>
<g id="a_edge2_Node000002_Node000003"><a xlink:title=" ">
<path fill="none" stroke="#63b8ff" d="M308.12,-63C316.55,-63 325.18,-63 333.65,-63"/>
<polygon fill="#63b8ff" stroke="#63b8ff" points="333.89,-66.5 343.89,-63 333.89,-59.5 333.89,-66.5"/>
</a>
</g>
</g>
<!-- Node4 -->
<g id="Node000004" class="node">
<title>Node4</title>
<g id="a_Node000004"><a xlink:href="namespaceunilink_1_1base_1_1safe__convert.html#a575f6a399b270deff205277e7b9c3b6c" target="_top" xlink:title="Safely obtain a view of std::string as byte array without allocation.">
<polygon fill="white" stroke="#666666" points="649,-54 509,-54 509,-24 649,-24 649,-54"/>
<text text-anchor="start" x="517" y="-42" font-family="Helvetica,sans-Serif" font-size="10.00">unilink::base::safe</text>
<text text-anchor="middle" x="579" y="-31" font-family="Helvetica,sans-Serif" font-size="10.00">_convert::string_to_bytes</text>
</a>
</g>
</g>
<!-- Node3&#45;&gt;Node4 -->
<g id="edge3_Node000003_Node000004" class="edge">
<title>Node3&#45;&gt;Node4</title>
<g id="a_edge3_Node000003_Node000004"><a xlink:title=" ">
<path fill="none" stroke="#63b8ff" d="M473.2,-53.93C481.58,-52.73 490.24,-51.5 498.83,-50.28"/>
<polygon fill="#63b8ff" stroke="#63b8ff" points="499.45,-53.72 508.86,-48.85 498.47,-46.79 499.45,-53.72"/>
</a>
</g>
</g>
<!-- Node6 -->
<g id="Node000006" class="node">
<title>Node6</title>
<g id="a_Node000006"><a xlink:href="structunilink_1_1wrapper_1_1Serial_1_1Impl.html#aed466cfefe41704eaa5640e1fe19dfdd" target="_top" xlink:title=" ">
<polygon fill="white" stroke="#666666" points="473,-30 344,-30 344,0 473,0 473,-30"/>
<text text-anchor="start" x="352" y="-18" font-family="Helvetica,sans-Serif" font-size="10.00">unilink::wrapper::Serial</text>
<text text-anchor="middle" x="408.5" y="-7" font-family="Helvetica,sans-Serif" font-size="10.00">::Impl::try_send</text>
</a>
</g>
</g>
<!-- Node5&#45;&gt;Node6 -->
<g id="edge5_Node000005_Node000006" class="edge">
<title>Node5&#45;&gt;Node6</title>
<g id="a_edge5_Node000005_Node000006"><a xlink:title=" ">
<path fill="none" stroke="#63b8ff" d="M301.29,-15C311.85,-15 322.89,-15 333.68,-15"/>
<polygon fill="#63b8ff" stroke="#63b8ff" points="333.92,-18.5 343.92,-15 333.92,-11.5 333.92,-18.5"/>
</a>
</g>
</g>
<!-- Node6&#45;&gt;Node4 -->
<g id="edge6_Node000006_Node000004" class="edge">
<title>Node6&#45;&gt;Node4</title>
<g id="a_edge6_Node000006_Node000004"><a xlink:title=" ">
<path fill="none" stroke="#63b8ff" d="M473.2,-24.07C481.58,-25.27 490.24,-26.5 498.83,-27.72"/>
<polygon fill="#63b8ff" stroke="#63b8ff" points="498.47,-31.21 508.86,-29.15 499.45,-24.28 498.47,-31.21"/>
</a>
</g>
</g>
</g>
</svg>
