<?xml version="1.0" encoding="UTF-8" standalone="no"?>
<!DOCTYPE svg PUBLIC "-//W3C//DTD SVG 1.1//EN"
 "http://www.w3.org/Graphics/SVG/1.1/DTD/svg11.dtd">
<!-- Generated by graphviz version 2.43.0 (0)
 -->
<!-- Title: unilink::wrapper::UdsClient::Impl::setup_internal_handlers Pages: 1 -->
<svg width="554pt" height="134pt"
 viewBox="0.00 0.00 554.00 134.00" xmlns="http://www.w3.org/2000/svg" xmlns:xlink="http://www.w3.org/1999/xlink">
<g id="graph0" class="graph" transform="scale(1 1) rotate(0) translate(4 130)">
<title>unilink::wrapper::UdsClient::Impl::setup_internal_handlers</title>
<!-- Node1 -->
<g id="Node000001" class="node">
<title>Node1</title>
<g id="a_Node000001"><a xlink:title=" ">
<polygon fill="#999999" stroke="#666666" points="167,-78 0,-78 0,-48 167,-48 167,-78"/>
<text text-anchor="start" x="8" y="-66" font-family="Helvetica,sans-Serif" font-size="10.00">unilink::wrapper::UdsClient</text>
<text text-anchor="middle" x="83.5" y="-55" font-family="Helvetica,sans-Serif" font-size="10.00">::Impl::setup_internal_handlers</text>
</a>
</g>
</g>
<!-- Node2 -->
<g id="Node000002" class="node">
<title>Node2</title>
<g id="a_Node000002"><a xlink:href="structunilink_1_1wrapper_1_1UdsClient_1_1Impl.html#a0a04e9716d88025b4468d63b15b39bea" target="_top" xlink:title=" ">
<polygon fill="white" stroke="#666666" points="356.5,-126 207.5,-126 207.5,-96 356.5,-96 356.5,-126"/>
<text text-anchor="start" x="215.5" y="-114" font-family="Helvetica,sans-Serif" font-size="10.00">unilink::wrapper::UdsClient</text>
<text text-anchor="middle" x="282" y="-103" font-family="Helvetica,sans-Serif" font-size="10.00">::Impl::fulfill_all_locked</text>
</a>
</g>
</g>
<!-- Node1&#45;&gt;Node2 -->
<g id="edge1_Node000001_Node000002" class="edge">
<title>Node1&#45;&gt;Node2</title>
<g id="a_edge1_Node000001_Node000002"><a xlink:title=" ">
<path fill="none" stroke="#63b8ff" d="M146.13,-78.06C166.34,-82.99 188.97,-88.52 209.82,-93.61"/>
<polygon fill="#63b8ff" stroke="#63b8ff" points="209.04,-97.02 219.58,-96 210.7,-90.22 209.04,-97.02"/>
</a>
</g>
</g>
<!-- Node3 -->
<g id="Node000003" class="node">
<title>Node3</title>
<g id="a_Node000003"><a xlink:href="structunilink_1_1wrapper_1_1UdsClient_1_1Impl.html#adc1d471a380a6a06d3aea9970ef0cfe8" target="_top" xlink:title=" ">
<polygon fill="white" stroke="#666666" points="361,-78 203,-78 203,-48 361,-48 361,-78"/>
<text text-anchor="start" x="211" y="-66" font-family="Helvetica,sans-Serif" font-size="10.00">unilink::wrapper::UdsClient</text>
<text text-anchor="middle" x="282" y="-55" font-family="Helvetica,sans-Serif" font-size="10.00">::Impl::schedule_batch_timer</text>
</a>
</g>
</g>
<!-- Node1&#45;&gt;Node3 -->
<g id="edge2_Node000001_Node000003" class="edge">
<title>Node1&#45;&gt;Node3</title>
<g id="a_edge2_Node000001_Node000003"><a xlink:title=" ">
<path fill="none" stroke="#63b8ff" d="M167.26,-63C175.62,-63 184.12,-63 192.53,-63"/>
<polygon fill="#63b8ff" stroke="#63b8ff" points="192.72,-66.5 202.72,-63 192.72,-59.5 192.72,-66.5"/>
</a>
</g>
</g>
<!-- Node5 -->
<g id="Node000005" class="node">
<title>Node5</title>
<g id="a_Node000005"><a xlink:href="namespaceunilink_1_1diagnostics.html#a54b6b94a2a2b770022045845ec4eaada" target="_top" xlink:title="Converts ErrorInfo to wrapper::ErrorContext.">
<polygon fill="white" stroke="#666666" points="337.5,-30 226.5,-30 226.5,0 337.5,0 337.5,-30"/>
<text text-anchor="start" x="234.5" y="-18" font-family="Helvetica,sans-Serif" font-size="10.00">unilink::diagnostics</text>
<text text-anchor="middle" x="282" y="-7" font-family="Helvetica,sans-Serif" font-size="10.00">::to_error_context</text>
</a>
</g>
</g>
<!-- Node1&#45;&gt;Node5 -->
<g id="edge4_Node000001_Node000005" class="edge">
<title>Node1&#45;&gt;Node5</title>
<g id="a_edge4_Node000001_Node000005"><a xlink:title=" ">
<path fill="none" stroke="#63b8ff" d="M146.13,-47.94C168.49,-42.48 193.79,-36.3 216.4,-30.78"/>
<polygon fill="#63b8ff" stroke="#63b8ff" points="217.35,-34.15 226.24,-28.38 215.69,-27.35 217.35,-34.15"/>
</a>
</g>
</g>
<!-- Node4 -->
<g id="Node000004" class="node">
<title>Node4</title>
<g id="a_Node000004"><a xlink:href="structunilink_1_1wrapper_1_1UdsClient_1_1Impl.html#ae261811fb70a0c12efb1f2a80a01a65b" target="_top" xlink:title=" ">
<polygon fill="white" stroke="#666666" points="546,-78 397,-78 397,-48 546,-48 546,-78"/>
<text text-anchor="start" x="405" y="-66" font-family="Helvetica,sans-Serif" font-size="10.00">unilink::wrapper::UdsClient</text>
<text text-anchor="middle" x="471.5" y="-55" font-family="Helvetica,sans-Serif" font-size="10.00">::Impl::flush_batches</text>
</a>
</g>
</g>
<!-- Node3&#45;&gt;Node4 -->
<g id="edge3_Node000003_Node000004" class="edge">
<title>Node3&#45;&gt;Node4</title>
<g id="a_edge3_Node000003_Node000004"><a xlink:title=" ">
<path fill="none" stroke="#63b8ff" d="M361.16,-63C369.68,-63 378.38,-63 386.96,-63"/>
<polygon fill="#63b8ff" stroke="#63b8ff" points="386.97,-66.5 396.97,-63 386.97,-59.5 386.97,-66.5"/>
</a>
</g>
</g>
<!-- Node6 -->
<g id="Node000006" class="node">
<title>Node6</title>
<g id="a_Node000006"><a xlink:href="namespaceunilink_1_1diagnostics.html#aee016aa3a0ee29635787a9755eb352f1" target="_top" xlink:title="Maps boost::system::error_code to Unilink ErrorCode.">
<polygon fill="white" stroke="#666666" points="535.5,-30 407.5,-30 407.5,0 535.5,0 535.5,-30"/>
<text text-anchor="start" x="415.5" y="-18" font-family="Helvetica,sans-Serif" font-size="10.00">unilink::diagnostics</text>
<text text-anchor="middle" x="471.5" y="-7" font-family="Helvetica,sans-Serif" font-size="10.00">::to_unilink_error_code</text>
</a>
</g>
</g>
<!-- Node5&#45;&gt;Node6 -->
<g id="edge5_Node000005_Node000006" class="edge">
<title>Node5&#45;&gt;Node6</title>
<g id="a_edge5_Node000005_Node000006"><a xlink:title=" ">
<path fill="none" stroke="#63b8ff" d="M337.74,-15C356.33,-15 377.42,-15 397.22,-15"/>
<polygon fill="#63b8ff" stroke="#63b8ff" points="397.44,-18.5 407.44,-15 397.44,-11.5 397.44,-18.5"/>
</a>
</g>
</g>
</g>
</svg>
