<?xml version="1.0" encoding="UTF-8" standalone="no"?>
<!DOCTYPE svg PUBLIC "-//W3C//DTD SVG 1.1//EN"
 "http://www.w3.org/Graphics/SVG/1.1/DTD/svg11.dtd">
<!-- Generated by graphviz version 2.43.0 (0)
 -->
<!-- Title: unilink::wrapper::UdsServer::Impl::start Pages: 1 -->
<!--zoomable 182 -->

<svg id="main" version="1.1" xmlns="http://www.w3.org/2000/svg" xmlns:xlink="http://www.w3.org/1999/xlink" xml:space="preserve" onload="init(evt)">
<style type="text/css"><![CDATA[
.node, .edge {opacity: 0.7;}
.node.selected, .edge.selected {opacity: 1;}
.edge:hover path { stroke: red; }
.edge:hover polygon { stroke: red; fill: red; }
]]></style>

<defs>
  <circle id="rim" cx="0" cy="0" r="7"/>
  <circle id="rim2" cx="0" cy="0" r="3.5"/>
  <g id="zoomPlus">
    <use xlink:href="#rim" fill="#404040"><set attributeName="fill" to="#808080" begin="zoomplus.mouseover" end="zoomplus.mouseout"/></use>
    <path d="M-4,0h8M0,-4v8" fill="none" stroke="white" stroke-width="1.5" pointer-events="none"/>
  </g>
  <g id="zoomMin">
    <use xlink:href="#rim" fill="#404040"><set attributeName="fill" to="#808080" begin="zoomminus.mouseover" end="zoomminus.mouseout"/></use>
    <path d="M-4,0h8" fill="none" stroke="white" stroke-width="1.5" pointer-events="none"/>
  </g>
  <g id="arrowUp" transform="translate(30 24)">
    <use xlink:href="#rim"/>
    <path pointer-events="none" fill="none" stroke="white" stroke-width="1.5" d="M0,-3.0v7 M-2.5,-0.5L0,-3.0L2.5,-0.5"/>
  </g>
  <g id="arrowRight" transform="rotate(90) translate(36 -43)">
    <use xlink:href="#rim"/>
    <path pointer-events="none" fill="none" stroke="white" stroke-width="1.5" d="M0,-3.0v7 M-2.5,-0.5L0,-3.0L2.5,-0.5"/>
  </g>
  <g id="arrowDown" transform="rotate(180) translate(-30 -48)">
    <use xlink:href="#rim"/>
    <path pointer-events="none" fill="none" stroke="white" stroke-width="1.5" d="M0,-3.0v7 M-2.5,-0.5L0,-3.0L2.5,-0.5"/>
  </g>
  <g id="arrowLeft" transform="rotate(270) translate(-36 17)">
    <use xlink:href="#rim"/>
    <path pointer-events="none" fill="none" stroke="white" stroke-width="1.5" d="M0,-3.0v7 M-2.5,-0.5L0,-3.0L2.5,-0.5"/>
  </g>
  <g id="resetDef">
    <use xlink:href="#rim2" fill="#404040"><set attributeName="fill" to="#808080" begin="reset.mouseover" end="reset.mouseout"/></use>
  </g>
</defs>
<script type="application/ecmascript">
var viewWidth = 551;
var viewHeight = 182;
var sectionId = 'dynsection-6';
</script>
<script type="application/ecmascript" xlink:href="svg.min.js"/>
<svg id="graph" class="graph">
<g id="viewport">
<title>unilink::wrapper::UdsServer::Impl::start</title>
<!-- Node1 -->
<g id="Node000001" class="node">
<title>Node1</title>
<g id="a_Node000001"><a xlink:title=" ">
<polygon fill="#999999" stroke="#666666" points="152,-126 0,-126 0,-96 152,-96 152,-126"/>
<text text-anchor="start" x="8" y="-114" font-family="Helvetica,sans-Serif" font-size="10.00">unilink::wrapper::UdsServer</text>
<text text-anchor="middle" x="76" y="-103" font-family="Helvetica,sans-Serif" font-size="10.00">::Impl::start</text>
</a>
</g>
</g>
<!-- Node2 -->
<g id="Node000002" class="node">
<title>Node2</title>
<g id="a_Node000002"><a xlink:href="classunilink_1_1factory_1_1ChannelFactory.html#ab3a1a57092352b627809138adadb34a6" target="_top" xlink:title=" ">
<polygon fill="white" stroke="#666666" points="339,-150 204,-150 204,-120 339,-120 339,-150"/>
<text text-anchor="start" x="212" y="-138" font-family="Helvetica,sans-Serif" font-size="10.00">unilink::factory::Channel</text>
<text text-anchor="middle" x="271.5" y="-127" font-family="Helvetica,sans-Serif" font-size="10.00">Factory::create</text>
</a>
</g>
</g>
<!-- Node1&#45;&gt;Node2 -->
<g id="edge1_Node000001_Node000002" class="edge">
<title>Node1&#45;&gt;Node2</title>
<g id="a_edge1_Node000001_Node000002"><a xlink:title=" ">
<path fill="none" stroke="#63b8ff" d="M152.09,-120.31C165.85,-122.02 180.23,-123.8 194.03,-125.52"/>
<polygon fill="#63b8ff" stroke="#63b8ff" points="193.61,-128.99 203.97,-126.75 194.47,-122.04 193.61,-128.99"/>
</a>
</g>
</g>
<!-- Node3 -->
<g id="Node000003" class="node">
<title>Node3</title>
<g id="a_Node000003"><a xlink:href="structunilink_1_1wrapper_1_1UdsServer_1_1Impl.html#a10ed4dde741e2d4077f3df717d38cde5" target="_top" xlink:title=" ">
<polygon fill="white" stroke="#666666" points="355,-102 188,-102 188,-72 355,-72 355,-102"/>
<text text-anchor="start" x="196" y="-90" font-family="Helvetica,sans-Serif" font-size="10.00">unilink::wrapper::UdsServer</text>
<text text-anchor="middle" x="271.5" y="-79" font-family="Helvetica,sans-Serif" font-size="10.00">::Impl::setup_internal_handlers</text>
</a>
</g>
</g>
<!-- Node1&#45;&gt;Node3 -->
<g id="edge2_Node000001_Node000003" class="edge">
<title>Node1&#45;&gt;Node3</title>
<g id="a_edge2_Node000001_Node000003"><a xlink:title=" ">
<path fill="none" stroke="#63b8ff" d="M152.09,-101.69C160.49,-100.64 169.12,-99.57 177.7,-98.51"/>
<polygon fill="#63b8ff" stroke="#63b8ff" points="178.26,-101.97 187.75,-97.26 177.39,-95.02 178.26,-101.97"/>
</a>
</g>
</g>
<!-- Node4 -->
<g id="Node000004" class="node">
<title>Node4</title>
<g id="a_Node000004"><a xlink:href="classunilink_1_1memory_1_1SafeSpan.html#a203851d86025e579f73f04da0828e2bd" target="_top" xlink:title=" ">
<polygon fill="white" stroke="#666666" points="541,-174 393,-174 393,-144 541,-144 541,-174"/>
<text text-anchor="start" x="401" y="-162" font-family="Helvetica,sans-Serif" font-size="10.00">unilink::memory::SafeSpan</text>
<text text-anchor="middle" x="467" y="-151" font-family="Helvetica,sans-Serif" font-size="10.00">::data</text>
</a>
</g>
</g>
<!-- Node3&#45;&gt;Node4 -->
<g id="edge3_Node000003_Node000004" class="edge">
<title>Node3&#45;&gt;Node4</title>
<g id="a_edge3_Node000003_Node000004"><a xlink:title=" ">
<path fill="none" stroke="#63b8ff" d="M332.33,-102.05C340.1,-104.68 347.83,-107.66 355,-111 372.43,-119.11 373.68,-126.66 391,-135 394.81,-136.84 398.8,-138.58 402.86,-140.22"/>
<polygon fill="#63b8ff" stroke="#63b8ff" points="401.84,-143.58 412.43,-143.88 404.34,-137.04 401.84,-143.58"/>
</a>
</g>
</g>
<!-- Node5 -->
<g id="Node000005" class="node">
<title>Node5</title>
<g id="a_Node000005"><a xlink:href="structunilink_1_1wrapper_1_1UdsServer_1_1Impl.html#aaec314068a25262497edd3457085551e" target="_top" xlink:title=" ">
<polygon fill="white" stroke="#666666" points="543,-126 391,-126 391,-96 543,-96 543,-126"/>
<text text-anchor="start" x="399" y="-114" font-family="Helvetica,sans-Serif" font-size="10.00">unilink::wrapper::UdsServer</text>
<text text-anchor="middle" x="467" y="-103" font-family="Helvetica,sans-Serif" font-size="10.00">::Impl::fulfill_all_locked</text>
</a>
</g>
</g>
<!-- Node3&#45;&gt;Node5 -->
<g id="edge4_Node000003_Node000005" class="edge">
<title>Node3&#45;&gt;Node5</title>
<g id="a_edge4_Node000003_Node000005"><a xlink:title=" ">
<path fill="none" stroke="#63b8ff" d="M355.12,-97.25C363.61,-98.3 372.25,-99.37 380.77,-100.43"/>
<polygon fill="#63b8ff" stroke="#63b8ff" points="380.34,-103.9 390.7,-101.66 381.2,-96.96 380.34,-103.9"/>
</a>
</g>
</g>
<!-- Node6 -->
<g id="Node000006" class="node">
<title>Node6</title>
<g id="a_Node000006"><a xlink:href="classunilink_1_1memory_1_1SafeSpan.html#a0e63f52083142fa895b98ea38f51dc73" target="_top" xlink:title=" ">
<polygon fill="white" stroke="#666666" points="541,-78 393,-78 393,-48 541,-48 541,-78"/>
<text text-anchor="start" x="401" y="-66" font-family="Helvetica,sans-Serif" font-size="10.00">unilink::memory::SafeSpan</text>
<text text-anchor="middle" x="467" y="-55" font-family="Helvetica,sans-Serif" font-size="10.00">::size</text>
</a>
</g>
</g>
<!-- Node3&#45;&gt;Node6 -->
<g id="edge5_Node000003_Node000006" class="edge">
<title>Node3&#45;&gt;Node6</title>
<g id="a_edge5_Node000003_Node000006"><a xlink:title=" ">
<path fill="none" stroke="#63b8ff" d="M355.12,-76.75C364.23,-75.62 373.5,-74.47 382.62,-73.34"/>
<polygon fill="#63b8ff" stroke="#63b8ff" points="383.33,-76.78 392.82,-72.08 382.47,-69.83 383.33,-76.78"/>
</a>
</g>
</g>
<!-- Node7 -->
<g id="Node000007" class="node">
<title>Node7</title>
<g id="a_Node000007"><a xlink:href="namespaceunilink_1_1base_1_1safe__convert.html#a3c41d9c6266428458c97891710ac2f0d" target="_top" xlink:title="Safely convert uint8_t* to const char* for string operations.">
<polygon fill="white" stroke="#666666" points="535.5,-30 398.5,-30 398.5,0 535.5,0 535.5,-30"/>
<text text-anchor="start" x="406.5" y="-18" font-family="Helvetica,sans-Serif" font-size="10.00">unilink::base::safe</text>
<text text-anchor="middle" x="467" y="-7" font-family="Helvetica,sans-Serif" font-size="10.00">_convert::uint8_to_string</text>
</a>
</g>
</g>
<!-- Node3&#45;&gt;Node7 -->
<g id="edge6_Node000003_Node000007" class="edge">
<title>Node3&#45;&gt;Node7</title>
<g id="a_edge6_Node000003_Node000007"><a xlink:title=" ">
<path fill="none" stroke="#63b8ff" d="M307.75,-71.91C331.18,-62.08 362.72,-49.24 391,-39 396.22,-37.11 401.68,-35.22 407.16,-33.36"/>
<polygon fill="#63b8ff" stroke="#63b8ff" points="408.62,-36.57 417,-30.09 406.41,-29.92 408.62,-36.57"/>
</a>
</g>
</g>
</g>
</svg>

<g id="navigator" transform="translate(0 0)" fill="#404254">
  <rect fill="#f2f5e9" fill-opacity="0.5" stroke="#606060" stroke-width=".5" x="0" y="0" width="60" height="60"/>
  <use id="zoomplus" xlink:href="#zoomPlus" x="17" y="9" onmousedown="handleZoom(evt,'in')"/>
  <use id="zoomminus" xlink:href="#zoomMin" x="42" y="9" onmousedown="handleZoom(evt,'out')"/>
  <use id="reset" xlink:href="#resetDef" x="30" y="36" onmousedown="handleReset()"/>
   <use id="arrowup" xlink:href="#arrowUp" x="0" y="0" onmousedown="handlePan(0,-1)"/>
  <use id="arrowright" xlink:href="#arrowRight" x="0" y="0" onmousedown="handlePan(1,0)"/>
  <use id="arrowdown" xlink:href="#arrowDown" x="0" y="0" onmousedown="handlePan(0,1)"/>
  <use id="arrowleft" xlink:href="#arrowLeft" x="0" y="0" onmousedown="handlePan(-1,0)"/>
</g>
<svg viewBox="0 0 15 15" width="100%" height="30px" preserveAspectRatio="xMaxYMin meet">
 <g id="arrow_out" transform="scale(0.3 0.3)">
  <a xlink:href="structunilink_1_1wrapper_1_1UdsServer_1_1Impl_aecb2e08ff201c840d9f5d2a90f016299_cgraph_org.svg" target="_base">
   <rect id="button" ry="5" rx="5" y="6" x="6" height="38" width="38"
        fill="#f2f5e9" fill-opacity="0.5" stroke="#606060" stroke-width="1.0"/>
   <path id="arrow"
     d="M 11.500037,31.436501 C 11.940474,20.09759 22.043105,11.32322 32.158766,21.979434 L 37.068811,17.246167 C 37.068811,17.246167 37.088388,32 37.088388,32 L 22.160133,31.978069 C 22.160133,31.978069 26.997745,27.140456 26.997745,27.140456 C 18.528582,18.264221 13.291696,25.230495 11.500037,31.436501 z"
     style="fill:#404040;"/>
  </a>
 </g>
</svg>

<style type='text/css'>
<![CDATA[
[data-mouse-over-selected='false'] { opacity: 0.7; }
[data-mouse-over-selected='true']  { opacity: 1.0; }
]]>
</style>
<script type="application/ecmascript"><![CDATA[
document.addEventListener('DOMContentLoaded', (event) => {
  highlightEdges();
  highlightAdjacentNodes();
});
]]></script>
</svg>
