<?xml version="1.0" encoding="UTF-8" standalone="no"?>
<!DOCTYPE svg PUBLIC "-//W3C//DTD SVG 1.1//EN"
 "http://www.w3.org/Graphics/SVG/1.1/DTD/svg11.dtd">
<!-- Generated by graphviz version 2.43.0 (0)
 -->
<!-- Title: unilink::transport::TcpClient::Impl::schedule_retry Pages: 1 -->
<svg width="567pt" height="78pt"
 viewBox="0.00 0.00 567.00 77.50" xmlns="http://www.w3.org/2000/svg" xmlns:xlink="http://www.w3.org/1999/xlink">
<g id="graph0" class="graph" transform="scale(1 1) rotate(0) translate(4 73.5)">
<title>unilink::transport::TcpClient::Impl::schedule_retry</title>
<polygon fill="white" stroke="transparent" points="-4,4 -4,-73.5 563,-73.5 563,4 -4,4"/>
<!-- Node1 -->
<g id="node1" class="node">
<title>Node1</title>
<g id="a_node1"><a xlink:title=" ">
<polygon fill="#bfbfbf" stroke="black" points="0,-17 0,-47 173,-47 173,-17 0,-17"/>
<text text-anchor="start" x="8" y="-35" font-family="Helvetica,sans-Serif" font-size="10.00">unilink::transport</text>
<text text-anchor="middle" x="86.5" y="-24" font-family="Helvetica,sans-Serif" font-size="10.00">::TcpClient::Impl::schedule_retry</text>
</a>
</g>
</g>
<!-- Node2 -->
<g id="node2" class="node">
<title>Node2</title>
<g id="a_node2"><a xlink:href="namespaceunilink_1_1transport_1_1detail.html#afea3187da4b3318894729cf30d8f512a" target="_top" xlink:title="Determines whether a reconnection attempt should be made and the base delay to use.">
<polygon fill="white" stroke="black" points="209,-39 209,-69 351,-69 351,-39 209,-39"/>
<text text-anchor="start" x="217" y="-57" font-family="Helvetica,sans-Serif" font-size="10.00">unilink::transport</text>
<text text-anchor="middle" x="280" y="-46" font-family="Helvetica,sans-Serif" font-size="10.00">::detail::decide_reconnect</text>
</a>
</g>
</g>
<!-- Node1&#45;&gt;Node2 -->
<g id="edge1" class="edge">
<title>Node1&#45;&gt;Node2</title>
<path fill="none" stroke="midnightblue" d="M173.17,-41.84C181.66,-42.82 190.27,-43.81 198.71,-44.78"/>
<polygon fill="midnightblue" stroke="midnightblue" points="198.56,-48.28 208.9,-45.95 199.36,-41.33 198.56,-48.28"/>
</g>
<!-- Node4 -->
<g id="node4" class="node">
<title>Node4</title>
<g id="a_node4"><a xlink:href="namespaceunilink.html#a945182ee4d2e3137a6c39f60501f5355" target="_top" xlink:title="Convert ErrorCode to human&#45;readable string.">
<polygon fill="white" stroke="black" points="231,-0.5 231,-19.5 329,-19.5 329,-0.5 231,-0.5"/>
<text text-anchor="middle" x="280" y="-7.5" font-family="Helvetica,sans-Serif" font-size="10.00">unilink::to_string</text>
</a>
</g>
</g>
<!-- Node1&#45;&gt;Node4 -->
<g id="edge3" class="edge">
<title>Node1&#45;&gt;Node4</title>
<path fill="none" stroke="midnightblue" d="M173.17,-22.16C189.27,-20.31 205.76,-18.41 220.78,-16.69"/>
<polygon fill="midnightblue" stroke="midnightblue" points="221.39,-20.14 230.92,-15.52 220.59,-13.19 221.39,-20.14"/>
</g>
<!-- Node3 -->
<g id="node3" class="node">
<title>Node3</title>
<g id="a_node3"><a xlink:href="namespaceunilink_1_1transport_1_1detail.html#a22e4060c24e0be5f58266c56c8b6cd6d" target="_top" xlink:title=" ">
<polygon fill="white" stroke="black" points="387,-39 387,-69 559,-69 559,-39 387,-39"/>
<text text-anchor="start" x="395" y="-57" font-family="Helvetica,sans-Serif" font-size="10.00">unilink::transport</text>
<text text-anchor="middle" x="473" y="-46" font-family="Helvetica,sans-Serif" font-size="10.00">::detail::clamp_reconnect_delay</text>
</a>
</g>
</g>
<!-- Node2&#45;&gt;Node3 -->
<g id="edge2" class="edge">
<title>Node2&#45;&gt;Node3</title>
<path fill="none" stroke="midnightblue" d="M351.04,-54C359.38,-54 368,-54 376.62,-54"/>
<polygon fill="midnightblue" stroke="midnightblue" points="376.72,-57.5 386.72,-54 376.72,-50.5 376.72,-57.5"/>
</g>
</g>
</svg>
