<?xml version="1.0" encoding="UTF-8" standalone="no"?>
<!DOCTYPE svg PUBLIC "-//W3C//DTD SVG 1.1//EN"
 "http://www.w3.org/Graphics/SVG/1.1/DTD/svg11.dtd">
<!-- Generated by graphviz version 2.43.0 (0)
 -->
<!-- Title: unilink::diagnostics::Logger::Impl::format_message Pages: 1 -->
<svg width="516pt" height="184pt"
 viewBox="0.00 0.00 516.00 184.00" xmlns="http://www.w3.org/2000/svg" xmlns:xlink="http://www.w3.org/1999/xlink">
<g id="graph0" class="graph" transform="scale(1 1) rotate(0) translate(4 180)">
<title>unilink::diagnostics::Logger::Impl::format_message</title>
<!-- Node1 -->
<g id="Node000001" class="node">
<title>Node1</title>
<g id="a_Node000001"><a xlink:title=" ">
<polygon fill="#999999" stroke="#666666" points="122,-113.5 0,-113.5 0,-72.5 122,-72.5 122,-113.5"/>
<text text-anchor="start" x="8" y="-101.5" font-family="Helvetica,sans-Serif" font-size="10.00">unilink::diagnostics</text>
<text text-anchor="start" x="8" y="-90.5" font-family="Helvetica,sans-Serif" font-size="10.00">::Logger::Impl::format</text>
<text text-anchor="middle" x="61" y="-79.5" font-family="Helvetica,sans-Serif" font-size="10.00">_message</text>
</a>
</g>
</g>
<!-- Node2 -->
<g id="Node000002" class="node">
<title>Node2</title>
<g id="a_Node000002"><a xlink:href="structunilink_1_1diagnostics_1_1Logger_1_1Impl.html#a0391ba348eeaca83ab51e33e66a9411f" target="_top" xlink:title=" ">
<polygon fill="white" stroke="#666666" points="341.5,-176 177.5,-176 177.5,-146 341.5,-146 341.5,-176"/>
<text text-anchor="start" x="185.5" y="-164" font-family="Helvetica,sans-Serif" font-size="10.00">unilink::diagnostics</text>
<text text-anchor="middle" x="259.5" y="-153" font-family="Helvetica,sans-Serif" font-size="10.00">::Logger::Impl::get_timestamp</text>
</a>
</g>
</g>
<!-- Node1&#45;&gt;Node2 -->
<g id="edge1_Node000001_Node000002" class="edge">
<title>Node1&#45;&gt;Node2</title>
<g id="a_edge1_Node000001_Node000002"><a xlink:title=" ">
<path fill="none" stroke="#63b8ff" d="M109.97,-113.64C125.2,-119.88 142.19,-126.52 158,-132 169.13,-135.85 181.07,-139.62 192.69,-143.09"/>
<polygon fill="#63b8ff" stroke="#63b8ff" points="191.77,-146.46 202.36,-145.93 193.75,-139.75 191.77,-146.46"/>
</a>
</g>
</g>
<!-- Node3 -->
<g id="Node000003" class="node">
<title>Node3</title>
<g id="a_Node000003"><a xlink:href="classunilink_1_1diagnostics_1_1Logger.html#a4a88b05c250af04b01f2a3d94473d0e3" target="_top" xlink:title="Get current log level.">
<polygon fill="white" stroke="#666666" points="508,-108 397,-108 397,-78 508,-78 508,-108"/>
<text text-anchor="start" x="405" y="-96" font-family="Helvetica,sans-Serif" font-size="10.00">unilink::diagnostics</text>
<text text-anchor="middle" x="452.5" y="-85" font-family="Helvetica,sans-Serif" font-size="10.00">::Logger::level</text>
</a>
</g>
</g>
<!-- Node1&#45;&gt;Node3 -->
<g id="edge2_Node000001_Node000003" class="edge">
<title>Node1&#45;&gt;Node3</title>
<g id="a_edge2_Node000001_Node000003"><a xlink:title=" ">
<path fill="none" stroke="#63b8ff" d="M122.15,-97.34C134.02,-98.03 146.4,-98.64 158,-99 248.18,-101.82 270.83,-101.99 361,-99 369.37,-98.72 378.17,-98.3 386.86,-97.81"/>
<polygon fill="#63b8ff" stroke="#63b8ff" points="387.2,-101.29 396.97,-97.2 386.78,-94.31 387.2,-101.29"/>
</a>
</g>
</g>
<!-- Node4 -->
<g id="Node000004" class="node">
<title>Node4</title>
<g id="a_Node000004"><a xlink:href="structunilink_1_1diagnostics_1_1Logger_1_1Impl.html#a8ebe61aa7e4b6333f0ed5adecc2f5ec1" target="_top" xlink:title=" ">
<polygon fill="white" stroke="#666666" points="316,-89.5 203,-89.5 203,-48.5 316,-48.5 316,-89.5"/>
<text text-anchor="start" x="211" y="-77.5" font-family="Helvetica,sans-Serif" font-size="10.00">unilink::diagnostics</text>
<text text-anchor="start" x="211" y="-66.5" font-family="Helvetica,sans-Serif" font-size="10.00">::Logger::Impl::level</text>
<text text-anchor="middle" x="259.5" y="-55.5" font-family="Helvetica,sans-Serif" font-size="10.00">_to_string</text>
</a>
</g>
</g>
<!-- Node1&#45;&gt;Node4 -->
<g id="edge3_Node000001_Node000004" class="edge">
<title>Node1&#45;&gt;Node4</title>
<g id="a_edge3_Node000001_Node000004"><a xlink:title=" ">
<path fill="none" stroke="#63b8ff" d="M122.02,-85.67C144.44,-82.93 170,-79.81 192.89,-77.01"/>
<polygon fill="#63b8ff" stroke="#63b8ff" points="193.36,-80.48 202.86,-75.8 192.51,-73.53 193.36,-80.48"/>
</a>
</g>
</g>
<!-- Node5 -->
<g id="Node000005" class="node">
<title>Node5</title>
<g id="a_Node000005"><a xlink:href="structunilink_1_1diagnostics_1_1Logger_1_1Impl_1_1TimestampBuffer.html#a09342f6cb830b69cad2cb8433391622e" target="_top" xlink:title=" ">
<polygon fill="white" stroke="#666666" points="361,-30 158,-30 158,0 361,0 361,-30"/>
<text text-anchor="start" x="166" y="-18" font-family="Helvetica,sans-Serif" font-size="10.00">unilink::diagnostics</text>
<text text-anchor="middle" x="259.5" y="-7" font-family="Helvetica,sans-Serif" font-size="10.00">::Logger::Impl::TimestampBuffer::view</text>
</a>
</g>
</g>
<!-- Node1&#45;&gt;Node5 -->
<g id="edge5_Node000001_Node000005" class="edge">
<title>Node1&#45;&gt;Node5</title>
<g id="a_edge5_Node000001_Node000005"><a xlink:title=" ">
<path fill="none" stroke="#63b8ff" d="M94.29,-72.4C112.44,-61.54 135.85,-48.7 158,-40 164.41,-37.48 171.15,-35.16 177.98,-33.03"/>
<polygon fill="#63b8ff" stroke="#63b8ff" points="179.43,-36.25 188.02,-30.04 177.44,-29.54 179.43,-36.25"/>
</a>
</g>
</g>
<!-- Node4&#45;&gt;Node3 -->
<g id="edge4_Node000004_Node000003" class="edge">
<title>Node4&#45;&gt;Node3</title>
<g id="a_edge4_Node000004_Node000003"><a xlink:title=" ">
<path fill="none" stroke="#63b8ff" d="M316,-75.97C338.16,-78.76 363.84,-81.98 386.83,-84.87"/>
<polygon fill="#63b8ff" stroke="#63b8ff" points="386.49,-88.36 396.85,-86.13 387.36,-81.41 386.49,-88.36"/>
</a>
</g>
</g>
</g>
</svg>
