<?xml version="1.0" encoding="UTF-8" standalone="no"?>
<!DOCTYPE svg PUBLIC "-//W3C//DTD SVG 1.1//EN"
 "http://www.w3.org/Graphics/SVG/1.1/DTD/svg11.dtd">
<!-- Generated by graphviz version 2.43.0 (0)
 -->
<!-- Title: unilink::concurrency::IoContextManager::Impl::stop Pages: 1 -->
<svg width="351pt" height="50pt"
 viewBox="0.00 0.00 351.00 50.00" xmlns="http://www.w3.org/2000/svg" xmlns:xlink="http://www.w3.org/1999/xlink">
<g id="graph0" class="graph" transform="scale(1 1) rotate(0) translate(4 46)">
<title>unilink::concurrency::IoContextManager::Impl::stop</title>
<polygon fill="white" stroke="transparent" points="-4,4 -4,-46 347,-46 347,4 -4,4"/>
<!-- Node1 -->
<g id="node1" class="node">
<title>Node1</title>
<g id="a_node1"><a xlink:title=" ">
<polygon fill="#bfbfbf" stroke="black" points="176,-6 176,-36 343,-36 343,-6 176,-6"/>
<text text-anchor="start" x="184" y="-24" font-family="Helvetica,sans-Serif" font-size="10.00">unilink::concurrency</text>
<text text-anchor="middle" x="259.5" y="-13" font-family="Helvetica,sans-Serif" font-size="10.00">::IoContextManager::Impl::stop</text>
</a>
</g>
</g>
<!-- Node2 -->
<g id="node2" class="node">
<title>Node2</title>
<g id="a_node2"><a xlink:href="structunilink_1_1concurrency_1_1IoContextManager_1_1Impl.html#a4526d2bdf7e73ea47fdaf6fde93ec81e" target="_top" xlink:title=" ">
<polygon fill="white" stroke="black" points="0,-0.5 0,-41.5 140,-41.5 140,-0.5 0,-0.5"/>
<text text-anchor="start" x="8" y="-29.5" font-family="Helvetica,sans-Serif" font-size="10.00">unilink::concurrency</text>
<text text-anchor="start" x="8" y="-18.5" font-family="Helvetica,sans-Serif" font-size="10.00">::IoContextManager::Impl</text>
<text text-anchor="middle" x="70" y="-7.5" font-family="Helvetica,sans-Serif" font-size="10.00">::~Impl</text>
</a>
</g>
</g>
<!-- Node1&#45;&gt;Node2 -->
<g id="edge1" class="edge">
<title>Node1&#45;&gt;Node2</title>
<path fill="none" stroke="midnightblue" d="M165.83,-21C157.16,-21 148.48,-21 140.08,-21"/>
<polygon fill="midnightblue" stroke="midnightblue" points="165.99,-24.5 175.99,-21 165.99,-17.5 165.99,-24.5"/>
</g>
</g>
</svg>
