<?xml version="1.0" encoding="UTF-8" standalone="no"?>
<!DOCTYPE svg PUBLIC "-//W3C//DTD SVG 1.1//EN"
 "http://www.w3.org/Graphics/SVG/1.1/DTD/svg11.dtd">
<!-- Generated by graphviz version 2.43.0 (0)
 -->
<!-- Title: unilink::config::SerialConfig::validate_and_clamp Pages: 1 -->
<svg width="435pt" height="39pt"
 viewBox="0.00 0.00 435.00 39.00" xmlns="http://www.w3.org/2000/svg" xmlns:xlink="http://www.w3.org/1999/xlink">
<g id="graph0" class="graph" transform="scale(1 1) rotate(0) translate(4 35)">
<title>unilink::config::SerialConfig::validate_and_clamp</title>
<polygon fill="white" stroke="transparent" points="-4,4 -4,-35 431,-35 431,4 -4,4"/>
<!-- Node1 -->
<g id="node1" class="node">
<title>Node1</title>
<g id="a_node1"><a xlink:title=" ">
<polygon fill="#bfbfbf" stroke="black" points="278,-0.5 278,-30.5 427,-30.5 427,-0.5 278,-0.5"/>
<text text-anchor="start" x="286" y="-18.5" font-family="Helvetica,sans-Serif" font-size="10.00">unilink::config::SerialConfig</text>
<text text-anchor="middle" x="352.5" y="-7.5" font-family="Helvetica,sans-Serif" font-size="10.00">::validate_and_clamp</text>
</a>
</g>
</g>
<!-- Node2 -->
<g id="node2" class="node">
<title>Node2</title>
<g id="a_node2"><a xlink:href="structunilink_1_1transport_1_1Serial_1_1Impl.html#a00cf67d7809c4054f345fde3f5ee42c1" target="_top" xlink:title=" ">
<polygon fill="white" stroke="black" points="142,-0.5 142,-30.5 242,-30.5 242,-0.5 142,-0.5"/>
<text text-anchor="start" x="150" y="-18.5" font-family="Helvetica,sans-Serif" font-size="10.00">unilink::transport</text>
<text text-anchor="middle" x="192" y="-7.5" font-family="Helvetica,sans-Serif" font-size="10.00">::Serial::Impl::init</text>
</a>
</g>
</g>
<!-- Node1&#45;&gt;Node2 -->
<g id="edge1" class="edge">
<title>Node1&#45;&gt;Node2</title>
<path fill="none" stroke="midnightblue" d="M267.57,-15.5C258.85,-15.5 250.2,-15.5 242.06,-15.5"/>
<polygon fill="midnightblue" stroke="midnightblue" points="267.82,-19 277.82,-15.5 267.82,-12 267.82,-19"/>
</g>
<!-- Node3 -->
<g id="node3" class="node">
<title>Node3</title>
<g id="a_node3"><a xlink:href="structunilink_1_1transport_1_1Serial_1_1Impl.html#a86cd568a4a26c8745cc926354c54ac8f" target="_top" xlink:title=" ">
<polygon fill="white" stroke="black" points="0,-0.5 0,-30.5 106,-30.5 106,-0.5 0,-0.5"/>
<text text-anchor="start" x="8" y="-18.5" font-family="Helvetica,sans-Serif" font-size="10.00">unilink::transport</text>
<text text-anchor="middle" x="53" y="-7.5" font-family="Helvetica,sans-Serif" font-size="10.00">::Serial::Impl::Impl</text>
</a>
</g>
</g>
<!-- Node2&#45;&gt;Node3 -->
<g id="edge2" class="edge">
<title>Node2&#45;&gt;Node3</title>
<path fill="none" stroke="midnightblue" d="M131.77,-15.5C123.35,-15.5 114.72,-15.5 106.44,-15.5"/>
<polygon fill="midnightblue" stroke="midnightblue" points="131.93,-19 141.93,-15.5 131.93,-12 131.93,-19"/>
</g>
</g>
</svg>
