<?xml version="1.0" encoding="UTF-8" standalone="no"?>
<!DOCTYPE svg PUBLIC "-//W3C//DTD SVG 1.1//EN"
 "http://www.w3.org/Graphics/SVG/1.1/DTD/svg11.dtd">
<!-- Generated by graphviz version 2.43.0 (0)
 -->
<!-- Title: unilink::wrapper::TcpServer::Impl::setup_internal_handlers Pages: 1 -->
<svg width="360pt" height="284pt"
 viewBox="0.00 0.00 360.00 284.00" xmlns="http://www.w3.org/2000/svg" xmlns:xlink="http://www.w3.org/1999/xlink">
<g id="graph0" class="graph" transform="scale(1 1) rotate(0) translate(4 280)">
<title>unilink::wrapper::TcpServer::Impl::setup_internal_handlers</title>
<polygon fill="white" stroke="transparent" points="-4,4 -4,-280 356,-280 356,4 -4,4"/>
<!-- Node1 -->
<g id="node1" class="node">
<title>Node1</title>
<g id="a_node1"><a xlink:title=" ">
<polygon fill="#bfbfbf" stroke="black" points="0,-122.5 0,-152.5 167,-152.5 167,-122.5 0,-122.5"/>
<text text-anchor="start" x="8" y="-140.5" font-family="Helvetica,sans-Serif" font-size="10.00">unilink::wrapper::TcpServer</text>
<text text-anchor="middle" x="83.5" y="-129.5" font-family="Helvetica,sans-Serif" font-size="10.00">::Impl::setup_internal_handlers</text>
</a>
</g>
</g>
<!-- Node2 -->
<g id="node2" class="node">
<title>Node2</title>
<g id="a_node2"><a xlink:href="classunilink_1_1memory_1_1SafeSpan.html#a203851d86025e579f73f04da0828e2bd" target="_top" xlink:title=" ">
<polygon fill="white" stroke="black" points="203.5,-245.5 203.5,-275.5 351.5,-275.5 351.5,-245.5 203.5,-245.5"/>
<text text-anchor="start" x="211.5" y="-263.5" font-family="Helvetica,sans-Serif" font-size="10.00">unilink::memory::SafeSpan</text>
<text text-anchor="middle" x="277.5" y="-252.5" font-family="Helvetica,sans-Serif" font-size="10.00">::data</text>
</a>
</g>
</g>
<!-- Node1&#45;&gt;Node2 -->
<g id="edge1" class="edge">
<title>Node1&#45;&gt;Node2</title>
<path fill="none" stroke="midnightblue" d="M98.82,-152.67C119.81,-174.11 161.02,-213.25 203,-236.5 206.09,-238.21 209.32,-239.82 212.63,-241.34"/>
<polygon fill="midnightblue" stroke="midnightblue" points="211.54,-244.68 222.11,-245.36 214.27,-238.23 211.54,-244.68"/>
</g>
<!-- Node3 -->
<g id="node3" class="node">
<title>Node3</title>
<g id="a_node3"><a xlink:href="classunilink_1_1wrapper_1_1TcpServer.html#aa4301de269dbc59838c68f7416708233" target="_top" xlink:title="Set a factory function to create a new framer for each client connection.">
<polygon fill="white" stroke="black" points="203,-196.5 203,-226.5 352,-226.5 352,-196.5 203,-196.5"/>
<text text-anchor="start" x="211" y="-214.5" font-family="Helvetica,sans-Serif" font-size="10.00">unilink::wrapper::TcpServer</text>
<text text-anchor="middle" x="277.5" y="-203.5" font-family="Helvetica,sans-Serif" font-size="10.00">::framer</text>
</a>
</g>
</g>
<!-- Node1&#45;&gt;Node3 -->
<g id="edge2" class="edge">
<title>Node1&#45;&gt;Node3</title>
<path fill="none" stroke="midnightblue" d="M118.17,-152.59C141.72,-162.93 174.03,-176.68 203,-187.5 208.11,-189.41 213.45,-191.31 218.81,-193.17"/>
<polygon fill="midnightblue" stroke="midnightblue" points="217.86,-196.55 228.46,-196.45 220.12,-189.92 217.86,-196.55"/>
</g>
<!-- Node4 -->
<g id="node4" class="node">
<title>Node4</title>
<g id="a_node4"><a xlink:href="structunilink_1_1wrapper_1_1TcpServer_1_1Impl.html#a030e4af5940c8a62c646d7246fa075d0" target="_top" xlink:title=" ">
<polygon fill="white" stroke="black" points="203,-147.5 203,-177.5 352,-177.5 352,-147.5 203,-147.5"/>
<text text-anchor="start" x="211" y="-165.5" font-family="Helvetica,sans-Serif" font-size="10.00">unilink::wrapper::TcpServer</text>
<text text-anchor="middle" x="277.5" y="-154.5" font-family="Helvetica,sans-Serif" font-size="10.00">::Impl::fulfill_all_locked</text>
</a>
</g>
</g>
<!-- Node1&#45;&gt;Node4 -->
<g id="edge3" class="edge">
<title>Node1&#45;&gt;Node4</title>
<path fill="none" stroke="midnightblue" d="M167.04,-148.25C175.59,-149.36 184.28,-150.49 192.84,-151.61"/>
<polygon fill="midnightblue" stroke="midnightblue" points="192.44,-155.08 202.81,-152.9 193.34,-148.14 192.44,-155.08"/>
</g>
<!-- Node5 -->
<g id="node5" class="node">
<title>Node5</title>
<g id="a_node5"><a xlink:href="classunilink_1_1wrapper_1_1ServerInterface.html#a03b4193d371a68d017805e5c3aac206c" target="_top" xlink:title="Set a handler for complete messages extracted by the framer.">
<polygon fill="white" stroke="black" points="211,-98.5 211,-128.5 344,-128.5 344,-98.5 211,-98.5"/>
<text text-anchor="start" x="219" y="-116.5" font-family="Helvetica,sans-Serif" font-size="10.00">unilink::wrapper::Server</text>
<text text-anchor="middle" x="277.5" y="-105.5" font-family="Helvetica,sans-Serif" font-size="10.00">Interface::on_message</text>
</a>
</g>
</g>
<!-- Node1&#45;&gt;Node5 -->
<g id="edge4" class="edge">
<title>Node1&#45;&gt;Node5</title>
<path fill="none" stroke="midnightblue" d="M167.04,-127.18C178.25,-125.78 189.7,-124.35 200.78,-122.97"/>
<polygon fill="midnightblue" stroke="midnightblue" points="201.34,-126.42 210.83,-121.71 200.47,-119.48 201.34,-126.42"/>
</g>
<!-- Node6 -->
<g id="node6" class="node">
<title>Node6</title>
<g id="a_node6"><a xlink:href="classunilink_1_1memory_1_1SafeSpan.html#a0e63f52083142fa895b98ea38f51dc73" target="_top" xlink:title=" ">
<polygon fill="white" stroke="black" points="203.5,-49.5 203.5,-79.5 351.5,-79.5 351.5,-49.5 203.5,-49.5"/>
<text text-anchor="start" x="211.5" y="-67.5" font-family="Helvetica,sans-Serif" font-size="10.00">unilink::memory::SafeSpan</text>
<text text-anchor="middle" x="277.5" y="-56.5" font-family="Helvetica,sans-Serif" font-size="10.00">::size</text>
</a>
</g>
</g>
<!-- Node1&#45;&gt;Node6 -->
<g id="edge5" class="edge">
<title>Node1&#45;&gt;Node6</title>
<path fill="none" stroke="midnightblue" d="M120.07,-122.47C143.5,-112.73 174.92,-99.95 203,-89.5 208.89,-87.31 215.06,-85.09 221.23,-82.92"/>
<polygon fill="midnightblue" stroke="midnightblue" points="222.58,-86.16 230.88,-79.57 220.28,-79.54 222.58,-86.16"/>
</g>
<!-- Node7 -->
<g id="node7" class="node">
<title>Node7</title>
<g id="a_node7"><a xlink:href="namespaceunilink_1_1base_1_1safe__convert.html#a3c41d9c6266428458c97891710ac2f0d" target="_top" xlink:title="Safely convert uint8_t* to const char* for string operations.">
<polygon fill="white" stroke="black" points="209,-0.5 209,-30.5 346,-30.5 346,-0.5 209,-0.5"/>
<text text-anchor="start" x="217" y="-18.5" font-family="Helvetica,sans-Serif" font-size="10.00">unilink::base::safe</text>
<text text-anchor="middle" x="277.5" y="-7.5" font-family="Helvetica,sans-Serif" font-size="10.00">_convert::uint8_to_string</text>
</a>
</g>
</g>
<!-- Node1&#45;&gt;Node7 -->
<g id="edge6" class="edge">
<title>Node1&#45;&gt;Node7</title>
<path fill="none" stroke="midnightblue" d="M99.28,-122.37C120.5,-101.4 161.63,-63.47 203,-40.5 206.88,-38.34 210.98,-36.33 215.18,-34.45"/>
<polygon fill="midnightblue" stroke="midnightblue" points="216.6,-37.65 224.48,-30.57 213.91,-31.19 216.6,-37.65"/>
</g>
</g>
</svg>
