<?xml version="1.0" encoding="UTF-8" standalone="no"?>
<!DOCTYPE svg PUBLIC "-//W3C//DTD SVG 1.1//EN"
 "http://www.w3.org/Graphics/SVG/1.1/DTD/svg11.dtd">
<!-- Generated by graphviz version 2.43.0 (0)
 -->
<!-- Title: unilink::transport::TcpServer::Impl Pages: 1 -->
<svg width="440pt" height="968pt"
 viewBox="0.00 0.00 440.00 968.00" xmlns="http://www.w3.org/2000/svg" xmlns:xlink="http://www.w3.org/1999/xlink">
<g id="graph0" class="graph" transform="scale(1 1) rotate(0) translate(4 964)">
<title>unilink::transport::TcpServer::Impl</title>
<!-- Node1 -->
<g id="Node000001" class="node">
<title>Node1</title>
<g id="a_Node000001"><a xlink:title=" ">
<polygon fill="#999999" stroke="transparent" points="289,-315 155,-315 155,0 289,0 289,-315"/>
<text text-anchor="start" x="180" y="-302.5" font-family="Helvetica,sans-Serif" font-size="10.00">unilink::transport</text>
<text text-anchor="start" x="181" y="-291.5" font-family="Helvetica,sans-Serif" font-size="10.00">::TcpServer::Impl</text>
<text text-anchor="start" x="159" y="-276.5" font-family="Helvetica,sans-Serif" font-size="10.00">+</text>
<text text-anchor="start" x="172" y="-276.5" font-family="Helvetica,sans-Serif" font-size="10.00">stopping_</text>
<text text-anchor="start" x="159" y="-261.5" font-family="Helvetica,sans-Serif" font-size="10.00">+</text>
<text text-anchor="start" x="172" y="-261.5" font-family="Helvetica,sans-Serif" font-size="10.00">next_client_id_</text>
<text text-anchor="start" x="159" y="-246.5" font-family="Helvetica,sans-Serif" font-size="10.00">+</text>
<text text-anchor="start" x="172" y="-246.5" font-family="Helvetica,sans-Serif" font-size="10.00">owned_ioc_</text>
<text text-anchor="start" x="159" y="-231.5" font-family="Helvetica,sans-Serif" font-size="10.00">+</text>
<text text-anchor="start" x="172" y="-231.5" font-family="Helvetica,sans-Serif" font-size="10.00">owns_ioc_</text>
<text text-anchor="start" x="159" y="-216.5" font-family="Helvetica,sans-Serif" font-size="10.00">+</text>
<text text-anchor="start" x="172" y="-216.5" font-family="Helvetica,sans-Serif" font-size="10.00">uses_global_ioc_</text>
<text text-anchor="start" x="159" y="-201.5" font-family="Helvetica,sans-Serif" font-size="10.00">+</text>
<text text-anchor="start" x="172" y="-201.5" font-family="Helvetica,sans-Serif" font-size="10.00">ioc_</text>
<text text-anchor="start" x="159" y="-186.5" font-family="Helvetica,sans-Serif" font-size="10.00">+</text>
<text text-anchor="start" x="172" y="-186.5" font-family="Helvetica,sans-Serif" font-size="10.00">ioc_thread_</text>
<text text-anchor="start" x="159" y="-171.5" font-family="Helvetica,sans-Serif" font-size="10.00">+</text>
<text text-anchor="start" x="172" y="-171.5" font-family="Helvetica,sans-Serif" font-size="10.00">acceptor_</text>
<text text-anchor="start" x="159" y="-156.5" font-family="Helvetica,sans-Serif" font-size="10.00">+</text>
<text text-anchor="start" x="172" y="-156.5" font-family="Helvetica,sans-Serif" font-size="10.00">on_bytes_</text>
<text text-anchor="start" x="159" y="-141.5" font-family="Helvetica,sans-Serif" font-size="10.00">+</text>
<text text-anchor="start" x="172" y="-141.5" font-family="Helvetica,sans-Serif" font-size="10.00">on_state_</text>
<text text-anchor="start" x="172" y="-126.5" font-family="Helvetica,sans-Serif" font-size="10.00">and 10 more...</text>
<text text-anchor="start" x="159" y="-111.5" font-family="Helvetica,sans-Serif" font-size="10.00">+</text>
<text text-anchor="start" x="172" y="-111.5" font-family="Helvetica,sans-Serif" font-size="10.00">Impl()</text>
<text text-anchor="start" x="159" y="-96.5" font-family="Helvetica,sans-Serif" font-size="10.00">+</text>
<text text-anchor="start" x="172" y="-96.5" font-family="Helvetica,sans-Serif" font-size="10.00">Impl()</text>
<text text-anchor="start" x="159" y="-81.5" font-family="Helvetica,sans-Serif" font-size="10.00">+</text>
<text text-anchor="start" x="172" y="-81.5" font-family="Helvetica,sans-Serif" font-size="10.00">~Impl()</text>
<text text-anchor="start" x="159" y="-66.5" font-family="Helvetica,sans-Serif" font-size="10.00">+</text>
<text text-anchor="start" x="172" y="-66.5" font-family="Helvetica,sans-Serif" font-size="10.00">notify_state()</text>
<text text-anchor="start" x="159" y="-51.5" font-family="Helvetica,sans-Serif" font-size="10.00">+</text>
<text text-anchor="start" x="172" y="-51.5" font-family="Helvetica,sans-Serif" font-size="10.00">attempt_port_binding()</text>
<text text-anchor="start" x="159" y="-36.5" font-family="Helvetica,sans-Serif" font-size="10.00">+</text>
<text text-anchor="start" x="172" y="-36.5" font-family="Helvetica,sans-Serif" font-size="10.00">do_accept()</text>
<text text-anchor="start" x="159" y="-21.5" font-family="Helvetica,sans-Serif" font-size="10.00">+</text>
<text text-anchor="start" x="172" y="-21.5" font-family="Helvetica,sans-Serif" font-size="10.00">perform_cleanup()</text>
<text text-anchor="start" x="159" y="-6.5" font-family="Helvetica,sans-Serif" font-size="10.00">+</text>
<text text-anchor="start" x="172" y="-6.5" font-family="Helvetica,sans-Serif" font-size="10.00">stop()</text>
<polygon fill="#666666" stroke="#666666" points="155,-286.5 155,-286.5 289,-286.5 289,-286.5 155,-286.5"/>
<polygon fill="#666666" stroke="#666666" points="155,-121.5 155,-121.5 170,-121.5 170,-121.5 155,-121.5"/>
<polygon fill="#666666" stroke="#666666" points="170,-121.5 170,-121.5 289,-121.5 289,-121.5 170,-121.5"/>
<polygon fill="none" stroke="#666666" points="155,0 155,-315 289,-315 289,0 155,0"/>
</a>
</g>
</g>
<!-- Node2 -->
<g id="Node000002" class="node">
<title>Node2</title>
<g id="a_Node000002"><a xlink:href="structunilink_1_1config_1_1TcpServerConfig.html" target="_top" xlink:title=" ">
<polygon fill="white" stroke="transparent" points="138,-637.5 0,-637.5 0,-427.5 138,-427.5 138,-637.5"/>
<text text-anchor="start" x="8" y="-625.5" font-family="Helvetica,sans-Serif" font-size="10.00">unilink::config::TcpServer</text>
<text text-anchor="start" x="53.5" y="-614.5" font-family="Helvetica,sans-Serif" font-size="10.00">Config</text>
<text text-anchor="start" x="4" y="-599.5" font-family="Helvetica,sans-Serif" font-size="10.00">+</text>
<text text-anchor="start" x="17" y="-599.5" font-family="Helvetica,sans-Serif" font-size="10.00">bind_address</text>
<text text-anchor="start" x="4" y="-584.5" font-family="Helvetica,sans-Serif" font-size="10.00">+</text>
<text text-anchor="start" x="17" y="-584.5" font-family="Helvetica,sans-Serif" font-size="10.00">port</text>
<text text-anchor="start" x="4" y="-569.5" font-family="Helvetica,sans-Serif" font-size="10.00">+</text>
<text text-anchor="start" x="17" y="-569.5" font-family="Helvetica,sans-Serif" font-size="10.00">backpressure_threshold</text>
<text text-anchor="start" x="4" y="-554.5" font-family="Helvetica,sans-Serif" font-size="10.00">+</text>
<text text-anchor="start" x="17" y="-554.5" font-family="Helvetica,sans-Serif" font-size="10.00">backpressure_strategy</text>
<text text-anchor="start" x="4" y="-539.5" font-family="Helvetica,sans-Serif" font-size="10.00">+</text>
<text text-anchor="start" x="17" y="-539.5" font-family="Helvetica,sans-Serif" font-size="10.00">enable_memory_pool</text>
<text text-anchor="start" x="4" y="-524.5" font-family="Helvetica,sans-Serif" font-size="10.00">+</text>
<text text-anchor="start" x="17" y="-524.5" font-family="Helvetica,sans-Serif" font-size="10.00">max_connections</text>
<text text-anchor="start" x="4" y="-509.5" font-family="Helvetica,sans-Serif" font-size="10.00">+</text>
<text text-anchor="start" x="17" y="-509.5" font-family="Helvetica,sans-Serif" font-size="10.00">enable_port_retry</text>
<text text-anchor="start" x="4" y="-494.5" font-family="Helvetica,sans-Serif" font-size="10.00">+</text>
<text text-anchor="start" x="17" y="-494.5" font-family="Helvetica,sans-Serif" font-size="10.00">max_port_retries</text>
<text text-anchor="start" x="4" y="-479.5" font-family="Helvetica,sans-Serif" font-size="10.00">+</text>
<text text-anchor="start" x="17" y="-479.5" font-family="Helvetica,sans-Serif" font-size="10.00">port_retry_interval_ms</text>
<text text-anchor="start" x="4" y="-464.5" font-family="Helvetica,sans-Serif" font-size="10.00">+</text>
<text text-anchor="start" x="17" y="-464.5" font-family="Helvetica,sans-Serif" font-size="10.00">idle_timeout_ms</text>
<text text-anchor="start" x="4" y="-449.5" font-family="Helvetica,sans-Serif" font-size="10.00">+</text>
<text text-anchor="start" x="17" y="-449.5" font-family="Helvetica,sans-Serif" font-size="10.00">is_valid()</text>
<text text-anchor="start" x="4" y="-434.5" font-family="Helvetica,sans-Serif" font-size="10.00">+</text>
<text text-anchor="start" x="17" y="-434.5" font-family="Helvetica,sans-Serif" font-size="10.00">validate_and_clamp()</text>
<polygon fill="#666666" stroke="#666666" points="0,-609.5 0,-609.5 138,-609.5 138,-609.5 0,-609.5"/>
<polygon fill="#666666" stroke="#666666" points="0,-459.5 0,-459.5 15,-459.5 15,-459.5 0,-459.5"/>
<polygon fill="#666666" stroke="#666666" points="15,-459.5 15,-459.5 138,-459.5 138,-459.5 15,-459.5"/>
<polygon fill="none" stroke="#666666" points="0,-427.5 0,-637.5 138,-637.5 138,-427.5 0,-427.5"/>
</a>
</g>
</g>
<!-- Node2&#45;&gt;Node1 -->
<g id="edge1_Node000001_Node000002" class="edge">
<title>Node2&#45;&gt;Node1</title>
<g id="a_edge1_Node000001_Node000002"><a xlink:title=" ">
<path fill="none" stroke="#63b8ff" d="M111.82,-427.1C124.67,-395.79 139.09,-360.62 153.17,-326.31"/>
<polygon fill="none" stroke="#63b8ff" points="153.17,-326.31 151.74,-319.24 157.72,-315.2 159.15,-322.27 153.17,-326.31"/>
</a>
</g>
<text text-anchor="middle" x="167" y="-336" font-family="Helvetica,sans-Serif" font-size="10.00" fill="grey"> +cfg_</text>
</g>
<!-- Node3 -->
<g id="Node000003" class="node">
<title>Node3</title>
<g id="a_Node000003"><a xlink:href="classunilink_1_1concurrency_1_1ThreadSafeState.html" target="_top" xlink:title=" ">
<polygon fill="white" stroke="transparent" points="288,-643 156,-643 156,-422 288,-422 288,-643"/>
<text text-anchor="start" x="161" y="-630.5" font-family="Helvetica,sans-Serif" font-size="10.00">unilink::concurrency</text>
<text text-anchor="start" x="161" y="-619.5" font-family="Helvetica,sans-Serif" font-size="10.00">::ThreadSafeState&lt; base</text>
<text text-anchor="start" x="190" y="-608.5" font-family="Helvetica,sans-Serif" font-size="10.00">::LinkState &gt;</text>
<text text-anchor="start" x="220" y="-593.5" font-family="Helvetica,sans-Serif" font-size="10.00"> </text>
<text text-anchor="start" x="164" y="-578.5" font-family="Helvetica,sans-Serif" font-size="10.00">+</text>
<text text-anchor="start" x="181" y="-578.5" font-family="Helvetica,sans-Serif" font-size="10.00">ThreadSafeState()</text>
<text text-anchor="start" x="164" y="-563.5" font-family="Helvetica,sans-Serif" font-size="10.00">+</text>
<text text-anchor="start" x="181" y="-563.5" font-family="Helvetica,sans-Serif" font-size="10.00">ThreadSafeState()</text>
<text text-anchor="start" x="164" y="-548.5" font-family="Helvetica,sans-Serif" font-size="10.00">+</text>
<text text-anchor="start" x="181" y="-548.5" font-family="Helvetica,sans-Serif" font-size="10.00">ThreadSafeState()</text>
<text text-anchor="start" x="164" y="-533.5" font-family="Helvetica,sans-Serif" font-size="10.00">+</text>
<text text-anchor="start" x="181" y="-533.5" font-family="Helvetica,sans-Serif" font-size="10.00">operator=()</text>
<text text-anchor="start" x="164" y="-518.5" font-family="Helvetica,sans-Serif" font-size="10.00">+</text>
<text text-anchor="start" x="181" y="-518.5" font-family="Helvetica,sans-Serif" font-size="10.00">operator=()</text>
<text text-anchor="start" x="164" y="-503.5" font-family="Helvetica,sans-Serif" font-size="10.00">+</text>
<text text-anchor="start" x="181" y="-503.5" font-family="Helvetica,sans-Serif" font-size="10.00">state()</text>
<text text-anchor="start" x="164" y="-488.5" font-family="Helvetica,sans-Serif" font-size="10.00">+</text>
<text text-anchor="start" x="181" y="-488.5" font-family="Helvetica,sans-Serif" font-size="10.00">set_state()</text>
<text text-anchor="start" x="164" y="-473.5" font-family="Helvetica,sans-Serif" font-size="10.00">+</text>
<text text-anchor="start" x="181" y="-473.5" font-family="Helvetica,sans-Serif" font-size="10.00">set_state()</text>
<text text-anchor="start" x="164" y="-458.5" font-family="Helvetica,sans-Serif" font-size="10.00">+</text>
<text text-anchor="start" x="181" y="-458.5" font-family="Helvetica,sans-Serif" font-size="10.00">compare_and_set()</text>
<text text-anchor="start" x="164" y="-443.5" font-family="Helvetica,sans-Serif" font-size="10.00">+</text>
<text text-anchor="start" x="181" y="-443.5" font-family="Helvetica,sans-Serif" font-size="10.00">exchange()</text>
<text text-anchor="start" x="181" y="-428.5" font-family="Helvetica,sans-Serif" font-size="10.00">and 7 more...</text>
<polygon fill="#666666" stroke="#666666" points="156,-603.5 156,-603.5 288,-603.5 288,-603.5 156,-603.5"/>
<polygon fill="#666666" stroke="#666666" points="156,-588.5 156,-588.5 288,-588.5 288,-588.5 156,-588.5"/>
<polygon fill="none" stroke="#666666" points="156,-422 156,-643 288,-643 288,-422 156,-422"/>
</a>
</g>
</g>
<!-- Node3&#45;&gt;Node1 -->
<g id="edge2_Node000001_Node000003" class="edge">
<title>Node3&#45;&gt;Node1</title>
<g id="a_edge2_Node000001_Node000003"><a xlink:title=" ">
<path fill="none" stroke="#63b8ff" d="M222,-421.86C222,-392.22 222,-359.45 222,-327.38"/>
<polygon fill="none" stroke="#63b8ff" points="222,-327.13 218,-321.13 222,-315.13 226,-321.13 222,-327.13"/>
</a>
</g>
<text text-anchor="middle" x="243" y="-336" font-family="Helvetica,sans-Serif" font-size="10.00" fill="grey"> +state_</text>
</g>
<!-- Node4 -->
<g id="Node000004" class="node">
<title>Node4</title>
<g id="a_Node000004"><a xlink:href="classunilink_1_1concurrency_1_1ThreadSafeState.html" target="_top" xlink:title="Thread&#45;safe state management class.">
<polygon fill="white" stroke="transparent" points="306,-960 138,-960 138,-750 306,-750 306,-960"/>
<text text-anchor="start" x="143" y="-948" font-family="Helvetica,sans-Serif" font-size="10.00">unilink::concurrency</text>
<text text-anchor="start" x="143" y="-937" font-family="Helvetica,sans-Serif" font-size="10.00">::ThreadSafeState&lt; StateType &gt;</text>
<text text-anchor="start" x="220" y="-922" font-family="Helvetica,sans-Serif" font-size="10.00"> </text>
<text text-anchor="start" x="155" y="-907" font-family="Helvetica,sans-Serif" font-size="10.00">+</text>
<text text-anchor="start" x="181" y="-907" font-family="Helvetica,sans-Serif" font-size="10.00">ThreadSafeState()</text>
<text text-anchor="start" x="155" y="-892" font-family="Helvetica,sans-Serif" font-size="10.00">+</text>
<text text-anchor="start" x="181" y="-892" font-family="Helvetica,sans-Serif" font-size="10.00">ThreadSafeState()</text>
<text text-anchor="start" x="155" y="-877" font-family="Helvetica,sans-Serif" font-size="10.00">+</text>
<text text-anchor="start" x="181" y="-877" font-family="Helvetica,sans-Serif" font-size="10.00">operator=()</text>
<text text-anchor="start" x="155" y="-862" font-family="Helvetica,sans-Serif" font-size="10.00">+</text>
<text text-anchor="start" x="181" y="-862" font-family="Helvetica,sans-Serif" font-size="10.00">ThreadSafeState()</text>
<text text-anchor="start" x="155" y="-847" font-family="Helvetica,sans-Serif" font-size="10.00">+</text>
<text text-anchor="start" x="181" y="-847" font-family="Helvetica,sans-Serif" font-size="10.00">operator=()</text>
<text text-anchor="start" x="155" y="-832" font-family="Helvetica,sans-Serif" font-size="10.00">+</text>
<text text-anchor="start" x="181" y="-832" font-family="Helvetica,sans-Serif" font-size="10.00">state()</text>
<text text-anchor="start" x="155" y="-817" font-family="Helvetica,sans-Serif" font-size="10.00">+</text>
<text text-anchor="start" x="181" y="-817" font-family="Helvetica,sans-Serif" font-size="10.00">set_state()</text>
<text text-anchor="start" x="155" y="-802" font-family="Helvetica,sans-Serif" font-size="10.00">+</text>
<text text-anchor="start" x="181" y="-802" font-family="Helvetica,sans-Serif" font-size="10.00">set_state()</text>
<text text-anchor="start" x="155" y="-787" font-family="Helvetica,sans-Serif" font-size="10.00">+</text>
<text text-anchor="start" x="181" y="-787" font-family="Helvetica,sans-Serif" font-size="10.00">compare_and_set()</text>
<text text-anchor="start" x="155" y="-772" font-family="Helvetica,sans-Serif" font-size="10.00">+</text>
<text text-anchor="start" x="181" y="-772" font-family="Helvetica,sans-Serif" font-size="10.00">exchange()</text>
<text text-anchor="start" x="181" y="-757" font-family="Helvetica,sans-Serif" font-size="10.00">and 7 more...</text>
<polygon fill="#666666" stroke="#666666" points="138,-932 138,-932 306,-932 306,-932 138,-932"/>
<polygon fill="#666666" stroke="#666666" points="138,-917 138,-917 306,-917 306,-917 138,-917"/>
<polygon fill="none" stroke="#666666" points="138,-750 138,-960 306,-960 306,-750 138,-750"/>
</a>
</g>
</g>
<!-- Node4&#45;&gt;Node3 -->
<g id="edge3_Node000003_Node000004" class="edge">
<title>Node4&#45;&gt;Node3</title>
<g id="a_edge3_Node000003_Node000004"><a xlink:title=" ">
<path fill="none" stroke="orange" d="M222,-739.82C222,-708.36 222,-674.3 222,-643.1"/>
<polygon fill="orange" stroke="orange" points="218.5,-739.94 222,-749.94 225.5,-739.94 218.5,-739.94"/>
</a>
</g>
<text text-anchor="middle" x="272.5" y="-724" font-family="Helvetica,sans-Serif" font-size="10.00" fill="grey"> &lt; base::LinkState &gt;</text>
</g>
<!-- Node5 -->
<g id="Node000005" class="node">
<title>Node5</title>
<g id="a_Node000005"><a xlink:href="structunilink_1_1diagnostics_1_1RuntimeStatsCounters.html" target="_top" xlink:title=" ">
<polygon fill="white" stroke="transparent" points="432,-703 306,-703 306,-362 432,-362 432,-703"/>
<text text-anchor="start" x="311" y="-690.5" font-family="Helvetica,sans-Serif" font-size="10.00">unilink::diagnostics</text>
<text text-anchor="start" x="311" y="-679.5" font-family="Helvetica,sans-Serif" font-size="10.00">::RuntimeStatsCounters</text>
<text text-anchor="start" x="310" y="-664.5" font-family="Helvetica,sans-Serif" font-size="10.00">+</text>
<text text-anchor="start" x="323" y="-664.5" font-family="Helvetica,sans-Serif" font-size="10.00">bytes_accepted</text>
<text text-anchor="start" x="310" y="-649.5" font-family="Helvetica,sans-Serif" font-size="10.00">+</text>
<text text-anchor="start" x="323" y="-649.5" font-family="Helvetica,sans-Serif" font-size="10.00">messages_accepted</text>
<text text-anchor="start" x="310" y="-634.5" font-family="Helvetica,sans-Serif" font-size="10.00">+</text>
<text text-anchor="start" x="323" y="-634.5" font-family="Helvetica,sans-Serif" font-size="10.00">bytes_sent</text>
<text text-anchor="start" x="310" y="-619.5" font-family="Helvetica,sans-Serif" font-size="10.00">+</text>
<text text-anchor="start" x="323" y="-619.5" font-family="Helvetica,sans-Serif" font-size="10.00">messages_sent</text>
<text text-anchor="start" x="310" y="-604.5" font-family="Helvetica,sans-Serif" font-size="10.00">+</text>
<text text-anchor="start" x="323" y="-604.5" font-family="Helvetica,sans-Serif" font-size="10.00">bytes_received</text>
<text text-anchor="start" x="310" y="-589.5" font-family="Helvetica,sans-Serif" font-size="10.00">+</text>
<text text-anchor="start" x="323" y="-589.5" font-family="Helvetica,sans-Serif" font-size="10.00">messages_received</text>
<text text-anchor="start" x="310" y="-574.5" font-family="Helvetica,sans-Serif" font-size="10.00">+</text>
<text text-anchor="start" x="323" y="-574.5" font-family="Helvetica,sans-Serif" font-size="10.00">failed_sends</text>
<text text-anchor="start" x="310" y="-559.5" font-family="Helvetica,sans-Serif" font-size="10.00">+</text>
<text text-anchor="start" x="323" y="-559.5" font-family="Helvetica,sans-Serif" font-size="10.00">dropped_messages</text>
<text text-anchor="start" x="310" y="-544.5" font-family="Helvetica,sans-Serif" font-size="10.00">+</text>
<text text-anchor="start" x="323" y="-544.5" font-family="Helvetica,sans-Serif" font-size="10.00">dropped_bytes</text>
<text text-anchor="start" x="310" y="-529.5" font-family="Helvetica,sans-Serif" font-size="10.00">+</text>
<text text-anchor="start" x="323" y="-529.5" font-family="Helvetica,sans-Serif" font-size="10.00">backpressure_events</text>
<text text-anchor="start" x="310" y="-514.5" font-family="Helvetica,sans-Serif" font-size="10.00">+</text>
<text text-anchor="start" x="323" y="-514.5" font-family="Helvetica,sans-Serif" font-size="10.00">max_queued_bytes</text>
<text text-anchor="start" x="310" y="-499.5" font-family="Helvetica,sans-Serif" font-size="10.00">+</text>
<text text-anchor="start" x="323" y="-499.5" font-family="Helvetica,sans-Serif" font-size="10.00">record_accepted()</text>
<text text-anchor="start" x="310" y="-484.5" font-family="Helvetica,sans-Serif" font-size="10.00">+</text>
<text text-anchor="start" x="323" y="-484.5" font-family="Helvetica,sans-Serif" font-size="10.00">record_sent()</text>
<text text-anchor="start" x="310" y="-469.5" font-family="Helvetica,sans-Serif" font-size="10.00">+</text>
<text text-anchor="start" x="323" y="-469.5" font-family="Helvetica,sans-Serif" font-size="10.00">record_received()</text>
<text text-anchor="start" x="310" y="-454.5" font-family="Helvetica,sans-Serif" font-size="10.00">+</text>
<text text-anchor="start" x="323" y="-454.5" font-family="Helvetica,sans-Serif" font-size="10.00">record_failed_send()</text>
<text text-anchor="start" x="310" y="-439.5" font-family="Helvetica,sans-Serif" font-size="10.00">+</text>
<text text-anchor="start" x="323" y="-439.5" font-family="Helvetica,sans-Serif" font-size="10.00">record_dropped()</text>
<text text-anchor="start" x="310" y="-424.5" font-family="Helvetica,sans-Serif" font-size="10.00">+</text>
<text text-anchor="start" x="323" y="-424.5" font-family="Helvetica,sans-Serif" font-size="10.00">record_backpressure</text>
<text text-anchor="start" x="323" y="-413.5" font-family="Helvetica,sans-Serif" font-size="10.00">_event()</text>
<text text-anchor="start" x="310" y="-398.5" font-family="Helvetica,sans-Serif" font-size="10.00">+</text>
<text text-anchor="start" x="323" y="-398.5" font-family="Helvetica,sans-Serif" font-size="10.00">observe_queue()</text>
<text text-anchor="start" x="310" y="-383.5" font-family="Helvetica,sans-Serif" font-size="10.00">+</text>
<text text-anchor="start" x="323" y="-383.5" font-family="Helvetica,sans-Serif" font-size="10.00">snapshot()</text>
<text text-anchor="start" x="310" y="-368.5" font-family="Helvetica,sans-Serif" font-size="10.00">+</text>
<text text-anchor="start" x="323" y="-368.5" font-family="Helvetica,sans-Serif" font-size="10.00">reset()</text>
<polygon fill="#666666" stroke="#666666" points="306,-674.5 306,-674.5 432,-674.5 432,-674.5 306,-674.5"/>
<polygon fill="#666666" stroke="#666666" points="306,-509.5 306,-509.5 321,-509.5 321,-509.5 306,-509.5"/>
<polygon fill="#666666" stroke="#666666" points="321,-509.5 321,-509.5 432,-509.5 432,-509.5 321,-509.5"/>
<polygon fill="none" stroke="#666666" points="306,-362 306,-703 432,-703 432,-362 306,-362"/>
</a>
</g>
</g>
<!-- Node5&#45;&gt;Node1 -->
<g id="edge4_Node000001_Node000005" class="edge">
<title>Node5&#45;&gt;Node1</title>
<g id="a_edge4_Node000001_Node000005"><a xlink:title=" ">
<path fill="none" stroke="#63b8ff" d="M305.91,-371.42C300.05,-356.54 294.09,-341.43 288.2,-326.48"/>
<polygon fill="none" stroke="#63b8ff" points="288.11,-326.25 282.19,-322.14 283.71,-315.09 289.63,-319.21 288.11,-326.25"/>
</a>
</g>
<text text-anchor="middle" x="312.5" y="-336" font-family="Helvetica,sans-Serif" font-size="10.00" fill="grey"> +stats_</text>
</g>
</g>
</svg>
