<?xml version="1.0" encoding="UTF-8" standalone="no"?>
<!DOCTYPE svg PUBLIC "-//W3C//DTD SVG 1.1//EN"
 "http://www.w3.org/Graphics/SVG/1.1/DTD/svg11.dtd">
<!-- Generated by graphviz version 2.43.0 (0)
 -->
<!-- Title: unilink::transport::TcpClient::Impl::recalculate_backpressure_bounds Pages: 1 -->
<svg width="473pt" height="50pt"
 viewBox="0.00 0.00 473.00 50.00" xmlns="http://www.w3.org/2000/svg" xmlns:xlink="http://www.w3.org/1999/xlink">
<g id="graph0" class="graph" transform="scale(1 1) rotate(0) translate(4 46)">
<title>unilink::transport::TcpClient::Impl::recalculate_backpressure_bounds</title>
<polygon fill="white" stroke="transparent" points="-4,4 -4,-46 469,-46 469,4 -4,4"/>
<!-- Node1 -->
<g id="node1" class="node">
<title>Node1</title>
<g id="a_node1"><a xlink:title=" ">
<polygon fill="#bfbfbf" stroke="black" points="310,-0.5 310,-41.5 465,-41.5 465,-0.5 310,-0.5"/>
<text text-anchor="start" x="318" y="-29.5" font-family="Helvetica,sans-Serif" font-size="10.00">unilink::transport</text>
<text text-anchor="start" x="318" y="-18.5" font-family="Helvetica,sans-Serif" font-size="10.00">::TcpClient::Impl::recalculate</text>
<text text-anchor="middle" x="387.5" y="-7.5" font-family="Helvetica,sans-Serif" font-size="10.00">_backpressure_bounds</text>
</a>
</g>
</g>
<!-- Node2 -->
<g id="node2" class="node">
<title>Node2</title>
<g id="a_node2"><a xlink:href="structunilink_1_1transport_1_1TcpClient_1_1Impl.html#a93a8ef25c35394b82b35e2c24cfdbb7c" target="_top" xlink:title=" ">
<polygon fill="white" stroke="black" points="158,-6 158,-36 274,-36 274,-6 158,-6"/>
<text text-anchor="start" x="166" y="-24" font-family="Helvetica,sans-Serif" font-size="10.00">unilink::transport</text>
<text text-anchor="middle" x="216" y="-13" font-family="Helvetica,sans-Serif" font-size="10.00">::TcpClient::Impl::init</text>
</a>
</g>
</g>
<!-- Node1&#45;&gt;Node2 -->
<g id="edge1" class="edge">
<title>Node1&#45;&gt;Node2</title>
<path fill="none" stroke="midnightblue" d="M299.53,-21C290.87,-21 282.25,-21 274.02,-21"/>
<polygon fill="midnightblue" stroke="midnightblue" points="299.69,-24.5 309.68,-21 299.68,-17.5 299.69,-24.5"/>
</g>
<!-- Node3 -->
<g id="node3" class="node">
<title>Node3</title>
<g id="a_node3"><a xlink:href="structunilink_1_1transport_1_1TcpClient_1_1Impl.html#a80bd87441726672a4f5cfad5d9168f39" target="_top" xlink:title=" ">
<polygon fill="white" stroke="black" points="0,-6 0,-36 122,-36 122,-6 0,-6"/>
<text text-anchor="start" x="8" y="-24" font-family="Helvetica,sans-Serif" font-size="10.00">unilink::transport</text>
<text text-anchor="middle" x="61" y="-13" font-family="Helvetica,sans-Serif" font-size="10.00">::TcpClient::Impl::Impl</text>
</a>
</g>
</g>
<!-- Node2&#45;&gt;Node3 -->
<g id="edge2" class="edge">
<title>Node2&#45;&gt;Node3</title>
<path fill="none" stroke="midnightblue" d="M147.39,-21C138.94,-21 130.35,-21 122.03,-21"/>
<polygon fill="midnightblue" stroke="midnightblue" points="147.59,-24.5 157.59,-21 147.59,-17.5 147.59,-24.5"/>
</g>
</g>
</svg>
