<?xml version="1.0" encoding="UTF-8" standalone="no"?>
<!DOCTYPE svg PUBLIC "-//W3C//DTD SVG 1.1//EN"
 "http://www.w3.org/Graphics/SVG/1.1/DTD/svg11.dtd">
<!-- Generated by graphviz version 2.43.0 (0)
 -->
<!-- Title: unilink::diagnostics::RuntimeStatsCounters::observe_queue Pages: 1 -->
<svg width="658pt" height="194pt"
 viewBox="0.00 0.00 658.00 194.00" xmlns="http://www.w3.org/2000/svg" xmlns:xlink="http://www.w3.org/1999/xlink">
<g id="graph0" class="graph" transform="scale(1 1) rotate(0) translate(4 190)">
<title>unilink::diagnostics::RuntimeStatsCounters::observe_queue</title>
<!-- Node1 -->
<g id="Node000001" class="node">
<title>Node1</title>
<g id="a_Node000001"><a xlink:title=" ">
<polygon fill="#999999" stroke="#666666" points="650,-116.5 518,-116.5 518,-75.5 650,-75.5 650,-116.5"/>
<text text-anchor="start" x="526" y="-104.5" font-family="Helvetica,sans-Serif" font-size="10.00">unilink::diagnostics</text>
<text text-anchor="start" x="526" y="-93.5" font-family="Helvetica,sans-Serif" font-size="10.00">::RuntimeStatsCounters</text>
<text text-anchor="middle" x="584" y="-82.5" font-family="Helvetica,sans-Serif" font-size="10.00">::observe_queue</text>
</a>
</g>
</g>
<!-- Node2 -->
<g id="Node000002" class="node">
<title>Node2</title>
<g id="a_Node000002"><a xlink:href="structunilink_1_1transport_1_1Serial_1_1Impl.html#ab69a32400c95674e780be4ca68e82258" target="_top" xlink:title=" ">
<polygon fill="white" stroke="#666666" points="472,-186 314,-186 314,-156 472,-156 472,-186"/>
<text text-anchor="start" x="322" y="-174" font-family="Helvetica,sans-Serif" font-size="10.00">unilink::transport</text>
<text text-anchor="middle" x="393" y="-163" font-family="Helvetica,sans-Serif" font-size="10.00">::Serial::Impl::observe_queue</text>
</a>
</g>
</g>
<!-- Node1&#45;&gt;Node2 -->
<g id="edge1_Node000001_Node000002" class="edge">
<title>Node1&#45;&gt;Node2</title>
<g id="a_edge1_Node000001_Node000002"><a xlink:title=" ">
<path fill="none" stroke="#63b8ff" d="M537.25,-121.56C520.24,-130.4 500.57,-139.86 482,-147 473.57,-150.24 464.54,-153.22 455.58,-155.91"/>
<polygon fill="#63b8ff" stroke="#63b8ff" points="539.19,-124.49 546.4,-116.73 535.92,-118.3 539.19,-124.49"/>
</a>
</g>
</g>
<!-- Node3 -->
<g id="Node000003" class="node">
<title>Node3</title>
<g id="a_Node000003"><a xlink:href="structunilink_1_1transport_1_1TcpClient_1_1Impl.html#a4c3b052ce55e3caa58e72ffa2a07ab84" target="_top" xlink:title=" ">
<polygon fill="white" stroke="#666666" points="480.5,-138 305.5,-138 305.5,-108 480.5,-108 480.5,-138"/>
<text text-anchor="start" x="313.5" y="-126" font-family="Helvetica,sans-Serif" font-size="10.00">unilink::transport</text>
<text text-anchor="middle" x="393" y="-115" font-family="Helvetica,sans-Serif" font-size="10.00">::TcpClient::Impl::observe_queue</text>
</a>
</g>
</g>
<!-- Node1&#45;&gt;Node3 -->
<g id="edge2_Node000001_Node000003" class="edge">
<title>Node1&#45;&gt;Node3</title>
<g id="a_edge2_Node000001_Node000003"><a xlink:title=" ">
<path fill="none" stroke="#63b8ff" d="M507.92,-106.73C498.92,-108.01 489.67,-109.33 480.53,-110.64"/>
<polygon fill="#63b8ff" stroke="#63b8ff" points="508.55,-110.17 517.96,-105.29 507.56,-103.24 508.55,-110.17"/>
</a>
</g>
</g>
<!-- Node4 -->
<g id="Node000004" class="node">
<title>Node4</title>
<g id="a_Node000004"><a xlink:href="structunilink_1_1transport_1_1UdpChannel_1_1Impl.html#a48a32bd74bd3623ca5dd6492ecb3049c" target="_top" xlink:title=" ">
<polygon fill="white" stroke="#666666" points="451,-89.5 335,-89.5 335,-48.5 451,-48.5 451,-89.5"/>
<text text-anchor="start" x="343" y="-77.5" font-family="Helvetica,sans-Serif" font-size="10.00">unilink::transport</text>
<text text-anchor="start" x="343" y="-66.5" font-family="Helvetica,sans-Serif" font-size="10.00">::UdpChannel::Impl::</text>
<text text-anchor="middle" x="393" y="-55.5" font-family="Helvetica,sans-Serif" font-size="10.00">observe_queue</text>
</a>
</g>
</g>
<!-- Node1&#45;&gt;Node4 -->
<g id="edge3_Node000001_Node000004" class="edge">
<title>Node1&#45;&gt;Node4</title>
<g id="a_edge3_Node000001_Node000004"><a xlink:title=" ">
<path fill="none" stroke="#63b8ff" d="M507.91,-85.27C489.04,-82.58 469.1,-79.73 451.27,-77.18"/>
<polygon fill="#63b8ff" stroke="#63b8ff" points="507.56,-88.76 517.96,-86.71 508.55,-81.83 507.56,-88.76"/>
</a>
</g>
</g>
<!-- Node8 -->
<g id="Node000008" class="node">
<title>Node8</title>
<g id="a_Node000008"><a xlink:href="structunilink_1_1transport_1_1UdsClient_1_1Impl.html#a900ea123e4615bf7b2402b2ac5624d05" target="_top" xlink:title=" ">
<polygon fill="white" stroke="#666666" points="482,-30 304,-30 304,0 482,0 482,-30"/>
<text text-anchor="start" x="312" y="-18" font-family="Helvetica,sans-Serif" font-size="10.00">unilink::transport</text>
<text text-anchor="middle" x="393" y="-7" font-family="Helvetica,sans-Serif" font-size="10.00">::UdsClient::Impl::observe_queue</text>
</a>
</g>
</g>
<!-- Node1&#45;&gt;Node8 -->
<g id="edge10_Node000001_Node000008" class="edge">
<title>Node1&#45;&gt;Node8</title>
<g id="a_edge10_Node000001_Node000008"><a xlink:title=" ">
<path fill="none" stroke="#63b8ff" d="M542.25,-69.95C524.29,-59.28 502.62,-47.47 482,-39 473.94,-35.69 465.29,-32.69 456.66,-30.03"/>
<polygon fill="#63b8ff" stroke="#63b8ff" points="540.91,-73.23 551.28,-75.4 544.53,-67.23 540.91,-73.23"/>
</a>
</g>
</g>
<!-- Node5 -->
<g id="Node000005" class="node">
<title>Node5</title>
<g id="a_Node000005"><a xlink:href="structunilink_1_1transport_1_1UdpChannel_1_1Impl.html#a9397ef06bddbc9e3c5518067f4a6abda" target="_top" xlink:title=" ">
<polygon fill="white" stroke="#666666" points="116,-124.5 0,-124.5 0,-83.5 116,-83.5 116,-124.5"/>
<text text-anchor="start" x="8" y="-112.5" font-family="Helvetica,sans-Serif" font-size="10.00">unilink::transport</text>
<text text-anchor="start" x="8" y="-101.5" font-family="Helvetica,sans-Serif" font-size="10.00">::UdpChannel::Impl::</text>
<text text-anchor="middle" x="58" y="-90.5" font-family="Helvetica,sans-Serif" font-size="10.00">enqueue_buffer</text>
</a>
</g>
</g>
<!-- Node4&#45;&gt;Node5 -->
<g id="edge4_Node000004_Node000005" class="edge">
<title>Node4&#45;&gt;Node5</title>
<g id="a_edge4_Node000004_Node000005"><a xlink:title=" ">
<path fill="none" stroke="#63b8ff" d="M324.79,-76.06C263.51,-82.51 173.94,-91.92 116.05,-98"/>
<polygon fill="#63b8ff" stroke="#63b8ff" points="325.18,-79.54 334.76,-75.02 324.44,-72.58 325.18,-79.54"/>
</a>
</g>
</g>
<!-- Node6 -->
<g id="Node000006" class="node">
<title>Node6</title>
<g id="a_Node000006"><a xlink:href="structunilink_1_1transport_1_1UdpChannel_1_1Impl.html#a4a285bf7d9f865446768b2147b7e4074" target="_top" xlink:title=" ">
<polygon fill="white" stroke="#666666" points="268,-61.5 152,-61.5 152,-20.5 268,-20.5 268,-61.5"/>
<text text-anchor="start" x="160" y="-49.5" font-family="Helvetica,sans-Serif" font-size="10.00">unilink::transport</text>
<text text-anchor="start" x="160" y="-38.5" font-family="Helvetica,sans-Serif" font-size="10.00">::UdpChannel::Impl::</text>
<text text-anchor="middle" x="210" y="-27.5" font-family="Helvetica,sans-Serif" font-size="10.00">report_backpressure</text>
</a>
</g>
</g>
<!-- Node4&#45;&gt;Node6 -->
<g id="edge5_Node000004_Node000006" class="edge">
<title>Node4&#45;&gt;Node6</title>
<g id="a_edge5_Node000004_Node000006"><a xlink:title=" ">
<path fill="none" stroke="#63b8ff" d="M324.59,-58.57C306.05,-55.7 286.12,-52.62 268.21,-49.85"/>
<polygon fill="#63b8ff" stroke="#63b8ff" points="324.31,-62.07 334.73,-60.14 325.38,-55.15 324.31,-62.07"/>
</a>
</g>
</g>
<!-- Node6&#45;&gt;Node5 -->
<g id="edge9_Node000006_Node000005" class="edge">
<title>Node6&#45;&gt;Node5</title>
<g id="a_edge9_Node000006_Node000005"><a xlink:title=" ">
<path fill="none" stroke="#63b8ff" d="M150.33,-65.64C136.32,-71.53 121.5,-77.75 107.97,-83.43"/>
<polygon fill="#63b8ff" stroke="#63b8ff" points="152.02,-68.73 159.88,-61.63 149.31,-62.27 152.02,-68.73"/>
</a>
</g>
</g>
<!-- Node7 -->
<g id="Node000007" class="node">
<title>Node7</title>
<g id="a_Node000007"><a xlink:href="structunilink_1_1transport_1_1UdpChannel_1_1Impl.html#ae29267b4cb8f4bc26f6f120ab30d5989" target="_top" xlink:title=" ">
<polygon fill="white" stroke="#666666" points="116,-47.5 0,-47.5 0,-6.5 116,-6.5 116,-47.5"/>
<text text-anchor="start" x="8" y="-35.5" font-family="Helvetica,sans-Serif" font-size="10.00">unilink::transport</text>
<text text-anchor="start" x="8" y="-24.5" font-family="Helvetica,sans-Serif" font-size="10.00">::UdpChannel::Impl::</text>
<text text-anchor="middle" x="58" y="-13.5" font-family="Helvetica,sans-Serif" font-size="10.00">do_write</text>
</a>
</g>
</g>
<!-- Node6&#45;&gt;Node7 -->
<g id="edge6_Node000006_Node000007" class="edge">
<title>Node6&#45;&gt;Node7</title>
<g id="a_edge6_Node000006_Node000007"><a xlink:title=" ">
<path fill="none" stroke="#63b8ff" d="M141.69,-28C133.27,-27.14 124.72,-26.39 116.47,-25.78"/>
<polygon fill="#63b8ff" stroke="#63b8ff" points="141.55,-31.5 151.86,-29.09 142.29,-24.54 141.55,-31.5"/>
</a>
</g>
</g>
<!-- Node7&#45;&gt;Node6 -->
<g id="edge8_Node000007_Node000006" class="edge">
<title>Node7&#45;&gt;Node6</title>
<g id="a_edge8_Node000007_Node000006"><a xlink:title=" ">
<path fill="none" stroke="#63b8ff" d="M126.66,-40.04C135.08,-40.89 143.62,-41.64 151.86,-42.24"/>
<polygon fill="#63b8ff" stroke="#63b8ff" points="126.79,-36.53 116.47,-38.95 126.05,-43.49 126.79,-36.53"/>
</a>
</g>
</g>
<!-- Node7&#45;&gt;Node7 -->
<g id="edge7_Node000007_Node000007" class="edge">
<title>Node7&#45;&gt;Node7</title>
<g id="a_edge7_Node000007_Node000007"><a xlink:title=" ">
<path fill="none" stroke="#63b8ff" d="M84.15,-57.46C80.26,-62.24 71.54,-65.5 58,-65.5 36.33,-65.5 27.02,-57.15 30.06,-47.6"/>
<polygon fill="#63b8ff" stroke="#63b8ff" points="87.6,-58.06 85.94,-47.6 80.71,-56.81 87.6,-58.06"/>
</a>
</g>
</g>
</g>
</svg>
