<?xml version="1.0" encoding="UTF-8" standalone="no"?>
<!DOCTYPE svg PUBLIC "-//W3C//DTD SVG 1.1//EN"
 "http://www.w3.org/Graphics/SVG/1.1/DTD/svg11.dtd">
<!-- Generated by graphviz version 2.43.0 (0)
 -->
<!-- Title: unilink::wrapper::UdsServer::Impl::start Pages: 1 -->
<svg width="551pt" height="284pt"
 viewBox="0.00 0.00 551.00 284.00" xmlns="http://www.w3.org/2000/svg" xmlns:xlink="http://www.w3.org/1999/xlink">
<g id="graph0" class="graph" transform="scale(1 1) rotate(0) translate(4 280)">
<title>unilink::wrapper::UdsServer::Impl::start</title>
<polygon fill="white" stroke="transparent" points="-4,4 -4,-280 547,-280 547,4 -4,4"/>
<!-- Node1 -->
<g id="node1" class="node">
<title>Node1</title>
<g id="a_node1"><a xlink:title=" ">
<polygon fill="#bfbfbf" stroke="black" points="0,-146.5 0,-176.5 152,-176.5 152,-146.5 0,-146.5"/>
<text text-anchor="start" x="8" y="-164.5" font-family="Helvetica,sans-Serif" font-size="10.00">unilink::wrapper::UdsServer</text>
<text text-anchor="middle" x="76" y="-153.5" font-family="Helvetica,sans-Serif" font-size="10.00">::Impl::start</text>
</a>
</g>
</g>
<!-- Node2 -->
<g id="node2" class="node">
<title>Node2</title>
<g id="a_node2"><a xlink:href="classunilink_1_1factory_1_1ChannelFactory.html#ab3a1a57092352b627809138adadb34a6" target="_top" xlink:title=" ">
<polygon fill="white" stroke="black" points="204,-171.5 204,-201.5 339,-201.5 339,-171.5 204,-171.5"/>
<text text-anchor="start" x="212" y="-189.5" font-family="Helvetica,sans-Serif" font-size="10.00">unilink::factory::Channel</text>
<text text-anchor="middle" x="271.5" y="-178.5" font-family="Helvetica,sans-Serif" font-size="10.00">Factory::create</text>
</a>
</g>
</g>
<!-- Node1&#45;&gt;Node2 -->
<g id="edge1" class="edge">
<title>Node1&#45;&gt;Node2</title>
<path fill="none" stroke="midnightblue" d="M152.09,-171.2C165.85,-172.98 180.23,-174.84 194.03,-176.62"/>
<polygon fill="midnightblue" stroke="midnightblue" points="193.6,-180.09 203.97,-177.9 194.5,-173.15 193.6,-180.09"/>
</g>
<!-- Node3 -->
<g id="node3" class="node">
<title>Node3</title>
<g id="a_node3"><a xlink:href="structunilink_1_1wrapper_1_1UdsServer_1_1Impl.html#a10ed4dde741e2d4077f3df717d38cde5" target="_top" xlink:title=" ">
<polygon fill="white" stroke="black" points="188,-122.5 188,-152.5 355,-152.5 355,-122.5 188,-122.5"/>
<text text-anchor="start" x="196" y="-140.5" font-family="Helvetica,sans-Serif" font-size="10.00">unilink::wrapper::UdsServer</text>
<text text-anchor="middle" x="271.5" y="-129.5" font-family="Helvetica,sans-Serif" font-size="10.00">::Impl::setup_internal_handlers</text>
</a>
</g>
</g>
<!-- Node1&#45;&gt;Node3 -->
<g id="edge2" class="edge">
<title>Node1&#45;&gt;Node3</title>
<path fill="none" stroke="midnightblue" d="M152.09,-152.19C160.49,-151.14 169.12,-150.07 177.7,-149.01"/>
<polygon fill="midnightblue" stroke="midnightblue" points="178.26,-152.47 187.75,-147.76 177.39,-145.52 178.26,-152.47"/>
</g>
<!-- Node4 -->
<g id="node4" class="node">
<title>Node4</title>
<g id="a_node4"><a xlink:href="classunilink_1_1memory_1_1SafeSpan.html#a203851d86025e579f73f04da0828e2bd" target="_top" xlink:title=" ">
<polygon fill="white" stroke="black" points="393,-245.5 393,-275.5 541,-275.5 541,-245.5 393,-245.5"/>
<text text-anchor="start" x="401" y="-263.5" font-family="Helvetica,sans-Serif" font-size="10.00">unilink::memory::SafeSpan</text>
<text text-anchor="middle" x="467" y="-252.5" font-family="Helvetica,sans-Serif" font-size="10.00">::data</text>
</a>
</g>
</g>
<!-- Node3&#45;&gt;Node4 -->
<g id="edge3" class="edge">
<title>Node3&#45;&gt;Node4</title>
<path fill="none" stroke="midnightblue" d="M339.86,-152.56C345.3,-155.33 350.45,-158.62 355,-162.5 382.83,-186.23 363.36,-212.55 391,-236.5 392.35,-237.67 393.76,-238.78 395.21,-239.84"/>
<polygon fill="midnightblue" stroke="midnightblue" points="393.67,-243 404.01,-245.33 397.38,-237.07 393.67,-243"/>
</g>
<!-- Node5 -->
<g id="node5" class="node">
<title>Node5</title>
<g id="a_node5"><a xlink:href="classunilink_1_1wrapper_1_1UdsServer.html#ac6991cbbbda6f3b4f4e6b7f0cf25aa30" target="_top" xlink:title="Set a factory function to create a new framer for each client connection.">
<polygon fill="white" stroke="black" points="391,-196.5 391,-226.5 543,-226.5 543,-196.5 391,-196.5"/>
<text text-anchor="start" x="399" y="-214.5" font-family="Helvetica,sans-Serif" font-size="10.00">unilink::wrapper::UdsServer</text>
<text text-anchor="middle" x="467" y="-203.5" font-family="Helvetica,sans-Serif" font-size="10.00">::framer</text>
</a>
</g>
</g>
<!-- Node3&#45;&gt;Node5 -->
<g id="edge4" class="edge">
<title>Node3&#45;&gt;Node5</title>
<path fill="none" stroke="midnightblue" d="M330.63,-152.6C338.97,-155.48 347.32,-158.78 355,-162.5 372.54,-170.98 373.53,-178.88 391,-187.5 394.72,-189.34 398.62,-191.08 402.6,-192.72"/>
<polygon fill="midnightblue" stroke="midnightblue" points="401.38,-196 411.97,-196.35 403.91,-189.47 401.38,-196"/>
</g>
<!-- Node6 -->
<g id="node6" class="node">
<title>Node6</title>
<g id="a_node6"><a xlink:href="structunilink_1_1wrapper_1_1UdsServer_1_1Impl.html#aaec314068a25262497edd3457085551e" target="_top" xlink:title=" ">
<polygon fill="white" stroke="black" points="391,-147.5 391,-177.5 543,-177.5 543,-147.5 391,-147.5"/>
<text text-anchor="start" x="399" y="-165.5" font-family="Helvetica,sans-Serif" font-size="10.00">unilink::wrapper::UdsServer</text>
<text text-anchor="middle" x="467" y="-154.5" font-family="Helvetica,sans-Serif" font-size="10.00">::Impl::fulfill_all_locked</text>
</a>
</g>
</g>
<!-- Node3&#45;&gt;Node6 -->
<g id="edge5" class="edge">
<title>Node3&#45;&gt;Node6</title>
<path fill="none" stroke="midnightblue" d="M355.12,-148.17C363.61,-149.27 372.25,-150.39 380.77,-151.49"/>
<polygon fill="midnightblue" stroke="midnightblue" points="380.33,-154.96 390.7,-152.77 381.23,-148.02 380.33,-154.96"/>
</g>
<!-- Node7 -->
<g id="node7" class="node">
<title>Node7</title>
<g id="a_node7"><a xlink:href="classunilink_1_1wrapper_1_1ServerInterface.html#a03b4193d371a68d017805e5c3aac206c" target="_top" xlink:title="Set a handler for complete messages extracted by the framer.">
<polygon fill="white" stroke="black" points="400.5,-98.5 400.5,-128.5 533.5,-128.5 533.5,-98.5 400.5,-98.5"/>
<text text-anchor="start" x="408.5" y="-116.5" font-family="Helvetica,sans-Serif" font-size="10.00">unilink::wrapper::Server</text>
<text text-anchor="middle" x="467" y="-105.5" font-family="Helvetica,sans-Serif" font-size="10.00">Interface::on_message</text>
</a>
</g>
</g>
<!-- Node3&#45;&gt;Node7 -->
<g id="edge6" class="edge">
<title>Node3&#45;&gt;Node7</title>
<path fill="none" stroke="midnightblue" d="M355.12,-127.25C366.8,-125.8 378.76,-124.32 390.3,-122.89"/>
<polygon fill="midnightblue" stroke="midnightblue" points="390.82,-126.35 400.32,-121.65 389.96,-119.4 390.82,-126.35"/>
</g>
<!-- Node8 -->
<g id="node8" class="node">
<title>Node8</title>
<g id="a_node8"><a xlink:href="classunilink_1_1memory_1_1SafeSpan.html#a0e63f52083142fa895b98ea38f51dc73" target="_top" xlink:title=" ">
<polygon fill="white" stroke="black" points="393,-49.5 393,-79.5 541,-79.5 541,-49.5 393,-49.5"/>
<text text-anchor="start" x="401" y="-67.5" font-family="Helvetica,sans-Serif" font-size="10.00">unilink::memory::SafeSpan</text>
<text text-anchor="middle" x="467" y="-56.5" font-family="Helvetica,sans-Serif" font-size="10.00">::size</text>
</a>
</g>
</g>
<!-- Node3&#45;&gt;Node8 -->
<g id="edge7" class="edge">
<title>Node3&#45;&gt;Node8</title>
<path fill="none" stroke="midnightblue" d="M308.05,-122.42C331.47,-112.65 362.89,-99.87 391,-89.5 397,-87.29 403.3,-85.05 409.59,-82.88"/>
<polygon fill="midnightblue" stroke="midnightblue" points="411.1,-86.06 419.43,-79.52 408.84,-79.44 411.1,-86.06"/>
</g>
<!-- Node9 -->
<g id="node9" class="node">
<title>Node9</title>
<g id="a_node9"><a xlink:href="namespaceunilink_1_1base_1_1safe__convert.html#a3c41d9c6266428458c97891710ac2f0d" target="_top" xlink:title="Safely convert uint8_t* to const char* for string operations.">
<polygon fill="white" stroke="black" points="398.5,-0.5 398.5,-30.5 535.5,-30.5 535.5,-0.5 398.5,-0.5"/>
<text text-anchor="start" x="406.5" y="-18.5" font-family="Helvetica,sans-Serif" font-size="10.00">unilink::base::safe</text>
<text text-anchor="middle" x="467" y="-7.5" font-family="Helvetica,sans-Serif" font-size="10.00">_convert::uint8_to_string</text>
</a>
</g>
</g>
<!-- Node3&#45;&gt;Node9 -->
<g id="edge8" class="edge">
<title>Node3&#45;&gt;Node9</title>
<path fill="none" stroke="midnightblue" d="M287.26,-122.34C308.46,-101.32 349.56,-63.35 391,-40.5 394.89,-38.35 399,-36.35 403.2,-34.49"/>
<polygon fill="midnightblue" stroke="midnightblue" points="404.62,-37.69 412.52,-30.64 401.94,-31.22 404.62,-37.69"/>
</g>
</g>
</svg>
