<?xml version="1.0" encoding="UTF-8" standalone="no"?>
<!DOCTYPE svg PUBLIC "-//W3C//DTD SVG 1.1//EN"
 "http://www.w3.org/Graphics/SVG/1.1/DTD/svg11.dtd">
<!-- Generated by graphviz version 2.43.0 (0)
 -->
<!-- Title: unilink::wrapper::TcpClient::Impl::Impl Pages: 1 -->
<svg width="705pt" height="182pt"
 viewBox="0.00 0.00 705.00 182.00" xmlns="http://www.w3.org/2000/svg" xmlns:xlink="http://www.w3.org/1999/xlink">
<g id="graph0" class="graph" transform="scale(1 1) rotate(0) translate(4 178)">
<title>unilink::wrapper::TcpClient::Impl::Impl</title>
<!-- Node1 -->
<g id="Node000001" class="node">
<title>Node1</title>
<g id="a_Node000001"><a xlink:title=" ">
<polygon fill="#999999" stroke="#666666" points="146,-102 0,-102 0,-72 146,-72 146,-102"/>
<text text-anchor="start" x="8" y="-90" font-family="Helvetica,sans-Serif" font-size="10.00">unilink::wrapper::TcpClient</text>
<text text-anchor="middle" x="73" y="-79" font-family="Helvetica,sans-Serif" font-size="10.00">::Impl::Impl</text>
</a>
</g>
</g>
<!-- Node2 -->
<g id="Node000002" class="node">
<title>Node2</title>
<g id="a_Node000002"><a xlink:href="structunilink_1_1wrapper_1_1TcpClient_1_1Impl.html#a71ca6976f08b07bfb8fdc6c17d84aae5" target="_top" xlink:title=" ">
<polygon fill="white" stroke="#666666" points="349,-102 182,-102 182,-72 349,-72 349,-102"/>
<text text-anchor="start" x="190" y="-90" font-family="Helvetica,sans-Serif" font-size="10.00">unilink::wrapper::TcpClient</text>
<text text-anchor="middle" x="265.5" y="-79" font-family="Helvetica,sans-Serif" font-size="10.00">::Impl::setup_internal_handlers</text>
</a>
</g>
</g>
<!-- Node1&#45;&gt;Node2 -->
<g id="edge1_Node000001_Node000002" class="edge">
<title>Node1&#45;&gt;Node2</title>
<g id="a_edge1_Node000001_Node000002"><a xlink:title=" ">
<path fill="none" stroke="#63b8ff" d="M146.02,-87C154.43,-87 163.09,-87 171.73,-87"/>
<polygon fill="#63b8ff" stroke="#63b8ff" points="171.83,-90.5 181.83,-87 171.83,-83.5 171.83,-90.5"/>
</a>
</g>
</g>
<!-- Node3 -->
<g id="Node000003" class="node">
<title>Node3</title>
<g id="a_Node000003"><a xlink:href="classunilink_1_1memory_1_1SafeSpan.html#a203851d86025e579f73f04da0828e2bd" target="_top" xlink:title=" ">
<polygon fill="white" stroke="#666666" points="533,-174 385,-174 385,-144 533,-144 533,-174"/>
<text text-anchor="start" x="393" y="-162" font-family="Helvetica,sans-Serif" font-size="10.00">unilink::memory::SafeSpan</text>
<text text-anchor="middle" x="459" y="-151" font-family="Helvetica,sans-Serif" font-size="10.00">::data</text>
</a>
</g>
</g>
<!-- Node2&#45;&gt;Node3 -->
<g id="edge2_Node000002_Node000003" class="edge">
<title>Node2&#45;&gt;Node3</title>
<g id="a_edge2_Node000002_Node000003"><a xlink:title=" ">
<path fill="none" stroke="#63b8ff" d="M301.78,-102.01C325.22,-111.81 356.76,-124.65 385,-135 390.17,-136.89 395.56,-138.8 400.98,-140.67"/>
<polygon fill="#63b8ff" stroke="#63b8ff" points="400.12,-144.07 410.72,-143.97 402.37,-137.44 400.12,-144.07"/>
</a>
</g>
</g>
<!-- Node4 -->
<g id="Node000004" class="node">
<title>Node4</title>
<g id="a_Node000004"><a xlink:href="classunilink_1_1memory_1_1SafeSpan.html#a0e63f52083142fa895b98ea38f51dc73" target="_top" xlink:title=" ">
<polygon fill="white" stroke="#666666" points="533,-126 385,-126 385,-96 533,-96 533,-126"/>
<text text-anchor="start" x="393" y="-114" font-family="Helvetica,sans-Serif" font-size="10.00">unilink::memory::SafeSpan</text>
<text text-anchor="middle" x="459" y="-103" font-family="Helvetica,sans-Serif" font-size="10.00">::size</text>
</a>
</g>
</g>
<!-- Node2&#45;&gt;Node4 -->
<g id="edge3_Node000002_Node000004" class="edge">
<title>Node2&#45;&gt;Node4</title>
<g id="a_edge3_Node000002_Node000004"><a xlink:title=" ">
<path fill="none" stroke="#63b8ff" d="M349.1,-97.35C357.62,-98.42 366.27,-99.5 374.79,-100.57"/>
<polygon fill="#63b8ff" stroke="#63b8ff" points="374.35,-104.04 384.71,-101.81 375.22,-97.1 374.35,-104.04"/>
</a>
</g>
</g>
<!-- Node5 -->
<g id="Node000005" class="node">
<title>Node5</title>
<g id="a_Node000005"><a xlink:href="namespaceunilink_1_1diagnostics.html#a54b6b94a2a2b770022045845ec4eaada" target="_top" xlink:title="Converts ErrorInfo to wrapper::ErrorContext.">
<polygon fill="white" stroke="#666666" points="514.5,-78 403.5,-78 403.5,-48 514.5,-48 514.5,-78"/>
<text text-anchor="start" x="411.5" y="-66" font-family="Helvetica,sans-Serif" font-size="10.00">unilink::diagnostics</text>
<text text-anchor="middle" x="459" y="-55" font-family="Helvetica,sans-Serif" font-size="10.00">::to_error_context</text>
</a>
</g>
</g>
<!-- Node2&#45;&gt;Node5 -->
<g id="edge4_Node000002_Node000005" class="edge">
<title>Node2&#45;&gt;Node5</title>
<g id="a_edge4_Node000002_Node000005"><a xlink:title=" ">
<path fill="none" stroke="#63b8ff" d="M349.1,-76.65C363.85,-74.8 379.01,-72.9 393.17,-71.12"/>
<polygon fill="#63b8ff" stroke="#63b8ff" points="393.79,-74.57 403.28,-69.86 392.92,-67.63 393.79,-74.57"/>
</a>
</g>
</g>
<!-- Node7 -->
<g id="Node000007" class="node">
<title>Node7</title>
<g id="a_Node000007"><a xlink:href="namespaceunilink_1_1base_1_1safe__convert.html#a3c41d9c6266428458c97891710ac2f0d" target="_top" xlink:title="Safely convert uint8_t* to const char* for string operations.">
<polygon fill="white" stroke="#666666" points="527.5,-30 390.5,-30 390.5,0 527.5,0 527.5,-30"/>
<text text-anchor="start" x="398.5" y="-18" font-family="Helvetica,sans-Serif" font-size="10.00">unilink::base::safe</text>
<text text-anchor="middle" x="459" y="-7" font-family="Helvetica,sans-Serif" font-size="10.00">_convert::uint8_to_string</text>
</a>
</g>
</g>
<!-- Node2&#45;&gt;Node7 -->
<g id="edge6_Node000002_Node000007" class="edge">
<title>Node2&#45;&gt;Node7</title>
<g id="a_edge6_Node000002_Node000007"><a xlink:title=" ">
<path fill="none" stroke="#63b8ff" d="M301.78,-71.99C325.22,-62.19 356.76,-49.35 385,-39 390.17,-37.11 395.56,-35.2 400.98,-33.33"/>
<polygon fill="#63b8ff" stroke="#63b8ff" points="402.37,-36.56 410.72,-30.03 400.12,-29.93 402.37,-36.56"/>
</a>
</g>
</g>
<!-- Node6 -->
<g id="Node000006" class="node">
<title>Node6</title>
<g id="a_Node000006"><a xlink:href="namespaceunilink_1_1diagnostics.html#aee016aa3a0ee29635787a9755eb352f1" target="_top" xlink:title="Maps boost::system::error_code to Unilink ErrorCode.">
<polygon fill="white" stroke="#666666" points="697,-78 569,-78 569,-48 697,-48 697,-78"/>
<text text-anchor="start" x="577" y="-66" font-family="Helvetica,sans-Serif" font-size="10.00">unilink::diagnostics</text>
<text text-anchor="middle" x="633" y="-55" font-family="Helvetica,sans-Serif" font-size="10.00">::to_unilink_error_code</text>
</a>
</g>
</g>
<!-- Node5&#45;&gt;Node6 -->
<g id="edge5_Node000005_Node000006" class="edge">
<title>Node5&#45;&gt;Node6</title>
<g id="a_edge5_Node000005_Node000006"><a xlink:title=" ">
<path fill="none" stroke="#63b8ff" d="M514.89,-63C528.87,-63 544.12,-63 558.85,-63"/>
<polygon fill="#63b8ff" stroke="#63b8ff" points="558.95,-66.5 568.95,-63 558.95,-59.5 558.95,-66.5"/>
</a>
</g>
</g>
</g>
</svg>
