<?xml version="1.0" encoding="UTF-8" standalone="no"?>
<!DOCTYPE svg PUBLIC "-//W3C//DTD SVG 1.1//EN"
 "http://www.w3.org/Graphics/SVG/1.1/DTD/svg11.dtd">
<!-- Generated by graphviz version 2.43.0 (0)
 -->
<!-- Title: unilink::diagnostics::Logger::Impl::open_log_file Pages: 1 -->
<svg width="957pt" height="50pt"
 viewBox="0.00 0.00 957.00 50.00" xmlns="http://www.w3.org/2000/svg" xmlns:xlink="http://www.w3.org/1999/xlink">
<g id="graph0" class="graph" transform="scale(1 1) rotate(0) translate(4 46)">
<title>unilink::diagnostics::Logger::Impl::open_log_file</title>
<polygon fill="white" stroke="transparent" points="-4,4 -4,-46 953,-46 953,4 -4,4"/>
<!-- Node1 -->
<g id="node1" class="node">
<title>Node1</title>
<g id="a_node1"><a xlink:title=" ">
<polygon fill="#bfbfbf" stroke="black" points="836,-0.5 836,-41.5 949,-41.5 949,-0.5 836,-0.5"/>
<text text-anchor="start" x="844" y="-29.5" font-family="Helvetica,sans-Serif" font-size="10.00">unilink::diagnostics</text>
<text text-anchor="start" x="844" y="-18.5" font-family="Helvetica,sans-Serif" font-size="10.00">::Logger::Impl::open</text>
<text text-anchor="middle" x="892.5" y="-7.5" font-family="Helvetica,sans-Serif" font-size="10.00">_log_file</text>
</a>
</g>
</g>
<!-- Node2 -->
<g id="node2" class="node">
<title>Node2</title>
<g id="a_node2"><a xlink:href="structunilink_1_1diagnostics_1_1Logger_1_1Impl.html#af740e587fbc15b84570cd287e58e6867" target="_top" xlink:title=" ">
<polygon fill="white" stroke="black" points="682,-0.5 682,-41.5 800,-41.5 800,-0.5 682,-0.5"/>
<text text-anchor="start" x="690" y="-29.5" font-family="Helvetica,sans-Serif" font-size="10.00">unilink::diagnostics</text>
<text text-anchor="start" x="690" y="-18.5" font-family="Helvetica,sans-Serif" font-size="10.00">::Logger::Impl::check</text>
<text text-anchor="middle" x="741" y="-7.5" font-family="Helvetica,sans-Serif" font-size="10.00">_and_rotate_log</text>
</a>
</g>
</g>
<!-- Node1&#45;&gt;Node2 -->
<g id="edge1" class="edge">
<title>Node1&#45;&gt;Node2</title>
<path fill="none" stroke="midnightblue" d="M825.62,-21C817.16,-21 808.54,-21 800.22,-21"/>
<polygon fill="midnightblue" stroke="midnightblue" points="825.83,-24.5 835.83,-21 825.83,-17.5 825.83,-24.5"/>
</g>
<!-- Node3 -->
<g id="node3" class="node">
<title>Node3</title>
<g id="a_node3"><a xlink:href="structunilink_1_1diagnostics_1_1Logger_1_1Impl.html#ac11431b7d1769399869154e5ac407f56" target="_top" xlink:title=" ">
<polygon fill="white" stroke="black" points="532,-0.5 532,-41.5 646,-41.5 646,-0.5 532,-0.5"/>
<text text-anchor="start" x="540" y="-29.5" font-family="Helvetica,sans-Serif" font-size="10.00">unilink::diagnostics</text>
<text text-anchor="start" x="540" y="-18.5" font-family="Helvetica,sans-Serif" font-size="10.00">::Logger::Impl::write</text>
<text text-anchor="middle" x="589" y="-7.5" font-family="Helvetica,sans-Serif" font-size="10.00">_to_sinks</text>
</a>
</g>
</g>
<!-- Node2&#45;&gt;Node3 -->
<g id="edge2" class="edge">
<title>Node2&#45;&gt;Node3</title>
<path fill="none" stroke="midnightblue" d="M671.33,-21C662.87,-21 654.3,-21 646.05,-21"/>
<polygon fill="midnightblue" stroke="midnightblue" points="671.58,-24.5 681.58,-21 671.58,-17.5 671.58,-24.5"/>
</g>
<!-- Node4 -->
<g id="node4" class="node">
<title>Node4</title>
<g id="a_node4"><a xlink:href="structunilink_1_1diagnostics_1_1Logger_1_1Impl.html#ad52c73ad91eaad48df0ed778e9f0f48e" target="_top" xlink:title=" ">
<polygon fill="white" stroke="black" points="337,-6 337,-36 496,-36 496,-6 337,-6"/>
<text text-anchor="start" x="345" y="-24" font-family="Helvetica,sans-Serif" font-size="10.00">unilink::diagnostics</text>
<text text-anchor="middle" x="416.5" y="-13" font-family="Helvetica,sans-Serif" font-size="10.00">::Logger::Impl::process_batch</text>
</a>
</g>
</g>
<!-- Node3&#45;&gt;Node4 -->
<g id="edge3" class="edge">
<title>Node3&#45;&gt;Node4</title>
<path fill="none" stroke="midnightblue" d="M521.69,-21C513.35,-21 504.77,-21 496.27,-21"/>
<polygon fill="midnightblue" stroke="midnightblue" points="521.7,-24.5 531.7,-21 521.7,-17.5 521.7,-24.5"/>
</g>
<!-- Node5 -->
<g id="node5" class="node">
<title>Node5</title>
<g id="a_node5"><a xlink:href="structunilink_1_1diagnostics_1_1Logger_1_1Impl.html#a7e8d81c56ab40421af8a4a1e4a9ee4dc" target="_top" xlink:title=" ">
<polygon fill="white" stroke="black" points="152,-6 152,-36 301,-36 301,-6 152,-6"/>
<text text-anchor="start" x="160" y="-24" font-family="Helvetica,sans-Serif" font-size="10.00">unilink::diagnostics</text>
<text text-anchor="middle" x="226.5" y="-13" font-family="Helvetica,sans-Serif" font-size="10.00">::Logger::Impl::worker_loop</text>
</a>
</g>
</g>
<!-- Node4&#45;&gt;Node5 -->
<g id="edge4" class="edge">
<title>Node4&#45;&gt;Node5</title>
<path fill="none" stroke="midnightblue" d="M326.78,-21C318.16,-21 309.47,-21 301.02,-21"/>
<polygon fill="midnightblue" stroke="midnightblue" points="326.86,-24.5 336.86,-21 326.86,-17.5 326.86,-24.5"/>
</g>
<!-- Node6 -->
<g id="node6" class="node">
<title>Node6</title>
<g id="a_node6"><a xlink:href="structunilink_1_1diagnostics_1_1Logger_1_1Impl.html#a2c07457dc964378102e8797795cf4586" target="_top" xlink:title=" ">
<polygon fill="white" stroke="black" points="0,-0.5 0,-41.5 116,-41.5 116,-0.5 0,-0.5"/>
<text text-anchor="start" x="8" y="-29.5" font-family="Helvetica,sans-Serif" font-size="10.00">unilink::diagnostics</text>
<text text-anchor="start" x="8" y="-18.5" font-family="Helvetica,sans-Serif" font-size="10.00">::Logger::Impl::setup</text>
<text text-anchor="middle" x="58" y="-7.5" font-family="Helvetica,sans-Serif" font-size="10.00">_async_logging</text>
</a>
</g>
</g>
<!-- Node5&#45;&gt;Node6 -->
<g id="edge5" class="edge">
<title>Node5&#45;&gt;Node6</title>
<path fill="none" stroke="midnightblue" d="M141.8,-21C133.11,-21 124.42,-21 116.12,-21"/>
<polygon fill="midnightblue" stroke="midnightblue" points="141.99,-24.5 151.99,-21 141.99,-17.5 141.99,-24.5"/>
</g>
</g>
</svg>
