<?xml version="1.0" encoding="UTF-8" standalone="no"?>
<!DOCTYPE svg PUBLIC "-//W3C//DTD SVG 1.1//EN"
 "http://www.w3.org/Graphics/SVG/1.1/DTD/svg11.dtd">
<!-- Generated by graphviz version 2.43.0 (0)
 -->
<!-- Title: unilink::transport::UdsClient::Impl::recalculate_backpressure_bounds Pages: 1 -->
<svg width="482pt" height="50pt"
 viewBox="0.00 0.00 482.00 50.00" xmlns="http://www.w3.org/2000/svg" xmlns:xlink="http://www.w3.org/1999/xlink">
<g id="graph0" class="graph" transform="scale(1 1) rotate(0) translate(4 46)">
<title>unilink::transport::UdsClient::Impl::recalculate_backpressure_bounds</title>
<polygon fill="white" stroke="transparent" points="-4,4 -4,-46 478,-46 478,4 -4,4"/>
<!-- Node1 -->
<g id="node1" class="node">
<title>Node1</title>
<g id="a_node1"><a xlink:title=" ">
<polygon fill="#bfbfbf" stroke="black" points="316,-0.5 316,-41.5 474,-41.5 474,-0.5 316,-0.5"/>
<text text-anchor="start" x="324" y="-29.5" font-family="Helvetica,sans-Serif" font-size="10.00">unilink::transport</text>
<text text-anchor="start" x="324" y="-18.5" font-family="Helvetica,sans-Serif" font-size="10.00">::UdsClient::Impl::recalculate</text>
<text text-anchor="middle" x="395" y="-7.5" font-family="Helvetica,sans-Serif" font-size="10.00">_backpressure_bounds</text>
</a>
</g>
</g>
<!-- Node2 -->
<g id="node2" class="node">
<title>Node2</title>
<g id="a_node2"><a xlink:href="structunilink_1_1transport_1_1UdsClient_1_1Impl.html#aef1ae6a00a18b455428034f113164489" target="_top" xlink:title=" ">
<polygon fill="white" stroke="black" points="161,-6 161,-36 280,-36 280,-6 161,-6"/>
<text text-anchor="start" x="169" y="-24" font-family="Helvetica,sans-Serif" font-size="10.00">unilink::transport</text>
<text text-anchor="middle" x="220.5" y="-13" font-family="Helvetica,sans-Serif" font-size="10.00">::UdsClient::Impl::init</text>
</a>
</g>
</g>
<!-- Node1&#45;&gt;Node2 -->
<g id="edge1" class="edge">
<title>Node1&#45;&gt;Node2</title>
<path fill="none" stroke="midnightblue" d="M305.64,-21C296.96,-21 288.31,-21 280.04,-21"/>
<polygon fill="midnightblue" stroke="midnightblue" points="305.83,-24.5 315.83,-21 305.83,-17.5 305.83,-24.5"/>
</g>
<!-- Node3 -->
<g id="node3" class="node">
<title>Node3</title>
<g id="a_node3"><a xlink:href="structunilink_1_1transport_1_1UdsClient_1_1Impl.html#a85a899fb5f0df22e272328771afc647d" target="_top" xlink:title=" ">
<polygon fill="white" stroke="black" points="0,-6 0,-36 125,-36 125,-6 0,-6"/>
<text text-anchor="start" x="8" y="-24" font-family="Helvetica,sans-Serif" font-size="10.00">unilink::transport</text>
<text text-anchor="middle" x="62.5" y="-13" font-family="Helvetica,sans-Serif" font-size="10.00">::UdsClient::Impl::Impl</text>
</a>
</g>
</g>
<!-- Node2&#45;&gt;Node3 -->
<g id="edge2" class="edge">
<title>Node2&#45;&gt;Node3</title>
<path fill="none" stroke="midnightblue" d="M150.72,-21C142.23,-21 133.6,-21 125.23,-21"/>
<polygon fill="midnightblue" stroke="midnightblue" points="150.97,-24.5 160.97,-21 150.97,-17.5 150.97,-24.5"/>
</g>
</g>
</svg>
