<?xml version="1.0" encoding="UTF-8" standalone="no"?>
<!DOCTYPE svg PUBLIC "-//W3C//DTD SVG 1.1//EN"
 "http://www.w3.org/Graphics/SVG/1.1/DTD/svg11.dtd">
<!-- Generated by graphviz version 2.43.0 (0)
 -->
<!-- Title: unilink::transport::Serial::Impl Pages: 1 -->
<svg width="167pt" height="704pt"
 viewBox="0.00 0.00 167.00 704.00" xmlns="http://www.w3.org/2000/svg" xmlns:xlink="http://www.w3.org/1999/xlink">
<g id="graph0" class="graph" transform="scale(1 1) rotate(0) translate(4 700)">
<title>unilink::transport::Serial::Impl</title>
<!-- Node1 -->
<g id="Node000001" class="node">
<title>Node1</title>
<g id="a_Node000001"><a xlink:title=" ">
<polygon fill="#999999" stroke="transparent" points="144,-390 15,-390 15,0 144,0 144,-390"/>
<text text-anchor="start" x="38" y="-378" font-family="Helvetica,sans-Serif" font-size="10.00">unilink::transport</text>
<text text-anchor="start" x="49" y="-367" font-family="Helvetica,sans-Serif" font-size="10.00">::Serial::Impl</text>
<text text-anchor="start" x="19.5" y="-352" font-family="Helvetica,sans-Serif" font-size="10.00">+</text>
<text text-anchor="start" x="32.5" y="-352" font-family="Helvetica,sans-Serif" font-size="10.00">started_</text>
<text text-anchor="start" x="19.5" y="-337" font-family="Helvetica,sans-Serif" font-size="10.00">+</text>
<text text-anchor="start" x="32.5" y="-337" font-family="Helvetica,sans-Serif" font-size="10.00">stopping_</text>
<text text-anchor="start" x="19.5" y="-322" font-family="Helvetica,sans-Serif" font-size="10.00">+</text>
<text text-anchor="start" x="32.5" y="-322" font-family="Helvetica,sans-Serif" font-size="10.00">ioc_</text>
<text text-anchor="start" x="19.5" y="-307" font-family="Helvetica,sans-Serif" font-size="10.00">+</text>
<text text-anchor="start" x="32.5" y="-307" font-family="Helvetica,sans-Serif" font-size="10.00">owns_ioc_</text>
<text text-anchor="start" x="19.5" y="-292" font-family="Helvetica,sans-Serif" font-size="10.00">+</text>
<text text-anchor="start" x="32.5" y="-292" font-family="Helvetica,sans-Serif" font-size="10.00">strand_</text>
<text text-anchor="start" x="19.5" y="-277" font-family="Helvetica,sans-Serif" font-size="10.00">+</text>
<text text-anchor="start" x="32.5" y="-277" font-family="Helvetica,sans-Serif" font-size="10.00">work_guard_</text>
<text text-anchor="start" x="19.5" y="-262" font-family="Helvetica,sans-Serif" font-size="10.00">+</text>
<text text-anchor="start" x="32.5" y="-262" font-family="Helvetica,sans-Serif" font-size="10.00">ioc_thread_</text>
<text text-anchor="start" x="19.5" y="-247" font-family="Helvetica,sans-Serif" font-size="10.00">+</text>
<text text-anchor="start" x="32.5" y="-247" font-family="Helvetica,sans-Serif" font-size="10.00">port_</text>
<text text-anchor="start" x="19.5" y="-232" font-family="Helvetica,sans-Serif" font-size="10.00">+</text>
<text text-anchor="start" x="32.5" y="-232" font-family="Helvetica,sans-Serif" font-size="10.00">retry_timer_</text>
<text text-anchor="start" x="19.5" y="-217" font-family="Helvetica,sans-Serif" font-size="10.00">+</text>
<text text-anchor="start" x="32.5" y="-217" font-family="Helvetica,sans-Serif" font-size="10.00">rx_</text>
<text text-anchor="start" x="32.5" y="-202" font-family="Helvetica,sans-Serif" font-size="10.00">and 14 more...</text>
<text text-anchor="start" x="19.5" y="-187" font-family="Helvetica,sans-Serif" font-size="10.00">+</text>
<text text-anchor="start" x="32.5" y="-187" font-family="Helvetica,sans-Serif" font-size="10.00">Impl()</text>
<text text-anchor="start" x="19.5" y="-172" font-family="Helvetica,sans-Serif" font-size="10.00">+</text>
<text text-anchor="start" x="32.5" y="-172" font-family="Helvetica,sans-Serif" font-size="10.00">Impl()</text>
<text text-anchor="start" x="19.5" y="-157" font-family="Helvetica,sans-Serif" font-size="10.00">+</text>
<text text-anchor="start" x="32.5" y="-157" font-family="Helvetica,sans-Serif" font-size="10.00">init()</text>
<text text-anchor="start" x="19.5" y="-142" font-family="Helvetica,sans-Serif" font-size="10.00">+</text>
<text text-anchor="start" x="32.5" y="-142" font-family="Helvetica,sans-Serif" font-size="10.00">~Impl()</text>
<text text-anchor="start" x="19.5" y="-127" font-family="Helvetica,sans-Serif" font-size="10.00">+</text>
<text text-anchor="start" x="32.5" y="-127" font-family="Helvetica,sans-Serif" font-size="10.00">open_and_configure()</text>
<text text-anchor="start" x="19.5" y="-112" font-family="Helvetica,sans-Serif" font-size="10.00">+</text>
<text text-anchor="start" x="32.5" y="-112" font-family="Helvetica,sans-Serif" font-size="10.00">start_read()</text>
<text text-anchor="start" x="19.5" y="-97" font-family="Helvetica,sans-Serif" font-size="10.00">+</text>
<text text-anchor="start" x="32.5" y="-97" font-family="Helvetica,sans-Serif" font-size="10.00">do_write()</text>
<text text-anchor="start" x="19.5" y="-82" font-family="Helvetica,sans-Serif" font-size="10.00">+</text>
<text text-anchor="start" x="32.5" y="-82" font-family="Helvetica,sans-Serif" font-size="10.00">perform_cleanup()</text>
<text text-anchor="start" x="19.5" y="-67" font-family="Helvetica,sans-Serif" font-size="10.00">+</text>
<text text-anchor="start" x="32.5" y="-67" font-family="Helvetica,sans-Serif" font-size="10.00">handle_error()</text>
<text text-anchor="start" x="19.5" y="-52" font-family="Helvetica,sans-Serif" font-size="10.00">+</text>
<text text-anchor="start" x="32.5" y="-52" font-family="Helvetica,sans-Serif" font-size="10.00">schedule_retry()</text>
<text text-anchor="start" x="19.5" y="-37" font-family="Helvetica,sans-Serif" font-size="10.00">+</text>
<text text-anchor="start" x="32.5" y="-37" font-family="Helvetica,sans-Serif" font-size="10.00">close_port()</text>
<text text-anchor="start" x="19.5" y="-22" font-family="Helvetica,sans-Serif" font-size="10.00">+</text>
<text text-anchor="start" x="32.5" y="-22" font-family="Helvetica,sans-Serif" font-size="10.00">notify_state()</text>
<text text-anchor="start" x="19.5" y="-7" font-family="Helvetica,sans-Serif" font-size="10.00">+</text>
<text text-anchor="start" x="32.5" y="-7" font-family="Helvetica,sans-Serif" font-size="10.00">report_backpressure()</text>
<polygon fill="#666666" stroke="#666666" points="15.5,-362 15.5,-362 144.5,-362 144.5,-362 15.5,-362"/>
<polygon fill="#666666" stroke="#666666" points="15.5,-197 15.5,-197 30.5,-197 30.5,-197 15.5,-197"/>
<polygon fill="#666666" stroke="#666666" points="30.5,-197 30.5,-197 144.5,-197 144.5,-197 30.5,-197"/>
<polygon fill="none" stroke="#666666" points="15,0 15,-390 144,-390 144,0 15,0"/>
</a>
</g>
</g>
<!-- Node2 -->
<g id="Node000002" class="node">
<title>Node2</title>
<g id="a_Node000002"><a xlink:href="structunilink_1_1config_1_1SerialConfig.html" target="_top" xlink:title=" ">
<polygon fill="white" stroke="transparent" points="159,-696 0,-696 0,-437 159,-437 159,-696"/>
<text text-anchor="start" x="13.5" y="-683.5" font-family="Helvetica,sans-Serif" font-size="10.00">unilink::config::SerialConfig</text>
<text text-anchor="start" x="4.5" y="-668.5" font-family="Helvetica,sans-Serif" font-size="10.00">+</text>
<text text-anchor="start" x="17.5" y="-668.5" font-family="Helvetica,sans-Serif" font-size="10.00">device</text>
<text text-anchor="start" x="4.5" y="-653.5" font-family="Helvetica,sans-Serif" font-size="10.00">+</text>
<text text-anchor="start" x="17.5" y="-653.5" font-family="Helvetica,sans-Serif" font-size="10.00">baud_rate</text>
<text text-anchor="start" x="4.5" y="-638.5" font-family="Helvetica,sans-Serif" font-size="10.00">+</text>
<text text-anchor="start" x="17.5" y="-638.5" font-family="Helvetica,sans-Serif" font-size="10.00">char_size</text>
<text text-anchor="start" x="4.5" y="-623.5" font-family="Helvetica,sans-Serif" font-size="10.00">+</text>
<text text-anchor="start" x="17.5" y="-623.5" font-family="Helvetica,sans-Serif" font-size="10.00">parity</text>
<text text-anchor="start" x="4.5" y="-608.5" font-family="Helvetica,sans-Serif" font-size="10.00">+</text>
<text text-anchor="start" x="17.5" y="-608.5" font-family="Helvetica,sans-Serif" font-size="10.00">stop_bits</text>
<text text-anchor="start" x="4.5" y="-593.5" font-family="Helvetica,sans-Serif" font-size="10.00">+</text>
<text text-anchor="start" x="17.5" y="-593.5" font-family="Helvetica,sans-Serif" font-size="10.00">flow</text>
<text text-anchor="start" x="4.5" y="-578.5" font-family="Helvetica,sans-Serif" font-size="10.00">+</text>
<text text-anchor="start" x="17.5" y="-578.5" font-family="Helvetica,sans-Serif" font-size="10.00">read_chunk</text>
<text text-anchor="start" x="4.5" y="-563.5" font-family="Helvetica,sans-Serif" font-size="10.00">+</text>
<text text-anchor="start" x="17.5" y="-563.5" font-family="Helvetica,sans-Serif" font-size="10.00">reopen_on_error</text>
<text text-anchor="start" x="4.5" y="-548.5" font-family="Helvetica,sans-Serif" font-size="10.00">+</text>
<text text-anchor="start" x="17.5" y="-548.5" font-family="Helvetica,sans-Serif" font-size="10.00">backpressure_threshold</text>
<text text-anchor="start" x="4.5" y="-533.5" font-family="Helvetica,sans-Serif" font-size="10.00">+</text>
<text text-anchor="start" x="17.5" y="-533.5" font-family="Helvetica,sans-Serif" font-size="10.00">backpressure_strategy</text>
<text text-anchor="start" x="4.5" y="-518.5" font-family="Helvetica,sans-Serif" font-size="10.00">+</text>
<text text-anchor="start" x="17.5" y="-518.5" font-family="Helvetica,sans-Serif" font-size="10.00">enable_memory_pool</text>
<text text-anchor="start" x="4.5" y="-503.5" font-family="Helvetica,sans-Serif" font-size="10.00">+</text>
<text text-anchor="start" x="17.5" y="-503.5" font-family="Helvetica,sans-Serif" font-size="10.00">stop_on_callback_exception</text>
<text text-anchor="start" x="4.5" y="-488.5" font-family="Helvetica,sans-Serif" font-size="10.00">+</text>
<text text-anchor="start" x="17.5" y="-488.5" font-family="Helvetica,sans-Serif" font-size="10.00">retry_interval_ms</text>
<text text-anchor="start" x="4.5" y="-473.5" font-family="Helvetica,sans-Serif" font-size="10.00">+</text>
<text text-anchor="start" x="17.5" y="-473.5" font-family="Helvetica,sans-Serif" font-size="10.00">max_retries</text>
<text text-anchor="start" x="4.5" y="-458.5" font-family="Helvetica,sans-Serif" font-size="10.00">+</text>
<text text-anchor="start" x="17.5" y="-458.5" font-family="Helvetica,sans-Serif" font-size="10.00">is_valid()</text>
<text text-anchor="start" x="4.5" y="-443.5" font-family="Helvetica,sans-Serif" font-size="10.00">+</text>
<text text-anchor="start" x="17.5" y="-443.5" font-family="Helvetica,sans-Serif" font-size="10.00">validate_and_clamp()</text>
<polygon fill="#666666" stroke="#666666" points="0.5,-678.5 0.5,-678.5 159.5,-678.5 159.5,-678.5 0.5,-678.5"/>
<polygon fill="#666666" stroke="#666666" points="0.5,-468.5 0.5,-468.5 15.5,-468.5 15.5,-468.5 0.5,-468.5"/>
<polygon fill="#666666" stroke="#666666" points="15.5,-468.5 15.5,-468.5 159.5,-468.5 159.5,-468.5 15.5,-468.5"/>
<polygon fill="none" stroke="#666666" points="0,-437 0,-696 159,-696 159,-437 0,-437"/>
</a>
</g>
</g>
<!-- Node2&#45;&gt;Node1 -->
<g id="edge1_Node000001_Node000002" class="edge">
<title>Node2&#45;&gt;Node1</title>
<g id="a_edge1_Node000001_Node000002"><a xlink:title=" ">
<path fill="none" stroke="#63b8ff" d="M79.5,-436.79C79.5,-425.58 79.5,-414.07 79.5,-402.44"/>
<polygon fill="none" stroke="#63b8ff" points="79.5,-402.29 75.5,-396.29 79.5,-390.29 83.5,-396.29 79.5,-402.29"/>
</a>
</g>
<text text-anchor="middle" x="95.5" y="-411" font-family="Helvetica,sans-Serif" font-size="10.00" fill="grey"> +cfg_</text>
</g>
</g>
</svg>
