<?xml version="1.0" encoding="UTF-8" standalone="no"?>
<!DOCTYPE svg PUBLIC "-//W3C//DTD SVG 1.1//EN"
 "http://www.w3.org/Graphics/SVG/1.1/DTD/svg11.dtd">
<!-- Generated by graphviz version 2.43.0 (0)
 -->
<!-- Title: unilink::diagnostics::Logger::Impl::to_spdlog_level Pages: 1 -->
<svg width="628pt" height="301pt"
 viewBox="0.00 0.00 628.00 300.50" xmlns="http://www.w3.org/2000/svg" xmlns:xlink="http://www.w3.org/1999/xlink">
<g id="graph0" class="graph" transform="scale(1 1) rotate(0) translate(4 296.5)">
<title>unilink::diagnostics::Logger::Impl::to_spdlog_level</title>
<!-- Node1 -->
<g id="Node000001" class="node">
<title>Node1</title>
<g id="a_Node000001"><a xlink:title=" ">
<polygon fill="#999999" stroke="#666666" points="620,-148.5 454,-148.5 454,-118.5 620,-118.5 620,-148.5"/>
<text text-anchor="start" x="462" y="-136.5" font-family="Helvetica,sans-Serif" font-size="10.00">unilink::diagnostics</text>
<text text-anchor="middle" x="537" y="-125.5" font-family="Helvetica,sans-Serif" font-size="10.00">::Logger::Impl::to_spdlog_level</text>
</a>
</g>
</g>
<!-- Node2 -->
<g id="Node000002" class="node">
<title>Node2</title>
<g id="a_Node000002"><a xlink:href="structunilink_1_1diagnostics_1_1Logger_1_1Impl.html#a1010b32f814447316da185a64f408c5f" target="_top" xlink:title=" ">
<polygon fill="white" stroke="#666666" points="406,-244.5 295,-244.5 295,-214.5 406,-214.5 406,-244.5"/>
<text text-anchor="start" x="303" y="-232.5" font-family="Helvetica,sans-Serif" font-size="10.00">unilink::diagnostics</text>
<text text-anchor="middle" x="350.5" y="-221.5" font-family="Helvetica,sans-Serif" font-size="10.00">::Logger::Impl::Impl</text>
</a>
</g>
</g>
<!-- Node1&#45;&gt;Node2 -->
<g id="edge1_Node000001_Node000002" class="edge">
<title>Node1&#45;&gt;Node2</title>
<g id="a_edge1_Node000001_Node000002"><a xlink:title=" ">
<path fill="none" stroke="#63b8ff" d="M505.73,-154.32C482.44,-169.75 449.08,-190.6 418,-205.5 411.36,-208.68 404.18,-211.69 397.08,-214.44"/>
<polygon fill="#63b8ff" stroke="#63b8ff" points="507.77,-157.16 514.13,-148.69 503.88,-151.35 507.77,-157.16"/>
</a>
</g>
</g>
<!-- Node3 -->
<g id="Node000003" class="node">
<title>Node3</title>
<g id="a_Node000003"><a xlink:href="classunilink_1_1diagnostics_1_1Logger.html#aadd090ffcd9a4854e599a4c3225f1db5" target="_top" xlink:title=" ">
<polygon fill="white" stroke="#666666" points="406,-196.5 295,-196.5 295,-166.5 406,-166.5 406,-196.5"/>
<text text-anchor="start" x="303" y="-184.5" font-family="Helvetica,sans-Serif" font-size="10.00">unilink::diagnostics</text>
<text text-anchor="middle" x="350.5" y="-173.5" font-family="Helvetica,sans-Serif" font-size="10.00">::Logger::log</text>
</a>
</g>
</g>
<!-- Node1&#45;&gt;Node3 -->
<g id="edge2_Node000001_Node000003" class="edge">
<title>Node1&#45;&gt;Node3</title>
<g id="a_edge2_Node000001_Node000003"><a xlink:title=" ">
<path fill="none" stroke="#63b8ff" d="M468.23,-151.13C447.75,-156.46 425.52,-162.24 406.02,-167.32"/>
<polygon fill="#63b8ff" stroke="#63b8ff" points="469.33,-154.46 478.13,-148.56 467.57,-147.69 469.33,-154.46"/>
</a>
</g>
</g>
<!-- Node10 -->
<g id="Node000010" class="node">
<title>Node10</title>
<g id="a_Node000010"><a xlink:href="classunilink_1_1diagnostics_1_1Logger.html#a7e8ec37c982ad0a16b56ad33ae62932b" target="_top" xlink:title="Set minimum log level.">
<polygon fill="white" stroke="#666666" points="406,-148.5 295,-148.5 295,-118.5 406,-118.5 406,-148.5"/>
<text text-anchor="start" x="303" y="-136.5" font-family="Helvetica,sans-Serif" font-size="10.00">unilink::diagnostics</text>
<text text-anchor="middle" x="350.5" y="-125.5" font-family="Helvetica,sans-Serif" font-size="10.00">::Logger::set_level</text>
</a>
</g>
</g>
<!-- Node1&#45;&gt;Node10 -->
<g id="edge9_Node000001_Node000010" class="edge">
<title>Node1&#45;&gt;Node10</title>
<g id="a_edge9_Node000001_Node000010"><a xlink:title=" ">
<path fill="none" stroke="#63b8ff" d="M443.48,-133.5C430.67,-133.5 417.88,-133.5 406.07,-133.5"/>
<polygon fill="#63b8ff" stroke="#63b8ff" points="443.73,-137 453.73,-133.5 443.73,-130 443.73,-137"/>
</a>
</g>
</g>
<!-- Node11 -->
<g id="Node000011" class="node">
<title>Node11</title>
<g id="a_Node000011"><a xlink:href="structunilink_1_1diagnostics_1_1Logger_1_1Impl.html#a2c07457dc964378102e8797795cf4586" target="_top" xlink:title=" ">
<polygon fill="white" stroke="#666666" points="408.5,-100 292.5,-100 292.5,-59 408.5,-59 408.5,-100"/>
<text text-anchor="start" x="300.5" y="-88" font-family="Helvetica,sans-Serif" font-size="10.00">unilink::diagnostics</text>
<text text-anchor="start" x="300.5" y="-77" font-family="Helvetica,sans-Serif" font-size="10.00">::Logger::Impl::setup</text>
<text text-anchor="middle" x="350.5" y="-66" font-family="Helvetica,sans-Serif" font-size="10.00">_async_logging</text>
</a>
</g>
</g>
<!-- Node1&#45;&gt;Node11 -->
<g id="edge10_Node000001_Node000011" class="edge">
<title>Node1&#45;&gt;Node11</title>
<g id="a_edge10_Node000001_Node000011"><a xlink:title=" ">
<path fill="none" stroke="#63b8ff" d="M475,-115.65C453.67,-109.4 429.8,-102.42 408.78,-96.27"/>
<polygon fill="#63b8ff" stroke="#63b8ff" points="474.03,-119.01 484.61,-118.46 475.99,-112.29 474.03,-119.01"/>
</a>
</g>
</g>
<!-- Node12 -->
<g id="Node000012" class="node">
<title>Node12</title>
<g id="a_Node000012"><a xlink:href="structunilink_1_1diagnostics_1_1Logger_1_1Impl.html#ab424d3003c2b6ec43076a9943c5081f4" target="_top" xlink:title=" ">
<polygon fill="white" stroke="#666666" points="418,-41 283,-41 283,0 418,0 418,-41"/>
<text text-anchor="start" x="291" y="-29" font-family="Helvetica,sans-Serif" font-size="10.00">unilink::diagnostics</text>
<text text-anchor="start" x="291" y="-18" font-family="Helvetica,sans-Serif" font-size="10.00">::Logger::Impl::teardown</text>
<text text-anchor="middle" x="350.5" y="-7" font-family="Helvetica,sans-Serif" font-size="10.00">_async_logging</text>
</a>
</g>
</g>
<!-- Node1&#45;&gt;Node12 -->
<g id="edge11_Node000001_Node000012" class="edge">
<title>Node1&#45;&gt;Node12</title>
<g id="a_edge11_Node000001_Node000012"><a xlink:title=" ">
<path fill="none" stroke="#63b8ff" d="M509.19,-111.96C485.94,-93.9 450.94,-68.14 418,-49.5 412.85,-46.58 407.35,-43.76 401.8,-41.1"/>
<polygon fill="#63b8ff" stroke="#63b8ff" points="507.16,-114.82 517.19,-118.24 511.48,-109.32 507.16,-114.82"/>
</a>
</g>
</g>
<!-- Node4 -->
<g id="Node000004" class="node">
<title>Node4</title>
<g id="a_Node000004"><a xlink:href="classunilink_1_1diagnostics_1_1Logger.html#ae0d5c3ec0fff490b4f41c57b606d51c3" target="_top" xlink:title=" ">
<polygon fill="white" stroke="#666666" points="247,-292.5 136,-292.5 136,-262.5 247,-262.5 247,-292.5"/>
<text text-anchor="start" x="144" y="-280.5" font-family="Helvetica,sans-Serif" font-size="10.00">unilink::diagnostics</text>
<text text-anchor="middle" x="191.5" y="-269.5" font-family="Helvetica,sans-Serif" font-size="10.00">::Logger::critical</text>
</a>
</g>
</g>
<!-- Node3&#45;&gt;Node4 -->
<g id="edge3_Node000003_Node000004" class="edge">
<title>Node3&#45;&gt;Node4</title>
<g id="a_edge3_Node000003_Node000004"><a xlink:title=" ">
<path fill="none" stroke="#63b8ff" d="M289.37,-201.25C287.16,-202.58 285.03,-204 283,-205.5 261.56,-221.36 267.88,-236.92 247,-253.5 242.79,-256.84 238.04,-259.82 233.15,-262.44"/>
<polygon fill="#63b8ff" stroke="#63b8ff" points="291.03,-204.33 298.18,-196.51 287.71,-198.17 291.03,-204.33"/>
</a>
</g>
</g>
<!-- Node5 -->
<g id="Node000005" class="node">
<title>Node5</title>
<g id="a_Node000005"><a xlink:href="classunilink_1_1diagnostics_1_1Logger.html#af2864d7de88840d04b9197e7c228a4a1" target="_top" xlink:title=" ">
<polygon fill="white" stroke="#666666" points="247,-244.5 136,-244.5 136,-214.5 247,-214.5 247,-244.5"/>
<text text-anchor="start" x="144" y="-232.5" font-family="Helvetica,sans-Serif" font-size="10.00">unilink::diagnostics</text>
<text text-anchor="middle" x="191.5" y="-221.5" font-family="Helvetica,sans-Serif" font-size="10.00">::Logger::debug</text>
</a>
</g>
</g>
<!-- Node3&#45;&gt;Node5 -->
<g id="edge4_Node000003_Node000005" class="edge">
<title>Node3&#45;&gt;Node5</title>
<g id="a_edge4_Node000003_Node000005"><a xlink:title=" ">
<path fill="none" stroke="#63b8ff" d="M290.41,-199.57C274.31,-204.49 257.05,-209.77 241.57,-214.5"/>
<polygon fill="#63b8ff" stroke="#63b8ff" points="291.72,-202.83 300.25,-196.56 289.67,-196.13 291.72,-202.83"/>
</a>
</g>
</g>
<!-- Node6 -->
<g id="Node000006" class="node">
<title>Node6</title>
<g id="a_Node000006"><a xlink:href="classunilink_1_1diagnostics_1_1Logger.html#aa55074fbfd3d754a6f311505220ac746" target="_top" xlink:title=" ">
<polygon fill="white" stroke="#666666" points="247,-196.5 136,-196.5 136,-166.5 247,-166.5 247,-196.5"/>
<text text-anchor="start" x="144" y="-184.5" font-family="Helvetica,sans-Serif" font-size="10.00">unilink::diagnostics</text>
<text text-anchor="middle" x="191.5" y="-173.5" font-family="Helvetica,sans-Serif" font-size="10.00">::Logger::error</text>
</a>
</g>
</g>
<!-- Node3&#45;&gt;Node6 -->
<g id="edge5_Node000003_Node000006" class="edge">
<title>Node3&#45;&gt;Node6</title>
<g id="a_edge5_Node000003_Node000006"><a xlink:title=" ">
<path fill="none" stroke="#63b8ff" d="M284.33,-181.5C271.95,-181.5 259.12,-181.5 247.11,-181.5"/>
<polygon fill="#63b8ff" stroke="#63b8ff" points="284.59,-185 294.59,-181.5 284.59,-178 284.59,-185"/>
</a>
</g>
</g>
<!-- Node7 -->
<g id="Node000007" class="node">
<title>Node7</title>
<g id="a_Node000007"><a xlink:href="classunilink_1_1diagnostics_1_1Logger.html#ab1b4af7b4170551f3f9813100f46295e" target="_top" xlink:title=" ">
<polygon fill="white" stroke="#666666" points="247,-148.5 136,-148.5 136,-118.5 247,-118.5 247,-148.5"/>
<text text-anchor="start" x="144" y="-136.5" font-family="Helvetica,sans-Serif" font-size="10.00">unilink::diagnostics</text>
<text text-anchor="middle" x="191.5" y="-125.5" font-family="Helvetica,sans-Serif" font-size="10.00">::Logger::info</text>
</a>
</g>
</g>
<!-- Node3&#45;&gt;Node7 -->
<g id="edge6_Node000003_Node000007" class="edge">
<title>Node3&#45;&gt;Node7</title>
<g id="a_edge6_Node000003_Node000007"><a xlink:title=" ">
<path fill="none" stroke="#63b8ff" d="M290.41,-163.43C274.31,-158.51 257.05,-153.23 241.57,-148.5"/>
<polygon fill="#63b8ff" stroke="#63b8ff" points="289.67,-166.87 300.25,-166.44 291.72,-160.17 289.67,-166.87"/>
</a>
</g>
</g>
<!-- Node9 -->
<g id="Node000009" class="node">
<title>Node9</title>
<g id="a_Node000009"><a xlink:href="classunilink_1_1diagnostics_1_1Logger.html#a4ed0d7fe1aefad059c2252249631d792" target="_top" xlink:title=" ">
<polygon fill="white" stroke="#666666" points="247,-100.5 136,-100.5 136,-70.5 247,-70.5 247,-100.5"/>
<text text-anchor="start" x="144" y="-88.5" font-family="Helvetica,sans-Serif" font-size="10.00">unilink::diagnostics</text>
<text text-anchor="middle" x="191.5" y="-77.5" font-family="Helvetica,sans-Serif" font-size="10.00">::Logger::warning</text>
</a>
</g>
</g>
<!-- Node3&#45;&gt;Node9 -->
<g id="edge8_Node000003_Node000009" class="edge">
<title>Node3&#45;&gt;Node9</title>
<g id="a_edge8_Node000003_Node000009"><a xlink:title=" ">
<path fill="none" stroke="#63b8ff" d="M289.37,-161.75C287.16,-160.42 285.03,-159 283,-157.5 261.56,-141.64 267.88,-126.08 247,-109.5 242.79,-106.16 238.04,-103.18 233.15,-100.56"/>
<polygon fill="#63b8ff" stroke="#63b8ff" points="287.71,-164.83 298.18,-166.49 291.03,-158.67 287.71,-164.83"/>
</a>
</g>
</g>
<!-- Node8 -->
<g id="Node000008" class="node">
<title>Node8</title>
<g id="a_Node000008"><a xlink:href="namespaceunilink_1_1base.html#a07399b407f151a0fb40ac854476a40c5" target="_top" xlink:title=" ">
<polygon fill="white" stroke="#666666" points="100,-148.5 0,-148.5 0,-118.5 100,-118.5 100,-148.5"/>
<text text-anchor="start" x="8" y="-136.5" font-family="Helvetica,sans-Serif" font-size="10.00">unilink::base::log</text>
<text text-anchor="middle" x="50" y="-125.5" font-family="Helvetica,sans-Serif" font-size="10.00">_message</text>
</a>
</g>
</g>
<!-- Node7&#45;&gt;Node8 -->
<g id="edge7_Node000007_Node000008" class="edge">
<title>Node7&#45;&gt;Node8</title>
<g id="a_edge7_Node000007_Node000008"><a xlink:title=" ">
<path fill="none" stroke="#63b8ff" d="M125.74,-133.5C117.13,-133.5 108.42,-133.5 100.13,-133.5"/>
<polygon fill="#63b8ff" stroke="#63b8ff" points="125.77,-137 135.77,-133.5 125.77,-130 125.77,-137"/>
</a>
</g>
</g>
</g>
</svg>
