<?xml version="1.0" encoding="UTF-8" standalone="no"?>
<!DOCTYPE svg PUBLIC "-//W3C//DTD SVG 1.1//EN"
 "http://www.w3.org/Graphics/SVG/1.1/DTD/svg11.dtd">
<!-- Generated by graphviz version 2.43.0 (0)
 -->
<!-- Title: unilink::wrapper::UdpServer::Impl Pages: 1 -->
<svg width="167pt" height="584pt"
 viewBox="0.00 0.00 167.00 584.00" xmlns="http://www.w3.org/2000/svg" xmlns:xlink="http://www.w3.org/1999/xlink">
<g id="graph0" class="graph" transform="scale(1 1) rotate(0) translate(4 580)">
<title>unilink::wrapper::UdpServer::Impl</title>
<!-- Node1 -->
<g id="Node000001" class="node">
<title>Node1</title>
<g id="a_Node000001"><a xlink:title=" ">
<polygon fill="#999999" stroke="transparent" points="154,-345 5,-345 5,0 154,0 154,-345"/>
<text text-anchor="start" x="12" y="-332.5" font-family="Helvetica,sans-Serif" font-size="10.00">unilink::wrapper::UdpServer</text>
<text text-anchor="start" x="66" y="-321.5" font-family="Helvetica,sans-Serif" font-size="10.00">::Impl</text>
<text text-anchor="start" x="9.5" y="-306.5" font-family="Helvetica,sans-Serif" font-size="10.00">+</text>
<text text-anchor="start" x="22.5" y="-306.5" font-family="Helvetica,sans-Serif" font-size="10.00">channel</text>
<text text-anchor="start" x="9.5" y="-291.5" font-family="Helvetica,sans-Serif" font-size="10.00">+</text>
<text text-anchor="start" x="22.5" y="-291.5" font-family="Helvetica,sans-Serif" font-size="10.00">external_ioc</text>
<text text-anchor="start" x="9.5" y="-276.5" font-family="Helvetica,sans-Serif" font-size="10.00">+</text>
<text text-anchor="start" x="22.5" y="-276.5" font-family="Helvetica,sans-Serif" font-size="10.00">use_external_context</text>
<text text-anchor="start" x="9.5" y="-261.5" font-family="Helvetica,sans-Serif" font-size="10.00">+</text>
<text text-anchor="start" x="22.5" y="-261.5" font-family="Helvetica,sans-Serif" font-size="10.00">manage_external_context</text>
<text text-anchor="start" x="9.5" y="-246.5" font-family="Helvetica,sans-Serif" font-size="10.00">+</text>
<text text-anchor="start" x="22.5" y="-246.5" font-family="Helvetica,sans-Serif" font-size="10.00">external_thread</text>
<text text-anchor="start" x="9.5" y="-231.5" font-family="Helvetica,sans-Serif" font-size="10.00">+</text>
<text text-anchor="start" x="22.5" y="-231.5" font-family="Helvetica,sans-Serif" font-size="10.00">work_guard</text>
<text text-anchor="start" x="9.5" y="-216.5" font-family="Helvetica,sans-Serif" font-size="10.00">+</text>
<text text-anchor="start" x="22.5" y="-216.5" font-family="Helvetica,sans-Serif" font-size="10.00">mutex</text>
<text text-anchor="start" x="9.5" y="-201.5" font-family="Helvetica,sans-Serif" font-size="10.00">+</text>
<text text-anchor="start" x="22.5" y="-201.5" font-family="Helvetica,sans-Serif" font-size="10.00">pending_promises</text>
<text text-anchor="start" x="9.5" y="-186.5" font-family="Helvetica,sans-Serif" font-size="10.00">+</text>
<text text-anchor="start" x="22.5" y="-186.5" font-family="Helvetica,sans-Serif" font-size="10.00">started</text>
<text text-anchor="start" x="9.5" y="-171.5" font-family="Helvetica,sans-Serif" font-size="10.00">+</text>
<text text-anchor="start" x="22.5" y="-171.5" font-family="Helvetica,sans-Serif" font-size="10.00">is_listening</text>
<text text-anchor="start" x="22.5" y="-156.5" font-family="Helvetica,sans-Serif" font-size="10.00">and 13 more...</text>
<text text-anchor="start" x="9.5" y="-141.5" font-family="Helvetica,sans-Serif" font-size="10.00">+</text>
<text text-anchor="start" x="22.5" y="-141.5" font-family="Helvetica,sans-Serif" font-size="10.00">Impl()</text>
<text text-anchor="start" x="9.5" y="-126.5" font-family="Helvetica,sans-Serif" font-size="10.00">+</text>
<text text-anchor="start" x="22.5" y="-126.5" font-family="Helvetica,sans-Serif" font-size="10.00">Impl()</text>
<text text-anchor="start" x="9.5" y="-111.5" font-family="Helvetica,sans-Serif" font-size="10.00">+</text>
<text text-anchor="start" x="22.5" y="-111.5" font-family="Helvetica,sans-Serif" font-size="10.00">Impl()</text>
<text text-anchor="start" x="9.5" y="-96.5" font-family="Helvetica,sans-Serif" font-size="10.00">+</text>
<text text-anchor="start" x="22.5" y="-96.5" font-family="Helvetica,sans-Serif" font-size="10.00">~Impl()</text>
<text text-anchor="start" x="9.5" y="-81.5" font-family="Helvetica,sans-Serif" font-size="10.00">+</text>
<text text-anchor="start" x="22.5" y="-81.5" font-family="Helvetica,sans-Serif" font-size="10.00">fulfill_all_locked()</text>
<text text-anchor="start" x="9.5" y="-66.5" font-family="Helvetica,sans-Serif" font-size="10.00">+</text>
<text text-anchor="start" x="22.5" y="-66.5" font-family="Helvetica,sans-Serif" font-size="10.00">schedule_reaper()</text>
<text text-anchor="start" x="9.5" y="-51.5" font-family="Helvetica,sans-Serif" font-size="10.00">+</text>
<text text-anchor="start" x="22.5" y="-51.5" font-family="Helvetica,sans-Serif" font-size="10.00">run_reaper()</text>
<text text-anchor="start" x="9.5" y="-36.5" font-family="Helvetica,sans-Serif" font-size="10.00">+</text>
<text text-anchor="start" x="22.5" y="-36.5" font-family="Helvetica,sans-Serif" font-size="10.00">setup_internal_handlers()</text>
<text text-anchor="start" x="9.5" y="-21.5" font-family="Helvetica,sans-Serif" font-size="10.00">+</text>
<text text-anchor="start" x="22.5" y="-21.5" font-family="Helvetica,sans-Serif" font-size="10.00">start()</text>
<text text-anchor="start" x="9.5" y="-6.5" font-family="Helvetica,sans-Serif" font-size="10.00">+</text>
<text text-anchor="start" x="22.5" y="-6.5" font-family="Helvetica,sans-Serif" font-size="10.00">stop()</text>
<polygon fill="#666666" stroke="#666666" points="5.5,-316.5 5.5,-316.5 154.5,-316.5 154.5,-316.5 5.5,-316.5"/>
<polygon fill="#666666" stroke="#666666" points="5.5,-151.5 5.5,-151.5 20.5,-151.5 20.5,-151.5 5.5,-151.5"/>
<polygon fill="#666666" stroke="#666666" points="20.5,-151.5 20.5,-151.5 154.5,-151.5 154.5,-151.5 20.5,-151.5"/>
<polygon fill="none" stroke="#666666" points="5,0 5,-345 154,-345 154,0 5,0"/>
</a>
</g>
</g>
<!-- Node2 -->
<g id="Node000002" class="node">
<title>Node2</title>
<g id="a_Node000002"><a xlink:href="structunilink_1_1config_1_1UdpConfig.html" target="_top" xlink:title=" ">
<polygon fill="white" stroke="transparent" points="159,-576 0,-576 0,-392 159,-392 159,-576"/>
<text text-anchor="start" x="17.5" y="-564" font-family="Helvetica,sans-Serif" font-size="10.00">unilink::config::UdpConfig</text>
<text text-anchor="start" x="4.5" y="-549" font-family="Helvetica,sans-Serif" font-size="10.00">+</text>
<text text-anchor="start" x="17.5" y="-549" font-family="Helvetica,sans-Serif" font-size="10.00">local_address</text>
<text text-anchor="start" x="4.5" y="-534" font-family="Helvetica,sans-Serif" font-size="10.00">+</text>
<text text-anchor="start" x="17.5" y="-534" font-family="Helvetica,sans-Serif" font-size="10.00">local_port</text>
<text text-anchor="start" x="4.5" y="-519" font-family="Helvetica,sans-Serif" font-size="10.00">+</text>
<text text-anchor="start" x="17.5" y="-519" font-family="Helvetica,sans-Serif" font-size="10.00">remote_address</text>
<text text-anchor="start" x="4.5" y="-504" font-family="Helvetica,sans-Serif" font-size="10.00">+</text>
<text text-anchor="start" x="17.5" y="-504" font-family="Helvetica,sans-Serif" font-size="10.00">remote_port</text>
<text text-anchor="start" x="4.5" y="-489" font-family="Helvetica,sans-Serif" font-size="10.00">+</text>
<text text-anchor="start" x="17.5" y="-489" font-family="Helvetica,sans-Serif" font-size="10.00">backpressure_threshold</text>
<text text-anchor="start" x="4.5" y="-474" font-family="Helvetica,sans-Serif" font-size="10.00">+</text>
<text text-anchor="start" x="17.5" y="-474" font-family="Helvetica,sans-Serif" font-size="10.00">enable_broadcast</text>
<text text-anchor="start" x="4.5" y="-459" font-family="Helvetica,sans-Serif" font-size="10.00">+</text>
<text text-anchor="start" x="17.5" y="-459" font-family="Helvetica,sans-Serif" font-size="10.00">reuse_address</text>
<text text-anchor="start" x="4.5" y="-444" font-family="Helvetica,sans-Serif" font-size="10.00">+</text>
<text text-anchor="start" x="17.5" y="-444" font-family="Helvetica,sans-Serif" font-size="10.00">enable_memory_pool</text>
<text text-anchor="start" x="4.5" y="-429" font-family="Helvetica,sans-Serif" font-size="10.00">+</text>
<text text-anchor="start" x="17.5" y="-429" font-family="Helvetica,sans-Serif" font-size="10.00">stop_on_callback_exception</text>
<text text-anchor="start" x="4.5" y="-414" font-family="Helvetica,sans-Serif" font-size="10.00">+</text>
<text text-anchor="start" x="17.5" y="-414" font-family="Helvetica,sans-Serif" font-size="10.00">is_valid()</text>
<text text-anchor="start" x="4.5" y="-399" font-family="Helvetica,sans-Serif" font-size="10.00">+</text>
<text text-anchor="start" x="17.5" y="-399" font-family="Helvetica,sans-Serif" font-size="10.00">validate_and_clamp()</text>
<polygon fill="#666666" stroke="#666666" points="0.5,-559 0.5,-559 159.5,-559 159.5,-559 0.5,-559"/>
<polygon fill="#666666" stroke="#666666" points="0.5,-424 0.5,-424 15.5,-424 15.5,-424 0.5,-424"/>
<polygon fill="#666666" stroke="#666666" points="15.5,-424 15.5,-424 159.5,-424 159.5,-424 15.5,-424"/>
<polygon fill="none" stroke="#666666" points="0,-392 0,-576 159,-576 159,-392 0,-392"/>
</a>
</g>
</g>
<!-- Node2&#45;&gt;Node1 -->
<g id="edge1_Node000001_Node000002" class="edge">
<title>Node2&#45;&gt;Node1</title>
<g id="a_edge1_Node000001_Node000002"><a xlink:title=" ">
<path fill="none" stroke="#63b8ff" d="M79.5,-391.81C79.5,-380.65 79.5,-368.95 79.5,-357.01"/>
<polygon fill="none" stroke="#63b8ff" points="79.5,-357 75.5,-351 79.5,-345 83.5,-351 79.5,-357"/>
</a>
</g>
<text text-anchor="middle" x="93" y="-366" font-family="Helvetica,sans-Serif" font-size="10.00" fill="grey"> +cfg</text>
</g>
</g>
</svg>
