<?xml version="1.0" encoding="UTF-8" standalone="no"?>
<!DOCTYPE svg PUBLIC "-//W3C//DTD SVG 1.1//EN"
 "http://www.w3.org/Graphics/SVG/1.1/DTD/svg11.dtd">
<!-- Generated by graphviz version 2.43.0 (0)
 -->
<!-- Title: unilink::diagnostics::Logger::Impl::get_queue_size Pages: 1 -->
<svg width="331pt" height="100pt"
 viewBox="0.00 0.00 331.00 99.50" xmlns="http://www.w3.org/2000/svg" xmlns:xlink="http://www.w3.org/1999/xlink">
<g id="graph0" class="graph" transform="scale(1 1) rotate(0) translate(4 95.5)">
<title>unilink::diagnostics::Logger::Impl::get_queue_size</title>
<polygon fill="white" stroke="transparent" points="-4,4 -4,-95.5 327,-95.5 327,4 -4,4"/>
<!-- Node1 -->
<g id="node1" class="node">
<title>Node1</title>
<g id="a_node1"><a xlink:title=" ">
<polygon fill="#bfbfbf" stroke="black" points="158,-33 158,-63 323,-63 323,-33 158,-33"/>
<text text-anchor="start" x="166" y="-51" font-family="Helvetica,sans-Serif" font-size="10.00">unilink::diagnostics</text>
<text text-anchor="middle" x="240.5" y="-40" font-family="Helvetica,sans-Serif" font-size="10.00">::Logger::Impl::get_queue_size</text>
</a>
</g>
</g>
<!-- Node2 -->
<g id="node2" class="node">
<title>Node2</title>
<g id="a_node2"><a xlink:href="classunilink_1_1diagnostics_1_1Logger.html#a4d95865a91294f933a01d52f5fc3feb2" target="_top" xlink:title="Get async logging statistics.">
<polygon fill="white" stroke="black" points="1.5,-61 1.5,-91 120.5,-91 120.5,-61 1.5,-61"/>
<text text-anchor="start" x="9.5" y="-79" font-family="Helvetica,sans-Serif" font-size="10.00">unilink::diagnostics</text>
<text text-anchor="middle" x="61" y="-68" font-family="Helvetica,sans-Serif" font-size="10.00">::Logger::async_stats</text>
</a>
</g>
</g>
<!-- Node1&#45;&gt;Node2 -->
<g id="edge1" class="edge">
<title>Node1&#45;&gt;Node2</title>
<path fill="none" stroke="midnightblue" d="M147.74,-62.48C138.5,-63.93 129.3,-65.38 120.54,-66.76"/>
<polygon fill="midnightblue" stroke="midnightblue" points="148.43,-65.91 157.76,-60.89 147.34,-58.99 148.43,-65.91"/>
</g>
<!-- Node3 -->
<g id="node3" class="node">
<title>Node3</title>
<g id="a_node3"><a xlink:href="structunilink_1_1diagnostics_1_1Logger_1_1Impl.html#ae587a15cc17475fec03f7e83716bf603" target="_top" xlink:title=" ">
<polygon fill="white" stroke="black" points="0,-0.5 0,-41.5 122,-41.5 122,-0.5 0,-0.5"/>
<text text-anchor="start" x="8" y="-29.5" font-family="Helvetica,sans-Serif" font-size="10.00">unilink::diagnostics</text>
<text text-anchor="start" x="8" y="-18.5" font-family="Helvetica,sans-Serif" font-size="10.00">::Logger::Impl::should</text>
<text text-anchor="middle" x="61" y="-7.5" font-family="Helvetica,sans-Serif" font-size="10.00">_drop_log</text>
</a>
</g>
</g>
<!-- Node1&#45;&gt;Node3 -->
<g id="edge2" class="edge">
<title>Node1&#45;&gt;Node3</title>
<path fill="none" stroke="midnightblue" d="M147.61,-34.02C138.96,-32.71 130.35,-31.4 122.1,-30.14"/>
<polygon fill="midnightblue" stroke="midnightblue" points="147.35,-37.52 157.76,-35.57 148.4,-30.6 147.35,-37.52"/>
</g>
</g>
</svg>
