<?xml version="1.0" encoding="UTF-8" standalone="no"?>
<!DOCTYPE svg PUBLIC "-//W3C//DTD SVG 1.1//EN"
 "http://www.w3.org/Graphics/SVG/1.1/DTD/svg11.dtd">
<!-- Generated by graphviz version 2.43.0 (0)
 -->
<!-- Title: unilink::wrapper::UdpServer::Impl::start Pages: 1 -->
<svg width="685pt" height="372pt"
 viewBox="0.00 0.00 685.00 372.00" xmlns="http://www.w3.org/2000/svg" xmlns:xlink="http://www.w3.org/1999/xlink">
<g id="graph0" class="graph" transform="scale(1 1) rotate(0) translate(4 368)">
<title>unilink::wrapper::UdpServer::Impl::start</title>
<polygon fill="white" stroke="transparent" points="-4,4 -4,-368 681,-368 681,4 -4,4"/>
<!-- Node1 -->
<g id="node1" class="node">
<title>Node1</title>
<g id="a_node1"><a xlink:title=" ">
<polygon fill="#bfbfbf" stroke="black" points="0,-276.5 0,-306.5 152,-306.5 152,-276.5 0,-276.5"/>
<text text-anchor="start" x="8" y="-294.5" font-family="Helvetica,sans-Serif" font-size="10.00">unilink::wrapper::UdpServer</text>
<text text-anchor="middle" x="76" y="-283.5" font-family="Helvetica,sans-Serif" font-size="10.00">::Impl::start</text>
</a>
</g>
</g>
<!-- Node2 -->
<g id="node2" class="node">
<title>Node2</title>
<g id="a_node2"><a xlink:href="classunilink_1_1factory_1_1ChannelFactory.html#ab3a1a57092352b627809138adadb34a6" target="_top" xlink:title=" ">
<polygon fill="white" stroke="black" points="204,-325.5 204,-355.5 339,-355.5 339,-325.5 204,-325.5"/>
<text text-anchor="start" x="212" y="-343.5" font-family="Helvetica,sans-Serif" font-size="10.00">unilink::factory::Channel</text>
<text text-anchor="middle" x="271.5" y="-332.5" font-family="Helvetica,sans-Serif" font-size="10.00">Factory::create</text>
</a>
</g>
</g>
<!-- Node1&#45;&gt;Node2 -->
<g id="edge1" class="edge">
<title>Node1&#45;&gt;Node2</title>
<path fill="none" stroke="midnightblue" d="M136.37,-306.53C156.9,-311.73 180.07,-317.6 201.31,-322.98"/>
<polygon fill="midnightblue" stroke="midnightblue" points="200.69,-326.43 211.24,-325.49 202.41,-319.65 200.69,-326.43"/>
</g>
<!-- Node3 -->
<g id="node3" class="node">
<title>Node3</title>
<g id="a_node3"><a xlink:href="structunilink_1_1wrapper_1_1UdpServer_1_1Impl.html#a90e0f997d6fcd89334e0d3edc1da8c85" target="_top" xlink:title=" ">
<polygon fill="white" stroke="black" points="195.5,-276.5 195.5,-306.5 347.5,-306.5 347.5,-276.5 195.5,-276.5"/>
<text text-anchor="start" x="203.5" y="-294.5" font-family="Helvetica,sans-Serif" font-size="10.00">unilink::wrapper::UdpServer</text>
<text text-anchor="middle" x="271.5" y="-283.5" font-family="Helvetica,sans-Serif" font-size="10.00">::Impl::schedule_reaper</text>
</a>
</g>
</g>
<!-- Node1&#45;&gt;Node3 -->
<g id="edge2" class="edge">
<title>Node1&#45;&gt;Node3</title>
<path fill="none" stroke="midnightblue" d="M152.09,-291.5C162.99,-291.5 174.27,-291.5 185.35,-291.5"/>
<polygon fill="midnightblue" stroke="midnightblue" points="185.45,-295 195.45,-291.5 185.45,-288 185.45,-295"/>
</g>
<!-- Node6 -->
<g id="node6" class="node">
<title>Node6</title>
<g id="a_node6"><a xlink:href="structunilink_1_1wrapper_1_1UdpServer_1_1Impl.html#acc6c86c0987b2e7097c779d03fc009f8" target="_top" xlink:title=" ">
<polygon fill="white" stroke="black" points="188,-171.5 188,-201.5 355,-201.5 355,-171.5 188,-171.5"/>
<text text-anchor="start" x="196" y="-189.5" font-family="Helvetica,sans-Serif" font-size="10.00">unilink::wrapper::UdpServer</text>
<text text-anchor="middle" x="271.5" y="-178.5" font-family="Helvetica,sans-Serif" font-size="10.00">::Impl::setup_internal_handlers</text>
</a>
</g>
</g>
<!-- Node1&#45;&gt;Node6 -->
<g id="edge5" class="edge">
<title>Node1&#45;&gt;Node6</title>
<path fill="none" stroke="midnightblue" d="M104.72,-276.46C138.63,-258.05 196.15,-226.84 233.73,-206.45"/>
<polygon fill="midnightblue" stroke="midnightblue" points="235.71,-209.36 242.83,-201.52 232.37,-203.21 235.71,-209.36"/>
</g>
<!-- Node4 -->
<g id="node4" class="node">
<title>Node4</title>
<g id="a_node4"><a xlink:href="structunilink_1_1wrapper_1_1UdpServer_1_1Impl.html#a9bbdd1e4011a4b4c407126f7d6877725" target="_top" xlink:title=" ">
<polygon fill="white" stroke="black" points="391,-333.5 391,-363.5 543,-363.5 543,-333.5 391,-333.5"/>
<text text-anchor="start" x="399" y="-351.5" font-family="Helvetica,sans-Serif" font-size="10.00">unilink::wrapper::UdpServer</text>
<text text-anchor="middle" x="467" y="-340.5" font-family="Helvetica,sans-Serif" font-size="10.00">::Impl::run_reaper</text>
</a>
</g>
</g>
<!-- Node3&#45;&gt;Node4 -->
<g id="edge3" class="edge">
<title>Node3&#45;&gt;Node4</title>
<path fill="none" stroke="midnightblue" d="M323.59,-306.55C348.61,-313.92 378.92,-322.85 405.13,-330.57"/>
<polygon fill="midnightblue" stroke="midnightblue" points="404.38,-334 414.96,-333.46 406.35,-327.28 404.38,-334"/>
</g>
<!-- Node5 -->
<g id="node5" class="node">
<title>Node5</title>
<g id="a_node5"><a xlink:href="namespaceunilink.html#a945182ee4d2e3137a6c39f60501f5355" target="_top" xlink:title="Convert ErrorCode to human&#45;readable string.">
<polygon fill="white" stroke="black" points="579,-317 579,-336 677,-336 677,-317 579,-317"/>
<text text-anchor="middle" x="628" y="-324" font-family="Helvetica,sans-Serif" font-size="10.00">unilink::to_string</text>
</a>
</g>
</g>
<!-- Node4&#45;&gt;Node5 -->
<g id="edge4" class="edge">
<title>Node4&#45;&gt;Node5</title>
<path fill="none" stroke="midnightblue" d="M543.31,-338.08C551.87,-336.9 560.49,-335.7 568.78,-334.55"/>
<polygon fill="midnightblue" stroke="midnightblue" points="569.28,-338.02 578.71,-333.18 568.32,-331.09 569.28,-338.02"/>
</g>
<!-- Node6&#45;&gt;Node5 -->
<g id="edge11" class="edge">
<title>Node6&#45;&gt;Node5</title>
<path fill="none" stroke="midnightblue" d="M285.76,-201.58C306.07,-223.62 347.15,-264.2 391,-284.5 447.76,-310.78 519.23,-320.68 568.56,-324.37"/>
<polygon fill="midnightblue" stroke="midnightblue" points="568.53,-327.88 578.74,-325.07 569,-320.89 568.53,-327.88"/>
</g>
<!-- Node7 -->
<g id="node7" class="node">
<title>Node7</title>
<g id="a_node7"><a xlink:href="classunilink_1_1memory_1_1SafeSpan.html#a203851d86025e579f73f04da0828e2bd" target="_top" xlink:title=" ">
<polygon fill="white" stroke="black" points="393,-245.5 393,-275.5 541,-275.5 541,-245.5 393,-245.5"/>
<text text-anchor="start" x="401" y="-263.5" font-family="Helvetica,sans-Serif" font-size="10.00">unilink::memory::SafeSpan</text>
<text text-anchor="middle" x="467" y="-252.5" font-family="Helvetica,sans-Serif" font-size="10.00">::data</text>
</a>
</g>
</g>
<!-- Node6&#45;&gt;Node7 -->
<g id="edge6" class="edge">
<title>Node6&#45;&gt;Node7</title>
<path fill="none" stroke="midnightblue" d="M306.99,-201.51C330.49,-211.56 362.42,-224.84 391,-235.5 396.91,-237.7 403.11,-239.92 409.31,-242.08"/>
<polygon fill="midnightblue" stroke="midnightblue" points="408.42,-245.47 419.01,-245.4 410.69,-238.85 408.42,-245.47"/>
</g>
<!-- Node8 -->
<g id="node8" class="node">
<title>Node8</title>
<g id="a_node8"><a xlink:href="classunilink_1_1wrapper_1_1UdpServer.html#ab2c693580ad3587072009509395cc22f" target="_top" xlink:title="Set a factory function to create a new framer for each client connection.">
<polygon fill="white" stroke="black" points="391,-196.5 391,-226.5 543,-226.5 543,-196.5 391,-196.5"/>
<text text-anchor="start" x="399" y="-214.5" font-family="Helvetica,sans-Serif" font-size="10.00">unilink::wrapper::UdpServer</text>
<text text-anchor="middle" x="467" y="-203.5" font-family="Helvetica,sans-Serif" font-size="10.00">::framer</text>
</a>
</g>
</g>
<!-- Node6&#45;&gt;Node8 -->
<g id="edge7" class="edge">
<title>Node6&#45;&gt;Node8</title>
<path fill="none" stroke="midnightblue" d="M355.12,-197.17C363.61,-198.27 372.25,-199.39 380.77,-200.49"/>
<polygon fill="midnightblue" stroke="midnightblue" points="380.33,-203.96 390.7,-201.77 381.23,-197.02 380.33,-203.96"/>
</g>
<!-- Node9 -->
<g id="node9" class="node">
<title>Node9</title>
<g id="a_node9"><a xlink:href="structunilink_1_1wrapper_1_1UdpServer_1_1Impl.html#affd7f6bc86138ed402b21f816aeecf8d" target="_top" xlink:title=" ">
<polygon fill="white" stroke="black" points="391,-147.5 391,-177.5 543,-177.5 543,-147.5 391,-147.5"/>
<text text-anchor="start" x="399" y="-165.5" font-family="Helvetica,sans-Serif" font-size="10.00">unilink::wrapper::UdpServer</text>
<text text-anchor="middle" x="467" y="-154.5" font-family="Helvetica,sans-Serif" font-size="10.00">::Impl::fulfill_all_locked</text>
</a>
</g>
</g>
<!-- Node6&#45;&gt;Node9 -->
<g id="edge8" class="edge">
<title>Node6&#45;&gt;Node9</title>
<path fill="none" stroke="midnightblue" d="M355.12,-176.25C363.61,-175.2 372.25,-174.13 380.77,-173.07"/>
<polygon fill="midnightblue" stroke="midnightblue" points="381.2,-176.54 390.7,-171.84 380.34,-169.6 381.2,-176.54"/>
</g>
<!-- Node10 -->
<g id="node10" class="node">
<title>Node10</title>
<g id="a_node10"><a xlink:href="classunilink_1_1wrapper_1_1ServerInterface.html#a03b4193d371a68d017805e5c3aac206c" target="_top" xlink:title="Set a handler for complete messages extracted by the framer.">
<polygon fill="white" stroke="black" points="400.5,-98.5 400.5,-128.5 533.5,-128.5 533.5,-98.5 400.5,-98.5"/>
<text text-anchor="start" x="408.5" y="-116.5" font-family="Helvetica,sans-Serif" font-size="10.00">unilink::wrapper::Server</text>
<text text-anchor="middle" x="467" y="-105.5" font-family="Helvetica,sans-Serif" font-size="10.00">Interface::on_message</text>
</a>
</g>
</g>
<!-- Node6&#45;&gt;Node10 -->
<g id="edge9" class="edge">
<title>Node6&#45;&gt;Node10</title>
<path fill="none" stroke="midnightblue" d="M306.69,-171.49C330.2,-161.38 362.25,-148.02 391,-137.5 396.22,-135.59 401.66,-133.68 407.14,-131.82"/>
<polygon fill="midnightblue" stroke="midnightblue" points="408.61,-135.03 416.99,-128.54 406.39,-128.39 408.61,-135.03"/>
</g>
<!-- Node11 -->
<g id="node11" class="node">
<title>Node11</title>
<g id="a_node11"><a xlink:href="classunilink_1_1memory_1_1SafeSpan.html#a0e63f52083142fa895b98ea38f51dc73" target="_top" xlink:title=" ">
<polygon fill="white" stroke="black" points="393,-49.5 393,-79.5 541,-79.5 541,-49.5 393,-49.5"/>
<text text-anchor="start" x="401" y="-67.5" font-family="Helvetica,sans-Serif" font-size="10.00">unilink::memory::SafeSpan</text>
<text text-anchor="middle" x="467" y="-56.5" font-family="Helvetica,sans-Serif" font-size="10.00">::size</text>
</a>
</g>
</g>
<!-- Node6&#45;&gt;Node11 -->
<g id="edge10" class="edge">
<title>Node6&#45;&gt;Node11</title>
<path fill="none" stroke="midnightblue" d="M286.83,-171.46C307.84,-150.2 349.07,-111.42 391,-88.5 394.25,-86.72 397.65,-85.05 401.14,-83.49"/>
<polygon fill="midnightblue" stroke="midnightblue" points="402.62,-86.66 410.51,-79.59 399.94,-80.2 402.62,-86.66"/>
</g>
<!-- Node12 -->
<g id="node12" class="node">
<title>Node12</title>
<g id="a_node12"><a xlink:href="namespaceunilink_1_1base_1_1safe__convert.html#a3c41d9c6266428458c97891710ac2f0d" target="_top" xlink:title="Safely convert uint8_t* to const char* for string operations.">
<polygon fill="white" stroke="black" points="398.5,-0.5 398.5,-30.5 535.5,-30.5 535.5,-0.5 398.5,-0.5"/>
<text text-anchor="start" x="406.5" y="-18.5" font-family="Helvetica,sans-Serif" font-size="10.00">unilink::base::safe</text>
<text text-anchor="middle" x="467" y="-7.5" font-family="Helvetica,sans-Serif" font-size="10.00">_convert::uint8_to_string</text>
</a>
</g>
</g>
<!-- Node6&#45;&gt;Node12 -->
<g id="edge12" class="edge">
<title>Node6&#45;&gt;Node12</title>
<path fill="none" stroke="midnightblue" d="M280.76,-171.14C297.54,-141.34 338.55,-75.46 391,-39.5 393.25,-37.96 395.6,-36.51 398.03,-35.15"/>
<polygon fill="midnightblue" stroke="midnightblue" points="399.72,-38.22 407.09,-30.62 396.58,-31.96 399.72,-38.22"/>
</g>
</g>
</svg>
