<?xml version="1.0" encoding="UTF-8" standalone="no"?>
<!DOCTYPE svg PUBLIC "-//W3C//DTD SVG 1.1//EN"
 "http://www.w3.org/Graphics/SVG/1.1/DTD/svg11.dtd">
<!-- Generated by graphviz version 2.43.0 (0)
 -->
<!-- Title: unilink::wrapper::UdsClient::Impl::attach_framer_callback Pages: 1 -->
<svg width="552pt" height="38pt"
 viewBox="0.00 0.00 552.00 38.00" xmlns="http://www.w3.org/2000/svg" xmlns:xlink="http://www.w3.org/1999/xlink">
<g id="graph0" class="graph" transform="scale(1 1) rotate(0) translate(4 34)">
<title>unilink::wrapper::UdsClient::Impl::attach_framer_callback</title>
<!-- Node1 -->
<g id="Node000001" class="node">
<title>Node1</title>
<g id="a_Node000001"><a xlink:title=" ">
<polygon fill="#999999" stroke="#666666" points="165,-30 0,-30 0,0 165,0 165,-30"/>
<text text-anchor="start" x="8" y="-18" font-family="Helvetica,sans-Serif" font-size="10.00">unilink::wrapper::UdsClient</text>
<text text-anchor="middle" x="82.5" y="-7" font-family="Helvetica,sans-Serif" font-size="10.00">::Impl::attach_framer_callback</text>
</a>
</g>
</g>
<!-- Node2 -->
<g id="Node000002" class="node">
<title>Node2</title>
<g id="a_Node000002"><a xlink:href="structunilink_1_1wrapper_1_1UdsClient_1_1Impl.html#adc1d471a380a6a06d3aea9970ef0cfe8" target="_top" xlink:title=" ">
<polygon fill="white" stroke="#666666" points="359,-30 201,-30 201,0 359,0 359,-30"/>
<text text-anchor="start" x="209" y="-18" font-family="Helvetica,sans-Serif" font-size="10.00">unilink::wrapper::UdsClient</text>
<text text-anchor="middle" x="280" y="-7" font-family="Helvetica,sans-Serif" font-size="10.00">::Impl::schedule_batch_timer</text>
</a>
</g>
</g>
<!-- Node1&#45;&gt;Node2 -->
<g id="edge1_Node000001_Node000002" class="edge">
<title>Node1&#45;&gt;Node2</title>
<g id="a_edge1_Node000001_Node000002"><a xlink:title=" ">
<path fill="none" stroke="#63b8ff" d="M165.28,-15C173.68,-15 182.25,-15 190.72,-15"/>
<polygon fill="#63b8ff" stroke="#63b8ff" points="190.99,-18.5 200.99,-15 190.99,-11.5 190.99,-18.5"/>
</a>
</g>
</g>
<!-- Node3 -->
<g id="Node000003" class="node">
<title>Node3</title>
<g id="a_Node000003"><a xlink:href="structunilink_1_1wrapper_1_1UdsClient_1_1Impl.html#ae261811fb70a0c12efb1f2a80a01a65b" target="_top" xlink:title=" ">
<polygon fill="white" stroke="#666666" points="544,-30 395,-30 395,0 544,0 544,-30"/>
<text text-anchor="start" x="403" y="-18" font-family="Helvetica,sans-Serif" font-size="10.00">unilink::wrapper::UdsClient</text>
<text text-anchor="middle" x="469.5" y="-7" font-family="Helvetica,sans-Serif" font-size="10.00">::Impl::flush_batches</text>
</a>
</g>
</g>
<!-- Node2&#45;&gt;Node3 -->
<g id="edge2_Node000002_Node000003" class="edge">
<title>Node2&#45;&gt;Node3</title>
<g id="a_edge2_Node000002_Node000003"><a xlink:title=" ">
<path fill="none" stroke="#63b8ff" d="M359.16,-15C367.68,-15 376.38,-15 384.96,-15"/>
<polygon fill="#63b8ff" stroke="#63b8ff" points="384.97,-18.5 394.97,-15 384.97,-11.5 384.97,-18.5"/>
</a>
</g>
</g>
</g>
</svg>
