<?xml version="1.0" encoding="UTF-8" standalone="no"?>
<!DOCTYPE svg PUBLIC "-//W3C//DTD SVG 1.1//EN"
 "http://www.w3.org/Graphics/SVG/1.1/DTD/svg11.dtd">
<!-- Generated by graphviz version 2.43.0 (0)
 -->
<!-- Title: unilink::transport::UdpChannel::Impl::init Pages: 1 -->
<svg width="316pt" height="100pt"
 viewBox="0.00 0.00 316.00 99.50" xmlns="http://www.w3.org/2000/svg" xmlns:xlink="http://www.w3.org/1999/xlink">
<g id="graph0" class="graph" transform="scale(1 1) rotate(0) translate(4 95.5)">
<title>unilink::transport::UdpChannel::Impl::init</title>
<polygon fill="white" stroke="transparent" points="-4,4 -4,-95.5 312,-95.5 312,4 -4,4"/>
<!-- Node1 -->
<g id="node1" class="node">
<title>Node1</title>
<g id="a_node1"><a xlink:title=" ">
<polygon fill="#bfbfbf" stroke="black" points="0,-27.5 0,-57.5 131,-57.5 131,-27.5 0,-27.5"/>
<text text-anchor="start" x="8" y="-45.5" font-family="Helvetica,sans-Serif" font-size="10.00">unilink::transport</text>
<text text-anchor="middle" x="65.5" y="-34.5" font-family="Helvetica,sans-Serif" font-size="10.00">::UdpChannel::Impl::init</text>
</a>
</g>
</g>
<!-- Node2 -->
<g id="node2" class="node">
<title>Node2</title>
<g id="a_node2"><a xlink:href="structunilink_1_1transport_1_1UdpChannel_1_1Impl.html#aae1872efd583c676a56c45ad23ff109c" target="_top" xlink:title=" ">
<polygon fill="white" stroke="black" points="170,-50 170,-91 305,-91 305,-50 170,-50"/>
<text text-anchor="start" x="178" y="-79" font-family="Helvetica,sans-Serif" font-size="10.00">unilink::transport</text>
<text text-anchor="start" x="178" y="-68" font-family="Helvetica,sans-Serif" font-size="10.00">::UdpChannel::Impl::</text>
<text text-anchor="middle" x="237.5" y="-57" font-family="Helvetica,sans-Serif" font-size="10.00">set_remote_from_config</text>
</a>
</g>
</g>
<!-- Node1&#45;&gt;Node2 -->
<g id="edge1" class="edge">
<title>Node1&#45;&gt;Node2</title>
<path fill="none" stroke="midnightblue" d="M131.25,-53.17C140.66,-54.71 150.41,-56.32 160.01,-57.9"/>
<polygon fill="midnightblue" stroke="midnightblue" points="159.51,-61.37 169.95,-59.54 160.65,-54.46 159.51,-61.37"/>
</g>
<!-- Node3 -->
<g id="node3" class="node">
<title>Node3</title>
<g id="a_node3"><a xlink:href="structunilink_1_1config_1_1UdpConfig.html#a9836f973d6a7ce2c75ea9300e9b0eeaa" target="_top" xlink:title=" ">
<polygon fill="white" stroke="black" points="167,-0.5 167,-30.5 308,-30.5 308,-0.5 167,-0.5"/>
<text text-anchor="start" x="175" y="-18.5" font-family="Helvetica,sans-Serif" font-size="10.00">unilink::config::UdpConfig</text>
<text text-anchor="middle" x="237.5" y="-7.5" font-family="Helvetica,sans-Serif" font-size="10.00">::validate_and_clamp</text>
</a>
</g>
</g>
<!-- Node1&#45;&gt;Node3 -->
<g id="edge2" class="edge">
<title>Node1&#45;&gt;Node3</title>
<path fill="none" stroke="midnightblue" d="M131.25,-32.22C139.62,-30.89 148.26,-29.51 156.83,-28.15"/>
<polygon fill="midnightblue" stroke="midnightblue" points="157.5,-31.59 166.83,-26.57 156.4,-24.68 157.5,-31.59"/>
</g>
</g>
</svg>
