<?xml version="1.0" encoding="UTF-8" standalone="no"?>
<!DOCTYPE svg PUBLIC "-//W3C//DTD SVG 1.1//EN"
 "http://www.w3.org/Graphics/SVG/1.1/DTD/svg11.dtd">
<!-- Generated by graphviz version 2.43.0 (0)
 -->
<!-- Title: unilink::transport::TcpClient::Impl::init Pages: 1 -->
<svg width="315pt" height="100pt"
 viewBox="0.00 0.00 315.00 99.50" xmlns="http://www.w3.org/2000/svg" xmlns:xlink="http://www.w3.org/1999/xlink">
<g id="graph0" class="graph" transform="scale(1 1) rotate(0) translate(4 95.5)">
<title>unilink::transport::TcpClient::Impl::init</title>
<polygon fill="white" stroke="transparent" points="-4,4 -4,-95.5 311,-95.5 311,4 -4,4"/>
<!-- Node1 -->
<g id="node1" class="node">
<title>Node1</title>
<g id="a_node1"><a xlink:title=" ">
<polygon fill="#bfbfbf" stroke="black" points="0,-27.5 0,-57.5 116,-57.5 116,-27.5 0,-27.5"/>
<text text-anchor="start" x="8" y="-45.5" font-family="Helvetica,sans-Serif" font-size="10.00">unilink::transport</text>
<text text-anchor="middle" x="58" y="-34.5" font-family="Helvetica,sans-Serif" font-size="10.00">::TcpClient::Impl::init</text>
</a>
</g>
</g>
<!-- Node2 -->
<g id="node2" class="node">
<title>Node2</title>
<g id="a_node2"><a xlink:href="structunilink_1_1transport_1_1TcpClient_1_1Impl.html#a96a20b48f5ee5a00d33d99506a467c72" target="_top" xlink:title=" ">
<polygon fill="white" stroke="black" points="152,-50 152,-91 307,-91 307,-50 152,-50"/>
<text text-anchor="start" x="160" y="-79" font-family="Helvetica,sans-Serif" font-size="10.00">unilink::transport</text>
<text text-anchor="start" x="160" y="-68" font-family="Helvetica,sans-Serif" font-size="10.00">::TcpClient::Impl::recalculate</text>
<text text-anchor="middle" x="229.5" y="-57" font-family="Helvetica,sans-Serif" font-size="10.00">_backpressure_bounds</text>
</a>
</g>
</g>
<!-- Node1&#45;&gt;Node2 -->
<g id="edge1" class="edge">
<title>Node1&#45;&gt;Node2</title>
<path fill="none" stroke="midnightblue" d="M116.38,-51.98C124.6,-53.34 133.2,-54.76 141.82,-56.18"/>
<polygon fill="midnightblue" stroke="midnightblue" points="141.5,-59.68 151.94,-57.85 142.64,-52.77 141.5,-59.68"/>
</g>
<!-- Node3 -->
<g id="node3" class="node">
<title>Node3</title>
<g id="a_node3"><a xlink:href="structunilink_1_1config_1_1TcpClientConfig.html#a22649b231a9f1bca90b461d378d0ce96" target="_top" xlink:title=" ">
<polygon fill="white" stroke="black" points="153.5,-0.5 153.5,-30.5 305.5,-30.5 305.5,-0.5 153.5,-0.5"/>
<text text-anchor="start" x="161.5" y="-18.5" font-family="Helvetica,sans-Serif" font-size="10.00">unilink::config::TcpClient</text>
<text text-anchor="middle" x="229.5" y="-7.5" font-family="Helvetica,sans-Serif" font-size="10.00">Config::validate_and_clamp</text>
</a>
</g>
</g>
<!-- Node1&#45;&gt;Node3 -->
<g id="edge2" class="edge">
<title>Node1&#45;&gt;Node3</title>
<path fill="none" stroke="midnightblue" d="M116.38,-33.36C125.13,-31.97 134.31,-30.5 143.5,-29.04"/>
<polygon fill="midnightblue" stroke="midnightblue" points="144.12,-32.49 153.45,-27.46 143.02,-25.57 144.12,-32.49"/>
</g>
</g>
</svg>
