<?xml version="1.0" encoding="UTF-8" standalone="no"?>
<!DOCTYPE svg PUBLIC "-//W3C//DTD SVG 1.1//EN"
 "http://www.w3.org/Graphics/SVG/1.1/DTD/svg11.dtd">
<!-- Generated by graphviz version 2.43.0 (0)
 -->
<!-- Title: unilink::diagnostics::Logger::Impl::write_to_sinks Pages: 1 -->
<svg width="654pt" height="49pt"
 viewBox="0.00 0.00 654.00 49.00" xmlns="http://www.w3.org/2000/svg" xmlns:xlink="http://www.w3.org/1999/xlink">
<g id="graph0" class="graph" transform="scale(1 1) rotate(0) translate(4 45)">
<title>unilink::diagnostics::Logger::Impl::write_to_sinks</title>
<!-- Node1 -->
<g id="Node000001" class="node">
<title>Node1</title>
<g id="a_Node000001"><a xlink:title=" ">
<polygon fill="#999999" stroke="#666666" points="646,-41 532,-41 532,0 646,0 646,-41"/>
<text text-anchor="start" x="540" y="-29" font-family="Helvetica,sans-Serif" font-size="10.00">unilink::diagnostics</text>
<text text-anchor="start" x="540" y="-18" font-family="Helvetica,sans-Serif" font-size="10.00">::Logger::Impl::write</text>
<text text-anchor="middle" x="589" y="-7" font-family="Helvetica,sans-Serif" font-size="10.00">_to_sinks</text>
</a>
</g>
</g>
<!-- Node2 -->
<g id="Node000002" class="node">
<title>Node2</title>
<g id="a_Node000002"><a xlink:href="structunilink_1_1diagnostics_1_1Logger_1_1Impl.html#ad52c73ad91eaad48df0ed778e9f0f48e" target="_top" xlink:title=" ">
<polygon fill="white" stroke="#666666" points="496,-35.5 337,-35.5 337,-5.5 496,-5.5 496,-35.5"/>
<text text-anchor="start" x="345" y="-23.5" font-family="Helvetica,sans-Serif" font-size="10.00">unilink::diagnostics</text>
<text text-anchor="middle" x="416.5" y="-12.5" font-family="Helvetica,sans-Serif" font-size="10.00">::Logger::Impl::process_batch</text>
</a>
</g>
</g>
<!-- Node1&#45;&gt;Node2 -->
<g id="edge1_Node000001_Node000002" class="edge">
<title>Node1&#45;&gt;Node2</title>
<g id="a_edge1_Node000001_Node000002"><a xlink:title=" ">
<path fill="none" stroke="#63b8ff" d="M521.69,-20.5C513.35,-20.5 504.77,-20.5 496.27,-20.5"/>
<polygon fill="#63b8ff" stroke="#63b8ff" points="521.7,-24 531.7,-20.5 521.7,-17 521.7,-24"/>
</a>
</g>
</g>
<!-- Node3 -->
<g id="Node000003" class="node">
<title>Node3</title>
<g id="a_Node000003"><a xlink:href="structunilink_1_1diagnostics_1_1Logger_1_1Impl.html#a7e8d81c56ab40421af8a4a1e4a9ee4dc" target="_top" xlink:title=" ">
<polygon fill="white" stroke="#666666" points="301,-35.5 152,-35.5 152,-5.5 301,-5.5 301,-35.5"/>
<text text-anchor="start" x="160" y="-23.5" font-family="Helvetica,sans-Serif" font-size="10.00">unilink::diagnostics</text>
<text text-anchor="middle" x="226.5" y="-12.5" font-family="Helvetica,sans-Serif" font-size="10.00">::Logger::Impl::worker_loop</text>
</a>
</g>
</g>
<!-- Node2&#45;&gt;Node3 -->
<g id="edge2_Node000002_Node000003" class="edge">
<title>Node2&#45;&gt;Node3</title>
<g id="a_edge2_Node000002_Node000003"><a xlink:title=" ">
<path fill="none" stroke="#63b8ff" d="M326.78,-20.5C318.16,-20.5 309.47,-20.5 301.02,-20.5"/>
<polygon fill="#63b8ff" stroke="#63b8ff" points="326.86,-24 336.86,-20.5 326.86,-17 326.86,-24"/>
</a>
</g>
</g>
<!-- Node4 -->
<g id="Node000004" class="node">
<title>Node4</title>
<g id="a_Node000004"><a xlink:href="structunilink_1_1diagnostics_1_1Logger_1_1Impl.html#a2c07457dc964378102e8797795cf4586" target="_top" xlink:title=" ">
<polygon fill="white" stroke="#666666" points="116,-41 0,-41 0,0 116,0 116,-41"/>
<text text-anchor="start" x="8" y="-29" font-family="Helvetica,sans-Serif" font-size="10.00">unilink::diagnostics</text>
<text text-anchor="start" x="8" y="-18" font-family="Helvetica,sans-Serif" font-size="10.00">::Logger::Impl::setup</text>
<text text-anchor="middle" x="58" y="-7" font-family="Helvetica,sans-Serif" font-size="10.00">_async_logging</text>
</a>
</g>
</g>
<!-- Node3&#45;&gt;Node4 -->
<g id="edge3_Node000003_Node000004" class="edge">
<title>Node3&#45;&gt;Node4</title>
<g id="a_edge3_Node000003_Node000004"><a xlink:title=" ">
<path fill="none" stroke="#63b8ff" d="M141.8,-20.5C133.11,-20.5 124.42,-20.5 116.12,-20.5"/>
<polygon fill="#63b8ff" stroke="#63b8ff" points="141.99,-24 151.99,-20.5 141.99,-17 141.99,-24"/>
</a>
</g>
</g>
</g>
</svg>
