<?xml version="1.0" encoding="UTF-8" standalone="no"?>
<!DOCTYPE svg PUBLIC "-//W3C//DTD SVG 1.1//EN"
 "http://www.w3.org/Graphics/SVG/1.1/DTD/svg11.dtd">
<!-- Generated by graphviz version 2.43.0 (0)
 -->
<!-- Title: unilink::wrapper::UdpClient::Impl::set_framer Pages: 1 -->
<svg width="542pt" height="134pt"
 viewBox="0.00 0.00 542.00 134.00" xmlns="http://www.w3.org/2000/svg" xmlns:xlink="http://www.w3.org/1999/xlink">
<g id="graph0" class="graph" transform="scale(1 1) rotate(0) translate(4 130)">
<title>unilink::wrapper::UdpClient::Impl::set_framer</title>
<!-- Node1 -->
<g id="Node000001" class="node">
<title>Node1</title>
<g id="a_Node000001"><a xlink:title=" ">
<polygon fill="#999999" stroke="#666666" points="149,-78 0,-78 0,-48 149,-48 149,-78"/>
<text text-anchor="start" x="8" y="-66" font-family="Helvetica,sans-Serif" font-size="10.00">unilink::wrapper::UdpClient</text>
<text text-anchor="middle" x="74.5" y="-55" font-family="Helvetica,sans-Serif" font-size="10.00">::Impl::set_framer</text>
</a>
</g>
</g>
<!-- Node2 -->
<g id="Node000002" class="node">
<title>Node2</title>
<g id="a_Node000002"><a xlink:href="structunilink_1_1wrapper_1_1UdpClient_1_1Impl.html#a2efdb2ae4eab24161d8c0adee210b83d" target="_top" xlink:title=" ">
<polygon fill="white" stroke="#666666" points="350,-78 185,-78 185,-48 350,-48 350,-78"/>
<text text-anchor="start" x="193" y="-66" font-family="Helvetica,sans-Serif" font-size="10.00">unilink::wrapper::UdpClient</text>
<text text-anchor="middle" x="267.5" y="-55" font-family="Helvetica,sans-Serif" font-size="10.00">::Impl::attach_framer_callback</text>
</a>
</g>
</g>
<!-- Node1&#45;&gt;Node2 -->
<g id="edge1_Node000001_Node000002" class="edge">
<title>Node1&#45;&gt;Node2</title>
<g id="a_edge1_Node000001_Node000002"><a xlink:title=" ">
<path fill="none" stroke="#63b8ff" d="M149.07,-63C157.46,-63 166.08,-63 174.66,-63"/>
<polygon fill="#63b8ff" stroke="#63b8ff" points="174.7,-66.5 184.7,-63 174.7,-59.5 174.7,-66.5"/>
</a>
</g>
</g>
<!-- Node3 -->
<g id="Node000003" class="node">
<title>Node3</title>
<g id="a_Node000003"><a xlink:href="classunilink_1_1memory_1_1SafeSpan.html#a203851d86025e579f73f04da0828e2bd" target="_top" xlink:title=" ">
<polygon fill="white" stroke="#666666" points="534,-126 386,-126 386,-96 534,-96 534,-126"/>
<text text-anchor="start" x="394" y="-114" font-family="Helvetica,sans-Serif" font-size="10.00">unilink::memory::SafeSpan</text>
<text text-anchor="middle" x="460" y="-103" font-family="Helvetica,sans-Serif" font-size="10.00">::data</text>
</a>
</g>
</g>
<!-- Node2&#45;&gt;Node3 -->
<g id="edge2_Node000002_Node000003" class="edge">
<title>Node2&#45;&gt;Node3</title>
<g id="a_edge2_Node000002_Node000003"><a xlink:title=" ">
<path fill="none" stroke="#63b8ff" d="M328.25,-78.06C347.76,-82.97 369.58,-88.47 389.72,-93.54"/>
<polygon fill="#63b8ff" stroke="#63b8ff" points="388.91,-96.95 399.46,-96 390.62,-90.16 388.91,-96.95"/>
</a>
</g>
</g>
<!-- Node4 -->
<g id="Node000004" class="node">
<title>Node4</title>
<g id="a_Node000004"><a xlink:href="classunilink_1_1memory_1_1SafeSpan.html#a0e63f52083142fa895b98ea38f51dc73" target="_top" xlink:title=" ">
<polygon fill="white" stroke="#666666" points="534,-78 386,-78 386,-48 534,-48 534,-78"/>
<text text-anchor="start" x="394" y="-66" font-family="Helvetica,sans-Serif" font-size="10.00">unilink::memory::SafeSpan</text>
<text text-anchor="middle" x="460" y="-55" font-family="Helvetica,sans-Serif" font-size="10.00">::size</text>
</a>
</g>
</g>
<!-- Node2&#45;&gt;Node4 -->
<g id="edge3_Node000002_Node000004" class="edge">
<title>Node2&#45;&gt;Node4</title>
<g id="a_edge3_Node000002_Node000004"><a xlink:title=" ">
<path fill="none" stroke="#63b8ff" d="M350.12,-63C358.59,-63 367.21,-63 375.7,-63"/>
<polygon fill="#63b8ff" stroke="#63b8ff" points="375.97,-66.5 385.97,-63 375.97,-59.5 375.97,-66.5"/>
</a>
</g>
</g>
<!-- Node5 -->
<g id="Node000005" class="node">
<title>Node5</title>
<g id="a_Node000005"><a xlink:href="namespaceunilink_1_1base_1_1safe__convert.html#a3c41d9c6266428458c97891710ac2f0d" target="_top" xlink:title="Safely convert uint8_t* to const char* for string operations.">
<polygon fill="white" stroke="#666666" points="528.5,-30 391.5,-30 391.5,0 528.5,0 528.5,-30"/>
<text text-anchor="start" x="399.5" y="-18" font-family="Helvetica,sans-Serif" font-size="10.00">unilink::base::safe</text>
<text text-anchor="middle" x="460" y="-7" font-family="Helvetica,sans-Serif" font-size="10.00">_convert::uint8_to_string</text>
</a>
</g>
</g>
<!-- Node2&#45;&gt;Node5 -->
<g id="edge4_Node000002_Node000005" class="edge">
<title>Node2&#45;&gt;Node5</title>
<g id="a_edge4_Node000002_Node000005"><a xlink:title=" ">
<path fill="none" stroke="#63b8ff" d="M328.25,-47.94C347.76,-43.03 369.58,-37.53 389.72,-32.46"/>
<polygon fill="#63b8ff" stroke="#63b8ff" points="390.62,-35.84 399.46,-30 388.91,-29.05 390.62,-35.84"/>
</a>
</g>
</g>
</g>
</svg>
