<?xml version="1.0" encoding="UTF-8" standalone="no"?>
<!DOCTYPE svg PUBLIC "-//W3C//DTD SVG 1.1//EN"
 "http://www.w3.org/Graphics/SVG/1.1/DTD/svg11.dtd">
<!-- Generated by graphviz version 2.43.0 (0)
 -->
<!-- Title: unilink::diagnostics::Logger::Impl Pages: 1 -->
<svg width="320pt" height="610pt"
 viewBox="0.00 0.00 319.50 610.00" xmlns="http://www.w3.org/2000/svg" xmlns:xlink="http://www.w3.org/1999/xlink">
<g id="graph0" class="graph" transform="scale(1 1) rotate(0) translate(4 606)">
<title>unilink::diagnostics::Logger::Impl</title>
<!-- Node1 -->
<g id="Node000001" class="node">
<title>Node1</title>
<g id="a_Node000001"><a xlink:title=" ">
<polygon fill="#999999" stroke="transparent" points="210.5,-360 98.5,-360 98.5,0 210.5,0 210.5,-360"/>
<text text-anchor="start" x="107" y="-348" font-family="Helvetica,sans-Serif" font-size="10.00">unilink::diagnostics</text>
<text text-anchor="start" x="121" y="-337" font-family="Helvetica,sans-Serif" font-size="10.00">::Logger::Impl</text>
<text text-anchor="start" x="102.5" y="-322" font-family="Helvetica,sans-Serif" font-size="10.00">+</text>
<text text-anchor="start" x="115.5" y="-322" font-family="Helvetica,sans-Serif" font-size="10.00">mutex_</text>
<text text-anchor="start" x="102.5" y="-307" font-family="Helvetica,sans-Serif" font-size="10.00">+</text>
<text text-anchor="start" x="115.5" y="-307" font-family="Helvetica,sans-Serif" font-size="10.00">current_level_</text>
<text text-anchor="start" x="102.5" y="-292" font-family="Helvetica,sans-Serif" font-size="10.00">+</text>
<text text-anchor="start" x="115.5" y="-292" font-family="Helvetica,sans-Serif" font-size="10.00">enabled_</text>
<text text-anchor="start" x="102.5" y="-277" font-family="Helvetica,sans-Serif" font-size="10.00">+</text>
<text text-anchor="start" x="115.5" y="-277" font-family="Helvetica,sans-Serif" font-size="10.00">outputs_</text>
<text text-anchor="start" x="102.5" y="-262" font-family="Helvetica,sans-Serif" font-size="10.00">+</text>
<text text-anchor="start" x="115.5" y="-262" font-family="Helvetica,sans-Serif" font-size="10.00">log_format_</text>
<text text-anchor="start" x="102.5" y="-247" font-family="Helvetica,sans-Serif" font-size="10.00">+</text>
<text text-anchor="start" x="115.5" y="-247" font-family="Helvetica,sans-Serif" font-size="10.00">file_output_</text>
<text text-anchor="start" x="102.5" y="-232" font-family="Helvetica,sans-Serif" font-size="10.00">+</text>
<text text-anchor="start" x="115.5" y="-232" font-family="Helvetica,sans-Serif" font-size="10.00">callback_</text>
<text text-anchor="start" x="102.5" y="-217" font-family="Helvetica,sans-Serif" font-size="10.00">+</text>
<text text-anchor="start" x="115.5" y="-217" font-family="Helvetica,sans-Serif" font-size="10.00">log_rotation_</text>
<text text-anchor="start" x="102.5" y="-202" font-family="Helvetica,sans-Serif" font-size="10.00">+</text>
<text text-anchor="start" x="115.5" y="-202" font-family="Helvetica,sans-Serif" font-size="10.00">current_log_file_</text>
<text text-anchor="start" x="102.5" y="-187" font-family="Helvetica,sans-Serif" font-size="10.00">+</text>
<text text-anchor="start" x="115.5" y="-187" font-family="Helvetica,sans-Serif" font-size="10.00">async_enabled_</text>
<text text-anchor="start" x="115.5" y="-172" font-family="Helvetica,sans-Serif" font-size="10.00">and 7 more...</text>
<text text-anchor="start" x="102.5" y="-157" font-family="Helvetica,sans-Serif" font-size="10.00">+</text>
<text text-anchor="start" x="115.5" y="-157" font-family="Helvetica,sans-Serif" font-size="10.00">Impl()</text>
<text text-anchor="start" x="102.5" y="-142" font-family="Helvetica,sans-Serif" font-size="10.00">+</text>
<text text-anchor="start" x="115.5" y="-142" font-family="Helvetica,sans-Serif" font-size="10.00">~Impl()</text>
<text text-anchor="start" x="102.5" y="-127" font-family="Helvetica,sans-Serif" font-size="10.00">+</text>
<text text-anchor="start" x="115.5" y="-127" font-family="Helvetica,sans-Serif" font-size="10.00">parse_format()</text>
<text text-anchor="start" x="102.5" y="-112" font-family="Helvetica,sans-Serif" font-size="10.00">+</text>
<text text-anchor="start" x="115.5" y="-112" font-family="Helvetica,sans-Serif" font-size="10.00">flush()</text>
<text text-anchor="start" x="102.5" y="-97" font-family="Helvetica,sans-Serif" font-size="10.00">+</text>
<text text-anchor="start" x="115.5" y="-97" font-family="Helvetica,sans-Serif" font-size="10.00">format_message()</text>
<text text-anchor="start" x="102.5" y="-82" font-family="Helvetica,sans-Serif" font-size="10.00">+</text>
<text text-anchor="start" x="115.5" y="-82" font-family="Helvetica,sans-Serif" font-size="10.00">write_to_sinks()</text>
<text text-anchor="start" x="102.5" y="-67" font-family="Helvetica,sans-Serif" font-size="10.00">+</text>
<text text-anchor="start" x="115.5" y="-67" font-family="Helvetica,sans-Serif" font-size="10.00">level_to_string()</text>
<text text-anchor="start" x="102.5" y="-52" font-family="Helvetica,sans-Serif" font-size="10.00">+</text>
<text text-anchor="start" x="115.5" y="-52" font-family="Helvetica,sans-Serif" font-size="10.00">get_timestamp()</text>
<text text-anchor="start" x="102.5" y="-37" font-family="Helvetica,sans-Serif" font-size="10.00">+</text>
<text text-anchor="start" x="115.5" y="-37" font-family="Helvetica,sans-Serif" font-size="10.00">write_to_console()</text>
<text text-anchor="start" x="102.5" y="-22" font-family="Helvetica,sans-Serif" font-size="10.00">+</text>
<text text-anchor="start" x="115.5" y="-22" font-family="Helvetica,sans-Serif" font-size="10.00">write_to_file()</text>
<text text-anchor="start" x="115.5" y="-7" font-family="Helvetica,sans-Serif" font-size="10.00">and 13 more...</text>
<polygon fill="#666666" stroke="#666666" points="98.5,-332 98.5,-332 210.5,-332 210.5,-332 98.5,-332"/>
<polygon fill="#666666" stroke="#666666" points="98.5,-167 98.5,-167 113.5,-167 113.5,-167 98.5,-167"/>
<polygon fill="#666666" stroke="#666666" points="113.5,-167 113.5,-167 210.5,-167 210.5,-167 113.5,-167"/>
<polygon fill="none" stroke="#666666" points="98.5,0 98.5,-360 210.5,-360 210.5,0 98.5,0"/>
</a>
</g>
</g>
<!-- Node2 -->
<g id="Node000002" class="node">
<title>Node2</title>
<g id="a_Node000002"><a xlink:href="structunilink_1_1diagnostics_1_1AsyncLogConfig.html" target="_top" xlink:title="Async logging configuration.">
<polygon fill="white" stroke="transparent" points="145,-579.5 0,-579.5 0,-429.5 145,-429.5 145,-579.5"/>
<text text-anchor="start" x="25.5" y="-567.5" font-family="Helvetica,sans-Serif" font-size="10.00">unilink::diagnostics</text>
<text text-anchor="start" x="31" y="-556.5" font-family="Helvetica,sans-Serif" font-size="10.00">::AsyncLogConfig</text>
<text text-anchor="start" x="4.5" y="-541.5" font-family="Helvetica,sans-Serif" font-size="10.00">+</text>
<text text-anchor="start" x="17.5" y="-541.5" font-family="Helvetica,sans-Serif" font-size="10.00">max_queue_size</text>
<text text-anchor="start" x="4.5" y="-526.5" font-family="Helvetica,sans-Serif" font-size="10.00">+</text>
<text text-anchor="start" x="17.5" y="-526.5" font-family="Helvetica,sans-Serif" font-size="10.00">batch_size</text>
<text text-anchor="start" x="4.5" y="-511.5" font-family="Helvetica,sans-Serif" font-size="10.00">+</text>
<text text-anchor="start" x="17.5" y="-511.5" font-family="Helvetica,sans-Serif" font-size="10.00">flush_interval</text>
<text text-anchor="start" x="4.5" y="-496.5" font-family="Helvetica,sans-Serif" font-size="10.00">+</text>
<text text-anchor="start" x="17.5" y="-496.5" font-family="Helvetica,sans-Serif" font-size="10.00">shutdown_timeout</text>
<text text-anchor="start" x="4.5" y="-481.5" font-family="Helvetica,sans-Serif" font-size="10.00">+</text>
<text text-anchor="start" x="17.5" y="-481.5" font-family="Helvetica,sans-Serif" font-size="10.00">enable_backpressure</text>
<text text-anchor="start" x="4.5" y="-466.5" font-family="Helvetica,sans-Serif" font-size="10.00">+</text>
<text text-anchor="start" x="17.5" y="-466.5" font-family="Helvetica,sans-Serif" font-size="10.00">enable_batch_processing</text>
<text text-anchor="start" x="4.5" y="-451.5" font-family="Helvetica,sans-Serif" font-size="10.00">+</text>
<text text-anchor="start" x="17.5" y="-451.5" font-family="Helvetica,sans-Serif" font-size="10.00">AsyncLogConfig()</text>
<text text-anchor="start" x="4.5" y="-436.5" font-family="Helvetica,sans-Serif" font-size="10.00">+</text>
<text text-anchor="start" x="17.5" y="-436.5" font-family="Helvetica,sans-Serif" font-size="10.00">AsyncLogConfig()</text>
<polygon fill="#666666" stroke="#666666" points="0.5,-551.5 0.5,-551.5 145.5,-551.5 145.5,-551.5 0.5,-551.5"/>
<polygon fill="#666666" stroke="#666666" points="0.5,-461.5 0.5,-461.5 15.5,-461.5 15.5,-461.5 0.5,-461.5"/>
<polygon fill="#666666" stroke="#666666" points="15.5,-461.5 15.5,-461.5 145.5,-461.5 145.5,-461.5 15.5,-461.5"/>
<polygon fill="none" stroke="#666666" points="0,-429.5 0,-579.5 145,-579.5 145,-429.5 0,-429.5"/>
</a>
</g>
</g>
<!-- Node2&#45;&gt;Node1 -->
<g id="edge1_Node000001_Node000002" class="edge">
<title>Node2&#45;&gt;Node1</title>
<g id="a_edge1_Node000001_Node000002"><a xlink:title=" ">
<path fill="none" stroke="#63b8ff" d="M91.42,-429.11C95.86,-411.61 100.81,-392.18 105.91,-372.1"/>
<polygon fill="none" stroke="#63b8ff" points="105.98,-371.84 103.58,-365.04 108.93,-360.21 111.33,-367.01 105.98,-371.84"/>
</a>
</g>
<text text-anchor="middle" x="144.5" y="-381" font-family="Helvetica,sans-Serif" font-size="10.00" fill="grey"> +async_config_</text>
</g>
<!-- Node3 -->
<g id="Node000003" class="node">
<title>Node3</title>
<g id="a_Node000003"><a xlink:href="structunilink_1_1diagnostics_1_1AsyncLogStats.html" target="_top" xlink:title="Async logging statistics.">
<polygon fill="white" stroke="transparent" points="311.5,-602 163.5,-602 163.5,-407 311.5,-407 311.5,-602"/>
<text text-anchor="start" x="190" y="-589.5" font-family="Helvetica,sans-Serif" font-size="10.00">unilink::diagnostics</text>
<text text-anchor="start" x="198.5" y="-578.5" font-family="Helvetica,sans-Serif" font-size="10.00">::AsyncLogStats</text>
<text text-anchor="start" x="167.5" y="-563.5" font-family="Helvetica,sans-Serif" font-size="10.00">+</text>
<text text-anchor="start" x="180.5" y="-563.5" font-family="Helvetica,sans-Serif" font-size="10.00">total_logs</text>
<text text-anchor="start" x="167.5" y="-548.5" font-family="Helvetica,sans-Serif" font-size="10.00">+</text>
<text text-anchor="start" x="180.5" y="-548.5" font-family="Helvetica,sans-Serif" font-size="10.00">dropped_logs</text>
<text text-anchor="start" x="167.5" y="-533.5" font-family="Helvetica,sans-Serif" font-size="10.00">+</text>
<text text-anchor="start" x="180.5" y="-533.5" font-family="Helvetica,sans-Serif" font-size="10.00">queue_size</text>
<text text-anchor="start" x="167.5" y="-518.5" font-family="Helvetica,sans-Serif" font-size="10.00">+</text>
<text text-anchor="start" x="180.5" y="-518.5" font-family="Helvetica,sans-Serif" font-size="10.00">max_queue_size_reached</text>
<text text-anchor="start" x="167.5" y="-503.5" font-family="Helvetica,sans-Serif" font-size="10.00">+</text>
<text text-anchor="start" x="180.5" y="-503.5" font-family="Helvetica,sans-Serif" font-size="10.00">batch_count</text>
<text text-anchor="start" x="167.5" y="-488.5" font-family="Helvetica,sans-Serif" font-size="10.00">+</text>
<text text-anchor="start" x="180.5" y="-488.5" font-family="Helvetica,sans-Serif" font-size="10.00">flush_count</text>
<text text-anchor="start" x="167.5" y="-473.5" font-family="Helvetica,sans-Serif" font-size="10.00">+</text>
<text text-anchor="start" x="180.5" y="-473.5" font-family="Helvetica,sans-Serif" font-size="10.00">start_time</text>
<text text-anchor="start" x="167.5" y="-458.5" font-family="Helvetica,sans-Serif" font-size="10.00">+</text>
<text text-anchor="start" x="180.5" y="-458.5" font-family="Helvetica,sans-Serif" font-size="10.00">AsyncLogStats()</text>
<text text-anchor="start" x="167.5" y="-443.5" font-family="Helvetica,sans-Serif" font-size="10.00">+</text>
<text text-anchor="start" x="180.5" y="-443.5" font-family="Helvetica,sans-Serif" font-size="10.00">reset()</text>
<text text-anchor="start" x="167.5" y="-428.5" font-family="Helvetica,sans-Serif" font-size="10.00">+</text>
<text text-anchor="start" x="180.5" y="-428.5" font-family="Helvetica,sans-Serif" font-size="10.00">get_drop_rate()</text>
<text text-anchor="start" x="167.5" y="-413.5" font-family="Helvetica,sans-Serif" font-size="10.00">+</text>
<text text-anchor="start" x="180.5" y="-413.5" font-family="Helvetica,sans-Serif" font-size="10.00">get_uptime()</text>
<polygon fill="#666666" stroke="#666666" points="163.5,-573.5 163.5,-573.5 311.5,-573.5 311.5,-573.5 163.5,-573.5"/>
<polygon fill="#666666" stroke="#666666" points="163.5,-468.5 163.5,-468.5 178.5,-468.5 178.5,-468.5 163.5,-468.5"/>
<polygon fill="#666666" stroke="#666666" points="178.5,-468.5 178.5,-468.5 311.5,-468.5 311.5,-468.5 178.5,-468.5"/>
<polygon fill="none" stroke="#666666" points="163.5,-407 163.5,-602 311.5,-602 311.5,-407 163.5,-407"/>
</a>
</g>
</g>
<!-- Node3&#45;&gt;Node1 -->
<g id="edge2_Node000001_Node000003" class="edge">
<title>Node3&#45;&gt;Node1</title>
<g id="a_edge2_Node000001_Node000003"><a xlink:title=" ">
<path fill="none" stroke="#63b8ff" d="M212.6,-406.74C209.73,-395.61 206.74,-383.98 203.69,-372.14"/>
<polygon fill="none" stroke="#63b8ff" points="203.62,-371.85 198.25,-367.04 200.63,-360.23 206,-365.04 203.62,-371.85"/>
</a>
</g>
<text text-anchor="middle" x="243" y="-381" font-family="Helvetica,sans-Serif" font-size="10.00" fill="grey"> +async_stats_</text>
</g>
</g>
</svg>
