<?xml version="1.0" encoding="UTF-8" standalone="no"?>
<!DOCTYPE svg PUBLIC "-//W3C//DTD SVG 1.1//EN"
 "http://www.w3.org/Graphics/SVG/1.1/DTD/svg11.dtd">
<!-- Generated by graphviz version 2.43.0 (0)
 -->
<!-- Title: unilink::wrapper::UdpServer::Impl::start Pages: 1 -->
<svg width="745pt" height="200pt"
 viewBox="0.00 0.00 745.00 200.00" xmlns="http://www.w3.org/2000/svg" xmlns:xlink="http://www.w3.org/1999/xlink">
<g id="graph0" class="graph" transform="scale(1 1) rotate(0) translate(4 196)">
<title>unilink::wrapper::UdpServer::Impl::start</title>
<!-- Node1 -->
<g id="Node000001" class="node">
<title>Node1</title>
<g id="a_Node000001"><a xlink:title=" ">
<polygon fill="#999999" stroke="#666666" points="152,-126 0,-126 0,-96 152,-96 152,-126"/>
<text text-anchor="start" x="8" y="-114" font-family="Helvetica,sans-Serif" font-size="10.00">unilink::wrapper::UdpServer</text>
<text text-anchor="middle" x="76" y="-103" font-family="Helvetica,sans-Serif" font-size="10.00">::Impl::start</text>
</a>
</g>
</g>
<!-- Node2 -->
<g id="Node000002" class="node">
<title>Node2</title>
<g id="a_Node000002"><a xlink:href="classunilink_1_1factory_1_1ChannelFactory.html#ab3a1a57092352b627809138adadb34a6" target="_top" xlink:title=" ">
<polygon fill="white" stroke="#666666" points="339,-192 204,-192 204,-162 339,-162 339,-192"/>
<text text-anchor="start" x="212" y="-180" font-family="Helvetica,sans-Serif" font-size="10.00">unilink::factory::Channel</text>
<text text-anchor="middle" x="271.5" y="-169" font-family="Helvetica,sans-Serif" font-size="10.00">Factory::create</text>
</a>
</g>
</g>
<!-- Node1&#45;&gt;Node2 -->
<g id="edge1_Node000001_Node000002" class="edge">
<title>Node1&#45;&gt;Node2</title>
<g id="a_edge1_Node000001_Node000002"><a xlink:title=" ">
<path fill="none" stroke="#63b8ff" d="M114.5,-126.03C135.89,-134.39 163.28,-144.74 188,-153 194.04,-155.02 200.35,-157.03 206.68,-158.98"/>
<polygon fill="#63b8ff" stroke="#63b8ff" points="206.03,-162.44 216.61,-161.99 208.06,-155.74 206.03,-162.44"/>
</a>
</g>
</g>
<!-- Node3 -->
<g id="Node000003" class="node">
<title>Node3</title>
<g id="a_Node000003"><a xlink:href="structunilink_1_1wrapper_1_1UdpServer_1_1Impl.html#a90e0f997d6fcd89334e0d3edc1da8c85" target="_top" xlink:title=" ">
<polygon fill="white" stroke="#666666" points="347.5,-126 195.5,-126 195.5,-96 347.5,-96 347.5,-126"/>
<text text-anchor="start" x="203.5" y="-114" font-family="Helvetica,sans-Serif" font-size="10.00">unilink::wrapper::UdpServer</text>
<text text-anchor="middle" x="271.5" y="-103" font-family="Helvetica,sans-Serif" font-size="10.00">::Impl::schedule_reaper</text>
</a>
</g>
</g>
<!-- Node1&#45;&gt;Node3 -->
<g id="edge2_Node000001_Node000003" class="edge">
<title>Node1&#45;&gt;Node3</title>
<g id="a_edge2_Node000001_Node000003"><a xlink:title=" ">
<path fill="none" stroke="#63b8ff" d="M152.09,-111C162.99,-111 174.27,-111 185.35,-111"/>
<polygon fill="#63b8ff" stroke="#63b8ff" points="185.45,-114.5 195.45,-111 185.45,-107.5 185.45,-114.5"/>
</a>
</g>
</g>
<!-- Node5 -->
<g id="Node000005" class="node">
<title>Node5</title>
<g id="a_Node000005"><a xlink:href="structunilink_1_1wrapper_1_1UdpServer_1_1Impl.html#acc6c86c0987b2e7097c779d03fc009f8" target="_top" xlink:title=" ">
<polygon fill="white" stroke="#666666" points="355,-78 188,-78 188,-48 355,-48 355,-78"/>
<text text-anchor="start" x="196" y="-66" font-family="Helvetica,sans-Serif" font-size="10.00">unilink::wrapper::UdpServer</text>
<text text-anchor="middle" x="271.5" y="-55" font-family="Helvetica,sans-Serif" font-size="10.00">::Impl::setup_internal_handlers</text>
</a>
</g>
</g>
<!-- Node1&#45;&gt;Node5 -->
<g id="edge5_Node000001_Node000005" class="edge">
<title>Node1&#45;&gt;Node5</title>
<g id="a_edge5_Node000001_Node000005"><a xlink:title=" ">
<path fill="none" stroke="#63b8ff" d="M137.69,-95.94C157.51,-91.03 179.67,-85.53 200.13,-80.46"/>
<polygon fill="#63b8ff" stroke="#63b8ff" points="201.16,-83.81 210.02,-78 199.47,-77.01 201.16,-83.81"/>
</a>
</g>
</g>
<!-- Node3&#45;&gt;Node3 -->
<g id="edge4_Node000003_Node000003" class="edge">
<title>Node3&#45;&gt;Node3</title>
<g id="a_edge4_Node000003_Node000003"><a xlink:title=" ">
<path fill="none" stroke="#63b8ff" d="M237.4,-126.28C229.82,-135.41 241.19,-144 271.5,-144 289.5,-144 300.82,-140.97 305.46,-136.6"/>
<polygon fill="#63b8ff" stroke="#63b8ff" points="308.96,-136.32 305.6,-126.28 301.96,-136.23 308.96,-136.32"/>
</a>
</g>
</g>
<!-- Node4 -->
<g id="Node000004" class="node">
<title>Node4</title>
<g id="a_Node000004"><a xlink:href="structunilink_1_1wrapper_1_1UdpServer_1_1Impl.html#a9bbdd1e4011a4b4c407126f7d6877725" target="_top" xlink:title=" ">
<polygon fill="white" stroke="#666666" points="546,-126 394,-126 394,-96 546,-96 546,-126"/>
<text text-anchor="start" x="402" y="-114" font-family="Helvetica,sans-Serif" font-size="10.00">unilink::wrapper::UdpServer</text>
<text text-anchor="middle" x="470" y="-103" font-family="Helvetica,sans-Serif" font-size="10.00">::Impl::run_reaper</text>
</a>
</g>
</g>
<!-- Node3&#45;&gt;Node4 -->
<g id="edge3_Node000003_Node000004" class="edge">
<title>Node3&#45;&gt;Node4</title>
<g id="a_edge3_Node000003_Node000004"><a xlink:title=" ">
<path fill="none" stroke="#63b8ff" d="M347.63,-111C359.48,-111 371.81,-111 383.86,-111"/>
<polygon fill="#63b8ff" stroke="#63b8ff" points="383.91,-114.5 393.91,-111 383.91,-107.5 383.91,-114.5"/>
</a>
</g>
</g>
<!-- Node6 -->
<g id="Node000006" class="node">
<title>Node6</title>
<g id="a_Node000006"><a xlink:href="structunilink_1_1wrapper_1_1UdpServer_1_1Impl.html#affd7f6bc86138ed402b21f816aeecf8d" target="_top" xlink:title=" ">
<polygon fill="white" stroke="#666666" points="546,-78 394,-78 394,-48 546,-48 546,-78"/>
<text text-anchor="start" x="402" y="-66" font-family="Helvetica,sans-Serif" font-size="10.00">unilink::wrapper::UdpServer</text>
<text text-anchor="middle" x="470" y="-55" font-family="Helvetica,sans-Serif" font-size="10.00">::Impl::fulfill_all_locked</text>
</a>
</g>
</g>
<!-- Node5&#45;&gt;Node6 -->
<g id="edge6_Node000005_Node000006" class="edge">
<title>Node5&#45;&gt;Node6</title>
<g id="a_edge6_Node000005_Node000006"><a xlink:title=" ">
<path fill="none" stroke="#63b8ff" d="M355.26,-63C364.66,-63 374.25,-63 383.68,-63"/>
<polygon fill="#63b8ff" stroke="#63b8ff" points="383.83,-66.5 393.83,-63 383.83,-59.5 383.83,-66.5"/>
</a>
</g>
</g>
<!-- Node7 -->
<g id="Node000007" class="node">
<title>Node7</title>
<g id="a_Node000007"><a xlink:href="structunilink_1_1wrapper_1_1UdpServer_1_1Impl.html#a57da99cafd4de957640593004fa34afd" target="_top" xlink:title=" ">
<polygon fill="white" stroke="#666666" points="549,-30 391,-30 391,0 549,0 549,-30"/>
<text text-anchor="start" x="399" y="-18" font-family="Helvetica,sans-Serif" font-size="10.00">unilink::wrapper::UdpServer</text>
<text text-anchor="middle" x="470" y="-7" font-family="Helvetica,sans-Serif" font-size="10.00">::Impl::schedule_batch_timer</text>
</a>
</g>
</g>
<!-- Node5&#45;&gt;Node7 -->
<g id="edge7_Node000005_Node000007" class="edge">
<title>Node5&#45;&gt;Node7</title>
<g id="a_edge7_Node000005_Node000007"><a xlink:title=" ">
<path fill="none" stroke="#63b8ff" d="M334.13,-47.94C354.34,-43.01 376.97,-37.48 397.82,-32.39"/>
<polygon fill="#63b8ff" stroke="#63b8ff" points="398.7,-35.78 407.58,-30 397.04,-28.98 398.7,-35.78"/>
</a>
</g>
</g>
<!-- Node8 -->
<g id="Node000008" class="node">
<title>Node8</title>
<g id="a_Node000008"><a xlink:href="structunilink_1_1wrapper_1_1UdpServer_1_1Impl.html#a7c606a895edc5e8c1892935f35e677fc" target="_top" xlink:title=" ">
<polygon fill="white" stroke="#666666" points="737,-30 585,-30 585,0 737,0 737,-30"/>
<text text-anchor="start" x="593" y="-18" font-family="Helvetica,sans-Serif" font-size="10.00">unilink::wrapper::UdpServer</text>
<text text-anchor="middle" x="661" y="-7" font-family="Helvetica,sans-Serif" font-size="10.00">::Impl::flush_batches</text>
</a>
</g>
</g>
<!-- Node7&#45;&gt;Node8 -->
<g id="edge8_Node000007_Node000008" class="edge">
<title>Node7&#45;&gt;Node8</title>
<g id="a_edge8_Node000007_Node000008"><a xlink:title=" ">
<path fill="none" stroke="#63b8ff" d="M549.24,-15C557.61,-15 566.16,-15 574.62,-15"/>
<polygon fill="#63b8ff" stroke="#63b8ff" points="574.86,-18.5 584.86,-15 574.86,-11.5 574.86,-18.5"/>
</a>
</g>
</g>
</g>
</svg>
