<?xml version="1.0" encoding="UTF-8" standalone="no"?>
<!DOCTYPE svg PUBLIC "-//W3C//DTD SVG 1.1//EN"
 "http://www.w3.org/Graphics/SVG/1.1/DTD/svg11.dtd">
<!-- Generated by graphviz version 2.43.0 (0)
 -->
<!-- Title: unilink::diagnostics::Logger::Impl Pages: 1 -->
<!--zoomable 700 -->

<svg id="main" version="1.1" xmlns="http://www.w3.org/2000/svg" xmlns:xlink="http://www.w3.org/1999/xlink" xml:space="preserve" onload="init(evt)">
<style type="text/css"><![CDATA[
.node, .edge {opacity: 0.7;}
.node.selected, .edge.selected {opacity: 1;}
.edge:hover path { stroke: red; }
.edge:hover polygon { stroke: red; fill: red; }
]]></style>

<defs>
  <circle id="rim" cx="0" cy="0" r="7"/>
  <circle id="rim2" cx="0" cy="0" r="3.5"/>
  <g id="zoomPlus">
    <use xlink:href="#rim" fill="#404040"><set attributeName="fill" to="#808080" begin="zoomplus.mouseover" end="zoomplus.mouseout"/></use>
    <path d="M-4,0h8M0,-4v8" fill="none" stroke="white" stroke-width="1.5" pointer-events="none"/>
  </g>
  <g id="zoomMin">
    <use xlink:href="#rim" fill="#404040"><set attributeName="fill" to="#808080" begin="zoomminus.mouseover" end="zoomminus.mouseout"/></use>
    <path d="M-4,0h8" fill="none" stroke="white" stroke-width="1.5" pointer-events="none"/>
  </g>
  <g id="arrowUp" transform="translate(30 24)">
    <use xlink:href="#rim"/>
    <path pointer-events="none" fill="none" stroke="white" stroke-width="1.5" d="M0,-3.0v7 M-2.5,-0.5L0,-3.0L2.5,-0.5"/>
  </g>
  <g id="arrowRight" transform="rotate(90) translate(36 -43)">
    <use xlink:href="#rim"/>
    <path pointer-events="none" fill="none" stroke="white" stroke-width="1.5" d="M0,-3.0v7 M-2.5,-0.5L0,-3.0L2.5,-0.5"/>
  </g>
  <g id="arrowDown" transform="rotate(180) translate(-30 -48)">
    <use xlink:href="#rim"/>
    <path pointer-events="none" fill="none" stroke="white" stroke-width="1.5" d="M0,-3.0v7 M-2.5,-0.5L0,-3.0L2.5,-0.5"/>
  </g>
  <g id="arrowLeft" transform="rotate(270) translate(-36 17)">
    <use xlink:href="#rim"/>
    <path pointer-events="none" fill="none" stroke="white" stroke-width="1.5" d="M0,-3.0v7 M-2.5,-0.5L0,-3.0L2.5,-0.5"/>
  </g>
  <g id="resetDef">
    <use xlink:href="#rim2" fill="#404040"><set attributeName="fill" to="#808080" begin="reset.mouseover" end="reset.mouseout"/></use>
  </g>
</defs>
<script type="application/ecmascript">
var viewWidth = 294;
var viewHeight = 700;
var sectionId = 'dynsection-0';
</script>
<script type="application/ecmascript" xlink:href="svg.min.js"/>
<svg id="graph" class="graph">
<g id="viewport">
<title>unilink::diagnostics::Logger::Impl</title>
<!-- Node1 -->
<g id="Node000001" class="node">
<title>Node1</title>
<g id="a_Node000001"><a xlink:title=" ">
<polygon fill="#999999" stroke="transparent" points="221,-495 53,-495 53,0 221,0 221,-495"/>
<text text-anchor="start" x="89.5" y="-482.5" font-family="Helvetica,sans-Serif" font-size="10.00">unilink::diagnostics</text>
<text text-anchor="start" x="103.5" y="-471.5" font-family="Helvetica,sans-Serif" font-size="10.00">::Logger::Impl</text>
<text text-anchor="start" x="57" y="-456.5" font-family="Helvetica,sans-Serif" font-size="10.00">+</text>
<text text-anchor="start" x="70" y="-456.5" font-family="Helvetica,sans-Serif" font-size="10.00">mutex_</text>
<text text-anchor="start" x="57" y="-441.5" font-family="Helvetica,sans-Serif" font-size="10.00">+</text>
<text text-anchor="start" x="70" y="-441.5" font-family="Helvetica,sans-Serif" font-size="10.00">current_level_</text>
<text text-anchor="start" x="57" y="-426.5" font-family="Helvetica,sans-Serif" font-size="10.00">+</text>
<text text-anchor="start" x="70" y="-426.5" font-family="Helvetica,sans-Serif" font-size="10.00">enabled_</text>
<text text-anchor="start" x="57" y="-411.5" font-family="Helvetica,sans-Serif" font-size="10.00">+</text>
<text text-anchor="start" x="70" y="-411.5" font-family="Helvetica,sans-Serif" font-size="10.00">outputs_</text>
<text text-anchor="start" x="57" y="-396.5" font-family="Helvetica,sans-Serif" font-size="10.00">+</text>
<text text-anchor="start" x="70" y="-396.5" font-family="Helvetica,sans-Serif" font-size="10.00">spd_logger_</text>
<text text-anchor="start" x="57" y="-381.5" font-family="Helvetica,sans-Serif" font-size="10.00">+</text>
<text text-anchor="start" x="70" y="-381.5" font-family="Helvetica,sans-Serif" font-size="10.00">dist_sink_</text>
<text text-anchor="start" x="57" y="-366.5" font-family="Helvetica,sans-Serif" font-size="10.00">+</text>
<text text-anchor="start" x="70" y="-366.5" font-family="Helvetica,sans-Serif" font-size="10.00">console_stdout_sink_</text>
<text text-anchor="start" x="57" y="-351.5" font-family="Helvetica,sans-Serif" font-size="10.00">+</text>
<text text-anchor="start" x="70" y="-351.5" font-family="Helvetica,sans-Serif" font-size="10.00">console_stderr_sink_</text>
<text text-anchor="start" x="57" y="-336.5" font-family="Helvetica,sans-Serif" font-size="10.00">+</text>
<text text-anchor="start" x="70" y="-336.5" font-family="Helvetica,sans-Serif" font-size="10.00">console_stdout_filter_</text>
<text text-anchor="start" x="57" y="-321.5" font-family="Helvetica,sans-Serif" font-size="10.00">+</text>
<text text-anchor="start" x="70" y="-321.5" font-family="Helvetica,sans-Serif" font-size="10.00">console_stderr_filter_</text>
<text text-anchor="start" x="70" y="-306.5" font-family="Helvetica,sans-Serif" font-size="10.00">and 8 more...</text>
<text text-anchor="start" x="57" y="-291.5" font-family="Helvetica,sans-Serif" font-size="10.00">+</text>
<text text-anchor="start" x="70" y="-291.5" font-family="Helvetica,sans-Serif" font-size="10.00">Impl()</text>
<text text-anchor="start" x="57" y="-276.5" font-family="Helvetica,sans-Serif" font-size="10.00">+</text>
<text text-anchor="start" x="70" y="-276.5" font-family="Helvetica,sans-Serif" font-size="10.00">~Impl()</text>
<text text-anchor="start" x="57" y="-261.5" font-family="Helvetica,sans-Serif" font-size="10.00">+</text>
<text text-anchor="start" x="70" y="-261.5" font-family="Helvetica,sans-Serif" font-size="10.00">apply_spdlog_pattern()</text>
<text text-anchor="start" x="57" y="-246.5" font-family="Helvetica,sans-Serif" font-size="10.00">+</text>
<text text-anchor="start" x="70" y="-246.5" font-family="Helvetica,sans-Serif" font-size="10.00">set_error()</text>
<text text-anchor="start" x="57" y="-231.5" font-family="Helvetica,sans-Serif" font-size="10.00">+</text>
<text text-anchor="start" x="70" y="-231.5" font-family="Helvetica,sans-Serif" font-size="10.00">clear_error()</text>
<text text-anchor="start" x="57" y="-216.5" font-family="Helvetica,sans-Serif" font-size="10.00">+</text>
<text text-anchor="start" x="70" y="-216.5" font-family="Helvetica,sans-Serif" font-size="10.00">has_outputs_unlocked()</text>
<text text-anchor="start" x="57" y="-201.5" font-family="Helvetica,sans-Serif" font-size="10.00">+</text>
<text text-anchor="start" x="70" y="-201.5" font-family="Helvetica,sans-Serif" font-size="10.00">add_console_sinks()</text>
<text text-anchor="start" x="57" y="-186.5" font-family="Helvetica,sans-Serif" font-size="10.00">+</text>
<text text-anchor="start" x="70" y="-186.5" font-family="Helvetica,sans-Serif" font-size="10.00">remove_console_sinks()</text>
<text text-anchor="start" x="57" y="-171.5" font-family="Helvetica,sans-Serif" font-size="10.00">+</text>
<text text-anchor="start" x="70" y="-171.5" font-family="Helvetica,sans-Serif" font-size="10.00">set_format()</text>
<text text-anchor="start" x="57" y="-156.5" font-family="Helvetica,sans-Serif" font-size="10.00">+</text>
<text text-anchor="start" x="70" y="-156.5" font-family="Helvetica,sans-Serif" font-size="10.00">apply_environment_settings()</text>
<text text-anchor="start" x="57" y="-141.5" font-family="Helvetica,sans-Serif" font-size="10.00">+</text>
<text text-anchor="start" x="70" y="-141.5" font-family="Helvetica,sans-Serif" font-size="10.00">flush()</text>
<text text-anchor="start" x="57" y="-126.5" font-family="Helvetica,sans-Serif" font-size="10.00">+</text>
<text text-anchor="start" x="70" y="-126.5" font-family="Helvetica,sans-Serif" font-size="10.00">setup_async_logging()</text>
<text text-anchor="start" x="57" y="-111.5" font-family="Helvetica,sans-Serif" font-size="10.00">+</text>
<text text-anchor="start" x="70" y="-111.5" font-family="Helvetica,sans-Serif" font-size="10.00">teardown_async_logging()</text>
<text text-anchor="start" x="57" y="-96.5" font-family="Helvetica,sans-Serif" font-size="10.00">+</text>
<text text-anchor="start" x="70" y="-96.5" font-family="Helvetica,sans-Serif" font-size="10.00">replace_all()</text>
<text text-anchor="start" x="57" y="-81.5" font-family="Helvetica,sans-Serif" font-size="10.00">+</text>
<text text-anchor="start" x="70" y="-81.5" font-family="Helvetica,sans-Serif" font-size="10.00">level_name()</text>
<text text-anchor="start" x="57" y="-66.5" font-family="Helvetica,sans-Serif" font-size="10.00">+</text>
<text text-anchor="start" x="70" y="-66.5" font-family="Helvetica,sans-Serif" font-size="10.00">normalize_env_value()</text>
<text text-anchor="start" x="57" y="-51.5" font-family="Helvetica,sans-Serif" font-size="10.00">+</text>
<text text-anchor="start" x="70" y="-51.5" font-family="Helvetica,sans-Serif" font-size="10.00">parse_log_level()</text>
<text text-anchor="start" x="57" y="-36.5" font-family="Helvetica,sans-Serif" font-size="10.00">+</text>
<text text-anchor="start" x="70" y="-36.5" font-family="Helvetica,sans-Serif" font-size="10.00">timestamp_now()</text>
<text text-anchor="start" x="57" y="-21.5" font-family="Helvetica,sans-Serif" font-size="10.00">+</text>
<text text-anchor="start" x="70" y="-21.5" font-family="Helvetica,sans-Serif" font-size="10.00">format_message()</text>
<text text-anchor="start" x="57" y="-6.5" font-family="Helvetica,sans-Serif" font-size="10.00">+</text>
<text text-anchor="start" x="70" y="-6.5" font-family="Helvetica,sans-Serif" font-size="10.00">to_spdlog_level()</text>
<polygon fill="#666666" stroke="#666666" points="53,-466.5 53,-466.5 221,-466.5 221,-466.5 53,-466.5"/>
<polygon fill="#666666" stroke="#666666" points="53,-301.5 53,-301.5 68,-301.5 68,-301.5 53,-301.5"/>
<polygon fill="#666666" stroke="#666666" points="68,-301.5 68,-301.5 221,-301.5 221,-301.5 68,-301.5"/>
<polygon fill="none" stroke="#666666" points="53,0 53,-495 221,-495 221,0 53,0"/>
</a>
</g>
</g>
<!-- Node2 -->
<g id="Node000002" class="node">
<title>Node2</title>
<g id="a_Node000002"><a xlink:href="structunilink_1_1diagnostics_1_1LogRotationConfig.html" target="_top" xlink:title="Log rotation configuration.">
<polygon fill="white" stroke="transparent" points="122,-677 0,-677 0,-557 122,-557 122,-677"/>
<text text-anchor="start" x="13" y="-665" font-family="Helvetica,sans-Serif" font-size="10.00">unilink::diagnostics</text>
<text text-anchor="start" x="13" y="-654" font-family="Helvetica,sans-Serif" font-size="10.00">::LogRotationConfig</text>
<text text-anchor="start" x="4" y="-639" font-family="Helvetica,sans-Serif" font-size="10.00">+</text>
<text text-anchor="start" x="17" y="-639" font-family="Helvetica,sans-Serif" font-size="10.00">max_file_size_bytes</text>
<text text-anchor="start" x="4" y="-624" font-family="Helvetica,sans-Serif" font-size="10.00">+</text>
<text text-anchor="start" x="17" y="-624" font-family="Helvetica,sans-Serif" font-size="10.00">max_files</text>
<text text-anchor="start" x="4" y="-609" font-family="Helvetica,sans-Serif" font-size="10.00">+</text>
<text text-anchor="start" x="17" y="-609" font-family="Helvetica,sans-Serif" font-size="10.00">enable_compression</text>
<text text-anchor="start" x="4" y="-594" font-family="Helvetica,sans-Serif" font-size="10.00">+</text>
<text text-anchor="start" x="17" y="-594" font-family="Helvetica,sans-Serif" font-size="10.00">file_pattern</text>
<text text-anchor="start" x="4" y="-579" font-family="Helvetica,sans-Serif" font-size="10.00">+</text>
<text text-anchor="start" x="17" y="-579" font-family="Helvetica,sans-Serif" font-size="10.00">LogRotationConfig()</text>
<text text-anchor="start" x="4" y="-564" font-family="Helvetica,sans-Serif" font-size="10.00">+</text>
<text text-anchor="start" x="17" y="-564" font-family="Helvetica,sans-Serif" font-size="10.00">LogRotationConfig()</text>
<polygon fill="#666666" stroke="#666666" points="0,-649 0,-649 122,-649 122,-649 0,-649"/>
<polygon fill="#666666" stroke="#666666" points="0,-589 0,-589 15,-589 15,-589 0,-589"/>
<polygon fill="#666666" stroke="#666666" points="15,-589 15,-589 122,-589 122,-589 15,-589"/>
<polygon fill="none" stroke="#666666" points="0,-557 0,-677 122,-677 122,-557 0,-557"/>
</a>
</g>
</g>
<!-- Node2&#45;&gt;Node1 -->
<g id="edge1_Node000001_Node000002" class="edge">
<title>Node2&#45;&gt;Node1</title>
<g id="a_edge1_Node000001_Node000002"><a xlink:title=" ">
<path fill="none" stroke="#63b8ff" d="M73.21,-556.95C76.27,-542.14 79.76,-525.28 83.49,-507.26"/>
<polygon fill="none" stroke="#63b8ff" points="83.54,-507.01 80.84,-500.32 85.97,-495.26 88.67,-501.94 83.54,-507.01"/>
</a>
</g>
<text text-anchor="middle" x="127" y="-516" font-family="Helvetica,sans-Serif" font-size="10.00" fill="grey"> +rotation_config_</text>
</g>
<!-- Node3 -->
<g id="Node000003" class="node">
<title>Node3</title>
<g id="a_Node000003"><a xlink:href="structunilink_1_1diagnostics_1_1AsyncLogConfig.html" target="_top" xlink:title="Async logging configuration.">
<polygon fill="white" stroke="transparent" points="285.5,-692 140.5,-692 140.5,-542 285.5,-542 285.5,-692"/>
<text text-anchor="start" x="166" y="-680" font-family="Helvetica,sans-Serif" font-size="10.00">unilink::diagnostics</text>
<text text-anchor="start" x="171.5" y="-669" font-family="Helvetica,sans-Serif" font-size="10.00">::AsyncLogConfig</text>
<text text-anchor="start" x="145" y="-654" font-family="Helvetica,sans-Serif" font-size="10.00">+</text>
<text text-anchor="start" x="158" y="-654" font-family="Helvetica,sans-Serif" font-size="10.00">max_queue_size</text>
<text text-anchor="start" x="145" y="-639" font-family="Helvetica,sans-Serif" font-size="10.00">+</text>
<text text-anchor="start" x="158" y="-639" font-family="Helvetica,sans-Serif" font-size="10.00">batch_size</text>
<text text-anchor="start" x="145" y="-624" font-family="Helvetica,sans-Serif" font-size="10.00">+</text>
<text text-anchor="start" x="158" y="-624" font-family="Helvetica,sans-Serif" font-size="10.00">flush_interval</text>
<text text-anchor="start" x="145" y="-609" font-family="Helvetica,sans-Serif" font-size="10.00">+</text>
<text text-anchor="start" x="158" y="-609" font-family="Helvetica,sans-Serif" font-size="10.00">shutdown_timeout</text>
<text text-anchor="start" x="145" y="-594" font-family="Helvetica,sans-Serif" font-size="10.00">+</text>
<text text-anchor="start" x="158" y="-594" font-family="Helvetica,sans-Serif" font-size="10.00">enable_backpressure</text>
<text text-anchor="start" x="145" y="-579" font-family="Helvetica,sans-Serif" font-size="10.00">+</text>
<text text-anchor="start" x="158" y="-579" font-family="Helvetica,sans-Serif" font-size="10.00">enable_batch_processing</text>
<text text-anchor="start" x="145" y="-564" font-family="Helvetica,sans-Serif" font-size="10.00">+</text>
<text text-anchor="start" x="158" y="-564" font-family="Helvetica,sans-Serif" font-size="10.00">AsyncLogConfig()</text>
<text text-anchor="start" x="145" y="-549" font-family="Helvetica,sans-Serif" font-size="10.00">+</text>
<text text-anchor="start" x="158" y="-549" font-family="Helvetica,sans-Serif" font-size="10.00">AsyncLogConfig()</text>
<polygon fill="#666666" stroke="#666666" points="141,-664 141,-664 286,-664 286,-664 141,-664"/>
<polygon fill="#666666" stroke="#666666" points="141,-574 141,-574 156,-574 156,-574 141,-574"/>
<polygon fill="#666666" stroke="#666666" points="156,-574 156,-574 286,-574 286,-574 156,-574"/>
<polygon fill="none" stroke="#666666" points="140.5,-542 140.5,-692 285.5,-692 285.5,-542 140.5,-542"/>
</a>
</g>
</g>
<!-- Node3&#45;&gt;Node1 -->
<g id="edge2_Node000001_Node000003" class="edge">
<title>Node3&#45;&gt;Node1</title>
<g id="a_edge2_Node000001_Node000003"><a xlink:title=" ">
<path fill="none" stroke="#63b8ff" d="M197.62,-541.63C195.39,-530.82 192.99,-519.22 190.48,-507.09"/>
<polygon fill="none" stroke="#63b8ff" points="190.47,-507.07 185.34,-502 188.04,-495.32 193.17,-500.38 190.47,-507.07"/>
</a>
</g>
<text text-anchor="middle" x="232" y="-516" font-family="Helvetica,sans-Serif" font-size="10.00" fill="grey"> +async_config_</text>
</g>
</g>
</svg>

<g id="navigator" transform="translate(0 0)" fill="#404254">
  <rect fill="#f2f5e9" fill-opacity="0.5" stroke="#606060" stroke-width=".5" x="0" y="0" width="60" height="60"/>
  <use id="zoomplus" xlink:href="#zoomPlus" x="17" y="9" onmousedown="handleZoom(evt,'in')"/>
  <use id="zoomminus" xlink:href="#zoomMin" x="42" y="9" onmousedown="handleZoom(evt,'out')"/>
  <use id="reset" xlink:href="#resetDef" x="30" y="36" onmousedown="handleReset()"/>
   <use id="arrowup" xlink:href="#arrowUp" x="0" y="0" onmousedown="handlePan(0,-1)"/>
  <use id="arrowright" xlink:href="#arrowRight" x="0" y="0" onmousedown="handlePan(1,0)"/>
  <use id="arrowdown" xlink:href="#arrowDown" x="0" y="0" onmousedown="handlePan(0,1)"/>
  <use id="arrowleft" xlink:href="#arrowLeft" x="0" y="0" onmousedown="handlePan(-1,0)"/>
</g>
<svg viewBox="0 0 15 15" width="100%" height="30px" preserveAspectRatio="xMaxYMin meet">
 <g id="arrow_out" transform="scale(0.3 0.3)">
  <a xlink:href="structunilink_1_1diagnostics_1_1Logger_1_1Impl__coll__graph_org.svg" target="_base">
   <rect id="button" ry="5" rx="5" y="6" x="6" height="38" width="38"
        fill="#f2f5e9" fill-opacity="0.5" stroke="#606060" stroke-width="1.0"/>
   <path id="arrow"
     d="M 11.500037,31.436501 C 11.940474,20.09759 22.043105,11.32322 32.158766,21.979434 L 37.068811,17.246167 C 37.068811,17.246167 37.088388,32 37.088388,32 L 22.160133,31.978069 C 22.160133,31.978069 26.997745,27.140456 26.997745,27.140456 C 18.528582,18.264221 13.291696,25.230495 11.500037,31.436501 z"
     style="fill:#404040;"/>
  </a>
 </g>
</svg>

<style type='text/css'>
<![CDATA[
[data-mouse-over-selected='false'] { opacity: 0.7; }
[data-mouse-over-selected='true']  { opacity: 1.0; }
]]>
</style>
<script type="application/ecmascript"><![CDATA[
document.addEventListener('DOMContentLoaded', (event) => {
  highlightEdges();
  highlightAdjacentNodes();
});
]]></script>
</svg>
