<?xml version="1.0" encoding="UTF-8" standalone="no"?>
<!DOCTYPE svg PUBLIC "-//W3C//DTD SVG 1.1//EN"
 "http://www.w3.org/Graphics/SVG/1.1/DTD/svg11.dtd">
<!-- Generated by graphviz version 2.43.0 (0)
 -->
<!-- Title: unilink::config::TcpClientConfig::is_valid Pages: 1 -->
<svg width="507pt" height="137pt"
 viewBox="0.00 0.00 507.00 137.00" xmlns="http://www.w3.org/2000/svg" xmlns:xlink="http://www.w3.org/1999/xlink">
<g id="graph0" class="graph" transform="scale(1 1) rotate(0) translate(4 133)">
<title>unilink::config::TcpClientConfig::is_valid</title>
<polygon fill="white" stroke="transparent" points="-4,4 -4,-133 503,-133 503,4 -4,4"/>
<!-- Node1 -->
<g id="node1" class="node">
<title>Node1</title>
<g id="a_node1"><a xlink:title=" ">
<polygon fill="#bfbfbf" stroke="black" points="0,-49.5 0,-79.5 135,-79.5 135,-49.5 0,-49.5"/>
<text text-anchor="start" x="8" y="-67.5" font-family="Helvetica,sans-Serif" font-size="10.00">unilink::config::TcpClient</text>
<text text-anchor="middle" x="67.5" y="-56.5" font-family="Helvetica,sans-Serif" font-size="10.00">Config::is_valid</text>
</a>
</g>
</g>
<!-- Node2 -->
<g id="node2" class="node">
<title>Node2</title>
<g id="a_node2"><a xlink:href="classunilink_1_1util_1_1InputValidator.html#af4805041301f350197f4cd4f61258106" target="_top" xlink:title=" ">
<polygon fill="white" stroke="black" points="171,-49.5 171,-79.5 317,-79.5 317,-49.5 171,-49.5"/>
<text text-anchor="start" x="179" y="-67.5" font-family="Helvetica,sans-Serif" font-size="10.00">unilink::util::InputValidator</text>
<text text-anchor="middle" x="244" y="-56.5" font-family="Helvetica,sans-Serif" font-size="10.00">::is_valid_host</text>
</a>
</g>
</g>
<!-- Node1&#45;&gt;Node2 -->
<g id="edge1" class="edge">
<title>Node1&#45;&gt;Node2</title>
<path fill="none" stroke="midnightblue" d="M135.47,-64.5C143.74,-64.5 152.26,-64.5 160.72,-64.5"/>
<polygon fill="midnightblue" stroke="midnightblue" points="160.99,-68 170.99,-64.5 160.99,-61 160.99,-68"/>
</g>
<!-- Node3 -->
<g id="node3" class="node">
<title>Node3</title>
<g id="a_node3"><a xlink:href="classunilink_1_1util_1_1InputValidator.html#a23535e3c86d42f6527152317ddc91036" target="_top" xlink:title=" ">
<polygon fill="white" stroke="black" points="353,-98.5 353,-128.5 499,-128.5 499,-98.5 353,-98.5"/>
<text text-anchor="start" x="361" y="-116.5" font-family="Helvetica,sans-Serif" font-size="10.00">unilink::util::InputValidator</text>
<text text-anchor="middle" x="426" y="-105.5" font-family="Helvetica,sans-Serif" font-size="10.00">::is_valid_hostname</text>
</a>
</g>
</g>
<!-- Node2&#45;&gt;Node3 -->
<g id="edge2" class="edge">
<title>Node2&#45;&gt;Node3</title>
<path fill="none" stroke="midnightblue" d="M300.47,-79.6C319.3,-84.73 340.49,-90.5 359.99,-95.8"/>
<polygon fill="midnightblue" stroke="midnightblue" points="359.14,-99.2 369.71,-98.45 360.98,-92.44 359.14,-99.2"/>
</g>
<!-- Node4 -->
<g id="node4" class="node">
<title>Node4</title>
<g id="a_node4"><a xlink:href="classunilink_1_1util_1_1InputValidator.html#a9a174cc017bb418ea82a6c42ecdde04c" target="_top" xlink:title=" ">
<polygon fill="white" stroke="black" points="353,-49.5 353,-79.5 499,-79.5 499,-49.5 353,-49.5"/>
<text text-anchor="start" x="361" y="-67.5" font-family="Helvetica,sans-Serif" font-size="10.00">unilink::util::InputValidator</text>
<text text-anchor="middle" x="426" y="-56.5" font-family="Helvetica,sans-Serif" font-size="10.00">::is_valid_ipv4</text>
</a>
</g>
</g>
<!-- Node2&#45;&gt;Node4 -->
<g id="edge3" class="edge">
<title>Node2&#45;&gt;Node4</title>
<path fill="none" stroke="midnightblue" d="M317.18,-64.5C325.52,-64.5 334.08,-64.5 342.54,-64.5"/>
<polygon fill="midnightblue" stroke="midnightblue" points="342.81,-68 352.81,-64.5 342.81,-61 342.81,-68"/>
</g>
<!-- Node5 -->
<g id="node5" class="node">
<title>Node5</title>
<g id="a_node5"><a xlink:href="classunilink_1_1util_1_1InputValidator.html#a7bbf5901f38eff733e30d233ac9ba431" target="_top" xlink:title=" ">
<polygon fill="white" stroke="black" points="353,-0.5 353,-30.5 499,-30.5 499,-0.5 353,-0.5"/>
<text text-anchor="start" x="361" y="-18.5" font-family="Helvetica,sans-Serif" font-size="10.00">unilink::util::InputValidator</text>
<text text-anchor="middle" x="426" y="-7.5" font-family="Helvetica,sans-Serif" font-size="10.00">::is_valid_ipv6</text>
</a>
</g>
</g>
<!-- Node2&#45;&gt;Node5 -->
<g id="edge4" class="edge">
<title>Node2&#45;&gt;Node5</title>
<path fill="none" stroke="midnightblue" d="M300.47,-49.4C319.3,-44.27 340.49,-38.5 359.99,-33.2"/>
<polygon fill="midnightblue" stroke="midnightblue" points="360.98,-36.56 369.71,-30.55 359.14,-29.8 360.98,-36.56"/>
</g>
</g>
</svg>
