<?xml version="1.0" encoding="UTF-8" standalone="no"?>
<!DOCTYPE svg PUBLIC "-//W3C//DTD SVG 1.1//EN"
 "http://www.w3.org/Graphics/SVG/1.1/DTD/svg11.dtd">
<!-- Generated by graphviz version 2.43.0 (0)
 -->
<!-- Title: unilink::diagnostics::Logger::Impl::process_batch Pages: 1 -->
<svg width="713pt" height="466pt"
 viewBox="0.00 0.00 713.00 465.50" xmlns="http://www.w3.org/2000/svg" xmlns:xlink="http://www.w3.org/1999/xlink">
<g id="graph0" class="graph" transform="scale(1 1) rotate(0) translate(4 461.5)">
<title>unilink::diagnostics::Logger::Impl::process_batch</title>
<polygon fill="white" stroke="transparent" points="-4,4 -4,-461.5 709,-461.5 709,4 -4,4"/>
<!-- Node1 -->
<g id="node1" class="node">
<title>Node1</title>
<g id="a_node1"><a xlink:title=" ">
<polygon fill="#bfbfbf" stroke="black" points="0,-230 0,-260 159,-260 159,-230 0,-230"/>
<text text-anchor="start" x="8" y="-248" font-family="Helvetica,sans-Serif" font-size="10.00">unilink::diagnostics</text>
<text text-anchor="middle" x="79.5" y="-237" font-family="Helvetica,sans-Serif" font-size="10.00">::Logger::Impl::process_batch</text>
</a>
</g>
</g>
<!-- Node2 -->
<g id="node2" class="node">
<title>Node2</title>
<g id="a_node2"><a xlink:href="structunilink_1_1diagnostics_1_1Logger_1_1Impl.html#aa389aa5f38b5ae999769aa93682e6bcb" target="_top" xlink:title=" ">
<polygon fill="white" stroke="black" points="195,-328.5 195,-369.5 317,-369.5 317,-328.5 195,-328.5"/>
<text text-anchor="start" x="203" y="-357.5" font-family="Helvetica,sans-Serif" font-size="10.00">unilink::diagnostics</text>
<text text-anchor="start" x="203" y="-346.5" font-family="Helvetica,sans-Serif" font-size="10.00">::Logger::Impl::format</text>
<text text-anchor="middle" x="256" y="-335.5" font-family="Helvetica,sans-Serif" font-size="10.00">_message</text>
</a>
</g>
</g>
<!-- Node1&#45;&gt;Node2 -->
<g id="edge1" class="edge">
<title>Node1&#45;&gt;Node2</title>
<path fill="none" stroke="midnightblue" d="M105.87,-260.12C133.64,-276.67 178.63,-303.49 211.95,-323.34"/>
<polygon fill="midnightblue" stroke="midnightblue" points="210.19,-326.37 220.58,-328.48 213.78,-320.36 210.19,-326.37"/>
</g>
<!-- Node7 -->
<g id="node7" class="node">
<title>Node7</title>
<g id="a_node7"><a xlink:href="structunilink_1_1diagnostics_1_1Logger_1_1Impl.html#ac11431b7d1769399869154e5ac407f56" target="_top" xlink:title=" ">
<polygon fill="white" stroke="black" points="199,-150.5 199,-191.5 313,-191.5 313,-150.5 199,-150.5"/>
<text text-anchor="start" x="207" y="-179.5" font-family="Helvetica,sans-Serif" font-size="10.00">unilink::diagnostics</text>
<text text-anchor="start" x="207" y="-168.5" font-family="Helvetica,sans-Serif" font-size="10.00">::Logger::Impl::write</text>
<text text-anchor="middle" x="256" y="-157.5" font-family="Helvetica,sans-Serif" font-size="10.00">_to_sinks</text>
</a>
</g>
</g>
<!-- Node1&#45;&gt;Node7 -->
<g id="edge7" class="edge">
<title>Node1&#45;&gt;Node7</title>
<path fill="none" stroke="midnightblue" d="M116.23,-229.85C139.51,-219.97 170.42,-206.87 197.15,-195.53"/>
<polygon fill="midnightblue" stroke="midnightblue" points="198.57,-198.73 206.41,-191.6 195.84,-192.29 198.57,-198.73"/>
</g>
<!-- Node3 -->
<g id="node3" class="node">
<title>Node3</title>
<g id="a_node3"><a xlink:href="structunilink_1_1diagnostics_1_1Logger_1_1Impl.html#a0391ba348eeaca83ab51e33e66a9411f" target="_top" xlink:title=" ">
<polygon fill="white" stroke="black" points="372.5,-427 372.5,-457 536.5,-457 536.5,-427 372.5,-427"/>
<text text-anchor="start" x="380.5" y="-445" font-family="Helvetica,sans-Serif" font-size="10.00">unilink::diagnostics</text>
<text text-anchor="middle" x="454.5" y="-434" font-family="Helvetica,sans-Serif" font-size="10.00">::Logger::Impl::get_timestamp</text>
</a>
</g>
</g>
<!-- Node2&#45;&gt;Node3 -->
<g id="edge2" class="edge">
<title>Node2&#45;&gt;Node3</title>
<path fill="none" stroke="midnightblue" d="M283.89,-369.72C302.48,-383.25 328.24,-400.48 353,-412 362.45,-416.39 372.69,-420.32 382.9,-423.77"/>
<polygon fill="midnightblue" stroke="midnightblue" points="382.07,-427.18 392.66,-426.94 384.22,-420.52 382.07,-427.18"/>
</g>
<!-- Node4 -->
<g id="node4" class="node">
<title>Node4</title>
<g id="a_node4"><a xlink:href="classunilink_1_1diagnostics_1_1Logger.html#a4a88b05c250af04b01f2a3d94473d0e3" target="_top" xlink:title="Get current log level.">
<polygon fill="white" stroke="black" points="593,-284 593,-314 704,-314 704,-284 593,-284"/>
<text text-anchor="start" x="601" y="-302" font-family="Helvetica,sans-Serif" font-size="10.00">unilink::diagnostics</text>
<text text-anchor="middle" x="648.5" y="-291" font-family="Helvetica,sans-Serif" font-size="10.00">::Logger::level</text>
</a>
</g>
</g>
<!-- Node2&#45;&gt;Node4 -->
<g id="edge3" class="edge">
<title>Node2&#45;&gt;Node4</title>
<path fill="none" stroke="midnightblue" d="M314.34,-369.58C376.03,-388.37 476.02,-409.03 556,-379 586.25,-367.64 613.05,-341.25 629.7,-321.87"/>
<polygon fill="midnightblue" stroke="midnightblue" points="632.49,-323.99 636.2,-314.06 627.11,-319.51 632.49,-323.99"/>
</g>
<!-- Node5 -->
<g id="node5" class="node">
<title>Node5</title>
<g id="a_node5"><a xlink:href="structunilink_1_1diagnostics_1_1Logger_1_1Impl.html#a8ebe61aa7e4b6333f0ed5adecc2f5ec1" target="_top" xlink:title=" ">
<polygon fill="white" stroke="black" points="398,-328.5 398,-369.5 511,-369.5 511,-328.5 398,-328.5"/>
<text text-anchor="start" x="406" y="-357.5" font-family="Helvetica,sans-Serif" font-size="10.00">unilink::diagnostics</text>
<text text-anchor="start" x="406" y="-346.5" font-family="Helvetica,sans-Serif" font-size="10.00">::Logger::Impl::level</text>
<text text-anchor="middle" x="454.5" y="-335.5" font-family="Helvetica,sans-Serif" font-size="10.00">_to_string</text>
</a>
</g>
</g>
<!-- Node2&#45;&gt;Node5 -->
<g id="edge4" class="edge">
<title>Node2&#45;&gt;Node5</title>
<path fill="none" stroke="midnightblue" d="M317.02,-349C339.34,-349 364.77,-349 387.59,-349"/>
<polygon fill="midnightblue" stroke="midnightblue" points="387.86,-352.5 397.86,-349 387.86,-345.5 387.86,-352.5"/>
</g>
<!-- Node6 -->
<g id="node6" class="node">
<title>Node6</title>
<g id="a_node6"><a xlink:href="structunilink_1_1diagnostics_1_1Logger_1_1Impl_1_1TimestampBuffer.html#a09342f6cb830b69cad2cb8433391622e" target="_top" xlink:title=" ">
<polygon fill="white" stroke="black" points="353,-279 353,-309 556,-309 556,-279 353,-279"/>
<text text-anchor="start" x="361" y="-297" font-family="Helvetica,sans-Serif" font-size="10.00">unilink::diagnostics</text>
<text text-anchor="middle" x="454.5" y="-286" font-family="Helvetica,sans-Serif" font-size="10.00">::Logger::Impl::TimestampBuffer::view</text>
</a>
</g>
</g>
<!-- Node2&#45;&gt;Node6 -->
<g id="edge6" class="edge">
<title>Node2&#45;&gt;Node6</title>
<path fill="none" stroke="midnightblue" d="M317.01,-329.65C328.9,-325.98 341.31,-322.28 353,-319 361.99,-316.48 371.48,-313.95 380.88,-311.52"/>
<polygon fill="midnightblue" stroke="midnightblue" points="381.8,-314.9 390.63,-309.03 380.07,-308.12 381.8,-314.9"/>
</g>
<!-- Node5&#45;&gt;Node4 -->
<g id="edge5" class="edge">
<title>Node5&#45;&gt;Node4</title>
<path fill="none" stroke="midnightblue" d="M511.03,-334.54C533.52,-328.68 559.62,-321.88 582.95,-315.81"/>
<polygon fill="midnightblue" stroke="midnightblue" points="583.96,-319.16 592.75,-313.26 582.19,-312.39 583.96,-319.16"/>
</g>
<!-- Node7&#45;&gt;Node4 -->
<g id="edge12" class="edge">
<title>Node7&#45;&gt;Node4</title>
<path fill="none" stroke="midnightblue" d="M284.11,-191.75C302.58,-204.91 328.12,-221.23 353,-231 438.51,-264.58 466.95,-247.42 556,-270 568.36,-273.14 581.51,-276.99 593.87,-280.85"/>
<polygon fill="midnightblue" stroke="midnightblue" points="593,-284.24 603.59,-283.93 595.12,-277.57 593,-284.24"/>
</g>
<!-- Node8 -->
<g id="node8" class="node">
<title>Node8</title>
<g id="a_node8"><a xlink:href="structunilink_1_1diagnostics_1_1Logger_1_1Impl.html#a99248f647bafe1016fe4bca98e93779f" target="_top" xlink:title=" ">
<polygon fill="white" stroke="black" points="399,-180.5 399,-221.5 510,-221.5 510,-180.5 399,-180.5"/>
<text text-anchor="start" x="407" y="-209.5" font-family="Helvetica,sans-Serif" font-size="10.00">unilink::diagnostics</text>
<text text-anchor="start" x="407" y="-198.5" font-family="Helvetica,sans-Serif" font-size="10.00">::Logger::Impl::call</text>
<text text-anchor="middle" x="454.5" y="-187.5" font-family="Helvetica,sans-Serif" font-size="10.00">_callback</text>
</a>
</g>
</g>
<!-- Node7&#45;&gt;Node8 -->
<g id="edge8" class="edge">
<title>Node7&#45;&gt;Node8</title>
<path fill="none" stroke="midnightblue" d="M313.05,-179.56C336.68,-183.16 364.33,-187.39 388.81,-191.12"/>
<polygon fill="midnightblue" stroke="midnightblue" points="388.32,-194.59 398.74,-192.64 389.38,-187.67 388.32,-194.59"/>
</g>
<!-- Node9 -->
<g id="node9" class="node">
<title>Node9</title>
<g id="a_node9"><a xlink:href="structunilink_1_1diagnostics_1_1Logger_1_1Impl.html#af740e587fbc15b84570cd287e58e6867" target="_top" xlink:title=" ">
<polygon fill="white" stroke="black" points="395.5,-120.5 395.5,-161.5 513.5,-161.5 513.5,-120.5 395.5,-120.5"/>
<text text-anchor="start" x="403.5" y="-149.5" font-family="Helvetica,sans-Serif" font-size="10.00">unilink::diagnostics</text>
<text text-anchor="start" x="403.5" y="-138.5" font-family="Helvetica,sans-Serif" font-size="10.00">::Logger::Impl::check</text>
<text text-anchor="middle" x="454.5" y="-127.5" font-family="Helvetica,sans-Serif" font-size="10.00">_and_rotate_log</text>
</a>
</g>
</g>
<!-- Node7&#45;&gt;Node9 -->
<g id="edge10" class="edge">
<title>Node7&#45;&gt;Node9</title>
<path fill="none" stroke="midnightblue" d="M313.05,-162.44C335.58,-159 361.77,-155.01 385.38,-151.4"/>
<polygon fill="midnightblue" stroke="midnightblue" points="385.97,-154.85 395.33,-149.88 384.91,-147.93 385.97,-154.85"/>
</g>
<!-- Node11 -->
<g id="node11" class="node">
<title>Node11</title>
<g id="a_node11"><a xlink:href="structunilink_1_1diagnostics_1_1Logger_1_1Impl.html#a16e662e8e3b30770960c1c14661ff05d" target="_top" xlink:title=" ">
<polygon fill="white" stroke="black" points="397.5,-60.5 397.5,-101.5 511.5,-101.5 511.5,-60.5 397.5,-60.5"/>
<text text-anchor="start" x="405.5" y="-89.5" font-family="Helvetica,sans-Serif" font-size="10.00">unilink::diagnostics</text>
<text text-anchor="start" x="405.5" y="-78.5" font-family="Helvetica,sans-Serif" font-size="10.00">::Logger::Impl::write</text>
<text text-anchor="middle" x="454.5" y="-67.5" font-family="Helvetica,sans-Serif" font-size="10.00">_to_console</text>
</a>
</g>
</g>
<!-- Node7&#45;&gt;Node11 -->
<g id="edge13" class="edge">
<title>Node7&#45;&gt;Node11</title>
<path fill="none" stroke="midnightblue" d="M285.27,-150.5C303.82,-137.77 329,-121.84 353,-111 363.95,-106.05 375.94,-101.66 387.7,-97.87"/>
<polygon fill="midnightblue" stroke="midnightblue" points="388.99,-101.13 397.5,-94.82 386.91,-94.45 388.99,-101.13"/>
</g>
<!-- Node12 -->
<g id="node12" class="node">
<title>Node12</title>
<g id="a_node12"><a xlink:href="structunilink_1_1diagnostics_1_1Logger_1_1Impl.html#a406c60c11a2d5a3a5829269e58c3ffcc" target="_top" xlink:title=" ">
<polygon fill="white" stroke="black" points="397.5,-0.5 397.5,-41.5 511.5,-41.5 511.5,-0.5 397.5,-0.5"/>
<text text-anchor="start" x="405.5" y="-29.5" font-family="Helvetica,sans-Serif" font-size="10.00">unilink::diagnostics</text>
<text text-anchor="start" x="405.5" y="-18.5" font-family="Helvetica,sans-Serif" font-size="10.00">::Logger::Impl::write</text>
<text text-anchor="middle" x="454.5" y="-7.5" font-family="Helvetica,sans-Serif" font-size="10.00">_to_file</text>
</a>
</g>
</g>
<!-- Node7&#45;&gt;Node12 -->
<g id="edge14" class="edge">
<title>Node7&#45;&gt;Node12</title>
<path fill="none" stroke="midnightblue" d="M268.12,-150.4C283.64,-123.59 314.28,-77.1 353,-51 363.42,-43.97 375.54,-38.55 387.67,-34.39"/>
<polygon fill="midnightblue" stroke="midnightblue" points="388.9,-37.67 397.37,-31.31 386.78,-31 388.9,-37.67"/>
</g>
<!-- Node8&#45;&gt;Node4 -->
<g id="edge9" class="edge">
<title>Node8&#45;&gt;Node4</title>
<path fill="none" stroke="midnightblue" d="M510.06,-217.03C525.28,-222.29 541.58,-228.69 556,-236 579.06,-247.69 603.06,-264.41 620.7,-277.69"/>
<polygon fill="midnightblue" stroke="midnightblue" points="618.74,-280.6 628.81,-283.9 622.99,-275.04 618.74,-280.6"/>
</g>
<!-- Node10 -->
<g id="node10" class="node">
<title>Node10</title>
<g id="a_node10"><a xlink:href="structunilink_1_1diagnostics_1_1Logger_1_1Impl.html#af18934b89e0cb6771b2f2cb3af1817e1" target="_top" xlink:title=" ">
<polygon fill="white" stroke="black" points="592,-120.5 592,-161.5 705,-161.5 705,-120.5 592,-120.5"/>
<text text-anchor="start" x="600" y="-149.5" font-family="Helvetica,sans-Serif" font-size="10.00">unilink::diagnostics</text>
<text text-anchor="start" x="600" y="-138.5" font-family="Helvetica,sans-Serif" font-size="10.00">::Logger::Impl::open</text>
<text text-anchor="middle" x="648.5" y="-127.5" font-family="Helvetica,sans-Serif" font-size="10.00">_log_file</text>
</a>
</g>
</g>
<!-- Node9&#45;&gt;Node10 -->
<g id="edge11" class="edge">
<title>Node9&#45;&gt;Node10</title>
<path fill="none" stroke="midnightblue" d="M513.63,-141C535.07,-141 559.51,-141 581.58,-141"/>
<polygon fill="midnightblue" stroke="midnightblue" points="581.87,-144.5 591.87,-141 581.87,-137.5 581.87,-144.5"/>
</g>
</g>
</svg>
