<?xml version="1.0" encoding="UTF-8" standalone="no"?>
<!DOCTYPE svg PUBLIC "-//W3C//DTD SVG 1.1//EN"
 "http://www.w3.org/Graphics/SVG/1.1/DTD/svg11.dtd">
<!-- Generated by graphviz version 2.43.0 (0)
 -->
<!-- Title: unilink::diagnostics::Logger::Impl::setup_async_logging Pages: 1 -->
<!--zoomable 466 -->
<svg id="main" version="1.1" xmlns="http://www.w3.org/2000/svg" xmlns:xlink="http://www.w3.org/1999/xlink" xml:space="preserve" onload="init(evt)">
<style type="text/css"><![CDATA[
.edge:hover path { stroke: red; }
.edge:hover polygon { stroke: red; fill: red; }
]]></style>
<script type="text/javascript"><![CDATA[
var edges = document.getElementsByTagName('g');
if (edges && edges.length) {
  for (var i=0;i<edges.length;i++) {
    if (edges[i].id.substr(0,4)=='edge') {
      edges[i].setAttribute('class','edge');
    }
  }
}
]]></script>
        <defs>
                <circle id="rim" cx="0" cy="0" r="7"/>
                <circle id="rim2" cx="0" cy="0" r="3.5"/>
                <g id="zoomPlus">
                        <use xlink:href="#rim" fill="#404040">
                                <set attributeName="fill" to="#808080" begin="zoomplus.mouseover" end="zoomplus.mouseout"/>
                        </use>
                        <path d="M-4,0h8M0,-4v8" fill="none" stroke="white" stroke-width="1.5" pointer-events="none"/>
                </g>
                <g id="zoomMin">
                        <use xlink:href="#rim" fill="#404040">
                                <set attributeName="fill" to="#808080" begin="zoomminus.mouseover" end="zoomminus.mouseout"/>
                        </use>
                        <path d="M-4,0h8" fill="none" stroke="white" stroke-width="1.5" pointer-events="none"/>
                </g>
                <g id="dirArrow">
                        <path fill="none" stroke="white" stroke-width="1.5" d="M0,-3.0v7 M-2.5,-0.5L0,-3.0L2.5,-0.5"/>
                </g>
               <g id="resetDef">
                       <use xlink:href="#rim2" fill="#404040">
                               <set attributeName="fill" to="#808080" begin="reset.mouseover" end="reset.mouseout"/>
                       </use>
               </g>
        </defs>

<script type="text/javascript">
var viewWidth = 1050;
var viewHeight = 466;
var sectionId = 'dynsection-18';
</script>
<script xlink:href="svgpan.js"/>
<svg id="graph" class="graph">
<g id="viewport">
<title>unilink::diagnostics::Logger::Impl::setup_async_logging</title>
<polygon fill="white" stroke="transparent" points="-4,4 -4,-461.5 1046,-461.5 1046,4 -4,4"/>
<!-- Node1 -->
<g id="node1" class="node">
<title>Node1</title>
<g id="a_node1"><a xlink:title=" ">
<polygon fill="#bfbfbf" stroke="black" points="0,-266.5 0,-307.5 116,-307.5 116,-266.5 0,-266.5"/>
<text text-anchor="start" x="8" y="-295.5" font-family="Helvetica,sans-Serif" font-size="10.00">unilink::diagnostics</text>
<text text-anchor="start" x="8" y="-284.5" font-family="Helvetica,sans-Serif" font-size="10.00">::Logger::Impl::setup</text>
<text text-anchor="middle" x="58" y="-273.5" font-family="Helvetica,sans-Serif" font-size="10.00">_async_logging</text>
</a>
</g>
</g>
<!-- Node2 -->
<g id="node2" class="node">
<title>Node2</title>
<g id="a_node2"><a xlink:href="structunilink_1_1diagnostics_1_1AsyncLogStats.html#aade07c7142f064ccc5de473c11f69f05" target="_top" xlink:title=" ">
<polygon fill="white" stroke="black" points="164,-327 164,-357 289,-357 289,-327 164,-327"/>
<text text-anchor="start" x="172" y="-345" font-family="Helvetica,sans-Serif" font-size="10.00">unilink::diagnostics</text>
<text text-anchor="middle" x="226.5" y="-334" font-family="Helvetica,sans-Serif" font-size="10.00">::AsyncLogStats::reset</text>
</a>
</g>
</g>
<!-- Node1&#45;&gt;Node2 -->
<g id="edge1" class="edge">
<title>Node1&#45;&gt;Node2</title>
<path fill="none" stroke="midnightblue" d="M116.3,-305.93C133.68,-311.67 152.73,-317.96 169.99,-323.66"/>
<polygon fill="midnightblue" stroke="midnightblue" points="169.33,-327.13 179.92,-326.94 171.52,-320.48 169.33,-327.13"/>
</g>
<!-- Node3 -->
<g id="node3" class="node">
<title>Node3</title>
<g id="a_node3"><a xlink:href="structunilink_1_1diagnostics_1_1Logger_1_1Impl.html#ab424d3003c2b6ec43076a9943c5081f4" target="_top" xlink:title=" ">
<polygon fill="white" stroke="black" points="159,-266.5 159,-307.5 294,-307.5 294,-266.5 159,-266.5"/>
<text text-anchor="start" x="167" y="-295.5" font-family="Helvetica,sans-Serif" font-size="10.00">unilink::diagnostics</text>
<text text-anchor="start" x="167" y="-284.5" font-family="Helvetica,sans-Serif" font-size="10.00">::Logger::Impl::teardown</text>
<text text-anchor="middle" x="226.5" y="-273.5" font-family="Helvetica,sans-Serif" font-size="10.00">_async_logging</text>
</a>
</g>
</g>
<!-- Node1&#45;&gt;Node3 -->
<g id="edge2" class="edge">
<title>Node1&#45;&gt;Node3</title>
<path fill="none" stroke="midnightblue" d="M116.3,-287C126.81,-287 137.94,-287 148.92,-287"/>
<polygon fill="midnightblue" stroke="midnightblue" points="148.93,-290.5 158.93,-287 148.93,-283.5 148.93,-290.5"/>
</g>
<!-- Node4 -->
<g id="node4" class="node">
<title>Node4</title>
<g id="a_node4"><a xlink:href="structunilink_1_1diagnostics_1_1Logger_1_1Impl.html#a7e8d81c56ab40421af8a4a1e4a9ee4dc" target="_top" xlink:title=" ">
<polygon fill="white" stroke="black" points="152,-217 152,-247 301,-247 301,-217 152,-217"/>
<text text-anchor="start" x="160" y="-235" font-family="Helvetica,sans-Serif" font-size="10.00">unilink::diagnostics</text>
<text text-anchor="middle" x="226.5" y="-224" font-family="Helvetica,sans-Serif" font-size="10.00">::Logger::Impl::worker_loop</text>
</a>
</g>
</g>
<!-- Node1&#45;&gt;Node4 -->
<g id="edge3" class="edge">
<title>Node1&#45;&gt;Node4</title>
<path fill="none" stroke="midnightblue" d="M116.3,-268.07C133.68,-262.33 152.73,-256.04 169.99,-250.34"/>
<polygon fill="midnightblue" stroke="midnightblue" points="171.52,-253.52 179.92,-247.06 169.33,-246.87 171.52,-253.52"/>
</g>
<!-- Node5 -->
<g id="node5" class="node">
<title>Node5</title>
<g id="a_node5"><a xlink:href="structunilink_1_1diagnostics_1_1Logger_1_1Impl.html#a24e2ce10eeb6fb05dfcf75096ae6d9f9" target="_top" xlink:title=" ">
<polygon fill="white" stroke="black" points="360,-294 360,-324 473,-324 473,-294 360,-294"/>
<text text-anchor="start" x="368" y="-312" font-family="Helvetica,sans-Serif" font-size="10.00">unilink::diagnostics</text>
<text text-anchor="middle" x="416.5" y="-301" font-family="Helvetica,sans-Serif" font-size="10.00">::Logger::Impl::flush</text>
</a>
</g>
</g>
<!-- Node4&#45;&gt;Node5 -->
<g id="edge4" class="edge">
<title>Node4&#45;&gt;Node5</title>
<path fill="none" stroke="midnightblue" d="M279.04,-247.07C286.58,-249.98 294.12,-253.29 301,-257 318.84,-266.62 319.01,-275.66 337,-285 341.21,-287.18 345.64,-289.2 350.18,-291.07"/>
<polygon fill="midnightblue" stroke="midnightblue" points="349,-294.37 359.59,-294.68 351.51,-287.83 349,-294.37"/>
</g>
<!-- Node6 -->
<g id="node6" class="node">
<title>Node6</title>
<g id="a_node6"><a xlink:href="structunilink_1_1diagnostics_1_1Logger_1_1Impl.html#ad52c73ad91eaad48df0ed778e9f0f48e" target="_top" xlink:title=" ">
<polygon fill="white" stroke="black" points="337,-245 337,-275 496,-275 496,-245 337,-245"/>
<text text-anchor="start" x="345" y="-263" font-family="Helvetica,sans-Serif" font-size="10.00">unilink::diagnostics</text>
<text text-anchor="middle" x="416.5" y="-252" font-family="Helvetica,sans-Serif" font-size="10.00">::Logger::Impl::process_batch</text>
</a>
</g>
</g>
<!-- Node4&#45;&gt;Node6 -->
<g id="edge5" class="edge">
<title>Node4&#45;&gt;Node6</title>
<path fill="none" stroke="midnightblue" d="M301.26,-242.99C309.69,-244.24 318.35,-245.53 326.94,-246.81"/>
<polygon fill="midnightblue" stroke="midnightblue" points="326.58,-250.3 336.99,-248.31 327.61,-243.37 326.58,-250.3"/>
</g>
<!-- Node18 -->
<g id="node18" class="node">
<title>Node18</title>
<g id="a_node18"><a xlink:href="structunilink_1_1diagnostics_1_1Logger_1_1Impl.html#a9e715bb69fff5cf9ac5e0de65b51ff76" target="_top" xlink:title=" ">
<polygon fill="white" stroke="black" points="355,-184.5 355,-225.5 478,-225.5 478,-184.5 355,-184.5"/>
<text text-anchor="start" x="363" y="-213.5" font-family="Helvetica,sans-Serif" font-size="10.00">unilink::diagnostics</text>
<text text-anchor="start" x="363" y="-202.5" font-family="Helvetica,sans-Serif" font-size="10.00">::Logger::Impl::update</text>
<text text-anchor="middle" x="416.5" y="-191.5" font-family="Helvetica,sans-Serif" font-size="10.00">_stats_on_batch</text>
</a>
</g>
</g>
<!-- Node4&#45;&gt;Node18 -->
<g id="edge20" class="edge">
<title>Node4&#45;&gt;Node18</title>
<path fill="none" stroke="midnightblue" d="M301.26,-221.41C315.58,-219.35 330.56,-217.2 344.78,-215.16"/>
<polygon fill="midnightblue" stroke="midnightblue" points="345.58,-218.58 354.98,-213.69 344.59,-211.65 345.58,-218.58"/>
</g>
<!-- Node19 -->
<g id="node19" class="node">
<title>Node19</title>
<g id="a_node19"><a xlink:href="structunilink_1_1diagnostics_1_1Logger_1_1Impl.html#aeb65b47f827ce103ba81a1c317da7129" target="_top" xlink:title=" ">
<polygon fill="white" stroke="black" points="355,-124.5 355,-165.5 478,-165.5 478,-124.5 355,-124.5"/>
<text text-anchor="start" x="363" y="-153.5" font-family="Helvetica,sans-Serif" font-size="10.00">unilink::diagnostics</text>
<text text-anchor="start" x="363" y="-142.5" font-family="Helvetica,sans-Serif" font-size="10.00">::Logger::Impl::update</text>
<text text-anchor="middle" x="416.5" y="-131.5" font-family="Helvetica,sans-Serif" font-size="10.00">_stats_on_flush</text>
</a>
</g>
</g>
<!-- Node4&#45;&gt;Node19 -->
<g id="edge21" class="edge">
<title>Node4&#45;&gt;Node19</title>
<path fill="none" stroke="midnightblue" d="M254.52,-216.82C276.43,-204.8 308.27,-187.92 337,-175 341.15,-173.13 345.46,-171.27 349.83,-169.45"/>
<polygon fill="midnightblue" stroke="midnightblue" points="351.5,-172.55 359.43,-165.52 348.85,-166.07 351.5,-172.55"/>
</g>
<!-- Node7 -->
<g id="node7" class="node">
<title>Node7</title>
<g id="a_node7"><a xlink:href="structunilink_1_1diagnostics_1_1Logger_1_1Impl.html#aa389aa5f38b5ae999769aa93682e6bcb" target="_top" xlink:title=" ">
<polygon fill="white" stroke="black" points="532,-328.5 532,-369.5 654,-369.5 654,-328.5 532,-328.5"/>
<text text-anchor="start" x="540" y="-357.5" font-family="Helvetica,sans-Serif" font-size="10.00">unilink::diagnostics</text>
<text text-anchor="start" x="540" y="-346.5" font-family="Helvetica,sans-Serif" font-size="10.00">::Logger::Impl::format</text>
<text text-anchor="middle" x="593" y="-335.5" font-family="Helvetica,sans-Serif" font-size="10.00">_message</text>
</a>
</g>
</g>
<!-- Node6&#45;&gt;Node7 -->
<g id="edge6" class="edge">
<title>Node6&#45;&gt;Node7</title>
<path fill="none" stroke="midnightblue" d="M471.9,-275.13C480.13,-278.04 488.39,-281.34 496,-285 517.41,-295.29 539.58,-309.78 557.22,-322.38"/>
<polygon fill="midnightblue" stroke="midnightblue" points="555.34,-325.34 565.49,-328.38 559.45,-319.67 555.34,-325.34"/>
</g>
<!-- Node12 -->
<g id="node12" class="node">
<title>Node12</title>
<g id="a_node12"><a xlink:href="structunilink_1_1diagnostics_1_1Logger_1_1Impl.html#ac11431b7d1769399869154e5ac407f56" target="_top" xlink:title=" ">
<polygon fill="white" stroke="black" points="536,-150.5 536,-191.5 650,-191.5 650,-150.5 536,-150.5"/>
<text text-anchor="start" x="544" y="-179.5" font-family="Helvetica,sans-Serif" font-size="10.00">unilink::diagnostics</text>
<text text-anchor="start" x="544" y="-168.5" font-family="Helvetica,sans-Serif" font-size="10.00">::Logger::Impl::write</text>
<text text-anchor="middle" x="593" y="-157.5" font-family="Helvetica,sans-Serif" font-size="10.00">_to_sinks</text>
</a>
</g>
</g>
<!-- Node6&#45;&gt;Node12 -->
<g id="edge12" class="edge">
<title>Node6&#45;&gt;Node12</title>
<path fill="none" stroke="midnightblue" d="M471.9,-244.87C480.13,-241.96 488.39,-238.66 496,-235 517.41,-224.71 539.58,-210.22 557.22,-197.62"/>
<polygon fill="midnightblue" stroke="midnightblue" points="559.45,-200.33 565.49,-191.62 555.34,-194.66 559.45,-200.33"/>
</g>
<!-- Node8 -->
<g id="node8" class="node">
<title>Node8</title>
<g id="a_node8"><a xlink:href="structunilink_1_1diagnostics_1_1Logger_1_1Impl.html#a0391ba348eeaca83ab51e33e66a9411f" target="_top" xlink:title=" ">
<polygon fill="white" stroke="black" points="709.5,-427 709.5,-457 873.5,-457 873.5,-427 709.5,-427"/>
<text text-anchor="start" x="717.5" y="-445" font-family="Helvetica,sans-Serif" font-size="10.00">unilink::diagnostics</text>
<text text-anchor="middle" x="791.5" y="-434" font-family="Helvetica,sans-Serif" font-size="10.00">::Logger::Impl::get_timestamp</text>
</a>
</g>
</g>
<!-- Node7&#45;&gt;Node8 -->
<g id="edge7" class="edge">
<title>Node7&#45;&gt;Node8</title>
<path fill="none" stroke="midnightblue" d="M620.89,-369.72C639.48,-383.25 665.24,-400.48 690,-412 699.45,-416.39 709.69,-420.32 719.9,-423.77"/>
<polygon fill="midnightblue" stroke="midnightblue" points="719.07,-427.18 729.66,-426.94 721.22,-420.52 719.07,-427.18"/>
</g>
<!-- Node9 -->
<g id="node9" class="node">
<title>Node9</title>
<g id="a_node9"><a xlink:href="classunilink_1_1diagnostics_1_1Logger.html#a4a88b05c250af04b01f2a3d94473d0e3" target="_top" xlink:title="Get current log level.">
<polygon fill="white" stroke="black" points="930,-284 930,-314 1041,-314 1041,-284 930,-284"/>
<text text-anchor="start" x="938" y="-302" font-family="Helvetica,sans-Serif" font-size="10.00">unilink::diagnostics</text>
<text text-anchor="middle" x="985.5" y="-291" font-family="Helvetica,sans-Serif" font-size="10.00">::Logger::level</text>
</a>
</g>
</g>
<!-- Node7&#45;&gt;Node9 -->
<g id="edge8" class="edge">
<title>Node7&#45;&gt;Node9</title>
<path fill="none" stroke="midnightblue" d="M651.34,-369.58C713.03,-388.37 813.02,-409.03 893,-379 923.25,-367.64 950.05,-341.25 966.7,-321.87"/>
<polygon fill="midnightblue" stroke="midnightblue" points="969.49,-323.99 973.2,-314.06 964.11,-319.51 969.49,-323.99"/>
</g>
<!-- Node10 -->
<g id="node10" class="node">
<title>Node10</title>
<g id="a_node10"><a xlink:href="structunilink_1_1diagnostics_1_1Logger_1_1Impl.html#a8ebe61aa7e4b6333f0ed5adecc2f5ec1" target="_top" xlink:title=" ">
<polygon fill="white" stroke="black" points="735,-328.5 735,-369.5 848,-369.5 848,-328.5 735,-328.5"/>
<text text-anchor="start" x="743" y="-357.5" font-family="Helvetica,sans-Serif" font-size="10.00">unilink::diagnostics</text>
<text text-anchor="start" x="743" y="-346.5" font-family="Helvetica,sans-Serif" font-size="10.00">::Logger::Impl::level</text>
<text text-anchor="middle" x="791.5" y="-335.5" font-family="Helvetica,sans-Serif" font-size="10.00">_to_string</text>
</a>
</g>
</g>
<!-- Node7&#45;&gt;Node10 -->
<g id="edge9" class="edge">
<title>Node7&#45;&gt;Node10</title>
<path fill="none" stroke="midnightblue" d="M654.02,-349C676.34,-349 701.77,-349 724.59,-349"/>
<polygon fill="midnightblue" stroke="midnightblue" points="724.86,-352.5 734.86,-349 724.86,-345.5 724.86,-352.5"/>
</g>
<!-- Node11 -->
<g id="node11" class="node">
<title>Node11</title>
<g id="a_node11"><a xlink:href="structunilink_1_1diagnostics_1_1Logger_1_1Impl_1_1TimestampBuffer.html#a09342f6cb830b69cad2cb8433391622e" target="_top" xlink:title=" ">
<polygon fill="white" stroke="black" points="690,-279 690,-309 893,-309 893,-279 690,-279"/>
<text text-anchor="start" x="698" y="-297" font-family="Helvetica,sans-Serif" font-size="10.00">unilink::diagnostics</text>
<text text-anchor="middle" x="791.5" y="-286" font-family="Helvetica,sans-Serif" font-size="10.00">::Logger::Impl::TimestampBuffer::view</text>
</a>
</g>
</g>
<!-- Node7&#45;&gt;Node11 -->
<g id="edge11" class="edge">
<title>Node7&#45;&gt;Node11</title>
<path fill="none" stroke="midnightblue" d="M654.01,-329.65C665.9,-325.98 678.31,-322.28 690,-319 698.99,-316.48 708.48,-313.95 717.88,-311.52"/>
<polygon fill="midnightblue" stroke="midnightblue" points="718.8,-314.9 727.63,-309.03 717.07,-308.12 718.8,-314.9"/>
</g>
<!-- Node10&#45;&gt;Node9 -->
<g id="edge10" class="edge">
<title>Node10&#45;&gt;Node9</title>
<path fill="none" stroke="midnightblue" d="M848.03,-334.54C870.52,-328.68 896.62,-321.88 919.95,-315.81"/>
<polygon fill="midnightblue" stroke="midnightblue" points="920.96,-319.16 929.75,-313.26 919.19,-312.39 920.96,-319.16"/>
</g>
<!-- Node12&#45;&gt;Node9 -->
<g id="edge17" class="edge">
<title>Node12&#45;&gt;Node9</title>
<path fill="none" stroke="midnightblue" d="M621.11,-191.75C639.58,-204.91 665.12,-221.23 690,-231 775.51,-264.58 803.95,-247.42 893,-270 905.36,-273.14 918.51,-276.99 930.87,-280.85"/>
<polygon fill="midnightblue" stroke="midnightblue" points="930,-284.24 940.59,-283.93 932.12,-277.57 930,-284.24"/>
</g>
<!-- Node13 -->
<g id="node13" class="node">
<title>Node13</title>
<g id="a_node13"><a xlink:href="structunilink_1_1diagnostics_1_1Logger_1_1Impl.html#a99248f647bafe1016fe4bca98e93779f" target="_top" xlink:title=" ">
<polygon fill="white" stroke="black" points="736,-180.5 736,-221.5 847,-221.5 847,-180.5 736,-180.5"/>
<text text-anchor="start" x="744" y="-209.5" font-family="Helvetica,sans-Serif" font-size="10.00">unilink::diagnostics</text>
<text text-anchor="start" x="744" y="-198.5" font-family="Helvetica,sans-Serif" font-size="10.00">::Logger::Impl::call</text>
<text text-anchor="middle" x="791.5" y="-187.5" font-family="Helvetica,sans-Serif" font-size="10.00">_callback</text>
</a>
</g>
</g>
<!-- Node12&#45;&gt;Node13 -->
<g id="edge13" class="edge">
<title>Node12&#45;&gt;Node13</title>
<path fill="none" stroke="midnightblue" d="M650.05,-179.56C673.68,-183.16 701.33,-187.39 725.81,-191.12"/>
<polygon fill="midnightblue" stroke="midnightblue" points="725.32,-194.59 735.74,-192.64 726.38,-187.67 725.32,-194.59"/>
</g>
<!-- Node14 -->
<g id="node14" class="node">
<title>Node14</title>
<g id="a_node14"><a xlink:href="structunilink_1_1diagnostics_1_1Logger_1_1Impl.html#af740e587fbc15b84570cd287e58e6867" target="_top" xlink:title=" ">
<polygon fill="white" stroke="black" points="732.5,-120.5 732.5,-161.5 850.5,-161.5 850.5,-120.5 732.5,-120.5"/>
<text text-anchor="start" x="740.5" y="-149.5" font-family="Helvetica,sans-Serif" font-size="10.00">unilink::diagnostics</text>
<text text-anchor="start" x="740.5" y="-138.5" font-family="Helvetica,sans-Serif" font-size="10.00">::Logger::Impl::check</text>
<text text-anchor="middle" x="791.5" y="-127.5" font-family="Helvetica,sans-Serif" font-size="10.00">_and_rotate_log</text>
</a>
</g>
</g>
<!-- Node12&#45;&gt;Node14 -->
<g id="edge15" class="edge">
<title>Node12&#45;&gt;Node14</title>
<path fill="none" stroke="midnightblue" d="M650.05,-162.44C672.58,-159 698.77,-155.01 722.38,-151.4"/>
<polygon fill="midnightblue" stroke="midnightblue" points="722.97,-154.85 732.33,-149.88 721.91,-147.93 722.97,-154.85"/>
</g>
<!-- Node16 -->
<g id="node16" class="node">
<title>Node16</title>
<g id="a_node16"><a xlink:href="structunilink_1_1diagnostics_1_1Logger_1_1Impl.html#a16e662e8e3b30770960c1c14661ff05d" target="_top" xlink:title=" ">
<polygon fill="white" stroke="black" points="734.5,-60.5 734.5,-101.5 848.5,-101.5 848.5,-60.5 734.5,-60.5"/>
<text text-anchor="start" x="742.5" y="-89.5" font-family="Helvetica,sans-Serif" font-size="10.00">unilink::diagnostics</text>
<text text-anchor="start" x="742.5" y="-78.5" font-family="Helvetica,sans-Serif" font-size="10.00">::Logger::Impl::write</text>
<text text-anchor="middle" x="791.5" y="-67.5" font-family="Helvetica,sans-Serif" font-size="10.00">_to_console</text>
</a>
</g>
</g>
<!-- Node12&#45;&gt;Node16 -->
<g id="edge18" class="edge">
<title>Node12&#45;&gt;Node16</title>
<path fill="none" stroke="midnightblue" d="M622.27,-150.5C640.82,-137.77 666,-121.84 690,-111 700.95,-106.05 712.94,-101.66 724.7,-97.87"/>
<polygon fill="midnightblue" stroke="midnightblue" points="725.99,-101.13 734.5,-94.82 723.91,-94.45 725.99,-101.13"/>
</g>
<!-- Node17 -->
<g id="node17" class="node">
<title>Node17</title>
<g id="a_node17"><a xlink:href="structunilink_1_1diagnostics_1_1Logger_1_1Impl.html#a406c60c11a2d5a3a5829269e58c3ffcc" target="_top" xlink:title=" ">
<polygon fill="white" stroke="black" points="734.5,-0.5 734.5,-41.5 848.5,-41.5 848.5,-0.5 734.5,-0.5"/>
<text text-anchor="start" x="742.5" y="-29.5" font-family="Helvetica,sans-Serif" font-size="10.00">unilink::diagnostics</text>
<text text-anchor="start" x="742.5" y="-18.5" font-family="Helvetica,sans-Serif" font-size="10.00">::Logger::Impl::write</text>
<text text-anchor="middle" x="791.5" y="-7.5" font-family="Helvetica,sans-Serif" font-size="10.00">_to_file</text>
</a>
</g>
</g>
<!-- Node12&#45;&gt;Node17 -->
<g id="edge19" class="edge">
<title>Node12&#45;&gt;Node17</title>
<path fill="none" stroke="midnightblue" d="M605.12,-150.4C620.64,-123.59 651.28,-77.1 690,-51 700.42,-43.97 712.54,-38.55 724.67,-34.39"/>
<polygon fill="midnightblue" stroke="midnightblue" points="725.9,-37.67 734.37,-31.31 723.78,-31 725.9,-37.67"/>
</g>
<!-- Node13&#45;&gt;Node9 -->
<g id="edge14" class="edge">
<title>Node13&#45;&gt;Node9</title>
<path fill="none" stroke="midnightblue" d="M847.06,-217.03C862.28,-222.29 878.58,-228.69 893,-236 916.06,-247.69 940.06,-264.41 957.7,-277.69"/>
<polygon fill="midnightblue" stroke="midnightblue" points="955.74,-280.6 965.81,-283.9 959.99,-275.04 955.74,-280.6"/>
</g>
<!-- Node15 -->
<g id="node15" class="node">
<title>Node15</title>
<g id="a_node15"><a xlink:href="structunilink_1_1diagnostics_1_1Logger_1_1Impl.html#af18934b89e0cb6771b2f2cb3af1817e1" target="_top" xlink:title=" ">
<polygon fill="white" stroke="black" points="929,-120.5 929,-161.5 1042,-161.5 1042,-120.5 929,-120.5"/>
<text text-anchor="start" x="937" y="-149.5" font-family="Helvetica,sans-Serif" font-size="10.00">unilink::diagnostics</text>
<text text-anchor="start" x="937" y="-138.5" font-family="Helvetica,sans-Serif" font-size="10.00">::Logger::Impl::open</text>
<text text-anchor="middle" x="985.5" y="-127.5" font-family="Helvetica,sans-Serif" font-size="10.00">_log_file</text>
</a>
</g>
</g>
<!-- Node14&#45;&gt;Node15 -->
<g id="edge16" class="edge">
<title>Node14&#45;&gt;Node15</title>
<path fill="none" stroke="midnightblue" d="M850.63,-141C872.07,-141 896.51,-141 918.58,-141"/>
<polygon fill="midnightblue" stroke="midnightblue" points="918.87,-144.5 928.87,-141 918.87,-137.5 918.87,-144.5"/>
</g>
</g>
</svg>
        <g id="navigator" transform="translate(0 0)" fill="#404254">
                <rect fill="#f2f5e9" fill-opacity="0.5" stroke="#606060" stroke-width=".5" x="0" y="0" width="60" height="60"/>
                <use id="zoomplus" xlink:href="#zoomPlus" x="17" y="9" onmousedown="handleZoom(evt,'in')"/>
                <use id="zoomminus" xlink:href="#zoomMin" x="42" y="9" onmousedown="handleZoom(evt,'out')"/>
                <use id="reset" xlink:href="#resetDef" x="30" y="36" onmousedown="handleReset()"/>
                <g id="arrowUp" xlink:href="#dirArrow" transform="translate(30 24)" onmousedown="handlePan(0,-1)">
                  <use xlink:href="#rim" fill="#404040">
                        <set attributeName="fill" to="#808080" begin="arrowUp.mouseover" end="arrowUp.mouseout"/>
                  </use>
                  <path fill="none" stroke="white" stroke-width="1.5" d="M0,-3.0v7 M-2.5,-0.5L0,-3.0L2.5,-0.5"/>
                </g>
                <g id="arrowRight" xlink:href="#dirArrow" transform="rotate(90) translate(36 -43)" onmousedown="handlePan(1,0)">
                  <use xlink:href="#rim" fill="#404040">
                        <set attributeName="fill" to="#808080" begin="arrowRight.mouseover" end="arrowRight.mouseout"/>
                  </use>
                  <path fill="none" stroke="white" stroke-width="1.5" d="M0,-3.0v7 M-2.5,-0.5L0,-3.0L2.5,-0.5"/>
                </g>
                <g id="arrowDown" xlink:href="#dirArrow" transform="rotate(180) translate(-30 -48)" onmousedown="handlePan(0,1)">
                  <use xlink:href="#rim" fill="#404040">
                        <set attributeName="fill" to="#808080" begin="arrowDown.mouseover" end="arrowDown.mouseout"/>
                  </use>
                  <path fill="none" stroke="white" stroke-width="1.5" d="M0,-3.0v7 M-2.5,-0.5L0,-3.0L2.5,-0.5"/>
                </g>
                <g id="arrowLeft" xlink:href="#dirArrow" transform="rotate(270) translate(-36 17)" onmousedown="handlePan(-1,0)">
                  <use xlink:href="#rim" fill="#404040">
                        <set attributeName="fill" to="#808080" begin="arrowLeft.mouseover" end="arrowLeft.mouseout"/>
                  </use>
                  <path fill="none" stroke="white" stroke-width="1.5" d="M0,-3.0v7 M-2.5,-0.5L0,-3.0L2.5,-0.5"/>
                </g>
        </g>
        <svg viewBox="0 0 15 15" width="100%" height="30px" preserveAspectRatio="xMaxYMin meet">
         <g id="arrow_out" transform="scale(0.3 0.3)">
          <a xlink:href="structunilink_1_1diagnostics_1_1Logger_1_1Impl_a2c07457dc964378102e8797795cf4586_cgraph_org.svg" target="_base">
           <rect id="button" ry="5" rx="5" y="6" x="6" height="38" width="38"
                fill="#f2f5e9" fill-opacity="0.5" stroke="#606060" stroke-width="1.0"/>
           <path id="arrow"
             d="M 11.500037,31.436501 C 11.940474,20.09759 22.043105,11.32322 32.158766,21.979434 L 37.068811,17.246167 C 37.068811,17.246167 37.088388,32 37.088388,32 L 22.160133,31.978069 C 22.160133,31.978069 26.997745,27.140456 26.997745,27.140456 C 18.528582,18.264221 13.291696,25.230495 11.500037,31.436501 z"
             style="fill:#404040;"/>
          </a>
         </g>
        </svg>
</svg>
