<?xml version="1.0" encoding="UTF-8" standalone="no"?>
<!DOCTYPE svg PUBLIC "-//W3C//DTD SVG 1.1//EN"
 "http://www.w3.org/Graphics/SVG/1.1/DTD/svg11.dtd">
<!-- Generated by graphviz version 2.43.0 (0)
 -->
<!-- Title: unilink::wrapper::UdsServer::Impl::flush_batches Pages: 1 -->
<svg width="946pt" height="86pt"
 viewBox="0.00 0.00 946.00 86.00" xmlns="http://www.w3.org/2000/svg" xmlns:xlink="http://www.w3.org/1999/xlink">
<g id="graph0" class="graph" transform="scale(1 1) rotate(0) translate(4 82)">
<title>unilink::wrapper::UdsServer::Impl::flush_batches</title>
<!-- Node1 -->
<g id="Node000001" class="node">
<title>Node1</title>
<g id="a_Node000001"><a xlink:title=" ">
<polygon fill="#999999" stroke="#666666" points="938,-54 786,-54 786,-24 938,-24 938,-54"/>
<text text-anchor="start" x="794" y="-42" font-family="Helvetica,sans-Serif" font-size="10.00">unilink::wrapper::UdsServer</text>
<text text-anchor="middle" x="862" y="-31" font-family="Helvetica,sans-Serif" font-size="10.00">::Impl::flush_batches</text>
</a>
</g>
</g>
<!-- Node2 -->
<g id="Node000002" class="node">
<title>Node2</title>
<g id="a_Node000002"><a xlink:href="structunilink_1_1wrapper_1_1UdsServer_1_1Impl.html#a4b1d6e6fa56686bbd55b5cfebf5621d1" target="_top" xlink:title=" ">
<polygon fill="white" stroke="#666666" points="750,-54 592,-54 592,-24 750,-24 750,-54"/>
<text text-anchor="start" x="600" y="-42" font-family="Helvetica,sans-Serif" font-size="10.00">unilink::wrapper::UdsServer</text>
<text text-anchor="middle" x="671" y="-31" font-family="Helvetica,sans-Serif" font-size="10.00">::Impl::schedule_batch_timer</text>
</a>
</g>
</g>
<!-- Node1&#45;&gt;Node2 -->
<g id="edge1_Node000001_Node000002" class="edge">
<title>Node1&#45;&gt;Node2</title>
<g id="a_edge1_Node000001_Node000002"><a xlink:title=" ">
<path fill="none" stroke="#63b8ff" d="M775.5,-39C767.03,-39 758.46,-39 750.08,-39"/>
<polygon fill="#63b8ff" stroke="#63b8ff" points="775.76,-42.5 785.76,-39 775.76,-35.5 775.76,-42.5"/>
</a>
</g>
</g>
<!-- Node3 -->
<g id="Node000003" class="node">
<title>Node3</title>
<g id="a_Node000003"><a xlink:href="structunilink_1_1wrapper_1_1UdsServer_1_1Impl.html#a9b30495e438dca4c9af1f0e23ea737b6" target="_top" xlink:title=" ">
<polygon fill="white" stroke="#666666" points="556,-76 391,-76 391,-46 556,-46 556,-76"/>
<text text-anchor="start" x="399" y="-64" font-family="Helvetica,sans-Serif" font-size="10.00">unilink::wrapper::UdsServer</text>
<text text-anchor="middle" x="473.5" y="-53" font-family="Helvetica,sans-Serif" font-size="10.00">::Impl::attach_framer_callback</text>
</a>
</g>
</g>
<!-- Node2&#45;&gt;Node3 -->
<g id="edge2_Node000002_Node000003" class="edge">
<title>Node2&#45;&gt;Node3</title>
<g id="a_edge2_Node000002_Node000003"><a xlink:title=" ">
<path fill="none" stroke="#63b8ff" d="M581.85,-48.92C573.25,-49.89 564.54,-50.87 556.01,-51.83"/>
<polygon fill="#63b8ff" stroke="#63b8ff" points="582.34,-52.39 591.89,-47.79 581.56,-45.43 582.34,-52.39"/>
</a>
</g>
</g>
<!-- Node4 -->
<g id="Node000004" class="node">
<title>Node4</title>
<g id="a_Node000004"><a xlink:href="structunilink_1_1wrapper_1_1UdsServer_1_1Impl.html#a10ed4dde741e2d4077f3df717d38cde5" target="_top" xlink:title=" ">
<polygon fill="white" stroke="#666666" points="355,-54 188,-54 188,-24 355,-24 355,-54"/>
<text text-anchor="start" x="196" y="-42" font-family="Helvetica,sans-Serif" font-size="10.00">unilink::wrapper::UdsServer</text>
<text text-anchor="middle" x="271.5" y="-31" font-family="Helvetica,sans-Serif" font-size="10.00">::Impl::setup_internal_handlers</text>
</a>
</g>
</g>
<!-- Node2&#45;&gt;Node4 -->
<g id="edge6_Node000002_Node000004" class="edge">
<title>Node2&#45;&gt;Node4</title>
<g id="a_edge6_Node000002_Node000004"><a xlink:title=" ">
<path fill="none" stroke="#63b8ff" d="M581.66,-37.3C572.99,-37.18 564.32,-37.07 556,-37 482.67,-36.36 464.33,-36.38 391,-37 379.38,-37.1 367.11,-37.25 355.05,-37.43"/>
<polygon fill="#63b8ff" stroke="#63b8ff" points="581.76,-40.8 591.81,-37.45 581.87,-33.8 581.76,-40.8"/>
</a>
</g>
</g>
<!-- Node3&#45;&gt;Node4 -->
<g id="edge3_Node000003_Node000004" class="edge">
<title>Node3&#45;&gt;Node4</title>
<g id="a_edge3_Node000003_Node000004"><a xlink:title=" ">
<path fill="none" stroke="#63b8ff" d="M380.86,-50.92C372.3,-49.98 363.65,-49.03 355.17,-48.09"/>
<polygon fill="#63b8ff" stroke="#63b8ff" points="380.54,-54.41 390.86,-52.02 381.31,-47.45 380.54,-54.41"/>
</a>
</g>
</g>
<!-- Node5 -->
<g id="Node000005" class="node">
<title>Node5</title>
<g id="a_Node000005"><a xlink:href="structunilink_1_1wrapper_1_1UdsServer_1_1Impl.html#a82fa898e3d4786c76704919dea8dae46" target="_top" xlink:title=" ">
<polygon fill="white" stroke="#666666" points="152,-78 0,-78 0,-48 152,-48 152,-78"/>
<text text-anchor="start" x="8" y="-66" font-family="Helvetica,sans-Serif" font-size="10.00">unilink::wrapper::UdsServer</text>
<text text-anchor="middle" x="76" y="-55" font-family="Helvetica,sans-Serif" font-size="10.00">::Impl::Impl</text>
</a>
</g>
</g>
<!-- Node4&#45;&gt;Node5 -->
<g id="edge4_Node000004_Node000005" class="edge">
<title>Node4&#45;&gt;Node5</title>
<g id="a_edge4_Node000004_Node000005"><a xlink:title=" ">
<path fill="none" stroke="#63b8ff" d="M177.86,-50.49C169.29,-51.55 160.68,-52.62 152.3,-53.66"/>
<polygon fill="#63b8ff" stroke="#63b8ff" points="178.38,-53.95 187.88,-49.25 177.52,-47.01 178.38,-53.95"/>
</a>
</g>
</g>
<!-- Node6 -->
<g id="Node000006" class="node">
<title>Node6</title>
<g id="a_Node000006"><a xlink:href="structunilink_1_1wrapper_1_1UdsServer_1_1Impl.html#aecb2e08ff201c840d9f5d2a90f016299" target="_top" xlink:title=" ">
<polygon fill="white" stroke="#666666" points="152,-30 0,-30 0,0 152,0 152,-30"/>
<text text-anchor="start" x="8" y="-18" font-family="Helvetica,sans-Serif" font-size="10.00">unilink::wrapper::UdsServer</text>
<text text-anchor="middle" x="76" y="-7" font-family="Helvetica,sans-Serif" font-size="10.00">::Impl::start</text>
</a>
</g>
</g>
<!-- Node4&#45;&gt;Node6 -->
<g id="edge5_Node000004_Node000006" class="edge">
<title>Node4&#45;&gt;Node6</title>
<g id="a_edge5_Node000004_Node000006"><a xlink:title=" ">
<path fill="none" stroke="#63b8ff" d="M177.86,-27.51C169.29,-26.45 160.68,-25.38 152.3,-24.34"/>
<polygon fill="#63b8ff" stroke="#63b8ff" points="177.52,-30.99 187.88,-28.75 178.38,-24.05 177.52,-30.99"/>
</a>
</g>
</g>
</g>
</svg>
