<?xml version="1.0" encoding="UTF-8" standalone="no"?>
<!DOCTYPE svg PUBLIC "-//W3C//DTD SVG 1.1//EN"
 "http://www.w3.org/Graphics/SVG/1.1/DTD/svg11.dtd">
<!-- Generated by graphviz version 2.43.0 (0)
 -->
<!-- Title: unilink::transport::UdpChannel::Impl::observe_queue Pages: 1 -->
<svg width="428pt" height="126pt"
 viewBox="0.00 0.00 428.00 126.00" xmlns="http://www.w3.org/2000/svg" xmlns:xlink="http://www.w3.org/1999/xlink">
<g id="graph0" class="graph" transform="scale(1 1) rotate(0) translate(4 122)">
<title>unilink::transport::UdpChannel::Impl::observe_queue</title>
<!-- Node1 -->
<g id="Node000001" class="node">
<title>Node1</title>
<g id="a_Node000001"><a xlink:title=" ">
<polygon fill="#999999" stroke="#666666" points="420,-79 304,-79 304,-38 420,-38 420,-79"/>
<text text-anchor="start" x="312" y="-67" font-family="Helvetica,sans-Serif" font-size="10.00">unilink::transport</text>
<text text-anchor="start" x="312" y="-56" font-family="Helvetica,sans-Serif" font-size="10.00">::UdpChannel::Impl::</text>
<text text-anchor="middle" x="362" y="-45" font-family="Helvetica,sans-Serif" font-size="10.00">observe_queue</text>
</a>
</g>
</g>
<!-- Node2 -->
<g id="Node000002" class="node">
<title>Node2</title>
<g id="a_Node000002"><a xlink:href="structunilink_1_1transport_1_1UdpChannel_1_1Impl.html#a9397ef06bddbc9e3c5518067f4a6abda" target="_top" xlink:title=" ">
<polygon fill="white" stroke="#666666" points="116,-118 0,-118 0,-77 116,-77 116,-118"/>
<text text-anchor="start" x="8" y="-106" font-family="Helvetica,sans-Serif" font-size="10.00">unilink::transport</text>
<text text-anchor="start" x="8" y="-95" font-family="Helvetica,sans-Serif" font-size="10.00">::UdpChannel::Impl::</text>
<text text-anchor="middle" x="58" y="-84" font-family="Helvetica,sans-Serif" font-size="10.00">enqueue_buffer</text>
</a>
</g>
</g>
<!-- Node1&#45;&gt;Node2 -->
<g id="edge1_Node000001_Node000002" class="edge">
<title>Node1&#45;&gt;Node2</title>
<g id="a_edge1_Node000001_Node000002"><a xlink:title=" ">
<path fill="none" stroke="#63b8ff" d="M293.79,-67.18C240.46,-74.07 166.71,-83.59 116.18,-90.12"/>
<polygon fill="#63b8ff" stroke="#63b8ff" points="294.37,-70.63 303.84,-65.88 293.48,-63.69 294.37,-70.63"/>
</a>
</g>
</g>
<!-- Node3 -->
<g id="Node000003" class="node">
<title>Node3</title>
<g id="a_Node000003"><a xlink:href="structunilink_1_1transport_1_1UdpChannel_1_1Impl.html#a4a285bf7d9f865446768b2147b7e4074" target="_top" xlink:title=" ">
<polygon fill="white" stroke="#666666" points="268,-55 152,-55 152,-14 268,-14 268,-55"/>
<text text-anchor="start" x="160" y="-43" font-family="Helvetica,sans-Serif" font-size="10.00">unilink::transport</text>
<text text-anchor="start" x="160" y="-32" font-family="Helvetica,sans-Serif" font-size="10.00">::UdpChannel::Impl::</text>
<text text-anchor="middle" x="210" y="-21" font-family="Helvetica,sans-Serif" font-size="10.00">report_backpressure</text>
</a>
</g>
</g>
<!-- Node1&#45;&gt;Node3 -->
<g id="edge2_Node000001_Node000003" class="edge">
<title>Node1&#45;&gt;Node3</title>
<g id="a_edge2_Node000001_Node000003"><a xlink:title=" ">
<path fill="none" stroke="#63b8ff" d="M293.97,-47.77C285.46,-46.41 276.81,-45.03 268.47,-43.7"/>
<polygon fill="#63b8ff" stroke="#63b8ff" points="293.44,-51.23 303.86,-49.36 294.54,-44.32 293.44,-51.23"/>
</a>
</g>
</g>
<!-- Node3&#45;&gt;Node2 -->
<g id="edge6_Node000003_Node000002" class="edge">
<title>Node3&#45;&gt;Node2</title>
<g id="a_edge6_Node000003_Node000002"><a xlink:title=" ">
<path fill="none" stroke="#63b8ff" d="M150.33,-59.14C136.32,-65.03 121.5,-71.25 107.97,-76.93"/>
<polygon fill="#63b8ff" stroke="#63b8ff" points="152.02,-62.23 159.88,-55.13 149.31,-55.77 152.02,-62.23"/>
</a>
</g>
</g>
<!-- Node4 -->
<g id="Node000004" class="node">
<title>Node4</title>
<g id="a_Node000004"><a xlink:href="structunilink_1_1transport_1_1UdpChannel_1_1Impl.html#ae29267b4cb8f4bc26f6f120ab30d5989" target="_top" xlink:title=" ">
<polygon fill="white" stroke="#666666" points="116,-41 0,-41 0,0 116,0 116,-41"/>
<text text-anchor="start" x="8" y="-29" font-family="Helvetica,sans-Serif" font-size="10.00">unilink::transport</text>
<text text-anchor="start" x="8" y="-18" font-family="Helvetica,sans-Serif" font-size="10.00">::UdpChannel::Impl::</text>
<text text-anchor="middle" x="58" y="-7" font-family="Helvetica,sans-Serif" font-size="10.00">do_write</text>
</a>
</g>
</g>
<!-- Node3&#45;&gt;Node4 -->
<g id="edge3_Node000003_Node000004" class="edge">
<title>Node3&#45;&gt;Node4</title>
<g id="a_edge3_Node000003_Node000004"><a xlink:title=" ">
<path fill="none" stroke="#63b8ff" d="M141.69,-21.5C133.27,-20.64 124.72,-19.89 116.47,-19.28"/>
<polygon fill="#63b8ff" stroke="#63b8ff" points="141.55,-25 151.86,-22.59 142.29,-18.04 141.55,-25"/>
</a>
</g>
</g>
<!-- Node4&#45;&gt;Node3 -->
<g id="edge5_Node000004_Node000003" class="edge">
<title>Node4&#45;&gt;Node3</title>
<g id="a_edge5_Node000004_Node000003"><a xlink:title=" ">
<path fill="none" stroke="#63b8ff" d="M126.66,-33.54C135.08,-34.39 143.62,-35.14 151.86,-35.74"/>
<polygon fill="#63b8ff" stroke="#63b8ff" points="126.79,-30.03 116.47,-32.45 126.05,-36.99 126.79,-30.03"/>
</a>
</g>
</g>
<!-- Node4&#45;&gt;Node4 -->
<g id="edge4_Node000004_Node000004" class="edge">
<title>Node4&#45;&gt;Node4</title>
<g id="a_edge4_Node000004_Node000004"><a xlink:title=" ">
<path fill="none" stroke="#63b8ff" d="M84.15,-50.96C80.26,-55.74 71.54,-59 58,-59 36.33,-59 27.02,-50.65 30.06,-41.1"/>
<polygon fill="#63b8ff" stroke="#63b8ff" points="87.6,-51.56 85.94,-41.1 80.71,-50.31 87.6,-51.56"/>
</a>
</g>
</g>
</g>
</svg>
