<?xml version="1.0" encoding="UTF-8" standalone="no"?>
<!DOCTYPE svg PUBLIC "-//W3C//DTD SVG 1.1//EN"
 "http://www.w3.org/Graphics/SVG/1.1/DTD/svg11.dtd">
<!-- Generated by graphviz version 2.43.0 (0)
 -->
<!-- Title: unilink::wrapper::UdpClient::Impl::send Pages: 1 -->
<svg width="703pt" height="60pt"
 viewBox="0.00 0.00 703.00 60.00" xmlns="http://www.w3.org/2000/svg" xmlns:xlink="http://www.w3.org/1999/xlink">
<g id="graph0" class="graph" transform="scale(1 1) rotate(0) translate(4 56)">
<title>unilink::wrapper::UdpClient::Impl::send</title>
<!-- Node1 -->
<g id="Node000001" class="node">
<title>Node1</title>
<g id="a_Node000001"><a xlink:title=" ">
<polygon fill="#999999" stroke="#666666" points="149,-30 0,-30 0,0 149,0 149,-30"/>
<text text-anchor="start" x="8" y="-18" font-family="Helvetica,sans-Serif" font-size="10.00">unilink::wrapper::UdpClient</text>
<text text-anchor="middle" x="74.5" y="-7" font-family="Helvetica,sans-Serif" font-size="10.00">::Impl::send</text>
</a>
</g>
</g>
<!-- Node2 -->
<g id="Node000002" class="node">
<title>Node2</title>
<g id="a_Node000002"><a xlink:href="structunilink_1_1wrapper_1_1UdpClient_1_1Impl.html#a4d5daf16ae0bfec06f9df921f8eab4ee" target="_top" xlink:title=" ">
<polygon fill="white" stroke="#666666" points="334,-52 185,-52 185,-22 334,-22 334,-52"/>
<text text-anchor="start" x="193" y="-40" font-family="Helvetica,sans-Serif" font-size="10.00">unilink::wrapper::UdpClient</text>
<text text-anchor="middle" x="259.5" y="-29" font-family="Helvetica,sans-Serif" font-size="10.00">::Impl::send_blocking</text>
</a>
</g>
</g>
<!-- Node1&#45;&gt;Node2 -->
<g id="edge1_Node000001_Node000002" class="edge">
<title>Node1&#45;&gt;Node2</title>
<g id="a_edge1_Node000001_Node000002"><a xlink:title=" ">
<path fill="none" stroke="#63b8ff" d="M149.14,-23.85C157.57,-24.87 166.2,-25.9 174.74,-26.93"/>
<polygon fill="#63b8ff" stroke="#63b8ff" points="174.36,-30.41 184.71,-28.13 175.2,-23.46 174.36,-30.41"/>
</a>
</g>
</g>
<!-- Node3 -->
<g id="Node000003" class="node">
<title>Node3</title>
<g id="a_Node000003"><a xlink:href="structunilink_1_1wrapper_1_1UdpClient_1_1Impl.html#a65fa1f016acd0ea9084a349f04056bbc" target="_top" xlink:title=" ">
<polygon fill="white" stroke="#666666" points="519,-30 370,-30 370,0 519,0 519,-30"/>
<text text-anchor="start" x="378" y="-18" font-family="Helvetica,sans-Serif" font-size="10.00">unilink::wrapper::UdpClient</text>
<text text-anchor="middle" x="444.5" y="-7" font-family="Helvetica,sans-Serif" font-size="10.00">::Impl::try_send</text>
</a>
</g>
</g>
<!-- Node1&#45;&gt;Node3 -->
<g id="edge4_Node000001_Node000003" class="edge">
<title>Node1&#45;&gt;Node3</title>
<g id="a_edge4_Node000001_Node000003"><a xlink:title=" ">
<path fill="none" stroke="#63b8ff" d="M149.12,-13.47C161.11,-13.27 173.4,-13.11 185,-13 251.22,-12.4 267.78,-12.4 334,-13 342.34,-13.08 351.03,-13.18 359.71,-13.31"/>
<polygon fill="#63b8ff" stroke="#63b8ff" points="359.82,-16.81 369.88,-13.47 359.93,-9.82 359.82,-16.81"/>
</a>
</g>
</g>
<!-- Node2&#45;&gt;Node3 -->
<g id="edge2_Node000002_Node000003" class="edge">
<title>Node2&#45;&gt;Node3</title>
<g id="a_edge2_Node000002_Node000003"><a xlink:title=" ">
<path fill="none" stroke="#63b8ff" d="M334.14,-28.15C342.57,-27.13 351.2,-26.1 359.74,-25.07"/>
<polygon fill="#63b8ff" stroke="#63b8ff" points="360.2,-28.54 369.71,-23.87 359.36,-21.59 360.2,-28.54"/>
</a>
</g>
</g>
<!-- Node4 -->
<g id="Node000004" class="node">
<title>Node4</title>
<g id="a_Node000004"><a xlink:href="namespaceunilink_1_1base_1_1safe__convert.html#a575f6a399b270deff205277e7b9c3b6c" target="_top" xlink:title="Safely obtain a view of std::string as byte array without allocation.">
<polygon fill="white" stroke="#666666" points="695,-30 555,-30 555,0 695,0 695,-30"/>
<text text-anchor="start" x="563" y="-18" font-family="Helvetica,sans-Serif" font-size="10.00">unilink::base::safe</text>
<text text-anchor="middle" x="625" y="-7" font-family="Helvetica,sans-Serif" font-size="10.00">_convert::string_to_bytes</text>
</a>
</g>
</g>
<!-- Node3&#45;&gt;Node4 -->
<g id="edge3_Node000003_Node000004" class="edge">
<title>Node3&#45;&gt;Node4</title>
<g id="a_edge3_Node000003_Node000004"><a xlink:title=" ">
<path fill="none" stroke="#63b8ff" d="M519.13,-15C527.53,-15 536.12,-15 544.59,-15"/>
<polygon fill="#63b8ff" stroke="#63b8ff" points="544.84,-18.5 554.84,-15 544.84,-11.5 544.84,-18.5"/>
</a>
</g>
</g>
</g>
</svg>
