<?xml version="1.0" encoding="UTF-8" standalone="no"?>
<!DOCTYPE svg PUBLIC "-//W3C//DTD SVG 1.1//EN"
 "http://www.w3.org/Graphics/SVG/1.1/DTD/svg11.dtd">
<!-- Generated by graphviz version 2.43.0 (0)
 -->
<!-- Title: unilink/builder/tcp_server_builder.hpp Pages: 1 -->
<svg width="334pt" height="170pt"
 viewBox="0.00 0.00 333.50 170.00" xmlns="http://www.w3.org/2000/svg" xmlns:xlink="http://www.w3.org/1999/xlink">
<g id="graph0" class="graph" transform="scale(1 1) rotate(0) translate(4 166)">
<title>unilink/builder/tcp_server_builder.hpp</title>
<!-- Node1 -->
<g id="Node000001" class="node">
<title>Node1</title>
<g id="a_Node000001"><a xlink:title=" ">
<polygon fill="#999999" stroke="#666666" points="239,-162 127,-162 127,-132 239,-132 239,-162"/>
<text text-anchor="start" x="135" y="-150" font-family="Helvetica,sans-Serif" font-size="10.00">unilink/builder/tcp</text>
<text text-anchor="middle" x="183" y="-139" font-family="Helvetica,sans-Serif" font-size="10.00">_server_builder.hpp</text>
</a>
</g>
</g>
<!-- Node2 -->
<g id="Node000002" class="node">
<title>Node2</title>
<g id="a_Node000002"><a xlink:href="tcp__server__builder_8cc.html" target="_top" xlink:title=" ">
<polygon fill="white" stroke="#666666" points="104,-96 0,-96 0,-66 104,-66 104,-96"/>
<text text-anchor="start" x="8" y="-84" font-family="Helvetica,sans-Serif" font-size="10.00">unilink/builder/tcp</text>
<text text-anchor="middle" x="52" y="-73" font-family="Helvetica,sans-Serif" font-size="10.00">_server_builder.cc</text>
</a>
</g>
</g>
<!-- Node1&#45;&gt;Node2 -->
<g id="edge1_Node000001_Node000002" class="edge">
<title>Node1&#45;&gt;Node2</title>
<g id="a_edge1_Node000001_Node000002"><a xlink:title=" ">
<path fill="none" stroke="#63b8ff" d="M145.16,-127.51C124.61,-117.47 99.61,-105.26 80.68,-96.01"/>
<polygon fill="#63b8ff" stroke="#63b8ff" points="143.73,-130.71 154.25,-131.95 146.8,-124.42 143.73,-130.71"/>
</a>
</g>
</g>
<!-- Node3 -->
<g id="Node000003" class="node">
<title>Node3</title>
<g id="a_Node000003"><a xlink:href="unified__builder_8hpp.html" target="_top" xlink:title=" ">
<polygon fill="white" stroke="#666666" points="244,-96 122,-96 122,-66 244,-66 244,-96"/>
<text text-anchor="start" x="130" y="-84" font-family="Helvetica,sans-Serif" font-size="10.00">unilink/builder/unified</text>
<text text-anchor="middle" x="183" y="-73" font-family="Helvetica,sans-Serif" font-size="10.00">_builder.hpp</text>
</a>
</g>
</g>
<!-- Node1&#45;&gt;Node3 -->
<g id="edge2_Node000001_Node000003" class="edge">
<title>Node1&#45;&gt;Node3</title>
<g id="a_edge2_Node000001_Node000003"><a xlink:title=" ">
<path fill="none" stroke="#63b8ff" d="M183,-121.54C183,-112.96 183,-103.61 183,-96.16"/>
<polygon fill="#63b8ff" stroke="#63b8ff" points="179.5,-121.8 183,-131.8 186.5,-121.8 179.5,-121.8"/>
</a>
</g>
</g>
<!-- Node5 -->
<g id="Node000005" class="node">
<title>Node5</title>
<g id="a_Node000005"><a xlink:href="unilink_8hpp.html" target="_top" xlink:title=" ">
<polygon fill="white" stroke="#666666" points="325.5,-24.5 218.5,-24.5 218.5,-5.5 325.5,-5.5 325.5,-24.5"/>
<text text-anchor="middle" x="272" y="-12.5" font-family="Helvetica,sans-Serif" font-size="10.00">unilink/unilink.hpp</text>
</a>
</g>
</g>
<!-- Node1&#45;&gt;Node5 -->
<g id="edge5_Node000001_Node000005" class="edge">
<title>Node1&#45;&gt;Node5</title>
<g id="a_edge5_Node000001_Node000005"><a xlink:title=" ">
<path fill="none" stroke="#63b8ff" d="M220.39,-126.49C232.42,-118.52 244.75,-108.27 253,-96 268.13,-73.49 271.27,-40.33 271.88,-24.72"/>
<polygon fill="#63b8ff" stroke="#63b8ff" points="218.38,-123.62 211.75,-131.88 222.09,-129.56 218.38,-123.62"/>
</a>
</g>
</g>
<!-- Node4 -->
<g id="Node000004" class="node">
<title>Node4</title>
<g id="a_Node000004"><a xlink:href="unified__builder_8cc.html" target="_top" xlink:title=" ">
<polygon fill="white" stroke="#666666" points="200,-30 78,-30 78,0 200,0 200,-30"/>
<text text-anchor="start" x="86" y="-18" font-family="Helvetica,sans-Serif" font-size="10.00">unilink/builder/unified</text>
<text text-anchor="middle" x="139" y="-7" font-family="Helvetica,sans-Serif" font-size="10.00">_builder.cc</text>
</a>
</g>
</g>
<!-- Node3&#45;&gt;Node4 -->
<g id="edge3_Node000003_Node000004" class="edge">
<title>Node3&#45;&gt;Node4</title>
<g id="a_edge3_Node000003_Node000004"><a xlink:title=" ">
<path fill="none" stroke="#63b8ff" d="M167.55,-57.53C161.29,-48.43 154.26,-38.19 148.74,-30.16"/>
<polygon fill="#63b8ff" stroke="#63b8ff" points="164.69,-59.54 173.23,-65.8 170.45,-55.57 164.69,-59.54"/>
</a>
</g>
</g>
<!-- Node3&#45;&gt;Node5 -->
<g id="edge4_Node000003_Node000005" class="edge">
<title>Node3&#45;&gt;Node5</title>
<g id="a_edge4_Node000003_Node000005"><a xlink:title=" ">
<path fill="none" stroke="#63b8ff" d="M210.99,-59.87C227.46,-48.03 247.46,-33.65 259.96,-24.66"/>
<polygon fill="#63b8ff" stroke="#63b8ff" points="208.83,-57.12 202.75,-65.8 212.91,-62.8 208.83,-57.12"/>
</a>
</g>
</g>
</g>
</svg>
