<?xml version="1.0" encoding="UTF-8" standalone="no"?>
<!DOCTYPE svg PUBLIC "-//W3C//DTD SVG 1.1//EN"
 "http://www.w3.org/Graphics/SVG/1.1/DTD/svg11.dtd">
<!-- Generated by graphviz version 2.43.0 (0)
 -->
<!-- Title: unilink/transport/tcp_client/detail/reconnect_decider.hpp Pages: 1 -->
<svg width="272pt" height="126pt"
 viewBox="0.00 0.00 272.00 126.00" xmlns="http://www.w3.org/2000/svg" xmlns:xlink="http://www.w3.org/1999/xlink">
<g id="graph0" class="graph" transform="scale(1 1) rotate(0) translate(4 122)">
<title>unilink/transport/tcp_client/detail/reconnect_decider.hpp</title>
<!-- Node1 -->
<g id="Node000001" class="node">
<title>Node1</title>
<g id="a_Node000001"><a xlink:title=" ">
<polygon fill="#999999" stroke="#666666" points="201,-118 70,-118 70,-77 201,-77 201,-118"/>
<text text-anchor="start" x="78" y="-106" font-family="Helvetica,sans-Serif" font-size="10.00">unilink/transport/tcp</text>
<text text-anchor="start" x="78" y="-95" font-family="Helvetica,sans-Serif" font-size="10.00">_client/detail/reconnect</text>
<text text-anchor="middle" x="135.5" y="-84" font-family="Helvetica,sans-Serif" font-size="10.00">_decider.hpp</text>
</a>
</g>
</g>
<!-- Node2 -->
<g id="Node000002" class="node">
<title>Node2</title>
<g id="a_Node000002"><a xlink:href="reconnect__logic_8hpp.html" target="_top" xlink:title=" ">
<polygon fill="white" stroke="#666666" points="131,-41 0,-41 0,0 131,0 131,-41"/>
<text text-anchor="start" x="8" y="-29" font-family="Helvetica,sans-Serif" font-size="10.00">unilink/transport/tcp</text>
<text text-anchor="start" x="8" y="-18" font-family="Helvetica,sans-Serif" font-size="10.00">_client/detail/reconnect</text>
<text text-anchor="middle" x="65.5" y="-7" font-family="Helvetica,sans-Serif" font-size="10.00">_logic.hpp</text>
</a>
</g>
</g>
<!-- Node1&#45;&gt;Node2 -->
<g id="edge1_Node000001_Node000002" class="edge">
<title>Node1&#45;&gt;Node2</title>
<g id="a_edge1_Node000001_Node000002"><a xlink:title=" ">
<path fill="none" stroke="#63b8ff" d="M110.05,-69.23C101.35,-59.91 91.79,-49.67 83.77,-41.07"/>
<polygon fill="#63b8ff" stroke="#63b8ff" points="107.73,-71.87 117.11,-76.79 112.84,-67.1 107.73,-71.87"/>
</a>
</g>
</g>
<!-- Node3 -->
<g id="Node000003" class="node">
<title>Node3</title>
<g id="a_Node000003"><a xlink:href="transport_2tcp__client_2tcp__client_8cc.html" target="_top" xlink:title=" ">
<polygon fill="white" stroke="#666666" points="264,-35.5 149,-35.5 149,-5.5 264,-5.5 264,-35.5"/>
<text text-anchor="start" x="157" y="-23.5" font-family="Helvetica,sans-Serif" font-size="10.00">unilink/transport/tcp</text>
<text text-anchor="middle" x="206.5" y="-12.5" font-family="Helvetica,sans-Serif" font-size="10.00">_client/tcp_client.cc</text>
</a>
</g>
</g>
<!-- Node1&#45;&gt;Node3 -->
<g id="edge2_Node000001_Node000003" class="edge">
<title>Node1&#45;&gt;Node3</title>
<g id="a_edge2_Node000001_Node000003"><a xlink:title=" ">
<path fill="none" stroke="#63b8ff" d="M161.3,-69.24C172,-57.94 183.97,-45.3 192.9,-35.86"/>
<polygon fill="#63b8ff" stroke="#63b8ff" points="158.49,-67.13 154.15,-76.79 163.57,-71.94 158.49,-67.13"/>
</a>
</g>
</g>
</g>
</svg>
