<?xml version="1.0" encoding="UTF-8" standalone="no"?>
<!DOCTYPE svg PUBLIC "-//W3C//DTD SVG 1.1//EN"
 "http://www.w3.org/Graphics/SVG/1.1/DTD/svg11.dtd">
<!-- Generated by graphviz version 2.43.0 (0)
 -->
<!-- Title: unilink/builder/tcp_server_builder.cc Pages: 1 -->
<!--zoomable 430 -->
<svg id="main" version="1.1" xmlns="http://www.w3.org/2000/svg" xmlns:xlink="http://www.w3.org/1999/xlink" xml:space="preserve" onload="init(evt)">
<style type="text/css"><![CDATA[
.edge:hover path { stroke: red; }
.edge:hover polygon { stroke: red; fill: red; }
]]></style>
<script type="text/javascript"><![CDATA[
var edges = document.getElementsByTagName('g');
if (edges && edges.length) {
  for (var i=0;i<edges.length;i++) {
    if (edges[i].id.substr(0,4)=='edge') {
      edges[i].setAttribute('class','edge');
    }
  }
}
]]></script>
        <defs>
                <circle id="rim" cx="0" cy="0" r="7"/>
                <circle id="rim2" cx="0" cy="0" r="3.5"/>
                <g id="zoomPlus">
                        <use xlink:href="#rim" fill="#404040">
                                <set attributeName="fill" to="#808080" begin="zoomplus.mouseover" end="zoomplus.mouseout"/>
                        </use>
                        <path d="M-4,0h8M0,-4v8" fill="none" stroke="white" stroke-width="1.5" pointer-events="none"/>
                </g>
                <g id="zoomMin">
                        <use xlink:href="#rim" fill="#404040">
                                <set attributeName="fill" to="#808080" begin="zoomminus.mouseover" end="zoomminus.mouseout"/>
                        </use>
                        <path d="M-4,0h8" fill="none" stroke="white" stroke-width="1.5" pointer-events="none"/>
                </g>
                <g id="dirArrow">
                        <path fill="none" stroke="white" stroke-width="1.5" d="M0,-3.0v7 M-2.5,-0.5L0,-3.0L2.5,-0.5"/>
                </g>
               <g id="resetDef">
                       <use xlink:href="#rim2" fill="#404040">
                               <set attributeName="fill" to="#808080" begin="reset.mouseover" end="reset.mouseout"/>
                       </use>
               </g>
        </defs>

<script type="text/javascript">
var viewWidth = 1900;
var viewHeight = 430;
var sectionId = 'dynsection-0';
</script>
<script xlink:href="svgpan.js"/>
<svg id="graph" class="graph">
<g id="viewport">
<title>unilink/builder/tcp_server_builder.cc</title>
<polygon fill="white" stroke="transparent" points="-4,4 -4,-426 1896,-426 1896,4 -4,4"/>
<!-- Node1 -->
<g id="node1" class="node">
<title>Node1</title>
<g id="a_node1"><a xlink:title=" ">
<polygon fill="#bfbfbf" stroke="black" points="1616,-391.5 1616,-421.5 1720,-421.5 1720,-391.5 1616,-391.5"/>
<text text-anchor="start" x="1624" y="-409.5" font-family="Helvetica,sans-Serif" font-size="10.00">unilink/builder/tcp</text>
<text text-anchor="middle" x="1668" y="-398.5" font-family="Helvetica,sans-Serif" font-size="10.00">_server_builder.cc</text>
</a>
</g>
</g>
<!-- Node2 -->
<g id="node2" class="node">
<title>Node2</title>
<g id="a_node2"><a xlink:href="tcp__server__builder_8hpp.html" target="_top" xlink:title=" ">
<polygon fill="white" stroke="black" points="548,-324.5 548,-354.5 660,-354.5 660,-324.5 548,-324.5"/>
<text text-anchor="start" x="556" y="-342.5" font-family="Helvetica,sans-Serif" font-size="10.00">unilink/builder/tcp</text>
<text text-anchor="middle" x="604" y="-331.5" font-family="Helvetica,sans-Serif" font-size="10.00">_server_builder.hpp</text>
</a>
</g>
</g>
<!-- Node1&#45;&gt;Node2 -->
<g id="edge1" class="edge">
<title>Node1&#45;&gt;Node2</title>
<path fill="none" stroke="midnightblue" d="M1615.96,-402.32C1439.81,-391.56 866.07,-356.51 670.22,-344.55"/>
<polygon fill="midnightblue" stroke="midnightblue" points="670.27,-341.04 660.07,-343.93 669.84,-348.03 670.27,-341.04"/>
</g>
<!-- Node14 -->
<g id="node14" class="node">
<title>Node14</title>
<g id="a_node14"><a xlink:title=" ">
<polygon fill="white" stroke="#bfbfbf" points="1821.5,-0.5 1821.5,-19.5 1886.5,-19.5 1886.5,-0.5 1821.5,-0.5"/>
<text text-anchor="middle" x="1854" y="-7.5" font-family="Helvetica,sans-Serif" font-size="10.00">stdexcept</text>
</a>
</g>
</g>
<!-- Node1&#45;&gt;Node14 -->
<g id="edge58" class="edge">
<title>Node1&#45;&gt;Node14</title>
<path fill="none" stroke="midnightblue" d="M1720.24,-398.11C1786.43,-385.45 1892,-352.83 1892,-273.5 1892,-273.5 1892,-273.5 1892,-137.5 1892,-97.35 1874.22,-52.95 1862.99,-28.89"/>
<polygon fill="midnightblue" stroke="midnightblue" points="1866.01,-27.1 1858.51,-19.63 1859.71,-30.15 1866.01,-27.1"/>
</g>
<!-- Node24 -->
<g id="node24" class="node">
<title>Node24</title>
<g id="a_node24"><a xlink:href="auto__initializer_8hpp.html" target="_top" xlink:title=" ">
<polygon fill="white" stroke="black" points="1514.5,-190.5 1514.5,-220.5 1625.5,-220.5 1625.5,-190.5 1514.5,-190.5"/>
<text text-anchor="start" x="1522.5" y="-208.5" font-family="Helvetica,sans-Serif" font-size="10.00">unilink/builder/auto</text>
<text text-anchor="middle" x="1570" y="-197.5" font-family="Helvetica,sans-Serif" font-size="10.00">_initializer.hpp</text>
</a>
</g>
</g>
<!-- Node1&#45;&gt;Node24 -->
<g id="edge59" class="edge">
<title>Node1&#45;&gt;Node24</title>
<path fill="none" stroke="midnightblue" d="M1660.95,-391.19C1644.21,-357.2 1601.94,-271.35 1581.46,-229.78"/>
<polygon fill="midnightblue" stroke="midnightblue" points="1584.54,-228.11 1576.98,-220.68 1578.26,-231.2 1584.54,-228.11"/>
</g>
<!-- Node26 -->
<g id="node26" class="node">
<title>Node26</title>
<g id="a_node26"><a xlink:href="io__context__manager_8hpp.html" target="_top" xlink:title=" ">
<polygon fill="white" stroke="black" points="1598,-123.5 1598,-153.5 1738,-153.5 1738,-123.5 1598,-123.5"/>
<text text-anchor="start" x="1606" y="-141.5" font-family="Helvetica,sans-Serif" font-size="10.00">unilink/concurrency</text>
<text text-anchor="middle" x="1668" y="-130.5" font-family="Helvetica,sans-Serif" font-size="10.00">/io_context_manager.hpp</text>
</a>
</g>
</g>
<!-- Node1&#45;&gt;Node26 -->
<g id="edge67" class="edge">
<title>Node1&#45;&gt;Node26</title>
<path fill="none" stroke="midnightblue" d="M1668,-391.2C1668,-347.89 1668,-217.82 1668,-163.62"/>
<polygon fill="midnightblue" stroke="midnightblue" points="1671.5,-163.55 1668,-153.55 1664.5,-163.55 1671.5,-163.55"/>
</g>
<!-- Node29 -->
<g id="node29" class="node">
<title>Node29</title>
<g id="a_node29"><a xlink:href="exceptions_8hpp.html" target="_top" xlink:title=" ">
<polygon fill="white" stroke="black" points="1756,-123.5 1756,-153.5 1864,-153.5 1864,-123.5 1756,-123.5"/>
<text text-anchor="start" x="1764" y="-141.5" font-family="Helvetica,sans-Serif" font-size="10.00">unilink/diagnostics</text>
<text text-anchor="middle" x="1810" y="-130.5" font-family="Helvetica,sans-Serif" font-size="10.00">/exceptions.hpp</text>
</a>
</g>
</g>
<!-- Node1&#45;&gt;Node29 -->
<g id="edge68" class="edge">
<title>Node1&#45;&gt;Node29</title>
<path fill="none" stroke="midnightblue" d="M1675.63,-391.2C1698.9,-347.62 1769.06,-216.18 1797.66,-162.61"/>
<polygon fill="midnightblue" stroke="midnightblue" points="1800.88,-164.02 1802.5,-153.55 1794.7,-160.72 1800.88,-164.02"/>
</g>
<!-- Node3 -->
<g id="node3" class="node">
<title>Node3</title>
<g id="a_node3"><a xlink:title=" ">
<polygon fill="white" stroke="#bfbfbf" points="0,-263 0,-282 50,-282 50,-263 0,-263"/>
<text text-anchor="middle" x="25" y="-270" font-family="Helvetica,sans-Serif" font-size="10.00">chrono</text>
</a>
</g>
</g>
<!-- Node2&#45;&gt;Node3 -->
<g id="edge2" class="edge">
<title>Node2&#45;&gt;Node3</title>
<path fill="none" stroke="midnightblue" d="M547.65,-338.07C448.58,-336.25 237.26,-327.58 64,-288 60.93,-287.3 57.77,-286.42 54.65,-285.43"/>
<polygon fill="midnightblue" stroke="midnightblue" points="55.53,-282.03 44.93,-282.06 53.23,-288.64 55.53,-282.03"/>
</g>
<!-- Node4 -->
<g id="node4" class="node">
<title>Node4</title>
<g id="a_node4"><a xlink:title=" ">
<polygon fill="white" stroke="#bfbfbf" points="188,-0.5 188,-19.5 238,-19.5 238,-0.5 188,-0.5"/>
<text text-anchor="middle" x="213" y="-7.5" font-family="Helvetica,sans-Serif" font-size="10.00">cstdint</text>
</a>
</g>
</g>
<!-- Node2&#45;&gt;Node4 -->
<g id="edge3" class="edge">
<title>Node2&#45;&gt;Node4</title>
<path fill="none" stroke="midnightblue" d="M547.71,-336.26C412.02,-329.34 78,-302.53 78,-206.5 78,-206.5 78,-206.5 78,-137.5 78,-80.97 141.8,-42.38 181.68,-23.78"/>
<polygon fill="midnightblue" stroke="midnightblue" points="183.32,-26.88 191.01,-19.59 180.45,-20.5 183.32,-26.88"/>
</g>
<!-- Node5 -->
<g id="node5" class="node">
<title>Node5</title>
<g id="a_node5"><a xlink:title=" ">
<polygon fill="white" stroke="#bfbfbf" points="197.5,-62 197.5,-81 262.5,-81 262.5,-62 197.5,-62"/>
<text text-anchor="middle" x="230" y="-69" font-family="Helvetica,sans-Serif" font-size="10.00">functional</text>
</a>
</g>
</g>
<!-- Node2&#45;&gt;Node5 -->
<g id="edge4" class="edge">
<title>Node2&#45;&gt;Node5</title>
<path fill="none" stroke="midnightblue" d="M547.7,-334.02C472.37,-325.11 338.99,-298.71 259,-221 223.59,-186.6 224.54,-122.68 227.55,-91.12"/>
<polygon fill="midnightblue" stroke="midnightblue" points="231.04,-91.4 228.69,-81.07 224.09,-90.61 231.04,-91.4"/>
</g>
<!-- Node6 -->
<g id="node6" class="node">
<title>Node6</title>
<g id="a_node6"><a xlink:href="visibility_8hpp.html" target="_top" xlink:title=" ">
<polygon fill="white" stroke="black" points="1320,-62 1320,-81 1460,-81 1460,-62 1320,-62"/>
<text text-anchor="middle" x="1390" y="-69" font-family="Helvetica,sans-Serif" font-size="10.00">unilink/base/visibility.hpp</text>
</a>
</g>
</g>
<!-- Node2&#45;&gt;Node6 -->
<g id="edge5" class="edge">
<title>Node2&#45;&gt;Node6</title>
<path fill="none" stroke="midnightblue" d="M660.02,-337.94C820.71,-335.88 1275.11,-326.66 1329,-288 1392.81,-242.23 1393.9,-134.56 1391.52,-91.14"/>
<polygon fill="midnightblue" stroke="midnightblue" points="1395.01,-90.87 1390.84,-81.13 1388.03,-91.34 1395.01,-90.87"/>
</g>
<!-- Node7 -->
<g id="node7" class="node">
<title>Node7</title>
<g id="a_node7"><a xlink:href="ibuilder_8hpp.html" target="_top" xlink:title=" ">
<polygon fill="white" stroke="black" points="531,-263 531,-282 677,-282 677,-263 531,-263"/>
<text text-anchor="middle" x="604" y="-270" font-family="Helvetica,sans-Serif" font-size="10.00">unilink/builder/ibuilder.hpp</text>
</a>
</g>
</g>
<!-- Node2&#45;&gt;Node7 -->
<g id="edge6" class="edge">
<title>Node2&#45;&gt;Node7</title>
<path fill="none" stroke="midnightblue" d="M604,-324.4C604,-315.06 604,-302.71 604,-292.52"/>
<polygon fill="midnightblue" stroke="midnightblue" points="607.5,-292.19 604,-282.19 600.5,-292.19 607.5,-292.19"/>
</g>
<!-- Node21 -->
<g id="node21" class="node">
<title>Node21</title>
<g id="a_node21"><a xlink:href="wrapper_2tcp__server_2tcp__server_8hpp.html" target="_top" xlink:title=" ">
<polygon fill="white" stroke="black" points="1193.5,-257.5 1193.5,-287.5 1320.5,-287.5 1320.5,-257.5 1193.5,-257.5"/>
<text text-anchor="start" x="1201.5" y="-275.5" font-family="Helvetica,sans-Serif" font-size="10.00">unilink/wrapper/tcp</text>
<text text-anchor="middle" x="1257" y="-264.5" font-family="Helvetica,sans-Serif" font-size="10.00">_server/tcp_server.hpp</text>
</a>
</g>
</g>
<!-- Node2&#45;&gt;Node21 -->
<g id="edge41" class="edge">
<title>Node2&#45;&gt;Node21</title>
<path fill="none" stroke="midnightblue" d="M660.24,-332.9C778.13,-321.17 1051.11,-293.99 1183.02,-280.86"/>
<polygon fill="midnightblue" stroke="midnightblue" points="1183.43,-284.34 1193.03,-279.87 1182.73,-277.38 1183.43,-284.34"/>
</g>
<!-- Node7&#45;&gt;Node5 -->
<g id="edge7" class="edge">
<title>Node7&#45;&gt;Node5</title>
<path fill="none" stroke="midnightblue" d="M530.89,-268.11C449.44,-262.92 324.39,-250.33 288,-221 247.51,-188.36 235.21,-123.62 231.53,-91.49"/>
<polygon fill="midnightblue" stroke="midnightblue" points="234.99,-90.87 230.53,-81.25 228.02,-91.55 234.99,-90.87"/>
</g>
<!-- Node7&#45;&gt;Node6 -->
<g id="edge12" class="edge">
<title>Node7&#45;&gt;Node6</title>
<path fill="none" stroke="midnightblue" d="M677.04,-269.83C810.76,-266 1089.52,-254.18 1180,-221 1261.93,-190.95 1341.16,-120.24 1374.06,-88.46"/>
<polygon fill="midnightblue" stroke="midnightblue" points="1376.71,-90.76 1381.4,-81.26 1371.81,-85.76 1376.71,-90.76"/>
</g>
<!-- Node8 -->
<g id="node8" class="node">
<title>Node8</title>
<g id="a_node8"><a xlink:title=" ">
<polygon fill="white" stroke="#bfbfbf" points="1244,-62 1244,-81 1302,-81 1302,-62 1244,-62"/>
<text text-anchor="middle" x="1273" y="-69" font-family="Helvetica,sans-Serif" font-size="10.00">memory</text>
</a>
</g>
</g>
<!-- Node7&#45;&gt;Node8 -->
<g id="edge8" class="edge">
<title>Node7&#45;&gt;Node8</title>
<path fill="none" stroke="midnightblue" d="M677.16,-270.21C804.51,-267.06 1061.15,-256.38 1143,-221 1203.71,-194.76 1246.78,-123.66 1264.29,-90.27"/>
<polygon fill="midnightblue" stroke="midnightblue" points="1267.49,-91.71 1268.9,-81.21 1261.25,-88.54 1267.49,-91.71"/>
</g>
<!-- Node9 -->
<g id="node9" class="node">
<title>Node9</title>
<g id="a_node9"><a xlink:title=" ">
<polygon fill="white" stroke="#bfbfbf" points="777,-0.5 777,-19.5 821,-19.5 821,-0.5 777,-0.5"/>
<text text-anchor="middle" x="799" y="-7.5" font-family="Helvetica,sans-Serif" font-size="10.00">string</text>
</a>
</g>
</g>
<!-- Node7&#45;&gt;Node9 -->
<g id="edge9" class="edge">
<title>Node7&#45;&gt;Node9</title>
<path fill="none" stroke="midnightblue" d="M618.29,-262.87C632.11,-253.91 652.83,-238.72 666,-221 713.31,-157.34 684.24,-117.77 734,-56 744.39,-43.1 759.43,-32.36 772.43,-24.61"/>
<polygon fill="midnightblue" stroke="midnightblue" points="774.46,-27.48 781.44,-19.51 771.01,-21.39 774.46,-27.48"/>
</g>
<!-- Node10 -->
<g id="node10" class="node">
<title>Node10</title>
<g id="a_node10"><a xlink:title=" ">
<polygon fill="white" stroke="#bfbfbf" points="945.5,-62 945.5,-81 1018.5,-81 1018.5,-62 945.5,-62"/>
<text text-anchor="middle" x="982" y="-69" font-family="Helvetica,sans-Serif" font-size="10.00">string_view</text>
</a>
</g>
</g>
<!-- Node7&#45;&gt;Node10 -->
<g id="edge10" class="edge">
<title>Node7&#45;&gt;Node10</title>
<path fill="none" stroke="midnightblue" d="M651.26,-262.97C717.25,-249.19 838.29,-216.99 922,-154 944.74,-136.89 962.73,-108.8 972.87,-90.47"/>
<polygon fill="midnightblue" stroke="midnightblue" points="976.07,-91.9 977.68,-81.43 969.89,-88.62 976.07,-91.9"/>
</g>
<!-- Node11 -->
<g id="node11" class="node">
<title>Node11</title>
<g id="a_node11"><a xlink:title=" ">
<polygon fill="white" stroke="#bfbfbf" points="503.5,-62 503.5,-81 550.5,-81 550.5,-62 503.5,-62"/>
<text text-anchor="middle" x="527" y="-69" font-family="Helvetica,sans-Serif" font-size="10.00">vector</text>
</a>
</g>
</g>
<!-- Node7&#45;&gt;Node11 -->
<g id="edge11" class="edge">
<title>Node7&#45;&gt;Node11</title>
<path fill="none" stroke="midnightblue" d="M530.78,-268.28C458.45,-263.37 355.11,-251.16 330,-221 302.13,-187.53 302.7,-156.94 330,-123 376.77,-64.85 423.05,-110.12 494,-87 495.87,-86.39 497.79,-85.71 499.7,-84.99"/>
<polygon fill="midnightblue" stroke="midnightblue" points="501.17,-88.17 509.1,-81.14 498.52,-81.69 501.17,-88.17"/>
</g>
<!-- Node12 -->
<g id="node12" class="node">
<title>Node12</title>
<g id="a_node12"><a xlink:href="iframer_8hpp.html" target="_top" xlink:title=" ">
<polygon fill="white" stroke="black" points="410.5,-129 410.5,-148 555.5,-148 555.5,-129 410.5,-129"/>
<text text-anchor="middle" x="483" y="-136" font-family="Helvetica,sans-Serif" font-size="10.00">unilink/framer/iframer.hpp</text>
</a>
</g>
</g>
<!-- Node7&#45;&gt;Node12 -->
<g id="edge13" class="edge">
<title>Node7&#45;&gt;Node12</title>
<path fill="none" stroke="midnightblue" d="M591.06,-262.75C577.68,-253.35 556.59,-237.51 541,-221 522.06,-200.95 504.3,-174.4 493.54,-157.14"/>
<polygon fill="midnightblue" stroke="midnightblue" points="496.26,-154.88 488.06,-148.17 490.29,-158.53 496.26,-154.88"/>
</g>
<!-- Node13 -->
<g id="node13" class="node">
<title>Node13</title>
<g id="a_node13"><a xlink:href="safe__span_8hpp.html" target="_top" xlink:title=" ">
<polygon fill="white" stroke="black" points="367,-56.5 367,-86.5 485,-86.5 485,-56.5 367,-56.5"/>
<text text-anchor="start" x="375" y="-74.5" font-family="Helvetica,sans-Serif" font-size="10.00">unilink/memory/safe</text>
<text text-anchor="middle" x="426" y="-63.5" font-family="Helvetica,sans-Serif" font-size="10.00">_span.hpp</text>
</a>
</g>
</g>
<!-- Node7&#45;&gt;Node13 -->
<g id="edge32" class="edge">
<title>Node7&#45;&gt;Node13</title>
<path fill="none" stroke="midnightblue" d="M530.92,-269.41C452.94,-265.45 336.85,-254.02 309,-221 280.92,-187.7 285.07,-159.39 309,-123 320.18,-106 338.42,-94.7 357.22,-87.19"/>
<polygon fill="midnightblue" stroke="midnightblue" points="358.57,-90.42 366.76,-83.7 356.16,-83.85 358.57,-90.42"/>
</g>
<!-- Node16 -->
<g id="node16" class="node">
<title>Node16</title>
<g id="a_node16"><a xlink:href="line__framer_8hpp.html" target="_top" xlink:title=" ">
<polygon fill="white" stroke="black" points="550.5,-190.5 550.5,-220.5 657.5,-220.5 657.5,-190.5 550.5,-190.5"/>
<text text-anchor="start" x="558.5" y="-208.5" font-family="Helvetica,sans-Serif" font-size="10.00">unilink/framer/line</text>
<text text-anchor="middle" x="604" y="-197.5" font-family="Helvetica,sans-Serif" font-size="10.00">_framer.hpp</text>
</a>
</g>
</g>
<!-- Node7&#45;&gt;Node16 -->
<g id="edge22" class="edge">
<title>Node7&#45;&gt;Node16</title>
<path fill="none" stroke="midnightblue" d="M604,-262.73C604,-254.54 604,-241.92 604,-230.71"/>
<polygon fill="midnightblue" stroke="midnightblue" points="607.5,-230.59 604,-220.59 600.5,-230.59 607.5,-230.59"/>
</g>
<!-- Node17 -->
<g id="node17" class="node">
<title>Node17</title>
<g id="a_node17"><a xlink:href="packet__framer_8hpp.html" target="_top" xlink:title=" ">
<polygon fill="white" stroke="black" points="372.5,-190.5 372.5,-220.5 493.5,-220.5 493.5,-190.5 372.5,-190.5"/>
<text text-anchor="start" x="380.5" y="-208.5" font-family="Helvetica,sans-Serif" font-size="10.00">unilink/framer/packet</text>
<text text-anchor="middle" x="433" y="-197.5" font-family="Helvetica,sans-Serif" font-size="10.00">_framer.hpp</text>
</a>
</g>
</g>
<!-- Node7&#45;&gt;Node17 -->
<g id="edge28" class="edge">
<title>Node7&#45;&gt;Node17</title>
<path fill="none" stroke="midnightblue" d="M581.29,-262.87C555.41,-253.03 512.42,-236.69 479.37,-224.13"/>
<polygon fill="midnightblue" stroke="midnightblue" points="480.5,-220.81 469.9,-220.53 478.01,-227.35 480.5,-220.81"/>
</g>
<!-- Node18 -->
<g id="node18" class="node">
<title>Node18</title>
<g id="a_node18"><a xlink:href="context_8hpp.html" target="_top" xlink:title=" ">
<polygon fill="white" stroke="black" points="726.5,-129 726.5,-148 879.5,-148 879.5,-129 726.5,-129"/>
<text text-anchor="middle" x="803" y="-136" font-family="Helvetica,sans-Serif" font-size="10.00">unilink/wrapper/context.hpp</text>
</a>
</g>
</g>
<!-- Node7&#45;&gt;Node18 -->
<g id="edge33" class="edge">
<title>Node7&#45;&gt;Node18</title>
<path fill="none" stroke="midnightblue" d="M622.62,-262.98C642.39,-253.64 674.27,-237.74 700,-221 731.94,-200.22 766.08,-171.83 785.93,-154.63"/>
<polygon fill="midnightblue" stroke="midnightblue" points="788.29,-157.22 793.51,-148 783.68,-151.95 788.29,-157.22"/>
</g>
<!-- Node12&#45;&gt;Node5 -->
<g id="edge14" class="edge">
<title>Node12&#45;&gt;Node5</title>
<path fill="none" stroke="midnightblue" d="M449.66,-128.94C404.1,-117.23 322.34,-96.22 272.44,-83.4"/>
<polygon fill="midnightblue" stroke="midnightblue" points="273.16,-79.98 262.61,-80.88 271.42,-86.76 273.16,-79.98"/>
</g>
<!-- Node12&#45;&gt;Node6 -->
<g id="edge17" class="edge">
<title>Node12&#45;&gt;Node6</title>
<path fill="none" stroke="midnightblue" d="M555.73,-132.97C601.92,-130.1 662.97,-126.31 717,-123 980.99,-106.82 1048.45,-118.93 1311,-87 1320.05,-85.9 1329.62,-84.42 1338.87,-82.82"/>
<polygon fill="midnightblue" stroke="midnightblue" points="1339.51,-86.26 1348.73,-81.05 1338.27,-79.37 1339.51,-86.26"/>
</g>
<!-- Node12&#45;&gt;Node8 -->
<g id="edge15" class="edge">
<title>Node12&#45;&gt;Node8</title>
<path fill="none" stroke="midnightblue" d="M555.55,-131.53C718.26,-118.14 1107.85,-86.09 1233.33,-75.76"/>
<polygon fill="midnightblue" stroke="midnightblue" points="1233.94,-79.23 1243.62,-74.92 1233.36,-72.25 1233.94,-79.23"/>
</g>
<!-- Node12&#45;&gt;Node11 -->
<g id="edge16" class="edge">
<title>Node12&#45;&gt;Node11</title>
<path fill="none" stroke="midnightblue" d="M488.93,-128.73C495.73,-118.7 507.02,-102.01 515.55,-89.42"/>
<polygon fill="midnightblue" stroke="midnightblue" points="518.45,-91.37 521.16,-81.13 512.66,-87.45 518.45,-91.37"/>
</g>
<!-- Node12&#45;&gt;Node13 -->
<g id="edge18" class="edge">
<title>Node12&#45;&gt;Node13</title>
<path fill="none" stroke="midnightblue" d="M475.31,-128.73C467.61,-119.95 455.45,-106.08 445.13,-94.31"/>
<polygon fill="midnightblue" stroke="midnightblue" points="447.58,-91.8 438.35,-86.59 442.32,-96.42 447.58,-91.8"/>
</g>
<!-- Node13&#45;&gt;Node4 -->
<g id="edge19" class="edge">
<title>Node13&#45;&gt;Node4</title>
<path fill="none" stroke="midnightblue" d="M375.79,-56.47C336.39,-45.47 282.56,-30.43 247.78,-20.72"/>
<polygon fill="midnightblue" stroke="midnightblue" points="248.65,-17.32 238.07,-18 246.76,-24.07 248.65,-17.32"/>
</g>
<!-- Node13&#45;&gt;Node14 -->
<g id="edge20" class="edge">
<title>Node13&#45;&gt;Node14</title>
<path fill="none" stroke="midnightblue" d="M485.23,-57.22C488.19,-56.76 491.12,-56.35 494,-56 758.07,-23.73 1610.12,-13.41 1811.2,-11.4"/>
<polygon fill="midnightblue" stroke="midnightblue" points="1811.39,-14.89 1821.36,-11.3 1811.33,-7.89 1811.39,-14.89"/>
</g>
<!-- Node15 -->
<g id="node15" class="node">
<title>Node15</title>
<g id="a_node15"><a xlink:title=" ">
<polygon fill="white" stroke="#bfbfbf" points="391.5,-0.5 391.5,-19.5 460.5,-19.5 460.5,-0.5 391.5,-0.5"/>
<text text-anchor="middle" x="426" y="-7.5" font-family="Helvetica,sans-Serif" font-size="10.00">type_traits</text>
</a>
</g>
</g>
<!-- Node13&#45;&gt;Node15 -->
<g id="edge21" class="edge">
<title>Node13&#45;&gt;Node15</title>
<path fill="none" stroke="midnightblue" d="M426,-56.4C426,-48.47 426,-38.46 426,-29.86"/>
<polygon fill="midnightblue" stroke="midnightblue" points="429.5,-29.66 426,-19.66 422.5,-29.66 429.5,-29.66"/>
</g>
<!-- Node16&#45;&gt;Node6 -->
<g id="edge26" class="edge">
<title>Node16&#45;&gt;Node6</title>
<path fill="none" stroke="midnightblue" d="M657.55,-199.78C733.66,-192.6 877.29,-177.23 998,-154 1052.09,-143.59 1064.22,-134.92 1118,-123 1128.48,-120.68 1256.9,-96.98 1333.48,-82.89"/>
<polygon fill="midnightblue" stroke="midnightblue" points="1334.26,-86.31 1343.46,-81.05 1332.99,-79.42 1334.26,-86.31"/>
</g>
<!-- Node16&#45;&gt;Node9 -->
<g id="edge23" class="edge">
<title>Node16&#45;&gt;Node9</title>
<path fill="none" stroke="midnightblue" d="M603.75,-190.45C604.02,-161.23 608.87,-93.52 646,-56 678.12,-23.54 732.36,-14.23 766.89,-11.71"/>
<polygon fill="midnightblue" stroke="midnightblue" points="767.14,-15.2 776.92,-11.13 766.74,-8.21 767.14,-15.2"/>
</g>
<!-- Node16&#45;&gt;Node10 -->
<g id="edge24" class="edge">
<title>Node16&#45;&gt;Node10</title>
<path fill="none" stroke="midnightblue" d="M657.61,-203.39C716.71,-200.31 813.31,-189.63 888,-154 905.36,-145.72 944.07,-109.5 966.02,-88.24"/>
<polygon fill="midnightblue" stroke="midnightblue" points="968.56,-90.65 973.27,-81.16 963.67,-85.64 968.56,-90.65"/>
</g>
<!-- Node16&#45;&gt;Node11 -->
<g id="edge25" class="edge">
<title>Node16&#45;&gt;Node11</title>
<path fill="none" stroke="midnightblue" d="M597.93,-190.26C590.65,-173.67 577.71,-145.65 564,-123 556.85,-111.18 547.68,-98.65 540.26,-89.03"/>
<polygon fill="midnightblue" stroke="midnightblue" points="542.97,-86.82 534.04,-81.11 537.46,-91.14 542.97,-86.82"/>
</g>
<!-- Node16&#45;&gt;Node12 -->
<g id="edge27" class="edge">
<title>Node16&#45;&gt;Node12</title>
<path fill="none" stroke="midnightblue" d="M577.74,-190.4C556.98,-179.24 528.2,-163.78 507.82,-152.83"/>
<polygon fill="midnightblue" stroke="midnightblue" points="509.3,-149.66 498.84,-148.01 505.99,-155.82 509.3,-149.66"/>
</g>
<!-- Node17&#45;&gt;Node6 -->
<g id="edge30" class="edge">
<title>Node17&#45;&gt;Node6</title>
<path fill="none" stroke="midnightblue" d="M493.51,-196.05C508.98,-193.98 525.6,-191.83 541,-190 694.96,-171.68 735.71,-183.14 888,-154 937.89,-144.46 948.17,-132.82 998,-123 1135.39,-95.92 1172.5,-107.65 1311,-87 1319.33,-85.76 1328.12,-84.3 1336.7,-82.79"/>
<polygon fill="midnightblue" stroke="midnightblue" points="1337.4,-86.22 1346.62,-81 1336.16,-79.33 1337.4,-86.22"/>
</g>
<!-- Node17&#45;&gt;Node11 -->
<g id="edge29" class="edge">
<title>Node17&#45;&gt;Node11</title>
<path fill="none" stroke="midnightblue" d="M419.65,-190.3C405.3,-173.26 386.39,-144.32 401,-123 426.05,-86.44 453.03,-103.92 494,-87 495.41,-86.42 496.85,-85.81 498.3,-85.2"/>
<polygon fill="midnightblue" stroke="midnightblue" points="500.07,-88.25 507.87,-81.08 497.3,-81.82 500.07,-88.25"/>
</g>
<!-- Node17&#45;&gt;Node12 -->
<g id="edge31" class="edge">
<title>Node17&#45;&gt;Node12</title>
<path fill="none" stroke="midnightblue" d="M443.85,-190.4C451.57,-180.36 461.97,-166.84 470.11,-156.25"/>
<polygon fill="midnightblue" stroke="midnightblue" points="472.99,-158.25 476.31,-148.19 467.44,-153.99 472.99,-158.25"/>
</g>
<!-- Node18&#45;&gt;Node9 -->
<g id="edge35" class="edge">
<title>Node18&#45;&gt;Node9</title>
<path fill="none" stroke="midnightblue" d="M785.96,-128.96C771.26,-120.54 751.01,-106.16 742,-87 736.14,-74.53 735.99,-68.4 742,-56 748.4,-42.8 760.75,-32.3 772.33,-24.78"/>
<polygon fill="midnightblue" stroke="midnightblue" points="774.16,-27.77 780.92,-19.61 770.55,-21.77 774.16,-27.77"/>
</g>
<!-- Node18&#45;&gt;Node10 -->
<g id="edge36" class="edge">
<title>Node18&#45;&gt;Node10</title>
<path fill="none" stroke="midnightblue" d="M826.77,-128.87C858.15,-117.47 913.56,-97.35 948.99,-84.49"/>
<polygon fill="midnightblue" stroke="midnightblue" points="950.21,-87.77 958.42,-81.06 947.82,-81.19 950.21,-87.77"/>
</g>
<!-- Node18&#45;&gt;Node11 -->
<g id="edge37" class="edge">
<title>Node18&#45;&gt;Node11</title>
<path fill="none" stroke="midnightblue" d="M766.63,-128.94C712.84,-116.27 612.81,-92.71 560.63,-80.42"/>
<polygon fill="midnightblue" stroke="midnightblue" points="561.4,-77.01 550.86,-78.12 559.8,-83.82 561.4,-77.01"/>
</g>
<!-- Node18&#45;&gt;Node13 -->
<g id="edge40" class="edge">
<title>Node18&#45;&gt;Node13</title>
<path fill="none" stroke="midnightblue" d="M745.62,-128.97C685.59,-119.85 588.4,-104.55 495.18,-87.17"/>
<polygon fill="midnightblue" stroke="midnightblue" points="495.78,-83.72 485.3,-85.32 494.49,-90.6 495.78,-83.72"/>
</g>
<!-- Node19 -->
<g id="node19" class="node">
<title>Node19</title>
<g id="a_node19"><a xlink:title=" ">
<polygon fill="white" stroke="#bfbfbf" points="751,-62 751,-81 807,-81 807,-62 751,-62"/>
<text text-anchor="middle" x="779" y="-69" font-family="Helvetica,sans-Serif" font-size="10.00">optional</text>
</a>
</g>
</g>
<!-- Node18&#45;&gt;Node19 -->
<g id="edge34" class="edge">
<title>Node18&#45;&gt;Node19</title>
<path fill="none" stroke="midnightblue" d="M799.76,-128.73C796.16,-118.99 790.25,-102.98 785.66,-90.53"/>
<polygon fill="midnightblue" stroke="midnightblue" points="788.93,-89.3 782.19,-81.13 782.37,-91.72 788.93,-89.3"/>
</g>
<!-- Node20 -->
<g id="node20" class="node">
<title>Node20</title>
<g id="a_node20"><a xlink:href="error__codes_8hpp.html" target="_top" xlink:title=" ">
<polygon fill="white" stroke="black" points="825,-56.5 825,-86.5 927,-86.5 927,-56.5 825,-56.5"/>
<text text-anchor="start" x="833" y="-74.5" font-family="Helvetica,sans-Serif" font-size="10.00">unilink/base/error</text>
<text text-anchor="middle" x="876" y="-63.5" font-family="Helvetica,sans-Serif" font-size="10.00">_codes.hpp</text>
</a>
</g>
</g>
<!-- Node18&#45;&gt;Node20 -->
<g id="edge38" class="edge">
<title>Node18&#45;&gt;Node20</title>
<path fill="none" stroke="midnightblue" d="M812.85,-128.73C823,-119.7 839.19,-105.27 852.64,-93.3"/>
<polygon fill="midnightblue" stroke="midnightblue" points="855.04,-95.85 860.18,-86.59 850.38,-90.63 855.04,-95.85"/>
</g>
<!-- Node20&#45;&gt;Node9 -->
<g id="edge39" class="edge">
<title>Node20&#45;&gt;Node9</title>
<path fill="none" stroke="midnightblue" d="M857.75,-56.4C845.87,-47.22 830.39,-35.26 818.31,-25.92"/>
<polygon fill="midnightblue" stroke="midnightblue" points="820.26,-23 810.2,-19.66 815.98,-28.54 820.26,-23"/>
</g>
<!-- Node21&#45;&gt;Node5 -->
<g id="edge42" class="edge">
<title>Node21&#45;&gt;Node5</title>
<path fill="none" stroke="midnightblue" d="M1193.2,-269.35C993.18,-262.41 389.43,-239.99 352,-221 295.08,-192.13 255.1,-123.48 238.53,-90.63"/>
<polygon fill="midnightblue" stroke="midnightblue" points="241.52,-88.77 233.98,-81.32 235.23,-91.84 241.52,-88.77"/>
</g>
<!-- Node21&#45;&gt;Node6 -->
<g id="edge48" class="edge">
<title>Node21&#45;&gt;Node6</title>
<path fill="none" stroke="midnightblue" d="M1283.03,-257.49C1297.54,-248.62 1315.04,-235.99 1327,-221 1359.37,-180.43 1377.89,-120.78 1385.65,-90.93"/>
<polygon fill="midnightblue" stroke="midnightblue" points="1389.09,-91.6 1388.1,-81.05 1382.29,-89.91 1389.09,-91.6"/>
</g>
<!-- Node21&#45;&gt;Node8 -->
<g id="edge44" class="edge">
<title>Node21&#45;&gt;Node8</title>
<path fill="none" stroke="midnightblue" d="M1278.3,-257.38C1289.73,-248.46 1302.73,-235.84 1309,-221 1328.13,-175.76 1300.75,-118.27 1284.14,-89.92"/>
<polygon fill="midnightblue" stroke="midnightblue" points="1287,-87.89 1278.8,-81.18 1281.02,-91.54 1287,-87.89"/>
</g>
<!-- Node21&#45;&gt;Node9 -->
<g id="edge45" class="edge">
<title>Node21&#45;&gt;Node9</title>
<path fill="none" stroke="midnightblue" d="M1290.14,-257.5C1366.26,-223.51 1541.68,-133.72 1469,-56 1425.09,-9.04 959.46,-9.6 831.42,-10.65"/>
<polygon fill="midnightblue" stroke="midnightblue" points="831.07,-7.15 821.11,-10.74 831.14,-14.15 831.07,-7.15"/>
</g>
<!-- Node21&#45;&gt;Node10 -->
<g id="edge46" class="edge">
<title>Node21&#45;&gt;Node10</title>
<path fill="none" stroke="midnightblue" d="M1257.9,-257.26C1258.93,-227.68 1256.81,-159.31 1219,-123 1192.25,-97.31 1089.94,-83.06 1028.83,-76.67"/>
<polygon fill="midnightblue" stroke="midnightblue" points="1028.96,-73.16 1018.66,-75.64 1028.26,-80.13 1028.96,-73.16"/>
</g>
<!-- Node21&#45;&gt;Node11 -->
<g id="edge47" class="edge">
<title>Node21&#45;&gt;Node11</title>
<path fill="none" stroke="midnightblue" d="M1193.27,-270.27C993.56,-266.12 391.48,-251.13 363,-221 338.91,-195.51 379.41,-134.75 392,-123 427.15,-90.2 449.3,-104.68 494,-87 495.6,-86.37 497.24,-85.7 498.89,-85.02"/>
<polygon fill="midnightblue" stroke="midnightblue" points="500.43,-88.17 508.25,-81.03 497.68,-81.73 500.43,-88.17"/>
</g>
<!-- Node22 -->
<g id="node22" class="node">
<title>Node22</title>
<g id="a_node22"><a xlink:title=" ">
<polygon fill="white" stroke="#bfbfbf" points="1164,-129 1164,-148 1210,-148 1210,-129 1164,-129"/>
<text text-anchor="middle" x="1187" y="-136" font-family="Helvetica,sans-Serif" font-size="10.00">future</text>
</a>
</g>
</g>
<!-- Node21&#45;&gt;Node22 -->
<g id="edge43" class="edge">
<title>Node21&#45;&gt;Node22</title>
<path fill="none" stroke="midnightblue" d="M1249.51,-257.37C1236.62,-233.08 1210.3,-183.44 1196.28,-157"/>
<polygon fill="midnightblue" stroke="midnightblue" points="1199.34,-155.29 1191.56,-148.1 1193.15,-158.57 1199.34,-155.29"/>
</g>
<!-- Node23 -->
<g id="node23" class="node">
<title>Node23</title>
<g id="a_node23"><a xlink:href="iserver_8hpp.html" target="_top" xlink:title=" ">
<polygon fill="white" stroke="black" points="985.5,-196 985.5,-215 1134.5,-215 1134.5,-196 985.5,-196"/>
<text text-anchor="middle" x="1060" y="-203" font-family="Helvetica,sans-Serif" font-size="10.00">unilink/wrapper/iserver.hpp</text>
</a>
</g>
</g>
<!-- Node21&#45;&gt;Node23 -->
<g id="edge49" class="edge">
<title>Node21&#45;&gt;Node23</title>
<path fill="none" stroke="midnightblue" d="M1214.25,-257.4C1178.77,-245.69 1128.89,-229.23 1095.56,-218.23"/>
<polygon fill="midnightblue" stroke="midnightblue" points="1096.38,-214.82 1085.78,-215.01 1094.18,-221.46 1096.38,-214.82"/>
</g>
<!-- Node23&#45;&gt;Node5 -->
<g id="edge50" class="edge">
<title>Node23&#45;&gt;Node5</title>
<path fill="none" stroke="midnightblue" d="M985.42,-202.22C836.97,-197.13 509.44,-182.92 401,-154 344.56,-138.95 284.12,-105.55 252.4,-86.51"/>
<polygon fill="midnightblue" stroke="midnightblue" points="253.87,-83.31 243.51,-81.1 250.23,-89.29 253.87,-83.31"/>
</g>
<!-- Node23&#45;&gt;Node6 -->
<g id="edge55" class="edge">
<title>Node23&#45;&gt;Node6</title>
<path fill="none" stroke="midnightblue" d="M1071.17,-195.79C1083.74,-185.9 1104.66,-169.18 1122,-154 1137.14,-140.75 1137.18,-132.34 1155,-123 1170.74,-114.75 1269.63,-95.11 1334.01,-82.9"/>
<polygon fill="midnightblue" stroke="midnightblue" points="1334.85,-86.3 1344.03,-81 1333.55,-79.42 1334.85,-86.3"/>
</g>
<!-- Node23&#45;&gt;Node8 -->
<g id="edge52" class="edge">
<title>Node23&#45;&gt;Node8</title>
<path fill="none" stroke="midnightblue" d="M1064.35,-195.75C1073.03,-179.16 1094.11,-142.98 1122,-123 1155.66,-98.89 1201.63,-85.7 1233.97,-78.91"/>
<polygon fill="midnightblue" stroke="midnightblue" points="1234.84,-82.31 1243.97,-76.93 1233.47,-75.44 1234.84,-82.31"/>
</g>
<!-- Node23&#45;&gt;Node10 -->
<g id="edge53" class="edge">
<title>Node23&#45;&gt;Node10</title>
<path fill="none" stroke="midnightblue" d="M1054.88,-195.84C1042.21,-174.39 1009.18,-118.49 992.28,-89.9"/>
<polygon fill="midnightblue" stroke="midnightblue" points="995.14,-87.85 987.04,-81.02 989.11,-91.41 995.14,-87.85"/>
</g>
<!-- Node23&#45;&gt;Node11 -->
<g id="edge54" class="edge">
<title>Node23&#45;&gt;Node11</title>
<path fill="none" stroke="midnightblue" d="M985.24,-199.1C914.96,-192.72 807.35,-179.56 717,-154 655.76,-136.67 588.19,-104.25 552.45,-85.95"/>
<polygon fill="midnightblue" stroke="midnightblue" points="553.74,-82.68 543.25,-81.19 550.52,-88.89 553.74,-82.68"/>
</g>
<!-- Node23&#45;&gt;Node12 -->
<g id="edge56" class="edge">
<title>Node23&#45;&gt;Node12</title>
<path fill="none" stroke="midnightblue" d="M985.45,-196.1C877.48,-183.94 678.21,-161.49 565.79,-148.83"/>
<polygon fill="midnightblue" stroke="midnightblue" points="565.85,-145.31 555.52,-147.67 565.07,-152.27 565.85,-145.31"/>
</g>
<!-- Node23&#45;&gt;Node18 -->
<g id="edge57" class="edge">
<title>Node23&#45;&gt;Node18</title>
<path fill="none" stroke="midnightblue" d="M1026.14,-195.94C980.01,-184.27 897.37,-163.37 846.64,-150.54"/>
<polygon fill="midnightblue" stroke="midnightblue" points="847.49,-147.14 836.94,-148.08 845.77,-153.93 847.49,-147.14"/>
</g>
<!-- Node23&#45;&gt;Node22 -->
<g id="edge51" class="edge">
<title>Node23&#45;&gt;Node22</title>
<path fill="none" stroke="midnightblue" d="M1076.86,-195.87C1098.4,-184.84 1135.9,-165.66 1161.08,-152.77"/>
<polygon fill="midnightblue" stroke="midnightblue" points="1162.76,-155.84 1170.07,-148.17 1159.57,-149.61 1162.76,-155.84"/>
</g>
<!-- Node24&#45;&gt;Node6 -->
<g id="edge61" class="edge">
<title>Node24&#45;&gt;Node6</title>
<path fill="none" stroke="midnightblue" d="M1550.74,-190.37C1516.44,-165.22 1445.1,-112.91 1410.17,-87.29"/>
<polygon fill="midnightblue" stroke="midnightblue" points="1411.86,-84.19 1401.72,-81.1 1407.72,-89.83 1411.86,-84.19"/>
</g>
<!-- Node25 -->
<g id="node25" class="node">
<title>Node25</title>
<g id="a_node25"><a xlink:title=" ">
<polygon fill="white" stroke="#bfbfbf" points="1532,-129 1532,-148 1580,-148 1580,-129 1532,-129"/>
<text text-anchor="middle" x="1556" y="-136" font-family="Helvetica,sans-Serif" font-size="10.00">mutex</text>
</a>
</g>
</g>
<!-- Node24&#45;&gt;Node25 -->
<g id="edge60" class="edge">
<title>Node24&#45;&gt;Node25</title>
<path fill="none" stroke="midnightblue" d="M1566.96,-190.4C1564.93,-180.96 1562.24,-168.45 1560.03,-158.19"/>
<polygon fill="midnightblue" stroke="midnightblue" points="1563.4,-157.23 1557.87,-148.19 1556.56,-158.71 1563.4,-157.23"/>
</g>
<!-- Node24&#45;&gt;Node26 -->
<g id="edge62" class="edge">
<title>Node24&#45;&gt;Node26</title>
<path fill="none" stroke="midnightblue" d="M1591.26,-190.4C1605.01,-181.28 1623.09,-169.29 1638.24,-159.24"/>
<polygon fill="midnightblue" stroke="midnightblue" points="1640.38,-162.02 1646.78,-153.58 1636.51,-156.19 1640.38,-162.02"/>
</g>
<!-- Node26&#45;&gt;Node6 -->
<g id="edge66" class="edge">
<title>Node26&#45;&gt;Node6</title>
<path fill="none" stroke="midnightblue" d="M1608.02,-123.48C1556.57,-111.45 1483.48,-94.36 1436.4,-83.35"/>
<polygon fill="midnightblue" stroke="midnightblue" points="1437.01,-79.9 1426.48,-81.03 1435.42,-86.71 1437.01,-79.9"/>
</g>
<!-- Node26&#45;&gt;Node8 -->
<g id="edge65" class="edge">
<title>Node26&#45;&gt;Node8</title>
<path fill="none" stroke="midnightblue" d="M1597.82,-124.42C1594.84,-123.93 1591.89,-123.45 1589,-123 1465.91,-103.75 1431.82,-117.42 1311,-87 1308.18,-86.29 1305.27,-85.43 1302.4,-84.49"/>
<polygon fill="midnightblue" stroke="midnightblue" points="1303.43,-81.14 1292.83,-81.08 1301.07,-87.74 1303.43,-81.14"/>
</g>
<!-- Node27 -->
<g id="node27" class="node">
<title>Node27</title>
<g id="a_node27"><a xlink:title=" ">
<polygon fill="white" stroke="#bfbfbf" points="1516,-56.5 1516,-86.5 1628,-86.5 1628,-56.5 1516,-56.5"/>
<text text-anchor="start" x="1524" y="-74.5" font-family="Helvetica,sans-Serif" font-size="10.00">boost/asio/executor</text>
<text text-anchor="middle" x="1572" y="-63.5" font-family="Helvetica,sans-Serif" font-size="10.00">_work_guard.hpp</text>
</a>
</g>
</g>
<!-- Node26&#45;&gt;Node27 -->
<g id="edge63" class="edge">
<title>Node26&#45;&gt;Node27</title>
<path fill="none" stroke="midnightblue" d="M1647.17,-123.4C1633.71,-114.28 1616,-102.29 1601.15,-92.24"/>
<polygon fill="midnightblue" stroke="midnightblue" points="1603.03,-89.28 1592.79,-86.58 1599.11,-95.08 1603.03,-89.28"/>
</g>
<!-- Node28 -->
<g id="node28" class="node">
<title>Node28</title>
<g id="a_node28"><a xlink:title=" ">
<polygon fill="white" stroke="#bfbfbf" points="1646,-62 1646,-81 1788,-81 1788,-62 1646,-62"/>
<text text-anchor="middle" x="1717" y="-69" font-family="Helvetica,sans-Serif" font-size="10.00">boost/asio/io_context.hpp</text>
</a>
</g>
</g>
<!-- Node26&#45;&gt;Node28 -->
<g id="edge64" class="edge">
<title>Node26&#45;&gt;Node28</title>
<path fill="none" stroke="midnightblue" d="M1678.63,-123.4C1686.2,-113.36 1696.39,-99.84 1704.37,-89.25"/>
<polygon fill="midnightblue" stroke="midnightblue" points="1707.22,-91.29 1710.45,-81.19 1701.63,-87.07 1707.22,-91.29"/>
</g>
<!-- Node29&#45;&gt;Node6 -->
<g id="edge71" class="edge">
<title>Node29&#45;&gt;Node6</title>
<path fill="none" stroke="midnightblue" d="M1755.77,-124.71C1752.81,-124.11 1749.87,-123.53 1747,-123 1694.48,-113.26 1553.31,-94.06 1465.04,-82.34"/>
<polygon fill="midnightblue" stroke="midnightblue" points="1465.45,-78.87 1455.08,-81.02 1464.53,-85.81 1465.45,-78.87"/>
</g>
<!-- Node29&#45;&gt;Node9 -->
<g id="edge70" class="edge">
<title>Node29&#45;&gt;Node9</title>
<path fill="none" stroke="midnightblue" d="M1812.54,-123.2C1814.91,-104.65 1815.7,-72.7 1797,-56 1760.17,-23.12 998.98,-13.13 831.43,-11.32"/>
<polygon fill="midnightblue" stroke="midnightblue" points="831.31,-7.82 821.27,-11.21 831.23,-14.82 831.31,-7.82"/>
</g>
<!-- Node29&#45;&gt;Node14 -->
<g id="edge69" class="edge">
<title>Node29&#45;&gt;Node14</title>
<path fill="none" stroke="midnightblue" d="M1815.87,-123.45C1820.01,-113.38 1825.58,-99.44 1830,-87 1836.94,-67.49 1843.96,-44.81 1848.61,-29.34"/>
<polygon fill="midnightblue" stroke="midnightblue" points="1852.04,-30.08 1851.53,-19.5 1845.33,-28.09 1852.04,-30.08"/>
</g>
</g>
</svg>
        <g id="navigator" transform="translate(0 0)" fill="#404254">
                <rect fill="#f2f5e9" fill-opacity="0.5" stroke="#606060" stroke-width=".5" x="0" y="0" width="60" height="60"/>
                <use id="zoomplus" xlink:href="#zoomPlus" x="17" y="9" onmousedown="handleZoom(evt,'in')"/>
                <use id="zoomminus" xlink:href="#zoomMin" x="42" y="9" onmousedown="handleZoom(evt,'out')"/>
                <use id="reset" xlink:href="#resetDef" x="30" y="36" onmousedown="handleReset()"/>
                <g id="arrowUp" xlink:href="#dirArrow" transform="translate(30 24)" onmousedown="handlePan(0,-1)">
                  <use xlink:href="#rim" fill="#404040">
                        <set attributeName="fill" to="#808080" begin="arrowUp.mouseover" end="arrowUp.mouseout"/>
                  </use>
                  <path fill="none" stroke="white" stroke-width="1.5" d="M0,-3.0v7 M-2.5,-0.5L0,-3.0L2.5,-0.5"/>
                </g>
                <g id="arrowRight" xlink:href="#dirArrow" transform="rotate(90) translate(36 -43)" onmousedown="handlePan(1,0)">
                  <use xlink:href="#rim" fill="#404040">
                        <set attributeName="fill" to="#808080" begin="arrowRight.mouseover" end="arrowRight.mouseout"/>
                  </use>
                  <path fill="none" stroke="white" stroke-width="1.5" d="M0,-3.0v7 M-2.5,-0.5L0,-3.0L2.5,-0.5"/>
                </g>
                <g id="arrowDown" xlink:href="#dirArrow" transform="rotate(180) translate(-30 -48)" onmousedown="handlePan(0,1)">
                  <use xlink:href="#rim" fill="#404040">
                        <set attributeName="fill" to="#808080" begin="arrowDown.mouseover" end="arrowDown.mouseout"/>
                  </use>
                  <path fill="none" stroke="white" stroke-width="1.5" d="M0,-3.0v7 M-2.5,-0.5L0,-3.0L2.5,-0.5"/>
                </g>
                <g id="arrowLeft" xlink:href="#dirArrow" transform="rotate(270) translate(-36 17)" onmousedown="handlePan(-1,0)">
                  <use xlink:href="#rim" fill="#404040">
                        <set attributeName="fill" to="#808080" begin="arrowLeft.mouseover" end="arrowLeft.mouseout"/>
                  </use>
                  <path fill="none" stroke="white" stroke-width="1.5" d="M0,-3.0v7 M-2.5,-0.5L0,-3.0L2.5,-0.5"/>
                </g>
        </g>
        <svg viewBox="0 0 15 15" width="100%" height="30px" preserveAspectRatio="xMaxYMin meet">
         <g id="arrow_out" transform="scale(0.3 0.3)">
          <a xlink:href="tcp__server__builder_8cc__incl_org.svg" target="_base">
           <rect id="button" ry="5" rx="5" y="6" x="6" height="38" width="38"
                fill="#f2f5e9" fill-opacity="0.5" stroke="#606060" stroke-width="1.0"/>
           <path id="arrow"
             d="M 11.500037,31.436501 C 11.940474,20.09759 22.043105,11.32322 32.158766,21.979434 L 37.068811,17.246167 C 37.068811,17.246167 37.088388,32 37.088388,32 L 22.160133,31.978069 C 22.160133,31.978069 26.997745,27.140456 26.997745,27.140456 C 18.528582,18.264221 13.291696,25.230495 11.500037,31.436501 z"
             style="fill:#404040;"/>
          </a>
         </g>
        </svg>
</svg>
