<?xml version="1.0" encoding="UTF-8" standalone="no"?>
<!DOCTYPE svg PUBLIC "-//W3C//DTD SVG 1.1//EN"
 "http://www.w3.org/Graphics/SVG/1.1/DTD/svg11.dtd">
<!-- Generated by graphviz version 2.43.0 (0)
 -->
<!-- Title: unilink/config/tcp_server_config.hpp Pages: 1 -->
<svg width="866pt" height="225pt"
 viewBox="0.00 0.00 865.50 225.00" xmlns="http://www.w3.org/2000/svg" xmlns:xlink="http://www.w3.org/1999/xlink">
<g id="graph0" class="graph" transform="scale(1 1) rotate(0) translate(4 221)">
<title>unilink/config/tcp_server_config.hpp</title>
<!-- Node1 -->
<g id="Node000001" class="node">
<title>Node1</title>
<g id="a_Node000001"><a xlink:title=" ">
<polygon fill="#999999" stroke="#666666" points="248.5,-217 140.5,-217 140.5,-187 248.5,-187 248.5,-217"/>
<text text-anchor="start" x="148.5" y="-205" font-family="Helvetica,sans-Serif" font-size="10.00">unilink/config/tcp</text>
<text text-anchor="middle" x="194.5" y="-194" font-family="Helvetica,sans-Serif" font-size="10.00">_server_config.hpp</text>
</a>
</g>
</g>
<!-- Node2 -->
<g id="Node000002" class="node">
<title>Node2</title>
<g id="a_Node000002"><a xlink:title=" ">
<polygon fill="#e0e0e0" stroke="#999999" points="200.5,-19 150.5,-19 150.5,0 200.5,0 200.5,-19"/>
<text text-anchor="middle" x="175.5" y="-7" font-family="Helvetica,sans-Serif" font-size="10.00">cstdint</text>
</a>
</g>
</g>
<!-- Node1&#45;&gt;Node2 -->
<g id="edge1_Node000001_Node000002" class="edge">
<title>Node1&#45;&gt;Node2</title>
<g id="a_edge1_Node000001_Node000002"><a xlink:title=" ">
<path fill="none" stroke="#63b8ff" d="M193.1,-186.99C189.75,-153.35 181.23,-67.97 177.41,-29.64"/>
<polygon fill="#63b8ff" stroke="#63b8ff" points="180.86,-28.96 176.38,-19.36 173.89,-29.66 180.86,-28.96"/>
</a>
</g>
</g>
<!-- Node3 -->
<g id="Node000003" class="node">
<title>Node3</title>
<g id="a_Node000003"><a xlink:title=" ">
<polygon fill="#e0e0e0" stroke="#999999" points="468.5,-19 424.5,-19 424.5,0 468.5,0 468.5,-19"/>
<text text-anchor="middle" x="446.5" y="-7" font-family="Helvetica,sans-Serif" font-size="10.00">string</text>
</a>
</g>
</g>
<!-- Node1&#45;&gt;Node3 -->
<g id="edge2_Node000001_Node000003" class="edge">
<title>Node1&#45;&gt;Node3</title>
<g id="a_edge2_Node000001_Node000003"><a xlink:title=" ">
<path fill="none" stroke="#63b8ff" d="M197.71,-186.87C205.14,-157.56 226.35,-89.92 270.5,-55 312.41,-21.85 376.01,-13.09 414.19,-10.95"/>
<polygon fill="#63b8ff" stroke="#63b8ff" points="414.4,-14.45 424.24,-10.51 414.1,-7.46 414.4,-14.45"/>
</a>
</g>
</g>
<!-- Node4 -->
<g id="Node000004" class="node">
<title>Node4</title>
<g id="a_Node000004"><a xlink:href="constants_8hpp.html" target="_top" xlink:title=" ">
<polygon fill="white" stroke="#666666" points="147,-79.5 0,-79.5 0,-60.5 147,-60.5 147,-79.5"/>
<text text-anchor="middle" x="73.5" y="-67.5" font-family="Helvetica,sans-Serif" font-size="10.00">unilink/base/constants.hpp</text>
</a>
</g>
</g>
<!-- Node1&#45;&gt;Node4 -->
<g id="edge3_Node000001_Node000004" class="edge">
<title>Node1&#45;&gt;Node4</title>
<g id="a_edge3_Node000001_Node000004"><a xlink:title=" ">
<path fill="none" stroke="#63b8ff" d="M181.32,-186.84C158.66,-162.49 112.45,-112.85 88.56,-87.18"/>
<polygon fill="#63b8ff" stroke="#63b8ff" points="91.02,-84.68 81.64,-79.75 85.89,-89.45 91.02,-84.68"/>
</a>
</g>
</g>
<!-- Node6 -->
<g id="Node000006" class="node">
<title>Node6</title>
<g id="a_Node000006"><a xlink:href="input__validator_8hpp.html" target="_top" xlink:title=" ">
<polygon fill="white" stroke="#666666" points="524.5,-151 428.5,-151 428.5,-121 524.5,-121 524.5,-151"/>
<text text-anchor="start" x="436.5" y="-139" font-family="Helvetica,sans-Serif" font-size="10.00">unilink/util/input</text>
<text text-anchor="middle" x="476.5" y="-128" font-family="Helvetica,sans-Serif" font-size="10.00">_validator.hpp</text>
</a>
</g>
</g>
<!-- Node1&#45;&gt;Node6 -->
<g id="edge6_Node000001_Node000006" class="edge">
<title>Node1&#45;&gt;Node6</title>
<g id="a_edge6_Node000001_Node000006"><a xlink:title=" ">
<path fill="none" stroke="#63b8ff" d="M248.54,-188.74C297.17,-177.7 368.43,-161.53 418.3,-150.21"/>
<polygon fill="#63b8ff" stroke="#63b8ff" points="419.31,-153.57 428.29,-147.94 417.76,-146.74 419.31,-153.57"/>
</a>
</g>
</g>
<!-- Node4&#45;&gt;Node2 -->
<g id="edge5_Node000004_Node000002" class="edge">
<title>Node4&#45;&gt;Node2</title>
<g id="a_edge5_Node000004_Node000002"><a xlink:title=" ">
<path fill="none" stroke="#63b8ff" d="M88.55,-60.37C105.12,-50.86 132,-35.45 151.49,-24.27"/>
<polygon fill="#63b8ff" stroke="#63b8ff" points="153.45,-27.18 160.39,-19.17 149.97,-21.11 153.45,-27.18"/>
</a>
</g>
</g>
<!-- Node5 -->
<g id="Node000005" class="node">
<title>Node5</title>
<g id="a_Node000005"><a xlink:title=" ">
<polygon fill="#e0e0e0" stroke="#999999" points="100,-19 47,-19 47,0 100,0 100,-19"/>
<text text-anchor="middle" x="73.5" y="-7" font-family="Helvetica,sans-Serif" font-size="10.00">cstddef</text>
</a>
</g>
</g>
<!-- Node4&#45;&gt;Node5 -->
<g id="edge4_Node000004_Node000005" class="edge">
<title>Node4&#45;&gt;Node5</title>
<g id="a_edge4_Node000004_Node000005"><a xlink:title=" ">
<path fill="none" stroke="#63b8ff" d="M73.5,-60.37C73.5,-52.25 73.5,-39.81 73.5,-29.39"/>
<polygon fill="#63b8ff" stroke="#63b8ff" points="77,-29.17 73.5,-19.17 70,-29.17 77,-29.17"/>
</a>
</g>
</g>
<!-- Node6&#45;&gt;Node2 -->
<g id="edge9_Node000006_Node000002" class="edge">
<title>Node6&#45;&gt;Node2</title>
<g id="a_edge9_Node000006_Node000002"><a xlink:title=" ">
<path fill="none" stroke="#63b8ff" d="M428.32,-129.23C385.27,-122.72 321.33,-109.65 270.5,-85 239.26,-69.85 208.68,-43.12 190.98,-26.13"/>
<polygon fill="#63b8ff" stroke="#63b8ff" points="193.39,-23.59 183.8,-19.09 188.49,-28.59 193.39,-23.59"/>
</a>
</g>
</g>
<!-- Node6&#45;&gt;Node3 -->
<g id="edge12_Node000006_Node000003" class="edge">
<title>Node6&#45;&gt;Node3</title>
<g id="a_edge12_Node000006_Node000003"><a xlink:title=" ">
<path fill="none" stroke="#63b8ff" d="M473.06,-120.72C467.61,-98.12 457.01,-54.12 450.98,-29.09"/>
<polygon fill="#63b8ff" stroke="#63b8ff" points="454.31,-27.97 448.56,-19.07 447.51,-29.61 454.31,-27.97"/>
</a>
</g>
</g>
<!-- Node6&#45;&gt;Node4 -->
<g id="edge15_Node000006_Node000004" class="edge">
<title>Node6&#45;&gt;Node4</title>
<g id="a_edge15_Node000006_Node000004"><a xlink:title=" ">
<path fill="none" stroke="#63b8ff" d="M428.29,-127.34C355.66,-115.81 218.1,-93.96 137.26,-81.13"/>
<polygon fill="#63b8ff" stroke="#63b8ff" points="137.64,-77.64 127.21,-79.53 136.54,-84.55 137.64,-77.64"/>
</a>
</g>
</g>
<!-- Node7 -->
<g id="Node000007" class="node">
<title>Node7</title>
<g id="a_Node000007"><a xlink:title=" ">
<polygon fill="#e0e0e0" stroke="#999999" points="538.5,-79.5 474.5,-79.5 474.5,-60.5 538.5,-60.5 538.5,-79.5"/>
<text text-anchor="middle" x="506.5" y="-67.5" font-family="Helvetica,sans-Serif" font-size="10.00">algorithm</text>
</a>
</g>
</g>
<!-- Node6&#45;&gt;Node7 -->
<g id="edge7_Node000006_Node000007" class="edge">
<title>Node6&#45;&gt;Node7</title>
<g id="a_edge7_Node000006_Node000007"><a xlink:title=" ">
<path fill="none" stroke="#63b8ff" d="M483.16,-120.8C487.56,-111.41 493.37,-99.02 498.09,-88.95"/>
<polygon fill="#63b8ff" stroke="#63b8ff" points="501.28,-90.38 502.35,-79.84 494.94,-87.41 501.28,-90.38"/>
</a>
</g>
</g>
<!-- Node8 -->
<g id="Node000008" class="node">
<title>Node8</title>
<g id="a_Node000008"><a xlink:title=" ">
<polygon fill="#e0e0e0" stroke="#999999" points="770,-79.5 721,-79.5 721,-60.5 770,-60.5 770,-79.5"/>
<text text-anchor="middle" x="745.5" y="-67.5" font-family="Helvetica,sans-Serif" font-size="10.00">cctype</text>
</a>
</g>
</g>
<!-- Node6&#45;&gt;Node8 -->
<g id="edge8_Node000006_Node000008" class="edge">
<title>Node6&#45;&gt;Node8</title>
<g id="a_edge8_Node000006_Node000008"><a xlink:title=" ">
<path fill="none" stroke="#63b8ff" d="M524.53,-126.45C571.37,-117.68 644.44,-102.8 706.5,-85 708.92,-84.31 711.41,-83.54 713.9,-82.73"/>
<polygon fill="#63b8ff" stroke="#63b8ff" points="715.05,-86.04 723.39,-79.5 712.8,-79.41 715.05,-86.04"/>
</a>
</g>
</g>
<!-- Node9 -->
<g id="Node000009" class="node">
<title>Node9</title>
<g id="a_Node000009"><a xlink:title=" ">
<polygon fill="#e0e0e0" stroke="#999999" points="857.5,-19 807.5,-19 807.5,0 857.5,0 857.5,-19"/>
<text text-anchor="middle" x="832.5" y="-7" font-family="Helvetica,sans-Serif" font-size="10.00">format</text>
</a>
</g>
</g>
<!-- Node6&#45;&gt;Node9 -->
<g id="edge10_Node000006_Node000009" class="edge">
<title>Node6&#45;&gt;Node9</title>
<g id="a_edge10_Node000006_Node000009"><a xlink:title=" ">
<path fill="none" stroke="#63b8ff" d="M524.56,-135.86C614.07,-136.31 800.93,-131.51 841.5,-85 854.98,-69.55 848.49,-44.95 841.48,-28.28"/>
<polygon fill="#63b8ff" stroke="#63b8ff" points="844.6,-26.69 837.23,-19.08 838.25,-29.63 844.6,-26.69"/>
</a>
</g>
</g>
<!-- Node10 -->
<g id="Node000010" class="node">
<title>Node10</title>
<g id="a_Node000010"><a xlink:title=" ">
<polygon fill="#e0e0e0" stroke="#999999" points="832.5,-79.5 788.5,-79.5 788.5,-60.5 832.5,-60.5 832.5,-79.5"/>
<text text-anchor="middle" x="810.5" y="-67.5" font-family="Helvetica,sans-Serif" font-size="10.00">regex</text>
</a>
</g>
</g>
<!-- Node6&#45;&gt;Node10 -->
<g id="edge11_Node000006_Node000010" class="edge">
<title>Node6&#45;&gt;Node10</title>
<g id="a_edge11_Node000006_Node000010"><a xlink:title=" ">
<path fill="none" stroke="#63b8ff" d="M524.66,-130.75C584.97,-124.58 690.99,-110.95 778.5,-85 780.18,-84.5 781.89,-83.94 783.59,-83.33"/>
<polygon fill="#63b8ff" stroke="#63b8ff" points="785.2,-86.46 793.19,-79.51 782.6,-79.96 785.2,-86.46"/>
</a>
</g>
</g>
<!-- Node11 -->
<g id="Node000011" class="node">
<title>Node11</title>
<g id="a_Node000011"><a xlink:title=" ">
<polygon fill="#e0e0e0" stroke="#999999" points="353,-79.5 280,-79.5 280,-60.5 353,-60.5 353,-79.5"/>
<text text-anchor="middle" x="316.5" y="-67.5" font-family="Helvetica,sans-Serif" font-size="10.00">string_view</text>
</a>
</g>
</g>
<!-- Node6&#45;&gt;Node11 -->
<g id="edge13_Node000006_Node000011" class="edge">
<title>Node6&#45;&gt;Node11</title>
<g id="a_edge13_Node000006_Node000011"><a xlink:title=" ">
<path fill="none" stroke="#63b8ff" d="M441.39,-120.95C413.2,-109.68 374.03,-94.01 347.11,-83.25"/>
<polygon fill="#63b8ff" stroke="#63b8ff" points="348.38,-79.98 337.79,-79.52 345.78,-86.48 348.38,-79.98"/>
</a>
</g>
</g>
<!-- Node12 -->
<g id="Node000012" class="node">
<title>Node12</title>
<g id="a_Node000012"><a xlink:title=" ">
<polygon fill="#e0e0e0" stroke="#999999" points="418,-79.5 371,-79.5 371,-60.5 418,-60.5 418,-79.5"/>
<text text-anchor="middle" x="394.5" y="-67.5" font-family="Helvetica,sans-Serif" font-size="10.00">vector</text>
</a>
</g>
</g>
<!-- Node6&#45;&gt;Node12 -->
<g id="edge14_Node000006_Node000012" class="edge">
<title>Node6&#45;&gt;Node12</title>
<g id="a_edge14_Node000006_Node000012"><a xlink:title=" ">
<path fill="none" stroke="#63b8ff" d="M458.3,-120.8C445.14,-110.53 427.39,-96.67 413.95,-86.18"/>
<polygon fill="#63b8ff" stroke="#63b8ff" points="415.87,-83.24 405.83,-79.84 411.56,-88.76 415.87,-83.24"/>
</a>
</g>
</g>
<!-- Node13 -->
<g id="Node000013" class="node">
<title>Node13</title>
<g id="a_Node000013"><a xlink:href="visibility_8hpp.html" target="_top" xlink:title=" ">
<polygon fill="white" stroke="#666666" points="762.5,-19 622.5,-19 622.5,0 762.5,0 762.5,-19"/>
<text text-anchor="middle" x="692.5" y="-7" font-family="Helvetica,sans-Serif" font-size="10.00">unilink/base/visibility.hpp</text>
</a>
</g>
</g>
<!-- Node6&#45;&gt;Node13 -->
<g id="edge16_Node000006_Node000013" class="edge">
<title>Node6&#45;&gt;Node13</title>
<g id="a_edge16_Node000006_Node000013"><a xlink:title=" ">
<path fill="none" stroke="#63b8ff" d="M524.74,-128.48C576.1,-120.58 652.78,-105.7 673.5,-85 688.08,-70.44 691.98,-46.35 692.79,-29.52"/>
<polygon fill="#63b8ff" stroke="#63b8ff" points="696.29,-29.28 692.94,-19.23 689.29,-29.18 696.29,-29.28"/>
</a>
</g>
</g>
<!-- Node14 -->
<g id="Node000014" class="node">
<title>Node14</title>
<g id="a_Node000014"><a xlink:href="exceptions_8hpp.html" target="_top" xlink:title=" ">
<polygon fill="white" stroke="#666666" points="664.5,-85 556.5,-85 556.5,-55 664.5,-55 664.5,-85"/>
<text text-anchor="start" x="564.5" y="-73" font-family="Helvetica,sans-Serif" font-size="10.00">unilink/diagnostics</text>
<text text-anchor="middle" x="610.5" y="-62" font-family="Helvetica,sans-Serif" font-size="10.00">/exceptions.hpp</text>
</a>
</g>
</g>
<!-- Node6&#45;&gt;Node14 -->
<g id="edge17_Node000006_Node000014" class="edge">
<title>Node6&#45;&gt;Node14</title>
<g id="a_edge17_Node000006_Node000014"><a xlink:title=" ">
<path fill="none" stroke="#63b8ff" d="M505.91,-120.95C525.28,-111.7 550.86,-99.49 571.87,-89.45"/>
<polygon fill="#63b8ff" stroke="#63b8ff" points="573.65,-92.48 581.16,-85.01 570.63,-86.16 573.65,-92.48"/>
</a>
</g>
</g>
<!-- Node14&#45;&gt;Node3 -->
<g id="edge20_Node000014_Node000003" class="edge">
<title>Node14&#45;&gt;Node3</title>
<g id="a_edge20_Node000014_Node000003"><a xlink:title=" ">
<path fill="none" stroke="#63b8ff" d="M571.22,-54.99C542.82,-44.86 504.93,-31.34 478.4,-21.88"/>
<polygon fill="#63b8ff" stroke="#63b8ff" points="479.42,-18.53 468.82,-18.46 477.07,-25.12 479.42,-18.53"/>
</a>
</g>
</g>
<!-- Node14&#45;&gt;Node9 -->
<g id="edge18_Node000014_Node000009" class="edge">
<title>Node14&#45;&gt;Node9</title>
<g id="a_edge18_Node000014_Node000009"><a xlink:title=" ">
<path fill="none" stroke="#63b8ff" d="M663.67,-54.99C705.12,-44.07 761.49,-29.21 797.44,-19.74"/>
<polygon fill="#63b8ff" stroke="#63b8ff" points="798.68,-23.03 807.46,-17.1 796.9,-16.26 798.68,-23.03"/>
</a>
</g>
</g>
<!-- Node14&#45;&gt;Node13 -->
<g id="edge21_Node000014_Node000013" class="edge">
<title>Node14&#45;&gt;Node13</title>
<g id="a_edge21_Node000014_Node000013"><a xlink:title=" ">
<path fill="none" stroke="#63b8ff" d="M630.35,-54.84C642.98,-45.83 659.3,-34.18 672.05,-25.09"/>
<polygon fill="#63b8ff" stroke="#63b8ff" points="674.1,-27.92 680.21,-19.27 670.04,-22.22 674.1,-27.92"/>
</a>
</g>
</g>
<!-- Node15 -->
<g id="Node000015" class="node">
<title>Node15</title>
<g id="a_Node000015"><a xlink:title=" ">
<polygon fill="#e0e0e0" stroke="#999999" points="604,-19 539,-19 539,0 604,0 604,-19"/>
<text text-anchor="middle" x="571.5" y="-7" font-family="Helvetica,sans-Serif" font-size="10.00">stdexcept</text>
</a>
</g>
</g>
<!-- Node14&#45;&gt;Node15 -->
<g id="edge19_Node000014_Node000015" class="edge">
<title>Node14&#45;&gt;Node15</title>
<g id="a_edge19_Node000014_Node000015"><a xlink:title=" ">
<path fill="none" stroke="#63b8ff" d="M601.06,-54.84C595.63,-46.69 588.77,-36.4 583.02,-27.78"/>
<polygon fill="#63b8ff" stroke="#63b8ff" points="585.8,-25.65 577.34,-19.27 579.98,-29.53 585.8,-25.65"/>
</a>
</g>
</g>
</g>
</svg>
