<?xml version="1.0" encoding="UTF-8" standalone="no"?>
<!DOCTYPE svg PUBLIC "-//W3C//DTD SVG 1.1//EN"
 "http://www.w3.org/Graphics/SVG/1.1/DTD/svg11.dtd">
<!-- Generated by graphviz version 2.43.0 (0)
 -->
<!-- Title: unilink/builder/tcp_server_builder.hpp Pages: 1 -->
<svg width="1429pt" height="352pt"
 viewBox="0.00 0.00 1429.02 352.00" xmlns="http://www.w3.org/2000/svg" xmlns:xlink="http://www.w3.org/1999/xlink">
<g id="graph0" class="graph" transform="scale(1 1) rotate(0) translate(4 348)">
<title>unilink/builder/tcp_server_builder.hpp</title>
<polygon fill="white" stroke="transparent" points="-4,4 -4,-348 1425.02,-348 1425.02,4 -4,4"/>
<!-- Node1 -->
<g id="node1" class="node">
<title>Node1</title>
<g id="a_node1"><a xlink:title=" ">
<polygon fill="#bfbfbf" stroke="black" points="98,-313.5 98,-343.5 210,-343.5 210,-313.5 98,-313.5"/>
<text text-anchor="start" x="106" y="-331.5" font-family="Helvetica,sans-Serif" font-size="10.00">unilink/builder/tcp</text>
<text text-anchor="middle" x="154" y="-320.5" font-family="Helvetica,sans-Serif" font-size="10.00">_server_builder.hpp</text>
</a>
</g>
</g>
<!-- Node2 -->
<g id="node2" class="node">
<title>Node2</title>
<g id="a_node2"><a xlink:title=" ">
<polygon fill="white" stroke="#bfbfbf" points="0,-252 0,-271 50,-271 50,-252 0,-252"/>
<text text-anchor="middle" x="25" y="-259" font-family="Helvetica,sans-Serif" font-size="10.00">chrono</text>
</a>
</g>
</g>
<!-- Node1&#45;&gt;Node2 -->
<g id="edge1" class="edge">
<title>Node1&#45;&gt;Node2</title>
<path fill="none" stroke="midnightblue" d="M126.01,-313.4C103.67,-302.14 72.63,-286.5 50.87,-275.54"/>
<polygon fill="midnightblue" stroke="midnightblue" points="52.39,-272.38 41.88,-271.01 49.24,-278.63 52.39,-272.38"/>
</g>
<!-- Node3 -->
<g id="node3" class="node">
<title>Node3</title>
<g id="a_node3"><a xlink:title=" ">
<polygon fill="white" stroke="#bfbfbf" points="198,-0.5 198,-19.5 248,-19.5 248,-0.5 198,-0.5"/>
<text text-anchor="middle" x="223" y="-7.5" font-family="Helvetica,sans-Serif" font-size="10.00">cstdint</text>
</a>
</g>
</g>
<!-- Node1&#45;&gt;Node3 -->
<g id="edge2" class="edge">
<title>Node1&#45;&gt;Node3</title>
<path fill="none" stroke="midnightblue" d="M138.98,-313.23C116.84,-290.55 78,-243.89 78,-195.5 78,-195.5 78,-195.5 78,-132 78,-74.81 145.31,-39.39 188.21,-22.61"/>
<polygon fill="midnightblue" stroke="midnightblue" points="189.61,-25.82 197.74,-19.03 187.15,-19.27 189.61,-25.82"/>
</g>
<!-- Node4 -->
<g id="node4" class="node">
<title>Node4</title>
<g id="a_node4"><a xlink:title=" ">
<polygon fill="white" stroke="#bfbfbf" points="197.5,-62 197.5,-81 262.5,-81 262.5,-62 197.5,-62"/>
<text text-anchor="middle" x="230" y="-69" font-family="Helvetica,sans-Serif" font-size="10.00">functional</text>
</a>
</g>
</g>
<!-- Node1&#45;&gt;Node4 -->
<g id="edge3" class="edge">
<title>Node1&#45;&gt;Node4</title>
<path fill="none" stroke="midnightblue" d="M156.78,-313.36C163.56,-279.79 182.26,-192.83 207,-123 210.92,-111.93 216.32,-99.95 220.91,-90.44"/>
<polygon fill="midnightblue" stroke="midnightblue" points="224.16,-91.76 225.45,-81.25 217.88,-88.66 224.16,-91.76"/>
</g>
<!-- Node5 -->
<g id="node5" class="node">
<title>Node5</title>
<g id="a_node5"><a xlink:href="visibility_8hpp.html" target="_top" xlink:title=" ">
<polygon fill="white" stroke="black" points="312,-62 312,-81 452,-81 452,-62 312,-62"/>
<text text-anchor="middle" x="382" y="-69" font-family="Helvetica,sans-Serif" font-size="10.00">unilink/base/visibility.hpp</text>
</a>
</g>
</g>
<!-- Node1&#45;&gt;Node5 -->
<g id="edge4" class="edge">
<title>Node1&#45;&gt;Node5</title>
<path fill="none" stroke="midnightblue" d="M164.19,-313.36C189.22,-279.06 256.44,-189.35 322,-123 334.63,-110.22 350.18,-97.2 362.29,-87.58"/>
<polygon fill="midnightblue" stroke="midnightblue" points="364.69,-90.14 370.4,-81.22 360.37,-84.63 364.69,-90.14"/>
</g>
<!-- Node6 -->
<g id="node6" class="node">
<title>Node6</title>
<g id="a_node6"><a xlink:href="ibuilder_8hpp.html" target="_top" xlink:title=" ">
<polygon fill="white" stroke="black" points="606,-252 606,-271 752,-271 752,-252 606,-252"/>
<text text-anchor="middle" x="679" y="-259" font-family="Helvetica,sans-Serif" font-size="10.00">unilink/builder/ibuilder.hpp</text>
</a>
</g>
</g>
<!-- Node1&#45;&gt;Node6 -->
<g id="edge5" class="edge">
<title>Node1&#45;&gt;Node6</title>
<path fill="none" stroke="midnightblue" d="M210.18,-320.54C303.97,-308.93 492.69,-285.57 599.88,-272.3"/>
<polygon fill="midnightblue" stroke="midnightblue" points="600.5,-275.75 609.99,-271.04 599.64,-268.8 600.5,-275.75"/>
</g>
<!-- Node20 -->
<g id="node20" class="node">
<title>Node20</title>
<g id="a_node20"><a xlink:href="wrapper_2tcp__server_2tcp__server_8hpp.html" target="_top" xlink:title=" ">
<polygon fill="white" stroke="black" points="976.5,-246.5 976.5,-276.5 1103.5,-276.5 1103.5,-246.5 976.5,-246.5"/>
<text text-anchor="start" x="984.5" y="-264.5" font-family="Helvetica,sans-Serif" font-size="10.00">unilink/wrapper/tcp</text>
<text text-anchor="middle" x="1040" y="-253.5" font-family="Helvetica,sans-Serif" font-size="10.00">_server/tcp_server.hpp</text>
</a>
</g>
</g>
<!-- Node1&#45;&gt;Node20 -->
<g id="edge40" class="edge">
<title>Node1&#45;&gt;Node20</title>
<path fill="none" stroke="midnightblue" d="M210.1,-323.38C364.04,-312.09 793.1,-280.61 966.2,-267.91"/>
<polygon fill="midnightblue" stroke="midnightblue" points="966.52,-271.4 976.23,-267.18 966,-264.42 966.52,-271.4"/>
</g>
<!-- Node6&#45;&gt;Node4 -->
<g id="edge6" class="edge">
<title>Node6&#45;&gt;Node4</title>
<path fill="none" stroke="midnightblue" d="M605.96,-254.97C540.01,-248.59 440.9,-235.5 358,-210 291.3,-189.48 253.36,-201.94 216,-143 205.9,-127.07 212.61,-105.38 219.79,-90.28"/>
<polygon fill="midnightblue" stroke="midnightblue" points="223.1,-91.52 224.64,-81.03 216.9,-88.26 223.1,-91.52"/>
</g>
<!-- Node6&#45;&gt;Node5 -->
<g id="edge11" class="edge">
<title>Node6&#45;&gt;Node5</title>
<path fill="none" stroke="midnightblue" d="M605.98,-260.07C522.65,-255.1 390.16,-232.56 330,-143 316.56,-122.98 339.71,-100.72 359.28,-86.67"/>
<polygon fill="midnightblue" stroke="midnightblue" points="361.31,-89.53 367.61,-81.01 357.37,-83.74 361.31,-89.53"/>
</g>
<!-- Node7 -->
<g id="node7" class="node">
<title>Node7</title>
<g id="a_node7"><a xlink:title=" ">
<polygon fill="white" stroke="#bfbfbf" points="1320,-62 1320,-81 1378,-81 1378,-62 1320,-62"/>
<text text-anchor="middle" x="1349" y="-69" font-family="Helvetica,sans-Serif" font-size="10.00">memory</text>
</a>
</g>
</g>
<!-- Node6&#45;&gt;Node7 -->
<g id="edge7" class="edge">
<title>Node6&#45;&gt;Node7</title>
<path fill="none" stroke="midnightblue" d="M752.24,-255.89C890.13,-246.88 1178.29,-226.39 1221,-210 1267.56,-192.13 1278.4,-180.73 1311,-143 1324.74,-127.1 1335.5,-105.4 1342.01,-90.3"/>
<polygon fill="midnightblue" stroke="midnightblue" points="1345.25,-91.62 1345.82,-81.04 1338.78,-88.95 1345.25,-91.62"/>
</g>
<!-- Node8 -->
<g id="node8" class="node">
<title>Node8</title>
<g id="a_node8"><a xlink:title=" ">
<polygon fill="white" stroke="#bfbfbf" points="983,-0.5 983,-19.5 1027,-19.5 1027,-0.5 983,-0.5"/>
<text text-anchor="middle" x="1005" y="-7.5" font-family="Helvetica,sans-Serif" font-size="10.00">string</text>
</a>
</g>
</g>
<!-- Node6&#45;&gt;Node8 -->
<g id="edge8" class="edge">
<title>Node6&#45;&gt;Node8</title>
<path fill="none" stroke="midnightblue" d="M739.26,-251.92C772.12,-244.9 812.08,-232.32 842,-210 908,-160.77 888.37,-115.78 945,-56 955.99,-44.4 970.23,-33.58 982.08,-25.46"/>
<polygon fill="midnightblue" stroke="midnightblue" points="984.19,-28.26 990.58,-19.81 980.32,-22.43 984.19,-28.26"/>
</g>
<!-- Node9 -->
<g id="node9" class="node">
<title>Node9</title>
<g id="a_node9"><a xlink:title=" ">
<polygon fill="white" stroke="#bfbfbf" points="1186.5,-62 1186.5,-81 1259.5,-81 1259.5,-62 1186.5,-62"/>
<text text-anchor="middle" x="1223" y="-69" font-family="Helvetica,sans-Serif" font-size="10.00">string_view</text>
</a>
</g>
</g>
<!-- Node6&#45;&gt;Node9 -->
<g id="edge9" class="edge">
<title>Node6&#45;&gt;Node9</title>
<path fill="none" stroke="midnightblue" d="M752.16,-258.78C901.94,-253.44 1234.53,-231.64 1295,-143 1310.54,-120.22 1279.64,-98.76 1253.6,-85.64"/>
<polygon fill="midnightblue" stroke="midnightblue" points="1254.85,-82.35 1244.32,-81.19 1251.83,-88.67 1254.85,-82.35"/>
</g>
<!-- Node10 -->
<g id="node10" class="node">
<title>Node10</title>
<g id="a_node10"><a xlink:title=" ">
<polygon fill="white" stroke="#bfbfbf" points="712.5,-62 712.5,-81 759.5,-81 759.5,-62 712.5,-62"/>
<text text-anchor="middle" x="736" y="-69" font-family="Helvetica,sans-Serif" font-size="10.00">vector</text>
</a>
</g>
</g>
<!-- Node6&#45;&gt;Node10 -->
<g id="edge10" class="edge">
<title>Node6&#45;&gt;Node10</title>
<path fill="none" stroke="midnightblue" d="M681.6,-251.93C690.28,-223.31 718.41,-130.53 730.45,-90.81"/>
<polygon fill="midnightblue" stroke="midnightblue" points="733.84,-91.7 733.39,-81.12 727.14,-89.67 733.84,-91.7"/>
</g>
<!-- Node11 -->
<g id="node11" class="node">
<title>Node11</title>
<g id="a_node11"><a xlink:href="iframer_8hpp.html" target="_top" xlink:title=" ">
<polygon fill="white" stroke="black" points="524.5,-123.5 524.5,-142.5 669.5,-142.5 669.5,-123.5 524.5,-123.5"/>
<text text-anchor="middle" x="597" y="-130.5" font-family="Helvetica,sans-Serif" font-size="10.00">unilink/framer/iframer.hpp</text>
</a>
</g>
</g>
<!-- Node6&#45;&gt;Node11 -->
<g id="edge12" class="edge">
<title>Node6&#45;&gt;Node11</title>
<path fill="none" stroke="midnightblue" d="M675.94,-251.93C670.22,-236.54 656.94,-203.52 640,-179 632.65,-168.35 622.77,-157.82 614.33,-149.63"/>
<polygon fill="midnightblue" stroke="midnightblue" points="616.5,-146.86 606.81,-142.56 611.7,-151.96 616.5,-146.86"/>
</g>
<!-- Node12 -->
<g id="node12" class="node">
<title>Node12</title>
<g id="a_node12"><a xlink:href="safe__span_8hpp.html" target="_top" xlink:title=" ">
<polygon fill="white" stroke="black" points="504,-56.5 504,-86.5 622,-86.5 622,-56.5 504,-56.5"/>
<text text-anchor="start" x="512" y="-74.5" font-family="Helvetica,sans-Serif" font-size="10.00">unilink/memory/safe</text>
<text text-anchor="middle" x="563" y="-63.5" font-family="Helvetica,sans-Serif" font-size="10.00">_span.hpp</text>
</a>
</g>
</g>
<!-- Node6&#45;&gt;Node12 -->
<g id="edge31" class="edge">
<title>Node6&#45;&gt;Node12</title>
<path fill="none" stroke="midnightblue" d="M622.48,-251.99C576.11,-243.72 515.77,-229.54 501,-210 492.49,-198.74 501.01,-134.75 507,-123 512.95,-111.34 522.8,-101.08 532.59,-92.91"/>
<polygon fill="midnightblue" stroke="midnightblue" points="534.99,-95.47 540.71,-86.56 530.68,-89.96 534.99,-95.47"/>
</g>
<!-- Node15 -->
<g id="node15" class="node">
<title>Node15</title>
<g id="a_node15"><a xlink:href="line__framer_8hpp.html" target="_top" xlink:title=" ">
<polygon fill="white" stroke="black" points="726.5,-179.5 726.5,-209.5 833.5,-209.5 833.5,-179.5 726.5,-179.5"/>
<text text-anchor="start" x="734.5" y="-197.5" font-family="Helvetica,sans-Serif" font-size="10.00">unilink/framer/line</text>
<text text-anchor="middle" x="780" y="-186.5" font-family="Helvetica,sans-Serif" font-size="10.00">_framer.hpp</text>
</a>
</g>
</g>
<!-- Node6&#45;&gt;Node15 -->
<g id="edge21" class="edge">
<title>Node6&#45;&gt;Node15</title>
<path fill="none" stroke="midnightblue" d="M692.62,-251.73C707.12,-242.4 730.55,-227.32 749.5,-215.13"/>
<polygon fill="midnightblue" stroke="midnightblue" points="751.59,-217.94 758.11,-209.59 747.8,-212.06 751.59,-217.94"/>
</g>
<!-- Node16 -->
<g id="node16" class="node">
<title>Node16</title>
<g id="a_node16"><a xlink:href="packet__framer_8hpp.html" target="_top" xlink:title=" ">
<polygon fill="white" stroke="black" points="510.5,-179.5 510.5,-209.5 631.5,-209.5 631.5,-179.5 510.5,-179.5"/>
<text text-anchor="start" x="518.5" y="-197.5" font-family="Helvetica,sans-Serif" font-size="10.00">unilink/framer/packet</text>
<text text-anchor="middle" x="571" y="-186.5" font-family="Helvetica,sans-Serif" font-size="10.00">_framer.hpp</text>
</a>
</g>
</g>
<!-- Node6&#45;&gt;Node16 -->
<g id="edge27" class="edge">
<title>Node6&#45;&gt;Node16</title>
<path fill="none" stroke="midnightblue" d="M664.43,-251.73C648.79,-242.32 623.42,-227.05 603.07,-214.8"/>
<polygon fill="midnightblue" stroke="midnightblue" points="604.78,-211.75 594.41,-209.59 601.17,-217.74 604.78,-211.75"/>
</g>
<!-- Node17 -->
<g id="node17" class="node">
<title>Node17</title>
<g id="a_node17"><a xlink:href="context_8hpp.html" target="_top" xlink:title=" ">
<polygon fill="white" stroke="black" points="954.5,-123.5 954.5,-142.5 1107.5,-142.5 1107.5,-123.5 954.5,-123.5"/>
<text text-anchor="middle" x="1031" y="-130.5" font-family="Helvetica,sans-Serif" font-size="10.00">unilink/wrapper/context.hpp</text>
</a>
</g>
</g>
<!-- Node6&#45;&gt;Node17 -->
<g id="edge32" class="edge">
<title>Node6&#45;&gt;Node17</title>
<path fill="none" stroke="midnightblue" d="M722.82,-251.97C763.27,-243.46 824.66,-228.94 876,-210 924.21,-192.22 977.36,-164.17 1007.22,-147.58"/>
<polygon fill="midnightblue" stroke="midnightblue" points="1009.05,-150.56 1016.06,-142.62 1005.62,-144.46 1009.05,-150.56"/>
</g>
<!-- Node11&#45;&gt;Node4 -->
<g id="edge13" class="edge">
<title>Node11&#45;&gt;Node4</title>
<path fill="none" stroke="midnightblue" d="M536.06,-123.47C476.51,-114.95 383.35,-101.12 303,-87 293.18,-85.27 282.64,-83.27 272.72,-81.31"/>
<polygon fill="midnightblue" stroke="midnightblue" points="273.14,-77.83 262.65,-79.3 271.77,-84.69 273.14,-77.83"/>
</g>
<!-- Node11&#45;&gt;Node5 -->
<g id="edge16" class="edge">
<title>Node11&#45;&gt;Node5</title>
<path fill="none" stroke="midnightblue" d="M566.2,-123.48C528.44,-113.03 464.34,-95.29 422.59,-83.73"/>
<polygon fill="midnightblue" stroke="midnightblue" points="423.32,-80.3 412.75,-81.01 421.45,-87.05 423.32,-80.3"/>
</g>
<!-- Node11&#45;&gt;Node7 -->
<g id="edge14" class="edge">
<title>Node11&#45;&gt;Node7</title>
<path fill="none" stroke="midnightblue" d="M669.85,-129.81C793.45,-125.48 1052,-113.85 1269,-87 1282.37,-85.35 1296.9,-82.91 1309.86,-80.5"/>
<polygon fill="midnightblue" stroke="midnightblue" points="1310.7,-83.91 1319.86,-78.59 1309.38,-77.03 1310.7,-83.91"/>
</g>
<!-- Node11&#45;&gt;Node10 -->
<g id="edge15" class="edge">
<title>Node11&#45;&gt;Node10</title>
<path fill="none" stroke="midnightblue" d="M616.92,-123.48C640.45,-113.4 679.81,-96.55 706.79,-85"/>
<polygon fill="midnightblue" stroke="midnightblue" points="708.31,-88.16 716.12,-81.01 705.55,-81.73 708.31,-88.16"/>
</g>
<!-- Node11&#45;&gt;Node12 -->
<g id="edge17" class="edge">
<title>Node11&#45;&gt;Node12</title>
<path fill="none" stroke="midnightblue" d="M592.13,-123.48C587.95,-116.17 581.74,-105.3 576.13,-95.47"/>
<polygon fill="midnightblue" stroke="midnightblue" points="579.01,-93.47 571.01,-86.52 572.94,-96.94 579.01,-93.47"/>
</g>
<!-- Node12&#45;&gt;Node3 -->
<g id="edge18" class="edge">
<title>Node12&#45;&gt;Node3</title>
<path fill="none" stroke="midnightblue" d="M503.78,-60.14C432.85,-47.72 316.35,-27.34 258.25,-17.17"/>
<polygon fill="midnightblue" stroke="midnightblue" points="258.56,-13.67 248.1,-15.39 257.35,-20.56 258.56,-13.67"/>
</g>
<!-- Node13 -->
<g id="node13" class="node">
<title>Node13</title>
<g id="a_node13"><a xlink:title=" ">
<polygon fill="white" stroke="#bfbfbf" points="487.5,-0.5 487.5,-19.5 552.5,-19.5 552.5,-0.5 487.5,-0.5"/>
<text text-anchor="middle" x="520" y="-7.5" font-family="Helvetica,sans-Serif" font-size="10.00">stdexcept</text>
</a>
</g>
</g>
<!-- Node12&#45;&gt;Node13 -->
<g id="edge19" class="edge">
<title>Node12&#45;&gt;Node13</title>
<path fill="none" stroke="midnightblue" d="M552.81,-56.4C546.63,-47.84 538.7,-36.87 532.18,-27.86"/>
<polygon fill="midnightblue" stroke="midnightblue" points="534.95,-25.71 526.26,-19.66 529.28,-29.81 534.95,-25.71"/>
</g>
<!-- Node14 -->
<g id="node14" class="node">
<title>Node14</title>
<g id="a_node14"><a xlink:title=" ">
<polygon fill="white" stroke="#bfbfbf" points="570.5,-0.5 570.5,-19.5 639.5,-19.5 639.5,-0.5 570.5,-0.5"/>
<text text-anchor="middle" x="605" y="-7.5" font-family="Helvetica,sans-Serif" font-size="10.00">type_traits</text>
</a>
</g>
</g>
<!-- Node12&#45;&gt;Node14 -->
<g id="edge20" class="edge">
<title>Node12&#45;&gt;Node14</title>
<path fill="none" stroke="midnightblue" d="M572.95,-56.4C578.99,-47.84 586.74,-36.87 593.1,-27.86"/>
<polygon fill="midnightblue" stroke="midnightblue" points="595.98,-29.85 598.89,-19.66 590.26,-25.81 595.98,-29.85"/>
</g>
<!-- Node15&#45;&gt;Node5 -->
<g id="edge25" class="edge">
<title>Node15&#45;&gt;Node5</title>
<path fill="none" stroke="midnightblue" d="M726.49,-188.06C672.08,-181.44 585.92,-167.92 515,-143 473.5,-128.42 429.07,-102.53 403.51,-86.51"/>
<polygon fill="midnightblue" stroke="midnightblue" points="405.3,-83.5 394.99,-81.1 401.55,-89.41 405.3,-83.5"/>
</g>
<!-- Node15&#45;&gt;Node8 -->
<g id="edge22" class="edge">
<title>Node15&#45;&gt;Node8</title>
<path fill="none" stroke="midnightblue" d="M790.66,-179.44C811.54,-152.63 860.33,-93.53 912,-56 930.91,-42.27 954.66,-30.86 973.43,-22.96"/>
<polygon fill="midnightblue" stroke="midnightblue" points="974.8,-26.18 982.73,-19.16 972.15,-19.7 974.8,-26.18"/>
</g>
<!-- Node15&#45;&gt;Node9 -->
<g id="edge23" class="edge">
<title>Node15&#45;&gt;Node9</title>
<path fill="none" stroke="midnightblue" d="M833.59,-188.34C915.16,-180 1066.35,-162.52 1117,-143 1126.21,-139.45 1174.2,-106.52 1202.35,-86.94"/>
<polygon fill="midnightblue" stroke="midnightblue" points="1204.51,-89.7 1210.71,-81.11 1200.51,-83.96 1204.51,-89.7"/>
</g>
<!-- Node15&#45;&gt;Node10 -->
<g id="edge24" class="edge">
<title>Node15&#45;&gt;Node10</title>
<path fill="none" stroke="midnightblue" d="M774.21,-179.42C770.11,-169.33 764.56,-155.39 760,-143 753.52,-125.4 746.68,-105.12 741.97,-90.84"/>
<polygon fill="midnightblue" stroke="midnightblue" points="745.26,-89.64 738.82,-81.23 738.61,-91.82 745.26,-89.64"/>
</g>
<!-- Node15&#45;&gt;Node11 -->
<g id="edge26" class="edge">
<title>Node15&#45;&gt;Node11</title>
<path fill="none" stroke="midnightblue" d="M736.63,-179.4C705.01,-169.12 662.67,-155.35 632.93,-145.68"/>
<polygon fill="midnightblue" stroke="midnightblue" points="633.95,-142.33 623.36,-142.57 631.79,-148.99 633.95,-142.33"/>
</g>
<!-- Node16&#45;&gt;Node5 -->
<g id="edge29" class="edge">
<title>Node16&#45;&gt;Node5</title>
<path fill="none" stroke="midnightblue" d="M510.21,-180.98C469.68,-171.53 421.16,-157.7 406,-143 391.96,-129.39 386.13,-107.24 383.71,-91.4"/>
<polygon fill="midnightblue" stroke="midnightblue" points="387.15,-90.71 382.49,-81.2 380.2,-91.55 387.15,-90.71"/>
</g>
<!-- Node16&#45;&gt;Node10 -->
<g id="edge28" class="edge">
<title>Node16&#45;&gt;Node10</title>
<path fill="none" stroke="midnightblue" d="M546.7,-179.44C525.18,-165.21 499.41,-142.56 515,-123 526.69,-108.34 643.43,-87.52 702.35,-77.84"/>
<polygon fill="midnightblue" stroke="midnightblue" points="702.99,-81.28 712.3,-76.22 701.87,-74.37 702.99,-81.28"/>
</g>
<!-- Node16&#45;&gt;Node11 -->
<g id="edge30" class="edge">
<title>Node16&#45;&gt;Node11</title>
<path fill="none" stroke="midnightblue" d="M577.16,-179.4C580.74,-171.2 585.3,-160.78 589.14,-151.99"/>
<polygon fill="midnightblue" stroke="midnightblue" points="592.42,-153.22 593.22,-142.66 586.01,-150.42 592.42,-153.22"/>
</g>
<!-- Node17&#45;&gt;Node8 -->
<g id="edge34" class="edge">
<title>Node17&#45;&gt;Node8</title>
<path fill="none" stroke="midnightblue" d="M1082.53,-123.44C1103.73,-117.1 1126.27,-106.1 1139,-87 1146.64,-75.54 1147.04,-67.19 1139,-56 1115.96,-23.96 1068.99,-14.41 1037.24,-11.75"/>
<polygon fill="midnightblue" stroke="midnightblue" points="1037.32,-8.25 1027.12,-11.08 1036.87,-15.23 1037.32,-8.25"/>
</g>
<!-- Node17&#45;&gt;Node9 -->
<g id="edge35" class="edge">
<title>Node17&#45;&gt;Node9</title>
<path fill="none" stroke="midnightblue" d="M1058.51,-123.48C1091.87,-113.14 1148.26,-95.66 1185.56,-84.1"/>
<polygon fill="midnightblue" stroke="midnightblue" points="1187.03,-87.31 1195.54,-81.01 1184.95,-80.63 1187.03,-87.31"/>
</g>
<!-- Node17&#45;&gt;Node10 -->
<g id="edge36" class="edge">
<title>Node17&#45;&gt;Node10</title>
<path fill="none" stroke="midnightblue" d="M988.73,-123.48C929.74,-111.58 823.87,-90.22 769.8,-79.32"/>
<polygon fill="midnightblue" stroke="midnightblue" points="770.2,-75.83 759.7,-77.28 768.81,-82.69 770.2,-75.83"/>
</g>
<!-- Node17&#45;&gt;Node12 -->
<g id="edge39" class="edge">
<title>Node17&#45;&gt;Node12</title>
<path fill="none" stroke="midnightblue" d="M963.95,-123.48C875.73,-112.26 721.45,-92.64 632.18,-81.3"/>
<polygon fill="midnightblue" stroke="midnightblue" points="632.52,-77.81 622.16,-80.02 631.63,-84.75 632.52,-77.81"/>
</g>
<!-- Node18 -->
<g id="node18" class="node">
<title>Node18</title>
<g id="a_node18"><a xlink:title=" ">
<polygon fill="white" stroke="#bfbfbf" points="1074,-62 1074,-81 1130,-81 1130,-62 1074,-62"/>
<text text-anchor="middle" x="1102" y="-69" font-family="Helvetica,sans-Serif" font-size="10.00">optional</text>
</a>
</g>
</g>
<!-- Node17&#45;&gt;Node18 -->
<g id="edge33" class="edge">
<title>Node17&#45;&gt;Node18</title>
<path fill="none" stroke="midnightblue" d="M1041.17,-123.48C1052.35,-114.11 1070.52,-98.88 1084.09,-87.51"/>
<polygon fill="midnightblue" stroke="midnightblue" points="1086.43,-90.11 1091.85,-81.01 1081.93,-84.75 1086.43,-90.11"/>
</g>
<!-- Node19 -->
<g id="node19" class="node">
<title>Node19</title>
<g id="a_node19"><a xlink:href="error__codes_8hpp.html" target="_top" xlink:title=" ">
<polygon fill="white" stroke="black" points="954,-56.5 954,-86.5 1056,-86.5 1056,-56.5 954,-56.5"/>
<text text-anchor="start" x="962" y="-74.5" font-family="Helvetica,sans-Serif" font-size="10.00">unilink/base/error</text>
<text text-anchor="middle" x="1005" y="-63.5" font-family="Helvetica,sans-Serif" font-size="10.00">_codes.hpp</text>
</a>
</g>
</g>
<!-- Node17&#45;&gt;Node19 -->
<g id="edge37" class="edge">
<title>Node17&#45;&gt;Node19</title>
<path fill="none" stroke="midnightblue" d="M1027.27,-123.48C1024.12,-116.25 1019.43,-105.53 1015.17,-95.78"/>
<polygon fill="midnightblue" stroke="midnightblue" points="1018.34,-94.28 1011.13,-86.52 1011.92,-97.09 1018.34,-94.28"/>
</g>
<!-- Node19&#45;&gt;Node8 -->
<g id="edge38" class="edge">
<title>Node19&#45;&gt;Node8</title>
<path fill="none" stroke="midnightblue" d="M1005,-56.4C1005,-48.47 1005,-38.46 1005,-29.86"/>
<polygon fill="midnightblue" stroke="midnightblue" points="1008.5,-29.66 1005,-19.66 1001.5,-29.66 1008.5,-29.66"/>
</g>
<!-- Node20&#45;&gt;Node4 -->
<g id="edge41" class="edge">
<title>Node20&#45;&gt;Node4</title>
<path fill="none" stroke="midnightblue" d="M976.32,-257.3C828.23,-249.57 469.37,-229.12 418,-210 344.94,-182.81 275.31,-118.6 245.37,-88.54"/>
<polygon fill="midnightblue" stroke="midnightblue" points="247.82,-86.04 238.32,-81.35 242.82,-90.95 247.82,-86.04"/>
</g>
<!-- Node20&#45;&gt;Node5 -->
<g id="edge47" class="edge">
<title>Node20&#45;&gt;Node5</title>
<path fill="none" stroke="midnightblue" d="M976.19,-258.06C853.19,-252.77 587.76,-238.39 501,-210 445.87,-191.96 420.07,-191.98 389,-143 379.23,-127.61 378.43,-106.4 379.48,-91.28"/>
<polygon fill="midnightblue" stroke="midnightblue" points="382.99,-91.4 380.53,-81.1 376.03,-90.69 382.99,-91.4"/>
</g>
<!-- Node20&#45;&gt;Node7 -->
<g id="edge43" class="edge">
<title>Node20&#45;&gt;Node7</title>
<path fill="none" stroke="midnightblue" d="M1103.7,-253.02C1154.29,-245.76 1226.21,-232.47 1286,-210 1342.45,-188.79 1373.66,-195.12 1404,-143 1416.25,-121.96 1392.86,-100.25 1372.89,-86.58"/>
<polygon fill="midnightblue" stroke="midnightblue" points="1374.68,-83.56 1364.38,-81.07 1370.87,-89.44 1374.68,-83.56"/>
</g>
<!-- Node20&#45;&gt;Node8 -->
<g id="edge44" class="edge">
<title>Node20&#45;&gt;Node8</title>
<path fill="none" stroke="midnightblue" d="M1103.7,-259.81C1166.96,-256.88 1265.32,-246.18 1342,-210 1388.7,-187.97 1430.41,-173.36 1419,-123 1411.71,-90.82 1413.83,-75.21 1387,-56 1331.2,-16.06 1118.79,-11.25 1037.19,-10.9"/>
<polygon fill="midnightblue" stroke="midnightblue" points="1037.02,-7.4 1027.02,-10.88 1037.01,-14.4 1037.02,-7.4"/>
</g>
<!-- Node20&#45;&gt;Node9 -->
<g id="edge45" class="edge">
<title>Node20&#45;&gt;Node9</title>
<path fill="none" stroke="midnightblue" d="M1103.66,-254.77C1172.31,-244.8 1278.42,-217.52 1328,-143 1346.57,-115.1 1305.66,-95.4 1269.6,-84.05"/>
<polygon fill="midnightblue" stroke="midnightblue" points="1270.2,-80.57 1259.61,-81.07 1268.2,-87.28 1270.2,-80.57"/>
</g>
<!-- Node20&#45;&gt;Node10 -->
<g id="edge46" class="edge">
<title>Node20&#45;&gt;Node10</title>
<path fill="none" stroke="midnightblue" d="M1016.71,-246.41C1000.05,-236.32 977.11,-222.37 957,-210 884.31,-165.28 798.59,-111.71 758.63,-86.68"/>
<polygon fill="midnightblue" stroke="midnightblue" points="760.27,-83.58 749.93,-81.24 756.55,-89.51 760.27,-83.58"/>
</g>
<!-- Node21 -->
<g id="node21" class="node">
<title>Node21</title>
<g id="a_node21"><a xlink:title=" ">
<polygon fill="white" stroke="#bfbfbf" points="1240,-123.5 1240,-142.5 1286,-142.5 1286,-123.5 1240,-123.5"/>
<text text-anchor="middle" x="1263" y="-130.5" font-family="Helvetica,sans-Serif" font-size="10.00">future</text>
</a>
</g>
</g>
<!-- Node20&#45;&gt;Node21 -->
<g id="edge42" class="edge">
<title>Node20&#45;&gt;Node21</title>
<path fill="none" stroke="midnightblue" d="M1064.72,-246.48C1107.84,-222.02 1196.27,-171.85 1238.93,-147.65"/>
<polygon fill="midnightblue" stroke="midnightblue" points="1240.82,-150.61 1247.79,-142.63 1237.36,-144.52 1240.82,-150.61"/>
</g>
<!-- Node22 -->
<g id="node22" class="node">
<title>Node22</title>
<g id="a_node22"><a xlink:href="iserver_8hpp.html" target="_top" xlink:title=" ">
<polygon fill="white" stroke="black" points="965.5,-185 965.5,-204 1114.5,-204 1114.5,-185 965.5,-185"/>
<text text-anchor="middle" x="1040" y="-192" font-family="Helvetica,sans-Serif" font-size="10.00">unilink/wrapper/iserver.hpp</text>
</a>
</g>
</g>
<!-- Node20&#45;&gt;Node22 -->
<g id="edge48" class="edge">
<title>Node20&#45;&gt;Node22</title>
<path fill="none" stroke="midnightblue" d="M1040,-246.4C1040,-237.06 1040,-224.71 1040,-214.52"/>
<polygon fill="midnightblue" stroke="midnightblue" points="1043.5,-214.19 1040,-204.19 1036.5,-214.19 1043.5,-214.19"/>
</g>
<!-- Node22&#45;&gt;Node4 -->
<g id="edge49" class="edge">
<title>Node22&#45;&gt;Node4</title>
<path fill="none" stroke="midnightblue" d="M965.03,-187.65C841.27,-177.77 599.5,-157.44 515,-143 425.55,-127.72 322.69,-99.6 268.32,-83.88"/>
<polygon fill="midnightblue" stroke="midnightblue" points="269.01,-80.44 258.43,-81.01 267.05,-87.16 269.01,-80.44"/>
</g>
<!-- Node22&#45;&gt;Node5 -->
<g id="edge54" class="edge">
<title>Node22&#45;&gt;Node5</title>
<path fill="none" stroke="midnightblue" d="M997.98,-184.99C930.57,-171.4 794.05,-144.2 678,-123 597.4,-108.28 504.21,-92.6 444.26,-82.69"/>
<polygon fill="midnightblue" stroke="midnightblue" points="444.63,-79.2 434.2,-81.03 443.49,-86.11 444.63,-79.2"/>
</g>
<!-- Node22&#45;&gt;Node7 -->
<g id="edge51" class="edge">
<title>Node22&#45;&gt;Node7</title>
<path fill="none" stroke="midnightblue" d="M1063.67,-184.97C1090.87,-175.1 1136.8,-158.26 1176,-143 1226.48,-123.35 1284.72,-99.33 1319.12,-85.01"/>
<polygon fill="midnightblue" stroke="midnightblue" points="1320.7,-88.14 1328.58,-81.07 1318,-81.68 1320.7,-88.14"/>
</g>
<!-- Node22&#45;&gt;Node9 -->
<g id="edge52" class="edge">
<title>Node22&#45;&gt;Node9</title>
<path fill="none" stroke="midnightblue" d="M1064.85,-184.87C1088,-176.2 1122.93,-161.49 1150,-143 1172.83,-127.41 1195.11,-104.44 1208.92,-88.99"/>
<polygon fill="midnightblue" stroke="midnightblue" points="1211.72,-91.11 1215.68,-81.29 1206.46,-86.5 1211.72,-91.11"/>
</g>
<!-- Node22&#45;&gt;Node10 -->
<g id="edge53" class="edge">
<title>Node22&#45;&gt;Node10</title>
<path fill="none" stroke="midnightblue" d="M1018.62,-184.99C965.88,-164 829.33,-109.65 767.38,-84.99"/>
<polygon fill="midnightblue" stroke="midnightblue" points="768.35,-81.61 757.76,-81.16 765.76,-88.11 768.35,-81.61"/>
</g>
<!-- Node22&#45;&gt;Node11 -->
<g id="edge55" class="edge">
<title>Node22&#45;&gt;Node11</title>
<path fill="none" stroke="midnightblue" d="M976.53,-184.98C895.6,-174.11 755.96,-155.35 670.5,-143.87"/>
<polygon fill="midnightblue" stroke="midnightblue" points="670.73,-140.37 660.35,-142.51 669.8,-147.31 670.73,-140.37"/>
</g>
<!-- Node22&#45;&gt;Node17 -->
<g id="edge56" class="edge">
<title>Node22&#45;&gt;Node17</title>
<path fill="none" stroke="midnightblue" d="M1038.71,-184.98C1037.44,-176.58 1035.46,-163.48 1033.82,-152.66"/>
<polygon fill="midnightblue" stroke="midnightblue" points="1037.24,-151.87 1032.29,-142.51 1030.32,-152.92 1037.24,-151.87"/>
</g>
<!-- Node22&#45;&gt;Node21 -->
<g id="edge50" class="edge">
<title>Node22&#45;&gt;Node21</title>
<path fill="none" stroke="midnightblue" d="M1071.95,-184.98C1114.01,-173.75 1187.57,-154.13 1230.09,-142.78"/>
<polygon fill="midnightblue" stroke="midnightblue" points="1231.19,-146.11 1239.95,-140.15 1229.38,-139.35 1231.19,-146.11"/>
</g>
</g>
</svg>
