<?xml version="1.0" encoding="UTF-8" standalone="no"?>
<!DOCTYPE svg PUBLIC "-//W3C//DTD SVG 1.1//EN"
 "http://www.w3.org/Graphics/SVG/1.1/DTD/svg11.dtd">
<!-- Generated by graphviz version 2.43.0 (0)
 -->
<!-- Title: unilink/config/tcp_client_config.hpp Pages: 1 -->
<svg width="1216pt" height="181pt"
 viewBox="0.00 0.00 1216.00 181.00" xmlns="http://www.w3.org/2000/svg" xmlns:xlink="http://www.w3.org/1999/xlink">
<g id="graph0" class="graph" transform="scale(1 1) rotate(0) translate(4 177)">
<title>unilink/config/tcp_client_config.hpp</title>
<!-- Node1 -->
<g id="Node000001" class="node">
<title>Node1</title>
<g id="a_Node000001"><a xlink:title=" ">
<polygon fill="#999999" stroke="#666666" points="317.5,-173 213.5,-173 213.5,-143 317.5,-143 317.5,-173"/>
<text text-anchor="start" x="221.5" y="-161" font-family="Helvetica,sans-Serif" font-size="10.00">unilink/config/tcp</text>
<text text-anchor="middle" x="265.5" y="-150" font-family="Helvetica,sans-Serif" font-size="10.00">_client_config.hpp</text>
</a>
</g>
</g>
<!-- Node2 -->
<g id="Node000002" class="node">
<title>Node2</title>
<g id="a_Node000002"><a xlink:href="channel__factory_8hpp.html" target="_top" xlink:title=" ">
<polygon fill="white" stroke="#666666" points="665.5,-101.5 537.5,-101.5 537.5,-71.5 665.5,-71.5 665.5,-101.5"/>
<text text-anchor="start" x="545.5" y="-89.5" font-family="Helvetica,sans-Serif" font-size="10.00">unilink/factory/channel</text>
<text text-anchor="middle" x="601.5" y="-78.5" font-family="Helvetica,sans-Serif" font-size="10.00">_factory.hpp</text>
</a>
</g>
</g>
<!-- Node1&#45;&gt;Node2 -->
<g id="edge1_Node000001_Node000002" class="edge">
<title>Node1&#45;&gt;Node2</title>
<g id="a_edge1_Node000001_Node000002"><a xlink:title=" ">
<path fill="none" stroke="#63b8ff" d="M327.68,-144.14C387.38,-131.79 477.15,-113.22 537.46,-100.75"/>
<polygon fill="#63b8ff" stroke="#63b8ff" points="326.72,-140.76 317.63,-146.22 328.13,-147.62 326.72,-140.76"/>
</a>
</g>
</g>
<!-- Node5 -->
<g id="Node000005" class="node">
<title>Node5</title>
<g id="a_Node000005"><a xlink:href="wrapper_2tcp__client_2tcp__client_8cc.html" target="_top" xlink:title=" ">
<polygon fill="white" stroke="#666666" points="395,-30 282,-30 282,0 395,0 395,-30"/>
<text text-anchor="start" x="290" y="-18" font-family="Helvetica,sans-Serif" font-size="10.00">unilink/wrapper/tcp</text>
<text text-anchor="middle" x="338.5" y="-7" font-family="Helvetica,sans-Serif" font-size="10.00">_client/tcp_client.cc</text>
</a>
</g>
</g>
<!-- Node1&#45;&gt;Node5 -->
<g id="edge16_Node000001_Node000005" class="edge">
<title>Node1&#45;&gt;Node5</title>
<g id="a_edge16_Node000001_Node000005"><a xlink:title=" ">
<path fill="none" stroke="#63b8ff" d="M277.48,-133.86C292.67,-104.52 318.41,-54.81 331.05,-30.4"/>
<polygon fill="#63b8ff" stroke="#63b8ff" points="274.26,-132.48 272.77,-142.96 280.47,-135.69 274.26,-132.48"/>
</a>
</g>
</g>
<!-- Node11 -->
<g id="Node000011" class="node">
<title>Node11</title>
<g id="a_Node000011"><a xlink:href="tcp__client_2detail_2reconnect__decider_8hpp.html" target="_top" xlink:title=" ">
<polygon fill="white" stroke="#666666" points="131,-107 0,-107 0,-66 131,-66 131,-107"/>
<text text-anchor="start" x="8" y="-95" font-family="Helvetica,sans-Serif" font-size="10.00">unilink/transport/tcp</text>
<text text-anchor="start" x="8" y="-84" font-family="Helvetica,sans-Serif" font-size="10.00">_client/detail/reconnect</text>
<text text-anchor="middle" x="65.5" y="-73" font-family="Helvetica,sans-Serif" font-size="10.00">_decider.hpp</text>
</a>
</g>
</g>
<!-- Node1&#45;&gt;Node11 -->
<g id="edge10_Node000001_Node000011" class="edge">
<title>Node1&#45;&gt;Node11</title>
<g id="a_edge10_Node000001_Node000011"><a xlink:title=" ">
<path fill="none" stroke="#63b8ff" d="M215.29,-139.55C186.86,-129.67 151.21,-117.28 121.83,-107.07"/>
<polygon fill="#63b8ff" stroke="#63b8ff" points="214.43,-142.96 225.03,-142.94 216.73,-136.35 214.43,-142.96"/>
</a>
</g>
</g>
<!-- Node13 -->
<g id="Node000013" class="node">
<title>Node13</title>
<g id="a_Node000013"><a xlink:href="transport_2tcp__client_2tcp__client_8hpp.html" target="_top" xlink:title=" ">
<polygon fill="white" stroke="#666666" points="281.5,-101.5 161.5,-101.5 161.5,-71.5 281.5,-71.5 281.5,-101.5"/>
<text text-anchor="start" x="169.5" y="-89.5" font-family="Helvetica,sans-Serif" font-size="10.00">unilink/transport/tcp</text>
<text text-anchor="middle" x="221.5" y="-78.5" font-family="Helvetica,sans-Serif" font-size="10.00">_client/tcp_client.hpp</text>
</a>
</g>
</g>
<!-- Node1&#45;&gt;Node13 -->
<g id="edge12_Node000001_Node000013" class="edge">
<title>Node1&#45;&gt;Node13</title>
<g id="a_edge12_Node000001_Node000013"><a xlink:title=" ">
<path fill="none" stroke="#63b8ff" d="M251.18,-134.38C244.33,-123.57 236.35,-110.96 230.39,-101.54"/>
<polygon fill="#63b8ff" stroke="#63b8ff" points="248.29,-136.36 256.6,-142.94 254.2,-132.61 248.29,-136.36"/>
</a>
</g>
</g>
<!-- Node3 -->
<g id="Node000003" class="node">
<title>Node3</title>
<g id="a_Node000003"><a xlink:href="channel__factory_8cc.html" target="_top" xlink:title=" ">
<polygon fill="white" stroke="#666666" points="263.5,-30 135.5,-30 135.5,0 263.5,0 263.5,-30"/>
<text text-anchor="start" x="143.5" y="-18" font-family="Helvetica,sans-Serif" font-size="10.00">unilink/factory/channel</text>
<text text-anchor="middle" x="199.5" y="-7" font-family="Helvetica,sans-Serif" font-size="10.00">_factory.cc</text>
</a>
</g>
</g>
<!-- Node2&#45;&gt;Node3 -->
<g id="edge2_Node000002_Node000003" class="edge">
<title>Node2&#45;&gt;Node3</title>
<g id="a_edge2_Node000002_Node000003"><a xlink:title=" ">
<path fill="none" stroke="#63b8ff" d="M527.43,-73.49C460.7,-62.55 359.93,-45.76 272.5,-30 269.58,-29.47 266.59,-28.93 263.58,-28.37"/>
<polygon fill="#63b8ff" stroke="#63b8ff" points="527,-76.97 537.43,-75.13 528.13,-70.06 527,-76.97"/>
</a>
</g>
</g>
<!-- Node4 -->
<g id="Node000004" class="node">
<title>Node4</title>
<g id="a_Node000004"><a xlink:href="wrapper_2serial_2serial_8cc.html" target="_top" xlink:title=" ">
<polygon fill="white" stroke="#666666" points="939.5,-30 817.5,-30 817.5,0 939.5,0 939.5,-30"/>
<text text-anchor="start" x="825.5" y="-18" font-family="Helvetica,sans-Serif" font-size="10.00">unilink/wrapper/serial</text>
<text text-anchor="middle" x="878.5" y="-7" font-family="Helvetica,sans-Serif" font-size="10.00">/serial.cc</text>
</a>
</g>
</g>
<!-- Node2&#45;&gt;Node4 -->
<g id="edge3_Node000002_Node000004" class="edge">
<title>Node2&#45;&gt;Node4</title>
<g id="a_edge3_Node000002_Node000004"><a xlink:title=" ">
<path fill="none" stroke="#63b8ff" d="M667.39,-68.97C714.67,-57.11 777.68,-41.3 822.53,-30.04"/>
<polygon fill="#63b8ff" stroke="#63b8ff" points="666.4,-65.61 657.56,-71.44 668.11,-72.4 666.4,-65.61"/>
</a>
</g>
</g>
<!-- Node2&#45;&gt;Node5 -->
<g id="edge4_Node000002_Node000005" class="edge">
<title>Node2&#45;&gt;Node5</title>
<g id="a_edge4_Node000002_Node000005"><a xlink:title=" ">
<path fill="none" stroke="#63b8ff" d="M538.37,-68.82C493.55,-56.97 434.04,-41.25 391.64,-30.04"/>
<polygon fill="#63b8ff" stroke="#63b8ff" points="537.72,-72.26 548.28,-71.44 539.5,-65.5 537.72,-72.26"/>
</a>
</g>
</g>
<!-- Node6 -->
<g id="Node000006" class="node">
<title>Node6</title>
<g id="a_Node000006"><a xlink:href="wrapper_2tcp__server_2tcp__server_8cc.html" target="_top" xlink:title=" ">
<polygon fill="white" stroke="#666666" points="1077,-30 958,-30 958,0 1077,0 1077,-30"/>
<text text-anchor="start" x="966" y="-18" font-family="Helvetica,sans-Serif" font-size="10.00">unilink/wrapper/tcp</text>
<text text-anchor="middle" x="1017.5" y="-7" font-family="Helvetica,sans-Serif" font-size="10.00">_server/tcp_server.cc</text>
</a>
</g>
</g>
<!-- Node2&#45;&gt;Node6 -->
<g id="edge5_Node000002_Node000006" class="edge">
<title>Node2&#45;&gt;Node6</title>
<g id="a_edge5_Node000002_Node000006"><a xlink:title=" ">
<path fill="none" stroke="#63b8ff" d="M675.69,-74.55C746.05,-63.94 854.67,-47.02 948.5,-30 951.51,-29.45 954.58,-28.88 957.69,-28.29"/>
<polygon fill="#63b8ff" stroke="#63b8ff" points="674.96,-71.12 665.59,-76.07 676,-78.04 674.96,-71.12"/>
</a>
</g>
</g>
<!-- Node7 -->
<g id="Node000007" class="node">
<title>Node7</title>
<g id="a_Node000007"><a xlink:href="wrapper_2udp_2udp_8cc.html" target="_top" xlink:title=" ">
<polygon fill="white" stroke="#666666" points="1208,-30 1095,-30 1095,0 1208,0 1208,-30"/>
<text text-anchor="start" x="1103" y="-18" font-family="Helvetica,sans-Serif" font-size="10.00">unilink/wrapper/udp</text>
<text text-anchor="middle" x="1151.5" y="-7" font-family="Helvetica,sans-Serif" font-size="10.00">/udp.cc</text>
</a>
</g>
</g>
<!-- Node2&#45;&gt;Node7 -->
<g id="edge6_Node000002_Node000007" class="edge">
<title>Node2&#45;&gt;Node7</title>
<g id="a_edge6_Node000002_Node000007"><a xlink:title=" ">
<path fill="none" stroke="#63b8ff" d="M675.85,-79.28C771.3,-70.77 941.87,-53.79 1086.5,-30 1089.23,-29.55 1092.03,-29.06 1094.84,-28.55"/>
<polygon fill="#63b8ff" stroke="#63b8ff" points="675.37,-75.81 665.72,-80.17 675.99,-82.78 675.37,-75.81"/>
</a>
</g>
</g>
<!-- Node8 -->
<g id="Node000008" class="node">
<title>Node8</title>
<g id="a_Node000008"><a xlink:href="udp__server_8cc.html" target="_top" xlink:title=" ">
<polygon fill="white" stroke="#666666" points="526,-30 413,-30 413,0 526,0 526,-30"/>
<text text-anchor="start" x="421" y="-18" font-family="Helvetica,sans-Serif" font-size="10.00">unilink/wrapper/udp</text>
<text text-anchor="middle" x="469.5" y="-7" font-family="Helvetica,sans-Serif" font-size="10.00">/udp_server.cc</text>
</a>
</g>
</g>
<!-- Node2&#45;&gt;Node8 -->
<g id="edge7_Node000002_Node000008" class="edge">
<title>Node2&#45;&gt;Node8</title>
<g id="a_edge7_Node000002_Node000008"><a xlink:title=" ">
<path fill="none" stroke="#63b8ff" d="M565.77,-66.69C543.84,-55.14 516.2,-40.59 496.17,-30.04"/>
<polygon fill="#63b8ff" stroke="#63b8ff" points="564.31,-69.87 574.79,-71.44 567.57,-63.68 564.31,-69.87"/>
</a>
</g>
</g>
<!-- Node9 -->
<g id="Node000009" class="node">
<title>Node9</title>
<g id="a_Node000009"><a xlink:href="wrapper_2uds__client_2uds__client_8cc.html" target="_top" xlink:title=" ">
<polygon fill="white" stroke="#666666" points="659,-30 544,-30 544,0 659,0 659,-30"/>
<text text-anchor="start" x="552" y="-18" font-family="Helvetica,sans-Serif" font-size="10.00">unilink/wrapper/uds</text>
<text text-anchor="middle" x="601.5" y="-7" font-family="Helvetica,sans-Serif" font-size="10.00">_client/uds_client.cc</text>
</a>
</g>
</g>
<!-- Node2&#45;&gt;Node9 -->
<g id="edge8_Node000002_Node000009" class="edge">
<title>Node2&#45;&gt;Node9</title>
<g id="a_edge8_Node000002_Node000009"><a xlink:title=" ">
<path fill="none" stroke="#63b8ff" d="M601.5,-61.25C601.5,-50.81 601.5,-38.99 601.5,-30.04"/>
<polygon fill="#63b8ff" stroke="#63b8ff" points="598,-61.44 601.5,-71.44 605,-61.44 598,-61.44"/>
</a>
</g>
</g>
<!-- Node10 -->
<g id="Node000010" class="node">
<title>Node10</title>
<g id="a_Node000010"><a xlink:href="wrapper_2uds__server_2uds__server_8cc.html" target="_top" xlink:title=" ">
<polygon fill="white" stroke="#666666" points="799.5,-30 677.5,-30 677.5,0 799.5,0 799.5,-30"/>
<text text-anchor="start" x="685.5" y="-18" font-family="Helvetica,sans-Serif" font-size="10.00">unilink/wrapper/uds</text>
<text text-anchor="middle" x="738.5" y="-7" font-family="Helvetica,sans-Serif" font-size="10.00">_server/uds_server.cc</text>
</a>
</g>
</g>
<!-- Node2&#45;&gt;Node10 -->
<g id="edge9_Node000002_Node000010" class="edge">
<title>Node2&#45;&gt;Node10</title>
<g id="a_edge9_Node000002_Node000010"><a xlink:title=" ">
<path fill="none" stroke="#63b8ff" d="M638.28,-66.84C661.09,-55.27 689.94,-40.64 710.82,-30.04"/>
<polygon fill="#63b8ff" stroke="#63b8ff" points="636.56,-63.79 629.22,-71.44 639.73,-70.03 636.56,-63.79"/>
</a>
</g>
</g>
<!-- Node12 -->
<g id="Node000012" class="node">
<title>Node12</title>
<g id="a_Node000012"><a xlink:href="transport_2tcp__client_2tcp__client_8cc.html" target="_top" xlink:title=" ">
<polygon fill="white" stroke="#666666" points="117,-30 2,-30 2,0 117,0 117,-30"/>
<text text-anchor="start" x="10" y="-18" font-family="Helvetica,sans-Serif" font-size="10.00">unilink/transport/tcp</text>
<text text-anchor="middle" x="59.5" y="-7" font-family="Helvetica,sans-Serif" font-size="10.00">_client/tcp_client.cc</text>
</a>
</g>
</g>
<!-- Node11&#45;&gt;Node12 -->
<g id="edge11_Node000011_Node000012" class="edge">
<title>Node11&#45;&gt;Node12</title>
<g id="a_edge11_Node000011_Node000012"><a xlink:title=" ">
<path fill="none" stroke="#63b8ff" d="M62.92,-55.66C62.16,-46.76 61.35,-37.42 60.71,-30.04"/>
<polygon fill="#63b8ff" stroke="#63b8ff" points="59.45,-56.11 63.8,-65.77 66.42,-55.51 59.45,-56.11"/>
</a>
</g>
</g>
<!-- Node13&#45;&gt;Node3 -->
<g id="edge13_Node000013_Node000003" class="edge">
<title>Node13&#45;&gt;Node3</title>
<g id="a_edge13_Node000013_Node000003"><a xlink:title=" ">
<path fill="none" stroke="#63b8ff" d="M213.93,-61.58C210.6,-51.06 206.81,-39.08 203.95,-30.04"/>
<polygon fill="#63b8ff" stroke="#63b8ff" points="210.69,-62.96 217.05,-71.44 217.37,-60.85 210.69,-62.96"/>
</a>
</g>
</g>
<!-- Node13&#45;&gt;Node5 -->
<g id="edge15_Node000013_Node000005" class="edge">
<title>Node13&#45;&gt;Node5</title>
<g id="a_edge15_Node000013_Node000005"><a xlink:title=" ">
<path fill="none" stroke="#63b8ff" d="M253.95,-66.22C273.27,-54.75 297.34,-40.45 314.86,-30.04"/>
<polygon fill="#63b8ff" stroke="#63b8ff" points="251.99,-63.32 245.18,-71.44 255.56,-69.34 251.99,-63.32"/>
</a>
</g>
</g>
<!-- Node13&#45;&gt;Node12 -->
<g id="edge14_Node000013_Node000012" class="edge">
<title>Node13&#45;&gt;Node12</title>
<g id="a_edge14_Node000013_Node000012"><a xlink:title=" ">
<path fill="none" stroke="#63b8ff" d="M179.45,-67.46C152.25,-55.79 117.36,-40.82 92.23,-30.04"/>
<polygon fill="#63b8ff" stroke="#63b8ff" points="178.15,-70.71 188.72,-71.44 180.91,-64.28 178.15,-70.71"/>
</a>
</g>
</g>
</g>
</svg>
