<?xml version="1.0" encoding="UTF-8" standalone="no"?>
<!DOCTYPE svg PUBLIC "-//W3C//DTD SVG 1.1//EN"
 "http://www.w3.org/Graphics/SVG/1.1/DTD/svg11.dtd">
<!-- Generated by graphviz version 2.43.0 (0)
 -->
<!-- Title: unilink/builder/tcp_client_builder.cc Pages: 1 -->
<svg width="1923pt" height="430pt"
 viewBox="0.00 0.00 1923.00 430.00" xmlns="http://www.w3.org/2000/svg" xmlns:xlink="http://www.w3.org/1999/xlink">
<g id="graph0" class="graph" transform="scale(1 1) rotate(0) translate(4 426)">
<title>unilink/builder/tcp_client_builder.cc</title>
<polygon fill="white" stroke="transparent" points="-4,4 -4,-426 1919,-426 1919,4 -4,4"/>
<!-- Node1 -->
<g id="node1" class="node">
<title>Node1</title>
<g id="a_node1"><a xlink:title=" ">
<polygon fill="#bfbfbf" stroke="black" points="1530,-391.5 1530,-421.5 1634,-421.5 1634,-391.5 1530,-391.5"/>
<text text-anchor="start" x="1538" y="-409.5" font-family="Helvetica,sans-Serif" font-size="10.00">unilink/builder/tcp</text>
<text text-anchor="middle" x="1582" y="-398.5" font-family="Helvetica,sans-Serif" font-size="10.00">_client_builder.cc</text>
</a>
</g>
</g>
<!-- Node2 -->
<g id="node2" class="node">
<title>Node2</title>
<g id="a_node2"><a xlink:href="tcp__client__builder_8hpp.html" target="_top" xlink:title=" ">
<polygon fill="white" stroke="black" points="782,-324.5 782,-354.5 890,-354.5 890,-324.5 782,-324.5"/>
<text text-anchor="start" x="790" y="-342.5" font-family="Helvetica,sans-Serif" font-size="10.00">unilink/builder/tcp</text>
<text text-anchor="middle" x="836" y="-331.5" font-family="Helvetica,sans-Serif" font-size="10.00">_client_builder.hpp</text>
</a>
</g>
</g>
<!-- Node1&#45;&gt;Node2 -->
<g id="edge1" class="edge">
<title>Node1&#45;&gt;Node2</title>
<path fill="none" stroke="midnightblue" d="M1529.84,-400.96C1396.89,-389.37 1045.61,-358.76 900.31,-346.1"/>
<polygon fill="midnightblue" stroke="midnightblue" points="900.48,-342.6 890.21,-345.22 899.87,-349.58 900.48,-342.6"/>
</g>
<!-- Node24 -->
<g id="node24" class="node">
<title>Node24</title>
<g id="a_node24"><a xlink:title=" ">
<polygon fill="white" stroke="#bfbfbf" points="1773,-62 1773,-81 1915,-81 1915,-62 1773,-62"/>
<text text-anchor="middle" x="1844" y="-69" font-family="Helvetica,sans-Serif" font-size="10.00">boost/asio/io_context.hpp</text>
</a>
</g>
</g>
<!-- Node1&#45;&gt;Node24 -->
<g id="edge58" class="edge">
<title>Node1&#45;&gt;Node24</title>
<path fill="none" stroke="midnightblue" d="M1634.08,-402.13C1710.48,-394.03 1844,-366.58 1844,-273.5 1844,-273.5 1844,-273.5 1844,-204.5 1844,-164.16 1844,-116.88 1844,-91.28"/>
<polygon fill="midnightblue" stroke="midnightblue" points="1847.5,-91.15 1844,-81.15 1840.5,-91.15 1847.5,-91.15"/>
</g>
<!-- Node25 -->
<g id="node25" class="node">
<title>Node25</title>
<g id="a_node25"><a xlink:href="auto__initializer_8hpp.html" target="_top" xlink:title=" ">
<polygon fill="white" stroke="black" points="1610.5,-190.5 1610.5,-220.5 1721.5,-220.5 1721.5,-190.5 1610.5,-190.5"/>
<text text-anchor="start" x="1618.5" y="-208.5" font-family="Helvetica,sans-Serif" font-size="10.00">unilink/builder/auto</text>
<text text-anchor="middle" x="1666" y="-197.5" font-family="Helvetica,sans-Serif" font-size="10.00">_initializer.hpp</text>
</a>
</g>
</g>
<!-- Node1&#45;&gt;Node25 -->
<g id="edge59" class="edge">
<title>Node1&#45;&gt;Node25</title>
<path fill="none" stroke="midnightblue" d="M1588.04,-391.19C1602.36,-357.27 1638.47,-271.72 1656.06,-230.04"/>
<polygon fill="midnightblue" stroke="midnightblue" points="1659.35,-231.26 1660.01,-220.68 1652.9,-228.53 1659.35,-231.26"/>
</g>
<!-- Node29 -->
<g id="node29" class="node">
<title>Node29</title>
<g id="a_node29"><a xlink:href="exceptions_8hpp.html" target="_top" xlink:title=" ">
<polygon fill="white" stroke="black" points="1446,-123.5 1446,-153.5 1554,-153.5 1554,-123.5 1446,-123.5"/>
<text text-anchor="start" x="1454" y="-141.5" font-family="Helvetica,sans-Serif" font-size="10.00">unilink/diagnostics</text>
<text text-anchor="middle" x="1500" y="-130.5" font-family="Helvetica,sans-Serif" font-size="10.00">/exceptions.hpp</text>
</a>
</g>
</g>
<!-- Node1&#45;&gt;Node29 -->
<g id="edge67" class="edge">
<title>Node1&#45;&gt;Node29</title>
<path fill="none" stroke="midnightblue" d="M1577.59,-391.2C1564.21,-347.8 1523.97,-217.27 1507.33,-163.28"/>
<polygon fill="midnightblue" stroke="midnightblue" points="1510.62,-162.07 1504.33,-153.55 1503.93,-164.14 1510.62,-162.07"/>
</g>
<!-- Node3 -->
<g id="node3" class="node">
<title>Node3</title>
<g id="a_node3"><a xlink:title=" ">
<polygon fill="white" stroke="#bfbfbf" points="28,-196 28,-215 78,-215 78,-196 28,-196"/>
<text text-anchor="middle" x="53" y="-203" font-family="Helvetica,sans-Serif" font-size="10.00">chrono</text>
</a>
</g>
</g>
<!-- Node2&#45;&gt;Node3 -->
<g id="edge2" class="edge">
<title>Node2&#45;&gt;Node3</title>
<path fill="none" stroke="midnightblue" d="M781.69,-336.51C652.4,-331.36 329.33,-316.03 225,-288 168.32,-272.77 107.49,-239.44 75.55,-220.46"/>
<polygon fill="midnightblue" stroke="midnightblue" points="76.98,-217.23 66.61,-215.06 73.36,-223.22 76.98,-217.23"/>
</g>
<!-- Node4 -->
<g id="node4" class="node">
<title>Node4</title>
<g id="a_node4"><a xlink:title=" ">
<polygon fill="white" stroke="#bfbfbf" points="1497,-0.5 1497,-19.5 1547,-19.5 1547,-0.5 1497,-0.5"/>
<text text-anchor="middle" x="1522" y="-7.5" font-family="Helvetica,sans-Serif" font-size="10.00">cstdint</text>
</a>
</g>
</g>
<!-- Node2&#45;&gt;Node4 -->
<g id="edge3" class="edge">
<title>Node2&#45;&gt;Node4</title>
<path fill="none" stroke="midnightblue" d="M890.25,-334.64C1061.92,-321.72 1582,-276.78 1582,-206.5 1582,-206.5 1582,-206.5 1582,-137.5 1582,-94.58 1553.46,-50.69 1535.75,-27.58"/>
<polygon fill="midnightblue" stroke="midnightblue" points="1538.31,-25.19 1529.36,-19.53 1532.83,-29.54 1538.31,-25.19"/>
</g>
<!-- Node5 -->
<g id="node5" class="node">
<title>Node5</title>
<g id="a_node5"><a xlink:title=" ">
<polygon fill="white" stroke="#bfbfbf" points="541,-0.5 541,-19.5 585,-19.5 585,-0.5 541,-0.5"/>
<text text-anchor="middle" x="563" y="-7.5" font-family="Helvetica,sans-Serif" font-size="10.00">string</text>
</a>
</g>
</g>
<!-- Node2&#45;&gt;Node5 -->
<g id="edge4" class="edge">
<title>Node2&#45;&gt;Node5</title>
<path fill="none" stroke="midnightblue" d="M781.79,-337.45C640.45,-334.26 263.45,-322.66 144,-288 73.37,-267.5 0,-280.04 0,-206.5 0,-206.5 0,-206.5 0,-137.5 0,-27.97 410.79,-13.26 530.58,-11.3"/>
<polygon fill="midnightblue" stroke="midnightblue" points="530.98,-14.79 540.93,-11.15 530.88,-7.79 530.98,-14.79"/>
</g>
<!-- Node6 -->
<g id="node6" class="node">
<title>Node6</title>
<g id="a_node6"><a xlink:href="visibility_8hpp.html" target="_top" xlink:title=" ">
<polygon fill="white" stroke="black" points="1269,-62 1269,-81 1409,-81 1409,-62 1269,-62"/>
<text text-anchor="middle" x="1339" y="-69" font-family="Helvetica,sans-Serif" font-size="10.00">unilink/base/visibility.hpp</text>
</a>
</g>
</g>
<!-- Node2&#45;&gt;Node6 -->
<g id="edge5" class="edge">
<title>Node2&#45;&gt;Node6</title>
<path fill="none" stroke="midnightblue" d="M890.06,-328.78C970,-313.13 1123.19,-278.17 1243,-221 1289.96,-198.59 1314.94,-200.13 1339,-154 1349.2,-134.45 1346.98,-108.49 1343.68,-91.18"/>
<polygon fill="midnightblue" stroke="midnightblue" points="1347.05,-90.22 1341.48,-81.21 1340.22,-91.72 1347.05,-90.22"/>
</g>
<!-- Node7 -->
<g id="node7" class="node">
<title>Node7</title>
<g id="a_node7"><a xlink:href="ibuilder_8hpp.html" target="_top" xlink:title=" ">
<polygon fill="white" stroke="black" points="763,-263 763,-282 909,-282 909,-263 763,-263"/>
<text text-anchor="middle" x="836" y="-270" font-family="Helvetica,sans-Serif" font-size="10.00">unilink/builder/ibuilder.hpp</text>
</a>
</g>
</g>
<!-- Node2&#45;&gt;Node7 -->
<g id="edge6" class="edge">
<title>Node2&#45;&gt;Node7</title>
<path fill="none" stroke="midnightblue" d="M836,-324.4C836,-315.06 836,-302.71 836,-292.52"/>
<polygon fill="midnightblue" stroke="midnightblue" points="839.5,-292.19 836,-282.19 832.5,-292.19 839.5,-292.19"/>
</g>
<!-- Node21 -->
<g id="node21" class="node">
<title>Node21</title>
<g id="a_node21"><a xlink:href="wrapper_2tcp__client_2tcp__client_8hpp.html" target="_top" xlink:title=" ">
<polygon fill="white" stroke="black" points="234,-257.5 234,-287.5 354,-287.5 354,-257.5 234,-257.5"/>
<text text-anchor="start" x="242" y="-275.5" font-family="Helvetica,sans-Serif" font-size="10.00">unilink/wrapper/tcp</text>
<text text-anchor="middle" x="294" y="-264.5" font-family="Helvetica,sans-Serif" font-size="10.00">_client/tcp_client.hpp</text>
</a>
</g>
</g>
<!-- Node2&#45;&gt;Node21 -->
<g id="edge41" class="edge">
<title>Node2&#45;&gt;Node21</title>
<path fill="none" stroke="midnightblue" d="M781.8,-332C683,-320.15 473.74,-295.06 364.2,-281.92"/>
<polygon fill="midnightblue" stroke="midnightblue" points="364.58,-278.44 354.24,-280.72 363.75,-285.39 364.58,-278.44"/>
</g>
<!-- Node7&#45;&gt;Node5 -->
<g id="edge9" class="edge">
<title>Node7&#45;&gt;Node5</title>
<path fill="none" stroke="midnightblue" d="M831.32,-262.71C811.67,-226.13 735.11,-86.38 696,-56 666.34,-32.96 624.2,-21.35 595.35,-15.76"/>
<polygon fill="midnightblue" stroke="midnightblue" points="595.84,-12.29 585.37,-13.97 594.6,-19.18 595.84,-12.29"/>
</g>
<!-- Node7&#45;&gt;Node6 -->
<g id="edge12" class="edge">
<title>Node7&#45;&gt;Node6</title>
<path fill="none" stroke="midnightblue" d="M909.03,-267.48C980.08,-262.03 1090.41,-249.47 1182,-221 1246.35,-201 1275.49,-206.28 1318,-154 1332.59,-136.06 1337.16,-109.16 1338.53,-91.23"/>
<polygon fill="midnightblue" stroke="midnightblue" points="1342.03,-91.32 1339.04,-81.15 1335.04,-90.97 1342.03,-91.32"/>
</g>
<!-- Node8 -->
<g id="node8" class="node">
<title>Node8</title>
<g id="a_node8"><a xlink:title=" ">
<polygon fill="white" stroke="#bfbfbf" points="389.5,-62 389.5,-81 454.5,-81 454.5,-62 389.5,-62"/>
<text text-anchor="middle" x="422" y="-69" font-family="Helvetica,sans-Serif" font-size="10.00">functional</text>
</a>
</g>
</g>
<!-- Node7&#45;&gt;Node8 -->
<g id="edge7" class="edge">
<title>Node7&#45;&gt;Node8</title>
<path fill="none" stroke="midnightblue" d="M775.14,-262.97C701.76,-250.1 577.76,-219.83 493,-154 468.77,-135.18 446.53,-107.15 433.62,-89.36"/>
<polygon fill="midnightblue" stroke="midnightblue" points="436.4,-87.23 427.76,-81.09 430.69,-91.27 436.4,-87.23"/>
</g>
<!-- Node9 -->
<g id="node9" class="node">
<title>Node9</title>
<g id="a_node9"><a xlink:title=" ">
<polygon fill="white" stroke="#bfbfbf" points="769,-62 769,-81 827,-81 827,-62 769,-62"/>
<text text-anchor="middle" x="798" y="-69" font-family="Helvetica,sans-Serif" font-size="10.00">memory</text>
</a>
</g>
</g>
<!-- Node7&#45;&gt;Node9 -->
<g id="edge8" class="edge">
<title>Node7&#45;&gt;Node9</title>
<path fill="none" stroke="midnightblue" d="M833.33,-262.99C830.27,-253.01 825.27,-235.93 822,-221 811.9,-174.81 804.08,-119.68 800.37,-91.35"/>
<polygon fill="midnightblue" stroke="midnightblue" points="803.82,-90.74 799.07,-81.27 796.88,-91.63 803.82,-90.74"/>
</g>
<!-- Node10 -->
<g id="node10" class="node">
<title>Node10</title>
<g id="a_node10"><a xlink:title=" ">
<polygon fill="white" stroke="#bfbfbf" points="298.5,-62 298.5,-81 371.5,-81 371.5,-62 298.5,-62"/>
<text text-anchor="middle" x="335" y="-69" font-family="Helvetica,sans-Serif" font-size="10.00">string_view</text>
</a>
</g>
</g>
<!-- Node7&#45;&gt;Node10 -->
<g id="edge10" class="edge">
<title>Node7&#45;&gt;Node10</title>
<path fill="none" stroke="midnightblue" d="M762.99,-270.08C638.68,-266.73 391.75,-255.79 313,-221 263.08,-198.94 210.79,-169.72 239,-123 250.24,-104.38 270.88,-92.29 290.15,-84.61"/>
<polygon fill="midnightblue" stroke="midnightblue" points="291.56,-87.82 299.74,-81.1 289.15,-81.25 291.56,-87.82"/>
</g>
<!-- Node11 -->
<g id="node11" class="node">
<title>Node11</title>
<g id="a_node11"><a xlink:title=" ">
<polygon fill="white" stroke="#bfbfbf" points="902.5,-62 902.5,-81 949.5,-81 949.5,-62 902.5,-62"/>
<text text-anchor="middle" x="926" y="-69" font-family="Helvetica,sans-Serif" font-size="10.00">vector</text>
</a>
</g>
</g>
<!-- Node7&#45;&gt;Node11 -->
<g id="edge11" class="edge">
<title>Node7&#45;&gt;Node11</title>
<path fill="none" stroke="midnightblue" d="M837.13,-262.66C839.29,-247.39 844.71,-215.3 855,-190 870.56,-151.75 897.58,-111.46 913.42,-89.4"/>
<polygon fill="midnightblue" stroke="midnightblue" points="916.39,-91.27 919.46,-81.13 910.73,-87.14 916.39,-91.27"/>
</g>
<!-- Node12 -->
<g id="node12" class="node">
<title>Node12</title>
<g id="a_node12"><a xlink:href="iframer_8hpp.html" target="_top" xlink:title=" ">
<polygon fill="white" stroke="black" points="940.5,-129 940.5,-148 1085.5,-148 1085.5,-129 940.5,-129"/>
<text text-anchor="middle" x="1013" y="-136" font-family="Helvetica,sans-Serif" font-size="10.00">unilink/framer/iframer.hpp</text>
</a>
</g>
</g>
<!-- Node7&#45;&gt;Node12 -->
<g id="edge13" class="edge">
<title>Node7&#45;&gt;Node12</title>
<path fill="none" stroke="midnightblue" d="M893.12,-262.98C922.25,-256.03 956.42,-243.49 980,-221 997.56,-204.25 1006.04,-176.87 1009.94,-158.52"/>
<polygon fill="midnightblue" stroke="midnightblue" points="1013.43,-158.91 1011.82,-148.44 1006.55,-157.63 1013.43,-158.91"/>
</g>
<!-- Node13 -->
<g id="node13" class="node">
<title>Node13</title>
<g id="a_node13"><a xlink:href="safe__span_8hpp.html" target="_top" xlink:title=" ">
<polygon fill="white" stroke="black" points="1131,-56.5 1131,-86.5 1249,-86.5 1249,-56.5 1131,-56.5"/>
<text text-anchor="start" x="1139" y="-74.5" font-family="Helvetica,sans-Serif" font-size="10.00">unilink/memory/safe</text>
<text text-anchor="middle" x="1190" y="-63.5" font-family="Helvetica,sans-Serif" font-size="10.00">_span.hpp</text>
</a>
</g>
</g>
<!-- Node7&#45;&gt;Node13 -->
<g id="edge32" class="edge">
<title>Node7&#45;&gt;Node13</title>
<path fill="none" stroke="midnightblue" d="M909.14,-269.4C992.9,-265.43 1123.09,-253.98 1158,-221 1191.93,-188.94 1194.24,-130.23 1192.43,-97.04"/>
<polygon fill="midnightblue" stroke="midnightblue" points="1195.91,-96.57 1191.7,-86.84 1188.93,-97.07 1195.91,-96.57"/>
</g>
<!-- Node16 -->
<g id="node16" class="node">
<title>Node16</title>
<g id="a_node16"><a xlink:href="line__framer_8hpp.html" target="_top" xlink:title=" ">
<polygon fill="white" stroke="black" points="864.5,-190.5 864.5,-220.5 971.5,-220.5 971.5,-190.5 864.5,-190.5"/>
<text text-anchor="start" x="872.5" y="-208.5" font-family="Helvetica,sans-Serif" font-size="10.00">unilink/framer/line</text>
<text text-anchor="middle" x="918" y="-197.5" font-family="Helvetica,sans-Serif" font-size="10.00">_framer.hpp</text>
</a>
</g>
</g>
<!-- Node7&#45;&gt;Node16 -->
<g id="edge22" class="edge">
<title>Node7&#45;&gt;Node16</title>
<path fill="none" stroke="midnightblue" d="M847.06,-262.73C858.57,-253.61 877,-239 892.19,-226.96"/>
<polygon fill="midnightblue" stroke="midnightblue" points="894.56,-229.54 900.23,-220.59 890.22,-224.06 894.56,-229.54"/>
</g>
<!-- Node17 -->
<g id="node17" class="node">
<title>Node17</title>
<g id="a_node17"><a xlink:href="packet__framer_8hpp.html" target="_top" xlink:title=" ">
<polygon fill="white" stroke="black" points="1028.5,-190.5 1028.5,-220.5 1149.5,-220.5 1149.5,-190.5 1028.5,-190.5"/>
<text text-anchor="start" x="1036.5" y="-208.5" font-family="Helvetica,sans-Serif" font-size="10.00">unilink/framer/packet</text>
<text text-anchor="middle" x="1089" y="-197.5" font-family="Helvetica,sans-Serif" font-size="10.00">_framer.hpp</text>
</a>
</g>
</g>
<!-- Node7&#45;&gt;Node17 -->
<g id="edge28" class="edge">
<title>Node7&#45;&gt;Node17</title>
<path fill="none" stroke="midnightblue" d="M869.34,-262.94C908.63,-252.84 974.83,-235.83 1024.3,-223.12"/>
<polygon fill="midnightblue" stroke="midnightblue" points="1025.46,-226.44 1034.28,-220.56 1023.72,-219.66 1025.46,-226.44"/>
</g>
<!-- Node18 -->
<g id="node18" class="node">
<title>Node18</title>
<g id="a_node18"><a xlink:href="context_8hpp.html" target="_top" xlink:title=" ">
<polygon fill="white" stroke="black" points="502.5,-129 502.5,-148 655.5,-148 655.5,-129 502.5,-129"/>
<text text-anchor="middle" x="579" y="-136" font-family="Helvetica,sans-Serif" font-size="10.00">unilink/wrapper/context.hpp</text>
</a>
</g>
</g>
<!-- Node7&#45;&gt;Node18 -->
<g id="edge33" class="edge">
<title>Node7&#45;&gt;Node18</title>
<path fill="none" stroke="midnightblue" d="M789.1,-262.94C754.6,-255.32 707.4,-242.06 670,-221 639.07,-203.58 609.69,-174.1 593.05,-155.78"/>
<polygon fill="midnightblue" stroke="midnightblue" points="595.6,-153.38 586.34,-148.23 590.37,-158.03 595.6,-153.38"/>
</g>
<!-- Node12&#45;&gt;Node6 -->
<g id="edge17" class="edge">
<title>Node12&#45;&gt;Node6</title>
<path fill="none" stroke="midnightblue" d="M1055.95,-128.94C1115.28,-117.11 1222.22,-95.78 1286.31,-83.01"/>
<polygon fill="midnightblue" stroke="midnightblue" points="1287.09,-86.42 1296.21,-81.03 1285.72,-79.55 1287.09,-86.42"/>
</g>
<!-- Node12&#45;&gt;Node8 -->
<g id="edge14" class="edge">
<title>Node12&#45;&gt;Node8</title>
<path fill="none" stroke="midnightblue" d="M940.22,-136.35C834.29,-133.44 631.96,-123.16 464,-87 460.5,-86.25 456.89,-85.29 453.32,-84.23"/>
<polygon fill="midnightblue" stroke="midnightblue" points="454.11,-80.8 443.52,-81.04 451.94,-87.46 454.11,-80.8"/>
</g>
<!-- Node12&#45;&gt;Node9 -->
<g id="edge15" class="edge">
<title>Node12&#45;&gt;Node9</title>
<path fill="none" stroke="midnightblue" d="M984.45,-128.87C946.27,-117.33 878.49,-96.84 836.02,-84"/>
<polygon fill="midnightblue" stroke="midnightblue" points="836.91,-80.61 826.33,-81.06 834.89,-87.31 836.91,-80.61"/>
</g>
<!-- Node12&#45;&gt;Node11 -->
<g id="edge16" class="edge">
<title>Node12&#45;&gt;Node11</title>
<path fill="none" stroke="midnightblue" d="M1001.27,-128.73C987.05,-118.11 962.87,-100.05 945.76,-87.26"/>
<polygon fill="midnightblue" stroke="midnightblue" points="947.65,-84.31 937.55,-81.13 943.46,-89.92 947.65,-84.31"/>
</g>
<!-- Node12&#45;&gt;Node13 -->
<g id="edge18" class="edge">
<title>Node12&#45;&gt;Node13</title>
<path fill="none" stroke="midnightblue" d="M1036.5,-128.87C1063.29,-119.03 1107.79,-102.69 1142,-90.13"/>
<polygon fill="midnightblue" stroke="midnightblue" points="1143.62,-93.26 1151.8,-86.53 1141.21,-86.69 1143.62,-93.26"/>
</g>
<!-- Node13&#45;&gt;Node4 -->
<g id="edge19" class="edge">
<title>Node13&#45;&gt;Node4</title>
<path fill="none" stroke="midnightblue" d="M1249.17,-58.1C1252.83,-57.37 1256.46,-56.67 1260,-56 1340.86,-40.69 1436.19,-24.87 1486.6,-16.69"/>
<polygon fill="midnightblue" stroke="midnightblue" points="1487.34,-20.11 1496.66,-15.06 1486.23,-13.2 1487.34,-20.11"/>
</g>
<!-- Node14 -->
<g id="node14" class="node">
<title>Node14</title>
<g id="a_node14"><a xlink:title=" ">
<polygon fill="white" stroke="#bfbfbf" points="1354.5,-0.5 1354.5,-19.5 1419.5,-19.5 1419.5,-0.5 1354.5,-0.5"/>
<text text-anchor="middle" x="1387" y="-7.5" font-family="Helvetica,sans-Serif" font-size="10.00">stdexcept</text>
</a>
</g>
</g>
<!-- Node13&#45;&gt;Node14 -->
<g id="edge20" class="edge">
<title>Node13&#45;&gt;Node14</title>
<path fill="none" stroke="midnightblue" d="M1236.69,-56.4C1270.88,-46.07 1316.71,-32.23 1348.74,-22.56"/>
<polygon fill="midnightblue" stroke="midnightblue" points="1350.06,-25.81 1358.62,-19.57 1348.04,-19.11 1350.06,-25.81"/>
</g>
<!-- Node15 -->
<g id="node15" class="node">
<title>Node15</title>
<g id="a_node15"><a xlink:title=" ">
<polygon fill="white" stroke="#bfbfbf" points="1155.5,-0.5 1155.5,-19.5 1224.5,-19.5 1224.5,-0.5 1155.5,-0.5"/>
<text text-anchor="middle" x="1190" y="-7.5" font-family="Helvetica,sans-Serif" font-size="10.00">type_traits</text>
</a>
</g>
</g>
<!-- Node13&#45;&gt;Node15 -->
<g id="edge21" class="edge">
<title>Node13&#45;&gt;Node15</title>
<path fill="none" stroke="midnightblue" d="M1190,-56.4C1190,-48.47 1190,-38.46 1190,-29.86"/>
<polygon fill="midnightblue" stroke="midnightblue" points="1193.5,-29.66 1190,-19.66 1186.5,-29.66 1193.5,-29.66"/>
</g>
<!-- Node16&#45;&gt;Node5 -->
<g id="edge23" class="edge">
<title>Node16&#45;&gt;Node5</title>
<path fill="none" stroke="midnightblue" d="M914.62,-190.27C906.64,-160.07 883.63,-89.64 836,-56 797.7,-28.96 659.07,-16.99 595.39,-12.83"/>
<polygon fill="midnightblue" stroke="midnightblue" points="595.33,-9.32 585.13,-12.19 594.89,-16.31 595.33,-9.32"/>
</g>
<!-- Node16&#45;&gt;Node6 -->
<g id="edge26" class="edge">
<title>Node16&#45;&gt;Node6</title>
<path fill="none" stroke="midnightblue" d="M971.61,-193.66C1014.36,-184.53 1075.56,-170.35 1128,-154 1194.5,-133.26 1270.14,-102.14 1310.33,-84.97"/>
<polygon fill="midnightblue" stroke="midnightblue" points="1311.72,-88.19 1319.53,-81.03 1308.96,-81.75 1311.72,-88.19"/>
</g>
<!-- Node16&#45;&gt;Node10 -->
<g id="edge24" class="edge">
<title>Node16&#45;&gt;Node10</title>
<path fill="none" stroke="midnightblue" d="M864.41,-204.21C782.56,-202.42 622.3,-193.61 493,-154 441.07,-138.09 385.88,-105.55 356.45,-86.76"/>
<polygon fill="midnightblue" stroke="midnightblue" points="358.13,-83.67 347.84,-81.17 354.33,-89.55 358.13,-83.67"/>
</g>
<!-- Node16&#45;&gt;Node11 -->
<g id="edge25" class="edge">
<title>Node16&#45;&gt;Node11</title>
<path fill="none" stroke="midnightblue" d="M918.86,-190.37C920.3,-166.5 923.23,-118.18 924.85,-91.41"/>
<polygon fill="midnightblue" stroke="midnightblue" points="928.37,-91.29 925.48,-81.1 921.38,-90.87 928.37,-91.29"/>
</g>
<!-- Node16&#45;&gt;Node12 -->
<g id="edge27" class="edge">
<title>Node16&#45;&gt;Node12</title>
<path fill="none" stroke="midnightblue" d="M938.61,-190.4C954.4,-179.6 976.09,-164.76 991.97,-153.89"/>
<polygon fill="midnightblue" stroke="midnightblue" points="994.29,-156.54 1000.57,-148.01 990.34,-150.77 994.29,-156.54"/>
</g>
<!-- Node17&#45;&gt;Node6 -->
<g id="edge30" class="edge">
<title>Node17&#45;&gt;Node6</title>
<path fill="none" stroke="midnightblue" d="M1148.95,-190.42C1178.12,-182.17 1213.05,-170.15 1242,-154 1273.98,-136.16 1305.4,-107.05 1323.45,-88.88"/>
<polygon fill="midnightblue" stroke="midnightblue" points="1326.29,-90.98 1330.76,-81.38 1321.27,-86.1 1326.29,-90.98"/>
</g>
<!-- Node17&#45;&gt;Node11 -->
<g id="edge29" class="edge">
<title>Node17&#45;&gt;Node11</title>
<path fill="none" stroke="midnightblue" d="M1094.96,-190.25C1101.29,-172.63 1108.55,-142.57 1094,-123 1063.12,-81.47 999.22,-72.82 959.74,-71.7"/>
<polygon fill="midnightblue" stroke="midnightblue" points="959.58,-68.2 949.54,-71.57 959.49,-75.2 959.58,-68.2"/>
</g>
<!-- Node17&#45;&gt;Node12 -->
<g id="edge31" class="edge">
<title>Node17&#45;&gt;Node12</title>
<path fill="none" stroke="midnightblue" d="M1072.51,-190.4C1060.31,-179.96 1043.69,-165.75 1031.12,-155"/>
<polygon fill="midnightblue" stroke="midnightblue" points="1033.04,-152.03 1023.17,-148.19 1028.49,-157.35 1033.04,-152.03"/>
</g>
<!-- Node18&#45;&gt;Node5 -->
<g id="edge35" class="edge">
<title>Node18&#45;&gt;Node5</title>
<path fill="none" stroke="midnightblue" d="M581.09,-128.81C584.37,-113.78 589.77,-82.02 584,-56 581.88,-46.43 577.49,-36.48 573.28,-28.37"/>
<polygon fill="midnightblue" stroke="midnightblue" points="576.3,-26.6 568.38,-19.56 570.18,-30 576.3,-26.6"/>
</g>
<!-- Node18&#45;&gt;Node10 -->
<g id="edge36" class="edge">
<title>Node18&#45;&gt;Node10</title>
<path fill="none" stroke="midnightblue" d="M542.5,-128.97C502.45,-119.44 436.35,-103.21 380,-87 376.84,-86.09 373.58,-85.11 370.31,-84.11"/>
<polygon fill="midnightblue" stroke="midnightblue" points="371.2,-80.72 360.61,-81.06 369.11,-87.4 371.2,-80.72"/>
</g>
<!-- Node18&#45;&gt;Node11 -->
<g id="edge37" class="edge">
<title>Node18&#45;&gt;Node11</title>
<path fill="none" stroke="midnightblue" d="M624.72,-128.94C695.35,-115.7 829.38,-90.6 892.08,-78.85"/>
<polygon fill="midnightblue" stroke="midnightblue" points="893.03,-82.24 902.21,-76.96 891.74,-75.36 893.03,-82.24"/>
</g>
<!-- Node18&#45;&gt;Node13 -->
<g id="edge40" class="edge">
<title>Node18&#45;&gt;Node13</title>
<path fill="none" stroke="midnightblue" d="M655.76,-129.33C775.7,-116.57 1005.7,-92.11 1120.8,-79.86"/>
<polygon fill="midnightblue" stroke="midnightblue" points="1121.33,-83.32 1130.91,-78.79 1120.59,-76.36 1121.33,-83.32"/>
</g>
<!-- Node19 -->
<g id="node19" class="node">
<title>Node19</title>
<g id="a_node19"><a xlink:title=" ">
<polygon fill="white" stroke="#bfbfbf" points="631,-62 631,-81 687,-81 687,-62 631,-62"/>
<text text-anchor="middle" x="659" y="-69" font-family="Helvetica,sans-Serif" font-size="10.00">optional</text>
</a>
</g>
</g>
<!-- Node18&#45;&gt;Node19 -->
<g id="edge34" class="edge">
<title>Node18&#45;&gt;Node19</title>
<path fill="none" stroke="midnightblue" d="M589.79,-128.73C602.74,-118.21 624.69,-100.38 640.39,-87.62"/>
<polygon fill="midnightblue" stroke="midnightblue" points="642.83,-90.15 648.38,-81.13 638.41,-84.72 642.83,-90.15"/>
</g>
<!-- Node20 -->
<g id="node20" class="node">
<title>Node20</title>
<g id="a_node20"><a xlink:href="error__codes_8hpp.html" target="_top" xlink:title=" ">
<polygon fill="white" stroke="black" points="473,-56.5 473,-86.5 575,-86.5 575,-56.5 473,-56.5"/>
<text text-anchor="start" x="481" y="-74.5" font-family="Helvetica,sans-Serif" font-size="10.00">unilink/base/error</text>
<text text-anchor="middle" x="524" y="-63.5" font-family="Helvetica,sans-Serif" font-size="10.00">_codes.hpp</text>
</a>
</g>
</g>
<!-- Node18&#45;&gt;Node20 -->
<g id="edge38" class="edge">
<title>Node18&#45;&gt;Node20</title>
<path fill="none" stroke="midnightblue" d="M571.58,-128.73C564.15,-119.95 552.41,-106.08 542.46,-94.31"/>
<polygon fill="midnightblue" stroke="midnightblue" points="545.05,-91.96 535.92,-86.59 539.71,-96.48 545.05,-91.96"/>
</g>
<!-- Node20&#45;&gt;Node5 -->
<g id="edge39" class="edge">
<title>Node20&#45;&gt;Node5</title>
<path fill="none" stroke="midnightblue" d="M533.24,-56.4C538.79,-47.93 545.89,-37.1 551.77,-28.14"/>
<polygon fill="midnightblue" stroke="midnightblue" points="554.77,-29.94 557.33,-19.66 548.92,-26.1 554.77,-29.94"/>
</g>
<!-- Node21&#45;&gt;Node3 -->
<g id="edge42" class="edge">
<title>Node21&#45;&gt;Node3</title>
<path fill="none" stroke="midnightblue" d="M233.86,-258.31C193.43,-248.99 139.13,-235.6 92,-221 89.44,-220.21 86.8,-219.34 84.15,-218.43"/>
<polygon fill="midnightblue" stroke="midnightblue" points="85.31,-215.13 74.72,-215.06 82.96,-221.72 85.31,-215.13"/>
</g>
<!-- Node21&#45;&gt;Node5 -->
<g id="edge46" class="edge">
<title>Node21&#45;&gt;Node5</title>
<path fill="none" stroke="midnightblue" d="M233.94,-258.61C211.7,-251.06 188.03,-239.26 172,-221 142.79,-187.72 131.19,-160.96 154,-123 186.67,-68.63 219.86,-76.14 280,-56 367.6,-26.66 477.03,-16.21 530.52,-12.68"/>
<polygon fill="midnightblue" stroke="midnightblue" points="530.99,-16.16 540.75,-12.04 530.56,-9.17 530.99,-16.16"/>
</g>
<!-- Node21&#45;&gt;Node6 -->
<g id="edge48" class="edge">
<title>Node21&#45;&gt;Node6</title>
<path fill="none" stroke="midnightblue" d="M354.14,-269.09C544.12,-261.32 1121.03,-236.58 1158,-221 1176.84,-213.06 1174.78,-201.03 1192,-190 1226.54,-167.86 1244.6,-179.17 1277,-154 1299.74,-136.33 1318.53,-108.39 1329.26,-90.25"/>
<polygon fill="midnightblue" stroke="midnightblue" points="1332.45,-91.73 1334.37,-81.31 1326.37,-88.26 1332.45,-91.73"/>
</g>
<!-- Node21&#45;&gt;Node8 -->
<g id="edge43" class="edge">
<title>Node21&#45;&gt;Node8</title>
<path fill="none" stroke="midnightblue" d="M280.52,-257.44C255.24,-229.34 206.11,-165.34 239,-123 278.68,-71.92 318.05,-105.57 380,-87 382.77,-86.17 385.63,-85.27 388.5,-84.34"/>
<polygon fill="midnightblue" stroke="midnightblue" points="389.75,-87.61 398.12,-81.12 387.53,-80.98 389.75,-87.61"/>
</g>
<!-- Node21&#45;&gt;Node9 -->
<g id="edge45" class="edge">
<title>Node21&#45;&gt;Node9</title>
<path fill="none" stroke="midnightblue" d="M354.21,-263.77C438.26,-250.97 593.4,-219.97 709,-154 739.18,-136.78 767.61,-107.66 783.89,-89.29"/>
<polygon fill="midnightblue" stroke="midnightblue" points="786.97,-91.09 790.86,-81.24 781.67,-86.51 786.97,-91.09"/>
</g>
<!-- Node21&#45;&gt;Node10 -->
<g id="edge47" class="edge">
<title>Node21&#45;&gt;Node10</title>
<path fill="none" stroke="midnightblue" d="M258.43,-257.3C240.47,-248.8 219.31,-236.6 204,-221 171.49,-187.89 140.34,-160.26 168,-123 195.43,-86.05 249.12,-75.17 288.24,-72.43"/>
<polygon fill="midnightblue" stroke="midnightblue" points="288.55,-75.92 298.35,-71.88 288.17,-68.93 288.55,-75.92"/>
</g>
<!-- Node22 -->
<g id="node22" class="node">
<title>Node22</title>
<g id="a_node22"><a xlink:title=" ">
<polygon fill="white" stroke="#bfbfbf" points="248,-129 248,-148 294,-148 294,-129 248,-129"/>
<text text-anchor="middle" x="271" y="-136" font-family="Helvetica,sans-Serif" font-size="10.00">future</text>
</a>
</g>
</g>
<!-- Node21&#45;&gt;Node22 -->
<g id="edge44" class="edge">
<title>Node21&#45;&gt;Node22</title>
<path fill="none" stroke="midnightblue" d="M291.54,-257.37C287.36,-233.4 278.88,-184.75 274.23,-158.06"/>
<polygon fill="midnightblue" stroke="midnightblue" points="277.66,-157.35 272.5,-148.1 270.77,-158.55 277.66,-157.35"/>
</g>
<!-- Node23 -->
<g id="node23" class="node">
<title>Node23</title>
<g id="a_node23"><a xlink:href="ichannel_8hpp.html" target="_top" xlink:title=" ">
<polygon fill="white" stroke="black" points="322,-196 322,-215 480,-215 480,-196 322,-196"/>
<text text-anchor="middle" x="401" y="-203" font-family="Helvetica,sans-Serif" font-size="10.00">unilink/wrapper/ichannel.hpp</text>
</a>
</g>
</g>
<!-- Node21&#45;&gt;Node23 -->
<g id="edge49" class="edge">
<title>Node21&#45;&gt;Node23</title>
<path fill="none" stroke="midnightblue" d="M317.22,-257.4C335.33,-246.39 360.34,-231.2 378.31,-220.28"/>
<polygon fill="midnightblue" stroke="midnightblue" points="380.27,-223.19 387,-215.01 376.63,-217.21 380.27,-223.19"/>
</g>
<!-- Node23&#45;&gt;Node5 -->
<g id="edge53" class="edge">
<title>Node23&#45;&gt;Node5</title>
<path fill="none" stroke="midnightblue" d="M387.66,-195.83C362.61,-178.64 309.21,-137.5 289,-87 283.88,-74.21 280.08,-66.5 289,-56 319.67,-19.89 464.77,-12.7 530.5,-11.31"/>
<polygon fill="midnightblue" stroke="midnightblue" points="530.77,-14.81 540.71,-11.13 530.65,-7.81 530.77,-14.81"/>
</g>
<!-- Node23&#45;&gt;Node6 -->
<g id="edge55" class="edge">
<title>Node23&#45;&gt;Node6</title>
<path fill="none" stroke="midnightblue" d="M480.25,-201.64C650.21,-195.09 1038.83,-177.72 1094,-154 1112.79,-145.92 1109.93,-132.57 1128,-123 1154.27,-109.09 1228.35,-93.13 1281.3,-82.95"/>
<polygon fill="midnightblue" stroke="midnightblue" points="1282.09,-86.36 1291.25,-81.05 1280.78,-79.48 1282.09,-86.36"/>
</g>
<!-- Node23&#45;&gt;Node8 -->
<g id="edge50" class="edge">
<title>Node23&#45;&gt;Node8</title>
<path fill="none" stroke="midnightblue" d="M402.38,-195.84C405.75,-174.67 414.45,-119.95 419.05,-91.03"/>
<polygon fill="midnightblue" stroke="midnightblue" points="422.53,-91.45 420.64,-81.02 415.62,-90.35 422.53,-91.45"/>
</g>
<!-- Node23&#45;&gt;Node9 -->
<g id="edge52" class="edge">
<title>Node23&#45;&gt;Node9</title>
<path fill="none" stroke="midnightblue" d="M458.2,-195.96C523.86,-185.72 627.24,-168.18 664,-154 707.9,-137.07 753.58,-105.87 778.64,-87.37"/>
<polygon fill="midnightblue" stroke="midnightblue" points="781,-89.98 786.9,-81.18 776.8,-84.38 781,-89.98"/>
</g>
<!-- Node23&#45;&gt;Node10 -->
<g id="edge54" class="edge">
<title>Node23&#45;&gt;Node10</title>
<path fill="none" stroke="midnightblue" d="M396.67,-195.84C385.99,-174.49 358.24,-118.98 343.89,-90.27"/>
<polygon fill="midnightblue" stroke="midnightblue" points="346.86,-88.4 339.26,-81.02 340.6,-91.53 346.86,-88.4"/>
</g>
<!-- Node23&#45;&gt;Node12 -->
<g id="edge56" class="edge">
<title>Node23&#45;&gt;Node12</title>
<path fill="none" stroke="midnightblue" d="M480.07,-196.1C596.24,-183.76 812.04,-160.84 930.26,-148.29"/>
<polygon fill="midnightblue" stroke="midnightblue" points="930.77,-151.75 940.35,-147.22 930.03,-144.79 930.77,-151.75"/>
</g>
<!-- Node23&#45;&gt;Node18 -->
<g id="edge57" class="edge">
<title>Node23&#45;&gt;Node18</title>
<path fill="none" stroke="midnightblue" d="M424.64,-195.87C455.71,-184.52 510.47,-164.52 545.72,-151.65"/>
<polygon fill="midnightblue" stroke="midnightblue" points="547.36,-154.78 555.55,-148.06 544.95,-148.21 547.36,-154.78"/>
</g>
<!-- Node23&#45;&gt;Node22 -->
<g id="edge51" class="edge">
<title>Node23&#45;&gt;Node22</title>
<path fill="none" stroke="midnightblue" d="M383.74,-195.87C361.69,-184.84 323.31,-165.66 297.54,-152.77"/>
<polygon fill="midnightblue" stroke="midnightblue" points="298.84,-149.51 288.33,-148.17 295.71,-155.77 298.84,-149.51"/>
</g>
<!-- Node25&#45;&gt;Node6 -->
<g id="edge61" class="edge">
<title>Node25&#45;&gt;Node6</title>
<path fill="none" stroke="midnightblue" d="M1610.37,-199.69C1562.42,-193.83 1492.39,-181.13 1437,-154 1419.3,-145.33 1378.79,-109.27 1355.77,-88.13"/>
<polygon fill="midnightblue" stroke="midnightblue" points="1357.88,-85.31 1348.16,-81.1 1353.13,-90.45 1357.88,-85.31"/>
</g>
<!-- Node26 -->
<g id="node26" class="node">
<title>Node26</title>
<g id="a_node26"><a xlink:title=" ">
<polygon fill="white" stroke="#bfbfbf" points="1610,-129 1610,-148 1658,-148 1658,-129 1610,-129"/>
<text text-anchor="middle" x="1634" y="-136" font-family="Helvetica,sans-Serif" font-size="10.00">mutex</text>
</a>
</g>
</g>
<!-- Node25&#45;&gt;Node26 -->
<g id="edge60" class="edge">
<title>Node25&#45;&gt;Node26</title>
<path fill="none" stroke="midnightblue" d="M1659.06,-190.4C1654.26,-180.66 1647.86,-167.65 1642.72,-157.21"/>
<polygon fill="midnightblue" stroke="midnightblue" points="1645.84,-155.62 1638.28,-148.19 1639.56,-158.71 1645.84,-155.62"/>
</g>
<!-- Node27 -->
<g id="node27" class="node">
<title>Node27</title>
<g id="a_node27"><a xlink:href="io__context__manager_8hpp.html" target="_top" xlink:title=" ">
<polygon fill="white" stroke="black" points="1676,-123.5 1676,-153.5 1816,-153.5 1816,-123.5 1676,-123.5"/>
<text text-anchor="start" x="1684" y="-141.5" font-family="Helvetica,sans-Serif" font-size="10.00">unilink/concurrency</text>
<text text-anchor="middle" x="1746" y="-130.5" font-family="Helvetica,sans-Serif" font-size="10.00">/io_context_manager.hpp</text>
</a>
</g>
</g>
<!-- Node25&#45;&gt;Node27 -->
<g id="edge62" class="edge">
<title>Node25&#45;&gt;Node27</title>
<path fill="none" stroke="midnightblue" d="M1683.36,-190.4C1694.26,-181.54 1708.51,-169.96 1720.66,-160.09"/>
<polygon fill="midnightblue" stroke="midnightblue" points="1723.12,-162.6 1728.68,-153.58 1718.71,-157.17 1723.12,-162.6"/>
</g>
<!-- Node27&#45;&gt;Node6 -->
<g id="edge66" class="edge">
<title>Node27&#45;&gt;Node6</title>
<path fill="none" stroke="midnightblue" d="M1675.81,-124.51C1672.83,-123.99 1669.89,-123.49 1667,-123 1577.57,-107.91 1474.1,-92.28 1407.67,-82.49"/>
<polygon fill="midnightblue" stroke="midnightblue" points="1408.14,-79.02 1397.74,-81.02 1407.12,-85.94 1408.14,-79.02"/>
</g>
<!-- Node27&#45;&gt;Node9 -->
<g id="edge65" class="edge">
<title>Node27&#45;&gt;Node9</title>
<path fill="none" stroke="midnightblue" d="M1675.86,-124.12C1672.87,-123.71 1669.91,-123.33 1667,-123 1324.86,-83.83 1235.69,-121.03 893,-87 874.58,-85.17 854.27,-82.2 837.19,-79.43"/>
<polygon fill="midnightblue" stroke="midnightblue" points="837.44,-75.92 827,-77.74 836.3,-82.83 837.44,-75.92"/>
</g>
<!-- Node27&#45;&gt;Node24 -->
<g id="edge64" class="edge">
<title>Node27&#45;&gt;Node24</title>
<path fill="none" stroke="midnightblue" d="M1767.26,-123.4C1783.7,-112.5 1806.34,-97.48 1822.77,-86.58"/>
<polygon fill="midnightblue" stroke="midnightblue" points="1824.78,-89.45 1831.17,-81.01 1820.91,-83.62 1824.78,-89.45"/>
</g>
<!-- Node28 -->
<g id="node28" class="node">
<title>Node28</title>
<g id="a_node28"><a xlink:title=" ">
<polygon fill="white" stroke="#bfbfbf" points="1643,-56.5 1643,-86.5 1755,-86.5 1755,-56.5 1643,-56.5"/>
<text text-anchor="start" x="1651" y="-74.5" font-family="Helvetica,sans-Serif" font-size="10.00">boost/asio/executor</text>
<text text-anchor="middle" x="1699" y="-63.5" font-family="Helvetica,sans-Serif" font-size="10.00">_work_guard.hpp</text>
</a>
</g>
</g>
<!-- Node27&#45;&gt;Node28 -->
<g id="edge63" class="edge">
<title>Node27&#45;&gt;Node28</title>
<path fill="none" stroke="midnightblue" d="M1735.8,-123.4C1729.77,-115.05 1721.98,-104.29 1715.13,-94.81"/>
<polygon fill="midnightblue" stroke="midnightblue" points="1717.87,-92.63 1709.18,-86.58 1712.2,-96.73 1717.87,-92.63"/>
</g>
<!-- Node29&#45;&gt;Node5 -->
<g id="edge69" class="edge">
<title>Node29&#45;&gt;Node5</title>
<path fill="none" stroke="midnightblue" d="M1487.89,-123.21C1469.48,-101.89 1434.79,-63.45 1418,-56 1341.78,-22.19 742.31,-13.08 595.41,-11.34"/>
<polygon fill="midnightblue" stroke="midnightblue" points="595.29,-7.84 585.25,-11.23 595.21,-14.84 595.29,-7.84"/>
</g>
<!-- Node29&#45;&gt;Node6 -->
<g id="edge70" class="edge">
<title>Node29&#45;&gt;Node6</title>
<path fill="none" stroke="midnightblue" d="M1465.07,-123.4C1436.57,-111.89 1396.71,-95.8 1369.48,-84.81"/>
<polygon fill="midnightblue" stroke="midnightblue" points="1370.65,-81.51 1360.07,-81.01 1368.03,-88 1370.65,-81.51"/>
</g>
<!-- Node29&#45;&gt;Node14 -->
<g id="edge68" class="edge">
<title>Node29&#45;&gt;Node14</title>
<path fill="none" stroke="midnightblue" d="M1495.37,-123.46C1489.09,-106.05 1476.48,-76.2 1458,-56 1445.96,-42.84 1429.23,-31.99 1415.04,-24.24"/>
<polygon fill="midnightblue" stroke="midnightblue" points="1416.64,-21.12 1406.15,-19.6 1413.4,-27.33 1416.64,-21.12"/>
</g>
</g>
</svg>
