<?xml version="1.0" encoding="UTF-8" standalone="no"?>
<!DOCTYPE svg PUBLIC "-//W3C//DTD SVG 1.1//EN"
 "http://www.w3.org/Graphics/SVG/1.1/DTD/svg11.dtd">
<!-- Generated by graphviz version 2.43.0 (0)
 -->
<!-- Title: unilink/concurrency/thread_safe_state.hpp Pages: 1 -->
<svg width="1417pt" height="269pt"
 viewBox="0.00 0.00 1417.00 269.00" xmlns="http://www.w3.org/2000/svg" xmlns:xlink="http://www.w3.org/1999/xlink">
<g id="graph0" class="graph" transform="scale(1 1) rotate(0) translate(4 265)">
<title>unilink/concurrency/thread_safe_state.hpp</title>
<!-- Node1 -->
<g id="Node000001" class="node">
<title>Node1</title>
<g id="a_Node000001"><a xlink:title=" ">
<polygon fill="#999999" stroke="#666666" points="767,-261 639,-261 639,-231 767,-231 767,-261"/>
<text text-anchor="start" x="647" y="-249" font-family="Helvetica,sans-Serif" font-size="10.00">unilink/concurrency</text>
<text text-anchor="middle" x="703" y="-238" font-family="Helvetica,sans-Serif" font-size="10.00">/thread_safe_state.hpp</text>
</a>
</g>
</g>
<!-- Node2 -->
<g id="Node000002" class="node">
<title>Node2</title>
<g id="a_Node000002"><a xlink:title=" ">
<polygon fill="#e0e0e0" stroke="#999999" points="64,-195 0,-195 0,-176 64,-176 64,-195"/>
<text text-anchor="middle" x="32" y="-183" font-family="Helvetica,sans-Serif" font-size="10.00">algorithm</text>
</a>
</g>
</g>
<!-- Node1&#45;&gt;Node2 -->
<g id="edge1_Node000001_Node000002" class="edge">
<title>Node1&#45;&gt;Node2</title>
<g id="a_edge1_Node000001_Node000002"><a xlink:title=" ">
<path fill="none" stroke="#63b8ff" d="M638.89,-242.05C525.42,-236.35 281.96,-221.93 78,-195 76.73,-194.83 75.45,-194.65 74.15,-194.47"/>
<polygon fill="#63b8ff" stroke="#63b8ff" points="74.53,-190.98 64.1,-192.87 73.43,-197.89 74.53,-190.98"/>
</a>
</g>
</g>
<!-- Node3 -->
<g id="Node000003" class="node">
<title>Node3</title>
<g id="a_Node000003"><a xlink:title=" ">
<polygon fill="#e0e0e0" stroke="#999999" points="687,-19 637,-19 637,0 687,0 687,-19"/>
<text text-anchor="middle" x="662" y="-7" font-family="Helvetica,sans-Serif" font-size="10.00">atomic</text>
</a>
</g>
</g>
<!-- Node1&#45;&gt;Node3 -->
<g id="edge2_Node000001_Node000003" class="edge">
<title>Node1&#45;&gt;Node3</title>
<g id="a_edge2_Node000001_Node000003"><a xlink:title=" ">
<path fill="none" stroke="#63b8ff" d="M767.13,-240.92C825.6,-235.52 913.52,-223.13 985,-195 1026.87,-178.52 1047.31,-178.86 1070,-140 1089.07,-107.34 1099.27,-83.14 1074,-55 1067.7,-47.99 795.5,-22.62 697.06,-13.66"/>
<polygon fill="#63b8ff" stroke="#63b8ff" points="697.29,-10.17 687.01,-12.75 696.66,-17.14 697.29,-10.17"/>
</a>
</g>
</g>
<!-- Node4 -->
<g id="Node000004" class="node">
<title>Node4</title>
<g id="a_Node000004"><a xlink:title=" ">
<polygon fill="#e0e0e0" stroke="#999999" points="359,-19 309,-19 309,0 359,0 359,-19"/>
<text text-anchor="middle" x="334" y="-7" font-family="Helvetica,sans-Serif" font-size="10.00">chrono</text>
</a>
</g>
</g>
<!-- Node1&#45;&gt;Node4 -->
<g id="edge3_Node000001_Node000004" class="edge">
<title>Node1&#45;&gt;Node4</title>
<g id="a_edge3_Node000001_Node000004"><a xlink:title=" ">
<path fill="none" stroke="#63b8ff" d="M638.82,-240.59C520.7,-230.99 276.25,-203.73 225,-140 190.33,-96.89 265.6,-47.15 307.86,-23.85"/>
<polygon fill="#63b8ff" stroke="#63b8ff" points="309.67,-26.85 316.82,-19.03 306.36,-20.68 309.67,-26.85"/>
</a>
</g>
</g>
<!-- Node5 -->
<g id="Node000005" class="node">
<title>Node5</title>
<g id="a_Node000005"><a xlink:title=" ">
<polygon fill="#e0e0e0" stroke="#999999" points="1304.5,-195 1197.5,-195 1197.5,-176 1304.5,-176 1304.5,-195"/>
<text text-anchor="middle" x="1251" y="-183" font-family="Helvetica,sans-Serif" font-size="10.00">condition_variable</text>
</a>
</g>
</g>
<!-- Node1&#45;&gt;Node5 -->
<g id="edge4_Node000001_Node000005" class="edge">
<title>Node1&#45;&gt;Node5</title>
<g id="a_edge4_Node000001_Node000005"><a xlink:title=" ">
<path fill="none" stroke="#63b8ff" d="M767.1,-238.75C859.18,-229.67 1034.21,-212.05 1183,-195 1184.3,-194.85 1185.61,-194.7 1186.93,-194.55"/>
<polygon fill="#63b8ff" stroke="#63b8ff" points="1187.67,-197.98 1197.19,-193.33 1186.85,-191.03 1187.67,-197.98"/>
</a>
</g>
</g>
<!-- Node6 -->
<g id="Node000006" class="node">
<title>Node6</title>
<g id="a_Node000006"><a xlink:title=" ">
<polygon fill="#e0e0e0" stroke="#999999" points="1064.5,-74 999.5,-74 999.5,-55 1064.5,-55 1064.5,-74"/>
<text text-anchor="middle" x="1032" y="-62" font-family="Helvetica,sans-Serif" font-size="10.00">functional</text>
</a>
</g>
</g>
<!-- Node1&#45;&gt;Node6 -->
<g id="edge5_Node000001_Node000006" class="edge">
<title>Node1&#45;&gt;Node6</title>
<g id="a_edge5_Node000001_Node000006"><a xlink:title=" ">
<path fill="none" stroke="#63b8ff" d="M767.25,-235.07C858.84,-219.45 1019.67,-186.11 1054,-140 1066.66,-123 1055.48,-98.8 1044.97,-82.64"/>
<polygon fill="#63b8ff" stroke="#63b8ff" points="1047.64,-80.36 1039.04,-74.17 1041.91,-84.37 1047.64,-80.36"/>
</a>
</g>
</g>
<!-- Node7 -->
<g id="Node000007" class="node">
<title>Node7</title>
<g id="a_Node000007"><a xlink:title=" ">
<polygon fill="#e0e0e0" stroke="#999999" points="286,-19 238,-19 238,0 286,0 286,-19"/>
<text text-anchor="middle" x="262" y="-7" font-family="Helvetica,sans-Serif" font-size="10.00">mutex</text>
</a>
</g>
</g>
<!-- Node1&#45;&gt;Node7 -->
<g id="edge6_Node000001_Node000007" class="edge">
<title>Node1&#45;&gt;Node7</title>
<g id="a_edge6_Node000001_Node000007"><a xlink:title=" ">
<path fill="none" stroke="#63b8ff" d="M638.96,-241.76C537.3,-235.9 344.05,-221.58 281,-195 245.18,-179.9 229.74,-175.08 213,-140 194.2,-100.61 226.72,-51.94 247.22,-26.98"/>
<polygon fill="#63b8ff" stroke="#63b8ff" points="250.04,-29.07 253.87,-19.19 244.71,-24.53 250.04,-29.07"/>
</a>
</g>
</g>
<!-- Node8 -->
<g id="Node000008" class="node">
<title>Node8</title>
<g id="a_Node000008"><a xlink:title=" ">
<polygon fill="#e0e0e0" stroke="#999999" points="1409,-195 1323,-195 1323,-176 1409,-176 1409,-195"/>
<text text-anchor="middle" x="1366" y="-183" font-family="Helvetica,sans-Serif" font-size="10.00">shared_mutex</text>
</a>
</g>
</g>
<!-- Node1&#45;&gt;Node8 -->
<g id="edge7_Node000001_Node000008" class="edge">
<title>Node1&#45;&gt;Node8</title>
<g id="a_edge7_Node000001_Node000008"><a xlink:title=" ">
<path fill="none" stroke="#63b8ff" d="M767.39,-241.44C877.18,-234.99 1107.81,-219.82 1312.85,-195.04"/>
<polygon fill="#63b8ff" stroke="#63b8ff" points="1313.4,-198.5 1322.91,-193.82 1312.56,-191.55 1313.4,-198.5"/>
</a>
</g>
</g>
<!-- Node9 -->
<g id="Node000009" class="node">
<title>Node9</title>
<g id="a_Node000009"><a xlink:title=" ">
<polygon fill="#e0e0e0" stroke="#999999" points="209.5,-19 162.5,-19 162.5,0 209.5,0 209.5,-19"/>
<text text-anchor="middle" x="186" y="-7" font-family="Helvetica,sans-Serif" font-size="10.00">vector</text>
</a>
</g>
</g>
<!-- Node1&#45;&gt;Node9 -->
<g id="edge8_Node000001_Node000009" class="edge">
<title>Node1&#45;&gt;Node9</title>
<g id="a_edge8_Node000001_Node000009"><a xlink:title=" ">
<path fill="none" stroke="#63b8ff" d="M638.79,-244.94C527.2,-243.72 303.18,-236.06 238,-195 188.17,-163.61 192.63,-132.25 184,-74 181.8,-59.13 182.51,-42.1 183.65,-29.42"/>
<polygon fill="#63b8ff" stroke="#63b8ff" points="187.16,-29.5 184.75,-19.18 180.2,-28.75 187.16,-29.5"/>
</a>
</g>
</g>
<!-- Node10 -->
<g id="Node000010" class="node">
<title>Node10</title>
<g id="a_Node000010"><a xlink:href="common_8hpp.html" target="_top" xlink:title=" ">
<polygon fill="white" stroke="#666666" points="774.5,-195 631.5,-195 631.5,-176 774.5,-176 774.5,-195"/>
<text text-anchor="middle" x="703" y="-183" font-family="Helvetica,sans-Serif" font-size="10.00">unilink/base/common.hpp</text>
</a>
</g>
</g>
<!-- Node1&#45;&gt;Node10 -->
<g id="edge9_Node000001_Node000010" class="edge">
<title>Node1&#45;&gt;Node10</title>
<g id="a_edge9_Node000001_Node000010"><a xlink:title=" ">
<path fill="none" stroke="#63b8ff" d="M703,-230.84C703,-223.21 703,-213.7 703,-205.45"/>
<polygon fill="#63b8ff" stroke="#63b8ff" points="706.5,-205.27 703,-195.27 699.5,-205.27 706.5,-205.27"/>
</a>
</g>
</g>
<!-- Node10&#45;&gt;Node4 -->
<g id="edge10_Node000010_Node000004" class="edge">
<title>Node10&#45;&gt;Node4</title>
<g id="a_edge10_Node000010_Node000004"><a xlink:title=" ">
<path fill="none" stroke="#63b8ff" d="M631.21,-184.52C569.88,-182.03 480.63,-172.36 410,-140 404.88,-137.65 335.35,-79.12 333,-74 326.59,-60.05 327.44,-42.5 329.56,-29.38"/>
<polygon fill="#63b8ff" stroke="#63b8ff" points="333.07,-29.69 331.6,-19.2 326.2,-28.32 333.07,-29.69"/>
</a>
</g>
</g>
<!-- Node10&#45;&gt;Node6 -->
<g id="edge14_Node000010_Node000006" class="edge">
<title>Node10&#45;&gt;Node6</title>
<g id="a_edge14_Node000010_Node000006"><a xlink:title=" ">
<path fill="none" stroke="#63b8ff" d="M774.89,-179.87C867.61,-173.14 1019.07,-159.34 1036,-140 1049.3,-124.81 1044.92,-100.5 1039.46,-83.81"/>
<polygon fill="#63b8ff" stroke="#63b8ff" points="1042.63,-82.29 1035.89,-74.11 1036.06,-84.7 1042.63,-82.29"/>
</a>
</g>
</g>
<!-- Node10&#45;&gt;Node9 -->
<g id="edge22_Node000010_Node000009" class="edge">
<title>Node10&#45;&gt;Node9</title>
<g id="a_edge22_Node000010_Node000009"><a xlink:title=" ">
<path fill="none" stroke="#63b8ff" d="M631.17,-182.19C505.41,-177.5 255.73,-165.13 225,-140 191.77,-112.82 186.11,-58.42 185.59,-29.54"/>
<polygon fill="#63b8ff" stroke="#63b8ff" points="189.09,-29.2 185.61,-19.19 182.09,-29.18 189.09,-29.2"/>
</a>
</g>
</g>
<!-- Node11 -->
<g id="Node000011" class="node">
<title>Node11</title>
<g id="a_Node000011"><a xlink:title=" ">
<polygon fill="#e0e0e0" stroke="#999999" points="595,-134.5 545,-134.5 545,-115.5 595,-115.5 595,-134.5"/>
<text text-anchor="middle" x="570" y="-122.5" font-family="Helvetica,sans-Serif" font-size="10.00">cstdint</text>
</a>
</g>
</g>
<!-- Node10&#45;&gt;Node11 -->
<g id="edge11_Node000010_Node000011" class="edge">
<title>Node10&#45;&gt;Node11</title>
<g id="a_edge11_Node000010_Node000011"><a xlink:title=" ">
<path fill="none" stroke="#63b8ff" d="M683.66,-175.99C661.3,-166.16 624.29,-149.88 598.6,-138.58"/>
<polygon fill="#63b8ff" stroke="#63b8ff" points="599.93,-135.34 589.36,-134.52 597.11,-141.75 599.93,-135.34"/>
</a>
</g>
</g>
<!-- Node12 -->
<g id="Node000012" class="node">
<title>Node12</title>
<g id="a_Node000012"><a xlink:title=" ">
<polygon fill="#e0e0e0" stroke="#999999" points="663,-134.5 613,-134.5 613,-115.5 663,-115.5 663,-134.5"/>
<text text-anchor="middle" x="638" y="-122.5" font-family="Helvetica,sans-Serif" font-size="10.00">cstring</text>
</a>
</g>
</g>
<!-- Node10&#45;&gt;Node12 -->
<g id="edge12_Node000010_Node000012" class="edge">
<title>Node10&#45;&gt;Node12</title>
<g id="a_edge12_Node000010_Node000012"><a xlink:title=" ">
<path fill="none" stroke="#63b8ff" d="M693.41,-175.87C683.42,-166.88 667.57,-152.61 655.37,-141.64"/>
<polygon fill="#63b8ff" stroke="#63b8ff" points="657.4,-138.76 647.63,-134.67 652.72,-143.96 657.4,-138.76"/>
</a>
</g>
</g>
<!-- Node13 -->
<g id="Node000013" class="node">
<title>Node13</title>
<g id="a_Node000013"><a xlink:title=" ">
<polygon fill="#e0e0e0" stroke="#999999" points="725,-134.5 681,-134.5 681,-115.5 725,-115.5 725,-134.5"/>
<text text-anchor="middle" x="703" y="-122.5" font-family="Helvetica,sans-Serif" font-size="10.00">ctime</text>
</a>
</g>
</g>
<!-- Node10&#45;&gt;Node13 -->
<g id="edge13_Node000010_Node000013" class="edge">
<title>Node10&#45;&gt;Node13</title>
<g id="a_edge13_Node000010_Node000013"><a xlink:title=" ">
<path fill="none" stroke="#63b8ff" d="M703,-175.87C703,-167.75 703,-155.31 703,-144.89"/>
<polygon fill="#63b8ff" stroke="#63b8ff" points="706.5,-144.67 703,-134.67 699.5,-144.67 706.5,-144.67"/>
</a>
</g>
</g>
<!-- Node14 -->
<g id="Node000014" class="node">
<title>Node14</title>
<g id="a_Node000014"><a xlink:title=" ">
<polygon fill="#e0e0e0" stroke="#999999" points="875,-134.5 819,-134.5 819,-115.5 875,-115.5 875,-134.5"/>
<text text-anchor="middle" x="847" y="-122.5" font-family="Helvetica,sans-Serif" font-size="10.00">iomanip</text>
</a>
</g>
</g>
<!-- Node10&#45;&gt;Node14 -->
<g id="edge15_Node000010_Node000014" class="edge">
<title>Node10&#45;&gt;Node14</title>
<g id="a_edge15_Node000010_Node000014"><a xlink:title=" ">
<path fill="none" stroke="#63b8ff" d="M723.94,-175.99C748.36,-166.07 788.93,-149.59 816.77,-138.28"/>
<polygon fill="#63b8ff" stroke="#63b8ff" points="818.09,-141.52 826.04,-134.52 815.45,-135.04 818.09,-141.52"/>
</a>
</g>
</g>
<!-- Node15 -->
<g id="Node000015" class="node">
<title>Node15</title>
<g id="a_Node000015"><a xlink:title=" ">
<polygon fill="#e0e0e0" stroke="#999999" points="953,-134.5 893,-134.5 893,-115.5 953,-115.5 953,-134.5"/>
<text text-anchor="middle" x="923" y="-122.5" font-family="Helvetica,sans-Serif" font-size="10.00">iostream</text>
</a>
</g>
</g>
<!-- Node10&#45;&gt;Node15 -->
<g id="edge16_Node000010_Node000015" class="edge">
<title>Node10&#45;&gt;Node15</title>
<g id="a_edge16_Node000010_Node000015"><a xlink:title=" ">
<path fill="none" stroke="#63b8ff" d="M742.87,-175.95C779.75,-167.74 835.98,-154.48 884,-140 886.27,-139.32 888.59,-138.58 890.93,-137.81"/>
<polygon fill="#63b8ff" stroke="#63b8ff" points="892.12,-141.1 900.45,-134.54 889.85,-134.48 892.12,-141.1"/>
</a>
</g>
</g>
<!-- Node16 -->
<g id="Node000016" class="node">
<title>Node16</title>
<g id="a_Node000016"><a xlink:title=" ">
<polygon fill="#e0e0e0" stroke="#999999" points="1027,-134.5 971,-134.5 971,-115.5 1027,-115.5 1027,-134.5"/>
<text text-anchor="middle" x="999" y="-122.5" font-family="Helvetica,sans-Serif" font-size="10.00">sstream</text>
</a>
</g>
</g>
<!-- Node10&#45;&gt;Node16 -->
<g id="edge17_Node000010_Node000016" class="edge">
<title>Node10&#45;&gt;Node16</title>
<g id="a_edge17_Node000010_Node000016"><a xlink:title=" ">
<path fill="none" stroke="#63b8ff" d="M774.43,-175.98C826.9,-168.81 899.6,-157 962,-140 964.29,-139.38 966.64,-138.66 968.99,-137.9"/>
<polygon fill="#63b8ff" stroke="#63b8ff" points="970.22,-141.18 978.49,-134.56 967.89,-134.58 970.22,-141.18"/>
</a>
</g>
</g>
<!-- Node17 -->
<g id="Node000017" class="node">
<title>Node17</title>
<g id="a_Node000017"><a xlink:title=" ">
<polygon fill="#e0e0e0" stroke="#999999" points="299.5,-134.5 234.5,-134.5 234.5,-115.5 299.5,-115.5 299.5,-134.5"/>
<text text-anchor="middle" x="267" y="-122.5" font-family="Helvetica,sans-Serif" font-size="10.00">stdexcept</text>
</a>
</g>
</g>
<!-- Node10&#45;&gt;Node17 -->
<g id="edge18_Node000010_Node000017" class="edge">
<title>Node10&#45;&gt;Node17</title>
<g id="a_edge18_Node000010_Node000017"><a xlink:title=" ">
<path fill="none" stroke="#63b8ff" d="M631.23,-181.1C551.48,-176.24 419.28,-164.96 308,-140 305.01,-139.33 301.94,-138.52 298.89,-137.63"/>
<polygon fill="#63b8ff" stroke="#63b8ff" points="299.9,-134.28 289.31,-134.59 297.78,-140.95 299.9,-134.28"/>
</a>
</g>
</g>
<!-- Node18 -->
<g id="Node000018" class="node">
<title>Node18</title>
<g id="a_Node000018"><a xlink:title=" ">
<polygon fill="#e0e0e0" stroke="#999999" points="809,-19 765,-19 765,0 809,0 809,-19"/>
<text text-anchor="middle" x="787" y="-7" font-family="Helvetica,sans-Serif" font-size="10.00">string</text>
</a>
</g>
</g>
<!-- Node10&#45;&gt;Node18 -->
<g id="edge19_Node000010_Node000018" class="edge">
<title>Node10&#45;&gt;Node18</title>
<g id="a_edge19_Node000010_Node000018"><a xlink:title=" ">
<path fill="none" stroke="#63b8ff" d="M774.62,-184.36C864.84,-182.69 1013.06,-174.58 1054,-140 1077.42,-120.22 1069.51,-104.32 1074,-74 1075.24,-65.65 1079.49,-61.41 1074,-55 1041.46,-17.02 887,-11.18 819.12,-10.48"/>
<polygon fill="#63b8ff" stroke="#63b8ff" points="819.03,-6.98 809,-10.4 818.98,-13.98 819.03,-6.98"/>
</a>
</g>
</g>
<!-- Node19 -->
<g id="Node000019" class="node">
<title>Node19</title>
<g id="a_Node000019"><a xlink:title=" ">
<polygon fill="#e0e0e0" stroke="#999999" points="757.5,-74 684.5,-74 684.5,-55 757.5,-55 757.5,-74"/>
<text text-anchor="middle" x="721" y="-62" font-family="Helvetica,sans-Serif" font-size="10.00">string_view</text>
</a>
</g>
</g>
<!-- Node10&#45;&gt;Node19 -->
<g id="edge20_Node000010_Node000019" class="edge">
<title>Node10&#45;&gt;Node19</title>
<g id="a_edge20_Node000010_Node000019"><a xlink:title=" ">
<path fill="none" stroke="#63b8ff" d="M711.48,-175.85C719.05,-167.47 729.6,-154.01 734,-140 739.88,-121.27 734.46,-99.01 728.93,-83.73"/>
<polygon fill="#63b8ff" stroke="#63b8ff" points="732.17,-82.4 725.22,-74.39 725.66,-84.98 732.17,-82.4"/>
</a>
</g>
</g>
<!-- Node20 -->
<g id="Node000020" class="node">
<title>Node20</title>
<g id="a_Node000020"><a xlink:title=" ">
<polygon fill="#e0e0e0" stroke="#999999" points="362.5,-134.5 317.5,-134.5 317.5,-115.5 362.5,-115.5 362.5,-134.5"/>
<text text-anchor="middle" x="340" y="-122.5" font-family="Helvetica,sans-Serif" font-size="10.00">utility</text>
</a>
</g>
</g>
<!-- Node10&#45;&gt;Node20 -->
<g id="edge21_Node000010_Node000020" class="edge">
<title>Node10&#45;&gt;Node20</title>
<g id="a_edge21_Node000010_Node000020"><a xlink:title=" ">
<path fill="none" stroke="#63b8ff" d="M631.2,-179.39C564.55,-173.55 462.95,-161.83 377,-140 374.55,-139.38 372.05,-138.65 369.55,-137.85"/>
<polygon fill="#63b8ff" stroke="#63b8ff" points="370.69,-134.54 360.09,-134.54 368.38,-141.15 370.69,-134.54"/>
</a>
</g>
</g>
<!-- Node21 -->
<g id="Node000021" class="node">
<title>Node21</title>
<g id="a_Node000021"><a xlink:href="platform_8hpp.html" target="_top" xlink:title=" ">
<polygon fill="white" stroke="#666666" points="918,-74 776,-74 776,-55 918,-55 918,-74"/>
<text text-anchor="middle" x="847" y="-62" font-family="Helvetica,sans-Serif" font-size="10.00">unilink/base/platform.hpp</text>
</a>
</g>
</g>
<!-- Node10&#45;&gt;Node21 -->
<g id="edge23_Node000010_Node000021" class="edge">
<title>Node10&#45;&gt;Node21</title>
<g id="a_edge23_Node000010_Node000021"><a xlink:title=" ">
<path fill="none" stroke="#63b8ff" d="M713.36,-175.94C737.52,-155.97 797.91,-106.06 828.55,-80.75"/>
<polygon fill="#63b8ff" stroke="#63b8ff" points="830.87,-83.37 836.35,-74.3 826.41,-77.97 830.87,-83.37"/>
</a>
</g>
</g>
<!-- Node23 -->
<g id="Node000023" class="node">
<title>Node23</title>
<g id="a_Node000023"><a xlink:href="logger_8hpp.html" target="_top" xlink:title=" ">
<polygon fill="white" stroke="#666666" points="527,-140 419,-140 419,-110 527,-110 527,-140"/>
<text text-anchor="start" x="427" y="-128" font-family="Helvetica,sans-Serif" font-size="10.00">unilink/diagnostics</text>
<text text-anchor="middle" x="473" y="-117" font-family="Helvetica,sans-Serif" font-size="10.00">/logger.hpp</text>
</a>
</g>
</g>
<!-- Node10&#45;&gt;Node23 -->
<g id="edge26_Node000010_Node000023" class="edge">
<title>Node10&#45;&gt;Node23</title>
<g id="a_edge26_Node000010_Node000023"><a xlink:title=" ">
<path fill="none" stroke="#63b8ff" d="M669.56,-175.99C635,-167.2 580.19,-153.26 537.22,-142.33"/>
<polygon fill="#63b8ff" stroke="#63b8ff" points="537.96,-138.91 527.41,-139.84 536.24,-145.7 537.96,-138.91"/>
</a>
</g>
</g>
<!-- Node21&#45;&gt;Node18 -->
<g id="edge24_Node000021_Node000018" class="edge">
<title>Node21&#45;&gt;Node18</title>
<g id="a_edge24_Node000021_Node000018"><a xlink:title=" ">
<path fill="none" stroke="#63b8ff" d="M837.36,-54.98C828.49,-47.15 815.13,-35.34 804.39,-25.86"/>
<polygon fill="#63b8ff" stroke="#63b8ff" points="806.63,-23.17 796.82,-19.17 801.99,-28.41 806.63,-23.17"/>
</a>
</g>
</g>
<!-- Node22 -->
<g id="Node000022" class="node">
<title>Node22</title>
<g id="a_Node000022"><a xlink:href="visibility_8hpp.html" target="_top" xlink:title=" ">
<polygon fill="white" stroke="#666666" points="619,-19 541,-19 541,0 619,0 619,-19"/>
<text text-anchor="middle" x="580" y="-7" font-family="Helvetica,sans-Serif" font-size="10.00">visibility.hpp</text>
</a>
</g>
</g>
<!-- Node21&#45;&gt;Node22 -->
<g id="edge25_Node000021_Node000022" class="edge">
<title>Node21&#45;&gt;Node22</title>
<g id="a_edge25_Node000021_Node000022"><a xlink:title=" ">
<path fill="none" stroke="#63b8ff" d="M804.1,-54.98C756.38,-45.51 679.43,-30.24 629.28,-20.28"/>
<polygon fill="#63b8ff" stroke="#63b8ff" points="629.8,-16.82 619.31,-18.3 628.44,-23.68 629.8,-16.82"/>
</a>
</g>
</g>
<!-- Node23&#45;&gt;Node3 -->
<g id="edge27_Node000023_Node000003" class="edge">
<title>Node23&#45;&gt;Node3</title>
<g id="a_edge27_Node000023_Node000003"><a xlink:title=" ">
<path fill="none" stroke="#63b8ff" d="M508.59,-109.99C530.17,-100.89 557.91,-88.13 581,-74 604.4,-59.68 628.88,-39.69 644.71,-25.98"/>
<polygon fill="#63b8ff" stroke="#63b8ff" points="647.36,-28.32 652.56,-19.09 642.74,-23.06 647.36,-28.32"/>
</a>
</g>
</g>
<!-- Node23&#45;&gt;Node4 -->
<g id="edge28_Node000023_Node000004" class="edge">
<title>Node23&#45;&gt;Node4</title>
<g id="a_edge28_Node000023_Node000004"><a xlink:title=" ">
<path fill="none" stroke="#63b8ff" d="M462,-109.92C450,-95.13 429.72,-71.73 409,-55 394.12,-42.98 375.66,-31.99 360.78,-23.94"/>
<polygon fill="#63b8ff" stroke="#63b8ff" points="362.07,-20.66 351.59,-19.09 358.8,-26.85 362.07,-20.66"/>
</a>
</g>
</g>
<!-- Node23&#45;&gt;Node6 -->
<g id="edge29_Node000023_Node000006" class="edge">
<title>Node23&#45;&gt;Node6</title>
<g id="a_edge29_Node000023_Node000006"><a xlink:title=" ">
<path fill="none" stroke="#63b8ff" d="M527.21,-111.49C530.18,-110.95 533.12,-110.45 536,-110 580.17,-103.14 876.73,-78.32 989.02,-69.04"/>
<polygon fill="#63b8ff" stroke="#63b8ff" points="989.62,-72.5 999.3,-68.19 989.04,-65.52 989.62,-72.5"/>
</a>
</g>
</g>
<!-- Node23&#45;&gt;Node9 -->
<g id="edge33_Node000023_Node000009" class="edge">
<title>Node23&#45;&gt;Node9</title>
<g id="a_edge33_Node000023_Node000009"><a xlink:title=" ">
<path fill="none" stroke="#63b8ff" d="M431.39,-109.93C403.4,-100.27 365.78,-86.92 333,-74 291.17,-57.52 243.53,-36.52 214.11,-23.29"/>
<polygon fill="#63b8ff" stroke="#63b8ff" points="215.42,-20.04 204.87,-19.12 212.54,-26.42 215.42,-20.04"/>
</a>
</g>
</g>
<!-- Node23&#45;&gt;Node18 -->
<g id="edge31_Node000023_Node000018" class="edge">
<title>Node23&#45;&gt;Node18</title>
<g id="a_edge31_Node000023_Node000018"><a xlink:title=" ">
<path fill="none" stroke="#63b8ff" d="M511.82,-109.97C574.51,-87.31 696.87,-43.08 754.94,-22.09"/>
<polygon fill="#63b8ff" stroke="#63b8ff" points="756.46,-25.26 764.68,-18.57 754.08,-18.68 756.46,-25.26"/>
</a>
</g>
</g>
<!-- Node23&#45;&gt;Node19 -->
<g id="edge32_Node000023_Node000019" class="edge">
<title>Node23&#45;&gt;Node19</title>
<g id="a_edge32_Node000023_Node000019"><a xlink:title=" ">
<path fill="none" stroke="#63b8ff" d="M527.12,-111.23C571.23,-100.83 632.85,-86.29 674.7,-76.42"/>
<polygon fill="#63b8ff" stroke="#63b8ff" points="675.7,-79.78 684.63,-74.08 674.09,-72.97 675.7,-79.78"/>
</a>
</g>
</g>
<!-- Node23&#45;&gt;Node22 -->
<g id="edge42_Node000023_Node000022" class="edge">
<title>Node23&#45;&gt;Node22</title>
<g id="a_edge42_Node000023_Node000022"><a xlink:title=" ">
<path fill="none" stroke="#63b8ff" d="M511.78,-109.8C529.05,-101.71 548.3,-89.95 561,-74 571.19,-61.2 575.92,-43.03 578.12,-29.4"/>
<polygon fill="#63b8ff" stroke="#63b8ff" points="581.62,-29.61 579.43,-19.24 574.68,-28.71 581.62,-29.61"/>
</a>
</g>
</g>
<!-- Node24 -->
<g id="Node000024" class="node">
<title>Node24</title>
<g id="a_Node000024"><a xlink:title=" ">
<polygon fill="#e0e0e0" stroke="#999999" points="400,-74 342,-74 342,-55 400,-55 400,-74"/>
<text text-anchor="middle" x="371" y="-62" font-family="Helvetica,sans-Serif" font-size="10.00">memory</text>
</a>
</g>
</g>
<!-- Node23&#45;&gt;Node24 -->
<g id="edge30_Node000023_Node000024" class="edge">
<title>Node23&#45;&gt;Node24</title>
<g id="a_edge30_Node000023_Node000024"><a xlink:title=" ">
<path fill="none" stroke="#63b8ff" d="M448.57,-109.99C432.31,-100.66 411.05,-88.47 394.9,-79.21"/>
<polygon fill="#63b8ff" stroke="#63b8ff" points="396.48,-76.08 386.06,-74.14 393,-82.15 396.48,-76.08"/>
</a>
</g>
</g>
<!-- Node25 -->
<g id="Node000025" class="node">
<title>Node25</title>
<g id="a_Node000025"><a xlink:href="log__rotation_8hpp.html" target="_top" xlink:title=" ">
<polygon fill="white" stroke="#666666" points="552,-74 456,-74 456,-55 552,-55 552,-74"/>
<text text-anchor="middle" x="504" y="-62" font-family="Helvetica,sans-Serif" font-size="10.00">log_rotation.hpp</text>
</a>
</g>
</g>
<!-- Node23&#45;&gt;Node25 -->
<g id="edge34_Node000023_Node000025" class="edge">
<title>Node23&#45;&gt;Node25</title>
<g id="a_edge34_Node000023_Node000025"><a xlink:title=" ">
<path fill="none" stroke="#63b8ff" d="M480.5,-109.84C484.73,-101.87 490.04,-91.84 494.55,-83.33"/>
<polygon fill="#63b8ff" stroke="#63b8ff" points="497.77,-84.74 499.35,-74.27 491.58,-81.46 497.77,-84.74"/>
</a>
</g>
</g>
<!-- Node25&#45;&gt;Node3 -->
<g id="edge35_Node000025_Node000003" class="edge">
<title>Node25&#45;&gt;Node3</title>
<g id="a_edge35_Node000025_Node000003"><a xlink:title=" ">
<path fill="none" stroke="#63b8ff" d="M529.39,-54.98C555.95,-46.07 597.84,-32.02 627.42,-22.1"/>
<polygon fill="#63b8ff" stroke="#63b8ff" points="628.57,-25.41 636.94,-18.91 626.34,-18.77 628.57,-25.41"/>
</a>
</g>
</g>
<!-- Node25&#45;&gt;Node4 -->
<g id="edge36_Node000025_Node000004" class="edge">
<title>Node25&#45;&gt;Node4</title>
<g id="a_edge36_Node000025_Node000004"><a xlink:title=" ">
<path fill="none" stroke="#63b8ff" d="M476.69,-54.98C447.38,-45.85 400.76,-31.31 368.84,-21.36"/>
<polygon fill="#63b8ff" stroke="#63b8ff" points="369.62,-17.94 359.03,-18.3 367.53,-24.62 369.62,-17.94"/>
</a>
</g>
</g>
<!-- Node25&#45;&gt;Node7 -->
<g id="edge38_Node000025_Node000007" class="edge">
<title>Node25&#45;&gt;Node7</title>
<g id="a_edge38_Node000025_Node000007"><a xlink:title=" ">
<path fill="none" stroke="#63b8ff" d="M464.5,-54.95C423.39,-46.03 357.16,-31.63 300,-19 298.74,-18.72 297.45,-18.44 296.15,-18.15"/>
<polygon fill="#63b8ff" stroke="#63b8ff" points="296.64,-14.67 286.12,-15.92 295.12,-21.5 296.64,-14.67"/>
</a>
</g>
</g>
<!-- Node25&#45;&gt;Node9 -->
<g id="edge40_Node000025_Node000009" class="edge">
<title>Node25&#45;&gt;Node9</title>
<g id="a_edge40_Node000025_Node000009"><a xlink:title=" ">
<path fill="none" stroke="#63b8ff" d="M455.73,-56.21C400.75,-47.78 308.26,-33.24 229,-19 225.95,-18.45 222.79,-17.86 219.62,-17.26"/>
<polygon fill="#63b8ff" stroke="#63b8ff" points="220.11,-13.79 209.63,-15.32 218.78,-20.66 220.11,-13.79"/>
</a>
</g>
</g>
<!-- Node25&#45;&gt;Node18 -->
<g id="edge39_Node000025_Node000018" class="edge">
<title>Node25&#45;&gt;Node18</title>
<g id="a_edge39_Node000025_Node000018"><a xlink:title=" ">
<path fill="none" stroke="#63b8ff" d="M549.47,-54.98C606.94,-44.22 704.43,-25.96 754.78,-16.53"/>
<polygon fill="#63b8ff" stroke="#63b8ff" points="755.59,-19.94 764.78,-14.66 754.3,-13.06 755.59,-19.94"/>
</a>
</g>
</g>
<!-- Node25&#45;&gt;Node22 -->
<g id="edge41_Node000025_Node000022" class="edge">
<title>Node25&#45;&gt;Node22</title>
<g id="a_edge41_Node000025_Node000022"><a xlink:title=" ">
<path fill="none" stroke="#63b8ff" d="M516.21,-54.98C527.78,-46.92 545.38,-34.65 559.16,-25.03"/>
<polygon fill="#63b8ff" stroke="#63b8ff" points="561.37,-27.76 567.57,-19.17 557.36,-22.02 561.37,-27.76"/>
</a>
</g>
</g>
<!-- Node26 -->
<g id="Node000026" class="node">
<title>Node26</title>
<g id="a_Node000026"><a xlink:title=" ">
<polygon fill="#e0e0e0" stroke="#999999" points="523,-19 455,-19 455,0 523,0 523,-19"/>
<text text-anchor="middle" x="489" y="-7" font-family="Helvetica,sans-Serif" font-size="10.00">filesystem</text>
</a>
</g>
</g>
<!-- Node25&#45;&gt;Node26 -->
<g id="edge37_Node000025_Node000026" class="edge">
<title>Node25&#45;&gt;Node26</title>
<g id="a_edge37_Node000025_Node000026"><a xlink:title=" ">
<path fill="none" stroke="#63b8ff" d="M501.52,-54.75C499.54,-47.72 496.68,-37.62 494.19,-28.84"/>
<polygon fill="#63b8ff" stroke="#63b8ff" points="497.52,-27.76 491.43,-19.09 490.79,-29.66 497.52,-27.76"/>
</a>
</g>
</g>
</g>
</svg>
