<?xml version="1.0" encoding="UTF-8" standalone="no"?>
<!DOCTYPE svg PUBLIC "-//W3C//DTD SVG 1.1//EN"
 "http://www.w3.org/Graphics/SVG/1.1/DTD/svg11.dtd">
<!-- Generated by graphviz version 2.43.0 (0)
 -->
<!-- Title: unilink/transport/tcp_server/tcp_server.hpp Pages: 1 -->
<svg width="2153pt" height="291pt"
 viewBox="0.00 0.00 2152.50 291.00" xmlns="http://www.w3.org/2000/svg" xmlns:xlink="http://www.w3.org/1999/xlink">
<g id="graph0" class="graph" transform="scale(1 1) rotate(0) translate(4 287)">
<title>unilink/transport/tcp_server/tcp_server.hpp</title>
<!-- Node1 -->
<g id="Node000001" class="node">
<title>Node1</title>
<g id="a_Node000001"><a xlink:title=" ">
<polygon fill="#999999" stroke="#666666" points="1305,-283 1178,-283 1178,-253 1305,-253 1305,-283"/>
<text text-anchor="start" x="1186" y="-271" font-family="Helvetica,sans-Serif" font-size="10.00">unilink/transport/tcp</text>
<text text-anchor="middle" x="1241.5" y="-260" font-family="Helvetica,sans-Serif" font-size="10.00">_server/tcp_server.hpp</text>
</a>
</g>
</g>
<!-- Node2 -->
<g id="Node000002" class="node">
<title>Node2</title>
<g id="a_Node000002"><a xlink:title=" ">
<polygon fill="#e0e0e0" stroke="#999999" points="2144.5,-19 2086.5,-19 2086.5,0 2144.5,0 2144.5,-19"/>
<text text-anchor="middle" x="2115.5" y="-7" font-family="Helvetica,sans-Serif" font-size="10.00">memory</text>
</a>
</g>
</g>
<!-- Node1&#45;&gt;Node2 -->
<g id="edge1_Node000001_Node000002" class="edge">
<title>Node1&#45;&gt;Node2</title>
<g id="a_edge1_Node000001_Node000002"><a xlink:title=" ">
<path fill="none" stroke="#63b8ff" d="M1305.22,-267.06C1412.07,-265.92 1633.56,-258.23 1815.5,-217 1896.98,-198.54 1922.36,-197.89 1991.5,-151 2042.06,-116.71 2085.16,-57.14 2104.55,-27.81"/>
<polygon fill="#63b8ff" stroke="#63b8ff" points="2107.69,-29.4 2110.19,-19.11 2101.81,-25.6 2107.69,-29.4"/>
</a>
</g>
</g>
<!-- Node3 -->
<g id="Node000003" class="node">
<title>Node3</title>
<g id="a_Node000003"><a xlink:title=" ">
<polygon fill="#e0e0e0" stroke="#999999" points="899.5,-19 855.5,-19 855.5,0 899.5,0 899.5,-19"/>
<text text-anchor="middle" x="877.5" y="-7" font-family="Helvetica,sans-Serif" font-size="10.00">string</text>
</a>
</g>
</g>
<!-- Node1&#45;&gt;Node3 -->
<g id="edge2_Node000001_Node000003" class="edge">
<title>Node1&#45;&gt;Node3</title>
<g id="a_edge2_Node000001_Node000003"><a xlink:title=" ">
<path fill="none" stroke="#63b8ff" d="M1203.38,-252.93C1138.88,-227.61 1006.93,-169.04 921.5,-85 904.99,-68.75 892.4,-45.05 885,-28.76"/>
<polygon fill="#63b8ff" stroke="#63b8ff" points="888.09,-27.07 880.9,-19.28 881.66,-29.85 888.09,-27.07"/>
</a>
</g>
</g>
<!-- Node4 -->
<g id="Node000004" class="node">
<title>Node4</title>
<g id="a_Node000004"><a xlink:title=" ">
<polygon fill="#e0e0e0" stroke="#999999" points="1321,-19 1248,-19 1248,0 1321,0 1321,-19"/>
<text text-anchor="middle" x="1284.5" y="-7" font-family="Helvetica,sans-Serif" font-size="10.00">string_view</text>
</a>
</g>
</g>
<!-- Node1&#45;&gt;Node4 -->
<g id="edge3_Node000001_Node000004" class="edge">
<title>Node1&#45;&gt;Node4</title>
<g id="a_edge3_Node000001_Node000004"><a xlink:title=" ">
<path fill="none" stroke="#63b8ff" d="M1243.87,-252.84C1251.14,-209.48 1273.11,-78.45 1281.34,-29.35"/>
<polygon fill="#63b8ff" stroke="#63b8ff" points="1284.84,-29.65 1283.04,-19.21 1277.93,-28.49 1284.84,-29.65"/>
</a>
</g>
</g>
<!-- Node5 -->
<g id="Node000005" class="node">
<title>Node5</title>
<g id="a_Node000005"><a xlink:title=" ">
<polygon fill="#e0e0e0" stroke="#999999" points="2063,-19 2016,-19 2016,0 2063,0 2063,-19"/>
<text text-anchor="middle" x="2039.5" y="-7" font-family="Helvetica,sans-Serif" font-size="10.00">vector</text>
</a>
</g>
</g>
<!-- Node1&#45;&gt;Node5 -->
<g id="edge4_Node000001_Node000005" class="edge">
<title>Node1&#45;&gt;Node5</title>
<g id="a_edge4_Node000001_Node000005"><a xlink:title=" ">
<path fill="none" stroke="#63b8ff" d="M1305.14,-267.19C1432.95,-265.35 1727.58,-249.71 1949.5,-151 1992.88,-131.7 2011.05,-126.83 2033.5,-85 2042.68,-67.89 2043.18,-45.32 2042.01,-29.52"/>
<polygon fill="#63b8ff" stroke="#63b8ff" points="2045.47,-28.98 2040.96,-19.39 2038.51,-29.7 2045.47,-28.98"/>
</a>
</g>
</g>
<!-- Node6 -->
<g id="Node000006" class="node">
<title>Node6</title>
<g id="a_Node000006"><a xlink:href="visibility_8hpp.html" target="_top" xlink:title=" ">
<polygon fill="white" stroke="#666666" points="1175.5,-19 1035.5,-19 1035.5,0 1175.5,0 1175.5,-19"/>
<text text-anchor="middle" x="1105.5" y="-7" font-family="Helvetica,sans-Serif" font-size="10.00">unilink/base/visibility.hpp</text>
</a>
</g>
</g>
<!-- Node1&#45;&gt;Node6 -->
<g id="edge5_Node000001_Node000006" class="edge">
<title>Node1&#45;&gt;Node6</title>
<g id="a_edge5_Node000001_Node000006"><a xlink:title=" ">
<path fill="none" stroke="#63b8ff" d="M1234.69,-252.93C1218.03,-218.66 1173.52,-128.32 1132.5,-55 1127.43,-45.93 1121.46,-36.03 1116.43,-27.87"/>
<polygon fill="#63b8ff" stroke="#63b8ff" points="1119.32,-25.9 1111.06,-19.26 1113.38,-29.6 1119.32,-25.9"/>
</a>
</g>
</g>
<!-- Node7 -->
<g id="Node000007" class="node">
<title>Node7</title>
<g id="a_Node000007"><a xlink:href="tcp__server__config_8hpp.html" target="_top" xlink:title=" ">
<polygon fill="white" stroke="#666666" points="479.5,-217 371.5,-217 371.5,-187 479.5,-187 479.5,-217"/>
<text text-anchor="start" x="379.5" y="-205" font-family="Helvetica,sans-Serif" font-size="10.00">unilink/config/tcp</text>
<text text-anchor="middle" x="425.5" y="-194" font-family="Helvetica,sans-Serif" font-size="10.00">_server_config.hpp</text>
</a>
</g>
</g>
<!-- Node1&#45;&gt;Node7 -->
<g id="edge6_Node000001_Node000007" class="edge">
<title>Node1&#45;&gt;Node7</title>
<g id="a_edge6_Node000001_Node000007"><a xlink:title=" ">
<path fill="none" stroke="#63b8ff" d="M1177.81,-262C1025.65,-250.07 642.31,-220 489.67,-208.03"/>
<polygon fill="#63b8ff" stroke="#63b8ff" points="489.76,-204.53 479.51,-207.24 489.21,-211.51 489.76,-204.53"/>
</a>
</g>
</g>
<!-- Node17 -->
<g id="Node000017" class="node">
<title>Node17</title>
<g id="a_Node000017"><a xlink:href="channel_8hpp.html" target="_top" xlink:title=" ">
<polygon fill="white" stroke="#666666" points="1558.5,-211.5 1400.5,-211.5 1400.5,-192.5 1558.5,-192.5 1558.5,-211.5"/>
<text text-anchor="middle" x="1479.5" y="-199.5" font-family="Helvetica,sans-Serif" font-size="10.00">unilink/interface/channel.hpp</text>
</a>
</g>
</g>
<!-- Node1&#45;&gt;Node17 -->
<g id="edge26_Node000001_Node000017" class="edge">
<title>Node1&#45;&gt;Node17</title>
<g id="a_edge26_Node000001_Node000017"><a xlink:title=" ">
<path fill="none" stroke="#63b8ff" d="M1293.73,-252.95C1337.12,-241.29 1398.03,-224.91 1438.11,-214.13"/>
<polygon fill="#63b8ff" stroke="#63b8ff" points="1439.08,-217.49 1447.83,-211.52 1437.26,-210.73 1439.08,-217.49"/>
</a>
</g>
</g>
<!-- Node7&#45;&gt;Node3 -->
<g id="edge8_Node000007_Node000003" class="edge">
<title>Node7&#45;&gt;Node3</title>
<g id="a_edge8_Node000007_Node000003"><a xlink:title=" ">
<path fill="none" stroke="#63b8ff" d="M422.31,-186.91C416.62,-157.65 408.42,-90.12 444.5,-55 458.87,-41.01 747.17,-19.62 845.2,-12.73"/>
<polygon fill="#63b8ff" stroke="#63b8ff" points="845.67,-16.2 855.4,-12.01 845.18,-9.22 845.67,-16.2"/>
</a>
</g>
</g>
<!-- Node8 -->
<g id="Node000008" class="node">
<title>Node8</title>
<g id="a_Node000008"><a xlink:title=" ">
<polygon fill="#e0e0e0" stroke="#999999" points="238.5,-19 188.5,-19 188.5,0 238.5,0 238.5,-19"/>
<text text-anchor="middle" x="213.5" y="-7" font-family="Helvetica,sans-Serif" font-size="10.00">cstdint</text>
</a>
</g>
</g>
<!-- Node7&#45;&gt;Node8 -->
<g id="edge7_Node000007_Node000008" class="edge">
<title>Node7&#45;&gt;Node8</title>
<g id="a_edge7_Node000007_Node000008"><a xlink:title=" ">
<path fill="none" stroke="#63b8ff" d="M371.3,-187.59C321.22,-172.04 249.59,-141.05 215.5,-85 205.33,-68.28 206.48,-45.3 209.12,-29.3"/>
<polygon fill="#63b8ff" stroke="#63b8ff" points="212.64,-29.57 211.17,-19.08 205.78,-28.2 212.64,-29.57"/>
</a>
</g>
</g>
<!-- Node9 -->
<g id="Node000009" class="node">
<title>Node9</title>
<g id="a_Node000009"><a xlink:href="constants_8hpp.html" target="_top" xlink:title=" ">
<polygon fill="white" stroke="#666666" points="147,-79.5 0,-79.5 0,-60.5 147,-60.5 147,-79.5"/>
<text text-anchor="middle" x="73.5" y="-67.5" font-family="Helvetica,sans-Serif" font-size="10.00">unilink/base/constants.hpp</text>
</a>
</g>
</g>
<!-- Node7&#45;&gt;Node9 -->
<g id="edge9_Node000007_Node000009" class="edge">
<title>Node7&#45;&gt;Node9</title>
<g id="a_edge9_Node000007_Node000009"><a xlink:title=" ">
<path fill="none" stroke="#63b8ff" d="M371.44,-199.31C316.07,-195.68 228.82,-184.56 161.5,-151 130.55,-135.57 102.44,-106.09 86.69,-87.55"/>
<polygon fill="#63b8ff" stroke="#63b8ff" points="89.24,-85.14 80.18,-79.66 83.84,-89.6 89.24,-85.14"/>
</a>
</g>
</g>
<!-- Node11 -->
<g id="Node000011" class="node">
<title>Node11</title>
<g id="a_Node000011"><a xlink:href="input__validator_8hpp.html" target="_top" xlink:title=" ">
<polygon fill="white" stroke="#666666" points="670.5,-151 574.5,-151 574.5,-121 670.5,-121 670.5,-151"/>
<text text-anchor="start" x="582.5" y="-139" font-family="Helvetica,sans-Serif" font-size="10.00">unilink/util/input</text>
<text text-anchor="middle" x="622.5" y="-128" font-family="Helvetica,sans-Serif" font-size="10.00">_validator.hpp</text>
</a>
</g>
</g>
<!-- Node7&#45;&gt;Node11 -->
<g id="edge12_Node000007_Node000011" class="edge">
<title>Node7&#45;&gt;Node11</title>
<g id="a_edge12_Node000007_Node000011"><a xlink:title=" ">
<path fill="none" stroke="#63b8ff" d="M468.73,-186.95C498.5,-177.28 538.22,-164.38 569.84,-154.11"/>
<polygon fill="#63b8ff" stroke="#63b8ff" points="570.94,-157.43 579.37,-151.01 568.78,-150.77 570.94,-157.43"/>
</a>
</g>
</g>
<!-- Node9&#45;&gt;Node8 -->
<g id="edge11_Node000009_Node000008" class="edge">
<title>Node9&#45;&gt;Node8</title>
<g id="a_edge11_Node000009_Node000008"><a xlink:title=" ">
<path fill="none" stroke="#63b8ff" d="M93.86,-60.49C117.5,-50.62 156.7,-34.23 183.75,-22.93"/>
<polygon fill="#63b8ff" stroke="#63b8ff" points="185.24,-26.1 193.12,-19.02 182.54,-19.64 185.24,-26.1"/>
</a>
</g>
</g>
<!-- Node10 -->
<g id="Node000010" class="node">
<title>Node10</title>
<g id="a_Node000010"><a xlink:title=" ">
<polygon fill="#e0e0e0" stroke="#999999" points="100,-19 47,-19 47,0 100,0 100,-19"/>
<text text-anchor="middle" x="73.5" y="-7" font-family="Helvetica,sans-Serif" font-size="10.00">cstddef</text>
</a>
</g>
</g>
<!-- Node9&#45;&gt;Node10 -->
<g id="edge10_Node000009_Node000010" class="edge">
<title>Node9&#45;&gt;Node10</title>
<g id="a_edge10_Node000009_Node000010"><a xlink:title=" ">
<path fill="none" stroke="#63b8ff" d="M73.5,-60.37C73.5,-52.25 73.5,-39.81 73.5,-29.39"/>
<polygon fill="#63b8ff" stroke="#63b8ff" points="77,-29.17 73.5,-19.17 70,-29.17 77,-29.17"/>
</a>
</g>
</g>
<!-- Node11&#45;&gt;Node3 -->
<g id="edge17_Node000011_Node000003" class="edge">
<title>Node11&#45;&gt;Node3</title>
<g id="a_edge17_Node000011_Node000003"><a xlink:title=" ">
<path fill="none" stroke="#63b8ff" d="M670.87,-131.72C713.32,-126.87 775.2,-114.84 820.5,-85 842.21,-70.7 859.01,-45.25 868.58,-28.13"/>
<polygon fill="#63b8ff" stroke="#63b8ff" points="871.75,-29.63 873.37,-19.16 865.57,-26.34 871.75,-29.63"/>
</a>
</g>
</g>
<!-- Node11&#45;&gt;Node4 -->
<g id="edge18_Node000011_Node000004" class="edge">
<title>Node11&#45;&gt;Node4</title>
<g id="a_edge18_Node000011_Node000004"><a xlink:title=" ">
<path fill="none" stroke="#63b8ff" d="M670.66,-135.93C762.4,-136.48 967.76,-131.79 1132.5,-85 1181.27,-71.15 1233.33,-42.14 1262.1,-24.69"/>
<polygon fill="#63b8ff" stroke="#63b8ff" points="1264.25,-27.47 1270.93,-19.25 1260.58,-21.51 1264.25,-27.47"/>
</a>
</g>
</g>
<!-- Node11&#45;&gt;Node5 -->
<g id="edge19_Node000011_Node000005" class="edge">
<title>Node11&#45;&gt;Node5</title>
<g id="a_edge19_Node000011_Node000005"><a xlink:title=" ">
<path fill="none" stroke="#63b8ff" d="M670.62,-134.21C856.52,-130.92 1527.83,-117.07 1738.5,-85 1790.3,-77.12 1801.68,-67.73 1852.5,-55 1906.06,-41.58 1968.49,-26.92 2005.96,-18.23"/>
<polygon fill="#63b8ff" stroke="#63b8ff" points="2006.89,-21.61 2015.84,-15.94 2005.31,-14.79 2006.89,-21.61"/>
</a>
</g>
</g>
<!-- Node11&#45;&gt;Node6 -->
<g id="edge21_Node000011_Node000006" class="edge">
<title>Node11&#45;&gt;Node6</title>
<g id="a_edge21_Node000011_Node000006"><a xlink:title=" ">
<path fill="none" stroke="#63b8ff" d="M670.55,-125.38C716.64,-115.93 788.11,-100.67 849.5,-85 928.17,-64.91 1019.23,-37.37 1068.76,-22.03"/>
<polygon fill="#63b8ff" stroke="#63b8ff" points="1069.87,-25.35 1078.38,-19.04 1067.8,-18.66 1069.87,-25.35"/>
</a>
</g>
</g>
<!-- Node11&#45;&gt;Node8 -->
<g id="edge15_Node000011_Node000008" class="edge">
<title>Node11&#45;&gt;Node8</title>
<g id="a_edge15_Node000011_Node000008"><a xlink:title=" ">
<path fill="none" stroke="#63b8ff" d="M574.18,-134.98C482.44,-133.95 287.69,-126.77 237.5,-85 221.05,-71.31 215.76,-46.26 214.12,-29.02"/>
<polygon fill="#63b8ff" stroke="#63b8ff" points="217.61,-28.77 213.49,-19.01 210.62,-29.21 217.61,-28.77"/>
</a>
</g>
</g>
<!-- Node11&#45;&gt;Node9 -->
<g id="edge20_Node000011_Node000009" class="edge">
<title>Node11&#45;&gt;Node9</title>
<g id="a_edge20_Node000011_Node000009"><a xlink:title=" ">
<path fill="none" stroke="#63b8ff" d="M574.26,-129.38C480.57,-118.45 273.01,-94.26 156.67,-80.7"/>
<polygon fill="#63b8ff" stroke="#63b8ff" points="157.08,-77.22 146.74,-79.54 156.26,-84.17 157.08,-77.22"/>
</a>
</g>
</g>
<!-- Node12 -->
<g id="Node000012" class="node">
<title>Node12</title>
<g id="a_Node000012"><a xlink:title=" ">
<polygon fill="#e0e0e0" stroke="#999999" points="579.5,-79.5 515.5,-79.5 515.5,-60.5 579.5,-60.5 579.5,-79.5"/>
<text text-anchor="middle" x="547.5" y="-67.5" font-family="Helvetica,sans-Serif" font-size="10.00">algorithm</text>
</a>
</g>
</g>
<!-- Node11&#45;&gt;Node12 -->
<g id="edge13_Node000011_Node000012" class="edge">
<title>Node11&#45;&gt;Node12</title>
<g id="a_edge13_Node000011_Node000012"><a xlink:title=" ">
<path fill="none" stroke="#63b8ff" d="M605.86,-120.8C593.93,-110.62 577.89,-96.93 565.64,-86.48"/>
<polygon fill="#63b8ff" stroke="#63b8ff" points="567.74,-83.67 557.86,-79.84 563.2,-89 567.74,-83.67"/>
</a>
</g>
</g>
<!-- Node13 -->
<g id="Node000013" class="node">
<title>Node13</title>
<g id="a_Node000013"><a xlink:title=" ">
<polygon fill="#e0e0e0" stroke="#999999" points="647,-79.5 598,-79.5 598,-60.5 647,-60.5 647,-79.5"/>
<text text-anchor="middle" x="622.5" y="-67.5" font-family="Helvetica,sans-Serif" font-size="10.00">cctype</text>
</a>
</g>
</g>
<!-- Node11&#45;&gt;Node13 -->
<g id="edge14_Node000011_Node000013" class="edge">
<title>Node11&#45;&gt;Node13</title>
<g id="a_edge14_Node000011_Node000013"><a xlink:title=" ">
<path fill="none" stroke="#63b8ff" d="M622.5,-120.8C622.5,-111.7 622.5,-99.79 622.5,-89.9"/>
<polygon fill="#63b8ff" stroke="#63b8ff" points="626,-89.84 622.5,-79.84 619,-89.84 626,-89.84"/>
</a>
</g>
</g>
<!-- Node14 -->
<g id="Node000014" class="node">
<title>Node14</title>
<g id="a_Node000014"><a xlink:title=" ">
<polygon fill="#e0e0e0" stroke="#999999" points="497.5,-79.5 453.5,-79.5 453.5,-60.5 497.5,-60.5 497.5,-79.5"/>
<text text-anchor="middle" x="475.5" y="-67.5" font-family="Helvetica,sans-Serif" font-size="10.00">regex</text>
</a>
</g>
</g>
<!-- Node11&#45;&gt;Node14 -->
<g id="edge16_Node000011_Node000014" class="edge">
<title>Node11&#45;&gt;Node14</title>
<g id="a_edge16_Node000011_Node000014"><a xlink:title=" ">
<path fill="none" stroke="#63b8ff" d="M589.43,-120.93C566.19,-110.99 534.39,-97.31 506.5,-85 505.65,-84.62 504.79,-84.24 503.91,-83.86"/>
<polygon fill="#63b8ff" stroke="#63b8ff" points="505.05,-80.53 494.49,-79.64 502.19,-86.92 505.05,-80.53"/>
</a>
</g>
</g>
<!-- Node15 -->
<g id="Node000015" class="node">
<title>Node15</title>
<g id="a_Node000015"><a xlink:href="exceptions_8hpp.html" target="_top" xlink:title=" ">
<polygon fill="white" stroke="#666666" points="811.5,-85 703.5,-85 703.5,-55 811.5,-55 811.5,-85"/>
<text text-anchor="start" x="711.5" y="-73" font-family="Helvetica,sans-Serif" font-size="10.00">unilink/diagnostics</text>
<text text-anchor="middle" x="757.5" y="-62" font-family="Helvetica,sans-Serif" font-size="10.00">/exceptions.hpp</text>
</a>
</g>
</g>
<!-- Node11&#45;&gt;Node15 -->
<g id="edge22_Node000011_Node000015" class="edge">
<title>Node11&#45;&gt;Node15</title>
<g id="a_edge22_Node000011_Node000015"><a xlink:title=" ">
<path fill="none" stroke="#63b8ff" d="M652.13,-120.95C671.73,-111.66 697.64,-99.38 718.87,-89.32"/>
<polygon fill="#63b8ff" stroke="#63b8ff" points="720.41,-92.46 727.94,-85.01 717.41,-86.13 720.41,-92.46"/>
</a>
</g>
</g>
<!-- Node15&#45;&gt;Node3 -->
<g id="edge24_Node000015_Node000003" class="edge">
<title>Node15&#45;&gt;Node3</title>
<g id="a_edge24_Node000015_Node000003"><a xlink:title=" ">
<path fill="none" stroke="#63b8ff" d="M786.24,-54.99C805.82,-45.45 831.55,-32.9 850.7,-23.57"/>
<polygon fill="#63b8ff" stroke="#63b8ff" points="852.32,-26.67 859.78,-19.14 849.26,-20.38 852.32,-26.67"/>
</a>
</g>
</g>
<!-- Node15&#45;&gt;Node6 -->
<g id="edge25_Node000015_Node000006" class="edge">
<title>Node15&#45;&gt;Node6</title>
<g id="a_edge25_Node000015_Node000006"><a xlink:title=" ">
<path fill="none" stroke="#63b8ff" d="M811.88,-59.86C875.02,-49.24 978.91,-31.78 1044.68,-20.72"/>
<polygon fill="#63b8ff" stroke="#63b8ff" points="1045.62,-24.12 1054.9,-19.01 1044.46,-17.21 1045.62,-24.12"/>
</a>
</g>
</g>
<!-- Node16 -->
<g id="Node000016" class="node">
<title>Node16</title>
<g id="a_Node000016"><a xlink:title=" ">
<polygon fill="#e0e0e0" stroke="#999999" points="708,-19 643,-19 643,0 708,0 708,-19"/>
<text text-anchor="middle" x="675.5" y="-7" font-family="Helvetica,sans-Serif" font-size="10.00">stdexcept</text>
</a>
</g>
</g>
<!-- Node15&#45;&gt;Node16 -->
<g id="edge23_Node000015_Node000016" class="edge">
<title>Node15&#45;&gt;Node16</title>
<g id="a_edge23_Node000015_Node000016"><a xlink:title=" ">
<path fill="none" stroke="#63b8ff" d="M737.65,-54.84C725.02,-45.83 708.7,-34.18 695.95,-25.09"/>
<polygon fill="#63b8ff" stroke="#63b8ff" points="697.96,-22.22 687.79,-19.27 693.9,-27.92 697.96,-22.22"/>
</a>
</g>
</g>
<!-- Node17&#45;&gt;Node2 -->
<g id="edge29_Node000017_Node000002" class="edge">
<title>Node17&#45;&gt;Node2</title>
<g id="a_edge29_Node000017_Node000002"><a xlink:title=" ">
<path fill="none" stroke="#63b8ff" d="M1558.69,-197.86C1673.67,-192.41 1880.61,-179 1949.5,-151 2016.67,-123.7 2076.48,-58.29 2102.17,-27.32"/>
<polygon fill="#63b8ff" stroke="#63b8ff" points="2105.16,-29.18 2108.76,-19.22 2099.73,-24.77 2105.16,-29.18"/>
</a>
</g>
</g>
<!-- Node17&#45;&gt;Node5 -->
<g id="edge30_Node000017_Node000005" class="edge">
<title>Node17&#45;&gt;Node5</title>
<g id="a_edge30_Node000017_Node000005"><a xlink:title=" ">
<path fill="none" stroke="#63b8ff" d="M1558.81,-201.08C1644.67,-198.99 1784.59,-189.22 1898.5,-151 1953.64,-132.5 1973.99,-129.45 2011.5,-85 2025.11,-68.87 2032.45,-45.46 2036.15,-29.21"/>
<polygon fill="#63b8ff" stroke="#63b8ff" points="2039.61,-29.77 2038.17,-19.27 2032.75,-28.38 2039.61,-29.77"/>
</a>
</g>
</g>
<!-- Node17&#45;&gt;Node6 -->
<g id="edge58_Node000017_Node000006" class="edge">
<title>Node17&#45;&gt;Node6</title>
<g id="a_edge58_Node000017_Node000006"><a xlink:title=" ">
<path fill="none" stroke="#63b8ff" d="M1419.37,-192.49C1382.59,-185.37 1335.63,-172.76 1298.5,-151 1246.71,-120.65 1252.75,-89.31 1203.5,-55 1184.09,-41.48 1159.91,-30.45 1140.42,-22.75"/>
<polygon fill="#63b8ff" stroke="#63b8ff" points="1141.58,-19.45 1130.99,-19.14 1139.08,-25.98 1141.58,-19.45"/>
</a>
</g>
</g>
<!-- Node18 -->
<g id="Node000018" class="node">
<title>Node18</title>
<g id="a_Node000018"><a xlink:title=" ">
<polygon fill="#e0e0e0" stroke="#999999" points="1477.5,-145.5 1307.5,-145.5 1307.5,-126.5 1477.5,-126.5 1477.5,-145.5"/>
<text text-anchor="middle" x="1392.5" y="-133.5" font-family="Helvetica,sans-Serif" font-size="10.00">boost/asio/any_io_executor.hpp</text>
</a>
</g>
</g>
<!-- Node17&#45;&gt;Node18 -->
<g id="edge27_Node000017_Node000018" class="edge">
<title>Node17&#45;&gt;Node18</title>
<g id="a_edge27_Node000017_Node000018"><a xlink:title=" ">
<path fill="none" stroke="#63b8ff" d="M1467.77,-192.37C1453.63,-181.97 1429.64,-164.32 1412.55,-151.75"/>
<polygon fill="#63b8ff" stroke="#63b8ff" points="1414.45,-148.81 1404.33,-145.7 1410.31,-154.44 1414.45,-148.81"/>
</a>
</g>
</g>
<!-- Node19 -->
<g id="Node000019" class="node">
<title>Node19</title>
<g id="a_Node000019"><a xlink:title=" ">
<polygon fill="#e0e0e0" stroke="#999999" points="1866,-19 1801,-19 1801,0 1866,0 1866,-19"/>
<text text-anchor="middle" x="1833.5" y="-7" font-family="Helvetica,sans-Serif" font-size="10.00">functional</text>
</a>
</g>
</g>
<!-- Node17&#45;&gt;Node19 -->
<g id="edge28_Node000017_Node000019" class="edge">
<title>Node17&#45;&gt;Node19</title>
<g id="a_edge28_Node000017_Node000019"><a xlink:title=" ">
<path fill="none" stroke="#63b8ff" d="M1558.57,-194.5C1686.64,-182.16 1930.4,-150.48 1982.5,-85 2014.39,-44.92 1930.86,-24.64 1876.34,-15.95"/>
<polygon fill="#63b8ff" stroke="#63b8ff" points="1876.61,-12.45 1866.19,-14.41 1875.56,-19.37 1876.61,-12.45"/>
</a>
</g>
</g>
<!-- Node20 -->
<g id="Node000020" class="node">
<title>Node20</title>
<g id="a_Node000020"><a xlink:href="common_8hpp.html" target="_top" xlink:title=" ">
<polygon fill="white" stroke="#666666" points="1639,-145.5 1496,-145.5 1496,-126.5 1639,-126.5 1639,-145.5"/>
<text text-anchor="middle" x="1567.5" y="-133.5" font-family="Helvetica,sans-Serif" font-size="10.00">unilink/base/common.hpp</text>
</a>
</g>
</g>
<!-- Node17&#45;&gt;Node20 -->
<g id="edge31_Node000017_Node000020" class="edge">
<title>Node17&#45;&gt;Node20</title>
<g id="a_edge31_Node000017_Node000020"><a xlink:title=" ">
<path fill="none" stroke="#63b8ff" d="M1491.37,-192.37C1505.67,-181.97 1529.93,-164.32 1547.22,-151.75"/>
<polygon fill="#63b8ff" stroke="#63b8ff" points="1549.51,-154.41 1555.54,-145.7 1545.39,-148.75 1549.51,-154.41"/>
</a>
</g>
</g>
<!-- Node32 -->
<g id="Node000032" class="node">
<title>Node32</title>
<g id="a_Node000032"><a xlink:href="safe__span_8hpp.html" target="_top" xlink:title=" ">
<polygon fill="white" stroke="#666666" points="397.5,-85 279.5,-85 279.5,-55 397.5,-55 397.5,-85"/>
<text text-anchor="start" x="287.5" y="-73" font-family="Helvetica,sans-Serif" font-size="10.00">unilink/memory/safe</text>
<text text-anchor="middle" x="338.5" y="-62" font-family="Helvetica,sans-Serif" font-size="10.00">_span.hpp</text>
</a>
</g>
</g>
<!-- Node17&#45;&gt;Node32 -->
<g id="edge59_Node000017_Node000032" class="edge">
<title>Node17&#45;&gt;Node32</title>
<g id="a_edge59_Node000017_Node000032"><a xlink:title=" ">
<path fill="none" stroke="#63b8ff" d="M1400.31,-199.55C1208.69,-195.58 724.18,-182.63 565.5,-151 497.92,-137.53 423.22,-108.22 378.61,-89.07"/>
<polygon fill="#63b8ff" stroke="#63b8ff" points="379.85,-85.79 369.29,-85.02 377.07,-92.21 379.85,-85.79"/>
</a>
</g>
</g>
<!-- Node20&#45;&gt;Node3 -->
<g id="edge41_Node000020_Node000003" class="edge">
<title>Node20&#45;&gt;Node3</title>
<g id="a_edge41_Node000020_Node000003"><a xlink:title=" ">
<path fill="none" stroke="#63b8ff" d="M1523.06,-126.48C1511.21,-124.44 1498.4,-122.44 1486.5,-121 1372.83,-107.23 1079.36,-126.14 972.5,-85 939.93,-72.46 909.54,-44.72 892.27,-26.85"/>
<polygon fill="#63b8ff" stroke="#63b8ff" points="894.7,-24.32 885.3,-19.43 889.6,-29.12 894.7,-24.32"/>
</a>
</g>
</g>
<!-- Node20&#45;&gt;Node4 -->
<g id="edge42_Node000020_Node000004" class="edge">
<title>Node20&#45;&gt;Node4</title>
<g id="a_edge42_Node000020_Node000004"><a xlink:title=" ">
<path fill="none" stroke="#63b8ff" d="M1520.46,-126.48C1451.54,-113.85 1330.38,-91 1322.5,-85 1304.39,-71.23 1294.22,-46.41 1289.04,-29.22"/>
<polygon fill="#63b8ff" stroke="#63b8ff" points="1292.33,-27.96 1286.34,-19.22 1285.57,-29.79 1292.33,-27.96"/>
</a>
</g>
</g>
<!-- Node20&#45;&gt;Node5 -->
<g id="edge44_Node000020_Node000005" class="edge">
<title>Node20&#45;&gt;Node5</title>
<g id="a_edge44_Node000020_Node000005"><a xlink:title=" ">
<path fill="none" stroke="#63b8ff" d="M1639.23,-133.01C1742.13,-129.04 1925.55,-117.52 1982.5,-85 2005.2,-72.04 2021.84,-46.05 2031.1,-28.46"/>
<polygon fill="#63b8ff" stroke="#63b8ff" points="2034.37,-29.75 2035.69,-19.23 2028.1,-26.63 2034.37,-29.75"/>
</a>
</g>
</g>
<!-- Node20&#45;&gt;Node8 -->
<g id="edge33_Node000020_Node000008" class="edge">
<title>Node20&#45;&gt;Node8</title>
<g id="a_edge33_Node000020_Node000008"><a xlink:title=" ">
<path fill="none" stroke="#63b8ff" d="M1524.78,-126.45C1512.47,-124.31 1499,-122.26 1486.5,-121 1419.26,-114.23 330.64,-115.83 270.5,-85 247.13,-73.02 230.59,-46.58 221.54,-28.64"/>
<polygon fill="#63b8ff" stroke="#63b8ff" points="224.64,-27 217.19,-19.47 218.31,-30 224.64,-27"/>
</a>
</g>
</g>
<!-- Node20&#45;&gt;Node16 -->
<g id="edge40_Node000020_Node000016" class="edge">
<title>Node20&#45;&gt;Node16</title>
<g id="a_edge40_Node000020_Node000016"><a xlink:title=" ">
<path fill="none" stroke="#63b8ff" d="M1523.92,-126.43C1511.85,-124.34 1498.7,-122.33 1486.5,-121 1398.93,-111.48 762.82,-140.61 694.5,-85 678.2,-71.73 674.76,-46.59 674.53,-29.21"/>
<polygon fill="#63b8ff" stroke="#63b8ff" points="678.03,-29.18 674.74,-19.11 671.04,-29.03 678.03,-29.18"/>
</a>
</g>
</g>
<!-- Node20&#45;&gt;Node19 -->
<g id="edge36_Node000020_Node000019" class="edge">
<title>Node20&#45;&gt;Node19</title>
<g id="a_edge36_Node000020_Node000019"><a xlink:title=" ">
<path fill="none" stroke="#63b8ff" d="M1634.83,-126.48C1673.28,-119.47 1721.28,-106.97 1759.5,-85 1785.21,-70.22 1808.12,-44.15 1821.41,-27.1"/>
<polygon fill="#63b8ff" stroke="#63b8ff" points="1824.21,-29.2 1827.45,-19.11 1818.63,-24.98 1824.21,-29.2"/>
</a>
</g>
</g>
<!-- Node21 -->
<g id="Node000021" class="node">
<title>Node21</title>
<g id="a_Node000021"><a xlink:title=" ">
<polygon fill="#e0e0e0" stroke="#999999" points="1775.5,-19 1725.5,-19 1725.5,0 1775.5,0 1775.5,-19"/>
<text text-anchor="middle" x="1750.5" y="-7" font-family="Helvetica,sans-Serif" font-size="10.00">chrono</text>
</a>
</g>
</g>
<!-- Node20&#45;&gt;Node21 -->
<g id="edge32_Node000020_Node000021" class="edge">
<title>Node20&#45;&gt;Node21</title>
<g id="a_edge32_Node000020_Node000021"><a xlink:title=" ">
<path fill="none" stroke="#63b8ff" d="M1639.35,-131.36C1674.18,-125.77 1713.74,-113.06 1738.5,-85 1751.88,-69.84 1753.49,-45.87 1752.65,-29.23"/>
<polygon fill="#63b8ff" stroke="#63b8ff" points="1756.13,-28.75 1751.8,-19.08 1749.15,-29.34 1756.13,-28.75"/>
</a>
</g>
</g>
<!-- Node22 -->
<g id="Node000022" class="node">
<title>Node22</title>
<g id="a_Node000022"><a xlink:title=" ">
<polygon fill="#e0e0e0" stroke="#999999" points="1911.5,-79.5 1861.5,-79.5 1861.5,-60.5 1911.5,-60.5 1911.5,-79.5"/>
<text text-anchor="middle" x="1886.5" y="-67.5" font-family="Helvetica,sans-Serif" font-size="10.00">cstring</text>
</a>
</g>
</g>
<!-- Node20&#45;&gt;Node22 -->
<g id="edge34_Node000020_Node000022" class="edge">
<title>Node20&#45;&gt;Node22</title>
<g id="a_edge34_Node000020_Node000022"><a xlink:title=" ">
<path fill="none" stroke="#63b8ff" d="M1632.96,-126.49C1690.14,-118.3 1775.1,-104.31 1847.5,-85 1849.99,-84.33 1852.55,-83.58 1855.11,-82.78"/>
<polygon fill="#63b8ff" stroke="#63b8ff" points="1856.48,-86.01 1864.84,-79.5 1854.25,-79.38 1856.48,-86.01"/>
</a>
</g>
</g>
<!-- Node23 -->
<g id="Node000023" class="node">
<title>Node23</title>
<g id="a_Node000023"><a xlink:title=" ">
<polygon fill="#e0e0e0" stroke="#999999" points="1973.5,-79.5 1929.5,-79.5 1929.5,-60.5 1973.5,-60.5 1973.5,-79.5"/>
<text text-anchor="middle" x="1951.5" y="-67.5" font-family="Helvetica,sans-Serif" font-size="10.00">ctime</text>
</a>
</g>
</g>
<!-- Node20&#45;&gt;Node23 -->
<g id="edge35_Node000020_Node000023" class="edge">
<title>Node20&#45;&gt;Node23</title>
<g id="a_edge35_Node000020_Node000023"><a xlink:title=" ">
<path fill="none" stroke="#63b8ff" d="M1639.07,-130.82C1711.28,-125.23 1825.39,-112.6 1920.5,-85 1922.14,-84.52 1923.8,-83.98 1925.46,-83.38"/>
<polygon fill="#63b8ff" stroke="#63b8ff" points="1926.83,-86.61 1934.77,-79.59 1924.19,-80.12 1926.83,-86.61"/>
</a>
</g>
</g>
<!-- Node24 -->
<g id="Node000024" class="node">
<title>Node24</title>
<g id="a_Node000024"><a xlink:title=" ">
<polygon fill="#e0e0e0" stroke="#999999" points="1387.5,-79.5 1331.5,-79.5 1331.5,-60.5 1387.5,-60.5 1387.5,-79.5"/>
<text text-anchor="middle" x="1359.5" y="-67.5" font-family="Helvetica,sans-Serif" font-size="10.00">iomanip</text>
</a>
</g>
</g>
<!-- Node20&#45;&gt;Node24 -->
<g id="edge37_Node000020_Node000024" class="edge">
<title>Node20&#45;&gt;Node24</title>
<g id="a_edge37_Node000020_Node000024"><a xlink:title=" ">
<path fill="none" stroke="#63b8ff" d="M1535.44,-126.42C1500.91,-117 1444.45,-101.06 1396.5,-85 1394.64,-84.38 1392.74,-83.72 1390.83,-83.05"/>
<polygon fill="#63b8ff" stroke="#63b8ff" points="1391.91,-79.71 1381.31,-79.57 1389.51,-86.29 1391.91,-79.71"/>
</a>
</g>
</g>
<!-- Node25 -->
<g id="Node000025" class="node">
<title>Node25</title>
<g id="a_Node000025"><a xlink:title=" ">
<polygon fill="#e0e0e0" stroke="#999999" points="1465.5,-79.5 1405.5,-79.5 1405.5,-60.5 1465.5,-60.5 1465.5,-79.5"/>
<text text-anchor="middle" x="1435.5" y="-67.5" font-family="Helvetica,sans-Serif" font-size="10.00">iostream</text>
</a>
</g>
</g>
<!-- Node20&#45;&gt;Node25 -->
<g id="edge38_Node000020_Node000025" class="edge">
<title>Node20&#45;&gt;Node25</title>
<g id="a_edge38_Node000020_Node000025"><a xlink:title=" ">
<path fill="none" stroke="#63b8ff" d="M1549.7,-126.37C1527.36,-115.54 1488.82,-96.85 1462.76,-84.22"/>
<polygon fill="#63b8ff" stroke="#63b8ff" points="1463.97,-80.91 1453.44,-79.7 1460.91,-87.21 1463.97,-80.91"/>
</a>
</g>
</g>
<!-- Node26 -->
<g id="Node000026" class="node">
<title>Node26</title>
<g id="a_Node000026"><a xlink:title=" ">
<polygon fill="#e0e0e0" stroke="#999999" points="1539.5,-79.5 1483.5,-79.5 1483.5,-60.5 1539.5,-60.5 1539.5,-79.5"/>
<text text-anchor="middle" x="1511.5" y="-67.5" font-family="Helvetica,sans-Serif" font-size="10.00">sstream</text>
</a>
</g>
</g>
<!-- Node20&#45;&gt;Node26 -->
<g id="edge39_Node000020_Node000026" class="edge">
<title>Node20&#45;&gt;Node26</title>
<g id="a_edge39_Node000020_Node000026"><a xlink:title=" ">
<path fill="none" stroke="#63b8ff" d="M1559.95,-126.37C1551.31,-116.5 1536.97,-100.11 1526.13,-87.72"/>
<polygon fill="#63b8ff" stroke="#63b8ff" points="1528.51,-85.13 1519.29,-79.91 1523.24,-89.74 1528.51,-85.13"/>
</a>
</g>
</g>
<!-- Node27 -->
<g id="Node000027" class="node">
<title>Node27</title>
<g id="a_Node000027"><a xlink:title=" ">
<polygon fill="#e0e0e0" stroke="#999999" points="1603,-79.5 1558,-79.5 1558,-60.5 1603,-60.5 1603,-79.5"/>
<text text-anchor="middle" x="1580.5" y="-67.5" font-family="Helvetica,sans-Serif" font-size="10.00">utility</text>
</a>
</g>
</g>
<!-- Node20&#45;&gt;Node27 -->
<g id="edge43_Node000020_Node000027" class="edge">
<title>Node20&#45;&gt;Node27</title>
<g id="a_edge43_Node000020_Node000027"><a xlink:title=" ">
<path fill="none" stroke="#63b8ff" d="M1569.25,-126.37C1571.14,-117.07 1574.21,-101.98 1576.66,-89.9"/>
<polygon fill="#63b8ff" stroke="#63b8ff" points="1580.13,-90.4 1578.69,-79.91 1573.27,-89.01 1580.13,-90.4"/>
</a>
</g>
</g>
<!-- Node28 -->
<g id="Node000028" class="node">
<title>Node28</title>
<g id="a_Node000028"><a xlink:href="platform_8hpp.html" target="_top" xlink:title=" ">
<polygon fill="white" stroke="#666666" points="1123.5,-79.5 981.5,-79.5 981.5,-60.5 1123.5,-60.5 1123.5,-79.5"/>
<text text-anchor="middle" x="1052.5" y="-67.5" font-family="Helvetica,sans-Serif" font-size="10.00">unilink/base/platform.hpp</text>
</a>
</g>
</g>
<!-- Node20&#45;&gt;Node28 -->
<g id="edge45_Node000020_Node000028" class="edge">
<title>Node20&#45;&gt;Node28</title>
<g id="a_edge45_Node000020_Node000028"><a xlink:title=" ">
<path fill="none" stroke="#63b8ff" d="M1520.88,-126.48C1509.64,-124.55 1497.66,-122.61 1486.5,-121 1363.92,-103.36 1221.15,-87.88 1133.81,-78.98"/>
<polygon fill="#63b8ff" stroke="#63b8ff" points="1134,-75.48 1123.7,-77.96 1133.3,-82.45 1134,-75.48"/>
</a>
</g>
</g>
<!-- Node29 -->
<g id="Node000029" class="node">
<title>Node29</title>
<g id="a_Node000029"><a xlink:href="logger_8hpp.html" target="_top" xlink:title=" ">
<polygon fill="white" stroke="#666666" points="1729.5,-85 1621.5,-85 1621.5,-55 1729.5,-55 1729.5,-85"/>
<text text-anchor="start" x="1629.5" y="-73" font-family="Helvetica,sans-Serif" font-size="10.00">unilink/diagnostics</text>
<text text-anchor="middle" x="1675.5" y="-62" font-family="Helvetica,sans-Serif" font-size="10.00">/logger.hpp</text>
</a>
</g>
</g>
<!-- Node20&#45;&gt;Node29 -->
<g id="edge48_Node000020_Node000029" class="edge">
<title>Node20&#45;&gt;Node29</title>
<g id="a_edge48_Node000020_Node000029"><a xlink:title=" ">
<path fill="none" stroke="#63b8ff" d="M1582.07,-126.37C1597.61,-117.16 1622.75,-102.26 1643.04,-90.24"/>
<polygon fill="#63b8ff" stroke="#63b8ff" points="1644.86,-93.22 1651.68,-85.12 1641.29,-87.2 1644.86,-93.22"/>
</a>
</g>
</g>
<!-- Node28&#45;&gt;Node3 -->
<g id="edge46_Node000028_Node000003" class="edge">
<title>Node28&#45;&gt;Node3</title>
<g id="a_edge46_Node000028_Node000003"><a xlink:title=" ">
<path fill="none" stroke="#63b8ff" d="M1027.05,-60.49C995.95,-50.1 943.31,-32.5 909.5,-21.2"/>
<polygon fill="#63b8ff" stroke="#63b8ff" points="910.25,-17.76 899.65,-17.9 908.03,-24.39 910.25,-17.76"/>
</a>
</g>
</g>
<!-- Node28&#45;&gt;Node6 -->
<g id="edge47_Node000028_Node000006" class="edge">
<title>Node28&#45;&gt;Node6</title>
<g id="a_edge47_Node000028_Node000006"><a xlink:title=" ">
<path fill="none" stroke="#63b8ff" d="M1060.32,-60.37C1068.31,-51.55 1080.89,-37.66 1090.76,-26.77"/>
<polygon fill="#63b8ff" stroke="#63b8ff" points="1093.53,-28.93 1097.65,-19.17 1088.34,-24.23 1093.53,-28.93"/>
</a>
</g>
</g>
<!-- Node29&#45;&gt;Node2 -->
<g id="edge52_Node000029_Node000002" class="edge">
<title>Node29&#45;&gt;Node2</title>
<g id="a_edge52_Node000029_Node000002"><a xlink:title=" ">
<path fill="none" stroke="#63b8ff" d="M1729.61,-63.4C1806.18,-55.19 1950.43,-38.73 2072.5,-19 2073.77,-18.8 2075.06,-18.58 2076.35,-18.36"/>
<polygon fill="#63b8ff" stroke="#63b8ff" points="2077.19,-21.76 2086.41,-16.54 2075.94,-14.88 2077.19,-21.76"/>
</a>
</g>
</g>
<!-- Node29&#45;&gt;Node3 -->
<g id="edge54_Node000029_Node000003" class="edge">
<title>Node29&#45;&gt;Node3</title>
<g id="a_edge54_Node000029_Node000003"><a xlink:title=" ">
<path fill="none" stroke="#63b8ff" d="M1621.48,-56.57C1618.12,-55.98 1614.77,-55.45 1611.5,-55 1593.86,-52.55 1049.09,-20.55 909.72,-12.39"/>
<polygon fill="#63b8ff" stroke="#63b8ff" points="909.86,-8.89 899.67,-11.8 909.45,-15.88 909.86,-8.89"/>
</a>
</g>
</g>
<!-- Node29&#45;&gt;Node4 -->
<g id="edge55_Node000029_Node000004" class="edge">
<title>Node29&#45;&gt;Node4</title>
<g id="a_edge55_Node000029_Node000004"><a xlink:title=" ">
<path fill="none" stroke="#63b8ff" d="M1621.44,-56.86C1618.08,-56.2 1614.75,-55.58 1611.5,-55 1512.37,-37.44 1395.26,-23.02 1331.56,-15.7"/>
<polygon fill="#63b8ff" stroke="#63b8ff" points="1331.76,-12.2 1321.43,-14.55 1330.97,-19.16 1331.76,-12.2"/>
</a>
</g>
</g>
<!-- Node29&#45;&gt;Node5 -->
<g id="edge56_Node000029_Node000005" class="edge">
<title>Node29&#45;&gt;Node5</title>
<g id="a_edge56_Node000029_Node000005"><a xlink:title=" ">
<path fill="none" stroke="#63b8ff" d="M1729.6,-60.31C1805.8,-48.06 1942.47,-26.09 2005.7,-15.93"/>
<polygon fill="#63b8ff" stroke="#63b8ff" points="2006.6,-19.33 2015.92,-14.29 2005.49,-12.42 2006.6,-19.33"/>
</a>
</g>
</g>
<!-- Node29&#45;&gt;Node6 -->
<g id="edge57_Node000029_Node000006" class="edge">
<title>Node29&#45;&gt;Node6</title>
<g id="a_edge57_Node000029_Node000006"><a xlink:title=" ">
<path fill="none" stroke="#63b8ff" d="M1621.47,-56.67C1618.1,-56.06 1614.76,-55.5 1611.5,-55 1531.69,-42.81 1307.19,-25.29 1185.81,-16.31"/>
<polygon fill="#63b8ff" stroke="#63b8ff" points="1186.05,-12.81 1175.82,-15.57 1185.53,-19.79 1186.05,-12.81"/>
</a>
</g>
</g>
<!-- Node29&#45;&gt;Node19 -->
<g id="edge51_Node000029_Node000019" class="edge">
<title>Node29&#45;&gt;Node19</title>
<g id="a_edge51_Node000029_Node000019"><a xlink:title=" ">
<path fill="none" stroke="#63b8ff" d="M1713.34,-54.99C1739.94,-45.14 1775.17,-32.1 1800.6,-22.68"/>
<polygon fill="#63b8ff" stroke="#63b8ff" points="1802,-25.89 1810.17,-19.14 1799.57,-19.33 1802,-25.89"/>
</a>
</g>
</g>
<!-- Node29&#45;&gt;Node21 -->
<g id="edge50_Node000029_Node000021" class="edge">
<title>Node29&#45;&gt;Node21</title>
<g id="a_edge50_Node000029_Node000021"><a xlink:title=" ">
<path fill="none" stroke="#63b8ff" d="M1693.66,-54.84C1704.99,-46 1719.56,-34.63 1731.12,-25.62"/>
<polygon fill="#63b8ff" stroke="#63b8ff" points="1733.53,-28.18 1739.26,-19.27 1729.22,-22.66 1733.53,-28.18"/>
</a>
</g>
</g>
<!-- Node30 -->
<g id="Node000030" class="node">
<title>Node30</title>
<g id="a_Node000030"><a xlink:title=" ">
<polygon fill="#e0e0e0" stroke="#999999" points="1703.5,-19 1653.5,-19 1653.5,0 1703.5,0 1703.5,-19"/>
<text text-anchor="middle" x="1678.5" y="-7" font-family="Helvetica,sans-Serif" font-size="10.00">atomic</text>
</a>
</g>
</g>
<!-- Node29&#45;&gt;Node30 -->
<g id="edge49_Node000029_Node000030" class="edge">
<title>Node29&#45;&gt;Node30</title>
<g id="a_edge49_Node000029_Node000030"><a xlink:title=" ">
<path fill="none" stroke="#63b8ff" d="M1676.23,-54.84C1676.62,-47.21 1677.1,-37.7 1677.53,-29.45"/>
<polygon fill="#63b8ff" stroke="#63b8ff" points="1681.03,-29.43 1678.05,-19.27 1674.04,-29.07 1681.03,-29.43"/>
</a>
</g>
</g>
<!-- Node31 -->
<g id="Node000031" class="node">
<title>Node31</title>
<g id="a_Node000031"><a xlink:title=" ">
<polygon fill="#e0e0e0" stroke="#999999" points="1635,-19 1542,-19 1542,0 1635,0 1635,-19"/>
<text text-anchor="middle" x="1588.5" y="-7" font-family="Helvetica,sans-Serif" font-size="10.00">source_location</text>
</a>
</g>
</g>
<!-- Node29&#45;&gt;Node31 -->
<g id="edge53_Node000029_Node000031" class="edge">
<title>Node29&#45;&gt;Node31</title>
<g id="a_edge53_Node000029_Node000031"><a xlink:title=" ">
<path fill="none" stroke="#63b8ff" d="M1654.44,-54.84C1640.96,-45.77 1623.51,-34.04 1609.95,-24.92"/>
<polygon fill="#63b8ff" stroke="#63b8ff" points="1611.53,-21.77 1601.28,-19.09 1607.63,-27.58 1611.53,-21.77"/>
</a>
</g>
</g>
<!-- Node32&#45;&gt;Node8 -->
<g id="edge60_Node000032_Node000008" class="edge">
<title>Node32&#45;&gt;Node8</title>
<g id="a_edge60_Node000032_Node000008"><a xlink:title=" ">
<path fill="none" stroke="#63b8ff" d="M308.56,-54.99C288.08,-45.4 261.12,-32.79 241.15,-23.44"/>
<polygon fill="#63b8ff" stroke="#63b8ff" points="242.5,-20.21 231.96,-19.14 239.53,-26.55 242.5,-20.21"/>
</a>
</g>
</g>
<!-- Node32&#45;&gt;Node16 -->
<g id="edge62_Node000032_Node000016" class="edge">
<title>Node32&#45;&gt;Node16</title>
<g id="a_edge62_Node000032_Node000016"><a xlink:title=" ">
<path fill="none" stroke="#63b8ff" d="M397.84,-57.5C402.46,-56.64 407.05,-55.8 411.5,-55 489.55,-40.94 580.83,-25.85 633.04,-17.36"/>
<polygon fill="#63b8ff" stroke="#63b8ff" points="633.64,-20.8 642.94,-15.75 632.51,-13.9 633.64,-20.8"/>
</a>
</g>
</g>
<!-- Node33 -->
<g id="Node000033" class="node">
<title>Node33</title>
<g id="a_Node000033"><a xlink:title=" ">
<polygon fill="#e0e0e0" stroke="#999999" points="358.5,-19 318.5,-19 318.5,0 358.5,0 358.5,-19"/>
<text text-anchor="middle" x="338.5" y="-7" font-family="Helvetica,sans-Serif" font-size="10.00">span</text>
</a>
</g>
</g>
<!-- Node32&#45;&gt;Node33 -->
<g id="edge61_Node000032_Node000033" class="edge">
<title>Node32&#45;&gt;Node33</title>
<g id="a_edge61_Node000032_Node000033"><a xlink:title=" ">
<path fill="none" stroke="#63b8ff" d="M338.5,-54.84C338.5,-47.21 338.5,-37.7 338.5,-29.45"/>
<polygon fill="#63b8ff" stroke="#63b8ff" points="342,-29.27 338.5,-19.27 335,-29.27 342,-29.27"/>
</a>
</g>
</g>
</g>
</svg>
