<?xml version="1.0" encoding="UTF-8" standalone="no"?>
<!DOCTYPE svg PUBLIC "-//W3C//DTD SVG 1.1//EN"
 "http://www.w3.org/Graphics/SVG/1.1/DTD/svg11.dtd">
<!-- Generated by graphviz version 2.43.0 (0)
 -->
<!-- Title: unilink/transport/serial/serial.hpp Pages: 1 -->
<!--zoomable 280 -->

<svg id="main" version="1.1" xmlns="http://www.w3.org/2000/svg" xmlns:xlink="http://www.w3.org/1999/xlink" xml:space="preserve" onload="init(evt)">
<style type="text/css"><![CDATA[
.node, .edge {opacity: 0.7;}
.node.selected, .edge.selected {opacity: 1;}
.edge:hover path { stroke: red; }
.edge:hover polygon { stroke: red; fill: red; }
]]></style>

<defs>
  <circle id="rim" cx="0" cy="0" r="7"/>
  <circle id="rim2" cx="0" cy="0" r="3.5"/>
  <g id="zoomPlus">
    <use xlink:href="#rim" fill="#404040"><set attributeName="fill" to="#808080" begin="zoomplus.mouseover" end="zoomplus.mouseout"/></use>
    <path d="M-4,0h8M0,-4v8" fill="none" stroke="white" stroke-width="1.5" pointer-events="none"/>
  </g>
  <g id="zoomMin">
    <use xlink:href="#rim" fill="#404040"><set attributeName="fill" to="#808080" begin="zoomminus.mouseover" end="zoomminus.mouseout"/></use>
    <path d="M-4,0h8" fill="none" stroke="white" stroke-width="1.5" pointer-events="none"/>
  </g>
  <g id="arrowUp" transform="translate(30 24)">
    <use xlink:href="#rim"/>
    <path pointer-events="none" fill="none" stroke="white" stroke-width="1.5" d="M0,-3.0v7 M-2.5,-0.5L0,-3.0L2.5,-0.5"/>
  </g>
  <g id="arrowRight" transform="rotate(90) translate(36 -43)">
    <use xlink:href="#rim"/>
    <path pointer-events="none" fill="none" stroke="white" stroke-width="1.5" d="M0,-3.0v7 M-2.5,-0.5L0,-3.0L2.5,-0.5"/>
  </g>
  <g id="arrowDown" transform="rotate(180) translate(-30 -48)">
    <use xlink:href="#rim"/>
    <path pointer-events="none" fill="none" stroke="white" stroke-width="1.5" d="M0,-3.0v7 M-2.5,-0.5L0,-3.0L2.5,-0.5"/>
  </g>
  <g id="arrowLeft" transform="rotate(270) translate(-36 17)">
    <use xlink:href="#rim"/>
    <path pointer-events="none" fill="none" stroke="white" stroke-width="1.5" d="M0,-3.0v7 M-2.5,-0.5L0,-3.0L2.5,-0.5"/>
  </g>
  <g id="resetDef">
    <use xlink:href="#rim2" fill="#404040"><set attributeName="fill" to="#808080" begin="reset.mouseover" end="reset.mouseout"/></use>
  </g>
</defs>
<script type="application/ecmascript">
var viewWidth = 1694;
var viewHeight = 280;
var sectionId = 'dynsection-0';
</script>
<script type="application/ecmascript" xlink:href="svg.min.js"/>
<svg id="graph" class="graph">
<g id="viewport">
<title>unilink/transport/serial/serial.hpp</title>
<!-- Node1 -->
<g id="Node000001" class="node">
<title>Node1</title>
<g id="a_Node000001"><a xlink:title=" ">
<polygon fill="#999999" stroke="#666666" points="1149.5,-272 1022.5,-272 1022.5,-242 1149.5,-242 1149.5,-272"/>
<text text-anchor="start" x="1030.5" y="-260" font-family="Helvetica,sans-Serif" font-size="10.00">unilink/transport/serial</text>
<text text-anchor="middle" x="1086" y="-249" font-family="Helvetica,sans-Serif" font-size="10.00">/serial.hpp</text>
</a>
</g>
</g>
<!-- Node2 -->
<g id="Node000002" class="node">
<title>Node2</title>
<g id="a_Node000002"><a xlink:title=" ">
<polygon fill="#e0e0e0" stroke="#999999" points="1686,-19 1628,-19 1628,0 1686,0 1686,-19"/>
<text text-anchor="middle" x="1657" y="-7" font-family="Helvetica,sans-Serif" font-size="10.00">memory</text>
</a>
</g>
</g>
<!-- Node1&#45;&gt;Node2 -->
<g id="edge1_Node000001_Node000002" class="edge">
<title>Node1&#45;&gt;Node2</title>
<g id="a_edge1_Node000001_Node000002"><a xlink:title=" ">
<path fill="none" stroke="#63b8ff" d="M1149.58,-253.23C1263.43,-247.64 1497.35,-233.19 1574,-206 1616.06,-191.08 1636.78,-190.26 1658,-151 1679.2,-111.79 1669.62,-56.96 1662.41,-28.8"/>
<polygon fill="#63b8ff" stroke="#63b8ff" points="1665.76,-27.8 1659.73,-19.09 1659.01,-29.66 1665.76,-27.8"/>
</a>
</g>
</g>
<!-- Node3 -->
<g id="Node000003" class="node">
<title>Node3</title>
<g id="a_Node000003"><a xlink:title=" ">
<polygon fill="#e0e0e0" stroke="#999999" points="265,-19 221,-19 221,0 265,0 265,-19"/>
<text text-anchor="middle" x="243" y="-7" font-family="Helvetica,sans-Serif" font-size="10.00">string</text>
</a>
</g>
</g>
<!-- Node1&#45;&gt;Node3 -->
<g id="edge2_Node000001_Node000003" class="edge">
<title>Node1&#45;&gt;Node3</title>
<g id="a_edge2_Node000001_Node000003"><a xlink:title=" ">
<path fill="none" stroke="#63b8ff" d="M1022.37,-256C817.55,-254.48 181.83,-237.36 64,-85 23.8,-33.02 148.99,-17 210.71,-12.31"/>
<polygon fill="#63b8ff" stroke="#63b8ff" points="211.01,-15.8 220.74,-11.61 210.52,-8.82 211.01,-15.8"/>
</a>
</g>
</g>
<!-- Node4 -->
<g id="Node000004" class="node">
<title>Node4</title>
<g id="a_Node000004"><a xlink:title=" ">
<polygon fill="#e0e0e0" stroke="#999999" points="1391.5,-19 1344.5,-19 1344.5,0 1391.5,0 1391.5,-19"/>
<text text-anchor="middle" x="1368" y="-7" font-family="Helvetica,sans-Serif" font-size="10.00">vector</text>
</a>
</g>
</g>
<!-- Node1&#45;&gt;Node4 -->
<g id="edge3_Node000001_Node000004" class="edge">
<title>Node1&#45;&gt;Node4</title>
<g id="a_edge3_Node000001_Node000004"><a xlink:title=" ">
<path fill="none" stroke="#63b8ff" d="M1149.59,-254.03C1281.82,-248.42 1579.11,-227.39 1638,-151 1704.66,-64.52 1487.81,-26.11 1401.69,-14.51"/>
<polygon fill="#63b8ff" stroke="#63b8ff" points="1401.99,-11.02 1391.62,-13.2 1401.09,-17.96 1401.99,-11.02"/>
</a>
</g>
</g>
<!-- Node5 -->
<g id="Node000005" class="node">
<title>Node5</title>
<g id="a_Node000005"><a xlink:href="visibility_8hpp.html" target="_top" xlink:title=" ">
<polygon fill="white" stroke="#666666" points="140,-19 0,-19 0,0 140,0 140,-19"/>
<text text-anchor="middle" x="70" y="-7" font-family="Helvetica,sans-Serif" font-size="10.00">unilink/base/visibility.hpp</text>
</a>
</g>
</g>
<!-- Node1&#45;&gt;Node5 -->
<g id="edge4_Node000001_Node000005" class="edge">
<title>Node1&#45;&gt;Node5</title>
<g id="a_edge4_Node000001_Node000005"><a xlink:title=" ">
<path fill="none" stroke="#63b8ff" d="M1022.21,-253.94C858.58,-248.35 426.95,-231.57 286,-206 203.69,-191.07 175.26,-197.91 106,-151 74.85,-129.9 65.49,-120.49 53,-85 46.42,-66.29 53.32,-44.03 60.2,-28.74"/>
<polygon fill="#63b8ff" stroke="#63b8ff" points="63.52,-29.92 64.8,-19.4 57.24,-26.83 63.52,-29.92"/>
</a>
</g>
</g>
<!-- Node6 -->
<g id="Node000006" class="node">
<title>Node6</title>
<g id="a_Node000006"><a xlink:href="serial__config_8hpp.html" target="_top" xlink:title=" ">
<polygon fill="white" stroke="#666666" points="439,-151 327,-151 327,-121 439,-121 439,-151"/>
<text text-anchor="start" x="335" y="-139" font-family="Helvetica,sans-Serif" font-size="10.00">unilink/config/serial</text>
<text text-anchor="middle" x="383" y="-128" font-family="Helvetica,sans-Serif" font-size="10.00">_config.hpp</text>
</a>
</g>
</g>
<!-- Node1&#45;&gt;Node6 -->
<g id="edge5_Node000001_Node000006" class="edge">
<title>Node1&#45;&gt;Node6</title>
<g id="a_edge5_Node000001_Node000006"><a xlink:title=" ">
<path fill="none" stroke="#63b8ff" d="M1022.37,-245.23C889.62,-222.76 584.29,-171.07 449.27,-148.22"/>
<polygon fill="#63b8ff" stroke="#63b8ff" points="449.52,-144.71 439.08,-146.49 448.35,-151.61 449.52,-144.71"/>
</a>
</g>
</g>
<!-- Node10 -->
<g id="Node000010" class="node">
<title>Node10</title>
<g id="a_Node000010"><a xlink:href="channel_8hpp.html" target="_top" xlink:title=" ">
<polygon fill="white" stroke="#666666" points="1420,-206 1262,-206 1262,-187 1420,-187 1420,-206"/>
<text text-anchor="middle" x="1341" y="-194" font-family="Helvetica,sans-Serif" font-size="10.00">unilink/interface/channel.hpp</text>
</a>
</g>
</g>
<!-- Node1&#45;&gt;Node10 -->
<g id="edge10_Node000001_Node000010" class="edge">
<title>Node1&#45;&gt;Node10</title>
<g id="a_edge10_Node000001_Node000010"><a xlink:title=" ">
<path fill="none" stroke="#63b8ff" d="M1147.08,-241.99C1192.13,-231.65 1252.54,-217.79 1293.89,-208.31"/>
<polygon fill="#63b8ff" stroke="#63b8ff" points="1294.75,-211.7 1303.71,-206.05 1293.19,-204.88 1294.75,-211.7"/>
</a>
</g>
</g>
<!-- Node6&#45;&gt;Node3 -->
<g id="edge6_Node000006_Node000003" class="edge">
<title>Node6&#45;&gt;Node3</title>
<g id="a_edge6_Node000006_Node000003"><a xlink:title=" ">
<path fill="none" stroke="#63b8ff" d="M326.89,-121.55C305.64,-113.95 282.78,-102.36 267,-85 253.04,-69.64 247.19,-46.09 244.75,-29.59"/>
<polygon fill="#63b8ff" stroke="#63b8ff" points="248.2,-28.99 243.54,-19.48 241.25,-29.82 248.2,-28.99"/>
</a>
</g>
</g>
<!-- Node7 -->
<g id="Node000007" class="node">
<title>Node7</title>
<g id="a_Node000007"><a xlink:href="constants_8hpp.html" target="_top" xlink:title=" ">
<polygon fill="white" stroke="#666666" points="456.5,-79.5 309.5,-79.5 309.5,-60.5 456.5,-60.5 456.5,-79.5"/>
<text text-anchor="middle" x="383" y="-67.5" font-family="Helvetica,sans-Serif" font-size="10.00">unilink/base/constants.hpp</text>
</a>
</g>
</g>
<!-- Node6&#45;&gt;Node7 -->
<g id="edge7_Node000006_Node000007" class="edge">
<title>Node6&#45;&gt;Node7</title>
<g id="a_edge7_Node000006_Node000007"><a xlink:title=" ">
<path fill="none" stroke="#63b8ff" d="M383,-120.8C383,-111.7 383,-99.79 383,-89.9"/>
<polygon fill="#63b8ff" stroke="#63b8ff" points="386.5,-89.84 383,-79.84 379.5,-89.84 386.5,-89.84"/>
</a>
</g>
</g>
<!-- Node8 -->
<g id="Node000008" class="node">
<title>Node8</title>
<g id="a_Node000008"><a xlink:title=" ">
<polygon fill="#e0e0e0" stroke="#999999" points="409.5,-19 356.5,-19 356.5,0 409.5,0 409.5,-19"/>
<text text-anchor="middle" x="383" y="-7" font-family="Helvetica,sans-Serif" font-size="10.00">cstddef</text>
</a>
</g>
</g>
<!-- Node7&#45;&gt;Node8 -->
<g id="edge8_Node000007_Node000008" class="edge">
<title>Node7&#45;&gt;Node8</title>
<g id="a_edge8_Node000007_Node000008"><a xlink:title=" ">
<path fill="none" stroke="#63b8ff" d="M383,-60.37C383,-52.25 383,-39.81 383,-29.39"/>
<polygon fill="#63b8ff" stroke="#63b8ff" points="386.5,-29.17 383,-19.17 379.5,-29.17 386.5,-29.17"/>
</a>
</g>
</g>
<!-- Node9 -->
<g id="Node000009" class="node">
<title>Node9</title>
<g id="a_Node000009"><a xlink:title=" ">
<polygon fill="#e0e0e0" stroke="#999999" points="847,-19 797,-19 797,0 847,0 847,-19"/>
<text text-anchor="middle" x="822" y="-7" font-family="Helvetica,sans-Serif" font-size="10.00">cstdint</text>
</a>
</g>
</g>
<!-- Node7&#45;&gt;Node9 -->
<g id="edge9_Node000007_Node000009" class="edge">
<title>Node7&#45;&gt;Node9</title>
<g id="a_edge9_Node000007_Node000009"><a xlink:title=" ">
<path fill="none" stroke="#63b8ff" d="M431.66,-60.43C442.92,-58.55 454.87,-56.63 466,-55 583.34,-37.78 723.06,-21.56 786.97,-14.38"/>
<polygon fill="#63b8ff" stroke="#63b8ff" points="787.37,-17.85 796.92,-13.26 786.59,-10.9 787.37,-17.85"/>
</a>
</g>
</g>
<!-- Node10&#45;&gt;Node2 -->
<g id="edge13_Node000010_Node000002" class="edge">
<title>Node10&#45;&gt;Node2</title>
<g id="a_edge13_Node000010_Node000002"><a xlink:title=" ">
<path fill="none" stroke="#63b8ff" d="M1420.09,-194.06C1497.64,-190.88 1608.4,-181.03 1638,-151 1670.02,-118.51 1665.64,-59.43 1660.78,-29.29"/>
<polygon fill="#63b8ff" stroke="#63b8ff" points="1664.19,-28.48 1658.97,-19.26 1657.3,-29.73 1664.19,-28.48"/>
</a>
</g>
</g>
<!-- Node10&#45;&gt;Node4 -->
<g id="edge14_Node000010_Node000004" class="edge">
<title>Node10&#45;&gt;Node4</title>
<g id="a_edge14_Node000010_Node000004"><a xlink:title=" ">
<path fill="none" stroke="#63b8ff" d="M1362.2,-187C1377.3,-179.77 1396.69,-167.86 1407,-151 1429.35,-114.48 1431.92,-94.33 1415,-55 1409.85,-43.03 1399.71,-32.76 1390.17,-25.12"/>
<polygon fill="#63b8ff" stroke="#63b8ff" points="1392.19,-22.26 1382.07,-19.11 1388.01,-27.88 1392.19,-22.26"/>
</a>
</g>
</g>
<!-- Node10&#45;&gt;Node5 -->
<g id="edge43_Node000010_Node000005" class="edge">
<title>Node10&#45;&gt;Node5</title>
<g id="a_edge43_Node000010_Node000005"><a xlink:title=" ">
<path fill="none" stroke="#63b8ff" d="M1261.78,-194.21C1054.5,-190.5 499.63,-178.24 318,-151 202.65,-133.7 135.35,-177.27 64,-85 51.76,-69.17 56.44,-45.38 62.1,-28.96"/>
<polygon fill="#63b8ff" stroke="#63b8ff" points="65.46,-29.98 65.8,-19.39 58.93,-27.46 65.46,-29.98"/>
</a>
</g>
</g>
<!-- Node11 -->
<g id="Node000011" class="node">
<title>Node11</title>
<g id="a_Node000011"><a xlink:title=" ">
<polygon fill="#e0e0e0" stroke="#999999" points="1629,-145.5 1459,-145.5 1459,-126.5 1629,-126.5 1629,-145.5"/>
<text text-anchor="middle" x="1544" y="-133.5" font-family="Helvetica,sans-Serif" font-size="10.00">boost/asio/any_io_executor.hpp</text>
</a>
</g>
</g>
<!-- Node10&#45;&gt;Node11 -->
<g id="edge11_Node000010_Node000011" class="edge">
<title>Node10&#45;&gt;Node11</title>
<g id="a_edge11_Node000010_Node000011"><a xlink:title=" ">
<path fill="none" stroke="#63b8ff" d="M1370.52,-186.99C1405.92,-176.79 1465.4,-159.65 1504.68,-148.33"/>
<polygon fill="#63b8ff" stroke="#63b8ff" points="1505.81,-151.65 1514.45,-145.52 1503.87,-144.92 1505.81,-151.65"/>
</a>
</g>
</g>
<!-- Node12 -->
<g id="Node000012" class="node">
<title>Node12</title>
<g id="a_Node000012"><a xlink:title=" ">
<polygon fill="#e0e0e0" stroke="#999999" points="1269.5,-19 1204.5,-19 1204.5,0 1269.5,0 1269.5,-19"/>
<text text-anchor="middle" x="1237" y="-7" font-family="Helvetica,sans-Serif" font-size="10.00">functional</text>
</a>
</g>
</g>
<!-- Node10&#45;&gt;Node12 -->
<g id="edge12_Node000010_Node000012" class="edge">
<title>Node10&#45;&gt;Node12</title>
<g id="a_edge12_Node000010_Node000012"><a xlink:title=" ">
<path fill="none" stroke="#63b8ff" d="M1348.37,-186.68C1367.16,-163.05 1413.26,-97.3 1382,-55 1358.74,-23.53 1313.61,-13.6 1279.85,-10.81"/>
<polygon fill="#63b8ff" stroke="#63b8ff" points="1279.98,-7.31 1269.78,-10.16 1279.53,-14.29 1279.98,-7.31"/>
</a>
</g>
</g>
<!-- Node13 -->
<g id="Node000013" class="node">
<title>Node13</title>
<g id="a_Node000013"><a xlink:href="common_8hpp.html" target="_top" xlink:title=" ">
<polygon fill="white" stroke="#666666" points="908.5,-145.5 765.5,-145.5 765.5,-126.5 908.5,-126.5 908.5,-145.5"/>
<text text-anchor="middle" x="837" y="-133.5" font-family="Helvetica,sans-Serif" font-size="10.00">unilink/base/common.hpp</text>
</a>
</g>
</g>
<!-- Node10&#45;&gt;Node13 -->
<g id="edge15_Node000010_Node000013" class="edge">
<title>Node10&#45;&gt;Node13</title>
<g id="a_edge15_Node000010_Node000013"><a xlink:title=" ">
<path fill="none" stroke="#63b8ff" d="M1267.71,-186.99C1174.9,-176.22 1015.44,-157.71 918.76,-146.49"/>
<polygon fill="#63b8ff" stroke="#63b8ff" points="919.08,-143 908.74,-145.33 918.27,-149.96 919.08,-143"/>
</a>
</g>
</g>
<!-- Node27 -->
<g id="Node000027" class="node">
<title>Node27</title>
<g id="a_Node000027"><a xlink:href="safe__span_8hpp.html" target="_top" xlink:title=" ">
<polygon fill="white" stroke="#666666" points="1349,-151 1231,-151 1231,-121 1349,-121 1349,-151"/>
<text text-anchor="start" x="1239" y="-139" font-family="Helvetica,sans-Serif" font-size="10.00">unilink/memory/safe</text>
<text text-anchor="middle" x="1290" y="-128" font-family="Helvetica,sans-Serif" font-size="10.00">_span.hpp</text>
</a>
</g>
</g>
<!-- Node10&#45;&gt;Node27 -->
<g id="edge44_Node000010_Node000027" class="edge">
<title>Node10&#45;&gt;Node27</title>
<g id="a_edge44_Node000010_Node000027"><a xlink:title=" ">
<path fill="none" stroke="#63b8ff" d="M1333.47,-186.87C1327.07,-179.52 1317.58,-168.63 1309.1,-158.91"/>
<polygon fill="#63b8ff" stroke="#63b8ff" points="1311.51,-156.35 1302.31,-151.11 1306.24,-160.95 1311.51,-156.35"/>
</a>
</g>
</g>
<!-- Node13&#45;&gt;Node3 -->
<g id="edge25_Node000013_Node000003" class="edge">
<title>Node13&#45;&gt;Node3</title>
<g id="a_edge25_Node000013_Node000003"><a xlink:title=" ">
<path fill="none" stroke="#63b8ff" d="M765.35,-135.34C637.98,-134.8 378.14,-128.23 300,-85 277.13,-72.35 260.53,-46.28 251.33,-28.59"/>
<polygon fill="#63b8ff" stroke="#63b8ff" points="254.32,-26.74 246.78,-19.3 248.04,-29.82 254.32,-26.74"/>
</a>
</g>
</g>
<!-- Node13&#45;&gt;Node4 -->
<g id="edge28_Node000013_Node000004" class="edge">
<title>Node13&#45;&gt;Node4</title>
<g id="a_edge28_Node000013_Node000004"><a xlink:title=" ">
<path fill="none" stroke="#63b8ff" d="M908.81,-134.35C982.99,-131.55 1101,-121.1 1196,-85 1218.47,-76.46 1219.49,-65.73 1241,-55 1271.46,-39.82 1308.37,-27.5 1334.53,-19.71"/>
<polygon fill="#63b8ff" stroke="#63b8ff" points="1335.72,-23.01 1344.34,-16.85 1333.76,-16.29 1335.72,-23.01"/>
</a>
</g>
</g>
<!-- Node13&#45;&gt;Node7 -->
<g id="edge29_Node000013_Node000007" class="edge">
<title>Node13&#45;&gt;Node7</title>
<g id="a_edge29_Node000013_Node000007"><a xlink:title=" ">
<path fill="none" stroke="#63b8ff" d="M768.52,-126.46C694,-117.01 571.38,-100.98 466,-85 458.28,-83.83 450.17,-82.54 442.16,-81.23"/>
<polygon fill="#63b8ff" stroke="#63b8ff" points="442.55,-77.74 432.11,-79.56 441.41,-84.65 442.55,-77.74"/>
</a>
</g>
</g>
<!-- Node13&#45;&gt;Node9 -->
<g id="edge17_Node000013_Node000009" class="edge">
<title>Node13&#45;&gt;Node9</title>
<g id="a_edge17_Node000013_Node000009"><a xlink:title=" ">
<path fill="none" stroke="#63b8ff" d="M835.97,-126.44C833.57,-106.54 827.57,-56.76 824.27,-29.35"/>
<polygon fill="#63b8ff" stroke="#63b8ff" points="827.71,-28.63 823.04,-19.12 820.76,-29.46 827.71,-28.63"/>
</a>
</g>
</g>
<!-- Node13&#45;&gt;Node12 -->
<g id="edge20_Node000013_Node000012" class="edge">
<title>Node13&#45;&gt;Node12</title>
<g id="a_edge20_Node000013_Node000012"><a xlink:title=" ">
<path fill="none" stroke="#63b8ff" d="M908.57,-129.37C990.99,-121.97 1120.62,-107.23 1164,-85 1190.35,-71.5 1212.82,-44.85 1225.61,-27.36"/>
<polygon fill="#63b8ff" stroke="#63b8ff" points="1228.49,-29.36 1231.4,-19.17 1222.77,-25.32 1228.49,-29.36"/>
</a>
</g>
</g>
<!-- Node14 -->
<g id="Node000014" class="node">
<title>Node14</title>
<g id="a_Node000014"><a xlink:title=" ">
<polygon fill="#e0e0e0" stroke="#999999" points="915,-19 865,-19 865,0 915,0 915,-19"/>
<text text-anchor="middle" x="890" y="-7" font-family="Helvetica,sans-Serif" font-size="10.00">chrono</text>
</a>
</g>
</g>
<!-- Node13&#45;&gt;Node14 -->
<g id="edge16_Node000013_Node000014" class="edge">
<title>Node13&#45;&gt;Node14</title>
<g id="a_edge16_Node000013_Node000014"><a xlink:title=" ">
<path fill="none" stroke="#63b8ff" d="M840.64,-126.44C849.19,-106.36 870.69,-55.87 882.29,-28.62"/>
<polygon fill="#63b8ff" stroke="#63b8ff" points="885.64,-29.69 886.33,-19.12 879.19,-26.95 885.64,-29.69"/>
</a>
</g>
</g>
<!-- Node15 -->
<g id="Node000015" class="node">
<title>Node15</title>
<g id="a_Node000015"><a xlink:title=" ">
<polygon fill="#e0e0e0" stroke="#999999" points="991,-79.5 941,-79.5 941,-60.5 991,-60.5 991,-79.5"/>
<text text-anchor="middle" x="966" y="-67.5" font-family="Helvetica,sans-Serif" font-size="10.00">cstring</text>
</a>
</g>
</g>
<!-- Node13&#45;&gt;Node15 -->
<g id="edge18_Node000013_Node000015" class="edge">
<title>Node13&#45;&gt;Node15</title>
<g id="a_edge18_Node000013_Node000015"><a xlink:title=" ">
<path fill="none" stroke="#63b8ff" d="M854.4,-126.37C876.23,-115.54 913.89,-96.85 939.36,-84.22"/>
<polygon fill="#63b8ff" stroke="#63b8ff" points="941.06,-87.28 948.47,-79.7 937.95,-81.01 941.06,-87.28"/>
</a>
</g>
</g>
<!-- Node16 -->
<g id="Node000016" class="node">
<title>Node16</title>
<g id="a_Node000016"><a xlink:title=" ">
<polygon fill="#e0e0e0" stroke="#999999" points="519,-79.5 475,-79.5 475,-60.5 519,-60.5 519,-79.5"/>
<text text-anchor="middle" x="497" y="-67.5" font-family="Helvetica,sans-Serif" font-size="10.00">ctime</text>
</a>
</g>
</g>
<!-- Node13&#45;&gt;Node16 -->
<g id="edge19_Node000013_Node000016" class="edge">
<title>Node13&#45;&gt;Node16</title>
<g id="a_edge19_Node000013_Node000016"><a xlink:title=" ">
<path fill="none" stroke="#63b8ff" d="M765.23,-128.8C701.82,-122.05 607.36,-108.88 528,-85 526.37,-84.51 524.71,-83.95 523.05,-83.35"/>
<polygon fill="#63b8ff" stroke="#63b8ff" points="524.32,-80.09 513.74,-79.53 521.67,-86.56 524.32,-80.09"/>
</a>
</g>
</g>
<!-- Node17 -->
<g id="Node000017" class="node">
<title>Node17</title>
<g id="a_Node000017"><a xlink:title=" ">
<polygon fill="#e0e0e0" stroke="#999999" points="593,-79.5 537,-79.5 537,-60.5 593,-60.5 593,-79.5"/>
<text text-anchor="middle" x="565" y="-67.5" font-family="Helvetica,sans-Serif" font-size="10.00">iomanip</text>
</a>
</g>
</g>
<!-- Node13&#45;&gt;Node17 -->
<g id="edge21_Node000013_Node000017" class="edge">
<title>Node13&#45;&gt;Node17</title>
<g id="a_edge21_Node000013_Node000017"><a xlink:title=" ">
<path fill="none" stroke="#63b8ff" d="M786.02,-126.47C738.04,-117.89 664.43,-103.34 602,-85 599.86,-84.37 597.66,-83.68 595.47,-82.94"/>
<polygon fill="#63b8ff" stroke="#63b8ff" points="596.54,-79.61 585.94,-79.56 594.19,-86.2 596.54,-79.61"/>
</a>
</g>
</g>
<!-- Node18 -->
<g id="Node000018" class="node">
<title>Node18</title>
<g id="a_Node000018"><a xlink:title=" ">
<polygon fill="#e0e0e0" stroke="#999999" points="671,-79.5 611,-79.5 611,-60.5 671,-60.5 671,-79.5"/>
<text text-anchor="middle" x="641" y="-67.5" font-family="Helvetica,sans-Serif" font-size="10.00">iostream</text>
</a>
</g>
</g>
<!-- Node13&#45;&gt;Node18 -->
<g id="edge22_Node000013_Node000018" class="edge">
<title>Node13&#45;&gt;Node18</title>
<g id="a_edge22_Node000013_Node000018"><a xlink:title=" ">
<path fill="none" stroke="#63b8ff" d="M809.11,-126.45C777.64,-116.73 724.98,-100.23 680,-85 678.11,-84.36 676.17,-83.69 674.22,-83.02"/>
<polygon fill="#63b8ff" stroke="#63b8ff" points="675.06,-79.6 664.46,-79.58 672.73,-86.2 675.06,-79.6"/>
</a>
</g>
</g>
<!-- Node19 -->
<g id="Node000019" class="node">
<title>Node19</title>
<g id="a_Node000019"><a xlink:title=" ">
<polygon fill="#e0e0e0" stroke="#999999" points="745,-79.5 689,-79.5 689,-60.5 745,-60.5 745,-79.5"/>
<text text-anchor="middle" x="717" y="-67.5" font-family="Helvetica,sans-Serif" font-size="10.00">sstream</text>
</a>
</g>
</g>
<!-- Node13&#45;&gt;Node19 -->
<g id="edge23_Node000013_Node000019" class="edge">
<title>Node13&#45;&gt;Node19</title>
<g id="a_edge23_Node000013_Node000019"><a xlink:title=" ">
<path fill="none" stroke="#63b8ff" d="M820.82,-126.37C800.69,-115.63 766.09,-97.18 742.41,-84.55"/>
<polygon fill="#63b8ff" stroke="#63b8ff" points="743.78,-81.32 733.31,-79.7 740.49,-87.49 743.78,-81.32"/>
</a>
</g>
</g>
<!-- Node20 -->
<g id="Node000020" class="node">
<title>Node20</title>
<g id="a_Node000020"><a xlink:title=" ">
<polygon fill="#e0e0e0" stroke="#999999" points="1314.5,-79.5 1249.5,-79.5 1249.5,-60.5 1314.5,-60.5 1314.5,-79.5"/>
<text text-anchor="middle" x="1282" y="-67.5" font-family="Helvetica,sans-Serif" font-size="10.00">stdexcept</text>
</a>
</g>
</g>
<!-- Node13&#45;&gt;Node20 -->
<g id="edge24_Node000013_Node000020" class="edge">
<title>Node13&#45;&gt;Node20</title>
<g id="a_edge24_Node000013_Node000020"><a xlink:title=" ">
<path fill="none" stroke="#63b8ff" d="M908.76,-129.56C988.91,-122.66 1122.21,-108.71 1235,-85 1238.63,-84.24 1242.38,-83.33 1246.12,-82.35"/>
<polygon fill="#63b8ff" stroke="#63b8ff" points="1247.16,-85.69 1255.85,-79.62 1245.27,-78.95 1247.16,-85.69"/>
</a>
</g>
</g>
<!-- Node21 -->
<g id="Node000021" class="node">
<title>Node21</title>
<g id="a_Node000021"><a xlink:title=" ">
<polygon fill="#e0e0e0" stroke="#999999" points="1006.5,-19 933.5,-19 933.5,0 1006.5,0 1006.5,-19"/>
<text text-anchor="middle" x="970" y="-7" font-family="Helvetica,sans-Serif" font-size="10.00">string_view</text>
</a>
</g>
</g>
<!-- Node13&#45;&gt;Node21 -->
<g id="edge26_Node000013_Node000021" class="edge">
<title>Node13&#45;&gt;Node21</title>
<g id="a_edge26_Node000013_Node000021"><a xlink:title=" ">
<path fill="none" stroke="#63b8ff" d="M846.14,-126.44C868.26,-105.74 924.9,-52.71 953.28,-26.15"/>
<polygon fill="#63b8ff" stroke="#63b8ff" points="955.89,-28.51 960.79,-19.12 951.1,-23.4 955.89,-28.51"/>
</a>
</g>
</g>
<!-- Node22 -->
<g id="Node000022" class="node">
<title>Node22</title>
<g id="a_Node000022"><a xlink:title=" ">
<polygon fill="#e0e0e0" stroke="#999999" points="808.5,-79.5 763.5,-79.5 763.5,-60.5 808.5,-60.5 808.5,-79.5"/>
<text text-anchor="middle" x="786" y="-67.5" font-family="Helvetica,sans-Serif" font-size="10.00">utility</text>
</a>
</g>
</g>
<!-- Node13&#45;&gt;Node22 -->
<g id="edge27_Node000013_Node000022" class="edge">
<title>Node13&#45;&gt;Node22</title>
<g id="a_edge27_Node000013_Node000022"><a xlink:title=" ">
<path fill="none" stroke="#63b8ff" d="M830.12,-126.37C822.33,-116.59 809.45,-100.42 799.61,-88.08"/>
<polygon fill="#63b8ff" stroke="#63b8ff" points="802.07,-85.54 793.1,-79.91 796.59,-89.91 802.07,-85.54"/>
</a>
</g>
</g>
<!-- Node23 -->
<g id="Node000023" class="node">
<title>Node23</title>
<g id="a_Node000023"><a xlink:href="platform_8hpp.html" target="_top" xlink:title=" ">
<polygon fill="white" stroke="#666666" points="215,-79.5 73,-79.5 73,-60.5 215,-60.5 215,-79.5"/>
<text text-anchor="middle" x="144" y="-67.5" font-family="Helvetica,sans-Serif" font-size="10.00">unilink/base/platform.hpp</text>
</a>
</g>
</g>
<!-- Node13&#45;&gt;Node23 -->
<g id="edge30_Node000013_Node000023" class="edge">
<title>Node13&#45;&gt;Node23</title>
<g id="a_edge30_Node000013_Node000023"><a xlink:title=" ">
<path fill="none" stroke="#63b8ff" d="M765.41,-129.32C657.34,-120.6 446.14,-103.05 267,-85 253.49,-83.64 239.16,-82.1 225.24,-80.55"/>
<polygon fill="#63b8ff" stroke="#63b8ff" points="225.51,-77.06 215.19,-79.42 224.73,-84.01 225.51,-77.06"/>
</a>
</g>
</g>
<!-- Node24 -->
<g id="Node000024" class="node">
<title>Node24</title>
<g id="a_Node000024"><a xlink:href="logger_8hpp.html" target="_top" xlink:title=" ">
<polygon fill="white" stroke="#666666" points="1155,-85 1047,-85 1047,-55 1155,-55 1155,-85"/>
<text text-anchor="start" x="1055" y="-73" font-family="Helvetica,sans-Serif" font-size="10.00">unilink/diagnostics</text>
<text text-anchor="middle" x="1101" y="-62" font-family="Helvetica,sans-Serif" font-size="10.00">/logger.hpp</text>
</a>
</g>
</g>
<!-- Node13&#45;&gt;Node24 -->
<g id="edge33_Node000013_Node000024" class="edge">
<title>Node13&#45;&gt;Node24</title>
<g id="a_edge33_Node000013_Node000024"><a xlink:title=" ">
<path fill="none" stroke="#63b8ff" d="M872.33,-126.44C914.31,-116.26 985.15,-99.09 1036.88,-86.54"/>
<polygon fill="#63b8ff" stroke="#63b8ff" points="1037.74,-89.94 1046.63,-84.18 1036.09,-83.13 1037.74,-89.94"/>
</a>
</g>
</g>
<!-- Node23&#45;&gt;Node3 -->
<g id="edge31_Node000023_Node000003" class="edge">
<title>Node23&#45;&gt;Node3</title>
<g id="a_edge31_Node000023_Node000003"><a xlink:title=" ">
<path fill="none" stroke="#63b8ff" d="M158.61,-60.37C174.69,-50.86 200.78,-35.45 219.7,-24.27"/>
<polygon fill="#63b8ff" stroke="#63b8ff" points="221.5,-27.27 228.33,-19.17 217.94,-21.24 221.5,-27.27"/>
</a>
</g>
</g>
<!-- Node23&#45;&gt;Node5 -->
<g id="edge32_Node000023_Node000005" class="edge">
<title>Node23&#45;&gt;Node5</title>
<g id="a_edge32_Node000023_Node000005"><a xlink:title=" ">
<path fill="none" stroke="#63b8ff" d="M133.08,-60.37C121.49,-51.21 102.97,-36.56 88.98,-25.51"/>
<polygon fill="#63b8ff" stroke="#63b8ff" points="90.98,-22.62 80.96,-19.17 86.64,-28.11 90.98,-22.62"/>
</a>
</g>
</g>
<!-- Node24&#45;&gt;Node2 -->
<g id="edge37_Node000024_Node000002" class="edge">
<title>Node24&#45;&gt;Node2</title>
<g id="a_edge37_Node000024_Node000002"><a xlink:title=" ">
<path fill="none" stroke="#63b8ff" d="M1155.07,-63.31C1266.71,-51.56 1520.39,-24.87 1617.85,-14.62"/>
<polygon fill="#63b8ff" stroke="#63b8ff" points="1618.29,-18.09 1627.87,-13.57 1617.56,-11.13 1618.29,-18.09"/>
</a>
</g>
</g>
<!-- Node24&#45;&gt;Node3 -->
<g id="edge39_Node000024_Node000003" class="edge">
<title>Node24&#45;&gt;Node3</title>
<g id="a_edge39_Node000024_Node000003"><a xlink:title=" ">
<path fill="none" stroke="#63b8ff" d="M1046.85,-60.65C1031.71,-58.55 1015.24,-56.47 1000,-55 710.69,-27.02 636.98,-38.84 347,-19 322.99,-17.36 295.89,-15.13 275.38,-13.37"/>
<polygon fill="#63b8ff" stroke="#63b8ff" points="275.57,-9.87 265.3,-12.49 274.96,-16.85 275.57,-9.87"/>
</a>
</g>
</g>
<!-- Node24&#45;&gt;Node4 -->
<g id="edge41_Node000024_Node000004" class="edge">
<title>Node24&#45;&gt;Node4</title>
<g id="a_edge41_Node000024_Node000004"><a xlink:title=" ">
<path fill="none" stroke="#63b8ff" d="M1155.03,-57.16C1208.75,-45.39 1289.46,-27.71 1334.53,-17.83"/>
<polygon fill="#63b8ff" stroke="#63b8ff" points="1335.36,-21.23 1344.38,-15.68 1333.86,-14.4 1335.36,-21.23"/>
</a>
</g>
</g>
<!-- Node24&#45;&gt;Node5 -->
<g id="edge42_Node000024_Node000005" class="edge">
<title>Node24&#45;&gt;Node5</title>
<g id="a_edge42_Node000024_Node000005"><a xlink:title=" ">
<path fill="none" stroke="#63b8ff" d="M1046.85,-60.56C1031.72,-58.46 1015.25,-56.4 1000,-55 650.89,-22.9 562.1,-37.47 212,-19 191.96,-17.94 170.33,-16.7 150.14,-15.5"/>
<polygon fill="#63b8ff" stroke="#63b8ff" points="150.24,-12 140.05,-14.89 149.82,-18.98 150.24,-12"/>
</a>
</g>
</g>
<!-- Node24&#45;&gt;Node12 -->
<g id="edge36_Node000024_Node000012" class="edge">
<title>Node24&#45;&gt;Node12</title>
<g id="a_edge36_Node000024_Node000012"><a xlink:title=" ">
<path fill="none" stroke="#63b8ff" d="M1133.58,-54.99C1156.06,-45.31 1185.72,-32.56 1207.51,-23.18"/>
<polygon fill="#63b8ff" stroke="#63b8ff" points="1209.11,-26.31 1216.92,-19.14 1206.35,-19.88 1209.11,-26.31"/>
</a>
</g>
</g>
<!-- Node24&#45;&gt;Node14 -->
<g id="edge35_Node000024_Node000014" class="edge">
<title>Node24&#45;&gt;Node14</title>
<g id="a_edge35_Node000024_Node000014"><a xlink:title=" ">
<path fill="none" stroke="#63b8ff" d="M1050.46,-54.99C1011.79,-44.27 959.45,-29.75 925.22,-20.26"/>
<polygon fill="#63b8ff" stroke="#63b8ff" points="925.78,-16.79 915.21,-17.49 923.91,-23.53 925.78,-16.79"/>
</a>
</g>
</g>
<!-- Node24&#45;&gt;Node21 -->
<g id="edge40_Node000024_Node000021" class="edge">
<title>Node24&#45;&gt;Node21</title>
<g id="a_edge40_Node000024_Node000021"><a xlink:title=" ">
<path fill="none" stroke="#63b8ff" d="M1069.62,-54.99C1048.06,-45.36 1019.65,-32.67 998.69,-23.31"/>
<polygon fill="#63b8ff" stroke="#63b8ff" points="999.9,-20.02 989.35,-19.14 997.05,-26.41 999.9,-20.02"/>
</a>
</g>
</g>
<!-- Node25 -->
<g id="Node000025" class="node">
<title>Node25</title>
<g id="a_Node000025"><a xlink:title=" ">
<polygon fill="#e0e0e0" stroke="#999999" points="1186,-19 1136,-19 1136,0 1186,0 1186,-19"/>
<text text-anchor="middle" x="1161" y="-7" font-family="Helvetica,sans-Serif" font-size="10.00">atomic</text>
</a>
</g>
</g>
<!-- Node24&#45;&gt;Node25 -->
<g id="edge34_Node000024_Node000025" class="edge">
<title>Node24&#45;&gt;Node25</title>
<g id="a_edge34_Node000024_Node000025"><a xlink:title=" ">
<path fill="none" stroke="#63b8ff" d="M1115.52,-54.84C1124.32,-46.26 1135.57,-35.3 1144.67,-26.42"/>
<polygon fill="#63b8ff" stroke="#63b8ff" points="1147.29,-28.75 1152.01,-19.27 1142.41,-23.74 1147.29,-28.75"/>
</a>
</g>
</g>
<!-- Node26 -->
<g id="Node000026" class="node">
<title>Node26</title>
<g id="a_Node000026"><a xlink:title=" ">
<polygon fill="#e0e0e0" stroke="#999999" points="1117.5,-19 1024.5,-19 1024.5,0 1117.5,0 1117.5,-19"/>
<text text-anchor="middle" x="1071" y="-7" font-family="Helvetica,sans-Serif" font-size="10.00">source_location</text>
</a>
</g>
</g>
<!-- Node24&#45;&gt;Node26 -->
<g id="edge38_Node000024_Node000026" class="edge">
<title>Node24&#45;&gt;Node26</title>
<g id="a_edge38_Node000024_Node000026"><a xlink:title=" ">
<path fill="none" stroke="#63b8ff" d="M1093.74,-54.84C1089.65,-46.87 1084.51,-36.84 1080.14,-28.33"/>
<polygon fill="#63b8ff" stroke="#63b8ff" points="1083.17,-26.57 1075.5,-19.27 1076.94,-29.76 1083.17,-26.57"/>
</a>
</g>
</g>
<!-- Node27&#45;&gt;Node9 -->
<g id="edge45_Node000027_Node000009" class="edge">
<title>Node27&#45;&gt;Node9</title>
<g id="a_edge45_Node000027_Node000009"><a xlink:title=" ">
<path fill="none" stroke="#63b8ff" d="M1230.8,-131.14C1178.13,-125.9 1100.07,-113.62 1038,-85 1018.46,-75.99 1019.31,-64.49 1000,-55 999.9,-54.95 908.7,-32.16 856.9,-19.22"/>
<polygon fill="#63b8ff" stroke="#63b8ff" points="857.66,-15.8 847.11,-16.77 855.96,-22.59 857.66,-15.8"/>
</a>
</g>
</g>
<!-- Node27&#45;&gt;Node20 -->
<g id="edge47_Node000027_Node000020" class="edge">
<title>Node27&#45;&gt;Node20</title>
<g id="a_edge47_Node000027_Node000020"><a xlink:title=" ">
<path fill="none" stroke="#63b8ff" d="M1288.22,-120.8C1287.09,-111.7 1285.6,-99.79 1284.36,-89.9"/>
<polygon fill="#63b8ff" stroke="#63b8ff" points="1287.82,-89.33 1283.11,-79.84 1280.87,-90.2 1287.82,-89.33"/>
</a>
</g>
</g>
<!-- Node28 -->
<g id="Node000028" class="node">
<title>Node28</title>
<g id="a_Node000028"><a xlink:title=" ">
<polygon fill="#e0e0e0" stroke="#999999" points="1373,-79.5 1333,-79.5 1333,-60.5 1373,-60.5 1373,-79.5"/>
<text text-anchor="middle" x="1353" y="-67.5" font-family="Helvetica,sans-Serif" font-size="10.00">span</text>
</a>
</g>
</g>
<!-- Node27&#45;&gt;Node28 -->
<g id="edge46_Node000027_Node000028" class="edge">
<title>Node27&#45;&gt;Node28</title>
<g id="a_edge46_Node000027_Node000028"><a xlink:title=" ">
<path fill="none" stroke="#63b8ff" d="M1303.98,-120.8C1313.8,-110.82 1326.96,-97.46 1337.17,-87.09"/>
<polygon fill="#63b8ff" stroke="#63b8ff" points="1339.77,-89.43 1344.29,-79.84 1334.78,-84.52 1339.77,-89.43"/>
</a>
</g>
</g>
</g>
</svg>

<g id="navigator" transform="translate(0 0)" fill="#404254">
  <rect fill="#f2f5e9" fill-opacity="0.5" stroke="#606060" stroke-width=".5" x="0" y="0" width="60" height="60"/>
  <use id="zoomplus" xlink:href="#zoomPlus" x="17" y="9" onmousedown="handleZoom(evt,'in')"/>
  <use id="zoomminus" xlink:href="#zoomMin" x="42" y="9" onmousedown="handleZoom(evt,'out')"/>
  <use id="reset" xlink:href="#resetDef" x="30" y="36" onmousedown="handleReset()"/>
   <use id="arrowup" xlink:href="#arrowUp" x="0" y="0" onmousedown="handlePan(0,-1)"/>
  <use id="arrowright" xlink:href="#arrowRight" x="0" y="0" onmousedown="handlePan(1,0)"/>
  <use id="arrowdown" xlink:href="#arrowDown" x="0" y="0" onmousedown="handlePan(0,1)"/>
  <use id="arrowleft" xlink:href="#arrowLeft" x="0" y="0" onmousedown="handlePan(-1,0)"/>
</g>
<svg viewBox="0 0 15 15" width="100%" height="30px" preserveAspectRatio="xMaxYMin meet">
 <g id="arrow_out" transform="scale(0.3 0.3)">
  <a xlink:href="transport_2serial_2serial_8hpp__incl_org.svg" target="_base">
   <rect id="button" ry="5" rx="5" y="6" x="6" height="38" width="38"
        fill="#f2f5e9" fill-opacity="0.5" stroke="#606060" stroke-width="1.0"/>
   <path id="arrow"
     d="M 11.500037,31.436501 C 11.940474,20.09759 22.043105,11.32322 32.158766,21.979434 L 37.068811,17.246167 C 37.068811,17.246167 37.088388,32 37.088388,32 L 22.160133,31.978069 C 22.160133,31.978069 26.997745,27.140456 26.997745,27.140456 C 18.528582,18.264221 13.291696,25.230495 11.500037,31.436501 z"
     style="fill:#404040;"/>
  </a>
 </g>
</svg>

<style type='text/css'>
<![CDATA[
[data-mouse-over-selected='false'] { opacity: 0.7; }
[data-mouse-over-selected='true']  { opacity: 1.0; }
]]>
</style>
<script type="application/ecmascript"><![CDATA[
document.addEventListener('DOMContentLoaded', (event) => {
  highlightEdges();
  highlightAdjacentNodes();
});
]]></script>
</svg>
