<?xml version="1.0" encoding="UTF-8" standalone="no"?>
<!DOCTYPE svg PUBLIC "-//W3C//DTD SVG 1.1//EN"
 "http://www.w3.org/Graphics/SVG/1.1/DTD/svg11.dtd">
<!-- Generated by graphviz version 2.43.0 (0)
 -->
<!-- Title: unilink/transport/udp/udp.hpp Pages: 1 -->
<svg width="1626pt" height="346pt"
 viewBox="0.00 0.00 1625.78 346.00" xmlns="http://www.w3.org/2000/svg" xmlns:xlink="http://www.w3.org/1999/xlink">
<g id="graph0" class="graph" transform="scale(1 1) rotate(0) translate(4 342)">
<title>unilink/transport/udp/udp.hpp</title>
<!-- Node1 -->
<g id="Node000001" class="node">
<title>Node1</title>
<g id="a_Node000001"><a xlink:title=" ">
<polygon fill="#999999" stroke="#666666" points="303.5,-338 185.5,-338 185.5,-308 303.5,-308 303.5,-338"/>
<text text-anchor="start" x="193.5" y="-326" font-family="Helvetica,sans-Serif" font-size="10.00">unilink/transport/udp</text>
<text text-anchor="middle" x="244.5" y="-315" font-family="Helvetica,sans-Serif" font-size="10.00">/udp.hpp</text>
</a>
</g>
</g>
<!-- Node2 -->
<g id="Node000002" class="node">
<title>Node2</title>
<g id="a_Node000002"><a xlink:title=" ">
<polygon fill="#e0e0e0" stroke="#999999" points="121,-266.5 0,-266.5 0,-247.5 121,-247.5 121,-266.5"/>
<text text-anchor="middle" x="60.5" y="-254.5" font-family="Helvetica,sans-Serif" font-size="10.00">boost/asio/ip/udp.hpp</text>
</a>
</g>
</g>
<!-- Node1&#45;&gt;Node2 -->
<g id="edge1_Node000001_Node000002" class="edge">
<title>Node1&#45;&gt;Node2</title>
<g id="a_edge1_Node000001_Node000002"><a xlink:title=" ">
<path fill="none" stroke="#63b8ff" d="M204.12,-307.95C171.28,-296.53 125.47,-280.6 94.49,-269.82"/>
<polygon fill="#63b8ff" stroke="#63b8ff" points="95.58,-266.5 84.99,-266.52 93.28,-273.11 95.58,-266.5"/>
</a>
</g>
</g>
<!-- Node3 -->
<g id="Node000003" class="node">
<title>Node3</title>
<g id="a_Node000003"><a xlink:title=" ">
<polygon fill="#e0e0e0" stroke="#999999" points="1552,-74 1487,-74 1487,-55 1552,-55 1552,-74"/>
<text text-anchor="middle" x="1519.5" y="-62" font-family="Helvetica,sans-Serif" font-size="10.00">functional</text>
</a>
</g>
</g>
<!-- Node1&#45;&gt;Node3 -->
<g id="edge2_Node000001_Node000003" class="edge">
<title>Node1&#45;&gt;Node3</title>
<g id="a_edge2_Node000001_Node000003"><a xlink:title=" ">
<path fill="none" stroke="#63b8ff" d="M303.79,-318.03C418.26,-310.22 677.64,-291.92 895.5,-272 1172.34,-246.69 1257.72,-304.97 1517.5,-206 1572.72,-184.96 1640.68,-160.2 1609.5,-110 1598.95,-93.01 1579.77,-82.31 1561.82,-75.67"/>
<polygon fill="#63b8ff" stroke="#63b8ff" points="1562.64,-72.26 1552.04,-72.39 1560.41,-78.89 1562.64,-72.26"/>
</a>
</g>
</g>
<!-- Node4 -->
<g id="Node000004" class="node">
<title>Node4</title>
<g id="a_Node000004"><a xlink:title=" ">
<polygon fill="#e0e0e0" stroke="#999999" points="457.5,-74 399.5,-74 399.5,-55 457.5,-55 457.5,-74"/>
<text text-anchor="middle" x="428.5" y="-62" font-family="Helvetica,sans-Serif" font-size="10.00">memory</text>
</a>
</g>
</g>
<!-- Node1&#45;&gt;Node4 -->
<g id="edge3_Node000001_Node000004" class="edge">
<title>Node1&#45;&gt;Node4</title>
<g id="a_edge3_Node000001_Node000004"><a xlink:title=" ">
<path fill="none" stroke="#63b8ff" d="M240.24,-307.99C232.77,-280.57 220.28,-218.8 244.5,-176 275.47,-121.28 345.55,-90.69 389.73,-76.19"/>
<polygon fill="#63b8ff" stroke="#63b8ff" points="390.8,-79.52 399.28,-73.17 388.69,-72.85 390.8,-79.52"/>
</a>
</g>
</g>
<!-- Node5 -->
<g id="Node000005" class="node">
<title>Node5</title>
<g id="a_Node000005"><a xlink:title=" ">
<polygon fill="#e0e0e0" stroke="#999999" points="309.5,-200.5 253.5,-200.5 253.5,-181.5 309.5,-181.5 309.5,-200.5"/>
<text text-anchor="middle" x="281.5" y="-188.5" font-family="Helvetica,sans-Serif" font-size="10.00">optional</text>
</a>
</g>
</g>
<!-- Node1&#45;&gt;Node5 -->
<g id="edge4_Node000001_Node000005" class="edge">
<title>Node1&#45;&gt;Node5</title>
<g id="a_edge4_Node000001_Node000005"><a xlink:title=" ">
<path fill="none" stroke="#63b8ff" d="M248.53,-307.84C255.25,-284.23 268.74,-236.83 276.21,-210.58"/>
<polygon fill="#63b8ff" stroke="#63b8ff" points="279.64,-211.32 279.01,-200.75 272.91,-209.41 279.64,-211.32"/>
</a>
</g>
</g>
<!-- Node6 -->
<g id="Node000006" class="node">
<title>Node6</title>
<g id="a_Node000006"><a xlink:title=" ">
<polygon fill="#e0e0e0" stroke="#999999" points="509,-19 462,-19 462,0 509,0 509,-19"/>
<text text-anchor="middle" x="485.5" y="-7" font-family="Helvetica,sans-Serif" font-size="10.00">vector</text>
</a>
</g>
</g>
<!-- Node1&#45;&gt;Node6 -->
<g id="edge5_Node000001_Node000006" class="edge">
<title>Node1&#45;&gt;Node6</title>
<g id="a_edge5_Node000001_Node000006"><a xlink:title=" ">
<path fill="none" stroke="#63b8ff" d="M216.05,-307.93C201.43,-299.37 184.43,-287.17 173.5,-272 151.8,-241.88 149.5,-229.12 149.5,-192 149.5,-192 149.5,-192 149.5,-124 149.5,-91.53 148.44,-75.64 173.5,-55 215.38,-20.51 379.62,-12.75 451.5,-11.01"/>
<polygon fill="#63b8ff" stroke="#63b8ff" points="451.89,-14.5 461.81,-10.78 451.74,-7.5 451.89,-14.5"/>
</a>
</g>
</g>
<!-- Node7 -->
<g id="Node000007" class="node">
<title>Node7</title>
<g id="a_Node000007"><a xlink:href="visibility_8hpp.html" target="_top" xlink:title=" ">
<polygon fill="white" stroke="#666666" points="669.5,-19 529.5,-19 529.5,0 669.5,0 669.5,-19"/>
<text text-anchor="middle" x="599.5" y="-7" font-family="Helvetica,sans-Serif" font-size="10.00">unilink/base/visibility.hpp</text>
</a>
</g>
</g>
<!-- Node1&#45;&gt;Node7 -->
<g id="edge6_Node000001_Node000007" class="edge">
<title>Node1&#45;&gt;Node7</title>
<g id="a_edge6_Node000001_Node000007"><a xlink:title=" ">
<path fill="none" stroke="#63b8ff" d="M233.51,-307.7C216.95,-284.66 187.5,-237.34 187.5,-192 187.5,-192 187.5,-192 187.5,-124 187.5,-87.95 425.04,-41.21 539.39,-20.79"/>
<polygon fill="#63b8ff" stroke="#63b8ff" points="540.16,-24.21 549.39,-19.02 538.93,-17.32 540.16,-24.21"/>
</a>
</g>
</g>
<!-- Node8 -->
<g id="Node000008" class="node">
<title>Node8</title>
<g id="a_Node000008"><a xlink:href="udp__config_8hpp.html" target="_top" xlink:title=" ">
<polygon fill="white" stroke="#666666" points="395,-272 292,-272 292,-242 395,-242 395,-272"/>
<text text-anchor="start" x="300" y="-260" font-family="Helvetica,sans-Serif" font-size="10.00">unilink/config/udp</text>
<text text-anchor="middle" x="343.5" y="-249" font-family="Helvetica,sans-Serif" font-size="10.00">_config.hpp</text>
</a>
</g>
</g>
<!-- Node1&#45;&gt;Node8 -->
<g id="edge7_Node000001_Node000008" class="edge">
<title>Node1&#45;&gt;Node8</title>
<g id="a_edge7_Node000001_Node000008"><a xlink:title=" ">
<path fill="none" stroke="#63b8ff" d="M266.47,-307.8C280.19,-298.93 298.03,-287.39 313.1,-277.66"/>
<polygon fill="#63b8ff" stroke="#63b8ff" points="315.09,-280.53 321.59,-272.16 311.29,-274.65 315.09,-280.53"/>
</a>
</g>
</g>
<!-- Node13 -->
<g id="Node000013" class="node">
<title>Node13</title>
<g id="a_Node000013"><a xlink:href="channel_8hpp.html" target="_top" xlink:title=" ">
<polygon fill="white" stroke="#666666" points="886.5,-266.5 728.5,-266.5 728.5,-247.5 886.5,-247.5 886.5,-266.5"/>
<text text-anchor="middle" x="807.5" y="-254.5" font-family="Helvetica,sans-Serif" font-size="10.00">unilink/interface/channel.hpp</text>
</a>
</g>
</g>
<!-- Node1&#45;&gt;Node13 -->
<g id="edge14_Node000001_Node000013" class="edge">
<title>Node1&#45;&gt;Node13</title>
<g id="a_edge14_Node000001_Node000013"><a xlink:title=" ">
<path fill="none" stroke="#63b8ff" d="M303.69,-315.27C403.85,-303.89 607.12,-280.78 722.5,-267.66"/>
<polygon fill="#63b8ff" stroke="#63b8ff" points="723.16,-271.11 732.71,-266.5 722.37,-264.15 723.16,-271.11"/>
</a>
</g>
</g>
<!-- Node8&#45;&gt;Node5 -->
<g id="edge9_Node000008_Node000005" class="edge">
<title>Node8&#45;&gt;Node5</title>
<g id="a_edge9_Node000008_Node000005"><a xlink:title=" ">
<path fill="none" stroke="#63b8ff" d="M329.74,-241.8C320.07,-231.82 307.13,-218.46 297.08,-208.09"/>
<polygon fill="#63b8ff" stroke="#63b8ff" points="299.54,-205.59 290.07,-200.84 294.51,-210.46 299.54,-205.59"/>
</a>
</g>
</g>
<!-- Node9 -->
<g id="Node000009" class="node">
<title>Node9</title>
<g id="a_Node000009"><a xlink:title=" ">
<polygon fill="#e0e0e0" stroke="#999999" points="639.5,-134.5 589.5,-134.5 589.5,-115.5 639.5,-115.5 639.5,-134.5"/>
<text text-anchor="middle" x="614.5" y="-122.5" font-family="Helvetica,sans-Serif" font-size="10.00">cstdint</text>
</a>
</g>
</g>
<!-- Node8&#45;&gt;Node9 -->
<g id="edge8_Node000008_Node000009" class="edge">
<title>Node8&#45;&gt;Node9</title>
<g id="a_edge8_Node000008_Node000009"><a xlink:title=" ">
<path fill="none" stroke="#63b8ff" d="M395.26,-254.44C441.85,-250.76 510.35,-239.48 559.5,-206 582.2,-190.54 598.28,-162.35 606.98,-143.9"/>
<polygon fill="#63b8ff" stroke="#63b8ff" points="610.26,-145.12 611.14,-134.57 603.87,-142.27 610.26,-145.12"/>
</a>
</g>
</g>
<!-- Node10 -->
<g id="Node000010" class="node">
<title>Node10</title>
<g id="a_Node000010"><a xlink:title=" ">
<polygon fill="#e0e0e0" stroke="#999999" points="792.5,-19 748.5,-19 748.5,0 792.5,0 792.5,-19"/>
<text text-anchor="middle" x="770.5" y="-7" font-family="Helvetica,sans-Serif" font-size="10.00">string</text>
</a>
</g>
</g>
<!-- Node8&#45;&gt;Node10 -->
<g id="edge10_Node000008_Node000010" class="edge">
<title>Node8&#45;&gt;Node10</title>
<g id="a_edge10_Node000008_Node000010"><a xlink:title=" ">
<path fill="none" stroke="#63b8ff" d="M341.9,-241.89C338.57,-204.84 335.3,-104.29 390.5,-55 396.99,-49.2 647.82,-23.04 738.34,-13.77"/>
<polygon fill="#63b8ff" stroke="#63b8ff" points="738.72,-17.25 748.31,-12.75 738.01,-10.29 738.72,-17.25"/>
</a>
</g>
</g>
<!-- Node11 -->
<g id="Node000011" class="node">
<title>Node11</title>
<g id="a_Node000011"><a xlink:href="constants_8hpp.html" target="_top" xlink:title=" ">
<polygon fill="white" stroke="#666666" points="551,-200.5 404,-200.5 404,-181.5 551,-181.5 551,-200.5"/>
<text text-anchor="middle" x="477.5" y="-188.5" font-family="Helvetica,sans-Serif" font-size="10.00">unilink/base/constants.hpp</text>
</a>
</g>
</g>
<!-- Node8&#45;&gt;Node11 -->
<g id="edge11_Node000008_Node000011" class="edge">
<title>Node8&#45;&gt;Node11</title>
<g id="a_edge11_Node000008_Node000011"><a xlink:title=" ">
<path fill="none" stroke="#63b8ff" d="M372.91,-241.95C395.99,-230.93 427.88,-215.7 450.36,-204.96"/>
<polygon fill="#63b8ff" stroke="#63b8ff" points="452.15,-207.99 459.67,-200.52 449.13,-201.67 452.15,-207.99"/>
</a>
</g>
</g>
<!-- Node11&#45;&gt;Node9 -->
<g id="edge13_Node000011_Node000009" class="edge">
<title>Node11&#45;&gt;Node9</title>
<g id="a_edge13_Node000011_Node000009"><a xlink:title=" ">
<path fill="none" stroke="#63b8ff" d="M495.98,-181.37C519.26,-170.49 559.51,-151.69 586.56,-139.05"/>
<polygon fill="#63b8ff" stroke="#63b8ff" points="588.3,-142.1 595.88,-134.7 585.34,-135.76 588.3,-142.1"/>
</a>
</g>
</g>
<!-- Node12 -->
<g id="Node000012" class="node">
<title>Node12</title>
<g id="a_Node000012"><a xlink:title=" ">
<polygon fill="#e0e0e0" stroke="#999999" points="495,-134.5 442,-134.5 442,-115.5 495,-115.5 495,-134.5"/>
<text text-anchor="middle" x="468.5" y="-122.5" font-family="Helvetica,sans-Serif" font-size="10.00">cstddef</text>
</a>
</g>
</g>
<!-- Node11&#45;&gt;Node12 -->
<g id="edge12_Node000011_Node000012" class="edge">
<title>Node11&#45;&gt;Node12</title>
<g id="a_edge12_Node000011_Node000012"><a xlink:title=" ">
<path fill="none" stroke="#63b8ff" d="M476.29,-181.37C474.98,-172.07 472.86,-156.98 471.16,-144.9"/>
<polygon fill="#63b8ff" stroke="#63b8ff" points="474.61,-144.32 469.75,-134.91 467.68,-145.3 474.61,-144.32"/>
</a>
</g>
</g>
<!-- Node13&#45;&gt;Node3 -->
<g id="edge16_Node000013_Node000003" class="edge">
<title>Node13&#45;&gt;Node3</title>
<g id="a_edge16_Node000013_Node000003"><a xlink:title=" ">
<path fill="none" stroke="#63b8ff" d="M886.61,-253.3C1034.01,-247.71 1345.21,-233.05 1449.5,-206 1517.65,-188.33 1555.48,-199.25 1593.5,-140 1600.7,-128.78 1600.06,-121.61 1593.5,-110 1585.33,-95.55 1570.38,-85.27 1556.04,-78.26"/>
<polygon fill="#63b8ff" stroke="#63b8ff" points="1557.35,-75.01 1546.79,-74.12 1554.49,-81.4 1557.35,-75.01"/>
</a>
</g>
</g>
<!-- Node13&#45;&gt;Node4 -->
<g id="edge17_Node000013_Node000004" class="edge">
<title>Node13&#45;&gt;Node4</title>
<g id="a_edge17_Node000013_Node000004"><a xlink:title=" ">
<path fill="none" stroke="#63b8ff" d="M766.6,-247.49C732.15,-239.43 682.15,-225.65 641.5,-206 574.23,-173.49 566.34,-150.42 503.5,-110 486.79,-99.25 467.5,-87.82 452.67,-79.24"/>
<polygon fill="#63b8ff" stroke="#63b8ff" points="454.05,-76 443.64,-74.05 450.56,-82.07 454.05,-76"/>
</a>
</g>
</g>
<!-- Node13&#45;&gt;Node6 -->
<g id="edge18_Node000013_Node000006" class="edge">
<title>Node13&#45;&gt;Node6</title>
<g id="a_edge18_Node000013_Node000006"><a xlink:title=" ">
<path fill="none" stroke="#63b8ff" d="M728.07,-251.88C614.42,-245.17 416.57,-230.16 394.5,-206 349.22,-156.44 354.48,-111.65 390.5,-55 403.91,-33.9 430.25,-22.64 451.8,-16.72"/>
<polygon fill="#63b8ff" stroke="#63b8ff" points="452.74,-20.1 461.61,-14.3 451.06,-13.3 452.74,-20.1"/>
</a>
</g>
</g>
<!-- Node13&#45;&gt;Node7 -->
<g id="edge53_Node000013_Node000007" class="edge">
<title>Node13&#45;&gt;Node7</title>
<g id="a_edge53_Node000013_Node000007"><a xlink:title=" ">
<path fill="none" stroke="#63b8ff" d="M787.82,-247.37C734.86,-223.94 592.51,-159.63 580.5,-140 559.03,-104.92 577.41,-54.72 590.03,-28.31"/>
<polygon fill="#63b8ff" stroke="#63b8ff" points="593.28,-29.65 594.64,-19.14 587.02,-26.5 593.28,-29.65"/>
</a>
</g>
</g>
<!-- Node14 -->
<g id="Node000014" class="node">
<title>Node14</title>
<g id="a_Node000014"><a xlink:title=" ">
<polygon fill="#e0e0e0" stroke="#999999" points="1220.5,-200.5 1050.5,-200.5 1050.5,-181.5 1220.5,-181.5 1220.5,-200.5"/>
<text text-anchor="middle" x="1135.5" y="-188.5" font-family="Helvetica,sans-Serif" font-size="10.00">boost/asio/any_io_executor.hpp</text>
</a>
</g>
</g>
<!-- Node13&#45;&gt;Node14 -->
<g id="edge15_Node000013_Node000014" class="edge">
<title>Node13&#45;&gt;Node14</title>
<g id="a_edge15_Node000013_Node000014"><a xlink:title=" ">
<path fill="none" stroke="#63b8ff" d="M851.4,-247.44C911.05,-235.8 1017.63,-215 1081.92,-202.45"/>
<polygon fill="#63b8ff" stroke="#63b8ff" points="1082.72,-205.86 1091.86,-200.51 1081.38,-198.99 1082.72,-205.86"/>
</a>
</g>
</g>
<!-- Node15 -->
<g id="Node000015" class="node">
<title>Node15</title>
<g id="a_Node000015"><a xlink:href="common_8hpp.html" target="_top" xlink:title=" ">
<polygon fill="white" stroke="#666666" points="1032,-200.5 889,-200.5 889,-181.5 1032,-181.5 1032,-200.5"/>
<text text-anchor="middle" x="960.5" y="-188.5" font-family="Helvetica,sans-Serif" font-size="10.00">unilink/base/common.hpp</text>
</a>
</g>
</g>
<!-- Node13&#45;&gt;Node15 -->
<g id="edge19_Node000013_Node000015" class="edge">
<title>Node13&#45;&gt;Node15</title>
<g id="a_edge19_Node000013_Node000015"><a xlink:title=" ">
<path fill="none" stroke="#63b8ff" d="M828.13,-247.37C854.37,-236.39 899.88,-217.36 930.09,-204.72"/>
<polygon fill="#63b8ff" stroke="#63b8ff" points="931.83,-207.79 939.7,-200.7 929.13,-201.33 931.83,-207.79"/>
</a>
</g>
</g>
<!-- Node31 -->
<g id="Node000031" class="node">
<title>Node31</title>
<g id="a_Node000031"><a xlink:href="safe__span_8hpp.html" target="_top" xlink:title=" ">
<polygon fill="white" stroke="#666666" points="1440.5,-206 1322.5,-206 1322.5,-176 1440.5,-176 1440.5,-206"/>
<text text-anchor="start" x="1330.5" y="-194" font-family="Helvetica,sans-Serif" font-size="10.00">unilink/memory/safe</text>
<text text-anchor="middle" x="1381.5" y="-183" font-family="Helvetica,sans-Serif" font-size="10.00">_span.hpp</text>
</a>
</g>
</g>
<!-- Node13&#45;&gt;Node31 -->
<g id="edge54_Node000013_Node000031" class="edge">
<title>Node13&#45;&gt;Node31</title>
<g id="a_edge54_Node000013_Node000031"><a xlink:title=" ">
<path fill="none" stroke="#63b8ff" d="M884.02,-247.47C996.38,-234.94 1204.34,-211.75 1312.35,-199.71"/>
<polygon fill="#63b8ff" stroke="#63b8ff" points="1312.93,-203.17 1322.48,-198.58 1312.15,-196.21 1312.93,-203.17"/>
</a>
</g>
</g>
<!-- Node15&#45;&gt;Node3 -->
<g id="edge24_Node000015_Node000003" class="edge">
<title>Node15&#45;&gt;Node3</title>
<g id="a_edge24_Node000015_Node000003"><a xlink:title=" ">
<path fill="none" stroke="#63b8ff" d="M1006.68,-181.48C1018.04,-179.54 1030.19,-177.58 1041.5,-176 1191.12,-155.12 1237.7,-192.12 1379.5,-140 1401.72,-131.83 1402.92,-121.68 1423.5,-110 1444.72,-97.95 1469.77,-86.43 1488.96,-78.12"/>
<polygon fill="#63b8ff" stroke="#63b8ff" points="1490.58,-81.24 1498.41,-74.09 1487.84,-74.8 1490.58,-81.24"/>
</a>
</g>
</g>
<!-- Node15&#45;&gt;Node6 -->
<g id="edge32_Node000015_Node000006" class="edge">
<title>Node15&#45;&gt;Node6</title>
<g id="a_edge32_Node000015_Node000006"><a xlink:title=" ">
<path fill="none" stroke="#63b8ff" d="M889.28,-181.48C837.56,-173.98 766.44,-160.92 706.5,-140 679.1,-130.44 674.87,-122.12 648.5,-110 609.73,-92.18 595.95,-96.19 559.5,-74 537.5,-60.61 515.51,-40.71 501.29,-26.76"/>
<polygon fill="#63b8ff" stroke="#63b8ff" points="503.42,-23.94 493.88,-19.33 498.47,-28.88 503.42,-23.94"/>
</a>
</g>
</g>
<!-- Node15&#45;&gt;Node9 -->
<g id="edge21_Node000015_Node000009" class="edge">
<title>Node15&#45;&gt;Node9</title>
<g id="a_edge21_Node000015_Node000009"><a xlink:title=" ">
<path fill="none" stroke="#63b8ff" d="M888.7,-182.08C825.99,-174.28 732.84,-160.52 653.5,-140 651,-139.35 648.44,-138.61 645.87,-137.82"/>
<polygon fill="#63b8ff" stroke="#63b8ff" points="646.74,-134.42 636.14,-134.56 644.52,-141.06 646.74,-134.42"/>
</a>
</g>
</g>
<!-- Node15&#45;&gt;Node10 -->
<g id="edge29_Node000015_Node000010" class="edge">
<title>Node15&#45;&gt;Node10</title>
<g id="a_edge29_Node000015_Node000010"><a xlink:title=" ">
<path fill="none" stroke="#63b8ff" d="M890.53,-181.47C840.14,-173.72 778.35,-160.35 762.5,-140 754.31,-129.48 759.73,-123.04 762.5,-110 766.13,-92.87 774.87,-91.13 778.5,-74 780.25,-65.74 779.25,-63.41 778.5,-55 777.74,-46.5 776.18,-37.19 774.64,-29.29"/>
<polygon fill="#63b8ff" stroke="#63b8ff" points="778.03,-28.38 772.56,-19.3 771.18,-29.81 778.03,-28.38"/>
</a>
</g>
</g>
<!-- Node16 -->
<g id="Node000016" class="node">
<title>Node16</title>
<g id="a_Node000016"><a xlink:title=" ">
<polygon fill="#e0e0e0" stroke="#999999" points="1080.5,-19 1030.5,-19 1030.5,0 1080.5,0 1080.5,-19"/>
<text text-anchor="middle" x="1055.5" y="-7" font-family="Helvetica,sans-Serif" font-size="10.00">chrono</text>
</a>
</g>
</g>
<!-- Node15&#45;&gt;Node16 -->
<g id="edge20_Node000015_Node000016" class="edge">
<title>Node15&#45;&gt;Node16</title>
<g id="a_edge20_Node000015_Node000016"><a xlink:title=" ">
<path fill="none" stroke="#63b8ff" d="M1007.55,-181.43C1018.66,-179.53 1030.48,-177.6 1041.5,-176 1109.04,-166.18 1301.16,-191.01 1346.5,-140 1422.82,-54.14 1183.64,-22.35 1090.76,-13.42"/>
<polygon fill="#63b8ff" stroke="#63b8ff" points="1090.98,-9.92 1080.7,-12.48 1090.33,-16.89 1090.98,-9.92"/>
</a>
</g>
</g>
<!-- Node17 -->
<g id="Node000017" class="node">
<title>Node17</title>
<g id="a_Node000017"><a xlink:title=" ">
<polygon fill="#e0e0e0" stroke="#999999" points="985.5,-134.5 935.5,-134.5 935.5,-115.5 985.5,-115.5 985.5,-134.5"/>
<text text-anchor="middle" x="960.5" y="-122.5" font-family="Helvetica,sans-Serif" font-size="10.00">cstring</text>
</a>
</g>
</g>
<!-- Node15&#45;&gt;Node17 -->
<g id="edge22_Node000015_Node000017" class="edge">
<title>Node15&#45;&gt;Node17</title>
<g id="a_edge22_Node000015_Node000017"><a xlink:title=" ">
<path fill="none" stroke="#63b8ff" d="M960.5,-181.37C960.5,-172.16 960.5,-157.29 960.5,-145.27"/>
<polygon fill="#63b8ff" stroke="#63b8ff" points="964,-144.91 960.5,-134.91 957,-144.91 964,-144.91"/>
</a>
</g>
</g>
<!-- Node18 -->
<g id="Node000018" class="node">
<title>Node18</title>
<g id="a_Node000018"><a xlink:title=" ">
<polygon fill="#e0e0e0" stroke="#999999" points="1047.5,-134.5 1003.5,-134.5 1003.5,-115.5 1047.5,-115.5 1047.5,-134.5"/>
<text text-anchor="middle" x="1025.5" y="-122.5" font-family="Helvetica,sans-Serif" font-size="10.00">ctime</text>
</a>
</g>
</g>
<!-- Node15&#45;&gt;Node18 -->
<g id="edge23_Node000015_Node000018" class="edge">
<title>Node15&#45;&gt;Node18</title>
<g id="a_edge23_Node000015_Node000018"><a xlink:title=" ">
<path fill="none" stroke="#63b8ff" d="M969.27,-181.37C979.48,-171.31 996.58,-154.48 1009.24,-142.01"/>
<polygon fill="#63b8ff" stroke="#63b8ff" points="1011.79,-144.42 1016.46,-134.91 1006.87,-139.43 1011.79,-144.42"/>
</a>
</g>
</g>
<!-- Node19 -->
<g id="Node000019" class="node">
<title>Node19</title>
<g id="a_Node000019"><a xlink:title=" ">
<polygon fill="#e0e0e0" stroke="#999999" points="1121.5,-134.5 1065.5,-134.5 1065.5,-115.5 1121.5,-115.5 1121.5,-134.5"/>
<text text-anchor="middle" x="1093.5" y="-122.5" font-family="Helvetica,sans-Serif" font-size="10.00">iomanip</text>
</a>
</g>
</g>
<!-- Node15&#45;&gt;Node19 -->
<g id="edge25_Node000015_Node000019" class="edge">
<title>Node15&#45;&gt;Node19</title>
<g id="a_edge25_Node000015_Node000019"><a xlink:title=" ">
<path fill="none" stroke="#63b8ff" d="M978.44,-181.37C1001.04,-170.49 1040.12,-151.69 1066.38,-139.05"/>
<polygon fill="#63b8ff" stroke="#63b8ff" points="1067.93,-142.19 1075.42,-134.7 1064.89,-135.88 1067.93,-142.19"/>
</a>
</g>
</g>
<!-- Node20 -->
<g id="Node000020" class="node">
<title>Node20</title>
<g id="a_Node000020"><a xlink:title=" ">
<polygon fill="#e0e0e0" stroke="#999999" points="1199.5,-134.5 1139.5,-134.5 1139.5,-115.5 1199.5,-115.5 1199.5,-134.5"/>
<text text-anchor="middle" x="1169.5" y="-122.5" font-family="Helvetica,sans-Serif" font-size="10.00">iostream</text>
</a>
</g>
</g>
<!-- Node15&#45;&gt;Node20 -->
<g id="edge26_Node000015_Node000020" class="edge">
<title>Node15&#45;&gt;Node20</title>
<g id="a_edge26_Node000015_Node000020"><a xlink:title=" ">
<path fill="none" stroke="#63b8ff" d="M991.69,-181.42C1025.91,-171.87 1082.39,-155.7 1130.5,-140 1132.61,-139.31 1134.78,-138.58 1136.96,-137.84"/>
<polygon fill="#63b8ff" stroke="#63b8ff" points="1138.19,-141.12 1146.48,-134.52 1135.89,-134.51 1138.19,-141.12"/>
</a>
</g>
</g>
<!-- Node21 -->
<g id="Node000021" class="node">
<title>Node21</title>
<g id="a_Node000021"><a xlink:title=" ">
<polygon fill="#e0e0e0" stroke="#999999" points="1273.5,-134.5 1217.5,-134.5 1217.5,-115.5 1273.5,-115.5 1273.5,-134.5"/>
<text text-anchor="middle" x="1245.5" y="-122.5" font-family="Helvetica,sans-Serif" font-size="10.00">sstream</text>
</a>
</g>
</g>
<!-- Node15&#45;&gt;Node21 -->
<g id="edge27_Node000015_Node000021" class="edge">
<title>Node15&#45;&gt;Node21</title>
<g id="a_edge27_Node000015_Node000021"><a xlink:title=" ">
<path fill="none" stroke="#63b8ff" d="M1007.4,-181.49C1068.36,-170.26 1171.41,-150.68 1208.5,-140 1210.64,-139.38 1212.84,-138.7 1215.04,-137.97"/>
<polygon fill="#63b8ff" stroke="#63b8ff" points="1216.31,-141.23 1224.57,-134.6 1213.97,-134.63 1216.31,-141.23"/>
</a>
</g>
</g>
<!-- Node22 -->
<g id="Node000022" class="node">
<title>Node22</title>
<g id="a_Node000022"><a xlink:title=" ">
<polygon fill="#e0e0e0" stroke="#999999" points="1497,-134.5 1432,-134.5 1432,-115.5 1497,-115.5 1497,-134.5"/>
<text text-anchor="middle" x="1464.5" y="-122.5" font-family="Helvetica,sans-Serif" font-size="10.00">stdexcept</text>
</a>
</g>
</g>
<!-- Node15&#45;&gt;Node22 -->
<g id="edge28_Node000015_Node000022" class="edge">
<title>Node15&#45;&gt;Node22</title>
<g id="a_edge28_Node000015_Node000022"><a xlink:title=" ">
<path fill="none" stroke="#63b8ff" d="M1006.24,-181.47C1017.73,-179.5 1030.04,-177.54 1041.5,-176 1207.89,-153.69 1252.72,-172.11 1417.5,-140 1421.23,-139.27 1425.09,-138.37 1428.91,-137.39"/>
<polygon fill="#63b8ff" stroke="#63b8ff" points="1430.17,-140.67 1438.87,-134.61 1428.29,-133.93 1430.17,-140.67"/>
</a>
</g>
</g>
<!-- Node23 -->
<g id="Node000023" class="node">
<title>Node23</title>
<g id="a_Node000023"><a xlink:title=" ">
<polygon fill="#e0e0e0" stroke="#999999" points="1127,-74 1054,-74 1054,-55 1127,-55 1127,-74"/>
<text text-anchor="middle" x="1090.5" y="-62" font-family="Helvetica,sans-Serif" font-size="10.00">string_view</text>
</a>
</g>
</g>
<!-- Node15&#45;&gt;Node23 -->
<g id="edge30_Node000015_Node000023" class="edge">
<title>Node15&#45;&gt;Node23</title>
<g id="a_edge30_Node000015_Node000023"><a xlink:title=" ">
<path fill="none" stroke="#63b8ff" d="M951.41,-181.33C936.25,-165.81 909.08,-132.78 926.5,-110 933.79,-100.47 998.05,-85.08 1043.93,-75.13"/>
<polygon fill="#63b8ff" stroke="#63b8ff" points="1044.95,-78.49 1053.99,-72.97 1043.48,-71.64 1044.95,-78.49"/>
</a>
</g>
</g>
<!-- Node24 -->
<g id="Node000024" class="node">
<title>Node24</title>
<g id="a_Node000024"><a xlink:title=" ">
<polygon fill="#e0e0e0" stroke="#999999" points="1337,-134.5 1292,-134.5 1292,-115.5 1337,-115.5 1337,-134.5"/>
<text text-anchor="middle" x="1314.5" y="-122.5" font-family="Helvetica,sans-Serif" font-size="10.00">utility</text>
</a>
</g>
</g>
<!-- Node15&#45;&gt;Node24 -->
<g id="edge31_Node000015_Node000024" class="edge">
<title>Node15&#45;&gt;Node24</title>
<g id="a_edge31_Node000015_Node000024"><a xlink:title=" ">
<path fill="none" stroke="#63b8ff" d="M1008.87,-181.45C1019.61,-179.61 1030.93,-177.7 1041.5,-176 1148.42,-158.78 1178.43,-169.97 1282.5,-140 1284.18,-139.52 1285.89,-138.96 1287.6,-138.36"/>
<polygon fill="#63b8ff" stroke="#63b8ff" points="1289.2,-141.5 1297.2,-134.56 1286.62,-134.99 1289.2,-141.5"/>
</a>
</g>
</g>
<!-- Node25 -->
<g id="Node000025" class="node">
<title>Node25</title>
<g id="a_Node000025"><a xlink:href="platform_8hpp.html" target="_top" xlink:title=" ">
<polygon fill="white" stroke="#666666" points="769.5,-74 627.5,-74 627.5,-55 769.5,-55 769.5,-74"/>
<text text-anchor="middle" x="698.5" y="-62" font-family="Helvetica,sans-Serif" font-size="10.00">unilink/base/platform.hpp</text>
</a>
</g>
</g>
<!-- Node15&#45;&gt;Node25 -->
<g id="edge33_Node000015_Node000025" class="edge">
<title>Node15&#45;&gt;Node25</title>
<g id="a_edge33_Node000015_Node000025"><a xlink:title=" ">
<path fill="none" stroke="#63b8ff" d="M888.96,-181.83C830.4,-173.85 753.46,-159.97 729.5,-140 712.64,-125.95 704.81,-101.19 701.26,-84.09"/>
<polygon fill="#63b8ff" stroke="#63b8ff" points="704.69,-83.39 699.51,-74.16 697.8,-84.61 704.69,-83.39"/>
</a>
</g>
</g>
<!-- Node26 -->
<g id="Node000026" class="node">
<title>Node26</title>
<g id="a_Node000026"><a xlink:href="logger_8hpp.html" target="_top" xlink:title=" ">
<polygon fill="white" stroke="#666666" points="879.5,-140 771.5,-140 771.5,-110 879.5,-110 879.5,-140"/>
<text text-anchor="start" x="779.5" y="-128" font-family="Helvetica,sans-Serif" font-size="10.00">unilink/diagnostics</text>
<text text-anchor="middle" x="825.5" y="-117" font-family="Helvetica,sans-Serif" font-size="10.00">/logger.hpp</text>
</a>
</g>
</g>
<!-- Node15&#45;&gt;Node26 -->
<g id="edge36_Node000015_Node000026" class="edge">
<title>Node15&#45;&gt;Node26</title>
<g id="a_edge36_Node000015_Node000026"><a xlink:title=" ">
<path fill="none" stroke="#63b8ff" d="M942.29,-181.37C922.42,-171.95 890.02,-156.59 864.38,-144.43"/>
<polygon fill="#63b8ff" stroke="#63b8ff" points="865.81,-141.24 855.28,-140.12 862.81,-147.56 865.81,-141.24"/>
</a>
</g>
</g>
<!-- Node25&#45;&gt;Node7 -->
<g id="edge35_Node000025_Node000007" class="edge">
<title>Node25&#45;&gt;Node7</title>
<g id="a_edge35_Node000025_Node000007"><a xlink:title=" ">
<path fill="none" stroke="#63b8ff" d="M682.59,-54.98C666.95,-46.61 642.84,-33.7 624.62,-23.95"/>
<polygon fill="#63b8ff" stroke="#63b8ff" points="626.16,-20.8 615.7,-19.17 622.86,-26.98 626.16,-20.8"/>
</a>
</g>
</g>
<!-- Node25&#45;&gt;Node10 -->
<g id="edge34_Node000025_Node000010" class="edge">
<title>Node25&#45;&gt;Node10</title>
<g id="a_edge34_Node000025_Node000010"><a xlink:title=" ">
<path fill="none" stroke="#63b8ff" d="M710.07,-54.98C720.92,-47 737.38,-34.88 750.38,-25.31"/>
<polygon fill="#63b8ff" stroke="#63b8ff" points="752.74,-27.92 758.72,-19.17 748.59,-22.28 752.74,-27.92"/>
</a>
</g>
</g>
<!-- Node26&#45;&gt;Node3 -->
<g id="edge39_Node000026_Node000003" class="edge">
<title>Node26&#45;&gt;Node3</title>
<g id="a_edge39_Node000026_Node000003"><a xlink:title=" ">
<path fill="none" stroke="#63b8ff" d="M879.67,-115.85C894.81,-113.75 911.27,-111.62 926.5,-110 1132.27,-88.04 1379.36,-73.19 1476.91,-67.77"/>
<polygon fill="#63b8ff" stroke="#63b8ff" points="1477.18,-71.27 1486.97,-67.22 1476.8,-64.28 1477.18,-71.27"/>
</a>
</g>
</g>
<!-- Node26&#45;&gt;Node4 -->
<g id="edge40_Node000026_Node000004" class="edge">
<title>Node26&#45;&gt;Node4</title>
<g id="a_edge40_Node000026_Node000004"><a xlink:title=" ">
<path fill="none" stroke="#63b8ff" d="M771.13,-115.99C689.97,-104.03 539.05,-81.79 467.75,-71.28"/>
<polygon fill="#63b8ff" stroke="#63b8ff" points="468.23,-67.82 457.82,-69.82 467.2,-74.74 468.23,-67.82"/>
</a>
</g>
</g>
<!-- Node26&#45;&gt;Node6 -->
<g id="edge43_Node000026_Node000006" class="edge">
<title>Node26&#45;&gt;Node6</title>
<g id="a_edge43_Node000026_Node000006"><a xlink:title=" ">
<path fill="none" stroke="#63b8ff" d="M771.39,-116.05C725.69,-108.34 659.01,-94.74 603.5,-74 568.26,-60.83 530.45,-38.96 507.39,-24.64"/>
<polygon fill="#63b8ff" stroke="#63b8ff" points="509.06,-21.56 498.74,-19.19 505.33,-27.48 509.06,-21.56"/>
</a>
</g>
</g>
<!-- Node26&#45;&gt;Node7 -->
<g id="edge52_Node000026_Node000007" class="edge">
<title>Node26&#45;&gt;Node7</title>
<g id="a_edge52_Node000026_Node000007"><a xlink:title=" ">
<path fill="none" stroke="#63b8ff" d="M771.06,-117.06C717.36,-109.15 640.24,-94.6 618.5,-74 606.37,-62.51 601.89,-43.63 600.28,-29.43"/>
<polygon fill="#63b8ff" stroke="#63b8ff" points="603.76,-29 599.52,-19.29 596.78,-29.52 603.76,-29"/>
</a>
</g>
</g>
<!-- Node26&#45;&gt;Node10 -->
<g id="edge41_Node000026_Node000010" class="edge">
<title>Node26&#45;&gt;Node10</title>
<g id="a_edge41_Node000026_Node000010"><a xlink:title=" ">
<path fill="none" stroke="#63b8ff" d="M824.85,-109.79C823.68,-95.3 820.45,-72.52 811.5,-55 805.92,-44.08 796.91,-33.87 788.75,-25.99"/>
<polygon fill="#63b8ff" stroke="#63b8ff" points="791.07,-23.37 781.33,-19.2 786.35,-28.54 791.07,-23.37"/>
</a>
</g>
</g>
<!-- Node26&#45;&gt;Node16 -->
<g id="edge38_Node000026_Node000016" class="edge">
<title>Node26&#45;&gt;Node16</title>
<g id="a_edge38_Node000026_Node000016"><a xlink:title=" ">
<path fill="none" stroke="#63b8ff" d="M879.8,-113.94C912.79,-106.27 954.88,-93.61 988.5,-74 1009.59,-61.69 1029.31,-41.54 1041.82,-27.24"/>
<polygon fill="#63b8ff" stroke="#63b8ff" points="1044.83,-29.11 1048.63,-19.22 1039.49,-24.58 1044.83,-29.11"/>
</a>
</g>
</g>
<!-- Node26&#45;&gt;Node23 -->
<g id="edge42_Node000026_Node000023" class="edge">
<title>Node26&#45;&gt;Node23</title>
<g id="a_edge42_Node000026_Node000023"><a xlink:title=" ">
<path fill="none" stroke="#63b8ff" d="M879.77,-112.02C928.05,-101.36 997.94,-85.93 1043.78,-75.81"/>
<polygon fill="#63b8ff" stroke="#63b8ff" points="1044.74,-79.19 1053.75,-73.61 1043.23,-72.35 1044.74,-79.19"/>
</a>
</g>
</g>
<!-- Node27 -->
<g id="Node000027" class="node">
<title>Node27</title>
<g id="a_Node000027"><a xlink:title=" ">
<polygon fill="#e0e0e0" stroke="#999999" points="1012.5,-19 962.5,-19 962.5,0 1012.5,0 1012.5,-19"/>
<text text-anchor="middle" x="987.5" y="-7" font-family="Helvetica,sans-Serif" font-size="10.00">atomic</text>
</a>
</g>
</g>
<!-- Node26&#45;&gt;Node27 -->
<g id="edge37_Node000026_Node000027" class="edge">
<title>Node26&#45;&gt;Node27</title>
<g id="a_edge37_Node000026_Node000027"><a xlink:title=" ">
<path fill="none" stroke="#63b8ff" d="M879.56,-117.26C909.49,-110.84 945.24,-98.34 968.5,-74 980.04,-61.92 984.6,-43.12 986.39,-29.1"/>
<polygon fill="#63b8ff" stroke="#63b8ff" points="989.88,-29.39 987.31,-19.11 982.91,-28.75 989.88,-29.39"/>
</a>
</g>
</g>
<!-- Node28 -->
<g id="Node000028" class="node">
<title>Node28</title>
<g id="a_Node000028"><a xlink:href="log__rotation_8hpp.html" target="_top" xlink:title=" ">
<polygon fill="white" stroke="#666666" points="959.5,-74 863.5,-74 863.5,-55 959.5,-55 959.5,-74"/>
<text text-anchor="middle" x="911.5" y="-62" font-family="Helvetica,sans-Serif" font-size="10.00">log_rotation.hpp</text>
</a>
</g>
</g>
<!-- Node26&#45;&gt;Node28 -->
<g id="edge44_Node000026_Node000028" class="edge">
<title>Node26&#45;&gt;Node28</title>
<g id="a_edge44_Node000026_Node000028"><a xlink:title=" ">
<path fill="none" stroke="#63b8ff" d="M846.32,-109.84C859.65,-100.77 876.89,-89.04 890.29,-79.92"/>
<polygon fill="#63b8ff" stroke="#63b8ff" points="892.57,-82.61 898.87,-74.09 888.63,-76.83 892.57,-82.61"/>
</a>
</g>
</g>
<!-- Node28&#45;&gt;Node6 -->
<g id="edge50_Node000028_Node000006" class="edge">
<title>Node28&#45;&gt;Node6</title>
<g id="a_edge50_Node000028_Node000006"><a xlink:title=" ">
<path fill="none" stroke="#63b8ff" d="M863.37,-59.97C789.3,-54.1 643.09,-40.77 520.5,-19 520.04,-18.92 519.57,-18.83 519.11,-18.75"/>
<polygon fill="#63b8ff" stroke="#63b8ff" points="519.64,-15.28 509.14,-16.66 518.21,-22.14 519.64,-15.28"/>
</a>
</g>
</g>
<!-- Node28&#45;&gt;Node7 -->
<g id="edge51_Node000028_Node000007" class="edge">
<title>Node28&#45;&gt;Node7</title>
<g id="a_edge51_Node000028_Node000007"><a xlink:title=" ">
<path fill="none" stroke="#63b8ff" d="M863.43,-55.33C808.66,-46.03 719.05,-30.81 659.68,-20.72"/>
<polygon fill="#63b8ff" stroke="#63b8ff" points="660.13,-17.25 649.69,-19.03 658.96,-24.15 660.13,-17.25"/>
</a>
</g>
</g>
<!-- Node28&#45;&gt;Node10 -->
<g id="edge49_Node000028_Node000010" class="edge">
<title>Node28&#45;&gt;Node10</title>
<g id="a_edge49_Node000028_Node000010"><a xlink:title=" ">
<path fill="none" stroke="#63b8ff" d="M888.85,-54.98C865.38,-46.16 828.51,-32.31 802.17,-22.4"/>
<polygon fill="#63b8ff" stroke="#63b8ff" points="803.23,-19.06 792.63,-18.82 800.76,-25.61 803.23,-19.06"/>
</a>
</g>
</g>
<!-- Node28&#45;&gt;Node16 -->
<g id="edge46_Node000028_Node000016" class="edge">
<title>Node28&#45;&gt;Node16</title>
<g id="a_edge46_Node000028_Node000016"><a xlink:title=" ">
<path fill="none" stroke="#63b8ff" d="M934.64,-54.98C958.32,-46.27 995.37,-32.63 1022.21,-22.75"/>
<polygon fill="#63b8ff" stroke="#63b8ff" points="1023.77,-25.91 1031.94,-19.17 1021.35,-19.34 1023.77,-25.91"/>
</a>
</g>
</g>
<!-- Node28&#45;&gt;Node27 -->
<g id="edge45_Node000028_Node000027" class="edge">
<title>Node28&#45;&gt;Node27</title>
<g id="a_edge45_Node000028_Node000027"><a xlink:title=" ">
<path fill="none" stroke="#63b8ff" d="M923.71,-54.98C935.28,-46.92 952.88,-34.65 966.66,-25.03"/>
<polygon fill="#63b8ff" stroke="#63b8ff" points="968.87,-27.76 975.07,-19.17 964.86,-22.02 968.87,-27.76"/>
</a>
</g>
</g>
<!-- Node29 -->
<g id="Node000029" class="node">
<title>Node29</title>
<g id="a_Node000029"><a xlink:title=" ">
<polygon fill="#e0e0e0" stroke="#999999" points="944.5,-19 876.5,-19 876.5,0 944.5,0 944.5,-19"/>
<text text-anchor="middle" x="910.5" y="-7" font-family="Helvetica,sans-Serif" font-size="10.00">filesystem</text>
</a>
</g>
</g>
<!-- Node28&#45;&gt;Node29 -->
<g id="edge47_Node000028_Node000029" class="edge">
<title>Node28&#45;&gt;Node29</title>
<g id="a_edge47_Node000028_Node000029"><a xlink:title=" ">
<path fill="none" stroke="#63b8ff" d="M911.33,-54.75C911.2,-47.8 911.02,-37.85 910.85,-29.13"/>
<polygon fill="#63b8ff" stroke="#63b8ff" points="914.35,-29.02 910.66,-19.09 907.35,-29.15 914.35,-29.02"/>
</a>
</g>
</g>
<!-- Node30 -->
<g id="Node000030" class="node">
<title>Node30</title>
<g id="a_Node000030"><a xlink:title=" ">
<polygon fill="#e0e0e0" stroke="#999999" points="858.5,-19 810.5,-19 810.5,0 858.5,0 858.5,-19"/>
<text text-anchor="middle" x="834.5" y="-7" font-family="Helvetica,sans-Serif" font-size="10.00">mutex</text>
</a>
</g>
</g>
<!-- Node28&#45;&gt;Node30 -->
<g id="edge48_Node000028_Node000030" class="edge">
<title>Node28&#45;&gt;Node30</title>
<g id="a_edge48_Node000028_Node000030"><a xlink:title=" ">
<path fill="none" stroke="#63b8ff" d="M899.13,-54.98C887.41,-46.92 869.58,-34.65 855.61,-25.03"/>
<polygon fill="#63b8ff" stroke="#63b8ff" points="857.32,-21.96 847.1,-19.17 853.35,-27.72 857.32,-21.96"/>
</a>
</g>
</g>
<!-- Node31&#45;&gt;Node9 -->
<g id="edge55_Node000031_Node000009" class="edge">
<title>Node31&#45;&gt;Node9</title>
<g id="a_edge55_Node000031_Node000009"><a xlink:title=" ">
<path fill="none" stroke="#63b8ff" d="M1322.33,-184.34C1294.21,-181.71 1260.13,-178.59 1229.5,-176 1022.07,-158.45 969.91,-157.8 762.5,-140 723.86,-136.68 679.58,-132.44 649.6,-129.49"/>
<polygon fill="#63b8ff" stroke="#63b8ff" points="649.92,-126.01 639.63,-128.51 649.24,-132.97 649.92,-126.01"/>
</a>
</g>
</g>
<!-- Node31&#45;&gt;Node22 -->
<g id="edge56_Node000031_Node000022" class="edge">
<title>Node31&#45;&gt;Node22</title>
<g id="a_edge56_Node000031_Node000022"><a xlink:title=" ">
<path fill="none" stroke="#63b8ff" d="M1399.92,-175.8C1413.24,-165.53 1431.21,-151.67 1444.81,-141.18"/>
<polygon fill="#63b8ff" stroke="#63b8ff" points="1447.25,-143.72 1453.03,-134.84 1442.97,-138.18 1447.25,-143.72"/>
</a>
</g>
</g>
<!-- Node32 -->
<g id="Node000032" class="node">
<title>Node32</title>
<g id="a_Node000032"><a xlink:title=" ">
<polygon fill="#e0e0e0" stroke="#999999" points="1584,-134.5 1515,-134.5 1515,-115.5 1584,-115.5 1584,-134.5"/>
<text text-anchor="middle" x="1549.5" y="-122.5" font-family="Helvetica,sans-Serif" font-size="10.00">type_traits</text>
</a>
</g>
</g>
<!-- Node31&#45;&gt;Node32 -->
<g id="edge57_Node000031_Node000032" class="edge">
<title>Node31&#45;&gt;Node32</title>
<g id="a_edge57_Node000031_Node000032"><a xlink:title=" ">
<path fill="none" stroke="#63b8ff" d="M1418.37,-175.95C1448.09,-164.63 1489.45,-148.88 1517.73,-138.1"/>
<polygon fill="#63b8ff" stroke="#63b8ff" points="1519.04,-141.35 1527.14,-134.52 1516.55,-134.81 1519.04,-141.35"/>
</a>
</g>
</g>
</g>
</svg>
