<?xml version="1.0" encoding="UTF-8" standalone="no"?>
<!DOCTYPE svg PUBLIC "-//W3C//DTD SVG 1.1//EN"
 "http://www.w3.org/Graphics/SVG/1.1/DTD/svg11.dtd">
<!-- Generated by graphviz version 2.43.0 (0)
 -->
<!-- Title: unilink/transport/udp/udp.hpp Pages: 1 -->
<!--zoomable 280 -->

<svg id="main" version="1.1" xmlns="http://www.w3.org/2000/svg" xmlns:xlink="http://www.w3.org/1999/xlink" xml:space="preserve" onload="init(evt)">
<style type="text/css"><![CDATA[
.node, .edge {opacity: 0.7;}
.node.selected, .edge.selected {opacity: 1;}
.edge:hover path { stroke: red; }
.edge:hover polygon { stroke: red; fill: red; }
]]></style>

<defs>
  <circle id="rim" cx="0" cy="0" r="7"/>
  <circle id="rim2" cx="0" cy="0" r="3.5"/>
  <g id="zoomPlus">
    <use xlink:href="#rim" fill="#404040"><set attributeName="fill" to="#808080" begin="zoomplus.mouseover" end="zoomplus.mouseout"/></use>
    <path d="M-4,0h8M0,-4v8" fill="none" stroke="white" stroke-width="1.5" pointer-events="none"/>
  </g>
  <g id="zoomMin">
    <use xlink:href="#rim" fill="#404040"><set attributeName="fill" to="#808080" begin="zoomminus.mouseover" end="zoomminus.mouseout"/></use>
    <path d="M-4,0h8" fill="none" stroke="white" stroke-width="1.5" pointer-events="none"/>
  </g>
  <g id="arrowUp" transform="translate(30 24)">
    <use xlink:href="#rim"/>
    <path pointer-events="none" fill="none" stroke="white" stroke-width="1.5" d="M0,-3.0v7 M-2.5,-0.5L0,-3.0L2.5,-0.5"/>
  </g>
  <g id="arrowRight" transform="rotate(90) translate(36 -43)">
    <use xlink:href="#rim"/>
    <path pointer-events="none" fill="none" stroke="white" stroke-width="1.5" d="M0,-3.0v7 M-2.5,-0.5L0,-3.0L2.5,-0.5"/>
  </g>
  <g id="arrowDown" transform="rotate(180) translate(-30 -48)">
    <use xlink:href="#rim"/>
    <path pointer-events="none" fill="none" stroke="white" stroke-width="1.5" d="M0,-3.0v7 M-2.5,-0.5L0,-3.0L2.5,-0.5"/>
  </g>
  <g id="arrowLeft" transform="rotate(270) translate(-36 17)">
    <use xlink:href="#rim"/>
    <path pointer-events="none" fill="none" stroke="white" stroke-width="1.5" d="M0,-3.0v7 M-2.5,-0.5L0,-3.0L2.5,-0.5"/>
  </g>
  <g id="resetDef">
    <use xlink:href="#rim2" fill="#404040"><set attributeName="fill" to="#808080" begin="reset.mouseover" end="reset.mouseout"/></use>
  </g>
</defs>
<script type="application/ecmascript">
var viewWidth = 1783;
var viewHeight = 280;
var sectionId = 'dynsection-0';
</script>
<script type="application/ecmascript" xlink:href="svg.min.js"/>
<svg id="graph" class="graph">
<g id="viewport">
<title>unilink/transport/udp/udp.hpp</title>
<!-- Node1 -->
<g id="Node000001" class="node">
<title>Node1</title>
<g id="a_Node000001"><a xlink:title=" ">
<polygon fill="#999999" stroke="#666666" points="536.5,-272 418.5,-272 418.5,-242 536.5,-242 536.5,-272"/>
<text text-anchor="start" x="426.5" y="-260" font-family="Helvetica,sans-Serif" font-size="10.00">unilink/transport/udp</text>
<text text-anchor="middle" x="477.5" y="-249" font-family="Helvetica,sans-Serif" font-size="10.00">/udp.hpp</text>
</a>
</g>
</g>
<!-- Node2 -->
<g id="Node000002" class="node">
<title>Node2</title>
<g id="a_Node000002"><a xlink:title=" ">
<polygon fill="#e0e0e0" stroke="#999999" points="121,-206 0,-206 0,-187 121,-187 121,-206"/>
<text text-anchor="middle" x="60.5" y="-194" font-family="Helvetica,sans-Serif" font-size="10.00">boost/asio/ip/udp.hpp</text>
</a>
</g>
</g>
<!-- Node1&#45;&gt;Node2 -->
<g id="edge1_Node000001_Node000002" class="edge">
<title>Node1&#45;&gt;Node2</title>
<g id="a_edge1_Node000001_Node000002"><a xlink:title=" ">
<path fill="none" stroke="#63b8ff" d="M418.2,-247.68C342.62,-237.08 212.11,-218.77 131.37,-207.44"/>
<polygon fill="#63b8ff" stroke="#63b8ff" points="131.68,-203.95 121.29,-206.03 130.71,-210.88 131.68,-203.95"/>
</a>
</g>
</g>
<!-- Node3 -->
<g id="Node000003" class="node">
<title>Node3</title>
<g id="a_Node000003"><a xlink:title=" ">
<polygon fill="#e0e0e0" stroke="#999999" points="633,-19 568,-19 568,0 633,0 633,-19"/>
<text text-anchor="middle" x="600.5" y="-7" font-family="Helvetica,sans-Serif" font-size="10.00">functional</text>
</a>
</g>
</g>
<!-- Node1&#45;&gt;Node3 -->
<g id="edge2_Node000001_Node000003" class="edge">
<title>Node1&#45;&gt;Node3</title>
<g id="a_edge2_Node000001_Node000003"><a xlink:title=" ">
<path fill="none" stroke="#63b8ff" d="M484.64,-241.74C505.81,-199.5 568.15,-75.07 591.52,-28.43"/>
<polygon fill="#63b8ff" stroke="#63b8ff" points="594.77,-29.76 596.12,-19.25 588.51,-26.62 594.77,-29.76"/>
</a>
</g>
</g>
<!-- Node4 -->
<g id="Node000004" class="node">
<title>Node4</title>
<g id="a_Node000004"><a xlink:title=" ">
<polygon fill="#e0e0e0" stroke="#999999" points="216.5,-19 158.5,-19 158.5,0 216.5,0 216.5,-19"/>
<text text-anchor="middle" x="187.5" y="-7" font-family="Helvetica,sans-Serif" font-size="10.00">memory</text>
</a>
</g>
</g>
<!-- Node1&#45;&gt;Node4 -->
<g id="edge3_Node000001_Node000004" class="edge">
<title>Node1&#45;&gt;Node4</title>
<g id="a_edge3_Node000001_Node000004"><a xlink:title=" ">
<path fill="none" stroke="#63b8ff" d="M424.49,-241.96C356.21,-220.72 240.26,-173.19 189.5,-85 179.74,-68.04 180.81,-45.1 183.33,-29.18"/>
<polygon fill="#63b8ff" stroke="#63b8ff" points="186.83,-29.49 185.28,-19.01 179.96,-28.18 186.83,-29.49"/>
</a>
</g>
</g>
<!-- Node5 -->
<g id="Node000005" class="node">
<title>Node5</title>
<g id="a_Node000005"><a xlink:title=" ">
<polygon fill="#e0e0e0" stroke="#999999" points="271.5,-79.5 215.5,-79.5 215.5,-60.5 271.5,-60.5 271.5,-79.5"/>
<text text-anchor="middle" x="243.5" y="-67.5" font-family="Helvetica,sans-Serif" font-size="10.00">optional</text>
</a>
</g>
</g>
<!-- Node1&#45;&gt;Node5 -->
<g id="edge4_Node000001_Node000005" class="edge">
<title>Node1&#45;&gt;Node5</title>
<g id="a_edge4_Node000001_Node000005"><a xlink:title=" ">
<path fill="none" stroke="#63b8ff" d="M458.72,-241.94C432.18,-221.99 382.25,-184.2 340.5,-151 312.52,-128.75 280.64,-102.23 261.3,-86.01"/>
<polygon fill="#63b8ff" stroke="#63b8ff" points="263.5,-83.28 253.6,-79.53 259,-88.64 263.5,-83.28"/>
</a>
</g>
</g>
<!-- Node6 -->
<g id="Node000006" class="node">
<title>Node6</title>
<g id="a_Node000006"><a xlink:title=" ">
<polygon fill="#e0e0e0" stroke="#999999" points="1768,-19 1721,-19 1721,0 1768,0 1768,-19"/>
<text text-anchor="middle" x="1744.5" y="-7" font-family="Helvetica,sans-Serif" font-size="10.00">vector</text>
</a>
</g>
</g>
<!-- Node1&#45;&gt;Node6 -->
<g id="edge5_Node000001_Node000006" class="edge">
<title>Node1&#45;&gt;Node6</title>
<g id="a_edge5_Node000001_Node000006"><a xlink:title=" ">
<path fill="none" stroke="#63b8ff" d="M536.61,-255.97C738.92,-255.48 1402.55,-250.42 1610.5,-206 1675.47,-192.12 1704.84,-200.19 1749.5,-151 1778.74,-118.8 1779.15,-97.17 1768.5,-55 1766.09,-45.44 1761.17,-35.7 1756.41,-27.78"/>
<polygon fill="#63b8ff" stroke="#63b8ff" points="1759.22,-25.68 1750.87,-19.16 1753.33,-29.46 1759.22,-25.68"/>
</a>
</g>
</g>
<!-- Node7 -->
<g id="Node000007" class="node">
<title>Node7</title>
<g id="a_Node000007"><a xlink:href="visibility_8hpp.html" target="_top" xlink:title=" ">
<polygon fill="white" stroke="#666666" points="1581.5,-19 1441.5,-19 1441.5,0 1581.5,0 1581.5,-19"/>
<text text-anchor="middle" x="1511.5" y="-7" font-family="Helvetica,sans-Serif" font-size="10.00">unilink/base/visibility.hpp</text>
</a>
</g>
</g>
<!-- Node1&#45;&gt;Node7 -->
<g id="edge6_Node000001_Node000007" class="edge">
<title>Node1&#45;&gt;Node7</title>
<g id="a_edge6_Node000001_Node000007"><a xlink:title=" ">
<path fill="none" stroke="#63b8ff" d="M536.53,-255.73C774.13,-254.02 1651.62,-241.59 1731.5,-151 1741.81,-139.3 1751.66,-80.49 1730.5,-55 1712.8,-33.67 1646.66,-22.29 1591.65,-16.4"/>
<polygon fill="#63b8ff" stroke="#63b8ff" points="1591.83,-12.9 1581.52,-15.36 1591.11,-19.86 1591.83,-12.9"/>
</a>
</g>
</g>
<!-- Node8 -->
<g id="Node000008" class="node">
<title>Node8</title>
<g id="a_Node000008"><a xlink:href="udp__config_8hpp.html" target="_top" xlink:title=" ">
<polygon fill="white" stroke="#666666" points="453,-151 350,-151 350,-121 453,-121 453,-151"/>
<text text-anchor="start" x="358" y="-139" font-family="Helvetica,sans-Serif" font-size="10.00">unilink/config/udp</text>
<text text-anchor="middle" x="401.5" y="-128" font-family="Helvetica,sans-Serif" font-size="10.00">_config.hpp</text>
</a>
</g>
</g>
<!-- Node1&#45;&gt;Node8 -->
<g id="edge7_Node000001_Node000008" class="edge">
<title>Node1&#45;&gt;Node8</title>
<g id="a_edge7_Node000001_Node000008"><a xlink:title=" ">
<path fill="none" stroke="#63b8ff" d="M468.48,-241.88C455.51,-221.57 431.45,-183.9 415.98,-159.67"/>
<polygon fill="#63b8ff" stroke="#63b8ff" points="418.84,-157.64 410.5,-151.1 412.94,-161.41 418.84,-157.64"/>
</a>
</g>
</g>
<!-- Node13 -->
<g id="Node000013" class="node">
<title>Node13</title>
<g id="a_Node000013"><a xlink:href="channel_8hpp.html" target="_top" xlink:title=" ">
<polygon fill="white" stroke="#666666" points="1286.5,-206 1128.5,-206 1128.5,-187 1286.5,-187 1286.5,-206"/>
<text text-anchor="middle" x="1207.5" y="-194" font-family="Helvetica,sans-Serif" font-size="10.00">unilink/interface/channel.hpp</text>
</a>
</g>
</g>
<!-- Node1&#45;&gt;Node13 -->
<g id="edge14_Node000001_Node000013" class="edge">
<title>Node1&#45;&gt;Node13</title>
<g id="a_edge14_Node000001_Node000013"><a xlink:title=" ">
<path fill="none" stroke="#63b8ff" d="M536.62,-251.26C664.37,-241.03 966.8,-216.79 1118.08,-204.67"/>
<polygon fill="#63b8ff" stroke="#63b8ff" points="1118.58,-208.14 1128.27,-203.85 1118.02,-201.16 1118.58,-208.14"/>
</a>
</g>
</g>
<!-- Node8&#45;&gt;Node5 -->
<g id="edge9_Node000008_Node000005" class="edge">
<title>Node8&#45;&gt;Node5</title>
<g id="a_edge9_Node000008_Node000005"><a xlink:title=" ">
<path fill="none" stroke="#63b8ff" d="M366.83,-120.95C339.12,-109.73 300.65,-94.15 274.08,-83.39"/>
<polygon fill="#63b8ff" stroke="#63b8ff" points="275.11,-80.03 264.53,-79.52 272.48,-86.52 275.11,-80.03"/>
</a>
</g>
</g>
<!-- Node9 -->
<g id="Node000009" class="node">
<title>Node9</title>
<g id="a_Node000009"><a xlink:title=" ">
<polygon fill="#e0e0e0" stroke="#999999" points="514.5,-19 464.5,-19 464.5,0 514.5,0 514.5,-19"/>
<text text-anchor="middle" x="489.5" y="-7" font-family="Helvetica,sans-Serif" font-size="10.00">cstdint</text>
</a>
</g>
</g>
<!-- Node8&#45;&gt;Node9 -->
<g id="edge8_Node000008_Node000009" class="edge">
<title>Node8&#45;&gt;Node9</title>
<g id="a_edge8_Node000008_Node000009"><a xlink:title=" ">
<path fill="none" stroke="#63b8ff" d="M368.13,-120.94C337.17,-105.87 298.67,-80.65 318.5,-55 326.89,-44.15 407.04,-26.73 454.57,-17.23"/>
<polygon fill="#63b8ff" stroke="#63b8ff" points="455.34,-20.64 464.47,-15.27 453.98,-13.78 455.34,-20.64"/>
</a>
</g>
</g>
<!-- Node10 -->
<g id="Node000010" class="node">
<title>Node10</title>
<g id="a_Node000010"><a xlink:title=" ">
<polygon fill="#e0e0e0" stroke="#999999" points="1315.5,-19 1271.5,-19 1271.5,0 1315.5,0 1315.5,-19"/>
<text text-anchor="middle" x="1293.5" y="-7" font-family="Helvetica,sans-Serif" font-size="10.00">string</text>
</a>
</g>
</g>
<!-- Node8&#45;&gt;Node10 -->
<g id="edge10_Node000008_Node000010" class="edge">
<title>Node8&#45;&gt;Node10</title>
<g id="a_edge10_Node000008_Node000010"><a xlink:title=" ">
<path fill="none" stroke="#63b8ff" d="M453.14,-134.6C581.64,-133.01 912.78,-125.02 1014.5,-85 1034.52,-77.12 1032.9,-63.88 1052.5,-55 1122.4,-23.33 1213.43,-14.2 1261.12,-11.56"/>
<polygon fill="#63b8ff" stroke="#63b8ff" points="1261.35,-15.06 1271.17,-11.07 1261.01,-8.07 1261.35,-15.06"/>
</a>
</g>
</g>
<!-- Node11 -->
<g id="Node000011" class="node">
<title>Node11</title>
<g id="a_Node000011"><a xlink:href="constants_8hpp.html" target="_top" xlink:title=" ">
<polygon fill="white" stroke="#666666" points="475,-79.5 328,-79.5 328,-60.5 475,-60.5 475,-79.5"/>
<text text-anchor="middle" x="401.5" y="-67.5" font-family="Helvetica,sans-Serif" font-size="10.00">unilink/base/constants.hpp</text>
</a>
</g>
</g>
<!-- Node8&#45;&gt;Node11 -->
<g id="edge11_Node000008_Node000011" class="edge">
<title>Node8&#45;&gt;Node11</title>
<g id="a_edge11_Node000008_Node000011"><a xlink:title=" ">
<path fill="none" stroke="#63b8ff" d="M401.5,-120.8C401.5,-111.7 401.5,-99.79 401.5,-89.9"/>
<polygon fill="#63b8ff" stroke="#63b8ff" points="405,-89.84 401.5,-79.84 398,-89.84 405,-89.84"/>
</a>
</g>
</g>
<!-- Node11&#45;&gt;Node9 -->
<g id="edge13_Node000011_Node000009" class="edge">
<title>Node11&#45;&gt;Node9</title>
<g id="a_edge13_Node000011_Node000009"><a xlink:title=" ">
<path fill="none" stroke="#63b8ff" d="M414.48,-60.37C428.52,-51.04 451.13,-36.01 467.86,-24.88"/>
<polygon fill="#63b8ff" stroke="#63b8ff" points="470.07,-27.62 476.46,-19.17 466.2,-21.79 470.07,-27.62"/>
</a>
</g>
</g>
<!-- Node12 -->
<g id="Node000012" class="node">
<title>Node12</title>
<g id="a_Node000012"><a xlink:title=" ">
<polygon fill="#e0e0e0" stroke="#999999" points="428,-19 375,-19 375,0 428,0 428,-19"/>
<text text-anchor="middle" x="401.5" y="-7" font-family="Helvetica,sans-Serif" font-size="10.00">cstddef</text>
</a>
</g>
</g>
<!-- Node11&#45;&gt;Node12 -->
<g id="edge12_Node000011_Node000012" class="edge">
<title>Node11&#45;&gt;Node12</title>
<g id="a_edge12_Node000011_Node000012"><a xlink:title=" ">
<path fill="none" stroke="#63b8ff" d="M401.5,-60.37C401.5,-52.25 401.5,-39.81 401.5,-29.39"/>
<polygon fill="#63b8ff" stroke="#63b8ff" points="405,-29.17 401.5,-19.17 398,-29.17 405,-29.17"/>
</a>
</g>
</g>
<!-- Node13&#45;&gt;Node3 -->
<g id="edge16_Node000013_Node000003" class="edge">
<title>Node13&#45;&gt;Node3</title>
<g id="a_edge16_Node000013_Node000003"><a xlink:title=" ">
<path fill="none" stroke="#63b8ff" d="M1128.44,-192.04C982.76,-183.94 680.44,-158.5 610.5,-85 596.61,-70.41 595.84,-46.32 597.41,-29.5"/>
<polygon fill="#63b8ff" stroke="#63b8ff" points="600.93,-29.59 598.74,-19.22 593.99,-28.69 600.93,-29.59"/>
</a>
</g>
</g>
<!-- Node13&#45;&gt;Node4 -->
<g id="edge17_Node000013_Node000004" class="edge">
<title>Node13&#45;&gt;Node4</title>
<g id="a_edge17_Node000013_Node000004"><a xlink:title=" ">
<path fill="none" stroke="#63b8ff" d="M1128.4,-195.51C943.59,-194.89 488.01,-189.37 340.5,-151 276.25,-134.29 248.32,-136.56 206.5,-85 193.66,-69.16 189.38,-45.7 188.01,-29.35"/>
<polygon fill="#63b8ff" stroke="#63b8ff" points="191.51,-29.15 187.46,-19.35 184.52,-29.53 191.51,-29.15"/>
</a>
</g>
</g>
<!-- Node13&#45;&gt;Node6 -->
<g id="edge18_Node000013_Node000006" class="edge">
<title>Node13&#45;&gt;Node6</title>
<g id="a_edge18_Node000013_Node000006"><a xlink:title=" ">
<path fill="none" stroke="#63b8ff" d="M1286.52,-194.27C1425.18,-191.33 1700.62,-181.65 1731.5,-151 1763.72,-119.02 1756.1,-59.71 1749.44,-29.4"/>
<polygon fill="#63b8ff" stroke="#63b8ff" points="1752.76,-28.23 1747.02,-19.32 1745.95,-29.86 1752.76,-28.23"/>
</a>
</g>
</g>
<!-- Node13&#45;&gt;Node7 -->
<g id="edge47_Node000013_Node000007" class="edge">
<title>Node13&#45;&gt;Node7</title>
<g id="a_edge47_Node000013_Node000007"><a xlink:title=" ">
<path fill="none" stroke="#63b8ff" d="M1245.52,-186.96C1307.77,-173.01 1435.34,-144.51 1543.5,-121 1618.54,-104.69 1664.18,-144.69 1712.5,-85 1749.77,-38.96 1662.99,-21.37 1592.01,-14.65"/>
<polygon fill="#63b8ff" stroke="#63b8ff" points="1591.94,-11.13 1581.67,-13.74 1591.32,-18.1 1591.94,-11.13"/>
</a>
</g>
</g>
<!-- Node14 -->
<g id="Node000014" class="node">
<title>Node14</title>
<g id="a_Node000014"><a xlink:title=" ">
<polygon fill="#e0e0e0" stroke="#999999" points="1722.5,-145.5 1552.5,-145.5 1552.5,-126.5 1722.5,-126.5 1722.5,-145.5"/>
<text text-anchor="middle" x="1637.5" y="-133.5" font-family="Helvetica,sans-Serif" font-size="10.00">boost/asio/any_io_executor.hpp</text>
</a>
</g>
</g>
<!-- Node13&#45;&gt;Node14 -->
<g id="edge15_Node000013_Node000014" class="edge">
<title>Node13&#45;&gt;Node14</title>
<g id="a_edge15_Node000013_Node000014"><a xlink:title=" ">
<path fill="none" stroke="#63b8ff" d="M1271.9,-186.97C1338.61,-178.11 1445.88,-163.77 1538.5,-151 1547.94,-149.7 1557.89,-148.31 1567.69,-146.93"/>
<polygon fill="#63b8ff" stroke="#63b8ff" points="1568.41,-150.37 1577.83,-145.51 1567.44,-143.43 1568.41,-150.37"/>
</a>
</g>
</g>
<!-- Node15 -->
<g id="Node000015" class="node">
<title>Node15</title>
<g id="a_Node000015"><a xlink:href="common_8hpp.html" target="_top" xlink:title=" ">
<polygon fill="white" stroke="#666666" points="1158,-145.5 1015,-145.5 1015,-126.5 1158,-126.5 1158,-145.5"/>
<text text-anchor="middle" x="1086.5" y="-133.5" font-family="Helvetica,sans-Serif" font-size="10.00">unilink/base/common.hpp</text>
</a>
</g>
</g>
<!-- Node13&#45;&gt;Node15 -->
<g id="edge19_Node000013_Node000015" class="edge">
<title>Node13&#45;&gt;Node15</title>
<g id="a_edge19_Node000013_Node000015"><a xlink:title=" ">
<path fill="none" stroke="#63b8ff" d="M1189.91,-186.99C1169.74,-177.25 1136.48,-161.16 1113.14,-149.88"/>
<polygon fill="#63b8ff" stroke="#63b8ff" points="1114.64,-146.72 1104.12,-145.52 1111.6,-153.02 1114.64,-146.72"/>
</a>
</g>
</g>
<!-- Node29 -->
<g id="Node000029" class="node">
<title>Node29</title>
<g id="a_Node000029"><a xlink:href="safe__span_8hpp.html" target="_top" xlink:title=" ">
<polygon fill="white" stroke="#666666" points="1386.5,-151 1268.5,-151 1268.5,-121 1386.5,-121 1386.5,-151"/>
<text text-anchor="start" x="1276.5" y="-139" font-family="Helvetica,sans-Serif" font-size="10.00">unilink/memory/safe</text>
<text text-anchor="middle" x="1327.5" y="-128" font-family="Helvetica,sans-Serif" font-size="10.00">_span.hpp</text>
</a>
</g>
</g>
<!-- Node13&#45;&gt;Node29 -->
<g id="edge48_Node000013_Node000029" class="edge">
<title>Node13&#45;&gt;Node29</title>
<g id="a_edge48_Node000013_Node000029"><a xlink:title=" ">
<path fill="none" stroke="#63b8ff" d="M1224.95,-186.99C1241.71,-178.82 1267.6,-166.2 1289.17,-155.69"/>
<polygon fill="#63b8ff" stroke="#63b8ff" points="1290.96,-158.71 1298.42,-151.18 1287.9,-152.41 1290.96,-158.71"/>
</a>
</g>
</g>
<!-- Node15&#45;&gt;Node3 -->
<g id="edge24_Node000015_Node000003" class="edge">
<title>Node15&#45;&gt;Node3</title>
<g id="a_edge24_Node000015_Node000003"><a xlink:title=" ">
<path fill="none" stroke="#63b8ff" d="M1014.65,-135.28C903.3,-134.36 695.7,-126.88 636.5,-85 618.03,-71.93 608.66,-46.75 604.18,-29.3"/>
<polygon fill="#63b8ff" stroke="#63b8ff" points="607.51,-28.14 601.9,-19.15 600.68,-29.68 607.51,-28.14"/>
</a>
</g>
</g>
<!-- Node15&#45;&gt;Node6 -->
<g id="edge32_Node000015_Node000006" class="edge">
<title>Node15&#45;&gt;Node6</title>
<g id="a_edge32_Node000015_Node000006"><a xlink:title=" ">
<path fill="none" stroke="#63b8ff" d="M1158.4,-129.07C1275.72,-119.08 1498.68,-98.65 1532.5,-85 1552.78,-76.81 1551.84,-64.59 1571.5,-55 1617.04,-32.79 1674.91,-20.81 1710.83,-15.04"/>
<polygon fill="#63b8ff" stroke="#63b8ff" points="1711.44,-18.49 1720.79,-13.51 1710.38,-11.57 1711.44,-18.49"/>
</a>
</g>
</g>
<!-- Node15&#45;&gt;Node9 -->
<g id="edge21_Node000015_Node000009" class="edge">
<title>Node15&#45;&gt;Node9</title>
<g id="a_edge21_Node000015_Node000009"><a xlink:title=" ">
<path fill="none" stroke="#63b8ff" d="M1014.68,-131.37C900.61,-124.94 683.45,-109.85 610.5,-85 570.71,-71.45 530.29,-42.93 507.7,-25.38"/>
<polygon fill="#63b8ff" stroke="#63b8ff" points="509.7,-22.5 499.69,-19.03 505.35,-27.98 509.7,-22.5"/>
</a>
</g>
</g>
<!-- Node15&#45;&gt;Node10 -->
<g id="edge29_Node000015_Node000010" class="edge">
<title>Node15&#45;&gt;Node10</title>
<g id="a_edge29_Node000015_Node000010"><a xlink:title=" ">
<path fill="none" stroke="#63b8ff" d="M1158.04,-130.43C1223.21,-124.6 1312.52,-111.85 1334.5,-85 1349.53,-66.64 1329.53,-41.97 1312.56,-26.15"/>
<polygon fill="#63b8ff" stroke="#63b8ff" points="1314.45,-23.16 1304.64,-19.16 1309.82,-28.4 1314.45,-23.16"/>
</a>
</g>
</g>
<!-- Node15&#45;&gt;Node11 -->
<g id="edge33_Node000015_Node000011" class="edge">
<title>Node15&#45;&gt;Node11</title>
<g id="a_edge33_Node000015_Node000011"><a xlink:title=" ">
<path fill="none" stroke="#63b8ff" d="M1014.81,-128.3C887.25,-116.38 621.52,-91.56 485.57,-78.85"/>
<polygon fill="#63b8ff" stroke="#63b8ff" points="485.49,-75.33 475.21,-77.89 484.84,-82.3 485.49,-75.33"/>
</a>
</g>
</g>
<!-- Node16 -->
<g id="Node000016" class="node">
<title>Node16</title>
<g id="a_Node000016"><a xlink:title=" ">
<polygon fill="#e0e0e0" stroke="#999999" points="816.5,-19 766.5,-19 766.5,0 816.5,0 816.5,-19"/>
<text text-anchor="middle" x="791.5" y="-7" font-family="Helvetica,sans-Serif" font-size="10.00">chrono</text>
</a>
</g>
</g>
<!-- Node15&#45;&gt;Node16 -->
<g id="edge20_Node000015_Node000016" class="edge">
<title>Node15&#45;&gt;Node16</title>
<g id="a_edge20_Node000015_Node000016"><a xlink:title=" ">
<path fill="none" stroke="#63b8ff" d="M1014.7,-128.22C970.71,-121.75 914.42,-109.22 869.5,-85 842.69,-70.55 818.46,-44.39 804.36,-27.23"/>
<polygon fill="#63b8ff" stroke="#63b8ff" points="806.91,-24.82 797.94,-19.19 801.44,-29.19 806.91,-24.82"/>
</a>
</g>
</g>
<!-- Node17 -->
<g id="Node000017" class="node">
<title>Node17</title>
<g id="a_Node000017"><a xlink:title=" ">
<polygon fill="#e0e0e0" stroke="#999999" points="1111.5,-79.5 1061.5,-79.5 1061.5,-60.5 1111.5,-60.5 1111.5,-79.5"/>
<text text-anchor="middle" x="1086.5" y="-67.5" font-family="Helvetica,sans-Serif" font-size="10.00">cstring</text>
</a>
</g>
</g>
<!-- Node15&#45;&gt;Node17 -->
<g id="edge22_Node000015_Node000017" class="edge">
<title>Node15&#45;&gt;Node17</title>
<g id="a_edge22_Node000015_Node000017"><a xlink:title=" ">
<path fill="none" stroke="#63b8ff" d="M1086.5,-126.37C1086.5,-117.16 1086.5,-102.29 1086.5,-90.27"/>
<polygon fill="#63b8ff" stroke="#63b8ff" points="1090,-89.91 1086.5,-79.91 1083,-89.91 1090,-89.91"/>
</a>
</g>
</g>
<!-- Node18 -->
<g id="Node000018" class="node">
<title>Node18</title>
<g id="a_Node000018"><a xlink:title=" ">
<polygon fill="#e0e0e0" stroke="#999999" points="1173.5,-79.5 1129.5,-79.5 1129.5,-60.5 1173.5,-60.5 1173.5,-79.5"/>
<text text-anchor="middle" x="1151.5" y="-67.5" font-family="Helvetica,sans-Serif" font-size="10.00">ctime</text>
</a>
</g>
</g>
<!-- Node15&#45;&gt;Node18 -->
<g id="edge23_Node000015_Node000018" class="edge">
<title>Node15&#45;&gt;Node18</title>
<g id="a_edge23_Node000015_Node000018"><a xlink:title=" ">
<path fill="none" stroke="#63b8ff" d="M1095.27,-126.37C1105.48,-116.31 1122.58,-99.48 1135.24,-87.01"/>
<polygon fill="#63b8ff" stroke="#63b8ff" points="1137.79,-89.42 1142.46,-79.91 1132.87,-84.43 1137.79,-89.42"/>
</a>
</g>
</g>
<!-- Node19 -->
<g id="Node000019" class="node">
<title>Node19</title>
<g id="a_Node000019"><a xlink:title=" ">
<polygon fill="#e0e0e0" stroke="#999999" points="1247.5,-79.5 1191.5,-79.5 1191.5,-60.5 1247.5,-60.5 1247.5,-79.5"/>
<text text-anchor="middle" x="1219.5" y="-67.5" font-family="Helvetica,sans-Serif" font-size="10.00">iomanip</text>
</a>
</g>
</g>
<!-- Node15&#45;&gt;Node19 -->
<g id="edge25_Node000015_Node000019" class="edge">
<title>Node15&#45;&gt;Node19</title>
<g id="a_edge25_Node000015_Node000019"><a xlink:title=" ">
<path fill="none" stroke="#63b8ff" d="M1104.44,-126.37C1127.04,-115.49 1166.12,-96.69 1192.38,-84.05"/>
<polygon fill="#63b8ff" stroke="#63b8ff" points="1193.93,-87.19 1201.42,-79.7 1190.89,-80.88 1193.93,-87.19"/>
</a>
</g>
</g>
<!-- Node20 -->
<g id="Node000020" class="node">
<title>Node20</title>
<g id="a_Node000020"><a xlink:title=" ">
<polygon fill="#e0e0e0" stroke="#999999" points="1325.5,-79.5 1265.5,-79.5 1265.5,-60.5 1325.5,-60.5 1325.5,-79.5"/>
<text text-anchor="middle" x="1295.5" y="-67.5" font-family="Helvetica,sans-Serif" font-size="10.00">iostream</text>
</a>
</g>
</g>
<!-- Node15&#45;&gt;Node20 -->
<g id="edge26_Node000015_Node000020" class="edge">
<title>Node15&#45;&gt;Node20</title>
<g id="a_edge26_Node000015_Node000020"><a xlink:title=" ">
<path fill="none" stroke="#63b8ff" d="M1117.69,-126.42C1151.91,-116.87 1208.39,-100.7 1256.5,-85 1258.61,-84.31 1260.78,-83.58 1262.96,-82.84"/>
<polygon fill="#63b8ff" stroke="#63b8ff" points="1264.19,-86.12 1272.48,-79.52 1261.89,-79.51 1264.19,-86.12"/>
</a>
</g>
</g>
<!-- Node21 -->
<g id="Node000021" class="node">
<title>Node21</title>
<g id="a_Node000021"><a xlink:title=" ">
<polygon fill="#e0e0e0" stroke="#999999" points="701.5,-79.5 645.5,-79.5 645.5,-60.5 701.5,-60.5 701.5,-79.5"/>
<text text-anchor="middle" x="673.5" y="-67.5" font-family="Helvetica,sans-Serif" font-size="10.00">sstream</text>
</a>
</g>
</g>
<!-- Node15&#45;&gt;Node21 -->
<g id="edge27_Node000015_Node000021" class="edge">
<title>Node15&#45;&gt;Node21</title>
<g id="a_edge27_Node000015_Node000021"><a xlink:title=" ">
<path fill="none" stroke="#63b8ff" d="M1014.9,-130.39C938.56,-124.34 814.58,-111.24 710.5,-85 708.05,-84.38 705.55,-83.65 703.05,-82.86"/>
<polygon fill="#63b8ff" stroke="#63b8ff" points="704.18,-79.55 693.59,-79.56 701.87,-86.16 704.18,-79.55"/>
</a>
</g>
</g>
<!-- Node22 -->
<g id="Node000022" class="node">
<title>Node22</title>
<g id="a_Node000022"><a xlink:title=" ">
<polygon fill="#e0e0e0" stroke="#999999" points="1645,-79.5 1580,-79.5 1580,-60.5 1645,-60.5 1645,-79.5"/>
<text text-anchor="middle" x="1612.5" y="-67.5" font-family="Helvetica,sans-Serif" font-size="10.00">stdexcept</text>
</a>
</g>
</g>
<!-- Node15&#45;&gt;Node22 -->
<g id="edge28_Node000015_Node000022" class="edge">
<title>Node15&#45;&gt;Node22</title>
<g id="a_edge28_Node000015_Node000022"><a xlink:title=" ">
<path fill="none" stroke="#63b8ff" d="M1158.17,-129.16C1272.11,-119.6 1489.45,-100.16 1565.5,-85 1569.23,-84.26 1573.08,-83.35 1576.91,-82.35"/>
<polygon fill="#63b8ff" stroke="#63b8ff" points="1578.17,-85.63 1586.86,-79.57 1576.29,-78.89 1578.17,-85.63"/>
</a>
</g>
</g>
<!-- Node23 -->
<g id="Node000023" class="node">
<title>Node23</title>
<g id="a_Node000023"><a xlink:title=" ">
<polygon fill="#e0e0e0" stroke="#999999" points="908,-19 835,-19 835,0 908,0 908,-19"/>
<text text-anchor="middle" x="871.5" y="-7" font-family="Helvetica,sans-Serif" font-size="10.00">string_view</text>
</a>
</g>
</g>
<!-- Node15&#45;&gt;Node23 -->
<g id="edge30_Node000015_Node000023" class="edge">
<title>Node15&#45;&gt;Node23</title>
<g id="a_edge30_Node000015_Node000023"><a xlink:title=" ">
<path fill="none" stroke="#63b8ff" d="M1024.34,-126.49C973.6,-118.28 907.33,-104.27 888.5,-85 874.19,-70.35 870.95,-46.28 870.64,-29.47"/>
<polygon fill="#63b8ff" stroke="#63b8ff" points="874.15,-29.26 870.79,-19.21 867.15,-29.15 874.15,-29.26"/>
</a>
</g>
</g>
<!-- Node24 -->
<g id="Node000024" class="node">
<title>Node24</title>
<g id="a_Node000024"><a xlink:title=" ">
<polygon fill="#e0e0e0" stroke="#999999" points="765,-79.5 720,-79.5 720,-60.5 765,-60.5 765,-79.5"/>
<text text-anchor="middle" x="742.5" y="-67.5" font-family="Helvetica,sans-Serif" font-size="10.00">utility</text>
</a>
</g>
</g>
<!-- Node15&#45;&gt;Node24 -->
<g id="edge31_Node000015_Node000024" class="edge">
<title>Node15&#45;&gt;Node24</title>
<g id="a_edge31_Node000015_Node000024"><a xlink:title=" ">
<path fill="none" stroke="#63b8ff" d="M1014.92,-127.46C952.15,-119.87 858.79,-106.23 779.5,-85 777.2,-84.39 774.85,-83.68 772.51,-82.92"/>
<polygon fill="#63b8ff" stroke="#63b8ff" points="773.6,-79.6 763,-79.59 771.28,-86.2 773.6,-79.6"/>
</a>
</g>
</g>
<!-- Node25 -->
<g id="Node000025" class="node">
<title>Node25</title>
<g id="a_Node000025"><a xlink:href="platform_8hpp.html" target="_top" xlink:title=" ">
<polygon fill="white" stroke="#666666" points="1523.5,-79.5 1381.5,-79.5 1381.5,-60.5 1523.5,-60.5 1523.5,-79.5"/>
<text text-anchor="middle" x="1452.5" y="-67.5" font-family="Helvetica,sans-Serif" font-size="10.00">unilink/base/platform.hpp</text>
</a>
</g>
</g>
<!-- Node15&#45;&gt;Node25 -->
<g id="edge34_Node000015_Node000025" class="edge">
<title>Node15&#45;&gt;Node25</title>
<g id="a_edge34_Node000015_Node000025"><a xlink:title=" ">
<path fill="none" stroke="#63b8ff" d="M1135.48,-126.44C1202.32,-114.75 1321.95,-93.83 1393.6,-81.3"/>
<polygon fill="#63b8ff" stroke="#63b8ff" points="1394.56,-84.68 1403.81,-79.51 1393.36,-77.79 1394.56,-84.68"/>
</a>
</g>
</g>
<!-- Node26 -->
<g id="Node000026" class="node">
<title>Node26</title>
<g id="a_Node000026"><a xlink:href="logger_8hpp.html" target="_top" xlink:title=" ">
<polygon fill="white" stroke="#666666" points="1005.5,-85 897.5,-85 897.5,-55 1005.5,-55 1005.5,-85"/>
<text text-anchor="start" x="905.5" y="-73" font-family="Helvetica,sans-Serif" font-size="10.00">unilink/diagnostics</text>
<text text-anchor="middle" x="951.5" y="-62" font-family="Helvetica,sans-Serif" font-size="10.00">/logger.hpp</text>
</a>
</g>
</g>
<!-- Node15&#45;&gt;Node26 -->
<g id="edge37_Node000015_Node000026" class="edge">
<title>Node15&#45;&gt;Node26</title>
<g id="a_edge37_Node000015_Node000026"><a xlink:title=" ">
<path fill="none" stroke="#63b8ff" d="M1068.29,-126.37C1048.42,-116.95 1016.02,-101.59 990.38,-89.43"/>
<polygon fill="#63b8ff" stroke="#63b8ff" points="991.81,-86.24 981.28,-85.12 988.81,-92.56 991.81,-86.24"/>
</a>
</g>
</g>
<!-- Node25&#45;&gt;Node7 -->
<g id="edge36_Node000025_Node000007" class="edge">
<title>Node25&#45;&gt;Node7</title>
<g id="a_edge36_Node000025_Node000007"><a xlink:title=" ">
<path fill="none" stroke="#63b8ff" d="M1461.21,-60.37C1470.18,-51.47 1484.38,-37.39 1495.41,-26.45"/>
<polygon fill="#63b8ff" stroke="#63b8ff" points="1498.12,-28.69 1502.76,-19.17 1493.19,-23.72 1498.12,-28.69"/>
</a>
</g>
</g>
<!-- Node25&#45;&gt;Node10 -->
<g id="edge35_Node000025_Node000010" class="edge">
<title>Node25&#45;&gt;Node10</title>
<g id="a_edge35_Node000025_Node000010"><a xlink:title=" ">
<path fill="none" stroke="#63b8ff" d="M1429.38,-60.49C1401.87,-50.37 1355.8,-33.42 1325.03,-22.1"/>
<polygon fill="#63b8ff" stroke="#63b8ff" points="1326.22,-18.81 1315.62,-18.64 1323.8,-25.38 1326.22,-18.81"/>
</a>
</g>
</g>
<!-- Node26&#45;&gt;Node3 -->
<g id="edge40_Node000026_Node000003" class="edge">
<title>Node26&#45;&gt;Node3</title>
<g id="a_edge40_Node000026_Node000003"><a xlink:title=" ">
<path fill="none" stroke="#63b8ff" d="M897.43,-59.99C827.48,-48.33 707.05,-28.26 643.17,-17.61"/>
<polygon fill="#63b8ff" stroke="#63b8ff" points="643.49,-14.12 633.05,-15.92 642.34,-21.02 643.49,-14.12"/>
</a>
</g>
</g>
<!-- Node26&#45;&gt;Node4 -->
<g id="edge41_Node000026_Node000004" class="edge">
<title>Node26&#45;&gt;Node4</title>
<g id="a_edge41_Node000026_Node000004"><a xlink:title=" ">
<path fill="none" stroke="#63b8ff" d="M897.36,-64.7C862.09,-61.91 815.07,-58.21 773.5,-55 567.8,-39.1 321.45,-20.55 227,-13.46"/>
<polygon fill="#63b8ff" stroke="#63b8ff" points="227,-9.95 216.77,-12.69 226.48,-16.93 227,-9.95"/>
</a>
</g>
</g>
<!-- Node26&#45;&gt;Node6 -->
<g id="edge45_Node000026_Node000006" class="edge">
<title>Node26&#45;&gt;Node6</title>
<g id="a_edge45_Node000026_Node000006"><a xlink:title=" ">
<path fill="none" stroke="#63b8ff" d="M1005.66,-60.75C1020.79,-58.64 1037.27,-56.54 1052.5,-55 1182.57,-41.82 1590.04,-18.97 1710.59,-12.35"/>
<polygon fill="#63b8ff" stroke="#63b8ff" points="1710.91,-15.84 1720.7,-11.79 1710.52,-8.85 1710.91,-15.84"/>
</a>
</g>
</g>
<!-- Node26&#45;&gt;Node7 -->
<g id="edge46_Node000026_Node000007" class="edge">
<title>Node26&#45;&gt;Node7</title>
<g id="a_edge46_Node000026_Node000007"><a xlink:title=" ">
<path fill="none" stroke="#63b8ff" d="M1005.7,-61.07C1020.83,-58.97 1037.29,-56.79 1052.5,-55 1185.09,-39.39 1339.69,-25.24 1431.38,-17.26"/>
<polygon fill="#63b8ff" stroke="#63b8ff" points="1431.76,-20.74 1441.42,-16.39 1431.15,-13.77 1431.76,-20.74"/>
</a>
</g>
</g>
<!-- Node26&#45;&gt;Node10 -->
<g id="edge43_Node000026_Node000010" class="edge">
<title>Node26&#45;&gt;Node10</title>
<g id="a_edge43_Node000026_Node000010"><a xlink:title=" ">
<path fill="none" stroke="#63b8ff" d="M1005.65,-57.64C1010.33,-56.72 1015,-55.83 1019.5,-55 1106.67,-38.96 1210.01,-23 1261.3,-15.28"/>
<polygon fill="#63b8ff" stroke="#63b8ff" points="1262.05,-18.71 1271.43,-13.76 1261.02,-11.78 1262.05,-18.71"/>
</a>
</g>
</g>
<!-- Node26&#45;&gt;Node16 -->
<g id="edge39_Node000026_Node000016" class="edge">
<title>Node26&#45;&gt;Node16</title>
<g id="a_edge39_Node000026_Node000016"><a xlink:title=" ">
<path fill="none" stroke="#63b8ff" d="M913.18,-54.99C886.24,-45.14 850.57,-32.1 824.81,-22.68"/>
<polygon fill="#63b8ff" stroke="#63b8ff" points="825.72,-19.29 815.13,-19.14 823.32,-25.86 825.72,-19.29"/>
</a>
</g>
</g>
<!-- Node26&#45;&gt;Node23 -->
<g id="edge44_Node000026_Node000023" class="edge">
<title>Node26&#45;&gt;Node23</title>
<g id="a_edge44_Node000026_Node000023"><a xlink:title=" ">
<path fill="none" stroke="#63b8ff" d="M932.13,-54.84C919.93,-45.91 904.19,-34.41 891.81,-25.35"/>
<polygon fill="#63b8ff" stroke="#63b8ff" points="893.63,-22.34 883.49,-19.27 889.49,-27.99 893.63,-22.34"/>
</a>
</g>
</g>
<!-- Node27 -->
<g id="Node000027" class="node">
<title>Node27</title>
<g id="a_Node000027"><a xlink:title=" ">
<polygon fill="#e0e0e0" stroke="#999999" points="1087.5,-19 1037.5,-19 1037.5,0 1087.5,0 1087.5,-19"/>
<text text-anchor="middle" x="1062.5" y="-7" font-family="Helvetica,sans-Serif" font-size="10.00">atomic</text>
</a>
</g>
</g>
<!-- Node26&#45;&gt;Node27 -->
<g id="edge38_Node000026_Node000027" class="edge">
<title>Node26&#45;&gt;Node27</title>
<g id="a_edge38_Node000026_Node000027"><a xlink:title=" ">
<path fill="none" stroke="#63b8ff" d="M978.09,-54.99C995.95,-45.58 1019.34,-33.24 1036.98,-23.95"/>
<polygon fill="#63b8ff" stroke="#63b8ff" points="1038.89,-26.9 1046.11,-19.14 1035.63,-20.71 1038.89,-26.9"/>
</a>
</g>
</g>
<!-- Node28 -->
<g id="Node000028" class="node">
<title>Node28</title>
<g id="a_Node000028"><a xlink:title=" ">
<polygon fill="#e0e0e0" stroke="#999999" points="1019,-19 926,-19 926,0 1019,0 1019,-19"/>
<text text-anchor="middle" x="972.5" y="-7" font-family="Helvetica,sans-Serif" font-size="10.00">source_location</text>
</a>
</g>
</g>
<!-- Node26&#45;&gt;Node28 -->
<g id="edge42_Node000026_Node000028" class="edge">
<title>Node26&#45;&gt;Node28</title>
<g id="a_edge42_Node000026_Node000028"><a xlink:title=" ">
<path fill="none" stroke="#63b8ff" d="M956.58,-54.84C959.38,-47.04 962.89,-37.27 965.9,-28.89"/>
<polygon fill="#63b8ff" stroke="#63b8ff" points="969.27,-29.86 969.35,-19.27 962.68,-27.5 969.27,-29.86"/>
</a>
</g>
</g>
<!-- Node29&#45;&gt;Node9 -->
<g id="edge49_Node000029_Node000009" class="edge">
<title>Node29&#45;&gt;Node9</title>
<g id="a_edge49_Node000029_Node000009"><a xlink:title=" ">
<path fill="none" stroke="#63b8ff" d="M1268.49,-129.33C1166.17,-119.32 959.95,-98.32 888.5,-85 836.57,-75.32 825.21,-65.77 773.5,-55 684.64,-36.5 578.69,-21.82 524.79,-14.88"/>
<polygon fill="#63b8ff" stroke="#63b8ff" points="525.09,-11.39 514.73,-13.59 524.2,-18.33 525.09,-11.39"/>
</a>
</g>
</g>
<!-- Node29&#45;&gt;Node22 -->
<g id="edge51_Node000029_Node000022" class="edge">
<title>Node29&#45;&gt;Node22</title>
<g id="a_edge51_Node000029_Node000022"><a xlink:title=" ">
<path fill="none" stroke="#63b8ff" d="M1386.99,-123.92C1435.32,-114.57 1505.13,-100.3 1565.5,-85 1568.72,-84.18 1572.05,-83.29 1575.38,-82.37"/>
<polygon fill="#63b8ff" stroke="#63b8ff" points="1576.62,-85.65 1585.27,-79.53 1574.69,-78.92 1576.62,-85.65"/>
</a>
</g>
</g>
<!-- Node30 -->
<g id="Node000030" class="node">
<title>Node30</title>
<g id="a_Node000030"><a xlink:title=" ">
<polygon fill="#e0e0e0" stroke="#999999" points="1703.5,-79.5 1663.5,-79.5 1663.5,-60.5 1703.5,-60.5 1703.5,-79.5"/>
<text text-anchor="middle" x="1683.5" y="-67.5" font-family="Helvetica,sans-Serif" font-size="10.00">span</text>
</a>
</g>
</g>
<!-- Node29&#45;&gt;Node30 -->
<g id="edge50_Node000029_Node000030" class="edge">
<title>Node29&#45;&gt;Node30</title>
<g id="a_edge50_Node000029_Node000030"><a xlink:title=" ">
<path fill="none" stroke="#63b8ff" d="M1386.57,-131.28C1452.98,-125.88 1563.44,-113.24 1654.5,-85 1655.76,-84.61 1657.04,-84.17 1658.31,-83.7"/>
<polygon fill="#63b8ff" stroke="#63b8ff" points="1660.09,-86.75 1667.89,-79.58 1657.32,-80.31 1660.09,-86.75"/>
</a>
</g>
</g>
</g>
</svg>

<g id="navigator" transform="translate(0 0)" fill="#404254">
  <rect fill="#f2f5e9" fill-opacity="0.5" stroke="#606060" stroke-width=".5" x="0" y="0" width="60" height="60"/>
  <use id="zoomplus" xlink:href="#zoomPlus" x="17" y="9" onmousedown="handleZoom(evt,'in')"/>
  <use id="zoomminus" xlink:href="#zoomMin" x="42" y="9" onmousedown="handleZoom(evt,'out')"/>
  <use id="reset" xlink:href="#resetDef" x="30" y="36" onmousedown="handleReset()"/>
   <use id="arrowup" xlink:href="#arrowUp" x="0" y="0" onmousedown="handlePan(0,-1)"/>
  <use id="arrowright" xlink:href="#arrowRight" x="0" y="0" onmousedown="handlePan(1,0)"/>
  <use id="arrowdown" xlink:href="#arrowDown" x="0" y="0" onmousedown="handlePan(0,1)"/>
  <use id="arrowleft" xlink:href="#arrowLeft" x="0" y="0" onmousedown="handlePan(-1,0)"/>
</g>
<svg viewBox="0 0 15 15" width="100%" height="30px" preserveAspectRatio="xMaxYMin meet">
 <g id="arrow_out" transform="scale(0.3 0.3)">
  <a xlink:href="transport_2udp_2udp_8hpp__incl_org.svg" target="_base">
   <rect id="button" ry="5" rx="5" y="6" x="6" height="38" width="38"
        fill="#f2f5e9" fill-opacity="0.5" stroke="#606060" stroke-width="1.0"/>
   <path id="arrow"
     d="M 11.500037,31.436501 C 11.940474,20.09759 22.043105,11.32322 32.158766,21.979434 L 37.068811,17.246167 C 37.068811,17.246167 37.088388,32 37.088388,32 L 22.160133,31.978069 C 22.160133,31.978069 26.997745,27.140456 26.997745,27.140456 C 18.528582,18.264221 13.291696,25.230495 11.500037,31.436501 z"
     style="fill:#404040;"/>
  </a>
 </g>
</svg>

<style type='text/css'>
<![CDATA[
[data-mouse-over-selected='false'] { opacity: 0.7; }
[data-mouse-over-selected='true']  { opacity: 1.0; }
]]>
</style>
<script type="application/ecmascript"><![CDATA[
document.addEventListener('DOMContentLoaded', (event) => {
  highlightEdges();
  highlightAdjacentNodes();
});
]]></script>
</svg>
