<?xml version="1.0" encoding="UTF-8" standalone="no"?>
<!DOCTYPE svg PUBLIC "-//W3C//DTD SVG 1.1//EN"
 "http://www.w3.org/Graphics/SVG/1.1/DTD/svg11.dtd">
<!-- Generated by graphviz version 2.43.0 (0)
 -->
<!-- Title: unilink/transport/uds/uds_client.hpp Pages: 1 -->
<svg width="405pt" height="106pt"
 viewBox="0.00 0.00 404.50 106.00" xmlns="http://www.w3.org/2000/svg" xmlns:xlink="http://www.w3.org/1999/xlink">
<g id="graph0" class="graph" transform="scale(1 1) rotate(0) translate(4 102)">
<title>unilink/transport/uds/uds_client.hpp</title>
<polygon fill="white" stroke="transparent" points="-4,4 -4,-102 400.5,-102 400.5,4 -4,4"/>
<!-- Node1 -->
<g id="node1" class="node">
<title>Node1</title>
<g id="a_node1"><a xlink:title=" ">
<polygon fill="#bfbfbf" stroke="black" points="146.5,-67.5 146.5,-97.5 263.5,-97.5 263.5,-67.5 146.5,-67.5"/>
<text text-anchor="start" x="154.5" y="-85.5" font-family="Helvetica,sans-Serif" font-size="10.00">unilink/transport/uds</text>
<text text-anchor="middle" x="205" y="-74.5" font-family="Helvetica,sans-Serif" font-size="10.00">/uds_client.hpp</text>
</a>
</g>
</g>
<!-- Node2 -->
<g id="node2" class="node">
<title>Node2</title>
<g id="a_node2"><a xlink:href="channel__factory_8cc.html" target="_top" xlink:title=" ">
<polygon fill="white" stroke="black" points="0,-0.5 0,-30.5 128,-30.5 128,-0.5 0,-0.5"/>
<text text-anchor="start" x="8" y="-18.5" font-family="Helvetica,sans-Serif" font-size="10.00">unilink/factory/channel</text>
<text text-anchor="middle" x="64" y="-7.5" font-family="Helvetica,sans-Serif" font-size="10.00">_factory.cc</text>
</a>
</g>
</g>
<!-- Node1&#45;&gt;Node2 -->
<g id="edge1" class="edge">
<title>Node1&#45;&gt;Node2</title>
<path fill="none" stroke="midnightblue" d="M165.15,-63.13C142.75,-52.8 115.22,-40.11 94.54,-30.58"/>
<polygon fill="midnightblue" stroke="midnightblue" points="163.86,-66.39 174.41,-67.4 166.79,-60.03 163.86,-66.39"/>
</g>
<!-- Node3 -->
<g id="node3" class="node">
<title>Node3</title>
<g id="a_node3"><a xlink:href="transport_2uds_2uds__client_8cc.html" target="_top" xlink:title=" ">
<polygon fill="white" stroke="black" points="146.5,-0.5 146.5,-30.5 263.5,-30.5 263.5,-0.5 146.5,-0.5"/>
<text text-anchor="start" x="154.5" y="-18.5" font-family="Helvetica,sans-Serif" font-size="10.00">unilink/transport/uds</text>
<text text-anchor="middle" x="205" y="-7.5" font-family="Helvetica,sans-Serif" font-size="10.00">/uds_client.cc</text>
</a>
</g>
</g>
<!-- Node1&#45;&gt;Node3 -->
<g id="edge2" class="edge">
<title>Node1&#45;&gt;Node3</title>
<path fill="none" stroke="midnightblue" d="M205,-57.11C205,-48.15 205,-38.32 205,-30.58"/>
<polygon fill="midnightblue" stroke="midnightblue" points="201.5,-57.4 205,-67.4 208.5,-57.4 201.5,-57.4"/>
</g>
<!-- Node4 -->
<g id="node4" class="node">
<title>Node4</title>
<g id="a_node4"><a xlink:href="wrapper_2uds__client_2uds__client_8cc.html" target="_top" xlink:title=" ">
<polygon fill="white" stroke="black" points="281.5,-0.5 281.5,-30.5 396.5,-30.5 396.5,-0.5 281.5,-0.5"/>
<text text-anchor="start" x="289.5" y="-18.5" font-family="Helvetica,sans-Serif" font-size="10.00">unilink/wrapper/uds</text>
<text text-anchor="middle" x="339" y="-7.5" font-family="Helvetica,sans-Serif" font-size="10.00">_client/uds_client.cc</text>
</a>
</g>
</g>
<!-- Node1&#45;&gt;Node4 -->
<g id="edge3" class="edge">
<title>Node1&#45;&gt;Node4</title>
<path fill="none" stroke="midnightblue" d="M243.15,-62.99C264.39,-52.69 290.41,-40.07 309.98,-30.58"/>
<polygon fill="midnightblue" stroke="midnightblue" points="241.55,-59.88 234.08,-67.4 244.6,-66.18 241.55,-59.88"/>
</g>
</g>
</svg>
