<?xml version="1.0" encoding="UTF-8" standalone="no"?>
<!DOCTYPE svg PUBLIC "-//W3C//DTD SVG 1.1//EN"
 "http://www.w3.org/Graphics/SVG/1.1/DTD/svg11.dtd">
<!-- Generated by graphviz version 2.43.0 (0)
 -->
<!-- Title: unilink/transport/serial/serial.hpp Pages: 1 -->
<svg width="1491pt" height="346pt"
 viewBox="0.00 0.00 1491.00 346.00" xmlns="http://www.w3.org/2000/svg" xmlns:xlink="http://www.w3.org/1999/xlink">
<g id="graph0" class="graph" transform="scale(1 1) rotate(0) translate(4 342)">
<title>unilink/transport/serial/serial.hpp</title>
<!-- Node1 -->
<g id="Node000001" class="node">
<title>Node1</title>
<g id="a_Node000001"><a xlink:title=" ">
<polygon fill="#999999" stroke="#666666" points="324.5,-338 197.5,-338 197.5,-308 324.5,-308 324.5,-338"/>
<text text-anchor="start" x="205.5" y="-326" font-family="Helvetica,sans-Serif" font-size="10.00">unilink/transport/serial</text>
<text text-anchor="middle" x="261" y="-315" font-family="Helvetica,sans-Serif" font-size="10.00">/serial.hpp</text>
</a>
</g>
</g>
<!-- Node2 -->
<g id="Node000002" class="node">
<title>Node2</title>
<g id="a_Node000002"><a xlink:title=" ">
<polygon fill="#e0e0e0" stroke="#999999" points="366,-74 308,-74 308,-55 366,-55 366,-74"/>
<text text-anchor="middle" x="337" y="-62" font-family="Helvetica,sans-Serif" font-size="10.00">memory</text>
</a>
</g>
</g>
<!-- Node1&#45;&gt;Node2 -->
<g id="edge1_Node000001_Node000002" class="edge">
<title>Node1&#45;&gt;Node2</title>
<g id="a_edge1_Node000001_Node000002"><a xlink:title=" ">
<path fill="none" stroke="#63b8ff" d="M265.19,-307.84C278.07,-264.39 317.03,-132.9 331.51,-84.04"/>
<polygon fill="#63b8ff" stroke="#63b8ff" points="334.93,-84.79 334.42,-74.21 328.22,-82.8 334.93,-84.79"/>
</a>
</g>
</g>
<!-- Node3 -->
<g id="Node000003" class="node">
<title>Node3</title>
<g id="a_Node000003"><a xlink:title=" ">
<polygon fill="#e0e0e0" stroke="#999999" points="416,-19 372,-19 372,0 416,0 416,-19"/>
<text text-anchor="middle" x="394" y="-7" font-family="Helvetica,sans-Serif" font-size="10.00">string</text>
</a>
</g>
</g>
<!-- Node1&#45;&gt;Node3 -->
<g id="edge2_Node000001_Node000003" class="edge">
<title>Node1&#45;&gt;Node3</title>
<g id="a_edge2_Node000001_Node000003"><a xlink:title=" ">
<path fill="none" stroke="#63b8ff" d="M197.49,-317.6C120.23,-308.4 0,-279.96 0,-192 0,-192 0,-192 0,-124 0,-48.86 267.95,-20.46 361.91,-12.81"/>
<polygon fill="#63b8ff" stroke="#63b8ff" points="362.28,-16.3 371.97,-12.02 361.73,-9.32 362.28,-16.3"/>
</a>
</g>
</g>
<!-- Node4 -->
<g id="Node000004" class="node">
<title>Node4</title>
<g id="a_Node000004"><a xlink:title=" ">
<polygon fill="#e0e0e0" stroke="#999999" points="481.5,-19 434.5,-19 434.5,0 481.5,0 481.5,-19"/>
<text text-anchor="middle" x="458" y="-7" font-family="Helvetica,sans-Serif" font-size="10.00">vector</text>
</a>
</g>
</g>
<!-- Node1&#45;&gt;Node4 -->
<g id="edge3_Node000001_Node000004" class="edge">
<title>Node1&#45;&gt;Node4</title>
<g id="a_edge3_Node000001_Node000004"><a xlink:title=" ">
<path fill="none" stroke="#63b8ff" d="M257.52,-307.67C252.03,-283.83 242,-234.43 242,-192 242,-192 242,-192 242,-124 242,-86.13 260.8,-76.47 292,-55 294.78,-53.08 376.8,-31.59 424.48,-19.19"/>
<polygon fill="#63b8ff" stroke="#63b8ff" points="425.58,-22.52 434.38,-16.61 423.82,-15.74 425.58,-22.52"/>
</a>
</g>
</g>
<!-- Node5 -->
<g id="Node000005" class="node">
<title>Node5</title>
<g id="a_Node000005"><a xlink:href="visibility_8hpp.html" target="_top" xlink:title=" ">
<polygon fill="white" stroke="#666666" points="1225,-19 1085,-19 1085,0 1225,0 1225,-19"/>
<text text-anchor="middle" x="1155" y="-7" font-family="Helvetica,sans-Serif" font-size="10.00">unilink/base/visibility.hpp</text>
</a>
</g>
</g>
<!-- Node1&#45;&gt;Node5 -->
<g id="edge4_Node000001_Node000005" class="edge">
<title>Node1&#45;&gt;Node5</title>
<g id="a_edge4_Node000001_Node000005"><a xlink:title=" ">
<path fill="none" stroke="#63b8ff" d="M324.55,-321.98C575.39,-321.08 1483,-309.68 1483,-192 1483,-192 1483,-192 1483,-124 1483,-72.18 1436.52,-75.68 1389,-55 1340.34,-33.82 1281.66,-22.69 1235.24,-16.86"/>
<polygon fill="#63b8ff" stroke="#63b8ff" points="1235.57,-13.37 1225.23,-15.66 1234.74,-20.32 1235.57,-13.37"/>
</a>
</g>
</g>
<!-- Node6 -->
<g id="Node000006" class="node">
<title>Node6</title>
<g id="a_Node000006"><a xlink:href="serial__config_8hpp.html" target="_top" xlink:title=" ">
<polygon fill="white" stroke="#666666" points="196,-272 84,-272 84,-242 196,-242 196,-272"/>
<text text-anchor="start" x="92" y="-260" font-family="Helvetica,sans-Serif" font-size="10.00">unilink/config/serial</text>
<text text-anchor="middle" x="140" y="-249" font-family="Helvetica,sans-Serif" font-size="10.00">_config.hpp</text>
</a>
</g>
</g>
<!-- Node1&#45;&gt;Node6 -->
<g id="edge5_Node000001_Node000006" class="edge">
<title>Node1&#45;&gt;Node6</title>
<g id="a_edge5_Node000001_Node000006"><a xlink:title=" ">
<path fill="none" stroke="#63b8ff" d="M234.45,-307.95C217.11,-298.78 194.27,-286.71 175.4,-276.72"/>
<polygon fill="#63b8ff" stroke="#63b8ff" points="176.97,-273.59 166.49,-272.01 173.7,-279.78 176.97,-273.59"/>
</a>
</g>
</g>
<!-- Node10 -->
<g id="Node000010" class="node">
<title>Node10</title>
<g id="a_Node000010"><a xlink:href="channel_8hpp.html" target="_top" xlink:title=" ">
<polygon fill="white" stroke="#666666" points="849,-266.5 691,-266.5 691,-247.5 849,-247.5 849,-266.5"/>
<text text-anchor="middle" x="770" y="-254.5" font-family="Helvetica,sans-Serif" font-size="10.00">unilink/interface/channel.hpp</text>
</a>
</g>
</g>
<!-- Node1&#45;&gt;Node10 -->
<g id="edge10_Node000001_Node000010" class="edge">
<title>Node1&#45;&gt;Node10</title>
<g id="a_edge10_Node000001_Node000010"><a xlink:title=" ">
<path fill="none" stroke="#63b8ff" d="M324.69,-313.99C417.92,-302.27 591.37,-280.46 692.07,-267.8"/>
<polygon fill="#63b8ff" stroke="#63b8ff" points="692.7,-271.25 702.19,-266.53 691.83,-264.3 692.7,-271.25"/>
</a>
</g>
</g>
<!-- Node6&#45;&gt;Node3 -->
<g id="edge6_Node000006_Node000003" class="edge">
<title>Node6&#45;&gt;Node3</title>
<g id="a_edge6_Node000006_Node000003"><a xlink:title=" ">
<path fill="none" stroke="#63b8ff" d="M99.56,-241.91C83.31,-234.02 66.27,-222.4 57,-206 33.63,-164.64 67.2,-140.05 104,-110 182.4,-45.98 304.35,-22.17 361.88,-14.16"/>
<polygon fill="#63b8ff" stroke="#63b8ff" points="362.4,-17.62 371.85,-12.84 361.48,-10.68 362.4,-17.62"/>
</a>
</g>
</g>
<!-- Node7 -->
<g id="Node000007" class="node">
<title>Node7</title>
<g id="a_Node000007"><a xlink:href="constants_8hpp.html" target="_top" xlink:title=" ">
<polygon fill="white" stroke="#666666" points="213.5,-200.5 66.5,-200.5 66.5,-181.5 213.5,-181.5 213.5,-200.5"/>
<text text-anchor="middle" x="140" y="-188.5" font-family="Helvetica,sans-Serif" font-size="10.00">unilink/base/constants.hpp</text>
</a>
</g>
</g>
<!-- Node6&#45;&gt;Node7 -->
<g id="edge7_Node000006_Node000007" class="edge">
<title>Node6&#45;&gt;Node7</title>
<g id="a_edge7_Node000006_Node000007"><a xlink:title=" ">
<path fill="none" stroke="#63b8ff" d="M140,-241.8C140,-232.7 140,-220.79 140,-210.9"/>
<polygon fill="#63b8ff" stroke="#63b8ff" points="143.5,-210.84 140,-200.84 136.5,-210.84 143.5,-210.84"/>
</a>
</g>
</g>
<!-- Node8 -->
<g id="Node000008" class="node">
<title>Node8</title>
<g id="a_Node000008"><a xlink:title=" ">
<polygon fill="#e0e0e0" stroke="#999999" points="166.5,-134.5 113.5,-134.5 113.5,-115.5 166.5,-115.5 166.5,-134.5"/>
<text text-anchor="middle" x="140" y="-122.5" font-family="Helvetica,sans-Serif" font-size="10.00">cstddef</text>
</a>
</g>
</g>
<!-- Node7&#45;&gt;Node8 -->
<g id="edge8_Node000007_Node000008" class="edge">
<title>Node7&#45;&gt;Node8</title>
<g id="a_edge8_Node000007_Node000008"><a xlink:title=" ">
<path fill="none" stroke="#63b8ff" d="M140,-181.37C140,-172.16 140,-157.29 140,-145.27"/>
<polygon fill="#63b8ff" stroke="#63b8ff" points="143.5,-144.91 140,-134.91 136.5,-144.91 143.5,-144.91"/>
</a>
</g>
</g>
<!-- Node9 -->
<g id="Node000009" class="node">
<title>Node9</title>
<g id="a_Node000009"><a xlink:title=" ">
<polygon fill="#e0e0e0" stroke="#999999" points="1132,-134.5 1082,-134.5 1082,-115.5 1132,-115.5 1132,-134.5"/>
<text text-anchor="middle" x="1107" y="-122.5" font-family="Helvetica,sans-Serif" font-size="10.00">cstdint</text>
</a>
</g>
</g>
<!-- Node7&#45;&gt;Node9 -->
<g id="edge9_Node000007_Node000009" class="edge">
<title>Node7&#45;&gt;Node9</title>
<g id="a_edge9_Node000007_Node000009"><a xlink:title=" ">
<path fill="none" stroke="#63b8ff" d="M213.53,-189.24C403.97,-186.77 909.83,-176.84 1073,-140 1075.23,-139.5 1077.49,-138.86 1079.75,-138.14"/>
<polygon fill="#63b8ff" stroke="#63b8ff" points="1081.21,-141.33 1089.37,-134.58 1078.78,-134.77 1081.21,-141.33"/>
</a>
</g>
</g>
<!-- Node10&#45;&gt;Node2 -->
<g id="edge12_Node000010_Node000002" class="edge">
<title>Node10&#45;&gt;Node2</title>
<g id="a_edge12_Node000010_Node000002"><a xlink:title=" ">
<path fill="none" stroke="#63b8ff" d="M733.35,-247.49C669.84,-231.86 536.3,-195.05 434,-140 403.35,-123.51 372.19,-97.6 353.73,-81.09"/>
<polygon fill="#63b8ff" stroke="#63b8ff" points="355.95,-78.37 346.19,-74.23 351.24,-83.55 355.95,-78.37"/>
</a>
</g>
</g>
<!-- Node10&#45;&gt;Node4 -->
<g id="edge13_Node000010_Node000004" class="edge">
<title>Node10&#45;&gt;Node4</title>
<g id="a_edge13_Node000010_Node000004"><a xlink:title=" ">
<path fill="none" stroke="#63b8ff" d="M690.68,-254.83C576.03,-248.14 369.96,-215.92 299,-74 295.22,-66.45 293.9,-61.73 299,-55 300.94,-52.44 378.27,-31.61 424.36,-19.37"/>
<polygon fill="#63b8ff" stroke="#63b8ff" points="425.46,-22.7 434.23,-16.76 423.67,-15.94 425.46,-22.7"/>
</a>
</g>
</g>
<!-- Node10&#45;&gt;Node5 -->
<g id="edge48_Node000010_Node000005" class="edge">
<title>Node10&#45;&gt;Node5</title>
<g id="a_edge48_Node000010_Node000005"><a xlink:title=" ">
<path fill="none" stroke="#63b8ff" d="M849.25,-254.58C981.31,-251.27 1240.15,-240.46 1324,-206 1366.63,-188.48 1384.35,-181.69 1404,-140 1438.92,-65.91 1320.63,-33.29 1235.27,-19.61"/>
<polygon fill="#63b8ff" stroke="#63b8ff" points="1235.71,-16.14 1225.3,-18.08 1234.65,-23.06 1235.71,-16.14"/>
</a>
</g>
</g>
<!-- Node11 -->
<g id="Node000011" class="node">
<title>Node11</title>
<g id="a_Node000011"><a xlink:title=" ">
<polygon fill="#e0e0e0" stroke="#999999" points="1169.5,-74 1104.5,-74 1104.5,-55 1169.5,-55 1169.5,-74"/>
<text text-anchor="middle" x="1137" y="-62" font-family="Helvetica,sans-Serif" font-size="10.00">functional</text>
</a>
</g>
</g>
<!-- Node10&#45;&gt;Node11 -->
<g id="edge11_Node000010_Node000011" class="edge">
<title>Node10&#45;&gt;Node11</title>
<g id="a_edge11_Node000010_Node000011"><a xlink:title=" ">
<path fill="none" stroke="#63b8ff" d="M849.2,-254.72C1002.87,-250.23 1331.42,-230.07 1388,-140 1395.09,-128.71 1396.57,-120.22 1388,-110 1361.94,-78.92 1244.52,-69.53 1179.93,-66.71"/>
<polygon fill="#63b8ff" stroke="#63b8ff" points="1179.79,-63.2 1169.66,-66.29 1179.51,-70.19 1179.79,-63.2"/>
</a>
</g>
</g>
<!-- Node12 -->
<g id="Node000012" class="node">
<title>Node12</title>
<g id="a_Node000012"><a xlink:href="common_8hpp.html" target="_top" xlink:title=" ">
<polygon fill="white" stroke="#666666" points="841.5,-200.5 698.5,-200.5 698.5,-181.5 841.5,-181.5 841.5,-200.5"/>
<text text-anchor="middle" x="770" y="-188.5" font-family="Helvetica,sans-Serif" font-size="10.00">unilink/base/common.hpp</text>
</a>
</g>
</g>
<!-- Node10&#45;&gt;Node12 -->
<g id="edge14_Node000010_Node000012" class="edge">
<title>Node10&#45;&gt;Node12</title>
<g id="a_edge14_Node000010_Node000012"><a xlink:title=" ">
<path fill="none" stroke="#63b8ff" d="M770,-247.37C770,-238.16 770,-223.29 770,-211.27"/>
<polygon fill="#63b8ff" stroke="#63b8ff" points="773.5,-210.91 770,-200.91 766.5,-210.91 773.5,-210.91"/>
</a>
</g>
</g>
<!-- Node28 -->
<g id="Node000028" class="node">
<title>Node28</title>
<g id="a_Node000028"><a xlink:href="safe__span_8hpp.html" target="_top" xlink:title=" ">
<polygon fill="white" stroke="#666666" points="1242,-206 1124,-206 1124,-176 1242,-176 1242,-206"/>
<text text-anchor="start" x="1132" y="-194" font-family="Helvetica,sans-Serif" font-size="10.00">unilink/memory/safe</text>
<text text-anchor="middle" x="1183" y="-183" font-family="Helvetica,sans-Serif" font-size="10.00">_span.hpp</text>
</a>
</g>
</g>
<!-- Node10&#45;&gt;Node28 -->
<g id="edge49_Node000010_Node000028" class="edge">
<title>Node10&#45;&gt;Node28</title>
<g id="a_edge49_Node000010_Node000028"><a xlink:title=" ">
<path fill="none" stroke="#63b8ff" d="M825.27,-247.44C899.78,-235.89 1032.45,-215.33 1113.6,-202.76"/>
<polygon fill="#63b8ff" stroke="#63b8ff" points="1114.37,-206.18 1123.72,-201.19 1113.3,-199.26 1114.37,-206.18"/>
</a>
</g>
</g>
<!-- Node12&#45;&gt;Node3 -->
<g id="edge24_Node000012_Node000003" class="edge">
<title>Node12&#45;&gt;Node3</title>
<g id="a_edge24_Node000012_Node000003"><a xlink:title=" ">
<path fill="none" stroke="#63b8ff" d="M698.21,-185.36C620.41,-179.11 502.47,-165.66 466,-140 427.37,-112.82 407.11,-58 398.75,-29.18"/>
<polygon fill="#63b8ff" stroke="#63b8ff" points="402.03,-27.93 396.03,-19.2 395.28,-29.77 402.03,-27.93"/>
</a>
</g>
</g>
<!-- Node12&#45;&gt;Node4 -->
<g id="edge27_Node000012_Node000004" class="edge">
<title>Node12&#45;&gt;Node4</title>
<g id="a_edge27_Node000012_Node000004"><a xlink:title=" ">
<path fill="none" stroke="#63b8ff" d="M698.46,-189.38C642.58,-185.97 564.81,-174.58 506,-140 473.09,-120.64 464,-109.9 451,-74 445.69,-59.33 448.33,-41.62 451.78,-28.63"/>
<polygon fill="#63b8ff" stroke="#63b8ff" points="455.15,-29.59 454.72,-19 448.45,-27.55 455.15,-29.59"/>
</a>
</g>
</g>
<!-- Node12&#45;&gt;Node9 -->
<g id="edge16_Node000012_Node000009" class="edge">
<title>Node12&#45;&gt;Node9</title>
<g id="a_edge16_Node000012_Node000009"><a xlink:title=" ">
<path fill="none" stroke="#63b8ff" d="M841.72,-182.82C903.76,-175.51 995.44,-162.06 1073,-140 1074.89,-139.46 1076.81,-138.85 1078.74,-138.2"/>
<polygon fill="#63b8ff" stroke="#63b8ff" points="1080.09,-141.43 1088.21,-134.63 1077.62,-134.88 1080.09,-141.43"/>
</a>
</g>
</g>
<!-- Node12&#45;&gt;Node11 -->
<g id="edge19_Node000012_Node000011" class="edge">
<title>Node12&#45;&gt;Node11</title>
<g id="a_edge19_Node000012_Node000011"><a xlink:title=" ">
<path fill="none" stroke="#63b8ff" d="M841.89,-185.34C944.2,-177.97 1121.64,-162.14 1141,-140 1154.29,-124.8 1149.91,-100.49 1144.46,-83.8"/>
<polygon fill="#63b8ff" stroke="#63b8ff" points="1147.63,-82.28 1140.89,-74.11 1141.06,-84.7 1147.63,-82.28"/>
</a>
</g>
</g>
<!-- Node13 -->
<g id="Node000013" class="node">
<title>Node13</title>
<g id="a_Node000013"><a xlink:title=" ">
<polygon fill="#e0e0e0" stroke="#999999" points="1067,-19 1017,-19 1017,0 1067,0 1067,-19"/>
<text text-anchor="middle" x="1042" y="-7" font-family="Helvetica,sans-Serif" font-size="10.00">chrono</text>
</a>
</g>
</g>
<!-- Node12&#45;&gt;Node13 -->
<g id="edge15_Node000012_Node000013" class="edge">
<title>Node12&#45;&gt;Node13</title>
<g id="a_edge15_Node000012_Node000013"><a xlink:title=" ">
<path fill="none" stroke="#63b8ff" d="M841.78,-189.83C940.83,-188.12 1112.48,-179.36 1159,-140 1188.63,-114.93 1201.81,-86.4 1179,-55 1172.81,-46.48 1115.45,-29.91 1076.94,-19.57"/>
<polygon fill="#63b8ff" stroke="#63b8ff" points="1077.68,-16.14 1067.12,-16.95 1075.88,-22.91 1077.68,-16.14"/>
</a>
</g>
</g>
<!-- Node14 -->
<g id="Node000014" class="node">
<title>Node14</title>
<g id="a_Node000014"><a xlink:title=" ">
<polygon fill="#e0e0e0" stroke="#999999" points="586,-134.5 536,-134.5 536,-115.5 586,-115.5 586,-134.5"/>
<text text-anchor="middle" x="561" y="-122.5" font-family="Helvetica,sans-Serif" font-size="10.00">cstring</text>
</a>
</g>
</g>
<!-- Node12&#45;&gt;Node14 -->
<g id="edge17_Node000012_Node000014" class="edge">
<title>Node12&#45;&gt;Node14</title>
<g id="a_edge17_Node000012_Node000014"><a xlink:title=" ">
<path fill="none" stroke="#63b8ff" d="M735.77,-181.44C700.23,-172.27 643.2,-156.75 595,-140 593.38,-139.44 591.73,-138.84 590.07,-138.22"/>
<polygon fill="#63b8ff" stroke="#63b8ff" points="591.22,-134.91 580.63,-134.52 588.67,-141.43 591.22,-134.91"/>
</a>
</g>
</g>
<!-- Node15 -->
<g id="Node000015" class="node">
<title>Node15</title>
<g id="a_Node000015"><a xlink:title=" ">
<polygon fill="#e0e0e0" stroke="#999999" points="648,-134.5 604,-134.5 604,-115.5 648,-115.5 648,-134.5"/>
<text text-anchor="middle" x="626" y="-122.5" font-family="Helvetica,sans-Serif" font-size="10.00">ctime</text>
</a>
</g>
</g>
<!-- Node12&#45;&gt;Node15 -->
<g id="edge18_Node000012_Node000015" class="edge">
<title>Node12&#45;&gt;Node15</title>
<g id="a_edge18_Node000012_Node000015"><a xlink:title=" ">
<path fill="none" stroke="#63b8ff" d="M750.38,-181.37C727.83,-171.44 689.71,-154.62 657,-140 656.15,-139.62 655.29,-139.23 654.42,-138.84"/>
<polygon fill="#63b8ff" stroke="#63b8ff" points="655.56,-135.52 645.01,-134.61 652.69,-141.91 655.56,-135.52"/>
</a>
</g>
</g>
<!-- Node16 -->
<g id="Node000016" class="node">
<title>Node16</title>
<g id="a_Node000016"><a xlink:title=" ">
<polygon fill="#e0e0e0" stroke="#999999" points="722,-134.5 666,-134.5 666,-115.5 722,-115.5 722,-134.5"/>
<text text-anchor="middle" x="694" y="-122.5" font-family="Helvetica,sans-Serif" font-size="10.00">iomanip</text>
</a>
</g>
</g>
<!-- Node12&#45;&gt;Node16 -->
<g id="edge20_Node000012_Node000016" class="edge">
<title>Node12&#45;&gt;Node16</title>
<g id="a_edge20_Node000012_Node000016"><a xlink:title=" ">
<path fill="none" stroke="#63b8ff" d="M759.75,-181.37C747.69,-171.21 727.44,-154.16 712.59,-141.65"/>
<polygon fill="#63b8ff" stroke="#63b8ff" points="714.48,-138.67 704.57,-134.91 709.97,-144.02 714.48,-138.67"/>
</a>
</g>
</g>
<!-- Node17 -->
<g id="Node000017" class="node">
<title>Node17</title>
<g id="a_Node000017"><a xlink:title=" ">
<polygon fill="#e0e0e0" stroke="#999999" points="800,-134.5 740,-134.5 740,-115.5 800,-115.5 800,-134.5"/>
<text text-anchor="middle" x="770" y="-122.5" font-family="Helvetica,sans-Serif" font-size="10.00">iostream</text>
</a>
</g>
</g>
<!-- Node12&#45;&gt;Node17 -->
<g id="edge21_Node000012_Node000017" class="edge">
<title>Node12&#45;&gt;Node17</title>
<g id="a_edge21_Node000012_Node000017"><a xlink:title=" ">
<path fill="none" stroke="#63b8ff" d="M770,-181.37C770,-172.16 770,-157.29 770,-145.27"/>
<polygon fill="#63b8ff" stroke="#63b8ff" points="773.5,-144.91 770,-134.91 766.5,-144.91 773.5,-144.91"/>
</a>
</g>
</g>
<!-- Node18 -->
<g id="Node000018" class="node">
<title>Node18</title>
<g id="a_Node000018"><a xlink:title=" ">
<polygon fill="#e0e0e0" stroke="#999999" points="874,-134.5 818,-134.5 818,-115.5 874,-115.5 874,-134.5"/>
<text text-anchor="middle" x="846" y="-122.5" font-family="Helvetica,sans-Serif" font-size="10.00">sstream</text>
</a>
</g>
</g>
<!-- Node12&#45;&gt;Node18 -->
<g id="edge22_Node000012_Node000018" class="edge">
<title>Node12&#45;&gt;Node18</title>
<g id="a_edge22_Node000012_Node000018"><a xlink:title=" ">
<path fill="none" stroke="#63b8ff" d="M780.25,-181.37C792.31,-171.21 812.56,-154.16 827.41,-141.65"/>
<polygon fill="#63b8ff" stroke="#63b8ff" points="830.03,-144.02 835.43,-134.91 825.52,-138.67 830.03,-144.02"/>
</a>
</g>
</g>
<!-- Node19 -->
<g id="Node000019" class="node">
<title>Node19</title>
<g id="a_Node000019"><a xlink:title=" ">
<polygon fill="#e0e0e0" stroke="#999999" points="1291.5,-134.5 1226.5,-134.5 1226.5,-115.5 1291.5,-115.5 1291.5,-134.5"/>
<text text-anchor="middle" x="1259" y="-122.5" font-family="Helvetica,sans-Serif" font-size="10.00">stdexcept</text>
</a>
</g>
</g>
<!-- Node12&#45;&gt;Node19 -->
<g id="edge23_Node000012_Node000019" class="edge">
<title>Node12&#45;&gt;Node19</title>
<g id="a_edge23_Node000012_Node000019"><a xlink:title=" ">
<path fill="none" stroke="#63b8ff" d="M841.8,-185.79C929.76,-179.74 1082.98,-166.3 1212,-140 1215.72,-139.24 1219.58,-138.32 1223.4,-137.32"/>
<polygon fill="#63b8ff" stroke="#63b8ff" points="1224.67,-140.6 1233.35,-134.53 1222.78,-133.86 1224.67,-140.6"/>
</a>
</g>
</g>
<!-- Node20 -->
<g id="Node000020" class="node">
<title>Node20</title>
<g id="a_Node000020"><a xlink:title=" ">
<polygon fill="#e0e0e0" stroke="#999999" points="694.5,-74 621.5,-74 621.5,-55 694.5,-55 694.5,-74"/>
<text text-anchor="middle" x="658" y="-62" font-family="Helvetica,sans-Serif" font-size="10.00">string_view</text>
</a>
</g>
</g>
<!-- Node12&#45;&gt;Node20 -->
<g id="edge25_Node000012_Node000020" class="edge">
<title>Node12&#45;&gt;Node20</title>
<g id="a_edge25_Node000012_Node000020"><a xlink:title=" ">
<path fill="none" stroke="#63b8ff" d="M698.36,-185.08C634.64,-179.03 548.33,-166.16 527,-140 499.45,-106.21 563.28,-84.84 611.19,-74.04"/>
<polygon fill="#63b8ff" stroke="#63b8ff" points="612.1,-77.43 621.14,-71.9 610.63,-70.58 612.1,-77.43"/>
</a>
</g>
</g>
<!-- Node21 -->
<g id="Node000021" class="node">
<title>Node21</title>
<g id="a_Node000021"><a xlink:title=" ">
<polygon fill="#e0e0e0" stroke="#999999" points="937.5,-134.5 892.5,-134.5 892.5,-115.5 937.5,-115.5 937.5,-134.5"/>
<text text-anchor="middle" x="915" y="-122.5" font-family="Helvetica,sans-Serif" font-size="10.00">utility</text>
</a>
</g>
</g>
<!-- Node12&#45;&gt;Node21 -->
<g id="edge26_Node000012_Node000021" class="edge">
<title>Node12&#45;&gt;Node21</title>
<g id="a_edge26_Node000012_Node000021"><a xlink:title=" ">
<path fill="none" stroke="#63b8ff" d="M789.56,-181.37C814.31,-170.44 857.17,-151.52 885.81,-138.88"/>
<polygon fill="#63b8ff" stroke="#63b8ff" points="887.56,-141.94 895.29,-134.7 884.73,-135.54 887.56,-141.94"/>
</a>
</g>
</g>
<!-- Node22 -->
<g id="Node000022" class="node">
<title>Node22</title>
<g id="a_Node000022"><a xlink:href="platform_8hpp.html" target="_top" xlink:title=" ">
<polygon fill="white" stroke="#666666" points="602,-74 460,-74 460,-55 602,-55 602,-74"/>
<text text-anchor="middle" x="531" y="-62" font-family="Helvetica,sans-Serif" font-size="10.00">unilink/base/platform.hpp</text>
</a>
</g>
</g>
<!-- Node12&#45;&gt;Node22 -->
<g id="edge28_Node000012_Node000022" class="edge">
<title>Node12&#45;&gt;Node22</title>
<g id="a_edge28_Node000012_Node000022"><a xlink:title=" ">
<path fill="none" stroke="#63b8ff" d="M698.32,-185.82C631.47,-180.24 538.73,-167.64 516,-140 502.95,-124.13 511.32,-100.01 519.89,-83.54"/>
<polygon fill="#63b8ff" stroke="#63b8ff" points="523.17,-84.85 525.05,-74.42 517.08,-81.4 523.17,-84.85"/>
</a>
</g>
</g>
<!-- Node23 -->
<g id="Node000023" class="node">
<title>Node23</title>
<g id="a_Node000023"><a xlink:href="logger_8hpp.html" target="_top" xlink:title=" ">
<polygon fill="white" stroke="#666666" points="1064,-140 956,-140 956,-110 1064,-110 1064,-140"/>
<text text-anchor="start" x="964" y="-128" font-family="Helvetica,sans-Serif" font-size="10.00">unilink/diagnostics</text>
<text text-anchor="middle" x="1010" y="-117" font-family="Helvetica,sans-Serif" font-size="10.00">/logger.hpp</text>
</a>
</g>
</g>
<!-- Node12&#45;&gt;Node23 -->
<g id="edge31_Node000012_Node000023" class="edge">
<title>Node12&#45;&gt;Node23</title>
<g id="a_edge31_Node000012_Node000023"><a xlink:title=" ">
<path fill="none" stroke="#63b8ff" d="M802.37,-181.37C839.4,-171.49 900.91,-155.09 947.39,-142.7"/>
<polygon fill="#63b8ff" stroke="#63b8ff" points="948.31,-146.07 957.07,-140.12 946.5,-139.31 948.31,-146.07"/>
</a>
</g>
</g>
<!-- Node22&#45;&gt;Node3 -->
<g id="edge29_Node000022_Node000003" class="edge">
<title>Node22&#45;&gt;Node3</title>
<g id="a_edge29_Node000022_Node000003"><a xlink:title=" ">
<path fill="none" stroke="#63b8ff" d="M508.99,-54.98C486.55,-46.3 451.52,-32.75 426.01,-22.88"/>
<polygon fill="#63b8ff" stroke="#63b8ff" points="427,-19.51 416.41,-19.17 424.48,-26.04 427,-19.51"/>
</a>
</g>
</g>
<!-- Node22&#45;&gt;Node5 -->
<g id="edge30_Node000022_Node000005" class="edge">
<title>Node22&#45;&gt;Node5</title>
<g id="a_edge30_Node000022_Node000005"><a xlink:title=" ">
<path fill="none" stroke="#63b8ff" d="M602.1,-56.02C605.79,-55.66 609.44,-55.32 613,-55 815.24,-36.66 868.77,-37.99 1074.56,-19.11"/>
<polygon fill="#63b8ff" stroke="#63b8ff" points="1075.16,-22.57 1084.8,-18.16 1074.52,-15.6 1075.16,-22.57"/>
</a>
</g>
</g>
<!-- Node23&#45;&gt;Node2 -->
<g id="edge35_Node000023_Node000002" class="edge">
<title>Node23&#45;&gt;Node2</title>
<g id="a_edge35_Node000023_Node000002"><a xlink:title=" ">
<path fill="none" stroke="#63b8ff" d="M955.8,-111.43C952.83,-110.9 949.88,-110.42 947,-110 728.31,-77.94 671.43,-90.22 451,-74 426.05,-72.16 398.04,-70.08 376.02,-68.43"/>
<polygon fill="#63b8ff" stroke="#63b8ff" points="376.28,-64.94 366.05,-67.68 375.76,-71.92 376.28,-64.94"/>
</a>
</g>
</g>
<!-- Node23&#45;&gt;Node3 -->
<g id="edge36_Node000023_Node000003" class="edge">
<title>Node23&#45;&gt;Node3</title>
<g id="a_edge36_Node000023_Node000003"><a xlink:title=" ">
<path fill="none" stroke="#63b8ff" d="M955.71,-111.92C952.76,-111.27 949.85,-110.62 947,-110 873.26,-93.81 854.54,-91.04 781,-74 746.66,-66.04 738.65,-61.49 704,-55 584.23,-32.57 549.35,-43.02 426.08,-18.96"/>
<polygon fill="#63b8ff" stroke="#63b8ff" points="426.75,-15.52 416.26,-17 425.39,-22.39 426.75,-15.52"/>
</a>
</g>
</g>
<!-- Node23&#45;&gt;Node4 -->
<g id="edge38_Node000023_Node000004" class="edge">
<title>Node23&#45;&gt;Node4</title>
<g id="a_edge38_Node000023_Node000004"><a xlink:title=" ">
<path fill="none" stroke="#63b8ff" d="M970.37,-110C925.1,-94.49 848.55,-69.74 781,-55 676.87,-32.28 551.19,-18.91 491.99,-13.43"/>
<polygon fill="#63b8ff" stroke="#63b8ff" points="492,-9.91 481.73,-12.49 491.37,-16.88 492,-9.91"/>
</a>
</g>
</g>
<!-- Node23&#45;&gt;Node5 -->
<g id="edge47_Node000023_Node000005" class="edge">
<title>Node23&#45;&gt;Node5</title>
<g id="a_edge47_Node000023_Node000005"><a xlink:title=" ">
<path fill="none" stroke="#63b8ff" d="M1027.34,-109.84C1044.62,-95.78 1071.98,-73.69 1096,-55 1108.91,-44.96 1123.6,-33.88 1135.09,-25.29"/>
<polygon fill="#63b8ff" stroke="#63b8ff" points="1137.24,-28.05 1143.17,-19.26 1133.06,-22.43 1137.24,-28.05"/>
</a>
</g>
</g>
<!-- Node23&#45;&gt;Node11 -->
<g id="edge34_Node000023_Node000011" class="edge">
<title>Node23&#45;&gt;Node11</title>
<g id="a_edge34_Node000023_Node000011"><a xlink:title=" ">
<path fill="none" stroke="#63b8ff" d="M1040.42,-109.99C1061.23,-100.4 1088.62,-87.79 1108.91,-78.44"/>
<polygon fill="#63b8ff" stroke="#63b8ff" points="1110.63,-81.5 1118.24,-74.14 1107.7,-75.14 1110.63,-81.5"/>
</a>
</g>
</g>
<!-- Node23&#45;&gt;Node13 -->
<g id="edge33_Node000023_Node000013" class="edge">
<title>Node23&#45;&gt;Node13</title>
<g id="a_edge33_Node000023_Node000013"><a xlink:title=" ">
<path fill="none" stroke="#63b8ff" d="M1014.05,-109.63C1019.83,-89.12 1030.45,-51.47 1036.8,-28.93"/>
<polygon fill="#63b8ff" stroke="#63b8ff" points="1040.19,-29.8 1039.54,-19.23 1033.46,-27.9 1040.19,-29.8"/>
</a>
</g>
</g>
<!-- Node23&#45;&gt;Node20 -->
<g id="edge37_Node000023_Node000020" class="edge">
<title>Node23&#45;&gt;Node20</title>
<g id="a_edge37_Node000023_Node000020"><a xlink:title=" ">
<path fill="none" stroke="#63b8ff" d="M955.75,-111.71C952.79,-111.11 949.86,-110.54 947,-110 861.99,-94.03 762.11,-79.6 704.82,-71.74"/>
<polygon fill="#63b8ff" stroke="#63b8ff" points="705.01,-68.24 694.63,-70.35 704.06,-75.17 705.01,-68.24"/>
</a>
</g>
</g>
<!-- Node24 -->
<g id="Node000024" class="node">
<title>Node24</title>
<g id="a_Node000024"><a xlink:title=" ">
<polygon fill="#e0e0e0" stroke="#999999" points="999,-19 949,-19 949,0 999,0 999,-19"/>
<text text-anchor="middle" x="974" y="-7" font-family="Helvetica,sans-Serif" font-size="10.00">atomic</text>
</a>
</g>
</g>
<!-- Node23&#45;&gt;Node24 -->
<g id="edge32_Node000023_Node000024" class="edge">
<title>Node23&#45;&gt;Node24</title>
<g id="a_edge32_Node000023_Node000024"><a xlink:title=" ">
<path fill="none" stroke="#63b8ff" d="M1005.44,-109.63C998.94,-89.12 986.99,-51.47 979.85,-28.93"/>
<polygon fill="#63b8ff" stroke="#63b8ff" points="983.13,-27.7 976.77,-19.23 976.46,-29.82 983.13,-27.7"/>
</a>
</g>
</g>
<!-- Node25 -->
<g id="Node000025" class="node">
<title>Node25</title>
<g id="a_Node000025"><a xlink:href="log__rotation_8hpp.html" target="_top" xlink:title=" ">
<polygon fill="white" stroke="#666666" points="962,-74 866,-74 866,-55 962,-55 962,-74"/>
<text text-anchor="middle" x="914" y="-62" font-family="Helvetica,sans-Serif" font-size="10.00">log_rotation.hpp</text>
</a>
</g>
</g>
<!-- Node23&#45;&gt;Node25 -->
<g id="edge39_Node000023_Node000025" class="edge">
<title>Node23&#45;&gt;Node25</title>
<g id="a_edge39_Node000023_Node000025"><a xlink:title=" ">
<path fill="none" stroke="#63b8ff" d="M986.76,-109.84C971.6,-100.6 951.89,-88.59 936.81,-79.4"/>
<polygon fill="#63b8ff" stroke="#63b8ff" points="938.46,-76.31 928.1,-74.09 934.82,-82.29 938.46,-76.31"/>
</a>
</g>
</g>
<!-- Node25&#45;&gt;Node3 -->
<g id="edge44_Node000025_Node000003" class="edge">
<title>Node25&#45;&gt;Node3</title>
<g id="a_edge44_Node000025_Node000003"><a xlink:title=" ">
<path fill="none" stroke="#63b8ff" d="M865.68,-60.2C763.16,-53.02 525.75,-35.43 426.27,-18.86"/>
<polygon fill="#63b8ff" stroke="#63b8ff" points="426.7,-15.38 416.24,-17.11 425.49,-22.28 426.7,-15.38"/>
</a>
</g>
</g>
<!-- Node25&#45;&gt;Node4 -->
<g id="edge45_Node000025_Node000004" class="edge">
<title>Node25&#45;&gt;Node4</title>
<g id="a_edge45_Node000025_Node000004"><a xlink:title=" ">
<path fill="none" stroke="#63b8ff" d="M865.7,-57.87C857.46,-56.92 848.98,-55.93 841,-55 711.93,-39.99 558.39,-22.16 491.7,-14.41"/>
<polygon fill="#63b8ff" stroke="#63b8ff" points="492.09,-10.93 481.75,-13.26 491.28,-17.89 492.09,-10.93"/>
</a>
</g>
</g>
<!-- Node25&#45;&gt;Node5 -->
<g id="edge46_Node000025_Node000005" class="edge">
<title>Node25&#45;&gt;Node5</title>
<g id="a_edge46_Node000025_Node000005"><a xlink:title=" ">
<path fill="none" stroke="#63b8ff" d="M952.72,-54.98C994.41,-45.82 1060.82,-31.21 1106.09,-21.26"/>
<polygon fill="#63b8ff" stroke="#63b8ff" points="1106.96,-24.65 1115.98,-19.08 1105.46,-17.81 1106.96,-24.65"/>
</a>
</g>
</g>
<!-- Node25&#45;&gt;Node13 -->
<g id="edge41_Node000025_Node000013" class="edge">
<title>Node25&#45;&gt;Node13</title>
<g id="a_edge41_Node000025_Node000013"><a xlink:title=" ">
<path fill="none" stroke="#63b8ff" d="M934.57,-54.98C955.43,-46.34 987.97,-32.87 1011.77,-23.02"/>
<polygon fill="#63b8ff" stroke="#63b8ff" points="1013.16,-26.23 1021.06,-19.17 1010.48,-19.76 1013.16,-26.23"/>
</a>
</g>
</g>
<!-- Node25&#45;&gt;Node24 -->
<g id="edge40_Node000025_Node000024" class="edge">
<title>Node25&#45;&gt;Node24</title>
<g id="a_edge40_Node000025_Node000024"><a xlink:title=" ">
<path fill="none" stroke="#63b8ff" d="M923.64,-54.98C932.51,-47.15 945.87,-35.34 956.61,-25.86"/>
<polygon fill="#63b8ff" stroke="#63b8ff" points="959.01,-28.41 964.18,-19.17 954.37,-23.17 959.01,-28.41"/>
</a>
</g>
</g>
<!-- Node26 -->
<g id="Node000026" class="node">
<title>Node26</title>
<g id="a_Node000026"><a xlink:title=" ">
<polygon fill="#e0e0e0" stroke="#999999" points="865,-19 797,-19 797,0 865,0 865,-19"/>
<text text-anchor="middle" x="831" y="-7" font-family="Helvetica,sans-Serif" font-size="10.00">filesystem</text>
</a>
</g>
</g>
<!-- Node25&#45;&gt;Node26 -->
<g id="edge42_Node000025_Node000026" class="edge">
<title>Node25&#45;&gt;Node26</title>
<g id="a_edge42_Node000025_Node000026"><a xlink:title=" ">
<path fill="none" stroke="#63b8ff" d="M900.66,-54.98C887.91,-46.84 868.45,-34.41 853.33,-24.76"/>
<polygon fill="#63b8ff" stroke="#63b8ff" points="854.89,-21.6 844.58,-19.17 851.12,-27.5 854.89,-21.6"/>
</a>
</g>
</g>
<!-- Node27 -->
<g id="Node000027" class="node">
<title>Node27</title>
<g id="a_Node000027"><a xlink:title=" ">
<polygon fill="#e0e0e0" stroke="#999999" points="931,-19 883,-19 883,0 931,0 931,-19"/>
<text text-anchor="middle" x="907" y="-7" font-family="Helvetica,sans-Serif" font-size="10.00">mutex</text>
</a>
</g>
</g>
<!-- Node25&#45;&gt;Node27 -->
<g id="edge43_Node000025_Node000027" class="edge">
<title>Node25&#45;&gt;Node27</title>
<g id="a_edge43_Node000025_Node000027"><a xlink:title=" ">
<path fill="none" stroke="#63b8ff" d="M912.84,-54.75C911.93,-47.8 910.61,-37.85 909.46,-29.13"/>
<polygon fill="#63b8ff" stroke="#63b8ff" points="912.91,-28.54 908.13,-19.09 905.97,-29.46 912.91,-28.54"/>
</a>
</g>
</g>
<!-- Node28&#45;&gt;Node9 -->
<g id="edge50_Node000028_Node000009" class="edge">
<title>Node28&#45;&gt;Node9</title>
<g id="a_edge50_Node000028_Node000009"><a xlink:title=" ">
<path fill="none" stroke="#63b8ff" d="M1166.13,-175.8C1154.05,-165.62 1137.79,-151.93 1125.38,-141.48"/>
<polygon fill="#63b8ff" stroke="#63b8ff" points="1127.41,-138.61 1117.5,-134.84 1122.9,-143.96 1127.41,-138.61"/>
</a>
</g>
</g>
<!-- Node28&#45;&gt;Node19 -->
<g id="edge51_Node000028_Node000019" class="edge">
<title>Node28&#45;&gt;Node19</title>
<g id="a_edge51_Node000028_Node000019"><a xlink:title=" ">
<path fill="none" stroke="#63b8ff" d="M1199.87,-175.8C1211.95,-165.62 1228.21,-151.93 1240.62,-141.48"/>
<polygon fill="#63b8ff" stroke="#63b8ff" points="1243.1,-143.96 1248.5,-134.84 1238.59,-138.61 1243.1,-143.96"/>
</a>
</g>
</g>
<!-- Node29 -->
<g id="Node000029" class="node">
<title>Node29</title>
<g id="a_Node000029"><a xlink:title=" ">
<polygon fill="#e0e0e0" stroke="#999999" points="1378.5,-134.5 1309.5,-134.5 1309.5,-115.5 1378.5,-115.5 1378.5,-134.5"/>
<text text-anchor="middle" x="1344" y="-122.5" font-family="Helvetica,sans-Serif" font-size="10.00">type_traits</text>
</a>
</g>
</g>
<!-- Node28&#45;&gt;Node29 -->
<g id="edge52_Node000028_Node000029" class="edge">
<title>Node28&#45;&gt;Node29</title>
<g id="a_edge52_Node000028_Node000029"><a xlink:title=" ">
<path fill="none" stroke="#63b8ff" d="M1218.33,-175.95C1246.69,-164.68 1286.11,-149.01 1313.2,-138.25"/>
<polygon fill="#63b8ff" stroke="#63b8ff" points="1314.57,-141.46 1322.57,-134.52 1311.99,-134.96 1314.57,-141.46"/>
</a>
</g>
</g>
</g>
</svg>
