<?xml version="1.0" encoding="UTF-8" standalone="no"?>
<!DOCTYPE svg PUBLIC "-//W3C//DTD SVG 1.1//EN"
 "http://www.w3.org/Graphics/SVG/1.1/DTD/svg11.dtd">
<!-- Generated by graphviz version 2.43.0 (0)
 -->
<!-- Title: unilink/transport/serial/serial.hpp Pages: 1 -->
<svg width="1436pt" height="346pt"
 viewBox="0.00 0.00 1436.00 346.00" xmlns="http://www.w3.org/2000/svg" xmlns:xlink="http://www.w3.org/1999/xlink">
<g id="graph0" class="graph" transform="scale(1 1) rotate(0) translate(4 342)">
<title>unilink/transport/serial/serial.hpp</title>
<!-- Node1 -->
<g id="Node000001" class="node">
<title>Node1</title>
<g id="a_Node000001"><a xlink:title=" ">
<polygon fill="#999999" stroke="#666666" points="417.5,-338 290.5,-338 290.5,-308 417.5,-308 417.5,-338"/>
<text text-anchor="start" x="298.5" y="-326" font-family="Helvetica,sans-Serif" font-size="10.00">unilink/transport/serial</text>
<text text-anchor="middle" x="354" y="-315" font-family="Helvetica,sans-Serif" font-size="10.00">/serial.hpp</text>
</a>
</g>
</g>
<!-- Node2 -->
<g id="Node000002" class="node">
<title>Node2</title>
<g id="a_Node000002"><a xlink:title=" ">
<polygon fill="#e0e0e0" stroke="#999999" points="291,-74 233,-74 233,-55 291,-55 291,-74"/>
<text text-anchor="middle" x="262" y="-62" font-family="Helvetica,sans-Serif" font-size="10.00">memory</text>
</a>
</g>
</g>
<!-- Node1&#45;&gt;Node2 -->
<g id="edge1_Node000001_Node000002" class="edge">
<title>Node1&#45;&gt;Node2</title>
<g id="a_edge1_Node000001_Node000002"><a xlink:title=" ">
<path fill="none" stroke="#63b8ff" d="M290.49,-313.49C238.61,-305.28 170.75,-291.26 151,-272 99.07,-221.34 118,-159.54 171,-110 186.29,-95.71 207.02,-85.1 224.83,-77.82"/>
<polygon fill="#63b8ff" stroke="#63b8ff" points="226.32,-81 234.38,-74.12 223.79,-74.47 226.32,-81"/>
</a>
</g>
</g>
<!-- Node3 -->
<g id="Node000003" class="node">
<title>Node3</title>
<g id="a_Node000003"><a xlink:title=" ">
<polygon fill="#e0e0e0" stroke="#999999" points="716,-19 672,-19 672,0 716,0 716,-19"/>
<text text-anchor="middle" x="694" y="-7" font-family="Helvetica,sans-Serif" font-size="10.00">string</text>
</a>
</g>
</g>
<!-- Node1&#45;&gt;Node3 -->
<g id="edge2_Node000001_Node000003" class="edge">
<title>Node1&#45;&gt;Node3</title>
<g id="a_edge2_Node000001_Node000003"><a xlink:title=" ">
<path fill="none" stroke="#63b8ff" d="M417.58,-322.05C499.13,-318.22 637.38,-297.64 699,-206 706.44,-194.94 707.65,-186.15 699,-176 633.6,-99.25 540.4,-216.75 475,-140 416.98,-71.91 587.85,-30.5 661.75,-16.18"/>
<polygon fill="#63b8ff" stroke="#63b8ff" points="662.73,-19.55 671.91,-14.26 661.43,-12.67 662.73,-19.55"/>
</a>
</g>
</g>
<!-- Node4 -->
<g id="Node000004" class="node">
<title>Node4</title>
<g id="a_Node000004"><a xlink:title=" ">
<polygon fill="#e0e0e0" stroke="#999999" points="593.5,-19 546.5,-19 546.5,0 593.5,0 593.5,-19"/>
<text text-anchor="middle" x="570" y="-7" font-family="Helvetica,sans-Serif" font-size="10.00">vector</text>
</a>
</g>
</g>
<!-- Node1&#45;&gt;Node4 -->
<g id="edge3_Node000001_Node000004" class="edge">
<title>Node1&#45;&gt;Node4</title>
<g id="a_edge3_Node000001_Node000004"><a xlink:title=" ">
<path fill="none" stroke="#63b8ff" d="M290.3,-312.03C188.38,-294.26 0,-253.13 0,-192 0,-192 0,-192 0,-124 0,-14.06 413.05,-9.05 535.92,-9.99"/>
<polygon fill="#63b8ff" stroke="#63b8ff" points="536.2,-13.49 546.23,-10.09 536.27,-6.49 536.2,-13.49"/>
</a>
</g>
</g>
<!-- Node5 -->
<g id="Node000005" class="node">
<title>Node5</title>
<g id="a_Node000005"><a xlink:href="visibility_8hpp.html" target="_top" xlink:title=" ">
<polygon fill="white" stroke="#666666" points="1168,-19 1028,-19 1028,0 1168,0 1168,-19"/>
<text text-anchor="middle" x="1098" y="-7" font-family="Helvetica,sans-Serif" font-size="10.00">unilink/base/visibility.hpp</text>
</a>
</g>
</g>
<!-- Node1&#45;&gt;Node5 -->
<g id="edge4_Node000001_Node000005" class="edge">
<title>Node1&#45;&gt;Node5</title>
<g id="a_edge4_Node000001_Node000005"><a xlink:title=" ">
<path fill="none" stroke="#63b8ff" d="M417.57,-321.03C648.29,-316.68 1428,-294.42 1428,-192 1428,-192 1428,-192 1428,-124 1428,-72.53 1382.16,-75.61 1335,-55 1285.41,-33.33 1225.47,-22.2 1178.28,-16.49"/>
<polygon fill="#63b8ff" stroke="#63b8ff" points="1178.44,-12.98 1168.11,-15.32 1177.64,-19.94 1178.44,-12.98"/>
</a>
</g>
</g>
<!-- Node6 -->
<g id="Node000006" class="node">
<title>Node6</title>
<g id="a_Node000006"><a xlink:href="serial__config_8hpp.html" target="_top" xlink:title=" ">
<polygon fill="white" stroke="#666666" points="272,-272 160,-272 160,-242 272,-242 272,-272"/>
<text text-anchor="start" x="168" y="-260" font-family="Helvetica,sans-Serif" font-size="10.00">unilink/config/serial</text>
<text text-anchor="middle" x="216" y="-249" font-family="Helvetica,sans-Serif" font-size="10.00">_config.hpp</text>
</a>
</g>
</g>
<!-- Node1&#45;&gt;Node6 -->
<g id="edge5_Node000001_Node000006" class="edge">
<title>Node1&#45;&gt;Node6</title>
<g id="a_edge5_Node000001_Node000006"><a xlink:title=" ">
<path fill="none" stroke="#63b8ff" d="M323.72,-307.95C303.67,-298.66 277.19,-286.38 255.49,-276.32"/>
<polygon fill="#63b8ff" stroke="#63b8ff" points="256.76,-273.04 246.21,-272.01 253.81,-279.39 256.76,-273.04"/>
</a>
</g>
</g>
<!-- Node10 -->
<g id="Node000010" class="node">
<title>Node10</title>
<g id="a_Node000010"><a xlink:href="channel_8hpp.html" target="_top" xlink:title=" ">
<polygon fill="white" stroke="#666666" points="528,-266.5 370,-266.5 370,-247.5 528,-247.5 528,-266.5"/>
<text text-anchor="middle" x="449" y="-254.5" font-family="Helvetica,sans-Serif" font-size="10.00">unilink/interface/channel.hpp</text>
</a>
</g>
</g>
<!-- Node1&#45;&gt;Node10 -->
<g id="edge10_Node000001_Node000010" class="edge">
<title>Node1&#45;&gt;Node10</title>
<g id="a_edge10_Node000001_Node000010"><a xlink:title=" ">
<path fill="none" stroke="#63b8ff" d="M375.08,-307.8C390.71,-297.27 411.93,-282.97 427.63,-272.4"/>
<polygon fill="#63b8ff" stroke="#63b8ff" points="429.81,-275.15 436.15,-266.66 425.9,-269.34 429.81,-275.15"/>
</a>
</g>
</g>
<!-- Node6&#45;&gt;Node3 -->
<g id="edge6_Node000006_Node000003" class="edge">
<title>Node6&#45;&gt;Node3</title>
<g id="a_edge6_Node000006_Node000003"><a xlink:title=" ">
<path fill="none" stroke="#63b8ff" d="M175.56,-241.91C159.31,-234.02 142.27,-222.4 133,-206 94.45,-137.78 153.42,-89.02 224,-55 226.48,-53.81 555.91,-23.27 661.69,-13.48"/>
<polygon fill="#63b8ff" stroke="#63b8ff" points="662.15,-16.96 671.78,-12.55 661.5,-9.99 662.15,-16.96"/>
</a>
</g>
</g>
<!-- Node7 -->
<g id="Node000007" class="node">
<title>Node7</title>
<g id="a_Node000007"><a xlink:href="constants_8hpp.html" target="_top" xlink:title=" ">
<polygon fill="white" stroke="#666666" points="289.5,-200.5 142.5,-200.5 142.5,-181.5 289.5,-181.5 289.5,-200.5"/>
<text text-anchor="middle" x="216" y="-188.5" font-family="Helvetica,sans-Serif" font-size="10.00">unilink/base/constants.hpp</text>
</a>
</g>
</g>
<!-- Node6&#45;&gt;Node7 -->
<g id="edge7_Node000006_Node000007" class="edge">
<title>Node6&#45;&gt;Node7</title>
<g id="a_edge7_Node000006_Node000007"><a xlink:title=" ">
<path fill="none" stroke="#63b8ff" d="M216,-241.8C216,-232.7 216,-220.79 216,-210.9"/>
<polygon fill="#63b8ff" stroke="#63b8ff" points="219.5,-210.84 216,-200.84 212.5,-210.84 219.5,-210.84"/>
</a>
</g>
</g>
<!-- Node8 -->
<g id="Node000008" class="node">
<title>Node8</title>
<g id="a_Node000008"><a xlink:title=" ">
<polygon fill="#e0e0e0" stroke="#999999" points="233.5,-134.5 180.5,-134.5 180.5,-115.5 233.5,-115.5 233.5,-134.5"/>
<text text-anchor="middle" x="207" y="-122.5" font-family="Helvetica,sans-Serif" font-size="10.00">cstddef</text>
</a>
</g>
</g>
<!-- Node7&#45;&gt;Node8 -->
<g id="edge8_Node000007_Node000008" class="edge">
<title>Node7&#45;&gt;Node8</title>
<g id="a_edge8_Node000007_Node000008"><a xlink:title=" ">
<path fill="none" stroke="#63b8ff" d="M214.79,-181.37C213.48,-172.07 211.36,-156.98 209.66,-144.9"/>
<polygon fill="#63b8ff" stroke="#63b8ff" points="213.11,-144.32 208.25,-134.91 206.18,-145.3 213.11,-144.32"/>
</a>
</g>
</g>
<!-- Node9 -->
<g id="Node000009" class="node">
<title>Node9</title>
<g id="a_Node000009"><a xlink:title=" ">
<polygon fill="#e0e0e0" stroke="#999999" points="340,-134.5 290,-134.5 290,-115.5 340,-115.5 340,-134.5"/>
<text text-anchor="middle" x="315" y="-122.5" font-family="Helvetica,sans-Serif" font-size="10.00">cstdint</text>
</a>
</g>
</g>
<!-- Node7&#45;&gt;Node9 -->
<g id="edge9_Node000007_Node000009" class="edge">
<title>Node7&#45;&gt;Node9</title>
<g id="a_edge9_Node000007_Node000009"><a xlink:title=" ">
<path fill="none" stroke="#63b8ff" d="M229.35,-181.37C245.66,-170.82 273.49,-152.84 292.99,-140.23"/>
<polygon fill="#63b8ff" stroke="#63b8ff" points="295.05,-143.07 301.54,-134.7 291.25,-137.19 295.05,-143.07"/>
</a>
</g>
</g>
<!-- Node10&#45;&gt;Node2 -->
<g id="edge13_Node000010_Node000002" class="edge">
<title>Node10&#45;&gt;Node2</title>
<g id="a_edge13_Node000010_Node000002"><a xlink:title=" ">
<path fill="none" stroke="#63b8ff" d="M420.91,-247.4C397.07,-239.22 362.72,-225.29 337,-206 306.23,-182.92 298.65,-174.18 281,-140 271.83,-122.25 266.89,-99.79 264.37,-84.19"/>
<polygon fill="#63b8ff" stroke="#63b8ff" points="267.82,-83.62 262.93,-74.22 260.89,-84.61 267.82,-83.62"/>
</a>
</g>
</g>
<!-- Node10&#45;&gt;Node4 -->
<g id="edge14_Node000010_Node000004" class="edge">
<title>Node10&#45;&gt;Node4</title>
<g id="a_edge14_Node000010_Node000004"><a xlink:title=" ">
<path fill="none" stroke="#63b8ff" d="M369.92,-248.05C282.09,-238.51 150.28,-221.82 133,-206 82.33,-159.61 53.77,-105.81 100,-55 129.27,-22.83 433.05,-13.42 536.06,-11.14"/>
<polygon fill="#63b8ff" stroke="#63b8ff" points="536.3,-14.63 546.22,-10.92 536.15,-7.63 536.3,-14.63"/>
</a>
</g>
</g>
<!-- Node10&#45;&gt;Node5 -->
<g id="edge49_Node000010_Node000005" class="edge">
<title>Node10&#45;&gt;Node5</title>
<g id="a_edge49_Node000010_Node000005"><a xlink:title=" ">
<path fill="none" stroke="#63b8ff" d="M528.33,-251.55C734.73,-239.13 1276.06,-201 1327,-140 1338.68,-126.01 1325.55,-62.84 1318,-55 1298.75,-35.02 1232.86,-23.5 1178.16,-17.21"/>
<polygon fill="#63b8ff" stroke="#63b8ff" points="1178.41,-13.72 1168.09,-16.09 1177.64,-20.67 1178.41,-13.72"/>
</a>
</g>
</g>
<!-- Node11 -->
<g id="Node000011" class="node">
<title>Node11</title>
<g id="a_Node000011"><a xlink:title=" ">
<polygon fill="#e0e0e0" stroke="#999999" points="690,-200.5 520,-200.5 520,-181.5 690,-181.5 690,-200.5"/>
<text text-anchor="middle" x="605" y="-188.5" font-family="Helvetica,sans-Serif" font-size="10.00">boost/asio/any_io_executor.hpp</text>
</a>
</g>
</g>
<!-- Node10&#45;&gt;Node11 -->
<g id="edge11_Node000010_Node000011" class="edge">
<title>Node10&#45;&gt;Node11</title>
<g id="a_edge11_Node000010_Node000011"><a xlink:title=" ">
<path fill="none" stroke="#63b8ff" d="M470.04,-247.37C496.98,-236.32 543.86,-217.08 574.66,-204.45"/>
<polygon fill="#63b8ff" stroke="#63b8ff" points="576.12,-207.63 584.05,-200.6 573.47,-201.15 576.12,-207.63"/>
</a>
</g>
</g>
<!-- Node12 -->
<g id="Node000012" class="node">
<title>Node12</title>
<g id="a_Node000012"><a xlink:title=" ">
<polygon fill="#e0e0e0" stroke="#999999" points="663.5,-74 598.5,-74 598.5,-55 663.5,-55 663.5,-74"/>
<text text-anchor="middle" x="631" y="-62" font-family="Helvetica,sans-Serif" font-size="10.00">functional</text>
</a>
</g>
</g>
<!-- Node10&#45;&gt;Node12 -->
<g id="edge12_Node000010_Node000012" class="edge">
<title>Node10&#45;&gt;Node12</title>
<g id="a_edge12_Node000010_Node000012"><a xlink:title=" ">
<path fill="none" stroke="#63b8ff" d="M454.52,-247.48C464.64,-232.21 487.33,-199.54 511,-176 529.66,-157.45 538.3,-157.44 558,-140 579.28,-121.16 601.9,-97.42 616.23,-81.87"/>
<polygon fill="#63b8ff" stroke="#63b8ff" points="619.11,-83.9 623.27,-74.16 613.94,-79.18 619.11,-83.9"/>
</a>
</g>
</g>
<!-- Node13 -->
<g id="Node000013" class="node">
<title>Node13</title>
<g id="a_Node000013"><a xlink:href="common_8hpp.html" target="_top" xlink:title=" ">
<polygon fill="white" stroke="#666666" points="954.5,-200.5 811.5,-200.5 811.5,-181.5 954.5,-181.5 954.5,-200.5"/>
<text text-anchor="middle" x="883" y="-188.5" font-family="Helvetica,sans-Serif" font-size="10.00">unilink/base/common.hpp</text>
</a>
</g>
</g>
<!-- Node10&#45;&gt;Node13 -->
<g id="edge15_Node000010_Node000013" class="edge">
<title>Node10&#45;&gt;Node13</title>
<g id="a_edge15_Node000010_Node000013"><a xlink:title=" ">
<path fill="none" stroke="#63b8ff" d="M507.08,-247.44C586.99,-235.65 730.53,-214.48 815.23,-201.99"/>
<polygon fill="#63b8ff" stroke="#63b8ff" points="815.88,-205.44 825.26,-200.51 814.86,-198.51 815.88,-205.44"/>
</a>
</g>
</g>
<!-- Node29 -->
<g id="Node000029" class="node">
<title>Node29</title>
<g id="a_Node000029"><a xlink:href="safe__span_8hpp.html" target="_top" xlink:title=" ">
<polygon fill="white" stroke="#666666" points="464,-206 346,-206 346,-176 464,-176 464,-206"/>
<text text-anchor="start" x="354" y="-194" font-family="Helvetica,sans-Serif" font-size="10.00">unilink/memory/safe</text>
<text text-anchor="middle" x="405" y="-183" font-family="Helvetica,sans-Serif" font-size="10.00">_span.hpp</text>
</a>
</g>
</g>
<!-- Node10&#45;&gt;Node29 -->
<g id="edge50_Node000010_Node000029" class="edge">
<title>Node10&#45;&gt;Node29</title>
<g id="a_edge50_Node000010_Node000029"><a xlink:title=" ">
<path fill="none" stroke="#63b8ff" d="M443.07,-247.37C437.37,-239.08 428.5,-226.18 420.76,-214.92"/>
<polygon fill="#63b8ff" stroke="#63b8ff" points="423.42,-212.62 414.87,-206.36 417.65,-216.58 423.42,-212.62"/>
</a>
</g>
</g>
<!-- Node13&#45;&gt;Node3 -->
<g id="edge25_Node000013_Node000003" class="edge">
<title>Node13&#45;&gt;Node3</title>
<g id="a_edge25_Node000013_Node000003"><a xlink:title=" ">
<path fill="none" stroke="#63b8ff" d="M811.27,-186.91C775.93,-181.5 735.71,-168.79 711,-140 684.13,-108.69 686.87,-56.48 690.7,-28.89"/>
<polygon fill="#63b8ff" stroke="#63b8ff" points="694.16,-29.43 692.27,-19 687.24,-28.33 694.16,-29.43"/>
</a>
</g>
</g>
<!-- Node13&#45;&gt;Node4 -->
<g id="edge28_Node000013_Node000004" class="edge">
<title>Node13&#45;&gt;Node4</title>
<g id="a_edge28_Node000013_Node000004"><a xlink:title=" ">
<path fill="none" stroke="#63b8ff" d="M811.36,-186.14C762.82,-180.87 698.7,-168.57 649,-140 614.63,-120.24 608.5,-108.52 589,-74 581.12,-60.05 576.19,-42.49 573.33,-29.38"/>
<polygon fill="#63b8ff" stroke="#63b8ff" points="576.7,-28.34 571.34,-19.2 569.83,-29.69 576.7,-28.34"/>
</a>
</g>
</g>
<!-- Node13&#45;&gt;Node9 -->
<g id="edge17_Node000013_Node000009" class="edge">
<title>Node13&#45;&gt;Node9</title>
<g id="a_edge17_Node000013_Node000009"><a xlink:title=" ">
<path fill="none" stroke="#63b8ff" d="M811.4,-184.49C676.17,-173.9 392.79,-150.81 349,-140 346.83,-139.47 344.63,-138.82 342.43,-138.09"/>
<polygon fill="#63b8ff" stroke="#63b8ff" points="343.61,-134.8 333.02,-134.58 341.16,-141.36 343.61,-134.8"/>
</a>
</g>
</g>
<!-- Node13&#45;&gt;Node12 -->
<g id="edge20_Node000013_Node000012" class="edge">
<title>Node13&#45;&gt;Node12</title>
<g id="a_edge20_Node000013_Node000012"><a xlink:title=" ">
<path fill="none" stroke="#63b8ff" d="M811.48,-185.86C769.32,-180.37 716.81,-167.92 678,-140 658.36,-125.87 645.05,-100.76 637.74,-83.63"/>
<polygon fill="#63b8ff" stroke="#63b8ff" points="640.92,-82.16 633.97,-74.17 634.42,-84.76 640.92,-82.16"/>
</a>
</g>
</g>
<!-- Node14 -->
<g id="Node000014" class="node">
<title>Node14</title>
<g id="a_Node000014"><a xlink:title=" ">
<polygon fill="#e0e0e0" stroke="#999999" points="1010,-19 960,-19 960,0 1010,0 1010,-19"/>
<text text-anchor="middle" x="985" y="-7" font-family="Helvetica,sans-Serif" font-size="10.00">chrono</text>
</a>
</g>
</g>
<!-- Node13&#45;&gt;Node14 -->
<g id="edge16_Node000013_Node000014" class="edge">
<title>Node13&#45;&gt;Node14</title>
<g id="a_edge16_Node000013_Node000014"><a xlink:title=" ">
<path fill="none" stroke="#63b8ff" d="M954.91,-186.73C1070.67,-180.72 1287.78,-166.09 1311,-140 1324.29,-125.06 1307.57,-62.06 1300,-55 1256.02,-14 1096.16,-29.11 1020.3,-18.78"/>
<polygon fill="#63b8ff" stroke="#63b8ff" points="1020.61,-15.28 1010.18,-17.14 1019.49,-22.19 1020.61,-15.28"/>
</a>
</g>
</g>
<!-- Node15 -->
<g id="Node000015" class="node">
<title>Node15</title>
<g id="a_Node000015"><a xlink:title=" ">
<polygon fill="#e0e0e0" stroke="#999999" points="934,-134.5 884,-134.5 884,-115.5 934,-115.5 934,-134.5"/>
<text text-anchor="middle" x="909" y="-122.5" font-family="Helvetica,sans-Serif" font-size="10.00">cstring</text>
</a>
</g>
</g>
<!-- Node13&#45;&gt;Node15 -->
<g id="edge18_Node000013_Node000015" class="edge">
<title>Node13&#45;&gt;Node15</title>
<g id="a_edge18_Node000013_Node000015"><a xlink:title=" ">
<path fill="none" stroke="#63b8ff" d="M886.51,-181.37C890.32,-171.97 896.54,-156.67 901.47,-144.53"/>
<polygon fill="#63b8ff" stroke="#63b8ff" points="904.86,-145.49 905.38,-134.91 898.38,-142.85 904.86,-145.49"/>
</a>
</g>
</g>
<!-- Node16 -->
<g id="Node000016" class="node">
<title>Node16</title>
<g id="a_Node000016"><a xlink:title=" ">
<polygon fill="#e0e0e0" stroke="#999999" points="996,-134.5 952,-134.5 952,-115.5 996,-115.5 996,-134.5"/>
<text text-anchor="middle" x="974" y="-122.5" font-family="Helvetica,sans-Serif" font-size="10.00">ctime</text>
</a>
</g>
</g>
<!-- Node13&#45;&gt;Node16 -->
<g id="edge19_Node000013_Node000016" class="edge">
<title>Node13&#45;&gt;Node16</title>
<g id="a_edge19_Node000013_Node000016"><a xlink:title=" ">
<path fill="none" stroke="#63b8ff" d="M895.27,-181.37C910.06,-170.97 935.15,-153.32 953.03,-140.75"/>
<polygon fill="#63b8ff" stroke="#63b8ff" points="955.46,-143.31 961.63,-134.7 951.44,-137.59 955.46,-143.31"/>
</a>
</g>
</g>
<!-- Node17 -->
<g id="Node000017" class="node">
<title>Node17</title>
<g id="a_Node000017"><a xlink:title=" ">
<polygon fill="#e0e0e0" stroke="#999999" points="1070,-134.5 1014,-134.5 1014,-115.5 1070,-115.5 1070,-134.5"/>
<text text-anchor="middle" x="1042" y="-122.5" font-family="Helvetica,sans-Serif" font-size="10.00">iomanip</text>
</a>
</g>
</g>
<!-- Node13&#45;&gt;Node17 -->
<g id="edge21_Node000013_Node000017" class="edge">
<title>Node13&#45;&gt;Node17</title>
<g id="a_edge21_Node000013_Node000017"><a xlink:title=" ">
<path fill="none" stroke="#63b8ff" d="M904.44,-181.37C931.9,-170.32 979.68,-151.08 1011.07,-138.45"/>
<polygon fill="#63b8ff" stroke="#63b8ff" points="1012.67,-141.58 1020.64,-134.6 1010.06,-135.08 1012.67,-141.58"/>
</a>
</g>
</g>
<!-- Node18 -->
<g id="Node000018" class="node">
<title>Node18</title>
<g id="a_Node000018"><a xlink:title=" ">
<polygon fill="#e0e0e0" stroke="#999999" points="1148,-134.5 1088,-134.5 1088,-115.5 1148,-115.5 1148,-134.5"/>
<text text-anchor="middle" x="1118" y="-122.5" font-family="Helvetica,sans-Serif" font-size="10.00">iostream</text>
</a>
</g>
</g>
<!-- Node13&#45;&gt;Node18 -->
<g id="edge22_Node000013_Node000018" class="edge">
<title>Node13&#45;&gt;Node18</title>
<g id="a_edge22_Node000013_Node000018"><a xlink:title=" ">
<path fill="none" stroke="#63b8ff" d="M920.87,-181.47C960.56,-172.26 1024.6,-156.66 1079,-140 1081.26,-139.31 1083.59,-138.56 1085.92,-137.79"/>
<polygon fill="#63b8ff" stroke="#63b8ff" points="1087.12,-141.08 1095.44,-134.51 1084.84,-134.46 1087.12,-141.08"/>
</a>
</g>
</g>
<!-- Node19 -->
<g id="Node000019" class="node">
<title>Node19</title>
<g id="a_Node000019"><a xlink:title=" ">
<polygon fill="#e0e0e0" stroke="#999999" points="1222,-134.5 1166,-134.5 1166,-115.5 1222,-115.5 1222,-134.5"/>
<text text-anchor="middle" x="1194" y="-122.5" font-family="Helvetica,sans-Serif" font-size="10.00">sstream</text>
</a>
</g>
</g>
<!-- Node13&#45;&gt;Node19 -->
<g id="edge23_Node000013_Node000019" class="edge">
<title>Node13&#45;&gt;Node19</title>
<g id="a_edge23_Node000013_Node000019"><a xlink:title=" ">
<path fill="none" stroke="#63b8ff" d="M948.25,-181.49C1004.24,-173.39 1086.77,-159.52 1157,-140 1159.29,-139.36 1161.64,-138.64 1163.98,-137.87"/>
<polygon fill="#63b8ff" stroke="#63b8ff" points="1165.21,-141.15 1173.48,-134.52 1162.88,-134.55 1165.21,-141.15"/>
</a>
</g>
</g>
<!-- Node20 -->
<g id="Node000020" class="node">
<title>Node20</title>
<g id="a_Node000020"><a xlink:title=" ">
<polygon fill="#e0e0e0" stroke="#999999" points="549.5,-134.5 484.5,-134.5 484.5,-115.5 549.5,-115.5 549.5,-134.5"/>
<text text-anchor="middle" x="517" y="-122.5" font-family="Helvetica,sans-Serif" font-size="10.00">stdexcept</text>
</a>
</g>
</g>
<!-- Node13&#45;&gt;Node20 -->
<g id="edge24_Node000013_Node000020" class="edge">
<title>Node13&#45;&gt;Node20</title>
<g id="a_edge24_Node000013_Node000020"><a xlink:title=" ">
<path fill="none" stroke="#63b8ff" d="M834.02,-181.44C761.95,-168.83 628.48,-145.49 559.99,-133.52"/>
<polygon fill="#63b8ff" stroke="#63b8ff" points="560.43,-130.04 549.98,-131.77 559.23,-136.94 560.43,-130.04"/>
</a>
</g>
</g>
<!-- Node21 -->
<g id="Node000021" class="node">
<title>Node21</title>
<g id="a_Node000021"><a xlink:title=" ">
<polygon fill="#e0e0e0" stroke="#999999" points="1290.5,-74 1217.5,-74 1217.5,-55 1290.5,-55 1290.5,-74"/>
<text text-anchor="middle" x="1254" y="-62" font-family="Helvetica,sans-Serif" font-size="10.00">string_view</text>
</a>
</g>
</g>
<!-- Node13&#45;&gt;Node21 -->
<g id="edge26_Node000013_Node000021" class="edge">
<title>Node13&#45;&gt;Node21</title>
<g id="a_edge26_Node000013_Node000021"><a xlink:title=" ">
<path fill="none" stroke="#63b8ff" d="M954.94,-186.38C1067.03,-179.99 1272.87,-164.98 1295,-140 1310.96,-121.98 1289.96,-96.7 1272.61,-80.71"/>
<polygon fill="#63b8ff" stroke="#63b8ff" points="1274.87,-78.04 1265.04,-74.08 1270.25,-83.3 1274.87,-78.04"/>
</a>
</g>
</g>
<!-- Node22 -->
<g id="Node000022" class="node">
<title>Node22</title>
<g id="a_Node000022"><a xlink:title=" ">
<polygon fill="#e0e0e0" stroke="#999999" points="1285.5,-134.5 1240.5,-134.5 1240.5,-115.5 1285.5,-115.5 1285.5,-134.5"/>
<text text-anchor="middle" x="1263" y="-122.5" font-family="Helvetica,sans-Serif" font-size="10.00">utility</text>
</a>
</g>
</g>
<!-- Node13&#45;&gt;Node22 -->
<g id="edge27_Node000013_Node000022" class="edge">
<title>Node13&#45;&gt;Node22</title>
<g id="a_edge27_Node000013_Node000022"><a xlink:title=" ">
<path fill="none" stroke="#63b8ff" d="M954.82,-185.36C1026.03,-179.44 1137.67,-166.59 1231,-140 1232.68,-139.52 1234.4,-138.97 1236.11,-138.37"/>
<polygon fill="#63b8ff" stroke="#63b8ff" points="1237.7,-141.51 1245.71,-134.58 1235.12,-135 1237.7,-141.51"/>
</a>
</g>
</g>
<!-- Node23 -->
<g id="Node000023" class="node">
<title>Node23</title>
<g id="a_Node000023"><a xlink:href="platform_8hpp.html" target="_top" xlink:title=" ">
<polygon fill="white" stroke="#666666" points="1166,-74 1024,-74 1024,-55 1166,-55 1166,-74"/>
<text text-anchor="middle" x="1095" y="-62" font-family="Helvetica,sans-Serif" font-size="10.00">unilink/base/platform.hpp</text>
</a>
</g>
</g>
<!-- Node13&#45;&gt;Node23 -->
<g id="edge29_Node000013_Node000023" class="edge">
<title>Node13&#45;&gt;Node23</title>
<g id="a_edge29_Node000013_Node000023"><a xlink:title=" ">
<path fill="none" stroke="#63b8ff" d="M878.57,-181.39C871.02,-165.37 858.03,-130.74 875,-110 884.51,-98.37 962.35,-84.61 1022.78,-75.5"/>
<polygon fill="#63b8ff" stroke="#63b8ff" points="1023.32,-78.96 1032.69,-74.03 1022.28,-72.04 1023.32,-78.96"/>
</a>
</g>
</g>
<!-- Node24 -->
<g id="Node000024" class="node">
<title>Node24</title>
<g id="a_Node000024"><a xlink:href="logger_8hpp.html" target="_top" xlink:title=" ">
<polygon fill="white" stroke="#666666" points="828,-140 720,-140 720,-110 828,-110 828,-140"/>
<text text-anchor="start" x="728" y="-128" font-family="Helvetica,sans-Serif" font-size="10.00">unilink/diagnostics</text>
<text text-anchor="middle" x="774" y="-117" font-family="Helvetica,sans-Serif" font-size="10.00">/logger.hpp</text>
</a>
</g>
</g>
<!-- Node13&#45;&gt;Node24 -->
<g id="edge32_Node000013_Node000024" class="edge">
<title>Node13&#45;&gt;Node24</title>
<g id="a_edge32_Node000013_Node000024"><a xlink:title=" ">
<path fill="none" stroke="#63b8ff" d="M868.3,-181.37C852.61,-172.16 827.24,-157.26 806.76,-145.24"/>
<polygon fill="#63b8ff" stroke="#63b8ff" points="808.44,-142.16 798.04,-140.12 804.89,-148.2 808.44,-142.16"/>
</a>
</g>
</g>
<!-- Node23&#45;&gt;Node3 -->
<g id="edge30_Node000023_Node000003" class="edge">
<title>Node23&#45;&gt;Node3</title>
<g id="a_edge30_Node000023_Node000003"><a xlink:title=" ">
<path fill="none" stroke="#63b8ff" d="M1023.87,-57.02C950.27,-49.79 832.11,-36.75 731,-19 729.5,-18.74 727.97,-18.45 726.42,-18.15"/>
<polygon fill="#63b8ff" stroke="#63b8ff" points="726.74,-14.64 716.23,-16 725.29,-21.49 726.74,-14.64"/>
</a>
</g>
</g>
<!-- Node23&#45;&gt;Node5 -->
<g id="edge31_Node000023_Node000005" class="edge">
<title>Node23&#45;&gt;Node5</title>
<g id="a_edge31_Node000023_Node000005"><a xlink:title=" ">
<path fill="none" stroke="#63b8ff" d="M1095.5,-54.75C1095.89,-47.8 1096.45,-37.85 1096.95,-29.13"/>
<polygon fill="#63b8ff" stroke="#63b8ff" points="1100.44,-29.27 1097.51,-19.09 1093.45,-28.88 1100.44,-29.27"/>
</a>
</g>
</g>
<!-- Node24&#45;&gt;Node2 -->
<g id="edge36_Node000024_Node000002" class="edge">
<title>Node24&#45;&gt;Node2</title>
<g id="a_edge36_Node000024_Node000002"><a xlink:title=" ">
<path fill="none" stroke="#63b8ff" d="M719.69,-117.79C615.96,-105.94 391.93,-80.34 301.27,-69.99"/>
<polygon fill="#63b8ff" stroke="#63b8ff" points="301.48,-66.49 291.14,-68.83 300.68,-73.44 301.48,-66.49"/>
</a>
</g>
</g>
<!-- Node24&#45;&gt;Node3 -->
<g id="edge37_Node000024_Node000003" class="edge">
<title>Node24&#45;&gt;Node3</title>
<g id="a_edge37_Node000024_Node000003"><a xlink:title=" ">
<path fill="none" stroke="#63b8ff" d="M769.86,-109.85C765.13,-95.22 756.41,-72.14 744,-55 735.88,-43.79 724.49,-33.38 714.64,-25.45"/>
<polygon fill="#63b8ff" stroke="#63b8ff" points="716.54,-22.5 706.49,-19.16 712.27,-28.04 716.54,-22.5"/>
</a>
</g>
</g>
<!-- Node24&#45;&gt;Node4 -->
<g id="edge39_Node000024_Node000004" class="edge">
<title>Node24&#45;&gt;Node4</title>
<g id="a_edge39_Node000024_Node000004"><a xlink:title=" ">
<path fill="none" stroke="#63b8ff" d="M755.48,-109.95C735.53,-95.18 702.53,-71.8 672,-55 649.45,-42.59 622.75,-31.05 602.33,-22.83"/>
<polygon fill="#63b8ff" stroke="#63b8ff" points="603.44,-19.5 592.85,-19.07 600.86,-26.01 603.44,-19.5"/>
</a>
</g>
</g>
<!-- Node24&#45;&gt;Node5 -->
<g id="edge48_Node000024_Node000005" class="edge">
<title>Node24&#45;&gt;Node5</title>
<g id="a_edge48_Node000024_Node000005"><a xlink:title=" ">
<path fill="none" stroke="#63b8ff" d="M828.28,-110.06C862.63,-100.81 907.8,-87.86 947,-74 990.84,-58.5 1040.28,-36.9 1070.28,-23.31"/>
<polygon fill="#63b8ff" stroke="#63b8ff" points="1072.03,-26.36 1079.68,-19.03 1069.12,-19.99 1072.03,-26.36"/>
</a>
</g>
</g>
<!-- Node24&#45;&gt;Node12 -->
<g id="edge35_Node000024_Node000012" class="edge">
<title>Node24&#45;&gt;Node12</title>
<g id="a_edge35_Node000024_Node000012"><a xlink:title=" ">
<path fill="none" stroke="#63b8ff" d="M739.75,-109.99C715.89,-100.23 684.35,-87.33 661.39,-77.93"/>
<polygon fill="#63b8ff" stroke="#63b8ff" points="662.7,-74.69 652.12,-74.14 660.05,-81.17 662.7,-74.69"/>
</a>
</g>
</g>
<!-- Node24&#45;&gt;Node14 -->
<g id="edge34_Node000024_Node000014" class="edge">
<title>Node24&#45;&gt;Node14</title>
<g id="a_edge34_Node000024_Node000014"><a xlink:title=" ">
<path fill="none" stroke="#63b8ff" d="M828.28,-111.87C857.21,-103.89 892.59,-91.6 921,-74 941.27,-61.44 960.09,-41.33 972,-27.12"/>
<polygon fill="#63b8ff" stroke="#63b8ff" points="974.88,-29.11 978.47,-19.14 969.45,-24.7 974.88,-29.11"/>
</a>
</g>
</g>
<!-- Node24&#45;&gt;Node21 -->
<g id="edge38_Node000024_Node000021" class="edge">
<title>Node24&#45;&gt;Node21</title>
<g id="a_edge38_Node000024_Node000021"><a xlink:title=" ">
<path fill="none" stroke="#63b8ff" d="M828.22,-116.27C843.36,-114.17 859.81,-111.94 875,-110 994.63,-94.69 1135.78,-78.65 1207.34,-70.66"/>
<polygon fill="#63b8ff" stroke="#63b8ff" points="1207.83,-74.13 1217.38,-69.54 1207.06,-67.17 1207.83,-74.13"/>
</a>
</g>
</g>
<!-- Node25 -->
<g id="Node000025" class="node">
<title>Node25</title>
<g id="a_Node000025"><a xlink:title=" ">
<polygon fill="#e0e0e0" stroke="#999999" points="942,-19 892,-19 892,0 942,0 942,-19"/>
<text text-anchor="middle" x="917" y="-7" font-family="Helvetica,sans-Serif" font-size="10.00">atomic</text>
</a>
</g>
</g>
<!-- Node24&#45;&gt;Node25 -->
<g id="edge33_Node000024_Node000025" class="edge">
<title>Node24&#45;&gt;Node25</title>
<g id="a_edge33_Node000024_Node000025"><a xlink:title=" ">
<path fill="none" stroke="#63b8ff" d="M822.52,-109.96C853.62,-100.05 890.12,-86.37 901,-74 911.79,-61.73 915.51,-43.22 916.69,-29.34"/>
<polygon fill="#63b8ff" stroke="#63b8ff" points="920.21,-29.17 917.19,-19.02 913.21,-28.83 920.21,-29.17"/>
</a>
</g>
</g>
<!-- Node26 -->
<g id="Node000026" class="node">
<title>Node26</title>
<g id="a_Node000026"><a xlink:href="log__rotation_8hpp.html" target="_top" xlink:title=" ">
<polygon fill="white" stroke="#666666" points="892,-74 796,-74 796,-55 892,-55 892,-74"/>
<text text-anchor="middle" x="844" y="-62" font-family="Helvetica,sans-Serif" font-size="10.00">log_rotation.hpp</text>
</a>
</g>
</g>
<!-- Node24&#45;&gt;Node26 -->
<g id="edge40_Node000024_Node000026" class="edge">
<title>Node24&#45;&gt;Node26</title>
<g id="a_edge40_Node000024_Node000026"><a xlink:title=" ">
<path fill="none" stroke="#63b8ff" d="M790.95,-109.84C801.42,-101.09 814.86,-89.85 825.59,-80.88"/>
<polygon fill="#63b8ff" stroke="#63b8ff" points="828.08,-83.36 833.51,-74.27 823.59,-77.99 828.08,-83.36"/>
</a>
</g>
</g>
<!-- Node26&#45;&gt;Node3 -->
<g id="edge45_Node000026_Node000003" class="edge">
<title>Node26&#45;&gt;Node3</title>
<g id="a_edge45_Node000026_Node000003"><a xlink:title=" ">
<path fill="none" stroke="#63b8ff" d="M819.9,-54.98C794.38,-45.97 753.97,-31.69 725.84,-21.75"/>
<polygon fill="#63b8ff" stroke="#63b8ff" points="726.68,-18.33 716.09,-18.3 724.35,-24.94 726.68,-18.33"/>
</a>
</g>
</g>
<!-- Node26&#45;&gt;Node4 -->
<g id="edge46_Node000026_Node000004" class="edge">
<title>Node26&#45;&gt;Node4</title>
<g id="a_edge46_Node000026_Node000004"><a xlink:title=" ">
<path fill="none" stroke="#63b8ff" d="M799.98,-54.98C745.18,-44.39 652.81,-26.52 603.45,-16.97"/>
<polygon fill="#63b8ff" stroke="#63b8ff" points="604.09,-13.53 593.61,-15.07 602.76,-20.4 604.09,-13.53"/>
</a>
</g>
</g>
<!-- Node26&#45;&gt;Node5 -->
<g id="edge47_Node000026_Node000005" class="edge">
<title>Node26&#45;&gt;Node5</title>
<g id="a_edge47_Node000026_Node000005"><a xlink:title=" ">
<path fill="none" stroke="#63b8ff" d="M884.81,-54.98C928.93,-45.78 999.33,-31.09 1047.05,-21.13"/>
<polygon fill="#63b8ff" stroke="#63b8ff" points="1047.8,-24.55 1056.87,-19.08 1046.37,-17.7 1047.8,-24.55"/>
</a>
</g>
</g>
<!-- Node26&#45;&gt;Node14 -->
<g id="edge42_Node000026_Node000014" class="edge">
<title>Node26&#45;&gt;Node14</title>
<g id="a_edge42_Node000026_Node000014"><a xlink:title=" ">
<path fill="none" stroke="#63b8ff" d="M866.65,-54.98C889.85,-46.27 926.12,-32.63 952.4,-22.75"/>
<polygon fill="#63b8ff" stroke="#63b8ff" points="953.8,-25.97 961.93,-19.17 951.34,-19.41 953.8,-25.97"/>
</a>
</g>
</g>
<!-- Node26&#45;&gt;Node25 -->
<g id="edge41_Node000026_Node000025" class="edge">
<title>Node26&#45;&gt;Node25</title>
<g id="a_edge41_Node000026_Node000025"><a xlink:title=" ">
<path fill="none" stroke="#63b8ff" d="M855.73,-54.98C866.73,-47 883.42,-34.88 896.6,-25.31"/>
<polygon fill="#63b8ff" stroke="#63b8ff" points="899.02,-27.88 905.06,-19.17 894.91,-22.21 899.02,-27.88"/>
</a>
</g>
</g>
<!-- Node27 -->
<g id="Node000027" class="node">
<title>Node27</title>
<g id="a_Node000027"><a xlink:title=" ">
<polygon fill="#e0e0e0" stroke="#999999" points="874,-19 806,-19 806,0 874,0 874,-19"/>
<text text-anchor="middle" x="840" y="-7" font-family="Helvetica,sans-Serif" font-size="10.00">filesystem</text>
</a>
</g>
</g>
<!-- Node26&#45;&gt;Node27 -->
<g id="edge43_Node000026_Node000027" class="edge">
<title>Node26&#45;&gt;Node27</title>
<g id="a_edge43_Node000026_Node000027"><a xlink:title=" ">
<path fill="none" stroke="#63b8ff" d="M843.34,-54.75C842.82,-47.8 842.06,-37.85 841.41,-29.13"/>
<polygon fill="#63b8ff" stroke="#63b8ff" points="844.89,-28.8 840.65,-19.09 837.91,-29.32 844.89,-28.8"/>
</a>
</g>
</g>
<!-- Node28 -->
<g id="Node000028" class="node">
<title>Node28</title>
<g id="a_Node000028"><a xlink:title=" ">
<polygon fill="#e0e0e0" stroke="#999999" points="788,-19 740,-19 740,0 788,0 788,-19"/>
<text text-anchor="middle" x="764" y="-7" font-family="Helvetica,sans-Serif" font-size="10.00">mutex</text>
</a>
</g>
</g>
<!-- Node26&#45;&gt;Node28 -->
<g id="edge44_Node000026_Node000028" class="edge">
<title>Node26&#45;&gt;Node28</title>
<g id="a_edge44_Node000026_Node000028"><a xlink:title=" ">
<path fill="none" stroke="#63b8ff" d="M831.15,-54.98C818.86,-46.84 800.09,-34.41 785.52,-24.76"/>
<polygon fill="#63b8ff" stroke="#63b8ff" points="787.36,-21.78 777.09,-19.17 783.49,-27.61 787.36,-21.78"/>
</a>
</g>
</g>
<!-- Node29&#45;&gt;Node9 -->
<g id="edge51_Node000029_Node000009" class="edge">
<title>Node29&#45;&gt;Node9</title>
<g id="a_edge51_Node000029_Node000009"><a xlink:title=" ">
<path fill="none" stroke="#63b8ff" d="M385.03,-175.8C370.36,-165.37 350.49,-151.24 335.66,-140.69"/>
<polygon fill="#63b8ff" stroke="#63b8ff" points="337.35,-137.6 327.18,-134.66 333.3,-143.31 337.35,-137.6"/>
</a>
</g>
</g>
<!-- Node29&#45;&gt;Node20 -->
<g id="edge52_Node000029_Node000020" class="edge">
<title>Node29&#45;&gt;Node20</title>
<g id="a_edge52_Node000029_Node000020"><a xlink:title=" ">
<path fill="none" stroke="#63b8ff" d="M429.58,-175.95C448.53,-165.13 474.58,-150.24 493.3,-139.54"/>
<polygon fill="#63b8ff" stroke="#63b8ff" points="495.15,-142.52 502.09,-134.52 491.68,-136.44 495.15,-142.52"/>
</a>
</g>
</g>
<!-- Node30 -->
<g id="Node000030" class="node">
<title>Node30</title>
<g id="a_Node000030"><a xlink:title=" ">
<polygon fill="#e0e0e0" stroke="#999999" points="427.5,-134.5 358.5,-134.5 358.5,-115.5 427.5,-115.5 427.5,-134.5"/>
<text text-anchor="middle" x="393" y="-122.5" font-family="Helvetica,sans-Serif" font-size="10.00">type_traits</text>
</a>
</g>
</g>
<!-- Node29&#45;&gt;Node30 -->
<g id="edge53_Node000029_Node000030" class="edge">
<title>Node29&#45;&gt;Node30</title>
<g id="a_edge53_Node000029_Node000030"><a xlink:title=" ">
<path fill="none" stroke="#63b8ff" d="M402.34,-175.8C400.63,-166.7 398.4,-154.79 396.54,-144.9"/>
<polygon fill="#63b8ff" stroke="#63b8ff" points="399.94,-144.03 394.66,-134.84 393.06,-145.32 399.94,-144.03"/>
</a>
</g>
</g>
</g>
</svg>
