<?xml version="1.0" encoding="UTF-8" standalone="no"?>
<!DOCTYPE svg PUBLIC "-//W3C//DTD SVG 1.1//EN"
 "http://www.w3.org/Graphics/SVG/1.1/DTD/svg11.dtd">
<!-- Generated by graphviz version 2.43.0 (0)
 -->
<!-- Title: unilink/transport/udp/udp.hpp Pages: 1 -->
<svg width="1583pt" height="352pt"
 viewBox="0.00 0.00 1582.50 352.00" xmlns="http://www.w3.org/2000/svg" xmlns:xlink="http://www.w3.org/1999/xlink">
<g id="graph0" class="graph" transform="scale(1 1) rotate(0) translate(4 348)">
<title>unilink/transport/udp/udp.hpp</title>
<polygon fill="white" stroke="transparent" points="-4,4 -4,-348 1578.5,-348 1578.5,4 -4,4"/>
<!-- Node1 -->
<g id="node1" class="node">
<title>Node1</title>
<g id="a_node1"><a xlink:title=" ">
<polygon fill="#bfbfbf" stroke="black" points="359.5,-313.5 359.5,-343.5 477.5,-343.5 477.5,-313.5 359.5,-313.5"/>
<text text-anchor="start" x="367.5" y="-331.5" font-family="Helvetica,sans-Serif" font-size="10.00">unilink/transport/udp</text>
<text text-anchor="middle" x="418.5" y="-320.5" font-family="Helvetica,sans-Serif" font-size="10.00">/udp.hpp</text>
</a>
</g>
</g>
<!-- Node2 -->
<g id="node2" class="node">
<title>Node2</title>
<g id="a_node2"><a xlink:title=" ">
<polygon fill="white" stroke="#bfbfbf" points="0,-252 0,-271 121,-271 121,-252 0,-252"/>
<text text-anchor="middle" x="60.5" y="-259" font-family="Helvetica,sans-Serif" font-size="10.00">boost/asio/ip/udp.hpp</text>
</a>
</g>
</g>
<!-- Node1&#45;&gt;Node2 -->
<g id="edge1" class="edge">
<title>Node1&#45;&gt;Node2</title>
<path fill="none" stroke="midnightblue" d="M359.37,-317.2C302.09,-307.17 212.78,-291.37 135.5,-277 128.67,-275.73 121.49,-274.37 114.39,-273.02"/>
<polygon fill="midnightblue" stroke="midnightblue" points="114.59,-269.49 104.1,-271.04 113.27,-276.36 114.59,-269.49"/>
</g>
<!-- Node3 -->
<g id="node3" class="node">
<title>Node3</title>
<g id="a_node3"><a xlink:title=" ">
<polygon fill="white" stroke="#bfbfbf" points="501,-56.5 501,-75.5 566,-75.5 566,-56.5 501,-56.5"/>
<text text-anchor="middle" x="533.5" y="-63.5" font-family="Helvetica,sans-Serif" font-size="10.00">functional</text>
</a>
</g>
</g>
<!-- Node1&#45;&gt;Node3 -->
<g id="edge2" class="edge">
<title>Node1&#45;&gt;Node3</title>
<path fill="none" stroke="midnightblue" d="M359.28,-321.24C330.01,-314.92 296.89,-302.27 277.5,-277 232.76,-218.69 219.05,-168.12 266.5,-112 294.66,-78.69 422.3,-70.03 490.39,-67.78"/>
<polygon fill="midnightblue" stroke="midnightblue" points="490.89,-71.27 500.78,-67.47 490.68,-64.27 490.89,-71.27"/>
</g>
<!-- Node4 -->
<g id="node4" class="node">
<title>Node4</title>
<g id="a_node4"><a xlink:title=" ">
<polygon fill="white" stroke="#bfbfbf" points="158.5,-56.5 158.5,-75.5 216.5,-75.5 216.5,-56.5 158.5,-56.5"/>
<text text-anchor="middle" x="187.5" y="-63.5" font-family="Helvetica,sans-Serif" font-size="10.00">memory</text>
</a>
</g>
</g>
<!-- Node1&#45;&gt;Node4 -->
<g id="edge3" class="edge">
<title>Node1&#45;&gt;Node4</title>
<path fill="none" stroke="midnightblue" d="M359.48,-322.71C324.58,-316.96 281.82,-304.38 253.5,-277 198.87,-224.18 189.29,-126.72 187.73,-85.83"/>
<polygon fill="midnightblue" stroke="midnightblue" points="191.23,-85.59 187.47,-75.68 184.23,-85.77 191.23,-85.59"/>
</g>
<!-- Node5 -->
<g id="node5" class="node">
<title>Node5</title>
<g id="a_node5"><a xlink:title=" ">
<polygon fill="white" stroke="#bfbfbf" points="1490.5,-185 1490.5,-204 1546.5,-204 1546.5,-185 1490.5,-185"/>
<text text-anchor="middle" x="1518.5" y="-192" font-family="Helvetica,sans-Serif" font-size="10.00">optional</text>
</a>
</g>
</g>
<!-- Node1&#45;&gt;Node5 -->
<g id="edge4" class="edge">
<title>Node1&#45;&gt;Node5</title>
<path fill="none" stroke="midnightblue" d="M477.54,-326.71C679.31,-323.73 1333.83,-311.46 1421.5,-277 1456.45,-263.26 1487.93,-231.6 1505.02,-212.03"/>
<polygon fill="midnightblue" stroke="midnightblue" points="1507.83,-214.12 1511.62,-204.23 1502.49,-209.6 1507.83,-214.12"/>
</g>
<!-- Node6 -->
<g id="node6" class="node">
<title>Node6</title>
<g id="a_node6"><a xlink:title=" ">
<polygon fill="white" stroke="#bfbfbf" points="1261,-0.5 1261,-19.5 1308,-19.5 1308,-0.5 1261,-0.5"/>
<text text-anchor="middle" x="1284.5" y="-7.5" font-family="Helvetica,sans-Serif" font-size="10.00">vector</text>
</a>
</g>
</g>
<!-- Node1&#45;&gt;Node6 -->
<g id="edge5" class="edge">
<title>Node1&#45;&gt;Node6</title>
<path fill="none" stroke="midnightblue" d="M477.8,-326.52C684.51,-322.84 1365.72,-308.42 1458.5,-277 1518.18,-256.79 1574.5,-258.51 1574.5,-195.5 1574.5,-195.5 1574.5,-195.5 1574.5,-126.5 1574.5,-71.89 1394.79,-31.69 1318.31,-17.05"/>
<polygon fill="midnightblue" stroke="midnightblue" points="1318.71,-13.56 1308.23,-15.15 1317.41,-20.44 1318.71,-13.56"/>
</g>
<!-- Node7 -->
<g id="node7" class="node">
<title>Node7</title>
<g id="a_node7"><a xlink:href="visibility_8hpp.html" target="_top" xlink:title=" ">
<polygon fill="white" stroke="black" points="626.5,-0.5 626.5,-19.5 766.5,-19.5 766.5,-0.5 626.5,-0.5"/>
<text text-anchor="middle" x="696.5" y="-7.5" font-family="Helvetica,sans-Serif" font-size="10.00">unilink/base/visibility.hpp</text>
</a>
</g>
</g>
<!-- Node1&#45;&gt;Node7 -->
<g id="edge6" class="edge">
<title>Node1&#45;&gt;Node7</title>
<path fill="none" stroke="midnightblue" d="M430.48,-313.36C438.11,-303.68 447.62,-290.26 453.5,-277 468.58,-243 472.5,-232.69 472.5,-195.5 472.5,-195.5 472.5,-195.5 472.5,-126.5 472.5,-94.05 468.02,-78.4 491.5,-56 509.54,-38.79 566.85,-27.13 616.31,-19.99"/>
<polygon fill="midnightblue" stroke="midnightblue" points="616.98,-23.43 626.4,-18.58 616.02,-16.5 616.98,-23.43"/>
</g>
<!-- Node8 -->
<g id="node8" class="node">
<title>Node8</title>
<g id="a_node8"><a xlink:href="udp__config_8hpp.html" target="_top" xlink:title=" ">
<polygon fill="white" stroke="black" points="1309,-246.5 1309,-276.5 1412,-276.5 1412,-246.5 1309,-246.5"/>
<text text-anchor="start" x="1317" y="-264.5" font-family="Helvetica,sans-Serif" font-size="10.00">unilink/config/udp</text>
<text text-anchor="middle" x="1360.5" y="-253.5" font-family="Helvetica,sans-Serif" font-size="10.00">_config.hpp</text>
</a>
</g>
</g>
<!-- Node1&#45;&gt;Node8 -->
<g id="edge7" class="edge">
<title>Node1&#45;&gt;Node8</title>
<path fill="none" stroke="midnightblue" d="M477.78,-323.41C646.38,-311.78 1127.43,-278.58 1298.88,-266.75"/>
<polygon fill="midnightblue" stroke="midnightblue" points="1299.26,-270.23 1308.99,-266.05 1298.77,-263.25 1299.26,-270.23"/>
</g>
<!-- Node13 -->
<g id="node13" class="node">
<title>Node13</title>
<g id="a_node13"><a xlink:href="channel_8hpp.html" target="_top" xlink:title=" ">
<polygon fill="white" stroke="black" points="286.5,-252 286.5,-271 444.5,-271 444.5,-252 286.5,-252"/>
<text text-anchor="middle" x="365.5" y="-259" font-family="Helvetica,sans-Serif" font-size="10.00">unilink/interface/channel.hpp</text>
</a>
</g>
</g>
<!-- Node1&#45;&gt;Node13 -->
<g id="edge14" class="edge">
<title>Node1&#45;&gt;Node13</title>
<path fill="none" stroke="midnightblue" d="M407,-313.4C398.82,-303.36 387.79,-289.84 379.16,-279.25"/>
<polygon fill="midnightblue" stroke="midnightblue" points="381.62,-276.73 372.59,-271.19 376.2,-281.16 381.62,-276.73"/>
</g>
<!-- Node8&#45;&gt;Node5 -->
<g id="edge9" class="edge">
<title>Node8&#45;&gt;Node5</title>
<path fill="none" stroke="midnightblue" d="M1394.78,-246.4C1422.63,-234.94 1461.53,-218.94 1488.23,-207.95"/>
<polygon fill="midnightblue" stroke="midnightblue" points="1489.91,-211.05 1497.82,-204.01 1487.24,-204.57 1489.91,-211.05"/>
</g>
<!-- Node9 -->
<g id="node9" class="node">
<title>Node9</title>
<g id="a_node9"><a xlink:title=" ">
<polygon fill="white" stroke="#bfbfbf" points="1274.5,-118 1274.5,-137 1324.5,-137 1324.5,-118 1274.5,-118"/>
<text text-anchor="middle" x="1299.5" y="-125" font-family="Helvetica,sans-Serif" font-size="10.00">cstdint</text>
</a>
</g>
</g>
<!-- Node8&#45;&gt;Node9 -->
<g id="edge8" class="edge">
<title>Node8&#45;&gt;Node9</title>
<path fill="none" stroke="midnightblue" d="M1321.38,-246.48C1305.07,-238.47 1287.79,-226.64 1278.5,-210 1267.18,-189.74 1277.99,-163.25 1287.83,-146.06"/>
<polygon fill="midnightblue" stroke="midnightblue" points="1291.07,-147.47 1293.33,-137.13 1285.11,-143.8 1291.07,-147.47"/>
</g>
<!-- Node10 -->
<g id="node10" class="node">
<title>Node10</title>
<g id="a_node10"><a xlink:title=" ">
<polygon fill="white" stroke="#bfbfbf" points="1024.5,-0.5 1024.5,-19.5 1068.5,-19.5 1068.5,-0.5 1024.5,-0.5"/>
<text text-anchor="middle" x="1046.5" y="-7.5" font-family="Helvetica,sans-Serif" font-size="10.00">string</text>
</a>
</g>
</g>
<!-- Node8&#45;&gt;Node10 -->
<g id="edge10" class="edge">
<title>Node8&#45;&gt;Node10</title>
<path fill="none" stroke="midnightblue" d="M1400.52,-246.38C1416.89,-238.4 1434.16,-226.62 1443.5,-210 1464.84,-172.03 1470.23,-146.39 1443.5,-112 1398.14,-53.65 1164.77,-23.48 1078.56,-14.18"/>
<polygon fill="midnightblue" stroke="midnightblue" points="1078.88,-10.7 1068.56,-13.13 1078.14,-17.66 1078.88,-10.7"/>
</g>
<!-- Node11 -->
<g id="node11" class="node">
<title>Node11</title>
<g id="a_node11"><a xlink:href="constants_8hpp.html" target="_top" xlink:title=" ">
<polygon fill="white" stroke="black" points="1287,-185 1287,-204 1434,-204 1434,-185 1287,-185"/>
<text text-anchor="middle" x="1360.5" y="-192" font-family="Helvetica,sans-Serif" font-size="10.00">unilink/base/constants.hpp</text>
</a>
</g>
</g>
<!-- Node8&#45;&gt;Node11 -->
<g id="edge11" class="edge">
<title>Node8&#45;&gt;Node11</title>
<path fill="none" stroke="midnightblue" d="M1360.5,-246.4C1360.5,-237.06 1360.5,-224.71 1360.5,-214.52"/>
<polygon fill="midnightblue" stroke="midnightblue" points="1364,-214.19 1360.5,-204.19 1357,-214.19 1364,-214.19"/>
</g>
<!-- Node11&#45;&gt;Node9 -->
<g id="edge13" class="edge">
<title>Node11&#45;&gt;Node9</title>
<path fill="none" stroke="midnightblue" d="M1352.27,-184.73C1342.67,-174.5 1326.59,-157.36 1314.7,-144.69"/>
<polygon fill="midnightblue" stroke="midnightblue" points="1316.99,-142.02 1307.6,-137.13 1311.89,-146.81 1316.99,-142.02"/>
</g>
<!-- Node12 -->
<g id="node12" class="node">
<title>Node12</title>
<g id="a_node12"><a xlink:title=" ">
<polygon fill="white" stroke="#bfbfbf" points="1381,-118 1381,-137 1434,-137 1434,-118 1381,-118"/>
<text text-anchor="middle" x="1407.5" y="-125" font-family="Helvetica,sans-Serif" font-size="10.00">cstddef</text>
</a>
</g>
</g>
<!-- Node11&#45;&gt;Node12 -->
<g id="edge12" class="edge">
<title>Node11&#45;&gt;Node12</title>
<path fill="none" stroke="midnightblue" d="M1366.84,-184.73C1374.1,-174.7 1386.16,-158.01 1395.26,-145.42"/>
<polygon fill="midnightblue" stroke="midnightblue" points="1398.24,-147.28 1401.26,-137.13 1392.57,-143.18 1398.24,-147.28"/>
</g>
<!-- Node13&#45;&gt;Node3 -->
<g id="edge15" class="edge">
<title>Node13&#45;&gt;Node3</title>
<path fill="none" stroke="midnightblue" d="M352.28,-251.93C339.28,-242.9 319.66,-227.56 307.5,-210 281.91,-173.05 253.66,-146.48 282.5,-112 308.54,-80.88 425.96,-71.26 490.56,-68.3"/>
<polygon fill="midnightblue" stroke="midnightblue" points="490.99,-71.78 500.84,-67.86 490.7,-64.79 490.99,-71.78"/>
</g>
<!-- Node13&#45;&gt;Node4 -->
<g id="edge16" class="edge">
<title>Node13&#45;&gt;Node4</title>
<path fill="none" stroke="midnightblue" d="M346.17,-251.99C327.99,-243.31 300.77,-228.51 281.5,-210 241.81,-171.87 210.34,-114.04 195.98,-84.99"/>
<polygon fill="midnightblue" stroke="midnightblue" points="198.98,-83.16 191.47,-75.68 192.68,-86.21 198.98,-83.16"/>
</g>
<!-- Node13&#45;&gt;Node6 -->
<g id="edge17" class="edge">
<title>Node13&#45;&gt;Node6</title>
<path fill="none" stroke="midnightblue" d="M444.88,-256.98C666.06,-246.35 1276.81,-211.04 1333.5,-143 1362.59,-108.09 1323.6,-54.28 1300.06,-27.43"/>
<polygon fill="midnightblue" stroke="midnightblue" points="1302.38,-24.77 1293.07,-19.71 1297.19,-29.47 1302.38,-24.77"/>
</g>
<!-- Node13&#45;&gt;Node7 -->
<g id="edge52" class="edge">
<title>Node13&#45;&gt;Node7</title>
<path fill="none" stroke="midnightblue" d="M342.96,-251.98C274,-224.75 74.98,-136.9 149.5,-56 180.45,-22.4 471.99,-13.89 616.33,-11.73"/>
<polygon fill="midnightblue" stroke="midnightblue" points="616.51,-15.23 626.46,-11.59 616.41,-8.23 616.51,-15.23"/>
</g>
<!-- Node14 -->
<g id="node14" class="node">
<title>Node14</title>
<g id="a_node14"><a xlink:href="common_8hpp.html" target="_top" xlink:title=" ">
<polygon fill="white" stroke="black" points="816,-185 816,-204 959,-204 959,-185 816,-185"/>
<text text-anchor="middle" x="887.5" y="-192" font-family="Helvetica,sans-Serif" font-size="10.00">unilink/base/common.hpp</text>
</a>
</g>
</g>
<!-- Node13&#45;&gt;Node14 -->
<g id="edge18" class="edge">
<title>Node13&#45;&gt;Node14</title>
<path fill="none" stroke="midnightblue" d="M434.01,-251.97C530.78,-239.92 707.04,-217.97 808.97,-205.28"/>
<polygon fill="midnightblue" stroke="midnightblue" points="809.41,-208.75 818.9,-204.04 808.55,-201.8 809.41,-208.75"/>
</g>
<!-- Node30 -->
<g id="node30" class="node">
<title>Node30</title>
<g id="a_node30"><a xlink:href="safe__span_8hpp.html" target="_top" xlink:title=" ">
<polygon fill="white" stroke="black" points="316.5,-179.5 316.5,-209.5 434.5,-209.5 434.5,-179.5 316.5,-179.5"/>
<text text-anchor="start" x="324.5" y="-197.5" font-family="Helvetica,sans-Serif" font-size="10.00">unilink/memory/safe</text>
<text text-anchor="middle" x="375.5" y="-186.5" font-family="Helvetica,sans-Serif" font-size="10.00">_span.hpp</text>
</a>
</g>
</g>
<!-- Node13&#45;&gt;Node30 -->
<g id="edge53" class="edge">
<title>Node13&#45;&gt;Node30</title>
<path fill="none" stroke="midnightblue" d="M366.85,-251.73C368.11,-243.54 370.05,-230.92 371.77,-219.71"/>
<polygon fill="midnightblue" stroke="midnightblue" points="375.27,-220 373.33,-209.59 368.35,-218.94 375.27,-220"/>
</g>
<!-- Node14&#45;&gt;Node3 -->
<g id="edge23" class="edge">
<title>Node14&#45;&gt;Node3</title>
<path fill="none" stroke="midnightblue" d="M815.88,-194.01C722.24,-192.98 565.83,-184.81 529.5,-143 515.86,-127.31 520.5,-102.19 526.1,-85.17"/>
<polygon fill="midnightblue" stroke="midnightblue" points="529.39,-86.36 529.56,-75.77 522.82,-83.95 529.39,-86.36"/>
</g>
<!-- Node14&#45;&gt;Node6 -->
<g id="edge31" class="edge">
<title>Node14&#45;&gt;Node6</title>
<path fill="none" stroke="midnightblue" d="M959.07,-189.47C1041.3,-183.61 1169.99,-170.31 1209.5,-143 1249.68,-115.22 1270.99,-58.49 1279.69,-29.28"/>
<polygon fill="midnightblue" stroke="midnightblue" points="1283.09,-30.12 1282.43,-19.55 1276.35,-28.23 1283.09,-30.12"/>
</g>
<!-- Node14&#45;&gt;Node9 -->
<g id="edge20" class="edge">
<title>Node14&#45;&gt;Node9</title>
<path fill="none" stroke="midnightblue" d="M959.2,-188.53C1034.96,-182.18 1157.49,-168.78 1260.5,-143 1263.49,-142.25 1266.56,-141.35 1269.61,-140.37"/>
<polygon fill="midnightblue" stroke="midnightblue" points="1270.84,-143.65 1279.12,-137.04 1268.53,-137.04 1270.84,-143.65"/>
</g>
<!-- Node14&#45;&gt;Node10 -->
<g id="edge28" class="edge">
<title>Node14&#45;&gt;Node10</title>
<path fill="none" stroke="midnightblue" d="M896.81,-184.84C913.75,-169.31 951.04,-136.08 985.5,-112 1011.62,-93.75 1031.6,-103.61 1047.5,-76 1055.59,-61.95 1054.29,-43.21 1051.58,-29.46"/>
<polygon fill="midnightblue" stroke="midnightblue" points="1054.98,-28.62 1049.27,-19.69 1048.17,-30.23 1054.98,-28.62"/>
</g>
<!-- Node15 -->
<g id="node15" class="node">
<title>Node15</title>
<g id="a_node15"><a xlink:title=" ">
<polygon fill="white" stroke="#bfbfbf" points="1145.5,-0.5 1145.5,-19.5 1195.5,-19.5 1195.5,-0.5 1145.5,-0.5"/>
<text text-anchor="middle" x="1170.5" y="-7.5" font-family="Helvetica,sans-Serif" font-size="10.00">chrono</text>
</a>
</g>
</g>
<!-- Node14&#45;&gt;Node15 -->
<g id="edge19" class="edge">
<title>Node14&#45;&gt;Node15</title>
<path fill="none" stroke="midnightblue" d="M959.08,-191.81C1038.88,-188.24 1160.56,-177.18 1189.5,-143 1217.08,-110.42 1195.08,-56.31 1180.61,-28.57"/>
<polygon fill="midnightblue" stroke="midnightblue" points="1183.59,-26.73 1175.73,-19.64 1177.45,-30.09 1183.59,-26.73"/>
</g>
<!-- Node16 -->
<g id="node16" class="node">
<title>Node16</title>
<g id="a_node16"><a xlink:title=" ">
<polygon fill="white" stroke="#bfbfbf" points="994.5,-118 994.5,-137 1044.5,-137 1044.5,-118 994.5,-118"/>
<text text-anchor="middle" x="1019.5" y="-125" font-family="Helvetica,sans-Serif" font-size="10.00">cstring</text>
</a>
</g>
</g>
<!-- Node14&#45;&gt;Node16 -->
<g id="edge21" class="edge">
<title>Node14&#45;&gt;Node16</title>
<path fill="none" stroke="midnightblue" d="M905.03,-184.87C927.51,-173.8 966.73,-154.49 992.9,-141.6"/>
<polygon fill="midnightblue" stroke="midnightblue" points="994.47,-144.72 1001.9,-137.17 991.38,-138.44 994.47,-144.72"/>
</g>
<!-- Node17 -->
<g id="node17" class="node">
<title>Node17</title>
<g id="a_node17"><a xlink:title=" ">
<polygon fill="white" stroke="#bfbfbf" points="1062.5,-118 1062.5,-137 1106.5,-137 1106.5,-118 1062.5,-118"/>
<text text-anchor="middle" x="1084.5" y="-125" font-family="Helvetica,sans-Serif" font-size="10.00">ctime</text>
</a>
</g>
</g>
<!-- Node14&#45;&gt;Node17 -->
<g id="edge22" class="edge">
<title>Node14&#45;&gt;Node17</title>
<path fill="none" stroke="midnightblue" d="M920.41,-184.98C954.24,-175.87 1008.22,-160.38 1053.5,-143 1054.92,-142.45 1056.37,-141.87 1057.82,-141.27"/>
<polygon fill="midnightblue" stroke="midnightblue" points="1059.58,-144.32 1067.31,-137.07 1056.75,-137.92 1059.58,-144.32"/>
</g>
<!-- Node18 -->
<g id="node18" class="node">
<title>Node18</title>
<g id="a_node18"><a xlink:title=" ">
<polygon fill="white" stroke="#bfbfbf" points="1124.5,-118 1124.5,-137 1180.5,-137 1180.5,-118 1124.5,-118"/>
<text text-anchor="middle" x="1152.5" y="-125" font-family="Helvetica,sans-Serif" font-size="10.00">iomanip</text>
</a>
</g>
</g>
<!-- Node14&#45;&gt;Node18 -->
<g id="edge24" class="edge">
<title>Node14&#45;&gt;Node18</title>
<path fill="none" stroke="midnightblue" d="M936.55,-184.92C983.11,-176.25 1054.81,-161.49 1115.5,-143 1117.93,-142.26 1120.42,-141.44 1122.91,-140.56"/>
<polygon fill="midnightblue" stroke="midnightblue" points="1124.19,-143.82 1132.34,-137.05 1121.75,-137.26 1124.19,-143.82"/>
</g>
<!-- Node19 -->
<g id="node19" class="node">
<title>Node19</title>
<g id="a_node19"><a xlink:title=" ">
<polygon fill="white" stroke="#bfbfbf" points="538.5,-118 538.5,-137 598.5,-137 598.5,-118 538.5,-118"/>
<text text-anchor="middle" x="568.5" y="-125" font-family="Helvetica,sans-Serif" font-size="10.00">iostream</text>
</a>
</g>
</g>
<!-- Node14&#45;&gt;Node19 -->
<g id="edge25" class="edge">
<title>Node14&#45;&gt;Node19</title>
<path fill="none" stroke="midnightblue" d="M821.42,-184.96C764.21,-176.77 679.56,-162.73 607.5,-143 604.69,-142.23 601.8,-141.34 598.92,-140.4"/>
<polygon fill="midnightblue" stroke="midnightblue" points="599.92,-137.04 589.33,-137.02 597.6,-143.64 599.92,-137.04"/>
</g>
<!-- Node20 -->
<g id="node20" class="node">
<title>Node20</title>
<g id="a_node20"><a xlink:title=" ">
<polygon fill="white" stroke="#bfbfbf" points="616.5,-118 616.5,-137 672.5,-137 672.5,-118 616.5,-118"/>
<text text-anchor="middle" x="644.5" y="-125" font-family="Helvetica,sans-Serif" font-size="10.00">sstream</text>
</a>
</g>
</g>
<!-- Node14&#45;&gt;Node20 -->
<g id="edge26" class="edge">
<title>Node14&#45;&gt;Node20</title>
<path fill="none" stroke="midnightblue" d="M849.45,-184.97C808.83,-175.63 742.71,-159.73 686.5,-143 683.73,-142.17 680.87,-141.28 678,-140.35"/>
<polygon fill="midnightblue" stroke="midnightblue" points="678.97,-136.99 668.37,-137.14 676.75,-143.63 678.97,-136.99"/>
</g>
<!-- Node21 -->
<g id="node21" class="node">
<title>Node21</title>
<g id="a_node21"><a xlink:title=" ">
<polygon fill="white" stroke="#bfbfbf" points="379,-118 379,-137 444,-137 444,-118 379,-118"/>
<text text-anchor="middle" x="411.5" y="-125" font-family="Helvetica,sans-Serif" font-size="10.00">stdexcept</text>
</a>
</g>
</g>
<!-- Node14&#45;&gt;Node21 -->
<g id="edge27" class="edge">
<title>Node14&#45;&gt;Node21</title>
<path fill="none" stroke="midnightblue" d="M815.67,-185.11C737.15,-175.73 607.68,-159.66 496.5,-143 482.7,-140.93 467.67,-138.45 454.15,-136.12"/>
<polygon fill="midnightblue" stroke="midnightblue" points="454.6,-132.65 444.14,-134.39 453.4,-139.55 454.6,-132.65"/>
</g>
<!-- Node22 -->
<g id="node22" class="node">
<title>Node22</title>
<g id="a_node22"><a xlink:title=" ">
<polygon fill="white" stroke="#bfbfbf" points="595,-56.5 595,-75.5 668,-75.5 668,-56.5 595,-56.5"/>
<text text-anchor="middle" x="631.5" y="-63.5" font-family="Helvetica,sans-Serif" font-size="10.00">string_view</text>
</a>
</g>
</g>
<!-- Node14&#45;&gt;Node22 -->
<g id="edge29" class="edge">
<title>Node14&#45;&gt;Node22</title>
<path fill="none" stroke="midnightblue" d="M841.55,-184.97C806.83,-177.28 758.77,-163.92 720.5,-143 712.53,-138.64 672.23,-103.26 648.68,-82.34"/>
<polygon fill="midnightblue" stroke="midnightblue" points="650.93,-79.65 641.13,-75.62 646.28,-84.88 650.93,-79.65"/>
</g>
<!-- Node23 -->
<g id="node23" class="node">
<title>Node23</title>
<g id="a_node23"><a xlink:title=" ">
<polygon fill="white" stroke="#bfbfbf" points="729,-118 729,-137 774,-137 774,-118 729,-118"/>
<text text-anchor="middle" x="751.5" y="-125" font-family="Helvetica,sans-Serif" font-size="10.00">utility</text>
</a>
</g>
</g>
<!-- Node14&#45;&gt;Node23 -->
<g id="edge30" class="edge">
<title>Node14&#45;&gt;Node23</title>
<path fill="none" stroke="midnightblue" d="M869.44,-184.87C846.27,-173.8 805.87,-154.49 778.9,-141.6"/>
<polygon fill="midnightblue" stroke="midnightblue" points="780.17,-138.32 769.63,-137.17 777.15,-144.64 780.17,-138.32"/>
</g>
<!-- Node24 -->
<g id="node24" class="node">
<title>Node24</title>
<g id="a_node24"><a xlink:href="platform_8hpp.html" target="_top" xlink:title=" ">
<polygon fill="white" stroke="black" points="762.5,-56.5 762.5,-75.5 904.5,-75.5 904.5,-56.5 762.5,-56.5"/>
<text text-anchor="middle" x="833.5" y="-63.5" font-family="Helvetica,sans-Serif" font-size="10.00">unilink/base/platform.hpp</text>
</a>
</g>
</g>
<!-- Node14&#45;&gt;Node24 -->
<g id="edge32" class="edge">
<title>Node14&#45;&gt;Node24</title>
<path fill="none" stroke="midnightblue" d="M893.88,-184.87C904.49,-169.37 923.29,-136.19 909.5,-112 901.09,-97.25 885.73,-86.84 871.02,-79.77"/>
<polygon fill="midnightblue" stroke="midnightblue" points="872.08,-76.42 861.52,-75.6 869.26,-82.83 872.08,-76.42"/>
</g>
<!-- Node25 -->
<g id="node25" class="node">
<title>Node25</title>
<g id="a_node25"><a xlink:href="logger_8hpp.html" target="_top" xlink:title=" ">
<polygon fill="white" stroke="black" points="792.5,-112.5 792.5,-142.5 900.5,-142.5 900.5,-112.5 792.5,-112.5"/>
<text text-anchor="start" x="800.5" y="-130.5" font-family="Helvetica,sans-Serif" font-size="10.00">unilink/diagnostics</text>
<text text-anchor="middle" x="846.5" y="-119.5" font-family="Helvetica,sans-Serif" font-size="10.00">/logger.hpp</text>
</a>
</g>
</g>
<!-- Node14&#45;&gt;Node25 -->
<g id="edge35" class="edge">
<title>Node14&#45;&gt;Node25</title>
<path fill="none" stroke="midnightblue" d="M881.97,-184.73C876.59,-176.2 868.18,-162.87 860.9,-151.33"/>
<polygon fill="midnightblue" stroke="midnightblue" points="863.68,-149.18 855.39,-142.59 857.76,-152.91 863.68,-149.18"/>
</g>
<!-- Node24&#45;&gt;Node7 -->
<g id="edge34" class="edge">
<title>Node24&#45;&gt;Node7</title>
<path fill="none" stroke="midnightblue" d="M811.79,-56.44C789.15,-47.52 753.43,-33.44 727.75,-23.32"/>
<polygon fill="midnightblue" stroke="midnightblue" points="728.69,-19.93 718.11,-19.52 726.13,-26.44 728.69,-19.93"/>
</g>
<!-- Node24&#45;&gt;Node10 -->
<g id="edge33" class="edge">
<title>Node24&#45;&gt;Node10</title>
<path fill="none" stroke="midnightblue" d="M867.25,-56.44C907.63,-46.21 974.74,-29.19 1014.38,-19.14"/>
<polygon fill="midnightblue" stroke="midnightblue" points="1015.48,-22.47 1024.32,-16.62 1013.76,-15.69 1015.48,-22.47"/>
</g>
<!-- Node25&#45;&gt;Node3 -->
<g id="edge38" class="edge">
<title>Node25&#45;&gt;Node3</title>
<path fill="none" stroke="midnightblue" d="M792.24,-113.84C789.29,-113.2 786.36,-112.59 783.5,-112 744.6,-104.03 636.72,-85 576.16,-74.42"/>
<polygon fill="midnightblue" stroke="midnightblue" points="576.59,-70.95 566.14,-72.67 575.39,-77.84 576.59,-70.95"/>
</g>
<!-- Node25&#45;&gt;Node4 -->
<g id="edge39" class="edge">
<title>Node25&#45;&gt;Node4</title>
<path fill="none" stroke="midnightblue" d="M792.3,-113.48C789.33,-112.94 786.38,-112.44 783.5,-112 575.11,-80.34 322.17,-70.59 226.59,-67.91"/>
<polygon fill="midnightblue" stroke="midnightblue" points="226.61,-64.41 216.52,-67.64 226.42,-71.41 226.61,-64.41"/>
</g>
<!-- Node25&#45;&gt;Node6 -->
<g id="edge42" class="edge">
<title>Node25&#45;&gt;Node6</title>
<path fill="none" stroke="midnightblue" d="M900.53,-116.46C948.39,-107.19 1020.01,-92.41 1081.5,-76 1142.15,-59.82 1211.55,-36.54 1251.48,-22.68"/>
<polygon fill="midnightblue" stroke="midnightblue" points="1252.68,-25.97 1260.97,-19.37 1250.38,-19.36 1252.68,-25.97"/>
</g>
<!-- Node25&#45;&gt;Node7 -->
<g id="edge51" class="edge">
<title>Node25&#45;&gt;Node7</title>
<path fill="none" stroke="midnightblue" d="M808.54,-112.47C788.46,-103.89 764.18,-91.55 745.5,-76 729.26,-62.48 715.28,-42.59 706.45,-28.37"/>
<polygon fill="midnightblue" stroke="midnightblue" points="709.34,-26.37 701.21,-19.58 703.33,-29.96 709.34,-26.37"/>
</g>
<!-- Node25&#45;&gt;Node10 -->
<g id="edge40" class="edge">
<title>Node25&#45;&gt;Node10</title>
<path fill="none" stroke="midnightblue" d="M900.84,-117.33C947.36,-108.44 1009.57,-93.71 1027.5,-76 1039.64,-64 1044.12,-44.71 1045.73,-30.25"/>
<polygon fill="midnightblue" stroke="midnightblue" points="1049.24,-30.16 1046.49,-19.93 1042.26,-29.64 1049.24,-30.16"/>
</g>
<!-- Node25&#45;&gt;Node15 -->
<g id="edge37" class="edge">
<title>Node25&#45;&gt;Node15</title>
<path fill="none" stroke="midnightblue" d="M900.9,-116.52C941.97,-108.11 999.29,-94.49 1047.5,-76 1084.33,-61.88 1124.23,-39.32 1148.29,-24.84"/>
<polygon fill="midnightblue" stroke="midnightblue" points="1150.27,-27.73 1156.99,-19.53 1146.63,-21.75 1150.27,-27.73"/>
</g>
<!-- Node25&#45;&gt;Node22 -->
<g id="edge41" class="edge">
<title>Node25&#45;&gt;Node22</title>
<path fill="none" stroke="midnightblue" d="M795.82,-112.47C758.08,-102.03 707.23,-87.96 672.14,-78.25"/>
<polygon fill="midnightblue" stroke="midnightblue" points="672.81,-74.8 662.24,-75.51 670.94,-81.55 672.81,-74.8"/>
</g>
<!-- Node26 -->
<g id="node26" class="node">
<title>Node26</title>
<g id="a_node26"><a xlink:title=" ">
<polygon fill="white" stroke="#bfbfbf" points="794.5,-0.5 794.5,-19.5 844.5,-19.5 844.5,-0.5 794.5,-0.5"/>
<text text-anchor="middle" x="819.5" y="-7.5" font-family="Helvetica,sans-Serif" font-size="10.00">atomic</text>
</a>
</g>
</g>
<!-- Node25&#45;&gt;Node26 -->
<g id="edge36" class="edge">
<title>Node25&#45;&gt;Node26</title>
<path fill="none" stroke="midnightblue" d="M799.36,-112.48C781.78,-104.71 763.64,-93.05 753.5,-76 741,-54.98 766.63,-36 789.51,-24.05"/>
<polygon fill="midnightblue" stroke="midnightblue" points="791.27,-27.08 798.7,-19.53 788.18,-20.8 791.27,-27.08"/>
</g>
<!-- Node27 -->
<g id="node27" class="node">
<title>Node27</title>
<g id="a_node27"><a xlink:href="log__rotation_8hpp.html" target="_top" xlink:title=" ">
<polygon fill="white" stroke="black" points="922.5,-56.5 922.5,-75.5 1018.5,-75.5 1018.5,-56.5 922.5,-56.5"/>
<text text-anchor="middle" x="970.5" y="-63.5" font-family="Helvetica,sans-Serif" font-size="10.00">log_rotation.hpp</text>
</a>
</g>
</g>
<!-- Node25&#45;&gt;Node27 -->
<g id="edge43" class="edge">
<title>Node25&#45;&gt;Node27</title>
<path fill="none" stroke="midnightblue" d="M875.89,-112.4C896.32,-102.59 923.36,-89.62 943.3,-80.05"/>
<polygon fill="midnightblue" stroke="midnightblue" points="944.96,-83.14 952.46,-75.66 941.93,-76.83 944.96,-83.14"/>
</g>
<!-- Node27&#45;&gt;Node6 -->
<g id="edge49" class="edge">
<title>Node27&#45;&gt;Node6</title>
<path fill="none" stroke="midnightblue" d="M1018.53,-56.74C1082.77,-45.69 1195.03,-26.39 1250.91,-16.78"/>
<polygon fill="midnightblue" stroke="midnightblue" points="1251.72,-20.19 1260.98,-15.04 1250.54,-13.29 1251.72,-20.19"/>
</g>
<!-- Node27&#45;&gt;Node7 -->
<g id="edge50" class="edge">
<title>Node27&#45;&gt;Node7</title>
<path fill="none" stroke="midnightblue" d="M927.08,-56.44C878.98,-46.96 801.41,-31.67 749.69,-21.48"/>
<polygon fill="midnightblue" stroke="midnightblue" points="750.2,-18.02 739.71,-19.52 748.85,-24.88 750.2,-18.02"/>
</g>
<!-- Node27&#45;&gt;Node10 -->
<g id="edge48" class="edge">
<title>Node27&#45;&gt;Node10</title>
<path fill="none" stroke="midnightblue" d="M982.71,-56.32C994.28,-48.11 1011.88,-35.6 1025.66,-25.81"/>
<polygon fill="midnightblue" stroke="midnightblue" points="1027.94,-28.48 1034.07,-19.83 1023.89,-22.77 1027.94,-28.48"/>
</g>
<!-- Node27&#45;&gt;Node15 -->
<g id="edge45" class="edge">
<title>Node27&#45;&gt;Node15</title>
<path fill="none" stroke="midnightblue" d="M1002.19,-56.44C1038.44,-46.66 1097.61,-30.68 1135.28,-20.51"/>
<polygon fill="midnightblue" stroke="midnightblue" points="1136.55,-23.79 1145.29,-17.81 1134.72,-17.03 1136.55,-23.79"/>
</g>
<!-- Node27&#45;&gt;Node26 -->
<g id="edge44" class="edge">
<title>Node27&#45;&gt;Node26</title>
<path fill="none" stroke="midnightblue" d="M946.57,-56.44C921.28,-47.4 881.2,-33.06 852.82,-22.92"/>
<polygon fill="midnightblue" stroke="midnightblue" points="853.91,-19.59 843.31,-19.52 851.55,-26.18 853.91,-19.59"/>
</g>
<!-- Node28 -->
<g id="node28" class="node">
<title>Node28</title>
<g id="a_node28"><a xlink:title=" ">
<polygon fill="white" stroke="#bfbfbf" points="866.5,-0.5 866.5,-19.5 934.5,-19.5 934.5,-0.5 866.5,-0.5"/>
<text text-anchor="middle" x="900.5" y="-7.5" font-family="Helvetica,sans-Serif" font-size="10.00">filesystem</text>
</a>
</g>
</g>
<!-- Node27&#45;&gt;Node28 -->
<g id="edge46" class="edge">
<title>Node27&#45;&gt;Node28</title>
<path fill="none" stroke="midnightblue" d="M959.25,-56.32C948.7,-48.18 932.7,-35.84 920.06,-26.09"/>
<polygon fill="midnightblue" stroke="midnightblue" points="922.01,-23.17 911.95,-19.83 917.73,-28.71 922.01,-23.17"/>
</g>
<!-- Node29 -->
<g id="node29" class="node">
<title>Node29</title>
<g id="a_node29"><a xlink:title=" ">
<polygon fill="white" stroke="#bfbfbf" points="952.5,-0.5 952.5,-19.5 1000.5,-19.5 1000.5,-0.5 952.5,-0.5"/>
<text text-anchor="middle" x="976.5" y="-7.5" font-family="Helvetica,sans-Serif" font-size="10.00">mutex</text>
</a>
</g>
</g>
<!-- Node27&#45;&gt;Node29 -->
<g id="edge47" class="edge">
<title>Node27&#45;&gt;Node29</title>
<path fill="none" stroke="midnightblue" d="M971.49,-56.08C972.29,-48.93 973.43,-38.64 974.42,-29.69"/>
<polygon fill="midnightblue" stroke="midnightblue" points="977.9,-30.08 975.53,-19.75 970.94,-29.3 977.9,-30.08"/>
</g>
<!-- Node30&#45;&gt;Node9 -->
<g id="edge54" class="edge">
<title>Node30&#45;&gt;Node9</title>
<path fill="none" stroke="midnightblue" d="M434.6,-191.24C568.94,-185.78 907.46,-170.3 1189.5,-143 1214.54,-140.58 1242.67,-136.85 1264.21,-133.78"/>
<polygon fill="midnightblue" stroke="midnightblue" points="1264.82,-137.23 1274.22,-132.34 1263.82,-130.3 1264.82,-137.23"/>
</g>
<!-- Node30&#45;&gt;Node21 -->
<g id="edge55" class="edge">
<title>Node30&#45;&gt;Node21</title>
<path fill="none" stroke="midnightblue" d="M383.31,-179.4C388.7,-169.66 395.91,-156.65 401.69,-146.21"/>
<polygon fill="midnightblue" stroke="midnightblue" points="404.9,-147.64 406.68,-137.19 398.78,-144.25 404.9,-147.64"/>
</g>
<!-- Node31 -->
<g id="node31" class="node">
<title>Node31</title>
<g id="a_node31"><a xlink:title=" ">
<polygon fill="white" stroke="#bfbfbf" points="292,-118 292,-137 361,-137 361,-118 292,-118"/>
<text text-anchor="middle" x="326.5" y="-125" font-family="Helvetica,sans-Serif" font-size="10.00">type_traits</text>
</a>
</g>
</g>
<!-- Node30&#45;&gt;Node31 -->
<g id="edge56" class="edge">
<title>Node30&#45;&gt;Node31</title>
<path fill="none" stroke="midnightblue" d="M364.87,-179.4C357.3,-169.36 347.11,-155.84 339.13,-145.25"/>
<polygon fill="midnightblue" stroke="midnightblue" points="341.87,-143.07 333.05,-137.19 336.28,-147.29 341.87,-143.07"/>
</g>
</g>
</svg>
