<?xml version="1.0" encoding="UTF-8" standalone="no"?>
<!DOCTYPE svg PUBLIC "-//W3C//DTD SVG 1.1//EN"
 "http://www.w3.org/Graphics/SVG/1.1/DTD/svg11.dtd">
<!-- Generated by graphviz version 2.43.0 (0)
 -->
<!-- Title: unilink/transport/tcp_server/tcp_server.hpp Pages: 1 -->
<!--zoomable 352 -->
<svg id="main" version="1.1" xmlns="http://www.w3.org/2000/svg" xmlns:xlink="http://www.w3.org/1999/xlink" xml:space="preserve" onload="init(evt)">
<style type="text/css"><![CDATA[
.edge:hover path { stroke: red; }
.edge:hover polygon { stroke: red; fill: red; }
]]></style>
<script type="text/javascript"><![CDATA[
var edges = document.getElementsByTagName('g');
if (edges && edges.length) {
  for (var i=0;i<edges.length;i++) {
    if (edges[i].id.substr(0,4)=='edge') {
      edges[i].setAttribute('class','edge');
    }
  }
}
]]></script>
        <defs>
                <circle id="rim" cx="0" cy="0" r="7"/>
                <circle id="rim2" cx="0" cy="0" r="3.5"/>
                <g id="zoomPlus">
                        <use xlink:href="#rim" fill="#404040">
                                <set attributeName="fill" to="#808080" begin="zoomplus.mouseover" end="zoomplus.mouseout"/>
                        </use>
                        <path d="M-4,0h8M0,-4v8" fill="none" stroke="white" stroke-width="1.5" pointer-events="none"/>
                </g>
                <g id="zoomMin">
                        <use xlink:href="#rim" fill="#404040">
                                <set attributeName="fill" to="#808080" begin="zoomminus.mouseover" end="zoomminus.mouseout"/>
                        </use>
                        <path d="M-4,0h8" fill="none" stroke="white" stroke-width="1.5" pointer-events="none"/>
                </g>
                <g id="dirArrow">
                        <path fill="none" stroke="white" stroke-width="1.5" d="M0,-3.0v7 M-2.5,-0.5L0,-3.0L2.5,-0.5"/>
                </g>
               <g id="resetDef">
                       <use xlink:href="#rim2" fill="#404040">
                               <set attributeName="fill" to="#808080" begin="reset.mouseover" end="reset.mouseout"/>
                       </use>
               </g>
        </defs>

<script type="text/javascript">
var viewWidth = 2056;
var viewHeight = 352;
var sectionId = 'dynsection-0';
</script>
<script xlink:href="svgpan.js"/>
<svg id="graph" class="graph">
<g id="viewport">
<title>unilink/transport/tcp_server/tcp_server.hpp</title>
<polygon fill="white" stroke="transparent" points="-4,4 -4,-348 2052.35,-348 2052.35,4 -4,4"/>
<!-- Node1 -->
<g id="node1" class="node">
<title>Node1</title>
<g id="a_node1"><a xlink:title=" ">
<polygon fill="#bfbfbf" stroke="black" points="843.85,-313.5 843.85,-343.5 970.85,-343.5 970.85,-313.5 843.85,-313.5"/>
<text text-anchor="start" x="851.85" y="-331.5" font-family="Helvetica,sans-Serif" font-size="10.00">unilink/transport/tcp</text>
<text text-anchor="middle" x="907.35" y="-320.5" font-family="Helvetica,sans-Serif" font-size="10.00">_server/tcp_server.hpp</text>
</a>
</g>
</g>
<!-- Node2 -->
<g id="node2" class="node">
<title>Node2</title>
<g id="a_node2"><a xlink:title=" ">
<polygon fill="white" stroke="#bfbfbf" points="921.35,-62 921.35,-81 979.35,-81 979.35,-62 921.35,-62"/>
<text text-anchor="middle" x="950.35" y="-69" font-family="Helvetica,sans-Serif" font-size="10.00">memory</text>
</a>
</g>
</g>
<!-- Node1&#45;&gt;Node2 -->
<g id="edge1" class="edge">
<title>Node1&#45;&gt;Node2</title>
<path fill="none" stroke="midnightblue" d="M909.73,-313.43C917,-270.32 938.96,-140.05 947.19,-91.24"/>
<polygon fill="midnightblue" stroke="midnightblue" points="950.68,-91.6 948.9,-81.16 943.78,-90.44 950.68,-91.6"/>
</g>
<!-- Node3 -->
<g id="node3" class="node">
<title>Node3</title>
<g id="a_node3"><a xlink:title=" ">
<polygon fill="white" stroke="#bfbfbf" points="835.35,-0.5 835.35,-19.5 879.35,-19.5 879.35,-0.5 835.35,-0.5"/>
<text text-anchor="middle" x="857.35" y="-7.5" font-family="Helvetica,sans-Serif" font-size="10.00">string</text>
</a>
</g>
</g>
<!-- Node1&#45;&gt;Node3 -->
<g id="edge2" class="edge">
<title>Node1&#45;&gt;Node3</title>
<path fill="none" stroke="midnightblue" d="M882.44,-313.5C868.63,-304.62 852.13,-292 841.35,-277 822.05,-250.12 817.35,-239.6 817.35,-206.5 817.35,-206.5 817.35,-206.5 817.35,-137.5 817.35,-96.99 836.23,-52.44 848.05,-28.51"/>
<polygon fill="midnightblue" stroke="midnightblue" points="851.18,-30.09 852.61,-19.6 844.94,-26.91 851.18,-30.09"/>
</g>
<!-- Node4 -->
<g id="node4" class="node">
<title>Node4</title>
<g id="a_node4"><a xlink:title=" ">
<polygon fill="white" stroke="#bfbfbf" points="1035.85,-62 1035.85,-81 1108.85,-81 1108.85,-62 1035.85,-62"/>
<text text-anchor="middle" x="1072.35" y="-69" font-family="Helvetica,sans-Serif" font-size="10.00">string_view</text>
</a>
</g>
</g>
<!-- Node1&#45;&gt;Node4 -->
<g id="edge3" class="edge">
<title>Node1&#45;&gt;Node4</title>
<path fill="none" stroke="midnightblue" d="M970.95,-319.48C1021.47,-311.65 1086.22,-297.84 1102.35,-277 1124.78,-248.03 1092.35,-135.2 1078.3,-90.69"/>
<polygon fill="midnightblue" stroke="midnightblue" points="1081.63,-89.62 1075.24,-81.16 1074.97,-91.76 1081.63,-89.62"/>
</g>
<!-- Node5 -->
<g id="node5" class="node">
<title>Node5</title>
<g id="a_node5"><a xlink:title=" ">
<polygon fill="white" stroke="#bfbfbf" points="1775.85,-0.5 1775.85,-19.5 1822.85,-19.5 1822.85,-0.5 1775.85,-0.5"/>
<text text-anchor="middle" x="1799.35" y="-7.5" font-family="Helvetica,sans-Serif" font-size="10.00">vector</text>
</a>
</g>
</g>
<!-- Node1&#45;&gt;Node5 -->
<g id="edge4" class="edge">
<title>Node1&#45;&gt;Node5</title>
<path fill="none" stroke="midnightblue" d="M971.14,-327.49C1211.43,-326.6 2048.35,-315.69 2048.35,-206.5 2048.35,-206.5 2048.35,-206.5 2048.35,-137.5 2048.35,-42.23 1901.67,-18.68 1833.47,-12.88"/>
<polygon fill="midnightblue" stroke="midnightblue" points="1833.47,-9.37 1823.23,-12.1 1832.93,-16.35 1833.47,-9.37"/>
</g>
<!-- Node6 -->
<g id="node6" class="node">
<title>Node6</title>
<g id="a_node6"><a xlink:href="visibility_8hpp.html" target="_top" xlink:title=" ">
<polygon fill="white" stroke="black" points="937.35,-0.5 937.35,-19.5 1077.35,-19.5 1077.35,-0.5 937.35,-0.5"/>
<text text-anchor="middle" x="1007.35" y="-7.5" font-family="Helvetica,sans-Serif" font-size="10.00">unilink/base/visibility.hpp</text>
</a>
</g>
</g>
<!-- Node1&#45;&gt;Node6 -->
<g id="edge5" class="edge">
<title>Node1&#45;&gt;Node6</title>
<path fill="none" stroke="midnightblue" d="M896.83,-313.45C881.64,-291.72 855.35,-248.11 855.35,-206.5 855.35,-206.5 855.35,-206.5 855.35,-137.5 855.35,-77.69 925.75,-40.7 970.73,-23.17"/>
<polygon fill="midnightblue" stroke="midnightblue" points="972.05,-26.41 980.18,-19.62 969.59,-19.86 972.05,-26.41"/>
</g>
<!-- Node7 -->
<g id="node7" class="node">
<title>Node7</title>
<g id="a_node7"><a xlink:href="tcp__server__config_8hpp.html" target="_top" xlink:title=" ">
<polygon fill="white" stroke="black" points="453.35,-190.5 453.35,-220.5 561.35,-220.5 561.35,-190.5 453.35,-190.5"/>
<text text-anchor="start" x="461.35" y="-208.5" font-family="Helvetica,sans-Serif" font-size="10.00">unilink/config/tcp</text>
<text text-anchor="middle" x="507.35" y="-197.5" font-family="Helvetica,sans-Serif" font-size="10.00">_server_config.hpp</text>
</a>
</g>
</g>
<!-- Node1&#45;&gt;Node7 -->
<g id="edge6" class="edge">
<title>Node1&#45;&gt;Node7</title>
<path fill="none" stroke="midnightblue" d="M860.69,-313.38C786.77,-291.02 643.03,-247.54 563.56,-223.5"/>
<polygon fill="midnightblue" stroke="midnightblue" points="564.31,-220.07 553.73,-220.53 562.28,-226.77 564.31,-220.07"/>
</g>
<!-- Node17 -->
<g id="node17" class="node">
<title>Node17</title>
<g id="a_node17"><a xlink:href="channel_8hpp.html" target="_top" xlink:title=" ">
<polygon fill="white" stroke="black" points="935.35,-257.5 935.35,-276.5 1093.35,-276.5 1093.35,-257.5 935.35,-257.5"/>
<text text-anchor="middle" x="1014.35" y="-264.5" font-family="Helvetica,sans-Serif" font-size="10.00">unilink/interface/channel.hpp</text>
</a>
</g>
</g>
<!-- Node1&#45;&gt;Node17 -->
<g id="edge26" class="edge">
<title>Node1&#45;&gt;Node17</title>
<path fill="none" stroke="midnightblue" d="M932.71,-313.4C950.02,-303.77 972.83,-291.09 989.94,-281.58"/>
<polygon fill="midnightblue" stroke="midnightblue" points="991.75,-284.58 998.79,-276.66 988.34,-278.46 991.75,-284.58"/>
</g>
<!-- Node7&#45;&gt;Node3 -->
<g id="edge8" class="edge">
<title>Node7&#45;&gt;Node3</title>
<path fill="none" stroke="midnightblue" d="M532.94,-190.41C572.94,-168.38 652.73,-124.41 720.35,-87 759.74,-65.21 805.46,-39.83 832.86,-24.61"/>
<polygon fill="midnightblue" stroke="midnightblue" points="834.7,-27.59 841.75,-19.67 831.31,-21.47 834.7,-27.59"/>
</g>
<!-- Node8 -->
<g id="node8" class="node">
<title>Node8</title>
<g id="a_node8"><a xlink:title=" ">
<polygon fill="white" stroke="#bfbfbf" points="166.35,-0.5 166.35,-19.5 216.35,-19.5 216.35,-0.5 166.35,-0.5"/>
<text text-anchor="middle" x="191.35" y="-7.5" font-family="Helvetica,sans-Serif" font-size="10.00">cstdint</text>
</a>
</g>
</g>
<!-- Node7&#45;&gt;Node8 -->
<g id="edge7" class="edge">
<title>Node7&#45;&gt;Node8</title>
<path fill="none" stroke="midnightblue" d="M453.29,-200.22C335.26,-189.63 60.71,-157.76 6.35,-87 -2.04,-76.07 -2.16,-66.83 6.35,-56 15.65,-44.18 105.2,-26.43 156.22,-17.15"/>
<polygon fill="midnightblue" stroke="midnightblue" points="156.95,-20.57 166.17,-15.36 155.71,-13.68 156.95,-20.57"/>
</g>
<!-- Node9 -->
<g id="node9" class="node">
<title>Node9</title>
<g id="a_node9"><a xlink:href="constants_8hpp.html" target="_top" xlink:title=" ">
<polygon fill="white" stroke="black" points="15.85,-62 15.85,-81 162.85,-81 162.85,-62 15.85,-62"/>
<text text-anchor="middle" x="89.35" y="-69" font-family="Helvetica,sans-Serif" font-size="10.00">unilink/base/constants.hpp</text>
</a>
</g>
</g>
<!-- Node7&#45;&gt;Node9 -->
<g id="edge9" class="edge">
<title>Node7&#45;&gt;Node9</title>
<path fill="none" stroke="midnightblue" d="M463.02,-190.5C380.07,-164.3 202.89,-108.35 126.1,-84.1"/>
<polygon fill="midnightblue" stroke="midnightblue" points="126.98,-80.71 116.39,-81.04 124.87,-87.39 126.98,-80.71"/>
</g>
<!-- Node11 -->
<g id="node11" class="node">
<title>Node11</title>
<g id="a_node11"><a xlink:href="input__validator_8hpp.html" target="_top" xlink:title=" ">
<polygon fill="white" stroke="black" points="459.35,-123.5 459.35,-153.5 555.35,-153.5 555.35,-123.5 459.35,-123.5"/>
<text text-anchor="start" x="467.35" y="-141.5" font-family="Helvetica,sans-Serif" font-size="10.00">unilink/util/input</text>
<text text-anchor="middle" x="507.35" y="-130.5" font-family="Helvetica,sans-Serif" font-size="10.00">_validator.hpp</text>
</a>
</g>
</g>
<!-- Node7&#45;&gt;Node11 -->
<g id="edge12" class="edge">
<title>Node7&#45;&gt;Node11</title>
<path fill="none" stroke="midnightblue" d="M507.35,-190.4C507.35,-182.64 507.35,-172.81 507.35,-163.86"/>
<polygon fill="midnightblue" stroke="midnightblue" points="510.86,-163.58 507.35,-153.58 503.86,-163.58 510.86,-163.58"/>
</g>
<!-- Node9&#45;&gt;Node8 -->
<g id="edge11" class="edge">
<title>Node9&#45;&gt;Node8</title>
<path fill="none" stroke="midnightblue" d="M103.97,-61.98C120.71,-52.21 148.36,-36.08 168.07,-24.58"/>
<polygon fill="midnightblue" stroke="midnightblue" points="169.89,-27.57 176.77,-19.51 166.37,-21.52 169.89,-27.57"/>
</g>
<!-- Node10 -->
<g id="node10" class="node">
<title>Node10</title>
<g id="a_node10"><a xlink:title=" ">
<polygon fill="white" stroke="#bfbfbf" points="62.85,-0.5 62.85,-19.5 115.85,-19.5 115.85,-0.5 62.85,-0.5"/>
<text text-anchor="middle" x="89.35" y="-7.5" font-family="Helvetica,sans-Serif" font-size="10.00">cstddef</text>
</a>
</g>
</g>
<!-- Node9&#45;&gt;Node10 -->
<g id="edge10" class="edge">
<title>Node9&#45;&gt;Node10</title>
<path fill="none" stroke="midnightblue" d="M89.35,-61.98C89.35,-53.58 89.35,-40.48 89.35,-29.66"/>
<polygon fill="midnightblue" stroke="midnightblue" points="92.86,-29.51 89.35,-19.51 85.86,-29.51 92.86,-29.51"/>
</g>
<!-- Node11&#45;&gt;Node3 -->
<g id="edge17" class="edge">
<title>Node11&#45;&gt;Node3</title>
<path fill="none" stroke="midnightblue" d="M555.57,-128.48C592.12,-120.54 642.95,-107.07 684.35,-87 705.56,-76.73 706.45,-66.86 727.35,-56 759.12,-39.51 798.24,-26.9 825.22,-19.29"/>
<polygon fill="midnightblue" stroke="midnightblue" points="826.22,-22.64 834.93,-16.61 824.36,-15.89 826.22,-22.64"/>
</g>
<!-- Node11&#45;&gt;Node4 -->
<g id="edge18" class="edge">
<title>Node11&#45;&gt;Node4</title>
<path fill="none" stroke="midnightblue" d="M555.61,-133.5C642.41,-126.07 830.54,-108.88 988.35,-87 1000.49,-85.32 1013.57,-83.21 1025.71,-81.12"/>
<polygon fill="midnightblue" stroke="midnightblue" points="1026.39,-84.55 1035.64,-79.38 1025.18,-77.66 1026.39,-84.55"/>
</g>
<!-- Node11&#45;&gt;Node5 -->
<g id="edge19" class="edge">
<title>Node11&#45;&gt;Node5</title>
<path fill="none" stroke="midnightblue" d="M555.58,-130.26C612.8,-121.39 710.96,-105.26 794.35,-87 847.32,-75.4 858.74,-64.08 912.35,-56 1284.71,0.09 1389.14,-76.97 1765.62,-19.69"/>
<polygon fill="midnightblue" stroke="midnightblue" points="1766.35,-23.12 1775.7,-18.13 1765.28,-16.2 1766.35,-23.12"/>
</g>
<!-- Node11&#45;&gt;Node6 -->
<g id="edge21" class="edge">
<title>Node11&#45;&gt;Node6</title>
<path fill="none" stroke="midnightblue" d="M555.66,-126.43C598.89,-116.43 663.96,-101.15 720.35,-87 808.13,-64.98 910.5,-37.41 966.16,-22.27"/>
<polygon fill="midnightblue" stroke="midnightblue" points="967.27,-25.6 976,-19.59 965.43,-18.84 967.27,-25.6"/>
</g>
<!-- Node11&#45;&gt;Node8 -->
<g id="edge15" class="edge">
<title>Node11&#45;&gt;Node8</title>
<path fill="none" stroke="midnightblue" d="M459.08,-135.56C384.39,-131.54 245.75,-119.79 210.35,-87 194.64,-72.44 191.07,-47.03 190.65,-29.63"/>
<polygon fill="midnightblue" stroke="midnightblue" points="194.15,-29.58 190.73,-19.55 187.15,-29.52 194.15,-29.58"/>
</g>
<!-- Node11&#45;&gt;Node9 -->
<g id="edge20" class="edge">
<title>Node11&#45;&gt;Node9</title>
<path fill="none" stroke="midnightblue" d="M459.23,-130.31C394.95,-120.67 277.53,-102.92 177.35,-87 168.69,-85.62 159.55,-84.15 150.56,-82.68"/>
<polygon fill="midnightblue" stroke="midnightblue" points="150.96,-79.2 140.53,-81.03 149.83,-86.1 150.96,-79.2"/>
</g>
<!-- Node12 -->
<g id="node12" class="node">
<title>Node12</title>
<g id="a_node12"><a xlink:title=" ">
<polygon fill="white" stroke="#bfbfbf" points="219.35,-62 219.35,-81 283.35,-81 283.35,-62 219.35,-62"/>
<text text-anchor="middle" x="251.35" y="-69" font-family="Helvetica,sans-Serif" font-size="10.00">algorithm</text>
</a>
</g>
</g>
<!-- Node11&#45;&gt;Node12 -->
<g id="edge13" class="edge">
<title>Node11&#45;&gt;Node12</title>
<path fill="none" stroke="midnightblue" d="M459.14,-127.75C415.31,-118.52 349.01,-103.62 292.35,-87 289.57,-86.18 286.7,-85.28 283.83,-84.35"/>
<polygon fill="midnightblue" stroke="midnightblue" points="284.79,-80.98 274.2,-81.07 282.54,-87.61 284.79,-80.98"/>
</g>
<!-- Node13 -->
<g id="node13" class="node">
<title>Node13</title>
<g id="a_node13"><a xlink:title=" ">
<polygon fill="white" stroke="#bfbfbf" points="301.85,-62 301.85,-81 350.85,-81 350.85,-62 301.85,-62"/>
<text text-anchor="middle" x="326.35" y="-69" font-family="Helvetica,sans-Serif" font-size="10.00">cctype</text>
</a>
</g>
</g>
<!-- Node11&#45;&gt;Node13 -->
<g id="edge14" class="edge">
<title>Node11&#45;&gt;Node13</title>
<path fill="none" stroke="midnightblue" d="M463.64,-123.4C434.25,-113.7 394.74,-100.22 360.35,-87 358.71,-86.37 357.02,-85.7 355.33,-85.02"/>
<polygon fill="midnightblue" stroke="midnightblue" points="356.25,-81.62 345.67,-81.02 353.58,-88.08 356.25,-81.62"/>
</g>
<!-- Node14 -->
<g id="node14" class="node">
<title>Node14</title>
<g id="a_node14"><a xlink:title=" ">
<polygon fill="white" stroke="#bfbfbf" points="369.35,-62 369.35,-81 413.35,-81 413.35,-62 369.35,-62"/>
<text text-anchor="middle" x="391.35" y="-69" font-family="Helvetica,sans-Serif" font-size="10.00">regex</text>
</a>
</g>
</g>
<!-- Node11&#45;&gt;Node14 -->
<g id="edge16" class="edge">
<title>Node11&#45;&gt;Node14</title>
<path fill="none" stroke="midnightblue" d="M482.18,-123.4C462.37,-112.29 434.94,-96.92 415.42,-85.98"/>
<polygon fill="midnightblue" stroke="midnightblue" points="416.97,-82.84 406.54,-81.01 413.55,-88.95 416.97,-82.84"/>
</g>
<!-- Node15 -->
<g id="node15" class="node">
<title>Node15</title>
<g id="a_node15"><a xlink:href="exceptions_8hpp.html" target="_top" xlink:title=" ">
<polygon fill="white" stroke="black" points="567.35,-56.5 567.35,-86.5 675.35,-86.5 675.35,-56.5 567.35,-56.5"/>
<text text-anchor="start" x="575.35" y="-74.5" font-family="Helvetica,sans-Serif" font-size="10.00">unilink/diagnostics</text>
<text text-anchor="middle" x="621.35" y="-63.5" font-family="Helvetica,sans-Serif" font-size="10.00">/exceptions.hpp</text>
</a>
</g>
</g>
<!-- Node11&#45;&gt;Node15 -->
<g id="edge22" class="edge">
<title>Node11&#45;&gt;Node15</title>
<path fill="none" stroke="midnightblue" d="M532.09,-123.4C548.37,-114.11 569.9,-101.84 587.73,-91.67"/>
<polygon fill="midnightblue" stroke="midnightblue" points="589.71,-94.57 596.67,-86.58 586.25,-88.49 589.71,-94.57"/>
</g>
<!-- Node15&#45;&gt;Node3 -->
<g id="edge24" class="edge">
<title>Node15&#45;&gt;Node3</title>
<path fill="none" stroke="midnightblue" d="M675.5,-56.85C721.77,-45.18 786.79,-28.79 825.25,-19.09"/>
<polygon fill="midnightblue" stroke="midnightblue" points="826.51,-22.39 835.35,-16.55 824.8,-15.6 826.51,-22.39"/>
</g>
<!-- Node15&#45;&gt;Node6 -->
<g id="edge25" class="edge">
<title>Node15&#45;&gt;Node6</title>
<path fill="none" stroke="midnightblue" d="M675.43,-62.16C745.29,-51.4 866.79,-32.67 941.81,-21.1"/>
<polygon fill="midnightblue" stroke="midnightblue" points="942.73,-24.5 952.08,-19.52 941.67,-17.58 942.73,-24.5"/>
</g>
<!-- Node16 -->
<g id="node16" class="node">
<title>Node16</title>
<g id="a_node16"><a xlink:title=" ">
<polygon fill="white" stroke="#bfbfbf" points="588.85,-0.5 588.85,-19.5 653.85,-19.5 653.85,-0.5 588.85,-0.5"/>
<text text-anchor="middle" x="621.35" y="-7.5" font-family="Helvetica,sans-Serif" font-size="10.00">stdexcept</text>
</a>
</g>
</g>
<!-- Node15&#45;&gt;Node16 -->
<g id="edge23" class="edge">
<title>Node15&#45;&gt;Node16</title>
<path fill="none" stroke="midnightblue" d="M621.35,-56.4C621.35,-48.47 621.35,-38.46 621.35,-29.86"/>
<polygon fill="midnightblue" stroke="midnightblue" points="624.86,-29.66 621.35,-19.66 617.86,-29.66 624.86,-29.66"/>
</g>
<!-- Node17&#45;&gt;Node2 -->
<g id="edge28" class="edge">
<title>Node17&#45;&gt;Node2</title>
<path fill="none" stroke="midnightblue" d="M1009.76,-257.21C1005.2,-248.26 998.2,-233.91 993.35,-221 976.19,-175.29 961.7,-119.55 954.76,-91.12"/>
<polygon fill="midnightblue" stroke="midnightblue" points="958.07,-89.93 952.33,-81.02 951.27,-91.56 958.07,-89.93"/>
</g>
<!-- Node17&#45;&gt;Node5 -->
<g id="edge29" class="edge">
<title>Node17&#45;&gt;Node5</title>
<path fill="none" stroke="midnightblue" d="M1093.47,-262.78C1312.37,-253.06 1913.74,-220.47 1970.35,-154 2019.09,-96.79 1895.49,-44.09 1832.97,-21.98"/>
<polygon fill="midnightblue" stroke="midnightblue" points="1833.73,-18.54 1823.14,-18.57 1831.44,-25.15 1833.73,-18.54"/>
</g>
<!-- Node17&#45;&gt;Node6 -->
<g id="edge64" class="edge">
<title>Node17&#45;&gt;Node6</title>
<path fill="none" stroke="midnightblue" d="M1014.11,-257.22C1013.11,-220.82 1009.28,-81.27 1007.88,-30.02"/>
<polygon fill="midnightblue" stroke="midnightblue" points="1011.37,-29.64 1007.59,-19.74 1004.37,-29.83 1011.37,-29.64"/>
</g>
<!-- Node18 -->
<g id="node18" class="node">
<title>Node18</title>
<g id="a_node18"><a xlink:title=" ">
<polygon fill="white" stroke="#bfbfbf" points="1401.85,-62 1401.85,-81 1466.85,-81 1466.85,-62 1401.85,-62"/>
<text text-anchor="middle" x="1434.35" y="-69" font-family="Helvetica,sans-Serif" font-size="10.00">functional</text>
</a>
</g>
</g>
<!-- Node17&#45;&gt;Node18 -->
<g id="edge27" class="edge">
<title>Node17&#45;&gt;Node18</title>
<path fill="none" stroke="midnightblue" d="M1032.94,-257.44C1099.47,-226.78 1326.02,-122.41 1406.06,-85.53"/>
<polygon fill="midnightblue" stroke="midnightblue" points="1407.89,-88.55 1415.5,-81.18 1404.96,-82.19 1407.89,-88.55"/>
</g>
<!-- Node19 -->
<g id="node19" class="node">
<title>Node19</title>
<g id="a_node19"><a xlink:href="common_8hpp.html" target="_top" xlink:title=" ">
<polygon fill="white" stroke="black" points="1401.85,-196 1401.85,-215 1544.85,-215 1544.85,-196 1401.85,-196"/>
<text text-anchor="middle" x="1473.35" y="-203" font-family="Helvetica,sans-Serif" font-size="10.00">unilink/base/common.hpp</text>
</a>
</g>
</g>
<!-- Node17&#45;&gt;Node19 -->
<g id="edge30" class="edge">
<title>Node17&#45;&gt;Node19</title>
<path fill="none" stroke="midnightblue" d="M1080.12,-257.48C1164.14,-246.58 1309.24,-227.77 1397.74,-216.3"/>
<polygon fill="midnightblue" stroke="midnightblue" points="1398.25,-219.77 1407.71,-215.01 1397.35,-212.82 1398.25,-219.77"/>
</g>
<!-- Node33 -->
<g id="node33" class="node">
<title>Node33</title>
<g id="a_node33"><a xlink:href="safe__span_8hpp.html" target="_top" xlink:title=" ">
<polygon fill="white" stroke="black" points="431.35,-56.5 431.35,-86.5 549.35,-86.5 549.35,-56.5 431.35,-56.5"/>
<text text-anchor="start" x="439.35" y="-74.5" font-family="Helvetica,sans-Serif" font-size="10.00">unilink/memory/safe</text>
<text text-anchor="middle" x="490.35" y="-63.5" font-family="Helvetica,sans-Serif" font-size="10.00">_span.hpp</text>
</a>
</g>
</g>
<!-- Node17&#45;&gt;Node33 -->
<g id="edge65" class="edge">
<title>Node17&#45;&gt;Node33</title>
<path fill="none" stroke="midnightblue" d="M991.16,-257.44C911.37,-227.97 647.11,-130.39 538.06,-90.12"/>
<polygon fill="midnightblue" stroke="midnightblue" points="539.21,-86.81 528.62,-86.63 536.79,-93.38 539.21,-86.81"/>
</g>
<!-- Node19&#45;&gt;Node3 -->
<g id="edge40" class="edge">
<title>Node19&#45;&gt;Node3</title>
<path fill="none" stroke="midnightblue" d="M1442.76,-195.93C1413.58,-187.21 1368.8,-172.38 1332.35,-154 1284.59,-129.91 1276.28,-117.54 1232.35,-87 1213.01,-73.55 1211.24,-64.73 1189.35,-56 1182.39,-53.22 971.23,-25.72 889.35,-15.13"/>
<polygon fill="midnightblue" stroke="midnightblue" points="889.73,-11.65 879.36,-13.84 888.83,-18.59 889.73,-11.65"/>
</g>
<!-- Node19&#45;&gt;Node4 -->
<g id="edge41" class="edge">
<title>Node19&#45;&gt;Node4</title>
<path fill="none" stroke="midnightblue" d="M1401.75,-199.13C1318.93,-191.94 1188.41,-177.33 1145.35,-154 1117.49,-138.9 1094.95,-108.88 1082.62,-89.79"/>
<polygon fill="midnightblue" stroke="midnightblue" points="1085.52,-87.82 1077.27,-81.17 1079.57,-91.51 1085.52,-87.82"/>
</g>
<!-- Node19&#45;&gt;Node5 -->
<g id="edge43" class="edge">
<title>Node19&#45;&gt;Node5</title>
<path fill="none" stroke="midnightblue" d="M1476.98,-195.88C1484.63,-178.84 1504.17,-140.95 1533.35,-123 1615.51,-72.47 1666.09,-138.94 1747.35,-87 1768.98,-73.18 1783.93,-46.82 1792.07,-29.07"/>
<polygon fill="midnightblue" stroke="midnightblue" points="1795.33,-30.34 1796.08,-19.78 1788.91,-27.57 1795.33,-30.34"/>
</g>
<!-- Node19&#45;&gt;Node8 -->
<g id="edge32" class="edge">
<title>Node19&#45;&gt;Node8</title>
<path fill="none" stroke="midnightblue" d="M1401.79,-199.63C1350.92,-193.87 1282.18,-181.33 1227.35,-154 1187.06,-133.91 1184.88,-117.06 1151.35,-87 1136.13,-73.35 1136.24,-63.85 1117.35,-56 1096.4,-47.29 393.57,-19 226.66,-12.39"/>
<polygon fill="midnightblue" stroke="midnightblue" points="226.58,-8.88 216.45,-11.99 226.3,-15.88 226.58,-8.88"/>
</g>
<!-- Node19&#45;&gt;Node16 -->
<g id="edge39" class="edge">
<title>Node19&#45;&gt;Node16</title>
<path fill="none" stroke="midnightblue" d="M1417.12,-195.97C1377.03,-188.47 1322.61,-175.34 1278.35,-154 1233.76,-132.49 1228.32,-117.54 1189.35,-87 1172.2,-73.55 1171.56,-64.18 1151.35,-56 1106.64,-37.91 781.85,-19.37 663.96,-13.17"/>
<polygon fill="midnightblue" stroke="midnightblue" points="664.03,-9.67 653.87,-12.64 663.67,-16.66 664.03,-9.67"/>
</g>
<!-- Node19&#45;&gt;Node18 -->
<g id="edge35" class="edge">
<title>Node19&#45;&gt;Node18</title>
<path fill="none" stroke="midnightblue" d="M1432.9,-196C1410.01,-188.89 1383.25,-176.2 1369.35,-154 1362.04,-142.32 1363.3,-135.38 1369.35,-123 1377.19,-107 1392.81,-94.6 1406.78,-86.1"/>
<polygon fill="midnightblue" stroke="midnightblue" points="1408.65,-89.06 1415.62,-81.07 1405.19,-82.97 1408.65,-89.06"/>
</g>
<!-- Node20 -->
<g id="node20" class="node">
<title>Node20</title>
<g id="a_node20"><a xlink:title=" ">
<polygon fill="white" stroke="#bfbfbf" points="1707.35,-0.5 1707.35,-19.5 1757.35,-19.5 1757.35,-0.5 1707.35,-0.5"/>
<text text-anchor="middle" x="1732.35" y="-7.5" font-family="Helvetica,sans-Serif" font-size="10.00">chrono</text>
</a>
</g>
</g>
<!-- Node19&#45;&gt;Node20 -->
<g id="edge31" class="edge">
<title>Node19&#45;&gt;Node20</title>
<path fill="none" stroke="midnightblue" d="M1545.3,-202.14C1672.57,-197.21 1926.58,-183.74 1953.35,-154 1962.57,-143.76 1960.57,-134.74 1953.35,-123 1932.17,-88.51 1822.69,-44.2 1766.19,-23.15"/>
<polygon fill="midnightblue" stroke="midnightblue" points="1767.21,-19.79 1756.62,-19.62 1764.79,-26.36 1767.21,-19.79"/>
</g>
<!-- Node21 -->
<g id="node21" class="node">
<title>Node21</title>
<g id="a_node21"><a xlink:title=" ">
<polygon fill="white" stroke="#bfbfbf" points="1542.35,-129 1542.35,-148 1592.35,-148 1592.35,-129 1542.35,-129"/>
<text text-anchor="middle" x="1567.35" y="-136" font-family="Helvetica,sans-Serif" font-size="10.00">cstring</text>
</a>
</g>
</g>
<!-- Node19&#45;&gt;Node21 -->
<g id="edge33" class="edge">
<title>Node19&#45;&gt;Node21</title>
<path fill="none" stroke="midnightblue" d="M1486.03,-195.73C1501.54,-185.01 1528,-166.72 1546.51,-153.91"/>
<polygon fill="midnightblue" stroke="midnightblue" points="1548.64,-156.69 1554.88,-148.13 1544.66,-150.94 1548.64,-156.69"/>
</g>
<!-- Node22 -->
<g id="node22" class="node">
<title>Node22</title>
<g id="a_node22"><a xlink:title=" ">
<polygon fill="white" stroke="#bfbfbf" points="1610.35,-129 1610.35,-148 1654.35,-148 1654.35,-129 1610.35,-129"/>
<text text-anchor="middle" x="1632.35" y="-136" font-family="Helvetica,sans-Serif" font-size="10.00">ctime</text>
</a>
</g>
</g>
<!-- Node19&#45;&gt;Node22 -->
<g id="edge34" class="edge">
<title>Node19&#45;&gt;Node22</title>
<path fill="none" stroke="midnightblue" d="M1496.19,-195.98C1521.93,-186.26 1564.93,-169.69 1601.35,-154 1602.55,-153.48 1603.77,-152.95 1605,-152.41"/>
<polygon fill="midnightblue" stroke="midnightblue" points="1606.76,-155.45 1614.41,-148.12 1603.86,-149.08 1606.76,-155.45"/>
</g>
<!-- Node23 -->
<g id="node23" class="node">
<title>Node23</title>
<g id="a_node23"><a xlink:title=" ">
<polygon fill="white" stroke="#bfbfbf" points="1672.35,-129 1672.35,-148 1728.35,-148 1728.35,-129 1672.35,-129"/>
<text text-anchor="middle" x="1700.35" y="-136" font-family="Helvetica,sans-Serif" font-size="10.00">iomanip</text>
</a>
</g>
</g>
<!-- Node19&#45;&gt;Node23 -->
<g id="edge36" class="edge">
<title>Node19&#45;&gt;Node23</title>
<path fill="none" stroke="midnightblue" d="M1510.5,-195.95C1549.07,-186.77 1610.97,-171.16 1663.35,-154 1665.62,-153.26 1667.95,-152.45 1670.29,-151.61"/>
<polygon fill="midnightblue" stroke="midnightblue" points="1671.63,-154.84 1679.76,-148.05 1669.17,-148.29 1671.63,-154.84"/>
</g>
<!-- Node24 -->
<g id="node24" class="node">
<title>Node24</title>
<g id="a_node24"><a xlink:title=" ">
<polygon fill="white" stroke="#bfbfbf" points="1746.35,-129 1746.35,-148 1806.35,-148 1806.35,-129 1746.35,-129"/>
<text text-anchor="middle" x="1776.35" y="-136" font-family="Helvetica,sans-Serif" font-size="10.00">iostream</text>
</a>
</g>
</g>
<!-- Node19&#45;&gt;Node24 -->
<g id="edge37" class="edge">
<title>Node19&#45;&gt;Node24</title>
<path fill="none" stroke="midnightblue" d="M1533.25,-195.97C1587.2,-187.59 1668.37,-173.28 1737.35,-154 1740,-153.26 1742.73,-152.42 1745.44,-151.52"/>
<polygon fill="midnightblue" stroke="midnightblue" points="1746.84,-154.75 1755.11,-148.13 1744.52,-148.14 1746.84,-154.75"/>
</g>
<!-- Node25 -->
<g id="node25" class="node">
<title>Node25</title>
<g id="a_node25"><a xlink:title=" ">
<polygon fill="white" stroke="#bfbfbf" points="1824.35,-129 1824.35,-148 1880.35,-148 1880.35,-129 1824.35,-129"/>
<text text-anchor="middle" x="1852.35" y="-136" font-family="Helvetica,sans-Serif" font-size="10.00">sstream</text>
</a>
</g>
</g>
<!-- Node19&#45;&gt;Node25 -->
<g id="edge38" class="edge">
<title>Node19&#45;&gt;Node25</title>
<path fill="none" stroke="midnightblue" d="M1545.05,-198.68C1614.92,-191.91 1723.71,-178.38 1815.35,-154 1818.01,-153.29 1820.74,-152.45 1823.45,-151.54"/>
<polygon fill="midnightblue" stroke="midnightblue" points="1824.86,-154.75 1833.05,-148.02 1822.45,-148.18 1824.86,-154.75"/>
</g>
<!-- Node26 -->
<g id="node26" class="node">
<title>Node26</title>
<g id="a_node26"><a xlink:title=" ">
<polygon fill="white" stroke="#bfbfbf" points="1898.85,-129 1898.85,-148 1943.85,-148 1943.85,-129 1898.85,-129"/>
<text text-anchor="middle" x="1921.35" y="-136" font-family="Helvetica,sans-Serif" font-size="10.00">utility</text>
</a>
</g>
</g>
<!-- Node19&#45;&gt;Node26 -->
<g id="edge42" class="edge">
<title>Node19&#45;&gt;Node26</title>
<path fill="none" stroke="midnightblue" d="M1544.93,-202.41C1628.86,-198.45 1771.49,-187.02 1889.35,-154 1891.5,-153.4 1893.69,-152.67 1895.86,-151.87"/>
<polygon fill="midnightblue" stroke="midnightblue" points="1897.22,-155.09 1905.11,-148.02 1894.53,-148.63 1897.22,-155.09"/>
</g>
<!-- Node27 -->
<g id="node27" class="node">
<title>Node27</title>
<g id="a_node27"><a xlink:href="platform_8hpp.html" target="_top" xlink:title=" ">
<polygon fill="white" stroke="black" points="1241.35,-62 1241.35,-81 1383.35,-81 1383.35,-62 1241.35,-62"/>
<text text-anchor="middle" x="1312.35" y="-69" font-family="Helvetica,sans-Serif" font-size="10.00">unilink/base/platform.hpp</text>
</a>
</g>
</g>
<!-- Node19&#45;&gt;Node27 -->
<g id="edge44" class="edge">
<title>Node19&#45;&gt;Node27</title>
<path fill="none" stroke="midnightblue" d="M1440.3,-195.93C1415.71,-188.21 1382.53,-174.84 1359.35,-154 1339.86,-136.47 1326.34,-108.89 1318.96,-90.75"/>
<polygon fill="midnightblue" stroke="midnightblue" points="1322.18,-89.38 1315.33,-81.3 1315.65,-91.89 1322.18,-89.38"/>
</g>
<!-- Node28 -->
<g id="node28" class="node">
<title>Node28</title>
<g id="a_node28"><a xlink:href="logger_8hpp.html" target="_top" xlink:title=" ">
<polygon fill="white" stroke="black" points="1378.35,-123.5 1378.35,-153.5 1486.35,-153.5 1486.35,-123.5 1378.35,-123.5"/>
<text text-anchor="start" x="1386.35" y="-141.5" font-family="Helvetica,sans-Serif" font-size="10.00">unilink/diagnostics</text>
<text text-anchor="middle" x="1432.35" y="-130.5" font-family="Helvetica,sans-Serif" font-size="10.00">/logger.hpp</text>
</a>
</g>
</g>
<!-- Node19&#45;&gt;Node28 -->
<g id="edge47" class="edge">
<title>Node19&#45;&gt;Node28</title>
<path fill="none" stroke="midnightblue" d="M1467.83,-195.73C1462.44,-187.2 1454.04,-173.87 1446.76,-162.33"/>
<polygon fill="midnightblue" stroke="midnightblue" points="1449.54,-160.18 1441.24,-153.59 1443.62,-163.91 1449.54,-160.18"/>
</g>
<!-- Node27&#45;&gt;Node3 -->
<g id="edge45" class="edge">
<title>Node27&#45;&gt;Node3</title>
<path fill="none" stroke="midnightblue" d="M1264.77,-61.96C1252.59,-59.89 1239.5,-57.77 1227.35,-56 1094.9,-36.74 1061.19,-36.42 928.35,-20 915.67,-18.43 901.72,-16.67 889.56,-15.13"/>
<polygon fill="midnightblue" stroke="midnightblue" points="889.78,-11.63 879.42,-13.83 888.89,-18.57 889.78,-11.63"/>
</g>
<!-- Node27&#45;&gt;Node6 -->
<g id="edge46" class="edge">
<title>Node27&#45;&gt;Node6</title>
<path fill="none" stroke="midnightblue" d="M1268.66,-61.98C1213.85,-51.28 1119.91,-32.96 1060.86,-21.44"/>
<polygon fill="midnightblue" stroke="midnightblue" points="1061.46,-17.99 1050.97,-19.51 1060.12,-24.86 1061.46,-17.99"/>
</g>
<!-- Node28&#45;&gt;Node2 -->
<g id="edge51" class="edge">
<title>Node28&#45;&gt;Node2</title>
<path fill="none" stroke="midnightblue" d="M1378.35,-131.91C1300.4,-123.58 1151.95,-106.77 1026.35,-87 1014.35,-85.11 1001.33,-82.74 989.52,-80.48"/>
<polygon fill="midnightblue" stroke="midnightblue" points="990,-77 979.51,-78.52 988.65,-83.87 990,-77"/>
</g>
<!-- Node28&#45;&gt;Node3 -->
<g id="edge52" class="edge">
<title>Node28&#45;&gt;Node3</title>
<path fill="none" stroke="midnightblue" d="M1449.56,-123.45C1468.9,-106.04 1495.26,-76.19 1476.35,-56 1434.65,-11.46 989.1,-25.84 928.35,-20 915.63,-18.78 901.67,-17.08 889.52,-15.5"/>
<polygon fill="midnightblue" stroke="midnightblue" points="889.76,-12 879.38,-14.14 888.83,-18.93 889.76,-12"/>
</g>
<!-- Node28&#45;&gt;Node4 -->
<g id="edge53" class="edge">
<title>Node28&#45;&gt;Node4</title>
<path fill="none" stroke="midnightblue" d="M1378.07,-127.7C1307.59,-114.97 1185.76,-92.98 1119.16,-80.95"/>
<polygon fill="midnightblue" stroke="midnightblue" points="1119.42,-77.44 1108.96,-79.11 1118.18,-84.33 1119.42,-77.44"/>
</g>
<!-- Node28&#45;&gt;Node5 -->
<g id="edge54" class="edge">
<title>Node28&#45;&gt;Node5</title>
<path fill="none" stroke="midnightblue" d="M1486.5,-125.74C1491.18,-124.79 1495.85,-123.86 1500.35,-123 1593.78,-105.08 1625.31,-127.58 1711.35,-87 1741.48,-72.79 1769.33,-45.33 1785.32,-27.6"/>
<polygon fill="midnightblue" stroke="midnightblue" points="1788.22,-29.6 1792.18,-19.78 1782.95,-24.99 1788.22,-29.6"/>
</g>
<!-- Node28&#45;&gt;Node6 -->
<g id="edge63" class="edge">
<title>Node28&#45;&gt;Node6</title>
<path fill="none" stroke="midnightblue" d="M1461.76,-123.5C1491.84,-107.36 1531.29,-79.99 1509.35,-56 1481.52,-25.55 1222.27,-15.54 1087.66,-12.38"/>
<polygon fill="midnightblue" stroke="midnightblue" points="1087.48,-8.88 1077.4,-12.15 1087.32,-15.88 1087.48,-8.88"/>
</g>
<!-- Node28&#45;&gt;Node18 -->
<g id="edge50" class="edge">
<title>Node28&#45;&gt;Node18</title>
<path fill="none" stroke="midnightblue" d="M1432.79,-123.4C1433.08,-114.06 1433.46,-101.71 1433.77,-91.52"/>
<polygon fill="midnightblue" stroke="midnightblue" points="1437.28,-91.3 1434.09,-81.19 1430.28,-91.08 1437.28,-91.3"/>
</g>
<!-- Node28&#45;&gt;Node20 -->
<g id="edge49" class="edge">
<title>Node28&#45;&gt;Node20</title>
<path fill="none" stroke="midnightblue" d="M1486.53,-125.86C1491.2,-124.88 1495.86,-123.92 1500.35,-123 1581.99,-106.31 1615.6,-134.07 1684.35,-87 1704.83,-72.98 1718.39,-47.06 1725.72,-29.43"/>
<polygon fill="midnightblue" stroke="midnightblue" points="1729.14,-30.29 1729.49,-19.7 1722.61,-27.76 1729.14,-30.29"/>
</g>
<!-- Node29 -->
<g id="node29" class="node">
<title>Node29</title>
<g id="a_node29"><a xlink:title=" ">
<polygon fill="white" stroke="#bfbfbf" points="1639.35,-0.5 1639.35,-19.5 1689.35,-19.5 1689.35,-0.5 1639.35,-0.5"/>
<text text-anchor="middle" x="1664.35" y="-7.5" font-family="Helvetica,sans-Serif" font-size="10.00">atomic</text>
</a>
</g>
</g>
<!-- Node28&#45;&gt;Node29 -->
<g id="edge48" class="edge">
<title>Node28&#45;&gt;Node29</title>
<path fill="none" stroke="midnightblue" d="M1486.52,-125.92C1555.53,-111.15 1666,-87.44 1666.35,-87 1679.28,-70.99 1675.72,-46.31 1670.97,-29.44"/>
<polygon fill="midnightblue" stroke="midnightblue" points="1674.21,-28.11 1667.83,-19.66 1667.55,-30.25 1674.21,-28.11"/>
</g>
<!-- Node30 -->
<g id="node30" class="node">
<title>Node30</title>
<g id="a_node30"><a xlink:href="log__rotation_8hpp.html" target="_top" xlink:title=" ">
<polygon fill="white" stroke="black" points="1561.35,-62 1561.35,-81 1657.35,-81 1657.35,-62 1561.35,-62"/>
<text text-anchor="middle" x="1609.35" y="-69" font-family="Helvetica,sans-Serif" font-size="10.00">log_rotation.hpp</text>
</a>
</g>
</g>
<!-- Node28&#45;&gt;Node30 -->
<g id="edge55" class="edge">
<title>Node28&#45;&gt;Node30</title>
<path fill="none" stroke="midnightblue" d="M1470.76,-123.4C1502.37,-111.79 1546.68,-95.51 1576.63,-84.52"/>
<polygon fill="midnightblue" stroke="midnightblue" points="1578.01,-87.74 1586.19,-81.01 1575.6,-81.17 1578.01,-87.74"/>
</g>
<!-- Node30&#45;&gt;Node3 -->
<g id="edge60" class="edge">
<title>Node30&#45;&gt;Node3</title>
<path fill="none" stroke="midnightblue" d="M1561.13,-62.69C1544.74,-60.25 1526.28,-57.75 1509.35,-56 1252.01,-29.41 1185.93,-44.28 928.35,-20 915.63,-18.8 901.67,-17.11 889.52,-15.52"/>
<polygon fill="midnightblue" stroke="midnightblue" points="889.76,-12.02 879.38,-14.16 888.83,-18.96 889.76,-12.02"/>
</g>
<!-- Node30&#45;&gt;Node5 -->
<g id="edge61" class="edge">
<title>Node30&#45;&gt;Node5</title>
<path fill="none" stroke="midnightblue" d="M1636.58,-61.98C1670.72,-51.28 1729.23,-32.96 1766.02,-21.44"/>
<polygon fill="midnightblue" stroke="midnightblue" points="1767.28,-24.71 1775.78,-18.38 1765.19,-18.03 1767.28,-24.71"/>
</g>
<!-- Node30&#45;&gt;Node6 -->
<g id="edge62" class="edge">
<title>Node30&#45;&gt;Node6</title>
<path fill="none" stroke="midnightblue" d="M1577.03,-62C1567.53,-59.75 1557.07,-57.53 1547.35,-56 1385.48,-30.47 1193.87,-18.85 1087.94,-14.03"/>
<polygon fill="midnightblue" stroke="midnightblue" points="1087.79,-10.52 1077.65,-13.57 1087.48,-17.51 1087.79,-10.52"/>
</g>
<!-- Node30&#45;&gt;Node20 -->
<g id="edge57" class="edge">
<title>Node30&#45;&gt;Node20</title>
<path fill="none" stroke="midnightblue" d="M1626.98,-61.98C1647.53,-52.03 1681.72,-35.49 1705.56,-23.96"/>
<polygon fill="midnightblue" stroke="midnightblue" points="1707.29,-27.01 1714.76,-19.51 1704.24,-20.71 1707.29,-27.01"/>
</g>
<!-- Node30&#45;&gt;Node29 -->
<g id="edge56" class="edge">
<title>Node30&#45;&gt;Node29</title>
<path fill="none" stroke="midnightblue" d="M1617.24,-61.98C1625.65,-52.87 1639.17,-38.24 1649.58,-26.98"/>
<polygon fill="midnightblue" stroke="midnightblue" points="1652.27,-29.23 1656.49,-19.51 1647.13,-24.48 1652.27,-29.23"/>
</g>
<!-- Node31 -->
<g id="node31" class="node">
<title>Node31</title>
<g id="a_node31"><a xlink:title=" ">
<polygon fill="white" stroke="#bfbfbf" points="1553.35,-0.5 1553.35,-19.5 1621.35,-19.5 1621.35,-0.5 1553.35,-0.5"/>
<text text-anchor="middle" x="1587.35" y="-7.5" font-family="Helvetica,sans-Serif" font-size="10.00">filesystem</text>
</a>
</g>
</g>
<!-- Node30&#45;&gt;Node31 -->
<g id="edge58" class="edge">
<title>Node30&#45;&gt;Node31</title>
<path fill="none" stroke="midnightblue" d="M1606.2,-61.98C1603.03,-53.4 1598.05,-39.93 1594,-28.98"/>
<polygon fill="midnightblue" stroke="midnightblue" points="1597.25,-27.67 1590.5,-19.51 1590.69,-30.1 1597.25,-27.67"/>
</g>
<!-- Node32 -->
<g id="node32" class="node">
<title>Node32</title>
<g id="a_node32"><a xlink:title=" ">
<polygon fill="white" stroke="#bfbfbf" points="1487.35,-0.5 1487.35,-19.5 1535.35,-19.5 1535.35,-0.5 1487.35,-0.5"/>
<text text-anchor="middle" x="1511.35" y="-7.5" font-family="Helvetica,sans-Serif" font-size="10.00">mutex</text>
</a>
</g>
</g>
<!-- Node30&#45;&gt;Node32 -->
<g id="edge59" class="edge">
<title>Node30&#45;&gt;Node32</title>
<path fill="none" stroke="midnightblue" d="M1595.31,-61.98C1579.3,-52.25 1552.9,-36.23 1533.98,-24.74"/>
<polygon fill="midnightblue" stroke="midnightblue" points="1535.73,-21.71 1525.37,-19.51 1532.1,-27.69 1535.73,-21.71"/>
</g>
<!-- Node33&#45;&gt;Node8 -->
<g id="edge66" class="edge">
<title>Node33&#45;&gt;Node8</title>
<path fill="none" stroke="midnightblue" d="M431.03,-57.79C428.1,-57.18 425.19,-56.58 422.35,-56 353.09,-41.87 271.93,-26.28 226.6,-17.66"/>
<polygon fill="midnightblue" stroke="midnightblue" points="227.16,-14.21 216.68,-15.78 225.85,-21.09 227.16,-14.21"/>
</g>
<!-- Node33&#45;&gt;Node16 -->
<g id="edge67" class="edge">
<title>Node33&#45;&gt;Node16</title>
<path fill="none" stroke="midnightblue" d="M521.4,-56.4C543.09,-46.55 571.81,-33.5 592.91,-23.92"/>
<polygon fill="midnightblue" stroke="midnightblue" points="594.64,-26.98 602.29,-19.66 591.74,-20.61 594.64,-26.98"/>
</g>
<!-- Node34 -->
<g id="node34" class="node">
<title>Node34</title>
<g id="a_node34"><a xlink:title=" ">
<polygon fill="white" stroke="#bfbfbf" points="455.85,-0.5 455.85,-19.5 524.85,-19.5 524.85,-0.5 455.85,-0.5"/>
<text text-anchor="middle" x="490.35" y="-7.5" font-family="Helvetica,sans-Serif" font-size="10.00">type_traits</text>
</a>
</g>
</g>
<!-- Node33&#45;&gt;Node34 -->
<g id="edge68" class="edge">
<title>Node33&#45;&gt;Node34</title>
<path fill="none" stroke="midnightblue" d="M490.35,-56.4C490.35,-48.47 490.35,-38.46 490.35,-29.86"/>
<polygon fill="midnightblue" stroke="midnightblue" points="493.86,-29.66 490.35,-19.66 486.86,-29.66 493.86,-29.66"/>
</g>
</g>
</svg>
        <g id="navigator" transform="translate(0 0)" fill="#404254">
                <rect fill="#f2f5e9" fill-opacity="0.5" stroke="#606060" stroke-width=".5" x="0" y="0" width="60" height="60"/>
                <use id="zoomplus" xlink:href="#zoomPlus" x="17" y="9" onmousedown="handleZoom(evt,'in')"/>
                <use id="zoomminus" xlink:href="#zoomMin" x="42" y="9" onmousedown="handleZoom(evt,'out')"/>
                <use id="reset" xlink:href="#resetDef" x="30" y="36" onmousedown="handleReset()"/>
                <g id="arrowUp" xlink:href="#dirArrow" transform="translate(30 24)" onmousedown="handlePan(0,-1)">
                  <use xlink:href="#rim" fill="#404040">
                        <set attributeName="fill" to="#808080" begin="arrowUp.mouseover" end="arrowUp.mouseout"/>
                  </use>
                  <path fill="none" stroke="white" stroke-width="1.5" d="M0,-3.0v7 M-2.5,-0.5L0,-3.0L2.5,-0.5"/>
                </g>
                <g id="arrowRight" xlink:href="#dirArrow" transform="rotate(90) translate(36 -43)" onmousedown="handlePan(1,0)">
                  <use xlink:href="#rim" fill="#404040">
                        <set attributeName="fill" to="#808080" begin="arrowRight.mouseover" end="arrowRight.mouseout"/>
                  </use>
                  <path fill="none" stroke="white" stroke-width="1.5" d="M0,-3.0v7 M-2.5,-0.5L0,-3.0L2.5,-0.5"/>
                </g>
                <g id="arrowDown" xlink:href="#dirArrow" transform="rotate(180) translate(-30 -48)" onmousedown="handlePan(0,1)">
                  <use xlink:href="#rim" fill="#404040">
                        <set attributeName="fill" to="#808080" begin="arrowDown.mouseover" end="arrowDown.mouseout"/>
                  </use>
                  <path fill="none" stroke="white" stroke-width="1.5" d="M0,-3.0v7 M-2.5,-0.5L0,-3.0L2.5,-0.5"/>
                </g>
                <g id="arrowLeft" xlink:href="#dirArrow" transform="rotate(270) translate(-36 17)" onmousedown="handlePan(-1,0)">
                  <use xlink:href="#rim" fill="#404040">
                        <set attributeName="fill" to="#808080" begin="arrowLeft.mouseover" end="arrowLeft.mouseout"/>
                  </use>
                  <path fill="none" stroke="white" stroke-width="1.5" d="M0,-3.0v7 M-2.5,-0.5L0,-3.0L2.5,-0.5"/>
                </g>
        </g>
        <svg viewBox="0 0 15 15" width="100%" height="30px" preserveAspectRatio="xMaxYMin meet">
         <g id="arrow_out" transform="scale(0.3 0.3)">
          <a xlink:href="transport_2tcp__server_2tcp__server_8hpp__incl_org.svg" target="_base">
           <rect id="button" ry="5" rx="5" y="6" x="6" height="38" width="38"
                fill="#f2f5e9" fill-opacity="0.5" stroke="#606060" stroke-width="1.0"/>
           <path id="arrow"
             d="M 11.500037,31.436501 C 11.940474,20.09759 22.043105,11.32322 32.158766,21.979434 L 37.068811,17.246167 C 37.068811,17.246167 37.088388,32 37.088388,32 L 22.160133,31.978069 C 22.160133,31.978069 26.997745,27.140456 26.997745,27.140456 C 18.528582,18.264221 13.291696,25.230495 11.500037,31.436501 z"
             style="fill:#404040;"/>
          </a>
         </g>
        </svg>
</svg>
