<?xml version="1.0" encoding="UTF-8" standalone="no"?>
<!DOCTYPE svg PUBLIC "-//W3C//DTD SVG 1.1//EN"
 "http://www.w3.org/Graphics/SVG/1.1/DTD/svg11.dtd">
<!-- Generated by graphviz version 2.43.0 (0)
 -->
<!-- Title: unilink/transport/serial/serial.hpp Pages: 1 -->
<svg width="422pt" height="104pt"
 viewBox="0.00 0.00 422.00 104.00" xmlns="http://www.w3.org/2000/svg" xmlns:xlink="http://www.w3.org/1999/xlink">
<g id="graph0" class="graph" transform="scale(1 1) rotate(0) translate(4 100)">
<title>unilink/transport/serial/serial.hpp</title>
<!-- Node1 -->
<g id="Node000001" class="node">
<title>Node1</title>
<g id="a_Node000001"><a xlink:title=" ">
<polygon fill="#999999" stroke="#666666" points="273.5,-96 146.5,-96 146.5,-66 273.5,-66 273.5,-96"/>
<text text-anchor="start" x="154.5" y="-84" font-family="Helvetica,sans-Serif" font-size="10.00">unilink/transport/serial</text>
<text text-anchor="middle" x="210" y="-73" font-family="Helvetica,sans-Serif" font-size="10.00">/serial.hpp</text>
</a>
</g>
</g>
<!-- Node2 -->
<g id="Node000002" class="node">
<title>Node2</title>
<g id="a_Node000002"><a xlink:href="channel__factory_8cc.html" target="_top" xlink:title=" ">
<polygon fill="white" stroke="#666666" points="128,-30 0,-30 0,0 128,0 128,-30"/>
<text text-anchor="start" x="8" y="-18" font-family="Helvetica,sans-Serif" font-size="10.00">unilink/factory/channel</text>
<text text-anchor="middle" x="64" y="-7" font-family="Helvetica,sans-Serif" font-size="10.00">_factory.cc</text>
</a>
</g>
</g>
<!-- Node1&#45;&gt;Node2 -->
<g id="edge1_Node000001_Node000002" class="edge">
<title>Node1&#45;&gt;Node2</title>
<g id="a_edge1_Node000001_Node000002"><a xlink:title=" ">
<path fill="none" stroke="#63b8ff" d="M168.75,-61.92C145.68,-51.8 117.34,-39.38 95.97,-30.01"/>
<polygon fill="#63b8ff" stroke="#63b8ff" points="167.4,-65.15 177.96,-65.95 170.21,-58.73 167.4,-65.15"/>
</a>
</g>
</g>
<!-- Node3 -->
<g id="Node000003" class="node">
<title>Node3</title>
<g id="a_Node000003"><a xlink:href="transport_2serial_2serial_8cc.html" target="_top" xlink:title=" ">
<polygon fill="white" stroke="#666666" points="273.5,-30 146.5,-30 146.5,0 273.5,0 273.5,-30"/>
<text text-anchor="start" x="154.5" y="-18" font-family="Helvetica,sans-Serif" font-size="10.00">unilink/transport/serial</text>
<text text-anchor="middle" x="210" y="-7" font-family="Helvetica,sans-Serif" font-size="10.00">/serial.cc</text>
</a>
</g>
</g>
<!-- Node1&#45;&gt;Node3 -->
<g id="edge2_Node000001_Node000003" class="edge">
<title>Node1&#45;&gt;Node3</title>
<g id="a_edge2_Node000001_Node000003"><a xlink:title=" ">
<path fill="none" stroke="#63b8ff" d="M210,-55.54C210,-46.96 210,-37.61 210,-30.16"/>
<polygon fill="#63b8ff" stroke="#63b8ff" points="206.5,-55.8 210,-65.8 213.5,-55.8 206.5,-55.8"/>
</a>
</g>
</g>
<!-- Node4 -->
<g id="Node000004" class="node">
<title>Node4</title>
<g id="a_Node000004"><a xlink:href="wrapper_2serial_2serial_8cc.html" target="_top" xlink:title=" ">
<polygon fill="white" stroke="#666666" points="414,-30 292,-30 292,0 414,0 414,-30"/>
<text text-anchor="start" x="300" y="-18" font-family="Helvetica,sans-Serif" font-size="10.00">unilink/wrapper/serial</text>
<text text-anchor="middle" x="353" y="-7" font-family="Helvetica,sans-Serif" font-size="10.00">/serial.cc</text>
</a>
</g>
</g>
<!-- Node1&#45;&gt;Node4 -->
<g id="edge3_Node000001_Node000004" class="edge">
<title>Node1&#45;&gt;Node4</title>
<g id="a_edge3_Node000001_Node000004"><a xlink:title=" ">
<path fill="none" stroke="#63b8ff" d="M250.7,-61.78C273.25,-51.69 300.84,-39.34 321.69,-30.01"/>
<polygon fill="#63b8ff" stroke="#63b8ff" points="249.08,-58.68 241.38,-65.95 251.94,-65.06 249.08,-58.68"/>
</a>
</g>
</g>
</g>
</svg>
