<?xml version="1.0" encoding="UTF-8" standalone="no"?>
<!DOCTYPE svg PUBLIC "-//W3C//DTD SVG 1.1//EN"
 "http://www.w3.org/Graphics/SVG/1.1/DTD/svg11.dtd">
<!-- Generated by graphviz version 2.43.0 (0)
 -->
<!-- Title: unilink/wrapper/udp/udp_server.hpp Pages: 1 -->
<!--zoomable 285 -->
<svg id="main" version="1.1" xmlns="http://www.w3.org/2000/svg" xmlns:xlink="http://www.w3.org/1999/xlink" xml:space="preserve" onload="init(evt)">
<style type="text/css"><![CDATA[
.edge:hover path { stroke: red; }
.edge:hover polygon { stroke: red; fill: red; }
]]></style>
<script type="text/javascript"><![CDATA[
var edges = document.getElementsByTagName('g');
if (edges && edges.length) {
  for (var i=0;i<edges.length;i++) {
    if (edges[i].id.substr(0,4)=='edge') {
      edges[i].setAttribute('class','edge');
    }
  }
}
]]></script>
        <defs>
                <circle id="rim" cx="0" cy="0" r="7"/>
                <circle id="rim2" cx="0" cy="0" r="3.5"/>
                <g id="zoomPlus">
                        <use xlink:href="#rim" fill="#404040">
                                <set attributeName="fill" to="#808080" begin="zoomplus.mouseover" end="zoomplus.mouseout"/>
                        </use>
                        <path d="M-4,0h8M0,-4v8" fill="none" stroke="white" stroke-width="1.5" pointer-events="none"/>
                </g>
                <g id="zoomMin">
                        <use xlink:href="#rim" fill="#404040">
                                <set attributeName="fill" to="#808080" begin="zoomminus.mouseover" end="zoomminus.mouseout"/>
                        </use>
                        <path d="M-4,0h8" fill="none" stroke="white" stroke-width="1.5" pointer-events="none"/>
                </g>
                <g id="dirArrow">
                        <path fill="none" stroke="white" stroke-width="1.5" d="M0,-3.0v7 M-2.5,-0.5L0,-3.0L2.5,-0.5"/>
                </g>
               <g id="resetDef">
                       <use xlink:href="#rim2" fill="#404040">
                               <set attributeName="fill" to="#808080" begin="reset.mouseover" end="reset.mouseout"/>
                       </use>
               </g>
        </defs>

<script type="text/javascript">
var viewWidth = 1297;
var viewHeight = 285;
var sectionId = 'dynsection-0';
</script>
<script xlink:href="svgpan.js"/>
<svg id="graph" class="graph">
<g id="viewport">
<title>unilink/wrapper/udp/udp_server.hpp</title>
<polygon fill="white" stroke="transparent" points="-4,4 -4,-281 1292.5,-281 1292.5,4 -4,4"/>
<!-- Node1 -->
<g id="node1" class="node">
<title>Node1</title>
<g id="a_node1"><a xlink:title=" ">
<polygon fill="#bfbfbf" stroke="black" points="454.5,-246.5 454.5,-276.5 567.5,-276.5 567.5,-246.5 454.5,-246.5"/>
<text text-anchor="start" x="462.5" y="-264.5" font-family="Helvetica,sans-Serif" font-size="10.00">unilink/wrapper/udp</text>
<text text-anchor="middle" x="511" y="-253.5" font-family="Helvetica,sans-Serif" font-size="10.00">/udp_server.hpp</text>
</a>
</g>
</g>
<!-- Node2 -->
<g id="node2" class="node">
<title>Node2</title>
<g id="a_node2"><a xlink:title=" ">
<polygon fill="white" stroke="#bfbfbf" points="0,-190.5 0,-209.5 142,-209.5 142,-190.5 0,-190.5"/>
<text text-anchor="middle" x="71" y="-197.5" font-family="Helvetica,sans-Serif" font-size="10.00">boost/asio/io_context.hpp</text>
</a>
</g>
</g>
<!-- Node1&#45;&gt;Node2 -->
<g id="edge1" class="edge">
<title>Node1&#45;&gt;Node2</title>
<path fill="none" stroke="midnightblue" d="M454.38,-252.84C375.23,-242.14 231.45,-222.7 144.24,-210.9"/>
<polygon fill="midnightblue" stroke="midnightblue" points="144.54,-207.41 134.16,-209.54 143.6,-214.35 144.54,-207.41"/>
</g>
<!-- Node3 -->
<g id="node3" class="node">
<title>Node3</title>
<g id="a_node3"><a xlink:title=" ">
<polygon fill="white" stroke="#bfbfbf" points="184,-62 184,-81 242,-81 242,-62 184,-62"/>
<text text-anchor="middle" x="213" y="-69" font-family="Helvetica,sans-Serif" font-size="10.00">memory</text>
</a>
</g>
</g>
<!-- Node1&#45;&gt;Node3 -->
<g id="edge2" class="edge">
<title>Node1&#45;&gt;Node3</title>
<path fill="none" stroke="midnightblue" d="M454.16,-255.54C413.01,-249.74 357.56,-237.18 316,-210 269.33,-179.48 235.89,-120.2 221.25,-90.45"/>
<polygon fill="midnightblue" stroke="midnightblue" points="224.33,-88.77 216.86,-81.25 218.01,-91.79 224.33,-88.77"/>
</g>
<!-- Node4 -->
<g id="node4" class="node">
<title>Node4</title>
<g id="a_node4"><a xlink:title=" ">
<polygon fill="white" stroke="#bfbfbf" points="843,-0.5 843,-19.5 887,-19.5 887,-0.5 843,-0.5"/>
<text text-anchor="middle" x="865" y="-7.5" font-family="Helvetica,sans-Serif" font-size="10.00">string</text>
</a>
</g>
</g>
<!-- Node1&#45;&gt;Node4 -->
<g id="edge3" class="edge">
<title>Node1&#45;&gt;Node4</title>
<path fill="none" stroke="midnightblue" d="M567.54,-258.88C667.28,-252.47 870.84,-222.59 944,-87 950.54,-74.87 950.92,-67.91 944,-56 933.86,-38.55 914.13,-27.3 896.93,-20.42"/>
<polygon fill="midnightblue" stroke="midnightblue" points="897.78,-17 887.18,-16.85 895.37,-23.57 897.78,-17"/>
</g>
<!-- Node5 -->
<g id="node5" class="node">
<title>Node5</title>
<g id="a_node5"><a xlink:title=" ">
<polygon fill="white" stroke="#bfbfbf" points="260.5,-62 260.5,-81 307.5,-81 307.5,-62 260.5,-62"/>
<text text-anchor="middle" x="284" y="-69" font-family="Helvetica,sans-Serif" font-size="10.00">vector</text>
</a>
</g>
</g>
<!-- Node1&#45;&gt;Node5 -->
<g id="edge4" class="edge">
<title>Node1&#45;&gt;Node5</title>
<path fill="none" stroke="midnightblue" d="M454.43,-251.49C400.19,-239.52 321.24,-212.6 284,-154 272.05,-135.2 274.8,-108.7 278.69,-91.08"/>
<polygon fill="midnightblue" stroke="midnightblue" points="282.13,-91.74 281.2,-81.18 275.35,-90.02 282.13,-91.74"/>
</g>
<!-- Node6 -->
<g id="node6" class="node">
<title>Node6</title>
<g id="a_node6"><a xlink:href="visibility_8hpp.html" target="_top" xlink:title=" ">
<polygon fill="white" stroke="black" points="795,-62 795,-81 935,-81 935,-62 795,-62"/>
<text text-anchor="middle" x="865" y="-69" font-family="Helvetica,sans-Serif" font-size="10.00">unilink/base/visibility.hpp</text>
</a>
</g>
</g>
<!-- Node1&#45;&gt;Node6 -->
<g id="edge5" class="edge">
<title>Node1&#45;&gt;Node6</title>
<path fill="none" stroke="midnightblue" d="M567.58,-252.2C632.9,-240.18 740.75,-212.61 814,-154 835.12,-137.1 849.94,-108.93 857.97,-90.53"/>
<polygon fill="midnightblue" stroke="midnightblue" points="861.24,-91.8 861.82,-81.22 854.77,-89.13 861.24,-91.8"/>
</g>
<!-- Node7 -->
<g id="node7" class="node">
<title>Node7</title>
<g id="a_node7"><a xlink:href="udp__config_8hpp.html" target="_top" xlink:title=" ">
<polygon fill="white" stroke="black" points="1023.5,-123.5 1023.5,-153.5 1126.5,-153.5 1126.5,-123.5 1023.5,-123.5"/>
<text text-anchor="start" x="1031.5" y="-141.5" font-family="Helvetica,sans-Serif" font-size="10.00">unilink/config/udp</text>
<text text-anchor="middle" x="1075" y="-130.5" font-family="Helvetica,sans-Serif" font-size="10.00">_config.hpp</text>
</a>
</g>
</g>
<!-- Node1&#45;&gt;Node7 -->
<g id="edge6" class="edge">
<title>Node1&#45;&gt;Node7</title>
<path fill="none" stroke="midnightblue" d="M567.62,-257.98C674.86,-252.6 903.48,-238.16 977,-210 1005.98,-198.9 1034.23,-177.05 1052.89,-160.6"/>
<polygon fill="midnightblue" stroke="midnightblue" points="1055.45,-163.01 1060.52,-153.71 1050.75,-157.82 1055.45,-163.01"/>
</g>
<!-- Node12 -->
<g id="node12" class="node">
<title>Node12</title>
<g id="a_node12"><a xlink:href="iserver_8hpp.html" target="_top" xlink:title=" ">
<polygon fill="white" stroke="black" points="436.5,-190.5 436.5,-209.5 585.5,-209.5 585.5,-190.5 436.5,-190.5"/>
<text text-anchor="middle" x="511" y="-197.5" font-family="Helvetica,sans-Serif" font-size="10.00">unilink/wrapper/iserver.hpp</text>
</a>
</g>
</g>
<!-- Node1&#45;&gt;Node12 -->
<g id="edge13" class="edge">
<title>Node1&#45;&gt;Node12</title>
<path fill="none" stroke="midnightblue" d="M511,-246.4C511,-238.47 511,-228.46 511,-219.86"/>
<polygon fill="midnightblue" stroke="midnightblue" points="514.5,-219.66 511,-209.66 507.5,-219.66 514.5,-219.66"/>
</g>
<!-- Node7&#45;&gt;Node4 -->
<g id="edge9" class="edge">
<title>Node7&#45;&gt;Node4</title>
<path fill="none" stroke="midnightblue" d="M1075.9,-123.28C1076.22,-105.12 1073.85,-73.9 1056,-56 1033.98,-33.92 945.78,-20.41 897.31,-14.5"/>
<polygon fill="midnightblue" stroke="midnightblue" points="897.67,-11.02 887.33,-13.32 896.85,-17.97 897.67,-11.02"/>
</g>
<!-- Node8 -->
<g id="node8" class="node">
<title>Node8</title>
<g id="a_node8"><a xlink:title=" ">
<polygon fill="white" stroke="#bfbfbf" points="1088,-0.5 1088,-19.5 1138,-19.5 1138,-0.5 1088,-0.5"/>
<text text-anchor="middle" x="1113" y="-7.5" font-family="Helvetica,sans-Serif" font-size="10.00">cstdint</text>
</a>
</g>
</g>
<!-- Node7&#45;&gt;Node8 -->
<g id="edge7" class="edge">
<title>Node7&#45;&gt;Node8</title>
<path fill="none" stroke="midnightblue" d="M1079.21,-123.48C1086.11,-100.51 1099.82,-54.89 1107.48,-29.37"/>
<polygon fill="midnightblue" stroke="midnightblue" points="1110.83,-30.37 1110.36,-19.79 1104.13,-28.36 1110.83,-30.37"/>
</g>
<!-- Node9 -->
<g id="node9" class="node">
<title>Node9</title>
<g id="a_node9"><a xlink:title=" ">
<polygon fill="white" stroke="#bfbfbf" points="991,-62 991,-81 1047,-81 1047,-62 991,-62"/>
<text text-anchor="middle" x="1019" y="-69" font-family="Helvetica,sans-Serif" font-size="10.00">optional</text>
</a>
</g>
</g>
<!-- Node7&#45;&gt;Node9 -->
<g id="edge8" class="edge">
<title>Node7&#45;&gt;Node9</title>
<path fill="none" stroke="midnightblue" d="M1062.85,-123.4C1054.12,-113.26 1042.32,-99.57 1033.16,-88.94"/>
<polygon fill="midnightblue" stroke="midnightblue" points="1035.67,-86.49 1026.49,-81.19 1030.37,-91.06 1035.67,-86.49"/>
</g>
<!-- Node10 -->
<g id="node10" class="node">
<title>Node10</title>
<g id="a_node10"><a xlink:href="constants_8hpp.html" target="_top" xlink:title=" ">
<polygon fill="white" stroke="black" points="1141.5,-62 1141.5,-81 1288.5,-81 1288.5,-62 1141.5,-62"/>
<text text-anchor="middle" x="1215" y="-69" font-family="Helvetica,sans-Serif" font-size="10.00">unilink/base/constants.hpp</text>
</a>
</g>
</g>
<!-- Node7&#45;&gt;Node10 -->
<g id="edge10" class="edge">
<title>Node7&#45;&gt;Node10</title>
<path fill="none" stroke="midnightblue" d="M1105.38,-123.4C1129.83,-112.04 1163.91,-96.22 1187.55,-85.24"/>
<polygon fill="midnightblue" stroke="midnightblue" points="1189.08,-88.39 1196.68,-81.01 1186.13,-82.04 1189.08,-88.39"/>
</g>
<!-- Node10&#45;&gt;Node8 -->
<g id="edge12" class="edge">
<title>Node10&#45;&gt;Node8</title>
<path fill="none" stroke="midnightblue" d="M1200.39,-61.98C1183.65,-52.21 1156,-36.08 1136.28,-24.58"/>
<polygon fill="midnightblue" stroke="midnightblue" points="1137.99,-21.52 1127.59,-19.51 1134.46,-27.57 1137.99,-21.52"/>
</g>
<!-- Node11 -->
<g id="node11" class="node">
<title>Node11</title>
<g id="a_node11"><a xlink:title=" ">
<polygon fill="white" stroke="#bfbfbf" points="1188.5,-0.5 1188.5,-19.5 1241.5,-19.5 1241.5,-0.5 1188.5,-0.5"/>
<text text-anchor="middle" x="1215" y="-7.5" font-family="Helvetica,sans-Serif" font-size="10.00">cstddef</text>
</a>
</g>
</g>
<!-- Node10&#45;&gt;Node11 -->
<g id="edge11" class="edge">
<title>Node10&#45;&gt;Node11</title>
<path fill="none" stroke="midnightblue" d="M1215,-61.98C1215,-53.58 1215,-40.48 1215,-29.66"/>
<polygon fill="midnightblue" stroke="midnightblue" points="1218.5,-29.51 1215,-19.51 1211.5,-29.51 1218.5,-29.51"/>
</g>
<!-- Node12&#45;&gt;Node3 -->
<g id="edge16" class="edge">
<title>Node12&#45;&gt;Node3</title>
<path fill="none" stroke="midnightblue" d="M436.43,-196.39C389.93,-191.92 330.33,-180.83 284,-154 257.03,-138.38 235.18,-108.74 223.15,-89.83"/>
<polygon fill="midnightblue" stroke="midnightblue" points="225.98,-87.76 217.78,-81.05 220.01,-91.41 225.98,-87.76"/>
</g>
<!-- Node12&#45;&gt;Node5 -->
<g id="edge18" class="edge">
<title>Node12&#45;&gt;Node5</title>
<path fill="none" stroke="midnightblue" d="M436.47,-191.3C384.74,-184.44 321.86,-172.56 303,-154 286.36,-137.63 283.13,-109.71 283.02,-91.18"/>
<polygon fill="midnightblue" stroke="midnightblue" points="286.52,-91.13 283.27,-81.05 279.52,-90.96 286.52,-91.13"/>
</g>
<!-- Node12&#45;&gt;Node6 -->
<g id="edge19" class="edge">
<title>Node12&#45;&gt;Node6</title>
<path fill="none" stroke="midnightblue" d="M585.64,-197.89C641.24,-194.42 717.66,-183.89 778,-154 809.22,-138.54 837,-108.17 852.37,-89.18"/>
<polygon fill="midnightblue" stroke="midnightblue" points="855.27,-91.15 858.7,-81.13 849.77,-86.83 855.27,-91.15"/>
</g>
<!-- Node13 -->
<g id="node13" class="node">
<title>Node13</title>
<g id="a_node13"><a xlink:title=" ">
<polygon fill="white" stroke="#bfbfbf" points="325.5,-62 325.5,-81 390.5,-81 390.5,-62 325.5,-62"/>
<text text-anchor="middle" x="358" y="-69" font-family="Helvetica,sans-Serif" font-size="10.00">functional</text>
</a>
</g>
</g>
<!-- Node12&#45;&gt;Node13 -->
<g id="edge14" class="edge">
<title>Node12&#45;&gt;Node13</title>
<path fill="none" stroke="midnightblue" d="M507.87,-190.35C501.91,-174.96 487.58,-142.58 466,-123 454.12,-112.22 417.05,-95.99 389.64,-84.85"/>
<polygon fill="midnightblue" stroke="midnightblue" points="390.62,-81.48 380.04,-81 388.02,-87.97 390.62,-81.48"/>
</g>
<!-- Node14 -->
<g id="node14" class="node">
<title>Node14</title>
<g id="a_node14"><a xlink:title=" ">
<polygon fill="white" stroke="#bfbfbf" points="514,-129 514,-148 560,-148 560,-129 514,-129"/>
<text text-anchor="middle" x="537" y="-136" font-family="Helvetica,sans-Serif" font-size="10.00">future</text>
</a>
</g>
</g>
<!-- Node12&#45;&gt;Node14 -->
<g id="edge15" class="edge">
<title>Node12&#45;&gt;Node14</title>
<path fill="none" stroke="midnightblue" d="M514.73,-190.48C518.47,-181.9 524.36,-168.43 529.14,-157.48"/>
<polygon fill="midnightblue" stroke="midnightblue" points="532.48,-158.57 533.28,-148.01 526.07,-155.77 532.48,-158.57"/>
</g>
<!-- Node15 -->
<g id="node15" class="node">
<title>Node15</title>
<g id="a_node15"><a xlink:title=" ">
<polygon fill="white" stroke="#bfbfbf" points="545.5,-62 545.5,-81 618.5,-81 618.5,-62 545.5,-62"/>
<text text-anchor="middle" x="582" y="-69" font-family="Helvetica,sans-Serif" font-size="10.00">string_view</text>
</a>
</g>
</g>
<!-- Node12&#45;&gt;Node15 -->
<g id="edge17" class="edge">
<title>Node12&#45;&gt;Node15</title>
<path fill="none" stroke="midnightblue" d="M528.13,-190.4C541.51,-182.74 559.39,-170.23 569,-154 580.44,-134.68 582.74,-108.48 582.81,-91.06"/>
<polygon fill="midnightblue" stroke="midnightblue" points="586.31,-90.97 582.61,-81.04 579.31,-91.11 586.31,-90.97"/>
</g>
<!-- Node16 -->
<g id="node16" class="node">
<title>Node16</title>
<g id="a_node16"><a xlink:href="iframer_8hpp.html" target="_top" xlink:title=" ">
<polygon fill="white" stroke="black" points="312.5,-129 312.5,-148 457.5,-148 457.5,-129 312.5,-129"/>
<text text-anchor="middle" x="385" y="-136" font-family="Helvetica,sans-Serif" font-size="10.00">unilink/framer/iframer.hpp</text>
</a>
</g>
</g>
<!-- Node12&#45;&gt;Node16 -->
<g id="edge20" class="edge">
<title>Node12&#45;&gt;Node16</title>
<path fill="none" stroke="midnightblue" d="M492.95,-190.48C471.8,-180.49 436.56,-163.85 412.12,-152.31"/>
<polygon fill="midnightblue" stroke="midnightblue" points="413.56,-149.11 403.02,-148.01 410.57,-155.44 413.56,-149.11"/>
</g>
<!-- Node20 -->
<g id="node20" class="node">
<title>Node20</title>
<g id="a_node20"><a xlink:href="context_8hpp.html" target="_top" xlink:title=" ">
<polygon fill="white" stroke="black" points="616.5,-129 616.5,-148 769.5,-148 769.5,-129 616.5,-129"/>
<text text-anchor="middle" x="693" y="-136" font-family="Helvetica,sans-Serif" font-size="10.00">unilink/wrapper/context.hpp</text>
</a>
</g>
</g>
<!-- Node12&#45;&gt;Node20 -->
<g id="edge29" class="edge">
<title>Node12&#45;&gt;Node20</title>
<path fill="none" stroke="midnightblue" d="M537.08,-190.48C568.57,-180.18 621.7,-162.81 657.06,-151.25"/>
<polygon fill="midnightblue" stroke="midnightblue" points="658.55,-154.44 666.97,-148.01 656.38,-147.79 658.55,-154.44"/>
</g>
<!-- Node16&#45;&gt;Node3 -->
<g id="edge22" class="edge">
<title>Node16&#45;&gt;Node3</title>
<path fill="none" stroke="midnightblue" d="M362.23,-128.95C335.56,-118.93 290.05,-101.81 251,-87 249.12,-86.29 247.18,-85.55 245.23,-84.81"/>
<polygon fill="midnightblue" stroke="midnightblue" points="246.09,-81.39 235.5,-81.1 243.6,-87.93 246.09,-81.39"/>
</g>
<!-- Node16&#45;&gt;Node5 -->
<g id="edge23" class="edge">
<title>Node16&#45;&gt;Node5</title>
<path fill="none" stroke="midnightblue" d="M371.38,-128.73C354.57,-117.92 325.77,-99.38 305.86,-86.57"/>
<polygon fill="midnightblue" stroke="midnightblue" points="307.71,-83.6 297.41,-81.13 303.92,-89.48 307.71,-83.6"/>
</g>
<!-- Node16&#45;&gt;Node6 -->
<g id="edge24" class="edge">
<title>Node16&#45;&gt;Node6</title>
<path fill="none" stroke="midnightblue" d="M448.25,-128.94C537.04,-116.91 698.26,-95.08 792.02,-82.38"/>
<polygon fill="midnightblue" stroke="midnightblue" points="792.56,-85.84 802,-81.03 791.62,-78.91 792.56,-85.84"/>
</g>
<!-- Node16&#45;&gt;Node13 -->
<g id="edge21" class="edge">
<title>Node16&#45;&gt;Node13</title>
<path fill="none" stroke="midnightblue" d="M381.36,-128.73C377.31,-118.99 370.66,-102.98 365.49,-90.53"/>
<polygon fill="midnightblue" stroke="midnightblue" points="368.65,-89.02 361.58,-81.13 362.19,-91.7 368.65,-89.02"/>
</g>
<!-- Node17 -->
<g id="node17" class="node">
<title>Node17</title>
<g id="a_node17"><a xlink:href="safe__span_8hpp.html" target="_top" xlink:title=" ">
<polygon fill="white" stroke="black" points="409,-56.5 409,-86.5 527,-86.5 527,-56.5 409,-56.5"/>
<text text-anchor="start" x="417" y="-74.5" font-family="Helvetica,sans-Serif" font-size="10.00">unilink/memory/safe</text>
<text text-anchor="middle" x="468" y="-63.5" font-family="Helvetica,sans-Serif" font-size="10.00">_span.hpp</text>
</a>
</g>
</g>
<!-- Node16&#45;&gt;Node17 -->
<g id="edge25" class="edge">
<title>Node16&#45;&gt;Node17</title>
<path fill="none" stroke="midnightblue" d="M396.19,-128.73C407.84,-119.61 426.5,-105 441.87,-92.96"/>
<polygon fill="midnightblue" stroke="midnightblue" points="444.29,-95.51 450.01,-86.59 439.98,-90 444.29,-95.51"/>
</g>
<!-- Node17&#45;&gt;Node8 -->
<g id="edge26" class="edge">
<title>Node17&#45;&gt;Node8</title>
<path fill="none" stroke="midnightblue" d="M527.26,-57.38C530.21,-56.88 533.13,-56.42 536,-56 739.77,-26.46 987.03,-15.38 1077.59,-12.13"/>
<polygon fill="midnightblue" stroke="midnightblue" points="1077.97,-15.62 1087.84,-11.77 1077.73,-8.62 1077.97,-15.62"/>
</g>
<!-- Node18 -->
<g id="node18" class="node">
<title>Node18</title>
<g id="a_node18"><a xlink:title=" ">
<polygon fill="white" stroke="#bfbfbf" points="392.5,-0.5 392.5,-19.5 457.5,-19.5 457.5,-0.5 392.5,-0.5"/>
<text text-anchor="middle" x="425" y="-7.5" font-family="Helvetica,sans-Serif" font-size="10.00">stdexcept</text>
</a>
</g>
</g>
<!-- Node17&#45;&gt;Node18 -->
<g id="edge27" class="edge">
<title>Node17&#45;&gt;Node18</title>
<path fill="none" stroke="midnightblue" d="M457.81,-56.4C451.63,-47.84 443.7,-36.87 437.18,-27.86"/>
<polygon fill="midnightblue" stroke="midnightblue" points="439.95,-25.71 431.26,-19.66 434.28,-29.81 439.95,-25.71"/>
</g>
<!-- Node19 -->
<g id="node19" class="node">
<title>Node19</title>
<g id="a_node19"><a xlink:title=" ">
<polygon fill="white" stroke="#bfbfbf" points="475.5,-0.5 475.5,-19.5 544.5,-19.5 544.5,-0.5 475.5,-0.5"/>
<text text-anchor="middle" x="510" y="-7.5" font-family="Helvetica,sans-Serif" font-size="10.00">type_traits</text>
</a>
</g>
</g>
<!-- Node17&#45;&gt;Node19 -->
<g id="edge28" class="edge">
<title>Node17&#45;&gt;Node19</title>
<path fill="none" stroke="midnightblue" d="M477.95,-56.4C483.99,-47.84 491.74,-36.87 498.1,-27.86"/>
<polygon fill="midnightblue" stroke="midnightblue" points="500.98,-29.85 503.89,-19.66 495.26,-25.81 500.98,-29.85"/>
</g>
<!-- Node20&#45;&gt;Node4 -->
<g id="edge31" class="edge">
<title>Node20&#45;&gt;Node4</title>
<path fill="none" stroke="midnightblue" d="M702.49,-128.74C722.52,-110.34 768.69,-68.33 786,-56 802.72,-44.1 822.83,-32.68 838.58,-24.32"/>
<polygon fill="midnightblue" stroke="midnightblue" points="840.5,-27.26 847.75,-19.54 837.27,-21.06 840.5,-27.26"/>
</g>
<!-- Node20&#45;&gt;Node5 -->
<g id="edge33" class="edge">
<title>Node20&#45;&gt;Node5</title>
<path fill="none" stroke="midnightblue" d="M620.6,-128.96C519.34,-116.83 344.56,-95.19 316,-87 314.07,-86.45 312.1,-85.79 310.14,-85.08"/>
<polygon fill="midnightblue" stroke="midnightblue" points="311.17,-81.71 300.59,-81.13 308.49,-88.18 311.17,-81.71"/>
</g>
<!-- Node20&#45;&gt;Node9 -->
<g id="edge30" class="edge">
<title>Node20&#45;&gt;Node9</title>
<path fill="none" stroke="midnightblue" d="M735.95,-128.94C800.02,-116.16 919.62,-92.32 980.8,-80.12"/>
<polygon fill="midnightblue" stroke="midnightblue" points="981.69,-83.51 990.81,-78.12 980.32,-76.64 981.69,-83.51"/>
</g>
<!-- Node20&#45;&gt;Node15 -->
<g id="edge32" class="edge">
<title>Node20&#45;&gt;Node15</title>
<path fill="none" stroke="midnightblue" d="M678.03,-128.73C659.39,-117.82 627.34,-99.05 605.43,-86.22"/>
<polygon fill="midnightblue" stroke="midnightblue" points="607.13,-83.16 596.73,-81.13 603.59,-89.2 607.13,-83.16"/>
</g>
<!-- Node20&#45;&gt;Node17 -->
<g id="edge36" class="edge">
<title>Node20&#45;&gt;Node17</title>
<path fill="none" stroke="midnightblue" d="M663.12,-128.87C628.34,-118.82 570.06,-101.99 526.24,-89.32"/>
<polygon fill="midnightblue" stroke="midnightblue" points="527.14,-85.94 516.56,-86.53 525.19,-92.67 527.14,-85.94"/>
</g>
<!-- Node21 -->
<g id="node21" class="node">
<title>Node21</title>
<g id="a_node21"><a xlink:href="error__codes_8hpp.html" target="_top" xlink:title=" ">
<polygon fill="white" stroke="black" points="637,-56.5 637,-86.5 739,-86.5 739,-56.5 637,-56.5"/>
<text text-anchor="start" x="645" y="-74.5" font-family="Helvetica,sans-Serif" font-size="10.00">unilink/base/error</text>
<text text-anchor="middle" x="688" y="-63.5" font-family="Helvetica,sans-Serif" font-size="10.00">_codes.hpp</text>
</a>
</g>
</g>
<!-- Node20&#45;&gt;Node21 -->
<g id="edge34" class="edge">
<title>Node20&#45;&gt;Node21</title>
<path fill="none" stroke="midnightblue" d="M692.33,-128.73C691.7,-120.54 690.72,-107.92 689.86,-96.71"/>
<polygon fill="midnightblue" stroke="midnightblue" points="693.34,-96.29 689.08,-86.59 686.36,-96.83 693.34,-96.29"/>
</g>
<!-- Node21&#45;&gt;Node4 -->
<g id="edge35" class="edge">
<title>Node21&#45;&gt;Node4</title>
<path fill="none" stroke="midnightblue" d="M729.95,-56.4C761.59,-45.76 804.33,-31.4 833.18,-21.7"/>
<polygon fill="midnightblue" stroke="midnightblue" points="834.41,-24.98 842.77,-18.47 832.18,-18.34 834.41,-24.98"/>
</g>
</g>
</svg>
        <g id="navigator" transform="translate(0 0)" fill="#404254">
                <rect fill="#f2f5e9" fill-opacity="0.5" stroke="#606060" stroke-width=".5" x="0" y="0" width="60" height="60"/>
                <use id="zoomplus" xlink:href="#zoomPlus" x="17" y="9" onmousedown="handleZoom(evt,'in')"/>
                <use id="zoomminus" xlink:href="#zoomMin" x="42" y="9" onmousedown="handleZoom(evt,'out')"/>
                <use id="reset" xlink:href="#resetDef" x="30" y="36" onmousedown="handleReset()"/>
                <g id="arrowUp" xlink:href="#dirArrow" transform="translate(30 24)" onmousedown="handlePan(0,-1)">
                  <use xlink:href="#rim" fill="#404040">
                        <set attributeName="fill" to="#808080" begin="arrowUp.mouseover" end="arrowUp.mouseout"/>
                  </use>
                  <path fill="none" stroke="white" stroke-width="1.5" d="M0,-3.0v7 M-2.5,-0.5L0,-3.0L2.5,-0.5"/>
                </g>
                <g id="arrowRight" xlink:href="#dirArrow" transform="rotate(90) translate(36 -43)" onmousedown="handlePan(1,0)">
                  <use xlink:href="#rim" fill="#404040">
                        <set attributeName="fill" to="#808080" begin="arrowRight.mouseover" end="arrowRight.mouseout"/>
                  </use>
                  <path fill="none" stroke="white" stroke-width="1.5" d="M0,-3.0v7 M-2.5,-0.5L0,-3.0L2.5,-0.5"/>
                </g>
                <g id="arrowDown" xlink:href="#dirArrow" transform="rotate(180) translate(-30 -48)" onmousedown="handlePan(0,1)">
                  <use xlink:href="#rim" fill="#404040">
                        <set attributeName="fill" to="#808080" begin="arrowDown.mouseover" end="arrowDown.mouseout"/>
                  </use>
                  <path fill="none" stroke="white" stroke-width="1.5" d="M0,-3.0v7 M-2.5,-0.5L0,-3.0L2.5,-0.5"/>
                </g>
                <g id="arrowLeft" xlink:href="#dirArrow" transform="rotate(270) translate(-36 17)" onmousedown="handlePan(-1,0)">
                  <use xlink:href="#rim" fill="#404040">
                        <set attributeName="fill" to="#808080" begin="arrowLeft.mouseover" end="arrowLeft.mouseout"/>
                  </use>
                  <path fill="none" stroke="white" stroke-width="1.5" d="M0,-3.0v7 M-2.5,-0.5L0,-3.0L2.5,-0.5"/>
                </g>
        </g>
        <svg viewBox="0 0 15 15" width="100%" height="30px" preserveAspectRatio="xMaxYMin meet">
         <g id="arrow_out" transform="scale(0.3 0.3)">
          <a xlink:href="udp__server_8hpp__incl_org.svg" target="_base">
           <rect id="button" ry="5" rx="5" y="6" x="6" height="38" width="38"
                fill="#f2f5e9" fill-opacity="0.5" stroke="#606060" stroke-width="1.0"/>
           <path id="arrow"
             d="M 11.500037,31.436501 C 11.940474,20.09759 22.043105,11.32322 32.158766,21.979434 L 37.068811,17.246167 C 37.068811,17.246167 37.088388,32 37.088388,32 L 22.160133,31.978069 C 22.160133,31.978069 26.997745,27.140456 26.997745,27.140456 C 18.528582,18.264221 13.291696,25.230495 11.500037,31.436501 z"
             style="fill:#404040;"/>
          </a>
         </g>
        </svg>
</svg>
