<?xml version="1.0" encoding="UTF-8" standalone="no"?>
<!DOCTYPE svg PUBLIC "-//W3C//DTD SVG 1.1//EN"
 "http://www.w3.org/Graphics/SVG/1.1/DTD/svg11.dtd">
<!-- Generated by graphviz version 2.43.0 (0)
 -->
<!-- Title: unilink/config/udp_config.hpp Pages: 1 -->
<svg width="1562pt" height="302pt"
 viewBox="0.00 0.00 1561.50 302.00" xmlns="http://www.w3.org/2000/svg" xmlns:xlink="http://www.w3.org/1999/xlink">
<g id="graph0" class="graph" transform="scale(1 1) rotate(0) translate(4 298)">
<title>unilink/config/udp_config.hpp</title>
<!-- Node1 -->
<g id="Node000001" class="node">
<title>Node1</title>
<g id="a_Node000001"><a xlink:title=" ">
<polygon fill="#999999" stroke="#666666" points="507,-294 404,-294 404,-264 507,-264 507,-294"/>
<text text-anchor="start" x="412" y="-282" font-family="Helvetica,sans-Serif" font-size="10.00">unilink/config/udp</text>
<text text-anchor="middle" x="455.5" y="-271" font-family="Helvetica,sans-Serif" font-size="10.00">_config.hpp</text>
</a>
</g>
</g>
<!-- Node2 -->
<g id="Node000002" class="node">
<title>Node2</title>
<g id="a_Node000002"><a xlink:href="channel__factory_8hpp.html" target="_top" xlink:title=" ">
<polygon fill="white" stroke="#666666" points="1010.5,-228 882.5,-228 882.5,-198 1010.5,-198 1010.5,-228"/>
<text text-anchor="start" x="890.5" y="-216" font-family="Helvetica,sans-Serif" font-size="10.00">unilink/factory/channel</text>
<text text-anchor="middle" x="946.5" y="-205" font-family="Helvetica,sans-Serif" font-size="10.00">_factory.hpp</text>
</a>
</g>
</g>
<!-- Node1&#45;&gt;Node2 -->
<g id="edge1_Node000001_Node000002" class="edge">
<title>Node1&#45;&gt;Node2</title>
<g id="a_edge1_Node000001_Node000002"><a xlink:title=" ">
<path fill="none" stroke="#63b8ff" d="M517.28,-269.95C610.85,-257.75 787.61,-234.71 882.48,-222.34"/>
<polygon fill="#63b8ff" stroke="#63b8ff" points="516.58,-266.51 507.12,-271.27 517.49,-273.45 516.58,-266.51"/>
</a>
</g>
</g>
<!-- Node11 -->
<g id="Node000011" class="node">
<title>Node11</title>
<g id="a_Node000011"><a xlink:href="transport_2udp_2udp_8hpp.html" target="_top" xlink:title=" ">
<polygon fill="white" stroke="#666666" points="591.5,-228 473.5,-228 473.5,-198 591.5,-198 591.5,-228"/>
<text text-anchor="start" x="481.5" y="-216" font-family="Helvetica,sans-Serif" font-size="10.00">unilink/transport/udp</text>
<text text-anchor="middle" x="532.5" y="-205" font-family="Helvetica,sans-Serif" font-size="10.00">/udp.hpp</text>
</a>
</g>
</g>
<!-- Node1&#45;&gt;Node11 -->
<g id="edge10_Node000001_Node000011" class="edge">
<title>Node1&#45;&gt;Node11</title>
<g id="a_edge10_Node000001_Node000011"><a xlink:title=" ">
<path fill="none" stroke="#63b8ff" d="M480.52,-257.2C491.95,-247.7 505.2,-236.69 515.46,-228.16"/>
<polygon fill="#63b8ff" stroke="#63b8ff" points="478.04,-254.71 472.59,-263.8 482.52,-260.1 478.04,-254.71"/>
</a>
</g>
</g>
<!-- Node13 -->
<g id="Node000013" class="node">
<title>Node13</title>
<g id="a_Node000013"><a xlink:href="wrapper_2udp_2udp_8hpp.html" target="_top" xlink:title=" ">
<polygon fill="white" stroke="#666666" points="445,-228 332,-228 332,-198 445,-198 445,-228"/>
<text text-anchor="start" x="340" y="-216" font-family="Helvetica,sans-Serif" font-size="10.00">unilink/wrapper/udp</text>
<text text-anchor="middle" x="388.5" y="-205" font-family="Helvetica,sans-Serif" font-size="10.00">/udp.hpp</text>
</a>
</g>
</g>
<!-- Node1&#45;&gt;Node13 -->
<g id="edge15_Node000001_Node000013" class="edge">
<title>Node1&#45;&gt;Node13</title>
<g id="a_edge15_Node000001_Node000013"><a xlink:title=" ">
<path fill="none" stroke="#63b8ff" d="M433.15,-256.65C423.33,-247.27 412.08,-236.53 403.33,-228.16"/>
<polygon fill="#63b8ff" stroke="#63b8ff" points="430.98,-259.42 440.63,-263.8 435.82,-254.36 430.98,-259.42"/>
</a>
</g>
</g>
<!-- Node19 -->
<g id="Node000019" class="node">
<title>Node19</title>
<g id="a_Node000019"><a xlink:href="udp__server_8hpp.html" target="_top" xlink:title=" ">
<polygon fill="white" stroke="#666666" points="294,-228 181,-228 181,-198 294,-198 294,-228"/>
<text text-anchor="start" x="189" y="-216" font-family="Helvetica,sans-Serif" font-size="10.00">unilink/wrapper/udp</text>
<text text-anchor="middle" x="237.5" y="-205" font-family="Helvetica,sans-Serif" font-size="10.00">/udp_server.hpp</text>
</a>
</g>
</g>
<!-- Node1&#45;&gt;Node19 -->
<g id="edge24_Node000001_Node000019" class="edge">
<title>Node1&#45;&gt;Node19</title>
<g id="a_edge24_Node000001_Node000019"><a xlink:title=" ">
<path fill="none" stroke="#63b8ff" d="M398.01,-261.12C362.86,-250.8 318.43,-237.76 285.23,-228.01"/>
<polygon fill="#63b8ff" stroke="#63b8ff" points="397.08,-264.5 407.66,-263.95 399.05,-257.78 397.08,-264.5"/>
</a>
</g>
</g>
<!-- Node3 -->
<g id="Node000003" class="node">
<title>Node3</title>
<g id="a_Node000003"><a xlink:href="channel__factory_8cc.html" target="_top" xlink:title=" ">
<polygon fill="white" stroke="#666666" points="871.5,-162 743.5,-162 743.5,-132 871.5,-132 871.5,-162"/>
<text text-anchor="start" x="751.5" y="-150" font-family="Helvetica,sans-Serif" font-size="10.00">unilink/factory/channel</text>
<text text-anchor="middle" x="807.5" y="-139" font-family="Helvetica,sans-Serif" font-size="10.00">_factory.cc</text>
</a>
</g>
</g>
<!-- Node2&#45;&gt;Node3 -->
<g id="edge2_Node000002_Node000003" class="edge">
<title>Node2&#45;&gt;Node3</title>
<g id="a_edge2_Node000002_Node000003"><a xlink:title=" ">
<path fill="none" stroke="#63b8ff" d="M906.64,-193.65C884.78,-183.58 858.11,-171.3 837.93,-162.01"/>
<polygon fill="#63b8ff" stroke="#63b8ff" points="905.45,-196.95 916,-197.95 908.38,-190.59 905.45,-196.95"/>
</a>
</g>
</g>
<!-- Node4 -->
<g id="Node000004" class="node">
<title>Node4</title>
<g id="a_Node000004"><a xlink:href="wrapper_2serial_2serial_8cc.html" target="_top" xlink:title=" ">
<polygon fill="white" stroke="#666666" points="1553.5,-162 1431.5,-162 1431.5,-132 1553.5,-132 1553.5,-162"/>
<text text-anchor="start" x="1439.5" y="-150" font-family="Helvetica,sans-Serif" font-size="10.00">unilink/wrapper/serial</text>
<text text-anchor="middle" x="1492.5" y="-139" font-family="Helvetica,sans-Serif" font-size="10.00">/serial.cc</text>
</a>
</g>
</g>
<!-- Node2&#45;&gt;Node4 -->
<g id="edge3_Node000002_Node000004" class="edge">
<title>Node2&#45;&gt;Node4</title>
<g id="a_edge3_Node000002_Node000004"><a xlink:title=" ">
<path fill="none" stroke="#63b8ff" d="M1020.89,-206.34C1114.8,-198.69 1281.16,-183.51 1422.5,-162 1425.44,-161.55 1428.45,-161.07 1431.48,-160.55"/>
<polygon fill="#63b8ff" stroke="#63b8ff" points="1020.33,-202.87 1010.64,-207.16 1020.89,-209.85 1020.33,-202.87"/>
</a>
</g>
</g>
<!-- Node5 -->
<g id="Node000005" class="node">
<title>Node5</title>
<g id="a_Node000005"><a xlink:href="wrapper_2tcp__client_2tcp__client_8cc.html" target="_top" xlink:title=" ">
<polygon fill="white" stroke="#666666" points="1003,-162 890,-162 890,-132 1003,-132 1003,-162"/>
<text text-anchor="start" x="898" y="-150" font-family="Helvetica,sans-Serif" font-size="10.00">unilink/wrapper/tcp</text>
<text text-anchor="middle" x="946.5" y="-139" font-family="Helvetica,sans-Serif" font-size="10.00">_client/tcp_client.cc</text>
</a>
</g>
</g>
<!-- Node2&#45;&gt;Node5 -->
<g id="edge4_Node000002_Node000005" class="edge">
<title>Node2&#45;&gt;Node5</title>
<g id="a_edge4_Node000002_Node000005"><a xlink:title=" ">
<path fill="none" stroke="#63b8ff" d="M946.5,-187.54C946.5,-178.96 946.5,-169.61 946.5,-162.16"/>
<polygon fill="#63b8ff" stroke="#63b8ff" points="943,-187.8 946.5,-197.8 950,-187.8 943,-187.8"/>
</a>
</g>
</g>
<!-- Node6 -->
<g id="Node000006" class="node">
<title>Node6</title>
<g id="a_Node000006"><a xlink:href="wrapper_2tcp__server_2tcp__server_8cc.html" target="_top" xlink:title=" ">
<polygon fill="white" stroke="#666666" points="1140,-162 1021,-162 1021,-132 1140,-132 1140,-162"/>
<text text-anchor="start" x="1029" y="-150" font-family="Helvetica,sans-Serif" font-size="10.00">unilink/wrapper/tcp</text>
<text text-anchor="middle" x="1080.5" y="-139" font-family="Helvetica,sans-Serif" font-size="10.00">_server/tcp_server.cc</text>
</a>
</g>
</g>
<!-- Node2&#45;&gt;Node6 -->
<g id="edge5_Node000002_Node000006" class="edge">
<title>Node2&#45;&gt;Node6</title>
<g id="a_edge5_Node000002_Node000006"><a xlink:title=" ">
<path fill="none" stroke="#63b8ff" d="M985.21,-193.51C1006.23,-183.47 1031.8,-171.26 1051.16,-162.01"/>
<polygon fill="#63b8ff" stroke="#63b8ff" points="983.42,-190.49 975.91,-197.95 986.44,-196.8 983.42,-190.49"/>
</a>
</g>
</g>
<!-- Node7 -->
<g id="Node000007" class="node">
<title>Node7</title>
<g id="a_Node000007"><a xlink:href="wrapper_2udp_2udp_8cc.html" target="_top" xlink:title=" ">
<polygon fill="white" stroke="#666666" points="589,-162 476,-162 476,-132 589,-132 589,-162"/>
<text text-anchor="start" x="484" y="-150" font-family="Helvetica,sans-Serif" font-size="10.00">unilink/wrapper/udp</text>
<text text-anchor="middle" x="532.5" y="-139" font-family="Helvetica,sans-Serif" font-size="10.00">/udp.cc</text>
</a>
</g>
</g>
<!-- Node2&#45;&gt;Node7 -->
<g id="edge6_Node000002_Node000007" class="edge">
<title>Node2&#45;&gt;Node7</title>
<g id="a_edge6_Node000002_Node000007"><a xlink:title=" ">
<path fill="none" stroke="#63b8ff" d="M872.34,-202.79C801.74,-193.69 692.58,-178.72 598.5,-162 595.5,-161.47 592.43,-160.9 589.33,-160.31"/>
<polygon fill="#63b8ff" stroke="#63b8ff" points="872.11,-206.29 882.48,-204.1 873,-199.35 872.11,-206.29"/>
</a>
</g>
</g>
<!-- Node8 -->
<g id="Node000008" class="node">
<title>Node8</title>
<g id="a_Node000008"><a xlink:href="udp__server_8cc.html" target="_top" xlink:title=" ">
<polygon fill="white" stroke="#666666" points="458,-162 345,-162 345,-132 458,-132 458,-162"/>
<text text-anchor="start" x="353" y="-150" font-family="Helvetica,sans-Serif" font-size="10.00">unilink/wrapper/udp</text>
<text text-anchor="middle" x="401.5" y="-139" font-family="Helvetica,sans-Serif" font-size="10.00">/udp_server.cc</text>
</a>
</g>
</g>
<!-- Node2&#45;&gt;Node8 -->
<g id="edge7_Node000002_Node000008" class="edge">
<title>Node2&#45;&gt;Node8</title>
<g id="a_edge7_Node000002_Node000008"><a xlink:title=" ">
<path fill="none" stroke="#63b8ff" d="M872.28,-206.68C777.86,-199.36 609.94,-184.48 467.5,-162 464.49,-161.53 461.41,-161 458.31,-160.45"/>
<polygon fill="#63b8ff" stroke="#63b8ff" points="872.06,-210.18 882.3,-207.45 872.6,-203.2 872.06,-210.18"/>
</a>
</g>
</g>
<!-- Node9 -->
<g id="Node000009" class="node">
<title>Node9</title>
<g id="a_Node000009"><a xlink:href="wrapper_2uds__client_2uds__client_8cc.html" target="_top" xlink:title=" ">
<polygon fill="white" stroke="#666666" points="1273,-162 1158,-162 1158,-132 1273,-132 1273,-162"/>
<text text-anchor="start" x="1166" y="-150" font-family="Helvetica,sans-Serif" font-size="10.00">unilink/wrapper/uds</text>
<text text-anchor="middle" x="1215.5" y="-139" font-family="Helvetica,sans-Serif" font-size="10.00">_client/uds_client.cc</text>
</a>
</g>
</g>
<!-- Node2&#45;&gt;Node9 -->
<g id="edge8_Node000002_Node000009" class="edge">
<title>Node2&#45;&gt;Node9</title>
<g id="a_edge8_Node000002_Node000009"><a xlink:title=" ">
<path fill="none" stroke="#63b8ff" d="M1015.33,-195.62C1059.51,-185.11 1116.22,-171.62 1157.99,-161.68"/>
<polygon fill="#63b8ff" stroke="#63b8ff" points="1014.45,-192.24 1005.53,-197.95 1016.07,-199.05 1014.45,-192.24"/>
</a>
</g>
</g>
<!-- Node10 -->
<g id="Node000010" class="node">
<title>Node10</title>
<g id="a_Node000010"><a xlink:href="wrapper_2uds__server_2uds__server_8cc.html" target="_top" xlink:title=" ">
<polygon fill="white" stroke="#666666" points="1413.5,-162 1291.5,-162 1291.5,-132 1413.5,-132 1413.5,-162"/>
<text text-anchor="start" x="1299.5" y="-150" font-family="Helvetica,sans-Serif" font-size="10.00">unilink/wrapper/uds</text>
<text text-anchor="middle" x="1352.5" y="-139" font-family="Helvetica,sans-Serif" font-size="10.00">_server/uds_server.cc</text>
</a>
</g>
</g>
<!-- Node2&#45;&gt;Node10 -->
<g id="edge9_Node000002_Node000010" class="edge">
<title>Node2&#45;&gt;Node10</title>
<g id="a_edge9_Node000002_Node000010"><a xlink:title=" ">
<path fill="none" stroke="#63b8ff" d="M1020.97,-202C1089.17,-192.58 1192.84,-177.63 1282.5,-162 1285.43,-161.49 1288.43,-160.95 1291.45,-160.4"/>
<polygon fill="#63b8ff" stroke="#63b8ff" points="1020.18,-198.57 1010.75,-203.41 1021.14,-205.51 1020.18,-198.57"/>
</a>
</g>
</g>
<!-- Node11&#45;&gt;Node3 -->
<g id="edge11_Node000011_Node000003" class="edge">
<title>Node11&#45;&gt;Node3</title>
<g id="a_edge11_Node000011_Node000003"><a xlink:title=" ">
<path fill="none" stroke="#63b8ff" d="M601.77,-195.88C646.61,-185.44 704.41,-171.99 747.32,-162"/>
<polygon fill="#63b8ff" stroke="#63b8ff" points="600.78,-192.52 591.83,-198.19 602.37,-199.33 600.78,-192.52"/>
</a>
</g>
</g>
<!-- Node11&#45;&gt;Node7 -->
<g id="edge13_Node000011_Node000007" class="edge">
<title>Node11&#45;&gt;Node7</title>
<g id="a_edge13_Node000011_Node000007"><a xlink:title=" ">
<path fill="none" stroke="#63b8ff" d="M532.5,-187.54C532.5,-178.96 532.5,-169.61 532.5,-162.16"/>
<polygon fill="#63b8ff" stroke="#63b8ff" points="529,-187.8 532.5,-197.8 536,-187.8 529,-187.8"/>
</a>
</g>
</g>
<!-- Node11&#45;&gt;Node8 -->
<g id="edge14_Node000011_Node000008" class="edge">
<title>Node11&#45;&gt;Node8</title>
<g id="a_edge14_Node000011_Node000008"><a xlink:title=" ">
<path fill="none" stroke="#63b8ff" d="M494.66,-193.51C474.11,-183.47 449.11,-171.26 430.18,-162.01"/>
<polygon fill="#63b8ff" stroke="#63b8ff" points="493.23,-196.71 503.75,-197.95 496.3,-190.42 493.23,-196.71"/>
</a>
</g>
</g>
<!-- Node12 -->
<g id="Node000012" class="node">
<title>Node12</title>
<g id="a_Node000012"><a xlink:href="transport_2udp_2udp_8cc.html" target="_top" xlink:title=" ">
<polygon fill="white" stroke="#666666" points="725.5,-162 607.5,-162 607.5,-132 725.5,-132 725.5,-162"/>
<text text-anchor="start" x="615.5" y="-150" font-family="Helvetica,sans-Serif" font-size="10.00">unilink/transport/udp</text>
<text text-anchor="middle" x="666.5" y="-139" font-family="Helvetica,sans-Serif" font-size="10.00">/udp.cc</text>
</a>
</g>
</g>
<!-- Node11&#45;&gt;Node12 -->
<g id="edge12_Node000011_Node000012" class="edge">
<title>Node11&#45;&gt;Node12</title>
<g id="a_edge12_Node000011_Node000012"><a xlink:title=" ">
<path fill="none" stroke="#63b8ff" d="M571.21,-193.51C592.23,-183.47 617.8,-171.26 637.16,-162.01"/>
<polygon fill="#63b8ff" stroke="#63b8ff" points="569.42,-190.49 561.91,-197.95 572.44,-196.8 569.42,-190.49"/>
</a>
</g>
</g>
<!-- Node13&#45;&gt;Node7 -->
<g id="edge23_Node000013_Node000007" class="edge">
<title>Node13&#45;&gt;Node7</title>
<g id="a_edge23_Node000013_Node000007"><a xlink:title=" ">
<path fill="none" stroke="#63b8ff" d="M429.49,-193.78C452.19,-183.69 479.98,-171.34 500.97,-162.01"/>
<polygon fill="#63b8ff" stroke="#63b8ff" points="427.82,-190.7 420.1,-197.95 430.66,-197.09 427.82,-190.7"/>
</a>
</g>
</g>
<!-- Node14 -->
<g id="Node000014" class="node">
<title>Node14</title>
<g id="a_Node000014"><a xlink:href="udp__builder_8hpp.html" target="_top" xlink:title=" ">
<polygon fill="white" stroke="#666666" points="281,-162 174,-162 174,-132 281,-132 281,-162"/>
<text text-anchor="start" x="182" y="-150" font-family="Helvetica,sans-Serif" font-size="10.00">unilink/builder/udp</text>
<text text-anchor="middle" x="227.5" y="-139" font-family="Helvetica,sans-Serif" font-size="10.00">_builder.hpp</text>
</a>
</g>
</g>
<!-- Node13&#45;&gt;Node14 -->
<g id="edge16_Node000013_Node000014" class="edge">
<title>Node13&#45;&gt;Node14</title>
<g id="a_edge16_Node000013_Node000014"><a xlink:title=" ">
<path fill="none" stroke="#63b8ff" d="M343.69,-194.19C318.13,-184.02 286.53,-171.47 262.75,-162.01"/>
<polygon fill="#63b8ff" stroke="#63b8ff" points="342.58,-197.51 353.17,-197.95 345.17,-191.01 342.58,-197.51"/>
</a>
</g>
</g>
<!-- Node18 -->
<g id="Node000018" class="node">
<title>Node18</title>
<g id="a_Node000018"><a xlink:href="unilink_8hpp.html" target="_top" xlink:title=" ">
<polygon fill="white" stroke="#666666" points="107,-24.5 0,-24.5 0,-5.5 107,-5.5 107,-24.5"/>
<text text-anchor="middle" x="53.5" y="-12.5" font-family="Helvetica,sans-Serif" font-size="10.00">unilink/unilink.hpp</text>
</a>
</g>
</g>
<!-- Node13&#45;&gt;Node18 -->
<g id="edge22_Node000013_Node000018" class="edge">
<title>Node13&#45;&gt;Node18</title>
<g id="a_edge22_Node000013_Node000018"><a xlink:title=" ">
<path fill="none" stroke="#63b8ff" d="M362.49,-190.99C353.39,-182.68 343.67,-172.59 336.5,-162 310.67,-123.87 332.91,-95.44 297.5,-66 282.97,-53.92 174.58,-35.04 107.24,-24.26"/>
<polygon fill="#63b8ff" stroke="#63b8ff" points="360.42,-193.83 370.24,-197.8 365.04,-188.58 360.42,-193.83"/>
</a>
</g>
</g>
<!-- Node15 -->
<g id="Node000015" class="node">
<title>Node15</title>
<g id="a_Node000015"><a xlink:href="udp__builder_8cc.html" target="_top" xlink:title=" ">
<polygon fill="white" stroke="#666666" points="148,-96 41,-96 41,-66 148,-66 148,-96"/>
<text text-anchor="start" x="49" y="-84" font-family="Helvetica,sans-Serif" font-size="10.00">unilink/builder/udp</text>
<text text-anchor="middle" x="94.5" y="-73" font-family="Helvetica,sans-Serif" font-size="10.00">_builder.cc</text>
</a>
</g>
</g>
<!-- Node14&#45;&gt;Node15 -->
<g id="edge17_Node000014_Node000015" class="edge">
<title>Node14&#45;&gt;Node15</title>
<g id="a_edge17_Node000014_Node000015"><a xlink:title=" ">
<path fill="none" stroke="#63b8ff" d="M189.08,-127.51C168.22,-117.47 142.83,-105.26 123.62,-96.01"/>
<polygon fill="#63b8ff" stroke="#63b8ff" points="187.78,-130.77 198.31,-131.95 190.82,-124.46 187.78,-130.77"/>
</a>
</g>
</g>
<!-- Node16 -->
<g id="Node000016" class="node">
<title>Node16</title>
<g id="a_Node000016"><a xlink:href="unified__builder_8hpp.html" target="_top" xlink:title=" ">
<polygon fill="white" stroke="#666666" points="288.5,-96 166.5,-96 166.5,-66 288.5,-66 288.5,-96"/>
<text text-anchor="start" x="174.5" y="-84" font-family="Helvetica,sans-Serif" font-size="10.00">unilink/builder/unified</text>
<text text-anchor="middle" x="227.5" y="-73" font-family="Helvetica,sans-Serif" font-size="10.00">_builder.hpp</text>
</a>
</g>
</g>
<!-- Node14&#45;&gt;Node16 -->
<g id="edge18_Node000014_Node000016" class="edge">
<title>Node14&#45;&gt;Node16</title>
<g id="a_edge18_Node000014_Node000016"><a xlink:title=" ">
<path fill="none" stroke="#63b8ff" d="M227.5,-121.54C227.5,-112.96 227.5,-103.61 227.5,-96.16"/>
<polygon fill="#63b8ff" stroke="#63b8ff" points="224,-121.8 227.5,-131.8 231,-121.8 224,-121.8"/>
</a>
</g>
</g>
<!-- Node14&#45;&gt;Node18 -->
<g id="edge21_Node000014_Node000018" class="edge">
<title>Node14&#45;&gt;Node18</title>
<g id="a_edge21_Node000014_Node000018"><a xlink:title=" ">
<path fill="none" stroke="#63b8ff" d="M163.78,-138.22C112.98,-130.56 47.76,-116.93 31.5,-96 14.62,-74.27 35.17,-40.43 46.7,-24.65"/>
<polygon fill="#63b8ff" stroke="#63b8ff" points="163.32,-141.69 173.72,-139.68 164.34,-134.77 163.32,-141.69"/>
</a>
</g>
</g>
<!-- Node17 -->
<g id="Node000017" class="node">
<title>Node17</title>
<g id="a_Node000017"><a xlink:href="unified__builder_8cc.html" target="_top" xlink:title=" ">
<polygon fill="white" stroke="#666666" points="288.5,-30 166.5,-30 166.5,0 288.5,0 288.5,-30"/>
<text text-anchor="start" x="174.5" y="-18" font-family="Helvetica,sans-Serif" font-size="10.00">unilink/builder/unified</text>
<text text-anchor="middle" x="227.5" y="-7" font-family="Helvetica,sans-Serif" font-size="10.00">_builder.cc</text>
</a>
</g>
</g>
<!-- Node16&#45;&gt;Node17 -->
<g id="edge19_Node000016_Node000017" class="edge">
<title>Node16&#45;&gt;Node17</title>
<g id="a_edge19_Node000016_Node000017"><a xlink:title=" ">
<path fill="none" stroke="#63b8ff" d="M227.5,-55.54C227.5,-46.96 227.5,-37.61 227.5,-30.16"/>
<polygon fill="#63b8ff" stroke="#63b8ff" points="224,-55.8 227.5,-65.8 231,-55.8 224,-55.8"/>
</a>
</g>
</g>
<!-- Node16&#45;&gt;Node18 -->
<g id="edge20_Node000016_Node000018" class="edge">
<title>Node16&#45;&gt;Node18</title>
<g id="a_edge20_Node000016_Node000018"><a xlink:title=" ">
<path fill="none" stroke="#63b8ff" d="M179.7,-62.42C146.18,-50.09 102.84,-34.15 76.66,-24.52"/>
<polygon fill="#63b8ff" stroke="#63b8ff" points="178.72,-65.79 189.31,-65.95 181.14,-59.22 178.72,-65.79"/>
</a>
</g>
</g>
<!-- Node19&#45;&gt;Node8 -->
<g id="edge27_Node000019_Node000008" class="edge">
<title>Node19&#45;&gt;Node8</title>
<g id="a_edge27_Node000019_Node000008"><a xlink:title=" ">
<path fill="none" stroke="#63b8ff" d="M283.14,-194.19C309.19,-184.02 341.37,-171.47 365.59,-162.01"/>
<polygon fill="#63b8ff" stroke="#63b8ff" points="281.53,-191.06 273.49,-197.95 284.08,-197.58 281.53,-191.06"/>
</a>
</g>
</g>
<!-- Node19&#45;&gt;Node14 -->
<g id="edge25_Node000019_Node000014" class="edge">
<title>Node19&#45;&gt;Node14</title>
<g id="a_edge25_Node000019_Node000014"><a xlink:title=" ">
<path fill="none" stroke="#63b8ff" d="M233.72,-187.83C232.37,-179.17 230.89,-169.7 229.71,-162.16"/>
<polygon fill="#63b8ff" stroke="#63b8ff" points="230.28,-188.46 235.28,-197.8 237.19,-187.38 230.28,-188.46"/>
</a>
</g>
</g>
<!-- Node19&#45;&gt;Node18 -->
<g id="edge26_Node000019_Node000018" class="edge">
<title>Node19&#45;&gt;Node18</title>
<g id="a_edge26_Node000019_Node000018"><a xlink:title=" ">
<path fill="none" stroke="#63b8ff" d="M171.35,-196.19C120.52,-180.18 53.72,-149.88 21.5,-96 7.07,-71.86 31.09,-40.03 44.87,-24.83"/>
<polygon fill="#63b8ff" stroke="#63b8ff" points="170.38,-199.55 180.96,-199.11 172.41,-192.85 170.38,-199.55"/>
</a>
</g>
</g>
</g>
</svg>
