<?xml version="1.0" encoding="UTF-8" standalone="no"?>
<!DOCTYPE svg PUBLIC "-//W3C//DTD SVG 1.1//EN"
 "http://www.w3.org/Graphics/SVG/1.1/DTD/svg11.dtd">
<!-- Generated by graphviz version 2.43.0 (0)
 -->
<!-- Title: unilink/wrapper/udp/udp_server.hpp Pages: 1 -->
<svg width="1297pt" height="280pt"
 viewBox="0.00 0.00 1296.50 280.00" xmlns="http://www.w3.org/2000/svg" xmlns:xlink="http://www.w3.org/1999/xlink">
<g id="graph0" class="graph" transform="scale(1 1) rotate(0) translate(4 276)">
<title>unilink/wrapper/udp/udp_server.hpp</title>
<!-- Node1 -->
<g id="Node000001" class="node">
<title>Node1</title>
<g id="a_Node000001"><a xlink:title=" ">
<polygon fill="#999999" stroke="#666666" points="567.5,-272 454.5,-272 454.5,-242 567.5,-242 567.5,-272"/>
<text text-anchor="start" x="462.5" y="-260" font-family="Helvetica,sans-Serif" font-size="10.00">unilink/wrapper/udp</text>
<text text-anchor="middle" x="511" y="-249" font-family="Helvetica,sans-Serif" font-size="10.00">/udp_server.hpp</text>
</a>
</g>
</g>
<!-- Node2 -->
<g id="Node000002" class="node">
<title>Node2</title>
<g id="a_Node000002"><a xlink:title=" ">
<polygon fill="#e0e0e0" stroke="#999999" points="142,-206 0,-206 0,-187 142,-187 142,-206"/>
<text text-anchor="middle" x="71" y="-194" font-family="Helvetica,sans-Serif" font-size="10.00">boost/asio/io_context.hpp</text>
</a>
</g>
</g>
<!-- Node1&#45;&gt;Node2 -->
<g id="edge1_Node000001_Node000002" class="edge">
<title>Node1&#45;&gt;Node2</title>
<g id="a_edge1_Node000001_Node000002"><a xlink:title=" ">
<path fill="none" stroke="#63b8ff" d="M454.38,-248.47C375.57,-237.99 232.67,-218.99 145.35,-207.39"/>
<polygon fill="#63b8ff" stroke="#63b8ff" points="145.62,-203.89 135.25,-206.04 144.7,-210.83 145.62,-203.89"/>
</a>
</g>
</g>
<!-- Node3 -->
<g id="Node000003" class="node">
<title>Node3</title>
<g id="a_Node000003"><a xlink:title=" ">
<polygon fill="#e0e0e0" stroke="#999999" points="242,-79.5 184,-79.5 184,-60.5 242,-60.5 242,-79.5"/>
<text text-anchor="middle" x="213" y="-67.5" font-family="Helvetica,sans-Serif" font-size="10.00">memory</text>
</a>
</g>
</g>
<!-- Node1&#45;&gt;Node3 -->
<g id="edge2_Node000001_Node000003" class="edge">
<title>Node1&#45;&gt;Node3</title>
<g id="a_edge2_Node000001_Node000003"><a xlink:title=" ">
<path fill="none" stroke="#63b8ff" d="M454.23,-251.11C413.12,-245.37 357.69,-232.93 316,-206 269.7,-176.09 236.09,-117.87 221.33,-88.64"/>
<polygon fill="#63b8ff" stroke="#63b8ff" points="224.45,-87.04 216.91,-79.6 218.16,-90.12 224.45,-87.04"/>
</a>
</g>
</g>
<!-- Node4 -->
<g id="Node000004" class="node">
<title>Node4</title>
<g id="a_Node000004"><a xlink:title=" ">
<polygon fill="#e0e0e0" stroke="#999999" points="887,-19 843,-19 843,0 887,0 887,-19"/>
<text text-anchor="middle" x="865" y="-7" font-family="Helvetica,sans-Serif" font-size="10.00">string</text>
</a>
</g>
</g>
<!-- Node1&#45;&gt;Node4 -->
<g id="edge3_Node000001_Node000004" class="edge">
<title>Node1&#45;&gt;Node4</title>
<g id="a_edge3_Node000001_Node000004"><a xlink:title=" ">
<path fill="none" stroke="#63b8ff" d="M567.75,-254.6C667.34,-248.58 870.02,-219.57 944,-85 950.42,-73.32 950.73,-66.51 944,-55 933.84,-37.62 914.11,-26.5 896.92,-19.72"/>
<polygon fill="#63b8ff" stroke="#63b8ff" points="897.77,-16.31 887.17,-16.22 895.4,-22.89 897.77,-16.31"/>
</a>
</g>
</g>
<!-- Node5 -->
<g id="Node000005" class="node">
<title>Node5</title>
<g id="a_Node000005"><a xlink:title=" ">
<polygon fill="#e0e0e0" stroke="#999999" points="307.5,-79.5 260.5,-79.5 260.5,-60.5 307.5,-60.5 307.5,-79.5"/>
<text text-anchor="middle" x="284" y="-67.5" font-family="Helvetica,sans-Serif" font-size="10.00">vector</text>
</a>
</g>
</g>
<!-- Node1&#45;&gt;Node5 -->
<g id="edge4_Node000001_Node000005" class="edge">
<title>Node1&#45;&gt;Node5</title>
<g id="a_edge4_Node000001_Node000005"><a xlink:title=" ">
<path fill="none" stroke="#63b8ff" d="M454.45,-247.36C400.24,-235.75 321.3,-209.35 284,-151 272.28,-132.66 274.91,-106.81 278.71,-89.5"/>
<polygon fill="#63b8ff" stroke="#63b8ff" points="282.17,-90.08 281.24,-79.53 275.39,-88.36 282.17,-90.08"/>
</a>
</g>
</g>
<!-- Node6 -->
<g id="Node000006" class="node">
<title>Node6</title>
<g id="a_Node000006"><a xlink:href="visibility_8hpp.html" target="_top" xlink:title=" ">
<polygon fill="white" stroke="#666666" points="935,-79.5 795,-79.5 795,-60.5 935,-60.5 935,-79.5"/>
<text text-anchor="middle" x="865" y="-67.5" font-family="Helvetica,sans-Serif" font-size="10.00">unilink/base/visibility.hpp</text>
</a>
</g>
</g>
<!-- Node1&#45;&gt;Node6 -->
<g id="edge5_Node000001_Node000006" class="edge">
<title>Node1&#45;&gt;Node6</title>
<g id="a_edge5_Node000001_Node000006"><a xlink:title=" ">
<path fill="none" stroke="#63b8ff" d="M567.79,-247.64C632.79,-235.68 739.7,-208.42 813,-151 834.03,-134.53 849.2,-107.07 857.54,-89"/>
<polygon fill="#63b8ff" stroke="#63b8ff" points="860.76,-90.39 861.57,-79.82 854.35,-87.57 860.76,-90.39"/>
</a>
</g>
</g>
<!-- Node7 -->
<g id="Node000007" class="node">
<title>Node7</title>
<g id="a_Node000007"><a xlink:href="udp__config_8hpp.html" target="_top" xlink:title=" ">
<polygon fill="white" stroke="#666666" points="1126.5,-151 1023.5,-151 1023.5,-121 1126.5,-121 1126.5,-151"/>
<text text-anchor="start" x="1031.5" y="-139" font-family="Helvetica,sans-Serif" font-size="10.00">unilink/config/udp</text>
<text text-anchor="middle" x="1075" y="-128" font-family="Helvetica,sans-Serif" font-size="10.00">_config.hpp</text>
</a>
</g>
</g>
<!-- Node1&#45;&gt;Node7 -->
<g id="edge6_Node000001_Node000007" class="edge">
<title>Node1&#45;&gt;Node7</title>
<g id="a_edge6_Node000001_Node000007"><a xlink:title=" ">
<path fill="none" stroke="#63b8ff" d="M567.59,-253.48C674.79,-248.11 903.33,-233.74 977,-206 1005.67,-195.2 1033.77,-174.01 1052.48,-157.94"/>
<polygon fill="#63b8ff" stroke="#63b8ff" points="1054.95,-160.43 1060.14,-151.2 1050.32,-155.18 1054.95,-160.43"/>
</a>
</g>
</g>
<!-- Node12 -->
<g id="Node000012" class="node">
<title>Node12</title>
<g id="a_Node000012"><a xlink:href="iserver_8hpp.html" target="_top" xlink:title=" ">
<polygon fill="white" stroke="#666666" points="585.5,-206 436.5,-206 436.5,-187 585.5,-187 585.5,-206"/>
<text text-anchor="middle" x="511" y="-194" font-family="Helvetica,sans-Serif" font-size="10.00">unilink/wrapper/iserver.hpp</text>
</a>
</g>
</g>
<!-- Node1&#45;&gt;Node12 -->
<g id="edge13_Node000001_Node000012" class="edge">
<title>Node1&#45;&gt;Node12</title>
<g id="a_edge13_Node000001_Node000012"><a xlink:title=" ">
<path fill="none" stroke="#63b8ff" d="M511,-241.84C511,-234.21 511,-224.7 511,-216.45"/>
<polygon fill="#63b8ff" stroke="#63b8ff" points="514.5,-216.27 511,-206.27 507.5,-216.27 514.5,-216.27"/>
</a>
</g>
</g>
<!-- Node7&#45;&gt;Node4 -->
<g id="edge9_Node000007_Node000004" class="edge">
<title>Node7&#45;&gt;Node4</title>
<g id="a_edge9_Node000007_Node000004"><a xlink:title=" ">
<path fill="none" stroke="#63b8ff" d="M1075.82,-120.72C1076.02,-102.83 1073.5,-72.43 1056,-55 1033.92,-33.01 945.74,-19.71 897.3,-13.92"/>
<polygon fill="#63b8ff" stroke="#63b8ff" points="897.65,-10.44 887.32,-12.77 896.85,-17.39 897.65,-10.44"/>
</a>
</g>
</g>
<!-- Node8 -->
<g id="Node000008" class="node">
<title>Node8</title>
<g id="a_Node000008"><a xlink:title=" ">
<polygon fill="#e0e0e0" stroke="#999999" points="1138,-19 1088,-19 1088,0 1138,0 1138,-19"/>
<text text-anchor="middle" x="1113" y="-7" font-family="Helvetica,sans-Serif" font-size="10.00">cstdint</text>
</a>
</g>
</g>
<!-- Node7&#45;&gt;Node8 -->
<g id="edge7_Node000007_Node000008" class="edge">
<title>Node7&#45;&gt;Node8</title>
<g id="a_edge7_Node000007_Node000008"><a xlink:title=" ">
<path fill="none" stroke="#63b8ff" d="M1079.36,-120.72C1086.29,-98.02 1099.81,-53.72 1107.43,-28.75"/>
<polygon fill="#63b8ff" stroke="#63b8ff" points="1110.81,-29.66 1110.38,-19.07 1104.12,-27.61 1110.81,-29.66"/>
</a>
</g>
</g>
<!-- Node9 -->
<g id="Node000009" class="node">
<title>Node9</title>
<g id="a_Node000009"><a xlink:title=" ">
<polygon fill="#e0e0e0" stroke="#999999" points="1047,-79.5 991,-79.5 991,-60.5 1047,-60.5 1047,-79.5"/>
<text text-anchor="middle" x="1019" y="-67.5" font-family="Helvetica,sans-Serif" font-size="10.00">optional</text>
</a>
</g>
</g>
<!-- Node7&#45;&gt;Node9 -->
<g id="edge8_Node000007_Node000009" class="edge">
<title>Node7&#45;&gt;Node9</title>
<g id="a_edge8_Node000007_Node000009"><a xlink:title=" ">
<path fill="none" stroke="#63b8ff" d="M1062.57,-120.8C1053.93,-110.92 1042.38,-97.72 1033.34,-87.39"/>
<polygon fill="#63b8ff" stroke="#63b8ff" points="1035.96,-85.07 1026.74,-79.84 1030.69,-89.67 1035.96,-85.07"/>
</a>
</g>
</g>
<!-- Node10 -->
<g id="Node000010" class="node">
<title>Node10</title>
<g id="a_Node000010"><a xlink:href="constants_8hpp.html" target="_top" xlink:title=" ">
<polygon fill="white" stroke="#666666" points="1288.5,-79.5 1141.5,-79.5 1141.5,-60.5 1288.5,-60.5 1288.5,-79.5"/>
<text text-anchor="middle" x="1215" y="-67.5" font-family="Helvetica,sans-Serif" font-size="10.00">unilink/base/constants.hpp</text>
</a>
</g>
</g>
<!-- Node7&#45;&gt;Node10 -->
<g id="edge10_Node000007_Node000010" class="edge">
<title>Node7&#45;&gt;Node10</title>
<g id="a_edge10_Node000007_Node000010"><a xlink:title=" ">
<path fill="none" stroke="#63b8ff" d="M1105.72,-120.95C1129.95,-109.88 1163.46,-94.56 1186.96,-83.82"/>
<polygon fill="#63b8ff" stroke="#63b8ff" points="1188.73,-86.86 1196.37,-79.52 1185.82,-80.49 1188.73,-86.86"/>
</a>
</g>
</g>
<!-- Node10&#45;&gt;Node8 -->
<g id="edge12_Node000010_Node000008" class="edge">
<title>Node10&#45;&gt;Node8</title>
<g id="a_edge12_Node000010_Node000008"><a xlink:title=" ">
<path fill="none" stroke="#63b8ff" d="M1199.95,-60.37C1183.38,-50.86 1156.5,-35.45 1137.01,-24.27"/>
<polygon fill="#63b8ff" stroke="#63b8ff" points="1138.53,-21.11 1128.11,-19.17 1135.05,-27.18 1138.53,-21.11"/>
</a>
</g>
</g>
<!-- Node11 -->
<g id="Node000011" class="node">
<title>Node11</title>
<g id="a_Node000011"><a xlink:title=" ">
<polygon fill="#e0e0e0" stroke="#999999" points="1241.5,-19 1188.5,-19 1188.5,0 1241.5,0 1241.5,-19"/>
<text text-anchor="middle" x="1215" y="-7" font-family="Helvetica,sans-Serif" font-size="10.00">cstddef</text>
</a>
</g>
</g>
<!-- Node10&#45;&gt;Node11 -->
<g id="edge11_Node000010_Node000011" class="edge">
<title>Node10&#45;&gt;Node11</title>
<g id="a_edge11_Node000010_Node000011"><a xlink:title=" ">
<path fill="none" stroke="#63b8ff" d="M1215,-60.37C1215,-52.25 1215,-39.81 1215,-29.39"/>
<polygon fill="#63b8ff" stroke="#63b8ff" points="1218.5,-29.17 1215,-19.17 1211.5,-29.17 1218.5,-29.17"/>
</a>
</g>
</g>
<!-- Node12&#45;&gt;Node3 -->
<g id="edge16_Node000012_Node000003" class="edge">
<title>Node12&#45;&gt;Node3</title>
<g id="a_edge16_Node000012_Node000003"><a xlink:title=" ">
<path fill="none" stroke="#63b8ff" d="M436.26,-192.91C389.83,-188.48 330.37,-177.51 284,-151 257.37,-135.78 235.54,-106.89 223.41,-88.31"/>
<polygon fill="#63b8ff" stroke="#63b8ff" points="226.26,-86.26 217.97,-79.66 220.33,-89.99 226.26,-86.26"/>
</a>
</g>
</g>
<!-- Node12&#45;&gt;Node5 -->
<g id="edge18_Node000012_Node000005" class="edge">
<title>Node12&#45;&gt;Node5</title>
<g id="a_edge18_Node000012_Node000005"><a xlink:title=" ">
<path fill="none" stroke="#63b8ff" d="M436.23,-187.93C384.57,-181.18 321.88,-169.46 303,-151 286.77,-135.13 283.37,-108.11 283.13,-89.92"/>
<polygon fill="#63b8ff" stroke="#63b8ff" points="286.63,-89.96 283.29,-79.91 279.63,-89.85 286.63,-89.96"/>
</a>
</g>
</g>
<!-- Node12&#45;&gt;Node6 -->
<g id="edge19_Node000012_Node000006" class="edge">
<title>Node12&#45;&gt;Node6</title>
<g id="a_edge19_Node000012_Node000006"><a xlink:title=" ">
<path fill="none" stroke="#63b8ff" d="M585.55,-194.4C641.11,-190.96 717.51,-180.54 778,-151 808.88,-135.92 836.59,-106.33 852.06,-87.67"/>
<polygon fill="#63b8ff" stroke="#63b8ff" points="854.91,-89.71 858.46,-79.73 849.46,-85.32 854.91,-89.71"/>
</a>
</g>
</g>
<!-- Node13 -->
<g id="Node000013" class="node">
<title>Node13</title>
<g id="a_Node000013"><a xlink:title=" ">
<polygon fill="#e0e0e0" stroke="#999999" points="390.5,-79.5 325.5,-79.5 325.5,-60.5 390.5,-60.5 390.5,-79.5"/>
<text text-anchor="middle" x="358" y="-67.5" font-family="Helvetica,sans-Serif" font-size="10.00">functional</text>
</a>
</g>
</g>
<!-- Node12&#45;&gt;Node13 -->
<g id="edge14_Node000012_Node000013" class="edge">
<title>Node12&#45;&gt;Node13</title>
<g id="a_edge14_Node000012_Node000013"><a xlink:title=" ">
<path fill="none" stroke="#63b8ff" d="M507.64,-186.54C501.51,-171.25 487.16,-139.95 466,-121 454.14,-110.38 417.44,-94.43 390.09,-83.42"/>
<polygon fill="#63b8ff" stroke="#63b8ff" points="391.08,-80.04 380.5,-79.6 388.5,-86.55 391.08,-80.04"/>
</a>
</g>
</g>
<!-- Node14 -->
<g id="Node000014" class="node">
<title>Node14</title>
<g id="a_Node000014"><a xlink:title=" ">
<polygon fill="#e0e0e0" stroke="#999999" points="560,-145.5 514,-145.5 514,-126.5 560,-126.5 560,-145.5"/>
<text text-anchor="middle" x="537" y="-133.5" font-family="Helvetica,sans-Serif" font-size="10.00">future</text>
</a>
</g>
</g>
<!-- Node12&#45;&gt;Node14 -->
<g id="edge15_Node000012_Node000014" class="edge">
<title>Node12&#45;&gt;Node14</title>
<g id="a_edge15_Node000012_Node000014"><a xlink:title=" ">
<path fill="none" stroke="#63b8ff" d="M514.84,-186.87C518.56,-178.49 524.33,-165.51 529.05,-154.89"/>
<polygon fill="#63b8ff" stroke="#63b8ff" points="532.28,-156.23 533.15,-145.67 525.89,-153.38 532.28,-156.23"/>
</a>
</g>
</g>
<!-- Node15 -->
<g id="Node000015" class="node">
<title>Node15</title>
<g id="a_Node000015"><a xlink:title=" ">
<polygon fill="#e0e0e0" stroke="#999999" points="618.5,-79.5 545.5,-79.5 545.5,-60.5 618.5,-60.5 618.5,-79.5"/>
<text text-anchor="middle" x="582" y="-67.5" font-family="Helvetica,sans-Serif" font-size="10.00">string_view</text>
</a>
</g>
</g>
<!-- Node12&#45;&gt;Node15 -->
<g id="edge17_Node000012_Node000015" class="edge">
<title>Node12&#45;&gt;Node15</title>
<g id="a_edge17_Node000012_Node000015"><a xlink:title=" ">
<path fill="none" stroke="#63b8ff" d="M528.38,-186.88C541.72,-179.31 559.43,-167.01 569,-151 580.14,-132.35 582.58,-107.11 582.75,-90"/>
<polygon fill="#63b8ff" stroke="#63b8ff" points="586.24,-89.58 582.59,-79.63 579.24,-89.69 586.24,-89.58"/>
</a>
</g>
</g>
<!-- Node16 -->
<g id="Node000016" class="node">
<title>Node16</title>
<g id="a_Node000016"><a xlink:href="iframer_8hpp.html" target="_top" xlink:title=" ">
<polygon fill="white" stroke="#666666" points="457.5,-145.5 312.5,-145.5 312.5,-126.5 457.5,-126.5 457.5,-145.5"/>
<text text-anchor="middle" x="385" y="-133.5" font-family="Helvetica,sans-Serif" font-size="10.00">unilink/framer/iframer.hpp</text>
</a>
</g>
</g>
<!-- Node12&#45;&gt;Node16 -->
<g id="edge20_Node000012_Node000016" class="edge">
<title>Node12&#45;&gt;Node16</title>
<g id="a_edge20_Node000012_Node000016"><a xlink:title=" ">
<path fill="none" stroke="#63b8ff" d="M492.68,-186.99C471.59,-177.2 436.74,-161.02 412.42,-149.73"/>
<polygon fill="#63b8ff" stroke="#63b8ff" points="413.89,-146.55 403.34,-145.52 410.94,-152.9 413.89,-146.55"/>
</a>
</g>
</g>
<!-- Node20 -->
<g id="Node000020" class="node">
<title>Node20</title>
<g id="a_Node000020"><a xlink:href="context_8hpp.html" target="_top" xlink:title=" ">
<polygon fill="white" stroke="#666666" points="769.5,-145.5 616.5,-145.5 616.5,-126.5 769.5,-126.5 769.5,-145.5"/>
<text text-anchor="middle" x="693" y="-133.5" font-family="Helvetica,sans-Serif" font-size="10.00">unilink/wrapper/context.hpp</text>
</a>
</g>
</g>
<!-- Node12&#45;&gt;Node20 -->
<g id="edge29_Node000012_Node000020" class="edge">
<title>Node12&#45;&gt;Node20</title>
<g id="a_edge29_Node000012_Node000020"><a xlink:title=" ">
<path fill="none" stroke="#63b8ff" d="M537.46,-186.99C568.87,-176.9 621.4,-160.01 656.62,-148.69"/>
<polygon fill="#63b8ff" stroke="#63b8ff" points="658.05,-151.91 666.5,-145.52 655.91,-145.24 658.05,-151.91"/>
</a>
</g>
</g>
<!-- Node16&#45;&gt;Node3 -->
<g id="edge22_Node000016_Node000003" class="edge">
<title>Node16&#45;&gt;Node3</title>
<g id="a_edge22_Node000016_Node000003"><a xlink:title=" ">
<path fill="none" stroke="#63b8ff" d="M361.8,-126.37C331.84,-115.22 279.52,-95.75 245.58,-83.12"/>
<polygon fill="#63b8ff" stroke="#63b8ff" points="246.7,-79.8 236.1,-79.6 244.25,-86.36 246.7,-79.8"/>
</a>
</g>
</g>
<!-- Node16&#45;&gt;Node5 -->
<g id="edge23_Node000016_Node000005" class="edge">
<title>Node16&#45;&gt;Node5</title>
<g id="a_edge23_Node000016_Node000005"><a xlink:title=" ">
<path fill="none" stroke="#63b8ff" d="M371.38,-126.37C354.66,-115.78 326.09,-97.67 306.19,-85.06"/>
<polygon fill="#63b8ff" stroke="#63b8ff" points="308.05,-82.1 297.73,-79.7 304.3,-88.01 308.05,-82.1"/>
</a>
</g>
</g>
<!-- Node16&#45;&gt;Node6 -->
<g id="edge24_Node000016_Node000006" class="edge">
<title>Node16&#45;&gt;Node6</title>
<g id="a_edge24_Node000016_Node000006"><a xlink:title=" ">
<path fill="none" stroke="#63b8ff" d="M449.24,-126.44C537.97,-114.6 697.66,-93.31 791.19,-80.84"/>
<polygon fill="#63b8ff" stroke="#63b8ff" points="791.69,-84.31 801.14,-79.51 790.77,-77.37 791.69,-84.31"/>
</a>
</g>
</g>
<!-- Node16&#45;&gt;Node13 -->
<g id="edge21_Node000016_Node000013" class="edge">
<title>Node16&#45;&gt;Node13</title>
<g id="a_edge21_Node000016_Node000013"><a xlink:title=" ">
<path fill="none" stroke="#63b8ff" d="M381.36,-126.37C377.36,-116.88 370.81,-101.36 365.66,-89.16"/>
<polygon fill="#63b8ff" stroke="#63b8ff" points="368.87,-87.76 361.76,-79.91 362.42,-90.48 368.87,-87.76"/>
</a>
</g>
</g>
<!-- Node17 -->
<g id="Node000017" class="node">
<title>Node17</title>
<g id="a_Node000017"><a xlink:href="safe__span_8hpp.html" target="_top" xlink:title=" ">
<polygon fill="white" stroke="#666666" points="527,-85 409,-85 409,-55 527,-55 527,-85"/>
<text text-anchor="start" x="417" y="-73" font-family="Helvetica,sans-Serif" font-size="10.00">unilink/memory/safe</text>
<text text-anchor="middle" x="468" y="-62" font-family="Helvetica,sans-Serif" font-size="10.00">_span.hpp</text>
</a>
</g>
</g>
<!-- Node16&#45;&gt;Node17 -->
<g id="edge25_Node000016_Node000017" class="edge">
<title>Node16&#45;&gt;Node17</title>
<g id="a_edge25_Node000016_Node000017"><a xlink:title=" ">
<path fill="none" stroke="#63b8ff" d="M396.19,-126.37C407.77,-117.44 426.26,-103.19 441.57,-91.38"/>
<polygon fill="#63b8ff" stroke="#63b8ff" points="443.91,-93.99 449.69,-85.12 439.64,-88.45 443.91,-93.99"/>
</a>
</g>
</g>
<!-- Node17&#45;&gt;Node8 -->
<g id="edge26_Node000017_Node000008" class="edge">
<title>Node17&#45;&gt;Node8</title>
<g id="a_edge26_Node000017_Node000008"><a xlink:title=" ">
<path fill="none" stroke="#63b8ff" d="M527.26,-56.34C530.21,-55.85 533.14,-55.4 536,-55 739.87,-26.27 987.07,-15.02 1077.6,-11.68"/>
<polygon fill="#63b8ff" stroke="#63b8ff" points="1077.98,-15.16 1087.85,-11.31 1077.73,-8.17 1077.98,-15.16"/>
</a>
</g>
</g>
<!-- Node18 -->
<g id="Node000018" class="node">
<title>Node18</title>
<g id="a_Node000018"><a xlink:title=" ">
<polygon fill="#e0e0e0" stroke="#999999" points="457.5,-19 392.5,-19 392.5,0 457.5,0 457.5,-19"/>
<text text-anchor="middle" x="425" y="-7" font-family="Helvetica,sans-Serif" font-size="10.00">stdexcept</text>
</a>
</g>
</g>
<!-- Node17&#45;&gt;Node18 -->
<g id="edge27_Node000017_Node000018" class="edge">
<title>Node17&#45;&gt;Node18</title>
<g id="a_edge27_Node000017_Node000018"><a xlink:title=" ">
<path fill="none" stroke="#63b8ff" d="M457.59,-54.84C451.54,-46.61 443.88,-36.18 437.5,-27.51"/>
<polygon fill="#63b8ff" stroke="#63b8ff" points="440.19,-25.25 431.44,-19.27 434.55,-29.4 440.19,-25.25"/>
</a>
</g>
</g>
<!-- Node19 -->
<g id="Node000019" class="node">
<title>Node19</title>
<g id="a_Node000019"><a xlink:title=" ">
<polygon fill="#e0e0e0" stroke="#999999" points="544.5,-19 475.5,-19 475.5,0 544.5,0 544.5,-19"/>
<text text-anchor="middle" x="510" y="-7" font-family="Helvetica,sans-Serif" font-size="10.00">type_traits</text>
</a>
</g>
</g>
<!-- Node17&#45;&gt;Node19 -->
<g id="edge28_Node000017_Node000019" class="edge">
<title>Node17&#45;&gt;Node19</title>
<g id="a_edge28_Node000017_Node000019"><a xlink:title=" ">
<path fill="none" stroke="#63b8ff" d="M478.17,-54.84C484.08,-46.61 491.56,-36.18 497.79,-27.51"/>
<polygon fill="#63b8ff" stroke="#63b8ff" points="500.72,-29.43 503.71,-19.27 495.03,-25.35 500.72,-29.43"/>
</a>
</g>
</g>
<!-- Node20&#45;&gt;Node4 -->
<g id="edge31_Node000020_Node000004" class="edge">
<title>Node20&#45;&gt;Node4</title>
<g id="a_edge31_Node000020_Node000004"><a xlink:title=" ">
<path fill="none" stroke="#63b8ff" d="M702.5,-126.41C722.55,-108.34 768.74,-67.11 786,-55 802.65,-43.32 822.61,-32.1 838.31,-23.84"/>
<polygon fill="#63b8ff" stroke="#63b8ff" points="840.18,-26.81 847.46,-19.11 836.97,-20.6 840.18,-26.81"/>
</a>
</g>
</g>
<!-- Node20&#45;&gt;Node5 -->
<g id="edge33_Node000020_Node000005" class="edge">
<title>Node20&#45;&gt;Node5</title>
<g id="a_edge33_Node000020_Node000005"><a xlink:title=" ">
<path fill="none" stroke="#63b8ff" d="M620.19,-126.46C518.89,-114.4 344.58,-92.97 316,-85 314.31,-84.53 312.6,-83.99 310.89,-83.39"/>
<polygon fill="#63b8ff" stroke="#63b8ff" points="311.87,-80.02 301.28,-79.61 309.3,-86.53 311.87,-80.02"/>
</a>
</g>
</g>
<!-- Node20&#45;&gt;Node9 -->
<g id="edge30_Node000020_Node000009" class="edge">
<title>Node20&#45;&gt;Node9</title>
<g id="a_edge30_Node000020_Node000009"><a xlink:title=" ">
<path fill="none" stroke="#63b8ff" d="M736.63,-126.44C800.92,-113.81 920.06,-90.42 980.98,-78.46"/>
<polygon fill="#63b8ff" stroke="#63b8ff" points="981.81,-81.87 990.95,-76.51 980.46,-75 981.81,-81.87"/>
</a>
</g>
</g>
<!-- Node20&#45;&gt;Node15 -->
<g id="edge32_Node000020_Node000015" class="edge">
<title>Node20&#45;&gt;Node15</title>
<g id="a_edge32_Node000020_Node000015"><a xlink:title=" ">
<path fill="none" stroke="#63b8ff" d="M678.03,-126.37C659.49,-115.68 627.69,-97.35 605.8,-84.72"/>
<polygon fill="#63b8ff" stroke="#63b8ff" points="607.5,-81.66 597.09,-79.7 604,-87.73 607.5,-81.66"/>
</a>
</g>
</g>
<!-- Node20&#45;&gt;Node17 -->
<g id="edge36_Node000020_Node000017" class="edge">
<title>Node20&#45;&gt;Node17</title>
<g id="a_edge36_Node000020_Node000017"><a xlink:title=" ">
<path fill="none" stroke="#63b8ff" d="M662.66,-126.37C628.08,-116.54 570.76,-100.23 527.24,-87.85"/>
<polygon fill="#63b8ff" stroke="#63b8ff" points="528.2,-84.49 517.63,-85.12 526.29,-91.22 528.2,-84.49"/>
</a>
</g>
</g>
<!-- Node21 -->
<g id="Node000021" class="node">
<title>Node21</title>
<g id="a_Node000021"><a xlink:href="error__codes_8hpp.html" target="_top" xlink:title=" ">
<polygon fill="white" stroke="#666666" points="739,-85 637,-85 637,-55 739,-55 739,-85"/>
<text text-anchor="start" x="645" y="-73" font-family="Helvetica,sans-Serif" font-size="10.00">unilink/base/error</text>
<text text-anchor="middle" x="688" y="-62" font-family="Helvetica,sans-Serif" font-size="10.00">_codes.hpp</text>
</a>
</g>
</g>
<!-- Node20&#45;&gt;Node21 -->
<g id="edge34_Node000020_Node000021" class="edge">
<title>Node20&#45;&gt;Node21</title>
<g id="a_edge34_Node000020_Node000021"><a xlink:title=" ">
<path fill="none" stroke="#63b8ff" d="M692.33,-126.37C691.71,-118.49 690.77,-106.45 689.92,-95.6"/>
<polygon fill="#63b8ff" stroke="#63b8ff" points="693.39,-95.06 689.12,-85.36 686.41,-95.6 693.39,-95.06"/>
</a>
</g>
</g>
<!-- Node21&#45;&gt;Node4 -->
<g id="edge35_Node000021_Node000004" class="edge">
<title>Node21&#45;&gt;Node4</title>
<g id="a_edge35_Node000021_Node000004"><a xlink:title=" ">
<path fill="none" stroke="#63b8ff" d="M730.4,-54.99C762.05,-44.53 804.62,-30.46 833.34,-20.96"/>
<polygon fill="#63b8ff" stroke="#63b8ff" points="834.49,-24.27 842.89,-17.81 832.29,-17.62 834.49,-24.27"/>
</a>
</g>
</g>
</g>
</svg>
