<?xml version="1.0" encoding="UTF-8" standalone="no"?>
<!DOCTYPE svg PUBLIC "-//W3C//DTD SVG 1.1//EN"
 "http://www.w3.org/Graphics/SVG/1.1/DTD/svg11.dtd">
<!-- Generated by graphviz version 2.43.0 (0)
 -->
<!-- Title: unilink/config/udp_config.hpp Pages: 1 -->
<svg width="304pt" height="151pt"
 viewBox="0.00 0.00 303.79 151.00" xmlns="http://www.w3.org/2000/svg" xmlns:xlink="http://www.w3.org/1999/xlink">
<g id="graph0" class="graph" transform="scale(1 1) rotate(0) translate(4 147)">
<title>unilink/config/udp_config.hpp</title>
<polygon fill="white" stroke="transparent" points="-4,4 -4,-147 299.79,-147 299.79,4 -4,4"/>
<!-- Node1 -->
<g id="node1" class="node">
<title>Node1</title>
<g id="a_node1"><a xlink:title=" ">
<polygon fill="#bfbfbf" stroke="black" points="22.79,-112.5 22.79,-142.5 125.79,-142.5 125.79,-112.5 22.79,-112.5"/>
<text text-anchor="start" x="30.79" y="-130.5" font-family="Helvetica,sans-Serif" font-size="10.00">unilink/config/udp</text>
<text text-anchor="middle" x="74.29" y="-119.5" font-family="Helvetica,sans-Serif" font-size="10.00">_config.hpp</text>
</a>
</g>
</g>
<!-- Node2 -->
<g id="node2" class="node">
<title>Node2</title>
<g id="a_node2"><a xlink:title=" ">
<polygon fill="white" stroke="#bfbfbf" points="43.29,-0.5 43.29,-19.5 93.29,-19.5 93.29,-0.5 43.29,-0.5"/>
<text text-anchor="middle" x="68.29" y="-7.5" font-family="Helvetica,sans-Serif" font-size="10.00">cstdint</text>
</a>
</g>
</g>
<!-- Node1&#45;&gt;Node2 -->
<g id="edge1" class="edge">
<title>Node1&#45;&gt;Node2</title>
<path fill="none" stroke="midnightblue" d="M42.15,-112.34C27.47,-104.03 11.55,-92 3.29,-76 -7.72,-54.65 16.68,-35.94 38.66,-24.14"/>
<polygon fill="midnightblue" stroke="midnightblue" points="40.47,-27.15 47.83,-19.52 37.32,-20.9 40.47,-27.15"/>
</g>
<!-- Node3 -->
<g id="node3" class="node">
<title>Node3</title>
<g id="a_node3"><a xlink:title=" ">
<polygon fill="white" stroke="#bfbfbf" points="12.29,-56.5 12.29,-75.5 68.29,-75.5 68.29,-56.5 12.29,-56.5"/>
<text text-anchor="middle" x="40.29" y="-63.5" font-family="Helvetica,sans-Serif" font-size="10.00">optional</text>
</a>
</g>
</g>
<!-- Node1&#45;&gt;Node3 -->
<g id="edge2" class="edge">
<title>Node1&#45;&gt;Node3</title>
<path fill="none" stroke="midnightblue" d="M66.24,-112.4C61.45,-104.02 55.34,-93.33 50.25,-84.42"/>
<polygon fill="midnightblue" stroke="midnightblue" points="53.24,-82.6 45.24,-75.66 47.16,-86.08 53.24,-82.6"/>
</g>
<!-- Node4 -->
<g id="node4" class="node">
<title>Node4</title>
<g id="a_node4"><a xlink:title=" ">
<polygon fill="white" stroke="#bfbfbf" points="86.29,-56.5 86.29,-75.5 130.29,-75.5 130.29,-56.5 86.29,-56.5"/>
<text text-anchor="middle" x="108.29" y="-63.5" font-family="Helvetica,sans-Serif" font-size="10.00">string</text>
</a>
</g>
</g>
<!-- Node1&#45;&gt;Node4 -->
<g id="edge3" class="edge">
<title>Node1&#45;&gt;Node4</title>
<path fill="none" stroke="midnightblue" d="M82.35,-112.4C87.14,-104.02 93.25,-93.33 98.34,-84.42"/>
<polygon fill="midnightblue" stroke="midnightblue" points="101.42,-86.08 103.35,-75.66 95.34,-82.6 101.42,-86.08"/>
</g>
<!-- Node5 -->
<g id="node5" class="node">
<title>Node5</title>
<g id="a_node5"><a xlink:href="constants_8hpp.html" target="_top" xlink:title=" ">
<polygon fill="white" stroke="black" points="148.79,-56.5 148.79,-75.5 295.79,-75.5 295.79,-56.5 148.79,-56.5"/>
<text text-anchor="middle" x="222.29" y="-63.5" font-family="Helvetica,sans-Serif" font-size="10.00">unilink/base/constants.hpp</text>
</a>
</g>
</g>
<!-- Node1&#45;&gt;Node5 -->
<g id="edge4" class="edge">
<title>Node1&#45;&gt;Node5</title>
<path fill="none" stroke="midnightblue" d="M109.37,-112.4C134.31,-102.37 167.5,-89.03 191.44,-79.4"/>
<polygon fill="midnightblue" stroke="midnightblue" points="192.78,-82.64 200.76,-75.66 190.17,-76.14 192.78,-82.64"/>
</g>
<!-- Node5&#45;&gt;Node2 -->
<g id="edge6" class="edge">
<title>Node5&#45;&gt;Node2</title>
<path fill="none" stroke="midnightblue" d="M197.89,-56.44C172.1,-47.4 131.22,-33.06 102.27,-22.92"/>
<polygon fill="midnightblue" stroke="midnightblue" points="103.18,-19.52 92.58,-19.52 100.86,-26.13 103.18,-19.52"/>
</g>
<!-- Node6 -->
<g id="node6" class="node">
<title>Node6</title>
<g id="a_node6"><a xlink:title=" ">
<polygon fill="white" stroke="#bfbfbf" points="195.79,-0.5 195.79,-19.5 248.79,-19.5 248.79,-0.5 195.79,-0.5"/>
<text text-anchor="middle" x="222.29" y="-7.5" font-family="Helvetica,sans-Serif" font-size="10.00">cstddef</text>
</a>
</g>
</g>
<!-- Node5&#45;&gt;Node6 -->
<g id="edge5" class="edge">
<title>Node5&#45;&gt;Node6</title>
<path fill="none" stroke="midnightblue" d="M222.29,-56.08C222.29,-49.01 222.29,-38.86 222.29,-29.99"/>
<polygon fill="midnightblue" stroke="midnightblue" points="225.79,-29.75 222.29,-19.75 218.79,-29.75 225.79,-29.75"/>
</g>
</g>
</svg>
