<?xml version="1.0" encoding="UTF-8" standalone="no"?>
<!DOCTYPE svg PUBLIC "-//W3C//DTD SVG 1.1//EN"
 "http://www.w3.org/Graphics/SVG/1.1/DTD/svg11.dtd">
<!-- Generated by graphviz version 2.43.0 (0)
 -->
<!-- Title: unilink/wrapper/udp/udp_server.hpp Pages: 1 -->
<svg width="2273pt" height="412pt"
 viewBox="0.00 0.00 2272.50 412.00" xmlns="http://www.w3.org/2000/svg" xmlns:xlink="http://www.w3.org/1999/xlink">
<g id="graph0" class="graph" transform="scale(1 1) rotate(0) translate(4 408)">
<title>unilink/wrapper/udp/udp_server.hpp</title>
<!-- Node1 -->
<g id="Node000001" class="node">
<title>Node1</title>
<g id="a_Node000001"><a xlink:title=" ">
<polygon fill="#999999" stroke="#666666" points="422.5,-404 309.5,-404 309.5,-374 422.5,-374 422.5,-404"/>
<text text-anchor="start" x="317.5" y="-392" font-family="Helvetica,sans-Serif" font-size="10.00">unilink/wrapper/udp</text>
<text text-anchor="middle" x="366" y="-381" font-family="Helvetica,sans-Serif" font-size="10.00">/udp_server.hpp</text>
</a>
</g>
</g>
<!-- Node2 -->
<g id="Node000002" class="node">
<title>Node2</title>
<g id="a_Node000002"><a xlink:title=" ">
<polygon fill="#e0e0e0" stroke="#999999" points="142,-338 0,-338 0,-319 142,-319 142,-338"/>
<text text-anchor="middle" x="71" y="-326" font-family="Helvetica,sans-Serif" font-size="10.00">boost/asio/io_context.hpp</text>
</a>
</g>
</g>
<!-- Node1&#45;&gt;Node2 -->
<g id="edge1_Node000001_Node000002" class="edge">
<title>Node1&#45;&gt;Node2</title>
<g id="a_edge1_Node000001_Node000002"><a xlink:title=" ">
<path fill="none" stroke="#63b8ff" d="M309.47,-376.79C255.99,-366.18 176.32,-350.39 124.02,-340.01"/>
<polygon fill="#63b8ff" stroke="#63b8ff" points="124.43,-336.53 113.94,-338.02 123.07,-343.39 124.43,-336.53"/>
</a>
</g>
</g>
<!-- Node3 -->
<g id="Node000003" class="node">
<title>Node3</title>
<g id="a_Node000003"><a xlink:title=" ">
<polygon fill="#e0e0e0" stroke="#999999" points="349,-79.5 291,-79.5 291,-60.5 349,-60.5 349,-79.5"/>
<text text-anchor="middle" x="320" y="-67.5" font-family="Helvetica,sans-Serif" font-size="10.00">memory</text>
</a>
</g>
</g>
<!-- Node1&#45;&gt;Node3 -->
<g id="edge2_Node000001_Node000003" class="edge">
<title>Node1&#45;&gt;Node3</title>
<g id="a_edge2_Node000001_Node000003"><a xlink:title=" ">
<path fill="none" stroke="#63b8ff" d="M309.18,-381.85C281.03,-375.61 249.42,-363.09 232,-338 174.33,-254.93 267.65,-131.44 305.33,-87.36"/>
<polygon fill="#63b8ff" stroke="#63b8ff" points="308.13,-89.48 312.07,-79.64 302.86,-84.87 308.13,-89.48"/>
</a>
</g>
</g>
<!-- Node4 -->
<g id="Node000004" class="node">
<title>Node4</title>
<g id="a_Node000004"><a xlink:title=" ">
<polygon fill="#e0e0e0" stroke="#999999" points="1806,-79.5 1762,-79.5 1762,-60.5 1806,-60.5 1806,-79.5"/>
<text text-anchor="middle" x="1784" y="-67.5" font-family="Helvetica,sans-Serif" font-size="10.00">string</text>
</a>
</g>
</g>
<!-- Node1&#45;&gt;Node4 -->
<g id="edge3_Node000001_Node000004" class="edge">
<title>Node1&#45;&gt;Node4</title>
<g id="a_edge3_Node000001_Node000004"><a xlink:title=" ">
<path fill="none" stroke="#63b8ff" d="M422.54,-387.03C715.9,-381.64 2051,-352.53 2051,-269 2051,-269 2051,-269 2051,-201 2051,-146.14 2005.32,-146.97 1957,-121 1950.67,-117.6 1864.14,-93.28 1815.92,-79.85"/>
<polygon fill="#63b8ff" stroke="#63b8ff" points="1816.82,-76.47 1806.25,-77.16 1814.95,-83.21 1816.82,-76.47"/>
</a>
</g>
</g>
<!-- Node5 -->
<g id="Node000005" class="node">
<title>Node5</title>
<g id="a_Node000005"><a xlink:title=" ">
<polygon fill="#e0e0e0" stroke="#999999" points="269.5,-79.5 222.5,-79.5 222.5,-60.5 269.5,-60.5 269.5,-79.5"/>
<text text-anchor="middle" x="246" y="-67.5" font-family="Helvetica,sans-Serif" font-size="10.00">vector</text>
</a>
</g>
</g>
<!-- Node1&#45;&gt;Node5 -->
<g id="edge4_Node000001_Node000005" class="edge">
<title>Node1&#45;&gt;Node5</title>
<g id="a_edge4_Node000001_Node000005"><a xlink:title=" ">
<path fill="none" stroke="#63b8ff" d="M309.18,-381.85C281.03,-375.61 249.42,-363.09 232,-338 177.73,-259.82 219.37,-135.61 238.1,-89.24"/>
<polygon fill="#63b8ff" stroke="#63b8ff" points="241.39,-90.46 242.01,-79.88 234.93,-87.76 241.39,-90.46"/>
</a>
</g>
</g>
<!-- Node6 -->
<g id="Node000006" class="node">
<title>Node6</title>
<g id="a_Node000006"><a xlink:href="constants_8hpp.html" target="_top" xlink:title=" ">
<polygon fill="white" stroke="#666666" points="2264.5,-211.5 2117.5,-211.5 2117.5,-192.5 2264.5,-192.5 2264.5,-211.5"/>
<text text-anchor="middle" x="2191" y="-199.5" font-family="Helvetica,sans-Serif" font-size="10.00">unilink/base/constants.hpp</text>
</a>
</g>
</g>
<!-- Node1&#45;&gt;Node6 -->
<g id="edge5_Node000001_Node000006" class="edge">
<title>Node1&#45;&gt;Node6</title>
<g id="a_edge5_Node000001_Node000006"><a xlink:title=" ">
<path fill="none" stroke="#63b8ff" d="M422.58,-387.56C709.03,-385.16 1988.62,-372.54 2065,-338 2120.36,-312.97 2162.8,-251.03 2181.11,-220.53"/>
<polygon fill="#63b8ff" stroke="#63b8ff" points="2184.18,-222.22 2186.2,-211.82 2178.13,-218.69 2184.18,-222.22"/>
</a>
</g>
</g>
<!-- Node9 -->
<g id="Node000009" class="node">
<title>Node9</title>
<g id="a_Node000009"><a xlink:href="visibility_8hpp.html" target="_top" xlink:title=" ">
<polygon fill="white" stroke="#666666" points="643,-79.5 503,-79.5 503,-60.5 643,-60.5 643,-79.5"/>
<text text-anchor="middle" x="573" y="-67.5" font-family="Helvetica,sans-Serif" font-size="10.00">unilink/base/visibility.hpp</text>
</a>
</g>
</g>
<!-- Node1&#45;&gt;Node9 -->
<g id="edge8_Node000001_Node000009" class="edge">
<title>Node1&#45;&gt;Node9</title>
<g id="a_edge8_Node000001_Node000009"><a xlink:title=" ">
<path fill="none" stroke="#63b8ff" d="M375.16,-373.97C408.74,-322.55 525.03,-144.46 561.78,-88.18"/>
<polygon fill="#63b8ff" stroke="#63b8ff" points="564.79,-89.98 567.33,-79.69 558.93,-86.15 564.79,-89.98"/>
</a>
</g>
</g>
<!-- Node10 -->
<g id="Node000010" class="node">
<title>Node10</title>
<g id="a_Node000010"><a xlink:href="udp__config_8hpp.html" target="_top" xlink:title=" ">
<polygon fill="white" stroke="#666666" points="2022.5,-283 1919.5,-283 1919.5,-253 2022.5,-253 2022.5,-283"/>
<text text-anchor="start" x="1927.5" y="-271" font-family="Helvetica,sans-Serif" font-size="10.00">unilink/config/udp</text>
<text text-anchor="middle" x="1971" y="-260" font-family="Helvetica,sans-Serif" font-size="10.00">_config.hpp</text>
</a>
</g>
</g>
<!-- Node1&#45;&gt;Node10 -->
<g id="edge9_Node000001_Node000010" class="edge">
<title>Node1&#45;&gt;Node10</title>
<g id="a_edge9_Node000001_Node000010"><a xlink:title=" ">
<path fill="none" stroke="#63b8ff" d="M422.51,-383.97C614.76,-370.24 1261.11,-323.85 1795,-283 1832.95,-280.1 1875.48,-276.72 1909.23,-274.01"/>
<polygon fill="#63b8ff" stroke="#63b8ff" points="1909.72,-277.48 1919.41,-273.19 1909.16,-270.5 1909.72,-277.48"/>
</a>
</g>
</g>
<!-- Node12 -->
<g id="Node000012" class="node">
<title>Node12</title>
<g id="a_Node000012"><a xlink:href="iserver_8hpp.html" target="_top" xlink:title=" ">
<polygon fill="white" stroke="#666666" points="617.5,-338 468.5,-338 468.5,-319 617.5,-319 617.5,-338"/>
<text text-anchor="middle" x="543" y="-326" font-family="Helvetica,sans-Serif" font-size="10.00">unilink/wrapper/iserver.hpp</text>
</a>
</g>
</g>
<!-- Node1&#45;&gt;Node12 -->
<g id="edge14_Node000001_Node000012" class="edge">
<title>Node1&#45;&gt;Node12</title>
<g id="a_edge14_Node000001_Node000012"><a xlink:title=" ">
<path fill="none" stroke="#63b8ff" d="M408.4,-373.99C438.68,-363.98 478.95,-350.67 507.53,-341.22"/>
<polygon fill="#63b8ff" stroke="#63b8ff" points="508.72,-344.52 517.12,-338.05 506.53,-337.87 508.72,-344.52"/>
</a>
</g>
</g>
<!-- Node7 -->
<g id="Node000007" class="node">
<title>Node7</title>
<g id="a_Node000007"><a xlink:title=" ">
<polygon fill="#e0e0e0" stroke="#999999" points="2217.5,-145.5 2164.5,-145.5 2164.5,-126.5 2217.5,-126.5 2217.5,-145.5"/>
<text text-anchor="middle" x="2191" y="-133.5" font-family="Helvetica,sans-Serif" font-size="10.00">cstddef</text>
</a>
</g>
</g>
<!-- Node6&#45;&gt;Node7 -->
<g id="edge6_Node000006_Node000007" class="edge">
<title>Node6&#45;&gt;Node7</title>
<g id="a_edge6_Node000006_Node000007"><a xlink:title=" ">
<path fill="none" stroke="#63b8ff" d="M2191,-192.37C2191,-183.16 2191,-168.29 2191,-156.27"/>
<polygon fill="#63b8ff" stroke="#63b8ff" points="2194.5,-155.91 2191,-145.91 2187.5,-155.91 2194.5,-155.91"/>
</a>
</g>
</g>
<!-- Node8 -->
<g id="Node000008" class="node">
<title>Node8</title>
<g id="a_Node000008"><a xlink:title=" ">
<polygon fill="#e0e0e0" stroke="#999999" points="1695,-19 1645,-19 1645,0 1695,0 1695,-19"/>
<text text-anchor="middle" x="1670" y="-7" font-family="Helvetica,sans-Serif" font-size="10.00">cstdint</text>
</a>
</g>
</g>
<!-- Node6&#45;&gt;Node8 -->
<g id="edge7_Node000006_Node000008" class="edge">
<title>Node6&#45;&gt;Node8</title>
<g id="a_edge7_Node000006_Node000008"><a xlink:title=" ">
<path fill="none" stroke="#63b8ff" d="M2184.52,-192.34C2177.26,-182.52 2165.31,-165.93 2156,-151 2130.21,-109.64 2143.65,-81.89 2103,-55 2037.98,-11.99 1796.49,-9.4 1705.23,-10.02"/>
<polygon fill="#63b8ff" stroke="#63b8ff" points="1705.09,-6.52 1695.12,-10.1 1705.15,-13.52 1705.09,-6.52"/>
</a>
</g>
</g>
<!-- Node10&#45;&gt;Node4 -->
<g id="edge12_Node000010_Node000004" class="edge">
<title>Node10&#45;&gt;Node4</title>
<g id="a_edge12_Node000010_Node000004"><a xlink:title=" ">
<path fill="none" stroke="#63b8ff" d="M1981.46,-252.85C1992.41,-236.16 2006.41,-208.03 1994,-187 1955.25,-121.33 1864.53,-90.26 1815.99,-77.89"/>
<polygon fill="#63b8ff" stroke="#63b8ff" points="1816.56,-74.43 1806.02,-75.46 1814.91,-81.23 1816.56,-74.43"/>
</a>
</g>
</g>
<!-- Node10&#45;&gt;Node6 -->
<g id="edge13_Node000010_Node000006" class="edge">
<title>Node10&#45;&gt;Node6</title>
<g id="a_edge13_Node000010_Node000006"><a xlink:title=" ">
<path fill="none" stroke="#63b8ff" d="M2019.28,-252.95C2059.05,-241.38 2114.74,-225.18 2151.79,-214.41"/>
<polygon fill="#63b8ff" stroke="#63b8ff" points="2153.1,-217.67 2161.72,-211.52 2151.14,-210.95 2153.1,-217.67"/>
</a>
</g>
</g>
<!-- Node10&#45;&gt;Node8 -->
<g id="edge10_Node000010_Node000008" class="edge">
<title>Node10&#45;&gt;Node8</title>
<g id="a_edge10_Node000010_Node000008"><a xlink:title=" ">
<path fill="none" stroke="#63b8ff" d="M1986.26,-252.84C1995.05,-243.61 2005.27,-230.74 2010,-217 2014.34,-204.39 2014.43,-199.58 2010,-187 1997.51,-151.51 1986.61,-144.2 1957,-121 1878.86,-59.77 1762.84,-29.19 1705.17,-17.04"/>
<polygon fill="#63b8ff" stroke="#63b8ff" points="1705.61,-13.56 1695.11,-14.98 1704.2,-20.42 1705.61,-13.56"/>
</a>
</g>
</g>
<!-- Node11 -->
<g id="Node000011" class="node">
<title>Node11</title>
<g id="a_Node000011"><a xlink:title=" ">
<polygon fill="#e0e0e0" stroke="#999999" points="1985,-211.5 1929,-211.5 1929,-192.5 1985,-192.5 1985,-211.5"/>
<text text-anchor="middle" x="1957" y="-199.5" font-family="Helvetica,sans-Serif" font-size="10.00">optional</text>
</a>
</g>
</g>
<!-- Node10&#45;&gt;Node11 -->
<g id="edge11_Node000010_Node000011" class="edge">
<title>Node10&#45;&gt;Node11</title>
<g id="a_edge11_Node000010_Node000011"><a xlink:title=" ">
<path fill="none" stroke="#63b8ff" d="M1967.89,-252.8C1965.9,-243.7 1963.3,-231.79 1961.13,-221.9"/>
<polygon fill="#63b8ff" stroke="#63b8ff" points="1964.49,-220.87 1958.93,-211.84 1957.65,-222.36 1964.49,-220.87"/>
</a>
</g>
</g>
<!-- Node12&#45;&gt;Node3 -->
<g id="edge17_Node000012_Node000003" class="edge">
<title>Node12&#45;&gt;Node3</title>
<g id="a_edge17_Node000012_Node000003"><a xlink:title=" ">
<path fill="none" stroke="#63b8ff" d="M528.13,-318.94C490.57,-296.52 391.28,-232.16 341,-151 329.32,-132.16 324.09,-106.95 321.78,-89.9"/>
<polygon fill="#63b8ff" stroke="#63b8ff" points="325.21,-89.12 320.6,-79.59 318.26,-89.92 325.21,-89.12"/>
</a>
</g>
</g>
<!-- Node12&#45;&gt;Node5 -->
<g id="edge19_Node000012_Node000005" class="edge">
<title>Node12&#45;&gt;Node5</title>
<g id="a_edge19_Node000012_Node000005"><a xlink:title=" ">
<path fill="none" stroke="#63b8ff" d="M514.82,-318.98C456.53,-299.73 323.13,-246.91 263,-151 251.36,-132.43 247.57,-107.16 246.41,-90.03"/>
<polygon fill="#63b8ff" stroke="#63b8ff" points="249.89,-89.49 245.95,-79.65 242.89,-89.8 249.89,-89.49"/>
</a>
</g>
</g>
<!-- Node12&#45;&gt;Node9 -->
<g id="edge20_Node000012_Node000009" class="edge">
<title>Node12&#45;&gt;Node9</title>
<g id="a_edge20_Node000012_Node000009"><a xlink:title=" ">
<path fill="none" stroke="#63b8ff" d="M545.23,-318.77C551.62,-293.19 569.96,-216.18 576,-151 577.23,-137.72 576.4,-134.33 576,-121 575.69,-110.74 575.03,-99.32 574.41,-89.98"/>
<polygon fill="#63b8ff" stroke="#63b8ff" points="577.89,-89.57 573.69,-79.84 570.9,-90.07 577.89,-89.57"/>
</a>
</g>
</g>
<!-- Node13 -->
<g id="Node000013" class="node">
<title>Node13</title>
<g id="a_Node000013"><a xlink:title=" ">
<polygon fill="#e0e0e0" stroke="#999999" points="890.5,-79.5 825.5,-79.5 825.5,-60.5 890.5,-60.5 890.5,-79.5"/>
<text text-anchor="middle" x="858" y="-67.5" font-family="Helvetica,sans-Serif" font-size="10.00">functional</text>
</a>
</g>
</g>
<!-- Node12&#45;&gt;Node13 -->
<g id="edge15_Node000012_Node000013" class="edge">
<title>Node12&#45;&gt;Node13</title>
<g id="a_edge15_Node000012_Node000013"><a xlink:title=" ">
<path fill="none" stroke="#63b8ff" d="M562.24,-318.87C579.59,-310.7 605.45,-297.55 626,-283 715.41,-219.67 807.3,-125.25 842.77,-87.48"/>
<polygon fill="#63b8ff" stroke="#63b8ff" points="845.56,-89.62 849.82,-79.92 840.44,-84.84 845.56,-89.62"/>
</a>
</g>
</g>
<!-- Node14 -->
<g id="Node000014" class="node">
<title>Node14</title>
<g id="a_Node000014"><a xlink:title=" ">
<polygon fill="#e0e0e0" stroke="#999999" points="617,-277.5 571,-277.5 571,-258.5 617,-258.5 617,-277.5"/>
<text text-anchor="middle" x="594" y="-265.5" font-family="Helvetica,sans-Serif" font-size="10.00">future</text>
</a>
</g>
</g>
<!-- Node12&#45;&gt;Node14 -->
<g id="edge16_Node000012_Node000014" class="edge">
<title>Node12&#45;&gt;Node14</title>
<g id="a_edge16_Node000012_Node000014"><a xlink:title=" ">
<path fill="none" stroke="#63b8ff" d="M550.53,-318.87C558.21,-310.05 570.32,-296.16 579.81,-285.27"/>
<polygon fill="#63b8ff" stroke="#63b8ff" points="582.51,-287.51 586.44,-277.67 577.23,-282.91 582.51,-287.51"/>
</a>
</g>
</g>
<!-- Node15 -->
<g id="Node000015" class="node">
<title>Node15</title>
<g id="a_Node000015"><a xlink:title=" ">
<polygon fill="#e0e0e0" stroke="#999999" points="1500.5,-79.5 1427.5,-79.5 1427.5,-60.5 1500.5,-60.5 1500.5,-79.5"/>
<text text-anchor="middle" x="1464" y="-67.5" font-family="Helvetica,sans-Serif" font-size="10.00">string_view</text>
</a>
</g>
</g>
<!-- Node12&#45;&gt;Node15 -->
<g id="edge18_Node000012_Node000015" class="edge">
<title>Node12&#45;&gt;Node15</title>
<g id="a_edge18_Node000012_Node000015"><a xlink:title=" ">
<path fill="none" stroke="#63b8ff" d="M617.65,-328.06C755.12,-328.02 1057.21,-322.86 1308,-283 1421.92,-264.89 1453.69,-264.06 1559,-217 1607.62,-195.27 1633.76,-197.89 1659,-151 1690.6,-92.27 1578.38,-76.62 1511.1,-72.47"/>
<polygon fill="#63b8ff" stroke="#63b8ff" points="1510.89,-68.95 1500.71,-71.9 1510.5,-75.94 1510.89,-68.95"/>
</a>
</g>
</g>
<!-- Node16 -->
<g id="Node000016" class="node">
<title>Node16</title>
<g id="a_Node000016"><a xlink:href="iframer_8hpp.html" target="_top" xlink:title=" ">
<polygon fill="white" stroke="#666666" points="495.5,-145.5 350.5,-145.5 350.5,-126.5 495.5,-126.5 495.5,-145.5"/>
<text text-anchor="middle" x="423" y="-133.5" font-family="Helvetica,sans-Serif" font-size="10.00">unilink/framer/iframer.hpp</text>
</a>
</g>
</g>
<!-- Node12&#45;&gt;Node16 -->
<g id="edge21_Node000012_Node000016" class="edge">
<title>Node12&#45;&gt;Node16</title>
<g id="a_edge21_Node000012_Node000016"><a xlink:title=" ">
<path fill="none" stroke="#63b8ff" d="M537.53,-318.82C519.1,-289.56 459.03,-194.19 434.05,-154.54"/>
<polygon fill="#63b8ff" stroke="#63b8ff" points="436.79,-152.33 428.5,-145.73 430.87,-156.06 436.79,-152.33"/>
</a>
</g>
</g>
<!-- Node20 -->
<g id="Node000020" class="node">
<title>Node20</title>
<g id="a_Node000020"><a xlink:href="context_8hpp.html" target="_top" xlink:title=" ">
<polygon fill="white" stroke="#666666" points="1298.5,-277.5 1145.5,-277.5 1145.5,-258.5 1298.5,-258.5 1298.5,-277.5"/>
<text text-anchor="middle" x="1222" y="-265.5" font-family="Helvetica,sans-Serif" font-size="10.00">unilink/wrapper/context.hpp</text>
</a>
</g>
</g>
<!-- Node12&#45;&gt;Node20 -->
<g id="edge30_Node000012_Node000020" class="edge">
<title>Node12&#45;&gt;Node20</title>
<g id="a_edge30_Node000012_Node000020"><a xlink:title=" ">
<path fill="none" stroke="#63b8ff" d="M617.61,-321.07C744.27,-310.16 1000.69,-288.07 1135.19,-276.48"/>
<polygon fill="#63b8ff" stroke="#63b8ff" points="1135.79,-279.94 1145.45,-275.6 1135.19,-272.97 1135.79,-279.94"/>
</a>
</g>
</g>
<!-- Node16&#45;&gt;Node3 -->
<g id="edge23_Node000016_Node000003" class="edge">
<title>Node16&#45;&gt;Node3</title>
<g id="a_edge23_Node000016_Node000003"><a xlink:title=" ">
<path fill="none" stroke="#63b8ff" d="M409.11,-126.37C392.06,-115.78 362.93,-97.67 342.63,-85.06"/>
<polygon fill="#63b8ff" stroke="#63b8ff" points="344.34,-82 334,-79.7 340.65,-87.95 344.34,-82"/>
</a>
</g>
</g>
<!-- Node16&#45;&gt;Node5 -->
<g id="edge24_Node000016_Node000005" class="edge">
<title>Node16&#45;&gt;Node5</title>
<g id="a_edge24_Node000016_Node000005"><a xlink:title=" ">
<path fill="none" stroke="#63b8ff" d="M398.21,-126.46C369.99,-116.68 322.54,-100.07 282,-85 280.4,-84.41 278.76,-83.79 277.11,-83.17"/>
<polygon fill="#63b8ff" stroke="#63b8ff" points="278.25,-79.85 267.66,-79.55 275.75,-86.39 278.25,-79.85"/>
</a>
</g>
</g>
<!-- Node16&#45;&gt;Node9 -->
<g id="edge25_Node000016_Node000009" class="edge">
<title>Node16&#45;&gt;Node9</title>
<g id="a_edge25_Node000016_Node000009"><a xlink:title=" ">
<path fill="none" stroke="#63b8ff" d="M443.23,-126.37C468.95,-115.39 513.57,-96.36 543.19,-83.72"/>
<polygon fill="#63b8ff" stroke="#63b8ff" points="544.79,-86.84 552.61,-79.7 542.04,-80.4 544.79,-86.84"/>
</a>
</g>
</g>
<!-- Node16&#45;&gt;Node13 -->
<g id="edge22_Node000016_Node000013" class="edge">
<title>Node16&#45;&gt;Node13</title>
<g id="a_edge22_Node000016_Node000013"><a xlink:title=" ">
<path fill="none" stroke="#63b8ff" d="M488.2,-126.48C559.48,-117.01 677.02,-100.94 778,-85 790.19,-83.08 803.39,-80.83 815.49,-78.71"/>
<polygon fill="#63b8ff" stroke="#63b8ff" points="816.11,-82.16 825.35,-76.97 814.89,-75.26 816.11,-82.16"/>
</a>
</g>
</g>
<!-- Node17 -->
<g id="Node000017" class="node">
<title>Node17</title>
<g id="a_Node000017"><a xlink:href="safe__span_8hpp.html" target="_top" xlink:title=" ">
<polygon fill="white" stroke="#666666" points="485,-85 367,-85 367,-55 485,-55 485,-85"/>
<text text-anchor="start" x="375" y="-73" font-family="Helvetica,sans-Serif" font-size="10.00">unilink/memory/safe</text>
<text text-anchor="middle" x="426" y="-62" font-family="Helvetica,sans-Serif" font-size="10.00">_span.hpp</text>
</a>
</g>
</g>
<!-- Node16&#45;&gt;Node17 -->
<g id="edge26_Node000016_Node000017" class="edge">
<title>Node16&#45;&gt;Node17</title>
<g id="a_edge26_Node000016_Node000017"><a xlink:title=" ">
<path fill="none" stroke="#63b8ff" d="M423.4,-126.37C423.77,-118.49 424.34,-106.45 424.85,-95.6"/>
<polygon fill="#63b8ff" stroke="#63b8ff" points="428.35,-95.51 425.33,-85.36 421.36,-95.19 428.35,-95.51"/>
</a>
</g>
</g>
<!-- Node17&#45;&gt;Node8 -->
<g id="edge27_Node000017_Node000008" class="edge">
<title>Node17&#45;&gt;Node8</title>
<g id="a_edge27_Node000017_Node000008"><a xlink:title=" ">
<path fill="none" stroke="#63b8ff" d="M485.24,-56.2C488.2,-55.75 491.13,-55.35 494,-55 723.1,-27.27 1463.62,-13.83 1634.56,-11.05"/>
<polygon fill="#63b8ff" stroke="#63b8ff" points="1634.82,-14.55 1644.76,-10.89 1634.71,-7.55 1634.82,-14.55"/>
</a>
</g>
</g>
<!-- Node18 -->
<g id="Node000018" class="node">
<title>Node18</title>
<g id="a_Node000018"><a xlink:title=" ">
<polygon fill="#e0e0e0" stroke="#999999" points="446,-19 406,-19 406,0 446,0 446,-19"/>
<text text-anchor="middle" x="426" y="-7" font-family="Helvetica,sans-Serif" font-size="10.00">span</text>
</a>
</g>
</g>
<!-- Node17&#45;&gt;Node18 -->
<g id="edge28_Node000017_Node000018" class="edge">
<title>Node17&#45;&gt;Node18</title>
<g id="a_edge28_Node000017_Node000018"><a xlink:title=" ">
<path fill="none" stroke="#63b8ff" d="M426,-54.84C426,-47.21 426,-37.7 426,-29.45"/>
<polygon fill="#63b8ff" stroke="#63b8ff" points="429.5,-29.27 426,-19.27 422.5,-29.27 429.5,-29.27"/>
</a>
</g>
</g>
<!-- Node19 -->
<g id="Node000019" class="node">
<title>Node19</title>
<g id="a_Node000019"><a xlink:title=" ">
<polygon fill="#e0e0e0" stroke="#999999" points="703.5,-19 638.5,-19 638.5,0 703.5,0 703.5,-19"/>
<text text-anchor="middle" x="671" y="-7" font-family="Helvetica,sans-Serif" font-size="10.00">stdexcept</text>
</a>
</g>
</g>
<!-- Node17&#45;&gt;Node19 -->
<g id="edge29_Node000017_Node000019" class="edge">
<title>Node17&#45;&gt;Node19</title>
<g id="a_edge29_Node000017_Node000019"><a xlink:title=" ">
<path fill="none" stroke="#63b8ff" d="M484.68,-54.99C528.96,-44.42 588.67,-30.16 628.44,-20.66"/>
<polygon fill="#63b8ff" stroke="#63b8ff" points="629.43,-24.02 638.34,-18.3 627.8,-17.22 629.43,-24.02"/>
</a>
</g>
</g>
<!-- Node20&#45;&gt;Node4 -->
<g id="edge32_Node000020_Node000004" class="edge">
<title>Node20&#45;&gt;Node4</title>
<g id="a_edge32_Node000020_Node000004"><a xlink:title=" ">
<path fill="none" stroke="#63b8ff" d="M1298.7,-260.9C1367.71,-254.16 1471.43,-240.96 1559,-217 1633.99,-196.48 1658.89,-197.76 1721,-151 1743.88,-133.78 1763.03,-106.31 1774.01,-88.47"/>
<polygon fill="#63b8ff" stroke="#63b8ff" points="1777.14,-90.06 1779.24,-79.67 1771.12,-86.48 1777.14,-90.06"/>
</a>
</g>
</g>
<!-- Node20&#45;&gt;Node5 -->
<g id="edge34_Node000020_Node000005" class="edge">
<title>Node20&#45;&gt;Node5</title>
<g id="a_edge34_Node000020_Node000005"><a xlink:title=" ">
<path fill="none" stroke="#63b8ff" d="M1145.31,-266.21C948.39,-262.84 430.74,-245.02 292,-151 270.49,-136.42 257.77,-108.21 251.34,-89.49"/>
<polygon fill="#63b8ff" stroke="#63b8ff" points="254.61,-88.22 248.26,-79.74 247.93,-90.33 254.61,-88.22"/>
</a>
</g>
</g>
<!-- Node20&#45;&gt;Node11 -->
<g id="edge31_Node000020_Node000011" class="edge">
<title>Node20&#45;&gt;Node11</title>
<g id="a_edge31_Node000020_Node000011"><a xlink:title=" ">
<path fill="none" stroke="#63b8ff" d="M1298.7,-264.31C1454.57,-258.38 1803.42,-242.66 1920,-217 1922.52,-216.44 1925.1,-215.75 1927.67,-214.97"/>
<polygon fill="#63b8ff" stroke="#63b8ff" points="1929.03,-218.2 1937.35,-211.64 1926.76,-211.58 1929.03,-218.2"/>
</a>
</g>
</g>
<!-- Node20&#45;&gt;Node15 -->
<g id="edge33_Node000020_Node000015" class="edge">
<title>Node20&#45;&gt;Node15</title>
<g id="a_edge33_Node000020_Node000015"><a xlink:title=" ">
<path fill="none" stroke="#63b8ff" d="M1288.18,-258.47C1395.35,-243.14 1599.22,-207.2 1642,-151 1679.11,-102.25 1574.98,-82.46 1510.63,-75.03"/>
<polygon fill="#63b8ff" stroke="#63b8ff" points="1510.99,-71.55 1500.67,-73.95 1510.23,-78.51 1510.99,-71.55"/>
</a>
</g>
</g>
<!-- Node20&#45;&gt;Node17 -->
<g id="edge75_Node000020_Node000017" class="edge">
<title>Node20&#45;&gt;Node17</title>
<g id="a_edge75_Node000020_Node000017"><a xlink:title=" ">
<path fill="none" stroke="#63b8ff" d="M1146.75,-258.47C1031.19,-244.05 803.97,-210.46 619,-151 564.25,-133.4 503.28,-106.91 464.8,-89.3"/>
<polygon fill="#63b8ff" stroke="#63b8ff" points="466.07,-86.03 455.52,-85.02 463.14,-92.38 466.07,-86.03"/>
</a>
</g>
</g>
<!-- Node21 -->
<g id="Node000021" class="node">
<title>Node21</title>
<g id="a_Node000021"><a xlink:href="common_8hpp.html" target="_top" xlink:title=" ">
<polygon fill="white" stroke="#666666" points="1293.5,-211.5 1150.5,-211.5 1150.5,-192.5 1293.5,-192.5 1293.5,-211.5"/>
<text text-anchor="middle" x="1222" y="-199.5" font-family="Helvetica,sans-Serif" font-size="10.00">unilink/base/common.hpp</text>
</a>
</g>
</g>
<!-- Node20&#45;&gt;Node21 -->
<g id="edge35_Node000020_Node000021" class="edge">
<title>Node20&#45;&gt;Node21</title>
<g id="a_edge35_Node000020_Node000021"><a xlink:title=" ">
<path fill="none" stroke="#63b8ff" d="M1222,-258.37C1222,-249.16 1222,-234.29 1222,-222.27"/>
<polygon fill="#63b8ff" stroke="#63b8ff" points="1225.5,-221.91 1222,-211.91 1218.5,-221.91 1225.5,-221.91"/>
</a>
</g>
</g>
<!-- Node33 -->
<g id="Node000033" class="node">
<title>Node33</title>
<g id="a_Node000033"><a xlink:href="error__codes_8hpp.html" target="_top" xlink:title=" ">
<polygon fill="white" stroke="#666666" points="1911,-217 1809,-217 1809,-187 1911,-187 1911,-217"/>
<text text-anchor="start" x="1817" y="-205" font-family="Helvetica,sans-Serif" font-size="10.00">unilink/base/error</text>
<text text-anchor="middle" x="1860" y="-194" font-family="Helvetica,sans-Serif" font-size="10.00">_codes.hpp</text>
</a>
</g>
</g>
<!-- Node20&#45;&gt;Node33 -->
<g id="edge62_Node000020_Node000033" class="edge">
<title>Node20&#45;&gt;Node33</title>
<g id="a_edge62_Node000020_Node000033"><a xlink:title=" ">
<path fill="none" stroke="#63b8ff" d="M1298.74,-260.85C1402.73,-252.27 1594.12,-235.67 1757,-217 1770.5,-215.45 1784.97,-213.6 1798.67,-211.77"/>
<polygon fill="#63b8ff" stroke="#63b8ff" points="1799.53,-215.18 1808.97,-210.37 1798.59,-208.24 1799.53,-215.18"/>
</a>
</g>
</g>
<!-- Node34 -->
<g id="Node000034" class="node">
<title>Node34</title>
<g id="a_Node000034"><a xlink:href="safe__data__buffer_8hpp.html" target="_top" xlink:title=" ">
<polygon fill="white" stroke="#666666" points="746,-151 628,-151 628,-121 746,-121 746,-151"/>
<text text-anchor="start" x="636" y="-139" font-family="Helvetica,sans-Serif" font-size="10.00">unilink/memory/safe</text>
<text text-anchor="middle" x="687" y="-128" font-family="Helvetica,sans-Serif" font-size="10.00">_data_buffer.hpp</text>
</a>
</g>
</g>
<!-- Node20&#45;&gt;Node34 -->
<g id="edge64_Node000020_Node000034" class="edge">
<title>Node20&#45;&gt;Node34</title>
<g id="a_edge64_Node000020_Node000034"><a xlink:title=" ">
<path fill="none" stroke="#63b8ff" d="M1186.9,-258.47C1099.25,-237.17 869.63,-181.38 754.65,-153.44"/>
<polygon fill="#63b8ff" stroke="#63b8ff" points="755.43,-150.03 744.89,-151.07 753.78,-156.83 755.43,-150.03"/>
</a>
</g>
</g>
<!-- Node21&#45;&gt;Node4 -->
<g id="edge45_Node000021_Node000004" class="edge">
<title>Node21&#45;&gt;Node4</title>
<g id="a_edge45_Node000021_Node000004"><a xlink:title=" ">
<path fill="none" stroke="#63b8ff" d="M1293.89,-198.12C1405.6,-192.83 1615.2,-179.38 1684,-151 1718.91,-136.6 1751.52,-106.09 1769.51,-87.18"/>
<polygon fill="#63b8ff" stroke="#63b8ff" points="1772.27,-89.36 1776.5,-79.65 1767.13,-84.6 1772.27,-89.36"/>
</a>
</g>
</g>
<!-- Node21&#45;&gt;Node5 -->
<g id="edge48_Node000021_Node000005" class="edge">
<title>Node21&#45;&gt;Node5</title>
<g id="a_edge48_Node000021_Node000005"><a xlink:title=" ">
<path fill="none" stroke="#63b8ff" d="M1150.28,-199.53C953.58,-195.13 415.25,-180.51 341,-151 306.79,-137.4 275.96,-106.36 259.21,-87.19"/>
<polygon fill="#63b8ff" stroke="#63b8ff" points="261.87,-84.92 252.74,-79.55 256.53,-89.44 261.87,-84.92"/>
</a>
</g>
</g>
<!-- Node21&#45;&gt;Node8 -->
<g id="edge37_Node000021_Node000008" class="edge">
<title>Node21&#45;&gt;Node8</title>
<g id="a_edge37_Node000021_Node000008"><a xlink:title=" ">
<path fill="none" stroke="#63b8ff" d="M1293.87,-197C1407.14,-190.03 1616.96,-174.15 1642,-151 1676,-119.56 1675.35,-59.52 1672.47,-29.12"/>
<polygon fill="#63b8ff" stroke="#63b8ff" points="1675.93,-28.58 1671.33,-19.04 1668.98,-29.38 1675.93,-28.58"/>
</a>
</g>
</g>
<!-- Node21&#45;&gt;Node13 -->
<g id="edge40_Node000021_Node000013" class="edge">
<title>Node21&#45;&gt;Node13</title>
<g id="a_edge40_Node000021_Node000013"><a xlink:title=" ">
<path fill="none" stroke="#63b8ff" d="M1150.28,-196.76C1044.37,-189.75 856.38,-174.19 836,-151 820.45,-133.31 833.74,-105.58 845.37,-87.86"/>
<polygon fill="#63b8ff" stroke="#63b8ff" points="848.28,-89.81 851.14,-79.6 842.54,-85.79 848.28,-89.81"/>
</a>
</g>
</g>
<!-- Node21&#45;&gt;Node15 -->
<g id="edge46_Node000021_Node000015" class="edge">
<title>Node21&#45;&gt;Node15</title>
<g id="a_edge46_Node000021_Node000015"><a xlink:title=" ">
<path fill="none" stroke="#63b8ff" d="M1293.58,-193.21C1350.42,-185.57 1423.76,-171.98 1445,-151 1461.07,-135.13 1464.54,-108.31 1464.84,-90.14"/>
<polygon fill="#63b8ff" stroke="#63b8ff" points="1468.33,-89.84 1464.69,-79.89 1461.33,-89.94 1468.33,-89.84"/>
</a>
</g>
</g>
<!-- Node21&#45;&gt;Node19 -->
<g id="edge44_Node000021_Node000019" class="edge">
<title>Node21&#45;&gt;Node19</title>
<g id="a_edge44_Node000021_Node000019"><a xlink:title=" ">
<path fill="none" stroke="#63b8ff" d="M1150.2,-201.45C1057.73,-200.31 904.66,-192.07 869,-151 839.6,-117.15 928.52,-89.6 900,-55 876.91,-26.99 773.9,-16.39 714.19,-12.55"/>
<polygon fill="#63b8ff" stroke="#63b8ff" points="714.13,-9.04 703.93,-11.93 713.7,-16.03 714.13,-9.04"/>
</a>
</g>
</g>
<!-- Node22 -->
<g id="Node000022" class="node">
<title>Node22</title>
<g id="a_Node000022"><a xlink:title=" ">
<polygon fill="#e0e0e0" stroke="#999999" points="1407,-79.5 1357,-79.5 1357,-60.5 1407,-60.5 1407,-79.5"/>
<text text-anchor="middle" x="1382" y="-67.5" font-family="Helvetica,sans-Serif" font-size="10.00">chrono</text>
</a>
</g>
</g>
<!-- Node21&#45;&gt;Node22 -->
<g id="edge36_Node000021_Node000022" class="edge">
<title>Node21&#45;&gt;Node22</title>
<g id="a_edge36_Node000021_Node000022"><a xlink:title=" ">
<path fill="none" stroke="#63b8ff" d="M1293.76,-196.88C1400.88,-190 1592.28,-174.53 1613,-151 1705.95,-45.41 1758.56,-179.93 1419,-85 1416.71,-84.36 1414.37,-83.64 1412.02,-82.87"/>
<polygon fill="#63b8ff" stroke="#63b8ff" points="1413.12,-79.54 1402.53,-79.51 1410.79,-86.14 1413.12,-79.54"/>
</a>
</g>
</g>
<!-- Node23 -->
<g id="Node000023" class="node">
<title>Node23</title>
<g id="a_Node000023"><a xlink:title=" ">
<polygon fill="#e0e0e0" stroke="#999999" points="1542,-145.5 1492,-145.5 1492,-126.5 1542,-126.5 1542,-145.5"/>
<text text-anchor="middle" x="1517" y="-133.5" font-family="Helvetica,sans-Serif" font-size="10.00">cstring</text>
</a>
</g>
</g>
<!-- Node21&#45;&gt;Node23 -->
<g id="edge38_Node000021_Node000023" class="edge">
<title>Node21&#45;&gt;Node23</title>
<g id="a_edge38_Node000021_Node000023"><a xlink:title=" ">
<path fill="none" stroke="#63b8ff" d="M1278.5,-192.5C1330.76,-184.04 1410.33,-169.64 1478,-151 1480.43,-150.33 1482.92,-149.58 1485.41,-148.79"/>
<polygon fill="#63b8ff" stroke="#63b8ff" points="1486.56,-152.1 1494.91,-145.59 1484.32,-145.47 1486.56,-152.1"/>
</a>
</g>
</g>
<!-- Node24 -->
<g id="Node000024" class="node">
<title>Node24</title>
<g id="a_Node000024"><a xlink:title=" ">
<polygon fill="#e0e0e0" stroke="#999999" points="1604,-145.5 1560,-145.5 1560,-126.5 1604,-126.5 1604,-145.5"/>
<text text-anchor="middle" x="1582" y="-133.5" font-family="Helvetica,sans-Serif" font-size="10.00">ctime</text>
</a>
</g>
</g>
<!-- Node21&#45;&gt;Node24 -->
<g id="edge39_Node000021_Node000024" class="edge">
<title>Node21&#45;&gt;Node24</title>
<g id="a_edge39_Node000021_Node000024"><a xlink:title=" ">
<path fill="none" stroke="#63b8ff" d="M1293.82,-195.77C1361.31,-189.53 1464.57,-176.56 1551,-151 1552.64,-150.52 1554.3,-149.96 1555.96,-149.36"/>
<polygon fill="#63b8ff" stroke="#63b8ff" points="1557.33,-152.58 1565.26,-145.56 1554.68,-146.1 1557.33,-152.58"/>
</a>
</g>
</g>
<!-- Node25 -->
<g id="Node000025" class="node">
<title>Node25</title>
<g id="a_Node000025"><a xlink:title=" ">
<polygon fill="#e0e0e0" stroke="#999999" points="934,-145.5 878,-145.5 878,-126.5 934,-126.5 934,-145.5"/>
<text text-anchor="middle" x="906" y="-133.5" font-family="Helvetica,sans-Serif" font-size="10.00">iomanip</text>
</a>
</g>
</g>
<!-- Node21&#45;&gt;Node25 -->
<g id="edge41_Node000021_Node000025" class="edge">
<title>Node21&#45;&gt;Node25</title>
<g id="a_edge41_Node000021_Node000025"><a xlink:title=" ">
<path fill="none" stroke="#63b8ff" d="M1154.71,-192.49C1097.71,-184.44 1014.15,-170.65 943,-151 940.71,-150.37 938.36,-149.65 936.02,-148.88"/>
<polygon fill="#63b8ff" stroke="#63b8ff" points="937.11,-145.56 926.52,-145.53 934.79,-152.16 937.11,-145.56"/>
</a>
</g>
</g>
<!-- Node26 -->
<g id="Node000026" class="node">
<title>Node26</title>
<g id="a_Node000026"><a xlink:title=" ">
<polygon fill="#e0e0e0" stroke="#999999" points="1012,-145.5 952,-145.5 952,-126.5 1012,-126.5 1012,-145.5"/>
<text text-anchor="middle" x="982" y="-133.5" font-family="Helvetica,sans-Serif" font-size="10.00">iostream</text>
</a>
</g>
</g>
<!-- Node21&#45;&gt;Node26 -->
<g id="edge42_Node000021_Node000026" class="edge">
<title>Node21&#45;&gt;Node26</title>
<g id="a_edge42_Node000021_Node000026"><a xlink:title=" ">
<path fill="none" stroke="#63b8ff" d="M1182.77,-192.48C1142.03,-183.33 1076.58,-167.84 1021,-151 1018.73,-150.31 1016.41,-149.57 1014.07,-148.8"/>
<polygon fill="#63b8ff" stroke="#63b8ff" points="1015.15,-145.47 1004.56,-145.53 1012.88,-152.09 1015.15,-145.47"/>
</a>
</g>
</g>
<!-- Node27 -->
<g id="Node000027" class="node">
<title>Node27</title>
<g id="a_Node000027"><a xlink:title=" ">
<polygon fill="#e0e0e0" stroke="#999999" points="1086,-145.5 1030,-145.5 1030,-126.5 1086,-126.5 1086,-145.5"/>
<text text-anchor="middle" x="1058" y="-133.5" font-family="Helvetica,sans-Serif" font-size="10.00">sstream</text>
</a>
</g>
</g>
<!-- Node21&#45;&gt;Node27 -->
<g id="edge43_Node000021_Node000027" class="edge">
<title>Node21&#45;&gt;Node27</title>
<g id="a_edge43_Node000021_Node000027"><a xlink:title=" ">
<path fill="none" stroke="#63b8ff" d="M1199.88,-192.37C1171.44,-181.27 1121.85,-161.92 1089.48,-149.28"/>
<polygon fill="#63b8ff" stroke="#63b8ff" points="1090.62,-145.97 1080.03,-145.6 1088.07,-152.49 1090.62,-145.97"/>
</a>
</g>
</g>
<!-- Node28 -->
<g id="Node000028" class="node">
<title>Node28</title>
<g id="a_Node000028"><a xlink:title=" ">
<polygon fill="#e0e0e0" stroke="#999999" points="1149.5,-145.5 1104.5,-145.5 1104.5,-126.5 1149.5,-126.5 1149.5,-145.5"/>
<text text-anchor="middle" x="1127" y="-133.5" font-family="Helvetica,sans-Serif" font-size="10.00">utility</text>
</a>
</g>
</g>
<!-- Node21&#45;&gt;Node28 -->
<g id="edge47_Node000021_Node000028" class="edge">
<title>Node21&#45;&gt;Node28</title>
<g id="a_edge47_Node000021_Node000028"><a xlink:title=" ">
<path fill="none" stroke="#63b8ff" d="M1209.19,-192.37C1193.61,-181.87 1167.07,-164 1148.38,-151.4"/>
<polygon fill="#63b8ff" stroke="#63b8ff" points="1150.16,-148.38 1139.91,-145.7 1146.25,-154.19 1150.16,-148.38"/>
</a>
</g>
</g>
<!-- Node29 -->
<g id="Node000029" class="node">
<title>Node29</title>
<g id="a_Node000029"><a xlink:href="platform_8hpp.html" target="_top" xlink:title=" ">
<polygon fill="white" stroke="#666666" points="1436,-145.5 1294,-145.5 1294,-126.5 1436,-126.5 1436,-145.5"/>
<text text-anchor="middle" x="1365" y="-133.5" font-family="Helvetica,sans-Serif" font-size="10.00">unilink/base/platform.hpp</text>
</a>
</g>
</g>
<!-- Node21&#45;&gt;Node29 -->
<g id="edge49_Node000021_Node000029" class="edge">
<title>Node21&#45;&gt;Node29</title>
<g id="a_edge49_Node000021_Node000029"><a xlink:title=" ">
<path fill="none" stroke="#63b8ff" d="M1241.29,-192.37C1265.7,-181.44 1307.97,-162.52 1336.21,-149.88"/>
<polygon fill="#63b8ff" stroke="#63b8ff" points="1337.87,-152.98 1345.56,-145.7 1335.01,-146.59 1337.87,-152.98"/>
</a>
</g>
</g>
<!-- Node30 -->
<g id="Node000030" class="node">
<title>Node30</title>
<g id="a_Node000030"><a xlink:href="logger_8hpp.html" target="_top" xlink:title=" ">
<polygon fill="white" stroke="#666666" points="1276,-151 1168,-151 1168,-121 1276,-121 1276,-151"/>
<text text-anchor="start" x="1176" y="-139" font-family="Helvetica,sans-Serif" font-size="10.00">unilink/diagnostics</text>
<text text-anchor="middle" x="1222" y="-128" font-family="Helvetica,sans-Serif" font-size="10.00">/logger.hpp</text>
</a>
</g>
</g>
<!-- Node21&#45;&gt;Node30 -->
<g id="edge52_Node000021_Node000030" class="edge">
<title>Node21&#45;&gt;Node30</title>
<g id="a_edge52_Node000021_Node000030"><a xlink:title=" ">
<path fill="none" stroke="#63b8ff" d="M1222,-192.37C1222,-184.49 1222,-172.45 1222,-161.6"/>
<polygon fill="#63b8ff" stroke="#63b8ff" points="1225.5,-161.36 1222,-151.36 1218.5,-161.36 1225.5,-161.36"/>
</a>
</g>
</g>
<!-- Node29&#45;&gt;Node4 -->
<g id="edge50_Node000029_Node000004" class="edge">
<title>Node29&#45;&gt;Node4</title>
<g id="a_edge50_Node000029_Node000004"><a xlink:title=" ">
<path fill="none" stroke="#63b8ff" d="M1421.07,-126.44C1509.95,-112.86 1680.36,-86.83 1751.53,-75.96"/>
<polygon fill="#63b8ff" stroke="#63b8ff" points="1752.32,-79.38 1761.68,-74.41 1751.26,-72.46 1752.32,-79.38"/>
</a>
</g>
</g>
<!-- Node29&#45;&gt;Node9 -->
<g id="edge51_Node000029_Node000009" class="edge">
<title>Node29&#45;&gt;Node9</title>
<g id="a_edge51_Node000029_Node000009"><a xlink:title=" ">
<path fill="none" stroke="#63b8ff" d="M1321.53,-126.48C1309.72,-124.41 1296.9,-122.4 1285,-121 1022.32,-90.16 954.43,-108.59 691,-85 677.44,-83.79 663.03,-82.27 649.11,-80.68"/>
<polygon fill="#63b8ff" stroke="#63b8ff" points="649.42,-77.19 639.08,-79.52 648.61,-84.15 649.42,-77.19"/>
</a>
</g>
</g>
<!-- Node30&#45;&gt;Node3 -->
<g id="edge56_Node000030_Node000003" class="edge">
<title>Node30&#45;&gt;Node3</title>
<g id="a_edge56_Node000030_Node000003"><a xlink:title=" ">
<path fill="none" stroke="#63b8ff" d="M1167.81,-122.33C1164.84,-121.83 1161.89,-121.38 1159,-121 805.73,-74.17 707.33,-155.43 358,-85 355.16,-84.43 352.24,-83.67 349.36,-82.82"/>
<polygon fill="#63b8ff" stroke="#63b8ff" points="350.37,-79.47 339.78,-79.59 348.14,-86.1 350.37,-79.47"/>
</a>
</g>
</g>
<!-- Node30&#45;&gt;Node4 -->
<g id="edge58_Node000030_Node000004" class="edge">
<title>Node30&#45;&gt;Node4</title>
<g id="a_edge58_Node000030_Node000004"><a xlink:title=" ">
<path fill="none" stroke="#63b8ff" d="M1276.22,-122.52C1279.18,-121.97 1282.12,-121.46 1285,-121 1459.88,-92.91 1671.93,-77.89 1751.64,-72.91"/>
<polygon fill="#63b8ff" stroke="#63b8ff" points="1752.23,-76.38 1761.99,-72.27 1751.8,-69.39 1752.23,-76.38"/>
</a>
</g>
</g>
<!-- Node30&#45;&gt;Node5 -->
<g id="edge60_Node000030_Node000005" class="edge">
<title>Node30&#45;&gt;Node5</title>
<g id="a_edge60_Node000030_Node000005"><a xlink:title=" ">
<path fill="none" stroke="#63b8ff" d="M1167.81,-122.32C1164.84,-121.82 1161.89,-121.38 1159,-121 772.18,-70.49 663.86,-164.78 282,-85 279.47,-84.47 276.89,-83.79 274.33,-83"/>
<polygon fill="#63b8ff" stroke="#63b8ff" points="275.29,-79.63 264.7,-79.62 272.97,-86.23 275.29,-79.63"/>
</a>
</g>
</g>
<!-- Node30&#45;&gt;Node9 -->
<g id="edge61_Node000030_Node000009" class="edge">
<title>Node30&#45;&gt;Node9</title>
<g id="a_edge61_Node000030_Node000009"><a xlink:title=" ">
<path fill="none" stroke="#63b8ff" d="M1167.8,-122.44C1164.83,-121.91 1161.88,-121.43 1159,-121 952.66,-90.3 898.63,-105.29 691,-85 677.99,-83.73 664.2,-82.23 650.8,-80.69"/>
<polygon fill="#63b8ff" stroke="#63b8ff" points="650.99,-77.19 640.65,-79.51 650.18,-84.14 650.99,-77.19"/>
</a>
</g>
</g>
<!-- Node30&#45;&gt;Node13 -->
<g id="edge55_Node000030_Node000013" class="edge">
<title>Node30&#45;&gt;Node13</title>
<g id="a_edge55_Node000030_Node000013"><a xlink:title=" ">
<path fill="none" stroke="#63b8ff" d="M1167.74,-122.75C1164.79,-122.14 1161.86,-121.55 1159,-121 1067.26,-103.2 959.03,-86.19 900.59,-77.33"/>
<polygon fill="#63b8ff" stroke="#63b8ff" points="901.03,-73.86 890.62,-75.83 899.98,-80.78 901.03,-73.86"/>
</a>
</g>
</g>
<!-- Node30&#45;&gt;Node15 -->
<g id="edge59_Node000030_Node000015" class="edge">
<title>Node30&#45;&gt;Node15</title>
<g id="a_edge59_Node000030_Node000015"><a xlink:title=" ">
<path fill="none" stroke="#63b8ff" d="M1276.06,-121.55C1315.04,-111.74 1368.88,-97.94 1416,-85 1419.14,-84.14 1422.39,-83.23 1425.65,-82.3"/>
<polygon fill="#63b8ff" stroke="#63b8ff" points="1426.72,-85.64 1435.36,-79.51 1424.78,-78.91 1426.72,-85.64"/>
</a>
</g>
</g>
<!-- Node30&#45;&gt;Node22 -->
<g id="edge54_Node000030_Node000022" class="edge">
<title>Node30&#45;&gt;Node22</title>
<g id="a_edge54_Node000030_Node000022"><a xlink:title=" ">
<path fill="none" stroke="#63b8ff" d="M1257.11,-120.95C1285.3,-109.68 1324.47,-94.01 1351.39,-83.25"/>
<polygon fill="#63b8ff" stroke="#63b8ff" points="1352.72,-86.48 1360.71,-79.52 1350.12,-79.98 1352.72,-86.48"/>
</a>
</g>
</g>
<!-- Node31 -->
<g id="Node000031" class="node">
<title>Node31</title>
<g id="a_Node000031"><a xlink:title=" ">
<polygon fill="#e0e0e0" stroke="#999999" points="1292,-79.5 1242,-79.5 1242,-60.5 1292,-60.5 1292,-79.5"/>
<text text-anchor="middle" x="1267" y="-67.5" font-family="Helvetica,sans-Serif" font-size="10.00">atomic</text>
</a>
</g>
</g>
<!-- Node30&#45;&gt;Node31 -->
<g id="edge53_Node000030_Node000031" class="edge">
<title>Node30&#45;&gt;Node31</title>
<g id="a_edge53_Node000030_Node000031"><a xlink:title=" ">
<path fill="none" stroke="#63b8ff" d="M1231.99,-120.8C1238.73,-111.21 1247.66,-98.5 1254.82,-88.32"/>
<polygon fill="#63b8ff" stroke="#63b8ff" points="1257.89,-90.04 1260.78,-79.84 1252.17,-86.01 1257.89,-90.04"/>
</a>
</g>
</g>
<!-- Node32 -->
<g id="Node000032" class="node">
<title>Node32</title>
<g id="a_Node000032"><a xlink:title=" ">
<polygon fill="#e0e0e0" stroke="#999999" points="1223.5,-79.5 1130.5,-79.5 1130.5,-60.5 1223.5,-60.5 1223.5,-79.5"/>
<text text-anchor="middle" x="1177" y="-67.5" font-family="Helvetica,sans-Serif" font-size="10.00">source_location</text>
</a>
</g>
</g>
<!-- Node30&#45;&gt;Node32 -->
<g id="edge57_Node000030_Node000032" class="edge">
<title>Node30&#45;&gt;Node32</title>
<g id="a_edge57_Node000030_Node000032"><a xlink:title=" ">
<path fill="none" stroke="#63b8ff" d="M1212.01,-120.8C1205.27,-111.21 1196.34,-98.5 1189.18,-88.32"/>
<polygon fill="#63b8ff" stroke="#63b8ff" points="1191.83,-86.01 1183.22,-79.84 1186.11,-90.04 1191.83,-86.01"/>
</a>
</g>
</g>
<!-- Node33&#45;&gt;Node4 -->
<g id="edge63_Node000033_Node000004" class="edge">
<title>Node33&#45;&gt;Node4</title>
<g id="a_edge63_Node000033_Node000004"><a xlink:title=" ">
<path fill="none" stroke="#63b8ff" d="M1857.99,-186.81C1855.14,-170.08 1848.77,-141.91 1836,-121 1827.68,-107.37 1814.75,-94.92 1803.86,-85.85"/>
<polygon fill="#63b8ff" stroke="#63b8ff" points="1806.05,-83.11 1796.05,-79.61 1801.68,-88.58 1806.05,-83.11"/>
</a>
</g>
</g>
<!-- Node34&#45;&gt;Node3 -->
<g id="edge67_Node000034_Node000003" class="edge">
<title>Node34&#45;&gt;Node3</title>
<g id="a_edge67_Node000034_Node000003"><a xlink:title=" ">
<path fill="none" stroke="#63b8ff" d="M627.74,-129.64C561.31,-122.79 450.74,-108.87 358,-85 355.56,-84.37 353.05,-83.64 350.55,-82.86"/>
<polygon fill="#63b8ff" stroke="#63b8ff" points="351.66,-79.54 341.06,-79.62 349.4,-86.16 351.66,-79.54"/>
</a>
</g>
</g>
<!-- Node34&#45;&gt;Node4 -->
<g id="edge69_Node000034_Node000004" class="edge">
<title>Node34&#45;&gt;Node4</title>
<g id="a_edge69_Node000034_Node000004"><a xlink:title=" ">
<path fill="none" stroke="#63b8ff" d="M746.4,-130.1C781.96,-127.24 828.05,-123.69 869,-121 1046.15,-109.35 1609.88,-80.01 1751.48,-72.68"/>
<polygon fill="#63b8ff" stroke="#63b8ff" points="1751.87,-76.16 1761.68,-72.15 1751.51,-69.17 1751.87,-76.16"/>
</a>
</g>
</g>
<!-- Node34&#45;&gt;Node5 -->
<g id="edge72_Node000034_Node000005" class="edge">
<title>Node34&#45;&gt;Node5</title>
<g id="a_edge72_Node000034_Node000005"><a xlink:title=" ">
<path fill="none" stroke="#63b8ff" d="M627.82,-129.51C531.73,-120.3 346.06,-101.14 282,-85 279.7,-84.42 277.34,-83.73 274.99,-82.98"/>
<polygon fill="#63b8ff" stroke="#63b8ff" points="276.11,-79.66 265.52,-79.6 273.76,-86.26 276.11,-79.66"/>
</a>
</g>
</g>
<!-- Node34&#45;&gt;Node8 -->
<g id="edge65_Node000034_Node000008" class="edge">
<title>Node34&#45;&gt;Node8</title>
<g id="a_edge65_Node000034_Node000008"><a xlink:title=" ">
<path fill="none" stroke="#63b8ff" d="M715.12,-120.97C733.44,-111.49 757.63,-98.32 778,-85 796.3,-73.03 796.49,-62.58 817,-55 894.51,-26.36 1483.73,-13.86 1634.8,-11.1"/>
<polygon fill="#63b8ff" stroke="#63b8ff" points="1634.97,-14.6 1644.9,-10.92 1634.84,-7.6 1634.97,-14.6"/>
</a>
</g>
</g>
<!-- Node34&#45;&gt;Node9 -->
<g id="edge73_Node000034_Node000009" class="edge">
<title>Node34&#45;&gt;Node9</title>
<g id="a_edge73_Node000034_Node000009"><a xlink:title=" ">
<path fill="none" stroke="#63b8ff" d="M661.98,-120.95C642.69,-110.13 616.18,-95.24 597.12,-84.54"/>
<polygon fill="#63b8ff" stroke="#63b8ff" points="598.6,-81.36 588.17,-79.52 595.18,-87.46 598.6,-81.36"/>
</a>
</g>
</g>
<!-- Node34&#45;&gt;Node13 -->
<g id="edge66_Node000034_Node000013" class="edge">
<title>Node34&#45;&gt;Node13</title>
<g id="a_edge66_Node000034_Node000013"><a xlink:title=" ">
<path fill="none" stroke="#63b8ff" d="M724.53,-120.95C754.78,-109.63 796.88,-93.88 825.66,-83.1"/>
<polygon fill="#63b8ff" stroke="#63b8ff" points="827.1,-86.3 835.24,-79.52 824.65,-79.74 827.1,-86.3"/>
</a>
</g>
</g>
<!-- Node34&#45;&gt;Node15 -->
<g id="edge70_Node000034_Node000015" class="edge">
<title>Node34&#45;&gt;Node15</title>
<g id="a_edge70_Node000034_Node000015"><a xlink:title=" ">
<path fill="none" stroke="#63b8ff" d="M746,-130.3C781.62,-127.5 827.91,-123.93 869,-121 1112.02,-103.66 1176.07,-127.36 1416,-85 1420.18,-84.26 1424.52,-83.29 1428.8,-82.21"/>
<polygon fill="#63b8ff" stroke="#63b8ff" points="1429.87,-85.55 1438.59,-79.53 1428.02,-78.8 1429.87,-85.55"/>
</a>
</g>
</g>
<!-- Node34&#45;&gt;Node17 -->
<g id="edge74_Node000034_Node000017" class="edge">
<title>Node34&#45;&gt;Node17</title>
<g id="a_edge74_Node000034_Node000017"><a xlink:title=" ">
<path fill="none" stroke="#63b8ff" d="M629.72,-120.95C589.44,-111.08 535.38,-97.82 493.08,-87.45"/>
<polygon fill="#63b8ff" stroke="#63b8ff" points="493.69,-83.99 483.14,-85.01 492.02,-90.79 493.69,-83.99"/>
</a>
</g>
</g>
<!-- Node34&#45;&gt;Node19 -->
<g id="edge68_Node000034_Node000019" class="edge">
<title>Node34&#45;&gt;Node19</title>
<g id="a_edge68_Node000034_Node000019"><a xlink:title=" ">
<path fill="none" stroke="#63b8ff" d="M685.16,-120.72C682.26,-98.12 676.61,-54.12 673.39,-29.09"/>
<polygon fill="#63b8ff" stroke="#63b8ff" points="676.85,-28.54 672.1,-19.07 669.9,-29.43 676.85,-28.54"/>
</a>
</g>
</g>
<!-- Node35 -->
<g id="Node000035" class="node">
<title>Node35</title>
<g id="a_Node000035"><a xlink:title=" ">
<polygon fill="#e0e0e0" stroke="#999999" points="768.5,-79.5 699.5,-79.5 699.5,-60.5 768.5,-60.5 768.5,-79.5"/>
<text text-anchor="middle" x="734" y="-67.5" font-family="Helvetica,sans-Serif" font-size="10.00">type_traits</text>
</a>
</g>
</g>
<!-- Node34&#45;&gt;Node35 -->
<g id="edge71_Node000034_Node000035" class="edge">
<title>Node34&#45;&gt;Node35</title>
<g id="a_edge71_Node000034_Node000035"><a xlink:title=" ">
<path fill="none" stroke="#63b8ff" d="M697.43,-120.8C704.54,-111.11 714,-98.24 721.51,-88.01"/>
<polygon fill="#63b8ff" stroke="#63b8ff" points="724.41,-89.98 727.5,-79.84 718.76,-85.83 724.41,-89.98"/>
</a>
</g>
</g>
</g>
</svg>
