<?xml version="1.0" encoding="UTF-8" standalone="no"?>
<!DOCTYPE svg PUBLIC "-//W3C//DTD SVG 1.1//EN"
 "http://www.w3.org/Graphics/SVG/1.1/DTD/svg11.dtd">
<!-- Generated by graphviz version 2.43.0 (0)
 -->
<!-- Title: unilink/config/uds_config.hpp Pages: 1 -->
<svg width="1367pt" height="170pt"
 viewBox="0.00 0.00 1366.50 170.00" xmlns="http://www.w3.org/2000/svg" xmlns:xlink="http://www.w3.org/1999/xlink">
<g id="graph0" class="graph" transform="scale(1 1) rotate(0) translate(4 166)">
<title>unilink/config/uds_config.hpp</title>
<!-- Node1 -->
<g id="Node000001" class="node">
<title>Node1</title>
<g id="a_Node000001"><a xlink:title=" ">
<polygon fill="#999999" stroke="#666666" points="481,-162 379,-162 379,-132 481,-132 481,-162"/>
<text text-anchor="start" x="387" y="-150" font-family="Helvetica,sans-Serif" font-size="10.00">unilink/config/uds</text>
<text text-anchor="middle" x="430" y="-139" font-family="Helvetica,sans-Serif" font-size="10.00">_config.hpp</text>
</a>
</g>
</g>
<!-- Node2 -->
<g id="Node000002" class="node">
<title>Node2</title>
<g id="a_Node000002"><a xlink:href="channel__factory_8hpp.html" target="_top" xlink:title=" ">
<polygon fill="white" stroke="#666666" points="831,-96 703,-96 703,-66 831,-66 831,-96"/>
<text text-anchor="start" x="711" y="-84" font-family="Helvetica,sans-Serif" font-size="10.00">unilink/factory/channel</text>
<text text-anchor="middle" x="767" y="-73" font-family="Helvetica,sans-Serif" font-size="10.00">_factory.hpp</text>
</a>
</g>
</g>
<!-- Node1&#45;&gt;Node2 -->
<g id="edge1_Node000001_Node000002" class="edge">
<title>Node1&#45;&gt;Node2</title>
<g id="a_edge1_Node000001_Node000002"><a xlink:title=" ">
<path fill="none" stroke="#63b8ff" d="M491.26,-134.37C551.18,-122.99 642.06,-105.73 702.93,-94.17"/>
<polygon fill="#63b8ff" stroke="#63b8ff" points="490.35,-130.98 481.18,-136.28 491.66,-137.85 490.35,-130.98"/>
</a>
</g>
</g>
<!-- Node9 -->
<g id="Node000009" class="node">
<title>Node9</title>
<g id="a_Node000009"><a xlink:href="wrapper_2uds__client_2uds__client_8cc.html" target="_top" xlink:title=" ">
<polygon fill="white" stroke="#666666" points="265.5,-30 150.5,-30 150.5,0 265.5,0 265.5,-30"/>
<text text-anchor="start" x="158.5" y="-18" font-family="Helvetica,sans-Serif" font-size="10.00">unilink/wrapper/uds</text>
<text text-anchor="middle" x="208" y="-7" font-family="Helvetica,sans-Serif" font-size="10.00">_client/uds_client.cc</text>
</a>
</g>
</g>
<!-- Node1&#45;&gt;Node9 -->
<g id="edge20_Node000001_Node000009" class="edge">
<title>Node1&#45;&gt;Node9</title>
<g id="a_edge20_Node000001_Node000009"><a xlink:title=" ">
<path fill="none" stroke="#63b8ff" d="M411.66,-124.09C395.83,-106.36 371.54,-81.81 346,-66 320.32,-50.11 288.85,-38.21 262.45,-30.02"/>
<polygon fill="#63b8ff" stroke="#63b8ff" points="409.1,-126.47 418.32,-131.7 414.37,-121.87 409.1,-126.47"/>
</a>
</g>
</g>
<!-- Node10 -->
<g id="Node000010" class="node">
<title>Node10</title>
<g id="a_Node000010"><a xlink:href="wrapper_2uds__server_2uds__server_8cc.html" target="_top" xlink:title=" ">
<polygon fill="white" stroke="#666666" points="688,-30 566,-30 566,0 688,0 688,-30"/>
<text text-anchor="start" x="574" y="-18" font-family="Helvetica,sans-Serif" font-size="10.00">unilink/wrapper/uds</text>
<text text-anchor="middle" x="627" y="-7" font-family="Helvetica,sans-Serif" font-size="10.00">_server/uds_server.cc</text>
</a>
</g>
</g>
<!-- Node1&#45;&gt;Node10 -->
<g id="edge21_Node000001_Node000010" class="edge">
<title>Node1&#45;&gt;Node10</title>
<g id="a_edge21_Node000001_Node000010"><a xlink:title=" ">
<path fill="none" stroke="#63b8ff" d="M486.92,-128.45C508.36,-120.39 532.3,-109.57 552,-96 578.96,-77.42 603.55,-47.69 616.78,-30.19"/>
<polygon fill="#63b8ff" stroke="#63b8ff" points="485.47,-125.25 477.27,-131.96 487.86,-131.83 485.47,-125.25"/>
</a>
</g>
</g>
<!-- Node11 -->
<g id="Node000011" class="node">
<title>Node11</title>
<g id="a_Node000011"><a xlink:href="uds_2detail_2reconnect__decider_8hpp.html" target="_top" xlink:title=" ">
<polygon fill="white" stroke="#666666" points="160,-96 0,-96 0,-66 160,-66 160,-96"/>
<text text-anchor="start" x="8" y="-84" font-family="Helvetica,sans-Serif" font-size="10.00">unilink/transport/uds</text>
<text text-anchor="middle" x="80" y="-73" font-family="Helvetica,sans-Serif" font-size="10.00">/detail/reconnect_decider.hpp</text>
</a>
</g>
</g>
<!-- Node1&#45;&gt;Node11 -->
<g id="edge10_Node000001_Node000011" class="edge">
<title>Node1&#45;&gt;Node11</title>
<g id="a_edge10_Node000001_Node000011"><a xlink:title=" ">
<path fill="none" stroke="#63b8ff" d="M368.81,-134.81C309.81,-124.02 220.34,-107.66 156.63,-96.01"/>
<polygon fill="#63b8ff" stroke="#63b8ff" points="368.27,-138.27 378.73,-136.63 369.52,-131.38 368.27,-138.27"/>
</a>
</g>
</g>
<!-- Node13 -->
<g id="Node000013" class="node">
<title>Node13</title>
<g id="a_Node000013"><a xlink:href="transport_2uds_2uds__client_8hpp.html" target="_top" xlink:title=" ">
<polygon fill="white" stroke="#666666" points="337.5,-96 220.5,-96 220.5,-66 337.5,-66 337.5,-96"/>
<text text-anchor="start" x="228.5" y="-84" font-family="Helvetica,sans-Serif" font-size="10.00">unilink/transport/uds</text>
<text text-anchor="middle" x="279" y="-73" font-family="Helvetica,sans-Serif" font-size="10.00">/uds_client.hpp</text>
</a>
</g>
</g>
<!-- Node1&#45;&gt;Node13 -->
<g id="edge12_Node000001_Node000013" class="edge">
<title>Node1&#45;&gt;Node13</title>
<g id="a_edge12_Node000001_Node000013"><a xlink:title=" ">
<path fill="none" stroke="#63b8ff" d="M387.34,-127.92C363.47,-117.8 334.17,-105.38 312.06,-96.01"/>
<polygon fill="#63b8ff" stroke="#63b8ff" points="386.29,-131.28 396.86,-131.95 389.02,-124.83 386.29,-131.28"/>
</a>
</g>
</g>
<!-- Node14 -->
<g id="Node000014" class="node">
<title>Node14</title>
<g id="a_Node000014"><a xlink:href="transport_2uds_2uds__server_8hpp.html" target="_top" xlink:title=" ">
<polygon fill="white" stroke="#666666" points="542.5,-96 425.5,-96 425.5,-66 542.5,-66 542.5,-96"/>
<text text-anchor="start" x="433.5" y="-84" font-family="Helvetica,sans-Serif" font-size="10.00">unilink/transport/uds</text>
<text text-anchor="middle" x="484" y="-73" font-family="Helvetica,sans-Serif" font-size="10.00">/uds_server.hpp</text>
</a>
</g>
</g>
<!-- Node1&#45;&gt;Node14 -->
<g id="edge16_Node000001_Node000014" class="edge">
<title>Node1&#45;&gt;Node14</title>
<g id="a_edge16_Node000001_Node000014"><a xlink:title=" ">
<path fill="none" stroke="#63b8ff" d="M448.49,-124.09C456.28,-114.85 465.13,-104.36 472.05,-96.16"/>
<polygon fill="#63b8ff" stroke="#63b8ff" points="445.76,-121.9 441.98,-131.8 451.11,-126.41 445.76,-121.9"/>
</a>
</g>
</g>
<!-- Node3 -->
<g id="Node000003" class="node">
<title>Node3</title>
<g id="a_Node000003"><a xlink:href="channel__factory_8cc.html" target="_top" xlink:title=" ">
<polygon fill="white" stroke="#666666" points="412,-30 284,-30 284,0 412,0 412,-30"/>
<text text-anchor="start" x="292" y="-18" font-family="Helvetica,sans-Serif" font-size="10.00">unilink/factory/channel</text>
<text text-anchor="middle" x="348" y="-7" font-family="Helvetica,sans-Serif" font-size="10.00">_factory.cc</text>
</a>
</g>
</g>
<!-- Node2&#45;&gt;Node3 -->
<g id="edge2_Node000002_Node000003" class="edge">
<title>Node2&#45;&gt;Node3</title>
<g id="a_edge2_Node000002_Node000003"><a xlink:title=" ">
<path fill="none" stroke="#63b8ff" d="M692.7,-70.27C622.53,-60.84 514.42,-45.7 421,-30 418.07,-29.51 415.08,-28.99 412.06,-28.46"/>
<polygon fill="#63b8ff" stroke="#63b8ff" points="692.4,-73.76 702.77,-71.62 693.33,-66.82 692.4,-73.76"/>
</a>
</g>
</g>
<!-- Node4 -->
<g id="Node000004" class="node">
<title>Node4</title>
<g id="a_Node000004"><a xlink:href="wrapper_2serial_2serial_8cc.html" target="_top" xlink:title=" ">
<polygon fill="white" stroke="#666666" points="828,-30 706,-30 706,0 828,0 828,-30"/>
<text text-anchor="start" x="714" y="-18" font-family="Helvetica,sans-Serif" font-size="10.00">unilink/wrapper/serial</text>
<text text-anchor="middle" x="767" y="-7" font-family="Helvetica,sans-Serif" font-size="10.00">/serial.cc</text>
</a>
</g>
</g>
<!-- Node2&#45;&gt;Node4 -->
<g id="edge3_Node000002_Node000004" class="edge">
<title>Node2&#45;&gt;Node4</title>
<g id="a_edge3_Node000002_Node000004"><a xlink:title=" ">
<path fill="none" stroke="#63b8ff" d="M767,-55.54C767,-46.96 767,-37.61 767,-30.16"/>
<polygon fill="#63b8ff" stroke="#63b8ff" points="763.5,-55.8 767,-65.8 770.5,-55.8 763.5,-55.8"/>
</a>
</g>
</g>
<!-- Node5 -->
<g id="Node000005" class="node">
<title>Node5</title>
<g id="a_Node000005"><a xlink:href="wrapper_2tcp__client_2tcp__client_8cc.html" target="_top" xlink:title=" ">
<polygon fill="white" stroke="#666666" points="959.5,-30 846.5,-30 846.5,0 959.5,0 959.5,-30"/>
<text text-anchor="start" x="854.5" y="-18" font-family="Helvetica,sans-Serif" font-size="10.00">unilink/wrapper/tcp</text>
<text text-anchor="middle" x="903" y="-7" font-family="Helvetica,sans-Serif" font-size="10.00">_client/tcp_client.cc</text>
</a>
</g>
</g>
<!-- Node2&#45;&gt;Node5 -->
<g id="edge4_Node000002_Node000005" class="edge">
<title>Node2&#45;&gt;Node5</title>
<g id="a_edge4_Node000002_Node000005"><a xlink:title=" ">
<path fill="none" stroke="#63b8ff" d="M806,-61.65C827.39,-51.58 853.49,-39.3 873.22,-30.01"/>
<polygon fill="#63b8ff" stroke="#63b8ff" points="804.4,-58.53 796.85,-65.95 807.38,-64.86 804.4,-58.53"/>
</a>
</g>
</g>
<!-- Node6 -->
<g id="Node000006" class="node">
<title>Node6</title>
<g id="a_Node000006"><a xlink:href="wrapper_2tcp__server_2tcp__server_8cc.html" target="_top" xlink:title=" ">
<polygon fill="white" stroke="#666666" points="1096.5,-30 977.5,-30 977.5,0 1096.5,0 1096.5,-30"/>
<text text-anchor="start" x="985.5" y="-18" font-family="Helvetica,sans-Serif" font-size="10.00">unilink/wrapper/tcp</text>
<text text-anchor="middle" x="1037" y="-7" font-family="Helvetica,sans-Serif" font-size="10.00">_server/tcp_server.cc</text>
</a>
</g>
</g>
<!-- Node2&#45;&gt;Node6 -->
<g id="edge5_Node000002_Node000006" class="edge">
<title>Node2&#45;&gt;Node6</title>
<g id="a_edge5_Node000002_Node000006"><a xlink:title=" ">
<path fill="none" stroke="#63b8ff" d="M835.98,-63.65C879.85,-53.25 936.07,-39.93 977.89,-30.01"/>
<polygon fill="#63b8ff" stroke="#63b8ff" points="835.18,-60.24 826.25,-65.95 836.79,-67.05 835.18,-60.24"/>
</a>
</g>
</g>
<!-- Node7 -->
<g id="Node000007" class="node">
<title>Node7</title>
<g id="a_Node000007"><a xlink:href="wrapper_2udp_2udp_8cc.html" target="_top" xlink:title=" ">
<polygon fill="white" stroke="#666666" points="1227.5,-30 1114.5,-30 1114.5,0 1227.5,0 1227.5,-30"/>
<text text-anchor="start" x="1122.5" y="-18" font-family="Helvetica,sans-Serif" font-size="10.00">unilink/wrapper/udp</text>
<text text-anchor="middle" x="1171" y="-7" font-family="Helvetica,sans-Serif" font-size="10.00">/udp.cc</text>
</a>
</g>
</g>
<!-- Node2&#45;&gt;Node7 -->
<g id="edge6_Node000002_Node000007" class="edge">
<title>Node2&#45;&gt;Node7</title>
<g id="a_edge6_Node000002_Node000007"><a xlink:title=" ">
<path fill="none" stroke="#63b8ff" d="M841.56,-70.44C910.4,-61.27 1015.38,-46.42 1106,-30 1108.73,-29.51 1111.51,-28.98 1114.32,-28.44"/>
<polygon fill="#63b8ff" stroke="#63b8ff" points="840.7,-67.02 831.25,-71.8 841.62,-73.96 840.7,-67.02"/>
</a>
</g>
</g>
<!-- Node8 -->
<g id="Node000008" class="node">
<title>Node8</title>
<g id="a_Node000008"><a xlink:href="udp__server_8cc.html" target="_top" xlink:title=" ">
<polygon fill="white" stroke="#666666" points="1358.5,-30 1245.5,-30 1245.5,0 1358.5,0 1358.5,-30"/>
<text text-anchor="start" x="1253.5" y="-18" font-family="Helvetica,sans-Serif" font-size="10.00">unilink/wrapper/udp</text>
<text text-anchor="middle" x="1302" y="-7" font-family="Helvetica,sans-Serif" font-size="10.00">/udp_server.cc</text>
</a>
</g>
</g>
<!-- Node2&#45;&gt;Node8 -->
<g id="edge7_Node000002_Node000008" class="edge">
<title>Node2&#45;&gt;Node8</title>
<g id="a_edge7_Node000002_Node000008"><a xlink:title=" ">
<path fill="none" stroke="#63b8ff" d="M841.29,-74.55C934.21,-67.17 1097.99,-52.3 1237,-30 1239.74,-29.56 1242.53,-29.08 1245.35,-28.57"/>
<polygon fill="#63b8ff" stroke="#63b8ff" points="840.84,-71.07 831.14,-75.35 841.39,-78.05 840.84,-71.07"/>
</a>
</g>
</g>
<!-- Node2&#45;&gt;Node9 -->
<g id="edge8_Node000002_Node000009" class="edge">
<title>Node2&#45;&gt;Node9</title>
<g id="a_edge8_Node000002_Node000009"><a xlink:title=" ">
<path fill="none" stroke="#63b8ff" d="M692.39,-74.86C595.73,-67.65 422.15,-52.79 275,-30 271.95,-29.53 268.82,-29.01 265.67,-28.45"/>
<polygon fill="#63b8ff" stroke="#63b8ff" points="692.42,-78.37 702.65,-75.62 692.93,-71.39 692.42,-78.37"/>
</a>
</g>
</g>
<!-- Node2&#45;&gt;Node10 -->
<g id="edge9_Node000002_Node000010" class="edge">
<title>Node2&#45;&gt;Node10</title>
<g id="a_edge9_Node000002_Node000010"><a xlink:title=" ">
<path fill="none" stroke="#63b8ff" d="M727.15,-61.78C705.08,-51.69 678.06,-39.34 657.65,-30.01"/>
<polygon fill="#63b8ff" stroke="#63b8ff" points="725.73,-64.98 736.28,-65.95 728.64,-58.61 725.73,-64.98"/>
</a>
</g>
</g>
<!-- Node12 -->
<g id="Node000012" class="node">
<title>Node12</title>
<g id="a_Node000012"><a xlink:href="transport_2uds_2uds__client_8cc.html" target="_top" xlink:title=" ">
<polygon fill="white" stroke="#666666" points="132.5,-30 15.5,-30 15.5,0 132.5,0 132.5,-30"/>
<text text-anchor="start" x="23.5" y="-18" font-family="Helvetica,sans-Serif" font-size="10.00">unilink/transport/uds</text>
<text text-anchor="middle" x="74" y="-7" font-family="Helvetica,sans-Serif" font-size="10.00">/uds_client.cc</text>
</a>
</g>
</g>
<!-- Node11&#45;&gt;Node12 -->
<g id="edge11_Node000011_Node000012" class="edge">
<title>Node11&#45;&gt;Node12</title>
<g id="a_edge11_Node000011_Node000012"><a xlink:title=" ">
<path fill="none" stroke="#63b8ff" d="M77.73,-55.83C76.92,-47.17 76.03,-37.7 75.33,-30.16"/>
<polygon fill="#63b8ff" stroke="#63b8ff" points="74.25,-56.17 78.67,-65.8 81.22,-55.51 74.25,-56.17"/>
</a>
</g>
</g>
<!-- Node13&#45;&gt;Node3 -->
<g id="edge13_Node000013_Node000003" class="edge">
<title>Node13&#45;&gt;Node3</title>
<g id="a_edge13_Node000013_Node000003"><a xlink:title=" ">
<path fill="none" stroke="#63b8ff" d="M301.72,-58.92C311.9,-49.49 323.63,-38.61 332.73,-30.16"/>
<polygon fill="#63b8ff" stroke="#63b8ff" points="299.26,-56.43 294.31,-65.8 304.03,-61.56 299.26,-56.43"/>
</a>
</g>
</g>
<!-- Node13&#45;&gt;Node9 -->
<g id="edge15_Node000013_Node000009" class="edge">
<title>Node13&#45;&gt;Node9</title>
<g id="a_edge15_Node000013_Node000009"><a xlink:title=" ">
<path fill="none" stroke="#63b8ff" d="M255.62,-58.92C245.15,-49.49 233.08,-38.61 223.71,-30.16"/>
<polygon fill="#63b8ff" stroke="#63b8ff" points="253.47,-61.7 263.24,-65.8 258.16,-56.5 253.47,-61.7"/>
</a>
</g>
</g>
<!-- Node13&#45;&gt;Node12 -->
<g id="edge14_Node000013_Node000012" class="edge">
<title>Node13&#45;&gt;Node12</title>
<g id="a_edge14_Node000013_Node000012"><a xlink:title=" ">
<path fill="none" stroke="#63b8ff" d="M224.09,-62.86C191.17,-52.58 149.84,-39.68 118.88,-30.01"/>
<polygon fill="#63b8ff" stroke="#63b8ff" points="223.42,-66.32 234.01,-65.95 225.51,-59.63 223.42,-66.32"/>
</a>
</g>
</g>
<!-- Node14&#45;&gt;Node3 -->
<g id="edge17_Node000014_Node000003" class="edge">
<title>Node14&#45;&gt;Node3</title>
<g id="a_edge17_Node000014_Node000003"><a xlink:title=" ">
<path fill="none" stroke="#63b8ff" d="M445,-61.65C423.61,-51.58 397.51,-39.3 377.78,-30.01"/>
<polygon fill="#63b8ff" stroke="#63b8ff" points="443.62,-64.86 454.15,-65.95 446.6,-58.53 443.62,-64.86"/>
</a>
</g>
</g>
<!-- Node14&#45;&gt;Node10 -->
<g id="edge19_Node000014_Node000010" class="edge">
<title>Node14&#45;&gt;Node10</title>
<g id="a_edge19_Node000014_Node000010"><a xlink:title=" ">
<path fill="none" stroke="#63b8ff" d="M524.7,-61.78C547.25,-51.69 574.84,-39.34 595.69,-30.01"/>
<polygon fill="#63b8ff" stroke="#63b8ff" points="523.08,-58.68 515.38,-65.95 525.94,-65.06 523.08,-58.68"/>
</a>
</g>
</g>
<!-- Node15 -->
<g id="Node000015" class="node">
<title>Node15</title>
<g id="a_Node000015"><a xlink:href="transport_2uds_2uds__server_8cc.html" target="_top" xlink:title=" ">
<polygon fill="white" stroke="#666666" points="547.5,-30 430.5,-30 430.5,0 547.5,0 547.5,-30"/>
<text text-anchor="start" x="438.5" y="-18" font-family="Helvetica,sans-Serif" font-size="10.00">unilink/transport/uds</text>
<text text-anchor="middle" x="489" y="-7" font-family="Helvetica,sans-Serif" font-size="10.00">/uds_server.cc</text>
</a>
</g>
</g>
<!-- Node14&#45;&gt;Node15 -->
<g id="edge18_Node000014_Node000015" class="edge">
<title>Node14&#45;&gt;Node15</title>
<g id="a_edge18_Node000014_Node000015"><a xlink:title=" ">
<path fill="none" stroke="#63b8ff" d="M485.89,-55.83C486.56,-47.17 487.3,-37.7 487.89,-30.16"/>
<polygon fill="#63b8ff" stroke="#63b8ff" points="482.4,-55.55 485.11,-65.8 489.38,-56.1 482.4,-55.55"/>
</a>
</g>
</g>
</g>
</svg>
