<?xml version="1.0" encoding="UTF-8" standalone="no"?>
<!DOCTYPE svg PUBLIC "-//W3C//DTD SVG 1.1//EN"
 "http://www.w3.org/Graphics/SVG/1.1/DTD/svg11.dtd">
<!-- Generated by graphviz version 2.43.0 (0)
 -->
<!-- Title: unilink/wrapper/udp/udp.hpp Pages: 1 -->
<svg width="1151pt" height="280pt"
 viewBox="0.00 0.00 1150.50 280.00" xmlns="http://www.w3.org/2000/svg" xmlns:xlink="http://www.w3.org/1999/xlink">
<g id="graph0" class="graph" transform="scale(1 1) rotate(0) translate(4 276)">
<title>unilink/wrapper/udp/udp.hpp</title>
<!-- Node1 -->
<g id="Node000001" class="node">
<title>Node1</title>
<g id="a_Node000001"><a xlink:title=" ">
<polygon fill="#999999" stroke="#666666" points="384,-272 271,-272 271,-242 384,-242 384,-272"/>
<text text-anchor="start" x="279" y="-260" font-family="Helvetica,sans-Serif" font-size="10.00">unilink/wrapper/udp</text>
<text text-anchor="middle" x="327.5" y="-249" font-family="Helvetica,sans-Serif" font-size="10.00">/udp.hpp</text>
</a>
</g>
</g>
<!-- Node2 -->
<g id="Node000002" class="node">
<title>Node2</title>
<g id="a_Node000002"><a xlink:title=" ">
<polygon fill="#e0e0e0" stroke="#999999" points="185.5,-206 135.5,-206 135.5,-187 185.5,-187 185.5,-206"/>
<text text-anchor="middle" x="160.5" y="-194" font-family="Helvetica,sans-Serif" font-size="10.00">chrono</text>
</a>
</g>
</g>
<!-- Node1&#45;&gt;Node2 -->
<g id="edge1_Node000001_Node000002" class="edge">
<title>Node1&#45;&gt;Node2</title>
<g id="a_edge1_Node000001_Node000002"><a xlink:title=" ">
<path fill="none" stroke="#63b8ff" d="M287.5,-241.99C259.26,-232.1 221.82,-218.98 194.92,-209.56"/>
<polygon fill="#63b8ff" stroke="#63b8ff" points="195.76,-206.14 185.16,-206.14 193.44,-212.75 195.76,-206.14"/>
</a>
</g>
</g>
<!-- Node3 -->
<g id="Node000003" class="node">
<title>Node3</title>
<g id="a_Node000003"><a xlink:title=" ">
<polygon fill="#e0e0e0" stroke="#999999" points="457,-79.5 392,-79.5 392,-60.5 457,-60.5 457,-79.5"/>
<text text-anchor="middle" x="424.5" y="-67.5" font-family="Helvetica,sans-Serif" font-size="10.00">functional</text>
</a>
</g>
</g>
<!-- Node1&#45;&gt;Node3 -->
<g id="edge2_Node000001_Node000003" class="edge">
<title>Node1&#45;&gt;Node3</title>
<g id="a_edge2_Node000001_Node000003"><a xlink:title=" ">
<path fill="none" stroke="#63b8ff" d="M320.53,-241.62C308.89,-215.34 289.07,-158.8 313.5,-121 328.57,-97.68 357.42,-85.12 381.92,-78.43"/>
<polygon fill="#63b8ff" stroke="#63b8ff" points="382.9,-81.79 391.76,-75.98 381.21,-75 382.9,-81.79"/>
</a>
</g>
</g>
<!-- Node4 -->
<g id="Node000004" class="node">
<title>Node4</title>
<g id="a_Node000004"><a xlink:title=" ">
<polygon fill="#e0e0e0" stroke="#999999" points="401.5,-145.5 355.5,-145.5 355.5,-126.5 401.5,-126.5 401.5,-145.5"/>
<text text-anchor="middle" x="378.5" y="-133.5" font-family="Helvetica,sans-Serif" font-size="10.00">future</text>
</a>
</g>
</g>
<!-- Node1&#45;&gt;Node4 -->
<g id="edge3_Node000001_Node000004" class="edge">
<title>Node1&#45;&gt;Node4</title>
<g id="a_edge3_Node000001_Node000004"><a xlink:title=" ">
<path fill="none" stroke="#63b8ff" d="M333.55,-241.88C342.84,-220.22 360.59,-178.78 370.79,-154.99"/>
<polygon fill="#63b8ff" stroke="#63b8ff" points="374.04,-156.28 374.77,-145.71 367.61,-153.52 374.04,-156.28"/>
</a>
</g>
</g>
<!-- Node5 -->
<g id="Node000005" class="node">
<title>Node5</title>
<g id="a_Node000005"><a xlink:title=" ">
<polygon fill="#e0e0e0" stroke="#999999" points="533.5,-79.5 475.5,-79.5 475.5,-60.5 533.5,-60.5 533.5,-79.5"/>
<text text-anchor="middle" x="504.5" y="-67.5" font-family="Helvetica,sans-Serif" font-size="10.00">memory</text>
</a>
</g>
</g>
<!-- Node1&#45;&gt;Node5 -->
<g id="edge4_Node000001_Node000005" class="edge">
<title>Node1&#45;&gt;Node5</title>
<g id="a_edge4_Node000001_Node000005"><a xlink:title=" ">
<path fill="none" stroke="#63b8ff" d="M324.99,-241.8C321.07,-214.8 316.78,-155.69 346.5,-121 382.45,-79.04 413.04,-102.34 465.5,-85 467.4,-84.37 469.34,-83.72 471.3,-83.05"/>
<polygon fill="#63b8ff" stroke="#63b8ff" points="472.77,-86.24 481.06,-79.63 470.46,-79.63 472.77,-86.24"/>
</a>
</g>
</g>
<!-- Node6 -->
<g id="Node000006" class="node">
<title>Node6</title>
<g id="a_Node000006"><a xlink:title=" ">
<polygon fill="#e0e0e0" stroke="#999999" points="385.5,-19 341.5,-19 341.5,0 385.5,0 385.5,-19"/>
<text text-anchor="middle" x="363.5" y="-7" font-family="Helvetica,sans-Serif" font-size="10.00">string</text>
</a>
</g>
</g>
<!-- Node1&#45;&gt;Node6 -->
<g id="edge5_Node000001_Node000006" class="edge">
<title>Node1&#45;&gt;Node6</title>
<g id="a_edge5_Node000001_Node000006"><a xlink:title=" ">
<path fill="none" stroke="#63b8ff" d="M316.33,-241.99C290.38,-207.63 231.15,-117.45 270.5,-55 283.78,-33.92 310.12,-22.6 331.39,-16.67"/>
<polygon fill="#63b8ff" stroke="#63b8ff" points="332.5,-20 341.34,-14.17 330.79,-13.21 332.5,-20"/>
</a>
</g>
</g>
<!-- Node7 -->
<g id="Node000007" class="node">
<title>Node7</title>
<g id="a_Node000007"><a xlink:title=" ">
<polygon fill="#e0e0e0" stroke="#999999" points="984,-79.5 911,-79.5 911,-60.5 984,-60.5 984,-79.5"/>
<text text-anchor="middle" x="947.5" y="-67.5" font-family="Helvetica,sans-Serif" font-size="10.00">string_view</text>
</a>
</g>
</g>
<!-- Node1&#45;&gt;Node7 -->
<g id="edge6_Node000001_Node000007" class="edge">
<title>Node1&#45;&gt;Node7</title>
<g id="a_edge6_Node000001_Node000007"><a xlink:title=" ">
<path fill="none" stroke="#63b8ff" d="M384.09,-251.14C510.4,-239.42 810.79,-206.37 894.5,-151 917.14,-136.02 932.43,-107.71 940.56,-89.1"/>
<polygon fill="#63b8ff" stroke="#63b8ff" points="943.87,-90.25 944.42,-79.67 937.39,-87.59 943.87,-90.25"/>
</a>
</g>
</g>
<!-- Node8 -->
<g id="Node000008" class="node">
<title>Node8</title>
<g id="a_Node000008"><a xlink:href="visibility_8hpp.html" target="_top" xlink:title=" ">
<polygon fill="white" stroke="#666666" points="1142.5,-79.5 1002.5,-79.5 1002.5,-60.5 1142.5,-60.5 1142.5,-79.5"/>
<text text-anchor="middle" x="1072.5" y="-67.5" font-family="Helvetica,sans-Serif" font-size="10.00">unilink/base/visibility.hpp</text>
</a>
</g>
</g>
<!-- Node1&#45;&gt;Node8 -->
<g id="edge7_Node000001_Node000008" class="edge">
<title>Node1&#45;&gt;Node8</title>
<g id="a_edge7_Node000001_Node000008"><a xlink:title=" ">
<path fill="none" stroke="#63b8ff" d="M384.03,-256.38C496.86,-255.05 755.72,-241.46 948.5,-151 987.99,-132.47 1029.79,-103.21 1053.37,-85.68"/>
<polygon fill="#63b8ff" stroke="#63b8ff" points="1055.59,-88.39 1061.47,-79.58 1051.38,-82.8 1055.59,-88.39"/>
</a>
</g>
</g>
<!-- Node9 -->
<g id="Node000009" class="node">
<title>Node9</title>
<g id="a_Node000009"><a xlink:href="udp__config_8hpp.html" target="_top" xlink:title=" ">
<polygon fill="white" stroke="#666666" points="223,-151 120,-151 120,-121 223,-121 223,-151"/>
<text text-anchor="start" x="128" y="-139" font-family="Helvetica,sans-Serif" font-size="10.00">unilink/config/udp</text>
<text text-anchor="middle" x="171.5" y="-128" font-family="Helvetica,sans-Serif" font-size="10.00">_config.hpp</text>
</a>
</g>
</g>
<!-- Node1&#45;&gt;Node9 -->
<g id="edge8_Node000001_Node000009" class="edge">
<title>Node1&#45;&gt;Node9</title>
<g id="a_edge8_Node000001_Node000009"><a xlink:title=" ">
<path fill="none" stroke="#63b8ff" d="M296.92,-241.9C278.82,-232.87 255.89,-220.2 237.5,-206 219.62,-192.2 202.08,-173.54 189.58,-159.11"/>
<polygon fill="#63b8ff" stroke="#63b8ff" points="191.97,-156.52 182.83,-151.17 186.64,-161.05 191.97,-156.52"/>
</a>
</g>
</g>
<!-- Node14 -->
<g id="Node000014" class="node">
<title>Node14</title>
<g id="a_Node000014"><a xlink:href="ichannel_8hpp.html" target="_top" xlink:title=" ">
<polygon fill="white" stroke="#666666" points="584.5,-206 426.5,-206 426.5,-187 584.5,-187 584.5,-206"/>
<text text-anchor="middle" x="505.5" y="-194" font-family="Helvetica,sans-Serif" font-size="10.00">unilink/wrapper/ichannel.hpp</text>
</a>
</g>
</g>
<!-- Node1&#45;&gt;Node14 -->
<g id="edge15_Node000001_Node000014" class="edge">
<title>Node1&#45;&gt;Node14</title>
<g id="a_edge15_Node000001_Node000014"><a xlink:title=" ">
<path fill="none" stroke="#63b8ff" d="M370.14,-241.99C400.59,-231.98 441.09,-218.67 469.83,-209.22"/>
<polygon fill="#63b8ff" stroke="#63b8ff" points="471.07,-212.5 479.47,-206.05 468.88,-205.85 471.07,-212.5"/>
</a>
</g>
</g>
<!-- Node9&#45;&gt;Node6 -->
<g id="edge11_Node000009_Node000006" class="edge">
<title>Node9&#45;&gt;Node6</title>
<g id="a_edge11_Node000009_Node000006"><a xlink:title=" ">
<path fill="none" stroke="#63b8ff" d="M179.76,-120.85C190.81,-103.11 211.97,-72.85 237.5,-55 266.03,-35.05 304.41,-23.2 331.29,-16.8"/>
<polygon fill="#63b8ff" stroke="#63b8ff" points="332.35,-20.15 341.34,-14.54 330.81,-13.32 332.35,-20.15"/>
</a>
</g>
</g>
<!-- Node10 -->
<g id="Node000010" class="node">
<title>Node10</title>
<g id="a_Node000010"><a xlink:title=" ">
<polygon fill="#e0e0e0" stroke="#999999" points="200.5,-19 150.5,-19 150.5,0 200.5,0 200.5,-19"/>
<text text-anchor="middle" x="175.5" y="-7" font-family="Helvetica,sans-Serif" font-size="10.00">cstdint</text>
</a>
</g>
</g>
<!-- Node9&#45;&gt;Node10 -->
<g id="edge9_Node000009_Node000010" class="edge">
<title>Node9&#45;&gt;Node10</title>
<g id="a_edge9_Node000009_Node000010"><a xlink:title=" ">
<path fill="none" stroke="#63b8ff" d="M171.96,-120.72C172.68,-98.12 174.1,-54.12 174.9,-29.09"/>
<polygon fill="#63b8ff" stroke="#63b8ff" points="178.4,-29.18 175.22,-19.07 171.41,-28.95 178.4,-29.18"/>
</a>
</g>
</g>
<!-- Node11 -->
<g id="Node000011" class="node">
<title>Node11</title>
<g id="a_Node000011"><a xlink:title=" ">
<polygon fill="#e0e0e0" stroke="#999999" points="335.5,-79.5 279.5,-79.5 279.5,-60.5 335.5,-60.5 335.5,-79.5"/>
<text text-anchor="middle" x="307.5" y="-67.5" font-family="Helvetica,sans-Serif" font-size="10.00">optional</text>
</a>
</g>
</g>
<!-- Node9&#45;&gt;Node11 -->
<g id="edge10_Node000009_Node000011" class="edge">
<title>Node9&#45;&gt;Node11</title>
<g id="a_edge10_Node000009_Node000011"><a xlink:title=" ">
<path fill="none" stroke="#63b8ff" d="M201.35,-120.95C224.88,-109.88 257.43,-94.56 280.27,-83.82"/>
<polygon fill="#63b8ff" stroke="#63b8ff" points="281.84,-86.94 289.4,-79.52 278.86,-80.61 281.84,-86.94"/>
</a>
</g>
</g>
<!-- Node12 -->
<g id="Node000012" class="node">
<title>Node12</title>
<g id="a_Node000012"><a xlink:href="constants_8hpp.html" target="_top" xlink:title=" ">
<polygon fill="white" stroke="#666666" points="147,-79.5 0,-79.5 0,-60.5 147,-60.5 147,-79.5"/>
<text text-anchor="middle" x="73.5" y="-67.5" font-family="Helvetica,sans-Serif" font-size="10.00">unilink/base/constants.hpp</text>
</a>
</g>
</g>
<!-- Node9&#45;&gt;Node12 -->
<g id="edge12_Node000009_Node000012" class="edge">
<title>Node9&#45;&gt;Node12</title>
<g id="a_edge12_Node000009_Node000012"><a xlink:title=" ">
<path fill="none" stroke="#63b8ff" d="M149.75,-120.8C133.63,-110.27 111.74,-95.97 95.55,-85.4"/>
<polygon fill="#63b8ff" stroke="#63b8ff" points="97.04,-82.2 86.76,-79.66 93.22,-88.06 97.04,-82.2"/>
</a>
</g>
</g>
<!-- Node12&#45;&gt;Node10 -->
<g id="edge14_Node000012_Node000010" class="edge">
<title>Node12&#45;&gt;Node10</title>
<g id="a_edge14_Node000012_Node000010"><a xlink:title=" ">
<path fill="none" stroke="#63b8ff" d="M88.55,-60.37C105.12,-50.86 132,-35.45 151.49,-24.27"/>
<polygon fill="#63b8ff" stroke="#63b8ff" points="153.45,-27.18 160.39,-19.17 149.97,-21.11 153.45,-27.18"/>
</a>
</g>
</g>
<!-- Node13 -->
<g id="Node000013" class="node">
<title>Node13</title>
<g id="a_Node000013"><a xlink:title=" ">
<polygon fill="#e0e0e0" stroke="#999999" points="100,-19 47,-19 47,0 100,0 100,-19"/>
<text text-anchor="middle" x="73.5" y="-7" font-family="Helvetica,sans-Serif" font-size="10.00">cstddef</text>
</a>
</g>
</g>
<!-- Node12&#45;&gt;Node13 -->
<g id="edge13_Node000012_Node000013" class="edge">
<title>Node12&#45;&gt;Node13</title>
<g id="a_edge13_Node000012_Node000013"><a xlink:title=" ">
<path fill="none" stroke="#63b8ff" d="M73.5,-60.37C73.5,-52.25 73.5,-39.81 73.5,-29.39"/>
<polygon fill="#63b8ff" stroke="#63b8ff" points="77,-29.17 73.5,-19.17 70,-29.17 77,-29.17"/>
</a>
</g>
</g>
<!-- Node14&#45;&gt;Node3 -->
<g id="edge16_Node000014_Node000003" class="edge">
<title>Node14&#45;&gt;Node3</title>
<g id="a_edge16_Node000014_Node000003"><a xlink:title=" ">
<path fill="none" stroke="#63b8ff" d="M499.93,-186.94C486.7,-166.6 453.14,-115.03 435.59,-88.04"/>
<polygon fill="#63b8ff" stroke="#63b8ff" points="438.49,-86.09 430.11,-79.62 432.63,-89.91 438.49,-86.09"/>
</a>
</g>
</g>
<!-- Node14&#45;&gt;Node4 -->
<g id="edge17_Node000014_Node000004" class="edge">
<title>Node14&#45;&gt;Node4</title>
<g id="a_edge17_Node000014_Node000004"><a xlink:title=" ">
<path fill="none" stroke="#63b8ff" d="M487.03,-186.99C465.78,-177.2 430.65,-161.02 406.13,-149.73"/>
<polygon fill="#63b8ff" stroke="#63b8ff" points="407.54,-146.52 396.99,-145.52 404.61,-152.88 407.54,-146.52"/>
</a>
</g>
</g>
<!-- Node14&#45;&gt;Node5 -->
<g id="edge18_Node000014_Node000005" class="edge">
<title>Node14&#45;&gt;Node5</title>
<g id="a_edge18_Node000014_Node000005"><a xlink:title=" ">
<path fill="none" stroke="#63b8ff" d="M505.43,-186.94C505.27,-167.04 504.87,-117.26 504.65,-89.85"/>
<polygon fill="#63b8ff" stroke="#63b8ff" points="508.15,-89.59 504.57,-79.62 501.15,-89.65 508.15,-89.59"/>
</a>
</g>
</g>
<!-- Node14&#45;&gt;Node6 -->
<g id="edge19_Node000014_Node000006" class="edge">
<title>Node14&#45;&gt;Node6</title>
<g id="a_edge19_Node000014_Node000006"><a xlink:title=" ">
<path fill="none" stroke="#63b8ff" d="M494.2,-186.78C466.71,-165.38 397.54,-110.12 382.5,-85 372.24,-67.86 367.48,-45.29 365.3,-29.51"/>
<polygon fill="#63b8ff" stroke="#63b8ff" points="368.76,-28.92 364.13,-19.39 361.8,-29.72 368.76,-28.92"/>
</a>
</g>
</g>
<!-- Node14&#45;&gt;Node7 -->
<g id="edge20_Node000014_Node000007" class="edge">
<title>Node14&#45;&gt;Node7</title>
<g id="a_edge20_Node000014_Node000007"><a xlink:title=" ">
<path fill="none" stroke="#63b8ff" d="M584.68,-191.11C673.73,-185.2 812.1,-172.82 859.5,-151 891.07,-136.47 919.17,-106.45 934.72,-87.6"/>
<polygon fill="#63b8ff" stroke="#63b8ff" points="937.61,-89.59 941.12,-79.59 932.14,-85.22 937.61,-89.59"/>
</a>
</g>
</g>
<!-- Node14&#45;&gt;Node8 -->
<g id="edge21_Node000014_Node000008" class="edge">
<title>Node14&#45;&gt;Node8</title>
<g id="a_edge21_Node000014_Node000008"><a xlink:title=" ">
<path fill="none" stroke="#63b8ff" d="M584.71,-193.56C664.28,-189.96 789.79,-179.77 894.5,-151 952.18,-135.15 1014.98,-103.11 1048.39,-84.75"/>
<polygon fill="#63b8ff" stroke="#63b8ff" points="1050.35,-87.66 1057.39,-79.74 1046.95,-81.54 1050.35,-87.66"/>
</a>
</g>
</g>
<!-- Node15 -->
<g id="Node000015" class="node">
<title>Node15</title>
<g id="a_Node000015"><a xlink:href="iframer_8hpp.html" target="_top" xlink:title=" ">
<polygon fill="white" stroke="#666666" points="850,-145.5 705,-145.5 705,-126.5 850,-126.5 850,-145.5"/>
<text text-anchor="middle" x="777.5" y="-133.5" font-family="Helvetica,sans-Serif" font-size="10.00">unilink/framer/iframer.hpp</text>
</a>
</g>
</g>
<!-- Node14&#45;&gt;Node15 -->
<g id="edge22_Node000014_Node000015" class="edge">
<title>Node14&#45;&gt;Node15</title>
<g id="a_edge22_Node000014_Node000015"><a xlink:title=" ">
<path fill="none" stroke="#63b8ff" d="M545.05,-186.99C593.4,-176.6 675.25,-158.99 727.8,-147.69"/>
<polygon fill="#63b8ff" stroke="#63b8ff" points="728.86,-151.04 737.9,-145.52 727.39,-144.2 728.86,-151.04"/>
</a>
</g>
</g>
<!-- Node20 -->
<g id="Node000020" class="node">
<title>Node20</title>
<g id="a_Node000020"><a xlink:href="context_8hpp.html" target="_top" xlink:title=" ">
<polygon fill="white" stroke="#666666" points="687,-145.5 534,-145.5 534,-126.5 687,-126.5 687,-145.5"/>
<text text-anchor="middle" x="610.5" y="-133.5" font-family="Helvetica,sans-Serif" font-size="10.00">unilink/wrapper/context.hpp</text>
</a>
</g>
</g>
<!-- Node14&#45;&gt;Node20 -->
<g id="edge31_Node000014_Node000020" class="edge">
<title>Node14&#45;&gt;Node20</title>
<g id="a_edge31_Node000014_Node000020"><a xlink:title=" ">
<path fill="none" stroke="#63b8ff" d="M520.99,-186.87C538.13,-177.32 565.97,-161.81 586.06,-150.62"/>
<polygon fill="#63b8ff" stroke="#63b8ff" points="587.91,-153.59 594.94,-145.67 584.5,-147.48 587.91,-153.59"/>
</a>
</g>
</g>
<!-- Node15&#45;&gt;Node3 -->
<g id="edge23_Node000015_Node000003" class="edge">
<title>Node15&#45;&gt;Node3</title>
<g id="a_edge23_Node000015_Node000003"><a xlink:title=" ">
<path fill="none" stroke="#63b8ff" d="M728.69,-126.43C718.08,-124.61 706.92,-122.72 696.5,-121 594.41,-104.19 567.04,-109.44 466.5,-85 463.53,-84.28 460.48,-83.44 457.43,-82.55"/>
<polygon fill="#63b8ff" stroke="#63b8ff" points="458.43,-79.2 447.85,-79.55 456.34,-85.88 458.43,-79.2"/>
</a>
</g>
</g>
<!-- Node15&#45;&gt;Node5 -->
<g id="edge24_Node000015_Node000005" class="edge">
<title>Node15&#45;&gt;Node5</title>
<g id="a_edge24_Node000015_Node000005"><a xlink:title=" ">
<path fill="none" stroke="#63b8ff" d="M740.97,-126.44C689.61,-114.4 596.48,-92.56 543.72,-80.19"/>
<polygon fill="#63b8ff" stroke="#63b8ff" points="544.26,-76.73 533.73,-77.85 542.66,-83.54 544.26,-76.73"/>
</a>
</g>
</g>
<!-- Node15&#45;&gt;Node8 -->
<g id="edge26_Node000015_Node000008" class="edge">
<title>Node15&#45;&gt;Node8</title>
<g id="a_edge26_Node000015_Node000008"><a xlink:title=" ">
<path fill="none" stroke="#63b8ff" d="M816.98,-126.44C870.3,-114.87 965.3,-94.26 1023.24,-81.69"/>
<polygon fill="#63b8ff" stroke="#63b8ff" points="1024.22,-85.05 1033.25,-79.51 1022.74,-78.21 1024.22,-85.05"/>
</a>
</g>
</g>
<!-- Node16 -->
<g id="Node000016" class="node">
<title>Node16</title>
<g id="a_Node000016"><a xlink:title=" ">
<polygon fill="#e0e0e0" stroke="#999999" points="893,-79.5 846,-79.5 846,-60.5 893,-60.5 893,-79.5"/>
<text text-anchor="middle" x="869.5" y="-67.5" font-family="Helvetica,sans-Serif" font-size="10.00">vector</text>
</a>
</g>
</g>
<!-- Node15&#45;&gt;Node16 -->
<g id="edge25_Node000015_Node000016" class="edge">
<title>Node15&#45;&gt;Node16</title>
<g id="a_edge25_Node000015_Node000016"><a xlink:title=" ">
<path fill="none" stroke="#63b8ff" d="M789.91,-126.37C804.86,-115.97 830.22,-98.32 848.3,-85.75"/>
<polygon fill="#63b8ff" stroke="#63b8ff" points="850.78,-88.28 857,-79.7 846.79,-82.54 850.78,-88.28"/>
</a>
</g>
</g>
<!-- Node17 -->
<g id="Node000017" class="node">
<title>Node17</title>
<g id="a_Node000017"><a xlink:href="safe__span_8hpp.html" target="_top" xlink:title=" ">
<polygon fill="white" stroke="#666666" points="827.5,-85 709.5,-85 709.5,-55 827.5,-55 827.5,-85"/>
<text text-anchor="start" x="717.5" y="-73" font-family="Helvetica,sans-Serif" font-size="10.00">unilink/memory/safe</text>
<text text-anchor="middle" x="768.5" y="-62" font-family="Helvetica,sans-Serif" font-size="10.00">_span.hpp</text>
</a>
</g>
</g>
<!-- Node15&#45;&gt;Node17 -->
<g id="edge27_Node000015_Node000017" class="edge">
<title>Node15&#45;&gt;Node17</title>
<g id="a_edge27_Node000015_Node000017"><a xlink:title=" ">
<path fill="none" stroke="#63b8ff" d="M776.29,-126.37C775.17,-118.4 773.45,-106.2 771.91,-95.27"/>
<polygon fill="#63b8ff" stroke="#63b8ff" points="775.38,-94.78 770.52,-85.36 768.45,-95.75 775.38,-94.78"/>
</a>
</g>
</g>
<!-- Node17&#45;&gt;Node10 -->
<g id="edge28_Node000017_Node000010" class="edge">
<title>Node17&#45;&gt;Node10</title>
<g id="a_edge28_Node000017_Node000010"><a xlink:title=" ">
<path fill="none" stroke="#63b8ff" d="M709.23,-56.37C706.29,-55.87 703.36,-55.41 700.5,-55 605.31,-41.22 312.2,-20.05 210.61,-12.93"/>
<polygon fill="#63b8ff" stroke="#63b8ff" points="210.78,-9.43 200.56,-12.23 210.29,-16.42 210.78,-9.43"/>
</a>
</g>
</g>
<!-- Node18 -->
<g id="Node000018" class="node">
<title>Node18</title>
<g id="a_Node000018"><a xlink:title=" ">
<polygon fill="#e0e0e0" stroke="#999999" points="758,-19 693,-19 693,0 758,0 758,-19"/>
<text text-anchor="middle" x="725.5" y="-7" font-family="Helvetica,sans-Serif" font-size="10.00">stdexcept</text>
</a>
</g>
</g>
<!-- Node17&#45;&gt;Node18 -->
<g id="edge29_Node000017_Node000018" class="edge">
<title>Node17&#45;&gt;Node18</title>
<g id="a_edge29_Node000017_Node000018"><a xlink:title=" ">
<path fill="none" stroke="#63b8ff" d="M758.09,-54.84C752.04,-46.61 744.38,-36.18 738,-27.51"/>
<polygon fill="#63b8ff" stroke="#63b8ff" points="740.69,-25.25 731.94,-19.27 735.05,-29.4 740.69,-25.25"/>
</a>
</g>
</g>
<!-- Node19 -->
<g id="Node000019" class="node">
<title>Node19</title>
<g id="a_Node000019"><a xlink:title=" ">
<polygon fill="#e0e0e0" stroke="#999999" points="845,-19 776,-19 776,0 845,0 845,-19"/>
<text text-anchor="middle" x="810.5" y="-7" font-family="Helvetica,sans-Serif" font-size="10.00">type_traits</text>
</a>
</g>
</g>
<!-- Node17&#45;&gt;Node19 -->
<g id="edge30_Node000017_Node000019" class="edge">
<title>Node17&#45;&gt;Node19</title>
<g id="a_edge30_Node000017_Node000019"><a xlink:title=" ">
<path fill="none" stroke="#63b8ff" d="M778.67,-54.84C784.58,-46.61 792.06,-36.18 798.29,-27.51"/>
<polygon fill="#63b8ff" stroke="#63b8ff" points="801.22,-29.43 804.21,-19.27 795.53,-25.35 801.22,-29.43"/>
</a>
</g>
</g>
<!-- Node20&#45;&gt;Node6 -->
<g id="edge33_Node000020_Node000006" class="edge">
<title>Node20&#45;&gt;Node6</title>
<g id="a_edge33_Node000020_Node000006"><a xlink:title=" ">
<path fill="none" stroke="#63b8ff" d="M605.76,-126.47C596.11,-109.97 572.56,-73.63 542.5,-55 496.67,-26.59 433.69,-16.3 395.95,-12.59"/>
<polygon fill="#63b8ff" stroke="#63b8ff" points="395.82,-9.06 385.55,-11.67 395.2,-16.03 395.82,-9.06"/>
</a>
</g>
</g>
<!-- Node20&#45;&gt;Node7 -->
<g id="edge34_Node000020_Node000007" class="edge">
<title>Node20&#45;&gt;Node7</title>
<g id="a_edge34_Node000020_Node000007"><a xlink:title=" ">
<path fill="none" stroke="#63b8ff" d="M662.61,-126.46C740.24,-113.68 879.62,-90.49 902.5,-85 905.68,-84.24 908.97,-83.37 912.25,-82.45"/>
<polygon fill="#63b8ff" stroke="#63b8ff" points="913.36,-85.77 921.96,-79.59 911.38,-79.06 913.36,-85.77"/>
</a>
</g>
</g>
<!-- Node20&#45;&gt;Node11 -->
<g id="edge32_Node000020_Node000011" class="edge">
<title>Node20&#45;&gt;Node11</title>
<g id="a_edge32_Node000020_Node000011"><a xlink:title=" ">
<path fill="none" stroke="#63b8ff" d="M569.95,-126.44C511.2,-114.03 403.17,-91.21 345.74,-79.08"/>
<polygon fill="#63b8ff" stroke="#63b8ff" points="346.14,-75.58 335.63,-76.94 344.69,-82.43 346.14,-75.58"/>
</a>
</g>
</g>
<!-- Node20&#45;&gt;Node16 -->
<g id="edge35_Node000020_Node000016" class="edge">
<title>Node20&#45;&gt;Node16</title>
<g id="a_edge35_Node000020_Node000016"><a xlink:title=" ">
<path fill="none" stroke="#63b8ff" d="M661.47,-126.49C707.74,-118.11 777.56,-103.85 836.5,-85 838.13,-84.48 839.79,-83.91 841.46,-83.3"/>
<polygon fill="#63b8ff" stroke="#63b8ff" points="842.85,-86.52 850.88,-79.6 840.29,-80 842.85,-86.52"/>
</a>
</g>
</g>
<!-- Node20&#45;&gt;Node17 -->
<g id="edge38_Node000020_Node000017" class="edge">
<title>Node20&#45;&gt;Node17</title>
<g id="a_edge38_Node000020_Node000017"><a xlink:title=" ">
<path fill="none" stroke="#63b8ff" d="M631.81,-126.37C655.37,-116.82 693.99,-101.18 724.18,-88.95"/>
<polygon fill="#63b8ff" stroke="#63b8ff" points="725.7,-92.11 733.65,-85.12 723.07,-85.63 725.7,-92.11"/>
</a>
</g>
</g>
<!-- Node21 -->
<g id="Node000021" class="node">
<title>Node21</title>
<g id="a_Node000021"><a xlink:href="error__codes_8hpp.html" target="_top" xlink:title=" ">
<polygon fill="white" stroke="#666666" points="691.5,-85 589.5,-85 589.5,-55 691.5,-55 691.5,-85"/>
<text text-anchor="start" x="597.5" y="-73" font-family="Helvetica,sans-Serif" font-size="10.00">unilink/base/error</text>
<text text-anchor="middle" x="640.5" y="-62" font-family="Helvetica,sans-Serif" font-size="10.00">_codes.hpp</text>
</a>
</g>
</g>
<!-- Node20&#45;&gt;Node21 -->
<g id="edge36_Node000020_Node000021" class="edge">
<title>Node20&#45;&gt;Node21</title>
<g id="a_edge36_Node000020_Node000021"><a xlink:title=" ">
<path fill="none" stroke="#63b8ff" d="M614.55,-126.37C618.36,-118.24 624.24,-105.69 629.44,-94.59"/>
<polygon fill="#63b8ff" stroke="#63b8ff" points="632.69,-95.9 633.77,-85.36 626.36,-92.93 632.69,-95.9"/>
</a>
</g>
</g>
<!-- Node21&#45;&gt;Node6 -->
<g id="edge37_Node000021_Node000006" class="edge">
<title>Node21&#45;&gt;Node6</title>
<g id="a_edge37_Node000021_Node000006"><a xlink:title=" ">
<path fill="none" stroke="#63b8ff" d="M589.41,-57.97C584.71,-56.96 580.02,-55.96 575.5,-55 511.75,-41.44 437.15,-25.85 395.61,-17.19"/>
<polygon fill="#63b8ff" stroke="#63b8ff" points="396.29,-13.75 385.79,-15.14 394.86,-20.61 396.29,-13.75"/>
</a>
</g>
</g>
</g>
</svg>
