<?xml version="1.0" encoding="UTF-8" standalone="no"?>
<!DOCTYPE svg PUBLIC "-//W3C//DTD SVG 1.1//EN"
 "http://www.w3.org/Graphics/SVG/1.1/DTD/svg11.dtd">
<!-- Generated by graphviz version 2.43.0 (0)
 -->
<!-- Title: unilink/wrapper/udp/udp.hpp Pages: 1 -->
<!--zoomable 285 -->
<svg id="main" version="1.1" xmlns="http://www.w3.org/2000/svg" xmlns:xlink="http://www.w3.org/1999/xlink" xml:space="preserve" onload="init(evt)">
<style type="text/css"><![CDATA[
.edge:hover path { stroke: red; }
.edge:hover polygon { stroke: red; fill: red; }
]]></style>
<script type="text/javascript"><![CDATA[
var edges = document.getElementsByTagName('g');
if (edges && edges.length) {
  for (var i=0;i<edges.length;i++) {
    if (edges[i].id.substr(0,4)=='edge') {
      edges[i].setAttribute('class','edge');
    }
  }
}
]]></script>
        <defs>
                <circle id="rim" cx="0" cy="0" r="7"/>
                <circle id="rim2" cx="0" cy="0" r="3.5"/>
                <g id="zoomPlus">
                        <use xlink:href="#rim" fill="#404040">
                                <set attributeName="fill" to="#808080" begin="zoomplus.mouseover" end="zoomplus.mouseout"/>
                        </use>
                        <path d="M-4,0h8M0,-4v8" fill="none" stroke="white" stroke-width="1.5" pointer-events="none"/>
                </g>
                <g id="zoomMin">
                        <use xlink:href="#rim" fill="#404040">
                                <set attributeName="fill" to="#808080" begin="zoomminus.mouseover" end="zoomminus.mouseout"/>
                        </use>
                        <path d="M-4,0h8" fill="none" stroke="white" stroke-width="1.5" pointer-events="none"/>
                </g>
                <g id="dirArrow">
                        <path fill="none" stroke="white" stroke-width="1.5" d="M0,-3.0v7 M-2.5,-0.5L0,-3.0L2.5,-0.5"/>
                </g>
               <g id="resetDef">
                       <use xlink:href="#rim2" fill="#404040">
                               <set attributeName="fill" to="#808080" begin="reset.mouseover" end="reset.mouseout"/>
                       </use>
               </g>
        </defs>

<script type="text/javascript">
var viewWidth = 1151;
var viewHeight = 285;
var sectionId = 'dynsection-0';
</script>
<script xlink:href="svgpan.js"/>
<svg id="graph" class="graph">
<g id="viewport">
<title>unilink/wrapper/udp/udp.hpp</title>
<polygon fill="white" stroke="transparent" points="-4,4 -4,-281 1146.5,-281 1146.5,4 -4,4"/>
<!-- Node1 -->
<g id="node1" class="node">
<title>Node1</title>
<g id="a_node1"><a xlink:title=" ">
<polygon fill="#bfbfbf" stroke="black" points="271,-246.5 271,-276.5 384,-276.5 384,-246.5 271,-246.5"/>
<text text-anchor="start" x="279" y="-264.5" font-family="Helvetica,sans-Serif" font-size="10.00">unilink/wrapper/udp</text>
<text text-anchor="middle" x="327.5" y="-253.5" font-family="Helvetica,sans-Serif" font-size="10.00">/udp.hpp</text>
</a>
</g>
</g>
<!-- Node2 -->
<g id="node2" class="node">
<title>Node2</title>
<g id="a_node2"><a xlink:title=" ">
<polygon fill="white" stroke="#bfbfbf" points="135.5,-190.5 135.5,-209.5 185.5,-209.5 185.5,-190.5 135.5,-190.5"/>
<text text-anchor="middle" x="160.5" y="-197.5" font-family="Helvetica,sans-Serif" font-size="10.00">chrono</text>
</a>
</g>
</g>
<!-- Node1&#45;&gt;Node2 -->
<g id="edge1" class="edge">
<title>Node1&#45;&gt;Node2</title>
<path fill="none" stroke="midnightblue" d="M287.92,-246.4C259.4,-236.24 221.33,-222.67 194.24,-213.02"/>
<polygon fill="midnightblue" stroke="midnightblue" points="195.39,-209.72 184.8,-209.66 193.05,-216.31 195.39,-209.72"/>
</g>
<!-- Node3 -->
<g id="node3" class="node">
<title>Node3</title>
<g id="a_node3"><a xlink:title=" ">
<polygon fill="white" stroke="#bfbfbf" points="392,-62 392,-81 457,-81 457,-62 392,-62"/>
<text text-anchor="middle" x="424.5" y="-69" font-family="Helvetica,sans-Serif" font-size="10.00">functional</text>
</a>
</g>
</g>
<!-- Node1&#45;&gt;Node3 -->
<g id="edge2" class="edge">
<title>Node1&#45;&gt;Node3</title>
<path fill="none" stroke="midnightblue" d="M320.64,-246.28C308.91,-219.71 288.56,-161.74 313.5,-123 328.56,-99.61 357.4,-86.93 381.91,-80.12"/>
<polygon fill="midnightblue" stroke="midnightblue" points="382.91,-83.48 391.75,-77.63 381.19,-76.69 382.91,-83.48"/>
</g>
<!-- Node4 -->
<g id="node4" class="node">
<title>Node4</title>
<g id="a_node4"><a xlink:title=" ">
<polygon fill="white" stroke="#bfbfbf" points="355.5,-129 355.5,-148 401.5,-148 401.5,-129 355.5,-129"/>
<text text-anchor="middle" x="378.5" y="-136" font-family="Helvetica,sans-Serif" font-size="10.00">future</text>
</a>
</g>
</g>
<!-- Node1&#45;&gt;Node4 -->
<g id="edge3" class="edge">
<title>Node1&#45;&gt;Node4</title>
<path fill="none" stroke="midnightblue" d="M333.55,-246.14C342.88,-224 360.77,-181.57 370.94,-157.44"/>
<polygon fill="midnightblue" stroke="midnightblue" points="374.24,-158.63 374.9,-148.05 367.79,-155.91 374.24,-158.63"/>
</g>
<!-- Node5 -->
<g id="node5" class="node">
<title>Node5</title>
<g id="a_node5"><a xlink:title=" ">
<polygon fill="white" stroke="#bfbfbf" points="475.5,-62 475.5,-81 533.5,-81 533.5,-62 475.5,-62"/>
<text text-anchor="middle" x="504.5" y="-69" font-family="Helvetica,sans-Serif" font-size="10.00">memory</text>
</a>
</g>
</g>
<!-- Node1&#45;&gt;Node5 -->
<g id="edge4" class="edge">
<title>Node1&#45;&gt;Node5</title>
<path fill="none" stroke="midnightblue" d="M324.96,-246.47C320.88,-219.18 316.13,-158.54 346.5,-123 382.4,-80.99 413.13,-104.64 465.5,-87 467.9,-86.19 470.37,-85.34 472.84,-84.46"/>
<polygon fill="midnightblue" stroke="midnightblue" points="474.1,-87.72 482.31,-81.02 471.72,-81.14 474.1,-87.72"/>
</g>
<!-- Node6 -->
<g id="node6" class="node">
<title>Node6</title>
<g id="a_node6"><a xlink:title=" ">
<polygon fill="white" stroke="#bfbfbf" points="341.5,-0.5 341.5,-19.5 385.5,-19.5 385.5,-0.5 341.5,-0.5"/>
<text text-anchor="middle" x="363.5" y="-7.5" font-family="Helvetica,sans-Serif" font-size="10.00">string</text>
</a>
</g>
</g>
<!-- Node1&#45;&gt;Node6 -->
<g id="edge5" class="edge">
<title>Node1&#45;&gt;Node6</title>
<path fill="none" stroke="midnightblue" d="M316.46,-246.5C290.47,-211.74 230.56,-119.7 270.5,-56 283.77,-34.84 310.11,-23.39 331.38,-17.34"/>
<polygon fill="midnightblue" stroke="midnightblue" points="332.52,-20.66 341.34,-14.79 330.78,-13.88 332.52,-20.66"/>
</g>
<!-- Node7 -->
<g id="node7" class="node">
<title>Node7</title>
<g id="a_node7"><a xlink:title=" ">
<polygon fill="white" stroke="#bfbfbf" points="911,-62 911,-81 984,-81 984,-62 911,-62"/>
<text text-anchor="middle" x="947.5" y="-69" font-family="Helvetica,sans-Serif" font-size="10.00">string_view</text>
</a>
</g>
</g>
<!-- Node1&#45;&gt;Node7 -->
<g id="edge6" class="edge">
<title>Node1&#45;&gt;Node7</title>
<path fill="none" stroke="midnightblue" d="M384.13,-255.53C510.52,-243.55 811.06,-209.86 894.5,-154 917.58,-138.55 932.88,-109.3 940.87,-90.36"/>
<polygon fill="midnightblue" stroke="midnightblue" points="944.13,-91.64 944.56,-81.06 937.62,-89.06 944.13,-91.64"/>
</g>
<!-- Node8 -->
<g id="node8" class="node">
<title>Node8</title>
<g id="a_node8"><a xlink:href="visibility_8hpp.html" target="_top" xlink:title=" ">
<polygon fill="white" stroke="black" points="1002.5,-62 1002.5,-81 1142.5,-81 1142.5,-62 1002.5,-62"/>
<text text-anchor="middle" x="1072.5" y="-69" font-family="Helvetica,sans-Serif" font-size="10.00">unilink/base/visibility.hpp</text>
</a>
</g>
</g>
<!-- Node1&#45;&gt;Node8 -->
<g id="edge7" class="edge">
<title>Node1&#45;&gt;Node8</title>
<path fill="none" stroke="midnightblue" d="M384.18,-261.01C497.27,-259.88 756.58,-246.46 948.5,-154 988.01,-134.96 1029.81,-105.2 1053.38,-87.4"/>
<polygon fill="midnightblue" stroke="midnightblue" points="1055.66,-90.06 1061.48,-81.21 1051.41,-84.5 1055.66,-90.06"/>
</g>
<!-- Node9 -->
<g id="node9" class="node">
<title>Node9</title>
<g id="a_node9"><a xlink:href="udp__config_8hpp.html" target="_top" xlink:title=" ">
<polygon fill="white" stroke="black" points="120,-123.5 120,-153.5 223,-153.5 223,-123.5 120,-123.5"/>
<text text-anchor="start" x="128" y="-141.5" font-family="Helvetica,sans-Serif" font-size="10.00">unilink/config/udp</text>
<text text-anchor="middle" x="171.5" y="-130.5" font-family="Helvetica,sans-Serif" font-size="10.00">_config.hpp</text>
</a>
</g>
</g>
<!-- Node1&#45;&gt;Node9 -->
<g id="edge8" class="edge">
<title>Node1&#45;&gt;Node9</title>
<path fill="none" stroke="midnightblue" d="M297.29,-246.49C279.11,-237.36 255.97,-224.48 237.5,-210 219.24,-195.69 201.44,-176.25 188.93,-161.41"/>
<polygon fill="midnightblue" stroke="midnightblue" points="191.63,-159.18 182.56,-153.7 186.23,-163.64 191.63,-159.18"/>
</g>
<!-- Node14 -->
<g id="node14" class="node">
<title>Node14</title>
<g id="a_node14"><a xlink:href="ichannel_8hpp.html" target="_top" xlink:title=" ">
<polygon fill="white" stroke="black" points="426.5,-190.5 426.5,-209.5 584.5,-209.5 584.5,-190.5 426.5,-190.5"/>
<text text-anchor="middle" x="505.5" y="-197.5" font-family="Helvetica,sans-Serif" font-size="10.00">unilink/wrapper/ichannel.hpp</text>
</a>
</g>
</g>
<!-- Node1&#45;&gt;Node14 -->
<g id="edge15" class="edge">
<title>Node1&#45;&gt;Node14</title>
<path fill="none" stroke="midnightblue" d="M369.68,-246.4C400.31,-236.16 441.27,-222.47 470.17,-212.81"/>
<polygon fill="midnightblue" stroke="midnightblue" points="471.48,-216.06 479.86,-209.57 469.27,-209.42 471.48,-216.06"/>
</g>
<!-- Node9&#45;&gt;Node6 -->
<g id="edge11" class="edge">
<title>Node9&#45;&gt;Node6</title>
<path fill="none" stroke="midnightblue" d="M179.52,-123.41C190.45,-105.39 211.65,-74.32 237.5,-56 265.94,-35.84 304.34,-23.85 331.25,-17.38"/>
<polygon fill="midnightblue" stroke="midnightblue" points="332.33,-20.73 341.3,-15.09 330.77,-13.9 332.33,-20.73"/>
</g>
<!-- Node10 -->
<g id="node10" class="node">
<title>Node10</title>
<g id="a_node10"><a xlink:title=" ">
<polygon fill="white" stroke="#bfbfbf" points="150.5,-0.5 150.5,-19.5 200.5,-19.5 200.5,-0.5 150.5,-0.5"/>
<text text-anchor="middle" x="175.5" y="-7.5" font-family="Helvetica,sans-Serif" font-size="10.00">cstdint</text>
</a>
</g>
</g>
<!-- Node9&#45;&gt;Node10 -->
<g id="edge9" class="edge">
<title>Node9&#45;&gt;Node10</title>
<path fill="none" stroke="midnightblue" d="M171.94,-123.48C172.66,-100.72 174.09,-55.7 174.9,-30.06"/>
<polygon fill="midnightblue" stroke="midnightblue" points="178.4,-29.89 175.22,-19.79 171.41,-29.67 178.4,-29.89"/>
</g>
<!-- Node11 -->
<g id="node11" class="node">
<title>Node11</title>
<g id="a_node11"><a xlink:title=" ">
<polygon fill="white" stroke="#bfbfbf" points="279.5,-62 279.5,-81 335.5,-81 335.5,-62 279.5,-62"/>
<text text-anchor="middle" x="307.5" y="-69" font-family="Helvetica,sans-Serif" font-size="10.00">optional</text>
</a>
</g>
</g>
<!-- Node9&#45;&gt;Node11 -->
<g id="edge10" class="edge">
<title>Node9&#45;&gt;Node11</title>
<path fill="none" stroke="midnightblue" d="M201.01,-123.4C224.66,-112.09 257.58,-96.36 280.53,-85.39"/>
<polygon fill="midnightblue" stroke="midnightblue" points="282.19,-88.48 289.7,-81.01 279.17,-82.16 282.19,-88.48"/>
</g>
<!-- Node12 -->
<g id="node12" class="node">
<title>Node12</title>
<g id="a_node12"><a xlink:href="constants_8hpp.html" target="_top" xlink:title=" ">
<polygon fill="white" stroke="black" points="0,-62 0,-81 147,-81 147,-62 0,-62"/>
<text text-anchor="middle" x="73.5" y="-69" font-family="Helvetica,sans-Serif" font-size="10.00">unilink/base/constants.hpp</text>
</a>
</g>
</g>
<!-- Node9&#45;&gt;Node12 -->
<g id="edge12" class="edge">
<title>Node9&#45;&gt;Node12</title>
<path fill="none" stroke="midnightblue" d="M150.24,-123.4C133.8,-112.5 111.16,-97.48 94.73,-86.58"/>
<polygon fill="midnightblue" stroke="midnightblue" points="96.59,-83.62 86.33,-81.01 92.72,-89.45 96.59,-83.62"/>
</g>
<!-- Node12&#45;&gt;Node10 -->
<g id="edge14" class="edge">
<title>Node12&#45;&gt;Node10</title>
<path fill="none" stroke="midnightblue" d="M88.11,-61.98C104.85,-52.21 132.5,-36.08 152.22,-24.58"/>
<polygon fill="midnightblue" stroke="midnightblue" points="154.04,-27.57 160.91,-19.51 150.51,-21.52 154.04,-27.57"/>
</g>
<!-- Node13 -->
<g id="node13" class="node">
<title>Node13</title>
<g id="a_node13"><a xlink:title=" ">
<polygon fill="white" stroke="#bfbfbf" points="47,-0.5 47,-19.5 100,-19.5 100,-0.5 47,-0.5"/>
<text text-anchor="middle" x="73.5" y="-7.5" font-family="Helvetica,sans-Serif" font-size="10.00">cstddef</text>
</a>
</g>
</g>
<!-- Node12&#45;&gt;Node13 -->
<g id="edge13" class="edge">
<title>Node12&#45;&gt;Node13</title>
<path fill="none" stroke="midnightblue" d="M73.5,-61.98C73.5,-53.58 73.5,-40.48 73.5,-29.66"/>
<polygon fill="midnightblue" stroke="midnightblue" points="77,-29.51 73.5,-19.51 70,-29.51 77,-29.51"/>
</g>
<!-- Node14&#45;&gt;Node3 -->
<g id="edge16" class="edge">
<title>Node14&#45;&gt;Node3</title>
<path fill="none" stroke="midnightblue" d="M499.93,-190.31C486.7,-169.63 453.14,-117.23 435.59,-89.82"/>
<polygon fill="midnightblue" stroke="midnightblue" points="438.45,-87.79 430.11,-81.26 432.55,-91.56 438.45,-87.79"/>
</g>
<!-- Node14&#45;&gt;Node4 -->
<g id="edge17" class="edge">
<title>Node14&#45;&gt;Node4</title>
<path fill="none" stroke="midnightblue" d="M487.3,-190.48C465.99,-180.49 430.47,-163.85 405.84,-152.31"/>
<polygon fill="midnightblue" stroke="midnightblue" points="407.2,-149.08 396.66,-148.01 404.23,-155.42 407.2,-149.08"/>
</g>
<!-- Node14&#45;&gt;Node5 -->
<g id="edge18" class="edge">
<title>Node14&#45;&gt;Node5</title>
<path fill="none" stroke="midnightblue" d="M505.43,-190.31C505.27,-169.99 504.87,-119.05 504.65,-91.28"/>
<polygon fill="midnightblue" stroke="midnightblue" points="508.15,-91.23 504.57,-81.26 501.15,-91.28 508.15,-91.23"/>
</g>
<!-- Node14&#45;&gt;Node6 -->
<g id="edge19" class="edge">
<title>Node14&#45;&gt;Node6</title>
<path fill="none" stroke="midnightblue" d="M494.59,-190.47C467.37,-168.98 397.55,-112.49 382.5,-87 372.04,-69.28 367.31,-45.96 365.19,-29.85"/>
<polygon fill="midnightblue" stroke="midnightblue" points="368.63,-29.14 364.06,-19.58 361.67,-29.9 368.63,-29.14"/>
</g>
<!-- Node14&#45;&gt;Node7 -->
<g id="edge20" class="edge">
<title>Node14&#45;&gt;Node7</title>
<path fill="none" stroke="midnightblue" d="M584.72,-194.56C673.81,-188.59 812.2,-176.08 859.5,-154 891.41,-139.11 919.56,-108.33 934.99,-89.15"/>
<polygon fill="midnightblue" stroke="midnightblue" points="937.76,-91.29 941.16,-81.25 932.25,-86.98 937.76,-91.29"/>
</g>
<!-- Node14&#45;&gt;Node8 -->
<g id="edge21" class="edge">
<title>Node14&#45;&gt;Node8</title>
<path fill="none" stroke="midnightblue" d="M584.76,-197.09C664.36,-193.49 789.89,-183.21 894.5,-154 952.6,-137.78 1015.69,-104.88 1048.93,-86.22"/>
<polygon fill="midnightblue" stroke="midnightblue" points="1050.91,-89.12 1057.87,-81.14 1047.45,-83.04 1050.91,-89.12"/>
</g>
<!-- Node15 -->
<g id="node15" class="node">
<title>Node15</title>
<g id="a_node15"><a xlink:href="iframer_8hpp.html" target="_top" xlink:title=" ">
<polygon fill="white" stroke="black" points="705,-129 705,-148 850,-148 850,-129 705,-129"/>
<text text-anchor="middle" x="777.5" y="-136" font-family="Helvetica,sans-Serif" font-size="10.00">unilink/framer/iframer.hpp</text>
</a>
</g>
</g>
<!-- Node14&#45;&gt;Node15 -->
<g id="edge22" class="edge">
<title>Node14&#45;&gt;Node15</title>
<path fill="none" stroke="midnightblue" d="M544.47,-190.48C593.05,-179.85 676.08,-161.68 728.8,-150.15"/>
<polygon fill="midnightblue" stroke="midnightblue" points="729.58,-153.57 738.6,-148.01 728.08,-146.73 729.58,-153.57"/>
</g>
<!-- Node20 -->
<g id="node20" class="node">
<title>Node20</title>
<g id="a_node20"><a xlink:href="context_8hpp.html" target="_top" xlink:title=" ">
<polygon fill="white" stroke="black" points="534,-129 534,-148 687,-148 687,-129 534,-129"/>
<text text-anchor="middle" x="610.5" y="-136" font-family="Helvetica,sans-Serif" font-size="10.00">unilink/wrapper/context.hpp</text>
</a>
</g>
</g>
<!-- Node14&#45;&gt;Node20 -->
<g id="edge31" class="edge">
<title>Node14&#45;&gt;Node20</title>
<path fill="none" stroke="midnightblue" d="M520.54,-190.48C537.78,-180.71 566.24,-164.58 586.53,-153.08"/>
<polygon fill="midnightblue" stroke="midnightblue" points="588.51,-155.98 595.48,-148.01 585.06,-149.89 588.51,-155.98"/>
</g>
<!-- Node15&#45;&gt;Node3 -->
<g id="edge23" class="edge">
<title>Node15&#45;&gt;Node3</title>
<path fill="none" stroke="midnightblue" d="M730.84,-128.97C719.6,-126.96 707.63,-124.87 696.5,-123 594.46,-105.88 566.91,-111.98 466.5,-87 463.28,-86.2 459.96,-85.26 456.66,-84.25"/>
<polygon fill="midnightblue" stroke="midnightblue" points="457.54,-80.85 446.95,-81.07 455.36,-87.51 457.54,-80.85"/>
</g>
<!-- Node15&#45;&gt;Node5 -->
<g id="edge24" class="edge">
<title>Node15&#45;&gt;Node5</title>
<path fill="none" stroke="midnightblue" d="M741.53,-128.94C690.36,-116.75 596.88,-94.5 543.9,-81.88"/>
<polygon fill="midnightblue" stroke="midnightblue" points="544.4,-78.4 533.86,-79.49 542.78,-85.21 544.4,-78.4"/>
</g>
<!-- Node15&#45;&gt;Node8 -->
<g id="edge26" class="edge">
<title>Node15&#45;&gt;Node8</title>
<path fill="none" stroke="midnightblue" d="M816.37,-128.94C869.65,-117.2 965.37,-96.11 1023.5,-83.3"/>
<polygon fill="midnightblue" stroke="midnightblue" points="1024.53,-86.65 1033.54,-81.08 1023.03,-79.82 1024.53,-86.65"/>
</g>
<!-- Node16 -->
<g id="node16" class="node">
<title>Node16</title>
<g id="a_node16"><a xlink:title=" ">
<polygon fill="white" stroke="#bfbfbf" points="846,-62 846,-81 893,-81 893,-62 846,-62"/>
<text text-anchor="middle" x="869.5" y="-69" font-family="Helvetica,sans-Serif" font-size="10.00">vector</text>
</a>
</g>
</g>
<!-- Node15&#45;&gt;Node16 -->
<g id="edge25" class="edge">
<title>Node15&#45;&gt;Node16</title>
<path fill="none" stroke="midnightblue" d="M789.91,-128.73C805.08,-118.01 830.98,-99.72 849.1,-86.91"/>
<polygon fill="midnightblue" stroke="midnightblue" points="851.14,-89.76 857.29,-81.13 847.1,-84.04 851.14,-89.76"/>
</g>
<!-- Node17 -->
<g id="node17" class="node">
<title>Node17</title>
<g id="a_node17"><a xlink:href="safe__span_8hpp.html" target="_top" xlink:title=" ">
<polygon fill="white" stroke="black" points="709.5,-56.5 709.5,-86.5 827.5,-86.5 827.5,-56.5 709.5,-56.5"/>
<text text-anchor="start" x="717.5" y="-74.5" font-family="Helvetica,sans-Serif" font-size="10.00">unilink/memory/safe</text>
<text text-anchor="middle" x="768.5" y="-63.5" font-family="Helvetica,sans-Serif" font-size="10.00">_span.hpp</text>
</a>
</g>
</g>
<!-- Node15&#45;&gt;Node17 -->
<g id="edge27" class="edge">
<title>Node15&#45;&gt;Node17</title>
<path fill="none" stroke="midnightblue" d="M776.29,-128.73C775.15,-120.54 773.4,-107.92 771.85,-96.71"/>
<polygon fill="midnightblue" stroke="midnightblue" points="775.29,-96.01 770.45,-86.59 768.36,-96.97 775.29,-96.01"/>
</g>
<!-- Node17&#45;&gt;Node10 -->
<g id="edge28" class="edge">
<title>Node17&#45;&gt;Node10</title>
<path fill="none" stroke="midnightblue" d="M709.24,-57.41C706.29,-56.9 703.37,-56.43 700.5,-56 605.35,-41.83 312.22,-20.57 210.61,-13.44"/>
<polygon fill="midnightblue" stroke="midnightblue" points="210.78,-9.94 200.56,-12.73 210.29,-16.92 210.78,-9.94"/>
</g>
<!-- Node18 -->
<g id="node18" class="node">
<title>Node18</title>
<g id="a_node18"><a xlink:title=" ">
<polygon fill="white" stroke="#bfbfbf" points="693,-0.5 693,-19.5 758,-19.5 758,-0.5 693,-0.5"/>
<text text-anchor="middle" x="725.5" y="-7.5" font-family="Helvetica,sans-Serif" font-size="10.00">stdexcept</text>
</a>
</g>
</g>
<!-- Node17&#45;&gt;Node18 -->
<g id="edge29" class="edge">
<title>Node17&#45;&gt;Node18</title>
<path fill="none" stroke="midnightblue" d="M758.31,-56.4C752.13,-47.84 744.2,-36.87 737.68,-27.86"/>
<polygon fill="midnightblue" stroke="midnightblue" points="740.45,-25.71 731.76,-19.66 734.78,-29.81 740.45,-25.71"/>
</g>
<!-- Node19 -->
<g id="node19" class="node">
<title>Node19</title>
<g id="a_node19"><a xlink:title=" ">
<polygon fill="white" stroke="#bfbfbf" points="776,-0.5 776,-19.5 845,-19.5 845,-0.5 776,-0.5"/>
<text text-anchor="middle" x="810.5" y="-7.5" font-family="Helvetica,sans-Serif" font-size="10.00">type_traits</text>
</a>
</g>
</g>
<!-- Node17&#45;&gt;Node19 -->
<g id="edge30" class="edge">
<title>Node17&#45;&gt;Node19</title>
<path fill="none" stroke="midnightblue" d="M778.45,-56.4C784.49,-47.84 792.24,-36.87 798.6,-27.86"/>
<polygon fill="midnightblue" stroke="midnightblue" points="801.48,-29.85 804.39,-19.66 795.76,-25.81 801.48,-29.85"/>
</g>
<!-- Node20&#45;&gt;Node6 -->
<g id="edge33" class="edge">
<title>Node20&#45;&gt;Node6</title>
<path fill="none" stroke="midnightblue" d="M605.79,-128.82C596.21,-112.01 572.77,-75.02 542.5,-56 496.81,-27.3 433.79,-16.89 396,-13.12"/>
<polygon fill="midnightblue" stroke="midnightblue" points="395.86,-9.59 385.58,-12.19 395.23,-16.57 395.86,-9.59"/>
</g>
<!-- Node20&#45;&gt;Node7 -->
<g id="edge34" class="edge">
<title>Node20&#45;&gt;Node7</title>
<path fill="none" stroke="midnightblue" d="M660.8,-128.99C741.2,-115.36 890.85,-89.87 902.5,-87 905.95,-86.15 909.52,-85.17 913.08,-84.13"/>
<polygon fill="midnightblue" stroke="midnightblue" points="914.39,-87.39 922.92,-81.11 912.33,-80.7 914.39,-87.39"/>
</g>
<!-- Node20&#45;&gt;Node11 -->
<g id="edge32" class="edge">
<title>Node20&#45;&gt;Node11</title>
<path fill="none" stroke="midnightblue" d="M570.58,-128.94C511.91,-116.35 403.15,-93.02 345.56,-80.67"/>
<polygon fill="midnightblue" stroke="midnightblue" points="346.28,-77.24 335.76,-78.56 344.81,-84.08 346.28,-77.24"/>
</g>
<!-- Node20&#45;&gt;Node16 -->
<g id="edge35" class="edge">
<title>Node20&#45;&gt;Node16</title>
<path fill="none" stroke="midnightblue" d="M661.98,-128.95C708.29,-120.56 777.86,-106.23 836.5,-87 838.37,-86.39 840.28,-85.7 842.2,-84.98"/>
<polygon fill="midnightblue" stroke="midnightblue" points="843.67,-88.16 851.59,-81.12 841.01,-81.68 843.67,-88.16"/>
</g>
<!-- Node20&#45;&gt;Node17 -->
<g id="edge38" class="edge">
<title>Node20&#45;&gt;Node17</title>
<path fill="none" stroke="midnightblue" d="M631.48,-128.87C655.19,-119.12 694.44,-102.97 724.86,-90.45"/>
<polygon fill="midnightblue" stroke="midnightblue" points="726.48,-93.57 734.4,-86.53 723.82,-87.1 726.48,-93.57"/>
</g>
<!-- Node21 -->
<g id="node21" class="node">
<title>Node21</title>
<g id="a_node21"><a xlink:href="error__codes_8hpp.html" target="_top" xlink:title=" ">
<polygon fill="white" stroke="black" points="589.5,-56.5 589.5,-86.5 691.5,-86.5 691.5,-56.5 589.5,-56.5"/>
<text text-anchor="start" x="597.5" y="-74.5" font-family="Helvetica,sans-Serif" font-size="10.00">unilink/base/error</text>
<text text-anchor="middle" x="640.5" y="-63.5" font-family="Helvetica,sans-Serif" font-size="10.00">_codes.hpp</text>
</a>
</g>
</g>
<!-- Node20&#45;&gt;Node21 -->
<g id="edge36" class="edge">
<title>Node20&#45;&gt;Node21</title>
<path fill="none" stroke="midnightblue" d="M614.55,-128.73C618.44,-120.29 624.51,-107.14 629.8,-95.68"/>
<polygon fill="midnightblue" stroke="midnightblue" points="632.98,-97.14 634,-86.59 626.63,-94.2 632.98,-97.14"/>
</g>
<!-- Node21&#45;&gt;Node6 -->
<g id="edge37" class="edge">
<title>Node21&#45;&gt;Node6</title>
<path fill="none" stroke="midnightblue" d="M589.42,-59.05C584.71,-58.01 580.02,-56.98 575.5,-56 511.78,-42.13 437.17,-26.42 395.62,-17.71"/>
<polygon fill="midnightblue" stroke="midnightblue" points="396.3,-14.28 385.8,-15.65 394.87,-21.13 396.3,-14.28"/>
</g>
</g>
</svg>
        <g id="navigator" transform="translate(0 0)" fill="#404254">
                <rect fill="#f2f5e9" fill-opacity="0.5" stroke="#606060" stroke-width=".5" x="0" y="0" width="60" height="60"/>
                <use id="zoomplus" xlink:href="#zoomPlus" x="17" y="9" onmousedown="handleZoom(evt,'in')"/>
                <use id="zoomminus" xlink:href="#zoomMin" x="42" y="9" onmousedown="handleZoom(evt,'out')"/>
                <use id="reset" xlink:href="#resetDef" x="30" y="36" onmousedown="handleReset()"/>
                <g id="arrowUp" xlink:href="#dirArrow" transform="translate(30 24)" onmousedown="handlePan(0,-1)">
                  <use xlink:href="#rim" fill="#404040">
                        <set attributeName="fill" to="#808080" begin="arrowUp.mouseover" end="arrowUp.mouseout"/>
                  </use>
                  <path fill="none" stroke="white" stroke-width="1.5" d="M0,-3.0v7 M-2.5,-0.5L0,-3.0L2.5,-0.5"/>
                </g>
                <g id="arrowRight" xlink:href="#dirArrow" transform="rotate(90) translate(36 -43)" onmousedown="handlePan(1,0)">
                  <use xlink:href="#rim" fill="#404040">
                        <set attributeName="fill" to="#808080" begin="arrowRight.mouseover" end="arrowRight.mouseout"/>
                  </use>
                  <path fill="none" stroke="white" stroke-width="1.5" d="M0,-3.0v7 M-2.5,-0.5L0,-3.0L2.5,-0.5"/>
                </g>
                <g id="arrowDown" xlink:href="#dirArrow" transform="rotate(180) translate(-30 -48)" onmousedown="handlePan(0,1)">
                  <use xlink:href="#rim" fill="#404040">
                        <set attributeName="fill" to="#808080" begin="arrowDown.mouseover" end="arrowDown.mouseout"/>
                  </use>
                  <path fill="none" stroke="white" stroke-width="1.5" d="M0,-3.0v7 M-2.5,-0.5L0,-3.0L2.5,-0.5"/>
                </g>
                <g id="arrowLeft" xlink:href="#dirArrow" transform="rotate(270) translate(-36 17)" onmousedown="handlePan(-1,0)">
                  <use xlink:href="#rim" fill="#404040">
                        <set attributeName="fill" to="#808080" begin="arrowLeft.mouseover" end="arrowLeft.mouseout"/>
                  </use>
                  <path fill="none" stroke="white" stroke-width="1.5" d="M0,-3.0v7 M-2.5,-0.5L0,-3.0L2.5,-0.5"/>
                </g>
        </g>
        <svg viewBox="0 0 15 15" width="100%" height="30px" preserveAspectRatio="xMaxYMin meet">
         <g id="arrow_out" transform="scale(0.3 0.3)">
          <a xlink:href="wrapper_2udp_2udp_8hpp__incl_org.svg" target="_base">
           <rect id="button" ry="5" rx="5" y="6" x="6" height="38" width="38"
                fill="#f2f5e9" fill-opacity="0.5" stroke="#606060" stroke-width="1.0"/>
           <path id="arrow"
             d="M 11.500037,31.436501 C 11.940474,20.09759 22.043105,11.32322 32.158766,21.979434 L 37.068811,17.246167 C 37.068811,17.246167 37.088388,32 37.088388,32 L 22.160133,31.978069 C 22.160133,31.978069 26.997745,27.140456 26.997745,27.140456 C 18.528582,18.264221 13.291696,25.230495 11.500037,31.436501 z"
             style="fill:#404040;"/>
          </a>
         </g>
        </svg>
</svg>
