<?xml version="1.0" encoding="UTF-8" standalone="no"?>
<!DOCTYPE svg PUBLIC "-//W3C//DTD SVG 1.1//EN"
 "http://www.w3.org/Graphics/SVG/1.1/DTD/svg11.dtd">
<!-- Generated by graphviz version 2.43.0 (0)
 -->
<!-- Title: unilink/wrapper/udp/udp.hpp Pages: 1 -->
<svg width="463pt" height="240pt"
 viewBox="0.00 0.00 463.00 240.00" xmlns="http://www.w3.org/2000/svg" xmlns:xlink="http://www.w3.org/1999/xlink">
<g id="graph0" class="graph" transform="scale(1 1) rotate(0) translate(4 236)">
<title>unilink/wrapper/udp/udp.hpp</title>
<polygon fill="white" stroke="transparent" points="-4,4 -4,-236 459,-236 459,4 -4,4"/>
<!-- Node1 -->
<g id="node1" class="node">
<title>Node1</title>
<g id="a_node1"><a xlink:title=" ">
<polygon fill="#bfbfbf" stroke="black" points="257,-201.5 257,-231.5 370,-231.5 370,-201.5 257,-201.5"/>
<text text-anchor="start" x="265" y="-219.5" font-family="Helvetica,sans-Serif" font-size="10.00">unilink/wrapper/udp</text>
<text text-anchor="middle" x="313.5" y="-208.5" font-family="Helvetica,sans-Serif" font-size="10.00">/udp.hpp</text>
</a>
</g>
</g>
<!-- Node2 -->
<g id="node2" class="node">
<title>Node2</title>
<g id="a_node2"><a xlink:href="udp__builder_8hpp.html" target="_top" xlink:title=" ">
<polygon fill="white" stroke="black" points="156,-134.5 156,-164.5 263,-164.5 263,-134.5 156,-134.5"/>
<text text-anchor="start" x="164" y="-152.5" font-family="Helvetica,sans-Serif" font-size="10.00">unilink/builder/udp</text>
<text text-anchor="middle" x="209.5" y="-141.5" font-family="Helvetica,sans-Serif" font-size="10.00">_builder.hpp</text>
</a>
</g>
</g>
<!-- Node1&#45;&gt;Node2 -->
<g id="edge1" class="edge">
<title>Node1&#45;&gt;Node2</title>
<path fill="none" stroke="midnightblue" d="M282.32,-196.02C266.14,-185.9 246.73,-173.77 232.02,-164.58"/>
<polygon fill="midnightblue" stroke="midnightblue" points="280.6,-199.06 290.93,-201.4 284.31,-193.13 280.6,-199.06"/>
</g>
<!-- Node6 -->
<g id="node6" class="node">
<title>Node6</title>
<g id="a_node6"><a xlink:href="unilink_8hpp.html" target="_top" xlink:title=" ">
<polygon fill="white" stroke="black" points="241,-6 241,-25 348,-25 348,-6 241,-6"/>
<text text-anchor="middle" x="294.5" y="-13" font-family="Helvetica,sans-Serif" font-size="10.00">unilink/unilink.hpp</text>
</a>
</g>
</g>
<!-- Node1&#45;&gt;Node6 -->
<g id="edge7" class="edge">
<title>Node1&#45;&gt;Node6</title>
<path fill="none" stroke="midnightblue" d="M311.16,-190.96C306.91,-146.43 298.1,-54.25 295.35,-25.36"/>
<polygon fill="midnightblue" stroke="midnightblue" points="307.7,-191.57 312.13,-201.19 314.67,-190.9 307.7,-191.57"/>
</g>
<!-- Node7 -->
<g id="node7" class="node">
<title>Node7</title>
<g id="a_node7"><a xlink:href="wrapper_2udp_2udp_8cc.html" target="_top" xlink:title=" ">
<polygon fill="white" stroke="black" points="342,-134.5 342,-164.5 455,-164.5 455,-134.5 342,-134.5"/>
<text text-anchor="start" x="350" y="-152.5" font-family="Helvetica,sans-Serif" font-size="10.00">unilink/wrapper/udp</text>
<text text-anchor="middle" x="398.5" y="-141.5" font-family="Helvetica,sans-Serif" font-size="10.00">/udp.cc</text>
</a>
</g>
</g>
<!-- Node1&#45;&gt;Node7 -->
<g id="edge8" class="edge">
<title>Node1&#45;&gt;Node7</title>
<path fill="none" stroke="midnightblue" d="M340.09,-195.17C353.09,-185.23 368.4,-173.51 380.09,-164.58"/>
<polygon fill="midnightblue" stroke="midnightblue" points="337.76,-192.54 331.94,-201.4 342.01,-198.1 337.76,-192.54"/>
</g>
<!-- Node3 -->
<g id="node3" class="node">
<title>Node3</title>
<g id="a_node3"><a xlink:href="udp__builder_8cc.html" target="_top" xlink:title=" ">
<polygon fill="white" stroke="black" points="0,-67.5 0,-97.5 107,-97.5 107,-67.5 0,-67.5"/>
<text text-anchor="start" x="8" y="-85.5" font-family="Helvetica,sans-Serif" font-size="10.00">unilink/builder/udp</text>
<text text-anchor="middle" x="53.5" y="-74.5" font-family="Helvetica,sans-Serif" font-size="10.00">_builder.cc</text>
</a>
</g>
</g>
<!-- Node2&#45;&gt;Node3 -->
<g id="edge2" class="edge">
<title>Node2&#45;&gt;Node3</title>
<path fill="none" stroke="midnightblue" d="M166.41,-130.54C141.44,-120.14 110.47,-107.24 87.28,-97.58"/>
<polygon fill="midnightblue" stroke="midnightblue" points="165.07,-133.78 175.65,-134.4 167.77,-127.32 165.07,-133.78"/>
</g>
<!-- Node4 -->
<g id="node4" class="node">
<title>Node4</title>
<g id="a_node4"><a xlink:href="unified__builder_8hpp.html" target="_top" xlink:title=" ">
<polygon fill="white" stroke="black" points="125.5,-67.5 125.5,-97.5 247.5,-97.5 247.5,-67.5 125.5,-67.5"/>
<text text-anchor="start" x="133.5" y="-85.5" font-family="Helvetica,sans-Serif" font-size="10.00">unilink/builder/unified</text>
<text text-anchor="middle" x="186.5" y="-74.5" font-family="Helvetica,sans-Serif" font-size="10.00">_builder.hpp</text>
</a>
</g>
</g>
<!-- Node2&#45;&gt;Node4 -->
<g id="edge3" class="edge">
<title>Node2&#45;&gt;Node4</title>
<path fill="none" stroke="midnightblue" d="M201.08,-124.7C197.85,-115.59 194.28,-105.49 191.48,-97.58"/>
<polygon fill="midnightblue" stroke="midnightblue" points="197.87,-126.14 204.51,-134.4 204.47,-123.8 197.87,-126.14"/>
</g>
<!-- Node2&#45;&gt;Node6 -->
<g id="edge6" class="edge">
<title>Node2&#45;&gt;Node6</title>
<path fill="none" stroke="midnightblue" d="M232.51,-126.81C240.72,-118.32 249.63,-108.19 256.5,-98 273.07,-73.4 285.98,-40.42 291.53,-25.05"/>
<polygon fill="midnightblue" stroke="midnightblue" points="229.83,-124.54 225.24,-134.09 234.78,-129.49 229.83,-124.54"/>
</g>
<!-- Node5 -->
<g id="node5" class="node">
<title>Node5</title>
<g id="a_node5"><a xlink:href="unified__builder_8cc.html" target="_top" xlink:title=" ">
<polygon fill="white" stroke="black" points="100.5,-0.5 100.5,-30.5 222.5,-30.5 222.5,-0.5 100.5,-0.5"/>
<text text-anchor="start" x="108.5" y="-18.5" font-family="Helvetica,sans-Serif" font-size="10.00">unilink/builder/unified</text>
<text text-anchor="middle" x="161.5" y="-7.5" font-family="Helvetica,sans-Serif" font-size="10.00">_builder.cc</text>
</a>
</g>
</g>
<!-- Node4&#45;&gt;Node5 -->
<g id="edge4" class="edge">
<title>Node4&#45;&gt;Node5</title>
<path fill="none" stroke="midnightblue" d="M177.46,-57.99C173.92,-48.8 169.99,-38.58 166.91,-30.58"/>
<polygon fill="midnightblue" stroke="midnightblue" points="174.22,-59.32 181.08,-67.4 180.75,-56.81 174.22,-59.32"/>
</g>
<!-- Node4&#45;&gt;Node6 -->
<g id="edge5" class="edge">
<title>Node4&#45;&gt;Node6</title>
<path fill="none" stroke="midnightblue" d="M218.67,-62.14C239.19,-49.79 264.78,-34.39 280.37,-25.01"/>
<polygon fill="midnightblue" stroke="midnightblue" points="216.7,-59.24 209.93,-67.4 220.31,-65.24 216.7,-59.24"/>
</g>
</g>
</svg>
