<?xml version="1.0" encoding="UTF-8" standalone="no"?>
<!DOCTYPE svg PUBLIC "-//W3C//DTD SVG 1.1//EN"
 "http://www.w3.org/Graphics/SVG/1.1/DTD/svg11.dtd">
<!-- Generated by graphviz version 2.43.0 (0)
 -->
<!-- Title: unilink/wrapper/tcp_server/tcp_server.hpp Pages: 1 -->
<!--zoomable 401 -->

<svg id="main" version="1.1" xmlns="http://www.w3.org/2000/svg" xmlns:xlink="http://www.w3.org/1999/xlink" xml:space="preserve" onload="init(evt)">
<style type="text/css"><![CDATA[
.node, .edge {opacity: 0.7;}
.node.selected, .edge.selected {opacity: 1;}
.edge:hover path { stroke: red; }
.edge:hover polygon { stroke: red; fill: red; }
]]></style>

<defs>
  <circle id="rim" cx="0" cy="0" r="7"/>
  <circle id="rim2" cx="0" cy="0" r="3.5"/>
  <g id="zoomPlus">
    <use xlink:href="#rim" fill="#404040"><set attributeName="fill" to="#808080" begin="zoomplus.mouseover" end="zoomplus.mouseout"/></use>
    <path d="M-4,0h8M0,-4v8" fill="none" stroke="white" stroke-width="1.5" pointer-events="none"/>
  </g>
  <g id="zoomMin">
    <use xlink:href="#rim" fill="#404040"><set attributeName="fill" to="#808080" begin="zoomminus.mouseover" end="zoomminus.mouseout"/></use>
    <path d="M-4,0h8" fill="none" stroke="white" stroke-width="1.5" pointer-events="none"/>
  </g>
  <g id="arrowUp" transform="translate(30 24)">
    <use xlink:href="#rim"/>
    <path pointer-events="none" fill="none" stroke="white" stroke-width="1.5" d="M0,-3.0v7 M-2.5,-0.5L0,-3.0L2.5,-0.5"/>
  </g>
  <g id="arrowRight" transform="rotate(90) translate(36 -43)">
    <use xlink:href="#rim"/>
    <path pointer-events="none" fill="none" stroke="white" stroke-width="1.5" d="M0,-3.0v7 M-2.5,-0.5L0,-3.0L2.5,-0.5"/>
  </g>
  <g id="arrowDown" transform="rotate(180) translate(-30 -48)">
    <use xlink:href="#rim"/>
    <path pointer-events="none" fill="none" stroke="white" stroke-width="1.5" d="M0,-3.0v7 M-2.5,-0.5L0,-3.0L2.5,-0.5"/>
  </g>
  <g id="arrowLeft" transform="rotate(270) translate(-36 17)">
    <use xlink:href="#rim"/>
    <path pointer-events="none" fill="none" stroke="white" stroke-width="1.5" d="M0,-3.0v7 M-2.5,-0.5L0,-3.0L2.5,-0.5"/>
  </g>
  <g id="resetDef">
    <use xlink:href="#rim2" fill="#404040"><set attributeName="fill" to="#808080" begin="reset.mouseover" end="reset.mouseout"/></use>
  </g>
</defs>
<script type="application/ecmascript">
var viewWidth = 2026;
var viewHeight = 401;
var sectionId = 'dynsection-0';
</script>
<script type="application/ecmascript" xlink:href="svg.min.js"/>
<svg id="graph" class="graph">
<g id="viewport">
<title>unilink/wrapper/tcp_server/tcp_server.hpp</title>
<!-- Node1 -->
<g id="Node000001" class="node">
<title>Node1</title>
<g id="a_Node000001"><a xlink:title=" ">
<polygon fill="#999999" stroke="#666666" points="569.5,-393 442.5,-393 442.5,-363 569.5,-363 569.5,-393"/>
<text text-anchor="start" x="450.5" y="-381" font-family="Helvetica,sans-Serif" font-size="10.00">unilink/wrapper/tcp</text>
<text text-anchor="middle" x="506" y="-370" font-family="Helvetica,sans-Serif" font-size="10.00">_server/tcp_server.hpp</text>
</a>
</g>
</g>
<!-- Node2 -->
<g id="Node000002" class="node">
<title>Node2</title>
<g id="a_Node000002"><a xlink:title=" ">
<polygon fill="#e0e0e0" stroke="#999999" points="768.5,-79.5 703.5,-79.5 703.5,-60.5 768.5,-60.5 768.5,-79.5"/>
<text text-anchor="middle" x="736" y="-67.5" font-family="Helvetica,sans-Serif" font-size="10.00">functional</text>
</a>
</g>
</g>
<!-- Node1&#45;&gt;Node2 -->
<g id="edge1_Node000001_Node000002" class="edge">
<title>Node1&#45;&gt;Node2</title>
<g id="a_edge1_Node000001_Node000002"><a xlink:title=" ">
<path fill="none" stroke="#63b8ff" d="M556.76,-362.93C601.05,-347.9 663.33,-319.56 697,-272 736.31,-216.48 707.25,-187.41 722,-121 724.33,-110.5 727.53,-98.93 730.28,-89.56"/>
<polygon fill="#63b8ff" stroke="#63b8ff" points="733.7,-90.36 733.23,-79.78 726.99,-88.34 733.7,-90.36"/>
</a>
</g>
</g>
<!-- Node3 -->
<g id="Node000003" class="node">
<title>Node3</title>
<g id="a_Node000003"><a xlink:title=" ">
<polygon fill="#e0e0e0" stroke="#999999" points="112,-272 66,-272 66,-253 112,-253 112,-272"/>
<text text-anchor="middle" x="89" y="-260" font-family="Helvetica,sans-Serif" font-size="10.00">future</text>
</a>
</g>
</g>
<!-- Node1&#45;&gt;Node3 -->
<g id="edge2_Node000001_Node000003" class="edge">
<title>Node1&#45;&gt;Node3</title>
<g id="a_edge2_Node000001_Node000003"><a xlink:title=" ">
<path fill="none" stroke="#63b8ff" d="M453.76,-362.93C416.7,-352.93 365.79,-339.18 321,-327 249.97,-307.68 166.76,-284.86 121.82,-272.52"/>
<polygon fill="#63b8ff" stroke="#63b8ff" points="122.61,-269.11 112.04,-269.83 120.76,-275.86 122.61,-269.11"/>
</a>
</g>
</g>
<!-- Node4 -->
<g id="Node000004" class="node">
<title>Node4</title>
<g id="a_Node000004"><a xlink:title=" ">
<polygon fill="#e0e0e0" stroke="#999999" points="521,-79.5 463,-79.5 463,-60.5 521,-60.5 521,-79.5"/>
<text text-anchor="middle" x="492" y="-67.5" font-family="Helvetica,sans-Serif" font-size="10.00">memory</text>
</a>
</g>
</g>
<!-- Node1&#45;&gt;Node4 -->
<g id="edge3_Node000001_Node000004" class="edge">
<title>Node1&#45;&gt;Node4</title>
<g id="a_edge3_Node000001_Node000004"><a xlink:title=" ">
<path fill="none" stroke="#63b8ff" d="M504.38,-362.75C500.43,-327.12 490.37,-231.25 487,-151 486.44,-137.68 486.34,-134.32 487,-121 487.51,-110.72 488.62,-99.29 489.66,-89.96"/>
<polygon fill="#63b8ff" stroke="#63b8ff" points="493.15,-90.17 490.85,-79.83 486.2,-89.35 493.15,-90.17"/>
</a>
</g>
</g>
<!-- Node5 -->
<g id="Node000005" class="node">
<title>Node5</title>
<g id="a_Node000005"><a xlink:title=" ">
<polygon fill="#e0e0e0" stroke="#999999" points="1532,-79.5 1488,-79.5 1488,-60.5 1532,-60.5 1532,-79.5"/>
<text text-anchor="middle" x="1510" y="-67.5" font-family="Helvetica,sans-Serif" font-size="10.00">string</text>
</a>
</g>
</g>
<!-- Node1&#45;&gt;Node5 -->
<g id="edge4_Node000001_Node000005" class="edge">
<title>Node1&#45;&gt;Node5</title>
<g id="a_edge4_Node000001_Node000005"><a xlink:title=" ">
<path fill="none" stroke="#63b8ff" d="M569.84,-373.45C768.4,-361.45 1371.6,-317.36 1536,-217 1576.72,-192.15 1606.38,-163.13 1584,-121 1578.59,-110.82 1554.51,-95.6 1535.26,-84.63"/>
<polygon fill="#63b8ff" stroke="#63b8ff" points="1536.74,-81.45 1526.31,-79.62 1533.33,-87.56 1536.74,-81.45"/>
</a>
</g>
</g>
<!-- Node6 -->
<g id="Node000006" class="node">
<title>Node6</title>
<g id="a_Node000006"><a xlink:title=" ">
<polygon fill="#e0e0e0" stroke="#999999" points="1623.5,-79.5 1550.5,-79.5 1550.5,-60.5 1623.5,-60.5 1623.5,-79.5"/>
<text text-anchor="middle" x="1587" y="-67.5" font-family="Helvetica,sans-Serif" font-size="10.00">string_view</text>
</a>
</g>
</g>
<!-- Node1&#45;&gt;Node6 -->
<g id="edge5_Node000001_Node000006" class="edge">
<title>Node1&#45;&gt;Node6</title>
<g id="a_edge5_Node000001_Node000006"><a xlink:title=" ">
<path fill="none" stroke="#63b8ff" d="M569.54,-374.97C835.04,-366.1 1842,-328.17 1842,-263.5 1842,-263.5 1842,-263.5 1842,-201 1842,-153.3 1698.61,-104.04 1626.88,-82.38"/>
<polygon fill="#63b8ff" stroke="#63b8ff" points="1627.84,-79.01 1617.25,-79.51 1625.84,-85.72 1627.84,-79.01"/>
</a>
</g>
</g>
<!-- Node7 -->
<g id="Node000007" class="node">
<title>Node7</title>
<g id="a_Node000007"><a xlink:title=" ">
<polygon fill="#e0e0e0" stroke="#999999" points="150.5,-79.5 103.5,-79.5 103.5,-60.5 150.5,-60.5 150.5,-79.5"/>
<text text-anchor="middle" x="127" y="-67.5" font-family="Helvetica,sans-Serif" font-size="10.00">vector</text>
</a>
</g>
</g>
<!-- Node1&#45;&gt;Node7 -->
<g id="edge6_Node000001_Node000007" class="edge">
<title>Node1&#45;&gt;Node7</title>
<g id="a_edge6_Node000001_Node000007"><a xlink:title=" ">
<path fill="none" stroke="#63b8ff" d="M442.43,-375.96C306.53,-372.02 0,-353.19 0,-263.5 0,-263.5 0,-263.5 0,-201 0,-144.72 61.66,-103.75 99.06,-84.08"/>
<polygon fill="#63b8ff" stroke="#63b8ff" points="100.66,-87.2 107.99,-79.55 97.49,-80.95 100.66,-87.2"/>
</a>
</g>
</g>
<!-- Node8 -->
<g id="Node000008" class="node">
<title>Node8</title>
<g id="a_Node000008"><a xlink:href="constants_8hpp.html" target="_top" xlink:title=" ">
<polygon fill="white" stroke="#666666" points="2017.5,-327 1870.5,-327 1870.5,-308 2017.5,-308 2017.5,-327"/>
<text text-anchor="middle" x="1944" y="-315" font-family="Helvetica,sans-Serif" font-size="10.00">unilink/base/constants.hpp</text>
</a>
</g>
</g>
<!-- Node1&#45;&gt;Node8 -->
<g id="edge7_Node000001_Node000008" class="edge">
<title>Node1&#45;&gt;Node8</title>
<g id="a_edge7_Node000001_Node000008"><a xlink:title=" ">
<path fill="none" stroke="#63b8ff" d="M569.67,-375.98C763.18,-372.6 1361.35,-360.02 1856,-327 1857.29,-326.91 1858.59,-326.82 1859.91,-326.73"/>
<polygon fill="#63b8ff" stroke="#63b8ff" points="1860.38,-330.21 1870.08,-325.96 1859.85,-323.23 1860.38,-330.21"/>
</a>
</g>
</g>
<!-- Node11 -->
<g id="Node000011" class="node">
<title>Node11</title>
<g id="a_Node000011"><a xlink:href="visibility_8hpp.html" target="_top" xlink:title=" ">
<polygon fill="white" stroke="#666666" points="445,-79.5 305,-79.5 305,-60.5 445,-60.5 445,-79.5"/>
<text text-anchor="middle" x="375" y="-67.5" font-family="Helvetica,sans-Serif" font-size="10.00">unilink/base/visibility.hpp</text>
</a>
</g>
</g>
<!-- Node1&#45;&gt;Node11 -->
<g id="edge10_Node000001_Node000011" class="edge">
<title>Node1&#45;&gt;Node11</title>
<g id="a_edge10_Node000001_Node000011"><a xlink:title=" ">
<path fill="none" stroke="#63b8ff" d="M442.4,-374.79C314.44,-368.61 38,-345.75 38,-263.5 38,-263.5 38,-263.5 38,-201 38,-142.33 218.06,-99.97 314.95,-81.42"/>
<polygon fill="#63b8ff" stroke="#63b8ff" points="315.73,-84.84 324.91,-79.55 314.44,-77.96 315.73,-84.84"/>
</a>
</g>
</g>
<!-- Node12 -->
<g id="Node000012" class="node">
<title>Node12</title>
<g id="a_Node000012"><a xlink:href="iserver_8hpp.html" target="_top" xlink:title=" ">
<polygon fill="white" stroke="#666666" points="478.5,-327 329.5,-327 329.5,-308 478.5,-308 478.5,-327"/>
<text text-anchor="middle" x="404" y="-315" font-family="Helvetica,sans-Serif" font-size="10.00">unilink/wrapper/iserver.hpp</text>
</a>
</g>
</g>
<!-- Node1&#45;&gt;Node12 -->
<g id="edge11_Node000001_Node000012" class="edge">
<title>Node1&#45;&gt;Node12</title>
<g id="a_edge11_Node000001_Node000012"><a xlink:title=" ">
<path fill="none" stroke="#63b8ff" d="M481.57,-362.99C465.31,-353.66 444.05,-341.47 427.9,-332.21"/>
<polygon fill="#63b8ff" stroke="#63b8ff" points="429.48,-329.08 419.06,-327.14 426,-335.15 429.48,-329.08"/>
</a>
</g>
</g>
<!-- Node9 -->
<g id="Node000009" class="node">
<title>Node9</title>
<g id="a_Node000009"><a xlink:title=" ">
<polygon fill="#e0e0e0" stroke="#999999" points="1923.5,-272 1870.5,-272 1870.5,-253 1923.5,-253 1923.5,-272"/>
<text text-anchor="middle" x="1897" y="-260" font-family="Helvetica,sans-Serif" font-size="10.00">cstddef</text>
</a>
</g>
</g>
<!-- Node8&#45;&gt;Node9 -->
<g id="edge8_Node000008_Node000009" class="edge">
<title>Node8&#45;&gt;Node9</title>
<g id="a_edge8_Node000008_Node000009"><a xlink:title=" ">
<path fill="none" stroke="#63b8ff" d="M1936.24,-307.75C1929.53,-300.18 1919.66,-289.05 1911.49,-279.84"/>
<polygon fill="#63b8ff" stroke="#63b8ff" points="1913.87,-277.25 1904.62,-272.09 1908.63,-281.89 1913.87,-277.25"/>
</a>
</g>
</g>
<!-- Node10 -->
<g id="Node000010" class="node">
<title>Node10</title>
<g id="a_Node000010"><a xlink:title=" ">
<polygon fill="#e0e0e0" stroke="#999999" points="1188,-19 1138,-19 1138,0 1188,0 1188,-19"/>
<text text-anchor="middle" x="1163" y="-7" font-family="Helvetica,sans-Serif" font-size="10.00">cstdint</text>
</a>
</g>
</g>
<!-- Node8&#45;&gt;Node10 -->
<g id="edge9_Node000008_Node000010" class="edge">
<title>Node8&#45;&gt;Node10</title>
<g id="a_edge9_Node000008_Node000010"><a xlink:title=" ">
<path fill="none" stroke="#63b8ff" d="M1945.01,-307.97C1947.17,-289.09 1952,-242.31 1952,-203 1952,-203 1952,-203 1952,-135 1952,-57.64 1352.53,-20.55 1198.65,-12.3"/>
<polygon fill="#63b8ff" stroke="#63b8ff" points="1198.53,-8.79 1188.36,-11.76 1198.16,-15.78 1198.53,-8.79"/>
</a>
</g>
</g>
<!-- Node12&#45;&gt;Node2 -->
<g id="edge12_Node000012_Node000002" class="edge">
<title>Node12&#45;&gt;Node2</title>
<g id="a_edge12_Node000012_Node000002"><a xlink:title=" ">
<path fill="none" stroke="#63b8ff" d="M415.43,-307.84C451.83,-280.29 568.37,-192.28 666,-121 682.52,-108.94 701.41,-95.47 715.39,-85.55"/>
<polygon fill="#63b8ff" stroke="#63b8ff" points="717.67,-88.23 723.8,-79.6 713.62,-82.52 717.67,-88.23"/>
</a>
</g>
</g>
<!-- Node12&#45;&gt;Node3 -->
<g id="edge13_Node000012_Node000003" class="edge">
<title>Node12&#45;&gt;Node3</title>
<g id="a_edge13_Node000012_Node000003"><a xlink:title=" ">
<path fill="none" stroke="#63b8ff" d="M343.33,-307.99C286.87,-299.78 200.49,-286.5 126,-272 124.73,-271.75 123.43,-271.49 122.12,-271.22"/>
<polygon fill="#63b8ff" stroke="#63b8ff" points="122.56,-267.74 112.04,-269.04 121.08,-274.58 122.56,-267.74"/>
</a>
</g>
</g>
<!-- Node12&#45;&gt;Node4 -->
<g id="edge14_Node000012_Node000004" class="edge">
<title>Node12&#45;&gt;Node4</title>
<g id="a_edge14_Node000012_Node000004"><a xlink:title=" ">
<path fill="none" stroke="#63b8ff" d="M404.96,-307.89C408.36,-279.76 421.38,-188.5 454,-121 459.88,-108.82 468.99,-96.71 476.81,-87.46"/>
<polygon fill="#63b8ff" stroke="#63b8ff" points="479.53,-89.66 483.5,-79.84 474.27,-85.04 479.53,-89.66"/>
</a>
</g>
</g>
<!-- Node12&#45;&gt;Node6 -->
<g id="edge15_Node000012_Node000006" class="edge">
<title>Node12&#45;&gt;Node6</title>
<g id="a_edge15_Node000012_Node000006"><a xlink:title=" ">
<path fill="none" stroke="#63b8ff" d="M478.6,-314.27C720.96,-306.45 1475.79,-277.43 1566,-217 1603.6,-191.81 1605.74,-165.9 1600,-121 1598.64,-110.39 1595.73,-98.8 1593,-89.46"/>
<polygon fill="#63b8ff" stroke="#63b8ff" points="1596.29,-88.24 1589.99,-79.72 1589.6,-90.31 1596.29,-88.24"/>
</a>
</g>
</g>
<!-- Node12&#45;&gt;Node7 -->
<g id="edge16_Node000012_Node000007" class="edge">
<title>Node12&#45;&gt;Node7</title>
<g id="a_edge16_Node000012_Node000007"><a xlink:title=" ">
<path fill="none" stroke="#63b8ff" d="M382.76,-307.99C335.33,-287.92 220.14,-233.08 158,-151 143.99,-132.49 135.55,-106.87 131.09,-89.65"/>
<polygon fill="#63b8ff" stroke="#63b8ff" points="134.44,-88.62 128.71,-79.71 127.63,-90.25 134.44,-88.62"/>
</a>
</g>
</g>
<!-- Node12&#45;&gt;Node11 -->
<g id="edge17_Node000012_Node000011" class="edge">
<title>Node12&#45;&gt;Node11</title>
<g id="a_edge17_Node000012_Node000011"><a xlink:title=" ">
<path fill="none" stroke="#63b8ff" d="M390.51,-307.74C358.34,-285.91 277.58,-225.5 248,-151 243.08,-138.61 240.49,-132.02 248,-121 261.19,-101.64 283.13,-89.77 305.1,-82.5"/>
<polygon fill="#63b8ff" stroke="#63b8ff" points="306.27,-85.81 314.83,-79.57 304.24,-79.1 306.27,-85.81"/>
</a>
</g>
</g>
<!-- Node13 -->
<g id="Node000013" class="node">
<title>Node13</title>
<g id="a_Node000013"><a xlink:href="iframer_8hpp.html" target="_top" xlink:title=" ">
<polygon fill="white" stroke="#666666" points="401.5,-145.5 256.5,-145.5 256.5,-126.5 401.5,-126.5 401.5,-145.5"/>
<text text-anchor="middle" x="329" y="-133.5" font-family="Helvetica,sans-Serif" font-size="10.00">unilink/framer/iframer.hpp</text>
</a>
</g>
</g>
<!-- Node12&#45;&gt;Node13 -->
<g id="edge18_Node000012_Node000013" class="edge">
<title>Node12&#45;&gt;Node13</title>
<g id="a_edge18_Node000012_Node000013"><a xlink:title=" ">
<path fill="none" stroke="#63b8ff" d="M400.38,-307.84C388.77,-280.06 352.3,-192.77 336.46,-154.86"/>
<polygon fill="#63b8ff" stroke="#63b8ff" points="339.67,-153.45 332.58,-145.57 333.21,-156.15 339.67,-153.45"/>
</a>
</g>
</g>
<!-- Node17 -->
<g id="Node000017" class="node">
<title>Node17</title>
<g id="a_Node000017"><a xlink:href="context_8hpp.html" target="_top" xlink:title=" ">
<polygon fill="white" stroke="#666666" points="687.5,-272 534.5,-272 534.5,-253 687.5,-253 687.5,-272"/>
<text text-anchor="middle" x="611" y="-260" font-family="Helvetica,sans-Serif" font-size="10.00">unilink/wrapper/context.hpp</text>
</a>
</g>
</g>
<!-- Node12&#45;&gt;Node17 -->
<g id="edge27_Node000012_Node000017" class="edge">
<title>Node12&#45;&gt;Node17</title>
<g id="a_edge27_Node000012_Node000017"><a xlink:title=" ">
<path fill="none" stroke="#63b8ff" d="M437.26,-307.98C472.61,-298.93 528.67,-284.58 567.51,-274.64"/>
<polygon fill="#63b8ff" stroke="#63b8ff" points="568.66,-277.95 577.48,-272.08 566.93,-271.17 568.66,-277.95"/>
</a>
</g>
</g>
<!-- Node13&#45;&gt;Node2 -->
<g id="edge19_Node000013_Node000002" class="edge">
<title>Node13&#45;&gt;Node2</title>
<g id="a_edge19_Node000013_Node000002"><a xlink:title=" ">
<path fill="none" stroke="#63b8ff" d="M387.24,-126.48C452.69,-116.82 562.06,-100.4 656,-85 668.17,-83 681.37,-80.74 693.47,-78.62"/>
<polygon fill="#63b8ff" stroke="#63b8ff" points="694.09,-82.06 703.33,-76.88 692.88,-75.17 694.09,-82.06"/>
</a>
</g>
</g>
<!-- Node13&#45;&gt;Node4 -->
<g id="edge20_Node000013_Node000004" class="edge">
<title>Node13&#45;&gt;Node4</title>
<g id="a_edge20_Node000013_Node000004"><a xlink:title=" ">
<path fill="none" stroke="#63b8ff" d="M350.98,-126.37C379.25,-115.27 428.54,-95.92 460.71,-83.28"/>
<polygon fill="#63b8ff" stroke="#63b8ff" points="462.08,-86.51 470.11,-79.6 459.52,-79.99 462.08,-86.51"/>
</a>
</g>
</g>
<!-- Node13&#45;&gt;Node7 -->
<g id="edge21_Node000013_Node000007" class="edge">
<title>Node13&#45;&gt;Node7</title>
<g id="a_edge21_Node000013_Node000007"><a xlink:title=" ">
<path fill="none" stroke="#63b8ff" d="M296.25,-126.5C261.94,-117.31 206.66,-101.74 160,-85 158.57,-84.49 157.12,-83.95 155.65,-83.39"/>
<polygon fill="#63b8ff" stroke="#63b8ff" points="156.63,-80.01 146.05,-79.52 154.02,-86.5 156.63,-80.01"/>
</a>
</g>
</g>
<!-- Node13&#45;&gt;Node11 -->
<g id="edge22_Node000013_Node000011" class="edge">
<title>Node13&#45;&gt;Node11</title>
<g id="a_edge22_Node000013_Node000011"><a xlink:title=" ">
<path fill="none" stroke="#63b8ff" d="M335.2,-126.37C342.23,-116.59 353.85,-100.42 362.73,-88.08"/>
<polygon fill="#63b8ff" stroke="#63b8ff" points="365.61,-90.07 368.6,-79.91 359.92,-85.98 365.61,-90.07"/>
</a>
</g>
</g>
<!-- Node14 -->
<g id="Node000014" class="node">
<title>Node14</title>
<g id="a_Node000014"><a xlink:href="safe__span_8hpp.html" target="_top" xlink:title=" ">
<polygon fill="white" stroke="#666666" points="287,-85 169,-85 169,-55 287,-55 287,-85"/>
<text text-anchor="start" x="177" y="-73" font-family="Helvetica,sans-Serif" font-size="10.00">unilink/memory/safe</text>
<text text-anchor="middle" x="228" y="-62" font-family="Helvetica,sans-Serif" font-size="10.00">_span.hpp</text>
</a>
</g>
</g>
<!-- Node13&#45;&gt;Node14 -->
<g id="edge23_Node000013_Node000014" class="edge">
<title>Node13&#45;&gt;Node14</title>
<g id="a_edge23_Node000013_Node000014"><a xlink:title=" ">
<path fill="none" stroke="#63b8ff" d="M315.38,-126.37C300.97,-117.24 277.75,-102.53 258.87,-90.56"/>
<polygon fill="#63b8ff" stroke="#63b8ff" points="260.6,-87.51 250.28,-85.12 256.85,-93.42 260.6,-87.51"/>
</a>
</g>
</g>
<!-- Node14&#45;&gt;Node10 -->
<g id="edge24_Node000014_Node000010" class="edge">
<title>Node14&#45;&gt;Node10</title>
<g id="a_edge24_Node000014_Node000010"><a xlink:title=" ">
<path fill="none" stroke="#63b8ff" d="M287.25,-56.25C290.2,-55.79 293.13,-55.37 296,-55 616.76,-13.99 1008.85,-10.46 1127.4,-10.4"/>
<polygon fill="#63b8ff" stroke="#63b8ff" points="1127.69,-13.9 1137.7,-10.4 1127.7,-6.9 1127.69,-13.9"/>
</a>
</g>
</g>
<!-- Node15 -->
<g id="Node000015" class="node">
<title>Node15</title>
<g id="a_Node000015"><a xlink:title=" ">
<polygon fill="#e0e0e0" stroke="#999999" points="248,-19 208,-19 208,0 248,0 248,-19"/>
<text text-anchor="middle" x="228" y="-7" font-family="Helvetica,sans-Serif" font-size="10.00">span</text>
</a>
</g>
</g>
<!-- Node14&#45;&gt;Node15 -->
<g id="edge25_Node000014_Node000015" class="edge">
<title>Node14&#45;&gt;Node15</title>
<g id="a_edge25_Node000014_Node000015"><a xlink:title=" ">
<path fill="none" stroke="#63b8ff" d="M228,-54.84C228,-47.21 228,-37.7 228,-29.45"/>
<polygon fill="#63b8ff" stroke="#63b8ff" points="231.5,-29.27 228,-19.27 224.5,-29.27 231.5,-29.27"/>
</a>
</g>
</g>
<!-- Node16 -->
<g id="Node000016" class="node">
<title>Node16</title>
<g id="a_Node000016"><a xlink:title=" ">
<polygon fill="#e0e0e0" stroke="#999999" points="581.5,-19 516.5,-19 516.5,0 581.5,0 581.5,-19"/>
<text text-anchor="middle" x="549" y="-7" font-family="Helvetica,sans-Serif" font-size="10.00">stdexcept</text>
</a>
</g>
</g>
<!-- Node14&#45;&gt;Node16 -->
<g id="edge26_Node000014_Node000016" class="edge">
<title>Node14&#45;&gt;Node16</title>
<g id="a_edge26_Node000014_Node000016"><a xlink:title=" ">
<path fill="none" stroke="#63b8ff" d="M287.32,-56.68C290.25,-56.11 293.16,-55.54 296,-55 369.77,-40.92 455.96,-26.11 506.31,-17.62"/>
<polygon fill="#63b8ff" stroke="#63b8ff" points="506.91,-21.07 516.19,-15.96 505.75,-14.17 506.91,-21.07"/>
</a>
</g>
</g>
<!-- Node17&#45;&gt;Node5 -->
<g id="edge29_Node000017_Node000005" class="edge">
<title>Node17&#45;&gt;Node5</title>
<g id="a_edge29_Node000017_Node000005"><a xlink:title=" ">
<path fill="none" stroke="#63b8ff" d="M687.93,-254.05C692.69,-253.67 697.41,-253.32 702,-253 790.43,-246.88 1417.5,-251.86 1499,-217 1538.02,-200.31 1551.33,-190.02 1568,-151 1573.24,-138.74 1573.55,-133.12 1568,-121 1561.14,-106.02 1547.33,-93.83 1534.91,-85.23"/>
<polygon fill="#63b8ff" stroke="#63b8ff" points="1536.52,-82.11 1526.22,-79.62 1532.72,-87.99 1536.52,-82.11"/>
</a>
</g>
</g>
<!-- Node17&#45;&gt;Node6 -->
<g id="edge30_Node000017_Node000006" class="edge">
<title>Node17&#45;&gt;Node6</title>
<g id="a_edge30_Node000017_Node000006"><a xlink:title=" ">
<path fill="none" stroke="#63b8ff" d="M687.93,-254.04C692.69,-253.66 697.41,-253.31 702,-253 794.54,-246.68 1454.27,-260.86 1536,-217 1567.96,-199.85 1572.14,-185.28 1584,-151 1590.94,-130.94 1590.67,-106.33 1589.32,-89.75"/>
<polygon fill="#63b8ff" stroke="#63b8ff" points="1592.79,-89.3 1588.29,-79.71 1585.83,-90.01 1592.79,-89.3"/>
</a>
</g>
</g>
<!-- Node17&#45;&gt;Node7 -->
<g id="edge31_Node000017_Node000007" class="edge">
<title>Node17&#45;&gt;Node7</title>
<g id="a_edge31_Node000017_Node000007"><a xlink:title=" ">
<path fill="none" stroke="#63b8ff" d="M534.26,-260.45C467.29,-257.32 368.52,-247.32 288,-217 238.16,-198.23 226.91,-187.35 188,-151 167.54,-131.89 148.78,-105.34 137.62,-88.16"/>
<polygon fill="#63b8ff" stroke="#63b8ff" points="140.55,-86.26 132.24,-79.69 134.65,-90.01 140.55,-86.26"/>
</a>
</g>
</g>
<!-- Node17&#45;&gt;Node14 -->
<g id="edge73_Node000017_Node000014" class="edge">
<title>Node17&#45;&gt;Node14</title>
<g id="a_edge73_Node000017_Node000014"><a xlink:title=" ">
<path fill="none" stroke="#63b8ff" d="M534.4,-259.4C452.04,-252.91 322.89,-229.78 248,-151 233.87,-136.14 229.29,-112.85 228,-95.23"/>
<polygon fill="#63b8ff" stroke="#63b8ff" points="231.49,-94.95 227.56,-85.11 224.5,-95.26 231.49,-94.95"/>
</a>
</g>
</g>
<!-- Node18 -->
<g id="Node000018" class="node">
<title>Node18</title>
<g id="a_Node000018"><a xlink:title=" ">
<polygon fill="#e0e0e0" stroke="#999999" points="677,-211.5 621,-211.5 621,-192.5 677,-192.5 677,-211.5"/>
<text text-anchor="middle" x="649" y="-199.5" font-family="Helvetica,sans-Serif" font-size="10.00">optional</text>
</a>
</g>
</g>
<!-- Node17&#45;&gt;Node18 -->
<g id="edge28_Node000017_Node000018" class="edge">
<title>Node17&#45;&gt;Node18</title>
<g id="a_edge28_Node000017_Node000018"><a xlink:title=" ">
<path fill="none" stroke="#63b8ff" d="M616.61,-252.87C622.16,-244.31 630.83,-230.97 637.8,-220.24"/>
<polygon fill="#63b8ff" stroke="#63b8ff" points="640.86,-221.96 643.37,-211.67 634.99,-218.15 640.86,-221.96"/>
</a>
</g>
</g>
<!-- Node19 -->
<g id="Node000019" class="node">
<title>Node19</title>
<g id="a_Node000019"><a xlink:href="common_8hpp.html" target="_top" xlink:title=" ">
<polygon fill="white" stroke="#666666" points="1265.5,-211.5 1122.5,-211.5 1122.5,-192.5 1265.5,-192.5 1265.5,-211.5"/>
<text text-anchor="middle" x="1194" y="-199.5" font-family="Helvetica,sans-Serif" font-size="10.00">unilink/base/common.hpp</text>
</a>
</g>
</g>
<!-- Node17&#45;&gt;Node19 -->
<g id="edge32_Node000017_Node000019" class="edge">
<title>Node17&#45;&gt;Node19</title>
<g id="a_edge32_Node000017_Node000019"><a xlink:title=" ">
<path fill="none" stroke="#63b8ff" d="M687.52,-253.82C797.57,-242.78 999.68,-222.5 1112.46,-211.18"/>
<polygon fill="#63b8ff" stroke="#63b8ff" points="1112.82,-214.66 1122.42,-210.18 1112.12,-207.7 1112.82,-214.66"/>
</a>
</g>
</g>
<!-- Node32 -->
<g id="Node000032" class="node">
<title>Node32</title>
<g id="a_Node000032"><a xlink:href="error__codes_8hpp.html" target="_top" xlink:title=" ">
<polygon fill="white" stroke="#666666" points="1490,-217 1388,-217 1388,-187 1490,-187 1490,-217"/>
<text text-anchor="start" x="1396" y="-205" font-family="Helvetica,sans-Serif" font-size="10.00">unilink/base/error</text>
<text text-anchor="middle" x="1439" y="-194" font-family="Helvetica,sans-Serif" font-size="10.00">_codes.hpp</text>
</a>
</g>
</g>
<!-- Node17&#45;&gt;Node32 -->
<g id="edge60_Node000017_Node000032" class="edge">
<title>Node17&#45;&gt;Node32</title>
<g id="a_edge60_Node000017_Node000032"><a xlink:title=" ">
<path fill="none" stroke="#63b8ff" d="M687.94,-254.15C692.7,-253.74 697.41,-253.36 702,-253 956.39,-233.13 1020.53,-235.85 1275,-217 1308.92,-214.49 1346.76,-211.28 1377.54,-208.58"/>
<polygon fill="#63b8ff" stroke="#63b8ff" points="1378.03,-212.05 1387.69,-207.68 1377.42,-205.07 1378.03,-212.05"/>
</a>
</g>
</g>
<!-- Node33 -->
<g id="Node000033" class="node">
<title>Node33</title>
<g id="a_Node000033"><a xlink:href="safe__data__buffer_8hpp.html" target="_top" xlink:title=" ">
<polygon fill="white" stroke="#666666" points="614,-151 496,-151 496,-121 614,-121 614,-151"/>
<text text-anchor="start" x="504" y="-139" font-family="Helvetica,sans-Serif" font-size="10.00">unilink/memory/safe</text>
<text text-anchor="middle" x="555" y="-128" font-family="Helvetica,sans-Serif" font-size="10.00">_data_buffer.hpp</text>
</a>
</g>
</g>
<!-- Node17&#45;&gt;Node33 -->
<g id="edge62_Node000017_Node000033" class="edge">
<title>Node17&#45;&gt;Node33</title>
<g id="a_edge62_Node000017_Node000033"><a xlink:title=" ">
<path fill="none" stroke="#63b8ff" d="M607.15,-252.94C598.7,-234.15 578.27,-188.73 565.64,-160.64"/>
<polygon fill="#63b8ff" stroke="#63b8ff" points="568.66,-158.84 561.37,-151.16 562.28,-161.72 568.66,-158.84"/>
</a>
</g>
</g>
<!-- Node19&#45;&gt;Node2 -->
<g id="edge37_Node000019_Node000002" class="edge">
<title>Node19&#45;&gt;Node2</title>
<g id="a_edge37_Node000019_Node000002"><a xlink:title=" ">
<path fill="none" stroke="#63b8ff" d="M1122.17,-198.28C999.99,-192.9 762.38,-178.96 737,-151 722.08,-134.57 725.39,-107.49 729.99,-89.46"/>
<polygon fill="#63b8ff" stroke="#63b8ff" points="733.37,-90.38 732.8,-79.8 726.65,-88.43 733.37,-90.38"/>
</a>
</g>
</g>
<!-- Node19&#45;&gt;Node5 -->
<g id="edge42_Node000019_Node000005" class="edge">
<title>Node19&#45;&gt;Node5</title>
<g id="a_edge42_Node000019_Node000005"><a xlink:title=" ">
<path fill="none" stroke="#63b8ff" d="M1265.87,-193.63C1350.56,-184.27 1481.88,-167.35 1498,-151 1513.68,-135.1 1514.51,-108.09 1512.89,-89.9"/>
<polygon fill="#63b8ff" stroke="#63b8ff" points="1516.35,-89.4 1511.67,-79.9 1509.41,-90.25 1516.35,-89.4"/>
</a>
</g>
</g>
<!-- Node19&#45;&gt;Node6 -->
<g id="edge43_Node000019_Node000006" class="edge">
<title>Node19&#45;&gt;Node6</title>
<g id="a_edge43_Node000019_Node000006"><a xlink:title=" ">
<path fill="none" stroke="#63b8ff" d="M1265.53,-195.74C1347.45,-188.72 1475.81,-174.38 1518,-151 1544.64,-136.24 1565.75,-106.97 1577.3,-88.22"/>
<polygon fill="#63b8ff" stroke="#63b8ff" points="1580.37,-89.9 1582.44,-79.51 1574.34,-86.34 1580.37,-89.9"/>
</a>
</g>
</g>
<!-- Node19&#45;&gt;Node7 -->
<g id="edge45_Node000019_Node000007" class="edge">
<title>Node19&#45;&gt;Node7</title>
<g id="a_edge45_Node000019_Node000007"><a xlink:title=" ">
<path fill="none" stroke="#63b8ff" d="M1122.39,-199.38C916.13,-194.42 330.15,-178.09 248,-151 206.62,-137.36 165.9,-105.61 143.85,-86.46"/>
<polygon fill="#63b8ff" stroke="#63b8ff" points="145.9,-83.6 136.1,-79.58 141.25,-88.83 145.9,-83.6"/>
</a>
</g>
</g>
<!-- Node19&#45;&gt;Node10 -->
<g id="edge34_Node000019_Node000010" class="edge">
<title>Node19&#45;&gt;Node10</title>
<g id="a_edge34_Node000019_Node000010"><a xlink:title=" ">
<path fill="none" stroke="#63b8ff" d="M1265.75,-195.33C1354.35,-187.57 1499.4,-172.14 1549,-151 1601.15,-128.77 1671.15,-96.94 1633,-55 1603.84,-22.95 1302.1,-13.48 1198.04,-11.16"/>
<polygon fill="#63b8ff" stroke="#63b8ff" points="1198.11,-7.66 1188.04,-10.95 1197.96,-14.66 1198.11,-7.66"/>
</a>
</g>
</g>
<!-- Node19&#45;&gt;Node16 -->
<g id="edge41_Node000019_Node000016" class="edge">
<title>Node19&#45;&gt;Node16</title>
<g id="a_edge41_Node000019_Node000016"><a xlink:title=" ">
<path fill="none" stroke="#63b8ff" d="M1122.24,-196.34C1068.64,-190.72 994.64,-178.32 935,-151 915.44,-142.04 914.91,-132.92 897,-121 846.66,-87.49 834.83,-75.69 778,-55 715.38,-32.2 638.64,-20.32 591.81,-14.75"/>
<polygon fill="#63b8ff" stroke="#63b8ff" points="592.05,-11.25 581.72,-13.59 591.25,-18.21 592.05,-11.25"/>
</a>
</g>
</g>
<!-- Node20 -->
<g id="Node000020" class="node">
<title>Node20</title>
<g id="a_Node000020"><a xlink:title=" ">
<polygon fill="#e0e0e0" stroke="#999999" points="1356,-79.5 1306,-79.5 1306,-60.5 1356,-60.5 1356,-79.5"/>
<text text-anchor="middle" x="1331" y="-67.5" font-family="Helvetica,sans-Serif" font-size="10.00">chrono</text>
</a>
</g>
</g>
<!-- Node19&#45;&gt;Node20 -->
<g id="edge33_Node000019_Node000020" class="edge">
<title>Node19&#45;&gt;Node20</title>
<g id="a_edge33_Node000019_Node000020"><a xlink:title=" ">
<path fill="none" stroke="#63b8ff" d="M1265.79,-193.31C1346.22,-183.96 1467.23,-167.38 1481,-151 1516.42,-108.87 1420.64,-85.67 1366.01,-76.17"/>
<polygon fill="#63b8ff" stroke="#63b8ff" points="1366.45,-72.7 1356.01,-74.51 1365.3,-79.6 1366.45,-72.7"/>
</a>
</g>
</g>
<!-- Node21 -->
<g id="Node000021" class="node">
<title>Node21</title>
<g id="a_Node000021"><a xlink:title=" ">
<polygon fill="#e0e0e0" stroke="#999999" points="1120,-145.5 1070,-145.5 1070,-126.5 1120,-126.5 1120,-145.5"/>
<text text-anchor="middle" x="1095" y="-133.5" font-family="Helvetica,sans-Serif" font-size="10.00">cstring</text>
</a>
</g>
</g>
<!-- Node19&#45;&gt;Node21 -->
<g id="edge35_Node000019_Node000021" class="edge">
<title>Node19&#45;&gt;Node21</title>
<g id="a_edge35_Node000019_Node000021"><a xlink:title=" ">
<path fill="none" stroke="#63b8ff" d="M1180.65,-192.37C1164.34,-181.82 1136.51,-163.84 1117.01,-151.23"/>
<polygon fill="#63b8ff" stroke="#63b8ff" points="1118.75,-148.19 1108.46,-145.7 1114.95,-154.07 1118.75,-148.19"/>
</a>
</g>
</g>
<!-- Node22 -->
<g id="Node000022" class="node">
<title>Node22</title>
<g id="a_Node000022"><a xlink:title=" ">
<polygon fill="#e0e0e0" stroke="#999999" points="1182,-145.5 1138,-145.5 1138,-126.5 1182,-126.5 1182,-145.5"/>
<text text-anchor="middle" x="1160" y="-133.5" font-family="Helvetica,sans-Serif" font-size="10.00">ctime</text>
</a>
</g>
</g>
<!-- Node19&#45;&gt;Node22 -->
<g id="edge36_Node000019_Node000022" class="edge">
<title>Node19&#45;&gt;Node22</title>
<g id="a_edge36_Node000019_Node000022"><a xlink:title=" ">
<path fill="none" stroke="#63b8ff" d="M1189.41,-192.37C1184.32,-182.78 1175.96,-167.05 1169.46,-154.8"/>
<polygon fill="#63b8ff" stroke="#63b8ff" points="1172.51,-153.09 1164.73,-145.91 1166.33,-156.38 1172.51,-153.09"/>
</a>
</g>
</g>
<!-- Node23 -->
<g id="Node000023" class="node">
<title>Node23</title>
<g id="a_Node000023"><a xlink:title=" ">
<polygon fill="#e0e0e0" stroke="#999999" points="1256,-145.5 1200,-145.5 1200,-126.5 1256,-126.5 1256,-145.5"/>
<text text-anchor="middle" x="1228" y="-133.5" font-family="Helvetica,sans-Serif" font-size="10.00">iomanip</text>
</a>
</g>
</g>
<!-- Node19&#45;&gt;Node23 -->
<g id="edge38_Node000019_Node000023" class="edge">
<title>Node19&#45;&gt;Node23</title>
<g id="a_edge38_Node000019_Node000023"><a xlink:title=" ">
<path fill="none" stroke="#63b8ff" d="M1198.59,-192.37C1203.68,-182.78 1212.04,-167.05 1218.54,-154.8"/>
<polygon fill="#63b8ff" stroke="#63b8ff" points="1221.67,-156.38 1223.27,-145.91 1215.49,-153.09 1221.67,-156.38"/>
</a>
</g>
</g>
<!-- Node24 -->
<g id="Node000024" class="node">
<title>Node24</title>
<g id="a_Node000024"><a xlink:title=" ">
<polygon fill="#e0e0e0" stroke="#999999" points="1334,-145.5 1274,-145.5 1274,-126.5 1334,-126.5 1334,-145.5"/>
<text text-anchor="middle" x="1304" y="-133.5" font-family="Helvetica,sans-Serif" font-size="10.00">iostream</text>
</a>
</g>
</g>
<!-- Node19&#45;&gt;Node24 -->
<g id="edge39_Node000019_Node000024" class="edge">
<title>Node19&#45;&gt;Node24</title>
<g id="a_edge39_Node000019_Node000024"><a xlink:title=" ">
<path fill="none" stroke="#63b8ff" d="M1208.84,-192.37C1227.12,-181.73 1258.44,-163.51 1280.13,-150.89"/>
<polygon fill="#63b8ff" stroke="#63b8ff" points="1282.17,-153.75 1289.05,-145.7 1278.64,-147.7 1282.17,-153.75"/>
</a>
</g>
</g>
<!-- Node25 -->
<g id="Node000025" class="node">
<title>Node25</title>
<g id="a_Node000025"><a xlink:title=" ">
<polygon fill="#e0e0e0" stroke="#999999" points="1408,-145.5 1352,-145.5 1352,-126.5 1408,-126.5 1408,-145.5"/>
<text text-anchor="middle" x="1380" y="-133.5" font-family="Helvetica,sans-Serif" font-size="10.00">sstream</text>
</a>
</g>
</g>
<!-- Node19&#45;&gt;Node25 -->
<g id="edge40_Node000019_Node000025" class="edge">
<title>Node19&#45;&gt;Node25</title>
<g id="a_edge40_Node000019_Node000025"><a xlink:title=" ">
<path fill="none" stroke="#63b8ff" d="M1220.48,-192.45C1250.35,-182.73 1300.34,-166.22 1343,-151 1344.65,-150.41 1346.33,-149.8 1348.03,-149.18"/>
<polygon fill="#63b8ff" stroke="#63b8ff" points="1349.59,-152.34 1357.75,-145.58 1347.15,-145.78 1349.59,-152.34"/>
</a>
</g>
</g>
<!-- Node26 -->
<g id="Node000026" class="node">
<title>Node26</title>
<g id="a_Node000026"><a xlink:title=" ">
<polygon fill="#e0e0e0" stroke="#999999" points="1471.5,-145.5 1426.5,-145.5 1426.5,-126.5 1471.5,-126.5 1471.5,-145.5"/>
<text text-anchor="middle" x="1449" y="-133.5" font-family="Helvetica,sans-Serif" font-size="10.00">utility</text>
</a>
</g>
</g>
<!-- Node19&#45;&gt;Node26 -->
<g id="edge44_Node000019_Node000026" class="edge">
<title>Node19&#45;&gt;Node26</title>
<g id="a_edge44_Node000019_Node000026"><a xlink:title=" ">
<path fill="none" stroke="#63b8ff" d="M1244.79,-192.49C1290.48,-184.16 1359.12,-169.96 1417,-151 1418.44,-150.53 1419.91,-150.01 1421.38,-149.47"/>
<polygon fill="#63b8ff" stroke="#63b8ff" points="1422.99,-152.6 1430.96,-145.61 1420.38,-146.1 1422.99,-152.6"/>
</a>
</g>
</g>
<!-- Node27 -->
<g id="Node000027" class="node">
<title>Node27</title>
<g id="a_Node000027"><a xlink:href="platform_8hpp.html" target="_top" xlink:title=" ">
<polygon fill="white" stroke="#666666" points="888,-145.5 746,-145.5 746,-126.5 888,-126.5 888,-145.5"/>
<text text-anchor="middle" x="817" y="-133.5" font-family="Helvetica,sans-Serif" font-size="10.00">unilink/base/platform.hpp</text>
</a>
</g>
</g>
<!-- Node19&#45;&gt;Node27 -->
<g id="edge46_Node000019_Node000027" class="edge">
<title>Node19&#45;&gt;Node27</title>
<g id="a_edge46_Node000019_Node000027"><a xlink:title=" ">
<path fill="none" stroke="#63b8ff" d="M1143.55,-192.44C1074.56,-180.72 950.97,-159.74 877.22,-147.22"/>
<polygon fill="#63b8ff" stroke="#63b8ff" points="877.6,-143.74 867.15,-145.51 876.43,-150.64 877.6,-143.74"/>
</a>
</g>
</g>
<!-- Node28 -->
<g id="Node000028" class="node">
<title>Node28</title>
<g id="a_Node000028"><a xlink:href="logger_8hpp.html" target="_top" xlink:title=" ">
<polygon fill="white" stroke="#666666" points="1052,-151 944,-151 944,-121 1052,-121 1052,-151"/>
<text text-anchor="start" x="952" y="-139" font-family="Helvetica,sans-Serif" font-size="10.00">unilink/diagnostics</text>
<text text-anchor="middle" x="998" y="-128" font-family="Helvetica,sans-Serif" font-size="10.00">/logger.hpp</text>
</a>
</g>
</g>
<!-- Node19&#45;&gt;Node28 -->
<g id="edge49_Node000019_Node000028" class="edge">
<title>Node19&#45;&gt;Node28</title>
<g id="a_edge49_Node000019_Node000028"><a xlink:title=" ">
<path fill="none" stroke="#63b8ff" d="M1167.57,-192.37C1137.83,-182.66 1088.77,-166.64 1051.05,-154.32"/>
<polygon fill="#63b8ff" stroke="#63b8ff" points="1051.82,-150.89 1041.23,-151.12 1049.65,-157.55 1051.82,-150.89"/>
</a>
</g>
</g>
<!-- Node27&#45;&gt;Node5 -->
<g id="edge47_Node000027_Node000005" class="edge">
<title>Node27&#45;&gt;Node5</title>
<g id="a_edge47_Node000027_Node000005"><a xlink:title=" ">
<path fill="none" stroke="#63b8ff" d="M885.28,-126.49C901.56,-124.58 918.89,-122.63 935,-121 1125.81,-101.7 1173.99,-102.22 1365,-85 1403.81,-81.5 1448.43,-77.14 1477.8,-74.23"/>
<polygon fill="#63b8ff" stroke="#63b8ff" points="1478.3,-77.7 1487.9,-73.22 1477.6,-70.73 1478.3,-77.7"/>
</a>
</g>
</g>
<!-- Node27&#45;&gt;Node11 -->
<g id="edge48_Node000027_Node000011" class="edge">
<title>Node27&#45;&gt;Node11</title>
<g id="a_edge48_Node000027_Node000011"><a xlink:title=" ">
<path fill="none" stroke="#63b8ff" d="M749.31,-126.47C676.32,-117.08 556.75,-101.17 454,-85 446.63,-83.84 438.89,-82.55 431.26,-81.24"/>
<polygon fill="#63b8ff" stroke="#63b8ff" points="431.77,-77.78 421.32,-79.52 430.57,-84.68 431.77,-77.78"/>
</a>
</g>
</g>
<!-- Node28&#45;&gt;Node2 -->
<g id="edge53_Node000028_Node000002" class="edge">
<title>Node28&#45;&gt;Node2</title>
<g id="a_edge53_Node000028_Node000002"><a xlink:title=" ">
<path fill="none" stroke="#63b8ff" d="M943.71,-121.74C894.66,-109.76 823.46,-92.36 778.46,-81.37"/>
<polygon fill="#63b8ff" stroke="#63b8ff" points="779.26,-77.97 768.72,-78.99 777.6,-84.77 779.26,-77.97"/>
</a>
</g>
</g>
<!-- Node28&#45;&gt;Node4 -->
<g id="edge54_Node000028_Node000004" class="edge">
<title>Node28&#45;&gt;Node4</title>
<g id="a_edge54_Node000028_Node000004"><a xlink:title=" ">
<path fill="none" stroke="#63b8ff" d="M943.79,-127.2C928.65,-125.1 912.2,-122.89 897,-121 751.46,-102.93 714.12,-106.13 569,-85 556.6,-83.2 543.15,-80.87 531.01,-78.64"/>
<polygon fill="#63b8ff" stroke="#63b8ff" points="531.64,-75.2 521.17,-76.8 530.36,-82.08 531.64,-75.2"/>
</a>
</g>
</g>
<!-- Node28&#45;&gt;Node5 -->
<g id="edge56_Node000028_Node000005" class="edge">
<title>Node28&#45;&gt;Node5</title>
<g id="a_edge56_Node000028_Node000005"><a xlink:title=" ">
<path fill="none" stroke="#63b8ff" d="M1052.22,-122.56C1055.19,-122 1058.13,-121.48 1061,-121 1141.67,-107.59 1388.82,-82.85 1477.72,-74.14"/>
<polygon fill="#63b8ff" stroke="#63b8ff" points="1478.15,-77.61 1487.76,-73.16 1477.46,-70.65 1478.15,-77.61"/>
</a>
</g>
</g>
<!-- Node28&#45;&gt;Node6 -->
<g id="edge57_Node000028_Node000006" class="edge">
<title>Node28&#45;&gt;Node6</title>
<g id="a_edge57_Node000028_Node000006"><a xlink:title=" ">
<path fill="none" stroke="#63b8ff" d="M1052.2,-122.44C1055.17,-121.91 1058.12,-121.43 1061,-121 1272.63,-89.71 1330.72,-124.38 1541,-85 1544.86,-84.28 1548.85,-83.35 1552.8,-82.31"/>
<polygon fill="#63b8ff" stroke="#63b8ff" points="1553.76,-85.68 1562.42,-79.57 1551.84,-78.94 1553.76,-85.68"/>
</a>
</g>
</g>
<!-- Node28&#45;&gt;Node7 -->
<g id="edge58_Node000028_Node000007" class="edge">
<title>Node28&#45;&gt;Node7</title>
<g id="a_edge58_Node000028_Node000007"><a xlink:title=" ">
<path fill="none" stroke="#63b8ff" d="M943.85,-126.59C928.72,-124.49 912.25,-122.43 897,-121 570.48,-90.46 479.68,-158.17 160,-85 157.83,-84.5 155.62,-83.87 153.43,-83.15"/>
<polygon fill="#63b8ff" stroke="#63b8ff" points="154.68,-79.88 144.09,-79.6 152.19,-86.42 154.68,-79.88"/>
</a>
</g>
</g>
<!-- Node28&#45;&gt;Node11 -->
<g id="edge59_Node000028_Node000011" class="edge">
<title>Node28&#45;&gt;Node11</title>
<g id="a_edge59_Node000028_Node000011"><a xlink:title=" ">
<path fill="none" stroke="#63b8ff" d="M943.82,-126.91C928.69,-124.81 912.22,-122.67 897,-121 700.64,-99.43 649.92,-110.26 454,-85 445.85,-83.95 437.26,-82.64 428.86,-81.24"/>
<polygon fill="#63b8ff" stroke="#63b8ff" points="429.21,-77.75 418.76,-79.51 428.03,-84.65 429.21,-77.75"/>
</a>
</g>
</g>
<!-- Node28&#45;&gt;Node20 -->
<g id="edge51_Node000028_Node000020" class="edge">
<title>Node28&#45;&gt;Node20</title>
<g id="a_edge51_Node000028_Node000020"><a xlink:title=" ">
<path fill="none" stroke="#63b8ff" d="M1052.27,-122.81C1055.22,-122.19 1058.15,-121.58 1061,-121 1144.91,-103.91 1243.99,-86.19 1295.65,-77.13"/>
<polygon fill="#63b8ff" stroke="#63b8ff" points="1296.38,-80.56 1305.63,-75.39 1295.18,-73.66 1296.38,-80.56"/>
</a>
</g>
</g>
<!-- Node29 -->
<g id="Node000029" class="node">
<title>Node29</title>
<g id="a_Node000029"><a xlink:title=" ">
<polygon fill="#e0e0e0" stroke="#999999" points="994,-79.5 944,-79.5 944,-60.5 994,-60.5 994,-79.5"/>
<text text-anchor="middle" x="969" y="-67.5" font-family="Helvetica,sans-Serif" font-size="10.00">atomic</text>
</a>
</g>
</g>
<!-- Node28&#45;&gt;Node29 -->
<g id="edge50_Node000028_Node000029" class="edge">
<title>Node28&#45;&gt;Node29</title>
<g id="a_edge50_Node000028_Node000029"><a xlink:title=" ">
<path fill="none" stroke="#63b8ff" d="M991.56,-120.8C987.35,-111.5 981.81,-99.27 977.27,-89.26"/>
<polygon fill="#63b8ff" stroke="#63b8ff" points="980.32,-87.51 973.01,-79.84 973.95,-90.4 980.32,-87.51"/>
</a>
</g>
</g>
<!-- Node30 -->
<g id="Node000030" class="node">
<title>Node30</title>
<g id="a_Node000030"><a xlink:title=" ">
<polygon fill="#e0e0e0" stroke="#999999" points="1062,-79.5 1012,-79.5 1012,-60.5 1062,-60.5 1062,-79.5"/>
<text text-anchor="middle" x="1037" y="-67.5" font-family="Helvetica,sans-Serif" font-size="10.00">format</text>
</a>
</g>
</g>
<!-- Node28&#45;&gt;Node30 -->
<g id="edge52_Node000028_Node000030" class="edge">
<title>Node28&#45;&gt;Node30</title>
<g id="a_edge52_Node000028_Node000030"><a xlink:title=" ">
<path fill="none" stroke="#63b8ff" d="M1006.66,-120.8C1012.44,-111.31 1020.08,-98.76 1026.26,-88.63"/>
<polygon fill="#63b8ff" stroke="#63b8ff" points="1029.4,-90.21 1031.61,-79.84 1023.42,-86.56 1029.4,-90.21"/>
</a>
</g>
</g>
<!-- Node31 -->
<g id="Node000031" class="node">
<title>Node31</title>
<g id="a_Node000031"><a xlink:title=" ">
<polygon fill="#e0e0e0" stroke="#999999" points="1173.5,-79.5 1080.5,-79.5 1080.5,-60.5 1173.5,-60.5 1173.5,-79.5"/>
<text text-anchor="middle" x="1127" y="-67.5" font-family="Helvetica,sans-Serif" font-size="10.00">source_location</text>
</a>
</g>
</g>
<!-- Node28&#45;&gt;Node31 -->
<g id="edge55_Node000028_Node000031" class="edge">
<title>Node28&#45;&gt;Node31</title>
<g id="a_edge55_Node000028_Node000031"><a xlink:title=" ">
<path fill="none" stroke="#63b8ff" d="M1026.31,-120.95C1048.43,-109.98 1078.96,-94.83 1100.58,-84.11"/>
<polygon fill="#63b8ff" stroke="#63b8ff" points="1102.43,-87.1 1109.83,-79.52 1099.32,-80.83 1102.43,-87.1"/>
</a>
</g>
</g>
<!-- Node32&#45;&gt;Node5 -->
<g id="edge61_Node000032_Node000005" class="edge">
<title>Node32&#45;&gt;Node5</title>
<g id="a_edge61_Node000032_Node000005"><a xlink:title=" ">
<path fill="none" stroke="#63b8ff" d="M1490.07,-191.57C1513.1,-184.49 1538.19,-172.21 1552,-151 1565.95,-129.57 1545.1,-102.99 1528.11,-86.51"/>
<polygon fill="#63b8ff" stroke="#63b8ff" points="1530.45,-83.9 1520.72,-79.7 1525.71,-89.05 1530.45,-83.9"/>
</a>
</g>
</g>
<!-- Node33&#45;&gt;Node2 -->
<g id="edge64_Node000033_Node000002" class="edge">
<title>Node33&#45;&gt;Node2</title>
<g id="a_edge64_Node000033_Node000002"><a xlink:title=" ">
<path fill="none" stroke="#63b8ff" d="M594.72,-120.95C626.88,-109.58 671.7,-93.74 702.17,-82.96"/>
<polygon fill="#63b8ff" stroke="#63b8ff" points="703.65,-86.15 711.91,-79.52 701.32,-79.55 703.65,-86.15"/>
</a>
</g>
</g>
<!-- Node33&#45;&gt;Node4 -->
<g id="edge65_Node000033_Node000004" class="edge">
<title>Node33&#45;&gt;Node4</title>
<g id="a_edge65_Node000033_Node000004"><a xlink:title=" ">
<path fill="none" stroke="#63b8ff" d="M541.02,-120.8C531.2,-110.82 518.04,-97.46 507.83,-87.09"/>
<polygon fill="#63b8ff" stroke="#63b8ff" points="510.22,-84.52 500.71,-79.84 505.23,-89.43 510.22,-84.52"/>
</a>
</g>
</g>
<!-- Node33&#45;&gt;Node5 -->
<g id="edge67_Node000033_Node000005" class="edge">
<title>Node33&#45;&gt;Node5</title>
<g id="a_edge67_Node000033_Node000005"><a xlink:title=" ">
<path fill="none" stroke="#63b8ff" d="M614.41,-130.14C649.96,-127.3 696.05,-123.75 737,-121 1015.94,-102.28 1086.25,-106.44 1365,-85 1403.85,-82.01 1448.46,-77.55 1477.83,-74.47"/>
<polygon fill="#63b8ff" stroke="#63b8ff" points="1478.34,-77.93 1487.91,-73.4 1477.6,-70.97 1478.34,-77.93"/>
</a>
</g>
</g>
<!-- Node33&#45;&gt;Node6 -->
<g id="edge68_Node000033_Node000006" class="edge">
<title>Node33&#45;&gt;Node6</title>
<g id="a_edge68_Node000033_Node000006"><a xlink:title=" ">
<path fill="none" stroke="#63b8ff" d="M614.39,-129.95C649.94,-127.05 696.04,-123.49 737,-121 1094.03,-99.28 1188.47,-145.55 1541,-85 1544.96,-84.32 1549.06,-83.4 1553.1,-82.36"/>
<polygon fill="#63b8ff" stroke="#63b8ff" points="1554.26,-85.67 1562.92,-79.57 1552.35,-78.93 1554.26,-85.67"/>
</a>
</g>
</g>
<!-- Node33&#45;&gt;Node7 -->
<g id="edge70_Node000033_Node000007" class="edge">
<title>Node33&#45;&gt;Node7</title>
<g id="a_edge70_Node000033_Node000007"><a xlink:title=" ">
<path fill="none" stroke="#63b8ff" d="M495.71,-129.51C401.49,-120.45 221.9,-101.7 160,-85 158.11,-84.49 156.18,-83.89 154.26,-83.24"/>
<polygon fill="#63b8ff" stroke="#63b8ff" points="155.43,-79.94 144.84,-79.62 152.92,-86.47 155.43,-79.94"/>
</a>
</g>
</g>
<!-- Node33&#45;&gt;Node10 -->
<g id="edge63_Node000033_Node000010" class="edge">
<title>Node33&#45;&gt;Node10</title>
<g id="a_edge63_Node000033_Node000010"><a xlink:title=" ">
<path fill="none" stroke="#63b8ff" d="M587.71,-120.79C607.92,-111.53 634.09,-98.67 656,-85 674.55,-73.43 674.65,-63.01 695,-55 773.79,-23.97 1032.33,-14 1127.46,-11.34"/>
<polygon fill="#63b8ff" stroke="#63b8ff" points="1127.81,-14.84 1137.71,-11.07 1127.62,-7.84 1127.81,-14.84"/>
</a>
</g>
</g>
<!-- Node33&#45;&gt;Node11 -->
<g id="edge71_Node000033_Node000011" class="edge">
<title>Node33&#45;&gt;Node11</title>
<g id="a_edge71_Node000033_Node000011"><a xlink:title=" ">
<path fill="none" stroke="#63b8ff" d="M515.5,-120.95C483.51,-109.58 438.95,-93.74 408.65,-82.96"/>
<polygon fill="#63b8ff" stroke="#63b8ff" points="409.55,-79.57 398.95,-79.52 407.2,-86.17 409.55,-79.57"/>
</a>
</g>
</g>
<!-- Node33&#45;&gt;Node14 -->
<g id="edge72_Node000033_Node000014" class="edge">
<title>Node33&#45;&gt;Node14</title>
<g id="a_edge72_Node000033_Node000014"><a xlink:title=" ">
<path fill="none" stroke="#63b8ff" d="M495.81,-123.79C445.55,-114.22 371.21,-99.95 297.28,-85.24"/>
<polygon fill="#63b8ff" stroke="#63b8ff" points="297.82,-81.78 287.33,-83.26 296.45,-88.65 297.82,-81.78"/>
</a>
</g>
</g>
<!-- Node33&#45;&gt;Node16 -->
<g id="edge66_Node000033_Node000016" class="edge">
<title>Node33&#45;&gt;Node16</title>
<g id="a_edge66_Node000033_Node000016"><a xlink:title=" ">
<path fill="none" stroke="#63b8ff" d="M554.31,-120.72C553.22,-98.12 551.1,-54.12 549.9,-29.09"/>
<polygon fill="#63b8ff" stroke="#63b8ff" points="553.39,-28.89 549.41,-19.07 546.4,-29.23 553.39,-28.89"/>
</a>
</g>
</g>
<!-- Node34 -->
<g id="Node000034" class="node">
<title>Node34</title>
<g id="a_Node000034"><a xlink:title=" ">
<polygon fill="#e0e0e0" stroke="#999999" points="646.5,-79.5 577.5,-79.5 577.5,-60.5 646.5,-60.5 646.5,-79.5"/>
<text text-anchor="middle" x="612" y="-67.5" font-family="Helvetica,sans-Serif" font-size="10.00">type_traits</text>
</a>
</g>
</g>
<!-- Node33&#45;&gt;Node34 -->
<g id="edge69_Node000033_Node000034" class="edge">
<title>Node33&#45;&gt;Node34</title>
<g id="a_edge69_Node000033_Node000034"><a xlink:title=" ">
<path fill="none" stroke="#63b8ff" d="M567.65,-120.8C576.45,-110.92 588.2,-97.72 597.4,-87.39"/>
<polygon fill="#63b8ff" stroke="#63b8ff" points="600.09,-89.64 604.12,-79.84 594.86,-84.98 600.09,-89.64"/>
</a>
</g>
</g>
</g>
</svg>

<g id="navigator" transform="translate(0 0)" fill="#404254">
  <rect fill="#f2f5e9" fill-opacity="0.5" stroke="#606060" stroke-width=".5" x="0" y="0" width="60" height="60"/>
  <use id="zoomplus" xlink:href="#zoomPlus" x="17" y="9" onmousedown="handleZoom(evt,'in')"/>
  <use id="zoomminus" xlink:href="#zoomMin" x="42" y="9" onmousedown="handleZoom(evt,'out')"/>
  <use id="reset" xlink:href="#resetDef" x="30" y="36" onmousedown="handleReset()"/>
   <use id="arrowup" xlink:href="#arrowUp" x="0" y="0" onmousedown="handlePan(0,-1)"/>
  <use id="arrowright" xlink:href="#arrowRight" x="0" y="0" onmousedown="handlePan(1,0)"/>
  <use id="arrowdown" xlink:href="#arrowDown" x="0" y="0" onmousedown="handlePan(0,1)"/>
  <use id="arrowleft" xlink:href="#arrowLeft" x="0" y="0" onmousedown="handlePan(-1,0)"/>
</g>
<svg viewBox="0 0 15 15" width="100%" height="30px" preserveAspectRatio="xMaxYMin meet">
 <g id="arrow_out" transform="scale(0.3 0.3)">
  <a xlink:href="wrapper_2tcp__server_2tcp__server_8hpp__incl_org.svg" target="_base">
   <rect id="button" ry="5" rx="5" y="6" x="6" height="38" width="38"
        fill="#f2f5e9" fill-opacity="0.5" stroke="#606060" stroke-width="1.0"/>
   <path id="arrow"
     d="M 11.500037,31.436501 C 11.940474,20.09759 22.043105,11.32322 32.158766,21.979434 L 37.068811,17.246167 C 37.068811,17.246167 37.088388,32 37.088388,32 L 22.160133,31.978069 C 22.160133,31.978069 26.997745,27.140456 26.997745,27.140456 C 18.528582,18.264221 13.291696,25.230495 11.500037,31.436501 z"
     style="fill:#404040;"/>
  </a>
 </g>
</svg>

<style type='text/css'>
<![CDATA[
[data-mouse-over-selected='false'] { opacity: 0.7; }
[data-mouse-over-selected='true']  { opacity: 1.0; }
]]>
</style>
<script type="application/ecmascript"><![CDATA[
document.addEventListener('DOMContentLoaded', (event) => {
  highlightEdges();
  highlightAdjacentNodes();
});
]]></script>
</svg>
