<?xml version="1.0" encoding="UTF-8" standalone="no"?>
<!DOCTYPE svg PUBLIC "-//W3C//DTD SVG 1.1//EN"
 "http://www.w3.org/Graphics/SVG/1.1/DTD/svg11.dtd">
<!-- Generated by graphviz version 2.43.0 (0)
 -->
<!-- Title: unilink/wrapper/tcp_server/tcp_server.hpp Pages: 1 -->
<svg width="850pt" height="269pt"
 viewBox="0.00 0.00 850.15 269.00" xmlns="http://www.w3.org/2000/svg" xmlns:xlink="http://www.w3.org/1999/xlink">
<g id="graph0" class="graph" transform="scale(1 1) rotate(0) translate(4 265)">
<title>unilink/wrapper/tcp_server/tcp_server.hpp</title>
<!-- Node1 -->
<g id="Node000001" class="node">
<title>Node1</title>
<g id="a_Node000001"><a xlink:title=" ">
<polygon fill="#999999" stroke="#666666" points="421.14,-261 294.14,-261 294.14,-231 421.14,-231 421.14,-261"/>
<text text-anchor="start" x="302.14" y="-249" font-family="Helvetica,sans-Serif" font-size="10.00">unilink/wrapper/tcp</text>
<text text-anchor="middle" x="357.64" y="-238" font-family="Helvetica,sans-Serif" font-size="10.00">_server/tcp_server.hpp</text>
</a>
</g>
</g>
<!-- Node2 -->
<g id="Node000002" class="node">
<title>Node2</title>
<g id="a_Node000002"><a xlink:title=" ">
<polygon fill="#e0e0e0" stroke="#999999" points="67.14,-79.5 2.14,-79.5 2.14,-60.5 67.14,-60.5 67.14,-79.5"/>
<text text-anchor="middle" x="34.64" y="-67.5" font-family="Helvetica,sans-Serif" font-size="10.00">functional</text>
</a>
</g>
</g>
<!-- Node1&#45;&gt;Node2 -->
<g id="edge1_Node000001_Node000002" class="edge">
<title>Node1&#45;&gt;Node2</title>
<g id="a_edge1_Node000001_Node000002"><a xlink:title=" ">
<path fill="none" stroke="#63b8ff" d="M294.08,-244.89C231.59,-242.42 135.03,-232.12 60.64,-195 28.86,-179.14 16.67,-172.64 2.64,-140 -5.13,-121.92 7,-101.5 18.49,-87.6"/>
<polygon fill="#63b8ff" stroke="#63b8ff" points="21.34,-89.66 25.37,-79.86 16.11,-85 21.34,-89.66"/>
</a>
</g>
</g>
<!-- Node3 -->
<g id="Node000003" class="node">
<title>Node3</title>
<g id="a_Node000003"><a xlink:title=" ">
<polygon fill="#e0e0e0" stroke="#999999" points="64.64,-140 18.64,-140 18.64,-121 64.64,-121 64.64,-140"/>
<text text-anchor="middle" x="41.64" y="-128" font-family="Helvetica,sans-Serif" font-size="10.00">future</text>
</a>
</g>
</g>
<!-- Node1&#45;&gt;Node3 -->
<g id="edge2_Node000001_Node000003" class="edge">
<title>Node1&#45;&gt;Node3</title>
<g id="a_edge2_Node000001_Node000003"><a xlink:title=" ">
<path fill="none" stroke="#63b8ff" d="M318.58,-230.97C255.67,-208.37 133.06,-164.33 74.42,-143.27"/>
<polygon fill="#63b8ff" stroke="#63b8ff" points="75.5,-139.94 64.9,-139.86 73.13,-146.53 75.5,-139.94"/>
</a>
</g>
</g>
<!-- Node4 -->
<g id="Node000004" class="node">
<title>Node4</title>
<g id="a_Node000004"><a xlink:title=" ">
<polygon fill="#e0e0e0" stroke="#999999" points="143.64,-79.5 85.64,-79.5 85.64,-60.5 143.64,-60.5 143.64,-79.5"/>
<text text-anchor="middle" x="114.64" y="-67.5" font-family="Helvetica,sans-Serif" font-size="10.00">memory</text>
</a>
</g>
</g>
<!-- Node1&#45;&gt;Node4 -->
<g id="edge3_Node000001_Node000004" class="edge">
<title>Node1&#45;&gt;Node4</title>
<g id="a_edge3_Node000001_Node000004"><a xlink:title=" ">
<path fill="none" stroke="#63b8ff" d="M294.06,-235.23C202.99,-219.76 42.73,-186.55 9.64,-140 4.75,-133.12 5.13,-128.14 9.64,-121 14,-114.1 54.75,-95.96 84.18,-83.54"/>
<polygon fill="#63b8ff" stroke="#63b8ff" points="85.79,-86.66 93.66,-79.57 83.08,-80.21 85.79,-86.66"/>
</a>
</g>
</g>
<!-- Node5 -->
<g id="Node000005" class="node">
<title>Node5</title>
<g id="a_Node000005"><a xlink:title=" ">
<polygon fill="#e0e0e0" stroke="#999999" points="747.64,-19 703.64,-19 703.64,0 747.64,0 747.64,-19"/>
<text text-anchor="middle" x="725.64" y="-7" font-family="Helvetica,sans-Serif" font-size="10.00">string</text>
</a>
</g>
</g>
<!-- Node1&#45;&gt;Node5 -->
<g id="edge4_Node000001_Node000005" class="edge">
<title>Node1&#45;&gt;Node5</title>
<g id="a_edge4_Node000001_Node000005"><a xlink:title=" ">
<path fill="none" stroke="#63b8ff" d="M421.31,-233.91C541.02,-211.53 791.66,-156.92 836.64,-85 843.71,-73.7 844.11,-66.04 836.64,-55 819.16,-29.15 783.95,-18.32 757.85,-13.78"/>
<polygon fill="#63b8ff" stroke="#63b8ff" points="758.06,-10.27 747.65,-12.23 757.01,-17.19 758.06,-10.27"/>
</a>
</g>
</g>
<!-- Node6 -->
<g id="Node000006" class="node">
<title>Node6</title>
<g id="a_Node000006"><a xlink:title=" ">
<polygon fill="#e0e0e0" stroke="#999999" points="827.14,-79.5 754.14,-79.5 754.14,-60.5 827.14,-60.5 827.14,-79.5"/>
<text text-anchor="middle" x="790.64" y="-67.5" font-family="Helvetica,sans-Serif" font-size="10.00">string_view</text>
</a>
</g>
</g>
<!-- Node1&#45;&gt;Node6 -->
<g id="edge5_Node000001_Node000006" class="edge">
<title>Node1&#45;&gt;Node6</title>
<g id="a_edge5_Node000001_Node000006"><a xlink:title=" ">
<path fill="none" stroke="#63b8ff" d="M421.45,-231.59C491.01,-215.52 604.43,-184.99 694.64,-140 724.29,-125.21 754.72,-101.64 773.16,-86.24"/>
<polygon fill="#63b8ff" stroke="#63b8ff" points="775.61,-88.75 780.97,-79.6 771.08,-83.41 775.61,-88.75"/>
</a>
</g>
</g>
<!-- Node7 -->
<g id="Node000007" class="node">
<title>Node7</title>
<g id="a_Node000007"><a xlink:title=" ">
<polygon fill="#e0e0e0" stroke="#999999" points="367.14,-79.5 320.14,-79.5 320.14,-60.5 367.14,-60.5 367.14,-79.5"/>
<text text-anchor="middle" x="343.64" y="-67.5" font-family="Helvetica,sans-Serif" font-size="10.00">vector</text>
</a>
</g>
</g>
<!-- Node1&#45;&gt;Node7 -->
<g id="edge6_Node000001_Node000007" class="edge">
<title>Node1&#45;&gt;Node7</title>
<g id="a_edge6_Node000001_Node000007"><a xlink:title=" ">
<path fill="none" stroke="#63b8ff" d="M386.46,-230.84C400.1,-222.47 415.03,-210.45 422.64,-195 437.17,-165.49 438.5,-149.81 422.64,-121 416.8,-110.4 390.95,-95.17 370.39,-84.32"/>
<polygon fill="#63b8ff" stroke="#63b8ff" points="371.89,-81.15 361.4,-79.67 368.68,-87.37 371.89,-81.15"/>
</a>
</g>
</g>
<!-- Node8 -->
<g id="Node000008" class="node">
<title>Node8</title>
<g id="a_Node000008"><a xlink:href="visibility_8hpp.html" target="_top" xlink:title=" ">
<polygon fill="white" stroke="#666666" points="301.64,-79.5 161.64,-79.5 161.64,-60.5 301.64,-60.5 301.64,-79.5"/>
<text text-anchor="middle" x="231.64" y="-67.5" font-family="Helvetica,sans-Serif" font-size="10.00">unilink/base/visibility.hpp</text>
</a>
</g>
</g>
<!-- Node1&#45;&gt;Node8 -->
<g id="edge7_Node000001_Node000008" class="edge">
<title>Node1&#45;&gt;Node8</title>
<g id="a_edge7_Node000001_Node000008"><a xlink:title=" ">
<path fill="none" stroke="#63b8ff" d="M371.85,-230.79C383.95,-216.88 398.12,-195.06 389.64,-176 367.8,-126.9 309.61,-97.73 270.29,-83.04"/>
<polygon fill="#63b8ff" stroke="#63b8ff" points="271.32,-79.69 260.73,-79.61 268.96,-86.28 271.32,-79.69"/>
</a>
</g>
</g>
<!-- Node9 -->
<g id="Node000009" class="node">
<title>Node9</title>
<g id="a_Node000009"><a xlink:href="iserver_8hpp.html" target="_top" xlink:title=" ">
<polygon fill="white" stroke="#666666" points="381.14,-195 232.14,-195 232.14,-176 381.14,-176 381.14,-195"/>
<text text-anchor="middle" x="306.64" y="-183" font-family="Helvetica,sans-Serif" font-size="10.00">unilink/wrapper/iserver.hpp</text>
</a>
</g>
</g>
<!-- Node1&#45;&gt;Node9 -->
<g id="edge8_Node000001_Node000009" class="edge">
<title>Node1&#45;&gt;Node9</title>
<g id="a_edge8_Node000001_Node000009"><a xlink:title=" ">
<path fill="none" stroke="#63b8ff" d="M345.3,-230.84C337.97,-222.43 328.65,-211.74 320.99,-202.96"/>
<polygon fill="#63b8ff" stroke="#63b8ff" points="323.49,-200.5 314.28,-195.27 318.22,-205.1 323.49,-200.5"/>
</a>
</g>
</g>
<!-- Node9&#45;&gt;Node2 -->
<g id="edge9_Node000009_Node000002" class="edge">
<title>Node9&#45;&gt;Node2</title>
<g id="a_edge9_Node000009_Node000002"><a xlink:title=" ">
<path fill="none" stroke="#63b8ff" d="M252.05,-175.99C216.61,-169.19 170.05,-157.78 131.64,-140 101.21,-125.91 70.38,-101.95 51.88,-86.3"/>
<polygon fill="#63b8ff" stroke="#63b8ff" points="53.93,-83.45 44.08,-79.56 49.36,-88.75 53.93,-83.45"/>
</a>
</g>
</g>
<!-- Node9&#45;&gt;Node3 -->
<g id="edge10_Node000009_Node000003" class="edge">
<title>Node9&#45;&gt;Node3</title>
<g id="a_edge10_Node000009_Node000003"><a xlink:title=" ">
<path fill="none" stroke="#63b8ff" d="M260.7,-175.99C214.59,-167.35 141.57,-153.36 78.64,-140 77.37,-139.73 76.08,-139.45 74.78,-139.17"/>
<polygon fill="#63b8ff" stroke="#63b8ff" points="75.23,-135.68 64.71,-136.92 73.71,-142.52 75.23,-135.68"/>
</a>
</g>
</g>
<!-- Node9&#45;&gt;Node4 -->
<g id="edge11_Node000009_Node000004" class="edge">
<title>Node9&#45;&gt;Node4</title>
<g id="a_edge11_Node000009_Node000004"><a xlink:title=" ">
<path fill="none" stroke="#63b8ff" d="M231.98,-176.23C203.73,-170 172.83,-159.09 149.64,-140 133.8,-126.96 124.4,-104.91 119.4,-89.25"/>
<polygon fill="#63b8ff" stroke="#63b8ff" points="122.75,-88.25 116.61,-79.62 116.03,-90.2 122.75,-88.25"/>
</a>
</g>
</g>
<!-- Node9&#45;&gt;Node6 -->
<g id="edge12_Node000009_Node000006" class="edge">
<title>Node9&#45;&gt;Node6</title>
<g id="a_edge12_Node000009_Node000006"><a xlink:title=" ">
<path fill="none" stroke="#63b8ff" d="M381.42,-182.71C453.81,-179.2 565.92,-169.06 658.64,-140 700.18,-126.98 744.16,-101.25 769.42,-85.15"/>
<polygon fill="#63b8ff" stroke="#63b8ff" points="771.34,-88.08 777.83,-79.7 767.54,-82.2 771.34,-88.08"/>
</a>
</g>
</g>
<!-- Node9&#45;&gt;Node7 -->
<g id="edge13_Node000009_Node000007" class="edge">
<title>Node9&#45;&gt;Node7</title>
<g id="a_edge13_Node000009_Node000007"><a xlink:title=" ">
<path fill="none" stroke="#63b8ff" d="M318.29,-175.73C327.95,-167.67 340.99,-154.74 346.64,-140 352.81,-123.92 351.11,-104.17 348.43,-89.92"/>
<polygon fill="#63b8ff" stroke="#63b8ff" points="351.78,-88.86 346.21,-79.86 344.95,-90.38 351.78,-88.86"/>
</a>
</g>
</g>
<!-- Node9&#45;&gt;Node8 -->
<g id="edge14_Node000009_Node000008" class="edge">
<title>Node9&#45;&gt;Node8</title>
<g id="a_edge14_Node000009_Node000008"><a xlink:title=" ">
<path fill="none" stroke="#63b8ff" d="M310.48,-175.64C315.44,-162.73 322.35,-138.41 312.64,-121 303.02,-103.75 284.72,-91.71 267.95,-83.77"/>
<polygon fill="#63b8ff" stroke="#63b8ff" points="268.89,-80.36 258.33,-79.56 266.09,-86.78 268.89,-80.36"/>
</a>
</g>
</g>
<!-- Node10 -->
<g id="Node000010" class="node">
<title>Node10</title>
<g id="a_Node000010"><a xlink:href="iframer_8hpp.html" target="_top" xlink:title=" ">
<polygon fill="white" stroke="#666666" points="304.14,-140 159.14,-140 159.14,-121 304.14,-121 304.14,-140"/>
<text text-anchor="middle" x="231.64" y="-128" font-family="Helvetica,sans-Serif" font-size="10.00">unilink/framer/iframer.hpp</text>
</a>
</g>
</g>
<!-- Node9&#45;&gt;Node10 -->
<g id="edge15_Node000009_Node000010" class="edge">
<title>Node9&#45;&gt;Node10</title>
<g id="a_edge15_Node000009_Node000010"><a xlink:title=" ">
<path fill="none" stroke="#63b8ff" d="M294.59,-175.98C283.18,-167.92 265.81,-155.65 252.21,-146.03"/>
<polygon fill="#63b8ff" stroke="#63b8ff" points="254.1,-143.08 243.91,-140.17 250.06,-148.8 254.1,-143.08"/>
</a>
</g>
</g>
<!-- Node15 -->
<g id="Node000015" class="node">
<title>Node15</title>
<g id="a_Node000015"><a xlink:href="context_8hpp.html" target="_top" xlink:title=" ">
<polygon fill="white" stroke="#666666" points="649.14,-140 496.14,-140 496.14,-121 649.14,-121 649.14,-140"/>
<text text-anchor="middle" x="572.64" y="-128" font-family="Helvetica,sans-Serif" font-size="10.00">unilink/wrapper/context.hpp</text>
</a>
</g>
</g>
<!-- Node9&#45;&gt;Node15 -->
<g id="edge24_Node000009_Node000015" class="edge">
<title>Node9&#45;&gt;Node15</title>
<g id="a_edge24_Node000009_Node000015"><a xlink:title=" ">
<path fill="none" stroke="#63b8ff" d="M349.38,-175.98C395.68,-166.76 469.62,-152.03 519.6,-142.07"/>
<polygon fill="#63b8ff" stroke="#63b8ff" points="520.45,-145.47 529.57,-140.08 519.08,-138.6 520.45,-145.47"/>
</a>
</g>
</g>
<!-- Node10&#45;&gt;Node2 -->
<g id="edge16_Node000010_Node000002" class="edge">
<title>Node10&#45;&gt;Node2</title>
<g id="a_edge16_Node000010_Node000002"><a xlink:title=" ">
<path fill="none" stroke="#63b8ff" d="M200.36,-120.94C168.97,-112.24 119.29,-98.22 76.64,-85 74.35,-84.29 71.99,-83.54 69.62,-82.78"/>
<polygon fill="#63b8ff" stroke="#63b8ff" points="70.5,-79.39 59.91,-79.61 68.33,-86.04 70.5,-79.39"/>
</a>
</g>
</g>
<!-- Node10&#45;&gt;Node4 -->
<g id="edge17_Node000010_Node000004" class="edge">
<title>Node10&#45;&gt;Node4</title>
<g id="a_edge17_Node000010_Node000004"><a xlink:title=" ">
<path fill="none" stroke="#63b8ff" d="M214.63,-120.99C195.22,-111.29 163.26,-95.31 140.7,-84.03"/>
<polygon fill="#63b8ff" stroke="#63b8ff" points="142.19,-80.86 131.68,-79.52 139.06,-87.12 142.19,-80.86"/>
</a>
</g>
</g>
<!-- Node10&#45;&gt;Node7 -->
<g id="edge18_Node000010_Node000007" class="edge">
<title>Node10&#45;&gt;Node7</title>
<g id="a_edge18_Node000010_Node000007"><a xlink:title=" ">
<path fill="none" stroke="#63b8ff" d="M248.17,-120.87C266.61,-111.23 296.69,-95.53 318.15,-84.31"/>
<polygon fill="#63b8ff" stroke="#63b8ff" points="319.81,-87.4 327.05,-79.67 316.56,-81.19 319.81,-87.4"/>
</a>
</g>
</g>
<!-- Node10&#45;&gt;Node8 -->
<g id="edge19_Node000010_Node000008" class="edge">
<title>Node10&#45;&gt;Node8</title>
<g id="a_edge19_Node000010_Node000008"><a xlink:title=" ">
<path fill="none" stroke="#63b8ff" d="M231.64,-120.87C231.64,-112.75 231.64,-100.31 231.64,-89.89"/>
<polygon fill="#63b8ff" stroke="#63b8ff" points="235.14,-89.67 231.64,-79.67 228.14,-89.67 235.14,-89.67"/>
</a>
</g>
</g>
<!-- Node11 -->
<g id="Node000011" class="node">
<title>Node11</title>
<g id="a_Node000011"><a xlink:href="safe__span_8hpp.html" target="_top" xlink:title=" ">
<polygon fill="white" stroke="#666666" points="503.64,-85 385.64,-85 385.64,-55 503.64,-55 503.64,-85"/>
<text text-anchor="start" x="393.64" y="-73" font-family="Helvetica,sans-Serif" font-size="10.00">unilink/memory/safe</text>
<text text-anchor="middle" x="444.64" y="-62" font-family="Helvetica,sans-Serif" font-size="10.00">_span.hpp</text>
</a>
</g>
</g>
<!-- Node10&#45;&gt;Node11 -->
<g id="edge20_Node000010_Node000011" class="edge">
<title>Node10&#45;&gt;Node11</title>
<g id="a_edge20_Node000010_Node000011"><a xlink:title=" ">
<path fill="none" stroke="#63b8ff" d="M262.61,-120.99C294.21,-112.32 344.06,-98.62 383.62,-87.76"/>
<polygon fill="#63b8ff" stroke="#63b8ff" points="384.72,-91.09 393.43,-85.06 382.86,-84.34 384.72,-91.09"/>
</a>
</g>
</g>
<!-- Node12 -->
<g id="Node000012" class="node">
<title>Node12</title>
<g id="a_Node000012"><a xlink:title=" ">
<polygon fill="#e0e0e0" stroke="#999999" points="393.64,-19 343.64,-19 343.64,0 393.64,0 393.64,-19"/>
<text text-anchor="middle" x="368.64" y="-7" font-family="Helvetica,sans-Serif" font-size="10.00">cstdint</text>
</a>
</g>
</g>
<!-- Node11&#45;&gt;Node12 -->
<g id="edge21_Node000011_Node000012" class="edge">
<title>Node11&#45;&gt;Node12</title>
<g id="a_edge21_Node000011_Node000012"><a xlink:title=" ">
<path fill="none" stroke="#63b8ff" d="M426.25,-54.84C414.76,-46 399.99,-34.63 388.28,-25.62"/>
<polygon fill="#63b8ff" stroke="#63b8ff" points="390.09,-22.59 380.03,-19.27 385.82,-28.14 390.09,-22.59"/>
</a>
</g>
</g>
<!-- Node13 -->
<g id="Node000013" class="node">
<title>Node13</title>
<g id="a_Node000013"><a xlink:title=" ">
<polygon fill="#e0e0e0" stroke="#999999" points="477.14,-19 412.14,-19 412.14,0 477.14,0 477.14,-19"/>
<text text-anchor="middle" x="444.64" y="-7" font-family="Helvetica,sans-Serif" font-size="10.00">stdexcept</text>
</a>
</g>
</g>
<!-- Node11&#45;&gt;Node13 -->
<g id="edge22_Node000011_Node000013" class="edge">
<title>Node11&#45;&gt;Node13</title>
<g id="a_edge22_Node000011_Node000013"><a xlink:title=" ">
<path fill="none" stroke="#63b8ff" d="M444.64,-54.84C444.64,-47.21 444.64,-37.7 444.64,-29.45"/>
<polygon fill="#63b8ff" stroke="#63b8ff" points="448.14,-29.27 444.64,-19.27 441.14,-29.27 448.14,-29.27"/>
</a>
</g>
</g>
<!-- Node14 -->
<g id="Node000014" class="node">
<title>Node14</title>
<g id="a_Node000014"><a xlink:title=" ">
<polygon fill="#e0e0e0" stroke="#999999" points="564.14,-19 495.14,-19 495.14,0 564.14,0 564.14,-19"/>
<text text-anchor="middle" x="529.64" y="-7" font-family="Helvetica,sans-Serif" font-size="10.00">type_traits</text>
</a>
</g>
</g>
<!-- Node11&#45;&gt;Node14 -->
<g id="edge23_Node000011_Node000014" class="edge">
<title>Node11&#45;&gt;Node14</title>
<g id="a_edge23_Node000011_Node000014"><a xlink:title=" ">
<path fill="none" stroke="#63b8ff" d="M465.22,-54.84C478.31,-45.83 495.23,-34.18 508.44,-25.09"/>
<polygon fill="#63b8ff" stroke="#63b8ff" points="510.65,-27.82 516.91,-19.27 506.68,-22.05 510.65,-27.82"/>
</a>
</g>
</g>
<!-- Node15&#45;&gt;Node5 -->
<g id="edge26_Node000015_Node000005" class="edge">
<title>Node15&#45;&gt;Node5</title>
<g id="a_edge26_Node000015_Node000005"><a xlink:title=" ">
<path fill="none" stroke="#63b8ff" d="M639.2,-120.98C663.4,-114.7 689.1,-103.83 706.64,-85 720.69,-69.92 724.7,-45.94 725.68,-29.27"/>
<polygon fill="#63b8ff" stroke="#63b8ff" points="729.18,-29.19 725.95,-19.1 722.18,-29 729.18,-29.19"/>
</a>
</g>
</g>
<!-- Node15&#45;&gt;Node6 -->
<g id="edge27_Node000015_Node000006" class="edge">
<title>Node15&#45;&gt;Node6</title>
<g id="a_edge27_Node000015_Node000006"><a xlink:title=" ">
<path fill="none" stroke="#63b8ff" d="M604.99,-120.96C638.65,-112.05 692.87,-97.65 739.64,-85 742.98,-84.1 746.44,-83.16 749.91,-82.21"/>
<polygon fill="#63b8ff" stroke="#63b8ff" points="750.91,-85.56 759.64,-79.55 749.07,-78.81 750.91,-85.56"/>
</a>
</g>
</g>
<!-- Node15&#45;&gt;Node7 -->
<g id="edge28_Node000015_Node000007" class="edge">
<title>Node15&#45;&gt;Node7</title>
<g id="a_edge28_Node000015_Node000007"><a xlink:title=" ">
<path fill="none" stroke="#63b8ff" d="M524.07,-120.97C484.01,-113.34 425.95,-100.92 376.64,-85 375.01,-84.47 373.35,-83.9 371.69,-83.29"/>
<polygon fill="#63b8ff" stroke="#63b8ff" points="372.86,-79.99 362.27,-79.58 370.29,-86.51 372.86,-79.99"/>
</a>
</g>
</g>
<!-- Node15&#45;&gt;Node11 -->
<g id="edge31_Node000015_Node000011" class="edge">
<title>Node15&#45;&gt;Node11</title>
<g id="a_edge31_Node000015_Node000011"><a xlink:title=" ">
<path fill="none" stroke="#63b8ff" d="M554.03,-120.99C535.99,-112.75 508.04,-99.98 484.91,-89.4"/>
<polygon fill="#63b8ff" stroke="#63b8ff" points="486.21,-86.15 475.66,-85.18 483.3,-92.52 486.21,-86.15"/>
</a>
</g>
</g>
<!-- Node16 -->
<g id="Node000016" class="node">
<title>Node16</title>
<g id="a_Node000016"><a xlink:title=" ">
<polygon fill="#e0e0e0" stroke="#999999" points="697.64,-79.5 641.64,-79.5 641.64,-60.5 697.64,-60.5 697.64,-79.5"/>
<text text-anchor="middle" x="669.64" y="-67.5" font-family="Helvetica,sans-Serif" font-size="10.00">optional</text>
</a>
</g>
</g>
<!-- Node15&#45;&gt;Node16 -->
<g id="edge25_Node000015_Node000016" class="edge">
<title>Node15&#45;&gt;Node16</title>
<g id="a_edge25_Node000015_Node000016"><a xlink:title=" ">
<path fill="none" stroke="#63b8ff" d="M586.96,-120.87C602.64,-111.41 628.04,-96.09 646.56,-84.92"/>
<polygon fill="#63b8ff" stroke="#63b8ff" points="648.52,-87.83 655.27,-79.67 644.9,-81.83 648.52,-87.83"/>
</a>
</g>
</g>
<!-- Node17 -->
<g id="Node000017" class="node">
<title>Node17</title>
<g id="a_Node000017"><a xlink:href="error__codes_8hpp.html" target="_top" xlink:title=" ">
<polygon fill="white" stroke="#666666" points="623.64,-85 521.64,-85 521.64,-55 623.64,-55 623.64,-85"/>
<text text-anchor="start" x="529.64" y="-73" font-family="Helvetica,sans-Serif" font-size="10.00">unilink/base/error</text>
<text text-anchor="middle" x="572.64" y="-62" font-family="Helvetica,sans-Serif" font-size="10.00">_codes.hpp</text>
</a>
</g>
</g>
<!-- Node15&#45;&gt;Node17 -->
<g id="edge29_Node000015_Node000017" class="edge">
<title>Node15&#45;&gt;Node17</title>
<g id="a_edge29_Node000015_Node000017"><a xlink:title=" ">
<path fill="none" stroke="#63b8ff" d="M572.64,-120.87C572.64,-114.11 572.64,-104.35 572.64,-95.26"/>
<polygon fill="#63b8ff" stroke="#63b8ff" points="576.14,-95.11 572.64,-85.11 569.14,-95.11 576.14,-95.11"/>
</a>
</g>
</g>
<!-- Node17&#45;&gt;Node5 -->
<g id="edge30_Node000017_Node000005" class="edge">
<title>Node17&#45;&gt;Node5</title>
<g id="a_edge30_Node000017_Node000005"><a xlink:title=" ">
<path fill="none" stroke="#63b8ff" d="M609.29,-54.99C635.09,-45.12 669.27,-32.05 693.9,-22.64"/>
<polygon fill="#63b8ff" stroke="#63b8ff" points="695.4,-25.81 703.49,-18.97 692.9,-19.27 695.4,-25.81"/>
</a>
</g>
</g>
</g>
</svg>
