<?xml version="1.0" encoding="UTF-8" standalone="no"?>
<!DOCTYPE svg PUBLIC "-//W3C//DTD SVG 1.1//EN"
 "http://www.w3.org/Graphics/SVG/1.1/DTD/svg11.dtd">
<!-- Generated by graphviz version 2.43.0 (0)
 -->
<!-- Title: unilink/wrapper/uds_client/uds_client.hpp Pages: 1 -->
<svg width="2236pt" height="401pt"
 viewBox="0.00 0.00 2236.00 401.00" xmlns="http://www.w3.org/2000/svg" xmlns:xlink="http://www.w3.org/1999/xlink">
<g id="graph0" class="graph" transform="scale(1 1) rotate(0) translate(4 397)">
<title>unilink/wrapper/uds_client/uds_client.hpp</title>
<!-- Node1 -->
<g id="Node000001" class="node">
<title>Node1</title>
<g id="a_Node000001"><a xlink:title=" ">
<polygon fill="#999999" stroke="#666666" points="731,-393 609,-393 609,-363 731,-363 731,-393"/>
<text text-anchor="start" x="617" y="-381" font-family="Helvetica,sans-Serif" font-size="10.00">unilink/wrapper/uds</text>
<text text-anchor="middle" x="670" y="-370" font-family="Helvetica,sans-Serif" font-size="10.00">_client/uds_client.hpp</text>
</a>
</g>
</g>
<!-- Node2 -->
<g id="Node000002" class="node">
<title>Node2</title>
<g id="a_Node000002"><a xlink:title=" ">
<polygon fill="#e0e0e0" stroke="#999999" points="1914,-79.5 1864,-79.5 1864,-60.5 1914,-60.5 1914,-79.5"/>
<text text-anchor="middle" x="1889" y="-67.5" font-family="Helvetica,sans-Serif" font-size="10.00">chrono</text>
</a>
</g>
</g>
<!-- Node1&#45;&gt;Node2 -->
<g id="edge1_Node000001_Node000002" class="edge">
<title>Node1&#45;&gt;Node2</title>
<g id="a_edge1_Node000001_Node000002"><a xlink:title=" ">
<path fill="none" stroke="#63b8ff" d="M731.12,-377.84C890.54,-378.49 1330.91,-370.49 1680,-272 1788.15,-241.49 1858.22,-254.49 1902,-151 1910.45,-131.01 1904,-106.08 1897.54,-89.4"/>
<polygon fill="#63b8ff" stroke="#63b8ff" points="1900.58,-87.61 1893.45,-79.78 1894.14,-90.35 1900.58,-87.61"/>
</a>
</g>
</g>
<!-- Node3 -->
<g id="Node000003" class="node">
<title>Node3</title>
<g id="a_Node000003"><a xlink:title=" ">
<polygon fill="#e0e0e0" stroke="#999999" points="515.5,-79.5 450.5,-79.5 450.5,-60.5 515.5,-60.5 515.5,-79.5"/>
<text text-anchor="middle" x="483" y="-67.5" font-family="Helvetica,sans-Serif" font-size="10.00">functional</text>
</a>
</g>
</g>
<!-- Node1&#45;&gt;Node3 -->
<g id="edge2_Node000001_Node000003" class="edge">
<title>Node1&#45;&gt;Node3</title>
<g id="a_edge2_Node000001_Node000003"><a xlink:title=" ">
<path fill="none" stroke="#63b8ff" d="M608.93,-374.38C540.88,-367.76 433.99,-345.49 385,-272 341.98,-207.46 425.79,-121.24 464.68,-86.48"/>
<polygon fill="#63b8ff" stroke="#63b8ff" points="467.01,-89.09 472.23,-79.87 462.4,-83.82 467.01,-89.09"/>
</a>
</g>
</g>
<!-- Node4 -->
<g id="Node000004" class="node">
<title>Node4</title>
<g id="a_Node000004"><a xlink:title=" ">
<polygon fill="#e0e0e0" stroke="#999999" points="440,-272 394,-272 394,-253 440,-253 440,-272"/>
<text text-anchor="middle" x="417" y="-260" font-family="Helvetica,sans-Serif" font-size="10.00">future</text>
</a>
</g>
</g>
<!-- Node1&#45;&gt;Node4 -->
<g id="edge3_Node000001_Node000004" class="edge">
<title>Node1&#45;&gt;Node4</title>
<g id="a_edge3_Node000001_Node000004"><a xlink:title=" ">
<path fill="none" stroke="#63b8ff" d="M638.72,-362.97C589.13,-340.72 493.17,-297.67 445.42,-276.25"/>
<polygon fill="#63b8ff" stroke="#63b8ff" points="446.83,-273.04 436.27,-272.14 443.96,-279.43 446.83,-273.04"/>
</a>
</g>
</g>
<!-- Node5 -->
<g id="Node000005" class="node">
<title>Node5</title>
<g id="a_Node000005"><a xlink:title=" ">
<polygon fill="#e0e0e0" stroke="#999999" points="432,-79.5 374,-79.5 374,-60.5 432,-60.5 432,-79.5"/>
<text text-anchor="middle" x="403" y="-67.5" font-family="Helvetica,sans-Serif" font-size="10.00">memory</text>
</a>
</g>
</g>
<!-- Node1&#45;&gt;Node5 -->
<g id="edge4_Node000001_Node000005" class="edge">
<title>Node1&#45;&gt;Node5</title>
<g id="a_edge4_Node000001_Node000005"><a xlink:title=" ">
<path fill="none" stroke="#63b8ff" d="M608.86,-369.46C510.49,-355.59 328,-321.99 328,-263.5 328,-263.5 328,-263.5 328,-201 328,-154.62 364.26,-109.88 386.36,-86.93"/>
<polygon fill="#63b8ff" stroke="#63b8ff" points="388.93,-89.31 393.5,-79.75 383.97,-84.37 388.93,-89.31"/>
</a>
</g>
</g>
<!-- Node6 -->
<g id="Node000006" class="node">
<title>Node6</title>
<g id="a_Node000006"><a xlink:title=" ">
<polygon fill="#e0e0e0" stroke="#999999" points="2097,-79.5 2053,-79.5 2053,-60.5 2097,-60.5 2097,-79.5"/>
<text text-anchor="middle" x="2075" y="-67.5" font-family="Helvetica,sans-Serif" font-size="10.00">string</text>
</a>
</g>
</g>
<!-- Node1&#45;&gt;Node6 -->
<g id="edge5_Node000001_Node000006" class="edge">
<title>Node1&#45;&gt;Node6</title>
<g id="a_edge5_Node000001_Node000006"><a xlink:title=" ">
<path fill="none" stroke="#63b8ff" d="M731.08,-375.81C1019.13,-369.78 2228,-339.95 2228,-263.5 2228,-263.5 2228,-263.5 2228,-201 2228,-137.97 2151.66,-99.12 2106.83,-81.74"/>
<polygon fill="#63b8ff" stroke="#63b8ff" points="2107.84,-78.38 2097.25,-78.17 2105.39,-84.94 2107.84,-78.38"/>
</a>
</g>
</g>
<!-- Node7 -->
<g id="Node000007" class="node">
<title>Node7</title>
<g id="a_Node000007"><a xlink:title=" ">
<polygon fill="#e0e0e0" stroke="#999999" points="1131.5,-79.5 1058.5,-79.5 1058.5,-60.5 1131.5,-60.5 1131.5,-79.5"/>
<text text-anchor="middle" x="1095" y="-67.5" font-family="Helvetica,sans-Serif" font-size="10.00">string_view</text>
</a>
</g>
</g>
<!-- Node1&#45;&gt;Node7 -->
<g id="edge6_Node000001_Node000007" class="edge">
<title>Node1&#45;&gt;Node7</title>
<g id="a_edge6_Node000001_Node000007"><a xlink:title=" ">
<path fill="none" stroke="#63b8ff" d="M731.34,-375.48C956.99,-368.5 1735.63,-331.47 1885,-151 1893.5,-140.73 1894.13,-130.72 1885,-121 1859.46,-93.79 1308.43,-76.76 1142.11,-72.22"/>
<polygon fill="#63b8ff" stroke="#63b8ff" points="1141.81,-68.71 1131.72,-71.94 1141.62,-75.71 1141.81,-68.71"/>
</a>
</g>
</g>
<!-- Node8 -->
<g id="Node000008" class="node">
<title>Node8</title>
<g id="a_Node000008"><a xlink:href="constants_8hpp.html" target="_top" xlink:title=" ">
<polygon fill="white" stroke="#666666" points="299.5,-145.5 152.5,-145.5 152.5,-126.5 299.5,-126.5 299.5,-145.5"/>
<text text-anchor="middle" x="226" y="-133.5" font-family="Helvetica,sans-Serif" font-size="10.00">unilink/base/constants.hpp</text>
</a>
</g>
</g>
<!-- Node1&#45;&gt;Node8 -->
<g id="edge7_Node000001_Node000008" class="edge">
<title>Node1&#45;&gt;Node8</title>
<g id="a_edge7_Node000001_Node000008"><a xlink:title=" ">
<path fill="none" stroke="#63b8ff" d="M608.66,-375.34C519.42,-371.77 359.49,-360.75 314,-327 256.34,-284.22 235.27,-194.36 228.65,-155.53"/>
<polygon fill="#63b8ff" stroke="#63b8ff" points="232.1,-154.95 227.09,-145.61 225.19,-156.04 232.1,-154.95"/>
</a>
</g>
</g>
<!-- Node11 -->
<g id="Node000011" class="node">
<title>Node11</title>
<g id="a_Node000011"><a xlink:href="visibility_8hpp.html" target="_top" xlink:title=" ">
<polygon fill="white" stroke="#666666" points="1040,-79.5 900,-79.5 900,-60.5 1040,-60.5 1040,-79.5"/>
<text text-anchor="middle" x="970" y="-67.5" font-family="Helvetica,sans-Serif" font-size="10.00">unilink/base/visibility.hpp</text>
</a>
</g>
</g>
<!-- Node1&#45;&gt;Node11 -->
<g id="edge10_Node000001_Node000011" class="edge">
<title>Node1&#45;&gt;Node11</title>
<g id="a_edge10_Node000001_Node000011"><a xlink:title=" ">
<path fill="none" stroke="#63b8ff" d="M731.21,-369.21C828.61,-355.08 1008,-321.22 1008,-263.5 1008,-263.5 1008,-263.5 1008,-201 1008,-159.44 989.89,-113.3 978.67,-88.71"/>
<polygon fill="#63b8ff" stroke="#63b8ff" points="981.79,-87.12 974.36,-79.57 975.46,-90.11 981.79,-87.12"/>
</a>
</g>
</g>
<!-- Node12 -->
<g id="Node000012" class="node">
<title>Node12</title>
<g id="a_Node000012"><a xlink:href="ichannel_8hpp.html" target="_top" xlink:title=" ">
<polygon fill="white" stroke="#666666" points="749,-327 591,-327 591,-308 749,-308 749,-327"/>
<text text-anchor="middle" x="670" y="-315" font-family="Helvetica,sans-Serif" font-size="10.00">unilink/wrapper/ichannel.hpp</text>
</a>
</g>
</g>
<!-- Node1&#45;&gt;Node12 -->
<g id="edge11_Node000001_Node000012" class="edge">
<title>Node1&#45;&gt;Node12</title>
<g id="a_edge11_Node000001_Node000012"><a xlink:title=" ">
<path fill="none" stroke="#63b8ff" d="M670,-362.84C670,-355.21 670,-345.7 670,-337.45"/>
<polygon fill="#63b8ff" stroke="#63b8ff" points="673.5,-337.27 670,-327.27 666.5,-337.27 673.5,-337.27"/>
</a>
</g>
</g>
<!-- Node9 -->
<g id="Node000009" class="node">
<title>Node9</title>
<g id="a_Node000009"><a xlink:title=" ">
<polygon fill="#e0e0e0" stroke="#999999" points="226.5,-79.5 173.5,-79.5 173.5,-60.5 226.5,-60.5 226.5,-79.5"/>
<text text-anchor="middle" x="200" y="-67.5" font-family="Helvetica,sans-Serif" font-size="10.00">cstddef</text>
</a>
</g>
</g>
<!-- Node8&#45;&gt;Node9 -->
<g id="edge8_Node000008_Node000009" class="edge">
<title>Node8&#45;&gt;Node9</title>
<g id="a_edge8_Node000008_Node000009"><a xlink:title=" ">
<path fill="none" stroke="#63b8ff" d="M222.49,-126.37C218.68,-116.97 212.46,-101.67 207.53,-89.53"/>
<polygon fill="#63b8ff" stroke="#63b8ff" points="210.62,-87.85 203.62,-79.91 204.14,-90.49 210.62,-87.85"/>
</a>
</g>
</g>
<!-- Node10 -->
<g id="Node000010" class="node">
<title>Node10</title>
<g id="a_Node000010"><a xlink:title=" ">
<polygon fill="#e0e0e0" stroke="#999999" points="650,-19 600,-19 600,0 650,0 650,-19"/>
<text text-anchor="middle" x="625" y="-7" font-family="Helvetica,sans-Serif" font-size="10.00">cstdint</text>
</a>
</g>
</g>
<!-- Node8&#45;&gt;Node10 -->
<g id="edge9_Node000008_Node000010" class="edge">
<title>Node8&#45;&gt;Node10</title>
<g id="a_edge9_Node000008_Node000010"><a xlink:title=" ">
<path fill="none" stroke="#63b8ff" d="M237.55,-126.37C260.51,-109.67 314.08,-73.02 365,-55 457.89,-22.13 489.38,-38.26 589.86,-19.03"/>
<polygon fill="#63b8ff" stroke="#63b8ff" points="590.68,-22.44 599.8,-17.06 589.31,-15.57 590.68,-22.44"/>
</a>
</g>
</g>
<!-- Node12&#45;&gt;Node3 -->
<g id="edge12_Node000012_Node000003" class="edge">
<title>Node12&#45;&gt;Node3</title>
<g id="a_edge12_Node000012_Node000003"><a xlink:title=" ">
<path fill="none" stroke="#63b8ff" d="M652.5,-307.95C612.78,-287.41 516.42,-231.03 480,-151 471.12,-131.49 474.03,-106.45 477.74,-89.63"/>
<polygon fill="#63b8ff" stroke="#63b8ff" points="481.15,-90.45 480.19,-79.9 474.36,-88.75 481.15,-90.45"/>
</a>
</g>
</g>
<!-- Node12&#45;&gt;Node4 -->
<g id="edge13_Node000012_Node000004" class="edge">
<title>Node12&#45;&gt;Node4</title>
<g id="a_edge13_Node000012_Node000004"><a xlink:title=" ">
<path fill="none" stroke="#63b8ff" d="M626.91,-307.92C583.27,-299.16 513.86,-285.04 454,-272 452.73,-271.72 451.44,-271.44 450.14,-271.15"/>
<polygon fill="#63b8ff" stroke="#63b8ff" points="450.6,-267.67 440.07,-268.89 449.06,-274.5 450.6,-267.67"/>
</a>
</g>
</g>
<!-- Node12&#45;&gt;Node5 -->
<g id="edge14_Node000012_Node000005" class="edge">
<title>Node12&#45;&gt;Node5</title>
<g id="a_edge14_Node000012_Node000005"><a xlink:title=" ">
<path fill="none" stroke="#63b8ff" d="M642.89,-307.97C620.53,-300.3 588.46,-287.82 563,-272 487.02,-224.8 431.9,-128.2 411.58,-88.57"/>
<polygon fill="#63b8ff" stroke="#63b8ff" points="414.68,-86.95 407.07,-79.58 408.42,-90.09 414.68,-86.95"/>
</a>
</g>
</g>
<!-- Node12&#45;&gt;Node6 -->
<g id="edge15_Node000012_Node000006" class="edge">
<title>Node12&#45;&gt;Node6</title>
<g id="a_edge15_Node000012_Node000006"><a xlink:title=" ">
<path fill="none" stroke="#63b8ff" d="M749.15,-314.15C1049.55,-304.88 2104.65,-268.7 2153,-217 2166.57,-202.48 2155.42,-143.01 2142,-121 2132.52,-105.45 2116.23,-93.12 2102.09,-84.61"/>
<polygon fill="#63b8ff" stroke="#63b8ff" points="2103.62,-81.45 2093.2,-79.56 2100.17,-87.54 2103.62,-81.45"/>
</a>
</g>
</g>
<!-- Node12&#45;&gt;Node7 -->
<g id="edge16_Node000012_Node000007" class="edge">
<title>Node12&#45;&gt;Node7</title>
<g id="a_edge16_Node000012_Node000007"><a xlink:title=" ">
<path fill="none" stroke="#63b8ff" d="M694.13,-307.94C716.39,-299.72 750.09,-286.46 778,-272 895.39,-211.19 1025.8,-120.53 1074.88,-85.52"/>
<polygon fill="#63b8ff" stroke="#63b8ff" points="1076.98,-88.32 1083.07,-79.65 1072.9,-82.63 1076.98,-88.32"/>
</a>
</g>
</g>
<!-- Node12&#45;&gt;Node11 -->
<g id="edge18_Node000012_Node000011" class="edge">
<title>Node12&#45;&gt;Node11</title>
<g id="a_edge18_Node000012_Node000011"><a xlink:title=" ">
<path fill="none" stroke="#63b8ff" d="M688.65,-307.95C705.76,-299.75 731.5,-286.49 752,-272 835.66,-212.84 921.01,-124.17 954.85,-87.64"/>
<polygon fill="#63b8ff" stroke="#63b8ff" points="957.78,-89.63 961.97,-79.9 952.62,-84.89 957.78,-89.63"/>
</a>
</g>
</g>
<!-- Node13 -->
<g id="Node000013" class="node">
<title>Node13</title>
<g id="a_Node000013"><a xlink:title=" ">
<polygon fill="#e0e0e0" stroke="#999999" points="881.5,-79.5 834.5,-79.5 834.5,-60.5 881.5,-60.5 881.5,-79.5"/>
<text text-anchor="middle" x="858" y="-67.5" font-family="Helvetica,sans-Serif" font-size="10.00">vector</text>
</a>
</g>
</g>
<!-- Node12&#45;&gt;Node13 -->
<g id="edge17_Node000012_Node000013" class="edge">
<title>Node12&#45;&gt;Node13</title>
<g id="a_edge17_Node000012_Node000013"><a xlink:title=" ">
<path fill="none" stroke="#63b8ff" d="M682.72,-307.72C714.05,-285.4 795.39,-223.13 837,-151 847.96,-132 853.32,-107.19 855.86,-90.27"/>
<polygon fill="#63b8ff" stroke="#63b8ff" points="859.38,-90.35 857.2,-79.99 852.43,-89.45 859.38,-90.35"/>
</a>
</g>
</g>
<!-- Node14 -->
<g id="Node000014" class="node">
<title>Node14</title>
<g id="a_Node000014"><a xlink:href="iframer_8hpp.html" target="_top" xlink:title=" ">
<polygon fill="white" stroke="#666666" points="653.5,-145.5 508.5,-145.5 508.5,-126.5 653.5,-126.5 653.5,-145.5"/>
<text text-anchor="middle" x="581" y="-133.5" font-family="Helvetica,sans-Serif" font-size="10.00">unilink/framer/iframer.hpp</text>
</a>
</g>
</g>
<!-- Node12&#45;&gt;Node14 -->
<g id="edge19_Node000012_Node000014" class="edge">
<title>Node12&#45;&gt;Node14</title>
<g id="a_edge19_Node000012_Node000014"><a xlink:title=" ">
<path fill="none" stroke="#63b8ff" d="M665.71,-307.84C651.93,-280.06 608.65,-192.77 589.86,-154.86"/>
<polygon fill="#63b8ff" stroke="#63b8ff" points="592.83,-152.98 585.25,-145.57 586.56,-156.08 592.83,-152.98"/>
</a>
</g>
</g>
<!-- Node18 -->
<g id="Node000018" class="node">
<title>Node18</title>
<g id="a_Node000018"><a xlink:href="context_8hpp.html" target="_top" xlink:title=" ">
<polygon fill="white" stroke="#666666" points="1189.5,-272 1036.5,-272 1036.5,-253 1189.5,-253 1189.5,-272"/>
<text text-anchor="middle" x="1113" y="-260" font-family="Helvetica,sans-Serif" font-size="10.00">unilink/wrapper/context.hpp</text>
</a>
</g>
</g>
<!-- Node12&#45;&gt;Node18 -->
<g id="edge28_Node000012_Node000018" class="edge">
<title>Node12&#45;&gt;Node18</title>
<g id="a_edge28_Node000012_Node000018"><a xlink:title=" ">
<path fill="none" stroke="#63b8ff" d="M741.18,-307.98C820.42,-298.5 948.26,-283.21 1031.46,-273.26"/>
<polygon fill="#63b8ff" stroke="#63b8ff" points="1032.12,-276.7 1041.63,-272.04 1031.29,-269.75 1032.12,-276.7"/>
</a>
</g>
</g>
<!-- Node34 -->
<g id="Node000034" class="node">
<title>Node34</title>
<g id="a_Node000034"><a xlink:href="runtime__stats_8hpp.html" target="_top" xlink:title=" ">
<polygon fill="white" stroke="#666666" points="134,-151 0,-151 0,-121 134,-121 134,-151"/>
<text text-anchor="start" x="8" y="-139" font-family="Helvetica,sans-Serif" font-size="10.00">unilink/wrapper/runtime</text>
<text text-anchor="middle" x="67" y="-128" font-family="Helvetica,sans-Serif" font-size="10.00">_stats.hpp</text>
</a>
</g>
</g>
<!-- Node12&#45;&gt;Node34 -->
<g id="edge75_Node000012_Node000034" class="edge">
<title>Node12&#45;&gt;Node34</title>
<g id="a_edge75_Node000012_Node000034"><a xlink:title=" ">
<path fill="none" stroke="#63b8ff" d="M627.33,-307.98C590.89,-300.2 537.35,-287.56 492,-272 472.24,-265.22 468.59,-260.27 449,-253 338.78,-212.08 206.9,-174.46 130.46,-153.73"/>
<polygon fill="#63b8ff" stroke="#63b8ff" points="131.08,-150.27 120.51,-151.04 129.25,-157.03 131.08,-150.27"/>
</a>
</g>
</g>
<!-- Node14&#45;&gt;Node3 -->
<g id="edge20_Node000014_Node000003" class="edge">
<title>Node14&#45;&gt;Node3</title>
<g id="a_edge20_Node000014_Node000003"><a xlink:title=" ">
<path fill="none" stroke="#63b8ff" d="M567.78,-126.37C551.64,-115.82 524.09,-97.84 504.79,-85.23"/>
<polygon fill="#63b8ff" stroke="#63b8ff" points="506.61,-82.24 496.32,-79.7 502.78,-88.1 506.61,-82.24"/>
</a>
</g>
</g>
<!-- Node14&#45;&gt;Node5 -->
<g id="edge21_Node000014_Node000005" class="edge">
<title>Node14&#45;&gt;Node5</title>
<g id="a_edge21_Node000014_Node000005"><a xlink:title=" ">
<path fill="none" stroke="#63b8ff" d="M556.94,-126.49C529.03,-116.6 481.64,-99.74 441,-85 439.36,-84.41 437.69,-83.8 436,-83.18"/>
<polygon fill="#63b8ff" stroke="#63b8ff" points="436.89,-79.78 426.3,-79.63 434.48,-86.35 436.89,-79.78"/>
</a>
</g>
</g>
<!-- Node14&#45;&gt;Node11 -->
<g id="edge23_Node000014_Node000011" class="edge">
<title>Node14&#45;&gt;Node11</title>
<g id="a_edge23_Node000014_Node000011"><a xlink:title=" ">
<path fill="none" stroke="#63b8ff" d="M635.36,-126.49C697.29,-116.74 801.51,-100.15 891,-85 897.83,-83.84 904.98,-82.61 912.08,-81.37"/>
<polygon fill="#63b8ff" stroke="#63b8ff" points="913.15,-84.74 922.4,-79.56 911.94,-77.84 913.15,-84.74"/>
</a>
</g>
</g>
<!-- Node14&#45;&gt;Node13 -->
<g id="edge22_Node000014_Node000013" class="edge">
<title>Node14&#45;&gt;Node13</title>
<g id="a_edge22_Node000014_Node000013"><a xlink:title=" ">
<path fill="none" stroke="#63b8ff" d="M618.07,-126.44C672.25,-113.92 772.26,-90.81 824.4,-78.76"/>
<polygon fill="#63b8ff" stroke="#63b8ff" points="825.21,-82.17 834.16,-76.51 823.63,-75.35 825.21,-82.17"/>
</a>
</g>
</g>
<!-- Node15 -->
<g id="Node000015" class="node">
<title>Node15</title>
<g id="a_Node000015"><a xlink:href="safe__span_8hpp.html" target="_top" xlink:title=" ">
<polygon fill="white" stroke="#666666" points="652,-85 534,-85 534,-55 652,-55 652,-85"/>
<text text-anchor="start" x="542" y="-73" font-family="Helvetica,sans-Serif" font-size="10.00">unilink/memory/safe</text>
<text text-anchor="middle" x="593" y="-62" font-family="Helvetica,sans-Serif" font-size="10.00">_span.hpp</text>
</a>
</g>
</g>
<!-- Node14&#45;&gt;Node15 -->
<g id="edge24_Node000014_Node000015" class="edge">
<title>Node14&#45;&gt;Node15</title>
<g id="a_edge24_Node000014_Node000015"><a xlink:title=" ">
<path fill="none" stroke="#63b8ff" d="M582.62,-126.37C584.11,-118.4 586.4,-106.2 588.45,-95.27"/>
<polygon fill="#63b8ff" stroke="#63b8ff" points="591.9,-95.83 590.31,-85.36 585.02,-94.54 591.9,-95.83"/>
</a>
</g>
</g>
<!-- Node15&#45;&gt;Node10 -->
<g id="edge25_Node000015_Node000010" class="edge">
<title>Node15&#45;&gt;Node10</title>
<g id="a_edge25_Node000015_Node000010"><a xlink:title=" ">
<path fill="none" stroke="#63b8ff" d="M600.75,-54.84C605.15,-46.78 610.71,-36.62 615.4,-28.06"/>
<polygon fill="#63b8ff" stroke="#63b8ff" points="618.48,-29.72 620.2,-19.27 612.34,-26.36 618.48,-29.72"/>
</a>
</g>
</g>
<!-- Node16 -->
<g id="Node000016" class="node">
<title>Node16</title>
<g id="a_Node000016"><a xlink:title=" ">
<polygon fill="#e0e0e0" stroke="#999999" points="582,-19 542,-19 542,0 582,0 582,-19"/>
<text text-anchor="middle" x="562" y="-7" font-family="Helvetica,sans-Serif" font-size="10.00">span</text>
</a>
</g>
</g>
<!-- Node15&#45;&gt;Node16 -->
<g id="edge26_Node000015_Node000016" class="edge">
<title>Node15&#45;&gt;Node16</title>
<g id="a_edge26_Node000015_Node000016"><a xlink:title=" ">
<path fill="none" stroke="#63b8ff" d="M585.5,-54.84C581.27,-46.87 575.96,-36.84 571.45,-28.33"/>
<polygon fill="#63b8ff" stroke="#63b8ff" points="574.42,-26.46 566.65,-19.27 568.23,-29.74 574.42,-26.46"/>
</a>
</g>
</g>
<!-- Node17 -->
<g id="Node000017" class="node">
<title>Node17</title>
<g id="a_Node000017"><a xlink:title=" ">
<polygon fill="#e0e0e0" stroke="#999999" points="838.5,-19 773.5,-19 773.5,0 838.5,0 838.5,-19"/>
<text text-anchor="middle" x="806" y="-7" font-family="Helvetica,sans-Serif" font-size="10.00">stdexcept</text>
</a>
</g>
</g>
<!-- Node15&#45;&gt;Node17 -->
<g id="edge27_Node000015_Node000017" class="edge">
<title>Node15&#45;&gt;Node17</title>
<g id="a_edge27_Node000015_Node000017"><a xlink:title=" ">
<path fill="none" stroke="#63b8ff" d="M644.02,-54.99C681.1,-44.8 730.62,-31.2 765.11,-21.73"/>
<polygon fill="#63b8ff" stroke="#63b8ff" points="766.14,-25.08 774.86,-19.05 764.29,-18.33 766.14,-25.08"/>
</a>
</g>
</g>
<!-- Node18&#45;&gt;Node6 -->
<g id="edge30_Node000018_Node000006" class="edge">
<title>Node18&#45;&gt;Node6</title>
<g id="a_edge30_Node000018_Node000006"><a xlink:title=" ">
<path fill="none" stroke="#63b8ff" d="M1189.75,-261.02C1421.53,-259.19 2100.5,-250.95 2133,-217 2169.03,-179.36 2118.99,-116.59 2091.27,-87.16"/>
<polygon fill="#63b8ff" stroke="#63b8ff" points="2093.6,-84.54 2084.13,-79.79 2088.58,-89.41 2093.6,-84.54"/>
</a>
</g>
</g>
<!-- Node18&#45;&gt;Node7 -->
<g id="edge31_Node000018_Node000007" class="edge">
<title>Node18&#45;&gt;Node7</title>
<g id="a_edge31_Node000018_Node000007"><a xlink:title=" ">
<path fill="none" stroke="#63b8ff" d="M1112.18,-252.82C1109.44,-223.87 1100.59,-130.2 1096.78,-89.82"/>
<polygon fill="#63b8ff" stroke="#63b8ff" points="1100.25,-89.36 1095.83,-79.73 1093.28,-90.02 1100.25,-89.36"/>
</a>
</g>
</g>
<!-- Node18&#45;&gt;Node13 -->
<g id="edge32_Node000018_Node000013" class="edge">
<title>Node18&#45;&gt;Node13</title>
<g id="a_edge32_Node000018_Node000013"><a xlink:title=" ">
<path fill="none" stroke="#63b8ff" d="M1101.38,-252.82C1061.21,-222.81 927.95,-123.25 877.54,-85.6"/>
<polygon fill="#63b8ff" stroke="#63b8ff" points="879.5,-82.69 869.4,-79.51 875.31,-88.3 879.5,-82.69"/>
</a>
</g>
</g>
<!-- Node18&#45;&gt;Node15 -->
<g id="edge74_Node000018_Node000015" class="edge">
<title>Node18&#45;&gt;Node15</title>
<g id="a_edge74_Node000018_Node000015"><a xlink:title=" ">
<path fill="none" stroke="#63b8ff" d="M1039.26,-252.96C953.44,-240.55 809.64,-212.01 701,-151 682.24,-140.46 680.2,-133.92 663,-121 649.61,-110.94 634.52,-100.1 621.79,-91.1"/>
<polygon fill="#63b8ff" stroke="#63b8ff" points="623.59,-88.09 613.4,-85.19 619.56,-93.81 623.59,-88.09"/>
</a>
</g>
</g>
<!-- Node19 -->
<g id="Node000019" class="node">
<title>Node19</title>
<g id="a_Node000019"><a xlink:title=" ">
<polygon fill="#e0e0e0" stroke="#999999" points="1458,-211.5 1402,-211.5 1402,-192.5 1458,-192.5 1458,-211.5"/>
<text text-anchor="middle" x="1430" y="-199.5" font-family="Helvetica,sans-Serif" font-size="10.00">optional</text>
</a>
</g>
</g>
<!-- Node18&#45;&gt;Node19 -->
<g id="edge29_Node000018_Node000019" class="edge">
<title>Node18&#45;&gt;Node19</title>
<g id="a_edge29_Node000018_Node000019"><a xlink:title=" ">
<path fill="none" stroke="#63b8ff" d="M1189.64,-253.6C1246.41,-246.72 1325.33,-234.98 1393,-217 1395.3,-216.39 1397.65,-215.69 1400,-214.93"/>
<polygon fill="#63b8ff" stroke="#63b8ff" points="1401.22,-218.21 1409.5,-211.61 1398.91,-211.61 1401.22,-218.21"/>
</a>
</g>
</g>
<!-- Node20 -->
<g id="Node000020" class="node">
<title>Node20</title>
<g id="a_Node000020"><a xlink:href="common_8hpp.html" target="_top" xlink:title=" ">
<polygon fill="white" stroke="#666666" points="1383.5,-211.5 1240.5,-211.5 1240.5,-192.5 1383.5,-192.5 1383.5,-211.5"/>
<text text-anchor="middle" x="1312" y="-199.5" font-family="Helvetica,sans-Serif" font-size="10.00">unilink/base/common.hpp</text>
</a>
</g>
</g>
<!-- Node18&#45;&gt;Node20 -->
<g id="edge33_Node000018_Node000020" class="edge">
<title>Node18&#45;&gt;Node20</title>
<g id="a_edge33_Node000018_Node000020"><a xlink:title=" ">
<path fill="none" stroke="#63b8ff" d="M1141.94,-252.99C1176.57,-242.81 1234.7,-225.72 1273.21,-214.4"/>
<polygon fill="#63b8ff" stroke="#63b8ff" points="1274.42,-217.7 1283.03,-211.52 1272.45,-210.98 1274.42,-217.7"/>
</a>
</g>
</g>
<!-- Node31 -->
<g id="Node000031" class="node">
<title>Node31</title>
<g id="a_Node000031"><a xlink:href="error__codes_8hpp.html" target="_top" xlink:title=" ">
<polygon fill="white" stroke="#666666" points="2124,-217 2022,-217 2022,-187 2124,-187 2124,-217"/>
<text text-anchor="start" x="2030" y="-205" font-family="Helvetica,sans-Serif" font-size="10.00">unilink/base/error</text>
<text text-anchor="middle" x="2073" y="-194" font-family="Helvetica,sans-Serif" font-size="10.00">_codes.hpp</text>
</a>
</g>
</g>
<!-- Node18&#45;&gt;Node31 -->
<g id="edge61_Node000018_Node000031" class="edge">
<title>Node18&#45;&gt;Node31</title>
<g id="a_edge61_Node000018_Node000031"><a xlink:title=" ">
<path fill="none" stroke="#63b8ff" d="M1189.53,-256.84C1374.56,-245.56 1843.25,-217 2011.6,-206.74"/>
<polygon fill="#63b8ff" stroke="#63b8ff" points="2012.01,-210.22 2021.78,-206.12 2011.58,-203.24 2012.01,-210.22"/>
</a>
</g>
</g>
<!-- Node32 -->
<g id="Node000032" class="node">
<title>Node32</title>
<g id="a_Node000032"><a xlink:href="safe__data__buffer_8hpp.html" target="_top" xlink:title=" ">
<polygon fill="white" stroke="#666666" points="828,-151 710,-151 710,-121 828,-121 828,-151"/>
<text text-anchor="start" x="718" y="-139" font-family="Helvetica,sans-Serif" font-size="10.00">unilink/memory/safe</text>
<text text-anchor="middle" x="769" y="-128" font-family="Helvetica,sans-Serif" font-size="10.00">_data_buffer.hpp</text>
</a>
</g>
</g>
<!-- Node18&#45;&gt;Node32 -->
<g id="edge63_Node000018_Node000032" class="edge">
<title>Node18&#45;&gt;Node32</title>
<g id="a_edge63_Node000018_Node000032"><a xlink:title=" ">
<path fill="none" stroke="#63b8ff" d="M1077.99,-252.95C1045.9,-244.79 997.26,-231.61 956,-217 903.9,-198.56 845.61,-172.76 808.17,-155.5"/>
<polygon fill="#63b8ff" stroke="#63b8ff" points="809.2,-152.12 798.65,-151.09 806.25,-158.47 809.2,-152.12"/>
</a>
</g>
</g>
<!-- Node20&#45;&gt;Node2 -->
<g id="edge34_Node000020_Node000002" class="edge">
<title>Node20&#45;&gt;Node2</title>
<g id="a_edge34_Node000020_Node000002"><a xlink:title=" ">
<path fill="none" stroke="#63b8ff" d="M1356.87,-192.44C1368.6,-190.42 1381.24,-188.44 1393,-187 1447.4,-180.32 1846.69,-190.2 1885,-151 1900.53,-135.11 1898.23,-107.9 1894.31,-89.68"/>
<polygon fill="#63b8ff" stroke="#63b8ff" points="1897.69,-88.77 1891.87,-79.92 1890.9,-90.47 1897.69,-88.77"/>
</a>
</g>
</g>
<!-- Node20&#45;&gt;Node3 -->
<g id="edge38_Node000020_Node000003" class="edge">
<title>Node20&#45;&gt;Node3</title>
<g id="a_edge38_Node000020_Node000003"><a xlink:title=" ">
<path fill="none" stroke="#63b8ff" d="M1240.45,-201.49C1052.27,-202.11 554.18,-199.14 499,-151 481.85,-136.04 479.93,-108.35 480.87,-89.8"/>
<polygon fill="#63b8ff" stroke="#63b8ff" points="484.38,-89.88 481.72,-79.63 477.4,-89.3 484.38,-89.88"/>
</a>
</g>
</g>
<!-- Node20&#45;&gt;Node6 -->
<g id="edge43_Node000020_Node000006" class="edge">
<title>Node20&#45;&gt;Node6</title>
<g id="a_edge43_Node000020_Node000006"><a xlink:title=" ">
<path fill="none" stroke="#63b8ff" d="M1356.44,-192.44C1368.28,-190.4 1381.1,-188.41 1393,-187 1517.5,-172.3 1837.31,-191.37 1956,-151 1996.78,-137.13 2036.8,-105.46 2058.45,-86.39"/>
<polygon fill="#63b8ff" stroke="#63b8ff" points="2060.98,-88.83 2066.07,-79.53 2056.29,-83.63 2060.98,-88.83"/>
</a>
</g>
</g>
<!-- Node20&#45;&gt;Node7 -->
<g id="edge44_Node000020_Node000007" class="edge">
<title>Node20&#45;&gt;Node7</title>
<g id="a_edge44_Node000020_Node000007"><a xlink:title=" ">
<path fill="none" stroke="#63b8ff" d="M1247.23,-192.46C1214.35,-185.56 1175.28,-173.16 1146,-151 1124.82,-134.97 1110.09,-107.39 1102.08,-89.18"/>
<polygon fill="#63b8ff" stroke="#63b8ff" points="1105.31,-87.81 1098.24,-79.92 1098.84,-90.5 1105.31,-87.81"/>
</a>
</g>
</g>
<!-- Node20&#45;&gt;Node8 -->
<g id="edge47_Node000020_Node000008" class="edge">
<title>Node20&#45;&gt;Node8</title>
<g id="a_edge47_Node000020_Node000008"><a xlink:title=" ">
<path fill="none" stroke="#63b8ff" d="M1240.32,-196.78C1047.13,-185.39 516.29,-154.11 309.76,-141.94"/>
<polygon fill="#63b8ff" stroke="#63b8ff" points="309.77,-138.43 299.58,-141.34 309.35,-145.42 309.77,-138.43"/>
</a>
</g>
</g>
<!-- Node20&#45;&gt;Node10 -->
<g id="edge35_Node000020_Node000010" class="edge">
<title>Node20&#45;&gt;Node10</title>
<g id="a_edge35_Node000020_Node000010"><a xlink:title=" ">
<path fill="none" stroke="#63b8ff" d="M1261.74,-192.44C1234.25,-185.44 1201.34,-172.96 1179,-151 1146.27,-118.83 1177.81,-82.4 1141,-55 1131.32,-47.79 774.62,-21.35 660.05,-13.03"/>
<polygon fill="#63b8ff" stroke="#63b8ff" points="660.27,-9.53 650.04,-12.3 659.77,-16.52 660.27,-9.53"/>
</a>
</g>
</g>
<!-- Node20&#45;&gt;Node13 -->
<g id="edge46_Node000020_Node000013" class="edge">
<title>Node20&#45;&gt;Node13</title>
<g id="a_edge46_Node000020_Node000013"><a xlink:title=" ">
<path fill="none" stroke="#63b8ff" d="M1273.67,-192.46C1198.98,-175.38 1029.14,-134.38 891,-85 889.57,-84.49 888.12,-83.95 886.65,-83.39"/>
<polygon fill="#63b8ff" stroke="#63b8ff" points="887.63,-80.01 877.05,-79.52 885.02,-86.5 887.63,-80.01"/>
</a>
</g>
</g>
<!-- Node20&#45;&gt;Node17 -->
<g id="edge42_Node000020_Node000017" class="edge">
<title>Node20&#45;&gt;Node17</title>
<g id="a_edge42_Node000020_Node000017"><a xlink:title=" ">
<path fill="none" stroke="#63b8ff" d="M1356.44,-192.49C1368.29,-190.45 1381.1,-188.44 1393,-187 1449.5,-180.14 1859.76,-186.81 1904,-151 1937.81,-123.64 1953.14,-86.36 1923,-55 1885.14,-15.6 1049.35,-11.08 848.92,-10.57"/>
<polygon fill="#63b8ff" stroke="#63b8ff" points="848.79,-7.07 838.78,-10.54 848.77,-14.07 848.79,-7.07"/>
</a>
</g>
</g>
<!-- Node21 -->
<g id="Node000021" class="node">
<title>Node21</title>
<g id="a_Node000021"><a xlink:title=" ">
<polygon fill="#e0e0e0" stroke="#999999" points="1238,-145.5 1188,-145.5 1188,-126.5 1238,-126.5 1238,-145.5"/>
<text text-anchor="middle" x="1213" y="-133.5" font-family="Helvetica,sans-Serif" font-size="10.00">cstring</text>
</a>
</g>
</g>
<!-- Node20&#45;&gt;Node21 -->
<g id="edge36_Node000020_Node000021" class="edge">
<title>Node20&#45;&gt;Node21</title>
<g id="a_edge36_Node000020_Node000021"><a xlink:title=" ">
<path fill="none" stroke="#63b8ff" d="M1298.65,-192.37C1282.34,-181.82 1254.51,-163.84 1235.01,-151.23"/>
<polygon fill="#63b8ff" stroke="#63b8ff" points="1236.75,-148.19 1226.46,-145.7 1232.95,-154.07 1236.75,-148.19"/>
</a>
</g>
</g>
<!-- Node22 -->
<g id="Node000022" class="node">
<title>Node22</title>
<g id="a_Node000022"><a xlink:title=" ">
<polygon fill="#e0e0e0" stroke="#999999" points="1300,-145.5 1256,-145.5 1256,-126.5 1300,-126.5 1300,-145.5"/>
<text text-anchor="middle" x="1278" y="-133.5" font-family="Helvetica,sans-Serif" font-size="10.00">ctime</text>
</a>
</g>
</g>
<!-- Node20&#45;&gt;Node22 -->
<g id="edge37_Node000020_Node000022" class="edge">
<title>Node20&#45;&gt;Node22</title>
<g id="a_edge37_Node000020_Node000022"><a xlink:title=" ">
<path fill="none" stroke="#63b8ff" d="M1307.41,-192.37C1302.32,-182.78 1293.96,-167.05 1287.46,-154.8"/>
<polygon fill="#63b8ff" stroke="#63b8ff" points="1290.51,-153.09 1282.73,-145.91 1284.33,-156.38 1290.51,-153.09"/>
</a>
</g>
</g>
<!-- Node23 -->
<g id="Node000023" class="node">
<title>Node23</title>
<g id="a_Node000023"><a xlink:title=" ">
<polygon fill="#e0e0e0" stroke="#999999" points="1374,-145.5 1318,-145.5 1318,-126.5 1374,-126.5 1374,-145.5"/>
<text text-anchor="middle" x="1346" y="-133.5" font-family="Helvetica,sans-Serif" font-size="10.00">iomanip</text>
</a>
</g>
</g>
<!-- Node20&#45;&gt;Node23 -->
<g id="edge39_Node000020_Node000023" class="edge">
<title>Node20&#45;&gt;Node23</title>
<g id="a_edge39_Node000020_Node000023"><a xlink:title=" ">
<path fill="none" stroke="#63b8ff" d="M1316.59,-192.37C1321.68,-182.78 1330.04,-167.05 1336.54,-154.8"/>
<polygon fill="#63b8ff" stroke="#63b8ff" points="1339.67,-156.38 1341.27,-145.91 1333.49,-153.09 1339.67,-156.38"/>
</a>
</g>
</g>
<!-- Node24 -->
<g id="Node000024" class="node">
<title>Node24</title>
<g id="a_Node000024"><a xlink:title=" ">
<polygon fill="#e0e0e0" stroke="#999999" points="1452,-145.5 1392,-145.5 1392,-126.5 1452,-126.5 1452,-145.5"/>
<text text-anchor="middle" x="1422" y="-133.5" font-family="Helvetica,sans-Serif" font-size="10.00">iostream</text>
</a>
</g>
</g>
<!-- Node20&#45;&gt;Node24 -->
<g id="edge40_Node000020_Node000024" class="edge">
<title>Node20&#45;&gt;Node24</title>
<g id="a_edge40_Node000020_Node000024"><a xlink:title=" ">
<path fill="none" stroke="#63b8ff" d="M1326.84,-192.37C1345.12,-181.73 1376.44,-163.51 1398.13,-150.89"/>
<polygon fill="#63b8ff" stroke="#63b8ff" points="1400.17,-153.75 1407.05,-145.7 1396.64,-147.7 1400.17,-153.75"/>
</a>
</g>
</g>
<!-- Node25 -->
<g id="Node000025" class="node">
<title>Node25</title>
<g id="a_Node000025"><a xlink:title=" ">
<polygon fill="#e0e0e0" stroke="#999999" points="1526,-145.5 1470,-145.5 1470,-126.5 1526,-126.5 1526,-145.5"/>
<text text-anchor="middle" x="1498" y="-133.5" font-family="Helvetica,sans-Serif" font-size="10.00">sstream</text>
</a>
</g>
</g>
<!-- Node20&#45;&gt;Node25 -->
<g id="edge41_Node000020_Node000025" class="edge">
<title>Node20&#45;&gt;Node25</title>
<g id="a_edge41_Node000020_Node000025"><a xlink:title=" ">
<path fill="none" stroke="#63b8ff" d="M1338.48,-192.45C1368.35,-182.73 1418.34,-166.22 1461,-151 1462.65,-150.41 1464.33,-149.8 1466.03,-149.18"/>
<polygon fill="#63b8ff" stroke="#63b8ff" points="1467.59,-152.34 1475.75,-145.58 1465.15,-145.78 1467.59,-152.34"/>
</a>
</g>
</g>
<!-- Node26 -->
<g id="Node000026" class="node">
<title>Node26</title>
<g id="a_Node000026"><a xlink:title=" ">
<polygon fill="#e0e0e0" stroke="#999999" points="1589.5,-145.5 1544.5,-145.5 1544.5,-126.5 1589.5,-126.5 1589.5,-145.5"/>
<text text-anchor="middle" x="1567" y="-133.5" font-family="Helvetica,sans-Serif" font-size="10.00">utility</text>
</a>
</g>
</g>
<!-- Node20&#45;&gt;Node26 -->
<g id="edge45_Node000020_Node000026" class="edge">
<title>Node20&#45;&gt;Node26</title>
<g id="a_edge45_Node000020_Node000026"><a xlink:title=" ">
<path fill="none" stroke="#63b8ff" d="M1362.79,-192.49C1408.48,-184.16 1477.12,-169.96 1535,-151 1536.44,-150.53 1537.91,-150.01 1539.38,-149.47"/>
<polygon fill="#63b8ff" stroke="#63b8ff" points="1540.99,-152.6 1548.96,-145.61 1538.38,-146.1 1540.99,-152.6"/>
</a>
</g>
</g>
<!-- Node27 -->
<g id="Node000027" class="node">
<title>Node27</title>
<g id="a_Node000027"><a xlink:href="platform_8hpp.html" target="_top" xlink:title=" ">
<polygon fill="white" stroke="#666666" points="1876,-145.5 1734,-145.5 1734,-126.5 1876,-126.5 1876,-145.5"/>
<text text-anchor="middle" x="1805" y="-133.5" font-family="Helvetica,sans-Serif" font-size="10.00">unilink/base/platform.hpp</text>
</a>
</g>
</g>
<!-- Node20&#45;&gt;Node27 -->
<g id="edge48_Node000020_Node000027" class="edge">
<title>Node20&#45;&gt;Node27</title>
<g id="a_edge48_Node000020_Node000027"><a xlink:title=" ">
<path fill="none" stroke="#63b8ff" d="M1358.18,-192.5C1369.54,-190.55 1381.69,-188.59 1393,-187 1539.98,-166.35 1578.04,-171.8 1725,-151 1732.94,-149.88 1741.3,-148.56 1749.5,-147.19"/>
<polygon fill="#63b8ff" stroke="#63b8ff" points="1750.12,-150.64 1759.39,-145.51 1748.95,-143.74 1750.12,-150.64"/>
</a>
</g>
</g>
<!-- Node28 -->
<g id="Node000028" class="node">
<title>Node28</title>
<g id="a_Node000028"><a xlink:href="logger_8hpp.html" target="_top" xlink:title=" ">
<polygon fill="white" stroke="#666666" points="1716,-151 1608,-151 1608,-121 1716,-121 1716,-151"/>
<text text-anchor="start" x="1616" y="-139" font-family="Helvetica,sans-Serif" font-size="10.00">unilink/diagnostics</text>
<text text-anchor="middle" x="1662" y="-128" font-family="Helvetica,sans-Serif" font-size="10.00">/logger.hpp</text>
</a>
</g>
</g>
<!-- Node20&#45;&gt;Node28 -->
<g id="edge51_Node000020_Node000028" class="edge">
<title>Node20&#45;&gt;Node28</title>
<g id="a_edge51_Node000020_Node000028"><a xlink:title=" ">
<path fill="none" stroke="#63b8ff" d="M1361.42,-192.45C1432.38,-180.17 1558.27,-158.35 1597.83,-151.09"/>
<polygon fill="#63b8ff" stroke="#63b8ff" points="1598.56,-154.52 1607.74,-149.23 1597.26,-147.64 1598.56,-154.52"/>
</a>
</g>
</g>
<!-- Node27&#45;&gt;Node6 -->
<g id="edge49_Node000027_Node000006" class="edge">
<title>Node27&#45;&gt;Node6</title>
<g id="a_edge49_Node000027_Node000006"><a xlink:title=" ">
<path fill="none" stroke="#63b8ff" d="M1841.13,-126.44C1894.23,-113.85 1992.51,-90.55 2043.09,-78.56"/>
<polygon fill="#63b8ff" stroke="#63b8ff" points="2043.91,-81.97 2052.84,-76.25 2042.3,-75.15 2043.91,-81.97"/>
</a>
</g>
</g>
<!-- Node27&#45;&gt;Node11 -->
<g id="edge50_Node000027_Node000011" class="edge">
<title>Node27&#45;&gt;Node11</title>
<g id="a_edge50_Node000027_Node000011"><a xlink:title=" ">
<path fill="none" stroke="#63b8ff" d="M1761.96,-126.49C1750.03,-124.4 1737.05,-122.37 1725,-121 1426.5,-87.05 1348.5,-118.95 1050,-85 1041.25,-84 1032,-82.66 1023.02,-81.2"/>
<polygon fill="#63b8ff" stroke="#63b8ff" points="1023.49,-77.73 1013.04,-79.51 1022.32,-84.63 1023.49,-77.73"/>
</a>
</g>
</g>
<!-- Node28&#45;&gt;Node2 -->
<g id="edge53_Node000028_Node000002" class="edge">
<title>Node28&#45;&gt;Node2</title>
<g id="a_edge53_Node000028_Node000002"><a xlink:title=" ">
<path fill="none" stroke="#63b8ff" d="M1711.82,-120.95C1754.76,-108.85 1815.69,-91.67 1853.75,-80.94"/>
<polygon fill="#63b8ff" stroke="#63b8ff" points="1855.17,-84.17 1863.85,-78.09 1853.27,-77.44 1855.17,-84.17"/>
</a>
</g>
</g>
<!-- Node28&#45;&gt;Node3 -->
<g id="edge54_Node000028_Node000003" class="edge">
<title>Node28&#45;&gt;Node3</title>
<g id="a_edge54_Node000028_Node000003"><a xlink:title=" ">
<path fill="none" stroke="#63b8ff" d="M1607.82,-122.29C1604.84,-121.8 1601.89,-121.37 1599,-121 1125.19,-60.94 995.09,-169.39 525,-85 521.57,-84.38 518.03,-83.55 514.54,-82.58"/>
<polygon fill="#63b8ff" stroke="#63b8ff" points="515.51,-79.22 504.92,-79.63 513.45,-85.91 515.51,-79.22"/>
</a>
</g>
</g>
<!-- Node28&#45;&gt;Node5 -->
<g id="edge55_Node000028_Node000005" class="edge">
<title>Node28&#45;&gt;Node5</title>
<g id="a_edge55_Node000028_Node000005"><a xlink:title=" ">
<path fill="none" stroke="#63b8ff" d="M1607.82,-122.28C1604.84,-121.8 1601.89,-121.36 1599,-121 1343.55,-88.93 693.73,-134.14 441,-85 437.99,-84.42 434.91,-83.62 431.86,-82.71"/>
<polygon fill="#63b8ff" stroke="#63b8ff" points="432.97,-79.39 422.38,-79.5 430.73,-86.02 432.97,-79.39"/>
</a>
</g>
</g>
<!-- Node28&#45;&gt;Node6 -->
<g id="edge57_Node000028_Node000006" class="edge">
<title>Node28&#45;&gt;Node6</title>
<g id="a_edge57_Node000028_Node000006"><a xlink:title=" ">
<path fill="none" stroke="#63b8ff" d="M1716.24,-122.67C1719.2,-122.08 1722.13,-121.52 1725,-121 1841.21,-99.82 1980.49,-82.23 2042.48,-74.8"/>
<polygon fill="#63b8ff" stroke="#63b8ff" points="2043.28,-78.23 2052.79,-73.57 2042.45,-71.28 2043.28,-78.23"/>
</a>
</g>
</g>
<!-- Node28&#45;&gt;Node7 -->
<g id="edge58_Node000028_Node000007" class="edge">
<title>Node28&#45;&gt;Node7</title>
<g id="a_edge58_Node000028_Node000007"><a xlink:title=" ">
<path fill="none" stroke="#63b8ff" d="M1607.78,-122.52C1604.82,-121.97 1601.88,-121.46 1599,-121 1431.76,-94.22 1230.85,-79.43 1141.62,-73.75"/>
<polygon fill="#63b8ff" stroke="#63b8ff" points="1141.76,-70.25 1131.56,-73.12 1141.32,-77.24 1141.76,-70.25"/>
</a>
</g>
</g>
<!-- Node28&#45;&gt;Node11 -->
<g id="edge60_Node000028_Node000011" class="edge">
<title>Node28&#45;&gt;Node11</title>
<g id="a_edge60_Node000028_Node000011"><a xlink:title=" ">
<path fill="none" stroke="#63b8ff" d="M1607.8,-122.4C1604.83,-121.89 1601.88,-121.41 1599,-121 1356.94,-86.38 1292.78,-114.12 1050,-85 1041.55,-83.99 1032.63,-82.67 1023.94,-81.26"/>
<polygon fill="#63b8ff" stroke="#63b8ff" points="1024.33,-77.77 1013.89,-79.56 1023.16,-84.67 1024.33,-77.77"/>
</a>
</g>
</g>
<!-- Node28&#45;&gt;Node13 -->
<g id="edge59_Node000028_Node000013" class="edge">
<title>Node28&#45;&gt;Node13</title>
<g id="a_edge59_Node000028_Node000013"><a xlink:title=" ">
<path fill="none" stroke="#63b8ff" d="M1607.81,-122.35C1604.84,-121.85 1601.89,-121.39 1599,-121 1286.78,-78.68 1198.06,-155.61 891,-85 888.83,-84.5 886.63,-83.87 884.43,-83.15"/>
<polygon fill="#63b8ff" stroke="#63b8ff" points="885.68,-79.88 875.09,-79.59 883.19,-86.42 885.68,-79.88"/>
</a>
</g>
</g>
<!-- Node29 -->
<g id="Node000029" class="node">
<title>Node29</title>
<g id="a_Node000029"><a xlink:title=" ">
<polygon fill="#e0e0e0" stroke="#999999" points="1732,-79.5 1682,-79.5 1682,-60.5 1732,-60.5 1732,-79.5"/>
<text text-anchor="middle" x="1707" y="-67.5" font-family="Helvetica,sans-Serif" font-size="10.00">atomic</text>
</a>
</g>
</g>
<!-- Node28&#45;&gt;Node29 -->
<g id="edge52_Node000028_Node000029" class="edge">
<title>Node28&#45;&gt;Node29</title>
<g id="a_edge52_Node000028_Node000029"><a xlink:title=" ">
<path fill="none" stroke="#63b8ff" d="M1671.99,-120.8C1678.73,-111.21 1687.66,-98.5 1694.82,-88.32"/>
<polygon fill="#63b8ff" stroke="#63b8ff" points="1697.89,-90.04 1700.78,-79.84 1692.17,-86.01 1697.89,-90.04"/>
</a>
</g>
</g>
<!-- Node30 -->
<g id="Node000030" class="node">
<title>Node30</title>
<g id="a_Node000030"><a xlink:title=" ">
<polygon fill="#e0e0e0" stroke="#999999" points="1663.5,-79.5 1570.5,-79.5 1570.5,-60.5 1663.5,-60.5 1663.5,-79.5"/>
<text text-anchor="middle" x="1617" y="-67.5" font-family="Helvetica,sans-Serif" font-size="10.00">source_location</text>
</a>
</g>
</g>
<!-- Node28&#45;&gt;Node30 -->
<g id="edge56_Node000028_Node000030" class="edge">
<title>Node28&#45;&gt;Node30</title>
<g id="a_edge56_Node000028_Node000030"><a xlink:title=" ">
<path fill="none" stroke="#63b8ff" d="M1652.01,-120.8C1645.27,-111.21 1636.34,-98.5 1629.18,-88.32"/>
<polygon fill="#63b8ff" stroke="#63b8ff" points="1631.83,-86.01 1623.22,-79.84 1626.11,-90.04 1631.83,-86.01"/>
</a>
</g>
</g>
<!-- Node31&#45;&gt;Node6 -->
<g id="edge62_Node000031_Node000006" class="edge">
<title>Node31&#45;&gt;Node6</title>
<g id="a_edge62_Node000031_Node000006"><a xlink:title=" ">
<path fill="none" stroke="#63b8ff" d="M2073.22,-186.84C2073.58,-163.34 2074.3,-116.26 2074.71,-89.93"/>
<polygon fill="#63b8ff" stroke="#63b8ff" points="2078.21,-89.8 2074.87,-79.75 2071.21,-89.69 2078.21,-89.8"/>
</a>
</g>
</g>
<!-- Node32&#45;&gt;Node3 -->
<g id="edge65_Node000032_Node000003" class="edge">
<title>Node32&#45;&gt;Node3</title>
<g id="a_edge65_Node000032_Node000003"><a xlink:title=" ">
<path fill="none" stroke="#63b8ff" d="M709.87,-124.93C660.17,-115.98 587.44,-101.74 525,-85 522.38,-84.3 519.68,-83.52 516.97,-82.71"/>
<polygon fill="#63b8ff" stroke="#63b8ff" points="517.87,-79.32 507.28,-79.64 515.76,-85.99 517.87,-79.32"/>
</a>
</g>
</g>
<!-- Node32&#45;&gt;Node5 -->
<g id="edge66_Node000032_Node000005" class="edge">
<title>Node32&#45;&gt;Node5</title>
<g id="a_edge66_Node000032_Node000005"><a xlink:title=" ">
<path fill="none" stroke="#63b8ff" d="M709.71,-126.62C622.31,-114.18 466.45,-91.56 441,-85 438.56,-84.37 436.05,-83.64 433.55,-82.86"/>
<polygon fill="#63b8ff" stroke="#63b8ff" points="434.66,-79.54 424.06,-79.62 432.4,-86.16 434.66,-79.54"/>
</a>
</g>
</g>
<!-- Node32&#45;&gt;Node6 -->
<g id="edge68_Node000032_Node000006" class="edge">
<title>Node32&#45;&gt;Node6</title>
<g id="a_edge68_Node000032_Node000006"><a xlink:title=" ">
<path fill="none" stroke="#63b8ff" d="M828.18,-132.82C1032.37,-125.22 1706.67,-99.64 1923,-85 1964.39,-82.2 2012,-77.59 2042.74,-74.43"/>
<polygon fill="#63b8ff" stroke="#63b8ff" points="2043.29,-77.89 2052.87,-73.38 2042.57,-70.93 2043.29,-77.89"/>
</a>
</g>
</g>
<!-- Node32&#45;&gt;Node7 -->
<g id="edge69_Node000032_Node000007" class="edge">
<title>Node32&#45;&gt;Node7</title>
<g id="a_edge69_Node000032_Node000007"><a xlink:title=" ">
<path fill="none" stroke="#63b8ff" d="M828.15,-126.53C885.11,-117.88 973.5,-103.16 1049,-85 1052.35,-84.19 1055.81,-83.29 1059.27,-82.33"/>
<polygon fill="#63b8ff" stroke="#63b8ff" points="1060.25,-85.69 1068.88,-79.54 1058.3,-78.96 1060.25,-85.69"/>
</a>
</g>
</g>
<!-- Node32&#45;&gt;Node10 -->
<g id="edge64_Node000032_Node000010" class="edge">
<title>Node32&#45;&gt;Node10</title>
<g id="a_edge64_Node000032_Node000010"><a xlink:title=" ">
<path fill="none" stroke="#63b8ff" d="M747.83,-120.93C733.84,-111.33 715.33,-98.03 700,-85 678.06,-66.34 654.83,-42.56 640.14,-26.95"/>
<polygon fill="#63b8ff" stroke="#63b8ff" points="642.3,-24.14 632.92,-19.21 637.18,-28.91 642.3,-24.14"/>
</a>
</g>
</g>
<!-- Node32&#45;&gt;Node11 -->
<g id="edge72_Node000032_Node000011" class="edge">
<title>Node32&#45;&gt;Node11</title>
<g id="a_edge72_Node000032_Node000011"><a xlink:title=" ">
<path fill="none" stroke="#63b8ff" d="M813.11,-120.95C849.14,-109.48 899.46,-93.46 933.31,-82.68"/>
<polygon fill="#63b8ff" stroke="#63b8ff" points="934.78,-85.89 943.25,-79.52 932.66,-79.22 934.78,-85.89"/>
</a>
</g>
</g>
<!-- Node32&#45;&gt;Node13 -->
<g id="edge71_Node000032_Node000013" class="edge">
<title>Node32&#45;&gt;Node13</title>
<g id="a_edge71_Node000032_Node000013"><a xlink:title=" ">
<path fill="none" stroke="#63b8ff" d="M788.75,-120.8C803.26,-110.37 822.9,-96.24 837.56,-85.69"/>
<polygon fill="#63b8ff" stroke="#63b8ff" points="839.88,-88.34 845.96,-79.66 835.8,-82.66 839.88,-88.34"/>
</a>
</g>
</g>
<!-- Node32&#45;&gt;Node15 -->
<g id="edge73_Node000032_Node000015" class="edge">
<title>Node32&#45;&gt;Node15</title>
<g id="a_edge73_Node000032_Node000015"><a xlink:title=" ">
<path fill="none" stroke="#63b8ff" d="M730.38,-120.95C704.13,-111.41 669.21,-98.71 641.15,-88.51"/>
<polygon fill="#63b8ff" stroke="#63b8ff" points="642.13,-85.14 631.53,-85.01 639.74,-91.72 642.13,-85.14"/>
</a>
</g>
</g>
<!-- Node32&#45;&gt;Node17 -->
<g id="edge67_Node000032_Node000017" class="edge">
<title>Node32&#45;&gt;Node17</title>
<g id="a_edge67_Node000032_Node000017"><a xlink:title=" ">
<path fill="none" stroke="#63b8ff" d="M774.57,-120.68C778.33,-110.75 783.27,-97.17 787,-85 792.74,-66.29 798.14,-44.57 801.7,-29.43"/>
<polygon fill="#63b8ff" stroke="#63b8ff" points="805.2,-29.82 804.05,-19.29 798.38,-28.25 805.2,-29.82"/>
</a>
</g>
</g>
<!-- Node33 -->
<g id="Node000033" class="node">
<title>Node33</title>
<g id="a_Node000033"><a xlink:title=" ">
<polygon fill="#e0e0e0" stroke="#999999" points="777.5,-79.5 708.5,-79.5 708.5,-60.5 777.5,-60.5 777.5,-79.5"/>
<text text-anchor="middle" x="743" y="-67.5" font-family="Helvetica,sans-Serif" font-size="10.00">type_traits</text>
</a>
</g>
</g>
<!-- Node32&#45;&gt;Node33 -->
<g id="edge70_Node000032_Node000033" class="edge">
<title>Node32&#45;&gt;Node33</title>
<g id="a_edge70_Node000032_Node000033"><a xlink:title=" ">
<path fill="none" stroke="#63b8ff" d="M763.23,-120.8C759.45,-111.5 754.49,-99.27 750.42,-89.26"/>
<polygon fill="#63b8ff" stroke="#63b8ff" points="753.6,-87.79 746.59,-79.84 747.11,-90.43 753.6,-87.79"/>
</a>
</g>
</g>
<!-- Node34&#45;&gt;Node9 -->
<g id="edge76_Node000034_Node000009" class="edge">
<title>Node34&#45;&gt;Node9</title>
<g id="a_edge76_Node000034_Node000009"><a xlink:title=" ">
<path fill="none" stroke="#63b8ff" d="M96.19,-120.95C119.1,-109.93 150.75,-94.7 173.07,-83.96"/>
<polygon fill="#63b8ff" stroke="#63b8ff" points="174.81,-87.01 182.3,-79.52 171.77,-80.7 174.81,-87.01"/>
</a>
</g>
</g>
<!-- Node34&#45;&gt;Node10 -->
<g id="edge77_Node000034_Node000010" class="edge">
<title>Node34&#45;&gt;Node10</title>
<g id="a_edge77_Node000034_Node000010"><a xlink:title=" ">
<path fill="none" stroke="#63b8ff" d="M79.07,-120.69C95.92,-101.87 128.42,-69.5 164,-55 337.36,15.63 400.94,-47.95 589.87,-18.87"/>
<polygon fill="#63b8ff" stroke="#63b8ff" points="590.53,-22.31 599.84,-17.27 589.41,-15.4 590.53,-22.31"/>
</a>
</g>
</g>
</g>
</svg>
