<?xml version="1.0" encoding="UTF-8" standalone="no"?>
<!DOCTYPE svg PUBLIC "-//W3C//DTD SVG 1.1//EN"
 "http://www.w3.org/Graphics/SVG/1.1/DTD/svg11.dtd">
<!-- Generated by graphviz version 2.43.0 (0)
 -->
<!-- Title: unilink/wrapper/serial/serial.hpp Pages: 1 -->
<!--zoomable 285 -->
<svg id="main" version="1.1" xmlns="http://www.w3.org/2000/svg" xmlns:xlink="http://www.w3.org/1999/xlink" xml:space="preserve" onload="init(evt)">
<style type="text/css"><![CDATA[
.edge:hover path { stroke: red; }
.edge:hover polygon { stroke: red; fill: red; }
]]></style>
<script type="text/javascript"><![CDATA[
var edges = document.getElementsByTagName('g');
if (edges && edges.length) {
  for (var i=0;i<edges.length;i++) {
    if (edges[i].id.substr(0,4)=='edge') {
      edges[i].setAttribute('class','edge');
    }
  }
}
]]></script>
        <defs>
                <circle id="rim" cx="0" cy="0" r="7"/>
                <circle id="rim2" cx="0" cy="0" r="3.5"/>
                <g id="zoomPlus">
                        <use xlink:href="#rim" fill="#404040">
                                <set attributeName="fill" to="#808080" begin="zoomplus.mouseover" end="zoomplus.mouseout"/>
                        </use>
                        <path d="M-4,0h8M0,-4v8" fill="none" stroke="white" stroke-width="1.5" pointer-events="none"/>
                </g>
                <g id="zoomMin">
                        <use xlink:href="#rim" fill="#404040">
                                <set attributeName="fill" to="#808080" begin="zoomminus.mouseover" end="zoomminus.mouseout"/>
                        </use>
                        <path d="M-4,0h8" fill="none" stroke="white" stroke-width="1.5" pointer-events="none"/>
                </g>
                <g id="dirArrow">
                        <path fill="none" stroke="white" stroke-width="1.5" d="M0,-3.0v7 M-2.5,-0.5L0,-3.0L2.5,-0.5"/>
                </g>
               <g id="resetDef">
                       <use xlink:href="#rim2" fill="#404040">
                               <set attributeName="fill" to="#808080" begin="reset.mouseover" end="reset.mouseout"/>
                       </use>
               </g>
        </defs>

<script type="text/javascript">
var viewWidth = 1142;
var viewHeight = 285;
var sectionId = 'dynsection-0';
</script>
<script xlink:href="svgpan.js"/>
<svg id="graph" class="graph">
<g id="viewport">
<title>unilink/wrapper/serial/serial.hpp</title>
<polygon fill="white" stroke="transparent" points="-4,4 -4,-281 1137.5,-281 1137.5,4 -4,4"/>
<!-- Node1 -->
<g id="node1" class="node">
<title>Node1</title>
<g id="a_node1"><a xlink:title=" ">
<polygon fill="#bfbfbf" stroke="black" points="144,-246.5 144,-276.5 266,-276.5 266,-246.5 144,-246.5"/>
<text text-anchor="start" x="152" y="-264.5" font-family="Helvetica,sans-Serif" font-size="10.00">unilink/wrapper/serial</text>
<text text-anchor="middle" x="205" y="-253.5" font-family="Helvetica,sans-Serif" font-size="10.00">/serial.hpp</text>
</a>
</g>
</g>
<!-- Node2 -->
<g id="node2" class="node">
<title>Node2</title>
<g id="a_node2"><a xlink:title=" ">
<polygon fill="white" stroke="#bfbfbf" points="0,-190.5 0,-209.5 50,-209.5 50,-190.5 0,-190.5"/>
<text text-anchor="middle" x="25" y="-197.5" font-family="Helvetica,sans-Serif" font-size="10.00">chrono</text>
</a>
</g>
</g>
<!-- Node1&#45;&gt;Node2 -->
<g id="edge1" class="edge">
<title>Node1&#45;&gt;Node2</title>
<path fill="none" stroke="midnightblue" d="M162.34,-246.4C131.1,-236.07 89.2,-222.22 59.94,-212.55"/>
<polygon fill="midnightblue" stroke="midnightblue" points="60.74,-209.13 50.15,-209.31 58.54,-215.77 60.74,-209.13"/>
</g>
<!-- Node3 -->
<g id="node3" class="node">
<title>Node3</title>
<g id="a_node3"><a xlink:title=" ">
<polygon fill="white" stroke="#bfbfbf" points="104.5,-62 104.5,-81 169.5,-81 169.5,-62 104.5,-62"/>
<text text-anchor="middle" x="137" y="-69" font-family="Helvetica,sans-Serif" font-size="10.00">functional</text>
</a>
</g>
</g>
<!-- Node1&#45;&gt;Node3 -->
<g id="edge2" class="edge">
<title>Node1&#45;&gt;Node3</title>
<path fill="none" stroke="midnightblue" d="M191.51,-246.13C183.25,-236.57 173.13,-223.36 167,-210 148.73,-170.16 141.34,-118.64 138.54,-91.37"/>
<polygon fill="midnightblue" stroke="midnightblue" points="142.02,-90.91 137.61,-81.28 135.05,-91.56 142.02,-90.91"/>
</g>
<!-- Node4 -->
<g id="node4" class="node">
<title>Node4</title>
<g id="a_node4"><a xlink:title=" ">
<polygon fill="white" stroke="#bfbfbf" points="182,-129 182,-148 228,-148 228,-129 182,-129"/>
<text text-anchor="middle" x="205" y="-136" font-family="Helvetica,sans-Serif" font-size="10.00">future</text>
</a>
</g>
</g>
<!-- Node1&#45;&gt;Node4 -->
<g id="edge3" class="edge">
<title>Node1&#45;&gt;Node4</title>
<path fill="none" stroke="midnightblue" d="M205,-246.14C205,-224.2 205,-182.33 205,-158.09"/>
<polygon fill="midnightblue" stroke="midnightblue" points="208.5,-158.05 205,-148.05 201.5,-158.05 208.5,-158.05"/>
</g>
<!-- Node5 -->
<g id="node5" class="node">
<title>Node5</title>
<g id="a_node5"><a xlink:title=" ">
<polygon fill="white" stroke="#bfbfbf" points="28,-62 28,-81 86,-81 86,-62 28,-62"/>
<text text-anchor="middle" x="57" y="-69" font-family="Helvetica,sans-Serif" font-size="10.00">memory</text>
</a>
</g>
</g>
<!-- Node1&#45;&gt;Node5 -->
<g id="edge4" class="edge">
<title>Node1&#45;&gt;Node5</title>
<path fill="none" stroke="midnightblue" d="M190.26,-246.44C180.22,-236.59 166.82,-222.92 156,-210 121.52,-168.83 85.86,-116.44 68.25,-89.78"/>
<polygon fill="midnightblue" stroke="midnightblue" points="71.03,-87.63 62.61,-81.19 65.17,-91.47 71.03,-87.63"/>
</g>
<!-- Node6 -->
<g id="node6" class="node">
<title>Node6</title>
<g id="a_node6"><a xlink:title=" ">
<polygon fill="white" stroke="#bfbfbf" points="768,-0.5 768,-19.5 812,-19.5 812,-0.5 768,-0.5"/>
<text text-anchor="middle" x="790" y="-7.5" font-family="Helvetica,sans-Serif" font-size="10.00">string</text>
</a>
</g>
</g>
<!-- Node1&#45;&gt;Node6 -->
<g id="edge5" class="edge">
<title>Node1&#45;&gt;Node6</title>
<path fill="none" stroke="midnightblue" d="M266.16,-257.47C386.83,-251.04 651.47,-234.57 739,-210 826.04,-185.56 873.78,-173.21 901,-87 905.15,-73.86 908.7,-67.43 901,-56 883.54,-30.08 848.32,-19.08 822.22,-14.42"/>
<polygon fill="midnightblue" stroke="midnightblue" points="822.43,-10.92 812.01,-12.83 821.36,-17.83 822.43,-10.92"/>
</g>
<!-- Node7 -->
<g id="node7" class="node">
<title>Node7</title>
<g id="a_node7"><a xlink:title=" ">
<polygon fill="white" stroke="#bfbfbf" points="818.5,-62 818.5,-81 891.5,-81 891.5,-62 818.5,-62"/>
<text text-anchor="middle" x="855" y="-69" font-family="Helvetica,sans-Serif" font-size="10.00">string_view</text>
</a>
</g>
</g>
<!-- Node1&#45;&gt;Node7 -->
<g id="edge6" class="edge">
<title>Node1&#45;&gt;Node7</title>
<path fill="none" stroke="midnightblue" d="M266.11,-258.22C407.05,-251.72 749.1,-228.49 832,-154 849.57,-138.21 854.15,-110.14 855.12,-91.42"/>
<polygon fill="midnightblue" stroke="midnightblue" points="858.62,-91.25 855.34,-81.17 851.62,-91.09 858.62,-91.25"/>
</g>
<!-- Node8 -->
<g id="node8" class="node">
<title>Node8</title>
<g id="a_node8"><a xlink:href="visibility_8hpp.html" target="_top" xlink:title=" ">
<polygon fill="white" stroke="black" points="188,-62 188,-81 328,-81 328,-62 188,-62"/>
<text text-anchor="middle" x="258" y="-69" font-family="Helvetica,sans-Serif" font-size="10.00">unilink/base/visibility.hpp</text>
</a>
</g>
</g>
<!-- Node1&#45;&gt;Node8 -->
<g id="edge7" class="edge">
<title>Node1&#45;&gt;Node8</title>
<path fill="none" stroke="midnightblue" d="M195.38,-246.28C179.06,-220.2 149.85,-163.69 173,-123 183.17,-105.13 202.44,-92.92 220.06,-84.99"/>
<polygon fill="midnightblue" stroke="midnightblue" points="221.73,-88.09 229.62,-81.02 219.04,-81.63 221.73,-88.09"/>
</g>
<!-- Node9 -->
<g id="node9" class="node">
<title>Node9</title>
<g id="a_node9"><a xlink:href="serial__config_8hpp.html" target="_top" xlink:title=" ">
<polygon fill="white" stroke="black" points="948,-123.5 948,-153.5 1060,-153.5 1060,-123.5 948,-123.5"/>
<text text-anchor="start" x="956" y="-141.5" font-family="Helvetica,sans-Serif" font-size="10.00">unilink/config/serial</text>
<text text-anchor="middle" x="1004" y="-130.5" font-family="Helvetica,sans-Serif" font-size="10.00">_config.hpp</text>
</a>
</g>
</g>
<!-- Node1&#45;&gt;Node9 -->
<g id="edge8" class="edge">
<title>Node1&#45;&gt;Node9</title>
<path fill="none" stroke="midnightblue" d="M266.25,-258.72C430.78,-253.61 874.05,-237.43 934,-210 956.84,-199.55 976.34,-178.18 988.92,-161.69"/>
<polygon fill="midnightblue" stroke="midnightblue" points="991.76,-163.73 994.84,-153.6 986.11,-159.6 991.76,-163.73"/>
</g>
<!-- Node13 -->
<g id="node13" class="node">
<title>Node13</title>
<g id="a_node13"><a xlink:href="ichannel_8hpp.html" target="_top" xlink:title=" ">
<polygon fill="white" stroke="black" points="253,-190.5 253,-209.5 411,-209.5 411,-190.5 253,-190.5"/>
<text text-anchor="middle" x="332" y="-197.5" font-family="Helvetica,sans-Serif" font-size="10.00">unilink/wrapper/ichannel.hpp</text>
</a>
</g>
</g>
<!-- Node1&#45;&gt;Node13 -->
<g id="edge13" class="edge">
<title>Node1&#45;&gt;Node13</title>
<path fill="none" stroke="midnightblue" d="M235.1,-246.4C256.12,-236.55 283.97,-223.5 304.42,-213.92"/>
<polygon fill="midnightblue" stroke="midnightblue" points="305.95,-217.07 313.52,-209.66 302.98,-210.73 305.95,-217.07"/>
</g>
<!-- Node9&#45;&gt;Node6 -->
<g id="edge9" class="edge">
<title>Node9&#45;&gt;Node6</title>
<path fill="none" stroke="midnightblue" d="M995.4,-123.26C983.71,-105.08 961.11,-73.84 934,-56 899.55,-33.33 853.01,-21.53 822.28,-15.79"/>
<polygon fill="midnightblue" stroke="midnightblue" points="822.57,-12.29 812.12,-14.01 821.36,-19.19 822.57,-12.29"/>
</g>
<!-- Node10 -->
<g id="node10" class="node">
<title>Node10</title>
<g id="a_node10"><a xlink:href="constants_8hpp.html" target="_top" xlink:title=" ">
<polygon fill="white" stroke="black" points="986.5,-62 986.5,-81 1133.5,-81 1133.5,-62 986.5,-62"/>
<text text-anchor="middle" x="1060" y="-69" font-family="Helvetica,sans-Serif" font-size="10.00">unilink/base/constants.hpp</text>
</a>
</g>
</g>
<!-- Node9&#45;&gt;Node10 -->
<g id="edge10" class="edge">
<title>Node9&#45;&gt;Node10</title>
<path fill="none" stroke="midnightblue" d="M1016.15,-123.4C1024.88,-113.26 1036.68,-99.57 1045.84,-88.94"/>
<polygon fill="midnightblue" stroke="midnightblue" points="1048.63,-91.06 1052.51,-81.19 1043.33,-86.49 1048.63,-91.06"/>
</g>
<!-- Node11 -->
<g id="node11" class="node">
<title>Node11</title>
<g id="a_node11"><a xlink:title=" ">
<polygon fill="white" stroke="#bfbfbf" points="1033.5,-0.5 1033.5,-19.5 1086.5,-19.5 1086.5,-0.5 1033.5,-0.5"/>
<text text-anchor="middle" x="1060" y="-7.5" font-family="Helvetica,sans-Serif" font-size="10.00">cstddef</text>
</a>
</g>
</g>
<!-- Node10&#45;&gt;Node11 -->
<g id="edge11" class="edge">
<title>Node10&#45;&gt;Node11</title>
<path fill="none" stroke="midnightblue" d="M1060,-61.98C1060,-53.58 1060,-40.48 1060,-29.66"/>
<polygon fill="midnightblue" stroke="midnightblue" points="1063.5,-29.51 1060,-19.51 1056.5,-29.51 1063.5,-29.51"/>
</g>
<!-- Node12 -->
<g id="node12" class="node">
<title>Node12</title>
<g id="a_node12"><a xlink:title=" ">
<polygon fill="white" stroke="#bfbfbf" points="622,-0.5 622,-19.5 672,-19.5 672,-0.5 622,-0.5"/>
<text text-anchor="middle" x="647" y="-7.5" font-family="Helvetica,sans-Serif" font-size="10.00">cstdint</text>
</a>
</g>
</g>
<!-- Node10&#45;&gt;Node12 -->
<g id="edge12" class="edge">
<title>Node10&#45;&gt;Node12</title>
<path fill="none" stroke="midnightblue" d="M1000.83,-61.98C913.63,-49.41 753.31,-26.32 682.37,-16.1"/>
<polygon fill="midnightblue" stroke="midnightblue" points="682.57,-12.59 672.17,-14.63 681.57,-19.52 682.57,-12.59"/>
</g>
<!-- Node13&#45;&gt;Node3 -->
<g id="edge14" class="edge">
<title>Node13&#45;&gt;Node3</title>
<path fill="none" stroke="midnightblue" d="M326.99,-190.22C317.68,-174.62 296.24,-141.92 270,-123 261.67,-116.99 208,-97.47 171.44,-84.53"/>
<polygon fill="midnightblue" stroke="midnightblue" points="172.22,-81.1 161.63,-81.07 169.9,-87.7 172.22,-81.1"/>
</g>
<!-- Node13&#45;&gt;Node4 -->
<g id="edge15" class="edge">
<title>Node13&#45;&gt;Node4</title>
<path fill="none" stroke="midnightblue" d="M313.8,-190.48C292.49,-180.49 256.97,-163.85 232.34,-152.31"/>
<polygon fill="midnightblue" stroke="midnightblue" points="233.7,-149.08 223.16,-148.01 230.73,-155.42 233.7,-149.08"/>
</g>
<!-- Node13&#45;&gt;Node5 -->
<g id="edge16" class="edge">
<title>Node13&#45;&gt;Node5</title>
<path fill="none" stroke="midnightblue" d="M319.3,-190.48C306.52,-181.75 286.4,-167.56 270,-154 254.49,-141.18 254.65,-132.67 237,-123 179.9,-91.72 157.08,-106.64 95,-87 92.58,-86.24 90.1,-85.4 87.61,-84.53"/>
<polygon fill="midnightblue" stroke="midnightblue" points="88.74,-81.22 78.15,-81.07 86.34,-87.79 88.74,-81.22"/>
</g>
<!-- Node13&#45;&gt;Node6 -->
<g id="edge17" class="edge">
<title>Node13&#45;&gt;Node6</title>
<path fill="none" stroke="midnightblue" d="M411.15,-194.41C500.17,-188.3 638.51,-175.65 686,-154 726.67,-135.46 735.65,-123.81 761,-87 773.24,-69.23 781.19,-45.61 785.62,-29.45"/>
<polygon fill="midnightblue" stroke="midnightblue" points="789.05,-30.16 788.14,-19.61 782.27,-28.43 789.05,-30.16"/>
</g>
<!-- Node13&#45;&gt;Node7 -->
<g id="edge18" class="edge">
<title>Node13&#45;&gt;Node7</title>
<path fill="none" stroke="midnightblue" d="M411.06,-199.76C528.01,-199.52 740.18,-193.42 804,-154 827.36,-139.57 841.76,-110.02 849.07,-90.75"/>
<polygon fill="midnightblue" stroke="midnightblue" points="852.39,-91.86 852.41,-81.26 845.79,-89.53 852.39,-91.86"/>
</g>
<!-- Node13&#45;&gt;Node8 -->
<g id="edge19" class="edge">
<title>Node13&#45;&gt;Node8</title>
<path fill="none" stroke="midnightblue" d="M330.67,-190.48C328.09,-175.82 321.44,-145.27 308,-123 299.85,-109.5 287.37,-96.89 276.92,-87.65"/>
<polygon fill="midnightblue" stroke="midnightblue" points="278.98,-84.81 269.1,-81.01 274.45,-90.14 278.98,-84.81"/>
</g>
<!-- Node14 -->
<g id="node14" class="node">
<title>Node14</title>
<g id="a_node14"><a xlink:href="iframer_8hpp.html" target="_top" xlink:title=" ">
<polygon fill="white" stroke="black" points="360.5,-129 360.5,-148 505.5,-148 505.5,-129 360.5,-129"/>
<text text-anchor="middle" x="433" y="-136" font-family="Helvetica,sans-Serif" font-size="10.00">unilink/framer/iframer.hpp</text>
</a>
</g>
</g>
<!-- Node13&#45;&gt;Node14 -->
<g id="edge20" class="edge">
<title>Node13&#45;&gt;Node14</title>
<path fill="none" stroke="midnightblue" d="M346.47,-190.48C362.97,-180.75 390.18,-164.73 409.68,-153.24"/>
<polygon fill="midnightblue" stroke="midnightblue" points="411.72,-156.1 418.56,-148.01 408.16,-150.07 411.72,-156.1"/>
</g>
<!-- Node19 -->
<g id="node19" class="node">
<title>Node19</title>
<g id="a_node19"><a xlink:href="context_8hpp.html" target="_top" xlink:title=" ">
<polygon fill="white" stroke="black" points="523.5,-129 523.5,-148 676.5,-148 676.5,-129 523.5,-129"/>
<text text-anchor="middle" x="600" y="-136" font-family="Helvetica,sans-Serif" font-size="10.00">unilink/wrapper/context.hpp</text>
</a>
</g>
</g>
<!-- Node13&#45;&gt;Node19 -->
<g id="edge29" class="edge">
<title>Node13&#45;&gt;Node19</title>
<path fill="none" stroke="midnightblue" d="M370.4,-190.48C418.16,-179.87 499.74,-161.76 551.7,-150.22"/>
<polygon fill="midnightblue" stroke="midnightblue" points="552.67,-153.59 561.67,-148.01 551.15,-146.76 552.67,-153.59"/>
</g>
<!-- Node14&#45;&gt;Node3 -->
<g id="edge21" class="edge">
<title>Node14&#45;&gt;Node3</title>
<path fill="none" stroke="midnightblue" d="M378.99,-128.96C327.23,-120.26 247.14,-105.44 179,-87 175.97,-86.18 172.84,-85.25 169.73,-84.28"/>
<polygon fill="midnightblue" stroke="midnightblue" points="170.52,-80.86 159.93,-81.05 168.33,-87.5 170.52,-80.86"/>
</g>
<!-- Node14&#45;&gt;Node5 -->
<g id="edge22" class="edge">
<title>Node14&#45;&gt;Node5</title>
<path fill="none" stroke="midnightblue" d="M360.22,-131.22C291.14,-124.18 184.82,-110.55 95,-87 92.18,-86.26 89.29,-85.38 86.41,-84.43"/>
<polygon fill="midnightblue" stroke="midnightblue" points="87.45,-81.09 76.85,-81 85.08,-87.67 87.45,-81.09"/>
</g>
<!-- Node14&#45;&gt;Node8 -->
<g id="edge24" class="edge">
<title>Node14&#45;&gt;Node8</title>
<path fill="none" stroke="midnightblue" d="M409.76,-128.87C379.21,-117.52 325.37,-97.52 290.72,-84.65"/>
<polygon fill="midnightblue" stroke="midnightblue" points="291.65,-81.26 281.06,-81.06 289.21,-87.83 291.65,-81.26"/>
</g>
<!-- Node15 -->
<g id="node15" class="node">
<title>Node15</title>
<g id="a_node15"><a xlink:title=" ">
<polygon fill="white" stroke="#bfbfbf" points="482.5,-62 482.5,-81 529.5,-81 529.5,-62 482.5,-62"/>
<text text-anchor="middle" x="506" y="-69" font-family="Helvetica,sans-Serif" font-size="10.00">vector</text>
</a>
</g>
</g>
<!-- Node14&#45;&gt;Node15 -->
<g id="edge23" class="edge">
<title>Node14&#45;&gt;Node15</title>
<path fill="none" stroke="midnightblue" d="M442.85,-128.73C454.56,-118.31 474.32,-100.71 488.62,-87.97"/>
<polygon fill="midnightblue" stroke="midnightblue" points="491.17,-90.39 496.31,-81.13 486.51,-85.16 491.17,-90.39"/>
</g>
<!-- Node16 -->
<g id="node16" class="node">
<title>Node16</title>
<g id="a_node16"><a xlink:href="safe__span_8hpp.html" target="_top" xlink:title=" ">
<polygon fill="white" stroke="black" points="346,-56.5 346,-86.5 464,-86.5 464,-56.5 346,-56.5"/>
<text text-anchor="start" x="354" y="-74.5" font-family="Helvetica,sans-Serif" font-size="10.00">unilink/memory/safe</text>
<text text-anchor="middle" x="405" y="-63.5" font-family="Helvetica,sans-Serif" font-size="10.00">_span.hpp</text>
</a>
</g>
</g>
<!-- Node14&#45;&gt;Node16 -->
<g id="edge25" class="edge">
<title>Node14&#45;&gt;Node16</title>
<path fill="none" stroke="midnightblue" d="M429.22,-128.73C425.62,-120.37 420.03,-107.4 415.13,-96.02"/>
<polygon fill="midnightblue" stroke="midnightblue" points="418.24,-94.39 411.07,-86.59 411.81,-97.16 418.24,-94.39"/>
</g>
<!-- Node16&#45;&gt;Node12 -->
<g id="edge26" class="edge">
<title>Node16&#45;&gt;Node12</title>
<path fill="none" stroke="midnightblue" d="M462.04,-56.47C508.48,-45.06 572.55,-29.3 611.8,-19.65"/>
<polygon fill="midnightblue" stroke="midnightblue" points="612.83,-23.01 621.7,-17.22 611.16,-16.21 612.83,-23.01"/>
</g>
<!-- Node17 -->
<g id="node17" class="node">
<title>Node17</title>
<g id="a_node17"><a xlink:title=" ">
<polygon fill="white" stroke="#bfbfbf" points="330.5,-0.5 330.5,-19.5 395.5,-19.5 395.5,-0.5 330.5,-0.5"/>
<text text-anchor="middle" x="363" y="-7.5" font-family="Helvetica,sans-Serif" font-size="10.00">stdexcept</text>
</a>
</g>
</g>
<!-- Node16&#45;&gt;Node17 -->
<g id="edge27" class="edge">
<title>Node16&#45;&gt;Node17</title>
<path fill="none" stroke="midnightblue" d="M395.05,-56.4C389.01,-47.84 381.26,-36.87 374.9,-27.86"/>
<polygon fill="midnightblue" stroke="midnightblue" points="377.74,-25.81 369.11,-19.66 372.02,-29.85 377.74,-25.81"/>
</g>
<!-- Node18 -->
<g id="node18" class="node">
<title>Node18</title>
<g id="a_node18"><a xlink:title=" ">
<polygon fill="white" stroke="#bfbfbf" points="413.5,-0.5 413.5,-19.5 482.5,-19.5 482.5,-0.5 413.5,-0.5"/>
<text text-anchor="middle" x="448" y="-7.5" font-family="Helvetica,sans-Serif" font-size="10.00">type_traits</text>
</a>
</g>
</g>
<!-- Node16&#45;&gt;Node18 -->
<g id="edge28" class="edge">
<title>Node16&#45;&gt;Node18</title>
<path fill="none" stroke="midnightblue" d="M415.19,-56.4C421.37,-47.84 429.3,-36.87 435.82,-27.86"/>
<polygon fill="midnightblue" stroke="midnightblue" points="438.72,-29.81 441.74,-19.66 433.05,-25.71 438.72,-29.81"/>
</g>
<!-- Node19&#45;&gt;Node6 -->
<g id="edge31" class="edge">
<title>Node19&#45;&gt;Node6</title>
<path fill="none" stroke="midnightblue" d="M638.96,-128.92C667.12,-121.32 704.98,-108.09 733,-87 753.93,-71.25 770.83,-45.79 780.64,-28.73"/>
<polygon fill="midnightblue" stroke="midnightblue" points="783.81,-30.24 785.58,-19.79 777.68,-26.85 783.81,-30.24"/>
</g>
<!-- Node19&#45;&gt;Node7 -->
<g id="edge32" class="edge">
<title>Node19&#45;&gt;Node7</title>
<path fill="none" stroke="midnightblue" d="M633.6,-128.94C679.27,-117.29 761.03,-96.45 811.39,-83.62"/>
<polygon fill="midnightblue" stroke="midnightblue" points="812.5,-86.95 821.33,-81.08 810.77,-80.16 812.5,-86.95"/>
</g>
<!-- Node19&#45;&gt;Node15 -->
<g id="edge33" class="edge">
<title>Node19&#45;&gt;Node15</title>
<path fill="none" stroke="midnightblue" d="M587.32,-128.73C571.82,-118.01 545.36,-99.72 526.84,-86.91"/>
<polygon fill="midnightblue" stroke="midnightblue" points="528.69,-83.94 518.48,-81.13 524.71,-89.69 528.69,-83.94"/>
</g>
<!-- Node19&#45;&gt;Node16 -->
<g id="edge36" class="edge">
<title>Node19&#45;&gt;Node16</title>
<path fill="none" stroke="midnightblue" d="M574.11,-128.87C544.34,-118.95 494.73,-102.41 456.92,-89.81"/>
<polygon fill="midnightblue" stroke="midnightblue" points="457.68,-86.37 447.08,-86.53 455.46,-93.01 457.68,-86.37"/>
</g>
<!-- Node20 -->
<g id="node20" class="node">
<title>Node20</title>
<g id="a_node20"><a xlink:title=" ">
<polygon fill="white" stroke="#bfbfbf" points="548,-62 548,-81 604,-81 604,-62 548,-62"/>
<text text-anchor="middle" x="576" y="-69" font-family="Helvetica,sans-Serif" font-size="10.00">optional</text>
</a>
</g>
</g>
<!-- Node19&#45;&gt;Node20 -->
<g id="edge30" class="edge">
<title>Node19&#45;&gt;Node20</title>
<path fill="none" stroke="midnightblue" d="M596.76,-128.73C593.16,-118.99 587.25,-102.98 582.66,-90.53"/>
<polygon fill="midnightblue" stroke="midnightblue" points="585.93,-89.3 579.19,-81.13 579.37,-91.72 585.93,-89.3"/>
</g>
<!-- Node21 -->
<g id="node21" class="node">
<title>Node21</title>
<g id="a_node21"><a xlink:href="error__codes_8hpp.html" target="_top" xlink:title=" ">
<polygon fill="white" stroke="black" points="622,-56.5 622,-86.5 724,-86.5 724,-56.5 622,-56.5"/>
<text text-anchor="start" x="630" y="-74.5" font-family="Helvetica,sans-Serif" font-size="10.00">unilink/base/error</text>
<text text-anchor="middle" x="673" y="-63.5" font-family="Helvetica,sans-Serif" font-size="10.00">_codes.hpp</text>
</a>
</g>
</g>
<!-- Node19&#45;&gt;Node21 -->
<g id="edge34" class="edge">
<title>Node19&#45;&gt;Node21</title>
<path fill="none" stroke="midnightblue" d="M609.85,-128.73C620,-119.7 636.19,-105.27 649.64,-93.3"/>
<polygon fill="midnightblue" stroke="midnightblue" points="652.04,-95.85 657.18,-86.59 647.38,-90.63 652.04,-95.85"/>
</g>
<!-- Node21&#45;&gt;Node6 -->
<g id="edge35" class="edge">
<title>Node21&#45;&gt;Node6</title>
<path fill="none" stroke="midnightblue" d="M700.73,-56.4C719.83,-46.68 745.06,-33.86 763.82,-24.31"/>
<polygon fill="midnightblue" stroke="midnightblue" points="765.65,-27.31 772.98,-19.66 762.48,-21.07 765.65,-27.31"/>
</g>
</g>
</svg>
        <g id="navigator" transform="translate(0 0)" fill="#404254">
                <rect fill="#f2f5e9" fill-opacity="0.5" stroke="#606060" stroke-width=".5" x="0" y="0" width="60" height="60"/>
                <use id="zoomplus" xlink:href="#zoomPlus" x="17" y="9" onmousedown="handleZoom(evt,'in')"/>
                <use id="zoomminus" xlink:href="#zoomMin" x="42" y="9" onmousedown="handleZoom(evt,'out')"/>
                <use id="reset" xlink:href="#resetDef" x="30" y="36" onmousedown="handleReset()"/>
                <g id="arrowUp" xlink:href="#dirArrow" transform="translate(30 24)" onmousedown="handlePan(0,-1)">
                  <use xlink:href="#rim" fill="#404040">
                        <set attributeName="fill" to="#808080" begin="arrowUp.mouseover" end="arrowUp.mouseout"/>
                  </use>
                  <path fill="none" stroke="white" stroke-width="1.5" d="M0,-3.0v7 M-2.5,-0.5L0,-3.0L2.5,-0.5"/>
                </g>
                <g id="arrowRight" xlink:href="#dirArrow" transform="rotate(90) translate(36 -43)" onmousedown="handlePan(1,0)">
                  <use xlink:href="#rim" fill="#404040">
                        <set attributeName="fill" to="#808080" begin="arrowRight.mouseover" end="arrowRight.mouseout"/>
                  </use>
                  <path fill="none" stroke="white" stroke-width="1.5" d="M0,-3.0v7 M-2.5,-0.5L0,-3.0L2.5,-0.5"/>
                </g>
                <g id="arrowDown" xlink:href="#dirArrow" transform="rotate(180) translate(-30 -48)" onmousedown="handlePan(0,1)">
                  <use xlink:href="#rim" fill="#404040">
                        <set attributeName="fill" to="#808080" begin="arrowDown.mouseover" end="arrowDown.mouseout"/>
                  </use>
                  <path fill="none" stroke="white" stroke-width="1.5" d="M0,-3.0v7 M-2.5,-0.5L0,-3.0L2.5,-0.5"/>
                </g>
                <g id="arrowLeft" xlink:href="#dirArrow" transform="rotate(270) translate(-36 17)" onmousedown="handlePan(-1,0)">
                  <use xlink:href="#rim" fill="#404040">
                        <set attributeName="fill" to="#808080" begin="arrowLeft.mouseover" end="arrowLeft.mouseout"/>
                  </use>
                  <path fill="none" stroke="white" stroke-width="1.5" d="M0,-3.0v7 M-2.5,-0.5L0,-3.0L2.5,-0.5"/>
                </g>
        </g>
        <svg viewBox="0 0 15 15" width="100%" height="30px" preserveAspectRatio="xMaxYMin meet">
         <g id="arrow_out" transform="scale(0.3 0.3)">
          <a xlink:href="wrapper_2serial_2serial_8hpp__incl_org.svg" target="_base">
           <rect id="button" ry="5" rx="5" y="6" x="6" height="38" width="38"
                fill="#f2f5e9" fill-opacity="0.5" stroke="#606060" stroke-width="1.0"/>
           <path id="arrow"
             d="M 11.500037,31.436501 C 11.940474,20.09759 22.043105,11.32322 32.158766,21.979434 L 37.068811,17.246167 C 37.068811,17.246167 37.088388,32 37.088388,32 L 22.160133,31.978069 C 22.160133,31.978069 26.997745,27.140456 26.997745,27.140456 C 18.528582,18.264221 13.291696,25.230495 11.500037,31.436501 z"
             style="fill:#404040;"/>
          </a>
         </g>
        </svg>
</svg>
