<?xml version="1.0" encoding="UTF-8" standalone="no"?>
<!DOCTYPE svg PUBLIC "-//W3C//DTD SVG 1.1//EN"
 "http://www.w3.org/Graphics/SVG/1.1/DTD/svg11.dtd">
<!-- Generated by graphviz version 2.43.0 (0)
 -->
<!-- Title: unilink/wrapper/tcp_client/tcp_client.hpp Pages: 1 -->
<svg width="2254pt" height="401pt"
 viewBox="0.00 0.00 2254.00 401.00" xmlns="http://www.w3.org/2000/svg" xmlns:xlink="http://www.w3.org/1999/xlink">
<g id="graph0" class="graph" transform="scale(1 1) rotate(0) translate(4 397)">
<title>unilink/wrapper/tcp_client/tcp_client.hpp</title>
<!-- Node1 -->
<g id="Node000001" class="node">
<title>Node1</title>
<g id="a_Node000001"><a xlink:title=" ">
<polygon fill="#999999" stroke="#666666" points="938,-393 818,-393 818,-363 938,-363 938,-393"/>
<text text-anchor="start" x="826" y="-381" font-family="Helvetica,sans-Serif" font-size="10.00">unilink/wrapper/tcp</text>
<text text-anchor="middle" x="878" y="-370" font-family="Helvetica,sans-Serif" font-size="10.00">_client/tcp_client.hpp</text>
</a>
</g>
</g>
<!-- Node2 -->
<g id="Node000002" class="node">
<title>Node2</title>
<g id="a_Node000002"><a xlink:title=" ">
<polygon fill="#e0e0e0" stroke="#999999" points="1761,-79.5 1711,-79.5 1711,-60.5 1761,-60.5 1761,-79.5"/>
<text text-anchor="middle" x="1736" y="-67.5" font-family="Helvetica,sans-Serif" font-size="10.00">chrono</text>
</a>
</g>
</g>
<!-- Node1&#45;&gt;Node2 -->
<g id="edge1_Node000001_Node000002" class="edge">
<title>Node1&#45;&gt;Node2</title>
<g id="a_edge1_Node000001_Node000002"><a xlink:title=" ">
<path fill="none" stroke="#63b8ff" d="M938.09,-377.02C1091.59,-376.41 1510.42,-370.53 1856,-327 1997.26,-309.21 2170,-405.88 2170,-263.5 2170,-263.5 2170,-263.5 2170,-201 2170,-146.48 2126.6,-143.63 2077,-121 2022.8,-96.27 1846.59,-79.76 1770.98,-73.65"/>
<polygon fill="#63b8ff" stroke="#63b8ff" points="1771.25,-70.16 1761,-72.85 1770.69,-77.13 1771.25,-70.16"/>
</a>
</g>
</g>
<!-- Node3 -->
<g id="Node000003" class="node">
<title>Node3</title>
<g id="a_Node000003"><a xlink:title=" ">
<polygon fill="#e0e0e0" stroke="#999999" points="611.5,-79.5 546.5,-79.5 546.5,-60.5 611.5,-60.5 611.5,-79.5"/>
<text text-anchor="middle" x="579" y="-67.5" font-family="Helvetica,sans-Serif" font-size="10.00">functional</text>
</a>
</g>
</g>
<!-- Node1&#45;&gt;Node3 -->
<g id="edge2_Node000001_Node000003" class="edge">
<title>Node1&#45;&gt;Node3</title>
<g id="a_edge2_Node000001_Node000003"><a xlink:title=" ">
<path fill="none" stroke="#63b8ff" d="M817.68,-373.52C698.03,-365.2 437.64,-339.57 385,-272 324.77,-194.69 480.48,-114.2 548.77,-83.71"/>
<polygon fill="#63b8ff" stroke="#63b8ff" points="550.43,-86.81 558.18,-79.58 547.61,-80.4 550.43,-86.81"/>
</a>
</g>
</g>
<!-- Node4 -->
<g id="Node000004" class="node">
<title>Node4</title>
<g id="a_Node000004"><a xlink:title=" ">
<polygon fill="#e0e0e0" stroke="#999999" points="440,-272 394,-272 394,-253 440,-253 440,-272"/>
<text text-anchor="middle" x="417" y="-260" font-family="Helvetica,sans-Serif" font-size="10.00">future</text>
</a>
</g>
</g>
<!-- Node1&#45;&gt;Node4 -->
<g id="edge3_Node000001_Node000004" class="edge">
<title>Node1&#45;&gt;Node4</title>
<g id="a_edge3_Node000001_Node000004"><a xlink:title=" ">
<path fill="none" stroke="#63b8ff" d="M821.01,-362.97C723.49,-338.96 527.61,-290.73 449.88,-271.59"/>
<polygon fill="#63b8ff" stroke="#63b8ff" points="450.69,-268.19 440.14,-269.2 449.02,-274.99 450.69,-268.19"/>
</a>
</g>
</g>
<!-- Node5 -->
<g id="Node000005" class="node">
<title>Node5</title>
<g id="a_Node000005"><a xlink:title=" ">
<polygon fill="#e0e0e0" stroke="#999999" points="528,-79.5 470,-79.5 470,-60.5 528,-60.5 528,-79.5"/>
<text text-anchor="middle" x="499" y="-67.5" font-family="Helvetica,sans-Serif" font-size="10.00">memory</text>
</a>
</g>
</g>
<!-- Node1&#45;&gt;Node5 -->
<g id="edge4_Node000001_Node000005" class="edge">
<title>Node1&#45;&gt;Node5</title>
<g id="a_edge4_Node000001_Node000005"><a xlink:title=" ">
<path fill="none" stroke="#63b8ff" d="M817.83,-377.15C675.12,-375.89 328,-362.64 328,-263.5 328,-263.5 328,-263.5 328,-201 328,-134.92 409.92,-98.04 460.36,-81.59"/>
<polygon fill="#63b8ff" stroke="#63b8ff" points="461.5,-84.9 469.99,-78.57 459.4,-78.22 461.5,-84.9"/>
</a>
</g>
</g>
<!-- Node6 -->
<g id="Node000006" class="node">
<title>Node6</title>
<g id="a_Node000006"><a xlink:title=" ">
<polygon fill="#e0e0e0" stroke="#999999" points="2021,-79.5 1977,-79.5 1977,-60.5 2021,-60.5 2021,-79.5"/>
<text text-anchor="middle" x="1999" y="-67.5" font-family="Helvetica,sans-Serif" font-size="10.00">string</text>
</a>
</g>
</g>
<!-- Node1&#45;&gt;Node6 -->
<g id="edge5_Node000001_Node000006" class="edge">
<title>Node1&#45;&gt;Node6</title>
<g id="a_edge5_Node000001_Node000006"><a xlink:title=" ">
<path fill="none" stroke="#63b8ff" d="M938.25,-376.21C1142.88,-373.25 1810.28,-361.16 2022,-327 2124.16,-310.52 2246,-366.98 2246,-263.5 2246,-263.5 2246,-263.5 2246,-201 2246,-105.09 2098.37,-79.78 2031.38,-73.23"/>
<polygon fill="#63b8ff" stroke="#63b8ff" points="2031.63,-69.74 2021.36,-72.33 2031,-76.71 2031.63,-69.74"/>
</a>
</g>
</g>
<!-- Node7 -->
<g id="Node000007" class="node">
<title>Node7</title>
<g id="a_Node000007"><a xlink:title=" ">
<polygon fill="#e0e0e0" stroke="#999999" points="1241.5,-79.5 1168.5,-79.5 1168.5,-60.5 1241.5,-60.5 1241.5,-79.5"/>
<text text-anchor="middle" x="1205" y="-67.5" font-family="Helvetica,sans-Serif" font-size="10.00">string_view</text>
</a>
</g>
</g>
<!-- Node1&#45;&gt;Node7 -->
<g id="edge6_Node000001_Node000007" class="edge">
<title>Node1&#45;&gt;Node7</title>
<g id="a_edge6_Node000001_Node000007"><a xlink:title=" ">
<path fill="none" stroke="#63b8ff" d="M938.05,-375.51C1117.69,-369.67 1644.88,-341.99 1749,-217 1819.42,-132.46 1748.15,-223.4 1599,-151 1579.64,-141.6 1580.79,-129.46 1561,-121 1506.24,-97.59 1335.29,-81.3 1251.81,-74.52"/>
<polygon fill="#63b8ff" stroke="#63b8ff" points="1251.84,-71.01 1241.59,-73.7 1251.28,-77.99 1251.84,-71.01"/>
</a>
</g>
</g>
<!-- Node8 -->
<g id="Node000008" class="node">
<title>Node8</title>
<g id="a_Node000008"><a xlink:title=" ">
<polygon fill="#e0e0e0" stroke="#999999" points="977.5,-79.5 930.5,-79.5 930.5,-60.5 977.5,-60.5 977.5,-79.5"/>
<text text-anchor="middle" x="954" y="-67.5" font-family="Helvetica,sans-Serif" font-size="10.00">vector</text>
</a>
</g>
</g>
<!-- Node1&#45;&gt;Node8 -->
<g id="edge7_Node000001_Node000008" class="edge">
<title>Node1&#45;&gt;Node8</title>
<g id="a_edge7_Node000001_Node000008"><a xlink:title=" ">
<path fill="none" stroke="#63b8ff" d="M889.72,-362.97C905.6,-342.49 932,-302.56 932,-263.5 932,-263.5 932,-263.5 932,-201 932,-160.9 942.3,-114.81 948.81,-89.7"/>
<polygon fill="#63b8ff" stroke="#63b8ff" points="952.27,-90.31 951.48,-79.74 945.51,-88.49 952.27,-90.31"/>
</a>
</g>
</g>
<!-- Node9 -->
<g id="Node000009" class="node">
<title>Node9</title>
<g id="a_Node000009"><a xlink:href="constants_8hpp.html" target="_top" xlink:title=" ">
<polygon fill="white" stroke="#666666" points="299.5,-145.5 152.5,-145.5 152.5,-126.5 299.5,-126.5 299.5,-145.5"/>
<text text-anchor="middle" x="226" y="-133.5" font-family="Helvetica,sans-Serif" font-size="10.00">unilink/base/constants.hpp</text>
</a>
</g>
</g>
<!-- Node1&#45;&gt;Node9 -->
<g id="edge8_Node000001_Node000009" class="edge">
<title>Node1&#45;&gt;Node9</title>
<g id="a_edge8_Node000001_Node000009"><a xlink:title=" ">
<path fill="none" stroke="#63b8ff" d="M817.96,-375.05C681.07,-370.12 354.54,-355.5 314,-327 255.26,-285.71 234.78,-195.04 228.48,-155.76"/>
<polygon fill="#63b8ff" stroke="#63b8ff" points="231.93,-155.11 227.01,-145.73 225,-156.13 231.93,-155.11"/>
</a>
</g>
</g>
<!-- Node12 -->
<g id="Node000012" class="node">
<title>Node12</title>
<g id="a_Node000012"><a xlink:href="visibility_8hpp.html" target="_top" xlink:title=" ">
<polygon fill="white" stroke="#666666" points="1693,-79.5 1553,-79.5 1553,-60.5 1693,-60.5 1693,-79.5"/>
<text text-anchor="middle" x="1623" y="-67.5" font-family="Helvetica,sans-Serif" font-size="10.00">unilink/base/visibility.hpp</text>
</a>
</g>
</g>
<!-- Node1&#45;&gt;Node12 -->
<g id="edge11_Node000001_Node000012" class="edge">
<title>Node1&#45;&gt;Node12</title>
<g id="a_edge11_Node000001_Node000012"><a xlink:title=" ">
<path fill="none" stroke="#63b8ff" d="M938.3,-374.57C1183.67,-364.29 2094,-322.21 2094,-263.5 2094,-263.5 2094,-263.5 2094,-201 2094,-49.85 1789.71,-98.3 1702,-85 1694.53,-83.87 1686.68,-82.59 1678.95,-81.27"/>
<polygon fill="#63b8ff" stroke="#63b8ff" points="1679.34,-77.79 1668.89,-79.53 1678.14,-84.68 1679.34,-77.79"/>
</a>
</g>
</g>
<!-- Node13 -->
<g id="Node000013" class="node">
<title>Node13</title>
<g id="a_Node000013"><a xlink:href="ichannel_8hpp.html" target="_top" xlink:title=" ">
<polygon fill="white" stroke="#666666" points="904,-327 746,-327 746,-308 904,-308 904,-327"/>
<text text-anchor="middle" x="825" y="-315" font-family="Helvetica,sans-Serif" font-size="10.00">unilink/wrapper/ichannel.hpp</text>
</a>
</g>
</g>
<!-- Node1&#45;&gt;Node13 -->
<g id="edge12_Node000001_Node000013" class="edge">
<title>Node1&#45;&gt;Node13</title>
<g id="a_edge12_Node000001_Node000013"><a xlink:title=" ">
<path fill="none" stroke="#63b8ff" d="M865.17,-362.84C857.48,-354.35 847.67,-343.52 839.67,-334.69"/>
<polygon fill="#63b8ff" stroke="#63b8ff" points="842.25,-332.33 832.94,-327.27 837.06,-337.03 842.25,-332.33"/>
</a>
</g>
</g>
<!-- Node10 -->
<g id="Node000010" class="node">
<title>Node10</title>
<g id="a_Node000010"><a xlink:title=" ">
<polygon fill="#e0e0e0" stroke="#999999" points="226.5,-79.5 173.5,-79.5 173.5,-60.5 226.5,-60.5 226.5,-79.5"/>
<text text-anchor="middle" x="200" y="-67.5" font-family="Helvetica,sans-Serif" font-size="10.00">cstddef</text>
</a>
</g>
</g>
<!-- Node9&#45;&gt;Node10 -->
<g id="edge9_Node000009_Node000010" class="edge">
<title>Node9&#45;&gt;Node10</title>
<g id="a_edge9_Node000009_Node000010"><a xlink:title=" ">
<path fill="none" stroke="#63b8ff" d="M222.49,-126.37C218.68,-116.97 212.46,-101.67 207.53,-89.53"/>
<polygon fill="#63b8ff" stroke="#63b8ff" points="210.62,-87.85 203.62,-79.91 204.14,-90.49 210.62,-87.85"/>
</a>
</g>
</g>
<!-- Node11 -->
<g id="Node000011" class="node">
<title>Node11</title>
<g id="a_Node000011"><a xlink:title=" ">
<polygon fill="#e0e0e0" stroke="#999999" points="467,-19 417,-19 417,0 467,0 467,-19"/>
<text text-anchor="middle" x="442" y="-7" font-family="Helvetica,sans-Serif" font-size="10.00">cstdint</text>
</a>
</g>
</g>
<!-- Node9&#45;&gt;Node11 -->
<g id="edge10_Node000009_Node000011" class="edge">
<title>Node9&#45;&gt;Node11</title>
<g id="a_edge10_Node000009_Node000011"><a xlink:title=" ">
<path fill="none" stroke="#63b8ff" d="M240.85,-126.44C277.69,-105.21 373.54,-49.96 418.31,-24.15"/>
<polygon fill="#63b8ff" stroke="#63b8ff" points="420.13,-27.14 427.05,-19.12 416.64,-21.08 420.13,-27.14"/>
</a>
</g>
</g>
<!-- Node13&#45;&gt;Node3 -->
<g id="edge13_Node000013_Node000003" class="edge">
<title>Node13&#45;&gt;Node3</title>
<g id="a_edge13_Node000013_Node000003"><a xlink:title=" ">
<path fill="none" stroke="#63b8ff" d="M785.04,-307.97C717.69,-291.19 583.43,-246.89 527,-151 513.33,-127.77 538.06,-101.74 557.88,-85.86"/>
<polygon fill="#63b8ff" stroke="#63b8ff" points="560.12,-88.56 565.96,-79.72 555.88,-82.99 560.12,-88.56"/>
</a>
</g>
</g>
<!-- Node13&#45;&gt;Node4 -->
<g id="edge14_Node000013_Node000004" class="edge">
<title>Node13&#45;&gt;Node4</title>
<g id="a_edge14_Node000013_Node000004"><a xlink:title=" ">
<path fill="none" stroke="#63b8ff" d="M745.76,-309.46C670.4,-302.18 554.02,-289.44 454,-272 452.72,-271.78 451.42,-271.54 450.11,-271.29"/>
<polygon fill="#63b8ff" stroke="#63b8ff" points="450.52,-267.8 440.02,-269.19 449.09,-274.65 450.52,-267.8"/>
</a>
</g>
</g>
<!-- Node13&#45;&gt;Node5 -->
<g id="edge15_Node000013_Node000005" class="edge">
<title>Node13&#45;&gt;Node5</title>
<g id="a_edge15_Node000013_Node000005"><a xlink:title=" ">
<path fill="none" stroke="#63b8ff" d="M745.76,-308.12C683.95,-297.37 600.54,-272.84 551,-217 517.91,-179.7 505.48,-119.89 501.14,-89.71"/>
<polygon fill="#63b8ff" stroke="#63b8ff" points="504.59,-89.17 499.84,-79.7 497.65,-90.07 504.59,-89.17"/>
</a>
</g>
</g>
<!-- Node13&#45;&gt;Node6 -->
<g id="edge16_Node000013_Node000006" class="edge">
<title>Node13&#45;&gt;Node6</title>
<g id="a_edge16_Node000013_Node000006"><a xlink:title=" ">
<path fill="none" stroke="#63b8ff" d="M904.13,-316.47C1076.97,-314.73 1500.11,-301.39 1842,-217 1927.97,-195.78 1978.79,-223.25 2030,-151 2043.94,-131.34 2027.87,-104.57 2014.16,-87.54"/>
<polygon fill="#63b8ff" stroke="#63b8ff" points="2016.54,-84.93 2007.38,-79.61 2011.22,-89.48 2016.54,-84.93"/>
</a>
</g>
</g>
<!-- Node13&#45;&gt;Node7 -->
<g id="edge17_Node000013_Node000007" class="edge">
<title>Node13&#45;&gt;Node7</title>
<g id="a_edge17_Node000013_Node000007"><a xlink:title=" ">
<path fill="none" stroke="#63b8ff" d="M835.07,-307.8C869.2,-278.63 984.29,-182.61 1091,-121 1117.2,-105.87 1148.84,-92.34 1172.13,-83.18"/>
<polygon fill="#63b8ff" stroke="#63b8ff" points="1173.5,-86.4 1181.56,-79.53 1170.97,-79.87 1173.5,-86.4"/>
</a>
</g>
</g>
<!-- Node13&#45;&gt;Node8 -->
<g id="edge18_Node000013_Node000008" class="edge">
<title>Node13&#45;&gt;Node8</title>
<g id="a_edge18_Node000013_Node000008"><a xlink:title=" ">
<path fill="none" stroke="#63b8ff" d="M828.54,-307.64C839.93,-279.49 877.25,-189.91 918,-121 924.85,-109.42 933.66,-97.14 940.85,-87.66"/>
<polygon fill="#63b8ff" stroke="#63b8ff" points="943.79,-89.58 947.13,-79.53 938.25,-85.3 943.79,-89.58"/>
</a>
</g>
</g>
<!-- Node13&#45;&gt;Node12 -->
<g id="edge19_Node000013_Node000012" class="edge">
<title>Node13&#45;&gt;Node12</title>
<g id="a_edge19_Node000013_Node000012"><a xlink:title=" ">
<path fill="none" stroke="#63b8ff" d="M904.19,-311.35C1151.69,-294.42 1898.02,-236.57 1961,-151 2064.51,-10.36 2245.73,-170.94 1702,-85 1694.63,-83.84 1686.89,-82.55 1679.26,-81.23"/>
<polygon fill="#63b8ff" stroke="#63b8ff" points="1679.77,-77.77 1669.32,-79.51 1678.57,-84.67 1679.77,-77.77"/>
</a>
</g>
</g>
<!-- Node14 -->
<g id="Node000014" class="node">
<title>Node14</title>
<g id="a_Node000014"><a xlink:href="iframer_8hpp.html" target="_top" xlink:title=" ">
<polygon fill="white" stroke="#666666" points="691.5,-145.5 546.5,-145.5 546.5,-126.5 691.5,-126.5 691.5,-145.5"/>
<text text-anchor="middle" x="619" y="-133.5" font-family="Helvetica,sans-Serif" font-size="10.00">unilink/framer/iframer.hpp</text>
</a>
</g>
</g>
<!-- Node13&#45;&gt;Node14 -->
<g id="edge20_Node000013_Node000014" class="edge">
<title>Node13&#45;&gt;Node14</title>
<g id="a_edge20_Node000013_Node000014"><a xlink:title=" ">
<path fill="none" stroke="#63b8ff" d="M814.35,-307.88C793.37,-290.83 745.28,-251.45 706,-217 681.08,-195.14 652.96,-169.01 635.61,-152.7"/>
<polygon fill="#63b8ff" stroke="#63b8ff" points="637.69,-149.86 628.02,-145.55 632.89,-154.96 637.69,-149.86"/>
</a>
</g>
</g>
<!-- Node18 -->
<g id="Node000018" class="node">
<title>Node18</title>
<g id="a_Node000018"><a xlink:href="context_8hpp.html" target="_top" xlink:title=" ">
<polygon fill="white" stroke="#666666" points="1140.5,-272 987.5,-272 987.5,-253 1140.5,-253 1140.5,-272"/>
<text text-anchor="middle" x="1064" y="-260" font-family="Helvetica,sans-Serif" font-size="10.00">unilink/wrapper/context.hpp</text>
</a>
</g>
</g>
<!-- Node13&#45;&gt;Node18 -->
<g id="edge29_Node000013_Node000018" class="edge">
<title>Node13&#45;&gt;Node18</title>
<g id="a_edge29_Node000013_Node000018"><a xlink:title=" ">
<path fill="none" stroke="#63b8ff" d="M863.4,-307.98C904.74,-298.82 970.6,-284.21 1015.49,-274.26"/>
<polygon fill="#63b8ff" stroke="#63b8ff" points="1016.29,-277.66 1025.3,-272.08 1014.78,-270.83 1016.29,-277.66"/>
</a>
</g>
</g>
<!-- Node34 -->
<g id="Node000034" class="node">
<title>Node34</title>
<g id="a_Node000034"><a xlink:href="runtime__stats_8hpp.html" target="_top" xlink:title=" ">
<polygon fill="white" stroke="#666666" points="134,-151 0,-151 0,-121 134,-121 134,-151"/>
<text text-anchor="start" x="8" y="-139" font-family="Helvetica,sans-Serif" font-size="10.00">unilink/wrapper/runtime</text>
<text text-anchor="middle" x="67" y="-128" font-family="Helvetica,sans-Serif" font-size="10.00">_stats.hpp</text>
</a>
</g>
</g>
<!-- Node13&#45;&gt;Node34 -->
<g id="edge76_Node000013_Node000034" class="edge">
<title>Node13&#45;&gt;Node34</title>
<g id="a_edge76_Node000013_Node000034"><a xlink:title=" ">
<path fill="none" stroke="#63b8ff" d="M745.68,-312.23C677.4,-307.06 576.78,-295.87 492,-272 471.89,-266.34 468.59,-260.27 449,-253 338.78,-212.08 206.9,-174.46 130.46,-153.73"/>
<polygon fill="#63b8ff" stroke="#63b8ff" points="131.08,-150.27 120.51,-151.04 129.25,-157.03 131.08,-150.27"/>
</a>
</g>
</g>
<!-- Node14&#45;&gt;Node3 -->
<g id="edge21_Node000014_Node000003" class="edge">
<title>Node14&#45;&gt;Node3</title>
<g id="a_edge21_Node000014_Node000003"><a xlink:title=" ">
<path fill="none" stroke="#63b8ff" d="M613.61,-126.37C607.56,-116.69 597.59,-100.74 589.9,-88.44"/>
<polygon fill="#63b8ff" stroke="#63b8ff" points="592.83,-86.53 584.57,-79.91 586.9,-90.24 592.83,-86.53"/>
</a>
</g>
</g>
<!-- Node14&#45;&gt;Node5 -->
<g id="edge22_Node000014_Node000005" class="edge">
<title>Node14&#45;&gt;Node5</title>
<g id="a_edge22_Node000014_Node000005"><a xlink:title=" ">
<path fill="none" stroke="#63b8ff" d="M602.82,-126.37C582.69,-115.63 548.09,-97.18 524.41,-84.55"/>
<polygon fill="#63b8ff" stroke="#63b8ff" points="525.78,-81.32 515.31,-79.7 522.49,-87.49 525.78,-81.32"/>
</a>
</g>
</g>
<!-- Node14&#45;&gt;Node8 -->
<g id="edge23_Node000014_Node000008" class="edge">
<title>Node14&#45;&gt;Node8</title>
<g id="a_edge23_Node000014_Node000008"><a xlink:title=" ">
<path fill="none" stroke="#63b8ff" d="M664.81,-126.43C717.47,-116.56 806.51,-99.78 883,-85 895.21,-82.64 908.6,-80.01 920.42,-77.67"/>
<polygon fill="#63b8ff" stroke="#63b8ff" points="921.21,-81.09 930.34,-75.71 919.85,-74.22 921.21,-81.09"/>
</a>
</g>
</g>
<!-- Node14&#45;&gt;Node12 -->
<g id="edge24_Node000014_Node000012" class="edge">
<title>Node14&#45;&gt;Node12</title>
<g id="a_edge24_Node000014_Node000012"><a xlink:title=" ">
<path fill="none" stroke="#63b8ff" d="M684.62,-126.49C702.26,-124.43 721.33,-122.42 739,-121 1095.98,-92.23 1188.03,-124.33 1544,-85 1552.75,-84.03 1562,-82.69 1570.96,-81.22"/>
<polygon fill="#63b8ff" stroke="#63b8ff" points="1571.65,-84.65 1580.92,-79.51 1570.47,-77.75 1571.65,-84.65"/>
</a>
</g>
</g>
<!-- Node15 -->
<g id="Node000015" class="node">
<title>Node15</title>
<g id="a_Node000015"><a xlink:href="safe__span_8hpp.html" target="_top" xlink:title=" ">
<polygon fill="white" stroke="#666666" points="786,-85 668,-85 668,-55 786,-55 786,-85"/>
<text text-anchor="start" x="676" y="-73" font-family="Helvetica,sans-Serif" font-size="10.00">unilink/memory/safe</text>
<text text-anchor="middle" x="727" y="-62" font-family="Helvetica,sans-Serif" font-size="10.00">_span.hpp</text>
</a>
</g>
</g>
<!-- Node14&#45;&gt;Node15 -->
<g id="edge25_Node000014_Node000015" class="edge">
<title>Node14&#45;&gt;Node15</title>
<g id="a_edge25_Node000014_Node000015"><a xlink:title=" ">
<path fill="none" stroke="#63b8ff" d="M633.57,-126.37C649.11,-117.16 674.25,-102.26 694.54,-90.24"/>
<polygon fill="#63b8ff" stroke="#63b8ff" points="696.36,-93.22 703.18,-85.12 692.79,-87.2 696.36,-93.22"/>
</a>
</g>
</g>
<!-- Node15&#45;&gt;Node11 -->
<g id="edge26_Node000015_Node000011" class="edge">
<title>Node15&#45;&gt;Node11</title>
<g id="a_edge26_Node000015_Node000011"><a xlink:title=" ">
<path fill="none" stroke="#63b8ff" d="M667.95,-56.88C610.38,-45.06 524.75,-27.49 477.15,-17.71"/>
<polygon fill="#63b8ff" stroke="#63b8ff" points="477.81,-14.28 467.31,-15.7 476.4,-21.13 477.81,-14.28"/>
</a>
</g>
</g>
<!-- Node16 -->
<g id="Node000016" class="node">
<title>Node16</title>
<g id="a_Node000016"><a xlink:title=" ">
<polygon fill="#e0e0e0" stroke="#999999" points="747,-19 707,-19 707,0 747,0 747,-19"/>
<text text-anchor="middle" x="727" y="-7" font-family="Helvetica,sans-Serif" font-size="10.00">span</text>
</a>
</g>
</g>
<!-- Node15&#45;&gt;Node16 -->
<g id="edge27_Node000015_Node000016" class="edge">
<title>Node15&#45;&gt;Node16</title>
<g id="a_edge27_Node000015_Node000016"><a xlink:title=" ">
<path fill="none" stroke="#63b8ff" d="M727,-54.84C727,-47.21 727,-37.7 727,-29.45"/>
<polygon fill="#63b8ff" stroke="#63b8ff" points="730.5,-29.27 727,-19.27 723.5,-29.27 730.5,-29.27"/>
</a>
</g>
</g>
<!-- Node17 -->
<g id="Node000017" class="node">
<title>Node17</title>
<g id="a_Node000017"><a xlink:title=" ">
<polygon fill="#e0e0e0" stroke="#999999" points="934.5,-19 869.5,-19 869.5,0 934.5,0 934.5,-19"/>
<text text-anchor="middle" x="902" y="-7" font-family="Helvetica,sans-Serif" font-size="10.00">stdexcept</text>
</a>
</g>
</g>
<!-- Node15&#45;&gt;Node17 -->
<g id="edge28_Node000015_Node000017" class="edge">
<title>Node15&#45;&gt;Node17</title>
<g id="a_edge28_Node000015_Node000017"><a xlink:title=" ">
<path fill="none" stroke="#63b8ff" d="M768.92,-54.99C798.73,-45.02 838.33,-31.78 866.56,-22.35"/>
<polygon fill="#63b8ff" stroke="#63b8ff" points="868.04,-25.54 876.41,-19.05 865.82,-18.9 868.04,-25.54"/>
</a>
</g>
</g>
<!-- Node18&#45;&gt;Node6 -->
<g id="edge31_Node000018_Node000006" class="edge">
<title>Node18&#45;&gt;Node6</title>
<g id="a_edge31_Node000018_Node000006"><a xlink:title=" ">
<path fill="none" stroke="#63b8ff" d="M1140.51,-261.01C1267.62,-259.2 1529.99,-251.2 1749,-217 1868.5,-198.34 1938.57,-246.33 2013,-151 2026.85,-133.26 2017.98,-106.53 2009.34,-88.92"/>
<polygon fill="#63b8ff" stroke="#63b8ff" points="2012.25,-86.93 2004.45,-79.75 2006.07,-90.22 2012.25,-86.93"/>
</a>
</g>
</g>
<!-- Node18&#45;&gt;Node7 -->
<g id="edge32_Node000018_Node000007" class="edge">
<title>Node18&#45;&gt;Node7</title>
<g id="a_edge32_Node000018_Node000007"><a xlink:title=" ">
<path fill="none" stroke="#63b8ff" d="M1074.36,-252.84C1083.3,-244.66 1095.59,-231.5 1101,-217 1115.92,-177.02 1080.05,-156.98 1103,-121 1115.45,-101.48 1137.94,-89.35 1158.63,-81.93"/>
<polygon fill="#63b8ff" stroke="#63b8ff" points="1159.88,-85.21 1168.28,-78.75 1157.69,-78.56 1159.88,-85.21"/>
</a>
</g>
</g>
<!-- Node18&#45;&gt;Node8 -->
<g id="edge33_Node000018_Node000008" class="edge">
<title>Node18&#45;&gt;Node8</title>
<g id="a_edge33_Node000018_Node000008"><a xlink:title=" ">
<path fill="none" stroke="#63b8ff" d="M1055.7,-252.77C1047.74,-244.13 1035.68,-230.29 1027,-217 998.55,-173.45 973.37,-117.3 961.4,-89"/>
<polygon fill="#63b8ff" stroke="#63b8ff" points="964.56,-87.48 957.47,-79.6 958.1,-90.18 964.56,-87.48"/>
</a>
</g>
</g>
<!-- Node18&#45;&gt;Node15 -->
<g id="edge75_Node000018_Node000015" class="edge">
<title>Node18&#45;&gt;Node15</title>
<g id="a_edge75_Node000018_Node000015"><a xlink:title=" ">
<path fill="none" stroke="#63b8ff" d="M987.17,-258.52C911.06,-251.08 797.63,-226.95 739,-151 726.89,-135.31 724.48,-112.62 724.76,-95.4"/>
<polygon fill="#63b8ff" stroke="#63b8ff" points="728.28,-95.17 725.26,-85.01 721.29,-94.83 728.28,-95.17"/>
</a>
</g>
</g>
<!-- Node19 -->
<g id="Node000019" class="node">
<title>Node19</title>
<g id="a_Node000019"><a xlink:title=" ">
<polygon fill="#e0e0e0" stroke="#999999" points="1092,-211.5 1036,-211.5 1036,-192.5 1092,-192.5 1092,-211.5"/>
<text text-anchor="middle" x="1064" y="-199.5" font-family="Helvetica,sans-Serif" font-size="10.00">optional</text>
</a>
</g>
</g>
<!-- Node18&#45;&gt;Node19 -->
<g id="edge30_Node000018_Node000019" class="edge">
<title>Node18&#45;&gt;Node19</title>
<g id="a_edge30_Node000018_Node000019"><a xlink:title=" ">
<path fill="none" stroke="#63b8ff" d="M1064,-252.87C1064,-244.75 1064,-232.31 1064,-221.89"/>
<polygon fill="#63b8ff" stroke="#63b8ff" points="1067.5,-221.67 1064,-211.67 1060.5,-221.67 1067.5,-221.67"/>
</a>
</g>
</g>
<!-- Node20 -->
<g id="Node000020" class="node">
<title>Node20</title>
<g id="a_Node000020"><a xlink:href="common_8hpp.html" target="_top" xlink:title=" ">
<polygon fill="white" stroke="#666666" points="1407.5,-211.5 1264.5,-211.5 1264.5,-192.5 1407.5,-192.5 1407.5,-211.5"/>
<text text-anchor="middle" x="1336" y="-199.5" font-family="Helvetica,sans-Serif" font-size="10.00">unilink/base/common.hpp</text>
</a>
</g>
</g>
<!-- Node18&#45;&gt;Node20 -->
<g id="edge34_Node000018_Node000020" class="edge">
<title>Node18&#45;&gt;Node20</title>
<g id="a_edge34_Node000018_Node000020"><a xlink:title=" ">
<path fill="none" stroke="#63b8ff" d="M1103.55,-252.99C1151.9,-242.6 1233.75,-224.99 1286.3,-213.69"/>
<polygon fill="#63b8ff" stroke="#63b8ff" points="1287.36,-217.04 1296.4,-211.52 1285.89,-210.2 1287.36,-217.04"/>
</a>
</g>
</g>
<!-- Node31 -->
<g id="Node000031" class="node">
<title>Node31</title>
<g id="a_Node000031"><a xlink:href="error__codes_8hpp.html" target="_top" xlink:title=" ">
<polygon fill="white" stroke="#666666" points="1740,-217 1638,-217 1638,-187 1740,-187 1740,-217"/>
<text text-anchor="start" x="1646" y="-205" font-family="Helvetica,sans-Serif" font-size="10.00">unilink/base/error</text>
<text text-anchor="middle" x="1689" y="-194" font-family="Helvetica,sans-Serif" font-size="10.00">_codes.hpp</text>
</a>
</g>
</g>
<!-- Node18&#45;&gt;Node31 -->
<g id="edge62_Node000018_Node000031" class="edge">
<title>Node18&#45;&gt;Node31</title>
<g id="a_edge62_Node000018_Node000031"><a xlink:title=" ">
<path fill="none" stroke="#63b8ff" d="M1140.64,-254.33C1266.1,-242.58 1512.81,-219.49 1627.58,-208.75"/>
<polygon fill="#63b8ff" stroke="#63b8ff" points="1627.97,-212.23 1637.6,-207.81 1627.32,-205.26 1627.97,-212.23"/>
</a>
</g>
</g>
<!-- Node32 -->
<g id="Node000032" class="node">
<title>Node32</title>
<g id="a_Node000032"><a xlink:href="safe__data__buffer_8hpp.html" target="_top" xlink:title=" ">
<polygon fill="white" stroke="#666666" points="866,-151 748,-151 748,-121 866,-121 866,-151"/>
<text text-anchor="start" x="756" y="-139" font-family="Helvetica,sans-Serif" font-size="10.00">unilink/memory/safe</text>
<text text-anchor="middle" x="807" y="-128" font-family="Helvetica,sans-Serif" font-size="10.00">_data_buffer.hpp</text>
</a>
</g>
</g>
<!-- Node18&#45;&gt;Node32 -->
<g id="edge64_Node000018_Node000032" class="edge">
<title>Node18&#45;&gt;Node32</title>
<g id="a_edge64_Node000018_Node000032"><a xlink:title=" ">
<path fill="none" stroke="#63b8ff" d="M1041.37,-252.95C1019.32,-244.44 984.96,-230.7 956,-217 915.35,-197.77 870.01,-172.92 840.14,-156.05"/>
<polygon fill="#63b8ff" stroke="#63b8ff" points="841.81,-152.98 831.39,-151.09 838.36,-159.07 841.81,-152.98"/>
</a>
</g>
</g>
<!-- Node20&#45;&gt;Node2 -->
<g id="edge35_Node000020_Node000002" class="edge">
<title>Node20&#45;&gt;Node2</title>
<g id="a_edge35_Node000020_Node000002"><a xlink:title=" ">
<path fill="none" stroke="#63b8ff" d="M1407.82,-201.8C1507.81,-201.29 1681.6,-194.02 1725,-151 1740.83,-135.31 1741.24,-108.25 1739.28,-89.99"/>
<polygon fill="#63b8ff" stroke="#63b8ff" points="1742.72,-89.36 1737.87,-79.95 1735.79,-90.34 1742.72,-89.36"/>
</a>
</g>
</g>
<!-- Node20&#45;&gt;Node3 -->
<g id="edge39_Node000020_Node000003" class="edge">
<title>Node20&#45;&gt;Node3</title>
<g id="a_edge39_Node000020_Node000003"><a xlink:title=" ">
<path fill="none" stroke="#63b8ff" d="M1264.2,-196.67C1068.21,-184.82 538.55,-152.65 537,-151 519.05,-131.89 542.44,-103.64 560.84,-86.32"/>
<polygon fill="#63b8ff" stroke="#63b8ff" points="563.19,-88.92 568.28,-79.63 558.51,-83.71 563.19,-88.92"/>
</a>
</g>
</g>
<!-- Node20&#45;&gt;Node6 -->
<g id="edge44_Node000020_Node000006" class="edge">
<title>Node20&#45;&gt;Node6</title>
<g id="a_edge44_Node000020_Node000006"><a xlink:title=" ">
<path fill="none" stroke="#63b8ff" d="M1407.63,-197.18C1566.96,-188.44 1938.51,-166.5 1961,-151 1981.64,-136.77 1991.4,-108.23 1995.77,-89.37"/>
<polygon fill="#63b8ff" stroke="#63b8ff" points="1999.2,-90.06 1997.76,-79.56 1992.34,-88.67 1999.2,-90.06"/>
</a>
</g>
</g>
<!-- Node20&#45;&gt;Node7 -->
<g id="edge45_Node000020_Node000007" class="edge">
<title>Node20&#45;&gt;Node7</title>
<g id="a_edge45_Node000020_Node000007"><a xlink:title=" ">
<path fill="none" stroke="#63b8ff" d="M1336.31,-192.46C1336.43,-176.55 1334.49,-142.1 1317,-121 1300.49,-101.08 1274.42,-88.8 1251.58,-81.4"/>
<polygon fill="#63b8ff" stroke="#63b8ff" points="1252.28,-77.96 1241.7,-78.43 1250.26,-84.66 1252.28,-77.96"/>
</a>
</g>
</g>
<!-- Node20&#45;&gt;Node8 -->
<g id="edge47_Node000020_Node000008" class="edge">
<title>Node20&#45;&gt;Node8</title>
<g id="a_edge47_Node000020_Node000008"><a xlink:title=" ">
<path fill="none" stroke="#63b8ff" d="M1273.34,-192.46C1225.65,-184.8 1158.92,-171.54 1103,-151 1055.21,-133.44 1003.8,-102.97 975.6,-85.13"/>
<polygon fill="#63b8ff" stroke="#63b8ff" points="977.27,-82.04 966.97,-79.6 973.5,-87.94 977.27,-82.04"/>
</a>
</g>
</g>
<!-- Node20&#45;&gt;Node9 -->
<g id="edge48_Node000020_Node000009" class="edge">
<title>Node20&#45;&gt;Node9</title>
<g id="a_edge48_Node000020_Node000009"><a xlink:title=" ">
<path fill="none" stroke="#63b8ff" d="M1264.27,-196.61C1217.73,-193.8 1155.78,-190.1 1101,-187 801.94,-170.09 726.98,-169.36 428,-151 389.19,-148.62 346.21,-145.68 309.91,-143.11"/>
<polygon fill="#63b8ff" stroke="#63b8ff" points="310.08,-139.62 299.86,-142.4 309.58,-146.6 310.08,-139.62"/>
</a>
</g>
</g>
<!-- Node20&#45;&gt;Node11 -->
<g id="edge36_Node000020_Node000011" class="edge">
<title>Node20&#45;&gt;Node11</title>
<g id="a_edge36_Node000020_Node000011"><a xlink:title=" ">
<path fill="none" stroke="#63b8ff" d="M1264.28,-196.73C1067.11,-184.98 531.19,-152.89 527,-151 489.18,-133.95 481.52,-121.05 461,-85 451.12,-67.64 446.29,-45.11 443.99,-29.39"/>
<polygon fill="#63b8ff" stroke="#63b8ff" points="447.45,-28.81 442.73,-19.32 440.5,-29.68 447.45,-28.81"/>
</a>
</g>
</g>
<!-- Node20&#45;&gt;Node17 -->
<g id="edge43_Node000020_Node000017" class="edge">
<title>Node20&#45;&gt;Node17</title>
<g id="a_edge43_Node000020_Node000017"><a xlink:title=" ">
<path fill="none" stroke="#63b8ff" d="M1407.63,-200.93C1510.7,-199.41 1694.06,-190.96 1745,-151 1779.69,-123.79 1800.37,-86.96 1770,-55 1741.29,-24.78 1115.28,-13.57 944.63,-11.07"/>
<polygon fill="#63b8ff" stroke="#63b8ff" points="944.57,-7.57 934.52,-10.93 944.47,-14.57 944.57,-7.57"/>
</a>
</g>
</g>
<!-- Node21 -->
<g id="Node000021" class="node">
<title>Node21</title>
<g id="a_Node000021"><a xlink:title=" ">
<polygon fill="#e0e0e0" stroke="#999999" points="1552,-145.5 1502,-145.5 1502,-126.5 1552,-126.5 1552,-145.5"/>
<text text-anchor="middle" x="1527" y="-133.5" font-family="Helvetica,sans-Serif" font-size="10.00">cstring</text>
</a>
</g>
</g>
<!-- Node20&#45;&gt;Node21 -->
<g id="edge37_Node000020_Node000021" class="edge">
<title>Node20&#45;&gt;Node21</title>
<g id="a_edge37_Node000020_Node000021"><a xlink:title=" ">
<path fill="none" stroke="#63b8ff" d="M1365.18,-192.49C1396.89,-183.07 1448.92,-167.06 1493,-151 1494.42,-150.48 1495.88,-149.94 1497.34,-149.38"/>
<polygon fill="#63b8ff" stroke="#63b8ff" points="1498.96,-152.5 1506.97,-145.57 1496.38,-145.99 1498.96,-152.5"/>
</a>
</g>
</g>
<!-- Node22 -->
<g id="Node000022" class="node">
<title>Node22</title>
<g id="a_Node000022"><a xlink:title=" ">
<polygon fill="#e0e0e0" stroke="#999999" points="1156,-145.5 1112,-145.5 1112,-126.5 1156,-126.5 1156,-145.5"/>
<text text-anchor="middle" x="1134" y="-133.5" font-family="Helvetica,sans-Serif" font-size="10.00">ctime</text>
</a>
</g>
</g>
<!-- Node20&#45;&gt;Node22 -->
<g id="edge38_Node000020_Node000022" class="edge">
<title>Node20&#45;&gt;Node22</title>
<g id="a_edge38_Node000020_Node000022"><a xlink:title=" ">
<path fill="none" stroke="#63b8ff" d="M1301.48,-192.42C1266.61,-183.41 1211.41,-168.17 1165,-151 1163.78,-150.55 1162.55,-150.08 1161.31,-149.58"/>
<polygon fill="#63b8ff" stroke="#63b8ff" points="1162.43,-146.25 1151.85,-145.58 1159.7,-152.7 1162.43,-146.25"/>
</a>
</g>
</g>
<!-- Node23 -->
<g id="Node000023" class="node">
<title>Node23</title>
<g id="a_Node000023"><a xlink:title=" ">
<polygon fill="#e0e0e0" stroke="#999999" points="1230,-145.5 1174,-145.5 1174,-126.5 1230,-126.5 1230,-145.5"/>
<text text-anchor="middle" x="1202" y="-133.5" font-family="Helvetica,sans-Serif" font-size="10.00">iomanip</text>
</a>
</g>
</g>
<!-- Node20&#45;&gt;Node23 -->
<g id="edge40_Node000020_Node000023" class="edge">
<title>Node20&#45;&gt;Node23</title>
<g id="a_edge40_Node000020_Node000023"><a xlink:title=" ">
<path fill="none" stroke="#63b8ff" d="M1317.93,-192.37C1295.15,-181.49 1255.78,-162.69 1229.32,-150.05"/>
<polygon fill="#63b8ff" stroke="#63b8ff" points="1230.75,-146.85 1220.21,-145.7 1227.73,-153.17 1230.75,-146.85"/>
</a>
</g>
</g>
<!-- Node24 -->
<g id="Node000024" class="node">
<title>Node24</title>
<g id="a_Node000024"><a xlink:title=" ">
<polygon fill="#e0e0e0" stroke="#999999" points="1308,-145.5 1248,-145.5 1248,-126.5 1308,-126.5 1308,-145.5"/>
<text text-anchor="middle" x="1278" y="-133.5" font-family="Helvetica,sans-Serif" font-size="10.00">iostream</text>
</a>
</g>
</g>
<!-- Node20&#45;&gt;Node24 -->
<g id="edge41_Node000020_Node000024" class="edge">
<title>Node20&#45;&gt;Node24</title>
<g id="a_edge41_Node000020_Node000024"><a xlink:title=" ">
<path fill="none" stroke="#63b8ff" d="M1328.18,-192.37C1319.15,-182.4 1304.09,-165.79 1292.83,-153.36"/>
<polygon fill="#63b8ff" stroke="#63b8ff" points="1295.38,-150.96 1286.07,-145.91 1290.19,-155.67 1295.38,-150.96"/>
</a>
</g>
</g>
<!-- Node25 -->
<g id="Node000025" class="node">
<title>Node25</title>
<g id="a_Node000025"><a xlink:title=" ">
<polygon fill="#e0e0e0" stroke="#999999" points="1420,-145.5 1364,-145.5 1364,-126.5 1420,-126.5 1420,-145.5"/>
<text text-anchor="middle" x="1392" y="-133.5" font-family="Helvetica,sans-Serif" font-size="10.00">sstream</text>
</a>
</g>
</g>
<!-- Node20&#45;&gt;Node25 -->
<g id="edge42_Node000020_Node000025" class="edge">
<title>Node20&#45;&gt;Node25</title>
<g id="a_edge42_Node000020_Node000025"><a xlink:title=" ">
<path fill="none" stroke="#63b8ff" d="M1343.55,-192.37C1352.19,-182.5 1366.53,-166.11 1377.37,-153.72"/>
<polygon fill="#63b8ff" stroke="#63b8ff" points="1380.26,-155.74 1384.21,-145.91 1374.99,-151.13 1380.26,-155.74"/>
</a>
</g>
</g>
<!-- Node26 -->
<g id="Node000026" class="node">
<title>Node26</title>
<g id="a_Node000026"><a xlink:title=" ">
<polygon fill="#e0e0e0" stroke="#999999" points="1483.5,-145.5 1438.5,-145.5 1438.5,-126.5 1483.5,-126.5 1483.5,-145.5"/>
<text text-anchor="middle" x="1461" y="-133.5" font-family="Helvetica,sans-Serif" font-size="10.00">utility</text>
</a>
</g>
</g>
<!-- Node20&#45;&gt;Node26 -->
<g id="edge46_Node000020_Node000026" class="edge">
<title>Node20&#45;&gt;Node26</title>
<g id="a_edge46_Node000020_Node000026"><a xlink:title=" ">
<path fill="none" stroke="#63b8ff" d="M1352.86,-192.37C1373.92,-181.59 1410.18,-163.02 1434.86,-150.38"/>
<polygon fill="#63b8ff" stroke="#63b8ff" points="1436.7,-153.37 1444.01,-145.7 1433.51,-147.14 1436.7,-153.37"/>
</a>
</g>
</g>
<!-- Node27 -->
<g id="Node000027" class="node">
<title>Node27</title>
<g id="a_Node000027"><a xlink:href="platform_8hpp.html" target="_top" xlink:title=" ">
<polygon fill="white" stroke="#666666" points="1952,-145.5 1810,-145.5 1810,-126.5 1952,-126.5 1952,-145.5"/>
<text text-anchor="middle" x="1881" y="-133.5" font-family="Helvetica,sans-Serif" font-size="10.00">unilink/base/platform.hpp</text>
</a>
</g>
</g>
<!-- Node20&#45;&gt;Node27 -->
<g id="edge49_Node000020_Node000027" class="edge">
<title>Node20&#45;&gt;Node27</title>
<g id="a_edge49_Node000020_Node000027"><a xlink:title=" ">
<path fill="none" stroke="#63b8ff" d="M1407.86,-194.42C1498.51,-185.84 1659.1,-169.7 1796,-151 1804.41,-149.85 1813.28,-148.52 1821.98,-147.15"/>
<polygon fill="#63b8ff" stroke="#63b8ff" points="1822.76,-150.57 1832.08,-145.53 1821.65,-143.66 1822.76,-150.57"/>
</a>
</g>
</g>
<!-- Node28 -->
<g id="Node000028" class="node">
<title>Node28</title>
<g id="a_Node000028"><a xlink:href="logger_8hpp.html" target="_top" xlink:title=" ">
<polygon fill="white" stroke="#666666" points="1716,-151 1608,-151 1608,-121 1716,-121 1716,-151"/>
<text text-anchor="start" x="1616" y="-139" font-family="Helvetica,sans-Serif" font-size="10.00">unilink/diagnostics</text>
<text text-anchor="middle" x="1662" y="-128" font-family="Helvetica,sans-Serif" font-size="10.00">/logger.hpp</text>
</a>
</g>
</g>
<!-- Node20&#45;&gt;Node28 -->
<g id="edge52_Node000020_Node000028" class="edge">
<title>Node20&#45;&gt;Node28</title>
<g id="a_edge52_Node000020_Node000028"><a xlink:title=" ">
<path fill="none" stroke="#63b8ff" d="M1379.63,-192.44C1435.62,-181.44 1533.22,-162.28 1597.72,-149.62"/>
<polygon fill="#63b8ff" stroke="#63b8ff" points="1598.64,-153.01 1607.78,-147.64 1597.29,-146.14 1598.64,-153.01"/>
</a>
</g>
</g>
<!-- Node27&#45;&gt;Node6 -->
<g id="edge50_Node000027_Node000006" class="edge">
<title>Node27&#45;&gt;Node6</title>
<g id="a_edge50_Node000027_Node000006"><a xlink:title=" ">
<path fill="none" stroke="#63b8ff" d="M1896.91,-126.37C1916.71,-115.63 1950.73,-97.18 1974.01,-84.55"/>
<polygon fill="#63b8ff" stroke="#63b8ff" points="1975.84,-87.54 1982.96,-79.7 1972.5,-81.39 1975.84,-87.54"/>
</a>
</g>
</g>
<!-- Node27&#45;&gt;Node12 -->
<g id="edge51_Node000027_Node000012" class="edge">
<title>Node27&#45;&gt;Node12</title>
<g id="a_edge51_Node000027_Node000012"><a xlink:title=" ">
<path fill="none" stroke="#63b8ff" d="M1846.47,-126.44C1800.13,-114.94 1717.78,-94.51 1667.03,-81.92"/>
<polygon fill="#63b8ff" stroke="#63b8ff" points="1667.87,-78.52 1657.32,-79.51 1666.19,-85.32 1667.87,-78.52"/>
</a>
</g>
</g>
<!-- Node28&#45;&gt;Node2 -->
<g id="edge54_Node000028_Node000002" class="edge">
<title>Node28&#45;&gt;Node2</title>
<g id="a_edge54_Node000028_Node000002"><a xlink:title=" ">
<path fill="none" stroke="#63b8ff" d="M1678.42,-120.8C1690.19,-110.62 1706.02,-96.93 1718.1,-86.48"/>
<polygon fill="#63b8ff" stroke="#63b8ff" points="1720.5,-89.03 1725.77,-79.84 1715.92,-83.74 1720.5,-89.03"/>
</a>
</g>
</g>
<!-- Node28&#45;&gt;Node3 -->
<g id="edge55_Node000028_Node000003" class="edge">
<title>Node28&#45;&gt;Node3</title>
<g id="a_edge55_Node000028_Node000003"><a xlink:title=" ">
<path fill="none" stroke="#63b8ff" d="M1607.86,-126.5C1592.73,-124.4 1576.25,-122.36 1561,-121 1161.37,-85.41 1057.93,-127.68 659,-85 646.73,-83.69 633.51,-81.64 621.41,-79.51"/>
<polygon fill="#63b8ff" stroke="#63b8ff" points="622.02,-76.06 611.56,-77.71 620.77,-82.95 622.02,-76.06"/>
</a>
</g>
</g>
<!-- Node28&#45;&gt;Node5 -->
<g id="edge56_Node000028_Node000005" class="edge">
<title>Node28&#45;&gt;Node5</title>
<g id="a_edge56_Node000028_Node000005"><a xlink:title=" ">
<path fill="none" stroke="#63b8ff" d="M1607.86,-126.45C1592.73,-124.35 1576.26,-122.32 1561,-121 1334.15,-101.34 760.42,-128.91 537,-85 534.15,-84.44 531.24,-83.7 528.35,-82.85"/>
<polygon fill="#63b8ff" stroke="#63b8ff" points="529.37,-79.5 518.77,-79.63 527.14,-86.13 529.37,-79.5"/>
</a>
</g>
</g>
<!-- Node28&#45;&gt;Node6 -->
<g id="edge58_Node000028_Node000006" class="edge">
<title>Node28&#45;&gt;Node6</title>
<g id="a_edge58_Node000028_Node000006"><a xlink:title=" ">
<path fill="none" stroke="#63b8ff" d="M1716.14,-124.72C1787.08,-111.25 1909.22,-88.05 1966.97,-77.08"/>
<polygon fill="#63b8ff" stroke="#63b8ff" points="1967.8,-80.49 1976.98,-75.18 1966.5,-73.61 1967.8,-80.49"/>
</a>
</g>
</g>
<!-- Node28&#45;&gt;Node7 -->
<g id="edge59_Node000028_Node000007" class="edge">
<title>Node28&#45;&gt;Node7</title>
<g id="a_edge59_Node000028_Node000007"><a xlink:title=" ">
<path fill="none" stroke="#63b8ff" d="M1607.88,-123.47C1603.19,-122.59 1598.52,-121.75 1594,-121 1471.1,-100.48 1325.13,-83.75 1251.87,-75.87"/>
<polygon fill="#63b8ff" stroke="#63b8ff" points="1251.92,-72.36 1241.6,-74.78 1251.18,-79.32 1251.92,-72.36"/>
</a>
</g>
</g>
<!-- Node28&#45;&gt;Node8 -->
<g id="edge60_Node000028_Node000008" class="edge">
<title>Node28&#45;&gt;Node8</title>
<g id="a_edge60_Node000028_Node000008"><a xlink:title=" ">
<path fill="none" stroke="#63b8ff" d="M1607.82,-126.92C1592.69,-124.82 1576.22,-122.68 1561,-121 1343.14,-96.95 1080.1,-79.06 987.9,-73.13"/>
<polygon fill="#63b8ff" stroke="#63b8ff" points="987.97,-69.63 977.76,-72.48 987.52,-76.61 987.97,-69.63"/>
</a>
</g>
</g>
<!-- Node28&#45;&gt;Node12 -->
<g id="edge61_Node000028_Node000012" class="edge">
<title>Node28&#45;&gt;Node12</title>
<g id="a_edge61_Node000028_Node000012"><a xlink:title=" ">
<path fill="none" stroke="#63b8ff" d="M1653.34,-120.8C1647.56,-111.31 1639.92,-98.76 1633.74,-88.63"/>
<polygon fill="#63b8ff" stroke="#63b8ff" points="1636.58,-86.56 1628.39,-79.84 1630.6,-90.21 1636.58,-86.56"/>
</a>
</g>
</g>
<!-- Node29 -->
<g id="Node000029" class="node">
<title>Node29</title>
<g id="a_Node000029"><a xlink:title=" ">
<polygon fill="#e0e0e0" stroke="#999999" points="1535,-79.5 1485,-79.5 1485,-60.5 1535,-60.5 1535,-79.5"/>
<text text-anchor="middle" x="1510" y="-67.5" font-family="Helvetica,sans-Serif" font-size="10.00">atomic</text>
</a>
</g>
</g>
<!-- Node28&#45;&gt;Node29 -->
<g id="edge53_Node000028_Node000029" class="edge">
<title>Node28&#45;&gt;Node29</title>
<g id="a_edge53_Node000028_Node000029"><a xlink:title=" ">
<path fill="none" stroke="#63b8ff" d="M1628.64,-120.95C1602.1,-109.78 1565.31,-94.29 1539.76,-83.53"/>
<polygon fill="#63b8ff" stroke="#63b8ff" points="1540.8,-80.17 1530.23,-79.52 1538.09,-86.62 1540.8,-80.17"/>
</a>
</g>
</g>
<!-- Node30 -->
<g id="Node000030" class="node">
<title>Node30</title>
<g id="a_Node000030"><a xlink:title=" ">
<polygon fill="#e0e0e0" stroke="#999999" points="1466.5,-79.5 1373.5,-79.5 1373.5,-60.5 1466.5,-60.5 1466.5,-79.5"/>
<text text-anchor="middle" x="1420" y="-67.5" font-family="Helvetica,sans-Serif" font-size="10.00">source_location</text>
</a>
</g>
</g>
<!-- Node28&#45;&gt;Node30 -->
<g id="edge57_Node000028_Node000030" class="edge">
<title>Node28&#45;&gt;Node30</title>
<g id="a_edge57_Node000028_Node000030"><a xlink:title=" ">
<path fill="none" stroke="#63b8ff" d="M1608.89,-120.95C1564.77,-109.29 1502.84,-92.91 1462.09,-82.13"/>
<polygon fill="#63b8ff" stroke="#63b8ff" points="1462.77,-78.69 1452.21,-79.52 1460.98,-85.46 1462.77,-78.69"/>
</a>
</g>
</g>
<!-- Node31&#45;&gt;Node6 -->
<g id="edge63_Node000031_Node000006" class="edge">
<title>Node31&#45;&gt;Node6</title>
<g id="a_edge63_Node000031_Node000006"><a xlink:title=" ">
<path fill="none" stroke="#63b8ff" d="M1740.27,-200.04C1818.2,-197.4 1960.93,-187.56 1994,-151 2008.84,-134.59 2007.18,-107.7 2003.78,-89.69"/>
<polygon fill="#63b8ff" stroke="#63b8ff" points="2007.17,-88.79 2001.58,-79.78 2000.34,-90.31 2007.17,-88.79"/>
</a>
</g>
</g>
<!-- Node32&#45;&gt;Node3 -->
<g id="edge66_Node000032_Node000003" class="edge">
<title>Node32&#45;&gt;Node3</title>
<g id="a_edge66_Node000032_Node000003"><a xlink:title=" ">
<path fill="none" stroke="#63b8ff" d="M755.04,-120.94C718.82,-111.07 669.4,-97.46 626,-85 623.07,-84.16 620.03,-83.28 616.99,-82.39"/>
<polygon fill="#63b8ff" stroke="#63b8ff" points="617.89,-79 607.31,-79.53 615.91,-85.72 617.89,-79"/>
</a>
</g>
</g>
<!-- Node32&#45;&gt;Node5 -->
<g id="edge67_Node000032_Node000005" class="edge">
<title>Node32&#45;&gt;Node5</title>
<g id="a_edge67_Node000032_Node000005"><a xlink:title=" ">
<path fill="none" stroke="#63b8ff" d="M747.89,-127.01C692.74,-118.86 608.48,-104.63 537,-85 534.71,-84.37 532.37,-83.67 530.02,-82.91"/>
<polygon fill="#63b8ff" stroke="#63b8ff" points="531.09,-79.58 520.5,-79.64 528.82,-86.2 531.09,-79.58"/>
</a>
</g>
</g>
<!-- Node32&#45;&gt;Node6 -->
<g id="edge69_Node000032_Node000006" class="edge">
<title>Node32&#45;&gt;Node6</title>
<g id="a_edge69_Node000032_Node000006"><a xlink:title=" ">
<path fill="none" stroke="#63b8ff" d="M866.18,-132.12C1016.95,-124.73 1427.77,-104.35 1770,-85 1840.17,-81.03 1922.4,-75.88 1966.73,-73.07"/>
<polygon fill="#63b8ff" stroke="#63b8ff" points="1967.14,-76.55 1976.9,-72.42 1966.7,-69.56 1967.14,-76.55"/>
</a>
</g>
</g>
<!-- Node32&#45;&gt;Node7 -->
<g id="edge70_Node000032_Node000007" class="edge">
<title>Node32&#45;&gt;Node7</title>
<g id="a_edge70_Node000032_Node000007"><a xlink:title=" ">
<path fill="none" stroke="#63b8ff" d="M866.15,-125.49C945.72,-112.69 1085.59,-90.2 1158.24,-78.52"/>
<polygon fill="#63b8ff" stroke="#63b8ff" points="1159.14,-81.92 1168.46,-76.88 1158.03,-75.01 1159.14,-81.92"/>
</a>
</g>
</g>
<!-- Node32&#45;&gt;Node8 -->
<g id="edge72_Node000032_Node000008" class="edge">
<title>Node32&#45;&gt;Node8</title>
<g id="a_edge72_Node000032_Node000008"><a xlink:title=" ">
<path fill="none" stroke="#63b8ff" d="M839.26,-120.95C864.93,-109.78 900.51,-94.29 925.22,-83.53"/>
<polygon fill="#63b8ff" stroke="#63b8ff" points="926.67,-86.72 934.44,-79.52 923.87,-80.3 926.67,-86.72"/>
</a>
</g>
</g>
<!-- Node32&#45;&gt;Node11 -->
<g id="edge65_Node000032_Node000011" class="edge">
<title>Node32&#45;&gt;Node11</title>
<g id="a_edge65_Node000032_Node000011"><a xlink:title=" ">
<path fill="none" stroke="#63b8ff" d="M751.44,-120.96C722.88,-112.58 688.06,-100.53 659,-85 639.71,-74.69 639.69,-64.52 620,-55 573.54,-32.54 514.6,-20.68 477.58,-15.01"/>
<polygon fill="#63b8ff" stroke="#63b8ff" points="477.69,-11.49 467.29,-13.5 476.68,-18.41 477.69,-11.49"/>
</a>
</g>
</g>
<!-- Node32&#45;&gt;Node12 -->
<g id="edge73_Node000032_Node000012" class="edge">
<title>Node32&#45;&gt;Node12</title>
<g id="a_edge73_Node000032_Node000012"><a xlink:title=" ">
<path fill="none" stroke="#63b8ff" d="M866.18,-131.81C1017,-123.55 1413.12,-100.99 1544,-85 1552.35,-83.98 1561.15,-82.66 1569.73,-81.24"/>
<polygon fill="#63b8ff" stroke="#63b8ff" points="1570.4,-84.68 1579.66,-79.55 1569.22,-77.78 1570.4,-84.68"/>
</a>
</g>
</g>
<!-- Node32&#45;&gt;Node15 -->
<g id="edge74_Node000032_Node000015" class="edge">
<title>Node32&#45;&gt;Node15</title>
<g id="a_edge74_Node000032_Node000015"><a xlink:title=" ">
<path fill="none" stroke="#63b8ff" d="M789.25,-120.8C778.47,-112.18 764.55,-101.04 752.6,-91.48"/>
<polygon fill="#63b8ff" stroke="#63b8ff" points="754.7,-88.68 744.7,-85.16 750.33,-94.14 754.7,-88.68"/>
</a>
</g>
</g>
<!-- Node32&#45;&gt;Node17 -->
<g id="edge68_Node000032_Node000017" class="edge">
<title>Node32&#45;&gt;Node17</title>
<g id="a_edge68_Node000032_Node000017"><a xlink:title=" ">
<path fill="none" stroke="#63b8ff" d="M838.86,-120.93C854.32,-112.58 871.91,-100.56 883,-85 894.72,-68.56 899.22,-45.53 900.95,-29.45"/>
<polygon fill="#63b8ff" stroke="#63b8ff" points="904.46,-29.4 901.77,-19.15 897.48,-28.84 904.46,-29.4"/>
</a>
</g>
</g>
<!-- Node33 -->
<g id="Node000033" class="node">
<title>Node33</title>
<g id="a_Node000033"><a xlink:title=" ">
<polygon fill="#e0e0e0" stroke="#999999" points="873.5,-79.5 804.5,-79.5 804.5,-60.5 873.5,-60.5 873.5,-79.5"/>
<text text-anchor="middle" x="839" y="-67.5" font-family="Helvetica,sans-Serif" font-size="10.00">type_traits</text>
</a>
</g>
</g>
<!-- Node32&#45;&gt;Node33 -->
<g id="edge71_Node000032_Node000033" class="edge">
<title>Node32&#45;&gt;Node33</title>
<g id="a_edge71_Node000032_Node000033"><a xlink:title=" ">
<path fill="none" stroke="#63b8ff" d="M814.1,-120.8C818.8,-111.41 824.99,-99.02 830.03,-88.95"/>
<polygon fill="#63b8ff" stroke="#63b8ff" points="833.24,-90.35 834.58,-79.84 826.98,-87.22 833.24,-90.35"/>
</a>
</g>
</g>
<!-- Node34&#45;&gt;Node10 -->
<g id="edge77_Node000034_Node000010" class="edge">
<title>Node34&#45;&gt;Node10</title>
<g id="a_edge77_Node000034_Node000010"><a xlink:title=" ">
<path fill="none" stroke="#63b8ff" d="M96.19,-120.95C119.1,-109.93 150.75,-94.7 173.07,-83.96"/>
<polygon fill="#63b8ff" stroke="#63b8ff" points="174.81,-87.01 182.3,-79.52 171.77,-80.7 174.81,-87.01"/>
</a>
</g>
</g>
<!-- Node34&#45;&gt;Node11 -->
<g id="edge78_Node000034_Node000011" class="edge">
<title>Node34&#45;&gt;Node11</title>
<g id="a_edge78_Node000034_Node000011"><a xlink:title=" ">
<path fill="none" stroke="#63b8ff" d="M79.53,-120.76C96.64,-102.33 129.19,-70.72 164,-55 245.44,-18.22 352.33,-11.28 406.79,-10.31"/>
<polygon fill="#63b8ff" stroke="#63b8ff" points="407.01,-13.81 416.97,-10.19 406.92,-6.81 407.01,-13.81"/>
</a>
</g>
</g>
</g>
</svg>
