<?xml version="1.0" encoding="UTF-8" standalone="no"?>
<!DOCTYPE svg PUBLIC "-//W3C//DTD SVG 1.1//EN"
 "http://www.w3.org/Graphics/SVG/1.1/DTD/svg11.dtd">
<!-- Generated by graphviz version 2.43.0 (0)
 -->
<!-- Title: unilink/wrapper/uds_server/uds_server.hpp Pages: 1 -->
<!--zoomable 401 -->

<svg id="main" version="1.1" xmlns="http://www.w3.org/2000/svg" xmlns:xlink="http://www.w3.org/1999/xlink" xml:space="preserve" onload="init(evt)">
<style type="text/css"><![CDATA[
.node, .edge {opacity: 0.7;}
.node.selected, .edge.selected {opacity: 1;}
.edge:hover path { stroke: red; }
.edge:hover polygon { stroke: red; fill: red; }
]]></style>

<defs>
  <circle id="rim" cx="0" cy="0" r="7"/>
  <circle id="rim2" cx="0" cy="0" r="3.5"/>
  <g id="zoomPlus">
    <use xlink:href="#rim" fill="#404040"><set attributeName="fill" to="#808080" begin="zoomplus.mouseover" end="zoomplus.mouseout"/></use>
    <path d="M-4,0h8M0,-4v8" fill="none" stroke="white" stroke-width="1.5" pointer-events="none"/>
  </g>
  <g id="zoomMin">
    <use xlink:href="#rim" fill="#404040"><set attributeName="fill" to="#808080" begin="zoomminus.mouseover" end="zoomminus.mouseout"/></use>
    <path d="M-4,0h8" fill="none" stroke="white" stroke-width="1.5" pointer-events="none"/>
  </g>
  <g id="arrowUp" transform="translate(30 24)">
    <use xlink:href="#rim"/>
    <path pointer-events="none" fill="none" stroke="white" stroke-width="1.5" d="M0,-3.0v7 M-2.5,-0.5L0,-3.0L2.5,-0.5"/>
  </g>
  <g id="arrowRight" transform="rotate(90) translate(36 -43)">
    <use xlink:href="#rim"/>
    <path pointer-events="none" fill="none" stroke="white" stroke-width="1.5" d="M0,-3.0v7 M-2.5,-0.5L0,-3.0L2.5,-0.5"/>
  </g>
  <g id="arrowDown" transform="rotate(180) translate(-30 -48)">
    <use xlink:href="#rim"/>
    <path pointer-events="none" fill="none" stroke="white" stroke-width="1.5" d="M0,-3.0v7 M-2.5,-0.5L0,-3.0L2.5,-0.5"/>
  </g>
  <g id="arrowLeft" transform="rotate(270) translate(-36 17)">
    <use xlink:href="#rim"/>
    <path pointer-events="none" fill="none" stroke="white" stroke-width="1.5" d="M0,-3.0v7 M-2.5,-0.5L0,-3.0L2.5,-0.5"/>
  </g>
  <g id="resetDef">
    <use xlink:href="#rim2" fill="#404040"><set attributeName="fill" to="#808080" begin="reset.mouseover" end="reset.mouseout"/></use>
  </g>
</defs>
<script type="application/ecmascript">
var viewWidth = 2064;
var viewHeight = 401;
var sectionId = 'dynsection-0';
</script>
<script type="application/ecmascript" xlink:href="svg.min.js"/>
<svg id="graph" class="graph">
<g id="viewport">
<title>unilink/wrapper/uds_server/uds_server.hpp</title>
<!-- Node1 -->
<g id="Node000001" class="node">
<title>Node1</title>
<g id="a_Node000001"><a xlink:title=" ">
<polygon fill="#999999" stroke="#666666" points="519.5,-393 390.5,-393 390.5,-363 519.5,-363 519.5,-393"/>
<text text-anchor="start" x="398.5" y="-381" font-family="Helvetica,sans-Serif" font-size="10.00">unilink/wrapper/uds</text>
<text text-anchor="middle" x="455" y="-370" font-family="Helvetica,sans-Serif" font-size="10.00">_server/uds_server.hpp</text>
</a>
</g>
</g>
<!-- Node2 -->
<g id="Node000002" class="node">
<title>Node2</title>
<g id="a_Node000002"><a xlink:title=" ">
<polygon fill="#e0e0e0" stroke="#999999" points="253,-79.5 203,-79.5 203,-60.5 253,-60.5 253,-79.5"/>
<text text-anchor="middle" x="228" y="-67.5" font-family="Helvetica,sans-Serif" font-size="10.00">chrono</text>
</a>
</g>
</g>
<!-- Node1&#45;&gt;Node2 -->
<g id="edge1_Node000001_Node000002" class="edge">
<title>Node1&#45;&gt;Node2</title>
<g id="a_edge1_Node000001_Node000002"><a xlink:title=" ">
<path fill="none" stroke="#63b8ff" d="M390.46,-368.91C291.6,-354.7 114,-321.14 114,-263.5 114,-263.5 114,-263.5 114,-201 114,-147.49 169.26,-105.48 202.84,-84.89"/>
<polygon fill="#63b8ff" stroke="#63b8ff" points="204.85,-87.76 211.67,-79.66 201.28,-81.74 204.85,-87.76"/>
</a>
</g>
</g>
<!-- Node3 -->
<g id="Node000003" class="node">
<title>Node3</title>
<g id="a_Node000003"><a xlink:title=" ">
<polygon fill="#e0e0e0" stroke="#999999" points="904.5,-79.5 839.5,-79.5 839.5,-60.5 904.5,-60.5 904.5,-79.5"/>
<text text-anchor="middle" x="872" y="-67.5" font-family="Helvetica,sans-Serif" font-size="10.00">functional</text>
</a>
</g>
</g>
<!-- Node1&#45;&gt;Node3 -->
<g id="edge2_Node000001_Node000003" class="edge">
<title>Node1&#45;&gt;Node3</title>
<g id="a_edge2_Node000001_Node000003"><a xlink:title=" ">
<path fill="none" stroke="#63b8ff" d="M466.07,-362.87C481.07,-342.25 506,-302.17 506,-263.5 506,-263.5 506,-263.5 506,-201 506,-157.34 525.62,-143.55 563,-121 665.52,-59.14 713.36,-112.05 830,-85 832.97,-84.31 836.04,-83.5 839.09,-82.62"/>
<polygon fill="#63b8ff" stroke="#63b8ff" points="840.16,-85.95 848.68,-79.64 838.09,-79.26 840.16,-85.95"/>
</a>
</g>
</g>
<!-- Node4 -->
<g id="Node000004" class="node">
<title>Node4</title>
<g id="a_Node000004"><a xlink:title=" ">
<polygon fill="#e0e0e0" stroke="#999999" points="264,-272 218,-272 218,-253 264,-253 264,-272"/>
<text text-anchor="middle" x="241" y="-260" font-family="Helvetica,sans-Serif" font-size="10.00">future</text>
</a>
</g>
</g>
<!-- Node1&#45;&gt;Node4 -->
<g id="edge3_Node000001_Node000004" class="edge">
<title>Node1&#45;&gt;Node4</title>
<g id="a_edge3_Node000001_Node000004"><a xlink:title=" ">
<path fill="none" stroke="#63b8ff" d="M406.25,-362.9C380.09,-354.34 347.81,-342.14 321,-327 297.29,-313.61 273.24,-293.44 257.79,-279.43"/>
<polygon fill="#63b8ff" stroke="#63b8ff" points="259.86,-276.59 250.14,-272.37 255.11,-281.73 259.86,-276.59"/>
</a>
</g>
</g>
<!-- Node5 -->
<g id="Node000005" class="node">
<title>Node5</title>
<g id="a_Node000005"><a xlink:title=" ">
<polygon fill="#e0e0e0" stroke="#999999" points="396,-79.5 338,-79.5 338,-60.5 396,-60.5 396,-79.5"/>
<text text-anchor="middle" x="367" y="-67.5" font-family="Helvetica,sans-Serif" font-size="10.00">memory</text>
</a>
</g>
</g>
<!-- Node1&#45;&gt;Node5 -->
<g id="edge4_Node000001_Node000005" class="edge">
<title>Node1&#45;&gt;Node5</title>
<g id="a_edge4_Node000001_Node000005"><a xlink:title=" ">
<path fill="none" stroke="#63b8ff" d="M390.17,-376.29C311.72,-371.6 190,-350.34 190,-263.5 190,-263.5 190,-263.5 190,-201 190,-132.94 276.05,-96.59 328.15,-80.82"/>
<polygon fill="#63b8ff" stroke="#63b8ff" points="329.15,-84.17 337.77,-78.02 327.19,-77.45 329.15,-84.17"/>
</a>
</g>
</g>
<!-- Node6 -->
<g id="Node000006" class="node">
<title>Node6</title>
<g id="a_Node000006"><a xlink:title=" ">
<polygon fill="#e0e0e0" stroke="#999999" points="1560,-79.5 1516,-79.5 1516,-60.5 1560,-60.5 1560,-79.5"/>
<text text-anchor="middle" x="1538" y="-67.5" font-family="Helvetica,sans-Serif" font-size="10.00">string</text>
</a>
</g>
</g>
<!-- Node1&#45;&gt;Node6 -->
<g id="edge5_Node000001_Node000006" class="edge">
<title>Node1&#45;&gt;Node6</title>
<g id="a_edge5_Node000001_Node000006"><a xlink:title=" ">
<path fill="none" stroke="#63b8ff" d="M519.51,-377.53C653.38,-377.62 970.65,-372.49 1232,-327 1319.03,-311.85 1342.71,-308.83 1423,-272 1494.75,-239.09 1529.35,-226.3 1553,-151 1559.53,-130.21 1552.75,-105.44 1546.32,-89.02"/>
<polygon fill="#63b8ff" stroke="#63b8ff" points="1549.44,-87.4 1542.3,-79.57 1543,-90.14 1549.44,-87.4"/>
</a>
</g>
</g>
<!-- Node7 -->
<g id="Node000007" class="node">
<title>Node7</title>
<g id="a_Node000007"><a xlink:title=" ">
<polygon fill="#e0e0e0" stroke="#999999" points="1835.5,-79.5 1762.5,-79.5 1762.5,-60.5 1835.5,-60.5 1835.5,-79.5"/>
<text text-anchor="middle" x="1799" y="-67.5" font-family="Helvetica,sans-Serif" font-size="10.00">string_view</text>
</a>
</g>
</g>
<!-- Node1&#45;&gt;Node7 -->
<g id="edge6_Node000001_Node000007" class="edge">
<title>Node1&#45;&gt;Node7</title>
<g id="a_edge6_Node000001_Node000007"><a xlink:title=" ">
<path fill="none" stroke="#63b8ff" d="M519.93,-375.28C798.7,-367.46 1880,-332.68 1880,-263.5 1880,-263.5 1880,-263.5 1880,-201 1880,-153.46 1840.49,-108.91 1816.66,-86.37"/>
<polygon fill="#63b8ff" stroke="#63b8ff" points="1819,-83.76 1809.26,-79.59 1814.27,-88.93 1819,-83.76"/>
</a>
</g>
</g>
<!-- Node8 -->
<g id="Node000008" class="node">
<title>Node8</title>
<g id="a_Node000008"><a xlink:title=" ">
<polygon fill="#e0e0e0" stroke="#999999" points="175.5,-79.5 128.5,-79.5 128.5,-60.5 175.5,-60.5 175.5,-79.5"/>
<text text-anchor="middle" x="152" y="-67.5" font-family="Helvetica,sans-Serif" font-size="10.00">vector</text>
</a>
</g>
</g>
<!-- Node1&#45;&gt;Node8 -->
<g id="edge7_Node000001_Node000008" class="edge">
<title>Node1&#45;&gt;Node8</title>
<g id="a_edge7_Node000001_Node000008"><a xlink:title=" ">
<path fill="none" stroke="#63b8ff" d="M390.29,-374.29C264.68,-367.25 0,-342.98 0,-263.5 0,-263.5 0,-263.5 0,-201 0,-139.02 73.9,-100.27 118.64,-82.49"/>
<polygon fill="#63b8ff" stroke="#63b8ff" points="120.16,-85.65 128.25,-78.81 117.66,-79.12 120.16,-85.65"/>
</a>
</g>
</g>
<!-- Node9 -->
<g id="Node000009" class="node">
<title>Node9</title>
<g id="a_Node000009"><a xlink:href="constants_8hpp.html" target="_top" xlink:title=" ">
<polygon fill="white" stroke="#666666" points="2055.5,-327 1908.5,-327 1908.5,-308 2055.5,-308 2055.5,-327"/>
<text text-anchor="middle" x="1982" y="-315" font-family="Helvetica,sans-Serif" font-size="10.00">unilink/base/constants.hpp</text>
</a>
</g>
</g>
<!-- Node1&#45;&gt;Node9 -->
<g id="edge8_Node000001_Node000009" class="edge">
<title>Node1&#45;&gt;Node9</title>
<g id="a_edge8_Node000001_Node000009"><a xlink:title=" ">
<path fill="none" stroke="#63b8ff" d="M519.61,-376.17C722.35,-373.27 1363.94,-361.78 1894,-327 1895.29,-326.92 1896.59,-326.83 1897.91,-326.74"/>
<polygon fill="#63b8ff" stroke="#63b8ff" points="1898.37,-330.21 1908.09,-325.97 1897.85,-323.23 1898.37,-330.21"/>
</a>
</g>
</g>
<!-- Node12 -->
<g id="Node000012" class="node">
<title>Node12</title>
<g id="a_Node000012"><a xlink:href="visibility_8hpp.html" target="_top" xlink:title=" ">
<polygon fill="white" stroke="#666666" points="1498,-79.5 1358,-79.5 1358,-60.5 1498,-60.5 1498,-79.5"/>
<text text-anchor="middle" x="1428" y="-67.5" font-family="Helvetica,sans-Serif" font-size="10.00">unilink/base/visibility.hpp</text>
</a>
</g>
</g>
<!-- Node1&#45;&gt;Node12 -->
<g id="edge11_Node000001_Node000012" class="edge">
<title>Node1&#45;&gt;Node12</title>
<g id="a_edge11_Node000001_Node000012"><a xlink:title=" ">
<path fill="none" stroke="#63b8ff" d="M519.75,-376.58C723.77,-373.84 1347.68,-354.19 1483,-217 1513.38,-186.2 1518.92,-159.39 1499,-121 1490.49,-104.6 1473.85,-92.44 1458.82,-84.22"/>
<polygon fill="#63b8ff" stroke="#63b8ff" points="1460.26,-81.03 1449.76,-79.61 1457.09,-87.27 1460.26,-81.03"/>
</a>
</g>
</g>
<!-- Node13 -->
<g id="Node000013" class="node">
<title>Node13</title>
<g id="a_Node000013"><a xlink:href="iserver_8hpp.html" target="_top" xlink:title=" ">
<polygon fill="white" stroke="#666666" points="478.5,-327 329.5,-327 329.5,-308 478.5,-308 478.5,-327"/>
<text text-anchor="middle" x="404" y="-315" font-family="Helvetica,sans-Serif" font-size="10.00">unilink/wrapper/iserver.hpp</text>
</a>
</g>
</g>
<!-- Node1&#45;&gt;Node13 -->
<g id="edge12_Node000001_Node000013" class="edge">
<title>Node1&#45;&gt;Node13</title>
<g id="a_edge12_Node000001_Node000013"><a xlink:title=" ">
<path fill="none" stroke="#63b8ff" d="M442.65,-362.84C435.33,-354.43 426,-343.74 418.35,-334.96"/>
<polygon fill="#63b8ff" stroke="#63b8ff" points="420.85,-332.5 411.64,-327.27 415.58,-337.1 420.85,-332.5"/>
</a>
</g>
</g>
<!-- Node10 -->
<g id="Node000010" class="node">
<title>Node10</title>
<g id="a_Node000010"><a xlink:title=" ">
<polygon fill="#e0e0e0" stroke="#999999" points="1961.5,-272 1908.5,-272 1908.5,-253 1961.5,-253 1961.5,-272"/>
<text text-anchor="middle" x="1935" y="-260" font-family="Helvetica,sans-Serif" font-size="10.00">cstddef</text>
</a>
</g>
</g>
<!-- Node9&#45;&gt;Node10 -->
<g id="edge9_Node000009_Node000010" class="edge">
<title>Node9&#45;&gt;Node10</title>
<g id="a_edge9_Node000009_Node000010"><a xlink:title=" ">
<path fill="none" stroke="#63b8ff" d="M1974.24,-307.75C1967.53,-300.18 1957.66,-289.05 1949.49,-279.84"/>
<polygon fill="#63b8ff" stroke="#63b8ff" points="1951.87,-277.25 1942.62,-272.09 1946.63,-281.89 1951.87,-277.25"/>
</a>
</g>
</g>
<!-- Node11 -->
<g id="Node000011" class="node">
<title>Node11</title>
<g id="a_Node000011"><a xlink:title=" ">
<polygon fill="#e0e0e0" stroke="#999999" points="1510,-19 1460,-19 1460,0 1510,0 1510,-19"/>
<text text-anchor="middle" x="1485" y="-7" font-family="Helvetica,sans-Serif" font-size="10.00">cstdint</text>
</a>
</g>
</g>
<!-- Node9&#45;&gt;Node11 -->
<g id="edge10_Node000009_Node000011" class="edge">
<title>Node9&#45;&gt;Node11</title>
<g id="a_edge10_Node000009_Node000011"><a xlink:title=" ">
<path fill="none" stroke="#63b8ff" d="M1983.01,-307.97C1985.17,-289.09 1990,-242.31 1990,-203 1990,-203 1990,-203 1990,-135 1990,-38.02 1634.49,-16.13 1520.04,-11.6"/>
<polygon fill="#63b8ff" stroke="#63b8ff" points="1520.17,-8.1 1510.04,-11.23 1519.9,-15.1 1520.17,-8.1"/>
</a>
</g>
</g>
<!-- Node13&#45;&gt;Node3 -->
<g id="edge13_Node000013_Node000003" class="edge">
<title>Node13&#45;&gt;Node3</title>
<g id="a_edge13_Node000013_Node000003"><a xlink:title=" ">
<path fill="none" stroke="#63b8ff" d="M404.95,-307.57C408.84,-275.91 426.59,-168.39 492,-121 553.17,-76.68 756.19,-101.04 830,-85 833.06,-84.34 836.2,-83.53 839.33,-82.64"/>
<polygon fill="#63b8ff" stroke="#63b8ff" points="840.62,-85.91 849.14,-79.61 838.55,-79.22 840.62,-85.91"/>
</a>
</g>
</g>
<!-- Node13&#45;&gt;Node4 -->
<g id="edge14_Node000013_Node000004" class="edge">
<title>Node13&#45;&gt;Node4</title>
<g id="a_edge14_Node000013_Node000004"><a xlink:title=" ">
<path fill="none" stroke="#63b8ff" d="M377.81,-307.98C349.59,-298.81 304.63,-284.19 274.01,-274.23"/>
<polygon fill="#63b8ff" stroke="#63b8ff" points="274.81,-270.81 264.22,-271.05 272.65,-277.47 274.81,-270.81"/>
</a>
</g>
</g>
<!-- Node13&#45;&gt;Node5 -->
<g id="edge15_Node000013_Node000005" class="edge">
<title>Node13&#45;&gt;Node5</title>
<g id="a_edge15_Node000013_Node000005"><a xlink:title=" ">
<path fill="none" stroke="#63b8ff" d="M394.71,-307.97C370.79,-285.27 307.36,-220.39 285,-151 280.91,-138.31 278.47,-132.63 285,-121 294.78,-103.58 313.37,-91.51 330.38,-83.61"/>
<polygon fill="#63b8ff" stroke="#63b8ff" points="331.8,-86.8 339.6,-79.63 329.03,-80.38 331.8,-86.8"/>
</a>
</g>
</g>
<!-- Node13&#45;&gt;Node7 -->
<g id="edge16_Node000013_Node000007" class="edge">
<title>Node13&#45;&gt;Node7</title>
<g id="a_edge16_Node000013_Node000007"><a xlink:title=" ">
<path fill="none" stroke="#63b8ff" d="M478.65,-315C714.55,-309.59 1441.56,-287.46 1665,-217 1726.42,-197.63 1758.7,-204.86 1794,-151 1805.95,-132.76 1805.15,-106.88 1802.72,-89.55"/>
<polygon fill="#63b8ff" stroke="#63b8ff" points="1806.15,-88.82 1801.01,-79.55 1799.25,-90 1806.15,-88.82"/>
</a>
</g>
</g>
<!-- Node13&#45;&gt;Node8 -->
<g id="edge17_Node000013_Node000008" class="edge">
<title>Node13&#45;&gt;Node8</title>
<g id="a_edge17_Node000013_Node000008"><a xlink:title=" ">
<path fill="none" stroke="#63b8ff" d="M382.89,-307.94C336.42,-287.96 225.08,-233.59 170,-151 157.81,-132.72 153.77,-107.39 152.49,-90.17"/>
<polygon fill="#63b8ff" stroke="#63b8ff" points="155.97,-89.54 151.98,-79.72 148.97,-89.88 155.97,-89.54"/>
</a>
</g>
</g>
<!-- Node13&#45;&gt;Node12 -->
<g id="edge18_Node000013_Node000012" class="edge">
<title>Node13&#45;&gt;Node12</title>
<g id="a_edge18_Node000013_Node000012"><a xlink:title=" ">
<path fill="none" stroke="#63b8ff" d="M478.63,-314.14C706.15,-306.32 1380.18,-278.15 1456,-217 1490.32,-189.32 1498.46,-161.48 1481,-121 1474.77,-106.56 1462.09,-94.35 1450.7,-85.62"/>
<polygon fill="#63b8ff" stroke="#63b8ff" points="1452.53,-82.62 1442.37,-79.63 1448.45,-88.31 1452.53,-82.62"/>
</a>
</g>
</g>
<!-- Node14 -->
<g id="Node000014" class="node">
<title>Node14</title>
<g id="a_Node000014"><a xlink:href="iframer_8hpp.html" target="_top" xlink:title=" ">
<polygon fill="white" stroke="#666666" points="439.5,-145.5 294.5,-145.5 294.5,-126.5 439.5,-126.5 439.5,-145.5"/>
<text text-anchor="middle" x="367" y="-133.5" font-family="Helvetica,sans-Serif" font-size="10.00">unilink/framer/iframer.hpp</text>
</a>
</g>
</g>
<!-- Node13&#45;&gt;Node14 -->
<g id="edge19_Node000013_Node000014" class="edge">
<title>Node13&#45;&gt;Node14</title>
<g id="a_edge19_Node000013_Node000014"><a xlink:title=" ">
<path fill="none" stroke="#63b8ff" d="M402.22,-307.84C396.54,-280.3 378.8,-194.26 370.88,-155.84"/>
<polygon fill="#63b8ff" stroke="#63b8ff" points="374.21,-154.66 368.77,-145.57 367.36,-156.07 374.21,-154.66"/>
</a>
</g>
</g>
<!-- Node18 -->
<g id="Node000018" class="node">
<title>Node18</title>
<g id="a_Node000018"><a xlink:href="context_8hpp.html" target="_top" xlink:title=" ">
<polygon fill="white" stroke="#666666" points="1079.5,-272 926.5,-272 926.5,-253 1079.5,-253 1079.5,-272"/>
<text text-anchor="middle" x="1003" y="-260" font-family="Helvetica,sans-Serif" font-size="10.00">unilink/wrapper/context.hpp</text>
</a>
</g>
</g>
<!-- Node13&#45;&gt;Node18 -->
<g id="edge28_Node000013_Node000018" class="edge">
<title>Node13&#45;&gt;Node18</title>
<g id="a_edge28_Node000013_Node000018"><a xlink:title=" ">
<path fill="none" stroke="#63b8ff" d="M478.65,-309.89C589.88,-300.05 798.61,-281.58 916.4,-271.16"/>
<polygon fill="#63b8ff" stroke="#63b8ff" points="916.81,-274.64 926.46,-270.27 916.19,-267.67 916.81,-274.64"/>
</a>
</g>
</g>
<!-- Node14&#45;&gt;Node3 -->
<g id="edge20_Node000014_Node000003" class="edge">
<title>Node14&#45;&gt;Node3</title>
<g id="a_edge20_Node000014_Node000003"><a xlink:title=" ">
<path fill="none" stroke="#63b8ff" d="M416.61,-126.45C428.81,-124.51 441.86,-122.56 454,-121 620.51,-99.65 665.76,-119.77 830,-85 833.23,-84.32 836.57,-83.47 839.87,-82.53"/>
<polygon fill="#63b8ff" stroke="#63b8ff" points="841.08,-85.82 849.59,-79.51 839,-79.13 841.08,-85.82"/>
</a>
</g>
</g>
<!-- Node14&#45;&gt;Node5 -->
<g id="edge21_Node000014_Node000005" class="edge">
<title>Node14&#45;&gt;Node5</title>
<g id="a_edge21_Node000014_Node000005"><a xlink:title=" ">
<path fill="none" stroke="#63b8ff" d="M367,-126.37C367,-117.16 367,-102.29 367,-90.27"/>
<polygon fill="#63b8ff" stroke="#63b8ff" points="370.5,-89.91 367,-79.91 363.5,-89.91 370.5,-89.91"/>
</a>
</g>
</g>
<!-- Node14&#45;&gt;Node8 -->
<g id="edge22_Node000014_Node000008" class="edge">
<title>Node14&#45;&gt;Node8</title>
<g id="a_edge22_Node000014_Node000008"><a xlink:title=" ">
<path fill="none" stroke="#63b8ff" d="M335.95,-126.43C301.24,-116.76 243.41,-100.37 194,-85 191.25,-84.14 188.4,-83.24 185.55,-82.32"/>
<polygon fill="#63b8ff" stroke="#63b8ff" points="186.53,-78.95 175.93,-79.16 184.34,-85.61 186.53,-78.95"/>
</a>
</g>
</g>
<!-- Node14&#45;&gt;Node12 -->
<g id="edge23_Node000014_Node000012" class="edge">
<title>Node14&#45;&gt;Node12</title>
<g id="a_edge23_Node000014_Node000012"><a xlink:title=" ">
<path fill="none" stroke="#63b8ff" d="M439.57,-129.37C476.51,-126.62 522.13,-123.4 563,-121 912.1,-100.54 1001.44,-123.59 1349,-85 1357.56,-84.05 1366.59,-82.74 1375.36,-81.31"/>
<polygon fill="#63b8ff" stroke="#63b8ff" points="1376.24,-84.71 1385.51,-79.57 1375.06,-77.81 1376.24,-84.71"/>
</a>
</g>
</g>
<!-- Node15 -->
<g id="Node000015" class="node">
<title>Node15</title>
<g id="a_Node000015"><a xlink:href="safe__span_8hpp.html" target="_top" xlink:title=" ">
<polygon fill="white" stroke="#666666" points="821,-85 703,-85 703,-55 821,-55 821,-85"/>
<text text-anchor="start" x="711" y="-73" font-family="Helvetica,sans-Serif" font-size="10.00">unilink/memory/safe</text>
<text text-anchor="middle" x="762" y="-62" font-family="Helvetica,sans-Serif" font-size="10.00">_span.hpp</text>
</a>
</g>
</g>
<!-- Node14&#45;&gt;Node15 -->
<g id="edge24_Node000014_Node000015" class="edge">
<title>Node14&#45;&gt;Node15</title>
<g id="a_edge24_Node000014_Node000015"><a xlink:title=" ">
<path fill="none" stroke="#63b8ff" d="M419.86,-126.44C490.18,-115.04 614.64,-94.88 692.49,-82.26"/>
<polygon fill="#63b8ff" stroke="#63b8ff" points="693.38,-85.66 702.69,-80.61 692.26,-78.75 693.38,-85.66"/>
</a>
</g>
</g>
<!-- Node15&#45;&gt;Node11 -->
<g id="edge25_Node000015_Node000011" class="edge">
<title>Node15&#45;&gt;Node11</title>
<g id="a_edge25_Node000015_Node000011"><a xlink:title=" ">
<path fill="none" stroke="#63b8ff" d="M821.01,-56.49C824.38,-55.94 827.73,-55.44 831,-55 1065.81,-23.33 1351.25,-13.74 1449.66,-11.26"/>
<polygon fill="#63b8ff" stroke="#63b8ff" points="1450.02,-14.76 1459.93,-11.01 1449.85,-7.76 1450.02,-14.76"/>
</a>
</g>
</g>
<!-- Node16 -->
<g id="Node000016" class="node">
<title>Node16</title>
<g id="a_Node000016"><a xlink:title=" ">
<polygon fill="#e0e0e0" stroke="#999999" points="782,-19 742,-19 742,0 782,0 782,-19"/>
<text text-anchor="middle" x="762" y="-7" font-family="Helvetica,sans-Serif" font-size="10.00">span</text>
</a>
</g>
</g>
<!-- Node15&#45;&gt;Node16 -->
<g id="edge26_Node000015_Node000016" class="edge">
<title>Node15&#45;&gt;Node16</title>
<g id="a_edge26_Node000015_Node000016"><a xlink:title=" ">
<path fill="none" stroke="#63b8ff" d="M762,-54.84C762,-47.21 762,-37.7 762,-29.45"/>
<polygon fill="#63b8ff" stroke="#63b8ff" points="765.5,-29.27 762,-19.27 758.5,-29.27 765.5,-29.27"/>
</a>
</g>
</g>
<!-- Node17 -->
<g id="Node000017" class="node">
<title>Node17</title>
<g id="a_Node000017"><a xlink:title=" ">
<polygon fill="#e0e0e0" stroke="#999999" points="1198.5,-19 1133.5,-19 1133.5,0 1198.5,0 1198.5,-19"/>
<text text-anchor="middle" x="1166" y="-7" font-family="Helvetica,sans-Serif" font-size="10.00">stdexcept</text>
</a>
</g>
</g>
<!-- Node15&#45;&gt;Node17 -->
<g id="edge27_Node000015_Node000017" class="edge">
<title>Node15&#45;&gt;Node17</title>
<g id="a_edge27_Node000015_Node000017"><a xlink:title=" ">
<path fill="none" stroke="#63b8ff" d="M821.05,-56.74C824.41,-56.13 827.75,-55.55 831,-55 935.42,-37.49 1059.08,-22.56 1122.98,-15.26"/>
<polygon fill="#63b8ff" stroke="#63b8ff" points="1123.54,-18.72 1133.08,-14.12 1122.75,-11.77 1123.54,-18.72"/>
</a>
</g>
</g>
<!-- Node18&#45;&gt;Node6 -->
<g id="edge30_Node000018_Node000006" class="edge">
<title>Node18&#45;&gt;Node6</title>
<g id="a_edge30_Node000018_Node000006"><a xlink:title=" ">
<path fill="none" stroke="#63b8ff" d="M1079.86,-259.35C1190.85,-255.33 1389.96,-244.45 1456,-217 1498.56,-199.31 1515.83,-192.44 1536,-151 1545.29,-131.92 1544.2,-107.13 1541.82,-90.23"/>
<polygon fill="#63b8ff" stroke="#63b8ff" points="1545.2,-89.23 1540.07,-79.96 1538.3,-90.41 1545.2,-89.23"/>
</a>
</g>
</g>
<!-- Node18&#45;&gt;Node7 -->
<g id="edge31_Node000018_Node000007" class="edge">
<title>Node18&#45;&gt;Node7</title>
<g id="a_edge31_Node000018_Node000007"><a xlink:title=" ">
<path fill="none" stroke="#63b8ff" d="M1079.56,-260.98C1253.37,-258.18 1670.47,-241.92 1771,-151 1788.35,-135.31 1794.95,-108.25 1797.46,-89.99"/>
<polygon fill="#63b8ff" stroke="#63b8ff" points="1800.95,-90.27 1798.55,-79.95 1793.99,-89.51 1800.95,-90.27"/>
</a>
</g>
</g>
<!-- Node18&#45;&gt;Node8 -->
<g id="edge32_Node000018_Node000008" class="edge">
<title>Node18&#45;&gt;Node8</title>
<g id="a_edge32_Node000018_Node000008"><a xlink:title=" ">
<path fill="none" stroke="#63b8ff" d="M926.28,-259.43C749.12,-253.33 317.71,-230.5 200,-151 178.13,-136.23 164.66,-107.86 157.75,-89.18"/>
<polygon fill="#63b8ff" stroke="#63b8ff" points="161.06,-88.03 154.5,-79.71 154.44,-90.3 161.06,-88.03"/>
</a>
</g>
</g>
<!-- Node18&#45;&gt;Node15 -->
<g id="edge73_Node000018_Node000015" class="edge">
<title>Node18&#45;&gt;Node15</title>
<g id="a_edge73_Node000018_Node000015"><a xlink:title=" ">
<path fill="none" stroke="#63b8ff" d="M926.41,-253.48C812.56,-239.79 607.26,-207.75 563,-151 524.8,-102.03 620.86,-82.91 692.44,-75.53"/>
<polygon fill="#63b8ff" stroke="#63b8ff" points="693.19,-78.98 702.8,-74.53 692.51,-72.01 693.19,-78.98"/>
</a>
</g>
</g>
<!-- Node19 -->
<g id="Node000019" class="node">
<title>Node19</title>
<g id="a_Node000019"><a xlink:title=" ">
<polygon fill="#e0e0e0" stroke="#999999" points="913,-211.5 857,-211.5 857,-192.5 913,-192.5 913,-211.5"/>
<text text-anchor="middle" x="885" y="-199.5" font-family="Helvetica,sans-Serif" font-size="10.00">optional</text>
</a>
</g>
</g>
<!-- Node18&#45;&gt;Node19 -->
<g id="edge29_Node000018_Node000019" class="edge">
<title>Node18&#45;&gt;Node19</title>
<g id="a_edge29_Node000018_Node000019"><a xlink:title=" ">
<path fill="none" stroke="#63b8ff" d="M985.84,-252.99C966.27,-243.29 934.03,-227.31 911.28,-216.03"/>
<polygon fill="#63b8ff" stroke="#63b8ff" points="912.69,-212.82 902.18,-211.52 909.58,-219.09 912.69,-212.82"/>
</a>
</g>
</g>
<!-- Node20 -->
<g id="Node000020" class="node">
<title>Node20</title>
<g id="a_Node000020"><a xlink:href="common_8hpp.html" target="_top" xlink:title=" ">
<polygon fill="white" stroke="#666666" points="1074.5,-211.5 931.5,-211.5 931.5,-192.5 1074.5,-192.5 1074.5,-211.5"/>
<text text-anchor="middle" x="1003" y="-199.5" font-family="Helvetica,sans-Serif" font-size="10.00">unilink/base/common.hpp</text>
</a>
</g>
</g>
<!-- Node18&#45;&gt;Node20 -->
<g id="edge33_Node000018_Node000020" class="edge">
<title>Node18&#45;&gt;Node20</title>
<g id="a_edge33_Node000018_Node000020"><a xlink:title=" ">
<path fill="none" stroke="#63b8ff" d="M1003,-252.87C1003,-244.75 1003,-232.31 1003,-221.89"/>
<polygon fill="#63b8ff" stroke="#63b8ff" points="1006.5,-221.67 1003,-211.67 999.5,-221.67 1006.5,-221.67"/>
</a>
</g>
</g>
<!-- Node31 -->
<g id="Node000031" class="node">
<title>Node31</title>
<g id="a_Node000031"><a xlink:href="error__codes_8hpp.html" target="_top" xlink:title=" ">
<polygon fill="white" stroke="#666666" points="1447,-217 1345,-217 1345,-187 1447,-187 1447,-217"/>
<text text-anchor="start" x="1353" y="-205" font-family="Helvetica,sans-Serif" font-size="10.00">unilink/base/error</text>
<text text-anchor="middle" x="1396" y="-194" font-family="Helvetica,sans-Serif" font-size="10.00">_codes.hpp</text>
</a>
</g>
</g>
<!-- Node18&#45;&gt;Node31 -->
<g id="edge60_Node000018_Node000031" class="edge">
<title>Node18&#45;&gt;Node31</title>
<g id="a_edge60_Node000018_Node000031"><a xlink:title=" ">
<path fill="none" stroke="#63b8ff" d="M1060.15,-252.99C1133.24,-242.11 1259.34,-223.34 1334.48,-212.16"/>
<polygon fill="#63b8ff" stroke="#63b8ff" points="1335.36,-215.57 1344.73,-210.63 1334.33,-208.64 1335.36,-215.57"/>
</a>
</g>
</g>
<!-- Node32 -->
<g id="Node000032" class="node">
<title>Node32</title>
<g id="a_Node000032"><a xlink:href="safe__data__buffer_8hpp.html" target="_top" xlink:title=" ">
<polygon fill="white" stroke="#666666" points="1312,-151 1194,-151 1194,-121 1312,-121 1312,-151"/>
<text text-anchor="start" x="1202" y="-139" font-family="Helvetica,sans-Serif" font-size="10.00">unilink/memory/safe</text>
<text text-anchor="middle" x="1253" y="-128" font-family="Helvetica,sans-Serif" font-size="10.00">_data_buffer.hpp</text>
</a>
</g>
</g>
<!-- Node18&#45;&gt;Node32 -->
<g id="edge62_Node000018_Node000032" class="edge">
<title>Node18&#45;&gt;Node32</title>
<g id="a_edge62_Node000018_Node000032"><a xlink:title=" ">
<path fill="none" stroke="#63b8ff" d="M1020.18,-252.94C1060.23,-233 1160.52,-183.06 1215.5,-155.68"/>
<polygon fill="#63b8ff" stroke="#63b8ff" points="1217.17,-158.75 1224.57,-151.16 1214.05,-152.49 1217.17,-158.75"/>
</a>
</g>
</g>
<!-- Node20&#45;&gt;Node2 -->
<g id="edge34_Node000020_Node000002" class="edge">
<title>Node20&#45;&gt;Node2</title>
<g id="a_edge34_Node000020_Node000002"><a xlink:title=" ">
<path fill="none" stroke="#63b8ff" d="M958.99,-192.45C947.03,-190.38 934.05,-188.38 922,-187 851.57,-178.95 347.07,-185.24 285,-151 260.43,-137.45 243.9,-108.27 235.22,-89.15"/>
<polygon fill="#63b8ff" stroke="#63b8ff" points="238.35,-87.55 231.21,-79.73 231.91,-90.3 238.35,-87.55"/>
</a>
</g>
</g>
<!-- Node20&#45;&gt;Node3 -->
<g id="edge38_Node000020_Node000003" class="edge">
<title>Node20&#45;&gt;Node3</title>
<g id="a_edge38_Node000020_Node000003"><a xlink:title=" ">
<path fill="none" stroke="#63b8ff" d="M962.52,-192.49C938.37,-185.35 909,-172.72 891,-151 876.65,-133.69 872.77,-107.4 871.9,-89.73"/>
<polygon fill="#63b8ff" stroke="#63b8ff" points="875.4,-89.47 871.69,-79.54 868.4,-89.61 875.4,-89.47"/>
</a>
</g>
</g>
<!-- Node20&#45;&gt;Node6 -->
<g id="edge43_Node000020_Node000006" class="edge">
<title>Node20&#45;&gt;Node6</title>
<g id="a_edge43_Node000020_Node000006"><a xlink:title=" ">
<path fill="none" stroke="#63b8ff" d="M1074.7,-200.61C1190.81,-198.82 1413.79,-190.2 1481,-151 1505.24,-136.86 1521.86,-107.85 1530.65,-88.93"/>
<polygon fill="#63b8ff" stroke="#63b8ff" points="1533.93,-90.17 1534.73,-79.61 1527.51,-87.37 1533.93,-90.17"/>
</a>
</g>
</g>
<!-- Node20&#45;&gt;Node7 -->
<g id="edge44_Node000020_Node000007" class="edge">
<title>Node20&#45;&gt;Node7</title>
<g id="a_edge44_Node000020_Node000007"><a xlink:title=" ">
<path fill="none" stroke="#63b8ff" d="M1074.56,-197.81C1254.43,-189.58 1713.17,-167.12 1742,-151 1766.49,-137.31 1783.05,-108.17 1791.75,-89.1"/>
<polygon fill="#63b8ff" stroke="#63b8ff" points="1795.06,-90.27 1795.78,-79.7 1788.62,-87.51 1795.06,-90.27"/>
</a>
</g>
</g>
<!-- Node20&#45;&gt;Node8 -->
<g id="edge46_Node000020_Node000008" class="edge">
<title>Node20&#45;&gt;Node8</title>
<g id="a_edge46_Node000020_Node000008"><a xlink:title=" ">
<path fill="none" stroke="#63b8ff" d="M959.42,-192.5C947.34,-190.41 934.2,-188.38 922,-187 773.62,-170.25 390.4,-204.53 251,-151 215.78,-137.48 183.5,-106.41 165.91,-87.21"/>
<polygon fill="#63b8ff" stroke="#63b8ff" points="168.37,-84.71 159.1,-79.57 163.14,-89.36 168.37,-84.71"/>
</a>
</g>
</g>
<!-- Node20&#45;&gt;Node11 -->
<g id="edge35_Node000020_Node000011" class="edge">
<title>Node20&#45;&gt;Node11</title>
<g id="a_edge35_Node000020_Node000011"><a xlink:title=" ">
<path fill="none" stroke="#63b8ff" d="M1074.65,-200.28C1195.92,-198.01 1435.67,-188.74 1510,-151 1554.65,-128.33 1594.83,-97.91 1569,-55 1558.3,-37.22 1537.85,-26.18 1519.81,-19.53"/>
<polygon fill="#63b8ff" stroke="#63b8ff" points="1520.7,-16.14 1510.11,-16.28 1518.48,-22.78 1520.7,-16.14"/>
</a>
</g>
</g>
<!-- Node20&#45;&gt;Node17 -->
<g id="edge42_Node000020_Node000017" class="edge">
<title>Node20&#45;&gt;Node17</title>
<g id="a_edge42_Node000020_Node000017"><a xlink:title=" ">
<path fill="none" stroke="#63b8ff" d="M1073.22,-192.47C1100.19,-185.59 1128.82,-173.23 1147,-151 1175.61,-116.01 1172.95,-58.93 1169.16,-29.45"/>
<polygon fill="#63b8ff" stroke="#63b8ff" points="1172.59,-28.67 1167.66,-19.29 1165.66,-29.69 1172.59,-28.67"/>
</a>
</g>
</g>
<!-- Node21 -->
<g id="Node000021" class="node">
<title>Node21</title>
<g id="a_Node000021"><a xlink:title=" ">
<polygon fill="#e0e0e0" stroke="#999999" points="1076,-145.5 1026,-145.5 1026,-126.5 1076,-126.5 1076,-145.5"/>
<text text-anchor="middle" x="1051" y="-133.5" font-family="Helvetica,sans-Serif" font-size="10.00">cstring</text>
</a>
</g>
</g>
<!-- Node20&#45;&gt;Node21 -->
<g id="edge36_Node000020_Node000021" class="edge">
<title>Node20&#45;&gt;Node21</title>
<g id="a_edge36_Node000020_Node000021"><a xlink:title=" ">
<path fill="none" stroke="#63b8ff" d="M1009.47,-192.37C1016.8,-182.59 1028.93,-166.42 1038.19,-154.08"/>
<polygon fill="#63b8ff" stroke="#63b8ff" points="1041.12,-156.01 1044.32,-145.91 1035.52,-151.81 1041.12,-156.01"/>
</a>
</g>
</g>
<!-- Node22 -->
<g id="Node000022" class="node">
<title>Node22</title>
<g id="a_Node000022"><a xlink:title=" ">
<polygon fill="#e0e0e0" stroke="#999999" points="1138,-145.5 1094,-145.5 1094,-126.5 1138,-126.5 1138,-145.5"/>
<text text-anchor="middle" x="1116" y="-133.5" font-family="Helvetica,sans-Serif" font-size="10.00">ctime</text>
</a>
</g>
</g>
<!-- Node20&#45;&gt;Node22 -->
<g id="edge37_Node000020_Node000022" class="edge">
<title>Node20&#45;&gt;Node22</title>
<g id="a_edge37_Node000020_Node000022"><a xlink:title=" ">
<path fill="none" stroke="#63b8ff" d="M1018.24,-192.37C1037.11,-181.68 1069.48,-163.35 1091.77,-150.72"/>
<polygon fill="#63b8ff" stroke="#63b8ff" points="1093.66,-153.67 1100.64,-145.7 1090.21,-147.58 1093.66,-153.67"/>
</a>
</g>
</g>
<!-- Node23 -->
<g id="Node000023" class="node">
<title>Node23</title>
<g id="a_Node000023"><a xlink:title=" ">
<polygon fill="#e0e0e0" stroke="#999999" points="628,-145.5 572,-145.5 572,-126.5 628,-126.5 628,-145.5"/>
<text text-anchor="middle" x="600" y="-133.5" font-family="Helvetica,sans-Serif" font-size="10.00">iomanip</text>
</a>
</g>
</g>
<!-- Node20&#45;&gt;Node23 -->
<g id="edge39_Node000020_Node000023" class="edge">
<title>Node20&#45;&gt;Node23</title>
<g id="a_edge39_Node000020_Node000023"><a xlink:title=" ">
<path fill="none" stroke="#63b8ff" d="M955.94,-192.49C944.83,-190.59 933.01,-188.65 922,-187 795.73,-168.12 760.9,-181.81 637,-151 634.55,-150.39 632.04,-149.67 629.54,-148.88"/>
<polygon fill="#63b8ff" stroke="#63b8ff" points="630.68,-145.57 620.08,-145.58 628.37,-152.18 630.68,-145.57"/>
</a>
</g>
</g>
<!-- Node24 -->
<g id="Node000024" class="node">
<title>Node24</title>
<g id="a_Node000024"><a xlink:title=" ">
<polygon fill="#e0e0e0" stroke="#999999" points="706,-145.5 646,-145.5 646,-126.5 706,-126.5 706,-145.5"/>
<text text-anchor="middle" x="676" y="-133.5" font-family="Helvetica,sans-Serif" font-size="10.00">iostream</text>
</a>
</g>
</g>
<!-- Node20&#45;&gt;Node24 -->
<g id="edge40_Node000020_Node000024" class="edge">
<title>Node20&#45;&gt;Node24</title>
<g id="a_edge40_Node000020_Node000024"><a xlink:title=" ">
<path fill="none" stroke="#63b8ff" d="M953.79,-192.48C871.91,-178.31 716.45,-151.38 715,-151 712.5,-150.34 709.94,-149.59 707.38,-148.79"/>
<polygon fill="#63b8ff" stroke="#63b8ff" points="708.25,-145.39 697.65,-145.52 706.02,-152.02 708.25,-145.39"/>
</a>
</g>
</g>
<!-- Node25 -->
<g id="Node000025" class="node">
<title>Node25</title>
<g id="a_Node000025"><a xlink:title=" ">
<polygon fill="#e0e0e0" stroke="#999999" points="780,-145.5 724,-145.5 724,-126.5 780,-126.5 780,-145.5"/>
<text text-anchor="middle" x="752" y="-133.5" font-family="Helvetica,sans-Serif" font-size="10.00">sstream</text>
</a>
</g>
</g>
<!-- Node20&#45;&gt;Node25 -->
<g id="edge41_Node000020_Node000025" class="edge">
<title>Node20&#45;&gt;Node25</title>
<g id="a_edge41_Node000020_Node000025"><a xlink:title=" ">
<path fill="none" stroke="#63b8ff" d="M959.75,-192.47C916.43,-183.55 848.02,-168.43 790,-151 787.87,-150.36 785.68,-149.66 783.48,-148.93"/>
<polygon fill="#63b8ff" stroke="#63b8ff" points="784.54,-145.6 773.95,-145.6 782.24,-152.21 784.54,-145.6"/>
</a>
</g>
</g>
<!-- Node26 -->
<g id="Node000026" class="node">
<title>Node26</title>
<g id="a_Node000026"><a xlink:title=" ">
<polygon fill="#e0e0e0" stroke="#999999" points="843.5,-145.5 798.5,-145.5 798.5,-126.5 843.5,-126.5 843.5,-145.5"/>
<text text-anchor="middle" x="821" y="-133.5" font-family="Helvetica,sans-Serif" font-size="10.00">utility</text>
</a>
</g>
</g>
<!-- Node20&#45;&gt;Node26 -->
<g id="edge45_Node000020_Node000026" class="edge">
<title>Node20&#45;&gt;Node26</title>
<g id="a_edge45_Node000020_Node000026"><a xlink:title=" ">
<path fill="none" stroke="#63b8ff" d="M977.51,-192.47C948.49,-182.69 899.7,-166.07 858,-151 856.36,-150.41 854.68,-149.79 852.98,-149.17"/>
<polygon fill="#63b8ff" stroke="#63b8ff" points="853.86,-145.76 843.27,-145.55 851.41,-152.32 853.86,-145.76"/>
</a>
</g>
</g>
<!-- Node27 -->
<g id="Node000027" class="node">
<title>Node27</title>
<g id="a_Node000027"><a xlink:href="platform_8hpp.html" target="_top" xlink:title=" ">
<polygon fill="white" stroke="#666666" points="1472,-145.5 1330,-145.5 1330,-126.5 1472,-126.5 1472,-145.5"/>
<text text-anchor="middle" x="1401" y="-133.5" font-family="Helvetica,sans-Serif" font-size="10.00">unilink/base/platform.hpp</text>
</a>
</g>
</g>
<!-- Node20&#45;&gt;Node27 -->
<g id="edge47_Node000020_Node000027" class="edge">
<title>Node20&#45;&gt;Node27</title>
<g id="a_edge47_Node000020_Node000027"><a xlink:title=" ">
<path fill="none" stroke="#63b8ff" d="M1059.05,-192.49C1122.62,-182.76 1229.34,-166.22 1321,-151 1328.17,-149.81 1335.7,-148.53 1343.15,-147.25"/>
<polygon fill="#63b8ff" stroke="#63b8ff" points="1343.97,-150.66 1353.22,-145.5 1342.77,-143.76 1343.97,-150.66"/>
</a>
</g>
</g>
<!-- Node28 -->
<g id="Node000028" class="node">
<title>Node28</title>
<g id="a_Node000028"><a xlink:href="logger_8hpp.html" target="_top" xlink:title=" ">
<polygon fill="white" stroke="#666666" points="1008,-151 900,-151 900,-121 1008,-121 1008,-151"/>
<text text-anchor="start" x="908" y="-139" font-family="Helvetica,sans-Serif" font-size="10.00">unilink/diagnostics</text>
<text text-anchor="middle" x="954" y="-128" font-family="Helvetica,sans-Serif" font-size="10.00">/logger.hpp</text>
</a>
</g>
</g>
<!-- Node20&#45;&gt;Node28 -->
<g id="edge50_Node000020_Node000028" class="edge">
<title>Node20&#45;&gt;Node28</title>
<g id="a_edge50_Node000020_Node000028"><a xlink:title=" ">
<path fill="none" stroke="#63b8ff" d="M996.39,-192.37C989.98,-183.99 979.97,-170.93 971.29,-159.59"/>
<polygon fill="#63b8ff" stroke="#63b8ff" points="973.85,-157.17 964.99,-151.36 968.29,-161.43 973.85,-157.17"/>
</a>
</g>
</g>
<!-- Node27&#45;&gt;Node6 -->
<g id="edge48_Node000027_Node000006" class="edge">
<title>Node27&#45;&gt;Node6</title>
<g id="a_edge48_Node000027_Node000006"><a xlink:title=" ">
<path fill="none" stroke="#63b8ff" d="M1419.48,-126.37C1442.76,-115.49 1483.01,-96.69 1510.06,-84.05"/>
<polygon fill="#63b8ff" stroke="#63b8ff" points="1511.8,-87.1 1519.38,-79.7 1508.84,-80.76 1511.8,-87.1"/>
</a>
</g>
</g>
<!-- Node27&#45;&gt;Node12 -->
<g id="edge49_Node000027_Node000012" class="edge">
<title>Node27&#45;&gt;Node12</title>
<g id="a_edge49_Node000027_Node000012"><a xlink:title=" ">
<path fill="none" stroke="#63b8ff" d="M1404.64,-126.37C1408.64,-116.88 1415.19,-101.36 1420.34,-89.16"/>
<polygon fill="#63b8ff" stroke="#63b8ff" points="1423.58,-90.48 1424.24,-79.91 1417.13,-87.76 1423.58,-90.48"/>
</a>
</g>
</g>
<!-- Node28&#45;&gt;Node2 -->
<g id="edge52_Node000028_Node000002" class="edge">
<title>Node28&#45;&gt;Node2</title>
<g id="a_edge52_Node000028_Node000002"><a xlink:title=" ">
<path fill="none" stroke="#63b8ff" d="M899.83,-126.79C884.7,-124.69 868.23,-122.58 853,-121 620.8,-96.96 561.2,-109.04 329,-85 307.06,-82.73 282.55,-79.35 263.17,-76.48"/>
<polygon fill="#63b8ff" stroke="#63b8ff" points="263.67,-73.02 253.26,-75 262.63,-79.94 263.67,-73.02"/>
</a>
</g>
</g>
<!-- Node28&#45;&gt;Node3 -->
<g id="edge53_Node000028_Node000003" class="edge">
<title>Node28&#45;&gt;Node3</title>
<g id="a_edge53_Node000028_Node000003"><a xlink:title=" ">
<path fill="none" stroke="#63b8ff" d="M935.8,-120.8C922.64,-110.53 904.89,-96.67 891.45,-86.18"/>
<polygon fill="#63b8ff" stroke="#63b8ff" points="893.37,-83.24 883.33,-79.84 889.06,-88.76 893.37,-83.24"/>
</a>
</g>
</g>
<!-- Node28&#45;&gt;Node5 -->
<g id="edge54_Node000028_Node000005" class="edge">
<title>Node28&#45;&gt;Node5</title>
<g id="a_edge54_Node000028_Node000005"><a xlink:title=" ">
<path fill="none" stroke="#63b8ff" d="M899.79,-127.13C884.66,-125.03 868.2,-122.84 853,-121 687.22,-100.99 489,-82.19 406.27,-74.57"/>
<polygon fill="#63b8ff" stroke="#63b8ff" points="406.35,-71.06 396.07,-73.63 405.71,-78.03 406.35,-71.06"/>
</a>
</g>
</g>
<!-- Node28&#45;&gt;Node6 -->
<g id="edge56_Node000028_Node000006" class="edge">
<title>Node28&#45;&gt;Node6</title>
<g id="a_edge56_Node000028_Node000006"><a xlink:title=" ">
<path fill="none" stroke="#63b8ff" d="M1008.2,-122.43C1011.17,-121.91 1014.12,-121.42 1017,-121 1233.04,-89.23 1295.36,-138.76 1507,-85 1508.73,-84.56 1510.49,-84.03 1512.24,-83.43"/>
<polygon fill="#63b8ff" stroke="#63b8ff" points="1514,-86.5 1521.98,-79.52 1511.39,-80 1514,-86.5"/>
</a>
</g>
</g>
<!-- Node28&#45;&gt;Node7 -->
<g id="edge57_Node000028_Node000007" class="edge">
<title>Node28&#45;&gt;Node7</title>
<g id="a_edge57_Node000028_Node000007"><a xlink:title=" ">
<path fill="none" stroke="#63b8ff" d="M1008.2,-122.4C1011.17,-121.88 1014.12,-121.41 1017,-121 1035.29,-118.4 1585.62,-84.21 1751.88,-73.91"/>
<polygon fill="#63b8ff" stroke="#63b8ff" points="1752.51,-77.38 1762.27,-73.27 1752.07,-70.4 1752.51,-77.38"/>
</a>
</g>
</g>
<!-- Node28&#45;&gt;Node8 -->
<g id="edge58_Node000028_Node000008" class="edge">
<title>Node28&#45;&gt;Node8</title>
<g id="a_edge58_Node000028_Node000008"><a xlink:title=" ">
<path fill="none" stroke="#63b8ff" d="M899.85,-126.65C884.71,-124.55 868.24,-122.47 853,-121 561.03,-92.84 482.15,-139.87 194,-85 190.57,-84.35 187.04,-83.49 183.55,-82.51"/>
<polygon fill="#63b8ff" stroke="#63b8ff" points="184.53,-79.15 173.94,-79.54 182.46,-85.84 184.53,-79.15"/>
</a>
</g>
</g>
<!-- Node28&#45;&gt;Node12 -->
<g id="edge59_Node000028_Node000012" class="edge">
<title>Node28&#45;&gt;Node12</title>
<g id="a_edge59_Node000028_Node000012"><a xlink:title=" ">
<path fill="none" stroke="#63b8ff" d="M1008.22,-122.55C1011.19,-122 1014.13,-121.47 1017,-121 1163.44,-96.86 1202.07,-105.96 1349,-85 1356.76,-83.89 1364.92,-82.6 1372.93,-81.25"/>
<polygon fill="#63b8ff" stroke="#63b8ff" points="1373.7,-84.67 1382.97,-79.52 1372.52,-77.77 1373.7,-84.67"/>
</a>
</g>
</g>
<!-- Node29 -->
<g id="Node000029" class="node">
<title>Node29</title>
<g id="a_Node000029"><a xlink:title=" ">
<polygon fill="#e0e0e0" stroke="#999999" points="976,-79.5 926,-79.5 926,-60.5 976,-60.5 976,-79.5"/>
<text text-anchor="middle" x="951" y="-67.5" font-family="Helvetica,sans-Serif" font-size="10.00">atomic</text>
</a>
</g>
</g>
<!-- Node28&#45;&gt;Node29 -->
<g id="edge51_Node000028_Node000029" class="edge">
<title>Node28&#45;&gt;Node29</title>
<g id="a_edge51_Node000028_Node000029"><a xlink:title=" ">
<path fill="none" stroke="#63b8ff" d="M953.33,-120.8C952.91,-111.7 952.35,-99.79 951.89,-89.9"/>
<polygon fill="#63b8ff" stroke="#63b8ff" points="955.38,-89.67 951.41,-79.84 948.39,-90 955.38,-89.67"/>
</a>
</g>
</g>
<!-- Node30 -->
<g id="Node000030" class="node">
<title>Node30</title>
<g id="a_Node000030"><a xlink:title=" ">
<polygon fill="#e0e0e0" stroke="#999999" points="1087.5,-79.5 994.5,-79.5 994.5,-60.5 1087.5,-60.5 1087.5,-79.5"/>
<text text-anchor="middle" x="1041" y="-67.5" font-family="Helvetica,sans-Serif" font-size="10.00">source_location</text>
</a>
</g>
</g>
<!-- Node28&#45;&gt;Node30 -->
<g id="edge55_Node000028_Node000030" class="edge">
<title>Node28&#45;&gt;Node30</title>
<g id="a_edge55_Node000028_Node000030"><a xlink:title=" ">
<path fill="none" stroke="#63b8ff" d="M973.31,-120.8C987.49,-110.37 1006.69,-96.24 1021.02,-85.69"/>
<polygon fill="#63b8ff" stroke="#63b8ff" points="1023.25,-88.4 1029.23,-79.66 1019.1,-82.76 1023.25,-88.4"/>
</a>
</g>
</g>
<!-- Node31&#45;&gt;Node6 -->
<g id="edge61_Node000031_Node000006" class="edge">
<title>Node31&#45;&gt;Node6</title>
<g id="a_edge61_Node000031_Node000006"><a xlink:title=" ">
<path fill="none" stroke="#63b8ff" d="M1447.22,-189.93C1470.49,-182.5 1496.63,-170.39 1514,-151 1529.32,-133.91 1534.87,-107.38 1536.87,-89.61"/>
<polygon fill="#63b8ff" stroke="#63b8ff" points="1540.36,-89.88 1537.73,-79.61 1533.39,-89.28 1540.36,-89.88"/>
</a>
</g>
</g>
<!-- Node32&#45;&gt;Node3 -->
<g id="edge64_Node000032_Node000003" class="edge">
<title>Node32&#45;&gt;Node3</title>
<g id="a_edge64_Node000032_Node000003"><a xlink:title=" ">
<path fill="none" stroke="#63b8ff" d="M1193.76,-126.69C1104.58,-114.1 943.38,-91.03 917,-85 913.63,-84.23 910.14,-83.33 906.67,-82.37"/>
<polygon fill="#63b8ff" stroke="#63b8ff" points="907.62,-79 897.04,-79.54 905.65,-85.72 907.62,-79"/>
</a>
</g>
</g>
<!-- Node32&#45;&gt;Node5 -->
<g id="edge65_Node000032_Node000005" class="edge">
<title>Node32&#45;&gt;Node5</title>
<g id="a_edge65_Node000032_Node000005"><a xlink:title=" ">
<path fill="none" stroke="#63b8ff" d="M1193.93,-126.48C1178.67,-124.48 1162.24,-122.49 1147,-121 863.47,-93.22 520.39,-77.38 406.12,-72.58"/>
<polygon fill="#63b8ff" stroke="#63b8ff" points="406.23,-69.08 396.1,-72.16 405.94,-76.07 406.23,-69.08"/>
</a>
</g>
</g>
<!-- Node32&#45;&gt;Node6 -->
<g id="edge67_Node000032_Node000006" class="edge">
<title>Node32&#45;&gt;Node6</title>
<g id="a_edge67_Node000032_Node000006"><a xlink:title=" ">
<path fill="none" stroke="#63b8ff" d="M1312.33,-122.74C1315.26,-122.15 1318.16,-121.57 1321,-121 1403.57,-104.51 1426.75,-110.5 1507,-85 1508.44,-84.54 1509.91,-84.03 1511.37,-83.49"/>
<polygon fill="#63b8ff" stroke="#63b8ff" points="1512.98,-86.62 1520.9,-79.58 1510.32,-80.14 1512.98,-86.62"/>
</a>
</g>
</g>
<!-- Node32&#45;&gt;Node7 -->
<g id="edge68_Node000032_Node000007" class="edge">
<title>Node32&#45;&gt;Node7</title>
<g id="a_edge68_Node000032_Node000007"><a xlink:title=" ">
<path fill="none" stroke="#63b8ff" d="M1312.28,-122.44C1315.22,-121.93 1318.14,-121.44 1321,-121 1478.12,-96.67 1666.17,-80.86 1752.06,-74.36"/>
<polygon fill="#63b8ff" stroke="#63b8ff" points="1752.55,-77.84 1762.26,-73.6 1752.03,-70.85 1752.55,-77.84"/>
</a>
</g>
</g>
<!-- Node32&#45;&gt;Node8 -->
<g id="edge70_Node000032_Node000008" class="edge">
<title>Node32&#45;&gt;Node8</title>
<g id="a_edge70_Node000032_Node000008"><a xlink:title=" ">
<path fill="none" stroke="#63b8ff" d="M1193.96,-126.21C1178.69,-124.21 1162.26,-122.29 1147,-121 724.66,-85.21 611.03,-160.78 194,-85 190.57,-84.38 187.03,-83.53 183.54,-82.57"/>
<polygon fill="#63b8ff" stroke="#63b8ff" points="184.51,-79.21 173.93,-79.61 182.45,-85.9 184.51,-79.21"/>
</a>
</g>
</g>
<!-- Node32&#45;&gt;Node11 -->
<g id="edge63_Node000032_Node000011" class="edge">
<title>Node32&#45;&gt;Node11</title>
<g id="a_edge63_Node000032_Node000011"><a xlink:title=" ">
<path fill="none" stroke="#63b8ff" d="M1250.07,-120.84C1247.28,-103.08 1245.64,-72.81 1262,-55 1286.84,-27.96 1393.32,-16.72 1449.68,-12.6"/>
<polygon fill="#63b8ff" stroke="#63b8ff" points="1450.18,-16.07 1459.92,-11.88 1449.7,-9.09 1450.18,-16.07"/>
</a>
</g>
</g>
<!-- Node32&#45;&gt;Node12 -->
<g id="edge71_Node000032_Node000012" class="edge">
<title>Node32&#45;&gt;Node12</title>
<g id="a_edge71_Node000032_Node000012"><a xlink:title=" ">
<path fill="none" stroke="#63b8ff" d="M1291.4,-120.95C1322.5,-109.58 1365.83,-93.74 1395.29,-82.96"/>
<polygon fill="#63b8ff" stroke="#63b8ff" points="1396.52,-86.24 1404.71,-79.52 1394.12,-79.66 1396.52,-86.24"/>
</a>
</g>
</g>
<!-- Node32&#45;&gt;Node15 -->
<g id="edge72_Node000032_Node000015" class="edge">
<title>Node32&#45;&gt;Node15</title>
<g id="a_edge72_Node000032_Node000015"><a xlink:title=" ">
<path fill="none" stroke="#63b8ff" d="M1193.88,-127C1178.61,-124.99 1162.2,-122.87 1147,-121 1006.7,-103.75 970.62,-107.07 831,-85 830.9,-84.98 830.8,-84.97 830.69,-84.95"/>
<polygon fill="#63b8ff" stroke="#63b8ff" points="831.48,-81.53 821.03,-83.33 830.32,-88.44 831.48,-81.53"/>
</a>
</g>
</g>
<!-- Node32&#45;&gt;Node17 -->
<g id="edge66_Node000032_Node000017" class="edge">
<title>Node32&#45;&gt;Node17</title>
<g id="a_edge66_Node000032_Node000017"><a xlink:title=" ">
<path fill="none" stroke="#63b8ff" d="M1243.02,-120.72C1226.87,-97.61 1195.09,-52.13 1177.83,-27.43"/>
<polygon fill="#63b8ff" stroke="#63b8ff" points="1180.59,-25.26 1171.99,-19.07 1174.85,-29.27 1180.59,-25.26"/>
</a>
</g>
</g>
<!-- Node33 -->
<g id="Node000033" class="node">
<title>Node33</title>
<g id="a_Node000033"><a xlink:title=" ">
<polygon fill="#e0e0e0" stroke="#999999" points="1339.5,-79.5 1270.5,-79.5 1270.5,-60.5 1339.5,-60.5 1339.5,-79.5"/>
<text text-anchor="middle" x="1305" y="-67.5" font-family="Helvetica,sans-Serif" font-size="10.00">type_traits</text>
</a>
</g>
</g>
<!-- Node32&#45;&gt;Node33 -->
<g id="edge69_Node000032_Node000033" class="edge">
<title>Node32&#45;&gt;Node33</title>
<g id="a_edge69_Node000032_Node000033"><a xlink:title=" ">
<path fill="none" stroke="#63b8ff" d="M1264.54,-120.8C1272.49,-111.01 1283.08,-97.98 1291.43,-87.7"/>
<polygon fill="#63b8ff" stroke="#63b8ff" points="1294.22,-89.81 1297.81,-79.84 1288.79,-85.4 1294.22,-89.81"/>
</a>
</g>
</g>
</g>
</svg>

<g id="navigator" transform="translate(0 0)" fill="#404254">
  <rect fill="#f2f5e9" fill-opacity="0.5" stroke="#606060" stroke-width=".5" x="0" y="0" width="60" height="60"/>
  <use id="zoomplus" xlink:href="#zoomPlus" x="17" y="9" onmousedown="handleZoom(evt,'in')"/>
  <use id="zoomminus" xlink:href="#zoomMin" x="42" y="9" onmousedown="handleZoom(evt,'out')"/>
  <use id="reset" xlink:href="#resetDef" x="30" y="36" onmousedown="handleReset()"/>
   <use id="arrowup" xlink:href="#arrowUp" x="0" y="0" onmousedown="handlePan(0,-1)"/>
  <use id="arrowright" xlink:href="#arrowRight" x="0" y="0" onmousedown="handlePan(1,0)"/>
  <use id="arrowdown" xlink:href="#arrowDown" x="0" y="0" onmousedown="handlePan(0,1)"/>
  <use id="arrowleft" xlink:href="#arrowLeft" x="0" y="0" onmousedown="handlePan(-1,0)"/>
</g>
<svg viewBox="0 0 15 15" width="100%" height="30px" preserveAspectRatio="xMaxYMin meet">
 <g id="arrow_out" transform="scale(0.3 0.3)">
  <a xlink:href="wrapper_2uds__server_2uds__server_8hpp__incl_org.svg" target="_base">
   <rect id="button" ry="5" rx="5" y="6" x="6" height="38" width="38"
        fill="#f2f5e9" fill-opacity="0.5" stroke="#606060" stroke-width="1.0"/>
   <path id="arrow"
     d="M 11.500037,31.436501 C 11.940474,20.09759 22.043105,11.32322 32.158766,21.979434 L 37.068811,17.246167 C 37.068811,17.246167 37.088388,32 37.088388,32 L 22.160133,31.978069 C 22.160133,31.978069 26.997745,27.140456 26.997745,27.140456 C 18.528582,18.264221 13.291696,25.230495 11.500037,31.436501 z"
     style="fill:#404040;"/>
  </a>
 </g>
</svg>

<style type='text/css'>
<![CDATA[
[data-mouse-over-selected='false'] { opacity: 0.7; }
[data-mouse-over-selected='true']  { opacity: 1.0; }
]]>
</style>
<script type="application/ecmascript"><![CDATA[
document.addEventListener('DOMContentLoaded', (event) => {
  highlightEdges();
  highlightAdjacentNodes();
});
]]></script>
</svg>
