<?xml version="1.0" encoding="UTF-8" standalone="no"?>
<!DOCTYPE svg PUBLIC "-//W3C//DTD SVG 1.1//EN"
 "http://www.w3.org/Graphics/SVG/1.1/DTD/svg11.dtd">
<!-- Generated by graphviz version 2.43.0 (0)
 -->
<!-- Title: unilink/wrapper/uds_server/uds_server.hpp Pages: 1 -->
<!--zoomable 401 -->

<svg id="main" version="1.1" xmlns="http://www.w3.org/2000/svg" xmlns:xlink="http://www.w3.org/1999/xlink" xml:space="preserve" onload="init(evt)">
<style type="text/css"><![CDATA[
.node, .edge {opacity: 0.7;}
.node.selected, .edge.selected {opacity: 1;}
.edge:hover path { stroke: red; }
.edge:hover polygon { stroke: red; fill: red; }
]]></style>

<defs>
  <circle id="rim" cx="0" cy="0" r="7"/>
  <circle id="rim2" cx="0" cy="0" r="3.5"/>
  <g id="zoomPlus">
    <use xlink:href="#rim" fill="#404040"><set attributeName="fill" to="#808080" begin="zoomplus.mouseover" end="zoomplus.mouseout"/></use>
    <path d="M-4,0h8M0,-4v8" fill="none" stroke="white" stroke-width="1.5" pointer-events="none"/>
  </g>
  <g id="zoomMin">
    <use xlink:href="#rim" fill="#404040"><set attributeName="fill" to="#808080" begin="zoomminus.mouseover" end="zoomminus.mouseout"/></use>
    <path d="M-4,0h8" fill="none" stroke="white" stroke-width="1.5" pointer-events="none"/>
  </g>
  <g id="arrowUp" transform="translate(30 24)">
    <use xlink:href="#rim"/>
    <path pointer-events="none" fill="none" stroke="white" stroke-width="1.5" d="M0,-3.0v7 M-2.5,-0.5L0,-3.0L2.5,-0.5"/>
  </g>
  <g id="arrowRight" transform="rotate(90) translate(36 -43)">
    <use xlink:href="#rim"/>
    <path pointer-events="none" fill="none" stroke="white" stroke-width="1.5" d="M0,-3.0v7 M-2.5,-0.5L0,-3.0L2.5,-0.5"/>
  </g>
  <g id="arrowDown" transform="rotate(180) translate(-30 -48)">
    <use xlink:href="#rim"/>
    <path pointer-events="none" fill="none" stroke="white" stroke-width="1.5" d="M0,-3.0v7 M-2.5,-0.5L0,-3.0L2.5,-0.5"/>
  </g>
  <g id="arrowLeft" transform="rotate(270) translate(-36 17)">
    <use xlink:href="#rim"/>
    <path pointer-events="none" fill="none" stroke="white" stroke-width="1.5" d="M0,-3.0v7 M-2.5,-0.5L0,-3.0L2.5,-0.5"/>
  </g>
  <g id="resetDef">
    <use xlink:href="#rim2" fill="#404040"><set attributeName="fill" to="#808080" begin="reset.mouseover" end="reset.mouseout"/></use>
  </g>
</defs>
<script type="application/ecmascript">
var viewWidth = 2064;
var viewHeight = 401;
var sectionId = 'dynsection-0';
</script>
<script type="application/ecmascript" xlink:href="svg.min.js"/>
<svg id="graph" class="graph">
<g id="viewport">
<title>unilink/wrapper/uds_server/uds_server.hpp</title>
<!-- Node1 -->
<g id="Node000001" class="node">
<title>Node1</title>
<g id="a_Node000001"><a xlink:title=" ">
<polygon fill="#999999" stroke="#666666" points="702,-393 573,-393 573,-363 702,-363 702,-393"/>
<text text-anchor="start" x="581" y="-381" font-family="Helvetica,sans-Serif" font-size="10.00">unilink/wrapper/uds</text>
<text text-anchor="middle" x="637.5" y="-370" font-family="Helvetica,sans-Serif" font-size="10.00">_server/uds_server.hpp</text>
</a>
</g>
</g>
<!-- Node2 -->
<g id="Node000002" class="node">
<title>Node2</title>
<g id="a_Node000002"><a xlink:title=" ">
<polygon fill="#e0e0e0" stroke="#999999" points="933.5,-79.5 883.5,-79.5 883.5,-60.5 933.5,-60.5 933.5,-79.5"/>
<text text-anchor="middle" x="908.5" y="-67.5" font-family="Helvetica,sans-Serif" font-size="10.00">chrono</text>
</a>
</g>
</g>
<!-- Node1&#45;&gt;Node2 -->
<g id="edge1_Node000001_Node000002" class="edge">
<title>Node1&#45;&gt;Node2</title>
<g id="a_edge1_Node000001_Node000002"><a xlink:title=" ">
<path fill="none" stroke="#63b8ff" d="M702.02,-370.63C766.31,-360.3 855.5,-333.37 855.5,-263.5 855.5,-263.5 855.5,-263.5 855.5,-201 855.5,-157.75 880.96,-112 896.59,-87.99"/>
<polygon fill="#63b8ff" stroke="#63b8ff" points="899.53,-89.89 902.21,-79.64 893.73,-85.98 899.53,-89.89"/>
</a>
</g>
</g>
<!-- Node3 -->
<g id="Node000003" class="node">
<title>Node3</title>
<g id="a_Node000003"><a xlink:title=" ">
<polygon fill="#e0e0e0" stroke="#999999" points="1087,-79.5 1022,-79.5 1022,-60.5 1087,-60.5 1087,-79.5"/>
<text text-anchor="middle" x="1054.5" y="-67.5" font-family="Helvetica,sans-Serif" font-size="10.00">functional</text>
</a>
</g>
</g>
<!-- Node1&#45;&gt;Node3 -->
<g id="edge2_Node000001_Node000003" class="edge">
<title>Node1&#45;&gt;Node3</title>
<g id="a_edge2_Node000001_Node000003"><a xlink:title=" ">
<path fill="none" stroke="#63b8ff" d="M702.39,-377C935.02,-376.17 1713.5,-365.76 1713.5,-263.5 1713.5,-263.5 1713.5,-263.5 1713.5,-201 1713.5,-161.25 1706.45,-143.24 1673.5,-121 1625.98,-88.91 1229.97,-75.63 1097.49,-72.05"/>
<polygon fill="#63b8ff" stroke="#63b8ff" points="1097.4,-68.55 1087.31,-71.78 1097.22,-75.55 1097.4,-68.55"/>
</a>
</g>
</g>
<!-- Node4 -->
<g id="Node000004" class="node">
<title>Node4</title>
<g id="a_Node000004"><a xlink:title=" ">
<polygon fill="#e0e0e0" stroke="#999999" points="337.5,-272 291.5,-272 291.5,-253 337.5,-253 337.5,-272"/>
<text text-anchor="middle" x="314.5" y="-260" font-family="Helvetica,sans-Serif" font-size="10.00">future</text>
</a>
</g>
</g>
<!-- Node1&#45;&gt;Node4 -->
<g id="edge3_Node000001_Node000004" class="edge">
<title>Node1&#45;&gt;Node4</title>
<g id="a_edge3_Node000001_Node000004"><a xlink:title=" ">
<path fill="none" stroke="#63b8ff" d="M597.57,-362.97C533.11,-340.32 407.32,-296.12 347.55,-275.11"/>
<polygon fill="#63b8ff" stroke="#63b8ff" points="348.46,-271.73 337.87,-271.71 346.14,-278.33 348.46,-271.73"/>
</a>
</g>
</g>
<!-- Node5 -->
<g id="Node000005" class="node">
<title>Node5</title>
<g id="a_Node000005"><a xlink:title=" ">
<polygon fill="#e0e0e0" stroke="#999999" points="751.5,-79.5 693.5,-79.5 693.5,-60.5 751.5,-60.5 751.5,-79.5"/>
<text text-anchor="middle" x="722.5" y="-67.5" font-family="Helvetica,sans-Serif" font-size="10.00">memory</text>
</a>
</g>
</g>
<!-- Node1&#45;&gt;Node5 -->
<g id="edge4_Node000001_Node000005" class="edge">
<title>Node1&#45;&gt;Node5</title>
<g id="a_edge4_Node000001_Node000005"><a xlink:title=" ">
<path fill="none" stroke="#63b8ff" d="M646.45,-362.64C652.14,-352.92 659.21,-339.59 663.5,-327 693.52,-238.96 673.36,-209.97 700.5,-121 703.87,-109.94 709.02,-98.08 713.49,-88.68"/>
<polygon fill="#63b8ff" stroke="#63b8ff" points="716.68,-90.13 717.96,-79.61 710.4,-87.04 716.68,-90.13"/>
</a>
</g>
</g>
<!-- Node6 -->
<g id="Node000006" class="node">
<title>Node6</title>
<g id="a_Node000006"><a xlink:title=" ">
<polygon fill="#e0e0e0" stroke="#999999" points="1761.5,-79.5 1717.5,-79.5 1717.5,-60.5 1761.5,-60.5 1761.5,-79.5"/>
<text text-anchor="middle" x="1739.5" y="-67.5" font-family="Helvetica,sans-Serif" font-size="10.00">string</text>
</a>
</g>
</g>
<!-- Node1&#45;&gt;Node6 -->
<g id="edge5_Node000001_Node000006" class="edge">
<title>Node1&#45;&gt;Node6</title>
<g id="a_edge5_Node000001_Node000006"><a xlink:title=" ">
<path fill="none" stroke="#63b8ff" d="M702.17,-377.56C860.27,-378.1 1278.6,-374.49 1623.5,-327 1749.91,-309.59 1903.5,-391.1 1903.5,-263.5 1903.5,-263.5 1903.5,-263.5 1903.5,-201 1903.5,-134.18 1818.85,-96.27 1771.18,-80.22"/>
<polygon fill="#63b8ff" stroke="#63b8ff" points="1772.21,-76.88 1761.62,-77.13 1770.05,-83.54 1772.21,-76.88"/>
</a>
</g>
</g>
<!-- Node7 -->
<g id="Node000007" class="node">
<title>Node7</title>
<g id="a_Node000007"><a xlink:title=" ">
<polygon fill="#e0e0e0" stroke="#999999" points="1997,-79.5 1924,-79.5 1924,-60.5 1997,-60.5 1997,-79.5"/>
<text text-anchor="middle" x="1960.5" y="-67.5" font-family="Helvetica,sans-Serif" font-size="10.00">string_view</text>
</a>
</g>
</g>
<!-- Node1&#45;&gt;Node7 -->
<g id="edge6_Node000001_Node000007" class="edge">
<title>Node1&#45;&gt;Node7</title>
<g id="a_edge6_Node000001_Node000007"><a xlink:title=" ">
<path fill="none" stroke="#63b8ff" d="M702.18,-375.65C910.48,-371.05 1562.47,-354.76 1771.5,-327 1899.71,-309.97 2055.5,-392.84 2055.5,-263.5 2055.5,-263.5 2055.5,-263.5 2055.5,-201 2055.5,-151.09 2009.3,-107.57 1981.33,-85.8"/>
<polygon fill="#63b8ff" stroke="#63b8ff" points="1983.41,-82.98 1973.31,-79.76 1979.19,-88.57 1983.41,-82.98"/>
</a>
</g>
</g>
<!-- Node8 -->
<g id="Node000008" class="node">
<title>Node8</title>
<g id="a_Node000008"><a xlink:title=" ">
<polygon fill="#e0e0e0" stroke="#999999" points="343,-79.5 296,-79.5 296,-60.5 343,-60.5 343,-79.5"/>
<text text-anchor="middle" x="319.5" y="-67.5" font-family="Helvetica,sans-Serif" font-size="10.00">vector</text>
</a>
</g>
</g>
<!-- Node1&#45;&gt;Node8 -->
<g id="edge7_Node000001_Node000008" class="edge">
<title>Node1&#45;&gt;Node8</title>
<g id="a_edge7_Node000001_Node000008"><a xlink:title=" ">
<path fill="none" stroke="#63b8ff" d="M572.77,-374.53C445.63,-367.91 175.5,-344.34 175.5,-263.5 175.5,-263.5 175.5,-263.5 175.5,-201 175.5,-141.48 244.13,-102.18 286.63,-83.55"/>
<polygon fill="#63b8ff" stroke="#63b8ff" points="288.19,-86.69 296.04,-79.58 285.47,-80.24 288.19,-86.69"/>
</a>
</g>
</g>
<!-- Node9 -->
<g id="Node000009" class="node">
<title>Node9</title>
<g id="a_Node000009"><a xlink:href="constants_8hpp.html" target="_top" xlink:title=" ">
<polygon fill="white" stroke="#666666" points="147,-327 0,-327 0,-308 147,-308 147,-327"/>
<text text-anchor="middle" x="73.5" y="-315" font-family="Helvetica,sans-Serif" font-size="10.00">unilink/base/constants.hpp</text>
</a>
</g>
</g>
<!-- Node1&#45;&gt;Node9 -->
<g id="edge8_Node000001_Node000009" class="edge">
<title>Node1&#45;&gt;Node9</title>
<g id="a_edge8_Node000001_Node000009"><a xlink:title=" ">
<path fill="none" stroke="#63b8ff" d="M572.8,-370.29C470.29,-359.66 270.55,-338.94 157.24,-327.19"/>
<polygon fill="#63b8ff" stroke="#63b8ff" points="157.53,-323.7 147.22,-326.15 156.81,-330.66 157.53,-323.7"/>
</a>
</g>
</g>
<!-- Node12 -->
<g id="Node000012" class="node">
<title>Node12</title>
<g id="a_Node000012"><a xlink:href="visibility_8hpp.html" target="_top" xlink:title=" ">
<polygon fill="white" stroke="#666666" points="675.5,-79.5 535.5,-79.5 535.5,-60.5 675.5,-60.5 675.5,-79.5"/>
<text text-anchor="middle" x="605.5" y="-67.5" font-family="Helvetica,sans-Serif" font-size="10.00">unilink/base/visibility.hpp</text>
</a>
</g>
</g>
<!-- Node1&#45;&gt;Node12 -->
<g id="edge11_Node000001_Node000012" class="edge">
<title>Node1&#45;&gt;Node12</title>
<g id="a_edge11_Node000001_Node000012"><a xlink:title=" ">
<path fill="none" stroke="#63b8ff" d="M572.66,-367.43C479.79,-352.21 316.33,-319.31 282.5,-272 207.24,-166.76 436.27,-104.89 547.98,-81.64"/>
<polygon fill="#63b8ff" stroke="#63b8ff" points="548.99,-85 558.09,-79.57 547.59,-78.14 548.99,-85"/>
</a>
</g>
</g>
<!-- Node13 -->
<g id="Node000013" class="node">
<title>Node13</title>
<g id="a_Node000013"><a xlink:href="iserver_8hpp.html" target="_top" xlink:title=" ">
<polygon fill="white" stroke="#666666" points="655,-327 506,-327 506,-308 655,-308 655,-327"/>
<text text-anchor="middle" x="580.5" y="-315" font-family="Helvetica,sans-Serif" font-size="10.00">unilink/wrapper/iserver.hpp</text>
</a>
</g>
</g>
<!-- Node1&#45;&gt;Node13 -->
<g id="edge12_Node000001_Node000013" class="edge">
<title>Node1&#45;&gt;Node13</title>
<g id="a_edge12_Node000001_Node000013"><a xlink:title=" ">
<path fill="none" stroke="#63b8ff" d="M623.7,-362.84C615.43,-354.35 604.88,-343.52 596.27,-334.69"/>
<polygon fill="#63b8ff" stroke="#63b8ff" points="598.53,-331.99 589.04,-327.27 593.51,-336.87 598.53,-331.99"/>
</a>
</g>
</g>
<!-- Node10 -->
<g id="Node000010" class="node">
<title>Node10</title>
<g id="a_Node000010"><a xlink:title=" ">
<polygon fill="#e0e0e0" stroke="#999999" points="147,-272 94,-272 94,-253 147,-253 147,-272"/>
<text text-anchor="middle" x="120.5" y="-260" font-family="Helvetica,sans-Serif" font-size="10.00">cstddef</text>
</a>
</g>
</g>
<!-- Node9&#45;&gt;Node10 -->
<g id="edge9_Node000009_Node000010" class="edge">
<title>Node9&#45;&gt;Node10</title>
<g id="a_edge9_Node000009_Node000010"><a xlink:title=" ">
<path fill="none" stroke="#63b8ff" d="M81.26,-307.75C87.97,-300.18 97.84,-289.05 106.01,-279.84"/>
<polygon fill="#63b8ff" stroke="#63b8ff" points="108.87,-281.89 112.88,-272.09 103.63,-277.25 108.87,-281.89"/>
</a>
</g>
</g>
<!-- Node11 -->
<g id="Node000011" class="node">
<title>Node11</title>
<g id="a_Node000011"><a xlink:title=" ">
<polygon fill="#e0e0e0" stroke="#999999" points="400.5,-19 350.5,-19 350.5,0 400.5,0 400.5,-19"/>
<text text-anchor="middle" x="375.5" y="-7" font-family="Helvetica,sans-Serif" font-size="10.00">cstdint</text>
</a>
</g>
</g>
<!-- Node9&#45;&gt;Node11 -->
<g id="edge10_Node000009_Node000011" class="edge">
<title>Node9&#45;&gt;Node11</title>
<g id="a_edge10_Node000009_Node000011"><a xlink:title=" ">
<path fill="none" stroke="#63b8ff" d="M72.49,-307.97C70.33,-289.09 65.5,-242.31 65.5,-203 65.5,-203 65.5,-203 65.5,-135 65.5,-76.37 258.84,-32.7 340.15,-16.92"/>
<polygon fill="#63b8ff" stroke="#63b8ff" points="341.23,-20.28 350.39,-14.97 339.92,-13.4 341.23,-20.28"/>
</a>
</g>
</g>
<!-- Node13&#45;&gt;Node3 -->
<g id="edge13_Node000013_Node000003" class="edge">
<title>Node13&#45;&gt;Node3</title>
<g id="a_edge13_Node000013_Node000003"><a xlink:title=" ">
<path fill="none" stroke="#63b8ff" d="M618.14,-307.92C717.2,-284.6 981.41,-217.32 1038.5,-151 1053.12,-134.01 1055.78,-107.46 1055.68,-89.65"/>
<polygon fill="#63b8ff" stroke="#63b8ff" points="1059.18,-89.51 1055.33,-79.64 1052.18,-89.75 1059.18,-89.51"/>
</a>
</g>
</g>
<!-- Node13&#45;&gt;Node4 -->
<g id="edge14_Node000013_Node000004" class="edge">
<title>Node13&#45;&gt;Node4</title>
<g id="a_edge14_Node000013_Node000004"><a xlink:title=" ">
<path fill="none" stroke="#63b8ff" d="M533.92,-307.93C487.58,-299.29 414.5,-285.35 351.5,-272 350.23,-271.73 348.94,-271.45 347.63,-271.17"/>
<polygon fill="#63b8ff" stroke="#63b8ff" points="348.09,-267.68 337.57,-268.93 346.57,-274.52 348.09,-267.68"/>
</a>
</g>
</g>
<!-- Node13&#45;&gt;Node5 -->
<g id="edge15_Node000013_Node000005" class="edge">
<title>Node13&#45;&gt;Node5</title>
<g id="a_edge15_Node000013_Node000005"><a xlink:title=" ">
<path fill="none" stroke="#63b8ff" d="M583,-307.64C591.42,-278.76 620.93,-185.43 667.5,-121 677.14,-107.67 690.82,-95.21 702.12,-86.07"/>
<polygon fill="#63b8ff" stroke="#63b8ff" points="704.47,-88.67 710.2,-79.76 700.16,-83.16 704.47,-88.67"/>
</a>
</g>
</g>
<!-- Node13&#45;&gt;Node7 -->
<g id="edge16_Node000013_Node000007" class="edge">
<title>Node13&#45;&gt;Node7</title>
<g id="a_edge16_Node000013_Node000007"><a xlink:title=" ">
<path fill="none" stroke="#63b8ff" d="M655.21,-314.03C880.39,-305.97 1549.78,-277.45 1758.5,-217 1820.74,-198.97 1837.07,-190.41 1888.5,-151 1912.62,-132.51 1935.16,-105.22 1948.38,-87.78"/>
<polygon fill="#63b8ff" stroke="#63b8ff" points="1951.26,-89.77 1954.41,-79.65 1945.64,-85.6 1951.26,-89.77"/>
</a>
</g>
</g>
<!-- Node13&#45;&gt;Node8 -->
<g id="edge17_Node000013_Node000008" class="edge">
<title>Node13&#45;&gt;Node8</title>
<g id="a_edge17_Node000013_Node000008"><a xlink:title=" ">
<path fill="none" stroke="#63b8ff" d="M562.09,-307.92C545.18,-299.69 519.76,-286.42 499.5,-272 434.12,-225.48 415.9,-213.44 365.5,-151 349.83,-131.59 336.21,-106.2 327.94,-89.28"/>
<polygon fill="#63b8ff" stroke="#63b8ff" points="330.97,-87.5 323.51,-79.97 324.64,-90.51 330.97,-87.5"/>
</a>
</g>
</g>
<!-- Node13&#45;&gt;Node12 -->
<g id="edge18_Node000013_Node000012" class="edge">
<title>Node13&#45;&gt;Node12</title>
<g id="a_edge18_Node000013_Node000012"><a xlink:title=" ">
<path fill="none" stroke="#63b8ff" d="M567.59,-307.85C527.57,-279.96 411.14,-190.23 460.5,-121 471.85,-105.08 517.91,-90.97 555.11,-81.83"/>
<polygon fill="#63b8ff" stroke="#63b8ff" points="555.93,-85.23 564.84,-79.5 554.3,-78.43 555.93,-85.23"/>
</a>
</g>
</g>
<!-- Node14 -->
<g id="Node000014" class="node">
<title>Node14</title>
<g id="a_Node000014"><a xlink:href="iframer_8hpp.html" target="_top" xlink:title=" ">
<polygon fill="white" stroke="#666666" points="615,-145.5 470,-145.5 470,-126.5 615,-126.5 615,-145.5"/>
<text text-anchor="middle" x="542.5" y="-133.5" font-family="Helvetica,sans-Serif" font-size="10.00">unilink/framer/iframer.hpp</text>
</a>
</g>
</g>
<!-- Node13&#45;&gt;Node14 -->
<g id="edge19_Node000013_Node000014" class="edge">
<title>Node13&#45;&gt;Node14</title>
<g id="a_edge19_Node000013_Node000014"><a xlink:title=" ">
<path fill="none" stroke="#63b8ff" d="M577.37,-307.73C574.28,-298.82 569.58,-284.59 566.5,-272 556.43,-230.91 548.78,-181.82 545.04,-155.63"/>
<polygon fill="#63b8ff" stroke="#63b8ff" points="548.49,-155.03 543.64,-145.61 541.55,-156 548.49,-155.03"/>
</a>
</g>
</g>
<!-- Node18 -->
<g id="Node000018" class="node">
<title>Node18</title>
<g id="a_Node000018"><a xlink:href="context_8hpp.html" target="_top" xlink:title=" ">
<polygon fill="white" stroke="#666666" points="1166,-272 1013,-272 1013,-253 1166,-253 1166,-272"/>
<text text-anchor="middle" x="1089.5" y="-260" font-family="Helvetica,sans-Serif" font-size="10.00">unilink/wrapper/context.hpp</text>
</a>
</g>
</g>
<!-- Node13&#45;&gt;Node18 -->
<g id="edge28_Node000013_Node000018" class="edge">
<title>Node13&#45;&gt;Node18</title>
<g id="a_edge28_Node000013_Node000018"><a xlink:title=" ">
<path fill="none" stroke="#63b8ff" d="M655.06,-308.74C747.47,-299.11 904.68,-282.74 1002.5,-272.56"/>
<polygon fill="#63b8ff" stroke="#63b8ff" points="1003.07,-276.02 1012.66,-271.5 1002.35,-269.06 1003.07,-276.02"/>
</a>
</g>
</g>
<!-- Node14&#45;&gt;Node3 -->
<g id="edge20_Node000014_Node000003" class="edge">
<title>Node14&#45;&gt;Node3</title>
<g id="a_edge20_Node000014_Node000003"><a xlink:title=" ">
<path fill="none" stroke="#63b8ff" d="M615.09,-128.06C736.89,-116.29 972.82,-92.92 1010.5,-85 1013.9,-84.29 1017.41,-83.41 1020.89,-82.45"/>
<polygon fill="#63b8ff" stroke="#63b8ff" points="1021.94,-85.79 1030.53,-79.59 1019.94,-79.08 1021.94,-85.79"/>
</a>
</g>
</g>
<!-- Node14&#45;&gt;Node5 -->
<g id="edge21_Node000014_Node000005" class="edge">
<title>Node14&#45;&gt;Node5</title>
<g id="a_edge21_Node000014_Node000005"><a xlink:title=" ">
<path fill="none" stroke="#63b8ff" d="M567.17,-126.44C595.52,-116.56 643.44,-99.79 684.5,-85 686.14,-84.41 687.81,-83.8 689.5,-83.19"/>
<polygon fill="#63b8ff" stroke="#63b8ff" points="691.02,-86.36 699.21,-79.64 688.61,-79.79 691.02,-86.36"/>
</a>
</g>
</g>
<!-- Node14&#45;&gt;Node8 -->
<g id="edge22_Node000014_Node000008" class="edge">
<title>Node14&#45;&gt;Node8</title>
<g id="a_edge22_Node000014_Node000008"><a xlink:title=" ">
<path fill="none" stroke="#63b8ff" d="M512.43,-126.37C470.93,-114.46 396.36,-93.06 353.09,-80.64"/>
<polygon fill="#63b8ff" stroke="#63b8ff" points="353.89,-77.23 343.32,-77.84 351.96,-83.96 353.89,-77.23"/>
</a>
</g>
</g>
<!-- Node14&#45;&gt;Node12 -->
<g id="edge23_Node000014_Node000012" class="edge">
<title>Node14&#45;&gt;Node12</title>
<g id="a_edge23_Node000014_Node000012"><a xlink:title=" ">
<path fill="none" stroke="#63b8ff" d="M551,-126.37C560.8,-116.4 577.16,-99.79 589.39,-87.36"/>
<polygon fill="#63b8ff" stroke="#63b8ff" points="592.21,-89.49 596.73,-79.91 587.22,-84.58 592.21,-89.49"/>
</a>
</g>
</g>
<!-- Node15 -->
<g id="Node000015" class="node">
<title>Node15</title>
<g id="a_Node000015"><a xlink:href="safe__span_8hpp.html" target="_top" xlink:title=" ">
<polygon fill="white" stroke="#666666" points="517.5,-85 399.5,-85 399.5,-55 517.5,-55 517.5,-85"/>
<text text-anchor="start" x="407.5" y="-73" font-family="Helvetica,sans-Serif" font-size="10.00">unilink/memory/safe</text>
<text text-anchor="middle" x="458.5" y="-62" font-family="Helvetica,sans-Serif" font-size="10.00">_span.hpp</text>
</a>
</g>
</g>
<!-- Node14&#45;&gt;Node15 -->
<g id="edge24_Node000014_Node000015" class="edge">
<title>Node14&#45;&gt;Node15</title>
<g id="a_edge24_Node000014_Node000015"><a xlink:title=" ">
<path fill="none" stroke="#63b8ff" d="M531.17,-126.37C519.46,-117.44 500.75,-103.19 485.24,-91.38"/>
<polygon fill="#63b8ff" stroke="#63b8ff" points="487.1,-88.39 477.03,-85.12 482.86,-93.96 487.1,-88.39"/>
</a>
</g>
</g>
<!-- Node15&#45;&gt;Node11 -->
<g id="edge25_Node000015_Node000011" class="edge">
<title>Node15&#45;&gt;Node11</title>
<g id="a_edge25_Node000015_Node000011"><a xlink:title=" ">
<path fill="none" stroke="#63b8ff" d="M438.41,-54.84C425.62,-45.83 409.1,-34.18 396.2,-25.09"/>
<polygon fill="#63b8ff" stroke="#63b8ff" points="398.13,-22.17 387.94,-19.27 394.09,-27.89 398.13,-22.17"/>
</a>
</g>
</g>
<!-- Node16 -->
<g id="Node000016" class="node">
<title>Node16</title>
<g id="a_Node000016"><a xlink:title=" ">
<polygon fill="#e0e0e0" stroke="#999999" points="888,-19 823,-19 823,0 888,0 888,-19"/>
<text text-anchor="middle" x="855.5" y="-7" font-family="Helvetica,sans-Serif" font-size="10.00">stdexcept</text>
</a>
</g>
</g>
<!-- Node15&#45;&gt;Node16 -->
<g id="edge26_Node000015_Node000016" class="edge">
<title>Node15&#45;&gt;Node16</title>
<g id="a_edge26_Node000015_Node000016"><a xlink:title=" ">
<path fill="none" stroke="#63b8ff" d="M517.79,-56.54C520.73,-56 523.65,-55.49 526.5,-55 628.76,-37.58 749.85,-22.66 812.75,-15.33"/>
<polygon fill="#63b8ff" stroke="#63b8ff" points="813.17,-18.81 822.7,-14.18 812.36,-11.85 813.17,-18.81"/>
</a>
</g>
</g>
<!-- Node17 -->
<g id="Node000017" class="node">
<title>Node17</title>
<g id="a_Node000017"><a xlink:title=" ">
<polygon fill="#e0e0e0" stroke="#999999" points="649,-19 580,-19 580,0 649,0 649,-19"/>
<text text-anchor="middle" x="614.5" y="-7" font-family="Helvetica,sans-Serif" font-size="10.00">type_traits</text>
</a>
</g>
</g>
<!-- Node15&#45;&gt;Node17 -->
<g id="edge27_Node000015_Node000017" class="edge">
<title>Node15&#45;&gt;Node17</title>
<g id="a_edge27_Node000015_Node000017"><a xlink:title=" ">
<path fill="none" stroke="#63b8ff" d="M495.87,-54.99C522.13,-45.14 556.91,-32.1 582.02,-22.68"/>
<polygon fill="#63b8ff" stroke="#63b8ff" points="583.33,-25.93 591.46,-19.14 580.87,-19.37 583.33,-25.93"/>
</a>
</g>
</g>
<!-- Node18&#45;&gt;Node6 -->
<g id="edge30_Node000018_Node000006" class="edge">
<title>Node18&#45;&gt;Node6</title>
<g id="a_edge30_Node000018_Node000006"><a xlink:title=" ">
<path fill="none" stroke="#63b8ff" d="M1166.06,-258.29C1293.76,-252.42 1544.69,-238.53 1630.5,-217 1701.93,-199.07 1742.1,-212.58 1782.5,-151 1796.6,-129.51 1775.3,-102.94 1757.97,-86.48"/>
<polygon fill="#63b8ff" stroke="#63b8ff" points="1760.2,-83.78 1750.43,-79.69 1755.52,-88.98 1760.2,-83.78"/>
</a>
</g>
</g>
<!-- Node18&#45;&gt;Node7 -->
<g id="edge31_Node000018_Node000007" class="edge">
<title>Node18&#45;&gt;Node7</title>
<g id="a_edge31_Node000018_Node000007"><a xlink:title=" ">
<path fill="none" stroke="#63b8ff" d="M1166.09,-259.2C1307.21,-254.41 1602.96,-241.73 1702.5,-217 1773.19,-199.44 1789.51,-187.57 1852.5,-151 1886.22,-131.42 1921.94,-103.31 1942.68,-86.15"/>
<polygon fill="#63b8ff" stroke="#63b8ff" points="1945.18,-88.63 1950.6,-79.53 1940.69,-83.26 1945.18,-88.63"/>
</a>
</g>
</g>
<!-- Node18&#45;&gt;Node8 -->
<g id="edge32_Node000018_Node000008" class="edge">
<title>Node18&#45;&gt;Node8</title>
<g id="a_edge32_Node000018_Node000008"><a xlink:title=" ">
<path fill="none" stroke="#63b8ff" d="M1012.82,-260.91C877.44,-258.99 601.93,-250.9 512.5,-217 436.04,-188.02 364.3,-118.73 334.28,-87.16"/>
<polygon fill="#63b8ff" stroke="#63b8ff" points="336.65,-84.57 327.26,-79.66 331.54,-89.35 336.65,-84.57"/>
</a>
</g>
</g>
<!-- Node18&#45;&gt;Node15 -->
<g id="edge72_Node000018_Node000015" class="edge">
<title>Node18&#45;&gt;Node15</title>
<g id="a_edge72_Node000018_Node000015"><a xlink:title=" ">
<path fill="none" stroke="#63b8ff" d="M1012.85,-259.67C861.18,-254.29 531.27,-233.18 460.5,-151 447.51,-135.92 448.43,-112.66 451.77,-95.1"/>
<polygon fill="#63b8ff" stroke="#63b8ff" points="455.25,-95.56 454.05,-85.03 448.42,-94.01 455.25,-95.56"/>
</a>
</g>
</g>
<!-- Node19 -->
<g id="Node000019" class="node">
<title>Node19</title>
<g id="a_Node000019"><a xlink:title=" ">
<polygon fill="#e0e0e0" stroke="#999999" points="1117.5,-211.5 1061.5,-211.5 1061.5,-192.5 1117.5,-192.5 1117.5,-211.5"/>
<text text-anchor="middle" x="1089.5" y="-199.5" font-family="Helvetica,sans-Serif" font-size="10.00">optional</text>
</a>
</g>
</g>
<!-- Node18&#45;&gt;Node19 -->
<g id="edge29_Node000018_Node000019" class="edge">
<title>Node18&#45;&gt;Node19</title>
<g id="a_edge29_Node000018_Node000019"><a xlink:title=" ">
<path fill="none" stroke="#63b8ff" d="M1089.5,-252.87C1089.5,-244.75 1089.5,-232.31 1089.5,-221.89"/>
<polygon fill="#63b8ff" stroke="#63b8ff" points="1093,-221.67 1089.5,-211.67 1086,-221.67 1093,-221.67"/>
</a>
</g>
</g>
<!-- Node20 -->
<g id="Node000020" class="node">
<title>Node20</title>
<g id="a_Node000020"><a xlink:href="common_8hpp.html" target="_top" xlink:title=" ">
<polygon fill="white" stroke="#666666" points="1441,-211.5 1298,-211.5 1298,-192.5 1441,-192.5 1441,-211.5"/>
<text text-anchor="middle" x="1369.5" y="-199.5" font-family="Helvetica,sans-Serif" font-size="10.00">unilink/base/common.hpp</text>
</a>
</g>
</g>
<!-- Node18&#45;&gt;Node20 -->
<g id="edge33_Node000018_Node000020" class="edge">
<title>Node18&#45;&gt;Node20</title>
<g id="a_edge33_Node000018_Node000020"><a xlink:title=" ">
<path fill="none" stroke="#63b8ff" d="M1130.21,-252.99C1180.09,-242.57 1264.59,-224.92 1318.68,-213.62"/>
<polygon fill="#63b8ff" stroke="#63b8ff" points="1319.66,-216.99 1328.74,-211.52 1318.23,-210.14 1319.66,-216.99"/>
</a>
</g>
</g>
<!-- Node30 -->
<g id="Node000030" class="node">
<title>Node30</title>
<g id="a_Node000030"><a xlink:href="error__codes_8hpp.html" target="_top" xlink:title=" ">
<polygon fill="white" stroke="#666666" points="1621.5,-217 1519.5,-217 1519.5,-187 1621.5,-187 1621.5,-217"/>
<text text-anchor="start" x="1527.5" y="-205" font-family="Helvetica,sans-Serif" font-size="10.00">unilink/base/error</text>
<text text-anchor="middle" x="1570.5" y="-194" font-family="Helvetica,sans-Serif" font-size="10.00">_codes.hpp</text>
</a>
</g>
</g>
<!-- Node18&#45;&gt;Node30 -->
<g id="edge59_Node000018_Node000030" class="edge">
<title>Node18&#45;&gt;Node30</title>
<g id="a_edge59_Node000018_Node000030"><a xlink:title=" ">
<path fill="none" stroke="#63b8ff" d="M1159.44,-252.99C1253.65,-241.54 1419.79,-221.33 1509.29,-210.44"/>
<polygon fill="#63b8ff" stroke="#63b8ff" points="1509.79,-213.91 1519.29,-209.23 1508.94,-206.96 1509.79,-213.91"/>
</a>
</g>
</g>
<!-- Node31 -->
<g id="Node000031" class="node">
<title>Node31</title>
<g id="a_Node000031"><a xlink:href="safe__data__buffer_8hpp.html" target="_top" xlink:title=" ">
<polygon fill="white" stroke="#666666" points="827.5,-151 709.5,-151 709.5,-121 827.5,-121 827.5,-151"/>
<text text-anchor="start" x="717.5" y="-139" font-family="Helvetica,sans-Serif" font-size="10.00">unilink/memory/safe</text>
<text text-anchor="middle" x="768.5" y="-128" font-family="Helvetica,sans-Serif" font-size="10.00">_data_buffer.hpp</text>
</a>
</g>
</g>
<!-- Node18&#45;&gt;Node31 -->
<g id="edge61_Node000018_Node000031" class="edge">
<title>Node18&#45;&gt;Node31</title>
<g id="a_edge61_Node000018_Node000031"><a xlink:title=" ">
<path fill="none" stroke="#63b8ff" d="M1067.44,-252.94C1015.42,-232.77 884.24,-181.89 814.21,-154.73"/>
<polygon fill="#63b8ff" stroke="#63b8ff" points="815.34,-151.41 804.75,-151.06 812.81,-157.94 815.34,-151.41"/>
</a>
</g>
</g>
<!-- Node20&#45;&gt;Node2 -->
<g id="edge34_Node000020_Node000002" class="edge">
<title>Node20&#45;&gt;Node2</title>
<g id="a_edge34_Node000020_Node000002"><a xlink:title=" ">
<path fill="none" stroke="#63b8ff" d="M1297.62,-195.57C1172.23,-185.76 925.54,-164.83 912.5,-151 897.33,-134.91 899.46,-107.95 903.26,-89.82"/>
<polygon fill="#63b8ff" stroke="#63b8ff" points="906.72,-90.4 905.69,-79.86 899.92,-88.74 906.72,-90.4"/>
</a>
</g>
</g>
<!-- Node20&#45;&gt;Node3 -->
<g id="edge38_Node000020_Node000003" class="edge">
<title>Node20&#45;&gt;Node3</title>
<g id="a_edge38_Node000020_Node000003"><a xlink:title=" ">
<path fill="none" stroke="#63b8ff" d="M1441.29,-193.31C1521.72,-183.96 1642.73,-167.38 1656.5,-151 1665.08,-140.79 1665.53,-130.81 1656.5,-121 1618.77,-80.01 1228.9,-72.62 1097.48,-71.29"/>
<polygon fill="#63b8ff" stroke="#63b8ff" points="1097.42,-67.79 1087.38,-71.19 1097.35,-74.79 1097.42,-67.79"/>
</a>
</g>
</g>
<!-- Node20&#45;&gt;Node6 -->
<g id="edge43_Node000020_Node000006" class="edge">
<title>Node20&#45;&gt;Node6</title>
<g id="a_edge43_Node000020_Node000006"><a xlink:title=" ">
<path fill="none" stroke="#63b8ff" d="M1436.88,-192.47C1520.14,-181.53 1653.33,-162.6 1673.5,-151 1699.17,-136.24 1719.09,-107.43 1730.06,-88.71"/>
<polygon fill="#63b8ff" stroke="#63b8ff" points="1733.25,-90.17 1735.09,-79.74 1727.15,-86.75 1733.25,-90.17"/>
</a>
</g>
</g>
<!-- Node20&#45;&gt;Node7 -->
<g id="edge44_Node000020_Node000007" class="edge">
<title>Node20&#45;&gt;Node7</title>
<g id="a_edge44_Node000020_Node000007"><a xlink:title=" ">
<path fill="none" stroke="#63b8ff" d="M1441.01,-193.43C1559.77,-180.77 1786.41,-156.15 1803.5,-151 1855.03,-135.45 1909.9,-103.48 1939.17,-85.01"/>
<polygon fill="#63b8ff" stroke="#63b8ff" points="1941.2,-87.87 1947.73,-79.53 1937.42,-81.97 1941.2,-87.87"/>
</a>
</g>
</g>
<!-- Node20&#45;&gt;Node8 -->
<g id="edge46_Node000020_Node000008" class="edge">
<title>Node20&#45;&gt;Node8</title>
<g id="a_edge46_Node000020_Node000008"><a xlink:title=" ">
<path fill="none" stroke="#63b8ff" d="M1297.73,-196.75C1249.36,-193.91 1184.1,-190.14 1126.5,-187 971.19,-178.53 573.9,-203.53 427.5,-151 389.67,-137.42 353.85,-105.89 334.46,-86.72"/>
<polygon fill="#63b8ff" stroke="#63b8ff" points="336.94,-84.24 327.42,-79.58 331.95,-89.16 336.94,-84.24"/>
</a>
</g>
</g>
<!-- Node20&#45;&gt;Node11 -->
<g id="edge35_Node000020_Node000011" class="edge">
<title>Node20&#45;&gt;Node11</title>
<g id="a_edge35_Node000020_Node000011"><a xlink:title=" ">
<path fill="none" stroke="#63b8ff" d="M1298,-196.81C1249.59,-194 1184.2,-190.22 1126.5,-187 1052.51,-182.87 528.61,-180.2 460.5,-151 440.85,-142.58 400.88,-103.69 390.5,-85 380.92,-67.73 377.41,-45.19 376.15,-29.44"/>
<polygon fill="#63b8ff" stroke="#63b8ff" points="379.64,-29.14 375.58,-19.35 372.65,-29.53 379.64,-29.14"/>
</a>
</g>
</g>
<!-- Node20&#45;&gt;Node16 -->
<g id="edge42_Node000020_Node000016" class="edge">
<title>Node20&#45;&gt;Node16</title>
<g id="a_edge42_Node000020_Node000016"><a xlink:title=" ">
<path fill="none" stroke="#63b8ff" d="M1441.37,-192.64C1532.48,-181.67 1680.52,-162.48 1703.5,-151 1750.05,-127.75 1806.39,-92.67 1770.5,-55 1740.08,-23.07 1075.26,-13.06 898.4,-10.96"/>
<polygon fill="#63b8ff" stroke="#63b8ff" points="898.22,-7.46 888.18,-10.84 898.14,-14.46 898.22,-7.46"/>
</a>
</g>
</g>
<!-- Node21 -->
<g id="Node000021" class="node">
<title>Node21</title>
<g id="a_Node000021"><a xlink:title=" ">
<polygon fill="#e0e0e0" stroke="#999999" points="1295.5,-145.5 1245.5,-145.5 1245.5,-126.5 1295.5,-126.5 1295.5,-145.5"/>
<text text-anchor="middle" x="1270.5" y="-133.5" font-family="Helvetica,sans-Serif" font-size="10.00">cstring</text>
</a>
</g>
</g>
<!-- Node20&#45;&gt;Node21 -->
<g id="edge36_Node000020_Node000021" class="edge">
<title>Node20&#45;&gt;Node21</title>
<g id="a_edge36_Node000020_Node000021"><a xlink:title=" ">
<path fill="none" stroke="#63b8ff" d="M1356.15,-192.37C1339.84,-181.82 1312.01,-163.84 1292.51,-151.23"/>
<polygon fill="#63b8ff" stroke="#63b8ff" points="1294.25,-148.19 1283.96,-145.7 1290.45,-154.07 1294.25,-148.19"/>
</a>
</g>
</g>
<!-- Node22 -->
<g id="Node000022" class="node">
<title>Node22</title>
<g id="a_Node000022"><a xlink:title=" ">
<polygon fill="#e0e0e0" stroke="#999999" points="1357.5,-145.5 1313.5,-145.5 1313.5,-126.5 1357.5,-126.5 1357.5,-145.5"/>
<text text-anchor="middle" x="1335.5" y="-133.5" font-family="Helvetica,sans-Serif" font-size="10.00">ctime</text>
</a>
</g>
</g>
<!-- Node20&#45;&gt;Node22 -->
<g id="edge37_Node000020_Node000022" class="edge">
<title>Node20&#45;&gt;Node22</title>
<g id="a_edge37_Node000020_Node000022"><a xlink:title=" ">
<path fill="none" stroke="#63b8ff" d="M1364.91,-192.37C1359.82,-182.78 1351.46,-167.05 1344.96,-154.8"/>
<polygon fill="#63b8ff" stroke="#63b8ff" points="1348.01,-153.09 1340.23,-145.91 1341.83,-156.38 1348.01,-153.09"/>
</a>
</g>
</g>
<!-- Node23 -->
<g id="Node000023" class="node">
<title>Node23</title>
<g id="a_Node000023"><a xlink:title=" ">
<polygon fill="#e0e0e0" stroke="#999999" points="1431.5,-145.5 1375.5,-145.5 1375.5,-126.5 1431.5,-126.5 1431.5,-145.5"/>
<text text-anchor="middle" x="1403.5" y="-133.5" font-family="Helvetica,sans-Serif" font-size="10.00">iomanip</text>
</a>
</g>
</g>
<!-- Node20&#45;&gt;Node23 -->
<g id="edge39_Node000020_Node000023" class="edge">
<title>Node20&#45;&gt;Node23</title>
<g id="a_edge39_Node000020_Node000023"><a xlink:title=" ">
<path fill="none" stroke="#63b8ff" d="M1374.09,-192.37C1379.18,-182.78 1387.54,-167.05 1394.04,-154.8"/>
<polygon fill="#63b8ff" stroke="#63b8ff" points="1397.17,-156.38 1398.77,-145.91 1390.99,-153.09 1397.17,-156.38"/>
</a>
</g>
</g>
<!-- Node24 -->
<g id="Node000024" class="node">
<title>Node24</title>
<g id="a_Node000024"><a xlink:title=" ">
<polygon fill="#e0e0e0" stroke="#999999" points="1509.5,-145.5 1449.5,-145.5 1449.5,-126.5 1509.5,-126.5 1509.5,-145.5"/>
<text text-anchor="middle" x="1479.5" y="-133.5" font-family="Helvetica,sans-Serif" font-size="10.00">iostream</text>
</a>
</g>
</g>
<!-- Node20&#45;&gt;Node24 -->
<g id="edge40_Node000020_Node000024" class="edge">
<title>Node20&#45;&gt;Node24</title>
<g id="a_edge40_Node000020_Node000024"><a xlink:title=" ">
<path fill="none" stroke="#63b8ff" d="M1384.34,-192.37C1402.62,-181.73 1433.94,-163.51 1455.63,-150.89"/>
<polygon fill="#63b8ff" stroke="#63b8ff" points="1457.67,-153.75 1464.55,-145.7 1454.14,-147.7 1457.67,-153.75"/>
</a>
</g>
</g>
<!-- Node25 -->
<g id="Node000025" class="node">
<title>Node25</title>
<g id="a_Node000025"><a xlink:title=" ">
<polygon fill="#e0e0e0" stroke="#999999" points="1583.5,-145.5 1527.5,-145.5 1527.5,-126.5 1583.5,-126.5 1583.5,-145.5"/>
<text text-anchor="middle" x="1555.5" y="-133.5" font-family="Helvetica,sans-Serif" font-size="10.00">sstream</text>
</a>
</g>
</g>
<!-- Node20&#45;&gt;Node25 -->
<g id="edge41_Node000020_Node000025" class="edge">
<title>Node20&#45;&gt;Node25</title>
<g id="a_edge41_Node000020_Node000025"><a xlink:title=" ">
<path fill="none" stroke="#63b8ff" d="M1395.98,-192.45C1425.85,-182.73 1475.84,-166.22 1518.5,-151 1520.15,-150.41 1521.83,-149.8 1523.53,-149.18"/>
<polygon fill="#63b8ff" stroke="#63b8ff" points="1525.09,-152.34 1533.25,-145.58 1522.65,-145.78 1525.09,-152.34"/>
</a>
</g>
</g>
<!-- Node26 -->
<g id="Node000026" class="node">
<title>Node26</title>
<g id="a_Node000026"><a xlink:title=" ">
<polygon fill="#e0e0e0" stroke="#999999" points="1647,-145.5 1602,-145.5 1602,-126.5 1647,-126.5 1647,-145.5"/>
<text text-anchor="middle" x="1624.5" y="-133.5" font-family="Helvetica,sans-Serif" font-size="10.00">utility</text>
</a>
</g>
</g>
<!-- Node20&#45;&gt;Node26 -->
<g id="edge45_Node000020_Node000026" class="edge">
<title>Node20&#45;&gt;Node26</title>
<g id="a_edge45_Node000020_Node000026"><a xlink:title=" ">
<path fill="none" stroke="#63b8ff" d="M1420.29,-192.49C1465.98,-184.16 1534.62,-169.96 1592.5,-151 1593.94,-150.53 1595.41,-150.01 1596.88,-149.47"/>
<polygon fill="#63b8ff" stroke="#63b8ff" points="1598.49,-152.6 1606.46,-145.61 1595.88,-146.1 1598.49,-152.6"/>
</a>
</g>
</g>
<!-- Node27 -->
<g id="Node000027" class="node">
<title>Node27</title>
<g id="a_Node000027"><a xlink:href="platform_8hpp.html" target="_top" xlink:title=" ">
<polygon fill="white" stroke="#666666" points="1227.5,-145.5 1085.5,-145.5 1085.5,-126.5 1227.5,-126.5 1227.5,-145.5"/>
<text text-anchor="middle" x="1156.5" y="-133.5" font-family="Helvetica,sans-Serif" font-size="10.00">unilink/base/platform.hpp</text>
</a>
</g>
</g>
<!-- Node20&#45;&gt;Node27 -->
<g id="edge47_Node000020_Node000027" class="edge">
<title>Node20&#45;&gt;Node27</title>
<g id="a_edge47_Node000020_Node000027"><a xlink:title=" ">
<path fill="none" stroke="#63b8ff" d="M1340.77,-192.37C1303.03,-181.03 1236.64,-161.08 1194.7,-148.48"/>
<polygon fill="#63b8ff" stroke="#63b8ff" points="1195.69,-145.12 1185.11,-145.6 1193.68,-151.83 1195.69,-145.12"/>
</a>
</g>
</g>
<!-- Node28 -->
<g id="Node000028" class="node">
<title>Node28</title>
<g id="a_Node000028"><a xlink:href="logger_8hpp.html" target="_top" xlink:title=" ">
<polygon fill="white" stroke="#666666" points="1029.5,-151 921.5,-151 921.5,-121 1029.5,-121 1029.5,-151"/>
<text text-anchor="start" x="929.5" y="-139" font-family="Helvetica,sans-Serif" font-size="10.00">unilink/diagnostics</text>
<text text-anchor="middle" x="975.5" y="-128" font-family="Helvetica,sans-Serif" font-size="10.00">/logger.hpp</text>
</a>
</g>
</g>
<!-- Node20&#45;&gt;Node28 -->
<g id="edge50_Node000020_Node000028" class="edge">
<title>Node20&#45;&gt;Node28</title>
<g id="a_edge50_Node000020_Node000028"><a xlink:title=" ">
<path fill="none" stroke="#63b8ff" d="M1316.77,-192.44C1245.13,-180.8 1117.13,-160.01 1039.9,-147.46"/>
<polygon fill="#63b8ff" stroke="#63b8ff" points="1040.24,-143.97 1029.81,-145.82 1039.12,-150.88 1040.24,-143.97"/>
</a>
</g>
</g>
<!-- Node27&#45;&gt;Node6 -->
<g id="edge48_Node000027_Node000006" class="edge">
<title>Node27&#45;&gt;Node6</title>
<g id="a_edge48_Node000027_Node000006"><a xlink:title=" ">
<path fill="none" stroke="#63b8ff" d="M1201.68,-126.49C1213.02,-124.52 1225.18,-122.55 1236.5,-121 1413.37,-96.77 1626.77,-79.47 1706.96,-73.39"/>
<polygon fill="#63b8ff" stroke="#63b8ff" points="1707.66,-76.85 1717.37,-72.61 1707.13,-69.87 1707.66,-76.85"/>
</a>
</g>
</g>
<!-- Node27&#45;&gt;Node12 -->
<g id="edge49_Node000027_Node000012" class="edge">
<title>Node27&#45;&gt;Node12</title>
<g id="a_edge49_Node000027_Node000012"><a xlink:title=" ">
<path fill="none" stroke="#63b8ff" d="M1086.33,-126.48C1070.6,-124.62 1053.98,-122.71 1038.5,-121 881.31,-103.68 841.13,-106.81 684.5,-85 676.56,-83.89 668.19,-82.58 659.99,-81.2"/>
<polygon fill="#63b8ff" stroke="#63b8ff" points="660.56,-77.75 650.11,-79.5 659.37,-84.65 660.56,-77.75"/>
</a>
</g>
</g>
<!-- Node28&#45;&gt;Node2 -->
<g id="edge52_Node000028_Node000002" class="edge">
<title>Node28&#45;&gt;Node2</title>
<g id="a_edge52_Node000028_Node000002"><a xlink:title=" ">
<path fill="none" stroke="#63b8ff" d="M960.63,-120.8C950.08,-110.72 935.92,-97.19 925.02,-86.78"/>
<polygon fill="#63b8ff" stroke="#63b8ff" points="927.41,-84.22 917.76,-79.84 922.57,-89.28 927.41,-84.22"/>
</a>
</g>
</g>
<!-- Node28&#45;&gt;Node3 -->
<g id="edge53_Node000028_Node000003" class="edge">
<title>Node28&#45;&gt;Node3</title>
<g id="a_edge53_Node000028_Node000003"><a xlink:title=" ">
<path fill="none" stroke="#63b8ff" d="M993.03,-120.8C1005.71,-110.53 1022.82,-96.67 1035.76,-86.18"/>
<polygon fill="#63b8ff" stroke="#63b8ff" points="1038.02,-88.86 1043.58,-79.84 1033.61,-83.42 1038.02,-88.86"/>
</a>
</g>
</g>
<!-- Node28&#45;&gt;Node5 -->
<g id="edge54_Node000028_Node000005" class="edge">
<title>Node28&#45;&gt;Node5</title>
<g id="a_edge54_Node000028_Node000005"><a xlink:title=" ">
<path fill="none" stroke="#63b8ff" d="M921.23,-121.27C873.1,-109.1 804.01,-91.62 761.26,-80.81"/>
<polygon fill="#63b8ff" stroke="#63b8ff" points="762.07,-77.4 751.51,-78.34 760.35,-84.18 762.07,-77.4"/>
</a>
</g>
</g>
<!-- Node28&#45;&gt;Node6 -->
<g id="edge55_Node000028_Node000006" class="edge">
<title>Node28&#45;&gt;Node6</title>
<g id="a_edge55_Node000028_Node000006"><a xlink:title=" ">
<path fill="none" stroke="#63b8ff" d="M1029.67,-126.86C1044.81,-124.75 1061.27,-122.63 1076.5,-121 1318.26,-95.15 1611.02,-77.99 1707.19,-72.72"/>
<polygon fill="#63b8ff" stroke="#63b8ff" points="1707.63,-76.2 1717.42,-72.16 1707.25,-69.21 1707.63,-76.2"/>
</a>
</g>
</g>
<!-- Node28&#45;&gt;Node7 -->
<g id="edge56_Node000028_Node000007" class="edge">
<title>Node28&#45;&gt;Node7</title>
<g id="a_edge56_Node000028_Node000007"><a xlink:title=" ">
<path fill="none" stroke="#63b8ff" d="M1029.65,-126.62C1044.78,-124.52 1061.26,-122.45 1076.5,-121 1383.97,-91.77 1462.25,-104.35 1770.5,-85 1819.23,-81.94 1874.94,-77.75 1913.37,-74.76"/>
<polygon fill="#63b8ff" stroke="#63b8ff" points="1914.04,-78.22 1923.74,-73.95 1913.49,-71.24 1914.04,-78.22"/>
</a>
</g>
</g>
<!-- Node28&#45;&gt;Node8 -->
<g id="edge57_Node000028_Node000008" class="edge">
<title>Node28&#45;&gt;Node8</title>
<g id="a_edge57_Node000028_Node000008"><a xlink:title=" ">
<path fill="none" stroke="#63b8ff" d="M921.39,-129.3C895.69,-126.65 864.52,-123.54 836.5,-121 638.45,-103.03 587.49,-112.28 390.5,-85 378.18,-83.29 364.77,-80.81 352.96,-78.41"/>
<polygon fill="#63b8ff" stroke="#63b8ff" points="353.56,-74.96 343.05,-76.35 352.13,-81.82 353.56,-74.96"/>
</a>
</g>
</g>
<!-- Node28&#45;&gt;Node12 -->
<g id="edge58_Node000028_Node000012" class="edge">
<title>Node28&#45;&gt;Node12</title>
<g id="a_edge58_Node000028_Node000012"><a xlink:title=" ">
<path fill="none" stroke="#63b8ff" d="M921.32,-125.78C862.86,-115.81 767.06,-99.41 684.5,-85 677.77,-83.83 670.72,-82.59 663.72,-81.35"/>
<polygon fill="#63b8ff" stroke="#63b8ff" points="663.99,-77.85 653.54,-79.55 662.78,-84.74 663.99,-77.85"/>
</a>
</g>
</g>
<!-- Node29 -->
<g id="Node000029" class="node">
<title>Node29</title>
<g id="a_Node000029"><a xlink:title=" ">
<polygon fill="#e0e0e0" stroke="#999999" points="1001.5,-79.5 951.5,-79.5 951.5,-60.5 1001.5,-60.5 1001.5,-79.5"/>
<text text-anchor="middle" x="976.5" y="-67.5" font-family="Helvetica,sans-Serif" font-size="10.00">atomic</text>
</a>
</g>
</g>
<!-- Node28&#45;&gt;Node29 -->
<g id="edge51_Node000028_Node000029" class="edge">
<title>Node28&#45;&gt;Node29</title>
<g id="a_edge51_Node000028_Node000029"><a xlink:title=" ">
<path fill="none" stroke="#63b8ff" d="M975.72,-120.8C975.86,-111.7 976.05,-99.79 976.2,-89.9"/>
<polygon fill="#63b8ff" stroke="#63b8ff" points="979.71,-89.9 976.36,-79.84 972.71,-89.79 979.71,-89.9"/>
</a>
</g>
</g>
<!-- Node30&#45;&gt;Node6 -->
<g id="edge60_Node000030_Node000006" class="edge">
<title>Node30&#45;&gt;Node6</title>
<g id="a_edge60_Node000030_Node000006"><a xlink:title=" ">
<path fill="none" stroke="#63b8ff" d="M1621.57,-191.25C1676.3,-180.29 1756.55,-162.53 1765.5,-151 1780.06,-132.23 1765.62,-105.02 1753.16,-87.67"/>
<polygon fill="#63b8ff" stroke="#63b8ff" points="1755.84,-85.41 1746.98,-79.59 1750.28,-89.66 1755.84,-85.41"/>
</a>
</g>
</g>
<!-- Node31&#45;&gt;Node3 -->
<g id="edge63_Node000031_Node000003" class="edge">
<title>Node31&#45;&gt;Node3</title>
<g id="a_edge63_Node000031_Node000003"><a xlink:title=" ">
<path fill="none" stroke="#63b8ff" d="M827.58,-124.58C876.82,-115.46 948.66,-101.18 1010.5,-85 1013.34,-84.26 1016.26,-83.44 1019.19,-82.59"/>
<polygon fill="#63b8ff" stroke="#63b8ff" points="1020.49,-85.85 1029.04,-79.6 1018.45,-79.15 1020.49,-85.85"/>
</a>
</g>
</g>
<!-- Node31&#45;&gt;Node5 -->
<g id="edge64_Node000031_Node000005" class="edge">
<title>Node31&#45;&gt;Node5</title>
<g id="a_edge64_Node000031_Node000005"><a xlink:title=" ">
<path fill="none" stroke="#63b8ff" d="M758.29,-120.8C751.33,-111.11 742.08,-98.24 734.73,-88.01"/>
<polygon fill="#63b8ff" stroke="#63b8ff" points="737.54,-85.92 728.86,-79.84 731.85,-90.01 737.54,-85.92"/>
</a>
</g>
</g>
<!-- Node31&#45;&gt;Node6 -->
<g id="edge66_Node000031_Node000006" class="edge">
<title>Node31&#45;&gt;Node6</title>
<g id="a_edge66_Node000031_Node000006"><a xlink:title=" ">
<path fill="none" stroke="#63b8ff" d="M827.66,-128.76C853.66,-126.14 884.58,-123.2 912.5,-121 1221.62,-96.64 1596.55,-77.85 1707.27,-72.52"/>
<polygon fill="#63b8ff" stroke="#63b8ff" points="1707.61,-76.01 1717.44,-72.04 1707.28,-69.02 1707.61,-76.01"/>
</a>
</g>
</g>
<!-- Node31&#45;&gt;Node7 -->
<g id="edge67_Node000031_Node000007" class="edge">
<title>Node31&#45;&gt;Node7</title>
<g id="a_edge67_Node000031_Node000007"><a xlink:title=" ">
<path fill="none" stroke="#63b8ff" d="M827.64,-128.51C853.64,-125.85 884.56,-122.94 912.5,-121 1293.25,-94.52 1389.47,-107.03 1770.5,-85 1819.25,-82.18 1874.95,-77.96 1913.38,-74.89"/>
<polygon fill="#63b8ff" stroke="#63b8ff" points="1914.06,-78.35 1923.74,-74.05 1913.5,-71.37 1914.06,-78.35"/>
</a>
</g>
</g>
<!-- Node31&#45;&gt;Node8 -->
<g id="edge69_Node000031_Node000008" class="edge">
<title>Node31&#45;&gt;Node8</title>
<g id="a_edge69_Node000031_Node000008"><a xlink:title=" ">
<path fill="none" stroke="#63b8ff" d="M709.4,-128.35C634.86,-119.7 502.85,-103.49 390.5,-85 378.23,-82.98 364.83,-80.43 353.01,-78.06"/>
<polygon fill="#63b8ff" stroke="#63b8ff" points="353.6,-74.61 343.1,-76.04 352.2,-81.47 353.6,-74.61"/>
</a>
</g>
</g>
<!-- Node31&#45;&gt;Node11 -->
<g id="edge62_Node000031_Node000011" class="edge">
<title>Node31&#45;&gt;Node11</title>
<g id="a_edge62_Node000031_Node000011"><a xlink:title=" ">
<path fill="none" stroke="#63b8ff" d="M771.81,-120.96C775.11,-103.04 777.54,-72.31 760.5,-55 736.15,-30.27 500.95,-16.5 410.61,-12.08"/>
<polygon fill="#63b8ff" stroke="#63b8ff" points="410.73,-8.58 400.58,-11.6 410.4,-15.58 410.73,-8.58"/>
</a>
</g>
</g>
<!-- Node31&#45;&gt;Node12 -->
<g id="edge70_Node000031_Node000012" class="edge">
<title>Node31&#45;&gt;Node12</title>
<g id="a_edge70_Node000031_Node000012"><a xlink:title=" ">
<path fill="none" stroke="#63b8ff" d="M732.73,-120.95C704.02,-109.68 664.11,-94.01 636.69,-83.25"/>
<polygon fill="#63b8ff" stroke="#63b8ff" points="637.78,-79.91 627.19,-79.52 635.22,-86.43 637.78,-79.91"/>
</a>
</g>
</g>
<!-- Node31&#45;&gt;Node15 -->
<g id="edge71_Node000031_Node000015" class="edge">
<title>Node31&#45;&gt;Node15</title>
<g id="a_edge71_Node000031_Node000015"><a xlink:title=" ">
<path fill="none" stroke="#63b8ff" d="M709.46,-122.81C657.62,-112.11 582.15,-96.53 527.53,-85.25"/>
<polygon fill="#63b8ff" stroke="#63b8ff" points="528.08,-81.79 517.58,-83.2 526.67,-88.65 528.08,-81.79"/>
</a>
</g>
</g>
<!-- Node31&#45;&gt;Node16 -->
<g id="edge65_Node000031_Node000016" class="edge">
<title>Node31&#45;&gt;Node16</title>
<g id="a_edge65_Node000031_Node000016"><a xlink:title=" ">
<path fill="none" stroke="#63b8ff" d="M792.68,-120.81C805.82,-112 821.4,-99.58 831.5,-85 843.21,-68.1 849.46,-45.16 852.61,-29.22"/>
<polygon fill="#63b8ff" stroke="#63b8ff" points="856.12,-29.49 854.4,-19.03 849.22,-28.28 856.12,-29.49"/>
</a>
</g>
</g>
<!-- Node31&#45;&gt;Node17 -->
<g id="edge68_Node000031_Node000017" class="edge">
<title>Node31&#45;&gt;Node17</title>
<g id="a_edge68_Node000031_Node000017"><a xlink:title=" ">
<path fill="none" stroke="#63b8ff" d="M780.01,-120.88C792.52,-103.71 808.83,-74.6 793.5,-55 777.15,-34.08 706.87,-21.59 659.39,-15.39"/>
<polygon fill="#63b8ff" stroke="#63b8ff" points="659.7,-11.9 649.34,-14.12 658.82,-18.84 659.7,-11.9"/>
</a>
</g>
</g>
</g>
</svg>

<g id="navigator" transform="translate(0 0)" fill="#404254">
  <rect fill="#f2f5e9" fill-opacity="0.5" stroke="#606060" stroke-width=".5" x="0" y="0" width="60" height="60"/>
  <use id="zoomplus" xlink:href="#zoomPlus" x="17" y="9" onmousedown="handleZoom(evt,'in')"/>
  <use id="zoomminus" xlink:href="#zoomMin" x="42" y="9" onmousedown="handleZoom(evt,'out')"/>
  <use id="reset" xlink:href="#resetDef" x="30" y="36" onmousedown="handleReset()"/>
   <use id="arrowup" xlink:href="#arrowUp" x="0" y="0" onmousedown="handlePan(0,-1)"/>
  <use id="arrowright" xlink:href="#arrowRight" x="0" y="0" onmousedown="handlePan(1,0)"/>
  <use id="arrowdown" xlink:href="#arrowDown" x="0" y="0" onmousedown="handlePan(0,1)"/>
  <use id="arrowleft" xlink:href="#arrowLeft" x="0" y="0" onmousedown="handlePan(-1,0)"/>
</g>
<svg viewBox="0 0 15 15" width="100%" height="30px" preserveAspectRatio="xMaxYMin meet">
 <g id="arrow_out" transform="scale(0.3 0.3)">
  <a xlink:href="wrapper_2uds__server_2uds__server_8hpp__incl_org.svg" target="_base">
   <rect id="button" ry="5" rx="5" y="6" x="6" height="38" width="38"
        fill="#f2f5e9" fill-opacity="0.5" stroke="#606060" stroke-width="1.0"/>
   <path id="arrow"
     d="M 11.500037,31.436501 C 11.940474,20.09759 22.043105,11.32322 32.158766,21.979434 L 37.068811,17.246167 C 37.068811,17.246167 37.088388,32 37.088388,32 L 22.160133,31.978069 C 22.160133,31.978069 26.997745,27.140456 26.997745,27.140456 C 18.528582,18.264221 13.291696,25.230495 11.500037,31.436501 z"
     style="fill:#404040;"/>
  </a>
 </g>
</svg>

<style type='text/css'>
<![CDATA[
[data-mouse-over-selected='false'] { opacity: 0.7; }
[data-mouse-over-selected='true']  { opacity: 1.0; }
]]>
</style>
<script type="application/ecmascript"><![CDATA[
document.addEventListener('DOMContentLoaded', (event) => {
  highlightEdges();
  highlightAdjacentNodes();
});
]]></script>
</svg>
