<?xml version="1.0" encoding="UTF-8" standalone="no"?>
<!DOCTYPE svg PUBLIC "-//W3C//DTD SVG 1.1//EN"
 "http://www.w3.org/Graphics/SVG/1.1/DTD/svg11.dtd">
<!-- Generated by graphviz version 2.43.0 (0)
 -->
<!-- Title: unilink/wrapper/tcp_client/tcp_client.hpp Pages: 1 -->
<svg width="460pt" height="236pt"
 viewBox="0.00 0.00 459.50 236.00" xmlns="http://www.w3.org/2000/svg" xmlns:xlink="http://www.w3.org/1999/xlink">

<svg id="main" version="1.1" xmlns="http://www.w3.org/2000/svg" xmlns:xlink="http://www.w3.org/1999/xlink" xml:space="preserve" onload="init(evt)">
<style type="text/css"><![CDATA[
.node, .edge {opacity: 0.7;}
.node.selected, .edge.selected {opacity: 1;}
.edge:hover path { stroke: red; }
.edge:hover polygon { stroke: red; fill: red; }
]]></style>
<script type="application/ecmascript" xlink:href="svg.min.js"/>
<svg id="graph" class="graph">
<g id="graph0" class="graph" transform="scale(1 1) rotate(0) translate(4 232)">
<title>unilink/wrapper/tcp_client/tcp_client.hpp</title>
<!-- Node1 -->
<g id="Node000001" class="node">
<title>Node1</title>
<g id="a_Node000001"><a xlink:title=" ">
<polygon fill="#999999" stroke="#666666" points="370,-228 250,-228 250,-198 370,-198 370,-228"/>
<text text-anchor="start" x="258" y="-216" font-family="Helvetica,sans-Serif" font-size="10.00">unilink/wrapper/tcp</text>
<text text-anchor="middle" x="310" y="-205" font-family="Helvetica,sans-Serif" font-size="10.00">_client/tcp_client.hpp</text>
</a>
</g>
</g>
<!-- Node2 -->
<g id="Node000002" class="node">
<title>Node2</title>
<g id="a_Node000002"><a xlink:href="tcp__client__builder_8hpp.html" target="_top" xlink:title=" ">
<polygon fill="white" stroke="#666666" points="260,-162 152,-162 152,-132 260,-132 260,-162"/>
<text text-anchor="start" x="160" y="-150" font-family="Helvetica,sans-Serif" font-size="10.00">unilink/builder/tcp</text>
<text text-anchor="middle" x="206" y="-139" font-family="Helvetica,sans-Serif" font-size="10.00">_client_builder.hpp</text>
</a>
</g>
</g>
<!-- Node1&#45;&gt;Node2 -->
<g id="edge1_Node000001_Node000002" class="edge">
<title>Node1&#45;&gt;Node2</title>
<g id="a_edge1_Node000001_Node000002"><a xlink:title=" ">
<path fill="none" stroke="#63b8ff" d="M278.63,-192.69C262.57,-182.82 243.39,-171.01 228.77,-162.01"/>
<polygon fill="#63b8ff" stroke="#63b8ff" points="276.83,-195.69 287.18,-197.95 280.49,-189.73 276.83,-195.69"/>
</a>
</g>
</g>
<!-- Node6 -->
<g id="Node000006" class="node">
<title>Node6</title>
<g id="a_Node000006"><a xlink:href="unilink_8hpp.html" target="_top" xlink:title=" ">
<polygon fill="white" stroke="#666666" points="344.5,-24.5 237.5,-24.5 237.5,-5.5 344.5,-5.5 344.5,-24.5"/>
<text text-anchor="middle" x="291" y="-12.5" font-family="Helvetica,sans-Serif" font-size="10.00">unilink/unilink.hpp</text>
</a>
</g>
</g>
<!-- Node1&#45;&gt;Node6 -->
<g id="edge7_Node000001_Node000006" class="edge">
<title>Node1&#45;&gt;Node6</title>
<g id="a_edge7_Node000001_Node000006"><a xlink:title=" ">
<path fill="none" stroke="#63b8ff" d="M307.66,-187.83C303.41,-143.97 294.6,-53.18 291.85,-24.73"/>
<polygon fill="#63b8ff" stroke="#63b8ff" points="304.18,-188.29 308.63,-197.9 311.15,-187.61 304.18,-188.29"/>
</a>
</g>
</g>
<!-- Node7 -->
<g id="Node000007" class="node">
<title>Node7</title>
<g id="a_Node000007"><a xlink:href="wrapper_2tcp__client_2tcp__client_8cc.html" target="_top" xlink:title=" ">
<polygon fill="white" stroke="#666666" points="451.5,-162 338.5,-162 338.5,-132 451.5,-132 451.5,-162"/>
<text text-anchor="start" x="346.5" y="-150" font-family="Helvetica,sans-Serif" font-size="10.00">unilink/wrapper/tcp</text>
<text text-anchor="middle" x="395" y="-139" font-family="Helvetica,sans-Serif" font-size="10.00">_client/tcp_client.cc</text>
</a>
</g>
</g>
<!-- Node1&#45;&gt;Node7 -->
<g id="edge8_Node000001_Node000007" class="edge">
<title>Node1&#45;&gt;Node7</title>
<g id="a_edge8_Node000001_Node000007"><a xlink:title=" ">
<path fill="none" stroke="#63b8ff" d="M336.89,-191.75C349.67,-182.13 364.64,-170.86 376.19,-162.16"/>
<polygon fill="#63b8ff" stroke="#63b8ff" points="334.75,-188.99 328.86,-197.8 338.96,-194.58 334.75,-188.99"/>
</a>
</g>
</g>
<!-- Node3 -->
<g id="Node000003" class="node">
<title>Node3</title>
<g id="a_Node000003"><a xlink:href="tcp__client__builder_8cc.html" target="_top" xlink:title=" ">
<polygon fill="white" stroke="#666666" points="104,-96 0,-96 0,-66 104,-66 104,-96"/>
<text text-anchor="start" x="8" y="-84" font-family="Helvetica,sans-Serif" font-size="10.00">unilink/builder/tcp</text>
<text text-anchor="middle" x="52" y="-73" font-family="Helvetica,sans-Serif" font-size="10.00">_client_builder.cc</text>
</a>
</g>
</g>
<!-- Node2&#45;&gt;Node3 -->
<g id="edge2_Node000002_Node000003" class="edge">
<title>Node2&#45;&gt;Node3</title>
<g id="a_edge2_Node000002_Node000003"><a xlink:title=" ">
<path fill="none" stroke="#63b8ff" d="M162.82,-128.05C138.42,-117.91 108.37,-105.43 85.72,-96.01"/>
<polygon fill="#63b8ff" stroke="#63b8ff" points="161.63,-131.35 172.2,-131.95 164.31,-124.89 161.63,-131.35"/>
</a>
</g>
</g>
<!-- Node4 -->
<g id="Node000004" class="node">
<title>Node4</title>
<g id="a_Node000004"><a xlink:href="unified__builder_8hpp.html" target="_top" xlink:title=" ">
<polygon fill="white" stroke="#666666" points="244,-96 122,-96 122,-66 244,-66 244,-96"/>
<text text-anchor="start" x="130" y="-84" font-family="Helvetica,sans-Serif" font-size="10.00">unilink/builder/unified</text>
<text text-anchor="middle" x="183" y="-73" font-family="Helvetica,sans-Serif" font-size="10.00">_builder.hpp</text>
</a>
</g>
</g>
<!-- Node2&#45;&gt;Node4 -->
<g id="edge3_Node000002_Node000004" class="edge">
<title>Node2&#45;&gt;Node4</title>
<g id="a_edge3_Node000002_Node000004"><a xlink:title=" ">
<path fill="none" stroke="#63b8ff" d="M197.41,-122.11C194.28,-113.38 190.83,-103.78 188.09,-96.16"/>
<polygon fill="#63b8ff" stroke="#63b8ff" points="194.22,-123.57 200.9,-131.8 200.81,-121.2 194.22,-123.57"/>
</a>
</g>
</g>
<!-- Node2&#45;&gt;Node6 -->
<g id="edge6_Node000002_Node000006" class="edge">
<title>Node2&#45;&gt;Node6</title>
<g id="a_edge6_Node000002_Node000006"><a xlink:title=" ">
<path fill="none" stroke="#63b8ff" d="M228.98,-124.53C237.19,-116.13 246.11,-106.09 253,-96 269.3,-72.13 282.15,-40.17 287.83,-24.88"/>
<polygon fill="#63b8ff" stroke="#63b8ff" points="226.35,-122.21 221.72,-131.74 231.28,-127.18 226.35,-122.21"/>
</a>
</g>
</g>
<!-- Node5 -->
<g id="Node000005" class="node">
<title>Node5</title>
<g id="a_Node000005"><a xlink:href="unified__builder_8cc.html" target="_top" xlink:title=" ">
<polygon fill="white" stroke="#666666" points="219,-30 97,-30 97,0 219,0 219,-30"/>
<text text-anchor="start" x="105" y="-18" font-family="Helvetica,sans-Serif" font-size="10.00">unilink/builder/unified</text>
<text text-anchor="middle" x="158" y="-7" font-family="Helvetica,sans-Serif" font-size="10.00">_builder.cc</text>
</a>
</g>
</g>
<!-- Node4&#45;&gt;Node5 -->
<g id="edge4_Node000004_Node000005" class="edge">
<title>Node4&#45;&gt;Node5</title>
<g id="a_edge4_Node000004_Node000005"><a xlink:title=" ">
<path fill="none" stroke="#63b8ff" d="M173.78,-56.39C170.34,-47.59 166.54,-37.86 163.53,-30.16"/>
<polygon fill="#63b8ff" stroke="#63b8ff" points="170.55,-57.76 177.45,-65.8 177.07,-55.21 170.55,-57.76"/>
</a>
</g>
</g>
<!-- Node4&#45;&gt;Node6 -->
<g id="edge5_Node000004_Node000006" class="edge">
<title>Node4&#45;&gt;Node6</title>
<g id="a_edge5_Node000004_Node000006"><a xlink:title=" ">
<path fill="none" stroke="#63b8ff" d="M215.38,-60.81C235.77,-48.73 261.07,-33.73 276.63,-24.52"/>
<polygon fill="#63b8ff" stroke="#63b8ff" points="213.52,-57.85 206.7,-65.95 217.09,-63.87 213.52,-57.85"/>
</a>
</g>
</g>
</g>
</svg>
</svg>

<style type='text/css'>
<![CDATA[
[data-mouse-over-selected='false'] { opacity: 0.7; }
[data-mouse-over-selected='true']  { opacity: 1.0; }
]]>
</style>
<script type="application/ecmascript"><![CDATA[
document.addEventListener('DOMContentLoaded', (event) => {
  highlightEdges();
  highlightAdjacentNodes();
});
]]></script>
</svg>
