<?xml version="1.0" encoding="UTF-8" standalone="no"?>
<!DOCTYPE svg PUBLIC "-//W3C//DTD SVG 1.1//EN"
 "http://www.w3.org/Graphics/SVG/1.1/DTD/svg11.dtd">
<!-- Generated by graphviz version 2.43.0 (0)
 -->
<!-- Title: unilink/wrapper/udp/udp.hpp Pages: 1 -->
<svg width="2214pt" height="412pt"
 viewBox="0.00 0.00 2213.50 412.00" xmlns="http://www.w3.org/2000/svg" xmlns:xlink="http://www.w3.org/1999/xlink">
<g id="graph0" class="graph" transform="scale(1 1) rotate(0) translate(4 408)">
<title>unilink/wrapper/udp/udp.hpp</title>
<!-- Node1 -->
<g id="Node000001" class="node">
<title>Node1</title>
<g id="a_Node000001"><a xlink:title=" ">
<polygon fill="#999999" stroke="#666666" points="668.5,-404 555.5,-404 555.5,-374 668.5,-374 668.5,-404"/>
<text text-anchor="start" x="563.5" y="-392" font-family="Helvetica,sans-Serif" font-size="10.00">unilink/wrapper/udp</text>
<text text-anchor="middle" x="612" y="-381" font-family="Helvetica,sans-Serif" font-size="10.00">/udp.hpp</text>
</a>
</g>
</g>
<!-- Node2 -->
<g id="Node000002" class="node">
<title>Node2</title>
<g id="a_Node000002"><a xlink:title=" ">
<polygon fill="#e0e0e0" stroke="#999999" points="1133,-79.5 1083,-79.5 1083,-60.5 1133,-60.5 1133,-79.5"/>
<text text-anchor="middle" x="1108" y="-67.5" font-family="Helvetica,sans-Serif" font-size="10.00">chrono</text>
</a>
</g>
</g>
<!-- Node1&#45;&gt;Node2 -->
<g id="edge1_Node000001_Node000002" class="edge">
<title>Node1&#45;&gt;Node2</title>
<g id="a_edge1_Node000001_Node000002"><a xlink:title=" ">
<path fill="none" stroke="#63b8ff" d="M668.86,-388.55C910.76,-390.13 1842,-388.47 1842,-269 1842,-269 1842,-269 1842,-201 1842,-101.54 1729.84,-143.7 1633,-121 1452.41,-78.67 1228.87,-72.02 1143.44,-71.09"/>
<polygon fill="#63b8ff" stroke="#63b8ff" points="1143.29,-67.59 1133.26,-71 1143.22,-74.59 1143.29,-67.59"/>
</a>
</g>
</g>
<!-- Node3 -->
<g id="Node000003" class="node">
<title>Node3</title>
<g id="a_Node000003"><a xlink:title=" ">
<polygon fill="#e0e0e0" stroke="#999999" points="231.5,-79.5 166.5,-79.5 166.5,-60.5 231.5,-60.5 231.5,-79.5"/>
<text text-anchor="middle" x="199" y="-67.5" font-family="Helvetica,sans-Serif" font-size="10.00">functional</text>
</a>
</g>
</g>
<!-- Node1&#45;&gt;Node3 -->
<g id="edge2_Node000001_Node000003" class="edge">
<title>Node1&#45;&gt;Node3</title>
<g id="a_edge2_Node000001_Node000003"><a xlink:title=" ">
<path fill="none" stroke="#63b8ff" d="M555.4,-387.32C417.62,-384.13 76,-366.41 76,-269 76,-269 76,-269 76,-201 76,-145.67 135.52,-104.41 171.75,-84.42"/>
<polygon fill="#63b8ff" stroke="#63b8ff" points="173.67,-87.37 180.85,-79.58 170.38,-81.19 173.67,-87.37"/>
</a>
</g>
</g>
<!-- Node4 -->
<g id="Node000004" class="node">
<title>Node4</title>
<g id="a_Node000004"><a xlink:title=" ">
<polygon fill="#e0e0e0" stroke="#999999" points="226,-277.5 180,-277.5 180,-258.5 226,-258.5 226,-277.5"/>
<text text-anchor="middle" x="203" y="-265.5" font-family="Helvetica,sans-Serif" font-size="10.00">future</text>
</a>
</g>
</g>
<!-- Node1&#45;&gt;Node4 -->
<g id="edge3_Node000001_Node000004" class="edge">
<title>Node1&#45;&gt;Node4</title>
<g id="a_edge3_Node000001_Node000004"><a xlink:title=" ">
<path fill="none" stroke="#63b8ff" d="M555.38,-384.09C496,-378.64 400.7,-366.06 323,-338 285.29,-324.38 245.76,-299.2 222.8,-283.32"/>
<polygon fill="#63b8ff" stroke="#63b8ff" points="224.77,-280.43 214.58,-277.53 220.74,-286.15 224.77,-280.43"/>
</a>
</g>
</g>
<!-- Node5 -->
<g id="Node000005" class="node">
<title>Node5</title>
<g id="a_Node000005"><a xlink:title=" ">
<polygon fill="#e0e0e0" stroke="#999999" points="148,-79.5 90,-79.5 90,-60.5 148,-60.5 148,-79.5"/>
<text text-anchor="middle" x="119" y="-67.5" font-family="Helvetica,sans-Serif" font-size="10.00">memory</text>
</a>
</g>
</g>
<!-- Node1&#45;&gt;Node5 -->
<g id="edge4_Node000001_Node000005" class="edge">
<title>Node1&#45;&gt;Node5</title>
<g id="a_edge4_Node000001_Node000005"><a xlink:title=" ">
<path fill="none" stroke="#63b8ff" d="M555.25,-388.89C403.53,-389.76 0,-381.5 0,-269 0,-269 0,-269 0,-201 0,-146.37 57.88,-104.71 92.91,-84.5"/>
<polygon fill="#63b8ff" stroke="#63b8ff" points="94.67,-87.53 101.7,-79.6 91.26,-81.41 94.67,-87.53"/>
</a>
</g>
</g>
<!-- Node6 -->
<g id="Node000006" class="node">
<title>Node6</title>
<g id="a_Node000006"><a xlink:title=" ">
<polygon fill="#e0e0e0" stroke="#999999" points="1750,-79.5 1706,-79.5 1706,-60.5 1750,-60.5 1750,-79.5"/>
<text text-anchor="middle" x="1728" y="-67.5" font-family="Helvetica,sans-Serif" font-size="10.00">string</text>
</a>
</g>
</g>
<!-- Node1&#45;&gt;Node6 -->
<g id="edge5_Node000001_Node000006" class="edge">
<title>Node1&#45;&gt;Node6</title>
<g id="a_edge5_Node000001_Node000006"><a xlink:title=" ">
<path fill="none" stroke="#63b8ff" d="M668.73,-386.94C884.11,-382.73 1644.31,-365.99 1749,-338 1851.86,-310.49 1988.83,-278.87 1935,-187 1896.97,-122.1 1807.88,-90.76 1759.91,-78.13"/>
<polygon fill="#63b8ff" stroke="#63b8ff" points="1760.61,-74.7 1750.06,-75.65 1758.9,-81.49 1760.61,-74.7"/>
</a>
</g>
</g>
<!-- Node7 -->
<g id="Node000007" class="node">
<title>Node7</title>
<g id="a_Node000007"><a xlink:title=" ">
<polygon fill="#e0e0e0" stroke="#999999" points="847.5,-79.5 774.5,-79.5 774.5,-60.5 847.5,-60.5 847.5,-79.5"/>
<text text-anchor="middle" x="811" y="-67.5" font-family="Helvetica,sans-Serif" font-size="10.00">string_view</text>
</a>
</g>
</g>
<!-- Node1&#45;&gt;Node7 -->
<g id="edge6_Node000001_Node000007" class="edge">
<title>Node1&#45;&gt;Node7</title>
<g id="a_edge6_Node000001_Node000007"><a xlink:title=" ">
<path fill="none" stroke="#63b8ff" d="M668.59,-376.11C722.01,-361.18 794,-329.78 794,-269 794,-269 794,-269 794,-201 794,-161.13 801.96,-114.95 806.99,-89.77"/>
<polygon fill="#63b8ff" stroke="#63b8ff" points="810.46,-90.28 809.05,-79.78 803.6,-88.86 810.46,-90.28"/>
</a>
</g>
</g>
<!-- Node8 -->
<g id="Node000008" class="node">
<title>Node8</title>
<g id="a_Node000008"><a xlink:href="constants_8hpp.html" target="_top" xlink:title=" ">
<polygon fill="white" stroke="#666666" points="2205.5,-211.5 2058.5,-211.5 2058.5,-192.5 2205.5,-192.5 2205.5,-211.5"/>
<text text-anchor="middle" x="2132" y="-199.5" font-family="Helvetica,sans-Serif" font-size="10.00">unilink/base/constants.hpp</text>
</a>
</g>
</g>
<!-- Node1&#45;&gt;Node8 -->
<g id="edge7_Node000001_Node000008" class="edge">
<title>Node1&#45;&gt;Node8</title>
<g id="a_edge7_Node000001_Node000008"><a xlink:title=" ">
<path fill="none" stroke="#63b8ff" d="M668.5,-387.5C911.85,-385.12 1864.08,-373.61 1993,-338 2041.89,-324.49 2058.03,-319.74 2093,-283 2109.85,-265.3 2120.77,-238.93 2126.65,-221.36"/>
<polygon fill="#63b8ff" stroke="#63b8ff" points="2130.02,-222.31 2129.67,-211.72 2123.34,-220.22 2130.02,-222.31"/>
</a>
</g>
</g>
<!-- Node11 -->
<g id="Node000011" class="node">
<title>Node11</title>
<g id="a_Node000011"><a xlink:href="visibility_8hpp.html" target="_top" xlink:title=" ">
<polygon fill="white" stroke="#666666" points="390,-79.5 250,-79.5 250,-60.5 390,-60.5 390,-79.5"/>
<text text-anchor="middle" x="320" y="-67.5" font-family="Helvetica,sans-Serif" font-size="10.00">unilink/base/visibility.hpp</text>
</a>
</g>
</g>
<!-- Node1&#45;&gt;Node11 -->
<g id="edge10_Node000001_Node000011" class="edge">
<title>Node1&#45;&gt;Node11</title>
<g id="a_edge10_Node000001_Node000011"><a xlink:title=" ">
<path fill="none" stroke="#63b8ff" d="M555.13,-385.22C432.06,-377.66 152,-351.39 152,-269 152,-269 152,-269 152,-201 152,-136.86 229.53,-99.87 279.25,-82.75"/>
<polygon fill="#63b8ff" stroke="#63b8ff" points="280.4,-86.05 288.79,-79.58 278.2,-79.41 280.4,-86.05"/>
</a>
</g>
</g>
<!-- Node12 -->
<g id="Node000012" class="node">
<title>Node12</title>
<g id="a_Node000012"><a xlink:href="udp__config_8hpp.html" target="_top" xlink:title=" ">
<polygon fill="white" stroke="#666666" points="2083.5,-283 1980.5,-283 1980.5,-253 2083.5,-253 2083.5,-283"/>
<text text-anchor="start" x="1988.5" y="-271" font-family="Helvetica,sans-Serif" font-size="10.00">unilink/config/udp</text>
<text text-anchor="middle" x="2032" y="-260" font-family="Helvetica,sans-Serif" font-size="10.00">_config.hpp</text>
</a>
</g>
</g>
<!-- Node1&#45;&gt;Node12 -->
<g id="edge11_Node000001_Node000012" class="edge">
<title>Node1&#45;&gt;Node12</title>
<g id="a_edge11_Node000001_Node000012"><a xlink:title=" ">
<path fill="none" stroke="#63b8ff" d="M668.54,-388.41C909.84,-389.8 1846.51,-391.68 1966,-338 1987.69,-328.26 2005.79,-307.77 2017.52,-291.64"/>
<polygon fill="#63b8ff" stroke="#63b8ff" points="2020.54,-293.43 2023.36,-283.22 2014.79,-289.44 2020.54,-293.43"/>
</a>
</g>
</g>
<!-- Node14 -->
<g id="Node000014" class="node">
<title>Node14</title>
<g id="a_Node000014"><a xlink:href="ichannel_8hpp.html" target="_top" xlink:title=" ">
<polygon fill="white" stroke="#666666" points="490,-338 332,-338 332,-319 490,-319 490,-338"/>
<text text-anchor="middle" x="411" y="-326" font-family="Helvetica,sans-Serif" font-size="10.00">unilink/wrapper/ichannel.hpp</text>
</a>
</g>
</g>
<!-- Node1&#45;&gt;Node14 -->
<g id="edge16_Node000001_Node000014" class="edge">
<title>Node1&#45;&gt;Node14</title>
<g id="a_edge16_Node000001_Node000014"><a xlink:title=" ">
<path fill="none" stroke="#63b8ff" d="M563.86,-373.99C529.02,-363.85 482.53,-350.32 450.01,-340.85"/>
<polygon fill="#63b8ff" stroke="#63b8ff" points="450.97,-337.49 440.39,-338.05 449.01,-344.21 450.97,-337.49"/>
</a>
</g>
</g>
<!-- Node9 -->
<g id="Node000009" class="node">
<title>Node9</title>
<g id="a_Node000009"><a xlink:title=" ">
<polygon fill="#e0e0e0" stroke="#999999" points="2111.5,-145.5 2058.5,-145.5 2058.5,-126.5 2111.5,-126.5 2111.5,-145.5"/>
<text text-anchor="middle" x="2085" y="-133.5" font-family="Helvetica,sans-Serif" font-size="10.00">cstddef</text>
</a>
</g>
</g>
<!-- Node8&#45;&gt;Node9 -->
<g id="edge8_Node000008_Node000009" class="edge">
<title>Node8&#45;&gt;Node9</title>
<g id="a_edge8_Node000008_Node000009"><a xlink:title=" ">
<path fill="none" stroke="#63b8ff" d="M2125.66,-192.37C2118.48,-182.59 2106.61,-166.42 2097.54,-154.08"/>
<polygon fill="#63b8ff" stroke="#63b8ff" points="2100.28,-151.89 2091.54,-145.91 2094.64,-156.04 2100.28,-151.89"/>
</a>
</g>
</g>
<!-- Node10 -->
<g id="Node000010" class="node">
<title>Node10</title>
<g id="a_Node000010"><a xlink:title=" ">
<polygon fill="#e0e0e0" stroke="#999999" points="1677,-19 1627,-19 1627,0 1677,0 1677,-19"/>
<text text-anchor="middle" x="1652" y="-7" font-family="Helvetica,sans-Serif" font-size="10.00">cstdint</text>
</a>
</g>
</g>
<!-- Node8&#45;&gt;Node10 -->
<g id="edge9_Node000008_Node000010" class="edge">
<title>Node8&#45;&gt;Node10</title>
<g id="a_edge9_Node000008_Node000010"><a xlink:title=" ">
<path fill="none" stroke="#63b8ff" d="M2132.73,-192.45C2133.64,-177.12 2133.76,-144.38 2121,-121 2099.41,-81.43 2085.32,-73 2044,-55 1980.24,-27.23 1770.99,-15.51 1687.17,-11.86"/>
<polygon fill="#63b8ff" stroke="#63b8ff" points="1687.27,-8.36 1677.13,-11.43 1686.97,-15.35 1687.27,-8.36"/>
</a>
</g>
</g>
<!-- Node12&#45;&gt;Node6 -->
<g id="edge14_Node000012_Node000006" class="edge">
<title>Node12&#45;&gt;Node6</title>
<g id="a_edge14_Node000012_Node000006"><a xlink:title=" ">
<path fill="none" stroke="#63b8ff" d="M2027.56,-252.6C2017.01,-219.33 1989.71,-138.61 1968,-121 1936.42,-95.38 1818.24,-80.15 1760.36,-74.07"/>
<polygon fill="#63b8ff" stroke="#63b8ff" points="1760.59,-70.58 1750.29,-73.04 1759.88,-77.54 1760.59,-70.58"/>
</a>
</g>
</g>
<!-- Node12&#45;&gt;Node8 -->
<g id="edge15_Node000012_Node000008" class="edge">
<title>Node12&#45;&gt;Node8</title>
<g id="a_edge15_Node000012_Node000008"><a xlink:title=" ">
<path fill="none" stroke="#63b8ff" d="M2054.19,-252.8C2070.8,-242.17 2093.4,-227.7 2109.97,-217.1"/>
<polygon fill="#63b8ff" stroke="#63b8ff" points="2111.94,-220 2118.47,-211.66 2108.16,-214.1 2111.94,-220"/>
</a>
</g>
</g>
<!-- Node12&#45;&gt;Node10 -->
<g id="edge12_Node000012_Node000010" class="edge">
<title>Node12&#45;&gt;Node10</title>
<g id="a_edge12_Node000012_Node000010"><a xlink:title=" ">
<path fill="none" stroke="#63b8ff" d="M2032.45,-252.57C2032.53,-223.28 2028.34,-156.62 1991,-121 1904.49,-38.46 1755.52,-17.57 1687.61,-12.29"/>
<polygon fill="#63b8ff" stroke="#63b8ff" points="1687.65,-8.78 1677.42,-11.56 1687.15,-15.76 1687.65,-8.78"/>
</a>
</g>
</g>
<!-- Node13 -->
<g id="Node000013" class="node">
<title>Node13</title>
<g id="a_Node000013"><a xlink:title=" ">
<polygon fill="#e0e0e0" stroke="#999999" points="1926,-211.5 1870,-211.5 1870,-192.5 1926,-192.5 1926,-211.5"/>
<text text-anchor="middle" x="1898" y="-199.5" font-family="Helvetica,sans-Serif" font-size="10.00">optional</text>
</a>
</g>
</g>
<!-- Node12&#45;&gt;Node13 -->
<g id="edge13_Node000012_Node000013" class="edge">
<title>Node12&#45;&gt;Node13</title>
<g id="a_edge13_Node000012_Node000013"><a xlink:title=" ">
<path fill="none" stroke="#63b8ff" d="M2002.59,-252.95C1979.51,-241.93 1947.62,-226.7 1925.14,-215.96"/>
<polygon fill="#63b8ff" stroke="#63b8ff" points="1926.37,-212.67 1915.83,-211.52 1923.35,-218.99 1926.37,-212.67"/>
</a>
</g>
</g>
<!-- Node14&#45;&gt;Node3 -->
<g id="edge17_Node000014_Node000003" class="edge">
<title>Node14&#45;&gt;Node3</title>
<g id="a_edge17_Node000014_Node000003"><a xlink:title=" ">
<path fill="none" stroke="#63b8ff" d="M391.21,-318.98C345.72,-298.16 234.36,-239.81 192,-151 182.74,-131.59 187.18,-106.54 192.17,-89.68"/>
<polygon fill="#63b8ff" stroke="#63b8ff" points="195.58,-90.52 195.39,-79.93 188.93,-88.32 195.58,-90.52"/>
</a>
</g>
</g>
<!-- Node14&#45;&gt;Node4 -->
<g id="edge18_Node000014_Node000004" class="edge">
<title>Node14&#45;&gt;Node4</title>
<g id="a_edge18_Node000014_Node000004"><a xlink:title=" ">
<path fill="none" stroke="#63b8ff" d="M373.65,-319C338.78,-310.78 285.45,-297.47 240,-283 238.09,-282.39 236.13,-281.74 234.16,-281.06"/>
<polygon fill="#63b8ff" stroke="#63b8ff" points="234.98,-277.64 224.38,-277.54 232.6,-284.22 234.98,-277.64"/>
</a>
</g>
</g>
<!-- Node14&#45;&gt;Node5 -->
<g id="edge19_Node000014_Node000005" class="edge">
<title>Node14&#45;&gt;Node5</title>
<g id="a_edge19_Node000014_Node000005"><a xlink:title=" ">
<path fill="none" stroke="#63b8ff" d="M370.5,-318.99C343.24,-312.07 307.26,-300.53 279,-283 199.89,-233.92 146.05,-130.4 126.82,-88.83"/>
<polygon fill="#63b8ff" stroke="#63b8ff" points="129.99,-87.34 122.68,-79.67 123.61,-90.22 129.99,-87.34"/>
</a>
</g>
</g>
<!-- Node14&#45;&gt;Node6 -->
<g id="edge20_Node000014_Node000006" class="edge">
<title>Node14&#45;&gt;Node6</title>
<g id="a_edge20_Node000014_Node000006"><a xlink:title=" ">
<path fill="none" stroke="#63b8ff" d="M490.38,-324.68C725.35,-315.65 1414.31,-284.02 1628,-217 1684.6,-199.25 1714.18,-202.28 1744,-151 1755.31,-131.55 1746.43,-105.44 1738.05,-88.42"/>
<polygon fill="#63b8ff" stroke="#63b8ff" points="1741.13,-86.75 1733.34,-79.57 1734.95,-90.04 1741.13,-86.75"/>
</a>
</g>
</g>
<!-- Node14&#45;&gt;Node7 -->
<g id="edge21_Node000014_Node000007" class="edge">
<title>Node14&#45;&gt;Node7</title>
<g id="a_edge21_Node000014_Node000007"><a xlink:title=" ">
<path fill="none" stroke="#63b8ff" d="M424.31,-318.97C482.68,-281.54 716.36,-131.69 789.2,-84.98"/>
<polygon fill="#63b8ff" stroke="#63b8ff" points="791.11,-87.91 797.64,-79.57 787.33,-82.02 791.11,-87.91"/>
</a>
</g>
</g>
<!-- Node14&#45;&gt;Node11 -->
<g id="edge23_Node000014_Node000011" class="edge">
<title>Node14&#45;&gt;Node11</title>
<g id="a_edge23_Node000014_Node000011"><a xlink:title=" ">
<path fill="none" stroke="#63b8ff" d="M410.14,-318.96C406.58,-284.57 392.25,-156.38 373,-121 365.39,-107.01 352.44,-94.69 341.25,-85.77"/>
<polygon fill="#63b8ff" stroke="#63b8ff" points="343.24,-82.89 333.16,-79.65 339.02,-88.48 343.24,-82.89"/>
</a>
</g>
</g>
<!-- Node15 -->
<g id="Node000015" class="node">
<title>Node15</title>
<g id="a_Node000015"><a xlink:title=" ">
<polygon fill="#e0e0e0" stroke="#999999" points="455.5,-79.5 408.5,-79.5 408.5,-60.5 455.5,-60.5 455.5,-79.5"/>
<text text-anchor="middle" x="432" y="-67.5" font-family="Helvetica,sans-Serif" font-size="10.00">vector</text>
</a>
</g>
</g>
<!-- Node14&#45;&gt;Node15 -->
<g id="edge22_Node000014_Node000015" class="edge">
<title>Node14&#45;&gt;Node15</title>
<g id="a_edge22_Node000014_Node000015"><a xlink:title=" ">
<path fill="none" stroke="#63b8ff" d="M411.7,-318.97C414.67,-282.68 426.29,-140.74 430.48,-89.54"/>
<polygon fill="#63b8ff" stroke="#63b8ff" points="433.97,-89.82 431.3,-79.57 426.99,-89.25 433.97,-89.82"/>
</a>
</g>
</g>
<!-- Node16 -->
<g id="Node000016" class="node">
<title>Node16</title>
<g id="a_Node000016"><a xlink:href="iframer_8hpp.html" target="_top" xlink:title=" ">
<polygon fill="white" stroke="#666666" points="363.5,-145.5 218.5,-145.5 218.5,-126.5 363.5,-126.5 363.5,-145.5"/>
<text text-anchor="middle" x="291" y="-133.5" font-family="Helvetica,sans-Serif" font-size="10.00">unilink/framer/iframer.hpp</text>
</a>
</g>
</g>
<!-- Node14&#45;&gt;Node16 -->
<g id="edge24_Node000014_Node000016" class="edge">
<title>Node14&#45;&gt;Node16</title>
<g id="a_edge24_Node000014_Node000016"><a xlink:title=" ">
<path fill="none" stroke="#63b8ff" d="M404.16,-318.82C397.29,-309.99 386.53,-295.81 378,-283 347.98,-237.95 316.31,-182.48 300.77,-154.67"/>
<polygon fill="#63b8ff" stroke="#63b8ff" points="303.72,-152.78 295.8,-145.74 297.6,-156.18 303.72,-152.78"/>
</a>
</g>
</g>
<!-- Node20 -->
<g id="Node000020" class="node">
<title>Node20</title>
<g id="a_Node000020"><a xlink:href="context_8hpp.html" target="_top" xlink:title=" ">
<polygon fill="white" stroke="#666666" points="765.5,-277.5 612.5,-277.5 612.5,-258.5 765.5,-258.5 765.5,-277.5"/>
<text text-anchor="middle" x="689" y="-265.5" font-family="Helvetica,sans-Serif" font-size="10.00">unilink/wrapper/context.hpp</text>
</a>
</g>
</g>
<!-- Node14&#45;&gt;Node20 -->
<g id="edge33_Node000014_Node000020" class="edge">
<title>Node14&#45;&gt;Node20</title>
<g id="a_edge33_Node000014_Node000020"><a xlink:title=" ">
<path fill="none" stroke="#63b8ff" d="M451.42,-318.99C500.94,-308.57 584.84,-290.92 638.54,-279.62"/>
<polygon fill="#63b8ff" stroke="#63b8ff" points="639.46,-283 648.53,-277.52 638.02,-276.15 639.46,-283"/>
</a>
</g>
</g>
<!-- Node16&#45;&gt;Node3 -->
<g id="edge25_Node000016_Node000003" class="edge">
<title>Node16&#45;&gt;Node3</title>
<g id="a_edge25_Node000016_Node000003"><a xlink:title=" ">
<path fill="none" stroke="#63b8ff" d="M278.59,-126.37C263.64,-115.97 238.28,-98.32 220.2,-85.75"/>
<polygon fill="#63b8ff" stroke="#63b8ff" points="221.71,-82.54 211.5,-79.7 217.72,-88.28 221.71,-82.54"/>
</a>
</g>
</g>
<!-- Node16&#45;&gt;Node5 -->
<g id="edge26_Node000016_Node000005" class="edge">
<title>Node16&#45;&gt;Node5</title>
<g id="a_edge26_Node000016_Node000005"><a xlink:title=" ">
<path fill="none" stroke="#63b8ff" d="M267.8,-126.37C237.84,-115.22 185.52,-95.75 151.58,-83.12"/>
<polygon fill="#63b8ff" stroke="#63b8ff" points="152.7,-79.8 142.1,-79.6 150.25,-86.36 152.7,-79.8"/>
</a>
</g>
</g>
<!-- Node16&#45;&gt;Node11 -->
<g id="edge28_Node000016_Node000011" class="edge">
<title>Node16&#45;&gt;Node11</title>
<g id="a_edge28_Node000016_Node000011"><a xlink:title=" ">
<path fill="none" stroke="#63b8ff" d="M294.91,-126.37C299.21,-116.88 306.24,-101.36 311.77,-89.16"/>
<polygon fill="#63b8ff" stroke="#63b8ff" points="315.03,-90.46 315.96,-79.91 308.65,-87.57 315.03,-90.46"/>
</a>
</g>
</g>
<!-- Node16&#45;&gt;Node15 -->
<g id="edge27_Node000016_Node000015" class="edge">
<title>Node16&#45;&gt;Node15</title>
<g id="a_edge27_Node000016_Node000015"><a xlink:title=" ">
<path fill="none" stroke="#63b8ff" d="M310.02,-126.37C334.09,-115.44 375.77,-96.52 403.61,-83.88"/>
<polygon fill="#63b8ff" stroke="#63b8ff" points="405.18,-87.02 412.84,-79.7 402.28,-80.65 405.18,-87.02"/>
</a>
</g>
</g>
<!-- Node17 -->
<g id="Node000017" class="node">
<title>Node17</title>
<g id="a_Node000017"><a xlink:href="safe__span_8hpp.html" target="_top" xlink:title=" ">
<polygon fill="white" stroke="#666666" points="630,-85 512,-85 512,-55 630,-55 630,-85"/>
<text text-anchor="start" x="520" y="-73" font-family="Helvetica,sans-Serif" font-size="10.00">unilink/memory/safe</text>
<text text-anchor="middle" x="571" y="-62" font-family="Helvetica,sans-Serif" font-size="10.00">_span.hpp</text>
</a>
</g>
</g>
<!-- Node16&#45;&gt;Node17 -->
<g id="edge29_Node000016_Node000017" class="edge">
<title>Node16&#45;&gt;Node17</title>
<g id="a_edge29_Node000016_Node000017"><a xlink:title=" ">
<path fill="none" stroke="#63b8ff" d="M328.47,-126.44C372.66,-116.33 447.02,-99.34 501.78,-86.82"/>
<polygon fill="#63b8ff" stroke="#63b8ff" points="502.79,-90.18 511.76,-84.54 501.23,-83.36 502.79,-90.18"/>
</a>
</g>
</g>
<!-- Node17&#45;&gt;Node10 -->
<g id="edge30_Node000017_Node000010" class="edge">
<title>Node17&#45;&gt;Node10</title>
<g id="a_edge30_Node000017_Node000010"><a xlink:title=" ">
<path fill="none" stroke="#63b8ff" d="M630.37,-56.34C633.62,-55.84 636.85,-55.39 640,-55 1020.31,-8.35 1486.3,-8.87 1616.65,-10.06"/>
<polygon fill="#63b8ff" stroke="#63b8ff" points="1616.81,-13.56 1626.84,-10.16 1616.88,-6.56 1616.81,-13.56"/>
</a>
</g>
</g>
<!-- Node18 -->
<g id="Node000018" class="node">
<title>Node18</title>
<g id="a_Node000018"><a xlink:title=" ">
<polygon fill="#e0e0e0" stroke="#999999" points="626,-19 586,-19 586,0 626,0 626,-19"/>
<text text-anchor="middle" x="606" y="-7" font-family="Helvetica,sans-Serif" font-size="10.00">span</text>
</a>
</g>
</g>
<!-- Node17&#45;&gt;Node18 -->
<g id="edge31_Node000017_Node000018" class="edge">
<title>Node17&#45;&gt;Node18</title>
<g id="a_edge31_Node000017_Node000018"><a xlink:title=" ">
<path fill="none" stroke="#63b8ff" d="M579.47,-54.84C584.29,-46.78 590.37,-36.62 595.5,-28.06"/>
<polygon fill="#63b8ff" stroke="#63b8ff" points="598.62,-29.64 600.76,-19.27 592.62,-26.05 598.62,-29.64"/>
</a>
</g>
</g>
<!-- Node19 -->
<g id="Node000019" class="node">
<title>Node19</title>
<g id="a_Node000019"><a xlink:title=" ">
<polygon fill="#e0e0e0" stroke="#999999" points="567.5,-19 502.5,-19 502.5,0 567.5,0 567.5,-19"/>
<text text-anchor="middle" x="535" y="-7" font-family="Helvetica,sans-Serif" font-size="10.00">stdexcept</text>
</a>
</g>
</g>
<!-- Node17&#45;&gt;Node19 -->
<g id="edge32_Node000017_Node000019" class="edge">
<title>Node17&#45;&gt;Node19</title>
<g id="a_edge32_Node000017_Node000019"><a xlink:title=" ">
<path fill="none" stroke="#63b8ff" d="M562.29,-54.84C557.33,-46.78 551.07,-36.62 545.8,-28.06"/>
<polygon fill="#63b8ff" stroke="#63b8ff" points="548.62,-25.95 540.39,-19.27 542.65,-29.62 548.62,-25.95"/>
</a>
</g>
</g>
<!-- Node20&#45;&gt;Node6 -->
<g id="edge35_Node000020_Node000006" class="edge">
<title>Node20&#45;&gt;Node6</title>
<g id="a_edge35_Node000020_Node000006"><a xlink:title=" ">
<path fill="none" stroke="#63b8ff" d="M765.82,-265.28C946.45,-260.78 1393.99,-246.9 1541,-217 1626.55,-199.6 1674.81,-221.72 1726,-151 1738.76,-133.37 1736.65,-107.35 1733.09,-89.82"/>
<polygon fill="#63b8ff" stroke="#63b8ff" points="1736.41,-88.62 1730.69,-79.7 1729.6,-90.23 1736.41,-88.62"/>
</a>
</g>
</g>
<!-- Node20&#45;&gt;Node7 -->
<g id="edge36_Node000020_Node000007" class="edge">
<title>Node20&#45;&gt;Node7</title>
<g id="a_edge36_Node000020_Node000007"><a xlink:title=" ">
<path fill="none" stroke="#63b8ff" d="M694.4,-258.33C713.06,-228.35 775.05,-128.75 800.23,-88.3"/>
<polygon fill="#63b8ff" stroke="#63b8ff" points="803.35,-89.91 805.66,-79.57 797.41,-86.21 803.35,-89.91"/>
</a>
</g>
</g>
<!-- Node20&#45;&gt;Node13 -->
<g id="edge34_Node000020_Node000013" class="edge">
<title>Node20&#45;&gt;Node13</title>
<g id="a_edge34_Node000020_Node000013"><a xlink:title=" ">
<path fill="none" stroke="#63b8ff" d="M765.51,-265.4C943.65,-261.24 1399.93,-248.21 1780,-217 1806.74,-214.8 1836.78,-211.22 1859.85,-208.24"/>
<polygon fill="#63b8ff" stroke="#63b8ff" points="1860.47,-211.68 1869.92,-206.91 1859.55,-204.74 1860.47,-211.68"/>
</a>
</g>
</g>
<!-- Node20&#45;&gt;Node15 -->
<g id="edge37_Node000020_Node000015" class="edge">
<title>Node20&#45;&gt;Node15</title>
<g id="a_edge37_Node000020_Node000015"><a xlink:title=" ">
<path fill="none" stroke="#63b8ff" d="M665.79,-258.49C624.78,-242.55 538.5,-204.87 482,-151 463.07,-132.96 448.31,-106.3 439.87,-88.79"/>
<polygon fill="#63b8ff" stroke="#63b8ff" points="443.03,-87.28 435.65,-79.68 436.68,-90.22 443.03,-87.28"/>
</a>
</g>
</g>
<!-- Node20&#45;&gt;Node17 -->
<g id="edge78_Node000020_Node000017" class="edge">
<title>Node20&#45;&gt;Node17</title>
<g id="a_edge78_Node000020_Node000017"><a xlink:title=" ">
<path fill="none" stroke="#63b8ff" d="M689.71,-258.46C691.28,-234.36 692.63,-164.69 661,-121 651.19,-107.45 636.53,-97.13 621.87,-89.48"/>
<polygon fill="#63b8ff" stroke="#63b8ff" points="623.31,-86.29 612.79,-85.06 620.25,-92.58 623.31,-86.29"/>
</a>
</g>
</g>
<!-- Node21 -->
<g id="Node000021" class="node">
<title>Node21</title>
<g id="a_Node000021"><a xlink:href="common_8hpp.html" target="_top" xlink:title=" ">
<polygon fill="white" stroke="#666666" points="1261.5,-211.5 1118.5,-211.5 1118.5,-192.5 1261.5,-192.5 1261.5,-211.5"/>
<text text-anchor="middle" x="1190" y="-199.5" font-family="Helvetica,sans-Serif" font-size="10.00">unilink/base/common.hpp</text>
</a>
</g>
</g>
<!-- Node20&#45;&gt;Node21 -->
<g id="edge38_Node000020_Node000021" class="edge">
<title>Node20&#45;&gt;Node21</title>
<g id="a_edge38_Node000020_Node000021"><a xlink:title=" ">
<path fill="none" stroke="#63b8ff" d="M755.79,-258.47C848.42,-246.64 1015.48,-225.29 1113.17,-212.81"/>
<polygon fill="#63b8ff" stroke="#63b8ff" points="1113.8,-216.26 1123.27,-211.52 1112.91,-209.32 1113.8,-216.26"/>
</a>
</g>
</g>
<!-- Node32 -->
<g id="Node000032" class="node">
<title>Node32</title>
<g id="a_Node000032"><a xlink:href="error__codes_8hpp.html" target="_top" xlink:title=" ">
<polygon fill="white" stroke="#666666" points="1532,-217 1430,-217 1430,-187 1532,-187 1532,-217"/>
<text text-anchor="start" x="1438" y="-205" font-family="Helvetica,sans-Serif" font-size="10.00">unilink/base/error</text>
<text text-anchor="middle" x="1481" y="-194" font-family="Helvetica,sans-Serif" font-size="10.00">_codes.hpp</text>
</a>
</g>
</g>
<!-- Node20&#45;&gt;Node32 -->
<g id="edge65_Node000020_Node000032" class="edge">
<title>Node20&#45;&gt;Node32</title>
<g id="a_edge65_Node000020_Node000032"><a xlink:title=" ">
<path fill="none" stroke="#63b8ff" d="M765.66,-260.81C922.26,-248.15 1276.16,-219.55 1419.24,-207.99"/>
<polygon fill="#63b8ff" stroke="#63b8ff" points="1419.9,-211.45 1429.58,-207.15 1419.33,-204.47 1419.9,-211.45"/>
</a>
</g>
</g>
<!-- Node33 -->
<g id="Node000033" class="node">
<title>Node33</title>
<g id="a_Node000033"><a xlink:href="safe__data__buffer_8hpp.html" target="_top" xlink:title=" ">
<polygon fill="white" stroke="#666666" points="652,-151 534,-151 534,-121 652,-121 652,-151"/>
<text text-anchor="start" x="542" y="-139" font-family="Helvetica,sans-Serif" font-size="10.00">unilink/memory/safe</text>
<text text-anchor="middle" x="593" y="-128" font-family="Helvetica,sans-Serif" font-size="10.00">_data_buffer.hpp</text>
</a>
</g>
</g>
<!-- Node20&#45;&gt;Node33 -->
<g id="edge67_Node000020_Node000033" class="edge">
<title>Node20&#45;&gt;Node33</title>
<g id="a_edge67_Node000020_Node000033"><a xlink:title=" ">
<path fill="none" stroke="#63b8ff" d="M682.7,-258.47C668.03,-238.61 631.2,-188.74 609.57,-159.44"/>
<polygon fill="#63b8ff" stroke="#63b8ff" points="612.14,-157.03 603.39,-151.07 606.51,-161.19 612.14,-157.03"/>
</a>
</g>
</g>
<!-- Node21&#45;&gt;Node2 -->
<g id="edge39_Node000021_Node000002" class="edge">
<title>Node21&#45;&gt;Node2</title>
<g id="a_edge39_Node000021_Node000002"><a xlink:title=" ">
<path fill="none" stroke="#63b8ff" d="M1120.58,-192.46C1095.01,-185.58 1068.53,-173.2 1053,-151 1037.05,-128.2 1064.54,-101.54 1086.08,-85.48"/>
<polygon fill="#63b8ff" stroke="#63b8ff" points="1088.11,-88.33 1094.23,-79.67 1084.05,-82.62 1088.11,-88.33"/>
</a>
</g>
</g>
<!-- Node21&#45;&gt;Node3 -->
<g id="edge43_Node000021_Node000003" class="edge">
<title>Node21&#45;&gt;Node3</title>
<g id="a_edge43_Node000021_Node000003"><a xlink:title=" ">
<path fill="none" stroke="#63b8ff" d="M1118.31,-199.84C897.76,-195.96 242.22,-181.87 209,-151 192.53,-135.69 192.79,-108.09 195.27,-89.66"/>
<polygon fill="#63b8ff" stroke="#63b8ff" points="198.77,-89.99 196.98,-79.55 191.86,-88.83 198.77,-89.99"/>
</a>
</g>
</g>
<!-- Node21&#45;&gt;Node6 -->
<g id="edge48_Node000021_Node000006" class="edge">
<title>Node21&#45;&gt;Node6</title>
<g id="a_edge48_Node000021_Node000006"><a xlink:title=" ">
<path fill="none" stroke="#63b8ff" d="M1261.73,-196.57C1386.02,-188.44 1631.52,-170.2 1666,-151 1691.38,-136.87 1709.83,-107.63 1719.72,-88.69"/>
<polygon fill="#63b8ff" stroke="#63b8ff" points="1722.91,-90.14 1724.22,-79.62 1716.64,-87.03 1722.91,-90.14"/>
</a>
</g>
</g>
<!-- Node21&#45;&gt;Node7 -->
<g id="edge49_Node000021_Node000007" class="edge">
<title>Node21&#45;&gt;Node7</title>
<g id="a_edge49_Node000021_Node000007"><a xlink:title=" ">
<path fill="none" stroke="#63b8ff" d="M1118.22,-198.1C1031.63,-193.3 892.5,-181.05 851,-151 830.7,-136.3 820.1,-108.33 815.03,-89.67"/>
<polygon fill="#63b8ff" stroke="#63b8ff" points="818.37,-88.59 812.61,-79.7 811.57,-90.24 818.37,-88.59"/>
</a>
</g>
</g>
<!-- Node21&#45;&gt;Node10 -->
<g id="edge40_Node000021_Node000010" class="edge">
<title>Node21&#45;&gt;Node10</title>
<g id="a_edge40_Node000021_Node000010"><a xlink:title=" ">
<path fill="none" stroke="#63b8ff" d="M1261.98,-195.19C1384.07,-185 1619.91,-163.8 1633,-151 1665.61,-119.1 1660.96,-59.76 1655.91,-29.42"/>
<polygon fill="#63b8ff" stroke="#63b8ff" points="1659.3,-28.52 1654.03,-19.33 1652.42,-29.8 1659.3,-28.52"/>
</a>
</g>
</g>
<!-- Node21&#45;&gt;Node15 -->
<g id="edge51_Node000021_Node000015" class="edge">
<title>Node21&#45;&gt;Node15</title>
<g id="a_edge51_Node000021_Node000015"><a xlink:title=" ">
<path fill="none" stroke="#63b8ff" d="M1118.24,-201.21C969.07,-200.76 630.63,-194.75 525,-151 507.48,-143.74 469.31,-107.85 447.72,-86.69"/>
<polygon fill="#63b8ff" stroke="#63b8ff" points="450.15,-84.18 440.58,-79.64 445.23,-89.16 450.15,-84.18"/>
</a>
</g>
</g>
<!-- Node21&#45;&gt;Node19 -->
<g id="edge47_Node000021_Node000019" class="edge">
<title>Node21&#45;&gt;Node19</title>
<g id="a_edge47_Node000021_Node000019"><a xlink:title=" ">
<path fill="none" stroke="#63b8ff" d="M1118.24,-193.17C1090.82,-186.4 1061.87,-173.93 1044,-151 1017.68,-117.23 1066.35,-85.2 1036,-55 1001.4,-20.57 661.11,-25.52 578.08,-18.64"/>
<polygon fill="#63b8ff" stroke="#63b8ff" points="578.26,-15.14 567.95,-17.56 577.52,-22.1 578.26,-15.14"/>
</a>
</g>
</g>
<!-- Node22 -->
<g id="Node000022" class="node">
<title>Node22</title>
<g id="a_Node000022"><a xlink:title=" ">
<polygon fill="#e0e0e0" stroke="#999999" points="1272,-145.5 1222,-145.5 1222,-126.5 1272,-126.5 1272,-145.5"/>
<text text-anchor="middle" x="1247" y="-133.5" font-family="Helvetica,sans-Serif" font-size="10.00">cstring</text>
</a>
</g>
</g>
<!-- Node21&#45;&gt;Node22 -->
<g id="edge41_Node000021_Node000022" class="edge">
<title>Node21&#45;&gt;Node22</title>
<g id="a_edge41_Node000021_Node000022"><a xlink:title=" ">
<path fill="none" stroke="#63b8ff" d="M1197.69,-192.37C1206.48,-182.5 1221.07,-166.11 1232.11,-153.72"/>
<polygon fill="#63b8ff" stroke="#63b8ff" points="1235.03,-155.7 1239.07,-145.91 1229.8,-151.05 1235.03,-155.7"/>
</a>
</g>
</g>
<!-- Node23 -->
<g id="Node000023" class="node">
<title>Node23</title>
<g id="a_Node000023"><a xlink:title=" ">
<polygon fill="#e0e0e0" stroke="#999999" points="1334,-145.5 1290,-145.5 1290,-126.5 1334,-126.5 1334,-145.5"/>
<text text-anchor="middle" x="1312" y="-133.5" font-family="Helvetica,sans-Serif" font-size="10.00">ctime</text>
</a>
</g>
</g>
<!-- Node21&#45;&gt;Node23 -->
<g id="edge42_Node000021_Node000023" class="edge">
<title>Node21&#45;&gt;Node23</title>
<g id="a_edge42_Node000021_Node000023"><a xlink:title=" ">
<path fill="none" stroke="#63b8ff" d="M1206.45,-192.37C1227.01,-181.59 1262.4,-163.02 1286.49,-150.38"/>
<polygon fill="#63b8ff" stroke="#63b8ff" points="1288.19,-153.44 1295.42,-145.7 1284.94,-147.25 1288.19,-153.44"/>
</a>
</g>
</g>
<!-- Node24 -->
<g id="Node000024" class="node">
<title>Node24</title>
<g id="a_Node000024"><a xlink:title=" ">
<polygon fill="#e0e0e0" stroke="#999999" points="1408,-145.5 1352,-145.5 1352,-126.5 1408,-126.5 1408,-145.5"/>
<text text-anchor="middle" x="1380" y="-133.5" font-family="Helvetica,sans-Serif" font-size="10.00">iomanip</text>
</a>
</g>
</g>
<!-- Node21&#45;&gt;Node24 -->
<g id="edge44_Node000021_Node000024" class="edge">
<title>Node21&#45;&gt;Node24</title>
<g id="a_edge44_Node000021_Node000024"><a xlink:title=" ">
<path fill="none" stroke="#63b8ff" d="M1217.49,-192.43C1248.21,-182.76 1299.38,-166.37 1343,-151 1344.65,-150.42 1346.33,-149.82 1348.03,-149.2"/>
<polygon fill="#63b8ff" stroke="#63b8ff" points="1349.59,-152.36 1357.76,-145.61 1347.16,-145.79 1349.59,-152.36"/>
</a>
</g>
</g>
<!-- Node25 -->
<g id="Node000025" class="node">
<title>Node25</title>
<g id="a_Node000025"><a xlink:title=" ">
<polygon fill="#e0e0e0" stroke="#999999" points="1486,-145.5 1426,-145.5 1426,-126.5 1486,-126.5 1486,-145.5"/>
<text text-anchor="middle" x="1456" y="-133.5" font-family="Helvetica,sans-Serif" font-size="10.00">iostream</text>
</a>
</g>
</g>
<!-- Node21&#45;&gt;Node25 -->
<g id="edge45_Node000021_Node000025" class="edge">
<title>Node21&#45;&gt;Node25</title>
<g id="a_edge45_Node000021_Node000025"><a xlink:title=" ">
<path fill="none" stroke="#63b8ff" d="M1236.96,-192.48C1283.17,-183.66 1355.54,-168.72 1417,-151 1419.27,-150.34 1421.61,-149.63 1423.95,-148.87"/>
<polygon fill="#63b8ff" stroke="#63b8ff" points="1425.13,-152.17 1433.48,-145.64 1422.88,-145.54 1425.13,-152.17"/>
</a>
</g>
</g>
<!-- Node26 -->
<g id="Node000026" class="node">
<title>Node26</title>
<g id="a_Node000026"><a xlink:title=" ">
<polygon fill="#e0e0e0" stroke="#999999" points="1560,-145.5 1504,-145.5 1504,-126.5 1560,-126.5 1560,-145.5"/>
<text text-anchor="middle" x="1532" y="-133.5" font-family="Helvetica,sans-Serif" font-size="10.00">sstream</text>
</a>
</g>
</g>
<!-- Node21&#45;&gt;Node26 -->
<g id="edge46_Node000021_Node000026" class="edge">
<title>Node21&#45;&gt;Node26</title>
<g id="a_edge46_Node000021_Node000026"><a xlink:title=" ">
<path fill="none" stroke="#63b8ff" d="M1261.73,-193.34C1324.08,-185.71 1416.48,-172.06 1495,-151 1497.29,-150.38 1499.64,-149.68 1501.99,-148.92"/>
<polygon fill="#63b8ff" stroke="#63b8ff" points="1503.22,-152.2 1511.5,-145.59 1500.9,-145.6 1503.22,-152.2"/>
</a>
</g>
</g>
<!-- Node27 -->
<g id="Node000027" class="node">
<title>Node27</title>
<g id="a_Node000027"><a xlink:title=" ">
<polygon fill="#e0e0e0" stroke="#999999" points="1623.5,-145.5 1578.5,-145.5 1578.5,-126.5 1623.5,-126.5 1623.5,-145.5"/>
<text text-anchor="middle" x="1601" y="-133.5" font-family="Helvetica,sans-Serif" font-size="10.00">utility</text>
</a>
</g>
</g>
<!-- Node21&#45;&gt;Node27 -->
<g id="edge50_Node000021_Node000027" class="edge">
<title>Node21&#45;&gt;Node27</title>
<g id="a_edge50_Node000021_Node000027"><a xlink:title=" ">
<path fill="none" stroke="#63b8ff" d="M1261.74,-197.54C1338.87,-192.45 1464.47,-180.13 1569,-151 1570.69,-150.53 1572.4,-149.99 1574.11,-149.4"/>
<polygon fill="#63b8ff" stroke="#63b8ff" points="1575.7,-152.53 1583.72,-145.62 1573.13,-146.02 1575.7,-152.53"/>
</a>
</g>
</g>
<!-- Node28 -->
<g id="Node000028" class="node">
<title>Node28</title>
<g id="a_Node000028"><a xlink:href="platform_8hpp.html" target="_top" xlink:title=" ">
<polygon fill="white" stroke="#666666" points="1204,-145.5 1062,-145.5 1062,-126.5 1204,-126.5 1204,-145.5"/>
<text text-anchor="middle" x="1133" y="-133.5" font-family="Helvetica,sans-Serif" font-size="10.00">unilink/base/platform.hpp</text>
</a>
</g>
</g>
<!-- Node21&#45;&gt;Node28 -->
<g id="edge52_Node000021_Node000028" class="edge">
<title>Node21&#45;&gt;Node28</title>
<g id="a_edge52_Node000021_Node000028"><a xlink:title=" ">
<path fill="none" stroke="#63b8ff" d="M1182.31,-192.37C1173.52,-182.5 1158.93,-166.11 1147.89,-153.72"/>
<polygon fill="#63b8ff" stroke="#63b8ff" points="1150.2,-151.05 1140.93,-145.91 1144.97,-155.7 1150.2,-151.05"/>
</a>
</g>
</g>
<!-- Node29 -->
<g id="Node000029" class="node">
<title>Node29</title>
<g id="a_Node000029"><a xlink:href="logger_8hpp.html" target="_top" xlink:title=" ">
<polygon fill="white" stroke="#666666" points="968,-151 860,-151 860,-121 968,-121 968,-151"/>
<text text-anchor="start" x="868" y="-139" font-family="Helvetica,sans-Serif" font-size="10.00">unilink/diagnostics</text>
<text text-anchor="middle" x="914" y="-128" font-family="Helvetica,sans-Serif" font-size="10.00">/logger.hpp</text>
</a>
</g>
</g>
<!-- Node21&#45;&gt;Node29 -->
<g id="edge55_Node000021_Node000029" class="edge">
<title>Node21&#45;&gt;Node29</title>
<g id="a_edge55_Node000021_Node000029"><a xlink:title=" ">
<path fill="none" stroke="#63b8ff" d="M1153.06,-192.44C1108.33,-182.06 1032.23,-164.42 977.91,-151.82"/>
<polygon fill="#63b8ff" stroke="#63b8ff" points="978.56,-148.38 968.03,-149.53 976.98,-155.2 978.56,-148.38"/>
</a>
</g>
</g>
<!-- Node28&#45;&gt;Node6 -->
<g id="edge53_Node000028_Node000006" class="edge">
<title>Node28&#45;&gt;Node6</title>
<g id="a_edge53_Node000028_Node000006"><a xlink:title=" ">
<path fill="none" stroke="#63b8ff" d="M1178.18,-126.47C1189.52,-124.5 1201.68,-122.54 1213,-121 1394.88,-96.29 1614.5,-79.17 1695.75,-73.27"/>
<polygon fill="#63b8ff" stroke="#63b8ff" points="1696.12,-76.75 1705.84,-72.54 1695.62,-69.77 1696.12,-76.75"/>
</a>
</g>
</g>
<!-- Node28&#45;&gt;Node11 -->
<g id="edge54_Node000028_Node000011" class="edge">
<title>Node28&#45;&gt;Node11</title>
<g id="a_edge54_Node000028_Node000011"><a xlink:title=" ">
<path fill="none" stroke="#63b8ff" d="M1061.98,-128.22C1035.34,-125.78 1004.79,-123.11 977,-121 720.8,-101.51 655.16,-115.19 400,-85 391.35,-83.98 382.22,-82.63 373.34,-81.18"/>
<polygon fill="#63b8ff" stroke="#63b8ff" points="373.91,-77.73 363.47,-79.51 372.74,-84.63 373.91,-77.73"/>
</a>
</g>
</g>
<!-- Node29&#45;&gt;Node2 -->
<g id="edge57_Node000029_Node000002" class="edge">
<title>Node29&#45;&gt;Node2</title>
<g id="a_edge57_Node000029_Node000002"><a xlink:title=" ">
<path fill="none" stroke="#63b8ff" d="M956.57,-120.95C991.55,-109.42 1040.48,-93.28 1073.15,-82.5"/>
<polygon fill="#63b8ff" stroke="#63b8ff" points="1074.34,-85.79 1082.74,-79.33 1072.15,-79.14 1074.34,-85.79"/>
</a>
</g>
</g>
<!-- Node29&#45;&gt;Node3 -->
<g id="edge58_Node000029_Node000003" class="edge">
<title>Node29&#45;&gt;Node3</title>
<g id="a_edge58_Node000029_Node000003"><a xlink:title=" ">
<path fill="none" stroke="#63b8ff" d="M859.81,-131.75C710.62,-122.69 300.95,-97.02 241,-85 237.76,-84.35 234.42,-83.52 231.11,-82.6"/>
<polygon fill="#63b8ff" stroke="#63b8ff" points="231.98,-79.2 221.39,-79.6 229.92,-85.89 231.98,-79.2"/>
</a>
</g>
</g>
<!-- Node29&#45;&gt;Node5 -->
<g id="edge59_Node000029_Node000005" class="edge">
<title>Node29&#45;&gt;Node5</title>
<g id="a_edge59_Node000029_Node000005"><a xlink:title=" ">
<path fill="none" stroke="#63b8ff" d="M859.71,-131.84C691.99,-122.03 191.28,-92.29 157,-85 154.16,-84.4 151.25,-83.62 148.37,-82.75"/>
<polygon fill="#63b8ff" stroke="#63b8ff" points="149.39,-79.4 138.8,-79.51 147.15,-86.03 149.39,-79.4"/>
</a>
</g>
</g>
<!-- Node29&#45;&gt;Node6 -->
<g id="edge61_Node000029_Node000006" class="edge">
<title>Node29&#45;&gt;Node6</title>
<g id="a_edge61_Node000029_Node000006"><a xlink:title=" ">
<path fill="none" stroke="#63b8ff" d="M968.1,-129.22C993.8,-126.55 1024.97,-123.45 1053,-121 1300.1,-99.41 1598.63,-79.43 1695.78,-73.08"/>
<polygon fill="#63b8ff" stroke="#63b8ff" points="1696.09,-76.57 1705.84,-72.43 1695.63,-69.59 1696.09,-76.57"/>
</a>
</g>
</g>
<!-- Node29&#45;&gt;Node7 -->
<g id="edge62_Node000029_Node000007" class="edge">
<title>Node29&#45;&gt;Node7</title>
<g id="a_edge62_Node000029_Node000007"><a xlink:title=" ">
<path fill="none" stroke="#63b8ff" d="M891.4,-120.95C874.21,-110.27 850.67,-95.65 833.51,-84.98"/>
<polygon fill="#63b8ff" stroke="#63b8ff" points="835.05,-81.82 824.71,-79.52 831.35,-87.77 835.05,-81.82"/>
</a>
</g>
</g>
<!-- Node29&#45;&gt;Node11 -->
<g id="edge64_Node000029_Node000011" class="edge">
<title>Node29&#45;&gt;Node11</title>
<g id="a_edge64_Node000029_Node000011"><a xlink:title=" ">
<path fill="none" stroke="#63b8ff" d="M859.82,-131.1C765.93,-124.03 567.02,-107.7 400,-85 391.95,-83.91 383.48,-82.6 375.18,-81.22"/>
<polygon fill="#63b8ff" stroke="#63b8ff" points="375.62,-77.75 365.18,-79.53 374.45,-84.65 375.62,-77.75"/>
</a>
</g>
</g>
<!-- Node29&#45;&gt;Node15 -->
<g id="edge63_Node000029_Node000015" class="edge">
<title>Node29&#45;&gt;Node15</title>
<g id="a_edge63_Node000029_Node000015"><a xlink:title=" ">
<path fill="none" stroke="#63b8ff" d="M859.97,-129.71C781.22,-121.71 630.42,-105.29 503,-85 490.72,-83.04 477.32,-80.51 465.5,-78.13"/>
<polygon fill="#63b8ff" stroke="#63b8ff" points="466.09,-74.68 455.59,-76.1 464.68,-81.54 466.09,-74.68"/>
</a>
</g>
</g>
<!-- Node30 -->
<g id="Node000030" class="node">
<title>Node30</title>
<g id="a_Node000030"><a xlink:title=" ">
<polygon fill="#e0e0e0" stroke="#999999" points="1027,-79.5 977,-79.5 977,-60.5 1027,-60.5 1027,-79.5"/>
<text text-anchor="middle" x="1002" y="-67.5" font-family="Helvetica,sans-Serif" font-size="10.00">atomic</text>
</a>
</g>
</g>
<!-- Node29&#45;&gt;Node30 -->
<g id="edge56_Node000029_Node000030" class="edge">
<title>Node29&#45;&gt;Node30</title>
<g id="a_edge56_Node000029_Node000030"><a xlink:title=" ">
<path fill="none" stroke="#63b8ff" d="M933.53,-120.8C947.87,-110.37 967.3,-96.24 981.79,-85.69"/>
<polygon fill="#63b8ff" stroke="#63b8ff" points="984.07,-88.37 990.09,-79.66 979.95,-82.71 984.07,-88.37"/>
</a>
</g>
</g>
<!-- Node31 -->
<g id="Node000031" class="node">
<title>Node31</title>
<g id="a_Node000031"><a xlink:title=" ">
<polygon fill="#e0e0e0" stroke="#999999" points="958.5,-79.5 865.5,-79.5 865.5,-60.5 958.5,-60.5 958.5,-79.5"/>
<text text-anchor="middle" x="912" y="-67.5" font-family="Helvetica,sans-Serif" font-size="10.00">source_location</text>
</a>
</g>
</g>
<!-- Node29&#45;&gt;Node31 -->
<g id="edge60_Node000029_Node000031" class="edge">
<title>Node29&#45;&gt;Node31</title>
<g id="a_edge60_Node000029_Node000031"><a xlink:title=" ">
<path fill="none" stroke="#63b8ff" d="M913.56,-120.8C913.27,-111.7 912.9,-99.79 912.59,-89.9"/>
<polygon fill="#63b8ff" stroke="#63b8ff" points="916.09,-89.73 912.28,-79.84 909.09,-89.95 916.09,-89.73"/>
</a>
</g>
</g>
<!-- Node32&#45;&gt;Node6 -->
<g id="edge66_Node000032_Node000006" class="edge">
<title>Node32&#45;&gt;Node6</title>
<g id="a_edge66_Node000032_Node000006"><a xlink:title=" ">
<path fill="none" stroke="#63b8ff" d="M1532,-195.55C1589.88,-188.37 1679.43,-173.89 1704,-151 1720.87,-135.29 1726.04,-108.23 1727.54,-89.98"/>
<polygon fill="#63b8ff" stroke="#63b8ff" points="1731.04,-90.11 1728.07,-79.94 1724.05,-89.74 1731.04,-90.11"/>
</a>
</g>
</g>
<!-- Node33&#45;&gt;Node3 -->
<g id="edge69_Node000033_Node000003" class="edge">
<title>Node33&#45;&gt;Node3</title>
<g id="a_edge69_Node000033_Node000003"><a xlink:title=" ">
<path fill="none" stroke="#63b8ff" d="M533.85,-129.89C463.41,-123.05 342.53,-108.93 241,-85 238.03,-84.3 234.97,-83.48 231.92,-82.59"/>
<polygon fill="#63b8ff" stroke="#63b8ff" points="232.92,-79.24 222.33,-79.61 230.84,-85.92 232.92,-79.24"/>
</a>
</g>
</g>
<!-- Node33&#45;&gt;Node5 -->
<g id="edge70_Node000033_Node000005" class="edge">
<title>Node33&#45;&gt;Node5</title>
<g id="a_edge70_Node000033_Node000005"><a xlink:title=" ">
<path fill="none" stroke="#63b8ff" d="M533.69,-132.68C449.08,-128.37 289.31,-116.48 157,-85 154.49,-84.4 151.91,-83.69 149.34,-82.9"/>
<polygon fill="#63b8ff" stroke="#63b8ff" points="150.22,-79.5 139.63,-79.62 147.98,-86.14 150.22,-79.5"/>
</a>
</g>
</g>
<!-- Node33&#45;&gt;Node6 -->
<g id="edge72_Node000033_Node000006" class="edge">
<title>Node33&#45;&gt;Node6</title>
<g id="a_edge72_Node000033_Node000006"><a xlink:title=" ">
<path fill="none" stroke="#63b8ff" d="M652.03,-131.67C857.55,-120.08 1537.78,-81.73 1695.25,-72.85"/>
<polygon fill="#63b8ff" stroke="#63b8ff" points="1695.89,-76.32 1705.67,-72.26 1695.49,-69.33 1695.89,-76.32"/>
</a>
</g>
</g>
<!-- Node33&#45;&gt;Node7 -->
<g id="edge73_Node000033_Node000007" class="edge">
<title>Node33&#45;&gt;Node7</title>
<g id="a_edge73_Node000033_Node000007"><a xlink:title=" ">
<path fill="none" stroke="#63b8ff" d="M640.84,-120.95C680.25,-109.38 735.43,-93.18 772.15,-82.41"/>
<polygon fill="#63b8ff" stroke="#63b8ff" points="773.38,-85.69 781.99,-79.52 771.41,-78.98 773.38,-85.69"/>
</a>
</g>
</g>
<!-- Node33&#45;&gt;Node10 -->
<g id="edge68_Node000033_Node000010" class="edge">
<title>Node33&#45;&gt;Node10</title>
<g id="a_edge68_Node000033_Node000010"><a xlink:title=" ">
<path fill="none" stroke="#63b8ff" d="M641.03,-120.95C667.27,-112.33 699.86,-100.05 727,-85 746.12,-74.39 745.48,-62.56 766,-55 846.71,-25.27 1461.21,-13.54 1616.46,-11.04"/>
<polygon fill="#63b8ff" stroke="#63b8ff" points="1616.89,-14.53 1626.83,-10.87 1616.78,-7.53 1616.89,-14.53"/>
</a>
</g>
</g>
<!-- Node33&#45;&gt;Node11 -->
<g id="edge76_Node000033_Node000011" class="edge">
<title>Node33&#45;&gt;Node11</title>
<g id="a_edge76_Node000033_Node000011"><a xlink:title=" ">
<path fill="none" stroke="#63b8ff" d="M533.76,-121.11C483.5,-109.33 412.41,-92.66 366.26,-81.84"/>
<polygon fill="#63b8ff" stroke="#63b8ff" points="367.05,-78.44 356.52,-79.56 365.45,-85.25 367.05,-78.44"/>
</a>
</g>
</g>
<!-- Node33&#45;&gt;Node15 -->
<g id="edge75_Node000033_Node000015" class="edge">
<title>Node33&#45;&gt;Node15</title>
<g id="a_edge75_Node000033_Node000015"><a xlink:title=" ">
<path fill="none" stroke="#63b8ff" d="M557.67,-120.95C529.31,-109.68 489.89,-94.01 462.8,-83.25"/>
<polygon fill="#63b8ff" stroke="#63b8ff" points="464.01,-79.96 453.43,-79.52 461.43,-86.46 464.01,-79.96"/>
</a>
</g>
</g>
<!-- Node33&#45;&gt;Node17 -->
<g id="edge77_Node000033_Node000017" class="edge">
<title>Node33&#45;&gt;Node17</title>
<g id="a_edge77_Node000033_Node000017"><a xlink:title=" ">
<path fill="none" stroke="#63b8ff" d="M588.12,-120.8C585.5,-113.17 582.2,-103.57 579.2,-94.84"/>
<polygon fill="#63b8ff" stroke="#63b8ff" points="582.43,-93.48 575.87,-85.16 575.81,-95.76 582.43,-93.48"/>
</a>
</g>
</g>
<!-- Node33&#45;&gt;Node19 -->
<g id="edge71_Node000033_Node000019" class="edge">
<title>Node33&#45;&gt;Node19</title>
<g id="a_edge71_Node000033_Node000019"><a xlink:title=" ">
<path fill="none" stroke="#63b8ff" d="M547.35,-120.87C530.34,-113.14 512.79,-101.64 503,-85 491.8,-65.96 506.36,-42.27 519.3,-26.78"/>
<polygon fill="#63b8ff" stroke="#63b8ff" points="522.11,-28.89 526.15,-19.1 516.88,-24.23 522.11,-28.89"/>
</a>
</g>
</g>
<!-- Node34 -->
<g id="Node000034" class="node">
<title>Node34</title>
<g id="a_Node000034"><a xlink:title=" ">
<polygon fill="#e0e0e0" stroke="#999999" points="717.5,-79.5 648.5,-79.5 648.5,-60.5 717.5,-60.5 717.5,-79.5"/>
<text text-anchor="middle" x="683" y="-67.5" font-family="Helvetica,sans-Serif" font-size="10.00">type_traits</text>
</a>
</g>
</g>
<!-- Node33&#45;&gt;Node34 -->
<g id="edge74_Node000033_Node000034" class="edge">
<title>Node33&#45;&gt;Node34</title>
<g id="a_edge74_Node000033_Node000034"><a xlink:title=" ">
<path fill="none" stroke="#63b8ff" d="M612.97,-120.8C627.64,-110.37 647.51,-96.24 662.34,-85.69"/>
<polygon fill="#63b8ff" stroke="#63b8ff" points="664.7,-88.31 670.82,-79.66 660.65,-82.6 664.7,-88.31"/>
</a>
</g>
</g>
</g>
</svg>
